<?xml version="1.0" encoding="utf-8" standalone="no"?>
<!DOCTYPE svg PUBLIC "-//W3C//DTD SVG 1.1//EN"
  "http://www.w3.org/Graphics/SVG/1.1/DTD/svg11.dtd">
<!-- Created with matplotlib (https://matplotlib.org/) -->
<svg height="564.610093pt" version="1.1" viewBox="0 0 1177.8275 564.610093" width="1177.8275pt" xmlns="http://www.w3.org/2000/svg" xmlns:xlink="http://www.w3.org/1999/xlink">
 <defs>
  <style type="text/css">
*{stroke-linecap:butt;stroke-linejoin:round;}
  </style>
 </defs>
 <g id="figure_1">
  <g id="patch_1">
   <path d="M 0 564.610093 
L 1177.8275 564.610093 
L 1177.8275 0 
L 0 0 
z
" style="fill:#ffffff;"/>
  </g>
  <g id="axes_1">
   <g id="patch_2">
    <path d="M 54.6275 501.738984 
L 1170.6275 501.738984 
L 1170.6275 12.138984 
L 54.6275 12.138984 
z
" style="fill:#ffffff;"/>
   </g>
   <g id="matplotlib.axis_1">
    <g id="xtick_1">
     <g id="line2d_1">
      <defs>
       <path d="M 0 0 
L 0 3.5 
" id="mcc803fd436" style="stroke:#000000;stroke-width:0.8;"/>
      </defs>
      <g>
       <use style="stroke:#000000;stroke-width:0.8;" x="203.536591" xlink:href="#mcc803fd436" y="501.738984"/>
      </g>
     </g>
     <g id="text_1">
      <!-- 2020-04-01 -->
      <defs>
       <path d="M 19.1875 8.296875 
L 53.609375 8.296875 
L 53.609375 0 
L 7.328125 0 
L 7.328125 8.296875 
Q 12.9375 14.109375 22.625 23.890625 
Q 32.328125 33.6875 34.8125 36.53125 
Q 39.546875 41.84375 41.421875 45.53125 
Q 43.3125 49.21875 43.3125 52.78125 
Q 43.3125 58.59375 39.234375 62.25 
Q 35.15625 65.921875 28.609375 65.921875 
Q 23.96875 65.921875 18.8125 64.3125 
Q 13.671875 62.703125 7.8125 59.421875 
L 7.8125 69.390625 
Q 13.765625 71.78125 18.9375 73 
Q 24.125 74.21875 28.421875 74.21875 
Q 39.75 74.21875 46.484375 68.546875 
Q 53.21875 62.890625 53.21875 53.421875 
Q 53.21875 48.921875 51.53125 44.890625 
Q 49.859375 40.875 45.40625 35.40625 
Q 44.1875 33.984375 37.640625 27.21875 
Q 31.109375 20.453125 19.1875 8.296875 
z
" id="DejaVuSans-50"/>
       <path d="M 31.78125 66.40625 
Q 24.171875 66.40625 20.328125 58.90625 
Q 16.5 51.421875 16.5 36.375 
Q 16.5 21.390625 20.328125 13.890625 
Q 24.171875 6.390625 31.78125 6.390625 
Q 39.453125 6.390625 43.28125 13.890625 
Q 47.125 21.390625 47.125 36.375 
Q 47.125 51.421875 43.28125 58.90625 
Q 39.453125 66.40625 31.78125 66.40625 
z
M 31.78125 74.21875 
Q 44.046875 74.21875 50.515625 64.515625 
Q 56.984375 54.828125 56.984375 36.375 
Q 56.984375 17.96875 50.515625 8.265625 
Q 44.046875 -1.421875 31.78125 -1.421875 
Q 19.53125 -1.421875 13.0625 8.265625 
Q 6.59375 17.96875 6.59375 36.375 
Q 6.59375 54.828125 13.0625 64.515625 
Q 19.53125 74.21875 31.78125 74.21875 
z
" id="DejaVuSans-48"/>
       <path d="M 4.890625 31.390625 
L 31.203125 31.390625 
L 31.203125 23.390625 
L 4.890625 23.390625 
z
" id="DejaVuSans-45"/>
       <path d="M 37.796875 64.3125 
L 12.890625 25.390625 
L 37.796875 25.390625 
z
M 35.203125 72.90625 
L 47.609375 72.90625 
L 47.609375 25.390625 
L 58.015625 25.390625 
L 58.015625 17.1875 
L 47.609375 17.1875 
L 47.609375 0 
L 37.796875 0 
L 37.796875 17.1875 
L 4.890625 17.1875 
L 4.890625 26.703125 
z
" id="DejaVuSans-52"/>
       <path d="M 12.40625 8.296875 
L 28.515625 8.296875 
L 28.515625 63.921875 
L 10.984375 60.40625 
L 10.984375 69.390625 
L 28.421875 72.90625 
L 38.28125 72.90625 
L 38.28125 8.296875 
L 54.390625 8.296875 
L 54.390625 0 
L 12.40625 0 
z
" id="DejaVuSans-49"/>
      </defs>
      <g transform="translate(136.756304 555.068713)rotate(-30)scale(0.13 -0.13)">
       <use xlink:href="#DejaVuSans-50"/>
       <use x="63.623047" xlink:href="#DejaVuSans-48"/>
       <use x="127.246094" xlink:href="#DejaVuSans-50"/>
       <use x="190.869141" xlink:href="#DejaVuSans-48"/>
       <use x="254.492188" xlink:href="#DejaVuSans-45"/>
       <use x="290.576172" xlink:href="#DejaVuSans-48"/>
       <use x="354.199219" xlink:href="#DejaVuSans-52"/>
       <use x="417.822266" xlink:href="#DejaVuSans-45"/>
       <use x="453.90625" xlink:href="#DejaVuSans-48"/>
       <use x="517.529297" xlink:href="#DejaVuSans-49"/>
      </g>
     </g>
    </g>
    <g id="xtick_2">
     <g id="line2d_2">
      <g>
       <use style="stroke:#000000;stroke-width:0.8;" x="356.263864" xlink:href="#mcc803fd436" y="501.738984"/>
      </g>
     </g>
     <g id="text_2">
      <!-- 2020-04-15 -->
      <defs>
       <path d="M 10.796875 72.90625 
L 49.515625 72.90625 
L 49.515625 64.59375 
L 19.828125 64.59375 
L 19.828125 46.734375 
Q 21.96875 47.46875 24.109375 47.828125 
Q 26.265625 48.1875 28.421875 48.1875 
Q 40.625 48.1875 47.75 41.5 
Q 54.890625 34.8125 54.890625 23.390625 
Q 54.890625 11.625 47.5625 5.09375 
Q 40.234375 -1.421875 26.90625 -1.421875 
Q 22.3125 -1.421875 17.546875 -0.640625 
Q 12.796875 0.140625 7.71875 1.703125 
L 7.71875 11.625 
Q 12.109375 9.234375 16.796875 8.0625 
Q 21.484375 6.890625 26.703125 6.890625 
Q 35.15625 6.890625 40.078125 11.328125 
Q 45.015625 15.765625 45.015625 23.390625 
Q 45.015625 31 40.078125 35.4375 
Q 35.15625 39.890625 26.703125 39.890625 
Q 22.75 39.890625 18.8125 39.015625 
Q 14.890625 38.140625 10.796875 36.28125 
z
" id="DejaVuSans-53"/>
      </defs>
      <g transform="translate(289.483577 555.068713)rotate(-30)scale(0.13 -0.13)">
       <use xlink:href="#DejaVuSans-50"/>
       <use x="63.623047" xlink:href="#DejaVuSans-48"/>
       <use x="127.246094" xlink:href="#DejaVuSans-50"/>
       <use x="190.869141" xlink:href="#DejaVuSans-48"/>
       <use x="254.492188" xlink:href="#DejaVuSans-45"/>
       <use x="290.576172" xlink:href="#DejaVuSans-48"/>
       <use x="354.199219" xlink:href="#DejaVuSans-52"/>
       <use x="417.822266" xlink:href="#DejaVuSans-45"/>
       <use x="453.90625" xlink:href="#DejaVuSans-49"/>
       <use x="517.529297" xlink:href="#DejaVuSans-53"/>
      </g>
     </g>
    </g>
    <g id="xtick_3">
     <g id="line2d_3">
      <g>
       <use style="stroke:#000000;stroke-width:0.8;" x="530.809318" xlink:href="#mcc803fd436" y="501.738984"/>
      </g>
     </g>
     <g id="text_3">
      <!-- 2020-05-01 -->
      <g transform="translate(464.029031 555.068713)rotate(-30)scale(0.13 -0.13)">
       <use xlink:href="#DejaVuSans-50"/>
       <use x="63.623047" xlink:href="#DejaVuSans-48"/>
       <use x="127.246094" xlink:href="#DejaVuSans-50"/>
       <use x="190.869141" xlink:href="#DejaVuSans-48"/>
       <use x="254.492188" xlink:href="#DejaVuSans-45"/>
       <use x="290.576172" xlink:href="#DejaVuSans-48"/>
       <use x="354.199219" xlink:href="#DejaVuSans-53"/>
       <use x="417.822266" xlink:href="#DejaVuSans-45"/>
       <use x="453.90625" xlink:href="#DejaVuSans-48"/>
       <use x="517.529297" xlink:href="#DejaVuSans-49"/>
      </g>
     </g>
    </g>
    <g id="xtick_4">
     <g id="line2d_4">
      <g>
       <use style="stroke:#000000;stroke-width:0.8;" x="683.536591" xlink:href="#mcc803fd436" y="501.738984"/>
      </g>
     </g>
     <g id="text_4">
      <!-- 2020-05-15 -->
      <g transform="translate(616.756304 555.068713)rotate(-30)scale(0.13 -0.13)">
       <use xlink:href="#DejaVuSans-50"/>
       <use x="63.623047" xlink:href="#DejaVuSans-48"/>
       <use x="127.246094" xlink:href="#DejaVuSans-50"/>
       <use x="190.869141" xlink:href="#DejaVuSans-48"/>
       <use x="254.492188" xlink:href="#DejaVuSans-45"/>
       <use x="290.576172" xlink:href="#DejaVuSans-48"/>
       <use x="354.199219" xlink:href="#DejaVuSans-53"/>
       <use x="417.822266" xlink:href="#DejaVuSans-45"/>
       <use x="453.90625" xlink:href="#DejaVuSans-49"/>
       <use x="517.529297" xlink:href="#DejaVuSans-53"/>
      </g>
     </g>
    </g>
    <g id="xtick_5">
     <g id="line2d_5">
      <g>
       <use style="stroke:#000000;stroke-width:0.8;" x="868.991136" xlink:href="#mcc803fd436" y="501.738984"/>
      </g>
     </g>
     <g id="text_5">
      <!-- 2020-06-01 -->
      <defs>
       <path d="M 33.015625 40.375 
Q 26.375 40.375 22.484375 35.828125 
Q 18.609375 31.296875 18.609375 23.390625 
Q 18.609375 15.53125 22.484375 10.953125 
Q 26.375 6.390625 33.015625 6.390625 
Q 39.65625 6.390625 43.53125 10.953125 
Q 47.40625 15.53125 47.40625 23.390625 
Q 47.40625 31.296875 43.53125 35.828125 
Q 39.65625 40.375 33.015625 40.375 
z
M 52.59375 71.296875 
L 52.59375 62.3125 
Q 48.875 64.0625 45.09375 64.984375 
Q 41.3125 65.921875 37.59375 65.921875 
Q 27.828125 65.921875 22.671875 59.328125 
Q 17.53125 52.734375 16.796875 39.40625 
Q 19.671875 43.65625 24.015625 45.921875 
Q 28.375 48.1875 33.59375 48.1875 
Q 44.578125 48.1875 50.953125 41.515625 
Q 57.328125 34.859375 57.328125 23.390625 
Q 57.328125 12.15625 50.6875 5.359375 
Q 44.046875 -1.421875 33.015625 -1.421875 
Q 20.359375 -1.421875 13.671875 8.265625 
Q 6.984375 17.96875 6.984375 36.375 
Q 6.984375 53.65625 15.1875 63.9375 
Q 23.390625 74.21875 37.203125 74.21875 
Q 40.921875 74.21875 44.703125 73.484375 
Q 48.484375 72.75 52.59375 71.296875 
z
" id="DejaVuSans-54"/>
      </defs>
      <g transform="translate(802.21085 555.068713)rotate(-30)scale(0.13 -0.13)">
       <use xlink:href="#DejaVuSans-50"/>
       <use x="63.623047" xlink:href="#DejaVuSans-48"/>
       <use x="127.246094" xlink:href="#DejaVuSans-50"/>
       <use x="190.869141" xlink:href="#DejaVuSans-48"/>
       <use x="254.492188" xlink:href="#DejaVuSans-45"/>
       <use x="290.576172" xlink:href="#DejaVuSans-48"/>
       <use x="354.199219" xlink:href="#DejaVuSans-54"/>
       <use x="417.822266" xlink:href="#DejaVuSans-45"/>
       <use x="453.90625" xlink:href="#DejaVuSans-48"/>
       <use x="517.529297" xlink:href="#DejaVuSans-49"/>
      </g>
     </g>
    </g>
    <g id="xtick_6">
     <g id="line2d_6">
      <g>
       <use style="stroke:#000000;stroke-width:0.8;" x="1021.718409" xlink:href="#mcc803fd436" y="501.738984"/>
      </g>
     </g>
     <g id="text_6">
      <!-- 2020-06-15 -->
      <g transform="translate(954.938122 555.068713)rotate(-30)scale(0.13 -0.13)">
       <use xlink:href="#DejaVuSans-50"/>
       <use x="63.623047" xlink:href="#DejaVuSans-48"/>
       <use x="127.246094" xlink:href="#DejaVuSans-50"/>
       <use x="190.869141" xlink:href="#DejaVuSans-48"/>
       <use x="254.492188" xlink:href="#DejaVuSans-45"/>
       <use x="290.576172" xlink:href="#DejaVuSans-48"/>
       <use x="354.199219" xlink:href="#DejaVuSans-54"/>
       <use x="417.822266" xlink:href="#DejaVuSans-45"/>
       <use x="453.90625" xlink:href="#DejaVuSans-49"/>
       <use x="517.529297" xlink:href="#DejaVuSans-53"/>
      </g>
     </g>
    </g>
   </g>
   <g id="matplotlib.axis_2">
    <g id="ytick_1">
     <g id="line2d_7">
      <path clip-path="url(#p9910cc11f3)" d="M 54.6275 489.498132 
L 1170.6275 489.498132 
" style="fill:none;stroke:#b0b0b0;stroke-linecap:square;stroke-width:0.8;"/>
     </g>
     <g id="line2d_8">
      <defs>
       <path d="M 0 0 
L -3.5 0 
" id="m524049104b" style="stroke:#000000;stroke-width:0.8;"/>
      </defs>
      <g>
       <use style="stroke:#000000;stroke-width:0.8;" x="54.6275" xlink:href="#m524049104b" y="489.498132"/>
      </g>
     </g>
     <g id="text_7">
      <!-- 0 -->
      <g transform="translate(39.35625 494.437116)scale(0.13 -0.13)">
       <use xlink:href="#DejaVuSans-48"/>
      </g>
     </g>
    </g>
    <g id="ytick_2">
     <g id="line2d_9">
      <path clip-path="url(#p9910cc11f3)" d="M 54.6275 421.303968 
L 1170.6275 421.303968 
" style="fill:none;stroke:#b0b0b0;stroke-linecap:square;stroke-width:0.8;"/>
     </g>
     <g id="line2d_10">
      <g>
       <use style="stroke:#000000;stroke-width:0.8;" x="54.6275" xlink:href="#m524049104b" y="421.303968"/>
      </g>
     </g>
     <g id="text_8">
      <!-- 100 -->
      <g transform="translate(22.81375 426.242952)scale(0.13 -0.13)">
       <use xlink:href="#DejaVuSans-49"/>
       <use x="63.623047" xlink:href="#DejaVuSans-48"/>
       <use x="127.246094" xlink:href="#DejaVuSans-48"/>
      </g>
     </g>
    </g>
    <g id="ytick_3">
     <g id="line2d_11">
      <path clip-path="url(#p9910cc11f3)" d="M 54.6275 353.109804 
L 1170.6275 353.109804 
" style="fill:none;stroke:#b0b0b0;stroke-linecap:square;stroke-width:0.8;"/>
     </g>
     <g id="line2d_12">
      <g>
       <use style="stroke:#000000;stroke-width:0.8;" x="54.6275" xlink:href="#m524049104b" y="353.109804"/>
      </g>
     </g>
     <g id="text_9">
      <!-- 200 -->
      <g transform="translate(22.81375 358.048788)scale(0.13 -0.13)">
       <use xlink:href="#DejaVuSans-50"/>
       <use x="63.623047" xlink:href="#DejaVuSans-48"/>
       <use x="127.246094" xlink:href="#DejaVuSans-48"/>
      </g>
     </g>
    </g>
    <g id="ytick_4">
     <g id="line2d_13">
      <path clip-path="url(#p9910cc11f3)" d="M 54.6275 284.91564 
L 1170.6275 284.91564 
" style="fill:none;stroke:#b0b0b0;stroke-linecap:square;stroke-width:0.8;"/>
     </g>
     <g id="line2d_14">
      <g>
       <use style="stroke:#000000;stroke-width:0.8;" x="54.6275" xlink:href="#m524049104b" y="284.91564"/>
      </g>
     </g>
     <g id="text_10">
      <!-- 300 -->
      <defs>
       <path d="M 40.578125 39.3125 
Q 47.65625 37.796875 51.625 33 
Q 55.609375 28.21875 55.609375 21.1875 
Q 55.609375 10.40625 48.1875 4.484375 
Q 40.765625 -1.421875 27.09375 -1.421875 
Q 22.515625 -1.421875 17.65625 -0.515625 
Q 12.796875 0.390625 7.625 2.203125 
L 7.625 11.71875 
Q 11.71875 9.328125 16.59375 8.109375 
Q 21.484375 6.890625 26.8125 6.890625 
Q 36.078125 6.890625 40.9375 10.546875 
Q 45.796875 14.203125 45.796875 21.1875 
Q 45.796875 27.640625 41.28125 31.265625 
Q 36.765625 34.90625 28.71875 34.90625 
L 20.21875 34.90625 
L 20.21875 43.015625 
L 29.109375 43.015625 
Q 36.375 43.015625 40.234375 45.921875 
Q 44.09375 48.828125 44.09375 54.296875 
Q 44.09375 59.90625 40.109375 62.90625 
Q 36.140625 65.921875 28.71875 65.921875 
Q 24.65625 65.921875 20.015625 65.03125 
Q 15.375 64.15625 9.8125 62.3125 
L 9.8125 71.09375 
Q 15.4375 72.65625 20.34375 73.4375 
Q 25.25 74.21875 29.59375 74.21875 
Q 40.828125 74.21875 47.359375 69.109375 
Q 53.90625 64.015625 53.90625 55.328125 
Q 53.90625 49.265625 50.4375 45.09375 
Q 46.96875 40.921875 40.578125 39.3125 
z
" id="DejaVuSans-51"/>
      </defs>
      <g transform="translate(22.81375 289.854625)scale(0.13 -0.13)">
       <use xlink:href="#DejaVuSans-51"/>
       <use x="63.623047" xlink:href="#DejaVuSans-48"/>
       <use x="127.246094" xlink:href="#DejaVuSans-48"/>
      </g>
     </g>
    </g>
    <g id="ytick_5">
     <g id="line2d_15">
      <path clip-path="url(#p9910cc11f3)" d="M 54.6275 216.721476 
L 1170.6275 216.721476 
" style="fill:none;stroke:#b0b0b0;stroke-linecap:square;stroke-width:0.8;"/>
     </g>
     <g id="line2d_16">
      <g>
       <use style="stroke:#000000;stroke-width:0.8;" x="54.6275" xlink:href="#m524049104b" y="216.721476"/>
      </g>
     </g>
     <g id="text_11">
      <!-- 400 -->
      <g transform="translate(22.81375 221.660461)scale(0.13 -0.13)">
       <use xlink:href="#DejaVuSans-52"/>
       <use x="63.623047" xlink:href="#DejaVuSans-48"/>
       <use x="127.246094" xlink:href="#DejaVuSans-48"/>
      </g>
     </g>
    </g>
    <g id="ytick_6">
     <g id="line2d_17">
      <path clip-path="url(#p9910cc11f3)" d="M 54.6275 148.527312 
L 1170.6275 148.527312 
" style="fill:none;stroke:#b0b0b0;stroke-linecap:square;stroke-width:0.8;"/>
     </g>
     <g id="line2d_18">
      <g>
       <use style="stroke:#000000;stroke-width:0.8;" x="54.6275" xlink:href="#m524049104b" y="148.527312"/>
      </g>
     </g>
     <g id="text_12">
      <!-- 500 -->
      <g transform="translate(22.81375 153.466297)scale(0.13 -0.13)">
       <use xlink:href="#DejaVuSans-53"/>
       <use x="63.623047" xlink:href="#DejaVuSans-48"/>
       <use x="127.246094" xlink:href="#DejaVuSans-48"/>
      </g>
     </g>
    </g>
    <g id="ytick_7">
     <g id="line2d_19">
      <path clip-path="url(#p9910cc11f3)" d="M 54.6275 80.333148 
L 1170.6275 80.333148 
" style="fill:none;stroke:#b0b0b0;stroke-linecap:square;stroke-width:0.8;"/>
     </g>
     <g id="line2d_20">
      <g>
       <use style="stroke:#000000;stroke-width:0.8;" x="54.6275" xlink:href="#m524049104b" y="80.333148"/>
      </g>
     </g>
     <g id="text_13">
      <!-- 600 -->
      <g transform="translate(22.81375 85.272133)scale(0.13 -0.13)">
       <use xlink:href="#DejaVuSans-54"/>
       <use x="63.623047" xlink:href="#DejaVuSans-48"/>
       <use x="127.246094" xlink:href="#DejaVuSans-48"/>
      </g>
     </g>
    </g>
    <g id="ytick_8">
     <g id="line2d_21">
      <path clip-path="url(#p9910cc11f3)" d="M 54.6275 12.138984 
L 1170.6275 12.138984 
" style="fill:none;stroke:#b0b0b0;stroke-linecap:square;stroke-width:0.8;"/>
     </g>
     <g id="line2d_22">
      <g>
       <use style="stroke:#000000;stroke-width:0.8;" x="54.6275" xlink:href="#m524049104b" y="12.138984"/>
      </g>
     </g>
     <g id="text_14">
      <!-- 700 -->
      <defs>
       <path d="M 8.203125 72.90625 
L 55.078125 72.90625 
L 55.078125 68.703125 
L 28.609375 0 
L 18.3125 0 
L 43.21875 64.59375 
L 8.203125 64.59375 
z
" id="DejaVuSans-55"/>
      </defs>
      <g transform="translate(22.81375 17.077969)scale(0.13 -0.13)">
       <use xlink:href="#DejaVuSans-55"/>
       <use x="63.623047" xlink:href="#DejaVuSans-48"/>
       <use x="127.246094" xlink:href="#DejaVuSans-48"/>
      </g>
     </g>
    </g>
    <g id="text_15">
     <!-- Anzahl von Fällen -->
     <defs>
      <path d="M 34.1875 63.1875 
L 20.796875 26.90625 
L 47.609375 26.90625 
z
M 28.609375 72.90625 
L 39.796875 72.90625 
L 67.578125 0 
L 57.328125 0 
L 50.6875 18.703125 
L 17.828125 18.703125 
L 11.1875 0 
L 0.78125 0 
z
" id="DejaVuSans-65"/>
      <path d="M 54.890625 33.015625 
L 54.890625 0 
L 45.90625 0 
L 45.90625 32.71875 
Q 45.90625 40.484375 42.875 44.328125 
Q 39.84375 48.1875 33.796875 48.1875 
Q 26.515625 48.1875 22.3125 43.546875 
Q 18.109375 38.921875 18.109375 30.90625 
L 18.109375 0 
L 9.078125 0 
L 9.078125 54.6875 
L 18.109375 54.6875 
L 18.109375 46.1875 
Q 21.34375 51.125 25.703125 53.5625 
Q 30.078125 56 35.796875 56 
Q 45.21875 56 50.046875 50.171875 
Q 54.890625 44.34375 54.890625 33.015625 
z
" id="DejaVuSans-110"/>
      <path d="M 5.515625 54.6875 
L 48.1875 54.6875 
L 48.1875 46.484375 
L 14.40625 7.171875 
L 48.1875 7.171875 
L 48.1875 0 
L 4.296875 0 
L 4.296875 8.203125 
L 38.09375 47.515625 
L 5.515625 47.515625 
z
" id="DejaVuSans-122"/>
      <path d="M 34.28125 27.484375 
Q 23.390625 27.484375 19.1875 25 
Q 14.984375 22.515625 14.984375 16.5 
Q 14.984375 11.71875 18.140625 8.90625 
Q 21.296875 6.109375 26.703125 6.109375 
Q 34.1875 6.109375 38.703125 11.40625 
Q 43.21875 16.703125 43.21875 25.484375 
L 43.21875 27.484375 
z
M 52.203125 31.203125 
L 52.203125 0 
L 43.21875 0 
L 43.21875 8.296875 
Q 40.140625 3.328125 35.546875 0.953125 
Q 30.953125 -1.421875 24.3125 -1.421875 
Q 15.921875 -1.421875 10.953125 3.296875 
Q 6 8.015625 6 15.921875 
Q 6 25.140625 12.171875 29.828125 
Q 18.359375 34.515625 30.609375 34.515625 
L 43.21875 34.515625 
L 43.21875 35.40625 
Q 43.21875 41.609375 39.140625 45 
Q 35.0625 48.390625 27.6875 48.390625 
Q 23 48.390625 18.546875 47.265625 
Q 14.109375 46.140625 10.015625 43.890625 
L 10.015625 52.203125 
Q 14.9375 54.109375 19.578125 55.046875 
Q 24.21875 56 28.609375 56 
Q 40.484375 56 46.34375 49.84375 
Q 52.203125 43.703125 52.203125 31.203125 
z
" id="DejaVuSans-97"/>
      <path d="M 54.890625 33.015625 
L 54.890625 0 
L 45.90625 0 
L 45.90625 32.71875 
Q 45.90625 40.484375 42.875 44.328125 
Q 39.84375 48.1875 33.796875 48.1875 
Q 26.515625 48.1875 22.3125 43.546875 
Q 18.109375 38.921875 18.109375 30.90625 
L 18.109375 0 
L 9.078125 0 
L 9.078125 75.984375 
L 18.109375 75.984375 
L 18.109375 46.1875 
Q 21.34375 51.125 25.703125 53.5625 
Q 30.078125 56 35.796875 56 
Q 45.21875 56 50.046875 50.171875 
Q 54.890625 44.34375 54.890625 33.015625 
z
" id="DejaVuSans-104"/>
      <path d="M 9.421875 75.984375 
L 18.40625 75.984375 
L 18.40625 0 
L 9.421875 0 
z
" id="DejaVuSans-108"/>
      <path id="DejaVuSans-32"/>
      <path d="M 2.984375 54.6875 
L 12.5 54.6875 
L 29.59375 8.796875 
L 46.6875 54.6875 
L 56.203125 54.6875 
L 35.6875 0 
L 23.484375 0 
z
" id="DejaVuSans-118"/>
      <path d="M 30.609375 48.390625 
Q 23.390625 48.390625 19.1875 42.75 
Q 14.984375 37.109375 14.984375 27.296875 
Q 14.984375 17.484375 19.15625 11.84375 
Q 23.34375 6.203125 30.609375 6.203125 
Q 37.796875 6.203125 41.984375 11.859375 
Q 46.1875 17.53125 46.1875 27.296875 
Q 46.1875 37.015625 41.984375 42.703125 
Q 37.796875 48.390625 30.609375 48.390625 
z
M 30.609375 56 
Q 42.328125 56 49.015625 48.375 
Q 55.71875 40.765625 55.71875 27.296875 
Q 55.71875 13.875 49.015625 6.21875 
Q 42.328125 -1.421875 30.609375 -1.421875 
Q 18.84375 -1.421875 12.171875 6.21875 
Q 5.515625 13.875 5.515625 27.296875 
Q 5.515625 40.765625 12.171875 48.375 
Q 18.84375 56 30.609375 56 
z
" id="DejaVuSans-111"/>
      <path d="M 9.8125 72.90625 
L 51.703125 72.90625 
L 51.703125 64.59375 
L 19.671875 64.59375 
L 19.671875 43.109375 
L 48.578125 43.109375 
L 48.578125 34.8125 
L 19.671875 34.8125 
L 19.671875 0 
L 9.8125 0 
z
" id="DejaVuSans-70"/>
      <path d="M 34.28125 27.484375 
Q 23.390625 27.484375 19.1875 25 
Q 14.984375 22.515625 14.984375 16.5 
Q 14.984375 11.71875 18.140625 8.90625 
Q 21.296875 6.109375 26.703125 6.109375 
Q 34.1875 6.109375 38.703125 11.40625 
Q 43.21875 16.703125 43.21875 25.484375 
L 43.21875 27.484375 
z
M 52.203125 31.203125 
L 52.203125 0 
L 43.21875 0 
L 43.21875 8.296875 
Q 40.140625 3.328125 35.546875 0.953125 
Q 30.953125 -1.421875 24.3125 -1.421875 
Q 15.921875 -1.421875 10.953125 3.296875 
Q 6 8.015625 6 15.921875 
Q 6 25.140625 12.171875 29.828125 
Q 18.359375 34.515625 30.609375 34.515625 
L 43.21875 34.515625 
L 43.21875 35.40625 
Q 43.21875 41.609375 39.140625 45 
Q 35.0625 48.390625 27.6875 48.390625 
Q 23 48.390625 18.546875 47.265625 
Q 14.109375 46.140625 10.015625 43.890625 
L 10.015625 52.203125 
Q 14.9375 54.109375 19.578125 55.046875 
Q 24.21875 56 28.609375 56 
Q 40.484375 56 46.34375 49.84375 
Q 52.203125 43.703125 52.203125 31.203125 
z
M 33.59375 75.78125 
L 43.5 75.78125 
L 43.5 65.921875 
L 33.59375 65.921875 
z
M 14.5 75.78125 
L 24.40625 75.78125 
L 24.40625 65.921875 
L 14.5 65.921875 
z
" id="DejaVuSans-228"/>
      <path d="M 56.203125 29.59375 
L 56.203125 25.203125 
L 14.890625 25.203125 
Q 15.484375 15.921875 20.484375 11.0625 
Q 25.484375 6.203125 34.421875 6.203125 
Q 39.59375 6.203125 44.453125 7.46875 
Q 49.3125 8.734375 54.109375 11.28125 
L 54.109375 2.78125 
Q 49.265625 0.734375 44.1875 -0.34375 
Q 39.109375 -1.421875 33.890625 -1.421875 
Q 20.796875 -1.421875 13.15625 6.1875 
Q 5.515625 13.8125 5.515625 26.8125 
Q 5.515625 40.234375 12.765625 48.109375 
Q 20.015625 56 32.328125 56 
Q 43.359375 56 49.78125 48.890625 
Q 56.203125 41.796875 56.203125 29.59375 
z
M 47.21875 32.234375 
Q 47.125 39.59375 43.09375 43.984375 
Q 39.0625 48.390625 32.421875 48.390625 
Q 24.90625 48.390625 20.390625 44.140625 
Q 15.875 39.890625 15.1875 32.171875 
z
" id="DejaVuSans-101"/>
     </defs>
     <g transform="translate(16.318125 309.388359)rotate(-90)scale(0.12 -0.12)">
      <use xlink:href="#DejaVuSans-65"/>
      <use x="68.408203" xlink:href="#DejaVuSans-110"/>
      <use x="131.787109" xlink:href="#DejaVuSans-122"/>
      <use x="184.277344" xlink:href="#DejaVuSans-97"/>
      <use x="245.556641" xlink:href="#DejaVuSans-104"/>
      <use x="308.935547" xlink:href="#DejaVuSans-108"/>
      <use x="336.71875" xlink:href="#DejaVuSans-32"/>
      <use x="368.505859" xlink:href="#DejaVuSans-118"/>
      <use x="427.685547" xlink:href="#DejaVuSans-111"/>
      <use x="488.867188" xlink:href="#DejaVuSans-110"/>
      <use x="552.246094" xlink:href="#DejaVuSans-32"/>
      <use x="584.033203" xlink:href="#DejaVuSans-70"/>
      <use x="632.427734" xlink:href="#DejaVuSans-228"/>
      <use x="693.707031" xlink:href="#DejaVuSans-108"/>
      <use x="721.490234" xlink:href="#DejaVuSans-108"/>
      <use x="749.273438" xlink:href="#DejaVuSans-101"/>
      <use x="810.796875" xlink:href="#DejaVuSans-110"/>
     </g>
    </g>
   </g>
   <g id="line2d_23">
    <path clip-path="url(#p9910cc11f3)" d="M 105.354773 485.406482 
L 116.263864 484.72454 
L 127.172955 484.72454 
L 138.082045 481.314832 
L 148.991136 474.495416 
L 159.900227 474.495416 
L 170.809318 472.449591 
L 181.718409 422.667851 
L 192.6275 406.983194 
L 203.536591 392.662419 
L 214.445682 378.341645 
L 225.354773 364.702812 
L 236.263864 357.883396 
L 247.172955 349.700096 
L 258.082045 342.198738 
L 268.991136 335.379321 
L 279.900227 325.150197 
L 290.809318 318.33078 
L 301.718409 310.829422 
L 312.6275 309.465539 
L 323.536591 302.646123 
L 345.354773 296.508648 
L 356.263864 291.735057 
L 367.172955 289.00729 
L 378.082045 283.551757 
L 388.991136 280.82399 
L 410.809318 277.414282 
L 421.718409 274.004574 
L 432.6275 267.867099 
L 443.536591 256.274091 
L 454.445682 254.228266 
L 465.354773 252.864383 
L 487.172955 248.772733 
L 498.082045 248.090792 
L 508.991136 246.044967 
L 519.900227 241.953317 
L 541.718409 231.724192 
L 563.536591 220.813126 
L 574.445682 220.131184 
L 585.354773 216.721476 
L 596.263864 213.99371 
L 607.172955 210.584001 
L 618.082045 206.492352 
L 639.900227 202.400702 
L 650.809318 200.354877 
L 661.718409 198.309052 
L 672.6275 193.53546 
L 683.536591 190.807694 
L 694.445682 190.807694 
L 716.263864 191.489636 
L 727.172955 187.397986 
L 738.082045 186.716044 
L 759.900227 183.988278 
L 770.809318 182.624394 
L 792.6275 182.624394 
L 803.536591 180.578569 
L 825.354773 176.486919 
L 836.263864 176.486919 
L 879.900227 174.441095 
L 890.809318 173.759153 
L 901.718409 173.759153 
L 912.6275 173.759153 
L 923.536591 173.077211 
L 945.354773 173.077211 
L 956.263864 173.077211 
L 967.172955 172.39527 
L 988.991136 170.349445 
L 999.900227 170.349445 
L 1021.718409 168.30362 
L 1043.536591 166.257795 
L 1065.354773 164.21197 
L 1076.263864 163.530028 
L 1098.082045 163.530028 
L 1108.991136 160.12032 
L 1119.900227 158.756437 
" style="fill:none;stroke:#dbcd00;stroke-linecap:square;stroke-width:2;"/>
    <defs>
     <path d="M 0 1.5 
C 0.397805 1.5 0.77937 1.341951 1.06066 1.06066 
C 1.341951 0.77937 1.5 0.397805 1.5 0 
C 1.5 -0.397805 1.341951 -0.77937 1.06066 -1.06066 
C 0.77937 -1.341951 0.397805 -1.5 0 -1.5 
C -0.397805 -1.5 -0.77937 -1.341951 -1.06066 -1.06066 
C -1.341951 -0.77937 -1.5 -0.397805 -1.5 0 
C -1.5 0.397805 -1.341951 0.77937 -1.06066 1.06066 
C -0.77937 1.341951 -0.397805 1.5 0 1.5 
z
" id="m90da4a9698" style="stroke:#dbcd00;"/>
    </defs>
    <g clip-path="url(#p9910cc11f3)">
     <use style="fill:#dbcd00;stroke:#dbcd00;" x="105.354773" xlink:href="#m90da4a9698" y="485.406482"/>
     <use style="fill:#dbcd00;stroke:#dbcd00;" x="116.263864" xlink:href="#m90da4a9698" y="484.72454"/>
     <use style="fill:#dbcd00;stroke:#dbcd00;" x="127.172955" xlink:href="#m90da4a9698" y="484.72454"/>
     <use style="fill:#dbcd00;stroke:#dbcd00;" x="138.082045" xlink:href="#m90da4a9698" y="481.314832"/>
     <use style="fill:#dbcd00;stroke:#dbcd00;" x="148.991136" xlink:href="#m90da4a9698" y="474.495416"/>
     <use style="fill:#dbcd00;stroke:#dbcd00;" x="159.900227" xlink:href="#m90da4a9698" y="474.495416"/>
     <use style="fill:#dbcd00;stroke:#dbcd00;" x="170.809318" xlink:href="#m90da4a9698" y="472.449591"/>
     <use style="fill:#dbcd00;stroke:#dbcd00;" x="181.718409" xlink:href="#m90da4a9698" y="422.667851"/>
     <use style="fill:#dbcd00;stroke:#dbcd00;" x="192.6275" xlink:href="#m90da4a9698" y="406.983194"/>
     <use style="fill:#dbcd00;stroke:#dbcd00;" x="203.536591" xlink:href="#m90da4a9698" y="392.662419"/>
     <use style="fill:#dbcd00;stroke:#dbcd00;" x="214.445682" xlink:href="#m90da4a9698" y="378.341645"/>
     <use style="fill:#dbcd00;stroke:#dbcd00;" x="225.354773" xlink:href="#m90da4a9698" y="364.702812"/>
     <use style="fill:#dbcd00;stroke:#dbcd00;" x="236.263864" xlink:href="#m90da4a9698" y="357.883396"/>
     <use style="fill:#dbcd00;stroke:#dbcd00;" x="247.172955" xlink:href="#m90da4a9698" y="349.700096"/>
     <use style="fill:#dbcd00;stroke:#dbcd00;" x="258.082045" xlink:href="#m90da4a9698" y="342.198738"/>
     <use style="fill:#dbcd00;stroke:#dbcd00;" x="268.991136" xlink:href="#m90da4a9698" y="335.379321"/>
     <use style="fill:#dbcd00;stroke:#dbcd00;" x="279.900227" xlink:href="#m90da4a9698" y="325.150197"/>
     <use style="fill:#dbcd00;stroke:#dbcd00;" x="290.809318" xlink:href="#m90da4a9698" y="318.33078"/>
     <use style="fill:#dbcd00;stroke:#dbcd00;" x="301.718409" xlink:href="#m90da4a9698" y="310.829422"/>
     <use style="fill:#dbcd00;stroke:#dbcd00;" x="312.6275" xlink:href="#m90da4a9698" y="309.465539"/>
     <use style="fill:#dbcd00;stroke:#dbcd00;" x="323.536591" xlink:href="#m90da4a9698" y="302.646123"/>
     <use style="fill:#dbcd00;stroke:#dbcd00;" x="345.354773" xlink:href="#m90da4a9698" y="296.508648"/>
     <use style="fill:#dbcd00;stroke:#dbcd00;" x="356.263864" xlink:href="#m90da4a9698" y="291.735057"/>
     <use style="fill:#dbcd00;stroke:#dbcd00;" x="367.172955" xlink:href="#m90da4a9698" y="289.00729"/>
     <use style="fill:#dbcd00;stroke:#dbcd00;" x="378.082045" xlink:href="#m90da4a9698" y="283.551757"/>
     <use style="fill:#dbcd00;stroke:#dbcd00;" x="388.991136" xlink:href="#m90da4a9698" y="280.82399"/>
     <use style="fill:#dbcd00;stroke:#dbcd00;" x="410.809318" xlink:href="#m90da4a9698" y="277.414282"/>
     <use style="fill:#dbcd00;stroke:#dbcd00;" x="421.718409" xlink:href="#m90da4a9698" y="274.004574"/>
     <use style="fill:#dbcd00;stroke:#dbcd00;" x="432.6275" xlink:href="#m90da4a9698" y="267.867099"/>
     <use style="fill:#dbcd00;stroke:#dbcd00;" x="443.536591" xlink:href="#m90da4a9698" y="256.274091"/>
     <use style="fill:#dbcd00;stroke:#dbcd00;" x="454.445682" xlink:href="#m90da4a9698" y="254.228266"/>
     <use style="fill:#dbcd00;stroke:#dbcd00;" x="465.354773" xlink:href="#m90da4a9698" y="252.864383"/>
     <use style="fill:#dbcd00;stroke:#dbcd00;" x="487.172955" xlink:href="#m90da4a9698" y="248.772733"/>
     <use style="fill:#dbcd00;stroke:#dbcd00;" x="498.082045" xlink:href="#m90da4a9698" y="248.090792"/>
     <use style="fill:#dbcd00;stroke:#dbcd00;" x="508.991136" xlink:href="#m90da4a9698" y="246.044967"/>
     <use style="fill:#dbcd00;stroke:#dbcd00;" x="519.900227" xlink:href="#m90da4a9698" y="241.953317"/>
     <use style="fill:#dbcd00;stroke:#dbcd00;" x="541.718409" xlink:href="#m90da4a9698" y="231.724192"/>
     <use style="fill:#dbcd00;stroke:#dbcd00;" x="563.536591" xlink:href="#m90da4a9698" y="220.813126"/>
     <use style="fill:#dbcd00;stroke:#dbcd00;" x="574.445682" xlink:href="#m90da4a9698" y="220.131184"/>
     <use style="fill:#dbcd00;stroke:#dbcd00;" x="585.354773" xlink:href="#m90da4a9698" y="216.721476"/>
     <use style="fill:#dbcd00;stroke:#dbcd00;" x="596.263864" xlink:href="#m90da4a9698" y="213.99371"/>
     <use style="fill:#dbcd00;stroke:#dbcd00;" x="607.172955" xlink:href="#m90da4a9698" y="210.584001"/>
     <use style="fill:#dbcd00;stroke:#dbcd00;" x="618.082045" xlink:href="#m90da4a9698" y="206.492352"/>
     <use style="fill:#dbcd00;stroke:#dbcd00;" x="639.900227" xlink:href="#m90da4a9698" y="202.400702"/>
     <use style="fill:#dbcd00;stroke:#dbcd00;" x="650.809318" xlink:href="#m90da4a9698" y="200.354877"/>
     <use style="fill:#dbcd00;stroke:#dbcd00;" x="661.718409" xlink:href="#m90da4a9698" y="198.309052"/>
     <use style="fill:#dbcd00;stroke:#dbcd00;" x="672.6275" xlink:href="#m90da4a9698" y="193.53546"/>
     <use style="fill:#dbcd00;stroke:#dbcd00;" x="683.536591" xlink:href="#m90da4a9698" y="190.807694"/>
     <use style="fill:#dbcd00;stroke:#dbcd00;" x="694.445682" xlink:href="#m90da4a9698" y="190.807694"/>
     <use style="fill:#dbcd00;stroke:#dbcd00;" x="716.263864" xlink:href="#m90da4a9698" y="191.489636"/>
     <use style="fill:#dbcd00;stroke:#dbcd00;" x="727.172955" xlink:href="#m90da4a9698" y="187.397986"/>
     <use style="fill:#dbcd00;stroke:#dbcd00;" x="738.082045" xlink:href="#m90da4a9698" y="186.716044"/>
     <use style="fill:#dbcd00;stroke:#dbcd00;" x="759.900227" xlink:href="#m90da4a9698" y="183.988278"/>
     <use style="fill:#dbcd00;stroke:#dbcd00;" x="770.809318" xlink:href="#m90da4a9698" y="182.624394"/>
     <use style="fill:#dbcd00;stroke:#dbcd00;" x="792.6275" xlink:href="#m90da4a9698" y="182.624394"/>
     <use style="fill:#dbcd00;stroke:#dbcd00;" x="803.536591" xlink:href="#m90da4a9698" y="180.578569"/>
     <use style="fill:#dbcd00;stroke:#dbcd00;" x="825.354773" xlink:href="#m90da4a9698" y="176.486919"/>
     <use style="fill:#dbcd00;stroke:#dbcd00;" x="836.263864" xlink:href="#m90da4a9698" y="176.486919"/>
     <use style="fill:#dbcd00;stroke:#dbcd00;" x="879.900227" xlink:href="#m90da4a9698" y="174.441095"/>
     <use style="fill:#dbcd00;stroke:#dbcd00;" x="890.809318" xlink:href="#m90da4a9698" y="173.759153"/>
     <use style="fill:#dbcd00;stroke:#dbcd00;" x="901.718409" xlink:href="#m90da4a9698" y="173.759153"/>
     <use style="fill:#dbcd00;stroke:#dbcd00;" x="912.6275" xlink:href="#m90da4a9698" y="173.759153"/>
     <use style="fill:#dbcd00;stroke:#dbcd00;" x="923.536591" xlink:href="#m90da4a9698" y="173.077211"/>
     <use style="fill:#dbcd00;stroke:#dbcd00;" x="945.354773" xlink:href="#m90da4a9698" y="173.077211"/>
     <use style="fill:#dbcd00;stroke:#dbcd00;" x="956.263864" xlink:href="#m90da4a9698" y="173.077211"/>
     <use style="fill:#dbcd00;stroke:#dbcd00;" x="967.172955" xlink:href="#m90da4a9698" y="172.39527"/>
     <use style="fill:#dbcd00;stroke:#dbcd00;" x="988.991136" xlink:href="#m90da4a9698" y="170.349445"/>
     <use style="fill:#dbcd00;stroke:#dbcd00;" x="999.900227" xlink:href="#m90da4a9698" y="170.349445"/>
     <use style="fill:#dbcd00;stroke:#dbcd00;" x="1021.718409" xlink:href="#m90da4a9698" y="168.30362"/>
     <use style="fill:#dbcd00;stroke:#dbcd00;" x="1043.536591" xlink:href="#m90da4a9698" y="166.257795"/>
     <use style="fill:#dbcd00;stroke:#dbcd00;" x="1065.354773" xlink:href="#m90da4a9698" y="164.21197"/>
     <use style="fill:#dbcd00;stroke:#dbcd00;" x="1076.263864" xlink:href="#m90da4a9698" y="163.530028"/>
     <use style="fill:#dbcd00;stroke:#dbcd00;" x="1098.082045" xlink:href="#m90da4a9698" y="163.530028"/>
     <use style="fill:#dbcd00;stroke:#dbcd00;" x="1108.991136" xlink:href="#m90da4a9698" y="160.12032"/>
     <use style="fill:#dbcd00;stroke:#dbcd00;" x="1119.900227" xlink:href="#m90da4a9698" y="158.756437"/>
    </g>
   </g>
   <g id="line2d_24">
    <path clip-path="url(#p9910cc11f3)" d="M 105.354773 352.427862 
L 116.263864 346.290388 
L 127.172955 327.877963 
L 138.082045 325.150197 
L 148.991136 314.921072 
L 159.900227 309.465539 
L 170.809318 308.783598 
L 181.718409 350.382038 
L 192.6275 361.293104 
L 203.536591 368.11252 
L 214.445682 371.522228 
L 225.354773 383.115236 
L 236.263864 389.252711 
L 247.172955 396.754069 
L 258.082045 402.209602 
L 268.991136 406.301252 
L 279.900227 409.029018 
L 290.809318 412.438727 
L 301.718409 413.80261 
L 312.6275 415.166493 
L 323.536591 419.940085 
L 345.354773 409.71096 
L 356.263864 412.438727 
L 367.172955 411.756785 
L 378.082045 412.438727 
L 388.991136 413.120668 
L 410.809318 419.258143 
L 421.718409 421.98591 
L 432.6275 426.759501 
L 443.536591 436.988626 
L 454.445682 426.759501 
L 465.354773 427.441443 
L 487.172955 430.169209 
L 498.082045 430.169209 
L 508.991136 428.805326 
L 519.900227 432.896976 
L 541.718409 438.352509 
L 563.536591 445.853867 
L 574.445682 446.535809 
L 585.354773 449.945517 
L 596.263864 452.673283 
L 607.172955 456.082992 
L 618.082045 459.4927 
L 639.900227 462.902408 
L 650.809318 464.948233 
L 661.718409 466.994058 
L 672.6275 471.767649 
L 683.536591 471.085708 
L 694.445682 470.403766 
L 716.263864 469.039883 
L 727.172955 473.131533 
L 738.082045 473.813474 
L 759.900227 475.859299 
L 770.809318 477.223182 
L 792.6275 477.223182 
L 803.536591 479.269007 
L 825.354773 484.72454 
L 836.263864 484.042599 
L 879.900227 481.996774 
L 890.809318 481.314832 
L 901.718409 479.950949 
L 912.6275 479.950949 
L 923.536591 480.632891 
L 945.354773 479.269007 
L 956.263864 478.587066 
L 967.172955 478.587066 
L 988.991136 472.449591 
L 999.900227 472.449591 
L 1021.718409 466.312116 
L 1043.536591 464.266291 
L 1065.354773 426.759501 
L 1076.263864 394.026302 
L 1098.082045 392.662419 
L 1108.991136 345.608446 
L 1119.900227 346.972329 
" style="fill:none;stroke:#2792cb;stroke-linecap:square;stroke-width:2;"/>
    <defs>
     <path d="M 0 1.5 
C 0.397805 1.5 0.77937 1.341951 1.06066 1.06066 
C 1.341951 0.77937 1.5 0.397805 1.5 0 
C 1.5 -0.397805 1.341951 -0.77937 1.06066 -1.06066 
C 0.77937 -1.341951 0.397805 -1.5 0 -1.5 
C -0.397805 -1.5 -0.77937 -1.341951 -1.06066 -1.06066 
C -1.341951 -0.77937 -1.5 -0.397805 -1.5 0 
C -1.5 0.397805 -1.341951 0.77937 -1.06066 1.06066 
C -0.77937 1.341951 -0.397805 1.5 0 1.5 
z
" id="md3f9d547f5" style="stroke:#2792cb;"/>
    </defs>
    <g clip-path="url(#p9910cc11f3)">
     <use style="fill:#2792cb;stroke:#2792cb;" x="105.354773" xlink:href="#md3f9d547f5" y="352.427862"/>
     <use style="fill:#2792cb;stroke:#2792cb;" x="116.263864" xlink:href="#md3f9d547f5" y="346.290388"/>
     <use style="fill:#2792cb;stroke:#2792cb;" x="127.172955" xlink:href="#md3f9d547f5" y="327.877963"/>
     <use style="fill:#2792cb;stroke:#2792cb;" x="138.082045" xlink:href="#md3f9d547f5" y="325.150197"/>
     <use style="fill:#2792cb;stroke:#2792cb;" x="148.991136" xlink:href="#md3f9d547f5" y="314.921072"/>
     <use style="fill:#2792cb;stroke:#2792cb;" x="159.900227" xlink:href="#md3f9d547f5" y="309.465539"/>
     <use style="fill:#2792cb;stroke:#2792cb;" x="170.809318" xlink:href="#md3f9d547f5" y="308.783598"/>
     <use style="fill:#2792cb;stroke:#2792cb;" x="181.718409" xlink:href="#md3f9d547f5" y="350.382038"/>
     <use style="fill:#2792cb;stroke:#2792cb;" x="192.6275" xlink:href="#md3f9d547f5" y="361.293104"/>
     <use style="fill:#2792cb;stroke:#2792cb;" x="203.536591" xlink:href="#md3f9d547f5" y="368.11252"/>
     <use style="fill:#2792cb;stroke:#2792cb;" x="214.445682" xlink:href="#md3f9d547f5" y="371.522228"/>
     <use style="fill:#2792cb;stroke:#2792cb;" x="225.354773" xlink:href="#md3f9d547f5" y="383.115236"/>
     <use style="fill:#2792cb;stroke:#2792cb;" x="236.263864" xlink:href="#md3f9d547f5" y="389.252711"/>
     <use style="fill:#2792cb;stroke:#2792cb;" x="247.172955" xlink:href="#md3f9d547f5" y="396.754069"/>
     <use style="fill:#2792cb;stroke:#2792cb;" x="258.082045" xlink:href="#md3f9d547f5" y="402.209602"/>
     <use style="fill:#2792cb;stroke:#2792cb;" x="268.991136" xlink:href="#md3f9d547f5" y="406.301252"/>
     <use style="fill:#2792cb;stroke:#2792cb;" x="279.900227" xlink:href="#md3f9d547f5" y="409.029018"/>
     <use style="fill:#2792cb;stroke:#2792cb;" x="290.809318" xlink:href="#md3f9d547f5" y="412.438727"/>
     <use style="fill:#2792cb;stroke:#2792cb;" x="301.718409" xlink:href="#md3f9d547f5" y="413.80261"/>
     <use style="fill:#2792cb;stroke:#2792cb;" x="312.6275" xlink:href="#md3f9d547f5" y="415.166493"/>
     <use style="fill:#2792cb;stroke:#2792cb;" x="323.536591" xlink:href="#md3f9d547f5" y="419.940085"/>
     <use style="fill:#2792cb;stroke:#2792cb;" x="345.354773" xlink:href="#md3f9d547f5" y="409.71096"/>
     <use style="fill:#2792cb;stroke:#2792cb;" x="356.263864" xlink:href="#md3f9d547f5" y="412.438727"/>
     <use style="fill:#2792cb;stroke:#2792cb;" x="367.172955" xlink:href="#md3f9d547f5" y="411.756785"/>
     <use style="fill:#2792cb;stroke:#2792cb;" x="378.082045" xlink:href="#md3f9d547f5" y="412.438727"/>
     <use style="fill:#2792cb;stroke:#2792cb;" x="388.991136" xlink:href="#md3f9d547f5" y="413.120668"/>
     <use style="fill:#2792cb;stroke:#2792cb;" x="410.809318" xlink:href="#md3f9d547f5" y="419.258143"/>
     <use style="fill:#2792cb;stroke:#2792cb;" x="421.718409" xlink:href="#md3f9d547f5" y="421.98591"/>
     <use style="fill:#2792cb;stroke:#2792cb;" x="432.6275" xlink:href="#md3f9d547f5" y="426.759501"/>
     <use style="fill:#2792cb;stroke:#2792cb;" x="443.536591" xlink:href="#md3f9d547f5" y="436.988626"/>
     <use style="fill:#2792cb;stroke:#2792cb;" x="454.445682" xlink:href="#md3f9d547f5" y="426.759501"/>
     <use style="fill:#2792cb;stroke:#2792cb;" x="465.354773" xlink:href="#md3f9d547f5" y="427.441443"/>
     <use style="fill:#2792cb;stroke:#2792cb;" x="487.172955" xlink:href="#md3f9d547f5" y="430.169209"/>
     <use style="fill:#2792cb;stroke:#2792cb;" x="498.082045" xlink:href="#md3f9d547f5" y="430.169209"/>
     <use style="fill:#2792cb;stroke:#2792cb;" x="508.991136" xlink:href="#md3f9d547f5" y="428.805326"/>
     <use style="fill:#2792cb;stroke:#2792cb;" x="519.900227" xlink:href="#md3f9d547f5" y="432.896976"/>
     <use style="fill:#2792cb;stroke:#2792cb;" x="541.718409" xlink:href="#md3f9d547f5" y="438.352509"/>
     <use style="fill:#2792cb;stroke:#2792cb;" x="563.536591" xlink:href="#md3f9d547f5" y="445.853867"/>
     <use style="fill:#2792cb;stroke:#2792cb;" x="574.445682" xlink:href="#md3f9d547f5" y="446.535809"/>
     <use style="fill:#2792cb;stroke:#2792cb;" x="585.354773" xlink:href="#md3f9d547f5" y="449.945517"/>
     <use style="fill:#2792cb;stroke:#2792cb;" x="596.263864" xlink:href="#md3f9d547f5" y="452.673283"/>
     <use style="fill:#2792cb;stroke:#2792cb;" x="607.172955" xlink:href="#md3f9d547f5" y="456.082992"/>
     <use style="fill:#2792cb;stroke:#2792cb;" x="618.082045" xlink:href="#md3f9d547f5" y="459.4927"/>
     <use style="fill:#2792cb;stroke:#2792cb;" x="639.900227" xlink:href="#md3f9d547f5" y="462.902408"/>
     <use style="fill:#2792cb;stroke:#2792cb;" x="650.809318" xlink:href="#md3f9d547f5" y="464.948233"/>
     <use style="fill:#2792cb;stroke:#2792cb;" x="661.718409" xlink:href="#md3f9d547f5" y="466.994058"/>
     <use style="fill:#2792cb;stroke:#2792cb;" x="672.6275" xlink:href="#md3f9d547f5" y="471.767649"/>
     <use style="fill:#2792cb;stroke:#2792cb;" x="683.536591" xlink:href="#md3f9d547f5" y="471.085708"/>
     <use style="fill:#2792cb;stroke:#2792cb;" x="694.445682" xlink:href="#md3f9d547f5" y="470.403766"/>
     <use style="fill:#2792cb;stroke:#2792cb;" x="716.263864" xlink:href="#md3f9d547f5" y="469.039883"/>
     <use style="fill:#2792cb;stroke:#2792cb;" x="727.172955" xlink:href="#md3f9d547f5" y="473.131533"/>
     <use style="fill:#2792cb;stroke:#2792cb;" x="738.082045" xlink:href="#md3f9d547f5" y="473.813474"/>
     <use style="fill:#2792cb;stroke:#2792cb;" x="759.900227" xlink:href="#md3f9d547f5" y="475.859299"/>
     <use style="fill:#2792cb;stroke:#2792cb;" x="770.809318" xlink:href="#md3f9d547f5" y="477.223182"/>
     <use style="fill:#2792cb;stroke:#2792cb;" x="792.6275" xlink:href="#md3f9d547f5" y="477.223182"/>
     <use style="fill:#2792cb;stroke:#2792cb;" x="803.536591" xlink:href="#md3f9d547f5" y="479.269007"/>
     <use style="fill:#2792cb;stroke:#2792cb;" x="825.354773" xlink:href="#md3f9d547f5" y="484.72454"/>
     <use style="fill:#2792cb;stroke:#2792cb;" x="836.263864" xlink:href="#md3f9d547f5" y="484.042599"/>
     <use style="fill:#2792cb;stroke:#2792cb;" x="879.900227" xlink:href="#md3f9d547f5" y="481.996774"/>
     <use style="fill:#2792cb;stroke:#2792cb;" x="890.809318" xlink:href="#md3f9d547f5" y="481.314832"/>
     <use style="fill:#2792cb;stroke:#2792cb;" x="901.718409" xlink:href="#md3f9d547f5" y="479.950949"/>
     <use style="fill:#2792cb;stroke:#2792cb;" x="912.6275" xlink:href="#md3f9d547f5" y="479.950949"/>
     <use style="fill:#2792cb;stroke:#2792cb;" x="923.536591" xlink:href="#md3f9d547f5" y="480.632891"/>
     <use style="fill:#2792cb;stroke:#2792cb;" x="945.354773" xlink:href="#md3f9d547f5" y="479.269007"/>
     <use style="fill:#2792cb;stroke:#2792cb;" x="956.263864" xlink:href="#md3f9d547f5" y="478.587066"/>
     <use style="fill:#2792cb;stroke:#2792cb;" x="967.172955" xlink:href="#md3f9d547f5" y="478.587066"/>
     <use style="fill:#2792cb;stroke:#2792cb;" x="988.991136" xlink:href="#md3f9d547f5" y="472.449591"/>
     <use style="fill:#2792cb;stroke:#2792cb;" x="999.900227" xlink:href="#md3f9d547f5" y="472.449591"/>
     <use style="fill:#2792cb;stroke:#2792cb;" x="1021.718409" xlink:href="#md3f9d547f5" y="466.312116"/>
     <use style="fill:#2792cb;stroke:#2792cb;" x="1043.536591" xlink:href="#md3f9d547f5" y="464.266291"/>
     <use style="fill:#2792cb;stroke:#2792cb;" x="1065.354773" xlink:href="#md3f9d547f5" y="426.759501"/>
     <use style="fill:#2792cb;stroke:#2792cb;" x="1076.263864" xlink:href="#md3f9d547f5" y="394.026302"/>
     <use style="fill:#2792cb;stroke:#2792cb;" x="1098.082045" xlink:href="#md3f9d547f5" y="392.662419"/>
     <use style="fill:#2792cb;stroke:#2792cb;" x="1108.991136" xlink:href="#md3f9d547f5" y="345.608446"/>
     <use style="fill:#2792cb;stroke:#2792cb;" x="1119.900227" xlink:href="#md3f9d547f5" y="346.972329"/>
    </g>
   </g>
   <g id="patch_3">
    <path d="M 54.6275 501.738984 
L 1170.6275 501.738984 
" style="fill:none;stroke:#000000;stroke-linecap:square;stroke-linejoin:miter;stroke-width:0.8;"/>
   </g>
   <g id="legend_1">
    <g id="line2d_25">
     <path d="M 1083.382188 25.237422 
L 1103.382188 25.237422 
" style="fill:none;stroke:#dbcd00;stroke-linecap:square;stroke-width:2;"/>
    </g>
    <g id="line2d_26">
     <g>
      <use style="fill:#dbcd00;stroke:#dbcd00;" x="1093.382188" xlink:href="#m90da4a9698" y="25.237422"/>
     </g>
    </g>
    <g id="text_16">
     <!-- Genesene -->
     <defs>
      <path d="M 59.515625 10.40625 
L 59.515625 29.984375 
L 43.40625 29.984375 
L 43.40625 38.09375 
L 69.28125 38.09375 
L 69.28125 6.78125 
Q 63.578125 2.734375 56.6875 0.65625 
Q 49.8125 -1.421875 42 -1.421875 
Q 24.90625 -1.421875 15.25 8.5625 
Q 5.609375 18.5625 5.609375 36.375 
Q 5.609375 54.25 15.25 64.234375 
Q 24.90625 74.21875 42 74.21875 
Q 49.125 74.21875 55.546875 72.453125 
Q 61.96875 70.703125 67.390625 67.28125 
L 67.390625 56.78125 
Q 61.921875 61.421875 55.765625 63.765625 
Q 49.609375 66.109375 42.828125 66.109375 
Q 29.4375 66.109375 22.71875 58.640625 
Q 16.015625 51.171875 16.015625 36.375 
Q 16.015625 21.625 22.71875 14.15625 
Q 29.4375 6.6875 42.828125 6.6875 
Q 48.046875 6.6875 52.140625 7.59375 
Q 56.25 8.5 59.515625 10.40625 
z
" id="DejaVuSans-71"/>
      <path d="M 44.28125 53.078125 
L 44.28125 44.578125 
Q 40.484375 46.53125 36.375 47.5 
Q 32.28125 48.484375 27.875 48.484375 
Q 21.1875 48.484375 17.84375 46.4375 
Q 14.5 44.390625 14.5 40.28125 
Q 14.5 37.15625 16.890625 35.375 
Q 19.28125 33.59375 26.515625 31.984375 
L 29.59375 31.296875 
Q 39.15625 29.25 43.1875 25.515625 
Q 47.21875 21.78125 47.21875 15.09375 
Q 47.21875 7.46875 41.1875 3.015625 
Q 35.15625 -1.421875 24.609375 -1.421875 
Q 20.21875 -1.421875 15.453125 -0.5625 
Q 10.6875 0.296875 5.421875 2 
L 5.421875 11.28125 
Q 10.40625 8.6875 15.234375 7.390625 
Q 20.0625 6.109375 24.8125 6.109375 
Q 31.15625 6.109375 34.5625 8.28125 
Q 37.984375 10.453125 37.984375 14.40625 
Q 37.984375 18.0625 35.515625 20.015625 
Q 33.0625 21.96875 24.703125 23.78125 
L 21.578125 24.515625 
Q 13.234375 26.265625 9.515625 29.90625 
Q 5.8125 33.546875 5.8125 39.890625 
Q 5.8125 47.609375 11.28125 51.796875 
Q 16.75 56 26.8125 56 
Q 31.78125 56 36.171875 55.265625 
Q 40.578125 54.546875 44.28125 53.078125 
z
" id="DejaVuSans-115"/>
     </defs>
     <g transform="translate(1111.382188 28.737422)scale(0.1 -0.1)">
      <use xlink:href="#DejaVuSans-71"/>
      <use x="77.490234" xlink:href="#DejaVuSans-101"/>
      <use x="139.013672" xlink:href="#DejaVuSans-110"/>
      <use x="202.392578" xlink:href="#DejaVuSans-101"/>
      <use x="263.916016" xlink:href="#DejaVuSans-115"/>
      <use x="316.015625" xlink:href="#DejaVuSans-101"/>
      <use x="377.539062" xlink:href="#DejaVuSans-110"/>
      <use x="440.917969" xlink:href="#DejaVuSans-101"/>
     </g>
    </g>
    <g id="line2d_27">
     <path d="M 1083.382188 39.915547 
L 1103.382188 39.915547 
" style="fill:none;stroke:#2792cb;stroke-linecap:square;stroke-width:2;"/>
    </g>
    <g id="line2d_28">
     <g>
      <use style="fill:#2792cb;stroke:#2792cb;" x="1093.382188" xlink:href="#md3f9d547f5" y="39.915547"/>
     </g>
    </g>
    <g id="text_17">
     <!-- Erkrankte -->
     <defs>
      <path d="M 9.8125 72.90625 
L 55.90625 72.90625 
L 55.90625 64.59375 
L 19.671875 64.59375 
L 19.671875 43.015625 
L 54.390625 43.015625 
L 54.390625 34.71875 
L 19.671875 34.71875 
L 19.671875 8.296875 
L 56.78125 8.296875 
L 56.78125 0 
L 9.8125 0 
z
" id="DejaVuSans-69"/>
      <path d="M 41.109375 46.296875 
Q 39.59375 47.171875 37.8125 47.578125 
Q 36.03125 48 33.890625 48 
Q 26.265625 48 22.1875 43.046875 
Q 18.109375 38.09375 18.109375 28.8125 
L 18.109375 0 
L 9.078125 0 
L 9.078125 54.6875 
L 18.109375 54.6875 
L 18.109375 46.1875 
Q 20.953125 51.171875 25.484375 53.578125 
Q 30.03125 56 36.53125 56 
Q 37.453125 56 38.578125 55.875 
Q 39.703125 55.765625 41.0625 55.515625 
z
" id="DejaVuSans-114"/>
      <path d="M 9.078125 75.984375 
L 18.109375 75.984375 
L 18.109375 31.109375 
L 44.921875 54.6875 
L 56.390625 54.6875 
L 27.390625 29.109375 
L 57.625 0 
L 45.90625 0 
L 18.109375 26.703125 
L 18.109375 0 
L 9.078125 0 
z
" id="DejaVuSans-107"/>
      <path d="M 18.3125 70.21875 
L 18.3125 54.6875 
L 36.8125 54.6875 
L 36.8125 47.703125 
L 18.3125 47.703125 
L 18.3125 18.015625 
Q 18.3125 11.328125 20.140625 9.421875 
Q 21.96875 7.515625 27.59375 7.515625 
L 36.8125 7.515625 
L 36.8125 0 
L 27.59375 0 
Q 17.1875 0 13.234375 3.875 
Q 9.28125 7.765625 9.28125 18.015625 
L 9.28125 47.703125 
L 2.6875 47.703125 
L 2.6875 54.6875 
L 9.28125 54.6875 
L 9.28125 70.21875 
z
" id="DejaVuSans-116"/>
     </defs>
     <g transform="translate(1111.382188 43.415547)scale(0.1 -0.1)">
      <use xlink:href="#DejaVuSans-69"/>
      <use x="63.183594" xlink:href="#DejaVuSans-114"/>
      <use x="104.296875" xlink:href="#DejaVuSans-107"/>
      <use x="162.207031" xlink:href="#DejaVuSans-114"/>
      <use x="203.320312" xlink:href="#DejaVuSans-97"/>
      <use x="264.599609" xlink:href="#DejaVuSans-110"/>
      <use x="327.978516" xlink:href="#DejaVuSans-107"/>
      <use x="385.888672" xlink:href="#DejaVuSans-116"/>
      <use x="425.097656" xlink:href="#DejaVuSans-101"/>
     </g>
    </g>
   </g>
  </g>
 </g>
 <defs>
  <clipPath id="p9910cc11f3">
   <rect height="489.6" width="1116" x="54.6275" y="12.138984"/>
  </clipPath>
 </defs>
</svg>
