<?xml version="1.0" encoding="utf-8" standalone="no"?>
<!DOCTYPE svg PUBLIC "-//W3C//DTD SVG 1.1//EN"
  "http://www.w3.org/Graphics/SVG/1.1/DTD/svg11.dtd">
<!-- Created with matplotlib (https://matplotlib.org/) -->
<svg height="549.054781pt" version="1.1" viewBox="0 0 1177.8275 549.054781" width="1177.8275pt" xmlns="http://www.w3.org/2000/svg" xmlns:xlink="http://www.w3.org/1999/xlink">
 <defs>
  <style type="text/css">
*{stroke-linecap:butt;stroke-linejoin:round;}
  </style>
 </defs>
 <g id="figure_1">
  <g id="patch_1">
   <path d="M 0 549.054781 
L 1177.8275 549.054781 
L 1177.8275 0 
L 0 0 
z
" style="fill:#ffffff;"/>
  </g>
  <g id="axes_1">
   <g id="patch_2">
    <path d="M 54.6275 496.8 
L 1170.6275 496.8 
L 1170.6275 7.2 
L 54.6275 7.2 
z
" style="fill:#ffffff;"/>
   </g>
   <g id="matplotlib.axis_1">
    <g id="xtick_1">
     <g id="line2d_1">
      <defs>
       <path d="M 0 0 
L 0 3.5 
" id="mb4d4c530bf" style="stroke:#000000;stroke-width:0.8;"/>
      </defs>
      <g>
       <use style="stroke:#000000;stroke-width:0.8;" x="156.652015" xlink:href="#mb4d4c530bf" y="496.8"/>
      </g>
     </g>
     <g id="text_1">
      <!-- 2020-04 -->
      <defs>
       <path d="M 19.1875 8.296875 
L 53.609375 8.296875 
L 53.609375 0 
L 7.328125 0 
L 7.328125 8.296875 
Q 12.9375 14.109375 22.625 23.890625 
Q 32.328125 33.6875 34.8125 36.53125 
Q 39.546875 41.84375 41.421875 45.53125 
Q 43.3125 49.21875 43.3125 52.78125 
Q 43.3125 58.59375 39.234375 62.25 
Q 35.15625 65.921875 28.609375 65.921875 
Q 23.96875 65.921875 18.8125 64.3125 
Q 13.671875 62.703125 7.8125 59.421875 
L 7.8125 69.390625 
Q 13.765625 71.78125 18.9375 73 
Q 24.125 74.21875 28.421875 74.21875 
Q 39.75 74.21875 46.484375 68.546875 
Q 53.21875 62.890625 53.21875 53.421875 
Q 53.21875 48.921875 51.53125 44.890625 
Q 49.859375 40.875 45.40625 35.40625 
Q 44.1875 33.984375 37.640625 27.21875 
Q 31.109375 20.453125 19.1875 8.296875 
z
" id="DejaVuSans-50"/>
       <path d="M 31.78125 66.40625 
Q 24.171875 66.40625 20.328125 58.90625 
Q 16.5 51.421875 16.5 36.375 
Q 16.5 21.390625 20.328125 13.890625 
Q 24.171875 6.390625 31.78125 6.390625 
Q 39.453125 6.390625 43.28125 13.890625 
Q 47.125 21.390625 47.125 36.375 
Q 47.125 51.421875 43.28125 58.90625 
Q 39.453125 66.40625 31.78125 66.40625 
z
M 31.78125 74.21875 
Q 44.046875 74.21875 50.515625 64.515625 
Q 56.984375 54.828125 56.984375 36.375 
Q 56.984375 17.96875 50.515625 8.265625 
Q 44.046875 -1.421875 31.78125 -1.421875 
Q 19.53125 -1.421875 13.0625 8.265625 
Q 6.59375 17.96875 6.59375 36.375 
Q 6.59375 54.828125 13.0625 64.515625 
Q 19.53125 74.21875 31.78125 74.21875 
z
" id="DejaVuSans-48"/>
       <path d="M 4.890625 31.390625 
L 31.203125 31.390625 
L 31.203125 23.390625 
L 4.890625 23.390625 
z
" id="DejaVuSans-45"/>
       <path d="M 37.796875 64.3125 
L 12.890625 25.390625 
L 37.796875 25.390625 
z
M 35.203125 72.90625 
L 47.609375 72.90625 
L 47.609375 25.390625 
L 58.015625 25.390625 
L 58.015625 17.1875 
L 47.609375 17.1875 
L 47.609375 0 
L 37.796875 0 
L 37.796875 17.1875 
L 4.890625 17.1875 
L 4.890625 26.703125 
z
" id="DejaVuSans-52"/>
      </defs>
      <g transform="translate(108.259748 539.5134)rotate(-30)scale(0.13 -0.13)">
       <use xlink:href="#DejaVuSans-50"/>
       <use x="63.623047" xlink:href="#DejaVuSans-48"/>
       <use x="127.246094" xlink:href="#DejaVuSans-50"/>
       <use x="190.869141" xlink:href="#DejaVuSans-48"/>
       <use x="254.492188" xlink:href="#DejaVuSans-45"/>
       <use x="290.576172" xlink:href="#DejaVuSans-48"/>
       <use x="354.199219" xlink:href="#DejaVuSans-52"/>
      </g>
     </g>
    </g>
    <g id="xtick_2">
     <g id="line2d_2">
      <g>
       <use style="stroke:#000000;stroke-width:0.8;" x="327.642822" xlink:href="#mb4d4c530bf" y="496.8"/>
      </g>
     </g>
     <g id="text_2">
      <!-- 2020-05 -->
      <defs>
       <path d="M 10.796875 72.90625 
L 49.515625 72.90625 
L 49.515625 64.59375 
L 19.828125 64.59375 
L 19.828125 46.734375 
Q 21.96875 47.46875 24.109375 47.828125 
Q 26.265625 48.1875 28.421875 48.1875 
Q 40.625 48.1875 47.75 41.5 
Q 54.890625 34.8125 54.890625 23.390625 
Q 54.890625 11.625 47.5625 5.09375 
Q 40.234375 -1.421875 26.90625 -1.421875 
Q 22.3125 -1.421875 17.546875 -0.640625 
Q 12.796875 0.140625 7.71875 1.703125 
L 7.71875 11.625 
Q 12.109375 9.234375 16.796875 8.0625 
Q 21.484375 6.890625 26.703125 6.890625 
Q 35.15625 6.890625 40.078125 11.328125 
Q 45.015625 15.765625 45.015625 23.390625 
Q 45.015625 31 40.078125 35.4375 
Q 35.15625 39.890625 26.703125 39.890625 
Q 22.75 39.890625 18.8125 39.015625 
Q 14.890625 38.140625 10.796875 36.28125 
z
" id="DejaVuSans-53"/>
      </defs>
      <g transform="translate(279.250555 539.5134)rotate(-30)scale(0.13 -0.13)">
       <use xlink:href="#DejaVuSans-50"/>
       <use x="63.623047" xlink:href="#DejaVuSans-48"/>
       <use x="127.246094" xlink:href="#DejaVuSans-50"/>
       <use x="190.869141" xlink:href="#DejaVuSans-48"/>
       <use x="254.492188" xlink:href="#DejaVuSans-45"/>
       <use x="290.576172" xlink:href="#DejaVuSans-48"/>
       <use x="354.199219" xlink:href="#DejaVuSans-53"/>
      </g>
     </g>
    </g>
    <g id="xtick_3">
     <g id="line2d_3">
      <g>
       <use style="stroke:#000000;stroke-width:0.8;" x="504.333322" xlink:href="#mb4d4c530bf" y="496.8"/>
      </g>
     </g>
     <g id="text_3">
      <!-- 2020-06 -->
      <defs>
       <path d="M 33.015625 40.375 
Q 26.375 40.375 22.484375 35.828125 
Q 18.609375 31.296875 18.609375 23.390625 
Q 18.609375 15.53125 22.484375 10.953125 
Q 26.375 6.390625 33.015625 6.390625 
Q 39.65625 6.390625 43.53125 10.953125 
Q 47.40625 15.53125 47.40625 23.390625 
Q 47.40625 31.296875 43.53125 35.828125 
Q 39.65625 40.375 33.015625 40.375 
z
M 52.59375 71.296875 
L 52.59375 62.3125 
Q 48.875 64.0625 45.09375 64.984375 
Q 41.3125 65.921875 37.59375 65.921875 
Q 27.828125 65.921875 22.671875 59.328125 
Q 17.53125 52.734375 16.796875 39.40625 
Q 19.671875 43.65625 24.015625 45.921875 
Q 28.375 48.1875 33.59375 48.1875 
Q 44.578125 48.1875 50.953125 41.515625 
Q 57.328125 34.859375 57.328125 23.390625 
Q 57.328125 12.15625 50.6875 5.359375 
Q 44.046875 -1.421875 33.015625 -1.421875 
Q 20.359375 -1.421875 13.671875 8.265625 
Q 6.984375 17.96875 6.984375 36.375 
Q 6.984375 53.65625 15.1875 63.9375 
Q 23.390625 74.21875 37.203125 74.21875 
Q 40.921875 74.21875 44.703125 73.484375 
Q 48.484375 72.75 52.59375 71.296875 
z
" id="DejaVuSans-54"/>
      </defs>
      <g transform="translate(455.941055 539.5134)rotate(-30)scale(0.13 -0.13)">
       <use xlink:href="#DejaVuSans-50"/>
       <use x="63.623047" xlink:href="#DejaVuSans-48"/>
       <use x="127.246094" xlink:href="#DejaVuSans-50"/>
       <use x="190.869141" xlink:href="#DejaVuSans-48"/>
       <use x="254.492188" xlink:href="#DejaVuSans-45"/>
       <use x="290.576172" xlink:href="#DejaVuSans-48"/>
       <use x="354.199219" xlink:href="#DejaVuSans-54"/>
      </g>
     </g>
    </g>
    <g id="xtick_4">
     <g id="line2d_4">
      <g>
       <use style="stroke:#000000;stroke-width:0.8;" x="675.324129" xlink:href="#mb4d4c530bf" y="496.8"/>
      </g>
     </g>
     <g id="text_4">
      <!-- 2020-07 -->
      <defs>
       <path d="M 8.203125 72.90625 
L 55.078125 72.90625 
L 55.078125 68.703125 
L 28.609375 0 
L 18.3125 0 
L 43.21875 64.59375 
L 8.203125 64.59375 
z
" id="DejaVuSans-55"/>
      </defs>
      <g transform="translate(626.931862 539.5134)rotate(-30)scale(0.13 -0.13)">
       <use xlink:href="#DejaVuSans-50"/>
       <use x="63.623047" xlink:href="#DejaVuSans-48"/>
       <use x="127.246094" xlink:href="#DejaVuSans-50"/>
       <use x="190.869141" xlink:href="#DejaVuSans-48"/>
       <use x="254.492188" xlink:href="#DejaVuSans-45"/>
       <use x="290.576172" xlink:href="#DejaVuSans-48"/>
       <use x="354.199219" xlink:href="#DejaVuSans-55"/>
      </g>
     </g>
    </g>
    <g id="xtick_5">
     <g id="line2d_5">
      <g>
       <use style="stroke:#000000;stroke-width:0.8;" x="852.01463" xlink:href="#mb4d4c530bf" y="496.8"/>
      </g>
     </g>
     <g id="text_5">
      <!-- 2020-08 -->
      <defs>
       <path d="M 31.78125 34.625 
Q 24.75 34.625 20.71875 30.859375 
Q 16.703125 27.09375 16.703125 20.515625 
Q 16.703125 13.921875 20.71875 10.15625 
Q 24.75 6.390625 31.78125 6.390625 
Q 38.8125 6.390625 42.859375 10.171875 
Q 46.921875 13.96875 46.921875 20.515625 
Q 46.921875 27.09375 42.890625 30.859375 
Q 38.875 34.625 31.78125 34.625 
z
M 21.921875 38.8125 
Q 15.578125 40.375 12.03125 44.71875 
Q 8.5 49.078125 8.5 55.328125 
Q 8.5 64.0625 14.71875 69.140625 
Q 20.953125 74.21875 31.78125 74.21875 
Q 42.671875 74.21875 48.875 69.140625 
Q 55.078125 64.0625 55.078125 55.328125 
Q 55.078125 49.078125 51.53125 44.71875 
Q 48 40.375 41.703125 38.8125 
Q 48.828125 37.15625 52.796875 32.3125 
Q 56.78125 27.484375 56.78125 20.515625 
Q 56.78125 9.90625 50.3125 4.234375 
Q 43.84375 -1.421875 31.78125 -1.421875 
Q 19.734375 -1.421875 13.25 4.234375 
Q 6.78125 9.90625 6.78125 20.515625 
Q 6.78125 27.484375 10.78125 32.3125 
Q 14.796875 37.15625 21.921875 38.8125 
z
M 18.3125 54.390625 
Q 18.3125 48.734375 21.84375 45.5625 
Q 25.390625 42.390625 31.78125 42.390625 
Q 38.140625 42.390625 41.71875 45.5625 
Q 45.3125 48.734375 45.3125 54.390625 
Q 45.3125 60.0625 41.71875 63.234375 
Q 38.140625 66.40625 31.78125 66.40625 
Q 25.390625 66.40625 21.84375 63.234375 
Q 18.3125 60.0625 18.3125 54.390625 
z
" id="DejaVuSans-56"/>
      </defs>
      <g transform="translate(803.622363 539.5134)rotate(-30)scale(0.13 -0.13)">
       <use xlink:href="#DejaVuSans-50"/>
       <use x="63.623047" xlink:href="#DejaVuSans-48"/>
       <use x="127.246094" xlink:href="#DejaVuSans-50"/>
       <use x="190.869141" xlink:href="#DejaVuSans-48"/>
       <use x="254.492188" xlink:href="#DejaVuSans-45"/>
       <use x="290.576172" xlink:href="#DejaVuSans-48"/>
       <use x="354.199219" xlink:href="#DejaVuSans-56"/>
      </g>
     </g>
    </g>
    <g id="xtick_6">
     <g id="line2d_6">
      <g>
       <use style="stroke:#000000;stroke-width:0.8;" x="1028.70513" xlink:href="#mb4d4c530bf" y="496.8"/>
      </g>
     </g>
     <g id="text_6">
      <!-- 2020-09 -->
      <defs>
       <path d="M 10.984375 1.515625 
L 10.984375 10.5 
Q 14.703125 8.734375 18.5 7.8125 
Q 22.3125 6.890625 25.984375 6.890625 
Q 35.75 6.890625 40.890625 13.453125 
Q 46.046875 20.015625 46.78125 33.40625 
Q 43.953125 29.203125 39.59375 26.953125 
Q 35.25 24.703125 29.984375 24.703125 
Q 19.046875 24.703125 12.671875 31.3125 
Q 6.296875 37.9375 6.296875 49.421875 
Q 6.296875 60.640625 12.9375 67.421875 
Q 19.578125 74.21875 30.609375 74.21875 
Q 43.265625 74.21875 49.921875 64.515625 
Q 56.59375 54.828125 56.59375 36.375 
Q 56.59375 19.140625 48.40625 8.859375 
Q 40.234375 -1.421875 26.421875 -1.421875 
Q 22.703125 -1.421875 18.890625 -0.6875 
Q 15.09375 0.046875 10.984375 1.515625 
z
M 30.609375 32.421875 
Q 37.25 32.421875 41.125 36.953125 
Q 45.015625 41.5 45.015625 49.421875 
Q 45.015625 57.28125 41.125 61.84375 
Q 37.25 66.40625 30.609375 66.40625 
Q 23.96875 66.40625 20.09375 61.84375 
Q 16.21875 57.28125 16.21875 49.421875 
Q 16.21875 41.5 20.09375 36.953125 
Q 23.96875 32.421875 30.609375 32.421875 
z
" id="DejaVuSans-57"/>
      </defs>
      <g transform="translate(980.312863 539.5134)rotate(-30)scale(0.13 -0.13)">
       <use xlink:href="#DejaVuSans-50"/>
       <use x="63.623047" xlink:href="#DejaVuSans-48"/>
       <use x="127.246094" xlink:href="#DejaVuSans-50"/>
       <use x="190.869141" xlink:href="#DejaVuSans-48"/>
       <use x="254.492188" xlink:href="#DejaVuSans-45"/>
       <use x="290.576172" xlink:href="#DejaVuSans-48"/>
       <use x="354.199219" xlink:href="#DejaVuSans-57"/>
      </g>
     </g>
    </g>
   </g>
   <g id="matplotlib.axis_2">
    <g id="ytick_1">
     <g id="line2d_7">
      <path clip-path="url(#p61f309ac4d)" d="M 54.6275 471.683134 
L 1170.6275 471.683134 
" style="fill:none;stroke:#b0b0b0;stroke-linecap:square;stroke-width:0.8;"/>
     </g>
     <g id="line2d_8">
      <defs>
       <path d="M 0 0 
L -3.5 0 
" id="me95f80c4be" style="stroke:#000000;stroke-width:0.8;"/>
      </defs>
      <g>
       <use style="stroke:#000000;stroke-width:0.8;" x="54.6275" xlink:href="#me95f80c4be" y="471.683134"/>
      </g>
     </g>
     <g id="text_7">
      <!-- 0 -->
      <g transform="translate(39.35625 476.622118)scale(0.13 -0.13)">
       <use xlink:href="#DejaVuSans-48"/>
      </g>
     </g>
    </g>
    <g id="ytick_2">
     <g id="line2d_9">
      <path clip-path="url(#p61f309ac4d)" d="M 54.6275 328.567086 
L 1170.6275 328.567086 
" style="fill:none;stroke:#b0b0b0;stroke-linecap:square;stroke-width:0.8;"/>
     </g>
     <g id="line2d_10">
      <g>
       <use style="stroke:#000000;stroke-width:0.8;" x="54.6275" xlink:href="#me95f80c4be" y="328.567086"/>
      </g>
     </g>
     <g id="text_8">
      <!-- 100 -->
      <defs>
       <path d="M 12.40625 8.296875 
L 28.515625 8.296875 
L 28.515625 63.921875 
L 10.984375 60.40625 
L 10.984375 69.390625 
L 28.421875 72.90625 
L 38.28125 72.90625 
L 38.28125 8.296875 
L 54.390625 8.296875 
L 54.390625 0 
L 12.40625 0 
z
" id="DejaVuSans-49"/>
      </defs>
      <g transform="translate(22.81375 333.50607)scale(0.13 -0.13)">
       <use xlink:href="#DejaVuSans-49"/>
       <use x="63.623047" xlink:href="#DejaVuSans-48"/>
       <use x="127.246094" xlink:href="#DejaVuSans-48"/>
      </g>
     </g>
    </g>
    <g id="ytick_3">
     <g id="line2d_11">
      <path clip-path="url(#p61f309ac4d)" d="M 54.6275 185.451038 
L 1170.6275 185.451038 
" style="fill:none;stroke:#b0b0b0;stroke-linecap:square;stroke-width:0.8;"/>
     </g>
     <g id="line2d_12">
      <g>
       <use style="stroke:#000000;stroke-width:0.8;" x="54.6275" xlink:href="#me95f80c4be" y="185.451038"/>
      </g>
     </g>
     <g id="text_9">
      <!-- 200 -->
      <g transform="translate(22.81375 190.390022)scale(0.13 -0.13)">
       <use xlink:href="#DejaVuSans-50"/>
       <use x="63.623047" xlink:href="#DejaVuSans-48"/>
       <use x="127.246094" xlink:href="#DejaVuSans-48"/>
      </g>
     </g>
    </g>
    <g id="ytick_4">
     <g id="line2d_13">
      <path clip-path="url(#p61f309ac4d)" d="M 54.6275 42.33499 
L 1170.6275 42.33499 
" style="fill:none;stroke:#b0b0b0;stroke-linecap:square;stroke-width:0.8;"/>
     </g>
     <g id="line2d_14">
      <g>
       <use style="stroke:#000000;stroke-width:0.8;" x="54.6275" xlink:href="#me95f80c4be" y="42.33499"/>
      </g>
     </g>
     <g id="text_10">
      <!-- 300 -->
      <defs>
       <path d="M 40.578125 39.3125 
Q 47.65625 37.796875 51.625 33 
Q 55.609375 28.21875 55.609375 21.1875 
Q 55.609375 10.40625 48.1875 4.484375 
Q 40.765625 -1.421875 27.09375 -1.421875 
Q 22.515625 -1.421875 17.65625 -0.515625 
Q 12.796875 0.390625 7.625 2.203125 
L 7.625 11.71875 
Q 11.71875 9.328125 16.59375 8.109375 
Q 21.484375 6.890625 26.8125 6.890625 
Q 36.078125 6.890625 40.9375 10.546875 
Q 45.796875 14.203125 45.796875 21.1875 
Q 45.796875 27.640625 41.28125 31.265625 
Q 36.765625 34.90625 28.71875 34.90625 
L 20.21875 34.90625 
L 20.21875 43.015625 
L 29.109375 43.015625 
Q 36.375 43.015625 40.234375 45.921875 
Q 44.09375 48.828125 44.09375 54.296875 
Q 44.09375 59.90625 40.109375 62.90625 
Q 36.140625 65.921875 28.71875 65.921875 
Q 24.65625 65.921875 20.015625 65.03125 
Q 15.375 64.15625 9.8125 62.3125 
L 9.8125 71.09375 
Q 15.4375 72.65625 20.34375 73.4375 
Q 25.25 74.21875 29.59375 74.21875 
Q 40.828125 74.21875 47.359375 69.109375 
Q 53.90625 64.015625 53.90625 55.328125 
Q 53.90625 49.265625 50.4375 45.09375 
Q 46.96875 40.921875 40.578125 39.3125 
z
" id="DejaVuSans-51"/>
      </defs>
      <g transform="translate(22.81375 47.273974)scale(0.13 -0.13)">
       <use xlink:href="#DejaVuSans-51"/>
       <use x="63.623047" xlink:href="#DejaVuSans-48"/>
       <use x="127.246094" xlink:href="#DejaVuSans-48"/>
      </g>
     </g>
    </g>
    <g id="text_11">
     <!-- Anzahl von Fällen -->
     <defs>
      <path d="M 34.1875 63.1875 
L 20.796875 26.90625 
L 47.609375 26.90625 
z
M 28.609375 72.90625 
L 39.796875 72.90625 
L 67.578125 0 
L 57.328125 0 
L 50.6875 18.703125 
L 17.828125 18.703125 
L 11.1875 0 
L 0.78125 0 
z
" id="DejaVuSans-65"/>
      <path d="M 54.890625 33.015625 
L 54.890625 0 
L 45.90625 0 
L 45.90625 32.71875 
Q 45.90625 40.484375 42.875 44.328125 
Q 39.84375 48.1875 33.796875 48.1875 
Q 26.515625 48.1875 22.3125 43.546875 
Q 18.109375 38.921875 18.109375 30.90625 
L 18.109375 0 
L 9.078125 0 
L 9.078125 54.6875 
L 18.109375 54.6875 
L 18.109375 46.1875 
Q 21.34375 51.125 25.703125 53.5625 
Q 30.078125 56 35.796875 56 
Q 45.21875 56 50.046875 50.171875 
Q 54.890625 44.34375 54.890625 33.015625 
z
" id="DejaVuSans-110"/>
      <path d="M 5.515625 54.6875 
L 48.1875 54.6875 
L 48.1875 46.484375 
L 14.40625 7.171875 
L 48.1875 7.171875 
L 48.1875 0 
L 4.296875 0 
L 4.296875 8.203125 
L 38.09375 47.515625 
L 5.515625 47.515625 
z
" id="DejaVuSans-122"/>
      <path d="M 34.28125 27.484375 
Q 23.390625 27.484375 19.1875 25 
Q 14.984375 22.515625 14.984375 16.5 
Q 14.984375 11.71875 18.140625 8.90625 
Q 21.296875 6.109375 26.703125 6.109375 
Q 34.1875 6.109375 38.703125 11.40625 
Q 43.21875 16.703125 43.21875 25.484375 
L 43.21875 27.484375 
z
M 52.203125 31.203125 
L 52.203125 0 
L 43.21875 0 
L 43.21875 8.296875 
Q 40.140625 3.328125 35.546875 0.953125 
Q 30.953125 -1.421875 24.3125 -1.421875 
Q 15.921875 -1.421875 10.953125 3.296875 
Q 6 8.015625 6 15.921875 
Q 6 25.140625 12.171875 29.828125 
Q 18.359375 34.515625 30.609375 34.515625 
L 43.21875 34.515625 
L 43.21875 35.40625 
Q 43.21875 41.609375 39.140625 45 
Q 35.0625 48.390625 27.6875 48.390625 
Q 23 48.390625 18.546875 47.265625 
Q 14.109375 46.140625 10.015625 43.890625 
L 10.015625 52.203125 
Q 14.9375 54.109375 19.578125 55.046875 
Q 24.21875 56 28.609375 56 
Q 40.484375 56 46.34375 49.84375 
Q 52.203125 43.703125 52.203125 31.203125 
z
" id="DejaVuSans-97"/>
      <path d="M 54.890625 33.015625 
L 54.890625 0 
L 45.90625 0 
L 45.90625 32.71875 
Q 45.90625 40.484375 42.875 44.328125 
Q 39.84375 48.1875 33.796875 48.1875 
Q 26.515625 48.1875 22.3125 43.546875 
Q 18.109375 38.921875 18.109375 30.90625 
L 18.109375 0 
L 9.078125 0 
L 9.078125 75.984375 
L 18.109375 75.984375 
L 18.109375 46.1875 
Q 21.34375 51.125 25.703125 53.5625 
Q 30.078125 56 35.796875 56 
Q 45.21875 56 50.046875 50.171875 
Q 54.890625 44.34375 54.890625 33.015625 
z
" id="DejaVuSans-104"/>
      <path d="M 9.421875 75.984375 
L 18.40625 75.984375 
L 18.40625 0 
L 9.421875 0 
z
" id="DejaVuSans-108"/>
      <path id="DejaVuSans-32"/>
      <path d="M 2.984375 54.6875 
L 12.5 54.6875 
L 29.59375 8.796875 
L 46.6875 54.6875 
L 56.203125 54.6875 
L 35.6875 0 
L 23.484375 0 
z
" id="DejaVuSans-118"/>
      <path d="M 30.609375 48.390625 
Q 23.390625 48.390625 19.1875 42.75 
Q 14.984375 37.109375 14.984375 27.296875 
Q 14.984375 17.484375 19.15625 11.84375 
Q 23.34375 6.203125 30.609375 6.203125 
Q 37.796875 6.203125 41.984375 11.859375 
Q 46.1875 17.53125 46.1875 27.296875 
Q 46.1875 37.015625 41.984375 42.703125 
Q 37.796875 48.390625 30.609375 48.390625 
z
M 30.609375 56 
Q 42.328125 56 49.015625 48.375 
Q 55.71875 40.765625 55.71875 27.296875 
Q 55.71875 13.875 49.015625 6.21875 
Q 42.328125 -1.421875 30.609375 -1.421875 
Q 18.84375 -1.421875 12.171875 6.21875 
Q 5.515625 13.875 5.515625 27.296875 
Q 5.515625 40.765625 12.171875 48.375 
Q 18.84375 56 30.609375 56 
z
" id="DejaVuSans-111"/>
      <path d="M 9.8125 72.90625 
L 51.703125 72.90625 
L 51.703125 64.59375 
L 19.671875 64.59375 
L 19.671875 43.109375 
L 48.578125 43.109375 
L 48.578125 34.8125 
L 19.671875 34.8125 
L 19.671875 0 
L 9.8125 0 
z
" id="DejaVuSans-70"/>
      <path d="M 34.28125 27.484375 
Q 23.390625 27.484375 19.1875 25 
Q 14.984375 22.515625 14.984375 16.5 
Q 14.984375 11.71875 18.140625 8.90625 
Q 21.296875 6.109375 26.703125 6.109375 
Q 34.1875 6.109375 38.703125 11.40625 
Q 43.21875 16.703125 43.21875 25.484375 
L 43.21875 27.484375 
z
M 52.203125 31.203125 
L 52.203125 0 
L 43.21875 0 
L 43.21875 8.296875 
Q 40.140625 3.328125 35.546875 0.953125 
Q 30.953125 -1.421875 24.3125 -1.421875 
Q 15.921875 -1.421875 10.953125 3.296875 
Q 6 8.015625 6 15.921875 
Q 6 25.140625 12.171875 29.828125 
Q 18.359375 34.515625 30.609375 34.515625 
L 43.21875 34.515625 
L 43.21875 35.40625 
Q 43.21875 41.609375 39.140625 45 
Q 35.0625 48.390625 27.6875 48.390625 
Q 23 48.390625 18.546875 47.265625 
Q 14.109375 46.140625 10.015625 43.890625 
L 10.015625 52.203125 
Q 14.9375 54.109375 19.578125 55.046875 
Q 24.21875 56 28.609375 56 
Q 40.484375 56 46.34375 49.84375 
Q 52.203125 43.703125 52.203125 31.203125 
z
M 33.59375 75.78125 
L 43.5 75.78125 
L 43.5 65.921875 
L 33.59375 65.921875 
z
M 14.5 75.78125 
L 24.40625 75.78125 
L 24.40625 65.921875 
L 14.5 65.921875 
z
" id="DejaVuSans-228"/>
      <path d="M 56.203125 29.59375 
L 56.203125 25.203125 
L 14.890625 25.203125 
Q 15.484375 15.921875 20.484375 11.0625 
Q 25.484375 6.203125 34.421875 6.203125 
Q 39.59375 6.203125 44.453125 7.46875 
Q 49.3125 8.734375 54.109375 11.28125 
L 54.109375 2.78125 
Q 49.265625 0.734375 44.1875 -0.34375 
Q 39.109375 -1.421875 33.890625 -1.421875 
Q 20.796875 -1.421875 13.15625 6.1875 
Q 5.515625 13.8125 5.515625 26.8125 
Q 5.515625 40.234375 12.765625 48.109375 
Q 20.015625 56 32.328125 56 
Q 43.359375 56 49.78125 48.890625 
Q 56.203125 41.796875 56.203125 29.59375 
z
M 47.21875 32.234375 
Q 47.125 39.59375 43.09375 43.984375 
Q 39.0625 48.390625 32.421875 48.390625 
Q 24.90625 48.390625 20.390625 44.140625 
Q 15.875 39.890625 15.1875 32.171875 
z
" id="DejaVuSans-101"/>
     </defs>
     <g transform="translate(16.318125 304.449375)rotate(-90)scale(0.12 -0.12)">
      <use xlink:href="#DejaVuSans-65"/>
      <use x="68.408203" xlink:href="#DejaVuSans-110"/>
      <use x="131.787109" xlink:href="#DejaVuSans-122"/>
      <use x="184.277344" xlink:href="#DejaVuSans-97"/>
      <use x="245.556641" xlink:href="#DejaVuSans-104"/>
      <use x="308.935547" xlink:href="#DejaVuSans-108"/>
      <use x="336.71875" xlink:href="#DejaVuSans-32"/>
      <use x="368.505859" xlink:href="#DejaVuSans-118"/>
      <use x="427.685547" xlink:href="#DejaVuSans-111"/>
      <use x="488.867188" xlink:href="#DejaVuSans-110"/>
      <use x="552.246094" xlink:href="#DejaVuSans-32"/>
      <use x="584.033203" xlink:href="#DejaVuSans-70"/>
      <use x="632.427734" xlink:href="#DejaVuSans-228"/>
      <use x="693.707031" xlink:href="#DejaVuSans-108"/>
      <use x="721.490234" xlink:href="#DejaVuSans-108"/>
      <use x="749.273438" xlink:href="#DejaVuSans-101"/>
      <use x="810.796875" xlink:href="#DejaVuSans-110"/>
     </g>
    </g>
   </g>
   <g id="line2d_15">
    <path clip-path="url(#p61f309ac4d)" d="M 105.354773 468.820813 
L 111.054466 468.820813 
L 116.75416 468.820813 
L 122.453853 464.527331 
L 128.153547 464.527331 
L 133.853241 457.371529 
L 139.552934 457.371529 
L 145.252628 457.371529 
L 150.952321 457.371529 
L 156.652015 455.940368 
L 162.351708 451.646887 
L 168.051402 441.628764 
L 173.751096 434.472961 
L 179.450789 434.472961 
L 185.150483 433.041801 
L 190.850176 433.041801 
L 196.54987 428.748319 
L 202.249563 425.885998 
L 207.949257 418.730196 
L 219.348644 415.867875 
L 230.748031 410.143233 
L 236.447725 408.712072 
L 242.147418 408.712072 
L 247.847112 398.693949 
L 253.546805 398.693949 
L 264.946193 391.538147 
L 270.645886 387.244665 
L 276.34558 382.951184 
L 282.045273 372.933061 
L 287.744967 371.5019 
L 293.44466 370.07074 
L 304.844047 357.190295 
L 310.543741 348.603332 
L 316.243435 344.309851 
L 321.943128 335.722888 
L 333.342515 331.429407 
L 344.741902 319.980123 
L 350.441596 312.82432 
L 356.14129 308.530839 
L 361.840983 301.375037 
L 367.540677 299.943876 
L 373.24037 289.925753 
L 384.639757 282.76995 
L 390.339451 279.907629 
L 396.039145 269.889506 
L 401.738838 269.889506 
L 407.438532 259.871383 
L 413.138225 249.853259 
L 424.537612 241.266296 
L 430.237306 238.403975 
L 435.936999 234.110494 
L 447.336387 225.523531 
L 453.03608 222.66121 
L 464.435467 221.23005 
L 470.135161 221.23005 
L 481.534548 216.936568 
L 487.234242 212.643087 
L 510.033016 209.780766 
L 515.732709 205.487284 
L 521.432403 204.056124 
L 527.132097 201.193803 
L 532.83179 201.193803 
L 544.231177 201.193803 
L 549.930871 198.331482 
L 555.630564 196.900322 
L 567.029951 191.17568 
L 572.729645 189.744519 
L 584.129032 189.744519 
L 595.528419 189.744519 
L 606.927806 181.157556 
L 612.6275 181.157556 
L 624.026887 179.726396 
L 629.726581 178.295235 
L 635.426274 176.864075 
L 641.125968 176.864075 
L 652.525355 176.864075 
L 663.924742 176.864075 
L 669.624436 176.864075 
L 675.324129 176.864075 
L 681.023823 176.864075 
L 686.723516 176.864075 
L 692.42321 176.864075 
L 709.522291 176.864075 
L 715.221984 176.864075 
L 720.921678 176.864075 
L 726.621371 176.864075 
L 743.720452 172.570593 
L 749.420146 169.708272 
L 755.119839 168.277112 
L 760.819533 165.414791 
L 766.519226 165.414791 
L 783.618307 162.55247 
L 800.717388 155.396668 
L 806.417081 155.396668 
L 823.516162 155.396668 
L 829.215855 155.396668 
L 834.915549 155.396668 
L 840.615243 155.396668 
L 846.314936 155.396668 
L 903.311872 116.755335 
L 909.011565 105.306051 
L 920.410953 99.581409 
L 926.110646 99.581409 
L 943.209727 89.563286 
L 948.90942 82.407483 
L 954.609114 80.976323 
L 960.308807 78.114002 
L 966.008501 78.114002 
L 983.107582 76.682841 
L 988.807275 73.82052 
L 994.506969 72.38936 
L 1000.206662 68.095878 
L 1005.906356 62.371236 
L 1023.005437 60.940076 
L 1028.70513 60.940076 
L 1034.404824 58.077755 
L 1040.104517 53.784274 
L 1045.804211 53.784274 
L 1062.903292 45.197311 
L 1068.602985 42.33499 
L 1074.302679 40.903829 
L 1080.002372 40.903829 
L 1085.702066 35.179187 
L 1102.801147 35.179187 
L 1108.50084 35.179187 
L 1114.200534 33.748027 
L 1119.900227 29.454545 
" style="fill:none;stroke:#dbcd00;stroke-linecap:square;stroke-width:2;"/>
    <defs>
     <path d="M 0 1.5 
C 0.397805 1.5 0.77937 1.341951 1.06066 1.06066 
C 1.341951 0.77937 1.5 0.397805 1.5 0 
C 1.5 -0.397805 1.341951 -0.77937 1.06066 -1.06066 
C 0.77937 -1.341951 0.397805 -1.5 0 -1.5 
C -0.397805 -1.5 -0.77937 -1.341951 -1.06066 -1.06066 
C -1.341951 -0.77937 -1.5 -0.397805 -1.5 0 
C -1.5 0.397805 -1.341951 0.77937 -1.06066 1.06066 
C -0.77937 1.341951 -0.397805 1.5 0 1.5 
z
" id="mca7f3c660a" style="stroke:#dbcd00;"/>
    </defs>
    <g clip-path="url(#p61f309ac4d)">
     <use style="fill:#dbcd00;stroke:#dbcd00;" x="105.354773" xlink:href="#mca7f3c660a" y="468.820813"/>
     <use style="fill:#dbcd00;stroke:#dbcd00;" x="111.054466" xlink:href="#mca7f3c660a" y="468.820813"/>
     <use style="fill:#dbcd00;stroke:#dbcd00;" x="116.75416" xlink:href="#mca7f3c660a" y="468.820813"/>
     <use style="fill:#dbcd00;stroke:#dbcd00;" x="122.453853" xlink:href="#mca7f3c660a" y="464.527331"/>
     <use style="fill:#dbcd00;stroke:#dbcd00;" x="128.153547" xlink:href="#mca7f3c660a" y="464.527331"/>
     <use style="fill:#dbcd00;stroke:#dbcd00;" x="133.853241" xlink:href="#mca7f3c660a" y="457.371529"/>
     <use style="fill:#dbcd00;stroke:#dbcd00;" x="139.552934" xlink:href="#mca7f3c660a" y="457.371529"/>
     <use style="fill:#dbcd00;stroke:#dbcd00;" x="145.252628" xlink:href="#mca7f3c660a" y="457.371529"/>
     <use style="fill:#dbcd00;stroke:#dbcd00;" x="150.952321" xlink:href="#mca7f3c660a" y="457.371529"/>
     <use style="fill:#dbcd00;stroke:#dbcd00;" x="156.652015" xlink:href="#mca7f3c660a" y="455.940368"/>
     <use style="fill:#dbcd00;stroke:#dbcd00;" x="162.351708" xlink:href="#mca7f3c660a" y="451.646887"/>
     <use style="fill:#dbcd00;stroke:#dbcd00;" x="168.051402" xlink:href="#mca7f3c660a" y="441.628764"/>
     <use style="fill:#dbcd00;stroke:#dbcd00;" x="173.751096" xlink:href="#mca7f3c660a" y="434.472961"/>
     <use style="fill:#dbcd00;stroke:#dbcd00;" x="179.450789" xlink:href="#mca7f3c660a" y="434.472961"/>
     <use style="fill:#dbcd00;stroke:#dbcd00;" x="185.150483" xlink:href="#mca7f3c660a" y="433.041801"/>
     <use style="fill:#dbcd00;stroke:#dbcd00;" x="190.850176" xlink:href="#mca7f3c660a" y="433.041801"/>
     <use style="fill:#dbcd00;stroke:#dbcd00;" x="196.54987" xlink:href="#mca7f3c660a" y="428.748319"/>
     <use style="fill:#dbcd00;stroke:#dbcd00;" x="202.249563" xlink:href="#mca7f3c660a" y="425.885998"/>
     <use style="fill:#dbcd00;stroke:#dbcd00;" x="207.949257" xlink:href="#mca7f3c660a" y="418.730196"/>
     <use style="fill:#dbcd00;stroke:#dbcd00;" x="219.348644" xlink:href="#mca7f3c660a" y="415.867875"/>
     <use style="fill:#dbcd00;stroke:#dbcd00;" x="230.748031" xlink:href="#mca7f3c660a" y="410.143233"/>
     <use style="fill:#dbcd00;stroke:#dbcd00;" x="236.447725" xlink:href="#mca7f3c660a" y="408.712072"/>
     <use style="fill:#dbcd00;stroke:#dbcd00;" x="242.147418" xlink:href="#mca7f3c660a" y="408.712072"/>
     <use style="fill:#dbcd00;stroke:#dbcd00;" x="247.847112" xlink:href="#mca7f3c660a" y="398.693949"/>
     <use style="fill:#dbcd00;stroke:#dbcd00;" x="253.546805" xlink:href="#mca7f3c660a" y="398.693949"/>
     <use style="fill:#dbcd00;stroke:#dbcd00;" x="264.946193" xlink:href="#mca7f3c660a" y="391.538147"/>
     <use style="fill:#dbcd00;stroke:#dbcd00;" x="270.645886" xlink:href="#mca7f3c660a" y="387.244665"/>
     <use style="fill:#dbcd00;stroke:#dbcd00;" x="276.34558" xlink:href="#mca7f3c660a" y="382.951184"/>
     <use style="fill:#dbcd00;stroke:#dbcd00;" x="282.045273" xlink:href="#mca7f3c660a" y="372.933061"/>
     <use style="fill:#dbcd00;stroke:#dbcd00;" x="287.744967" xlink:href="#mca7f3c660a" y="371.5019"/>
     <use style="fill:#dbcd00;stroke:#dbcd00;" x="293.44466" xlink:href="#mca7f3c660a" y="370.07074"/>
     <use style="fill:#dbcd00;stroke:#dbcd00;" x="304.844047" xlink:href="#mca7f3c660a" y="357.190295"/>
     <use style="fill:#dbcd00;stroke:#dbcd00;" x="310.543741" xlink:href="#mca7f3c660a" y="348.603332"/>
     <use style="fill:#dbcd00;stroke:#dbcd00;" x="316.243435" xlink:href="#mca7f3c660a" y="344.309851"/>
     <use style="fill:#dbcd00;stroke:#dbcd00;" x="321.943128" xlink:href="#mca7f3c660a" y="335.722888"/>
     <use style="fill:#dbcd00;stroke:#dbcd00;" x="333.342515" xlink:href="#mca7f3c660a" y="331.429407"/>
     <use style="fill:#dbcd00;stroke:#dbcd00;" x="344.741902" xlink:href="#mca7f3c660a" y="319.980123"/>
     <use style="fill:#dbcd00;stroke:#dbcd00;" x="350.441596" xlink:href="#mca7f3c660a" y="312.82432"/>
     <use style="fill:#dbcd00;stroke:#dbcd00;" x="356.14129" xlink:href="#mca7f3c660a" y="308.530839"/>
     <use style="fill:#dbcd00;stroke:#dbcd00;" x="361.840983" xlink:href="#mca7f3c660a" y="301.375037"/>
     <use style="fill:#dbcd00;stroke:#dbcd00;" x="367.540677" xlink:href="#mca7f3c660a" y="299.943876"/>
     <use style="fill:#dbcd00;stroke:#dbcd00;" x="373.24037" xlink:href="#mca7f3c660a" y="289.925753"/>
     <use style="fill:#dbcd00;stroke:#dbcd00;" x="384.639757" xlink:href="#mca7f3c660a" y="282.76995"/>
     <use style="fill:#dbcd00;stroke:#dbcd00;" x="390.339451" xlink:href="#mca7f3c660a" y="279.907629"/>
     <use style="fill:#dbcd00;stroke:#dbcd00;" x="396.039145" xlink:href="#mca7f3c660a" y="269.889506"/>
     <use style="fill:#dbcd00;stroke:#dbcd00;" x="401.738838" xlink:href="#mca7f3c660a" y="269.889506"/>
     <use style="fill:#dbcd00;stroke:#dbcd00;" x="407.438532" xlink:href="#mca7f3c660a" y="259.871383"/>
     <use style="fill:#dbcd00;stroke:#dbcd00;" x="413.138225" xlink:href="#mca7f3c660a" y="249.853259"/>
     <use style="fill:#dbcd00;stroke:#dbcd00;" x="424.537612" xlink:href="#mca7f3c660a" y="241.266296"/>
     <use style="fill:#dbcd00;stroke:#dbcd00;" x="430.237306" xlink:href="#mca7f3c660a" y="238.403975"/>
     <use style="fill:#dbcd00;stroke:#dbcd00;" x="435.936999" xlink:href="#mca7f3c660a" y="234.110494"/>
     <use style="fill:#dbcd00;stroke:#dbcd00;" x="447.336387" xlink:href="#mca7f3c660a" y="225.523531"/>
     <use style="fill:#dbcd00;stroke:#dbcd00;" x="453.03608" xlink:href="#mca7f3c660a" y="222.66121"/>
     <use style="fill:#dbcd00;stroke:#dbcd00;" x="464.435467" xlink:href="#mca7f3c660a" y="221.23005"/>
     <use style="fill:#dbcd00;stroke:#dbcd00;" x="470.135161" xlink:href="#mca7f3c660a" y="221.23005"/>
     <use style="fill:#dbcd00;stroke:#dbcd00;" x="481.534548" xlink:href="#mca7f3c660a" y="216.936568"/>
     <use style="fill:#dbcd00;stroke:#dbcd00;" x="487.234242" xlink:href="#mca7f3c660a" y="212.643087"/>
     <use style="fill:#dbcd00;stroke:#dbcd00;" x="510.033016" xlink:href="#mca7f3c660a" y="209.780766"/>
     <use style="fill:#dbcd00;stroke:#dbcd00;" x="515.732709" xlink:href="#mca7f3c660a" y="205.487284"/>
     <use style="fill:#dbcd00;stroke:#dbcd00;" x="521.432403" xlink:href="#mca7f3c660a" y="204.056124"/>
     <use style="fill:#dbcd00;stroke:#dbcd00;" x="527.132097" xlink:href="#mca7f3c660a" y="201.193803"/>
     <use style="fill:#dbcd00;stroke:#dbcd00;" x="532.83179" xlink:href="#mca7f3c660a" y="201.193803"/>
     <use style="fill:#dbcd00;stroke:#dbcd00;" x="544.231177" xlink:href="#mca7f3c660a" y="201.193803"/>
     <use style="fill:#dbcd00;stroke:#dbcd00;" x="549.930871" xlink:href="#mca7f3c660a" y="198.331482"/>
     <use style="fill:#dbcd00;stroke:#dbcd00;" x="555.630564" xlink:href="#mca7f3c660a" y="196.900322"/>
     <use style="fill:#dbcd00;stroke:#dbcd00;" x="567.029951" xlink:href="#mca7f3c660a" y="191.17568"/>
     <use style="fill:#dbcd00;stroke:#dbcd00;" x="572.729645" xlink:href="#mca7f3c660a" y="189.744519"/>
     <use style="fill:#dbcd00;stroke:#dbcd00;" x="584.129032" xlink:href="#mca7f3c660a" y="189.744519"/>
     <use style="fill:#dbcd00;stroke:#dbcd00;" x="595.528419" xlink:href="#mca7f3c660a" y="189.744519"/>
     <use style="fill:#dbcd00;stroke:#dbcd00;" x="606.927806" xlink:href="#mca7f3c660a" y="181.157556"/>
     <use style="fill:#dbcd00;stroke:#dbcd00;" x="612.6275" xlink:href="#mca7f3c660a" y="181.157556"/>
     <use style="fill:#dbcd00;stroke:#dbcd00;" x="624.026887" xlink:href="#mca7f3c660a" y="179.726396"/>
     <use style="fill:#dbcd00;stroke:#dbcd00;" x="629.726581" xlink:href="#mca7f3c660a" y="178.295235"/>
     <use style="fill:#dbcd00;stroke:#dbcd00;" x="635.426274" xlink:href="#mca7f3c660a" y="176.864075"/>
     <use style="fill:#dbcd00;stroke:#dbcd00;" x="641.125968" xlink:href="#mca7f3c660a" y="176.864075"/>
     <use style="fill:#dbcd00;stroke:#dbcd00;" x="652.525355" xlink:href="#mca7f3c660a" y="176.864075"/>
     <use style="fill:#dbcd00;stroke:#dbcd00;" x="663.924742" xlink:href="#mca7f3c660a" y="176.864075"/>
     <use style="fill:#dbcd00;stroke:#dbcd00;" x="669.624436" xlink:href="#mca7f3c660a" y="176.864075"/>
     <use style="fill:#dbcd00;stroke:#dbcd00;" x="675.324129" xlink:href="#mca7f3c660a" y="176.864075"/>
     <use style="fill:#dbcd00;stroke:#dbcd00;" x="681.023823" xlink:href="#mca7f3c660a" y="176.864075"/>
     <use style="fill:#dbcd00;stroke:#dbcd00;" x="686.723516" xlink:href="#mca7f3c660a" y="176.864075"/>
     <use style="fill:#dbcd00;stroke:#dbcd00;" x="692.42321" xlink:href="#mca7f3c660a" y="176.864075"/>
     <use style="fill:#dbcd00;stroke:#dbcd00;" x="709.522291" xlink:href="#mca7f3c660a" y="176.864075"/>
     <use style="fill:#dbcd00;stroke:#dbcd00;" x="715.221984" xlink:href="#mca7f3c660a" y="176.864075"/>
     <use style="fill:#dbcd00;stroke:#dbcd00;" x="720.921678" xlink:href="#mca7f3c660a" y="176.864075"/>
     <use style="fill:#dbcd00;stroke:#dbcd00;" x="726.621371" xlink:href="#mca7f3c660a" y="176.864075"/>
     <use style="fill:#dbcd00;stroke:#dbcd00;" x="743.720452" xlink:href="#mca7f3c660a" y="172.570593"/>
     <use style="fill:#dbcd00;stroke:#dbcd00;" x="749.420146" xlink:href="#mca7f3c660a" y="169.708272"/>
     <use style="fill:#dbcd00;stroke:#dbcd00;" x="755.119839" xlink:href="#mca7f3c660a" y="168.277112"/>
     <use style="fill:#dbcd00;stroke:#dbcd00;" x="760.819533" xlink:href="#mca7f3c660a" y="165.414791"/>
     <use style="fill:#dbcd00;stroke:#dbcd00;" x="766.519226" xlink:href="#mca7f3c660a" y="165.414791"/>
     <use style="fill:#dbcd00;stroke:#dbcd00;" x="783.618307" xlink:href="#mca7f3c660a" y="162.55247"/>
     <use style="fill:#dbcd00;stroke:#dbcd00;" x="800.717388" xlink:href="#mca7f3c660a" y="155.396668"/>
     <use style="fill:#dbcd00;stroke:#dbcd00;" x="806.417081" xlink:href="#mca7f3c660a" y="155.396668"/>
     <use style="fill:#dbcd00;stroke:#dbcd00;" x="823.516162" xlink:href="#mca7f3c660a" y="155.396668"/>
     <use style="fill:#dbcd00;stroke:#dbcd00;" x="829.215855" xlink:href="#mca7f3c660a" y="155.396668"/>
     <use style="fill:#dbcd00;stroke:#dbcd00;" x="834.915549" xlink:href="#mca7f3c660a" y="155.396668"/>
     <use style="fill:#dbcd00;stroke:#dbcd00;" x="840.615243" xlink:href="#mca7f3c660a" y="155.396668"/>
     <use style="fill:#dbcd00;stroke:#dbcd00;" x="846.314936" xlink:href="#mca7f3c660a" y="155.396668"/>
     <use style="fill:#dbcd00;stroke:#dbcd00;" x="903.311872" xlink:href="#mca7f3c660a" y="116.755335"/>
     <use style="fill:#dbcd00;stroke:#dbcd00;" x="909.011565" xlink:href="#mca7f3c660a" y="105.306051"/>
     <use style="fill:#dbcd00;stroke:#dbcd00;" x="920.410953" xlink:href="#mca7f3c660a" y="99.581409"/>
     <use style="fill:#dbcd00;stroke:#dbcd00;" x="926.110646" xlink:href="#mca7f3c660a" y="99.581409"/>
     <use style="fill:#dbcd00;stroke:#dbcd00;" x="943.209727" xlink:href="#mca7f3c660a" y="89.563286"/>
     <use style="fill:#dbcd00;stroke:#dbcd00;" x="948.90942" xlink:href="#mca7f3c660a" y="82.407483"/>
     <use style="fill:#dbcd00;stroke:#dbcd00;" x="954.609114" xlink:href="#mca7f3c660a" y="80.976323"/>
     <use style="fill:#dbcd00;stroke:#dbcd00;" x="960.308807" xlink:href="#mca7f3c660a" y="78.114002"/>
     <use style="fill:#dbcd00;stroke:#dbcd00;" x="966.008501" xlink:href="#mca7f3c660a" y="78.114002"/>
     <use style="fill:#dbcd00;stroke:#dbcd00;" x="983.107582" xlink:href="#mca7f3c660a" y="76.682841"/>
     <use style="fill:#dbcd00;stroke:#dbcd00;" x="988.807275" xlink:href="#mca7f3c660a" y="73.82052"/>
     <use style="fill:#dbcd00;stroke:#dbcd00;" x="994.506969" xlink:href="#mca7f3c660a" y="72.38936"/>
     <use style="fill:#dbcd00;stroke:#dbcd00;" x="1000.206662" xlink:href="#mca7f3c660a" y="68.095878"/>
     <use style="fill:#dbcd00;stroke:#dbcd00;" x="1005.906356" xlink:href="#mca7f3c660a" y="62.371236"/>
     <use style="fill:#dbcd00;stroke:#dbcd00;" x="1023.005437" xlink:href="#mca7f3c660a" y="60.940076"/>
     <use style="fill:#dbcd00;stroke:#dbcd00;" x="1028.70513" xlink:href="#mca7f3c660a" y="60.940076"/>
     <use style="fill:#dbcd00;stroke:#dbcd00;" x="1034.404824" xlink:href="#mca7f3c660a" y="58.077755"/>
     <use style="fill:#dbcd00;stroke:#dbcd00;" x="1040.104517" xlink:href="#mca7f3c660a" y="53.784274"/>
     <use style="fill:#dbcd00;stroke:#dbcd00;" x="1045.804211" xlink:href="#mca7f3c660a" y="53.784274"/>
     <use style="fill:#dbcd00;stroke:#dbcd00;" x="1062.903292" xlink:href="#mca7f3c660a" y="45.197311"/>
     <use style="fill:#dbcd00;stroke:#dbcd00;" x="1068.602985" xlink:href="#mca7f3c660a" y="42.33499"/>
     <use style="fill:#dbcd00;stroke:#dbcd00;" x="1074.302679" xlink:href="#mca7f3c660a" y="40.903829"/>
     <use style="fill:#dbcd00;stroke:#dbcd00;" x="1080.002372" xlink:href="#mca7f3c660a" y="40.903829"/>
     <use style="fill:#dbcd00;stroke:#dbcd00;" x="1085.702066" xlink:href="#mca7f3c660a" y="35.179187"/>
     <use style="fill:#dbcd00;stroke:#dbcd00;" x="1102.801147" xlink:href="#mca7f3c660a" y="35.179187"/>
     <use style="fill:#dbcd00;stroke:#dbcd00;" x="1108.50084" xlink:href="#mca7f3c660a" y="35.179187"/>
     <use style="fill:#dbcd00;stroke:#dbcd00;" x="1114.200534" xlink:href="#mca7f3c660a" y="33.748027"/>
     <use style="fill:#dbcd00;stroke:#dbcd00;" x="1119.900227" xlink:href="#mca7f3c660a" y="29.454545"/>
    </g>
   </g>
   <g id="line2d_16">
    <path clip-path="url(#p61f309ac4d)" d="M 105.354773 450.215726 
L 111.054466 448.784566 
L 116.75416 438.766443 
L 122.453853 447.353405 
L 128.153547 441.628764 
L 133.853241 434.472961 
L 139.552934 433.041801 
L 145.252628 430.17948 
L 150.952321 424.454838 
L 156.652015 424.454838 
L 162.351708 420.161356 
L 168.051402 424.454838 
L 173.751096 424.454838 
L 179.450789 423.023677 
L 185.150483 418.730196 
L 190.850176 413.005554 
L 196.54987 407.280912 
L 202.249563 404.418591 
L 207.949257 407.280912 
L 219.348644 407.280912 
L 230.748031 405.849752 
L 236.447725 398.693949 
L 242.147418 397.262789 
L 247.847112 401.55627 
L 253.546805 397.262789 
L 264.946193 398.693949 
L 270.645886 390.106986 
L 276.34558 394.400468 
L 282.045273 400.12511 
L 287.744967 398.693949 
L 293.44466 381.520023 
L 304.844047 391.538147 
L 310.543741 397.262789 
L 316.243435 400.12511 
L 321.943128 405.849752 
L 333.342515 398.693949 
L 344.741902 410.143233 
L 350.441596 398.693949 
L 356.14129 392.969307 
L 361.840983 400.12511 
L 367.540677 401.55627 
L 373.24037 408.712072 
L 384.639757 414.436714 
L 390.339451 415.867875 
L 396.039145 418.730196 
L 401.738838 418.730196 
L 407.438532 428.748319 
L 413.138225 435.904122 
L 424.537612 444.491084 
L 430.237306 445.922245 
L 435.936999 450.215726 
L 447.336387 458.802689 
L 453.03608 457.371529 
L 464.435467 454.509208 
L 470.135161 454.509208 
L 481.534548 455.940368 
L 487.234242 460.23385 
L 510.033016 455.940368 
L 515.732709 458.802689 
L 521.432403 457.371529 
L 527.132097 461.66501 
L 532.83179 461.66501 
L 544.231177 461.66501 
L 549.930871 464.527331 
L 555.630564 461.66501 
L 567.029951 464.527331 
L 572.729645 463.096171 
L 584.129032 463.096171 
L 595.528419 463.096171 
L 606.927806 471.683134 
L 612.6275 470.251973 
L 624.026887 471.683134 
L 629.726581 471.683134 
L 635.426274 474.545455 
L 641.125968 474.545455 
L 652.525355 474.545455 
L 663.924742 474.545455 
L 669.624436 474.545455 
L 675.324129 473.114294 
L 681.023823 471.683134 
L 686.723516 470.251973 
L 692.42321 464.527331 
L 709.522291 464.527331 
L 715.221984 461.66501 
L 720.921678 461.66501 
L 726.621371 461.66501 
L 743.720452 461.66501 
L 749.420146 464.527331 
L 755.119839 465.958492 
L 760.819533 468.820813 
L 766.519226 463.096171 
L 783.618307 463.096171 
L 800.717388 457.371529 
L 806.417081 457.371529 
L 823.516162 440.197603 
L 829.215855 440.197603 
L 834.915549 440.197603 
L 840.615243 435.904122 
L 846.314936 415.867875 
L 903.311872 431.61064 
L 909.011565 443.059924 
L 920.410953 445.922245 
L 926.110646 445.922245 
L 943.209727 445.922245 
L 948.90942 453.078047 
L 954.609114 454.509208 
L 960.308807 457.371529 
L 966.008501 454.509208 
L 983.107582 451.646887 
L 988.807275 454.509208 
L 994.506969 454.509208 
L 1000.206662 455.940368 
L 1005.906356 457.371529 
L 1023.005437 457.371529 
L 1028.70513 455.940368 
L 1034.404824 454.509208 
L 1040.104517 458.802689 
L 1045.804211 455.940368 
L 1062.903292 457.371529 
L 1068.602985 460.23385 
L 1074.302679 453.078047 
L 1080.002372 453.078047 
L 1085.702066 457.371529 
L 1102.801147 455.940368 
L 1108.50084 454.509208 
L 1114.200534 454.509208 
L 1119.900227 458.802689 
" style="fill:none;stroke:#2792cb;stroke-linecap:square;stroke-width:2;"/>
    <defs>
     <path d="M 0 1.5 
C 0.397805 1.5 0.77937 1.341951 1.06066 1.06066 
C 1.341951 0.77937 1.5 0.397805 1.5 0 
C 1.5 -0.397805 1.341951 -0.77937 1.06066 -1.06066 
C 0.77937 -1.341951 0.397805 -1.5 0 -1.5 
C -0.397805 -1.5 -0.77937 -1.341951 -1.06066 -1.06066 
C -1.341951 -0.77937 -1.5 -0.397805 -1.5 0 
C -1.5 0.397805 -1.341951 0.77937 -1.06066 1.06066 
C -0.77937 1.341951 -0.397805 1.5 0 1.5 
z
" id="mee1917d9c5" style="stroke:#2792cb;"/>
    </defs>
    <g clip-path="url(#p61f309ac4d)">
     <use style="fill:#2792cb;stroke:#2792cb;" x="105.354773" xlink:href="#mee1917d9c5" y="450.215726"/>
     <use style="fill:#2792cb;stroke:#2792cb;" x="111.054466" xlink:href="#mee1917d9c5" y="448.784566"/>
     <use style="fill:#2792cb;stroke:#2792cb;" x="116.75416" xlink:href="#mee1917d9c5" y="438.766443"/>
     <use style="fill:#2792cb;stroke:#2792cb;" x="122.453853" xlink:href="#mee1917d9c5" y="447.353405"/>
     <use style="fill:#2792cb;stroke:#2792cb;" x="128.153547" xlink:href="#mee1917d9c5" y="441.628764"/>
     <use style="fill:#2792cb;stroke:#2792cb;" x="133.853241" xlink:href="#mee1917d9c5" y="434.472961"/>
     <use style="fill:#2792cb;stroke:#2792cb;" x="139.552934" xlink:href="#mee1917d9c5" y="433.041801"/>
     <use style="fill:#2792cb;stroke:#2792cb;" x="145.252628" xlink:href="#mee1917d9c5" y="430.17948"/>
     <use style="fill:#2792cb;stroke:#2792cb;" x="150.952321" xlink:href="#mee1917d9c5" y="424.454838"/>
     <use style="fill:#2792cb;stroke:#2792cb;" x="156.652015" xlink:href="#mee1917d9c5" y="424.454838"/>
     <use style="fill:#2792cb;stroke:#2792cb;" x="162.351708" xlink:href="#mee1917d9c5" y="420.161356"/>
     <use style="fill:#2792cb;stroke:#2792cb;" x="168.051402" xlink:href="#mee1917d9c5" y="424.454838"/>
     <use style="fill:#2792cb;stroke:#2792cb;" x="173.751096" xlink:href="#mee1917d9c5" y="424.454838"/>
     <use style="fill:#2792cb;stroke:#2792cb;" x="179.450789" xlink:href="#mee1917d9c5" y="423.023677"/>
     <use style="fill:#2792cb;stroke:#2792cb;" x="185.150483" xlink:href="#mee1917d9c5" y="418.730196"/>
     <use style="fill:#2792cb;stroke:#2792cb;" x="190.850176" xlink:href="#mee1917d9c5" y="413.005554"/>
     <use style="fill:#2792cb;stroke:#2792cb;" x="196.54987" xlink:href="#mee1917d9c5" y="407.280912"/>
     <use style="fill:#2792cb;stroke:#2792cb;" x="202.249563" xlink:href="#mee1917d9c5" y="404.418591"/>
     <use style="fill:#2792cb;stroke:#2792cb;" x="207.949257" xlink:href="#mee1917d9c5" y="407.280912"/>
     <use style="fill:#2792cb;stroke:#2792cb;" x="219.348644" xlink:href="#mee1917d9c5" y="407.280912"/>
     <use style="fill:#2792cb;stroke:#2792cb;" x="230.748031" xlink:href="#mee1917d9c5" y="405.849752"/>
     <use style="fill:#2792cb;stroke:#2792cb;" x="236.447725" xlink:href="#mee1917d9c5" y="398.693949"/>
     <use style="fill:#2792cb;stroke:#2792cb;" x="242.147418" xlink:href="#mee1917d9c5" y="397.262789"/>
     <use style="fill:#2792cb;stroke:#2792cb;" x="247.847112" xlink:href="#mee1917d9c5" y="401.55627"/>
     <use style="fill:#2792cb;stroke:#2792cb;" x="253.546805" xlink:href="#mee1917d9c5" y="397.262789"/>
     <use style="fill:#2792cb;stroke:#2792cb;" x="264.946193" xlink:href="#mee1917d9c5" y="398.693949"/>
     <use style="fill:#2792cb;stroke:#2792cb;" x="270.645886" xlink:href="#mee1917d9c5" y="390.106986"/>
     <use style="fill:#2792cb;stroke:#2792cb;" x="276.34558" xlink:href="#mee1917d9c5" y="394.400468"/>
     <use style="fill:#2792cb;stroke:#2792cb;" x="282.045273" xlink:href="#mee1917d9c5" y="400.12511"/>
     <use style="fill:#2792cb;stroke:#2792cb;" x="287.744967" xlink:href="#mee1917d9c5" y="398.693949"/>
     <use style="fill:#2792cb;stroke:#2792cb;" x="293.44466" xlink:href="#mee1917d9c5" y="381.520023"/>
     <use style="fill:#2792cb;stroke:#2792cb;" x="304.844047" xlink:href="#mee1917d9c5" y="391.538147"/>
     <use style="fill:#2792cb;stroke:#2792cb;" x="310.543741" xlink:href="#mee1917d9c5" y="397.262789"/>
     <use style="fill:#2792cb;stroke:#2792cb;" x="316.243435" xlink:href="#mee1917d9c5" y="400.12511"/>
     <use style="fill:#2792cb;stroke:#2792cb;" x="321.943128" xlink:href="#mee1917d9c5" y="405.849752"/>
     <use style="fill:#2792cb;stroke:#2792cb;" x="333.342515" xlink:href="#mee1917d9c5" y="398.693949"/>
     <use style="fill:#2792cb;stroke:#2792cb;" x="344.741902" xlink:href="#mee1917d9c5" y="410.143233"/>
     <use style="fill:#2792cb;stroke:#2792cb;" x="350.441596" xlink:href="#mee1917d9c5" y="398.693949"/>
     <use style="fill:#2792cb;stroke:#2792cb;" x="356.14129" xlink:href="#mee1917d9c5" y="392.969307"/>
     <use style="fill:#2792cb;stroke:#2792cb;" x="361.840983" xlink:href="#mee1917d9c5" y="400.12511"/>
     <use style="fill:#2792cb;stroke:#2792cb;" x="367.540677" xlink:href="#mee1917d9c5" y="401.55627"/>
     <use style="fill:#2792cb;stroke:#2792cb;" x="373.24037" xlink:href="#mee1917d9c5" y="408.712072"/>
     <use style="fill:#2792cb;stroke:#2792cb;" x="384.639757" xlink:href="#mee1917d9c5" y="414.436714"/>
     <use style="fill:#2792cb;stroke:#2792cb;" x="390.339451" xlink:href="#mee1917d9c5" y="415.867875"/>
     <use style="fill:#2792cb;stroke:#2792cb;" x="396.039145" xlink:href="#mee1917d9c5" y="418.730196"/>
     <use style="fill:#2792cb;stroke:#2792cb;" x="401.738838" xlink:href="#mee1917d9c5" y="418.730196"/>
     <use style="fill:#2792cb;stroke:#2792cb;" x="407.438532" xlink:href="#mee1917d9c5" y="428.748319"/>
     <use style="fill:#2792cb;stroke:#2792cb;" x="413.138225" xlink:href="#mee1917d9c5" y="435.904122"/>
     <use style="fill:#2792cb;stroke:#2792cb;" x="424.537612" xlink:href="#mee1917d9c5" y="444.491084"/>
     <use style="fill:#2792cb;stroke:#2792cb;" x="430.237306" xlink:href="#mee1917d9c5" y="445.922245"/>
     <use style="fill:#2792cb;stroke:#2792cb;" x="435.936999" xlink:href="#mee1917d9c5" y="450.215726"/>
     <use style="fill:#2792cb;stroke:#2792cb;" x="447.336387" xlink:href="#mee1917d9c5" y="458.802689"/>
     <use style="fill:#2792cb;stroke:#2792cb;" x="453.03608" xlink:href="#mee1917d9c5" y="457.371529"/>
     <use style="fill:#2792cb;stroke:#2792cb;" x="464.435467" xlink:href="#mee1917d9c5" y="454.509208"/>
     <use style="fill:#2792cb;stroke:#2792cb;" x="470.135161" xlink:href="#mee1917d9c5" y="454.509208"/>
     <use style="fill:#2792cb;stroke:#2792cb;" x="481.534548" xlink:href="#mee1917d9c5" y="455.940368"/>
     <use style="fill:#2792cb;stroke:#2792cb;" x="487.234242" xlink:href="#mee1917d9c5" y="460.23385"/>
     <use style="fill:#2792cb;stroke:#2792cb;" x="510.033016" xlink:href="#mee1917d9c5" y="455.940368"/>
     <use style="fill:#2792cb;stroke:#2792cb;" x="515.732709" xlink:href="#mee1917d9c5" y="458.802689"/>
     <use style="fill:#2792cb;stroke:#2792cb;" x="521.432403" xlink:href="#mee1917d9c5" y="457.371529"/>
     <use style="fill:#2792cb;stroke:#2792cb;" x="527.132097" xlink:href="#mee1917d9c5" y="461.66501"/>
     <use style="fill:#2792cb;stroke:#2792cb;" x="532.83179" xlink:href="#mee1917d9c5" y="461.66501"/>
     <use style="fill:#2792cb;stroke:#2792cb;" x="544.231177" xlink:href="#mee1917d9c5" y="461.66501"/>
     <use style="fill:#2792cb;stroke:#2792cb;" x="549.930871" xlink:href="#mee1917d9c5" y="464.527331"/>
     <use style="fill:#2792cb;stroke:#2792cb;" x="555.630564" xlink:href="#mee1917d9c5" y="461.66501"/>
     <use style="fill:#2792cb;stroke:#2792cb;" x="567.029951" xlink:href="#mee1917d9c5" y="464.527331"/>
     <use style="fill:#2792cb;stroke:#2792cb;" x="572.729645" xlink:href="#mee1917d9c5" y="463.096171"/>
     <use style="fill:#2792cb;stroke:#2792cb;" x="584.129032" xlink:href="#mee1917d9c5" y="463.096171"/>
     <use style="fill:#2792cb;stroke:#2792cb;" x="595.528419" xlink:href="#mee1917d9c5" y="463.096171"/>
     <use style="fill:#2792cb;stroke:#2792cb;" x="606.927806" xlink:href="#mee1917d9c5" y="471.683134"/>
     <use style="fill:#2792cb;stroke:#2792cb;" x="612.6275" xlink:href="#mee1917d9c5" y="470.251973"/>
     <use style="fill:#2792cb;stroke:#2792cb;" x="624.026887" xlink:href="#mee1917d9c5" y="471.683134"/>
     <use style="fill:#2792cb;stroke:#2792cb;" x="629.726581" xlink:href="#mee1917d9c5" y="471.683134"/>
     <use style="fill:#2792cb;stroke:#2792cb;" x="635.426274" xlink:href="#mee1917d9c5" y="474.545455"/>
     <use style="fill:#2792cb;stroke:#2792cb;" x="641.125968" xlink:href="#mee1917d9c5" y="474.545455"/>
     <use style="fill:#2792cb;stroke:#2792cb;" x="652.525355" xlink:href="#mee1917d9c5" y="474.545455"/>
     <use style="fill:#2792cb;stroke:#2792cb;" x="663.924742" xlink:href="#mee1917d9c5" y="474.545455"/>
     <use style="fill:#2792cb;stroke:#2792cb;" x="669.624436" xlink:href="#mee1917d9c5" y="474.545455"/>
     <use style="fill:#2792cb;stroke:#2792cb;" x="675.324129" xlink:href="#mee1917d9c5" y="473.114294"/>
     <use style="fill:#2792cb;stroke:#2792cb;" x="681.023823" xlink:href="#mee1917d9c5" y="471.683134"/>
     <use style="fill:#2792cb;stroke:#2792cb;" x="686.723516" xlink:href="#mee1917d9c5" y="470.251973"/>
     <use style="fill:#2792cb;stroke:#2792cb;" x="692.42321" xlink:href="#mee1917d9c5" y="464.527331"/>
     <use style="fill:#2792cb;stroke:#2792cb;" x="709.522291" xlink:href="#mee1917d9c5" y="464.527331"/>
     <use style="fill:#2792cb;stroke:#2792cb;" x="715.221984" xlink:href="#mee1917d9c5" y="461.66501"/>
     <use style="fill:#2792cb;stroke:#2792cb;" x="720.921678" xlink:href="#mee1917d9c5" y="461.66501"/>
     <use style="fill:#2792cb;stroke:#2792cb;" x="726.621371" xlink:href="#mee1917d9c5" y="461.66501"/>
     <use style="fill:#2792cb;stroke:#2792cb;" x="743.720452" xlink:href="#mee1917d9c5" y="461.66501"/>
     <use style="fill:#2792cb;stroke:#2792cb;" x="749.420146" xlink:href="#mee1917d9c5" y="464.527331"/>
     <use style="fill:#2792cb;stroke:#2792cb;" x="755.119839" xlink:href="#mee1917d9c5" y="465.958492"/>
     <use style="fill:#2792cb;stroke:#2792cb;" x="760.819533" xlink:href="#mee1917d9c5" y="468.820813"/>
     <use style="fill:#2792cb;stroke:#2792cb;" x="766.519226" xlink:href="#mee1917d9c5" y="463.096171"/>
     <use style="fill:#2792cb;stroke:#2792cb;" x="783.618307" xlink:href="#mee1917d9c5" y="463.096171"/>
     <use style="fill:#2792cb;stroke:#2792cb;" x="800.717388" xlink:href="#mee1917d9c5" y="457.371529"/>
     <use style="fill:#2792cb;stroke:#2792cb;" x="806.417081" xlink:href="#mee1917d9c5" y="457.371529"/>
     <use style="fill:#2792cb;stroke:#2792cb;" x="823.516162" xlink:href="#mee1917d9c5" y="440.197603"/>
     <use style="fill:#2792cb;stroke:#2792cb;" x="829.215855" xlink:href="#mee1917d9c5" y="440.197603"/>
     <use style="fill:#2792cb;stroke:#2792cb;" x="834.915549" xlink:href="#mee1917d9c5" y="440.197603"/>
     <use style="fill:#2792cb;stroke:#2792cb;" x="840.615243" xlink:href="#mee1917d9c5" y="435.904122"/>
     <use style="fill:#2792cb;stroke:#2792cb;" x="846.314936" xlink:href="#mee1917d9c5" y="415.867875"/>
     <use style="fill:#2792cb;stroke:#2792cb;" x="903.311872" xlink:href="#mee1917d9c5" y="431.61064"/>
     <use style="fill:#2792cb;stroke:#2792cb;" x="909.011565" xlink:href="#mee1917d9c5" y="443.059924"/>
     <use style="fill:#2792cb;stroke:#2792cb;" x="920.410953" xlink:href="#mee1917d9c5" y="445.922245"/>
     <use style="fill:#2792cb;stroke:#2792cb;" x="926.110646" xlink:href="#mee1917d9c5" y="445.922245"/>
     <use style="fill:#2792cb;stroke:#2792cb;" x="943.209727" xlink:href="#mee1917d9c5" y="445.922245"/>
     <use style="fill:#2792cb;stroke:#2792cb;" x="948.90942" xlink:href="#mee1917d9c5" y="453.078047"/>
     <use style="fill:#2792cb;stroke:#2792cb;" x="954.609114" xlink:href="#mee1917d9c5" y="454.509208"/>
     <use style="fill:#2792cb;stroke:#2792cb;" x="960.308807" xlink:href="#mee1917d9c5" y="457.371529"/>
     <use style="fill:#2792cb;stroke:#2792cb;" x="966.008501" xlink:href="#mee1917d9c5" y="454.509208"/>
     <use style="fill:#2792cb;stroke:#2792cb;" x="983.107582" xlink:href="#mee1917d9c5" y="451.646887"/>
     <use style="fill:#2792cb;stroke:#2792cb;" x="988.807275" xlink:href="#mee1917d9c5" y="454.509208"/>
     <use style="fill:#2792cb;stroke:#2792cb;" x="994.506969" xlink:href="#mee1917d9c5" y="454.509208"/>
     <use style="fill:#2792cb;stroke:#2792cb;" x="1000.206662" xlink:href="#mee1917d9c5" y="455.940368"/>
     <use style="fill:#2792cb;stroke:#2792cb;" x="1005.906356" xlink:href="#mee1917d9c5" y="457.371529"/>
     <use style="fill:#2792cb;stroke:#2792cb;" x="1023.005437" xlink:href="#mee1917d9c5" y="457.371529"/>
     <use style="fill:#2792cb;stroke:#2792cb;" x="1028.70513" xlink:href="#mee1917d9c5" y="455.940368"/>
     <use style="fill:#2792cb;stroke:#2792cb;" x="1034.404824" xlink:href="#mee1917d9c5" y="454.509208"/>
     <use style="fill:#2792cb;stroke:#2792cb;" x="1040.104517" xlink:href="#mee1917d9c5" y="458.802689"/>
     <use style="fill:#2792cb;stroke:#2792cb;" x="1045.804211" xlink:href="#mee1917d9c5" y="455.940368"/>
     <use style="fill:#2792cb;stroke:#2792cb;" x="1062.903292" xlink:href="#mee1917d9c5" y="457.371529"/>
     <use style="fill:#2792cb;stroke:#2792cb;" x="1068.602985" xlink:href="#mee1917d9c5" y="460.23385"/>
     <use style="fill:#2792cb;stroke:#2792cb;" x="1074.302679" xlink:href="#mee1917d9c5" y="453.078047"/>
     <use style="fill:#2792cb;stroke:#2792cb;" x="1080.002372" xlink:href="#mee1917d9c5" y="453.078047"/>
     <use style="fill:#2792cb;stroke:#2792cb;" x="1085.702066" xlink:href="#mee1917d9c5" y="457.371529"/>
     <use style="fill:#2792cb;stroke:#2792cb;" x="1102.801147" xlink:href="#mee1917d9c5" y="455.940368"/>
     <use style="fill:#2792cb;stroke:#2792cb;" x="1108.50084" xlink:href="#mee1917d9c5" y="454.509208"/>
     <use style="fill:#2792cb;stroke:#2792cb;" x="1114.200534" xlink:href="#mee1917d9c5" y="454.509208"/>
     <use style="fill:#2792cb;stroke:#2792cb;" x="1119.900227" xlink:href="#mee1917d9c5" y="458.802689"/>
    </g>
   </g>
   <g id="patch_3">
    <path d="M 54.6275 496.8 
L 1170.6275 496.8 
" style="fill:none;stroke:#000000;stroke-linecap:square;stroke-linejoin:miter;stroke-width:0.8;"/>
   </g>
   <g id="legend_1">
    <g id="line2d_17">
     <path d="M 63.6275 20.298437 
L 83.6275 20.298437 
" style="fill:none;stroke:#dbcd00;stroke-linecap:square;stroke-width:2;"/>
    </g>
    <g id="line2d_18">
     <g>
      <use style="fill:#dbcd00;stroke:#dbcd00;" x="73.6275" xlink:href="#mca7f3c660a" y="20.298437"/>
     </g>
    </g>
    <g id="text_12">
     <!-- Genesene -->
     <defs>
      <path d="M 59.515625 10.40625 
L 59.515625 29.984375 
L 43.40625 29.984375 
L 43.40625 38.09375 
L 69.28125 38.09375 
L 69.28125 6.78125 
Q 63.578125 2.734375 56.6875 0.65625 
Q 49.8125 -1.421875 42 -1.421875 
Q 24.90625 -1.421875 15.25 8.5625 
Q 5.609375 18.5625 5.609375 36.375 
Q 5.609375 54.25 15.25 64.234375 
Q 24.90625 74.21875 42 74.21875 
Q 49.125 74.21875 55.546875 72.453125 
Q 61.96875 70.703125 67.390625 67.28125 
L 67.390625 56.78125 
Q 61.921875 61.421875 55.765625 63.765625 
Q 49.609375 66.109375 42.828125 66.109375 
Q 29.4375 66.109375 22.71875 58.640625 
Q 16.015625 51.171875 16.015625 36.375 
Q 16.015625 21.625 22.71875 14.15625 
Q 29.4375 6.6875 42.828125 6.6875 
Q 48.046875 6.6875 52.140625 7.59375 
Q 56.25 8.5 59.515625 10.40625 
z
" id="DejaVuSans-71"/>
      <path d="M 44.28125 53.078125 
L 44.28125 44.578125 
Q 40.484375 46.53125 36.375 47.5 
Q 32.28125 48.484375 27.875 48.484375 
Q 21.1875 48.484375 17.84375 46.4375 
Q 14.5 44.390625 14.5 40.28125 
Q 14.5 37.15625 16.890625 35.375 
Q 19.28125 33.59375 26.515625 31.984375 
L 29.59375 31.296875 
Q 39.15625 29.25 43.1875 25.515625 
Q 47.21875 21.78125 47.21875 15.09375 
Q 47.21875 7.46875 41.1875 3.015625 
Q 35.15625 -1.421875 24.609375 -1.421875 
Q 20.21875 -1.421875 15.453125 -0.5625 
Q 10.6875 0.296875 5.421875 2 
L 5.421875 11.28125 
Q 10.40625 8.6875 15.234375 7.390625 
Q 20.0625 6.109375 24.8125 6.109375 
Q 31.15625 6.109375 34.5625 8.28125 
Q 37.984375 10.453125 37.984375 14.40625 
Q 37.984375 18.0625 35.515625 20.015625 
Q 33.0625 21.96875 24.703125 23.78125 
L 21.578125 24.515625 
Q 13.234375 26.265625 9.515625 29.90625 
Q 5.8125 33.546875 5.8125 39.890625 
Q 5.8125 47.609375 11.28125 51.796875 
Q 16.75 56 26.8125 56 
Q 31.78125 56 36.171875 55.265625 
Q 40.578125 54.546875 44.28125 53.078125 
z
" id="DejaVuSans-115"/>
     </defs>
     <g transform="translate(91.6275 23.798437)scale(0.1 -0.1)">
      <use xlink:href="#DejaVuSans-71"/>
      <use x="77.490234" xlink:href="#DejaVuSans-101"/>
      <use x="139.013672" xlink:href="#DejaVuSans-110"/>
      <use x="202.392578" xlink:href="#DejaVuSans-101"/>
      <use x="263.916016" xlink:href="#DejaVuSans-115"/>
      <use x="316.015625" xlink:href="#DejaVuSans-101"/>
      <use x="377.539062" xlink:href="#DejaVuSans-110"/>
      <use x="440.917969" xlink:href="#DejaVuSans-101"/>
     </g>
    </g>
    <g id="line2d_19">
     <path d="M 63.6275 34.976562 
L 83.6275 34.976562 
" style="fill:none;stroke:#2792cb;stroke-linecap:square;stroke-width:2;"/>
    </g>
    <g id="line2d_20">
     <g>
      <use style="fill:#2792cb;stroke:#2792cb;" x="73.6275" xlink:href="#mee1917d9c5" y="34.976562"/>
     </g>
    </g>
    <g id="text_13">
     <!-- Erkrankte -->
     <defs>
      <path d="M 9.8125 72.90625 
L 55.90625 72.90625 
L 55.90625 64.59375 
L 19.671875 64.59375 
L 19.671875 43.015625 
L 54.390625 43.015625 
L 54.390625 34.71875 
L 19.671875 34.71875 
L 19.671875 8.296875 
L 56.78125 8.296875 
L 56.78125 0 
L 9.8125 0 
z
" id="DejaVuSans-69"/>
      <path d="M 41.109375 46.296875 
Q 39.59375 47.171875 37.8125 47.578125 
Q 36.03125 48 33.890625 48 
Q 26.265625 48 22.1875 43.046875 
Q 18.109375 38.09375 18.109375 28.8125 
L 18.109375 0 
L 9.078125 0 
L 9.078125 54.6875 
L 18.109375 54.6875 
L 18.109375 46.1875 
Q 20.953125 51.171875 25.484375 53.578125 
Q 30.03125 56 36.53125 56 
Q 37.453125 56 38.578125 55.875 
Q 39.703125 55.765625 41.0625 55.515625 
z
" id="DejaVuSans-114"/>
      <path d="M 9.078125 75.984375 
L 18.109375 75.984375 
L 18.109375 31.109375 
L 44.921875 54.6875 
L 56.390625 54.6875 
L 27.390625 29.109375 
L 57.625 0 
L 45.90625 0 
L 18.109375 26.703125 
L 18.109375 0 
L 9.078125 0 
z
" id="DejaVuSans-107"/>
      <path d="M 18.3125 70.21875 
L 18.3125 54.6875 
L 36.8125 54.6875 
L 36.8125 47.703125 
L 18.3125 47.703125 
L 18.3125 18.015625 
Q 18.3125 11.328125 20.140625 9.421875 
Q 21.96875 7.515625 27.59375 7.515625 
L 36.8125 7.515625 
L 36.8125 0 
L 27.59375 0 
Q 17.1875 0 13.234375 3.875 
Q 9.28125 7.765625 9.28125 18.015625 
L 9.28125 47.703125 
L 2.6875 47.703125 
L 2.6875 54.6875 
L 9.28125 54.6875 
L 9.28125 70.21875 
z
" id="DejaVuSans-116"/>
     </defs>
     <g transform="translate(91.6275 38.476562)scale(0.1 -0.1)">
      <use xlink:href="#DejaVuSans-69"/>
      <use x="63.183594" xlink:href="#DejaVuSans-114"/>
      <use x="104.296875" xlink:href="#DejaVuSans-107"/>
      <use x="162.207031" xlink:href="#DejaVuSans-114"/>
      <use x="203.320312" xlink:href="#DejaVuSans-97"/>
      <use x="264.599609" xlink:href="#DejaVuSans-110"/>
      <use x="327.978516" xlink:href="#DejaVuSans-107"/>
      <use x="385.888672" xlink:href="#DejaVuSans-116"/>
      <use x="425.097656" xlink:href="#DejaVuSans-101"/>
     </g>
    </g>
   </g>
  </g>
 </g>
 <defs>
  <clipPath id="p61f309ac4d">
   <rect height="489.6" width="1116" x="54.6275" y="7.2"/>
  </clipPath>
 </defs>
</svg>
