<?xml version="1.0" encoding="utf-8" standalone="no"?>
<!DOCTYPE svg PUBLIC "-//W3C//DTD SVG 1.1//EN"
  "http://www.w3.org/Graphics/SVG/1.1/DTD/svg11.dtd">
<!-- Created with matplotlib (https://matplotlib.org/) -->
<svg height="549.054781pt" version="1.1" viewBox="0 0 1177.8275 549.054781" width="1177.8275pt" xmlns="http://www.w3.org/2000/svg" xmlns:xlink="http://www.w3.org/1999/xlink">
 <defs>
  <style type="text/css">
*{stroke-linecap:butt;stroke-linejoin:round;}
  </style>
 </defs>
 <g id="figure_1">
  <g id="patch_1">
   <path d="M 0 549.054781 
L 1177.8275 549.054781 
L 1177.8275 0 
L 0 0 
z
" style="fill:#ffffff;"/>
  </g>
  <g id="axes_1">
   <g id="patch_2">
    <path d="M 54.6275 496.8 
L 1170.6275 496.8 
L 1170.6275 7.2 
L 54.6275 7.2 
z
" style="fill:#ffffff;"/>
   </g>
   <g id="matplotlib.axis_1">
    <g id="xtick_1">
     <g id="line2d_1">
      <defs>
       <path d="M 0 0 
L 0 3.5 
" id="mdb93d6d53b" style="stroke:#000000;stroke-width:0.8;"/>
      </defs>
      <g>
       <use style="stroke:#000000;stroke-width:0.8;" x="156.94183" xlink:href="#mdb93d6d53b" y="496.8"/>
      </g>
     </g>
     <g id="text_1">
      <!-- 2020-04 -->
      <defs>
       <path d="M 19.1875 8.296875 
L 53.609375 8.296875 
L 53.609375 0 
L 7.328125 0 
L 7.328125 8.296875 
Q 12.9375 14.109375 22.625 23.890625 
Q 32.328125 33.6875 34.8125 36.53125 
Q 39.546875 41.84375 41.421875 45.53125 
Q 43.3125 49.21875 43.3125 52.78125 
Q 43.3125 58.59375 39.234375 62.25 
Q 35.15625 65.921875 28.609375 65.921875 
Q 23.96875 65.921875 18.8125 64.3125 
Q 13.671875 62.703125 7.8125 59.421875 
L 7.8125 69.390625 
Q 13.765625 71.78125 18.9375 73 
Q 24.125 74.21875 28.421875 74.21875 
Q 39.75 74.21875 46.484375 68.546875 
Q 53.21875 62.890625 53.21875 53.421875 
Q 53.21875 48.921875 51.53125 44.890625 
Q 49.859375 40.875 45.40625 35.40625 
Q 44.1875 33.984375 37.640625 27.21875 
Q 31.109375 20.453125 19.1875 8.296875 
z
" id="DejaVuSans-50"/>
       <path d="M 31.78125 66.40625 
Q 24.171875 66.40625 20.328125 58.90625 
Q 16.5 51.421875 16.5 36.375 
Q 16.5 21.390625 20.328125 13.890625 
Q 24.171875 6.390625 31.78125 6.390625 
Q 39.453125 6.390625 43.28125 13.890625 
Q 47.125 21.390625 47.125 36.375 
Q 47.125 51.421875 43.28125 58.90625 
Q 39.453125 66.40625 31.78125 66.40625 
z
M 31.78125 74.21875 
Q 44.046875 74.21875 50.515625 64.515625 
Q 56.984375 54.828125 56.984375 36.375 
Q 56.984375 17.96875 50.515625 8.265625 
Q 44.046875 -1.421875 31.78125 -1.421875 
Q 19.53125 -1.421875 13.0625 8.265625 
Q 6.59375 17.96875 6.59375 36.375 
Q 6.59375 54.828125 13.0625 64.515625 
Q 19.53125 74.21875 31.78125 74.21875 
z
" id="DejaVuSans-48"/>
       <path d="M 4.890625 31.390625 
L 31.203125 31.390625 
L 31.203125 23.390625 
L 4.890625 23.390625 
z
" id="DejaVuSans-45"/>
       <path d="M 37.796875 64.3125 
L 12.890625 25.390625 
L 37.796875 25.390625 
z
M 35.203125 72.90625 
L 47.609375 72.90625 
L 47.609375 25.390625 
L 58.015625 25.390625 
L 58.015625 17.1875 
L 47.609375 17.1875 
L 47.609375 0 
L 37.796875 0 
L 37.796875 17.1875 
L 4.890625 17.1875 
L 4.890625 26.703125 
z
" id="DejaVuSans-52"/>
      </defs>
      <g transform="translate(108.549563 539.5134)rotate(-30)scale(0.13 -0.13)">
       <use xlink:href="#DejaVuSans-50"/>
       <use x="63.623047" xlink:href="#DejaVuSans-48"/>
       <use x="127.246094" xlink:href="#DejaVuSans-50"/>
       <use x="190.869141" xlink:href="#DejaVuSans-48"/>
       <use x="254.492188" xlink:href="#DejaVuSans-45"/>
       <use x="290.576172" xlink:href="#DejaVuSans-48"/>
       <use x="354.199219" xlink:href="#DejaVuSans-52"/>
      </g>
     </g>
    </g>
    <g id="xtick_2">
     <g id="line2d_2">
      <g>
       <use style="stroke:#000000;stroke-width:0.8;" x="328.898686" xlink:href="#mdb93d6d53b" y="496.8"/>
      </g>
     </g>
     <g id="text_2">
      <!-- 2020-05 -->
      <defs>
       <path d="M 10.796875 72.90625 
L 49.515625 72.90625 
L 49.515625 64.59375 
L 19.828125 64.59375 
L 19.828125 46.734375 
Q 21.96875 47.46875 24.109375 47.828125 
Q 26.265625 48.1875 28.421875 48.1875 
Q 40.625 48.1875 47.75 41.5 
Q 54.890625 34.8125 54.890625 23.390625 
Q 54.890625 11.625 47.5625 5.09375 
Q 40.234375 -1.421875 26.90625 -1.421875 
Q 22.3125 -1.421875 17.546875 -0.640625 
Q 12.796875 0.140625 7.71875 1.703125 
L 7.71875 11.625 
Q 12.109375 9.234375 16.796875 8.0625 
Q 21.484375 6.890625 26.703125 6.890625 
Q 35.15625 6.890625 40.078125 11.328125 
Q 45.015625 15.765625 45.015625 23.390625 
Q 45.015625 31 40.078125 35.4375 
Q 35.15625 39.890625 26.703125 39.890625 
Q 22.75 39.890625 18.8125 39.015625 
Q 14.890625 38.140625 10.796875 36.28125 
z
" id="DejaVuSans-53"/>
      </defs>
      <g transform="translate(280.506419 539.5134)rotate(-30)scale(0.13 -0.13)">
       <use xlink:href="#DejaVuSans-50"/>
       <use x="63.623047" xlink:href="#DejaVuSans-48"/>
       <use x="127.246094" xlink:href="#DejaVuSans-50"/>
       <use x="190.869141" xlink:href="#DejaVuSans-48"/>
       <use x="254.492188" xlink:href="#DejaVuSans-45"/>
       <use x="290.576172" xlink:href="#DejaVuSans-48"/>
       <use x="354.199219" xlink:href="#DejaVuSans-53"/>
      </g>
     </g>
    </g>
    <g id="xtick_3">
     <g id="line2d_3">
      <g>
       <use style="stroke:#000000;stroke-width:0.8;" x="506.587438" xlink:href="#mdb93d6d53b" y="496.8"/>
      </g>
     </g>
     <g id="text_3">
      <!-- 2020-06 -->
      <defs>
       <path d="M 33.015625 40.375 
Q 26.375 40.375 22.484375 35.828125 
Q 18.609375 31.296875 18.609375 23.390625 
Q 18.609375 15.53125 22.484375 10.953125 
Q 26.375 6.390625 33.015625 6.390625 
Q 39.65625 6.390625 43.53125 10.953125 
Q 47.40625 15.53125 47.40625 23.390625 
Q 47.40625 31.296875 43.53125 35.828125 
Q 39.65625 40.375 33.015625 40.375 
z
M 52.59375 71.296875 
L 52.59375 62.3125 
Q 48.875 64.0625 45.09375 64.984375 
Q 41.3125 65.921875 37.59375 65.921875 
Q 27.828125 65.921875 22.671875 59.328125 
Q 17.53125 52.734375 16.796875 39.40625 
Q 19.671875 43.65625 24.015625 45.921875 
Q 28.375 48.1875 33.59375 48.1875 
Q 44.578125 48.1875 50.953125 41.515625 
Q 57.328125 34.859375 57.328125 23.390625 
Q 57.328125 12.15625 50.6875 5.359375 
Q 44.046875 -1.421875 33.015625 -1.421875 
Q 20.359375 -1.421875 13.671875 8.265625 
Q 6.984375 17.96875 6.984375 36.375 
Q 6.984375 53.65625 15.1875 63.9375 
Q 23.390625 74.21875 37.203125 74.21875 
Q 40.921875 74.21875 44.703125 73.484375 
Q 48.484375 72.75 52.59375 71.296875 
z
" id="DejaVuSans-54"/>
      </defs>
      <g transform="translate(458.195171 539.5134)rotate(-30)scale(0.13 -0.13)">
       <use xlink:href="#DejaVuSans-50"/>
       <use x="63.623047" xlink:href="#DejaVuSans-48"/>
       <use x="127.246094" xlink:href="#DejaVuSans-50"/>
       <use x="190.869141" xlink:href="#DejaVuSans-48"/>
       <use x="254.492188" xlink:href="#DejaVuSans-45"/>
       <use x="290.576172" xlink:href="#DejaVuSans-48"/>
       <use x="354.199219" xlink:href="#DejaVuSans-54"/>
      </g>
     </g>
    </g>
    <g id="xtick_4">
     <g id="line2d_4">
      <g>
       <use style="stroke:#000000;stroke-width:0.8;" x="678.544295" xlink:href="#mdb93d6d53b" y="496.8"/>
      </g>
     </g>
     <g id="text_4">
      <!-- 2020-07 -->
      <defs>
       <path d="M 8.203125 72.90625 
L 55.078125 72.90625 
L 55.078125 68.703125 
L 28.609375 0 
L 18.3125 0 
L 43.21875 64.59375 
L 8.203125 64.59375 
z
" id="DejaVuSans-55"/>
      </defs>
      <g transform="translate(630.152028 539.5134)rotate(-30)scale(0.13 -0.13)">
       <use xlink:href="#DejaVuSans-50"/>
       <use x="63.623047" xlink:href="#DejaVuSans-48"/>
       <use x="127.246094" xlink:href="#DejaVuSans-50"/>
       <use x="190.869141" xlink:href="#DejaVuSans-48"/>
       <use x="254.492188" xlink:href="#DejaVuSans-45"/>
       <use x="290.576172" xlink:href="#DejaVuSans-48"/>
       <use x="354.199219" xlink:href="#DejaVuSans-55"/>
      </g>
     </g>
    </g>
    <g id="xtick_5">
     <g id="line2d_5">
      <g>
       <use style="stroke:#000000;stroke-width:0.8;" x="856.233047" xlink:href="#mdb93d6d53b" y="496.8"/>
      </g>
     </g>
     <g id="text_5">
      <!-- 2020-08 -->
      <defs>
       <path d="M 31.78125 34.625 
Q 24.75 34.625 20.71875 30.859375 
Q 16.703125 27.09375 16.703125 20.515625 
Q 16.703125 13.921875 20.71875 10.15625 
Q 24.75 6.390625 31.78125 6.390625 
Q 38.8125 6.390625 42.859375 10.171875 
Q 46.921875 13.96875 46.921875 20.515625 
Q 46.921875 27.09375 42.890625 30.859375 
Q 38.875 34.625 31.78125 34.625 
z
M 21.921875 38.8125 
Q 15.578125 40.375 12.03125 44.71875 
Q 8.5 49.078125 8.5 55.328125 
Q 8.5 64.0625 14.71875 69.140625 
Q 20.953125 74.21875 31.78125 74.21875 
Q 42.671875 74.21875 48.875 69.140625 
Q 55.078125 64.0625 55.078125 55.328125 
Q 55.078125 49.078125 51.53125 44.71875 
Q 48 40.375 41.703125 38.8125 
Q 48.828125 37.15625 52.796875 32.3125 
Q 56.78125 27.484375 56.78125 20.515625 
Q 56.78125 9.90625 50.3125 4.234375 
Q 43.84375 -1.421875 31.78125 -1.421875 
Q 19.734375 -1.421875 13.25 4.234375 
Q 6.78125 9.90625 6.78125 20.515625 
Q 6.78125 27.484375 10.78125 32.3125 
Q 14.796875 37.15625 21.921875 38.8125 
z
M 18.3125 54.390625 
Q 18.3125 48.734375 21.84375 45.5625 
Q 25.390625 42.390625 31.78125 42.390625 
Q 38.140625 42.390625 41.71875 45.5625 
Q 45.3125 48.734375 45.3125 54.390625 
Q 45.3125 60.0625 41.71875 63.234375 
Q 38.140625 66.40625 31.78125 66.40625 
Q 25.390625 66.40625 21.84375 63.234375 
Q 18.3125 60.0625 18.3125 54.390625 
z
" id="DejaVuSans-56"/>
      </defs>
      <g transform="translate(807.84078 539.5134)rotate(-30)scale(0.13 -0.13)">
       <use xlink:href="#DejaVuSans-50"/>
       <use x="63.623047" xlink:href="#DejaVuSans-48"/>
       <use x="127.246094" xlink:href="#DejaVuSans-50"/>
       <use x="190.869141" xlink:href="#DejaVuSans-48"/>
       <use x="254.492188" xlink:href="#DejaVuSans-45"/>
       <use x="290.576172" xlink:href="#DejaVuSans-48"/>
       <use x="354.199219" xlink:href="#DejaVuSans-56"/>
      </g>
     </g>
    </g>
    <g id="xtick_6">
     <g id="line2d_6">
      <g>
       <use style="stroke:#000000;stroke-width:0.8;" x="1033.921799" xlink:href="#mdb93d6d53b" y="496.8"/>
      </g>
     </g>
     <g id="text_6">
      <!-- 2020-09 -->
      <defs>
       <path d="M 10.984375 1.515625 
L 10.984375 10.5 
Q 14.703125 8.734375 18.5 7.8125 
Q 22.3125 6.890625 25.984375 6.890625 
Q 35.75 6.890625 40.890625 13.453125 
Q 46.046875 20.015625 46.78125 33.40625 
Q 43.953125 29.203125 39.59375 26.953125 
Q 35.25 24.703125 29.984375 24.703125 
Q 19.046875 24.703125 12.671875 31.3125 
Q 6.296875 37.9375 6.296875 49.421875 
Q 6.296875 60.640625 12.9375 67.421875 
Q 19.578125 74.21875 30.609375 74.21875 
Q 43.265625 74.21875 49.921875 64.515625 
Q 56.59375 54.828125 56.59375 36.375 
Q 56.59375 19.140625 48.40625 8.859375 
Q 40.234375 -1.421875 26.421875 -1.421875 
Q 22.703125 -1.421875 18.890625 -0.6875 
Q 15.09375 0.046875 10.984375 1.515625 
z
M 30.609375 32.421875 
Q 37.25 32.421875 41.125 36.953125 
Q 45.015625 41.5 45.015625 49.421875 
Q 45.015625 57.28125 41.125 61.84375 
Q 37.25 66.40625 30.609375 66.40625 
Q 23.96875 66.40625 20.09375 61.84375 
Q 16.21875 57.28125 16.21875 49.421875 
Q 16.21875 41.5 20.09375 36.953125 
Q 23.96875 32.421875 30.609375 32.421875 
z
" id="DejaVuSans-57"/>
      </defs>
      <g transform="translate(985.529532 539.5134)rotate(-30)scale(0.13 -0.13)">
       <use xlink:href="#DejaVuSans-50"/>
       <use x="63.623047" xlink:href="#DejaVuSans-48"/>
       <use x="127.246094" xlink:href="#DejaVuSans-50"/>
       <use x="190.869141" xlink:href="#DejaVuSans-48"/>
       <use x="254.492188" xlink:href="#DejaVuSans-45"/>
       <use x="290.576172" xlink:href="#DejaVuSans-48"/>
       <use x="354.199219" xlink:href="#DejaVuSans-57"/>
      </g>
     </g>
    </g>
   </g>
   <g id="matplotlib.axis_2">
    <g id="ytick_1">
     <g id="line2d_7">
      <path clip-path="url(#p0bf806e15b)" d="M 54.6275 473.060168 
L 1170.6275 473.060168 
" style="fill:none;stroke:#b0b0b0;stroke-linecap:square;stroke-width:0.8;"/>
     </g>
     <g id="line2d_8">
      <defs>
       <path d="M 0 0 
L -3.5 0 
" id="m082578e340" style="stroke:#000000;stroke-width:0.8;"/>
      </defs>
      <g>
       <use style="stroke:#000000;stroke-width:0.8;" x="54.6275" xlink:href="#m082578e340" y="473.060168"/>
      </g>
     </g>
     <g id="text_7">
      <!-- 0 -->
      <g transform="translate(39.35625 477.999152)scale(0.13 -0.13)">
       <use xlink:href="#DejaVuSans-48"/>
      </g>
     </g>
    </g>
    <g id="ytick_2">
     <g id="line2d_9">
      <path clip-path="url(#p0bf806e15b)" d="M 54.6275 423.550612 
L 1170.6275 423.550612 
" style="fill:none;stroke:#b0b0b0;stroke-linecap:square;stroke-width:0.8;"/>
     </g>
     <g id="line2d_10">
      <g>
       <use style="stroke:#000000;stroke-width:0.8;" x="54.6275" xlink:href="#m082578e340" y="423.550612"/>
      </g>
     </g>
     <g id="text_8">
      <!-- 100 -->
      <defs>
       <path d="M 12.40625 8.296875 
L 28.515625 8.296875 
L 28.515625 63.921875 
L 10.984375 60.40625 
L 10.984375 69.390625 
L 28.421875 72.90625 
L 38.28125 72.90625 
L 38.28125 8.296875 
L 54.390625 8.296875 
L 54.390625 0 
L 12.40625 0 
z
" id="DejaVuSans-49"/>
      </defs>
      <g transform="translate(22.81375 428.489596)scale(0.13 -0.13)">
       <use xlink:href="#DejaVuSans-49"/>
       <use x="63.623047" xlink:href="#DejaVuSans-48"/>
       <use x="127.246094" xlink:href="#DejaVuSans-48"/>
      </g>
     </g>
    </g>
    <g id="ytick_3">
     <g id="line2d_11">
      <path clip-path="url(#p0bf806e15b)" d="M 54.6275 374.041056 
L 1170.6275 374.041056 
" style="fill:none;stroke:#b0b0b0;stroke-linecap:square;stroke-width:0.8;"/>
     </g>
     <g id="line2d_12">
      <g>
       <use style="stroke:#000000;stroke-width:0.8;" x="54.6275" xlink:href="#m082578e340" y="374.041056"/>
      </g>
     </g>
     <g id="text_9">
      <!-- 200 -->
      <g transform="translate(22.81375 378.98004)scale(0.13 -0.13)">
       <use xlink:href="#DejaVuSans-50"/>
       <use x="63.623047" xlink:href="#DejaVuSans-48"/>
       <use x="127.246094" xlink:href="#DejaVuSans-48"/>
      </g>
     </g>
    </g>
    <g id="ytick_4">
     <g id="line2d_13">
      <path clip-path="url(#p0bf806e15b)" d="M 54.6275 324.5315 
L 1170.6275 324.5315 
" style="fill:none;stroke:#b0b0b0;stroke-linecap:square;stroke-width:0.8;"/>
     </g>
     <g id="line2d_14">
      <g>
       <use style="stroke:#000000;stroke-width:0.8;" x="54.6275" xlink:href="#m082578e340" y="324.5315"/>
      </g>
     </g>
     <g id="text_10">
      <!-- 300 -->
      <defs>
       <path d="M 40.578125 39.3125 
Q 47.65625 37.796875 51.625 33 
Q 55.609375 28.21875 55.609375 21.1875 
Q 55.609375 10.40625 48.1875 4.484375 
Q 40.765625 -1.421875 27.09375 -1.421875 
Q 22.515625 -1.421875 17.65625 -0.515625 
Q 12.796875 0.390625 7.625 2.203125 
L 7.625 11.71875 
Q 11.71875 9.328125 16.59375 8.109375 
Q 21.484375 6.890625 26.8125 6.890625 
Q 36.078125 6.890625 40.9375 10.546875 
Q 45.796875 14.203125 45.796875 21.1875 
Q 45.796875 27.640625 41.28125 31.265625 
Q 36.765625 34.90625 28.71875 34.90625 
L 20.21875 34.90625 
L 20.21875 43.015625 
L 29.109375 43.015625 
Q 36.375 43.015625 40.234375 45.921875 
Q 44.09375 48.828125 44.09375 54.296875 
Q 44.09375 59.90625 40.109375 62.90625 
Q 36.140625 65.921875 28.71875 65.921875 
Q 24.65625 65.921875 20.015625 65.03125 
Q 15.375 64.15625 9.8125 62.3125 
L 9.8125 71.09375 
Q 15.4375 72.65625 20.34375 73.4375 
Q 25.25 74.21875 29.59375 74.21875 
Q 40.828125 74.21875 47.359375 69.109375 
Q 53.90625 64.015625 53.90625 55.328125 
Q 53.90625 49.265625 50.4375 45.09375 
Q 46.96875 40.921875 40.578125 39.3125 
z
" id="DejaVuSans-51"/>
      </defs>
      <g transform="translate(22.81375 329.470484)scale(0.13 -0.13)">
       <use xlink:href="#DejaVuSans-51"/>
       <use x="63.623047" xlink:href="#DejaVuSans-48"/>
       <use x="127.246094" xlink:href="#DejaVuSans-48"/>
      </g>
     </g>
    </g>
    <g id="ytick_5">
     <g id="line2d_15">
      <path clip-path="url(#p0bf806e15b)" d="M 54.6275 275.021944 
L 1170.6275 275.021944 
" style="fill:none;stroke:#b0b0b0;stroke-linecap:square;stroke-width:0.8;"/>
     </g>
     <g id="line2d_16">
      <g>
       <use style="stroke:#000000;stroke-width:0.8;" x="54.6275" xlink:href="#m082578e340" y="275.021944"/>
      </g>
     </g>
     <g id="text_11">
      <!-- 400 -->
      <g transform="translate(22.81375 279.960928)scale(0.13 -0.13)">
       <use xlink:href="#DejaVuSans-52"/>
       <use x="63.623047" xlink:href="#DejaVuSans-48"/>
       <use x="127.246094" xlink:href="#DejaVuSans-48"/>
      </g>
     </g>
    </g>
    <g id="ytick_6">
     <g id="line2d_17">
      <path clip-path="url(#p0bf806e15b)" d="M 54.6275 225.512388 
L 1170.6275 225.512388 
" style="fill:none;stroke:#b0b0b0;stroke-linecap:square;stroke-width:0.8;"/>
     </g>
     <g id="line2d_18">
      <g>
       <use style="stroke:#000000;stroke-width:0.8;" x="54.6275" xlink:href="#m082578e340" y="225.512388"/>
      </g>
     </g>
     <g id="text_12">
      <!-- 500 -->
      <g transform="translate(22.81375 230.451372)scale(0.13 -0.13)">
       <use xlink:href="#DejaVuSans-53"/>
       <use x="63.623047" xlink:href="#DejaVuSans-48"/>
       <use x="127.246094" xlink:href="#DejaVuSans-48"/>
      </g>
     </g>
    </g>
    <g id="ytick_7">
     <g id="line2d_19">
      <path clip-path="url(#p0bf806e15b)" d="M 54.6275 176.002831 
L 1170.6275 176.002831 
" style="fill:none;stroke:#b0b0b0;stroke-linecap:square;stroke-width:0.8;"/>
     </g>
     <g id="line2d_20">
      <g>
       <use style="stroke:#000000;stroke-width:0.8;" x="54.6275" xlink:href="#m082578e340" y="176.002831"/>
      </g>
     </g>
     <g id="text_13">
      <!-- 600 -->
      <g transform="translate(22.81375 180.941816)scale(0.13 -0.13)">
       <use xlink:href="#DejaVuSans-54"/>
       <use x="63.623047" xlink:href="#DejaVuSans-48"/>
       <use x="127.246094" xlink:href="#DejaVuSans-48"/>
      </g>
     </g>
    </g>
    <g id="ytick_8">
     <g id="line2d_21">
      <path clip-path="url(#p0bf806e15b)" d="M 54.6275 126.493275 
L 1170.6275 126.493275 
" style="fill:none;stroke:#b0b0b0;stroke-linecap:square;stroke-width:0.8;"/>
     </g>
     <g id="line2d_22">
      <g>
       <use style="stroke:#000000;stroke-width:0.8;" x="54.6275" xlink:href="#m082578e340" y="126.493275"/>
      </g>
     </g>
     <g id="text_14">
      <!-- 700 -->
      <g transform="translate(22.81375 131.43226)scale(0.13 -0.13)">
       <use xlink:href="#DejaVuSans-55"/>
       <use x="63.623047" xlink:href="#DejaVuSans-48"/>
       <use x="127.246094" xlink:href="#DejaVuSans-48"/>
      </g>
     </g>
    </g>
    <g id="ytick_9">
     <g id="line2d_23">
      <path clip-path="url(#p0bf806e15b)" d="M 54.6275 76.983719 
L 1170.6275 76.983719 
" style="fill:none;stroke:#b0b0b0;stroke-linecap:square;stroke-width:0.8;"/>
     </g>
     <g id="line2d_24">
      <g>
       <use style="stroke:#000000;stroke-width:0.8;" x="54.6275" xlink:href="#m082578e340" y="76.983719"/>
      </g>
     </g>
     <g id="text_15">
      <!-- 800 -->
      <g transform="translate(22.81375 81.922704)scale(0.13 -0.13)">
       <use xlink:href="#DejaVuSans-56"/>
       <use x="63.623047" xlink:href="#DejaVuSans-48"/>
       <use x="127.246094" xlink:href="#DejaVuSans-48"/>
      </g>
     </g>
    </g>
    <g id="ytick_10">
     <g id="line2d_25">
      <path clip-path="url(#p0bf806e15b)" d="M 54.6275 27.474163 
L 1170.6275 27.474163 
" style="fill:none;stroke:#b0b0b0;stroke-linecap:square;stroke-width:0.8;"/>
     </g>
     <g id="line2d_26">
      <g>
       <use style="stroke:#000000;stroke-width:0.8;" x="54.6275" xlink:href="#m082578e340" y="27.474163"/>
      </g>
     </g>
     <g id="text_16">
      <!-- 900 -->
      <g transform="translate(22.81375 32.413148)scale(0.13 -0.13)">
       <use xlink:href="#DejaVuSans-57"/>
       <use x="63.623047" xlink:href="#DejaVuSans-48"/>
       <use x="127.246094" xlink:href="#DejaVuSans-48"/>
      </g>
     </g>
    </g>
    <g id="text_17">
     <!-- Anzahl von Fällen -->
     <defs>
      <path d="M 34.1875 63.1875 
L 20.796875 26.90625 
L 47.609375 26.90625 
z
M 28.609375 72.90625 
L 39.796875 72.90625 
L 67.578125 0 
L 57.328125 0 
L 50.6875 18.703125 
L 17.828125 18.703125 
L 11.1875 0 
L 0.78125 0 
z
" id="DejaVuSans-65"/>
      <path d="M 54.890625 33.015625 
L 54.890625 0 
L 45.90625 0 
L 45.90625 32.71875 
Q 45.90625 40.484375 42.875 44.328125 
Q 39.84375 48.1875 33.796875 48.1875 
Q 26.515625 48.1875 22.3125 43.546875 
Q 18.109375 38.921875 18.109375 30.90625 
L 18.109375 0 
L 9.078125 0 
L 9.078125 54.6875 
L 18.109375 54.6875 
L 18.109375 46.1875 
Q 21.34375 51.125 25.703125 53.5625 
Q 30.078125 56 35.796875 56 
Q 45.21875 56 50.046875 50.171875 
Q 54.890625 44.34375 54.890625 33.015625 
z
" id="DejaVuSans-110"/>
      <path d="M 5.515625 54.6875 
L 48.1875 54.6875 
L 48.1875 46.484375 
L 14.40625 7.171875 
L 48.1875 7.171875 
L 48.1875 0 
L 4.296875 0 
L 4.296875 8.203125 
L 38.09375 47.515625 
L 5.515625 47.515625 
z
" id="DejaVuSans-122"/>
      <path d="M 34.28125 27.484375 
Q 23.390625 27.484375 19.1875 25 
Q 14.984375 22.515625 14.984375 16.5 
Q 14.984375 11.71875 18.140625 8.90625 
Q 21.296875 6.109375 26.703125 6.109375 
Q 34.1875 6.109375 38.703125 11.40625 
Q 43.21875 16.703125 43.21875 25.484375 
L 43.21875 27.484375 
z
M 52.203125 31.203125 
L 52.203125 0 
L 43.21875 0 
L 43.21875 8.296875 
Q 40.140625 3.328125 35.546875 0.953125 
Q 30.953125 -1.421875 24.3125 -1.421875 
Q 15.921875 -1.421875 10.953125 3.296875 
Q 6 8.015625 6 15.921875 
Q 6 25.140625 12.171875 29.828125 
Q 18.359375 34.515625 30.609375 34.515625 
L 43.21875 34.515625 
L 43.21875 35.40625 
Q 43.21875 41.609375 39.140625 45 
Q 35.0625 48.390625 27.6875 48.390625 
Q 23 48.390625 18.546875 47.265625 
Q 14.109375 46.140625 10.015625 43.890625 
L 10.015625 52.203125 
Q 14.9375 54.109375 19.578125 55.046875 
Q 24.21875 56 28.609375 56 
Q 40.484375 56 46.34375 49.84375 
Q 52.203125 43.703125 52.203125 31.203125 
z
" id="DejaVuSans-97"/>
      <path d="M 54.890625 33.015625 
L 54.890625 0 
L 45.90625 0 
L 45.90625 32.71875 
Q 45.90625 40.484375 42.875 44.328125 
Q 39.84375 48.1875 33.796875 48.1875 
Q 26.515625 48.1875 22.3125 43.546875 
Q 18.109375 38.921875 18.109375 30.90625 
L 18.109375 0 
L 9.078125 0 
L 9.078125 75.984375 
L 18.109375 75.984375 
L 18.109375 46.1875 
Q 21.34375 51.125 25.703125 53.5625 
Q 30.078125 56 35.796875 56 
Q 45.21875 56 50.046875 50.171875 
Q 54.890625 44.34375 54.890625 33.015625 
z
" id="DejaVuSans-104"/>
      <path d="M 9.421875 75.984375 
L 18.40625 75.984375 
L 18.40625 0 
L 9.421875 0 
z
" id="DejaVuSans-108"/>
      <path id="DejaVuSans-32"/>
      <path d="M 2.984375 54.6875 
L 12.5 54.6875 
L 29.59375 8.796875 
L 46.6875 54.6875 
L 56.203125 54.6875 
L 35.6875 0 
L 23.484375 0 
z
" id="DejaVuSans-118"/>
      <path d="M 30.609375 48.390625 
Q 23.390625 48.390625 19.1875 42.75 
Q 14.984375 37.109375 14.984375 27.296875 
Q 14.984375 17.484375 19.15625 11.84375 
Q 23.34375 6.203125 30.609375 6.203125 
Q 37.796875 6.203125 41.984375 11.859375 
Q 46.1875 17.53125 46.1875 27.296875 
Q 46.1875 37.015625 41.984375 42.703125 
Q 37.796875 48.390625 30.609375 48.390625 
z
M 30.609375 56 
Q 42.328125 56 49.015625 48.375 
Q 55.71875 40.765625 55.71875 27.296875 
Q 55.71875 13.875 49.015625 6.21875 
Q 42.328125 -1.421875 30.609375 -1.421875 
Q 18.84375 -1.421875 12.171875 6.21875 
Q 5.515625 13.875 5.515625 27.296875 
Q 5.515625 40.765625 12.171875 48.375 
Q 18.84375 56 30.609375 56 
z
" id="DejaVuSans-111"/>
      <path d="M 9.8125 72.90625 
L 51.703125 72.90625 
L 51.703125 64.59375 
L 19.671875 64.59375 
L 19.671875 43.109375 
L 48.578125 43.109375 
L 48.578125 34.8125 
L 19.671875 34.8125 
L 19.671875 0 
L 9.8125 0 
z
" id="DejaVuSans-70"/>
      <path d="M 34.28125 27.484375 
Q 23.390625 27.484375 19.1875 25 
Q 14.984375 22.515625 14.984375 16.5 
Q 14.984375 11.71875 18.140625 8.90625 
Q 21.296875 6.109375 26.703125 6.109375 
Q 34.1875 6.109375 38.703125 11.40625 
Q 43.21875 16.703125 43.21875 25.484375 
L 43.21875 27.484375 
z
M 52.203125 31.203125 
L 52.203125 0 
L 43.21875 0 
L 43.21875 8.296875 
Q 40.140625 3.328125 35.546875 0.953125 
Q 30.953125 -1.421875 24.3125 -1.421875 
Q 15.921875 -1.421875 10.953125 3.296875 
Q 6 8.015625 6 15.921875 
Q 6 25.140625 12.171875 29.828125 
Q 18.359375 34.515625 30.609375 34.515625 
L 43.21875 34.515625 
L 43.21875 35.40625 
Q 43.21875 41.609375 39.140625 45 
Q 35.0625 48.390625 27.6875 48.390625 
Q 23 48.390625 18.546875 47.265625 
Q 14.109375 46.140625 10.015625 43.890625 
L 10.015625 52.203125 
Q 14.9375 54.109375 19.578125 55.046875 
Q 24.21875 56 28.609375 56 
Q 40.484375 56 46.34375 49.84375 
Q 52.203125 43.703125 52.203125 31.203125 
z
M 33.59375 75.78125 
L 43.5 75.78125 
L 43.5 65.921875 
L 33.59375 65.921875 
z
M 14.5 75.78125 
L 24.40625 75.78125 
L 24.40625 65.921875 
L 14.5 65.921875 
z
" id="DejaVuSans-228"/>
      <path d="M 56.203125 29.59375 
L 56.203125 25.203125 
L 14.890625 25.203125 
Q 15.484375 15.921875 20.484375 11.0625 
Q 25.484375 6.203125 34.421875 6.203125 
Q 39.59375 6.203125 44.453125 7.46875 
Q 49.3125 8.734375 54.109375 11.28125 
L 54.109375 2.78125 
Q 49.265625 0.734375 44.1875 -0.34375 
Q 39.109375 -1.421875 33.890625 -1.421875 
Q 20.796875 -1.421875 13.15625 6.1875 
Q 5.515625 13.8125 5.515625 26.8125 
Q 5.515625 40.234375 12.765625 48.109375 
Q 20.015625 56 32.328125 56 
Q 43.359375 56 49.78125 48.890625 
Q 56.203125 41.796875 56.203125 29.59375 
z
M 47.21875 32.234375 
Q 47.125 39.59375 43.09375 43.984375 
Q 39.0625 48.390625 32.421875 48.390625 
Q 24.90625 48.390625 20.390625 44.140625 
Q 15.875 39.890625 15.1875 32.171875 
z
" id="DejaVuSans-101"/>
     </defs>
     <g transform="translate(16.318125 304.449375)rotate(-90)scale(0.12 -0.12)">
      <use xlink:href="#DejaVuSans-65"/>
      <use x="68.408203" xlink:href="#DejaVuSans-110"/>
      <use x="131.787109" xlink:href="#DejaVuSans-122"/>
      <use x="184.277344" xlink:href="#DejaVuSans-97"/>
      <use x="245.556641" xlink:href="#DejaVuSans-104"/>
      <use x="308.935547" xlink:href="#DejaVuSans-108"/>
      <use x="336.71875" xlink:href="#DejaVuSans-32"/>
      <use x="368.505859" xlink:href="#DejaVuSans-118"/>
      <use x="427.685547" xlink:href="#DejaVuSans-111"/>
      <use x="488.867188" xlink:href="#DejaVuSans-110"/>
      <use x="552.246094" xlink:href="#DejaVuSans-32"/>
      <use x="584.033203" xlink:href="#DejaVuSans-70"/>
      <use x="632.427734" xlink:href="#DejaVuSans-228"/>
      <use x="693.707031" xlink:href="#DejaVuSans-108"/>
      <use x="721.490234" xlink:href="#DejaVuSans-108"/>
      <use x="749.273438" xlink:href="#DejaVuSans-101"/>
      <use x="810.796875" xlink:href="#DejaVuSans-110"/>
     </g>
    </g>
   </g>
   <g id="line2d_27">
    <path clip-path="url(#p0bf806e15b)" d="M 105.354773 462.663161 
L 111.086668 461.177874 
L 122.550458 461.177874 
L 128.282354 455.236728 
L 134.014249 450.285772 
L 139.746144 450.285772 
L 145.478039 446.820103 
L 151.209935 435.432905 
L 156.94183 428.006472 
L 162.673725 419.094752 
L 168.40562 409.687936 
L 174.137515 403.746789 
L 179.869411 403.746789 
L 185.601306 400.776216 
L 191.333201 385.923349 
L 197.065096 375.031247 
L 202.796992 368.595005 
L 208.528887 366.119527 
L 219.992677 366.119527 
L 231.456468 350.771564 
L 237.188363 349.286278 
L 242.920258 315.124684 
L 248.652153 315.124684 
L 254.384049 307.203155 
L 265.847839 307.698251 
L 271.579734 303.737486 
L 277.311629 292.350288 
L 283.043525 290.369906 
L 288.77542 287.399333 
L 294.507315 275.517039 
L 305.971106 274.031752 
L 311.703001 274.031752 
L 317.434896 267.59551 
L 323.166791 263.634746 
L 334.630582 263.13965 
L 346.094372 263.13965 
L 351.826267 262.149459 
L 357.558163 257.693599 
L 363.290058 254.22793 
L 369.021953 250.267166 
L 374.753848 250.267166 
L 386.217639 247.791688 
L 391.949534 246.801497 
L 397.681429 243.335828 
L 403.413324 241.355445 
L 409.14522 238.879968 
L 414.877115 237.889777 
L 426.340905 226.007483 
L 432.0728 225.017292 
L 437.804696 219.076145 
L 449.268486 214.12519 
L 466.464172 214.12519 
L 472.196067 128.968753 
L 483.659857 86.88563 
L 489.391753 84.410153 
L 512.319334 82.42977 
L 518.051229 72.032764 
L 523.783124 70.547477 
L 529.515019 63.616139 
L 535.246914 61.140661 
L 552.4426 61.140661 
L 569.638286 59.655375 
L 586.833971 59.655375 
L 598.297762 56.189706 
L 615.493448 56.189706 
L 626.957238 55.69461 
L 632.689133 55.69461 
L 638.421029 55.199515 
L 644.152924 55.199515 
L 655.616714 54.704419 
L 667.080505 54.704419 
L 678.544295 53.714228 
L 684.27619 52.724037 
L 690.008086 52.228941 
L 753.058933 52.228941 
L 758.790828 51.23875 
L 764.522723 51.23875 
L 770.254619 50.248559 
L 793.1822 50.248559 
L 798.914095 48.763272 
L 804.64599 48.268177 
L 810.377885 47.277986 
L 844.769257 47.277986 
L 850.501152 46.78289 
L 890.624418 46.78289 
L 919.283894 44.307412 
L 930.747685 44.307412 
L 947.943371 42.32703 
L 953.675266 42.32703 
L 959.407161 41.336839 
L 965.139056 41.336839 
L 970.870951 40.841743 
L 988.066637 39.851552 
L 993.798532 38.366266 
L 1005.262323 38.366266 
L 1010.994218 37.376074 
L 1028.189904 37.376074 
L 1033.921799 36.880979 
L 1039.653694 35.890788 
L 1051.117485 34.900597 
L 1068.31317 33.910406 
L 1074.045065 32.920214 
L 1079.776961 32.920214 
L 1091.240751 31.930023 
L 1108.436437 31.434928 
L 1114.168332 29.949641 
L 1119.900227 29.454545 
L 1119.900227 29.454545 
" style="fill:none;stroke:#dbcd00;stroke-linecap:square;stroke-width:2;"/>
    <defs>
     <path d="M 0 1.5 
C 0.397805 1.5 0.77937 1.341951 1.06066 1.06066 
C 1.341951 0.77937 1.5 0.397805 1.5 0 
C 1.5 -0.397805 1.341951 -0.77937 1.06066 -1.06066 
C 0.77937 -1.341951 0.397805 -1.5 0 -1.5 
C -0.397805 -1.5 -0.77937 -1.341951 -1.06066 -1.06066 
C -1.341951 -0.77937 -1.5 -0.397805 -1.5 0 
C -1.5 0.397805 -1.341951 0.77937 -1.06066 1.06066 
C -0.77937 1.341951 -0.397805 1.5 0 1.5 
z
" id="mc648910679" style="stroke:#dbcd00;"/>
    </defs>
    <g clip-path="url(#p0bf806e15b)">
     <use style="fill:#dbcd00;stroke:#dbcd00;" x="105.354773" xlink:href="#mc648910679" y="462.663161"/>
     <use style="fill:#dbcd00;stroke:#dbcd00;" x="111.086668" xlink:href="#mc648910679" y="461.177874"/>
     <use style="fill:#dbcd00;stroke:#dbcd00;" x="116.818563" xlink:href="#mc648910679" y="461.177874"/>
     <use style="fill:#dbcd00;stroke:#dbcd00;" x="122.550458" xlink:href="#mc648910679" y="461.177874"/>
     <use style="fill:#dbcd00;stroke:#dbcd00;" x="128.282354" xlink:href="#mc648910679" y="455.236728"/>
     <use style="fill:#dbcd00;stroke:#dbcd00;" x="134.014249" xlink:href="#mc648910679" y="450.285772"/>
     <use style="fill:#dbcd00;stroke:#dbcd00;" x="139.746144" xlink:href="#mc648910679" y="450.285772"/>
     <use style="fill:#dbcd00;stroke:#dbcd00;" x="145.478039" xlink:href="#mc648910679" y="446.820103"/>
     <use style="fill:#dbcd00;stroke:#dbcd00;" x="151.209935" xlink:href="#mc648910679" y="435.432905"/>
     <use style="fill:#dbcd00;stroke:#dbcd00;" x="156.94183" xlink:href="#mc648910679" y="428.006472"/>
     <use style="fill:#dbcd00;stroke:#dbcd00;" x="162.673725" xlink:href="#mc648910679" y="419.094752"/>
     <use style="fill:#dbcd00;stroke:#dbcd00;" x="168.40562" xlink:href="#mc648910679" y="409.687936"/>
     <use style="fill:#dbcd00;stroke:#dbcd00;" x="174.137515" xlink:href="#mc648910679" y="403.746789"/>
     <use style="fill:#dbcd00;stroke:#dbcd00;" x="179.869411" xlink:href="#mc648910679" y="403.746789"/>
     <use style="fill:#dbcd00;stroke:#dbcd00;" x="185.601306" xlink:href="#mc648910679" y="400.776216"/>
     <use style="fill:#dbcd00;stroke:#dbcd00;" x="191.333201" xlink:href="#mc648910679" y="385.923349"/>
     <use style="fill:#dbcd00;stroke:#dbcd00;" x="197.065096" xlink:href="#mc648910679" y="375.031247"/>
     <use style="fill:#dbcd00;stroke:#dbcd00;" x="202.796992" xlink:href="#mc648910679" y="368.595005"/>
     <use style="fill:#dbcd00;stroke:#dbcd00;" x="208.528887" xlink:href="#mc648910679" y="366.119527"/>
     <use style="fill:#dbcd00;stroke:#dbcd00;" x="219.992677" xlink:href="#mc648910679" y="366.119527"/>
     <use style="fill:#dbcd00;stroke:#dbcd00;" x="231.456468" xlink:href="#mc648910679" y="350.771564"/>
     <use style="fill:#dbcd00;stroke:#dbcd00;" x="237.188363" xlink:href="#mc648910679" y="349.286278"/>
     <use style="fill:#dbcd00;stroke:#dbcd00;" x="242.920258" xlink:href="#mc648910679" y="315.124684"/>
     <use style="fill:#dbcd00;stroke:#dbcd00;" x="248.652153" xlink:href="#mc648910679" y="315.124684"/>
     <use style="fill:#dbcd00;stroke:#dbcd00;" x="254.384049" xlink:href="#mc648910679" y="307.203155"/>
     <use style="fill:#dbcd00;stroke:#dbcd00;" x="265.847839" xlink:href="#mc648910679" y="307.698251"/>
     <use style="fill:#dbcd00;stroke:#dbcd00;" x="271.579734" xlink:href="#mc648910679" y="303.737486"/>
     <use style="fill:#dbcd00;stroke:#dbcd00;" x="277.311629" xlink:href="#mc648910679" y="292.350288"/>
     <use style="fill:#dbcd00;stroke:#dbcd00;" x="283.043525" xlink:href="#mc648910679" y="290.369906"/>
     <use style="fill:#dbcd00;stroke:#dbcd00;" x="288.77542" xlink:href="#mc648910679" y="287.399333"/>
     <use style="fill:#dbcd00;stroke:#dbcd00;" x="294.507315" xlink:href="#mc648910679" y="275.517039"/>
     <use style="fill:#dbcd00;stroke:#dbcd00;" x="305.971106" xlink:href="#mc648910679" y="274.031752"/>
     <use style="fill:#dbcd00;stroke:#dbcd00;" x="311.703001" xlink:href="#mc648910679" y="274.031752"/>
     <use style="fill:#dbcd00;stroke:#dbcd00;" x="317.434896" xlink:href="#mc648910679" y="267.59551"/>
     <use style="fill:#dbcd00;stroke:#dbcd00;" x="323.166791" xlink:href="#mc648910679" y="263.634746"/>
     <use style="fill:#dbcd00;stroke:#dbcd00;" x="334.630582" xlink:href="#mc648910679" y="263.13965"/>
     <use style="fill:#dbcd00;stroke:#dbcd00;" x="346.094372" xlink:href="#mc648910679" y="263.13965"/>
     <use style="fill:#dbcd00;stroke:#dbcd00;" x="351.826267" xlink:href="#mc648910679" y="262.149459"/>
     <use style="fill:#dbcd00;stroke:#dbcd00;" x="357.558163" xlink:href="#mc648910679" y="257.693599"/>
     <use style="fill:#dbcd00;stroke:#dbcd00;" x="363.290058" xlink:href="#mc648910679" y="254.22793"/>
     <use style="fill:#dbcd00;stroke:#dbcd00;" x="369.021953" xlink:href="#mc648910679" y="250.267166"/>
     <use style="fill:#dbcd00;stroke:#dbcd00;" x="374.753848" xlink:href="#mc648910679" y="250.267166"/>
     <use style="fill:#dbcd00;stroke:#dbcd00;" x="386.217639" xlink:href="#mc648910679" y="247.791688"/>
     <use style="fill:#dbcd00;stroke:#dbcd00;" x="391.949534" xlink:href="#mc648910679" y="246.801497"/>
     <use style="fill:#dbcd00;stroke:#dbcd00;" x="397.681429" xlink:href="#mc648910679" y="243.335828"/>
     <use style="fill:#dbcd00;stroke:#dbcd00;" x="403.413324" xlink:href="#mc648910679" y="241.355445"/>
     <use style="fill:#dbcd00;stroke:#dbcd00;" x="409.14522" xlink:href="#mc648910679" y="238.879968"/>
     <use style="fill:#dbcd00;stroke:#dbcd00;" x="414.877115" xlink:href="#mc648910679" y="237.889777"/>
     <use style="fill:#dbcd00;stroke:#dbcd00;" x="426.340905" xlink:href="#mc648910679" y="226.007483"/>
     <use style="fill:#dbcd00;stroke:#dbcd00;" x="432.0728" xlink:href="#mc648910679" y="225.017292"/>
     <use style="fill:#dbcd00;stroke:#dbcd00;" x="437.804696" xlink:href="#mc648910679" y="219.076145"/>
     <use style="fill:#dbcd00;stroke:#dbcd00;" x="449.268486" xlink:href="#mc648910679" y="214.12519"/>
     <use style="fill:#dbcd00;stroke:#dbcd00;" x="455.000381" xlink:href="#mc648910679" y="214.12519"/>
     <use style="fill:#dbcd00;stroke:#dbcd00;" x="466.464172" xlink:href="#mc648910679" y="214.12519"/>
     <use style="fill:#dbcd00;stroke:#dbcd00;" x="472.196067" xlink:href="#mc648910679" y="128.968753"/>
     <use style="fill:#dbcd00;stroke:#dbcd00;" x="483.659857" xlink:href="#mc648910679" y="86.88563"/>
     <use style="fill:#dbcd00;stroke:#dbcd00;" x="489.391753" xlink:href="#mc648910679" y="84.410153"/>
     <use style="fill:#dbcd00;stroke:#dbcd00;" x="512.319334" xlink:href="#mc648910679" y="82.42977"/>
     <use style="fill:#dbcd00;stroke:#dbcd00;" x="518.051229" xlink:href="#mc648910679" y="72.032764"/>
     <use style="fill:#dbcd00;stroke:#dbcd00;" x="523.783124" xlink:href="#mc648910679" y="70.547477"/>
     <use style="fill:#dbcd00;stroke:#dbcd00;" x="529.515019" xlink:href="#mc648910679" y="63.616139"/>
     <use style="fill:#dbcd00;stroke:#dbcd00;" x="535.246914" xlink:href="#mc648910679" y="61.140661"/>
     <use style="fill:#dbcd00;stroke:#dbcd00;" x="546.710705" xlink:href="#mc648910679" y="61.140661"/>
     <use style="fill:#dbcd00;stroke:#dbcd00;" x="552.4426" xlink:href="#mc648910679" y="61.140661"/>
     <use style="fill:#dbcd00;stroke:#dbcd00;" x="558.174495" xlink:href="#mc648910679" y="60.645566"/>
     <use style="fill:#dbcd00;stroke:#dbcd00;" x="569.638286" xlink:href="#mc648910679" y="59.655375"/>
     <use style="fill:#dbcd00;stroke:#dbcd00;" x="575.370181" xlink:href="#mc648910679" y="59.655375"/>
     <use style="fill:#dbcd00;stroke:#dbcd00;" x="586.833971" xlink:href="#mc648910679" y="59.655375"/>
     <use style="fill:#dbcd00;stroke:#dbcd00;" x="598.297762" xlink:href="#mc648910679" y="56.189706"/>
     <use style="fill:#dbcd00;stroke:#dbcd00;" x="609.761552" xlink:href="#mc648910679" y="56.189706"/>
     <use style="fill:#dbcd00;stroke:#dbcd00;" x="615.493448" xlink:href="#mc648910679" y="56.189706"/>
     <use style="fill:#dbcd00;stroke:#dbcd00;" x="626.957238" xlink:href="#mc648910679" y="55.69461"/>
     <use style="fill:#dbcd00;stroke:#dbcd00;" x="632.689133" xlink:href="#mc648910679" y="55.69461"/>
     <use style="fill:#dbcd00;stroke:#dbcd00;" x="638.421029" xlink:href="#mc648910679" y="55.199515"/>
     <use style="fill:#dbcd00;stroke:#dbcd00;" x="644.152924" xlink:href="#mc648910679" y="55.199515"/>
     <use style="fill:#dbcd00;stroke:#dbcd00;" x="655.616714" xlink:href="#mc648910679" y="54.704419"/>
     <use style="fill:#dbcd00;stroke:#dbcd00;" x="667.080505" xlink:href="#mc648910679" y="54.704419"/>
     <use style="fill:#dbcd00;stroke:#dbcd00;" x="672.8124" xlink:href="#mc648910679" y="54.209323"/>
     <use style="fill:#dbcd00;stroke:#dbcd00;" x="678.544295" xlink:href="#mc648910679" y="53.714228"/>
     <use style="fill:#dbcd00;stroke:#dbcd00;" x="684.27619" xlink:href="#mc648910679" y="52.724037"/>
     <use style="fill:#dbcd00;stroke:#dbcd00;" x="690.008086" xlink:href="#mc648910679" y="52.228941"/>
     <use style="fill:#dbcd00;stroke:#dbcd00;" x="695.739981" xlink:href="#mc648910679" y="52.228941"/>
     <use style="fill:#dbcd00;stroke:#dbcd00;" x="712.935666" xlink:href="#mc648910679" y="52.228941"/>
     <use style="fill:#dbcd00;stroke:#dbcd00;" x="718.667562" xlink:href="#mc648910679" y="52.228941"/>
     <use style="fill:#dbcd00;stroke:#dbcd00;" x="724.399457" xlink:href="#mc648910679" y="52.228941"/>
     <use style="fill:#dbcd00;stroke:#dbcd00;" x="730.131352" xlink:href="#mc648910679" y="52.228941"/>
     <use style="fill:#dbcd00;stroke:#dbcd00;" x="747.327038" xlink:href="#mc648910679" y="52.228941"/>
     <use style="fill:#dbcd00;stroke:#dbcd00;" x="753.058933" xlink:href="#mc648910679" y="52.228941"/>
     <use style="fill:#dbcd00;stroke:#dbcd00;" x="758.790828" xlink:href="#mc648910679" y="51.23875"/>
     <use style="fill:#dbcd00;stroke:#dbcd00;" x="764.522723" xlink:href="#mc648910679" y="51.23875"/>
     <use style="fill:#dbcd00;stroke:#dbcd00;" x="770.254619" xlink:href="#mc648910679" y="50.248559"/>
     <use style="fill:#dbcd00;stroke:#dbcd00;" x="787.450304" xlink:href="#mc648910679" y="50.248559"/>
     <use style="fill:#dbcd00;stroke:#dbcd00;" x="793.1822" xlink:href="#mc648910679" y="50.248559"/>
     <use style="fill:#dbcd00;stroke:#dbcd00;" x="798.914095" xlink:href="#mc648910679" y="48.763272"/>
     <use style="fill:#dbcd00;stroke:#dbcd00;" x="804.64599" xlink:href="#mc648910679" y="48.268177"/>
     <use style="fill:#dbcd00;stroke:#dbcd00;" x="810.377885" xlink:href="#mc648910679" y="47.277986"/>
     <use style="fill:#dbcd00;stroke:#dbcd00;" x="827.573571" xlink:href="#mc648910679" y="47.277986"/>
     <use style="fill:#dbcd00;stroke:#dbcd00;" x="833.305466" xlink:href="#mc648910679" y="47.277986"/>
     <use style="fill:#dbcd00;stroke:#dbcd00;" x="839.037361" xlink:href="#mc648910679" y="47.277986"/>
     <use style="fill:#dbcd00;stroke:#dbcd00;" x="844.769257" xlink:href="#mc648910679" y="47.277986"/>
     <use style="fill:#dbcd00;stroke:#dbcd00;" x="850.501152" xlink:href="#mc648910679" y="46.78289"/>
     <use style="fill:#dbcd00;stroke:#dbcd00;" x="867.696837" xlink:href="#mc648910679" y="46.78289"/>
     <use style="fill:#dbcd00;stroke:#dbcd00;" x="873.428733" xlink:href="#mc648910679" y="46.78289"/>
     <use style="fill:#dbcd00;stroke:#dbcd00;" x="879.160628" xlink:href="#mc648910679" y="46.78289"/>
     <use style="fill:#dbcd00;stroke:#dbcd00;" x="884.892523" xlink:href="#mc648910679" y="46.78289"/>
     <use style="fill:#dbcd00;stroke:#dbcd00;" x="890.624418" xlink:href="#mc648910679" y="46.78289"/>
     <use style="fill:#dbcd00;stroke:#dbcd00;" x="907.820104" xlink:href="#mc648910679" y="45.297603"/>
     <use style="fill:#dbcd00;stroke:#dbcd00;" x="913.551999" xlink:href="#mc648910679" y="44.802508"/>
     <use style="fill:#dbcd00;stroke:#dbcd00;" x="919.283894" xlink:href="#mc648910679" y="44.307412"/>
     <use style="fill:#dbcd00;stroke:#dbcd00;" x="925.01579" xlink:href="#mc648910679" y="44.307412"/>
     <use style="fill:#dbcd00;stroke:#dbcd00;" x="930.747685" xlink:href="#mc648910679" y="44.307412"/>
     <use style="fill:#dbcd00;stroke:#dbcd00;" x="947.943371" xlink:href="#mc648910679" y="42.32703"/>
     <use style="fill:#dbcd00;stroke:#dbcd00;" x="953.675266" xlink:href="#mc648910679" y="42.32703"/>
     <use style="fill:#dbcd00;stroke:#dbcd00;" x="959.407161" xlink:href="#mc648910679" y="41.336839"/>
     <use style="fill:#dbcd00;stroke:#dbcd00;" x="965.139056" xlink:href="#mc648910679" y="41.336839"/>
     <use style="fill:#dbcd00;stroke:#dbcd00;" x="970.870951" xlink:href="#mc648910679" y="40.841743"/>
     <use style="fill:#dbcd00;stroke:#dbcd00;" x="988.066637" xlink:href="#mc648910679" y="39.851552"/>
     <use style="fill:#dbcd00;stroke:#dbcd00;" x="993.798532" xlink:href="#mc648910679" y="38.366266"/>
     <use style="fill:#dbcd00;stroke:#dbcd00;" x="999.530428" xlink:href="#mc648910679" y="38.366266"/>
     <use style="fill:#dbcd00;stroke:#dbcd00;" x="1005.262323" xlink:href="#mc648910679" y="38.366266"/>
     <use style="fill:#dbcd00;stroke:#dbcd00;" x="1010.994218" xlink:href="#mc648910679" y="37.376074"/>
     <use style="fill:#dbcd00;stroke:#dbcd00;" x="1028.189904" xlink:href="#mc648910679" y="37.376074"/>
     <use style="fill:#dbcd00;stroke:#dbcd00;" x="1033.921799" xlink:href="#mc648910679" y="36.880979"/>
     <use style="fill:#dbcd00;stroke:#dbcd00;" x="1039.653694" xlink:href="#mc648910679" y="35.890788"/>
     <use style="fill:#dbcd00;stroke:#dbcd00;" x="1045.385589" xlink:href="#mc648910679" y="35.395692"/>
     <use style="fill:#dbcd00;stroke:#dbcd00;" x="1051.117485" xlink:href="#mc648910679" y="34.900597"/>
     <use style="fill:#dbcd00;stroke:#dbcd00;" x="1068.31317" xlink:href="#mc648910679" y="33.910406"/>
     <use style="fill:#dbcd00;stroke:#dbcd00;" x="1074.045065" xlink:href="#mc648910679" y="32.920214"/>
     <use style="fill:#dbcd00;stroke:#dbcd00;" x="1079.776961" xlink:href="#mc648910679" y="32.920214"/>
     <use style="fill:#dbcd00;stroke:#dbcd00;" x="1085.508856" xlink:href="#mc648910679" y="32.425119"/>
     <use style="fill:#dbcd00;stroke:#dbcd00;" x="1091.240751" xlink:href="#mc648910679" y="31.930023"/>
     <use style="fill:#dbcd00;stroke:#dbcd00;" x="1108.436437" xlink:href="#mc648910679" y="31.434928"/>
     <use style="fill:#dbcd00;stroke:#dbcd00;" x="1114.168332" xlink:href="#mc648910679" y="29.949641"/>
     <use style="fill:#dbcd00;stroke:#dbcd00;" x="1119.900227" xlink:href="#mc648910679" y="29.454545"/>
    </g>
   </g>
   <g id="line2d_28">
    <path clip-path="url(#p0bf806e15b)" d="M 105.354773 401.271312 
L 111.086668 394.835069 
L 122.550458 370.080291 
L 134.014249 351.26666 
L 139.746144 346.315704 
L 145.478039 347.305895 
L 151.209935 346.8108 
L 156.94183 343.345131 
L 162.673725 345.325513 
L 168.40562 353.247042 
L 174.137515 349.781373 
L 179.869411 347.305895 
L 185.601306 345.820609 
L 191.333201 358.197998 
L 197.065096 362.158762 
L 202.796992 365.624431 
L 208.528887 362.158762 
L 219.992677 360.673476 
L 231.456468 374.536151 
L 237.188363 374.536151 
L 242.920258 407.707554 
L 248.652153 403.251694 
L 254.384049 409.687936 
L 265.847839 411.668318 
L 271.579734 414.638892 
L 277.311629 426.521185 
L 283.043525 427.511376 
L 288.77542 428.996663 
L 294.507315 438.403479 
L 305.971106 439.888765 
L 311.703001 435.928001 
L 317.434896 440.878956 
L 323.166791 443.84953 
L 334.630582 437.908383 
L 346.094372 426.521185 
L 351.826267 424.540803 
L 357.558163 411.668318 
L 363.290058 412.658509 
L 369.021953 394.835069 
L 374.753848 368.099909 
L 386.217639 337.403984 
L 391.949534 325.026595 
L 397.681429 316.609971 
L 403.413324 311.659015 
L 409.14522 317.105066 
L 414.877115 315.61978 
L 426.340905 322.551117 
L 432.0728 324.5315 
L 437.804696 324.5315 
L 449.268486 325.026595 
L 455.000381 320.570735 
L 466.464172 319.085448 
L 472.196067 404.241885 
L 483.659857 445.334816 
L 489.391753 447.810294 
L 512.319334 449.295581 
L 518.051229 459.692588 
L 523.783124 461.177874 
L 529.515019 468.109212 
L 535.246914 470.58469 
L 546.710705 470.58469 
L 552.4426 469.594499 
L 558.174495 470.089594 
L 569.638286 469.594499 
L 575.370181 469.099403 
L 586.833971 469.099403 
L 598.297762 471.574881 
L 609.761552 471.079786 
L 615.493448 470.58469 
L 626.957238 471.079786 
L 632.689133 471.079786 
L 638.421029 471.574881 
L 644.152924 471.574881 
L 655.616714 472.069977 
L 667.080505 472.069977 
L 672.8124 472.565072 
L 678.544295 472.565072 
L 684.27619 474.050359 
L 690.008086 473.555263 
L 695.739981 472.069977 
L 712.935666 471.079786 
L 724.399457 471.079786 
L 730.131352 470.089594 
L 753.058933 470.089594 
L 758.790828 471.079786 
L 764.522723 471.079786 
L 770.254619 472.069977 
L 787.450304 471.574881 
L 793.1822 471.574881 
L 798.914095 473.060168 
L 804.64599 473.555263 
L 810.377885 474.545455 
L 827.573571 474.050359 
L 839.037361 473.060168 
L 844.769257 471.574881 
L 850.501152 471.079786 
L 873.428733 471.079786 
L 879.160628 470.58469 
L 890.624418 470.58469 
L 907.820104 471.574881 
L 913.551999 470.089594 
L 925.01579 470.089594 
L 930.747685 468.604308 
L 947.943371 470.089594 
L 953.675266 469.594499 
L 959.407161 470.58469 
L 965.139056 470.089594 
L 970.870951 470.58469 
L 993.798532 470.58469 
L 999.530428 470.089594 
L 1005.262323 470.089594 
L 1010.994218 470.58469 
L 1028.189904 469.594499 
L 1051.117485 471.574881 
L 1068.31317 470.58469 
L 1074.045065 471.574881 
L 1079.776961 468.604308 
L 1091.240751 469.594499 
L 1108.436437 469.099403 
L 1114.168332 468.109212 
L 1119.900227 468.109212 
L 1119.900227 468.109212 
" style="fill:none;stroke:#2792cb;stroke-linecap:square;stroke-width:2;"/>
    <defs>
     <path d="M 0 1.5 
C 0.397805 1.5 0.77937 1.341951 1.06066 1.06066 
C 1.341951 0.77937 1.5 0.397805 1.5 0 
C 1.5 -0.397805 1.341951 -0.77937 1.06066 -1.06066 
C 0.77937 -1.341951 0.397805 -1.5 0 -1.5 
C -0.397805 -1.5 -0.77937 -1.341951 -1.06066 -1.06066 
C -1.341951 -0.77937 -1.5 -0.397805 -1.5 0 
C -1.5 0.397805 -1.341951 0.77937 -1.06066 1.06066 
C -0.77937 1.341951 -0.397805 1.5 0 1.5 
z
" id="md4b2a9993d" style="stroke:#2792cb;"/>
    </defs>
    <g clip-path="url(#p0bf806e15b)">
     <use style="fill:#2792cb;stroke:#2792cb;" x="105.354773" xlink:href="#md4b2a9993d" y="401.271312"/>
     <use style="fill:#2792cb;stroke:#2792cb;" x="111.086668" xlink:href="#md4b2a9993d" y="394.835069"/>
     <use style="fill:#2792cb;stroke:#2792cb;" x="116.818563" xlink:href="#md4b2a9993d" y="382.45768"/>
     <use style="fill:#2792cb;stroke:#2792cb;" x="122.550458" xlink:href="#md4b2a9993d" y="370.080291"/>
     <use style="fill:#2792cb;stroke:#2792cb;" x="128.282354" xlink:href="#md4b2a9993d" y="360.673476"/>
     <use style="fill:#2792cb;stroke:#2792cb;" x="134.014249" xlink:href="#md4b2a9993d" y="351.26666"/>
     <use style="fill:#2792cb;stroke:#2792cb;" x="139.746144" xlink:href="#md4b2a9993d" y="346.315704"/>
     <use style="fill:#2792cb;stroke:#2792cb;" x="145.478039" xlink:href="#md4b2a9993d" y="347.305895"/>
     <use style="fill:#2792cb;stroke:#2792cb;" x="151.209935" xlink:href="#md4b2a9993d" y="346.8108"/>
     <use style="fill:#2792cb;stroke:#2792cb;" x="156.94183" xlink:href="#md4b2a9993d" y="343.345131"/>
     <use style="fill:#2792cb;stroke:#2792cb;" x="162.673725" xlink:href="#md4b2a9993d" y="345.325513"/>
     <use style="fill:#2792cb;stroke:#2792cb;" x="168.40562" xlink:href="#md4b2a9993d" y="353.247042"/>
     <use style="fill:#2792cb;stroke:#2792cb;" x="174.137515" xlink:href="#md4b2a9993d" y="349.781373"/>
     <use style="fill:#2792cb;stroke:#2792cb;" x="179.869411" xlink:href="#md4b2a9993d" y="347.305895"/>
     <use style="fill:#2792cb;stroke:#2792cb;" x="185.601306" xlink:href="#md4b2a9993d" y="345.820609"/>
     <use style="fill:#2792cb;stroke:#2792cb;" x="191.333201" xlink:href="#md4b2a9993d" y="358.197998"/>
     <use style="fill:#2792cb;stroke:#2792cb;" x="197.065096" xlink:href="#md4b2a9993d" y="362.158762"/>
     <use style="fill:#2792cb;stroke:#2792cb;" x="202.796992" xlink:href="#md4b2a9993d" y="365.624431"/>
     <use style="fill:#2792cb;stroke:#2792cb;" x="208.528887" xlink:href="#md4b2a9993d" y="362.158762"/>
     <use style="fill:#2792cb;stroke:#2792cb;" x="219.992677" xlink:href="#md4b2a9993d" y="360.673476"/>
     <use style="fill:#2792cb;stroke:#2792cb;" x="231.456468" xlink:href="#md4b2a9993d" y="374.536151"/>
     <use style="fill:#2792cb;stroke:#2792cb;" x="237.188363" xlink:href="#md4b2a9993d" y="374.536151"/>
     <use style="fill:#2792cb;stroke:#2792cb;" x="242.920258" xlink:href="#md4b2a9993d" y="407.707554"/>
     <use style="fill:#2792cb;stroke:#2792cb;" x="248.652153" xlink:href="#md4b2a9993d" y="403.251694"/>
     <use style="fill:#2792cb;stroke:#2792cb;" x="254.384049" xlink:href="#md4b2a9993d" y="409.687936"/>
     <use style="fill:#2792cb;stroke:#2792cb;" x="265.847839" xlink:href="#md4b2a9993d" y="411.668318"/>
     <use style="fill:#2792cb;stroke:#2792cb;" x="271.579734" xlink:href="#md4b2a9993d" y="414.638892"/>
     <use style="fill:#2792cb;stroke:#2792cb;" x="277.311629" xlink:href="#md4b2a9993d" y="426.521185"/>
     <use style="fill:#2792cb;stroke:#2792cb;" x="283.043525" xlink:href="#md4b2a9993d" y="427.511376"/>
     <use style="fill:#2792cb;stroke:#2792cb;" x="288.77542" xlink:href="#md4b2a9993d" y="428.996663"/>
     <use style="fill:#2792cb;stroke:#2792cb;" x="294.507315" xlink:href="#md4b2a9993d" y="438.403479"/>
     <use style="fill:#2792cb;stroke:#2792cb;" x="305.971106" xlink:href="#md4b2a9993d" y="439.888765"/>
     <use style="fill:#2792cb;stroke:#2792cb;" x="311.703001" xlink:href="#md4b2a9993d" y="435.928001"/>
     <use style="fill:#2792cb;stroke:#2792cb;" x="317.434896" xlink:href="#md4b2a9993d" y="440.878956"/>
     <use style="fill:#2792cb;stroke:#2792cb;" x="323.166791" xlink:href="#md4b2a9993d" y="443.84953"/>
     <use style="fill:#2792cb;stroke:#2792cb;" x="334.630582" xlink:href="#md4b2a9993d" y="437.908383"/>
     <use style="fill:#2792cb;stroke:#2792cb;" x="346.094372" xlink:href="#md4b2a9993d" y="426.521185"/>
     <use style="fill:#2792cb;stroke:#2792cb;" x="351.826267" xlink:href="#md4b2a9993d" y="424.540803"/>
     <use style="fill:#2792cb;stroke:#2792cb;" x="357.558163" xlink:href="#md4b2a9993d" y="411.668318"/>
     <use style="fill:#2792cb;stroke:#2792cb;" x="363.290058" xlink:href="#md4b2a9993d" y="412.658509"/>
     <use style="fill:#2792cb;stroke:#2792cb;" x="369.021953" xlink:href="#md4b2a9993d" y="394.835069"/>
     <use style="fill:#2792cb;stroke:#2792cb;" x="374.753848" xlink:href="#md4b2a9993d" y="368.099909"/>
     <use style="fill:#2792cb;stroke:#2792cb;" x="386.217639" xlink:href="#md4b2a9993d" y="337.403984"/>
     <use style="fill:#2792cb;stroke:#2792cb;" x="391.949534" xlink:href="#md4b2a9993d" y="325.026595"/>
     <use style="fill:#2792cb;stroke:#2792cb;" x="397.681429" xlink:href="#md4b2a9993d" y="316.609971"/>
     <use style="fill:#2792cb;stroke:#2792cb;" x="403.413324" xlink:href="#md4b2a9993d" y="311.659015"/>
     <use style="fill:#2792cb;stroke:#2792cb;" x="409.14522" xlink:href="#md4b2a9993d" y="317.105066"/>
     <use style="fill:#2792cb;stroke:#2792cb;" x="414.877115" xlink:href="#md4b2a9993d" y="315.61978"/>
     <use style="fill:#2792cb;stroke:#2792cb;" x="426.340905" xlink:href="#md4b2a9993d" y="322.551117"/>
     <use style="fill:#2792cb;stroke:#2792cb;" x="432.0728" xlink:href="#md4b2a9993d" y="324.5315"/>
     <use style="fill:#2792cb;stroke:#2792cb;" x="437.804696" xlink:href="#md4b2a9993d" y="324.5315"/>
     <use style="fill:#2792cb;stroke:#2792cb;" x="449.268486" xlink:href="#md4b2a9993d" y="325.026595"/>
     <use style="fill:#2792cb;stroke:#2792cb;" x="455.000381" xlink:href="#md4b2a9993d" y="320.570735"/>
     <use style="fill:#2792cb;stroke:#2792cb;" x="466.464172" xlink:href="#md4b2a9993d" y="319.085448"/>
     <use style="fill:#2792cb;stroke:#2792cb;" x="472.196067" xlink:href="#md4b2a9993d" y="404.241885"/>
     <use style="fill:#2792cb;stroke:#2792cb;" x="483.659857" xlink:href="#md4b2a9993d" y="445.334816"/>
     <use style="fill:#2792cb;stroke:#2792cb;" x="489.391753" xlink:href="#md4b2a9993d" y="447.810294"/>
     <use style="fill:#2792cb;stroke:#2792cb;" x="512.319334" xlink:href="#md4b2a9993d" y="449.295581"/>
     <use style="fill:#2792cb;stroke:#2792cb;" x="518.051229" xlink:href="#md4b2a9993d" y="459.692588"/>
     <use style="fill:#2792cb;stroke:#2792cb;" x="523.783124" xlink:href="#md4b2a9993d" y="461.177874"/>
     <use style="fill:#2792cb;stroke:#2792cb;" x="529.515019" xlink:href="#md4b2a9993d" y="468.109212"/>
     <use style="fill:#2792cb;stroke:#2792cb;" x="535.246914" xlink:href="#md4b2a9993d" y="470.58469"/>
     <use style="fill:#2792cb;stroke:#2792cb;" x="546.710705" xlink:href="#md4b2a9993d" y="470.58469"/>
     <use style="fill:#2792cb;stroke:#2792cb;" x="552.4426" xlink:href="#md4b2a9993d" y="469.594499"/>
     <use style="fill:#2792cb;stroke:#2792cb;" x="558.174495" xlink:href="#md4b2a9993d" y="470.089594"/>
     <use style="fill:#2792cb;stroke:#2792cb;" x="569.638286" xlink:href="#md4b2a9993d" y="469.594499"/>
     <use style="fill:#2792cb;stroke:#2792cb;" x="575.370181" xlink:href="#md4b2a9993d" y="469.099403"/>
     <use style="fill:#2792cb;stroke:#2792cb;" x="586.833971" xlink:href="#md4b2a9993d" y="469.099403"/>
     <use style="fill:#2792cb;stroke:#2792cb;" x="598.297762" xlink:href="#md4b2a9993d" y="471.574881"/>
     <use style="fill:#2792cb;stroke:#2792cb;" x="609.761552" xlink:href="#md4b2a9993d" y="471.079786"/>
     <use style="fill:#2792cb;stroke:#2792cb;" x="615.493448" xlink:href="#md4b2a9993d" y="470.58469"/>
     <use style="fill:#2792cb;stroke:#2792cb;" x="626.957238" xlink:href="#md4b2a9993d" y="471.079786"/>
     <use style="fill:#2792cb;stroke:#2792cb;" x="632.689133" xlink:href="#md4b2a9993d" y="471.079786"/>
     <use style="fill:#2792cb;stroke:#2792cb;" x="638.421029" xlink:href="#md4b2a9993d" y="471.574881"/>
     <use style="fill:#2792cb;stroke:#2792cb;" x="644.152924" xlink:href="#md4b2a9993d" y="471.574881"/>
     <use style="fill:#2792cb;stroke:#2792cb;" x="655.616714" xlink:href="#md4b2a9993d" y="472.069977"/>
     <use style="fill:#2792cb;stroke:#2792cb;" x="667.080505" xlink:href="#md4b2a9993d" y="472.069977"/>
     <use style="fill:#2792cb;stroke:#2792cb;" x="672.8124" xlink:href="#md4b2a9993d" y="472.565072"/>
     <use style="fill:#2792cb;stroke:#2792cb;" x="678.544295" xlink:href="#md4b2a9993d" y="472.565072"/>
     <use style="fill:#2792cb;stroke:#2792cb;" x="684.27619" xlink:href="#md4b2a9993d" y="474.050359"/>
     <use style="fill:#2792cb;stroke:#2792cb;" x="690.008086" xlink:href="#md4b2a9993d" y="473.555263"/>
     <use style="fill:#2792cb;stroke:#2792cb;" x="695.739981" xlink:href="#md4b2a9993d" y="472.069977"/>
     <use style="fill:#2792cb;stroke:#2792cb;" x="712.935666" xlink:href="#md4b2a9993d" y="471.079786"/>
     <use style="fill:#2792cb;stroke:#2792cb;" x="718.667562" xlink:href="#md4b2a9993d" y="471.079786"/>
     <use style="fill:#2792cb;stroke:#2792cb;" x="724.399457" xlink:href="#md4b2a9993d" y="471.079786"/>
     <use style="fill:#2792cb;stroke:#2792cb;" x="730.131352" xlink:href="#md4b2a9993d" y="470.089594"/>
     <use style="fill:#2792cb;stroke:#2792cb;" x="747.327038" xlink:href="#md4b2a9993d" y="470.089594"/>
     <use style="fill:#2792cb;stroke:#2792cb;" x="753.058933" xlink:href="#md4b2a9993d" y="470.089594"/>
     <use style="fill:#2792cb;stroke:#2792cb;" x="758.790828" xlink:href="#md4b2a9993d" y="471.079786"/>
     <use style="fill:#2792cb;stroke:#2792cb;" x="764.522723" xlink:href="#md4b2a9993d" y="471.079786"/>
     <use style="fill:#2792cb;stroke:#2792cb;" x="770.254619" xlink:href="#md4b2a9993d" y="472.069977"/>
     <use style="fill:#2792cb;stroke:#2792cb;" x="787.450304" xlink:href="#md4b2a9993d" y="471.574881"/>
     <use style="fill:#2792cb;stroke:#2792cb;" x="793.1822" xlink:href="#md4b2a9993d" y="471.574881"/>
     <use style="fill:#2792cb;stroke:#2792cb;" x="798.914095" xlink:href="#md4b2a9993d" y="473.060168"/>
     <use style="fill:#2792cb;stroke:#2792cb;" x="804.64599" xlink:href="#md4b2a9993d" y="473.555263"/>
     <use style="fill:#2792cb;stroke:#2792cb;" x="810.377885" xlink:href="#md4b2a9993d" y="474.545455"/>
     <use style="fill:#2792cb;stroke:#2792cb;" x="827.573571" xlink:href="#md4b2a9993d" y="474.050359"/>
     <use style="fill:#2792cb;stroke:#2792cb;" x="833.305466" xlink:href="#md4b2a9993d" y="473.555263"/>
     <use style="fill:#2792cb;stroke:#2792cb;" x="839.037361" xlink:href="#md4b2a9993d" y="473.060168"/>
     <use style="fill:#2792cb;stroke:#2792cb;" x="844.769257" xlink:href="#md4b2a9993d" y="471.574881"/>
     <use style="fill:#2792cb;stroke:#2792cb;" x="850.501152" xlink:href="#md4b2a9993d" y="471.079786"/>
     <use style="fill:#2792cb;stroke:#2792cb;" x="867.696837" xlink:href="#md4b2a9993d" y="471.079786"/>
     <use style="fill:#2792cb;stroke:#2792cb;" x="873.428733" xlink:href="#md4b2a9993d" y="471.079786"/>
     <use style="fill:#2792cb;stroke:#2792cb;" x="879.160628" xlink:href="#md4b2a9993d" y="470.58469"/>
     <use style="fill:#2792cb;stroke:#2792cb;" x="884.892523" xlink:href="#md4b2a9993d" y="470.58469"/>
     <use style="fill:#2792cb;stroke:#2792cb;" x="890.624418" xlink:href="#md4b2a9993d" y="470.58469"/>
     <use style="fill:#2792cb;stroke:#2792cb;" x="907.820104" xlink:href="#md4b2a9993d" y="471.574881"/>
     <use style="fill:#2792cb;stroke:#2792cb;" x="913.551999" xlink:href="#md4b2a9993d" y="470.089594"/>
     <use style="fill:#2792cb;stroke:#2792cb;" x="919.283894" xlink:href="#md4b2a9993d" y="470.089594"/>
     <use style="fill:#2792cb;stroke:#2792cb;" x="925.01579" xlink:href="#md4b2a9993d" y="470.089594"/>
     <use style="fill:#2792cb;stroke:#2792cb;" x="930.747685" xlink:href="#md4b2a9993d" y="468.604308"/>
     <use style="fill:#2792cb;stroke:#2792cb;" x="947.943371" xlink:href="#md4b2a9993d" y="470.089594"/>
     <use style="fill:#2792cb;stroke:#2792cb;" x="953.675266" xlink:href="#md4b2a9993d" y="469.594499"/>
     <use style="fill:#2792cb;stroke:#2792cb;" x="959.407161" xlink:href="#md4b2a9993d" y="470.58469"/>
     <use style="fill:#2792cb;stroke:#2792cb;" x="965.139056" xlink:href="#md4b2a9993d" y="470.089594"/>
     <use style="fill:#2792cb;stroke:#2792cb;" x="970.870951" xlink:href="#md4b2a9993d" y="470.58469"/>
     <use style="fill:#2792cb;stroke:#2792cb;" x="988.066637" xlink:href="#md4b2a9993d" y="470.58469"/>
     <use style="fill:#2792cb;stroke:#2792cb;" x="993.798532" xlink:href="#md4b2a9993d" y="470.58469"/>
     <use style="fill:#2792cb;stroke:#2792cb;" x="999.530428" xlink:href="#md4b2a9993d" y="470.089594"/>
     <use style="fill:#2792cb;stroke:#2792cb;" x="1005.262323" xlink:href="#md4b2a9993d" y="470.089594"/>
     <use style="fill:#2792cb;stroke:#2792cb;" x="1010.994218" xlink:href="#md4b2a9993d" y="470.58469"/>
     <use style="fill:#2792cb;stroke:#2792cb;" x="1028.189904" xlink:href="#md4b2a9993d" y="469.594499"/>
     <use style="fill:#2792cb;stroke:#2792cb;" x="1033.921799" xlink:href="#md4b2a9993d" y="470.089594"/>
     <use style="fill:#2792cb;stroke:#2792cb;" x="1039.653694" xlink:href="#md4b2a9993d" y="470.58469"/>
     <use style="fill:#2792cb;stroke:#2792cb;" x="1045.385589" xlink:href="#md4b2a9993d" y="471.079786"/>
     <use style="fill:#2792cb;stroke:#2792cb;" x="1051.117485" xlink:href="#md4b2a9993d" y="471.574881"/>
     <use style="fill:#2792cb;stroke:#2792cb;" x="1068.31317" xlink:href="#md4b2a9993d" y="470.58469"/>
     <use style="fill:#2792cb;stroke:#2792cb;" x="1074.045065" xlink:href="#md4b2a9993d" y="471.574881"/>
     <use style="fill:#2792cb;stroke:#2792cb;" x="1079.776961" xlink:href="#md4b2a9993d" y="468.604308"/>
     <use style="fill:#2792cb;stroke:#2792cb;" x="1085.508856" xlink:href="#md4b2a9993d" y="469.099403"/>
     <use style="fill:#2792cb;stroke:#2792cb;" x="1091.240751" xlink:href="#md4b2a9993d" y="469.594499"/>
     <use style="fill:#2792cb;stroke:#2792cb;" x="1108.436437" xlink:href="#md4b2a9993d" y="469.099403"/>
     <use style="fill:#2792cb;stroke:#2792cb;" x="1114.168332" xlink:href="#md4b2a9993d" y="468.109212"/>
     <use style="fill:#2792cb;stroke:#2792cb;" x="1119.900227" xlink:href="#md4b2a9993d" y="468.109212"/>
    </g>
   </g>
   <g id="patch_3">
    <path d="M 54.6275 496.8 
L 1170.6275 496.8 
" style="fill:none;stroke:#000000;stroke-linecap:square;stroke-linejoin:miter;stroke-width:0.8;"/>
   </g>
   <g id="legend_1">
    <g id="line2d_29">
     <path d="M 63.6275 20.298437 
L 83.6275 20.298437 
" style="fill:none;stroke:#dbcd00;stroke-linecap:square;stroke-width:2;"/>
    </g>
    <g id="line2d_30">
     <g>
      <use style="fill:#dbcd00;stroke:#dbcd00;" x="73.6275" xlink:href="#mc648910679" y="20.298437"/>
     </g>
    </g>
    <g id="text_18">
     <!-- Genesene -->
     <defs>
      <path d="M 59.515625 10.40625 
L 59.515625 29.984375 
L 43.40625 29.984375 
L 43.40625 38.09375 
L 69.28125 38.09375 
L 69.28125 6.78125 
Q 63.578125 2.734375 56.6875 0.65625 
Q 49.8125 -1.421875 42 -1.421875 
Q 24.90625 -1.421875 15.25 8.5625 
Q 5.609375 18.5625 5.609375 36.375 
Q 5.609375 54.25 15.25 64.234375 
Q 24.90625 74.21875 42 74.21875 
Q 49.125 74.21875 55.546875 72.453125 
Q 61.96875 70.703125 67.390625 67.28125 
L 67.390625 56.78125 
Q 61.921875 61.421875 55.765625 63.765625 
Q 49.609375 66.109375 42.828125 66.109375 
Q 29.4375 66.109375 22.71875 58.640625 
Q 16.015625 51.171875 16.015625 36.375 
Q 16.015625 21.625 22.71875 14.15625 
Q 29.4375 6.6875 42.828125 6.6875 
Q 48.046875 6.6875 52.140625 7.59375 
Q 56.25 8.5 59.515625 10.40625 
z
" id="DejaVuSans-71"/>
      <path d="M 44.28125 53.078125 
L 44.28125 44.578125 
Q 40.484375 46.53125 36.375 47.5 
Q 32.28125 48.484375 27.875 48.484375 
Q 21.1875 48.484375 17.84375 46.4375 
Q 14.5 44.390625 14.5 40.28125 
Q 14.5 37.15625 16.890625 35.375 
Q 19.28125 33.59375 26.515625 31.984375 
L 29.59375 31.296875 
Q 39.15625 29.25 43.1875 25.515625 
Q 47.21875 21.78125 47.21875 15.09375 
Q 47.21875 7.46875 41.1875 3.015625 
Q 35.15625 -1.421875 24.609375 -1.421875 
Q 20.21875 -1.421875 15.453125 -0.5625 
Q 10.6875 0.296875 5.421875 2 
L 5.421875 11.28125 
Q 10.40625 8.6875 15.234375 7.390625 
Q 20.0625 6.109375 24.8125 6.109375 
Q 31.15625 6.109375 34.5625 8.28125 
Q 37.984375 10.453125 37.984375 14.40625 
Q 37.984375 18.0625 35.515625 20.015625 
Q 33.0625 21.96875 24.703125 23.78125 
L 21.578125 24.515625 
Q 13.234375 26.265625 9.515625 29.90625 
Q 5.8125 33.546875 5.8125 39.890625 
Q 5.8125 47.609375 11.28125 51.796875 
Q 16.75 56 26.8125 56 
Q 31.78125 56 36.171875 55.265625 
Q 40.578125 54.546875 44.28125 53.078125 
z
" id="DejaVuSans-115"/>
     </defs>
     <g transform="translate(91.6275 23.798437)scale(0.1 -0.1)">
      <use xlink:href="#DejaVuSans-71"/>
      <use x="77.490234" xlink:href="#DejaVuSans-101"/>
      <use x="139.013672" xlink:href="#DejaVuSans-110"/>
      <use x="202.392578" xlink:href="#DejaVuSans-101"/>
      <use x="263.916016" xlink:href="#DejaVuSans-115"/>
      <use x="316.015625" xlink:href="#DejaVuSans-101"/>
      <use x="377.539062" xlink:href="#DejaVuSans-110"/>
      <use x="440.917969" xlink:href="#DejaVuSans-101"/>
     </g>
    </g>
    <g id="line2d_31">
     <path d="M 63.6275 34.976562 
L 83.6275 34.976562 
" style="fill:none;stroke:#2792cb;stroke-linecap:square;stroke-width:2;"/>
    </g>
    <g id="line2d_32">
     <g>
      <use style="fill:#2792cb;stroke:#2792cb;" x="73.6275" xlink:href="#md4b2a9993d" y="34.976562"/>
     </g>
    </g>
    <g id="text_19">
     <!-- Erkrankte -->
     <defs>
      <path d="M 9.8125 72.90625 
L 55.90625 72.90625 
L 55.90625 64.59375 
L 19.671875 64.59375 
L 19.671875 43.015625 
L 54.390625 43.015625 
L 54.390625 34.71875 
L 19.671875 34.71875 
L 19.671875 8.296875 
L 56.78125 8.296875 
L 56.78125 0 
L 9.8125 0 
z
" id="DejaVuSans-69"/>
      <path d="M 41.109375 46.296875 
Q 39.59375 47.171875 37.8125 47.578125 
Q 36.03125 48 33.890625 48 
Q 26.265625 48 22.1875 43.046875 
Q 18.109375 38.09375 18.109375 28.8125 
L 18.109375 0 
L 9.078125 0 
L 9.078125 54.6875 
L 18.109375 54.6875 
L 18.109375 46.1875 
Q 20.953125 51.171875 25.484375 53.578125 
Q 30.03125 56 36.53125 56 
Q 37.453125 56 38.578125 55.875 
Q 39.703125 55.765625 41.0625 55.515625 
z
" id="DejaVuSans-114"/>
      <path d="M 9.078125 75.984375 
L 18.109375 75.984375 
L 18.109375 31.109375 
L 44.921875 54.6875 
L 56.390625 54.6875 
L 27.390625 29.109375 
L 57.625 0 
L 45.90625 0 
L 18.109375 26.703125 
L 18.109375 0 
L 9.078125 0 
z
" id="DejaVuSans-107"/>
      <path d="M 18.3125 70.21875 
L 18.3125 54.6875 
L 36.8125 54.6875 
L 36.8125 47.703125 
L 18.3125 47.703125 
L 18.3125 18.015625 
Q 18.3125 11.328125 20.140625 9.421875 
Q 21.96875 7.515625 27.59375 7.515625 
L 36.8125 7.515625 
L 36.8125 0 
L 27.59375 0 
Q 17.1875 0 13.234375 3.875 
Q 9.28125 7.765625 9.28125 18.015625 
L 9.28125 47.703125 
L 2.6875 47.703125 
L 2.6875 54.6875 
L 9.28125 54.6875 
L 9.28125 70.21875 
z
" id="DejaVuSans-116"/>
     </defs>
     <g transform="translate(91.6275 38.476562)scale(0.1 -0.1)">
      <use xlink:href="#DejaVuSans-69"/>
      <use x="63.183594" xlink:href="#DejaVuSans-114"/>
      <use x="104.296875" xlink:href="#DejaVuSans-107"/>
      <use x="162.207031" xlink:href="#DejaVuSans-114"/>
      <use x="203.320312" xlink:href="#DejaVuSans-97"/>
      <use x="264.599609" xlink:href="#DejaVuSans-110"/>
      <use x="327.978516" xlink:href="#DejaVuSans-107"/>
      <use x="385.888672" xlink:href="#DejaVuSans-116"/>
      <use x="425.097656" xlink:href="#DejaVuSans-101"/>
     </g>
    </g>
   </g>
  </g>
 </g>
 <defs>
  <clipPath id="p0bf806e15b">
   <rect height="489.6" width="1116" x="54.6275" y="7.2"/>
  </clipPath>
 </defs>
</svg>
