<?xml version="1.0" encoding="utf-8" standalone="no"?>
<!DOCTYPE svg PUBLIC "-//W3C//DTD SVG 1.1//EN"
  "http://www.w3.org/Graphics/SVG/1.1/DTD/svg11.dtd">
<!-- Created with matplotlib (https://matplotlib.org/) -->
<svg height="553.993765pt" version="1.1" viewBox="0 0 1186.09875 553.993765" width="1186.09875pt" xmlns="http://www.w3.org/2000/svg" xmlns:xlink="http://www.w3.org/1999/xlink">
 <defs>
  <style type="text/css">
*{stroke-linecap:butt;stroke-linejoin:round;}
  </style>
 </defs>
 <g id="figure_1">
  <g id="patch_1">
   <path d="M 0 553.993765 
L 1186.09875 553.993765 
L 1186.09875 0 
L 0 0 
z
" style="fill:#ffffff;"/>
  </g>
  <g id="axes_1">
   <g id="patch_2">
    <path d="M 62.89875 501.738984 
L 1178.89875 501.738984 
L 1178.89875 12.138984 
L 62.89875 12.138984 
z
" style="fill:#ffffff;"/>
   </g>
   <g id="matplotlib.axis_1">
    <g id="xtick_1">
     <g id="line2d_1">
      <defs>
       <path d="M 0 0 
L 0 3.5 
" id="mcb22fdfc68" style="stroke:#000000;stroke-width:0.8;"/>
      </defs>
      <g>
       <use style="stroke:#000000;stroke-width:0.8;" x="152.647002" xlink:href="#mcb22fdfc68" y="501.738984"/>
      </g>
     </g>
     <g id="text_1">
      <!-- 2020-04 -->
      <defs>
       <path d="M 19.1875 8.296875 
L 53.609375 8.296875 
L 53.609375 0 
L 7.328125 0 
L 7.328125 8.296875 
Q 12.9375 14.109375 22.625 23.890625 
Q 32.328125 33.6875 34.8125 36.53125 
Q 39.546875 41.84375 41.421875 45.53125 
Q 43.3125 49.21875 43.3125 52.78125 
Q 43.3125 58.59375 39.234375 62.25 
Q 35.15625 65.921875 28.609375 65.921875 
Q 23.96875 65.921875 18.8125 64.3125 
Q 13.671875 62.703125 7.8125 59.421875 
L 7.8125 69.390625 
Q 13.765625 71.78125 18.9375 73 
Q 24.125 74.21875 28.421875 74.21875 
Q 39.75 74.21875 46.484375 68.546875 
Q 53.21875 62.890625 53.21875 53.421875 
Q 53.21875 48.921875 51.53125 44.890625 
Q 49.859375 40.875 45.40625 35.40625 
Q 44.1875 33.984375 37.640625 27.21875 
Q 31.109375 20.453125 19.1875 8.296875 
z
" id="DejaVuSans-50"/>
       <path d="M 31.78125 66.40625 
Q 24.171875 66.40625 20.328125 58.90625 
Q 16.5 51.421875 16.5 36.375 
Q 16.5 21.390625 20.328125 13.890625 
Q 24.171875 6.390625 31.78125 6.390625 
Q 39.453125 6.390625 43.28125 13.890625 
Q 47.125 21.390625 47.125 36.375 
Q 47.125 51.421875 43.28125 58.90625 
Q 39.453125 66.40625 31.78125 66.40625 
z
M 31.78125 74.21875 
Q 44.046875 74.21875 50.515625 64.515625 
Q 56.984375 54.828125 56.984375 36.375 
Q 56.984375 17.96875 50.515625 8.265625 
Q 44.046875 -1.421875 31.78125 -1.421875 
Q 19.53125 -1.421875 13.0625 8.265625 
Q 6.59375 17.96875 6.59375 36.375 
Q 6.59375 54.828125 13.0625 64.515625 
Q 19.53125 74.21875 31.78125 74.21875 
z
" id="DejaVuSans-48"/>
       <path d="M 4.890625 31.390625 
L 31.203125 31.390625 
L 31.203125 23.390625 
L 4.890625 23.390625 
z
" id="DejaVuSans-45"/>
       <path d="M 37.796875 64.3125 
L 12.890625 25.390625 
L 37.796875 25.390625 
z
M 35.203125 72.90625 
L 47.609375 72.90625 
L 47.609375 25.390625 
L 58.015625 25.390625 
L 58.015625 17.1875 
L 47.609375 17.1875 
L 47.609375 0 
L 37.796875 0 
L 37.796875 17.1875 
L 4.890625 17.1875 
L 4.890625 26.703125 
z
" id="DejaVuSans-52"/>
      </defs>
      <g transform="translate(104.254735 544.452384)rotate(-30)scale(0.13 -0.13)">
       <use xlink:href="#DejaVuSans-50"/>
       <use x="63.623047" xlink:href="#DejaVuSans-48"/>
       <use x="127.246094" xlink:href="#DejaVuSans-50"/>
       <use x="190.869141" xlink:href="#DejaVuSans-48"/>
       <use x="254.492188" xlink:href="#DejaVuSans-45"/>
       <use x="290.576172" xlink:href="#DejaVuSans-48"/>
       <use x="354.199219" xlink:href="#DejaVuSans-52"/>
      </g>
     </g>
    </g>
    <g id="xtick_2">
     <g id="line2d_2">
      <g>
       <use style="stroke:#000000;stroke-width:0.8;" x="282.716932" xlink:href="#mcb22fdfc68" y="501.738984"/>
      </g>
     </g>
     <g id="text_2">
      <!-- 2020-05 -->
      <defs>
       <path d="M 10.796875 72.90625 
L 49.515625 72.90625 
L 49.515625 64.59375 
L 19.828125 64.59375 
L 19.828125 46.734375 
Q 21.96875 47.46875 24.109375 47.828125 
Q 26.265625 48.1875 28.421875 48.1875 
Q 40.625 48.1875 47.75 41.5 
Q 54.890625 34.8125 54.890625 23.390625 
Q 54.890625 11.625 47.5625 5.09375 
Q 40.234375 -1.421875 26.90625 -1.421875 
Q 22.3125 -1.421875 17.546875 -0.640625 
Q 12.796875 0.140625 7.71875 1.703125 
L 7.71875 11.625 
Q 12.109375 9.234375 16.796875 8.0625 
Q 21.484375 6.890625 26.703125 6.890625 
Q 35.15625 6.890625 40.078125 11.328125 
Q 45.015625 15.765625 45.015625 23.390625 
Q 45.015625 31 40.078125 35.4375 
Q 35.15625 39.890625 26.703125 39.890625 
Q 22.75 39.890625 18.8125 39.015625 
Q 14.890625 38.140625 10.796875 36.28125 
z
" id="DejaVuSans-53"/>
      </defs>
      <g transform="translate(234.324665 544.452384)rotate(-30)scale(0.13 -0.13)">
       <use xlink:href="#DejaVuSans-50"/>
       <use x="63.623047" xlink:href="#DejaVuSans-48"/>
       <use x="127.246094" xlink:href="#DejaVuSans-50"/>
       <use x="190.869141" xlink:href="#DejaVuSans-48"/>
       <use x="254.492188" xlink:href="#DejaVuSans-45"/>
       <use x="290.576172" xlink:href="#DejaVuSans-48"/>
       <use x="354.199219" xlink:href="#DejaVuSans-53"/>
      </g>
     </g>
    </g>
    <g id="xtick_3">
     <g id="line2d_3">
      <g>
       <use style="stroke:#000000;stroke-width:0.8;" x="417.122526" xlink:href="#mcb22fdfc68" y="501.738984"/>
      </g>
     </g>
     <g id="text_3">
      <!-- 2020-06 -->
      <defs>
       <path d="M 33.015625 40.375 
Q 26.375 40.375 22.484375 35.828125 
Q 18.609375 31.296875 18.609375 23.390625 
Q 18.609375 15.53125 22.484375 10.953125 
Q 26.375 6.390625 33.015625 6.390625 
Q 39.65625 6.390625 43.53125 10.953125 
Q 47.40625 15.53125 47.40625 23.390625 
Q 47.40625 31.296875 43.53125 35.828125 
Q 39.65625 40.375 33.015625 40.375 
z
M 52.59375 71.296875 
L 52.59375 62.3125 
Q 48.875 64.0625 45.09375 64.984375 
Q 41.3125 65.921875 37.59375 65.921875 
Q 27.828125 65.921875 22.671875 59.328125 
Q 17.53125 52.734375 16.796875 39.40625 
Q 19.671875 43.65625 24.015625 45.921875 
Q 28.375 48.1875 33.59375 48.1875 
Q 44.578125 48.1875 50.953125 41.515625 
Q 57.328125 34.859375 57.328125 23.390625 
Q 57.328125 12.15625 50.6875 5.359375 
Q 44.046875 -1.421875 33.015625 -1.421875 
Q 20.359375 -1.421875 13.671875 8.265625 
Q 6.984375 17.96875 6.984375 36.375 
Q 6.984375 53.65625 15.1875 63.9375 
Q 23.390625 74.21875 37.203125 74.21875 
Q 40.921875 74.21875 44.703125 73.484375 
Q 48.484375 72.75 52.59375 71.296875 
z
" id="DejaVuSans-54"/>
      </defs>
      <g transform="translate(368.730259 544.452384)rotate(-30)scale(0.13 -0.13)">
       <use xlink:href="#DejaVuSans-50"/>
       <use x="63.623047" xlink:href="#DejaVuSans-48"/>
       <use x="127.246094" xlink:href="#DejaVuSans-50"/>
       <use x="190.869141" xlink:href="#DejaVuSans-48"/>
       <use x="254.492188" xlink:href="#DejaVuSans-45"/>
       <use x="290.576172" xlink:href="#DejaVuSans-48"/>
       <use x="354.199219" xlink:href="#DejaVuSans-54"/>
      </g>
     </g>
    </g>
    <g id="xtick_4">
     <g id="line2d_4">
      <g>
       <use style="stroke:#000000;stroke-width:0.8;" x="547.192456" xlink:href="#mcb22fdfc68" y="501.738984"/>
      </g>
     </g>
     <g id="text_4">
      <!-- 2020-07 -->
      <defs>
       <path d="M 8.203125 72.90625 
L 55.078125 72.90625 
L 55.078125 68.703125 
L 28.609375 0 
L 18.3125 0 
L 43.21875 64.59375 
L 8.203125 64.59375 
z
" id="DejaVuSans-55"/>
      </defs>
      <g transform="translate(498.800189 544.452384)rotate(-30)scale(0.13 -0.13)">
       <use xlink:href="#DejaVuSans-50"/>
       <use x="63.623047" xlink:href="#DejaVuSans-48"/>
       <use x="127.246094" xlink:href="#DejaVuSans-50"/>
       <use x="190.869141" xlink:href="#DejaVuSans-48"/>
       <use x="254.492188" xlink:href="#DejaVuSans-45"/>
       <use x="290.576172" xlink:href="#DejaVuSans-48"/>
       <use x="354.199219" xlink:href="#DejaVuSans-55"/>
      </g>
     </g>
    </g>
    <g id="xtick_5">
     <g id="line2d_5">
      <g>
       <use style="stroke:#000000;stroke-width:0.8;" x="681.598051" xlink:href="#mcb22fdfc68" y="501.738984"/>
      </g>
     </g>
     <g id="text_5">
      <!-- 2020-08 -->
      <defs>
       <path d="M 31.78125 34.625 
Q 24.75 34.625 20.71875 30.859375 
Q 16.703125 27.09375 16.703125 20.515625 
Q 16.703125 13.921875 20.71875 10.15625 
Q 24.75 6.390625 31.78125 6.390625 
Q 38.8125 6.390625 42.859375 10.171875 
Q 46.921875 13.96875 46.921875 20.515625 
Q 46.921875 27.09375 42.890625 30.859375 
Q 38.875 34.625 31.78125 34.625 
z
M 21.921875 38.8125 
Q 15.578125 40.375 12.03125 44.71875 
Q 8.5 49.078125 8.5 55.328125 
Q 8.5 64.0625 14.71875 69.140625 
Q 20.953125 74.21875 31.78125 74.21875 
Q 42.671875 74.21875 48.875 69.140625 
Q 55.078125 64.0625 55.078125 55.328125 
Q 55.078125 49.078125 51.53125 44.71875 
Q 48 40.375 41.703125 38.8125 
Q 48.828125 37.15625 52.796875 32.3125 
Q 56.78125 27.484375 56.78125 20.515625 
Q 56.78125 9.90625 50.3125 4.234375 
Q 43.84375 -1.421875 31.78125 -1.421875 
Q 19.734375 -1.421875 13.25 4.234375 
Q 6.78125 9.90625 6.78125 20.515625 
Q 6.78125 27.484375 10.78125 32.3125 
Q 14.796875 37.15625 21.921875 38.8125 
z
M 18.3125 54.390625 
Q 18.3125 48.734375 21.84375 45.5625 
Q 25.390625 42.390625 31.78125 42.390625 
Q 38.140625 42.390625 41.71875 45.5625 
Q 45.3125 48.734375 45.3125 54.390625 
Q 45.3125 60.0625 41.71875 63.234375 
Q 38.140625 66.40625 31.78125 66.40625 
Q 25.390625 66.40625 21.84375 63.234375 
Q 18.3125 60.0625 18.3125 54.390625 
z
" id="DejaVuSans-56"/>
      </defs>
      <g transform="translate(633.205784 544.452384)rotate(-30)scale(0.13 -0.13)">
       <use xlink:href="#DejaVuSans-50"/>
       <use x="63.623047" xlink:href="#DejaVuSans-48"/>
       <use x="127.246094" xlink:href="#DejaVuSans-50"/>
       <use x="190.869141" xlink:href="#DejaVuSans-48"/>
       <use x="254.492188" xlink:href="#DejaVuSans-45"/>
       <use x="290.576172" xlink:href="#DejaVuSans-48"/>
       <use x="354.199219" xlink:href="#DejaVuSans-56"/>
      </g>
     </g>
    </g>
    <g id="xtick_6">
     <g id="line2d_6">
      <g>
       <use style="stroke:#000000;stroke-width:0.8;" x="816.003645" xlink:href="#mcb22fdfc68" y="501.738984"/>
      </g>
     </g>
     <g id="text_6">
      <!-- 2020-09 -->
      <defs>
       <path d="M 10.984375 1.515625 
L 10.984375 10.5 
Q 14.703125 8.734375 18.5 7.8125 
Q 22.3125 6.890625 25.984375 6.890625 
Q 35.75 6.890625 40.890625 13.453125 
Q 46.046875 20.015625 46.78125 33.40625 
Q 43.953125 29.203125 39.59375 26.953125 
Q 35.25 24.703125 29.984375 24.703125 
Q 19.046875 24.703125 12.671875 31.3125 
Q 6.296875 37.9375 6.296875 49.421875 
Q 6.296875 60.640625 12.9375 67.421875 
Q 19.578125 74.21875 30.609375 74.21875 
Q 43.265625 74.21875 49.921875 64.515625 
Q 56.59375 54.828125 56.59375 36.375 
Q 56.59375 19.140625 48.40625 8.859375 
Q 40.234375 -1.421875 26.421875 -1.421875 
Q 22.703125 -1.421875 18.890625 -0.6875 
Q 15.09375 0.046875 10.984375 1.515625 
z
M 30.609375 32.421875 
Q 37.25 32.421875 41.125 36.953125 
Q 45.015625 41.5 45.015625 49.421875 
Q 45.015625 57.28125 41.125 61.84375 
Q 37.25 66.40625 30.609375 66.40625 
Q 23.96875 66.40625 20.09375 61.84375 
Q 16.21875 57.28125 16.21875 49.421875 
Q 16.21875 41.5 20.09375 36.953125 
Q 23.96875 32.421875 30.609375 32.421875 
z
" id="DejaVuSans-57"/>
      </defs>
      <g transform="translate(767.611378 544.452384)rotate(-30)scale(0.13 -0.13)">
       <use xlink:href="#DejaVuSans-50"/>
       <use x="63.623047" xlink:href="#DejaVuSans-48"/>
       <use x="127.246094" xlink:href="#DejaVuSans-50"/>
       <use x="190.869141" xlink:href="#DejaVuSans-48"/>
       <use x="254.492188" xlink:href="#DejaVuSans-45"/>
       <use x="290.576172" xlink:href="#DejaVuSans-48"/>
       <use x="354.199219" xlink:href="#DejaVuSans-57"/>
      </g>
     </g>
    </g>
    <g id="xtick_7">
     <g id="line2d_7">
      <g>
       <use style="stroke:#000000;stroke-width:0.8;" x="946.073575" xlink:href="#mcb22fdfc68" y="501.738984"/>
      </g>
     </g>
     <g id="text_7">
      <!-- 2020-10 -->
      <defs>
       <path d="M 12.40625 8.296875 
L 28.515625 8.296875 
L 28.515625 63.921875 
L 10.984375 60.40625 
L 10.984375 69.390625 
L 28.421875 72.90625 
L 38.28125 72.90625 
L 38.28125 8.296875 
L 54.390625 8.296875 
L 54.390625 0 
L 12.40625 0 
z
" id="DejaVuSans-49"/>
      </defs>
      <g transform="translate(897.681308 544.452384)rotate(-30)scale(0.13 -0.13)">
       <use xlink:href="#DejaVuSans-50"/>
       <use x="63.623047" xlink:href="#DejaVuSans-48"/>
       <use x="127.246094" xlink:href="#DejaVuSans-50"/>
       <use x="190.869141" xlink:href="#DejaVuSans-48"/>
       <use x="254.492188" xlink:href="#DejaVuSans-45"/>
       <use x="290.576172" xlink:href="#DejaVuSans-49"/>
       <use x="354.199219" xlink:href="#DejaVuSans-48"/>
      </g>
     </g>
    </g>
    <g id="xtick_8">
     <g id="line2d_8">
      <g>
       <use style="stroke:#000000;stroke-width:0.8;" x="1080.47917" xlink:href="#mcb22fdfc68" y="501.738984"/>
      </g>
     </g>
     <g id="text_8">
      <!-- 2020-11 -->
      <g transform="translate(1032.086903 544.452384)rotate(-30)scale(0.13 -0.13)">
       <use xlink:href="#DejaVuSans-50"/>
       <use x="63.623047" xlink:href="#DejaVuSans-48"/>
       <use x="127.246094" xlink:href="#DejaVuSans-50"/>
       <use x="190.869141" xlink:href="#DejaVuSans-48"/>
       <use x="254.492188" xlink:href="#DejaVuSans-45"/>
       <use x="290.576172" xlink:href="#DejaVuSans-49"/>
       <use x="354.199219" xlink:href="#DejaVuSans-49"/>
      </g>
     </g>
    </g>
   </g>
   <g id="matplotlib.axis_2">
    <g id="ytick_1">
     <g id="line2d_9">
      <path clip-path="url(#pd7b8b3d674)" d="M 62.89875 489.370728 
L 1178.89875 489.370728 
" style="fill:none;stroke:#b0b0b0;stroke-linecap:square;stroke-width:0.8;"/>
     </g>
     <g id="line2d_10">
      <defs>
       <path d="M 0 0 
L -3.5 0 
" id="mcb97aa62a5" style="stroke:#000000;stroke-width:0.8;"/>
      </defs>
      <g>
       <use style="stroke:#000000;stroke-width:0.8;" x="62.89875" xlink:href="#mcb97aa62a5" y="489.370728"/>
      </g>
     </g>
     <g id="text_9">
      <!-- 0 -->
      <g transform="translate(47.6275 494.309713)scale(0.13 -0.13)">
       <use xlink:href="#DejaVuSans-48"/>
      </g>
     </g>
    </g>
    <g id="ytick_2">
     <g id="line2d_11">
      <path clip-path="url(#pd7b8b3d674)" d="M 62.89875 449.601416 
L 1178.89875 449.601416 
" style="fill:none;stroke:#b0b0b0;stroke-linecap:square;stroke-width:0.8;"/>
     </g>
     <g id="line2d_12">
      <g>
       <use style="stroke:#000000;stroke-width:0.8;" x="62.89875" xlink:href="#mcb97aa62a5" y="449.601416"/>
      </g>
     </g>
     <g id="text_10">
      <!-- 100 -->
      <g transform="translate(31.085 454.540401)scale(0.13 -0.13)">
       <use xlink:href="#DejaVuSans-49"/>
       <use x="63.623047" xlink:href="#DejaVuSans-48"/>
       <use x="127.246094" xlink:href="#DejaVuSans-48"/>
      </g>
     </g>
    </g>
    <g id="ytick_3">
     <g id="line2d_13">
      <path clip-path="url(#pd7b8b3d674)" d="M 62.89875 409.832104 
L 1178.89875 409.832104 
" style="fill:none;stroke:#b0b0b0;stroke-linecap:square;stroke-width:0.8;"/>
     </g>
     <g id="line2d_14">
      <g>
       <use style="stroke:#000000;stroke-width:0.8;" x="62.89875" xlink:href="#mcb97aa62a5" y="409.832104"/>
      </g>
     </g>
     <g id="text_11">
      <!-- 200 -->
      <g transform="translate(31.085 414.771089)scale(0.13 -0.13)">
       <use xlink:href="#DejaVuSans-50"/>
       <use x="63.623047" xlink:href="#DejaVuSans-48"/>
       <use x="127.246094" xlink:href="#DejaVuSans-48"/>
      </g>
     </g>
    </g>
    <g id="ytick_4">
     <g id="line2d_15">
      <path clip-path="url(#pd7b8b3d674)" d="M 62.89875 370.062792 
L 1178.89875 370.062792 
" style="fill:none;stroke:#b0b0b0;stroke-linecap:square;stroke-width:0.8;"/>
     </g>
     <g id="line2d_16">
      <g>
       <use style="stroke:#000000;stroke-width:0.8;" x="62.89875" xlink:href="#mcb97aa62a5" y="370.062792"/>
      </g>
     </g>
     <g id="text_12">
      <!-- 300 -->
      <defs>
       <path d="M 40.578125 39.3125 
Q 47.65625 37.796875 51.625 33 
Q 55.609375 28.21875 55.609375 21.1875 
Q 55.609375 10.40625 48.1875 4.484375 
Q 40.765625 -1.421875 27.09375 -1.421875 
Q 22.515625 -1.421875 17.65625 -0.515625 
Q 12.796875 0.390625 7.625 2.203125 
L 7.625 11.71875 
Q 11.71875 9.328125 16.59375 8.109375 
Q 21.484375 6.890625 26.8125 6.890625 
Q 36.078125 6.890625 40.9375 10.546875 
Q 45.796875 14.203125 45.796875 21.1875 
Q 45.796875 27.640625 41.28125 31.265625 
Q 36.765625 34.90625 28.71875 34.90625 
L 20.21875 34.90625 
L 20.21875 43.015625 
L 29.109375 43.015625 
Q 36.375 43.015625 40.234375 45.921875 
Q 44.09375 48.828125 44.09375 54.296875 
Q 44.09375 59.90625 40.109375 62.90625 
Q 36.140625 65.921875 28.71875 65.921875 
Q 24.65625 65.921875 20.015625 65.03125 
Q 15.375 64.15625 9.8125 62.3125 
L 9.8125 71.09375 
Q 15.4375 72.65625 20.34375 73.4375 
Q 25.25 74.21875 29.59375 74.21875 
Q 40.828125 74.21875 47.359375 69.109375 
Q 53.90625 64.015625 53.90625 55.328125 
Q 53.90625 49.265625 50.4375 45.09375 
Q 46.96875 40.921875 40.578125 39.3125 
z
" id="DejaVuSans-51"/>
      </defs>
      <g transform="translate(31.085 375.001777)scale(0.13 -0.13)">
       <use xlink:href="#DejaVuSans-51"/>
       <use x="63.623047" xlink:href="#DejaVuSans-48"/>
       <use x="127.246094" xlink:href="#DejaVuSans-48"/>
      </g>
     </g>
    </g>
    <g id="ytick_5">
     <g id="line2d_17">
      <path clip-path="url(#pd7b8b3d674)" d="M 62.89875 330.29348 
L 1178.89875 330.29348 
" style="fill:none;stroke:#b0b0b0;stroke-linecap:square;stroke-width:0.8;"/>
     </g>
     <g id="line2d_18">
      <g>
       <use style="stroke:#000000;stroke-width:0.8;" x="62.89875" xlink:href="#mcb97aa62a5" y="330.29348"/>
      </g>
     </g>
     <g id="text_13">
      <!-- 400 -->
      <g transform="translate(31.085 335.232465)scale(0.13 -0.13)">
       <use xlink:href="#DejaVuSans-52"/>
       <use x="63.623047" xlink:href="#DejaVuSans-48"/>
       <use x="127.246094" xlink:href="#DejaVuSans-48"/>
      </g>
     </g>
    </g>
    <g id="ytick_6">
     <g id="line2d_19">
      <path clip-path="url(#pd7b8b3d674)" d="M 62.89875 290.524168 
L 1178.89875 290.524168 
" style="fill:none;stroke:#b0b0b0;stroke-linecap:square;stroke-width:0.8;"/>
     </g>
     <g id="line2d_20">
      <g>
       <use style="stroke:#000000;stroke-width:0.8;" x="62.89875" xlink:href="#mcb97aa62a5" y="290.524168"/>
      </g>
     </g>
     <g id="text_14">
      <!-- 500 -->
      <g transform="translate(31.085 295.463153)scale(0.13 -0.13)">
       <use xlink:href="#DejaVuSans-53"/>
       <use x="63.623047" xlink:href="#DejaVuSans-48"/>
       <use x="127.246094" xlink:href="#DejaVuSans-48"/>
      </g>
     </g>
    </g>
    <g id="ytick_7">
     <g id="line2d_21">
      <path clip-path="url(#pd7b8b3d674)" d="M 62.89875 250.754856 
L 1178.89875 250.754856 
" style="fill:none;stroke:#b0b0b0;stroke-linecap:square;stroke-width:0.8;"/>
     </g>
     <g id="line2d_22">
      <g>
       <use style="stroke:#000000;stroke-width:0.8;" x="62.89875" xlink:href="#mcb97aa62a5" y="250.754856"/>
      </g>
     </g>
     <g id="text_15">
      <!-- 600 -->
      <g transform="translate(31.085 255.693841)scale(0.13 -0.13)">
       <use xlink:href="#DejaVuSans-54"/>
       <use x="63.623047" xlink:href="#DejaVuSans-48"/>
       <use x="127.246094" xlink:href="#DejaVuSans-48"/>
      </g>
     </g>
    </g>
    <g id="ytick_8">
     <g id="line2d_23">
      <path clip-path="url(#pd7b8b3d674)" d="M 62.89875 210.985544 
L 1178.89875 210.985544 
" style="fill:none;stroke:#b0b0b0;stroke-linecap:square;stroke-width:0.8;"/>
     </g>
     <g id="line2d_24">
      <g>
       <use style="stroke:#000000;stroke-width:0.8;" x="62.89875" xlink:href="#mcb97aa62a5" y="210.985544"/>
      </g>
     </g>
     <g id="text_16">
      <!-- 700 -->
      <g transform="translate(31.085 215.924529)scale(0.13 -0.13)">
       <use xlink:href="#DejaVuSans-55"/>
       <use x="63.623047" xlink:href="#DejaVuSans-48"/>
       <use x="127.246094" xlink:href="#DejaVuSans-48"/>
      </g>
     </g>
    </g>
    <g id="ytick_9">
     <g id="line2d_25">
      <path clip-path="url(#pd7b8b3d674)" d="M 62.89875 171.216232 
L 1178.89875 171.216232 
" style="fill:none;stroke:#b0b0b0;stroke-linecap:square;stroke-width:0.8;"/>
     </g>
     <g id="line2d_26">
      <g>
       <use style="stroke:#000000;stroke-width:0.8;" x="62.89875" xlink:href="#mcb97aa62a5" y="171.216232"/>
      </g>
     </g>
     <g id="text_17">
      <!-- 800 -->
      <g transform="translate(31.085 176.155217)scale(0.13 -0.13)">
       <use xlink:href="#DejaVuSans-56"/>
       <use x="63.623047" xlink:href="#DejaVuSans-48"/>
       <use x="127.246094" xlink:href="#DejaVuSans-48"/>
      </g>
     </g>
    </g>
    <g id="ytick_10">
     <g id="line2d_27">
      <path clip-path="url(#pd7b8b3d674)" d="M 62.89875 131.44692 
L 1178.89875 131.44692 
" style="fill:none;stroke:#b0b0b0;stroke-linecap:square;stroke-width:0.8;"/>
     </g>
     <g id="line2d_28">
      <g>
       <use style="stroke:#000000;stroke-width:0.8;" x="62.89875" xlink:href="#mcb97aa62a5" y="131.44692"/>
      </g>
     </g>
     <g id="text_18">
      <!-- 900 -->
      <g transform="translate(31.085 136.385905)scale(0.13 -0.13)">
       <use xlink:href="#DejaVuSans-57"/>
       <use x="63.623047" xlink:href="#DejaVuSans-48"/>
       <use x="127.246094" xlink:href="#DejaVuSans-48"/>
      </g>
     </g>
    </g>
    <g id="ytick_11">
     <g id="line2d_29">
      <path clip-path="url(#pd7b8b3d674)" d="M 62.89875 91.677608 
L 1178.89875 91.677608 
" style="fill:none;stroke:#b0b0b0;stroke-linecap:square;stroke-width:0.8;"/>
     </g>
     <g id="line2d_30">
      <g>
       <use style="stroke:#000000;stroke-width:0.8;" x="62.89875" xlink:href="#mcb97aa62a5" y="91.677608"/>
      </g>
     </g>
     <g id="text_19">
      <!-- 1000 -->
      <g transform="translate(22.81375 96.616593)scale(0.13 -0.13)">
       <use xlink:href="#DejaVuSans-49"/>
       <use x="63.623047" xlink:href="#DejaVuSans-48"/>
       <use x="127.246094" xlink:href="#DejaVuSans-48"/>
       <use x="190.869141" xlink:href="#DejaVuSans-48"/>
      </g>
     </g>
    </g>
    <g id="ytick_12">
     <g id="line2d_31">
      <path clip-path="url(#pd7b8b3d674)" d="M 62.89875 51.908296 
L 1178.89875 51.908296 
" style="fill:none;stroke:#b0b0b0;stroke-linecap:square;stroke-width:0.8;"/>
     </g>
     <g id="line2d_32">
      <g>
       <use style="stroke:#000000;stroke-width:0.8;" x="62.89875" xlink:href="#mcb97aa62a5" y="51.908296"/>
      </g>
     </g>
     <g id="text_20">
      <!-- 1100 -->
      <g transform="translate(22.81375 56.847281)scale(0.13 -0.13)">
       <use xlink:href="#DejaVuSans-49"/>
       <use x="63.623047" xlink:href="#DejaVuSans-49"/>
       <use x="127.246094" xlink:href="#DejaVuSans-48"/>
       <use x="190.869141" xlink:href="#DejaVuSans-48"/>
      </g>
     </g>
    </g>
    <g id="ytick_13">
     <g id="line2d_33">
      <path clip-path="url(#pd7b8b3d674)" d="M 62.89875 12.138984 
L 1178.89875 12.138984 
" style="fill:none;stroke:#b0b0b0;stroke-linecap:square;stroke-width:0.8;"/>
     </g>
     <g id="line2d_34">
      <g>
       <use style="stroke:#000000;stroke-width:0.8;" x="62.89875" xlink:href="#mcb97aa62a5" y="12.138984"/>
      </g>
     </g>
     <g id="text_21">
      <!-- 1200 -->
      <g transform="translate(22.81375 17.077969)scale(0.13 -0.13)">
       <use xlink:href="#DejaVuSans-49"/>
       <use x="63.623047" xlink:href="#DejaVuSans-50"/>
       <use x="127.246094" xlink:href="#DejaVuSans-48"/>
       <use x="190.869141" xlink:href="#DejaVuSans-48"/>
      </g>
     </g>
    </g>
    <g id="text_22">
     <!-- Anzahl von Fällen -->
     <defs>
      <path d="M 34.1875 63.1875 
L 20.796875 26.90625 
L 47.609375 26.90625 
z
M 28.609375 72.90625 
L 39.796875 72.90625 
L 67.578125 0 
L 57.328125 0 
L 50.6875 18.703125 
L 17.828125 18.703125 
L 11.1875 0 
L 0.78125 0 
z
" id="DejaVuSans-65"/>
      <path d="M 54.890625 33.015625 
L 54.890625 0 
L 45.90625 0 
L 45.90625 32.71875 
Q 45.90625 40.484375 42.875 44.328125 
Q 39.84375 48.1875 33.796875 48.1875 
Q 26.515625 48.1875 22.3125 43.546875 
Q 18.109375 38.921875 18.109375 30.90625 
L 18.109375 0 
L 9.078125 0 
L 9.078125 54.6875 
L 18.109375 54.6875 
L 18.109375 46.1875 
Q 21.34375 51.125 25.703125 53.5625 
Q 30.078125 56 35.796875 56 
Q 45.21875 56 50.046875 50.171875 
Q 54.890625 44.34375 54.890625 33.015625 
z
" id="DejaVuSans-110"/>
      <path d="M 5.515625 54.6875 
L 48.1875 54.6875 
L 48.1875 46.484375 
L 14.40625 7.171875 
L 48.1875 7.171875 
L 48.1875 0 
L 4.296875 0 
L 4.296875 8.203125 
L 38.09375 47.515625 
L 5.515625 47.515625 
z
" id="DejaVuSans-122"/>
      <path d="M 34.28125 27.484375 
Q 23.390625 27.484375 19.1875 25 
Q 14.984375 22.515625 14.984375 16.5 
Q 14.984375 11.71875 18.140625 8.90625 
Q 21.296875 6.109375 26.703125 6.109375 
Q 34.1875 6.109375 38.703125 11.40625 
Q 43.21875 16.703125 43.21875 25.484375 
L 43.21875 27.484375 
z
M 52.203125 31.203125 
L 52.203125 0 
L 43.21875 0 
L 43.21875 8.296875 
Q 40.140625 3.328125 35.546875 0.953125 
Q 30.953125 -1.421875 24.3125 -1.421875 
Q 15.921875 -1.421875 10.953125 3.296875 
Q 6 8.015625 6 15.921875 
Q 6 25.140625 12.171875 29.828125 
Q 18.359375 34.515625 30.609375 34.515625 
L 43.21875 34.515625 
L 43.21875 35.40625 
Q 43.21875 41.609375 39.140625 45 
Q 35.0625 48.390625 27.6875 48.390625 
Q 23 48.390625 18.546875 47.265625 
Q 14.109375 46.140625 10.015625 43.890625 
L 10.015625 52.203125 
Q 14.9375 54.109375 19.578125 55.046875 
Q 24.21875 56 28.609375 56 
Q 40.484375 56 46.34375 49.84375 
Q 52.203125 43.703125 52.203125 31.203125 
z
" id="DejaVuSans-97"/>
      <path d="M 54.890625 33.015625 
L 54.890625 0 
L 45.90625 0 
L 45.90625 32.71875 
Q 45.90625 40.484375 42.875 44.328125 
Q 39.84375 48.1875 33.796875 48.1875 
Q 26.515625 48.1875 22.3125 43.546875 
Q 18.109375 38.921875 18.109375 30.90625 
L 18.109375 0 
L 9.078125 0 
L 9.078125 75.984375 
L 18.109375 75.984375 
L 18.109375 46.1875 
Q 21.34375 51.125 25.703125 53.5625 
Q 30.078125 56 35.796875 56 
Q 45.21875 56 50.046875 50.171875 
Q 54.890625 44.34375 54.890625 33.015625 
z
" id="DejaVuSans-104"/>
      <path d="M 9.421875 75.984375 
L 18.40625 75.984375 
L 18.40625 0 
L 9.421875 0 
z
" id="DejaVuSans-108"/>
      <path id="DejaVuSans-32"/>
      <path d="M 2.984375 54.6875 
L 12.5 54.6875 
L 29.59375 8.796875 
L 46.6875 54.6875 
L 56.203125 54.6875 
L 35.6875 0 
L 23.484375 0 
z
" id="DejaVuSans-118"/>
      <path d="M 30.609375 48.390625 
Q 23.390625 48.390625 19.1875 42.75 
Q 14.984375 37.109375 14.984375 27.296875 
Q 14.984375 17.484375 19.15625 11.84375 
Q 23.34375 6.203125 30.609375 6.203125 
Q 37.796875 6.203125 41.984375 11.859375 
Q 46.1875 17.53125 46.1875 27.296875 
Q 46.1875 37.015625 41.984375 42.703125 
Q 37.796875 48.390625 30.609375 48.390625 
z
M 30.609375 56 
Q 42.328125 56 49.015625 48.375 
Q 55.71875 40.765625 55.71875 27.296875 
Q 55.71875 13.875 49.015625 6.21875 
Q 42.328125 -1.421875 30.609375 -1.421875 
Q 18.84375 -1.421875 12.171875 6.21875 
Q 5.515625 13.875 5.515625 27.296875 
Q 5.515625 40.765625 12.171875 48.375 
Q 18.84375 56 30.609375 56 
z
" id="DejaVuSans-111"/>
      <path d="M 9.8125 72.90625 
L 51.703125 72.90625 
L 51.703125 64.59375 
L 19.671875 64.59375 
L 19.671875 43.109375 
L 48.578125 43.109375 
L 48.578125 34.8125 
L 19.671875 34.8125 
L 19.671875 0 
L 9.8125 0 
z
" id="DejaVuSans-70"/>
      <path d="M 34.28125 27.484375 
Q 23.390625 27.484375 19.1875 25 
Q 14.984375 22.515625 14.984375 16.5 
Q 14.984375 11.71875 18.140625 8.90625 
Q 21.296875 6.109375 26.703125 6.109375 
Q 34.1875 6.109375 38.703125 11.40625 
Q 43.21875 16.703125 43.21875 25.484375 
L 43.21875 27.484375 
z
M 52.203125 31.203125 
L 52.203125 0 
L 43.21875 0 
L 43.21875 8.296875 
Q 40.140625 3.328125 35.546875 0.953125 
Q 30.953125 -1.421875 24.3125 -1.421875 
Q 15.921875 -1.421875 10.953125 3.296875 
Q 6 8.015625 6 15.921875 
Q 6 25.140625 12.171875 29.828125 
Q 18.359375 34.515625 30.609375 34.515625 
L 43.21875 34.515625 
L 43.21875 35.40625 
Q 43.21875 41.609375 39.140625 45 
Q 35.0625 48.390625 27.6875 48.390625 
Q 23 48.390625 18.546875 47.265625 
Q 14.109375 46.140625 10.015625 43.890625 
L 10.015625 52.203125 
Q 14.9375 54.109375 19.578125 55.046875 
Q 24.21875 56 28.609375 56 
Q 40.484375 56 46.34375 49.84375 
Q 52.203125 43.703125 52.203125 31.203125 
z
M 33.59375 75.78125 
L 43.5 75.78125 
L 43.5 65.921875 
L 33.59375 65.921875 
z
M 14.5 75.78125 
L 24.40625 75.78125 
L 24.40625 65.921875 
L 14.5 65.921875 
z
" id="DejaVuSans-228"/>
      <path d="M 56.203125 29.59375 
L 56.203125 25.203125 
L 14.890625 25.203125 
Q 15.484375 15.921875 20.484375 11.0625 
Q 25.484375 6.203125 34.421875 6.203125 
Q 39.59375 6.203125 44.453125 7.46875 
Q 49.3125 8.734375 54.109375 11.28125 
L 54.109375 2.78125 
Q 49.265625 0.734375 44.1875 -0.34375 
Q 39.109375 -1.421875 33.890625 -1.421875 
Q 20.796875 -1.421875 13.15625 6.1875 
Q 5.515625 13.8125 5.515625 26.8125 
Q 5.515625 40.234375 12.765625 48.109375 
Q 20.015625 56 32.328125 56 
Q 43.359375 56 49.78125 48.890625 
Q 56.203125 41.796875 56.203125 29.59375 
z
M 47.21875 32.234375 
Q 47.125 39.59375 43.09375 43.984375 
Q 39.0625 48.390625 32.421875 48.390625 
Q 24.90625 48.390625 20.390625 44.140625 
Q 15.875 39.890625 15.1875 32.171875 
z
" id="DejaVuSans-101"/>
     </defs>
     <g transform="translate(16.318125 309.388359)rotate(-90)scale(0.12 -0.12)">
      <use xlink:href="#DejaVuSans-65"/>
      <use x="68.408203" xlink:href="#DejaVuSans-110"/>
      <use x="131.787109" xlink:href="#DejaVuSans-122"/>
      <use x="184.277344" xlink:href="#DejaVuSans-97"/>
      <use x="245.556641" xlink:href="#DejaVuSans-104"/>
      <use x="308.935547" xlink:href="#DejaVuSans-108"/>
      <use x="336.71875" xlink:href="#DejaVuSans-32"/>
      <use x="368.505859" xlink:href="#DejaVuSans-118"/>
      <use x="427.685547" xlink:href="#DejaVuSans-111"/>
      <use x="488.867188" xlink:href="#DejaVuSans-110"/>
      <use x="552.246094" xlink:href="#DejaVuSans-32"/>
      <use x="584.033203" xlink:href="#DejaVuSans-70"/>
      <use x="632.427734" xlink:href="#DejaVuSans-228"/>
      <use x="693.707031" xlink:href="#DejaVuSans-108"/>
      <use x="721.490234" xlink:href="#DejaVuSans-108"/>
      <use x="749.273438" xlink:href="#DejaVuSans-101"/>
      <use x="810.796875" xlink:href="#DejaVuSans-110"/>
     </g>
    </g>
   </g>
   <g id="line2d_35">
    <path clip-path="url(#pd7b8b3d674)" d="M 113.626023 488.575342 
L 122.297351 488.575342 
L 126.633016 487.382263 
L 130.96868 487.382263 
L 135.304344 485.393797 
L 148.311337 485.393797 
L 152.647002 484.996104 
L 156.982666 483.803025 
L 161.31833 481.019173 
L 165.653995 479.030707 
L 169.989659 479.030707 
L 174.325323 478.633014 
L 178.660988 478.633014 
L 182.996652 477.439935 
L 187.332316 476.644549 
L 191.667981 474.656083 
L 200.339309 473.860697 
L 209.010638 472.269924 
L 213.346302 471.872231 
L 217.681967 471.872231 
L 222.017631 469.088379 
L 226.353295 469.088379 
L 235.024624 467.099914 
L 243.695953 464.713755 
L 248.031617 461.929903 
L 256.702946 461.134517 
L 265.374274 457.555279 
L 269.709939 455.16912 
L 274.045603 453.976041 
L 278.381267 451.589882 
L 287.052596 450.396803 
L 295.723925 447.215258 
L 300.059589 445.226792 
L 304.395253 444.033713 
L 308.730918 442.045247 
L 313.066582 441.647554 
L 317.402247 438.863702 
L 326.073575 436.875237 
L 330.40924 436.07985 
L 334.744904 433.295998 
L 339.080568 433.295998 
L 347.751897 427.728295 
L 356.423226 425.342136 
L 360.75889 424.54675 
L 373.765883 420.967512 
L 378.101547 420.172125 
L 386.772876 419.774432 
L 391.10854 419.774432 
L 399.779869 418.581353 
L 404.115533 417.388274 
L 421.458191 416.592887 
L 425.793855 415.399808 
L 430.129519 415.002115 
L 434.465184 414.206729 
L 447.472177 414.206729 
L 451.807841 413.411342 
L 456.143505 413.013649 
L 464.814834 411.422877 
L 469.150498 411.025184 
L 486.493156 411.025184 
L 495.164484 408.639025 
L 499.500149 408.639025 
L 508.171477 408.241332 
L 516.842806 407.445946 
L 586.213435 407.445946 
L 599.220428 406.252866 
L 603.556093 405.45748 
L 607.891757 405.059787 
L 612.227421 404.264401 
L 616.563086 404.264401 
L 629.570079 403.469014 
L 642.577072 401.480549 
L 677.262386 401.480549 
L 720.61903 390.742835 
L 724.954694 387.56129 
L 733.626023 385.970517 
L 737.961687 385.970517 
L 750.96868 383.186665 
L 755.304344 381.1982 
L 759.640009 380.800507 
L 763.975673 380.00512 
L 768.311337 380.00512 
L 781.31833 379.607427 
L 785.653995 378.812041 
L 789.989659 378.414348 
L 794.325323 377.221269 
L 798.660988 375.630496 
L 811.667981 375.232803 
L 816.003645 375.232803 
L 820.339309 374.437417 
L 824.674974 373.244337 
L 829.010638 373.244337 
L 846.353295 370.062792 
L 850.68896 369.665099 
L 855.024624 369.665099 
L 859.360288 368.074327 
L 876.702946 368.074327 
L 881.03861 367.676634 
L 885.374274 366.483554 
L 889.709939 366.483554 
L 902.716932 365.688168 
L 907.052596 365.688168 
L 915.723925 364.097396 
L 920.059589 363.699702 
L 933.066582 362.904316 
L 937.402247 361.313544 
L 941.737911 361.313544 
L 950.40924 360.518157 
L 963.416233 354.950454 
L 967.751897 354.552761 
L 972.087561 352.961988 
L 976.423226 349.38275 
L 998.101547 345.008126 
L 1028.451198 334.270412 
L 1032.786862 331.088867 
L 1037.122526 325.521163 
L 1041.458191 325.12347 
L 1054.465184 319.158073 
L 1058.800848 318.76038 
L 1063.136512 311.204211 
L 1067.472177 308.420359 
L 1071.807841 306.431893 
L 1084.814834 298.478031 
L 1093.486163 298.478031 
L 1102.157491 290.524168 
L 1115.164484 286.547237 
L 1123.835813 266.662581 
L 1128.171477 258.708719 
L 1128.171477 258.708719 
" style="fill:none;stroke:#dbcd00;stroke-linecap:square;stroke-width:2;"/>
    <defs>
     <path d="M 0 1.5 
C 0.397805 1.5 0.77937 1.341951 1.06066 1.06066 
C 1.341951 0.77937 1.5 0.397805 1.5 0 
C 1.5 -0.397805 1.341951 -0.77937 1.06066 -1.06066 
C 0.77937 -1.341951 0.397805 -1.5 0 -1.5 
C -0.397805 -1.5 -0.77937 -1.341951 -1.06066 -1.06066 
C -1.341951 -0.77937 -1.5 -0.397805 -1.5 0 
C -1.5 0.397805 -1.341951 0.77937 -1.06066 1.06066 
C -0.77937 1.341951 -0.397805 1.5 0 1.5 
z
" id="m05889a07d1" style="stroke:#dbcd00;"/>
    </defs>
    <g clip-path="url(#pd7b8b3d674)">
     <use style="fill:#dbcd00;stroke:#dbcd00;" x="113.626023" xlink:href="#m05889a07d1" y="488.575342"/>
     <use style="fill:#dbcd00;stroke:#dbcd00;" x="117.961687" xlink:href="#m05889a07d1" y="488.575342"/>
     <use style="fill:#dbcd00;stroke:#dbcd00;" x="122.297351" xlink:href="#m05889a07d1" y="488.575342"/>
     <use style="fill:#dbcd00;stroke:#dbcd00;" x="126.633016" xlink:href="#m05889a07d1" y="487.382263"/>
     <use style="fill:#dbcd00;stroke:#dbcd00;" x="130.96868" xlink:href="#m05889a07d1" y="487.382263"/>
     <use style="fill:#dbcd00;stroke:#dbcd00;" x="135.304344" xlink:href="#m05889a07d1" y="485.393797"/>
     <use style="fill:#dbcd00;stroke:#dbcd00;" x="139.640009" xlink:href="#m05889a07d1" y="485.393797"/>
     <use style="fill:#dbcd00;stroke:#dbcd00;" x="143.975673" xlink:href="#m05889a07d1" y="485.393797"/>
     <use style="fill:#dbcd00;stroke:#dbcd00;" x="148.311337" xlink:href="#m05889a07d1" y="485.393797"/>
     <use style="fill:#dbcd00;stroke:#dbcd00;" x="152.647002" xlink:href="#m05889a07d1" y="484.996104"/>
     <use style="fill:#dbcd00;stroke:#dbcd00;" x="156.982666" xlink:href="#m05889a07d1" y="483.803025"/>
     <use style="fill:#dbcd00;stroke:#dbcd00;" x="161.31833" xlink:href="#m05889a07d1" y="481.019173"/>
     <use style="fill:#dbcd00;stroke:#dbcd00;" x="165.653995" xlink:href="#m05889a07d1" y="479.030707"/>
     <use style="fill:#dbcd00;stroke:#dbcd00;" x="169.989659" xlink:href="#m05889a07d1" y="479.030707"/>
     <use style="fill:#dbcd00;stroke:#dbcd00;" x="174.325323" xlink:href="#m05889a07d1" y="478.633014"/>
     <use style="fill:#dbcd00;stroke:#dbcd00;" x="178.660988" xlink:href="#m05889a07d1" y="478.633014"/>
     <use style="fill:#dbcd00;stroke:#dbcd00;" x="182.996652" xlink:href="#m05889a07d1" y="477.439935"/>
     <use style="fill:#dbcd00;stroke:#dbcd00;" x="187.332316" xlink:href="#m05889a07d1" y="476.644549"/>
     <use style="fill:#dbcd00;stroke:#dbcd00;" x="191.667981" xlink:href="#m05889a07d1" y="474.656083"/>
     <use style="fill:#dbcd00;stroke:#dbcd00;" x="200.339309" xlink:href="#m05889a07d1" y="473.860697"/>
     <use style="fill:#dbcd00;stroke:#dbcd00;" x="209.010638" xlink:href="#m05889a07d1" y="472.269924"/>
     <use style="fill:#dbcd00;stroke:#dbcd00;" x="213.346302" xlink:href="#m05889a07d1" y="471.872231"/>
     <use style="fill:#dbcd00;stroke:#dbcd00;" x="217.681967" xlink:href="#m05889a07d1" y="471.872231"/>
     <use style="fill:#dbcd00;stroke:#dbcd00;" x="222.017631" xlink:href="#m05889a07d1" y="469.088379"/>
     <use style="fill:#dbcd00;stroke:#dbcd00;" x="226.353295" xlink:href="#m05889a07d1" y="469.088379"/>
     <use style="fill:#dbcd00;stroke:#dbcd00;" x="235.024624" xlink:href="#m05889a07d1" y="467.099914"/>
     <use style="fill:#dbcd00;stroke:#dbcd00;" x="239.360288" xlink:href="#m05889a07d1" y="465.906834"/>
     <use style="fill:#dbcd00;stroke:#dbcd00;" x="243.695953" xlink:href="#m05889a07d1" y="464.713755"/>
     <use style="fill:#dbcd00;stroke:#dbcd00;" x="248.031617" xlink:href="#m05889a07d1" y="461.929903"/>
     <use style="fill:#dbcd00;stroke:#dbcd00;" x="252.367281" xlink:href="#m05889a07d1" y="461.53221"/>
     <use style="fill:#dbcd00;stroke:#dbcd00;" x="256.702946" xlink:href="#m05889a07d1" y="461.134517"/>
     <use style="fill:#dbcd00;stroke:#dbcd00;" x="265.374274" xlink:href="#m05889a07d1" y="457.555279"/>
     <use style="fill:#dbcd00;stroke:#dbcd00;" x="269.709939" xlink:href="#m05889a07d1" y="455.16912"/>
     <use style="fill:#dbcd00;stroke:#dbcd00;" x="274.045603" xlink:href="#m05889a07d1" y="453.976041"/>
     <use style="fill:#dbcd00;stroke:#dbcd00;" x="278.381267" xlink:href="#m05889a07d1" y="451.589882"/>
     <use style="fill:#dbcd00;stroke:#dbcd00;" x="287.052596" xlink:href="#m05889a07d1" y="450.396803"/>
     <use style="fill:#dbcd00;stroke:#dbcd00;" x="295.723925" xlink:href="#m05889a07d1" y="447.215258"/>
     <use style="fill:#dbcd00;stroke:#dbcd00;" x="300.059589" xlink:href="#m05889a07d1" y="445.226792"/>
     <use style="fill:#dbcd00;stroke:#dbcd00;" x="304.395253" xlink:href="#m05889a07d1" y="444.033713"/>
     <use style="fill:#dbcd00;stroke:#dbcd00;" x="308.730918" xlink:href="#m05889a07d1" y="442.045247"/>
     <use style="fill:#dbcd00;stroke:#dbcd00;" x="313.066582" xlink:href="#m05889a07d1" y="441.647554"/>
     <use style="fill:#dbcd00;stroke:#dbcd00;" x="317.402247" xlink:href="#m05889a07d1" y="438.863702"/>
     <use style="fill:#dbcd00;stroke:#dbcd00;" x="326.073575" xlink:href="#m05889a07d1" y="436.875237"/>
     <use style="fill:#dbcd00;stroke:#dbcd00;" x="330.40924" xlink:href="#m05889a07d1" y="436.07985"/>
     <use style="fill:#dbcd00;stroke:#dbcd00;" x="334.744904" xlink:href="#m05889a07d1" y="433.295998"/>
     <use style="fill:#dbcd00;stroke:#dbcd00;" x="339.080568" xlink:href="#m05889a07d1" y="433.295998"/>
     <use style="fill:#dbcd00;stroke:#dbcd00;" x="343.416233" xlink:href="#m05889a07d1" y="430.512147"/>
     <use style="fill:#dbcd00;stroke:#dbcd00;" x="347.751897" xlink:href="#m05889a07d1" y="427.728295"/>
     <use style="fill:#dbcd00;stroke:#dbcd00;" x="356.423226" xlink:href="#m05889a07d1" y="425.342136"/>
     <use style="fill:#dbcd00;stroke:#dbcd00;" x="360.75889" xlink:href="#m05889a07d1" y="424.54675"/>
     <use style="fill:#dbcd00;stroke:#dbcd00;" x="365.094554" xlink:href="#m05889a07d1" y="423.35367"/>
     <use style="fill:#dbcd00;stroke:#dbcd00;" x="373.765883" xlink:href="#m05889a07d1" y="420.967512"/>
     <use style="fill:#dbcd00;stroke:#dbcd00;" x="378.101547" xlink:href="#m05889a07d1" y="420.172125"/>
     <use style="fill:#dbcd00;stroke:#dbcd00;" x="386.772876" xlink:href="#m05889a07d1" y="419.774432"/>
     <use style="fill:#dbcd00;stroke:#dbcd00;" x="391.10854" xlink:href="#m05889a07d1" y="419.774432"/>
     <use style="fill:#dbcd00;stroke:#dbcd00;" x="399.779869" xlink:href="#m05889a07d1" y="418.581353"/>
     <use style="fill:#dbcd00;stroke:#dbcd00;" x="404.115533" xlink:href="#m05889a07d1" y="417.388274"/>
     <use style="fill:#dbcd00;stroke:#dbcd00;" x="421.458191" xlink:href="#m05889a07d1" y="416.592887"/>
     <use style="fill:#dbcd00;stroke:#dbcd00;" x="425.793855" xlink:href="#m05889a07d1" y="415.399808"/>
     <use style="fill:#dbcd00;stroke:#dbcd00;" x="430.129519" xlink:href="#m05889a07d1" y="415.002115"/>
     <use style="fill:#dbcd00;stroke:#dbcd00;" x="434.465184" xlink:href="#m05889a07d1" y="414.206729"/>
     <use style="fill:#dbcd00;stroke:#dbcd00;" x="438.800848" xlink:href="#m05889a07d1" y="414.206729"/>
     <use style="fill:#dbcd00;stroke:#dbcd00;" x="447.472177" xlink:href="#m05889a07d1" y="414.206729"/>
     <use style="fill:#dbcd00;stroke:#dbcd00;" x="451.807841" xlink:href="#m05889a07d1" y="413.411342"/>
     <use style="fill:#dbcd00;stroke:#dbcd00;" x="456.143505" xlink:href="#m05889a07d1" y="413.013649"/>
     <use style="fill:#dbcd00;stroke:#dbcd00;" x="464.814834" xlink:href="#m05889a07d1" y="411.422877"/>
     <use style="fill:#dbcd00;stroke:#dbcd00;" x="469.150498" xlink:href="#m05889a07d1" y="411.025184"/>
     <use style="fill:#dbcd00;stroke:#dbcd00;" x="477.821827" xlink:href="#m05889a07d1" y="411.025184"/>
     <use style="fill:#dbcd00;stroke:#dbcd00;" x="486.493156" xlink:href="#m05889a07d1" y="411.025184"/>
     <use style="fill:#dbcd00;stroke:#dbcd00;" x="495.164484" xlink:href="#m05889a07d1" y="408.639025"/>
     <use style="fill:#dbcd00;stroke:#dbcd00;" x="499.500149" xlink:href="#m05889a07d1" y="408.639025"/>
     <use style="fill:#dbcd00;stroke:#dbcd00;" x="508.171477" xlink:href="#m05889a07d1" y="408.241332"/>
     <use style="fill:#dbcd00;stroke:#dbcd00;" x="512.507142" xlink:href="#m05889a07d1" y="407.843639"/>
     <use style="fill:#dbcd00;stroke:#dbcd00;" x="516.842806" xlink:href="#m05889a07d1" y="407.445946"/>
     <use style="fill:#dbcd00;stroke:#dbcd00;" x="521.17847" xlink:href="#m05889a07d1" y="407.445946"/>
     <use style="fill:#dbcd00;stroke:#dbcd00;" x="529.849799" xlink:href="#m05889a07d1" y="407.445946"/>
     <use style="fill:#dbcd00;stroke:#dbcd00;" x="538.521128" xlink:href="#m05889a07d1" y="407.445946"/>
     <use style="fill:#dbcd00;stroke:#dbcd00;" x="542.856792" xlink:href="#m05889a07d1" y="407.445946"/>
     <use style="fill:#dbcd00;stroke:#dbcd00;" x="547.192456" xlink:href="#m05889a07d1" y="407.445946"/>
     <use style="fill:#dbcd00;stroke:#dbcd00;" x="551.528121" xlink:href="#m05889a07d1" y="407.445946"/>
     <use style="fill:#dbcd00;stroke:#dbcd00;" x="555.863785" xlink:href="#m05889a07d1" y="407.445946"/>
     <use style="fill:#dbcd00;stroke:#dbcd00;" x="560.199449" xlink:href="#m05889a07d1" y="407.445946"/>
     <use style="fill:#dbcd00;stroke:#dbcd00;" x="573.206442" xlink:href="#m05889a07d1" y="407.445946"/>
     <use style="fill:#dbcd00;stroke:#dbcd00;" x="577.542107" xlink:href="#m05889a07d1" y="407.445946"/>
     <use style="fill:#dbcd00;stroke:#dbcd00;" x="581.877771" xlink:href="#m05889a07d1" y="407.445946"/>
     <use style="fill:#dbcd00;stroke:#dbcd00;" x="586.213435" xlink:href="#m05889a07d1" y="407.445946"/>
     <use style="fill:#dbcd00;stroke:#dbcd00;" x="599.220428" xlink:href="#m05889a07d1" y="406.252866"/>
     <use style="fill:#dbcd00;stroke:#dbcd00;" x="603.556093" xlink:href="#m05889a07d1" y="405.45748"/>
     <use style="fill:#dbcd00;stroke:#dbcd00;" x="607.891757" xlink:href="#m05889a07d1" y="405.059787"/>
     <use style="fill:#dbcd00;stroke:#dbcd00;" x="612.227421" xlink:href="#m05889a07d1" y="404.264401"/>
     <use style="fill:#dbcd00;stroke:#dbcd00;" x="616.563086" xlink:href="#m05889a07d1" y="404.264401"/>
     <use style="fill:#dbcd00;stroke:#dbcd00;" x="629.570079" xlink:href="#m05889a07d1" y="403.469014"/>
     <use style="fill:#dbcd00;stroke:#dbcd00;" x="642.577072" xlink:href="#m05889a07d1" y="401.480549"/>
     <use style="fill:#dbcd00;stroke:#dbcd00;" x="646.912736" xlink:href="#m05889a07d1" y="401.480549"/>
     <use style="fill:#dbcd00;stroke:#dbcd00;" x="659.919729" xlink:href="#m05889a07d1" y="401.480549"/>
     <use style="fill:#dbcd00;stroke:#dbcd00;" x="664.255393" xlink:href="#m05889a07d1" y="401.480549"/>
     <use style="fill:#dbcd00;stroke:#dbcd00;" x="668.591058" xlink:href="#m05889a07d1" y="401.480549"/>
     <use style="fill:#dbcd00;stroke:#dbcd00;" x="672.926722" xlink:href="#m05889a07d1" y="401.480549"/>
     <use style="fill:#dbcd00;stroke:#dbcd00;" x="677.262386" xlink:href="#m05889a07d1" y="401.480549"/>
     <use style="fill:#dbcd00;stroke:#dbcd00;" x="720.61903" xlink:href="#m05889a07d1" y="390.742835"/>
     <use style="fill:#dbcd00;stroke:#dbcd00;" x="724.954694" xlink:href="#m05889a07d1" y="387.56129"/>
     <use style="fill:#dbcd00;stroke:#dbcd00;" x="733.626023" xlink:href="#m05889a07d1" y="385.970517"/>
     <use style="fill:#dbcd00;stroke:#dbcd00;" x="737.961687" xlink:href="#m05889a07d1" y="385.970517"/>
     <use style="fill:#dbcd00;stroke:#dbcd00;" x="750.96868" xlink:href="#m05889a07d1" y="383.186665"/>
     <use style="fill:#dbcd00;stroke:#dbcd00;" x="755.304344" xlink:href="#m05889a07d1" y="381.1982"/>
     <use style="fill:#dbcd00;stroke:#dbcd00;" x="759.640009" xlink:href="#m05889a07d1" y="380.800507"/>
     <use style="fill:#dbcd00;stroke:#dbcd00;" x="763.975673" xlink:href="#m05889a07d1" y="380.00512"/>
     <use style="fill:#dbcd00;stroke:#dbcd00;" x="768.311337" xlink:href="#m05889a07d1" y="380.00512"/>
     <use style="fill:#dbcd00;stroke:#dbcd00;" x="781.31833" xlink:href="#m05889a07d1" y="379.607427"/>
     <use style="fill:#dbcd00;stroke:#dbcd00;" x="785.653995" xlink:href="#m05889a07d1" y="378.812041"/>
     <use style="fill:#dbcd00;stroke:#dbcd00;" x="789.989659" xlink:href="#m05889a07d1" y="378.414348"/>
     <use style="fill:#dbcd00;stroke:#dbcd00;" x="794.325323" xlink:href="#m05889a07d1" y="377.221269"/>
     <use style="fill:#dbcd00;stroke:#dbcd00;" x="798.660988" xlink:href="#m05889a07d1" y="375.630496"/>
     <use style="fill:#dbcd00;stroke:#dbcd00;" x="811.667981" xlink:href="#m05889a07d1" y="375.232803"/>
     <use style="fill:#dbcd00;stroke:#dbcd00;" x="816.003645" xlink:href="#m05889a07d1" y="375.232803"/>
     <use style="fill:#dbcd00;stroke:#dbcd00;" x="820.339309" xlink:href="#m05889a07d1" y="374.437417"/>
     <use style="fill:#dbcd00;stroke:#dbcd00;" x="824.674974" xlink:href="#m05889a07d1" y="373.244337"/>
     <use style="fill:#dbcd00;stroke:#dbcd00;" x="829.010638" xlink:href="#m05889a07d1" y="373.244337"/>
     <use style="fill:#dbcd00;stroke:#dbcd00;" x="842.017631" xlink:href="#m05889a07d1" y="370.858179"/>
     <use style="fill:#dbcd00;stroke:#dbcd00;" x="846.353295" xlink:href="#m05889a07d1" y="370.062792"/>
     <use style="fill:#dbcd00;stroke:#dbcd00;" x="850.68896" xlink:href="#m05889a07d1" y="369.665099"/>
     <use style="fill:#dbcd00;stroke:#dbcd00;" x="855.024624" xlink:href="#m05889a07d1" y="369.665099"/>
     <use style="fill:#dbcd00;stroke:#dbcd00;" x="859.360288" xlink:href="#m05889a07d1" y="368.074327"/>
     <use style="fill:#dbcd00;stroke:#dbcd00;" x="872.367281" xlink:href="#m05889a07d1" y="368.074327"/>
     <use style="fill:#dbcd00;stroke:#dbcd00;" x="876.702946" xlink:href="#m05889a07d1" y="368.074327"/>
     <use style="fill:#dbcd00;stroke:#dbcd00;" x="881.03861" xlink:href="#m05889a07d1" y="367.676634"/>
     <use style="fill:#dbcd00;stroke:#dbcd00;" x="885.374274" xlink:href="#m05889a07d1" y="366.483554"/>
     <use style="fill:#dbcd00;stroke:#dbcd00;" x="889.709939" xlink:href="#m05889a07d1" y="366.483554"/>
     <use style="fill:#dbcd00;stroke:#dbcd00;" x="902.716932" xlink:href="#m05889a07d1" y="365.688168"/>
     <use style="fill:#dbcd00;stroke:#dbcd00;" x="907.052596" xlink:href="#m05889a07d1" y="365.688168"/>
     <use style="fill:#dbcd00;stroke:#dbcd00;" x="911.38826" xlink:href="#m05889a07d1" y="364.892782"/>
     <use style="fill:#dbcd00;stroke:#dbcd00;" x="915.723925" xlink:href="#m05889a07d1" y="364.097396"/>
     <use style="fill:#dbcd00;stroke:#dbcd00;" x="920.059589" xlink:href="#m05889a07d1" y="363.699702"/>
     <use style="fill:#dbcd00;stroke:#dbcd00;" x="933.066582" xlink:href="#m05889a07d1" y="362.904316"/>
     <use style="fill:#dbcd00;stroke:#dbcd00;" x="937.402247" xlink:href="#m05889a07d1" y="361.313544"/>
     <use style="fill:#dbcd00;stroke:#dbcd00;" x="941.737911" xlink:href="#m05889a07d1" y="361.313544"/>
     <use style="fill:#dbcd00;stroke:#dbcd00;" x="946.073575" xlink:href="#m05889a07d1" y="360.915851"/>
     <use style="fill:#dbcd00;stroke:#dbcd00;" x="950.40924" xlink:href="#m05889a07d1" y="360.518157"/>
     <use style="fill:#dbcd00;stroke:#dbcd00;" x="963.416233" xlink:href="#m05889a07d1" y="354.950454"/>
     <use style="fill:#dbcd00;stroke:#dbcd00;" x="967.751897" xlink:href="#m05889a07d1" y="354.552761"/>
     <use style="fill:#dbcd00;stroke:#dbcd00;" x="972.087561" xlink:href="#m05889a07d1" y="352.961988"/>
     <use style="fill:#dbcd00;stroke:#dbcd00;" x="976.423226" xlink:href="#m05889a07d1" y="349.38275"/>
     <use style="fill:#dbcd00;stroke:#dbcd00;" x="993.765883" xlink:href="#m05889a07d1" y="345.803512"/>
     <use style="fill:#dbcd00;stroke:#dbcd00;" x="998.101547" xlink:href="#m05889a07d1" y="345.008126"/>
     <use style="fill:#dbcd00;stroke:#dbcd00;" x="1028.451198" xlink:href="#m05889a07d1" y="334.270412"/>
     <use style="fill:#dbcd00;stroke:#dbcd00;" x="1032.786862" xlink:href="#m05889a07d1" y="331.088867"/>
     <use style="fill:#dbcd00;stroke:#dbcd00;" x="1037.122526" xlink:href="#m05889a07d1" y="325.521163"/>
     <use style="fill:#dbcd00;stroke:#dbcd00;" x="1041.458191" xlink:href="#m05889a07d1" y="325.12347"/>
     <use style="fill:#dbcd00;stroke:#dbcd00;" x="1054.465184" xlink:href="#m05889a07d1" y="319.158073"/>
     <use style="fill:#dbcd00;stroke:#dbcd00;" x="1058.800848" xlink:href="#m05889a07d1" y="318.76038"/>
     <use style="fill:#dbcd00;stroke:#dbcd00;" x="1063.136512" xlink:href="#m05889a07d1" y="311.204211"/>
     <use style="fill:#dbcd00;stroke:#dbcd00;" x="1067.472177" xlink:href="#m05889a07d1" y="308.420359"/>
     <use style="fill:#dbcd00;stroke:#dbcd00;" x="1071.807841" xlink:href="#m05889a07d1" y="306.431893"/>
     <use style="fill:#dbcd00;stroke:#dbcd00;" x="1084.814834" xlink:href="#m05889a07d1" y="298.478031"/>
     <use style="fill:#dbcd00;stroke:#dbcd00;" x="1089.150498" xlink:href="#m05889a07d1" y="298.478031"/>
     <use style="fill:#dbcd00;stroke:#dbcd00;" x="1093.486163" xlink:href="#m05889a07d1" y="298.478031"/>
     <use style="fill:#dbcd00;stroke:#dbcd00;" x="1097.821827" xlink:href="#m05889a07d1" y="294.5011"/>
     <use style="fill:#dbcd00;stroke:#dbcd00;" x="1102.157491" xlink:href="#m05889a07d1" y="290.524168"/>
     <use style="fill:#dbcd00;stroke:#dbcd00;" x="1115.164484" xlink:href="#m05889a07d1" y="286.547237"/>
     <use style="fill:#dbcd00;stroke:#dbcd00;" x="1123.835813" xlink:href="#m05889a07d1" y="266.662581"/>
     <use style="fill:#dbcd00;stroke:#dbcd00;" x="1128.171477" xlink:href="#m05889a07d1" y="258.708719"/>
    </g>
   </g>
   <g id="line2d_36">
    <path clip-path="url(#pd7b8b3d674)" d="M 113.626023 483.405332 
L 117.961687 483.007638 
L 122.297351 480.223787 
L 126.633016 482.609945 
L 130.96868 481.019173 
L 135.304344 479.030707 
L 139.640009 478.633014 
L 143.975673 477.837628 
L 148.311337 476.246855 
L 152.647002 476.246855 
L 156.982666 475.053776 
L 161.31833 476.246855 
L 165.653995 476.246855 
L 169.989659 475.849162 
L 174.325323 474.656083 
L 182.996652 471.474538 
L 187.332316 470.679152 
L 191.667981 471.474538 
L 200.339309 471.474538 
L 209.010638 471.076845 
L 213.346302 469.088379 
L 217.681967 468.690686 
L 222.017631 469.883765 
L 226.353295 468.690686 
L 235.024624 469.088379 
L 239.360288 466.702221 
L 243.695953 467.8953 
L 248.031617 469.486072 
L 252.367281 469.088379 
L 256.702946 464.316062 
L 265.374274 467.099914 
L 269.709939 468.690686 
L 274.045603 469.486072 
L 278.381267 471.076845 
L 287.052596 469.088379 
L 295.723925 472.269924 
L 300.059589 469.088379 
L 304.395253 467.497607 
L 308.730918 469.486072 
L 313.066582 469.883765 
L 317.402247 471.872231 
L 326.073575 473.463004 
L 330.40924 473.860697 
L 334.744904 474.656083 
L 339.080568 474.656083 
L 343.416233 477.439935 
L 347.751897 479.4284 
L 356.423226 481.814559 
L 360.75889 482.212252 
L 373.765883 485.79149 
L 386.772876 484.598411 
L 391.10854 484.598411 
L 399.779869 484.996104 
L 404.115533 486.189183 
L 421.458191 484.996104 
L 425.793855 485.79149 
L 430.129519 485.393797 
L 434.465184 486.586877 
L 447.472177 486.586877 
L 451.807841 487.382263 
L 456.143505 486.586877 
L 464.814834 487.382263 
L 469.150498 486.98457 
L 486.493156 486.98457 
L 495.164484 489.370728 
L 499.500149 488.973035 
L 508.171477 489.370728 
L 512.507142 489.370728 
L 516.842806 490.166115 
L 542.856792 490.166115 
L 555.863785 488.973035 
L 560.199449 487.382263 
L 573.206442 487.382263 
L 577.542107 486.586877 
L 599.220428 486.586877 
L 603.556093 487.382263 
L 607.891757 487.779956 
L 612.227421 488.575342 
L 616.563086 486.98457 
L 629.570079 486.98457 
L 642.577072 485.393797 
L 646.912736 485.393797 
L 659.919729 480.62148 
L 668.591058 480.62148 
L 672.926722 479.4284 
L 677.262386 473.860697 
L 720.61903 478.235321 
L 724.954694 481.416866 
L 733.626023 482.212252 
L 750.96868 482.212252 
L 755.304344 484.200718 
L 759.640009 484.598411 
L 763.975673 485.393797 
L 768.311337 484.598411 
L 781.31833 483.803025 
L 785.653995 484.598411 
L 789.989659 484.598411 
L 798.660988 485.393797 
L 811.667981 485.393797 
L 820.339309 484.598411 
L 824.674974 485.79149 
L 829.010638 484.996104 
L 842.017631 485.393797 
L 846.353295 486.189183 
L 850.68896 484.200718 
L 855.024624 484.200718 
L 859.360288 485.393797 
L 872.367281 484.996104 
L 876.702946 484.598411 
L 881.03861 484.598411 
L 885.374274 485.79149 
L 889.709939 485.79149 
L 902.716932 483.405332 
L 907.052596 483.405332 
L 915.723925 484.200718 
L 920.059589 482.212252 
L 933.066582 478.633014 
L 937.402247 479.4284 
L 941.737911 476.644549 
L 946.073575 475.053776 
L 950.40924 475.451469 
L 963.416233 473.860697 
L 967.751897 473.860697 
L 972.087561 472.269924 
L 976.423226 475.849162 
L 998.101547 473.463004 
L 1028.451198 459.146051 
L 1032.786862 461.53221 
L 1037.122526 461.134517 
L 1041.458191 461.53221 
L 1054.465184 428.523681 
L 1058.800848 420.569819 
L 1067.472177 408.639025 
L 1071.807841 393.128993 
L 1084.814834 348.587364 
L 1089.150498 340.633501 
L 1093.486163 329.100401 
L 1097.821827 308.022666 
L 1102.157491 286.149544 
L 1115.164484 261.492571 
L 1123.835813 260.299491 
L 1128.171477 258.708719 
L 1128.171477 258.708719 
" style="fill:none;stroke:#2792cb;stroke-linecap:square;stroke-width:2;"/>
    <defs>
     <path d="M 0 1.5 
C 0.397805 1.5 0.77937 1.341951 1.06066 1.06066 
C 1.341951 0.77937 1.5 0.397805 1.5 0 
C 1.5 -0.397805 1.341951 -0.77937 1.06066 -1.06066 
C 0.77937 -1.341951 0.397805 -1.5 0 -1.5 
C -0.397805 -1.5 -0.77937 -1.341951 -1.06066 -1.06066 
C -1.341951 -0.77937 -1.5 -0.397805 -1.5 0 
C -1.5 0.397805 -1.341951 0.77937 -1.06066 1.06066 
C -0.77937 1.341951 -0.397805 1.5 0 1.5 
z
" id="m59b314af4c" style="stroke:#2792cb;"/>
    </defs>
    <g clip-path="url(#pd7b8b3d674)">
     <use style="fill:#2792cb;stroke:#2792cb;" x="113.626023" xlink:href="#m59b314af4c" y="483.405332"/>
     <use style="fill:#2792cb;stroke:#2792cb;" x="117.961687" xlink:href="#m59b314af4c" y="483.007638"/>
     <use style="fill:#2792cb;stroke:#2792cb;" x="122.297351" xlink:href="#m59b314af4c" y="480.223787"/>
     <use style="fill:#2792cb;stroke:#2792cb;" x="126.633016" xlink:href="#m59b314af4c" y="482.609945"/>
     <use style="fill:#2792cb;stroke:#2792cb;" x="130.96868" xlink:href="#m59b314af4c" y="481.019173"/>
     <use style="fill:#2792cb;stroke:#2792cb;" x="135.304344" xlink:href="#m59b314af4c" y="479.030707"/>
     <use style="fill:#2792cb;stroke:#2792cb;" x="139.640009" xlink:href="#m59b314af4c" y="478.633014"/>
     <use style="fill:#2792cb;stroke:#2792cb;" x="143.975673" xlink:href="#m59b314af4c" y="477.837628"/>
     <use style="fill:#2792cb;stroke:#2792cb;" x="148.311337" xlink:href="#m59b314af4c" y="476.246855"/>
     <use style="fill:#2792cb;stroke:#2792cb;" x="152.647002" xlink:href="#m59b314af4c" y="476.246855"/>
     <use style="fill:#2792cb;stroke:#2792cb;" x="156.982666" xlink:href="#m59b314af4c" y="475.053776"/>
     <use style="fill:#2792cb;stroke:#2792cb;" x="161.31833" xlink:href="#m59b314af4c" y="476.246855"/>
     <use style="fill:#2792cb;stroke:#2792cb;" x="165.653995" xlink:href="#m59b314af4c" y="476.246855"/>
     <use style="fill:#2792cb;stroke:#2792cb;" x="169.989659" xlink:href="#m59b314af4c" y="475.849162"/>
     <use style="fill:#2792cb;stroke:#2792cb;" x="174.325323" xlink:href="#m59b314af4c" y="474.656083"/>
     <use style="fill:#2792cb;stroke:#2792cb;" x="178.660988" xlink:href="#m59b314af4c" y="473.06531"/>
     <use style="fill:#2792cb;stroke:#2792cb;" x="182.996652" xlink:href="#m59b314af4c" y="471.474538"/>
     <use style="fill:#2792cb;stroke:#2792cb;" x="187.332316" xlink:href="#m59b314af4c" y="470.679152"/>
     <use style="fill:#2792cb;stroke:#2792cb;" x="191.667981" xlink:href="#m59b314af4c" y="471.474538"/>
     <use style="fill:#2792cb;stroke:#2792cb;" x="200.339309" xlink:href="#m59b314af4c" y="471.474538"/>
     <use style="fill:#2792cb;stroke:#2792cb;" x="209.010638" xlink:href="#m59b314af4c" y="471.076845"/>
     <use style="fill:#2792cb;stroke:#2792cb;" x="213.346302" xlink:href="#m59b314af4c" y="469.088379"/>
     <use style="fill:#2792cb;stroke:#2792cb;" x="217.681967" xlink:href="#m59b314af4c" y="468.690686"/>
     <use style="fill:#2792cb;stroke:#2792cb;" x="222.017631" xlink:href="#m59b314af4c" y="469.883765"/>
     <use style="fill:#2792cb;stroke:#2792cb;" x="226.353295" xlink:href="#m59b314af4c" y="468.690686"/>
     <use style="fill:#2792cb;stroke:#2792cb;" x="235.024624" xlink:href="#m59b314af4c" y="469.088379"/>
     <use style="fill:#2792cb;stroke:#2792cb;" x="239.360288" xlink:href="#m59b314af4c" y="466.702221"/>
     <use style="fill:#2792cb;stroke:#2792cb;" x="243.695953" xlink:href="#m59b314af4c" y="467.8953"/>
     <use style="fill:#2792cb;stroke:#2792cb;" x="248.031617" xlink:href="#m59b314af4c" y="469.486072"/>
     <use style="fill:#2792cb;stroke:#2792cb;" x="252.367281" xlink:href="#m59b314af4c" y="469.088379"/>
     <use style="fill:#2792cb;stroke:#2792cb;" x="256.702946" xlink:href="#m59b314af4c" y="464.316062"/>
     <use style="fill:#2792cb;stroke:#2792cb;" x="265.374274" xlink:href="#m59b314af4c" y="467.099914"/>
     <use style="fill:#2792cb;stroke:#2792cb;" x="269.709939" xlink:href="#m59b314af4c" y="468.690686"/>
     <use style="fill:#2792cb;stroke:#2792cb;" x="274.045603" xlink:href="#m59b314af4c" y="469.486072"/>
     <use style="fill:#2792cb;stroke:#2792cb;" x="278.381267" xlink:href="#m59b314af4c" y="471.076845"/>
     <use style="fill:#2792cb;stroke:#2792cb;" x="287.052596" xlink:href="#m59b314af4c" y="469.088379"/>
     <use style="fill:#2792cb;stroke:#2792cb;" x="295.723925" xlink:href="#m59b314af4c" y="472.269924"/>
     <use style="fill:#2792cb;stroke:#2792cb;" x="300.059589" xlink:href="#m59b314af4c" y="469.088379"/>
     <use style="fill:#2792cb;stroke:#2792cb;" x="304.395253" xlink:href="#m59b314af4c" y="467.497607"/>
     <use style="fill:#2792cb;stroke:#2792cb;" x="308.730918" xlink:href="#m59b314af4c" y="469.486072"/>
     <use style="fill:#2792cb;stroke:#2792cb;" x="313.066582" xlink:href="#m59b314af4c" y="469.883765"/>
     <use style="fill:#2792cb;stroke:#2792cb;" x="317.402247" xlink:href="#m59b314af4c" y="471.872231"/>
     <use style="fill:#2792cb;stroke:#2792cb;" x="326.073575" xlink:href="#m59b314af4c" y="473.463004"/>
     <use style="fill:#2792cb;stroke:#2792cb;" x="330.40924" xlink:href="#m59b314af4c" y="473.860697"/>
     <use style="fill:#2792cb;stroke:#2792cb;" x="334.744904" xlink:href="#m59b314af4c" y="474.656083"/>
     <use style="fill:#2792cb;stroke:#2792cb;" x="339.080568" xlink:href="#m59b314af4c" y="474.656083"/>
     <use style="fill:#2792cb;stroke:#2792cb;" x="343.416233" xlink:href="#m59b314af4c" y="477.439935"/>
     <use style="fill:#2792cb;stroke:#2792cb;" x="347.751897" xlink:href="#m59b314af4c" y="479.4284"/>
     <use style="fill:#2792cb;stroke:#2792cb;" x="356.423226" xlink:href="#m59b314af4c" y="481.814559"/>
     <use style="fill:#2792cb;stroke:#2792cb;" x="360.75889" xlink:href="#m59b314af4c" y="482.212252"/>
     <use style="fill:#2792cb;stroke:#2792cb;" x="365.094554" xlink:href="#m59b314af4c" y="483.405332"/>
     <use style="fill:#2792cb;stroke:#2792cb;" x="373.765883" xlink:href="#m59b314af4c" y="485.79149"/>
     <use style="fill:#2792cb;stroke:#2792cb;" x="378.101547" xlink:href="#m59b314af4c" y="485.393797"/>
     <use style="fill:#2792cb;stroke:#2792cb;" x="386.772876" xlink:href="#m59b314af4c" y="484.598411"/>
     <use style="fill:#2792cb;stroke:#2792cb;" x="391.10854" xlink:href="#m59b314af4c" y="484.598411"/>
     <use style="fill:#2792cb;stroke:#2792cb;" x="399.779869" xlink:href="#m59b314af4c" y="484.996104"/>
     <use style="fill:#2792cb;stroke:#2792cb;" x="404.115533" xlink:href="#m59b314af4c" y="486.189183"/>
     <use style="fill:#2792cb;stroke:#2792cb;" x="421.458191" xlink:href="#m59b314af4c" y="484.996104"/>
     <use style="fill:#2792cb;stroke:#2792cb;" x="425.793855" xlink:href="#m59b314af4c" y="485.79149"/>
     <use style="fill:#2792cb;stroke:#2792cb;" x="430.129519" xlink:href="#m59b314af4c" y="485.393797"/>
     <use style="fill:#2792cb;stroke:#2792cb;" x="434.465184" xlink:href="#m59b314af4c" y="486.586877"/>
     <use style="fill:#2792cb;stroke:#2792cb;" x="438.800848" xlink:href="#m59b314af4c" y="486.586877"/>
     <use style="fill:#2792cb;stroke:#2792cb;" x="447.472177" xlink:href="#m59b314af4c" y="486.586877"/>
     <use style="fill:#2792cb;stroke:#2792cb;" x="451.807841" xlink:href="#m59b314af4c" y="487.382263"/>
     <use style="fill:#2792cb;stroke:#2792cb;" x="456.143505" xlink:href="#m59b314af4c" y="486.586877"/>
     <use style="fill:#2792cb;stroke:#2792cb;" x="464.814834" xlink:href="#m59b314af4c" y="487.382263"/>
     <use style="fill:#2792cb;stroke:#2792cb;" x="469.150498" xlink:href="#m59b314af4c" y="486.98457"/>
     <use style="fill:#2792cb;stroke:#2792cb;" x="477.821827" xlink:href="#m59b314af4c" y="486.98457"/>
     <use style="fill:#2792cb;stroke:#2792cb;" x="486.493156" xlink:href="#m59b314af4c" y="486.98457"/>
     <use style="fill:#2792cb;stroke:#2792cb;" x="495.164484" xlink:href="#m59b314af4c" y="489.370728"/>
     <use style="fill:#2792cb;stroke:#2792cb;" x="499.500149" xlink:href="#m59b314af4c" y="488.973035"/>
     <use style="fill:#2792cb;stroke:#2792cb;" x="508.171477" xlink:href="#m59b314af4c" y="489.370728"/>
     <use style="fill:#2792cb;stroke:#2792cb;" x="512.507142" xlink:href="#m59b314af4c" y="489.370728"/>
     <use style="fill:#2792cb;stroke:#2792cb;" x="516.842806" xlink:href="#m59b314af4c" y="490.166115"/>
     <use style="fill:#2792cb;stroke:#2792cb;" x="521.17847" xlink:href="#m59b314af4c" y="490.166115"/>
     <use style="fill:#2792cb;stroke:#2792cb;" x="529.849799" xlink:href="#m59b314af4c" y="490.166115"/>
     <use style="fill:#2792cb;stroke:#2792cb;" x="538.521128" xlink:href="#m59b314af4c" y="490.166115"/>
     <use style="fill:#2792cb;stroke:#2792cb;" x="542.856792" xlink:href="#m59b314af4c" y="490.166115"/>
     <use style="fill:#2792cb;stroke:#2792cb;" x="547.192456" xlink:href="#m59b314af4c" y="489.768421"/>
     <use style="fill:#2792cb;stroke:#2792cb;" x="551.528121" xlink:href="#m59b314af4c" y="489.370728"/>
     <use style="fill:#2792cb;stroke:#2792cb;" x="555.863785" xlink:href="#m59b314af4c" y="488.973035"/>
     <use style="fill:#2792cb;stroke:#2792cb;" x="560.199449" xlink:href="#m59b314af4c" y="487.382263"/>
     <use style="fill:#2792cb;stroke:#2792cb;" x="573.206442" xlink:href="#m59b314af4c" y="487.382263"/>
     <use style="fill:#2792cb;stroke:#2792cb;" x="577.542107" xlink:href="#m59b314af4c" y="486.586877"/>
     <use style="fill:#2792cb;stroke:#2792cb;" x="581.877771" xlink:href="#m59b314af4c" y="486.586877"/>
     <use style="fill:#2792cb;stroke:#2792cb;" x="586.213435" xlink:href="#m59b314af4c" y="486.586877"/>
     <use style="fill:#2792cb;stroke:#2792cb;" x="599.220428" xlink:href="#m59b314af4c" y="486.586877"/>
     <use style="fill:#2792cb;stroke:#2792cb;" x="603.556093" xlink:href="#m59b314af4c" y="487.382263"/>
     <use style="fill:#2792cb;stroke:#2792cb;" x="607.891757" xlink:href="#m59b314af4c" y="487.779956"/>
     <use style="fill:#2792cb;stroke:#2792cb;" x="612.227421" xlink:href="#m59b314af4c" y="488.575342"/>
     <use style="fill:#2792cb;stroke:#2792cb;" x="616.563086" xlink:href="#m59b314af4c" y="486.98457"/>
     <use style="fill:#2792cb;stroke:#2792cb;" x="629.570079" xlink:href="#m59b314af4c" y="486.98457"/>
     <use style="fill:#2792cb;stroke:#2792cb;" x="642.577072" xlink:href="#m59b314af4c" y="485.393797"/>
     <use style="fill:#2792cb;stroke:#2792cb;" x="646.912736" xlink:href="#m59b314af4c" y="485.393797"/>
     <use style="fill:#2792cb;stroke:#2792cb;" x="659.919729" xlink:href="#m59b314af4c" y="480.62148"/>
     <use style="fill:#2792cb;stroke:#2792cb;" x="664.255393" xlink:href="#m59b314af4c" y="480.62148"/>
     <use style="fill:#2792cb;stroke:#2792cb;" x="668.591058" xlink:href="#m59b314af4c" y="480.62148"/>
     <use style="fill:#2792cb;stroke:#2792cb;" x="672.926722" xlink:href="#m59b314af4c" y="479.4284"/>
     <use style="fill:#2792cb;stroke:#2792cb;" x="677.262386" xlink:href="#m59b314af4c" y="473.860697"/>
     <use style="fill:#2792cb;stroke:#2792cb;" x="720.61903" xlink:href="#m59b314af4c" y="478.235321"/>
     <use style="fill:#2792cb;stroke:#2792cb;" x="724.954694" xlink:href="#m59b314af4c" y="481.416866"/>
     <use style="fill:#2792cb;stroke:#2792cb;" x="733.626023" xlink:href="#m59b314af4c" y="482.212252"/>
     <use style="fill:#2792cb;stroke:#2792cb;" x="737.961687" xlink:href="#m59b314af4c" y="482.212252"/>
     <use style="fill:#2792cb;stroke:#2792cb;" x="750.96868" xlink:href="#m59b314af4c" y="482.212252"/>
     <use style="fill:#2792cb;stroke:#2792cb;" x="755.304344" xlink:href="#m59b314af4c" y="484.200718"/>
     <use style="fill:#2792cb;stroke:#2792cb;" x="759.640009" xlink:href="#m59b314af4c" y="484.598411"/>
     <use style="fill:#2792cb;stroke:#2792cb;" x="763.975673" xlink:href="#m59b314af4c" y="485.393797"/>
     <use style="fill:#2792cb;stroke:#2792cb;" x="768.311337" xlink:href="#m59b314af4c" y="484.598411"/>
     <use style="fill:#2792cb;stroke:#2792cb;" x="781.31833" xlink:href="#m59b314af4c" y="483.803025"/>
     <use style="fill:#2792cb;stroke:#2792cb;" x="785.653995" xlink:href="#m59b314af4c" y="484.598411"/>
     <use style="fill:#2792cb;stroke:#2792cb;" x="789.989659" xlink:href="#m59b314af4c" y="484.598411"/>
     <use style="fill:#2792cb;stroke:#2792cb;" x="794.325323" xlink:href="#m59b314af4c" y="484.996104"/>
     <use style="fill:#2792cb;stroke:#2792cb;" x="798.660988" xlink:href="#m59b314af4c" y="485.393797"/>
     <use style="fill:#2792cb;stroke:#2792cb;" x="811.667981" xlink:href="#m59b314af4c" y="485.393797"/>
     <use style="fill:#2792cb;stroke:#2792cb;" x="816.003645" xlink:href="#m59b314af4c" y="484.996104"/>
     <use style="fill:#2792cb;stroke:#2792cb;" x="820.339309" xlink:href="#m59b314af4c" y="484.598411"/>
     <use style="fill:#2792cb;stroke:#2792cb;" x="824.674974" xlink:href="#m59b314af4c" y="485.79149"/>
     <use style="fill:#2792cb;stroke:#2792cb;" x="829.010638" xlink:href="#m59b314af4c" y="484.996104"/>
     <use style="fill:#2792cb;stroke:#2792cb;" x="842.017631" xlink:href="#m59b314af4c" y="485.393797"/>
     <use style="fill:#2792cb;stroke:#2792cb;" x="846.353295" xlink:href="#m59b314af4c" y="486.189183"/>
     <use style="fill:#2792cb;stroke:#2792cb;" x="850.68896" xlink:href="#m59b314af4c" y="484.200718"/>
     <use style="fill:#2792cb;stroke:#2792cb;" x="855.024624" xlink:href="#m59b314af4c" y="484.200718"/>
     <use style="fill:#2792cb;stroke:#2792cb;" x="859.360288" xlink:href="#m59b314af4c" y="485.393797"/>
     <use style="fill:#2792cb;stroke:#2792cb;" x="872.367281" xlink:href="#m59b314af4c" y="484.996104"/>
     <use style="fill:#2792cb;stroke:#2792cb;" x="876.702946" xlink:href="#m59b314af4c" y="484.598411"/>
     <use style="fill:#2792cb;stroke:#2792cb;" x="881.03861" xlink:href="#m59b314af4c" y="484.598411"/>
     <use style="fill:#2792cb;stroke:#2792cb;" x="885.374274" xlink:href="#m59b314af4c" y="485.79149"/>
     <use style="fill:#2792cb;stroke:#2792cb;" x="889.709939" xlink:href="#m59b314af4c" y="485.79149"/>
     <use style="fill:#2792cb;stroke:#2792cb;" x="902.716932" xlink:href="#m59b314af4c" y="483.405332"/>
     <use style="fill:#2792cb;stroke:#2792cb;" x="907.052596" xlink:href="#m59b314af4c" y="483.405332"/>
     <use style="fill:#2792cb;stroke:#2792cb;" x="911.38826" xlink:href="#m59b314af4c" y="483.803025"/>
     <use style="fill:#2792cb;stroke:#2792cb;" x="915.723925" xlink:href="#m59b314af4c" y="484.200718"/>
     <use style="fill:#2792cb;stroke:#2792cb;" x="920.059589" xlink:href="#m59b314af4c" y="482.212252"/>
     <use style="fill:#2792cb;stroke:#2792cb;" x="933.066582" xlink:href="#m59b314af4c" y="478.633014"/>
     <use style="fill:#2792cb;stroke:#2792cb;" x="937.402247" xlink:href="#m59b314af4c" y="479.4284"/>
     <use style="fill:#2792cb;stroke:#2792cb;" x="941.737911" xlink:href="#m59b314af4c" y="476.644549"/>
     <use style="fill:#2792cb;stroke:#2792cb;" x="946.073575" xlink:href="#m59b314af4c" y="475.053776"/>
     <use style="fill:#2792cb;stroke:#2792cb;" x="950.40924" xlink:href="#m59b314af4c" y="475.451469"/>
     <use style="fill:#2792cb;stroke:#2792cb;" x="963.416233" xlink:href="#m59b314af4c" y="473.860697"/>
     <use style="fill:#2792cb;stroke:#2792cb;" x="967.751897" xlink:href="#m59b314af4c" y="473.860697"/>
     <use style="fill:#2792cb;stroke:#2792cb;" x="972.087561" xlink:href="#m59b314af4c" y="472.269924"/>
     <use style="fill:#2792cb;stroke:#2792cb;" x="976.423226" xlink:href="#m59b314af4c" y="475.849162"/>
     <use style="fill:#2792cb;stroke:#2792cb;" x="993.765883" xlink:href="#m59b314af4c" y="473.860697"/>
     <use style="fill:#2792cb;stroke:#2792cb;" x="998.101547" xlink:href="#m59b314af4c" y="473.463004"/>
     <use style="fill:#2792cb;stroke:#2792cb;" x="1028.451198" xlink:href="#m59b314af4c" y="459.146051"/>
     <use style="fill:#2792cb;stroke:#2792cb;" x="1032.786862" xlink:href="#m59b314af4c" y="461.53221"/>
     <use style="fill:#2792cb;stroke:#2792cb;" x="1037.122526" xlink:href="#m59b314af4c" y="461.134517"/>
     <use style="fill:#2792cb;stroke:#2792cb;" x="1041.458191" xlink:href="#m59b314af4c" y="461.53221"/>
     <use style="fill:#2792cb;stroke:#2792cb;" x="1054.465184" xlink:href="#m59b314af4c" y="428.523681"/>
     <use style="fill:#2792cb;stroke:#2792cb;" x="1058.800848" xlink:href="#m59b314af4c" y="420.569819"/>
     <use style="fill:#2792cb;stroke:#2792cb;" x="1063.136512" xlink:href="#m59b314af4c" y="414.604422"/>
     <use style="fill:#2792cb;stroke:#2792cb;" x="1067.472177" xlink:href="#m59b314af4c" y="408.639025"/>
     <use style="fill:#2792cb;stroke:#2792cb;" x="1071.807841" xlink:href="#m59b314af4c" y="393.128993"/>
     <use style="fill:#2792cb;stroke:#2792cb;" x="1084.814834" xlink:href="#m59b314af4c" y="348.587364"/>
     <use style="fill:#2792cb;stroke:#2792cb;" x="1089.150498" xlink:href="#m59b314af4c" y="340.633501"/>
     <use style="fill:#2792cb;stroke:#2792cb;" x="1093.486163" xlink:href="#m59b314af4c" y="329.100401"/>
     <use style="fill:#2792cb;stroke:#2792cb;" x="1097.821827" xlink:href="#m59b314af4c" y="308.022666"/>
     <use style="fill:#2792cb;stroke:#2792cb;" x="1102.157491" xlink:href="#m59b314af4c" y="286.149544"/>
     <use style="fill:#2792cb;stroke:#2792cb;" x="1115.164484" xlink:href="#m59b314af4c" y="261.492571"/>
     <use style="fill:#2792cb;stroke:#2792cb;" x="1123.835813" xlink:href="#m59b314af4c" y="260.299491"/>
     <use style="fill:#2792cb;stroke:#2792cb;" x="1128.171477" xlink:href="#m59b314af4c" y="258.708719"/>
    </g>
   </g>
   <g id="patch_3">
    <path d="M 62.89875 501.738984 
L 1178.89875 501.738984 
" style="fill:none;stroke:#000000;stroke-linecap:square;stroke-linejoin:miter;stroke-width:0.8;"/>
   </g>
   <g id="legend_1">
    <g id="line2d_37">
     <path d="M 1091.653438 25.237422 
L 1111.653438 25.237422 
" style="fill:none;stroke:#dbcd00;stroke-linecap:square;stroke-width:2;"/>
    </g>
    <g id="line2d_38">
     <g>
      <use style="fill:#dbcd00;stroke:#dbcd00;" x="1101.653438" xlink:href="#m05889a07d1" y="25.237422"/>
     </g>
    </g>
    <g id="text_23">
     <!-- Genesene -->
     <defs>
      <path d="M 59.515625 10.40625 
L 59.515625 29.984375 
L 43.40625 29.984375 
L 43.40625 38.09375 
L 69.28125 38.09375 
L 69.28125 6.78125 
Q 63.578125 2.734375 56.6875 0.65625 
Q 49.8125 -1.421875 42 -1.421875 
Q 24.90625 -1.421875 15.25 8.5625 
Q 5.609375 18.5625 5.609375 36.375 
Q 5.609375 54.25 15.25 64.234375 
Q 24.90625 74.21875 42 74.21875 
Q 49.125 74.21875 55.546875 72.453125 
Q 61.96875 70.703125 67.390625 67.28125 
L 67.390625 56.78125 
Q 61.921875 61.421875 55.765625 63.765625 
Q 49.609375 66.109375 42.828125 66.109375 
Q 29.4375 66.109375 22.71875 58.640625 
Q 16.015625 51.171875 16.015625 36.375 
Q 16.015625 21.625 22.71875 14.15625 
Q 29.4375 6.6875 42.828125 6.6875 
Q 48.046875 6.6875 52.140625 7.59375 
Q 56.25 8.5 59.515625 10.40625 
z
" id="DejaVuSans-71"/>
      <path d="M 44.28125 53.078125 
L 44.28125 44.578125 
Q 40.484375 46.53125 36.375 47.5 
Q 32.28125 48.484375 27.875 48.484375 
Q 21.1875 48.484375 17.84375 46.4375 
Q 14.5 44.390625 14.5 40.28125 
Q 14.5 37.15625 16.890625 35.375 
Q 19.28125 33.59375 26.515625 31.984375 
L 29.59375 31.296875 
Q 39.15625 29.25 43.1875 25.515625 
Q 47.21875 21.78125 47.21875 15.09375 
Q 47.21875 7.46875 41.1875 3.015625 
Q 35.15625 -1.421875 24.609375 -1.421875 
Q 20.21875 -1.421875 15.453125 -0.5625 
Q 10.6875 0.296875 5.421875 2 
L 5.421875 11.28125 
Q 10.40625 8.6875 15.234375 7.390625 
Q 20.0625 6.109375 24.8125 6.109375 
Q 31.15625 6.109375 34.5625 8.28125 
Q 37.984375 10.453125 37.984375 14.40625 
Q 37.984375 18.0625 35.515625 20.015625 
Q 33.0625 21.96875 24.703125 23.78125 
L 21.578125 24.515625 
Q 13.234375 26.265625 9.515625 29.90625 
Q 5.8125 33.546875 5.8125 39.890625 
Q 5.8125 47.609375 11.28125 51.796875 
Q 16.75 56 26.8125 56 
Q 31.78125 56 36.171875 55.265625 
Q 40.578125 54.546875 44.28125 53.078125 
z
" id="DejaVuSans-115"/>
     </defs>
     <g transform="translate(1119.653438 28.737422)scale(0.1 -0.1)">
      <use xlink:href="#DejaVuSans-71"/>
      <use x="77.490234" xlink:href="#DejaVuSans-101"/>
      <use x="139.013672" xlink:href="#DejaVuSans-110"/>
      <use x="202.392578" xlink:href="#DejaVuSans-101"/>
      <use x="263.916016" xlink:href="#DejaVuSans-115"/>
      <use x="316.015625" xlink:href="#DejaVuSans-101"/>
      <use x="377.539062" xlink:href="#DejaVuSans-110"/>
      <use x="440.917969" xlink:href="#DejaVuSans-101"/>
     </g>
    </g>
    <g id="line2d_39">
     <path d="M 1091.653438 39.915547 
L 1111.653438 39.915547 
" style="fill:none;stroke:#2792cb;stroke-linecap:square;stroke-width:2;"/>
    </g>
    <g id="line2d_40">
     <g>
      <use style="fill:#2792cb;stroke:#2792cb;" x="1101.653438" xlink:href="#m59b314af4c" y="39.915547"/>
     </g>
    </g>
    <g id="text_24">
     <!-- Erkrankte -->
     <defs>
      <path d="M 9.8125 72.90625 
L 55.90625 72.90625 
L 55.90625 64.59375 
L 19.671875 64.59375 
L 19.671875 43.015625 
L 54.390625 43.015625 
L 54.390625 34.71875 
L 19.671875 34.71875 
L 19.671875 8.296875 
L 56.78125 8.296875 
L 56.78125 0 
L 9.8125 0 
z
" id="DejaVuSans-69"/>
      <path d="M 41.109375 46.296875 
Q 39.59375 47.171875 37.8125 47.578125 
Q 36.03125 48 33.890625 48 
Q 26.265625 48 22.1875 43.046875 
Q 18.109375 38.09375 18.109375 28.8125 
L 18.109375 0 
L 9.078125 0 
L 9.078125 54.6875 
L 18.109375 54.6875 
L 18.109375 46.1875 
Q 20.953125 51.171875 25.484375 53.578125 
Q 30.03125 56 36.53125 56 
Q 37.453125 56 38.578125 55.875 
Q 39.703125 55.765625 41.0625 55.515625 
z
" id="DejaVuSans-114"/>
      <path d="M 9.078125 75.984375 
L 18.109375 75.984375 
L 18.109375 31.109375 
L 44.921875 54.6875 
L 56.390625 54.6875 
L 27.390625 29.109375 
L 57.625 0 
L 45.90625 0 
L 18.109375 26.703125 
L 18.109375 0 
L 9.078125 0 
z
" id="DejaVuSans-107"/>
      <path d="M 18.3125 70.21875 
L 18.3125 54.6875 
L 36.8125 54.6875 
L 36.8125 47.703125 
L 18.3125 47.703125 
L 18.3125 18.015625 
Q 18.3125 11.328125 20.140625 9.421875 
Q 21.96875 7.515625 27.59375 7.515625 
L 36.8125 7.515625 
L 36.8125 0 
L 27.59375 0 
Q 17.1875 0 13.234375 3.875 
Q 9.28125 7.765625 9.28125 18.015625 
L 9.28125 47.703125 
L 2.6875 47.703125 
L 2.6875 54.6875 
L 9.28125 54.6875 
L 9.28125 70.21875 
z
" id="DejaVuSans-116"/>
     </defs>
     <g transform="translate(1119.653438 43.415547)scale(0.1 -0.1)">
      <use xlink:href="#DejaVuSans-69"/>
      <use x="63.183594" xlink:href="#DejaVuSans-114"/>
      <use x="104.296875" xlink:href="#DejaVuSans-107"/>
      <use x="162.207031" xlink:href="#DejaVuSans-114"/>
      <use x="203.320312" xlink:href="#DejaVuSans-97"/>
      <use x="264.599609" xlink:href="#DejaVuSans-110"/>
      <use x="327.978516" xlink:href="#DejaVuSans-107"/>
      <use x="385.888672" xlink:href="#DejaVuSans-116"/>
      <use x="425.097656" xlink:href="#DejaVuSans-101"/>
     </g>
    </g>
   </g>
  </g>
 </g>
 <defs>
  <clipPath id="pd7b8b3d674">
   <rect height="489.6" width="1116" x="62.89875" y="12.138984"/>
  </clipPath>
 </defs>
</svg>
