<?xml version="1.0" encoding="utf-8" standalone="no"?>
<!DOCTYPE svg PUBLIC "-//W3C//DTD SVG 1.1//EN"
  "http://www.w3.org/Graphics/SVG/1.1/DTD/svg11.dtd">
<!-- Created with matplotlib (https://matplotlib.org/) -->
<svg height="559.671109pt" version="1.1" viewBox="0 0 1186.09875 559.671109" width="1186.09875pt" xmlns="http://www.w3.org/2000/svg" xmlns:xlink="http://www.w3.org/1999/xlink">
 <defs>
  <style type="text/css">
*{stroke-linecap:butt;stroke-linejoin:round;}
  </style>
 </defs>
 <g id="figure_1">
  <g id="patch_1">
   <path d="M 0 559.671109 
L 1186.09875 559.671109 
L 1186.09875 0 
L 0 0 
z
" style="fill:#ffffff;"/>
  </g>
  <g id="axes_1">
   <g id="patch_2">
    <path d="M 62.89875 496.8 
L 1178.89875 496.8 
L 1178.89875 7.2 
L 62.89875 7.2 
z
" style="fill:#ffffff;"/>
   </g>
   <g id="matplotlib.axis_1">
    <g id="xtick_1">
     <g id="line2d_1">
      <defs>
       <path d="M 0 0 
L 0 3.5 
" id="mdd7291e24d" style="stroke:#000000;stroke-width:0.8;"/>
      </defs>
      <g>
       <use style="stroke:#000000;stroke-width:0.8;" x="206.798564" xlink:href="#mdd7291e24d" y="496.8"/>
      </g>
     </g>
     <g id="text_1">
      <!-- 2020-04-01 -->
      <defs>
       <path d="M 19.1875 8.296875 
L 53.609375 8.296875 
L 53.609375 0 
L 7.328125 0 
L 7.328125 8.296875 
Q 12.9375 14.109375 22.625 23.890625 
Q 32.328125 33.6875 34.8125 36.53125 
Q 39.546875 41.84375 41.421875 45.53125 
Q 43.3125 49.21875 43.3125 52.78125 
Q 43.3125 58.59375 39.234375 62.25 
Q 35.15625 65.921875 28.609375 65.921875 
Q 23.96875 65.921875 18.8125 64.3125 
Q 13.671875 62.703125 7.8125 59.421875 
L 7.8125 69.390625 
Q 13.765625 71.78125 18.9375 73 
Q 24.125 74.21875 28.421875 74.21875 
Q 39.75 74.21875 46.484375 68.546875 
Q 53.21875 62.890625 53.21875 53.421875 
Q 53.21875 48.921875 51.53125 44.890625 
Q 49.859375 40.875 45.40625 35.40625 
Q 44.1875 33.984375 37.640625 27.21875 
Q 31.109375 20.453125 19.1875 8.296875 
z
" id="DejaVuSans-50"/>
       <path d="M 31.78125 66.40625 
Q 24.171875 66.40625 20.328125 58.90625 
Q 16.5 51.421875 16.5 36.375 
Q 16.5 21.390625 20.328125 13.890625 
Q 24.171875 6.390625 31.78125 6.390625 
Q 39.453125 6.390625 43.28125 13.890625 
Q 47.125 21.390625 47.125 36.375 
Q 47.125 51.421875 43.28125 58.90625 
Q 39.453125 66.40625 31.78125 66.40625 
z
M 31.78125 74.21875 
Q 44.046875 74.21875 50.515625 64.515625 
Q 56.984375 54.828125 56.984375 36.375 
Q 56.984375 17.96875 50.515625 8.265625 
Q 44.046875 -1.421875 31.78125 -1.421875 
Q 19.53125 -1.421875 13.0625 8.265625 
Q 6.59375 17.96875 6.59375 36.375 
Q 6.59375 54.828125 13.0625 64.515625 
Q 19.53125 74.21875 31.78125 74.21875 
z
" id="DejaVuSans-48"/>
       <path d="M 4.890625 31.390625 
L 31.203125 31.390625 
L 31.203125 23.390625 
L 4.890625 23.390625 
z
" id="DejaVuSans-45"/>
       <path d="M 37.796875 64.3125 
L 12.890625 25.390625 
L 37.796875 25.390625 
z
M 35.203125 72.90625 
L 47.609375 72.90625 
L 47.609375 25.390625 
L 58.015625 25.390625 
L 58.015625 17.1875 
L 47.609375 17.1875 
L 47.609375 0 
L 37.796875 0 
L 37.796875 17.1875 
L 4.890625 17.1875 
L 4.890625 26.703125 
z
" id="DejaVuSans-52"/>
       <path d="M 12.40625 8.296875 
L 28.515625 8.296875 
L 28.515625 63.921875 
L 10.984375 60.40625 
L 10.984375 69.390625 
L 28.421875 72.90625 
L 38.28125 72.90625 
L 38.28125 8.296875 
L 54.390625 8.296875 
L 54.390625 0 
L 12.40625 0 
z
" id="DejaVuSans-49"/>
      </defs>
      <g transform="translate(140.018278 550.129728)rotate(-30)scale(0.13 -0.13)">
       <use xlink:href="#DejaVuSans-50"/>
       <use x="63.623047" xlink:href="#DejaVuSans-48"/>
       <use x="127.246094" xlink:href="#DejaVuSans-50"/>
       <use x="190.869141" xlink:href="#DejaVuSans-48"/>
       <use x="254.492188" xlink:href="#DejaVuSans-45"/>
       <use x="290.576172" xlink:href="#DejaVuSans-48"/>
       <use x="354.199219" xlink:href="#DejaVuSans-52"/>
       <use x="417.822266" xlink:href="#DejaVuSans-45"/>
       <use x="453.90625" xlink:href="#DejaVuSans-48"/>
       <use x="517.529297" xlink:href="#DejaVuSans-49"/>
      </g>
     </g>
    </g>
    <g id="xtick_2">
     <g id="line2d_2">
      <g>
       <use style="stroke:#000000;stroke-width:0.8;" x="351.733629" xlink:href="#mdd7291e24d" y="496.8"/>
      </g>
     </g>
     <g id="text_2">
      <!-- 2020-04-15 -->
      <defs>
       <path d="M 10.796875 72.90625 
L 49.515625 72.90625 
L 49.515625 64.59375 
L 19.828125 64.59375 
L 19.828125 46.734375 
Q 21.96875 47.46875 24.109375 47.828125 
Q 26.265625 48.1875 28.421875 48.1875 
Q 40.625 48.1875 47.75 41.5 
Q 54.890625 34.8125 54.890625 23.390625 
Q 54.890625 11.625 47.5625 5.09375 
Q 40.234375 -1.421875 26.90625 -1.421875 
Q 22.3125 -1.421875 17.546875 -0.640625 
Q 12.796875 0.140625 7.71875 1.703125 
L 7.71875 11.625 
Q 12.109375 9.234375 16.796875 8.0625 
Q 21.484375 6.890625 26.703125 6.890625 
Q 35.15625 6.890625 40.078125 11.328125 
Q 45.015625 15.765625 45.015625 23.390625 
Q 45.015625 31 40.078125 35.4375 
Q 35.15625 39.890625 26.703125 39.890625 
Q 22.75 39.890625 18.8125 39.015625 
Q 14.890625 38.140625 10.796875 36.28125 
z
" id="DejaVuSans-53"/>
      </defs>
      <g transform="translate(284.953343 550.129728)rotate(-30)scale(0.13 -0.13)">
       <use xlink:href="#DejaVuSans-50"/>
       <use x="63.623047" xlink:href="#DejaVuSans-48"/>
       <use x="127.246094" xlink:href="#DejaVuSans-50"/>
       <use x="190.869141" xlink:href="#DejaVuSans-48"/>
       <use x="254.492188" xlink:href="#DejaVuSans-45"/>
       <use x="290.576172" xlink:href="#DejaVuSans-48"/>
       <use x="354.199219" xlink:href="#DejaVuSans-52"/>
       <use x="417.822266" xlink:href="#DejaVuSans-45"/>
       <use x="453.90625" xlink:href="#DejaVuSans-49"/>
       <use x="517.529297" xlink:href="#DejaVuSans-53"/>
      </g>
     </g>
    </g>
    <g id="xtick_3">
     <g id="line2d_3">
      <g>
       <use style="stroke:#000000;stroke-width:0.8;" x="517.373704" xlink:href="#mdd7291e24d" y="496.8"/>
      </g>
     </g>
     <g id="text_3">
      <!-- 2020-05-01 -->
      <g transform="translate(450.593417 550.129728)rotate(-30)scale(0.13 -0.13)">
       <use xlink:href="#DejaVuSans-50"/>
       <use x="63.623047" xlink:href="#DejaVuSans-48"/>
       <use x="127.246094" xlink:href="#DejaVuSans-50"/>
       <use x="190.869141" xlink:href="#DejaVuSans-48"/>
       <use x="254.492188" xlink:href="#DejaVuSans-45"/>
       <use x="290.576172" xlink:href="#DejaVuSans-48"/>
       <use x="354.199219" xlink:href="#DejaVuSans-53"/>
       <use x="417.822266" xlink:href="#DejaVuSans-45"/>
       <use x="453.90625" xlink:href="#DejaVuSans-48"/>
       <use x="517.529297" xlink:href="#DejaVuSans-49"/>
      </g>
     </g>
    </g>
    <g id="xtick_4">
     <g id="line2d_4">
      <g>
       <use style="stroke:#000000;stroke-width:0.8;" x="662.308769" xlink:href="#mdd7291e24d" y="496.8"/>
      </g>
     </g>
     <g id="text_4">
      <!-- 2020-05-15 -->
      <g transform="translate(595.528482 550.129728)rotate(-30)scale(0.13 -0.13)">
       <use xlink:href="#DejaVuSans-50"/>
       <use x="63.623047" xlink:href="#DejaVuSans-48"/>
       <use x="127.246094" xlink:href="#DejaVuSans-50"/>
       <use x="190.869141" xlink:href="#DejaVuSans-48"/>
       <use x="254.492188" xlink:href="#DejaVuSans-45"/>
       <use x="290.576172" xlink:href="#DejaVuSans-48"/>
       <use x="354.199219" xlink:href="#DejaVuSans-53"/>
       <use x="417.822266" xlink:href="#DejaVuSans-45"/>
       <use x="453.90625" xlink:href="#DejaVuSans-49"/>
       <use x="517.529297" xlink:href="#DejaVuSans-53"/>
      </g>
     </g>
    </g>
    <g id="xtick_5">
     <g id="line2d_5">
      <g>
       <use style="stroke:#000000;stroke-width:0.8;" x="838.301347" xlink:href="#mdd7291e24d" y="496.8"/>
      </g>
     </g>
     <g id="text_5">
      <!-- 2020-06-01 -->
      <defs>
       <path d="M 33.015625 40.375 
Q 26.375 40.375 22.484375 35.828125 
Q 18.609375 31.296875 18.609375 23.390625 
Q 18.609375 15.53125 22.484375 10.953125 
Q 26.375 6.390625 33.015625 6.390625 
Q 39.65625 6.390625 43.53125 10.953125 
Q 47.40625 15.53125 47.40625 23.390625 
Q 47.40625 31.296875 43.53125 35.828125 
Q 39.65625 40.375 33.015625 40.375 
z
M 52.59375 71.296875 
L 52.59375 62.3125 
Q 48.875 64.0625 45.09375 64.984375 
Q 41.3125 65.921875 37.59375 65.921875 
Q 27.828125 65.921875 22.671875 59.328125 
Q 17.53125 52.734375 16.796875 39.40625 
Q 19.671875 43.65625 24.015625 45.921875 
Q 28.375 48.1875 33.59375 48.1875 
Q 44.578125 48.1875 50.953125 41.515625 
Q 57.328125 34.859375 57.328125 23.390625 
Q 57.328125 12.15625 50.6875 5.359375 
Q 44.046875 -1.421875 33.015625 -1.421875 
Q 20.359375 -1.421875 13.671875 8.265625 
Q 6.984375 17.96875 6.984375 36.375 
Q 6.984375 53.65625 15.1875 63.9375 
Q 23.390625 74.21875 37.203125 74.21875 
Q 40.921875 74.21875 44.703125 73.484375 
Q 48.484375 72.75 52.59375 71.296875 
z
" id="DejaVuSans-54"/>
      </defs>
      <g transform="translate(771.521061 550.129728)rotate(-30)scale(0.13 -0.13)">
       <use xlink:href="#DejaVuSans-50"/>
       <use x="63.623047" xlink:href="#DejaVuSans-48"/>
       <use x="127.246094" xlink:href="#DejaVuSans-50"/>
       <use x="190.869141" xlink:href="#DejaVuSans-48"/>
       <use x="254.492188" xlink:href="#DejaVuSans-45"/>
       <use x="290.576172" xlink:href="#DejaVuSans-48"/>
       <use x="354.199219" xlink:href="#DejaVuSans-54"/>
       <use x="417.822266" xlink:href="#DejaVuSans-45"/>
       <use x="453.90625" xlink:href="#DejaVuSans-48"/>
       <use x="517.529297" xlink:href="#DejaVuSans-49"/>
      </g>
     </g>
    </g>
    <g id="xtick_6">
     <g id="line2d_6">
      <g>
       <use style="stroke:#000000;stroke-width:0.8;" x="983.236412" xlink:href="#mdd7291e24d" y="496.8"/>
      </g>
     </g>
     <g id="text_6">
      <!-- 2020-06-15 -->
      <g transform="translate(916.456126 550.129728)rotate(-30)scale(0.13 -0.13)">
       <use xlink:href="#DejaVuSans-50"/>
       <use x="63.623047" xlink:href="#DejaVuSans-48"/>
       <use x="127.246094" xlink:href="#DejaVuSans-50"/>
       <use x="190.869141" xlink:href="#DejaVuSans-48"/>
       <use x="254.492188" xlink:href="#DejaVuSans-45"/>
       <use x="290.576172" xlink:href="#DejaVuSans-48"/>
       <use x="354.199219" xlink:href="#DejaVuSans-54"/>
       <use x="417.822266" xlink:href="#DejaVuSans-45"/>
       <use x="453.90625" xlink:href="#DejaVuSans-49"/>
       <use x="517.529297" xlink:href="#DejaVuSans-53"/>
      </g>
     </g>
    </g>
    <g id="xtick_7">
     <g id="line2d_7">
      <g>
       <use style="stroke:#000000;stroke-width:0.8;" x="1148.876487" xlink:href="#mdd7291e24d" y="496.8"/>
      </g>
     </g>
     <g id="text_7">
      <!-- 2020-07-01 -->
      <defs>
       <path d="M 8.203125 72.90625 
L 55.078125 72.90625 
L 55.078125 68.703125 
L 28.609375 0 
L 18.3125 0 
L 43.21875 64.59375 
L 8.203125 64.59375 
z
" id="DejaVuSans-55"/>
      </defs>
      <g transform="translate(1082.0962 550.129728)rotate(-30)scale(0.13 -0.13)">
       <use xlink:href="#DejaVuSans-50"/>
       <use x="63.623047" xlink:href="#DejaVuSans-48"/>
       <use x="127.246094" xlink:href="#DejaVuSans-50"/>
       <use x="190.869141" xlink:href="#DejaVuSans-48"/>
       <use x="254.492188" xlink:href="#DejaVuSans-45"/>
       <use x="290.576172" xlink:href="#DejaVuSans-48"/>
       <use x="354.199219" xlink:href="#DejaVuSans-55"/>
       <use x="417.822266" xlink:href="#DejaVuSans-45"/>
       <use x="453.90625" xlink:href="#DejaVuSans-48"/>
       <use x="517.529297" xlink:href="#DejaVuSans-49"/>
      </g>
     </g>
    </g>
   </g>
   <g id="matplotlib.axis_2">
    <g id="ytick_1">
     <g id="line2d_8">
      <path clip-path="url(#pc507a93532)" d="M 62.89875 475.612819 
L 1178.89875 475.612819 
" style="fill:none;stroke:#b0b0b0;stroke-linecap:square;stroke-width:0.8;"/>
     </g>
     <g id="line2d_9">
      <defs>
       <path d="M 0 0 
L -3.5 0 
" id="medb9816897" style="stroke:#000000;stroke-width:0.8;"/>
      </defs>
      <g>
       <use style="stroke:#000000;stroke-width:0.8;" x="62.89875" xlink:href="#medb9816897" y="475.612819"/>
      </g>
     </g>
     <g id="text_8">
      <!-- 0 -->
      <g transform="translate(47.6275 480.551803)scale(0.13 -0.13)">
       <use xlink:href="#DejaVuSans-48"/>
      </g>
     </g>
    </g>
    <g id="ytick_2">
     <g id="line2d_10">
      <path clip-path="url(#pc507a93532)" d="M 62.89875 440.034009 
L 1178.89875 440.034009 
" style="fill:none;stroke:#b0b0b0;stroke-linecap:square;stroke-width:0.8;"/>
     </g>
     <g id="line2d_11">
      <g>
       <use style="stroke:#000000;stroke-width:0.8;" x="62.89875" xlink:href="#medb9816897" y="440.034009"/>
      </g>
     </g>
     <g id="text_9">
      <!-- 100 -->
      <g transform="translate(31.085 444.972994)scale(0.13 -0.13)">
       <use xlink:href="#DejaVuSans-49"/>
       <use x="63.623047" xlink:href="#DejaVuSans-48"/>
       <use x="127.246094" xlink:href="#DejaVuSans-48"/>
      </g>
     </g>
    </g>
    <g id="ytick_3">
     <g id="line2d_12">
      <path clip-path="url(#pc507a93532)" d="M 62.89875 404.455199 
L 1178.89875 404.455199 
" style="fill:none;stroke:#b0b0b0;stroke-linecap:square;stroke-width:0.8;"/>
     </g>
     <g id="line2d_13">
      <g>
       <use style="stroke:#000000;stroke-width:0.8;" x="62.89875" xlink:href="#medb9816897" y="404.455199"/>
      </g>
     </g>
     <g id="text_10">
      <!-- 200 -->
      <g transform="translate(31.085 409.394184)scale(0.13 -0.13)">
       <use xlink:href="#DejaVuSans-50"/>
       <use x="63.623047" xlink:href="#DejaVuSans-48"/>
       <use x="127.246094" xlink:href="#DejaVuSans-48"/>
      </g>
     </g>
    </g>
    <g id="ytick_4">
     <g id="line2d_14">
      <path clip-path="url(#pc507a93532)" d="M 62.89875 368.87639 
L 1178.89875 368.87639 
" style="fill:none;stroke:#b0b0b0;stroke-linecap:square;stroke-width:0.8;"/>
     </g>
     <g id="line2d_15">
      <g>
       <use style="stroke:#000000;stroke-width:0.8;" x="62.89875" xlink:href="#medb9816897" y="368.87639"/>
      </g>
     </g>
     <g id="text_11">
      <!-- 300 -->
      <defs>
       <path d="M 40.578125 39.3125 
Q 47.65625 37.796875 51.625 33 
Q 55.609375 28.21875 55.609375 21.1875 
Q 55.609375 10.40625 48.1875 4.484375 
Q 40.765625 -1.421875 27.09375 -1.421875 
Q 22.515625 -1.421875 17.65625 -0.515625 
Q 12.796875 0.390625 7.625 2.203125 
L 7.625 11.71875 
Q 11.71875 9.328125 16.59375 8.109375 
Q 21.484375 6.890625 26.8125 6.890625 
Q 36.078125 6.890625 40.9375 10.546875 
Q 45.796875 14.203125 45.796875 21.1875 
Q 45.796875 27.640625 41.28125 31.265625 
Q 36.765625 34.90625 28.71875 34.90625 
L 20.21875 34.90625 
L 20.21875 43.015625 
L 29.109375 43.015625 
Q 36.375 43.015625 40.234375 45.921875 
Q 44.09375 48.828125 44.09375 54.296875 
Q 44.09375 59.90625 40.109375 62.90625 
Q 36.140625 65.921875 28.71875 65.921875 
Q 24.65625 65.921875 20.015625 65.03125 
Q 15.375 64.15625 9.8125 62.3125 
L 9.8125 71.09375 
Q 15.4375 72.65625 20.34375 73.4375 
Q 25.25 74.21875 29.59375 74.21875 
Q 40.828125 74.21875 47.359375 69.109375 
Q 53.90625 64.015625 53.90625 55.328125 
Q 53.90625 49.265625 50.4375 45.09375 
Q 46.96875 40.921875 40.578125 39.3125 
z
" id="DejaVuSans-51"/>
      </defs>
      <g transform="translate(31.085 373.815374)scale(0.13 -0.13)">
       <use xlink:href="#DejaVuSans-51"/>
       <use x="63.623047" xlink:href="#DejaVuSans-48"/>
       <use x="127.246094" xlink:href="#DejaVuSans-48"/>
      </g>
     </g>
    </g>
    <g id="ytick_5">
     <g id="line2d_16">
      <path clip-path="url(#pc507a93532)" d="M 62.89875 333.29758 
L 1178.89875 333.29758 
" style="fill:none;stroke:#b0b0b0;stroke-linecap:square;stroke-width:0.8;"/>
     </g>
     <g id="line2d_17">
      <g>
       <use style="stroke:#000000;stroke-width:0.8;" x="62.89875" xlink:href="#medb9816897" y="333.29758"/>
      </g>
     </g>
     <g id="text_12">
      <!-- 400 -->
      <g transform="translate(31.085 338.236564)scale(0.13 -0.13)">
       <use xlink:href="#DejaVuSans-52"/>
       <use x="63.623047" xlink:href="#DejaVuSans-48"/>
       <use x="127.246094" xlink:href="#DejaVuSans-48"/>
      </g>
     </g>
    </g>
    <g id="ytick_6">
     <g id="line2d_18">
      <path clip-path="url(#pc507a93532)" d="M 62.89875 297.71877 
L 1178.89875 297.71877 
" style="fill:none;stroke:#b0b0b0;stroke-linecap:square;stroke-width:0.8;"/>
     </g>
     <g id="line2d_19">
      <g>
       <use style="stroke:#000000;stroke-width:0.8;" x="62.89875" xlink:href="#medb9816897" y="297.71877"/>
      </g>
     </g>
     <g id="text_13">
      <!-- 500 -->
      <g transform="translate(31.085 302.657755)scale(0.13 -0.13)">
       <use xlink:href="#DejaVuSans-53"/>
       <use x="63.623047" xlink:href="#DejaVuSans-48"/>
       <use x="127.246094" xlink:href="#DejaVuSans-48"/>
      </g>
     </g>
    </g>
    <g id="ytick_7">
     <g id="line2d_20">
      <path clip-path="url(#pc507a93532)" d="M 62.89875 262.139961 
L 1178.89875 262.139961 
" style="fill:none;stroke:#b0b0b0;stroke-linecap:square;stroke-width:0.8;"/>
     </g>
     <g id="line2d_21">
      <g>
       <use style="stroke:#000000;stroke-width:0.8;" x="62.89875" xlink:href="#medb9816897" y="262.139961"/>
      </g>
     </g>
     <g id="text_14">
      <!-- 600 -->
      <g transform="translate(31.085 267.078945)scale(0.13 -0.13)">
       <use xlink:href="#DejaVuSans-54"/>
       <use x="63.623047" xlink:href="#DejaVuSans-48"/>
       <use x="127.246094" xlink:href="#DejaVuSans-48"/>
      </g>
     </g>
    </g>
    <g id="ytick_8">
     <g id="line2d_22">
      <path clip-path="url(#pc507a93532)" d="M 62.89875 226.561151 
L 1178.89875 226.561151 
" style="fill:none;stroke:#b0b0b0;stroke-linecap:square;stroke-width:0.8;"/>
     </g>
     <g id="line2d_23">
      <g>
       <use style="stroke:#000000;stroke-width:0.8;" x="62.89875" xlink:href="#medb9816897" y="226.561151"/>
      </g>
     </g>
     <g id="text_15">
      <!-- 700 -->
      <g transform="translate(31.085 231.500135)scale(0.13 -0.13)">
       <use xlink:href="#DejaVuSans-55"/>
       <use x="63.623047" xlink:href="#DejaVuSans-48"/>
       <use x="127.246094" xlink:href="#DejaVuSans-48"/>
      </g>
     </g>
    </g>
    <g id="ytick_9">
     <g id="line2d_24">
      <path clip-path="url(#pc507a93532)" d="M 62.89875 190.982341 
L 1178.89875 190.982341 
" style="fill:none;stroke:#b0b0b0;stroke-linecap:square;stroke-width:0.8;"/>
     </g>
     <g id="line2d_25">
      <g>
       <use style="stroke:#000000;stroke-width:0.8;" x="62.89875" xlink:href="#medb9816897" y="190.982341"/>
      </g>
     </g>
     <g id="text_16">
      <!-- 800 -->
      <defs>
       <path d="M 31.78125 34.625 
Q 24.75 34.625 20.71875 30.859375 
Q 16.703125 27.09375 16.703125 20.515625 
Q 16.703125 13.921875 20.71875 10.15625 
Q 24.75 6.390625 31.78125 6.390625 
Q 38.8125 6.390625 42.859375 10.171875 
Q 46.921875 13.96875 46.921875 20.515625 
Q 46.921875 27.09375 42.890625 30.859375 
Q 38.875 34.625 31.78125 34.625 
z
M 21.921875 38.8125 
Q 15.578125 40.375 12.03125 44.71875 
Q 8.5 49.078125 8.5 55.328125 
Q 8.5 64.0625 14.71875 69.140625 
Q 20.953125 74.21875 31.78125 74.21875 
Q 42.671875 74.21875 48.875 69.140625 
Q 55.078125 64.0625 55.078125 55.328125 
Q 55.078125 49.078125 51.53125 44.71875 
Q 48 40.375 41.703125 38.8125 
Q 48.828125 37.15625 52.796875 32.3125 
Q 56.78125 27.484375 56.78125 20.515625 
Q 56.78125 9.90625 50.3125 4.234375 
Q 43.84375 -1.421875 31.78125 -1.421875 
Q 19.734375 -1.421875 13.25 4.234375 
Q 6.78125 9.90625 6.78125 20.515625 
Q 6.78125 27.484375 10.78125 32.3125 
Q 14.796875 37.15625 21.921875 38.8125 
z
M 18.3125 54.390625 
Q 18.3125 48.734375 21.84375 45.5625 
Q 25.390625 42.390625 31.78125 42.390625 
Q 38.140625 42.390625 41.71875 45.5625 
Q 45.3125 48.734375 45.3125 54.390625 
Q 45.3125 60.0625 41.71875 63.234375 
Q 38.140625 66.40625 31.78125 66.40625 
Q 25.390625 66.40625 21.84375 63.234375 
Q 18.3125 60.0625 18.3125 54.390625 
z
" id="DejaVuSans-56"/>
      </defs>
      <g transform="translate(31.085 195.921326)scale(0.13 -0.13)">
       <use xlink:href="#DejaVuSans-56"/>
       <use x="63.623047" xlink:href="#DejaVuSans-48"/>
       <use x="127.246094" xlink:href="#DejaVuSans-48"/>
      </g>
     </g>
    </g>
    <g id="ytick_10">
     <g id="line2d_26">
      <path clip-path="url(#pc507a93532)" d="M 62.89875 155.403532 
L 1178.89875 155.403532 
" style="fill:none;stroke:#b0b0b0;stroke-linecap:square;stroke-width:0.8;"/>
     </g>
     <g id="line2d_27">
      <g>
       <use style="stroke:#000000;stroke-width:0.8;" x="62.89875" xlink:href="#medb9816897" y="155.403532"/>
      </g>
     </g>
     <g id="text_17">
      <!-- 900 -->
      <defs>
       <path d="M 10.984375 1.515625 
L 10.984375 10.5 
Q 14.703125 8.734375 18.5 7.8125 
Q 22.3125 6.890625 25.984375 6.890625 
Q 35.75 6.890625 40.890625 13.453125 
Q 46.046875 20.015625 46.78125 33.40625 
Q 43.953125 29.203125 39.59375 26.953125 
Q 35.25 24.703125 29.984375 24.703125 
Q 19.046875 24.703125 12.671875 31.3125 
Q 6.296875 37.9375 6.296875 49.421875 
Q 6.296875 60.640625 12.9375 67.421875 
Q 19.578125 74.21875 30.609375 74.21875 
Q 43.265625 74.21875 49.921875 64.515625 
Q 56.59375 54.828125 56.59375 36.375 
Q 56.59375 19.140625 48.40625 8.859375 
Q 40.234375 -1.421875 26.421875 -1.421875 
Q 22.703125 -1.421875 18.890625 -0.6875 
Q 15.09375 0.046875 10.984375 1.515625 
z
M 30.609375 32.421875 
Q 37.25 32.421875 41.125 36.953125 
Q 45.015625 41.5 45.015625 49.421875 
Q 45.015625 57.28125 41.125 61.84375 
Q 37.25 66.40625 30.609375 66.40625 
Q 23.96875 66.40625 20.09375 61.84375 
Q 16.21875 57.28125 16.21875 49.421875 
Q 16.21875 41.5 20.09375 36.953125 
Q 23.96875 32.421875 30.609375 32.421875 
z
" id="DejaVuSans-57"/>
      </defs>
      <g transform="translate(31.085 160.342516)scale(0.13 -0.13)">
       <use xlink:href="#DejaVuSans-57"/>
       <use x="63.623047" xlink:href="#DejaVuSans-48"/>
       <use x="127.246094" xlink:href="#DejaVuSans-48"/>
      </g>
     </g>
    </g>
    <g id="ytick_11">
     <g id="line2d_28">
      <path clip-path="url(#pc507a93532)" d="M 62.89875 119.824722 
L 1178.89875 119.824722 
" style="fill:none;stroke:#b0b0b0;stroke-linecap:square;stroke-width:0.8;"/>
     </g>
     <g id="line2d_29">
      <g>
       <use style="stroke:#000000;stroke-width:0.8;" x="62.89875" xlink:href="#medb9816897" y="119.824722"/>
      </g>
     </g>
     <g id="text_18">
      <!-- 1000 -->
      <g transform="translate(22.81375 124.763706)scale(0.13 -0.13)">
       <use xlink:href="#DejaVuSans-49"/>
       <use x="63.623047" xlink:href="#DejaVuSans-48"/>
       <use x="127.246094" xlink:href="#DejaVuSans-48"/>
       <use x="190.869141" xlink:href="#DejaVuSans-48"/>
      </g>
     </g>
    </g>
    <g id="ytick_12">
     <g id="line2d_30">
      <path clip-path="url(#pc507a93532)" d="M 62.89875 84.245912 
L 1178.89875 84.245912 
" style="fill:none;stroke:#b0b0b0;stroke-linecap:square;stroke-width:0.8;"/>
     </g>
     <g id="line2d_31">
      <g>
       <use style="stroke:#000000;stroke-width:0.8;" x="62.89875" xlink:href="#medb9816897" y="84.245912"/>
      </g>
     </g>
     <g id="text_19">
      <!-- 1100 -->
      <g transform="translate(22.81375 89.184897)scale(0.13 -0.13)">
       <use xlink:href="#DejaVuSans-49"/>
       <use x="63.623047" xlink:href="#DejaVuSans-49"/>
       <use x="127.246094" xlink:href="#DejaVuSans-48"/>
       <use x="190.869141" xlink:href="#DejaVuSans-48"/>
      </g>
     </g>
    </g>
    <g id="ytick_13">
     <g id="line2d_32">
      <path clip-path="url(#pc507a93532)" d="M 62.89875 48.667103 
L 1178.89875 48.667103 
" style="fill:none;stroke:#b0b0b0;stroke-linecap:square;stroke-width:0.8;"/>
     </g>
     <g id="line2d_33">
      <g>
       <use style="stroke:#000000;stroke-width:0.8;" x="62.89875" xlink:href="#medb9816897" y="48.667103"/>
      </g>
     </g>
     <g id="text_20">
      <!-- 1200 -->
      <g transform="translate(22.81375 53.606087)scale(0.13 -0.13)">
       <use xlink:href="#DejaVuSans-49"/>
       <use x="63.623047" xlink:href="#DejaVuSans-50"/>
       <use x="127.246094" xlink:href="#DejaVuSans-48"/>
       <use x="190.869141" xlink:href="#DejaVuSans-48"/>
      </g>
     </g>
    </g>
    <g id="ytick_14">
     <g id="line2d_34">
      <path clip-path="url(#pc507a93532)" d="M 62.89875 13.088293 
L 1178.89875 13.088293 
" style="fill:none;stroke:#b0b0b0;stroke-linecap:square;stroke-width:0.8;"/>
     </g>
     <g id="line2d_35">
      <g>
       <use style="stroke:#000000;stroke-width:0.8;" x="62.89875" xlink:href="#medb9816897" y="13.088293"/>
      </g>
     </g>
     <g id="text_21">
      <!-- 1300 -->
      <g transform="translate(22.81375 18.027277)scale(0.13 -0.13)">
       <use xlink:href="#DejaVuSans-49"/>
       <use x="63.623047" xlink:href="#DejaVuSans-51"/>
       <use x="127.246094" xlink:href="#DejaVuSans-48"/>
       <use x="190.869141" xlink:href="#DejaVuSans-48"/>
      </g>
     </g>
    </g>
    <g id="text_22">
     <!-- Anzahl von Fällen -->
     <defs>
      <path d="M 34.1875 63.1875 
L 20.796875 26.90625 
L 47.609375 26.90625 
z
M 28.609375 72.90625 
L 39.796875 72.90625 
L 67.578125 0 
L 57.328125 0 
L 50.6875 18.703125 
L 17.828125 18.703125 
L 11.1875 0 
L 0.78125 0 
z
" id="DejaVuSans-65"/>
      <path d="M 54.890625 33.015625 
L 54.890625 0 
L 45.90625 0 
L 45.90625 32.71875 
Q 45.90625 40.484375 42.875 44.328125 
Q 39.84375 48.1875 33.796875 48.1875 
Q 26.515625 48.1875 22.3125 43.546875 
Q 18.109375 38.921875 18.109375 30.90625 
L 18.109375 0 
L 9.078125 0 
L 9.078125 54.6875 
L 18.109375 54.6875 
L 18.109375 46.1875 
Q 21.34375 51.125 25.703125 53.5625 
Q 30.078125 56 35.796875 56 
Q 45.21875 56 50.046875 50.171875 
Q 54.890625 44.34375 54.890625 33.015625 
z
" id="DejaVuSans-110"/>
      <path d="M 5.515625 54.6875 
L 48.1875 54.6875 
L 48.1875 46.484375 
L 14.40625 7.171875 
L 48.1875 7.171875 
L 48.1875 0 
L 4.296875 0 
L 4.296875 8.203125 
L 38.09375 47.515625 
L 5.515625 47.515625 
z
" id="DejaVuSans-122"/>
      <path d="M 34.28125 27.484375 
Q 23.390625 27.484375 19.1875 25 
Q 14.984375 22.515625 14.984375 16.5 
Q 14.984375 11.71875 18.140625 8.90625 
Q 21.296875 6.109375 26.703125 6.109375 
Q 34.1875 6.109375 38.703125 11.40625 
Q 43.21875 16.703125 43.21875 25.484375 
L 43.21875 27.484375 
z
M 52.203125 31.203125 
L 52.203125 0 
L 43.21875 0 
L 43.21875 8.296875 
Q 40.140625 3.328125 35.546875 0.953125 
Q 30.953125 -1.421875 24.3125 -1.421875 
Q 15.921875 -1.421875 10.953125 3.296875 
Q 6 8.015625 6 15.921875 
Q 6 25.140625 12.171875 29.828125 
Q 18.359375 34.515625 30.609375 34.515625 
L 43.21875 34.515625 
L 43.21875 35.40625 
Q 43.21875 41.609375 39.140625 45 
Q 35.0625 48.390625 27.6875 48.390625 
Q 23 48.390625 18.546875 47.265625 
Q 14.109375 46.140625 10.015625 43.890625 
L 10.015625 52.203125 
Q 14.9375 54.109375 19.578125 55.046875 
Q 24.21875 56 28.609375 56 
Q 40.484375 56 46.34375 49.84375 
Q 52.203125 43.703125 52.203125 31.203125 
z
" id="DejaVuSans-97"/>
      <path d="M 54.890625 33.015625 
L 54.890625 0 
L 45.90625 0 
L 45.90625 32.71875 
Q 45.90625 40.484375 42.875 44.328125 
Q 39.84375 48.1875 33.796875 48.1875 
Q 26.515625 48.1875 22.3125 43.546875 
Q 18.109375 38.921875 18.109375 30.90625 
L 18.109375 0 
L 9.078125 0 
L 9.078125 75.984375 
L 18.109375 75.984375 
L 18.109375 46.1875 
Q 21.34375 51.125 25.703125 53.5625 
Q 30.078125 56 35.796875 56 
Q 45.21875 56 50.046875 50.171875 
Q 54.890625 44.34375 54.890625 33.015625 
z
" id="DejaVuSans-104"/>
      <path d="M 9.421875 75.984375 
L 18.40625 75.984375 
L 18.40625 0 
L 9.421875 0 
z
" id="DejaVuSans-108"/>
      <path id="DejaVuSans-32"/>
      <path d="M 2.984375 54.6875 
L 12.5 54.6875 
L 29.59375 8.796875 
L 46.6875 54.6875 
L 56.203125 54.6875 
L 35.6875 0 
L 23.484375 0 
z
" id="DejaVuSans-118"/>
      <path d="M 30.609375 48.390625 
Q 23.390625 48.390625 19.1875 42.75 
Q 14.984375 37.109375 14.984375 27.296875 
Q 14.984375 17.484375 19.15625 11.84375 
Q 23.34375 6.203125 30.609375 6.203125 
Q 37.796875 6.203125 41.984375 11.859375 
Q 46.1875 17.53125 46.1875 27.296875 
Q 46.1875 37.015625 41.984375 42.703125 
Q 37.796875 48.390625 30.609375 48.390625 
z
M 30.609375 56 
Q 42.328125 56 49.015625 48.375 
Q 55.71875 40.765625 55.71875 27.296875 
Q 55.71875 13.875 49.015625 6.21875 
Q 42.328125 -1.421875 30.609375 -1.421875 
Q 18.84375 -1.421875 12.171875 6.21875 
Q 5.515625 13.875 5.515625 27.296875 
Q 5.515625 40.765625 12.171875 48.375 
Q 18.84375 56 30.609375 56 
z
" id="DejaVuSans-111"/>
      <path d="M 9.8125 72.90625 
L 51.703125 72.90625 
L 51.703125 64.59375 
L 19.671875 64.59375 
L 19.671875 43.109375 
L 48.578125 43.109375 
L 48.578125 34.8125 
L 19.671875 34.8125 
L 19.671875 0 
L 9.8125 0 
z
" id="DejaVuSans-70"/>
      <path d="M 34.28125 27.484375 
Q 23.390625 27.484375 19.1875 25 
Q 14.984375 22.515625 14.984375 16.5 
Q 14.984375 11.71875 18.140625 8.90625 
Q 21.296875 6.109375 26.703125 6.109375 
Q 34.1875 6.109375 38.703125 11.40625 
Q 43.21875 16.703125 43.21875 25.484375 
L 43.21875 27.484375 
z
M 52.203125 31.203125 
L 52.203125 0 
L 43.21875 0 
L 43.21875 8.296875 
Q 40.140625 3.328125 35.546875 0.953125 
Q 30.953125 -1.421875 24.3125 -1.421875 
Q 15.921875 -1.421875 10.953125 3.296875 
Q 6 8.015625 6 15.921875 
Q 6 25.140625 12.171875 29.828125 
Q 18.359375 34.515625 30.609375 34.515625 
L 43.21875 34.515625 
L 43.21875 35.40625 
Q 43.21875 41.609375 39.140625 45 
Q 35.0625 48.390625 27.6875 48.390625 
Q 23 48.390625 18.546875 47.265625 
Q 14.109375 46.140625 10.015625 43.890625 
L 10.015625 52.203125 
Q 14.9375 54.109375 19.578125 55.046875 
Q 24.21875 56 28.609375 56 
Q 40.484375 56 46.34375 49.84375 
Q 52.203125 43.703125 52.203125 31.203125 
z
M 33.59375 75.78125 
L 43.5 75.78125 
L 43.5 65.921875 
L 33.59375 65.921875 
z
M 14.5 75.78125 
L 24.40625 75.78125 
L 24.40625 65.921875 
L 14.5 65.921875 
z
" id="DejaVuSans-228"/>
      <path d="M 56.203125 29.59375 
L 56.203125 25.203125 
L 14.890625 25.203125 
Q 15.484375 15.921875 20.484375 11.0625 
Q 25.484375 6.203125 34.421875 6.203125 
Q 39.59375 6.203125 44.453125 7.46875 
Q 49.3125 8.734375 54.109375 11.28125 
L 54.109375 2.78125 
Q 49.265625 0.734375 44.1875 -0.34375 
Q 39.109375 -1.421875 33.890625 -1.421875 
Q 20.796875 -1.421875 13.15625 6.1875 
Q 5.515625 13.8125 5.515625 26.8125 
Q 5.515625 40.234375 12.765625 48.109375 
Q 20.015625 56 32.328125 56 
Q 43.359375 56 49.78125 48.890625 
Q 56.203125 41.796875 56.203125 29.59375 
z
M 47.21875 32.234375 
Q 47.125 39.59375 43.09375 43.984375 
Q 39.0625 48.390625 32.421875 48.390625 
Q 24.90625 48.390625 20.390625 44.140625 
Q 15.875 39.890625 15.1875 32.171875 
z
" id="DejaVuSans-101"/>
     </defs>
     <g transform="translate(16.318125 304.449375)rotate(-90)scale(0.12 -0.12)">
      <use xlink:href="#DejaVuSans-65"/>
      <use x="68.408203" xlink:href="#DejaVuSans-110"/>
      <use x="131.787109" xlink:href="#DejaVuSans-122"/>
      <use x="184.277344" xlink:href="#DejaVuSans-97"/>
      <use x="245.556641" xlink:href="#DejaVuSans-104"/>
      <use x="308.935547" xlink:href="#DejaVuSans-108"/>
      <use x="336.71875" xlink:href="#DejaVuSans-32"/>
      <use x="368.505859" xlink:href="#DejaVuSans-118"/>
      <use x="427.685547" xlink:href="#DejaVuSans-111"/>
      <use x="488.867188" xlink:href="#DejaVuSans-110"/>
      <use x="552.246094" xlink:href="#DejaVuSans-32"/>
      <use x="584.033203" xlink:href="#DejaVuSans-70"/>
      <use x="632.427734" xlink:href="#DejaVuSans-228"/>
      <use x="693.707031" xlink:href="#DejaVuSans-108"/>
      <use x="721.490234" xlink:href="#DejaVuSans-108"/>
      <use x="749.273438" xlink:href="#DejaVuSans-101"/>
      <use x="810.796875" xlink:href="#DejaVuSans-110"/>
     </g>
    </g>
   </g>
   <g id="line2d_36">
    <path clip-path="url(#pc507a93532)" d="M 113.626023 473.47809 
L 123.978527 471.343362 
L 134.331032 466.718116 
L 144.683537 464.583388 
L 155.036041 456.400262 
L 165.388546 451.06344 
L 175.741051 443.947678 
L 186.093555 443.59189 
L 196.44606 425.090909 
L 206.798564 419.3983 
L 217.151069 411.92675 
L 227.503574 401.608895 
L 237.856078 397.339438 
L 248.208583 393.425768 
L 258.561088 386.310007 
L 268.913592 380.973185 
L 279.266097 373.501635 
L 289.618602 363.895356 
L 299.971106 357.135383 
L 310.323611 348.596468 
L 320.676115 342.548071 
L 341.381125 330.095487 
L 351.733629 320.133421 
L 362.086134 313.373447 
L 372.438639 301.988228 
L 382.791143 322.268149 
L 403.496153 261.072596 
L 413.848657 253.601046 
L 424.201162 238.657946 
L 434.553667 226.205363 
L 444.906171 210.194899 
L 455.258676 198.80968 
L 475.963685 182.443427 
L 486.31619 182.443427 
L 496.668694 166.788751 
L 507.021199 154.336167 
L 527.726208 140.81622 
L 548.431218 131.921517 
L 558.783722 125.517332 
L 569.136227 118.757358 
L 579.488731 114.487901 
L 589.841236 109.506867 
L 600.193741 100.967953 
L 620.89875 97.054284 
L 631.251255 93.852191 
L 641.603759 90.650098 
L 651.956264 85.313277 
L 662.308769 80.688031 
L 672.661273 74.283846 
L 693.366282 68.591236 
L 703.718787 65.389143 
L 714.071292 61.119686 
L 734.776301 52.93656 
L 745.128806 51.513407 
L 765.833815 49.022891 
L 776.18632 49.022891 
L 796.891329 44.753434 
L 807.243833 42.974493 
L 848.653852 40.128188 
L 859.006357 39.060824 
L 869.358861 39.060824 
L 879.711366 39.060824 
L 890.063871 38.349248 
L 910.76888 37.99346 
L 921.121385 37.99346 
L 931.473889 36.570307 
L 952.178898 36.214519 
L 962.531403 35.502943 
L 983.236412 35.147155 
L 1003.941422 34.791367 
L 1024.646431 34.791367 
L 1034.998936 34.079791 
L 1055.703945 33.368215 
L 1066.056449 33.368215 
L 1076.408954 32.30085 
L 1086.761459 31.589274 
L 1107.466468 30.166122 
L 1128.171477 29.454545 
" style="fill:none;stroke:#dbcd00;stroke-linecap:square;stroke-width:2;"/>
    <defs>
     <path d="M 0 1.5 
C 0.397805 1.5 0.77937 1.341951 1.06066 1.06066 
C 1.341951 0.77937 1.5 0.397805 1.5 0 
C 1.5 -0.397805 1.341951 -0.77937 1.06066 -1.06066 
C 0.77937 -1.341951 0.397805 -1.5 0 -1.5 
C -0.397805 -1.5 -0.77937 -1.341951 -1.06066 -1.06066 
C -1.341951 -0.77937 -1.5 -0.397805 -1.5 0 
C -1.5 0.397805 -1.341951 0.77937 -1.06066 1.06066 
C -0.77937 1.341951 -0.397805 1.5 0 1.5 
z
" id="m21d08f9ceb" style="stroke:#dbcd00;"/>
    </defs>
    <g clip-path="url(#pc507a93532)">
     <use style="fill:#dbcd00;stroke:#dbcd00;" x="113.626023" xlink:href="#m21d08f9ceb" y="473.47809"/>
     <use style="fill:#dbcd00;stroke:#dbcd00;" x="123.978527" xlink:href="#m21d08f9ceb" y="471.343362"/>
     <use style="fill:#dbcd00;stroke:#dbcd00;" x="134.331032" xlink:href="#m21d08f9ceb" y="466.718116"/>
     <use style="fill:#dbcd00;stroke:#dbcd00;" x="144.683537" xlink:href="#m21d08f9ceb" y="464.583388"/>
     <use style="fill:#dbcd00;stroke:#dbcd00;" x="155.036041" xlink:href="#m21d08f9ceb" y="456.400262"/>
     <use style="fill:#dbcd00;stroke:#dbcd00;" x="165.388546" xlink:href="#m21d08f9ceb" y="451.06344"/>
     <use style="fill:#dbcd00;stroke:#dbcd00;" x="175.741051" xlink:href="#m21d08f9ceb" y="443.947678"/>
     <use style="fill:#dbcd00;stroke:#dbcd00;" x="186.093555" xlink:href="#m21d08f9ceb" y="443.59189"/>
     <use style="fill:#dbcd00;stroke:#dbcd00;" x="196.44606" xlink:href="#m21d08f9ceb" y="425.090909"/>
     <use style="fill:#dbcd00;stroke:#dbcd00;" x="206.798564" xlink:href="#m21d08f9ceb" y="419.3983"/>
     <use style="fill:#dbcd00;stroke:#dbcd00;" x="217.151069" xlink:href="#m21d08f9ceb" y="411.92675"/>
     <use style="fill:#dbcd00;stroke:#dbcd00;" x="227.503574" xlink:href="#m21d08f9ceb" y="401.608895"/>
     <use style="fill:#dbcd00;stroke:#dbcd00;" x="237.856078" xlink:href="#m21d08f9ceb" y="397.339438"/>
     <use style="fill:#dbcd00;stroke:#dbcd00;" x="248.208583" xlink:href="#m21d08f9ceb" y="393.425768"/>
     <use style="fill:#dbcd00;stroke:#dbcd00;" x="258.561088" xlink:href="#m21d08f9ceb" y="386.310007"/>
     <use style="fill:#dbcd00;stroke:#dbcd00;" x="268.913592" xlink:href="#m21d08f9ceb" y="380.973185"/>
     <use style="fill:#dbcd00;stroke:#dbcd00;" x="279.266097" xlink:href="#m21d08f9ceb" y="373.501635"/>
     <use style="fill:#dbcd00;stroke:#dbcd00;" x="289.618602" xlink:href="#m21d08f9ceb" y="363.895356"/>
     <use style="fill:#dbcd00;stroke:#dbcd00;" x="299.971106" xlink:href="#m21d08f9ceb" y="357.135383"/>
     <use style="fill:#dbcd00;stroke:#dbcd00;" x="310.323611" xlink:href="#m21d08f9ceb" y="348.596468"/>
     <use style="fill:#dbcd00;stroke:#dbcd00;" x="320.676115" xlink:href="#m21d08f9ceb" y="342.548071"/>
     <use style="fill:#dbcd00;stroke:#dbcd00;" x="341.381125" xlink:href="#m21d08f9ceb" y="330.095487"/>
     <use style="fill:#dbcd00;stroke:#dbcd00;" x="351.733629" xlink:href="#m21d08f9ceb" y="320.133421"/>
     <use style="fill:#dbcd00;stroke:#dbcd00;" x="362.086134" xlink:href="#m21d08f9ceb" y="313.373447"/>
     <use style="fill:#dbcd00;stroke:#dbcd00;" x="372.438639" xlink:href="#m21d08f9ceb" y="301.988228"/>
     <use style="fill:#dbcd00;stroke:#dbcd00;" x="382.791143" xlink:href="#m21d08f9ceb" y="322.268149"/>
     <use style="fill:#dbcd00;stroke:#dbcd00;" x="403.496153" xlink:href="#m21d08f9ceb" y="261.072596"/>
     <use style="fill:#dbcd00;stroke:#dbcd00;" x="413.848657" xlink:href="#m21d08f9ceb" y="253.601046"/>
     <use style="fill:#dbcd00;stroke:#dbcd00;" x="424.201162" xlink:href="#m21d08f9ceb" y="238.657946"/>
     <use style="fill:#dbcd00;stroke:#dbcd00;" x="434.553667" xlink:href="#m21d08f9ceb" y="226.205363"/>
     <use style="fill:#dbcd00;stroke:#dbcd00;" x="444.906171" xlink:href="#m21d08f9ceb" y="210.194899"/>
     <use style="fill:#dbcd00;stroke:#dbcd00;" x="455.258676" xlink:href="#m21d08f9ceb" y="198.80968"/>
     <use style="fill:#dbcd00;stroke:#dbcd00;" x="475.963685" xlink:href="#m21d08f9ceb" y="182.443427"/>
     <use style="fill:#dbcd00;stroke:#dbcd00;" x="486.31619" xlink:href="#m21d08f9ceb" y="182.443427"/>
     <use style="fill:#dbcd00;stroke:#dbcd00;" x="496.668694" xlink:href="#m21d08f9ceb" y="166.788751"/>
     <use style="fill:#dbcd00;stroke:#dbcd00;" x="507.021199" xlink:href="#m21d08f9ceb" y="154.336167"/>
     <use style="fill:#dbcd00;stroke:#dbcd00;" x="527.726208" xlink:href="#m21d08f9ceb" y="140.81622"/>
     <use style="fill:#dbcd00;stroke:#dbcd00;" x="548.431218" xlink:href="#m21d08f9ceb" y="131.921517"/>
     <use style="fill:#dbcd00;stroke:#dbcd00;" x="558.783722" xlink:href="#m21d08f9ceb" y="125.517332"/>
     <use style="fill:#dbcd00;stroke:#dbcd00;" x="569.136227" xlink:href="#m21d08f9ceb" y="118.757358"/>
     <use style="fill:#dbcd00;stroke:#dbcd00;" x="579.488731" xlink:href="#m21d08f9ceb" y="114.487901"/>
     <use style="fill:#dbcd00;stroke:#dbcd00;" x="589.841236" xlink:href="#m21d08f9ceb" y="109.506867"/>
     <use style="fill:#dbcd00;stroke:#dbcd00;" x="600.193741" xlink:href="#m21d08f9ceb" y="100.967953"/>
     <use style="fill:#dbcd00;stroke:#dbcd00;" x="620.89875" xlink:href="#m21d08f9ceb" y="97.054284"/>
     <use style="fill:#dbcd00;stroke:#dbcd00;" x="631.251255" xlink:href="#m21d08f9ceb" y="93.852191"/>
     <use style="fill:#dbcd00;stroke:#dbcd00;" x="641.603759" xlink:href="#m21d08f9ceb" y="90.650098"/>
     <use style="fill:#dbcd00;stroke:#dbcd00;" x="651.956264" xlink:href="#m21d08f9ceb" y="85.313277"/>
     <use style="fill:#dbcd00;stroke:#dbcd00;" x="662.308769" xlink:href="#m21d08f9ceb" y="80.688031"/>
     <use style="fill:#dbcd00;stroke:#dbcd00;" x="672.661273" xlink:href="#m21d08f9ceb" y="74.283846"/>
     <use style="fill:#dbcd00;stroke:#dbcd00;" x="693.366282" xlink:href="#m21d08f9ceb" y="68.591236"/>
     <use style="fill:#dbcd00;stroke:#dbcd00;" x="703.718787" xlink:href="#m21d08f9ceb" y="65.389143"/>
     <use style="fill:#dbcd00;stroke:#dbcd00;" x="714.071292" xlink:href="#m21d08f9ceb" y="61.119686"/>
     <use style="fill:#dbcd00;stroke:#dbcd00;" x="734.776301" xlink:href="#m21d08f9ceb" y="52.93656"/>
     <use style="fill:#dbcd00;stroke:#dbcd00;" x="745.128806" xlink:href="#m21d08f9ceb" y="51.513407"/>
     <use style="fill:#dbcd00;stroke:#dbcd00;" x="765.833815" xlink:href="#m21d08f9ceb" y="49.022891"/>
     <use style="fill:#dbcd00;stroke:#dbcd00;" x="776.18632" xlink:href="#m21d08f9ceb" y="49.022891"/>
     <use style="fill:#dbcd00;stroke:#dbcd00;" x="796.891329" xlink:href="#m21d08f9ceb" y="44.753434"/>
     <use style="fill:#dbcd00;stroke:#dbcd00;" x="807.243833" xlink:href="#m21d08f9ceb" y="42.974493"/>
     <use style="fill:#dbcd00;stroke:#dbcd00;" x="848.653852" xlink:href="#m21d08f9ceb" y="40.128188"/>
     <use style="fill:#dbcd00;stroke:#dbcd00;" x="859.006357" xlink:href="#m21d08f9ceb" y="39.060824"/>
     <use style="fill:#dbcd00;stroke:#dbcd00;" x="869.358861" xlink:href="#m21d08f9ceb" y="39.060824"/>
     <use style="fill:#dbcd00;stroke:#dbcd00;" x="879.711366" xlink:href="#m21d08f9ceb" y="39.060824"/>
     <use style="fill:#dbcd00;stroke:#dbcd00;" x="890.063871" xlink:href="#m21d08f9ceb" y="38.349248"/>
     <use style="fill:#dbcd00;stroke:#dbcd00;" x="910.76888" xlink:href="#m21d08f9ceb" y="37.99346"/>
     <use style="fill:#dbcd00;stroke:#dbcd00;" x="921.121385" xlink:href="#m21d08f9ceb" y="37.99346"/>
     <use style="fill:#dbcd00;stroke:#dbcd00;" x="931.473889" xlink:href="#m21d08f9ceb" y="36.570307"/>
     <use style="fill:#dbcd00;stroke:#dbcd00;" x="952.178898" xlink:href="#m21d08f9ceb" y="36.214519"/>
     <use style="fill:#dbcd00;stroke:#dbcd00;" x="962.531403" xlink:href="#m21d08f9ceb" y="35.502943"/>
     <use style="fill:#dbcd00;stroke:#dbcd00;" x="983.236412" xlink:href="#m21d08f9ceb" y="35.147155"/>
     <use style="fill:#dbcd00;stroke:#dbcd00;" x="1003.941422" xlink:href="#m21d08f9ceb" y="34.791367"/>
     <use style="fill:#dbcd00;stroke:#dbcd00;" x="1024.646431" xlink:href="#m21d08f9ceb" y="34.791367"/>
     <use style="fill:#dbcd00;stroke:#dbcd00;" x="1034.998936" xlink:href="#m21d08f9ceb" y="34.079791"/>
     <use style="fill:#dbcd00;stroke:#dbcd00;" x="1055.703945" xlink:href="#m21d08f9ceb" y="33.368215"/>
     <use style="fill:#dbcd00;stroke:#dbcd00;" x="1066.056449" xlink:href="#m21d08f9ceb" y="33.368215"/>
     <use style="fill:#dbcd00;stroke:#dbcd00;" x="1076.408954" xlink:href="#m21d08f9ceb" y="32.30085"/>
     <use style="fill:#dbcd00;stroke:#dbcd00;" x="1086.761459" xlink:href="#m21d08f9ceb" y="31.589274"/>
     <use style="fill:#dbcd00;stroke:#dbcd00;" x="1107.466468" xlink:href="#m21d08f9ceb" y="30.166122"/>
     <use style="fill:#dbcd00;stroke:#dbcd00;" x="1128.171477" xlink:href="#m21d08f9ceb" y="29.454545"/>
    </g>
   </g>
   <g id="line2d_37">
    <path clip-path="url(#pc507a93532)" d="M 113.626023 398.76259 
L 123.978527 393.06998 
L 134.331032 388.800523 
L 144.683537 380.617397 
L 155.036041 374.568999 
L 165.388546 371.722695 
L 175.741051 368.164814 
L 186.093555 367.453237 
L 196.44606 373.501635 
L 206.798564 366.030085 
L 217.151069 352.510137 
L 227.503574 347.173316 
L 237.856078 332.230216 
L 248.208583 317.998692 
L 258.561088 319.421844 
L 268.913592 306.257685 
L 279.266097 295.228254 
L 289.618602 288.46828 
L 299.971106 279.929366 
L 310.323611 272.102027 
L 320.676115 275.30412 
L 341.381125 272.457816 
L 351.733629 282.419882 
L 362.086134 283.487247 
L 372.438639 289.179856 
L 382.791143 263.918901 
L 403.496153 315.508175 
L 413.848657 308.036625 
L 424.201162 320.133421 
L 434.553667 326.893394 
L 444.906171 338.99019 
L 455.258676 347.884892 
L 475.963685 354.644866 
L 486.31619 351.442773 
L 496.668694 364.606933 
L 507.021199 374.924787 
L 527.726208 393.06998 
L 548.431218 398.051014 
L 558.783722 404.099411 
L 569.136227 410.147809 
L 579.488731 410.859385 
L 589.841236 413.349902 
L 600.193741 417.619359 
L 620.89875 421.533028 
L 631.251255 420.821452 
L 641.603759 423.311969 
L 651.956264 426.514061 
L 662.308769 430.783519 
L 672.661273 436.12034 
L 693.366282 440.034009 
L 703.718787 442.524526 
L 714.071292 447.505559 
L 734.776301 454.621321 
L 745.128806 456.400262 
L 765.833815 458.890778 
L 776.18632 458.890778 
L 796.891329 463.160235 
L 807.243833 464.939176 
L 848.653852 466.00654 
L 859.006357 466.718116 
L 869.358861 466.362328 
L 879.711366 466.00654 
L 890.063871 467.073905 
L 910.76888 466.00654 
L 921.121385 466.00654 
L 931.473889 470.631785 
L 952.178898 472.054938 
L 962.531403 472.410726 
L 983.236412 470.275997 
L 1003.941422 470.631785 
L 1024.646431 469.208633 
L 1034.998936 469.920209 
L 1055.703945 470.631785 
L 1066.056449 470.987574 
L 1076.408954 472.054938 
L 1086.761459 472.410726 
L 1107.466468 473.833878 
L 1128.171477 474.545455 
" style="fill:none;stroke:#2792cb;stroke-linecap:square;stroke-width:2;"/>
    <defs>
     <path d="M 0 1.5 
C 0.397805 1.5 0.77937 1.341951 1.06066 1.06066 
C 1.341951 0.77937 1.5 0.397805 1.5 0 
C 1.5 -0.397805 1.341951 -0.77937 1.06066 -1.06066 
C 0.77937 -1.341951 0.397805 -1.5 0 -1.5 
C -0.397805 -1.5 -0.77937 -1.341951 -1.06066 -1.06066 
C -1.341951 -0.77937 -1.5 -0.397805 -1.5 0 
C -1.5 0.397805 -1.341951 0.77937 -1.06066 1.06066 
C -0.77937 1.341951 -0.397805 1.5 0 1.5 
z
" id="ma5df35ede9" style="stroke:#2792cb;"/>
    </defs>
    <g clip-path="url(#pc507a93532)">
     <use style="fill:#2792cb;stroke:#2792cb;" x="113.626023" xlink:href="#ma5df35ede9" y="398.76259"/>
     <use style="fill:#2792cb;stroke:#2792cb;" x="123.978527" xlink:href="#ma5df35ede9" y="393.06998"/>
     <use style="fill:#2792cb;stroke:#2792cb;" x="134.331032" xlink:href="#ma5df35ede9" y="388.800523"/>
     <use style="fill:#2792cb;stroke:#2792cb;" x="144.683537" xlink:href="#ma5df35ede9" y="380.617397"/>
     <use style="fill:#2792cb;stroke:#2792cb;" x="155.036041" xlink:href="#ma5df35ede9" y="374.568999"/>
     <use style="fill:#2792cb;stroke:#2792cb;" x="165.388546" xlink:href="#ma5df35ede9" y="371.722695"/>
     <use style="fill:#2792cb;stroke:#2792cb;" x="175.741051" xlink:href="#ma5df35ede9" y="368.164814"/>
     <use style="fill:#2792cb;stroke:#2792cb;" x="186.093555" xlink:href="#ma5df35ede9" y="367.453237"/>
     <use style="fill:#2792cb;stroke:#2792cb;" x="196.44606" xlink:href="#ma5df35ede9" y="373.501635"/>
     <use style="fill:#2792cb;stroke:#2792cb;" x="206.798564" xlink:href="#ma5df35ede9" y="366.030085"/>
     <use style="fill:#2792cb;stroke:#2792cb;" x="217.151069" xlink:href="#ma5df35ede9" y="352.510137"/>
     <use style="fill:#2792cb;stroke:#2792cb;" x="227.503574" xlink:href="#ma5df35ede9" y="347.173316"/>
     <use style="fill:#2792cb;stroke:#2792cb;" x="237.856078" xlink:href="#ma5df35ede9" y="332.230216"/>
     <use style="fill:#2792cb;stroke:#2792cb;" x="248.208583" xlink:href="#ma5df35ede9" y="317.998692"/>
     <use style="fill:#2792cb;stroke:#2792cb;" x="258.561088" xlink:href="#ma5df35ede9" y="319.421844"/>
     <use style="fill:#2792cb;stroke:#2792cb;" x="268.913592" xlink:href="#ma5df35ede9" y="306.257685"/>
     <use style="fill:#2792cb;stroke:#2792cb;" x="279.266097" xlink:href="#ma5df35ede9" y="295.228254"/>
     <use style="fill:#2792cb;stroke:#2792cb;" x="289.618602" xlink:href="#ma5df35ede9" y="288.46828"/>
     <use style="fill:#2792cb;stroke:#2792cb;" x="299.971106" xlink:href="#ma5df35ede9" y="279.929366"/>
     <use style="fill:#2792cb;stroke:#2792cb;" x="310.323611" xlink:href="#ma5df35ede9" y="272.102027"/>
     <use style="fill:#2792cb;stroke:#2792cb;" x="320.676115" xlink:href="#ma5df35ede9" y="275.30412"/>
     <use style="fill:#2792cb;stroke:#2792cb;" x="341.381125" xlink:href="#ma5df35ede9" y="272.457816"/>
     <use style="fill:#2792cb;stroke:#2792cb;" x="351.733629" xlink:href="#ma5df35ede9" y="282.419882"/>
     <use style="fill:#2792cb;stroke:#2792cb;" x="362.086134" xlink:href="#ma5df35ede9" y="283.487247"/>
     <use style="fill:#2792cb;stroke:#2792cb;" x="372.438639" xlink:href="#ma5df35ede9" y="289.179856"/>
     <use style="fill:#2792cb;stroke:#2792cb;" x="382.791143" xlink:href="#ma5df35ede9" y="263.918901"/>
     <use style="fill:#2792cb;stroke:#2792cb;" x="403.496153" xlink:href="#ma5df35ede9" y="315.508175"/>
     <use style="fill:#2792cb;stroke:#2792cb;" x="413.848657" xlink:href="#ma5df35ede9" y="308.036625"/>
     <use style="fill:#2792cb;stroke:#2792cb;" x="424.201162" xlink:href="#ma5df35ede9" y="320.133421"/>
     <use style="fill:#2792cb;stroke:#2792cb;" x="434.553667" xlink:href="#ma5df35ede9" y="326.893394"/>
     <use style="fill:#2792cb;stroke:#2792cb;" x="444.906171" xlink:href="#ma5df35ede9" y="338.99019"/>
     <use style="fill:#2792cb;stroke:#2792cb;" x="455.258676" xlink:href="#ma5df35ede9" y="347.884892"/>
     <use style="fill:#2792cb;stroke:#2792cb;" x="475.963685" xlink:href="#ma5df35ede9" y="354.644866"/>
     <use style="fill:#2792cb;stroke:#2792cb;" x="486.31619" xlink:href="#ma5df35ede9" y="351.442773"/>
     <use style="fill:#2792cb;stroke:#2792cb;" x="496.668694" xlink:href="#ma5df35ede9" y="364.606933"/>
     <use style="fill:#2792cb;stroke:#2792cb;" x="507.021199" xlink:href="#ma5df35ede9" y="374.924787"/>
     <use style="fill:#2792cb;stroke:#2792cb;" x="527.726208" xlink:href="#ma5df35ede9" y="393.06998"/>
     <use style="fill:#2792cb;stroke:#2792cb;" x="548.431218" xlink:href="#ma5df35ede9" y="398.051014"/>
     <use style="fill:#2792cb;stroke:#2792cb;" x="558.783722" xlink:href="#ma5df35ede9" y="404.099411"/>
     <use style="fill:#2792cb;stroke:#2792cb;" x="569.136227" xlink:href="#ma5df35ede9" y="410.147809"/>
     <use style="fill:#2792cb;stroke:#2792cb;" x="579.488731" xlink:href="#ma5df35ede9" y="410.859385"/>
     <use style="fill:#2792cb;stroke:#2792cb;" x="589.841236" xlink:href="#ma5df35ede9" y="413.349902"/>
     <use style="fill:#2792cb;stroke:#2792cb;" x="600.193741" xlink:href="#ma5df35ede9" y="417.619359"/>
     <use style="fill:#2792cb;stroke:#2792cb;" x="620.89875" xlink:href="#ma5df35ede9" y="421.533028"/>
     <use style="fill:#2792cb;stroke:#2792cb;" x="631.251255" xlink:href="#ma5df35ede9" y="420.821452"/>
     <use style="fill:#2792cb;stroke:#2792cb;" x="641.603759" xlink:href="#ma5df35ede9" y="423.311969"/>
     <use style="fill:#2792cb;stroke:#2792cb;" x="651.956264" xlink:href="#ma5df35ede9" y="426.514061"/>
     <use style="fill:#2792cb;stroke:#2792cb;" x="662.308769" xlink:href="#ma5df35ede9" y="430.783519"/>
     <use style="fill:#2792cb;stroke:#2792cb;" x="672.661273" xlink:href="#ma5df35ede9" y="436.12034"/>
     <use style="fill:#2792cb;stroke:#2792cb;" x="693.366282" xlink:href="#ma5df35ede9" y="440.034009"/>
     <use style="fill:#2792cb;stroke:#2792cb;" x="703.718787" xlink:href="#ma5df35ede9" y="442.524526"/>
     <use style="fill:#2792cb;stroke:#2792cb;" x="714.071292" xlink:href="#ma5df35ede9" y="447.505559"/>
     <use style="fill:#2792cb;stroke:#2792cb;" x="734.776301" xlink:href="#ma5df35ede9" y="454.621321"/>
     <use style="fill:#2792cb;stroke:#2792cb;" x="745.128806" xlink:href="#ma5df35ede9" y="456.400262"/>
     <use style="fill:#2792cb;stroke:#2792cb;" x="765.833815" xlink:href="#ma5df35ede9" y="458.890778"/>
     <use style="fill:#2792cb;stroke:#2792cb;" x="776.18632" xlink:href="#ma5df35ede9" y="458.890778"/>
     <use style="fill:#2792cb;stroke:#2792cb;" x="796.891329" xlink:href="#ma5df35ede9" y="463.160235"/>
     <use style="fill:#2792cb;stroke:#2792cb;" x="807.243833" xlink:href="#ma5df35ede9" y="464.939176"/>
     <use style="fill:#2792cb;stroke:#2792cb;" x="848.653852" xlink:href="#ma5df35ede9" y="466.00654"/>
     <use style="fill:#2792cb;stroke:#2792cb;" x="859.006357" xlink:href="#ma5df35ede9" y="466.718116"/>
     <use style="fill:#2792cb;stroke:#2792cb;" x="869.358861" xlink:href="#ma5df35ede9" y="466.362328"/>
     <use style="fill:#2792cb;stroke:#2792cb;" x="879.711366" xlink:href="#ma5df35ede9" y="466.00654"/>
     <use style="fill:#2792cb;stroke:#2792cb;" x="890.063871" xlink:href="#ma5df35ede9" y="467.073905"/>
     <use style="fill:#2792cb;stroke:#2792cb;" x="910.76888" xlink:href="#ma5df35ede9" y="466.00654"/>
     <use style="fill:#2792cb;stroke:#2792cb;" x="921.121385" xlink:href="#ma5df35ede9" y="466.00654"/>
     <use style="fill:#2792cb;stroke:#2792cb;" x="931.473889" xlink:href="#ma5df35ede9" y="470.631785"/>
     <use style="fill:#2792cb;stroke:#2792cb;" x="952.178898" xlink:href="#ma5df35ede9" y="472.054938"/>
     <use style="fill:#2792cb;stroke:#2792cb;" x="962.531403" xlink:href="#ma5df35ede9" y="472.410726"/>
     <use style="fill:#2792cb;stroke:#2792cb;" x="983.236412" xlink:href="#ma5df35ede9" y="470.275997"/>
     <use style="fill:#2792cb;stroke:#2792cb;" x="1003.941422" xlink:href="#ma5df35ede9" y="470.631785"/>
     <use style="fill:#2792cb;stroke:#2792cb;" x="1024.646431" xlink:href="#ma5df35ede9" y="469.208633"/>
     <use style="fill:#2792cb;stroke:#2792cb;" x="1034.998936" xlink:href="#ma5df35ede9" y="469.920209"/>
     <use style="fill:#2792cb;stroke:#2792cb;" x="1055.703945" xlink:href="#ma5df35ede9" y="470.631785"/>
     <use style="fill:#2792cb;stroke:#2792cb;" x="1066.056449" xlink:href="#ma5df35ede9" y="470.987574"/>
     <use style="fill:#2792cb;stroke:#2792cb;" x="1076.408954" xlink:href="#ma5df35ede9" y="472.054938"/>
     <use style="fill:#2792cb;stroke:#2792cb;" x="1086.761459" xlink:href="#ma5df35ede9" y="472.410726"/>
     <use style="fill:#2792cb;stroke:#2792cb;" x="1107.466468" xlink:href="#ma5df35ede9" y="473.833878"/>
     <use style="fill:#2792cb;stroke:#2792cb;" x="1128.171477" xlink:href="#ma5df35ede9" y="474.545455"/>
    </g>
   </g>
   <g id="patch_3">
    <path d="M 62.89875 496.8 
L 1178.89875 496.8 
" style="fill:none;stroke:#000000;stroke-linecap:square;stroke-linejoin:miter;stroke-width:0.8;"/>
   </g>
   <g id="legend_1">
    <g id="line2d_38">
     <path d="M 71.89875 20.298437 
L 91.89875 20.298437 
" style="fill:none;stroke:#dbcd00;stroke-linecap:square;stroke-width:2;"/>
    </g>
    <g id="line2d_39">
     <g>
      <use style="fill:#dbcd00;stroke:#dbcd00;" x="81.89875" xlink:href="#m21d08f9ceb" y="20.298437"/>
     </g>
    </g>
    <g id="text_23">
     <!-- Genesene -->
     <defs>
      <path d="M 59.515625 10.40625 
L 59.515625 29.984375 
L 43.40625 29.984375 
L 43.40625 38.09375 
L 69.28125 38.09375 
L 69.28125 6.78125 
Q 63.578125 2.734375 56.6875 0.65625 
Q 49.8125 -1.421875 42 -1.421875 
Q 24.90625 -1.421875 15.25 8.5625 
Q 5.609375 18.5625 5.609375 36.375 
Q 5.609375 54.25 15.25 64.234375 
Q 24.90625 74.21875 42 74.21875 
Q 49.125 74.21875 55.546875 72.453125 
Q 61.96875 70.703125 67.390625 67.28125 
L 67.390625 56.78125 
Q 61.921875 61.421875 55.765625 63.765625 
Q 49.609375 66.109375 42.828125 66.109375 
Q 29.4375 66.109375 22.71875 58.640625 
Q 16.015625 51.171875 16.015625 36.375 
Q 16.015625 21.625 22.71875 14.15625 
Q 29.4375 6.6875 42.828125 6.6875 
Q 48.046875 6.6875 52.140625 7.59375 
Q 56.25 8.5 59.515625 10.40625 
z
" id="DejaVuSans-71"/>
      <path d="M 44.28125 53.078125 
L 44.28125 44.578125 
Q 40.484375 46.53125 36.375 47.5 
Q 32.28125 48.484375 27.875 48.484375 
Q 21.1875 48.484375 17.84375 46.4375 
Q 14.5 44.390625 14.5 40.28125 
Q 14.5 37.15625 16.890625 35.375 
Q 19.28125 33.59375 26.515625 31.984375 
L 29.59375 31.296875 
Q 39.15625 29.25 43.1875 25.515625 
Q 47.21875 21.78125 47.21875 15.09375 
Q 47.21875 7.46875 41.1875 3.015625 
Q 35.15625 -1.421875 24.609375 -1.421875 
Q 20.21875 -1.421875 15.453125 -0.5625 
Q 10.6875 0.296875 5.421875 2 
L 5.421875 11.28125 
Q 10.40625 8.6875 15.234375 7.390625 
Q 20.0625 6.109375 24.8125 6.109375 
Q 31.15625 6.109375 34.5625 8.28125 
Q 37.984375 10.453125 37.984375 14.40625 
Q 37.984375 18.0625 35.515625 20.015625 
Q 33.0625 21.96875 24.703125 23.78125 
L 21.578125 24.515625 
Q 13.234375 26.265625 9.515625 29.90625 
Q 5.8125 33.546875 5.8125 39.890625 
Q 5.8125 47.609375 11.28125 51.796875 
Q 16.75 56 26.8125 56 
Q 31.78125 56 36.171875 55.265625 
Q 40.578125 54.546875 44.28125 53.078125 
z
" id="DejaVuSans-115"/>
     </defs>
     <g transform="translate(99.89875 23.798437)scale(0.1 -0.1)">
      <use xlink:href="#DejaVuSans-71"/>
      <use x="77.490234" xlink:href="#DejaVuSans-101"/>
      <use x="139.013672" xlink:href="#DejaVuSans-110"/>
      <use x="202.392578" xlink:href="#DejaVuSans-101"/>
      <use x="263.916016" xlink:href="#DejaVuSans-115"/>
      <use x="316.015625" xlink:href="#DejaVuSans-101"/>
      <use x="377.539062" xlink:href="#DejaVuSans-110"/>
      <use x="440.917969" xlink:href="#DejaVuSans-101"/>
     </g>
    </g>
    <g id="line2d_40">
     <path d="M 71.89875 34.976562 
L 91.89875 34.976562 
" style="fill:none;stroke:#2792cb;stroke-linecap:square;stroke-width:2;"/>
    </g>
    <g id="line2d_41">
     <g>
      <use style="fill:#2792cb;stroke:#2792cb;" x="81.89875" xlink:href="#ma5df35ede9" y="34.976562"/>
     </g>
    </g>
    <g id="text_24">
     <!-- Erkrankte -->
     <defs>
      <path d="M 9.8125 72.90625 
L 55.90625 72.90625 
L 55.90625 64.59375 
L 19.671875 64.59375 
L 19.671875 43.015625 
L 54.390625 43.015625 
L 54.390625 34.71875 
L 19.671875 34.71875 
L 19.671875 8.296875 
L 56.78125 8.296875 
L 56.78125 0 
L 9.8125 0 
z
" id="DejaVuSans-69"/>
      <path d="M 41.109375 46.296875 
Q 39.59375 47.171875 37.8125 47.578125 
Q 36.03125 48 33.890625 48 
Q 26.265625 48 22.1875 43.046875 
Q 18.109375 38.09375 18.109375 28.8125 
L 18.109375 0 
L 9.078125 0 
L 9.078125 54.6875 
L 18.109375 54.6875 
L 18.109375 46.1875 
Q 20.953125 51.171875 25.484375 53.578125 
Q 30.03125 56 36.53125 56 
Q 37.453125 56 38.578125 55.875 
Q 39.703125 55.765625 41.0625 55.515625 
z
" id="DejaVuSans-114"/>
      <path d="M 9.078125 75.984375 
L 18.109375 75.984375 
L 18.109375 31.109375 
L 44.921875 54.6875 
L 56.390625 54.6875 
L 27.390625 29.109375 
L 57.625 0 
L 45.90625 0 
L 18.109375 26.703125 
L 18.109375 0 
L 9.078125 0 
z
" id="DejaVuSans-107"/>
      <path d="M 18.3125 70.21875 
L 18.3125 54.6875 
L 36.8125 54.6875 
L 36.8125 47.703125 
L 18.3125 47.703125 
L 18.3125 18.015625 
Q 18.3125 11.328125 20.140625 9.421875 
Q 21.96875 7.515625 27.59375 7.515625 
L 36.8125 7.515625 
L 36.8125 0 
L 27.59375 0 
Q 17.1875 0 13.234375 3.875 
Q 9.28125 7.765625 9.28125 18.015625 
L 9.28125 47.703125 
L 2.6875 47.703125 
L 2.6875 54.6875 
L 9.28125 54.6875 
L 9.28125 70.21875 
z
" id="DejaVuSans-116"/>
     </defs>
     <g transform="translate(99.89875 38.476562)scale(0.1 -0.1)">
      <use xlink:href="#DejaVuSans-69"/>
      <use x="63.183594" xlink:href="#DejaVuSans-114"/>
      <use x="104.296875" xlink:href="#DejaVuSans-107"/>
      <use x="162.207031" xlink:href="#DejaVuSans-114"/>
      <use x="203.320312" xlink:href="#DejaVuSans-97"/>
      <use x="264.599609" xlink:href="#DejaVuSans-110"/>
      <use x="327.978516" xlink:href="#DejaVuSans-107"/>
      <use x="385.888672" xlink:href="#DejaVuSans-116"/>
      <use x="425.097656" xlink:href="#DejaVuSans-101"/>
     </g>
    </g>
   </g>
  </g>
 </g>
 <defs>
  <clipPath id="pc507a93532">
   <rect height="489.6" width="1116" x="62.89875" y="7.2"/>
  </clipPath>
 </defs>
</svg>
