<?xml version="1.0" encoding="utf-8" standalone="no"?>
<!DOCTYPE svg PUBLIC "-//W3C//DTD SVG 1.1//EN"
  "http://www.w3.org/Graphics/SVG/1.1/DTD/svg11.dtd">
<!-- Created with matplotlib (https://matplotlib.org/) -->
<svg height="553.993765pt" version="1.1" viewBox="0 0 1186.09875 553.993765" width="1186.09875pt" xmlns="http://www.w3.org/2000/svg" xmlns:xlink="http://www.w3.org/1999/xlink">
 <defs>
  <style type="text/css">
*{stroke-linecap:butt;stroke-linejoin:round;}
  </style>
 </defs>
 <g id="figure_1">
  <g id="patch_1">
   <path d="M 0 553.993765 
L 1186.09875 553.993765 
L 1186.09875 0 
L 0 0 
z
" style="fill:#ffffff;"/>
  </g>
  <g id="axes_1">
   <g id="patch_2">
    <path d="M 62.89875 501.738984 
L 1178.89875 501.738984 
L 1178.89875 12.138984 
L 62.89875 12.138984 
z
" style="fill:#ffffff;"/>
   </g>
   <g id="matplotlib.axis_1">
    <g id="xtick_1">
     <g id="line2d_1">
      <defs>
       <path d="M 0 0 
L 0 3.5 
" id="m95c3999045" style="stroke:#000000;stroke-width:0.8;"/>
      </defs>
      <g>
       <use style="stroke:#000000;stroke-width:0.8;" x="155.703945" xlink:href="#m95c3999045" y="501.738984"/>
      </g>
     </g>
     <g id="text_1">
      <!-- 2020-04 -->
      <defs>
       <path d="M 19.1875 8.296875 
L 53.609375 8.296875 
L 53.609375 0 
L 7.328125 0 
L 7.328125 8.296875 
Q 12.9375 14.109375 22.625 23.890625 
Q 32.328125 33.6875 34.8125 36.53125 
Q 39.546875 41.84375 41.421875 45.53125 
Q 43.3125 49.21875 43.3125 52.78125 
Q 43.3125 58.59375 39.234375 62.25 
Q 35.15625 65.921875 28.609375 65.921875 
Q 23.96875 65.921875 18.8125 64.3125 
Q 13.671875 62.703125 7.8125 59.421875 
L 7.8125 69.390625 
Q 13.765625 71.78125 18.9375 73 
Q 24.125 74.21875 28.421875 74.21875 
Q 39.75 74.21875 46.484375 68.546875 
Q 53.21875 62.890625 53.21875 53.421875 
Q 53.21875 48.921875 51.53125 44.890625 
Q 49.859375 40.875 45.40625 35.40625 
Q 44.1875 33.984375 37.640625 27.21875 
Q 31.109375 20.453125 19.1875 8.296875 
z
" id="DejaVuSans-50"/>
       <path d="M 31.78125 66.40625 
Q 24.171875 66.40625 20.328125 58.90625 
Q 16.5 51.421875 16.5 36.375 
Q 16.5 21.390625 20.328125 13.890625 
Q 24.171875 6.390625 31.78125 6.390625 
Q 39.453125 6.390625 43.28125 13.890625 
Q 47.125 21.390625 47.125 36.375 
Q 47.125 51.421875 43.28125 58.90625 
Q 39.453125 66.40625 31.78125 66.40625 
z
M 31.78125 74.21875 
Q 44.046875 74.21875 50.515625 64.515625 
Q 56.984375 54.828125 56.984375 36.375 
Q 56.984375 17.96875 50.515625 8.265625 
Q 44.046875 -1.421875 31.78125 -1.421875 
Q 19.53125 -1.421875 13.0625 8.265625 
Q 6.59375 17.96875 6.59375 36.375 
Q 6.59375 54.828125 13.0625 64.515625 
Q 19.53125 74.21875 31.78125 74.21875 
z
" id="DejaVuSans-48"/>
       <path d="M 4.890625 31.390625 
L 31.203125 31.390625 
L 31.203125 23.390625 
L 4.890625 23.390625 
z
" id="DejaVuSans-45"/>
       <path d="M 37.796875 64.3125 
L 12.890625 25.390625 
L 37.796875 25.390625 
z
M 35.203125 72.90625 
L 47.609375 72.90625 
L 47.609375 25.390625 
L 58.015625 25.390625 
L 58.015625 17.1875 
L 47.609375 17.1875 
L 47.609375 0 
L 37.796875 0 
L 37.796875 17.1875 
L 4.890625 17.1875 
L 4.890625 26.703125 
z
" id="DejaVuSans-52"/>
      </defs>
      <g transform="translate(107.311678 544.452384)rotate(-30)scale(0.13 -0.13)">
       <use xlink:href="#DejaVuSans-50"/>
       <use x="63.623047" xlink:href="#DejaVuSans-48"/>
       <use x="127.246094" xlink:href="#DejaVuSans-50"/>
       <use x="190.869141" xlink:href="#DejaVuSans-48"/>
       <use x="254.492188" xlink:href="#DejaVuSans-45"/>
       <use x="290.576172" xlink:href="#DejaVuSans-48"/>
       <use x="354.199219" xlink:href="#DejaVuSans-52"/>
      </g>
     </g>
    </g>
    <g id="xtick_2">
     <g id="line2d_2">
      <g>
       <use style="stroke:#000000;stroke-width:0.8;" x="295.963685" xlink:href="#m95c3999045" y="501.738984"/>
      </g>
     </g>
     <g id="text_2">
      <!-- 2020-05 -->
      <defs>
       <path d="M 10.796875 72.90625 
L 49.515625 72.90625 
L 49.515625 64.59375 
L 19.828125 64.59375 
L 19.828125 46.734375 
Q 21.96875 47.46875 24.109375 47.828125 
Q 26.265625 48.1875 28.421875 48.1875 
Q 40.625 48.1875 47.75 41.5 
Q 54.890625 34.8125 54.890625 23.390625 
Q 54.890625 11.625 47.5625 5.09375 
Q 40.234375 -1.421875 26.90625 -1.421875 
Q 22.3125 -1.421875 17.546875 -0.640625 
Q 12.796875 0.140625 7.71875 1.703125 
L 7.71875 11.625 
Q 12.109375 9.234375 16.796875 8.0625 
Q 21.484375 6.890625 26.703125 6.890625 
Q 35.15625 6.890625 40.078125 11.328125 
Q 45.015625 15.765625 45.015625 23.390625 
Q 45.015625 31 40.078125 35.4375 
Q 35.15625 39.890625 26.703125 39.890625 
Q 22.75 39.890625 18.8125 39.015625 
Q 14.890625 38.140625 10.796875 36.28125 
z
" id="DejaVuSans-53"/>
      </defs>
      <g transform="translate(247.571418 544.452384)rotate(-30)scale(0.13 -0.13)">
       <use xlink:href="#DejaVuSans-50"/>
       <use x="63.623047" xlink:href="#DejaVuSans-48"/>
       <use x="127.246094" xlink:href="#DejaVuSans-50"/>
       <use x="190.869141" xlink:href="#DejaVuSans-48"/>
       <use x="254.492188" xlink:href="#DejaVuSans-45"/>
       <use x="290.576172" xlink:href="#DejaVuSans-48"/>
       <use x="354.199219" xlink:href="#DejaVuSans-53"/>
      </g>
     </g>
    </g>
    <g id="xtick_3">
     <g id="line2d_3">
      <g>
       <use style="stroke:#000000;stroke-width:0.8;" x="440.89875" xlink:href="#m95c3999045" y="501.738984"/>
      </g>
     </g>
     <g id="text_3">
      <!-- 2020-06 -->
      <defs>
       <path d="M 33.015625 40.375 
Q 26.375 40.375 22.484375 35.828125 
Q 18.609375 31.296875 18.609375 23.390625 
Q 18.609375 15.53125 22.484375 10.953125 
Q 26.375 6.390625 33.015625 6.390625 
Q 39.65625 6.390625 43.53125 10.953125 
Q 47.40625 15.53125 47.40625 23.390625 
Q 47.40625 31.296875 43.53125 35.828125 
Q 39.65625 40.375 33.015625 40.375 
z
M 52.59375 71.296875 
L 52.59375 62.3125 
Q 48.875 64.0625 45.09375 64.984375 
Q 41.3125 65.921875 37.59375 65.921875 
Q 27.828125 65.921875 22.671875 59.328125 
Q 17.53125 52.734375 16.796875 39.40625 
Q 19.671875 43.65625 24.015625 45.921875 
Q 28.375 48.1875 33.59375 48.1875 
Q 44.578125 48.1875 50.953125 41.515625 
Q 57.328125 34.859375 57.328125 23.390625 
Q 57.328125 12.15625 50.6875 5.359375 
Q 44.046875 -1.421875 33.015625 -1.421875 
Q 20.359375 -1.421875 13.671875 8.265625 
Q 6.984375 17.96875 6.984375 36.375 
Q 6.984375 53.65625 15.1875 63.9375 
Q 23.390625 74.21875 37.203125 74.21875 
Q 40.921875 74.21875 44.703125 73.484375 
Q 48.484375 72.75 52.59375 71.296875 
z
" id="DejaVuSans-54"/>
      </defs>
      <g transform="translate(392.506483 544.452384)rotate(-30)scale(0.13 -0.13)">
       <use xlink:href="#DejaVuSans-50"/>
       <use x="63.623047" xlink:href="#DejaVuSans-48"/>
       <use x="127.246094" xlink:href="#DejaVuSans-50"/>
       <use x="190.869141" xlink:href="#DejaVuSans-48"/>
       <use x="254.492188" xlink:href="#DejaVuSans-45"/>
       <use x="290.576172" xlink:href="#DejaVuSans-48"/>
       <use x="354.199219" xlink:href="#DejaVuSans-54"/>
      </g>
     </g>
    </g>
    <g id="xtick_4">
     <g id="line2d_4">
      <g>
       <use style="stroke:#000000;stroke-width:0.8;" x="581.15849" xlink:href="#m95c3999045" y="501.738984"/>
      </g>
     </g>
     <g id="text_4">
      <!-- 2020-07 -->
      <defs>
       <path d="M 8.203125 72.90625 
L 55.078125 72.90625 
L 55.078125 68.703125 
L 28.609375 0 
L 18.3125 0 
L 43.21875 64.59375 
L 8.203125 64.59375 
z
" id="DejaVuSans-55"/>
      </defs>
      <g transform="translate(532.766223 544.452384)rotate(-30)scale(0.13 -0.13)">
       <use xlink:href="#DejaVuSans-50"/>
       <use x="63.623047" xlink:href="#DejaVuSans-48"/>
       <use x="127.246094" xlink:href="#DejaVuSans-50"/>
       <use x="190.869141" xlink:href="#DejaVuSans-48"/>
       <use x="254.492188" xlink:href="#DejaVuSans-45"/>
       <use x="290.576172" xlink:href="#DejaVuSans-48"/>
       <use x="354.199219" xlink:href="#DejaVuSans-55"/>
      </g>
     </g>
    </g>
    <g id="xtick_5">
     <g id="line2d_5">
      <g>
       <use style="stroke:#000000;stroke-width:0.8;" x="726.093555" xlink:href="#m95c3999045" y="501.738984"/>
      </g>
     </g>
     <g id="text_5">
      <!-- 2020-08 -->
      <defs>
       <path d="M 31.78125 34.625 
Q 24.75 34.625 20.71875 30.859375 
Q 16.703125 27.09375 16.703125 20.515625 
Q 16.703125 13.921875 20.71875 10.15625 
Q 24.75 6.390625 31.78125 6.390625 
Q 38.8125 6.390625 42.859375 10.171875 
Q 46.921875 13.96875 46.921875 20.515625 
Q 46.921875 27.09375 42.890625 30.859375 
Q 38.875 34.625 31.78125 34.625 
z
M 21.921875 38.8125 
Q 15.578125 40.375 12.03125 44.71875 
Q 8.5 49.078125 8.5 55.328125 
Q 8.5 64.0625 14.71875 69.140625 
Q 20.953125 74.21875 31.78125 74.21875 
Q 42.671875 74.21875 48.875 69.140625 
Q 55.078125 64.0625 55.078125 55.328125 
Q 55.078125 49.078125 51.53125 44.71875 
Q 48 40.375 41.703125 38.8125 
Q 48.828125 37.15625 52.796875 32.3125 
Q 56.78125 27.484375 56.78125 20.515625 
Q 56.78125 9.90625 50.3125 4.234375 
Q 43.84375 -1.421875 31.78125 -1.421875 
Q 19.734375 -1.421875 13.25 4.234375 
Q 6.78125 9.90625 6.78125 20.515625 
Q 6.78125 27.484375 10.78125 32.3125 
Q 14.796875 37.15625 21.921875 38.8125 
z
M 18.3125 54.390625 
Q 18.3125 48.734375 21.84375 45.5625 
Q 25.390625 42.390625 31.78125 42.390625 
Q 38.140625 42.390625 41.71875 45.5625 
Q 45.3125 48.734375 45.3125 54.390625 
Q 45.3125 60.0625 41.71875 63.234375 
Q 38.140625 66.40625 31.78125 66.40625 
Q 25.390625 66.40625 21.84375 63.234375 
Q 18.3125 60.0625 18.3125 54.390625 
z
" id="DejaVuSans-56"/>
      </defs>
      <g transform="translate(677.701288 544.452384)rotate(-30)scale(0.13 -0.13)">
       <use xlink:href="#DejaVuSans-50"/>
       <use x="63.623047" xlink:href="#DejaVuSans-48"/>
       <use x="127.246094" xlink:href="#DejaVuSans-50"/>
       <use x="190.869141" xlink:href="#DejaVuSans-48"/>
       <use x="254.492188" xlink:href="#DejaVuSans-45"/>
       <use x="290.576172" xlink:href="#DejaVuSans-48"/>
       <use x="354.199219" xlink:href="#DejaVuSans-56"/>
      </g>
     </g>
    </g>
    <g id="xtick_6">
     <g id="line2d_6">
      <g>
       <use style="stroke:#000000;stroke-width:0.8;" x="871.02862" xlink:href="#m95c3999045" y="501.738984"/>
      </g>
     </g>
     <g id="text_6">
      <!-- 2020-09 -->
      <defs>
       <path d="M 10.984375 1.515625 
L 10.984375 10.5 
Q 14.703125 8.734375 18.5 7.8125 
Q 22.3125 6.890625 25.984375 6.890625 
Q 35.75 6.890625 40.890625 13.453125 
Q 46.046875 20.015625 46.78125 33.40625 
Q 43.953125 29.203125 39.59375 26.953125 
Q 35.25 24.703125 29.984375 24.703125 
Q 19.046875 24.703125 12.671875 31.3125 
Q 6.296875 37.9375 6.296875 49.421875 
Q 6.296875 60.640625 12.9375 67.421875 
Q 19.578125 74.21875 30.609375 74.21875 
Q 43.265625 74.21875 49.921875 64.515625 
Q 56.59375 54.828125 56.59375 36.375 
Q 56.59375 19.140625 48.40625 8.859375 
Q 40.234375 -1.421875 26.421875 -1.421875 
Q 22.703125 -1.421875 18.890625 -0.6875 
Q 15.09375 0.046875 10.984375 1.515625 
z
M 30.609375 32.421875 
Q 37.25 32.421875 41.125 36.953125 
Q 45.015625 41.5 45.015625 49.421875 
Q 45.015625 57.28125 41.125 61.84375 
Q 37.25 66.40625 30.609375 66.40625 
Q 23.96875 66.40625 20.09375 61.84375 
Q 16.21875 57.28125 16.21875 49.421875 
Q 16.21875 41.5 20.09375 36.953125 
Q 23.96875 32.421875 30.609375 32.421875 
z
" id="DejaVuSans-57"/>
      </defs>
      <g transform="translate(822.636353 544.452384)rotate(-30)scale(0.13 -0.13)">
       <use xlink:href="#DejaVuSans-50"/>
       <use x="63.623047" xlink:href="#DejaVuSans-48"/>
       <use x="127.246094" xlink:href="#DejaVuSans-50"/>
       <use x="190.869141" xlink:href="#DejaVuSans-48"/>
       <use x="254.492188" xlink:href="#DejaVuSans-45"/>
       <use x="290.576172" xlink:href="#DejaVuSans-48"/>
       <use x="354.199219" xlink:href="#DejaVuSans-57"/>
      </g>
     </g>
    </g>
    <g id="xtick_7">
     <g id="line2d_7">
      <g>
       <use style="stroke:#000000;stroke-width:0.8;" x="1011.28836" xlink:href="#m95c3999045" y="501.738984"/>
      </g>
     </g>
     <g id="text_7">
      <!-- 2020-10 -->
      <defs>
       <path d="M 12.40625 8.296875 
L 28.515625 8.296875 
L 28.515625 63.921875 
L 10.984375 60.40625 
L 10.984375 69.390625 
L 28.421875 72.90625 
L 38.28125 72.90625 
L 38.28125 8.296875 
L 54.390625 8.296875 
L 54.390625 0 
L 12.40625 0 
z
" id="DejaVuSans-49"/>
      </defs>
      <g transform="translate(962.896093 544.452384)rotate(-30)scale(0.13 -0.13)">
       <use xlink:href="#DejaVuSans-50"/>
       <use x="63.623047" xlink:href="#DejaVuSans-48"/>
       <use x="127.246094" xlink:href="#DejaVuSans-50"/>
       <use x="190.869141" xlink:href="#DejaVuSans-48"/>
       <use x="254.492188" xlink:href="#DejaVuSans-45"/>
       <use x="290.576172" xlink:href="#DejaVuSans-49"/>
       <use x="354.199219" xlink:href="#DejaVuSans-48"/>
      </g>
     </g>
    </g>
    <g id="xtick_8">
     <g id="line2d_8">
      <g>
       <use style="stroke:#000000;stroke-width:0.8;" x="1156.223425" xlink:href="#m95c3999045" y="501.738984"/>
      </g>
     </g>
     <g id="text_8">
      <!-- 2020-11 -->
      <g transform="translate(1107.831158 544.452384)rotate(-30)scale(0.13 -0.13)">
       <use xlink:href="#DejaVuSans-50"/>
       <use x="63.623047" xlink:href="#DejaVuSans-48"/>
       <use x="127.246094" xlink:href="#DejaVuSans-50"/>
       <use x="190.869141" xlink:href="#DejaVuSans-48"/>
       <use x="254.492188" xlink:href="#DejaVuSans-45"/>
       <use x="290.576172" xlink:href="#DejaVuSans-49"/>
       <use x="354.199219" xlink:href="#DejaVuSans-49"/>
      </g>
     </g>
    </g>
   </g>
   <g id="matplotlib.axis_2">
    <g id="ytick_1">
     <g id="line2d_9">
      <path clip-path="url(#pe2f0c99339)" d="M 62.89875 479.797983 
L 1178.89875 479.797983 
" style="fill:none;stroke:#b0b0b0;stroke-linecap:square;stroke-width:0.8;"/>
     </g>
     <g id="line2d_10">
      <defs>
       <path d="M 0 0 
L -3.5 0 
" id="m7c46669a92" style="stroke:#000000;stroke-width:0.8;"/>
      </defs>
      <g>
       <use style="stroke:#000000;stroke-width:0.8;" x="62.89875" xlink:href="#m7c46669a92" y="479.797983"/>
      </g>
     </g>
     <g id="text_9">
      <!-- 0 -->
      <g transform="translate(47.6275 484.736967)scale(0.13 -0.13)">
       <use xlink:href="#DejaVuSans-48"/>
      </g>
     </g>
    </g>
    <g id="ytick_2">
     <g id="line2d_11">
      <path clip-path="url(#pe2f0c99339)" d="M 62.89875 440.8264 
L 1178.89875 440.8264 
" style="fill:none;stroke:#b0b0b0;stroke-linecap:square;stroke-width:0.8;"/>
     </g>
     <g id="line2d_12">
      <g>
       <use style="stroke:#000000;stroke-width:0.8;" x="62.89875" xlink:href="#m7c46669a92" y="440.8264"/>
      </g>
     </g>
     <g id="text_10">
      <!-- 100 -->
      <g transform="translate(31.085 445.765384)scale(0.13 -0.13)">
       <use xlink:href="#DejaVuSans-49"/>
       <use x="63.623047" xlink:href="#DejaVuSans-48"/>
       <use x="127.246094" xlink:href="#DejaVuSans-48"/>
      </g>
     </g>
    </g>
    <g id="ytick_3">
     <g id="line2d_13">
      <path clip-path="url(#pe2f0c99339)" d="M 62.89875 401.854817 
L 1178.89875 401.854817 
" style="fill:none;stroke:#b0b0b0;stroke-linecap:square;stroke-width:0.8;"/>
     </g>
     <g id="line2d_14">
      <g>
       <use style="stroke:#000000;stroke-width:0.8;" x="62.89875" xlink:href="#m7c46669a92" y="401.854817"/>
      </g>
     </g>
     <g id="text_11">
      <!-- 200 -->
      <g transform="translate(31.085 406.793801)scale(0.13 -0.13)">
       <use xlink:href="#DejaVuSans-50"/>
       <use x="63.623047" xlink:href="#DejaVuSans-48"/>
       <use x="127.246094" xlink:href="#DejaVuSans-48"/>
      </g>
     </g>
    </g>
    <g id="ytick_4">
     <g id="line2d_15">
      <path clip-path="url(#pe2f0c99339)" d="M 62.89875 362.883233 
L 1178.89875 362.883233 
" style="fill:none;stroke:#b0b0b0;stroke-linecap:square;stroke-width:0.8;"/>
     </g>
     <g id="line2d_16">
      <g>
       <use style="stroke:#000000;stroke-width:0.8;" x="62.89875" xlink:href="#m7c46669a92" y="362.883233"/>
      </g>
     </g>
     <g id="text_12">
      <!-- 300 -->
      <defs>
       <path d="M 40.578125 39.3125 
Q 47.65625 37.796875 51.625 33 
Q 55.609375 28.21875 55.609375 21.1875 
Q 55.609375 10.40625 48.1875 4.484375 
Q 40.765625 -1.421875 27.09375 -1.421875 
Q 22.515625 -1.421875 17.65625 -0.515625 
Q 12.796875 0.390625 7.625 2.203125 
L 7.625 11.71875 
Q 11.71875 9.328125 16.59375 8.109375 
Q 21.484375 6.890625 26.8125 6.890625 
Q 36.078125 6.890625 40.9375 10.546875 
Q 45.796875 14.203125 45.796875 21.1875 
Q 45.796875 27.640625 41.28125 31.265625 
Q 36.765625 34.90625 28.71875 34.90625 
L 20.21875 34.90625 
L 20.21875 43.015625 
L 29.109375 43.015625 
Q 36.375 43.015625 40.234375 45.921875 
Q 44.09375 48.828125 44.09375 54.296875 
Q 44.09375 59.90625 40.109375 62.90625 
Q 36.140625 65.921875 28.71875 65.921875 
Q 24.65625 65.921875 20.015625 65.03125 
Q 15.375 64.15625 9.8125 62.3125 
L 9.8125 71.09375 
Q 15.4375 72.65625 20.34375 73.4375 
Q 25.25 74.21875 29.59375 74.21875 
Q 40.828125 74.21875 47.359375 69.109375 
Q 53.90625 64.015625 53.90625 55.328125 
Q 53.90625 49.265625 50.4375 45.09375 
Q 46.96875 40.921875 40.578125 39.3125 
z
" id="DejaVuSans-51"/>
      </defs>
      <g transform="translate(31.085 367.822218)scale(0.13 -0.13)">
       <use xlink:href="#DejaVuSans-51"/>
       <use x="63.623047" xlink:href="#DejaVuSans-48"/>
       <use x="127.246094" xlink:href="#DejaVuSans-48"/>
      </g>
     </g>
    </g>
    <g id="ytick_5">
     <g id="line2d_17">
      <path clip-path="url(#pe2f0c99339)" d="M 62.89875 323.91165 
L 1178.89875 323.91165 
" style="fill:none;stroke:#b0b0b0;stroke-linecap:square;stroke-width:0.8;"/>
     </g>
     <g id="line2d_18">
      <g>
       <use style="stroke:#000000;stroke-width:0.8;" x="62.89875" xlink:href="#m7c46669a92" y="323.91165"/>
      </g>
     </g>
     <g id="text_13">
      <!-- 400 -->
      <g transform="translate(31.085 328.850635)scale(0.13 -0.13)">
       <use xlink:href="#DejaVuSans-52"/>
       <use x="63.623047" xlink:href="#DejaVuSans-48"/>
       <use x="127.246094" xlink:href="#DejaVuSans-48"/>
      </g>
     </g>
    </g>
    <g id="ytick_6">
     <g id="line2d_19">
      <path clip-path="url(#pe2f0c99339)" d="M 62.89875 284.940067 
L 1178.89875 284.940067 
" style="fill:none;stroke:#b0b0b0;stroke-linecap:square;stroke-width:0.8;"/>
     </g>
     <g id="line2d_20">
      <g>
       <use style="stroke:#000000;stroke-width:0.8;" x="62.89875" xlink:href="#m7c46669a92" y="284.940067"/>
      </g>
     </g>
     <g id="text_14">
      <!-- 500 -->
      <g transform="translate(31.085 289.879051)scale(0.13 -0.13)">
       <use xlink:href="#DejaVuSans-53"/>
       <use x="63.623047" xlink:href="#DejaVuSans-48"/>
       <use x="127.246094" xlink:href="#DejaVuSans-48"/>
      </g>
     </g>
    </g>
    <g id="ytick_7">
     <g id="line2d_21">
      <path clip-path="url(#pe2f0c99339)" d="M 62.89875 245.968484 
L 1178.89875 245.968484 
" style="fill:none;stroke:#b0b0b0;stroke-linecap:square;stroke-width:0.8;"/>
     </g>
     <g id="line2d_22">
      <g>
       <use style="stroke:#000000;stroke-width:0.8;" x="62.89875" xlink:href="#m7c46669a92" y="245.968484"/>
      </g>
     </g>
     <g id="text_15">
      <!-- 600 -->
      <g transform="translate(31.085 250.907468)scale(0.13 -0.13)">
       <use xlink:href="#DejaVuSans-54"/>
       <use x="63.623047" xlink:href="#DejaVuSans-48"/>
       <use x="127.246094" xlink:href="#DejaVuSans-48"/>
      </g>
     </g>
    </g>
    <g id="ytick_8">
     <g id="line2d_23">
      <path clip-path="url(#pe2f0c99339)" d="M 62.89875 206.9969 
L 1178.89875 206.9969 
" style="fill:none;stroke:#b0b0b0;stroke-linecap:square;stroke-width:0.8;"/>
     </g>
     <g id="line2d_24">
      <g>
       <use style="stroke:#000000;stroke-width:0.8;" x="62.89875" xlink:href="#m7c46669a92" y="206.9969"/>
      </g>
     </g>
     <g id="text_16">
      <!-- 700 -->
      <g transform="translate(31.085 211.935885)scale(0.13 -0.13)">
       <use xlink:href="#DejaVuSans-55"/>
       <use x="63.623047" xlink:href="#DejaVuSans-48"/>
       <use x="127.246094" xlink:href="#DejaVuSans-48"/>
      </g>
     </g>
    </g>
    <g id="ytick_9">
     <g id="line2d_25">
      <path clip-path="url(#pe2f0c99339)" d="M 62.89875 168.025317 
L 1178.89875 168.025317 
" style="fill:none;stroke:#b0b0b0;stroke-linecap:square;stroke-width:0.8;"/>
     </g>
     <g id="line2d_26">
      <g>
       <use style="stroke:#000000;stroke-width:0.8;" x="62.89875" xlink:href="#m7c46669a92" y="168.025317"/>
      </g>
     </g>
     <g id="text_17">
      <!-- 800 -->
      <g transform="translate(31.085 172.964302)scale(0.13 -0.13)">
       <use xlink:href="#DejaVuSans-56"/>
       <use x="63.623047" xlink:href="#DejaVuSans-48"/>
       <use x="127.246094" xlink:href="#DejaVuSans-48"/>
      </g>
     </g>
    </g>
    <g id="ytick_10">
     <g id="line2d_27">
      <path clip-path="url(#pe2f0c99339)" d="M 62.89875 129.053734 
L 1178.89875 129.053734 
" style="fill:none;stroke:#b0b0b0;stroke-linecap:square;stroke-width:0.8;"/>
     </g>
     <g id="line2d_28">
      <g>
       <use style="stroke:#000000;stroke-width:0.8;" x="62.89875" xlink:href="#m7c46669a92" y="129.053734"/>
      </g>
     </g>
     <g id="text_18">
      <!-- 900 -->
      <g transform="translate(31.085 133.992718)scale(0.13 -0.13)">
       <use xlink:href="#DejaVuSans-57"/>
       <use x="63.623047" xlink:href="#DejaVuSans-48"/>
       <use x="127.246094" xlink:href="#DejaVuSans-48"/>
      </g>
     </g>
    </g>
    <g id="ytick_11">
     <g id="line2d_29">
      <path clip-path="url(#pe2f0c99339)" d="M 62.89875 90.082151 
L 1178.89875 90.082151 
" style="fill:none;stroke:#b0b0b0;stroke-linecap:square;stroke-width:0.8;"/>
     </g>
     <g id="line2d_30">
      <g>
       <use style="stroke:#000000;stroke-width:0.8;" x="62.89875" xlink:href="#m7c46669a92" y="90.082151"/>
      </g>
     </g>
     <g id="text_19">
      <!-- 1000 -->
      <g transform="translate(22.81375 95.021135)scale(0.13 -0.13)">
       <use xlink:href="#DejaVuSans-49"/>
       <use x="63.623047" xlink:href="#DejaVuSans-48"/>
       <use x="127.246094" xlink:href="#DejaVuSans-48"/>
       <use x="190.869141" xlink:href="#DejaVuSans-48"/>
      </g>
     </g>
    </g>
    <g id="ytick_12">
     <g id="line2d_31">
      <path clip-path="url(#pe2f0c99339)" d="M 62.89875 51.110568 
L 1178.89875 51.110568 
" style="fill:none;stroke:#b0b0b0;stroke-linecap:square;stroke-width:0.8;"/>
     </g>
     <g id="line2d_32">
      <g>
       <use style="stroke:#000000;stroke-width:0.8;" x="62.89875" xlink:href="#m7c46669a92" y="51.110568"/>
      </g>
     </g>
     <g id="text_20">
      <!-- 1100 -->
      <g transform="translate(22.81375 56.049552)scale(0.13 -0.13)">
       <use xlink:href="#DejaVuSans-49"/>
       <use x="63.623047" xlink:href="#DejaVuSans-49"/>
       <use x="127.246094" xlink:href="#DejaVuSans-48"/>
       <use x="190.869141" xlink:href="#DejaVuSans-48"/>
      </g>
     </g>
    </g>
    <g id="ytick_13">
     <g id="line2d_33">
      <path clip-path="url(#pe2f0c99339)" d="M 62.89875 12.138984 
L 1178.89875 12.138984 
" style="fill:none;stroke:#b0b0b0;stroke-linecap:square;stroke-width:0.8;"/>
     </g>
     <g id="line2d_34">
      <g>
       <use style="stroke:#000000;stroke-width:0.8;" x="62.89875" xlink:href="#m7c46669a92" y="12.138984"/>
      </g>
     </g>
     <g id="text_21">
      <!-- 1200 -->
      <g transform="translate(22.81375 17.077969)scale(0.13 -0.13)">
       <use xlink:href="#DejaVuSans-49"/>
       <use x="63.623047" xlink:href="#DejaVuSans-50"/>
       <use x="127.246094" xlink:href="#DejaVuSans-48"/>
       <use x="190.869141" xlink:href="#DejaVuSans-48"/>
      </g>
     </g>
    </g>
    <g id="text_22">
     <!-- Anzahl von Fällen -->
     <defs>
      <path d="M 34.1875 63.1875 
L 20.796875 26.90625 
L 47.609375 26.90625 
z
M 28.609375 72.90625 
L 39.796875 72.90625 
L 67.578125 0 
L 57.328125 0 
L 50.6875 18.703125 
L 17.828125 18.703125 
L 11.1875 0 
L 0.78125 0 
z
" id="DejaVuSans-65"/>
      <path d="M 54.890625 33.015625 
L 54.890625 0 
L 45.90625 0 
L 45.90625 32.71875 
Q 45.90625 40.484375 42.875 44.328125 
Q 39.84375 48.1875 33.796875 48.1875 
Q 26.515625 48.1875 22.3125 43.546875 
Q 18.109375 38.921875 18.109375 30.90625 
L 18.109375 0 
L 9.078125 0 
L 9.078125 54.6875 
L 18.109375 54.6875 
L 18.109375 46.1875 
Q 21.34375 51.125 25.703125 53.5625 
Q 30.078125 56 35.796875 56 
Q 45.21875 56 50.046875 50.171875 
Q 54.890625 44.34375 54.890625 33.015625 
z
" id="DejaVuSans-110"/>
      <path d="M 5.515625 54.6875 
L 48.1875 54.6875 
L 48.1875 46.484375 
L 14.40625 7.171875 
L 48.1875 7.171875 
L 48.1875 0 
L 4.296875 0 
L 4.296875 8.203125 
L 38.09375 47.515625 
L 5.515625 47.515625 
z
" id="DejaVuSans-122"/>
      <path d="M 34.28125 27.484375 
Q 23.390625 27.484375 19.1875 25 
Q 14.984375 22.515625 14.984375 16.5 
Q 14.984375 11.71875 18.140625 8.90625 
Q 21.296875 6.109375 26.703125 6.109375 
Q 34.1875 6.109375 38.703125 11.40625 
Q 43.21875 16.703125 43.21875 25.484375 
L 43.21875 27.484375 
z
M 52.203125 31.203125 
L 52.203125 0 
L 43.21875 0 
L 43.21875 8.296875 
Q 40.140625 3.328125 35.546875 0.953125 
Q 30.953125 -1.421875 24.3125 -1.421875 
Q 15.921875 -1.421875 10.953125 3.296875 
Q 6 8.015625 6 15.921875 
Q 6 25.140625 12.171875 29.828125 
Q 18.359375 34.515625 30.609375 34.515625 
L 43.21875 34.515625 
L 43.21875 35.40625 
Q 43.21875 41.609375 39.140625 45 
Q 35.0625 48.390625 27.6875 48.390625 
Q 23 48.390625 18.546875 47.265625 
Q 14.109375 46.140625 10.015625 43.890625 
L 10.015625 52.203125 
Q 14.9375 54.109375 19.578125 55.046875 
Q 24.21875 56 28.609375 56 
Q 40.484375 56 46.34375 49.84375 
Q 52.203125 43.703125 52.203125 31.203125 
z
" id="DejaVuSans-97"/>
      <path d="M 54.890625 33.015625 
L 54.890625 0 
L 45.90625 0 
L 45.90625 32.71875 
Q 45.90625 40.484375 42.875 44.328125 
Q 39.84375 48.1875 33.796875 48.1875 
Q 26.515625 48.1875 22.3125 43.546875 
Q 18.109375 38.921875 18.109375 30.90625 
L 18.109375 0 
L 9.078125 0 
L 9.078125 75.984375 
L 18.109375 75.984375 
L 18.109375 46.1875 
Q 21.34375 51.125 25.703125 53.5625 
Q 30.078125 56 35.796875 56 
Q 45.21875 56 50.046875 50.171875 
Q 54.890625 44.34375 54.890625 33.015625 
z
" id="DejaVuSans-104"/>
      <path d="M 9.421875 75.984375 
L 18.40625 75.984375 
L 18.40625 0 
L 9.421875 0 
z
" id="DejaVuSans-108"/>
      <path id="DejaVuSans-32"/>
      <path d="M 2.984375 54.6875 
L 12.5 54.6875 
L 29.59375 8.796875 
L 46.6875 54.6875 
L 56.203125 54.6875 
L 35.6875 0 
L 23.484375 0 
z
" id="DejaVuSans-118"/>
      <path d="M 30.609375 48.390625 
Q 23.390625 48.390625 19.1875 42.75 
Q 14.984375 37.109375 14.984375 27.296875 
Q 14.984375 17.484375 19.15625 11.84375 
Q 23.34375 6.203125 30.609375 6.203125 
Q 37.796875 6.203125 41.984375 11.859375 
Q 46.1875 17.53125 46.1875 27.296875 
Q 46.1875 37.015625 41.984375 42.703125 
Q 37.796875 48.390625 30.609375 48.390625 
z
M 30.609375 56 
Q 42.328125 56 49.015625 48.375 
Q 55.71875 40.765625 55.71875 27.296875 
Q 55.71875 13.875 49.015625 6.21875 
Q 42.328125 -1.421875 30.609375 -1.421875 
Q 18.84375 -1.421875 12.171875 6.21875 
Q 5.515625 13.875 5.515625 27.296875 
Q 5.515625 40.765625 12.171875 48.375 
Q 18.84375 56 30.609375 56 
z
" id="DejaVuSans-111"/>
      <path d="M 9.8125 72.90625 
L 51.703125 72.90625 
L 51.703125 64.59375 
L 19.671875 64.59375 
L 19.671875 43.109375 
L 48.578125 43.109375 
L 48.578125 34.8125 
L 19.671875 34.8125 
L 19.671875 0 
L 9.8125 0 
z
" id="DejaVuSans-70"/>
      <path d="M 34.28125 27.484375 
Q 23.390625 27.484375 19.1875 25 
Q 14.984375 22.515625 14.984375 16.5 
Q 14.984375 11.71875 18.140625 8.90625 
Q 21.296875 6.109375 26.703125 6.109375 
Q 34.1875 6.109375 38.703125 11.40625 
Q 43.21875 16.703125 43.21875 25.484375 
L 43.21875 27.484375 
z
M 52.203125 31.203125 
L 52.203125 0 
L 43.21875 0 
L 43.21875 8.296875 
Q 40.140625 3.328125 35.546875 0.953125 
Q 30.953125 -1.421875 24.3125 -1.421875 
Q 15.921875 -1.421875 10.953125 3.296875 
Q 6 8.015625 6 15.921875 
Q 6 25.140625 12.171875 29.828125 
Q 18.359375 34.515625 30.609375 34.515625 
L 43.21875 34.515625 
L 43.21875 35.40625 
Q 43.21875 41.609375 39.140625 45 
Q 35.0625 48.390625 27.6875 48.390625 
Q 23 48.390625 18.546875 47.265625 
Q 14.109375 46.140625 10.015625 43.890625 
L 10.015625 52.203125 
Q 14.9375 54.109375 19.578125 55.046875 
Q 24.21875 56 28.609375 56 
Q 40.484375 56 46.34375 49.84375 
Q 52.203125 43.703125 52.203125 31.203125 
z
M 33.59375 75.78125 
L 43.5 75.78125 
L 43.5 65.921875 
L 33.59375 65.921875 
z
M 14.5 75.78125 
L 24.40625 75.78125 
L 24.40625 65.921875 
L 14.5 65.921875 
z
" id="DejaVuSans-228"/>
      <path d="M 56.203125 29.59375 
L 56.203125 25.203125 
L 14.890625 25.203125 
Q 15.484375 15.921875 20.484375 11.0625 
Q 25.484375 6.203125 34.421875 6.203125 
Q 39.59375 6.203125 44.453125 7.46875 
Q 49.3125 8.734375 54.109375 11.28125 
L 54.109375 2.78125 
Q 49.265625 0.734375 44.1875 -0.34375 
Q 39.109375 -1.421875 33.890625 -1.421875 
Q 20.796875 -1.421875 13.15625 6.1875 
Q 5.515625 13.8125 5.515625 26.8125 
Q 5.515625 40.234375 12.765625 48.109375 
Q 20.015625 56 32.328125 56 
Q 43.359375 56 49.78125 48.890625 
Q 56.203125 41.796875 56.203125 29.59375 
z
M 47.21875 32.234375 
Q 47.125 39.59375 43.09375 43.984375 
Q 39.0625 48.390625 32.421875 48.390625 
Q 24.90625 48.390625 20.390625 44.140625 
Q 15.875 39.890625 15.1875 32.171875 
z
" id="DejaVuSans-101"/>
     </defs>
     <g transform="translate(16.318125 309.388359)rotate(-90)scale(0.12 -0.12)">
      <use xlink:href="#DejaVuSans-65"/>
      <use x="68.408203" xlink:href="#DejaVuSans-110"/>
      <use x="131.787109" xlink:href="#DejaVuSans-122"/>
      <use x="184.277344" xlink:href="#DejaVuSans-97"/>
      <use x="245.556641" xlink:href="#DejaVuSans-104"/>
      <use x="308.935547" xlink:href="#DejaVuSans-108"/>
      <use x="336.71875" xlink:href="#DejaVuSans-32"/>
      <use x="368.505859" xlink:href="#DejaVuSans-118"/>
      <use x="427.685547" xlink:href="#DejaVuSans-111"/>
      <use x="488.867188" xlink:href="#DejaVuSans-110"/>
      <use x="552.246094" xlink:href="#DejaVuSans-32"/>
      <use x="584.033203" xlink:href="#DejaVuSans-70"/>
      <use x="632.427734" xlink:href="#DejaVuSans-228"/>
      <use x="693.707031" xlink:href="#DejaVuSans-108"/>
      <use x="721.490234" xlink:href="#DejaVuSans-108"/>
      <use x="749.273438" xlink:href="#DejaVuSans-101"/>
      <use x="810.796875" xlink:href="#DejaVuSans-110"/>
     </g>
    </g>
   </g>
   <g id="line2d_35">
    <path clip-path="url(#pe2f0c99339)" d="M 113.626023 471.613951 
L 118.301347 470.444803 
L 127.651997 470.444803 
L 132.327321 465.768213 
L 137.002646 461.871055 
L 141.677971 461.871055 
L 146.353295 459.143044 
L 151.02862 450.17958 
L 155.703945 444.333842 
L 160.379269 437.318957 
L 165.054594 429.914356 
L 169.729919 425.237767 
L 174.405244 425.237767 
L 179.080568 422.899472 
L 183.755893 411.207997 
L 188.431218 402.634248 
L 193.106542 397.567942 
L 197.781867 395.619363 
L 207.132516 395.619363 
L 216.483166 383.538172 
L 221.15849 382.369025 
L 225.833815 355.478633 
L 230.50914 355.478633 
L 235.184464 349.243179 
L 244.535114 349.632895 
L 249.210438 346.515168 
L 253.885763 337.551704 
L 258.561088 335.992841 
L 263.236412 333.654546 
L 267.911737 324.301366 
L 277.262386 323.132218 
L 281.937711 323.132218 
L 286.613036 318.065913 
L 291.28836 314.948186 
L 300.63901 314.55847 
L 309.989659 314.55847 
L 314.664984 313.779039 
L 319.340308 310.271596 
L 324.015633 307.543585 
L 328.690958 304.425859 
L 333.366282 304.425859 
L 342.716932 302.477279 
L 347.392256 301.697848 
L 352.067581 298.969837 
L 356.742906 297.410974 
L 361.418231 295.462394 
L 366.093555 294.682963 
L 375.444205 285.329783 
L 380.119529 284.550351 
L 384.794854 279.873761 
L 394.145503 275.976603 
L 408.171477 275.976603 
L 412.846802 208.94548 
L 422.197451 175.819634 
L 426.872776 173.871055 
L 445.574075 172.312191 
L 450.249399 164.128159 
L 454.924724 162.959011 
L 459.600049 157.50299 
L 464.275373 155.554411 
L 478.301347 155.554411 
L 492.327321 154.385263 
L 506.353295 154.385263 
L 515.703945 151.657252 
L 529.729919 151.657252 
L 539.080568 151.267536 
L 543.755893 151.267536 
L 548.431218 150.877821 
L 553.106542 150.877821 
L 562.457192 150.488105 
L 571.807841 150.488105 
L 581.15849 149.708673 
L 585.833815 148.929241 
L 590.50914 148.539526 
L 641.937711 148.539526 
L 646.613036 147.760094 
L 651.28836 147.760094 
L 655.963685 146.980662 
L 674.664984 146.980662 
L 679.340308 145.811515 
L 684.015633 145.421799 
L 688.690958 144.642367 
L 716.742906 144.642367 
L 721.418231 144.252651 
L 754.145503 144.252651 
L 777.522127 142.304072 
L 786.872776 142.304072 
L 800.89875 140.745209 
L 805.574075 140.745209 
L 810.249399 139.965777 
L 814.924724 139.965777 
L 819.600049 139.576062 
L 833.626023 138.79663 
L 838.301347 137.627482 
L 847.651997 137.627482 
L 852.327321 136.848051 
L 866.353295 136.848051 
L 871.02862 136.458335 
L 875.703945 135.678903 
L 885.054594 134.899472 
L 899.080568 134.12004 
L 903.755893 133.340608 
L 908.431218 133.340608 
L 917.781867 132.561177 
L 931.807841 132.171461 
L 936.483166 131.002313 
L 941.15849 130.612597 
L 945.833815 130.612597 
L 950.50914 129.833166 
L 973.885763 127.884587 
L 978.561088 127.105155 
L 997.262386 127.105155 
L 1001.937711 126.715439 
L 1006.613036 124.377144 
L 1029.989659 122.428565 
L 1034.664984 118.141691 
L 1039.340308 118.141691 
L 1048.690958 117.362259 
L 1062.716932 115.41368 
L 1067.392256 105.670784 
L 1100.119529 81.118687 
L 1104.794854 76.831813 
L 1109.470179 74.493518 
L 1114.145503 72.934654 
L 1128.171477 65.530053 
L 1128.171477 65.530053 
" style="fill:none;stroke:#dbcd00;stroke-linecap:square;stroke-width:2;"/>
    <defs>
     <path d="M 0 1.5 
C 0.397805 1.5 0.77937 1.341951 1.06066 1.06066 
C 1.341951 0.77937 1.5 0.397805 1.5 0 
C 1.5 -0.397805 1.341951 -0.77937 1.06066 -1.06066 
C 0.77937 -1.341951 0.397805 -1.5 0 -1.5 
C -0.397805 -1.5 -0.77937 -1.341951 -1.06066 -1.06066 
C -1.341951 -0.77937 -1.5 -0.397805 -1.5 0 
C -1.5 0.397805 -1.341951 0.77937 -1.06066 1.06066 
C -0.77937 1.341951 -0.397805 1.5 0 1.5 
z
" id="md380d6f530" style="stroke:#dbcd00;"/>
    </defs>
    <g clip-path="url(#pe2f0c99339)">
     <use style="fill:#dbcd00;stroke:#dbcd00;" x="113.626023" xlink:href="#md380d6f530" y="471.613951"/>
     <use style="fill:#dbcd00;stroke:#dbcd00;" x="118.301347" xlink:href="#md380d6f530" y="470.444803"/>
     <use style="fill:#dbcd00;stroke:#dbcd00;" x="122.976672" xlink:href="#md380d6f530" y="470.444803"/>
     <use style="fill:#dbcd00;stroke:#dbcd00;" x="127.651997" xlink:href="#md380d6f530" y="470.444803"/>
     <use style="fill:#dbcd00;stroke:#dbcd00;" x="132.327321" xlink:href="#md380d6f530" y="465.768213"/>
     <use style="fill:#dbcd00;stroke:#dbcd00;" x="137.002646" xlink:href="#md380d6f530" y="461.871055"/>
     <use style="fill:#dbcd00;stroke:#dbcd00;" x="141.677971" xlink:href="#md380d6f530" y="461.871055"/>
     <use style="fill:#dbcd00;stroke:#dbcd00;" x="146.353295" xlink:href="#md380d6f530" y="459.143044"/>
     <use style="fill:#dbcd00;stroke:#dbcd00;" x="151.02862" xlink:href="#md380d6f530" y="450.17958"/>
     <use style="fill:#dbcd00;stroke:#dbcd00;" x="155.703945" xlink:href="#md380d6f530" y="444.333842"/>
     <use style="fill:#dbcd00;stroke:#dbcd00;" x="160.379269" xlink:href="#md380d6f530" y="437.318957"/>
     <use style="fill:#dbcd00;stroke:#dbcd00;" x="165.054594" xlink:href="#md380d6f530" y="429.914356"/>
     <use style="fill:#dbcd00;stroke:#dbcd00;" x="169.729919" xlink:href="#md380d6f530" y="425.237767"/>
     <use style="fill:#dbcd00;stroke:#dbcd00;" x="174.405244" xlink:href="#md380d6f530" y="425.237767"/>
     <use style="fill:#dbcd00;stroke:#dbcd00;" x="179.080568" xlink:href="#md380d6f530" y="422.899472"/>
     <use style="fill:#dbcd00;stroke:#dbcd00;" x="183.755893" xlink:href="#md380d6f530" y="411.207997"/>
     <use style="fill:#dbcd00;stroke:#dbcd00;" x="188.431218" xlink:href="#md380d6f530" y="402.634248"/>
     <use style="fill:#dbcd00;stroke:#dbcd00;" x="193.106542" xlink:href="#md380d6f530" y="397.567942"/>
     <use style="fill:#dbcd00;stroke:#dbcd00;" x="197.781867" xlink:href="#md380d6f530" y="395.619363"/>
     <use style="fill:#dbcd00;stroke:#dbcd00;" x="207.132516" xlink:href="#md380d6f530" y="395.619363"/>
     <use style="fill:#dbcd00;stroke:#dbcd00;" x="216.483166" xlink:href="#md380d6f530" y="383.538172"/>
     <use style="fill:#dbcd00;stroke:#dbcd00;" x="221.15849" xlink:href="#md380d6f530" y="382.369025"/>
     <use style="fill:#dbcd00;stroke:#dbcd00;" x="225.833815" xlink:href="#md380d6f530" y="355.478633"/>
     <use style="fill:#dbcd00;stroke:#dbcd00;" x="230.50914" xlink:href="#md380d6f530" y="355.478633"/>
     <use style="fill:#dbcd00;stroke:#dbcd00;" x="235.184464" xlink:href="#md380d6f530" y="349.243179"/>
     <use style="fill:#dbcd00;stroke:#dbcd00;" x="244.535114" xlink:href="#md380d6f530" y="349.632895"/>
     <use style="fill:#dbcd00;stroke:#dbcd00;" x="249.210438" xlink:href="#md380d6f530" y="346.515168"/>
     <use style="fill:#dbcd00;stroke:#dbcd00;" x="253.885763" xlink:href="#md380d6f530" y="337.551704"/>
     <use style="fill:#dbcd00;stroke:#dbcd00;" x="258.561088" xlink:href="#md380d6f530" y="335.992841"/>
     <use style="fill:#dbcd00;stroke:#dbcd00;" x="263.236412" xlink:href="#md380d6f530" y="333.654546"/>
     <use style="fill:#dbcd00;stroke:#dbcd00;" x="267.911737" xlink:href="#md380d6f530" y="324.301366"/>
     <use style="fill:#dbcd00;stroke:#dbcd00;" x="277.262386" xlink:href="#md380d6f530" y="323.132218"/>
     <use style="fill:#dbcd00;stroke:#dbcd00;" x="281.937711" xlink:href="#md380d6f530" y="323.132218"/>
     <use style="fill:#dbcd00;stroke:#dbcd00;" x="286.613036" xlink:href="#md380d6f530" y="318.065913"/>
     <use style="fill:#dbcd00;stroke:#dbcd00;" x="291.28836" xlink:href="#md380d6f530" y="314.948186"/>
     <use style="fill:#dbcd00;stroke:#dbcd00;" x="300.63901" xlink:href="#md380d6f530" y="314.55847"/>
     <use style="fill:#dbcd00;stroke:#dbcd00;" x="309.989659" xlink:href="#md380d6f530" y="314.55847"/>
     <use style="fill:#dbcd00;stroke:#dbcd00;" x="314.664984" xlink:href="#md380d6f530" y="313.779039"/>
     <use style="fill:#dbcd00;stroke:#dbcd00;" x="319.340308" xlink:href="#md380d6f530" y="310.271596"/>
     <use style="fill:#dbcd00;stroke:#dbcd00;" x="324.015633" xlink:href="#md380d6f530" y="307.543585"/>
     <use style="fill:#dbcd00;stroke:#dbcd00;" x="328.690958" xlink:href="#md380d6f530" y="304.425859"/>
     <use style="fill:#dbcd00;stroke:#dbcd00;" x="333.366282" xlink:href="#md380d6f530" y="304.425859"/>
     <use style="fill:#dbcd00;stroke:#dbcd00;" x="342.716932" xlink:href="#md380d6f530" y="302.477279"/>
     <use style="fill:#dbcd00;stroke:#dbcd00;" x="347.392256" xlink:href="#md380d6f530" y="301.697848"/>
     <use style="fill:#dbcd00;stroke:#dbcd00;" x="352.067581" xlink:href="#md380d6f530" y="298.969837"/>
     <use style="fill:#dbcd00;stroke:#dbcd00;" x="356.742906" xlink:href="#md380d6f530" y="297.410974"/>
     <use style="fill:#dbcd00;stroke:#dbcd00;" x="361.418231" xlink:href="#md380d6f530" y="295.462394"/>
     <use style="fill:#dbcd00;stroke:#dbcd00;" x="366.093555" xlink:href="#md380d6f530" y="294.682963"/>
     <use style="fill:#dbcd00;stroke:#dbcd00;" x="375.444205" xlink:href="#md380d6f530" y="285.329783"/>
     <use style="fill:#dbcd00;stroke:#dbcd00;" x="380.119529" xlink:href="#md380d6f530" y="284.550351"/>
     <use style="fill:#dbcd00;stroke:#dbcd00;" x="384.794854" xlink:href="#md380d6f530" y="279.873761"/>
     <use style="fill:#dbcd00;stroke:#dbcd00;" x="394.145503" xlink:href="#md380d6f530" y="275.976603"/>
     <use style="fill:#dbcd00;stroke:#dbcd00;" x="398.820828" xlink:href="#md380d6f530" y="275.976603"/>
     <use style="fill:#dbcd00;stroke:#dbcd00;" x="408.171477" xlink:href="#md380d6f530" y="275.976603"/>
     <use style="fill:#dbcd00;stroke:#dbcd00;" x="412.846802" xlink:href="#md380d6f530" y="208.94548"/>
     <use style="fill:#dbcd00;stroke:#dbcd00;" x="422.197451" xlink:href="#md380d6f530" y="175.819634"/>
     <use style="fill:#dbcd00;stroke:#dbcd00;" x="426.872776" xlink:href="#md380d6f530" y="173.871055"/>
     <use style="fill:#dbcd00;stroke:#dbcd00;" x="445.574075" xlink:href="#md380d6f530" y="172.312191"/>
     <use style="fill:#dbcd00;stroke:#dbcd00;" x="450.249399" xlink:href="#md380d6f530" y="164.128159"/>
     <use style="fill:#dbcd00;stroke:#dbcd00;" x="454.924724" xlink:href="#md380d6f530" y="162.959011"/>
     <use style="fill:#dbcd00;stroke:#dbcd00;" x="459.600049" xlink:href="#md380d6f530" y="157.50299"/>
     <use style="fill:#dbcd00;stroke:#dbcd00;" x="464.275373" xlink:href="#md380d6f530" y="155.554411"/>
     <use style="fill:#dbcd00;stroke:#dbcd00;" x="473.626023" xlink:href="#md380d6f530" y="155.554411"/>
     <use style="fill:#dbcd00;stroke:#dbcd00;" x="478.301347" xlink:href="#md380d6f530" y="155.554411"/>
     <use style="fill:#dbcd00;stroke:#dbcd00;" x="482.976672" xlink:href="#md380d6f530" y="155.164695"/>
     <use style="fill:#dbcd00;stroke:#dbcd00;" x="492.327321" xlink:href="#md380d6f530" y="154.385263"/>
     <use style="fill:#dbcd00;stroke:#dbcd00;" x="497.002646" xlink:href="#md380d6f530" y="154.385263"/>
     <use style="fill:#dbcd00;stroke:#dbcd00;" x="506.353295" xlink:href="#md380d6f530" y="154.385263"/>
     <use style="fill:#dbcd00;stroke:#dbcd00;" x="515.703945" xlink:href="#md380d6f530" y="151.657252"/>
     <use style="fill:#dbcd00;stroke:#dbcd00;" x="525.054594" xlink:href="#md380d6f530" y="151.657252"/>
     <use style="fill:#dbcd00;stroke:#dbcd00;" x="529.729919" xlink:href="#md380d6f530" y="151.657252"/>
     <use style="fill:#dbcd00;stroke:#dbcd00;" x="539.080568" xlink:href="#md380d6f530" y="151.267536"/>
     <use style="fill:#dbcd00;stroke:#dbcd00;" x="543.755893" xlink:href="#md380d6f530" y="151.267536"/>
     <use style="fill:#dbcd00;stroke:#dbcd00;" x="548.431218" xlink:href="#md380d6f530" y="150.877821"/>
     <use style="fill:#dbcd00;stroke:#dbcd00;" x="553.106542" xlink:href="#md380d6f530" y="150.877821"/>
     <use style="fill:#dbcd00;stroke:#dbcd00;" x="562.457192" xlink:href="#md380d6f530" y="150.488105"/>
     <use style="fill:#dbcd00;stroke:#dbcd00;" x="571.807841" xlink:href="#md380d6f530" y="150.488105"/>
     <use style="fill:#dbcd00;stroke:#dbcd00;" x="576.483166" xlink:href="#md380d6f530" y="150.098389"/>
     <use style="fill:#dbcd00;stroke:#dbcd00;" x="581.15849" xlink:href="#md380d6f530" y="149.708673"/>
     <use style="fill:#dbcd00;stroke:#dbcd00;" x="585.833815" xlink:href="#md380d6f530" y="148.929241"/>
     <use style="fill:#dbcd00;stroke:#dbcd00;" x="590.50914" xlink:href="#md380d6f530" y="148.539526"/>
     <use style="fill:#dbcd00;stroke:#dbcd00;" x="595.184464" xlink:href="#md380d6f530" y="148.539526"/>
     <use style="fill:#dbcd00;stroke:#dbcd00;" x="609.210438" xlink:href="#md380d6f530" y="148.539526"/>
     <use style="fill:#dbcd00;stroke:#dbcd00;" x="613.885763" xlink:href="#md380d6f530" y="148.539526"/>
     <use style="fill:#dbcd00;stroke:#dbcd00;" x="618.561088" xlink:href="#md380d6f530" y="148.539526"/>
     <use style="fill:#dbcd00;stroke:#dbcd00;" x="623.236412" xlink:href="#md380d6f530" y="148.539526"/>
     <use style="fill:#dbcd00;stroke:#dbcd00;" x="637.262386" xlink:href="#md380d6f530" y="148.539526"/>
     <use style="fill:#dbcd00;stroke:#dbcd00;" x="641.937711" xlink:href="#md380d6f530" y="148.539526"/>
     <use style="fill:#dbcd00;stroke:#dbcd00;" x="646.613036" xlink:href="#md380d6f530" y="147.760094"/>
     <use style="fill:#dbcd00;stroke:#dbcd00;" x="651.28836" xlink:href="#md380d6f530" y="147.760094"/>
     <use style="fill:#dbcd00;stroke:#dbcd00;" x="655.963685" xlink:href="#md380d6f530" y="146.980662"/>
     <use style="fill:#dbcd00;stroke:#dbcd00;" x="669.989659" xlink:href="#md380d6f530" y="146.980662"/>
     <use style="fill:#dbcd00;stroke:#dbcd00;" x="674.664984" xlink:href="#md380d6f530" y="146.980662"/>
     <use style="fill:#dbcd00;stroke:#dbcd00;" x="679.340308" xlink:href="#md380d6f530" y="145.811515"/>
     <use style="fill:#dbcd00;stroke:#dbcd00;" x="684.015633" xlink:href="#md380d6f530" y="145.421799"/>
     <use style="fill:#dbcd00;stroke:#dbcd00;" x="688.690958" xlink:href="#md380d6f530" y="144.642367"/>
     <use style="fill:#dbcd00;stroke:#dbcd00;" x="702.716932" xlink:href="#md380d6f530" y="144.642367"/>
     <use style="fill:#dbcd00;stroke:#dbcd00;" x="707.392256" xlink:href="#md380d6f530" y="144.642367"/>
     <use style="fill:#dbcd00;stroke:#dbcd00;" x="712.067581" xlink:href="#md380d6f530" y="144.642367"/>
     <use style="fill:#dbcd00;stroke:#dbcd00;" x="716.742906" xlink:href="#md380d6f530" y="144.642367"/>
     <use style="fill:#dbcd00;stroke:#dbcd00;" x="721.418231" xlink:href="#md380d6f530" y="144.252651"/>
     <use style="fill:#dbcd00;stroke:#dbcd00;" x="735.444205" xlink:href="#md380d6f530" y="144.252651"/>
     <use style="fill:#dbcd00;stroke:#dbcd00;" x="740.119529" xlink:href="#md380d6f530" y="144.252651"/>
     <use style="fill:#dbcd00;stroke:#dbcd00;" x="744.794854" xlink:href="#md380d6f530" y="144.252651"/>
     <use style="fill:#dbcd00;stroke:#dbcd00;" x="749.470179" xlink:href="#md380d6f530" y="144.252651"/>
     <use style="fill:#dbcd00;stroke:#dbcd00;" x="754.145503" xlink:href="#md380d6f530" y="144.252651"/>
     <use style="fill:#dbcd00;stroke:#dbcd00;" x="768.171477" xlink:href="#md380d6f530" y="143.083504"/>
     <use style="fill:#dbcd00;stroke:#dbcd00;" x="772.846802" xlink:href="#md380d6f530" y="142.693788"/>
     <use style="fill:#dbcd00;stroke:#dbcd00;" x="777.522127" xlink:href="#md380d6f530" y="142.304072"/>
     <use style="fill:#dbcd00;stroke:#dbcd00;" x="782.197451" xlink:href="#md380d6f530" y="142.304072"/>
     <use style="fill:#dbcd00;stroke:#dbcd00;" x="786.872776" xlink:href="#md380d6f530" y="142.304072"/>
     <use style="fill:#dbcd00;stroke:#dbcd00;" x="800.89875" xlink:href="#md380d6f530" y="140.745209"/>
     <use style="fill:#dbcd00;stroke:#dbcd00;" x="805.574075" xlink:href="#md380d6f530" y="140.745209"/>
     <use style="fill:#dbcd00;stroke:#dbcd00;" x="810.249399" xlink:href="#md380d6f530" y="139.965777"/>
     <use style="fill:#dbcd00;stroke:#dbcd00;" x="814.924724" xlink:href="#md380d6f530" y="139.965777"/>
     <use style="fill:#dbcd00;stroke:#dbcd00;" x="819.600049" xlink:href="#md380d6f530" y="139.576062"/>
     <use style="fill:#dbcd00;stroke:#dbcd00;" x="833.626023" xlink:href="#md380d6f530" y="138.79663"/>
     <use style="fill:#dbcd00;stroke:#dbcd00;" x="838.301347" xlink:href="#md380d6f530" y="137.627482"/>
     <use style="fill:#dbcd00;stroke:#dbcd00;" x="842.976672" xlink:href="#md380d6f530" y="137.627482"/>
     <use style="fill:#dbcd00;stroke:#dbcd00;" x="847.651997" xlink:href="#md380d6f530" y="137.627482"/>
     <use style="fill:#dbcd00;stroke:#dbcd00;" x="852.327321" xlink:href="#md380d6f530" y="136.848051"/>
     <use style="fill:#dbcd00;stroke:#dbcd00;" x="866.353295" xlink:href="#md380d6f530" y="136.848051"/>
     <use style="fill:#dbcd00;stroke:#dbcd00;" x="871.02862" xlink:href="#md380d6f530" y="136.458335"/>
     <use style="fill:#dbcd00;stroke:#dbcd00;" x="875.703945" xlink:href="#md380d6f530" y="135.678903"/>
     <use style="fill:#dbcd00;stroke:#dbcd00;" x="880.379269" xlink:href="#md380d6f530" y="135.289187"/>
     <use style="fill:#dbcd00;stroke:#dbcd00;" x="885.054594" xlink:href="#md380d6f530" y="134.899472"/>
     <use style="fill:#dbcd00;stroke:#dbcd00;" x="899.080568" xlink:href="#md380d6f530" y="134.12004"/>
     <use style="fill:#dbcd00;stroke:#dbcd00;" x="903.755893" xlink:href="#md380d6f530" y="133.340608"/>
     <use style="fill:#dbcd00;stroke:#dbcd00;" x="908.431218" xlink:href="#md380d6f530" y="133.340608"/>
     <use style="fill:#dbcd00;stroke:#dbcd00;" x="913.106542" xlink:href="#md380d6f530" y="132.950892"/>
     <use style="fill:#dbcd00;stroke:#dbcd00;" x="917.781867" xlink:href="#md380d6f530" y="132.561177"/>
     <use style="fill:#dbcd00;stroke:#dbcd00;" x="931.807841" xlink:href="#md380d6f530" y="132.171461"/>
     <use style="fill:#dbcd00;stroke:#dbcd00;" x="936.483166" xlink:href="#md380d6f530" y="131.002313"/>
     <use style="fill:#dbcd00;stroke:#dbcd00;" x="941.15849" xlink:href="#md380d6f530" y="130.612597"/>
     <use style="fill:#dbcd00;stroke:#dbcd00;" x="945.833815" xlink:href="#md380d6f530" y="130.612597"/>
     <use style="fill:#dbcd00;stroke:#dbcd00;" x="950.50914" xlink:href="#md380d6f530" y="129.833166"/>
     <use style="fill:#dbcd00;stroke:#dbcd00;" x="964.535114" xlink:href="#md380d6f530" y="128.664018"/>
     <use style="fill:#dbcd00;stroke:#dbcd00;" x="969.210438" xlink:href="#md380d6f530" y="128.274302"/>
     <use style="fill:#dbcd00;stroke:#dbcd00;" x="973.885763" xlink:href="#md380d6f530" y="127.884587"/>
     <use style="fill:#dbcd00;stroke:#dbcd00;" x="978.561088" xlink:href="#md380d6f530" y="127.105155"/>
     <use style="fill:#dbcd00;stroke:#dbcd00;" x="983.236412" xlink:href="#md380d6f530" y="127.105155"/>
     <use style="fill:#dbcd00;stroke:#dbcd00;" x="997.262386" xlink:href="#md380d6f530" y="127.105155"/>
     <use style="fill:#dbcd00;stroke:#dbcd00;" x="1001.937711" xlink:href="#md380d6f530" y="126.715439"/>
     <use style="fill:#dbcd00;stroke:#dbcd00;" x="1006.613036" xlink:href="#md380d6f530" y="124.377144"/>
     <use style="fill:#dbcd00;stroke:#dbcd00;" x="1011.28836" xlink:href="#md380d6f530" y="123.987428"/>
     <use style="fill:#dbcd00;stroke:#dbcd00;" x="1015.963685" xlink:href="#md380d6f530" y="123.597712"/>
     <use style="fill:#dbcd00;stroke:#dbcd00;" x="1029.989659" xlink:href="#md380d6f530" y="122.428565"/>
     <use style="fill:#dbcd00;stroke:#dbcd00;" x="1034.664984" xlink:href="#md380d6f530" y="118.141691"/>
     <use style="fill:#dbcd00;stroke:#dbcd00;" x="1039.340308" xlink:href="#md380d6f530" y="118.141691"/>
     <use style="fill:#dbcd00;stroke:#dbcd00;" x="1044.015633" xlink:href="#md380d6f530" y="117.751975"/>
     <use style="fill:#dbcd00;stroke:#dbcd00;" x="1048.690958" xlink:href="#md380d6f530" y="117.362259"/>
     <use style="fill:#dbcd00;stroke:#dbcd00;" x="1062.716932" xlink:href="#md380d6f530" y="115.41368"/>
     <use style="fill:#dbcd00;stroke:#dbcd00;" x="1067.392256" xlink:href="#md380d6f530" y="105.670784"/>
     <use style="fill:#dbcd00;stroke:#dbcd00;" x="1100.119529" xlink:href="#md380d6f530" y="81.118687"/>
     <use style="fill:#dbcd00;stroke:#dbcd00;" x="1104.794854" xlink:href="#md380d6f530" y="76.831813"/>
     <use style="fill:#dbcd00;stroke:#dbcd00;" x="1109.470179" xlink:href="#md380d6f530" y="74.493518"/>
     <use style="fill:#dbcd00;stroke:#dbcd00;" x="1114.145503" xlink:href="#md380d6f530" y="72.934654"/>
     <use style="fill:#dbcd00;stroke:#dbcd00;" x="1128.171477" xlink:href="#md380d6f530" y="65.530053"/>
    </g>
   </g>
   <g id="line2d_36">
    <path clip-path="url(#pe2f0c99339)" d="M 113.626023 423.289187 
L 118.301347 418.222882 
L 127.651997 398.73709 
L 137.002646 383.927888 
L 141.677971 380.03073 
L 146.353295 380.810162 
L 151.02862 380.420446 
L 155.703945 377.692435 
L 160.379269 379.251298 
L 165.054594 385.486752 
L 169.729919 382.758741 
L 174.405244 380.810162 
L 179.080568 379.641014 
L 183.755893 389.38391 
L 188.431218 392.501637 
L 193.106542 395.229647 
L 197.781867 392.501637 
L 207.132516 391.332489 
L 216.483166 402.244532 
L 221.15849 402.244532 
L 225.833815 428.355493 
L 230.50914 424.848051 
L 235.184464 429.914356 
L 244.535114 431.47322 
L 249.210438 433.811515 
L 253.885763 443.164695 
L 258.561088 443.944126 
L 263.236412 445.113274 
L 267.911737 452.517875 
L 277.262386 453.687022 
L 281.937711 450.569296 
L 286.613036 454.466454 
L 291.28836 456.804749 
L 300.63901 452.128159 
L 309.989659 443.164695 
L 314.664984 441.605831 
L 319.340308 431.47322 
L 324.015633 432.252651 
L 328.690958 418.222882 
L 333.366282 397.178227 
L 342.716932 373.015845 
L 347.392256 363.272949 
L 352.067581 356.64778 
L 356.742906 352.750622 
L 361.418231 357.037496 
L 366.093555 355.868348 
L 375.444205 361.32437 
L 380.119529 362.883233 
L 384.794854 362.883233 
L 394.145503 363.272949 
L 398.820828 359.765507 
L 408.171477 358.596359 
L 412.846802 425.627482 
L 422.197451 457.973896 
L 426.872776 459.922476 
L 445.574075 461.091623 
L 450.249399 469.275656 
L 454.924724 470.444803 
L 459.600049 475.900825 
L 464.275373 477.849404 
L 473.626023 477.849404 
L 478.301347 477.069972 
L 482.976672 477.459688 
L 492.327321 477.069972 
L 497.002646 476.680256 
L 506.353295 476.680256 
L 515.703945 478.628836 
L 525.054594 478.23912 
L 529.729919 477.849404 
L 539.080568 478.23912 
L 543.755893 478.23912 
L 548.431218 478.628836 
L 553.106542 478.628836 
L 562.457192 479.018551 
L 571.807841 479.018551 
L 576.483166 479.408267 
L 581.15849 479.408267 
L 585.833815 480.577415 
L 590.50914 480.187699 
L 595.184464 479.018551 
L 609.210438 478.23912 
L 618.561088 478.23912 
L 623.236412 477.459688 
L 641.937711 477.459688 
L 646.613036 478.23912 
L 651.28836 478.23912 
L 655.963685 479.018551 
L 669.989659 478.628836 
L 674.664984 478.628836 
L 679.340308 479.797983 
L 684.015633 480.187699 
L 688.690958 480.967131 
L 702.716932 480.577415 
L 712.067581 479.797983 
L 716.742906 478.628836 
L 721.418231 478.23912 
L 740.119529 478.23912 
L 744.794854 477.849404 
L 754.145503 477.849404 
L 768.171477 478.628836 
L 772.846802 477.459688 
L 782.197451 477.459688 
L 786.872776 476.290541 
L 800.89875 477.459688 
L 805.574075 477.069972 
L 810.249399 477.849404 
L 814.924724 477.459688 
L 819.600049 477.849404 
L 838.301347 477.849404 
L 842.976672 477.459688 
L 847.651997 477.459688 
L 852.327321 477.849404 
L 866.353295 477.069972 
L 885.054594 478.628836 
L 899.080568 477.849404 
L 903.755893 478.628836 
L 908.431218 476.290541 
L 917.781867 477.069972 
L 931.807841 476.680256 
L 936.483166 475.900825 
L 945.833815 475.900825 
L 950.50914 476.290541 
L 964.535114 476.290541 
L 969.210438 475.900825 
L 973.885763 473.952246 
L 978.561088 474.341961 
L 983.236412 474.341961 
L 1001.937711 471.224235 
L 1006.613036 473.56253 
L 1011.28836 471.224235 
L 1015.963685 465.378497 
L 1029.989659 463.040202 
L 1034.664984 459.922476 
L 1039.340308 456.415033 
L 1044.015633 453.687022 
L 1048.690958 446.282421 
L 1062.716932 445.50299 
L 1067.392256 447.841285 
L 1100.119529 443.554411 
L 1104.794854 445.50299 
L 1109.470179 434.590946 
L 1114.145503 422.12004 
L 1128.171477 422.12004 
L 1128.171477 422.12004 
" style="fill:none;stroke:#2792cb;stroke-linecap:square;stroke-width:2;"/>
    <defs>
     <path d="M 0 1.5 
C 0.397805 1.5 0.77937 1.341951 1.06066 1.06066 
C 1.341951 0.77937 1.5 0.397805 1.5 0 
C 1.5 -0.397805 1.341951 -0.77937 1.06066 -1.06066 
C 0.77937 -1.341951 0.397805 -1.5 0 -1.5 
C -0.397805 -1.5 -0.77937 -1.341951 -1.06066 -1.06066 
C -1.341951 -0.77937 -1.5 -0.397805 -1.5 0 
C -1.5 0.397805 -1.341951 0.77937 -1.06066 1.06066 
C -0.77937 1.341951 -0.397805 1.5 0 1.5 
z
" id="mb270a10d2c" style="stroke:#2792cb;"/>
    </defs>
    <g clip-path="url(#pe2f0c99339)">
     <use style="fill:#2792cb;stroke:#2792cb;" x="113.626023" xlink:href="#mb270a10d2c" y="423.289187"/>
     <use style="fill:#2792cb;stroke:#2792cb;" x="118.301347" xlink:href="#mb270a10d2c" y="418.222882"/>
     <use style="fill:#2792cb;stroke:#2792cb;" x="122.976672" xlink:href="#mb270a10d2c" y="408.479986"/>
     <use style="fill:#2792cb;stroke:#2792cb;" x="127.651997" xlink:href="#mb270a10d2c" y="398.73709"/>
     <use style="fill:#2792cb;stroke:#2792cb;" x="132.327321" xlink:href="#mb270a10d2c" y="391.332489"/>
     <use style="fill:#2792cb;stroke:#2792cb;" x="137.002646" xlink:href="#mb270a10d2c" y="383.927888"/>
     <use style="fill:#2792cb;stroke:#2792cb;" x="141.677971" xlink:href="#mb270a10d2c" y="380.03073"/>
     <use style="fill:#2792cb;stroke:#2792cb;" x="146.353295" xlink:href="#mb270a10d2c" y="380.810162"/>
     <use style="fill:#2792cb;stroke:#2792cb;" x="151.02862" xlink:href="#mb270a10d2c" y="380.420446"/>
     <use style="fill:#2792cb;stroke:#2792cb;" x="155.703945" xlink:href="#mb270a10d2c" y="377.692435"/>
     <use style="fill:#2792cb;stroke:#2792cb;" x="160.379269" xlink:href="#mb270a10d2c" y="379.251298"/>
     <use style="fill:#2792cb;stroke:#2792cb;" x="165.054594" xlink:href="#mb270a10d2c" y="385.486752"/>
     <use style="fill:#2792cb;stroke:#2792cb;" x="169.729919" xlink:href="#mb270a10d2c" y="382.758741"/>
     <use style="fill:#2792cb;stroke:#2792cb;" x="174.405244" xlink:href="#mb270a10d2c" y="380.810162"/>
     <use style="fill:#2792cb;stroke:#2792cb;" x="179.080568" xlink:href="#mb270a10d2c" y="379.641014"/>
     <use style="fill:#2792cb;stroke:#2792cb;" x="183.755893" xlink:href="#mb270a10d2c" y="389.38391"/>
     <use style="fill:#2792cb;stroke:#2792cb;" x="188.431218" xlink:href="#mb270a10d2c" y="392.501637"/>
     <use style="fill:#2792cb;stroke:#2792cb;" x="193.106542" xlink:href="#mb270a10d2c" y="395.229647"/>
     <use style="fill:#2792cb;stroke:#2792cb;" x="197.781867" xlink:href="#mb270a10d2c" y="392.501637"/>
     <use style="fill:#2792cb;stroke:#2792cb;" x="207.132516" xlink:href="#mb270a10d2c" y="391.332489"/>
     <use style="fill:#2792cb;stroke:#2792cb;" x="216.483166" xlink:href="#mb270a10d2c" y="402.244532"/>
     <use style="fill:#2792cb;stroke:#2792cb;" x="221.15849" xlink:href="#mb270a10d2c" y="402.244532"/>
     <use style="fill:#2792cb;stroke:#2792cb;" x="225.833815" xlink:href="#mb270a10d2c" y="428.355493"/>
     <use style="fill:#2792cb;stroke:#2792cb;" x="230.50914" xlink:href="#mb270a10d2c" y="424.848051"/>
     <use style="fill:#2792cb;stroke:#2792cb;" x="235.184464" xlink:href="#mb270a10d2c" y="429.914356"/>
     <use style="fill:#2792cb;stroke:#2792cb;" x="244.535114" xlink:href="#mb270a10d2c" y="431.47322"/>
     <use style="fill:#2792cb;stroke:#2792cb;" x="249.210438" xlink:href="#mb270a10d2c" y="433.811515"/>
     <use style="fill:#2792cb;stroke:#2792cb;" x="253.885763" xlink:href="#mb270a10d2c" y="443.164695"/>
     <use style="fill:#2792cb;stroke:#2792cb;" x="258.561088" xlink:href="#mb270a10d2c" y="443.944126"/>
     <use style="fill:#2792cb;stroke:#2792cb;" x="263.236412" xlink:href="#mb270a10d2c" y="445.113274"/>
     <use style="fill:#2792cb;stroke:#2792cb;" x="267.911737" xlink:href="#mb270a10d2c" y="452.517875"/>
     <use style="fill:#2792cb;stroke:#2792cb;" x="277.262386" xlink:href="#mb270a10d2c" y="453.687022"/>
     <use style="fill:#2792cb;stroke:#2792cb;" x="281.937711" xlink:href="#mb270a10d2c" y="450.569296"/>
     <use style="fill:#2792cb;stroke:#2792cb;" x="286.613036" xlink:href="#mb270a10d2c" y="454.466454"/>
     <use style="fill:#2792cb;stroke:#2792cb;" x="291.28836" xlink:href="#mb270a10d2c" y="456.804749"/>
     <use style="fill:#2792cb;stroke:#2792cb;" x="300.63901" xlink:href="#mb270a10d2c" y="452.128159"/>
     <use style="fill:#2792cb;stroke:#2792cb;" x="309.989659" xlink:href="#mb270a10d2c" y="443.164695"/>
     <use style="fill:#2792cb;stroke:#2792cb;" x="314.664984" xlink:href="#mb270a10d2c" y="441.605831"/>
     <use style="fill:#2792cb;stroke:#2792cb;" x="319.340308" xlink:href="#mb270a10d2c" y="431.47322"/>
     <use style="fill:#2792cb;stroke:#2792cb;" x="324.015633" xlink:href="#mb270a10d2c" y="432.252651"/>
     <use style="fill:#2792cb;stroke:#2792cb;" x="328.690958" xlink:href="#mb270a10d2c" y="418.222882"/>
     <use style="fill:#2792cb;stroke:#2792cb;" x="333.366282" xlink:href="#mb270a10d2c" y="397.178227"/>
     <use style="fill:#2792cb;stroke:#2792cb;" x="342.716932" xlink:href="#mb270a10d2c" y="373.015845"/>
     <use style="fill:#2792cb;stroke:#2792cb;" x="347.392256" xlink:href="#mb270a10d2c" y="363.272949"/>
     <use style="fill:#2792cb;stroke:#2792cb;" x="352.067581" xlink:href="#mb270a10d2c" y="356.64778"/>
     <use style="fill:#2792cb;stroke:#2792cb;" x="356.742906" xlink:href="#mb270a10d2c" y="352.750622"/>
     <use style="fill:#2792cb;stroke:#2792cb;" x="361.418231" xlink:href="#mb270a10d2c" y="357.037496"/>
     <use style="fill:#2792cb;stroke:#2792cb;" x="366.093555" xlink:href="#mb270a10d2c" y="355.868348"/>
     <use style="fill:#2792cb;stroke:#2792cb;" x="375.444205" xlink:href="#mb270a10d2c" y="361.32437"/>
     <use style="fill:#2792cb;stroke:#2792cb;" x="380.119529" xlink:href="#mb270a10d2c" y="362.883233"/>
     <use style="fill:#2792cb;stroke:#2792cb;" x="384.794854" xlink:href="#mb270a10d2c" y="362.883233"/>
     <use style="fill:#2792cb;stroke:#2792cb;" x="394.145503" xlink:href="#mb270a10d2c" y="363.272949"/>
     <use style="fill:#2792cb;stroke:#2792cb;" x="398.820828" xlink:href="#mb270a10d2c" y="359.765507"/>
     <use style="fill:#2792cb;stroke:#2792cb;" x="408.171477" xlink:href="#mb270a10d2c" y="358.596359"/>
     <use style="fill:#2792cb;stroke:#2792cb;" x="412.846802" xlink:href="#mb270a10d2c" y="425.627482"/>
     <use style="fill:#2792cb;stroke:#2792cb;" x="422.197451" xlink:href="#mb270a10d2c" y="457.973896"/>
     <use style="fill:#2792cb;stroke:#2792cb;" x="426.872776" xlink:href="#mb270a10d2c" y="459.922476"/>
     <use style="fill:#2792cb;stroke:#2792cb;" x="445.574075" xlink:href="#mb270a10d2c" y="461.091623"/>
     <use style="fill:#2792cb;stroke:#2792cb;" x="450.249399" xlink:href="#mb270a10d2c" y="469.275656"/>
     <use style="fill:#2792cb;stroke:#2792cb;" x="454.924724" xlink:href="#mb270a10d2c" y="470.444803"/>
     <use style="fill:#2792cb;stroke:#2792cb;" x="459.600049" xlink:href="#mb270a10d2c" y="475.900825"/>
     <use style="fill:#2792cb;stroke:#2792cb;" x="464.275373" xlink:href="#mb270a10d2c" y="477.849404"/>
     <use style="fill:#2792cb;stroke:#2792cb;" x="473.626023" xlink:href="#mb270a10d2c" y="477.849404"/>
     <use style="fill:#2792cb;stroke:#2792cb;" x="478.301347" xlink:href="#mb270a10d2c" y="477.069972"/>
     <use style="fill:#2792cb;stroke:#2792cb;" x="482.976672" xlink:href="#mb270a10d2c" y="477.459688"/>
     <use style="fill:#2792cb;stroke:#2792cb;" x="492.327321" xlink:href="#mb270a10d2c" y="477.069972"/>
     <use style="fill:#2792cb;stroke:#2792cb;" x="497.002646" xlink:href="#mb270a10d2c" y="476.680256"/>
     <use style="fill:#2792cb;stroke:#2792cb;" x="506.353295" xlink:href="#mb270a10d2c" y="476.680256"/>
     <use style="fill:#2792cb;stroke:#2792cb;" x="515.703945" xlink:href="#mb270a10d2c" y="478.628836"/>
     <use style="fill:#2792cb;stroke:#2792cb;" x="525.054594" xlink:href="#mb270a10d2c" y="478.23912"/>
     <use style="fill:#2792cb;stroke:#2792cb;" x="529.729919" xlink:href="#mb270a10d2c" y="477.849404"/>
     <use style="fill:#2792cb;stroke:#2792cb;" x="539.080568" xlink:href="#mb270a10d2c" y="478.23912"/>
     <use style="fill:#2792cb;stroke:#2792cb;" x="543.755893" xlink:href="#mb270a10d2c" y="478.23912"/>
     <use style="fill:#2792cb;stroke:#2792cb;" x="548.431218" xlink:href="#mb270a10d2c" y="478.628836"/>
     <use style="fill:#2792cb;stroke:#2792cb;" x="553.106542" xlink:href="#mb270a10d2c" y="478.628836"/>
     <use style="fill:#2792cb;stroke:#2792cb;" x="562.457192" xlink:href="#mb270a10d2c" y="479.018551"/>
     <use style="fill:#2792cb;stroke:#2792cb;" x="571.807841" xlink:href="#mb270a10d2c" y="479.018551"/>
     <use style="fill:#2792cb;stroke:#2792cb;" x="576.483166" xlink:href="#mb270a10d2c" y="479.408267"/>
     <use style="fill:#2792cb;stroke:#2792cb;" x="581.15849" xlink:href="#mb270a10d2c" y="479.408267"/>
     <use style="fill:#2792cb;stroke:#2792cb;" x="585.833815" xlink:href="#mb270a10d2c" y="480.577415"/>
     <use style="fill:#2792cb;stroke:#2792cb;" x="590.50914" xlink:href="#mb270a10d2c" y="480.187699"/>
     <use style="fill:#2792cb;stroke:#2792cb;" x="595.184464" xlink:href="#mb270a10d2c" y="479.018551"/>
     <use style="fill:#2792cb;stroke:#2792cb;" x="609.210438" xlink:href="#mb270a10d2c" y="478.23912"/>
     <use style="fill:#2792cb;stroke:#2792cb;" x="613.885763" xlink:href="#mb270a10d2c" y="478.23912"/>
     <use style="fill:#2792cb;stroke:#2792cb;" x="618.561088" xlink:href="#mb270a10d2c" y="478.23912"/>
     <use style="fill:#2792cb;stroke:#2792cb;" x="623.236412" xlink:href="#mb270a10d2c" y="477.459688"/>
     <use style="fill:#2792cb;stroke:#2792cb;" x="637.262386" xlink:href="#mb270a10d2c" y="477.459688"/>
     <use style="fill:#2792cb;stroke:#2792cb;" x="641.937711" xlink:href="#mb270a10d2c" y="477.459688"/>
     <use style="fill:#2792cb;stroke:#2792cb;" x="646.613036" xlink:href="#mb270a10d2c" y="478.23912"/>
     <use style="fill:#2792cb;stroke:#2792cb;" x="651.28836" xlink:href="#mb270a10d2c" y="478.23912"/>
     <use style="fill:#2792cb;stroke:#2792cb;" x="655.963685" xlink:href="#mb270a10d2c" y="479.018551"/>
     <use style="fill:#2792cb;stroke:#2792cb;" x="669.989659" xlink:href="#mb270a10d2c" y="478.628836"/>
     <use style="fill:#2792cb;stroke:#2792cb;" x="674.664984" xlink:href="#mb270a10d2c" y="478.628836"/>
     <use style="fill:#2792cb;stroke:#2792cb;" x="679.340308" xlink:href="#mb270a10d2c" y="479.797983"/>
     <use style="fill:#2792cb;stroke:#2792cb;" x="684.015633" xlink:href="#mb270a10d2c" y="480.187699"/>
     <use style="fill:#2792cb;stroke:#2792cb;" x="688.690958" xlink:href="#mb270a10d2c" y="480.967131"/>
     <use style="fill:#2792cb;stroke:#2792cb;" x="702.716932" xlink:href="#mb270a10d2c" y="480.577415"/>
     <use style="fill:#2792cb;stroke:#2792cb;" x="707.392256" xlink:href="#mb270a10d2c" y="480.187699"/>
     <use style="fill:#2792cb;stroke:#2792cb;" x="712.067581" xlink:href="#mb270a10d2c" y="479.797983"/>
     <use style="fill:#2792cb;stroke:#2792cb;" x="716.742906" xlink:href="#mb270a10d2c" y="478.628836"/>
     <use style="fill:#2792cb;stroke:#2792cb;" x="721.418231" xlink:href="#mb270a10d2c" y="478.23912"/>
     <use style="fill:#2792cb;stroke:#2792cb;" x="735.444205" xlink:href="#mb270a10d2c" y="478.23912"/>
     <use style="fill:#2792cb;stroke:#2792cb;" x="740.119529" xlink:href="#mb270a10d2c" y="478.23912"/>
     <use style="fill:#2792cb;stroke:#2792cb;" x="744.794854" xlink:href="#mb270a10d2c" y="477.849404"/>
     <use style="fill:#2792cb;stroke:#2792cb;" x="749.470179" xlink:href="#mb270a10d2c" y="477.849404"/>
     <use style="fill:#2792cb;stroke:#2792cb;" x="754.145503" xlink:href="#mb270a10d2c" y="477.849404"/>
     <use style="fill:#2792cb;stroke:#2792cb;" x="768.171477" xlink:href="#mb270a10d2c" y="478.628836"/>
     <use style="fill:#2792cb;stroke:#2792cb;" x="772.846802" xlink:href="#mb270a10d2c" y="477.459688"/>
     <use style="fill:#2792cb;stroke:#2792cb;" x="777.522127" xlink:href="#mb270a10d2c" y="477.459688"/>
     <use style="fill:#2792cb;stroke:#2792cb;" x="782.197451" xlink:href="#mb270a10d2c" y="477.459688"/>
     <use style="fill:#2792cb;stroke:#2792cb;" x="786.872776" xlink:href="#mb270a10d2c" y="476.290541"/>
     <use style="fill:#2792cb;stroke:#2792cb;" x="800.89875" xlink:href="#mb270a10d2c" y="477.459688"/>
     <use style="fill:#2792cb;stroke:#2792cb;" x="805.574075" xlink:href="#mb270a10d2c" y="477.069972"/>
     <use style="fill:#2792cb;stroke:#2792cb;" x="810.249399" xlink:href="#mb270a10d2c" y="477.849404"/>
     <use style="fill:#2792cb;stroke:#2792cb;" x="814.924724" xlink:href="#mb270a10d2c" y="477.459688"/>
     <use style="fill:#2792cb;stroke:#2792cb;" x="819.600049" xlink:href="#mb270a10d2c" y="477.849404"/>
     <use style="fill:#2792cb;stroke:#2792cb;" x="833.626023" xlink:href="#mb270a10d2c" y="477.849404"/>
     <use style="fill:#2792cb;stroke:#2792cb;" x="838.301347" xlink:href="#mb270a10d2c" y="477.849404"/>
     <use style="fill:#2792cb;stroke:#2792cb;" x="842.976672" xlink:href="#mb270a10d2c" y="477.459688"/>
     <use style="fill:#2792cb;stroke:#2792cb;" x="847.651997" xlink:href="#mb270a10d2c" y="477.459688"/>
     <use style="fill:#2792cb;stroke:#2792cb;" x="852.327321" xlink:href="#mb270a10d2c" y="477.849404"/>
     <use style="fill:#2792cb;stroke:#2792cb;" x="866.353295" xlink:href="#mb270a10d2c" y="477.069972"/>
     <use style="fill:#2792cb;stroke:#2792cb;" x="871.02862" xlink:href="#mb270a10d2c" y="477.459688"/>
     <use style="fill:#2792cb;stroke:#2792cb;" x="875.703945" xlink:href="#mb270a10d2c" y="477.849404"/>
     <use style="fill:#2792cb;stroke:#2792cb;" x="880.379269" xlink:href="#mb270a10d2c" y="478.23912"/>
     <use style="fill:#2792cb;stroke:#2792cb;" x="885.054594" xlink:href="#mb270a10d2c" y="478.628836"/>
     <use style="fill:#2792cb;stroke:#2792cb;" x="899.080568" xlink:href="#mb270a10d2c" y="477.849404"/>
     <use style="fill:#2792cb;stroke:#2792cb;" x="903.755893" xlink:href="#mb270a10d2c" y="478.628836"/>
     <use style="fill:#2792cb;stroke:#2792cb;" x="908.431218" xlink:href="#mb270a10d2c" y="476.290541"/>
     <use style="fill:#2792cb;stroke:#2792cb;" x="913.106542" xlink:href="#mb270a10d2c" y="476.680256"/>
     <use style="fill:#2792cb;stroke:#2792cb;" x="917.781867" xlink:href="#mb270a10d2c" y="477.069972"/>
     <use style="fill:#2792cb;stroke:#2792cb;" x="931.807841" xlink:href="#mb270a10d2c" y="476.680256"/>
     <use style="fill:#2792cb;stroke:#2792cb;" x="936.483166" xlink:href="#mb270a10d2c" y="475.900825"/>
     <use style="fill:#2792cb;stroke:#2792cb;" x="941.15849" xlink:href="#mb270a10d2c" y="475.900825"/>
     <use style="fill:#2792cb;stroke:#2792cb;" x="945.833815" xlink:href="#mb270a10d2c" y="475.900825"/>
     <use style="fill:#2792cb;stroke:#2792cb;" x="950.50914" xlink:href="#mb270a10d2c" y="476.290541"/>
     <use style="fill:#2792cb;stroke:#2792cb;" x="964.535114" xlink:href="#mb270a10d2c" y="476.290541"/>
     <use style="fill:#2792cb;stroke:#2792cb;" x="969.210438" xlink:href="#mb270a10d2c" y="475.900825"/>
     <use style="fill:#2792cb;stroke:#2792cb;" x="973.885763" xlink:href="#mb270a10d2c" y="473.952246"/>
     <use style="fill:#2792cb;stroke:#2792cb;" x="978.561088" xlink:href="#mb270a10d2c" y="474.341961"/>
     <use style="fill:#2792cb;stroke:#2792cb;" x="983.236412" xlink:href="#mb270a10d2c" y="474.341961"/>
     <use style="fill:#2792cb;stroke:#2792cb;" x="997.262386" xlink:href="#mb270a10d2c" y="472.003666"/>
     <use style="fill:#2792cb;stroke:#2792cb;" x="1001.937711" xlink:href="#mb270a10d2c" y="471.224235"/>
     <use style="fill:#2792cb;stroke:#2792cb;" x="1006.613036" xlink:href="#mb270a10d2c" y="473.56253"/>
     <use style="fill:#2792cb;stroke:#2792cb;" x="1011.28836" xlink:href="#mb270a10d2c" y="471.224235"/>
     <use style="fill:#2792cb;stroke:#2792cb;" x="1015.963685" xlink:href="#mb270a10d2c" y="465.378497"/>
     <use style="fill:#2792cb;stroke:#2792cb;" x="1029.989659" xlink:href="#mb270a10d2c" y="463.040202"/>
     <use style="fill:#2792cb;stroke:#2792cb;" x="1034.664984" xlink:href="#mb270a10d2c" y="459.922476"/>
     <use style="fill:#2792cb;stroke:#2792cb;" x="1039.340308" xlink:href="#mb270a10d2c" y="456.415033"/>
     <use style="fill:#2792cb;stroke:#2792cb;" x="1044.015633" xlink:href="#mb270a10d2c" y="453.687022"/>
     <use style="fill:#2792cb;stroke:#2792cb;" x="1048.690958" xlink:href="#mb270a10d2c" y="446.282421"/>
     <use style="fill:#2792cb;stroke:#2792cb;" x="1062.716932" xlink:href="#mb270a10d2c" y="445.50299"/>
     <use style="fill:#2792cb;stroke:#2792cb;" x="1067.392256" xlink:href="#mb270a10d2c" y="447.841285"/>
     <use style="fill:#2792cb;stroke:#2792cb;" x="1100.119529" xlink:href="#mb270a10d2c" y="443.554411"/>
     <use style="fill:#2792cb;stroke:#2792cb;" x="1104.794854" xlink:href="#mb270a10d2c" y="445.50299"/>
     <use style="fill:#2792cb;stroke:#2792cb;" x="1109.470179" xlink:href="#mb270a10d2c" y="434.590946"/>
     <use style="fill:#2792cb;stroke:#2792cb;" x="1114.145503" xlink:href="#mb270a10d2c" y="422.12004"/>
     <use style="fill:#2792cb;stroke:#2792cb;" x="1128.171477" xlink:href="#mb270a10d2c" y="422.12004"/>
    </g>
   </g>
   <g id="patch_3">
    <path d="M 62.89875 501.738984 
L 1178.89875 501.738984 
" style="fill:none;stroke:#000000;stroke-linecap:square;stroke-linejoin:miter;stroke-width:0.8;"/>
   </g>
   <g id="legend_1">
    <g id="line2d_37">
     <path d="M 1091.653438 25.237422 
L 1111.653438 25.237422 
" style="fill:none;stroke:#dbcd00;stroke-linecap:square;stroke-width:2;"/>
    </g>
    <g id="line2d_38">
     <g>
      <use style="fill:#dbcd00;stroke:#dbcd00;" x="1101.653438" xlink:href="#md380d6f530" y="25.237422"/>
     </g>
    </g>
    <g id="text_23">
     <!-- Genesene -->
     <defs>
      <path d="M 59.515625 10.40625 
L 59.515625 29.984375 
L 43.40625 29.984375 
L 43.40625 38.09375 
L 69.28125 38.09375 
L 69.28125 6.78125 
Q 63.578125 2.734375 56.6875 0.65625 
Q 49.8125 -1.421875 42 -1.421875 
Q 24.90625 -1.421875 15.25 8.5625 
Q 5.609375 18.5625 5.609375 36.375 
Q 5.609375 54.25 15.25 64.234375 
Q 24.90625 74.21875 42 74.21875 
Q 49.125 74.21875 55.546875 72.453125 
Q 61.96875 70.703125 67.390625 67.28125 
L 67.390625 56.78125 
Q 61.921875 61.421875 55.765625 63.765625 
Q 49.609375 66.109375 42.828125 66.109375 
Q 29.4375 66.109375 22.71875 58.640625 
Q 16.015625 51.171875 16.015625 36.375 
Q 16.015625 21.625 22.71875 14.15625 
Q 29.4375 6.6875 42.828125 6.6875 
Q 48.046875 6.6875 52.140625 7.59375 
Q 56.25 8.5 59.515625 10.40625 
z
" id="DejaVuSans-71"/>
      <path d="M 44.28125 53.078125 
L 44.28125 44.578125 
Q 40.484375 46.53125 36.375 47.5 
Q 32.28125 48.484375 27.875 48.484375 
Q 21.1875 48.484375 17.84375 46.4375 
Q 14.5 44.390625 14.5 40.28125 
Q 14.5 37.15625 16.890625 35.375 
Q 19.28125 33.59375 26.515625 31.984375 
L 29.59375 31.296875 
Q 39.15625 29.25 43.1875 25.515625 
Q 47.21875 21.78125 47.21875 15.09375 
Q 47.21875 7.46875 41.1875 3.015625 
Q 35.15625 -1.421875 24.609375 -1.421875 
Q 20.21875 -1.421875 15.453125 -0.5625 
Q 10.6875 0.296875 5.421875 2 
L 5.421875 11.28125 
Q 10.40625 8.6875 15.234375 7.390625 
Q 20.0625 6.109375 24.8125 6.109375 
Q 31.15625 6.109375 34.5625 8.28125 
Q 37.984375 10.453125 37.984375 14.40625 
Q 37.984375 18.0625 35.515625 20.015625 
Q 33.0625 21.96875 24.703125 23.78125 
L 21.578125 24.515625 
Q 13.234375 26.265625 9.515625 29.90625 
Q 5.8125 33.546875 5.8125 39.890625 
Q 5.8125 47.609375 11.28125 51.796875 
Q 16.75 56 26.8125 56 
Q 31.78125 56 36.171875 55.265625 
Q 40.578125 54.546875 44.28125 53.078125 
z
" id="DejaVuSans-115"/>
     </defs>
     <g transform="translate(1119.653438 28.737422)scale(0.1 -0.1)">
      <use xlink:href="#DejaVuSans-71"/>
      <use x="77.490234" xlink:href="#DejaVuSans-101"/>
      <use x="139.013672" xlink:href="#DejaVuSans-110"/>
      <use x="202.392578" xlink:href="#DejaVuSans-101"/>
      <use x="263.916016" xlink:href="#DejaVuSans-115"/>
      <use x="316.015625" xlink:href="#DejaVuSans-101"/>
      <use x="377.539062" xlink:href="#DejaVuSans-110"/>
      <use x="440.917969" xlink:href="#DejaVuSans-101"/>
     </g>
    </g>
    <g id="line2d_39">
     <path d="M 1091.653438 39.915547 
L 1111.653438 39.915547 
" style="fill:none;stroke:#2792cb;stroke-linecap:square;stroke-width:2;"/>
    </g>
    <g id="line2d_40">
     <g>
      <use style="fill:#2792cb;stroke:#2792cb;" x="1101.653438" xlink:href="#mb270a10d2c" y="39.915547"/>
     </g>
    </g>
    <g id="text_24">
     <!-- Erkrankte -->
     <defs>
      <path d="M 9.8125 72.90625 
L 55.90625 72.90625 
L 55.90625 64.59375 
L 19.671875 64.59375 
L 19.671875 43.015625 
L 54.390625 43.015625 
L 54.390625 34.71875 
L 19.671875 34.71875 
L 19.671875 8.296875 
L 56.78125 8.296875 
L 56.78125 0 
L 9.8125 0 
z
" id="DejaVuSans-69"/>
      <path d="M 41.109375 46.296875 
Q 39.59375 47.171875 37.8125 47.578125 
Q 36.03125 48 33.890625 48 
Q 26.265625 48 22.1875 43.046875 
Q 18.109375 38.09375 18.109375 28.8125 
L 18.109375 0 
L 9.078125 0 
L 9.078125 54.6875 
L 18.109375 54.6875 
L 18.109375 46.1875 
Q 20.953125 51.171875 25.484375 53.578125 
Q 30.03125 56 36.53125 56 
Q 37.453125 56 38.578125 55.875 
Q 39.703125 55.765625 41.0625 55.515625 
z
" id="DejaVuSans-114"/>
      <path d="M 9.078125 75.984375 
L 18.109375 75.984375 
L 18.109375 31.109375 
L 44.921875 54.6875 
L 56.390625 54.6875 
L 27.390625 29.109375 
L 57.625 0 
L 45.90625 0 
L 18.109375 26.703125 
L 18.109375 0 
L 9.078125 0 
z
" id="DejaVuSans-107"/>
      <path d="M 18.3125 70.21875 
L 18.3125 54.6875 
L 36.8125 54.6875 
L 36.8125 47.703125 
L 18.3125 47.703125 
L 18.3125 18.015625 
Q 18.3125 11.328125 20.140625 9.421875 
Q 21.96875 7.515625 27.59375 7.515625 
L 36.8125 7.515625 
L 36.8125 0 
L 27.59375 0 
Q 17.1875 0 13.234375 3.875 
Q 9.28125 7.765625 9.28125 18.015625 
L 9.28125 47.703125 
L 2.6875 47.703125 
L 2.6875 54.6875 
L 9.28125 54.6875 
L 9.28125 70.21875 
z
" id="DejaVuSans-116"/>
     </defs>
     <g transform="translate(1119.653438 43.415547)scale(0.1 -0.1)">
      <use xlink:href="#DejaVuSans-69"/>
      <use x="63.183594" xlink:href="#DejaVuSans-114"/>
      <use x="104.296875" xlink:href="#DejaVuSans-107"/>
      <use x="162.207031" xlink:href="#DejaVuSans-114"/>
      <use x="203.320312" xlink:href="#DejaVuSans-97"/>
      <use x="264.599609" xlink:href="#DejaVuSans-110"/>
      <use x="327.978516" xlink:href="#DejaVuSans-107"/>
      <use x="385.888672" xlink:href="#DejaVuSans-116"/>
      <use x="425.097656" xlink:href="#DejaVuSans-101"/>
     </g>
    </g>
   </g>
  </g>
 </g>
 <defs>
  <clipPath id="pe2f0c99339">
   <rect height="489.6" width="1116" x="62.89875" y="12.138984"/>
  </clipPath>
 </defs>
</svg>
