<?xml version="1.0" encoding="utf-8" standalone="no"?>
<!DOCTYPE svg PUBLIC "-//W3C//DTD SVG 1.1//EN"
  "http://www.w3.org/Graphics/SVG/1.1/DTD/svg11.dtd">
<!-- Created with matplotlib (https://matplotlib.org/) -->
<svg height="564.610093pt" version="1.1" viewBox="0 0 1177.8275 564.610093" width="1177.8275pt" xmlns="http://www.w3.org/2000/svg" xmlns:xlink="http://www.w3.org/1999/xlink">
 <defs>
  <style type="text/css">
*{stroke-linecap:butt;stroke-linejoin:round;}
  </style>
 </defs>
 <g id="figure_1">
  <g id="patch_1">
   <path d="M 0 564.610093 
L 1177.8275 564.610093 
L 1177.8275 0 
L 0 0 
z
" style="fill:#ffffff;"/>
  </g>
  <g id="axes_1">
   <g id="patch_2">
    <path d="M 54.6275 501.738984 
L 1170.6275 501.738984 
L 1170.6275 12.138984 
L 54.6275 12.138984 
z
" style="fill:#ffffff;"/>
   </g>
   <g id="matplotlib.axis_1">
    <g id="xtick_1">
     <g id="line2d_1">
      <defs>
       <path d="M 0 0 
L 0 3.5 
" id="m2d58a08ec4" style="stroke:#000000;stroke-width:0.8;"/>
      </defs>
      <g>
       <use style="stroke:#000000;stroke-width:0.8;" x="190.690372" xlink:href="#m2d58a08ec4" y="501.738984"/>
      </g>
     </g>
     <g id="text_1">
      <!-- 2020-04-01 -->
      <defs>
       <path d="M 19.1875 8.296875 
L 53.609375 8.296875 
L 53.609375 0 
L 7.328125 0 
L 7.328125 8.296875 
Q 12.9375 14.109375 22.625 23.890625 
Q 32.328125 33.6875 34.8125 36.53125 
Q 39.546875 41.84375 41.421875 45.53125 
Q 43.3125 49.21875 43.3125 52.78125 
Q 43.3125 58.59375 39.234375 62.25 
Q 35.15625 65.921875 28.609375 65.921875 
Q 23.96875 65.921875 18.8125 64.3125 
Q 13.671875 62.703125 7.8125 59.421875 
L 7.8125 69.390625 
Q 13.765625 71.78125 18.9375 73 
Q 24.125 74.21875 28.421875 74.21875 
Q 39.75 74.21875 46.484375 68.546875 
Q 53.21875 62.890625 53.21875 53.421875 
Q 53.21875 48.921875 51.53125 44.890625 
Q 49.859375 40.875 45.40625 35.40625 
Q 44.1875 33.984375 37.640625 27.21875 
Q 31.109375 20.453125 19.1875 8.296875 
z
" id="DejaVuSans-50"/>
       <path d="M 31.78125 66.40625 
Q 24.171875 66.40625 20.328125 58.90625 
Q 16.5 51.421875 16.5 36.375 
Q 16.5 21.390625 20.328125 13.890625 
Q 24.171875 6.390625 31.78125 6.390625 
Q 39.453125 6.390625 43.28125 13.890625 
Q 47.125 21.390625 47.125 36.375 
Q 47.125 51.421875 43.28125 58.90625 
Q 39.453125 66.40625 31.78125 66.40625 
z
M 31.78125 74.21875 
Q 44.046875 74.21875 50.515625 64.515625 
Q 56.984375 54.828125 56.984375 36.375 
Q 56.984375 17.96875 50.515625 8.265625 
Q 44.046875 -1.421875 31.78125 -1.421875 
Q 19.53125 -1.421875 13.0625 8.265625 
Q 6.59375 17.96875 6.59375 36.375 
Q 6.59375 54.828125 13.0625 64.515625 
Q 19.53125 74.21875 31.78125 74.21875 
z
" id="DejaVuSans-48"/>
       <path d="M 4.890625 31.390625 
L 31.203125 31.390625 
L 31.203125 23.390625 
L 4.890625 23.390625 
z
" id="DejaVuSans-45"/>
       <path d="M 37.796875 64.3125 
L 12.890625 25.390625 
L 37.796875 25.390625 
z
M 35.203125 72.90625 
L 47.609375 72.90625 
L 47.609375 25.390625 
L 58.015625 25.390625 
L 58.015625 17.1875 
L 47.609375 17.1875 
L 47.609375 0 
L 37.796875 0 
L 37.796875 17.1875 
L 4.890625 17.1875 
L 4.890625 26.703125 
z
" id="DejaVuSans-52"/>
       <path d="M 12.40625 8.296875 
L 28.515625 8.296875 
L 28.515625 63.921875 
L 10.984375 60.40625 
L 10.984375 69.390625 
L 28.421875 72.90625 
L 38.28125 72.90625 
L 38.28125 8.296875 
L 54.390625 8.296875 
L 54.390625 0 
L 12.40625 0 
z
" id="DejaVuSans-49"/>
      </defs>
      <g transform="translate(123.910085 555.068713)rotate(-30)scale(0.13 -0.13)">
       <use xlink:href="#DejaVuSans-50"/>
       <use x="63.623047" xlink:href="#DejaVuSans-48"/>
       <use x="127.246094" xlink:href="#DejaVuSans-50"/>
       <use x="190.869141" xlink:href="#DejaVuSans-48"/>
       <use x="254.492188" xlink:href="#DejaVuSans-45"/>
       <use x="290.576172" xlink:href="#DejaVuSans-48"/>
       <use x="354.199219" xlink:href="#DejaVuSans-52"/>
       <use x="417.822266" xlink:href="#DejaVuSans-45"/>
       <use x="453.90625" xlink:href="#DejaVuSans-48"/>
       <use x="517.529297" xlink:href="#DejaVuSans-49"/>
      </g>
     </g>
    </g>
    <g id="xtick_2">
     <g id="line2d_2">
      <g>
       <use style="stroke:#000000;stroke-width:0.8;" x="323.434637" xlink:href="#m2d58a08ec4" y="501.738984"/>
      </g>
     </g>
     <g id="text_2">
      <!-- 2020-04-15 -->
      <defs>
       <path d="M 10.796875 72.90625 
L 49.515625 72.90625 
L 49.515625 64.59375 
L 19.828125 64.59375 
L 19.828125 46.734375 
Q 21.96875 47.46875 24.109375 47.828125 
Q 26.265625 48.1875 28.421875 48.1875 
Q 40.625 48.1875 47.75 41.5 
Q 54.890625 34.8125 54.890625 23.390625 
Q 54.890625 11.625 47.5625 5.09375 
Q 40.234375 -1.421875 26.90625 -1.421875 
Q 22.3125 -1.421875 17.546875 -0.640625 
Q 12.796875 0.140625 7.71875 1.703125 
L 7.71875 11.625 
Q 12.109375 9.234375 16.796875 8.0625 
Q 21.484375 6.890625 26.703125 6.890625 
Q 35.15625 6.890625 40.078125 11.328125 
Q 45.015625 15.765625 45.015625 23.390625 
Q 45.015625 31 40.078125 35.4375 
Q 35.15625 39.890625 26.703125 39.890625 
Q 22.75 39.890625 18.8125 39.015625 
Q 14.890625 38.140625 10.796875 36.28125 
z
" id="DejaVuSans-53"/>
      </defs>
      <g transform="translate(256.65435 555.068713)rotate(-30)scale(0.13 -0.13)">
       <use xlink:href="#DejaVuSans-50"/>
       <use x="63.623047" xlink:href="#DejaVuSans-48"/>
       <use x="127.246094" xlink:href="#DejaVuSans-50"/>
       <use x="190.869141" xlink:href="#DejaVuSans-48"/>
       <use x="254.492188" xlink:href="#DejaVuSans-45"/>
       <use x="290.576172" xlink:href="#DejaVuSans-48"/>
       <use x="354.199219" xlink:href="#DejaVuSans-52"/>
       <use x="417.822266" xlink:href="#DejaVuSans-45"/>
       <use x="453.90625" xlink:href="#DejaVuSans-49"/>
       <use x="517.529297" xlink:href="#DejaVuSans-53"/>
      </g>
     </g>
    </g>
    <g id="xtick_3">
     <g id="line2d_3">
      <g>
       <use style="stroke:#000000;stroke-width:0.8;" x="475.142368" xlink:href="#m2d58a08ec4" y="501.738984"/>
      </g>
     </g>
     <g id="text_3">
      <!-- 2020-05-01 -->
      <g transform="translate(408.362082 555.068713)rotate(-30)scale(0.13 -0.13)">
       <use xlink:href="#DejaVuSans-50"/>
       <use x="63.623047" xlink:href="#DejaVuSans-48"/>
       <use x="127.246094" xlink:href="#DejaVuSans-50"/>
       <use x="190.869141" xlink:href="#DejaVuSans-48"/>
       <use x="254.492188" xlink:href="#DejaVuSans-45"/>
       <use x="290.576172" xlink:href="#DejaVuSans-48"/>
       <use x="354.199219" xlink:href="#DejaVuSans-53"/>
       <use x="417.822266" xlink:href="#DejaVuSans-45"/>
       <use x="453.90625" xlink:href="#DejaVuSans-48"/>
       <use x="517.529297" xlink:href="#DejaVuSans-49"/>
      </g>
     </g>
    </g>
    <g id="xtick_4">
     <g id="line2d_4">
      <g>
       <use style="stroke:#000000;stroke-width:0.8;" x="607.886633" xlink:href="#m2d58a08ec4" y="501.738984"/>
      </g>
     </g>
     <g id="text_4">
      <!-- 2020-05-15 -->
      <g transform="translate(541.106347 555.068713)rotate(-30)scale(0.13 -0.13)">
       <use xlink:href="#DejaVuSans-50"/>
       <use x="63.623047" xlink:href="#DejaVuSans-48"/>
       <use x="127.246094" xlink:href="#DejaVuSans-50"/>
       <use x="190.869141" xlink:href="#DejaVuSans-48"/>
       <use x="254.492188" xlink:href="#DejaVuSans-45"/>
       <use x="290.576172" xlink:href="#DejaVuSans-48"/>
       <use x="354.199219" xlink:href="#DejaVuSans-53"/>
       <use x="417.822266" xlink:href="#DejaVuSans-45"/>
       <use x="453.90625" xlink:href="#DejaVuSans-49"/>
       <use x="517.529297" xlink:href="#DejaVuSans-53"/>
      </g>
     </g>
    </g>
    <g id="xtick_5">
     <g id="line2d_5">
      <g>
       <use style="stroke:#000000;stroke-width:0.8;" x="769.076098" xlink:href="#m2d58a08ec4" y="501.738984"/>
      </g>
     </g>
     <g id="text_5">
      <!-- 2020-06-01 -->
      <defs>
       <path d="M 33.015625 40.375 
Q 26.375 40.375 22.484375 35.828125 
Q 18.609375 31.296875 18.609375 23.390625 
Q 18.609375 15.53125 22.484375 10.953125 
Q 26.375 6.390625 33.015625 6.390625 
Q 39.65625 6.390625 43.53125 10.953125 
Q 47.40625 15.53125 47.40625 23.390625 
Q 47.40625 31.296875 43.53125 35.828125 
Q 39.65625 40.375 33.015625 40.375 
z
M 52.59375 71.296875 
L 52.59375 62.3125 
Q 48.875 64.0625 45.09375 64.984375 
Q 41.3125 65.921875 37.59375 65.921875 
Q 27.828125 65.921875 22.671875 59.328125 
Q 17.53125 52.734375 16.796875 39.40625 
Q 19.671875 43.65625 24.015625 45.921875 
Q 28.375 48.1875 33.59375 48.1875 
Q 44.578125 48.1875 50.953125 41.515625 
Q 57.328125 34.859375 57.328125 23.390625 
Q 57.328125 12.15625 50.6875 5.359375 
Q 44.046875 -1.421875 33.015625 -1.421875 
Q 20.359375 -1.421875 13.671875 8.265625 
Q 6.984375 17.96875 6.984375 36.375 
Q 6.984375 53.65625 15.1875 63.9375 
Q 23.390625 74.21875 37.203125 74.21875 
Q 40.921875 74.21875 44.703125 73.484375 
Q 48.484375 72.75 52.59375 71.296875 
z
" id="DejaVuSans-54"/>
      </defs>
      <g transform="translate(702.295811 555.068713)rotate(-30)scale(0.13 -0.13)">
       <use xlink:href="#DejaVuSans-50"/>
       <use x="63.623047" xlink:href="#DejaVuSans-48"/>
       <use x="127.246094" xlink:href="#DejaVuSans-50"/>
       <use x="190.869141" xlink:href="#DejaVuSans-48"/>
       <use x="254.492188" xlink:href="#DejaVuSans-45"/>
       <use x="290.576172" xlink:href="#DejaVuSans-48"/>
       <use x="354.199219" xlink:href="#DejaVuSans-54"/>
       <use x="417.822266" xlink:href="#DejaVuSans-45"/>
       <use x="453.90625" xlink:href="#DejaVuSans-48"/>
       <use x="517.529297" xlink:href="#DejaVuSans-49"/>
      </g>
     </g>
    </g>
    <g id="xtick_6">
     <g id="line2d_6">
      <g>
       <use style="stroke:#000000;stroke-width:0.8;" x="901.820363" xlink:href="#m2d58a08ec4" y="501.738984"/>
      </g>
     </g>
     <g id="text_6">
      <!-- 2020-06-15 -->
      <g transform="translate(835.040076 555.068713)rotate(-30)scale(0.13 -0.13)">
       <use xlink:href="#DejaVuSans-50"/>
       <use x="63.623047" xlink:href="#DejaVuSans-48"/>
       <use x="127.246094" xlink:href="#DejaVuSans-50"/>
       <use x="190.869141" xlink:href="#DejaVuSans-48"/>
       <use x="254.492188" xlink:href="#DejaVuSans-45"/>
       <use x="290.576172" xlink:href="#DejaVuSans-48"/>
       <use x="354.199219" xlink:href="#DejaVuSans-54"/>
       <use x="417.822266" xlink:href="#DejaVuSans-45"/>
       <use x="453.90625" xlink:href="#DejaVuSans-49"/>
       <use x="517.529297" xlink:href="#DejaVuSans-53"/>
      </g>
     </g>
    </g>
    <g id="xtick_7">
     <g id="line2d_7">
      <g>
       <use style="stroke:#000000;stroke-width:0.8;" x="1053.528095" xlink:href="#m2d58a08ec4" y="501.738984"/>
      </g>
     </g>
     <g id="text_7">
      <!-- 2020-07-01 -->
      <defs>
       <path d="M 8.203125 72.90625 
L 55.078125 72.90625 
L 55.078125 68.703125 
L 28.609375 0 
L 18.3125 0 
L 43.21875 64.59375 
L 8.203125 64.59375 
z
" id="DejaVuSans-55"/>
      </defs>
      <g transform="translate(986.747808 555.068713)rotate(-30)scale(0.13 -0.13)">
       <use xlink:href="#DejaVuSans-50"/>
       <use x="63.623047" xlink:href="#DejaVuSans-48"/>
       <use x="127.246094" xlink:href="#DejaVuSans-50"/>
       <use x="190.869141" xlink:href="#DejaVuSans-48"/>
       <use x="254.492188" xlink:href="#DejaVuSans-45"/>
       <use x="290.576172" xlink:href="#DejaVuSans-48"/>
       <use x="354.199219" xlink:href="#DejaVuSans-55"/>
       <use x="417.822266" xlink:href="#DejaVuSans-45"/>
       <use x="453.90625" xlink:href="#DejaVuSans-48"/>
       <use x="517.529297" xlink:href="#DejaVuSans-49"/>
      </g>
     </g>
    </g>
   </g>
   <g id="matplotlib.axis_2">
    <g id="ytick_1">
     <g id="line2d_8">
      <path clip-path="url(#p8103409f3f)" d="M 54.6275 481.824326 
L 1170.6275 481.824326 
" style="fill:none;stroke:#b0b0b0;stroke-linecap:square;stroke-width:0.8;"/>
     </g>
     <g id="line2d_9">
      <defs>
       <path d="M 0 0 
L -3.5 0 
" id="me382b8e6d3" style="stroke:#000000;stroke-width:0.8;"/>
      </defs>
      <g>
       <use style="stroke:#000000;stroke-width:0.8;" x="54.6275" xlink:href="#me382b8e6d3" y="481.824326"/>
      </g>
     </g>
     <g id="text_8">
      <!-- 0 -->
      <g transform="translate(39.35625 486.76331)scale(0.13 -0.13)">
       <use xlink:href="#DejaVuSans-48"/>
      </g>
     </g>
    </g>
    <g id="ytick_2">
     <g id="line2d_10">
      <path clip-path="url(#p8103409f3f)" d="M 54.6275 387.887258 
L 1170.6275 387.887258 
" style="fill:none;stroke:#b0b0b0;stroke-linecap:square;stroke-width:0.8;"/>
     </g>
     <g id="line2d_11">
      <g>
       <use style="stroke:#000000;stroke-width:0.8;" x="54.6275" xlink:href="#me382b8e6d3" y="387.887258"/>
      </g>
     </g>
     <g id="text_9">
      <!-- 100 -->
      <g transform="translate(22.81375 392.826242)scale(0.13 -0.13)">
       <use xlink:href="#DejaVuSans-49"/>
       <use x="63.623047" xlink:href="#DejaVuSans-48"/>
       <use x="127.246094" xlink:href="#DejaVuSans-48"/>
      </g>
     </g>
    </g>
    <g id="ytick_3">
     <g id="line2d_12">
      <path clip-path="url(#p8103409f3f)" d="M 54.6275 293.950189 
L 1170.6275 293.950189 
" style="fill:none;stroke:#b0b0b0;stroke-linecap:square;stroke-width:0.8;"/>
     </g>
     <g id="line2d_13">
      <g>
       <use style="stroke:#000000;stroke-width:0.8;" x="54.6275" xlink:href="#me382b8e6d3" y="293.950189"/>
      </g>
     </g>
     <g id="text_10">
      <!-- 200 -->
      <g transform="translate(22.81375 298.889174)scale(0.13 -0.13)">
       <use xlink:href="#DejaVuSans-50"/>
       <use x="63.623047" xlink:href="#DejaVuSans-48"/>
       <use x="127.246094" xlink:href="#DejaVuSans-48"/>
      </g>
     </g>
    </g>
    <g id="ytick_4">
     <g id="line2d_14">
      <path clip-path="url(#p8103409f3f)" d="M 54.6275 200.013121 
L 1170.6275 200.013121 
" style="fill:none;stroke:#b0b0b0;stroke-linecap:square;stroke-width:0.8;"/>
     </g>
     <g id="line2d_15">
      <g>
       <use style="stroke:#000000;stroke-width:0.8;" x="54.6275" xlink:href="#me382b8e6d3" y="200.013121"/>
      </g>
     </g>
     <g id="text_11">
      <!-- 300 -->
      <defs>
       <path d="M 40.578125 39.3125 
Q 47.65625 37.796875 51.625 33 
Q 55.609375 28.21875 55.609375 21.1875 
Q 55.609375 10.40625 48.1875 4.484375 
Q 40.765625 -1.421875 27.09375 -1.421875 
Q 22.515625 -1.421875 17.65625 -0.515625 
Q 12.796875 0.390625 7.625 2.203125 
L 7.625 11.71875 
Q 11.71875 9.328125 16.59375 8.109375 
Q 21.484375 6.890625 26.8125 6.890625 
Q 36.078125 6.890625 40.9375 10.546875 
Q 45.796875 14.203125 45.796875 21.1875 
Q 45.796875 27.640625 41.28125 31.265625 
Q 36.765625 34.90625 28.71875 34.90625 
L 20.21875 34.90625 
L 20.21875 43.015625 
L 29.109375 43.015625 
Q 36.375 43.015625 40.234375 45.921875 
Q 44.09375 48.828125 44.09375 54.296875 
Q 44.09375 59.90625 40.109375 62.90625 
Q 36.140625 65.921875 28.71875 65.921875 
Q 24.65625 65.921875 20.015625 65.03125 
Q 15.375 64.15625 9.8125 62.3125 
L 9.8125 71.09375 
Q 15.4375 72.65625 20.34375 73.4375 
Q 25.25 74.21875 29.59375 74.21875 
Q 40.828125 74.21875 47.359375 69.109375 
Q 53.90625 64.015625 53.90625 55.328125 
Q 53.90625 49.265625 50.4375 45.09375 
Q 46.96875 40.921875 40.578125 39.3125 
z
" id="DejaVuSans-51"/>
      </defs>
      <g transform="translate(22.81375 204.952105)scale(0.13 -0.13)">
       <use xlink:href="#DejaVuSans-51"/>
       <use x="63.623047" xlink:href="#DejaVuSans-48"/>
       <use x="127.246094" xlink:href="#DejaVuSans-48"/>
      </g>
     </g>
    </g>
    <g id="ytick_5">
     <g id="line2d_16">
      <path clip-path="url(#p8103409f3f)" d="M 54.6275 106.076053 
L 1170.6275 106.076053 
" style="fill:none;stroke:#b0b0b0;stroke-linecap:square;stroke-width:0.8;"/>
     </g>
     <g id="line2d_17">
      <g>
       <use style="stroke:#000000;stroke-width:0.8;" x="54.6275" xlink:href="#me382b8e6d3" y="106.076053"/>
      </g>
     </g>
     <g id="text_12">
      <!-- 400 -->
      <g transform="translate(22.81375 111.015037)scale(0.13 -0.13)">
       <use xlink:href="#DejaVuSans-52"/>
       <use x="63.623047" xlink:href="#DejaVuSans-48"/>
       <use x="127.246094" xlink:href="#DejaVuSans-48"/>
      </g>
     </g>
    </g>
    <g id="ytick_6">
     <g id="line2d_18">
      <path clip-path="url(#p8103409f3f)" d="M 54.6275 12.138984 
L 1170.6275 12.138984 
" style="fill:none;stroke:#b0b0b0;stroke-linecap:square;stroke-width:0.8;"/>
     </g>
     <g id="line2d_19">
      <g>
       <use style="stroke:#000000;stroke-width:0.8;" x="54.6275" xlink:href="#me382b8e6d3" y="12.138984"/>
      </g>
     </g>
     <g id="text_13">
      <!-- 500 -->
      <g transform="translate(22.81375 17.077969)scale(0.13 -0.13)">
       <use xlink:href="#DejaVuSans-53"/>
       <use x="63.623047" xlink:href="#DejaVuSans-48"/>
       <use x="127.246094" xlink:href="#DejaVuSans-48"/>
      </g>
     </g>
    </g>
    <g id="text_14">
     <!-- Anzahl von Fällen -->
     <defs>
      <path d="M 34.1875 63.1875 
L 20.796875 26.90625 
L 47.609375 26.90625 
z
M 28.609375 72.90625 
L 39.796875 72.90625 
L 67.578125 0 
L 57.328125 0 
L 50.6875 18.703125 
L 17.828125 18.703125 
L 11.1875 0 
L 0.78125 0 
z
" id="DejaVuSans-65"/>
      <path d="M 54.890625 33.015625 
L 54.890625 0 
L 45.90625 0 
L 45.90625 32.71875 
Q 45.90625 40.484375 42.875 44.328125 
Q 39.84375 48.1875 33.796875 48.1875 
Q 26.515625 48.1875 22.3125 43.546875 
Q 18.109375 38.921875 18.109375 30.90625 
L 18.109375 0 
L 9.078125 0 
L 9.078125 54.6875 
L 18.109375 54.6875 
L 18.109375 46.1875 
Q 21.34375 51.125 25.703125 53.5625 
Q 30.078125 56 35.796875 56 
Q 45.21875 56 50.046875 50.171875 
Q 54.890625 44.34375 54.890625 33.015625 
z
" id="DejaVuSans-110"/>
      <path d="M 5.515625 54.6875 
L 48.1875 54.6875 
L 48.1875 46.484375 
L 14.40625 7.171875 
L 48.1875 7.171875 
L 48.1875 0 
L 4.296875 0 
L 4.296875 8.203125 
L 38.09375 47.515625 
L 5.515625 47.515625 
z
" id="DejaVuSans-122"/>
      <path d="M 34.28125 27.484375 
Q 23.390625 27.484375 19.1875 25 
Q 14.984375 22.515625 14.984375 16.5 
Q 14.984375 11.71875 18.140625 8.90625 
Q 21.296875 6.109375 26.703125 6.109375 
Q 34.1875 6.109375 38.703125 11.40625 
Q 43.21875 16.703125 43.21875 25.484375 
L 43.21875 27.484375 
z
M 52.203125 31.203125 
L 52.203125 0 
L 43.21875 0 
L 43.21875 8.296875 
Q 40.140625 3.328125 35.546875 0.953125 
Q 30.953125 -1.421875 24.3125 -1.421875 
Q 15.921875 -1.421875 10.953125 3.296875 
Q 6 8.015625 6 15.921875 
Q 6 25.140625 12.171875 29.828125 
Q 18.359375 34.515625 30.609375 34.515625 
L 43.21875 34.515625 
L 43.21875 35.40625 
Q 43.21875 41.609375 39.140625 45 
Q 35.0625 48.390625 27.6875 48.390625 
Q 23 48.390625 18.546875 47.265625 
Q 14.109375 46.140625 10.015625 43.890625 
L 10.015625 52.203125 
Q 14.9375 54.109375 19.578125 55.046875 
Q 24.21875 56 28.609375 56 
Q 40.484375 56 46.34375 49.84375 
Q 52.203125 43.703125 52.203125 31.203125 
z
" id="DejaVuSans-97"/>
      <path d="M 54.890625 33.015625 
L 54.890625 0 
L 45.90625 0 
L 45.90625 32.71875 
Q 45.90625 40.484375 42.875 44.328125 
Q 39.84375 48.1875 33.796875 48.1875 
Q 26.515625 48.1875 22.3125 43.546875 
Q 18.109375 38.921875 18.109375 30.90625 
L 18.109375 0 
L 9.078125 0 
L 9.078125 75.984375 
L 18.109375 75.984375 
L 18.109375 46.1875 
Q 21.34375 51.125 25.703125 53.5625 
Q 30.078125 56 35.796875 56 
Q 45.21875 56 50.046875 50.171875 
Q 54.890625 44.34375 54.890625 33.015625 
z
" id="DejaVuSans-104"/>
      <path d="M 9.421875 75.984375 
L 18.40625 75.984375 
L 18.40625 0 
L 9.421875 0 
z
" id="DejaVuSans-108"/>
      <path id="DejaVuSans-32"/>
      <path d="M 2.984375 54.6875 
L 12.5 54.6875 
L 29.59375 8.796875 
L 46.6875 54.6875 
L 56.203125 54.6875 
L 35.6875 0 
L 23.484375 0 
z
" id="DejaVuSans-118"/>
      <path d="M 30.609375 48.390625 
Q 23.390625 48.390625 19.1875 42.75 
Q 14.984375 37.109375 14.984375 27.296875 
Q 14.984375 17.484375 19.15625 11.84375 
Q 23.34375 6.203125 30.609375 6.203125 
Q 37.796875 6.203125 41.984375 11.859375 
Q 46.1875 17.53125 46.1875 27.296875 
Q 46.1875 37.015625 41.984375 42.703125 
Q 37.796875 48.390625 30.609375 48.390625 
z
M 30.609375 56 
Q 42.328125 56 49.015625 48.375 
Q 55.71875 40.765625 55.71875 27.296875 
Q 55.71875 13.875 49.015625 6.21875 
Q 42.328125 -1.421875 30.609375 -1.421875 
Q 18.84375 -1.421875 12.171875 6.21875 
Q 5.515625 13.875 5.515625 27.296875 
Q 5.515625 40.765625 12.171875 48.375 
Q 18.84375 56 30.609375 56 
z
" id="DejaVuSans-111"/>
      <path d="M 9.8125 72.90625 
L 51.703125 72.90625 
L 51.703125 64.59375 
L 19.671875 64.59375 
L 19.671875 43.109375 
L 48.578125 43.109375 
L 48.578125 34.8125 
L 19.671875 34.8125 
L 19.671875 0 
L 9.8125 0 
z
" id="DejaVuSans-70"/>
      <path d="M 34.28125 27.484375 
Q 23.390625 27.484375 19.1875 25 
Q 14.984375 22.515625 14.984375 16.5 
Q 14.984375 11.71875 18.140625 8.90625 
Q 21.296875 6.109375 26.703125 6.109375 
Q 34.1875 6.109375 38.703125 11.40625 
Q 43.21875 16.703125 43.21875 25.484375 
L 43.21875 27.484375 
z
M 52.203125 31.203125 
L 52.203125 0 
L 43.21875 0 
L 43.21875 8.296875 
Q 40.140625 3.328125 35.546875 0.953125 
Q 30.953125 -1.421875 24.3125 -1.421875 
Q 15.921875 -1.421875 10.953125 3.296875 
Q 6 8.015625 6 15.921875 
Q 6 25.140625 12.171875 29.828125 
Q 18.359375 34.515625 30.609375 34.515625 
L 43.21875 34.515625 
L 43.21875 35.40625 
Q 43.21875 41.609375 39.140625 45 
Q 35.0625 48.390625 27.6875 48.390625 
Q 23 48.390625 18.546875 47.265625 
Q 14.109375 46.140625 10.015625 43.890625 
L 10.015625 52.203125 
Q 14.9375 54.109375 19.578125 55.046875 
Q 24.21875 56 28.609375 56 
Q 40.484375 56 46.34375 49.84375 
Q 52.203125 43.703125 52.203125 31.203125 
z
M 33.59375 75.78125 
L 43.5 75.78125 
L 43.5 65.921875 
L 33.59375 65.921875 
z
M 14.5 75.78125 
L 24.40625 75.78125 
L 24.40625 65.921875 
L 14.5 65.921875 
z
" id="DejaVuSans-228"/>
      <path d="M 56.203125 29.59375 
L 56.203125 25.203125 
L 14.890625 25.203125 
Q 15.484375 15.921875 20.484375 11.0625 
Q 25.484375 6.203125 34.421875 6.203125 
Q 39.59375 6.203125 44.453125 7.46875 
Q 49.3125 8.734375 54.109375 11.28125 
L 54.109375 2.78125 
Q 49.265625 0.734375 44.1875 -0.34375 
Q 39.109375 -1.421875 33.890625 -1.421875 
Q 20.796875 -1.421875 13.15625 6.1875 
Q 5.515625 13.8125 5.515625 26.8125 
Q 5.515625 40.234375 12.765625 48.109375 
Q 20.015625 56 32.328125 56 
Q 43.359375 56 49.78125 48.890625 
Q 56.203125 41.796875 56.203125 29.59375 
z
M 47.21875 32.234375 
Q 47.125 39.59375 43.09375 43.984375 
Q 39.0625 48.390625 32.421875 48.390625 
Q 24.90625 48.390625 20.390625 44.140625 
Q 15.875 39.890625 15.1875 32.171875 
z
" id="DejaVuSans-101"/>
     </defs>
     <g transform="translate(16.318125 309.388359)rotate(-90)scale(0.12 -0.12)">
      <use xlink:href="#DejaVuSans-65"/>
      <use x="68.408203" xlink:href="#DejaVuSans-110"/>
      <use x="131.787109" xlink:href="#DejaVuSans-122"/>
      <use x="184.277344" xlink:href="#DejaVuSans-97"/>
      <use x="245.556641" xlink:href="#DejaVuSans-104"/>
      <use x="308.935547" xlink:href="#DejaVuSans-108"/>
      <use x="336.71875" xlink:href="#DejaVuSans-32"/>
      <use x="368.505859" xlink:href="#DejaVuSans-118"/>
      <use x="427.685547" xlink:href="#DejaVuSans-111"/>
      <use x="488.867188" xlink:href="#DejaVuSans-110"/>
      <use x="552.246094" xlink:href="#DejaVuSans-32"/>
      <use x="584.033203" xlink:href="#DejaVuSans-70"/>
      <use x="632.427734" xlink:href="#DejaVuSans-228"/>
      <use x="693.707031" xlink:href="#DejaVuSans-108"/>
      <use x="721.490234" xlink:href="#DejaVuSans-108"/>
      <use x="749.273438" xlink:href="#DejaVuSans-101"/>
      <use x="810.796875" xlink:href="#DejaVuSans-110"/>
     </g>
    </g>
   </g>
   <g id="line2d_20">
    <path clip-path="url(#p8103409f3f)" d="M 105.354773 479.945585 
L 114.836506 479.945585 
L 124.318239 479.006214 
L 133.799972 478.066843 
L 143.281706 478.066843 
L 152.763439 478.066843 
L 162.245172 478.066843 
L 171.726905 478.066843 
L 181.208638 466.794395 
L 190.690372 463.036912 
L 200.172105 462.097542 
L 209.653838 461.158171 
L 219.135571 459.27943 
L 228.617305 458.340059 
L 238.099038 451.764464 
L 247.580771 448.006981 
L 257.062504 445.188869 
L 266.544237 442.370757 
L 276.025971 441.431387 
L 285.507704 437.673904 
L 294.989437 435.795162 
L 313.952904 432.97705 
L 323.434637 392.584111 
L 332.91637 382.251033 
L 342.398103 373.796697 
L 351.879836 366.281732 
L 370.843303 351.251801 
L 380.325036 338.100611 
L 389.806769 326.828163 
L 399.288503 300.525784 
L 408.770236 297.707672 
L 418.251969 287.374595 
L 437.215435 285.495853 
L 446.697169 274.223405 
L 456.178902 269.526552 
L 465.660635 268.587181 
L 484.624102 262.011586 
L 503.587568 261.072215 
L 513.069301 250.739138 
L 522.551034 250.739138 
L 532.032768 243.224172 
L 541.514501 239.46669 
L 550.996234 219.739905 
L 569.959701 218.800535 
L 579.441434 218.800535 
L 588.923167 213.164311 
L 598.4049 212.22494 
L 607.886633 207.528086 
L 617.368367 207.528086 
L 636.331833 207.528086 
L 645.813566 179.346966 
L 655.295299 171.832 
L 674.258766 171.832 
L 683.740499 170.89263 
L 702.703966 170.89263 
L 712.185699 167.135147 
L 731.149165 154.923328 
L 740.630898 153.983958 
L 778.557831 152.105216 
L 788.039565 152.105216 
L 797.521298 150.226475 
L 807.003031 143.65088 
L 816.484764 139.893397 
L 835.448231 139.893397 
L 844.929964 137.075285 
L 854.411697 132.378432 
L 873.375164 132.378432 
L 882.856897 132.378432 
L 901.820363 132.378432 
L 920.78383 122.045354 
L 939.747296 112.651647 
L 949.229029 108.894165 
L 968.192496 108.894165 
L 977.674229 108.894165 
L 987.155962 97.621717 
L 996.637695 93.864234 
L 1015.601162 91.046122 
L 1034.564628 91.046122 
L 1044.046362 78.834303 
L 1053.528095 75.07682 
L 1063.009828 68.501225 
L 1072.491561 59.107519 
L 1081.973294 56.289406 
L 1110.418494 47.83507 
L 1119.900227 44.077588 
" style="fill:none;stroke:#dbcd00;stroke-linecap:square;stroke-width:2;"/>
    <defs>
     <path d="M 0 1.5 
C 0.397805 1.5 0.77937 1.341951 1.06066 1.06066 
C 1.341951 0.77937 1.5 0.397805 1.5 0 
C 1.5 -0.397805 1.341951 -0.77937 1.06066 -1.06066 
C 0.77937 -1.341951 0.397805 -1.5 0 -1.5 
C -0.397805 -1.5 -0.77937 -1.341951 -1.06066 -1.06066 
C -1.341951 -0.77937 -1.5 -0.397805 -1.5 0 
C -1.5 0.397805 -1.341951 0.77937 -1.06066 1.06066 
C -0.77937 1.341951 -0.397805 1.5 0 1.5 
z
" id="me0a5451b73" style="stroke:#dbcd00;"/>
    </defs>
    <g clip-path="url(#p8103409f3f)">
     <use style="fill:#dbcd00;stroke:#dbcd00;" x="105.354773" xlink:href="#me0a5451b73" y="479.945585"/>
     <use style="fill:#dbcd00;stroke:#dbcd00;" x="114.836506" xlink:href="#me0a5451b73" y="479.945585"/>
     <use style="fill:#dbcd00;stroke:#dbcd00;" x="124.318239" xlink:href="#me0a5451b73" y="479.006214"/>
     <use style="fill:#dbcd00;stroke:#dbcd00;" x="133.799972" xlink:href="#me0a5451b73" y="478.066843"/>
     <use style="fill:#dbcd00;stroke:#dbcd00;" x="143.281706" xlink:href="#me0a5451b73" y="478.066843"/>
     <use style="fill:#dbcd00;stroke:#dbcd00;" x="152.763439" xlink:href="#me0a5451b73" y="478.066843"/>
     <use style="fill:#dbcd00;stroke:#dbcd00;" x="162.245172" xlink:href="#me0a5451b73" y="478.066843"/>
     <use style="fill:#dbcd00;stroke:#dbcd00;" x="171.726905" xlink:href="#me0a5451b73" y="478.066843"/>
     <use style="fill:#dbcd00;stroke:#dbcd00;" x="181.208638" xlink:href="#me0a5451b73" y="466.794395"/>
     <use style="fill:#dbcd00;stroke:#dbcd00;" x="190.690372" xlink:href="#me0a5451b73" y="463.036912"/>
     <use style="fill:#dbcd00;stroke:#dbcd00;" x="200.172105" xlink:href="#me0a5451b73" y="462.097542"/>
     <use style="fill:#dbcd00;stroke:#dbcd00;" x="209.653838" xlink:href="#me0a5451b73" y="461.158171"/>
     <use style="fill:#dbcd00;stroke:#dbcd00;" x="219.135571" xlink:href="#me0a5451b73" y="459.27943"/>
     <use style="fill:#dbcd00;stroke:#dbcd00;" x="228.617305" xlink:href="#me0a5451b73" y="458.340059"/>
     <use style="fill:#dbcd00;stroke:#dbcd00;" x="238.099038" xlink:href="#me0a5451b73" y="451.764464"/>
     <use style="fill:#dbcd00;stroke:#dbcd00;" x="247.580771" xlink:href="#me0a5451b73" y="448.006981"/>
     <use style="fill:#dbcd00;stroke:#dbcd00;" x="257.062504" xlink:href="#me0a5451b73" y="445.188869"/>
     <use style="fill:#dbcd00;stroke:#dbcd00;" x="266.544237" xlink:href="#me0a5451b73" y="442.370757"/>
     <use style="fill:#dbcd00;stroke:#dbcd00;" x="276.025971" xlink:href="#me0a5451b73" y="441.431387"/>
     <use style="fill:#dbcd00;stroke:#dbcd00;" x="285.507704" xlink:href="#me0a5451b73" y="437.673904"/>
     <use style="fill:#dbcd00;stroke:#dbcd00;" x="294.989437" xlink:href="#me0a5451b73" y="435.795162"/>
     <use style="fill:#dbcd00;stroke:#dbcd00;" x="313.952904" xlink:href="#me0a5451b73" y="432.97705"/>
     <use style="fill:#dbcd00;stroke:#dbcd00;" x="323.434637" xlink:href="#me0a5451b73" y="392.584111"/>
     <use style="fill:#dbcd00;stroke:#dbcd00;" x="332.91637" xlink:href="#me0a5451b73" y="382.251033"/>
     <use style="fill:#dbcd00;stroke:#dbcd00;" x="342.398103" xlink:href="#me0a5451b73" y="373.796697"/>
     <use style="fill:#dbcd00;stroke:#dbcd00;" x="351.879836" xlink:href="#me0a5451b73" y="366.281732"/>
     <use style="fill:#dbcd00;stroke:#dbcd00;" x="370.843303" xlink:href="#me0a5451b73" y="351.251801"/>
     <use style="fill:#dbcd00;stroke:#dbcd00;" x="380.325036" xlink:href="#me0a5451b73" y="338.100611"/>
     <use style="fill:#dbcd00;stroke:#dbcd00;" x="389.806769" xlink:href="#me0a5451b73" y="326.828163"/>
     <use style="fill:#dbcd00;stroke:#dbcd00;" x="399.288503" xlink:href="#me0a5451b73" y="300.525784"/>
     <use style="fill:#dbcd00;stroke:#dbcd00;" x="408.770236" xlink:href="#me0a5451b73" y="297.707672"/>
     <use style="fill:#dbcd00;stroke:#dbcd00;" x="418.251969" xlink:href="#me0a5451b73" y="287.374595"/>
     <use style="fill:#dbcd00;stroke:#dbcd00;" x="437.215435" xlink:href="#me0a5451b73" y="285.495853"/>
     <use style="fill:#dbcd00;stroke:#dbcd00;" x="446.697169" xlink:href="#me0a5451b73" y="274.223405"/>
     <use style="fill:#dbcd00;stroke:#dbcd00;" x="456.178902" xlink:href="#me0a5451b73" y="269.526552"/>
     <use style="fill:#dbcd00;stroke:#dbcd00;" x="465.660635" xlink:href="#me0a5451b73" y="268.587181"/>
     <use style="fill:#dbcd00;stroke:#dbcd00;" x="484.624102" xlink:href="#me0a5451b73" y="262.011586"/>
     <use style="fill:#dbcd00;stroke:#dbcd00;" x="503.587568" xlink:href="#me0a5451b73" y="261.072215"/>
     <use style="fill:#dbcd00;stroke:#dbcd00;" x="513.069301" xlink:href="#me0a5451b73" y="250.739138"/>
     <use style="fill:#dbcd00;stroke:#dbcd00;" x="522.551034" xlink:href="#me0a5451b73" y="250.739138"/>
     <use style="fill:#dbcd00;stroke:#dbcd00;" x="532.032768" xlink:href="#me0a5451b73" y="243.224172"/>
     <use style="fill:#dbcd00;stroke:#dbcd00;" x="541.514501" xlink:href="#me0a5451b73" y="239.46669"/>
     <use style="fill:#dbcd00;stroke:#dbcd00;" x="550.996234" xlink:href="#me0a5451b73" y="219.739905"/>
     <use style="fill:#dbcd00;stroke:#dbcd00;" x="569.959701" xlink:href="#me0a5451b73" y="218.800535"/>
     <use style="fill:#dbcd00;stroke:#dbcd00;" x="579.441434" xlink:href="#me0a5451b73" y="218.800535"/>
     <use style="fill:#dbcd00;stroke:#dbcd00;" x="588.923167" xlink:href="#me0a5451b73" y="213.164311"/>
     <use style="fill:#dbcd00;stroke:#dbcd00;" x="598.4049" xlink:href="#me0a5451b73" y="212.22494"/>
     <use style="fill:#dbcd00;stroke:#dbcd00;" x="607.886633" xlink:href="#me0a5451b73" y="207.528086"/>
     <use style="fill:#dbcd00;stroke:#dbcd00;" x="617.368367" xlink:href="#me0a5451b73" y="207.528086"/>
     <use style="fill:#dbcd00;stroke:#dbcd00;" x="636.331833" xlink:href="#me0a5451b73" y="207.528086"/>
     <use style="fill:#dbcd00;stroke:#dbcd00;" x="645.813566" xlink:href="#me0a5451b73" y="179.346966"/>
     <use style="fill:#dbcd00;stroke:#dbcd00;" x="655.295299" xlink:href="#me0a5451b73" y="171.832"/>
     <use style="fill:#dbcd00;stroke:#dbcd00;" x="674.258766" xlink:href="#me0a5451b73" y="171.832"/>
     <use style="fill:#dbcd00;stroke:#dbcd00;" x="683.740499" xlink:href="#me0a5451b73" y="170.89263"/>
     <use style="fill:#dbcd00;stroke:#dbcd00;" x="702.703966" xlink:href="#me0a5451b73" y="170.89263"/>
     <use style="fill:#dbcd00;stroke:#dbcd00;" x="712.185699" xlink:href="#me0a5451b73" y="167.135147"/>
     <use style="fill:#dbcd00;stroke:#dbcd00;" x="731.149165" xlink:href="#me0a5451b73" y="154.923328"/>
     <use style="fill:#dbcd00;stroke:#dbcd00;" x="740.630898" xlink:href="#me0a5451b73" y="153.983958"/>
     <use style="fill:#dbcd00;stroke:#dbcd00;" x="778.557831" xlink:href="#me0a5451b73" y="152.105216"/>
     <use style="fill:#dbcd00;stroke:#dbcd00;" x="788.039565" xlink:href="#me0a5451b73" y="152.105216"/>
     <use style="fill:#dbcd00;stroke:#dbcd00;" x="797.521298" xlink:href="#me0a5451b73" y="150.226475"/>
     <use style="fill:#dbcd00;stroke:#dbcd00;" x="807.003031" xlink:href="#me0a5451b73" y="143.65088"/>
     <use style="fill:#dbcd00;stroke:#dbcd00;" x="816.484764" xlink:href="#me0a5451b73" y="139.893397"/>
     <use style="fill:#dbcd00;stroke:#dbcd00;" x="835.448231" xlink:href="#me0a5451b73" y="139.893397"/>
     <use style="fill:#dbcd00;stroke:#dbcd00;" x="844.929964" xlink:href="#me0a5451b73" y="137.075285"/>
     <use style="fill:#dbcd00;stroke:#dbcd00;" x="854.411697" xlink:href="#me0a5451b73" y="132.378432"/>
     <use style="fill:#dbcd00;stroke:#dbcd00;" x="873.375164" xlink:href="#me0a5451b73" y="132.378432"/>
     <use style="fill:#dbcd00;stroke:#dbcd00;" x="882.856897" xlink:href="#me0a5451b73" y="132.378432"/>
     <use style="fill:#dbcd00;stroke:#dbcd00;" x="901.820363" xlink:href="#me0a5451b73" y="132.378432"/>
     <use style="fill:#dbcd00;stroke:#dbcd00;" x="920.78383" xlink:href="#me0a5451b73" y="122.045354"/>
     <use style="fill:#dbcd00;stroke:#dbcd00;" x="939.747296" xlink:href="#me0a5451b73" y="112.651647"/>
     <use style="fill:#dbcd00;stroke:#dbcd00;" x="949.229029" xlink:href="#me0a5451b73" y="108.894165"/>
     <use style="fill:#dbcd00;stroke:#dbcd00;" x="968.192496" xlink:href="#me0a5451b73" y="108.894165"/>
     <use style="fill:#dbcd00;stroke:#dbcd00;" x="977.674229" xlink:href="#me0a5451b73" y="108.894165"/>
     <use style="fill:#dbcd00;stroke:#dbcd00;" x="987.155962" xlink:href="#me0a5451b73" y="97.621717"/>
     <use style="fill:#dbcd00;stroke:#dbcd00;" x="996.637695" xlink:href="#me0a5451b73" y="93.864234"/>
     <use style="fill:#dbcd00;stroke:#dbcd00;" x="1015.601162" xlink:href="#me0a5451b73" y="91.046122"/>
     <use style="fill:#dbcd00;stroke:#dbcd00;" x="1034.564628" xlink:href="#me0a5451b73" y="91.046122"/>
     <use style="fill:#dbcd00;stroke:#dbcd00;" x="1044.046362" xlink:href="#me0a5451b73" y="78.834303"/>
     <use style="fill:#dbcd00;stroke:#dbcd00;" x="1053.528095" xlink:href="#me0a5451b73" y="75.07682"/>
     <use style="fill:#dbcd00;stroke:#dbcd00;" x="1063.009828" xlink:href="#me0a5451b73" y="68.501225"/>
     <use style="fill:#dbcd00;stroke:#dbcd00;" x="1072.491561" xlink:href="#me0a5451b73" y="59.107519"/>
     <use style="fill:#dbcd00;stroke:#dbcd00;" x="1081.973294" xlink:href="#me0a5451b73" y="56.289406"/>
     <use style="fill:#dbcd00;stroke:#dbcd00;" x="1110.418494" xlink:href="#me0a5451b73" y="47.83507"/>
     <use style="fill:#dbcd00;stroke:#dbcd00;" x="1119.900227" xlink:href="#me0a5451b73" y="44.077588"/>
    </g>
   </g>
   <g id="line2d_21">
    <path clip-path="url(#p8103409f3f)" d="M 105.354773 436.734533 
L 114.836506 432.03768 
L 124.318239 427.340826 
L 133.799972 429.219568 
L 143.281706 412.310895 
L 152.763439 404.79593 
L 162.245172 399.159706 
L 171.726905 391.64474 
L 181.208638 390.70537 
L 190.690372 380.372292 
L 200.172105 369.099844 
L 209.653838 355.009284 
L 219.135571 346.554948 
L 228.617305 333.403758 
L 238.099038 333.403758 
L 247.580771 322.13131 
L 257.062504 323.07068 
L 266.544237 312.737603 
L 276.025971 311.798232 
L 285.507704 306.162008 
L 294.989437 308.04075 
L 313.952904 299.586413 
L 323.434637 339.039982 
L 332.91637 347.494318 
L 342.398103 349.37306 
L 351.879836 349.37306 
L 370.843303 388.826628 
L 380.325036 400.099076 
L 389.806769 383.190404 
L 399.288503 403.856559 
L 408.770236 406.674671 
L 418.251969 417.007749 
L 437.215435 418.88649 
L 446.697169 391.64474 
L 456.178902 389.765999 
L 465.660635 388.826628 
L 484.624102 393.523482 
L 503.587568 391.64474 
L 513.069301 401.977818 
L 522.551034 399.159706 
L 532.032768 404.79593 
L 541.514501 402.917189 
L 550.996234 419.825861 
L 569.959701 420.765231 
L 579.441434 418.88649 
L 588.923167 424.522714 
L 598.4049 425.462085 
L 607.886633 424.522714 
L 617.368367 420.765231 
L 636.331833 420.765231 
L 645.813566 433.916421 
L 655.295299 441.431387 
L 674.258766 439.552645 
L 683.740499 435.795162 
L 702.703966 435.795162 
L 712.185699 438.613274 
L 731.149165 446.12824 
L 740.630898 443.310128 
L 778.557831 441.431387 
L 788.039565 436.734533 
L 797.521298 436.734533 
L 807.003031 436.734533 
L 816.484764 432.97705 
L 835.448231 432.97705 
L 844.929964 435.795162 
L 854.411697 430.158938 
L 873.375164 430.158938 
L 882.856897 431.098309 
L 901.820363 431.098309 
L 920.78383 435.795162 
L 939.747296 434.855792 
L 949.229029 425.462085 
L 968.192496 425.462085 
L 977.674229 417.007749 
L 987.155962 421.704602 
L 996.637695 422.643973 
L 1015.601162 414.189637 
L 1034.564628 414.189637 
L 1044.046362 421.704602 
L 1053.528095 426.401456 
L 1063.009828 432.97705 
L 1072.491561 426.401456 
L 1081.973294 428.280197 
L 1110.418494 431.098309 
L 1119.900227 431.098309 
" style="fill:none;stroke:#2792cb;stroke-linecap:square;stroke-width:2;"/>
    <defs>
     <path d="M 0 1.5 
C 0.397805 1.5 0.77937 1.341951 1.06066 1.06066 
C 1.341951 0.77937 1.5 0.397805 1.5 0 
C 1.5 -0.397805 1.341951 -0.77937 1.06066 -1.06066 
C 0.77937 -1.341951 0.397805 -1.5 0 -1.5 
C -0.397805 -1.5 -0.77937 -1.341951 -1.06066 -1.06066 
C -1.341951 -0.77937 -1.5 -0.397805 -1.5 0 
C -1.5 0.397805 -1.341951 0.77937 -1.06066 1.06066 
C -0.77937 1.341951 -0.397805 1.5 0 1.5 
z
" id="m397df87aff" style="stroke:#2792cb;"/>
    </defs>
    <g clip-path="url(#p8103409f3f)">
     <use style="fill:#2792cb;stroke:#2792cb;" x="105.354773" xlink:href="#m397df87aff" y="436.734533"/>
     <use style="fill:#2792cb;stroke:#2792cb;" x="114.836506" xlink:href="#m397df87aff" y="432.03768"/>
     <use style="fill:#2792cb;stroke:#2792cb;" x="124.318239" xlink:href="#m397df87aff" y="427.340826"/>
     <use style="fill:#2792cb;stroke:#2792cb;" x="133.799972" xlink:href="#m397df87aff" y="429.219568"/>
     <use style="fill:#2792cb;stroke:#2792cb;" x="143.281706" xlink:href="#m397df87aff" y="412.310895"/>
     <use style="fill:#2792cb;stroke:#2792cb;" x="152.763439" xlink:href="#m397df87aff" y="404.79593"/>
     <use style="fill:#2792cb;stroke:#2792cb;" x="162.245172" xlink:href="#m397df87aff" y="399.159706"/>
     <use style="fill:#2792cb;stroke:#2792cb;" x="171.726905" xlink:href="#m397df87aff" y="391.64474"/>
     <use style="fill:#2792cb;stroke:#2792cb;" x="181.208638" xlink:href="#m397df87aff" y="390.70537"/>
     <use style="fill:#2792cb;stroke:#2792cb;" x="190.690372" xlink:href="#m397df87aff" y="380.372292"/>
     <use style="fill:#2792cb;stroke:#2792cb;" x="200.172105" xlink:href="#m397df87aff" y="369.099844"/>
     <use style="fill:#2792cb;stroke:#2792cb;" x="209.653838" xlink:href="#m397df87aff" y="355.009284"/>
     <use style="fill:#2792cb;stroke:#2792cb;" x="219.135571" xlink:href="#m397df87aff" y="346.554948"/>
     <use style="fill:#2792cb;stroke:#2792cb;" x="228.617305" xlink:href="#m397df87aff" y="333.403758"/>
     <use style="fill:#2792cb;stroke:#2792cb;" x="238.099038" xlink:href="#m397df87aff" y="333.403758"/>
     <use style="fill:#2792cb;stroke:#2792cb;" x="247.580771" xlink:href="#m397df87aff" y="322.13131"/>
     <use style="fill:#2792cb;stroke:#2792cb;" x="257.062504" xlink:href="#m397df87aff" y="323.07068"/>
     <use style="fill:#2792cb;stroke:#2792cb;" x="266.544237" xlink:href="#m397df87aff" y="312.737603"/>
     <use style="fill:#2792cb;stroke:#2792cb;" x="276.025971" xlink:href="#m397df87aff" y="311.798232"/>
     <use style="fill:#2792cb;stroke:#2792cb;" x="285.507704" xlink:href="#m397df87aff" y="306.162008"/>
     <use style="fill:#2792cb;stroke:#2792cb;" x="294.989437" xlink:href="#m397df87aff" y="308.04075"/>
     <use style="fill:#2792cb;stroke:#2792cb;" x="313.952904" xlink:href="#m397df87aff" y="299.586413"/>
     <use style="fill:#2792cb;stroke:#2792cb;" x="323.434637" xlink:href="#m397df87aff" y="339.039982"/>
     <use style="fill:#2792cb;stroke:#2792cb;" x="332.91637" xlink:href="#m397df87aff" y="347.494318"/>
     <use style="fill:#2792cb;stroke:#2792cb;" x="342.398103" xlink:href="#m397df87aff" y="349.37306"/>
     <use style="fill:#2792cb;stroke:#2792cb;" x="351.879836" xlink:href="#m397df87aff" y="349.37306"/>
     <use style="fill:#2792cb;stroke:#2792cb;" x="370.843303" xlink:href="#m397df87aff" y="388.826628"/>
     <use style="fill:#2792cb;stroke:#2792cb;" x="380.325036" xlink:href="#m397df87aff" y="400.099076"/>
     <use style="fill:#2792cb;stroke:#2792cb;" x="389.806769" xlink:href="#m397df87aff" y="383.190404"/>
     <use style="fill:#2792cb;stroke:#2792cb;" x="399.288503" xlink:href="#m397df87aff" y="403.856559"/>
     <use style="fill:#2792cb;stroke:#2792cb;" x="408.770236" xlink:href="#m397df87aff" y="406.674671"/>
     <use style="fill:#2792cb;stroke:#2792cb;" x="418.251969" xlink:href="#m397df87aff" y="417.007749"/>
     <use style="fill:#2792cb;stroke:#2792cb;" x="437.215435" xlink:href="#m397df87aff" y="418.88649"/>
     <use style="fill:#2792cb;stroke:#2792cb;" x="446.697169" xlink:href="#m397df87aff" y="391.64474"/>
     <use style="fill:#2792cb;stroke:#2792cb;" x="456.178902" xlink:href="#m397df87aff" y="389.765999"/>
     <use style="fill:#2792cb;stroke:#2792cb;" x="465.660635" xlink:href="#m397df87aff" y="388.826628"/>
     <use style="fill:#2792cb;stroke:#2792cb;" x="484.624102" xlink:href="#m397df87aff" y="393.523482"/>
     <use style="fill:#2792cb;stroke:#2792cb;" x="503.587568" xlink:href="#m397df87aff" y="391.64474"/>
     <use style="fill:#2792cb;stroke:#2792cb;" x="513.069301" xlink:href="#m397df87aff" y="401.977818"/>
     <use style="fill:#2792cb;stroke:#2792cb;" x="522.551034" xlink:href="#m397df87aff" y="399.159706"/>
     <use style="fill:#2792cb;stroke:#2792cb;" x="532.032768" xlink:href="#m397df87aff" y="404.79593"/>
     <use style="fill:#2792cb;stroke:#2792cb;" x="541.514501" xlink:href="#m397df87aff" y="402.917189"/>
     <use style="fill:#2792cb;stroke:#2792cb;" x="550.996234" xlink:href="#m397df87aff" y="419.825861"/>
     <use style="fill:#2792cb;stroke:#2792cb;" x="569.959701" xlink:href="#m397df87aff" y="420.765231"/>
     <use style="fill:#2792cb;stroke:#2792cb;" x="579.441434" xlink:href="#m397df87aff" y="418.88649"/>
     <use style="fill:#2792cb;stroke:#2792cb;" x="588.923167" xlink:href="#m397df87aff" y="424.522714"/>
     <use style="fill:#2792cb;stroke:#2792cb;" x="598.4049" xlink:href="#m397df87aff" y="425.462085"/>
     <use style="fill:#2792cb;stroke:#2792cb;" x="607.886633" xlink:href="#m397df87aff" y="424.522714"/>
     <use style="fill:#2792cb;stroke:#2792cb;" x="617.368367" xlink:href="#m397df87aff" y="420.765231"/>
     <use style="fill:#2792cb;stroke:#2792cb;" x="636.331833" xlink:href="#m397df87aff" y="420.765231"/>
     <use style="fill:#2792cb;stroke:#2792cb;" x="645.813566" xlink:href="#m397df87aff" y="433.916421"/>
     <use style="fill:#2792cb;stroke:#2792cb;" x="655.295299" xlink:href="#m397df87aff" y="441.431387"/>
     <use style="fill:#2792cb;stroke:#2792cb;" x="674.258766" xlink:href="#m397df87aff" y="439.552645"/>
     <use style="fill:#2792cb;stroke:#2792cb;" x="683.740499" xlink:href="#m397df87aff" y="435.795162"/>
     <use style="fill:#2792cb;stroke:#2792cb;" x="702.703966" xlink:href="#m397df87aff" y="435.795162"/>
     <use style="fill:#2792cb;stroke:#2792cb;" x="712.185699" xlink:href="#m397df87aff" y="438.613274"/>
     <use style="fill:#2792cb;stroke:#2792cb;" x="731.149165" xlink:href="#m397df87aff" y="446.12824"/>
     <use style="fill:#2792cb;stroke:#2792cb;" x="740.630898" xlink:href="#m397df87aff" y="443.310128"/>
     <use style="fill:#2792cb;stroke:#2792cb;" x="778.557831" xlink:href="#m397df87aff" y="441.431387"/>
     <use style="fill:#2792cb;stroke:#2792cb;" x="788.039565" xlink:href="#m397df87aff" y="436.734533"/>
     <use style="fill:#2792cb;stroke:#2792cb;" x="797.521298" xlink:href="#m397df87aff" y="436.734533"/>
     <use style="fill:#2792cb;stroke:#2792cb;" x="807.003031" xlink:href="#m397df87aff" y="436.734533"/>
     <use style="fill:#2792cb;stroke:#2792cb;" x="816.484764" xlink:href="#m397df87aff" y="432.97705"/>
     <use style="fill:#2792cb;stroke:#2792cb;" x="835.448231" xlink:href="#m397df87aff" y="432.97705"/>
     <use style="fill:#2792cb;stroke:#2792cb;" x="844.929964" xlink:href="#m397df87aff" y="435.795162"/>
     <use style="fill:#2792cb;stroke:#2792cb;" x="854.411697" xlink:href="#m397df87aff" y="430.158938"/>
     <use style="fill:#2792cb;stroke:#2792cb;" x="873.375164" xlink:href="#m397df87aff" y="430.158938"/>
     <use style="fill:#2792cb;stroke:#2792cb;" x="882.856897" xlink:href="#m397df87aff" y="431.098309"/>
     <use style="fill:#2792cb;stroke:#2792cb;" x="901.820363" xlink:href="#m397df87aff" y="431.098309"/>
     <use style="fill:#2792cb;stroke:#2792cb;" x="920.78383" xlink:href="#m397df87aff" y="435.795162"/>
     <use style="fill:#2792cb;stroke:#2792cb;" x="939.747296" xlink:href="#m397df87aff" y="434.855792"/>
     <use style="fill:#2792cb;stroke:#2792cb;" x="949.229029" xlink:href="#m397df87aff" y="425.462085"/>
     <use style="fill:#2792cb;stroke:#2792cb;" x="968.192496" xlink:href="#m397df87aff" y="425.462085"/>
     <use style="fill:#2792cb;stroke:#2792cb;" x="977.674229" xlink:href="#m397df87aff" y="417.007749"/>
     <use style="fill:#2792cb;stroke:#2792cb;" x="987.155962" xlink:href="#m397df87aff" y="421.704602"/>
     <use style="fill:#2792cb;stroke:#2792cb;" x="996.637695" xlink:href="#m397df87aff" y="422.643973"/>
     <use style="fill:#2792cb;stroke:#2792cb;" x="1015.601162" xlink:href="#m397df87aff" y="414.189637"/>
     <use style="fill:#2792cb;stroke:#2792cb;" x="1034.564628" xlink:href="#m397df87aff" y="414.189637"/>
     <use style="fill:#2792cb;stroke:#2792cb;" x="1044.046362" xlink:href="#m397df87aff" y="421.704602"/>
     <use style="fill:#2792cb;stroke:#2792cb;" x="1053.528095" xlink:href="#m397df87aff" y="426.401456"/>
     <use style="fill:#2792cb;stroke:#2792cb;" x="1063.009828" xlink:href="#m397df87aff" y="432.97705"/>
     <use style="fill:#2792cb;stroke:#2792cb;" x="1072.491561" xlink:href="#m397df87aff" y="426.401456"/>
     <use style="fill:#2792cb;stroke:#2792cb;" x="1081.973294" xlink:href="#m397df87aff" y="428.280197"/>
     <use style="fill:#2792cb;stroke:#2792cb;" x="1110.418494" xlink:href="#m397df87aff" y="431.098309"/>
     <use style="fill:#2792cb;stroke:#2792cb;" x="1119.900227" xlink:href="#m397df87aff" y="431.098309"/>
    </g>
   </g>
   <g id="patch_3">
    <path d="M 54.6275 501.738984 
L 1170.6275 501.738984 
" style="fill:none;stroke:#000000;stroke-linecap:square;stroke-linejoin:miter;stroke-width:0.8;"/>
   </g>
   <g id="legend_1">
    <g id="line2d_22">
     <path d="M 63.6275 25.237422 
L 83.6275 25.237422 
" style="fill:none;stroke:#dbcd00;stroke-linecap:square;stroke-width:2;"/>
    </g>
    <g id="line2d_23">
     <g>
      <use style="fill:#dbcd00;stroke:#dbcd00;" x="73.6275" xlink:href="#me0a5451b73" y="25.237422"/>
     </g>
    </g>
    <g id="text_15">
     <!-- Genesene -->
     <defs>
      <path d="M 59.515625 10.40625 
L 59.515625 29.984375 
L 43.40625 29.984375 
L 43.40625 38.09375 
L 69.28125 38.09375 
L 69.28125 6.78125 
Q 63.578125 2.734375 56.6875 0.65625 
Q 49.8125 -1.421875 42 -1.421875 
Q 24.90625 -1.421875 15.25 8.5625 
Q 5.609375 18.5625 5.609375 36.375 
Q 5.609375 54.25 15.25 64.234375 
Q 24.90625 74.21875 42 74.21875 
Q 49.125 74.21875 55.546875 72.453125 
Q 61.96875 70.703125 67.390625 67.28125 
L 67.390625 56.78125 
Q 61.921875 61.421875 55.765625 63.765625 
Q 49.609375 66.109375 42.828125 66.109375 
Q 29.4375 66.109375 22.71875 58.640625 
Q 16.015625 51.171875 16.015625 36.375 
Q 16.015625 21.625 22.71875 14.15625 
Q 29.4375 6.6875 42.828125 6.6875 
Q 48.046875 6.6875 52.140625 7.59375 
Q 56.25 8.5 59.515625 10.40625 
z
" id="DejaVuSans-71"/>
      <path d="M 44.28125 53.078125 
L 44.28125 44.578125 
Q 40.484375 46.53125 36.375 47.5 
Q 32.28125 48.484375 27.875 48.484375 
Q 21.1875 48.484375 17.84375 46.4375 
Q 14.5 44.390625 14.5 40.28125 
Q 14.5 37.15625 16.890625 35.375 
Q 19.28125 33.59375 26.515625 31.984375 
L 29.59375 31.296875 
Q 39.15625 29.25 43.1875 25.515625 
Q 47.21875 21.78125 47.21875 15.09375 
Q 47.21875 7.46875 41.1875 3.015625 
Q 35.15625 -1.421875 24.609375 -1.421875 
Q 20.21875 -1.421875 15.453125 -0.5625 
Q 10.6875 0.296875 5.421875 2 
L 5.421875 11.28125 
Q 10.40625 8.6875 15.234375 7.390625 
Q 20.0625 6.109375 24.8125 6.109375 
Q 31.15625 6.109375 34.5625 8.28125 
Q 37.984375 10.453125 37.984375 14.40625 
Q 37.984375 18.0625 35.515625 20.015625 
Q 33.0625 21.96875 24.703125 23.78125 
L 21.578125 24.515625 
Q 13.234375 26.265625 9.515625 29.90625 
Q 5.8125 33.546875 5.8125 39.890625 
Q 5.8125 47.609375 11.28125 51.796875 
Q 16.75 56 26.8125 56 
Q 31.78125 56 36.171875 55.265625 
Q 40.578125 54.546875 44.28125 53.078125 
z
" id="DejaVuSans-115"/>
     </defs>
     <g transform="translate(91.6275 28.737422)scale(0.1 -0.1)">
      <use xlink:href="#DejaVuSans-71"/>
      <use x="77.490234" xlink:href="#DejaVuSans-101"/>
      <use x="139.013672" xlink:href="#DejaVuSans-110"/>
      <use x="202.392578" xlink:href="#DejaVuSans-101"/>
      <use x="263.916016" xlink:href="#DejaVuSans-115"/>
      <use x="316.015625" xlink:href="#DejaVuSans-101"/>
      <use x="377.539062" xlink:href="#DejaVuSans-110"/>
      <use x="440.917969" xlink:href="#DejaVuSans-101"/>
     </g>
    </g>
    <g id="line2d_24">
     <path d="M 63.6275 39.915547 
L 83.6275 39.915547 
" style="fill:none;stroke:#2792cb;stroke-linecap:square;stroke-width:2;"/>
    </g>
    <g id="line2d_25">
     <g>
      <use style="fill:#2792cb;stroke:#2792cb;" x="73.6275" xlink:href="#m397df87aff" y="39.915547"/>
     </g>
    </g>
    <g id="text_16">
     <!-- Erkrankte -->
     <defs>
      <path d="M 9.8125 72.90625 
L 55.90625 72.90625 
L 55.90625 64.59375 
L 19.671875 64.59375 
L 19.671875 43.015625 
L 54.390625 43.015625 
L 54.390625 34.71875 
L 19.671875 34.71875 
L 19.671875 8.296875 
L 56.78125 8.296875 
L 56.78125 0 
L 9.8125 0 
z
" id="DejaVuSans-69"/>
      <path d="M 41.109375 46.296875 
Q 39.59375 47.171875 37.8125 47.578125 
Q 36.03125 48 33.890625 48 
Q 26.265625 48 22.1875 43.046875 
Q 18.109375 38.09375 18.109375 28.8125 
L 18.109375 0 
L 9.078125 0 
L 9.078125 54.6875 
L 18.109375 54.6875 
L 18.109375 46.1875 
Q 20.953125 51.171875 25.484375 53.578125 
Q 30.03125 56 36.53125 56 
Q 37.453125 56 38.578125 55.875 
Q 39.703125 55.765625 41.0625 55.515625 
z
" id="DejaVuSans-114"/>
      <path d="M 9.078125 75.984375 
L 18.109375 75.984375 
L 18.109375 31.109375 
L 44.921875 54.6875 
L 56.390625 54.6875 
L 27.390625 29.109375 
L 57.625 0 
L 45.90625 0 
L 18.109375 26.703125 
L 18.109375 0 
L 9.078125 0 
z
" id="DejaVuSans-107"/>
      <path d="M 18.3125 70.21875 
L 18.3125 54.6875 
L 36.8125 54.6875 
L 36.8125 47.703125 
L 18.3125 47.703125 
L 18.3125 18.015625 
Q 18.3125 11.328125 20.140625 9.421875 
Q 21.96875 7.515625 27.59375 7.515625 
L 36.8125 7.515625 
L 36.8125 0 
L 27.59375 0 
Q 17.1875 0 13.234375 3.875 
Q 9.28125 7.765625 9.28125 18.015625 
L 9.28125 47.703125 
L 2.6875 47.703125 
L 2.6875 54.6875 
L 9.28125 54.6875 
L 9.28125 70.21875 
z
" id="DejaVuSans-116"/>
     </defs>
     <g transform="translate(91.6275 43.415547)scale(0.1 -0.1)">
      <use xlink:href="#DejaVuSans-69"/>
      <use x="63.183594" xlink:href="#DejaVuSans-114"/>
      <use x="104.296875" xlink:href="#DejaVuSans-107"/>
      <use x="162.207031" xlink:href="#DejaVuSans-114"/>
      <use x="203.320312" xlink:href="#DejaVuSans-97"/>
      <use x="264.599609" xlink:href="#DejaVuSans-110"/>
      <use x="327.978516" xlink:href="#DejaVuSans-107"/>
      <use x="385.888672" xlink:href="#DejaVuSans-116"/>
      <use x="425.097656" xlink:href="#DejaVuSans-101"/>
     </g>
    </g>
   </g>
  </g>
 </g>
 <defs>
  <clipPath id="p8103409f3f">
   <rect height="489.6" width="1116" x="54.6275" y="12.138984"/>
  </clipPath>
 </defs>
</svg>
