<?xml version="1.0" encoding="utf-8" standalone="no"?>
<!DOCTYPE svg PUBLIC "-//W3C//DTD SVG 1.1//EN"
  "http://www.w3.org/Graphics/SVG/1.1/DTD/svg11.dtd">
<!-- Created with matplotlib (https://matplotlib.org/) -->
<svg height="563.550353pt" version="1.1" viewBox="0 0 1177.8275 563.550353" width="1177.8275pt" xmlns="http://www.w3.org/2000/svg" xmlns:xlink="http://www.w3.org/1999/xlink">
 <defs>
  <style type="text/css">
*{stroke-linecap:butt;stroke-linejoin:round;}
  </style>
 </defs>
 <g id="figure_1">
  <g id="patch_1">
   <path d="M 0 563.550353 
L 1177.8275 563.550353 
L 1177.8275 0 
L 0 0 
z
" style="fill:#ffffff;"/>
  </g>
  <g id="axes_1">
   <g id="patch_2">
    <path d="M 54.6275 500.679244 
L 1170.6275 500.679244 
L 1170.6275 11.079244 
L 54.6275 11.079244 
z
" style="fill:#ffffff;"/>
   </g>
   <g id="matplotlib.axis_1">
    <g id="xtick_1">
     <g id="line2d_1">
      <defs>
       <path d="M 0 0 
L 0 3.5 
" id="mf181e807c4" style="stroke:#000000;stroke-width:0.8;"/>
      </defs>
      <g>
       <use style="stroke:#000000;stroke-width:0.8;" x="222.41771" xlink:href="#mf181e807c4" y="500.679244"/>
      </g>
     </g>
     <g id="text_1">
      <!-- 2020-04-01 -->
      <defs>
       <path d="M 19.1875 8.296875 
L 53.609375 8.296875 
L 53.609375 0 
L 7.328125 0 
L 7.328125 8.296875 
Q 12.9375 14.109375 22.625 23.890625 
Q 32.328125 33.6875 34.8125 36.53125 
Q 39.546875 41.84375 41.421875 45.53125 
Q 43.3125 49.21875 43.3125 52.78125 
Q 43.3125 58.59375 39.234375 62.25 
Q 35.15625 65.921875 28.609375 65.921875 
Q 23.96875 65.921875 18.8125 64.3125 
Q 13.671875 62.703125 7.8125 59.421875 
L 7.8125 69.390625 
Q 13.765625 71.78125 18.9375 73 
Q 24.125 74.21875 28.421875 74.21875 
Q 39.75 74.21875 46.484375 68.546875 
Q 53.21875 62.890625 53.21875 53.421875 
Q 53.21875 48.921875 51.53125 44.890625 
Q 49.859375 40.875 45.40625 35.40625 
Q 44.1875 33.984375 37.640625 27.21875 
Q 31.109375 20.453125 19.1875 8.296875 
z
" id="DejaVuSans-50"/>
       <path d="M 31.78125 66.40625 
Q 24.171875 66.40625 20.328125 58.90625 
Q 16.5 51.421875 16.5 36.375 
Q 16.5 21.390625 20.328125 13.890625 
Q 24.171875 6.390625 31.78125 6.390625 
Q 39.453125 6.390625 43.28125 13.890625 
Q 47.125 21.390625 47.125 36.375 
Q 47.125 51.421875 43.28125 58.90625 
Q 39.453125 66.40625 31.78125 66.40625 
z
M 31.78125 74.21875 
Q 44.046875 74.21875 50.515625 64.515625 
Q 56.984375 54.828125 56.984375 36.375 
Q 56.984375 17.96875 50.515625 8.265625 
Q 44.046875 -1.421875 31.78125 -1.421875 
Q 19.53125 -1.421875 13.0625 8.265625 
Q 6.59375 17.96875 6.59375 36.375 
Q 6.59375 54.828125 13.0625 64.515625 
Q 19.53125 74.21875 31.78125 74.21875 
z
" id="DejaVuSans-48"/>
       <path d="M 4.890625 31.390625 
L 31.203125 31.390625 
L 31.203125 23.390625 
L 4.890625 23.390625 
z
" id="DejaVuSans-45"/>
       <path d="M 37.796875 64.3125 
L 12.890625 25.390625 
L 37.796875 25.390625 
z
M 35.203125 72.90625 
L 47.609375 72.90625 
L 47.609375 25.390625 
L 58.015625 25.390625 
L 58.015625 17.1875 
L 47.609375 17.1875 
L 47.609375 0 
L 37.796875 0 
L 37.796875 17.1875 
L 4.890625 17.1875 
L 4.890625 26.703125 
z
" id="DejaVuSans-52"/>
       <path d="M 12.40625 8.296875 
L 28.515625 8.296875 
L 28.515625 63.921875 
L 10.984375 60.40625 
L 10.984375 69.390625 
L 28.421875 72.90625 
L 38.28125 72.90625 
L 38.28125 8.296875 
L 54.390625 8.296875 
L 54.390625 0 
L 12.40625 0 
z
" id="DejaVuSans-49"/>
      </defs>
      <g transform="translate(155.637423 554.008972)rotate(-30)scale(0.13 -0.13)">
       <use xlink:href="#DejaVuSans-50"/>
       <use x="63.623047" xlink:href="#DejaVuSans-48"/>
       <use x="127.246094" xlink:href="#DejaVuSans-50"/>
       <use x="190.869141" xlink:href="#DejaVuSans-48"/>
       <use x="254.492188" xlink:href="#DejaVuSans-45"/>
       <use x="290.576172" xlink:href="#DejaVuSans-48"/>
       <use x="354.199219" xlink:href="#DejaVuSans-52"/>
       <use x="417.822266" xlink:href="#DejaVuSans-45"/>
       <use x="453.90625" xlink:href="#DejaVuSans-48"/>
       <use x="517.529297" xlink:href="#DejaVuSans-49"/>
      </g>
     </g>
    </g>
    <g id="xtick_2">
     <g id="line2d_2">
      <g>
       <use style="stroke:#000000;stroke-width:0.8;" x="404.515612" xlink:href="#mf181e807c4" y="500.679244"/>
      </g>
     </g>
     <g id="text_2">
      <!-- 2020-04-15 -->
      <defs>
       <path d="M 10.796875 72.90625 
L 49.515625 72.90625 
L 49.515625 64.59375 
L 19.828125 64.59375 
L 19.828125 46.734375 
Q 21.96875 47.46875 24.109375 47.828125 
Q 26.265625 48.1875 28.421875 48.1875 
Q 40.625 48.1875 47.75 41.5 
Q 54.890625 34.8125 54.890625 23.390625 
Q 54.890625 11.625 47.5625 5.09375 
Q 40.234375 -1.421875 26.90625 -1.421875 
Q 22.3125 -1.421875 17.546875 -0.640625 
Q 12.796875 0.140625 7.71875 1.703125 
L 7.71875 11.625 
Q 12.109375 9.234375 16.796875 8.0625 
Q 21.484375 6.890625 26.703125 6.890625 
Q 35.15625 6.890625 40.078125 11.328125 
Q 45.015625 15.765625 45.015625 23.390625 
Q 45.015625 31 40.078125 35.4375 
Q 35.15625 39.890625 26.703125 39.890625 
Q 22.75 39.890625 18.8125 39.015625 
Q 14.890625 38.140625 10.796875 36.28125 
z
" id="DejaVuSans-53"/>
      </defs>
      <g transform="translate(337.735325 554.008972)rotate(-30)scale(0.13 -0.13)">
       <use xlink:href="#DejaVuSans-50"/>
       <use x="63.623047" xlink:href="#DejaVuSans-48"/>
       <use x="127.246094" xlink:href="#DejaVuSans-50"/>
       <use x="190.869141" xlink:href="#DejaVuSans-48"/>
       <use x="254.492188" xlink:href="#DejaVuSans-45"/>
       <use x="290.576172" xlink:href="#DejaVuSans-48"/>
       <use x="354.199219" xlink:href="#DejaVuSans-52"/>
       <use x="417.822266" xlink:href="#DejaVuSans-45"/>
       <use x="453.90625" xlink:href="#DejaVuSans-49"/>
       <use x="517.529297" xlink:href="#DejaVuSans-53"/>
      </g>
     </g>
    </g>
    <g id="xtick_3">
     <g id="line2d_3">
      <g>
       <use style="stroke:#000000;stroke-width:0.8;" x="612.6275" xlink:href="#mf181e807c4" y="500.679244"/>
      </g>
     </g>
     <g id="text_3">
      <!-- 2020-05-01 -->
      <g transform="translate(545.847213 554.008972)rotate(-30)scale(0.13 -0.13)">
       <use xlink:href="#DejaVuSans-50"/>
       <use x="63.623047" xlink:href="#DejaVuSans-48"/>
       <use x="127.246094" xlink:href="#DejaVuSans-50"/>
       <use x="190.869141" xlink:href="#DejaVuSans-48"/>
       <use x="254.492188" xlink:href="#DejaVuSans-45"/>
       <use x="290.576172" xlink:href="#DejaVuSans-48"/>
       <use x="354.199219" xlink:href="#DejaVuSans-53"/>
       <use x="417.822266" xlink:href="#DejaVuSans-45"/>
       <use x="453.90625" xlink:href="#DejaVuSans-48"/>
       <use x="517.529297" xlink:href="#DejaVuSans-49"/>
      </g>
     </g>
    </g>
    <g id="xtick_4">
     <g id="line2d_4">
      <g>
       <use style="stroke:#000000;stroke-width:0.8;" x="794.725402" xlink:href="#mf181e807c4" y="500.679244"/>
      </g>
     </g>
     <g id="text_4">
      <!-- 2020-05-15 -->
      <g transform="translate(727.945115 554.008972)rotate(-30)scale(0.13 -0.13)">
       <use xlink:href="#DejaVuSans-50"/>
       <use x="63.623047" xlink:href="#DejaVuSans-48"/>
       <use x="127.246094" xlink:href="#DejaVuSans-50"/>
       <use x="190.869141" xlink:href="#DejaVuSans-48"/>
       <use x="254.492188" xlink:href="#DejaVuSans-45"/>
       <use x="290.576172" xlink:href="#DejaVuSans-48"/>
       <use x="354.199219" xlink:href="#DejaVuSans-53"/>
       <use x="417.822266" xlink:href="#DejaVuSans-45"/>
       <use x="453.90625" xlink:href="#DejaVuSans-49"/>
       <use x="517.529297" xlink:href="#DejaVuSans-53"/>
      </g>
     </g>
    </g>
    <g id="xtick_5">
     <g id="line2d_5">
      <g>
       <use style="stroke:#000000;stroke-width:0.8;" x="1015.844283" xlink:href="#mf181e807c4" y="500.679244"/>
      </g>
     </g>
     <g id="text_5">
      <!-- 2020-06-01 -->
      <defs>
       <path d="M 33.015625 40.375 
Q 26.375 40.375 22.484375 35.828125 
Q 18.609375 31.296875 18.609375 23.390625 
Q 18.609375 15.53125 22.484375 10.953125 
Q 26.375 6.390625 33.015625 6.390625 
Q 39.65625 6.390625 43.53125 10.953125 
Q 47.40625 15.53125 47.40625 23.390625 
Q 47.40625 31.296875 43.53125 35.828125 
Q 39.65625 40.375 33.015625 40.375 
z
M 52.59375 71.296875 
L 52.59375 62.3125 
Q 48.875 64.0625 45.09375 64.984375 
Q 41.3125 65.921875 37.59375 65.921875 
Q 27.828125 65.921875 22.671875 59.328125 
Q 17.53125 52.734375 16.796875 39.40625 
Q 19.671875 43.65625 24.015625 45.921875 
Q 28.375 48.1875 33.59375 48.1875 
Q 44.578125 48.1875 50.953125 41.515625 
Q 57.328125 34.859375 57.328125 23.390625 
Q 57.328125 12.15625 50.6875 5.359375 
Q 44.046875 -1.421875 33.015625 -1.421875 
Q 20.359375 -1.421875 13.671875 8.265625 
Q 6.984375 17.96875 6.984375 36.375 
Q 6.984375 53.65625 15.1875 63.9375 
Q 23.390625 74.21875 37.203125 74.21875 
Q 40.921875 74.21875 44.703125 73.484375 
Q 48.484375 72.75 52.59375 71.296875 
z
" id="DejaVuSans-54"/>
      </defs>
      <g transform="translate(949.063996 554.008972)rotate(-30)scale(0.13 -0.13)">
       <use xlink:href="#DejaVuSans-50"/>
       <use x="63.623047" xlink:href="#DejaVuSans-48"/>
       <use x="127.246094" xlink:href="#DejaVuSans-50"/>
       <use x="190.869141" xlink:href="#DejaVuSans-48"/>
       <use x="254.492188" xlink:href="#DejaVuSans-45"/>
       <use x="290.576172" xlink:href="#DejaVuSans-48"/>
       <use x="354.199219" xlink:href="#DejaVuSans-54"/>
       <use x="417.822266" xlink:href="#DejaVuSans-45"/>
       <use x="453.90625" xlink:href="#DejaVuSans-48"/>
       <use x="517.529297" xlink:href="#DejaVuSans-49"/>
      </g>
     </g>
    </g>
   </g>
   <g id="matplotlib.axis_2">
    <g id="ytick_1">
     <g id="line2d_6">
      <path clip-path="url(#p874a6c0b8f)" d="M 54.6275 483.134655 
L 1170.6275 483.134655 
" style="fill:none;stroke:#b0b0b0;stroke-linecap:square;stroke-width:0.8;"/>
     </g>
     <g id="line2d_7">
      <defs>
       <path d="M 0 0 
L -3.5 0 
" id="m0ad9d3c7be" style="stroke:#000000;stroke-width:0.8;"/>
      </defs>
      <g>
       <use style="stroke:#000000;stroke-width:0.8;" x="54.6275" xlink:href="#m0ad9d3c7be" y="483.134655"/>
      </g>
     </g>
     <g id="text_6">
      <!-- 0 -->
      <g transform="translate(39.35625 488.07364)scale(0.13 -0.13)">
       <use xlink:href="#DejaVuSans-48"/>
      </g>
     </g>
    </g>
    <g id="ytick_2">
     <g id="line2d_8">
      <path clip-path="url(#p874a6c0b8f)" d="M 54.6275 247.63682 
L 1170.6275 247.63682 
" style="fill:none;stroke:#b0b0b0;stroke-linecap:square;stroke-width:0.8;"/>
     </g>
     <g id="line2d_9">
      <g>
       <use style="stroke:#000000;stroke-width:0.8;" x="54.6275" xlink:href="#m0ad9d3c7be" y="247.63682"/>
      </g>
     </g>
     <g id="text_7">
      <!-- 100 -->
      <g transform="translate(22.81375 252.575804)scale(0.13 -0.13)">
       <use xlink:href="#DejaVuSans-49"/>
       <use x="63.623047" xlink:href="#DejaVuSans-48"/>
       <use x="127.246094" xlink:href="#DejaVuSans-48"/>
      </g>
     </g>
    </g>
    <g id="ytick_3">
     <g id="line2d_10">
      <path clip-path="url(#p874a6c0b8f)" d="M 54.6275 12.138984 
L 1170.6275 12.138984 
" style="fill:none;stroke:#b0b0b0;stroke-linecap:square;stroke-width:0.8;"/>
     </g>
     <g id="line2d_11">
      <g>
       <use style="stroke:#000000;stroke-width:0.8;" x="54.6275" xlink:href="#m0ad9d3c7be" y="12.138984"/>
      </g>
     </g>
     <g id="text_8">
      <!-- 200 -->
      <g transform="translate(22.81375 17.077969)scale(0.13 -0.13)">
       <use xlink:href="#DejaVuSans-50"/>
       <use x="63.623047" xlink:href="#DejaVuSans-48"/>
       <use x="127.246094" xlink:href="#DejaVuSans-48"/>
      </g>
     </g>
    </g>
    <g id="text_9">
     <!-- Anzahl von Fällen -->
     <defs>
      <path d="M 34.1875 63.1875 
L 20.796875 26.90625 
L 47.609375 26.90625 
z
M 28.609375 72.90625 
L 39.796875 72.90625 
L 67.578125 0 
L 57.328125 0 
L 50.6875 18.703125 
L 17.828125 18.703125 
L 11.1875 0 
L 0.78125 0 
z
" id="DejaVuSans-65"/>
      <path d="M 54.890625 33.015625 
L 54.890625 0 
L 45.90625 0 
L 45.90625 32.71875 
Q 45.90625 40.484375 42.875 44.328125 
Q 39.84375 48.1875 33.796875 48.1875 
Q 26.515625 48.1875 22.3125 43.546875 
Q 18.109375 38.921875 18.109375 30.90625 
L 18.109375 0 
L 9.078125 0 
L 9.078125 54.6875 
L 18.109375 54.6875 
L 18.109375 46.1875 
Q 21.34375 51.125 25.703125 53.5625 
Q 30.078125 56 35.796875 56 
Q 45.21875 56 50.046875 50.171875 
Q 54.890625 44.34375 54.890625 33.015625 
z
" id="DejaVuSans-110"/>
      <path d="M 5.515625 54.6875 
L 48.1875 54.6875 
L 48.1875 46.484375 
L 14.40625 7.171875 
L 48.1875 7.171875 
L 48.1875 0 
L 4.296875 0 
L 4.296875 8.203125 
L 38.09375 47.515625 
L 5.515625 47.515625 
z
" id="DejaVuSans-122"/>
      <path d="M 34.28125 27.484375 
Q 23.390625 27.484375 19.1875 25 
Q 14.984375 22.515625 14.984375 16.5 
Q 14.984375 11.71875 18.140625 8.90625 
Q 21.296875 6.109375 26.703125 6.109375 
Q 34.1875 6.109375 38.703125 11.40625 
Q 43.21875 16.703125 43.21875 25.484375 
L 43.21875 27.484375 
z
M 52.203125 31.203125 
L 52.203125 0 
L 43.21875 0 
L 43.21875 8.296875 
Q 40.140625 3.328125 35.546875 0.953125 
Q 30.953125 -1.421875 24.3125 -1.421875 
Q 15.921875 -1.421875 10.953125 3.296875 
Q 6 8.015625 6 15.921875 
Q 6 25.140625 12.171875 29.828125 
Q 18.359375 34.515625 30.609375 34.515625 
L 43.21875 34.515625 
L 43.21875 35.40625 
Q 43.21875 41.609375 39.140625 45 
Q 35.0625 48.390625 27.6875 48.390625 
Q 23 48.390625 18.546875 47.265625 
Q 14.109375 46.140625 10.015625 43.890625 
L 10.015625 52.203125 
Q 14.9375 54.109375 19.578125 55.046875 
Q 24.21875 56 28.609375 56 
Q 40.484375 56 46.34375 49.84375 
Q 52.203125 43.703125 52.203125 31.203125 
z
" id="DejaVuSans-97"/>
      <path d="M 54.890625 33.015625 
L 54.890625 0 
L 45.90625 0 
L 45.90625 32.71875 
Q 45.90625 40.484375 42.875 44.328125 
Q 39.84375 48.1875 33.796875 48.1875 
Q 26.515625 48.1875 22.3125 43.546875 
Q 18.109375 38.921875 18.109375 30.90625 
L 18.109375 0 
L 9.078125 0 
L 9.078125 75.984375 
L 18.109375 75.984375 
L 18.109375 46.1875 
Q 21.34375 51.125 25.703125 53.5625 
Q 30.078125 56 35.796875 56 
Q 45.21875 56 50.046875 50.171875 
Q 54.890625 44.34375 54.890625 33.015625 
z
" id="DejaVuSans-104"/>
      <path d="M 9.421875 75.984375 
L 18.40625 75.984375 
L 18.40625 0 
L 9.421875 0 
z
" id="DejaVuSans-108"/>
      <path id="DejaVuSans-32"/>
      <path d="M 2.984375 54.6875 
L 12.5 54.6875 
L 29.59375 8.796875 
L 46.6875 54.6875 
L 56.203125 54.6875 
L 35.6875 0 
L 23.484375 0 
z
" id="DejaVuSans-118"/>
      <path d="M 30.609375 48.390625 
Q 23.390625 48.390625 19.1875 42.75 
Q 14.984375 37.109375 14.984375 27.296875 
Q 14.984375 17.484375 19.15625 11.84375 
Q 23.34375 6.203125 30.609375 6.203125 
Q 37.796875 6.203125 41.984375 11.859375 
Q 46.1875 17.53125 46.1875 27.296875 
Q 46.1875 37.015625 41.984375 42.703125 
Q 37.796875 48.390625 30.609375 48.390625 
z
M 30.609375 56 
Q 42.328125 56 49.015625 48.375 
Q 55.71875 40.765625 55.71875 27.296875 
Q 55.71875 13.875 49.015625 6.21875 
Q 42.328125 -1.421875 30.609375 -1.421875 
Q 18.84375 -1.421875 12.171875 6.21875 
Q 5.515625 13.875 5.515625 27.296875 
Q 5.515625 40.765625 12.171875 48.375 
Q 18.84375 56 30.609375 56 
z
" id="DejaVuSans-111"/>
      <path d="M 9.8125 72.90625 
L 51.703125 72.90625 
L 51.703125 64.59375 
L 19.671875 64.59375 
L 19.671875 43.109375 
L 48.578125 43.109375 
L 48.578125 34.8125 
L 19.671875 34.8125 
L 19.671875 0 
L 9.8125 0 
z
" id="DejaVuSans-70"/>
      <path d="M 34.28125 27.484375 
Q 23.390625 27.484375 19.1875 25 
Q 14.984375 22.515625 14.984375 16.5 
Q 14.984375 11.71875 18.140625 8.90625 
Q 21.296875 6.109375 26.703125 6.109375 
Q 34.1875 6.109375 38.703125 11.40625 
Q 43.21875 16.703125 43.21875 25.484375 
L 43.21875 27.484375 
z
M 52.203125 31.203125 
L 52.203125 0 
L 43.21875 0 
L 43.21875 8.296875 
Q 40.140625 3.328125 35.546875 0.953125 
Q 30.953125 -1.421875 24.3125 -1.421875 
Q 15.921875 -1.421875 10.953125 3.296875 
Q 6 8.015625 6 15.921875 
Q 6 25.140625 12.171875 29.828125 
Q 18.359375 34.515625 30.609375 34.515625 
L 43.21875 34.515625 
L 43.21875 35.40625 
Q 43.21875 41.609375 39.140625 45 
Q 35.0625 48.390625 27.6875 48.390625 
Q 23 48.390625 18.546875 47.265625 
Q 14.109375 46.140625 10.015625 43.890625 
L 10.015625 52.203125 
Q 14.9375 54.109375 19.578125 55.046875 
Q 24.21875 56 28.609375 56 
Q 40.484375 56 46.34375 49.84375 
Q 52.203125 43.703125 52.203125 31.203125 
z
M 33.59375 75.78125 
L 43.5 75.78125 
L 43.5 65.921875 
L 33.59375 65.921875 
z
M 14.5 75.78125 
L 24.40625 75.78125 
L 24.40625 65.921875 
L 14.5 65.921875 
z
" id="DejaVuSans-228"/>
      <path d="M 56.203125 29.59375 
L 56.203125 25.203125 
L 14.890625 25.203125 
Q 15.484375 15.921875 20.484375 11.0625 
Q 25.484375 6.203125 34.421875 6.203125 
Q 39.59375 6.203125 44.453125 7.46875 
Q 49.3125 8.734375 54.109375 11.28125 
L 54.109375 2.78125 
Q 49.265625 0.734375 44.1875 -0.34375 
Q 39.109375 -1.421875 33.890625 -1.421875 
Q 20.796875 -1.421875 13.15625 6.1875 
Q 5.515625 13.8125 5.515625 26.8125 
Q 5.515625 40.234375 12.765625 48.109375 
Q 20.015625 56 32.328125 56 
Q 43.359375 56 49.78125 48.890625 
Q 56.203125 41.796875 56.203125 29.59375 
z
M 47.21875 32.234375 
Q 47.125 39.59375 43.09375 43.984375 
Q 39.0625 48.390625 32.421875 48.390625 
Q 24.90625 48.390625 20.390625 44.140625 
Q 15.875 39.890625 15.1875 32.171875 
z
" id="DejaVuSans-101"/>
     </defs>
     <g transform="translate(16.318125 308.328619)rotate(-90)scale(0.12 -0.12)">
      <use xlink:href="#DejaVuSans-65"/>
      <use x="68.408203" xlink:href="#DejaVuSans-110"/>
      <use x="131.787109" xlink:href="#DejaVuSans-122"/>
      <use x="184.277344" xlink:href="#DejaVuSans-97"/>
      <use x="245.556641" xlink:href="#DejaVuSans-104"/>
      <use x="308.935547" xlink:href="#DejaVuSans-108"/>
      <use x="336.71875" xlink:href="#DejaVuSans-32"/>
      <use x="368.505859" xlink:href="#DejaVuSans-118"/>
      <use x="427.685547" xlink:href="#DejaVuSans-111"/>
      <use x="488.867188" xlink:href="#DejaVuSans-110"/>
      <use x="552.246094" xlink:href="#DejaVuSans-32"/>
      <use x="584.033203" xlink:href="#DejaVuSans-70"/>
      <use x="632.427734" xlink:href="#DejaVuSans-228"/>
      <use x="693.707031" xlink:href="#DejaVuSans-108"/>
      <use x="721.490234" xlink:href="#DejaVuSans-108"/>
      <use x="749.273438" xlink:href="#DejaVuSans-101"/>
      <use x="810.796875" xlink:href="#DejaVuSans-110"/>
     </g>
    </g>
   </g>
   <g id="line2d_12">
    <path clip-path="url(#p874a6c0b8f)" d="M 105.354773 478.424699 
L 118.361766 478.424699 
L 131.368759 478.424699 
L 144.375752 471.359764 
L 157.382745 471.359764 
L 170.389738 459.584872 
L 183.396731 459.584872 
L 196.403724 459.584872 
L 209.410717 459.584872 
L 222.41771 457.229893 
L 235.424703 450.164958 
L 248.431696 433.68011 
L 261.438689 421.905218 
L 274.445682 421.905218 
L 287.452675 419.55024 
L 300.459668 419.55024 
L 313.466661 412.485305 
L 326.473654 407.775348 
L 339.480647 396.000456 
L 365.494633 391.2905 
L 391.508619 381.870586 
L 404.515612 379.515608 
L 417.522605 379.515608 
L 430.529598 363.030759 
L 443.536591 363.030759 
L 469.550577 351.255867 
L 482.55757 344.190932 
L 495.564563 337.125997 
L 508.571556 320.641149 
L 521.578549 318.286171 
L 534.585542 315.931192 
L 560.599528 294.736387 
L 573.606521 280.606517 
L 586.613514 273.541582 
L 599.620507 259.411712 
L 625.634493 252.346777 
L 651.648479 233.50695 
L 664.655472 221.732058 
L 677.662465 214.667123 
L 690.669458 202.892231 
L 703.676451 200.537253 
L 716.683444 184.052404 
L 742.69743 172.277513 
L 755.704423 167.567556 
L 768.711416 151.082707 
L 781.718409 151.082707 
L 794.725402 134.597859 
L 807.732395 118.11301 
L 833.746381 103.98314 
L 846.753374 99.273184 
L 859.760367 92.208248 
L 885.774353 78.078378 
L 898.781346 73.368422 
L 924.795332 71.013443 
L 937.802325 71.013443 
L 963.816311 63.948508 
L 976.823304 56.883573 
L 1028.851276 52.173616 
L 1041.858269 45.108681 
L 1054.865262 42.753703 
L 1067.872255 38.043746 
L 1080.879248 38.043746 
L 1106.893234 38.043746 
L 1119.900227 33.33379 
" style="fill:none;stroke:#dbcd00;stroke-linecap:square;stroke-width:2;"/>
    <defs>
     <path d="M 0 1.5 
C 0.397805 1.5 0.77937 1.341951 1.06066 1.06066 
C 1.341951 0.77937 1.5 0.397805 1.5 0 
C 1.5 -0.397805 1.341951 -0.77937 1.06066 -1.06066 
C 0.77937 -1.341951 0.397805 -1.5 0 -1.5 
C -0.397805 -1.5 -0.77937 -1.341951 -1.06066 -1.06066 
C -1.341951 -0.77937 -1.5 -0.397805 -1.5 0 
C -1.5 0.397805 -1.341951 0.77937 -1.06066 1.06066 
C -0.77937 1.341951 -0.397805 1.5 0 1.5 
z
" id="mf1c2d7cb5d" style="stroke:#dbcd00;"/>
    </defs>
    <g clip-path="url(#p874a6c0b8f)">
     <use style="fill:#dbcd00;stroke:#dbcd00;" x="105.354773" xlink:href="#mf1c2d7cb5d" y="478.424699"/>
     <use style="fill:#dbcd00;stroke:#dbcd00;" x="118.361766" xlink:href="#mf1c2d7cb5d" y="478.424699"/>
     <use style="fill:#dbcd00;stroke:#dbcd00;" x="131.368759" xlink:href="#mf1c2d7cb5d" y="478.424699"/>
     <use style="fill:#dbcd00;stroke:#dbcd00;" x="144.375752" xlink:href="#mf1c2d7cb5d" y="471.359764"/>
     <use style="fill:#dbcd00;stroke:#dbcd00;" x="157.382745" xlink:href="#mf1c2d7cb5d" y="471.359764"/>
     <use style="fill:#dbcd00;stroke:#dbcd00;" x="170.389738" xlink:href="#mf1c2d7cb5d" y="459.584872"/>
     <use style="fill:#dbcd00;stroke:#dbcd00;" x="183.396731" xlink:href="#mf1c2d7cb5d" y="459.584872"/>
     <use style="fill:#dbcd00;stroke:#dbcd00;" x="196.403724" xlink:href="#mf1c2d7cb5d" y="459.584872"/>
     <use style="fill:#dbcd00;stroke:#dbcd00;" x="209.410717" xlink:href="#mf1c2d7cb5d" y="459.584872"/>
     <use style="fill:#dbcd00;stroke:#dbcd00;" x="222.41771" xlink:href="#mf1c2d7cb5d" y="457.229893"/>
     <use style="fill:#dbcd00;stroke:#dbcd00;" x="235.424703" xlink:href="#mf1c2d7cb5d" y="450.164958"/>
     <use style="fill:#dbcd00;stroke:#dbcd00;" x="248.431696" xlink:href="#mf1c2d7cb5d" y="433.68011"/>
     <use style="fill:#dbcd00;stroke:#dbcd00;" x="261.438689" xlink:href="#mf1c2d7cb5d" y="421.905218"/>
     <use style="fill:#dbcd00;stroke:#dbcd00;" x="274.445682" xlink:href="#mf1c2d7cb5d" y="421.905218"/>
     <use style="fill:#dbcd00;stroke:#dbcd00;" x="287.452675" xlink:href="#mf1c2d7cb5d" y="419.55024"/>
     <use style="fill:#dbcd00;stroke:#dbcd00;" x="300.459668" xlink:href="#mf1c2d7cb5d" y="419.55024"/>
     <use style="fill:#dbcd00;stroke:#dbcd00;" x="313.466661" xlink:href="#mf1c2d7cb5d" y="412.485305"/>
     <use style="fill:#dbcd00;stroke:#dbcd00;" x="326.473654" xlink:href="#mf1c2d7cb5d" y="407.775348"/>
     <use style="fill:#dbcd00;stroke:#dbcd00;" x="339.480647" xlink:href="#mf1c2d7cb5d" y="396.000456"/>
     <use style="fill:#dbcd00;stroke:#dbcd00;" x="365.494633" xlink:href="#mf1c2d7cb5d" y="391.2905"/>
     <use style="fill:#dbcd00;stroke:#dbcd00;" x="391.508619" xlink:href="#mf1c2d7cb5d" y="381.870586"/>
     <use style="fill:#dbcd00;stroke:#dbcd00;" x="404.515612" xlink:href="#mf1c2d7cb5d" y="379.515608"/>
     <use style="fill:#dbcd00;stroke:#dbcd00;" x="417.522605" xlink:href="#mf1c2d7cb5d" y="379.515608"/>
     <use style="fill:#dbcd00;stroke:#dbcd00;" x="430.529598" xlink:href="#mf1c2d7cb5d" y="363.030759"/>
     <use style="fill:#dbcd00;stroke:#dbcd00;" x="443.536591" xlink:href="#mf1c2d7cb5d" y="363.030759"/>
     <use style="fill:#dbcd00;stroke:#dbcd00;" x="469.550577" xlink:href="#mf1c2d7cb5d" y="351.255867"/>
     <use style="fill:#dbcd00;stroke:#dbcd00;" x="482.55757" xlink:href="#mf1c2d7cb5d" y="344.190932"/>
     <use style="fill:#dbcd00;stroke:#dbcd00;" x="495.564563" xlink:href="#mf1c2d7cb5d" y="337.125997"/>
     <use style="fill:#dbcd00;stroke:#dbcd00;" x="508.571556" xlink:href="#mf1c2d7cb5d" y="320.641149"/>
     <use style="fill:#dbcd00;stroke:#dbcd00;" x="521.578549" xlink:href="#mf1c2d7cb5d" y="318.286171"/>
     <use style="fill:#dbcd00;stroke:#dbcd00;" x="534.585542" xlink:href="#mf1c2d7cb5d" y="315.931192"/>
     <use style="fill:#dbcd00;stroke:#dbcd00;" x="560.599528" xlink:href="#mf1c2d7cb5d" y="294.736387"/>
     <use style="fill:#dbcd00;stroke:#dbcd00;" x="573.606521" xlink:href="#mf1c2d7cb5d" y="280.606517"/>
     <use style="fill:#dbcd00;stroke:#dbcd00;" x="586.613514" xlink:href="#mf1c2d7cb5d" y="273.541582"/>
     <use style="fill:#dbcd00;stroke:#dbcd00;" x="599.620507" xlink:href="#mf1c2d7cb5d" y="259.411712"/>
     <use style="fill:#dbcd00;stroke:#dbcd00;" x="625.634493" xlink:href="#mf1c2d7cb5d" y="252.346777"/>
     <use style="fill:#dbcd00;stroke:#dbcd00;" x="651.648479" xlink:href="#mf1c2d7cb5d" y="233.50695"/>
     <use style="fill:#dbcd00;stroke:#dbcd00;" x="664.655472" xlink:href="#mf1c2d7cb5d" y="221.732058"/>
     <use style="fill:#dbcd00;stroke:#dbcd00;" x="677.662465" xlink:href="#mf1c2d7cb5d" y="214.667123"/>
     <use style="fill:#dbcd00;stroke:#dbcd00;" x="690.669458" xlink:href="#mf1c2d7cb5d" y="202.892231"/>
     <use style="fill:#dbcd00;stroke:#dbcd00;" x="703.676451" xlink:href="#mf1c2d7cb5d" y="200.537253"/>
     <use style="fill:#dbcd00;stroke:#dbcd00;" x="716.683444" xlink:href="#mf1c2d7cb5d" y="184.052404"/>
     <use style="fill:#dbcd00;stroke:#dbcd00;" x="742.69743" xlink:href="#mf1c2d7cb5d" y="172.277513"/>
     <use style="fill:#dbcd00;stroke:#dbcd00;" x="755.704423" xlink:href="#mf1c2d7cb5d" y="167.567556"/>
     <use style="fill:#dbcd00;stroke:#dbcd00;" x="768.711416" xlink:href="#mf1c2d7cb5d" y="151.082707"/>
     <use style="fill:#dbcd00;stroke:#dbcd00;" x="781.718409" xlink:href="#mf1c2d7cb5d" y="151.082707"/>
     <use style="fill:#dbcd00;stroke:#dbcd00;" x="794.725402" xlink:href="#mf1c2d7cb5d" y="134.597859"/>
     <use style="fill:#dbcd00;stroke:#dbcd00;" x="807.732395" xlink:href="#mf1c2d7cb5d" y="118.11301"/>
     <use style="fill:#dbcd00;stroke:#dbcd00;" x="833.746381" xlink:href="#mf1c2d7cb5d" y="103.98314"/>
     <use style="fill:#dbcd00;stroke:#dbcd00;" x="846.753374" xlink:href="#mf1c2d7cb5d" y="99.273184"/>
     <use style="fill:#dbcd00;stroke:#dbcd00;" x="859.760367" xlink:href="#mf1c2d7cb5d" y="92.208248"/>
     <use style="fill:#dbcd00;stroke:#dbcd00;" x="885.774353" xlink:href="#mf1c2d7cb5d" y="78.078378"/>
     <use style="fill:#dbcd00;stroke:#dbcd00;" x="898.781346" xlink:href="#mf1c2d7cb5d" y="73.368422"/>
     <use style="fill:#dbcd00;stroke:#dbcd00;" x="924.795332" xlink:href="#mf1c2d7cb5d" y="71.013443"/>
     <use style="fill:#dbcd00;stroke:#dbcd00;" x="937.802325" xlink:href="#mf1c2d7cb5d" y="71.013443"/>
     <use style="fill:#dbcd00;stroke:#dbcd00;" x="963.816311" xlink:href="#mf1c2d7cb5d" y="63.948508"/>
     <use style="fill:#dbcd00;stroke:#dbcd00;" x="976.823304" xlink:href="#mf1c2d7cb5d" y="56.883573"/>
     <use style="fill:#dbcd00;stroke:#dbcd00;" x="1028.851276" xlink:href="#mf1c2d7cb5d" y="52.173616"/>
     <use style="fill:#dbcd00;stroke:#dbcd00;" x="1041.858269" xlink:href="#mf1c2d7cb5d" y="45.108681"/>
     <use style="fill:#dbcd00;stroke:#dbcd00;" x="1054.865262" xlink:href="#mf1c2d7cb5d" y="42.753703"/>
     <use style="fill:#dbcd00;stroke:#dbcd00;" x="1067.872255" xlink:href="#mf1c2d7cb5d" y="38.043746"/>
     <use style="fill:#dbcd00;stroke:#dbcd00;" x="1080.879248" xlink:href="#mf1c2d7cb5d" y="38.043746"/>
     <use style="fill:#dbcd00;stroke:#dbcd00;" x="1106.893234" xlink:href="#mf1c2d7cb5d" y="38.043746"/>
     <use style="fill:#dbcd00;stroke:#dbcd00;" x="1119.900227" xlink:href="#mf1c2d7cb5d" y="33.33379"/>
    </g>
   </g>
   <g id="line2d_13">
    <path clip-path="url(#p874a6c0b8f)" d="M 105.354773 447.80998 
L 118.361766 445.455002 
L 131.368759 428.970153 
L 144.375752 443.100023 
L 157.382745 433.68011 
L 170.389738 421.905218 
L 183.396731 419.55024 
L 196.403724 414.840283 
L 209.410717 405.42037 
L 222.41771 405.42037 
L 235.424703 398.355435 
L 248.431696 405.42037 
L 261.438689 405.42037 
L 274.445682 403.065391 
L 287.452675 396.000456 
L 300.459668 386.580543 
L 313.466661 377.160629 
L 326.473654 372.450673 
L 339.480647 377.160629 
L 365.494633 377.160629 
L 391.508619 374.805651 
L 404.515612 363.030759 
L 417.522605 360.675781 
L 430.529598 367.740716 
L 443.536591 360.675781 
L 469.550577 363.030759 
L 482.55757 348.900889 
L 495.564563 355.965824 
L 508.571556 365.385738 
L 521.578549 363.030759 
L 534.585542 334.771019 
L 560.599528 351.255867 
L 573.606521 360.675781 
L 586.613514 365.385738 
L 599.620507 374.805651 
L 625.634493 363.030759 
L 651.648479 381.870586 
L 664.655472 363.030759 
L 677.662465 353.610846 
L 690.669458 365.385738 
L 703.676451 367.740716 
L 716.683444 379.515608 
L 742.69743 388.935521 
L 755.704423 391.2905 
L 768.711416 396.000456 
L 781.718409 396.000456 
L 794.725402 412.485305 
L 807.732395 424.260196 
L 833.746381 438.390067 
L 846.753374 440.745045 
L 859.760367 447.80998 
L 885.774353 461.93985 
L 898.781346 459.584872 
L 924.795332 454.874915 
L 937.802325 454.874915 
L 963.816311 457.229893 
L 976.823304 464.294829 
L 1028.851276 457.229893 
L 1041.858269 461.93985 
L 1054.865262 459.584872 
L 1067.872255 466.649807 
L 1080.879248 466.649807 
L 1106.893234 466.649807 
L 1119.900227 471.359764 
" style="fill:none;stroke:#2792cb;stroke-linecap:square;stroke-width:2;"/>
    <defs>
     <path d="M 0 1.5 
C 0.397805 1.5 0.77937 1.341951 1.06066 1.06066 
C 1.341951 0.77937 1.5 0.397805 1.5 0 
C 1.5 -0.397805 1.341951 -0.77937 1.06066 -1.06066 
C 0.77937 -1.341951 0.397805 -1.5 0 -1.5 
C -0.397805 -1.5 -0.77937 -1.341951 -1.06066 -1.06066 
C -1.341951 -0.77937 -1.5 -0.397805 -1.5 0 
C -1.5 0.397805 -1.341951 0.77937 -1.06066 1.06066 
C -0.77937 1.341951 -0.397805 1.5 0 1.5 
z
" id="m1e12661bf3" style="stroke:#2792cb;"/>
    </defs>
    <g clip-path="url(#p874a6c0b8f)">
     <use style="fill:#2792cb;stroke:#2792cb;" x="105.354773" xlink:href="#m1e12661bf3" y="447.80998"/>
     <use style="fill:#2792cb;stroke:#2792cb;" x="118.361766" xlink:href="#m1e12661bf3" y="445.455002"/>
     <use style="fill:#2792cb;stroke:#2792cb;" x="131.368759" xlink:href="#m1e12661bf3" y="428.970153"/>
     <use style="fill:#2792cb;stroke:#2792cb;" x="144.375752" xlink:href="#m1e12661bf3" y="443.100023"/>
     <use style="fill:#2792cb;stroke:#2792cb;" x="157.382745" xlink:href="#m1e12661bf3" y="433.68011"/>
     <use style="fill:#2792cb;stroke:#2792cb;" x="170.389738" xlink:href="#m1e12661bf3" y="421.905218"/>
     <use style="fill:#2792cb;stroke:#2792cb;" x="183.396731" xlink:href="#m1e12661bf3" y="419.55024"/>
     <use style="fill:#2792cb;stroke:#2792cb;" x="196.403724" xlink:href="#m1e12661bf3" y="414.840283"/>
     <use style="fill:#2792cb;stroke:#2792cb;" x="209.410717" xlink:href="#m1e12661bf3" y="405.42037"/>
     <use style="fill:#2792cb;stroke:#2792cb;" x="222.41771" xlink:href="#m1e12661bf3" y="405.42037"/>
     <use style="fill:#2792cb;stroke:#2792cb;" x="235.424703" xlink:href="#m1e12661bf3" y="398.355435"/>
     <use style="fill:#2792cb;stroke:#2792cb;" x="248.431696" xlink:href="#m1e12661bf3" y="405.42037"/>
     <use style="fill:#2792cb;stroke:#2792cb;" x="261.438689" xlink:href="#m1e12661bf3" y="405.42037"/>
     <use style="fill:#2792cb;stroke:#2792cb;" x="274.445682" xlink:href="#m1e12661bf3" y="403.065391"/>
     <use style="fill:#2792cb;stroke:#2792cb;" x="287.452675" xlink:href="#m1e12661bf3" y="396.000456"/>
     <use style="fill:#2792cb;stroke:#2792cb;" x="300.459668" xlink:href="#m1e12661bf3" y="386.580543"/>
     <use style="fill:#2792cb;stroke:#2792cb;" x="313.466661" xlink:href="#m1e12661bf3" y="377.160629"/>
     <use style="fill:#2792cb;stroke:#2792cb;" x="326.473654" xlink:href="#m1e12661bf3" y="372.450673"/>
     <use style="fill:#2792cb;stroke:#2792cb;" x="339.480647" xlink:href="#m1e12661bf3" y="377.160629"/>
     <use style="fill:#2792cb;stroke:#2792cb;" x="365.494633" xlink:href="#m1e12661bf3" y="377.160629"/>
     <use style="fill:#2792cb;stroke:#2792cb;" x="391.508619" xlink:href="#m1e12661bf3" y="374.805651"/>
     <use style="fill:#2792cb;stroke:#2792cb;" x="404.515612" xlink:href="#m1e12661bf3" y="363.030759"/>
     <use style="fill:#2792cb;stroke:#2792cb;" x="417.522605" xlink:href="#m1e12661bf3" y="360.675781"/>
     <use style="fill:#2792cb;stroke:#2792cb;" x="430.529598" xlink:href="#m1e12661bf3" y="367.740716"/>
     <use style="fill:#2792cb;stroke:#2792cb;" x="443.536591" xlink:href="#m1e12661bf3" y="360.675781"/>
     <use style="fill:#2792cb;stroke:#2792cb;" x="469.550577" xlink:href="#m1e12661bf3" y="363.030759"/>
     <use style="fill:#2792cb;stroke:#2792cb;" x="482.55757" xlink:href="#m1e12661bf3" y="348.900889"/>
     <use style="fill:#2792cb;stroke:#2792cb;" x="495.564563" xlink:href="#m1e12661bf3" y="355.965824"/>
     <use style="fill:#2792cb;stroke:#2792cb;" x="508.571556" xlink:href="#m1e12661bf3" y="365.385738"/>
     <use style="fill:#2792cb;stroke:#2792cb;" x="521.578549" xlink:href="#m1e12661bf3" y="363.030759"/>
     <use style="fill:#2792cb;stroke:#2792cb;" x="534.585542" xlink:href="#m1e12661bf3" y="334.771019"/>
     <use style="fill:#2792cb;stroke:#2792cb;" x="560.599528" xlink:href="#m1e12661bf3" y="351.255867"/>
     <use style="fill:#2792cb;stroke:#2792cb;" x="573.606521" xlink:href="#m1e12661bf3" y="360.675781"/>
     <use style="fill:#2792cb;stroke:#2792cb;" x="586.613514" xlink:href="#m1e12661bf3" y="365.385738"/>
     <use style="fill:#2792cb;stroke:#2792cb;" x="599.620507" xlink:href="#m1e12661bf3" y="374.805651"/>
     <use style="fill:#2792cb;stroke:#2792cb;" x="625.634493" xlink:href="#m1e12661bf3" y="363.030759"/>
     <use style="fill:#2792cb;stroke:#2792cb;" x="651.648479" xlink:href="#m1e12661bf3" y="381.870586"/>
     <use style="fill:#2792cb;stroke:#2792cb;" x="664.655472" xlink:href="#m1e12661bf3" y="363.030759"/>
     <use style="fill:#2792cb;stroke:#2792cb;" x="677.662465" xlink:href="#m1e12661bf3" y="353.610846"/>
     <use style="fill:#2792cb;stroke:#2792cb;" x="690.669458" xlink:href="#m1e12661bf3" y="365.385738"/>
     <use style="fill:#2792cb;stroke:#2792cb;" x="703.676451" xlink:href="#m1e12661bf3" y="367.740716"/>
     <use style="fill:#2792cb;stroke:#2792cb;" x="716.683444" xlink:href="#m1e12661bf3" y="379.515608"/>
     <use style="fill:#2792cb;stroke:#2792cb;" x="742.69743" xlink:href="#m1e12661bf3" y="388.935521"/>
     <use style="fill:#2792cb;stroke:#2792cb;" x="755.704423" xlink:href="#m1e12661bf3" y="391.2905"/>
     <use style="fill:#2792cb;stroke:#2792cb;" x="768.711416" xlink:href="#m1e12661bf3" y="396.000456"/>
     <use style="fill:#2792cb;stroke:#2792cb;" x="781.718409" xlink:href="#m1e12661bf3" y="396.000456"/>
     <use style="fill:#2792cb;stroke:#2792cb;" x="794.725402" xlink:href="#m1e12661bf3" y="412.485305"/>
     <use style="fill:#2792cb;stroke:#2792cb;" x="807.732395" xlink:href="#m1e12661bf3" y="424.260196"/>
     <use style="fill:#2792cb;stroke:#2792cb;" x="833.746381" xlink:href="#m1e12661bf3" y="438.390067"/>
     <use style="fill:#2792cb;stroke:#2792cb;" x="846.753374" xlink:href="#m1e12661bf3" y="440.745045"/>
     <use style="fill:#2792cb;stroke:#2792cb;" x="859.760367" xlink:href="#m1e12661bf3" y="447.80998"/>
     <use style="fill:#2792cb;stroke:#2792cb;" x="885.774353" xlink:href="#m1e12661bf3" y="461.93985"/>
     <use style="fill:#2792cb;stroke:#2792cb;" x="898.781346" xlink:href="#m1e12661bf3" y="459.584872"/>
     <use style="fill:#2792cb;stroke:#2792cb;" x="924.795332" xlink:href="#m1e12661bf3" y="454.874915"/>
     <use style="fill:#2792cb;stroke:#2792cb;" x="937.802325" xlink:href="#m1e12661bf3" y="454.874915"/>
     <use style="fill:#2792cb;stroke:#2792cb;" x="963.816311" xlink:href="#m1e12661bf3" y="457.229893"/>
     <use style="fill:#2792cb;stroke:#2792cb;" x="976.823304" xlink:href="#m1e12661bf3" y="464.294829"/>
     <use style="fill:#2792cb;stroke:#2792cb;" x="1028.851276" xlink:href="#m1e12661bf3" y="457.229893"/>
     <use style="fill:#2792cb;stroke:#2792cb;" x="1041.858269" xlink:href="#m1e12661bf3" y="461.93985"/>
     <use style="fill:#2792cb;stroke:#2792cb;" x="1054.865262" xlink:href="#m1e12661bf3" y="459.584872"/>
     <use style="fill:#2792cb;stroke:#2792cb;" x="1067.872255" xlink:href="#m1e12661bf3" y="466.649807"/>
     <use style="fill:#2792cb;stroke:#2792cb;" x="1080.879248" xlink:href="#m1e12661bf3" y="466.649807"/>
     <use style="fill:#2792cb;stroke:#2792cb;" x="1106.893234" xlink:href="#m1e12661bf3" y="466.649807"/>
     <use style="fill:#2792cb;stroke:#2792cb;" x="1119.900227" xlink:href="#m1e12661bf3" y="471.359764"/>
    </g>
   </g>
   <g id="patch_3">
    <path d="M 54.6275 500.679244 
L 1170.6275 500.679244 
" style="fill:none;stroke:#000000;stroke-linecap:square;stroke-linejoin:miter;stroke-width:0.8;"/>
   </g>
   <g id="legend_1">
    <g id="line2d_14">
     <path d="M 63.6275 24.177682 
L 83.6275 24.177682 
" style="fill:none;stroke:#dbcd00;stroke-linecap:square;stroke-width:2;"/>
    </g>
    <g id="line2d_15">
     <g>
      <use style="fill:#dbcd00;stroke:#dbcd00;" x="73.6275" xlink:href="#mf1c2d7cb5d" y="24.177682"/>
     </g>
    </g>
    <g id="text_10">
     <!-- Genesene -->
     <defs>
      <path d="M 59.515625 10.40625 
L 59.515625 29.984375 
L 43.40625 29.984375 
L 43.40625 38.09375 
L 69.28125 38.09375 
L 69.28125 6.78125 
Q 63.578125 2.734375 56.6875 0.65625 
Q 49.8125 -1.421875 42 -1.421875 
Q 24.90625 -1.421875 15.25 8.5625 
Q 5.609375 18.5625 5.609375 36.375 
Q 5.609375 54.25 15.25 64.234375 
Q 24.90625 74.21875 42 74.21875 
Q 49.125 74.21875 55.546875 72.453125 
Q 61.96875 70.703125 67.390625 67.28125 
L 67.390625 56.78125 
Q 61.921875 61.421875 55.765625 63.765625 
Q 49.609375 66.109375 42.828125 66.109375 
Q 29.4375 66.109375 22.71875 58.640625 
Q 16.015625 51.171875 16.015625 36.375 
Q 16.015625 21.625 22.71875 14.15625 
Q 29.4375 6.6875 42.828125 6.6875 
Q 48.046875 6.6875 52.140625 7.59375 
Q 56.25 8.5 59.515625 10.40625 
z
" id="DejaVuSans-71"/>
      <path d="M 44.28125 53.078125 
L 44.28125 44.578125 
Q 40.484375 46.53125 36.375 47.5 
Q 32.28125 48.484375 27.875 48.484375 
Q 21.1875 48.484375 17.84375 46.4375 
Q 14.5 44.390625 14.5 40.28125 
Q 14.5 37.15625 16.890625 35.375 
Q 19.28125 33.59375 26.515625 31.984375 
L 29.59375 31.296875 
Q 39.15625 29.25 43.1875 25.515625 
Q 47.21875 21.78125 47.21875 15.09375 
Q 47.21875 7.46875 41.1875 3.015625 
Q 35.15625 -1.421875 24.609375 -1.421875 
Q 20.21875 -1.421875 15.453125 -0.5625 
Q 10.6875 0.296875 5.421875 2 
L 5.421875 11.28125 
Q 10.40625 8.6875 15.234375 7.390625 
Q 20.0625 6.109375 24.8125 6.109375 
Q 31.15625 6.109375 34.5625 8.28125 
Q 37.984375 10.453125 37.984375 14.40625 
Q 37.984375 18.0625 35.515625 20.015625 
Q 33.0625 21.96875 24.703125 23.78125 
L 21.578125 24.515625 
Q 13.234375 26.265625 9.515625 29.90625 
Q 5.8125 33.546875 5.8125 39.890625 
Q 5.8125 47.609375 11.28125 51.796875 
Q 16.75 56 26.8125 56 
Q 31.78125 56 36.171875 55.265625 
Q 40.578125 54.546875 44.28125 53.078125 
z
" id="DejaVuSans-115"/>
     </defs>
     <g transform="translate(91.6275 27.677682)scale(0.1 -0.1)">
      <use xlink:href="#DejaVuSans-71"/>
      <use x="77.490234" xlink:href="#DejaVuSans-101"/>
      <use x="139.013672" xlink:href="#DejaVuSans-110"/>
      <use x="202.392578" xlink:href="#DejaVuSans-101"/>
      <use x="263.916016" xlink:href="#DejaVuSans-115"/>
      <use x="316.015625" xlink:href="#DejaVuSans-101"/>
      <use x="377.539062" xlink:href="#DejaVuSans-110"/>
      <use x="440.917969" xlink:href="#DejaVuSans-101"/>
     </g>
    </g>
    <g id="line2d_16">
     <path d="M 63.6275 38.855807 
L 83.6275 38.855807 
" style="fill:none;stroke:#2792cb;stroke-linecap:square;stroke-width:2;"/>
    </g>
    <g id="line2d_17">
     <g>
      <use style="fill:#2792cb;stroke:#2792cb;" x="73.6275" xlink:href="#m1e12661bf3" y="38.855807"/>
     </g>
    </g>
    <g id="text_11">
     <!-- Erkrankte -->
     <defs>
      <path d="M 9.8125 72.90625 
L 55.90625 72.90625 
L 55.90625 64.59375 
L 19.671875 64.59375 
L 19.671875 43.015625 
L 54.390625 43.015625 
L 54.390625 34.71875 
L 19.671875 34.71875 
L 19.671875 8.296875 
L 56.78125 8.296875 
L 56.78125 0 
L 9.8125 0 
z
" id="DejaVuSans-69"/>
      <path d="M 41.109375 46.296875 
Q 39.59375 47.171875 37.8125 47.578125 
Q 36.03125 48 33.890625 48 
Q 26.265625 48 22.1875 43.046875 
Q 18.109375 38.09375 18.109375 28.8125 
L 18.109375 0 
L 9.078125 0 
L 9.078125 54.6875 
L 18.109375 54.6875 
L 18.109375 46.1875 
Q 20.953125 51.171875 25.484375 53.578125 
Q 30.03125 56 36.53125 56 
Q 37.453125 56 38.578125 55.875 
Q 39.703125 55.765625 41.0625 55.515625 
z
" id="DejaVuSans-114"/>
      <path d="M 9.078125 75.984375 
L 18.109375 75.984375 
L 18.109375 31.109375 
L 44.921875 54.6875 
L 56.390625 54.6875 
L 27.390625 29.109375 
L 57.625 0 
L 45.90625 0 
L 18.109375 26.703125 
L 18.109375 0 
L 9.078125 0 
z
" id="DejaVuSans-107"/>
      <path d="M 18.3125 70.21875 
L 18.3125 54.6875 
L 36.8125 54.6875 
L 36.8125 47.703125 
L 18.3125 47.703125 
L 18.3125 18.015625 
Q 18.3125 11.328125 20.140625 9.421875 
Q 21.96875 7.515625 27.59375 7.515625 
L 36.8125 7.515625 
L 36.8125 0 
L 27.59375 0 
Q 17.1875 0 13.234375 3.875 
Q 9.28125 7.765625 9.28125 18.015625 
L 9.28125 47.703125 
L 2.6875 47.703125 
L 2.6875 54.6875 
L 9.28125 54.6875 
L 9.28125 70.21875 
z
" id="DejaVuSans-116"/>
     </defs>
     <g transform="translate(91.6275 42.355807)scale(0.1 -0.1)">
      <use xlink:href="#DejaVuSans-69"/>
      <use x="63.183594" xlink:href="#DejaVuSans-114"/>
      <use x="104.296875" xlink:href="#DejaVuSans-107"/>
      <use x="162.207031" xlink:href="#DejaVuSans-114"/>
      <use x="203.320312" xlink:href="#DejaVuSans-97"/>
      <use x="264.599609" xlink:href="#DejaVuSans-110"/>
      <use x="327.978516" xlink:href="#DejaVuSans-107"/>
      <use x="385.888672" xlink:href="#DejaVuSans-116"/>
      <use x="425.097656" xlink:href="#DejaVuSans-101"/>
     </g>
    </g>
   </g>
  </g>
 </g>
 <defs>
  <clipPath id="p874a6c0b8f">
   <rect height="489.6" width="1116" x="54.6275" y="11.079244"/>
  </clipPath>
 </defs>
</svg>
