<?xml version="1.0" encoding="utf-8" standalone="no"?>
<!DOCTYPE svg PUBLIC "-//W3C//DTD SVG 1.1//EN"
  "http://www.w3.org/Graphics/SVG/1.1/DTD/svg11.dtd">
<!-- Created with matplotlib (https://matplotlib.org/) -->
<svg height="553.993765pt" version="1.1" viewBox="0 0 1186.09875 553.993765" width="1186.09875pt" xmlns="http://www.w3.org/2000/svg" xmlns:xlink="http://www.w3.org/1999/xlink">
 <defs>
  <style type="text/css">
*{stroke-linecap:butt;stroke-linejoin:round;}
  </style>
 </defs>
 <g id="figure_1">
  <g id="patch_1">
   <path d="M 0 553.993765 
L 1186.09875 553.993765 
L 1186.09875 0 
L 0 0 
z
" style="fill:#ffffff;"/>
  </g>
  <g id="axes_1">
   <g id="patch_2">
    <path d="M 62.89875 501.738984 
L 1178.89875 501.738984 
L 1178.89875 12.138984 
L 62.89875 12.138984 
z
" style="fill:#ffffff;"/>
   </g>
   <g id="matplotlib.axis_1">
    <g id="xtick_1">
     <g id="line2d_1">
      <defs>
       <path d="M 0 0 
L 0 3.5 
" id="m4c993d0f27" style="stroke:#000000;stroke-width:0.8;"/>
      </defs>
      <g>
       <use style="stroke:#000000;stroke-width:0.8;" x="66.337887" xlink:href="#m4c993d0f27" y="501.738984"/>
      </g>
     </g>
     <g id="text_1">
      <!-- 2020-03 -->
      <defs>
       <path d="M 19.1875 8.296875 
L 53.609375 8.296875 
L 53.609375 0 
L 7.328125 0 
L 7.328125 8.296875 
Q 12.9375 14.109375 22.625 23.890625 
Q 32.328125 33.6875 34.8125 36.53125 
Q 39.546875 41.84375 41.421875 45.53125 
Q 43.3125 49.21875 43.3125 52.78125 
Q 43.3125 58.59375 39.234375 62.25 
Q 35.15625 65.921875 28.609375 65.921875 
Q 23.96875 65.921875 18.8125 64.3125 
Q 13.671875 62.703125 7.8125 59.421875 
L 7.8125 69.390625 
Q 13.765625 71.78125 18.9375 73 
Q 24.125 74.21875 28.421875 74.21875 
Q 39.75 74.21875 46.484375 68.546875 
Q 53.21875 62.890625 53.21875 53.421875 
Q 53.21875 48.921875 51.53125 44.890625 
Q 49.859375 40.875 45.40625 35.40625 
Q 44.1875 33.984375 37.640625 27.21875 
Q 31.109375 20.453125 19.1875 8.296875 
z
" id="DejaVuSans-50"/>
       <path d="M 31.78125 66.40625 
Q 24.171875 66.40625 20.328125 58.90625 
Q 16.5 51.421875 16.5 36.375 
Q 16.5 21.390625 20.328125 13.890625 
Q 24.171875 6.390625 31.78125 6.390625 
Q 39.453125 6.390625 43.28125 13.890625 
Q 47.125 21.390625 47.125 36.375 
Q 47.125 51.421875 43.28125 58.90625 
Q 39.453125 66.40625 31.78125 66.40625 
z
M 31.78125 74.21875 
Q 44.046875 74.21875 50.515625 64.515625 
Q 56.984375 54.828125 56.984375 36.375 
Q 56.984375 17.96875 50.515625 8.265625 
Q 44.046875 -1.421875 31.78125 -1.421875 
Q 19.53125 -1.421875 13.0625 8.265625 
Q 6.59375 17.96875 6.59375 36.375 
Q 6.59375 54.828125 13.0625 64.515625 
Q 19.53125 74.21875 31.78125 74.21875 
z
" id="DejaVuSans-48"/>
       <path d="M 4.890625 31.390625 
L 31.203125 31.390625 
L 31.203125 23.390625 
L 4.890625 23.390625 
z
" id="DejaVuSans-45"/>
       <path d="M 40.578125 39.3125 
Q 47.65625 37.796875 51.625 33 
Q 55.609375 28.21875 55.609375 21.1875 
Q 55.609375 10.40625 48.1875 4.484375 
Q 40.765625 -1.421875 27.09375 -1.421875 
Q 22.515625 -1.421875 17.65625 -0.515625 
Q 12.796875 0.390625 7.625 2.203125 
L 7.625 11.71875 
Q 11.71875 9.328125 16.59375 8.109375 
Q 21.484375 6.890625 26.8125 6.890625 
Q 36.078125 6.890625 40.9375 10.546875 
Q 45.796875 14.203125 45.796875 21.1875 
Q 45.796875 27.640625 41.28125 31.265625 
Q 36.765625 34.90625 28.71875 34.90625 
L 20.21875 34.90625 
L 20.21875 43.015625 
L 29.109375 43.015625 
Q 36.375 43.015625 40.234375 45.921875 
Q 44.09375 48.828125 44.09375 54.296875 
Q 44.09375 59.90625 40.109375 62.90625 
Q 36.140625 65.921875 28.71875 65.921875 
Q 24.65625 65.921875 20.015625 65.03125 
Q 15.375 64.15625 9.8125 62.3125 
L 9.8125 71.09375 
Q 15.4375 72.65625 20.34375 73.4375 
Q 25.25 74.21875 29.59375 74.21875 
Q 40.828125 74.21875 47.359375 69.109375 
Q 53.90625 64.015625 53.90625 55.328125 
Q 53.90625 49.265625 50.4375 45.09375 
Q 46.96875 40.921875 40.578125 39.3125 
z
" id="DejaVuSans-51"/>
      </defs>
      <g transform="translate(17.94562 544.452384)rotate(-30)scale(0.13 -0.13)">
       <use xlink:href="#DejaVuSans-50"/>
       <use x="63.623047" xlink:href="#DejaVuSans-48"/>
       <use x="127.246094" xlink:href="#DejaVuSans-50"/>
       <use x="190.869141" xlink:href="#DejaVuSans-48"/>
       <use x="254.492188" xlink:href="#DejaVuSans-45"/>
       <use x="290.576172" xlink:href="#DejaVuSans-48"/>
       <use x="354.199219" xlink:href="#DejaVuSans-51"/>
      </g>
     </g>
    </g>
    <g id="xtick_2">
     <g id="line2d_2">
      <g>
       <use style="stroke:#000000;stroke-width:0.8;" x="199.604451" xlink:href="#m4c993d0f27" y="501.738984"/>
      </g>
     </g>
     <g id="text_2">
      <!-- 2020-04 -->
      <defs>
       <path d="M 37.796875 64.3125 
L 12.890625 25.390625 
L 37.796875 25.390625 
z
M 35.203125 72.90625 
L 47.609375 72.90625 
L 47.609375 25.390625 
L 58.015625 25.390625 
L 58.015625 17.1875 
L 47.609375 17.1875 
L 47.609375 0 
L 37.796875 0 
L 37.796875 17.1875 
L 4.890625 17.1875 
L 4.890625 26.703125 
z
" id="DejaVuSans-52"/>
      </defs>
      <g transform="translate(151.212184 544.452384)rotate(-30)scale(0.13 -0.13)">
       <use xlink:href="#DejaVuSans-50"/>
       <use x="63.623047" xlink:href="#DejaVuSans-48"/>
       <use x="127.246094" xlink:href="#DejaVuSans-50"/>
       <use x="190.869141" xlink:href="#DejaVuSans-48"/>
       <use x="254.492188" xlink:href="#DejaVuSans-45"/>
       <use x="290.576172" xlink:href="#DejaVuSans-48"/>
       <use x="354.199219" xlink:href="#DejaVuSans-52"/>
      </g>
     </g>
    </g>
    <g id="xtick_3">
     <g id="line2d_3">
      <g>
       <use style="stroke:#000000;stroke-width:0.8;" x="328.572094" xlink:href="#m4c993d0f27" y="501.738984"/>
      </g>
     </g>
     <g id="text_3">
      <!-- 2020-05 -->
      <defs>
       <path d="M 10.796875 72.90625 
L 49.515625 72.90625 
L 49.515625 64.59375 
L 19.828125 64.59375 
L 19.828125 46.734375 
Q 21.96875 47.46875 24.109375 47.828125 
Q 26.265625 48.1875 28.421875 48.1875 
Q 40.625 48.1875 47.75 41.5 
Q 54.890625 34.8125 54.890625 23.390625 
Q 54.890625 11.625 47.5625 5.09375 
Q 40.234375 -1.421875 26.90625 -1.421875 
Q 22.3125 -1.421875 17.546875 -0.640625 
Q 12.796875 0.140625 7.71875 1.703125 
L 7.71875 11.625 
Q 12.109375 9.234375 16.796875 8.0625 
Q 21.484375 6.890625 26.703125 6.890625 
Q 35.15625 6.890625 40.078125 11.328125 
Q 45.015625 15.765625 45.015625 23.390625 
Q 45.015625 31 40.078125 35.4375 
Q 35.15625 39.890625 26.703125 39.890625 
Q 22.75 39.890625 18.8125 39.015625 
Q 14.890625 38.140625 10.796875 36.28125 
z
" id="DejaVuSans-53"/>
      </defs>
      <g transform="translate(280.179827 544.452384)rotate(-30)scale(0.13 -0.13)">
       <use xlink:href="#DejaVuSans-50"/>
       <use x="63.623047" xlink:href="#DejaVuSans-48"/>
       <use x="127.246094" xlink:href="#DejaVuSans-50"/>
       <use x="190.869141" xlink:href="#DejaVuSans-48"/>
       <use x="254.492188" xlink:href="#DejaVuSans-45"/>
       <use x="290.576172" xlink:href="#DejaVuSans-48"/>
       <use x="354.199219" xlink:href="#DejaVuSans-53"/>
      </g>
     </g>
    </g>
    <g id="xtick_4">
     <g id="line2d_4">
      <g>
       <use style="stroke:#000000;stroke-width:0.8;" x="461.838658" xlink:href="#m4c993d0f27" y="501.738984"/>
      </g>
     </g>
     <g id="text_4">
      <!-- 2020-06 -->
      <defs>
       <path d="M 33.015625 40.375 
Q 26.375 40.375 22.484375 35.828125 
Q 18.609375 31.296875 18.609375 23.390625 
Q 18.609375 15.53125 22.484375 10.953125 
Q 26.375 6.390625 33.015625 6.390625 
Q 39.65625 6.390625 43.53125 10.953125 
Q 47.40625 15.53125 47.40625 23.390625 
Q 47.40625 31.296875 43.53125 35.828125 
Q 39.65625 40.375 33.015625 40.375 
z
M 52.59375 71.296875 
L 52.59375 62.3125 
Q 48.875 64.0625 45.09375 64.984375 
Q 41.3125 65.921875 37.59375 65.921875 
Q 27.828125 65.921875 22.671875 59.328125 
Q 17.53125 52.734375 16.796875 39.40625 
Q 19.671875 43.65625 24.015625 45.921875 
Q 28.375 48.1875 33.59375 48.1875 
Q 44.578125 48.1875 50.953125 41.515625 
Q 57.328125 34.859375 57.328125 23.390625 
Q 57.328125 12.15625 50.6875 5.359375 
Q 44.046875 -1.421875 33.015625 -1.421875 
Q 20.359375 -1.421875 13.671875 8.265625 
Q 6.984375 17.96875 6.984375 36.375 
Q 6.984375 53.65625 15.1875 63.9375 
Q 23.390625 74.21875 37.203125 74.21875 
Q 40.921875 74.21875 44.703125 73.484375 
Q 48.484375 72.75 52.59375 71.296875 
z
" id="DejaVuSans-54"/>
      </defs>
      <g transform="translate(413.44639 544.452384)rotate(-30)scale(0.13 -0.13)">
       <use xlink:href="#DejaVuSans-50"/>
       <use x="63.623047" xlink:href="#DejaVuSans-48"/>
       <use x="127.246094" xlink:href="#DejaVuSans-50"/>
       <use x="190.869141" xlink:href="#DejaVuSans-48"/>
       <use x="254.492188" xlink:href="#DejaVuSans-45"/>
       <use x="290.576172" xlink:href="#DejaVuSans-48"/>
       <use x="354.199219" xlink:href="#DejaVuSans-54"/>
      </g>
     </g>
    </g>
    <g id="xtick_5">
     <g id="line2d_5">
      <g>
       <use style="stroke:#000000;stroke-width:0.8;" x="590.8063" xlink:href="#m4c993d0f27" y="501.738984"/>
      </g>
     </g>
     <g id="text_5">
      <!-- 2020-07 -->
      <defs>
       <path d="M 8.203125 72.90625 
L 55.078125 72.90625 
L 55.078125 68.703125 
L 28.609375 0 
L 18.3125 0 
L 43.21875 64.59375 
L 8.203125 64.59375 
z
" id="DejaVuSans-55"/>
      </defs>
      <g transform="translate(542.414033 544.452384)rotate(-30)scale(0.13 -0.13)">
       <use xlink:href="#DejaVuSans-50"/>
       <use x="63.623047" xlink:href="#DejaVuSans-48"/>
       <use x="127.246094" xlink:href="#DejaVuSans-50"/>
       <use x="190.869141" xlink:href="#DejaVuSans-48"/>
       <use x="254.492188" xlink:href="#DejaVuSans-45"/>
       <use x="290.576172" xlink:href="#DejaVuSans-48"/>
       <use x="354.199219" xlink:href="#DejaVuSans-55"/>
      </g>
     </g>
    </g>
    <g id="xtick_6">
     <g id="line2d_6">
      <g>
       <use style="stroke:#000000;stroke-width:0.8;" x="724.072864" xlink:href="#m4c993d0f27" y="501.738984"/>
      </g>
     </g>
     <g id="text_6">
      <!-- 2020-08 -->
      <defs>
       <path d="M 31.78125 34.625 
Q 24.75 34.625 20.71875 30.859375 
Q 16.703125 27.09375 16.703125 20.515625 
Q 16.703125 13.921875 20.71875 10.15625 
Q 24.75 6.390625 31.78125 6.390625 
Q 38.8125 6.390625 42.859375 10.171875 
Q 46.921875 13.96875 46.921875 20.515625 
Q 46.921875 27.09375 42.890625 30.859375 
Q 38.875 34.625 31.78125 34.625 
z
M 21.921875 38.8125 
Q 15.578125 40.375 12.03125 44.71875 
Q 8.5 49.078125 8.5 55.328125 
Q 8.5 64.0625 14.71875 69.140625 
Q 20.953125 74.21875 31.78125 74.21875 
Q 42.671875 74.21875 48.875 69.140625 
Q 55.078125 64.0625 55.078125 55.328125 
Q 55.078125 49.078125 51.53125 44.71875 
Q 48 40.375 41.703125 38.8125 
Q 48.828125 37.15625 52.796875 32.3125 
Q 56.78125 27.484375 56.78125 20.515625 
Q 56.78125 9.90625 50.3125 4.234375 
Q 43.84375 -1.421875 31.78125 -1.421875 
Q 19.734375 -1.421875 13.25 4.234375 
Q 6.78125 9.90625 6.78125 20.515625 
Q 6.78125 27.484375 10.78125 32.3125 
Q 14.796875 37.15625 21.921875 38.8125 
z
M 18.3125 54.390625 
Q 18.3125 48.734375 21.84375 45.5625 
Q 25.390625 42.390625 31.78125 42.390625 
Q 38.140625 42.390625 41.71875 45.5625 
Q 45.3125 48.734375 45.3125 54.390625 
Q 45.3125 60.0625 41.71875 63.234375 
Q 38.140625 66.40625 31.78125 66.40625 
Q 25.390625 66.40625 21.84375 63.234375 
Q 18.3125 60.0625 18.3125 54.390625 
z
" id="DejaVuSans-56"/>
      </defs>
      <g transform="translate(675.680597 544.452384)rotate(-30)scale(0.13 -0.13)">
       <use xlink:href="#DejaVuSans-50"/>
       <use x="63.623047" xlink:href="#DejaVuSans-48"/>
       <use x="127.246094" xlink:href="#DejaVuSans-50"/>
       <use x="190.869141" xlink:href="#DejaVuSans-48"/>
       <use x="254.492188" xlink:href="#DejaVuSans-45"/>
       <use x="290.576172" xlink:href="#DejaVuSans-48"/>
       <use x="354.199219" xlink:href="#DejaVuSans-56"/>
      </g>
     </g>
    </g>
    <g id="xtick_7">
     <g id="line2d_7">
      <g>
       <use style="stroke:#000000;stroke-width:0.8;" x="857.339428" xlink:href="#m4c993d0f27" y="501.738984"/>
      </g>
     </g>
     <g id="text_7">
      <!-- 2020-09 -->
      <defs>
       <path d="M 10.984375 1.515625 
L 10.984375 10.5 
Q 14.703125 8.734375 18.5 7.8125 
Q 22.3125 6.890625 25.984375 6.890625 
Q 35.75 6.890625 40.890625 13.453125 
Q 46.046875 20.015625 46.78125 33.40625 
Q 43.953125 29.203125 39.59375 26.953125 
Q 35.25 24.703125 29.984375 24.703125 
Q 19.046875 24.703125 12.671875 31.3125 
Q 6.296875 37.9375 6.296875 49.421875 
Q 6.296875 60.640625 12.9375 67.421875 
Q 19.578125 74.21875 30.609375 74.21875 
Q 43.265625 74.21875 49.921875 64.515625 
Q 56.59375 54.828125 56.59375 36.375 
Q 56.59375 19.140625 48.40625 8.859375 
Q 40.234375 -1.421875 26.421875 -1.421875 
Q 22.703125 -1.421875 18.890625 -0.6875 
Q 15.09375 0.046875 10.984375 1.515625 
z
M 30.609375 32.421875 
Q 37.25 32.421875 41.125 36.953125 
Q 45.015625 41.5 45.015625 49.421875 
Q 45.015625 57.28125 41.125 61.84375 
Q 37.25 66.40625 30.609375 66.40625 
Q 23.96875 66.40625 20.09375 61.84375 
Q 16.21875 57.28125 16.21875 49.421875 
Q 16.21875 41.5 20.09375 36.953125 
Q 23.96875 32.421875 30.609375 32.421875 
z
" id="DejaVuSans-57"/>
      </defs>
      <g transform="translate(808.947161 544.452384)rotate(-30)scale(0.13 -0.13)">
       <use xlink:href="#DejaVuSans-50"/>
       <use x="63.623047" xlink:href="#DejaVuSans-48"/>
       <use x="127.246094" xlink:href="#DejaVuSans-50"/>
       <use x="190.869141" xlink:href="#DejaVuSans-48"/>
       <use x="254.492188" xlink:href="#DejaVuSans-45"/>
       <use x="290.576172" xlink:href="#DejaVuSans-48"/>
       <use x="354.199219" xlink:href="#DejaVuSans-57"/>
      </g>
     </g>
    </g>
    <g id="xtick_8">
     <g id="line2d_8">
      <g>
       <use style="stroke:#000000;stroke-width:0.8;" x="986.30707" xlink:href="#m4c993d0f27" y="501.738984"/>
      </g>
     </g>
     <g id="text_8">
      <!-- 2020-10 -->
      <defs>
       <path d="M 12.40625 8.296875 
L 28.515625 8.296875 
L 28.515625 63.921875 
L 10.984375 60.40625 
L 10.984375 69.390625 
L 28.421875 72.90625 
L 38.28125 72.90625 
L 38.28125 8.296875 
L 54.390625 8.296875 
L 54.390625 0 
L 12.40625 0 
z
" id="DejaVuSans-49"/>
      </defs>
      <g transform="translate(937.914803 544.452384)rotate(-30)scale(0.13 -0.13)">
       <use xlink:href="#DejaVuSans-50"/>
       <use x="63.623047" xlink:href="#DejaVuSans-48"/>
       <use x="127.246094" xlink:href="#DejaVuSans-50"/>
       <use x="190.869141" xlink:href="#DejaVuSans-48"/>
       <use x="254.492188" xlink:href="#DejaVuSans-45"/>
       <use x="290.576172" xlink:href="#DejaVuSans-49"/>
       <use x="354.199219" xlink:href="#DejaVuSans-48"/>
      </g>
     </g>
    </g>
    <g id="xtick_9">
     <g id="line2d_9">
      <g>
       <use style="stroke:#000000;stroke-width:0.8;" x="1119.573634" xlink:href="#m4c993d0f27" y="501.738984"/>
      </g>
     </g>
     <g id="text_9">
      <!-- 2020-11 -->
      <g transform="translate(1071.181367 544.452384)rotate(-30)scale(0.13 -0.13)">
       <use xlink:href="#DejaVuSans-50"/>
       <use x="63.623047" xlink:href="#DejaVuSans-48"/>
       <use x="127.246094" xlink:href="#DejaVuSans-50"/>
       <use x="190.869141" xlink:href="#DejaVuSans-48"/>
       <use x="254.492188" xlink:href="#DejaVuSans-45"/>
       <use x="290.576172" xlink:href="#DejaVuSans-49"/>
       <use x="354.199219" xlink:href="#DejaVuSans-49"/>
      </g>
     </g>
    </g>
   </g>
   <g id="matplotlib.axis_2">
    <g id="ytick_1">
     <g id="line2d_10">
      <path clip-path="url(#p6bb3f04878)" d="M 62.89875 484.480357 
L 1178.89875 484.480357 
" style="fill:none;stroke:#b0b0b0;stroke-linecap:square;stroke-width:0.8;"/>
     </g>
     <g id="line2d_11">
      <defs>
       <path d="M 0 0 
L -3.5 0 
" id="m95681390b5" style="stroke:#000000;stroke-width:0.8;"/>
      </defs>
      <g>
       <use style="stroke:#000000;stroke-width:0.8;" x="62.89875" xlink:href="#m95681390b5" y="484.480357"/>
      </g>
     </g>
     <g id="text_10">
      <!-- 0 -->
      <g transform="translate(47.6275 489.419342)scale(0.13 -0.13)">
       <use xlink:href="#DejaVuSans-48"/>
      </g>
     </g>
    </g>
    <g id="ytick_2">
     <g id="line2d_12">
      <path clip-path="url(#p6bb3f04878)" d="M 62.89875 466.313381 
L 1178.89875 466.313381 
" style="fill:none;stroke:#b0b0b0;stroke-linecap:square;stroke-width:0.8;"/>
     </g>
     <g id="line2d_13">
      <g>
       <use style="stroke:#000000;stroke-width:0.8;" x="62.89875" xlink:href="#m95681390b5" y="466.313381"/>
      </g>
     </g>
     <g id="text_11">
      <!-- 100 -->
      <g transform="translate(31.085 471.252366)scale(0.13 -0.13)">
       <use xlink:href="#DejaVuSans-49"/>
       <use x="63.623047" xlink:href="#DejaVuSans-48"/>
       <use x="127.246094" xlink:href="#DejaVuSans-48"/>
      </g>
     </g>
    </g>
    <g id="ytick_3">
     <g id="line2d_14">
      <path clip-path="url(#p6bb3f04878)" d="M 62.89875 448.146406 
L 1178.89875 448.146406 
" style="fill:none;stroke:#b0b0b0;stroke-linecap:square;stroke-width:0.8;"/>
     </g>
     <g id="line2d_15">
      <g>
       <use style="stroke:#000000;stroke-width:0.8;" x="62.89875" xlink:href="#m95681390b5" y="448.146406"/>
      </g>
     </g>
     <g id="text_12">
      <!-- 200 -->
      <g transform="translate(31.085 453.08539)scale(0.13 -0.13)">
       <use xlink:href="#DejaVuSans-50"/>
       <use x="63.623047" xlink:href="#DejaVuSans-48"/>
       <use x="127.246094" xlink:href="#DejaVuSans-48"/>
      </g>
     </g>
    </g>
    <g id="ytick_4">
     <g id="line2d_16">
      <path clip-path="url(#p6bb3f04878)" d="M 62.89875 429.97943 
L 1178.89875 429.97943 
" style="fill:none;stroke:#b0b0b0;stroke-linecap:square;stroke-width:0.8;"/>
     </g>
     <g id="line2d_17">
      <g>
       <use style="stroke:#000000;stroke-width:0.8;" x="62.89875" xlink:href="#m95681390b5" y="429.97943"/>
      </g>
     </g>
     <g id="text_13">
      <!-- 300 -->
      <g transform="translate(31.085 434.918414)scale(0.13 -0.13)">
       <use xlink:href="#DejaVuSans-51"/>
       <use x="63.623047" xlink:href="#DejaVuSans-48"/>
       <use x="127.246094" xlink:href="#DejaVuSans-48"/>
      </g>
     </g>
    </g>
    <g id="ytick_5">
     <g id="line2d_18">
      <path clip-path="url(#p6bb3f04878)" d="M 62.89875 411.812454 
L 1178.89875 411.812454 
" style="fill:none;stroke:#b0b0b0;stroke-linecap:square;stroke-width:0.8;"/>
     </g>
     <g id="line2d_19">
      <g>
       <use style="stroke:#000000;stroke-width:0.8;" x="62.89875" xlink:href="#m95681390b5" y="411.812454"/>
      </g>
     </g>
     <g id="text_14">
      <!-- 400 -->
      <g transform="translate(31.085 416.751438)scale(0.13 -0.13)">
       <use xlink:href="#DejaVuSans-52"/>
       <use x="63.623047" xlink:href="#DejaVuSans-48"/>
       <use x="127.246094" xlink:href="#DejaVuSans-48"/>
      </g>
     </g>
    </g>
    <g id="ytick_6">
     <g id="line2d_20">
      <path clip-path="url(#p6bb3f04878)" d="M 62.89875 393.645478 
L 1178.89875 393.645478 
" style="fill:none;stroke:#b0b0b0;stroke-linecap:square;stroke-width:0.8;"/>
     </g>
     <g id="line2d_21">
      <g>
       <use style="stroke:#000000;stroke-width:0.8;" x="62.89875" xlink:href="#m95681390b5" y="393.645478"/>
      </g>
     </g>
     <g id="text_15">
      <!-- 500 -->
      <g transform="translate(31.085 398.584462)scale(0.13 -0.13)">
       <use xlink:href="#DejaVuSans-53"/>
       <use x="63.623047" xlink:href="#DejaVuSans-48"/>
       <use x="127.246094" xlink:href="#DejaVuSans-48"/>
      </g>
     </g>
    </g>
    <g id="ytick_7">
     <g id="line2d_22">
      <path clip-path="url(#p6bb3f04878)" d="M 62.89875 375.478502 
L 1178.89875 375.478502 
" style="fill:none;stroke:#b0b0b0;stroke-linecap:square;stroke-width:0.8;"/>
     </g>
     <g id="line2d_23">
      <g>
       <use style="stroke:#000000;stroke-width:0.8;" x="62.89875" xlink:href="#m95681390b5" y="375.478502"/>
      </g>
     </g>
     <g id="text_16">
      <!-- 600 -->
      <g transform="translate(31.085 380.417486)scale(0.13 -0.13)">
       <use xlink:href="#DejaVuSans-54"/>
       <use x="63.623047" xlink:href="#DejaVuSans-48"/>
       <use x="127.246094" xlink:href="#DejaVuSans-48"/>
      </g>
     </g>
    </g>
    <g id="ytick_8">
     <g id="line2d_24">
      <path clip-path="url(#p6bb3f04878)" d="M 62.89875 357.311526 
L 1178.89875 357.311526 
" style="fill:none;stroke:#b0b0b0;stroke-linecap:square;stroke-width:0.8;"/>
     </g>
     <g id="line2d_25">
      <g>
       <use style="stroke:#000000;stroke-width:0.8;" x="62.89875" xlink:href="#m95681390b5" y="357.311526"/>
      </g>
     </g>
     <g id="text_17">
      <!-- 700 -->
      <g transform="translate(31.085 362.25051)scale(0.13 -0.13)">
       <use xlink:href="#DejaVuSans-55"/>
       <use x="63.623047" xlink:href="#DejaVuSans-48"/>
       <use x="127.246094" xlink:href="#DejaVuSans-48"/>
      </g>
     </g>
    </g>
    <g id="ytick_9">
     <g id="line2d_26">
      <path clip-path="url(#p6bb3f04878)" d="M 62.89875 339.14455 
L 1178.89875 339.14455 
" style="fill:none;stroke:#b0b0b0;stroke-linecap:square;stroke-width:0.8;"/>
     </g>
     <g id="line2d_27">
      <g>
       <use style="stroke:#000000;stroke-width:0.8;" x="62.89875" xlink:href="#m95681390b5" y="339.14455"/>
      </g>
     </g>
     <g id="text_18">
      <!-- 800 -->
      <g transform="translate(31.085 344.083535)scale(0.13 -0.13)">
       <use xlink:href="#DejaVuSans-56"/>
       <use x="63.623047" xlink:href="#DejaVuSans-48"/>
       <use x="127.246094" xlink:href="#DejaVuSans-48"/>
      </g>
     </g>
    </g>
    <g id="ytick_10">
     <g id="line2d_28">
      <path clip-path="url(#p6bb3f04878)" d="M 62.89875 320.977574 
L 1178.89875 320.977574 
" style="fill:none;stroke:#b0b0b0;stroke-linecap:square;stroke-width:0.8;"/>
     </g>
     <g id="line2d_29">
      <g>
       <use style="stroke:#000000;stroke-width:0.8;" x="62.89875" xlink:href="#m95681390b5" y="320.977574"/>
      </g>
     </g>
     <g id="text_19">
      <!-- 900 -->
      <g transform="translate(31.085 325.916559)scale(0.13 -0.13)">
       <use xlink:href="#DejaVuSans-57"/>
       <use x="63.623047" xlink:href="#DejaVuSans-48"/>
       <use x="127.246094" xlink:href="#DejaVuSans-48"/>
      </g>
     </g>
    </g>
    <g id="ytick_11">
     <g id="line2d_30">
      <path clip-path="url(#p6bb3f04878)" d="M 62.89875 302.810598 
L 1178.89875 302.810598 
" style="fill:none;stroke:#b0b0b0;stroke-linecap:square;stroke-width:0.8;"/>
     </g>
     <g id="line2d_31">
      <g>
       <use style="stroke:#000000;stroke-width:0.8;" x="62.89875" xlink:href="#m95681390b5" y="302.810598"/>
      </g>
     </g>
     <g id="text_20">
      <!-- 1000 -->
      <g transform="translate(22.81375 307.749583)scale(0.13 -0.13)">
       <use xlink:href="#DejaVuSans-49"/>
       <use x="63.623047" xlink:href="#DejaVuSans-48"/>
       <use x="127.246094" xlink:href="#DejaVuSans-48"/>
       <use x="190.869141" xlink:href="#DejaVuSans-48"/>
      </g>
     </g>
    </g>
    <g id="ytick_12">
     <g id="line2d_32">
      <path clip-path="url(#p6bb3f04878)" d="M 62.89875 284.643623 
L 1178.89875 284.643623 
" style="fill:none;stroke:#b0b0b0;stroke-linecap:square;stroke-width:0.8;"/>
     </g>
     <g id="line2d_33">
      <g>
       <use style="stroke:#000000;stroke-width:0.8;" x="62.89875" xlink:href="#m95681390b5" y="284.643623"/>
      </g>
     </g>
     <g id="text_21">
      <!-- 1100 -->
      <g transform="translate(22.81375 289.582607)scale(0.13 -0.13)">
       <use xlink:href="#DejaVuSans-49"/>
       <use x="63.623047" xlink:href="#DejaVuSans-49"/>
       <use x="127.246094" xlink:href="#DejaVuSans-48"/>
       <use x="190.869141" xlink:href="#DejaVuSans-48"/>
      </g>
     </g>
    </g>
    <g id="ytick_13">
     <g id="line2d_34">
      <path clip-path="url(#p6bb3f04878)" d="M 62.89875 266.476647 
L 1178.89875 266.476647 
" style="fill:none;stroke:#b0b0b0;stroke-linecap:square;stroke-width:0.8;"/>
     </g>
     <g id="line2d_35">
      <g>
       <use style="stroke:#000000;stroke-width:0.8;" x="62.89875" xlink:href="#m95681390b5" y="266.476647"/>
      </g>
     </g>
     <g id="text_22">
      <!-- 1200 -->
      <g transform="translate(22.81375 271.415631)scale(0.13 -0.13)">
       <use xlink:href="#DejaVuSans-49"/>
       <use x="63.623047" xlink:href="#DejaVuSans-50"/>
       <use x="127.246094" xlink:href="#DejaVuSans-48"/>
       <use x="190.869141" xlink:href="#DejaVuSans-48"/>
      </g>
     </g>
    </g>
    <g id="ytick_14">
     <g id="line2d_36">
      <path clip-path="url(#p6bb3f04878)" d="M 62.89875 248.309671 
L 1178.89875 248.309671 
" style="fill:none;stroke:#b0b0b0;stroke-linecap:square;stroke-width:0.8;"/>
     </g>
     <g id="line2d_37">
      <g>
       <use style="stroke:#000000;stroke-width:0.8;" x="62.89875" xlink:href="#m95681390b5" y="248.309671"/>
      </g>
     </g>
     <g id="text_23">
      <!-- 1300 -->
      <g transform="translate(22.81375 253.248655)scale(0.13 -0.13)">
       <use xlink:href="#DejaVuSans-49"/>
       <use x="63.623047" xlink:href="#DejaVuSans-51"/>
       <use x="127.246094" xlink:href="#DejaVuSans-48"/>
       <use x="190.869141" xlink:href="#DejaVuSans-48"/>
      </g>
     </g>
    </g>
    <g id="ytick_15">
     <g id="line2d_38">
      <path clip-path="url(#p6bb3f04878)" d="M 62.89875 230.142695 
L 1178.89875 230.142695 
" style="fill:none;stroke:#b0b0b0;stroke-linecap:square;stroke-width:0.8;"/>
     </g>
     <g id="line2d_39">
      <g>
       <use style="stroke:#000000;stroke-width:0.8;" x="62.89875" xlink:href="#m95681390b5" y="230.142695"/>
      </g>
     </g>
     <g id="text_24">
      <!-- 1400 -->
      <g transform="translate(22.81375 235.081679)scale(0.13 -0.13)">
       <use xlink:href="#DejaVuSans-49"/>
       <use x="63.623047" xlink:href="#DejaVuSans-52"/>
       <use x="127.246094" xlink:href="#DejaVuSans-48"/>
       <use x="190.869141" xlink:href="#DejaVuSans-48"/>
      </g>
     </g>
    </g>
    <g id="ytick_16">
     <g id="line2d_40">
      <path clip-path="url(#p6bb3f04878)" d="M 62.89875 211.975719 
L 1178.89875 211.975719 
" style="fill:none;stroke:#b0b0b0;stroke-linecap:square;stroke-width:0.8;"/>
     </g>
     <g id="line2d_41">
      <g>
       <use style="stroke:#000000;stroke-width:0.8;" x="62.89875" xlink:href="#m95681390b5" y="211.975719"/>
      </g>
     </g>
     <g id="text_25">
      <!-- 1500 -->
      <g transform="translate(22.81375 216.914703)scale(0.13 -0.13)">
       <use xlink:href="#DejaVuSans-49"/>
       <use x="63.623047" xlink:href="#DejaVuSans-53"/>
       <use x="127.246094" xlink:href="#DejaVuSans-48"/>
       <use x="190.869141" xlink:href="#DejaVuSans-48"/>
      </g>
     </g>
    </g>
    <g id="ytick_17">
     <g id="line2d_42">
      <path clip-path="url(#p6bb3f04878)" d="M 62.89875 193.808743 
L 1178.89875 193.808743 
" style="fill:none;stroke:#b0b0b0;stroke-linecap:square;stroke-width:0.8;"/>
     </g>
     <g id="line2d_43">
      <g>
       <use style="stroke:#000000;stroke-width:0.8;" x="62.89875" xlink:href="#m95681390b5" y="193.808743"/>
      </g>
     </g>
     <g id="text_26">
      <!-- 1600 -->
      <g transform="translate(22.81375 198.747728)scale(0.13 -0.13)">
       <use xlink:href="#DejaVuSans-49"/>
       <use x="63.623047" xlink:href="#DejaVuSans-54"/>
       <use x="127.246094" xlink:href="#DejaVuSans-48"/>
       <use x="190.869141" xlink:href="#DejaVuSans-48"/>
      </g>
     </g>
    </g>
    <g id="ytick_18">
     <g id="line2d_44">
      <path clip-path="url(#p6bb3f04878)" d="M 62.89875 175.641767 
L 1178.89875 175.641767 
" style="fill:none;stroke:#b0b0b0;stroke-linecap:square;stroke-width:0.8;"/>
     </g>
     <g id="line2d_45">
      <g>
       <use style="stroke:#000000;stroke-width:0.8;" x="62.89875" xlink:href="#m95681390b5" y="175.641767"/>
      </g>
     </g>
     <g id="text_27">
      <!-- 1700 -->
      <g transform="translate(22.81375 180.580752)scale(0.13 -0.13)">
       <use xlink:href="#DejaVuSans-49"/>
       <use x="63.623047" xlink:href="#DejaVuSans-55"/>
       <use x="127.246094" xlink:href="#DejaVuSans-48"/>
       <use x="190.869141" xlink:href="#DejaVuSans-48"/>
      </g>
     </g>
    </g>
    <g id="ytick_19">
     <g id="line2d_46">
      <path clip-path="url(#p6bb3f04878)" d="M 62.89875 157.474791 
L 1178.89875 157.474791 
" style="fill:none;stroke:#b0b0b0;stroke-linecap:square;stroke-width:0.8;"/>
     </g>
     <g id="line2d_47">
      <g>
       <use style="stroke:#000000;stroke-width:0.8;" x="62.89875" xlink:href="#m95681390b5" y="157.474791"/>
      </g>
     </g>
     <g id="text_28">
      <!-- 1800 -->
      <g transform="translate(22.81375 162.413776)scale(0.13 -0.13)">
       <use xlink:href="#DejaVuSans-49"/>
       <use x="63.623047" xlink:href="#DejaVuSans-56"/>
       <use x="127.246094" xlink:href="#DejaVuSans-48"/>
       <use x="190.869141" xlink:href="#DejaVuSans-48"/>
      </g>
     </g>
    </g>
    <g id="ytick_20">
     <g id="line2d_48">
      <path clip-path="url(#p6bb3f04878)" d="M 62.89875 139.307816 
L 1178.89875 139.307816 
" style="fill:none;stroke:#b0b0b0;stroke-linecap:square;stroke-width:0.8;"/>
     </g>
     <g id="line2d_49">
      <g>
       <use style="stroke:#000000;stroke-width:0.8;" x="62.89875" xlink:href="#m95681390b5" y="139.307816"/>
      </g>
     </g>
     <g id="text_29">
      <!-- 1900 -->
      <g transform="translate(22.81375 144.2468)scale(0.13 -0.13)">
       <use xlink:href="#DejaVuSans-49"/>
       <use x="63.623047" xlink:href="#DejaVuSans-57"/>
       <use x="127.246094" xlink:href="#DejaVuSans-48"/>
       <use x="190.869141" xlink:href="#DejaVuSans-48"/>
      </g>
     </g>
    </g>
    <g id="ytick_21">
     <g id="line2d_50">
      <path clip-path="url(#p6bb3f04878)" d="M 62.89875 121.14084 
L 1178.89875 121.14084 
" style="fill:none;stroke:#b0b0b0;stroke-linecap:square;stroke-width:0.8;"/>
     </g>
     <g id="line2d_51">
      <g>
       <use style="stroke:#000000;stroke-width:0.8;" x="62.89875" xlink:href="#m95681390b5" y="121.14084"/>
      </g>
     </g>
     <g id="text_30">
      <!-- 2000 -->
      <g transform="translate(22.81375 126.079824)scale(0.13 -0.13)">
       <use xlink:href="#DejaVuSans-50"/>
       <use x="63.623047" xlink:href="#DejaVuSans-48"/>
       <use x="127.246094" xlink:href="#DejaVuSans-48"/>
       <use x="190.869141" xlink:href="#DejaVuSans-48"/>
      </g>
     </g>
    </g>
    <g id="ytick_22">
     <g id="line2d_52">
      <path clip-path="url(#p6bb3f04878)" d="M 62.89875 102.973864 
L 1178.89875 102.973864 
" style="fill:none;stroke:#b0b0b0;stroke-linecap:square;stroke-width:0.8;"/>
     </g>
     <g id="line2d_53">
      <g>
       <use style="stroke:#000000;stroke-width:0.8;" x="62.89875" xlink:href="#m95681390b5" y="102.973864"/>
      </g>
     </g>
     <g id="text_31">
      <!-- 2100 -->
      <g transform="translate(22.81375 107.912848)scale(0.13 -0.13)">
       <use xlink:href="#DejaVuSans-50"/>
       <use x="63.623047" xlink:href="#DejaVuSans-49"/>
       <use x="127.246094" xlink:href="#DejaVuSans-48"/>
       <use x="190.869141" xlink:href="#DejaVuSans-48"/>
      </g>
     </g>
    </g>
    <g id="ytick_23">
     <g id="line2d_54">
      <path clip-path="url(#p6bb3f04878)" d="M 62.89875 84.806888 
L 1178.89875 84.806888 
" style="fill:none;stroke:#b0b0b0;stroke-linecap:square;stroke-width:0.8;"/>
     </g>
     <g id="line2d_55">
      <g>
       <use style="stroke:#000000;stroke-width:0.8;" x="62.89875" xlink:href="#m95681390b5" y="84.806888"/>
      </g>
     </g>
     <g id="text_32">
      <!-- 2200 -->
      <g transform="translate(22.81375 89.745872)scale(0.13 -0.13)">
       <use xlink:href="#DejaVuSans-50"/>
       <use x="63.623047" xlink:href="#DejaVuSans-50"/>
       <use x="127.246094" xlink:href="#DejaVuSans-48"/>
       <use x="190.869141" xlink:href="#DejaVuSans-48"/>
      </g>
     </g>
    </g>
    <g id="ytick_24">
     <g id="line2d_56">
      <path clip-path="url(#p6bb3f04878)" d="M 62.89875 66.639912 
L 1178.89875 66.639912 
" style="fill:none;stroke:#b0b0b0;stroke-linecap:square;stroke-width:0.8;"/>
     </g>
     <g id="line2d_57">
      <g>
       <use style="stroke:#000000;stroke-width:0.8;" x="62.89875" xlink:href="#m95681390b5" y="66.639912"/>
      </g>
     </g>
     <g id="text_33">
      <!-- 2300 -->
      <g transform="translate(22.81375 71.578896)scale(0.13 -0.13)">
       <use xlink:href="#DejaVuSans-50"/>
       <use x="63.623047" xlink:href="#DejaVuSans-51"/>
       <use x="127.246094" xlink:href="#DejaVuSans-48"/>
       <use x="190.869141" xlink:href="#DejaVuSans-48"/>
      </g>
     </g>
    </g>
    <g id="ytick_25">
     <g id="line2d_58">
      <path clip-path="url(#p6bb3f04878)" d="M 62.89875 48.472936 
L 1178.89875 48.472936 
" style="fill:none;stroke:#b0b0b0;stroke-linecap:square;stroke-width:0.8;"/>
     </g>
     <g id="line2d_59">
      <g>
       <use style="stroke:#000000;stroke-width:0.8;" x="62.89875" xlink:href="#m95681390b5" y="48.472936"/>
      </g>
     </g>
     <g id="text_34">
      <!-- 2400 -->
      <g transform="translate(22.81375 53.411921)scale(0.13 -0.13)">
       <use xlink:href="#DejaVuSans-50"/>
       <use x="63.623047" xlink:href="#DejaVuSans-52"/>
       <use x="127.246094" xlink:href="#DejaVuSans-48"/>
       <use x="190.869141" xlink:href="#DejaVuSans-48"/>
      </g>
     </g>
    </g>
    <g id="ytick_26">
     <g id="line2d_60">
      <path clip-path="url(#p6bb3f04878)" d="M 62.89875 30.30596 
L 1178.89875 30.30596 
" style="fill:none;stroke:#b0b0b0;stroke-linecap:square;stroke-width:0.8;"/>
     </g>
     <g id="line2d_61">
      <g>
       <use style="stroke:#000000;stroke-width:0.8;" x="62.89875" xlink:href="#m95681390b5" y="30.30596"/>
      </g>
     </g>
     <g id="text_35">
      <!-- 2500 -->
      <g transform="translate(22.81375 35.244945)scale(0.13 -0.13)">
       <use xlink:href="#DejaVuSans-50"/>
       <use x="63.623047" xlink:href="#DejaVuSans-53"/>
       <use x="127.246094" xlink:href="#DejaVuSans-48"/>
       <use x="190.869141" xlink:href="#DejaVuSans-48"/>
      </g>
     </g>
    </g>
    <g id="ytick_27">
     <g id="line2d_62">
      <path clip-path="url(#p6bb3f04878)" d="M 62.89875 12.138984 
L 1178.89875 12.138984 
" style="fill:none;stroke:#b0b0b0;stroke-linecap:square;stroke-width:0.8;"/>
     </g>
     <g id="line2d_63">
      <g>
       <use style="stroke:#000000;stroke-width:0.8;" x="62.89875" xlink:href="#m95681390b5" y="12.138984"/>
      </g>
     </g>
     <g id="text_36">
      <!-- 2600 -->
      <g transform="translate(22.81375 17.077969)scale(0.13 -0.13)">
       <use xlink:href="#DejaVuSans-50"/>
       <use x="63.623047" xlink:href="#DejaVuSans-54"/>
       <use x="127.246094" xlink:href="#DejaVuSans-48"/>
       <use x="190.869141" xlink:href="#DejaVuSans-48"/>
      </g>
     </g>
    </g>
    <g id="text_37">
     <!-- Anzahl von Fällen -->
     <defs>
      <path d="M 34.1875 63.1875 
L 20.796875 26.90625 
L 47.609375 26.90625 
z
M 28.609375 72.90625 
L 39.796875 72.90625 
L 67.578125 0 
L 57.328125 0 
L 50.6875 18.703125 
L 17.828125 18.703125 
L 11.1875 0 
L 0.78125 0 
z
" id="DejaVuSans-65"/>
      <path d="M 54.890625 33.015625 
L 54.890625 0 
L 45.90625 0 
L 45.90625 32.71875 
Q 45.90625 40.484375 42.875 44.328125 
Q 39.84375 48.1875 33.796875 48.1875 
Q 26.515625 48.1875 22.3125 43.546875 
Q 18.109375 38.921875 18.109375 30.90625 
L 18.109375 0 
L 9.078125 0 
L 9.078125 54.6875 
L 18.109375 54.6875 
L 18.109375 46.1875 
Q 21.34375 51.125 25.703125 53.5625 
Q 30.078125 56 35.796875 56 
Q 45.21875 56 50.046875 50.171875 
Q 54.890625 44.34375 54.890625 33.015625 
z
" id="DejaVuSans-110"/>
      <path d="M 5.515625 54.6875 
L 48.1875 54.6875 
L 48.1875 46.484375 
L 14.40625 7.171875 
L 48.1875 7.171875 
L 48.1875 0 
L 4.296875 0 
L 4.296875 8.203125 
L 38.09375 47.515625 
L 5.515625 47.515625 
z
" id="DejaVuSans-122"/>
      <path d="M 34.28125 27.484375 
Q 23.390625 27.484375 19.1875 25 
Q 14.984375 22.515625 14.984375 16.5 
Q 14.984375 11.71875 18.140625 8.90625 
Q 21.296875 6.109375 26.703125 6.109375 
Q 34.1875 6.109375 38.703125 11.40625 
Q 43.21875 16.703125 43.21875 25.484375 
L 43.21875 27.484375 
z
M 52.203125 31.203125 
L 52.203125 0 
L 43.21875 0 
L 43.21875 8.296875 
Q 40.140625 3.328125 35.546875 0.953125 
Q 30.953125 -1.421875 24.3125 -1.421875 
Q 15.921875 -1.421875 10.953125 3.296875 
Q 6 8.015625 6 15.921875 
Q 6 25.140625 12.171875 29.828125 
Q 18.359375 34.515625 30.609375 34.515625 
L 43.21875 34.515625 
L 43.21875 35.40625 
Q 43.21875 41.609375 39.140625 45 
Q 35.0625 48.390625 27.6875 48.390625 
Q 23 48.390625 18.546875 47.265625 
Q 14.109375 46.140625 10.015625 43.890625 
L 10.015625 52.203125 
Q 14.9375 54.109375 19.578125 55.046875 
Q 24.21875 56 28.609375 56 
Q 40.484375 56 46.34375 49.84375 
Q 52.203125 43.703125 52.203125 31.203125 
z
" id="DejaVuSans-97"/>
      <path d="M 54.890625 33.015625 
L 54.890625 0 
L 45.90625 0 
L 45.90625 32.71875 
Q 45.90625 40.484375 42.875 44.328125 
Q 39.84375 48.1875 33.796875 48.1875 
Q 26.515625 48.1875 22.3125 43.546875 
Q 18.109375 38.921875 18.109375 30.90625 
L 18.109375 0 
L 9.078125 0 
L 9.078125 75.984375 
L 18.109375 75.984375 
L 18.109375 46.1875 
Q 21.34375 51.125 25.703125 53.5625 
Q 30.078125 56 35.796875 56 
Q 45.21875 56 50.046875 50.171875 
Q 54.890625 44.34375 54.890625 33.015625 
z
" id="DejaVuSans-104"/>
      <path d="M 9.421875 75.984375 
L 18.40625 75.984375 
L 18.40625 0 
L 9.421875 0 
z
" id="DejaVuSans-108"/>
      <path id="DejaVuSans-32"/>
      <path d="M 2.984375 54.6875 
L 12.5 54.6875 
L 29.59375 8.796875 
L 46.6875 54.6875 
L 56.203125 54.6875 
L 35.6875 0 
L 23.484375 0 
z
" id="DejaVuSans-118"/>
      <path d="M 30.609375 48.390625 
Q 23.390625 48.390625 19.1875 42.75 
Q 14.984375 37.109375 14.984375 27.296875 
Q 14.984375 17.484375 19.15625 11.84375 
Q 23.34375 6.203125 30.609375 6.203125 
Q 37.796875 6.203125 41.984375 11.859375 
Q 46.1875 17.53125 46.1875 27.296875 
Q 46.1875 37.015625 41.984375 42.703125 
Q 37.796875 48.390625 30.609375 48.390625 
z
M 30.609375 56 
Q 42.328125 56 49.015625 48.375 
Q 55.71875 40.765625 55.71875 27.296875 
Q 55.71875 13.875 49.015625 6.21875 
Q 42.328125 -1.421875 30.609375 -1.421875 
Q 18.84375 -1.421875 12.171875 6.21875 
Q 5.515625 13.875 5.515625 27.296875 
Q 5.515625 40.765625 12.171875 48.375 
Q 18.84375 56 30.609375 56 
z
" id="DejaVuSans-111"/>
      <path d="M 9.8125 72.90625 
L 51.703125 72.90625 
L 51.703125 64.59375 
L 19.671875 64.59375 
L 19.671875 43.109375 
L 48.578125 43.109375 
L 48.578125 34.8125 
L 19.671875 34.8125 
L 19.671875 0 
L 9.8125 0 
z
" id="DejaVuSans-70"/>
      <path d="M 34.28125 27.484375 
Q 23.390625 27.484375 19.1875 25 
Q 14.984375 22.515625 14.984375 16.5 
Q 14.984375 11.71875 18.140625 8.90625 
Q 21.296875 6.109375 26.703125 6.109375 
Q 34.1875 6.109375 38.703125 11.40625 
Q 43.21875 16.703125 43.21875 25.484375 
L 43.21875 27.484375 
z
M 52.203125 31.203125 
L 52.203125 0 
L 43.21875 0 
L 43.21875 8.296875 
Q 40.140625 3.328125 35.546875 0.953125 
Q 30.953125 -1.421875 24.3125 -1.421875 
Q 15.921875 -1.421875 10.953125 3.296875 
Q 6 8.015625 6 15.921875 
Q 6 25.140625 12.171875 29.828125 
Q 18.359375 34.515625 30.609375 34.515625 
L 43.21875 34.515625 
L 43.21875 35.40625 
Q 43.21875 41.609375 39.140625 45 
Q 35.0625 48.390625 27.6875 48.390625 
Q 23 48.390625 18.546875 47.265625 
Q 14.109375 46.140625 10.015625 43.890625 
L 10.015625 52.203125 
Q 14.9375 54.109375 19.578125 55.046875 
Q 24.21875 56 28.609375 56 
Q 40.484375 56 46.34375 49.84375 
Q 52.203125 43.703125 52.203125 31.203125 
z
M 33.59375 75.78125 
L 43.5 75.78125 
L 43.5 65.921875 
L 33.59375 65.921875 
z
M 14.5 75.78125 
L 24.40625 75.78125 
L 24.40625 65.921875 
L 14.5 65.921875 
z
" id="DejaVuSans-228"/>
      <path d="M 56.203125 29.59375 
L 56.203125 25.203125 
L 14.890625 25.203125 
Q 15.484375 15.921875 20.484375 11.0625 
Q 25.484375 6.203125 34.421875 6.203125 
Q 39.59375 6.203125 44.453125 7.46875 
Q 49.3125 8.734375 54.109375 11.28125 
L 54.109375 2.78125 
Q 49.265625 0.734375 44.1875 -0.34375 
Q 39.109375 -1.421875 33.890625 -1.421875 
Q 20.796875 -1.421875 13.15625 6.1875 
Q 5.515625 13.8125 5.515625 26.8125 
Q 5.515625 40.234375 12.765625 48.109375 
Q 20.015625 56 32.328125 56 
Q 43.359375 56 49.78125 48.890625 
Q 56.203125 41.796875 56.203125 29.59375 
z
M 47.21875 32.234375 
Q 47.125 39.59375 43.09375 43.984375 
Q 39.0625 48.390625 32.421875 48.390625 
Q 24.90625 48.390625 20.390625 44.140625 
Q 15.875 39.890625 15.1875 32.171875 
z
" id="DejaVuSans-101"/>
     </defs>
     <g transform="translate(16.318125 309.388359)rotate(-90)scale(0.12 -0.12)">
      <use xlink:href="#DejaVuSans-65"/>
      <use x="68.408203" xlink:href="#DejaVuSans-110"/>
      <use x="131.787109" xlink:href="#DejaVuSans-122"/>
      <use x="184.277344" xlink:href="#DejaVuSans-97"/>
      <use x="245.556641" xlink:href="#DejaVuSans-104"/>
      <use x="308.935547" xlink:href="#DejaVuSans-108"/>
      <use x="336.71875" xlink:href="#DejaVuSans-32"/>
      <use x="368.505859" xlink:href="#DejaVuSans-118"/>
      <use x="427.685547" xlink:href="#DejaVuSans-111"/>
      <use x="488.867188" xlink:href="#DejaVuSans-110"/>
      <use x="552.246094" xlink:href="#DejaVuSans-32"/>
      <use x="584.033203" xlink:href="#DejaVuSans-70"/>
      <use x="632.427734" xlink:href="#DejaVuSans-228"/>
      <use x="693.707031" xlink:href="#DejaVuSans-108"/>
      <use x="721.490234" xlink:href="#DejaVuSans-108"/>
      <use x="749.273438" xlink:href="#DejaVuSans-101"/>
      <use x="810.796875" xlink:href="#DejaVuSans-110"/>
     </g>
    </g>
   </g>
   <g id="line2d_64">
    <path clip-path="url(#p6bb3f04878)" d="M 113.626023 484.480357 
L 139.419551 484.480357 
L 148.017394 483.935348 
L 152.316315 482.48199 
L 156.615237 482.48199 
L 160.914158 482.30032 
L 165.21308 481.755311 
L 169.512001 479.030265 
L 173.810923 477.031897 
L 178.109844 475.941879 
L 182.408765 473.943511 
L 186.707687 470.855125 
L 191.006608 469.946777 
L 195.30553 465.768372 
L 199.604451 457.229893 
L 203.903372 451.96147 
L 208.202294 448.509745 
L 212.501215 444.87635 
L 216.800137 439.789597 
L 221.099058 436.519541 
L 225.39798 433.431155 
L 229.696901 428.526072 
L 233.995822 425.801025 
L 238.294744 420.895942 
L 246.892587 416.717537 
L 255.49043 413.447482 
L 259.789351 405.272342 
L 264.088272 405.272342 
L 268.387194 393.645478 
L 272.686115 388.558725 
L 281.283958 377.658539 
L 285.582879 374.570153 
L 289.881801 374.206814 
L 294.180722 365.850005 
L 298.479644 366.213344 
L 302.778565 362.943289 
L 311.376408 360.399912 
L 319.974251 356.039838 
L 324.273172 353.133122 
L 332.871015 350.044736 
L 341.468858 349.136387 
L 345.767779 347.864699 
L 350.066701 346.048001 
L 354.365622 343.322955 
L 358.664544 340.779578 
L 362.963465 340.597908 
L 371.561308 339.32622 
L 375.860229 337.509522 
L 380.159151 336.964513 
L 384.458072 336.237834 
L 393.055915 334.421137 
L 405.952679 333.876127 
L 410.251601 332.241099 
L 418.849443 329.516053 
L 423.148365 328.607704 
L 431.746208 322.612602 
L 436.045129 320.977574 
L 444.642972 315.345812 
L 448.941893 315.345812 
L 466.137579 313.892454 
L 470.4365 313.892454 
L 474.735422 313.347444 
L 479.034343 307.897352 
L 483.333265 307.897352 
L 491.931107 304.263957 
L 496.230029 298.268855 
L 500.52895 295.362138 
L 509.126793 293.90878 
L 513.425715 293.363771 
L 522.023557 292.637092 
L 530.6214 291.365404 
L 539.219243 290.820394 
L 543.518164 290.820394 
L 552.116007 290.457055 
L 560.71385 290.457055 
L 565.012772 290.275385 
L 586.507379 290.275385 
L 590.8063 289.730376 
L 595.105221 289.730376 
L 599.404143 289.548706 
L 642.393357 289.548706 
L 650.9912 288.458688 
L 676.784728 288.458688 
L 681.08365 288.277018 
L 685.382571 287.732008 
L 689.681493 287.550339 
L 706.877178 287.368669 
L 711.1761 287.368669 
L 715.475021 286.27865 
L 719.773943 286.27865 
L 762.763157 281.918576 
L 767.062078 281.736906 
L 775.659921 280.646888 
L 779.958842 280.646888 
L 792.855607 279.19353 
L 797.154528 279.19353 
L 801.45345 278.648521 
L 805.752371 277.740172 
L 810.051292 277.558502 
L 822.948057 276.105144 
L 827.246978 275.378465 
L 831.545899 275.378465 
L 835.844821 274.470116 
L 840.143742 274.106777 
L 853.040507 274.106777 
L 857.339428 269.928372 
L 861.638349 269.201693 
L 865.937271 267.748335 
L 870.236192 266.113307 
L 891.730799 265.568298 
L 896.029721 264.11494 
L 900.328642 263.388261 
L 913.225406 262.479912 
L 917.524328 262.479912 
L 921.823249 261.389893 
L 926.122171 260.481545 
L 930.421092 260.299875 
L 943.317856 260.118205 
L 947.616778 259.754866 
L 956.214621 258.664847 
L 960.513542 257.211489 
L 973.410306 256.30314 
L 977.709228 256.12147 
L 982.008149 255.576461 
L 990.605992 254.123103 
L 1007.801678 253.214754 
L 1012.100599 251.398057 
L 1016.39952 249.763029 
L 1020.698442 248.85468 
L 1033.595206 246.674643 
L 1037.894128 246.492973 
L 1067.986577 235.592788 
L 1072.285499 233.049411 
L 1076.58442 230.869374 
L 1080.883342 229.416016 
L 1093.780106 222.512565 
L 1098.079027 219.969188 
L 1102.377949 213.429077 
L 1106.67687 208.523994 
L 1110.975792 175.641767 
L 1123.872556 157.474791 
L 1128.171477 139.307816 
L 1128.171477 139.307816 
" style="fill:none;stroke:#dbcd00;stroke-linecap:square;stroke-width:2;"/>
    <defs>
     <path d="M 0 1.5 
C 0.397805 1.5 0.77937 1.341951 1.06066 1.06066 
C 1.341951 0.77937 1.5 0.397805 1.5 0 
C 1.5 -0.397805 1.341951 -0.77937 1.06066 -1.06066 
C 0.77937 -1.341951 0.397805 -1.5 0 -1.5 
C -0.397805 -1.5 -0.77937 -1.341951 -1.06066 -1.06066 
C -1.341951 -0.77937 -1.5 -0.397805 -1.5 0 
C -1.5 0.397805 -1.341951 0.77937 -1.06066 1.06066 
C -0.77937 1.341951 -0.397805 1.5 0 1.5 
z
" id="m5d2e90757a" style="stroke:#dbcd00;"/>
    </defs>
    <g clip-path="url(#p6bb3f04878)">
     <use style="fill:#dbcd00;stroke:#dbcd00;" x="113.626023" xlink:href="#m5d2e90757a" y="484.480357"/>
     <use style="fill:#dbcd00;stroke:#dbcd00;" x="117.924944" xlink:href="#m5d2e90757a" y="484.480357"/>
     <use style="fill:#dbcd00;stroke:#dbcd00;" x="122.223866" xlink:href="#m5d2e90757a" y="484.480357"/>
     <use style="fill:#dbcd00;stroke:#dbcd00;" x="126.522787" xlink:href="#m5d2e90757a" y="484.480357"/>
     <use style="fill:#dbcd00;stroke:#dbcd00;" x="130.821708" xlink:href="#m5d2e90757a" y="484.480357"/>
     <use style="fill:#dbcd00;stroke:#dbcd00;" x="135.12063" xlink:href="#m5d2e90757a" y="484.480357"/>
     <use style="fill:#dbcd00;stroke:#dbcd00;" x="139.419551" xlink:href="#m5d2e90757a" y="484.480357"/>
     <use style="fill:#dbcd00;stroke:#dbcd00;" x="148.017394" xlink:href="#m5d2e90757a" y="483.935348"/>
     <use style="fill:#dbcd00;stroke:#dbcd00;" x="152.316315" xlink:href="#m5d2e90757a" y="482.48199"/>
     <use style="fill:#dbcd00;stroke:#dbcd00;" x="156.615237" xlink:href="#m5d2e90757a" y="482.48199"/>
     <use style="fill:#dbcd00;stroke:#dbcd00;" x="160.914158" xlink:href="#m5d2e90757a" y="482.30032"/>
     <use style="fill:#dbcd00;stroke:#dbcd00;" x="165.21308" xlink:href="#m5d2e90757a" y="481.755311"/>
     <use style="fill:#dbcd00;stroke:#dbcd00;" x="169.512001" xlink:href="#m5d2e90757a" y="479.030265"/>
     <use style="fill:#dbcd00;stroke:#dbcd00;" x="173.810923" xlink:href="#m5d2e90757a" y="477.031897"/>
     <use style="fill:#dbcd00;stroke:#dbcd00;" x="178.109844" xlink:href="#m5d2e90757a" y="475.941879"/>
     <use style="fill:#dbcd00;stroke:#dbcd00;" x="182.408765" xlink:href="#m5d2e90757a" y="473.943511"/>
     <use style="fill:#dbcd00;stroke:#dbcd00;" x="186.707687" xlink:href="#m5d2e90757a" y="470.855125"/>
     <use style="fill:#dbcd00;stroke:#dbcd00;" x="191.006608" xlink:href="#m5d2e90757a" y="469.946777"/>
     <use style="fill:#dbcd00;stroke:#dbcd00;" x="195.30553" xlink:href="#m5d2e90757a" y="465.768372"/>
     <use style="fill:#dbcd00;stroke:#dbcd00;" x="199.604451" xlink:href="#m5d2e90757a" y="457.229893"/>
     <use style="fill:#dbcd00;stroke:#dbcd00;" x="203.903372" xlink:href="#m5d2e90757a" y="451.96147"/>
     <use style="fill:#dbcd00;stroke:#dbcd00;" x="208.202294" xlink:href="#m5d2e90757a" y="448.509745"/>
     <use style="fill:#dbcd00;stroke:#dbcd00;" x="212.501215" xlink:href="#m5d2e90757a" y="444.87635"/>
     <use style="fill:#dbcd00;stroke:#dbcd00;" x="216.800137" xlink:href="#m5d2e90757a" y="439.789597"/>
     <use style="fill:#dbcd00;stroke:#dbcd00;" x="221.099058" xlink:href="#m5d2e90757a" y="436.519541"/>
     <use style="fill:#dbcd00;stroke:#dbcd00;" x="225.39798" xlink:href="#m5d2e90757a" y="433.431155"/>
     <use style="fill:#dbcd00;stroke:#dbcd00;" x="229.696901" xlink:href="#m5d2e90757a" y="428.526072"/>
     <use style="fill:#dbcd00;stroke:#dbcd00;" x="233.995822" xlink:href="#m5d2e90757a" y="425.801025"/>
     <use style="fill:#dbcd00;stroke:#dbcd00;" x="238.294744" xlink:href="#m5d2e90757a" y="420.895942"/>
     <use style="fill:#dbcd00;stroke:#dbcd00;" x="246.892587" xlink:href="#m5d2e90757a" y="416.717537"/>
     <use style="fill:#dbcd00;stroke:#dbcd00;" x="255.49043" xlink:href="#m5d2e90757a" y="413.447482"/>
     <use style="fill:#dbcd00;stroke:#dbcd00;" x="259.789351" xlink:href="#m5d2e90757a" y="405.272342"/>
     <use style="fill:#dbcd00;stroke:#dbcd00;" x="264.088272" xlink:href="#m5d2e90757a" y="405.272342"/>
     <use style="fill:#dbcd00;stroke:#dbcd00;" x="268.387194" xlink:href="#m5d2e90757a" y="393.645478"/>
     <use style="fill:#dbcd00;stroke:#dbcd00;" x="272.686115" xlink:href="#m5d2e90757a" y="388.558725"/>
     <use style="fill:#dbcd00;stroke:#dbcd00;" x="281.283958" xlink:href="#m5d2e90757a" y="377.658539"/>
     <use style="fill:#dbcd00;stroke:#dbcd00;" x="285.582879" xlink:href="#m5d2e90757a" y="374.570153"/>
     <use style="fill:#dbcd00;stroke:#dbcd00;" x="289.881801" xlink:href="#m5d2e90757a" y="374.206814"/>
     <use style="fill:#dbcd00;stroke:#dbcd00;" x="294.180722" xlink:href="#m5d2e90757a" y="365.850005"/>
     <use style="fill:#dbcd00;stroke:#dbcd00;" x="298.479644" xlink:href="#m5d2e90757a" y="366.213344"/>
     <use style="fill:#dbcd00;stroke:#dbcd00;" x="302.778565" xlink:href="#m5d2e90757a" y="362.943289"/>
     <use style="fill:#dbcd00;stroke:#dbcd00;" x="311.376408" xlink:href="#m5d2e90757a" y="360.399912"/>
     <use style="fill:#dbcd00;stroke:#dbcd00;" x="315.675329" xlink:href="#m5d2e90757a" y="358.219875"/>
     <use style="fill:#dbcd00;stroke:#dbcd00;" x="319.974251" xlink:href="#m5d2e90757a" y="356.039838"/>
     <use style="fill:#dbcd00;stroke:#dbcd00;" x="324.273172" xlink:href="#m5d2e90757a" y="353.133122"/>
     <use style="fill:#dbcd00;stroke:#dbcd00;" x="332.871015" xlink:href="#m5d2e90757a" y="350.044736"/>
     <use style="fill:#dbcd00;stroke:#dbcd00;" x="341.468858" xlink:href="#m5d2e90757a" y="349.136387"/>
     <use style="fill:#dbcd00;stroke:#dbcd00;" x="345.767779" xlink:href="#m5d2e90757a" y="347.864699"/>
     <use style="fill:#dbcd00;stroke:#dbcd00;" x="350.066701" xlink:href="#m5d2e90757a" y="346.048001"/>
     <use style="fill:#dbcd00;stroke:#dbcd00;" x="354.365622" xlink:href="#m5d2e90757a" y="343.322955"/>
     <use style="fill:#dbcd00;stroke:#dbcd00;" x="358.664544" xlink:href="#m5d2e90757a" y="340.779578"/>
     <use style="fill:#dbcd00;stroke:#dbcd00;" x="362.963465" xlink:href="#m5d2e90757a" y="340.597908"/>
     <use style="fill:#dbcd00;stroke:#dbcd00;" x="371.561308" xlink:href="#m5d2e90757a" y="339.32622"/>
     <use style="fill:#dbcd00;stroke:#dbcd00;" x="375.860229" xlink:href="#m5d2e90757a" y="337.509522"/>
     <use style="fill:#dbcd00;stroke:#dbcd00;" x="380.159151" xlink:href="#m5d2e90757a" y="336.964513"/>
     <use style="fill:#dbcd00;stroke:#dbcd00;" x="384.458072" xlink:href="#m5d2e90757a" y="336.237834"/>
     <use style="fill:#dbcd00;stroke:#dbcd00;" x="388.756993" xlink:href="#m5d2e90757a" y="335.329485"/>
     <use style="fill:#dbcd00;stroke:#dbcd00;" x="393.055915" xlink:href="#m5d2e90757a" y="334.421137"/>
     <use style="fill:#dbcd00;stroke:#dbcd00;" x="401.653758" xlink:href="#m5d2e90757a" y="334.057797"/>
     <use style="fill:#dbcd00;stroke:#dbcd00;" x="405.952679" xlink:href="#m5d2e90757a" y="333.876127"/>
     <use style="fill:#dbcd00;stroke:#dbcd00;" x="410.251601" xlink:href="#m5d2e90757a" y="332.241099"/>
     <use style="fill:#dbcd00;stroke:#dbcd00;" x="418.849443" xlink:href="#m5d2e90757a" y="329.516053"/>
     <use style="fill:#dbcd00;stroke:#dbcd00;" x="423.148365" xlink:href="#m5d2e90757a" y="328.607704"/>
     <use style="fill:#dbcd00;stroke:#dbcd00;" x="431.746208" xlink:href="#m5d2e90757a" y="322.612602"/>
     <use style="fill:#dbcd00;stroke:#dbcd00;" x="436.045129" xlink:href="#m5d2e90757a" y="320.977574"/>
     <use style="fill:#dbcd00;stroke:#dbcd00;" x="444.642972" xlink:href="#m5d2e90757a" y="315.345812"/>
     <use style="fill:#dbcd00;stroke:#dbcd00;" x="448.941893" xlink:href="#m5d2e90757a" y="315.345812"/>
     <use style="fill:#dbcd00;stroke:#dbcd00;" x="466.137579" xlink:href="#m5d2e90757a" y="313.892454"/>
     <use style="fill:#dbcd00;stroke:#dbcd00;" x="470.4365" xlink:href="#m5d2e90757a" y="313.892454"/>
     <use style="fill:#dbcd00;stroke:#dbcd00;" x="474.735422" xlink:href="#m5d2e90757a" y="313.347444"/>
     <use style="fill:#dbcd00;stroke:#dbcd00;" x="479.034343" xlink:href="#m5d2e90757a" y="307.897352"/>
     <use style="fill:#dbcd00;stroke:#dbcd00;" x="483.333265" xlink:href="#m5d2e90757a" y="307.897352"/>
     <use style="fill:#dbcd00;stroke:#dbcd00;" x="491.931107" xlink:href="#m5d2e90757a" y="304.263957"/>
     <use style="fill:#dbcd00;stroke:#dbcd00;" x="496.230029" xlink:href="#m5d2e90757a" y="298.268855"/>
     <use style="fill:#dbcd00;stroke:#dbcd00;" x="500.52895" xlink:href="#m5d2e90757a" y="295.362138"/>
     <use style="fill:#dbcd00;stroke:#dbcd00;" x="509.126793" xlink:href="#m5d2e90757a" y="293.90878"/>
     <use style="fill:#dbcd00;stroke:#dbcd00;" x="513.425715" xlink:href="#m5d2e90757a" y="293.363771"/>
     <use style="fill:#dbcd00;stroke:#dbcd00;" x="522.023557" xlink:href="#m5d2e90757a" y="292.637092"/>
     <use style="fill:#dbcd00;stroke:#dbcd00;" x="530.6214" xlink:href="#m5d2e90757a" y="291.365404"/>
     <use style="fill:#dbcd00;stroke:#dbcd00;" x="539.219243" xlink:href="#m5d2e90757a" y="290.820394"/>
     <use style="fill:#dbcd00;stroke:#dbcd00;" x="543.518164" xlink:href="#m5d2e90757a" y="290.820394"/>
     <use style="fill:#dbcd00;stroke:#dbcd00;" x="552.116007" xlink:href="#m5d2e90757a" y="290.457055"/>
     <use style="fill:#dbcd00;stroke:#dbcd00;" x="556.414929" xlink:href="#m5d2e90757a" y="290.457055"/>
     <use style="fill:#dbcd00;stroke:#dbcd00;" x="560.71385" xlink:href="#m5d2e90757a" y="290.457055"/>
     <use style="fill:#dbcd00;stroke:#dbcd00;" x="565.012772" xlink:href="#m5d2e90757a" y="290.275385"/>
     <use style="fill:#dbcd00;stroke:#dbcd00;" x="573.610614" xlink:href="#m5d2e90757a" y="290.275385"/>
     <use style="fill:#dbcd00;stroke:#dbcd00;" x="582.208457" xlink:href="#m5d2e90757a" y="290.275385"/>
     <use style="fill:#dbcd00;stroke:#dbcd00;" x="586.507379" xlink:href="#m5d2e90757a" y="290.275385"/>
     <use style="fill:#dbcd00;stroke:#dbcd00;" x="590.8063" xlink:href="#m5d2e90757a" y="289.730376"/>
     <use style="fill:#dbcd00;stroke:#dbcd00;" x="595.105221" xlink:href="#m5d2e90757a" y="289.730376"/>
     <use style="fill:#dbcd00;stroke:#dbcd00;" x="599.404143" xlink:href="#m5d2e90757a" y="289.548706"/>
     <use style="fill:#dbcd00;stroke:#dbcd00;" x="603.703064" xlink:href="#m5d2e90757a" y="289.548706"/>
     <use style="fill:#dbcd00;stroke:#dbcd00;" x="612.300907" xlink:href="#m5d2e90757a" y="289.548706"/>
     <use style="fill:#dbcd00;stroke:#dbcd00;" x="616.599829" xlink:href="#m5d2e90757a" y="289.548706"/>
     <use style="fill:#dbcd00;stroke:#dbcd00;" x="620.89875" xlink:href="#m5d2e90757a" y="289.548706"/>
     <use style="fill:#dbcd00;stroke:#dbcd00;" x="625.197671" xlink:href="#m5d2e90757a" y="289.548706"/>
     <use style="fill:#dbcd00;stroke:#dbcd00;" x="629.496593" xlink:href="#m5d2e90757a" y="289.548706"/>
     <use style="fill:#dbcd00;stroke:#dbcd00;" x="642.393357" xlink:href="#m5d2e90757a" y="289.548706"/>
     <use style="fill:#dbcd00;stroke:#dbcd00;" x="646.692279" xlink:href="#m5d2e90757a" y="289.003697"/>
     <use style="fill:#dbcd00;stroke:#dbcd00;" x="650.9912" xlink:href="#m5d2e90757a" y="288.458688"/>
     <use style="fill:#dbcd00;stroke:#dbcd00;" x="655.290121" xlink:href="#m5d2e90757a" y="288.458688"/>
     <use style="fill:#dbcd00;stroke:#dbcd00;" x="659.589043" xlink:href="#m5d2e90757a" y="288.458688"/>
     <use style="fill:#dbcd00;stroke:#dbcd00;" x="672.485807" xlink:href="#m5d2e90757a" y="288.458688"/>
     <use style="fill:#dbcd00;stroke:#dbcd00;" x="676.784728" xlink:href="#m5d2e90757a" y="288.458688"/>
     <use style="fill:#dbcd00;stroke:#dbcd00;" x="681.08365" xlink:href="#m5d2e90757a" y="288.277018"/>
     <use style="fill:#dbcd00;stroke:#dbcd00;" x="685.382571" xlink:href="#m5d2e90757a" y="287.732008"/>
     <use style="fill:#dbcd00;stroke:#dbcd00;" x="689.681493" xlink:href="#m5d2e90757a" y="287.550339"/>
     <use style="fill:#dbcd00;stroke:#dbcd00;" x="702.578257" xlink:href="#m5d2e90757a" y="287.368669"/>
     <use style="fill:#dbcd00;stroke:#dbcd00;" x="706.877178" xlink:href="#m5d2e90757a" y="287.368669"/>
     <use style="fill:#dbcd00;stroke:#dbcd00;" x="711.1761" xlink:href="#m5d2e90757a" y="287.368669"/>
     <use style="fill:#dbcd00;stroke:#dbcd00;" x="715.475021" xlink:href="#m5d2e90757a" y="286.27865"/>
     <use style="fill:#dbcd00;stroke:#dbcd00;" x="719.773943" xlink:href="#m5d2e90757a" y="286.27865"/>
     <use style="fill:#dbcd00;stroke:#dbcd00;" x="762.763157" xlink:href="#m5d2e90757a" y="281.918576"/>
     <use style="fill:#dbcd00;stroke:#dbcd00;" x="767.062078" xlink:href="#m5d2e90757a" y="281.736906"/>
     <use style="fill:#dbcd00;stroke:#dbcd00;" x="775.659921" xlink:href="#m5d2e90757a" y="280.646888"/>
     <use style="fill:#dbcd00;stroke:#dbcd00;" x="779.958842" xlink:href="#m5d2e90757a" y="280.646888"/>
     <use style="fill:#dbcd00;stroke:#dbcd00;" x="792.855607" xlink:href="#m5d2e90757a" y="279.19353"/>
     <use style="fill:#dbcd00;stroke:#dbcd00;" x="797.154528" xlink:href="#m5d2e90757a" y="279.19353"/>
     <use style="fill:#dbcd00;stroke:#dbcd00;" x="801.45345" xlink:href="#m5d2e90757a" y="278.648521"/>
     <use style="fill:#dbcd00;stroke:#dbcd00;" x="805.752371" xlink:href="#m5d2e90757a" y="277.740172"/>
     <use style="fill:#dbcd00;stroke:#dbcd00;" x="810.051292" xlink:href="#m5d2e90757a" y="277.558502"/>
     <use style="fill:#dbcd00;stroke:#dbcd00;" x="822.948057" xlink:href="#m5d2e90757a" y="276.105144"/>
     <use style="fill:#dbcd00;stroke:#dbcd00;" x="827.246978" xlink:href="#m5d2e90757a" y="275.378465"/>
     <use style="fill:#dbcd00;stroke:#dbcd00;" x="831.545899" xlink:href="#m5d2e90757a" y="275.378465"/>
     <use style="fill:#dbcd00;stroke:#dbcd00;" x="835.844821" xlink:href="#m5d2e90757a" y="274.470116"/>
     <use style="fill:#dbcd00;stroke:#dbcd00;" x="840.143742" xlink:href="#m5d2e90757a" y="274.106777"/>
     <use style="fill:#dbcd00;stroke:#dbcd00;" x="853.040507" xlink:href="#m5d2e90757a" y="274.106777"/>
     <use style="fill:#dbcd00;stroke:#dbcd00;" x="857.339428" xlink:href="#m5d2e90757a" y="269.928372"/>
     <use style="fill:#dbcd00;stroke:#dbcd00;" x="861.638349" xlink:href="#m5d2e90757a" y="269.201693"/>
     <use style="fill:#dbcd00;stroke:#dbcd00;" x="865.937271" xlink:href="#m5d2e90757a" y="267.748335"/>
     <use style="fill:#dbcd00;stroke:#dbcd00;" x="870.236192" xlink:href="#m5d2e90757a" y="266.113307"/>
     <use style="fill:#dbcd00;stroke:#dbcd00;" x="883.132956" xlink:href="#m5d2e90757a" y="265.749968"/>
     <use style="fill:#dbcd00;stroke:#dbcd00;" x="887.431878" xlink:href="#m5d2e90757a" y="265.568298"/>
     <use style="fill:#dbcd00;stroke:#dbcd00;" x="891.730799" xlink:href="#m5d2e90757a" y="265.568298"/>
     <use style="fill:#dbcd00;stroke:#dbcd00;" x="896.029721" xlink:href="#m5d2e90757a" y="264.11494"/>
     <use style="fill:#dbcd00;stroke:#dbcd00;" x="900.328642" xlink:href="#m5d2e90757a" y="263.388261"/>
     <use style="fill:#dbcd00;stroke:#dbcd00;" x="913.225406" xlink:href="#m5d2e90757a" y="262.479912"/>
     <use style="fill:#dbcd00;stroke:#dbcd00;" x="917.524328" xlink:href="#m5d2e90757a" y="262.479912"/>
     <use style="fill:#dbcd00;stroke:#dbcd00;" x="921.823249" xlink:href="#m5d2e90757a" y="261.389893"/>
     <use style="fill:#dbcd00;stroke:#dbcd00;" x="926.122171" xlink:href="#m5d2e90757a" y="260.481545"/>
     <use style="fill:#dbcd00;stroke:#dbcd00;" x="930.421092" xlink:href="#m5d2e90757a" y="260.299875"/>
     <use style="fill:#dbcd00;stroke:#dbcd00;" x="943.317856" xlink:href="#m5d2e90757a" y="260.118205"/>
     <use style="fill:#dbcd00;stroke:#dbcd00;" x="947.616778" xlink:href="#m5d2e90757a" y="259.754866"/>
     <use style="fill:#dbcd00;stroke:#dbcd00;" x="951.915699" xlink:href="#m5d2e90757a" y="259.209856"/>
     <use style="fill:#dbcd00;stroke:#dbcd00;" x="956.214621" xlink:href="#m5d2e90757a" y="258.664847"/>
     <use style="fill:#dbcd00;stroke:#dbcd00;" x="960.513542" xlink:href="#m5d2e90757a" y="257.211489"/>
     <use style="fill:#dbcd00;stroke:#dbcd00;" x="973.410306" xlink:href="#m5d2e90757a" y="256.30314"/>
     <use style="fill:#dbcd00;stroke:#dbcd00;" x="977.709228" xlink:href="#m5d2e90757a" y="256.12147"/>
     <use style="fill:#dbcd00;stroke:#dbcd00;" x="982.008149" xlink:href="#m5d2e90757a" y="255.576461"/>
     <use style="fill:#dbcd00;stroke:#dbcd00;" x="986.30707" xlink:href="#m5d2e90757a" y="254.849782"/>
     <use style="fill:#dbcd00;stroke:#dbcd00;" x="990.605992" xlink:href="#m5d2e90757a" y="254.123103"/>
     <use style="fill:#dbcd00;stroke:#dbcd00;" x="1003.502756" xlink:href="#m5d2e90757a" y="253.396424"/>
     <use style="fill:#dbcd00;stroke:#dbcd00;" x="1007.801678" xlink:href="#m5d2e90757a" y="253.214754"/>
     <use style="fill:#dbcd00;stroke:#dbcd00;" x="1012.100599" xlink:href="#m5d2e90757a" y="251.398057"/>
     <use style="fill:#dbcd00;stroke:#dbcd00;" x="1016.39952" xlink:href="#m5d2e90757a" y="249.763029"/>
     <use style="fill:#dbcd00;stroke:#dbcd00;" x="1020.698442" xlink:href="#m5d2e90757a" y="248.85468"/>
     <use style="fill:#dbcd00;stroke:#dbcd00;" x="1033.595206" xlink:href="#m5d2e90757a" y="246.674643"/>
     <use style="fill:#dbcd00;stroke:#dbcd00;" x="1037.894128" xlink:href="#m5d2e90757a" y="246.492973"/>
     <use style="fill:#dbcd00;stroke:#dbcd00;" x="1067.986577" xlink:href="#m5d2e90757a" y="235.592788"/>
     <use style="fill:#dbcd00;stroke:#dbcd00;" x="1072.285499" xlink:href="#m5d2e90757a" y="233.049411"/>
     <use style="fill:#dbcd00;stroke:#dbcd00;" x="1076.58442" xlink:href="#m5d2e90757a" y="230.869374"/>
     <use style="fill:#dbcd00;stroke:#dbcd00;" x="1080.883342" xlink:href="#m5d2e90757a" y="229.416016"/>
     <use style="fill:#dbcd00;stroke:#dbcd00;" x="1093.780106" xlink:href="#m5d2e90757a" y="222.512565"/>
     <use style="fill:#dbcd00;stroke:#dbcd00;" x="1098.079027" xlink:href="#m5d2e90757a" y="219.969188"/>
     <use style="fill:#dbcd00;stroke:#dbcd00;" x="1102.377949" xlink:href="#m5d2e90757a" y="213.429077"/>
     <use style="fill:#dbcd00;stroke:#dbcd00;" x="1106.67687" xlink:href="#m5d2e90757a" y="208.523994"/>
     <use style="fill:#dbcd00;stroke:#dbcd00;" x="1110.975792" xlink:href="#m5d2e90757a" y="175.641767"/>
     <use style="fill:#dbcd00;stroke:#dbcd00;" x="1123.872556" xlink:href="#m5d2e90757a" y="157.474791"/>
     <use style="fill:#dbcd00;stroke:#dbcd00;" x="1128.171477" xlink:href="#m5d2e90757a" y="139.307816"/>
    </g>
   </g>
   <g id="line2d_65">
    <path clip-path="url(#p6bb3f04878)" d="M 113.626023 481.936981 
L 117.924944 479.575274 
L 122.223866 476.305218 
L 126.522787 469.583437 
L 130.821708 467.22173 
L 135.12063 462.134977 
L 139.419551 454.686517 
L 148.017394 439.244587 
L 152.316315 436.701211 
L 156.615237 435.247853 
L 160.914158 433.067816 
L 165.21308 431.614457 
L 169.512001 429.071081 
L 173.810923 425.619355 
L 178.109844 421.259281 
L 182.408765 418.715905 
L 186.707687 419.442584 
L 191.006608 418.534235 
L 195.30553 417.262547 
L 199.604451 417.807556 
L 203.903372 415.627519 
L 208.202294 411.449114 
L 212.501215 408.179059 
L 216.800137 410.722435 
L 221.099058 411.449114 
L 225.39798 411.449114 
L 229.696901 412.357463 
L 233.995822 409.814086 
L 238.294744 412.539133 
L 246.892587 416.172528 
L 255.49043 416.172528 
L 259.789351 423.802658 
L 264.088272 421.80429 
L 268.387194 430.706109 
L 272.686115 434.339504 
L 281.283958 444.331341 
L 285.582879 447.238057 
L 289.881801 445.966368 
L 294.180722 453.233159 
L 298.479644 451.416461 
L 302.778565 453.778168 
L 311.376408 455.594866 
L 319.974251 459.5916 
L 324.273172 462.498316 
L 332.871015 464.496684 
L 341.468858 464.678354 
L 345.767779 465.586702 
L 350.066701 467.04006 
L 354.365622 467.766739 
L 358.664544 469.583437 
L 362.963465 467.948409 
L 371.561308 466.313381 
L 375.860229 467.4034 
L 380.159151 462.134977 
L 384.458072 460.863289 
L 388.756993 461.408298 
L 393.055915 461.771637 
L 401.653758 459.5916 
L 405.952679 459.77327 
L 410.251601 461.408298 
L 418.849443 460.863289 
L 423.148365 458.319912 
L 431.746208 463.951675 
L 436.045129 465.223363 
L 444.642972 462.861656 
L 448.941893 462.134977 
L 466.137579 462.861656 
L 474.735422 462.861656 
L 479.034343 467.4034 
L 483.333265 467.4034 
L 491.931107 470.855125 
L 496.230029 476.486888 
L 500.52895 479.393604 
L 509.126793 480.846962 
L 513.425715 481.391971 
L 522.023557 481.936981 
L 530.6214 483.208669 
L 543.518164 483.208669 
L 552.116007 483.572008 
L 560.71385 483.572008 
L 565.012772 483.753678 
L 573.610614 483.390339 
L 586.507379 483.390339 
L 590.8063 483.572008 
L 595.105221 483.026999 
L 599.404143 483.208669 
L 603.703064 483.208669 
L 642.393357 482.48199 
L 646.692279 482.66366 
L 650.9912 483.208669 
L 659.589043 482.845329 
L 672.485807 482.845329 
L 676.784728 480.846962 
L 681.08365 481.028632 
L 685.382571 480.665292 
L 689.681493 480.846962 
L 702.578257 480.120283 
L 706.877178 479.575274 
L 711.1761 479.575274 
L 715.475021 479.756944 
L 719.773943 478.666925 
L 762.763157 479.211934 
L 767.062078 478.485255 
L 775.659921 477.395237 
L 779.958842 476.486888 
L 792.855607 476.486888 
L 797.154528 473.761842 
L 801.45345 473.398502 
L 810.051292 472.308483 
L 822.948057 473.216832 
L 827.246978 473.398502 
L 831.545899 473.398502 
L 835.844821 474.125181 
L 840.143742 474.488521 
L 853.040507 474.488521 
L 857.339428 477.576906 
L 861.638349 477.576906 
L 865.937271 477.940246 
L 870.236192 479.211934 
L 883.132956 479.030265 
L 887.431878 478.485255 
L 891.730799 478.485255 
L 896.029721 479.756944 
L 900.328642 480.120283 
L 913.225406 480.120283 
L 917.524328 477.758576 
L 921.823249 478.485255 
L 926.122171 478.485255 
L 930.421092 478.121916 
L 943.317856 478.303585 
L 947.616778 477.031897 
L 960.513542 477.031897 
L 973.410306 476.305218 
L 977.709228 473.398502 
L 982.008149 473.398502 
L 986.30707 471.945144 
L 990.605992 471.218465 
L 1003.502756 471.945144 
L 1007.801678 461.589968 
L 1012.100599 462.861656 
L 1016.39952 461.589968 
L 1020.698442 459.77327 
L 1033.595206 460.499949 
L 1037.894128 453.233159 
L 1067.986577 431.977797 
L 1072.285499 427.799393 
L 1076.58442 423.075979 
L 1080.883342 417.444216 
L 1093.780106 405.999021 
L 1098.079027 390.920431 
L 1102.377949 391.82878 
L 1106.67687 373.661804 
L 1110.975792 387.287036 
L 1123.872556 360.581582 
L 1128.171477 367.303363 
L 1128.171477 367.303363 
" style="fill:none;stroke:#2792cb;stroke-linecap:square;stroke-width:2;"/>
    <defs>
     <path d="M 0 1.5 
C 0.397805 1.5 0.77937 1.341951 1.06066 1.06066 
C 1.341951 0.77937 1.5 0.397805 1.5 0 
C 1.5 -0.397805 1.341951 -0.77937 1.06066 -1.06066 
C 0.77937 -1.341951 0.397805 -1.5 0 -1.5 
C -0.397805 -1.5 -0.77937 -1.341951 -1.06066 -1.06066 
C -1.341951 -0.77937 -1.5 -0.397805 -1.5 0 
C -1.5 0.397805 -1.341951 0.77937 -1.06066 1.06066 
C -0.77937 1.341951 -0.397805 1.5 0 1.5 
z
" id="mcdb306c8d9" style="stroke:#2792cb;"/>
    </defs>
    <g clip-path="url(#p6bb3f04878)">
     <use style="fill:#2792cb;stroke:#2792cb;" x="113.626023" xlink:href="#mcdb306c8d9" y="481.936981"/>
     <use style="fill:#2792cb;stroke:#2792cb;" x="117.924944" xlink:href="#mcdb306c8d9" y="479.575274"/>
     <use style="fill:#2792cb;stroke:#2792cb;" x="122.223866" xlink:href="#mcdb306c8d9" y="476.305218"/>
     <use style="fill:#2792cb;stroke:#2792cb;" x="126.522787" xlink:href="#mcdb306c8d9" y="469.583437"/>
     <use style="fill:#2792cb;stroke:#2792cb;" x="130.821708" xlink:href="#mcdb306c8d9" y="467.22173"/>
     <use style="fill:#2792cb;stroke:#2792cb;" x="135.12063" xlink:href="#mcdb306c8d9" y="462.134977"/>
     <use style="fill:#2792cb;stroke:#2792cb;" x="139.419551" xlink:href="#mcdb306c8d9" y="454.686517"/>
     <use style="fill:#2792cb;stroke:#2792cb;" x="148.017394" xlink:href="#mcdb306c8d9" y="439.244587"/>
     <use style="fill:#2792cb;stroke:#2792cb;" x="152.316315" xlink:href="#mcdb306c8d9" y="436.701211"/>
     <use style="fill:#2792cb;stroke:#2792cb;" x="156.615237" xlink:href="#mcdb306c8d9" y="435.247853"/>
     <use style="fill:#2792cb;stroke:#2792cb;" x="160.914158" xlink:href="#mcdb306c8d9" y="433.067816"/>
     <use style="fill:#2792cb;stroke:#2792cb;" x="165.21308" xlink:href="#mcdb306c8d9" y="431.614457"/>
     <use style="fill:#2792cb;stroke:#2792cb;" x="169.512001" xlink:href="#mcdb306c8d9" y="429.071081"/>
     <use style="fill:#2792cb;stroke:#2792cb;" x="173.810923" xlink:href="#mcdb306c8d9" y="425.619355"/>
     <use style="fill:#2792cb;stroke:#2792cb;" x="178.109844" xlink:href="#mcdb306c8d9" y="421.259281"/>
     <use style="fill:#2792cb;stroke:#2792cb;" x="182.408765" xlink:href="#mcdb306c8d9" y="418.715905"/>
     <use style="fill:#2792cb;stroke:#2792cb;" x="186.707687" xlink:href="#mcdb306c8d9" y="419.442584"/>
     <use style="fill:#2792cb;stroke:#2792cb;" x="191.006608" xlink:href="#mcdb306c8d9" y="418.534235"/>
     <use style="fill:#2792cb;stroke:#2792cb;" x="195.30553" xlink:href="#mcdb306c8d9" y="417.262547"/>
     <use style="fill:#2792cb;stroke:#2792cb;" x="199.604451" xlink:href="#mcdb306c8d9" y="417.807556"/>
     <use style="fill:#2792cb;stroke:#2792cb;" x="203.903372" xlink:href="#mcdb306c8d9" y="415.627519"/>
     <use style="fill:#2792cb;stroke:#2792cb;" x="208.202294" xlink:href="#mcdb306c8d9" y="411.449114"/>
     <use style="fill:#2792cb;stroke:#2792cb;" x="212.501215" xlink:href="#mcdb306c8d9" y="408.179059"/>
     <use style="fill:#2792cb;stroke:#2792cb;" x="216.800137" xlink:href="#mcdb306c8d9" y="410.722435"/>
     <use style="fill:#2792cb;stroke:#2792cb;" x="221.099058" xlink:href="#mcdb306c8d9" y="411.449114"/>
     <use style="fill:#2792cb;stroke:#2792cb;" x="225.39798" xlink:href="#mcdb306c8d9" y="411.449114"/>
     <use style="fill:#2792cb;stroke:#2792cb;" x="229.696901" xlink:href="#mcdb306c8d9" y="412.357463"/>
     <use style="fill:#2792cb;stroke:#2792cb;" x="233.995822" xlink:href="#mcdb306c8d9" y="409.814086"/>
     <use style="fill:#2792cb;stroke:#2792cb;" x="238.294744" xlink:href="#mcdb306c8d9" y="412.539133"/>
     <use style="fill:#2792cb;stroke:#2792cb;" x="246.892587" xlink:href="#mcdb306c8d9" y="416.172528"/>
     <use style="fill:#2792cb;stroke:#2792cb;" x="255.49043" xlink:href="#mcdb306c8d9" y="416.172528"/>
     <use style="fill:#2792cb;stroke:#2792cb;" x="259.789351" xlink:href="#mcdb306c8d9" y="423.802658"/>
     <use style="fill:#2792cb;stroke:#2792cb;" x="264.088272" xlink:href="#mcdb306c8d9" y="421.80429"/>
     <use style="fill:#2792cb;stroke:#2792cb;" x="268.387194" xlink:href="#mcdb306c8d9" y="430.706109"/>
     <use style="fill:#2792cb;stroke:#2792cb;" x="272.686115" xlink:href="#mcdb306c8d9" y="434.339504"/>
     <use style="fill:#2792cb;stroke:#2792cb;" x="281.283958" xlink:href="#mcdb306c8d9" y="444.331341"/>
     <use style="fill:#2792cb;stroke:#2792cb;" x="285.582879" xlink:href="#mcdb306c8d9" y="447.238057"/>
     <use style="fill:#2792cb;stroke:#2792cb;" x="289.881801" xlink:href="#mcdb306c8d9" y="445.966368"/>
     <use style="fill:#2792cb;stroke:#2792cb;" x="294.180722" xlink:href="#mcdb306c8d9" y="453.233159"/>
     <use style="fill:#2792cb;stroke:#2792cb;" x="298.479644" xlink:href="#mcdb306c8d9" y="451.416461"/>
     <use style="fill:#2792cb;stroke:#2792cb;" x="302.778565" xlink:href="#mcdb306c8d9" y="453.778168"/>
     <use style="fill:#2792cb;stroke:#2792cb;" x="311.376408" xlink:href="#mcdb306c8d9" y="455.594866"/>
     <use style="fill:#2792cb;stroke:#2792cb;" x="315.675329" xlink:href="#mcdb306c8d9" y="457.593233"/>
     <use style="fill:#2792cb;stroke:#2792cb;" x="319.974251" xlink:href="#mcdb306c8d9" y="459.5916"/>
     <use style="fill:#2792cb;stroke:#2792cb;" x="324.273172" xlink:href="#mcdb306c8d9" y="462.498316"/>
     <use style="fill:#2792cb;stroke:#2792cb;" x="332.871015" xlink:href="#mcdb306c8d9" y="464.496684"/>
     <use style="fill:#2792cb;stroke:#2792cb;" x="341.468858" xlink:href="#mcdb306c8d9" y="464.678354"/>
     <use style="fill:#2792cb;stroke:#2792cb;" x="345.767779" xlink:href="#mcdb306c8d9" y="465.586702"/>
     <use style="fill:#2792cb;stroke:#2792cb;" x="350.066701" xlink:href="#mcdb306c8d9" y="467.04006"/>
     <use style="fill:#2792cb;stroke:#2792cb;" x="354.365622" xlink:href="#mcdb306c8d9" y="467.766739"/>
     <use style="fill:#2792cb;stroke:#2792cb;" x="358.664544" xlink:href="#mcdb306c8d9" y="469.583437"/>
     <use style="fill:#2792cb;stroke:#2792cb;" x="362.963465" xlink:href="#mcdb306c8d9" y="467.948409"/>
     <use style="fill:#2792cb;stroke:#2792cb;" x="371.561308" xlink:href="#mcdb306c8d9" y="466.313381"/>
     <use style="fill:#2792cb;stroke:#2792cb;" x="375.860229" xlink:href="#mcdb306c8d9" y="467.4034"/>
     <use style="fill:#2792cb;stroke:#2792cb;" x="380.159151" xlink:href="#mcdb306c8d9" y="462.134977"/>
     <use style="fill:#2792cb;stroke:#2792cb;" x="384.458072" xlink:href="#mcdb306c8d9" y="460.863289"/>
     <use style="fill:#2792cb;stroke:#2792cb;" x="388.756993" xlink:href="#mcdb306c8d9" y="461.408298"/>
     <use style="fill:#2792cb;stroke:#2792cb;" x="393.055915" xlink:href="#mcdb306c8d9" y="461.771637"/>
     <use style="fill:#2792cb;stroke:#2792cb;" x="401.653758" xlink:href="#mcdb306c8d9" y="459.5916"/>
     <use style="fill:#2792cb;stroke:#2792cb;" x="405.952679" xlink:href="#mcdb306c8d9" y="459.77327"/>
     <use style="fill:#2792cb;stroke:#2792cb;" x="410.251601" xlink:href="#mcdb306c8d9" y="461.408298"/>
     <use style="fill:#2792cb;stroke:#2792cb;" x="418.849443" xlink:href="#mcdb306c8d9" y="460.863289"/>
     <use style="fill:#2792cb;stroke:#2792cb;" x="423.148365" xlink:href="#mcdb306c8d9" y="458.319912"/>
     <use style="fill:#2792cb;stroke:#2792cb;" x="431.746208" xlink:href="#mcdb306c8d9" y="463.951675"/>
     <use style="fill:#2792cb;stroke:#2792cb;" x="436.045129" xlink:href="#mcdb306c8d9" y="465.223363"/>
     <use style="fill:#2792cb;stroke:#2792cb;" x="444.642972" xlink:href="#mcdb306c8d9" y="462.861656"/>
     <use style="fill:#2792cb;stroke:#2792cb;" x="448.941893" xlink:href="#mcdb306c8d9" y="462.134977"/>
     <use style="fill:#2792cb;stroke:#2792cb;" x="466.137579" xlink:href="#mcdb306c8d9" y="462.861656"/>
     <use style="fill:#2792cb;stroke:#2792cb;" x="470.4365" xlink:href="#mcdb306c8d9" y="462.861656"/>
     <use style="fill:#2792cb;stroke:#2792cb;" x="474.735422" xlink:href="#mcdb306c8d9" y="462.861656"/>
     <use style="fill:#2792cb;stroke:#2792cb;" x="479.034343" xlink:href="#mcdb306c8d9" y="467.4034"/>
     <use style="fill:#2792cb;stroke:#2792cb;" x="483.333265" xlink:href="#mcdb306c8d9" y="467.4034"/>
     <use style="fill:#2792cb;stroke:#2792cb;" x="491.931107" xlink:href="#mcdb306c8d9" y="470.855125"/>
     <use style="fill:#2792cb;stroke:#2792cb;" x="496.230029" xlink:href="#mcdb306c8d9" y="476.486888"/>
     <use style="fill:#2792cb;stroke:#2792cb;" x="500.52895" xlink:href="#mcdb306c8d9" y="479.393604"/>
     <use style="fill:#2792cb;stroke:#2792cb;" x="509.126793" xlink:href="#mcdb306c8d9" y="480.846962"/>
     <use style="fill:#2792cb;stroke:#2792cb;" x="513.425715" xlink:href="#mcdb306c8d9" y="481.391971"/>
     <use style="fill:#2792cb;stroke:#2792cb;" x="522.023557" xlink:href="#mcdb306c8d9" y="481.936981"/>
     <use style="fill:#2792cb;stroke:#2792cb;" x="530.6214" xlink:href="#mcdb306c8d9" y="483.208669"/>
     <use style="fill:#2792cb;stroke:#2792cb;" x="539.219243" xlink:href="#mcdb306c8d9" y="483.208669"/>
     <use style="fill:#2792cb;stroke:#2792cb;" x="543.518164" xlink:href="#mcdb306c8d9" y="483.208669"/>
     <use style="fill:#2792cb;stroke:#2792cb;" x="552.116007" xlink:href="#mcdb306c8d9" y="483.572008"/>
     <use style="fill:#2792cb;stroke:#2792cb;" x="556.414929" xlink:href="#mcdb306c8d9" y="483.572008"/>
     <use style="fill:#2792cb;stroke:#2792cb;" x="560.71385" xlink:href="#mcdb306c8d9" y="483.572008"/>
     <use style="fill:#2792cb;stroke:#2792cb;" x="565.012772" xlink:href="#mcdb306c8d9" y="483.753678"/>
     <use style="fill:#2792cb;stroke:#2792cb;" x="573.610614" xlink:href="#mcdb306c8d9" y="483.390339"/>
     <use style="fill:#2792cb;stroke:#2792cb;" x="582.208457" xlink:href="#mcdb306c8d9" y="483.390339"/>
     <use style="fill:#2792cb;stroke:#2792cb;" x="586.507379" xlink:href="#mcdb306c8d9" y="483.390339"/>
     <use style="fill:#2792cb;stroke:#2792cb;" x="590.8063" xlink:href="#mcdb306c8d9" y="483.572008"/>
     <use style="fill:#2792cb;stroke:#2792cb;" x="595.105221" xlink:href="#mcdb306c8d9" y="483.026999"/>
     <use style="fill:#2792cb;stroke:#2792cb;" x="599.404143" xlink:href="#mcdb306c8d9" y="483.208669"/>
     <use style="fill:#2792cb;stroke:#2792cb;" x="603.703064" xlink:href="#mcdb306c8d9" y="483.208669"/>
     <use style="fill:#2792cb;stroke:#2792cb;" x="612.300907" xlink:href="#mcdb306c8d9" y="483.026999"/>
     <use style="fill:#2792cb;stroke:#2792cb;" x="616.599829" xlink:href="#mcdb306c8d9" y="482.845329"/>
     <use style="fill:#2792cb;stroke:#2792cb;" x="620.89875" xlink:href="#mcdb306c8d9" y="482.845329"/>
     <use style="fill:#2792cb;stroke:#2792cb;" x="625.197671" xlink:href="#mcdb306c8d9" y="482.845329"/>
     <use style="fill:#2792cb;stroke:#2792cb;" x="629.496593" xlink:href="#mcdb306c8d9" y="482.66366"/>
     <use style="fill:#2792cb;stroke:#2792cb;" x="642.393357" xlink:href="#mcdb306c8d9" y="482.48199"/>
     <use style="fill:#2792cb;stroke:#2792cb;" x="646.692279" xlink:href="#mcdb306c8d9" y="482.66366"/>
     <use style="fill:#2792cb;stroke:#2792cb;" x="650.9912" xlink:href="#mcdb306c8d9" y="483.208669"/>
     <use style="fill:#2792cb;stroke:#2792cb;" x="655.290121" xlink:href="#mcdb306c8d9" y="483.026999"/>
     <use style="fill:#2792cb;stroke:#2792cb;" x="659.589043" xlink:href="#mcdb306c8d9" y="482.845329"/>
     <use style="fill:#2792cb;stroke:#2792cb;" x="672.485807" xlink:href="#mcdb306c8d9" y="482.845329"/>
     <use style="fill:#2792cb;stroke:#2792cb;" x="676.784728" xlink:href="#mcdb306c8d9" y="480.846962"/>
     <use style="fill:#2792cb;stroke:#2792cb;" x="681.08365" xlink:href="#mcdb306c8d9" y="481.028632"/>
     <use style="fill:#2792cb;stroke:#2792cb;" x="685.382571" xlink:href="#mcdb306c8d9" y="480.665292"/>
     <use style="fill:#2792cb;stroke:#2792cb;" x="689.681493" xlink:href="#mcdb306c8d9" y="480.846962"/>
     <use style="fill:#2792cb;stroke:#2792cb;" x="702.578257" xlink:href="#mcdb306c8d9" y="480.120283"/>
     <use style="fill:#2792cb;stroke:#2792cb;" x="706.877178" xlink:href="#mcdb306c8d9" y="479.575274"/>
     <use style="fill:#2792cb;stroke:#2792cb;" x="711.1761" xlink:href="#mcdb306c8d9" y="479.575274"/>
     <use style="fill:#2792cb;stroke:#2792cb;" x="715.475021" xlink:href="#mcdb306c8d9" y="479.756944"/>
     <use style="fill:#2792cb;stroke:#2792cb;" x="719.773943" xlink:href="#mcdb306c8d9" y="478.666925"/>
     <use style="fill:#2792cb;stroke:#2792cb;" x="762.763157" xlink:href="#mcdb306c8d9" y="479.211934"/>
     <use style="fill:#2792cb;stroke:#2792cb;" x="767.062078" xlink:href="#mcdb306c8d9" y="478.485255"/>
     <use style="fill:#2792cb;stroke:#2792cb;" x="775.659921" xlink:href="#mcdb306c8d9" y="477.395237"/>
     <use style="fill:#2792cb;stroke:#2792cb;" x="779.958842" xlink:href="#mcdb306c8d9" y="476.486888"/>
     <use style="fill:#2792cb;stroke:#2792cb;" x="792.855607" xlink:href="#mcdb306c8d9" y="476.486888"/>
     <use style="fill:#2792cb;stroke:#2792cb;" x="797.154528" xlink:href="#mcdb306c8d9" y="473.761842"/>
     <use style="fill:#2792cb;stroke:#2792cb;" x="801.45345" xlink:href="#mcdb306c8d9" y="473.398502"/>
     <use style="fill:#2792cb;stroke:#2792cb;" x="805.752371" xlink:href="#mcdb306c8d9" y="472.853493"/>
     <use style="fill:#2792cb;stroke:#2792cb;" x="810.051292" xlink:href="#mcdb306c8d9" y="472.308483"/>
     <use style="fill:#2792cb;stroke:#2792cb;" x="822.948057" xlink:href="#mcdb306c8d9" y="473.216832"/>
     <use style="fill:#2792cb;stroke:#2792cb;" x="827.246978" xlink:href="#mcdb306c8d9" y="473.398502"/>
     <use style="fill:#2792cb;stroke:#2792cb;" x="831.545899" xlink:href="#mcdb306c8d9" y="473.398502"/>
     <use style="fill:#2792cb;stroke:#2792cb;" x="835.844821" xlink:href="#mcdb306c8d9" y="474.125181"/>
     <use style="fill:#2792cb;stroke:#2792cb;" x="840.143742" xlink:href="#mcdb306c8d9" y="474.488521"/>
     <use style="fill:#2792cb;stroke:#2792cb;" x="853.040507" xlink:href="#mcdb306c8d9" y="474.488521"/>
     <use style="fill:#2792cb;stroke:#2792cb;" x="857.339428" xlink:href="#mcdb306c8d9" y="477.576906"/>
     <use style="fill:#2792cb;stroke:#2792cb;" x="861.638349" xlink:href="#mcdb306c8d9" y="477.576906"/>
     <use style="fill:#2792cb;stroke:#2792cb;" x="865.937271" xlink:href="#mcdb306c8d9" y="477.940246"/>
     <use style="fill:#2792cb;stroke:#2792cb;" x="870.236192" xlink:href="#mcdb306c8d9" y="479.211934"/>
     <use style="fill:#2792cb;stroke:#2792cb;" x="883.132956" xlink:href="#mcdb306c8d9" y="479.030265"/>
     <use style="fill:#2792cb;stroke:#2792cb;" x="887.431878" xlink:href="#mcdb306c8d9" y="478.485255"/>
     <use style="fill:#2792cb;stroke:#2792cb;" x="891.730799" xlink:href="#mcdb306c8d9" y="478.485255"/>
     <use style="fill:#2792cb;stroke:#2792cb;" x="896.029721" xlink:href="#mcdb306c8d9" y="479.756944"/>
     <use style="fill:#2792cb;stroke:#2792cb;" x="900.328642" xlink:href="#mcdb306c8d9" y="480.120283"/>
     <use style="fill:#2792cb;stroke:#2792cb;" x="913.225406" xlink:href="#mcdb306c8d9" y="480.120283"/>
     <use style="fill:#2792cb;stroke:#2792cb;" x="917.524328" xlink:href="#mcdb306c8d9" y="477.758576"/>
     <use style="fill:#2792cb;stroke:#2792cb;" x="921.823249" xlink:href="#mcdb306c8d9" y="478.485255"/>
     <use style="fill:#2792cb;stroke:#2792cb;" x="926.122171" xlink:href="#mcdb306c8d9" y="478.485255"/>
     <use style="fill:#2792cb;stroke:#2792cb;" x="930.421092" xlink:href="#mcdb306c8d9" y="478.121916"/>
     <use style="fill:#2792cb;stroke:#2792cb;" x="943.317856" xlink:href="#mcdb306c8d9" y="478.303585"/>
     <use style="fill:#2792cb;stroke:#2792cb;" x="947.616778" xlink:href="#mcdb306c8d9" y="477.031897"/>
     <use style="fill:#2792cb;stroke:#2792cb;" x="951.915699" xlink:href="#mcdb306c8d9" y="477.031897"/>
     <use style="fill:#2792cb;stroke:#2792cb;" x="956.214621" xlink:href="#mcdb306c8d9" y="477.031897"/>
     <use style="fill:#2792cb;stroke:#2792cb;" x="960.513542" xlink:href="#mcdb306c8d9" y="477.031897"/>
     <use style="fill:#2792cb;stroke:#2792cb;" x="973.410306" xlink:href="#mcdb306c8d9" y="476.305218"/>
     <use style="fill:#2792cb;stroke:#2792cb;" x="977.709228" xlink:href="#mcdb306c8d9" y="473.398502"/>
     <use style="fill:#2792cb;stroke:#2792cb;" x="982.008149" xlink:href="#mcdb306c8d9" y="473.398502"/>
     <use style="fill:#2792cb;stroke:#2792cb;" x="986.30707" xlink:href="#mcdb306c8d9" y="471.945144"/>
     <use style="fill:#2792cb;stroke:#2792cb;" x="990.605992" xlink:href="#mcdb306c8d9" y="471.218465"/>
     <use style="fill:#2792cb;stroke:#2792cb;" x="1003.502756" xlink:href="#mcdb306c8d9" y="471.945144"/>
     <use style="fill:#2792cb;stroke:#2792cb;" x="1007.801678" xlink:href="#mcdb306c8d9" y="461.589968"/>
     <use style="fill:#2792cb;stroke:#2792cb;" x="1012.100599" xlink:href="#mcdb306c8d9" y="462.861656"/>
     <use style="fill:#2792cb;stroke:#2792cb;" x="1016.39952" xlink:href="#mcdb306c8d9" y="461.589968"/>
     <use style="fill:#2792cb;stroke:#2792cb;" x="1020.698442" xlink:href="#mcdb306c8d9" y="459.77327"/>
     <use style="fill:#2792cb;stroke:#2792cb;" x="1033.595206" xlink:href="#mcdb306c8d9" y="460.499949"/>
     <use style="fill:#2792cb;stroke:#2792cb;" x="1037.894128" xlink:href="#mcdb306c8d9" y="453.233159"/>
     <use style="fill:#2792cb;stroke:#2792cb;" x="1067.986577" xlink:href="#mcdb306c8d9" y="431.977797"/>
     <use style="fill:#2792cb;stroke:#2792cb;" x="1072.285499" xlink:href="#mcdb306c8d9" y="427.799393"/>
     <use style="fill:#2792cb;stroke:#2792cb;" x="1076.58442" xlink:href="#mcdb306c8d9" y="423.075979"/>
     <use style="fill:#2792cb;stroke:#2792cb;" x="1080.883342" xlink:href="#mcdb306c8d9" y="417.444216"/>
     <use style="fill:#2792cb;stroke:#2792cb;" x="1093.780106" xlink:href="#mcdb306c8d9" y="405.999021"/>
     <use style="fill:#2792cb;stroke:#2792cb;" x="1098.079027" xlink:href="#mcdb306c8d9" y="390.920431"/>
     <use style="fill:#2792cb;stroke:#2792cb;" x="1102.377949" xlink:href="#mcdb306c8d9" y="391.82878"/>
     <use style="fill:#2792cb;stroke:#2792cb;" x="1106.67687" xlink:href="#mcdb306c8d9" y="373.661804"/>
     <use style="fill:#2792cb;stroke:#2792cb;" x="1110.975792" xlink:href="#mcdb306c8d9" y="387.287036"/>
     <use style="fill:#2792cb;stroke:#2792cb;" x="1123.872556" xlink:href="#mcdb306c8d9" y="360.581582"/>
     <use style="fill:#2792cb;stroke:#2792cb;" x="1128.171477" xlink:href="#mcdb306c8d9" y="367.303363"/>
    </g>
   </g>
   <g id="patch_3">
    <path d="M 62.89875 501.738984 
L 1178.89875 501.738984 
" style="fill:none;stroke:#000000;stroke-linecap:square;stroke-linejoin:miter;stroke-width:0.8;"/>
   </g>
   <g id="legend_1">
    <g id="line2d_66">
     <path d="M 1091.653438 25.237422 
L 1111.653438 25.237422 
" style="fill:none;stroke:#dbcd00;stroke-linecap:square;stroke-width:2;"/>
    </g>
    <g id="line2d_67">
     <g>
      <use style="fill:#dbcd00;stroke:#dbcd00;" x="1101.653438" xlink:href="#m5d2e90757a" y="25.237422"/>
     </g>
    </g>
    <g id="text_38">
     <!-- Genesene -->
     <defs>
      <path d="M 59.515625 10.40625 
L 59.515625 29.984375 
L 43.40625 29.984375 
L 43.40625 38.09375 
L 69.28125 38.09375 
L 69.28125 6.78125 
Q 63.578125 2.734375 56.6875 0.65625 
Q 49.8125 -1.421875 42 -1.421875 
Q 24.90625 -1.421875 15.25 8.5625 
Q 5.609375 18.5625 5.609375 36.375 
Q 5.609375 54.25 15.25 64.234375 
Q 24.90625 74.21875 42 74.21875 
Q 49.125 74.21875 55.546875 72.453125 
Q 61.96875 70.703125 67.390625 67.28125 
L 67.390625 56.78125 
Q 61.921875 61.421875 55.765625 63.765625 
Q 49.609375 66.109375 42.828125 66.109375 
Q 29.4375 66.109375 22.71875 58.640625 
Q 16.015625 51.171875 16.015625 36.375 
Q 16.015625 21.625 22.71875 14.15625 
Q 29.4375 6.6875 42.828125 6.6875 
Q 48.046875 6.6875 52.140625 7.59375 
Q 56.25 8.5 59.515625 10.40625 
z
" id="DejaVuSans-71"/>
      <path d="M 44.28125 53.078125 
L 44.28125 44.578125 
Q 40.484375 46.53125 36.375 47.5 
Q 32.28125 48.484375 27.875 48.484375 
Q 21.1875 48.484375 17.84375 46.4375 
Q 14.5 44.390625 14.5 40.28125 
Q 14.5 37.15625 16.890625 35.375 
Q 19.28125 33.59375 26.515625 31.984375 
L 29.59375 31.296875 
Q 39.15625 29.25 43.1875 25.515625 
Q 47.21875 21.78125 47.21875 15.09375 
Q 47.21875 7.46875 41.1875 3.015625 
Q 35.15625 -1.421875 24.609375 -1.421875 
Q 20.21875 -1.421875 15.453125 -0.5625 
Q 10.6875 0.296875 5.421875 2 
L 5.421875 11.28125 
Q 10.40625 8.6875 15.234375 7.390625 
Q 20.0625 6.109375 24.8125 6.109375 
Q 31.15625 6.109375 34.5625 8.28125 
Q 37.984375 10.453125 37.984375 14.40625 
Q 37.984375 18.0625 35.515625 20.015625 
Q 33.0625 21.96875 24.703125 23.78125 
L 21.578125 24.515625 
Q 13.234375 26.265625 9.515625 29.90625 
Q 5.8125 33.546875 5.8125 39.890625 
Q 5.8125 47.609375 11.28125 51.796875 
Q 16.75 56 26.8125 56 
Q 31.78125 56 36.171875 55.265625 
Q 40.578125 54.546875 44.28125 53.078125 
z
" id="DejaVuSans-115"/>
     </defs>
     <g transform="translate(1119.653438 28.737422)scale(0.1 -0.1)">
      <use xlink:href="#DejaVuSans-71"/>
      <use x="77.490234" xlink:href="#DejaVuSans-101"/>
      <use x="139.013672" xlink:href="#DejaVuSans-110"/>
      <use x="202.392578" xlink:href="#DejaVuSans-101"/>
      <use x="263.916016" xlink:href="#DejaVuSans-115"/>
      <use x="316.015625" xlink:href="#DejaVuSans-101"/>
      <use x="377.539062" xlink:href="#DejaVuSans-110"/>
      <use x="440.917969" xlink:href="#DejaVuSans-101"/>
     </g>
    </g>
    <g id="line2d_68">
     <path d="M 1091.653438 39.915547 
L 1111.653438 39.915547 
" style="fill:none;stroke:#2792cb;stroke-linecap:square;stroke-width:2;"/>
    </g>
    <g id="line2d_69">
     <g>
      <use style="fill:#2792cb;stroke:#2792cb;" x="1101.653438" xlink:href="#mcdb306c8d9" y="39.915547"/>
     </g>
    </g>
    <g id="text_39">
     <!-- Erkrankte -->
     <defs>
      <path d="M 9.8125 72.90625 
L 55.90625 72.90625 
L 55.90625 64.59375 
L 19.671875 64.59375 
L 19.671875 43.015625 
L 54.390625 43.015625 
L 54.390625 34.71875 
L 19.671875 34.71875 
L 19.671875 8.296875 
L 56.78125 8.296875 
L 56.78125 0 
L 9.8125 0 
z
" id="DejaVuSans-69"/>
      <path d="M 41.109375 46.296875 
Q 39.59375 47.171875 37.8125 47.578125 
Q 36.03125 48 33.890625 48 
Q 26.265625 48 22.1875 43.046875 
Q 18.109375 38.09375 18.109375 28.8125 
L 18.109375 0 
L 9.078125 0 
L 9.078125 54.6875 
L 18.109375 54.6875 
L 18.109375 46.1875 
Q 20.953125 51.171875 25.484375 53.578125 
Q 30.03125 56 36.53125 56 
Q 37.453125 56 38.578125 55.875 
Q 39.703125 55.765625 41.0625 55.515625 
z
" id="DejaVuSans-114"/>
      <path d="M 9.078125 75.984375 
L 18.109375 75.984375 
L 18.109375 31.109375 
L 44.921875 54.6875 
L 56.390625 54.6875 
L 27.390625 29.109375 
L 57.625 0 
L 45.90625 0 
L 18.109375 26.703125 
L 18.109375 0 
L 9.078125 0 
z
" id="DejaVuSans-107"/>
      <path d="M 18.3125 70.21875 
L 18.3125 54.6875 
L 36.8125 54.6875 
L 36.8125 47.703125 
L 18.3125 47.703125 
L 18.3125 18.015625 
Q 18.3125 11.328125 20.140625 9.421875 
Q 21.96875 7.515625 27.59375 7.515625 
L 36.8125 7.515625 
L 36.8125 0 
L 27.59375 0 
Q 17.1875 0 13.234375 3.875 
Q 9.28125 7.765625 9.28125 18.015625 
L 9.28125 47.703125 
L 2.6875 47.703125 
L 2.6875 54.6875 
L 9.28125 54.6875 
L 9.28125 70.21875 
z
" id="DejaVuSans-116"/>
     </defs>
     <g transform="translate(1119.653438 43.415547)scale(0.1 -0.1)">
      <use xlink:href="#DejaVuSans-69"/>
      <use x="63.183594" xlink:href="#DejaVuSans-114"/>
      <use x="104.296875" xlink:href="#DejaVuSans-107"/>
      <use x="162.207031" xlink:href="#DejaVuSans-114"/>
      <use x="203.320312" xlink:href="#DejaVuSans-97"/>
      <use x="264.599609" xlink:href="#DejaVuSans-110"/>
      <use x="327.978516" xlink:href="#DejaVuSans-107"/>
      <use x="385.888672" xlink:href="#DejaVuSans-116"/>
      <use x="425.097656" xlink:href="#DejaVuSans-101"/>
     </g>
    </g>
   </g>
  </g>
 </g>
 <defs>
  <clipPath id="p6bb3f04878">
   <rect height="489.6" width="1116" x="62.89875" y="12.138984"/>
  </clipPath>
 </defs>
</svg>
