<?xml version="1.0" encoding="utf-8" standalone="no"?>
<!DOCTYPE svg PUBLIC "-//W3C//DTD SVG 1.1//EN"
  "http://www.w3.org/Graphics/SVG/1.1/DTD/svg11.dtd">
<!-- Created with matplotlib (https://matplotlib.org/) -->
<svg height="553.993765pt" version="1.1" viewBox="0 0 1186.09875 553.993765" width="1186.09875pt" xmlns="http://www.w3.org/2000/svg" xmlns:xlink="http://www.w3.org/1999/xlink">
 <defs>
  <style type="text/css">
*{stroke-linecap:butt;stroke-linejoin:round;}
  </style>
 </defs>
 <g id="figure_1">
  <g id="patch_1">
   <path d="M 0 553.993765 
L 1186.09875 553.993765 
L 1186.09875 0 
L 0 0 
z
" style="fill:#ffffff;"/>
  </g>
  <g id="axes_1">
   <g id="patch_2">
    <path d="M 62.89875 501.738984 
L 1178.89875 501.738984 
L 1178.89875 12.138984 
L 62.89875 12.138984 
z
" style="fill:#ffffff;"/>
   </g>
   <g id="matplotlib.axis_1">
    <g id="xtick_1">
     <g id="line2d_1">
      <defs>
       <path d="M 0 0 
L 0 3.5 
" id="m3f22f25c0c" style="stroke:#000000;stroke-width:0.8;"/>
      </defs>
      <g>
       <use style="stroke:#000000;stroke-width:0.8;" x="209.791469" xlink:href="#m3f22f25c0c" y="501.738984"/>
      </g>
     </g>
     <g id="text_1">
      <!-- 2020-04 -->
      <defs>
       <path d="M 19.1875 8.296875 
L 53.609375 8.296875 
L 53.609375 0 
L 7.328125 0 
L 7.328125 8.296875 
Q 12.9375 14.109375 22.625 23.890625 
Q 32.328125 33.6875 34.8125 36.53125 
Q 39.546875 41.84375 41.421875 45.53125 
Q 43.3125 49.21875 43.3125 52.78125 
Q 43.3125 58.59375 39.234375 62.25 
Q 35.15625 65.921875 28.609375 65.921875 
Q 23.96875 65.921875 18.8125 64.3125 
Q 13.671875 62.703125 7.8125 59.421875 
L 7.8125 69.390625 
Q 13.765625 71.78125 18.9375 73 
Q 24.125 74.21875 28.421875 74.21875 
Q 39.75 74.21875 46.484375 68.546875 
Q 53.21875 62.890625 53.21875 53.421875 
Q 53.21875 48.921875 51.53125 44.890625 
Q 49.859375 40.875 45.40625 35.40625 
Q 44.1875 33.984375 37.640625 27.21875 
Q 31.109375 20.453125 19.1875 8.296875 
z
" id="DejaVuSans-50"/>
       <path d="M 31.78125 66.40625 
Q 24.171875 66.40625 20.328125 58.90625 
Q 16.5 51.421875 16.5 36.375 
Q 16.5 21.390625 20.328125 13.890625 
Q 24.171875 6.390625 31.78125 6.390625 
Q 39.453125 6.390625 43.28125 13.890625 
Q 47.125 21.390625 47.125 36.375 
Q 47.125 51.421875 43.28125 58.90625 
Q 39.453125 66.40625 31.78125 66.40625 
z
M 31.78125 74.21875 
Q 44.046875 74.21875 50.515625 64.515625 
Q 56.984375 54.828125 56.984375 36.375 
Q 56.984375 17.96875 50.515625 8.265625 
Q 44.046875 -1.421875 31.78125 -1.421875 
Q 19.53125 -1.421875 13.0625 8.265625 
Q 6.59375 17.96875 6.59375 36.375 
Q 6.59375 54.828125 13.0625 64.515625 
Q 19.53125 74.21875 31.78125 74.21875 
z
" id="DejaVuSans-48"/>
       <path d="M 4.890625 31.390625 
L 31.203125 31.390625 
L 31.203125 23.390625 
L 4.890625 23.390625 
z
" id="DejaVuSans-45"/>
       <path d="M 37.796875 64.3125 
L 12.890625 25.390625 
L 37.796875 25.390625 
z
M 35.203125 72.90625 
L 47.609375 72.90625 
L 47.609375 25.390625 
L 58.015625 25.390625 
L 58.015625 17.1875 
L 47.609375 17.1875 
L 47.609375 0 
L 37.796875 0 
L 37.796875 17.1875 
L 4.890625 17.1875 
L 4.890625 26.703125 
z
" id="DejaVuSans-52"/>
      </defs>
      <g transform="translate(161.399202 544.452384)rotate(-30)scale(0.13 -0.13)">
       <use xlink:href="#DejaVuSans-50"/>
       <use x="63.623047" xlink:href="#DejaVuSans-48"/>
       <use x="127.246094" xlink:href="#DejaVuSans-50"/>
       <use x="190.869141" xlink:href="#DejaVuSans-48"/>
       <use x="254.492188" xlink:href="#DejaVuSans-45"/>
       <use x="290.576172" xlink:href="#DejaVuSans-48"/>
       <use x="354.199219" xlink:href="#DejaVuSans-52"/>
      </g>
     </g>
    </g>
    <g id="xtick_2">
     <g id="line2d_2">
      <g>
       <use style="stroke:#000000;stroke-width:0.8;" x="354.039638" xlink:href="#m3f22f25c0c" y="501.738984"/>
      </g>
     </g>
     <g id="text_2">
      <!-- 2020-05 -->
      <defs>
       <path d="M 10.796875 72.90625 
L 49.515625 72.90625 
L 49.515625 64.59375 
L 19.828125 64.59375 
L 19.828125 46.734375 
Q 21.96875 47.46875 24.109375 47.828125 
Q 26.265625 48.1875 28.421875 48.1875 
Q 40.625 48.1875 47.75 41.5 
Q 54.890625 34.8125 54.890625 23.390625 
Q 54.890625 11.625 47.5625 5.09375 
Q 40.234375 -1.421875 26.90625 -1.421875 
Q 22.3125 -1.421875 17.546875 -0.640625 
Q 12.796875 0.140625 7.71875 1.703125 
L 7.71875 11.625 
Q 12.109375 9.234375 16.796875 8.0625 
Q 21.484375 6.890625 26.703125 6.890625 
Q 35.15625 6.890625 40.078125 11.328125 
Q 45.015625 15.765625 45.015625 23.390625 
Q 45.015625 31 40.078125 35.4375 
Q 35.15625 39.890625 26.703125 39.890625 
Q 22.75 39.890625 18.8125 39.015625 
Q 14.890625 38.140625 10.796875 36.28125 
z
" id="DejaVuSans-53"/>
      </defs>
      <g transform="translate(305.64737 544.452384)rotate(-30)scale(0.13 -0.13)">
       <use xlink:href="#DejaVuSans-50"/>
       <use x="63.623047" xlink:href="#DejaVuSans-48"/>
       <use x="127.246094" xlink:href="#DejaVuSans-50"/>
       <use x="190.869141" xlink:href="#DejaVuSans-48"/>
       <use x="254.492188" xlink:href="#DejaVuSans-45"/>
       <use x="290.576172" xlink:href="#DejaVuSans-48"/>
       <use x="354.199219" xlink:href="#DejaVuSans-53"/>
      </g>
     </g>
    </g>
    <g id="xtick_3">
     <g id="line2d_3">
      <g>
       <use style="stroke:#000000;stroke-width:0.8;" x="503.096079" xlink:href="#m3f22f25c0c" y="501.738984"/>
      </g>
     </g>
     <g id="text_3">
      <!-- 2020-06 -->
      <defs>
       <path d="M 33.015625 40.375 
Q 26.375 40.375 22.484375 35.828125 
Q 18.609375 31.296875 18.609375 23.390625 
Q 18.609375 15.53125 22.484375 10.953125 
Q 26.375 6.390625 33.015625 6.390625 
Q 39.65625 6.390625 43.53125 10.953125 
Q 47.40625 15.53125 47.40625 23.390625 
Q 47.40625 31.296875 43.53125 35.828125 
Q 39.65625 40.375 33.015625 40.375 
z
M 52.59375 71.296875 
L 52.59375 62.3125 
Q 48.875 64.0625 45.09375 64.984375 
Q 41.3125 65.921875 37.59375 65.921875 
Q 27.828125 65.921875 22.671875 59.328125 
Q 17.53125 52.734375 16.796875 39.40625 
Q 19.671875 43.65625 24.015625 45.921875 
Q 28.375 48.1875 33.59375 48.1875 
Q 44.578125 48.1875 50.953125 41.515625 
Q 57.328125 34.859375 57.328125 23.390625 
Q 57.328125 12.15625 50.6875 5.359375 
Q 44.046875 -1.421875 33.015625 -1.421875 
Q 20.359375 -1.421875 13.671875 8.265625 
Q 6.984375 17.96875 6.984375 36.375 
Q 6.984375 53.65625 15.1875 63.9375 
Q 23.390625 74.21875 37.203125 74.21875 
Q 40.921875 74.21875 44.703125 73.484375 
Q 48.484375 72.75 52.59375 71.296875 
z
" id="DejaVuSans-54"/>
      </defs>
      <g transform="translate(454.703812 544.452384)rotate(-30)scale(0.13 -0.13)">
       <use xlink:href="#DejaVuSans-50"/>
       <use x="63.623047" xlink:href="#DejaVuSans-48"/>
       <use x="127.246094" xlink:href="#DejaVuSans-50"/>
       <use x="190.869141" xlink:href="#DejaVuSans-48"/>
       <use x="254.492188" xlink:href="#DejaVuSans-45"/>
       <use x="290.576172" xlink:href="#DejaVuSans-48"/>
       <use x="354.199219" xlink:href="#DejaVuSans-54"/>
      </g>
     </g>
    </g>
    <g id="xtick_4">
     <g id="line2d_4">
      <g>
       <use style="stroke:#000000;stroke-width:0.8;" x="647.344248" xlink:href="#m3f22f25c0c" y="501.738984"/>
      </g>
     </g>
     <g id="text_4">
      <!-- 2020-07 -->
      <defs>
       <path d="M 8.203125 72.90625 
L 55.078125 72.90625 
L 55.078125 68.703125 
L 28.609375 0 
L 18.3125 0 
L 43.21875 64.59375 
L 8.203125 64.59375 
z
" id="DejaVuSans-55"/>
      </defs>
      <g transform="translate(598.951981 544.452384)rotate(-30)scale(0.13 -0.13)">
       <use xlink:href="#DejaVuSans-50"/>
       <use x="63.623047" xlink:href="#DejaVuSans-48"/>
       <use x="127.246094" xlink:href="#DejaVuSans-50"/>
       <use x="190.869141" xlink:href="#DejaVuSans-48"/>
       <use x="254.492188" xlink:href="#DejaVuSans-45"/>
       <use x="290.576172" xlink:href="#DejaVuSans-48"/>
       <use x="354.199219" xlink:href="#DejaVuSans-55"/>
      </g>
     </g>
    </g>
    <g id="xtick_5">
     <g id="line2d_5">
      <g>
       <use style="stroke:#000000;stroke-width:0.8;" x="796.400689" xlink:href="#m3f22f25c0c" y="501.738984"/>
      </g>
     </g>
     <g id="text_5">
      <!-- 2020-08 -->
      <defs>
       <path d="M 31.78125 34.625 
Q 24.75 34.625 20.71875 30.859375 
Q 16.703125 27.09375 16.703125 20.515625 
Q 16.703125 13.921875 20.71875 10.15625 
Q 24.75 6.390625 31.78125 6.390625 
Q 38.8125 6.390625 42.859375 10.171875 
Q 46.921875 13.96875 46.921875 20.515625 
Q 46.921875 27.09375 42.890625 30.859375 
Q 38.875 34.625 31.78125 34.625 
z
M 21.921875 38.8125 
Q 15.578125 40.375 12.03125 44.71875 
Q 8.5 49.078125 8.5 55.328125 
Q 8.5 64.0625 14.71875 69.140625 
Q 20.953125 74.21875 31.78125 74.21875 
Q 42.671875 74.21875 48.875 69.140625 
Q 55.078125 64.0625 55.078125 55.328125 
Q 55.078125 49.078125 51.53125 44.71875 
Q 48 40.375 41.703125 38.8125 
Q 48.828125 37.15625 52.796875 32.3125 
Q 56.78125 27.484375 56.78125 20.515625 
Q 56.78125 9.90625 50.3125 4.234375 
Q 43.84375 -1.421875 31.78125 -1.421875 
Q 19.734375 -1.421875 13.25 4.234375 
Q 6.78125 9.90625 6.78125 20.515625 
Q 6.78125 27.484375 10.78125 32.3125 
Q 14.796875 37.15625 21.921875 38.8125 
z
M 18.3125 54.390625 
Q 18.3125 48.734375 21.84375 45.5625 
Q 25.390625 42.390625 31.78125 42.390625 
Q 38.140625 42.390625 41.71875 45.5625 
Q 45.3125 48.734375 45.3125 54.390625 
Q 45.3125 60.0625 41.71875 63.234375 
Q 38.140625 66.40625 31.78125 66.40625 
Q 25.390625 66.40625 21.84375 63.234375 
Q 18.3125 60.0625 18.3125 54.390625 
z
" id="DejaVuSans-56"/>
      </defs>
      <g transform="translate(748.008422 544.452384)rotate(-30)scale(0.13 -0.13)">
       <use xlink:href="#DejaVuSans-50"/>
       <use x="63.623047" xlink:href="#DejaVuSans-48"/>
       <use x="127.246094" xlink:href="#DejaVuSans-50"/>
       <use x="190.869141" xlink:href="#DejaVuSans-48"/>
       <use x="254.492188" xlink:href="#DejaVuSans-45"/>
       <use x="290.576172" xlink:href="#DejaVuSans-48"/>
       <use x="354.199219" xlink:href="#DejaVuSans-56"/>
      </g>
     </g>
    </g>
    <g id="xtick_6">
     <g id="line2d_6">
      <g>
       <use style="stroke:#000000;stroke-width:0.8;" x="945.45713" xlink:href="#m3f22f25c0c" y="501.738984"/>
      </g>
     </g>
     <g id="text_6">
      <!-- 2020-09 -->
      <defs>
       <path d="M 10.984375 1.515625 
L 10.984375 10.5 
Q 14.703125 8.734375 18.5 7.8125 
Q 22.3125 6.890625 25.984375 6.890625 
Q 35.75 6.890625 40.890625 13.453125 
Q 46.046875 20.015625 46.78125 33.40625 
Q 43.953125 29.203125 39.59375 26.953125 
Q 35.25 24.703125 29.984375 24.703125 
Q 19.046875 24.703125 12.671875 31.3125 
Q 6.296875 37.9375 6.296875 49.421875 
Q 6.296875 60.640625 12.9375 67.421875 
Q 19.578125 74.21875 30.609375 74.21875 
Q 43.265625 74.21875 49.921875 64.515625 
Q 56.59375 54.828125 56.59375 36.375 
Q 56.59375 19.140625 48.40625 8.859375 
Q 40.234375 -1.421875 26.421875 -1.421875 
Q 22.703125 -1.421875 18.890625 -0.6875 
Q 15.09375 0.046875 10.984375 1.515625 
z
M 30.609375 32.421875 
Q 37.25 32.421875 41.125 36.953125 
Q 45.015625 41.5 45.015625 49.421875 
Q 45.015625 57.28125 41.125 61.84375 
Q 37.25 66.40625 30.609375 66.40625 
Q 23.96875 66.40625 20.09375 61.84375 
Q 16.21875 57.28125 16.21875 49.421875 
Q 16.21875 41.5 20.09375 36.953125 
Q 23.96875 32.421875 30.609375 32.421875 
z
" id="DejaVuSans-57"/>
      </defs>
      <g transform="translate(897.064863 544.452384)rotate(-30)scale(0.13 -0.13)">
       <use xlink:href="#DejaVuSans-50"/>
       <use x="63.623047" xlink:href="#DejaVuSans-48"/>
       <use x="127.246094" xlink:href="#DejaVuSans-50"/>
       <use x="190.869141" xlink:href="#DejaVuSans-48"/>
       <use x="254.492188" xlink:href="#DejaVuSans-45"/>
       <use x="290.576172" xlink:href="#DejaVuSans-48"/>
       <use x="354.199219" xlink:href="#DejaVuSans-57"/>
      </g>
     </g>
    </g>
    <g id="xtick_7">
     <g id="line2d_7">
      <g>
       <use style="stroke:#000000;stroke-width:0.8;" x="1089.705299" xlink:href="#m3f22f25c0c" y="501.738984"/>
      </g>
     </g>
     <g id="text_7">
      <!-- 2020-10 -->
      <defs>
       <path d="M 12.40625 8.296875 
L 28.515625 8.296875 
L 28.515625 63.921875 
L 10.984375 60.40625 
L 10.984375 69.390625 
L 28.421875 72.90625 
L 38.28125 72.90625 
L 38.28125 8.296875 
L 54.390625 8.296875 
L 54.390625 0 
L 12.40625 0 
z
" id="DejaVuSans-49"/>
      </defs>
      <g transform="translate(1041.313032 544.452384)rotate(-30)scale(0.13 -0.13)">
       <use xlink:href="#DejaVuSans-50"/>
       <use x="63.623047" xlink:href="#DejaVuSans-48"/>
       <use x="127.246094" xlink:href="#DejaVuSans-50"/>
       <use x="190.869141" xlink:href="#DejaVuSans-48"/>
       <use x="254.492188" xlink:href="#DejaVuSans-45"/>
       <use x="290.576172" xlink:href="#DejaVuSans-49"/>
       <use x="354.199219" xlink:href="#DejaVuSans-48"/>
      </g>
     </g>
    </g>
   </g>
   <g id="matplotlib.axis_2">
    <g id="ytick_1">
     <g id="line2d_8">
      <path clip-path="url(#pb0c46fc26b)" d="M 62.89875 481.449142 
L 1178.89875 481.449142 
" style="fill:none;stroke:#b0b0b0;stroke-linecap:square;stroke-width:0.8;"/>
     </g>
     <g id="line2d_9">
      <defs>
       <path d="M 0 0 
L -3.5 0 
" id="m47364a88f3" style="stroke:#000000;stroke-width:0.8;"/>
      </defs>
      <g>
       <use style="stroke:#000000;stroke-width:0.8;" x="62.89875" xlink:href="#m47364a88f3" y="481.449142"/>
      </g>
     </g>
     <g id="text_8">
      <!-- 0 -->
      <g transform="translate(47.6275 486.388126)scale(0.13 -0.13)">
       <use xlink:href="#DejaVuSans-48"/>
      </g>
     </g>
    </g>
    <g id="ytick_2">
     <g id="line2d_10">
      <path clip-path="url(#pb0c46fc26b)" d="M 62.89875 450.161798 
L 1178.89875 450.161798 
" style="fill:none;stroke:#b0b0b0;stroke-linecap:square;stroke-width:0.8;"/>
     </g>
     <g id="line2d_11">
      <g>
       <use style="stroke:#000000;stroke-width:0.8;" x="62.89875" xlink:href="#m47364a88f3" y="450.161798"/>
      </g>
     </g>
     <g id="text_9">
      <!-- 100 -->
      <g transform="translate(31.085 455.100782)scale(0.13 -0.13)">
       <use xlink:href="#DejaVuSans-49"/>
       <use x="63.623047" xlink:href="#DejaVuSans-48"/>
       <use x="127.246094" xlink:href="#DejaVuSans-48"/>
      </g>
     </g>
    </g>
    <g id="ytick_3">
     <g id="line2d_12">
      <path clip-path="url(#pb0c46fc26b)" d="M 62.89875 418.874454 
L 1178.89875 418.874454 
" style="fill:none;stroke:#b0b0b0;stroke-linecap:square;stroke-width:0.8;"/>
     </g>
     <g id="line2d_13">
      <g>
       <use style="stroke:#000000;stroke-width:0.8;" x="62.89875" xlink:href="#m47364a88f3" y="418.874454"/>
      </g>
     </g>
     <g id="text_10">
      <!-- 200 -->
      <g transform="translate(31.085 423.813439)scale(0.13 -0.13)">
       <use xlink:href="#DejaVuSans-50"/>
       <use x="63.623047" xlink:href="#DejaVuSans-48"/>
       <use x="127.246094" xlink:href="#DejaVuSans-48"/>
      </g>
     </g>
    </g>
    <g id="ytick_4">
     <g id="line2d_14">
      <path clip-path="url(#pb0c46fc26b)" d="M 62.89875 387.58711 
L 1178.89875 387.58711 
" style="fill:none;stroke:#b0b0b0;stroke-linecap:square;stroke-width:0.8;"/>
     </g>
     <g id="line2d_15">
      <g>
       <use style="stroke:#000000;stroke-width:0.8;" x="62.89875" xlink:href="#m47364a88f3" y="387.58711"/>
      </g>
     </g>
     <g id="text_11">
      <!-- 300 -->
      <defs>
       <path d="M 40.578125 39.3125 
Q 47.65625 37.796875 51.625 33 
Q 55.609375 28.21875 55.609375 21.1875 
Q 55.609375 10.40625 48.1875 4.484375 
Q 40.765625 -1.421875 27.09375 -1.421875 
Q 22.515625 -1.421875 17.65625 -0.515625 
Q 12.796875 0.390625 7.625 2.203125 
L 7.625 11.71875 
Q 11.71875 9.328125 16.59375 8.109375 
Q 21.484375 6.890625 26.8125 6.890625 
Q 36.078125 6.890625 40.9375 10.546875 
Q 45.796875 14.203125 45.796875 21.1875 
Q 45.796875 27.640625 41.28125 31.265625 
Q 36.765625 34.90625 28.71875 34.90625 
L 20.21875 34.90625 
L 20.21875 43.015625 
L 29.109375 43.015625 
Q 36.375 43.015625 40.234375 45.921875 
Q 44.09375 48.828125 44.09375 54.296875 
Q 44.09375 59.90625 40.109375 62.90625 
Q 36.140625 65.921875 28.71875 65.921875 
Q 24.65625 65.921875 20.015625 65.03125 
Q 15.375 64.15625 9.8125 62.3125 
L 9.8125 71.09375 
Q 15.4375 72.65625 20.34375 73.4375 
Q 25.25 74.21875 29.59375 74.21875 
Q 40.828125 74.21875 47.359375 69.109375 
Q 53.90625 64.015625 53.90625 55.328125 
Q 53.90625 49.265625 50.4375 45.09375 
Q 46.96875 40.921875 40.578125 39.3125 
z
" id="DejaVuSans-51"/>
      </defs>
      <g transform="translate(31.085 392.526095)scale(0.13 -0.13)">
       <use xlink:href="#DejaVuSans-51"/>
       <use x="63.623047" xlink:href="#DejaVuSans-48"/>
       <use x="127.246094" xlink:href="#DejaVuSans-48"/>
      </g>
     </g>
    </g>
    <g id="ytick_5">
     <g id="line2d_16">
      <path clip-path="url(#pb0c46fc26b)" d="M 62.89875 356.299767 
L 1178.89875 356.299767 
" style="fill:none;stroke:#b0b0b0;stroke-linecap:square;stroke-width:0.8;"/>
     </g>
     <g id="line2d_17">
      <g>
       <use style="stroke:#000000;stroke-width:0.8;" x="62.89875" xlink:href="#m47364a88f3" y="356.299767"/>
      </g>
     </g>
     <g id="text_12">
      <!-- 400 -->
      <g transform="translate(31.085 361.238751)scale(0.13 -0.13)">
       <use xlink:href="#DejaVuSans-52"/>
       <use x="63.623047" xlink:href="#DejaVuSans-48"/>
       <use x="127.246094" xlink:href="#DejaVuSans-48"/>
      </g>
     </g>
    </g>
    <g id="ytick_6">
     <g id="line2d_18">
      <path clip-path="url(#pb0c46fc26b)" d="M 62.89875 325.012423 
L 1178.89875 325.012423 
" style="fill:none;stroke:#b0b0b0;stroke-linecap:square;stroke-width:0.8;"/>
     </g>
     <g id="line2d_19">
      <g>
       <use style="stroke:#000000;stroke-width:0.8;" x="62.89875" xlink:href="#m47364a88f3" y="325.012423"/>
      </g>
     </g>
     <g id="text_13">
      <!-- 500 -->
      <g transform="translate(31.085 329.951407)scale(0.13 -0.13)">
       <use xlink:href="#DejaVuSans-53"/>
       <use x="63.623047" xlink:href="#DejaVuSans-48"/>
       <use x="127.246094" xlink:href="#DejaVuSans-48"/>
      </g>
     </g>
    </g>
    <g id="ytick_7">
     <g id="line2d_20">
      <path clip-path="url(#pb0c46fc26b)" d="M 62.89875 293.725079 
L 1178.89875 293.725079 
" style="fill:none;stroke:#b0b0b0;stroke-linecap:square;stroke-width:0.8;"/>
     </g>
     <g id="line2d_21">
      <g>
       <use style="stroke:#000000;stroke-width:0.8;" x="62.89875" xlink:href="#m47364a88f3" y="293.725079"/>
      </g>
     </g>
     <g id="text_14">
      <!-- 600 -->
      <g transform="translate(31.085 298.664063)scale(0.13 -0.13)">
       <use xlink:href="#DejaVuSans-54"/>
       <use x="63.623047" xlink:href="#DejaVuSans-48"/>
       <use x="127.246094" xlink:href="#DejaVuSans-48"/>
      </g>
     </g>
    </g>
    <g id="ytick_8">
     <g id="line2d_22">
      <path clip-path="url(#pb0c46fc26b)" d="M 62.89875 262.437735 
L 1178.89875 262.437735 
" style="fill:none;stroke:#b0b0b0;stroke-linecap:square;stroke-width:0.8;"/>
     </g>
     <g id="line2d_23">
      <g>
       <use style="stroke:#000000;stroke-width:0.8;" x="62.89875" xlink:href="#m47364a88f3" y="262.437735"/>
      </g>
     </g>
     <g id="text_15">
      <!-- 700 -->
      <g transform="translate(31.085 267.376719)scale(0.13 -0.13)">
       <use xlink:href="#DejaVuSans-55"/>
       <use x="63.623047" xlink:href="#DejaVuSans-48"/>
       <use x="127.246094" xlink:href="#DejaVuSans-48"/>
      </g>
     </g>
    </g>
    <g id="ytick_9">
     <g id="line2d_24">
      <path clip-path="url(#pb0c46fc26b)" d="M 62.89875 231.150391 
L 1178.89875 231.150391 
" style="fill:none;stroke:#b0b0b0;stroke-linecap:square;stroke-width:0.8;"/>
     </g>
     <g id="line2d_25">
      <g>
       <use style="stroke:#000000;stroke-width:0.8;" x="62.89875" xlink:href="#m47364a88f3" y="231.150391"/>
      </g>
     </g>
     <g id="text_16">
      <!-- 800 -->
      <g transform="translate(31.085 236.089376)scale(0.13 -0.13)">
       <use xlink:href="#DejaVuSans-56"/>
       <use x="63.623047" xlink:href="#DejaVuSans-48"/>
       <use x="127.246094" xlink:href="#DejaVuSans-48"/>
      </g>
     </g>
    </g>
    <g id="ytick_10">
     <g id="line2d_26">
      <path clip-path="url(#pb0c46fc26b)" d="M 62.89875 199.863047 
L 1178.89875 199.863047 
" style="fill:none;stroke:#b0b0b0;stroke-linecap:square;stroke-width:0.8;"/>
     </g>
     <g id="line2d_27">
      <g>
       <use style="stroke:#000000;stroke-width:0.8;" x="62.89875" xlink:href="#m47364a88f3" y="199.863047"/>
      </g>
     </g>
     <g id="text_17">
      <!-- 900 -->
      <g transform="translate(31.085 204.802032)scale(0.13 -0.13)">
       <use xlink:href="#DejaVuSans-57"/>
       <use x="63.623047" xlink:href="#DejaVuSans-48"/>
       <use x="127.246094" xlink:href="#DejaVuSans-48"/>
      </g>
     </g>
    </g>
    <g id="ytick_11">
     <g id="line2d_28">
      <path clip-path="url(#pb0c46fc26b)" d="M 62.89875 168.575704 
L 1178.89875 168.575704 
" style="fill:none;stroke:#b0b0b0;stroke-linecap:square;stroke-width:0.8;"/>
     </g>
     <g id="line2d_29">
      <g>
       <use style="stroke:#000000;stroke-width:0.8;" x="62.89875" xlink:href="#m47364a88f3" y="168.575704"/>
      </g>
     </g>
     <g id="text_18">
      <!-- 1000 -->
      <g transform="translate(22.81375 173.514688)scale(0.13 -0.13)">
       <use xlink:href="#DejaVuSans-49"/>
       <use x="63.623047" xlink:href="#DejaVuSans-48"/>
       <use x="127.246094" xlink:href="#DejaVuSans-48"/>
       <use x="190.869141" xlink:href="#DejaVuSans-48"/>
      </g>
     </g>
    </g>
    <g id="ytick_12">
     <g id="line2d_30">
      <path clip-path="url(#pb0c46fc26b)" d="M 62.89875 137.28836 
L 1178.89875 137.28836 
" style="fill:none;stroke:#b0b0b0;stroke-linecap:square;stroke-width:0.8;"/>
     </g>
     <g id="line2d_31">
      <g>
       <use style="stroke:#000000;stroke-width:0.8;" x="62.89875" xlink:href="#m47364a88f3" y="137.28836"/>
      </g>
     </g>
     <g id="text_19">
      <!-- 1100 -->
      <g transform="translate(22.81375 142.227344)scale(0.13 -0.13)">
       <use xlink:href="#DejaVuSans-49"/>
       <use x="63.623047" xlink:href="#DejaVuSans-49"/>
       <use x="127.246094" xlink:href="#DejaVuSans-48"/>
       <use x="190.869141" xlink:href="#DejaVuSans-48"/>
      </g>
     </g>
    </g>
    <g id="ytick_13">
     <g id="line2d_32">
      <path clip-path="url(#pb0c46fc26b)" d="M 62.89875 106.001016 
L 1178.89875 106.001016 
" style="fill:none;stroke:#b0b0b0;stroke-linecap:square;stroke-width:0.8;"/>
     </g>
     <g id="line2d_33">
      <g>
       <use style="stroke:#000000;stroke-width:0.8;" x="62.89875" xlink:href="#m47364a88f3" y="106.001016"/>
      </g>
     </g>
     <g id="text_20">
      <!-- 1200 -->
      <g transform="translate(22.81375 110.94)scale(0.13 -0.13)">
       <use xlink:href="#DejaVuSans-49"/>
       <use x="63.623047" xlink:href="#DejaVuSans-50"/>
       <use x="127.246094" xlink:href="#DejaVuSans-48"/>
       <use x="190.869141" xlink:href="#DejaVuSans-48"/>
      </g>
     </g>
    </g>
    <g id="ytick_14">
     <g id="line2d_34">
      <path clip-path="url(#pb0c46fc26b)" d="M 62.89875 74.713672 
L 1178.89875 74.713672 
" style="fill:none;stroke:#b0b0b0;stroke-linecap:square;stroke-width:0.8;"/>
     </g>
     <g id="line2d_35">
      <g>
       <use style="stroke:#000000;stroke-width:0.8;" x="62.89875" xlink:href="#m47364a88f3" y="74.713672"/>
      </g>
     </g>
     <g id="text_21">
      <!-- 1300 -->
      <g transform="translate(22.81375 79.652656)scale(0.13 -0.13)">
       <use xlink:href="#DejaVuSans-49"/>
       <use x="63.623047" xlink:href="#DejaVuSans-51"/>
       <use x="127.246094" xlink:href="#DejaVuSans-48"/>
       <use x="190.869141" xlink:href="#DejaVuSans-48"/>
      </g>
     </g>
    </g>
    <g id="ytick_15">
     <g id="line2d_36">
      <path clip-path="url(#pb0c46fc26b)" d="M 62.89875 43.426328 
L 1178.89875 43.426328 
" style="fill:none;stroke:#b0b0b0;stroke-linecap:square;stroke-width:0.8;"/>
     </g>
     <g id="line2d_37">
      <g>
       <use style="stroke:#000000;stroke-width:0.8;" x="62.89875" xlink:href="#m47364a88f3" y="43.426328"/>
      </g>
     </g>
     <g id="text_22">
      <!-- 1400 -->
      <g transform="translate(22.81375 48.365313)scale(0.13 -0.13)">
       <use xlink:href="#DejaVuSans-49"/>
       <use x="63.623047" xlink:href="#DejaVuSans-52"/>
       <use x="127.246094" xlink:href="#DejaVuSans-48"/>
       <use x="190.869141" xlink:href="#DejaVuSans-48"/>
      </g>
     </g>
    </g>
    <g id="ytick_16">
     <g id="line2d_38">
      <path clip-path="url(#pb0c46fc26b)" d="M 62.89875 12.138984 
L 1178.89875 12.138984 
" style="fill:none;stroke:#b0b0b0;stroke-linecap:square;stroke-width:0.8;"/>
     </g>
     <g id="line2d_39">
      <g>
       <use style="stroke:#000000;stroke-width:0.8;" x="62.89875" xlink:href="#m47364a88f3" y="12.138984"/>
      </g>
     </g>
     <g id="text_23">
      <!-- 1500 -->
      <g transform="translate(22.81375 17.077969)scale(0.13 -0.13)">
       <use xlink:href="#DejaVuSans-49"/>
       <use x="63.623047" xlink:href="#DejaVuSans-53"/>
       <use x="127.246094" xlink:href="#DejaVuSans-48"/>
       <use x="190.869141" xlink:href="#DejaVuSans-48"/>
      </g>
     </g>
    </g>
    <g id="text_24">
     <!-- Anzahl von Fällen -->
     <defs>
      <path d="M 34.1875 63.1875 
L 20.796875 26.90625 
L 47.609375 26.90625 
z
M 28.609375 72.90625 
L 39.796875 72.90625 
L 67.578125 0 
L 57.328125 0 
L 50.6875 18.703125 
L 17.828125 18.703125 
L 11.1875 0 
L 0.78125 0 
z
" id="DejaVuSans-65"/>
      <path d="M 54.890625 33.015625 
L 54.890625 0 
L 45.90625 0 
L 45.90625 32.71875 
Q 45.90625 40.484375 42.875 44.328125 
Q 39.84375 48.1875 33.796875 48.1875 
Q 26.515625 48.1875 22.3125 43.546875 
Q 18.109375 38.921875 18.109375 30.90625 
L 18.109375 0 
L 9.078125 0 
L 9.078125 54.6875 
L 18.109375 54.6875 
L 18.109375 46.1875 
Q 21.34375 51.125 25.703125 53.5625 
Q 30.078125 56 35.796875 56 
Q 45.21875 56 50.046875 50.171875 
Q 54.890625 44.34375 54.890625 33.015625 
z
" id="DejaVuSans-110"/>
      <path d="M 5.515625 54.6875 
L 48.1875 54.6875 
L 48.1875 46.484375 
L 14.40625 7.171875 
L 48.1875 7.171875 
L 48.1875 0 
L 4.296875 0 
L 4.296875 8.203125 
L 38.09375 47.515625 
L 5.515625 47.515625 
z
" id="DejaVuSans-122"/>
      <path d="M 34.28125 27.484375 
Q 23.390625 27.484375 19.1875 25 
Q 14.984375 22.515625 14.984375 16.5 
Q 14.984375 11.71875 18.140625 8.90625 
Q 21.296875 6.109375 26.703125 6.109375 
Q 34.1875 6.109375 38.703125 11.40625 
Q 43.21875 16.703125 43.21875 25.484375 
L 43.21875 27.484375 
z
M 52.203125 31.203125 
L 52.203125 0 
L 43.21875 0 
L 43.21875 8.296875 
Q 40.140625 3.328125 35.546875 0.953125 
Q 30.953125 -1.421875 24.3125 -1.421875 
Q 15.921875 -1.421875 10.953125 3.296875 
Q 6 8.015625 6 15.921875 
Q 6 25.140625 12.171875 29.828125 
Q 18.359375 34.515625 30.609375 34.515625 
L 43.21875 34.515625 
L 43.21875 35.40625 
Q 43.21875 41.609375 39.140625 45 
Q 35.0625 48.390625 27.6875 48.390625 
Q 23 48.390625 18.546875 47.265625 
Q 14.109375 46.140625 10.015625 43.890625 
L 10.015625 52.203125 
Q 14.9375 54.109375 19.578125 55.046875 
Q 24.21875 56 28.609375 56 
Q 40.484375 56 46.34375 49.84375 
Q 52.203125 43.703125 52.203125 31.203125 
z
" id="DejaVuSans-97"/>
      <path d="M 54.890625 33.015625 
L 54.890625 0 
L 45.90625 0 
L 45.90625 32.71875 
Q 45.90625 40.484375 42.875 44.328125 
Q 39.84375 48.1875 33.796875 48.1875 
Q 26.515625 48.1875 22.3125 43.546875 
Q 18.109375 38.921875 18.109375 30.90625 
L 18.109375 0 
L 9.078125 0 
L 9.078125 75.984375 
L 18.109375 75.984375 
L 18.109375 46.1875 
Q 21.34375 51.125 25.703125 53.5625 
Q 30.078125 56 35.796875 56 
Q 45.21875 56 50.046875 50.171875 
Q 54.890625 44.34375 54.890625 33.015625 
z
" id="DejaVuSans-104"/>
      <path d="M 9.421875 75.984375 
L 18.40625 75.984375 
L 18.40625 0 
L 9.421875 0 
z
" id="DejaVuSans-108"/>
      <path id="DejaVuSans-32"/>
      <path d="M 2.984375 54.6875 
L 12.5 54.6875 
L 29.59375 8.796875 
L 46.6875 54.6875 
L 56.203125 54.6875 
L 35.6875 0 
L 23.484375 0 
z
" id="DejaVuSans-118"/>
      <path d="M 30.609375 48.390625 
Q 23.390625 48.390625 19.1875 42.75 
Q 14.984375 37.109375 14.984375 27.296875 
Q 14.984375 17.484375 19.15625 11.84375 
Q 23.34375 6.203125 30.609375 6.203125 
Q 37.796875 6.203125 41.984375 11.859375 
Q 46.1875 17.53125 46.1875 27.296875 
Q 46.1875 37.015625 41.984375 42.703125 
Q 37.796875 48.390625 30.609375 48.390625 
z
M 30.609375 56 
Q 42.328125 56 49.015625 48.375 
Q 55.71875 40.765625 55.71875 27.296875 
Q 55.71875 13.875 49.015625 6.21875 
Q 42.328125 -1.421875 30.609375 -1.421875 
Q 18.84375 -1.421875 12.171875 6.21875 
Q 5.515625 13.875 5.515625 27.296875 
Q 5.515625 40.765625 12.171875 48.375 
Q 18.84375 56 30.609375 56 
z
" id="DejaVuSans-111"/>
      <path d="M 9.8125 72.90625 
L 51.703125 72.90625 
L 51.703125 64.59375 
L 19.671875 64.59375 
L 19.671875 43.109375 
L 48.578125 43.109375 
L 48.578125 34.8125 
L 19.671875 34.8125 
L 19.671875 0 
L 9.8125 0 
z
" id="DejaVuSans-70"/>
      <path d="M 34.28125 27.484375 
Q 23.390625 27.484375 19.1875 25 
Q 14.984375 22.515625 14.984375 16.5 
Q 14.984375 11.71875 18.140625 8.90625 
Q 21.296875 6.109375 26.703125 6.109375 
Q 34.1875 6.109375 38.703125 11.40625 
Q 43.21875 16.703125 43.21875 25.484375 
L 43.21875 27.484375 
z
M 52.203125 31.203125 
L 52.203125 0 
L 43.21875 0 
L 43.21875 8.296875 
Q 40.140625 3.328125 35.546875 0.953125 
Q 30.953125 -1.421875 24.3125 -1.421875 
Q 15.921875 -1.421875 10.953125 3.296875 
Q 6 8.015625 6 15.921875 
Q 6 25.140625 12.171875 29.828125 
Q 18.359375 34.515625 30.609375 34.515625 
L 43.21875 34.515625 
L 43.21875 35.40625 
Q 43.21875 41.609375 39.140625 45 
Q 35.0625 48.390625 27.6875 48.390625 
Q 23 48.390625 18.546875 47.265625 
Q 14.109375 46.140625 10.015625 43.890625 
L 10.015625 52.203125 
Q 14.9375 54.109375 19.578125 55.046875 
Q 24.21875 56 28.609375 56 
Q 40.484375 56 46.34375 49.84375 
Q 52.203125 43.703125 52.203125 31.203125 
z
M 33.59375 75.78125 
L 43.5 75.78125 
L 43.5 65.921875 
L 33.59375 65.921875 
z
M 14.5 75.78125 
L 24.40625 75.78125 
L 24.40625 65.921875 
L 14.5 65.921875 
z
" id="DejaVuSans-228"/>
      <path d="M 56.203125 29.59375 
L 56.203125 25.203125 
L 14.890625 25.203125 
Q 15.484375 15.921875 20.484375 11.0625 
Q 25.484375 6.203125 34.421875 6.203125 
Q 39.59375 6.203125 44.453125 7.46875 
Q 49.3125 8.734375 54.109375 11.28125 
L 54.109375 2.78125 
Q 49.265625 0.734375 44.1875 -0.34375 
Q 39.109375 -1.421875 33.890625 -1.421875 
Q 20.796875 -1.421875 13.15625 6.1875 
Q 5.515625 13.8125 5.515625 26.8125 
Q 5.515625 40.234375 12.765625 48.109375 
Q 20.015625 56 32.328125 56 
Q 43.359375 56 49.78125 48.890625 
Q 56.203125 41.796875 56.203125 29.59375 
z
M 47.21875 32.234375 
Q 47.125 39.59375 43.09375 43.984375 
Q 39.0625 48.390625 32.421875 48.390625 
Q 24.90625 48.390625 20.390625 44.140625 
Q 15.875 39.890625 15.1875 32.171875 
z
" id="DejaVuSans-101"/>
     </defs>
     <g transform="translate(16.318125 309.388359)rotate(-90)scale(0.12 -0.12)">
      <use xlink:href="#DejaVuSans-65"/>
      <use x="68.408203" xlink:href="#DejaVuSans-110"/>
      <use x="131.787109" xlink:href="#DejaVuSans-122"/>
      <use x="184.277344" xlink:href="#DejaVuSans-97"/>
      <use x="245.556641" xlink:href="#DejaVuSans-104"/>
      <use x="308.935547" xlink:href="#DejaVuSans-108"/>
      <use x="336.71875" xlink:href="#DejaVuSans-32"/>
      <use x="368.505859" xlink:href="#DejaVuSans-118"/>
      <use x="427.685547" xlink:href="#DejaVuSans-111"/>
      <use x="488.867188" xlink:href="#DejaVuSans-110"/>
      <use x="552.246094" xlink:href="#DejaVuSans-32"/>
      <use x="584.033203" xlink:href="#DejaVuSans-70"/>
      <use x="632.427734" xlink:href="#DejaVuSans-228"/>
      <use x="693.707031" xlink:href="#DejaVuSans-108"/>
      <use x="721.490234" xlink:href="#DejaVuSans-108"/>
      <use x="749.273438" xlink:href="#DejaVuSans-101"/>
      <use x="810.796875" xlink:href="#DejaVuSans-110"/>
     </g>
    </g>
   </g>
   <g id="line2d_40">
    <path clip-path="url(#pb0c46fc26b)" d="M 113.626023 481.449142 
L 142.475657 481.449142 
L 152.092201 480.510522 
L 156.900473 478.007534 
L 161.708746 478.007534 
L 166.517018 477.694661 
L 171.32529 476.75604 
L 176.133563 472.062939 
L 180.941835 468.621331 
L 185.750107 466.74409 
L 190.558379 463.302482 
L 195.366652 457.983634 
L 200.174924 456.419267 
L 204.983196 449.223178 
L 209.791469 434.518126 
L 214.599741 425.444796 
L 219.408013 419.500201 
L 224.216286 413.242732 
L 229.024558 404.482276 
L 233.83283 398.850554 
L 238.641102 393.531706 
L 243.449375 385.084123 
L 248.257647 380.391021 
L 253.065919 371.943438 
L 262.682464 364.747349 
L 272.299009 359.115628 
L 277.107281 345.036323 
L 281.915553 345.036323 
L 286.723825 325.012423 
L 291.532098 316.251966 
L 301.148642 297.47956 
L 305.956915 292.160712 
L 310.765187 291.534965 
L 315.573459 277.142787 
L 320.381731 277.768534 
L 325.190004 272.136812 
L 334.806548 267.756584 
L 344.423093 260.247621 
L 349.231365 255.241646 
L 358.84791 249.922798 
L 368.464454 248.35843 
L 373.272727 246.168316 
L 378.080999 243.039582 
L 382.889271 238.34648 
L 387.697544 233.966252 
L 392.505816 233.653379 
L 402.122361 231.463265 
L 406.930633 228.33453 
L 411.738905 227.39591 
L 416.547177 226.144416 
L 426.163722 223.015682 
L 440.588539 222.077062 
L 445.396811 219.261201 
L 455.013356 214.568099 
L 459.821628 213.003732 
L 469.438173 202.678908 
L 474.246445 199.863047 
L 483.86299 190.163971 
L 488.671262 190.163971 
L 507.904351 187.660983 
L 512.712623 187.660983 
L 517.520896 186.722363 
L 522.329168 177.33616 
L 527.13744 177.33616 
L 536.753985 171.078691 
L 541.562257 160.753868 
L 546.370529 155.747893 
L 555.987074 153.244905 
L 560.795346 152.306285 
L 570.411891 151.054791 
L 580.028435 148.864677 
L 589.64498 147.926057 
L 594.453252 147.926057 
L 604.069797 147.30031 
L 613.686342 147.30031 
L 618.494614 146.987436 
L 642.535975 146.987436 
L 647.344248 146.048816 
L 652.15252 146.048816 
L 656.960792 145.735943 
L 705.043515 145.735943 
L 714.66006 143.858702 
L 743.509694 143.858702 
L 748.317966 143.545828 
L 753.126238 142.607208 
L 757.93451 142.294335 
L 777.1676 141.981461 
L 781.975872 141.981461 
L 786.784144 140.104221 
L 791.592417 140.104221 
L 839.675139 132.595258 
L 844.483412 132.282385 
L 854.099956 130.405144 
L 858.908229 130.405144 
L 873.333046 127.902157 
L 878.141318 127.902157 
L 882.94959 126.963536 
L 887.757862 125.399169 
L 892.566135 125.086296 
L 906.990952 122.583308 
L 911.799224 121.331814 
L 916.607496 121.331814 
L 921.415769 119.767447 
L 926.224041 119.1417 
L 940.648858 119.1417 
L 945.45713 111.945611 
L 950.265402 110.694117 
L 955.073675 108.19113 
L 959.881947 105.375269 
L 983.923308 104.436649 
L 988.731581 101.933661 
L 993.539853 100.682167 
L 1007.96467 99.1178 
L 1012.772942 99.1178 
L 1017.581214 97.24056 
L 1022.389487 95.676192 
L 1027.197759 95.363319 
L 1041.622576 95.050446 
L 1046.430848 94.424699 
L 1056.047393 92.547458 
L 1060.855665 90.044471 
L 1075.280482 88.480103 
L 1080.088754 88.16723 
L 1084.897027 87.22861 
L 1094.513571 84.725622 
L 1113.74666 83.161255 
L 1118.554933 80.03252 
L 1123.363205 77.21666 
L 1128.171477 75.652292 
L 1128.171477 75.652292 
" style="fill:none;stroke:#dbcd00;stroke-linecap:square;stroke-width:2;"/>
    <defs>
     <path d="M 0 1.5 
C 0.397805 1.5 0.77937 1.341951 1.06066 1.06066 
C 1.341951 0.77937 1.5 0.397805 1.5 0 
C 1.5 -0.397805 1.341951 -0.77937 1.06066 -1.06066 
C 0.77937 -1.341951 0.397805 -1.5 0 -1.5 
C -0.397805 -1.5 -0.77937 -1.341951 -1.06066 -1.06066 
C -1.341951 -0.77937 -1.5 -0.397805 -1.5 0 
C -1.5 0.397805 -1.341951 0.77937 -1.06066 1.06066 
C -0.77937 1.341951 -0.397805 1.5 0 1.5 
z
" id="mc7cca9f7db" style="stroke:#dbcd00;"/>
    </defs>
    <g clip-path="url(#pb0c46fc26b)">
     <use style="fill:#dbcd00;stroke:#dbcd00;" x="113.626023" xlink:href="#mc7cca9f7db" y="481.449142"/>
     <use style="fill:#dbcd00;stroke:#dbcd00;" x="118.434295" xlink:href="#mc7cca9f7db" y="481.449142"/>
     <use style="fill:#dbcd00;stroke:#dbcd00;" x="123.242567" xlink:href="#mc7cca9f7db" y="481.449142"/>
     <use style="fill:#dbcd00;stroke:#dbcd00;" x="128.05084" xlink:href="#mc7cca9f7db" y="481.449142"/>
     <use style="fill:#dbcd00;stroke:#dbcd00;" x="132.859112" xlink:href="#mc7cca9f7db" y="481.449142"/>
     <use style="fill:#dbcd00;stroke:#dbcd00;" x="137.667384" xlink:href="#mc7cca9f7db" y="481.449142"/>
     <use style="fill:#dbcd00;stroke:#dbcd00;" x="142.475657" xlink:href="#mc7cca9f7db" y="481.449142"/>
     <use style="fill:#dbcd00;stroke:#dbcd00;" x="152.092201" xlink:href="#mc7cca9f7db" y="480.510522"/>
     <use style="fill:#dbcd00;stroke:#dbcd00;" x="156.900473" xlink:href="#mc7cca9f7db" y="478.007534"/>
     <use style="fill:#dbcd00;stroke:#dbcd00;" x="161.708746" xlink:href="#mc7cca9f7db" y="478.007534"/>
     <use style="fill:#dbcd00;stroke:#dbcd00;" x="166.517018" xlink:href="#mc7cca9f7db" y="477.694661"/>
     <use style="fill:#dbcd00;stroke:#dbcd00;" x="171.32529" xlink:href="#mc7cca9f7db" y="476.75604"/>
     <use style="fill:#dbcd00;stroke:#dbcd00;" x="176.133563" xlink:href="#mc7cca9f7db" y="472.062939"/>
     <use style="fill:#dbcd00;stroke:#dbcd00;" x="180.941835" xlink:href="#mc7cca9f7db" y="468.621331"/>
     <use style="fill:#dbcd00;stroke:#dbcd00;" x="185.750107" xlink:href="#mc7cca9f7db" y="466.74409"/>
     <use style="fill:#dbcd00;stroke:#dbcd00;" x="190.558379" xlink:href="#mc7cca9f7db" y="463.302482"/>
     <use style="fill:#dbcd00;stroke:#dbcd00;" x="195.366652" xlink:href="#mc7cca9f7db" y="457.983634"/>
     <use style="fill:#dbcd00;stroke:#dbcd00;" x="200.174924" xlink:href="#mc7cca9f7db" y="456.419267"/>
     <use style="fill:#dbcd00;stroke:#dbcd00;" x="204.983196" xlink:href="#mc7cca9f7db" y="449.223178"/>
     <use style="fill:#dbcd00;stroke:#dbcd00;" x="209.791469" xlink:href="#mc7cca9f7db" y="434.518126"/>
     <use style="fill:#dbcd00;stroke:#dbcd00;" x="214.599741" xlink:href="#mc7cca9f7db" y="425.444796"/>
     <use style="fill:#dbcd00;stroke:#dbcd00;" x="219.408013" xlink:href="#mc7cca9f7db" y="419.500201"/>
     <use style="fill:#dbcd00;stroke:#dbcd00;" x="224.216286" xlink:href="#mc7cca9f7db" y="413.242732"/>
     <use style="fill:#dbcd00;stroke:#dbcd00;" x="229.024558" xlink:href="#mc7cca9f7db" y="404.482276"/>
     <use style="fill:#dbcd00;stroke:#dbcd00;" x="233.83283" xlink:href="#mc7cca9f7db" y="398.850554"/>
     <use style="fill:#dbcd00;stroke:#dbcd00;" x="238.641102" xlink:href="#mc7cca9f7db" y="393.531706"/>
     <use style="fill:#dbcd00;stroke:#dbcd00;" x="243.449375" xlink:href="#mc7cca9f7db" y="385.084123"/>
     <use style="fill:#dbcd00;stroke:#dbcd00;" x="248.257647" xlink:href="#mc7cca9f7db" y="380.391021"/>
     <use style="fill:#dbcd00;stroke:#dbcd00;" x="253.065919" xlink:href="#mc7cca9f7db" y="371.943438"/>
     <use style="fill:#dbcd00;stroke:#dbcd00;" x="262.682464" xlink:href="#mc7cca9f7db" y="364.747349"/>
     <use style="fill:#dbcd00;stroke:#dbcd00;" x="272.299009" xlink:href="#mc7cca9f7db" y="359.115628"/>
     <use style="fill:#dbcd00;stroke:#dbcd00;" x="277.107281" xlink:href="#mc7cca9f7db" y="345.036323"/>
     <use style="fill:#dbcd00;stroke:#dbcd00;" x="281.915553" xlink:href="#mc7cca9f7db" y="345.036323"/>
     <use style="fill:#dbcd00;stroke:#dbcd00;" x="286.723825" xlink:href="#mc7cca9f7db" y="325.012423"/>
     <use style="fill:#dbcd00;stroke:#dbcd00;" x="291.532098" xlink:href="#mc7cca9f7db" y="316.251966"/>
     <use style="fill:#dbcd00;stroke:#dbcd00;" x="301.148642" xlink:href="#mc7cca9f7db" y="297.47956"/>
     <use style="fill:#dbcd00;stroke:#dbcd00;" x="305.956915" xlink:href="#mc7cca9f7db" y="292.160712"/>
     <use style="fill:#dbcd00;stroke:#dbcd00;" x="310.765187" xlink:href="#mc7cca9f7db" y="291.534965"/>
     <use style="fill:#dbcd00;stroke:#dbcd00;" x="315.573459" xlink:href="#mc7cca9f7db" y="277.142787"/>
     <use style="fill:#dbcd00;stroke:#dbcd00;" x="320.381731" xlink:href="#mc7cca9f7db" y="277.768534"/>
     <use style="fill:#dbcd00;stroke:#dbcd00;" x="325.190004" xlink:href="#mc7cca9f7db" y="272.136812"/>
     <use style="fill:#dbcd00;stroke:#dbcd00;" x="334.806548" xlink:href="#mc7cca9f7db" y="267.756584"/>
     <use style="fill:#dbcd00;stroke:#dbcd00;" x="339.614821" xlink:href="#mc7cca9f7db" y="264.002102"/>
     <use style="fill:#dbcd00;stroke:#dbcd00;" x="344.423093" xlink:href="#mc7cca9f7db" y="260.247621"/>
     <use style="fill:#dbcd00;stroke:#dbcd00;" x="349.231365" xlink:href="#mc7cca9f7db" y="255.241646"/>
     <use style="fill:#dbcd00;stroke:#dbcd00;" x="358.84791" xlink:href="#mc7cca9f7db" y="249.922798"/>
     <use style="fill:#dbcd00;stroke:#dbcd00;" x="368.464454" xlink:href="#mc7cca9f7db" y="248.35843"/>
     <use style="fill:#dbcd00;stroke:#dbcd00;" x="373.272727" xlink:href="#mc7cca9f7db" y="246.168316"/>
     <use style="fill:#dbcd00;stroke:#dbcd00;" x="378.080999" xlink:href="#mc7cca9f7db" y="243.039582"/>
     <use style="fill:#dbcd00;stroke:#dbcd00;" x="382.889271" xlink:href="#mc7cca9f7db" y="238.34648"/>
     <use style="fill:#dbcd00;stroke:#dbcd00;" x="387.697544" xlink:href="#mc7cca9f7db" y="233.966252"/>
     <use style="fill:#dbcd00;stroke:#dbcd00;" x="392.505816" xlink:href="#mc7cca9f7db" y="233.653379"/>
     <use style="fill:#dbcd00;stroke:#dbcd00;" x="402.122361" xlink:href="#mc7cca9f7db" y="231.463265"/>
     <use style="fill:#dbcd00;stroke:#dbcd00;" x="406.930633" xlink:href="#mc7cca9f7db" y="228.33453"/>
     <use style="fill:#dbcd00;stroke:#dbcd00;" x="411.738905" xlink:href="#mc7cca9f7db" y="227.39591"/>
     <use style="fill:#dbcd00;stroke:#dbcd00;" x="416.547177" xlink:href="#mc7cca9f7db" y="226.144416"/>
     <use style="fill:#dbcd00;stroke:#dbcd00;" x="421.35545" xlink:href="#mc7cca9f7db" y="224.580049"/>
     <use style="fill:#dbcd00;stroke:#dbcd00;" x="426.163722" xlink:href="#mc7cca9f7db" y="223.015682"/>
     <use style="fill:#dbcd00;stroke:#dbcd00;" x="435.780267" xlink:href="#mc7cca9f7db" y="222.389935"/>
     <use style="fill:#dbcd00;stroke:#dbcd00;" x="440.588539" xlink:href="#mc7cca9f7db" y="222.077062"/>
     <use style="fill:#dbcd00;stroke:#dbcd00;" x="445.396811" xlink:href="#mc7cca9f7db" y="219.261201"/>
     <use style="fill:#dbcd00;stroke:#dbcd00;" x="455.013356" xlink:href="#mc7cca9f7db" y="214.568099"/>
     <use style="fill:#dbcd00;stroke:#dbcd00;" x="459.821628" xlink:href="#mc7cca9f7db" y="213.003732"/>
     <use style="fill:#dbcd00;stroke:#dbcd00;" x="469.438173" xlink:href="#mc7cca9f7db" y="202.678908"/>
     <use style="fill:#dbcd00;stroke:#dbcd00;" x="474.246445" xlink:href="#mc7cca9f7db" y="199.863047"/>
     <use style="fill:#dbcd00;stroke:#dbcd00;" x="483.86299" xlink:href="#mc7cca9f7db" y="190.163971"/>
     <use style="fill:#dbcd00;stroke:#dbcd00;" x="488.671262" xlink:href="#mc7cca9f7db" y="190.163971"/>
     <use style="fill:#dbcd00;stroke:#dbcd00;" x="507.904351" xlink:href="#mc7cca9f7db" y="187.660983"/>
     <use style="fill:#dbcd00;stroke:#dbcd00;" x="512.712623" xlink:href="#mc7cca9f7db" y="187.660983"/>
     <use style="fill:#dbcd00;stroke:#dbcd00;" x="517.520896" xlink:href="#mc7cca9f7db" y="186.722363"/>
     <use style="fill:#dbcd00;stroke:#dbcd00;" x="522.329168" xlink:href="#mc7cca9f7db" y="177.33616"/>
     <use style="fill:#dbcd00;stroke:#dbcd00;" x="527.13744" xlink:href="#mc7cca9f7db" y="177.33616"/>
     <use style="fill:#dbcd00;stroke:#dbcd00;" x="536.753985" xlink:href="#mc7cca9f7db" y="171.078691"/>
     <use style="fill:#dbcd00;stroke:#dbcd00;" x="541.562257" xlink:href="#mc7cca9f7db" y="160.753868"/>
     <use style="fill:#dbcd00;stroke:#dbcd00;" x="546.370529" xlink:href="#mc7cca9f7db" y="155.747893"/>
     <use style="fill:#dbcd00;stroke:#dbcd00;" x="555.987074" xlink:href="#mc7cca9f7db" y="153.244905"/>
     <use style="fill:#dbcd00;stroke:#dbcd00;" x="560.795346" xlink:href="#mc7cca9f7db" y="152.306285"/>
     <use style="fill:#dbcd00;stroke:#dbcd00;" x="570.411891" xlink:href="#mc7cca9f7db" y="151.054791"/>
     <use style="fill:#dbcd00;stroke:#dbcd00;" x="580.028435" xlink:href="#mc7cca9f7db" y="148.864677"/>
     <use style="fill:#dbcd00;stroke:#dbcd00;" x="589.64498" xlink:href="#mc7cca9f7db" y="147.926057"/>
     <use style="fill:#dbcd00;stroke:#dbcd00;" x="594.453252" xlink:href="#mc7cca9f7db" y="147.926057"/>
     <use style="fill:#dbcd00;stroke:#dbcd00;" x="604.069797" xlink:href="#mc7cca9f7db" y="147.30031"/>
     <use style="fill:#dbcd00;stroke:#dbcd00;" x="608.878069" xlink:href="#mc7cca9f7db" y="147.30031"/>
     <use style="fill:#dbcd00;stroke:#dbcd00;" x="613.686342" xlink:href="#mc7cca9f7db" y="147.30031"/>
     <use style="fill:#dbcd00;stroke:#dbcd00;" x="618.494614" xlink:href="#mc7cca9f7db" y="146.987436"/>
     <use style="fill:#dbcd00;stroke:#dbcd00;" x="628.111158" xlink:href="#mc7cca9f7db" y="146.987436"/>
     <use style="fill:#dbcd00;stroke:#dbcd00;" x="637.727703" xlink:href="#mc7cca9f7db" y="146.987436"/>
     <use style="fill:#dbcd00;stroke:#dbcd00;" x="642.535975" xlink:href="#mc7cca9f7db" y="146.987436"/>
     <use style="fill:#dbcd00;stroke:#dbcd00;" x="647.344248" xlink:href="#mc7cca9f7db" y="146.048816"/>
     <use style="fill:#dbcd00;stroke:#dbcd00;" x="652.15252" xlink:href="#mc7cca9f7db" y="146.048816"/>
     <use style="fill:#dbcd00;stroke:#dbcd00;" x="656.960792" xlink:href="#mc7cca9f7db" y="145.735943"/>
     <use style="fill:#dbcd00;stroke:#dbcd00;" x="661.769065" xlink:href="#mc7cca9f7db" y="145.735943"/>
     <use style="fill:#dbcd00;stroke:#dbcd00;" x="671.385609" xlink:href="#mc7cca9f7db" y="145.735943"/>
     <use style="fill:#dbcd00;stroke:#dbcd00;" x="676.193881" xlink:href="#mc7cca9f7db" y="145.735943"/>
     <use style="fill:#dbcd00;stroke:#dbcd00;" x="681.002154" xlink:href="#mc7cca9f7db" y="145.735943"/>
     <use style="fill:#dbcd00;stroke:#dbcd00;" x="685.810426" xlink:href="#mc7cca9f7db" y="145.735943"/>
     <use style="fill:#dbcd00;stroke:#dbcd00;" x="690.618698" xlink:href="#mc7cca9f7db" y="145.735943"/>
     <use style="fill:#dbcd00;stroke:#dbcd00;" x="705.043515" xlink:href="#mc7cca9f7db" y="145.735943"/>
     <use style="fill:#dbcd00;stroke:#dbcd00;" x="709.851787" xlink:href="#mc7cca9f7db" y="144.797322"/>
     <use style="fill:#dbcd00;stroke:#dbcd00;" x="714.66006" xlink:href="#mc7cca9f7db" y="143.858702"/>
     <use style="fill:#dbcd00;stroke:#dbcd00;" x="719.468332" xlink:href="#mc7cca9f7db" y="143.858702"/>
     <use style="fill:#dbcd00;stroke:#dbcd00;" x="724.276604" xlink:href="#mc7cca9f7db" y="143.858702"/>
     <use style="fill:#dbcd00;stroke:#dbcd00;" x="738.701421" xlink:href="#mc7cca9f7db" y="143.858702"/>
     <use style="fill:#dbcd00;stroke:#dbcd00;" x="743.509694" xlink:href="#mc7cca9f7db" y="143.858702"/>
     <use style="fill:#dbcd00;stroke:#dbcd00;" x="748.317966" xlink:href="#mc7cca9f7db" y="143.545828"/>
     <use style="fill:#dbcd00;stroke:#dbcd00;" x="753.126238" xlink:href="#mc7cca9f7db" y="142.607208"/>
     <use style="fill:#dbcd00;stroke:#dbcd00;" x="757.93451" xlink:href="#mc7cca9f7db" y="142.294335"/>
     <use style="fill:#dbcd00;stroke:#dbcd00;" x="772.359327" xlink:href="#mc7cca9f7db" y="141.981461"/>
     <use style="fill:#dbcd00;stroke:#dbcd00;" x="777.1676" xlink:href="#mc7cca9f7db" y="141.981461"/>
     <use style="fill:#dbcd00;stroke:#dbcd00;" x="781.975872" xlink:href="#mc7cca9f7db" y="141.981461"/>
     <use style="fill:#dbcd00;stroke:#dbcd00;" x="786.784144" xlink:href="#mc7cca9f7db" y="140.104221"/>
     <use style="fill:#dbcd00;stroke:#dbcd00;" x="791.592417" xlink:href="#mc7cca9f7db" y="140.104221"/>
     <use style="fill:#dbcd00;stroke:#dbcd00;" x="839.675139" xlink:href="#mc7cca9f7db" y="132.595258"/>
     <use style="fill:#dbcd00;stroke:#dbcd00;" x="844.483412" xlink:href="#mc7cca9f7db" y="132.282385"/>
     <use style="fill:#dbcd00;stroke:#dbcd00;" x="854.099956" xlink:href="#mc7cca9f7db" y="130.405144"/>
     <use style="fill:#dbcd00;stroke:#dbcd00;" x="858.908229" xlink:href="#mc7cca9f7db" y="130.405144"/>
     <use style="fill:#dbcd00;stroke:#dbcd00;" x="873.333046" xlink:href="#mc7cca9f7db" y="127.902157"/>
     <use style="fill:#dbcd00;stroke:#dbcd00;" x="878.141318" xlink:href="#mc7cca9f7db" y="127.902157"/>
     <use style="fill:#dbcd00;stroke:#dbcd00;" x="882.94959" xlink:href="#mc7cca9f7db" y="126.963536"/>
     <use style="fill:#dbcd00;stroke:#dbcd00;" x="887.757862" xlink:href="#mc7cca9f7db" y="125.399169"/>
     <use style="fill:#dbcd00;stroke:#dbcd00;" x="892.566135" xlink:href="#mc7cca9f7db" y="125.086296"/>
     <use style="fill:#dbcd00;stroke:#dbcd00;" x="906.990952" xlink:href="#mc7cca9f7db" y="122.583308"/>
     <use style="fill:#dbcd00;stroke:#dbcd00;" x="911.799224" xlink:href="#mc7cca9f7db" y="121.331814"/>
     <use style="fill:#dbcd00;stroke:#dbcd00;" x="916.607496" xlink:href="#mc7cca9f7db" y="121.331814"/>
     <use style="fill:#dbcd00;stroke:#dbcd00;" x="921.415769" xlink:href="#mc7cca9f7db" y="119.767447"/>
     <use style="fill:#dbcd00;stroke:#dbcd00;" x="926.224041" xlink:href="#mc7cca9f7db" y="119.1417"/>
     <use style="fill:#dbcd00;stroke:#dbcd00;" x="940.648858" xlink:href="#mc7cca9f7db" y="119.1417"/>
     <use style="fill:#dbcd00;stroke:#dbcd00;" x="945.45713" xlink:href="#mc7cca9f7db" y="111.945611"/>
     <use style="fill:#dbcd00;stroke:#dbcd00;" x="950.265402" xlink:href="#mc7cca9f7db" y="110.694117"/>
     <use style="fill:#dbcd00;stroke:#dbcd00;" x="955.073675" xlink:href="#mc7cca9f7db" y="108.19113"/>
     <use style="fill:#dbcd00;stroke:#dbcd00;" x="959.881947" xlink:href="#mc7cca9f7db" y="105.375269"/>
     <use style="fill:#dbcd00;stroke:#dbcd00;" x="974.306764" xlink:href="#mc7cca9f7db" y="104.749522"/>
     <use style="fill:#dbcd00;stroke:#dbcd00;" x="979.115036" xlink:href="#mc7cca9f7db" y="104.436649"/>
     <use style="fill:#dbcd00;stroke:#dbcd00;" x="983.923308" xlink:href="#mc7cca9f7db" y="104.436649"/>
     <use style="fill:#dbcd00;stroke:#dbcd00;" x="988.731581" xlink:href="#mc7cca9f7db" y="101.933661"/>
     <use style="fill:#dbcd00;stroke:#dbcd00;" x="993.539853" xlink:href="#mc7cca9f7db" y="100.682167"/>
     <use style="fill:#dbcd00;stroke:#dbcd00;" x="1007.96467" xlink:href="#mc7cca9f7db" y="99.1178"/>
     <use style="fill:#dbcd00;stroke:#dbcd00;" x="1012.772942" xlink:href="#mc7cca9f7db" y="99.1178"/>
     <use style="fill:#dbcd00;stroke:#dbcd00;" x="1017.581214" xlink:href="#mc7cca9f7db" y="97.24056"/>
     <use style="fill:#dbcd00;stroke:#dbcd00;" x="1022.389487" xlink:href="#mc7cca9f7db" y="95.676192"/>
     <use style="fill:#dbcd00;stroke:#dbcd00;" x="1027.197759" xlink:href="#mc7cca9f7db" y="95.363319"/>
     <use style="fill:#dbcd00;stroke:#dbcd00;" x="1041.622576" xlink:href="#mc7cca9f7db" y="95.050446"/>
     <use style="fill:#dbcd00;stroke:#dbcd00;" x="1046.430848" xlink:href="#mc7cca9f7db" y="94.424699"/>
     <use style="fill:#dbcd00;stroke:#dbcd00;" x="1051.239121" xlink:href="#mc7cca9f7db" y="93.486078"/>
     <use style="fill:#dbcd00;stroke:#dbcd00;" x="1056.047393" xlink:href="#mc7cca9f7db" y="92.547458"/>
     <use style="fill:#dbcd00;stroke:#dbcd00;" x="1060.855665" xlink:href="#mc7cca9f7db" y="90.044471"/>
     <use style="fill:#dbcd00;stroke:#dbcd00;" x="1075.280482" xlink:href="#mc7cca9f7db" y="88.480103"/>
     <use style="fill:#dbcd00;stroke:#dbcd00;" x="1080.088754" xlink:href="#mc7cca9f7db" y="88.16723"/>
     <use style="fill:#dbcd00;stroke:#dbcd00;" x="1084.897027" xlink:href="#mc7cca9f7db" y="87.22861"/>
     <use style="fill:#dbcd00;stroke:#dbcd00;" x="1089.705299" xlink:href="#mc7cca9f7db" y="85.977116"/>
     <use style="fill:#dbcd00;stroke:#dbcd00;" x="1094.513571" xlink:href="#mc7cca9f7db" y="84.725622"/>
     <use style="fill:#dbcd00;stroke:#dbcd00;" x="1108.938388" xlink:href="#mc7cca9f7db" y="83.474128"/>
     <use style="fill:#dbcd00;stroke:#dbcd00;" x="1113.74666" xlink:href="#mc7cca9f7db" y="83.161255"/>
     <use style="fill:#dbcd00;stroke:#dbcd00;" x="1118.554933" xlink:href="#mc7cca9f7db" y="80.03252"/>
     <use style="fill:#dbcd00;stroke:#dbcd00;" x="1123.363205" xlink:href="#mc7cca9f7db" y="77.21666"/>
     <use style="fill:#dbcd00;stroke:#dbcd00;" x="1128.171477" xlink:href="#mc7cca9f7db" y="75.652292"/>
    </g>
   </g>
   <g id="line2d_41">
    <path clip-path="url(#pb0c46fc26b)" d="M 113.626023 477.068914 
L 118.434295 473.001559 
L 123.242567 467.369837 
L 128.05084 455.79352 
L 132.859112 451.726165 
L 137.667384 442.965709 
L 142.475657 430.137898 
L 152.092201 403.543656 
L 156.900473 399.163428 
L 161.708746 396.66044 
L 166.517018 392.905959 
L 171.32529 390.402971 
L 176.133563 386.022743 
L 180.941835 380.078148 
L 185.750107 372.569185 
L 190.558379 368.188957 
L 195.366652 369.440451 
L 200.174924 367.876084 
L 204.983196 365.68597 
L 209.791469 366.62459 
L 214.599741 362.870109 
L 219.408013 355.67402 
L 224.216286 350.042298 
L 229.024558 354.422526 
L 233.83283 355.67402 
L 238.641102 355.67402 
L 243.449375 357.238387 
L 248.257647 352.858159 
L 253.065919 357.55126 
L 262.682464 363.808729 
L 272.299009 363.808729 
L 277.107281 376.949413 
L 281.915553 373.507806 
L 286.723825 388.838604 
L 291.532098 395.096073 
L 301.148642 412.304112 
L 305.956915 417.310087 
L 310.765187 415.119973 
L 315.573459 427.634911 
L 320.381731 424.506176 
L 325.190004 428.573531 
L 334.806548 431.702265 
L 344.423093 438.585481 
L 349.231365 443.591456 
L 358.84791 447.033064 
L 368.464454 447.345937 
L 373.272727 448.910304 
L 378.080999 451.413292 
L 382.889271 452.664786 
L 387.697544 455.79352 
L 392.505816 452.977659 
L 402.122361 450.161798 
L 406.930633 452.039039 
L 411.738905 442.965709 
L 416.547177 440.775595 
L 421.35545 441.714215 
L 426.163722 442.339962 
L 435.780267 438.585481 
L 440.588539 438.898354 
L 445.396811 441.714215 
L 455.013356 440.775595 
L 459.821628 436.395367 
L 469.438173 446.094443 
L 474.246445 448.284557 
L 483.86299 444.217203 
L 488.671262 442.965709 
L 507.904351 444.217203 
L 517.520896 444.217203 
L 522.329168 452.039039 
L 527.13744 452.039039 
L 536.753985 457.983634 
L 541.562257 467.682711 
L 546.370529 472.688686 
L 555.987074 475.191673 
L 560.795346 476.130293 
L 570.411891 477.068914 
L 580.028435 479.259028 
L 594.453252 479.259028 
L 604.069797 479.884775 
L 613.686342 479.884775 
L 618.494614 480.197648 
L 628.111158 479.571901 
L 642.535975 479.571901 
L 647.344248 479.884775 
L 652.15252 478.946154 
L 656.960792 479.259028 
L 661.769065 479.259028 
L 671.385609 478.946154 
L 676.193881 478.633281 
L 685.810426 478.633281 
L 690.618698 478.320408 
L 705.043515 478.007534 
L 709.851787 478.320408 
L 714.66006 479.259028 
L 724.276604 478.633281 
L 738.701421 478.633281 
L 743.509694 475.191673 
L 748.317966 475.504547 
L 753.126238 474.8788 
L 757.93451 475.191673 
L 772.359327 473.940179 
L 777.1676 473.001559 
L 781.975872 473.001559 
L 786.784144 473.314433 
L 791.592417 471.437192 
L 839.675139 472.375812 
L 844.483412 471.124318 
L 854.099956 469.247078 
L 858.908229 467.682711 
L 873.333046 467.682711 
L 878.141318 462.989609 
L 882.94959 462.363862 
L 892.566135 460.486622 
L 906.990952 462.050989 
L 911.799224 462.363862 
L 916.607496 462.363862 
L 921.415769 463.615356 
L 926.224041 464.241103 
L 940.648858 464.241103 
L 945.45713 469.559951 
L 950.265402 469.559951 
L 955.073675 470.185698 
L 959.881947 472.375812 
L 974.306764 472.062939 
L 979.115036 471.124318 
L 983.923308 471.124318 
L 988.731581 473.314433 
L 993.539853 473.940179 
L 1007.96467 473.940179 
L 1012.772942 469.872825 
L 1017.581214 471.124318 
L 1022.389487 471.124318 
L 1027.197759 470.498572 
L 1041.622576 470.811445 
L 1046.430848 468.621331 
L 1060.855665 468.621331 
L 1075.280482 467.369837 
L 1080.088754 462.363862 
L 1084.897027 462.363862 
L 1089.705299 459.860875 
L 1094.513571 458.609381 
L 1108.938388 459.860875 
L 1113.74666 442.027089 
L 1118.554933 444.217203 
L 1123.363205 442.027089 
L 1128.171477 438.898354 
L 1128.171477 438.898354 
" style="fill:none;stroke:#2792cb;stroke-linecap:square;stroke-width:2;"/>
    <defs>
     <path d="M 0 1.5 
C 0.397805 1.5 0.77937 1.341951 1.06066 1.06066 
C 1.341951 0.77937 1.5 0.397805 1.5 0 
C 1.5 -0.397805 1.341951 -0.77937 1.06066 -1.06066 
C 0.77937 -1.341951 0.397805 -1.5 0 -1.5 
C -0.397805 -1.5 -0.77937 -1.341951 -1.06066 -1.06066 
C -1.341951 -0.77937 -1.5 -0.397805 -1.5 0 
C -1.5 0.397805 -1.341951 0.77937 -1.06066 1.06066 
C -0.77937 1.341951 -0.397805 1.5 0 1.5 
z
" id="m1bef23e786" style="stroke:#2792cb;"/>
    </defs>
    <g clip-path="url(#pb0c46fc26b)">
     <use style="fill:#2792cb;stroke:#2792cb;" x="113.626023" xlink:href="#m1bef23e786" y="477.068914"/>
     <use style="fill:#2792cb;stroke:#2792cb;" x="118.434295" xlink:href="#m1bef23e786" y="473.001559"/>
     <use style="fill:#2792cb;stroke:#2792cb;" x="123.242567" xlink:href="#m1bef23e786" y="467.369837"/>
     <use style="fill:#2792cb;stroke:#2792cb;" x="128.05084" xlink:href="#m1bef23e786" y="455.79352"/>
     <use style="fill:#2792cb;stroke:#2792cb;" x="132.859112" xlink:href="#m1bef23e786" y="451.726165"/>
     <use style="fill:#2792cb;stroke:#2792cb;" x="137.667384" xlink:href="#m1bef23e786" y="442.965709"/>
     <use style="fill:#2792cb;stroke:#2792cb;" x="142.475657" xlink:href="#m1bef23e786" y="430.137898"/>
     <use style="fill:#2792cb;stroke:#2792cb;" x="152.092201" xlink:href="#m1bef23e786" y="403.543656"/>
     <use style="fill:#2792cb;stroke:#2792cb;" x="156.900473" xlink:href="#m1bef23e786" y="399.163428"/>
     <use style="fill:#2792cb;stroke:#2792cb;" x="161.708746" xlink:href="#m1bef23e786" y="396.66044"/>
     <use style="fill:#2792cb;stroke:#2792cb;" x="166.517018" xlink:href="#m1bef23e786" y="392.905959"/>
     <use style="fill:#2792cb;stroke:#2792cb;" x="171.32529" xlink:href="#m1bef23e786" y="390.402971"/>
     <use style="fill:#2792cb;stroke:#2792cb;" x="176.133563" xlink:href="#m1bef23e786" y="386.022743"/>
     <use style="fill:#2792cb;stroke:#2792cb;" x="180.941835" xlink:href="#m1bef23e786" y="380.078148"/>
     <use style="fill:#2792cb;stroke:#2792cb;" x="185.750107" xlink:href="#m1bef23e786" y="372.569185"/>
     <use style="fill:#2792cb;stroke:#2792cb;" x="190.558379" xlink:href="#m1bef23e786" y="368.188957"/>
     <use style="fill:#2792cb;stroke:#2792cb;" x="195.366652" xlink:href="#m1bef23e786" y="369.440451"/>
     <use style="fill:#2792cb;stroke:#2792cb;" x="200.174924" xlink:href="#m1bef23e786" y="367.876084"/>
     <use style="fill:#2792cb;stroke:#2792cb;" x="204.983196" xlink:href="#m1bef23e786" y="365.68597"/>
     <use style="fill:#2792cb;stroke:#2792cb;" x="209.791469" xlink:href="#m1bef23e786" y="366.62459"/>
     <use style="fill:#2792cb;stroke:#2792cb;" x="214.599741" xlink:href="#m1bef23e786" y="362.870109"/>
     <use style="fill:#2792cb;stroke:#2792cb;" x="219.408013" xlink:href="#m1bef23e786" y="355.67402"/>
     <use style="fill:#2792cb;stroke:#2792cb;" x="224.216286" xlink:href="#m1bef23e786" y="350.042298"/>
     <use style="fill:#2792cb;stroke:#2792cb;" x="229.024558" xlink:href="#m1bef23e786" y="354.422526"/>
     <use style="fill:#2792cb;stroke:#2792cb;" x="233.83283" xlink:href="#m1bef23e786" y="355.67402"/>
     <use style="fill:#2792cb;stroke:#2792cb;" x="238.641102" xlink:href="#m1bef23e786" y="355.67402"/>
     <use style="fill:#2792cb;stroke:#2792cb;" x="243.449375" xlink:href="#m1bef23e786" y="357.238387"/>
     <use style="fill:#2792cb;stroke:#2792cb;" x="248.257647" xlink:href="#m1bef23e786" y="352.858159"/>
     <use style="fill:#2792cb;stroke:#2792cb;" x="253.065919" xlink:href="#m1bef23e786" y="357.55126"/>
     <use style="fill:#2792cb;stroke:#2792cb;" x="262.682464" xlink:href="#m1bef23e786" y="363.808729"/>
     <use style="fill:#2792cb;stroke:#2792cb;" x="272.299009" xlink:href="#m1bef23e786" y="363.808729"/>
     <use style="fill:#2792cb;stroke:#2792cb;" x="277.107281" xlink:href="#m1bef23e786" y="376.949413"/>
     <use style="fill:#2792cb;stroke:#2792cb;" x="281.915553" xlink:href="#m1bef23e786" y="373.507806"/>
     <use style="fill:#2792cb;stroke:#2792cb;" x="286.723825" xlink:href="#m1bef23e786" y="388.838604"/>
     <use style="fill:#2792cb;stroke:#2792cb;" x="291.532098" xlink:href="#m1bef23e786" y="395.096073"/>
     <use style="fill:#2792cb;stroke:#2792cb;" x="301.148642" xlink:href="#m1bef23e786" y="412.304112"/>
     <use style="fill:#2792cb;stroke:#2792cb;" x="305.956915" xlink:href="#m1bef23e786" y="417.310087"/>
     <use style="fill:#2792cb;stroke:#2792cb;" x="310.765187" xlink:href="#m1bef23e786" y="415.119973"/>
     <use style="fill:#2792cb;stroke:#2792cb;" x="315.573459" xlink:href="#m1bef23e786" y="427.634911"/>
     <use style="fill:#2792cb;stroke:#2792cb;" x="320.381731" xlink:href="#m1bef23e786" y="424.506176"/>
     <use style="fill:#2792cb;stroke:#2792cb;" x="325.190004" xlink:href="#m1bef23e786" y="428.573531"/>
     <use style="fill:#2792cb;stroke:#2792cb;" x="334.806548" xlink:href="#m1bef23e786" y="431.702265"/>
     <use style="fill:#2792cb;stroke:#2792cb;" x="339.614821" xlink:href="#m1bef23e786" y="435.143873"/>
     <use style="fill:#2792cb;stroke:#2792cb;" x="344.423093" xlink:href="#m1bef23e786" y="438.585481"/>
     <use style="fill:#2792cb;stroke:#2792cb;" x="349.231365" xlink:href="#m1bef23e786" y="443.591456"/>
     <use style="fill:#2792cb;stroke:#2792cb;" x="358.84791" xlink:href="#m1bef23e786" y="447.033064"/>
     <use style="fill:#2792cb;stroke:#2792cb;" x="368.464454" xlink:href="#m1bef23e786" y="447.345937"/>
     <use style="fill:#2792cb;stroke:#2792cb;" x="373.272727" xlink:href="#m1bef23e786" y="448.910304"/>
     <use style="fill:#2792cb;stroke:#2792cb;" x="378.080999" xlink:href="#m1bef23e786" y="451.413292"/>
     <use style="fill:#2792cb;stroke:#2792cb;" x="382.889271" xlink:href="#m1bef23e786" y="452.664786"/>
     <use style="fill:#2792cb;stroke:#2792cb;" x="387.697544" xlink:href="#m1bef23e786" y="455.79352"/>
     <use style="fill:#2792cb;stroke:#2792cb;" x="392.505816" xlink:href="#m1bef23e786" y="452.977659"/>
     <use style="fill:#2792cb;stroke:#2792cb;" x="402.122361" xlink:href="#m1bef23e786" y="450.161798"/>
     <use style="fill:#2792cb;stroke:#2792cb;" x="406.930633" xlink:href="#m1bef23e786" y="452.039039"/>
     <use style="fill:#2792cb;stroke:#2792cb;" x="411.738905" xlink:href="#m1bef23e786" y="442.965709"/>
     <use style="fill:#2792cb;stroke:#2792cb;" x="416.547177" xlink:href="#m1bef23e786" y="440.775595"/>
     <use style="fill:#2792cb;stroke:#2792cb;" x="421.35545" xlink:href="#m1bef23e786" y="441.714215"/>
     <use style="fill:#2792cb;stroke:#2792cb;" x="426.163722" xlink:href="#m1bef23e786" y="442.339962"/>
     <use style="fill:#2792cb;stroke:#2792cb;" x="435.780267" xlink:href="#m1bef23e786" y="438.585481"/>
     <use style="fill:#2792cb;stroke:#2792cb;" x="440.588539" xlink:href="#m1bef23e786" y="438.898354"/>
     <use style="fill:#2792cb;stroke:#2792cb;" x="445.396811" xlink:href="#m1bef23e786" y="441.714215"/>
     <use style="fill:#2792cb;stroke:#2792cb;" x="455.013356" xlink:href="#m1bef23e786" y="440.775595"/>
     <use style="fill:#2792cb;stroke:#2792cb;" x="459.821628" xlink:href="#m1bef23e786" y="436.395367"/>
     <use style="fill:#2792cb;stroke:#2792cb;" x="469.438173" xlink:href="#m1bef23e786" y="446.094443"/>
     <use style="fill:#2792cb;stroke:#2792cb;" x="474.246445" xlink:href="#m1bef23e786" y="448.284557"/>
     <use style="fill:#2792cb;stroke:#2792cb;" x="483.86299" xlink:href="#m1bef23e786" y="444.217203"/>
     <use style="fill:#2792cb;stroke:#2792cb;" x="488.671262" xlink:href="#m1bef23e786" y="442.965709"/>
     <use style="fill:#2792cb;stroke:#2792cb;" x="507.904351" xlink:href="#m1bef23e786" y="444.217203"/>
     <use style="fill:#2792cb;stroke:#2792cb;" x="512.712623" xlink:href="#m1bef23e786" y="444.217203"/>
     <use style="fill:#2792cb;stroke:#2792cb;" x="517.520896" xlink:href="#m1bef23e786" y="444.217203"/>
     <use style="fill:#2792cb;stroke:#2792cb;" x="522.329168" xlink:href="#m1bef23e786" y="452.039039"/>
     <use style="fill:#2792cb;stroke:#2792cb;" x="527.13744" xlink:href="#m1bef23e786" y="452.039039"/>
     <use style="fill:#2792cb;stroke:#2792cb;" x="536.753985" xlink:href="#m1bef23e786" y="457.983634"/>
     <use style="fill:#2792cb;stroke:#2792cb;" x="541.562257" xlink:href="#m1bef23e786" y="467.682711"/>
     <use style="fill:#2792cb;stroke:#2792cb;" x="546.370529" xlink:href="#m1bef23e786" y="472.688686"/>
     <use style="fill:#2792cb;stroke:#2792cb;" x="555.987074" xlink:href="#m1bef23e786" y="475.191673"/>
     <use style="fill:#2792cb;stroke:#2792cb;" x="560.795346" xlink:href="#m1bef23e786" y="476.130293"/>
     <use style="fill:#2792cb;stroke:#2792cb;" x="570.411891" xlink:href="#m1bef23e786" y="477.068914"/>
     <use style="fill:#2792cb;stroke:#2792cb;" x="580.028435" xlink:href="#m1bef23e786" y="479.259028"/>
     <use style="fill:#2792cb;stroke:#2792cb;" x="589.64498" xlink:href="#m1bef23e786" y="479.259028"/>
     <use style="fill:#2792cb;stroke:#2792cb;" x="594.453252" xlink:href="#m1bef23e786" y="479.259028"/>
     <use style="fill:#2792cb;stroke:#2792cb;" x="604.069797" xlink:href="#m1bef23e786" y="479.884775"/>
     <use style="fill:#2792cb;stroke:#2792cb;" x="608.878069" xlink:href="#m1bef23e786" y="479.884775"/>
     <use style="fill:#2792cb;stroke:#2792cb;" x="613.686342" xlink:href="#m1bef23e786" y="479.884775"/>
     <use style="fill:#2792cb;stroke:#2792cb;" x="618.494614" xlink:href="#m1bef23e786" y="480.197648"/>
     <use style="fill:#2792cb;stroke:#2792cb;" x="628.111158" xlink:href="#m1bef23e786" y="479.571901"/>
     <use style="fill:#2792cb;stroke:#2792cb;" x="637.727703" xlink:href="#m1bef23e786" y="479.571901"/>
     <use style="fill:#2792cb;stroke:#2792cb;" x="642.535975" xlink:href="#m1bef23e786" y="479.571901"/>
     <use style="fill:#2792cb;stroke:#2792cb;" x="647.344248" xlink:href="#m1bef23e786" y="479.884775"/>
     <use style="fill:#2792cb;stroke:#2792cb;" x="652.15252" xlink:href="#m1bef23e786" y="478.946154"/>
     <use style="fill:#2792cb;stroke:#2792cb;" x="656.960792" xlink:href="#m1bef23e786" y="479.259028"/>
     <use style="fill:#2792cb;stroke:#2792cb;" x="661.769065" xlink:href="#m1bef23e786" y="479.259028"/>
     <use style="fill:#2792cb;stroke:#2792cb;" x="671.385609" xlink:href="#m1bef23e786" y="478.946154"/>
     <use style="fill:#2792cb;stroke:#2792cb;" x="676.193881" xlink:href="#m1bef23e786" y="478.633281"/>
     <use style="fill:#2792cb;stroke:#2792cb;" x="681.002154" xlink:href="#m1bef23e786" y="478.633281"/>
     <use style="fill:#2792cb;stroke:#2792cb;" x="685.810426" xlink:href="#m1bef23e786" y="478.633281"/>
     <use style="fill:#2792cb;stroke:#2792cb;" x="690.618698" xlink:href="#m1bef23e786" y="478.320408"/>
     <use style="fill:#2792cb;stroke:#2792cb;" x="705.043515" xlink:href="#m1bef23e786" y="478.007534"/>
     <use style="fill:#2792cb;stroke:#2792cb;" x="709.851787" xlink:href="#m1bef23e786" y="478.320408"/>
     <use style="fill:#2792cb;stroke:#2792cb;" x="714.66006" xlink:href="#m1bef23e786" y="479.259028"/>
     <use style="fill:#2792cb;stroke:#2792cb;" x="719.468332" xlink:href="#m1bef23e786" y="478.946154"/>
     <use style="fill:#2792cb;stroke:#2792cb;" x="724.276604" xlink:href="#m1bef23e786" y="478.633281"/>
     <use style="fill:#2792cb;stroke:#2792cb;" x="738.701421" xlink:href="#m1bef23e786" y="478.633281"/>
     <use style="fill:#2792cb;stroke:#2792cb;" x="743.509694" xlink:href="#m1bef23e786" y="475.191673"/>
     <use style="fill:#2792cb;stroke:#2792cb;" x="748.317966" xlink:href="#m1bef23e786" y="475.504547"/>
     <use style="fill:#2792cb;stroke:#2792cb;" x="753.126238" xlink:href="#m1bef23e786" y="474.8788"/>
     <use style="fill:#2792cb;stroke:#2792cb;" x="757.93451" xlink:href="#m1bef23e786" y="475.191673"/>
     <use style="fill:#2792cb;stroke:#2792cb;" x="772.359327" xlink:href="#m1bef23e786" y="473.940179"/>
     <use style="fill:#2792cb;stroke:#2792cb;" x="777.1676" xlink:href="#m1bef23e786" y="473.001559"/>
     <use style="fill:#2792cb;stroke:#2792cb;" x="781.975872" xlink:href="#m1bef23e786" y="473.001559"/>
     <use style="fill:#2792cb;stroke:#2792cb;" x="786.784144" xlink:href="#m1bef23e786" y="473.314433"/>
     <use style="fill:#2792cb;stroke:#2792cb;" x="791.592417" xlink:href="#m1bef23e786" y="471.437192"/>
     <use style="fill:#2792cb;stroke:#2792cb;" x="839.675139" xlink:href="#m1bef23e786" y="472.375812"/>
     <use style="fill:#2792cb;stroke:#2792cb;" x="844.483412" xlink:href="#m1bef23e786" y="471.124318"/>
     <use style="fill:#2792cb;stroke:#2792cb;" x="854.099956" xlink:href="#m1bef23e786" y="469.247078"/>
     <use style="fill:#2792cb;stroke:#2792cb;" x="858.908229" xlink:href="#m1bef23e786" y="467.682711"/>
     <use style="fill:#2792cb;stroke:#2792cb;" x="873.333046" xlink:href="#m1bef23e786" y="467.682711"/>
     <use style="fill:#2792cb;stroke:#2792cb;" x="878.141318" xlink:href="#m1bef23e786" y="462.989609"/>
     <use style="fill:#2792cb;stroke:#2792cb;" x="882.94959" xlink:href="#m1bef23e786" y="462.363862"/>
     <use style="fill:#2792cb;stroke:#2792cb;" x="887.757862" xlink:href="#m1bef23e786" y="461.425242"/>
     <use style="fill:#2792cb;stroke:#2792cb;" x="892.566135" xlink:href="#m1bef23e786" y="460.486622"/>
     <use style="fill:#2792cb;stroke:#2792cb;" x="906.990952" xlink:href="#m1bef23e786" y="462.050989"/>
     <use style="fill:#2792cb;stroke:#2792cb;" x="911.799224" xlink:href="#m1bef23e786" y="462.363862"/>
     <use style="fill:#2792cb;stroke:#2792cb;" x="916.607496" xlink:href="#m1bef23e786" y="462.363862"/>
     <use style="fill:#2792cb;stroke:#2792cb;" x="921.415769" xlink:href="#m1bef23e786" y="463.615356"/>
     <use style="fill:#2792cb;stroke:#2792cb;" x="926.224041" xlink:href="#m1bef23e786" y="464.241103"/>
     <use style="fill:#2792cb;stroke:#2792cb;" x="940.648858" xlink:href="#m1bef23e786" y="464.241103"/>
     <use style="fill:#2792cb;stroke:#2792cb;" x="945.45713" xlink:href="#m1bef23e786" y="469.559951"/>
     <use style="fill:#2792cb;stroke:#2792cb;" x="950.265402" xlink:href="#m1bef23e786" y="469.559951"/>
     <use style="fill:#2792cb;stroke:#2792cb;" x="955.073675" xlink:href="#m1bef23e786" y="470.185698"/>
     <use style="fill:#2792cb;stroke:#2792cb;" x="959.881947" xlink:href="#m1bef23e786" y="472.375812"/>
     <use style="fill:#2792cb;stroke:#2792cb;" x="974.306764" xlink:href="#m1bef23e786" y="472.062939"/>
     <use style="fill:#2792cb;stroke:#2792cb;" x="979.115036" xlink:href="#m1bef23e786" y="471.124318"/>
     <use style="fill:#2792cb;stroke:#2792cb;" x="983.923308" xlink:href="#m1bef23e786" y="471.124318"/>
     <use style="fill:#2792cb;stroke:#2792cb;" x="988.731581" xlink:href="#m1bef23e786" y="473.314433"/>
     <use style="fill:#2792cb;stroke:#2792cb;" x="993.539853" xlink:href="#m1bef23e786" y="473.940179"/>
     <use style="fill:#2792cb;stroke:#2792cb;" x="1007.96467" xlink:href="#m1bef23e786" y="473.940179"/>
     <use style="fill:#2792cb;stroke:#2792cb;" x="1012.772942" xlink:href="#m1bef23e786" y="469.872825"/>
     <use style="fill:#2792cb;stroke:#2792cb;" x="1017.581214" xlink:href="#m1bef23e786" y="471.124318"/>
     <use style="fill:#2792cb;stroke:#2792cb;" x="1022.389487" xlink:href="#m1bef23e786" y="471.124318"/>
     <use style="fill:#2792cb;stroke:#2792cb;" x="1027.197759" xlink:href="#m1bef23e786" y="470.498572"/>
     <use style="fill:#2792cb;stroke:#2792cb;" x="1041.622576" xlink:href="#m1bef23e786" y="470.811445"/>
     <use style="fill:#2792cb;stroke:#2792cb;" x="1046.430848" xlink:href="#m1bef23e786" y="468.621331"/>
     <use style="fill:#2792cb;stroke:#2792cb;" x="1051.239121" xlink:href="#m1bef23e786" y="468.621331"/>
     <use style="fill:#2792cb;stroke:#2792cb;" x="1056.047393" xlink:href="#m1bef23e786" y="468.621331"/>
     <use style="fill:#2792cb;stroke:#2792cb;" x="1060.855665" xlink:href="#m1bef23e786" y="468.621331"/>
     <use style="fill:#2792cb;stroke:#2792cb;" x="1075.280482" xlink:href="#m1bef23e786" y="467.369837"/>
     <use style="fill:#2792cb;stroke:#2792cb;" x="1080.088754" xlink:href="#m1bef23e786" y="462.363862"/>
     <use style="fill:#2792cb;stroke:#2792cb;" x="1084.897027" xlink:href="#m1bef23e786" y="462.363862"/>
     <use style="fill:#2792cb;stroke:#2792cb;" x="1089.705299" xlink:href="#m1bef23e786" y="459.860875"/>
     <use style="fill:#2792cb;stroke:#2792cb;" x="1094.513571" xlink:href="#m1bef23e786" y="458.609381"/>
     <use style="fill:#2792cb;stroke:#2792cb;" x="1108.938388" xlink:href="#m1bef23e786" y="459.860875"/>
     <use style="fill:#2792cb;stroke:#2792cb;" x="1113.74666" xlink:href="#m1bef23e786" y="442.027089"/>
     <use style="fill:#2792cb;stroke:#2792cb;" x="1118.554933" xlink:href="#m1bef23e786" y="444.217203"/>
     <use style="fill:#2792cb;stroke:#2792cb;" x="1123.363205" xlink:href="#m1bef23e786" y="442.027089"/>
     <use style="fill:#2792cb;stroke:#2792cb;" x="1128.171477" xlink:href="#m1bef23e786" y="438.898354"/>
    </g>
   </g>
   <g id="patch_3">
    <path d="M 62.89875 501.738984 
L 1178.89875 501.738984 
" style="fill:none;stroke:#000000;stroke-linecap:square;stroke-linejoin:miter;stroke-width:0.8;"/>
   </g>
   <g id="legend_1">
    <g id="line2d_42">
     <path d="M 1091.653438 25.237422 
L 1111.653438 25.237422 
" style="fill:none;stroke:#dbcd00;stroke-linecap:square;stroke-width:2;"/>
    </g>
    <g id="line2d_43">
     <g>
      <use style="fill:#dbcd00;stroke:#dbcd00;" x="1101.653438" xlink:href="#mc7cca9f7db" y="25.237422"/>
     </g>
    </g>
    <g id="text_25">
     <!-- Genesene -->
     <defs>
      <path d="M 59.515625 10.40625 
L 59.515625 29.984375 
L 43.40625 29.984375 
L 43.40625 38.09375 
L 69.28125 38.09375 
L 69.28125 6.78125 
Q 63.578125 2.734375 56.6875 0.65625 
Q 49.8125 -1.421875 42 -1.421875 
Q 24.90625 -1.421875 15.25 8.5625 
Q 5.609375 18.5625 5.609375 36.375 
Q 5.609375 54.25 15.25 64.234375 
Q 24.90625 74.21875 42 74.21875 
Q 49.125 74.21875 55.546875 72.453125 
Q 61.96875 70.703125 67.390625 67.28125 
L 67.390625 56.78125 
Q 61.921875 61.421875 55.765625 63.765625 
Q 49.609375 66.109375 42.828125 66.109375 
Q 29.4375 66.109375 22.71875 58.640625 
Q 16.015625 51.171875 16.015625 36.375 
Q 16.015625 21.625 22.71875 14.15625 
Q 29.4375 6.6875 42.828125 6.6875 
Q 48.046875 6.6875 52.140625 7.59375 
Q 56.25 8.5 59.515625 10.40625 
z
" id="DejaVuSans-71"/>
      <path d="M 44.28125 53.078125 
L 44.28125 44.578125 
Q 40.484375 46.53125 36.375 47.5 
Q 32.28125 48.484375 27.875 48.484375 
Q 21.1875 48.484375 17.84375 46.4375 
Q 14.5 44.390625 14.5 40.28125 
Q 14.5 37.15625 16.890625 35.375 
Q 19.28125 33.59375 26.515625 31.984375 
L 29.59375 31.296875 
Q 39.15625 29.25 43.1875 25.515625 
Q 47.21875 21.78125 47.21875 15.09375 
Q 47.21875 7.46875 41.1875 3.015625 
Q 35.15625 -1.421875 24.609375 -1.421875 
Q 20.21875 -1.421875 15.453125 -0.5625 
Q 10.6875 0.296875 5.421875 2 
L 5.421875 11.28125 
Q 10.40625 8.6875 15.234375 7.390625 
Q 20.0625 6.109375 24.8125 6.109375 
Q 31.15625 6.109375 34.5625 8.28125 
Q 37.984375 10.453125 37.984375 14.40625 
Q 37.984375 18.0625 35.515625 20.015625 
Q 33.0625 21.96875 24.703125 23.78125 
L 21.578125 24.515625 
Q 13.234375 26.265625 9.515625 29.90625 
Q 5.8125 33.546875 5.8125 39.890625 
Q 5.8125 47.609375 11.28125 51.796875 
Q 16.75 56 26.8125 56 
Q 31.78125 56 36.171875 55.265625 
Q 40.578125 54.546875 44.28125 53.078125 
z
" id="DejaVuSans-115"/>
     </defs>
     <g transform="translate(1119.653438 28.737422)scale(0.1 -0.1)">
      <use xlink:href="#DejaVuSans-71"/>
      <use x="77.490234" xlink:href="#DejaVuSans-101"/>
      <use x="139.013672" xlink:href="#DejaVuSans-110"/>
      <use x="202.392578" xlink:href="#DejaVuSans-101"/>
      <use x="263.916016" xlink:href="#DejaVuSans-115"/>
      <use x="316.015625" xlink:href="#DejaVuSans-101"/>
      <use x="377.539062" xlink:href="#DejaVuSans-110"/>
      <use x="440.917969" xlink:href="#DejaVuSans-101"/>
     </g>
    </g>
    <g id="line2d_44">
     <path d="M 1091.653438 39.915547 
L 1111.653438 39.915547 
" style="fill:none;stroke:#2792cb;stroke-linecap:square;stroke-width:2;"/>
    </g>
    <g id="line2d_45">
     <g>
      <use style="fill:#2792cb;stroke:#2792cb;" x="1101.653438" xlink:href="#m1bef23e786" y="39.915547"/>
     </g>
    </g>
    <g id="text_26">
     <!-- Erkrankte -->
     <defs>
      <path d="M 9.8125 72.90625 
L 55.90625 72.90625 
L 55.90625 64.59375 
L 19.671875 64.59375 
L 19.671875 43.015625 
L 54.390625 43.015625 
L 54.390625 34.71875 
L 19.671875 34.71875 
L 19.671875 8.296875 
L 56.78125 8.296875 
L 56.78125 0 
L 9.8125 0 
z
" id="DejaVuSans-69"/>
      <path d="M 41.109375 46.296875 
Q 39.59375 47.171875 37.8125 47.578125 
Q 36.03125 48 33.890625 48 
Q 26.265625 48 22.1875 43.046875 
Q 18.109375 38.09375 18.109375 28.8125 
L 18.109375 0 
L 9.078125 0 
L 9.078125 54.6875 
L 18.109375 54.6875 
L 18.109375 46.1875 
Q 20.953125 51.171875 25.484375 53.578125 
Q 30.03125 56 36.53125 56 
Q 37.453125 56 38.578125 55.875 
Q 39.703125 55.765625 41.0625 55.515625 
z
" id="DejaVuSans-114"/>
      <path d="M 9.078125 75.984375 
L 18.109375 75.984375 
L 18.109375 31.109375 
L 44.921875 54.6875 
L 56.390625 54.6875 
L 27.390625 29.109375 
L 57.625 0 
L 45.90625 0 
L 18.109375 26.703125 
L 18.109375 0 
L 9.078125 0 
z
" id="DejaVuSans-107"/>
      <path d="M 18.3125 70.21875 
L 18.3125 54.6875 
L 36.8125 54.6875 
L 36.8125 47.703125 
L 18.3125 47.703125 
L 18.3125 18.015625 
Q 18.3125 11.328125 20.140625 9.421875 
Q 21.96875 7.515625 27.59375 7.515625 
L 36.8125 7.515625 
L 36.8125 0 
L 27.59375 0 
Q 17.1875 0 13.234375 3.875 
Q 9.28125 7.765625 9.28125 18.015625 
L 9.28125 47.703125 
L 2.6875 47.703125 
L 2.6875 54.6875 
L 9.28125 54.6875 
L 9.28125 70.21875 
z
" id="DejaVuSans-116"/>
     </defs>
     <g transform="translate(1119.653438 43.415547)scale(0.1 -0.1)">
      <use xlink:href="#DejaVuSans-69"/>
      <use x="63.183594" xlink:href="#DejaVuSans-114"/>
      <use x="104.296875" xlink:href="#DejaVuSans-107"/>
      <use x="162.207031" xlink:href="#DejaVuSans-114"/>
      <use x="203.320312" xlink:href="#DejaVuSans-97"/>
      <use x="264.599609" xlink:href="#DejaVuSans-110"/>
      <use x="327.978516" xlink:href="#DejaVuSans-107"/>
      <use x="385.888672" xlink:href="#DejaVuSans-116"/>
      <use x="425.097656" xlink:href="#DejaVuSans-101"/>
     </g>
    </g>
   </g>
  </g>
 </g>
 <defs>
  <clipPath id="pb0c46fc26b">
   <rect height="489.6" width="1116" x="62.89875" y="12.138984"/>
  </clipPath>
 </defs>
</svg>
