<?xml version="1.0" encoding="utf-8" standalone="no"?>
<!DOCTYPE svg PUBLIC "-//W3C//DTD SVG 1.1//EN"
  "http://www.w3.org/Graphics/SVG/1.1/DTD/svg11.dtd">
<!-- Created with matplotlib (https://matplotlib.org/) -->
<svg height="553.993765pt" version="1.1" viewBox="0 0 1186.09875 553.993765" width="1186.09875pt" xmlns="http://www.w3.org/2000/svg" xmlns:xlink="http://www.w3.org/1999/xlink">
 <defs>
  <style type="text/css">
*{stroke-linecap:butt;stroke-linejoin:round;}
  </style>
 </defs>
 <g id="figure_1">
  <g id="patch_1">
   <path d="M 0 553.993765 
L 1186.09875 553.993765 
L 1186.09875 0 
L 0 0 
z
" style="fill:#ffffff;"/>
  </g>
  <g id="axes_1">
   <g id="patch_2">
    <path d="M 62.89875 501.738984 
L 1178.89875 501.738984 
L 1178.89875 12.138984 
L 62.89875 12.138984 
z
" style="fill:#ffffff;"/>
   </g>
   <g id="matplotlib.axis_1">
    <g id="xtick_1">
     <g id="line2d_1">
      <defs>
       <path d="M 0 0 
L 0 3.5 
" id="m367ef45164" style="stroke:#000000;stroke-width:0.8;"/>
      </defs>
      <g>
       <use style="stroke:#000000;stroke-width:0.8;" x="152.814474" xlink:href="#m367ef45164" y="501.738984"/>
      </g>
     </g>
     <g id="text_1">
      <!-- 2020-04 -->
      <defs>
       <path d="M 19.1875 8.296875 
L 53.609375 8.296875 
L 53.609375 0 
L 7.328125 0 
L 7.328125 8.296875 
Q 12.9375 14.109375 22.625 23.890625 
Q 32.328125 33.6875 34.8125 36.53125 
Q 39.546875 41.84375 41.421875 45.53125 
Q 43.3125 49.21875 43.3125 52.78125 
Q 43.3125 58.59375 39.234375 62.25 
Q 35.15625 65.921875 28.609375 65.921875 
Q 23.96875 65.921875 18.8125 64.3125 
Q 13.671875 62.703125 7.8125 59.421875 
L 7.8125 69.390625 
Q 13.765625 71.78125 18.9375 73 
Q 24.125 74.21875 28.421875 74.21875 
Q 39.75 74.21875 46.484375 68.546875 
Q 53.21875 62.890625 53.21875 53.421875 
Q 53.21875 48.921875 51.53125 44.890625 
Q 49.859375 40.875 45.40625 35.40625 
Q 44.1875 33.984375 37.640625 27.21875 
Q 31.109375 20.453125 19.1875 8.296875 
z
" id="DejaVuSans-50"/>
       <path d="M 31.78125 66.40625 
Q 24.171875 66.40625 20.328125 58.90625 
Q 16.5 51.421875 16.5 36.375 
Q 16.5 21.390625 20.328125 13.890625 
Q 24.171875 6.390625 31.78125 6.390625 
Q 39.453125 6.390625 43.28125 13.890625 
Q 47.125 21.390625 47.125 36.375 
Q 47.125 51.421875 43.28125 58.90625 
Q 39.453125 66.40625 31.78125 66.40625 
z
M 31.78125 74.21875 
Q 44.046875 74.21875 50.515625 64.515625 
Q 56.984375 54.828125 56.984375 36.375 
Q 56.984375 17.96875 50.515625 8.265625 
Q 44.046875 -1.421875 31.78125 -1.421875 
Q 19.53125 -1.421875 13.0625 8.265625 
Q 6.59375 17.96875 6.59375 36.375 
Q 6.59375 54.828125 13.0625 64.515625 
Q 19.53125 74.21875 31.78125 74.21875 
z
" id="DejaVuSans-48"/>
       <path d="M 4.890625 31.390625 
L 31.203125 31.390625 
L 31.203125 23.390625 
L 4.890625 23.390625 
z
" id="DejaVuSans-45"/>
       <path d="M 37.796875 64.3125 
L 12.890625 25.390625 
L 37.796875 25.390625 
z
M 35.203125 72.90625 
L 47.609375 72.90625 
L 47.609375 25.390625 
L 58.015625 25.390625 
L 58.015625 17.1875 
L 47.609375 17.1875 
L 47.609375 0 
L 37.796875 0 
L 37.796875 17.1875 
L 4.890625 17.1875 
L 4.890625 26.703125 
z
" id="DejaVuSans-52"/>
      </defs>
      <g transform="translate(104.422207 544.452384)rotate(-30)scale(0.13 -0.13)">
       <use xlink:href="#DejaVuSans-50"/>
       <use x="63.623047" xlink:href="#DejaVuSans-48"/>
       <use x="127.246094" xlink:href="#DejaVuSans-50"/>
       <use x="190.869141" xlink:href="#DejaVuSans-48"/>
       <use x="254.492188" xlink:href="#DejaVuSans-45"/>
       <use x="290.576172" xlink:href="#DejaVuSans-48"/>
       <use x="354.199219" xlink:href="#DejaVuSans-52"/>
      </g>
     </g>
    </g>
    <g id="xtick_2">
     <g id="line2d_2">
      <g>
       <use style="stroke:#000000;stroke-width:0.8;" x="283.442644" xlink:href="#m367ef45164" y="501.738984"/>
      </g>
     </g>
     <g id="text_2">
      <!-- 2020-05 -->
      <defs>
       <path d="M 10.796875 72.90625 
L 49.515625 72.90625 
L 49.515625 64.59375 
L 19.828125 64.59375 
L 19.828125 46.734375 
Q 21.96875 47.46875 24.109375 47.828125 
Q 26.265625 48.1875 28.421875 48.1875 
Q 40.625 48.1875 47.75 41.5 
Q 54.890625 34.8125 54.890625 23.390625 
Q 54.890625 11.625 47.5625 5.09375 
Q 40.234375 -1.421875 26.90625 -1.421875 
Q 22.3125 -1.421875 17.546875 -0.640625 
Q 12.796875 0.140625 7.71875 1.703125 
L 7.71875 11.625 
Q 12.109375 9.234375 16.796875 8.0625 
Q 21.484375 6.890625 26.703125 6.890625 
Q 35.15625 6.890625 40.078125 11.328125 
Q 45.015625 15.765625 45.015625 23.390625 
Q 45.015625 31 40.078125 35.4375 
Q 35.15625 39.890625 26.703125 39.890625 
Q 22.75 39.890625 18.8125 39.015625 
Q 14.890625 38.140625 10.796875 36.28125 
z
" id="DejaVuSans-53"/>
      </defs>
      <g transform="translate(235.050377 544.452384)rotate(-30)scale(0.13 -0.13)">
       <use xlink:href="#DejaVuSans-50"/>
       <use x="63.623047" xlink:href="#DejaVuSans-48"/>
       <use x="127.246094" xlink:href="#DejaVuSans-50"/>
       <use x="190.869141" xlink:href="#DejaVuSans-48"/>
       <use x="254.492188" xlink:href="#DejaVuSans-45"/>
       <use x="290.576172" xlink:href="#DejaVuSans-48"/>
       <use x="354.199219" xlink:href="#DejaVuSans-53"/>
      </g>
     </g>
    </g>
    <g id="xtick_3">
     <g id="line2d_3">
      <g>
       <use style="stroke:#000000;stroke-width:0.8;" x="418.425086" xlink:href="#m367ef45164" y="501.738984"/>
      </g>
     </g>
     <g id="text_3">
      <!-- 2020-06 -->
      <defs>
       <path d="M 33.015625 40.375 
Q 26.375 40.375 22.484375 35.828125 
Q 18.609375 31.296875 18.609375 23.390625 
Q 18.609375 15.53125 22.484375 10.953125 
Q 26.375 6.390625 33.015625 6.390625 
Q 39.65625 6.390625 43.53125 10.953125 
Q 47.40625 15.53125 47.40625 23.390625 
Q 47.40625 31.296875 43.53125 35.828125 
Q 39.65625 40.375 33.015625 40.375 
z
M 52.59375 71.296875 
L 52.59375 62.3125 
Q 48.875 64.0625 45.09375 64.984375 
Q 41.3125 65.921875 37.59375 65.921875 
Q 27.828125 65.921875 22.671875 59.328125 
Q 17.53125 52.734375 16.796875 39.40625 
Q 19.671875 43.65625 24.015625 45.921875 
Q 28.375 48.1875 33.59375 48.1875 
Q 44.578125 48.1875 50.953125 41.515625 
Q 57.328125 34.859375 57.328125 23.390625 
Q 57.328125 12.15625 50.6875 5.359375 
Q 44.046875 -1.421875 33.015625 -1.421875 
Q 20.359375 -1.421875 13.671875 8.265625 
Q 6.984375 17.96875 6.984375 36.375 
Q 6.984375 53.65625 15.1875 63.9375 
Q 23.390625 74.21875 37.203125 74.21875 
Q 40.921875 74.21875 44.703125 73.484375 
Q 48.484375 72.75 52.59375 71.296875 
z
" id="DejaVuSans-54"/>
      </defs>
      <g transform="translate(370.032819 544.452384)rotate(-30)scale(0.13 -0.13)">
       <use xlink:href="#DejaVuSans-50"/>
       <use x="63.623047" xlink:href="#DejaVuSans-48"/>
       <use x="127.246094" xlink:href="#DejaVuSans-50"/>
       <use x="190.869141" xlink:href="#DejaVuSans-48"/>
       <use x="254.492188" xlink:href="#DejaVuSans-45"/>
       <use x="290.576172" xlink:href="#DejaVuSans-48"/>
       <use x="354.199219" xlink:href="#DejaVuSans-54"/>
      </g>
     </g>
    </g>
    <g id="xtick_4">
     <g id="line2d_4">
      <g>
       <use style="stroke:#000000;stroke-width:0.8;" x="549.053256" xlink:href="#m367ef45164" y="501.738984"/>
      </g>
     </g>
     <g id="text_4">
      <!-- 2020-07 -->
      <defs>
       <path d="M 8.203125 72.90625 
L 55.078125 72.90625 
L 55.078125 68.703125 
L 28.609375 0 
L 18.3125 0 
L 43.21875 64.59375 
L 8.203125 64.59375 
z
" id="DejaVuSans-55"/>
      </defs>
      <g transform="translate(500.660989 544.452384)rotate(-30)scale(0.13 -0.13)">
       <use xlink:href="#DejaVuSans-50"/>
       <use x="63.623047" xlink:href="#DejaVuSans-48"/>
       <use x="127.246094" xlink:href="#DejaVuSans-50"/>
       <use x="190.869141" xlink:href="#DejaVuSans-48"/>
       <use x="254.492188" xlink:href="#DejaVuSans-45"/>
       <use x="290.576172" xlink:href="#DejaVuSans-48"/>
       <use x="354.199219" xlink:href="#DejaVuSans-55"/>
      </g>
     </g>
    </g>
    <g id="xtick_5">
     <g id="line2d_5">
      <g>
       <use style="stroke:#000000;stroke-width:0.8;" x="684.035699" xlink:href="#m367ef45164" y="501.738984"/>
      </g>
     </g>
     <g id="text_5">
      <!-- 2020-08 -->
      <defs>
       <path d="M 31.78125 34.625 
Q 24.75 34.625 20.71875 30.859375 
Q 16.703125 27.09375 16.703125 20.515625 
Q 16.703125 13.921875 20.71875 10.15625 
Q 24.75 6.390625 31.78125 6.390625 
Q 38.8125 6.390625 42.859375 10.171875 
Q 46.921875 13.96875 46.921875 20.515625 
Q 46.921875 27.09375 42.890625 30.859375 
Q 38.875 34.625 31.78125 34.625 
z
M 21.921875 38.8125 
Q 15.578125 40.375 12.03125 44.71875 
Q 8.5 49.078125 8.5 55.328125 
Q 8.5 64.0625 14.71875 69.140625 
Q 20.953125 74.21875 31.78125 74.21875 
Q 42.671875 74.21875 48.875 69.140625 
Q 55.078125 64.0625 55.078125 55.328125 
Q 55.078125 49.078125 51.53125 44.71875 
Q 48 40.375 41.703125 38.8125 
Q 48.828125 37.15625 52.796875 32.3125 
Q 56.78125 27.484375 56.78125 20.515625 
Q 56.78125 9.90625 50.3125 4.234375 
Q 43.84375 -1.421875 31.78125 -1.421875 
Q 19.734375 -1.421875 13.25 4.234375 
Q 6.78125 9.90625 6.78125 20.515625 
Q 6.78125 27.484375 10.78125 32.3125 
Q 14.796875 37.15625 21.921875 38.8125 
z
M 18.3125 54.390625 
Q 18.3125 48.734375 21.84375 45.5625 
Q 25.390625 42.390625 31.78125 42.390625 
Q 38.140625 42.390625 41.71875 45.5625 
Q 45.3125 48.734375 45.3125 54.390625 
Q 45.3125 60.0625 41.71875 63.234375 
Q 38.140625 66.40625 31.78125 66.40625 
Q 25.390625 66.40625 21.84375 63.234375 
Q 18.3125 60.0625 18.3125 54.390625 
z
" id="DejaVuSans-56"/>
      </defs>
      <g transform="translate(635.643432 544.452384)rotate(-30)scale(0.13 -0.13)">
       <use xlink:href="#DejaVuSans-50"/>
       <use x="63.623047" xlink:href="#DejaVuSans-48"/>
       <use x="127.246094" xlink:href="#DejaVuSans-50"/>
       <use x="190.869141" xlink:href="#DejaVuSans-48"/>
       <use x="254.492188" xlink:href="#DejaVuSans-45"/>
       <use x="290.576172" xlink:href="#DejaVuSans-48"/>
       <use x="354.199219" xlink:href="#DejaVuSans-56"/>
      </g>
     </g>
    </g>
    <g id="xtick_6">
     <g id="line2d_6">
      <g>
       <use style="stroke:#000000;stroke-width:0.8;" x="819.018141" xlink:href="#m367ef45164" y="501.738984"/>
      </g>
     </g>
     <g id="text_6">
      <!-- 2020-09 -->
      <defs>
       <path d="M 10.984375 1.515625 
L 10.984375 10.5 
Q 14.703125 8.734375 18.5 7.8125 
Q 22.3125 6.890625 25.984375 6.890625 
Q 35.75 6.890625 40.890625 13.453125 
Q 46.046875 20.015625 46.78125 33.40625 
Q 43.953125 29.203125 39.59375 26.953125 
Q 35.25 24.703125 29.984375 24.703125 
Q 19.046875 24.703125 12.671875 31.3125 
Q 6.296875 37.9375 6.296875 49.421875 
Q 6.296875 60.640625 12.9375 67.421875 
Q 19.578125 74.21875 30.609375 74.21875 
Q 43.265625 74.21875 49.921875 64.515625 
Q 56.59375 54.828125 56.59375 36.375 
Q 56.59375 19.140625 48.40625 8.859375 
Q 40.234375 -1.421875 26.421875 -1.421875 
Q 22.703125 -1.421875 18.890625 -0.6875 
Q 15.09375 0.046875 10.984375 1.515625 
z
M 30.609375 32.421875 
Q 37.25 32.421875 41.125 36.953125 
Q 45.015625 41.5 45.015625 49.421875 
Q 45.015625 57.28125 41.125 61.84375 
Q 37.25 66.40625 30.609375 66.40625 
Q 23.96875 66.40625 20.09375 61.84375 
Q 16.21875 57.28125 16.21875 49.421875 
Q 16.21875 41.5 20.09375 36.953125 
Q 23.96875 32.421875 30.609375 32.421875 
z
" id="DejaVuSans-57"/>
      </defs>
      <g transform="translate(770.625874 544.452384)rotate(-30)scale(0.13 -0.13)">
       <use xlink:href="#DejaVuSans-50"/>
       <use x="63.623047" xlink:href="#DejaVuSans-48"/>
       <use x="127.246094" xlink:href="#DejaVuSans-50"/>
       <use x="190.869141" xlink:href="#DejaVuSans-48"/>
       <use x="254.492188" xlink:href="#DejaVuSans-45"/>
       <use x="290.576172" xlink:href="#DejaVuSans-48"/>
       <use x="354.199219" xlink:href="#DejaVuSans-57"/>
      </g>
     </g>
    </g>
    <g id="xtick_7">
     <g id="line2d_7">
      <g>
       <use style="stroke:#000000;stroke-width:0.8;" x="949.646311" xlink:href="#m367ef45164" y="501.738984"/>
      </g>
     </g>
     <g id="text_7">
      <!-- 2020-10 -->
      <defs>
       <path d="M 12.40625 8.296875 
L 28.515625 8.296875 
L 28.515625 63.921875 
L 10.984375 60.40625 
L 10.984375 69.390625 
L 28.421875 72.90625 
L 38.28125 72.90625 
L 38.28125 8.296875 
L 54.390625 8.296875 
L 54.390625 0 
L 12.40625 0 
z
" id="DejaVuSans-49"/>
      </defs>
      <g transform="translate(901.254044 544.452384)rotate(-30)scale(0.13 -0.13)">
       <use xlink:href="#DejaVuSans-50"/>
       <use x="63.623047" xlink:href="#DejaVuSans-48"/>
       <use x="127.246094" xlink:href="#DejaVuSans-50"/>
       <use x="190.869141" xlink:href="#DejaVuSans-48"/>
       <use x="254.492188" xlink:href="#DejaVuSans-45"/>
       <use x="290.576172" xlink:href="#DejaVuSans-49"/>
       <use x="354.199219" xlink:href="#DejaVuSans-48"/>
      </g>
     </g>
    </g>
    <g id="xtick_8">
     <g id="line2d_8">
      <g>
       <use style="stroke:#000000;stroke-width:0.8;" x="1084.628754" xlink:href="#m367ef45164" y="501.738984"/>
      </g>
     </g>
     <g id="text_8">
      <!-- 2020-11 -->
      <g transform="translate(1036.236487 544.452384)rotate(-30)scale(0.13 -0.13)">
       <use xlink:href="#DejaVuSans-50"/>
       <use x="63.623047" xlink:href="#DejaVuSans-48"/>
       <use x="127.246094" xlink:href="#DejaVuSans-50"/>
       <use x="190.869141" xlink:href="#DejaVuSans-48"/>
       <use x="254.492188" xlink:href="#DejaVuSans-45"/>
       <use x="290.576172" xlink:href="#DejaVuSans-49"/>
       <use x="354.199219" xlink:href="#DejaVuSans-49"/>
      </g>
     </g>
    </g>
   </g>
   <g id="matplotlib.axis_2">
    <g id="ytick_1">
     <g id="line2d_9">
      <path clip-path="url(#p3a03406a9e)" d="M 62.89875 488.361462 
L 1178.89875 488.361462 
" style="fill:none;stroke:#b0b0b0;stroke-linecap:square;stroke-width:0.8;"/>
     </g>
     <g id="line2d_10">
      <defs>
       <path d="M 0 0 
L -3.5 0 
" id="mec3465e4c4" style="stroke:#000000;stroke-width:0.8;"/>
      </defs>
      <g>
       <use style="stroke:#000000;stroke-width:0.8;" x="62.89875" xlink:href="#mec3465e4c4" y="488.361462"/>
      </g>
     </g>
     <g id="text_9">
      <!-- 0 -->
      <g transform="translate(47.6275 493.300446)scale(0.13 -0.13)">
       <use xlink:href="#DejaVuSans-48"/>
      </g>
     </g>
    </g>
    <g id="ytick_2">
     <g id="line2d_11">
      <path clip-path="url(#p3a03406a9e)" d="M 62.89875 445.06851 
L 1178.89875 445.06851 
" style="fill:none;stroke:#b0b0b0;stroke-linecap:square;stroke-width:0.8;"/>
     </g>
     <g id="line2d_12">
      <g>
       <use style="stroke:#000000;stroke-width:0.8;" x="62.89875" xlink:href="#mec3465e4c4" y="445.06851"/>
      </g>
     </g>
     <g id="text_10">
      <!-- 100 -->
      <g transform="translate(31.085 450.007494)scale(0.13 -0.13)">
       <use xlink:href="#DejaVuSans-49"/>
       <use x="63.623047" xlink:href="#DejaVuSans-48"/>
       <use x="127.246094" xlink:href="#DejaVuSans-48"/>
      </g>
     </g>
    </g>
    <g id="ytick_3">
     <g id="line2d_13">
      <path clip-path="url(#p3a03406a9e)" d="M 62.89875 401.775557 
L 1178.89875 401.775557 
" style="fill:none;stroke:#b0b0b0;stroke-linecap:square;stroke-width:0.8;"/>
     </g>
     <g id="line2d_14">
      <g>
       <use style="stroke:#000000;stroke-width:0.8;" x="62.89875" xlink:href="#mec3465e4c4" y="401.775557"/>
      </g>
     </g>
     <g id="text_11">
      <!-- 200 -->
      <g transform="translate(31.085 406.714541)scale(0.13 -0.13)">
       <use xlink:href="#DejaVuSans-50"/>
       <use x="63.623047" xlink:href="#DejaVuSans-48"/>
       <use x="127.246094" xlink:href="#DejaVuSans-48"/>
      </g>
     </g>
    </g>
    <g id="ytick_4">
     <g id="line2d_15">
      <path clip-path="url(#p3a03406a9e)" d="M 62.89875 358.482605 
L 1178.89875 358.482605 
" style="fill:none;stroke:#b0b0b0;stroke-linecap:square;stroke-width:0.8;"/>
     </g>
     <g id="line2d_16">
      <g>
       <use style="stroke:#000000;stroke-width:0.8;" x="62.89875" xlink:href="#mec3465e4c4" y="358.482605"/>
      </g>
     </g>
     <g id="text_12">
      <!-- 300 -->
      <defs>
       <path d="M 40.578125 39.3125 
Q 47.65625 37.796875 51.625 33 
Q 55.609375 28.21875 55.609375 21.1875 
Q 55.609375 10.40625 48.1875 4.484375 
Q 40.765625 -1.421875 27.09375 -1.421875 
Q 22.515625 -1.421875 17.65625 -0.515625 
Q 12.796875 0.390625 7.625 2.203125 
L 7.625 11.71875 
Q 11.71875 9.328125 16.59375 8.109375 
Q 21.484375 6.890625 26.8125 6.890625 
Q 36.078125 6.890625 40.9375 10.546875 
Q 45.796875 14.203125 45.796875 21.1875 
Q 45.796875 27.640625 41.28125 31.265625 
Q 36.765625 34.90625 28.71875 34.90625 
L 20.21875 34.90625 
L 20.21875 43.015625 
L 29.109375 43.015625 
Q 36.375 43.015625 40.234375 45.921875 
Q 44.09375 48.828125 44.09375 54.296875 
Q 44.09375 59.90625 40.109375 62.90625 
Q 36.140625 65.921875 28.71875 65.921875 
Q 24.65625 65.921875 20.015625 65.03125 
Q 15.375 64.15625 9.8125 62.3125 
L 9.8125 71.09375 
Q 15.4375 72.65625 20.34375 73.4375 
Q 25.25 74.21875 29.59375 74.21875 
Q 40.828125 74.21875 47.359375 69.109375 
Q 53.90625 64.015625 53.90625 55.328125 
Q 53.90625 49.265625 50.4375 45.09375 
Q 46.96875 40.921875 40.578125 39.3125 
z
" id="DejaVuSans-51"/>
      </defs>
      <g transform="translate(31.085 363.421589)scale(0.13 -0.13)">
       <use xlink:href="#DejaVuSans-51"/>
       <use x="63.623047" xlink:href="#DejaVuSans-48"/>
       <use x="127.246094" xlink:href="#DejaVuSans-48"/>
      </g>
     </g>
    </g>
    <g id="ytick_5">
     <g id="line2d_17">
      <path clip-path="url(#p3a03406a9e)" d="M 62.89875 315.189652 
L 1178.89875 315.189652 
" style="fill:none;stroke:#b0b0b0;stroke-linecap:square;stroke-width:0.8;"/>
     </g>
     <g id="line2d_18">
      <g>
       <use style="stroke:#000000;stroke-width:0.8;" x="62.89875" xlink:href="#mec3465e4c4" y="315.189652"/>
      </g>
     </g>
     <g id="text_13">
      <!-- 400 -->
      <g transform="translate(31.085 320.128636)scale(0.13 -0.13)">
       <use xlink:href="#DejaVuSans-52"/>
       <use x="63.623047" xlink:href="#DejaVuSans-48"/>
       <use x="127.246094" xlink:href="#DejaVuSans-48"/>
      </g>
     </g>
    </g>
    <g id="ytick_6">
     <g id="line2d_19">
      <path clip-path="url(#p3a03406a9e)" d="M 62.89875 271.896699 
L 1178.89875 271.896699 
" style="fill:none;stroke:#b0b0b0;stroke-linecap:square;stroke-width:0.8;"/>
     </g>
     <g id="line2d_20">
      <g>
       <use style="stroke:#000000;stroke-width:0.8;" x="62.89875" xlink:href="#mec3465e4c4" y="271.896699"/>
      </g>
     </g>
     <g id="text_14">
      <!-- 500 -->
      <g transform="translate(31.085 276.835684)scale(0.13 -0.13)">
       <use xlink:href="#DejaVuSans-53"/>
       <use x="63.623047" xlink:href="#DejaVuSans-48"/>
       <use x="127.246094" xlink:href="#DejaVuSans-48"/>
      </g>
     </g>
    </g>
    <g id="ytick_7">
     <g id="line2d_21">
      <path clip-path="url(#p3a03406a9e)" d="M 62.89875 228.603747 
L 1178.89875 228.603747 
" style="fill:none;stroke:#b0b0b0;stroke-linecap:square;stroke-width:0.8;"/>
     </g>
     <g id="line2d_22">
      <g>
       <use style="stroke:#000000;stroke-width:0.8;" x="62.89875" xlink:href="#mec3465e4c4" y="228.603747"/>
      </g>
     </g>
     <g id="text_15">
      <!-- 600 -->
      <g transform="translate(31.085 233.542731)scale(0.13 -0.13)">
       <use xlink:href="#DejaVuSans-54"/>
       <use x="63.623047" xlink:href="#DejaVuSans-48"/>
       <use x="127.246094" xlink:href="#DejaVuSans-48"/>
      </g>
     </g>
    </g>
    <g id="ytick_8">
     <g id="line2d_23">
      <path clip-path="url(#p3a03406a9e)" d="M 62.89875 185.310794 
L 1178.89875 185.310794 
" style="fill:none;stroke:#b0b0b0;stroke-linecap:square;stroke-width:0.8;"/>
     </g>
     <g id="line2d_24">
      <g>
       <use style="stroke:#000000;stroke-width:0.8;" x="62.89875" xlink:href="#mec3465e4c4" y="185.310794"/>
      </g>
     </g>
     <g id="text_16">
      <!-- 700 -->
      <g transform="translate(31.085 190.249779)scale(0.13 -0.13)">
       <use xlink:href="#DejaVuSans-55"/>
       <use x="63.623047" xlink:href="#DejaVuSans-48"/>
       <use x="127.246094" xlink:href="#DejaVuSans-48"/>
      </g>
     </g>
    </g>
    <g id="ytick_9">
     <g id="line2d_25">
      <path clip-path="url(#p3a03406a9e)" d="M 62.89875 142.017842 
L 1178.89875 142.017842 
" style="fill:none;stroke:#b0b0b0;stroke-linecap:square;stroke-width:0.8;"/>
     </g>
     <g id="line2d_26">
      <g>
       <use style="stroke:#000000;stroke-width:0.8;" x="62.89875" xlink:href="#mec3465e4c4" y="142.017842"/>
      </g>
     </g>
     <g id="text_17">
      <!-- 800 -->
      <g transform="translate(31.085 146.956826)scale(0.13 -0.13)">
       <use xlink:href="#DejaVuSans-56"/>
       <use x="63.623047" xlink:href="#DejaVuSans-48"/>
       <use x="127.246094" xlink:href="#DejaVuSans-48"/>
      </g>
     </g>
    </g>
    <g id="ytick_10">
     <g id="line2d_27">
      <path clip-path="url(#p3a03406a9e)" d="M 62.89875 98.724889 
L 1178.89875 98.724889 
" style="fill:none;stroke:#b0b0b0;stroke-linecap:square;stroke-width:0.8;"/>
     </g>
     <g id="line2d_28">
      <g>
       <use style="stroke:#000000;stroke-width:0.8;" x="62.89875" xlink:href="#mec3465e4c4" y="98.724889"/>
      </g>
     </g>
     <g id="text_18">
      <!-- 900 -->
      <g transform="translate(31.085 103.663874)scale(0.13 -0.13)">
       <use xlink:href="#DejaVuSans-57"/>
       <use x="63.623047" xlink:href="#DejaVuSans-48"/>
       <use x="127.246094" xlink:href="#DejaVuSans-48"/>
      </g>
     </g>
    </g>
    <g id="ytick_11">
     <g id="line2d_29">
      <path clip-path="url(#p3a03406a9e)" d="M 62.89875 55.431937 
L 1178.89875 55.431937 
" style="fill:none;stroke:#b0b0b0;stroke-linecap:square;stroke-width:0.8;"/>
     </g>
     <g id="line2d_30">
      <g>
       <use style="stroke:#000000;stroke-width:0.8;" x="62.89875" xlink:href="#mec3465e4c4" y="55.431937"/>
      </g>
     </g>
     <g id="text_19">
      <!-- 1000 -->
      <g transform="translate(22.81375 60.370921)scale(0.13 -0.13)">
       <use xlink:href="#DejaVuSans-49"/>
       <use x="63.623047" xlink:href="#DejaVuSans-48"/>
       <use x="127.246094" xlink:href="#DejaVuSans-48"/>
       <use x="190.869141" xlink:href="#DejaVuSans-48"/>
      </g>
     </g>
    </g>
    <g id="ytick_12">
     <g id="line2d_31">
      <path clip-path="url(#p3a03406a9e)" d="M 62.89875 12.138984 
L 1178.89875 12.138984 
" style="fill:none;stroke:#b0b0b0;stroke-linecap:square;stroke-width:0.8;"/>
     </g>
     <g id="line2d_32">
      <g>
       <use style="stroke:#000000;stroke-width:0.8;" x="62.89875" xlink:href="#mec3465e4c4" y="12.138984"/>
      </g>
     </g>
     <g id="text_20">
      <!-- 1100 -->
      <g transform="translate(22.81375 17.077969)scale(0.13 -0.13)">
       <use xlink:href="#DejaVuSans-49"/>
       <use x="63.623047" xlink:href="#DejaVuSans-49"/>
       <use x="127.246094" xlink:href="#DejaVuSans-48"/>
       <use x="190.869141" xlink:href="#DejaVuSans-48"/>
      </g>
     </g>
    </g>
    <g id="text_21">
     <!-- Anzahl von Fällen -->
     <defs>
      <path d="M 34.1875 63.1875 
L 20.796875 26.90625 
L 47.609375 26.90625 
z
M 28.609375 72.90625 
L 39.796875 72.90625 
L 67.578125 0 
L 57.328125 0 
L 50.6875 18.703125 
L 17.828125 18.703125 
L 11.1875 0 
L 0.78125 0 
z
" id="DejaVuSans-65"/>
      <path d="M 54.890625 33.015625 
L 54.890625 0 
L 45.90625 0 
L 45.90625 32.71875 
Q 45.90625 40.484375 42.875 44.328125 
Q 39.84375 48.1875 33.796875 48.1875 
Q 26.515625 48.1875 22.3125 43.546875 
Q 18.109375 38.921875 18.109375 30.90625 
L 18.109375 0 
L 9.078125 0 
L 9.078125 54.6875 
L 18.109375 54.6875 
L 18.109375 46.1875 
Q 21.34375 51.125 25.703125 53.5625 
Q 30.078125 56 35.796875 56 
Q 45.21875 56 50.046875 50.171875 
Q 54.890625 44.34375 54.890625 33.015625 
z
" id="DejaVuSans-110"/>
      <path d="M 5.515625 54.6875 
L 48.1875 54.6875 
L 48.1875 46.484375 
L 14.40625 7.171875 
L 48.1875 7.171875 
L 48.1875 0 
L 4.296875 0 
L 4.296875 8.203125 
L 38.09375 47.515625 
L 5.515625 47.515625 
z
" id="DejaVuSans-122"/>
      <path d="M 34.28125 27.484375 
Q 23.390625 27.484375 19.1875 25 
Q 14.984375 22.515625 14.984375 16.5 
Q 14.984375 11.71875 18.140625 8.90625 
Q 21.296875 6.109375 26.703125 6.109375 
Q 34.1875 6.109375 38.703125 11.40625 
Q 43.21875 16.703125 43.21875 25.484375 
L 43.21875 27.484375 
z
M 52.203125 31.203125 
L 52.203125 0 
L 43.21875 0 
L 43.21875 8.296875 
Q 40.140625 3.328125 35.546875 0.953125 
Q 30.953125 -1.421875 24.3125 -1.421875 
Q 15.921875 -1.421875 10.953125 3.296875 
Q 6 8.015625 6 15.921875 
Q 6 25.140625 12.171875 29.828125 
Q 18.359375 34.515625 30.609375 34.515625 
L 43.21875 34.515625 
L 43.21875 35.40625 
Q 43.21875 41.609375 39.140625 45 
Q 35.0625 48.390625 27.6875 48.390625 
Q 23 48.390625 18.546875 47.265625 
Q 14.109375 46.140625 10.015625 43.890625 
L 10.015625 52.203125 
Q 14.9375 54.109375 19.578125 55.046875 
Q 24.21875 56 28.609375 56 
Q 40.484375 56 46.34375 49.84375 
Q 52.203125 43.703125 52.203125 31.203125 
z
" id="DejaVuSans-97"/>
      <path d="M 54.890625 33.015625 
L 54.890625 0 
L 45.90625 0 
L 45.90625 32.71875 
Q 45.90625 40.484375 42.875 44.328125 
Q 39.84375 48.1875 33.796875 48.1875 
Q 26.515625 48.1875 22.3125 43.546875 
Q 18.109375 38.921875 18.109375 30.90625 
L 18.109375 0 
L 9.078125 0 
L 9.078125 75.984375 
L 18.109375 75.984375 
L 18.109375 46.1875 
Q 21.34375 51.125 25.703125 53.5625 
Q 30.078125 56 35.796875 56 
Q 45.21875 56 50.046875 50.171875 
Q 54.890625 44.34375 54.890625 33.015625 
z
" id="DejaVuSans-104"/>
      <path d="M 9.421875 75.984375 
L 18.40625 75.984375 
L 18.40625 0 
L 9.421875 0 
z
" id="DejaVuSans-108"/>
      <path id="DejaVuSans-32"/>
      <path d="M 2.984375 54.6875 
L 12.5 54.6875 
L 29.59375 8.796875 
L 46.6875 54.6875 
L 56.203125 54.6875 
L 35.6875 0 
L 23.484375 0 
z
" id="DejaVuSans-118"/>
      <path d="M 30.609375 48.390625 
Q 23.390625 48.390625 19.1875 42.75 
Q 14.984375 37.109375 14.984375 27.296875 
Q 14.984375 17.484375 19.15625 11.84375 
Q 23.34375 6.203125 30.609375 6.203125 
Q 37.796875 6.203125 41.984375 11.859375 
Q 46.1875 17.53125 46.1875 27.296875 
Q 46.1875 37.015625 41.984375 42.703125 
Q 37.796875 48.390625 30.609375 48.390625 
z
M 30.609375 56 
Q 42.328125 56 49.015625 48.375 
Q 55.71875 40.765625 55.71875 27.296875 
Q 55.71875 13.875 49.015625 6.21875 
Q 42.328125 -1.421875 30.609375 -1.421875 
Q 18.84375 -1.421875 12.171875 6.21875 
Q 5.515625 13.875 5.515625 27.296875 
Q 5.515625 40.765625 12.171875 48.375 
Q 18.84375 56 30.609375 56 
z
" id="DejaVuSans-111"/>
      <path d="M 9.8125 72.90625 
L 51.703125 72.90625 
L 51.703125 64.59375 
L 19.671875 64.59375 
L 19.671875 43.109375 
L 48.578125 43.109375 
L 48.578125 34.8125 
L 19.671875 34.8125 
L 19.671875 0 
L 9.8125 0 
z
" id="DejaVuSans-70"/>
      <path d="M 34.28125 27.484375 
Q 23.390625 27.484375 19.1875 25 
Q 14.984375 22.515625 14.984375 16.5 
Q 14.984375 11.71875 18.140625 8.90625 
Q 21.296875 6.109375 26.703125 6.109375 
Q 34.1875 6.109375 38.703125 11.40625 
Q 43.21875 16.703125 43.21875 25.484375 
L 43.21875 27.484375 
z
M 52.203125 31.203125 
L 52.203125 0 
L 43.21875 0 
L 43.21875 8.296875 
Q 40.140625 3.328125 35.546875 0.953125 
Q 30.953125 -1.421875 24.3125 -1.421875 
Q 15.921875 -1.421875 10.953125 3.296875 
Q 6 8.015625 6 15.921875 
Q 6 25.140625 12.171875 29.828125 
Q 18.359375 34.515625 30.609375 34.515625 
L 43.21875 34.515625 
L 43.21875 35.40625 
Q 43.21875 41.609375 39.140625 45 
Q 35.0625 48.390625 27.6875 48.390625 
Q 23 48.390625 18.546875 47.265625 
Q 14.109375 46.140625 10.015625 43.890625 
L 10.015625 52.203125 
Q 14.9375 54.109375 19.578125 55.046875 
Q 24.21875 56 28.609375 56 
Q 40.484375 56 46.34375 49.84375 
Q 52.203125 43.703125 52.203125 31.203125 
z
M 33.59375 75.78125 
L 43.5 75.78125 
L 43.5 65.921875 
L 33.59375 65.921875 
z
M 14.5 75.78125 
L 24.40625 75.78125 
L 24.40625 65.921875 
L 14.5 65.921875 
z
" id="DejaVuSans-228"/>
      <path d="M 56.203125 29.59375 
L 56.203125 25.203125 
L 14.890625 25.203125 
Q 15.484375 15.921875 20.484375 11.0625 
Q 25.484375 6.203125 34.421875 6.203125 
Q 39.59375 6.203125 44.453125 7.46875 
Q 49.3125 8.734375 54.109375 11.28125 
L 54.109375 2.78125 
Q 49.265625 0.734375 44.1875 -0.34375 
Q 39.109375 -1.421875 33.890625 -1.421875 
Q 20.796875 -1.421875 13.15625 6.1875 
Q 5.515625 13.8125 5.515625 26.8125 
Q 5.515625 40.234375 12.765625 48.109375 
Q 20.015625 56 32.328125 56 
Q 43.359375 56 49.78125 48.890625 
Q 56.203125 41.796875 56.203125 29.59375 
z
M 47.21875 32.234375 
Q 47.125 39.59375 43.09375 43.984375 
Q 39.0625 48.390625 32.421875 48.390625 
Q 24.90625 48.390625 20.390625 44.140625 
Q 15.875 39.890625 15.1875 32.171875 
z
" id="DejaVuSans-101"/>
     </defs>
     <g transform="translate(16.318125 309.388359)rotate(-90)scale(0.12 -0.12)">
      <use xlink:href="#DejaVuSans-65"/>
      <use x="68.408203" xlink:href="#DejaVuSans-110"/>
      <use x="131.787109" xlink:href="#DejaVuSans-122"/>
      <use x="184.277344" xlink:href="#DejaVuSans-97"/>
      <use x="245.556641" xlink:href="#DejaVuSans-104"/>
      <use x="308.935547" xlink:href="#DejaVuSans-108"/>
      <use x="336.71875" xlink:href="#DejaVuSans-32"/>
      <use x="368.505859" xlink:href="#DejaVuSans-118"/>
      <use x="427.685547" xlink:href="#DejaVuSans-111"/>
      <use x="488.867188" xlink:href="#DejaVuSans-110"/>
      <use x="552.246094" xlink:href="#DejaVuSans-32"/>
      <use x="584.033203" xlink:href="#DejaVuSans-70"/>
      <use x="632.427734" xlink:href="#DejaVuSans-228"/>
      <use x="693.707031" xlink:href="#DejaVuSans-108"/>
      <use x="721.490234" xlink:href="#DejaVuSans-108"/>
      <use x="749.273438" xlink:href="#DejaVuSans-101"/>
      <use x="810.796875" xlink:href="#DejaVuSans-110"/>
     </g>
    </g>
   </g>
   <g id="line2d_33">
    <path clip-path="url(#p3a03406a9e)" d="M 113.626023 487.495603 
L 122.334567 487.495603 
L 126.68884 486.196814 
L 131.043112 486.196814 
L 135.397384 484.032167 
L 148.460201 484.032167 
L 152.814474 483.599237 
L 157.168746 482.300449 
L 161.523018 479.269942 
L 165.877291 477.105294 
L 170.231563 477.105294 
L 174.585835 476.672365 
L 178.940108 476.672365 
L 183.29438 475.373576 
L 187.648652 474.507717 
L 192.002925 472.34307 
L 200.711469 471.477211 
L 209.420014 469.745492 
L 213.774286 469.312563 
L 218.128559 469.312563 
L 222.482831 466.282056 
L 226.837103 466.282056 
L 235.545648 464.117409 
L 244.254193 461.519831 
L 248.608465 458.489325 
L 257.31701 457.623466 
L 266.025555 453.7271 
L 270.379827 451.129523 
L 274.734099 449.830734 
L 279.088372 447.233157 
L 287.796916 445.934369 
L 296.505461 442.470932 
L 300.859733 440.306285 
L 305.214006 439.007496 
L 309.568278 436.842849 
L 313.92255 436.409919 
L 318.276823 433.379412 
L 326.985367 431.214765 
L 331.33964 430.348906 
L 335.693912 427.318399 
L 340.048184 427.318399 
L 348.756729 421.257386 
L 357.465274 418.659808 
L 361.819546 417.793949 
L 374.882363 413.897584 
L 379.236635 413.031725 
L 387.94518 412.598795 
L 392.299452 412.598795 
L 401.007997 411.300007 
L 405.362269 410.001218 
L 422.779359 409.135359 
L 427.133631 407.83657 
L 431.487903 407.403641 
L 435.842176 406.537782 
L 448.904993 406.537782 
L 453.259265 405.671923 
L 457.613537 405.238993 
L 466.322082 403.507275 
L 470.676354 403.074346 
L 488.093444 403.074346 
L 496.801988 400.476768 
L 501.156261 400.476768 
L 509.864805 400.043839 
L 518.57335 399.17798 
L 588.241707 399.17798 
L 601.304524 397.879191 
L 605.658797 397.013332 
L 610.013069 396.580403 
L 614.367341 395.714544 
L 618.721614 395.714544 
L 631.784431 394.848685 
L 644.847248 392.684037 
L 679.681427 392.684037 
L 723.22415 380.99494 
L 727.578422 377.531504 
L 736.286967 375.799786 
L 740.641239 375.799786 
L 753.704056 372.769279 
L 758.058329 370.604631 
L 762.412601 370.171702 
L 766.766873 369.305843 
L 771.121146 369.305843 
L 784.183963 368.872913 
L 788.538235 368.007054 
L 792.892507 367.574125 
L 797.24678 366.275336 
L 801.601052 364.543618 
L 814.663869 364.110688 
L 819.018141 364.110688 
L 823.372414 363.244829 
L 827.726686 361.946041 
L 832.080958 361.946041 
L 849.498048 358.482605 
L 853.85232 358.049675 
L 858.206592 358.049675 
L 862.560865 356.317957 
L 879.977954 356.317957 
L 884.332226 355.885027 
L 888.686499 354.586239 
L 893.040771 354.586239 
L 906.103588 353.72038 
L 910.45786 353.72038 
L 919.166405 351.988662 
L 923.520677 351.555732 
L 936.583494 350.689873 
L 940.937767 348.958155 
L 945.292039 348.958155 
L 954.000584 348.092296 
L 967.063401 342.031283 
L 971.417673 341.598353 
L 975.771945 339.866635 
L 980.126218 335.970269 
L 1001.897579 331.208044 
L 1032.377486 319.518947 
L 1036.731758 316.055511 
L 1041.086031 309.994498 
L 1045.440303 309.561568 
L 1058.50312 303.067625 
L 1062.857392 302.634696 
L 1067.211665 294.409035 
L 1071.565937 291.378528 
L 1075.920209 289.21388 
L 1088.983026 280.55529 
L 1097.691571 280.55529 
L 1106.400116 271.896699 
L 1119.462933 267.567404 
L 1128.171477 245.920928 
L 1128.171477 245.920928 
" style="fill:none;stroke:#dbcd00;stroke-linecap:square;stroke-width:2;"/>
    <defs>
     <path d="M 0 1.5 
C 0.397805 1.5 0.77937 1.341951 1.06066 1.06066 
C 1.341951 0.77937 1.5 0.397805 1.5 0 
C 1.5 -0.397805 1.341951 -0.77937 1.06066 -1.06066 
C 0.77937 -1.341951 0.397805 -1.5 0 -1.5 
C -0.397805 -1.5 -0.77937 -1.341951 -1.06066 -1.06066 
C -1.341951 -0.77937 -1.5 -0.397805 -1.5 0 
C -1.5 0.397805 -1.341951 0.77937 -1.06066 1.06066 
C -0.77937 1.341951 -0.397805 1.5 0 1.5 
z
" id="m39f8ce73b2" style="stroke:#dbcd00;"/>
    </defs>
    <g clip-path="url(#p3a03406a9e)">
     <use style="fill:#dbcd00;stroke:#dbcd00;" x="113.626023" xlink:href="#m39f8ce73b2" y="487.495603"/>
     <use style="fill:#dbcd00;stroke:#dbcd00;" x="117.980295" xlink:href="#m39f8ce73b2" y="487.495603"/>
     <use style="fill:#dbcd00;stroke:#dbcd00;" x="122.334567" xlink:href="#m39f8ce73b2" y="487.495603"/>
     <use style="fill:#dbcd00;stroke:#dbcd00;" x="126.68884" xlink:href="#m39f8ce73b2" y="486.196814"/>
     <use style="fill:#dbcd00;stroke:#dbcd00;" x="131.043112" xlink:href="#m39f8ce73b2" y="486.196814"/>
     <use style="fill:#dbcd00;stroke:#dbcd00;" x="135.397384" xlink:href="#m39f8ce73b2" y="484.032167"/>
     <use style="fill:#dbcd00;stroke:#dbcd00;" x="139.751657" xlink:href="#m39f8ce73b2" y="484.032167"/>
     <use style="fill:#dbcd00;stroke:#dbcd00;" x="144.105929" xlink:href="#m39f8ce73b2" y="484.032167"/>
     <use style="fill:#dbcd00;stroke:#dbcd00;" x="148.460201" xlink:href="#m39f8ce73b2" y="484.032167"/>
     <use style="fill:#dbcd00;stroke:#dbcd00;" x="152.814474" xlink:href="#m39f8ce73b2" y="483.599237"/>
     <use style="fill:#dbcd00;stroke:#dbcd00;" x="157.168746" xlink:href="#m39f8ce73b2" y="482.300449"/>
     <use style="fill:#dbcd00;stroke:#dbcd00;" x="161.523018" xlink:href="#m39f8ce73b2" y="479.269942"/>
     <use style="fill:#dbcd00;stroke:#dbcd00;" x="165.877291" xlink:href="#m39f8ce73b2" y="477.105294"/>
     <use style="fill:#dbcd00;stroke:#dbcd00;" x="170.231563" xlink:href="#m39f8ce73b2" y="477.105294"/>
     <use style="fill:#dbcd00;stroke:#dbcd00;" x="174.585835" xlink:href="#m39f8ce73b2" y="476.672365"/>
     <use style="fill:#dbcd00;stroke:#dbcd00;" x="178.940108" xlink:href="#m39f8ce73b2" y="476.672365"/>
     <use style="fill:#dbcd00;stroke:#dbcd00;" x="183.29438" xlink:href="#m39f8ce73b2" y="475.373576"/>
     <use style="fill:#dbcd00;stroke:#dbcd00;" x="187.648652" xlink:href="#m39f8ce73b2" y="474.507717"/>
     <use style="fill:#dbcd00;stroke:#dbcd00;" x="192.002925" xlink:href="#m39f8ce73b2" y="472.34307"/>
     <use style="fill:#dbcd00;stroke:#dbcd00;" x="200.711469" xlink:href="#m39f8ce73b2" y="471.477211"/>
     <use style="fill:#dbcd00;stroke:#dbcd00;" x="209.420014" xlink:href="#m39f8ce73b2" y="469.745492"/>
     <use style="fill:#dbcd00;stroke:#dbcd00;" x="213.774286" xlink:href="#m39f8ce73b2" y="469.312563"/>
     <use style="fill:#dbcd00;stroke:#dbcd00;" x="218.128559" xlink:href="#m39f8ce73b2" y="469.312563"/>
     <use style="fill:#dbcd00;stroke:#dbcd00;" x="222.482831" xlink:href="#m39f8ce73b2" y="466.282056"/>
     <use style="fill:#dbcd00;stroke:#dbcd00;" x="226.837103" xlink:href="#m39f8ce73b2" y="466.282056"/>
     <use style="fill:#dbcd00;stroke:#dbcd00;" x="235.545648" xlink:href="#m39f8ce73b2" y="464.117409"/>
     <use style="fill:#dbcd00;stroke:#dbcd00;" x="239.899921" xlink:href="#m39f8ce73b2" y="462.81862"/>
     <use style="fill:#dbcd00;stroke:#dbcd00;" x="244.254193" xlink:href="#m39f8ce73b2" y="461.519831"/>
     <use style="fill:#dbcd00;stroke:#dbcd00;" x="248.608465" xlink:href="#m39f8ce73b2" y="458.489325"/>
     <use style="fill:#dbcd00;stroke:#dbcd00;" x="252.962738" xlink:href="#m39f8ce73b2" y="458.056395"/>
     <use style="fill:#dbcd00;stroke:#dbcd00;" x="257.31701" xlink:href="#m39f8ce73b2" y="457.623466"/>
     <use style="fill:#dbcd00;stroke:#dbcd00;" x="266.025555" xlink:href="#m39f8ce73b2" y="453.7271"/>
     <use style="fill:#dbcd00;stroke:#dbcd00;" x="270.379827" xlink:href="#m39f8ce73b2" y="451.129523"/>
     <use style="fill:#dbcd00;stroke:#dbcd00;" x="274.734099" xlink:href="#m39f8ce73b2" y="449.830734"/>
     <use style="fill:#dbcd00;stroke:#dbcd00;" x="279.088372" xlink:href="#m39f8ce73b2" y="447.233157"/>
     <use style="fill:#dbcd00;stroke:#dbcd00;" x="287.796916" xlink:href="#m39f8ce73b2" y="445.934369"/>
     <use style="fill:#dbcd00;stroke:#dbcd00;" x="296.505461" xlink:href="#m39f8ce73b2" y="442.470932"/>
     <use style="fill:#dbcd00;stroke:#dbcd00;" x="300.859733" xlink:href="#m39f8ce73b2" y="440.306285"/>
     <use style="fill:#dbcd00;stroke:#dbcd00;" x="305.214006" xlink:href="#m39f8ce73b2" y="439.007496"/>
     <use style="fill:#dbcd00;stroke:#dbcd00;" x="309.568278" xlink:href="#m39f8ce73b2" y="436.842849"/>
     <use style="fill:#dbcd00;stroke:#dbcd00;" x="313.92255" xlink:href="#m39f8ce73b2" y="436.409919"/>
     <use style="fill:#dbcd00;stroke:#dbcd00;" x="318.276823" xlink:href="#m39f8ce73b2" y="433.379412"/>
     <use style="fill:#dbcd00;stroke:#dbcd00;" x="326.985367" xlink:href="#m39f8ce73b2" y="431.214765"/>
     <use style="fill:#dbcd00;stroke:#dbcd00;" x="331.33964" xlink:href="#m39f8ce73b2" y="430.348906"/>
     <use style="fill:#dbcd00;stroke:#dbcd00;" x="335.693912" xlink:href="#m39f8ce73b2" y="427.318399"/>
     <use style="fill:#dbcd00;stroke:#dbcd00;" x="340.048184" xlink:href="#m39f8ce73b2" y="427.318399"/>
     <use style="fill:#dbcd00;stroke:#dbcd00;" x="344.402457" xlink:href="#m39f8ce73b2" y="424.287892"/>
     <use style="fill:#dbcd00;stroke:#dbcd00;" x="348.756729" xlink:href="#m39f8ce73b2" y="421.257386"/>
     <use style="fill:#dbcd00;stroke:#dbcd00;" x="357.465274" xlink:href="#m39f8ce73b2" y="418.659808"/>
     <use style="fill:#dbcd00;stroke:#dbcd00;" x="361.819546" xlink:href="#m39f8ce73b2" y="417.793949"/>
     <use style="fill:#dbcd00;stroke:#dbcd00;" x="366.173818" xlink:href="#m39f8ce73b2" y="416.495161"/>
     <use style="fill:#dbcd00;stroke:#dbcd00;" x="374.882363" xlink:href="#m39f8ce73b2" y="413.897584"/>
     <use style="fill:#dbcd00;stroke:#dbcd00;" x="379.236635" xlink:href="#m39f8ce73b2" y="413.031725"/>
     <use style="fill:#dbcd00;stroke:#dbcd00;" x="387.94518" xlink:href="#m39f8ce73b2" y="412.598795"/>
     <use style="fill:#dbcd00;stroke:#dbcd00;" x="392.299452" xlink:href="#m39f8ce73b2" y="412.598795"/>
     <use style="fill:#dbcd00;stroke:#dbcd00;" x="401.007997" xlink:href="#m39f8ce73b2" y="411.300007"/>
     <use style="fill:#dbcd00;stroke:#dbcd00;" x="405.362269" xlink:href="#m39f8ce73b2" y="410.001218"/>
     <use style="fill:#dbcd00;stroke:#dbcd00;" x="422.779359" xlink:href="#m39f8ce73b2" y="409.135359"/>
     <use style="fill:#dbcd00;stroke:#dbcd00;" x="427.133631" xlink:href="#m39f8ce73b2" y="407.83657"/>
     <use style="fill:#dbcd00;stroke:#dbcd00;" x="431.487903" xlink:href="#m39f8ce73b2" y="407.403641"/>
     <use style="fill:#dbcd00;stroke:#dbcd00;" x="435.842176" xlink:href="#m39f8ce73b2" y="406.537782"/>
     <use style="fill:#dbcd00;stroke:#dbcd00;" x="440.196448" xlink:href="#m39f8ce73b2" y="406.537782"/>
     <use style="fill:#dbcd00;stroke:#dbcd00;" x="448.904993" xlink:href="#m39f8ce73b2" y="406.537782"/>
     <use style="fill:#dbcd00;stroke:#dbcd00;" x="453.259265" xlink:href="#m39f8ce73b2" y="405.671923"/>
     <use style="fill:#dbcd00;stroke:#dbcd00;" x="457.613537" xlink:href="#m39f8ce73b2" y="405.238993"/>
     <use style="fill:#dbcd00;stroke:#dbcd00;" x="466.322082" xlink:href="#m39f8ce73b2" y="403.507275"/>
     <use style="fill:#dbcd00;stroke:#dbcd00;" x="470.676354" xlink:href="#m39f8ce73b2" y="403.074346"/>
     <use style="fill:#dbcd00;stroke:#dbcd00;" x="479.384899" xlink:href="#m39f8ce73b2" y="403.074346"/>
     <use style="fill:#dbcd00;stroke:#dbcd00;" x="488.093444" xlink:href="#m39f8ce73b2" y="403.074346"/>
     <use style="fill:#dbcd00;stroke:#dbcd00;" x="496.801988" xlink:href="#m39f8ce73b2" y="400.476768"/>
     <use style="fill:#dbcd00;stroke:#dbcd00;" x="501.156261" xlink:href="#m39f8ce73b2" y="400.476768"/>
     <use style="fill:#dbcd00;stroke:#dbcd00;" x="509.864805" xlink:href="#m39f8ce73b2" y="400.043839"/>
     <use style="fill:#dbcd00;stroke:#dbcd00;" x="514.219078" xlink:href="#m39f8ce73b2" y="399.610909"/>
     <use style="fill:#dbcd00;stroke:#dbcd00;" x="518.57335" xlink:href="#m39f8ce73b2" y="399.17798"/>
     <use style="fill:#dbcd00;stroke:#dbcd00;" x="522.927622" xlink:href="#m39f8ce73b2" y="399.17798"/>
     <use style="fill:#dbcd00;stroke:#dbcd00;" x="531.636167" xlink:href="#m39f8ce73b2" y="399.17798"/>
     <use style="fill:#dbcd00;stroke:#dbcd00;" x="540.344712" xlink:href="#m39f8ce73b2" y="399.17798"/>
     <use style="fill:#dbcd00;stroke:#dbcd00;" x="544.698984" xlink:href="#m39f8ce73b2" y="399.17798"/>
     <use style="fill:#dbcd00;stroke:#dbcd00;" x="549.053256" xlink:href="#m39f8ce73b2" y="399.17798"/>
     <use style="fill:#dbcd00;stroke:#dbcd00;" x="553.407529" xlink:href="#m39f8ce73b2" y="399.17798"/>
     <use style="fill:#dbcd00;stroke:#dbcd00;" x="557.761801" xlink:href="#m39f8ce73b2" y="399.17798"/>
     <use style="fill:#dbcd00;stroke:#dbcd00;" x="562.116073" xlink:href="#m39f8ce73b2" y="399.17798"/>
     <use style="fill:#dbcd00;stroke:#dbcd00;" x="575.17889" xlink:href="#m39f8ce73b2" y="399.17798"/>
     <use style="fill:#dbcd00;stroke:#dbcd00;" x="579.533163" xlink:href="#m39f8ce73b2" y="399.17798"/>
     <use style="fill:#dbcd00;stroke:#dbcd00;" x="583.887435" xlink:href="#m39f8ce73b2" y="399.17798"/>
     <use style="fill:#dbcd00;stroke:#dbcd00;" x="588.241707" xlink:href="#m39f8ce73b2" y="399.17798"/>
     <use style="fill:#dbcd00;stroke:#dbcd00;" x="601.304524" xlink:href="#m39f8ce73b2" y="397.879191"/>
     <use style="fill:#dbcd00;stroke:#dbcd00;" x="605.658797" xlink:href="#m39f8ce73b2" y="397.013332"/>
     <use style="fill:#dbcd00;stroke:#dbcd00;" x="610.013069" xlink:href="#m39f8ce73b2" y="396.580403"/>
     <use style="fill:#dbcd00;stroke:#dbcd00;" x="614.367341" xlink:href="#m39f8ce73b2" y="395.714544"/>
     <use style="fill:#dbcd00;stroke:#dbcd00;" x="618.721614" xlink:href="#m39f8ce73b2" y="395.714544"/>
     <use style="fill:#dbcd00;stroke:#dbcd00;" x="631.784431" xlink:href="#m39f8ce73b2" y="394.848685"/>
     <use style="fill:#dbcd00;stroke:#dbcd00;" x="644.847248" xlink:href="#m39f8ce73b2" y="392.684037"/>
     <use style="fill:#dbcd00;stroke:#dbcd00;" x="649.20152" xlink:href="#m39f8ce73b2" y="392.684037"/>
     <use style="fill:#dbcd00;stroke:#dbcd00;" x="662.264337" xlink:href="#m39f8ce73b2" y="392.684037"/>
     <use style="fill:#dbcd00;stroke:#dbcd00;" x="666.61861" xlink:href="#m39f8ce73b2" y="392.684037"/>
     <use style="fill:#dbcd00;stroke:#dbcd00;" x="670.972882" xlink:href="#m39f8ce73b2" y="392.684037"/>
     <use style="fill:#dbcd00;stroke:#dbcd00;" x="675.327154" xlink:href="#m39f8ce73b2" y="392.684037"/>
     <use style="fill:#dbcd00;stroke:#dbcd00;" x="679.681427" xlink:href="#m39f8ce73b2" y="392.684037"/>
     <use style="fill:#dbcd00;stroke:#dbcd00;" x="723.22415" xlink:href="#m39f8ce73b2" y="380.99494"/>
     <use style="fill:#dbcd00;stroke:#dbcd00;" x="727.578422" xlink:href="#m39f8ce73b2" y="377.531504"/>
     <use style="fill:#dbcd00;stroke:#dbcd00;" x="736.286967" xlink:href="#m39f8ce73b2" y="375.799786"/>
     <use style="fill:#dbcd00;stroke:#dbcd00;" x="740.641239" xlink:href="#m39f8ce73b2" y="375.799786"/>
     <use style="fill:#dbcd00;stroke:#dbcd00;" x="753.704056" xlink:href="#m39f8ce73b2" y="372.769279"/>
     <use style="fill:#dbcd00;stroke:#dbcd00;" x="758.058329" xlink:href="#m39f8ce73b2" y="370.604631"/>
     <use style="fill:#dbcd00;stroke:#dbcd00;" x="762.412601" xlink:href="#m39f8ce73b2" y="370.171702"/>
     <use style="fill:#dbcd00;stroke:#dbcd00;" x="766.766873" xlink:href="#m39f8ce73b2" y="369.305843"/>
     <use style="fill:#dbcd00;stroke:#dbcd00;" x="771.121146" xlink:href="#m39f8ce73b2" y="369.305843"/>
     <use style="fill:#dbcd00;stroke:#dbcd00;" x="784.183963" xlink:href="#m39f8ce73b2" y="368.872913"/>
     <use style="fill:#dbcd00;stroke:#dbcd00;" x="788.538235" xlink:href="#m39f8ce73b2" y="368.007054"/>
     <use style="fill:#dbcd00;stroke:#dbcd00;" x="792.892507" xlink:href="#m39f8ce73b2" y="367.574125"/>
     <use style="fill:#dbcd00;stroke:#dbcd00;" x="797.24678" xlink:href="#m39f8ce73b2" y="366.275336"/>
     <use style="fill:#dbcd00;stroke:#dbcd00;" x="801.601052" xlink:href="#m39f8ce73b2" y="364.543618"/>
     <use style="fill:#dbcd00;stroke:#dbcd00;" x="814.663869" xlink:href="#m39f8ce73b2" y="364.110688"/>
     <use style="fill:#dbcd00;stroke:#dbcd00;" x="819.018141" xlink:href="#m39f8ce73b2" y="364.110688"/>
     <use style="fill:#dbcd00;stroke:#dbcd00;" x="823.372414" xlink:href="#m39f8ce73b2" y="363.244829"/>
     <use style="fill:#dbcd00;stroke:#dbcd00;" x="827.726686" xlink:href="#m39f8ce73b2" y="361.946041"/>
     <use style="fill:#dbcd00;stroke:#dbcd00;" x="832.080958" xlink:href="#m39f8ce73b2" y="361.946041"/>
     <use style="fill:#dbcd00;stroke:#dbcd00;" x="845.143775" xlink:href="#m39f8ce73b2" y="359.348464"/>
     <use style="fill:#dbcd00;stroke:#dbcd00;" x="849.498048" xlink:href="#m39f8ce73b2" y="358.482605"/>
     <use style="fill:#dbcd00;stroke:#dbcd00;" x="853.85232" xlink:href="#m39f8ce73b2" y="358.049675"/>
     <use style="fill:#dbcd00;stroke:#dbcd00;" x="858.206592" xlink:href="#m39f8ce73b2" y="358.049675"/>
     <use style="fill:#dbcd00;stroke:#dbcd00;" x="862.560865" xlink:href="#m39f8ce73b2" y="356.317957"/>
     <use style="fill:#dbcd00;stroke:#dbcd00;" x="875.623682" xlink:href="#m39f8ce73b2" y="356.317957"/>
     <use style="fill:#dbcd00;stroke:#dbcd00;" x="879.977954" xlink:href="#m39f8ce73b2" y="356.317957"/>
     <use style="fill:#dbcd00;stroke:#dbcd00;" x="884.332226" xlink:href="#m39f8ce73b2" y="355.885027"/>
     <use style="fill:#dbcd00;stroke:#dbcd00;" x="888.686499" xlink:href="#m39f8ce73b2" y="354.586239"/>
     <use style="fill:#dbcd00;stroke:#dbcd00;" x="893.040771" xlink:href="#m39f8ce73b2" y="354.586239"/>
     <use style="fill:#dbcd00;stroke:#dbcd00;" x="906.103588" xlink:href="#m39f8ce73b2" y="353.72038"/>
     <use style="fill:#dbcd00;stroke:#dbcd00;" x="910.45786" xlink:href="#m39f8ce73b2" y="353.72038"/>
     <use style="fill:#dbcd00;stroke:#dbcd00;" x="914.812133" xlink:href="#m39f8ce73b2" y="352.854521"/>
     <use style="fill:#dbcd00;stroke:#dbcd00;" x="919.166405" xlink:href="#m39f8ce73b2" y="351.988662"/>
     <use style="fill:#dbcd00;stroke:#dbcd00;" x="923.520677" xlink:href="#m39f8ce73b2" y="351.555732"/>
     <use style="fill:#dbcd00;stroke:#dbcd00;" x="936.583494" xlink:href="#m39f8ce73b2" y="350.689873"/>
     <use style="fill:#dbcd00;stroke:#dbcd00;" x="940.937767" xlink:href="#m39f8ce73b2" y="348.958155"/>
     <use style="fill:#dbcd00;stroke:#dbcd00;" x="945.292039" xlink:href="#m39f8ce73b2" y="348.958155"/>
     <use style="fill:#dbcd00;stroke:#dbcd00;" x="949.646311" xlink:href="#m39f8ce73b2" y="348.525225"/>
     <use style="fill:#dbcd00;stroke:#dbcd00;" x="954.000584" xlink:href="#m39f8ce73b2" y="348.092296"/>
     <use style="fill:#dbcd00;stroke:#dbcd00;" x="967.063401" xlink:href="#m39f8ce73b2" y="342.031283"/>
     <use style="fill:#dbcd00;stroke:#dbcd00;" x="971.417673" xlink:href="#m39f8ce73b2" y="341.598353"/>
     <use style="fill:#dbcd00;stroke:#dbcd00;" x="975.771945" xlink:href="#m39f8ce73b2" y="339.866635"/>
     <use style="fill:#dbcd00;stroke:#dbcd00;" x="980.126218" xlink:href="#m39f8ce73b2" y="335.970269"/>
     <use style="fill:#dbcd00;stroke:#dbcd00;" x="997.543307" xlink:href="#m39f8ce73b2" y="332.073903"/>
     <use style="fill:#dbcd00;stroke:#dbcd00;" x="1001.897579" xlink:href="#m39f8ce73b2" y="331.208044"/>
     <use style="fill:#dbcd00;stroke:#dbcd00;" x="1032.377486" xlink:href="#m39f8ce73b2" y="319.518947"/>
     <use style="fill:#dbcd00;stroke:#dbcd00;" x="1036.731758" xlink:href="#m39f8ce73b2" y="316.055511"/>
     <use style="fill:#dbcd00;stroke:#dbcd00;" x="1041.086031" xlink:href="#m39f8ce73b2" y="309.994498"/>
     <use style="fill:#dbcd00;stroke:#dbcd00;" x="1045.440303" xlink:href="#m39f8ce73b2" y="309.561568"/>
     <use style="fill:#dbcd00;stroke:#dbcd00;" x="1058.50312" xlink:href="#m39f8ce73b2" y="303.067625"/>
     <use style="fill:#dbcd00;stroke:#dbcd00;" x="1062.857392" xlink:href="#m39f8ce73b2" y="302.634696"/>
     <use style="fill:#dbcd00;stroke:#dbcd00;" x="1067.211665" xlink:href="#m39f8ce73b2" y="294.409035"/>
     <use style="fill:#dbcd00;stroke:#dbcd00;" x="1071.565937" xlink:href="#m39f8ce73b2" y="291.378528"/>
     <use style="fill:#dbcd00;stroke:#dbcd00;" x="1075.920209" xlink:href="#m39f8ce73b2" y="289.21388"/>
     <use style="fill:#dbcd00;stroke:#dbcd00;" x="1088.983026" xlink:href="#m39f8ce73b2" y="280.55529"/>
     <use style="fill:#dbcd00;stroke:#dbcd00;" x="1093.337299" xlink:href="#m39f8ce73b2" y="280.55529"/>
     <use style="fill:#dbcd00;stroke:#dbcd00;" x="1097.691571" xlink:href="#m39f8ce73b2" y="280.55529"/>
     <use style="fill:#dbcd00;stroke:#dbcd00;" x="1102.045843" xlink:href="#m39f8ce73b2" y="276.225995"/>
     <use style="fill:#dbcd00;stroke:#dbcd00;" x="1106.400116" xlink:href="#m39f8ce73b2" y="271.896699"/>
     <use style="fill:#dbcd00;stroke:#dbcd00;" x="1119.462933" xlink:href="#m39f8ce73b2" y="267.567404"/>
     <use style="fill:#dbcd00;stroke:#dbcd00;" x="1128.171477" xlink:href="#m39f8ce73b2" y="245.920928"/>
    </g>
   </g>
   <g id="line2d_34">
    <path clip-path="url(#p3a03406a9e)" d="M 113.626023 481.867519 
L 117.980295 481.43459 
L 122.334567 478.404083 
L 126.68884 481.00166 
L 131.043112 479.269942 
L 135.397384 477.105294 
L 139.751657 476.672365 
L 144.105929 475.806506 
L 148.460201 474.074788 
L 152.814474 474.074788 
L 157.168746 472.775999 
L 161.523018 474.074788 
L 165.877291 474.074788 
L 170.231563 473.641858 
L 174.585835 472.34307 
L 183.29438 468.879633 
L 187.648652 468.013774 
L 192.002925 468.879633 
L 200.711469 468.879633 
L 209.420014 468.446704 
L 213.774286 466.282056 
L 218.128559 465.849127 
L 222.482831 467.147915 
L 226.837103 465.849127 
L 235.545648 466.282056 
L 239.899921 463.684479 
L 244.254193 464.983268 
L 248.608465 466.714986 
L 252.962738 466.282056 
L 257.31701 461.086902 
L 266.025555 464.117409 
L 270.379827 465.849127 
L 274.734099 466.714986 
L 279.088372 468.446704 
L 287.796916 466.282056 
L 296.505461 469.745492 
L 300.859733 466.282056 
L 305.214006 464.550338 
L 309.568278 466.714986 
L 313.92255 467.147915 
L 318.276823 469.312563 
L 326.985367 471.044281 
L 331.33964 471.477211 
L 335.693912 472.34307 
L 340.048184 472.34307 
L 344.402457 475.373576 
L 348.756729 477.538224 
L 357.465274 480.135801 
L 361.819546 480.568731 
L 374.882363 484.465096 
L 387.94518 483.166308 
L 392.299452 483.166308 
L 401.007997 483.599237 
L 405.362269 484.898026 
L 422.779359 483.599237 
L 427.133631 484.465096 
L 431.487903 484.032167 
L 435.842176 485.330955 
L 448.904993 485.330955 
L 453.259265 486.196814 
L 457.613537 485.330955 
L 466.322082 486.196814 
L 470.676354 485.763885 
L 488.093444 485.763885 
L 496.801988 488.361462 
L 501.156261 487.928533 
L 509.864805 488.361462 
L 514.219078 488.361462 
L 518.57335 489.227321 
L 544.698984 489.227321 
L 557.761801 487.928533 
L 562.116073 486.196814 
L 575.17889 486.196814 
L 579.533163 485.330955 
L 601.304524 485.330955 
L 605.658797 486.196814 
L 610.013069 486.629744 
L 614.367341 487.495603 
L 618.721614 485.763885 
L 631.784431 485.763885 
L 644.847248 484.032167 
L 649.20152 484.032167 
L 662.264337 478.837012 
L 670.972882 478.837012 
L 675.327154 477.538224 
L 679.681427 471.477211 
L 723.22415 476.239435 
L 727.578422 479.702872 
L 736.286967 480.568731 
L 753.704056 480.568731 
L 758.058329 482.733378 
L 762.412601 483.166308 
L 766.766873 484.032167 
L 771.121146 483.166308 
L 784.183963 482.300449 
L 788.538235 483.166308 
L 792.892507 483.166308 
L 801.601052 484.032167 
L 814.663869 484.032167 
L 823.372414 483.166308 
L 827.726686 484.465096 
L 832.080958 483.599237 
L 845.143775 484.032167 
L 849.498048 484.898026 
L 853.85232 482.733378 
L 858.206592 482.733378 
L 862.560865 484.032167 
L 875.623682 483.599237 
L 879.977954 483.166308 
L 884.332226 483.166308 
L 888.686499 484.465096 
L 893.040771 484.465096 
L 906.103588 481.867519 
L 910.45786 481.867519 
L 919.166405 482.733378 
L 923.520677 480.568731 
L 936.583494 476.672365 
L 940.937767 477.538224 
L 945.292039 474.507717 
L 949.646311 472.775999 
L 954.000584 473.208929 
L 967.063401 471.477211 
L 971.417673 471.477211 
L 975.771945 469.745492 
L 980.126218 473.641858 
L 1001.897579 471.044281 
L 1032.377486 455.458818 
L 1036.731758 458.056395 
L 1041.086031 457.623466 
L 1045.440303 458.056395 
L 1058.50312 422.123245 
L 1062.857392 413.464654 
L 1071.565937 400.476768 
L 1075.920209 383.592517 
L 1088.983026 335.10441 
L 1093.337299 326.44582 
L 1097.691571 313.890863 
L 1102.045843 290.945599 
L 1106.400116 267.134475 
L 1119.462933 240.292844 
L 1128.171477 238.994056 
L 1128.171477 238.994056 
" style="fill:none;stroke:#2792cb;stroke-linecap:square;stroke-width:2;"/>
    <defs>
     <path d="M 0 1.5 
C 0.397805 1.5 0.77937 1.341951 1.06066 1.06066 
C 1.341951 0.77937 1.5 0.397805 1.5 0 
C 1.5 -0.397805 1.341951 -0.77937 1.06066 -1.06066 
C 0.77937 -1.341951 0.397805 -1.5 0 -1.5 
C -0.397805 -1.5 -0.77937 -1.341951 -1.06066 -1.06066 
C -1.341951 -0.77937 -1.5 -0.397805 -1.5 0 
C -1.5 0.397805 -1.341951 0.77937 -1.06066 1.06066 
C -0.77937 1.341951 -0.397805 1.5 0 1.5 
z
" id="m462d860439" style="stroke:#2792cb;"/>
    </defs>
    <g clip-path="url(#p3a03406a9e)">
     <use style="fill:#2792cb;stroke:#2792cb;" x="113.626023" xlink:href="#m462d860439" y="481.867519"/>
     <use style="fill:#2792cb;stroke:#2792cb;" x="117.980295" xlink:href="#m462d860439" y="481.43459"/>
     <use style="fill:#2792cb;stroke:#2792cb;" x="122.334567" xlink:href="#m462d860439" y="478.404083"/>
     <use style="fill:#2792cb;stroke:#2792cb;" x="126.68884" xlink:href="#m462d860439" y="481.00166"/>
     <use style="fill:#2792cb;stroke:#2792cb;" x="131.043112" xlink:href="#m462d860439" y="479.269942"/>
     <use style="fill:#2792cb;stroke:#2792cb;" x="135.397384" xlink:href="#m462d860439" y="477.105294"/>
     <use style="fill:#2792cb;stroke:#2792cb;" x="139.751657" xlink:href="#m462d860439" y="476.672365"/>
     <use style="fill:#2792cb;stroke:#2792cb;" x="144.105929" xlink:href="#m462d860439" y="475.806506"/>
     <use style="fill:#2792cb;stroke:#2792cb;" x="148.460201" xlink:href="#m462d860439" y="474.074788"/>
     <use style="fill:#2792cb;stroke:#2792cb;" x="152.814474" xlink:href="#m462d860439" y="474.074788"/>
     <use style="fill:#2792cb;stroke:#2792cb;" x="157.168746" xlink:href="#m462d860439" y="472.775999"/>
     <use style="fill:#2792cb;stroke:#2792cb;" x="161.523018" xlink:href="#m462d860439" y="474.074788"/>
     <use style="fill:#2792cb;stroke:#2792cb;" x="165.877291" xlink:href="#m462d860439" y="474.074788"/>
     <use style="fill:#2792cb;stroke:#2792cb;" x="170.231563" xlink:href="#m462d860439" y="473.641858"/>
     <use style="fill:#2792cb;stroke:#2792cb;" x="174.585835" xlink:href="#m462d860439" y="472.34307"/>
     <use style="fill:#2792cb;stroke:#2792cb;" x="178.940108" xlink:href="#m462d860439" y="470.611352"/>
     <use style="fill:#2792cb;stroke:#2792cb;" x="183.29438" xlink:href="#m462d860439" y="468.879633"/>
     <use style="fill:#2792cb;stroke:#2792cb;" x="187.648652" xlink:href="#m462d860439" y="468.013774"/>
     <use style="fill:#2792cb;stroke:#2792cb;" x="192.002925" xlink:href="#m462d860439" y="468.879633"/>
     <use style="fill:#2792cb;stroke:#2792cb;" x="200.711469" xlink:href="#m462d860439" y="468.879633"/>
     <use style="fill:#2792cb;stroke:#2792cb;" x="209.420014" xlink:href="#m462d860439" y="468.446704"/>
     <use style="fill:#2792cb;stroke:#2792cb;" x="213.774286" xlink:href="#m462d860439" y="466.282056"/>
     <use style="fill:#2792cb;stroke:#2792cb;" x="218.128559" xlink:href="#m462d860439" y="465.849127"/>
     <use style="fill:#2792cb;stroke:#2792cb;" x="222.482831" xlink:href="#m462d860439" y="467.147915"/>
     <use style="fill:#2792cb;stroke:#2792cb;" x="226.837103" xlink:href="#m462d860439" y="465.849127"/>
     <use style="fill:#2792cb;stroke:#2792cb;" x="235.545648" xlink:href="#m462d860439" y="466.282056"/>
     <use style="fill:#2792cb;stroke:#2792cb;" x="239.899921" xlink:href="#m462d860439" y="463.684479"/>
     <use style="fill:#2792cb;stroke:#2792cb;" x="244.254193" xlink:href="#m462d860439" y="464.983268"/>
     <use style="fill:#2792cb;stroke:#2792cb;" x="248.608465" xlink:href="#m462d860439" y="466.714986"/>
     <use style="fill:#2792cb;stroke:#2792cb;" x="252.962738" xlink:href="#m462d860439" y="466.282056"/>
     <use style="fill:#2792cb;stroke:#2792cb;" x="257.31701" xlink:href="#m462d860439" y="461.086902"/>
     <use style="fill:#2792cb;stroke:#2792cb;" x="266.025555" xlink:href="#m462d860439" y="464.117409"/>
     <use style="fill:#2792cb;stroke:#2792cb;" x="270.379827" xlink:href="#m462d860439" y="465.849127"/>
     <use style="fill:#2792cb;stroke:#2792cb;" x="274.734099" xlink:href="#m462d860439" y="466.714986"/>
     <use style="fill:#2792cb;stroke:#2792cb;" x="279.088372" xlink:href="#m462d860439" y="468.446704"/>
     <use style="fill:#2792cb;stroke:#2792cb;" x="287.796916" xlink:href="#m462d860439" y="466.282056"/>
     <use style="fill:#2792cb;stroke:#2792cb;" x="296.505461" xlink:href="#m462d860439" y="469.745492"/>
     <use style="fill:#2792cb;stroke:#2792cb;" x="300.859733" xlink:href="#m462d860439" y="466.282056"/>
     <use style="fill:#2792cb;stroke:#2792cb;" x="305.214006" xlink:href="#m462d860439" y="464.550338"/>
     <use style="fill:#2792cb;stroke:#2792cb;" x="309.568278" xlink:href="#m462d860439" y="466.714986"/>
     <use style="fill:#2792cb;stroke:#2792cb;" x="313.92255" xlink:href="#m462d860439" y="467.147915"/>
     <use style="fill:#2792cb;stroke:#2792cb;" x="318.276823" xlink:href="#m462d860439" y="469.312563"/>
     <use style="fill:#2792cb;stroke:#2792cb;" x="326.985367" xlink:href="#m462d860439" y="471.044281"/>
     <use style="fill:#2792cb;stroke:#2792cb;" x="331.33964" xlink:href="#m462d860439" y="471.477211"/>
     <use style="fill:#2792cb;stroke:#2792cb;" x="335.693912" xlink:href="#m462d860439" y="472.34307"/>
     <use style="fill:#2792cb;stroke:#2792cb;" x="340.048184" xlink:href="#m462d860439" y="472.34307"/>
     <use style="fill:#2792cb;stroke:#2792cb;" x="344.402457" xlink:href="#m462d860439" y="475.373576"/>
     <use style="fill:#2792cb;stroke:#2792cb;" x="348.756729" xlink:href="#m462d860439" y="477.538224"/>
     <use style="fill:#2792cb;stroke:#2792cb;" x="357.465274" xlink:href="#m462d860439" y="480.135801"/>
     <use style="fill:#2792cb;stroke:#2792cb;" x="361.819546" xlink:href="#m462d860439" y="480.568731"/>
     <use style="fill:#2792cb;stroke:#2792cb;" x="366.173818" xlink:href="#m462d860439" y="481.867519"/>
     <use style="fill:#2792cb;stroke:#2792cb;" x="374.882363" xlink:href="#m462d860439" y="484.465096"/>
     <use style="fill:#2792cb;stroke:#2792cb;" x="379.236635" xlink:href="#m462d860439" y="484.032167"/>
     <use style="fill:#2792cb;stroke:#2792cb;" x="387.94518" xlink:href="#m462d860439" y="483.166308"/>
     <use style="fill:#2792cb;stroke:#2792cb;" x="392.299452" xlink:href="#m462d860439" y="483.166308"/>
     <use style="fill:#2792cb;stroke:#2792cb;" x="401.007997" xlink:href="#m462d860439" y="483.599237"/>
     <use style="fill:#2792cb;stroke:#2792cb;" x="405.362269" xlink:href="#m462d860439" y="484.898026"/>
     <use style="fill:#2792cb;stroke:#2792cb;" x="422.779359" xlink:href="#m462d860439" y="483.599237"/>
     <use style="fill:#2792cb;stroke:#2792cb;" x="427.133631" xlink:href="#m462d860439" y="484.465096"/>
     <use style="fill:#2792cb;stroke:#2792cb;" x="431.487903" xlink:href="#m462d860439" y="484.032167"/>
     <use style="fill:#2792cb;stroke:#2792cb;" x="435.842176" xlink:href="#m462d860439" y="485.330955"/>
     <use style="fill:#2792cb;stroke:#2792cb;" x="440.196448" xlink:href="#m462d860439" y="485.330955"/>
     <use style="fill:#2792cb;stroke:#2792cb;" x="448.904993" xlink:href="#m462d860439" y="485.330955"/>
     <use style="fill:#2792cb;stroke:#2792cb;" x="453.259265" xlink:href="#m462d860439" y="486.196814"/>
     <use style="fill:#2792cb;stroke:#2792cb;" x="457.613537" xlink:href="#m462d860439" y="485.330955"/>
     <use style="fill:#2792cb;stroke:#2792cb;" x="466.322082" xlink:href="#m462d860439" y="486.196814"/>
     <use style="fill:#2792cb;stroke:#2792cb;" x="470.676354" xlink:href="#m462d860439" y="485.763885"/>
     <use style="fill:#2792cb;stroke:#2792cb;" x="479.384899" xlink:href="#m462d860439" y="485.763885"/>
     <use style="fill:#2792cb;stroke:#2792cb;" x="488.093444" xlink:href="#m462d860439" y="485.763885"/>
     <use style="fill:#2792cb;stroke:#2792cb;" x="496.801988" xlink:href="#m462d860439" y="488.361462"/>
     <use style="fill:#2792cb;stroke:#2792cb;" x="501.156261" xlink:href="#m462d860439" y="487.928533"/>
     <use style="fill:#2792cb;stroke:#2792cb;" x="509.864805" xlink:href="#m462d860439" y="488.361462"/>
     <use style="fill:#2792cb;stroke:#2792cb;" x="514.219078" xlink:href="#m462d860439" y="488.361462"/>
     <use style="fill:#2792cb;stroke:#2792cb;" x="518.57335" xlink:href="#m462d860439" y="489.227321"/>
     <use style="fill:#2792cb;stroke:#2792cb;" x="522.927622" xlink:href="#m462d860439" y="489.227321"/>
     <use style="fill:#2792cb;stroke:#2792cb;" x="531.636167" xlink:href="#m462d860439" y="489.227321"/>
     <use style="fill:#2792cb;stroke:#2792cb;" x="540.344712" xlink:href="#m462d860439" y="489.227321"/>
     <use style="fill:#2792cb;stroke:#2792cb;" x="544.698984" xlink:href="#m462d860439" y="489.227321"/>
     <use style="fill:#2792cb;stroke:#2792cb;" x="549.053256" xlink:href="#m462d860439" y="488.794392"/>
     <use style="fill:#2792cb;stroke:#2792cb;" x="553.407529" xlink:href="#m462d860439" y="488.361462"/>
     <use style="fill:#2792cb;stroke:#2792cb;" x="557.761801" xlink:href="#m462d860439" y="487.928533"/>
     <use style="fill:#2792cb;stroke:#2792cb;" x="562.116073" xlink:href="#m462d860439" y="486.196814"/>
     <use style="fill:#2792cb;stroke:#2792cb;" x="575.17889" xlink:href="#m462d860439" y="486.196814"/>
     <use style="fill:#2792cb;stroke:#2792cb;" x="579.533163" xlink:href="#m462d860439" y="485.330955"/>
     <use style="fill:#2792cb;stroke:#2792cb;" x="583.887435" xlink:href="#m462d860439" y="485.330955"/>
     <use style="fill:#2792cb;stroke:#2792cb;" x="588.241707" xlink:href="#m462d860439" y="485.330955"/>
     <use style="fill:#2792cb;stroke:#2792cb;" x="601.304524" xlink:href="#m462d860439" y="485.330955"/>
     <use style="fill:#2792cb;stroke:#2792cb;" x="605.658797" xlink:href="#m462d860439" y="486.196814"/>
     <use style="fill:#2792cb;stroke:#2792cb;" x="610.013069" xlink:href="#m462d860439" y="486.629744"/>
     <use style="fill:#2792cb;stroke:#2792cb;" x="614.367341" xlink:href="#m462d860439" y="487.495603"/>
     <use style="fill:#2792cb;stroke:#2792cb;" x="618.721614" xlink:href="#m462d860439" y="485.763885"/>
     <use style="fill:#2792cb;stroke:#2792cb;" x="631.784431" xlink:href="#m462d860439" y="485.763885"/>
     <use style="fill:#2792cb;stroke:#2792cb;" x="644.847248" xlink:href="#m462d860439" y="484.032167"/>
     <use style="fill:#2792cb;stroke:#2792cb;" x="649.20152" xlink:href="#m462d860439" y="484.032167"/>
     <use style="fill:#2792cb;stroke:#2792cb;" x="662.264337" xlink:href="#m462d860439" y="478.837012"/>
     <use style="fill:#2792cb;stroke:#2792cb;" x="666.61861" xlink:href="#m462d860439" y="478.837012"/>
     <use style="fill:#2792cb;stroke:#2792cb;" x="670.972882" xlink:href="#m462d860439" y="478.837012"/>
     <use style="fill:#2792cb;stroke:#2792cb;" x="675.327154" xlink:href="#m462d860439" y="477.538224"/>
     <use style="fill:#2792cb;stroke:#2792cb;" x="679.681427" xlink:href="#m462d860439" y="471.477211"/>
     <use style="fill:#2792cb;stroke:#2792cb;" x="723.22415" xlink:href="#m462d860439" y="476.239435"/>
     <use style="fill:#2792cb;stroke:#2792cb;" x="727.578422" xlink:href="#m462d860439" y="479.702872"/>
     <use style="fill:#2792cb;stroke:#2792cb;" x="736.286967" xlink:href="#m462d860439" y="480.568731"/>
     <use style="fill:#2792cb;stroke:#2792cb;" x="740.641239" xlink:href="#m462d860439" y="480.568731"/>
     <use style="fill:#2792cb;stroke:#2792cb;" x="753.704056" xlink:href="#m462d860439" y="480.568731"/>
     <use style="fill:#2792cb;stroke:#2792cb;" x="758.058329" xlink:href="#m462d860439" y="482.733378"/>
     <use style="fill:#2792cb;stroke:#2792cb;" x="762.412601" xlink:href="#m462d860439" y="483.166308"/>
     <use style="fill:#2792cb;stroke:#2792cb;" x="766.766873" xlink:href="#m462d860439" y="484.032167"/>
     <use style="fill:#2792cb;stroke:#2792cb;" x="771.121146" xlink:href="#m462d860439" y="483.166308"/>
     <use style="fill:#2792cb;stroke:#2792cb;" x="784.183963" xlink:href="#m462d860439" y="482.300449"/>
     <use style="fill:#2792cb;stroke:#2792cb;" x="788.538235" xlink:href="#m462d860439" y="483.166308"/>
     <use style="fill:#2792cb;stroke:#2792cb;" x="792.892507" xlink:href="#m462d860439" y="483.166308"/>
     <use style="fill:#2792cb;stroke:#2792cb;" x="797.24678" xlink:href="#m462d860439" y="483.599237"/>
     <use style="fill:#2792cb;stroke:#2792cb;" x="801.601052" xlink:href="#m462d860439" y="484.032167"/>
     <use style="fill:#2792cb;stroke:#2792cb;" x="814.663869" xlink:href="#m462d860439" y="484.032167"/>
     <use style="fill:#2792cb;stroke:#2792cb;" x="819.018141" xlink:href="#m462d860439" y="483.599237"/>
     <use style="fill:#2792cb;stroke:#2792cb;" x="823.372414" xlink:href="#m462d860439" y="483.166308"/>
     <use style="fill:#2792cb;stroke:#2792cb;" x="827.726686" xlink:href="#m462d860439" y="484.465096"/>
     <use style="fill:#2792cb;stroke:#2792cb;" x="832.080958" xlink:href="#m462d860439" y="483.599237"/>
     <use style="fill:#2792cb;stroke:#2792cb;" x="845.143775" xlink:href="#m462d860439" y="484.032167"/>
     <use style="fill:#2792cb;stroke:#2792cb;" x="849.498048" xlink:href="#m462d860439" y="484.898026"/>
     <use style="fill:#2792cb;stroke:#2792cb;" x="853.85232" xlink:href="#m462d860439" y="482.733378"/>
     <use style="fill:#2792cb;stroke:#2792cb;" x="858.206592" xlink:href="#m462d860439" y="482.733378"/>
     <use style="fill:#2792cb;stroke:#2792cb;" x="862.560865" xlink:href="#m462d860439" y="484.032167"/>
     <use style="fill:#2792cb;stroke:#2792cb;" x="875.623682" xlink:href="#m462d860439" y="483.599237"/>
     <use style="fill:#2792cb;stroke:#2792cb;" x="879.977954" xlink:href="#m462d860439" y="483.166308"/>
     <use style="fill:#2792cb;stroke:#2792cb;" x="884.332226" xlink:href="#m462d860439" y="483.166308"/>
     <use style="fill:#2792cb;stroke:#2792cb;" x="888.686499" xlink:href="#m462d860439" y="484.465096"/>
     <use style="fill:#2792cb;stroke:#2792cb;" x="893.040771" xlink:href="#m462d860439" y="484.465096"/>
     <use style="fill:#2792cb;stroke:#2792cb;" x="906.103588" xlink:href="#m462d860439" y="481.867519"/>
     <use style="fill:#2792cb;stroke:#2792cb;" x="910.45786" xlink:href="#m462d860439" y="481.867519"/>
     <use style="fill:#2792cb;stroke:#2792cb;" x="914.812133" xlink:href="#m462d860439" y="482.300449"/>
     <use style="fill:#2792cb;stroke:#2792cb;" x="919.166405" xlink:href="#m462d860439" y="482.733378"/>
     <use style="fill:#2792cb;stroke:#2792cb;" x="923.520677" xlink:href="#m462d860439" y="480.568731"/>
     <use style="fill:#2792cb;stroke:#2792cb;" x="936.583494" xlink:href="#m462d860439" y="476.672365"/>
     <use style="fill:#2792cb;stroke:#2792cb;" x="940.937767" xlink:href="#m462d860439" y="477.538224"/>
     <use style="fill:#2792cb;stroke:#2792cb;" x="945.292039" xlink:href="#m462d860439" y="474.507717"/>
     <use style="fill:#2792cb;stroke:#2792cb;" x="949.646311" xlink:href="#m462d860439" y="472.775999"/>
     <use style="fill:#2792cb;stroke:#2792cb;" x="954.000584" xlink:href="#m462d860439" y="473.208929"/>
     <use style="fill:#2792cb;stroke:#2792cb;" x="967.063401" xlink:href="#m462d860439" y="471.477211"/>
     <use style="fill:#2792cb;stroke:#2792cb;" x="971.417673" xlink:href="#m462d860439" y="471.477211"/>
     <use style="fill:#2792cb;stroke:#2792cb;" x="975.771945" xlink:href="#m462d860439" y="469.745492"/>
     <use style="fill:#2792cb;stroke:#2792cb;" x="980.126218" xlink:href="#m462d860439" y="473.641858"/>
     <use style="fill:#2792cb;stroke:#2792cb;" x="997.543307" xlink:href="#m462d860439" y="471.477211"/>
     <use style="fill:#2792cb;stroke:#2792cb;" x="1001.897579" xlink:href="#m462d860439" y="471.044281"/>
     <use style="fill:#2792cb;stroke:#2792cb;" x="1032.377486" xlink:href="#m462d860439" y="455.458818"/>
     <use style="fill:#2792cb;stroke:#2792cb;" x="1036.731758" xlink:href="#m462d860439" y="458.056395"/>
     <use style="fill:#2792cb;stroke:#2792cb;" x="1041.086031" xlink:href="#m462d860439" y="457.623466"/>
     <use style="fill:#2792cb;stroke:#2792cb;" x="1045.440303" xlink:href="#m462d860439" y="458.056395"/>
     <use style="fill:#2792cb;stroke:#2792cb;" x="1058.50312" xlink:href="#m462d860439" y="422.123245"/>
     <use style="fill:#2792cb;stroke:#2792cb;" x="1062.857392" xlink:href="#m462d860439" y="413.464654"/>
     <use style="fill:#2792cb;stroke:#2792cb;" x="1067.211665" xlink:href="#m462d860439" y="406.970711"/>
     <use style="fill:#2792cb;stroke:#2792cb;" x="1071.565937" xlink:href="#m462d860439" y="400.476768"/>
     <use style="fill:#2792cb;stroke:#2792cb;" x="1075.920209" xlink:href="#m462d860439" y="383.592517"/>
     <use style="fill:#2792cb;stroke:#2792cb;" x="1088.983026" xlink:href="#m462d860439" y="335.10441"/>
     <use style="fill:#2792cb;stroke:#2792cb;" x="1093.337299" xlink:href="#m462d860439" y="326.44582"/>
     <use style="fill:#2792cb;stroke:#2792cb;" x="1097.691571" xlink:href="#m462d860439" y="313.890863"/>
     <use style="fill:#2792cb;stroke:#2792cb;" x="1102.045843" xlink:href="#m462d860439" y="290.945599"/>
     <use style="fill:#2792cb;stroke:#2792cb;" x="1106.400116" xlink:href="#m462d860439" y="267.134475"/>
     <use style="fill:#2792cb;stroke:#2792cb;" x="1119.462933" xlink:href="#m462d860439" y="240.292844"/>
     <use style="fill:#2792cb;stroke:#2792cb;" x="1128.171477" xlink:href="#m462d860439" y="238.994056"/>
    </g>
   </g>
   <g id="patch_3">
    <path d="M 62.89875 501.738984 
L 1178.89875 501.738984 
" style="fill:none;stroke:#000000;stroke-linecap:square;stroke-linejoin:miter;stroke-width:0.8;"/>
   </g>
   <g id="legend_1">
    <g id="line2d_35">
     <path d="M 1091.653438 25.237422 
L 1111.653438 25.237422 
" style="fill:none;stroke:#dbcd00;stroke-linecap:square;stroke-width:2;"/>
    </g>
    <g id="line2d_36">
     <g>
      <use style="fill:#dbcd00;stroke:#dbcd00;" x="1101.653438" xlink:href="#m39f8ce73b2" y="25.237422"/>
     </g>
    </g>
    <g id="text_22">
     <!-- Genesene -->
     <defs>
      <path d="M 59.515625 10.40625 
L 59.515625 29.984375 
L 43.40625 29.984375 
L 43.40625 38.09375 
L 69.28125 38.09375 
L 69.28125 6.78125 
Q 63.578125 2.734375 56.6875 0.65625 
Q 49.8125 -1.421875 42 -1.421875 
Q 24.90625 -1.421875 15.25 8.5625 
Q 5.609375 18.5625 5.609375 36.375 
Q 5.609375 54.25 15.25 64.234375 
Q 24.90625 74.21875 42 74.21875 
Q 49.125 74.21875 55.546875 72.453125 
Q 61.96875 70.703125 67.390625 67.28125 
L 67.390625 56.78125 
Q 61.921875 61.421875 55.765625 63.765625 
Q 49.609375 66.109375 42.828125 66.109375 
Q 29.4375 66.109375 22.71875 58.640625 
Q 16.015625 51.171875 16.015625 36.375 
Q 16.015625 21.625 22.71875 14.15625 
Q 29.4375 6.6875 42.828125 6.6875 
Q 48.046875 6.6875 52.140625 7.59375 
Q 56.25 8.5 59.515625 10.40625 
z
" id="DejaVuSans-71"/>
      <path d="M 44.28125 53.078125 
L 44.28125 44.578125 
Q 40.484375 46.53125 36.375 47.5 
Q 32.28125 48.484375 27.875 48.484375 
Q 21.1875 48.484375 17.84375 46.4375 
Q 14.5 44.390625 14.5 40.28125 
Q 14.5 37.15625 16.890625 35.375 
Q 19.28125 33.59375 26.515625 31.984375 
L 29.59375 31.296875 
Q 39.15625 29.25 43.1875 25.515625 
Q 47.21875 21.78125 47.21875 15.09375 
Q 47.21875 7.46875 41.1875 3.015625 
Q 35.15625 -1.421875 24.609375 -1.421875 
Q 20.21875 -1.421875 15.453125 -0.5625 
Q 10.6875 0.296875 5.421875 2 
L 5.421875 11.28125 
Q 10.40625 8.6875 15.234375 7.390625 
Q 20.0625 6.109375 24.8125 6.109375 
Q 31.15625 6.109375 34.5625 8.28125 
Q 37.984375 10.453125 37.984375 14.40625 
Q 37.984375 18.0625 35.515625 20.015625 
Q 33.0625 21.96875 24.703125 23.78125 
L 21.578125 24.515625 
Q 13.234375 26.265625 9.515625 29.90625 
Q 5.8125 33.546875 5.8125 39.890625 
Q 5.8125 47.609375 11.28125 51.796875 
Q 16.75 56 26.8125 56 
Q 31.78125 56 36.171875 55.265625 
Q 40.578125 54.546875 44.28125 53.078125 
z
" id="DejaVuSans-115"/>
     </defs>
     <g transform="translate(1119.653438 28.737422)scale(0.1 -0.1)">
      <use xlink:href="#DejaVuSans-71"/>
      <use x="77.490234" xlink:href="#DejaVuSans-101"/>
      <use x="139.013672" xlink:href="#DejaVuSans-110"/>
      <use x="202.392578" xlink:href="#DejaVuSans-101"/>
      <use x="263.916016" xlink:href="#DejaVuSans-115"/>
      <use x="316.015625" xlink:href="#DejaVuSans-101"/>
      <use x="377.539062" xlink:href="#DejaVuSans-110"/>
      <use x="440.917969" xlink:href="#DejaVuSans-101"/>
     </g>
    </g>
    <g id="line2d_37">
     <path d="M 1091.653438 39.915547 
L 1111.653438 39.915547 
" style="fill:none;stroke:#2792cb;stroke-linecap:square;stroke-width:2;"/>
    </g>
    <g id="line2d_38">
     <g>
      <use style="fill:#2792cb;stroke:#2792cb;" x="1101.653438" xlink:href="#m462d860439" y="39.915547"/>
     </g>
    </g>
    <g id="text_23">
     <!-- Erkrankte -->
     <defs>
      <path d="M 9.8125 72.90625 
L 55.90625 72.90625 
L 55.90625 64.59375 
L 19.671875 64.59375 
L 19.671875 43.015625 
L 54.390625 43.015625 
L 54.390625 34.71875 
L 19.671875 34.71875 
L 19.671875 8.296875 
L 56.78125 8.296875 
L 56.78125 0 
L 9.8125 0 
z
" id="DejaVuSans-69"/>
      <path d="M 41.109375 46.296875 
Q 39.59375 47.171875 37.8125 47.578125 
Q 36.03125 48 33.890625 48 
Q 26.265625 48 22.1875 43.046875 
Q 18.109375 38.09375 18.109375 28.8125 
L 18.109375 0 
L 9.078125 0 
L 9.078125 54.6875 
L 18.109375 54.6875 
L 18.109375 46.1875 
Q 20.953125 51.171875 25.484375 53.578125 
Q 30.03125 56 36.53125 56 
Q 37.453125 56 38.578125 55.875 
Q 39.703125 55.765625 41.0625 55.515625 
z
" id="DejaVuSans-114"/>
      <path d="M 9.078125 75.984375 
L 18.109375 75.984375 
L 18.109375 31.109375 
L 44.921875 54.6875 
L 56.390625 54.6875 
L 27.390625 29.109375 
L 57.625 0 
L 45.90625 0 
L 18.109375 26.703125 
L 18.109375 0 
L 9.078125 0 
z
" id="DejaVuSans-107"/>
      <path d="M 18.3125 70.21875 
L 18.3125 54.6875 
L 36.8125 54.6875 
L 36.8125 47.703125 
L 18.3125 47.703125 
L 18.3125 18.015625 
Q 18.3125 11.328125 20.140625 9.421875 
Q 21.96875 7.515625 27.59375 7.515625 
L 36.8125 7.515625 
L 36.8125 0 
L 27.59375 0 
Q 17.1875 0 13.234375 3.875 
Q 9.28125 7.765625 9.28125 18.015625 
L 9.28125 47.703125 
L 2.6875 47.703125 
L 2.6875 54.6875 
L 9.28125 54.6875 
L 9.28125 70.21875 
z
" id="DejaVuSans-116"/>
     </defs>
     <g transform="translate(1119.653438 43.415547)scale(0.1 -0.1)">
      <use xlink:href="#DejaVuSans-69"/>
      <use x="63.183594" xlink:href="#DejaVuSans-114"/>
      <use x="104.296875" xlink:href="#DejaVuSans-107"/>
      <use x="162.207031" xlink:href="#DejaVuSans-114"/>
      <use x="203.320312" xlink:href="#DejaVuSans-97"/>
      <use x="264.599609" xlink:href="#DejaVuSans-110"/>
      <use x="327.978516" xlink:href="#DejaVuSans-107"/>
      <use x="385.888672" xlink:href="#DejaVuSans-116"/>
      <use x="425.097656" xlink:href="#DejaVuSans-101"/>
     </g>
    </g>
   </g>
  </g>
 </g>
 <defs>
  <clipPath id="p3a03406a9e">
   <rect height="489.6" width="1116" x="62.89875" y="12.138984"/>
  </clipPath>
 </defs>
</svg>
