<?xml version="1.0" encoding="utf-8" standalone="no"?>
<!DOCTYPE svg PUBLIC "-//W3C//DTD SVG 1.1//EN"
  "http://www.w3.org/Graphics/SVG/1.1/DTD/svg11.dtd">
<!-- Created with matplotlib (https://matplotlib.org/) -->
<svg height="553.993765pt" version="1.1" viewBox="0 0 1186.09875 553.993765" width="1186.09875pt" xmlns="http://www.w3.org/2000/svg" xmlns:xlink="http://www.w3.org/1999/xlink">
 <defs>
  <style type="text/css">
*{stroke-linecap:butt;stroke-linejoin:round;}
  </style>
 </defs>
 <g id="figure_1">
  <g id="patch_1">
   <path d="M 0 553.993765 
L 1186.09875 553.993765 
L 1186.09875 0 
L 0 0 
z
" style="fill:#ffffff;"/>
  </g>
  <g id="axes_1">
   <g id="patch_2">
    <path d="M 62.89875 501.738984 
L 1178.89875 501.738984 
L 1178.89875 12.138984 
L 62.89875 12.138984 
z
" style="fill:#ffffff;"/>
   </g>
   <g id="matplotlib.axis_1">
    <g id="xtick_1">
     <g id="line2d_1">
      <defs>
       <path d="M 0 0 
L 0 3.5 
" id="m16aee4b79e" style="stroke:#000000;stroke-width:0.8;"/>
      </defs>
      <g>
       <use style="stroke:#000000;stroke-width:0.8;" x="208.002344" xlink:href="#m16aee4b79e" y="501.738984"/>
      </g>
     </g>
     <g id="text_1">
      <!-- 2020-04 -->
      <defs>
       <path d="M 19.1875 8.296875 
L 53.609375 8.296875 
L 53.609375 0 
L 7.328125 0 
L 7.328125 8.296875 
Q 12.9375 14.109375 22.625 23.890625 
Q 32.328125 33.6875 34.8125 36.53125 
Q 39.546875 41.84375 41.421875 45.53125 
Q 43.3125 49.21875 43.3125 52.78125 
Q 43.3125 58.59375 39.234375 62.25 
Q 35.15625 65.921875 28.609375 65.921875 
Q 23.96875 65.921875 18.8125 64.3125 
Q 13.671875 62.703125 7.8125 59.421875 
L 7.8125 69.390625 
Q 13.765625 71.78125 18.9375 73 
Q 24.125 74.21875 28.421875 74.21875 
Q 39.75 74.21875 46.484375 68.546875 
Q 53.21875 62.890625 53.21875 53.421875 
Q 53.21875 48.921875 51.53125 44.890625 
Q 49.859375 40.875 45.40625 35.40625 
Q 44.1875 33.984375 37.640625 27.21875 
Q 31.109375 20.453125 19.1875 8.296875 
z
" id="DejaVuSans-50"/>
       <path d="M 31.78125 66.40625 
Q 24.171875 66.40625 20.328125 58.90625 
Q 16.5 51.421875 16.5 36.375 
Q 16.5 21.390625 20.328125 13.890625 
Q 24.171875 6.390625 31.78125 6.390625 
Q 39.453125 6.390625 43.28125 13.890625 
Q 47.125 21.390625 47.125 36.375 
Q 47.125 51.421875 43.28125 58.90625 
Q 39.453125 66.40625 31.78125 66.40625 
z
M 31.78125 74.21875 
Q 44.046875 74.21875 50.515625 64.515625 
Q 56.984375 54.828125 56.984375 36.375 
Q 56.984375 17.96875 50.515625 8.265625 
Q 44.046875 -1.421875 31.78125 -1.421875 
Q 19.53125 -1.421875 13.0625 8.265625 
Q 6.59375 17.96875 6.59375 36.375 
Q 6.59375 54.828125 13.0625 64.515625 
Q 19.53125 74.21875 31.78125 74.21875 
z
" id="DejaVuSans-48"/>
       <path d="M 4.890625 31.390625 
L 31.203125 31.390625 
L 31.203125 23.390625 
L 4.890625 23.390625 
z
" id="DejaVuSans-45"/>
       <path d="M 37.796875 64.3125 
L 12.890625 25.390625 
L 37.796875 25.390625 
z
M 35.203125 72.90625 
L 47.609375 72.90625 
L 47.609375 25.390625 
L 58.015625 25.390625 
L 58.015625 17.1875 
L 47.609375 17.1875 
L 47.609375 0 
L 37.796875 0 
L 37.796875 17.1875 
L 4.890625 17.1875 
L 4.890625 26.703125 
z
" id="DejaVuSans-52"/>
      </defs>
      <g transform="translate(159.610077 544.452384)rotate(-30)scale(0.13 -0.13)">
       <use xlink:href="#DejaVuSans-50"/>
       <use x="63.623047" xlink:href="#DejaVuSans-48"/>
       <use x="127.246094" xlink:href="#DejaVuSans-50"/>
       <use x="190.869141" xlink:href="#DejaVuSans-48"/>
       <use x="254.492188" xlink:href="#DejaVuSans-45"/>
       <use x="290.576172" xlink:href="#DejaVuSans-48"/>
       <use x="354.199219" xlink:href="#DejaVuSans-52"/>
      </g>
     </g>
    </g>
    <g id="xtick_2">
     <g id="line2d_2">
      <g>
       <use style="stroke:#000000;stroke-width:0.8;" x="349.566826" xlink:href="#m16aee4b79e" y="501.738984"/>
      </g>
     </g>
     <g id="text_2">
      <!-- 2020-05 -->
      <defs>
       <path d="M 10.796875 72.90625 
L 49.515625 72.90625 
L 49.515625 64.59375 
L 19.828125 64.59375 
L 19.828125 46.734375 
Q 21.96875 47.46875 24.109375 47.828125 
Q 26.265625 48.1875 28.421875 48.1875 
Q 40.625 48.1875 47.75 41.5 
Q 54.890625 34.8125 54.890625 23.390625 
Q 54.890625 11.625 47.5625 5.09375 
Q 40.234375 -1.421875 26.90625 -1.421875 
Q 22.3125 -1.421875 17.546875 -0.640625 
Q 12.796875 0.140625 7.71875 1.703125 
L 7.71875 11.625 
Q 12.109375 9.234375 16.796875 8.0625 
Q 21.484375 6.890625 26.703125 6.890625 
Q 35.15625 6.890625 40.078125 11.328125 
Q 45.015625 15.765625 45.015625 23.390625 
Q 45.015625 31 40.078125 35.4375 
Q 35.15625 39.890625 26.703125 39.890625 
Q 22.75 39.890625 18.8125 39.015625 
Q 14.890625 38.140625 10.796875 36.28125 
z
" id="DejaVuSans-53"/>
      </defs>
      <g transform="translate(301.174559 544.452384)rotate(-30)scale(0.13 -0.13)">
       <use xlink:href="#DejaVuSans-50"/>
       <use x="63.623047" xlink:href="#DejaVuSans-48"/>
       <use x="127.246094" xlink:href="#DejaVuSans-50"/>
       <use x="190.869141" xlink:href="#DejaVuSans-48"/>
       <use x="254.492188" xlink:href="#DejaVuSans-45"/>
       <use x="290.576172" xlink:href="#DejaVuSans-48"/>
       <use x="354.199219" xlink:href="#DejaVuSans-53"/>
      </g>
     </g>
    </g>
    <g id="xtick_3">
     <g id="line2d_3">
      <g>
       <use style="stroke:#000000;stroke-width:0.8;" x="495.850124" xlink:href="#m16aee4b79e" y="501.738984"/>
      </g>
     </g>
     <g id="text_3">
      <!-- 2020-06 -->
      <defs>
       <path d="M 33.015625 40.375 
Q 26.375 40.375 22.484375 35.828125 
Q 18.609375 31.296875 18.609375 23.390625 
Q 18.609375 15.53125 22.484375 10.953125 
Q 26.375 6.390625 33.015625 6.390625 
Q 39.65625 6.390625 43.53125 10.953125 
Q 47.40625 15.53125 47.40625 23.390625 
Q 47.40625 31.296875 43.53125 35.828125 
Q 39.65625 40.375 33.015625 40.375 
z
M 52.59375 71.296875 
L 52.59375 62.3125 
Q 48.875 64.0625 45.09375 64.984375 
Q 41.3125 65.921875 37.59375 65.921875 
Q 27.828125 65.921875 22.671875 59.328125 
Q 17.53125 52.734375 16.796875 39.40625 
Q 19.671875 43.65625 24.015625 45.921875 
Q 28.375 48.1875 33.59375 48.1875 
Q 44.578125 48.1875 50.953125 41.515625 
Q 57.328125 34.859375 57.328125 23.390625 
Q 57.328125 12.15625 50.6875 5.359375 
Q 44.046875 -1.421875 33.015625 -1.421875 
Q 20.359375 -1.421875 13.671875 8.265625 
Q 6.984375 17.96875 6.984375 36.375 
Q 6.984375 53.65625 15.1875 63.9375 
Q 23.390625 74.21875 37.203125 74.21875 
Q 40.921875 74.21875 44.703125 73.484375 
Q 48.484375 72.75 52.59375 71.296875 
z
" id="DejaVuSans-54"/>
      </defs>
      <g transform="translate(447.457857 544.452384)rotate(-30)scale(0.13 -0.13)">
       <use xlink:href="#DejaVuSans-50"/>
       <use x="63.623047" xlink:href="#DejaVuSans-48"/>
       <use x="127.246094" xlink:href="#DejaVuSans-50"/>
       <use x="190.869141" xlink:href="#DejaVuSans-48"/>
       <use x="254.492188" xlink:href="#DejaVuSans-45"/>
       <use x="290.576172" xlink:href="#DejaVuSans-48"/>
       <use x="354.199219" xlink:href="#DejaVuSans-54"/>
      </g>
     </g>
    </g>
    <g id="xtick_4">
     <g id="line2d_4">
      <g>
       <use style="stroke:#000000;stroke-width:0.8;" x="637.414606" xlink:href="#m16aee4b79e" y="501.738984"/>
      </g>
     </g>
     <g id="text_4">
      <!-- 2020-07 -->
      <defs>
       <path d="M 8.203125 72.90625 
L 55.078125 72.90625 
L 55.078125 68.703125 
L 28.609375 0 
L 18.3125 0 
L 43.21875 64.59375 
L 8.203125 64.59375 
z
" id="DejaVuSans-55"/>
      </defs>
      <g transform="translate(589.022339 544.452384)rotate(-30)scale(0.13 -0.13)">
       <use xlink:href="#DejaVuSans-50"/>
       <use x="63.623047" xlink:href="#DejaVuSans-48"/>
       <use x="127.246094" xlink:href="#DejaVuSans-50"/>
       <use x="190.869141" xlink:href="#DejaVuSans-48"/>
       <use x="254.492188" xlink:href="#DejaVuSans-45"/>
       <use x="290.576172" xlink:href="#DejaVuSans-48"/>
       <use x="354.199219" xlink:href="#DejaVuSans-55"/>
      </g>
     </g>
    </g>
    <g id="xtick_5">
     <g id="line2d_5">
      <g>
       <use style="stroke:#000000;stroke-width:0.8;" x="783.697904" xlink:href="#m16aee4b79e" y="501.738984"/>
      </g>
     </g>
     <g id="text_5">
      <!-- 2020-08 -->
      <defs>
       <path d="M 31.78125 34.625 
Q 24.75 34.625 20.71875 30.859375 
Q 16.703125 27.09375 16.703125 20.515625 
Q 16.703125 13.921875 20.71875 10.15625 
Q 24.75 6.390625 31.78125 6.390625 
Q 38.8125 6.390625 42.859375 10.171875 
Q 46.921875 13.96875 46.921875 20.515625 
Q 46.921875 27.09375 42.890625 30.859375 
Q 38.875 34.625 31.78125 34.625 
z
M 21.921875 38.8125 
Q 15.578125 40.375 12.03125 44.71875 
Q 8.5 49.078125 8.5 55.328125 
Q 8.5 64.0625 14.71875 69.140625 
Q 20.953125 74.21875 31.78125 74.21875 
Q 42.671875 74.21875 48.875 69.140625 
Q 55.078125 64.0625 55.078125 55.328125 
Q 55.078125 49.078125 51.53125 44.71875 
Q 48 40.375 41.703125 38.8125 
Q 48.828125 37.15625 52.796875 32.3125 
Q 56.78125 27.484375 56.78125 20.515625 
Q 56.78125 9.90625 50.3125 4.234375 
Q 43.84375 -1.421875 31.78125 -1.421875 
Q 19.734375 -1.421875 13.25 4.234375 
Q 6.78125 9.90625 6.78125 20.515625 
Q 6.78125 27.484375 10.78125 32.3125 
Q 14.796875 37.15625 21.921875 38.8125 
z
M 18.3125 54.390625 
Q 18.3125 48.734375 21.84375 45.5625 
Q 25.390625 42.390625 31.78125 42.390625 
Q 38.140625 42.390625 41.71875 45.5625 
Q 45.3125 48.734375 45.3125 54.390625 
Q 45.3125 60.0625 41.71875 63.234375 
Q 38.140625 66.40625 31.78125 66.40625 
Q 25.390625 66.40625 21.84375 63.234375 
Q 18.3125 60.0625 18.3125 54.390625 
z
" id="DejaVuSans-56"/>
      </defs>
      <g transform="translate(735.305637 544.452384)rotate(-30)scale(0.13 -0.13)">
       <use xlink:href="#DejaVuSans-50"/>
       <use x="63.623047" xlink:href="#DejaVuSans-48"/>
       <use x="127.246094" xlink:href="#DejaVuSans-50"/>
       <use x="190.869141" xlink:href="#DejaVuSans-48"/>
       <use x="254.492188" xlink:href="#DejaVuSans-45"/>
       <use x="290.576172" xlink:href="#DejaVuSans-48"/>
       <use x="354.199219" xlink:href="#DejaVuSans-56"/>
      </g>
     </g>
    </g>
    <g id="xtick_6">
     <g id="line2d_6">
      <g>
       <use style="stroke:#000000;stroke-width:0.8;" x="929.981202" xlink:href="#m16aee4b79e" y="501.738984"/>
      </g>
     </g>
     <g id="text_6">
      <!-- 2020-09 -->
      <defs>
       <path d="M 10.984375 1.515625 
L 10.984375 10.5 
Q 14.703125 8.734375 18.5 7.8125 
Q 22.3125 6.890625 25.984375 6.890625 
Q 35.75 6.890625 40.890625 13.453125 
Q 46.046875 20.015625 46.78125 33.40625 
Q 43.953125 29.203125 39.59375 26.953125 
Q 35.25 24.703125 29.984375 24.703125 
Q 19.046875 24.703125 12.671875 31.3125 
Q 6.296875 37.9375 6.296875 49.421875 
Q 6.296875 60.640625 12.9375 67.421875 
Q 19.578125 74.21875 30.609375 74.21875 
Q 43.265625 74.21875 49.921875 64.515625 
Q 56.59375 54.828125 56.59375 36.375 
Q 56.59375 19.140625 48.40625 8.859375 
Q 40.234375 -1.421875 26.421875 -1.421875 
Q 22.703125 -1.421875 18.890625 -0.6875 
Q 15.09375 0.046875 10.984375 1.515625 
z
M 30.609375 32.421875 
Q 37.25 32.421875 41.125 36.953125 
Q 45.015625 41.5 45.015625 49.421875 
Q 45.015625 57.28125 41.125 61.84375 
Q 37.25 66.40625 30.609375 66.40625 
Q 23.96875 66.40625 20.09375 61.84375 
Q 16.21875 57.28125 16.21875 49.421875 
Q 16.21875 41.5 20.09375 36.953125 
Q 23.96875 32.421875 30.609375 32.421875 
z
" id="DejaVuSans-57"/>
      </defs>
      <g transform="translate(881.588935 544.452384)rotate(-30)scale(0.13 -0.13)">
       <use xlink:href="#DejaVuSans-50"/>
       <use x="63.623047" xlink:href="#DejaVuSans-48"/>
       <use x="127.246094" xlink:href="#DejaVuSans-50"/>
       <use x="190.869141" xlink:href="#DejaVuSans-48"/>
       <use x="254.492188" xlink:href="#DejaVuSans-45"/>
       <use x="290.576172" xlink:href="#DejaVuSans-48"/>
       <use x="354.199219" xlink:href="#DejaVuSans-57"/>
      </g>
     </g>
    </g>
    <g id="xtick_7">
     <g id="line2d_7">
      <g>
       <use style="stroke:#000000;stroke-width:0.8;" x="1071.545684" xlink:href="#m16aee4b79e" y="501.738984"/>
      </g>
     </g>
     <g id="text_7">
      <!-- 2020-10 -->
      <defs>
       <path d="M 12.40625 8.296875 
L 28.515625 8.296875 
L 28.515625 63.921875 
L 10.984375 60.40625 
L 10.984375 69.390625 
L 28.421875 72.90625 
L 38.28125 72.90625 
L 38.28125 8.296875 
L 54.390625 8.296875 
L 54.390625 0 
L 12.40625 0 
z
" id="DejaVuSans-49"/>
      </defs>
      <g transform="translate(1023.153417 544.452384)rotate(-30)scale(0.13 -0.13)">
       <use xlink:href="#DejaVuSans-50"/>
       <use x="63.623047" xlink:href="#DejaVuSans-48"/>
       <use x="127.246094" xlink:href="#DejaVuSans-50"/>
       <use x="190.869141" xlink:href="#DejaVuSans-48"/>
       <use x="254.492188" xlink:href="#DejaVuSans-45"/>
       <use x="290.576172" xlink:href="#DejaVuSans-49"/>
       <use x="354.199219" xlink:href="#DejaVuSans-48"/>
      </g>
     </g>
    </g>
   </g>
   <g id="matplotlib.axis_2">
    <g id="ytick_1">
     <g id="line2d_8">
      <path clip-path="url(#p00229fd2cc)" d="M 62.89875 481.254283 
L 1178.89875 481.254283 
" style="fill:none;stroke:#b0b0b0;stroke-linecap:square;stroke-width:0.8;"/>
     </g>
     <g id="line2d_9">
      <defs>
       <path d="M 0 0 
L -3.5 0 
" id="m04a2e96c3d" style="stroke:#000000;stroke-width:0.8;"/>
      </defs>
      <g>
       <use style="stroke:#000000;stroke-width:0.8;" x="62.89875" xlink:href="#m04a2e96c3d" y="481.254283"/>
      </g>
     </g>
     <g id="text_8">
      <!-- 0 -->
      <g transform="translate(47.6275 486.193267)scale(0.13 -0.13)">
       <use xlink:href="#DejaVuSans-48"/>
      </g>
     </g>
    </g>
    <g id="ytick_2">
     <g id="line2d_10">
      <path clip-path="url(#p00229fd2cc)" d="M 62.89875 449.97993 
L 1178.89875 449.97993 
" style="fill:none;stroke:#b0b0b0;stroke-linecap:square;stroke-width:0.8;"/>
     </g>
     <g id="line2d_11">
      <g>
       <use style="stroke:#000000;stroke-width:0.8;" x="62.89875" xlink:href="#m04a2e96c3d" y="449.97993"/>
      </g>
     </g>
     <g id="text_9">
      <!-- 100 -->
      <g transform="translate(31.085 454.918914)scale(0.13 -0.13)">
       <use xlink:href="#DejaVuSans-49"/>
       <use x="63.623047" xlink:href="#DejaVuSans-48"/>
       <use x="127.246094" xlink:href="#DejaVuSans-48"/>
      </g>
     </g>
    </g>
    <g id="ytick_3">
     <g id="line2d_12">
      <path clip-path="url(#p00229fd2cc)" d="M 62.89875 418.705577 
L 1178.89875 418.705577 
" style="fill:none;stroke:#b0b0b0;stroke-linecap:square;stroke-width:0.8;"/>
     </g>
     <g id="line2d_13">
      <g>
       <use style="stroke:#000000;stroke-width:0.8;" x="62.89875" xlink:href="#m04a2e96c3d" y="418.705577"/>
      </g>
     </g>
     <g id="text_10">
      <!-- 200 -->
      <g transform="translate(31.085 423.644561)scale(0.13 -0.13)">
       <use xlink:href="#DejaVuSans-50"/>
       <use x="63.623047" xlink:href="#DejaVuSans-48"/>
       <use x="127.246094" xlink:href="#DejaVuSans-48"/>
      </g>
     </g>
    </g>
    <g id="ytick_4">
     <g id="line2d_14">
      <path clip-path="url(#p00229fd2cc)" d="M 62.89875 387.431223 
L 1178.89875 387.431223 
" style="fill:none;stroke:#b0b0b0;stroke-linecap:square;stroke-width:0.8;"/>
     </g>
     <g id="line2d_15">
      <g>
       <use style="stroke:#000000;stroke-width:0.8;" x="62.89875" xlink:href="#m04a2e96c3d" y="387.431223"/>
      </g>
     </g>
     <g id="text_11">
      <!-- 300 -->
      <defs>
       <path d="M 40.578125 39.3125 
Q 47.65625 37.796875 51.625 33 
Q 55.609375 28.21875 55.609375 21.1875 
Q 55.609375 10.40625 48.1875 4.484375 
Q 40.765625 -1.421875 27.09375 -1.421875 
Q 22.515625 -1.421875 17.65625 -0.515625 
Q 12.796875 0.390625 7.625 2.203125 
L 7.625 11.71875 
Q 11.71875 9.328125 16.59375 8.109375 
Q 21.484375 6.890625 26.8125 6.890625 
Q 36.078125 6.890625 40.9375 10.546875 
Q 45.796875 14.203125 45.796875 21.1875 
Q 45.796875 27.640625 41.28125 31.265625 
Q 36.765625 34.90625 28.71875 34.90625 
L 20.21875 34.90625 
L 20.21875 43.015625 
L 29.109375 43.015625 
Q 36.375 43.015625 40.234375 45.921875 
Q 44.09375 48.828125 44.09375 54.296875 
Q 44.09375 59.90625 40.109375 62.90625 
Q 36.140625 65.921875 28.71875 65.921875 
Q 24.65625 65.921875 20.015625 65.03125 
Q 15.375 64.15625 9.8125 62.3125 
L 9.8125 71.09375 
Q 15.4375 72.65625 20.34375 73.4375 
Q 25.25 74.21875 29.59375 74.21875 
Q 40.828125 74.21875 47.359375 69.109375 
Q 53.90625 64.015625 53.90625 55.328125 
Q 53.90625 49.265625 50.4375 45.09375 
Q 46.96875 40.921875 40.578125 39.3125 
z
" id="DejaVuSans-51"/>
      </defs>
      <g transform="translate(31.085 392.370208)scale(0.13 -0.13)">
       <use xlink:href="#DejaVuSans-51"/>
       <use x="63.623047" xlink:href="#DejaVuSans-48"/>
       <use x="127.246094" xlink:href="#DejaVuSans-48"/>
      </g>
     </g>
    </g>
    <g id="ytick_5">
     <g id="line2d_16">
      <path clip-path="url(#p00229fd2cc)" d="M 62.89875 356.15687 
L 1178.89875 356.15687 
" style="fill:none;stroke:#b0b0b0;stroke-linecap:square;stroke-width:0.8;"/>
     </g>
     <g id="line2d_17">
      <g>
       <use style="stroke:#000000;stroke-width:0.8;" x="62.89875" xlink:href="#m04a2e96c3d" y="356.15687"/>
      </g>
     </g>
     <g id="text_12">
      <!-- 400 -->
      <g transform="translate(31.085 361.095854)scale(0.13 -0.13)">
       <use xlink:href="#DejaVuSans-52"/>
       <use x="63.623047" xlink:href="#DejaVuSans-48"/>
       <use x="127.246094" xlink:href="#DejaVuSans-48"/>
      </g>
     </g>
    </g>
    <g id="ytick_6">
     <g id="line2d_18">
      <path clip-path="url(#p00229fd2cc)" d="M 62.89875 324.882517 
L 1178.89875 324.882517 
" style="fill:none;stroke:#b0b0b0;stroke-linecap:square;stroke-width:0.8;"/>
     </g>
     <g id="line2d_19">
      <g>
       <use style="stroke:#000000;stroke-width:0.8;" x="62.89875" xlink:href="#m04a2e96c3d" y="324.882517"/>
      </g>
     </g>
     <g id="text_13">
      <!-- 500 -->
      <g transform="translate(31.085 329.821501)scale(0.13 -0.13)">
       <use xlink:href="#DejaVuSans-53"/>
       <use x="63.623047" xlink:href="#DejaVuSans-48"/>
       <use x="127.246094" xlink:href="#DejaVuSans-48"/>
      </g>
     </g>
    </g>
    <g id="ytick_7">
     <g id="line2d_20">
      <path clip-path="url(#p00229fd2cc)" d="M 62.89875 293.608164 
L 1178.89875 293.608164 
" style="fill:none;stroke:#b0b0b0;stroke-linecap:square;stroke-width:0.8;"/>
     </g>
     <g id="line2d_21">
      <g>
       <use style="stroke:#000000;stroke-width:0.8;" x="62.89875" xlink:href="#m04a2e96c3d" y="293.608164"/>
      </g>
     </g>
     <g id="text_14">
      <!-- 600 -->
      <g transform="translate(31.085 298.547148)scale(0.13 -0.13)">
       <use xlink:href="#DejaVuSans-54"/>
       <use x="63.623047" xlink:href="#DejaVuSans-48"/>
       <use x="127.246094" xlink:href="#DejaVuSans-48"/>
      </g>
     </g>
    </g>
    <g id="ytick_8">
     <g id="line2d_22">
      <path clip-path="url(#p00229fd2cc)" d="M 62.89875 262.33381 
L 1178.89875 262.33381 
" style="fill:none;stroke:#b0b0b0;stroke-linecap:square;stroke-width:0.8;"/>
     </g>
     <g id="line2d_23">
      <g>
       <use style="stroke:#000000;stroke-width:0.8;" x="62.89875" xlink:href="#m04a2e96c3d" y="262.33381"/>
      </g>
     </g>
     <g id="text_15">
      <!-- 700 -->
      <g transform="translate(31.085 267.272795)scale(0.13 -0.13)">
       <use xlink:href="#DejaVuSans-55"/>
       <use x="63.623047" xlink:href="#DejaVuSans-48"/>
       <use x="127.246094" xlink:href="#DejaVuSans-48"/>
      </g>
     </g>
    </g>
    <g id="ytick_9">
     <g id="line2d_24">
      <path clip-path="url(#p00229fd2cc)" d="M 62.89875 231.059457 
L 1178.89875 231.059457 
" style="fill:none;stroke:#b0b0b0;stroke-linecap:square;stroke-width:0.8;"/>
     </g>
     <g id="line2d_25">
      <g>
       <use style="stroke:#000000;stroke-width:0.8;" x="62.89875" xlink:href="#m04a2e96c3d" y="231.059457"/>
      </g>
     </g>
     <g id="text_16">
      <!-- 800 -->
      <g transform="translate(31.085 235.998441)scale(0.13 -0.13)">
       <use xlink:href="#DejaVuSans-56"/>
       <use x="63.623047" xlink:href="#DejaVuSans-48"/>
       <use x="127.246094" xlink:href="#DejaVuSans-48"/>
      </g>
     </g>
    </g>
    <g id="ytick_10">
     <g id="line2d_26">
      <path clip-path="url(#p00229fd2cc)" d="M 62.89875 199.785104 
L 1178.89875 199.785104 
" style="fill:none;stroke:#b0b0b0;stroke-linecap:square;stroke-width:0.8;"/>
     </g>
     <g id="line2d_27">
      <g>
       <use style="stroke:#000000;stroke-width:0.8;" x="62.89875" xlink:href="#m04a2e96c3d" y="199.785104"/>
      </g>
     </g>
     <g id="text_17">
      <!-- 900 -->
      <g transform="translate(31.085 204.724088)scale(0.13 -0.13)">
       <use xlink:href="#DejaVuSans-57"/>
       <use x="63.623047" xlink:href="#DejaVuSans-48"/>
       <use x="127.246094" xlink:href="#DejaVuSans-48"/>
      </g>
     </g>
    </g>
    <g id="ytick_11">
     <g id="line2d_28">
      <path clip-path="url(#p00229fd2cc)" d="M 62.89875 168.510751 
L 1178.89875 168.510751 
" style="fill:none;stroke:#b0b0b0;stroke-linecap:square;stroke-width:0.8;"/>
     </g>
     <g id="line2d_29">
      <g>
       <use style="stroke:#000000;stroke-width:0.8;" x="62.89875" xlink:href="#m04a2e96c3d" y="168.510751"/>
      </g>
     </g>
     <g id="text_18">
      <!-- 1000 -->
      <g transform="translate(22.81375 173.449735)scale(0.13 -0.13)">
       <use xlink:href="#DejaVuSans-49"/>
       <use x="63.623047" xlink:href="#DejaVuSans-48"/>
       <use x="127.246094" xlink:href="#DejaVuSans-48"/>
       <use x="190.869141" xlink:href="#DejaVuSans-48"/>
      </g>
     </g>
    </g>
    <g id="ytick_12">
     <g id="line2d_30">
      <path clip-path="url(#p00229fd2cc)" d="M 62.89875 137.236397 
L 1178.89875 137.236397 
" style="fill:none;stroke:#b0b0b0;stroke-linecap:square;stroke-width:0.8;"/>
     </g>
     <g id="line2d_31">
      <g>
       <use style="stroke:#000000;stroke-width:0.8;" x="62.89875" xlink:href="#m04a2e96c3d" y="137.236397"/>
      </g>
     </g>
     <g id="text_19">
      <!-- 1100 -->
      <g transform="translate(22.81375 142.175382)scale(0.13 -0.13)">
       <use xlink:href="#DejaVuSans-49"/>
       <use x="63.623047" xlink:href="#DejaVuSans-49"/>
       <use x="127.246094" xlink:href="#DejaVuSans-48"/>
       <use x="190.869141" xlink:href="#DejaVuSans-48"/>
      </g>
     </g>
    </g>
    <g id="ytick_13">
     <g id="line2d_32">
      <path clip-path="url(#p00229fd2cc)" d="M 62.89875 105.962044 
L 1178.89875 105.962044 
" style="fill:none;stroke:#b0b0b0;stroke-linecap:square;stroke-width:0.8;"/>
     </g>
     <g id="line2d_33">
      <g>
       <use style="stroke:#000000;stroke-width:0.8;" x="62.89875" xlink:href="#m04a2e96c3d" y="105.962044"/>
      </g>
     </g>
     <g id="text_20">
      <!-- 1200 -->
      <g transform="translate(22.81375 110.901028)scale(0.13 -0.13)">
       <use xlink:href="#DejaVuSans-49"/>
       <use x="63.623047" xlink:href="#DejaVuSans-50"/>
       <use x="127.246094" xlink:href="#DejaVuSans-48"/>
       <use x="190.869141" xlink:href="#DejaVuSans-48"/>
      </g>
     </g>
    </g>
    <g id="ytick_14">
     <g id="line2d_34">
      <path clip-path="url(#p00229fd2cc)" d="M 62.89875 74.687691 
L 1178.89875 74.687691 
" style="fill:none;stroke:#b0b0b0;stroke-linecap:square;stroke-width:0.8;"/>
     </g>
     <g id="line2d_35">
      <g>
       <use style="stroke:#000000;stroke-width:0.8;" x="62.89875" xlink:href="#m04a2e96c3d" y="74.687691"/>
      </g>
     </g>
     <g id="text_21">
      <!-- 1300 -->
      <g transform="translate(22.81375 79.626675)scale(0.13 -0.13)">
       <use xlink:href="#DejaVuSans-49"/>
       <use x="63.623047" xlink:href="#DejaVuSans-51"/>
       <use x="127.246094" xlink:href="#DejaVuSans-48"/>
       <use x="190.869141" xlink:href="#DejaVuSans-48"/>
      </g>
     </g>
    </g>
    <g id="ytick_15">
     <g id="line2d_36">
      <path clip-path="url(#p00229fd2cc)" d="M 62.89875 43.413338 
L 1178.89875 43.413338 
" style="fill:none;stroke:#b0b0b0;stroke-linecap:square;stroke-width:0.8;"/>
     </g>
     <g id="line2d_37">
      <g>
       <use style="stroke:#000000;stroke-width:0.8;" x="62.89875" xlink:href="#m04a2e96c3d" y="43.413338"/>
      </g>
     </g>
     <g id="text_22">
      <!-- 1400 -->
      <g transform="translate(22.81375 48.352322)scale(0.13 -0.13)">
       <use xlink:href="#DejaVuSans-49"/>
       <use x="63.623047" xlink:href="#DejaVuSans-52"/>
       <use x="127.246094" xlink:href="#DejaVuSans-48"/>
       <use x="190.869141" xlink:href="#DejaVuSans-48"/>
      </g>
     </g>
    </g>
    <g id="ytick_16">
     <g id="line2d_38">
      <path clip-path="url(#p00229fd2cc)" d="M 62.89875 12.138984 
L 1178.89875 12.138984 
" style="fill:none;stroke:#b0b0b0;stroke-linecap:square;stroke-width:0.8;"/>
     </g>
     <g id="line2d_39">
      <g>
       <use style="stroke:#000000;stroke-width:0.8;" x="62.89875" xlink:href="#m04a2e96c3d" y="12.138984"/>
      </g>
     </g>
     <g id="text_23">
      <!-- 1500 -->
      <g transform="translate(22.81375 17.077969)scale(0.13 -0.13)">
       <use xlink:href="#DejaVuSans-49"/>
       <use x="63.623047" xlink:href="#DejaVuSans-53"/>
       <use x="127.246094" xlink:href="#DejaVuSans-48"/>
       <use x="190.869141" xlink:href="#DejaVuSans-48"/>
      </g>
     </g>
    </g>
    <g id="text_24">
     <!-- Anzahl von Fällen -->
     <defs>
      <path d="M 34.1875 63.1875 
L 20.796875 26.90625 
L 47.609375 26.90625 
z
M 28.609375 72.90625 
L 39.796875 72.90625 
L 67.578125 0 
L 57.328125 0 
L 50.6875 18.703125 
L 17.828125 18.703125 
L 11.1875 0 
L 0.78125 0 
z
" id="DejaVuSans-65"/>
      <path d="M 54.890625 33.015625 
L 54.890625 0 
L 45.90625 0 
L 45.90625 32.71875 
Q 45.90625 40.484375 42.875 44.328125 
Q 39.84375 48.1875 33.796875 48.1875 
Q 26.515625 48.1875 22.3125 43.546875 
Q 18.109375 38.921875 18.109375 30.90625 
L 18.109375 0 
L 9.078125 0 
L 9.078125 54.6875 
L 18.109375 54.6875 
L 18.109375 46.1875 
Q 21.34375 51.125 25.703125 53.5625 
Q 30.078125 56 35.796875 56 
Q 45.21875 56 50.046875 50.171875 
Q 54.890625 44.34375 54.890625 33.015625 
z
" id="DejaVuSans-110"/>
      <path d="M 5.515625 54.6875 
L 48.1875 54.6875 
L 48.1875 46.484375 
L 14.40625 7.171875 
L 48.1875 7.171875 
L 48.1875 0 
L 4.296875 0 
L 4.296875 8.203125 
L 38.09375 47.515625 
L 5.515625 47.515625 
z
" id="DejaVuSans-122"/>
      <path d="M 34.28125 27.484375 
Q 23.390625 27.484375 19.1875 25 
Q 14.984375 22.515625 14.984375 16.5 
Q 14.984375 11.71875 18.140625 8.90625 
Q 21.296875 6.109375 26.703125 6.109375 
Q 34.1875 6.109375 38.703125 11.40625 
Q 43.21875 16.703125 43.21875 25.484375 
L 43.21875 27.484375 
z
M 52.203125 31.203125 
L 52.203125 0 
L 43.21875 0 
L 43.21875 8.296875 
Q 40.140625 3.328125 35.546875 0.953125 
Q 30.953125 -1.421875 24.3125 -1.421875 
Q 15.921875 -1.421875 10.953125 3.296875 
Q 6 8.015625 6 15.921875 
Q 6 25.140625 12.171875 29.828125 
Q 18.359375 34.515625 30.609375 34.515625 
L 43.21875 34.515625 
L 43.21875 35.40625 
Q 43.21875 41.609375 39.140625 45 
Q 35.0625 48.390625 27.6875 48.390625 
Q 23 48.390625 18.546875 47.265625 
Q 14.109375 46.140625 10.015625 43.890625 
L 10.015625 52.203125 
Q 14.9375 54.109375 19.578125 55.046875 
Q 24.21875 56 28.609375 56 
Q 40.484375 56 46.34375 49.84375 
Q 52.203125 43.703125 52.203125 31.203125 
z
" id="DejaVuSans-97"/>
      <path d="M 54.890625 33.015625 
L 54.890625 0 
L 45.90625 0 
L 45.90625 32.71875 
Q 45.90625 40.484375 42.875 44.328125 
Q 39.84375 48.1875 33.796875 48.1875 
Q 26.515625 48.1875 22.3125 43.546875 
Q 18.109375 38.921875 18.109375 30.90625 
L 18.109375 0 
L 9.078125 0 
L 9.078125 75.984375 
L 18.109375 75.984375 
L 18.109375 46.1875 
Q 21.34375 51.125 25.703125 53.5625 
Q 30.078125 56 35.796875 56 
Q 45.21875 56 50.046875 50.171875 
Q 54.890625 44.34375 54.890625 33.015625 
z
" id="DejaVuSans-104"/>
      <path d="M 9.421875 75.984375 
L 18.40625 75.984375 
L 18.40625 0 
L 9.421875 0 
z
" id="DejaVuSans-108"/>
      <path id="DejaVuSans-32"/>
      <path d="M 2.984375 54.6875 
L 12.5 54.6875 
L 29.59375 8.796875 
L 46.6875 54.6875 
L 56.203125 54.6875 
L 35.6875 0 
L 23.484375 0 
z
" id="DejaVuSans-118"/>
      <path d="M 30.609375 48.390625 
Q 23.390625 48.390625 19.1875 42.75 
Q 14.984375 37.109375 14.984375 27.296875 
Q 14.984375 17.484375 19.15625 11.84375 
Q 23.34375 6.203125 30.609375 6.203125 
Q 37.796875 6.203125 41.984375 11.859375 
Q 46.1875 17.53125 46.1875 27.296875 
Q 46.1875 37.015625 41.984375 42.703125 
Q 37.796875 48.390625 30.609375 48.390625 
z
M 30.609375 56 
Q 42.328125 56 49.015625 48.375 
Q 55.71875 40.765625 55.71875 27.296875 
Q 55.71875 13.875 49.015625 6.21875 
Q 42.328125 -1.421875 30.609375 -1.421875 
Q 18.84375 -1.421875 12.171875 6.21875 
Q 5.515625 13.875 5.515625 27.296875 
Q 5.515625 40.765625 12.171875 48.375 
Q 18.84375 56 30.609375 56 
z
" id="DejaVuSans-111"/>
      <path d="M 9.8125 72.90625 
L 51.703125 72.90625 
L 51.703125 64.59375 
L 19.671875 64.59375 
L 19.671875 43.109375 
L 48.578125 43.109375 
L 48.578125 34.8125 
L 19.671875 34.8125 
L 19.671875 0 
L 9.8125 0 
z
" id="DejaVuSans-70"/>
      <path d="M 34.28125 27.484375 
Q 23.390625 27.484375 19.1875 25 
Q 14.984375 22.515625 14.984375 16.5 
Q 14.984375 11.71875 18.140625 8.90625 
Q 21.296875 6.109375 26.703125 6.109375 
Q 34.1875 6.109375 38.703125 11.40625 
Q 43.21875 16.703125 43.21875 25.484375 
L 43.21875 27.484375 
z
M 52.203125 31.203125 
L 52.203125 0 
L 43.21875 0 
L 43.21875 8.296875 
Q 40.140625 3.328125 35.546875 0.953125 
Q 30.953125 -1.421875 24.3125 -1.421875 
Q 15.921875 -1.421875 10.953125 3.296875 
Q 6 8.015625 6 15.921875 
Q 6 25.140625 12.171875 29.828125 
Q 18.359375 34.515625 30.609375 34.515625 
L 43.21875 34.515625 
L 43.21875 35.40625 
Q 43.21875 41.609375 39.140625 45 
Q 35.0625 48.390625 27.6875 48.390625 
Q 23 48.390625 18.546875 47.265625 
Q 14.109375 46.140625 10.015625 43.890625 
L 10.015625 52.203125 
Q 14.9375 54.109375 19.578125 55.046875 
Q 24.21875 56 28.609375 56 
Q 40.484375 56 46.34375 49.84375 
Q 52.203125 43.703125 52.203125 31.203125 
z
M 33.59375 75.78125 
L 43.5 75.78125 
L 43.5 65.921875 
L 33.59375 65.921875 
z
M 14.5 75.78125 
L 24.40625 75.78125 
L 24.40625 65.921875 
L 14.5 65.921875 
z
" id="DejaVuSans-228"/>
      <path d="M 56.203125 29.59375 
L 56.203125 25.203125 
L 14.890625 25.203125 
Q 15.484375 15.921875 20.484375 11.0625 
Q 25.484375 6.203125 34.421875 6.203125 
Q 39.59375 6.203125 44.453125 7.46875 
Q 49.3125 8.734375 54.109375 11.28125 
L 54.109375 2.78125 
Q 49.265625 0.734375 44.1875 -0.34375 
Q 39.109375 -1.421875 33.890625 -1.421875 
Q 20.796875 -1.421875 13.15625 6.1875 
Q 5.515625 13.8125 5.515625 26.8125 
Q 5.515625 40.234375 12.765625 48.109375 
Q 20.015625 56 32.328125 56 
Q 43.359375 56 49.78125 48.890625 
Q 56.203125 41.796875 56.203125 29.59375 
z
M 47.21875 32.234375 
Q 47.125 39.59375 43.09375 43.984375 
Q 39.0625 48.390625 32.421875 48.390625 
Q 24.90625 48.390625 20.390625 44.140625 
Q 15.875 39.890625 15.1875 32.171875 
z
" id="DejaVuSans-101"/>
     </defs>
     <g transform="translate(16.318125 309.388359)rotate(-90)scale(0.12 -0.12)">
      <use xlink:href="#DejaVuSans-65"/>
      <use x="68.408203" xlink:href="#DejaVuSans-110"/>
      <use x="131.787109" xlink:href="#DejaVuSans-122"/>
      <use x="184.277344" xlink:href="#DejaVuSans-97"/>
      <use x="245.556641" xlink:href="#DejaVuSans-104"/>
      <use x="308.935547" xlink:href="#DejaVuSans-108"/>
      <use x="336.71875" xlink:href="#DejaVuSans-32"/>
      <use x="368.505859" xlink:href="#DejaVuSans-118"/>
      <use x="427.685547" xlink:href="#DejaVuSans-111"/>
      <use x="488.867188" xlink:href="#DejaVuSans-110"/>
      <use x="552.246094" xlink:href="#DejaVuSans-32"/>
      <use x="584.033203" xlink:href="#DejaVuSans-70"/>
      <use x="632.427734" xlink:href="#DejaVuSans-228"/>
      <use x="693.707031" xlink:href="#DejaVuSans-108"/>
      <use x="721.490234" xlink:href="#DejaVuSans-108"/>
      <use x="749.273438" xlink:href="#DejaVuSans-101"/>
      <use x="810.796875" xlink:href="#DejaVuSans-110"/>
     </g>
    </g>
   </g>
   <g id="line2d_40">
    <path clip-path="url(#p00229fd2cc)" d="M 113.626023 481.254283 
L 141.938919 481.254283 
L 151.376551 480.316052 
L 156.095367 477.814104 
L 160.814183 477.814104 
L 165.532999 477.501361 
L 170.251816 476.56313 
L 174.970632 471.871977 
L 179.689448 468.431798 
L 184.408264 466.555337 
L 189.12708 463.115158 
L 193.845896 457.798518 
L 198.564712 456.2348 
L 203.283528 449.041699 
L 208.002344 434.342753 
L 212.72116 425.273191 
L 217.439976 419.331064 
L 222.158792 413.076193 
L 226.877608 404.319374 
L 231.596424 398.68999 
L 236.31524 393.37335 
L 241.034057 384.929275 
L 245.752873 380.238122 
L 250.471689 371.794047 
L 259.909321 364.600945 
L 269.346953 358.971562 
L 274.065769 344.898103 
L 278.784585 344.898103 
L 283.503401 324.882517 
L 288.222217 316.125698 
L 297.659849 297.361086 
L 302.378665 292.044446 
L 307.097482 291.418959 
L 311.816298 277.032756 
L 316.535114 277.658243 
L 321.25393 272.02886 
L 330.691562 267.65045 
L 340.129194 260.144606 
L 344.84801 255.140709 
L 354.285642 249.824069 
L 363.723274 248.260351 
L 368.44209 246.071147 
L 373.160906 242.943711 
L 377.879723 238.252558 
L 382.598539 233.874149 
L 387.317355 233.561405 
L 396.754987 231.372201 
L 401.473803 228.244765 
L 406.192619 227.306535 
L 410.911435 226.055561 
L 420.349067 222.928125 
L 434.505515 221.989895 
L 439.224331 219.175203 
L 448.661964 214.48405 
L 453.38078 212.920332 
L 462.818412 202.599796 
L 467.537228 199.785104 
L 476.97486 190.090054 
L 481.693676 190.090054 
L 500.56894 187.588106 
L 505.287756 187.588106 
L 510.006572 186.649875 
L 514.725388 177.267569 
L 519.444205 177.267569 
L 528.881837 171.012699 
L 533.600653 160.692162 
L 538.319469 155.688266 
L 547.757101 153.186317 
L 552.475917 152.248087 
L 561.913549 150.997113 
L 571.351181 148.807908 
L 580.788813 147.869677 
L 585.507629 147.869677 
L 594.945262 147.24419 
L 604.382894 147.24419 
L 609.10171 146.931447 
L 632.69579 146.931447 
L 637.414606 145.993216 
L 642.133422 145.993216 
L 646.852238 145.680473 
L 694.040399 145.680473 
L 703.478031 143.804012 
L 731.790928 143.804012 
L 736.509744 143.491268 
L 741.22856 142.553037 
L 745.947376 142.240294 
L 764.82264 141.92755 
L 769.541456 141.92755 
L 774.260272 140.051089 
L 778.979088 140.051089 
L 826.167249 132.545244 
L 830.886065 132.232501 
L 840.323697 130.35604 
L 845.042513 130.35604 
L 859.198961 127.854091 
L 863.917777 127.854091 
L 868.636594 126.915861 
L 873.35541 125.352143 
L 878.074226 125.0394 
L 892.230674 122.537451 
L 896.94949 121.286477 
L 901.668306 121.286477 
L 906.387122 119.72276 
L 911.105938 119.097272 
L 925.262386 119.097272 
L 929.981202 111.904171 
L 934.700018 110.653197 
L 939.418835 108.151249 
L 944.137651 105.336557 
L 967.731731 104.398326 
L 972.450547 101.896378 
L 977.169363 100.645404 
L 991.325811 99.081686 
L 996.044627 99.081686 
L 1000.763443 97.205225 
L 1005.48226 95.641508 
L 1010.201076 95.328764 
L 1024.357524 95.01602 
L 1029.07634 94.390533 
L 1038.513972 92.514072 
L 1043.232788 90.012124 
L 1057.389236 88.448406 
L 1062.108052 88.135663 
L 1066.826868 87.197432 
L 1076.264501 84.695484 
L 1095.139765 83.131766 
L 1099.858581 80.004331 
L 1104.577397 77.189639 
L 1109.296213 75.625921 
L 1123.452661 71.872999 
L 1128.171477 71.560256 
L 1128.171477 71.560256 
" style="fill:none;stroke:#dbcd00;stroke-linecap:square;stroke-width:2;"/>
    <defs>
     <path d="M 0 1.5 
C 0.397805 1.5 0.77937 1.341951 1.06066 1.06066 
C 1.341951 0.77937 1.5 0.397805 1.5 0 
C 1.5 -0.397805 1.341951 -0.77937 1.06066 -1.06066 
C 0.77937 -1.341951 0.397805 -1.5 0 -1.5 
C -0.397805 -1.5 -0.77937 -1.341951 -1.06066 -1.06066 
C -1.341951 -0.77937 -1.5 -0.397805 -1.5 0 
C -1.5 0.397805 -1.341951 0.77937 -1.06066 1.06066 
C -0.77937 1.341951 -0.397805 1.5 0 1.5 
z
" id="mb85521574d" style="stroke:#dbcd00;"/>
    </defs>
    <g clip-path="url(#p00229fd2cc)">
     <use style="fill:#dbcd00;stroke:#dbcd00;" x="113.626023" xlink:href="#mb85521574d" y="481.254283"/>
     <use style="fill:#dbcd00;stroke:#dbcd00;" x="118.344839" xlink:href="#mb85521574d" y="481.254283"/>
     <use style="fill:#dbcd00;stroke:#dbcd00;" x="123.063655" xlink:href="#mb85521574d" y="481.254283"/>
     <use style="fill:#dbcd00;stroke:#dbcd00;" x="127.782471" xlink:href="#mb85521574d" y="481.254283"/>
     <use style="fill:#dbcd00;stroke:#dbcd00;" x="132.501287" xlink:href="#mb85521574d" y="481.254283"/>
     <use style="fill:#dbcd00;stroke:#dbcd00;" x="137.220103" xlink:href="#mb85521574d" y="481.254283"/>
     <use style="fill:#dbcd00;stroke:#dbcd00;" x="141.938919" xlink:href="#mb85521574d" y="481.254283"/>
     <use style="fill:#dbcd00;stroke:#dbcd00;" x="151.376551" xlink:href="#mb85521574d" y="480.316052"/>
     <use style="fill:#dbcd00;stroke:#dbcd00;" x="156.095367" xlink:href="#mb85521574d" y="477.814104"/>
     <use style="fill:#dbcd00;stroke:#dbcd00;" x="160.814183" xlink:href="#mb85521574d" y="477.814104"/>
     <use style="fill:#dbcd00;stroke:#dbcd00;" x="165.532999" xlink:href="#mb85521574d" y="477.501361"/>
     <use style="fill:#dbcd00;stroke:#dbcd00;" x="170.251816" xlink:href="#mb85521574d" y="476.56313"/>
     <use style="fill:#dbcd00;stroke:#dbcd00;" x="174.970632" xlink:href="#mb85521574d" y="471.871977"/>
     <use style="fill:#dbcd00;stroke:#dbcd00;" x="179.689448" xlink:href="#mb85521574d" y="468.431798"/>
     <use style="fill:#dbcd00;stroke:#dbcd00;" x="184.408264" xlink:href="#mb85521574d" y="466.555337"/>
     <use style="fill:#dbcd00;stroke:#dbcd00;" x="189.12708" xlink:href="#mb85521574d" y="463.115158"/>
     <use style="fill:#dbcd00;stroke:#dbcd00;" x="193.845896" xlink:href="#mb85521574d" y="457.798518"/>
     <use style="fill:#dbcd00;stroke:#dbcd00;" x="198.564712" xlink:href="#mb85521574d" y="456.2348"/>
     <use style="fill:#dbcd00;stroke:#dbcd00;" x="203.283528" xlink:href="#mb85521574d" y="449.041699"/>
     <use style="fill:#dbcd00;stroke:#dbcd00;" x="208.002344" xlink:href="#mb85521574d" y="434.342753"/>
     <use style="fill:#dbcd00;stroke:#dbcd00;" x="212.72116" xlink:href="#mb85521574d" y="425.273191"/>
     <use style="fill:#dbcd00;stroke:#dbcd00;" x="217.439976" xlink:href="#mb85521574d" y="419.331064"/>
     <use style="fill:#dbcd00;stroke:#dbcd00;" x="222.158792" xlink:href="#mb85521574d" y="413.076193"/>
     <use style="fill:#dbcd00;stroke:#dbcd00;" x="226.877608" xlink:href="#mb85521574d" y="404.319374"/>
     <use style="fill:#dbcd00;stroke:#dbcd00;" x="231.596424" xlink:href="#mb85521574d" y="398.68999"/>
     <use style="fill:#dbcd00;stroke:#dbcd00;" x="236.31524" xlink:href="#mb85521574d" y="393.37335"/>
     <use style="fill:#dbcd00;stroke:#dbcd00;" x="241.034057" xlink:href="#mb85521574d" y="384.929275"/>
     <use style="fill:#dbcd00;stroke:#dbcd00;" x="245.752873" xlink:href="#mb85521574d" y="380.238122"/>
     <use style="fill:#dbcd00;stroke:#dbcd00;" x="250.471689" xlink:href="#mb85521574d" y="371.794047"/>
     <use style="fill:#dbcd00;stroke:#dbcd00;" x="259.909321" xlink:href="#mb85521574d" y="364.600945"/>
     <use style="fill:#dbcd00;stroke:#dbcd00;" x="269.346953" xlink:href="#mb85521574d" y="358.971562"/>
     <use style="fill:#dbcd00;stroke:#dbcd00;" x="274.065769" xlink:href="#mb85521574d" y="344.898103"/>
     <use style="fill:#dbcd00;stroke:#dbcd00;" x="278.784585" xlink:href="#mb85521574d" y="344.898103"/>
     <use style="fill:#dbcd00;stroke:#dbcd00;" x="283.503401" xlink:href="#mb85521574d" y="324.882517"/>
     <use style="fill:#dbcd00;stroke:#dbcd00;" x="288.222217" xlink:href="#mb85521574d" y="316.125698"/>
     <use style="fill:#dbcd00;stroke:#dbcd00;" x="297.659849" xlink:href="#mb85521574d" y="297.361086"/>
     <use style="fill:#dbcd00;stroke:#dbcd00;" x="302.378665" xlink:href="#mb85521574d" y="292.044446"/>
     <use style="fill:#dbcd00;stroke:#dbcd00;" x="307.097482" xlink:href="#mb85521574d" y="291.418959"/>
     <use style="fill:#dbcd00;stroke:#dbcd00;" x="311.816298" xlink:href="#mb85521574d" y="277.032756"/>
     <use style="fill:#dbcd00;stroke:#dbcd00;" x="316.535114" xlink:href="#mb85521574d" y="277.658243"/>
     <use style="fill:#dbcd00;stroke:#dbcd00;" x="321.25393" xlink:href="#mb85521574d" y="272.02886"/>
     <use style="fill:#dbcd00;stroke:#dbcd00;" x="330.691562" xlink:href="#mb85521574d" y="267.65045"/>
     <use style="fill:#dbcd00;stroke:#dbcd00;" x="335.410378" xlink:href="#mb85521574d" y="263.897528"/>
     <use style="fill:#dbcd00;stroke:#dbcd00;" x="340.129194" xlink:href="#mb85521574d" y="260.144606"/>
     <use style="fill:#dbcd00;stroke:#dbcd00;" x="344.84801" xlink:href="#mb85521574d" y="255.140709"/>
     <use style="fill:#dbcd00;stroke:#dbcd00;" x="354.285642" xlink:href="#mb85521574d" y="249.824069"/>
     <use style="fill:#dbcd00;stroke:#dbcd00;" x="363.723274" xlink:href="#mb85521574d" y="248.260351"/>
     <use style="fill:#dbcd00;stroke:#dbcd00;" x="368.44209" xlink:href="#mb85521574d" y="246.071147"/>
     <use style="fill:#dbcd00;stroke:#dbcd00;" x="373.160906" xlink:href="#mb85521574d" y="242.943711"/>
     <use style="fill:#dbcd00;stroke:#dbcd00;" x="377.879723" xlink:href="#mb85521574d" y="238.252558"/>
     <use style="fill:#dbcd00;stroke:#dbcd00;" x="382.598539" xlink:href="#mb85521574d" y="233.874149"/>
     <use style="fill:#dbcd00;stroke:#dbcd00;" x="387.317355" xlink:href="#mb85521574d" y="233.561405"/>
     <use style="fill:#dbcd00;stroke:#dbcd00;" x="396.754987" xlink:href="#mb85521574d" y="231.372201"/>
     <use style="fill:#dbcd00;stroke:#dbcd00;" x="401.473803" xlink:href="#mb85521574d" y="228.244765"/>
     <use style="fill:#dbcd00;stroke:#dbcd00;" x="406.192619" xlink:href="#mb85521574d" y="227.306535"/>
     <use style="fill:#dbcd00;stroke:#dbcd00;" x="410.911435" xlink:href="#mb85521574d" y="226.055561"/>
     <use style="fill:#dbcd00;stroke:#dbcd00;" x="415.630251" xlink:href="#mb85521574d" y="224.491843"/>
     <use style="fill:#dbcd00;stroke:#dbcd00;" x="420.349067" xlink:href="#mb85521574d" y="222.928125"/>
     <use style="fill:#dbcd00;stroke:#dbcd00;" x="429.786699" xlink:href="#mb85521574d" y="222.302638"/>
     <use style="fill:#dbcd00;stroke:#dbcd00;" x="434.505515" xlink:href="#mb85521574d" y="221.989895"/>
     <use style="fill:#dbcd00;stroke:#dbcd00;" x="439.224331" xlink:href="#mb85521574d" y="219.175203"/>
     <use style="fill:#dbcd00;stroke:#dbcd00;" x="448.661964" xlink:href="#mb85521574d" y="214.48405"/>
     <use style="fill:#dbcd00;stroke:#dbcd00;" x="453.38078" xlink:href="#mb85521574d" y="212.920332"/>
     <use style="fill:#dbcd00;stroke:#dbcd00;" x="462.818412" xlink:href="#mb85521574d" y="202.599796"/>
     <use style="fill:#dbcd00;stroke:#dbcd00;" x="467.537228" xlink:href="#mb85521574d" y="199.785104"/>
     <use style="fill:#dbcd00;stroke:#dbcd00;" x="476.97486" xlink:href="#mb85521574d" y="190.090054"/>
     <use style="fill:#dbcd00;stroke:#dbcd00;" x="481.693676" xlink:href="#mb85521574d" y="190.090054"/>
     <use style="fill:#dbcd00;stroke:#dbcd00;" x="500.56894" xlink:href="#mb85521574d" y="187.588106"/>
     <use style="fill:#dbcd00;stroke:#dbcd00;" x="505.287756" xlink:href="#mb85521574d" y="187.588106"/>
     <use style="fill:#dbcd00;stroke:#dbcd00;" x="510.006572" xlink:href="#mb85521574d" y="186.649875"/>
     <use style="fill:#dbcd00;stroke:#dbcd00;" x="514.725388" xlink:href="#mb85521574d" y="177.267569"/>
     <use style="fill:#dbcd00;stroke:#dbcd00;" x="519.444205" xlink:href="#mb85521574d" y="177.267569"/>
     <use style="fill:#dbcd00;stroke:#dbcd00;" x="528.881837" xlink:href="#mb85521574d" y="171.012699"/>
     <use style="fill:#dbcd00;stroke:#dbcd00;" x="533.600653" xlink:href="#mb85521574d" y="160.692162"/>
     <use style="fill:#dbcd00;stroke:#dbcd00;" x="538.319469" xlink:href="#mb85521574d" y="155.688266"/>
     <use style="fill:#dbcd00;stroke:#dbcd00;" x="547.757101" xlink:href="#mb85521574d" y="153.186317"/>
     <use style="fill:#dbcd00;stroke:#dbcd00;" x="552.475917" xlink:href="#mb85521574d" y="152.248087"/>
     <use style="fill:#dbcd00;stroke:#dbcd00;" x="561.913549" xlink:href="#mb85521574d" y="150.997113"/>
     <use style="fill:#dbcd00;stroke:#dbcd00;" x="571.351181" xlink:href="#mb85521574d" y="148.807908"/>
     <use style="fill:#dbcd00;stroke:#dbcd00;" x="580.788813" xlink:href="#mb85521574d" y="147.869677"/>
     <use style="fill:#dbcd00;stroke:#dbcd00;" x="585.507629" xlink:href="#mb85521574d" y="147.869677"/>
     <use style="fill:#dbcd00;stroke:#dbcd00;" x="594.945262" xlink:href="#mb85521574d" y="147.24419"/>
     <use style="fill:#dbcd00;stroke:#dbcd00;" x="599.664078" xlink:href="#mb85521574d" y="147.24419"/>
     <use style="fill:#dbcd00;stroke:#dbcd00;" x="604.382894" xlink:href="#mb85521574d" y="147.24419"/>
     <use style="fill:#dbcd00;stroke:#dbcd00;" x="609.10171" xlink:href="#mb85521574d" y="146.931447"/>
     <use style="fill:#dbcd00;stroke:#dbcd00;" x="618.539342" xlink:href="#mb85521574d" y="146.931447"/>
     <use style="fill:#dbcd00;stroke:#dbcd00;" x="627.976974" xlink:href="#mb85521574d" y="146.931447"/>
     <use style="fill:#dbcd00;stroke:#dbcd00;" x="632.69579" xlink:href="#mb85521574d" y="146.931447"/>
     <use style="fill:#dbcd00;stroke:#dbcd00;" x="637.414606" xlink:href="#mb85521574d" y="145.993216"/>
     <use style="fill:#dbcd00;stroke:#dbcd00;" x="642.133422" xlink:href="#mb85521574d" y="145.993216"/>
     <use style="fill:#dbcd00;stroke:#dbcd00;" x="646.852238" xlink:href="#mb85521574d" y="145.680473"/>
     <use style="fill:#dbcd00;stroke:#dbcd00;" x="651.571054" xlink:href="#mb85521574d" y="145.680473"/>
     <use style="fill:#dbcd00;stroke:#dbcd00;" x="661.008687" xlink:href="#mb85521574d" y="145.680473"/>
     <use style="fill:#dbcd00;stroke:#dbcd00;" x="665.727503" xlink:href="#mb85521574d" y="145.680473"/>
     <use style="fill:#dbcd00;stroke:#dbcd00;" x="670.446319" xlink:href="#mb85521574d" y="145.680473"/>
     <use style="fill:#dbcd00;stroke:#dbcd00;" x="675.165135" xlink:href="#mb85521574d" y="145.680473"/>
     <use style="fill:#dbcd00;stroke:#dbcd00;" x="679.883951" xlink:href="#mb85521574d" y="145.680473"/>
     <use style="fill:#dbcd00;stroke:#dbcd00;" x="694.040399" xlink:href="#mb85521574d" y="145.680473"/>
     <use style="fill:#dbcd00;stroke:#dbcd00;" x="698.759215" xlink:href="#mb85521574d" y="144.742242"/>
     <use style="fill:#dbcd00;stroke:#dbcd00;" x="703.478031" xlink:href="#mb85521574d" y="143.804012"/>
     <use style="fill:#dbcd00;stroke:#dbcd00;" x="708.196847" xlink:href="#mb85521574d" y="143.804012"/>
     <use style="fill:#dbcd00;stroke:#dbcd00;" x="712.915663" xlink:href="#mb85521574d" y="143.804012"/>
     <use style="fill:#dbcd00;stroke:#dbcd00;" x="727.072112" xlink:href="#mb85521574d" y="143.804012"/>
     <use style="fill:#dbcd00;stroke:#dbcd00;" x="731.790928" xlink:href="#mb85521574d" y="143.804012"/>
     <use style="fill:#dbcd00;stroke:#dbcd00;" x="736.509744" xlink:href="#mb85521574d" y="143.491268"/>
     <use style="fill:#dbcd00;stroke:#dbcd00;" x="741.22856" xlink:href="#mb85521574d" y="142.553037"/>
     <use style="fill:#dbcd00;stroke:#dbcd00;" x="745.947376" xlink:href="#mb85521574d" y="142.240294"/>
     <use style="fill:#dbcd00;stroke:#dbcd00;" x="760.103824" xlink:href="#mb85521574d" y="141.92755"/>
     <use style="fill:#dbcd00;stroke:#dbcd00;" x="764.82264" xlink:href="#mb85521574d" y="141.92755"/>
     <use style="fill:#dbcd00;stroke:#dbcd00;" x="769.541456" xlink:href="#mb85521574d" y="141.92755"/>
     <use style="fill:#dbcd00;stroke:#dbcd00;" x="774.260272" xlink:href="#mb85521574d" y="140.051089"/>
     <use style="fill:#dbcd00;stroke:#dbcd00;" x="778.979088" xlink:href="#mb85521574d" y="140.051089"/>
     <use style="fill:#dbcd00;stroke:#dbcd00;" x="826.167249" xlink:href="#mb85521574d" y="132.545244"/>
     <use style="fill:#dbcd00;stroke:#dbcd00;" x="830.886065" xlink:href="#mb85521574d" y="132.232501"/>
     <use style="fill:#dbcd00;stroke:#dbcd00;" x="840.323697" xlink:href="#mb85521574d" y="130.35604"/>
     <use style="fill:#dbcd00;stroke:#dbcd00;" x="845.042513" xlink:href="#mb85521574d" y="130.35604"/>
     <use style="fill:#dbcd00;stroke:#dbcd00;" x="859.198961" xlink:href="#mb85521574d" y="127.854091"/>
     <use style="fill:#dbcd00;stroke:#dbcd00;" x="863.917777" xlink:href="#mb85521574d" y="127.854091"/>
     <use style="fill:#dbcd00;stroke:#dbcd00;" x="868.636594" xlink:href="#mb85521574d" y="126.915861"/>
     <use style="fill:#dbcd00;stroke:#dbcd00;" x="873.35541" xlink:href="#mb85521574d" y="125.352143"/>
     <use style="fill:#dbcd00;stroke:#dbcd00;" x="878.074226" xlink:href="#mb85521574d" y="125.0394"/>
     <use style="fill:#dbcd00;stroke:#dbcd00;" x="892.230674" xlink:href="#mb85521574d" y="122.537451"/>
     <use style="fill:#dbcd00;stroke:#dbcd00;" x="896.94949" xlink:href="#mb85521574d" y="121.286477"/>
     <use style="fill:#dbcd00;stroke:#dbcd00;" x="901.668306" xlink:href="#mb85521574d" y="121.286477"/>
     <use style="fill:#dbcd00;stroke:#dbcd00;" x="906.387122" xlink:href="#mb85521574d" y="119.72276"/>
     <use style="fill:#dbcd00;stroke:#dbcd00;" x="911.105938" xlink:href="#mb85521574d" y="119.097272"/>
     <use style="fill:#dbcd00;stroke:#dbcd00;" x="925.262386" xlink:href="#mb85521574d" y="119.097272"/>
     <use style="fill:#dbcd00;stroke:#dbcd00;" x="929.981202" xlink:href="#mb85521574d" y="111.904171"/>
     <use style="fill:#dbcd00;stroke:#dbcd00;" x="934.700018" xlink:href="#mb85521574d" y="110.653197"/>
     <use style="fill:#dbcd00;stroke:#dbcd00;" x="939.418835" xlink:href="#mb85521574d" y="108.151249"/>
     <use style="fill:#dbcd00;stroke:#dbcd00;" x="944.137651" xlink:href="#mb85521574d" y="105.336557"/>
     <use style="fill:#dbcd00;stroke:#dbcd00;" x="958.294099" xlink:href="#mb85521574d" y="104.71107"/>
     <use style="fill:#dbcd00;stroke:#dbcd00;" x="963.012915" xlink:href="#mb85521574d" y="104.398326"/>
     <use style="fill:#dbcd00;stroke:#dbcd00;" x="967.731731" xlink:href="#mb85521574d" y="104.398326"/>
     <use style="fill:#dbcd00;stroke:#dbcd00;" x="972.450547" xlink:href="#mb85521574d" y="101.896378"/>
     <use style="fill:#dbcd00;stroke:#dbcd00;" x="977.169363" xlink:href="#mb85521574d" y="100.645404"/>
     <use style="fill:#dbcd00;stroke:#dbcd00;" x="991.325811" xlink:href="#mb85521574d" y="99.081686"/>
     <use style="fill:#dbcd00;stroke:#dbcd00;" x="996.044627" xlink:href="#mb85521574d" y="99.081686"/>
     <use style="fill:#dbcd00;stroke:#dbcd00;" x="1000.763443" xlink:href="#mb85521574d" y="97.205225"/>
     <use style="fill:#dbcd00;stroke:#dbcd00;" x="1005.48226" xlink:href="#mb85521574d" y="95.641508"/>
     <use style="fill:#dbcd00;stroke:#dbcd00;" x="1010.201076" xlink:href="#mb85521574d" y="95.328764"/>
     <use style="fill:#dbcd00;stroke:#dbcd00;" x="1024.357524" xlink:href="#mb85521574d" y="95.01602"/>
     <use style="fill:#dbcd00;stroke:#dbcd00;" x="1029.07634" xlink:href="#mb85521574d" y="94.390533"/>
     <use style="fill:#dbcd00;stroke:#dbcd00;" x="1033.795156" xlink:href="#mb85521574d" y="93.452303"/>
     <use style="fill:#dbcd00;stroke:#dbcd00;" x="1038.513972" xlink:href="#mb85521574d" y="92.514072"/>
     <use style="fill:#dbcd00;stroke:#dbcd00;" x="1043.232788" xlink:href="#mb85521574d" y="90.012124"/>
     <use style="fill:#dbcd00;stroke:#dbcd00;" x="1057.389236" xlink:href="#mb85521574d" y="88.448406"/>
     <use style="fill:#dbcd00;stroke:#dbcd00;" x="1062.108052" xlink:href="#mb85521574d" y="88.135663"/>
     <use style="fill:#dbcd00;stroke:#dbcd00;" x="1066.826868" xlink:href="#mb85521574d" y="87.197432"/>
     <use style="fill:#dbcd00;stroke:#dbcd00;" x="1071.545684" xlink:href="#mb85521574d" y="85.946458"/>
     <use style="fill:#dbcd00;stroke:#dbcd00;" x="1076.264501" xlink:href="#mb85521574d" y="84.695484"/>
     <use style="fill:#dbcd00;stroke:#dbcd00;" x="1090.420949" xlink:href="#mb85521574d" y="83.44451"/>
     <use style="fill:#dbcd00;stroke:#dbcd00;" x="1095.139765" xlink:href="#mb85521574d" y="83.131766"/>
     <use style="fill:#dbcd00;stroke:#dbcd00;" x="1099.858581" xlink:href="#mb85521574d" y="80.004331"/>
     <use style="fill:#dbcd00;stroke:#dbcd00;" x="1104.577397" xlink:href="#mb85521574d" y="77.189639"/>
     <use style="fill:#dbcd00;stroke:#dbcd00;" x="1109.296213" xlink:href="#mb85521574d" y="75.625921"/>
     <use style="fill:#dbcd00;stroke:#dbcd00;" x="1123.452661" xlink:href="#mb85521574d" y="71.872999"/>
     <use style="fill:#dbcd00;stroke:#dbcd00;" x="1128.171477" xlink:href="#mb85521574d" y="71.560256"/>
    </g>
   </g>
   <g id="line2d_41">
    <path clip-path="url(#p00229fd2cc)" d="M 113.626023 476.875874 
L 118.344839 472.810208 
L 123.063655 467.180824 
L 127.782471 455.609313 
L 132.501287 451.543647 
L 137.220103 442.786829 
L 141.938919 429.964344 
L 151.376551 403.381143 
L 156.095367 399.002734 
L 160.814183 396.500786 
L 165.532999 392.747863 
L 170.251816 390.245915 
L 174.970632 385.867506 
L 179.689448 379.925378 
L 184.408264 372.419534 
L 189.12708 368.041124 
L 193.845896 369.292098 
L 198.564712 367.728381 
L 203.283528 365.539176 
L 208.002344 366.477407 
L 212.72116 362.724484 
L 217.439976 355.531383 
L 222.158792 349.901999 
L 226.877608 354.280409 
L 231.596424 355.531383 
L 236.31524 355.531383 
L 241.034057 357.095101 
L 245.752873 352.716691 
L 250.471689 357.407844 
L 259.909321 363.662715 
L 269.346953 363.662715 
L 274.065769 376.797943 
L 278.784585 373.357764 
L 283.503401 388.682197 
L 288.222217 394.937068 
L 297.659849 412.137962 
L 302.378665 417.141859 
L 307.097482 414.952654 
L 311.816298 427.462395 
L 316.535114 424.33496 
L 321.25393 428.400626 
L 330.691562 431.528061 
L 340.129194 438.408419 
L 344.84801 443.412316 
L 354.285642 446.852494 
L 363.723274 447.165238 
L 368.44209 448.728956 
L 373.160906 451.230904 
L 377.879723 452.481878 
L 382.598539 455.609313 
L 387.317355 452.794622 
L 396.754987 449.97993 
L 401.473803 451.856391 
L 406.192619 442.786829 
L 410.911435 440.597624 
L 415.630251 441.535854 
L 420.349067 442.161341 
L 429.786699 438.408419 
L 434.505515 438.721163 
L 439.224331 441.535854 
L 448.661964 440.597624 
L 453.38078 436.219214 
L 462.818412 445.914264 
L 467.537228 448.103469 
L 476.97486 444.037803 
L 481.693676 442.786829 
L 500.56894 444.037803 
L 510.006572 444.037803 
L 514.725388 451.856391 
L 519.444205 451.856391 
L 528.881837 457.798518 
L 533.600653 467.493568 
L 538.319469 472.497464 
L 547.757101 474.999412 
L 552.475917 475.937643 
L 561.913549 476.875874 
L 571.351181 479.065078 
L 585.507629 479.065078 
L 594.945262 479.690565 
L 604.382894 479.690565 
L 609.10171 480.003309 
L 618.539342 479.377822 
L 632.69579 479.377822 
L 637.414606 479.690565 
L 642.133422 478.752335 
L 646.852238 479.065078 
L 651.571054 479.065078 
L 661.008687 478.752335 
L 665.727503 478.439591 
L 675.165135 478.439591 
L 679.883951 478.126848 
L 694.040399 477.814104 
L 698.759215 478.126848 
L 703.478031 479.065078 
L 712.915663 478.439591 
L 727.072112 478.439591 
L 731.790928 474.999412 
L 736.509744 475.312156 
L 741.22856 474.686669 
L 745.947376 474.999412 
L 760.103824 473.748438 
L 764.82264 472.810208 
L 769.541456 472.810208 
L 774.260272 473.122951 
L 778.979088 471.24649 
L 826.167249 472.184721 
L 830.886065 470.933746 
L 840.323697 469.057285 
L 845.042513 467.493568 
L 859.198961 467.493568 
L 863.917777 462.802415 
L 868.636594 462.176928 
L 878.074226 460.300466 
L 892.230674 461.864184 
L 896.94949 462.176928 
L 901.668306 462.176928 
L 906.387122 463.427902 
L 911.105938 464.053389 
L 925.262386 464.053389 
L 929.981202 469.370029 
L 934.700018 469.370029 
L 939.418835 469.995516 
L 944.137651 472.184721 
L 958.294099 471.871977 
L 963.012915 470.933746 
L 967.731731 470.933746 
L 972.450547 473.122951 
L 977.169363 473.748438 
L 991.325811 473.748438 
L 996.044627 469.682772 
L 1000.763443 470.933746 
L 1005.48226 470.933746 
L 1010.201076 470.308259 
L 1024.357524 470.621003 
L 1029.07634 468.431798 
L 1043.232788 468.431798 
L 1057.389236 467.180824 
L 1062.108052 462.176928 
L 1066.826868 462.176928 
L 1071.545684 459.674979 
L 1076.264501 458.424005 
L 1090.420949 459.674979 
L 1095.139765 441.848598 
L 1099.858581 444.037803 
L 1104.577397 441.848598 
L 1109.296213 438.721163 
L 1123.452661 439.972137 
L 1128.171477 427.462395 
L 1128.171477 427.462395 
" style="fill:none;stroke:#2792cb;stroke-linecap:square;stroke-width:2;"/>
    <defs>
     <path d="M 0 1.5 
C 0.397805 1.5 0.77937 1.341951 1.06066 1.06066 
C 1.341951 0.77937 1.5 0.397805 1.5 0 
C 1.5 -0.397805 1.341951 -0.77937 1.06066 -1.06066 
C 0.77937 -1.341951 0.397805 -1.5 0 -1.5 
C -0.397805 -1.5 -0.77937 -1.341951 -1.06066 -1.06066 
C -1.341951 -0.77937 -1.5 -0.397805 -1.5 0 
C -1.5 0.397805 -1.341951 0.77937 -1.06066 1.06066 
C -0.77937 1.341951 -0.397805 1.5 0 1.5 
z
" id="mf3ecc90dfb" style="stroke:#2792cb;"/>
    </defs>
    <g clip-path="url(#p00229fd2cc)">
     <use style="fill:#2792cb;stroke:#2792cb;" x="113.626023" xlink:href="#mf3ecc90dfb" y="476.875874"/>
     <use style="fill:#2792cb;stroke:#2792cb;" x="118.344839" xlink:href="#mf3ecc90dfb" y="472.810208"/>
     <use style="fill:#2792cb;stroke:#2792cb;" x="123.063655" xlink:href="#mf3ecc90dfb" y="467.180824"/>
     <use style="fill:#2792cb;stroke:#2792cb;" x="127.782471" xlink:href="#mf3ecc90dfb" y="455.609313"/>
     <use style="fill:#2792cb;stroke:#2792cb;" x="132.501287" xlink:href="#mf3ecc90dfb" y="451.543647"/>
     <use style="fill:#2792cb;stroke:#2792cb;" x="137.220103" xlink:href="#mf3ecc90dfb" y="442.786829"/>
     <use style="fill:#2792cb;stroke:#2792cb;" x="141.938919" xlink:href="#mf3ecc90dfb" y="429.964344"/>
     <use style="fill:#2792cb;stroke:#2792cb;" x="151.376551" xlink:href="#mf3ecc90dfb" y="403.381143"/>
     <use style="fill:#2792cb;stroke:#2792cb;" x="156.095367" xlink:href="#mf3ecc90dfb" y="399.002734"/>
     <use style="fill:#2792cb;stroke:#2792cb;" x="160.814183" xlink:href="#mf3ecc90dfb" y="396.500786"/>
     <use style="fill:#2792cb;stroke:#2792cb;" x="165.532999" xlink:href="#mf3ecc90dfb" y="392.747863"/>
     <use style="fill:#2792cb;stroke:#2792cb;" x="170.251816" xlink:href="#mf3ecc90dfb" y="390.245915"/>
     <use style="fill:#2792cb;stroke:#2792cb;" x="174.970632" xlink:href="#mf3ecc90dfb" y="385.867506"/>
     <use style="fill:#2792cb;stroke:#2792cb;" x="179.689448" xlink:href="#mf3ecc90dfb" y="379.925378"/>
     <use style="fill:#2792cb;stroke:#2792cb;" x="184.408264" xlink:href="#mf3ecc90dfb" y="372.419534"/>
     <use style="fill:#2792cb;stroke:#2792cb;" x="189.12708" xlink:href="#mf3ecc90dfb" y="368.041124"/>
     <use style="fill:#2792cb;stroke:#2792cb;" x="193.845896" xlink:href="#mf3ecc90dfb" y="369.292098"/>
     <use style="fill:#2792cb;stroke:#2792cb;" x="198.564712" xlink:href="#mf3ecc90dfb" y="367.728381"/>
     <use style="fill:#2792cb;stroke:#2792cb;" x="203.283528" xlink:href="#mf3ecc90dfb" y="365.539176"/>
     <use style="fill:#2792cb;stroke:#2792cb;" x="208.002344" xlink:href="#mf3ecc90dfb" y="366.477407"/>
     <use style="fill:#2792cb;stroke:#2792cb;" x="212.72116" xlink:href="#mf3ecc90dfb" y="362.724484"/>
     <use style="fill:#2792cb;stroke:#2792cb;" x="217.439976" xlink:href="#mf3ecc90dfb" y="355.531383"/>
     <use style="fill:#2792cb;stroke:#2792cb;" x="222.158792" xlink:href="#mf3ecc90dfb" y="349.901999"/>
     <use style="fill:#2792cb;stroke:#2792cb;" x="226.877608" xlink:href="#mf3ecc90dfb" y="354.280409"/>
     <use style="fill:#2792cb;stroke:#2792cb;" x="231.596424" xlink:href="#mf3ecc90dfb" y="355.531383"/>
     <use style="fill:#2792cb;stroke:#2792cb;" x="236.31524" xlink:href="#mf3ecc90dfb" y="355.531383"/>
     <use style="fill:#2792cb;stroke:#2792cb;" x="241.034057" xlink:href="#mf3ecc90dfb" y="357.095101"/>
     <use style="fill:#2792cb;stroke:#2792cb;" x="245.752873" xlink:href="#mf3ecc90dfb" y="352.716691"/>
     <use style="fill:#2792cb;stroke:#2792cb;" x="250.471689" xlink:href="#mf3ecc90dfb" y="357.407844"/>
     <use style="fill:#2792cb;stroke:#2792cb;" x="259.909321" xlink:href="#mf3ecc90dfb" y="363.662715"/>
     <use style="fill:#2792cb;stroke:#2792cb;" x="269.346953" xlink:href="#mf3ecc90dfb" y="363.662715"/>
     <use style="fill:#2792cb;stroke:#2792cb;" x="274.065769" xlink:href="#mf3ecc90dfb" y="376.797943"/>
     <use style="fill:#2792cb;stroke:#2792cb;" x="278.784585" xlink:href="#mf3ecc90dfb" y="373.357764"/>
     <use style="fill:#2792cb;stroke:#2792cb;" x="283.503401" xlink:href="#mf3ecc90dfb" y="388.682197"/>
     <use style="fill:#2792cb;stroke:#2792cb;" x="288.222217" xlink:href="#mf3ecc90dfb" y="394.937068"/>
     <use style="fill:#2792cb;stroke:#2792cb;" x="297.659849" xlink:href="#mf3ecc90dfb" y="412.137962"/>
     <use style="fill:#2792cb;stroke:#2792cb;" x="302.378665" xlink:href="#mf3ecc90dfb" y="417.141859"/>
     <use style="fill:#2792cb;stroke:#2792cb;" x="307.097482" xlink:href="#mf3ecc90dfb" y="414.952654"/>
     <use style="fill:#2792cb;stroke:#2792cb;" x="311.816298" xlink:href="#mf3ecc90dfb" y="427.462395"/>
     <use style="fill:#2792cb;stroke:#2792cb;" x="316.535114" xlink:href="#mf3ecc90dfb" y="424.33496"/>
     <use style="fill:#2792cb;stroke:#2792cb;" x="321.25393" xlink:href="#mf3ecc90dfb" y="428.400626"/>
     <use style="fill:#2792cb;stroke:#2792cb;" x="330.691562" xlink:href="#mf3ecc90dfb" y="431.528061"/>
     <use style="fill:#2792cb;stroke:#2792cb;" x="335.410378" xlink:href="#mf3ecc90dfb" y="434.96824"/>
     <use style="fill:#2792cb;stroke:#2792cb;" x="340.129194" xlink:href="#mf3ecc90dfb" y="438.408419"/>
     <use style="fill:#2792cb;stroke:#2792cb;" x="344.84801" xlink:href="#mf3ecc90dfb" y="443.412316"/>
     <use style="fill:#2792cb;stroke:#2792cb;" x="354.285642" xlink:href="#mf3ecc90dfb" y="446.852494"/>
     <use style="fill:#2792cb;stroke:#2792cb;" x="363.723274" xlink:href="#mf3ecc90dfb" y="447.165238"/>
     <use style="fill:#2792cb;stroke:#2792cb;" x="368.44209" xlink:href="#mf3ecc90dfb" y="448.728956"/>
     <use style="fill:#2792cb;stroke:#2792cb;" x="373.160906" xlink:href="#mf3ecc90dfb" y="451.230904"/>
     <use style="fill:#2792cb;stroke:#2792cb;" x="377.879723" xlink:href="#mf3ecc90dfb" y="452.481878"/>
     <use style="fill:#2792cb;stroke:#2792cb;" x="382.598539" xlink:href="#mf3ecc90dfb" y="455.609313"/>
     <use style="fill:#2792cb;stroke:#2792cb;" x="387.317355" xlink:href="#mf3ecc90dfb" y="452.794622"/>
     <use style="fill:#2792cb;stroke:#2792cb;" x="396.754987" xlink:href="#mf3ecc90dfb" y="449.97993"/>
     <use style="fill:#2792cb;stroke:#2792cb;" x="401.473803" xlink:href="#mf3ecc90dfb" y="451.856391"/>
     <use style="fill:#2792cb;stroke:#2792cb;" x="406.192619" xlink:href="#mf3ecc90dfb" y="442.786829"/>
     <use style="fill:#2792cb;stroke:#2792cb;" x="410.911435" xlink:href="#mf3ecc90dfb" y="440.597624"/>
     <use style="fill:#2792cb;stroke:#2792cb;" x="415.630251" xlink:href="#mf3ecc90dfb" y="441.535854"/>
     <use style="fill:#2792cb;stroke:#2792cb;" x="420.349067" xlink:href="#mf3ecc90dfb" y="442.161341"/>
     <use style="fill:#2792cb;stroke:#2792cb;" x="429.786699" xlink:href="#mf3ecc90dfb" y="438.408419"/>
     <use style="fill:#2792cb;stroke:#2792cb;" x="434.505515" xlink:href="#mf3ecc90dfb" y="438.721163"/>
     <use style="fill:#2792cb;stroke:#2792cb;" x="439.224331" xlink:href="#mf3ecc90dfb" y="441.535854"/>
     <use style="fill:#2792cb;stroke:#2792cb;" x="448.661964" xlink:href="#mf3ecc90dfb" y="440.597624"/>
     <use style="fill:#2792cb;stroke:#2792cb;" x="453.38078" xlink:href="#mf3ecc90dfb" y="436.219214"/>
     <use style="fill:#2792cb;stroke:#2792cb;" x="462.818412" xlink:href="#mf3ecc90dfb" y="445.914264"/>
     <use style="fill:#2792cb;stroke:#2792cb;" x="467.537228" xlink:href="#mf3ecc90dfb" y="448.103469"/>
     <use style="fill:#2792cb;stroke:#2792cb;" x="476.97486" xlink:href="#mf3ecc90dfb" y="444.037803"/>
     <use style="fill:#2792cb;stroke:#2792cb;" x="481.693676" xlink:href="#mf3ecc90dfb" y="442.786829"/>
     <use style="fill:#2792cb;stroke:#2792cb;" x="500.56894" xlink:href="#mf3ecc90dfb" y="444.037803"/>
     <use style="fill:#2792cb;stroke:#2792cb;" x="505.287756" xlink:href="#mf3ecc90dfb" y="444.037803"/>
     <use style="fill:#2792cb;stroke:#2792cb;" x="510.006572" xlink:href="#mf3ecc90dfb" y="444.037803"/>
     <use style="fill:#2792cb;stroke:#2792cb;" x="514.725388" xlink:href="#mf3ecc90dfb" y="451.856391"/>
     <use style="fill:#2792cb;stroke:#2792cb;" x="519.444205" xlink:href="#mf3ecc90dfb" y="451.856391"/>
     <use style="fill:#2792cb;stroke:#2792cb;" x="528.881837" xlink:href="#mf3ecc90dfb" y="457.798518"/>
     <use style="fill:#2792cb;stroke:#2792cb;" x="533.600653" xlink:href="#mf3ecc90dfb" y="467.493568"/>
     <use style="fill:#2792cb;stroke:#2792cb;" x="538.319469" xlink:href="#mf3ecc90dfb" y="472.497464"/>
     <use style="fill:#2792cb;stroke:#2792cb;" x="547.757101" xlink:href="#mf3ecc90dfb" y="474.999412"/>
     <use style="fill:#2792cb;stroke:#2792cb;" x="552.475917" xlink:href="#mf3ecc90dfb" y="475.937643"/>
     <use style="fill:#2792cb;stroke:#2792cb;" x="561.913549" xlink:href="#mf3ecc90dfb" y="476.875874"/>
     <use style="fill:#2792cb;stroke:#2792cb;" x="571.351181" xlink:href="#mf3ecc90dfb" y="479.065078"/>
     <use style="fill:#2792cb;stroke:#2792cb;" x="580.788813" xlink:href="#mf3ecc90dfb" y="479.065078"/>
     <use style="fill:#2792cb;stroke:#2792cb;" x="585.507629" xlink:href="#mf3ecc90dfb" y="479.065078"/>
     <use style="fill:#2792cb;stroke:#2792cb;" x="594.945262" xlink:href="#mf3ecc90dfb" y="479.690565"/>
     <use style="fill:#2792cb;stroke:#2792cb;" x="599.664078" xlink:href="#mf3ecc90dfb" y="479.690565"/>
     <use style="fill:#2792cb;stroke:#2792cb;" x="604.382894" xlink:href="#mf3ecc90dfb" y="479.690565"/>
     <use style="fill:#2792cb;stroke:#2792cb;" x="609.10171" xlink:href="#mf3ecc90dfb" y="480.003309"/>
     <use style="fill:#2792cb;stroke:#2792cb;" x="618.539342" xlink:href="#mf3ecc90dfb" y="479.377822"/>
     <use style="fill:#2792cb;stroke:#2792cb;" x="627.976974" xlink:href="#mf3ecc90dfb" y="479.377822"/>
     <use style="fill:#2792cb;stroke:#2792cb;" x="632.69579" xlink:href="#mf3ecc90dfb" y="479.377822"/>
     <use style="fill:#2792cb;stroke:#2792cb;" x="637.414606" xlink:href="#mf3ecc90dfb" y="479.690565"/>
     <use style="fill:#2792cb;stroke:#2792cb;" x="642.133422" xlink:href="#mf3ecc90dfb" y="478.752335"/>
     <use style="fill:#2792cb;stroke:#2792cb;" x="646.852238" xlink:href="#mf3ecc90dfb" y="479.065078"/>
     <use style="fill:#2792cb;stroke:#2792cb;" x="651.571054" xlink:href="#mf3ecc90dfb" y="479.065078"/>
     <use style="fill:#2792cb;stroke:#2792cb;" x="661.008687" xlink:href="#mf3ecc90dfb" y="478.752335"/>
     <use style="fill:#2792cb;stroke:#2792cb;" x="665.727503" xlink:href="#mf3ecc90dfb" y="478.439591"/>
     <use style="fill:#2792cb;stroke:#2792cb;" x="670.446319" xlink:href="#mf3ecc90dfb" y="478.439591"/>
     <use style="fill:#2792cb;stroke:#2792cb;" x="675.165135" xlink:href="#mf3ecc90dfb" y="478.439591"/>
     <use style="fill:#2792cb;stroke:#2792cb;" x="679.883951" xlink:href="#mf3ecc90dfb" y="478.126848"/>
     <use style="fill:#2792cb;stroke:#2792cb;" x="694.040399" xlink:href="#mf3ecc90dfb" y="477.814104"/>
     <use style="fill:#2792cb;stroke:#2792cb;" x="698.759215" xlink:href="#mf3ecc90dfb" y="478.126848"/>
     <use style="fill:#2792cb;stroke:#2792cb;" x="703.478031" xlink:href="#mf3ecc90dfb" y="479.065078"/>
     <use style="fill:#2792cb;stroke:#2792cb;" x="708.196847" xlink:href="#mf3ecc90dfb" y="478.752335"/>
     <use style="fill:#2792cb;stroke:#2792cb;" x="712.915663" xlink:href="#mf3ecc90dfb" y="478.439591"/>
     <use style="fill:#2792cb;stroke:#2792cb;" x="727.072112" xlink:href="#mf3ecc90dfb" y="478.439591"/>
     <use style="fill:#2792cb;stroke:#2792cb;" x="731.790928" xlink:href="#mf3ecc90dfb" y="474.999412"/>
     <use style="fill:#2792cb;stroke:#2792cb;" x="736.509744" xlink:href="#mf3ecc90dfb" y="475.312156"/>
     <use style="fill:#2792cb;stroke:#2792cb;" x="741.22856" xlink:href="#mf3ecc90dfb" y="474.686669"/>
     <use style="fill:#2792cb;stroke:#2792cb;" x="745.947376" xlink:href="#mf3ecc90dfb" y="474.999412"/>
     <use style="fill:#2792cb;stroke:#2792cb;" x="760.103824" xlink:href="#mf3ecc90dfb" y="473.748438"/>
     <use style="fill:#2792cb;stroke:#2792cb;" x="764.82264" xlink:href="#mf3ecc90dfb" y="472.810208"/>
     <use style="fill:#2792cb;stroke:#2792cb;" x="769.541456" xlink:href="#mf3ecc90dfb" y="472.810208"/>
     <use style="fill:#2792cb;stroke:#2792cb;" x="774.260272" xlink:href="#mf3ecc90dfb" y="473.122951"/>
     <use style="fill:#2792cb;stroke:#2792cb;" x="778.979088" xlink:href="#mf3ecc90dfb" y="471.24649"/>
     <use style="fill:#2792cb;stroke:#2792cb;" x="826.167249" xlink:href="#mf3ecc90dfb" y="472.184721"/>
     <use style="fill:#2792cb;stroke:#2792cb;" x="830.886065" xlink:href="#mf3ecc90dfb" y="470.933746"/>
     <use style="fill:#2792cb;stroke:#2792cb;" x="840.323697" xlink:href="#mf3ecc90dfb" y="469.057285"/>
     <use style="fill:#2792cb;stroke:#2792cb;" x="845.042513" xlink:href="#mf3ecc90dfb" y="467.493568"/>
     <use style="fill:#2792cb;stroke:#2792cb;" x="859.198961" xlink:href="#mf3ecc90dfb" y="467.493568"/>
     <use style="fill:#2792cb;stroke:#2792cb;" x="863.917777" xlink:href="#mf3ecc90dfb" y="462.802415"/>
     <use style="fill:#2792cb;stroke:#2792cb;" x="868.636594" xlink:href="#mf3ecc90dfb" y="462.176928"/>
     <use style="fill:#2792cb;stroke:#2792cb;" x="873.35541" xlink:href="#mf3ecc90dfb" y="461.238697"/>
     <use style="fill:#2792cb;stroke:#2792cb;" x="878.074226" xlink:href="#mf3ecc90dfb" y="460.300466"/>
     <use style="fill:#2792cb;stroke:#2792cb;" x="892.230674" xlink:href="#mf3ecc90dfb" y="461.864184"/>
     <use style="fill:#2792cb;stroke:#2792cb;" x="896.94949" xlink:href="#mf3ecc90dfb" y="462.176928"/>
     <use style="fill:#2792cb;stroke:#2792cb;" x="901.668306" xlink:href="#mf3ecc90dfb" y="462.176928"/>
     <use style="fill:#2792cb;stroke:#2792cb;" x="906.387122" xlink:href="#mf3ecc90dfb" y="463.427902"/>
     <use style="fill:#2792cb;stroke:#2792cb;" x="911.105938" xlink:href="#mf3ecc90dfb" y="464.053389"/>
     <use style="fill:#2792cb;stroke:#2792cb;" x="925.262386" xlink:href="#mf3ecc90dfb" y="464.053389"/>
     <use style="fill:#2792cb;stroke:#2792cb;" x="929.981202" xlink:href="#mf3ecc90dfb" y="469.370029"/>
     <use style="fill:#2792cb;stroke:#2792cb;" x="934.700018" xlink:href="#mf3ecc90dfb" y="469.370029"/>
     <use style="fill:#2792cb;stroke:#2792cb;" x="939.418835" xlink:href="#mf3ecc90dfb" y="469.995516"/>
     <use style="fill:#2792cb;stroke:#2792cb;" x="944.137651" xlink:href="#mf3ecc90dfb" y="472.184721"/>
     <use style="fill:#2792cb;stroke:#2792cb;" x="958.294099" xlink:href="#mf3ecc90dfb" y="471.871977"/>
     <use style="fill:#2792cb;stroke:#2792cb;" x="963.012915" xlink:href="#mf3ecc90dfb" y="470.933746"/>
     <use style="fill:#2792cb;stroke:#2792cb;" x="967.731731" xlink:href="#mf3ecc90dfb" y="470.933746"/>
     <use style="fill:#2792cb;stroke:#2792cb;" x="972.450547" xlink:href="#mf3ecc90dfb" y="473.122951"/>
     <use style="fill:#2792cb;stroke:#2792cb;" x="977.169363" xlink:href="#mf3ecc90dfb" y="473.748438"/>
     <use style="fill:#2792cb;stroke:#2792cb;" x="991.325811" xlink:href="#mf3ecc90dfb" y="473.748438"/>
     <use style="fill:#2792cb;stroke:#2792cb;" x="996.044627" xlink:href="#mf3ecc90dfb" y="469.682772"/>
     <use style="fill:#2792cb;stroke:#2792cb;" x="1000.763443" xlink:href="#mf3ecc90dfb" y="470.933746"/>
     <use style="fill:#2792cb;stroke:#2792cb;" x="1005.48226" xlink:href="#mf3ecc90dfb" y="470.933746"/>
     <use style="fill:#2792cb;stroke:#2792cb;" x="1010.201076" xlink:href="#mf3ecc90dfb" y="470.308259"/>
     <use style="fill:#2792cb;stroke:#2792cb;" x="1024.357524" xlink:href="#mf3ecc90dfb" y="470.621003"/>
     <use style="fill:#2792cb;stroke:#2792cb;" x="1029.07634" xlink:href="#mf3ecc90dfb" y="468.431798"/>
     <use style="fill:#2792cb;stroke:#2792cb;" x="1033.795156" xlink:href="#mf3ecc90dfb" y="468.431798"/>
     <use style="fill:#2792cb;stroke:#2792cb;" x="1038.513972" xlink:href="#mf3ecc90dfb" y="468.431798"/>
     <use style="fill:#2792cb;stroke:#2792cb;" x="1043.232788" xlink:href="#mf3ecc90dfb" y="468.431798"/>
     <use style="fill:#2792cb;stroke:#2792cb;" x="1057.389236" xlink:href="#mf3ecc90dfb" y="467.180824"/>
     <use style="fill:#2792cb;stroke:#2792cb;" x="1062.108052" xlink:href="#mf3ecc90dfb" y="462.176928"/>
     <use style="fill:#2792cb;stroke:#2792cb;" x="1066.826868" xlink:href="#mf3ecc90dfb" y="462.176928"/>
     <use style="fill:#2792cb;stroke:#2792cb;" x="1071.545684" xlink:href="#mf3ecc90dfb" y="459.674979"/>
     <use style="fill:#2792cb;stroke:#2792cb;" x="1076.264501" xlink:href="#mf3ecc90dfb" y="458.424005"/>
     <use style="fill:#2792cb;stroke:#2792cb;" x="1090.420949" xlink:href="#mf3ecc90dfb" y="459.674979"/>
     <use style="fill:#2792cb;stroke:#2792cb;" x="1095.139765" xlink:href="#mf3ecc90dfb" y="441.848598"/>
     <use style="fill:#2792cb;stroke:#2792cb;" x="1099.858581" xlink:href="#mf3ecc90dfb" y="444.037803"/>
     <use style="fill:#2792cb;stroke:#2792cb;" x="1104.577397" xlink:href="#mf3ecc90dfb" y="441.848598"/>
     <use style="fill:#2792cb;stroke:#2792cb;" x="1109.296213" xlink:href="#mf3ecc90dfb" y="438.721163"/>
     <use style="fill:#2792cb;stroke:#2792cb;" x="1123.452661" xlink:href="#mf3ecc90dfb" y="439.972137"/>
     <use style="fill:#2792cb;stroke:#2792cb;" x="1128.171477" xlink:href="#mf3ecc90dfb" y="427.462395"/>
    </g>
   </g>
   <g id="patch_3">
    <path d="M 62.89875 501.738984 
L 1178.89875 501.738984 
" style="fill:none;stroke:#000000;stroke-linecap:square;stroke-linejoin:miter;stroke-width:0.8;"/>
   </g>
   <g id="legend_1">
    <g id="line2d_42">
     <path d="M 1091.653438 25.237422 
L 1111.653438 25.237422 
" style="fill:none;stroke:#dbcd00;stroke-linecap:square;stroke-width:2;"/>
    </g>
    <g id="line2d_43">
     <g>
      <use style="fill:#dbcd00;stroke:#dbcd00;" x="1101.653438" xlink:href="#mb85521574d" y="25.237422"/>
     </g>
    </g>
    <g id="text_25">
     <!-- Genesene -->
     <defs>
      <path d="M 59.515625 10.40625 
L 59.515625 29.984375 
L 43.40625 29.984375 
L 43.40625 38.09375 
L 69.28125 38.09375 
L 69.28125 6.78125 
Q 63.578125 2.734375 56.6875 0.65625 
Q 49.8125 -1.421875 42 -1.421875 
Q 24.90625 -1.421875 15.25 8.5625 
Q 5.609375 18.5625 5.609375 36.375 
Q 5.609375 54.25 15.25 64.234375 
Q 24.90625 74.21875 42 74.21875 
Q 49.125 74.21875 55.546875 72.453125 
Q 61.96875 70.703125 67.390625 67.28125 
L 67.390625 56.78125 
Q 61.921875 61.421875 55.765625 63.765625 
Q 49.609375 66.109375 42.828125 66.109375 
Q 29.4375 66.109375 22.71875 58.640625 
Q 16.015625 51.171875 16.015625 36.375 
Q 16.015625 21.625 22.71875 14.15625 
Q 29.4375 6.6875 42.828125 6.6875 
Q 48.046875 6.6875 52.140625 7.59375 
Q 56.25 8.5 59.515625 10.40625 
z
" id="DejaVuSans-71"/>
      <path d="M 44.28125 53.078125 
L 44.28125 44.578125 
Q 40.484375 46.53125 36.375 47.5 
Q 32.28125 48.484375 27.875 48.484375 
Q 21.1875 48.484375 17.84375 46.4375 
Q 14.5 44.390625 14.5 40.28125 
Q 14.5 37.15625 16.890625 35.375 
Q 19.28125 33.59375 26.515625 31.984375 
L 29.59375 31.296875 
Q 39.15625 29.25 43.1875 25.515625 
Q 47.21875 21.78125 47.21875 15.09375 
Q 47.21875 7.46875 41.1875 3.015625 
Q 35.15625 -1.421875 24.609375 -1.421875 
Q 20.21875 -1.421875 15.453125 -0.5625 
Q 10.6875 0.296875 5.421875 2 
L 5.421875 11.28125 
Q 10.40625 8.6875 15.234375 7.390625 
Q 20.0625 6.109375 24.8125 6.109375 
Q 31.15625 6.109375 34.5625 8.28125 
Q 37.984375 10.453125 37.984375 14.40625 
Q 37.984375 18.0625 35.515625 20.015625 
Q 33.0625 21.96875 24.703125 23.78125 
L 21.578125 24.515625 
Q 13.234375 26.265625 9.515625 29.90625 
Q 5.8125 33.546875 5.8125 39.890625 
Q 5.8125 47.609375 11.28125 51.796875 
Q 16.75 56 26.8125 56 
Q 31.78125 56 36.171875 55.265625 
Q 40.578125 54.546875 44.28125 53.078125 
z
" id="DejaVuSans-115"/>
     </defs>
     <g transform="translate(1119.653438 28.737422)scale(0.1 -0.1)">
      <use xlink:href="#DejaVuSans-71"/>
      <use x="77.490234" xlink:href="#DejaVuSans-101"/>
      <use x="139.013672" xlink:href="#DejaVuSans-110"/>
      <use x="202.392578" xlink:href="#DejaVuSans-101"/>
      <use x="263.916016" xlink:href="#DejaVuSans-115"/>
      <use x="316.015625" xlink:href="#DejaVuSans-101"/>
      <use x="377.539062" xlink:href="#DejaVuSans-110"/>
      <use x="440.917969" xlink:href="#DejaVuSans-101"/>
     </g>
    </g>
    <g id="line2d_44">
     <path d="M 1091.653438 39.915547 
L 1111.653438 39.915547 
" style="fill:none;stroke:#2792cb;stroke-linecap:square;stroke-width:2;"/>
    </g>
    <g id="line2d_45">
     <g>
      <use style="fill:#2792cb;stroke:#2792cb;" x="1101.653438" xlink:href="#mf3ecc90dfb" y="39.915547"/>
     </g>
    </g>
    <g id="text_26">
     <!-- Erkrankte -->
     <defs>
      <path d="M 9.8125 72.90625 
L 55.90625 72.90625 
L 55.90625 64.59375 
L 19.671875 64.59375 
L 19.671875 43.015625 
L 54.390625 43.015625 
L 54.390625 34.71875 
L 19.671875 34.71875 
L 19.671875 8.296875 
L 56.78125 8.296875 
L 56.78125 0 
L 9.8125 0 
z
" id="DejaVuSans-69"/>
      <path d="M 41.109375 46.296875 
Q 39.59375 47.171875 37.8125 47.578125 
Q 36.03125 48 33.890625 48 
Q 26.265625 48 22.1875 43.046875 
Q 18.109375 38.09375 18.109375 28.8125 
L 18.109375 0 
L 9.078125 0 
L 9.078125 54.6875 
L 18.109375 54.6875 
L 18.109375 46.1875 
Q 20.953125 51.171875 25.484375 53.578125 
Q 30.03125 56 36.53125 56 
Q 37.453125 56 38.578125 55.875 
Q 39.703125 55.765625 41.0625 55.515625 
z
" id="DejaVuSans-114"/>
      <path d="M 9.078125 75.984375 
L 18.109375 75.984375 
L 18.109375 31.109375 
L 44.921875 54.6875 
L 56.390625 54.6875 
L 27.390625 29.109375 
L 57.625 0 
L 45.90625 0 
L 18.109375 26.703125 
L 18.109375 0 
L 9.078125 0 
z
" id="DejaVuSans-107"/>
      <path d="M 18.3125 70.21875 
L 18.3125 54.6875 
L 36.8125 54.6875 
L 36.8125 47.703125 
L 18.3125 47.703125 
L 18.3125 18.015625 
Q 18.3125 11.328125 20.140625 9.421875 
Q 21.96875 7.515625 27.59375 7.515625 
L 36.8125 7.515625 
L 36.8125 0 
L 27.59375 0 
Q 17.1875 0 13.234375 3.875 
Q 9.28125 7.765625 9.28125 18.015625 
L 9.28125 47.703125 
L 2.6875 47.703125 
L 2.6875 54.6875 
L 9.28125 54.6875 
L 9.28125 70.21875 
z
" id="DejaVuSans-116"/>
     </defs>
     <g transform="translate(1119.653438 43.415547)scale(0.1 -0.1)">
      <use xlink:href="#DejaVuSans-69"/>
      <use x="63.183594" xlink:href="#DejaVuSans-114"/>
      <use x="104.296875" xlink:href="#DejaVuSans-107"/>
      <use x="162.207031" xlink:href="#DejaVuSans-114"/>
      <use x="203.320312" xlink:href="#DejaVuSans-97"/>
      <use x="264.599609" xlink:href="#DejaVuSans-110"/>
      <use x="327.978516" xlink:href="#DejaVuSans-107"/>
      <use x="385.888672" xlink:href="#DejaVuSans-116"/>
      <use x="425.097656" xlink:href="#DejaVuSans-101"/>
     </g>
    </g>
   </g>
  </g>
 </g>
 <defs>
  <clipPath id="p00229fd2cc">
   <rect height="489.6" width="1116" x="62.89875" y="12.138984"/>
  </clipPath>
 </defs>
</svg>
