<?xml version="1.0" encoding="utf-8" standalone="no"?>
<!DOCTYPE svg PUBLIC "-//W3C//DTD SVG 1.1//EN"
  "http://www.w3.org/Graphics/SVG/1.1/DTD/svg11.dtd">
<!-- Created with matplotlib (https://matplotlib.org/) -->
<svg height="553.993765pt" version="1.1" viewBox="0 0 1186.09875 553.993765" width="1186.09875pt" xmlns="http://www.w3.org/2000/svg" xmlns:xlink="http://www.w3.org/1999/xlink">
 <defs>
  <style type="text/css">
*{stroke-linecap:butt;stroke-linejoin:round;}
  </style>
 </defs>
 <g id="figure_1">
  <g id="patch_1">
   <path d="M 0 553.993765 
L 1186.09875 553.993765 
L 1186.09875 0 
L 0 0 
z
" style="fill:#ffffff;"/>
  </g>
  <g id="axes_1">
   <g id="patch_2">
    <path d="M 62.89875 501.738984 
L 1178.89875 501.738984 
L 1178.89875 12.138984 
L 62.89875 12.138984 
z
" style="fill:#ffffff;"/>
   </g>
   <g id="matplotlib.axis_1">
    <g id="xtick_1">
     <g id="line2d_1">
      <defs>
       <path d="M 0 0 
L 0 3.5 
" id="m90e604bb81" style="stroke:#000000;stroke-width:0.8;"/>
      </defs>
      <g>
       <use style="stroke:#000000;stroke-width:0.8;" x="167.976672" xlink:href="#m90e604bb81" y="501.738984"/>
      </g>
     </g>
     <g id="text_1">
      <!-- 2020-04 -->
      <defs>
       <path d="M 19.1875 8.296875 
L 53.609375 8.296875 
L 53.609375 0 
L 7.328125 0 
L 7.328125 8.296875 
Q 12.9375 14.109375 22.625 23.890625 
Q 32.328125 33.6875 34.8125 36.53125 
Q 39.546875 41.84375 41.421875 45.53125 
Q 43.3125 49.21875 43.3125 52.78125 
Q 43.3125 58.59375 39.234375 62.25 
Q 35.15625 65.921875 28.609375 65.921875 
Q 23.96875 65.921875 18.8125 64.3125 
Q 13.671875 62.703125 7.8125 59.421875 
L 7.8125 69.390625 
Q 13.765625 71.78125 18.9375 73 
Q 24.125 74.21875 28.421875 74.21875 
Q 39.75 74.21875 46.484375 68.546875 
Q 53.21875 62.890625 53.21875 53.421875 
Q 53.21875 48.921875 51.53125 44.890625 
Q 49.859375 40.875 45.40625 35.40625 
Q 44.1875 33.984375 37.640625 27.21875 
Q 31.109375 20.453125 19.1875 8.296875 
z
" id="DejaVuSans-50"/>
       <path d="M 31.78125 66.40625 
Q 24.171875 66.40625 20.328125 58.90625 
Q 16.5 51.421875 16.5 36.375 
Q 16.5 21.390625 20.328125 13.890625 
Q 24.171875 6.390625 31.78125 6.390625 
Q 39.453125 6.390625 43.28125 13.890625 
Q 47.125 21.390625 47.125 36.375 
Q 47.125 51.421875 43.28125 58.90625 
Q 39.453125 66.40625 31.78125 66.40625 
z
M 31.78125 74.21875 
Q 44.046875 74.21875 50.515625 64.515625 
Q 56.984375 54.828125 56.984375 36.375 
Q 56.984375 17.96875 50.515625 8.265625 
Q 44.046875 -1.421875 31.78125 -1.421875 
Q 19.53125 -1.421875 13.0625 8.265625 
Q 6.59375 17.96875 6.59375 36.375 
Q 6.59375 54.828125 13.0625 64.515625 
Q 19.53125 74.21875 31.78125 74.21875 
z
" id="DejaVuSans-48"/>
       <path d="M 4.890625 31.390625 
L 31.203125 31.390625 
L 31.203125 23.390625 
L 4.890625 23.390625 
z
" id="DejaVuSans-45"/>
       <path d="M 37.796875 64.3125 
L 12.890625 25.390625 
L 37.796875 25.390625 
z
M 35.203125 72.90625 
L 47.609375 72.90625 
L 47.609375 25.390625 
L 58.015625 25.390625 
L 58.015625 17.1875 
L 47.609375 17.1875 
L 47.609375 0 
L 37.796875 0 
L 37.796875 17.1875 
L 4.890625 17.1875 
L 4.890625 26.703125 
z
" id="DejaVuSans-52"/>
      </defs>
      <g transform="translate(119.584405 544.452384)rotate(-30)scale(0.13 -0.13)">
       <use xlink:href="#DejaVuSans-50"/>
       <use x="63.623047" xlink:href="#DejaVuSans-48"/>
       <use x="127.246094" xlink:href="#DejaVuSans-50"/>
       <use x="190.869141" xlink:href="#DejaVuSans-48"/>
       <use x="254.492188" xlink:href="#DejaVuSans-45"/>
       <use x="290.576172" xlink:href="#DejaVuSans-48"/>
       <use x="354.199219" xlink:href="#DejaVuSans-52"/>
      </g>
     </g>
    </g>
    <g id="xtick_2">
     <g id="line2d_2">
      <g>
       <use style="stroke:#000000;stroke-width:0.8;" x="349.145503" xlink:href="#m90e604bb81" y="501.738984"/>
      </g>
     </g>
     <g id="text_2">
      <!-- 2020-05 -->
      <defs>
       <path d="M 10.796875 72.90625 
L 49.515625 72.90625 
L 49.515625 64.59375 
L 19.828125 64.59375 
L 19.828125 46.734375 
Q 21.96875 47.46875 24.109375 47.828125 
Q 26.265625 48.1875 28.421875 48.1875 
Q 40.625 48.1875 47.75 41.5 
Q 54.890625 34.8125 54.890625 23.390625 
Q 54.890625 11.625 47.5625 5.09375 
Q 40.234375 -1.421875 26.90625 -1.421875 
Q 22.3125 -1.421875 17.546875 -0.640625 
Q 12.796875 0.140625 7.71875 1.703125 
L 7.71875 11.625 
Q 12.109375 9.234375 16.796875 8.0625 
Q 21.484375 6.890625 26.703125 6.890625 
Q 35.15625 6.890625 40.078125 11.328125 
Q 45.015625 15.765625 45.015625 23.390625 
Q 45.015625 31 40.078125 35.4375 
Q 35.15625 39.890625 26.703125 39.890625 
Q 22.75 39.890625 18.8125 39.015625 
Q 14.890625 38.140625 10.796875 36.28125 
z
" id="DejaVuSans-53"/>
      </defs>
      <g transform="translate(300.753236 544.452384)rotate(-30)scale(0.13 -0.13)">
       <use xlink:href="#DejaVuSans-50"/>
       <use x="63.623047" xlink:href="#DejaVuSans-48"/>
       <use x="127.246094" xlink:href="#DejaVuSans-50"/>
       <use x="190.869141" xlink:href="#DejaVuSans-48"/>
       <use x="254.492188" xlink:href="#DejaVuSans-45"/>
       <use x="290.576172" xlink:href="#DejaVuSans-48"/>
       <use x="354.199219" xlink:href="#DejaVuSans-53"/>
      </g>
     </g>
    </g>
    <g id="xtick_3">
     <g id="line2d_3">
      <g>
       <use style="stroke:#000000;stroke-width:0.8;" x="536.353295" xlink:href="#m90e604bb81" y="501.738984"/>
      </g>
     </g>
     <g id="text_3">
      <!-- 2020-06 -->
      <defs>
       <path d="M 33.015625 40.375 
Q 26.375 40.375 22.484375 35.828125 
Q 18.609375 31.296875 18.609375 23.390625 
Q 18.609375 15.53125 22.484375 10.953125 
Q 26.375 6.390625 33.015625 6.390625 
Q 39.65625 6.390625 43.53125 10.953125 
Q 47.40625 15.53125 47.40625 23.390625 
Q 47.40625 31.296875 43.53125 35.828125 
Q 39.65625 40.375 33.015625 40.375 
z
M 52.59375 71.296875 
L 52.59375 62.3125 
Q 48.875 64.0625 45.09375 64.984375 
Q 41.3125 65.921875 37.59375 65.921875 
Q 27.828125 65.921875 22.671875 59.328125 
Q 17.53125 52.734375 16.796875 39.40625 
Q 19.671875 43.65625 24.015625 45.921875 
Q 28.375 48.1875 33.59375 48.1875 
Q 44.578125 48.1875 50.953125 41.515625 
Q 57.328125 34.859375 57.328125 23.390625 
Q 57.328125 12.15625 50.6875 5.359375 
Q 44.046875 -1.421875 33.015625 -1.421875 
Q 20.359375 -1.421875 13.671875 8.265625 
Q 6.984375 17.96875 6.984375 36.375 
Q 6.984375 53.65625 15.1875 63.9375 
Q 23.390625 74.21875 37.203125 74.21875 
Q 40.921875 74.21875 44.703125 73.484375 
Q 48.484375 72.75 52.59375 71.296875 
z
" id="DejaVuSans-54"/>
      </defs>
      <g transform="translate(487.961028 544.452384)rotate(-30)scale(0.13 -0.13)">
       <use xlink:href="#DejaVuSans-50"/>
       <use x="63.623047" xlink:href="#DejaVuSans-48"/>
       <use x="127.246094" xlink:href="#DejaVuSans-50"/>
       <use x="190.869141" xlink:href="#DejaVuSans-48"/>
       <use x="254.492188" xlink:href="#DejaVuSans-45"/>
       <use x="290.576172" xlink:href="#DejaVuSans-48"/>
       <use x="354.199219" xlink:href="#DejaVuSans-54"/>
      </g>
     </g>
    </g>
    <g id="xtick_4">
     <g id="line2d_4">
      <g>
       <use style="stroke:#000000;stroke-width:0.8;" x="717.522127" xlink:href="#m90e604bb81" y="501.738984"/>
      </g>
     </g>
     <g id="text_4">
      <!-- 2020-07 -->
      <defs>
       <path d="M 8.203125 72.90625 
L 55.078125 72.90625 
L 55.078125 68.703125 
L 28.609375 0 
L 18.3125 0 
L 43.21875 64.59375 
L 8.203125 64.59375 
z
" id="DejaVuSans-55"/>
      </defs>
      <g transform="translate(669.12986 544.452384)rotate(-30)scale(0.13 -0.13)">
       <use xlink:href="#DejaVuSans-50"/>
       <use x="63.623047" xlink:href="#DejaVuSans-48"/>
       <use x="127.246094" xlink:href="#DejaVuSans-50"/>
       <use x="190.869141" xlink:href="#DejaVuSans-48"/>
       <use x="254.492188" xlink:href="#DejaVuSans-45"/>
       <use x="290.576172" xlink:href="#DejaVuSans-48"/>
       <use x="354.199219" xlink:href="#DejaVuSans-55"/>
      </g>
     </g>
    </g>
    <g id="xtick_5">
     <g id="line2d_5">
      <g>
       <use style="stroke:#000000;stroke-width:0.8;" x="904.729919" xlink:href="#m90e604bb81" y="501.738984"/>
      </g>
     </g>
     <g id="text_5">
      <!-- 2020-08 -->
      <defs>
       <path d="M 31.78125 34.625 
Q 24.75 34.625 20.71875 30.859375 
Q 16.703125 27.09375 16.703125 20.515625 
Q 16.703125 13.921875 20.71875 10.15625 
Q 24.75 6.390625 31.78125 6.390625 
Q 38.8125 6.390625 42.859375 10.171875 
Q 46.921875 13.96875 46.921875 20.515625 
Q 46.921875 27.09375 42.890625 30.859375 
Q 38.875 34.625 31.78125 34.625 
z
M 21.921875 38.8125 
Q 15.578125 40.375 12.03125 44.71875 
Q 8.5 49.078125 8.5 55.328125 
Q 8.5 64.0625 14.71875 69.140625 
Q 20.953125 74.21875 31.78125 74.21875 
Q 42.671875 74.21875 48.875 69.140625 
Q 55.078125 64.0625 55.078125 55.328125 
Q 55.078125 49.078125 51.53125 44.71875 
Q 48 40.375 41.703125 38.8125 
Q 48.828125 37.15625 52.796875 32.3125 
Q 56.78125 27.484375 56.78125 20.515625 
Q 56.78125 9.90625 50.3125 4.234375 
Q 43.84375 -1.421875 31.78125 -1.421875 
Q 19.734375 -1.421875 13.25 4.234375 
Q 6.78125 9.90625 6.78125 20.515625 
Q 6.78125 27.484375 10.78125 32.3125 
Q 14.796875 37.15625 21.921875 38.8125 
z
M 18.3125 54.390625 
Q 18.3125 48.734375 21.84375 45.5625 
Q 25.390625 42.390625 31.78125 42.390625 
Q 38.140625 42.390625 41.71875 45.5625 
Q 45.3125 48.734375 45.3125 54.390625 
Q 45.3125 60.0625 41.71875 63.234375 
Q 38.140625 66.40625 31.78125 66.40625 
Q 25.390625 66.40625 21.84375 63.234375 
Q 18.3125 60.0625 18.3125 54.390625 
z
" id="DejaVuSans-56"/>
      </defs>
      <g transform="translate(856.337652 544.452384)rotate(-30)scale(0.13 -0.13)">
       <use xlink:href="#DejaVuSans-50"/>
       <use x="63.623047" xlink:href="#DejaVuSans-48"/>
       <use x="127.246094" xlink:href="#DejaVuSans-50"/>
       <use x="190.869141" xlink:href="#DejaVuSans-48"/>
       <use x="254.492188" xlink:href="#DejaVuSans-45"/>
       <use x="290.576172" xlink:href="#DejaVuSans-48"/>
       <use x="354.199219" xlink:href="#DejaVuSans-56"/>
      </g>
     </g>
    </g>
    <g id="xtick_6">
     <g id="line2d_6">
      <g>
       <use style="stroke:#000000;stroke-width:0.8;" x="1091.937711" xlink:href="#m90e604bb81" y="501.738984"/>
      </g>
     </g>
     <g id="text_6">
      <!-- 2020-09 -->
      <defs>
       <path d="M 10.984375 1.515625 
L 10.984375 10.5 
Q 14.703125 8.734375 18.5 7.8125 
Q 22.3125 6.890625 25.984375 6.890625 
Q 35.75 6.890625 40.890625 13.453125 
Q 46.046875 20.015625 46.78125 33.40625 
Q 43.953125 29.203125 39.59375 26.953125 
Q 35.25 24.703125 29.984375 24.703125 
Q 19.046875 24.703125 12.671875 31.3125 
Q 6.296875 37.9375 6.296875 49.421875 
Q 6.296875 60.640625 12.9375 67.421875 
Q 19.578125 74.21875 30.609375 74.21875 
Q 43.265625 74.21875 49.921875 64.515625 
Q 56.59375 54.828125 56.59375 36.375 
Q 56.59375 19.140625 48.40625 8.859375 
Q 40.234375 -1.421875 26.421875 -1.421875 
Q 22.703125 -1.421875 18.890625 -0.6875 
Q 15.09375 0.046875 10.984375 1.515625 
z
M 30.609375 32.421875 
Q 37.25 32.421875 41.125 36.953125 
Q 45.015625 41.5 45.015625 49.421875 
Q 45.015625 57.28125 41.125 61.84375 
Q 37.25 66.40625 30.609375 66.40625 
Q 23.96875 66.40625 20.09375 61.84375 
Q 16.21875 57.28125 16.21875 49.421875 
Q 16.21875 41.5 20.09375 36.953125 
Q 23.96875 32.421875 30.609375 32.421875 
z
" id="DejaVuSans-57"/>
      </defs>
      <g transform="translate(1043.545444 544.452384)rotate(-30)scale(0.13 -0.13)">
       <use xlink:href="#DejaVuSans-50"/>
       <use x="63.623047" xlink:href="#DejaVuSans-48"/>
       <use x="127.246094" xlink:href="#DejaVuSans-50"/>
       <use x="190.869141" xlink:href="#DejaVuSans-48"/>
       <use x="254.492188" xlink:href="#DejaVuSans-45"/>
       <use x="290.576172" xlink:href="#DejaVuSans-48"/>
       <use x="354.199219" xlink:href="#DejaVuSans-57"/>
      </g>
     </g>
    </g>
   </g>
   <g id="matplotlib.axis_2">
    <g id="ytick_1">
     <g id="line2d_7">
      <path clip-path="url(#pd150471f22)" d="M 62.89875 483.021408 
L 1178.89875 483.021408 
" style="fill:none;stroke:#b0b0b0;stroke-linecap:square;stroke-width:0.8;"/>
     </g>
     <g id="line2d_8">
      <defs>
       <path d="M 0 0 
L -3.5 0 
" id="ma912ebce4b" style="stroke:#000000;stroke-width:0.8;"/>
      </defs>
      <g>
       <use style="stroke:#000000;stroke-width:0.8;" x="62.89875" xlink:href="#ma912ebce4b" y="483.021408"/>
      </g>
     </g>
     <g id="text_7">
      <!-- 0 -->
      <g transform="translate(47.6275 487.960392)scale(0.13 -0.13)">
       <use xlink:href="#DejaVuSans-48"/>
      </g>
     </g>
    </g>
    <g id="ytick_2">
     <g id="line2d_9">
      <path clip-path="url(#pd150471f22)" d="M 62.89875 435.933166 
L 1178.89875 435.933166 
" style="fill:none;stroke:#b0b0b0;stroke-linecap:square;stroke-width:0.8;"/>
     </g>
     <g id="line2d_10">
      <g>
       <use style="stroke:#000000;stroke-width:0.8;" x="62.89875" xlink:href="#ma912ebce4b" y="435.933166"/>
      </g>
     </g>
     <g id="text_8">
      <!-- 100 -->
      <defs>
       <path d="M 12.40625 8.296875 
L 28.515625 8.296875 
L 28.515625 63.921875 
L 10.984375 60.40625 
L 10.984375 69.390625 
L 28.421875 72.90625 
L 38.28125 72.90625 
L 38.28125 8.296875 
L 54.390625 8.296875 
L 54.390625 0 
L 12.40625 0 
z
" id="DejaVuSans-49"/>
      </defs>
      <g transform="translate(31.085 440.87215)scale(0.13 -0.13)">
       <use xlink:href="#DejaVuSans-49"/>
       <use x="63.623047" xlink:href="#DejaVuSans-48"/>
       <use x="127.246094" xlink:href="#DejaVuSans-48"/>
      </g>
     </g>
    </g>
    <g id="ytick_3">
     <g id="line2d_11">
      <path clip-path="url(#pd150471f22)" d="M 62.89875 388.844923 
L 1178.89875 388.844923 
" style="fill:none;stroke:#b0b0b0;stroke-linecap:square;stroke-width:0.8;"/>
     </g>
     <g id="line2d_12">
      <g>
       <use style="stroke:#000000;stroke-width:0.8;" x="62.89875" xlink:href="#ma912ebce4b" y="388.844923"/>
      </g>
     </g>
     <g id="text_9">
      <!-- 200 -->
      <g transform="translate(31.085 393.783908)scale(0.13 -0.13)">
       <use xlink:href="#DejaVuSans-50"/>
       <use x="63.623047" xlink:href="#DejaVuSans-48"/>
       <use x="127.246094" xlink:href="#DejaVuSans-48"/>
      </g>
     </g>
    </g>
    <g id="ytick_4">
     <g id="line2d_13">
      <path clip-path="url(#pd150471f22)" d="M 62.89875 341.756681 
L 1178.89875 341.756681 
" style="fill:none;stroke:#b0b0b0;stroke-linecap:square;stroke-width:0.8;"/>
     </g>
     <g id="line2d_14">
      <g>
       <use style="stroke:#000000;stroke-width:0.8;" x="62.89875" xlink:href="#ma912ebce4b" y="341.756681"/>
      </g>
     </g>
     <g id="text_10">
      <!-- 300 -->
      <defs>
       <path d="M 40.578125 39.3125 
Q 47.65625 37.796875 51.625 33 
Q 55.609375 28.21875 55.609375 21.1875 
Q 55.609375 10.40625 48.1875 4.484375 
Q 40.765625 -1.421875 27.09375 -1.421875 
Q 22.515625 -1.421875 17.65625 -0.515625 
Q 12.796875 0.390625 7.625 2.203125 
L 7.625 11.71875 
Q 11.71875 9.328125 16.59375 8.109375 
Q 21.484375 6.890625 26.8125 6.890625 
Q 36.078125 6.890625 40.9375 10.546875 
Q 45.796875 14.203125 45.796875 21.1875 
Q 45.796875 27.640625 41.28125 31.265625 
Q 36.765625 34.90625 28.71875 34.90625 
L 20.21875 34.90625 
L 20.21875 43.015625 
L 29.109375 43.015625 
Q 36.375 43.015625 40.234375 45.921875 
Q 44.09375 48.828125 44.09375 54.296875 
Q 44.09375 59.90625 40.109375 62.90625 
Q 36.140625 65.921875 28.71875 65.921875 
Q 24.65625 65.921875 20.015625 65.03125 
Q 15.375 64.15625 9.8125 62.3125 
L 9.8125 71.09375 
Q 15.4375 72.65625 20.34375 73.4375 
Q 25.25 74.21875 29.59375 74.21875 
Q 40.828125 74.21875 47.359375 69.109375 
Q 53.90625 64.015625 53.90625 55.328125 
Q 53.90625 49.265625 50.4375 45.09375 
Q 46.96875 40.921875 40.578125 39.3125 
z
" id="DejaVuSans-51"/>
      </defs>
      <g transform="translate(31.085 346.695665)scale(0.13 -0.13)">
       <use xlink:href="#DejaVuSans-51"/>
       <use x="63.623047" xlink:href="#DejaVuSans-48"/>
       <use x="127.246094" xlink:href="#DejaVuSans-48"/>
      </g>
     </g>
    </g>
    <g id="ytick_5">
     <g id="line2d_15">
      <path clip-path="url(#pd150471f22)" d="M 62.89875 294.668439 
L 1178.89875 294.668439 
" style="fill:none;stroke:#b0b0b0;stroke-linecap:square;stroke-width:0.8;"/>
     </g>
     <g id="line2d_16">
      <g>
       <use style="stroke:#000000;stroke-width:0.8;" x="62.89875" xlink:href="#ma912ebce4b" y="294.668439"/>
      </g>
     </g>
     <g id="text_11">
      <!-- 400 -->
      <g transform="translate(31.085 299.607423)scale(0.13 -0.13)">
       <use xlink:href="#DejaVuSans-52"/>
       <use x="63.623047" xlink:href="#DejaVuSans-48"/>
       <use x="127.246094" xlink:href="#DejaVuSans-48"/>
      </g>
     </g>
    </g>
    <g id="ytick_6">
     <g id="line2d_17">
      <path clip-path="url(#pd150471f22)" d="M 62.89875 247.580196 
L 1178.89875 247.580196 
" style="fill:none;stroke:#b0b0b0;stroke-linecap:square;stroke-width:0.8;"/>
     </g>
     <g id="line2d_18">
      <g>
       <use style="stroke:#000000;stroke-width:0.8;" x="62.89875" xlink:href="#ma912ebce4b" y="247.580196"/>
      </g>
     </g>
     <g id="text_12">
      <!-- 500 -->
      <g transform="translate(31.085 252.519181)scale(0.13 -0.13)">
       <use xlink:href="#DejaVuSans-53"/>
       <use x="63.623047" xlink:href="#DejaVuSans-48"/>
       <use x="127.246094" xlink:href="#DejaVuSans-48"/>
      </g>
     </g>
    </g>
    <g id="ytick_7">
     <g id="line2d_19">
      <path clip-path="url(#pd150471f22)" d="M 62.89875 200.491954 
L 1178.89875 200.491954 
" style="fill:none;stroke:#b0b0b0;stroke-linecap:square;stroke-width:0.8;"/>
     </g>
     <g id="line2d_20">
      <g>
       <use style="stroke:#000000;stroke-width:0.8;" x="62.89875" xlink:href="#ma912ebce4b" y="200.491954"/>
      </g>
     </g>
     <g id="text_13">
      <!-- 600 -->
      <g transform="translate(31.085 205.430938)scale(0.13 -0.13)">
       <use xlink:href="#DejaVuSans-54"/>
       <use x="63.623047" xlink:href="#DejaVuSans-48"/>
       <use x="127.246094" xlink:href="#DejaVuSans-48"/>
      </g>
     </g>
    </g>
    <g id="ytick_8">
     <g id="line2d_21">
      <path clip-path="url(#pd150471f22)" d="M 62.89875 153.403711 
L 1178.89875 153.403711 
" style="fill:none;stroke:#b0b0b0;stroke-linecap:square;stroke-width:0.8;"/>
     </g>
     <g id="line2d_22">
      <g>
       <use style="stroke:#000000;stroke-width:0.8;" x="62.89875" xlink:href="#ma912ebce4b" y="153.403711"/>
      </g>
     </g>
     <g id="text_14">
      <!-- 700 -->
      <g transform="translate(31.085 158.342696)scale(0.13 -0.13)">
       <use xlink:href="#DejaVuSans-55"/>
       <use x="63.623047" xlink:href="#DejaVuSans-48"/>
       <use x="127.246094" xlink:href="#DejaVuSans-48"/>
      </g>
     </g>
    </g>
    <g id="ytick_9">
     <g id="line2d_23">
      <path clip-path="url(#pd150471f22)" d="M 62.89875 106.315469 
L 1178.89875 106.315469 
" style="fill:none;stroke:#b0b0b0;stroke-linecap:square;stroke-width:0.8;"/>
     </g>
     <g id="line2d_24">
      <g>
       <use style="stroke:#000000;stroke-width:0.8;" x="62.89875" xlink:href="#ma912ebce4b" y="106.315469"/>
      </g>
     </g>
     <g id="text_15">
      <!-- 800 -->
      <g transform="translate(31.085 111.254453)scale(0.13 -0.13)">
       <use xlink:href="#DejaVuSans-56"/>
       <use x="63.623047" xlink:href="#DejaVuSans-48"/>
       <use x="127.246094" xlink:href="#DejaVuSans-48"/>
      </g>
     </g>
    </g>
    <g id="ytick_10">
     <g id="line2d_25">
      <path clip-path="url(#pd150471f22)" d="M 62.89875 59.227227 
L 1178.89875 59.227227 
" style="fill:none;stroke:#b0b0b0;stroke-linecap:square;stroke-width:0.8;"/>
     </g>
     <g id="line2d_26">
      <g>
       <use style="stroke:#000000;stroke-width:0.8;" x="62.89875" xlink:href="#ma912ebce4b" y="59.227227"/>
      </g>
     </g>
     <g id="text_16">
      <!-- 900 -->
      <g transform="translate(31.085 64.166211)scale(0.13 -0.13)">
       <use xlink:href="#DejaVuSans-57"/>
       <use x="63.623047" xlink:href="#DejaVuSans-48"/>
       <use x="127.246094" xlink:href="#DejaVuSans-48"/>
      </g>
     </g>
    </g>
    <g id="ytick_11">
     <g id="line2d_27">
      <path clip-path="url(#pd150471f22)" d="M 62.89875 12.138984 
L 1178.89875 12.138984 
" style="fill:none;stroke:#b0b0b0;stroke-linecap:square;stroke-width:0.8;"/>
     </g>
     <g id="line2d_28">
      <g>
       <use style="stroke:#000000;stroke-width:0.8;" x="62.89875" xlink:href="#ma912ebce4b" y="12.138984"/>
      </g>
     </g>
     <g id="text_17">
      <!-- 1000 -->
      <g transform="translate(22.81375 17.077969)scale(0.13 -0.13)">
       <use xlink:href="#DejaVuSans-49"/>
       <use x="63.623047" xlink:href="#DejaVuSans-48"/>
       <use x="127.246094" xlink:href="#DejaVuSans-48"/>
       <use x="190.869141" xlink:href="#DejaVuSans-48"/>
      </g>
     </g>
    </g>
    <g id="text_18">
     <!-- Anzahl von Fällen -->
     <defs>
      <path d="M 34.1875 63.1875 
L 20.796875 26.90625 
L 47.609375 26.90625 
z
M 28.609375 72.90625 
L 39.796875 72.90625 
L 67.578125 0 
L 57.328125 0 
L 50.6875 18.703125 
L 17.828125 18.703125 
L 11.1875 0 
L 0.78125 0 
z
" id="DejaVuSans-65"/>
      <path d="M 54.890625 33.015625 
L 54.890625 0 
L 45.90625 0 
L 45.90625 32.71875 
Q 45.90625 40.484375 42.875 44.328125 
Q 39.84375 48.1875 33.796875 48.1875 
Q 26.515625 48.1875 22.3125 43.546875 
Q 18.109375 38.921875 18.109375 30.90625 
L 18.109375 0 
L 9.078125 0 
L 9.078125 54.6875 
L 18.109375 54.6875 
L 18.109375 46.1875 
Q 21.34375 51.125 25.703125 53.5625 
Q 30.078125 56 35.796875 56 
Q 45.21875 56 50.046875 50.171875 
Q 54.890625 44.34375 54.890625 33.015625 
z
" id="DejaVuSans-110"/>
      <path d="M 5.515625 54.6875 
L 48.1875 54.6875 
L 48.1875 46.484375 
L 14.40625 7.171875 
L 48.1875 7.171875 
L 48.1875 0 
L 4.296875 0 
L 4.296875 8.203125 
L 38.09375 47.515625 
L 5.515625 47.515625 
z
" id="DejaVuSans-122"/>
      <path d="M 34.28125 27.484375 
Q 23.390625 27.484375 19.1875 25 
Q 14.984375 22.515625 14.984375 16.5 
Q 14.984375 11.71875 18.140625 8.90625 
Q 21.296875 6.109375 26.703125 6.109375 
Q 34.1875 6.109375 38.703125 11.40625 
Q 43.21875 16.703125 43.21875 25.484375 
L 43.21875 27.484375 
z
M 52.203125 31.203125 
L 52.203125 0 
L 43.21875 0 
L 43.21875 8.296875 
Q 40.140625 3.328125 35.546875 0.953125 
Q 30.953125 -1.421875 24.3125 -1.421875 
Q 15.921875 -1.421875 10.953125 3.296875 
Q 6 8.015625 6 15.921875 
Q 6 25.140625 12.171875 29.828125 
Q 18.359375 34.515625 30.609375 34.515625 
L 43.21875 34.515625 
L 43.21875 35.40625 
Q 43.21875 41.609375 39.140625 45 
Q 35.0625 48.390625 27.6875 48.390625 
Q 23 48.390625 18.546875 47.265625 
Q 14.109375 46.140625 10.015625 43.890625 
L 10.015625 52.203125 
Q 14.9375 54.109375 19.578125 55.046875 
Q 24.21875 56 28.609375 56 
Q 40.484375 56 46.34375 49.84375 
Q 52.203125 43.703125 52.203125 31.203125 
z
" id="DejaVuSans-97"/>
      <path d="M 54.890625 33.015625 
L 54.890625 0 
L 45.90625 0 
L 45.90625 32.71875 
Q 45.90625 40.484375 42.875 44.328125 
Q 39.84375 48.1875 33.796875 48.1875 
Q 26.515625 48.1875 22.3125 43.546875 
Q 18.109375 38.921875 18.109375 30.90625 
L 18.109375 0 
L 9.078125 0 
L 9.078125 75.984375 
L 18.109375 75.984375 
L 18.109375 46.1875 
Q 21.34375 51.125 25.703125 53.5625 
Q 30.078125 56 35.796875 56 
Q 45.21875 56 50.046875 50.171875 
Q 54.890625 44.34375 54.890625 33.015625 
z
" id="DejaVuSans-104"/>
      <path d="M 9.421875 75.984375 
L 18.40625 75.984375 
L 18.40625 0 
L 9.421875 0 
z
" id="DejaVuSans-108"/>
      <path id="DejaVuSans-32"/>
      <path d="M 2.984375 54.6875 
L 12.5 54.6875 
L 29.59375 8.796875 
L 46.6875 54.6875 
L 56.203125 54.6875 
L 35.6875 0 
L 23.484375 0 
z
" id="DejaVuSans-118"/>
      <path d="M 30.609375 48.390625 
Q 23.390625 48.390625 19.1875 42.75 
Q 14.984375 37.109375 14.984375 27.296875 
Q 14.984375 17.484375 19.15625 11.84375 
Q 23.34375 6.203125 30.609375 6.203125 
Q 37.796875 6.203125 41.984375 11.859375 
Q 46.1875 17.53125 46.1875 27.296875 
Q 46.1875 37.015625 41.984375 42.703125 
Q 37.796875 48.390625 30.609375 48.390625 
z
M 30.609375 56 
Q 42.328125 56 49.015625 48.375 
Q 55.71875 40.765625 55.71875 27.296875 
Q 55.71875 13.875 49.015625 6.21875 
Q 42.328125 -1.421875 30.609375 -1.421875 
Q 18.84375 -1.421875 12.171875 6.21875 
Q 5.515625 13.875 5.515625 27.296875 
Q 5.515625 40.765625 12.171875 48.375 
Q 18.84375 56 30.609375 56 
z
" id="DejaVuSans-111"/>
      <path d="M 9.8125 72.90625 
L 51.703125 72.90625 
L 51.703125 64.59375 
L 19.671875 64.59375 
L 19.671875 43.109375 
L 48.578125 43.109375 
L 48.578125 34.8125 
L 19.671875 34.8125 
L 19.671875 0 
L 9.8125 0 
z
" id="DejaVuSans-70"/>
      <path d="M 34.28125 27.484375 
Q 23.390625 27.484375 19.1875 25 
Q 14.984375 22.515625 14.984375 16.5 
Q 14.984375 11.71875 18.140625 8.90625 
Q 21.296875 6.109375 26.703125 6.109375 
Q 34.1875 6.109375 38.703125 11.40625 
Q 43.21875 16.703125 43.21875 25.484375 
L 43.21875 27.484375 
z
M 52.203125 31.203125 
L 52.203125 0 
L 43.21875 0 
L 43.21875 8.296875 
Q 40.140625 3.328125 35.546875 0.953125 
Q 30.953125 -1.421875 24.3125 -1.421875 
Q 15.921875 -1.421875 10.953125 3.296875 
Q 6 8.015625 6 15.921875 
Q 6 25.140625 12.171875 29.828125 
Q 18.359375 34.515625 30.609375 34.515625 
L 43.21875 34.515625 
L 43.21875 35.40625 
Q 43.21875 41.609375 39.140625 45 
Q 35.0625 48.390625 27.6875 48.390625 
Q 23 48.390625 18.546875 47.265625 
Q 14.109375 46.140625 10.015625 43.890625 
L 10.015625 52.203125 
Q 14.9375 54.109375 19.578125 55.046875 
Q 24.21875 56 28.609375 56 
Q 40.484375 56 46.34375 49.84375 
Q 52.203125 43.703125 52.203125 31.203125 
z
M 33.59375 75.78125 
L 43.5 75.78125 
L 43.5 65.921875 
L 33.59375 65.921875 
z
M 14.5 75.78125 
L 24.40625 75.78125 
L 24.40625 65.921875 
L 14.5 65.921875 
z
" id="DejaVuSans-228"/>
      <path d="M 56.203125 29.59375 
L 56.203125 25.203125 
L 14.890625 25.203125 
Q 15.484375 15.921875 20.484375 11.0625 
Q 25.484375 6.203125 34.421875 6.203125 
Q 39.59375 6.203125 44.453125 7.46875 
Q 49.3125 8.734375 54.109375 11.28125 
L 54.109375 2.78125 
Q 49.265625 0.734375 44.1875 -0.34375 
Q 39.109375 -1.421875 33.890625 -1.421875 
Q 20.796875 -1.421875 13.15625 6.1875 
Q 5.515625 13.8125 5.515625 26.8125 
Q 5.515625 40.234375 12.765625 48.109375 
Q 20.015625 56 32.328125 56 
Q 43.359375 56 49.78125 48.890625 
Q 56.203125 41.796875 56.203125 29.59375 
z
M 47.21875 32.234375 
Q 47.125 39.59375 43.09375 43.984375 
Q 39.0625 48.390625 32.421875 48.390625 
Q 24.90625 48.390625 20.390625 44.140625 
Q 15.875 39.890625 15.1875 32.171875 
z
" id="DejaVuSans-101"/>
     </defs>
     <g transform="translate(16.318125 309.388359)rotate(-90)scale(0.12 -0.12)">
      <use xlink:href="#DejaVuSans-65"/>
      <use x="68.408203" xlink:href="#DejaVuSans-110"/>
      <use x="131.787109" xlink:href="#DejaVuSans-122"/>
      <use x="184.277344" xlink:href="#DejaVuSans-97"/>
      <use x="245.556641" xlink:href="#DejaVuSans-104"/>
      <use x="308.935547" xlink:href="#DejaVuSans-108"/>
      <use x="336.71875" xlink:href="#DejaVuSans-32"/>
      <use x="368.505859" xlink:href="#DejaVuSans-118"/>
      <use x="427.685547" xlink:href="#DejaVuSans-111"/>
      <use x="488.867188" xlink:href="#DejaVuSans-110"/>
      <use x="552.246094" xlink:href="#DejaVuSans-32"/>
      <use x="584.033203" xlink:href="#DejaVuSans-70"/>
      <use x="632.427734" xlink:href="#DejaVuSans-228"/>
      <use x="693.707031" xlink:href="#DejaVuSans-108"/>
      <use x="721.490234" xlink:href="#DejaVuSans-108"/>
      <use x="749.273438" xlink:href="#DejaVuSans-101"/>
      <use x="810.796875" xlink:href="#DejaVuSans-110"/>
     </g>
    </g>
   </g>
   <g id="line2d_29">
    <path clip-path="url(#pd150471f22)" d="M 113.626023 480.196113 
L 119.664984 479.725231 
L 125.703945 479.725231 
L 131.742906 477.370819 
L 137.781867 472.661995 
L 143.820828 472.661995 
L 149.859789 471.249347 
L 155.89875 436.874931 
L 161.937711 426.044635 
L 167.976672 416.156104 
L 174.015633 406.267573 
L 180.054594 396.849925 
L 186.093555 392.1411 
L 192.132516 386.490511 
L 198.171477 381.310805 
L 204.210438 376.60198 
L 210.249399 369.538744 
L 216.28836 364.82992 
L 222.327321 359.650213 
L 228.366282 358.708448 
L 234.405244 353.999624 
L 246.483166 349.761682 
L 252.522127 346.465505 
L 258.561088 344.581975 
L 264.600049 340.814916 
L 270.63901 338.931386 
L 282.716932 336.576974 
L 288.755893 334.222562 
L 294.794854 329.98462 
L 300.833815 321.979619 
L 306.872776 320.566972 
L 312.911737 319.625207 
L 324.989659 316.799912 
L 331.02862 316.32903 
L 337.067581 314.916383 
L 343.106542 312.091088 
L 355.184464 305.027852 
L 367.262386 297.493733 
L 373.301347 297.022851 
L 379.340308 294.668439 
L 385.379269 292.784909 
L 391.418231 290.430497 
L 397.457192 287.605202 
L 409.535114 284.779908 
L 415.574075 283.36726 
L 421.613036 281.954613 
L 427.651997 278.658436 
L 433.690958 276.774906 
L 439.729919 276.774906 
L 451.807841 277.245789 
L 457.846802 274.420494 
L 463.885763 273.949612 
L 475.963685 272.066082 
L 482.002646 271.124317 
L 494.080568 271.124317 
L 500.119529 269.71167 
L 512.197451 266.886376 
L 518.236412 266.886376 
L 542.392256 265.473728 
L 548.431218 265.002846 
L 554.470179 265.002846 
L 560.50914 265.002846 
L 566.548101 264.531963 
L 578.626023 264.531963 
L 584.664984 264.531963 
L 590.703945 264.061081 
L 602.781867 262.648434 
L 608.820828 262.648434 
L 620.89875 261.235786 
L 632.976672 259.823139 
L 645.054594 258.410492 
L 651.093555 257.93961 
L 663.171477 257.93961 
L 669.210438 255.585197 
L 675.249399 254.643433 
L 681.28836 254.643433 
L 693.366282 254.643433 
L 705.444205 254.643433 
L 711.483166 254.643433 
L 717.522127 254.17255 
L 723.561088 253.230785 
L 729.600049 253.230785 
L 735.63901 248.521961 
L 747.716932 245.696667 
L 753.755893 240.046077 
L 759.794854 174.593421 
L 765.833815 160.466948 
L 771.872776 145.39871 
L 789.989659 113.378705 
L 796.02862 112.907823 
L 802.067581 111.495176 
L 808.106542 109.140764 
L 814.145503 105.844587 
L 832.262386 100.66488 
L 838.301347 100.193998 
L 844.340308 99.252233 
L 850.379269 98.78135 
L 856.418231 98.78135 
L 874.535114 97.368703 
L 880.574075 95.014291 
L 886.613036 95.014291 
L 892.651997 93.130761 
L 898.690958 91.718114 
L 959.080568 85.596642 
L 965.119529 84.183995 
L 977.197451 82.771348 
L 983.236412 82.300466 
L 1001.353295 78.533406 
L 1007.392256 78.062524 
L 1013.431218 78.062524 
L 1019.470179 73.824582 
L 1025.50914 72.882817 
L 1043.626023 66.761346 
L 1049.664984 63.465169 
L 1055.703945 62.523404 
L 1061.742906 59.698109 
L 1067.781867 58.756344 
L 1085.89875 56.401932 
L 1091.937711 54.989285 
L 1097.976672 54.518403 
L 1104.015633 52.634873 
L 1110.054594 50.751343 
L 1128.171477 49.338696 
" style="fill:none;stroke:#dbcd00;stroke-linecap:square;stroke-width:2;"/>
    <defs>
     <path d="M 0 1.5 
C 0.397805 1.5 0.77937 1.341951 1.06066 1.06066 
C 1.341951 0.77937 1.5 0.397805 1.5 0 
C 1.5 -0.397805 1.341951 -0.77937 1.06066 -1.06066 
C 0.77937 -1.341951 0.397805 -1.5 0 -1.5 
C -0.397805 -1.5 -0.77937 -1.341951 -1.06066 -1.06066 
C -1.341951 -0.77937 -1.5 -0.397805 -1.5 0 
C -1.5 0.397805 -1.341951 0.77937 -1.06066 1.06066 
C -0.77937 1.341951 -0.397805 1.5 0 1.5 
z
" id="m650602853c" style="stroke:#dbcd00;"/>
    </defs>
    <g clip-path="url(#pd150471f22)">
     <use style="fill:#dbcd00;stroke:#dbcd00;" x="113.626023" xlink:href="#m650602853c" y="480.196113"/>
     <use style="fill:#dbcd00;stroke:#dbcd00;" x="119.664984" xlink:href="#m650602853c" y="479.725231"/>
     <use style="fill:#dbcd00;stroke:#dbcd00;" x="125.703945" xlink:href="#m650602853c" y="479.725231"/>
     <use style="fill:#dbcd00;stroke:#dbcd00;" x="131.742906" xlink:href="#m650602853c" y="477.370819"/>
     <use style="fill:#dbcd00;stroke:#dbcd00;" x="137.781867" xlink:href="#m650602853c" y="472.661995"/>
     <use style="fill:#dbcd00;stroke:#dbcd00;" x="143.820828" xlink:href="#m650602853c" y="472.661995"/>
     <use style="fill:#dbcd00;stroke:#dbcd00;" x="149.859789" xlink:href="#m650602853c" y="471.249347"/>
     <use style="fill:#dbcd00;stroke:#dbcd00;" x="155.89875" xlink:href="#m650602853c" y="436.874931"/>
     <use style="fill:#dbcd00;stroke:#dbcd00;" x="161.937711" xlink:href="#m650602853c" y="426.044635"/>
     <use style="fill:#dbcd00;stroke:#dbcd00;" x="167.976672" xlink:href="#m650602853c" y="416.156104"/>
     <use style="fill:#dbcd00;stroke:#dbcd00;" x="174.015633" xlink:href="#m650602853c" y="406.267573"/>
     <use style="fill:#dbcd00;stroke:#dbcd00;" x="180.054594" xlink:href="#m650602853c" y="396.849925"/>
     <use style="fill:#dbcd00;stroke:#dbcd00;" x="186.093555" xlink:href="#m650602853c" y="392.1411"/>
     <use style="fill:#dbcd00;stroke:#dbcd00;" x="192.132516" xlink:href="#m650602853c" y="386.490511"/>
     <use style="fill:#dbcd00;stroke:#dbcd00;" x="198.171477" xlink:href="#m650602853c" y="381.310805"/>
     <use style="fill:#dbcd00;stroke:#dbcd00;" x="204.210438" xlink:href="#m650602853c" y="376.60198"/>
     <use style="fill:#dbcd00;stroke:#dbcd00;" x="210.249399" xlink:href="#m650602853c" y="369.538744"/>
     <use style="fill:#dbcd00;stroke:#dbcd00;" x="216.28836" xlink:href="#m650602853c" y="364.82992"/>
     <use style="fill:#dbcd00;stroke:#dbcd00;" x="222.327321" xlink:href="#m650602853c" y="359.650213"/>
     <use style="fill:#dbcd00;stroke:#dbcd00;" x="228.366282" xlink:href="#m650602853c" y="358.708448"/>
     <use style="fill:#dbcd00;stroke:#dbcd00;" x="234.405244" xlink:href="#m650602853c" y="353.999624"/>
     <use style="fill:#dbcd00;stroke:#dbcd00;" x="246.483166" xlink:href="#m650602853c" y="349.761682"/>
     <use style="fill:#dbcd00;stroke:#dbcd00;" x="252.522127" xlink:href="#m650602853c" y="346.465505"/>
     <use style="fill:#dbcd00;stroke:#dbcd00;" x="258.561088" xlink:href="#m650602853c" y="344.581975"/>
     <use style="fill:#dbcd00;stroke:#dbcd00;" x="264.600049" xlink:href="#m650602853c" y="340.814916"/>
     <use style="fill:#dbcd00;stroke:#dbcd00;" x="270.63901" xlink:href="#m650602853c" y="338.931386"/>
     <use style="fill:#dbcd00;stroke:#dbcd00;" x="282.716932" xlink:href="#m650602853c" y="336.576974"/>
     <use style="fill:#dbcd00;stroke:#dbcd00;" x="288.755893" xlink:href="#m650602853c" y="334.222562"/>
     <use style="fill:#dbcd00;stroke:#dbcd00;" x="294.794854" xlink:href="#m650602853c" y="329.98462"/>
     <use style="fill:#dbcd00;stroke:#dbcd00;" x="300.833815" xlink:href="#m650602853c" y="321.979619"/>
     <use style="fill:#dbcd00;stroke:#dbcd00;" x="306.872776" xlink:href="#m650602853c" y="320.566972"/>
     <use style="fill:#dbcd00;stroke:#dbcd00;" x="312.911737" xlink:href="#m650602853c" y="319.625207"/>
     <use style="fill:#dbcd00;stroke:#dbcd00;" x="324.989659" xlink:href="#m650602853c" y="316.799912"/>
     <use style="fill:#dbcd00;stroke:#dbcd00;" x="331.02862" xlink:href="#m650602853c" y="316.32903"/>
     <use style="fill:#dbcd00;stroke:#dbcd00;" x="337.067581" xlink:href="#m650602853c" y="314.916383"/>
     <use style="fill:#dbcd00;stroke:#dbcd00;" x="343.106542" xlink:href="#m650602853c" y="312.091088"/>
     <use style="fill:#dbcd00;stroke:#dbcd00;" x="355.184464" xlink:href="#m650602853c" y="305.027852"/>
     <use style="fill:#dbcd00;stroke:#dbcd00;" x="367.262386" xlink:href="#m650602853c" y="297.493733"/>
     <use style="fill:#dbcd00;stroke:#dbcd00;" x="373.301347" xlink:href="#m650602853c" y="297.022851"/>
     <use style="fill:#dbcd00;stroke:#dbcd00;" x="379.340308" xlink:href="#m650602853c" y="294.668439"/>
     <use style="fill:#dbcd00;stroke:#dbcd00;" x="385.379269" xlink:href="#m650602853c" y="292.784909"/>
     <use style="fill:#dbcd00;stroke:#dbcd00;" x="391.418231" xlink:href="#m650602853c" y="290.430497"/>
     <use style="fill:#dbcd00;stroke:#dbcd00;" x="397.457192" xlink:href="#m650602853c" y="287.605202"/>
     <use style="fill:#dbcd00;stroke:#dbcd00;" x="409.535114" xlink:href="#m650602853c" y="284.779908"/>
     <use style="fill:#dbcd00;stroke:#dbcd00;" x="415.574075" xlink:href="#m650602853c" y="283.36726"/>
     <use style="fill:#dbcd00;stroke:#dbcd00;" x="421.613036" xlink:href="#m650602853c" y="281.954613"/>
     <use style="fill:#dbcd00;stroke:#dbcd00;" x="427.651997" xlink:href="#m650602853c" y="278.658436"/>
     <use style="fill:#dbcd00;stroke:#dbcd00;" x="433.690958" xlink:href="#m650602853c" y="276.774906"/>
     <use style="fill:#dbcd00;stroke:#dbcd00;" x="439.729919" xlink:href="#m650602853c" y="276.774906"/>
     <use style="fill:#dbcd00;stroke:#dbcd00;" x="451.807841" xlink:href="#m650602853c" y="277.245789"/>
     <use style="fill:#dbcd00;stroke:#dbcd00;" x="457.846802" xlink:href="#m650602853c" y="274.420494"/>
     <use style="fill:#dbcd00;stroke:#dbcd00;" x="463.885763" xlink:href="#m650602853c" y="273.949612"/>
     <use style="fill:#dbcd00;stroke:#dbcd00;" x="475.963685" xlink:href="#m650602853c" y="272.066082"/>
     <use style="fill:#dbcd00;stroke:#dbcd00;" x="482.002646" xlink:href="#m650602853c" y="271.124317"/>
     <use style="fill:#dbcd00;stroke:#dbcd00;" x="494.080568" xlink:href="#m650602853c" y="271.124317"/>
     <use style="fill:#dbcd00;stroke:#dbcd00;" x="500.119529" xlink:href="#m650602853c" y="269.71167"/>
     <use style="fill:#dbcd00;stroke:#dbcd00;" x="512.197451" xlink:href="#m650602853c" y="266.886376"/>
     <use style="fill:#dbcd00;stroke:#dbcd00;" x="518.236412" xlink:href="#m650602853c" y="266.886376"/>
     <use style="fill:#dbcd00;stroke:#dbcd00;" x="542.392256" xlink:href="#m650602853c" y="265.473728"/>
     <use style="fill:#dbcd00;stroke:#dbcd00;" x="548.431218" xlink:href="#m650602853c" y="265.002846"/>
     <use style="fill:#dbcd00;stroke:#dbcd00;" x="554.470179" xlink:href="#m650602853c" y="265.002846"/>
     <use style="fill:#dbcd00;stroke:#dbcd00;" x="560.50914" xlink:href="#m650602853c" y="265.002846"/>
     <use style="fill:#dbcd00;stroke:#dbcd00;" x="566.548101" xlink:href="#m650602853c" y="264.531963"/>
     <use style="fill:#dbcd00;stroke:#dbcd00;" x="578.626023" xlink:href="#m650602853c" y="264.531963"/>
     <use style="fill:#dbcd00;stroke:#dbcd00;" x="584.664984" xlink:href="#m650602853c" y="264.531963"/>
     <use style="fill:#dbcd00;stroke:#dbcd00;" x="590.703945" xlink:href="#m650602853c" y="264.061081"/>
     <use style="fill:#dbcd00;stroke:#dbcd00;" x="602.781867" xlink:href="#m650602853c" y="262.648434"/>
     <use style="fill:#dbcd00;stroke:#dbcd00;" x="608.820828" xlink:href="#m650602853c" y="262.648434"/>
     <use style="fill:#dbcd00;stroke:#dbcd00;" x="620.89875" xlink:href="#m650602853c" y="261.235786"/>
     <use style="fill:#dbcd00;stroke:#dbcd00;" x="632.976672" xlink:href="#m650602853c" y="259.823139"/>
     <use style="fill:#dbcd00;stroke:#dbcd00;" x="645.054594" xlink:href="#m650602853c" y="258.410492"/>
     <use style="fill:#dbcd00;stroke:#dbcd00;" x="651.093555" xlink:href="#m650602853c" y="257.93961"/>
     <use style="fill:#dbcd00;stroke:#dbcd00;" x="663.171477" xlink:href="#m650602853c" y="257.93961"/>
     <use style="fill:#dbcd00;stroke:#dbcd00;" x="669.210438" xlink:href="#m650602853c" y="255.585197"/>
     <use style="fill:#dbcd00;stroke:#dbcd00;" x="675.249399" xlink:href="#m650602853c" y="254.643433"/>
     <use style="fill:#dbcd00;stroke:#dbcd00;" x="681.28836" xlink:href="#m650602853c" y="254.643433"/>
     <use style="fill:#dbcd00;stroke:#dbcd00;" x="693.366282" xlink:href="#m650602853c" y="254.643433"/>
     <use style="fill:#dbcd00;stroke:#dbcd00;" x="705.444205" xlink:href="#m650602853c" y="254.643433"/>
     <use style="fill:#dbcd00;stroke:#dbcd00;" x="711.483166" xlink:href="#m650602853c" y="254.643433"/>
     <use style="fill:#dbcd00;stroke:#dbcd00;" x="717.522127" xlink:href="#m650602853c" y="254.17255"/>
     <use style="fill:#dbcd00;stroke:#dbcd00;" x="723.561088" xlink:href="#m650602853c" y="253.230785"/>
     <use style="fill:#dbcd00;stroke:#dbcd00;" x="729.600049" xlink:href="#m650602853c" y="253.230785"/>
     <use style="fill:#dbcd00;stroke:#dbcd00;" x="735.63901" xlink:href="#m650602853c" y="248.521961"/>
     <use style="fill:#dbcd00;stroke:#dbcd00;" x="747.716932" xlink:href="#m650602853c" y="245.696667"/>
     <use style="fill:#dbcd00;stroke:#dbcd00;" x="753.755893" xlink:href="#m650602853c" y="240.046077"/>
     <use style="fill:#dbcd00;stroke:#dbcd00;" x="759.794854" xlink:href="#m650602853c" y="174.593421"/>
     <use style="fill:#dbcd00;stroke:#dbcd00;" x="765.833815" xlink:href="#m650602853c" y="160.466948"/>
     <use style="fill:#dbcd00;stroke:#dbcd00;" x="771.872776" xlink:href="#m650602853c" y="145.39871"/>
     <use style="fill:#dbcd00;stroke:#dbcd00;" x="789.989659" xlink:href="#m650602853c" y="113.378705"/>
     <use style="fill:#dbcd00;stroke:#dbcd00;" x="796.02862" xlink:href="#m650602853c" y="112.907823"/>
     <use style="fill:#dbcd00;stroke:#dbcd00;" x="802.067581" xlink:href="#m650602853c" y="111.495176"/>
     <use style="fill:#dbcd00;stroke:#dbcd00;" x="808.106542" xlink:href="#m650602853c" y="109.140764"/>
     <use style="fill:#dbcd00;stroke:#dbcd00;" x="814.145503" xlink:href="#m650602853c" y="105.844587"/>
     <use style="fill:#dbcd00;stroke:#dbcd00;" x="832.262386" xlink:href="#m650602853c" y="100.66488"/>
     <use style="fill:#dbcd00;stroke:#dbcd00;" x="838.301347" xlink:href="#m650602853c" y="100.193998"/>
     <use style="fill:#dbcd00;stroke:#dbcd00;" x="844.340308" xlink:href="#m650602853c" y="99.252233"/>
     <use style="fill:#dbcd00;stroke:#dbcd00;" x="850.379269" xlink:href="#m650602853c" y="98.78135"/>
     <use style="fill:#dbcd00;stroke:#dbcd00;" x="856.418231" xlink:href="#m650602853c" y="98.78135"/>
     <use style="fill:#dbcd00;stroke:#dbcd00;" x="874.535114" xlink:href="#m650602853c" y="97.368703"/>
     <use style="fill:#dbcd00;stroke:#dbcd00;" x="880.574075" xlink:href="#m650602853c" y="95.014291"/>
     <use style="fill:#dbcd00;stroke:#dbcd00;" x="886.613036" xlink:href="#m650602853c" y="95.014291"/>
     <use style="fill:#dbcd00;stroke:#dbcd00;" x="892.651997" xlink:href="#m650602853c" y="93.130761"/>
     <use style="fill:#dbcd00;stroke:#dbcd00;" x="898.690958" xlink:href="#m650602853c" y="91.718114"/>
     <use style="fill:#dbcd00;stroke:#dbcd00;" x="959.080568" xlink:href="#m650602853c" y="85.596642"/>
     <use style="fill:#dbcd00;stroke:#dbcd00;" x="965.119529" xlink:href="#m650602853c" y="84.183995"/>
     <use style="fill:#dbcd00;stroke:#dbcd00;" x="977.197451" xlink:href="#m650602853c" y="82.771348"/>
     <use style="fill:#dbcd00;stroke:#dbcd00;" x="983.236412" xlink:href="#m650602853c" y="82.300466"/>
     <use style="fill:#dbcd00;stroke:#dbcd00;" x="1001.353295" xlink:href="#m650602853c" y="78.533406"/>
     <use style="fill:#dbcd00;stroke:#dbcd00;" x="1007.392256" xlink:href="#m650602853c" y="78.062524"/>
     <use style="fill:#dbcd00;stroke:#dbcd00;" x="1013.431218" xlink:href="#m650602853c" y="78.062524"/>
     <use style="fill:#dbcd00;stroke:#dbcd00;" x="1019.470179" xlink:href="#m650602853c" y="73.824582"/>
     <use style="fill:#dbcd00;stroke:#dbcd00;" x="1025.50914" xlink:href="#m650602853c" y="72.882817"/>
     <use style="fill:#dbcd00;stroke:#dbcd00;" x="1043.626023" xlink:href="#m650602853c" y="66.761346"/>
     <use style="fill:#dbcd00;stroke:#dbcd00;" x="1049.664984" xlink:href="#m650602853c" y="63.465169"/>
     <use style="fill:#dbcd00;stroke:#dbcd00;" x="1055.703945" xlink:href="#m650602853c" y="62.523404"/>
     <use style="fill:#dbcd00;stroke:#dbcd00;" x="1061.742906" xlink:href="#m650602853c" y="59.698109"/>
     <use style="fill:#dbcd00;stroke:#dbcd00;" x="1067.781867" xlink:href="#m650602853c" y="58.756344"/>
     <use style="fill:#dbcd00;stroke:#dbcd00;" x="1085.89875" xlink:href="#m650602853c" y="56.401932"/>
     <use style="fill:#dbcd00;stroke:#dbcd00;" x="1091.937711" xlink:href="#m650602853c" y="54.989285"/>
     <use style="fill:#dbcd00;stroke:#dbcd00;" x="1097.976672" xlink:href="#m650602853c" y="54.518403"/>
     <use style="fill:#dbcd00;stroke:#dbcd00;" x="1104.015633" xlink:href="#m650602853c" y="52.634873"/>
     <use style="fill:#dbcd00;stroke:#dbcd00;" x="1110.054594" xlink:href="#m650602853c" y="50.751343"/>
     <use style="fill:#dbcd00;stroke:#dbcd00;" x="1128.171477" xlink:href="#m650602853c" y="49.338696"/>
    </g>
   </g>
   <g id="line2d_30">
    <path clip-path="url(#pd150471f22)" d="M 113.626023 388.374041 
L 119.664984 384.136099 
L 125.703945 371.422274 
L 131.742906 369.538744 
L 137.781867 362.475508 
L 143.820828 358.708448 
L 149.859789 358.237566 
L 155.89875 386.961394 
L 161.937711 394.495512 
L 167.976672 399.204337 
L 174.015633 401.558749 
L 180.054594 409.56375 
L 186.093555 413.801692 
L 192.132516 418.981398 
L 198.171477 422.748458 
L 204.210438 425.573752 
L 210.249399 427.457282 
L 216.28836 429.811694 
L 222.327321 430.753459 
L 228.366282 431.695224 
L 234.405244 434.991401 
L 246.483166 427.928164 
L 252.522127 429.811694 
L 258.561088 429.340812 
L 264.600049 429.811694 
L 270.63901 430.282577 
L 282.716932 434.520518 
L 288.755893 436.404048 
L 294.794854 439.700225 
L 300.833815 446.763461 
L 306.872776 439.700225 
L 312.911737 440.171107 
L 324.989659 442.054637 
L 331.02862 442.054637 
L 337.067581 441.112872 
L 343.106542 443.938167 
L 355.184464 447.705226 
L 367.262386 452.884933 
L 373.301347 453.355815 
L 379.340308 455.710227 
L 385.379269 457.593757 
L 391.418231 459.948169 
L 397.457192 462.302581 
L 409.535114 464.656994 
L 415.574075 466.069641 
L 421.613036 467.482288 
L 427.651997 470.778465 
L 433.690958 470.307583 
L 439.729919 469.8367 
L 451.807841 468.894935 
L 457.846802 471.72023 
L 463.885763 472.191112 
L 475.963685 473.60376 
L 482.002646 474.545524 
L 494.080568 474.545524 
L 500.119529 475.958172 
L 512.197451 479.725231 
L 518.236412 479.254349 
L 542.392256 477.841701 
L 548.431218 477.370819 
L 554.470179 476.429054 
L 560.50914 476.429054 
L 566.548101 476.899937 
L 578.626023 475.958172 
L 584.664984 475.487289 
L 590.703945 475.487289 
L 602.781867 471.249347 
L 608.820828 471.249347 
L 620.89875 467.011406 
L 632.976672 465.598758 
L 645.054594 439.700225 
L 651.093555 417.097869 
L 663.171477 416.156104 
L 669.210438 383.665217 
L 675.249399 384.606981 
L 681.28836 380.839922 
L 693.366282 373.305803 
L 705.444205 366.713449 
L 711.483166 359.179331 
L 717.522127 350.232565 
L 723.561088 340.344034 
L 729.600049 337.518739 
L 735.63901 342.227563 
L 747.716932 337.047857 
L 753.755893 342.227563 
L 759.794854 406.267573 
L 765.833815 418.981398 
L 771.872776 433.578754 
L 789.989659 465.598758 
L 796.02862 465.127876 
L 802.067581 466.069641 
L 808.106542 468.424053 
L 814.145503 470.307583 
L 832.262386 473.132877 
L 838.301347 473.60376 
L 844.340308 474.074642 
L 850.379269 474.074642 
L 856.418231 473.132877 
L 874.535114 471.72023 
L 880.574075 472.661995 
L 886.613036 471.72023 
L 892.651997 473.132877 
L 898.690958 474.074642 
L 959.080568 465.127876 
L 965.119529 464.186111 
L 977.197451 463.715229 
L 983.236412 461.360817 
L 1001.353295 460.419052 
L 1007.392256 459.948169 
L 1013.431218 459.477287 
L 1019.470179 463.715229 
L 1025.50914 463.244346 
L 1043.626023 466.540523 
L 1049.664984 469.365818 
L 1055.703945 467.95317 
L 1061.742906 470.307583 
L 1067.781867 471.249347 
L 1085.89875 473.60376 
L 1091.937711 473.132877 
L 1097.976672 472.661995 
L 1104.015633 474.545524 
L 1110.054594 475.016407 
L 1128.171477 473.60376 
" style="fill:none;stroke:#2792cb;stroke-linecap:square;stroke-width:2;"/>
    <defs>
     <path d="M 0 1.5 
C 0.397805 1.5 0.77937 1.341951 1.06066 1.06066 
C 1.341951 0.77937 1.5 0.397805 1.5 0 
C 1.5 -0.397805 1.341951 -0.77937 1.06066 -1.06066 
C 0.77937 -1.341951 0.397805 -1.5 0 -1.5 
C -0.397805 -1.5 -0.77937 -1.341951 -1.06066 -1.06066 
C -1.341951 -0.77937 -1.5 -0.397805 -1.5 0 
C -1.5 0.397805 -1.341951 0.77937 -1.06066 1.06066 
C -0.77937 1.341951 -0.397805 1.5 0 1.5 
z
" id="m8bf65fed41" style="stroke:#2792cb;"/>
    </defs>
    <g clip-path="url(#pd150471f22)">
     <use style="fill:#2792cb;stroke:#2792cb;" x="113.626023" xlink:href="#m8bf65fed41" y="388.374041"/>
     <use style="fill:#2792cb;stroke:#2792cb;" x="119.664984" xlink:href="#m8bf65fed41" y="384.136099"/>
     <use style="fill:#2792cb;stroke:#2792cb;" x="125.703945" xlink:href="#m8bf65fed41" y="371.422274"/>
     <use style="fill:#2792cb;stroke:#2792cb;" x="131.742906" xlink:href="#m8bf65fed41" y="369.538744"/>
     <use style="fill:#2792cb;stroke:#2792cb;" x="137.781867" xlink:href="#m8bf65fed41" y="362.475508"/>
     <use style="fill:#2792cb;stroke:#2792cb;" x="143.820828" xlink:href="#m8bf65fed41" y="358.708448"/>
     <use style="fill:#2792cb;stroke:#2792cb;" x="149.859789" xlink:href="#m8bf65fed41" y="358.237566"/>
     <use style="fill:#2792cb;stroke:#2792cb;" x="155.89875" xlink:href="#m8bf65fed41" y="386.961394"/>
     <use style="fill:#2792cb;stroke:#2792cb;" x="161.937711" xlink:href="#m8bf65fed41" y="394.495512"/>
     <use style="fill:#2792cb;stroke:#2792cb;" x="167.976672" xlink:href="#m8bf65fed41" y="399.204337"/>
     <use style="fill:#2792cb;stroke:#2792cb;" x="174.015633" xlink:href="#m8bf65fed41" y="401.558749"/>
     <use style="fill:#2792cb;stroke:#2792cb;" x="180.054594" xlink:href="#m8bf65fed41" y="409.56375"/>
     <use style="fill:#2792cb;stroke:#2792cb;" x="186.093555" xlink:href="#m8bf65fed41" y="413.801692"/>
     <use style="fill:#2792cb;stroke:#2792cb;" x="192.132516" xlink:href="#m8bf65fed41" y="418.981398"/>
     <use style="fill:#2792cb;stroke:#2792cb;" x="198.171477" xlink:href="#m8bf65fed41" y="422.748458"/>
     <use style="fill:#2792cb;stroke:#2792cb;" x="204.210438" xlink:href="#m8bf65fed41" y="425.573752"/>
     <use style="fill:#2792cb;stroke:#2792cb;" x="210.249399" xlink:href="#m8bf65fed41" y="427.457282"/>
     <use style="fill:#2792cb;stroke:#2792cb;" x="216.28836" xlink:href="#m8bf65fed41" y="429.811694"/>
     <use style="fill:#2792cb;stroke:#2792cb;" x="222.327321" xlink:href="#m8bf65fed41" y="430.753459"/>
     <use style="fill:#2792cb;stroke:#2792cb;" x="228.366282" xlink:href="#m8bf65fed41" y="431.695224"/>
     <use style="fill:#2792cb;stroke:#2792cb;" x="234.405244" xlink:href="#m8bf65fed41" y="434.991401"/>
     <use style="fill:#2792cb;stroke:#2792cb;" x="246.483166" xlink:href="#m8bf65fed41" y="427.928164"/>
     <use style="fill:#2792cb;stroke:#2792cb;" x="252.522127" xlink:href="#m8bf65fed41" y="429.811694"/>
     <use style="fill:#2792cb;stroke:#2792cb;" x="258.561088" xlink:href="#m8bf65fed41" y="429.340812"/>
     <use style="fill:#2792cb;stroke:#2792cb;" x="264.600049" xlink:href="#m8bf65fed41" y="429.811694"/>
     <use style="fill:#2792cb;stroke:#2792cb;" x="270.63901" xlink:href="#m8bf65fed41" y="430.282577"/>
     <use style="fill:#2792cb;stroke:#2792cb;" x="282.716932" xlink:href="#m8bf65fed41" y="434.520518"/>
     <use style="fill:#2792cb;stroke:#2792cb;" x="288.755893" xlink:href="#m8bf65fed41" y="436.404048"/>
     <use style="fill:#2792cb;stroke:#2792cb;" x="294.794854" xlink:href="#m8bf65fed41" y="439.700225"/>
     <use style="fill:#2792cb;stroke:#2792cb;" x="300.833815" xlink:href="#m8bf65fed41" y="446.763461"/>
     <use style="fill:#2792cb;stroke:#2792cb;" x="306.872776" xlink:href="#m8bf65fed41" y="439.700225"/>
     <use style="fill:#2792cb;stroke:#2792cb;" x="312.911737" xlink:href="#m8bf65fed41" y="440.171107"/>
     <use style="fill:#2792cb;stroke:#2792cb;" x="324.989659" xlink:href="#m8bf65fed41" y="442.054637"/>
     <use style="fill:#2792cb;stroke:#2792cb;" x="331.02862" xlink:href="#m8bf65fed41" y="442.054637"/>
     <use style="fill:#2792cb;stroke:#2792cb;" x="337.067581" xlink:href="#m8bf65fed41" y="441.112872"/>
     <use style="fill:#2792cb;stroke:#2792cb;" x="343.106542" xlink:href="#m8bf65fed41" y="443.938167"/>
     <use style="fill:#2792cb;stroke:#2792cb;" x="355.184464" xlink:href="#m8bf65fed41" y="447.705226"/>
     <use style="fill:#2792cb;stroke:#2792cb;" x="367.262386" xlink:href="#m8bf65fed41" y="452.884933"/>
     <use style="fill:#2792cb;stroke:#2792cb;" x="373.301347" xlink:href="#m8bf65fed41" y="453.355815"/>
     <use style="fill:#2792cb;stroke:#2792cb;" x="379.340308" xlink:href="#m8bf65fed41" y="455.710227"/>
     <use style="fill:#2792cb;stroke:#2792cb;" x="385.379269" xlink:href="#m8bf65fed41" y="457.593757"/>
     <use style="fill:#2792cb;stroke:#2792cb;" x="391.418231" xlink:href="#m8bf65fed41" y="459.948169"/>
     <use style="fill:#2792cb;stroke:#2792cb;" x="397.457192" xlink:href="#m8bf65fed41" y="462.302581"/>
     <use style="fill:#2792cb;stroke:#2792cb;" x="409.535114" xlink:href="#m8bf65fed41" y="464.656994"/>
     <use style="fill:#2792cb;stroke:#2792cb;" x="415.574075" xlink:href="#m8bf65fed41" y="466.069641"/>
     <use style="fill:#2792cb;stroke:#2792cb;" x="421.613036" xlink:href="#m8bf65fed41" y="467.482288"/>
     <use style="fill:#2792cb;stroke:#2792cb;" x="427.651997" xlink:href="#m8bf65fed41" y="470.778465"/>
     <use style="fill:#2792cb;stroke:#2792cb;" x="433.690958" xlink:href="#m8bf65fed41" y="470.307583"/>
     <use style="fill:#2792cb;stroke:#2792cb;" x="439.729919" xlink:href="#m8bf65fed41" y="469.8367"/>
     <use style="fill:#2792cb;stroke:#2792cb;" x="451.807841" xlink:href="#m8bf65fed41" y="468.894935"/>
     <use style="fill:#2792cb;stroke:#2792cb;" x="457.846802" xlink:href="#m8bf65fed41" y="471.72023"/>
     <use style="fill:#2792cb;stroke:#2792cb;" x="463.885763" xlink:href="#m8bf65fed41" y="472.191112"/>
     <use style="fill:#2792cb;stroke:#2792cb;" x="475.963685" xlink:href="#m8bf65fed41" y="473.60376"/>
     <use style="fill:#2792cb;stroke:#2792cb;" x="482.002646" xlink:href="#m8bf65fed41" y="474.545524"/>
     <use style="fill:#2792cb;stroke:#2792cb;" x="494.080568" xlink:href="#m8bf65fed41" y="474.545524"/>
     <use style="fill:#2792cb;stroke:#2792cb;" x="500.119529" xlink:href="#m8bf65fed41" y="475.958172"/>
     <use style="fill:#2792cb;stroke:#2792cb;" x="512.197451" xlink:href="#m8bf65fed41" y="479.725231"/>
     <use style="fill:#2792cb;stroke:#2792cb;" x="518.236412" xlink:href="#m8bf65fed41" y="479.254349"/>
     <use style="fill:#2792cb;stroke:#2792cb;" x="542.392256" xlink:href="#m8bf65fed41" y="477.841701"/>
     <use style="fill:#2792cb;stroke:#2792cb;" x="548.431218" xlink:href="#m8bf65fed41" y="477.370819"/>
     <use style="fill:#2792cb;stroke:#2792cb;" x="554.470179" xlink:href="#m8bf65fed41" y="476.429054"/>
     <use style="fill:#2792cb;stroke:#2792cb;" x="560.50914" xlink:href="#m8bf65fed41" y="476.429054"/>
     <use style="fill:#2792cb;stroke:#2792cb;" x="566.548101" xlink:href="#m8bf65fed41" y="476.899937"/>
     <use style="fill:#2792cb;stroke:#2792cb;" x="578.626023" xlink:href="#m8bf65fed41" y="475.958172"/>
     <use style="fill:#2792cb;stroke:#2792cb;" x="584.664984" xlink:href="#m8bf65fed41" y="475.487289"/>
     <use style="fill:#2792cb;stroke:#2792cb;" x="590.703945" xlink:href="#m8bf65fed41" y="475.487289"/>
     <use style="fill:#2792cb;stroke:#2792cb;" x="602.781867" xlink:href="#m8bf65fed41" y="471.249347"/>
     <use style="fill:#2792cb;stroke:#2792cb;" x="608.820828" xlink:href="#m8bf65fed41" y="471.249347"/>
     <use style="fill:#2792cb;stroke:#2792cb;" x="620.89875" xlink:href="#m8bf65fed41" y="467.011406"/>
     <use style="fill:#2792cb;stroke:#2792cb;" x="632.976672" xlink:href="#m8bf65fed41" y="465.598758"/>
     <use style="fill:#2792cb;stroke:#2792cb;" x="645.054594" xlink:href="#m8bf65fed41" y="439.700225"/>
     <use style="fill:#2792cb;stroke:#2792cb;" x="651.093555" xlink:href="#m8bf65fed41" y="417.097869"/>
     <use style="fill:#2792cb;stroke:#2792cb;" x="663.171477" xlink:href="#m8bf65fed41" y="416.156104"/>
     <use style="fill:#2792cb;stroke:#2792cb;" x="669.210438" xlink:href="#m8bf65fed41" y="383.665217"/>
     <use style="fill:#2792cb;stroke:#2792cb;" x="675.249399" xlink:href="#m8bf65fed41" y="384.606981"/>
     <use style="fill:#2792cb;stroke:#2792cb;" x="681.28836" xlink:href="#m8bf65fed41" y="380.839922"/>
     <use style="fill:#2792cb;stroke:#2792cb;" x="693.366282" xlink:href="#m8bf65fed41" y="373.305803"/>
     <use style="fill:#2792cb;stroke:#2792cb;" x="705.444205" xlink:href="#m8bf65fed41" y="366.713449"/>
     <use style="fill:#2792cb;stroke:#2792cb;" x="711.483166" xlink:href="#m8bf65fed41" y="359.179331"/>
     <use style="fill:#2792cb;stroke:#2792cb;" x="717.522127" xlink:href="#m8bf65fed41" y="350.232565"/>
     <use style="fill:#2792cb;stroke:#2792cb;" x="723.561088" xlink:href="#m8bf65fed41" y="340.344034"/>
     <use style="fill:#2792cb;stroke:#2792cb;" x="729.600049" xlink:href="#m8bf65fed41" y="337.518739"/>
     <use style="fill:#2792cb;stroke:#2792cb;" x="735.63901" xlink:href="#m8bf65fed41" y="342.227563"/>
     <use style="fill:#2792cb;stroke:#2792cb;" x="747.716932" xlink:href="#m8bf65fed41" y="337.047857"/>
     <use style="fill:#2792cb;stroke:#2792cb;" x="753.755893" xlink:href="#m8bf65fed41" y="342.227563"/>
     <use style="fill:#2792cb;stroke:#2792cb;" x="759.794854" xlink:href="#m8bf65fed41" y="406.267573"/>
     <use style="fill:#2792cb;stroke:#2792cb;" x="765.833815" xlink:href="#m8bf65fed41" y="418.981398"/>
     <use style="fill:#2792cb;stroke:#2792cb;" x="771.872776" xlink:href="#m8bf65fed41" y="433.578754"/>
     <use style="fill:#2792cb;stroke:#2792cb;" x="789.989659" xlink:href="#m8bf65fed41" y="465.598758"/>
     <use style="fill:#2792cb;stroke:#2792cb;" x="796.02862" xlink:href="#m8bf65fed41" y="465.127876"/>
     <use style="fill:#2792cb;stroke:#2792cb;" x="802.067581" xlink:href="#m8bf65fed41" y="466.069641"/>
     <use style="fill:#2792cb;stroke:#2792cb;" x="808.106542" xlink:href="#m8bf65fed41" y="468.424053"/>
     <use style="fill:#2792cb;stroke:#2792cb;" x="814.145503" xlink:href="#m8bf65fed41" y="470.307583"/>
     <use style="fill:#2792cb;stroke:#2792cb;" x="832.262386" xlink:href="#m8bf65fed41" y="473.132877"/>
     <use style="fill:#2792cb;stroke:#2792cb;" x="838.301347" xlink:href="#m8bf65fed41" y="473.60376"/>
     <use style="fill:#2792cb;stroke:#2792cb;" x="844.340308" xlink:href="#m8bf65fed41" y="474.074642"/>
     <use style="fill:#2792cb;stroke:#2792cb;" x="850.379269" xlink:href="#m8bf65fed41" y="474.074642"/>
     <use style="fill:#2792cb;stroke:#2792cb;" x="856.418231" xlink:href="#m8bf65fed41" y="473.132877"/>
     <use style="fill:#2792cb;stroke:#2792cb;" x="874.535114" xlink:href="#m8bf65fed41" y="471.72023"/>
     <use style="fill:#2792cb;stroke:#2792cb;" x="880.574075" xlink:href="#m8bf65fed41" y="472.661995"/>
     <use style="fill:#2792cb;stroke:#2792cb;" x="886.613036" xlink:href="#m8bf65fed41" y="471.72023"/>
     <use style="fill:#2792cb;stroke:#2792cb;" x="892.651997" xlink:href="#m8bf65fed41" y="473.132877"/>
     <use style="fill:#2792cb;stroke:#2792cb;" x="898.690958" xlink:href="#m8bf65fed41" y="474.074642"/>
     <use style="fill:#2792cb;stroke:#2792cb;" x="959.080568" xlink:href="#m8bf65fed41" y="465.127876"/>
     <use style="fill:#2792cb;stroke:#2792cb;" x="965.119529" xlink:href="#m8bf65fed41" y="464.186111"/>
     <use style="fill:#2792cb;stroke:#2792cb;" x="977.197451" xlink:href="#m8bf65fed41" y="463.715229"/>
     <use style="fill:#2792cb;stroke:#2792cb;" x="983.236412" xlink:href="#m8bf65fed41" y="461.360817"/>
     <use style="fill:#2792cb;stroke:#2792cb;" x="1001.353295" xlink:href="#m8bf65fed41" y="460.419052"/>
     <use style="fill:#2792cb;stroke:#2792cb;" x="1007.392256" xlink:href="#m8bf65fed41" y="459.948169"/>
     <use style="fill:#2792cb;stroke:#2792cb;" x="1013.431218" xlink:href="#m8bf65fed41" y="459.477287"/>
     <use style="fill:#2792cb;stroke:#2792cb;" x="1019.470179" xlink:href="#m8bf65fed41" y="463.715229"/>
     <use style="fill:#2792cb;stroke:#2792cb;" x="1025.50914" xlink:href="#m8bf65fed41" y="463.244346"/>
     <use style="fill:#2792cb;stroke:#2792cb;" x="1043.626023" xlink:href="#m8bf65fed41" y="466.540523"/>
     <use style="fill:#2792cb;stroke:#2792cb;" x="1049.664984" xlink:href="#m8bf65fed41" y="469.365818"/>
     <use style="fill:#2792cb;stroke:#2792cb;" x="1055.703945" xlink:href="#m8bf65fed41" y="467.95317"/>
     <use style="fill:#2792cb;stroke:#2792cb;" x="1061.742906" xlink:href="#m8bf65fed41" y="470.307583"/>
     <use style="fill:#2792cb;stroke:#2792cb;" x="1067.781867" xlink:href="#m8bf65fed41" y="471.249347"/>
     <use style="fill:#2792cb;stroke:#2792cb;" x="1085.89875" xlink:href="#m8bf65fed41" y="473.60376"/>
     <use style="fill:#2792cb;stroke:#2792cb;" x="1091.937711" xlink:href="#m8bf65fed41" y="473.132877"/>
     <use style="fill:#2792cb;stroke:#2792cb;" x="1097.976672" xlink:href="#m8bf65fed41" y="472.661995"/>
     <use style="fill:#2792cb;stroke:#2792cb;" x="1104.015633" xlink:href="#m8bf65fed41" y="474.545524"/>
     <use style="fill:#2792cb;stroke:#2792cb;" x="1110.054594" xlink:href="#m8bf65fed41" y="475.016407"/>
     <use style="fill:#2792cb;stroke:#2792cb;" x="1128.171477" xlink:href="#m8bf65fed41" y="473.60376"/>
    </g>
   </g>
   <g id="patch_3">
    <path d="M 62.89875 501.738984 
L 1178.89875 501.738984 
" style="fill:none;stroke:#000000;stroke-linecap:square;stroke-linejoin:miter;stroke-width:0.8;"/>
   </g>
   <g id="legend_1">
    <g id="line2d_31">
     <path d="M 71.89875 25.237422 
L 91.89875 25.237422 
" style="fill:none;stroke:#dbcd00;stroke-linecap:square;stroke-width:2;"/>
    </g>
    <g id="line2d_32">
     <g>
      <use style="fill:#dbcd00;stroke:#dbcd00;" x="81.89875" xlink:href="#m650602853c" y="25.237422"/>
     </g>
    </g>
    <g id="text_19">
     <!-- Genesene -->
     <defs>
      <path d="M 59.515625 10.40625 
L 59.515625 29.984375 
L 43.40625 29.984375 
L 43.40625 38.09375 
L 69.28125 38.09375 
L 69.28125 6.78125 
Q 63.578125 2.734375 56.6875 0.65625 
Q 49.8125 -1.421875 42 -1.421875 
Q 24.90625 -1.421875 15.25 8.5625 
Q 5.609375 18.5625 5.609375 36.375 
Q 5.609375 54.25 15.25 64.234375 
Q 24.90625 74.21875 42 74.21875 
Q 49.125 74.21875 55.546875 72.453125 
Q 61.96875 70.703125 67.390625 67.28125 
L 67.390625 56.78125 
Q 61.921875 61.421875 55.765625 63.765625 
Q 49.609375 66.109375 42.828125 66.109375 
Q 29.4375 66.109375 22.71875 58.640625 
Q 16.015625 51.171875 16.015625 36.375 
Q 16.015625 21.625 22.71875 14.15625 
Q 29.4375 6.6875 42.828125 6.6875 
Q 48.046875 6.6875 52.140625 7.59375 
Q 56.25 8.5 59.515625 10.40625 
z
" id="DejaVuSans-71"/>
      <path d="M 44.28125 53.078125 
L 44.28125 44.578125 
Q 40.484375 46.53125 36.375 47.5 
Q 32.28125 48.484375 27.875 48.484375 
Q 21.1875 48.484375 17.84375 46.4375 
Q 14.5 44.390625 14.5 40.28125 
Q 14.5 37.15625 16.890625 35.375 
Q 19.28125 33.59375 26.515625 31.984375 
L 29.59375 31.296875 
Q 39.15625 29.25 43.1875 25.515625 
Q 47.21875 21.78125 47.21875 15.09375 
Q 47.21875 7.46875 41.1875 3.015625 
Q 35.15625 -1.421875 24.609375 -1.421875 
Q 20.21875 -1.421875 15.453125 -0.5625 
Q 10.6875 0.296875 5.421875 2 
L 5.421875 11.28125 
Q 10.40625 8.6875 15.234375 7.390625 
Q 20.0625 6.109375 24.8125 6.109375 
Q 31.15625 6.109375 34.5625 8.28125 
Q 37.984375 10.453125 37.984375 14.40625 
Q 37.984375 18.0625 35.515625 20.015625 
Q 33.0625 21.96875 24.703125 23.78125 
L 21.578125 24.515625 
Q 13.234375 26.265625 9.515625 29.90625 
Q 5.8125 33.546875 5.8125 39.890625 
Q 5.8125 47.609375 11.28125 51.796875 
Q 16.75 56 26.8125 56 
Q 31.78125 56 36.171875 55.265625 
Q 40.578125 54.546875 44.28125 53.078125 
z
" id="DejaVuSans-115"/>
     </defs>
     <g transform="translate(99.89875 28.737422)scale(0.1 -0.1)">
      <use xlink:href="#DejaVuSans-71"/>
      <use x="77.490234" xlink:href="#DejaVuSans-101"/>
      <use x="139.013672" xlink:href="#DejaVuSans-110"/>
      <use x="202.392578" xlink:href="#DejaVuSans-101"/>
      <use x="263.916016" xlink:href="#DejaVuSans-115"/>
      <use x="316.015625" xlink:href="#DejaVuSans-101"/>
      <use x="377.539062" xlink:href="#DejaVuSans-110"/>
      <use x="440.917969" xlink:href="#DejaVuSans-101"/>
     </g>
    </g>
    <g id="line2d_33">
     <path d="M 71.89875 39.915547 
L 91.89875 39.915547 
" style="fill:none;stroke:#2792cb;stroke-linecap:square;stroke-width:2;"/>
    </g>
    <g id="line2d_34">
     <g>
      <use style="fill:#2792cb;stroke:#2792cb;" x="81.89875" xlink:href="#m8bf65fed41" y="39.915547"/>
     </g>
    </g>
    <g id="text_20">
     <!-- Erkrankte -->
     <defs>
      <path d="M 9.8125 72.90625 
L 55.90625 72.90625 
L 55.90625 64.59375 
L 19.671875 64.59375 
L 19.671875 43.015625 
L 54.390625 43.015625 
L 54.390625 34.71875 
L 19.671875 34.71875 
L 19.671875 8.296875 
L 56.78125 8.296875 
L 56.78125 0 
L 9.8125 0 
z
" id="DejaVuSans-69"/>
      <path d="M 41.109375 46.296875 
Q 39.59375 47.171875 37.8125 47.578125 
Q 36.03125 48 33.890625 48 
Q 26.265625 48 22.1875 43.046875 
Q 18.109375 38.09375 18.109375 28.8125 
L 18.109375 0 
L 9.078125 0 
L 9.078125 54.6875 
L 18.109375 54.6875 
L 18.109375 46.1875 
Q 20.953125 51.171875 25.484375 53.578125 
Q 30.03125 56 36.53125 56 
Q 37.453125 56 38.578125 55.875 
Q 39.703125 55.765625 41.0625 55.515625 
z
" id="DejaVuSans-114"/>
      <path d="M 9.078125 75.984375 
L 18.109375 75.984375 
L 18.109375 31.109375 
L 44.921875 54.6875 
L 56.390625 54.6875 
L 27.390625 29.109375 
L 57.625 0 
L 45.90625 0 
L 18.109375 26.703125 
L 18.109375 0 
L 9.078125 0 
z
" id="DejaVuSans-107"/>
      <path d="M 18.3125 70.21875 
L 18.3125 54.6875 
L 36.8125 54.6875 
L 36.8125 47.703125 
L 18.3125 47.703125 
L 18.3125 18.015625 
Q 18.3125 11.328125 20.140625 9.421875 
Q 21.96875 7.515625 27.59375 7.515625 
L 36.8125 7.515625 
L 36.8125 0 
L 27.59375 0 
Q 17.1875 0 13.234375 3.875 
Q 9.28125 7.765625 9.28125 18.015625 
L 9.28125 47.703125 
L 2.6875 47.703125 
L 2.6875 54.6875 
L 9.28125 54.6875 
L 9.28125 70.21875 
z
" id="DejaVuSans-116"/>
     </defs>
     <g transform="translate(99.89875 43.415547)scale(0.1 -0.1)">
      <use xlink:href="#DejaVuSans-69"/>
      <use x="63.183594" xlink:href="#DejaVuSans-114"/>
      <use x="104.296875" xlink:href="#DejaVuSans-107"/>
      <use x="162.207031" xlink:href="#DejaVuSans-114"/>
      <use x="203.320312" xlink:href="#DejaVuSans-97"/>
      <use x="264.599609" xlink:href="#DejaVuSans-110"/>
      <use x="327.978516" xlink:href="#DejaVuSans-107"/>
      <use x="385.888672" xlink:href="#DejaVuSans-116"/>
      <use x="425.097656" xlink:href="#DejaVuSans-101"/>
     </g>
    </g>
   </g>
  </g>
 </g>
 <defs>
  <clipPath id="pd150471f22">
   <rect height="489.6" width="1116" x="62.89875" y="12.138984"/>
  </clipPath>
 </defs>
</svg>
