<?xml version="1.0" encoding="utf-8" standalone="no"?>
<!DOCTYPE svg PUBLIC "-//W3C//DTD SVG 1.1//EN"
  "http://www.w3.org/Graphics/SVG/1.1/DTD/svg11.dtd">
<!-- Created with matplotlib (https://matplotlib.org/) -->
<svg height="564.610093pt" version="1.1" viewBox="0 0 1186.09875 564.610093" width="1186.09875pt" xmlns="http://www.w3.org/2000/svg" xmlns:xlink="http://www.w3.org/1999/xlink">
 <defs>
  <style type="text/css">
*{stroke-linecap:butt;stroke-linejoin:round;}
  </style>
 </defs>
 <g id="figure_1">
  <g id="patch_1">
   <path d="M 0 564.610093 
L 1186.09875 564.610093 
L 1186.09875 0 
L 0 0 
z
" style="fill:#ffffff;"/>
  </g>
  <g id="axes_1">
   <g id="patch_2">
    <path d="M 62.89875 501.738984 
L 1178.89875 501.738984 
L 1178.89875 12.138984 
L 62.89875 12.138984 
z
" style="fill:#ffffff;"/>
   </g>
   <g id="matplotlib.axis_1">
    <g id="xtick_1">
     <g id="line2d_1">
      <defs>
       <path d="M 0 0 
L 0 3.5 
" id="m6a3c45c4f5" style="stroke:#000000;stroke-width:0.8;"/>
      </defs>
      <g>
       <use style="stroke:#000000;stroke-width:0.8;" x="152.647002" xlink:href="#m6a3c45c4f5" y="501.738984"/>
      </g>
     </g>
     <g id="text_1">
      <!-- 2020-03-15 -->
      <defs>
       <path d="M 19.1875 8.296875 
L 53.609375 8.296875 
L 53.609375 0 
L 7.328125 0 
L 7.328125 8.296875 
Q 12.9375 14.109375 22.625 23.890625 
Q 32.328125 33.6875 34.8125 36.53125 
Q 39.546875 41.84375 41.421875 45.53125 
Q 43.3125 49.21875 43.3125 52.78125 
Q 43.3125 58.59375 39.234375 62.25 
Q 35.15625 65.921875 28.609375 65.921875 
Q 23.96875 65.921875 18.8125 64.3125 
Q 13.671875 62.703125 7.8125 59.421875 
L 7.8125 69.390625 
Q 13.765625 71.78125 18.9375 73 
Q 24.125 74.21875 28.421875 74.21875 
Q 39.75 74.21875 46.484375 68.546875 
Q 53.21875 62.890625 53.21875 53.421875 
Q 53.21875 48.921875 51.53125 44.890625 
Q 49.859375 40.875 45.40625 35.40625 
Q 44.1875 33.984375 37.640625 27.21875 
Q 31.109375 20.453125 19.1875 8.296875 
z
" id="DejaVuSans-50"/>
       <path d="M 31.78125 66.40625 
Q 24.171875 66.40625 20.328125 58.90625 
Q 16.5 51.421875 16.5 36.375 
Q 16.5 21.390625 20.328125 13.890625 
Q 24.171875 6.390625 31.78125 6.390625 
Q 39.453125 6.390625 43.28125 13.890625 
Q 47.125 21.390625 47.125 36.375 
Q 47.125 51.421875 43.28125 58.90625 
Q 39.453125 66.40625 31.78125 66.40625 
z
M 31.78125 74.21875 
Q 44.046875 74.21875 50.515625 64.515625 
Q 56.984375 54.828125 56.984375 36.375 
Q 56.984375 17.96875 50.515625 8.265625 
Q 44.046875 -1.421875 31.78125 -1.421875 
Q 19.53125 -1.421875 13.0625 8.265625 
Q 6.59375 17.96875 6.59375 36.375 
Q 6.59375 54.828125 13.0625 64.515625 
Q 19.53125 74.21875 31.78125 74.21875 
z
" id="DejaVuSans-48"/>
       <path d="M 4.890625 31.390625 
L 31.203125 31.390625 
L 31.203125 23.390625 
L 4.890625 23.390625 
z
" id="DejaVuSans-45"/>
       <path d="M 40.578125 39.3125 
Q 47.65625 37.796875 51.625 33 
Q 55.609375 28.21875 55.609375 21.1875 
Q 55.609375 10.40625 48.1875 4.484375 
Q 40.765625 -1.421875 27.09375 -1.421875 
Q 22.515625 -1.421875 17.65625 -0.515625 
Q 12.796875 0.390625 7.625 2.203125 
L 7.625 11.71875 
Q 11.71875 9.328125 16.59375 8.109375 
Q 21.484375 6.890625 26.8125 6.890625 
Q 36.078125 6.890625 40.9375 10.546875 
Q 45.796875 14.203125 45.796875 21.1875 
Q 45.796875 27.640625 41.28125 31.265625 
Q 36.765625 34.90625 28.71875 34.90625 
L 20.21875 34.90625 
L 20.21875 43.015625 
L 29.109375 43.015625 
Q 36.375 43.015625 40.234375 45.921875 
Q 44.09375 48.828125 44.09375 54.296875 
Q 44.09375 59.90625 40.109375 62.90625 
Q 36.140625 65.921875 28.71875 65.921875 
Q 24.65625 65.921875 20.015625 65.03125 
Q 15.375 64.15625 9.8125 62.3125 
L 9.8125 71.09375 
Q 15.4375 72.65625 20.34375 73.4375 
Q 25.25 74.21875 29.59375 74.21875 
Q 40.828125 74.21875 47.359375 69.109375 
Q 53.90625 64.015625 53.90625 55.328125 
Q 53.90625 49.265625 50.4375 45.09375 
Q 46.96875 40.921875 40.578125 39.3125 
z
" id="DejaVuSans-51"/>
       <path d="M 12.40625 8.296875 
L 28.515625 8.296875 
L 28.515625 63.921875 
L 10.984375 60.40625 
L 10.984375 69.390625 
L 28.421875 72.90625 
L 38.28125 72.90625 
L 38.28125 8.296875 
L 54.390625 8.296875 
L 54.390625 0 
L 12.40625 0 
z
" id="DejaVuSans-49"/>
       <path d="M 10.796875 72.90625 
L 49.515625 72.90625 
L 49.515625 64.59375 
L 19.828125 64.59375 
L 19.828125 46.734375 
Q 21.96875 47.46875 24.109375 47.828125 
Q 26.265625 48.1875 28.421875 48.1875 
Q 40.625 48.1875 47.75 41.5 
Q 54.890625 34.8125 54.890625 23.390625 
Q 54.890625 11.625 47.5625 5.09375 
Q 40.234375 -1.421875 26.90625 -1.421875 
Q 22.3125 -1.421875 17.546875 -0.640625 
Q 12.796875 0.140625 7.71875 1.703125 
L 7.71875 11.625 
Q 12.109375 9.234375 16.796875 8.0625 
Q 21.484375 6.890625 26.703125 6.890625 
Q 35.15625 6.890625 40.078125 11.328125 
Q 45.015625 15.765625 45.015625 23.390625 
Q 45.015625 31 40.078125 35.4375 
Q 35.15625 39.890625 26.703125 39.890625 
Q 22.75 39.890625 18.8125 39.015625 
Q 14.890625 38.140625 10.796875 36.28125 
z
" id="DejaVuSans-53"/>
      </defs>
      <g transform="translate(85.866715 555.068713)rotate(-30)scale(0.13 -0.13)">
       <use xlink:href="#DejaVuSans-50"/>
       <use x="63.623047" xlink:href="#DejaVuSans-48"/>
       <use x="127.246094" xlink:href="#DejaVuSans-50"/>
       <use x="190.869141" xlink:href="#DejaVuSans-48"/>
       <use x="254.492188" xlink:href="#DejaVuSans-45"/>
       <use x="290.576172" xlink:href="#DejaVuSans-48"/>
       <use x="354.199219" xlink:href="#DejaVuSans-51"/>
       <use x="417.822266" xlink:href="#DejaVuSans-45"/>
       <use x="453.90625" xlink:href="#DejaVuSans-49"/>
       <use x="517.529297" xlink:href="#DejaVuSans-53"/>
      </g>
     </g>
    </g>
    <g id="xtick_2">
     <g id="line2d_2">
      <g>
       <use style="stroke:#000000;stroke-width:0.8;" x="373.765883" xlink:href="#m6a3c45c4f5" y="501.738984"/>
      </g>
     </g>
     <g id="text_2">
      <!-- 2020-04-01 -->
      <defs>
       <path d="M 37.796875 64.3125 
L 12.890625 25.390625 
L 37.796875 25.390625 
z
M 35.203125 72.90625 
L 47.609375 72.90625 
L 47.609375 25.390625 
L 58.015625 25.390625 
L 58.015625 17.1875 
L 47.609375 17.1875 
L 47.609375 0 
L 37.796875 0 
L 37.796875 17.1875 
L 4.890625 17.1875 
L 4.890625 26.703125 
z
" id="DejaVuSans-52"/>
      </defs>
      <g transform="translate(306.985596 555.068713)rotate(-30)scale(0.13 -0.13)">
       <use xlink:href="#DejaVuSans-50"/>
       <use x="63.623047" xlink:href="#DejaVuSans-48"/>
       <use x="127.246094" xlink:href="#DejaVuSans-50"/>
       <use x="190.869141" xlink:href="#DejaVuSans-48"/>
       <use x="254.492188" xlink:href="#DejaVuSans-45"/>
       <use x="290.576172" xlink:href="#DejaVuSans-48"/>
       <use x="354.199219" xlink:href="#DejaVuSans-52"/>
       <use x="417.822266" xlink:href="#DejaVuSans-45"/>
       <use x="453.90625" xlink:href="#DejaVuSans-48"/>
       <use x="517.529297" xlink:href="#DejaVuSans-49"/>
      </g>
     </g>
    </g>
    <g id="xtick_3">
     <g id="line2d_3">
      <g>
       <use style="stroke:#000000;stroke-width:0.8;" x="555.863785" xlink:href="#m6a3c45c4f5" y="501.738984"/>
      </g>
     </g>
     <g id="text_3">
      <!-- 2020-04-15 -->
      <g transform="translate(489.083498 555.068713)rotate(-30)scale(0.13 -0.13)">
       <use xlink:href="#DejaVuSans-50"/>
       <use x="63.623047" xlink:href="#DejaVuSans-48"/>
       <use x="127.246094" xlink:href="#DejaVuSans-50"/>
       <use x="190.869141" xlink:href="#DejaVuSans-48"/>
       <use x="254.492188" xlink:href="#DejaVuSans-45"/>
       <use x="290.576172" xlink:href="#DejaVuSans-48"/>
       <use x="354.199219" xlink:href="#DejaVuSans-52"/>
       <use x="417.822266" xlink:href="#DejaVuSans-45"/>
       <use x="453.90625" xlink:href="#DejaVuSans-49"/>
       <use x="517.529297" xlink:href="#DejaVuSans-53"/>
      </g>
     </g>
    </g>
    <g id="xtick_4">
     <g id="line2d_4">
      <g>
       <use style="stroke:#000000;stroke-width:0.8;" x="763.975673" xlink:href="#m6a3c45c4f5" y="501.738984"/>
      </g>
     </g>
     <g id="text_4">
      <!-- 2020-05-01 -->
      <g transform="translate(697.195386 555.068713)rotate(-30)scale(0.13 -0.13)">
       <use xlink:href="#DejaVuSans-50"/>
       <use x="63.623047" xlink:href="#DejaVuSans-48"/>
       <use x="127.246094" xlink:href="#DejaVuSans-50"/>
       <use x="190.869141" xlink:href="#DejaVuSans-48"/>
       <use x="254.492188" xlink:href="#DejaVuSans-45"/>
       <use x="290.576172" xlink:href="#DejaVuSans-48"/>
       <use x="354.199219" xlink:href="#DejaVuSans-53"/>
       <use x="417.822266" xlink:href="#DejaVuSans-45"/>
       <use x="453.90625" xlink:href="#DejaVuSans-48"/>
       <use x="517.529297" xlink:href="#DejaVuSans-49"/>
      </g>
     </g>
    </g>
    <g id="xtick_5">
     <g id="line2d_5">
      <g>
       <use style="stroke:#000000;stroke-width:0.8;" x="946.073575" xlink:href="#m6a3c45c4f5" y="501.738984"/>
      </g>
     </g>
     <g id="text_5">
      <!-- 2020-05-15 -->
      <g transform="translate(879.293288 555.068713)rotate(-30)scale(0.13 -0.13)">
       <use xlink:href="#DejaVuSans-50"/>
       <use x="63.623047" xlink:href="#DejaVuSans-48"/>
       <use x="127.246094" xlink:href="#DejaVuSans-50"/>
       <use x="190.869141" xlink:href="#DejaVuSans-48"/>
       <use x="254.492188" xlink:href="#DejaVuSans-45"/>
       <use x="290.576172" xlink:href="#DejaVuSans-48"/>
       <use x="354.199219" xlink:href="#DejaVuSans-53"/>
       <use x="417.822266" xlink:href="#DejaVuSans-45"/>
       <use x="453.90625" xlink:href="#DejaVuSans-49"/>
       <use x="517.529297" xlink:href="#DejaVuSans-53"/>
      </g>
     </g>
    </g>
    <g id="xtick_6">
     <g id="line2d_6">
      <g>
       <use style="stroke:#000000;stroke-width:0.8;" x="1167.192456" xlink:href="#m6a3c45c4f5" y="501.738984"/>
      </g>
     </g>
     <g id="text_6">
      <!-- 2020-06-01 -->
      <defs>
       <path d="M 33.015625 40.375 
Q 26.375 40.375 22.484375 35.828125 
Q 18.609375 31.296875 18.609375 23.390625 
Q 18.609375 15.53125 22.484375 10.953125 
Q 26.375 6.390625 33.015625 6.390625 
Q 39.65625 6.390625 43.53125 10.953125 
Q 47.40625 15.53125 47.40625 23.390625 
Q 47.40625 31.296875 43.53125 35.828125 
Q 39.65625 40.375 33.015625 40.375 
z
M 52.59375 71.296875 
L 52.59375 62.3125 
Q 48.875 64.0625 45.09375 64.984375 
Q 41.3125 65.921875 37.59375 65.921875 
Q 27.828125 65.921875 22.671875 59.328125 
Q 17.53125 52.734375 16.796875 39.40625 
Q 19.671875 43.65625 24.015625 45.921875 
Q 28.375 48.1875 33.59375 48.1875 
Q 44.578125 48.1875 50.953125 41.515625 
Q 57.328125 34.859375 57.328125 23.390625 
Q 57.328125 12.15625 50.6875 5.359375 
Q 44.046875 -1.421875 33.015625 -1.421875 
Q 20.359375 -1.421875 13.671875 8.265625 
Q 6.984375 17.96875 6.984375 36.375 
Q 6.984375 53.65625 15.1875 63.9375 
Q 23.390625 74.21875 37.203125 74.21875 
Q 40.921875 74.21875 44.703125 73.484375 
Q 48.484375 72.75 52.59375 71.296875 
z
" id="DejaVuSans-54"/>
      </defs>
      <g transform="translate(1100.41217 555.068713)rotate(-30)scale(0.13 -0.13)">
       <use xlink:href="#DejaVuSans-50"/>
       <use x="63.623047" xlink:href="#DejaVuSans-48"/>
       <use x="127.246094" xlink:href="#DejaVuSans-50"/>
       <use x="190.869141" xlink:href="#DejaVuSans-48"/>
       <use x="254.492188" xlink:href="#DejaVuSans-45"/>
       <use x="290.576172" xlink:href="#DejaVuSans-48"/>
       <use x="354.199219" xlink:href="#DejaVuSans-54"/>
       <use x="417.822266" xlink:href="#DejaVuSans-45"/>
       <use x="453.90625" xlink:href="#DejaVuSans-48"/>
       <use x="517.529297" xlink:href="#DejaVuSans-49"/>
      </g>
     </g>
    </g>
   </g>
   <g id="matplotlib.axis_2">
    <g id="ytick_1">
     <g id="line2d_7">
      <path clip-path="url(#pfe6cd54db2)" d="M 62.89875 481.861194 
L 1178.89875 481.861194 
" style="fill:none;stroke:#b0b0b0;stroke-linecap:square;stroke-width:0.8;"/>
     </g>
     <g id="line2d_8">
      <defs>
       <path d="M 0 0 
L -3.5 0 
" id="mcb3ae3cd8c" style="stroke:#000000;stroke-width:0.8;"/>
      </defs>
      <g>
       <use style="stroke:#000000;stroke-width:0.8;" x="62.89875" xlink:href="#mcb3ae3cd8c" y="481.861194"/>
      </g>
     </g>
     <g id="text_7">
      <!-- 0 -->
      <g transform="translate(47.6275 486.800179)scale(0.13 -0.13)">
       <use xlink:href="#DejaVuSans-48"/>
      </g>
     </g>
    </g>
    <g id="ytick_2">
     <g id="line2d_9">
      <path clip-path="url(#pfe6cd54db2)" d="M 62.89875 439.159175 
L 1178.89875 439.159175 
" style="fill:none;stroke:#b0b0b0;stroke-linecap:square;stroke-width:0.8;"/>
     </g>
     <g id="line2d_10">
      <g>
       <use style="stroke:#000000;stroke-width:0.8;" x="62.89875" xlink:href="#mcb3ae3cd8c" y="439.159175"/>
      </g>
     </g>
     <g id="text_8">
      <!-- 100 -->
      <g transform="translate(31.085 444.09816)scale(0.13 -0.13)">
       <use xlink:href="#DejaVuSans-49"/>
       <use x="63.623047" xlink:href="#DejaVuSans-48"/>
       <use x="127.246094" xlink:href="#DejaVuSans-48"/>
      </g>
     </g>
    </g>
    <g id="ytick_3">
     <g id="line2d_11">
      <path clip-path="url(#pfe6cd54db2)" d="M 62.89875 396.457156 
L 1178.89875 396.457156 
" style="fill:none;stroke:#b0b0b0;stroke-linecap:square;stroke-width:0.8;"/>
     </g>
     <g id="line2d_12">
      <g>
       <use style="stroke:#000000;stroke-width:0.8;" x="62.89875" xlink:href="#mcb3ae3cd8c" y="396.457156"/>
      </g>
     </g>
     <g id="text_9">
      <!-- 200 -->
      <g transform="translate(31.085 401.396141)scale(0.13 -0.13)">
       <use xlink:href="#DejaVuSans-50"/>
       <use x="63.623047" xlink:href="#DejaVuSans-48"/>
       <use x="127.246094" xlink:href="#DejaVuSans-48"/>
      </g>
     </g>
    </g>
    <g id="ytick_4">
     <g id="line2d_13">
      <path clip-path="url(#pfe6cd54db2)" d="M 62.89875 353.755137 
L 1178.89875 353.755137 
" style="fill:none;stroke:#b0b0b0;stroke-linecap:square;stroke-width:0.8;"/>
     </g>
     <g id="line2d_14">
      <g>
       <use style="stroke:#000000;stroke-width:0.8;" x="62.89875" xlink:href="#mcb3ae3cd8c" y="353.755137"/>
      </g>
     </g>
     <g id="text_10">
      <!-- 300 -->
      <g transform="translate(31.085 358.694122)scale(0.13 -0.13)">
       <use xlink:href="#DejaVuSans-51"/>
       <use x="63.623047" xlink:href="#DejaVuSans-48"/>
       <use x="127.246094" xlink:href="#DejaVuSans-48"/>
      </g>
     </g>
    </g>
    <g id="ytick_5">
     <g id="line2d_15">
      <path clip-path="url(#pfe6cd54db2)" d="M 62.89875 311.053118 
L 1178.89875 311.053118 
" style="fill:none;stroke:#b0b0b0;stroke-linecap:square;stroke-width:0.8;"/>
     </g>
     <g id="line2d_16">
      <g>
       <use style="stroke:#000000;stroke-width:0.8;" x="62.89875" xlink:href="#mcb3ae3cd8c" y="311.053118"/>
      </g>
     </g>
     <g id="text_11">
      <!-- 400 -->
      <g transform="translate(31.085 315.992102)scale(0.13 -0.13)">
       <use xlink:href="#DejaVuSans-52"/>
       <use x="63.623047" xlink:href="#DejaVuSans-48"/>
       <use x="127.246094" xlink:href="#DejaVuSans-48"/>
      </g>
     </g>
    </g>
    <g id="ytick_6">
     <g id="line2d_17">
      <path clip-path="url(#pfe6cd54db2)" d="M 62.89875 268.351099 
L 1178.89875 268.351099 
" style="fill:none;stroke:#b0b0b0;stroke-linecap:square;stroke-width:0.8;"/>
     </g>
     <g id="line2d_18">
      <g>
       <use style="stroke:#000000;stroke-width:0.8;" x="62.89875" xlink:href="#mcb3ae3cd8c" y="268.351099"/>
      </g>
     </g>
     <g id="text_12">
      <!-- 500 -->
      <g transform="translate(31.085 273.290083)scale(0.13 -0.13)">
       <use xlink:href="#DejaVuSans-53"/>
       <use x="63.623047" xlink:href="#DejaVuSans-48"/>
       <use x="127.246094" xlink:href="#DejaVuSans-48"/>
      </g>
     </g>
    </g>
    <g id="ytick_7">
     <g id="line2d_19">
      <path clip-path="url(#pfe6cd54db2)" d="M 62.89875 225.64908 
L 1178.89875 225.64908 
" style="fill:none;stroke:#b0b0b0;stroke-linecap:square;stroke-width:0.8;"/>
     </g>
     <g id="line2d_20">
      <g>
       <use style="stroke:#000000;stroke-width:0.8;" x="62.89875" xlink:href="#mcb3ae3cd8c" y="225.64908"/>
      </g>
     </g>
     <g id="text_13">
      <!-- 600 -->
      <g transform="translate(31.085 230.588064)scale(0.13 -0.13)">
       <use xlink:href="#DejaVuSans-54"/>
       <use x="63.623047" xlink:href="#DejaVuSans-48"/>
       <use x="127.246094" xlink:href="#DejaVuSans-48"/>
      </g>
     </g>
    </g>
    <g id="ytick_8">
     <g id="line2d_21">
      <path clip-path="url(#pfe6cd54db2)" d="M 62.89875 182.947061 
L 1178.89875 182.947061 
" style="fill:none;stroke:#b0b0b0;stroke-linecap:square;stroke-width:0.8;"/>
     </g>
     <g id="line2d_22">
      <g>
       <use style="stroke:#000000;stroke-width:0.8;" x="62.89875" xlink:href="#mcb3ae3cd8c" y="182.947061"/>
      </g>
     </g>
     <g id="text_14">
      <!-- 700 -->
      <defs>
       <path d="M 8.203125 72.90625 
L 55.078125 72.90625 
L 55.078125 68.703125 
L 28.609375 0 
L 18.3125 0 
L 43.21875 64.59375 
L 8.203125 64.59375 
z
" id="DejaVuSans-55"/>
      </defs>
      <g transform="translate(31.085 187.886045)scale(0.13 -0.13)">
       <use xlink:href="#DejaVuSans-55"/>
       <use x="63.623047" xlink:href="#DejaVuSans-48"/>
       <use x="127.246094" xlink:href="#DejaVuSans-48"/>
      </g>
     </g>
    </g>
    <g id="ytick_9">
     <g id="line2d_23">
      <path clip-path="url(#pfe6cd54db2)" d="M 62.89875 140.245042 
L 1178.89875 140.245042 
" style="fill:none;stroke:#b0b0b0;stroke-linecap:square;stroke-width:0.8;"/>
     </g>
     <g id="line2d_24">
      <g>
       <use style="stroke:#000000;stroke-width:0.8;" x="62.89875" xlink:href="#mcb3ae3cd8c" y="140.245042"/>
      </g>
     </g>
     <g id="text_15">
      <!-- 800 -->
      <defs>
       <path d="M 31.78125 34.625 
Q 24.75 34.625 20.71875 30.859375 
Q 16.703125 27.09375 16.703125 20.515625 
Q 16.703125 13.921875 20.71875 10.15625 
Q 24.75 6.390625 31.78125 6.390625 
Q 38.8125 6.390625 42.859375 10.171875 
Q 46.921875 13.96875 46.921875 20.515625 
Q 46.921875 27.09375 42.890625 30.859375 
Q 38.875 34.625 31.78125 34.625 
z
M 21.921875 38.8125 
Q 15.578125 40.375 12.03125 44.71875 
Q 8.5 49.078125 8.5 55.328125 
Q 8.5 64.0625 14.71875 69.140625 
Q 20.953125 74.21875 31.78125 74.21875 
Q 42.671875 74.21875 48.875 69.140625 
Q 55.078125 64.0625 55.078125 55.328125 
Q 55.078125 49.078125 51.53125 44.71875 
Q 48 40.375 41.703125 38.8125 
Q 48.828125 37.15625 52.796875 32.3125 
Q 56.78125 27.484375 56.78125 20.515625 
Q 56.78125 9.90625 50.3125 4.234375 
Q 43.84375 -1.421875 31.78125 -1.421875 
Q 19.734375 -1.421875 13.25 4.234375 
Q 6.78125 9.90625 6.78125 20.515625 
Q 6.78125 27.484375 10.78125 32.3125 
Q 14.796875 37.15625 21.921875 38.8125 
z
M 18.3125 54.390625 
Q 18.3125 48.734375 21.84375 45.5625 
Q 25.390625 42.390625 31.78125 42.390625 
Q 38.140625 42.390625 41.71875 45.5625 
Q 45.3125 48.734375 45.3125 54.390625 
Q 45.3125 60.0625 41.71875 63.234375 
Q 38.140625 66.40625 31.78125 66.40625 
Q 25.390625 66.40625 21.84375 63.234375 
Q 18.3125 60.0625 18.3125 54.390625 
z
" id="DejaVuSans-56"/>
      </defs>
      <g transform="translate(31.085 145.184026)scale(0.13 -0.13)">
       <use xlink:href="#DejaVuSans-56"/>
       <use x="63.623047" xlink:href="#DejaVuSans-48"/>
       <use x="127.246094" xlink:href="#DejaVuSans-48"/>
      </g>
     </g>
    </g>
    <g id="ytick_10">
     <g id="line2d_25">
      <path clip-path="url(#pfe6cd54db2)" d="M 62.89875 97.543023 
L 1178.89875 97.543023 
" style="fill:none;stroke:#b0b0b0;stroke-linecap:square;stroke-width:0.8;"/>
     </g>
     <g id="line2d_26">
      <g>
       <use style="stroke:#000000;stroke-width:0.8;" x="62.89875" xlink:href="#mcb3ae3cd8c" y="97.543023"/>
      </g>
     </g>
     <g id="text_16">
      <!-- 900 -->
      <defs>
       <path d="M 10.984375 1.515625 
L 10.984375 10.5 
Q 14.703125 8.734375 18.5 7.8125 
Q 22.3125 6.890625 25.984375 6.890625 
Q 35.75 6.890625 40.890625 13.453125 
Q 46.046875 20.015625 46.78125 33.40625 
Q 43.953125 29.203125 39.59375 26.953125 
Q 35.25 24.703125 29.984375 24.703125 
Q 19.046875 24.703125 12.671875 31.3125 
Q 6.296875 37.9375 6.296875 49.421875 
Q 6.296875 60.640625 12.9375 67.421875 
Q 19.578125 74.21875 30.609375 74.21875 
Q 43.265625 74.21875 49.921875 64.515625 
Q 56.59375 54.828125 56.59375 36.375 
Q 56.59375 19.140625 48.40625 8.859375 
Q 40.234375 -1.421875 26.421875 -1.421875 
Q 22.703125 -1.421875 18.890625 -0.6875 
Q 15.09375 0.046875 10.984375 1.515625 
z
M 30.609375 32.421875 
Q 37.25 32.421875 41.125 36.953125 
Q 45.015625 41.5 45.015625 49.421875 
Q 45.015625 57.28125 41.125 61.84375 
Q 37.25 66.40625 30.609375 66.40625 
Q 23.96875 66.40625 20.09375 61.84375 
Q 16.21875 57.28125 16.21875 49.421875 
Q 16.21875 41.5 20.09375 36.953125 
Q 23.96875 32.421875 30.609375 32.421875 
z
" id="DejaVuSans-57"/>
      </defs>
      <g transform="translate(31.085 102.482007)scale(0.13 -0.13)">
       <use xlink:href="#DejaVuSans-57"/>
       <use x="63.623047" xlink:href="#DejaVuSans-48"/>
       <use x="127.246094" xlink:href="#DejaVuSans-48"/>
      </g>
     </g>
    </g>
    <g id="ytick_11">
     <g id="line2d_27">
      <path clip-path="url(#pfe6cd54db2)" d="M 62.89875 54.841003 
L 1178.89875 54.841003 
" style="fill:none;stroke:#b0b0b0;stroke-linecap:square;stroke-width:0.8;"/>
     </g>
     <g id="line2d_28">
      <g>
       <use style="stroke:#000000;stroke-width:0.8;" x="62.89875" xlink:href="#mcb3ae3cd8c" y="54.841003"/>
      </g>
     </g>
     <g id="text_17">
      <!-- 1000 -->
      <g transform="translate(22.81375 59.779988)scale(0.13 -0.13)">
       <use xlink:href="#DejaVuSans-49"/>
       <use x="63.623047" xlink:href="#DejaVuSans-48"/>
       <use x="127.246094" xlink:href="#DejaVuSans-48"/>
       <use x="190.869141" xlink:href="#DejaVuSans-48"/>
      </g>
     </g>
    </g>
    <g id="ytick_12">
     <g id="line2d_29">
      <path clip-path="url(#pfe6cd54db2)" d="M 62.89875 12.138984 
L 1178.89875 12.138984 
" style="fill:none;stroke:#b0b0b0;stroke-linecap:square;stroke-width:0.8;"/>
     </g>
     <g id="line2d_30">
      <g>
       <use style="stroke:#000000;stroke-width:0.8;" x="62.89875" xlink:href="#mcb3ae3cd8c" y="12.138984"/>
      </g>
     </g>
     <g id="text_18">
      <!-- 1100 -->
      <g transform="translate(22.81375 17.077969)scale(0.13 -0.13)">
       <use xlink:href="#DejaVuSans-49"/>
       <use x="63.623047" xlink:href="#DejaVuSans-49"/>
       <use x="127.246094" xlink:href="#DejaVuSans-48"/>
       <use x="190.869141" xlink:href="#DejaVuSans-48"/>
      </g>
     </g>
    </g>
    <g id="text_19">
     <!-- Anzahl von Fällen -->
     <defs>
      <path d="M 34.1875 63.1875 
L 20.796875 26.90625 
L 47.609375 26.90625 
z
M 28.609375 72.90625 
L 39.796875 72.90625 
L 67.578125 0 
L 57.328125 0 
L 50.6875 18.703125 
L 17.828125 18.703125 
L 11.1875 0 
L 0.78125 0 
z
" id="DejaVuSans-65"/>
      <path d="M 54.890625 33.015625 
L 54.890625 0 
L 45.90625 0 
L 45.90625 32.71875 
Q 45.90625 40.484375 42.875 44.328125 
Q 39.84375 48.1875 33.796875 48.1875 
Q 26.515625 48.1875 22.3125 43.546875 
Q 18.109375 38.921875 18.109375 30.90625 
L 18.109375 0 
L 9.078125 0 
L 9.078125 54.6875 
L 18.109375 54.6875 
L 18.109375 46.1875 
Q 21.34375 51.125 25.703125 53.5625 
Q 30.078125 56 35.796875 56 
Q 45.21875 56 50.046875 50.171875 
Q 54.890625 44.34375 54.890625 33.015625 
z
" id="DejaVuSans-110"/>
      <path d="M 5.515625 54.6875 
L 48.1875 54.6875 
L 48.1875 46.484375 
L 14.40625 7.171875 
L 48.1875 7.171875 
L 48.1875 0 
L 4.296875 0 
L 4.296875 8.203125 
L 38.09375 47.515625 
L 5.515625 47.515625 
z
" id="DejaVuSans-122"/>
      <path d="M 34.28125 27.484375 
Q 23.390625 27.484375 19.1875 25 
Q 14.984375 22.515625 14.984375 16.5 
Q 14.984375 11.71875 18.140625 8.90625 
Q 21.296875 6.109375 26.703125 6.109375 
Q 34.1875 6.109375 38.703125 11.40625 
Q 43.21875 16.703125 43.21875 25.484375 
L 43.21875 27.484375 
z
M 52.203125 31.203125 
L 52.203125 0 
L 43.21875 0 
L 43.21875 8.296875 
Q 40.140625 3.328125 35.546875 0.953125 
Q 30.953125 -1.421875 24.3125 -1.421875 
Q 15.921875 -1.421875 10.953125 3.296875 
Q 6 8.015625 6 15.921875 
Q 6 25.140625 12.171875 29.828125 
Q 18.359375 34.515625 30.609375 34.515625 
L 43.21875 34.515625 
L 43.21875 35.40625 
Q 43.21875 41.609375 39.140625 45 
Q 35.0625 48.390625 27.6875 48.390625 
Q 23 48.390625 18.546875 47.265625 
Q 14.109375 46.140625 10.015625 43.890625 
L 10.015625 52.203125 
Q 14.9375 54.109375 19.578125 55.046875 
Q 24.21875 56 28.609375 56 
Q 40.484375 56 46.34375 49.84375 
Q 52.203125 43.703125 52.203125 31.203125 
z
" id="DejaVuSans-97"/>
      <path d="M 54.890625 33.015625 
L 54.890625 0 
L 45.90625 0 
L 45.90625 32.71875 
Q 45.90625 40.484375 42.875 44.328125 
Q 39.84375 48.1875 33.796875 48.1875 
Q 26.515625 48.1875 22.3125 43.546875 
Q 18.109375 38.921875 18.109375 30.90625 
L 18.109375 0 
L 9.078125 0 
L 9.078125 75.984375 
L 18.109375 75.984375 
L 18.109375 46.1875 
Q 21.34375 51.125 25.703125 53.5625 
Q 30.078125 56 35.796875 56 
Q 45.21875 56 50.046875 50.171875 
Q 54.890625 44.34375 54.890625 33.015625 
z
" id="DejaVuSans-104"/>
      <path d="M 9.421875 75.984375 
L 18.40625 75.984375 
L 18.40625 0 
L 9.421875 0 
z
" id="DejaVuSans-108"/>
      <path id="DejaVuSans-32"/>
      <path d="M 2.984375 54.6875 
L 12.5 54.6875 
L 29.59375 8.796875 
L 46.6875 54.6875 
L 56.203125 54.6875 
L 35.6875 0 
L 23.484375 0 
z
" id="DejaVuSans-118"/>
      <path d="M 30.609375 48.390625 
Q 23.390625 48.390625 19.1875 42.75 
Q 14.984375 37.109375 14.984375 27.296875 
Q 14.984375 17.484375 19.15625 11.84375 
Q 23.34375 6.203125 30.609375 6.203125 
Q 37.796875 6.203125 41.984375 11.859375 
Q 46.1875 17.53125 46.1875 27.296875 
Q 46.1875 37.015625 41.984375 42.703125 
Q 37.796875 48.390625 30.609375 48.390625 
z
M 30.609375 56 
Q 42.328125 56 49.015625 48.375 
Q 55.71875 40.765625 55.71875 27.296875 
Q 55.71875 13.875 49.015625 6.21875 
Q 42.328125 -1.421875 30.609375 -1.421875 
Q 18.84375 -1.421875 12.171875 6.21875 
Q 5.515625 13.875 5.515625 27.296875 
Q 5.515625 40.765625 12.171875 48.375 
Q 18.84375 56 30.609375 56 
z
" id="DejaVuSans-111"/>
      <path d="M 9.8125 72.90625 
L 51.703125 72.90625 
L 51.703125 64.59375 
L 19.671875 64.59375 
L 19.671875 43.109375 
L 48.578125 43.109375 
L 48.578125 34.8125 
L 19.671875 34.8125 
L 19.671875 0 
L 9.8125 0 
z
" id="DejaVuSans-70"/>
      <path d="M 34.28125 27.484375 
Q 23.390625 27.484375 19.1875 25 
Q 14.984375 22.515625 14.984375 16.5 
Q 14.984375 11.71875 18.140625 8.90625 
Q 21.296875 6.109375 26.703125 6.109375 
Q 34.1875 6.109375 38.703125 11.40625 
Q 43.21875 16.703125 43.21875 25.484375 
L 43.21875 27.484375 
z
M 52.203125 31.203125 
L 52.203125 0 
L 43.21875 0 
L 43.21875 8.296875 
Q 40.140625 3.328125 35.546875 0.953125 
Q 30.953125 -1.421875 24.3125 -1.421875 
Q 15.921875 -1.421875 10.953125 3.296875 
Q 6 8.015625 6 15.921875 
Q 6 25.140625 12.171875 29.828125 
Q 18.359375 34.515625 30.609375 34.515625 
L 43.21875 34.515625 
L 43.21875 35.40625 
Q 43.21875 41.609375 39.140625 45 
Q 35.0625 48.390625 27.6875 48.390625 
Q 23 48.390625 18.546875 47.265625 
Q 14.109375 46.140625 10.015625 43.890625 
L 10.015625 52.203125 
Q 14.9375 54.109375 19.578125 55.046875 
Q 24.21875 56 28.609375 56 
Q 40.484375 56 46.34375 49.84375 
Q 52.203125 43.703125 52.203125 31.203125 
z
M 33.59375 75.78125 
L 43.5 75.78125 
L 43.5 65.921875 
L 33.59375 65.921875 
z
M 14.5 75.78125 
L 24.40625 75.78125 
L 24.40625 65.921875 
L 14.5 65.921875 
z
" id="DejaVuSans-228"/>
      <path d="M 56.203125 29.59375 
L 56.203125 25.203125 
L 14.890625 25.203125 
Q 15.484375 15.921875 20.484375 11.0625 
Q 25.484375 6.203125 34.421875 6.203125 
Q 39.59375 6.203125 44.453125 7.46875 
Q 49.3125 8.734375 54.109375 11.28125 
L 54.109375 2.78125 
Q 49.265625 0.734375 44.1875 -0.34375 
Q 39.109375 -1.421875 33.890625 -1.421875 
Q 20.796875 -1.421875 13.15625 6.1875 
Q 5.515625 13.8125 5.515625 26.8125 
Q 5.515625 40.234375 12.765625 48.109375 
Q 20.015625 56 32.328125 56 
Q 43.359375 56 49.78125 48.890625 
Q 56.203125 41.796875 56.203125 29.59375 
z
M 47.21875 32.234375 
Q 47.125 39.59375 43.09375 43.984375 
Q 39.0625 48.390625 32.421875 48.390625 
Q 24.90625 48.390625 20.390625 44.140625 
Q 15.875 39.890625 15.1875 32.171875 
z
" id="DejaVuSans-101"/>
     </defs>
     <g transform="translate(16.318125 309.388359)rotate(-90)scale(0.12 -0.12)">
      <use xlink:href="#DejaVuSans-65"/>
      <use x="68.408203" xlink:href="#DejaVuSans-110"/>
      <use x="131.787109" xlink:href="#DejaVuSans-122"/>
      <use x="184.277344" xlink:href="#DejaVuSans-97"/>
      <use x="245.556641" xlink:href="#DejaVuSans-104"/>
      <use x="308.935547" xlink:href="#DejaVuSans-108"/>
      <use x="336.71875" xlink:href="#DejaVuSans-32"/>
      <use x="368.505859" xlink:href="#DejaVuSans-118"/>
      <use x="427.685547" xlink:href="#DejaVuSans-111"/>
      <use x="488.867188" xlink:href="#DejaVuSans-110"/>
      <use x="552.246094" xlink:href="#DejaVuSans-32"/>
      <use x="584.033203" xlink:href="#DejaVuSans-70"/>
      <use x="632.427734" xlink:href="#DejaVuSans-228"/>
      <use x="693.707031" xlink:href="#DejaVuSans-108"/>
      <use x="721.490234" xlink:href="#DejaVuSans-108"/>
      <use x="749.273438" xlink:href="#DejaVuSans-101"/>
      <use x="810.796875" xlink:href="#DejaVuSans-110"/>
     </g>
    </g>
   </g>
   <g id="line2d_31">
    <path clip-path="url(#pfe6cd54db2)" d="M 113.626023 481.861194 
L 126.633016 481.861194 
L 139.640009 481.861194 
L 152.647002 481.861194 
L 165.653995 481.861194 
L 178.660988 481.861194 
L 191.667981 481.861194 
L 217.681967 480.580134 
L 230.68896 477.163972 
L 243.695953 477.163972 
L 256.702946 476.736952 
L 269.709939 475.455892 
L 282.716932 469.050589 
L 295.723925 464.353367 
L 308.730918 461.791246 
L 321.737911 457.094023 
L 334.744904 449.83468 
L 347.751897 447.699579 
L 360.75889 437.878115 
L 373.765883 417.808166 
L 386.772876 405.42458 
L 399.779869 397.311197 
L 412.786862 388.770793 
L 425.793855 376.814227 
L 438.800848 369.127864 
L 451.807841 361.868521 
L 464.814834 350.338976 
L 477.821827 343.933673 
L 490.82882 332.404128 
L 516.842806 322.582663 
L 542.856792 314.8963 
L 555.863785 295.680391 
L 568.870778 295.680391 
L 581.877771 268.351099 
L 594.884764 256.394534 
L 620.89875 230.773322 
L 633.905743 223.513979 
L 646.912736 222.659939 
L 659.919729 203.01701 
L 672.926722 203.87105 
L 685.933715 196.184687 
L 711.947701 190.206404 
L 724.954694 185.082162 
L 737.961687 179.957919 
L 750.96868 173.125596 
L 776.982666 165.866253 
L 802.996652 163.731152 
L 816.003645 160.742011 
L 829.010638 156.471809 
L 842.017631 150.066506 
L 855.024624 144.088223 
L 868.031617 143.661203 
L 894.045603 140.672062 
L 907.052596 136.40186 
L 920.059589 135.120799 
L 933.066582 133.412719 
L 946.073575 131.277618 
L 959.080568 129.142517 
L 985.094554 128.288476 
L 998.101547 127.861456 
L 1011.10854 124.018274 
L 1037.122526 117.612972 
L 1050.129519 115.477871 
L 1076.143505 101.386204 
L 1089.150498 97.543023 
L 1115.164484 84.305397 
L 1128.171477 84.305397 
" style="fill:none;stroke:#dbcd00;stroke-linecap:square;stroke-width:2;"/>
    <defs>
     <path d="M 0 1.5 
C 0.397805 1.5 0.77937 1.341951 1.06066 1.06066 
C 1.341951 0.77937 1.5 0.397805 1.5 0 
C 1.5 -0.397805 1.341951 -0.77937 1.06066 -1.06066 
C 0.77937 -1.341951 0.397805 -1.5 0 -1.5 
C -0.397805 -1.5 -0.77937 -1.341951 -1.06066 -1.06066 
C -1.341951 -0.77937 -1.5 -0.397805 -1.5 0 
C -1.5 0.397805 -1.341951 0.77937 -1.06066 1.06066 
C -0.77937 1.341951 -0.397805 1.5 0 1.5 
z
" id="m54ea24d5c2" style="stroke:#dbcd00;"/>
    </defs>
    <g clip-path="url(#pfe6cd54db2)">
     <use style="fill:#dbcd00;stroke:#dbcd00;" x="113.626023" xlink:href="#m54ea24d5c2" y="481.861194"/>
     <use style="fill:#dbcd00;stroke:#dbcd00;" x="126.633016" xlink:href="#m54ea24d5c2" y="481.861194"/>
     <use style="fill:#dbcd00;stroke:#dbcd00;" x="139.640009" xlink:href="#m54ea24d5c2" y="481.861194"/>
     <use style="fill:#dbcd00;stroke:#dbcd00;" x="152.647002" xlink:href="#m54ea24d5c2" y="481.861194"/>
     <use style="fill:#dbcd00;stroke:#dbcd00;" x="165.653995" xlink:href="#m54ea24d5c2" y="481.861194"/>
     <use style="fill:#dbcd00;stroke:#dbcd00;" x="178.660988" xlink:href="#m54ea24d5c2" y="481.861194"/>
     <use style="fill:#dbcd00;stroke:#dbcd00;" x="191.667981" xlink:href="#m54ea24d5c2" y="481.861194"/>
     <use style="fill:#dbcd00;stroke:#dbcd00;" x="217.681967" xlink:href="#m54ea24d5c2" y="480.580134"/>
     <use style="fill:#dbcd00;stroke:#dbcd00;" x="230.68896" xlink:href="#m54ea24d5c2" y="477.163972"/>
     <use style="fill:#dbcd00;stroke:#dbcd00;" x="243.695953" xlink:href="#m54ea24d5c2" y="477.163972"/>
     <use style="fill:#dbcd00;stroke:#dbcd00;" x="256.702946" xlink:href="#m54ea24d5c2" y="476.736952"/>
     <use style="fill:#dbcd00;stroke:#dbcd00;" x="269.709939" xlink:href="#m54ea24d5c2" y="475.455892"/>
     <use style="fill:#dbcd00;stroke:#dbcd00;" x="282.716932" xlink:href="#m54ea24d5c2" y="469.050589"/>
     <use style="fill:#dbcd00;stroke:#dbcd00;" x="295.723925" xlink:href="#m54ea24d5c2" y="464.353367"/>
     <use style="fill:#dbcd00;stroke:#dbcd00;" x="308.730918" xlink:href="#m54ea24d5c2" y="461.791246"/>
     <use style="fill:#dbcd00;stroke:#dbcd00;" x="321.737911" xlink:href="#m54ea24d5c2" y="457.094023"/>
     <use style="fill:#dbcd00;stroke:#dbcd00;" x="334.744904" xlink:href="#m54ea24d5c2" y="449.83468"/>
     <use style="fill:#dbcd00;stroke:#dbcd00;" x="347.751897" xlink:href="#m54ea24d5c2" y="447.699579"/>
     <use style="fill:#dbcd00;stroke:#dbcd00;" x="360.75889" xlink:href="#m54ea24d5c2" y="437.878115"/>
     <use style="fill:#dbcd00;stroke:#dbcd00;" x="373.765883" xlink:href="#m54ea24d5c2" y="417.808166"/>
     <use style="fill:#dbcd00;stroke:#dbcd00;" x="386.772876" xlink:href="#m54ea24d5c2" y="405.42458"/>
     <use style="fill:#dbcd00;stroke:#dbcd00;" x="399.779869" xlink:href="#m54ea24d5c2" y="397.311197"/>
     <use style="fill:#dbcd00;stroke:#dbcd00;" x="412.786862" xlink:href="#m54ea24d5c2" y="388.770793"/>
     <use style="fill:#dbcd00;stroke:#dbcd00;" x="425.793855" xlink:href="#m54ea24d5c2" y="376.814227"/>
     <use style="fill:#dbcd00;stroke:#dbcd00;" x="438.800848" xlink:href="#m54ea24d5c2" y="369.127864"/>
     <use style="fill:#dbcd00;stroke:#dbcd00;" x="451.807841" xlink:href="#m54ea24d5c2" y="361.868521"/>
     <use style="fill:#dbcd00;stroke:#dbcd00;" x="464.814834" xlink:href="#m54ea24d5c2" y="350.338976"/>
     <use style="fill:#dbcd00;stroke:#dbcd00;" x="477.821827" xlink:href="#m54ea24d5c2" y="343.933673"/>
     <use style="fill:#dbcd00;stroke:#dbcd00;" x="490.82882" xlink:href="#m54ea24d5c2" y="332.404128"/>
     <use style="fill:#dbcd00;stroke:#dbcd00;" x="516.842806" xlink:href="#m54ea24d5c2" y="322.582663"/>
     <use style="fill:#dbcd00;stroke:#dbcd00;" x="542.856792" xlink:href="#m54ea24d5c2" y="314.8963"/>
     <use style="fill:#dbcd00;stroke:#dbcd00;" x="555.863785" xlink:href="#m54ea24d5c2" y="295.680391"/>
     <use style="fill:#dbcd00;stroke:#dbcd00;" x="568.870778" xlink:href="#m54ea24d5c2" y="295.680391"/>
     <use style="fill:#dbcd00;stroke:#dbcd00;" x="581.877771" xlink:href="#m54ea24d5c2" y="268.351099"/>
     <use style="fill:#dbcd00;stroke:#dbcd00;" x="594.884764" xlink:href="#m54ea24d5c2" y="256.394534"/>
     <use style="fill:#dbcd00;stroke:#dbcd00;" x="620.89875" xlink:href="#m54ea24d5c2" y="230.773322"/>
     <use style="fill:#dbcd00;stroke:#dbcd00;" x="633.905743" xlink:href="#m54ea24d5c2" y="223.513979"/>
     <use style="fill:#dbcd00;stroke:#dbcd00;" x="646.912736" xlink:href="#m54ea24d5c2" y="222.659939"/>
     <use style="fill:#dbcd00;stroke:#dbcd00;" x="659.919729" xlink:href="#m54ea24d5c2" y="203.01701"/>
     <use style="fill:#dbcd00;stroke:#dbcd00;" x="672.926722" xlink:href="#m54ea24d5c2" y="203.87105"/>
     <use style="fill:#dbcd00;stroke:#dbcd00;" x="685.933715" xlink:href="#m54ea24d5c2" y="196.184687"/>
     <use style="fill:#dbcd00;stroke:#dbcd00;" x="711.947701" xlink:href="#m54ea24d5c2" y="190.206404"/>
     <use style="fill:#dbcd00;stroke:#dbcd00;" x="724.954694" xlink:href="#m54ea24d5c2" y="185.082162"/>
     <use style="fill:#dbcd00;stroke:#dbcd00;" x="737.961687" xlink:href="#m54ea24d5c2" y="179.957919"/>
     <use style="fill:#dbcd00;stroke:#dbcd00;" x="750.96868" xlink:href="#m54ea24d5c2" y="173.125596"/>
     <use style="fill:#dbcd00;stroke:#dbcd00;" x="776.982666" xlink:href="#m54ea24d5c2" y="165.866253"/>
     <use style="fill:#dbcd00;stroke:#dbcd00;" x="802.996652" xlink:href="#m54ea24d5c2" y="163.731152"/>
     <use style="fill:#dbcd00;stroke:#dbcd00;" x="816.003645" xlink:href="#m54ea24d5c2" y="160.742011"/>
     <use style="fill:#dbcd00;stroke:#dbcd00;" x="829.010638" xlink:href="#m54ea24d5c2" y="156.471809"/>
     <use style="fill:#dbcd00;stroke:#dbcd00;" x="842.017631" xlink:href="#m54ea24d5c2" y="150.066506"/>
     <use style="fill:#dbcd00;stroke:#dbcd00;" x="855.024624" xlink:href="#m54ea24d5c2" y="144.088223"/>
     <use style="fill:#dbcd00;stroke:#dbcd00;" x="868.031617" xlink:href="#m54ea24d5c2" y="143.661203"/>
     <use style="fill:#dbcd00;stroke:#dbcd00;" x="894.045603" xlink:href="#m54ea24d5c2" y="140.672062"/>
     <use style="fill:#dbcd00;stroke:#dbcd00;" x="907.052596" xlink:href="#m54ea24d5c2" y="136.40186"/>
     <use style="fill:#dbcd00;stroke:#dbcd00;" x="920.059589" xlink:href="#m54ea24d5c2" y="135.120799"/>
     <use style="fill:#dbcd00;stroke:#dbcd00;" x="933.066582" xlink:href="#m54ea24d5c2" y="133.412719"/>
     <use style="fill:#dbcd00;stroke:#dbcd00;" x="946.073575" xlink:href="#m54ea24d5c2" y="131.277618"/>
     <use style="fill:#dbcd00;stroke:#dbcd00;" x="959.080568" xlink:href="#m54ea24d5c2" y="129.142517"/>
     <use style="fill:#dbcd00;stroke:#dbcd00;" x="985.094554" xlink:href="#m54ea24d5c2" y="128.288476"/>
     <use style="fill:#dbcd00;stroke:#dbcd00;" x="998.101547" xlink:href="#m54ea24d5c2" y="127.861456"/>
     <use style="fill:#dbcd00;stroke:#dbcd00;" x="1011.10854" xlink:href="#m54ea24d5c2" y="124.018274"/>
     <use style="fill:#dbcd00;stroke:#dbcd00;" x="1037.122526" xlink:href="#m54ea24d5c2" y="117.612972"/>
     <use style="fill:#dbcd00;stroke:#dbcd00;" x="1050.129519" xlink:href="#m54ea24d5c2" y="115.477871"/>
     <use style="fill:#dbcd00;stroke:#dbcd00;" x="1076.143505" xlink:href="#m54ea24d5c2" y="101.386204"/>
     <use style="fill:#dbcd00;stroke:#dbcd00;" x="1089.150498" xlink:href="#m54ea24d5c2" y="97.543023"/>
     <use style="fill:#dbcd00;stroke:#dbcd00;" x="1115.164484" xlink:href="#m54ea24d5c2" y="84.305397"/>
     <use style="fill:#dbcd00;stroke:#dbcd00;" x="1128.171477" xlink:href="#m54ea24d5c2" y="84.305397"/>
    </g>
   </g>
   <g id="line2d_32">
    <path clip-path="url(#pfe6cd54db2)" d="M 113.626023 475.882912 
L 126.633016 470.331649 
L 139.640009 462.645286 
L 152.647002 446.845539 
L 165.653995 441.294276 
L 178.660988 429.337711 
L 191.667981 411.829883 
L 217.681967 375.533167 
L 230.68896 369.554884 
L 243.695953 366.138723 
L 256.702946 361.01448 
L 269.709939 357.598319 
L 282.716932 351.620036 
L 295.723925 343.506653 
L 308.730918 333.258168 
L 321.737911 327.279885 
L 334.744904 328.987966 
L 347.751897 326.852865 
L 360.75889 323.863724 
L 373.765883 325.144784 
L 386.772876 320.020542 
L 399.779869 310.199078 
L 412.786862 302.512714 
L 425.793855 308.490997 
L 438.800848 310.199078 
L 451.807841 310.199078 
L 464.814834 312.334179 
L 477.821827 306.355896 
L 490.82882 312.761199 
L 516.842806 321.301603 
L 542.856792 321.301603 
L 555.863785 339.236451 
L 568.870778 334.539229 
L 581.877771 355.463218 
L 594.884764 364.003622 
L 620.89875 387.489732 
L 633.905743 394.322055 
L 646.912736 391.332914 
L 659.919729 408.413722 
L 672.926722 404.14352 
L 685.933715 409.694782 
L 711.947701 413.964984 
L 724.954694 418.662206 
L 737.961687 423.359428 
L 750.96868 430.191751 
L 776.982666 434.888973 
L 802.996652 435.315994 
L 816.003645 437.451095 
L 829.010638 440.867256 
L 842.017631 442.575337 
L 855.024624 446.845539 
L 868.031617 443.002357 
L 894.045603 439.159175 
L 907.052596 441.721297 
L 920.059589 429.337711 
L 933.066582 426.34857 
L 946.073575 427.62963 
L 959.080568 428.483671 
L 985.094554 423.359428 
L 998.101547 423.786449 
L 1011.10854 427.62963 
L 1037.122526 426.34857 
L 1050.129519 420.370287 
L 1076.143505 433.607913 
L 1089.150498 436.597054 
L 1115.164484 431.045792 
L 1128.171477 429.337711 
" style="fill:none;stroke:#2792cb;stroke-linecap:square;stroke-width:2;"/>
    <defs>
     <path d="M 0 1.5 
C 0.397805 1.5 0.77937 1.341951 1.06066 1.06066 
C 1.341951 0.77937 1.5 0.397805 1.5 0 
C 1.5 -0.397805 1.341951 -0.77937 1.06066 -1.06066 
C 0.77937 -1.341951 0.397805 -1.5 0 -1.5 
C -0.397805 -1.5 -0.77937 -1.341951 -1.06066 -1.06066 
C -1.341951 -0.77937 -1.5 -0.397805 -1.5 0 
C -1.5 0.397805 -1.341951 0.77937 -1.06066 1.06066 
C -0.77937 1.341951 -0.397805 1.5 0 1.5 
z
" id="m66572b448e" style="stroke:#2792cb;"/>
    </defs>
    <g clip-path="url(#pfe6cd54db2)">
     <use style="fill:#2792cb;stroke:#2792cb;" x="113.626023" xlink:href="#m66572b448e" y="475.882912"/>
     <use style="fill:#2792cb;stroke:#2792cb;" x="126.633016" xlink:href="#m66572b448e" y="470.331649"/>
     <use style="fill:#2792cb;stroke:#2792cb;" x="139.640009" xlink:href="#m66572b448e" y="462.645286"/>
     <use style="fill:#2792cb;stroke:#2792cb;" x="152.647002" xlink:href="#m66572b448e" y="446.845539"/>
     <use style="fill:#2792cb;stroke:#2792cb;" x="165.653995" xlink:href="#m66572b448e" y="441.294276"/>
     <use style="fill:#2792cb;stroke:#2792cb;" x="178.660988" xlink:href="#m66572b448e" y="429.337711"/>
     <use style="fill:#2792cb;stroke:#2792cb;" x="191.667981" xlink:href="#m66572b448e" y="411.829883"/>
     <use style="fill:#2792cb;stroke:#2792cb;" x="217.681967" xlink:href="#m66572b448e" y="375.533167"/>
     <use style="fill:#2792cb;stroke:#2792cb;" x="230.68896" xlink:href="#m66572b448e" y="369.554884"/>
     <use style="fill:#2792cb;stroke:#2792cb;" x="243.695953" xlink:href="#m66572b448e" y="366.138723"/>
     <use style="fill:#2792cb;stroke:#2792cb;" x="256.702946" xlink:href="#m66572b448e" y="361.01448"/>
     <use style="fill:#2792cb;stroke:#2792cb;" x="269.709939" xlink:href="#m66572b448e" y="357.598319"/>
     <use style="fill:#2792cb;stroke:#2792cb;" x="282.716932" xlink:href="#m66572b448e" y="351.620036"/>
     <use style="fill:#2792cb;stroke:#2792cb;" x="295.723925" xlink:href="#m66572b448e" y="343.506653"/>
     <use style="fill:#2792cb;stroke:#2792cb;" x="308.730918" xlink:href="#m66572b448e" y="333.258168"/>
     <use style="fill:#2792cb;stroke:#2792cb;" x="321.737911" xlink:href="#m66572b448e" y="327.279885"/>
     <use style="fill:#2792cb;stroke:#2792cb;" x="334.744904" xlink:href="#m66572b448e" y="328.987966"/>
     <use style="fill:#2792cb;stroke:#2792cb;" x="347.751897" xlink:href="#m66572b448e" y="326.852865"/>
     <use style="fill:#2792cb;stroke:#2792cb;" x="360.75889" xlink:href="#m66572b448e" y="323.863724"/>
     <use style="fill:#2792cb;stroke:#2792cb;" x="373.765883" xlink:href="#m66572b448e" y="325.144784"/>
     <use style="fill:#2792cb;stroke:#2792cb;" x="386.772876" xlink:href="#m66572b448e" y="320.020542"/>
     <use style="fill:#2792cb;stroke:#2792cb;" x="399.779869" xlink:href="#m66572b448e" y="310.199078"/>
     <use style="fill:#2792cb;stroke:#2792cb;" x="412.786862" xlink:href="#m66572b448e" y="302.512714"/>
     <use style="fill:#2792cb;stroke:#2792cb;" x="425.793855" xlink:href="#m66572b448e" y="308.490997"/>
     <use style="fill:#2792cb;stroke:#2792cb;" x="438.800848" xlink:href="#m66572b448e" y="310.199078"/>
     <use style="fill:#2792cb;stroke:#2792cb;" x="451.807841" xlink:href="#m66572b448e" y="310.199078"/>
     <use style="fill:#2792cb;stroke:#2792cb;" x="464.814834" xlink:href="#m66572b448e" y="312.334179"/>
     <use style="fill:#2792cb;stroke:#2792cb;" x="477.821827" xlink:href="#m66572b448e" y="306.355896"/>
     <use style="fill:#2792cb;stroke:#2792cb;" x="490.82882" xlink:href="#m66572b448e" y="312.761199"/>
     <use style="fill:#2792cb;stroke:#2792cb;" x="516.842806" xlink:href="#m66572b448e" y="321.301603"/>
     <use style="fill:#2792cb;stroke:#2792cb;" x="542.856792" xlink:href="#m66572b448e" y="321.301603"/>
     <use style="fill:#2792cb;stroke:#2792cb;" x="555.863785" xlink:href="#m66572b448e" y="339.236451"/>
     <use style="fill:#2792cb;stroke:#2792cb;" x="568.870778" xlink:href="#m66572b448e" y="334.539229"/>
     <use style="fill:#2792cb;stroke:#2792cb;" x="581.877771" xlink:href="#m66572b448e" y="355.463218"/>
     <use style="fill:#2792cb;stroke:#2792cb;" x="594.884764" xlink:href="#m66572b448e" y="364.003622"/>
     <use style="fill:#2792cb;stroke:#2792cb;" x="620.89875" xlink:href="#m66572b448e" y="387.489732"/>
     <use style="fill:#2792cb;stroke:#2792cb;" x="633.905743" xlink:href="#m66572b448e" y="394.322055"/>
     <use style="fill:#2792cb;stroke:#2792cb;" x="646.912736" xlink:href="#m66572b448e" y="391.332914"/>
     <use style="fill:#2792cb;stroke:#2792cb;" x="659.919729" xlink:href="#m66572b448e" y="408.413722"/>
     <use style="fill:#2792cb;stroke:#2792cb;" x="672.926722" xlink:href="#m66572b448e" y="404.14352"/>
     <use style="fill:#2792cb;stroke:#2792cb;" x="685.933715" xlink:href="#m66572b448e" y="409.694782"/>
     <use style="fill:#2792cb;stroke:#2792cb;" x="711.947701" xlink:href="#m66572b448e" y="413.964984"/>
     <use style="fill:#2792cb;stroke:#2792cb;" x="724.954694" xlink:href="#m66572b448e" y="418.662206"/>
     <use style="fill:#2792cb;stroke:#2792cb;" x="737.961687" xlink:href="#m66572b448e" y="423.359428"/>
     <use style="fill:#2792cb;stroke:#2792cb;" x="750.96868" xlink:href="#m66572b448e" y="430.191751"/>
     <use style="fill:#2792cb;stroke:#2792cb;" x="776.982666" xlink:href="#m66572b448e" y="434.888973"/>
     <use style="fill:#2792cb;stroke:#2792cb;" x="802.996652" xlink:href="#m66572b448e" y="435.315994"/>
     <use style="fill:#2792cb;stroke:#2792cb;" x="816.003645" xlink:href="#m66572b448e" y="437.451095"/>
     <use style="fill:#2792cb;stroke:#2792cb;" x="829.010638" xlink:href="#m66572b448e" y="440.867256"/>
     <use style="fill:#2792cb;stroke:#2792cb;" x="842.017631" xlink:href="#m66572b448e" y="442.575337"/>
     <use style="fill:#2792cb;stroke:#2792cb;" x="855.024624" xlink:href="#m66572b448e" y="446.845539"/>
     <use style="fill:#2792cb;stroke:#2792cb;" x="868.031617" xlink:href="#m66572b448e" y="443.002357"/>
     <use style="fill:#2792cb;stroke:#2792cb;" x="894.045603" xlink:href="#m66572b448e" y="439.159175"/>
     <use style="fill:#2792cb;stroke:#2792cb;" x="907.052596" xlink:href="#m66572b448e" y="441.721297"/>
     <use style="fill:#2792cb;stroke:#2792cb;" x="920.059589" xlink:href="#m66572b448e" y="429.337711"/>
     <use style="fill:#2792cb;stroke:#2792cb;" x="933.066582" xlink:href="#m66572b448e" y="426.34857"/>
     <use style="fill:#2792cb;stroke:#2792cb;" x="946.073575" xlink:href="#m66572b448e" y="427.62963"/>
     <use style="fill:#2792cb;stroke:#2792cb;" x="959.080568" xlink:href="#m66572b448e" y="428.483671"/>
     <use style="fill:#2792cb;stroke:#2792cb;" x="985.094554" xlink:href="#m66572b448e" y="423.359428"/>
     <use style="fill:#2792cb;stroke:#2792cb;" x="998.101547" xlink:href="#m66572b448e" y="423.786449"/>
     <use style="fill:#2792cb;stroke:#2792cb;" x="1011.10854" xlink:href="#m66572b448e" y="427.62963"/>
     <use style="fill:#2792cb;stroke:#2792cb;" x="1037.122526" xlink:href="#m66572b448e" y="426.34857"/>
     <use style="fill:#2792cb;stroke:#2792cb;" x="1050.129519" xlink:href="#m66572b448e" y="420.370287"/>
     <use style="fill:#2792cb;stroke:#2792cb;" x="1076.143505" xlink:href="#m66572b448e" y="433.607913"/>
     <use style="fill:#2792cb;stroke:#2792cb;" x="1089.150498" xlink:href="#m66572b448e" y="436.597054"/>
     <use style="fill:#2792cb;stroke:#2792cb;" x="1115.164484" xlink:href="#m66572b448e" y="431.045792"/>
     <use style="fill:#2792cb;stroke:#2792cb;" x="1128.171477" xlink:href="#m66572b448e" y="429.337711"/>
    </g>
   </g>
   <g id="patch_3">
    <path d="M 62.89875 501.738984 
L 1178.89875 501.738984 
" style="fill:none;stroke:#000000;stroke-linecap:square;stroke-linejoin:miter;stroke-width:0.8;"/>
   </g>
   <g id="legend_1">
    <g id="line2d_33">
     <path d="M 1091.653438 25.237422 
L 1111.653438 25.237422 
" style="fill:none;stroke:#dbcd00;stroke-linecap:square;stroke-width:2;"/>
    </g>
    <g id="line2d_34">
     <g>
      <use style="fill:#dbcd00;stroke:#dbcd00;" x="1101.653438" xlink:href="#m54ea24d5c2" y="25.237422"/>
     </g>
    </g>
    <g id="text_20">
     <!-- Genesene -->
     <defs>
      <path d="M 59.515625 10.40625 
L 59.515625 29.984375 
L 43.40625 29.984375 
L 43.40625 38.09375 
L 69.28125 38.09375 
L 69.28125 6.78125 
Q 63.578125 2.734375 56.6875 0.65625 
Q 49.8125 -1.421875 42 -1.421875 
Q 24.90625 -1.421875 15.25 8.5625 
Q 5.609375 18.5625 5.609375 36.375 
Q 5.609375 54.25 15.25 64.234375 
Q 24.90625 74.21875 42 74.21875 
Q 49.125 74.21875 55.546875 72.453125 
Q 61.96875 70.703125 67.390625 67.28125 
L 67.390625 56.78125 
Q 61.921875 61.421875 55.765625 63.765625 
Q 49.609375 66.109375 42.828125 66.109375 
Q 29.4375 66.109375 22.71875 58.640625 
Q 16.015625 51.171875 16.015625 36.375 
Q 16.015625 21.625 22.71875 14.15625 
Q 29.4375 6.6875 42.828125 6.6875 
Q 48.046875 6.6875 52.140625 7.59375 
Q 56.25 8.5 59.515625 10.40625 
z
" id="DejaVuSans-71"/>
      <path d="M 44.28125 53.078125 
L 44.28125 44.578125 
Q 40.484375 46.53125 36.375 47.5 
Q 32.28125 48.484375 27.875 48.484375 
Q 21.1875 48.484375 17.84375 46.4375 
Q 14.5 44.390625 14.5 40.28125 
Q 14.5 37.15625 16.890625 35.375 
Q 19.28125 33.59375 26.515625 31.984375 
L 29.59375 31.296875 
Q 39.15625 29.25 43.1875 25.515625 
Q 47.21875 21.78125 47.21875 15.09375 
Q 47.21875 7.46875 41.1875 3.015625 
Q 35.15625 -1.421875 24.609375 -1.421875 
Q 20.21875 -1.421875 15.453125 -0.5625 
Q 10.6875 0.296875 5.421875 2 
L 5.421875 11.28125 
Q 10.40625 8.6875 15.234375 7.390625 
Q 20.0625 6.109375 24.8125 6.109375 
Q 31.15625 6.109375 34.5625 8.28125 
Q 37.984375 10.453125 37.984375 14.40625 
Q 37.984375 18.0625 35.515625 20.015625 
Q 33.0625 21.96875 24.703125 23.78125 
L 21.578125 24.515625 
Q 13.234375 26.265625 9.515625 29.90625 
Q 5.8125 33.546875 5.8125 39.890625 
Q 5.8125 47.609375 11.28125 51.796875 
Q 16.75 56 26.8125 56 
Q 31.78125 56 36.171875 55.265625 
Q 40.578125 54.546875 44.28125 53.078125 
z
" id="DejaVuSans-115"/>
     </defs>
     <g transform="translate(1119.653438 28.737422)scale(0.1 -0.1)">
      <use xlink:href="#DejaVuSans-71"/>
      <use x="77.490234" xlink:href="#DejaVuSans-101"/>
      <use x="139.013672" xlink:href="#DejaVuSans-110"/>
      <use x="202.392578" xlink:href="#DejaVuSans-101"/>
      <use x="263.916016" xlink:href="#DejaVuSans-115"/>
      <use x="316.015625" xlink:href="#DejaVuSans-101"/>
      <use x="377.539062" xlink:href="#DejaVuSans-110"/>
      <use x="440.917969" xlink:href="#DejaVuSans-101"/>
     </g>
    </g>
    <g id="line2d_35">
     <path d="M 1091.653438 39.915547 
L 1111.653438 39.915547 
" style="fill:none;stroke:#2792cb;stroke-linecap:square;stroke-width:2;"/>
    </g>
    <g id="line2d_36">
     <g>
      <use style="fill:#2792cb;stroke:#2792cb;" x="1101.653438" xlink:href="#m66572b448e" y="39.915547"/>
     </g>
    </g>
    <g id="text_21">
     <!-- Erkrankte -->
     <defs>
      <path d="M 9.8125 72.90625 
L 55.90625 72.90625 
L 55.90625 64.59375 
L 19.671875 64.59375 
L 19.671875 43.015625 
L 54.390625 43.015625 
L 54.390625 34.71875 
L 19.671875 34.71875 
L 19.671875 8.296875 
L 56.78125 8.296875 
L 56.78125 0 
L 9.8125 0 
z
" id="DejaVuSans-69"/>
      <path d="M 41.109375 46.296875 
Q 39.59375 47.171875 37.8125 47.578125 
Q 36.03125 48 33.890625 48 
Q 26.265625 48 22.1875 43.046875 
Q 18.109375 38.09375 18.109375 28.8125 
L 18.109375 0 
L 9.078125 0 
L 9.078125 54.6875 
L 18.109375 54.6875 
L 18.109375 46.1875 
Q 20.953125 51.171875 25.484375 53.578125 
Q 30.03125 56 36.53125 56 
Q 37.453125 56 38.578125 55.875 
Q 39.703125 55.765625 41.0625 55.515625 
z
" id="DejaVuSans-114"/>
      <path d="M 9.078125 75.984375 
L 18.109375 75.984375 
L 18.109375 31.109375 
L 44.921875 54.6875 
L 56.390625 54.6875 
L 27.390625 29.109375 
L 57.625 0 
L 45.90625 0 
L 18.109375 26.703125 
L 18.109375 0 
L 9.078125 0 
z
" id="DejaVuSans-107"/>
      <path d="M 18.3125 70.21875 
L 18.3125 54.6875 
L 36.8125 54.6875 
L 36.8125 47.703125 
L 18.3125 47.703125 
L 18.3125 18.015625 
Q 18.3125 11.328125 20.140625 9.421875 
Q 21.96875 7.515625 27.59375 7.515625 
L 36.8125 7.515625 
L 36.8125 0 
L 27.59375 0 
Q 17.1875 0 13.234375 3.875 
Q 9.28125 7.765625 9.28125 18.015625 
L 9.28125 47.703125 
L 2.6875 47.703125 
L 2.6875 54.6875 
L 9.28125 54.6875 
L 9.28125 70.21875 
z
" id="DejaVuSans-116"/>
     </defs>
     <g transform="translate(1119.653438 43.415547)scale(0.1 -0.1)">
      <use xlink:href="#DejaVuSans-69"/>
      <use x="63.183594" xlink:href="#DejaVuSans-114"/>
      <use x="104.296875" xlink:href="#DejaVuSans-107"/>
      <use x="162.207031" xlink:href="#DejaVuSans-114"/>
      <use x="203.320312" xlink:href="#DejaVuSans-97"/>
      <use x="264.599609" xlink:href="#DejaVuSans-110"/>
      <use x="327.978516" xlink:href="#DejaVuSans-107"/>
      <use x="385.888672" xlink:href="#DejaVuSans-116"/>
      <use x="425.097656" xlink:href="#DejaVuSans-101"/>
     </g>
    </g>
   </g>
  </g>
 </g>
 <defs>
  <clipPath id="pfe6cd54db2">
   <rect height="489.6" width="1116" x="62.89875" y="12.138984"/>
  </clipPath>
 </defs>
</svg>
