<?xml version="1.0" encoding="utf-8" standalone="no"?>
<!DOCTYPE svg PUBLIC "-//W3C//DTD SVG 1.1//EN"
  "http://www.w3.org/Graphics/SVG/1.1/DTD/svg11.dtd">
<!-- Created with matplotlib (https://matplotlib.org/) -->
<svg height="553.993765pt" version="1.1" viewBox="0 0 1186.09875 553.993765" width="1186.09875pt" xmlns="http://www.w3.org/2000/svg" xmlns:xlink="http://www.w3.org/1999/xlink">
 <defs>
  <style type="text/css">
*{stroke-linecap:butt;stroke-linejoin:round;}
  </style>
 </defs>
 <g id="figure_1">
  <g id="patch_1">
   <path d="M 0 553.993765 
L 1186.09875 553.993765 
L 1186.09875 0 
L 0 0 
z
" style="fill:#ffffff;"/>
  </g>
  <g id="axes_1">
   <g id="patch_2">
    <path d="M 62.89875 501.738984 
L 1178.89875 501.738984 
L 1178.89875 12.138984 
L 62.89875 12.138984 
z
" style="fill:#ffffff;"/>
   </g>
   <g id="matplotlib.axis_1">
    <g id="xtick_1">
     <g id="line2d_1">
      <defs>
       <path d="M 0 0 
L 0 3.5 
" id="mb47421c194" style="stroke:#000000;stroke-width:0.8;"/>
      </defs>
      <g>
       <use style="stroke:#000000;stroke-width:0.8;" x="156.293822" xlink:href="#mb47421c194" y="501.738984"/>
      </g>
     </g>
     <g id="text_1">
      <!-- 2020-04 -->
      <defs>
       <path d="M 19.1875 8.296875 
L 53.609375 8.296875 
L 53.609375 0 
L 7.328125 0 
L 7.328125 8.296875 
Q 12.9375 14.109375 22.625 23.890625 
Q 32.328125 33.6875 34.8125 36.53125 
Q 39.546875 41.84375 41.421875 45.53125 
Q 43.3125 49.21875 43.3125 52.78125 
Q 43.3125 58.59375 39.234375 62.25 
Q 35.15625 65.921875 28.609375 65.921875 
Q 23.96875 65.921875 18.8125 64.3125 
Q 13.671875 62.703125 7.8125 59.421875 
L 7.8125 69.390625 
Q 13.765625 71.78125 18.9375 73 
Q 24.125 74.21875 28.421875 74.21875 
Q 39.75 74.21875 46.484375 68.546875 
Q 53.21875 62.890625 53.21875 53.421875 
Q 53.21875 48.921875 51.53125 44.890625 
Q 49.859375 40.875 45.40625 35.40625 
Q 44.1875 33.984375 37.640625 27.21875 
Q 31.109375 20.453125 19.1875 8.296875 
z
" id="DejaVuSans-50"/>
       <path d="M 31.78125 66.40625 
Q 24.171875 66.40625 20.328125 58.90625 
Q 16.5 51.421875 16.5 36.375 
Q 16.5 21.390625 20.328125 13.890625 
Q 24.171875 6.390625 31.78125 6.390625 
Q 39.453125 6.390625 43.28125 13.890625 
Q 47.125 21.390625 47.125 36.375 
Q 47.125 51.421875 43.28125 58.90625 
Q 39.453125 66.40625 31.78125 66.40625 
z
M 31.78125 74.21875 
Q 44.046875 74.21875 50.515625 64.515625 
Q 56.984375 54.828125 56.984375 36.375 
Q 56.984375 17.96875 50.515625 8.265625 
Q 44.046875 -1.421875 31.78125 -1.421875 
Q 19.53125 -1.421875 13.0625 8.265625 
Q 6.59375 17.96875 6.59375 36.375 
Q 6.59375 54.828125 13.0625 64.515625 
Q 19.53125 74.21875 31.78125 74.21875 
z
" id="DejaVuSans-48"/>
       <path d="M 4.890625 31.390625 
L 31.203125 31.390625 
L 31.203125 23.390625 
L 4.890625 23.390625 
z
" id="DejaVuSans-45"/>
       <path d="M 37.796875 64.3125 
L 12.890625 25.390625 
L 37.796875 25.390625 
z
M 35.203125 72.90625 
L 47.609375 72.90625 
L 47.609375 25.390625 
L 58.015625 25.390625 
L 58.015625 17.1875 
L 47.609375 17.1875 
L 47.609375 0 
L 37.796875 0 
L 37.796875 17.1875 
L 4.890625 17.1875 
L 4.890625 26.703125 
z
" id="DejaVuSans-52"/>
      </defs>
      <g transform="translate(107.901555 544.452384)rotate(-30)scale(0.13 -0.13)">
       <use xlink:href="#DejaVuSans-50"/>
       <use x="63.623047" xlink:href="#DejaVuSans-48"/>
       <use x="127.246094" xlink:href="#DejaVuSans-50"/>
       <use x="190.869141" xlink:href="#DejaVuSans-48"/>
       <use x="254.492188" xlink:href="#DejaVuSans-45"/>
       <use x="290.576172" xlink:href="#DejaVuSans-48"/>
       <use x="354.199219" xlink:href="#DejaVuSans-52"/>
      </g>
     </g>
    </g>
    <g id="xtick_2">
     <g id="line2d_2">
      <g>
       <use style="stroke:#000000;stroke-width:0.8;" x="298.519821" xlink:href="#mb47421c194" y="501.738984"/>
      </g>
     </g>
     <g id="text_2">
      <!-- 2020-05 -->
      <defs>
       <path d="M 10.796875 72.90625 
L 49.515625 72.90625 
L 49.515625 64.59375 
L 19.828125 64.59375 
L 19.828125 46.734375 
Q 21.96875 47.46875 24.109375 47.828125 
Q 26.265625 48.1875 28.421875 48.1875 
Q 40.625 48.1875 47.75 41.5 
Q 54.890625 34.8125 54.890625 23.390625 
Q 54.890625 11.625 47.5625 5.09375 
Q 40.234375 -1.421875 26.90625 -1.421875 
Q 22.3125 -1.421875 17.546875 -0.640625 
Q 12.796875 0.140625 7.71875 1.703125 
L 7.71875 11.625 
Q 12.109375 9.234375 16.796875 8.0625 
Q 21.484375 6.890625 26.703125 6.890625 
Q 35.15625 6.890625 40.078125 11.328125 
Q 45.015625 15.765625 45.015625 23.390625 
Q 45.015625 31 40.078125 35.4375 
Q 35.15625 39.890625 26.703125 39.890625 
Q 22.75 39.890625 18.8125 39.015625 
Q 14.890625 38.140625 10.796875 36.28125 
z
" id="DejaVuSans-53"/>
      </defs>
      <g transform="translate(250.127553 544.452384)rotate(-30)scale(0.13 -0.13)">
       <use xlink:href="#DejaVuSans-50"/>
       <use x="63.623047" xlink:href="#DejaVuSans-48"/>
       <use x="127.246094" xlink:href="#DejaVuSans-50"/>
       <use x="190.869141" xlink:href="#DejaVuSans-48"/>
       <use x="254.492188" xlink:href="#DejaVuSans-45"/>
       <use x="290.576172" xlink:href="#DejaVuSans-48"/>
       <use x="354.199219" xlink:href="#DejaVuSans-53"/>
      </g>
     </g>
    </g>
    <g id="xtick_3">
     <g id="line2d_3">
      <g>
       <use style="stroke:#000000;stroke-width:0.8;" x="445.486685" xlink:href="#mb47421c194" y="501.738984"/>
      </g>
     </g>
     <g id="text_3">
      <!-- 2020-06 -->
      <defs>
       <path d="M 33.015625 40.375 
Q 26.375 40.375 22.484375 35.828125 
Q 18.609375 31.296875 18.609375 23.390625 
Q 18.609375 15.53125 22.484375 10.953125 
Q 26.375 6.390625 33.015625 6.390625 
Q 39.65625 6.390625 43.53125 10.953125 
Q 47.40625 15.53125 47.40625 23.390625 
Q 47.40625 31.296875 43.53125 35.828125 
Q 39.65625 40.375 33.015625 40.375 
z
M 52.59375 71.296875 
L 52.59375 62.3125 
Q 48.875 64.0625 45.09375 64.984375 
Q 41.3125 65.921875 37.59375 65.921875 
Q 27.828125 65.921875 22.671875 59.328125 
Q 17.53125 52.734375 16.796875 39.40625 
Q 19.671875 43.65625 24.015625 45.921875 
Q 28.375 48.1875 33.59375 48.1875 
Q 44.578125 48.1875 50.953125 41.515625 
Q 57.328125 34.859375 57.328125 23.390625 
Q 57.328125 12.15625 50.6875 5.359375 
Q 44.046875 -1.421875 33.015625 -1.421875 
Q 20.359375 -1.421875 13.671875 8.265625 
Q 6.984375 17.96875 6.984375 36.375 
Q 6.984375 53.65625 15.1875 63.9375 
Q 23.390625 74.21875 37.203125 74.21875 
Q 40.921875 74.21875 44.703125 73.484375 
Q 48.484375 72.75 52.59375 71.296875 
z
" id="DejaVuSans-54"/>
      </defs>
      <g transform="translate(397.094418 544.452384)rotate(-30)scale(0.13 -0.13)">
       <use xlink:href="#DejaVuSans-50"/>
       <use x="63.623047" xlink:href="#DejaVuSans-48"/>
       <use x="127.246094" xlink:href="#DejaVuSans-50"/>
       <use x="190.869141" xlink:href="#DejaVuSans-48"/>
       <use x="254.492188" xlink:href="#DejaVuSans-45"/>
       <use x="290.576172" xlink:href="#DejaVuSans-48"/>
       <use x="354.199219" xlink:href="#DejaVuSans-54"/>
      </g>
     </g>
    </g>
    <g id="xtick_4">
     <g id="line2d_4">
      <g>
       <use style="stroke:#000000;stroke-width:0.8;" x="587.712684" xlink:href="#mb47421c194" y="501.738984"/>
      </g>
     </g>
     <g id="text_4">
      <!-- 2020-07 -->
      <defs>
       <path d="M 8.203125 72.90625 
L 55.078125 72.90625 
L 55.078125 68.703125 
L 28.609375 0 
L 18.3125 0 
L 43.21875 64.59375 
L 8.203125 64.59375 
z
" id="DejaVuSans-55"/>
      </defs>
      <g transform="translate(539.320417 544.452384)rotate(-30)scale(0.13 -0.13)">
       <use xlink:href="#DejaVuSans-50"/>
       <use x="63.623047" xlink:href="#DejaVuSans-48"/>
       <use x="127.246094" xlink:href="#DejaVuSans-50"/>
       <use x="190.869141" xlink:href="#DejaVuSans-48"/>
       <use x="254.492188" xlink:href="#DejaVuSans-45"/>
       <use x="290.576172" xlink:href="#DejaVuSans-48"/>
       <use x="354.199219" xlink:href="#DejaVuSans-55"/>
      </g>
     </g>
    </g>
    <g id="xtick_5">
     <g id="line2d_5">
      <g>
       <use style="stroke:#000000;stroke-width:0.8;" x="734.679549" xlink:href="#mb47421c194" y="501.738984"/>
      </g>
     </g>
     <g id="text_5">
      <!-- 2020-08 -->
      <defs>
       <path d="M 31.78125 34.625 
Q 24.75 34.625 20.71875 30.859375 
Q 16.703125 27.09375 16.703125 20.515625 
Q 16.703125 13.921875 20.71875 10.15625 
Q 24.75 6.390625 31.78125 6.390625 
Q 38.8125 6.390625 42.859375 10.171875 
Q 46.921875 13.96875 46.921875 20.515625 
Q 46.921875 27.09375 42.890625 30.859375 
Q 38.875 34.625 31.78125 34.625 
z
M 21.921875 38.8125 
Q 15.578125 40.375 12.03125 44.71875 
Q 8.5 49.078125 8.5 55.328125 
Q 8.5 64.0625 14.71875 69.140625 
Q 20.953125 74.21875 31.78125 74.21875 
Q 42.671875 74.21875 48.875 69.140625 
Q 55.078125 64.0625 55.078125 55.328125 
Q 55.078125 49.078125 51.53125 44.71875 
Q 48 40.375 41.703125 38.8125 
Q 48.828125 37.15625 52.796875 32.3125 
Q 56.78125 27.484375 56.78125 20.515625 
Q 56.78125 9.90625 50.3125 4.234375 
Q 43.84375 -1.421875 31.78125 -1.421875 
Q 19.734375 -1.421875 13.25 4.234375 
Q 6.78125 9.90625 6.78125 20.515625 
Q 6.78125 27.484375 10.78125 32.3125 
Q 14.796875 37.15625 21.921875 38.8125 
z
M 18.3125 54.390625 
Q 18.3125 48.734375 21.84375 45.5625 
Q 25.390625 42.390625 31.78125 42.390625 
Q 38.140625 42.390625 41.71875 45.5625 
Q 45.3125 48.734375 45.3125 54.390625 
Q 45.3125 60.0625 41.71875 63.234375 
Q 38.140625 66.40625 31.78125 66.40625 
Q 25.390625 66.40625 21.84375 63.234375 
Q 18.3125 60.0625 18.3125 54.390625 
z
" id="DejaVuSans-56"/>
      </defs>
      <g transform="translate(686.287282 544.452384)rotate(-30)scale(0.13 -0.13)">
       <use xlink:href="#DejaVuSans-50"/>
       <use x="63.623047" xlink:href="#DejaVuSans-48"/>
       <use x="127.246094" xlink:href="#DejaVuSans-50"/>
       <use x="190.869141" xlink:href="#DejaVuSans-48"/>
       <use x="254.492188" xlink:href="#DejaVuSans-45"/>
       <use x="290.576172" xlink:href="#DejaVuSans-48"/>
       <use x="354.199219" xlink:href="#DejaVuSans-56"/>
      </g>
     </g>
    </g>
    <g id="xtick_6">
     <g id="line2d_6">
      <g>
       <use style="stroke:#000000;stroke-width:0.8;" x="881.646414" xlink:href="#mb47421c194" y="501.738984"/>
      </g>
     </g>
     <g id="text_6">
      <!-- 2020-09 -->
      <defs>
       <path d="M 10.984375 1.515625 
L 10.984375 10.5 
Q 14.703125 8.734375 18.5 7.8125 
Q 22.3125 6.890625 25.984375 6.890625 
Q 35.75 6.890625 40.890625 13.453125 
Q 46.046875 20.015625 46.78125 33.40625 
Q 43.953125 29.203125 39.59375 26.953125 
Q 35.25 24.703125 29.984375 24.703125 
Q 19.046875 24.703125 12.671875 31.3125 
Q 6.296875 37.9375 6.296875 49.421875 
Q 6.296875 60.640625 12.9375 67.421875 
Q 19.578125 74.21875 30.609375 74.21875 
Q 43.265625 74.21875 49.921875 64.515625 
Q 56.59375 54.828125 56.59375 36.375 
Q 56.59375 19.140625 48.40625 8.859375 
Q 40.234375 -1.421875 26.421875 -1.421875 
Q 22.703125 -1.421875 18.890625 -0.6875 
Q 15.09375 0.046875 10.984375 1.515625 
z
M 30.609375 32.421875 
Q 37.25 32.421875 41.125 36.953125 
Q 45.015625 41.5 45.015625 49.421875 
Q 45.015625 57.28125 41.125 61.84375 
Q 37.25 66.40625 30.609375 66.40625 
Q 23.96875 66.40625 20.09375 61.84375 
Q 16.21875 57.28125 16.21875 49.421875 
Q 16.21875 41.5 20.09375 36.953125 
Q 23.96875 32.421875 30.609375 32.421875 
z
" id="DejaVuSans-57"/>
      </defs>
      <g transform="translate(833.254146 544.452384)rotate(-30)scale(0.13 -0.13)">
       <use xlink:href="#DejaVuSans-50"/>
       <use x="63.623047" xlink:href="#DejaVuSans-48"/>
       <use x="127.246094" xlink:href="#DejaVuSans-50"/>
       <use x="190.869141" xlink:href="#DejaVuSans-48"/>
       <use x="254.492188" xlink:href="#DejaVuSans-45"/>
       <use x="290.576172" xlink:href="#DejaVuSans-48"/>
       <use x="354.199219" xlink:href="#DejaVuSans-57"/>
      </g>
     </g>
    </g>
    <g id="xtick_7">
     <g id="line2d_7">
      <g>
       <use style="stroke:#000000;stroke-width:0.8;" x="1023.872412" xlink:href="#mb47421c194" y="501.738984"/>
      </g>
     </g>
     <g id="text_7">
      <!-- 2020-10 -->
      <defs>
       <path d="M 12.40625 8.296875 
L 28.515625 8.296875 
L 28.515625 63.921875 
L 10.984375 60.40625 
L 10.984375 69.390625 
L 28.421875 72.90625 
L 38.28125 72.90625 
L 38.28125 8.296875 
L 54.390625 8.296875 
L 54.390625 0 
L 12.40625 0 
z
" id="DejaVuSans-49"/>
      </defs>
      <g transform="translate(975.480145 544.452384)rotate(-30)scale(0.13 -0.13)">
       <use xlink:href="#DejaVuSans-50"/>
       <use x="63.623047" xlink:href="#DejaVuSans-48"/>
       <use x="127.246094" xlink:href="#DejaVuSans-50"/>
       <use x="190.869141" xlink:href="#DejaVuSans-48"/>
       <use x="254.492188" xlink:href="#DejaVuSans-45"/>
       <use x="290.576172" xlink:href="#DejaVuSans-49"/>
       <use x="354.199219" xlink:href="#DejaVuSans-48"/>
      </g>
     </g>
    </g>
    <g id="xtick_8">
     <g id="line2d_8">
      <g>
       <use style="stroke:#000000;stroke-width:0.8;" x="1170.839277" xlink:href="#mb47421c194" y="501.738984"/>
      </g>
     </g>
     <g id="text_8">
      <!-- 2020-11 -->
      <g transform="translate(1122.44701 544.452384)rotate(-30)scale(0.13 -0.13)">
       <use xlink:href="#DejaVuSans-50"/>
       <use x="63.623047" xlink:href="#DejaVuSans-48"/>
       <use x="127.246094" xlink:href="#DejaVuSans-50"/>
       <use x="190.869141" xlink:href="#DejaVuSans-48"/>
       <use x="254.492188" xlink:href="#DejaVuSans-45"/>
       <use x="290.576172" xlink:href="#DejaVuSans-49"/>
       <use x="354.199219" xlink:href="#DejaVuSans-49"/>
      </g>
     </g>
    </g>
   </g>
   <g id="matplotlib.axis_2">
    <g id="ytick_1">
     <g id="line2d_9">
      <path clip-path="url(#pedeecaa2ea)" d="M 62.89875 480.151889 
L 1178.89875 480.151889 
" style="fill:none;stroke:#b0b0b0;stroke-linecap:square;stroke-width:0.8;"/>
     </g>
     <g id="line2d_10">
      <defs>
       <path d="M 0 0 
L -3.5 0 
" id="m471ae3bc81" style="stroke:#000000;stroke-width:0.8;"/>
      </defs>
      <g>
       <use style="stroke:#000000;stroke-width:0.8;" x="62.89875" xlink:href="#m471ae3bc81" y="480.151889"/>
      </g>
     </g>
     <g id="text_9">
      <!-- 0 -->
      <g transform="translate(47.6275 485.090874)scale(0.13 -0.13)">
       <use xlink:href="#DejaVuSans-48"/>
      </g>
     </g>
    </g>
    <g id="ytick_2">
     <g id="line2d_11">
      <path clip-path="url(#pedeecaa2ea)" d="M 62.89875 441.150814 
L 1178.89875 441.150814 
" style="fill:none;stroke:#b0b0b0;stroke-linecap:square;stroke-width:0.8;"/>
     </g>
     <g id="line2d_12">
      <g>
       <use style="stroke:#000000;stroke-width:0.8;" x="62.89875" xlink:href="#m471ae3bc81" y="441.150814"/>
      </g>
     </g>
     <g id="text_10">
      <!-- 100 -->
      <g transform="translate(31.085 446.089798)scale(0.13 -0.13)">
       <use xlink:href="#DejaVuSans-49"/>
       <use x="63.623047" xlink:href="#DejaVuSans-48"/>
       <use x="127.246094" xlink:href="#DejaVuSans-48"/>
      </g>
     </g>
    </g>
    <g id="ytick_3">
     <g id="line2d_13">
      <path clip-path="url(#pedeecaa2ea)" d="M 62.89875 402.149738 
L 1178.89875 402.149738 
" style="fill:none;stroke:#b0b0b0;stroke-linecap:square;stroke-width:0.8;"/>
     </g>
     <g id="line2d_14">
      <g>
       <use style="stroke:#000000;stroke-width:0.8;" x="62.89875" xlink:href="#m471ae3bc81" y="402.149738"/>
      </g>
     </g>
     <g id="text_11">
      <!-- 200 -->
      <g transform="translate(31.085 407.088723)scale(0.13 -0.13)">
       <use xlink:href="#DejaVuSans-50"/>
       <use x="63.623047" xlink:href="#DejaVuSans-48"/>
       <use x="127.246094" xlink:href="#DejaVuSans-48"/>
      </g>
     </g>
    </g>
    <g id="ytick_4">
     <g id="line2d_15">
      <path clip-path="url(#pedeecaa2ea)" d="M 62.89875 363.148663 
L 1178.89875 363.148663 
" style="fill:none;stroke:#b0b0b0;stroke-linecap:square;stroke-width:0.8;"/>
     </g>
     <g id="line2d_16">
      <g>
       <use style="stroke:#000000;stroke-width:0.8;" x="62.89875" xlink:href="#m471ae3bc81" y="363.148663"/>
      </g>
     </g>
     <g id="text_12">
      <!-- 300 -->
      <defs>
       <path d="M 40.578125 39.3125 
Q 47.65625 37.796875 51.625 33 
Q 55.609375 28.21875 55.609375 21.1875 
Q 55.609375 10.40625 48.1875 4.484375 
Q 40.765625 -1.421875 27.09375 -1.421875 
Q 22.515625 -1.421875 17.65625 -0.515625 
Q 12.796875 0.390625 7.625 2.203125 
L 7.625 11.71875 
Q 11.71875 9.328125 16.59375 8.109375 
Q 21.484375 6.890625 26.8125 6.890625 
Q 36.078125 6.890625 40.9375 10.546875 
Q 45.796875 14.203125 45.796875 21.1875 
Q 45.796875 27.640625 41.28125 31.265625 
Q 36.765625 34.90625 28.71875 34.90625 
L 20.21875 34.90625 
L 20.21875 43.015625 
L 29.109375 43.015625 
Q 36.375 43.015625 40.234375 45.921875 
Q 44.09375 48.828125 44.09375 54.296875 
Q 44.09375 59.90625 40.109375 62.90625 
Q 36.140625 65.921875 28.71875 65.921875 
Q 24.65625 65.921875 20.015625 65.03125 
Q 15.375 64.15625 9.8125 62.3125 
L 9.8125 71.09375 
Q 15.4375 72.65625 20.34375 73.4375 
Q 25.25 74.21875 29.59375 74.21875 
Q 40.828125 74.21875 47.359375 69.109375 
Q 53.90625 64.015625 53.90625 55.328125 
Q 53.90625 49.265625 50.4375 45.09375 
Q 46.96875 40.921875 40.578125 39.3125 
z
" id="DejaVuSans-51"/>
      </defs>
      <g transform="translate(31.085 368.087647)scale(0.13 -0.13)">
       <use xlink:href="#DejaVuSans-51"/>
       <use x="63.623047" xlink:href="#DejaVuSans-48"/>
       <use x="127.246094" xlink:href="#DejaVuSans-48"/>
      </g>
     </g>
    </g>
    <g id="ytick_5">
     <g id="line2d_17">
      <path clip-path="url(#pedeecaa2ea)" d="M 62.89875 324.147588 
L 1178.89875 324.147588 
" style="fill:none;stroke:#b0b0b0;stroke-linecap:square;stroke-width:0.8;"/>
     </g>
     <g id="line2d_18">
      <g>
       <use style="stroke:#000000;stroke-width:0.8;" x="62.89875" xlink:href="#m471ae3bc81" y="324.147588"/>
      </g>
     </g>
     <g id="text_13">
      <!-- 400 -->
      <g transform="translate(31.085 329.086572)scale(0.13 -0.13)">
       <use xlink:href="#DejaVuSans-52"/>
       <use x="63.623047" xlink:href="#DejaVuSans-48"/>
       <use x="127.246094" xlink:href="#DejaVuSans-48"/>
      </g>
     </g>
    </g>
    <g id="ytick_6">
     <g id="line2d_19">
      <path clip-path="url(#pedeecaa2ea)" d="M 62.89875 285.146512 
L 1178.89875 285.146512 
" style="fill:none;stroke:#b0b0b0;stroke-linecap:square;stroke-width:0.8;"/>
     </g>
     <g id="line2d_20">
      <g>
       <use style="stroke:#000000;stroke-width:0.8;" x="62.89875" xlink:href="#m471ae3bc81" y="285.146512"/>
      </g>
     </g>
     <g id="text_14">
      <!-- 500 -->
      <g transform="translate(31.085 290.085497)scale(0.13 -0.13)">
       <use xlink:href="#DejaVuSans-53"/>
       <use x="63.623047" xlink:href="#DejaVuSans-48"/>
       <use x="127.246094" xlink:href="#DejaVuSans-48"/>
      </g>
     </g>
    </g>
    <g id="ytick_7">
     <g id="line2d_21">
      <path clip-path="url(#pedeecaa2ea)" d="M 62.89875 246.145437 
L 1178.89875 246.145437 
" style="fill:none;stroke:#b0b0b0;stroke-linecap:square;stroke-width:0.8;"/>
     </g>
     <g id="line2d_22">
      <g>
       <use style="stroke:#000000;stroke-width:0.8;" x="62.89875" xlink:href="#m471ae3bc81" y="246.145437"/>
      </g>
     </g>
     <g id="text_15">
      <!-- 600 -->
      <g transform="translate(31.085 251.084421)scale(0.13 -0.13)">
       <use xlink:href="#DejaVuSans-54"/>
       <use x="63.623047" xlink:href="#DejaVuSans-48"/>
       <use x="127.246094" xlink:href="#DejaVuSans-48"/>
      </g>
     </g>
    </g>
    <g id="ytick_8">
     <g id="line2d_23">
      <path clip-path="url(#pedeecaa2ea)" d="M 62.89875 207.144361 
L 1178.89875 207.144361 
" style="fill:none;stroke:#b0b0b0;stroke-linecap:square;stroke-width:0.8;"/>
     </g>
     <g id="line2d_24">
      <g>
       <use style="stroke:#000000;stroke-width:0.8;" x="62.89875" xlink:href="#m471ae3bc81" y="207.144361"/>
      </g>
     </g>
     <g id="text_16">
      <!-- 700 -->
      <g transform="translate(31.085 212.083346)scale(0.13 -0.13)">
       <use xlink:href="#DejaVuSans-55"/>
       <use x="63.623047" xlink:href="#DejaVuSans-48"/>
       <use x="127.246094" xlink:href="#DejaVuSans-48"/>
      </g>
     </g>
    </g>
    <g id="ytick_9">
     <g id="line2d_25">
      <path clip-path="url(#pedeecaa2ea)" d="M 62.89875 168.143286 
L 1178.89875 168.143286 
" style="fill:none;stroke:#b0b0b0;stroke-linecap:square;stroke-width:0.8;"/>
     </g>
     <g id="line2d_26">
      <g>
       <use style="stroke:#000000;stroke-width:0.8;" x="62.89875" xlink:href="#m471ae3bc81" y="168.143286"/>
      </g>
     </g>
     <g id="text_17">
      <!-- 800 -->
      <g transform="translate(31.085 173.08227)scale(0.13 -0.13)">
       <use xlink:href="#DejaVuSans-56"/>
       <use x="63.623047" xlink:href="#DejaVuSans-48"/>
       <use x="127.246094" xlink:href="#DejaVuSans-48"/>
      </g>
     </g>
    </g>
    <g id="ytick_10">
     <g id="line2d_27">
      <path clip-path="url(#pedeecaa2ea)" d="M 62.89875 129.142211 
L 1178.89875 129.142211 
" style="fill:none;stroke:#b0b0b0;stroke-linecap:square;stroke-width:0.8;"/>
     </g>
     <g id="line2d_28">
      <g>
       <use style="stroke:#000000;stroke-width:0.8;" x="62.89875" xlink:href="#m471ae3bc81" y="129.142211"/>
      </g>
     </g>
     <g id="text_18">
      <!-- 900 -->
      <g transform="translate(31.085 134.081195)scale(0.13 -0.13)">
       <use xlink:href="#DejaVuSans-57"/>
       <use x="63.623047" xlink:href="#DejaVuSans-48"/>
       <use x="127.246094" xlink:href="#DejaVuSans-48"/>
      </g>
     </g>
    </g>
    <g id="ytick_11">
     <g id="line2d_29">
      <path clip-path="url(#pedeecaa2ea)" d="M 62.89875 90.141135 
L 1178.89875 90.141135 
" style="fill:none;stroke:#b0b0b0;stroke-linecap:square;stroke-width:0.8;"/>
     </g>
     <g id="line2d_30">
      <g>
       <use style="stroke:#000000;stroke-width:0.8;" x="62.89875" xlink:href="#m471ae3bc81" y="90.141135"/>
      </g>
     </g>
     <g id="text_19">
      <!-- 1000 -->
      <g transform="translate(22.81375 95.08012)scale(0.13 -0.13)">
       <use xlink:href="#DejaVuSans-49"/>
       <use x="63.623047" xlink:href="#DejaVuSans-48"/>
       <use x="127.246094" xlink:href="#DejaVuSans-48"/>
       <use x="190.869141" xlink:href="#DejaVuSans-48"/>
      </g>
     </g>
    </g>
    <g id="ytick_12">
     <g id="line2d_31">
      <path clip-path="url(#pedeecaa2ea)" d="M 62.89875 51.14006 
L 1178.89875 51.14006 
" style="fill:none;stroke:#b0b0b0;stroke-linecap:square;stroke-width:0.8;"/>
     </g>
     <g id="line2d_32">
      <g>
       <use style="stroke:#000000;stroke-width:0.8;" x="62.89875" xlink:href="#m471ae3bc81" y="51.14006"/>
      </g>
     </g>
     <g id="text_20">
      <!-- 1100 -->
      <g transform="translate(22.81375 56.079044)scale(0.13 -0.13)">
       <use xlink:href="#DejaVuSans-49"/>
       <use x="63.623047" xlink:href="#DejaVuSans-49"/>
       <use x="127.246094" xlink:href="#DejaVuSans-48"/>
       <use x="190.869141" xlink:href="#DejaVuSans-48"/>
      </g>
     </g>
    </g>
    <g id="ytick_13">
     <g id="line2d_33">
      <path clip-path="url(#pedeecaa2ea)" d="M 62.89875 12.138984 
L 1178.89875 12.138984 
" style="fill:none;stroke:#b0b0b0;stroke-linecap:square;stroke-width:0.8;"/>
     </g>
     <g id="line2d_34">
      <g>
       <use style="stroke:#000000;stroke-width:0.8;" x="62.89875" xlink:href="#m471ae3bc81" y="12.138984"/>
      </g>
     </g>
     <g id="text_21">
      <!-- 1200 -->
      <g transform="translate(22.81375 17.077969)scale(0.13 -0.13)">
       <use xlink:href="#DejaVuSans-49"/>
       <use x="63.623047" xlink:href="#DejaVuSans-50"/>
       <use x="127.246094" xlink:href="#DejaVuSans-48"/>
       <use x="190.869141" xlink:href="#DejaVuSans-48"/>
      </g>
     </g>
    </g>
    <g id="text_22">
     <!-- Anzahl von Fällen -->
     <defs>
      <path d="M 34.1875 63.1875 
L 20.796875 26.90625 
L 47.609375 26.90625 
z
M 28.609375 72.90625 
L 39.796875 72.90625 
L 67.578125 0 
L 57.328125 0 
L 50.6875 18.703125 
L 17.828125 18.703125 
L 11.1875 0 
L 0.78125 0 
z
" id="DejaVuSans-65"/>
      <path d="M 54.890625 33.015625 
L 54.890625 0 
L 45.90625 0 
L 45.90625 32.71875 
Q 45.90625 40.484375 42.875 44.328125 
Q 39.84375 48.1875 33.796875 48.1875 
Q 26.515625 48.1875 22.3125 43.546875 
Q 18.109375 38.921875 18.109375 30.90625 
L 18.109375 0 
L 9.078125 0 
L 9.078125 54.6875 
L 18.109375 54.6875 
L 18.109375 46.1875 
Q 21.34375 51.125 25.703125 53.5625 
Q 30.078125 56 35.796875 56 
Q 45.21875 56 50.046875 50.171875 
Q 54.890625 44.34375 54.890625 33.015625 
z
" id="DejaVuSans-110"/>
      <path d="M 5.515625 54.6875 
L 48.1875 54.6875 
L 48.1875 46.484375 
L 14.40625 7.171875 
L 48.1875 7.171875 
L 48.1875 0 
L 4.296875 0 
L 4.296875 8.203125 
L 38.09375 47.515625 
L 5.515625 47.515625 
z
" id="DejaVuSans-122"/>
      <path d="M 34.28125 27.484375 
Q 23.390625 27.484375 19.1875 25 
Q 14.984375 22.515625 14.984375 16.5 
Q 14.984375 11.71875 18.140625 8.90625 
Q 21.296875 6.109375 26.703125 6.109375 
Q 34.1875 6.109375 38.703125 11.40625 
Q 43.21875 16.703125 43.21875 25.484375 
L 43.21875 27.484375 
z
M 52.203125 31.203125 
L 52.203125 0 
L 43.21875 0 
L 43.21875 8.296875 
Q 40.140625 3.328125 35.546875 0.953125 
Q 30.953125 -1.421875 24.3125 -1.421875 
Q 15.921875 -1.421875 10.953125 3.296875 
Q 6 8.015625 6 15.921875 
Q 6 25.140625 12.171875 29.828125 
Q 18.359375 34.515625 30.609375 34.515625 
L 43.21875 34.515625 
L 43.21875 35.40625 
Q 43.21875 41.609375 39.140625 45 
Q 35.0625 48.390625 27.6875 48.390625 
Q 23 48.390625 18.546875 47.265625 
Q 14.109375 46.140625 10.015625 43.890625 
L 10.015625 52.203125 
Q 14.9375 54.109375 19.578125 55.046875 
Q 24.21875 56 28.609375 56 
Q 40.484375 56 46.34375 49.84375 
Q 52.203125 43.703125 52.203125 31.203125 
z
" id="DejaVuSans-97"/>
      <path d="M 54.890625 33.015625 
L 54.890625 0 
L 45.90625 0 
L 45.90625 32.71875 
Q 45.90625 40.484375 42.875 44.328125 
Q 39.84375 48.1875 33.796875 48.1875 
Q 26.515625 48.1875 22.3125 43.546875 
Q 18.109375 38.921875 18.109375 30.90625 
L 18.109375 0 
L 9.078125 0 
L 9.078125 75.984375 
L 18.109375 75.984375 
L 18.109375 46.1875 
Q 21.34375 51.125 25.703125 53.5625 
Q 30.078125 56 35.796875 56 
Q 45.21875 56 50.046875 50.171875 
Q 54.890625 44.34375 54.890625 33.015625 
z
" id="DejaVuSans-104"/>
      <path d="M 9.421875 75.984375 
L 18.40625 75.984375 
L 18.40625 0 
L 9.421875 0 
z
" id="DejaVuSans-108"/>
      <path id="DejaVuSans-32"/>
      <path d="M 2.984375 54.6875 
L 12.5 54.6875 
L 29.59375 8.796875 
L 46.6875 54.6875 
L 56.203125 54.6875 
L 35.6875 0 
L 23.484375 0 
z
" id="DejaVuSans-118"/>
      <path d="M 30.609375 48.390625 
Q 23.390625 48.390625 19.1875 42.75 
Q 14.984375 37.109375 14.984375 27.296875 
Q 14.984375 17.484375 19.15625 11.84375 
Q 23.34375 6.203125 30.609375 6.203125 
Q 37.796875 6.203125 41.984375 11.859375 
Q 46.1875 17.53125 46.1875 27.296875 
Q 46.1875 37.015625 41.984375 42.703125 
Q 37.796875 48.390625 30.609375 48.390625 
z
M 30.609375 56 
Q 42.328125 56 49.015625 48.375 
Q 55.71875 40.765625 55.71875 27.296875 
Q 55.71875 13.875 49.015625 6.21875 
Q 42.328125 -1.421875 30.609375 -1.421875 
Q 18.84375 -1.421875 12.171875 6.21875 
Q 5.515625 13.875 5.515625 27.296875 
Q 5.515625 40.765625 12.171875 48.375 
Q 18.84375 56 30.609375 56 
z
" id="DejaVuSans-111"/>
      <path d="M 9.8125 72.90625 
L 51.703125 72.90625 
L 51.703125 64.59375 
L 19.671875 64.59375 
L 19.671875 43.109375 
L 48.578125 43.109375 
L 48.578125 34.8125 
L 19.671875 34.8125 
L 19.671875 0 
L 9.8125 0 
z
" id="DejaVuSans-70"/>
      <path d="M 34.28125 27.484375 
Q 23.390625 27.484375 19.1875 25 
Q 14.984375 22.515625 14.984375 16.5 
Q 14.984375 11.71875 18.140625 8.90625 
Q 21.296875 6.109375 26.703125 6.109375 
Q 34.1875 6.109375 38.703125 11.40625 
Q 43.21875 16.703125 43.21875 25.484375 
L 43.21875 27.484375 
z
M 52.203125 31.203125 
L 52.203125 0 
L 43.21875 0 
L 43.21875 8.296875 
Q 40.140625 3.328125 35.546875 0.953125 
Q 30.953125 -1.421875 24.3125 -1.421875 
Q 15.921875 -1.421875 10.953125 3.296875 
Q 6 8.015625 6 15.921875 
Q 6 25.140625 12.171875 29.828125 
Q 18.359375 34.515625 30.609375 34.515625 
L 43.21875 34.515625 
L 43.21875 35.40625 
Q 43.21875 41.609375 39.140625 45 
Q 35.0625 48.390625 27.6875 48.390625 
Q 23 48.390625 18.546875 47.265625 
Q 14.109375 46.140625 10.015625 43.890625 
L 10.015625 52.203125 
Q 14.9375 54.109375 19.578125 55.046875 
Q 24.21875 56 28.609375 56 
Q 40.484375 56 46.34375 49.84375 
Q 52.203125 43.703125 52.203125 31.203125 
z
M 33.59375 75.78125 
L 43.5 75.78125 
L 43.5 65.921875 
L 33.59375 65.921875 
z
M 14.5 75.78125 
L 24.40625 75.78125 
L 24.40625 65.921875 
L 14.5 65.921875 
z
" id="DejaVuSans-228"/>
      <path d="M 56.203125 29.59375 
L 56.203125 25.203125 
L 14.890625 25.203125 
Q 15.484375 15.921875 20.484375 11.0625 
Q 25.484375 6.203125 34.421875 6.203125 
Q 39.59375 6.203125 44.453125 7.46875 
Q 49.3125 8.734375 54.109375 11.28125 
L 54.109375 2.78125 
Q 49.265625 0.734375 44.1875 -0.34375 
Q 39.109375 -1.421875 33.890625 -1.421875 
Q 20.796875 -1.421875 13.15625 6.1875 
Q 5.515625 13.8125 5.515625 26.8125 
Q 5.515625 40.234375 12.765625 48.109375 
Q 20.015625 56 32.328125 56 
Q 43.359375 56 49.78125 48.890625 
Q 56.203125 41.796875 56.203125 29.59375 
z
M 47.21875 32.234375 
Q 47.125 39.59375 43.09375 43.984375 
Q 39.0625 48.390625 32.421875 48.390625 
Q 24.90625 48.390625 20.390625 44.140625 
Q 15.875 39.890625 15.1875 32.171875 
z
" id="DejaVuSans-101"/>
     </defs>
     <g transform="translate(16.318125 309.388359)rotate(-90)scale(0.12 -0.12)">
      <use xlink:href="#DejaVuSans-65"/>
      <use x="68.408203" xlink:href="#DejaVuSans-110"/>
      <use x="131.787109" xlink:href="#DejaVuSans-122"/>
      <use x="184.277344" xlink:href="#DejaVuSans-97"/>
      <use x="245.556641" xlink:href="#DejaVuSans-104"/>
      <use x="308.935547" xlink:href="#DejaVuSans-108"/>
      <use x="336.71875" xlink:href="#DejaVuSans-32"/>
      <use x="368.505859" xlink:href="#DejaVuSans-118"/>
      <use x="427.685547" xlink:href="#DejaVuSans-111"/>
      <use x="488.867188" xlink:href="#DejaVuSans-110"/>
      <use x="552.246094" xlink:href="#DejaVuSans-32"/>
      <use x="584.033203" xlink:href="#DejaVuSans-70"/>
      <use x="632.427734" xlink:href="#DejaVuSans-228"/>
      <use x="693.707031" xlink:href="#DejaVuSans-108"/>
      <use x="721.490234" xlink:href="#DejaVuSans-108"/>
      <use x="749.273438" xlink:href="#DejaVuSans-101"/>
      <use x="810.796875" xlink:href="#DejaVuSans-110"/>
     </g>
    </g>
   </g>
   <g id="line2d_35">
    <path clip-path="url(#pedeecaa2ea)" d="M 113.626023 471.961663 
L 118.366889 470.791631 
L 127.848623 470.791631 
L 132.589489 466.111502 
L 137.330356 462.211394 
L 142.071222 462.211394 
L 146.812089 459.481319 
L 151.552956 450.511072 
L 156.293822 444.660911 
L 161.034689 437.640717 
L 165.775555 430.230513 
L 170.516422 425.550384 
L 175.257289 425.550384 
L 179.998155 423.210319 
L 184.739022 411.509996 
L 189.479888 402.92976 
L 194.220755 397.85962 
L 198.961622 395.909566 
L 208.443355 395.909566 
L 217.925088 383.819233 
L 222.665955 382.649201 
L 227.406821 355.738459 
L 232.147688 355.738459 
L 236.888555 349.498287 
L 246.370288 349.888297 
L 251.111154 346.768211 
L 255.852021 337.797964 
L 260.592888 336.237921 
L 265.333754 333.897856 
L 270.074621 324.537598 
L 279.556354 323.367566 
L 284.297221 323.367566 
L 289.038087 318.297426 
L 293.778954 315.17734 
L 303.260687 314.787329 
L 312.74242 314.787329 
L 317.483287 314.007308 
L 322.224154 310.497211 
L 326.96502 307.767136 
L 331.705887 304.64705 
L 336.446753 304.64705 
L 345.928487 302.696996 
L 350.669353 301.916975 
L 355.41022 299.186899 
L 360.151086 297.626856 
L 364.891953 295.676803 
L 369.63282 294.896781 
L 379.114553 285.536523 
L 383.855419 284.756501 
L 388.596286 280.076372 
L 398.078019 276.176265 
L 412.300619 276.176265 
L 417.041486 209.094415 
L 426.523219 175.943501 
L 431.264086 173.993447 
L 450.227552 172.433404 
L 454.968419 164.243178 
L 459.709285 163.073146 
L 464.450152 157.612996 
L 469.191018 155.662942 
L 483.413618 155.662942 
L 497.636218 154.49291 
L 511.858818 154.49291 
L 521.340551 151.762834 
L 535.563151 151.762834 
L 545.044884 151.372824 
L 549.785751 151.372824 
L 554.526617 150.982813 
L 559.267484 150.982813 
L 568.749217 150.592802 
L 578.230951 150.592802 
L 587.712684 149.812781 
L 592.45355 149.032759 
L 597.194417 148.642748 
L 649.34395 148.642748 
L 654.084816 147.862727 
L 658.825683 147.862727 
L 663.566549 147.082705 
L 682.530016 147.082705 
L 687.270883 145.912673 
L 692.011749 145.522662 
L 696.752616 144.742641 
L 725.197815 144.742641 
L 729.938682 144.35263 
L 763.124748 144.35263 
L 786.829081 142.402576 
L 796.310815 142.402576 
L 810.533414 140.842533 
L 815.274281 140.842533 
L 820.015148 140.062512 
L 824.756014 140.062512 
L 829.496881 139.672501 
L 843.719481 138.892479 
L 848.460347 137.722447 
L 857.942081 137.722447 
L 862.682947 136.942426 
L 876.905547 136.942426 
L 881.646414 136.552415 
L 886.38728 135.772393 
L 895.869013 134.992372 
L 910.091613 134.21235 
L 914.83248 133.432329 
L 919.573346 133.432329 
L 929.05508 132.652307 
L 943.277679 132.262297 
L 948.018546 131.092264 
L 952.759413 130.702254 
L 957.500279 130.702254 
L 962.241146 129.922232 
L 985.945479 127.972178 
L 990.686346 127.192157 
L 1009.649812 127.192157 
L 1014.390679 126.802146 
L 1019.131545 124.462082 
L 1042.835878 122.512028 
L 1047.576745 118.221909 
L 1052.317612 118.221909 
L 1061.799345 117.441888 
L 1076.021945 115.491834 
L 1080.762811 105.741565 
L 1113.948877 81.170888 
L 1118.689744 76.88077 
L 1123.430611 74.540705 
L 1128.171477 72.980662 
L 1128.171477 72.980662 
" style="fill:none;stroke:#dbcd00;stroke-linecap:square;stroke-width:2;"/>
    <defs>
     <path d="M 0 1.5 
C 0.397805 1.5 0.77937 1.341951 1.06066 1.06066 
C 1.341951 0.77937 1.5 0.397805 1.5 0 
C 1.5 -0.397805 1.341951 -0.77937 1.06066 -1.06066 
C 0.77937 -1.341951 0.397805 -1.5 0 -1.5 
C -0.397805 -1.5 -0.77937 -1.341951 -1.06066 -1.06066 
C -1.341951 -0.77937 -1.5 -0.397805 -1.5 0 
C -1.5 0.397805 -1.341951 0.77937 -1.06066 1.06066 
C -0.77937 1.341951 -0.397805 1.5 0 1.5 
z
" id="mf4760642cb" style="stroke:#dbcd00;"/>
    </defs>
    <g clip-path="url(#pedeecaa2ea)">
     <use style="fill:#dbcd00;stroke:#dbcd00;" x="113.626023" xlink:href="#mf4760642cb" y="471.961663"/>
     <use style="fill:#dbcd00;stroke:#dbcd00;" x="118.366889" xlink:href="#mf4760642cb" y="470.791631"/>
     <use style="fill:#dbcd00;stroke:#dbcd00;" x="123.107756" xlink:href="#mf4760642cb" y="470.791631"/>
     <use style="fill:#dbcd00;stroke:#dbcd00;" x="127.848623" xlink:href="#mf4760642cb" y="470.791631"/>
     <use style="fill:#dbcd00;stroke:#dbcd00;" x="132.589489" xlink:href="#mf4760642cb" y="466.111502"/>
     <use style="fill:#dbcd00;stroke:#dbcd00;" x="137.330356" xlink:href="#mf4760642cb" y="462.211394"/>
     <use style="fill:#dbcd00;stroke:#dbcd00;" x="142.071222" xlink:href="#mf4760642cb" y="462.211394"/>
     <use style="fill:#dbcd00;stroke:#dbcd00;" x="146.812089" xlink:href="#mf4760642cb" y="459.481319"/>
     <use style="fill:#dbcd00;stroke:#dbcd00;" x="151.552956" xlink:href="#mf4760642cb" y="450.511072"/>
     <use style="fill:#dbcd00;stroke:#dbcd00;" x="156.293822" xlink:href="#mf4760642cb" y="444.660911"/>
     <use style="fill:#dbcd00;stroke:#dbcd00;" x="161.034689" xlink:href="#mf4760642cb" y="437.640717"/>
     <use style="fill:#dbcd00;stroke:#dbcd00;" x="165.775555" xlink:href="#mf4760642cb" y="430.230513"/>
     <use style="fill:#dbcd00;stroke:#dbcd00;" x="170.516422" xlink:href="#mf4760642cb" y="425.550384"/>
     <use style="fill:#dbcd00;stroke:#dbcd00;" x="175.257289" xlink:href="#mf4760642cb" y="425.550384"/>
     <use style="fill:#dbcd00;stroke:#dbcd00;" x="179.998155" xlink:href="#mf4760642cb" y="423.210319"/>
     <use style="fill:#dbcd00;stroke:#dbcd00;" x="184.739022" xlink:href="#mf4760642cb" y="411.509996"/>
     <use style="fill:#dbcd00;stroke:#dbcd00;" x="189.479888" xlink:href="#mf4760642cb" y="402.92976"/>
     <use style="fill:#dbcd00;stroke:#dbcd00;" x="194.220755" xlink:href="#mf4760642cb" y="397.85962"/>
     <use style="fill:#dbcd00;stroke:#dbcd00;" x="198.961622" xlink:href="#mf4760642cb" y="395.909566"/>
     <use style="fill:#dbcd00;stroke:#dbcd00;" x="208.443355" xlink:href="#mf4760642cb" y="395.909566"/>
     <use style="fill:#dbcd00;stroke:#dbcd00;" x="217.925088" xlink:href="#mf4760642cb" y="383.819233"/>
     <use style="fill:#dbcd00;stroke:#dbcd00;" x="222.665955" xlink:href="#mf4760642cb" y="382.649201"/>
     <use style="fill:#dbcd00;stroke:#dbcd00;" x="227.406821" xlink:href="#mf4760642cb" y="355.738459"/>
     <use style="fill:#dbcd00;stroke:#dbcd00;" x="232.147688" xlink:href="#mf4760642cb" y="355.738459"/>
     <use style="fill:#dbcd00;stroke:#dbcd00;" x="236.888555" xlink:href="#mf4760642cb" y="349.498287"/>
     <use style="fill:#dbcd00;stroke:#dbcd00;" x="246.370288" xlink:href="#mf4760642cb" y="349.888297"/>
     <use style="fill:#dbcd00;stroke:#dbcd00;" x="251.111154" xlink:href="#mf4760642cb" y="346.768211"/>
     <use style="fill:#dbcd00;stroke:#dbcd00;" x="255.852021" xlink:href="#mf4760642cb" y="337.797964"/>
     <use style="fill:#dbcd00;stroke:#dbcd00;" x="260.592888" xlink:href="#mf4760642cb" y="336.237921"/>
     <use style="fill:#dbcd00;stroke:#dbcd00;" x="265.333754" xlink:href="#mf4760642cb" y="333.897856"/>
     <use style="fill:#dbcd00;stroke:#dbcd00;" x="270.074621" xlink:href="#mf4760642cb" y="324.537598"/>
     <use style="fill:#dbcd00;stroke:#dbcd00;" x="279.556354" xlink:href="#mf4760642cb" y="323.367566"/>
     <use style="fill:#dbcd00;stroke:#dbcd00;" x="284.297221" xlink:href="#mf4760642cb" y="323.367566"/>
     <use style="fill:#dbcd00;stroke:#dbcd00;" x="289.038087" xlink:href="#mf4760642cb" y="318.297426"/>
     <use style="fill:#dbcd00;stroke:#dbcd00;" x="293.778954" xlink:href="#mf4760642cb" y="315.17734"/>
     <use style="fill:#dbcd00;stroke:#dbcd00;" x="303.260687" xlink:href="#mf4760642cb" y="314.787329"/>
     <use style="fill:#dbcd00;stroke:#dbcd00;" x="312.74242" xlink:href="#mf4760642cb" y="314.787329"/>
     <use style="fill:#dbcd00;stroke:#dbcd00;" x="317.483287" xlink:href="#mf4760642cb" y="314.007308"/>
     <use style="fill:#dbcd00;stroke:#dbcd00;" x="322.224154" xlink:href="#mf4760642cb" y="310.497211"/>
     <use style="fill:#dbcd00;stroke:#dbcd00;" x="326.96502" xlink:href="#mf4760642cb" y="307.767136"/>
     <use style="fill:#dbcd00;stroke:#dbcd00;" x="331.705887" xlink:href="#mf4760642cb" y="304.64705"/>
     <use style="fill:#dbcd00;stroke:#dbcd00;" x="336.446753" xlink:href="#mf4760642cb" y="304.64705"/>
     <use style="fill:#dbcd00;stroke:#dbcd00;" x="345.928487" xlink:href="#mf4760642cb" y="302.696996"/>
     <use style="fill:#dbcd00;stroke:#dbcd00;" x="350.669353" xlink:href="#mf4760642cb" y="301.916975"/>
     <use style="fill:#dbcd00;stroke:#dbcd00;" x="355.41022" xlink:href="#mf4760642cb" y="299.186899"/>
     <use style="fill:#dbcd00;stroke:#dbcd00;" x="360.151086" xlink:href="#mf4760642cb" y="297.626856"/>
     <use style="fill:#dbcd00;stroke:#dbcd00;" x="364.891953" xlink:href="#mf4760642cb" y="295.676803"/>
     <use style="fill:#dbcd00;stroke:#dbcd00;" x="369.63282" xlink:href="#mf4760642cb" y="294.896781"/>
     <use style="fill:#dbcd00;stroke:#dbcd00;" x="379.114553" xlink:href="#mf4760642cb" y="285.536523"/>
     <use style="fill:#dbcd00;stroke:#dbcd00;" x="383.855419" xlink:href="#mf4760642cb" y="284.756501"/>
     <use style="fill:#dbcd00;stroke:#dbcd00;" x="388.596286" xlink:href="#mf4760642cb" y="280.076372"/>
     <use style="fill:#dbcd00;stroke:#dbcd00;" x="398.078019" xlink:href="#mf4760642cb" y="276.176265"/>
     <use style="fill:#dbcd00;stroke:#dbcd00;" x="402.818886" xlink:href="#mf4760642cb" y="276.176265"/>
     <use style="fill:#dbcd00;stroke:#dbcd00;" x="412.300619" xlink:href="#mf4760642cb" y="276.176265"/>
     <use style="fill:#dbcd00;stroke:#dbcd00;" x="417.041486" xlink:href="#mf4760642cb" y="209.094415"/>
     <use style="fill:#dbcd00;stroke:#dbcd00;" x="426.523219" xlink:href="#mf4760642cb" y="175.943501"/>
     <use style="fill:#dbcd00;stroke:#dbcd00;" x="431.264086" xlink:href="#mf4760642cb" y="173.993447"/>
     <use style="fill:#dbcd00;stroke:#dbcd00;" x="450.227552" xlink:href="#mf4760642cb" y="172.433404"/>
     <use style="fill:#dbcd00;stroke:#dbcd00;" x="454.968419" xlink:href="#mf4760642cb" y="164.243178"/>
     <use style="fill:#dbcd00;stroke:#dbcd00;" x="459.709285" xlink:href="#mf4760642cb" y="163.073146"/>
     <use style="fill:#dbcd00;stroke:#dbcd00;" x="464.450152" xlink:href="#mf4760642cb" y="157.612996"/>
     <use style="fill:#dbcd00;stroke:#dbcd00;" x="469.191018" xlink:href="#mf4760642cb" y="155.662942"/>
     <use style="fill:#dbcd00;stroke:#dbcd00;" x="478.672752" xlink:href="#mf4760642cb" y="155.662942"/>
     <use style="fill:#dbcd00;stroke:#dbcd00;" x="483.413618" xlink:href="#mf4760642cb" y="155.662942"/>
     <use style="fill:#dbcd00;stroke:#dbcd00;" x="488.154485" xlink:href="#mf4760642cb" y="155.272931"/>
     <use style="fill:#dbcd00;stroke:#dbcd00;" x="497.636218" xlink:href="#mf4760642cb" y="154.49291"/>
     <use style="fill:#dbcd00;stroke:#dbcd00;" x="502.377085" xlink:href="#mf4760642cb" y="154.49291"/>
     <use style="fill:#dbcd00;stroke:#dbcd00;" x="511.858818" xlink:href="#mf4760642cb" y="154.49291"/>
     <use style="fill:#dbcd00;stroke:#dbcd00;" x="521.340551" xlink:href="#mf4760642cb" y="151.762834"/>
     <use style="fill:#dbcd00;stroke:#dbcd00;" x="530.822284" xlink:href="#mf4760642cb" y="151.762834"/>
     <use style="fill:#dbcd00;stroke:#dbcd00;" x="535.563151" xlink:href="#mf4760642cb" y="151.762834"/>
     <use style="fill:#dbcd00;stroke:#dbcd00;" x="545.044884" xlink:href="#mf4760642cb" y="151.372824"/>
     <use style="fill:#dbcd00;stroke:#dbcd00;" x="549.785751" xlink:href="#mf4760642cb" y="151.372824"/>
     <use style="fill:#dbcd00;stroke:#dbcd00;" x="554.526617" xlink:href="#mf4760642cb" y="150.982813"/>
     <use style="fill:#dbcd00;stroke:#dbcd00;" x="559.267484" xlink:href="#mf4760642cb" y="150.982813"/>
     <use style="fill:#dbcd00;stroke:#dbcd00;" x="568.749217" xlink:href="#mf4760642cb" y="150.592802"/>
     <use style="fill:#dbcd00;stroke:#dbcd00;" x="578.230951" xlink:href="#mf4760642cb" y="150.592802"/>
     <use style="fill:#dbcd00;stroke:#dbcd00;" x="582.971817" xlink:href="#mf4760642cb" y="150.202791"/>
     <use style="fill:#dbcd00;stroke:#dbcd00;" x="587.712684" xlink:href="#mf4760642cb" y="149.812781"/>
     <use style="fill:#dbcd00;stroke:#dbcd00;" x="592.45355" xlink:href="#mf4760642cb" y="149.032759"/>
     <use style="fill:#dbcd00;stroke:#dbcd00;" x="597.194417" xlink:href="#mf4760642cb" y="148.642748"/>
     <use style="fill:#dbcd00;stroke:#dbcd00;" x="601.935284" xlink:href="#mf4760642cb" y="148.642748"/>
     <use style="fill:#dbcd00;stroke:#dbcd00;" x="616.157883" xlink:href="#mf4760642cb" y="148.642748"/>
     <use style="fill:#dbcd00;stroke:#dbcd00;" x="620.89875" xlink:href="#mf4760642cb" y="148.642748"/>
     <use style="fill:#dbcd00;stroke:#dbcd00;" x="625.639617" xlink:href="#mf4760642cb" y="148.642748"/>
     <use style="fill:#dbcd00;stroke:#dbcd00;" x="630.380483" xlink:href="#mf4760642cb" y="148.642748"/>
     <use style="fill:#dbcd00;stroke:#dbcd00;" x="644.603083" xlink:href="#mf4760642cb" y="148.642748"/>
     <use style="fill:#dbcd00;stroke:#dbcd00;" x="649.34395" xlink:href="#mf4760642cb" y="148.642748"/>
     <use style="fill:#dbcd00;stroke:#dbcd00;" x="654.084816" xlink:href="#mf4760642cb" y="147.862727"/>
     <use style="fill:#dbcd00;stroke:#dbcd00;" x="658.825683" xlink:href="#mf4760642cb" y="147.862727"/>
     <use style="fill:#dbcd00;stroke:#dbcd00;" x="663.566549" xlink:href="#mf4760642cb" y="147.082705"/>
     <use style="fill:#dbcd00;stroke:#dbcd00;" x="677.789149" xlink:href="#mf4760642cb" y="147.082705"/>
     <use style="fill:#dbcd00;stroke:#dbcd00;" x="682.530016" xlink:href="#mf4760642cb" y="147.082705"/>
     <use style="fill:#dbcd00;stroke:#dbcd00;" x="687.270883" xlink:href="#mf4760642cb" y="145.912673"/>
     <use style="fill:#dbcd00;stroke:#dbcd00;" x="692.011749" xlink:href="#mf4760642cb" y="145.522662"/>
     <use style="fill:#dbcd00;stroke:#dbcd00;" x="696.752616" xlink:href="#mf4760642cb" y="144.742641"/>
     <use style="fill:#dbcd00;stroke:#dbcd00;" x="710.975216" xlink:href="#mf4760642cb" y="144.742641"/>
     <use style="fill:#dbcd00;stroke:#dbcd00;" x="715.716082" xlink:href="#mf4760642cb" y="144.742641"/>
     <use style="fill:#dbcd00;stroke:#dbcd00;" x="720.456949" xlink:href="#mf4760642cb" y="144.742641"/>
     <use style="fill:#dbcd00;stroke:#dbcd00;" x="725.197815" xlink:href="#mf4760642cb" y="144.742641"/>
     <use style="fill:#dbcd00;stroke:#dbcd00;" x="729.938682" xlink:href="#mf4760642cb" y="144.35263"/>
     <use style="fill:#dbcd00;stroke:#dbcd00;" x="744.161282" xlink:href="#mf4760642cb" y="144.35263"/>
     <use style="fill:#dbcd00;stroke:#dbcd00;" x="748.902148" xlink:href="#mf4760642cb" y="144.35263"/>
     <use style="fill:#dbcd00;stroke:#dbcd00;" x="753.643015" xlink:href="#mf4760642cb" y="144.35263"/>
     <use style="fill:#dbcd00;stroke:#dbcd00;" x="758.383882" xlink:href="#mf4760642cb" y="144.35263"/>
     <use style="fill:#dbcd00;stroke:#dbcd00;" x="763.124748" xlink:href="#mf4760642cb" y="144.35263"/>
     <use style="fill:#dbcd00;stroke:#dbcd00;" x="777.347348" xlink:href="#mf4760642cb" y="143.182598"/>
     <use style="fill:#dbcd00;stroke:#dbcd00;" x="782.088215" xlink:href="#mf4760642cb" y="142.792587"/>
     <use style="fill:#dbcd00;stroke:#dbcd00;" x="786.829081" xlink:href="#mf4760642cb" y="142.402576"/>
     <use style="fill:#dbcd00;stroke:#dbcd00;" x="791.569948" xlink:href="#mf4760642cb" y="142.402576"/>
     <use style="fill:#dbcd00;stroke:#dbcd00;" x="796.310815" xlink:href="#mf4760642cb" y="142.402576"/>
     <use style="fill:#dbcd00;stroke:#dbcd00;" x="810.533414" xlink:href="#mf4760642cb" y="140.842533"/>
     <use style="fill:#dbcd00;stroke:#dbcd00;" x="815.274281" xlink:href="#mf4760642cb" y="140.842533"/>
     <use style="fill:#dbcd00;stroke:#dbcd00;" x="820.015148" xlink:href="#mf4760642cb" y="140.062512"/>
     <use style="fill:#dbcd00;stroke:#dbcd00;" x="824.756014" xlink:href="#mf4760642cb" y="140.062512"/>
     <use style="fill:#dbcd00;stroke:#dbcd00;" x="829.496881" xlink:href="#mf4760642cb" y="139.672501"/>
     <use style="fill:#dbcd00;stroke:#dbcd00;" x="843.719481" xlink:href="#mf4760642cb" y="138.892479"/>
     <use style="fill:#dbcd00;stroke:#dbcd00;" x="848.460347" xlink:href="#mf4760642cb" y="137.722447"/>
     <use style="fill:#dbcd00;stroke:#dbcd00;" x="853.201214" xlink:href="#mf4760642cb" y="137.722447"/>
     <use style="fill:#dbcd00;stroke:#dbcd00;" x="857.942081" xlink:href="#mf4760642cb" y="137.722447"/>
     <use style="fill:#dbcd00;stroke:#dbcd00;" x="862.682947" xlink:href="#mf4760642cb" y="136.942426"/>
     <use style="fill:#dbcd00;stroke:#dbcd00;" x="876.905547" xlink:href="#mf4760642cb" y="136.942426"/>
     <use style="fill:#dbcd00;stroke:#dbcd00;" x="881.646414" xlink:href="#mf4760642cb" y="136.552415"/>
     <use style="fill:#dbcd00;stroke:#dbcd00;" x="886.38728" xlink:href="#mf4760642cb" y="135.772393"/>
     <use style="fill:#dbcd00;stroke:#dbcd00;" x="891.128147" xlink:href="#mf4760642cb" y="135.382383"/>
     <use style="fill:#dbcd00;stroke:#dbcd00;" x="895.869013" xlink:href="#mf4760642cb" y="134.992372"/>
     <use style="fill:#dbcd00;stroke:#dbcd00;" x="910.091613" xlink:href="#mf4760642cb" y="134.21235"/>
     <use style="fill:#dbcd00;stroke:#dbcd00;" x="914.83248" xlink:href="#mf4760642cb" y="133.432329"/>
     <use style="fill:#dbcd00;stroke:#dbcd00;" x="919.573346" xlink:href="#mf4760642cb" y="133.432329"/>
     <use style="fill:#dbcd00;stroke:#dbcd00;" x="924.314213" xlink:href="#mf4760642cb" y="133.042318"/>
     <use style="fill:#dbcd00;stroke:#dbcd00;" x="929.05508" xlink:href="#mf4760642cb" y="132.652307"/>
     <use style="fill:#dbcd00;stroke:#dbcd00;" x="943.277679" xlink:href="#mf4760642cb" y="132.262297"/>
     <use style="fill:#dbcd00;stroke:#dbcd00;" x="948.018546" xlink:href="#mf4760642cb" y="131.092264"/>
     <use style="fill:#dbcd00;stroke:#dbcd00;" x="952.759413" xlink:href="#mf4760642cb" y="130.702254"/>
     <use style="fill:#dbcd00;stroke:#dbcd00;" x="957.500279" xlink:href="#mf4760642cb" y="130.702254"/>
     <use style="fill:#dbcd00;stroke:#dbcd00;" x="962.241146" xlink:href="#mf4760642cb" y="129.922232"/>
     <use style="fill:#dbcd00;stroke:#dbcd00;" x="976.463746" xlink:href="#mf4760642cb" y="128.7522"/>
     <use style="fill:#dbcd00;stroke:#dbcd00;" x="981.204612" xlink:href="#mf4760642cb" y="128.362189"/>
     <use style="fill:#dbcd00;stroke:#dbcd00;" x="985.945479" xlink:href="#mf4760642cb" y="127.972178"/>
     <use style="fill:#dbcd00;stroke:#dbcd00;" x="990.686346" xlink:href="#mf4760642cb" y="127.192157"/>
     <use style="fill:#dbcd00;stroke:#dbcd00;" x="995.427212" xlink:href="#mf4760642cb" y="127.192157"/>
     <use style="fill:#dbcd00;stroke:#dbcd00;" x="1009.649812" xlink:href="#mf4760642cb" y="127.192157"/>
     <use style="fill:#dbcd00;stroke:#dbcd00;" x="1014.390679" xlink:href="#mf4760642cb" y="126.802146"/>
     <use style="fill:#dbcd00;stroke:#dbcd00;" x="1019.131545" xlink:href="#mf4760642cb" y="124.462082"/>
     <use style="fill:#dbcd00;stroke:#dbcd00;" x="1023.872412" xlink:href="#mf4760642cb" y="124.072071"/>
     <use style="fill:#dbcd00;stroke:#dbcd00;" x="1028.613278" xlink:href="#mf4760642cb" y="123.68206"/>
     <use style="fill:#dbcd00;stroke:#dbcd00;" x="1042.835878" xlink:href="#mf4760642cb" y="122.512028"/>
     <use style="fill:#dbcd00;stroke:#dbcd00;" x="1047.576745" xlink:href="#mf4760642cb" y="118.221909"/>
     <use style="fill:#dbcd00;stroke:#dbcd00;" x="1052.317612" xlink:href="#mf4760642cb" y="118.221909"/>
     <use style="fill:#dbcd00;stroke:#dbcd00;" x="1057.058478" xlink:href="#mf4760642cb" y="117.831899"/>
     <use style="fill:#dbcd00;stroke:#dbcd00;" x="1061.799345" xlink:href="#mf4760642cb" y="117.441888"/>
     <use style="fill:#dbcd00;stroke:#dbcd00;" x="1076.021945" xlink:href="#mf4760642cb" y="115.491834"/>
     <use style="fill:#dbcd00;stroke:#dbcd00;" x="1080.762811" xlink:href="#mf4760642cb" y="105.741565"/>
     <use style="fill:#dbcd00;stroke:#dbcd00;" x="1113.948877" xlink:href="#mf4760642cb" y="81.170888"/>
     <use style="fill:#dbcd00;stroke:#dbcd00;" x="1118.689744" xlink:href="#mf4760642cb" y="76.88077"/>
     <use style="fill:#dbcd00;stroke:#dbcd00;" x="1123.430611" xlink:href="#mf4760642cb" y="74.540705"/>
     <use style="fill:#dbcd00;stroke:#dbcd00;" x="1128.171477" xlink:href="#mf4760642cb" y="72.980662"/>
    </g>
   </g>
   <g id="line2d_36">
    <path clip-path="url(#pedeecaa2ea)" d="M 113.626023 423.60033 
L 118.366889 418.53019 
L 127.848623 399.029652 
L 137.330356 384.209244 
L 142.071222 380.309136 
L 146.812089 381.089158 
L 151.552956 380.699147 
L 156.293822 377.969072 
L 161.034689 379.529115 
L 165.775555 385.769287 
L 170.516422 383.039211 
L 175.257289 381.089158 
L 179.998155 379.919125 
L 184.739022 389.669394 
L 189.479888 392.78948 
L 194.220755 395.519556 
L 198.961622 392.78948 
L 208.443355 391.619448 
L 217.925088 402.539749 
L 222.665955 402.539749 
L 227.406821 428.67047 
L 232.147688 425.160373 
L 236.888555 430.230513 
L 246.370288 431.790556 
L 251.111154 434.13062 
L 255.852021 443.490878 
L 260.592888 444.2709 
L 265.333754 445.440932 
L 270.074621 452.851136 
L 279.556354 454.021169 
L 284.297221 450.901083 
L 289.038087 454.80119 
L 293.778954 457.141255 
L 303.260687 452.461126 
L 312.74242 443.490878 
L 317.483287 441.930835 
L 322.224154 431.790556 
L 326.96502 432.570577 
L 331.705887 418.53019 
L 336.446753 397.469609 
L 345.928487 373.288943 
L 350.669353 363.538674 
L 355.41022 356.908491 
L 360.151086 353.008383 
L 364.891953 357.298502 
L 369.63282 356.128469 
L 379.114553 361.58862 
L 383.855419 363.148663 
L 388.596286 363.148663 
L 398.078019 363.538674 
L 402.818886 360.028577 
L 412.300619 358.858545 
L 417.041486 425.940394 
L 426.523219 458.311287 
L 431.264086 460.261341 
L 450.227552 461.431373 
L 454.968419 469.621599 
L 459.709285 470.791631 
L 464.450152 476.251782 
L 469.191018 478.201835 
L 478.672752 478.201835 
L 483.413618 477.421814 
L 488.154485 477.811825 
L 497.636218 477.421814 
L 502.377085 477.031803 
L 511.858818 477.031803 
L 521.340551 478.981857 
L 530.822284 478.591846 
L 535.563151 478.201835 
L 545.044884 478.591846 
L 549.785751 478.591846 
L 554.526617 478.981857 
L 559.267484 478.981857 
L 568.749217 479.371868 
L 578.230951 479.371868 
L 582.971817 479.761878 
L 587.712684 479.761878 
L 592.45355 480.931911 
L 597.194417 480.5419 
L 601.935284 479.371868 
L 616.157883 478.591846 
L 625.639617 478.591846 
L 630.380483 477.811825 
L 649.34395 477.811825 
L 654.084816 478.591846 
L 658.825683 478.591846 
L 663.566549 479.371868 
L 677.789149 478.981857 
L 682.530016 478.981857 
L 687.270883 480.151889 
L 692.011749 480.5419 
L 696.752616 481.321921 
L 710.975216 480.931911 
L 720.456949 480.151889 
L 725.197815 478.981857 
L 729.938682 478.591846 
L 748.902148 478.591846 
L 753.643015 478.201835 
L 763.124748 478.201835 
L 777.347348 478.981857 
L 782.088215 477.811825 
L 791.569948 477.811825 
L 796.310815 476.641792 
L 810.533414 477.811825 
L 815.274281 477.421814 
L 820.015148 478.201835 
L 824.756014 477.811825 
L 829.496881 478.201835 
L 848.460347 478.201835 
L 853.201214 477.811825 
L 857.942081 477.811825 
L 862.682947 478.201835 
L 876.905547 477.421814 
L 895.869013 478.981857 
L 910.091613 478.201835 
L 914.83248 478.981857 
L 919.573346 476.641792 
L 929.05508 477.421814 
L 943.277679 477.031803 
L 948.018546 476.251782 
L 957.500279 476.251782 
L 962.241146 476.641792 
L 976.463746 476.641792 
L 981.204612 476.251782 
L 985.945479 474.301728 
L 990.686346 474.691739 
L 995.427212 474.691739 
L 1014.390679 471.571653 
L 1019.131545 473.911717 
L 1023.872412 471.571653 
L 1028.613278 465.721491 
L 1042.835878 463.381427 
L 1047.576745 460.261341 
L 1052.317612 456.751244 
L 1057.058478 454.021169 
L 1061.799345 446.610964 
L 1076.021945 445.830943 
L 1080.762811 448.171007 
L 1113.948877 443.880889 
L 1118.689744 445.830943 
L 1123.430611 434.910642 
L 1128.171477 422.430298 
L 1128.171477 422.430298 
" style="fill:none;stroke:#2792cb;stroke-linecap:square;stroke-width:2;"/>
    <defs>
     <path d="M 0 1.5 
C 0.397805 1.5 0.77937 1.341951 1.06066 1.06066 
C 1.341951 0.77937 1.5 0.397805 1.5 0 
C 1.5 -0.397805 1.341951 -0.77937 1.06066 -1.06066 
C 0.77937 -1.341951 0.397805 -1.5 0 -1.5 
C -0.397805 -1.5 -0.77937 -1.341951 -1.06066 -1.06066 
C -1.341951 -0.77937 -1.5 -0.397805 -1.5 0 
C -1.5 0.397805 -1.341951 0.77937 -1.06066 1.06066 
C -0.77937 1.341951 -0.397805 1.5 0 1.5 
z
" id="m09e1b81a0d" style="stroke:#2792cb;"/>
    </defs>
    <g clip-path="url(#pedeecaa2ea)">
     <use style="fill:#2792cb;stroke:#2792cb;" x="113.626023" xlink:href="#m09e1b81a0d" y="423.60033"/>
     <use style="fill:#2792cb;stroke:#2792cb;" x="118.366889" xlink:href="#m09e1b81a0d" y="418.53019"/>
     <use style="fill:#2792cb;stroke:#2792cb;" x="123.107756" xlink:href="#m09e1b81a0d" y="408.779921"/>
     <use style="fill:#2792cb;stroke:#2792cb;" x="127.848623" xlink:href="#m09e1b81a0d" y="399.029652"/>
     <use style="fill:#2792cb;stroke:#2792cb;" x="132.589489" xlink:href="#m09e1b81a0d" y="391.619448"/>
     <use style="fill:#2792cb;stroke:#2792cb;" x="137.330356" xlink:href="#m09e1b81a0d" y="384.209244"/>
     <use style="fill:#2792cb;stroke:#2792cb;" x="142.071222" xlink:href="#m09e1b81a0d" y="380.309136"/>
     <use style="fill:#2792cb;stroke:#2792cb;" x="146.812089" xlink:href="#m09e1b81a0d" y="381.089158"/>
     <use style="fill:#2792cb;stroke:#2792cb;" x="151.552956" xlink:href="#m09e1b81a0d" y="380.699147"/>
     <use style="fill:#2792cb;stroke:#2792cb;" x="156.293822" xlink:href="#m09e1b81a0d" y="377.969072"/>
     <use style="fill:#2792cb;stroke:#2792cb;" x="161.034689" xlink:href="#m09e1b81a0d" y="379.529115"/>
     <use style="fill:#2792cb;stroke:#2792cb;" x="165.775555" xlink:href="#m09e1b81a0d" y="385.769287"/>
     <use style="fill:#2792cb;stroke:#2792cb;" x="170.516422" xlink:href="#m09e1b81a0d" y="383.039211"/>
     <use style="fill:#2792cb;stroke:#2792cb;" x="175.257289" xlink:href="#m09e1b81a0d" y="381.089158"/>
     <use style="fill:#2792cb;stroke:#2792cb;" x="179.998155" xlink:href="#m09e1b81a0d" y="379.919125"/>
     <use style="fill:#2792cb;stroke:#2792cb;" x="184.739022" xlink:href="#m09e1b81a0d" y="389.669394"/>
     <use style="fill:#2792cb;stroke:#2792cb;" x="189.479888" xlink:href="#m09e1b81a0d" y="392.78948"/>
     <use style="fill:#2792cb;stroke:#2792cb;" x="194.220755" xlink:href="#m09e1b81a0d" y="395.519556"/>
     <use style="fill:#2792cb;stroke:#2792cb;" x="198.961622" xlink:href="#m09e1b81a0d" y="392.78948"/>
     <use style="fill:#2792cb;stroke:#2792cb;" x="208.443355" xlink:href="#m09e1b81a0d" y="391.619448"/>
     <use style="fill:#2792cb;stroke:#2792cb;" x="217.925088" xlink:href="#m09e1b81a0d" y="402.539749"/>
     <use style="fill:#2792cb;stroke:#2792cb;" x="222.665955" xlink:href="#m09e1b81a0d" y="402.539749"/>
     <use style="fill:#2792cb;stroke:#2792cb;" x="227.406821" xlink:href="#m09e1b81a0d" y="428.67047"/>
     <use style="fill:#2792cb;stroke:#2792cb;" x="232.147688" xlink:href="#m09e1b81a0d" y="425.160373"/>
     <use style="fill:#2792cb;stroke:#2792cb;" x="236.888555" xlink:href="#m09e1b81a0d" y="430.230513"/>
     <use style="fill:#2792cb;stroke:#2792cb;" x="246.370288" xlink:href="#m09e1b81a0d" y="431.790556"/>
     <use style="fill:#2792cb;stroke:#2792cb;" x="251.111154" xlink:href="#m09e1b81a0d" y="434.13062"/>
     <use style="fill:#2792cb;stroke:#2792cb;" x="255.852021" xlink:href="#m09e1b81a0d" y="443.490878"/>
     <use style="fill:#2792cb;stroke:#2792cb;" x="260.592888" xlink:href="#m09e1b81a0d" y="444.2709"/>
     <use style="fill:#2792cb;stroke:#2792cb;" x="265.333754" xlink:href="#m09e1b81a0d" y="445.440932"/>
     <use style="fill:#2792cb;stroke:#2792cb;" x="270.074621" xlink:href="#m09e1b81a0d" y="452.851136"/>
     <use style="fill:#2792cb;stroke:#2792cb;" x="279.556354" xlink:href="#m09e1b81a0d" y="454.021169"/>
     <use style="fill:#2792cb;stroke:#2792cb;" x="284.297221" xlink:href="#m09e1b81a0d" y="450.901083"/>
     <use style="fill:#2792cb;stroke:#2792cb;" x="289.038087" xlink:href="#m09e1b81a0d" y="454.80119"/>
     <use style="fill:#2792cb;stroke:#2792cb;" x="293.778954" xlink:href="#m09e1b81a0d" y="457.141255"/>
     <use style="fill:#2792cb;stroke:#2792cb;" x="303.260687" xlink:href="#m09e1b81a0d" y="452.461126"/>
     <use style="fill:#2792cb;stroke:#2792cb;" x="312.74242" xlink:href="#m09e1b81a0d" y="443.490878"/>
     <use style="fill:#2792cb;stroke:#2792cb;" x="317.483287" xlink:href="#m09e1b81a0d" y="441.930835"/>
     <use style="fill:#2792cb;stroke:#2792cb;" x="322.224154" xlink:href="#m09e1b81a0d" y="431.790556"/>
     <use style="fill:#2792cb;stroke:#2792cb;" x="326.96502" xlink:href="#m09e1b81a0d" y="432.570577"/>
     <use style="fill:#2792cb;stroke:#2792cb;" x="331.705887" xlink:href="#m09e1b81a0d" y="418.53019"/>
     <use style="fill:#2792cb;stroke:#2792cb;" x="336.446753" xlink:href="#m09e1b81a0d" y="397.469609"/>
     <use style="fill:#2792cb;stroke:#2792cb;" x="345.928487" xlink:href="#m09e1b81a0d" y="373.288943"/>
     <use style="fill:#2792cb;stroke:#2792cb;" x="350.669353" xlink:href="#m09e1b81a0d" y="363.538674"/>
     <use style="fill:#2792cb;stroke:#2792cb;" x="355.41022" xlink:href="#m09e1b81a0d" y="356.908491"/>
     <use style="fill:#2792cb;stroke:#2792cb;" x="360.151086" xlink:href="#m09e1b81a0d" y="353.008383"/>
     <use style="fill:#2792cb;stroke:#2792cb;" x="364.891953" xlink:href="#m09e1b81a0d" y="357.298502"/>
     <use style="fill:#2792cb;stroke:#2792cb;" x="369.63282" xlink:href="#m09e1b81a0d" y="356.128469"/>
     <use style="fill:#2792cb;stroke:#2792cb;" x="379.114553" xlink:href="#m09e1b81a0d" y="361.58862"/>
     <use style="fill:#2792cb;stroke:#2792cb;" x="383.855419" xlink:href="#m09e1b81a0d" y="363.148663"/>
     <use style="fill:#2792cb;stroke:#2792cb;" x="388.596286" xlink:href="#m09e1b81a0d" y="363.148663"/>
     <use style="fill:#2792cb;stroke:#2792cb;" x="398.078019" xlink:href="#m09e1b81a0d" y="363.538674"/>
     <use style="fill:#2792cb;stroke:#2792cb;" x="402.818886" xlink:href="#m09e1b81a0d" y="360.028577"/>
     <use style="fill:#2792cb;stroke:#2792cb;" x="412.300619" xlink:href="#m09e1b81a0d" y="358.858545"/>
     <use style="fill:#2792cb;stroke:#2792cb;" x="417.041486" xlink:href="#m09e1b81a0d" y="425.940394"/>
     <use style="fill:#2792cb;stroke:#2792cb;" x="426.523219" xlink:href="#m09e1b81a0d" y="458.311287"/>
     <use style="fill:#2792cb;stroke:#2792cb;" x="431.264086" xlink:href="#m09e1b81a0d" y="460.261341"/>
     <use style="fill:#2792cb;stroke:#2792cb;" x="450.227552" xlink:href="#m09e1b81a0d" y="461.431373"/>
     <use style="fill:#2792cb;stroke:#2792cb;" x="454.968419" xlink:href="#m09e1b81a0d" y="469.621599"/>
     <use style="fill:#2792cb;stroke:#2792cb;" x="459.709285" xlink:href="#m09e1b81a0d" y="470.791631"/>
     <use style="fill:#2792cb;stroke:#2792cb;" x="464.450152" xlink:href="#m09e1b81a0d" y="476.251782"/>
     <use style="fill:#2792cb;stroke:#2792cb;" x="469.191018" xlink:href="#m09e1b81a0d" y="478.201835"/>
     <use style="fill:#2792cb;stroke:#2792cb;" x="478.672752" xlink:href="#m09e1b81a0d" y="478.201835"/>
     <use style="fill:#2792cb;stroke:#2792cb;" x="483.413618" xlink:href="#m09e1b81a0d" y="477.421814"/>
     <use style="fill:#2792cb;stroke:#2792cb;" x="488.154485" xlink:href="#m09e1b81a0d" y="477.811825"/>
     <use style="fill:#2792cb;stroke:#2792cb;" x="497.636218" xlink:href="#m09e1b81a0d" y="477.421814"/>
     <use style="fill:#2792cb;stroke:#2792cb;" x="502.377085" xlink:href="#m09e1b81a0d" y="477.031803"/>
     <use style="fill:#2792cb;stroke:#2792cb;" x="511.858818" xlink:href="#m09e1b81a0d" y="477.031803"/>
     <use style="fill:#2792cb;stroke:#2792cb;" x="521.340551" xlink:href="#m09e1b81a0d" y="478.981857"/>
     <use style="fill:#2792cb;stroke:#2792cb;" x="530.822284" xlink:href="#m09e1b81a0d" y="478.591846"/>
     <use style="fill:#2792cb;stroke:#2792cb;" x="535.563151" xlink:href="#m09e1b81a0d" y="478.201835"/>
     <use style="fill:#2792cb;stroke:#2792cb;" x="545.044884" xlink:href="#m09e1b81a0d" y="478.591846"/>
     <use style="fill:#2792cb;stroke:#2792cb;" x="549.785751" xlink:href="#m09e1b81a0d" y="478.591846"/>
     <use style="fill:#2792cb;stroke:#2792cb;" x="554.526617" xlink:href="#m09e1b81a0d" y="478.981857"/>
     <use style="fill:#2792cb;stroke:#2792cb;" x="559.267484" xlink:href="#m09e1b81a0d" y="478.981857"/>
     <use style="fill:#2792cb;stroke:#2792cb;" x="568.749217" xlink:href="#m09e1b81a0d" y="479.371868"/>
     <use style="fill:#2792cb;stroke:#2792cb;" x="578.230951" xlink:href="#m09e1b81a0d" y="479.371868"/>
     <use style="fill:#2792cb;stroke:#2792cb;" x="582.971817" xlink:href="#m09e1b81a0d" y="479.761878"/>
     <use style="fill:#2792cb;stroke:#2792cb;" x="587.712684" xlink:href="#m09e1b81a0d" y="479.761878"/>
     <use style="fill:#2792cb;stroke:#2792cb;" x="592.45355" xlink:href="#m09e1b81a0d" y="480.931911"/>
     <use style="fill:#2792cb;stroke:#2792cb;" x="597.194417" xlink:href="#m09e1b81a0d" y="480.5419"/>
     <use style="fill:#2792cb;stroke:#2792cb;" x="601.935284" xlink:href="#m09e1b81a0d" y="479.371868"/>
     <use style="fill:#2792cb;stroke:#2792cb;" x="616.157883" xlink:href="#m09e1b81a0d" y="478.591846"/>
     <use style="fill:#2792cb;stroke:#2792cb;" x="620.89875" xlink:href="#m09e1b81a0d" y="478.591846"/>
     <use style="fill:#2792cb;stroke:#2792cb;" x="625.639617" xlink:href="#m09e1b81a0d" y="478.591846"/>
     <use style="fill:#2792cb;stroke:#2792cb;" x="630.380483" xlink:href="#m09e1b81a0d" y="477.811825"/>
     <use style="fill:#2792cb;stroke:#2792cb;" x="644.603083" xlink:href="#m09e1b81a0d" y="477.811825"/>
     <use style="fill:#2792cb;stroke:#2792cb;" x="649.34395" xlink:href="#m09e1b81a0d" y="477.811825"/>
     <use style="fill:#2792cb;stroke:#2792cb;" x="654.084816" xlink:href="#m09e1b81a0d" y="478.591846"/>
     <use style="fill:#2792cb;stroke:#2792cb;" x="658.825683" xlink:href="#m09e1b81a0d" y="478.591846"/>
     <use style="fill:#2792cb;stroke:#2792cb;" x="663.566549" xlink:href="#m09e1b81a0d" y="479.371868"/>
     <use style="fill:#2792cb;stroke:#2792cb;" x="677.789149" xlink:href="#m09e1b81a0d" y="478.981857"/>
     <use style="fill:#2792cb;stroke:#2792cb;" x="682.530016" xlink:href="#m09e1b81a0d" y="478.981857"/>
     <use style="fill:#2792cb;stroke:#2792cb;" x="687.270883" xlink:href="#m09e1b81a0d" y="480.151889"/>
     <use style="fill:#2792cb;stroke:#2792cb;" x="692.011749" xlink:href="#m09e1b81a0d" y="480.5419"/>
     <use style="fill:#2792cb;stroke:#2792cb;" x="696.752616" xlink:href="#m09e1b81a0d" y="481.321921"/>
     <use style="fill:#2792cb;stroke:#2792cb;" x="710.975216" xlink:href="#m09e1b81a0d" y="480.931911"/>
     <use style="fill:#2792cb;stroke:#2792cb;" x="715.716082" xlink:href="#m09e1b81a0d" y="480.5419"/>
     <use style="fill:#2792cb;stroke:#2792cb;" x="720.456949" xlink:href="#m09e1b81a0d" y="480.151889"/>
     <use style="fill:#2792cb;stroke:#2792cb;" x="725.197815" xlink:href="#m09e1b81a0d" y="478.981857"/>
     <use style="fill:#2792cb;stroke:#2792cb;" x="729.938682" xlink:href="#m09e1b81a0d" y="478.591846"/>
     <use style="fill:#2792cb;stroke:#2792cb;" x="744.161282" xlink:href="#m09e1b81a0d" y="478.591846"/>
     <use style="fill:#2792cb;stroke:#2792cb;" x="748.902148" xlink:href="#m09e1b81a0d" y="478.591846"/>
     <use style="fill:#2792cb;stroke:#2792cb;" x="753.643015" xlink:href="#m09e1b81a0d" y="478.201835"/>
     <use style="fill:#2792cb;stroke:#2792cb;" x="758.383882" xlink:href="#m09e1b81a0d" y="478.201835"/>
     <use style="fill:#2792cb;stroke:#2792cb;" x="763.124748" xlink:href="#m09e1b81a0d" y="478.201835"/>
     <use style="fill:#2792cb;stroke:#2792cb;" x="777.347348" xlink:href="#m09e1b81a0d" y="478.981857"/>
     <use style="fill:#2792cb;stroke:#2792cb;" x="782.088215" xlink:href="#m09e1b81a0d" y="477.811825"/>
     <use style="fill:#2792cb;stroke:#2792cb;" x="786.829081" xlink:href="#m09e1b81a0d" y="477.811825"/>
     <use style="fill:#2792cb;stroke:#2792cb;" x="791.569948" xlink:href="#m09e1b81a0d" y="477.811825"/>
     <use style="fill:#2792cb;stroke:#2792cb;" x="796.310815" xlink:href="#m09e1b81a0d" y="476.641792"/>
     <use style="fill:#2792cb;stroke:#2792cb;" x="810.533414" xlink:href="#m09e1b81a0d" y="477.811825"/>
     <use style="fill:#2792cb;stroke:#2792cb;" x="815.274281" xlink:href="#m09e1b81a0d" y="477.421814"/>
     <use style="fill:#2792cb;stroke:#2792cb;" x="820.015148" xlink:href="#m09e1b81a0d" y="478.201835"/>
     <use style="fill:#2792cb;stroke:#2792cb;" x="824.756014" xlink:href="#m09e1b81a0d" y="477.811825"/>
     <use style="fill:#2792cb;stroke:#2792cb;" x="829.496881" xlink:href="#m09e1b81a0d" y="478.201835"/>
     <use style="fill:#2792cb;stroke:#2792cb;" x="843.719481" xlink:href="#m09e1b81a0d" y="478.201835"/>
     <use style="fill:#2792cb;stroke:#2792cb;" x="848.460347" xlink:href="#m09e1b81a0d" y="478.201835"/>
     <use style="fill:#2792cb;stroke:#2792cb;" x="853.201214" xlink:href="#m09e1b81a0d" y="477.811825"/>
     <use style="fill:#2792cb;stroke:#2792cb;" x="857.942081" xlink:href="#m09e1b81a0d" y="477.811825"/>
     <use style="fill:#2792cb;stroke:#2792cb;" x="862.682947" xlink:href="#m09e1b81a0d" y="478.201835"/>
     <use style="fill:#2792cb;stroke:#2792cb;" x="876.905547" xlink:href="#m09e1b81a0d" y="477.421814"/>
     <use style="fill:#2792cb;stroke:#2792cb;" x="881.646414" xlink:href="#m09e1b81a0d" y="477.811825"/>
     <use style="fill:#2792cb;stroke:#2792cb;" x="886.38728" xlink:href="#m09e1b81a0d" y="478.201835"/>
     <use style="fill:#2792cb;stroke:#2792cb;" x="891.128147" xlink:href="#m09e1b81a0d" y="478.591846"/>
     <use style="fill:#2792cb;stroke:#2792cb;" x="895.869013" xlink:href="#m09e1b81a0d" y="478.981857"/>
     <use style="fill:#2792cb;stroke:#2792cb;" x="910.091613" xlink:href="#m09e1b81a0d" y="478.201835"/>
     <use style="fill:#2792cb;stroke:#2792cb;" x="914.83248" xlink:href="#m09e1b81a0d" y="478.981857"/>
     <use style="fill:#2792cb;stroke:#2792cb;" x="919.573346" xlink:href="#m09e1b81a0d" y="476.641792"/>
     <use style="fill:#2792cb;stroke:#2792cb;" x="924.314213" xlink:href="#m09e1b81a0d" y="477.031803"/>
     <use style="fill:#2792cb;stroke:#2792cb;" x="929.05508" xlink:href="#m09e1b81a0d" y="477.421814"/>
     <use style="fill:#2792cb;stroke:#2792cb;" x="943.277679" xlink:href="#m09e1b81a0d" y="477.031803"/>
     <use style="fill:#2792cb;stroke:#2792cb;" x="948.018546" xlink:href="#m09e1b81a0d" y="476.251782"/>
     <use style="fill:#2792cb;stroke:#2792cb;" x="952.759413" xlink:href="#m09e1b81a0d" y="476.251782"/>
     <use style="fill:#2792cb;stroke:#2792cb;" x="957.500279" xlink:href="#m09e1b81a0d" y="476.251782"/>
     <use style="fill:#2792cb;stroke:#2792cb;" x="962.241146" xlink:href="#m09e1b81a0d" y="476.641792"/>
     <use style="fill:#2792cb;stroke:#2792cb;" x="976.463746" xlink:href="#m09e1b81a0d" y="476.641792"/>
     <use style="fill:#2792cb;stroke:#2792cb;" x="981.204612" xlink:href="#m09e1b81a0d" y="476.251782"/>
     <use style="fill:#2792cb;stroke:#2792cb;" x="985.945479" xlink:href="#m09e1b81a0d" y="474.301728"/>
     <use style="fill:#2792cb;stroke:#2792cb;" x="990.686346" xlink:href="#m09e1b81a0d" y="474.691739"/>
     <use style="fill:#2792cb;stroke:#2792cb;" x="995.427212" xlink:href="#m09e1b81a0d" y="474.691739"/>
     <use style="fill:#2792cb;stroke:#2792cb;" x="1009.649812" xlink:href="#m09e1b81a0d" y="472.351674"/>
     <use style="fill:#2792cb;stroke:#2792cb;" x="1014.390679" xlink:href="#m09e1b81a0d" y="471.571653"/>
     <use style="fill:#2792cb;stroke:#2792cb;" x="1019.131545" xlink:href="#m09e1b81a0d" y="473.911717"/>
     <use style="fill:#2792cb;stroke:#2792cb;" x="1023.872412" xlink:href="#m09e1b81a0d" y="471.571653"/>
     <use style="fill:#2792cb;stroke:#2792cb;" x="1028.613278" xlink:href="#m09e1b81a0d" y="465.721491"/>
     <use style="fill:#2792cb;stroke:#2792cb;" x="1042.835878" xlink:href="#m09e1b81a0d" y="463.381427"/>
     <use style="fill:#2792cb;stroke:#2792cb;" x="1047.576745" xlink:href="#m09e1b81a0d" y="460.261341"/>
     <use style="fill:#2792cb;stroke:#2792cb;" x="1052.317612" xlink:href="#m09e1b81a0d" y="456.751244"/>
     <use style="fill:#2792cb;stroke:#2792cb;" x="1057.058478" xlink:href="#m09e1b81a0d" y="454.021169"/>
     <use style="fill:#2792cb;stroke:#2792cb;" x="1061.799345" xlink:href="#m09e1b81a0d" y="446.610964"/>
     <use style="fill:#2792cb;stroke:#2792cb;" x="1076.021945" xlink:href="#m09e1b81a0d" y="445.830943"/>
     <use style="fill:#2792cb;stroke:#2792cb;" x="1080.762811" xlink:href="#m09e1b81a0d" y="448.171007"/>
     <use style="fill:#2792cb;stroke:#2792cb;" x="1113.948877" xlink:href="#m09e1b81a0d" y="443.880889"/>
     <use style="fill:#2792cb;stroke:#2792cb;" x="1118.689744" xlink:href="#m09e1b81a0d" y="445.830943"/>
     <use style="fill:#2792cb;stroke:#2792cb;" x="1123.430611" xlink:href="#m09e1b81a0d" y="434.910642"/>
     <use style="fill:#2792cb;stroke:#2792cb;" x="1128.171477" xlink:href="#m09e1b81a0d" y="422.430298"/>
    </g>
   </g>
   <g id="patch_3">
    <path d="M 62.89875 501.738984 
L 1178.89875 501.738984 
" style="fill:none;stroke:#000000;stroke-linecap:square;stroke-linejoin:miter;stroke-width:0.8;"/>
   </g>
   <g id="legend_1">
    <g id="line2d_37">
     <path d="M 1091.653438 25.237422 
L 1111.653438 25.237422 
" style="fill:none;stroke:#dbcd00;stroke-linecap:square;stroke-width:2;"/>
    </g>
    <g id="line2d_38">
     <g>
      <use style="fill:#dbcd00;stroke:#dbcd00;" x="1101.653438" xlink:href="#mf4760642cb" y="25.237422"/>
     </g>
    </g>
    <g id="text_23">
     <!-- Genesene -->
     <defs>
      <path d="M 59.515625 10.40625 
L 59.515625 29.984375 
L 43.40625 29.984375 
L 43.40625 38.09375 
L 69.28125 38.09375 
L 69.28125 6.78125 
Q 63.578125 2.734375 56.6875 0.65625 
Q 49.8125 -1.421875 42 -1.421875 
Q 24.90625 -1.421875 15.25 8.5625 
Q 5.609375 18.5625 5.609375 36.375 
Q 5.609375 54.25 15.25 64.234375 
Q 24.90625 74.21875 42 74.21875 
Q 49.125 74.21875 55.546875 72.453125 
Q 61.96875 70.703125 67.390625 67.28125 
L 67.390625 56.78125 
Q 61.921875 61.421875 55.765625 63.765625 
Q 49.609375 66.109375 42.828125 66.109375 
Q 29.4375 66.109375 22.71875 58.640625 
Q 16.015625 51.171875 16.015625 36.375 
Q 16.015625 21.625 22.71875 14.15625 
Q 29.4375 6.6875 42.828125 6.6875 
Q 48.046875 6.6875 52.140625 7.59375 
Q 56.25 8.5 59.515625 10.40625 
z
" id="DejaVuSans-71"/>
      <path d="M 44.28125 53.078125 
L 44.28125 44.578125 
Q 40.484375 46.53125 36.375 47.5 
Q 32.28125 48.484375 27.875 48.484375 
Q 21.1875 48.484375 17.84375 46.4375 
Q 14.5 44.390625 14.5 40.28125 
Q 14.5 37.15625 16.890625 35.375 
Q 19.28125 33.59375 26.515625 31.984375 
L 29.59375 31.296875 
Q 39.15625 29.25 43.1875 25.515625 
Q 47.21875 21.78125 47.21875 15.09375 
Q 47.21875 7.46875 41.1875 3.015625 
Q 35.15625 -1.421875 24.609375 -1.421875 
Q 20.21875 -1.421875 15.453125 -0.5625 
Q 10.6875 0.296875 5.421875 2 
L 5.421875 11.28125 
Q 10.40625 8.6875 15.234375 7.390625 
Q 20.0625 6.109375 24.8125 6.109375 
Q 31.15625 6.109375 34.5625 8.28125 
Q 37.984375 10.453125 37.984375 14.40625 
Q 37.984375 18.0625 35.515625 20.015625 
Q 33.0625 21.96875 24.703125 23.78125 
L 21.578125 24.515625 
Q 13.234375 26.265625 9.515625 29.90625 
Q 5.8125 33.546875 5.8125 39.890625 
Q 5.8125 47.609375 11.28125 51.796875 
Q 16.75 56 26.8125 56 
Q 31.78125 56 36.171875 55.265625 
Q 40.578125 54.546875 44.28125 53.078125 
z
" id="DejaVuSans-115"/>
     </defs>
     <g transform="translate(1119.653438 28.737422)scale(0.1 -0.1)">
      <use xlink:href="#DejaVuSans-71"/>
      <use x="77.490234" xlink:href="#DejaVuSans-101"/>
      <use x="139.013672" xlink:href="#DejaVuSans-110"/>
      <use x="202.392578" xlink:href="#DejaVuSans-101"/>
      <use x="263.916016" xlink:href="#DejaVuSans-115"/>
      <use x="316.015625" xlink:href="#DejaVuSans-101"/>
      <use x="377.539062" xlink:href="#DejaVuSans-110"/>
      <use x="440.917969" xlink:href="#DejaVuSans-101"/>
     </g>
    </g>
    <g id="line2d_39">
     <path d="M 1091.653438 39.915547 
L 1111.653438 39.915547 
" style="fill:none;stroke:#2792cb;stroke-linecap:square;stroke-width:2;"/>
    </g>
    <g id="line2d_40">
     <g>
      <use style="fill:#2792cb;stroke:#2792cb;" x="1101.653438" xlink:href="#m09e1b81a0d" y="39.915547"/>
     </g>
    </g>
    <g id="text_24">
     <!-- Erkrankte -->
     <defs>
      <path d="M 9.8125 72.90625 
L 55.90625 72.90625 
L 55.90625 64.59375 
L 19.671875 64.59375 
L 19.671875 43.015625 
L 54.390625 43.015625 
L 54.390625 34.71875 
L 19.671875 34.71875 
L 19.671875 8.296875 
L 56.78125 8.296875 
L 56.78125 0 
L 9.8125 0 
z
" id="DejaVuSans-69"/>
      <path d="M 41.109375 46.296875 
Q 39.59375 47.171875 37.8125 47.578125 
Q 36.03125 48 33.890625 48 
Q 26.265625 48 22.1875 43.046875 
Q 18.109375 38.09375 18.109375 28.8125 
L 18.109375 0 
L 9.078125 0 
L 9.078125 54.6875 
L 18.109375 54.6875 
L 18.109375 46.1875 
Q 20.953125 51.171875 25.484375 53.578125 
Q 30.03125 56 36.53125 56 
Q 37.453125 56 38.578125 55.875 
Q 39.703125 55.765625 41.0625 55.515625 
z
" id="DejaVuSans-114"/>
      <path d="M 9.078125 75.984375 
L 18.109375 75.984375 
L 18.109375 31.109375 
L 44.921875 54.6875 
L 56.390625 54.6875 
L 27.390625 29.109375 
L 57.625 0 
L 45.90625 0 
L 18.109375 26.703125 
L 18.109375 0 
L 9.078125 0 
z
" id="DejaVuSans-107"/>
      <path d="M 18.3125 70.21875 
L 18.3125 54.6875 
L 36.8125 54.6875 
L 36.8125 47.703125 
L 18.3125 47.703125 
L 18.3125 18.015625 
Q 18.3125 11.328125 20.140625 9.421875 
Q 21.96875 7.515625 27.59375 7.515625 
L 36.8125 7.515625 
L 36.8125 0 
L 27.59375 0 
Q 17.1875 0 13.234375 3.875 
Q 9.28125 7.765625 9.28125 18.015625 
L 9.28125 47.703125 
L 2.6875 47.703125 
L 2.6875 54.6875 
L 9.28125 54.6875 
L 9.28125 70.21875 
z
" id="DejaVuSans-116"/>
     </defs>
     <g transform="translate(1119.653438 43.415547)scale(0.1 -0.1)">
      <use xlink:href="#DejaVuSans-69"/>
      <use x="63.183594" xlink:href="#DejaVuSans-114"/>
      <use x="104.296875" xlink:href="#DejaVuSans-107"/>
      <use x="162.207031" xlink:href="#DejaVuSans-114"/>
      <use x="203.320312" xlink:href="#DejaVuSans-97"/>
      <use x="264.599609" xlink:href="#DejaVuSans-110"/>
      <use x="327.978516" xlink:href="#DejaVuSans-107"/>
      <use x="385.888672" xlink:href="#DejaVuSans-116"/>
      <use x="425.097656" xlink:href="#DejaVuSans-101"/>
     </g>
    </g>
   </g>
  </g>
 </g>
 <defs>
  <clipPath id="pedeecaa2ea">
   <rect height="489.6" width="1116" x="62.89875" y="12.138984"/>
  </clipPath>
 </defs>
</svg>
