<?xml version="1.0" encoding="utf-8" standalone="no"?>
<!DOCTYPE svg PUBLIC "-//W3C//DTD SVG 1.1//EN"
  "http://www.w3.org/Graphics/SVG/1.1/DTD/svg11.dtd">
<!-- Created with matplotlib (https://matplotlib.org/) -->
<svg height="553.993765pt" version="1.1" viewBox="0 0 1177.8275 553.993765" width="1177.8275pt" xmlns="http://www.w3.org/2000/svg" xmlns:xlink="http://www.w3.org/1999/xlink">
 <defs>
  <style type="text/css">
*{stroke-linecap:butt;stroke-linejoin:round;}
  </style>
 </defs>
 <g id="figure_1">
  <g id="patch_1">
   <path d="M 0 553.993765 
L 1177.8275 553.993765 
L 1177.8275 0 
L 0 0 
z
" style="fill:#ffffff;"/>
  </g>
  <g id="axes_1">
   <g id="patch_2">
    <path d="M 54.6275 501.738984 
L 1170.6275 501.738984 
L 1170.6275 12.138984 
L 54.6275 12.138984 
z
" style="fill:#ffffff;"/>
   </g>
   <g id="matplotlib.axis_1">
    <g id="xtick_1">
     <g id="line2d_1">
      <defs>
       <path d="M 0 0 
L 0 3.5 
" id="m9c10d8bd87" style="stroke:#000000;stroke-width:0.8;"/>
      </defs>
      <g>
       <use style="stroke:#000000;stroke-width:0.8;" x="152.911591" xlink:href="#m9c10d8bd87" y="501.738984"/>
      </g>
     </g>
     <g id="text_1">
      <!-- 2020-04 -->
      <defs>
       <path d="M 19.1875 8.296875 
L 53.609375 8.296875 
L 53.609375 0 
L 7.328125 0 
L 7.328125 8.296875 
Q 12.9375 14.109375 22.625 23.890625 
Q 32.328125 33.6875 34.8125 36.53125 
Q 39.546875 41.84375 41.421875 45.53125 
Q 43.3125 49.21875 43.3125 52.78125 
Q 43.3125 58.59375 39.234375 62.25 
Q 35.15625 65.921875 28.609375 65.921875 
Q 23.96875 65.921875 18.8125 64.3125 
Q 13.671875 62.703125 7.8125 59.421875 
L 7.8125 69.390625 
Q 13.765625 71.78125 18.9375 73 
Q 24.125 74.21875 28.421875 74.21875 
Q 39.75 74.21875 46.484375 68.546875 
Q 53.21875 62.890625 53.21875 53.421875 
Q 53.21875 48.921875 51.53125 44.890625 
Q 49.859375 40.875 45.40625 35.40625 
Q 44.1875 33.984375 37.640625 27.21875 
Q 31.109375 20.453125 19.1875 8.296875 
z
" id="DejaVuSans-50"/>
       <path d="M 31.78125 66.40625 
Q 24.171875 66.40625 20.328125 58.90625 
Q 16.5 51.421875 16.5 36.375 
Q 16.5 21.390625 20.328125 13.890625 
Q 24.171875 6.390625 31.78125 6.390625 
Q 39.453125 6.390625 43.28125 13.890625 
Q 47.125 21.390625 47.125 36.375 
Q 47.125 51.421875 43.28125 58.90625 
Q 39.453125 66.40625 31.78125 66.40625 
z
M 31.78125 74.21875 
Q 44.046875 74.21875 50.515625 64.515625 
Q 56.984375 54.828125 56.984375 36.375 
Q 56.984375 17.96875 50.515625 8.265625 
Q 44.046875 -1.421875 31.78125 -1.421875 
Q 19.53125 -1.421875 13.0625 8.265625 
Q 6.59375 17.96875 6.59375 36.375 
Q 6.59375 54.828125 13.0625 64.515625 
Q 19.53125 74.21875 31.78125 74.21875 
z
" id="DejaVuSans-48"/>
       <path d="M 4.890625 31.390625 
L 31.203125 31.390625 
L 31.203125 23.390625 
L 4.890625 23.390625 
z
" id="DejaVuSans-45"/>
       <path d="M 37.796875 64.3125 
L 12.890625 25.390625 
L 37.796875 25.390625 
z
M 35.203125 72.90625 
L 47.609375 72.90625 
L 47.609375 25.390625 
L 58.015625 25.390625 
L 58.015625 17.1875 
L 47.609375 17.1875 
L 47.609375 0 
L 37.796875 0 
L 37.796875 17.1875 
L 4.890625 17.1875 
L 4.890625 26.703125 
z
" id="DejaVuSans-52"/>
      </defs>
      <g transform="translate(104.519324 544.452384)rotate(-30)scale(0.13 -0.13)">
       <use xlink:href="#DejaVuSans-50"/>
       <use x="63.623047" xlink:href="#DejaVuSans-48"/>
       <use x="127.246094" xlink:href="#DejaVuSans-50"/>
       <use x="190.869141" xlink:href="#DejaVuSans-48"/>
       <use x="254.492188" xlink:href="#DejaVuSans-45"/>
       <use x="290.576172" xlink:href="#DejaVuSans-48"/>
       <use x="354.199219" xlink:href="#DejaVuSans-52"/>
      </g>
     </g>
    </g>
    <g id="xtick_2">
     <g id="line2d_2">
      <g>
       <use style="stroke:#000000;stroke-width:0.8;" x="311.434318" xlink:href="#m9c10d8bd87" y="501.738984"/>
      </g>
     </g>
     <g id="text_2">
      <!-- 2020-05 -->
      <defs>
       <path d="M 10.796875 72.90625 
L 49.515625 72.90625 
L 49.515625 64.59375 
L 19.828125 64.59375 
L 19.828125 46.734375 
Q 21.96875 47.46875 24.109375 47.828125 
Q 26.265625 48.1875 28.421875 48.1875 
Q 40.625 48.1875 47.75 41.5 
Q 54.890625 34.8125 54.890625 23.390625 
Q 54.890625 11.625 47.5625 5.09375 
Q 40.234375 -1.421875 26.90625 -1.421875 
Q 22.3125 -1.421875 17.546875 -0.640625 
Q 12.796875 0.140625 7.71875 1.703125 
L 7.71875 11.625 
Q 12.109375 9.234375 16.796875 8.0625 
Q 21.484375 6.890625 26.703125 6.890625 
Q 35.15625 6.890625 40.078125 11.328125 
Q 45.015625 15.765625 45.015625 23.390625 
Q 45.015625 31 40.078125 35.4375 
Q 35.15625 39.890625 26.703125 39.890625 
Q 22.75 39.890625 18.8125 39.015625 
Q 14.890625 38.140625 10.796875 36.28125 
z
" id="DejaVuSans-53"/>
      </defs>
      <g transform="translate(263.042051 544.452384)rotate(-30)scale(0.13 -0.13)">
       <use xlink:href="#DejaVuSans-50"/>
       <use x="63.623047" xlink:href="#DejaVuSans-48"/>
       <use x="127.246094" xlink:href="#DejaVuSans-50"/>
       <use x="190.869141" xlink:href="#DejaVuSans-48"/>
       <use x="254.492188" xlink:href="#DejaVuSans-45"/>
       <use x="290.576172" xlink:href="#DejaVuSans-48"/>
       <use x="354.199219" xlink:href="#DejaVuSans-53"/>
      </g>
     </g>
    </g>
    <g id="xtick_3">
     <g id="line2d_3">
      <g>
       <use style="stroke:#000000;stroke-width:0.8;" x="475.241136" xlink:href="#m9c10d8bd87" y="501.738984"/>
      </g>
     </g>
     <g id="text_3">
      <!-- 2020-06 -->
      <defs>
       <path d="M 33.015625 40.375 
Q 26.375 40.375 22.484375 35.828125 
Q 18.609375 31.296875 18.609375 23.390625 
Q 18.609375 15.53125 22.484375 10.953125 
Q 26.375 6.390625 33.015625 6.390625 
Q 39.65625 6.390625 43.53125 10.953125 
Q 47.40625 15.53125 47.40625 23.390625 
Q 47.40625 31.296875 43.53125 35.828125 
Q 39.65625 40.375 33.015625 40.375 
z
M 52.59375 71.296875 
L 52.59375 62.3125 
Q 48.875 64.0625 45.09375 64.984375 
Q 41.3125 65.921875 37.59375 65.921875 
Q 27.828125 65.921875 22.671875 59.328125 
Q 17.53125 52.734375 16.796875 39.40625 
Q 19.671875 43.65625 24.015625 45.921875 
Q 28.375 48.1875 33.59375 48.1875 
Q 44.578125 48.1875 50.953125 41.515625 
Q 57.328125 34.859375 57.328125 23.390625 
Q 57.328125 12.15625 50.6875 5.359375 
Q 44.046875 -1.421875 33.015625 -1.421875 
Q 20.359375 -1.421875 13.671875 8.265625 
Q 6.984375 17.96875 6.984375 36.375 
Q 6.984375 53.65625 15.1875 63.9375 
Q 23.390625 74.21875 37.203125 74.21875 
Q 40.921875 74.21875 44.703125 73.484375 
Q 48.484375 72.75 52.59375 71.296875 
z
" id="DejaVuSans-54"/>
      </defs>
      <g transform="translate(426.848869 544.452384)rotate(-30)scale(0.13 -0.13)">
       <use xlink:href="#DejaVuSans-50"/>
       <use x="63.623047" xlink:href="#DejaVuSans-48"/>
       <use x="127.246094" xlink:href="#DejaVuSans-50"/>
       <use x="190.869141" xlink:href="#DejaVuSans-48"/>
       <use x="254.492188" xlink:href="#DejaVuSans-45"/>
       <use x="290.576172" xlink:href="#DejaVuSans-48"/>
       <use x="354.199219" xlink:href="#DejaVuSans-54"/>
      </g>
     </g>
    </g>
    <g id="xtick_4">
     <g id="line2d_4">
      <g>
       <use style="stroke:#000000;stroke-width:0.8;" x="633.763864" xlink:href="#m9c10d8bd87" y="501.738984"/>
      </g>
     </g>
     <g id="text_4">
      <!-- 2020-07 -->
      <defs>
       <path d="M 8.203125 72.90625 
L 55.078125 72.90625 
L 55.078125 68.703125 
L 28.609375 0 
L 18.3125 0 
L 43.21875 64.59375 
L 8.203125 64.59375 
z
" id="DejaVuSans-55"/>
      </defs>
      <g transform="translate(585.371597 544.452384)rotate(-30)scale(0.13 -0.13)">
       <use xlink:href="#DejaVuSans-50"/>
       <use x="63.623047" xlink:href="#DejaVuSans-48"/>
       <use x="127.246094" xlink:href="#DejaVuSans-50"/>
       <use x="190.869141" xlink:href="#DejaVuSans-48"/>
       <use x="254.492188" xlink:href="#DejaVuSans-45"/>
       <use x="290.576172" xlink:href="#DejaVuSans-48"/>
       <use x="354.199219" xlink:href="#DejaVuSans-55"/>
      </g>
     </g>
    </g>
    <g id="xtick_5">
     <g id="line2d_5">
      <g>
       <use style="stroke:#000000;stroke-width:0.8;" x="797.570682" xlink:href="#m9c10d8bd87" y="501.738984"/>
      </g>
     </g>
     <g id="text_5">
      <!-- 2020-08 -->
      <defs>
       <path d="M 31.78125 34.625 
Q 24.75 34.625 20.71875 30.859375 
Q 16.703125 27.09375 16.703125 20.515625 
Q 16.703125 13.921875 20.71875 10.15625 
Q 24.75 6.390625 31.78125 6.390625 
Q 38.8125 6.390625 42.859375 10.171875 
Q 46.921875 13.96875 46.921875 20.515625 
Q 46.921875 27.09375 42.890625 30.859375 
Q 38.875 34.625 31.78125 34.625 
z
M 21.921875 38.8125 
Q 15.578125 40.375 12.03125 44.71875 
Q 8.5 49.078125 8.5 55.328125 
Q 8.5 64.0625 14.71875 69.140625 
Q 20.953125 74.21875 31.78125 74.21875 
Q 42.671875 74.21875 48.875 69.140625 
Q 55.078125 64.0625 55.078125 55.328125 
Q 55.078125 49.078125 51.53125 44.71875 
Q 48 40.375 41.703125 38.8125 
Q 48.828125 37.15625 52.796875 32.3125 
Q 56.78125 27.484375 56.78125 20.515625 
Q 56.78125 9.90625 50.3125 4.234375 
Q 43.84375 -1.421875 31.78125 -1.421875 
Q 19.734375 -1.421875 13.25 4.234375 
Q 6.78125 9.90625 6.78125 20.515625 
Q 6.78125 27.484375 10.78125 32.3125 
Q 14.796875 37.15625 21.921875 38.8125 
z
M 18.3125 54.390625 
Q 18.3125 48.734375 21.84375 45.5625 
Q 25.390625 42.390625 31.78125 42.390625 
Q 38.140625 42.390625 41.71875 45.5625 
Q 45.3125 48.734375 45.3125 54.390625 
Q 45.3125 60.0625 41.71875 63.234375 
Q 38.140625 66.40625 31.78125 66.40625 
Q 25.390625 66.40625 21.84375 63.234375 
Q 18.3125 60.0625 18.3125 54.390625 
z
" id="DejaVuSans-56"/>
      </defs>
      <g transform="translate(749.178415 544.452384)rotate(-30)scale(0.13 -0.13)">
       <use xlink:href="#DejaVuSans-50"/>
       <use x="63.623047" xlink:href="#DejaVuSans-48"/>
       <use x="127.246094" xlink:href="#DejaVuSans-50"/>
       <use x="190.869141" xlink:href="#DejaVuSans-48"/>
       <use x="254.492188" xlink:href="#DejaVuSans-45"/>
       <use x="290.576172" xlink:href="#DejaVuSans-48"/>
       <use x="354.199219" xlink:href="#DejaVuSans-56"/>
      </g>
     </g>
    </g>
    <g id="xtick_6">
     <g id="line2d_6">
      <g>
       <use style="stroke:#000000;stroke-width:0.8;" x="961.3775" xlink:href="#m9c10d8bd87" y="501.738984"/>
      </g>
     </g>
     <g id="text_6">
      <!-- 2020-09 -->
      <defs>
       <path d="M 10.984375 1.515625 
L 10.984375 10.5 
Q 14.703125 8.734375 18.5 7.8125 
Q 22.3125 6.890625 25.984375 6.890625 
Q 35.75 6.890625 40.890625 13.453125 
Q 46.046875 20.015625 46.78125 33.40625 
Q 43.953125 29.203125 39.59375 26.953125 
Q 35.25 24.703125 29.984375 24.703125 
Q 19.046875 24.703125 12.671875 31.3125 
Q 6.296875 37.9375 6.296875 49.421875 
Q 6.296875 60.640625 12.9375 67.421875 
Q 19.578125 74.21875 30.609375 74.21875 
Q 43.265625 74.21875 49.921875 64.515625 
Q 56.59375 54.828125 56.59375 36.375 
Q 56.59375 19.140625 48.40625 8.859375 
Q 40.234375 -1.421875 26.421875 -1.421875 
Q 22.703125 -1.421875 18.890625 -0.6875 
Q 15.09375 0.046875 10.984375 1.515625 
z
M 30.609375 32.421875 
Q 37.25 32.421875 41.125 36.953125 
Q 45.015625 41.5 45.015625 49.421875 
Q 45.015625 57.28125 41.125 61.84375 
Q 37.25 66.40625 30.609375 66.40625 
Q 23.96875 66.40625 20.09375 61.84375 
Q 16.21875 57.28125 16.21875 49.421875 
Q 16.21875 41.5 20.09375 36.953125 
Q 23.96875 32.421875 30.609375 32.421875 
z
" id="DejaVuSans-57"/>
      </defs>
      <g transform="translate(912.985233 544.452384)rotate(-30)scale(0.13 -0.13)">
       <use xlink:href="#DejaVuSans-50"/>
       <use x="63.623047" xlink:href="#DejaVuSans-48"/>
       <use x="127.246094" xlink:href="#DejaVuSans-50"/>
       <use x="190.869141" xlink:href="#DejaVuSans-48"/>
       <use x="254.492188" xlink:href="#DejaVuSans-45"/>
       <use x="290.576172" xlink:href="#DejaVuSans-48"/>
       <use x="354.199219" xlink:href="#DejaVuSans-57"/>
      </g>
     </g>
    </g>
    <g id="xtick_7">
     <g id="line2d_7">
      <g>
       <use style="stroke:#000000;stroke-width:0.8;" x="1119.900227" xlink:href="#m9c10d8bd87" y="501.738984"/>
      </g>
     </g>
     <g id="text_7">
      <!-- 2020-10 -->
      <defs>
       <path d="M 12.40625 8.296875 
L 28.515625 8.296875 
L 28.515625 63.921875 
L 10.984375 60.40625 
L 10.984375 69.390625 
L 28.421875 72.90625 
L 38.28125 72.90625 
L 38.28125 8.296875 
L 54.390625 8.296875 
L 54.390625 0 
L 12.40625 0 
z
" id="DejaVuSans-49"/>
      </defs>
      <g transform="translate(1071.50796 544.452384)rotate(-30)scale(0.13 -0.13)">
       <use xlink:href="#DejaVuSans-50"/>
       <use x="63.623047" xlink:href="#DejaVuSans-48"/>
       <use x="127.246094" xlink:href="#DejaVuSans-50"/>
       <use x="190.869141" xlink:href="#DejaVuSans-48"/>
       <use x="254.492188" xlink:href="#DejaVuSans-45"/>
       <use x="290.576172" xlink:href="#DejaVuSans-49"/>
       <use x="354.199219" xlink:href="#DejaVuSans-48"/>
      </g>
     </g>
    </g>
   </g>
   <g id="matplotlib.axis_2">
    <g id="ytick_1">
     <g id="line2d_8">
      <path clip-path="url(#p02adcd668e)" d="M 54.6275 480.375685 
L 1170.6275 480.375685 
" style="fill:none;stroke:#b0b0b0;stroke-linecap:square;stroke-width:0.8;"/>
     </g>
     <g id="line2d_9">
      <defs>
       <path d="M 0 0 
L -3.5 0 
" id="madef48545f" style="stroke:#000000;stroke-width:0.8;"/>
      </defs>
      <g>
       <use style="stroke:#000000;stroke-width:0.8;" x="54.6275" xlink:href="#madef48545f" y="480.375685"/>
      </g>
     </g>
     <g id="text_8">
      <!-- 0 -->
      <g transform="translate(39.35625 485.314669)scale(0.13 -0.13)">
       <use xlink:href="#DejaVuSans-48"/>
      </g>
     </g>
    </g>
    <g id="ytick_2">
     <g id="line2d_10">
      <path clip-path="url(#p02adcd668e)" d="M 54.6275 363.31651 
L 1170.6275 363.31651 
" style="fill:none;stroke:#b0b0b0;stroke-linecap:square;stroke-width:0.8;"/>
     </g>
     <g id="line2d_11">
      <g>
       <use style="stroke:#000000;stroke-width:0.8;" x="54.6275" xlink:href="#madef48545f" y="363.31651"/>
      </g>
     </g>
     <g id="text_9">
      <!-- 100 -->
      <g transform="translate(22.81375 368.255494)scale(0.13 -0.13)">
       <use xlink:href="#DejaVuSans-49"/>
       <use x="63.623047" xlink:href="#DejaVuSans-48"/>
       <use x="127.246094" xlink:href="#DejaVuSans-48"/>
      </g>
     </g>
    </g>
    <g id="ytick_3">
     <g id="line2d_12">
      <path clip-path="url(#p02adcd668e)" d="M 54.6275 246.257335 
L 1170.6275 246.257335 
" style="fill:none;stroke:#b0b0b0;stroke-linecap:square;stroke-width:0.8;"/>
     </g>
     <g id="line2d_13">
      <g>
       <use style="stroke:#000000;stroke-width:0.8;" x="54.6275" xlink:href="#madef48545f" y="246.257335"/>
      </g>
     </g>
     <g id="text_10">
      <!-- 200 -->
      <g transform="translate(22.81375 251.196319)scale(0.13 -0.13)">
       <use xlink:href="#DejaVuSans-50"/>
       <use x="63.623047" xlink:href="#DejaVuSans-48"/>
       <use x="127.246094" xlink:href="#DejaVuSans-48"/>
      </g>
     </g>
    </g>
    <g id="ytick_4">
     <g id="line2d_14">
      <path clip-path="url(#p02adcd668e)" d="M 54.6275 129.19816 
L 1170.6275 129.19816 
" style="fill:none;stroke:#b0b0b0;stroke-linecap:square;stroke-width:0.8;"/>
     </g>
     <g id="line2d_15">
      <g>
       <use style="stroke:#000000;stroke-width:0.8;" x="54.6275" xlink:href="#madef48545f" y="129.19816"/>
      </g>
     </g>
     <g id="text_11">
      <!-- 300 -->
      <defs>
       <path d="M 40.578125 39.3125 
Q 47.65625 37.796875 51.625 33 
Q 55.609375 28.21875 55.609375 21.1875 
Q 55.609375 10.40625 48.1875 4.484375 
Q 40.765625 -1.421875 27.09375 -1.421875 
Q 22.515625 -1.421875 17.65625 -0.515625 
Q 12.796875 0.390625 7.625 2.203125 
L 7.625 11.71875 
Q 11.71875 9.328125 16.59375 8.109375 
Q 21.484375 6.890625 26.8125 6.890625 
Q 36.078125 6.890625 40.9375 10.546875 
Q 45.796875 14.203125 45.796875 21.1875 
Q 45.796875 27.640625 41.28125 31.265625 
Q 36.765625 34.90625 28.71875 34.90625 
L 20.21875 34.90625 
L 20.21875 43.015625 
L 29.109375 43.015625 
Q 36.375 43.015625 40.234375 45.921875 
Q 44.09375 48.828125 44.09375 54.296875 
Q 44.09375 59.90625 40.109375 62.90625 
Q 36.140625 65.921875 28.71875 65.921875 
Q 24.65625 65.921875 20.015625 65.03125 
Q 15.375 64.15625 9.8125 62.3125 
L 9.8125 71.09375 
Q 15.4375 72.65625 20.34375 73.4375 
Q 25.25 74.21875 29.59375 74.21875 
Q 40.828125 74.21875 47.359375 69.109375 
Q 53.90625 64.015625 53.90625 55.328125 
Q 53.90625 49.265625 50.4375 45.09375 
Q 46.96875 40.921875 40.578125 39.3125 
z
" id="DejaVuSans-51"/>
      </defs>
      <g transform="translate(22.81375 134.137144)scale(0.13 -0.13)">
       <use xlink:href="#DejaVuSans-51"/>
       <use x="63.623047" xlink:href="#DejaVuSans-48"/>
       <use x="127.246094" xlink:href="#DejaVuSans-48"/>
      </g>
     </g>
    </g>
    <g id="ytick_5">
     <g id="line2d_16">
      <path clip-path="url(#p02adcd668e)" d="M 54.6275 12.138984 
L 1170.6275 12.138984 
" style="fill:none;stroke:#b0b0b0;stroke-linecap:square;stroke-width:0.8;"/>
     </g>
     <g id="line2d_17">
      <g>
       <use style="stroke:#000000;stroke-width:0.8;" x="54.6275" xlink:href="#madef48545f" y="12.138984"/>
      </g>
     </g>
     <g id="text_12">
      <!-- 400 -->
      <g transform="translate(22.81375 17.077969)scale(0.13 -0.13)">
       <use xlink:href="#DejaVuSans-52"/>
       <use x="63.623047" xlink:href="#DejaVuSans-48"/>
       <use x="127.246094" xlink:href="#DejaVuSans-48"/>
      </g>
     </g>
    </g>
    <g id="text_13">
     <!-- Anzahl von Fällen -->
     <defs>
      <path d="M 34.1875 63.1875 
L 20.796875 26.90625 
L 47.609375 26.90625 
z
M 28.609375 72.90625 
L 39.796875 72.90625 
L 67.578125 0 
L 57.328125 0 
L 50.6875 18.703125 
L 17.828125 18.703125 
L 11.1875 0 
L 0.78125 0 
z
" id="DejaVuSans-65"/>
      <path d="M 54.890625 33.015625 
L 54.890625 0 
L 45.90625 0 
L 45.90625 32.71875 
Q 45.90625 40.484375 42.875 44.328125 
Q 39.84375 48.1875 33.796875 48.1875 
Q 26.515625 48.1875 22.3125 43.546875 
Q 18.109375 38.921875 18.109375 30.90625 
L 18.109375 0 
L 9.078125 0 
L 9.078125 54.6875 
L 18.109375 54.6875 
L 18.109375 46.1875 
Q 21.34375 51.125 25.703125 53.5625 
Q 30.078125 56 35.796875 56 
Q 45.21875 56 50.046875 50.171875 
Q 54.890625 44.34375 54.890625 33.015625 
z
" id="DejaVuSans-110"/>
      <path d="M 5.515625 54.6875 
L 48.1875 54.6875 
L 48.1875 46.484375 
L 14.40625 7.171875 
L 48.1875 7.171875 
L 48.1875 0 
L 4.296875 0 
L 4.296875 8.203125 
L 38.09375 47.515625 
L 5.515625 47.515625 
z
" id="DejaVuSans-122"/>
      <path d="M 34.28125 27.484375 
Q 23.390625 27.484375 19.1875 25 
Q 14.984375 22.515625 14.984375 16.5 
Q 14.984375 11.71875 18.140625 8.90625 
Q 21.296875 6.109375 26.703125 6.109375 
Q 34.1875 6.109375 38.703125 11.40625 
Q 43.21875 16.703125 43.21875 25.484375 
L 43.21875 27.484375 
z
M 52.203125 31.203125 
L 52.203125 0 
L 43.21875 0 
L 43.21875 8.296875 
Q 40.140625 3.328125 35.546875 0.953125 
Q 30.953125 -1.421875 24.3125 -1.421875 
Q 15.921875 -1.421875 10.953125 3.296875 
Q 6 8.015625 6 15.921875 
Q 6 25.140625 12.171875 29.828125 
Q 18.359375 34.515625 30.609375 34.515625 
L 43.21875 34.515625 
L 43.21875 35.40625 
Q 43.21875 41.609375 39.140625 45 
Q 35.0625 48.390625 27.6875 48.390625 
Q 23 48.390625 18.546875 47.265625 
Q 14.109375 46.140625 10.015625 43.890625 
L 10.015625 52.203125 
Q 14.9375 54.109375 19.578125 55.046875 
Q 24.21875 56 28.609375 56 
Q 40.484375 56 46.34375 49.84375 
Q 52.203125 43.703125 52.203125 31.203125 
z
" id="DejaVuSans-97"/>
      <path d="M 54.890625 33.015625 
L 54.890625 0 
L 45.90625 0 
L 45.90625 32.71875 
Q 45.90625 40.484375 42.875 44.328125 
Q 39.84375 48.1875 33.796875 48.1875 
Q 26.515625 48.1875 22.3125 43.546875 
Q 18.109375 38.921875 18.109375 30.90625 
L 18.109375 0 
L 9.078125 0 
L 9.078125 75.984375 
L 18.109375 75.984375 
L 18.109375 46.1875 
Q 21.34375 51.125 25.703125 53.5625 
Q 30.078125 56 35.796875 56 
Q 45.21875 56 50.046875 50.171875 
Q 54.890625 44.34375 54.890625 33.015625 
z
" id="DejaVuSans-104"/>
      <path d="M 9.421875 75.984375 
L 18.40625 75.984375 
L 18.40625 0 
L 9.421875 0 
z
" id="DejaVuSans-108"/>
      <path id="DejaVuSans-32"/>
      <path d="M 2.984375 54.6875 
L 12.5 54.6875 
L 29.59375 8.796875 
L 46.6875 54.6875 
L 56.203125 54.6875 
L 35.6875 0 
L 23.484375 0 
z
" id="DejaVuSans-118"/>
      <path d="M 30.609375 48.390625 
Q 23.390625 48.390625 19.1875 42.75 
Q 14.984375 37.109375 14.984375 27.296875 
Q 14.984375 17.484375 19.15625 11.84375 
Q 23.34375 6.203125 30.609375 6.203125 
Q 37.796875 6.203125 41.984375 11.859375 
Q 46.1875 17.53125 46.1875 27.296875 
Q 46.1875 37.015625 41.984375 42.703125 
Q 37.796875 48.390625 30.609375 48.390625 
z
M 30.609375 56 
Q 42.328125 56 49.015625 48.375 
Q 55.71875 40.765625 55.71875 27.296875 
Q 55.71875 13.875 49.015625 6.21875 
Q 42.328125 -1.421875 30.609375 -1.421875 
Q 18.84375 -1.421875 12.171875 6.21875 
Q 5.515625 13.875 5.515625 27.296875 
Q 5.515625 40.765625 12.171875 48.375 
Q 18.84375 56 30.609375 56 
z
" id="DejaVuSans-111"/>
      <path d="M 9.8125 72.90625 
L 51.703125 72.90625 
L 51.703125 64.59375 
L 19.671875 64.59375 
L 19.671875 43.109375 
L 48.578125 43.109375 
L 48.578125 34.8125 
L 19.671875 34.8125 
L 19.671875 0 
L 9.8125 0 
z
" id="DejaVuSans-70"/>
      <path d="M 34.28125 27.484375 
Q 23.390625 27.484375 19.1875 25 
Q 14.984375 22.515625 14.984375 16.5 
Q 14.984375 11.71875 18.140625 8.90625 
Q 21.296875 6.109375 26.703125 6.109375 
Q 34.1875 6.109375 38.703125 11.40625 
Q 43.21875 16.703125 43.21875 25.484375 
L 43.21875 27.484375 
z
M 52.203125 31.203125 
L 52.203125 0 
L 43.21875 0 
L 43.21875 8.296875 
Q 40.140625 3.328125 35.546875 0.953125 
Q 30.953125 -1.421875 24.3125 -1.421875 
Q 15.921875 -1.421875 10.953125 3.296875 
Q 6 8.015625 6 15.921875 
Q 6 25.140625 12.171875 29.828125 
Q 18.359375 34.515625 30.609375 34.515625 
L 43.21875 34.515625 
L 43.21875 35.40625 
Q 43.21875 41.609375 39.140625 45 
Q 35.0625 48.390625 27.6875 48.390625 
Q 23 48.390625 18.546875 47.265625 
Q 14.109375 46.140625 10.015625 43.890625 
L 10.015625 52.203125 
Q 14.9375 54.109375 19.578125 55.046875 
Q 24.21875 56 28.609375 56 
Q 40.484375 56 46.34375 49.84375 
Q 52.203125 43.703125 52.203125 31.203125 
z
M 33.59375 75.78125 
L 43.5 75.78125 
L 43.5 65.921875 
L 33.59375 65.921875 
z
M 14.5 75.78125 
L 24.40625 75.78125 
L 24.40625 65.921875 
L 14.5 65.921875 
z
" id="DejaVuSans-228"/>
      <path d="M 56.203125 29.59375 
L 56.203125 25.203125 
L 14.890625 25.203125 
Q 15.484375 15.921875 20.484375 11.0625 
Q 25.484375 6.203125 34.421875 6.203125 
Q 39.59375 6.203125 44.453125 7.46875 
Q 49.3125 8.734375 54.109375 11.28125 
L 54.109375 2.78125 
Q 49.265625 0.734375 44.1875 -0.34375 
Q 39.109375 -1.421875 33.890625 -1.421875 
Q 20.796875 -1.421875 13.15625 6.1875 
Q 5.515625 13.8125 5.515625 26.8125 
Q 5.515625 40.234375 12.765625 48.109375 
Q 20.015625 56 32.328125 56 
Q 43.359375 56 49.78125 48.890625 
Q 56.203125 41.796875 56.203125 29.59375 
z
M 47.21875 32.234375 
Q 47.125 39.59375 43.09375 43.984375 
Q 39.0625 48.390625 32.421875 48.390625 
Q 24.90625 48.390625 20.390625 44.140625 
Q 15.875 39.890625 15.1875 32.171875 
z
" id="DejaVuSans-101"/>
     </defs>
     <g transform="translate(16.318125 309.388359)rotate(-90)scale(0.12 -0.12)">
      <use xlink:href="#DejaVuSans-65"/>
      <use x="68.408203" xlink:href="#DejaVuSans-110"/>
      <use x="131.787109" xlink:href="#DejaVuSans-122"/>
      <use x="184.277344" xlink:href="#DejaVuSans-97"/>
      <use x="245.556641" xlink:href="#DejaVuSans-104"/>
      <use x="308.935547" xlink:href="#DejaVuSans-108"/>
      <use x="336.71875" xlink:href="#DejaVuSans-32"/>
      <use x="368.505859" xlink:href="#DejaVuSans-118"/>
      <use x="427.685547" xlink:href="#DejaVuSans-111"/>
      <use x="488.867188" xlink:href="#DejaVuSans-110"/>
      <use x="552.246094" xlink:href="#DejaVuSans-32"/>
      <use x="584.033203" xlink:href="#DejaVuSans-70"/>
      <use x="632.427734" xlink:href="#DejaVuSans-228"/>
      <use x="693.707031" xlink:href="#DejaVuSans-108"/>
      <use x="721.490234" xlink:href="#DejaVuSans-108"/>
      <use x="749.273438" xlink:href="#DejaVuSans-101"/>
      <use x="810.796875" xlink:href="#DejaVuSans-110"/>
     </g>
    </g>
   </g>
   <g id="line2d_18">
    <path clip-path="url(#p02adcd668e)" d="M 105.354773 478.034501 
L 115.922955 478.034501 
L 121.207045 474.522726 
L 126.491136 474.522726 
L 131.775227 468.669767 
L 147.6275 468.669767 
L 152.911591 467.499176 
L 158.195682 463.9874 
L 163.479773 455.793258 
L 168.763864 449.940299 
L 174.047955 449.940299 
L 179.332045 448.769708 
L 184.616136 448.769708 
L 189.900227 445.257932 
L 195.184318 442.916749 
L 200.468409 437.06379 
L 211.036591 434.722607 
L 221.604773 430.04024 
L 226.888864 428.869648 
L 232.172955 428.869648 
L 237.457045 420.675506 
L 242.741136 420.675506 
L 253.309318 414.822547 
L 263.8775 407.798996 
L 269.161591 399.604854 
L 279.729773 397.263671 
L 290.297955 386.728345 
L 295.582045 379.704794 
L 300.866136 376.193019 
L 306.150227 369.169469 
L 316.718409 365.657693 
L 327.286591 356.292959 
L 332.570682 350.440001 
L 337.854773 346.928225 
L 343.138864 341.075267 
L 348.422955 339.904675 
L 353.707045 331.710532 
L 364.275227 325.857574 
L 369.559318 323.51639 
L 374.843409 315.322248 
L 380.1275 315.322248 
L 390.695682 298.933963 
L 401.263864 291.910413 
L 406.547955 289.569229 
L 422.400227 279.033904 
L 427.684318 276.69272 
L 438.2525 275.522128 
L 443.536591 275.522128 
L 454.104773 272.010353 
L 459.388864 268.498578 
L 480.525227 266.157394 
L 485.809318 262.645619 
L 491.093409 261.475027 
L 496.3775 259.133844 
L 512.229773 259.133844 
L 517.513864 256.79266 
L 522.797955 255.622069 
L 533.366136 250.939702 
L 538.650227 249.76911 
L 559.786591 249.76911 
L 570.354773 242.745559 
L 575.638864 242.745559 
L 586.207045 241.574968 
L 596.775227 239.233784 
L 681.320682 239.233784 
L 697.172955 235.722009 
L 702.457045 233.380825 
L 707.741136 232.210234 
L 713.025227 229.86905 
L 718.309318 229.86905 
L 734.161591 227.527867 
L 750.013864 221.674908 
L 792.286591 221.674908 
L 845.1275 190.068931 
L 850.411591 180.704197 
L 860.979773 176.02183 
L 866.263864 176.02183 
L 882.116136 167.827687 
L 887.400227 161.974729 
L 892.684318 160.804137 
L 897.968409 158.462953 
L 903.2525 158.462953 
L 919.104773 157.292362 
L 924.388864 154.951178 
L 929.672955 153.780586 
L 934.957045 150.268811 
L 940.241136 145.586444 
L 956.093409 144.415852 
L 961.3775 144.415852 
L 966.661591 142.074669 
L 971.945682 138.562894 
L 977.229773 138.562894 
L 998.366136 129.19816 
L 1003.650227 128.027568 
L 1008.934318 128.027568 
L 1014.218409 123.345201 
L 1035.354773 123.345201 
L 1040.638864 122.174609 
L 1045.922955 118.662834 
L 1051.207045 118.662834 
L 1067.059318 116.32165 
L 1072.343409 116.32165 
L 1082.911591 111.639283 
L 1088.195682 110.468691 
L 1104.047955 108.127508 
L 1109.332045 103.445141 
L 1114.616136 103.445141 
L 1119.900227 102.274549 
L 1119.900227 102.274549 
" style="fill:none;stroke:#dbcd00;stroke-linecap:square;stroke-width:2;"/>
    <defs>
     <path d="M 0 1.5 
C 0.397805 1.5 0.77937 1.341951 1.06066 1.06066 
C 1.341951 0.77937 1.5 0.397805 1.5 0 
C 1.5 -0.397805 1.341951 -0.77937 1.06066 -1.06066 
C 0.77937 -1.341951 0.397805 -1.5 0 -1.5 
C -0.397805 -1.5 -0.77937 -1.341951 -1.06066 -1.06066 
C -1.341951 -0.77937 -1.5 -0.397805 -1.5 0 
C -1.5 0.397805 -1.341951 0.77937 -1.06066 1.06066 
C -0.77937 1.341951 -0.397805 1.5 0 1.5 
z
" id="mb057ce40f9" style="stroke:#dbcd00;"/>
    </defs>
    <g clip-path="url(#p02adcd668e)">
     <use style="fill:#dbcd00;stroke:#dbcd00;" x="105.354773" xlink:href="#mb057ce40f9" y="478.034501"/>
     <use style="fill:#dbcd00;stroke:#dbcd00;" x="110.638864" xlink:href="#mb057ce40f9" y="478.034501"/>
     <use style="fill:#dbcd00;stroke:#dbcd00;" x="115.922955" xlink:href="#mb057ce40f9" y="478.034501"/>
     <use style="fill:#dbcd00;stroke:#dbcd00;" x="121.207045" xlink:href="#mb057ce40f9" y="474.522726"/>
     <use style="fill:#dbcd00;stroke:#dbcd00;" x="126.491136" xlink:href="#mb057ce40f9" y="474.522726"/>
     <use style="fill:#dbcd00;stroke:#dbcd00;" x="131.775227" xlink:href="#mb057ce40f9" y="468.669767"/>
     <use style="fill:#dbcd00;stroke:#dbcd00;" x="137.059318" xlink:href="#mb057ce40f9" y="468.669767"/>
     <use style="fill:#dbcd00;stroke:#dbcd00;" x="142.343409" xlink:href="#mb057ce40f9" y="468.669767"/>
     <use style="fill:#dbcd00;stroke:#dbcd00;" x="147.6275" xlink:href="#mb057ce40f9" y="468.669767"/>
     <use style="fill:#dbcd00;stroke:#dbcd00;" x="152.911591" xlink:href="#mb057ce40f9" y="467.499176"/>
     <use style="fill:#dbcd00;stroke:#dbcd00;" x="158.195682" xlink:href="#mb057ce40f9" y="463.9874"/>
     <use style="fill:#dbcd00;stroke:#dbcd00;" x="163.479773" xlink:href="#mb057ce40f9" y="455.793258"/>
     <use style="fill:#dbcd00;stroke:#dbcd00;" x="168.763864" xlink:href="#mb057ce40f9" y="449.940299"/>
     <use style="fill:#dbcd00;stroke:#dbcd00;" x="174.047955" xlink:href="#mb057ce40f9" y="449.940299"/>
     <use style="fill:#dbcd00;stroke:#dbcd00;" x="179.332045" xlink:href="#mb057ce40f9" y="448.769708"/>
     <use style="fill:#dbcd00;stroke:#dbcd00;" x="184.616136" xlink:href="#mb057ce40f9" y="448.769708"/>
     <use style="fill:#dbcd00;stroke:#dbcd00;" x="189.900227" xlink:href="#mb057ce40f9" y="445.257932"/>
     <use style="fill:#dbcd00;stroke:#dbcd00;" x="195.184318" xlink:href="#mb057ce40f9" y="442.916749"/>
     <use style="fill:#dbcd00;stroke:#dbcd00;" x="200.468409" xlink:href="#mb057ce40f9" y="437.06379"/>
     <use style="fill:#dbcd00;stroke:#dbcd00;" x="211.036591" xlink:href="#mb057ce40f9" y="434.722607"/>
     <use style="fill:#dbcd00;stroke:#dbcd00;" x="221.604773" xlink:href="#mb057ce40f9" y="430.04024"/>
     <use style="fill:#dbcd00;stroke:#dbcd00;" x="226.888864" xlink:href="#mb057ce40f9" y="428.869648"/>
     <use style="fill:#dbcd00;stroke:#dbcd00;" x="232.172955" xlink:href="#mb057ce40f9" y="428.869648"/>
     <use style="fill:#dbcd00;stroke:#dbcd00;" x="237.457045" xlink:href="#mb057ce40f9" y="420.675506"/>
     <use style="fill:#dbcd00;stroke:#dbcd00;" x="242.741136" xlink:href="#mb057ce40f9" y="420.675506"/>
     <use style="fill:#dbcd00;stroke:#dbcd00;" x="253.309318" xlink:href="#mb057ce40f9" y="414.822547"/>
     <use style="fill:#dbcd00;stroke:#dbcd00;" x="258.593409" xlink:href="#mb057ce40f9" y="411.310772"/>
     <use style="fill:#dbcd00;stroke:#dbcd00;" x="263.8775" xlink:href="#mb057ce40f9" y="407.798996"/>
     <use style="fill:#dbcd00;stroke:#dbcd00;" x="269.161591" xlink:href="#mb057ce40f9" y="399.604854"/>
     <use style="fill:#dbcd00;stroke:#dbcd00;" x="274.445682" xlink:href="#mb057ce40f9" y="398.434262"/>
     <use style="fill:#dbcd00;stroke:#dbcd00;" x="279.729773" xlink:href="#mb057ce40f9" y="397.263671"/>
     <use style="fill:#dbcd00;stroke:#dbcd00;" x="290.297955" xlink:href="#mb057ce40f9" y="386.728345"/>
     <use style="fill:#dbcd00;stroke:#dbcd00;" x="295.582045" xlink:href="#mb057ce40f9" y="379.704794"/>
     <use style="fill:#dbcd00;stroke:#dbcd00;" x="300.866136" xlink:href="#mb057ce40f9" y="376.193019"/>
     <use style="fill:#dbcd00;stroke:#dbcd00;" x="306.150227" xlink:href="#mb057ce40f9" y="369.169469"/>
     <use style="fill:#dbcd00;stroke:#dbcd00;" x="316.718409" xlink:href="#mb057ce40f9" y="365.657693"/>
     <use style="fill:#dbcd00;stroke:#dbcd00;" x="327.286591" xlink:href="#mb057ce40f9" y="356.292959"/>
     <use style="fill:#dbcd00;stroke:#dbcd00;" x="332.570682" xlink:href="#mb057ce40f9" y="350.440001"/>
     <use style="fill:#dbcd00;stroke:#dbcd00;" x="337.854773" xlink:href="#mb057ce40f9" y="346.928225"/>
     <use style="fill:#dbcd00;stroke:#dbcd00;" x="343.138864" xlink:href="#mb057ce40f9" y="341.075267"/>
     <use style="fill:#dbcd00;stroke:#dbcd00;" x="348.422955" xlink:href="#mb057ce40f9" y="339.904675"/>
     <use style="fill:#dbcd00;stroke:#dbcd00;" x="353.707045" xlink:href="#mb057ce40f9" y="331.710532"/>
     <use style="fill:#dbcd00;stroke:#dbcd00;" x="364.275227" xlink:href="#mb057ce40f9" y="325.857574"/>
     <use style="fill:#dbcd00;stroke:#dbcd00;" x="369.559318" xlink:href="#mb057ce40f9" y="323.51639"/>
     <use style="fill:#dbcd00;stroke:#dbcd00;" x="374.843409" xlink:href="#mb057ce40f9" y="315.322248"/>
     <use style="fill:#dbcd00;stroke:#dbcd00;" x="380.1275" xlink:href="#mb057ce40f9" y="315.322248"/>
     <use style="fill:#dbcd00;stroke:#dbcd00;" x="385.411591" xlink:href="#mb057ce40f9" y="307.128106"/>
     <use style="fill:#dbcd00;stroke:#dbcd00;" x="390.695682" xlink:href="#mb057ce40f9" y="298.933963"/>
     <use style="fill:#dbcd00;stroke:#dbcd00;" x="401.263864" xlink:href="#mb057ce40f9" y="291.910413"/>
     <use style="fill:#dbcd00;stroke:#dbcd00;" x="406.547955" xlink:href="#mb057ce40f9" y="289.569229"/>
     <use style="fill:#dbcd00;stroke:#dbcd00;" x="411.832045" xlink:href="#mb057ce40f9" y="286.057454"/>
     <use style="fill:#dbcd00;stroke:#dbcd00;" x="422.400227" xlink:href="#mb057ce40f9" y="279.033904"/>
     <use style="fill:#dbcd00;stroke:#dbcd00;" x="427.684318" xlink:href="#mb057ce40f9" y="276.69272"/>
     <use style="fill:#dbcd00;stroke:#dbcd00;" x="438.2525" xlink:href="#mb057ce40f9" y="275.522128"/>
     <use style="fill:#dbcd00;stroke:#dbcd00;" x="443.536591" xlink:href="#mb057ce40f9" y="275.522128"/>
     <use style="fill:#dbcd00;stroke:#dbcd00;" x="454.104773" xlink:href="#mb057ce40f9" y="272.010353"/>
     <use style="fill:#dbcd00;stroke:#dbcd00;" x="459.388864" xlink:href="#mb057ce40f9" y="268.498578"/>
     <use style="fill:#dbcd00;stroke:#dbcd00;" x="480.525227" xlink:href="#mb057ce40f9" y="266.157394"/>
     <use style="fill:#dbcd00;stroke:#dbcd00;" x="485.809318" xlink:href="#mb057ce40f9" y="262.645619"/>
     <use style="fill:#dbcd00;stroke:#dbcd00;" x="491.093409" xlink:href="#mb057ce40f9" y="261.475027"/>
     <use style="fill:#dbcd00;stroke:#dbcd00;" x="496.3775" xlink:href="#mb057ce40f9" y="259.133844"/>
     <use style="fill:#dbcd00;stroke:#dbcd00;" x="501.661591" xlink:href="#mb057ce40f9" y="259.133844"/>
     <use style="fill:#dbcd00;stroke:#dbcd00;" x="512.229773" xlink:href="#mb057ce40f9" y="259.133844"/>
     <use style="fill:#dbcd00;stroke:#dbcd00;" x="517.513864" xlink:href="#mb057ce40f9" y="256.79266"/>
     <use style="fill:#dbcd00;stroke:#dbcd00;" x="522.797955" xlink:href="#mb057ce40f9" y="255.622069"/>
     <use style="fill:#dbcd00;stroke:#dbcd00;" x="533.366136" xlink:href="#mb057ce40f9" y="250.939702"/>
     <use style="fill:#dbcd00;stroke:#dbcd00;" x="538.650227" xlink:href="#mb057ce40f9" y="249.76911"/>
     <use style="fill:#dbcd00;stroke:#dbcd00;" x="549.218409" xlink:href="#mb057ce40f9" y="249.76911"/>
     <use style="fill:#dbcd00;stroke:#dbcd00;" x="559.786591" xlink:href="#mb057ce40f9" y="249.76911"/>
     <use style="fill:#dbcd00;stroke:#dbcd00;" x="570.354773" xlink:href="#mb057ce40f9" y="242.745559"/>
     <use style="fill:#dbcd00;stroke:#dbcd00;" x="575.638864" xlink:href="#mb057ce40f9" y="242.745559"/>
     <use style="fill:#dbcd00;stroke:#dbcd00;" x="586.207045" xlink:href="#mb057ce40f9" y="241.574968"/>
     <use style="fill:#dbcd00;stroke:#dbcd00;" x="591.491136" xlink:href="#mb057ce40f9" y="240.404376"/>
     <use style="fill:#dbcd00;stroke:#dbcd00;" x="596.775227" xlink:href="#mb057ce40f9" y="239.233784"/>
     <use style="fill:#dbcd00;stroke:#dbcd00;" x="602.059318" xlink:href="#mb057ce40f9" y="239.233784"/>
     <use style="fill:#dbcd00;stroke:#dbcd00;" x="612.6275" xlink:href="#mb057ce40f9" y="239.233784"/>
     <use style="fill:#dbcd00;stroke:#dbcd00;" x="623.195682" xlink:href="#mb057ce40f9" y="239.233784"/>
     <use style="fill:#dbcd00;stroke:#dbcd00;" x="628.479773" xlink:href="#mb057ce40f9" y="239.233784"/>
     <use style="fill:#dbcd00;stroke:#dbcd00;" x="633.763864" xlink:href="#mb057ce40f9" y="239.233784"/>
     <use style="fill:#dbcd00;stroke:#dbcd00;" x="639.047955" xlink:href="#mb057ce40f9" y="239.233784"/>
     <use style="fill:#dbcd00;stroke:#dbcd00;" x="644.332045" xlink:href="#mb057ce40f9" y="239.233784"/>
     <use style="fill:#dbcd00;stroke:#dbcd00;" x="649.616136" xlink:href="#mb057ce40f9" y="239.233784"/>
     <use style="fill:#dbcd00;stroke:#dbcd00;" x="665.468409" xlink:href="#mb057ce40f9" y="239.233784"/>
     <use style="fill:#dbcd00;stroke:#dbcd00;" x="670.7525" xlink:href="#mb057ce40f9" y="239.233784"/>
     <use style="fill:#dbcd00;stroke:#dbcd00;" x="676.036591" xlink:href="#mb057ce40f9" y="239.233784"/>
     <use style="fill:#dbcd00;stroke:#dbcd00;" x="681.320682" xlink:href="#mb057ce40f9" y="239.233784"/>
     <use style="fill:#dbcd00;stroke:#dbcd00;" x="697.172955" xlink:href="#mb057ce40f9" y="235.722009"/>
     <use style="fill:#dbcd00;stroke:#dbcd00;" x="702.457045" xlink:href="#mb057ce40f9" y="233.380825"/>
     <use style="fill:#dbcd00;stroke:#dbcd00;" x="707.741136" xlink:href="#mb057ce40f9" y="232.210234"/>
     <use style="fill:#dbcd00;stroke:#dbcd00;" x="713.025227" xlink:href="#mb057ce40f9" y="229.86905"/>
     <use style="fill:#dbcd00;stroke:#dbcd00;" x="718.309318" xlink:href="#mb057ce40f9" y="229.86905"/>
     <use style="fill:#dbcd00;stroke:#dbcd00;" x="734.161591" xlink:href="#mb057ce40f9" y="227.527867"/>
     <use style="fill:#dbcd00;stroke:#dbcd00;" x="750.013864" xlink:href="#mb057ce40f9" y="221.674908"/>
     <use style="fill:#dbcd00;stroke:#dbcd00;" x="755.297955" xlink:href="#mb057ce40f9" y="221.674908"/>
     <use style="fill:#dbcd00;stroke:#dbcd00;" x="771.150227" xlink:href="#mb057ce40f9" y="221.674908"/>
     <use style="fill:#dbcd00;stroke:#dbcd00;" x="776.434318" xlink:href="#mb057ce40f9" y="221.674908"/>
     <use style="fill:#dbcd00;stroke:#dbcd00;" x="781.718409" xlink:href="#mb057ce40f9" y="221.674908"/>
     <use style="fill:#dbcd00;stroke:#dbcd00;" x="787.0025" xlink:href="#mb057ce40f9" y="221.674908"/>
     <use style="fill:#dbcd00;stroke:#dbcd00;" x="792.286591" xlink:href="#mb057ce40f9" y="221.674908"/>
     <use style="fill:#dbcd00;stroke:#dbcd00;" x="845.1275" xlink:href="#mb057ce40f9" y="190.068931"/>
     <use style="fill:#dbcd00;stroke:#dbcd00;" x="850.411591" xlink:href="#mb057ce40f9" y="180.704197"/>
     <use style="fill:#dbcd00;stroke:#dbcd00;" x="860.979773" xlink:href="#mb057ce40f9" y="176.02183"/>
     <use style="fill:#dbcd00;stroke:#dbcd00;" x="866.263864" xlink:href="#mb057ce40f9" y="176.02183"/>
     <use style="fill:#dbcd00;stroke:#dbcd00;" x="882.116136" xlink:href="#mb057ce40f9" y="167.827687"/>
     <use style="fill:#dbcd00;stroke:#dbcd00;" x="887.400227" xlink:href="#mb057ce40f9" y="161.974729"/>
     <use style="fill:#dbcd00;stroke:#dbcd00;" x="892.684318" xlink:href="#mb057ce40f9" y="160.804137"/>
     <use style="fill:#dbcd00;stroke:#dbcd00;" x="897.968409" xlink:href="#mb057ce40f9" y="158.462953"/>
     <use style="fill:#dbcd00;stroke:#dbcd00;" x="903.2525" xlink:href="#mb057ce40f9" y="158.462953"/>
     <use style="fill:#dbcd00;stroke:#dbcd00;" x="919.104773" xlink:href="#mb057ce40f9" y="157.292362"/>
     <use style="fill:#dbcd00;stroke:#dbcd00;" x="924.388864" xlink:href="#mb057ce40f9" y="154.951178"/>
     <use style="fill:#dbcd00;stroke:#dbcd00;" x="929.672955" xlink:href="#mb057ce40f9" y="153.780586"/>
     <use style="fill:#dbcd00;stroke:#dbcd00;" x="934.957045" xlink:href="#mb057ce40f9" y="150.268811"/>
     <use style="fill:#dbcd00;stroke:#dbcd00;" x="940.241136" xlink:href="#mb057ce40f9" y="145.586444"/>
     <use style="fill:#dbcd00;stroke:#dbcd00;" x="956.093409" xlink:href="#mb057ce40f9" y="144.415852"/>
     <use style="fill:#dbcd00;stroke:#dbcd00;" x="961.3775" xlink:href="#mb057ce40f9" y="144.415852"/>
     <use style="fill:#dbcd00;stroke:#dbcd00;" x="966.661591" xlink:href="#mb057ce40f9" y="142.074669"/>
     <use style="fill:#dbcd00;stroke:#dbcd00;" x="971.945682" xlink:href="#mb057ce40f9" y="138.562894"/>
     <use style="fill:#dbcd00;stroke:#dbcd00;" x="977.229773" xlink:href="#mb057ce40f9" y="138.562894"/>
     <use style="fill:#dbcd00;stroke:#dbcd00;" x="993.082045" xlink:href="#mb057ce40f9" y="131.539343"/>
     <use style="fill:#dbcd00;stroke:#dbcd00;" x="998.366136" xlink:href="#mb057ce40f9" y="129.19816"/>
     <use style="fill:#dbcd00;stroke:#dbcd00;" x="1003.650227" xlink:href="#mb057ce40f9" y="128.027568"/>
     <use style="fill:#dbcd00;stroke:#dbcd00;" x="1008.934318" xlink:href="#mb057ce40f9" y="128.027568"/>
     <use style="fill:#dbcd00;stroke:#dbcd00;" x="1014.218409" xlink:href="#mb057ce40f9" y="123.345201"/>
     <use style="fill:#dbcd00;stroke:#dbcd00;" x="1030.070682" xlink:href="#mb057ce40f9" y="123.345201"/>
     <use style="fill:#dbcd00;stroke:#dbcd00;" x="1035.354773" xlink:href="#mb057ce40f9" y="123.345201"/>
     <use style="fill:#dbcd00;stroke:#dbcd00;" x="1040.638864" xlink:href="#mb057ce40f9" y="122.174609"/>
     <use style="fill:#dbcd00;stroke:#dbcd00;" x="1045.922955" xlink:href="#mb057ce40f9" y="118.662834"/>
     <use style="fill:#dbcd00;stroke:#dbcd00;" x="1051.207045" xlink:href="#mb057ce40f9" y="118.662834"/>
     <use style="fill:#dbcd00;stroke:#dbcd00;" x="1067.059318" xlink:href="#mb057ce40f9" y="116.32165"/>
     <use style="fill:#dbcd00;stroke:#dbcd00;" x="1072.343409" xlink:href="#mb057ce40f9" y="116.32165"/>
     <use style="fill:#dbcd00;stroke:#dbcd00;" x="1077.6275" xlink:href="#mb057ce40f9" y="113.980467"/>
     <use style="fill:#dbcd00;stroke:#dbcd00;" x="1082.911591" xlink:href="#mb057ce40f9" y="111.639283"/>
     <use style="fill:#dbcd00;stroke:#dbcd00;" x="1088.195682" xlink:href="#mb057ce40f9" y="110.468691"/>
     <use style="fill:#dbcd00;stroke:#dbcd00;" x="1104.047955" xlink:href="#mb057ce40f9" y="108.127508"/>
     <use style="fill:#dbcd00;stroke:#dbcd00;" x="1109.332045" xlink:href="#mb057ce40f9" y="103.445141"/>
     <use style="fill:#dbcd00;stroke:#dbcd00;" x="1114.616136" xlink:href="#mb057ce40f9" y="103.445141"/>
     <use style="fill:#dbcd00;stroke:#dbcd00;" x="1119.900227" xlink:href="#mb057ce40f9" y="102.274549"/>
    </g>
   </g>
   <g id="line2d_19">
    <path clip-path="url(#p02adcd668e)" d="M 105.354773 462.816809 
L 110.638864 461.646217 
L 115.922955 453.452075 
L 121.207045 460.475625 
L 126.491136 455.793258 
L 131.775227 449.940299 
L 137.059318 448.769708 
L 142.343409 446.428524 
L 147.6275 441.746157 
L 152.911591 441.746157 
L 158.195682 438.234382 
L 163.479773 441.746157 
L 168.763864 441.746157 
L 174.047955 440.575565 
L 179.332045 437.06379 
L 189.900227 427.699056 
L 195.184318 425.357873 
L 200.468409 427.699056 
L 211.036591 427.699056 
L 221.604773 426.528464 
L 226.888864 420.675506 
L 232.172955 419.504914 
L 237.457045 423.016689 
L 242.741136 419.504914 
L 253.309318 420.675506 
L 258.593409 413.651955 
L 263.8775 417.16373 
L 269.161591 421.846097 
L 274.445682 420.675506 
L 279.729773 406.628405 
L 290.297955 414.822547 
L 295.582045 419.504914 
L 300.866136 421.846097 
L 306.150227 426.528464 
L 316.718409 420.675506 
L 327.286591 430.04024 
L 332.570682 420.675506 
L 337.854773 415.993139 
L 343.138864 421.846097 
L 348.422955 423.016689 
L 353.707045 428.869648 
L 364.275227 433.552015 
L 369.559318 434.722607 
L 374.843409 437.06379 
L 380.1275 437.06379 
L 385.411591 445.257932 
L 390.695682 451.110891 
L 401.263864 458.134442 
L 406.547955 459.305033 
L 422.400227 469.840359 
L 438.2525 466.328584 
L 443.536591 466.328584 
L 454.104773 467.499176 
L 459.388864 471.010951 
L 480.525227 467.499176 
L 485.809318 469.840359 
L 491.093409 468.669767 
L 496.3775 472.181543 
L 512.229773 472.181543 
L 517.513864 474.522726 
L 522.797955 472.181543 
L 533.366136 474.522726 
L 538.650227 473.352134 
L 559.786591 473.352134 
L 570.354773 480.375685 
L 575.638864 479.205093 
L 586.207045 480.375685 
L 591.491136 480.375685 
L 596.775227 482.716868 
L 628.479773 482.716868 
L 644.332045 479.205093 
L 649.616136 474.522726 
L 665.468409 474.522726 
L 670.7525 472.181543 
L 697.172955 472.181543 
L 702.457045 474.522726 
L 707.741136 475.693318 
L 713.025227 478.034501 
L 718.309318 473.352134 
L 734.161591 473.352134 
L 750.013864 468.669767 
L 755.297955 468.669767 
L 771.150227 454.622666 
L 781.718409 454.622666 
L 787.0025 451.110891 
L 792.286591 434.722607 
L 845.1275 447.599116 
L 850.411591 456.96385 
L 860.979773 459.305033 
L 882.116136 459.305033 
L 887.400227 465.157992 
L 892.684318 466.328584 
L 897.968409 468.669767 
L 903.2525 466.328584 
L 919.104773 463.9874 
L 924.388864 466.328584 
L 929.672955 466.328584 
L 940.241136 468.669767 
L 956.093409 468.669767 
L 966.661591 466.328584 
L 971.945682 469.840359 
L 977.229773 467.499176 
L 993.082045 468.669767 
L 998.366136 471.010951 
L 1003.650227 465.157992 
L 1008.934318 465.157992 
L 1014.218409 468.669767 
L 1030.070682 467.499176 
L 1035.354773 466.328584 
L 1040.638864 466.328584 
L 1045.922955 469.840359 
L 1051.207045 469.840359 
L 1067.059318 462.816809 
L 1072.343409 462.816809 
L 1082.911591 465.157992 
L 1088.195682 459.305033 
L 1104.047955 448.769708 
L 1109.332045 451.110891 
L 1114.616136 442.916749 
L 1119.900227 438.234382 
L 1119.900227 438.234382 
" style="fill:none;stroke:#2792cb;stroke-linecap:square;stroke-width:2;"/>
    <defs>
     <path d="M 0 1.5 
C 0.397805 1.5 0.77937 1.341951 1.06066 1.06066 
C 1.341951 0.77937 1.5 0.397805 1.5 0 
C 1.5 -0.397805 1.341951 -0.77937 1.06066 -1.06066 
C 0.77937 -1.341951 0.397805 -1.5 0 -1.5 
C -0.397805 -1.5 -0.77937 -1.341951 -1.06066 -1.06066 
C -1.341951 -0.77937 -1.5 -0.397805 -1.5 0 
C -1.5 0.397805 -1.341951 0.77937 -1.06066 1.06066 
C -0.77937 1.341951 -0.397805 1.5 0 1.5 
z
" id="m1fddc8dd89" style="stroke:#2792cb;"/>
    </defs>
    <g clip-path="url(#p02adcd668e)">
     <use style="fill:#2792cb;stroke:#2792cb;" x="105.354773" xlink:href="#m1fddc8dd89" y="462.816809"/>
     <use style="fill:#2792cb;stroke:#2792cb;" x="110.638864" xlink:href="#m1fddc8dd89" y="461.646217"/>
     <use style="fill:#2792cb;stroke:#2792cb;" x="115.922955" xlink:href="#m1fddc8dd89" y="453.452075"/>
     <use style="fill:#2792cb;stroke:#2792cb;" x="121.207045" xlink:href="#m1fddc8dd89" y="460.475625"/>
     <use style="fill:#2792cb;stroke:#2792cb;" x="126.491136" xlink:href="#m1fddc8dd89" y="455.793258"/>
     <use style="fill:#2792cb;stroke:#2792cb;" x="131.775227" xlink:href="#m1fddc8dd89" y="449.940299"/>
     <use style="fill:#2792cb;stroke:#2792cb;" x="137.059318" xlink:href="#m1fddc8dd89" y="448.769708"/>
     <use style="fill:#2792cb;stroke:#2792cb;" x="142.343409" xlink:href="#m1fddc8dd89" y="446.428524"/>
     <use style="fill:#2792cb;stroke:#2792cb;" x="147.6275" xlink:href="#m1fddc8dd89" y="441.746157"/>
     <use style="fill:#2792cb;stroke:#2792cb;" x="152.911591" xlink:href="#m1fddc8dd89" y="441.746157"/>
     <use style="fill:#2792cb;stroke:#2792cb;" x="158.195682" xlink:href="#m1fddc8dd89" y="438.234382"/>
     <use style="fill:#2792cb;stroke:#2792cb;" x="163.479773" xlink:href="#m1fddc8dd89" y="441.746157"/>
     <use style="fill:#2792cb;stroke:#2792cb;" x="168.763864" xlink:href="#m1fddc8dd89" y="441.746157"/>
     <use style="fill:#2792cb;stroke:#2792cb;" x="174.047955" xlink:href="#m1fddc8dd89" y="440.575565"/>
     <use style="fill:#2792cb;stroke:#2792cb;" x="179.332045" xlink:href="#m1fddc8dd89" y="437.06379"/>
     <use style="fill:#2792cb;stroke:#2792cb;" x="184.616136" xlink:href="#m1fddc8dd89" y="432.381423"/>
     <use style="fill:#2792cb;stroke:#2792cb;" x="189.900227" xlink:href="#m1fddc8dd89" y="427.699056"/>
     <use style="fill:#2792cb;stroke:#2792cb;" x="195.184318" xlink:href="#m1fddc8dd89" y="425.357873"/>
     <use style="fill:#2792cb;stroke:#2792cb;" x="200.468409" xlink:href="#m1fddc8dd89" y="427.699056"/>
     <use style="fill:#2792cb;stroke:#2792cb;" x="211.036591" xlink:href="#m1fddc8dd89" y="427.699056"/>
     <use style="fill:#2792cb;stroke:#2792cb;" x="221.604773" xlink:href="#m1fddc8dd89" y="426.528464"/>
     <use style="fill:#2792cb;stroke:#2792cb;" x="226.888864" xlink:href="#m1fddc8dd89" y="420.675506"/>
     <use style="fill:#2792cb;stroke:#2792cb;" x="232.172955" xlink:href="#m1fddc8dd89" y="419.504914"/>
     <use style="fill:#2792cb;stroke:#2792cb;" x="237.457045" xlink:href="#m1fddc8dd89" y="423.016689"/>
     <use style="fill:#2792cb;stroke:#2792cb;" x="242.741136" xlink:href="#m1fddc8dd89" y="419.504914"/>
     <use style="fill:#2792cb;stroke:#2792cb;" x="253.309318" xlink:href="#m1fddc8dd89" y="420.675506"/>
     <use style="fill:#2792cb;stroke:#2792cb;" x="258.593409" xlink:href="#m1fddc8dd89" y="413.651955"/>
     <use style="fill:#2792cb;stroke:#2792cb;" x="263.8775" xlink:href="#m1fddc8dd89" y="417.16373"/>
     <use style="fill:#2792cb;stroke:#2792cb;" x="269.161591" xlink:href="#m1fddc8dd89" y="421.846097"/>
     <use style="fill:#2792cb;stroke:#2792cb;" x="274.445682" xlink:href="#m1fddc8dd89" y="420.675506"/>
     <use style="fill:#2792cb;stroke:#2792cb;" x="279.729773" xlink:href="#m1fddc8dd89" y="406.628405"/>
     <use style="fill:#2792cb;stroke:#2792cb;" x="290.297955" xlink:href="#m1fddc8dd89" y="414.822547"/>
     <use style="fill:#2792cb;stroke:#2792cb;" x="295.582045" xlink:href="#m1fddc8dd89" y="419.504914"/>
     <use style="fill:#2792cb;stroke:#2792cb;" x="300.866136" xlink:href="#m1fddc8dd89" y="421.846097"/>
     <use style="fill:#2792cb;stroke:#2792cb;" x="306.150227" xlink:href="#m1fddc8dd89" y="426.528464"/>
     <use style="fill:#2792cb;stroke:#2792cb;" x="316.718409" xlink:href="#m1fddc8dd89" y="420.675506"/>
     <use style="fill:#2792cb;stroke:#2792cb;" x="327.286591" xlink:href="#m1fddc8dd89" y="430.04024"/>
     <use style="fill:#2792cb;stroke:#2792cb;" x="332.570682" xlink:href="#m1fddc8dd89" y="420.675506"/>
     <use style="fill:#2792cb;stroke:#2792cb;" x="337.854773" xlink:href="#m1fddc8dd89" y="415.993139"/>
     <use style="fill:#2792cb;stroke:#2792cb;" x="343.138864" xlink:href="#m1fddc8dd89" y="421.846097"/>
     <use style="fill:#2792cb;stroke:#2792cb;" x="348.422955" xlink:href="#m1fddc8dd89" y="423.016689"/>
     <use style="fill:#2792cb;stroke:#2792cb;" x="353.707045" xlink:href="#m1fddc8dd89" y="428.869648"/>
     <use style="fill:#2792cb;stroke:#2792cb;" x="364.275227" xlink:href="#m1fddc8dd89" y="433.552015"/>
     <use style="fill:#2792cb;stroke:#2792cb;" x="369.559318" xlink:href="#m1fddc8dd89" y="434.722607"/>
     <use style="fill:#2792cb;stroke:#2792cb;" x="374.843409" xlink:href="#m1fddc8dd89" y="437.06379"/>
     <use style="fill:#2792cb;stroke:#2792cb;" x="380.1275" xlink:href="#m1fddc8dd89" y="437.06379"/>
     <use style="fill:#2792cb;stroke:#2792cb;" x="385.411591" xlink:href="#m1fddc8dd89" y="445.257932"/>
     <use style="fill:#2792cb;stroke:#2792cb;" x="390.695682" xlink:href="#m1fddc8dd89" y="451.110891"/>
     <use style="fill:#2792cb;stroke:#2792cb;" x="401.263864" xlink:href="#m1fddc8dd89" y="458.134442"/>
     <use style="fill:#2792cb;stroke:#2792cb;" x="406.547955" xlink:href="#m1fddc8dd89" y="459.305033"/>
     <use style="fill:#2792cb;stroke:#2792cb;" x="411.832045" xlink:href="#m1fddc8dd89" y="462.816809"/>
     <use style="fill:#2792cb;stroke:#2792cb;" x="422.400227" xlink:href="#m1fddc8dd89" y="469.840359"/>
     <use style="fill:#2792cb;stroke:#2792cb;" x="427.684318" xlink:href="#m1fddc8dd89" y="468.669767"/>
     <use style="fill:#2792cb;stroke:#2792cb;" x="438.2525" xlink:href="#m1fddc8dd89" y="466.328584"/>
     <use style="fill:#2792cb;stroke:#2792cb;" x="443.536591" xlink:href="#m1fddc8dd89" y="466.328584"/>
     <use style="fill:#2792cb;stroke:#2792cb;" x="454.104773" xlink:href="#m1fddc8dd89" y="467.499176"/>
     <use style="fill:#2792cb;stroke:#2792cb;" x="459.388864" xlink:href="#m1fddc8dd89" y="471.010951"/>
     <use style="fill:#2792cb;stroke:#2792cb;" x="480.525227" xlink:href="#m1fddc8dd89" y="467.499176"/>
     <use style="fill:#2792cb;stroke:#2792cb;" x="485.809318" xlink:href="#m1fddc8dd89" y="469.840359"/>
     <use style="fill:#2792cb;stroke:#2792cb;" x="491.093409" xlink:href="#m1fddc8dd89" y="468.669767"/>
     <use style="fill:#2792cb;stroke:#2792cb;" x="496.3775" xlink:href="#m1fddc8dd89" y="472.181543"/>
     <use style="fill:#2792cb;stroke:#2792cb;" x="501.661591" xlink:href="#m1fddc8dd89" y="472.181543"/>
     <use style="fill:#2792cb;stroke:#2792cb;" x="512.229773" xlink:href="#m1fddc8dd89" y="472.181543"/>
     <use style="fill:#2792cb;stroke:#2792cb;" x="517.513864" xlink:href="#m1fddc8dd89" y="474.522726"/>
     <use style="fill:#2792cb;stroke:#2792cb;" x="522.797955" xlink:href="#m1fddc8dd89" y="472.181543"/>
     <use style="fill:#2792cb;stroke:#2792cb;" x="533.366136" xlink:href="#m1fddc8dd89" y="474.522726"/>
     <use style="fill:#2792cb;stroke:#2792cb;" x="538.650227" xlink:href="#m1fddc8dd89" y="473.352134"/>
     <use style="fill:#2792cb;stroke:#2792cb;" x="549.218409" xlink:href="#m1fddc8dd89" y="473.352134"/>
     <use style="fill:#2792cb;stroke:#2792cb;" x="559.786591" xlink:href="#m1fddc8dd89" y="473.352134"/>
     <use style="fill:#2792cb;stroke:#2792cb;" x="570.354773" xlink:href="#m1fddc8dd89" y="480.375685"/>
     <use style="fill:#2792cb;stroke:#2792cb;" x="575.638864" xlink:href="#m1fddc8dd89" y="479.205093"/>
     <use style="fill:#2792cb;stroke:#2792cb;" x="586.207045" xlink:href="#m1fddc8dd89" y="480.375685"/>
     <use style="fill:#2792cb;stroke:#2792cb;" x="591.491136" xlink:href="#m1fddc8dd89" y="480.375685"/>
     <use style="fill:#2792cb;stroke:#2792cb;" x="596.775227" xlink:href="#m1fddc8dd89" y="482.716868"/>
     <use style="fill:#2792cb;stroke:#2792cb;" x="602.059318" xlink:href="#m1fddc8dd89" y="482.716868"/>
     <use style="fill:#2792cb;stroke:#2792cb;" x="612.6275" xlink:href="#m1fddc8dd89" y="482.716868"/>
     <use style="fill:#2792cb;stroke:#2792cb;" x="623.195682" xlink:href="#m1fddc8dd89" y="482.716868"/>
     <use style="fill:#2792cb;stroke:#2792cb;" x="628.479773" xlink:href="#m1fddc8dd89" y="482.716868"/>
     <use style="fill:#2792cb;stroke:#2792cb;" x="633.763864" xlink:href="#m1fddc8dd89" y="481.546277"/>
     <use style="fill:#2792cb;stroke:#2792cb;" x="639.047955" xlink:href="#m1fddc8dd89" y="480.375685"/>
     <use style="fill:#2792cb;stroke:#2792cb;" x="644.332045" xlink:href="#m1fddc8dd89" y="479.205093"/>
     <use style="fill:#2792cb;stroke:#2792cb;" x="649.616136" xlink:href="#m1fddc8dd89" y="474.522726"/>
     <use style="fill:#2792cb;stroke:#2792cb;" x="665.468409" xlink:href="#m1fddc8dd89" y="474.522726"/>
     <use style="fill:#2792cb;stroke:#2792cb;" x="670.7525" xlink:href="#m1fddc8dd89" y="472.181543"/>
     <use style="fill:#2792cb;stroke:#2792cb;" x="676.036591" xlink:href="#m1fddc8dd89" y="472.181543"/>
     <use style="fill:#2792cb;stroke:#2792cb;" x="681.320682" xlink:href="#m1fddc8dd89" y="472.181543"/>
     <use style="fill:#2792cb;stroke:#2792cb;" x="697.172955" xlink:href="#m1fddc8dd89" y="472.181543"/>
     <use style="fill:#2792cb;stroke:#2792cb;" x="702.457045" xlink:href="#m1fddc8dd89" y="474.522726"/>
     <use style="fill:#2792cb;stroke:#2792cb;" x="707.741136" xlink:href="#m1fddc8dd89" y="475.693318"/>
     <use style="fill:#2792cb;stroke:#2792cb;" x="713.025227" xlink:href="#m1fddc8dd89" y="478.034501"/>
     <use style="fill:#2792cb;stroke:#2792cb;" x="718.309318" xlink:href="#m1fddc8dd89" y="473.352134"/>
     <use style="fill:#2792cb;stroke:#2792cb;" x="734.161591" xlink:href="#m1fddc8dd89" y="473.352134"/>
     <use style="fill:#2792cb;stroke:#2792cb;" x="750.013864" xlink:href="#m1fddc8dd89" y="468.669767"/>
     <use style="fill:#2792cb;stroke:#2792cb;" x="755.297955" xlink:href="#m1fddc8dd89" y="468.669767"/>
     <use style="fill:#2792cb;stroke:#2792cb;" x="771.150227" xlink:href="#m1fddc8dd89" y="454.622666"/>
     <use style="fill:#2792cb;stroke:#2792cb;" x="776.434318" xlink:href="#m1fddc8dd89" y="454.622666"/>
     <use style="fill:#2792cb;stroke:#2792cb;" x="781.718409" xlink:href="#m1fddc8dd89" y="454.622666"/>
     <use style="fill:#2792cb;stroke:#2792cb;" x="787.0025" xlink:href="#m1fddc8dd89" y="451.110891"/>
     <use style="fill:#2792cb;stroke:#2792cb;" x="792.286591" xlink:href="#m1fddc8dd89" y="434.722607"/>
     <use style="fill:#2792cb;stroke:#2792cb;" x="845.1275" xlink:href="#m1fddc8dd89" y="447.599116"/>
     <use style="fill:#2792cb;stroke:#2792cb;" x="850.411591" xlink:href="#m1fddc8dd89" y="456.96385"/>
     <use style="fill:#2792cb;stroke:#2792cb;" x="860.979773" xlink:href="#m1fddc8dd89" y="459.305033"/>
     <use style="fill:#2792cb;stroke:#2792cb;" x="866.263864" xlink:href="#m1fddc8dd89" y="459.305033"/>
     <use style="fill:#2792cb;stroke:#2792cb;" x="882.116136" xlink:href="#m1fddc8dd89" y="459.305033"/>
     <use style="fill:#2792cb;stroke:#2792cb;" x="887.400227" xlink:href="#m1fddc8dd89" y="465.157992"/>
     <use style="fill:#2792cb;stroke:#2792cb;" x="892.684318" xlink:href="#m1fddc8dd89" y="466.328584"/>
     <use style="fill:#2792cb;stroke:#2792cb;" x="897.968409" xlink:href="#m1fddc8dd89" y="468.669767"/>
     <use style="fill:#2792cb;stroke:#2792cb;" x="903.2525" xlink:href="#m1fddc8dd89" y="466.328584"/>
     <use style="fill:#2792cb;stroke:#2792cb;" x="919.104773" xlink:href="#m1fddc8dd89" y="463.9874"/>
     <use style="fill:#2792cb;stroke:#2792cb;" x="924.388864" xlink:href="#m1fddc8dd89" y="466.328584"/>
     <use style="fill:#2792cb;stroke:#2792cb;" x="929.672955" xlink:href="#m1fddc8dd89" y="466.328584"/>
     <use style="fill:#2792cb;stroke:#2792cb;" x="934.957045" xlink:href="#m1fddc8dd89" y="467.499176"/>
     <use style="fill:#2792cb;stroke:#2792cb;" x="940.241136" xlink:href="#m1fddc8dd89" y="468.669767"/>
     <use style="fill:#2792cb;stroke:#2792cb;" x="956.093409" xlink:href="#m1fddc8dd89" y="468.669767"/>
     <use style="fill:#2792cb;stroke:#2792cb;" x="961.3775" xlink:href="#m1fddc8dd89" y="467.499176"/>
     <use style="fill:#2792cb;stroke:#2792cb;" x="966.661591" xlink:href="#m1fddc8dd89" y="466.328584"/>
     <use style="fill:#2792cb;stroke:#2792cb;" x="971.945682" xlink:href="#m1fddc8dd89" y="469.840359"/>
     <use style="fill:#2792cb;stroke:#2792cb;" x="977.229773" xlink:href="#m1fddc8dd89" y="467.499176"/>
     <use style="fill:#2792cb;stroke:#2792cb;" x="993.082045" xlink:href="#m1fddc8dd89" y="468.669767"/>
     <use style="fill:#2792cb;stroke:#2792cb;" x="998.366136" xlink:href="#m1fddc8dd89" y="471.010951"/>
     <use style="fill:#2792cb;stroke:#2792cb;" x="1003.650227" xlink:href="#m1fddc8dd89" y="465.157992"/>
     <use style="fill:#2792cb;stroke:#2792cb;" x="1008.934318" xlink:href="#m1fddc8dd89" y="465.157992"/>
     <use style="fill:#2792cb;stroke:#2792cb;" x="1014.218409" xlink:href="#m1fddc8dd89" y="468.669767"/>
     <use style="fill:#2792cb;stroke:#2792cb;" x="1030.070682" xlink:href="#m1fddc8dd89" y="467.499176"/>
     <use style="fill:#2792cb;stroke:#2792cb;" x="1035.354773" xlink:href="#m1fddc8dd89" y="466.328584"/>
     <use style="fill:#2792cb;stroke:#2792cb;" x="1040.638864" xlink:href="#m1fddc8dd89" y="466.328584"/>
     <use style="fill:#2792cb;stroke:#2792cb;" x="1045.922955" xlink:href="#m1fddc8dd89" y="469.840359"/>
     <use style="fill:#2792cb;stroke:#2792cb;" x="1051.207045" xlink:href="#m1fddc8dd89" y="469.840359"/>
     <use style="fill:#2792cb;stroke:#2792cb;" x="1067.059318" xlink:href="#m1fddc8dd89" y="462.816809"/>
     <use style="fill:#2792cb;stroke:#2792cb;" x="1072.343409" xlink:href="#m1fddc8dd89" y="462.816809"/>
     <use style="fill:#2792cb;stroke:#2792cb;" x="1077.6275" xlink:href="#m1fddc8dd89" y="463.9874"/>
     <use style="fill:#2792cb;stroke:#2792cb;" x="1082.911591" xlink:href="#m1fddc8dd89" y="465.157992"/>
     <use style="fill:#2792cb;stroke:#2792cb;" x="1088.195682" xlink:href="#m1fddc8dd89" y="459.305033"/>
     <use style="fill:#2792cb;stroke:#2792cb;" x="1104.047955" xlink:href="#m1fddc8dd89" y="448.769708"/>
     <use style="fill:#2792cb;stroke:#2792cb;" x="1109.332045" xlink:href="#m1fddc8dd89" y="451.110891"/>
     <use style="fill:#2792cb;stroke:#2792cb;" x="1114.616136" xlink:href="#m1fddc8dd89" y="442.916749"/>
     <use style="fill:#2792cb;stroke:#2792cb;" x="1119.900227" xlink:href="#m1fddc8dd89" y="438.234382"/>
    </g>
   </g>
   <g id="patch_3">
    <path d="M 54.6275 501.738984 
L 1170.6275 501.738984 
" style="fill:none;stroke:#000000;stroke-linecap:square;stroke-linejoin:miter;stroke-width:0.8;"/>
   </g>
   <g id="legend_1">
    <g id="line2d_20">
     <path d="M 1083.382188 25.237422 
L 1103.382188 25.237422 
" style="fill:none;stroke:#dbcd00;stroke-linecap:square;stroke-width:2;"/>
    </g>
    <g id="line2d_21">
     <g>
      <use style="fill:#dbcd00;stroke:#dbcd00;" x="1093.382188" xlink:href="#mb057ce40f9" y="25.237422"/>
     </g>
    </g>
    <g id="text_14">
     <!-- Genesene -->
     <defs>
      <path d="M 59.515625 10.40625 
L 59.515625 29.984375 
L 43.40625 29.984375 
L 43.40625 38.09375 
L 69.28125 38.09375 
L 69.28125 6.78125 
Q 63.578125 2.734375 56.6875 0.65625 
Q 49.8125 -1.421875 42 -1.421875 
Q 24.90625 -1.421875 15.25 8.5625 
Q 5.609375 18.5625 5.609375 36.375 
Q 5.609375 54.25 15.25 64.234375 
Q 24.90625 74.21875 42 74.21875 
Q 49.125 74.21875 55.546875 72.453125 
Q 61.96875 70.703125 67.390625 67.28125 
L 67.390625 56.78125 
Q 61.921875 61.421875 55.765625 63.765625 
Q 49.609375 66.109375 42.828125 66.109375 
Q 29.4375 66.109375 22.71875 58.640625 
Q 16.015625 51.171875 16.015625 36.375 
Q 16.015625 21.625 22.71875 14.15625 
Q 29.4375 6.6875 42.828125 6.6875 
Q 48.046875 6.6875 52.140625 7.59375 
Q 56.25 8.5 59.515625 10.40625 
z
" id="DejaVuSans-71"/>
      <path d="M 44.28125 53.078125 
L 44.28125 44.578125 
Q 40.484375 46.53125 36.375 47.5 
Q 32.28125 48.484375 27.875 48.484375 
Q 21.1875 48.484375 17.84375 46.4375 
Q 14.5 44.390625 14.5 40.28125 
Q 14.5 37.15625 16.890625 35.375 
Q 19.28125 33.59375 26.515625 31.984375 
L 29.59375 31.296875 
Q 39.15625 29.25 43.1875 25.515625 
Q 47.21875 21.78125 47.21875 15.09375 
Q 47.21875 7.46875 41.1875 3.015625 
Q 35.15625 -1.421875 24.609375 -1.421875 
Q 20.21875 -1.421875 15.453125 -0.5625 
Q 10.6875 0.296875 5.421875 2 
L 5.421875 11.28125 
Q 10.40625 8.6875 15.234375 7.390625 
Q 20.0625 6.109375 24.8125 6.109375 
Q 31.15625 6.109375 34.5625 8.28125 
Q 37.984375 10.453125 37.984375 14.40625 
Q 37.984375 18.0625 35.515625 20.015625 
Q 33.0625 21.96875 24.703125 23.78125 
L 21.578125 24.515625 
Q 13.234375 26.265625 9.515625 29.90625 
Q 5.8125 33.546875 5.8125 39.890625 
Q 5.8125 47.609375 11.28125 51.796875 
Q 16.75 56 26.8125 56 
Q 31.78125 56 36.171875 55.265625 
Q 40.578125 54.546875 44.28125 53.078125 
z
" id="DejaVuSans-115"/>
     </defs>
     <g transform="translate(1111.382188 28.737422)scale(0.1 -0.1)">
      <use xlink:href="#DejaVuSans-71"/>
      <use x="77.490234" xlink:href="#DejaVuSans-101"/>
      <use x="139.013672" xlink:href="#DejaVuSans-110"/>
      <use x="202.392578" xlink:href="#DejaVuSans-101"/>
      <use x="263.916016" xlink:href="#DejaVuSans-115"/>
      <use x="316.015625" xlink:href="#DejaVuSans-101"/>
      <use x="377.539062" xlink:href="#DejaVuSans-110"/>
      <use x="440.917969" xlink:href="#DejaVuSans-101"/>
     </g>
    </g>
    <g id="line2d_22">
     <path d="M 1083.382188 39.915547 
L 1103.382188 39.915547 
" style="fill:none;stroke:#2792cb;stroke-linecap:square;stroke-width:2;"/>
    </g>
    <g id="line2d_23">
     <g>
      <use style="fill:#2792cb;stroke:#2792cb;" x="1093.382188" xlink:href="#m1fddc8dd89" y="39.915547"/>
     </g>
    </g>
    <g id="text_15">
     <!-- Erkrankte -->
     <defs>
      <path d="M 9.8125 72.90625 
L 55.90625 72.90625 
L 55.90625 64.59375 
L 19.671875 64.59375 
L 19.671875 43.015625 
L 54.390625 43.015625 
L 54.390625 34.71875 
L 19.671875 34.71875 
L 19.671875 8.296875 
L 56.78125 8.296875 
L 56.78125 0 
L 9.8125 0 
z
" id="DejaVuSans-69"/>
      <path d="M 41.109375 46.296875 
Q 39.59375 47.171875 37.8125 47.578125 
Q 36.03125 48 33.890625 48 
Q 26.265625 48 22.1875 43.046875 
Q 18.109375 38.09375 18.109375 28.8125 
L 18.109375 0 
L 9.078125 0 
L 9.078125 54.6875 
L 18.109375 54.6875 
L 18.109375 46.1875 
Q 20.953125 51.171875 25.484375 53.578125 
Q 30.03125 56 36.53125 56 
Q 37.453125 56 38.578125 55.875 
Q 39.703125 55.765625 41.0625 55.515625 
z
" id="DejaVuSans-114"/>
      <path d="M 9.078125 75.984375 
L 18.109375 75.984375 
L 18.109375 31.109375 
L 44.921875 54.6875 
L 56.390625 54.6875 
L 27.390625 29.109375 
L 57.625 0 
L 45.90625 0 
L 18.109375 26.703125 
L 18.109375 0 
L 9.078125 0 
z
" id="DejaVuSans-107"/>
      <path d="M 18.3125 70.21875 
L 18.3125 54.6875 
L 36.8125 54.6875 
L 36.8125 47.703125 
L 18.3125 47.703125 
L 18.3125 18.015625 
Q 18.3125 11.328125 20.140625 9.421875 
Q 21.96875 7.515625 27.59375 7.515625 
L 36.8125 7.515625 
L 36.8125 0 
L 27.59375 0 
Q 17.1875 0 13.234375 3.875 
Q 9.28125 7.765625 9.28125 18.015625 
L 9.28125 47.703125 
L 2.6875 47.703125 
L 2.6875 54.6875 
L 9.28125 54.6875 
L 9.28125 70.21875 
z
" id="DejaVuSans-116"/>
     </defs>
     <g transform="translate(1111.382188 43.415547)scale(0.1 -0.1)">
      <use xlink:href="#DejaVuSans-69"/>
      <use x="63.183594" xlink:href="#DejaVuSans-114"/>
      <use x="104.296875" xlink:href="#DejaVuSans-107"/>
      <use x="162.207031" xlink:href="#DejaVuSans-114"/>
      <use x="203.320312" xlink:href="#DejaVuSans-97"/>
      <use x="264.599609" xlink:href="#DejaVuSans-110"/>
      <use x="327.978516" xlink:href="#DejaVuSans-107"/>
      <use x="385.888672" xlink:href="#DejaVuSans-116"/>
      <use x="425.097656" xlink:href="#DejaVuSans-101"/>
     </g>
    </g>
   </g>
  </g>
 </g>
 <defs>
  <clipPath id="p02adcd668e">
   <rect height="489.6" width="1116" x="54.6275" y="12.138984"/>
  </clipPath>
 </defs>
</svg>
