<?xml version="1.0" encoding="utf-8" standalone="no"?>
<!DOCTYPE svg PUBLIC "-//W3C//DTD SVG 1.1//EN"
  "http://www.w3.org/Graphics/SVG/1.1/DTD/svg11.dtd">
<!-- Created with matplotlib (https://matplotlib.org/) -->
<svg height="553.993765pt" version="1.1" viewBox="0 0 1186.09875 553.993765" width="1186.09875pt" xmlns="http://www.w3.org/2000/svg" xmlns:xlink="http://www.w3.org/1999/xlink">
 <defs>
  <style type="text/css">
*{stroke-linecap:butt;stroke-linejoin:round;}
  </style>
 </defs>
 <g id="figure_1">
  <g id="patch_1">
   <path d="M 0 553.993765 
L 1186.09875 553.993765 
L 1186.09875 0 
L 0 0 
z
" style="fill:#ffffff;"/>
  </g>
  <g id="axes_1">
   <g id="patch_2">
    <path d="M 62.89875 501.738984 
L 1178.89875 501.738984 
L 1178.89875 12.138984 
L 62.89875 12.138984 
z
" style="fill:#ffffff;"/>
   </g>
   <g id="matplotlib.axis_1">
    <g id="xtick_1">
     <g id="line2d_1">
      <defs>
       <path d="M 0 0 
L 0 3.5 
" id="m504dcabd7f" style="stroke:#000000;stroke-width:0.8;"/>
      </defs>
      <g>
       <use style="stroke:#000000;stroke-width:0.8;" x="191.916091" xlink:href="#m504dcabd7f" y="501.738984"/>
      </g>
     </g>
     <g id="text_1">
      <!-- 2020-04 -->
      <defs>
       <path d="M 19.1875 8.296875 
L 53.609375 8.296875 
L 53.609375 0 
L 7.328125 0 
L 7.328125 8.296875 
Q 12.9375 14.109375 22.625 23.890625 
Q 32.328125 33.6875 34.8125 36.53125 
Q 39.546875 41.84375 41.421875 45.53125 
Q 43.3125 49.21875 43.3125 52.78125 
Q 43.3125 58.59375 39.234375 62.25 
Q 35.15625 65.921875 28.609375 65.921875 
Q 23.96875 65.921875 18.8125 64.3125 
Q 13.671875 62.703125 7.8125 59.421875 
L 7.8125 69.390625 
Q 13.765625 71.78125 18.9375 73 
Q 24.125 74.21875 28.421875 74.21875 
Q 39.75 74.21875 46.484375 68.546875 
Q 53.21875 62.890625 53.21875 53.421875 
Q 53.21875 48.921875 51.53125 44.890625 
Q 49.859375 40.875 45.40625 35.40625 
Q 44.1875 33.984375 37.640625 27.21875 
Q 31.109375 20.453125 19.1875 8.296875 
z
" id="DejaVuSans-50"/>
       <path d="M 31.78125 66.40625 
Q 24.171875 66.40625 20.328125 58.90625 
Q 16.5 51.421875 16.5 36.375 
Q 16.5 21.390625 20.328125 13.890625 
Q 24.171875 6.390625 31.78125 6.390625 
Q 39.453125 6.390625 43.28125 13.890625 
Q 47.125 21.390625 47.125 36.375 
Q 47.125 51.421875 43.28125 58.90625 
Q 39.453125 66.40625 31.78125 66.40625 
z
M 31.78125 74.21875 
Q 44.046875 74.21875 50.515625 64.515625 
Q 56.984375 54.828125 56.984375 36.375 
Q 56.984375 17.96875 50.515625 8.265625 
Q 44.046875 -1.421875 31.78125 -1.421875 
Q 19.53125 -1.421875 13.0625 8.265625 
Q 6.59375 17.96875 6.59375 36.375 
Q 6.59375 54.828125 13.0625 64.515625 
Q 19.53125 74.21875 31.78125 74.21875 
z
" id="DejaVuSans-48"/>
       <path d="M 4.890625 31.390625 
L 31.203125 31.390625 
L 31.203125 23.390625 
L 4.890625 23.390625 
z
" id="DejaVuSans-45"/>
       <path d="M 37.796875 64.3125 
L 12.890625 25.390625 
L 37.796875 25.390625 
z
M 35.203125 72.90625 
L 47.609375 72.90625 
L 47.609375 25.390625 
L 58.015625 25.390625 
L 58.015625 17.1875 
L 47.609375 17.1875 
L 47.609375 0 
L 37.796875 0 
L 37.796875 17.1875 
L 4.890625 17.1875 
L 4.890625 26.703125 
z
" id="DejaVuSans-52"/>
      </defs>
      <g transform="translate(143.523824 544.452384)rotate(-30)scale(0.13 -0.13)">
       <use xlink:href="#DejaVuSans-50"/>
       <use x="63.623047" xlink:href="#DejaVuSans-48"/>
       <use x="127.246094" xlink:href="#DejaVuSans-50"/>
       <use x="190.869141" xlink:href="#DejaVuSans-48"/>
       <use x="254.492188" xlink:href="#DejaVuSans-45"/>
       <use x="290.576172" xlink:href="#DejaVuSans-48"/>
       <use x="354.199219" xlink:href="#DejaVuSans-52"/>
      </g>
     </g>
    </g>
    <g id="xtick_2">
     <g id="line2d_2">
      <g>
       <use style="stroke:#000000;stroke-width:0.8;" x="385.442103" xlink:href="#m504dcabd7f" y="501.738984"/>
      </g>
     </g>
     <g id="text_2">
      <!-- 2020-05 -->
      <defs>
       <path d="M 10.796875 72.90625 
L 49.515625 72.90625 
L 49.515625 64.59375 
L 19.828125 64.59375 
L 19.828125 46.734375 
Q 21.96875 47.46875 24.109375 47.828125 
Q 26.265625 48.1875 28.421875 48.1875 
Q 40.625 48.1875 47.75 41.5 
Q 54.890625 34.8125 54.890625 23.390625 
Q 54.890625 11.625 47.5625 5.09375 
Q 40.234375 -1.421875 26.90625 -1.421875 
Q 22.3125 -1.421875 17.546875 -0.640625 
Q 12.796875 0.140625 7.71875 1.703125 
L 7.71875 11.625 
Q 12.109375 9.234375 16.796875 8.0625 
Q 21.484375 6.890625 26.703125 6.890625 
Q 35.15625 6.890625 40.078125 11.328125 
Q 45.015625 15.765625 45.015625 23.390625 
Q 45.015625 31 40.078125 35.4375 
Q 35.15625 39.890625 26.703125 39.890625 
Q 22.75 39.890625 18.8125 39.015625 
Q 14.890625 38.140625 10.796875 36.28125 
z
" id="DejaVuSans-53"/>
      </defs>
      <g transform="translate(337.049836 544.452384)rotate(-30)scale(0.13 -0.13)">
       <use xlink:href="#DejaVuSans-50"/>
       <use x="63.623047" xlink:href="#DejaVuSans-48"/>
       <use x="127.246094" xlink:href="#DejaVuSans-50"/>
       <use x="190.869141" xlink:href="#DejaVuSans-48"/>
       <use x="254.492188" xlink:href="#DejaVuSans-45"/>
       <use x="290.576172" xlink:href="#DejaVuSans-48"/>
       <use x="354.199219" xlink:href="#DejaVuSans-53"/>
      </g>
     </g>
    </g>
    <g id="xtick_3">
     <g id="line2d_3">
      <g>
       <use style="stroke:#000000;stroke-width:0.8;" x="585.418981" xlink:href="#m504dcabd7f" y="501.738984"/>
      </g>
     </g>
     <g id="text_3">
      <!-- 2020-06 -->
      <defs>
       <path d="M 33.015625 40.375 
Q 26.375 40.375 22.484375 35.828125 
Q 18.609375 31.296875 18.609375 23.390625 
Q 18.609375 15.53125 22.484375 10.953125 
Q 26.375 6.390625 33.015625 6.390625 
Q 39.65625 6.390625 43.53125 10.953125 
Q 47.40625 15.53125 47.40625 23.390625 
Q 47.40625 31.296875 43.53125 35.828125 
Q 39.65625 40.375 33.015625 40.375 
z
M 52.59375 71.296875 
L 52.59375 62.3125 
Q 48.875 64.0625 45.09375 64.984375 
Q 41.3125 65.921875 37.59375 65.921875 
Q 27.828125 65.921875 22.671875 59.328125 
Q 17.53125 52.734375 16.796875 39.40625 
Q 19.671875 43.65625 24.015625 45.921875 
Q 28.375 48.1875 33.59375 48.1875 
Q 44.578125 48.1875 50.953125 41.515625 
Q 57.328125 34.859375 57.328125 23.390625 
Q 57.328125 12.15625 50.6875 5.359375 
Q 44.046875 -1.421875 33.015625 -1.421875 
Q 20.359375 -1.421875 13.671875 8.265625 
Q 6.984375 17.96875 6.984375 36.375 
Q 6.984375 53.65625 15.1875 63.9375 
Q 23.390625 74.21875 37.203125 74.21875 
Q 40.921875 74.21875 44.703125 73.484375 
Q 48.484375 72.75 52.59375 71.296875 
z
" id="DejaVuSans-54"/>
      </defs>
      <g transform="translate(537.026714 544.452384)rotate(-30)scale(0.13 -0.13)">
       <use xlink:href="#DejaVuSans-50"/>
       <use x="63.623047" xlink:href="#DejaVuSans-48"/>
       <use x="127.246094" xlink:href="#DejaVuSans-50"/>
       <use x="190.869141" xlink:href="#DejaVuSans-48"/>
       <use x="254.492188" xlink:href="#DejaVuSans-45"/>
       <use x="290.576172" xlink:href="#DejaVuSans-48"/>
       <use x="354.199219" xlink:href="#DejaVuSans-54"/>
      </g>
     </g>
    </g>
    <g id="xtick_4">
     <g id="line2d_4">
      <g>
       <use style="stroke:#000000;stroke-width:0.8;" x="778.944993" xlink:href="#m504dcabd7f" y="501.738984"/>
      </g>
     </g>
     <g id="text_4">
      <!-- 2020-07 -->
      <defs>
       <path d="M 8.203125 72.90625 
L 55.078125 72.90625 
L 55.078125 68.703125 
L 28.609375 0 
L 18.3125 0 
L 43.21875 64.59375 
L 8.203125 64.59375 
z
" id="DejaVuSans-55"/>
      </defs>
      <g transform="translate(730.552726 544.452384)rotate(-30)scale(0.13 -0.13)">
       <use xlink:href="#DejaVuSans-50"/>
       <use x="63.623047" xlink:href="#DejaVuSans-48"/>
       <use x="127.246094" xlink:href="#DejaVuSans-50"/>
       <use x="190.869141" xlink:href="#DejaVuSans-48"/>
       <use x="254.492188" xlink:href="#DejaVuSans-45"/>
       <use x="290.576172" xlink:href="#DejaVuSans-48"/>
       <use x="354.199219" xlink:href="#DejaVuSans-55"/>
      </g>
     </g>
    </g>
    <g id="xtick_5">
     <g id="line2d_5">
      <g>
       <use style="stroke:#000000;stroke-width:0.8;" x="978.921871" xlink:href="#m504dcabd7f" y="501.738984"/>
      </g>
     </g>
     <g id="text_5">
      <!-- 2020-08 -->
      <defs>
       <path d="M 31.78125 34.625 
Q 24.75 34.625 20.71875 30.859375 
Q 16.703125 27.09375 16.703125 20.515625 
Q 16.703125 13.921875 20.71875 10.15625 
Q 24.75 6.390625 31.78125 6.390625 
Q 38.8125 6.390625 42.859375 10.171875 
Q 46.921875 13.96875 46.921875 20.515625 
Q 46.921875 27.09375 42.890625 30.859375 
Q 38.875 34.625 31.78125 34.625 
z
M 21.921875 38.8125 
Q 15.578125 40.375 12.03125 44.71875 
Q 8.5 49.078125 8.5 55.328125 
Q 8.5 64.0625 14.71875 69.140625 
Q 20.953125 74.21875 31.78125 74.21875 
Q 42.671875 74.21875 48.875 69.140625 
Q 55.078125 64.0625 55.078125 55.328125 
Q 55.078125 49.078125 51.53125 44.71875 
Q 48 40.375 41.703125 38.8125 
Q 48.828125 37.15625 52.796875 32.3125 
Q 56.78125 27.484375 56.78125 20.515625 
Q 56.78125 9.90625 50.3125 4.234375 
Q 43.84375 -1.421875 31.78125 -1.421875 
Q 19.734375 -1.421875 13.25 4.234375 
Q 6.78125 9.90625 6.78125 20.515625 
Q 6.78125 27.484375 10.78125 32.3125 
Q 14.796875 37.15625 21.921875 38.8125 
z
M 18.3125 54.390625 
Q 18.3125 48.734375 21.84375 45.5625 
Q 25.390625 42.390625 31.78125 42.390625 
Q 38.140625 42.390625 41.71875 45.5625 
Q 45.3125 48.734375 45.3125 54.390625 
Q 45.3125 60.0625 41.71875 63.234375 
Q 38.140625 66.40625 31.78125 66.40625 
Q 25.390625 66.40625 21.84375 63.234375 
Q 18.3125 60.0625 18.3125 54.390625 
z
" id="DejaVuSans-56"/>
      </defs>
      <g transform="translate(930.529604 544.452384)rotate(-30)scale(0.13 -0.13)">
       <use xlink:href="#DejaVuSans-50"/>
       <use x="63.623047" xlink:href="#DejaVuSans-48"/>
       <use x="127.246094" xlink:href="#DejaVuSans-50"/>
       <use x="190.869141" xlink:href="#DejaVuSans-48"/>
       <use x="254.492188" xlink:href="#DejaVuSans-45"/>
       <use x="290.576172" xlink:href="#DejaVuSans-48"/>
       <use x="354.199219" xlink:href="#DejaVuSans-56"/>
      </g>
     </g>
    </g>
    <g id="xtick_6">
     <g id="line2d_6">
      <g>
       <use style="stroke:#000000;stroke-width:0.8;" x="1178.89875" xlink:href="#m504dcabd7f" y="501.738984"/>
      </g>
     </g>
     <g id="text_6">
      <!-- 2020-09 -->
      <defs>
       <path d="M 10.984375 1.515625 
L 10.984375 10.5 
Q 14.703125 8.734375 18.5 7.8125 
Q 22.3125 6.890625 25.984375 6.890625 
Q 35.75 6.890625 40.890625 13.453125 
Q 46.046875 20.015625 46.78125 33.40625 
Q 43.953125 29.203125 39.59375 26.953125 
Q 35.25 24.703125 29.984375 24.703125 
Q 19.046875 24.703125 12.671875 31.3125 
Q 6.296875 37.9375 6.296875 49.421875 
Q 6.296875 60.640625 12.9375 67.421875 
Q 19.578125 74.21875 30.609375 74.21875 
Q 43.265625 74.21875 49.921875 64.515625 
Q 56.59375 54.828125 56.59375 36.375 
Q 56.59375 19.140625 48.40625 8.859375 
Q 40.234375 -1.421875 26.421875 -1.421875 
Q 22.703125 -1.421875 18.890625 -0.6875 
Q 15.09375 0.046875 10.984375 1.515625 
z
M 30.609375 32.421875 
Q 37.25 32.421875 41.125 36.953125 
Q 45.015625 41.5 45.015625 49.421875 
Q 45.015625 57.28125 41.125 61.84375 
Q 37.25 66.40625 30.609375 66.40625 
Q 23.96875 66.40625 20.09375 61.84375 
Q 16.21875 57.28125 16.21875 49.421875 
Q 16.21875 41.5 20.09375 36.953125 
Q 23.96875 32.421875 30.609375 32.421875 
z
" id="DejaVuSans-57"/>
      </defs>
      <g transform="translate(1130.506483 544.452384)rotate(-30)scale(0.13 -0.13)">
       <use xlink:href="#DejaVuSans-50"/>
       <use x="63.623047" xlink:href="#DejaVuSans-48"/>
       <use x="127.246094" xlink:href="#DejaVuSans-50"/>
       <use x="190.869141" xlink:href="#DejaVuSans-48"/>
       <use x="254.492188" xlink:href="#DejaVuSans-45"/>
       <use x="290.576172" xlink:href="#DejaVuSans-48"/>
       <use x="354.199219" xlink:href="#DejaVuSans-57"/>
      </g>
     </g>
    </g>
   </g>
   <g id="matplotlib.axis_2">
    <g id="ytick_1">
     <g id="line2d_7">
      <path clip-path="url(#p6fe0a1e740)" d="M 62.89875 480.466125 
L 1178.89875 480.466125 
" style="fill:none;stroke:#b0b0b0;stroke-linecap:square;stroke-width:0.8;"/>
     </g>
     <g id="line2d_8">
      <defs>
       <path d="M 0 0 
L -3.5 0 
" id="mdf632dd38e" style="stroke:#000000;stroke-width:0.8;"/>
      </defs>
      <g>
       <use style="stroke:#000000;stroke-width:0.8;" x="62.89875" xlink:href="#mdf632dd38e" y="480.466125"/>
      </g>
     </g>
     <g id="text_7">
      <!-- 0 -->
      <g transform="translate(47.6275 485.405109)scale(0.13 -0.13)">
       <use xlink:href="#DejaVuSans-48"/>
      </g>
     </g>
    </g>
    <g id="ytick_2">
     <g id="line2d_9">
      <path clip-path="url(#p6fe0a1e740)" d="M 62.89875 444.44096 
L 1178.89875 444.44096 
" style="fill:none;stroke:#b0b0b0;stroke-linecap:square;stroke-width:0.8;"/>
     </g>
     <g id="line2d_10">
      <g>
       <use style="stroke:#000000;stroke-width:0.8;" x="62.89875" xlink:href="#mdf632dd38e" y="444.44096"/>
      </g>
     </g>
     <g id="text_8">
      <!-- 100 -->
      <defs>
       <path d="M 12.40625 8.296875 
L 28.515625 8.296875 
L 28.515625 63.921875 
L 10.984375 60.40625 
L 10.984375 69.390625 
L 28.421875 72.90625 
L 38.28125 72.90625 
L 38.28125 8.296875 
L 54.390625 8.296875 
L 54.390625 0 
L 12.40625 0 
z
" id="DejaVuSans-49"/>
      </defs>
      <g transform="translate(31.085 449.379944)scale(0.13 -0.13)">
       <use xlink:href="#DejaVuSans-49"/>
       <use x="63.623047" xlink:href="#DejaVuSans-48"/>
       <use x="127.246094" xlink:href="#DejaVuSans-48"/>
      </g>
     </g>
    </g>
    <g id="ytick_3">
     <g id="line2d_11">
      <path clip-path="url(#p6fe0a1e740)" d="M 62.89875 408.415795 
L 1178.89875 408.415795 
" style="fill:none;stroke:#b0b0b0;stroke-linecap:square;stroke-width:0.8;"/>
     </g>
     <g id="line2d_12">
      <g>
       <use style="stroke:#000000;stroke-width:0.8;" x="62.89875" xlink:href="#mdf632dd38e" y="408.415795"/>
      </g>
     </g>
     <g id="text_9">
      <!-- 200 -->
      <g transform="translate(31.085 413.35478)scale(0.13 -0.13)">
       <use xlink:href="#DejaVuSans-50"/>
       <use x="63.623047" xlink:href="#DejaVuSans-48"/>
       <use x="127.246094" xlink:href="#DejaVuSans-48"/>
      </g>
     </g>
    </g>
    <g id="ytick_4">
     <g id="line2d_13">
      <path clip-path="url(#p6fe0a1e740)" d="M 62.89875 372.390631 
L 1178.89875 372.390631 
" style="fill:none;stroke:#b0b0b0;stroke-linecap:square;stroke-width:0.8;"/>
     </g>
     <g id="line2d_14">
      <g>
       <use style="stroke:#000000;stroke-width:0.8;" x="62.89875" xlink:href="#mdf632dd38e" y="372.390631"/>
      </g>
     </g>
     <g id="text_10">
      <!-- 300 -->
      <defs>
       <path d="M 40.578125 39.3125 
Q 47.65625 37.796875 51.625 33 
Q 55.609375 28.21875 55.609375 21.1875 
Q 55.609375 10.40625 48.1875 4.484375 
Q 40.765625 -1.421875 27.09375 -1.421875 
Q 22.515625 -1.421875 17.65625 -0.515625 
Q 12.796875 0.390625 7.625 2.203125 
L 7.625 11.71875 
Q 11.71875 9.328125 16.59375 8.109375 
Q 21.484375 6.890625 26.8125 6.890625 
Q 36.078125 6.890625 40.9375 10.546875 
Q 45.796875 14.203125 45.796875 21.1875 
Q 45.796875 27.640625 41.28125 31.265625 
Q 36.765625 34.90625 28.71875 34.90625 
L 20.21875 34.90625 
L 20.21875 43.015625 
L 29.109375 43.015625 
Q 36.375 43.015625 40.234375 45.921875 
Q 44.09375 48.828125 44.09375 54.296875 
Q 44.09375 59.90625 40.109375 62.90625 
Q 36.140625 65.921875 28.71875 65.921875 
Q 24.65625 65.921875 20.015625 65.03125 
Q 15.375 64.15625 9.8125 62.3125 
L 9.8125 71.09375 
Q 15.4375 72.65625 20.34375 73.4375 
Q 25.25 74.21875 29.59375 74.21875 
Q 40.828125 74.21875 47.359375 69.109375 
Q 53.90625 64.015625 53.90625 55.328125 
Q 53.90625 49.265625 50.4375 45.09375 
Q 46.96875 40.921875 40.578125 39.3125 
z
" id="DejaVuSans-51"/>
      </defs>
      <g transform="translate(31.085 377.329615)scale(0.13 -0.13)">
       <use xlink:href="#DejaVuSans-51"/>
       <use x="63.623047" xlink:href="#DejaVuSans-48"/>
       <use x="127.246094" xlink:href="#DejaVuSans-48"/>
      </g>
     </g>
    </g>
    <g id="ytick_5">
     <g id="line2d_15">
      <path clip-path="url(#p6fe0a1e740)" d="M 62.89875 336.365466 
L 1178.89875 336.365466 
" style="fill:none;stroke:#b0b0b0;stroke-linecap:square;stroke-width:0.8;"/>
     </g>
     <g id="line2d_16">
      <g>
       <use style="stroke:#000000;stroke-width:0.8;" x="62.89875" xlink:href="#mdf632dd38e" y="336.365466"/>
      </g>
     </g>
     <g id="text_11">
      <!-- 400 -->
      <g transform="translate(31.085 341.30445)scale(0.13 -0.13)">
       <use xlink:href="#DejaVuSans-52"/>
       <use x="63.623047" xlink:href="#DejaVuSans-48"/>
       <use x="127.246094" xlink:href="#DejaVuSans-48"/>
      </g>
     </g>
    </g>
    <g id="ytick_6">
     <g id="line2d_17">
      <path clip-path="url(#p6fe0a1e740)" d="M 62.89875 300.340301 
L 1178.89875 300.340301 
" style="fill:none;stroke:#b0b0b0;stroke-linecap:square;stroke-width:0.8;"/>
     </g>
     <g id="line2d_18">
      <g>
       <use style="stroke:#000000;stroke-width:0.8;" x="62.89875" xlink:href="#mdf632dd38e" y="300.340301"/>
      </g>
     </g>
     <g id="text_12">
      <!-- 500 -->
      <g transform="translate(31.085 305.279286)scale(0.13 -0.13)">
       <use xlink:href="#DejaVuSans-53"/>
       <use x="63.623047" xlink:href="#DejaVuSans-48"/>
       <use x="127.246094" xlink:href="#DejaVuSans-48"/>
      </g>
     </g>
    </g>
    <g id="ytick_7">
     <g id="line2d_19">
      <path clip-path="url(#p6fe0a1e740)" d="M 62.89875 264.315137 
L 1178.89875 264.315137 
" style="fill:none;stroke:#b0b0b0;stroke-linecap:square;stroke-width:0.8;"/>
     </g>
     <g id="line2d_20">
      <g>
       <use style="stroke:#000000;stroke-width:0.8;" x="62.89875" xlink:href="#mdf632dd38e" y="264.315137"/>
      </g>
     </g>
     <g id="text_13">
      <!-- 600 -->
      <g transform="translate(31.085 269.254121)scale(0.13 -0.13)">
       <use xlink:href="#DejaVuSans-54"/>
       <use x="63.623047" xlink:href="#DejaVuSans-48"/>
       <use x="127.246094" xlink:href="#DejaVuSans-48"/>
      </g>
     </g>
    </g>
    <g id="ytick_8">
     <g id="line2d_21">
      <path clip-path="url(#p6fe0a1e740)" d="M 62.89875 228.289972 
L 1178.89875 228.289972 
" style="fill:none;stroke:#b0b0b0;stroke-linecap:square;stroke-width:0.8;"/>
     </g>
     <g id="line2d_22">
      <g>
       <use style="stroke:#000000;stroke-width:0.8;" x="62.89875" xlink:href="#mdf632dd38e" y="228.289972"/>
      </g>
     </g>
     <g id="text_14">
      <!-- 700 -->
      <g transform="translate(31.085 233.228957)scale(0.13 -0.13)">
       <use xlink:href="#DejaVuSans-55"/>
       <use x="63.623047" xlink:href="#DejaVuSans-48"/>
       <use x="127.246094" xlink:href="#DejaVuSans-48"/>
      </g>
     </g>
    </g>
    <g id="ytick_9">
     <g id="line2d_23">
      <path clip-path="url(#p6fe0a1e740)" d="M 62.89875 192.264808 
L 1178.89875 192.264808 
" style="fill:none;stroke:#b0b0b0;stroke-linecap:square;stroke-width:0.8;"/>
     </g>
     <g id="line2d_24">
      <g>
       <use style="stroke:#000000;stroke-width:0.8;" x="62.89875" xlink:href="#mdf632dd38e" y="192.264808"/>
      </g>
     </g>
     <g id="text_15">
      <!-- 800 -->
      <g transform="translate(31.085 197.203792)scale(0.13 -0.13)">
       <use xlink:href="#DejaVuSans-56"/>
       <use x="63.623047" xlink:href="#DejaVuSans-48"/>
       <use x="127.246094" xlink:href="#DejaVuSans-48"/>
      </g>
     </g>
    </g>
    <g id="ytick_10">
     <g id="line2d_25">
      <path clip-path="url(#p6fe0a1e740)" d="M 62.89875 156.239643 
L 1178.89875 156.239643 
" style="fill:none;stroke:#b0b0b0;stroke-linecap:square;stroke-width:0.8;"/>
     </g>
     <g id="line2d_26">
      <g>
       <use style="stroke:#000000;stroke-width:0.8;" x="62.89875" xlink:href="#mdf632dd38e" y="156.239643"/>
      </g>
     </g>
     <g id="text_16">
      <!-- 900 -->
      <g transform="translate(31.085 161.178627)scale(0.13 -0.13)">
       <use xlink:href="#DejaVuSans-57"/>
       <use x="63.623047" xlink:href="#DejaVuSans-48"/>
       <use x="127.246094" xlink:href="#DejaVuSans-48"/>
      </g>
     </g>
    </g>
    <g id="ytick_11">
     <g id="line2d_27">
      <path clip-path="url(#p6fe0a1e740)" d="M 62.89875 120.214478 
L 1178.89875 120.214478 
" style="fill:none;stroke:#b0b0b0;stroke-linecap:square;stroke-width:0.8;"/>
     </g>
     <g id="line2d_28">
      <g>
       <use style="stroke:#000000;stroke-width:0.8;" x="62.89875" xlink:href="#mdf632dd38e" y="120.214478"/>
      </g>
     </g>
     <g id="text_17">
      <!-- 1000 -->
      <g transform="translate(22.81375 125.153463)scale(0.13 -0.13)">
       <use xlink:href="#DejaVuSans-49"/>
       <use x="63.623047" xlink:href="#DejaVuSans-48"/>
       <use x="127.246094" xlink:href="#DejaVuSans-48"/>
       <use x="190.869141" xlink:href="#DejaVuSans-48"/>
      </g>
     </g>
    </g>
    <g id="ytick_12">
     <g id="line2d_29">
      <path clip-path="url(#p6fe0a1e740)" d="M 62.89875 84.189314 
L 1178.89875 84.189314 
" style="fill:none;stroke:#b0b0b0;stroke-linecap:square;stroke-width:0.8;"/>
     </g>
     <g id="line2d_30">
      <g>
       <use style="stroke:#000000;stroke-width:0.8;" x="62.89875" xlink:href="#mdf632dd38e" y="84.189314"/>
      </g>
     </g>
     <g id="text_18">
      <!-- 1100 -->
      <g transform="translate(22.81375 89.128298)scale(0.13 -0.13)">
       <use xlink:href="#DejaVuSans-49"/>
       <use x="63.623047" xlink:href="#DejaVuSans-49"/>
       <use x="127.246094" xlink:href="#DejaVuSans-48"/>
       <use x="190.869141" xlink:href="#DejaVuSans-48"/>
      </g>
     </g>
    </g>
    <g id="ytick_13">
     <g id="line2d_31">
      <path clip-path="url(#p6fe0a1e740)" d="M 62.89875 48.164149 
L 1178.89875 48.164149 
" style="fill:none;stroke:#b0b0b0;stroke-linecap:square;stroke-width:0.8;"/>
     </g>
     <g id="line2d_32">
      <g>
       <use style="stroke:#000000;stroke-width:0.8;" x="62.89875" xlink:href="#mdf632dd38e" y="48.164149"/>
      </g>
     </g>
     <g id="text_19">
      <!-- 1200 -->
      <g transform="translate(22.81375 53.103133)scale(0.13 -0.13)">
       <use xlink:href="#DejaVuSans-49"/>
       <use x="63.623047" xlink:href="#DejaVuSans-50"/>
       <use x="127.246094" xlink:href="#DejaVuSans-48"/>
       <use x="190.869141" xlink:href="#DejaVuSans-48"/>
      </g>
     </g>
    </g>
    <g id="ytick_14">
     <g id="line2d_33">
      <path clip-path="url(#p6fe0a1e740)" d="M 62.89875 12.138984 
L 1178.89875 12.138984 
" style="fill:none;stroke:#b0b0b0;stroke-linecap:square;stroke-width:0.8;"/>
     </g>
     <g id="line2d_34">
      <g>
       <use style="stroke:#000000;stroke-width:0.8;" x="62.89875" xlink:href="#mdf632dd38e" y="12.138984"/>
      </g>
     </g>
     <g id="text_20">
      <!-- 1300 -->
      <g transform="translate(22.81375 17.077969)scale(0.13 -0.13)">
       <use xlink:href="#DejaVuSans-49"/>
       <use x="63.623047" xlink:href="#DejaVuSans-51"/>
       <use x="127.246094" xlink:href="#DejaVuSans-48"/>
       <use x="190.869141" xlink:href="#DejaVuSans-48"/>
      </g>
     </g>
    </g>
    <g id="text_21">
     <!-- Anzahl von Fällen -->
     <defs>
      <path d="M 34.1875 63.1875 
L 20.796875 26.90625 
L 47.609375 26.90625 
z
M 28.609375 72.90625 
L 39.796875 72.90625 
L 67.578125 0 
L 57.328125 0 
L 50.6875 18.703125 
L 17.828125 18.703125 
L 11.1875 0 
L 0.78125 0 
z
" id="DejaVuSans-65"/>
      <path d="M 54.890625 33.015625 
L 54.890625 0 
L 45.90625 0 
L 45.90625 32.71875 
Q 45.90625 40.484375 42.875 44.328125 
Q 39.84375 48.1875 33.796875 48.1875 
Q 26.515625 48.1875 22.3125 43.546875 
Q 18.109375 38.921875 18.109375 30.90625 
L 18.109375 0 
L 9.078125 0 
L 9.078125 54.6875 
L 18.109375 54.6875 
L 18.109375 46.1875 
Q 21.34375 51.125 25.703125 53.5625 
Q 30.078125 56 35.796875 56 
Q 45.21875 56 50.046875 50.171875 
Q 54.890625 44.34375 54.890625 33.015625 
z
" id="DejaVuSans-110"/>
      <path d="M 5.515625 54.6875 
L 48.1875 54.6875 
L 48.1875 46.484375 
L 14.40625 7.171875 
L 48.1875 7.171875 
L 48.1875 0 
L 4.296875 0 
L 4.296875 8.203125 
L 38.09375 47.515625 
L 5.515625 47.515625 
z
" id="DejaVuSans-122"/>
      <path d="M 34.28125 27.484375 
Q 23.390625 27.484375 19.1875 25 
Q 14.984375 22.515625 14.984375 16.5 
Q 14.984375 11.71875 18.140625 8.90625 
Q 21.296875 6.109375 26.703125 6.109375 
Q 34.1875 6.109375 38.703125 11.40625 
Q 43.21875 16.703125 43.21875 25.484375 
L 43.21875 27.484375 
z
M 52.203125 31.203125 
L 52.203125 0 
L 43.21875 0 
L 43.21875 8.296875 
Q 40.140625 3.328125 35.546875 0.953125 
Q 30.953125 -1.421875 24.3125 -1.421875 
Q 15.921875 -1.421875 10.953125 3.296875 
Q 6 8.015625 6 15.921875 
Q 6 25.140625 12.171875 29.828125 
Q 18.359375 34.515625 30.609375 34.515625 
L 43.21875 34.515625 
L 43.21875 35.40625 
Q 43.21875 41.609375 39.140625 45 
Q 35.0625 48.390625 27.6875 48.390625 
Q 23 48.390625 18.546875 47.265625 
Q 14.109375 46.140625 10.015625 43.890625 
L 10.015625 52.203125 
Q 14.9375 54.109375 19.578125 55.046875 
Q 24.21875 56 28.609375 56 
Q 40.484375 56 46.34375 49.84375 
Q 52.203125 43.703125 52.203125 31.203125 
z
" id="DejaVuSans-97"/>
      <path d="M 54.890625 33.015625 
L 54.890625 0 
L 45.90625 0 
L 45.90625 32.71875 
Q 45.90625 40.484375 42.875 44.328125 
Q 39.84375 48.1875 33.796875 48.1875 
Q 26.515625 48.1875 22.3125 43.546875 
Q 18.109375 38.921875 18.109375 30.90625 
L 18.109375 0 
L 9.078125 0 
L 9.078125 75.984375 
L 18.109375 75.984375 
L 18.109375 46.1875 
Q 21.34375 51.125 25.703125 53.5625 
Q 30.078125 56 35.796875 56 
Q 45.21875 56 50.046875 50.171875 
Q 54.890625 44.34375 54.890625 33.015625 
z
" id="DejaVuSans-104"/>
      <path d="M 9.421875 75.984375 
L 18.40625 75.984375 
L 18.40625 0 
L 9.421875 0 
z
" id="DejaVuSans-108"/>
      <path id="DejaVuSans-32"/>
      <path d="M 2.984375 54.6875 
L 12.5 54.6875 
L 29.59375 8.796875 
L 46.6875 54.6875 
L 56.203125 54.6875 
L 35.6875 0 
L 23.484375 0 
z
" id="DejaVuSans-118"/>
      <path d="M 30.609375 48.390625 
Q 23.390625 48.390625 19.1875 42.75 
Q 14.984375 37.109375 14.984375 27.296875 
Q 14.984375 17.484375 19.15625 11.84375 
Q 23.34375 6.203125 30.609375 6.203125 
Q 37.796875 6.203125 41.984375 11.859375 
Q 46.1875 17.53125 46.1875 27.296875 
Q 46.1875 37.015625 41.984375 42.703125 
Q 37.796875 48.390625 30.609375 48.390625 
z
M 30.609375 56 
Q 42.328125 56 49.015625 48.375 
Q 55.71875 40.765625 55.71875 27.296875 
Q 55.71875 13.875 49.015625 6.21875 
Q 42.328125 -1.421875 30.609375 -1.421875 
Q 18.84375 -1.421875 12.171875 6.21875 
Q 5.515625 13.875 5.515625 27.296875 
Q 5.515625 40.765625 12.171875 48.375 
Q 18.84375 56 30.609375 56 
z
" id="DejaVuSans-111"/>
      <path d="M 9.8125 72.90625 
L 51.703125 72.90625 
L 51.703125 64.59375 
L 19.671875 64.59375 
L 19.671875 43.109375 
L 48.578125 43.109375 
L 48.578125 34.8125 
L 19.671875 34.8125 
L 19.671875 0 
L 9.8125 0 
z
" id="DejaVuSans-70"/>
      <path d="M 34.28125 27.484375 
Q 23.390625 27.484375 19.1875 25 
Q 14.984375 22.515625 14.984375 16.5 
Q 14.984375 11.71875 18.140625 8.90625 
Q 21.296875 6.109375 26.703125 6.109375 
Q 34.1875 6.109375 38.703125 11.40625 
Q 43.21875 16.703125 43.21875 25.484375 
L 43.21875 27.484375 
z
M 52.203125 31.203125 
L 52.203125 0 
L 43.21875 0 
L 43.21875 8.296875 
Q 40.140625 3.328125 35.546875 0.953125 
Q 30.953125 -1.421875 24.3125 -1.421875 
Q 15.921875 -1.421875 10.953125 3.296875 
Q 6 8.015625 6 15.921875 
Q 6 25.140625 12.171875 29.828125 
Q 18.359375 34.515625 30.609375 34.515625 
L 43.21875 34.515625 
L 43.21875 35.40625 
Q 43.21875 41.609375 39.140625 45 
Q 35.0625 48.390625 27.6875 48.390625 
Q 23 48.390625 18.546875 47.265625 
Q 14.109375 46.140625 10.015625 43.890625 
L 10.015625 52.203125 
Q 14.9375 54.109375 19.578125 55.046875 
Q 24.21875 56 28.609375 56 
Q 40.484375 56 46.34375 49.84375 
Q 52.203125 43.703125 52.203125 31.203125 
z
M 33.59375 75.78125 
L 43.5 75.78125 
L 43.5 65.921875 
L 33.59375 65.921875 
z
M 14.5 75.78125 
L 24.40625 75.78125 
L 24.40625 65.921875 
L 14.5 65.921875 
z
" id="DejaVuSans-228"/>
      <path d="M 56.203125 29.59375 
L 56.203125 25.203125 
L 14.890625 25.203125 
Q 15.484375 15.921875 20.484375 11.0625 
Q 25.484375 6.203125 34.421875 6.203125 
Q 39.59375 6.203125 44.453125 7.46875 
Q 49.3125 8.734375 54.109375 11.28125 
L 54.109375 2.78125 
Q 49.265625 0.734375 44.1875 -0.34375 
Q 39.109375 -1.421875 33.890625 -1.421875 
Q 20.796875 -1.421875 13.15625 6.1875 
Q 5.515625 13.8125 5.515625 26.8125 
Q 5.515625 40.234375 12.765625 48.109375 
Q 20.015625 56 32.328125 56 
Q 43.359375 56 49.78125 48.890625 
Q 56.203125 41.796875 56.203125 29.59375 
z
M 47.21875 32.234375 
Q 47.125 39.59375 43.09375 43.984375 
Q 39.0625 48.390625 32.421875 48.390625 
Q 24.90625 48.390625 20.390625 44.140625 
Q 15.875 39.890625 15.1875 32.171875 
z
" id="DejaVuSans-101"/>
     </defs>
     <g transform="translate(16.318125 309.927422)rotate(-90)scale(0.12 -0.12)">
      <use xlink:href="#DejaVuSans-65"/>
      <use x="68.408203" xlink:href="#DejaVuSans-110"/>
      <use x="131.787109" xlink:href="#DejaVuSans-122"/>
      <use x="184.277344" xlink:href="#DejaVuSans-97"/>
      <use x="245.556641" xlink:href="#DejaVuSans-104"/>
      <use x="308.935547" xlink:href="#DejaVuSans-108"/>
      <use x="336.71875" xlink:href="#DejaVuSans-32"/>
      <use x="368.505859" xlink:href="#DejaVuSans-118"/>
      <use x="427.685547" xlink:href="#DejaVuSans-111"/>
      <use x="488.867188" xlink:href="#DejaVuSans-110"/>
      <use x="552.246094" xlink:href="#DejaVuSans-32"/>
      <use x="584.033203" xlink:href="#DejaVuSans-70"/>
      <use x="641.412109" xlink:href="#DejaVuSans-228"/>
      <use x="702.691406" xlink:href="#DejaVuSans-108"/>
      <use x="730.474609" xlink:href="#DejaVuSans-108"/>
      <use x="758.257812" xlink:href="#DejaVuSans-101"/>
      <use x="819.78125" xlink:href="#DejaVuSans-110"/>
     </g>
    </g>
   </g>
   <g id="line2d_35">
    <path clip-path="url(#p6fe0a1e740)" d="M 62.89875 480.466125 
L 101.603952 480.466125 
L 114.505686 479.38537 
L 120.956553 476.503357 
L 127.407421 476.503357 
L 133.858288 476.143105 
L 140.309155 475.06235 
L 146.760022 469.658575 
L 153.210889 465.695807 
L 159.661756 463.534297 
L 166.112623 459.571529 
L 172.56349 453.447251 
L 179.014357 451.645993 
L 185.465224 443.360205 
L 191.916091 426.428378 
L 198.366958 415.98108 
L 204.817825 409.136299 
L 211.268692 401.931266 
L 217.719559 391.84422 
L 224.170426 385.35969 
L 230.621293 379.235412 
L 237.07216 369.508618 
L 243.523027 364.104843 
L 249.973895 354.378048 
L 262.875629 346.092261 
L 275.777363 339.607731 
L 282.22823 323.396407 
L 288.679097 323.396407 
L 295.129964 300.340301 
L 301.580831 290.253255 
L 314.482565 268.638157 
L 320.933432 262.513879 
L 327.384299 261.793375 
L 333.835166 245.2218 
L 340.286033 245.942303 
L 346.7369 239.457773 
L 359.638634 234.41425 
L 372.540368 225.768211 
L 378.991236 220.004184 
L 391.89297 213.879906 
L 404.794704 212.078648 
L 411.245571 209.556887 
L 417.696438 205.95437 
L 424.147305 200.550595 
L 430.598172 195.507072 
L 437.049039 195.146821 
L 449.950773 192.625059 
L 456.40164 189.022543 
L 462.852507 187.941788 
L 469.303374 186.500781 
L 482.205108 182.898265 
L 501.55771 181.81751 
L 508.008577 178.575245 
L 520.910311 173.17147 
L 527.361178 171.370212 
L 540.262912 159.481908 
L 546.713779 156.239643 
L 559.615513 145.071842 
L 566.06638 145.071842 
L 591.869848 142.189829 
L 598.320715 142.189829 
L 604.771582 141.109074 
L 611.222449 130.301524 
L 617.673316 130.301524 
L 630.575051 123.096491 
L 637.025918 111.208187 
L 643.476785 105.444161 
L 656.378519 102.562148 
L 662.829386 101.481393 
L 675.73112 100.040386 
L 688.632854 97.518625 
L 701.534588 96.43787 
L 707.985455 96.43787 
L 720.887189 95.717366 
L 733.788923 95.717366 
L 740.23979 95.357115 
L 772.494126 95.357115 
L 778.944993 94.27636 
L 785.39586 94.27636 
L 791.846727 93.916108 
L 856.355397 93.916108 
L 869.257132 91.754598 
L 907.962334 91.754598 
L 914.413201 91.394347 
L 920.864068 90.313592 
L 927.314935 89.95334 
L 946.667536 89.593088 
L 959.56927 89.593088 
L 966.020137 87.431578 
L 972.471004 87.431578 
L 1036.979675 78.785539 
L 1043.430542 78.425287 
L 1056.332276 76.263777 
L 1062.783143 76.263777 
L 1082.135744 73.381764 
L 1088.586611 73.381764 
L 1095.037478 72.301009 
L 1101.488345 70.499751 
L 1107.939212 70.139499 
L 1127.291814 67.257486 
L 1133.742681 65.81648 
L 1140.193548 65.81648 
L 1146.644415 64.015221 
L 1153.095282 63.294718 
L 1172.447883 63.294718 
L 1178.89875 55.00893 
L 1178.89875 55.00893 
" style="fill:none;stroke:#dbcd00;stroke-linecap:square;stroke-width:2;"/>
    <defs>
     <path d="M 0 1.5 
C 0.397805 1.5 0.77937 1.341951 1.06066 1.06066 
C 1.341951 0.77937 1.5 0.397805 1.5 0 
C 1.5 -0.397805 1.341951 -0.77937 1.06066 -1.06066 
C 0.77937 -1.341951 0.397805 -1.5 0 -1.5 
C -0.397805 -1.5 -0.77937 -1.341951 -1.06066 -1.06066 
C -1.341951 -0.77937 -1.5 -0.397805 -1.5 0 
C -1.5 0.397805 -1.341951 0.77937 -1.06066 1.06066 
C -0.77937 1.341951 -0.397805 1.5 0 1.5 
z
" id="m323ebc27e3" style="stroke:#dbcd00;"/>
    </defs>
    <g clip-path="url(#p6fe0a1e740)">
     <use style="fill:#dbcd00;stroke:#dbcd00;" x="62.89875" xlink:href="#m323ebc27e3" y="480.466125"/>
     <use style="fill:#dbcd00;stroke:#dbcd00;" x="69.349617" xlink:href="#m323ebc27e3" y="480.466125"/>
     <use style="fill:#dbcd00;stroke:#dbcd00;" x="75.800484" xlink:href="#m323ebc27e3" y="480.466125"/>
     <use style="fill:#dbcd00;stroke:#dbcd00;" x="82.251351" xlink:href="#m323ebc27e3" y="480.466125"/>
     <use style="fill:#dbcd00;stroke:#dbcd00;" x="88.702218" xlink:href="#m323ebc27e3" y="480.466125"/>
     <use style="fill:#dbcd00;stroke:#dbcd00;" x="95.153085" xlink:href="#m323ebc27e3" y="480.466125"/>
     <use style="fill:#dbcd00;stroke:#dbcd00;" x="101.603952" xlink:href="#m323ebc27e3" y="480.466125"/>
     <use style="fill:#dbcd00;stroke:#dbcd00;" x="114.505686" xlink:href="#m323ebc27e3" y="479.38537"/>
     <use style="fill:#dbcd00;stroke:#dbcd00;" x="120.956553" xlink:href="#m323ebc27e3" y="476.503357"/>
     <use style="fill:#dbcd00;stroke:#dbcd00;" x="127.407421" xlink:href="#m323ebc27e3" y="476.503357"/>
     <use style="fill:#dbcd00;stroke:#dbcd00;" x="133.858288" xlink:href="#m323ebc27e3" y="476.143105"/>
     <use style="fill:#dbcd00;stroke:#dbcd00;" x="140.309155" xlink:href="#m323ebc27e3" y="475.06235"/>
     <use style="fill:#dbcd00;stroke:#dbcd00;" x="146.760022" xlink:href="#m323ebc27e3" y="469.658575"/>
     <use style="fill:#dbcd00;stroke:#dbcd00;" x="153.210889" xlink:href="#m323ebc27e3" y="465.695807"/>
     <use style="fill:#dbcd00;stroke:#dbcd00;" x="159.661756" xlink:href="#m323ebc27e3" y="463.534297"/>
     <use style="fill:#dbcd00;stroke:#dbcd00;" x="166.112623" xlink:href="#m323ebc27e3" y="459.571529"/>
     <use style="fill:#dbcd00;stroke:#dbcd00;" x="172.56349" xlink:href="#m323ebc27e3" y="453.447251"/>
     <use style="fill:#dbcd00;stroke:#dbcd00;" x="179.014357" xlink:href="#m323ebc27e3" y="451.645993"/>
     <use style="fill:#dbcd00;stroke:#dbcd00;" x="185.465224" xlink:href="#m323ebc27e3" y="443.360205"/>
     <use style="fill:#dbcd00;stroke:#dbcd00;" x="191.916091" xlink:href="#m323ebc27e3" y="426.428378"/>
     <use style="fill:#dbcd00;stroke:#dbcd00;" x="198.366958" xlink:href="#m323ebc27e3" y="415.98108"/>
     <use style="fill:#dbcd00;stroke:#dbcd00;" x="204.817825" xlink:href="#m323ebc27e3" y="409.136299"/>
     <use style="fill:#dbcd00;stroke:#dbcd00;" x="211.268692" xlink:href="#m323ebc27e3" y="401.931266"/>
     <use style="fill:#dbcd00;stroke:#dbcd00;" x="217.719559" xlink:href="#m323ebc27e3" y="391.84422"/>
     <use style="fill:#dbcd00;stroke:#dbcd00;" x="224.170426" xlink:href="#m323ebc27e3" y="385.35969"/>
     <use style="fill:#dbcd00;stroke:#dbcd00;" x="230.621293" xlink:href="#m323ebc27e3" y="379.235412"/>
     <use style="fill:#dbcd00;stroke:#dbcd00;" x="237.07216" xlink:href="#m323ebc27e3" y="369.508618"/>
     <use style="fill:#dbcd00;stroke:#dbcd00;" x="243.523027" xlink:href="#m323ebc27e3" y="364.104843"/>
     <use style="fill:#dbcd00;stroke:#dbcd00;" x="249.973895" xlink:href="#m323ebc27e3" y="354.378048"/>
     <use style="fill:#dbcd00;stroke:#dbcd00;" x="262.875629" xlink:href="#m323ebc27e3" y="346.092261"/>
     <use style="fill:#dbcd00;stroke:#dbcd00;" x="275.777363" xlink:href="#m323ebc27e3" y="339.607731"/>
     <use style="fill:#dbcd00;stroke:#dbcd00;" x="282.22823" xlink:href="#m323ebc27e3" y="323.396407"/>
     <use style="fill:#dbcd00;stroke:#dbcd00;" x="288.679097" xlink:href="#m323ebc27e3" y="323.396407"/>
     <use style="fill:#dbcd00;stroke:#dbcd00;" x="295.129964" xlink:href="#m323ebc27e3" y="300.340301"/>
     <use style="fill:#dbcd00;stroke:#dbcd00;" x="301.580831" xlink:href="#m323ebc27e3" y="290.253255"/>
     <use style="fill:#dbcd00;stroke:#dbcd00;" x="314.482565" xlink:href="#m323ebc27e3" y="268.638157"/>
     <use style="fill:#dbcd00;stroke:#dbcd00;" x="320.933432" xlink:href="#m323ebc27e3" y="262.513879"/>
     <use style="fill:#dbcd00;stroke:#dbcd00;" x="327.384299" xlink:href="#m323ebc27e3" y="261.793375"/>
     <use style="fill:#dbcd00;stroke:#dbcd00;" x="333.835166" xlink:href="#m323ebc27e3" y="245.2218"/>
     <use style="fill:#dbcd00;stroke:#dbcd00;" x="340.286033" xlink:href="#m323ebc27e3" y="245.942303"/>
     <use style="fill:#dbcd00;stroke:#dbcd00;" x="346.7369" xlink:href="#m323ebc27e3" y="239.457773"/>
     <use style="fill:#dbcd00;stroke:#dbcd00;" x="359.638634" xlink:href="#m323ebc27e3" y="234.41425"/>
     <use style="fill:#dbcd00;stroke:#dbcd00;" x="366.089501" xlink:href="#m323ebc27e3" y="230.09123"/>
     <use style="fill:#dbcd00;stroke:#dbcd00;" x="372.540368" xlink:href="#m323ebc27e3" y="225.768211"/>
     <use style="fill:#dbcd00;stroke:#dbcd00;" x="378.991236" xlink:href="#m323ebc27e3" y="220.004184"/>
     <use style="fill:#dbcd00;stroke:#dbcd00;" x="391.89297" xlink:href="#m323ebc27e3" y="213.879906"/>
     <use style="fill:#dbcd00;stroke:#dbcd00;" x="404.794704" xlink:href="#m323ebc27e3" y="212.078648"/>
     <use style="fill:#dbcd00;stroke:#dbcd00;" x="411.245571" xlink:href="#m323ebc27e3" y="209.556887"/>
     <use style="fill:#dbcd00;stroke:#dbcd00;" x="417.696438" xlink:href="#m323ebc27e3" y="205.95437"/>
     <use style="fill:#dbcd00;stroke:#dbcd00;" x="424.147305" xlink:href="#m323ebc27e3" y="200.550595"/>
     <use style="fill:#dbcd00;stroke:#dbcd00;" x="430.598172" xlink:href="#m323ebc27e3" y="195.507072"/>
     <use style="fill:#dbcd00;stroke:#dbcd00;" x="437.049039" xlink:href="#m323ebc27e3" y="195.146821"/>
     <use style="fill:#dbcd00;stroke:#dbcd00;" x="449.950773" xlink:href="#m323ebc27e3" y="192.625059"/>
     <use style="fill:#dbcd00;stroke:#dbcd00;" x="456.40164" xlink:href="#m323ebc27e3" y="189.022543"/>
     <use style="fill:#dbcd00;stroke:#dbcd00;" x="462.852507" xlink:href="#m323ebc27e3" y="187.941788"/>
     <use style="fill:#dbcd00;stroke:#dbcd00;" x="469.303374" xlink:href="#m323ebc27e3" y="186.500781"/>
     <use style="fill:#dbcd00;stroke:#dbcd00;" x="475.754241" xlink:href="#m323ebc27e3" y="184.699523"/>
     <use style="fill:#dbcd00;stroke:#dbcd00;" x="482.205108" xlink:href="#m323ebc27e3" y="182.898265"/>
     <use style="fill:#dbcd00;stroke:#dbcd00;" x="495.106842" xlink:href="#m323ebc27e3" y="182.177761"/>
     <use style="fill:#dbcd00;stroke:#dbcd00;" x="501.55771" xlink:href="#m323ebc27e3" y="181.81751"/>
     <use style="fill:#dbcd00;stroke:#dbcd00;" x="508.008577" xlink:href="#m323ebc27e3" y="178.575245"/>
     <use style="fill:#dbcd00;stroke:#dbcd00;" x="520.910311" xlink:href="#m323ebc27e3" y="173.17147"/>
     <use style="fill:#dbcd00;stroke:#dbcd00;" x="527.361178" xlink:href="#m323ebc27e3" y="171.370212"/>
     <use style="fill:#dbcd00;stroke:#dbcd00;" x="540.262912" xlink:href="#m323ebc27e3" y="159.481908"/>
     <use style="fill:#dbcd00;stroke:#dbcd00;" x="546.713779" xlink:href="#m323ebc27e3" y="156.239643"/>
     <use style="fill:#dbcd00;stroke:#dbcd00;" x="559.615513" xlink:href="#m323ebc27e3" y="145.071842"/>
     <use style="fill:#dbcd00;stroke:#dbcd00;" x="566.06638" xlink:href="#m323ebc27e3" y="145.071842"/>
     <use style="fill:#dbcd00;stroke:#dbcd00;" x="591.869848" xlink:href="#m323ebc27e3" y="142.189829"/>
     <use style="fill:#dbcd00;stroke:#dbcd00;" x="598.320715" xlink:href="#m323ebc27e3" y="142.189829"/>
     <use style="fill:#dbcd00;stroke:#dbcd00;" x="604.771582" xlink:href="#m323ebc27e3" y="141.109074"/>
     <use style="fill:#dbcd00;stroke:#dbcd00;" x="611.222449" xlink:href="#m323ebc27e3" y="130.301524"/>
     <use style="fill:#dbcd00;stroke:#dbcd00;" x="617.673316" xlink:href="#m323ebc27e3" y="130.301524"/>
     <use style="fill:#dbcd00;stroke:#dbcd00;" x="630.575051" xlink:href="#m323ebc27e3" y="123.096491"/>
     <use style="fill:#dbcd00;stroke:#dbcd00;" x="637.025918" xlink:href="#m323ebc27e3" y="111.208187"/>
     <use style="fill:#dbcd00;stroke:#dbcd00;" x="643.476785" xlink:href="#m323ebc27e3" y="105.444161"/>
     <use style="fill:#dbcd00;stroke:#dbcd00;" x="656.378519" xlink:href="#m323ebc27e3" y="102.562148"/>
     <use style="fill:#dbcd00;stroke:#dbcd00;" x="662.829386" xlink:href="#m323ebc27e3" y="101.481393"/>
     <use style="fill:#dbcd00;stroke:#dbcd00;" x="675.73112" xlink:href="#m323ebc27e3" y="100.040386"/>
     <use style="fill:#dbcd00;stroke:#dbcd00;" x="688.632854" xlink:href="#m323ebc27e3" y="97.518625"/>
     <use style="fill:#dbcd00;stroke:#dbcd00;" x="701.534588" xlink:href="#m323ebc27e3" y="96.43787"/>
     <use style="fill:#dbcd00;stroke:#dbcd00;" x="707.985455" xlink:href="#m323ebc27e3" y="96.43787"/>
     <use style="fill:#dbcd00;stroke:#dbcd00;" x="720.887189" xlink:href="#m323ebc27e3" y="95.717366"/>
     <use style="fill:#dbcd00;stroke:#dbcd00;" x="727.338056" xlink:href="#m323ebc27e3" y="95.717366"/>
     <use style="fill:#dbcd00;stroke:#dbcd00;" x="733.788923" xlink:href="#m323ebc27e3" y="95.717366"/>
     <use style="fill:#dbcd00;stroke:#dbcd00;" x="740.23979" xlink:href="#m323ebc27e3" y="95.357115"/>
     <use style="fill:#dbcd00;stroke:#dbcd00;" x="753.141525" xlink:href="#m323ebc27e3" y="95.357115"/>
     <use style="fill:#dbcd00;stroke:#dbcd00;" x="766.043259" xlink:href="#m323ebc27e3" y="95.357115"/>
     <use style="fill:#dbcd00;stroke:#dbcd00;" x="772.494126" xlink:href="#m323ebc27e3" y="95.357115"/>
     <use style="fill:#dbcd00;stroke:#dbcd00;" x="778.944993" xlink:href="#m323ebc27e3" y="94.27636"/>
     <use style="fill:#dbcd00;stroke:#dbcd00;" x="785.39586" xlink:href="#m323ebc27e3" y="94.27636"/>
     <use style="fill:#dbcd00;stroke:#dbcd00;" x="791.846727" xlink:href="#m323ebc27e3" y="93.916108"/>
     <use style="fill:#dbcd00;stroke:#dbcd00;" x="798.297594" xlink:href="#m323ebc27e3" y="93.916108"/>
     <use style="fill:#dbcd00;stroke:#dbcd00;" x="811.199328" xlink:href="#m323ebc27e3" y="93.916108"/>
     <use style="fill:#dbcd00;stroke:#dbcd00;" x="817.650195" xlink:href="#m323ebc27e3" y="93.916108"/>
     <use style="fill:#dbcd00;stroke:#dbcd00;" x="824.101062" xlink:href="#m323ebc27e3" y="93.916108"/>
     <use style="fill:#dbcd00;stroke:#dbcd00;" x="830.551929" xlink:href="#m323ebc27e3" y="93.916108"/>
     <use style="fill:#dbcd00;stroke:#dbcd00;" x="837.002796" xlink:href="#m323ebc27e3" y="93.916108"/>
     <use style="fill:#dbcd00;stroke:#dbcd00;" x="856.355397" xlink:href="#m323ebc27e3" y="93.916108"/>
     <use style="fill:#dbcd00;stroke:#dbcd00;" x="862.806264" xlink:href="#m323ebc27e3" y="92.835353"/>
     <use style="fill:#dbcd00;stroke:#dbcd00;" x="869.257132" xlink:href="#m323ebc27e3" y="91.754598"/>
     <use style="fill:#dbcd00;stroke:#dbcd00;" x="875.707999" xlink:href="#m323ebc27e3" y="91.754598"/>
     <use style="fill:#dbcd00;stroke:#dbcd00;" x="882.158866" xlink:href="#m323ebc27e3" y="91.754598"/>
     <use style="fill:#dbcd00;stroke:#dbcd00;" x="901.511467" xlink:href="#m323ebc27e3" y="91.754598"/>
     <use style="fill:#dbcd00;stroke:#dbcd00;" x="907.962334" xlink:href="#m323ebc27e3" y="91.754598"/>
     <use style="fill:#dbcd00;stroke:#dbcd00;" x="914.413201" xlink:href="#m323ebc27e3" y="91.394347"/>
     <use style="fill:#dbcd00;stroke:#dbcd00;" x="920.864068" xlink:href="#m323ebc27e3" y="90.313592"/>
     <use style="fill:#dbcd00;stroke:#dbcd00;" x="927.314935" xlink:href="#m323ebc27e3" y="89.95334"/>
     <use style="fill:#dbcd00;stroke:#dbcd00;" x="946.667536" xlink:href="#m323ebc27e3" y="89.593088"/>
     <use style="fill:#dbcd00;stroke:#dbcd00;" x="953.118403" xlink:href="#m323ebc27e3" y="89.593088"/>
     <use style="fill:#dbcd00;stroke:#dbcd00;" x="959.56927" xlink:href="#m323ebc27e3" y="89.593088"/>
     <use style="fill:#dbcd00;stroke:#dbcd00;" x="966.020137" xlink:href="#m323ebc27e3" y="87.431578"/>
     <use style="fill:#dbcd00;stroke:#dbcd00;" x="972.471004" xlink:href="#m323ebc27e3" y="87.431578"/>
     <use style="fill:#dbcd00;stroke:#dbcd00;" x="1036.979675" xlink:href="#m323ebc27e3" y="78.785539"/>
     <use style="fill:#dbcd00;stroke:#dbcd00;" x="1043.430542" xlink:href="#m323ebc27e3" y="78.425287"/>
     <use style="fill:#dbcd00;stroke:#dbcd00;" x="1056.332276" xlink:href="#m323ebc27e3" y="76.263777"/>
     <use style="fill:#dbcd00;stroke:#dbcd00;" x="1062.783143" xlink:href="#m323ebc27e3" y="76.263777"/>
     <use style="fill:#dbcd00;stroke:#dbcd00;" x="1082.135744" xlink:href="#m323ebc27e3" y="73.381764"/>
     <use style="fill:#dbcd00;stroke:#dbcd00;" x="1088.586611" xlink:href="#m323ebc27e3" y="73.381764"/>
     <use style="fill:#dbcd00;stroke:#dbcd00;" x="1095.037478" xlink:href="#m323ebc27e3" y="72.301009"/>
     <use style="fill:#dbcd00;stroke:#dbcd00;" x="1101.488345" xlink:href="#m323ebc27e3" y="70.499751"/>
     <use style="fill:#dbcd00;stroke:#dbcd00;" x="1107.939212" xlink:href="#m323ebc27e3" y="70.139499"/>
     <use style="fill:#dbcd00;stroke:#dbcd00;" x="1127.291814" xlink:href="#m323ebc27e3" y="67.257486"/>
     <use style="fill:#dbcd00;stroke:#dbcd00;" x="1133.742681" xlink:href="#m323ebc27e3" y="65.81648"/>
     <use style="fill:#dbcd00;stroke:#dbcd00;" x="1140.193548" xlink:href="#m323ebc27e3" y="65.81648"/>
     <use style="fill:#dbcd00;stroke:#dbcd00;" x="1146.644415" xlink:href="#m323ebc27e3" y="64.015221"/>
     <use style="fill:#dbcd00;stroke:#dbcd00;" x="1153.095282" xlink:href="#m323ebc27e3" y="63.294718"/>
     <use style="fill:#dbcd00;stroke:#dbcd00;" x="1172.447883" xlink:href="#m323ebc27e3" y="63.294718"/>
     <use style="fill:#dbcd00;stroke:#dbcd00;" x="1178.89875" xlink:href="#m323ebc27e3" y="55.00893"/>
    </g>
   </g>
   <g id="line2d_36">
    <path clip-path="url(#p6fe0a1e740)" d="M 62.89875 475.422602 
L 69.349617 470.73933 
L 75.800484 464.254801 
L 82.251351 450.92549 
L 88.702218 446.242218 
L 95.153085 436.155172 
L 101.603952 421.384855 
L 114.505686 390.763465 
L 120.956553 385.719942 
L 127.407421 382.837928 
L 133.858288 378.514909 
L 140.309155 375.632896 
L 146.760022 370.589373 
L 153.210889 363.744591 
L 159.661756 355.098552 
L 166.112623 350.055029 
L 172.56349 351.496035 
L 179.014357 349.694777 
L 185.465224 347.173015 
L 191.916091 348.25377 
L 198.366958 343.930751 
L 204.817825 335.644963 
L 211.268692 329.160433 
L 217.719559 334.203956 
L 224.170426 335.644963 
L 230.621293 335.644963 
L 237.07216 337.446221 
L 243.523027 332.402698 
L 249.973895 337.806473 
L 262.875629 345.011506 
L 275.777363 345.011506 
L 282.22823 360.142075 
L 288.679097 356.179307 
L 295.129964 373.831637 
L 301.580831 381.03667 
L 314.482565 400.850511 
L 320.933432 406.614537 
L 327.384299 404.092776 
L 333.835166 418.502841 
L 340.286033 414.900325 
L 346.7369 419.583596 
L 359.638634 423.186113 
L 372.540368 431.111649 
L 378.991236 436.875675 
L 391.89297 440.838444 
L 404.794704 441.198695 
L 411.245571 442.999953 
L 417.696438 445.881967 
L 424.147305 447.322973 
L 430.598172 450.92549 
L 437.049039 447.683225 
L 449.950773 444.44096 
L 456.40164 446.60247 
L 462.852507 436.155172 
L 469.303374 433.633411 
L 475.754241 434.714166 
L 482.205108 435.434669 
L 495.106842 431.111649 
L 501.55771 431.471901 
L 508.008577 434.714166 
L 520.910311 433.633411 
L 527.361178 428.589888 
L 540.262912 439.757689 
L 546.713779 442.27945 
L 559.615513 437.596179 
L 566.06638 436.155172 
L 591.869848 437.596179 
L 604.771582 437.596179 
L 611.222449 446.60247 
L 617.673316 446.60247 
L 630.575051 453.447251 
L 637.025918 464.615052 
L 643.476785 470.379079 
L 656.378519 473.261092 
L 662.829386 474.341847 
L 675.73112 475.422602 
L 688.632854 477.944363 
L 707.985455 477.944363 
L 720.887189 478.664866 
L 733.788923 478.664866 
L 740.23979 479.025118 
L 753.141525 478.304615 
L 772.494126 478.304615 
L 778.944993 478.664866 
L 785.39586 477.584111 
L 791.846727 477.944363 
L 798.297594 477.944363 
L 811.199328 477.584111 
L 817.650195 477.22386 
L 830.551929 477.22386 
L 837.002796 476.863608 
L 856.355397 476.503357 
L 862.806264 476.863608 
L 869.257132 477.944363 
L 882.158866 477.22386 
L 901.511467 477.22386 
L 907.962334 473.261092 
L 914.413201 473.621343 
L 920.864068 472.90084 
L 927.314935 473.261092 
L 946.667536 471.820085 
L 953.118403 470.73933 
L 959.56927 470.73933 
L 966.020137 471.099582 
L 972.471004 468.938072 
L 1036.979675 470.018827 
L 1043.430542 468.57782 
L 1056.332276 466.41631 
L 1062.783143 464.615052 
L 1082.135744 464.615052 
L 1088.586611 459.211278 
L 1095.037478 458.490774 
L 1107.939212 456.329264 
L 1127.291814 458.130523 
L 1133.742681 458.490774 
L 1140.193548 458.490774 
L 1146.644415 459.931781 
L 1153.095282 460.652284 
L 1172.447883 460.652284 
L 1178.89875 466.776562 
L 1178.89875 466.776562 
" style="fill:none;stroke:#2792cb;stroke-linecap:square;stroke-width:2;"/>
    <defs>
     <path d="M 0 1.5 
C 0.397805 1.5 0.77937 1.341951 1.06066 1.06066 
C 1.341951 0.77937 1.5 0.397805 1.5 0 
C 1.5 -0.397805 1.341951 -0.77937 1.06066 -1.06066 
C 0.77937 -1.341951 0.397805 -1.5 0 -1.5 
C -0.397805 -1.5 -0.77937 -1.341951 -1.06066 -1.06066 
C -1.341951 -0.77937 -1.5 -0.397805 -1.5 0 
C -1.5 0.397805 -1.341951 0.77937 -1.06066 1.06066 
C -0.77937 1.341951 -0.397805 1.5 0 1.5 
z
" id="m4529ed7f40" style="stroke:#2792cb;"/>
    </defs>
    <g clip-path="url(#p6fe0a1e740)">
     <use style="fill:#2792cb;stroke:#2792cb;" x="62.89875" xlink:href="#m4529ed7f40" y="475.422602"/>
     <use style="fill:#2792cb;stroke:#2792cb;" x="69.349617" xlink:href="#m4529ed7f40" y="470.73933"/>
     <use style="fill:#2792cb;stroke:#2792cb;" x="75.800484" xlink:href="#m4529ed7f40" y="464.254801"/>
     <use style="fill:#2792cb;stroke:#2792cb;" x="82.251351" xlink:href="#m4529ed7f40" y="450.92549"/>
     <use style="fill:#2792cb;stroke:#2792cb;" x="88.702218" xlink:href="#m4529ed7f40" y="446.242218"/>
     <use style="fill:#2792cb;stroke:#2792cb;" x="95.153085" xlink:href="#m4529ed7f40" y="436.155172"/>
     <use style="fill:#2792cb;stroke:#2792cb;" x="101.603952" xlink:href="#m4529ed7f40" y="421.384855"/>
     <use style="fill:#2792cb;stroke:#2792cb;" x="114.505686" xlink:href="#m4529ed7f40" y="390.763465"/>
     <use style="fill:#2792cb;stroke:#2792cb;" x="120.956553" xlink:href="#m4529ed7f40" y="385.719942"/>
     <use style="fill:#2792cb;stroke:#2792cb;" x="127.407421" xlink:href="#m4529ed7f40" y="382.837928"/>
     <use style="fill:#2792cb;stroke:#2792cb;" x="133.858288" xlink:href="#m4529ed7f40" y="378.514909"/>
     <use style="fill:#2792cb;stroke:#2792cb;" x="140.309155" xlink:href="#m4529ed7f40" y="375.632896"/>
     <use style="fill:#2792cb;stroke:#2792cb;" x="146.760022" xlink:href="#m4529ed7f40" y="370.589373"/>
     <use style="fill:#2792cb;stroke:#2792cb;" x="153.210889" xlink:href="#m4529ed7f40" y="363.744591"/>
     <use style="fill:#2792cb;stroke:#2792cb;" x="159.661756" xlink:href="#m4529ed7f40" y="355.098552"/>
     <use style="fill:#2792cb;stroke:#2792cb;" x="166.112623" xlink:href="#m4529ed7f40" y="350.055029"/>
     <use style="fill:#2792cb;stroke:#2792cb;" x="172.56349" xlink:href="#m4529ed7f40" y="351.496035"/>
     <use style="fill:#2792cb;stroke:#2792cb;" x="179.014357" xlink:href="#m4529ed7f40" y="349.694777"/>
     <use style="fill:#2792cb;stroke:#2792cb;" x="185.465224" xlink:href="#m4529ed7f40" y="347.173015"/>
     <use style="fill:#2792cb;stroke:#2792cb;" x="191.916091" xlink:href="#m4529ed7f40" y="348.25377"/>
     <use style="fill:#2792cb;stroke:#2792cb;" x="198.366958" xlink:href="#m4529ed7f40" y="343.930751"/>
     <use style="fill:#2792cb;stroke:#2792cb;" x="204.817825" xlink:href="#m4529ed7f40" y="335.644963"/>
     <use style="fill:#2792cb;stroke:#2792cb;" x="211.268692" xlink:href="#m4529ed7f40" y="329.160433"/>
     <use style="fill:#2792cb;stroke:#2792cb;" x="217.719559" xlink:href="#m4529ed7f40" y="334.203956"/>
     <use style="fill:#2792cb;stroke:#2792cb;" x="224.170426" xlink:href="#m4529ed7f40" y="335.644963"/>
     <use style="fill:#2792cb;stroke:#2792cb;" x="230.621293" xlink:href="#m4529ed7f40" y="335.644963"/>
     <use style="fill:#2792cb;stroke:#2792cb;" x="237.07216" xlink:href="#m4529ed7f40" y="337.446221"/>
     <use style="fill:#2792cb;stroke:#2792cb;" x="243.523027" xlink:href="#m4529ed7f40" y="332.402698"/>
     <use style="fill:#2792cb;stroke:#2792cb;" x="249.973895" xlink:href="#m4529ed7f40" y="337.806473"/>
     <use style="fill:#2792cb;stroke:#2792cb;" x="262.875629" xlink:href="#m4529ed7f40" y="345.011506"/>
     <use style="fill:#2792cb;stroke:#2792cb;" x="275.777363" xlink:href="#m4529ed7f40" y="345.011506"/>
     <use style="fill:#2792cb;stroke:#2792cb;" x="282.22823" xlink:href="#m4529ed7f40" y="360.142075"/>
     <use style="fill:#2792cb;stroke:#2792cb;" x="288.679097" xlink:href="#m4529ed7f40" y="356.179307"/>
     <use style="fill:#2792cb;stroke:#2792cb;" x="295.129964" xlink:href="#m4529ed7f40" y="373.831637"/>
     <use style="fill:#2792cb;stroke:#2792cb;" x="301.580831" xlink:href="#m4529ed7f40" y="381.03667"/>
     <use style="fill:#2792cb;stroke:#2792cb;" x="314.482565" xlink:href="#m4529ed7f40" y="400.850511"/>
     <use style="fill:#2792cb;stroke:#2792cb;" x="320.933432" xlink:href="#m4529ed7f40" y="406.614537"/>
     <use style="fill:#2792cb;stroke:#2792cb;" x="327.384299" xlink:href="#m4529ed7f40" y="404.092776"/>
     <use style="fill:#2792cb;stroke:#2792cb;" x="333.835166" xlink:href="#m4529ed7f40" y="418.502841"/>
     <use style="fill:#2792cb;stroke:#2792cb;" x="340.286033" xlink:href="#m4529ed7f40" y="414.900325"/>
     <use style="fill:#2792cb;stroke:#2792cb;" x="346.7369" xlink:href="#m4529ed7f40" y="419.583596"/>
     <use style="fill:#2792cb;stroke:#2792cb;" x="359.638634" xlink:href="#m4529ed7f40" y="423.186113"/>
     <use style="fill:#2792cb;stroke:#2792cb;" x="366.089501" xlink:href="#m4529ed7f40" y="427.148881"/>
     <use style="fill:#2792cb;stroke:#2792cb;" x="372.540368" xlink:href="#m4529ed7f40" y="431.111649"/>
     <use style="fill:#2792cb;stroke:#2792cb;" x="378.991236" xlink:href="#m4529ed7f40" y="436.875675"/>
     <use style="fill:#2792cb;stroke:#2792cb;" x="391.89297" xlink:href="#m4529ed7f40" y="440.838444"/>
     <use style="fill:#2792cb;stroke:#2792cb;" x="404.794704" xlink:href="#m4529ed7f40" y="441.198695"/>
     <use style="fill:#2792cb;stroke:#2792cb;" x="411.245571" xlink:href="#m4529ed7f40" y="442.999953"/>
     <use style="fill:#2792cb;stroke:#2792cb;" x="417.696438" xlink:href="#m4529ed7f40" y="445.881967"/>
     <use style="fill:#2792cb;stroke:#2792cb;" x="424.147305" xlink:href="#m4529ed7f40" y="447.322973"/>
     <use style="fill:#2792cb;stroke:#2792cb;" x="430.598172" xlink:href="#m4529ed7f40" y="450.92549"/>
     <use style="fill:#2792cb;stroke:#2792cb;" x="437.049039" xlink:href="#m4529ed7f40" y="447.683225"/>
     <use style="fill:#2792cb;stroke:#2792cb;" x="449.950773" xlink:href="#m4529ed7f40" y="444.44096"/>
     <use style="fill:#2792cb;stroke:#2792cb;" x="456.40164" xlink:href="#m4529ed7f40" y="446.60247"/>
     <use style="fill:#2792cb;stroke:#2792cb;" x="462.852507" xlink:href="#m4529ed7f40" y="436.155172"/>
     <use style="fill:#2792cb;stroke:#2792cb;" x="469.303374" xlink:href="#m4529ed7f40" y="433.633411"/>
     <use style="fill:#2792cb;stroke:#2792cb;" x="475.754241" xlink:href="#m4529ed7f40" y="434.714166"/>
     <use style="fill:#2792cb;stroke:#2792cb;" x="482.205108" xlink:href="#m4529ed7f40" y="435.434669"/>
     <use style="fill:#2792cb;stroke:#2792cb;" x="495.106842" xlink:href="#m4529ed7f40" y="431.111649"/>
     <use style="fill:#2792cb;stroke:#2792cb;" x="501.55771" xlink:href="#m4529ed7f40" y="431.471901"/>
     <use style="fill:#2792cb;stroke:#2792cb;" x="508.008577" xlink:href="#m4529ed7f40" y="434.714166"/>
     <use style="fill:#2792cb;stroke:#2792cb;" x="520.910311" xlink:href="#m4529ed7f40" y="433.633411"/>
     <use style="fill:#2792cb;stroke:#2792cb;" x="527.361178" xlink:href="#m4529ed7f40" y="428.589888"/>
     <use style="fill:#2792cb;stroke:#2792cb;" x="540.262912" xlink:href="#m4529ed7f40" y="439.757689"/>
     <use style="fill:#2792cb;stroke:#2792cb;" x="546.713779" xlink:href="#m4529ed7f40" y="442.27945"/>
     <use style="fill:#2792cb;stroke:#2792cb;" x="559.615513" xlink:href="#m4529ed7f40" y="437.596179"/>
     <use style="fill:#2792cb;stroke:#2792cb;" x="566.06638" xlink:href="#m4529ed7f40" y="436.155172"/>
     <use style="fill:#2792cb;stroke:#2792cb;" x="591.869848" xlink:href="#m4529ed7f40" y="437.596179"/>
     <use style="fill:#2792cb;stroke:#2792cb;" x="598.320715" xlink:href="#m4529ed7f40" y="437.596179"/>
     <use style="fill:#2792cb;stroke:#2792cb;" x="604.771582" xlink:href="#m4529ed7f40" y="437.596179"/>
     <use style="fill:#2792cb;stroke:#2792cb;" x="611.222449" xlink:href="#m4529ed7f40" y="446.60247"/>
     <use style="fill:#2792cb;stroke:#2792cb;" x="617.673316" xlink:href="#m4529ed7f40" y="446.60247"/>
     <use style="fill:#2792cb;stroke:#2792cb;" x="630.575051" xlink:href="#m4529ed7f40" y="453.447251"/>
     <use style="fill:#2792cb;stroke:#2792cb;" x="637.025918" xlink:href="#m4529ed7f40" y="464.615052"/>
     <use style="fill:#2792cb;stroke:#2792cb;" x="643.476785" xlink:href="#m4529ed7f40" y="470.379079"/>
     <use style="fill:#2792cb;stroke:#2792cb;" x="656.378519" xlink:href="#m4529ed7f40" y="473.261092"/>
     <use style="fill:#2792cb;stroke:#2792cb;" x="662.829386" xlink:href="#m4529ed7f40" y="474.341847"/>
     <use style="fill:#2792cb;stroke:#2792cb;" x="675.73112" xlink:href="#m4529ed7f40" y="475.422602"/>
     <use style="fill:#2792cb;stroke:#2792cb;" x="688.632854" xlink:href="#m4529ed7f40" y="477.944363"/>
     <use style="fill:#2792cb;stroke:#2792cb;" x="701.534588" xlink:href="#m4529ed7f40" y="477.944363"/>
     <use style="fill:#2792cb;stroke:#2792cb;" x="707.985455" xlink:href="#m4529ed7f40" y="477.944363"/>
     <use style="fill:#2792cb;stroke:#2792cb;" x="720.887189" xlink:href="#m4529ed7f40" y="478.664866"/>
     <use style="fill:#2792cb;stroke:#2792cb;" x="727.338056" xlink:href="#m4529ed7f40" y="478.664866"/>
     <use style="fill:#2792cb;stroke:#2792cb;" x="733.788923" xlink:href="#m4529ed7f40" y="478.664866"/>
     <use style="fill:#2792cb;stroke:#2792cb;" x="740.23979" xlink:href="#m4529ed7f40" y="479.025118"/>
     <use style="fill:#2792cb;stroke:#2792cb;" x="753.141525" xlink:href="#m4529ed7f40" y="478.304615"/>
     <use style="fill:#2792cb;stroke:#2792cb;" x="766.043259" xlink:href="#m4529ed7f40" y="478.304615"/>
     <use style="fill:#2792cb;stroke:#2792cb;" x="772.494126" xlink:href="#m4529ed7f40" y="478.304615"/>
     <use style="fill:#2792cb;stroke:#2792cb;" x="778.944993" xlink:href="#m4529ed7f40" y="478.664866"/>
     <use style="fill:#2792cb;stroke:#2792cb;" x="785.39586" xlink:href="#m4529ed7f40" y="477.584111"/>
     <use style="fill:#2792cb;stroke:#2792cb;" x="791.846727" xlink:href="#m4529ed7f40" y="477.944363"/>
     <use style="fill:#2792cb;stroke:#2792cb;" x="798.297594" xlink:href="#m4529ed7f40" y="477.944363"/>
     <use style="fill:#2792cb;stroke:#2792cb;" x="811.199328" xlink:href="#m4529ed7f40" y="477.584111"/>
     <use style="fill:#2792cb;stroke:#2792cb;" x="817.650195" xlink:href="#m4529ed7f40" y="477.22386"/>
     <use style="fill:#2792cb;stroke:#2792cb;" x="824.101062" xlink:href="#m4529ed7f40" y="477.22386"/>
     <use style="fill:#2792cb;stroke:#2792cb;" x="830.551929" xlink:href="#m4529ed7f40" y="477.22386"/>
     <use style="fill:#2792cb;stroke:#2792cb;" x="837.002796" xlink:href="#m4529ed7f40" y="476.863608"/>
     <use style="fill:#2792cb;stroke:#2792cb;" x="856.355397" xlink:href="#m4529ed7f40" y="476.503357"/>
     <use style="fill:#2792cb;stroke:#2792cb;" x="862.806264" xlink:href="#m4529ed7f40" y="476.863608"/>
     <use style="fill:#2792cb;stroke:#2792cb;" x="869.257132" xlink:href="#m4529ed7f40" y="477.944363"/>
     <use style="fill:#2792cb;stroke:#2792cb;" x="875.707999" xlink:href="#m4529ed7f40" y="477.584111"/>
     <use style="fill:#2792cb;stroke:#2792cb;" x="882.158866" xlink:href="#m4529ed7f40" y="477.22386"/>
     <use style="fill:#2792cb;stroke:#2792cb;" x="901.511467" xlink:href="#m4529ed7f40" y="477.22386"/>
     <use style="fill:#2792cb;stroke:#2792cb;" x="907.962334" xlink:href="#m4529ed7f40" y="473.261092"/>
     <use style="fill:#2792cb;stroke:#2792cb;" x="914.413201" xlink:href="#m4529ed7f40" y="473.621343"/>
     <use style="fill:#2792cb;stroke:#2792cb;" x="920.864068" xlink:href="#m4529ed7f40" y="472.90084"/>
     <use style="fill:#2792cb;stroke:#2792cb;" x="927.314935" xlink:href="#m4529ed7f40" y="473.261092"/>
     <use style="fill:#2792cb;stroke:#2792cb;" x="946.667536" xlink:href="#m4529ed7f40" y="471.820085"/>
     <use style="fill:#2792cb;stroke:#2792cb;" x="953.118403" xlink:href="#m4529ed7f40" y="470.73933"/>
     <use style="fill:#2792cb;stroke:#2792cb;" x="959.56927" xlink:href="#m4529ed7f40" y="470.73933"/>
     <use style="fill:#2792cb;stroke:#2792cb;" x="966.020137" xlink:href="#m4529ed7f40" y="471.099582"/>
     <use style="fill:#2792cb;stroke:#2792cb;" x="972.471004" xlink:href="#m4529ed7f40" y="468.938072"/>
     <use style="fill:#2792cb;stroke:#2792cb;" x="1036.979675" xlink:href="#m4529ed7f40" y="470.018827"/>
     <use style="fill:#2792cb;stroke:#2792cb;" x="1043.430542" xlink:href="#m4529ed7f40" y="468.57782"/>
     <use style="fill:#2792cb;stroke:#2792cb;" x="1056.332276" xlink:href="#m4529ed7f40" y="466.41631"/>
     <use style="fill:#2792cb;stroke:#2792cb;" x="1062.783143" xlink:href="#m4529ed7f40" y="464.615052"/>
     <use style="fill:#2792cb;stroke:#2792cb;" x="1082.135744" xlink:href="#m4529ed7f40" y="464.615052"/>
     <use style="fill:#2792cb;stroke:#2792cb;" x="1088.586611" xlink:href="#m4529ed7f40" y="459.211278"/>
     <use style="fill:#2792cb;stroke:#2792cb;" x="1095.037478" xlink:href="#m4529ed7f40" y="458.490774"/>
     <use style="fill:#2792cb;stroke:#2792cb;" x="1101.488345" xlink:href="#m4529ed7f40" y="457.410019"/>
     <use style="fill:#2792cb;stroke:#2792cb;" x="1107.939212" xlink:href="#m4529ed7f40" y="456.329264"/>
     <use style="fill:#2792cb;stroke:#2792cb;" x="1127.291814" xlink:href="#m4529ed7f40" y="458.130523"/>
     <use style="fill:#2792cb;stroke:#2792cb;" x="1133.742681" xlink:href="#m4529ed7f40" y="458.490774"/>
     <use style="fill:#2792cb;stroke:#2792cb;" x="1140.193548" xlink:href="#m4529ed7f40" y="458.490774"/>
     <use style="fill:#2792cb;stroke:#2792cb;" x="1146.644415" xlink:href="#m4529ed7f40" y="459.931781"/>
     <use style="fill:#2792cb;stroke:#2792cb;" x="1153.095282" xlink:href="#m4529ed7f40" y="460.652284"/>
     <use style="fill:#2792cb;stroke:#2792cb;" x="1172.447883" xlink:href="#m4529ed7f40" y="460.652284"/>
     <use style="fill:#2792cb;stroke:#2792cb;" x="1178.89875" xlink:href="#m4529ed7f40" y="466.776562"/>
    </g>
   </g>
   <g id="patch_3">
    <path d="M 62.89875 501.738984 
L 1178.89875 501.738984 
" style="fill:none;stroke:#000000;stroke-linecap:square;stroke-linejoin:miter;stroke-width:0.8;"/>
   </g>
   <g id="legend_1">
    <g id="line2d_37">
     <path d="M 1091.653438 25.237422 
L 1111.653438 25.237422 
" style="fill:none;stroke:#dbcd00;stroke-linecap:square;stroke-width:2;"/>
    </g>
    <g id="line2d_38">
     <g>
      <use style="fill:#dbcd00;stroke:#dbcd00;" x="1101.653438" xlink:href="#m323ebc27e3" y="25.237422"/>
     </g>
    </g>
    <g id="text_22">
     <!-- Genesene -->
     <defs>
      <path d="M 59.515625 10.40625 
L 59.515625 29.984375 
L 43.40625 29.984375 
L 43.40625 38.09375 
L 69.28125 38.09375 
L 69.28125 6.78125 
Q 63.578125 2.734375 56.6875 0.65625 
Q 49.8125 -1.421875 42 -1.421875 
Q 24.90625 -1.421875 15.25 8.5625 
Q 5.609375 18.5625 5.609375 36.375 
Q 5.609375 54.25 15.25 64.234375 
Q 24.90625 74.21875 42 74.21875 
Q 49.125 74.21875 55.546875 72.453125 
Q 61.96875 70.703125 67.390625 67.28125 
L 67.390625 56.78125 
Q 61.921875 61.421875 55.765625 63.765625 
Q 49.609375 66.109375 42.828125 66.109375 
Q 29.4375 66.109375 22.71875 58.640625 
Q 16.015625 51.171875 16.015625 36.375 
Q 16.015625 21.625 22.71875 14.15625 
Q 29.4375 6.6875 42.828125 6.6875 
Q 48.046875 6.6875 52.140625 7.59375 
Q 56.25 8.5 59.515625 10.40625 
z
" id="DejaVuSans-71"/>
      <path d="M 44.28125 53.078125 
L 44.28125 44.578125 
Q 40.484375 46.53125 36.375 47.5 
Q 32.28125 48.484375 27.875 48.484375 
Q 21.1875 48.484375 17.84375 46.4375 
Q 14.5 44.390625 14.5 40.28125 
Q 14.5 37.15625 16.890625 35.375 
Q 19.28125 33.59375 26.515625 31.984375 
L 29.59375 31.296875 
Q 39.15625 29.25 43.1875 25.515625 
Q 47.21875 21.78125 47.21875 15.09375 
Q 47.21875 7.46875 41.1875 3.015625 
Q 35.15625 -1.421875 24.609375 -1.421875 
Q 20.21875 -1.421875 15.453125 -0.5625 
Q 10.6875 0.296875 5.421875 2 
L 5.421875 11.28125 
Q 10.40625 8.6875 15.234375 7.390625 
Q 20.0625 6.109375 24.8125 6.109375 
Q 31.15625 6.109375 34.5625 8.28125 
Q 37.984375 10.453125 37.984375 14.40625 
Q 37.984375 18.0625 35.515625 20.015625 
Q 33.0625 21.96875 24.703125 23.78125 
L 21.578125 24.515625 
Q 13.234375 26.265625 9.515625 29.90625 
Q 5.8125 33.546875 5.8125 39.890625 
Q 5.8125 47.609375 11.28125 51.796875 
Q 16.75 56 26.8125 56 
Q 31.78125 56 36.171875 55.265625 
Q 40.578125 54.546875 44.28125 53.078125 
z
" id="DejaVuSans-115"/>
     </defs>
     <g transform="translate(1119.653438 28.737422)scale(0.1 -0.1)">
      <use xlink:href="#DejaVuSans-71"/>
      <use x="77.490234" xlink:href="#DejaVuSans-101"/>
      <use x="139.013672" xlink:href="#DejaVuSans-110"/>
      <use x="202.392578" xlink:href="#DejaVuSans-101"/>
      <use x="263.916016" xlink:href="#DejaVuSans-115"/>
      <use x="316.015625" xlink:href="#DejaVuSans-101"/>
      <use x="377.539062" xlink:href="#DejaVuSans-110"/>
      <use x="440.917969" xlink:href="#DejaVuSans-101"/>
     </g>
    </g>
    <g id="line2d_39">
     <path d="M 1091.653438 39.915547 
L 1111.653438 39.915547 
" style="fill:none;stroke:#2792cb;stroke-linecap:square;stroke-width:2;"/>
    </g>
    <g id="line2d_40">
     <g>
      <use style="fill:#2792cb;stroke:#2792cb;" x="1101.653438" xlink:href="#m4529ed7f40" y="39.915547"/>
     </g>
    </g>
    <g id="text_23">
     <!-- Erkrankte -->
     <defs>
      <path d="M 9.8125 72.90625 
L 55.90625 72.90625 
L 55.90625 64.59375 
L 19.671875 64.59375 
L 19.671875 43.015625 
L 54.390625 43.015625 
L 54.390625 34.71875 
L 19.671875 34.71875 
L 19.671875 8.296875 
L 56.78125 8.296875 
L 56.78125 0 
L 9.8125 0 
z
" id="DejaVuSans-69"/>
      <path d="M 41.109375 46.296875 
Q 39.59375 47.171875 37.8125 47.578125 
Q 36.03125 48 33.890625 48 
Q 26.265625 48 22.1875 43.046875 
Q 18.109375 38.09375 18.109375 28.8125 
L 18.109375 0 
L 9.078125 0 
L 9.078125 54.6875 
L 18.109375 54.6875 
L 18.109375 46.1875 
Q 20.953125 51.171875 25.484375 53.578125 
Q 30.03125 56 36.53125 56 
Q 37.453125 56 38.578125 55.875 
Q 39.703125 55.765625 41.0625 55.515625 
z
" id="DejaVuSans-114"/>
      <path d="M 9.078125 75.984375 
L 18.109375 75.984375 
L 18.109375 31.109375 
L 44.921875 54.6875 
L 56.390625 54.6875 
L 27.390625 29.109375 
L 57.625 0 
L 45.90625 0 
L 18.109375 26.703125 
L 18.109375 0 
L 9.078125 0 
z
" id="DejaVuSans-107"/>
      <path d="M 18.3125 70.21875 
L 18.3125 54.6875 
L 36.8125 54.6875 
L 36.8125 47.703125 
L 18.3125 47.703125 
L 18.3125 18.015625 
Q 18.3125 11.328125 20.140625 9.421875 
Q 21.96875 7.515625 27.59375 7.515625 
L 36.8125 7.515625 
L 36.8125 0 
L 27.59375 0 
Q 17.1875 0 13.234375 3.875 
Q 9.28125 7.765625 9.28125 18.015625 
L 9.28125 47.703125 
L 2.6875 47.703125 
L 2.6875 54.6875 
L 9.28125 54.6875 
L 9.28125 70.21875 
z
" id="DejaVuSans-116"/>
     </defs>
     <g transform="translate(1119.653438 43.415547)scale(0.1 -0.1)">
      <use xlink:href="#DejaVuSans-69"/>
      <use x="63.183594" xlink:href="#DejaVuSans-114"/>
      <use x="104.296875" xlink:href="#DejaVuSans-107"/>
      <use x="162.207031" xlink:href="#DejaVuSans-114"/>
      <use x="203.320312" xlink:href="#DejaVuSans-97"/>
      <use x="264.599609" xlink:href="#DejaVuSans-110"/>
      <use x="327.978516" xlink:href="#DejaVuSans-107"/>
      <use x="385.888672" xlink:href="#DejaVuSans-116"/>
      <use x="425.097656" xlink:href="#DejaVuSans-101"/>
     </g>
    </g>
   </g>
  </g>
 </g>
 <defs>
  <clipPath id="p6fe0a1e740">
   <rect height="489.6" width="1116" x="62.89875" y="12.138984"/>
  </clipPath>
 </defs>
</svg>
