<?xml version="1.0" encoding="utf-8" standalone="no"?>
<!DOCTYPE svg PUBLIC "-//W3C//DTD SVG 1.1//EN"
  "http://www.w3.org/Graphics/SVG/1.1/DTD/svg11.dtd">
<!-- Created with matplotlib (https://matplotlib.org/) -->
<svg height="553.993765pt" version="1.1" viewBox="0 0 1186.09875 553.993765" width="1186.09875pt" xmlns="http://www.w3.org/2000/svg" xmlns:xlink="http://www.w3.org/1999/xlink">
 <defs>
  <style type="text/css">
*{stroke-linecap:butt;stroke-linejoin:round;}
  </style>
 </defs>
 <g id="figure_1">
  <g id="patch_1">
   <path d="M 0 553.993765 
L 1186.09875 553.993765 
L 1186.09875 0 
L 0 0 
z
" style="fill:#ffffff;"/>
  </g>
  <g id="axes_1">
   <g id="patch_2">
    <path d="M 62.89875 501.738984 
L 1178.89875 501.738984 
L 1178.89875 12.138984 
L 62.89875 12.138984 
z
" style="fill:#ffffff;"/>
   </g>
   <g id="matplotlib.axis_1">
    <g id="xtick_1">
     <g id="line2d_1">
      <defs>
       <path d="M 0 0 
L 0 3.5 
" id="mbfea5926de" style="stroke:#000000;stroke-width:0.8;"/>
      </defs>
      <g>
       <use style="stroke:#000000;stroke-width:0.8;" x="153.67387" xlink:href="#mbfea5926de" y="501.738984"/>
      </g>
     </g>
     <g id="text_1">
      <!-- 2020-04 -->
      <defs>
       <path d="M 19.1875 8.296875 
L 53.609375 8.296875 
L 53.609375 0 
L 7.328125 0 
L 7.328125 8.296875 
Q 12.9375 14.109375 22.625 23.890625 
Q 32.328125 33.6875 34.8125 36.53125 
Q 39.546875 41.84375 41.421875 45.53125 
Q 43.3125 49.21875 43.3125 52.78125 
Q 43.3125 58.59375 39.234375 62.25 
Q 35.15625 65.921875 28.609375 65.921875 
Q 23.96875 65.921875 18.8125 64.3125 
Q 13.671875 62.703125 7.8125 59.421875 
L 7.8125 69.390625 
Q 13.765625 71.78125 18.9375 73 
Q 24.125 74.21875 28.421875 74.21875 
Q 39.75 74.21875 46.484375 68.546875 
Q 53.21875 62.890625 53.21875 53.421875 
Q 53.21875 48.921875 51.53125 44.890625 
Q 49.859375 40.875 45.40625 35.40625 
Q 44.1875 33.984375 37.640625 27.21875 
Q 31.109375 20.453125 19.1875 8.296875 
z
" id="DejaVuSans-50"/>
       <path d="M 31.78125 66.40625 
Q 24.171875 66.40625 20.328125 58.90625 
Q 16.5 51.421875 16.5 36.375 
Q 16.5 21.390625 20.328125 13.890625 
Q 24.171875 6.390625 31.78125 6.390625 
Q 39.453125 6.390625 43.28125 13.890625 
Q 47.125 21.390625 47.125 36.375 
Q 47.125 51.421875 43.28125 58.90625 
Q 39.453125 66.40625 31.78125 66.40625 
z
M 31.78125 74.21875 
Q 44.046875 74.21875 50.515625 64.515625 
Q 56.984375 54.828125 56.984375 36.375 
Q 56.984375 17.96875 50.515625 8.265625 
Q 44.046875 -1.421875 31.78125 -1.421875 
Q 19.53125 -1.421875 13.0625 8.265625 
Q 6.59375 17.96875 6.59375 36.375 
Q 6.59375 54.828125 13.0625 64.515625 
Q 19.53125 74.21875 31.78125 74.21875 
z
" id="DejaVuSans-48"/>
       <path d="M 4.890625 31.390625 
L 31.203125 31.390625 
L 31.203125 23.390625 
L 4.890625 23.390625 
z
" id="DejaVuSans-45"/>
       <path d="M 37.796875 64.3125 
L 12.890625 25.390625 
L 37.796875 25.390625 
z
M 35.203125 72.90625 
L 47.609375 72.90625 
L 47.609375 25.390625 
L 58.015625 25.390625 
L 58.015625 17.1875 
L 47.609375 17.1875 
L 47.609375 0 
L 37.796875 0 
L 37.796875 17.1875 
L 4.890625 17.1875 
L 4.890625 26.703125 
z
" id="DejaVuSans-52"/>
      </defs>
      <g transform="translate(105.281603 544.452384)rotate(-30)scale(0.13 -0.13)">
       <use xlink:href="#DejaVuSans-50"/>
       <use x="63.623047" xlink:href="#DejaVuSans-48"/>
       <use x="127.246094" xlink:href="#DejaVuSans-50"/>
       <use x="190.869141" xlink:href="#DejaVuSans-48"/>
       <use x="254.492188" xlink:href="#DejaVuSans-45"/>
       <use x="290.576172" xlink:href="#DejaVuSans-48"/>
       <use x="354.199219" xlink:href="#DejaVuSans-52"/>
      </g>
     </g>
    </g>
    <g id="xtick_2">
     <g id="line2d_2">
      <g>
       <use style="stroke:#000000;stroke-width:0.8;" x="287.166693" xlink:href="#mbfea5926de" y="501.738984"/>
      </g>
     </g>
     <g id="text_2">
      <!-- 2020-05 -->
      <defs>
       <path d="M 10.796875 72.90625 
L 49.515625 72.90625 
L 49.515625 64.59375 
L 19.828125 64.59375 
L 19.828125 46.734375 
Q 21.96875 47.46875 24.109375 47.828125 
Q 26.265625 48.1875 28.421875 48.1875 
Q 40.625 48.1875 47.75 41.5 
Q 54.890625 34.8125 54.890625 23.390625 
Q 54.890625 11.625 47.5625 5.09375 
Q 40.234375 -1.421875 26.90625 -1.421875 
Q 22.3125 -1.421875 17.546875 -0.640625 
Q 12.796875 0.140625 7.71875 1.703125 
L 7.71875 11.625 
Q 12.109375 9.234375 16.796875 8.0625 
Q 21.484375 6.890625 26.703125 6.890625 
Q 35.15625 6.890625 40.078125 11.328125 
Q 45.015625 15.765625 45.015625 23.390625 
Q 45.015625 31 40.078125 35.4375 
Q 35.15625 39.890625 26.703125 39.890625 
Q 22.75 39.890625 18.8125 39.015625 
Q 14.890625 38.140625 10.796875 36.28125 
z
" id="DejaVuSans-53"/>
      </defs>
      <g transform="translate(238.774426 544.452384)rotate(-30)scale(0.13 -0.13)">
       <use xlink:href="#DejaVuSans-50"/>
       <use x="63.623047" xlink:href="#DejaVuSans-48"/>
       <use x="127.246094" xlink:href="#DejaVuSans-50"/>
       <use x="190.869141" xlink:href="#DejaVuSans-48"/>
       <use x="254.492188" xlink:href="#DejaVuSans-45"/>
       <use x="290.576172" xlink:href="#DejaVuSans-48"/>
       <use x="354.199219" xlink:href="#DejaVuSans-53"/>
      </g>
     </g>
    </g>
    <g id="xtick_3">
     <g id="line2d_3">
      <g>
       <use style="stroke:#000000;stroke-width:0.8;" x="425.109276" xlink:href="#mbfea5926de" y="501.738984"/>
      </g>
     </g>
     <g id="text_3">
      <!-- 2020-06 -->
      <defs>
       <path d="M 33.015625 40.375 
Q 26.375 40.375 22.484375 35.828125 
Q 18.609375 31.296875 18.609375 23.390625 
Q 18.609375 15.53125 22.484375 10.953125 
Q 26.375 6.390625 33.015625 6.390625 
Q 39.65625 6.390625 43.53125 10.953125 
Q 47.40625 15.53125 47.40625 23.390625 
Q 47.40625 31.296875 43.53125 35.828125 
Q 39.65625 40.375 33.015625 40.375 
z
M 52.59375 71.296875 
L 52.59375 62.3125 
Q 48.875 64.0625 45.09375 64.984375 
Q 41.3125 65.921875 37.59375 65.921875 
Q 27.828125 65.921875 22.671875 59.328125 
Q 17.53125 52.734375 16.796875 39.40625 
Q 19.671875 43.65625 24.015625 45.921875 
Q 28.375 48.1875 33.59375 48.1875 
Q 44.578125 48.1875 50.953125 41.515625 
Q 57.328125 34.859375 57.328125 23.390625 
Q 57.328125 12.15625 50.6875 5.359375 
Q 44.046875 -1.421875 33.015625 -1.421875 
Q 20.359375 -1.421875 13.671875 8.265625 
Q 6.984375 17.96875 6.984375 36.375 
Q 6.984375 53.65625 15.1875 63.9375 
Q 23.390625 74.21875 37.203125 74.21875 
Q 40.921875 74.21875 44.703125 73.484375 
Q 48.484375 72.75 52.59375 71.296875 
z
" id="DejaVuSans-54"/>
      </defs>
      <g transform="translate(376.717009 544.452384)rotate(-30)scale(0.13 -0.13)">
       <use xlink:href="#DejaVuSans-50"/>
       <use x="63.623047" xlink:href="#DejaVuSans-48"/>
       <use x="127.246094" xlink:href="#DejaVuSans-50"/>
       <use x="190.869141" xlink:href="#DejaVuSans-48"/>
       <use x="254.492188" xlink:href="#DejaVuSans-45"/>
       <use x="290.576172" xlink:href="#DejaVuSans-48"/>
       <use x="354.199219" xlink:href="#DejaVuSans-54"/>
      </g>
     </g>
    </g>
    <g id="xtick_4">
     <g id="line2d_4">
      <g>
       <use style="stroke:#000000;stroke-width:0.8;" x="558.602099" xlink:href="#mbfea5926de" y="501.738984"/>
      </g>
     </g>
     <g id="text_4">
      <!-- 2020-07 -->
      <defs>
       <path d="M 8.203125 72.90625 
L 55.078125 72.90625 
L 55.078125 68.703125 
L 28.609375 0 
L 18.3125 0 
L 43.21875 64.59375 
L 8.203125 64.59375 
z
" id="DejaVuSans-55"/>
      </defs>
      <g transform="translate(510.209832 544.452384)rotate(-30)scale(0.13 -0.13)">
       <use xlink:href="#DejaVuSans-50"/>
       <use x="63.623047" xlink:href="#DejaVuSans-48"/>
       <use x="127.246094" xlink:href="#DejaVuSans-50"/>
       <use x="190.869141" xlink:href="#DejaVuSans-48"/>
       <use x="254.492188" xlink:href="#DejaVuSans-45"/>
       <use x="290.576172" xlink:href="#DejaVuSans-48"/>
       <use x="354.199219" xlink:href="#DejaVuSans-55"/>
      </g>
     </g>
    </g>
    <g id="xtick_5">
     <g id="line2d_5">
      <g>
       <use style="stroke:#000000;stroke-width:0.8;" x="696.544683" xlink:href="#mbfea5926de" y="501.738984"/>
      </g>
     </g>
     <g id="text_5">
      <!-- 2020-08 -->
      <defs>
       <path d="M 31.78125 34.625 
Q 24.75 34.625 20.71875 30.859375 
Q 16.703125 27.09375 16.703125 20.515625 
Q 16.703125 13.921875 20.71875 10.15625 
Q 24.75 6.390625 31.78125 6.390625 
Q 38.8125 6.390625 42.859375 10.171875 
Q 46.921875 13.96875 46.921875 20.515625 
Q 46.921875 27.09375 42.890625 30.859375 
Q 38.875 34.625 31.78125 34.625 
z
M 21.921875 38.8125 
Q 15.578125 40.375 12.03125 44.71875 
Q 8.5 49.078125 8.5 55.328125 
Q 8.5 64.0625 14.71875 69.140625 
Q 20.953125 74.21875 31.78125 74.21875 
Q 42.671875 74.21875 48.875 69.140625 
Q 55.078125 64.0625 55.078125 55.328125 
Q 55.078125 49.078125 51.53125 44.71875 
Q 48 40.375 41.703125 38.8125 
Q 48.828125 37.15625 52.796875 32.3125 
Q 56.78125 27.484375 56.78125 20.515625 
Q 56.78125 9.90625 50.3125 4.234375 
Q 43.84375 -1.421875 31.78125 -1.421875 
Q 19.734375 -1.421875 13.25 4.234375 
Q 6.78125 9.90625 6.78125 20.515625 
Q 6.78125 27.484375 10.78125 32.3125 
Q 14.796875 37.15625 21.921875 38.8125 
z
M 18.3125 54.390625 
Q 18.3125 48.734375 21.84375 45.5625 
Q 25.390625 42.390625 31.78125 42.390625 
Q 38.140625 42.390625 41.71875 45.5625 
Q 45.3125 48.734375 45.3125 54.390625 
Q 45.3125 60.0625 41.71875 63.234375 
Q 38.140625 66.40625 31.78125 66.40625 
Q 25.390625 66.40625 21.84375 63.234375 
Q 18.3125 60.0625 18.3125 54.390625 
z
" id="DejaVuSans-56"/>
      </defs>
      <g transform="translate(648.152416 544.452384)rotate(-30)scale(0.13 -0.13)">
       <use xlink:href="#DejaVuSans-50"/>
       <use x="63.623047" xlink:href="#DejaVuSans-48"/>
       <use x="127.246094" xlink:href="#DejaVuSans-50"/>
       <use x="190.869141" xlink:href="#DejaVuSans-48"/>
       <use x="254.492188" xlink:href="#DejaVuSans-45"/>
       <use x="290.576172" xlink:href="#DejaVuSans-48"/>
       <use x="354.199219" xlink:href="#DejaVuSans-56"/>
      </g>
     </g>
    </g>
    <g id="xtick_6">
     <g id="line2d_6">
      <g>
       <use style="stroke:#000000;stroke-width:0.8;" x="834.487267" xlink:href="#mbfea5926de" y="501.738984"/>
      </g>
     </g>
     <g id="text_6">
      <!-- 2020-09 -->
      <defs>
       <path d="M 10.984375 1.515625 
L 10.984375 10.5 
Q 14.703125 8.734375 18.5 7.8125 
Q 22.3125 6.890625 25.984375 6.890625 
Q 35.75 6.890625 40.890625 13.453125 
Q 46.046875 20.015625 46.78125 33.40625 
Q 43.953125 29.203125 39.59375 26.953125 
Q 35.25 24.703125 29.984375 24.703125 
Q 19.046875 24.703125 12.671875 31.3125 
Q 6.296875 37.9375 6.296875 49.421875 
Q 6.296875 60.640625 12.9375 67.421875 
Q 19.578125 74.21875 30.609375 74.21875 
Q 43.265625 74.21875 49.921875 64.515625 
Q 56.59375 54.828125 56.59375 36.375 
Q 56.59375 19.140625 48.40625 8.859375 
Q 40.234375 -1.421875 26.421875 -1.421875 
Q 22.703125 -1.421875 18.890625 -0.6875 
Q 15.09375 0.046875 10.984375 1.515625 
z
M 30.609375 32.421875 
Q 37.25 32.421875 41.125 36.953125 
Q 45.015625 41.5 45.015625 49.421875 
Q 45.015625 57.28125 41.125 61.84375 
Q 37.25 66.40625 30.609375 66.40625 
Q 23.96875 66.40625 20.09375 61.84375 
Q 16.21875 57.28125 16.21875 49.421875 
Q 16.21875 41.5 20.09375 36.953125 
Q 23.96875 32.421875 30.609375 32.421875 
z
" id="DejaVuSans-57"/>
      </defs>
      <g transform="translate(786.095 544.452384)rotate(-30)scale(0.13 -0.13)">
       <use xlink:href="#DejaVuSans-50"/>
       <use x="63.623047" xlink:href="#DejaVuSans-48"/>
       <use x="127.246094" xlink:href="#DejaVuSans-50"/>
       <use x="190.869141" xlink:href="#DejaVuSans-48"/>
       <use x="254.492188" xlink:href="#DejaVuSans-45"/>
       <use x="290.576172" xlink:href="#DejaVuSans-48"/>
       <use x="354.199219" xlink:href="#DejaVuSans-57"/>
      </g>
     </g>
    </g>
    <g id="xtick_7">
     <g id="line2d_7">
      <g>
       <use style="stroke:#000000;stroke-width:0.8;" x="967.98009" xlink:href="#mbfea5926de" y="501.738984"/>
      </g>
     </g>
     <g id="text_7">
      <!-- 2020-10 -->
      <defs>
       <path d="M 12.40625 8.296875 
L 28.515625 8.296875 
L 28.515625 63.921875 
L 10.984375 60.40625 
L 10.984375 69.390625 
L 28.421875 72.90625 
L 38.28125 72.90625 
L 38.28125 8.296875 
L 54.390625 8.296875 
L 54.390625 0 
L 12.40625 0 
z
" id="DejaVuSans-49"/>
      </defs>
      <g transform="translate(919.587823 544.452384)rotate(-30)scale(0.13 -0.13)">
       <use xlink:href="#DejaVuSans-50"/>
       <use x="63.623047" xlink:href="#DejaVuSans-48"/>
       <use x="127.246094" xlink:href="#DejaVuSans-50"/>
       <use x="190.869141" xlink:href="#DejaVuSans-48"/>
       <use x="254.492188" xlink:href="#DejaVuSans-45"/>
       <use x="290.576172" xlink:href="#DejaVuSans-49"/>
       <use x="354.199219" xlink:href="#DejaVuSans-48"/>
      </g>
     </g>
    </g>
    <g id="xtick_8">
     <g id="line2d_8">
      <g>
       <use style="stroke:#000000;stroke-width:0.8;" x="1105.922673" xlink:href="#mbfea5926de" y="501.738984"/>
      </g>
     </g>
     <g id="text_8">
      <!-- 2020-11 -->
      <g transform="translate(1057.530406 544.452384)rotate(-30)scale(0.13 -0.13)">
       <use xlink:href="#DejaVuSans-50"/>
       <use x="63.623047" xlink:href="#DejaVuSans-48"/>
       <use x="127.246094" xlink:href="#DejaVuSans-50"/>
       <use x="190.869141" xlink:href="#DejaVuSans-48"/>
       <use x="254.492188" xlink:href="#DejaVuSans-45"/>
       <use x="290.576172" xlink:href="#DejaVuSans-49"/>
       <use x="354.199219" xlink:href="#DejaVuSans-49"/>
      </g>
     </g>
    </g>
   </g>
   <g id="matplotlib.axis_2">
    <g id="ytick_1">
     <g id="line2d_9">
      <path clip-path="url(#p9ed93930f0)" d="M 62.89875 484.042599 
L 1178.89875 484.042599 
" style="fill:none;stroke:#b0b0b0;stroke-linecap:square;stroke-width:0.8;"/>
     </g>
     <g id="line2d_10">
      <defs>
       <path d="M 0 0 
L -3.5 0 
" id="mea73e9f534" style="stroke:#000000;stroke-width:0.8;"/>
      </defs>
      <g>
       <use style="stroke:#000000;stroke-width:0.8;" x="62.89875" xlink:href="#mea73e9f534" y="484.042599"/>
      </g>
     </g>
     <g id="text_9">
      <!-- 0 -->
      <g transform="translate(47.6275 488.981583)scale(0.13 -0.13)">
       <use xlink:href="#DejaVuSans-48"/>
      </g>
     </g>
    </g>
    <g id="ytick_2">
     <g id="line2d_11">
      <path clip-path="url(#p9ed93930f0)" d="M 62.89875 469.295611 
L 1178.89875 469.295611 
" style="fill:none;stroke:#b0b0b0;stroke-linecap:square;stroke-width:0.8;"/>
     </g>
     <g id="line2d_12">
      <g>
       <use style="stroke:#000000;stroke-width:0.8;" x="62.89875" xlink:href="#mea73e9f534" y="469.295611"/>
      </g>
     </g>
     <g id="text_10">
      <!-- 100 -->
      <g transform="translate(31.085 474.234595)scale(0.13 -0.13)">
       <use xlink:href="#DejaVuSans-49"/>
       <use x="63.623047" xlink:href="#DejaVuSans-48"/>
       <use x="127.246094" xlink:href="#DejaVuSans-48"/>
      </g>
     </g>
    </g>
    <g id="ytick_3">
     <g id="line2d_13">
      <path clip-path="url(#p9ed93930f0)" d="M 62.89875 454.548623 
L 1178.89875 454.548623 
" style="fill:none;stroke:#b0b0b0;stroke-linecap:square;stroke-width:0.8;"/>
     </g>
     <g id="line2d_14">
      <g>
       <use style="stroke:#000000;stroke-width:0.8;" x="62.89875" xlink:href="#mea73e9f534" y="454.548623"/>
      </g>
     </g>
     <g id="text_11">
      <!-- 200 -->
      <g transform="translate(31.085 459.487607)scale(0.13 -0.13)">
       <use xlink:href="#DejaVuSans-50"/>
       <use x="63.623047" xlink:href="#DejaVuSans-48"/>
       <use x="127.246094" xlink:href="#DejaVuSans-48"/>
      </g>
     </g>
    </g>
    <g id="ytick_4">
     <g id="line2d_15">
      <path clip-path="url(#p9ed93930f0)" d="M 62.89875 439.801635 
L 1178.89875 439.801635 
" style="fill:none;stroke:#b0b0b0;stroke-linecap:square;stroke-width:0.8;"/>
     </g>
     <g id="line2d_16">
      <g>
       <use style="stroke:#000000;stroke-width:0.8;" x="62.89875" xlink:href="#mea73e9f534" y="439.801635"/>
      </g>
     </g>
     <g id="text_12">
      <!-- 300 -->
      <defs>
       <path d="M 40.578125 39.3125 
Q 47.65625 37.796875 51.625 33 
Q 55.609375 28.21875 55.609375 21.1875 
Q 55.609375 10.40625 48.1875 4.484375 
Q 40.765625 -1.421875 27.09375 -1.421875 
Q 22.515625 -1.421875 17.65625 -0.515625 
Q 12.796875 0.390625 7.625 2.203125 
L 7.625 11.71875 
Q 11.71875 9.328125 16.59375 8.109375 
Q 21.484375 6.890625 26.8125 6.890625 
Q 36.078125 6.890625 40.9375 10.546875 
Q 45.796875 14.203125 45.796875 21.1875 
Q 45.796875 27.640625 41.28125 31.265625 
Q 36.765625 34.90625 28.71875 34.90625 
L 20.21875 34.90625 
L 20.21875 43.015625 
L 29.109375 43.015625 
Q 36.375 43.015625 40.234375 45.921875 
Q 44.09375 48.828125 44.09375 54.296875 
Q 44.09375 59.90625 40.109375 62.90625 
Q 36.140625 65.921875 28.71875 65.921875 
Q 24.65625 65.921875 20.015625 65.03125 
Q 15.375 64.15625 9.8125 62.3125 
L 9.8125 71.09375 
Q 15.4375 72.65625 20.34375 73.4375 
Q 25.25 74.21875 29.59375 74.21875 
Q 40.828125 74.21875 47.359375 69.109375 
Q 53.90625 64.015625 53.90625 55.328125 
Q 53.90625 49.265625 50.4375 45.09375 
Q 46.96875 40.921875 40.578125 39.3125 
z
" id="DejaVuSans-51"/>
      </defs>
      <g transform="translate(31.085 444.740619)scale(0.13 -0.13)">
       <use xlink:href="#DejaVuSans-51"/>
       <use x="63.623047" xlink:href="#DejaVuSans-48"/>
       <use x="127.246094" xlink:href="#DejaVuSans-48"/>
      </g>
     </g>
    </g>
    <g id="ytick_5">
     <g id="line2d_17">
      <path clip-path="url(#p9ed93930f0)" d="M 62.89875 425.054647 
L 1178.89875 425.054647 
" style="fill:none;stroke:#b0b0b0;stroke-linecap:square;stroke-width:0.8;"/>
     </g>
     <g id="line2d_18">
      <g>
       <use style="stroke:#000000;stroke-width:0.8;" x="62.89875" xlink:href="#mea73e9f534" y="425.054647"/>
      </g>
     </g>
     <g id="text_13">
      <!-- 400 -->
      <g transform="translate(31.085 429.993631)scale(0.13 -0.13)">
       <use xlink:href="#DejaVuSans-52"/>
       <use x="63.623047" xlink:href="#DejaVuSans-48"/>
       <use x="127.246094" xlink:href="#DejaVuSans-48"/>
      </g>
     </g>
    </g>
    <g id="ytick_6">
     <g id="line2d_19">
      <path clip-path="url(#p9ed93930f0)" d="M 62.89875 410.307659 
L 1178.89875 410.307659 
" style="fill:none;stroke:#b0b0b0;stroke-linecap:square;stroke-width:0.8;"/>
     </g>
     <g id="line2d_20">
      <g>
       <use style="stroke:#000000;stroke-width:0.8;" x="62.89875" xlink:href="#mea73e9f534" y="410.307659"/>
      </g>
     </g>
     <g id="text_14">
      <!-- 500 -->
      <g transform="translate(31.085 415.246643)scale(0.13 -0.13)">
       <use xlink:href="#DejaVuSans-53"/>
       <use x="63.623047" xlink:href="#DejaVuSans-48"/>
       <use x="127.246094" xlink:href="#DejaVuSans-48"/>
      </g>
     </g>
    </g>
    <g id="ytick_7">
     <g id="line2d_21">
      <path clip-path="url(#p9ed93930f0)" d="M 62.89875 395.560671 
L 1178.89875 395.560671 
" style="fill:none;stroke:#b0b0b0;stroke-linecap:square;stroke-width:0.8;"/>
     </g>
     <g id="line2d_22">
      <g>
       <use style="stroke:#000000;stroke-width:0.8;" x="62.89875" xlink:href="#mea73e9f534" y="395.560671"/>
      </g>
     </g>
     <g id="text_15">
      <!-- 600 -->
      <g transform="translate(31.085 400.499655)scale(0.13 -0.13)">
       <use xlink:href="#DejaVuSans-54"/>
       <use x="63.623047" xlink:href="#DejaVuSans-48"/>
       <use x="127.246094" xlink:href="#DejaVuSans-48"/>
      </g>
     </g>
    </g>
    <g id="ytick_8">
     <g id="line2d_23">
      <path clip-path="url(#p9ed93930f0)" d="M 62.89875 380.813683 
L 1178.89875 380.813683 
" style="fill:none;stroke:#b0b0b0;stroke-linecap:square;stroke-width:0.8;"/>
     </g>
     <g id="line2d_24">
      <g>
       <use style="stroke:#000000;stroke-width:0.8;" x="62.89875" xlink:href="#mea73e9f534" y="380.813683"/>
      </g>
     </g>
     <g id="text_16">
      <!-- 700 -->
      <g transform="translate(31.085 385.752668)scale(0.13 -0.13)">
       <use xlink:href="#DejaVuSans-55"/>
       <use x="63.623047" xlink:href="#DejaVuSans-48"/>
       <use x="127.246094" xlink:href="#DejaVuSans-48"/>
      </g>
     </g>
    </g>
    <g id="ytick_9">
     <g id="line2d_25">
      <path clip-path="url(#p9ed93930f0)" d="M 62.89875 366.066695 
L 1178.89875 366.066695 
" style="fill:none;stroke:#b0b0b0;stroke-linecap:square;stroke-width:0.8;"/>
     </g>
     <g id="line2d_26">
      <g>
       <use style="stroke:#000000;stroke-width:0.8;" x="62.89875" xlink:href="#mea73e9f534" y="366.066695"/>
      </g>
     </g>
     <g id="text_17">
      <!-- 800 -->
      <g transform="translate(31.085 371.00568)scale(0.13 -0.13)">
       <use xlink:href="#DejaVuSans-56"/>
       <use x="63.623047" xlink:href="#DejaVuSans-48"/>
       <use x="127.246094" xlink:href="#DejaVuSans-48"/>
      </g>
     </g>
    </g>
    <g id="ytick_10">
     <g id="line2d_27">
      <path clip-path="url(#p9ed93930f0)" d="M 62.89875 351.319707 
L 1178.89875 351.319707 
" style="fill:none;stroke:#b0b0b0;stroke-linecap:square;stroke-width:0.8;"/>
     </g>
     <g id="line2d_28">
      <g>
       <use style="stroke:#000000;stroke-width:0.8;" x="62.89875" xlink:href="#mea73e9f534" y="351.319707"/>
      </g>
     </g>
     <g id="text_18">
      <!-- 900 -->
      <g transform="translate(31.085 356.258692)scale(0.13 -0.13)">
       <use xlink:href="#DejaVuSans-57"/>
       <use x="63.623047" xlink:href="#DejaVuSans-48"/>
       <use x="127.246094" xlink:href="#DejaVuSans-48"/>
      </g>
     </g>
    </g>
    <g id="ytick_11">
     <g id="line2d_29">
      <path clip-path="url(#p9ed93930f0)" d="M 62.89875 336.572719 
L 1178.89875 336.572719 
" style="fill:none;stroke:#b0b0b0;stroke-linecap:square;stroke-width:0.8;"/>
     </g>
     <g id="line2d_30">
      <g>
       <use style="stroke:#000000;stroke-width:0.8;" x="62.89875" xlink:href="#mea73e9f534" y="336.572719"/>
      </g>
     </g>
     <g id="text_19">
      <!-- 1000 -->
      <g transform="translate(22.81375 341.511704)scale(0.13 -0.13)">
       <use xlink:href="#DejaVuSans-49"/>
       <use x="63.623047" xlink:href="#DejaVuSans-48"/>
       <use x="127.246094" xlink:href="#DejaVuSans-48"/>
       <use x="190.869141" xlink:href="#DejaVuSans-48"/>
      </g>
     </g>
    </g>
    <g id="ytick_12">
     <g id="line2d_31">
      <path clip-path="url(#p9ed93930f0)" d="M 62.89875 321.825731 
L 1178.89875 321.825731 
" style="fill:none;stroke:#b0b0b0;stroke-linecap:square;stroke-width:0.8;"/>
     </g>
     <g id="line2d_32">
      <g>
       <use style="stroke:#000000;stroke-width:0.8;" x="62.89875" xlink:href="#mea73e9f534" y="321.825731"/>
      </g>
     </g>
     <g id="text_20">
      <!-- 1100 -->
      <g transform="translate(22.81375 326.764716)scale(0.13 -0.13)">
       <use xlink:href="#DejaVuSans-49"/>
       <use x="63.623047" xlink:href="#DejaVuSans-49"/>
       <use x="127.246094" xlink:href="#DejaVuSans-48"/>
       <use x="190.869141" xlink:href="#DejaVuSans-48"/>
      </g>
     </g>
    </g>
    <g id="ytick_13">
     <g id="line2d_33">
      <path clip-path="url(#p9ed93930f0)" d="M 62.89875 307.078743 
L 1178.89875 307.078743 
" style="fill:none;stroke:#b0b0b0;stroke-linecap:square;stroke-width:0.8;"/>
     </g>
     <g id="line2d_34">
      <g>
       <use style="stroke:#000000;stroke-width:0.8;" x="62.89875" xlink:href="#mea73e9f534" y="307.078743"/>
      </g>
     </g>
     <g id="text_21">
      <!-- 1200 -->
      <g transform="translate(22.81375 312.017728)scale(0.13 -0.13)">
       <use xlink:href="#DejaVuSans-49"/>
       <use x="63.623047" xlink:href="#DejaVuSans-50"/>
       <use x="127.246094" xlink:href="#DejaVuSans-48"/>
       <use x="190.869141" xlink:href="#DejaVuSans-48"/>
      </g>
     </g>
    </g>
    <g id="ytick_14">
     <g id="line2d_35">
      <path clip-path="url(#p9ed93930f0)" d="M 62.89875 292.331755 
L 1178.89875 292.331755 
" style="fill:none;stroke:#b0b0b0;stroke-linecap:square;stroke-width:0.8;"/>
     </g>
     <g id="line2d_36">
      <g>
       <use style="stroke:#000000;stroke-width:0.8;" x="62.89875" xlink:href="#mea73e9f534" y="292.331755"/>
      </g>
     </g>
     <g id="text_22">
      <!-- 1300 -->
      <g transform="translate(22.81375 297.27074)scale(0.13 -0.13)">
       <use xlink:href="#DejaVuSans-49"/>
       <use x="63.623047" xlink:href="#DejaVuSans-51"/>
       <use x="127.246094" xlink:href="#DejaVuSans-48"/>
       <use x="190.869141" xlink:href="#DejaVuSans-48"/>
      </g>
     </g>
    </g>
    <g id="ytick_15">
     <g id="line2d_37">
      <path clip-path="url(#p9ed93930f0)" d="M 62.89875 277.584768 
L 1178.89875 277.584768 
" style="fill:none;stroke:#b0b0b0;stroke-linecap:square;stroke-width:0.8;"/>
     </g>
     <g id="line2d_38">
      <g>
       <use style="stroke:#000000;stroke-width:0.8;" x="62.89875" xlink:href="#mea73e9f534" y="277.584768"/>
      </g>
     </g>
     <g id="text_23">
      <!-- 1400 -->
      <g transform="translate(22.81375 282.523752)scale(0.13 -0.13)">
       <use xlink:href="#DejaVuSans-49"/>
       <use x="63.623047" xlink:href="#DejaVuSans-52"/>
       <use x="127.246094" xlink:href="#DejaVuSans-48"/>
       <use x="190.869141" xlink:href="#DejaVuSans-48"/>
      </g>
     </g>
    </g>
    <g id="ytick_16">
     <g id="line2d_39">
      <path clip-path="url(#p9ed93930f0)" d="M 62.89875 262.83778 
L 1178.89875 262.83778 
" style="fill:none;stroke:#b0b0b0;stroke-linecap:square;stroke-width:0.8;"/>
     </g>
     <g id="line2d_40">
      <g>
       <use style="stroke:#000000;stroke-width:0.8;" x="62.89875" xlink:href="#mea73e9f534" y="262.83778"/>
      </g>
     </g>
     <g id="text_24">
      <!-- 1500 -->
      <g transform="translate(22.81375 267.776764)scale(0.13 -0.13)">
       <use xlink:href="#DejaVuSans-49"/>
       <use x="63.623047" xlink:href="#DejaVuSans-53"/>
       <use x="127.246094" xlink:href="#DejaVuSans-48"/>
       <use x="190.869141" xlink:href="#DejaVuSans-48"/>
      </g>
     </g>
    </g>
    <g id="ytick_17">
     <g id="line2d_41">
      <path clip-path="url(#p9ed93930f0)" d="M 62.89875 248.090792 
L 1178.89875 248.090792 
" style="fill:none;stroke:#b0b0b0;stroke-linecap:square;stroke-width:0.8;"/>
     </g>
     <g id="line2d_42">
      <g>
       <use style="stroke:#000000;stroke-width:0.8;" x="62.89875" xlink:href="#mea73e9f534" y="248.090792"/>
      </g>
     </g>
     <g id="text_25">
      <!-- 1600 -->
      <g transform="translate(22.81375 253.029776)scale(0.13 -0.13)">
       <use xlink:href="#DejaVuSans-49"/>
       <use x="63.623047" xlink:href="#DejaVuSans-54"/>
       <use x="127.246094" xlink:href="#DejaVuSans-48"/>
       <use x="190.869141" xlink:href="#DejaVuSans-48"/>
      </g>
     </g>
    </g>
    <g id="ytick_18">
     <g id="line2d_43">
      <path clip-path="url(#p9ed93930f0)" d="M 62.89875 233.343804 
L 1178.89875 233.343804 
" style="fill:none;stroke:#b0b0b0;stroke-linecap:square;stroke-width:0.8;"/>
     </g>
     <g id="line2d_44">
      <g>
       <use style="stroke:#000000;stroke-width:0.8;" x="62.89875" xlink:href="#mea73e9f534" y="233.343804"/>
      </g>
     </g>
     <g id="text_26">
      <!-- 1700 -->
      <g transform="translate(22.81375 238.282788)scale(0.13 -0.13)">
       <use xlink:href="#DejaVuSans-49"/>
       <use x="63.623047" xlink:href="#DejaVuSans-55"/>
       <use x="127.246094" xlink:href="#DejaVuSans-48"/>
       <use x="190.869141" xlink:href="#DejaVuSans-48"/>
      </g>
     </g>
    </g>
    <g id="ytick_19">
     <g id="line2d_45">
      <path clip-path="url(#p9ed93930f0)" d="M 62.89875 218.596816 
L 1178.89875 218.596816 
" style="fill:none;stroke:#b0b0b0;stroke-linecap:square;stroke-width:0.8;"/>
     </g>
     <g id="line2d_46">
      <g>
       <use style="stroke:#000000;stroke-width:0.8;" x="62.89875" xlink:href="#mea73e9f534" y="218.596816"/>
      </g>
     </g>
     <g id="text_27">
      <!-- 1800 -->
      <g transform="translate(22.81375 223.5358)scale(0.13 -0.13)">
       <use xlink:href="#DejaVuSans-49"/>
       <use x="63.623047" xlink:href="#DejaVuSans-56"/>
       <use x="127.246094" xlink:href="#DejaVuSans-48"/>
       <use x="190.869141" xlink:href="#DejaVuSans-48"/>
      </g>
     </g>
    </g>
    <g id="ytick_20">
     <g id="line2d_47">
      <path clip-path="url(#p9ed93930f0)" d="M 62.89875 203.849828 
L 1178.89875 203.849828 
" style="fill:none;stroke:#b0b0b0;stroke-linecap:square;stroke-width:0.8;"/>
     </g>
     <g id="line2d_48">
      <g>
       <use style="stroke:#000000;stroke-width:0.8;" x="62.89875" xlink:href="#mea73e9f534" y="203.849828"/>
      </g>
     </g>
     <g id="text_28">
      <!-- 1900 -->
      <g transform="translate(22.81375 208.788812)scale(0.13 -0.13)">
       <use xlink:href="#DejaVuSans-49"/>
       <use x="63.623047" xlink:href="#DejaVuSans-57"/>
       <use x="127.246094" xlink:href="#DejaVuSans-48"/>
       <use x="190.869141" xlink:href="#DejaVuSans-48"/>
      </g>
     </g>
    </g>
    <g id="ytick_21">
     <g id="line2d_49">
      <path clip-path="url(#p9ed93930f0)" d="M 62.89875 189.10284 
L 1178.89875 189.10284 
" style="fill:none;stroke:#b0b0b0;stroke-linecap:square;stroke-width:0.8;"/>
     </g>
     <g id="line2d_50">
      <g>
       <use style="stroke:#000000;stroke-width:0.8;" x="62.89875" xlink:href="#mea73e9f534" y="189.10284"/>
      </g>
     </g>
     <g id="text_29">
      <!-- 2000 -->
      <g transform="translate(22.81375 194.041824)scale(0.13 -0.13)">
       <use xlink:href="#DejaVuSans-50"/>
       <use x="63.623047" xlink:href="#DejaVuSans-48"/>
       <use x="127.246094" xlink:href="#DejaVuSans-48"/>
       <use x="190.869141" xlink:href="#DejaVuSans-48"/>
      </g>
     </g>
    </g>
    <g id="ytick_22">
     <g id="line2d_51">
      <path clip-path="url(#p9ed93930f0)" d="M 62.89875 174.355852 
L 1178.89875 174.355852 
" style="fill:none;stroke:#b0b0b0;stroke-linecap:square;stroke-width:0.8;"/>
     </g>
     <g id="line2d_52">
      <g>
       <use style="stroke:#000000;stroke-width:0.8;" x="62.89875" xlink:href="#mea73e9f534" y="174.355852"/>
      </g>
     </g>
     <g id="text_30">
      <!-- 2100 -->
      <g transform="translate(22.81375 179.294836)scale(0.13 -0.13)">
       <use xlink:href="#DejaVuSans-50"/>
       <use x="63.623047" xlink:href="#DejaVuSans-49"/>
       <use x="127.246094" xlink:href="#DejaVuSans-48"/>
       <use x="190.869141" xlink:href="#DejaVuSans-48"/>
      </g>
     </g>
    </g>
    <g id="ytick_23">
     <g id="line2d_53">
      <path clip-path="url(#p9ed93930f0)" d="M 62.89875 159.608864 
L 1178.89875 159.608864 
" style="fill:none;stroke:#b0b0b0;stroke-linecap:square;stroke-width:0.8;"/>
     </g>
     <g id="line2d_54">
      <g>
       <use style="stroke:#000000;stroke-width:0.8;" x="62.89875" xlink:href="#mea73e9f534" y="159.608864"/>
      </g>
     </g>
     <g id="text_31">
      <!-- 2200 -->
      <g transform="translate(22.81375 164.547848)scale(0.13 -0.13)">
       <use xlink:href="#DejaVuSans-50"/>
       <use x="63.623047" xlink:href="#DejaVuSans-50"/>
       <use x="127.246094" xlink:href="#DejaVuSans-48"/>
       <use x="190.869141" xlink:href="#DejaVuSans-48"/>
      </g>
     </g>
    </g>
    <g id="ytick_24">
     <g id="line2d_55">
      <path clip-path="url(#p9ed93930f0)" d="M 62.89875 144.861876 
L 1178.89875 144.861876 
" style="fill:none;stroke:#b0b0b0;stroke-linecap:square;stroke-width:0.8;"/>
     </g>
     <g id="line2d_56">
      <g>
       <use style="stroke:#000000;stroke-width:0.8;" x="62.89875" xlink:href="#mea73e9f534" y="144.861876"/>
      </g>
     </g>
     <g id="text_32">
      <!-- 2300 -->
      <g transform="translate(22.81375 149.80086)scale(0.13 -0.13)">
       <use xlink:href="#DejaVuSans-50"/>
       <use x="63.623047" xlink:href="#DejaVuSans-51"/>
       <use x="127.246094" xlink:href="#DejaVuSans-48"/>
       <use x="190.869141" xlink:href="#DejaVuSans-48"/>
      </g>
     </g>
    </g>
    <g id="ytick_25">
     <g id="line2d_57">
      <path clip-path="url(#p9ed93930f0)" d="M 62.89875 130.114888 
L 1178.89875 130.114888 
" style="fill:none;stroke:#b0b0b0;stroke-linecap:square;stroke-width:0.8;"/>
     </g>
     <g id="line2d_58">
      <g>
       <use style="stroke:#000000;stroke-width:0.8;" x="62.89875" xlink:href="#mea73e9f534" y="130.114888"/>
      </g>
     </g>
     <g id="text_33">
      <!-- 2400 -->
      <g transform="translate(22.81375 135.053872)scale(0.13 -0.13)">
       <use xlink:href="#DejaVuSans-50"/>
       <use x="63.623047" xlink:href="#DejaVuSans-52"/>
       <use x="127.246094" xlink:href="#DejaVuSans-48"/>
       <use x="190.869141" xlink:href="#DejaVuSans-48"/>
      </g>
     </g>
    </g>
    <g id="ytick_26">
     <g id="line2d_59">
      <path clip-path="url(#p9ed93930f0)" d="M 62.89875 115.3679 
L 1178.89875 115.3679 
" style="fill:none;stroke:#b0b0b0;stroke-linecap:square;stroke-width:0.8;"/>
     </g>
     <g id="line2d_60">
      <g>
       <use style="stroke:#000000;stroke-width:0.8;" x="62.89875" xlink:href="#mea73e9f534" y="115.3679"/>
      </g>
     </g>
     <g id="text_34">
      <!-- 2500 -->
      <g transform="translate(22.81375 120.306884)scale(0.13 -0.13)">
       <use xlink:href="#DejaVuSans-50"/>
       <use x="63.623047" xlink:href="#DejaVuSans-53"/>
       <use x="127.246094" xlink:href="#DejaVuSans-48"/>
       <use x="190.869141" xlink:href="#DejaVuSans-48"/>
      </g>
     </g>
    </g>
    <g id="ytick_27">
     <g id="line2d_61">
      <path clip-path="url(#p9ed93930f0)" d="M 62.89875 100.620912 
L 1178.89875 100.620912 
" style="fill:none;stroke:#b0b0b0;stroke-linecap:square;stroke-width:0.8;"/>
     </g>
     <g id="line2d_62">
      <g>
       <use style="stroke:#000000;stroke-width:0.8;" x="62.89875" xlink:href="#mea73e9f534" y="100.620912"/>
      </g>
     </g>
     <g id="text_35">
      <!-- 2600 -->
      <g transform="translate(22.81375 105.559896)scale(0.13 -0.13)">
       <use xlink:href="#DejaVuSans-50"/>
       <use x="63.623047" xlink:href="#DejaVuSans-54"/>
       <use x="127.246094" xlink:href="#DejaVuSans-48"/>
       <use x="190.869141" xlink:href="#DejaVuSans-48"/>
      </g>
     </g>
    </g>
    <g id="ytick_28">
     <g id="line2d_63">
      <path clip-path="url(#p9ed93930f0)" d="M 62.89875 85.873924 
L 1178.89875 85.873924 
" style="fill:none;stroke:#b0b0b0;stroke-linecap:square;stroke-width:0.8;"/>
     </g>
     <g id="line2d_64">
      <g>
       <use style="stroke:#000000;stroke-width:0.8;" x="62.89875" xlink:href="#mea73e9f534" y="85.873924"/>
      </g>
     </g>
     <g id="text_36">
      <!-- 2700 -->
      <g transform="translate(22.81375 90.812909)scale(0.13 -0.13)">
       <use xlink:href="#DejaVuSans-50"/>
       <use x="63.623047" xlink:href="#DejaVuSans-55"/>
       <use x="127.246094" xlink:href="#DejaVuSans-48"/>
       <use x="190.869141" xlink:href="#DejaVuSans-48"/>
      </g>
     </g>
    </g>
    <g id="ytick_29">
     <g id="line2d_65">
      <path clip-path="url(#p9ed93930f0)" d="M 62.89875 71.126936 
L 1178.89875 71.126936 
" style="fill:none;stroke:#b0b0b0;stroke-linecap:square;stroke-width:0.8;"/>
     </g>
     <g id="line2d_66">
      <g>
       <use style="stroke:#000000;stroke-width:0.8;" x="62.89875" xlink:href="#mea73e9f534" y="71.126936"/>
      </g>
     </g>
     <g id="text_37">
      <!-- 2800 -->
      <g transform="translate(22.81375 76.065921)scale(0.13 -0.13)">
       <use xlink:href="#DejaVuSans-50"/>
       <use x="63.623047" xlink:href="#DejaVuSans-56"/>
       <use x="127.246094" xlink:href="#DejaVuSans-48"/>
       <use x="190.869141" xlink:href="#DejaVuSans-48"/>
      </g>
     </g>
    </g>
    <g id="ytick_30">
     <g id="line2d_67">
      <path clip-path="url(#p9ed93930f0)" d="M 62.89875 56.379948 
L 1178.89875 56.379948 
" style="fill:none;stroke:#b0b0b0;stroke-linecap:square;stroke-width:0.8;"/>
     </g>
     <g id="line2d_68">
      <g>
       <use style="stroke:#000000;stroke-width:0.8;" x="62.89875" xlink:href="#mea73e9f534" y="56.379948"/>
      </g>
     </g>
     <g id="text_38">
      <!-- 2900 -->
      <g transform="translate(22.81375 61.318933)scale(0.13 -0.13)">
       <use xlink:href="#DejaVuSans-50"/>
       <use x="63.623047" xlink:href="#DejaVuSans-57"/>
       <use x="127.246094" xlink:href="#DejaVuSans-48"/>
       <use x="190.869141" xlink:href="#DejaVuSans-48"/>
      </g>
     </g>
    </g>
    <g id="ytick_31">
     <g id="line2d_69">
      <path clip-path="url(#p9ed93930f0)" d="M 62.89875 41.63296 
L 1178.89875 41.63296 
" style="fill:none;stroke:#b0b0b0;stroke-linecap:square;stroke-width:0.8;"/>
     </g>
     <g id="line2d_70">
      <g>
       <use style="stroke:#000000;stroke-width:0.8;" x="62.89875" xlink:href="#mea73e9f534" y="41.63296"/>
      </g>
     </g>
     <g id="text_39">
      <!-- 3000 -->
      <g transform="translate(22.81375 46.571945)scale(0.13 -0.13)">
       <use xlink:href="#DejaVuSans-51"/>
       <use x="63.623047" xlink:href="#DejaVuSans-48"/>
       <use x="127.246094" xlink:href="#DejaVuSans-48"/>
       <use x="190.869141" xlink:href="#DejaVuSans-48"/>
      </g>
     </g>
    </g>
    <g id="ytick_32">
     <g id="line2d_71">
      <path clip-path="url(#p9ed93930f0)" d="M 62.89875 26.885972 
L 1178.89875 26.885972 
" style="fill:none;stroke:#b0b0b0;stroke-linecap:square;stroke-width:0.8;"/>
     </g>
     <g id="line2d_72">
      <g>
       <use style="stroke:#000000;stroke-width:0.8;" x="62.89875" xlink:href="#mea73e9f534" y="26.885972"/>
      </g>
     </g>
     <g id="text_40">
      <!-- 3100 -->
      <g transform="translate(22.81375 31.824957)scale(0.13 -0.13)">
       <use xlink:href="#DejaVuSans-51"/>
       <use x="63.623047" xlink:href="#DejaVuSans-49"/>
       <use x="127.246094" xlink:href="#DejaVuSans-48"/>
       <use x="190.869141" xlink:href="#DejaVuSans-48"/>
      </g>
     </g>
    </g>
    <g id="ytick_33">
     <g id="line2d_73">
      <path clip-path="url(#p9ed93930f0)" d="M 62.89875 12.138984 
L 1178.89875 12.138984 
" style="fill:none;stroke:#b0b0b0;stroke-linecap:square;stroke-width:0.8;"/>
     </g>
     <g id="line2d_74">
      <g>
       <use style="stroke:#000000;stroke-width:0.8;" x="62.89875" xlink:href="#mea73e9f534" y="12.138984"/>
      </g>
     </g>
     <g id="text_41">
      <!-- 3200 -->
      <g transform="translate(22.81375 17.077969)scale(0.13 -0.13)">
       <use xlink:href="#DejaVuSans-51"/>
       <use x="63.623047" xlink:href="#DejaVuSans-50"/>
       <use x="127.246094" xlink:href="#DejaVuSans-48"/>
       <use x="190.869141" xlink:href="#DejaVuSans-48"/>
      </g>
     </g>
    </g>
    <g id="text_42">
     <!-- Anzahl von Fällen -->
     <defs>
      <path d="M 34.1875 63.1875 
L 20.796875 26.90625 
L 47.609375 26.90625 
z
M 28.609375 72.90625 
L 39.796875 72.90625 
L 67.578125 0 
L 57.328125 0 
L 50.6875 18.703125 
L 17.828125 18.703125 
L 11.1875 0 
L 0.78125 0 
z
" id="DejaVuSans-65"/>
      <path d="M 54.890625 33.015625 
L 54.890625 0 
L 45.90625 0 
L 45.90625 32.71875 
Q 45.90625 40.484375 42.875 44.328125 
Q 39.84375 48.1875 33.796875 48.1875 
Q 26.515625 48.1875 22.3125 43.546875 
Q 18.109375 38.921875 18.109375 30.90625 
L 18.109375 0 
L 9.078125 0 
L 9.078125 54.6875 
L 18.109375 54.6875 
L 18.109375 46.1875 
Q 21.34375 51.125 25.703125 53.5625 
Q 30.078125 56 35.796875 56 
Q 45.21875 56 50.046875 50.171875 
Q 54.890625 44.34375 54.890625 33.015625 
z
" id="DejaVuSans-110"/>
      <path d="M 5.515625 54.6875 
L 48.1875 54.6875 
L 48.1875 46.484375 
L 14.40625 7.171875 
L 48.1875 7.171875 
L 48.1875 0 
L 4.296875 0 
L 4.296875 8.203125 
L 38.09375 47.515625 
L 5.515625 47.515625 
z
" id="DejaVuSans-122"/>
      <path d="M 34.28125 27.484375 
Q 23.390625 27.484375 19.1875 25 
Q 14.984375 22.515625 14.984375 16.5 
Q 14.984375 11.71875 18.140625 8.90625 
Q 21.296875 6.109375 26.703125 6.109375 
Q 34.1875 6.109375 38.703125 11.40625 
Q 43.21875 16.703125 43.21875 25.484375 
L 43.21875 27.484375 
z
M 52.203125 31.203125 
L 52.203125 0 
L 43.21875 0 
L 43.21875 8.296875 
Q 40.140625 3.328125 35.546875 0.953125 
Q 30.953125 -1.421875 24.3125 -1.421875 
Q 15.921875 -1.421875 10.953125 3.296875 
Q 6 8.015625 6 15.921875 
Q 6 25.140625 12.171875 29.828125 
Q 18.359375 34.515625 30.609375 34.515625 
L 43.21875 34.515625 
L 43.21875 35.40625 
Q 43.21875 41.609375 39.140625 45 
Q 35.0625 48.390625 27.6875 48.390625 
Q 23 48.390625 18.546875 47.265625 
Q 14.109375 46.140625 10.015625 43.890625 
L 10.015625 52.203125 
Q 14.9375 54.109375 19.578125 55.046875 
Q 24.21875 56 28.609375 56 
Q 40.484375 56 46.34375 49.84375 
Q 52.203125 43.703125 52.203125 31.203125 
z
" id="DejaVuSans-97"/>
      <path d="M 54.890625 33.015625 
L 54.890625 0 
L 45.90625 0 
L 45.90625 32.71875 
Q 45.90625 40.484375 42.875 44.328125 
Q 39.84375 48.1875 33.796875 48.1875 
Q 26.515625 48.1875 22.3125 43.546875 
Q 18.109375 38.921875 18.109375 30.90625 
L 18.109375 0 
L 9.078125 0 
L 9.078125 75.984375 
L 18.109375 75.984375 
L 18.109375 46.1875 
Q 21.34375 51.125 25.703125 53.5625 
Q 30.078125 56 35.796875 56 
Q 45.21875 56 50.046875 50.171875 
Q 54.890625 44.34375 54.890625 33.015625 
z
" id="DejaVuSans-104"/>
      <path d="M 9.421875 75.984375 
L 18.40625 75.984375 
L 18.40625 0 
L 9.421875 0 
z
" id="DejaVuSans-108"/>
      <path id="DejaVuSans-32"/>
      <path d="M 2.984375 54.6875 
L 12.5 54.6875 
L 29.59375 8.796875 
L 46.6875 54.6875 
L 56.203125 54.6875 
L 35.6875 0 
L 23.484375 0 
z
" id="DejaVuSans-118"/>
      <path d="M 30.609375 48.390625 
Q 23.390625 48.390625 19.1875 42.75 
Q 14.984375 37.109375 14.984375 27.296875 
Q 14.984375 17.484375 19.15625 11.84375 
Q 23.34375 6.203125 30.609375 6.203125 
Q 37.796875 6.203125 41.984375 11.859375 
Q 46.1875 17.53125 46.1875 27.296875 
Q 46.1875 37.015625 41.984375 42.703125 
Q 37.796875 48.390625 30.609375 48.390625 
z
M 30.609375 56 
Q 42.328125 56 49.015625 48.375 
Q 55.71875 40.765625 55.71875 27.296875 
Q 55.71875 13.875 49.015625 6.21875 
Q 42.328125 -1.421875 30.609375 -1.421875 
Q 18.84375 -1.421875 12.171875 6.21875 
Q 5.515625 13.875 5.515625 27.296875 
Q 5.515625 40.765625 12.171875 48.375 
Q 18.84375 56 30.609375 56 
z
" id="DejaVuSans-111"/>
      <path d="M 9.8125 72.90625 
L 51.703125 72.90625 
L 51.703125 64.59375 
L 19.671875 64.59375 
L 19.671875 43.109375 
L 48.578125 43.109375 
L 48.578125 34.8125 
L 19.671875 34.8125 
L 19.671875 0 
L 9.8125 0 
z
" id="DejaVuSans-70"/>
      <path d="M 34.28125 27.484375 
Q 23.390625 27.484375 19.1875 25 
Q 14.984375 22.515625 14.984375 16.5 
Q 14.984375 11.71875 18.140625 8.90625 
Q 21.296875 6.109375 26.703125 6.109375 
Q 34.1875 6.109375 38.703125 11.40625 
Q 43.21875 16.703125 43.21875 25.484375 
L 43.21875 27.484375 
z
M 52.203125 31.203125 
L 52.203125 0 
L 43.21875 0 
L 43.21875 8.296875 
Q 40.140625 3.328125 35.546875 0.953125 
Q 30.953125 -1.421875 24.3125 -1.421875 
Q 15.921875 -1.421875 10.953125 3.296875 
Q 6 8.015625 6 15.921875 
Q 6 25.140625 12.171875 29.828125 
Q 18.359375 34.515625 30.609375 34.515625 
L 43.21875 34.515625 
L 43.21875 35.40625 
Q 43.21875 41.609375 39.140625 45 
Q 35.0625 48.390625 27.6875 48.390625 
Q 23 48.390625 18.546875 47.265625 
Q 14.109375 46.140625 10.015625 43.890625 
L 10.015625 52.203125 
Q 14.9375 54.109375 19.578125 55.046875 
Q 24.21875 56 28.609375 56 
Q 40.484375 56 46.34375 49.84375 
Q 52.203125 43.703125 52.203125 31.203125 
z
M 33.59375 75.78125 
L 43.5 75.78125 
L 43.5 65.921875 
L 33.59375 65.921875 
z
M 14.5 75.78125 
L 24.40625 75.78125 
L 24.40625 65.921875 
L 14.5 65.921875 
z
" id="DejaVuSans-228"/>
      <path d="M 56.203125 29.59375 
L 56.203125 25.203125 
L 14.890625 25.203125 
Q 15.484375 15.921875 20.484375 11.0625 
Q 25.484375 6.203125 34.421875 6.203125 
Q 39.59375 6.203125 44.453125 7.46875 
Q 49.3125 8.734375 54.109375 11.28125 
L 54.109375 2.78125 
Q 49.265625 0.734375 44.1875 -0.34375 
Q 39.109375 -1.421875 33.890625 -1.421875 
Q 20.796875 -1.421875 13.15625 6.1875 
Q 5.515625 13.8125 5.515625 26.8125 
Q 5.515625 40.234375 12.765625 48.109375 
Q 20.015625 56 32.328125 56 
Q 43.359375 56 49.78125 48.890625 
Q 56.203125 41.796875 56.203125 29.59375 
z
M 47.21875 32.234375 
Q 47.125 39.59375 43.09375 43.984375 
Q 39.0625 48.390625 32.421875 48.390625 
Q 24.90625 48.390625 20.390625 44.140625 
Q 15.875 39.890625 15.1875 32.171875 
z
" id="DejaVuSans-101"/>
     </defs>
     <g transform="translate(16.318125 309.388359)rotate(-90)scale(0.12 -0.12)">
      <use xlink:href="#DejaVuSans-65"/>
      <use x="68.408203" xlink:href="#DejaVuSans-110"/>
      <use x="131.787109" xlink:href="#DejaVuSans-122"/>
      <use x="184.277344" xlink:href="#DejaVuSans-97"/>
      <use x="245.556641" xlink:href="#DejaVuSans-104"/>
      <use x="308.935547" xlink:href="#DejaVuSans-108"/>
      <use x="336.71875" xlink:href="#DejaVuSans-32"/>
      <use x="368.505859" xlink:href="#DejaVuSans-118"/>
      <use x="427.685547" xlink:href="#DejaVuSans-111"/>
      <use x="488.867188" xlink:href="#DejaVuSans-110"/>
      <use x="552.246094" xlink:href="#DejaVuSans-32"/>
      <use x="584.033203" xlink:href="#DejaVuSans-70"/>
      <use x="632.427734" xlink:href="#DejaVuSans-228"/>
      <use x="693.707031" xlink:href="#DejaVuSans-108"/>
      <use x="721.490234" xlink:href="#DejaVuSans-108"/>
      <use x="749.273438" xlink:href="#DejaVuSans-101"/>
      <use x="810.796875" xlink:href="#DejaVuSans-110"/>
     </g>
    </g>
   </g>
   <g id="line2d_75">
    <path clip-path="url(#p9ed93930f0)" d="M 113.626023 483.15778 
L 118.075783 482.27296 
L 122.525544 480.355852 
L 126.975305 479.471033 
L 131.425066 476.079225 
L 135.874827 473.867177 
L 140.324587 470.91778 
L 144.774348 470.77031 
L 149.224109 463.101876 
L 153.67387 460.742358 
L 158.12363 457.64549 
L 162.573391 453.368864 
L 167.023152 451.599225 
L 171.472913 449.977057 
L 175.922673 447.027659 
L 180.372434 444.815611 
L 184.822195 441.718743 
L 189.271956 437.737057 
L 193.721717 434.935129 
L 198.171477 431.395852 
L 202.621238 428.888864 
L 211.52076 423.727418 
L 215.97052 419.598261 
L 220.420281 416.796334 
L 224.870042 412.077298 
L 229.319803 420.483081 
L 238.219324 395.118261 
L 242.669085 392.021394 
L 247.118846 385.827659 
L 251.568606 380.666213 
L 256.018367 374.030069 
L 260.468128 369.311033 
L 269.36765 362.527418 
L 273.81741 362.527418 
L 278.267171 356.038743 
L 282.716932 350.877298 
L 291.616453 345.273442 
L 300.515975 341.586695 
L 304.965736 338.932237 
L 309.415496 336.13031 
L 313.865257 334.360671 
L 318.315018 332.296093 
L 322.764779 328.756816 
L 331.6643 327.134647 
L 340.563822 324.480189 
L 345.013583 322.268141 
L 349.463343 320.351033 
L 353.913104 317.696575 
L 362.812626 315.337057 
L 367.262386 314.009828 
L 371.712147 312.240189 
L 380.611669 308.848382 
L 385.061429 308.258502 
L 393.960951 307.226213 
L 398.410712 307.226213 
L 407.310233 305.456575 
L 411.759994 304.719225 
L 429.559037 303.539466 
L 434.008798 303.097057 
L 442.908319 303.097057 
L 447.35808 302.802117 
L 460.707362 302.654647 
L 465.157123 302.064768 
L 474.056645 301.917298 
L 478.506406 301.622358 
L 496.305449 301.327418 
L 505.20497 301.327418 
L 509.654731 301.032478 
L 518.554252 300.737539 
L 523.004013 300.737539 
L 527.453774 300.295129 
L 540.803056 299.41031 
L 549.702578 299.11537 
L 554.152339 298.67296 
L 589.750425 298.67296 
L 594.200185 298.52549 
L 598.649946 298.52549 
L 611.999228 298.230551 
L 616.448989 297.640671 
L 620.89875 297.640671 
L 629.798272 297.345731 
L 643.147554 296.460912 
L 660.946597 296.460912 
L 674.295879 295.871033 
L 683.195401 295.871033 
L 692.094922 295.576093 
L 736.59253 289.529828 
L 741.042291 288.792478 
L 749.941812 287.907659 
L 754.391573 287.760189 
L 767.740855 284.663322 
L 772.190616 283.188623 
L 776.640377 280.976575 
L 781.090138 280.386695 
L 785.539898 280.239225 
L 803.338941 274.19296 
L 807.788702 273.603081 
L 812.238463 272.718261 
L 816.688224 271.980912 
L 830.037506 269.031514 
L 834.487267 268.294165 
L 838.937028 267.704286 
L 847.836549 266.229587 
L 861.185831 265.492237 
L 865.635592 265.492237 
L 870.085353 265.049828 
L 874.535114 264.754888 
L 878.984874 264.312478 
L 892.334157 263.132719 
L 896.783917 262.39537 
L 905.683439 261.80549 
L 910.1332 260.920671 
L 923.482482 255.906695 
L 927.932243 255.169346 
L 932.382004 253.399707 
L 936.831764 253.104768 
L 941.281525 252.514888 
L 954.630807 249.86043 
L 959.080568 249.56549 
L 963.530329 249.56549 
L 967.98009 248.533201 
L 972.42985 248.238261 
L 985.779133 242.929346 
L 990.228894 241.749587 
L 994.678654 239.242599 
L 999.128415 236.440671 
L 1016.927458 224.495611 
L 1021.377219 223.315852 
L 1052.525544 209.306213 
L 1056.975305 202.670069 
L 1061.425066 201.34284 
L 1065.874827 199.868141 
L 1079.224109 188.51296 
L 1083.67387 186.153442 
L 1088.12363 183.498984 
L 1092.573391 180.107177 
L 1097.023152 174.355852 
L 1110.372434 159.608864 
L 1114.822195 159.608864 
L 1119.271956 144.861876 
L 1123.721717 144.861876 
L 1128.171477 130.114888 
L 1128.171477 130.114888 
" style="fill:none;stroke:#dbcd00;stroke-linecap:square;stroke-width:2;"/>
    <defs>
     <path d="M 0 1.5 
C 0.397805 1.5 0.77937 1.341951 1.06066 1.06066 
C 1.341951 0.77937 1.5 0.397805 1.5 0 
C 1.5 -0.397805 1.341951 -0.77937 1.06066 -1.06066 
C 0.77937 -1.341951 0.397805 -1.5 0 -1.5 
C -0.397805 -1.5 -0.77937 -1.341951 -1.06066 -1.06066 
C -1.341951 -0.77937 -1.5 -0.397805 -1.5 0 
C -1.5 0.397805 -1.341951 0.77937 -1.06066 1.06066 
C -0.77937 1.341951 -0.397805 1.5 0 1.5 
z
" id="m6000243725" style="stroke:#dbcd00;"/>
    </defs>
    <g clip-path="url(#p9ed93930f0)">
     <use style="fill:#dbcd00;stroke:#dbcd00;" x="113.626023" xlink:href="#m6000243725" y="483.15778"/>
     <use style="fill:#dbcd00;stroke:#dbcd00;" x="118.075783" xlink:href="#m6000243725" y="482.27296"/>
     <use style="fill:#dbcd00;stroke:#dbcd00;" x="122.525544" xlink:href="#m6000243725" y="480.355852"/>
     <use style="fill:#dbcd00;stroke:#dbcd00;" x="126.975305" xlink:href="#m6000243725" y="479.471033"/>
     <use style="fill:#dbcd00;stroke:#dbcd00;" x="131.425066" xlink:href="#m6000243725" y="476.079225"/>
     <use style="fill:#dbcd00;stroke:#dbcd00;" x="135.874827" xlink:href="#m6000243725" y="473.867177"/>
     <use style="fill:#dbcd00;stroke:#dbcd00;" x="140.324587" xlink:href="#m6000243725" y="470.91778"/>
     <use style="fill:#dbcd00;stroke:#dbcd00;" x="144.774348" xlink:href="#m6000243725" y="470.77031"/>
     <use style="fill:#dbcd00;stroke:#dbcd00;" x="149.224109" xlink:href="#m6000243725" y="463.101876"/>
     <use style="fill:#dbcd00;stroke:#dbcd00;" x="153.67387" xlink:href="#m6000243725" y="460.742358"/>
     <use style="fill:#dbcd00;stroke:#dbcd00;" x="158.12363" xlink:href="#m6000243725" y="457.64549"/>
     <use style="fill:#dbcd00;stroke:#dbcd00;" x="162.573391" xlink:href="#m6000243725" y="453.368864"/>
     <use style="fill:#dbcd00;stroke:#dbcd00;" x="167.023152" xlink:href="#m6000243725" y="451.599225"/>
     <use style="fill:#dbcd00;stroke:#dbcd00;" x="171.472913" xlink:href="#m6000243725" y="449.977057"/>
     <use style="fill:#dbcd00;stroke:#dbcd00;" x="175.922673" xlink:href="#m6000243725" y="447.027659"/>
     <use style="fill:#dbcd00;stroke:#dbcd00;" x="180.372434" xlink:href="#m6000243725" y="444.815611"/>
     <use style="fill:#dbcd00;stroke:#dbcd00;" x="184.822195" xlink:href="#m6000243725" y="441.718743"/>
     <use style="fill:#dbcd00;stroke:#dbcd00;" x="189.271956" xlink:href="#m6000243725" y="437.737057"/>
     <use style="fill:#dbcd00;stroke:#dbcd00;" x="193.721717" xlink:href="#m6000243725" y="434.935129"/>
     <use style="fill:#dbcd00;stroke:#dbcd00;" x="198.171477" xlink:href="#m6000243725" y="431.395852"/>
     <use style="fill:#dbcd00;stroke:#dbcd00;" x="202.621238" xlink:href="#m6000243725" y="428.888864"/>
     <use style="fill:#dbcd00;stroke:#dbcd00;" x="211.52076" xlink:href="#m6000243725" y="423.727418"/>
     <use style="fill:#dbcd00;stroke:#dbcd00;" x="215.97052" xlink:href="#m6000243725" y="419.598261"/>
     <use style="fill:#dbcd00;stroke:#dbcd00;" x="220.420281" xlink:href="#m6000243725" y="416.796334"/>
     <use style="fill:#dbcd00;stroke:#dbcd00;" x="224.870042" xlink:href="#m6000243725" y="412.077298"/>
     <use style="fill:#dbcd00;stroke:#dbcd00;" x="229.319803" xlink:href="#m6000243725" y="420.483081"/>
     <use style="fill:#dbcd00;stroke:#dbcd00;" x="238.219324" xlink:href="#m6000243725" y="395.118261"/>
     <use style="fill:#dbcd00;stroke:#dbcd00;" x="242.669085" xlink:href="#m6000243725" y="392.021394"/>
     <use style="fill:#dbcd00;stroke:#dbcd00;" x="247.118846" xlink:href="#m6000243725" y="385.827659"/>
     <use style="fill:#dbcd00;stroke:#dbcd00;" x="251.568606" xlink:href="#m6000243725" y="380.666213"/>
     <use style="fill:#dbcd00;stroke:#dbcd00;" x="256.018367" xlink:href="#m6000243725" y="374.030069"/>
     <use style="fill:#dbcd00;stroke:#dbcd00;" x="260.468128" xlink:href="#m6000243725" y="369.311033"/>
     <use style="fill:#dbcd00;stroke:#dbcd00;" x="269.36765" xlink:href="#m6000243725" y="362.527418"/>
     <use style="fill:#dbcd00;stroke:#dbcd00;" x="273.81741" xlink:href="#m6000243725" y="362.527418"/>
     <use style="fill:#dbcd00;stroke:#dbcd00;" x="278.267171" xlink:href="#m6000243725" y="356.038743"/>
     <use style="fill:#dbcd00;stroke:#dbcd00;" x="282.716932" xlink:href="#m6000243725" y="350.877298"/>
     <use style="fill:#dbcd00;stroke:#dbcd00;" x="291.616453" xlink:href="#m6000243725" y="345.273442"/>
     <use style="fill:#dbcd00;stroke:#dbcd00;" x="300.515975" xlink:href="#m6000243725" y="341.586695"/>
     <use style="fill:#dbcd00;stroke:#dbcd00;" x="304.965736" xlink:href="#m6000243725" y="338.932237"/>
     <use style="fill:#dbcd00;stroke:#dbcd00;" x="309.415496" xlink:href="#m6000243725" y="336.13031"/>
     <use style="fill:#dbcd00;stroke:#dbcd00;" x="313.865257" xlink:href="#m6000243725" y="334.360671"/>
     <use style="fill:#dbcd00;stroke:#dbcd00;" x="318.315018" xlink:href="#m6000243725" y="332.296093"/>
     <use style="fill:#dbcd00;stroke:#dbcd00;" x="322.764779" xlink:href="#m6000243725" y="328.756816"/>
     <use style="fill:#dbcd00;stroke:#dbcd00;" x="331.6643" xlink:href="#m6000243725" y="327.134647"/>
     <use style="fill:#dbcd00;stroke:#dbcd00;" x="336.114061" xlink:href="#m6000243725" y="325.807418"/>
     <use style="fill:#dbcd00;stroke:#dbcd00;" x="340.563822" xlink:href="#m6000243725" y="324.480189"/>
     <use style="fill:#dbcd00;stroke:#dbcd00;" x="345.013583" xlink:href="#m6000243725" y="322.268141"/>
     <use style="fill:#dbcd00;stroke:#dbcd00;" x="349.463343" xlink:href="#m6000243725" y="320.351033"/>
     <use style="fill:#dbcd00;stroke:#dbcd00;" x="353.913104" xlink:href="#m6000243725" y="317.696575"/>
     <use style="fill:#dbcd00;stroke:#dbcd00;" x="362.812626" xlink:href="#m6000243725" y="315.337057"/>
     <use style="fill:#dbcd00;stroke:#dbcd00;" x="367.262386" xlink:href="#m6000243725" y="314.009828"/>
     <use style="fill:#dbcd00;stroke:#dbcd00;" x="371.712147" xlink:href="#m6000243725" y="312.240189"/>
     <use style="fill:#dbcd00;stroke:#dbcd00;" x="380.611669" xlink:href="#m6000243725" y="308.848382"/>
     <use style="fill:#dbcd00;stroke:#dbcd00;" x="385.061429" xlink:href="#m6000243725" y="308.258502"/>
     <use style="fill:#dbcd00;stroke:#dbcd00;" x="393.960951" xlink:href="#m6000243725" y="307.226213"/>
     <use style="fill:#dbcd00;stroke:#dbcd00;" x="398.410712" xlink:href="#m6000243725" y="307.226213"/>
     <use style="fill:#dbcd00;stroke:#dbcd00;" x="407.310233" xlink:href="#m6000243725" y="305.456575"/>
     <use style="fill:#dbcd00;stroke:#dbcd00;" x="411.759994" xlink:href="#m6000243725" y="304.719225"/>
     <use style="fill:#dbcd00;stroke:#dbcd00;" x="429.559037" xlink:href="#m6000243725" y="303.539466"/>
     <use style="fill:#dbcd00;stroke:#dbcd00;" x="434.008798" xlink:href="#m6000243725" y="303.097057"/>
     <use style="fill:#dbcd00;stroke:#dbcd00;" x="438.458559" xlink:href="#m6000243725" y="303.097057"/>
     <use style="fill:#dbcd00;stroke:#dbcd00;" x="442.908319" xlink:href="#m6000243725" y="303.097057"/>
     <use style="fill:#dbcd00;stroke:#dbcd00;" x="447.35808" xlink:href="#m6000243725" y="302.802117"/>
     <use style="fill:#dbcd00;stroke:#dbcd00;" x="456.257602" xlink:href="#m6000243725" y="302.654647"/>
     <use style="fill:#dbcd00;stroke:#dbcd00;" x="460.707362" xlink:href="#m6000243725" y="302.654647"/>
     <use style="fill:#dbcd00;stroke:#dbcd00;" x="465.157123" xlink:href="#m6000243725" y="302.064768"/>
     <use style="fill:#dbcd00;stroke:#dbcd00;" x="474.056645" xlink:href="#m6000243725" y="301.917298"/>
     <use style="fill:#dbcd00;stroke:#dbcd00;" x="478.506406" xlink:href="#m6000243725" y="301.622358"/>
     <use style="fill:#dbcd00;stroke:#dbcd00;" x="487.405927" xlink:href="#m6000243725" y="301.474888"/>
     <use style="fill:#dbcd00;stroke:#dbcd00;" x="496.305449" xlink:href="#m6000243725" y="301.327418"/>
     <use style="fill:#dbcd00;stroke:#dbcd00;" x="505.20497" xlink:href="#m6000243725" y="301.327418"/>
     <use style="fill:#dbcd00;stroke:#dbcd00;" x="509.654731" xlink:href="#m6000243725" y="301.032478"/>
     <use style="fill:#dbcd00;stroke:#dbcd00;" x="518.554252" xlink:href="#m6000243725" y="300.737539"/>
     <use style="fill:#dbcd00;stroke:#dbcd00;" x="523.004013" xlink:href="#m6000243725" y="300.737539"/>
     <use style="fill:#dbcd00;stroke:#dbcd00;" x="527.453774" xlink:href="#m6000243725" y="300.295129"/>
     <use style="fill:#dbcd00;stroke:#dbcd00;" x="531.903535" xlink:href="#m6000243725" y="300.000189"/>
     <use style="fill:#dbcd00;stroke:#dbcd00;" x="540.803056" xlink:href="#m6000243725" y="299.41031"/>
     <use style="fill:#dbcd00;stroke:#dbcd00;" x="549.702578" xlink:href="#m6000243725" y="299.11537"/>
     <use style="fill:#dbcd00;stroke:#dbcd00;" x="554.152339" xlink:href="#m6000243725" y="298.67296"/>
     <use style="fill:#dbcd00;stroke:#dbcd00;" x="558.602099" xlink:href="#m6000243725" y="298.67296"/>
     <use style="fill:#dbcd00;stroke:#dbcd00;" x="563.05186" xlink:href="#m6000243725" y="298.67296"/>
     <use style="fill:#dbcd00;stroke:#dbcd00;" x="567.501621" xlink:href="#m6000243725" y="298.67296"/>
     <use style="fill:#dbcd00;stroke:#dbcd00;" x="571.951382" xlink:href="#m6000243725" y="298.67296"/>
     <use style="fill:#dbcd00;stroke:#dbcd00;" x="580.850903" xlink:href="#m6000243725" y="298.67296"/>
     <use style="fill:#dbcd00;stroke:#dbcd00;" x="585.300664" xlink:href="#m6000243725" y="298.67296"/>
     <use style="fill:#dbcd00;stroke:#dbcd00;" x="589.750425" xlink:href="#m6000243725" y="298.67296"/>
     <use style="fill:#dbcd00;stroke:#dbcd00;" x="594.200185" xlink:href="#m6000243725" y="298.52549"/>
     <use style="fill:#dbcd00;stroke:#dbcd00;" x="598.649946" xlink:href="#m6000243725" y="298.52549"/>
     <use style="fill:#dbcd00;stroke:#dbcd00;" x="611.999228" xlink:href="#m6000243725" y="298.230551"/>
     <use style="fill:#dbcd00;stroke:#dbcd00;" x="616.448989" xlink:href="#m6000243725" y="297.640671"/>
     <use style="fill:#dbcd00;stroke:#dbcd00;" x="620.89875" xlink:href="#m6000243725" y="297.640671"/>
     <use style="fill:#dbcd00;stroke:#dbcd00;" x="625.348511" xlink:href="#m6000243725" y="297.493201"/>
     <use style="fill:#dbcd00;stroke:#dbcd00;" x="629.798272" xlink:href="#m6000243725" y="297.345731"/>
     <use style="fill:#dbcd00;stroke:#dbcd00;" x="643.147554" xlink:href="#m6000243725" y="296.460912"/>
     <use style="fill:#dbcd00;stroke:#dbcd00;" x="647.597315" xlink:href="#m6000243725" y="296.460912"/>
     <use style="fill:#dbcd00;stroke:#dbcd00;" x="652.047075" xlink:href="#m6000243725" y="296.460912"/>
     <use style="fill:#dbcd00;stroke:#dbcd00;" x="656.496836" xlink:href="#m6000243725" y="296.460912"/>
     <use style="fill:#dbcd00;stroke:#dbcd00;" x="660.946597" xlink:href="#m6000243725" y="296.460912"/>
     <use style="fill:#dbcd00;stroke:#dbcd00;" x="674.295879" xlink:href="#m6000243725" y="295.871033"/>
     <use style="fill:#dbcd00;stroke:#dbcd00;" x="678.74564" xlink:href="#m6000243725" y="295.871033"/>
     <use style="fill:#dbcd00;stroke:#dbcd00;" x="683.195401" xlink:href="#m6000243725" y="295.871033"/>
     <use style="fill:#dbcd00;stroke:#dbcd00;" x="687.645161" xlink:href="#m6000243725" y="295.723563"/>
     <use style="fill:#dbcd00;stroke:#dbcd00;" x="692.094922" xlink:href="#m6000243725" y="295.576093"/>
     <use style="fill:#dbcd00;stroke:#dbcd00;" x="736.59253" xlink:href="#m6000243725" y="289.529828"/>
     <use style="fill:#dbcd00;stroke:#dbcd00;" x="741.042291" xlink:href="#m6000243725" y="288.792478"/>
     <use style="fill:#dbcd00;stroke:#dbcd00;" x="749.941812" xlink:href="#m6000243725" y="287.907659"/>
     <use style="fill:#dbcd00;stroke:#dbcd00;" x="754.391573" xlink:href="#m6000243725" y="287.760189"/>
     <use style="fill:#dbcd00;stroke:#dbcd00;" x="767.740855" xlink:href="#m6000243725" y="284.663322"/>
     <use style="fill:#dbcd00;stroke:#dbcd00;" x="772.190616" xlink:href="#m6000243725" y="283.188623"/>
     <use style="fill:#dbcd00;stroke:#dbcd00;" x="776.640377" xlink:href="#m6000243725" y="280.976575"/>
     <use style="fill:#dbcd00;stroke:#dbcd00;" x="781.090138" xlink:href="#m6000243725" y="280.386695"/>
     <use style="fill:#dbcd00;stroke:#dbcd00;" x="785.539898" xlink:href="#m6000243725" y="280.239225"/>
     <use style="fill:#dbcd00;stroke:#dbcd00;" x="798.889181" xlink:href="#m6000243725" y="275.667659"/>
     <use style="fill:#dbcd00;stroke:#dbcd00;" x="803.338941" xlink:href="#m6000243725" y="274.19296"/>
     <use style="fill:#dbcd00;stroke:#dbcd00;" x="807.788702" xlink:href="#m6000243725" y="273.603081"/>
     <use style="fill:#dbcd00;stroke:#dbcd00;" x="812.238463" xlink:href="#m6000243725" y="272.718261"/>
     <use style="fill:#dbcd00;stroke:#dbcd00;" x="816.688224" xlink:href="#m6000243725" y="271.980912"/>
     <use style="fill:#dbcd00;stroke:#dbcd00;" x="830.037506" xlink:href="#m6000243725" y="269.031514"/>
     <use style="fill:#dbcd00;stroke:#dbcd00;" x="834.487267" xlink:href="#m6000243725" y="268.294165"/>
     <use style="fill:#dbcd00;stroke:#dbcd00;" x="838.937028" xlink:href="#m6000243725" y="267.704286"/>
     <use style="fill:#dbcd00;stroke:#dbcd00;" x="843.386788" xlink:href="#m6000243725" y="266.966936"/>
     <use style="fill:#dbcd00;stroke:#dbcd00;" x="847.836549" xlink:href="#m6000243725" y="266.229587"/>
     <use style="fill:#dbcd00;stroke:#dbcd00;" x="861.185831" xlink:href="#m6000243725" y="265.492237"/>
     <use style="fill:#dbcd00;stroke:#dbcd00;" x="865.635592" xlink:href="#m6000243725" y="265.492237"/>
     <use style="fill:#dbcd00;stroke:#dbcd00;" x="870.085353" xlink:href="#m6000243725" y="265.049828"/>
     <use style="fill:#dbcd00;stroke:#dbcd00;" x="874.535114" xlink:href="#m6000243725" y="264.754888"/>
     <use style="fill:#dbcd00;stroke:#dbcd00;" x="878.984874" xlink:href="#m6000243725" y="264.312478"/>
     <use style="fill:#dbcd00;stroke:#dbcd00;" x="892.334157" xlink:href="#m6000243725" y="263.132719"/>
     <use style="fill:#dbcd00;stroke:#dbcd00;" x="896.783917" xlink:href="#m6000243725" y="262.39537"/>
     <use style="fill:#dbcd00;stroke:#dbcd00;" x="901.233678" xlink:href="#m6000243725" y="262.10043"/>
     <use style="fill:#dbcd00;stroke:#dbcd00;" x="905.683439" xlink:href="#m6000243725" y="261.80549"/>
     <use style="fill:#dbcd00;stroke:#dbcd00;" x="910.1332" xlink:href="#m6000243725" y="260.920671"/>
     <use style="fill:#dbcd00;stroke:#dbcd00;" x="923.482482" xlink:href="#m6000243725" y="255.906695"/>
     <use style="fill:#dbcd00;stroke:#dbcd00;" x="927.932243" xlink:href="#m6000243725" y="255.169346"/>
     <use style="fill:#dbcd00;stroke:#dbcd00;" x="932.382004" xlink:href="#m6000243725" y="253.399707"/>
     <use style="fill:#dbcd00;stroke:#dbcd00;" x="936.831764" xlink:href="#m6000243725" y="253.104768"/>
     <use style="fill:#dbcd00;stroke:#dbcd00;" x="941.281525" xlink:href="#m6000243725" y="252.514888"/>
     <use style="fill:#dbcd00;stroke:#dbcd00;" x="954.630807" xlink:href="#m6000243725" y="249.86043"/>
     <use style="fill:#dbcd00;stroke:#dbcd00;" x="959.080568" xlink:href="#m6000243725" y="249.56549"/>
     <use style="fill:#dbcd00;stroke:#dbcd00;" x="963.530329" xlink:href="#m6000243725" y="249.56549"/>
     <use style="fill:#dbcd00;stroke:#dbcd00;" x="967.98009" xlink:href="#m6000243725" y="248.533201"/>
     <use style="fill:#dbcd00;stroke:#dbcd00;" x="972.42985" xlink:href="#m6000243725" y="248.238261"/>
     <use style="fill:#dbcd00;stroke:#dbcd00;" x="985.779133" xlink:href="#m6000243725" y="242.929346"/>
     <use style="fill:#dbcd00;stroke:#dbcd00;" x="990.228894" xlink:href="#m6000243725" y="241.749587"/>
     <use style="fill:#dbcd00;stroke:#dbcd00;" x="994.678654" xlink:href="#m6000243725" y="239.242599"/>
     <use style="fill:#dbcd00;stroke:#dbcd00;" x="999.128415" xlink:href="#m6000243725" y="236.440671"/>
     <use style="fill:#dbcd00;stroke:#dbcd00;" x="1016.927458" xlink:href="#m6000243725" y="224.495611"/>
     <use style="fill:#dbcd00;stroke:#dbcd00;" x="1021.377219" xlink:href="#m6000243725" y="223.315852"/>
     <use style="fill:#dbcd00;stroke:#dbcd00;" x="1052.525544" xlink:href="#m6000243725" y="209.306213"/>
     <use style="fill:#dbcd00;stroke:#dbcd00;" x="1056.975305" xlink:href="#m6000243725" y="202.670069"/>
     <use style="fill:#dbcd00;stroke:#dbcd00;" x="1061.425066" xlink:href="#m6000243725" y="201.34284"/>
     <use style="fill:#dbcd00;stroke:#dbcd00;" x="1065.874827" xlink:href="#m6000243725" y="199.868141"/>
     <use style="fill:#dbcd00;stroke:#dbcd00;" x="1079.224109" xlink:href="#m6000243725" y="188.51296"/>
     <use style="fill:#dbcd00;stroke:#dbcd00;" x="1083.67387" xlink:href="#m6000243725" y="186.153442"/>
     <use style="fill:#dbcd00;stroke:#dbcd00;" x="1088.12363" xlink:href="#m6000243725" y="183.498984"/>
     <use style="fill:#dbcd00;stroke:#dbcd00;" x="1092.573391" xlink:href="#m6000243725" y="180.107177"/>
     <use style="fill:#dbcd00;stroke:#dbcd00;" x="1097.023152" xlink:href="#m6000243725" y="174.355852"/>
     <use style="fill:#dbcd00;stroke:#dbcd00;" x="1110.372434" xlink:href="#m6000243725" y="159.608864"/>
     <use style="fill:#dbcd00;stroke:#dbcd00;" x="1114.822195" xlink:href="#m6000243725" y="159.608864"/>
     <use style="fill:#dbcd00;stroke:#dbcd00;" x="1119.271956" xlink:href="#m6000243725" y="144.861876"/>
     <use style="fill:#dbcd00;stroke:#dbcd00;" x="1123.721717" xlink:href="#m6000243725" y="144.861876"/>
     <use style="fill:#dbcd00;stroke:#dbcd00;" x="1128.171477" xlink:href="#m6000243725" y="130.114888"/>
    </g>
   </g>
   <g id="line2d_76">
    <path clip-path="url(#p9ed93930f0)" d="M 113.626023 452.189105 
L 118.075783 449.829587 
L 122.525544 448.059948 
L 126.975305 444.668141 
L 131.425066 442.161153 
L 135.874827 440.981394 
L 140.324587 439.506695 
L 144.774348 439.211755 
L 149.224109 441.718743 
L 153.67387 438.621876 
L 158.12363 433.018021 
L 162.573391 430.805972 
L 167.023152 424.612237 
L 171.472913 418.713442 
L 175.922673 419.303322 
L 180.372434 413.846936 
L 184.822195 409.27537 
L 189.271956 406.473442 
L 193.721717 402.934165 
L 198.171477 399.689828 
L 202.621238 401.017057 
L 211.52076 399.837298 
L 215.97052 403.966454 
L 220.420281 404.408864 
L 224.870042 406.768382 
L 229.319803 396.298021 
L 238.219324 417.681153 
L 242.669085 414.584286 
L 247.118846 419.598261 
L 251.568606 422.400189 
L 256.018367 427.414165 
L 260.468128 431.100912 
L 269.36765 433.90284 
L 273.81741 432.575611 
L 278.267171 438.031996 
L 282.716932 442.308623 
L 291.616453 449.829587 
L 300.515975 451.894165 
L 309.415496 456.908141 
L 313.865257 457.203081 
L 318.315018 458.23537 
L 322.764779 460.005008 
L 331.6643 461.627177 
L 336.114061 461.332237 
L 340.563822 462.364527 
L 345.013583 463.691755 
L 349.463343 465.461394 
L 353.913104 467.673442 
L 362.812626 469.295611 
L 367.262386 470.3279 
L 371.712147 472.392478 
L 380.611669 475.341876 
L 385.061429 476.079225 
L 393.960951 477.111514 
L 398.410712 477.111514 
L 407.310233 478.881153 
L 411.759994 479.618502 
L 429.559037 480.060912 
L 434.008798 480.355852 
L 442.908319 480.060912 
L 447.35808 480.503322 
L 456.257602 480.060912 
L 460.707362 480.060912 
L 465.157123 481.978021 
L 474.056645 482.5679 
L 478.506406 482.71537 
L 487.405927 481.830551 
L 496.305449 481.978021 
L 505.20497 481.388141 
L 509.654731 481.683081 
L 523.004013 482.12549 
L 527.453774 482.5679 
L 531.903535 482.71537 
L 540.803056 483.305249 
L 549.702578 483.600189 
L 554.152339 484.042599 
L 558.602099 483.747659 
L 567.501621 483.452719 
L 571.951382 483.452719 
L 580.850903 483.01031 
L 585.300664 483.01031 
L 589.750425 482.27296 
L 611.999228 482.27296 
L 616.448989 482.86284 
L 620.89875 482.86284 
L 625.348511 482.5679 
L 629.798272 482.71537 
L 643.147554 483.452719 
L 647.597315 483.305249 
L 652.047075 483.01031 
L 656.496836 482.5679 
L 660.946597 481.978021 
L 678.74564 482.12549 
L 683.195401 481.978021 
L 687.645161 480.208382 
L 692.094922 480.355852 
L 741.042291 471.950069 
L 749.941812 471.212719 
L 754.391573 470.03296 
L 767.740855 470.77031 
L 772.190616 471.950069 
L 776.640377 472.834888 
L 781.090138 472.392478 
L 785.539898 471.360189 
L 798.889181 473.719707 
L 803.338941 475.046936 
L 807.788702 474.604527 
L 812.238463 475.046936 
L 816.688224 475.194406 
L 830.037506 478.733683 
L 834.487267 479.323563 
L 843.386788 480.208382 
L 847.836549 480.798261 
L 861.185831 480.060912 
L 865.635592 478.881153 
L 874.535114 478.586213 
L 878.984874 478.291274 
L 892.334157 475.489346 
L 896.783917 476.226695 
L 901.233678 475.489346 
L 905.683439 474.457057 
L 910.1332 474.751996 
L 927.932243 476.521635 
L 932.382004 477.996334 
L 936.831764 478.438743 
L 941.281525 473.867177 
L 954.630807 464.724045 
L 959.080568 464.429105 
L 963.530329 461.627177 
L 967.98009 462.659466 
L 972.42985 459.857539 
L 985.779133 462.069587 
L 990.228894 462.659466 
L 994.678654 464.429105 
L 999.128415 464.576575 
L 1016.927458 460.594888 
L 1021.377219 461.037298 
L 1052.525544 456.613201 
L 1056.975305 458.972719 
L 1061.425066 456.170792 
L 1065.874827 450.124527 
L 1079.224109 436.704768 
L 1083.67387 437.294647 
L 1088.12363 427.414165 
L 1092.573391 418.565972 
L 1110.372434 392.463804 
L 1114.822195 384.20549 
L 1119.271956 386.417539 
L 1123.721717 373.882599 
L 1128.171477 378.896575 
L 1128.171477 378.896575 
" style="fill:none;stroke:#2792cb;stroke-linecap:square;stroke-width:2;"/>
    <defs>
     <path d="M 0 1.5 
C 0.397805 1.5 0.77937 1.341951 1.06066 1.06066 
C 1.341951 0.77937 1.5 0.397805 1.5 0 
C 1.5 -0.397805 1.341951 -0.77937 1.06066 -1.06066 
C 0.77937 -1.341951 0.397805 -1.5 0 -1.5 
C -0.397805 -1.5 -0.77937 -1.341951 -1.06066 -1.06066 
C -1.341951 -0.77937 -1.5 -0.397805 -1.5 0 
C -1.5 0.397805 -1.341951 0.77937 -1.06066 1.06066 
C -0.77937 1.341951 -0.397805 1.5 0 1.5 
z
" id="mb6fe659049" style="stroke:#2792cb;"/>
    </defs>
    <g clip-path="url(#p9ed93930f0)">
     <use style="fill:#2792cb;stroke:#2792cb;" x="113.626023" xlink:href="#mb6fe659049" y="452.189105"/>
     <use style="fill:#2792cb;stroke:#2792cb;" x="118.075783" xlink:href="#mb6fe659049" y="449.829587"/>
     <use style="fill:#2792cb;stroke:#2792cb;" x="122.525544" xlink:href="#mb6fe659049" y="448.059948"/>
     <use style="fill:#2792cb;stroke:#2792cb;" x="126.975305" xlink:href="#mb6fe659049" y="444.668141"/>
     <use style="fill:#2792cb;stroke:#2792cb;" x="131.425066" xlink:href="#mb6fe659049" y="442.161153"/>
     <use style="fill:#2792cb;stroke:#2792cb;" x="135.874827" xlink:href="#mb6fe659049" y="440.981394"/>
     <use style="fill:#2792cb;stroke:#2792cb;" x="140.324587" xlink:href="#mb6fe659049" y="439.506695"/>
     <use style="fill:#2792cb;stroke:#2792cb;" x="144.774348" xlink:href="#mb6fe659049" y="439.211755"/>
     <use style="fill:#2792cb;stroke:#2792cb;" x="149.224109" xlink:href="#mb6fe659049" y="441.718743"/>
     <use style="fill:#2792cb;stroke:#2792cb;" x="153.67387" xlink:href="#mb6fe659049" y="438.621876"/>
     <use style="fill:#2792cb;stroke:#2792cb;" x="158.12363" xlink:href="#mb6fe659049" y="433.018021"/>
     <use style="fill:#2792cb;stroke:#2792cb;" x="162.573391" xlink:href="#mb6fe659049" y="430.805972"/>
     <use style="fill:#2792cb;stroke:#2792cb;" x="167.023152" xlink:href="#mb6fe659049" y="424.612237"/>
     <use style="fill:#2792cb;stroke:#2792cb;" x="171.472913" xlink:href="#mb6fe659049" y="418.713442"/>
     <use style="fill:#2792cb;stroke:#2792cb;" x="175.922673" xlink:href="#mb6fe659049" y="419.303322"/>
     <use style="fill:#2792cb;stroke:#2792cb;" x="180.372434" xlink:href="#mb6fe659049" y="413.846936"/>
     <use style="fill:#2792cb;stroke:#2792cb;" x="184.822195" xlink:href="#mb6fe659049" y="409.27537"/>
     <use style="fill:#2792cb;stroke:#2792cb;" x="189.271956" xlink:href="#mb6fe659049" y="406.473442"/>
     <use style="fill:#2792cb;stroke:#2792cb;" x="193.721717" xlink:href="#mb6fe659049" y="402.934165"/>
     <use style="fill:#2792cb;stroke:#2792cb;" x="198.171477" xlink:href="#mb6fe659049" y="399.689828"/>
     <use style="fill:#2792cb;stroke:#2792cb;" x="202.621238" xlink:href="#mb6fe659049" y="401.017057"/>
     <use style="fill:#2792cb;stroke:#2792cb;" x="211.52076" xlink:href="#mb6fe659049" y="399.837298"/>
     <use style="fill:#2792cb;stroke:#2792cb;" x="215.97052" xlink:href="#mb6fe659049" y="403.966454"/>
     <use style="fill:#2792cb;stroke:#2792cb;" x="220.420281" xlink:href="#mb6fe659049" y="404.408864"/>
     <use style="fill:#2792cb;stroke:#2792cb;" x="224.870042" xlink:href="#mb6fe659049" y="406.768382"/>
     <use style="fill:#2792cb;stroke:#2792cb;" x="229.319803" xlink:href="#mb6fe659049" y="396.298021"/>
     <use style="fill:#2792cb;stroke:#2792cb;" x="238.219324" xlink:href="#mb6fe659049" y="417.681153"/>
     <use style="fill:#2792cb;stroke:#2792cb;" x="242.669085" xlink:href="#mb6fe659049" y="414.584286"/>
     <use style="fill:#2792cb;stroke:#2792cb;" x="247.118846" xlink:href="#mb6fe659049" y="419.598261"/>
     <use style="fill:#2792cb;stroke:#2792cb;" x="251.568606" xlink:href="#mb6fe659049" y="422.400189"/>
     <use style="fill:#2792cb;stroke:#2792cb;" x="256.018367" xlink:href="#mb6fe659049" y="427.414165"/>
     <use style="fill:#2792cb;stroke:#2792cb;" x="260.468128" xlink:href="#mb6fe659049" y="431.100912"/>
     <use style="fill:#2792cb;stroke:#2792cb;" x="269.36765" xlink:href="#mb6fe659049" y="433.90284"/>
     <use style="fill:#2792cb;stroke:#2792cb;" x="273.81741" xlink:href="#mb6fe659049" y="432.575611"/>
     <use style="fill:#2792cb;stroke:#2792cb;" x="278.267171" xlink:href="#mb6fe659049" y="438.031996"/>
     <use style="fill:#2792cb;stroke:#2792cb;" x="282.716932" xlink:href="#mb6fe659049" y="442.308623"/>
     <use style="fill:#2792cb;stroke:#2792cb;" x="291.616453" xlink:href="#mb6fe659049" y="449.829587"/>
     <use style="fill:#2792cb;stroke:#2792cb;" x="300.515975" xlink:href="#mb6fe659049" y="451.894165"/>
     <use style="fill:#2792cb;stroke:#2792cb;" x="304.965736" xlink:href="#mb6fe659049" y="454.401153"/>
     <use style="fill:#2792cb;stroke:#2792cb;" x="309.415496" xlink:href="#mb6fe659049" y="456.908141"/>
     <use style="fill:#2792cb;stroke:#2792cb;" x="313.865257" xlink:href="#mb6fe659049" y="457.203081"/>
     <use style="fill:#2792cb;stroke:#2792cb;" x="318.315018" xlink:href="#mb6fe659049" y="458.23537"/>
     <use style="fill:#2792cb;stroke:#2792cb;" x="322.764779" xlink:href="#mb6fe659049" y="460.005008"/>
     <use style="fill:#2792cb;stroke:#2792cb;" x="331.6643" xlink:href="#mb6fe659049" y="461.627177"/>
     <use style="fill:#2792cb;stroke:#2792cb;" x="336.114061" xlink:href="#mb6fe659049" y="461.332237"/>
     <use style="fill:#2792cb;stroke:#2792cb;" x="340.563822" xlink:href="#mb6fe659049" y="462.364527"/>
     <use style="fill:#2792cb;stroke:#2792cb;" x="345.013583" xlink:href="#mb6fe659049" y="463.691755"/>
     <use style="fill:#2792cb;stroke:#2792cb;" x="349.463343" xlink:href="#mb6fe659049" y="465.461394"/>
     <use style="fill:#2792cb;stroke:#2792cb;" x="353.913104" xlink:href="#mb6fe659049" y="467.673442"/>
     <use style="fill:#2792cb;stroke:#2792cb;" x="362.812626" xlink:href="#mb6fe659049" y="469.295611"/>
     <use style="fill:#2792cb;stroke:#2792cb;" x="367.262386" xlink:href="#mb6fe659049" y="470.3279"/>
     <use style="fill:#2792cb;stroke:#2792cb;" x="371.712147" xlink:href="#mb6fe659049" y="472.392478"/>
     <use style="fill:#2792cb;stroke:#2792cb;" x="380.611669" xlink:href="#mb6fe659049" y="475.341876"/>
     <use style="fill:#2792cb;stroke:#2792cb;" x="385.061429" xlink:href="#mb6fe659049" y="476.079225"/>
     <use style="fill:#2792cb;stroke:#2792cb;" x="393.960951" xlink:href="#mb6fe659049" y="477.111514"/>
     <use style="fill:#2792cb;stroke:#2792cb;" x="398.410712" xlink:href="#mb6fe659049" y="477.111514"/>
     <use style="fill:#2792cb;stroke:#2792cb;" x="407.310233" xlink:href="#mb6fe659049" y="478.881153"/>
     <use style="fill:#2792cb;stroke:#2792cb;" x="411.759994" xlink:href="#mb6fe659049" y="479.618502"/>
     <use style="fill:#2792cb;stroke:#2792cb;" x="429.559037" xlink:href="#mb6fe659049" y="480.060912"/>
     <use style="fill:#2792cb;stroke:#2792cb;" x="434.008798" xlink:href="#mb6fe659049" y="480.355852"/>
     <use style="fill:#2792cb;stroke:#2792cb;" x="438.458559" xlink:href="#mb6fe659049" y="480.208382"/>
     <use style="fill:#2792cb;stroke:#2792cb;" x="442.908319" xlink:href="#mb6fe659049" y="480.060912"/>
     <use style="fill:#2792cb;stroke:#2792cb;" x="447.35808" xlink:href="#mb6fe659049" y="480.503322"/>
     <use style="fill:#2792cb;stroke:#2792cb;" x="456.257602" xlink:href="#mb6fe659049" y="480.060912"/>
     <use style="fill:#2792cb;stroke:#2792cb;" x="460.707362" xlink:href="#mb6fe659049" y="480.060912"/>
     <use style="fill:#2792cb;stroke:#2792cb;" x="465.157123" xlink:href="#mb6fe659049" y="481.978021"/>
     <use style="fill:#2792cb;stroke:#2792cb;" x="474.056645" xlink:href="#mb6fe659049" y="482.5679"/>
     <use style="fill:#2792cb;stroke:#2792cb;" x="478.506406" xlink:href="#mb6fe659049" y="482.71537"/>
     <use style="fill:#2792cb;stroke:#2792cb;" x="487.405927" xlink:href="#mb6fe659049" y="481.830551"/>
     <use style="fill:#2792cb;stroke:#2792cb;" x="496.305449" xlink:href="#mb6fe659049" y="481.978021"/>
     <use style="fill:#2792cb;stroke:#2792cb;" x="505.20497" xlink:href="#mb6fe659049" y="481.388141"/>
     <use style="fill:#2792cb;stroke:#2792cb;" x="509.654731" xlink:href="#mb6fe659049" y="481.683081"/>
     <use style="fill:#2792cb;stroke:#2792cb;" x="518.554252" xlink:href="#mb6fe659049" y="481.978021"/>
     <use style="fill:#2792cb;stroke:#2792cb;" x="523.004013" xlink:href="#mb6fe659049" y="482.12549"/>
     <use style="fill:#2792cb;stroke:#2792cb;" x="527.453774" xlink:href="#mb6fe659049" y="482.5679"/>
     <use style="fill:#2792cb;stroke:#2792cb;" x="531.903535" xlink:href="#mb6fe659049" y="482.71537"/>
     <use style="fill:#2792cb;stroke:#2792cb;" x="540.803056" xlink:href="#mb6fe659049" y="483.305249"/>
     <use style="fill:#2792cb;stroke:#2792cb;" x="549.702578" xlink:href="#mb6fe659049" y="483.600189"/>
     <use style="fill:#2792cb;stroke:#2792cb;" x="554.152339" xlink:href="#mb6fe659049" y="484.042599"/>
     <use style="fill:#2792cb;stroke:#2792cb;" x="558.602099" xlink:href="#mb6fe659049" y="483.747659"/>
     <use style="fill:#2792cb;stroke:#2792cb;" x="563.05186" xlink:href="#mb6fe659049" y="483.600189"/>
     <use style="fill:#2792cb;stroke:#2792cb;" x="567.501621" xlink:href="#mb6fe659049" y="483.452719"/>
     <use style="fill:#2792cb;stroke:#2792cb;" x="571.951382" xlink:href="#mb6fe659049" y="483.452719"/>
     <use style="fill:#2792cb;stroke:#2792cb;" x="580.850903" xlink:href="#mb6fe659049" y="483.01031"/>
     <use style="fill:#2792cb;stroke:#2792cb;" x="585.300664" xlink:href="#mb6fe659049" y="483.01031"/>
     <use style="fill:#2792cb;stroke:#2792cb;" x="589.750425" xlink:href="#mb6fe659049" y="482.27296"/>
     <use style="fill:#2792cb;stroke:#2792cb;" x="594.200185" xlink:href="#mb6fe659049" y="482.27296"/>
     <use style="fill:#2792cb;stroke:#2792cb;" x="598.649946" xlink:href="#mb6fe659049" y="482.27296"/>
     <use style="fill:#2792cb;stroke:#2792cb;" x="611.999228" xlink:href="#mb6fe659049" y="482.27296"/>
     <use style="fill:#2792cb;stroke:#2792cb;" x="616.448989" xlink:href="#mb6fe659049" y="482.86284"/>
     <use style="fill:#2792cb;stroke:#2792cb;" x="620.89875" xlink:href="#mb6fe659049" y="482.86284"/>
     <use style="fill:#2792cb;stroke:#2792cb;" x="625.348511" xlink:href="#mb6fe659049" y="482.5679"/>
     <use style="fill:#2792cb;stroke:#2792cb;" x="629.798272" xlink:href="#mb6fe659049" y="482.71537"/>
     <use style="fill:#2792cb;stroke:#2792cb;" x="643.147554" xlink:href="#mb6fe659049" y="483.452719"/>
     <use style="fill:#2792cb;stroke:#2792cb;" x="647.597315" xlink:href="#mb6fe659049" y="483.305249"/>
     <use style="fill:#2792cb;stroke:#2792cb;" x="652.047075" xlink:href="#mb6fe659049" y="483.01031"/>
     <use style="fill:#2792cb;stroke:#2792cb;" x="656.496836" xlink:href="#mb6fe659049" y="482.5679"/>
     <use style="fill:#2792cb;stroke:#2792cb;" x="660.946597" xlink:href="#mb6fe659049" y="481.978021"/>
     <use style="fill:#2792cb;stroke:#2792cb;" x="674.295879" xlink:href="#mb6fe659049" y="482.12549"/>
     <use style="fill:#2792cb;stroke:#2792cb;" x="678.74564" xlink:href="#mb6fe659049" y="482.12549"/>
     <use style="fill:#2792cb;stroke:#2792cb;" x="683.195401" xlink:href="#mb6fe659049" y="481.978021"/>
     <use style="fill:#2792cb;stroke:#2792cb;" x="687.645161" xlink:href="#mb6fe659049" y="480.208382"/>
     <use style="fill:#2792cb;stroke:#2792cb;" x="692.094922" xlink:href="#mb6fe659049" y="480.355852"/>
     <use style="fill:#2792cb;stroke:#2792cb;" x="736.59253" xlink:href="#mb6fe659049" y="472.687418"/>
     <use style="fill:#2792cb;stroke:#2792cb;" x="741.042291" xlink:href="#mb6fe659049" y="471.950069"/>
     <use style="fill:#2792cb;stroke:#2792cb;" x="749.941812" xlink:href="#mb6fe659049" y="471.212719"/>
     <use style="fill:#2792cb;stroke:#2792cb;" x="754.391573" xlink:href="#mb6fe659049" y="470.03296"/>
     <use style="fill:#2792cb;stroke:#2792cb;" x="767.740855" xlink:href="#mb6fe659049" y="470.77031"/>
     <use style="fill:#2792cb;stroke:#2792cb;" x="772.190616" xlink:href="#mb6fe659049" y="471.950069"/>
     <use style="fill:#2792cb;stroke:#2792cb;" x="776.640377" xlink:href="#mb6fe659049" y="472.834888"/>
     <use style="fill:#2792cb;stroke:#2792cb;" x="781.090138" xlink:href="#mb6fe659049" y="472.392478"/>
     <use style="fill:#2792cb;stroke:#2792cb;" x="785.539898" xlink:href="#mb6fe659049" y="471.360189"/>
     <use style="fill:#2792cb;stroke:#2792cb;" x="798.889181" xlink:href="#mb6fe659049" y="473.719707"/>
     <use style="fill:#2792cb;stroke:#2792cb;" x="803.338941" xlink:href="#mb6fe659049" y="475.046936"/>
     <use style="fill:#2792cb;stroke:#2792cb;" x="807.788702" xlink:href="#mb6fe659049" y="474.604527"/>
     <use style="fill:#2792cb;stroke:#2792cb;" x="812.238463" xlink:href="#mb6fe659049" y="475.046936"/>
     <use style="fill:#2792cb;stroke:#2792cb;" x="816.688224" xlink:href="#mb6fe659049" y="475.194406"/>
     <use style="fill:#2792cb;stroke:#2792cb;" x="830.037506" xlink:href="#mb6fe659049" y="478.733683"/>
     <use style="fill:#2792cb;stroke:#2792cb;" x="834.487267" xlink:href="#mb6fe659049" y="479.323563"/>
     <use style="fill:#2792cb;stroke:#2792cb;" x="838.937028" xlink:href="#mb6fe659049" y="479.765972"/>
     <use style="fill:#2792cb;stroke:#2792cb;" x="843.386788" xlink:href="#mb6fe659049" y="480.208382"/>
     <use style="fill:#2792cb;stroke:#2792cb;" x="847.836549" xlink:href="#mb6fe659049" y="480.798261"/>
     <use style="fill:#2792cb;stroke:#2792cb;" x="861.185831" xlink:href="#mb6fe659049" y="480.060912"/>
     <use style="fill:#2792cb;stroke:#2792cb;" x="865.635592" xlink:href="#mb6fe659049" y="478.881153"/>
     <use style="fill:#2792cb;stroke:#2792cb;" x="870.085353" xlink:href="#mb6fe659049" y="478.733683"/>
     <use style="fill:#2792cb;stroke:#2792cb;" x="874.535114" xlink:href="#mb6fe659049" y="478.586213"/>
     <use style="fill:#2792cb;stroke:#2792cb;" x="878.984874" xlink:href="#mb6fe659049" y="478.291274"/>
     <use style="fill:#2792cb;stroke:#2792cb;" x="892.334157" xlink:href="#mb6fe659049" y="475.489346"/>
     <use style="fill:#2792cb;stroke:#2792cb;" x="896.783917" xlink:href="#mb6fe659049" y="476.226695"/>
     <use style="fill:#2792cb;stroke:#2792cb;" x="901.233678" xlink:href="#mb6fe659049" y="475.489346"/>
     <use style="fill:#2792cb;stroke:#2792cb;" x="905.683439" xlink:href="#mb6fe659049" y="474.457057"/>
     <use style="fill:#2792cb;stroke:#2792cb;" x="910.1332" xlink:href="#mb6fe659049" y="474.751996"/>
     <use style="fill:#2792cb;stroke:#2792cb;" x="923.482482" xlink:href="#mb6fe659049" y="476.079225"/>
     <use style="fill:#2792cb;stroke:#2792cb;" x="927.932243" xlink:href="#mb6fe659049" y="476.521635"/>
     <use style="fill:#2792cb;stroke:#2792cb;" x="932.382004" xlink:href="#mb6fe659049" y="477.996334"/>
     <use style="fill:#2792cb;stroke:#2792cb;" x="936.831764" xlink:href="#mb6fe659049" y="478.438743"/>
     <use style="fill:#2792cb;stroke:#2792cb;" x="941.281525" xlink:href="#mb6fe659049" y="473.867177"/>
     <use style="fill:#2792cb;stroke:#2792cb;" x="954.630807" xlink:href="#mb6fe659049" y="464.724045"/>
     <use style="fill:#2792cb;stroke:#2792cb;" x="959.080568" xlink:href="#mb6fe659049" y="464.429105"/>
     <use style="fill:#2792cb;stroke:#2792cb;" x="963.530329" xlink:href="#mb6fe659049" y="461.627177"/>
     <use style="fill:#2792cb;stroke:#2792cb;" x="967.98009" xlink:href="#mb6fe659049" y="462.659466"/>
     <use style="fill:#2792cb;stroke:#2792cb;" x="972.42985" xlink:href="#mb6fe659049" y="459.857539"/>
     <use style="fill:#2792cb;stroke:#2792cb;" x="985.779133" xlink:href="#mb6fe659049" y="462.069587"/>
     <use style="fill:#2792cb;stroke:#2792cb;" x="990.228894" xlink:href="#mb6fe659049" y="462.659466"/>
     <use style="fill:#2792cb;stroke:#2792cb;" x="994.678654" xlink:href="#mb6fe659049" y="464.429105"/>
     <use style="fill:#2792cb;stroke:#2792cb;" x="999.128415" xlink:href="#mb6fe659049" y="464.576575"/>
     <use style="fill:#2792cb;stroke:#2792cb;" x="1016.927458" xlink:href="#mb6fe659049" y="460.594888"/>
     <use style="fill:#2792cb;stroke:#2792cb;" x="1021.377219" xlink:href="#mb6fe659049" y="461.037298"/>
     <use style="fill:#2792cb;stroke:#2792cb;" x="1052.525544" xlink:href="#mb6fe659049" y="456.613201"/>
     <use style="fill:#2792cb;stroke:#2792cb;" x="1056.975305" xlink:href="#mb6fe659049" y="458.972719"/>
     <use style="fill:#2792cb;stroke:#2792cb;" x="1061.425066" xlink:href="#mb6fe659049" y="456.170792"/>
     <use style="fill:#2792cb;stroke:#2792cb;" x="1065.874827" xlink:href="#mb6fe659049" y="450.124527"/>
     <use style="fill:#2792cb;stroke:#2792cb;" x="1079.224109" xlink:href="#mb6fe659049" y="436.704768"/>
     <use style="fill:#2792cb;stroke:#2792cb;" x="1083.67387" xlink:href="#mb6fe659049" y="437.294647"/>
     <use style="fill:#2792cb;stroke:#2792cb;" x="1088.12363" xlink:href="#mb6fe659049" y="427.414165"/>
     <use style="fill:#2792cb;stroke:#2792cb;" x="1092.573391" xlink:href="#mb6fe659049" y="418.565972"/>
     <use style="fill:#2792cb;stroke:#2792cb;" x="1097.023152" xlink:href="#mb6fe659049" y="412.077298"/>
     <use style="fill:#2792cb;stroke:#2792cb;" x="1110.372434" xlink:href="#mb6fe659049" y="392.463804"/>
     <use style="fill:#2792cb;stroke:#2792cb;" x="1114.822195" xlink:href="#mb6fe659049" y="384.20549"/>
     <use style="fill:#2792cb;stroke:#2792cb;" x="1119.271956" xlink:href="#mb6fe659049" y="386.417539"/>
     <use style="fill:#2792cb;stroke:#2792cb;" x="1123.721717" xlink:href="#mb6fe659049" y="373.882599"/>
     <use style="fill:#2792cb;stroke:#2792cb;" x="1128.171477" xlink:href="#mb6fe659049" y="378.896575"/>
    </g>
   </g>
   <g id="patch_3">
    <path d="M 62.89875 501.738984 
L 1178.89875 501.738984 
" style="fill:none;stroke:#000000;stroke-linecap:square;stroke-linejoin:miter;stroke-width:0.8;"/>
   </g>
   <g id="legend_1">
    <g id="line2d_77">
     <path d="M 1091.653438 25.237422 
L 1111.653438 25.237422 
" style="fill:none;stroke:#dbcd00;stroke-linecap:square;stroke-width:2;"/>
    </g>
    <g id="line2d_78">
     <g>
      <use style="fill:#dbcd00;stroke:#dbcd00;" x="1101.653438" xlink:href="#m6000243725" y="25.237422"/>
     </g>
    </g>
    <g id="text_43">
     <!-- Genesene -->
     <defs>
      <path d="M 59.515625 10.40625 
L 59.515625 29.984375 
L 43.40625 29.984375 
L 43.40625 38.09375 
L 69.28125 38.09375 
L 69.28125 6.78125 
Q 63.578125 2.734375 56.6875 0.65625 
Q 49.8125 -1.421875 42 -1.421875 
Q 24.90625 -1.421875 15.25 8.5625 
Q 5.609375 18.5625 5.609375 36.375 
Q 5.609375 54.25 15.25 64.234375 
Q 24.90625 74.21875 42 74.21875 
Q 49.125 74.21875 55.546875 72.453125 
Q 61.96875 70.703125 67.390625 67.28125 
L 67.390625 56.78125 
Q 61.921875 61.421875 55.765625 63.765625 
Q 49.609375 66.109375 42.828125 66.109375 
Q 29.4375 66.109375 22.71875 58.640625 
Q 16.015625 51.171875 16.015625 36.375 
Q 16.015625 21.625 22.71875 14.15625 
Q 29.4375 6.6875 42.828125 6.6875 
Q 48.046875 6.6875 52.140625 7.59375 
Q 56.25 8.5 59.515625 10.40625 
z
" id="DejaVuSans-71"/>
      <path d="M 44.28125 53.078125 
L 44.28125 44.578125 
Q 40.484375 46.53125 36.375 47.5 
Q 32.28125 48.484375 27.875 48.484375 
Q 21.1875 48.484375 17.84375 46.4375 
Q 14.5 44.390625 14.5 40.28125 
Q 14.5 37.15625 16.890625 35.375 
Q 19.28125 33.59375 26.515625 31.984375 
L 29.59375 31.296875 
Q 39.15625 29.25 43.1875 25.515625 
Q 47.21875 21.78125 47.21875 15.09375 
Q 47.21875 7.46875 41.1875 3.015625 
Q 35.15625 -1.421875 24.609375 -1.421875 
Q 20.21875 -1.421875 15.453125 -0.5625 
Q 10.6875 0.296875 5.421875 2 
L 5.421875 11.28125 
Q 10.40625 8.6875 15.234375 7.390625 
Q 20.0625 6.109375 24.8125 6.109375 
Q 31.15625 6.109375 34.5625 8.28125 
Q 37.984375 10.453125 37.984375 14.40625 
Q 37.984375 18.0625 35.515625 20.015625 
Q 33.0625 21.96875 24.703125 23.78125 
L 21.578125 24.515625 
Q 13.234375 26.265625 9.515625 29.90625 
Q 5.8125 33.546875 5.8125 39.890625 
Q 5.8125 47.609375 11.28125 51.796875 
Q 16.75 56 26.8125 56 
Q 31.78125 56 36.171875 55.265625 
Q 40.578125 54.546875 44.28125 53.078125 
z
" id="DejaVuSans-115"/>
     </defs>
     <g transform="translate(1119.653438 28.737422)scale(0.1 -0.1)">
      <use xlink:href="#DejaVuSans-71"/>
      <use x="77.490234" xlink:href="#DejaVuSans-101"/>
      <use x="139.013672" xlink:href="#DejaVuSans-110"/>
      <use x="202.392578" xlink:href="#DejaVuSans-101"/>
      <use x="263.916016" xlink:href="#DejaVuSans-115"/>
      <use x="316.015625" xlink:href="#DejaVuSans-101"/>
      <use x="377.539062" xlink:href="#DejaVuSans-110"/>
      <use x="440.917969" xlink:href="#DejaVuSans-101"/>
     </g>
    </g>
    <g id="line2d_79">
     <path d="M 1091.653438 39.915547 
L 1111.653438 39.915547 
" style="fill:none;stroke:#2792cb;stroke-linecap:square;stroke-width:2;"/>
    </g>
    <g id="line2d_80">
     <g>
      <use style="fill:#2792cb;stroke:#2792cb;" x="1101.653438" xlink:href="#mb6fe659049" y="39.915547"/>
     </g>
    </g>
    <g id="text_44">
     <!-- Erkrankte -->
     <defs>
      <path d="M 9.8125 72.90625 
L 55.90625 72.90625 
L 55.90625 64.59375 
L 19.671875 64.59375 
L 19.671875 43.015625 
L 54.390625 43.015625 
L 54.390625 34.71875 
L 19.671875 34.71875 
L 19.671875 8.296875 
L 56.78125 8.296875 
L 56.78125 0 
L 9.8125 0 
z
" id="DejaVuSans-69"/>
      <path d="M 41.109375 46.296875 
Q 39.59375 47.171875 37.8125 47.578125 
Q 36.03125 48 33.890625 48 
Q 26.265625 48 22.1875 43.046875 
Q 18.109375 38.09375 18.109375 28.8125 
L 18.109375 0 
L 9.078125 0 
L 9.078125 54.6875 
L 18.109375 54.6875 
L 18.109375 46.1875 
Q 20.953125 51.171875 25.484375 53.578125 
Q 30.03125 56 36.53125 56 
Q 37.453125 56 38.578125 55.875 
Q 39.703125 55.765625 41.0625 55.515625 
z
" id="DejaVuSans-114"/>
      <path d="M 9.078125 75.984375 
L 18.109375 75.984375 
L 18.109375 31.109375 
L 44.921875 54.6875 
L 56.390625 54.6875 
L 27.390625 29.109375 
L 57.625 0 
L 45.90625 0 
L 18.109375 26.703125 
L 18.109375 0 
L 9.078125 0 
z
" id="DejaVuSans-107"/>
      <path d="M 18.3125 70.21875 
L 18.3125 54.6875 
L 36.8125 54.6875 
L 36.8125 47.703125 
L 18.3125 47.703125 
L 18.3125 18.015625 
Q 18.3125 11.328125 20.140625 9.421875 
Q 21.96875 7.515625 27.59375 7.515625 
L 36.8125 7.515625 
L 36.8125 0 
L 27.59375 0 
Q 17.1875 0 13.234375 3.875 
Q 9.28125 7.765625 9.28125 18.015625 
L 9.28125 47.703125 
L 2.6875 47.703125 
L 2.6875 54.6875 
L 9.28125 54.6875 
L 9.28125 70.21875 
z
" id="DejaVuSans-116"/>
     </defs>
     <g transform="translate(1119.653438 43.415547)scale(0.1 -0.1)">
      <use xlink:href="#DejaVuSans-69"/>
      <use x="63.183594" xlink:href="#DejaVuSans-114"/>
      <use x="104.296875" xlink:href="#DejaVuSans-107"/>
      <use x="162.207031" xlink:href="#DejaVuSans-114"/>
      <use x="203.320312" xlink:href="#DejaVuSans-97"/>
      <use x="264.599609" xlink:href="#DejaVuSans-110"/>
      <use x="327.978516" xlink:href="#DejaVuSans-107"/>
      <use x="385.888672" xlink:href="#DejaVuSans-116"/>
      <use x="425.097656" xlink:href="#DejaVuSans-101"/>
     </g>
    </g>
   </g>
  </g>
 </g>
 <defs>
  <clipPath id="p9ed93930f0">
   <rect height="489.6" width="1116" x="62.89875" y="12.138984"/>
  </clipPath>
 </defs>
</svg>
