<?xml version="1.0" encoding="utf-8" standalone="no"?>
<!DOCTYPE svg PUBLIC "-//W3C//DTD SVG 1.1//EN"
  "http://www.w3.org/Graphics/SVG/1.1/DTD/svg11.dtd">
<!-- Created with matplotlib (https://matplotlib.org/) -->
<svg height="553.993765pt" version="1.1" viewBox="0 0 1186.09875 553.993765" width="1186.09875pt" xmlns="http://www.w3.org/2000/svg" xmlns:xlink="http://www.w3.org/1999/xlink">
 <defs>
  <style type="text/css">
*{stroke-linecap:butt;stroke-linejoin:round;}
  </style>
 </defs>
 <g id="figure_1">
  <g id="patch_1">
   <path d="M 0 553.993765 
L 1186.09875 553.993765 
L 1186.09875 0 
L 0 0 
z
" style="fill:#ffffff;"/>
  </g>
  <g id="axes_1">
   <g id="patch_2">
    <path d="M 62.89875 501.738984 
L 1178.89875 501.738984 
L 1178.89875 12.138984 
L 62.89875 12.138984 
z
" style="fill:#ffffff;"/>
   </g>
   <g id="matplotlib.axis_1">
    <g id="xtick_1">
     <g id="line2d_1">
      <defs>
       <path d="M 0 0 
L 0 3.5 
" id="madde0100f5" style="stroke:#000000;stroke-width:0.8;"/>
      </defs>
      <g>
       <use style="stroke:#000000;stroke-width:0.8;" x="151.830663" xlink:href="#madde0100f5" y="501.738984"/>
      </g>
     </g>
     <g id="text_1">
      <!-- 2020-04 -->
      <defs>
       <path d="M 19.1875 8.296875 
L 53.609375 8.296875 
L 53.609375 0 
L 7.328125 0 
L 7.328125 8.296875 
Q 12.9375 14.109375 22.625 23.890625 
Q 32.328125 33.6875 34.8125 36.53125 
Q 39.546875 41.84375 41.421875 45.53125 
Q 43.3125 49.21875 43.3125 52.78125 
Q 43.3125 58.59375 39.234375 62.25 
Q 35.15625 65.921875 28.609375 65.921875 
Q 23.96875 65.921875 18.8125 64.3125 
Q 13.671875 62.703125 7.8125 59.421875 
L 7.8125 69.390625 
Q 13.765625 71.78125 18.9375 73 
Q 24.125 74.21875 28.421875 74.21875 
Q 39.75 74.21875 46.484375 68.546875 
Q 53.21875 62.890625 53.21875 53.421875 
Q 53.21875 48.921875 51.53125 44.890625 
Q 49.859375 40.875 45.40625 35.40625 
Q 44.1875 33.984375 37.640625 27.21875 
Q 31.109375 20.453125 19.1875 8.296875 
z
" id="DejaVuSans-50"/>
       <path d="M 31.78125 66.40625 
Q 24.171875 66.40625 20.328125 58.90625 
Q 16.5 51.421875 16.5 36.375 
Q 16.5 21.390625 20.328125 13.890625 
Q 24.171875 6.390625 31.78125 6.390625 
Q 39.453125 6.390625 43.28125 13.890625 
Q 47.125 21.390625 47.125 36.375 
Q 47.125 51.421875 43.28125 58.90625 
Q 39.453125 66.40625 31.78125 66.40625 
z
M 31.78125 74.21875 
Q 44.046875 74.21875 50.515625 64.515625 
Q 56.984375 54.828125 56.984375 36.375 
Q 56.984375 17.96875 50.515625 8.265625 
Q 44.046875 -1.421875 31.78125 -1.421875 
Q 19.53125 -1.421875 13.0625 8.265625 
Q 6.59375 17.96875 6.59375 36.375 
Q 6.59375 54.828125 13.0625 64.515625 
Q 19.53125 74.21875 31.78125 74.21875 
z
" id="DejaVuSans-48"/>
       <path d="M 4.890625 31.390625 
L 31.203125 31.390625 
L 31.203125 23.390625 
L 4.890625 23.390625 
z
" id="DejaVuSans-45"/>
       <path d="M 37.796875 64.3125 
L 12.890625 25.390625 
L 37.796875 25.390625 
z
M 35.203125 72.90625 
L 47.609375 72.90625 
L 47.609375 25.390625 
L 58.015625 25.390625 
L 58.015625 17.1875 
L 47.609375 17.1875 
L 47.609375 0 
L 37.796875 0 
L 37.796875 17.1875 
L 4.890625 17.1875 
L 4.890625 26.703125 
z
" id="DejaVuSans-52"/>
      </defs>
      <g transform="translate(103.438396 544.452384)rotate(-30)scale(0.13 -0.13)">
       <use xlink:href="#DejaVuSans-50"/>
       <use x="63.623047" xlink:href="#DejaVuSans-48"/>
       <use x="127.246094" xlink:href="#DejaVuSans-50"/>
       <use x="190.869141" xlink:href="#DejaVuSans-48"/>
       <use x="254.492188" xlink:href="#DejaVuSans-45"/>
       <use x="290.576172" xlink:href="#DejaVuSans-48"/>
       <use x="354.199219" xlink:href="#DejaVuSans-52"/>
      </g>
     </g>
    </g>
    <g id="xtick_2">
     <g id="line2d_2">
      <g>
       <use style="stroke:#000000;stroke-width:0.8;" x="279.179465" xlink:href="#madde0100f5" y="501.738984"/>
      </g>
     </g>
     <g id="text_2">
      <!-- 2020-05 -->
      <defs>
       <path d="M 10.796875 72.90625 
L 49.515625 72.90625 
L 49.515625 64.59375 
L 19.828125 64.59375 
L 19.828125 46.734375 
Q 21.96875 47.46875 24.109375 47.828125 
Q 26.265625 48.1875 28.421875 48.1875 
Q 40.625 48.1875 47.75 41.5 
Q 54.890625 34.8125 54.890625 23.390625 
Q 54.890625 11.625 47.5625 5.09375 
Q 40.234375 -1.421875 26.90625 -1.421875 
Q 22.3125 -1.421875 17.546875 -0.640625 
Q 12.796875 0.140625 7.71875 1.703125 
L 7.71875 11.625 
Q 12.109375 9.234375 16.796875 8.0625 
Q 21.484375 6.890625 26.703125 6.890625 
Q 35.15625 6.890625 40.078125 11.328125 
Q 45.015625 15.765625 45.015625 23.390625 
Q 45.015625 31 40.078125 35.4375 
Q 35.15625 39.890625 26.703125 39.890625 
Q 22.75 39.890625 18.8125 39.015625 
Q 14.890625 38.140625 10.796875 36.28125 
z
" id="DejaVuSans-53"/>
      </defs>
      <g transform="translate(230.787198 544.452384)rotate(-30)scale(0.13 -0.13)">
       <use xlink:href="#DejaVuSans-50"/>
       <use x="63.623047" xlink:href="#DejaVuSans-48"/>
       <use x="127.246094" xlink:href="#DejaVuSans-50"/>
       <use x="190.869141" xlink:href="#DejaVuSans-48"/>
       <use x="254.492188" xlink:href="#DejaVuSans-45"/>
       <use x="290.576172" xlink:href="#DejaVuSans-48"/>
       <use x="354.199219" xlink:href="#DejaVuSans-53"/>
      </g>
     </g>
    </g>
    <g id="xtick_3">
     <g id="line2d_3">
      <g>
       <use style="stroke:#000000;stroke-width:0.8;" x="410.773227" xlink:href="#madde0100f5" y="501.738984"/>
      </g>
     </g>
     <g id="text_3">
      <!-- 2020-06 -->
      <defs>
       <path d="M 33.015625 40.375 
Q 26.375 40.375 22.484375 35.828125 
Q 18.609375 31.296875 18.609375 23.390625 
Q 18.609375 15.53125 22.484375 10.953125 
Q 26.375 6.390625 33.015625 6.390625 
Q 39.65625 6.390625 43.53125 10.953125 
Q 47.40625 15.53125 47.40625 23.390625 
Q 47.40625 31.296875 43.53125 35.828125 
Q 39.65625 40.375 33.015625 40.375 
z
M 52.59375 71.296875 
L 52.59375 62.3125 
Q 48.875 64.0625 45.09375 64.984375 
Q 41.3125 65.921875 37.59375 65.921875 
Q 27.828125 65.921875 22.671875 59.328125 
Q 17.53125 52.734375 16.796875 39.40625 
Q 19.671875 43.65625 24.015625 45.921875 
Q 28.375 48.1875 33.59375 48.1875 
Q 44.578125 48.1875 50.953125 41.515625 
Q 57.328125 34.859375 57.328125 23.390625 
Q 57.328125 12.15625 50.6875 5.359375 
Q 44.046875 -1.421875 33.015625 -1.421875 
Q 20.359375 -1.421875 13.671875 8.265625 
Q 6.984375 17.96875 6.984375 36.375 
Q 6.984375 53.65625 15.1875 63.9375 
Q 23.390625 74.21875 37.203125 74.21875 
Q 40.921875 74.21875 44.703125 73.484375 
Q 48.484375 72.75 52.59375 71.296875 
z
" id="DejaVuSans-54"/>
      </defs>
      <g transform="translate(362.38096 544.452384)rotate(-30)scale(0.13 -0.13)">
       <use xlink:href="#DejaVuSans-50"/>
       <use x="63.623047" xlink:href="#DejaVuSans-48"/>
       <use x="127.246094" xlink:href="#DejaVuSans-50"/>
       <use x="190.869141" xlink:href="#DejaVuSans-48"/>
       <use x="254.492188" xlink:href="#DejaVuSans-45"/>
       <use x="290.576172" xlink:href="#DejaVuSans-48"/>
       <use x="354.199219" xlink:href="#DejaVuSans-54"/>
      </g>
     </g>
    </g>
    <g id="xtick_4">
     <g id="line2d_4">
      <g>
       <use style="stroke:#000000;stroke-width:0.8;" x="538.122029" xlink:href="#madde0100f5" y="501.738984"/>
      </g>
     </g>
     <g id="text_4">
      <!-- 2020-07 -->
      <defs>
       <path d="M 8.203125 72.90625 
L 55.078125 72.90625 
L 55.078125 68.703125 
L 28.609375 0 
L 18.3125 0 
L 43.21875 64.59375 
L 8.203125 64.59375 
z
" id="DejaVuSans-55"/>
      </defs>
      <g transform="translate(489.729762 544.452384)rotate(-30)scale(0.13 -0.13)">
       <use xlink:href="#DejaVuSans-50"/>
       <use x="63.623047" xlink:href="#DejaVuSans-48"/>
       <use x="127.246094" xlink:href="#DejaVuSans-50"/>
       <use x="190.869141" xlink:href="#DejaVuSans-48"/>
       <use x="254.492188" xlink:href="#DejaVuSans-45"/>
       <use x="290.576172" xlink:href="#DejaVuSans-48"/>
       <use x="354.199219" xlink:href="#DejaVuSans-55"/>
      </g>
     </g>
    </g>
    <g id="xtick_5">
     <g id="line2d_5">
      <g>
       <use style="stroke:#000000;stroke-width:0.8;" x="669.715791" xlink:href="#madde0100f5" y="501.738984"/>
      </g>
     </g>
     <g id="text_5">
      <!-- 2020-08 -->
      <defs>
       <path d="M 31.78125 34.625 
Q 24.75 34.625 20.71875 30.859375 
Q 16.703125 27.09375 16.703125 20.515625 
Q 16.703125 13.921875 20.71875 10.15625 
Q 24.75 6.390625 31.78125 6.390625 
Q 38.8125 6.390625 42.859375 10.171875 
Q 46.921875 13.96875 46.921875 20.515625 
Q 46.921875 27.09375 42.890625 30.859375 
Q 38.875 34.625 31.78125 34.625 
z
M 21.921875 38.8125 
Q 15.578125 40.375 12.03125 44.71875 
Q 8.5 49.078125 8.5 55.328125 
Q 8.5 64.0625 14.71875 69.140625 
Q 20.953125 74.21875 31.78125 74.21875 
Q 42.671875 74.21875 48.875 69.140625 
Q 55.078125 64.0625 55.078125 55.328125 
Q 55.078125 49.078125 51.53125 44.71875 
Q 48 40.375 41.703125 38.8125 
Q 48.828125 37.15625 52.796875 32.3125 
Q 56.78125 27.484375 56.78125 20.515625 
Q 56.78125 9.90625 50.3125 4.234375 
Q 43.84375 -1.421875 31.78125 -1.421875 
Q 19.734375 -1.421875 13.25 4.234375 
Q 6.78125 9.90625 6.78125 20.515625 
Q 6.78125 27.484375 10.78125 32.3125 
Q 14.796875 37.15625 21.921875 38.8125 
z
M 18.3125 54.390625 
Q 18.3125 48.734375 21.84375 45.5625 
Q 25.390625 42.390625 31.78125 42.390625 
Q 38.140625 42.390625 41.71875 45.5625 
Q 45.3125 48.734375 45.3125 54.390625 
Q 45.3125 60.0625 41.71875 63.234375 
Q 38.140625 66.40625 31.78125 66.40625 
Q 25.390625 66.40625 21.84375 63.234375 
Q 18.3125 60.0625 18.3125 54.390625 
z
" id="DejaVuSans-56"/>
      </defs>
      <g transform="translate(621.323524 544.452384)rotate(-30)scale(0.13 -0.13)">
       <use xlink:href="#DejaVuSans-50"/>
       <use x="63.623047" xlink:href="#DejaVuSans-48"/>
       <use x="127.246094" xlink:href="#DejaVuSans-50"/>
       <use x="190.869141" xlink:href="#DejaVuSans-48"/>
       <use x="254.492188" xlink:href="#DejaVuSans-45"/>
       <use x="290.576172" xlink:href="#DejaVuSans-48"/>
       <use x="354.199219" xlink:href="#DejaVuSans-56"/>
      </g>
     </g>
    </g>
    <g id="xtick_6">
     <g id="line2d_6">
      <g>
       <use style="stroke:#000000;stroke-width:0.8;" x="801.309553" xlink:href="#madde0100f5" y="501.738984"/>
      </g>
     </g>
     <g id="text_6">
      <!-- 2020-09 -->
      <defs>
       <path d="M 10.984375 1.515625 
L 10.984375 10.5 
Q 14.703125 8.734375 18.5 7.8125 
Q 22.3125 6.890625 25.984375 6.890625 
Q 35.75 6.890625 40.890625 13.453125 
Q 46.046875 20.015625 46.78125 33.40625 
Q 43.953125 29.203125 39.59375 26.953125 
Q 35.25 24.703125 29.984375 24.703125 
Q 19.046875 24.703125 12.671875 31.3125 
Q 6.296875 37.9375 6.296875 49.421875 
Q 6.296875 60.640625 12.9375 67.421875 
Q 19.578125 74.21875 30.609375 74.21875 
Q 43.265625 74.21875 49.921875 64.515625 
Q 56.59375 54.828125 56.59375 36.375 
Q 56.59375 19.140625 48.40625 8.859375 
Q 40.234375 -1.421875 26.421875 -1.421875 
Q 22.703125 -1.421875 18.890625 -0.6875 
Q 15.09375 0.046875 10.984375 1.515625 
z
M 30.609375 32.421875 
Q 37.25 32.421875 41.125 36.953125 
Q 45.015625 41.5 45.015625 49.421875 
Q 45.015625 57.28125 41.125 61.84375 
Q 37.25 66.40625 30.609375 66.40625 
Q 23.96875 66.40625 20.09375 61.84375 
Q 16.21875 57.28125 16.21875 49.421875 
Q 16.21875 41.5 20.09375 36.953125 
Q 23.96875 32.421875 30.609375 32.421875 
z
" id="DejaVuSans-57"/>
      </defs>
      <g transform="translate(752.917286 544.452384)rotate(-30)scale(0.13 -0.13)">
       <use xlink:href="#DejaVuSans-50"/>
       <use x="63.623047" xlink:href="#DejaVuSans-48"/>
       <use x="127.246094" xlink:href="#DejaVuSans-50"/>
       <use x="190.869141" xlink:href="#DejaVuSans-48"/>
       <use x="254.492188" xlink:href="#DejaVuSans-45"/>
       <use x="290.576172" xlink:href="#DejaVuSans-48"/>
       <use x="354.199219" xlink:href="#DejaVuSans-57"/>
      </g>
     </g>
    </g>
    <g id="xtick_7">
     <g id="line2d_7">
      <g>
       <use style="stroke:#000000;stroke-width:0.8;" x="928.658354" xlink:href="#madde0100f5" y="501.738984"/>
      </g>
     </g>
     <g id="text_7">
      <!-- 2020-10 -->
      <defs>
       <path d="M 12.40625 8.296875 
L 28.515625 8.296875 
L 28.515625 63.921875 
L 10.984375 60.40625 
L 10.984375 69.390625 
L 28.421875 72.90625 
L 38.28125 72.90625 
L 38.28125 8.296875 
L 54.390625 8.296875 
L 54.390625 0 
L 12.40625 0 
z
" id="DejaVuSans-49"/>
      </defs>
      <g transform="translate(880.266087 544.452384)rotate(-30)scale(0.13 -0.13)">
       <use xlink:href="#DejaVuSans-50"/>
       <use x="63.623047" xlink:href="#DejaVuSans-48"/>
       <use x="127.246094" xlink:href="#DejaVuSans-50"/>
       <use x="190.869141" xlink:href="#DejaVuSans-48"/>
       <use x="254.492188" xlink:href="#DejaVuSans-45"/>
       <use x="290.576172" xlink:href="#DejaVuSans-49"/>
       <use x="354.199219" xlink:href="#DejaVuSans-48"/>
      </g>
     </g>
    </g>
    <g id="xtick_8">
     <g id="line2d_8">
      <g>
       <use style="stroke:#000000;stroke-width:0.8;" x="1060.252116" xlink:href="#madde0100f5" y="501.738984"/>
      </g>
     </g>
     <g id="text_8">
      <!-- 2020-11 -->
      <g transform="translate(1011.859849 544.452384)rotate(-30)scale(0.13 -0.13)">
       <use xlink:href="#DejaVuSans-50"/>
       <use x="63.623047" xlink:href="#DejaVuSans-48"/>
       <use x="127.246094" xlink:href="#DejaVuSans-50"/>
       <use x="190.869141" xlink:href="#DejaVuSans-48"/>
       <use x="254.492188" xlink:href="#DejaVuSans-45"/>
       <use x="290.576172" xlink:href="#DejaVuSans-49"/>
       <use x="354.199219" xlink:href="#DejaVuSans-49"/>
      </g>
     </g>
    </g>
   </g>
   <g id="matplotlib.axis_2">
    <g id="ytick_1">
     <g id="line2d_9">
      <path clip-path="url(#p664289d3fe)" d="M 62.89875 488.510513 
L 1178.89875 488.510513 
" style="fill:none;stroke:#b0b0b0;stroke-linecap:square;stroke-width:0.8;"/>
     </g>
     <g id="line2d_10">
      <defs>
       <path d="M 0 0 
L -3.5 0 
" id="mf818d6ca1d" style="stroke:#000000;stroke-width:0.8;"/>
      </defs>
      <g>
       <use style="stroke:#000000;stroke-width:0.8;" x="62.89875" xlink:href="#mf818d6ca1d" y="488.510513"/>
      </g>
     </g>
     <g id="text_9">
      <!-- 0 -->
      <g transform="translate(47.6275 493.449498)scale(0.13 -0.13)">
       <use xlink:href="#DejaVuSans-48"/>
      </g>
     </g>
    </g>
    <g id="ytick_2">
     <g id="line2d_11">
      <path clip-path="url(#p664289d3fe)" d="M 62.89875 451.86655 
L 1178.89875 451.86655 
" style="fill:none;stroke:#b0b0b0;stroke-linecap:square;stroke-width:0.8;"/>
     </g>
     <g id="line2d_12">
      <g>
       <use style="stroke:#000000;stroke-width:0.8;" x="62.89875" xlink:href="#mf818d6ca1d" y="451.86655"/>
      </g>
     </g>
     <g id="text_10">
      <!-- 100 -->
      <g transform="translate(31.085 456.805534)scale(0.13 -0.13)">
       <use xlink:href="#DejaVuSans-49"/>
       <use x="63.623047" xlink:href="#DejaVuSans-48"/>
       <use x="127.246094" xlink:href="#DejaVuSans-48"/>
      </g>
     </g>
    </g>
    <g id="ytick_3">
     <g id="line2d_13">
      <path clip-path="url(#p664289d3fe)" d="M 62.89875 415.222586 
L 1178.89875 415.222586 
" style="fill:none;stroke:#b0b0b0;stroke-linecap:square;stroke-width:0.8;"/>
     </g>
     <g id="line2d_14">
      <g>
       <use style="stroke:#000000;stroke-width:0.8;" x="62.89875" xlink:href="#mf818d6ca1d" y="415.222586"/>
      </g>
     </g>
     <g id="text_11">
      <!-- 200 -->
      <g transform="translate(31.085 420.16157)scale(0.13 -0.13)">
       <use xlink:href="#DejaVuSans-50"/>
       <use x="63.623047" xlink:href="#DejaVuSans-48"/>
       <use x="127.246094" xlink:href="#DejaVuSans-48"/>
      </g>
     </g>
    </g>
    <g id="ytick_4">
     <g id="line2d_15">
      <path clip-path="url(#p664289d3fe)" d="M 62.89875 378.578622 
L 1178.89875 378.578622 
" style="fill:none;stroke:#b0b0b0;stroke-linecap:square;stroke-width:0.8;"/>
     </g>
     <g id="line2d_16">
      <g>
       <use style="stroke:#000000;stroke-width:0.8;" x="62.89875" xlink:href="#mf818d6ca1d" y="378.578622"/>
      </g>
     </g>
     <g id="text_12">
      <!-- 300 -->
      <defs>
       <path d="M 40.578125 39.3125 
Q 47.65625 37.796875 51.625 33 
Q 55.609375 28.21875 55.609375 21.1875 
Q 55.609375 10.40625 48.1875 4.484375 
Q 40.765625 -1.421875 27.09375 -1.421875 
Q 22.515625 -1.421875 17.65625 -0.515625 
Q 12.796875 0.390625 7.625 2.203125 
L 7.625 11.71875 
Q 11.71875 9.328125 16.59375 8.109375 
Q 21.484375 6.890625 26.8125 6.890625 
Q 36.078125 6.890625 40.9375 10.546875 
Q 45.796875 14.203125 45.796875 21.1875 
Q 45.796875 27.640625 41.28125 31.265625 
Q 36.765625 34.90625 28.71875 34.90625 
L 20.21875 34.90625 
L 20.21875 43.015625 
L 29.109375 43.015625 
Q 36.375 43.015625 40.234375 45.921875 
Q 44.09375 48.828125 44.09375 54.296875 
Q 44.09375 59.90625 40.109375 62.90625 
Q 36.140625 65.921875 28.71875 65.921875 
Q 24.65625 65.921875 20.015625 65.03125 
Q 15.375 64.15625 9.8125 62.3125 
L 9.8125 71.09375 
Q 15.4375 72.65625 20.34375 73.4375 
Q 25.25 74.21875 29.59375 74.21875 
Q 40.828125 74.21875 47.359375 69.109375 
Q 53.90625 64.015625 53.90625 55.328125 
Q 53.90625 49.265625 50.4375 45.09375 
Q 46.96875 40.921875 40.578125 39.3125 
z
" id="DejaVuSans-51"/>
      </defs>
      <g transform="translate(31.085 383.517607)scale(0.13 -0.13)">
       <use xlink:href="#DejaVuSans-51"/>
       <use x="63.623047" xlink:href="#DejaVuSans-48"/>
       <use x="127.246094" xlink:href="#DejaVuSans-48"/>
      </g>
     </g>
    </g>
    <g id="ytick_5">
     <g id="line2d_17">
      <path clip-path="url(#p664289d3fe)" d="M 62.89875 341.934658 
L 1178.89875 341.934658 
" style="fill:none;stroke:#b0b0b0;stroke-linecap:square;stroke-width:0.8;"/>
     </g>
     <g id="line2d_18">
      <g>
       <use style="stroke:#000000;stroke-width:0.8;" x="62.89875" xlink:href="#mf818d6ca1d" y="341.934658"/>
      </g>
     </g>
     <g id="text_13">
      <!-- 400 -->
      <g transform="translate(31.085 346.873643)scale(0.13 -0.13)">
       <use xlink:href="#DejaVuSans-52"/>
       <use x="63.623047" xlink:href="#DejaVuSans-48"/>
       <use x="127.246094" xlink:href="#DejaVuSans-48"/>
      </g>
     </g>
    </g>
    <g id="ytick_6">
     <g id="line2d_19">
      <path clip-path="url(#p664289d3fe)" d="M 62.89875 305.290695 
L 1178.89875 305.290695 
" style="fill:none;stroke:#b0b0b0;stroke-linecap:square;stroke-width:0.8;"/>
     </g>
     <g id="line2d_20">
      <g>
       <use style="stroke:#000000;stroke-width:0.8;" x="62.89875" xlink:href="#mf818d6ca1d" y="305.290695"/>
      </g>
     </g>
     <g id="text_14">
      <!-- 500 -->
      <g transform="translate(31.085 310.229679)scale(0.13 -0.13)">
       <use xlink:href="#DejaVuSans-53"/>
       <use x="63.623047" xlink:href="#DejaVuSans-48"/>
       <use x="127.246094" xlink:href="#DejaVuSans-48"/>
      </g>
     </g>
    </g>
    <g id="ytick_7">
     <g id="line2d_21">
      <path clip-path="url(#p664289d3fe)" d="M 62.89875 268.646731 
L 1178.89875 268.646731 
" style="fill:none;stroke:#b0b0b0;stroke-linecap:square;stroke-width:0.8;"/>
     </g>
     <g id="line2d_22">
      <g>
       <use style="stroke:#000000;stroke-width:0.8;" x="62.89875" xlink:href="#mf818d6ca1d" y="268.646731"/>
      </g>
     </g>
     <g id="text_15">
      <!-- 600 -->
      <g transform="translate(31.085 273.585715)scale(0.13 -0.13)">
       <use xlink:href="#DejaVuSans-54"/>
       <use x="63.623047" xlink:href="#DejaVuSans-48"/>
       <use x="127.246094" xlink:href="#DejaVuSans-48"/>
      </g>
     </g>
    </g>
    <g id="ytick_8">
     <g id="line2d_23">
      <path clip-path="url(#p664289d3fe)" d="M 62.89875 232.002767 
L 1178.89875 232.002767 
" style="fill:none;stroke:#b0b0b0;stroke-linecap:square;stroke-width:0.8;"/>
     </g>
     <g id="line2d_24">
      <g>
       <use style="stroke:#000000;stroke-width:0.8;" x="62.89875" xlink:href="#mf818d6ca1d" y="232.002767"/>
      </g>
     </g>
     <g id="text_16">
      <!-- 700 -->
      <g transform="translate(31.085 236.941751)scale(0.13 -0.13)">
       <use xlink:href="#DejaVuSans-55"/>
       <use x="63.623047" xlink:href="#DejaVuSans-48"/>
       <use x="127.246094" xlink:href="#DejaVuSans-48"/>
      </g>
     </g>
    </g>
    <g id="ytick_9">
     <g id="line2d_25">
      <path clip-path="url(#p664289d3fe)" d="M 62.89875 195.358803 
L 1178.89875 195.358803 
" style="fill:none;stroke:#b0b0b0;stroke-linecap:square;stroke-width:0.8;"/>
     </g>
     <g id="line2d_26">
      <g>
       <use style="stroke:#000000;stroke-width:0.8;" x="62.89875" xlink:href="#mf818d6ca1d" y="195.358803"/>
      </g>
     </g>
     <g id="text_17">
      <!-- 800 -->
      <g transform="translate(31.085 200.297788)scale(0.13 -0.13)">
       <use xlink:href="#DejaVuSans-56"/>
       <use x="63.623047" xlink:href="#DejaVuSans-48"/>
       <use x="127.246094" xlink:href="#DejaVuSans-48"/>
      </g>
     </g>
    </g>
    <g id="ytick_10">
     <g id="line2d_27">
      <path clip-path="url(#p664289d3fe)" d="M 62.89875 158.714839 
L 1178.89875 158.714839 
" style="fill:none;stroke:#b0b0b0;stroke-linecap:square;stroke-width:0.8;"/>
     </g>
     <g id="line2d_28">
      <g>
       <use style="stroke:#000000;stroke-width:0.8;" x="62.89875" xlink:href="#mf818d6ca1d" y="158.714839"/>
      </g>
     </g>
     <g id="text_18">
      <!-- 900 -->
      <g transform="translate(31.085 163.653824)scale(0.13 -0.13)">
       <use xlink:href="#DejaVuSans-57"/>
       <use x="63.623047" xlink:href="#DejaVuSans-48"/>
       <use x="127.246094" xlink:href="#DejaVuSans-48"/>
      </g>
     </g>
    </g>
    <g id="ytick_11">
     <g id="line2d_29">
      <path clip-path="url(#p664289d3fe)" d="M 62.89875 122.070876 
L 1178.89875 122.070876 
" style="fill:none;stroke:#b0b0b0;stroke-linecap:square;stroke-width:0.8;"/>
     </g>
     <g id="line2d_30">
      <g>
       <use style="stroke:#000000;stroke-width:0.8;" x="62.89875" xlink:href="#mf818d6ca1d" y="122.070876"/>
      </g>
     </g>
     <g id="text_19">
      <!-- 1000 -->
      <g transform="translate(22.81375 127.00986)scale(0.13 -0.13)">
       <use xlink:href="#DejaVuSans-49"/>
       <use x="63.623047" xlink:href="#DejaVuSans-48"/>
       <use x="127.246094" xlink:href="#DejaVuSans-48"/>
       <use x="190.869141" xlink:href="#DejaVuSans-48"/>
      </g>
     </g>
    </g>
    <g id="ytick_12">
     <g id="line2d_31">
      <path clip-path="url(#p664289d3fe)" d="M 62.89875 85.426912 
L 1178.89875 85.426912 
" style="fill:none;stroke:#b0b0b0;stroke-linecap:square;stroke-width:0.8;"/>
     </g>
     <g id="line2d_32">
      <g>
       <use style="stroke:#000000;stroke-width:0.8;" x="62.89875" xlink:href="#mf818d6ca1d" y="85.426912"/>
      </g>
     </g>
     <g id="text_20">
      <!-- 1100 -->
      <g transform="translate(22.81375 90.365896)scale(0.13 -0.13)">
       <use xlink:href="#DejaVuSans-49"/>
       <use x="63.623047" xlink:href="#DejaVuSans-49"/>
       <use x="127.246094" xlink:href="#DejaVuSans-48"/>
       <use x="190.869141" xlink:href="#DejaVuSans-48"/>
      </g>
     </g>
    </g>
    <g id="ytick_13">
     <g id="line2d_33">
      <path clip-path="url(#p664289d3fe)" d="M 62.89875 48.782948 
L 1178.89875 48.782948 
" style="fill:none;stroke:#b0b0b0;stroke-linecap:square;stroke-width:0.8;"/>
     </g>
     <g id="line2d_34">
      <g>
       <use style="stroke:#000000;stroke-width:0.8;" x="62.89875" xlink:href="#mf818d6ca1d" y="48.782948"/>
      </g>
     </g>
     <g id="text_21">
      <!-- 1200 -->
      <g transform="translate(22.81375 53.721933)scale(0.13 -0.13)">
       <use xlink:href="#DejaVuSans-49"/>
       <use x="63.623047" xlink:href="#DejaVuSans-50"/>
       <use x="127.246094" xlink:href="#DejaVuSans-48"/>
       <use x="190.869141" xlink:href="#DejaVuSans-48"/>
      </g>
     </g>
    </g>
    <g id="ytick_14">
     <g id="line2d_35">
      <path clip-path="url(#p664289d3fe)" d="M 62.89875 12.138984 
L 1178.89875 12.138984 
" style="fill:none;stroke:#b0b0b0;stroke-linecap:square;stroke-width:0.8;"/>
     </g>
     <g id="line2d_36">
      <g>
       <use style="stroke:#000000;stroke-width:0.8;" x="62.89875" xlink:href="#mf818d6ca1d" y="12.138984"/>
      </g>
     </g>
     <g id="text_22">
      <!-- 1300 -->
      <g transform="translate(22.81375 17.077969)scale(0.13 -0.13)">
       <use xlink:href="#DejaVuSans-49"/>
       <use x="63.623047" xlink:href="#DejaVuSans-51"/>
       <use x="127.246094" xlink:href="#DejaVuSans-48"/>
       <use x="190.869141" xlink:href="#DejaVuSans-48"/>
      </g>
     </g>
    </g>
    <g id="text_23">
     <!-- Anzahl von Fällen -->
     <defs>
      <path d="M 34.1875 63.1875 
L 20.796875 26.90625 
L 47.609375 26.90625 
z
M 28.609375 72.90625 
L 39.796875 72.90625 
L 67.578125 0 
L 57.328125 0 
L 50.6875 18.703125 
L 17.828125 18.703125 
L 11.1875 0 
L 0.78125 0 
z
" id="DejaVuSans-65"/>
      <path d="M 54.890625 33.015625 
L 54.890625 0 
L 45.90625 0 
L 45.90625 32.71875 
Q 45.90625 40.484375 42.875 44.328125 
Q 39.84375 48.1875 33.796875 48.1875 
Q 26.515625 48.1875 22.3125 43.546875 
Q 18.109375 38.921875 18.109375 30.90625 
L 18.109375 0 
L 9.078125 0 
L 9.078125 54.6875 
L 18.109375 54.6875 
L 18.109375 46.1875 
Q 21.34375 51.125 25.703125 53.5625 
Q 30.078125 56 35.796875 56 
Q 45.21875 56 50.046875 50.171875 
Q 54.890625 44.34375 54.890625 33.015625 
z
" id="DejaVuSans-110"/>
      <path d="M 5.515625 54.6875 
L 48.1875 54.6875 
L 48.1875 46.484375 
L 14.40625 7.171875 
L 48.1875 7.171875 
L 48.1875 0 
L 4.296875 0 
L 4.296875 8.203125 
L 38.09375 47.515625 
L 5.515625 47.515625 
z
" id="DejaVuSans-122"/>
      <path d="M 34.28125 27.484375 
Q 23.390625 27.484375 19.1875 25 
Q 14.984375 22.515625 14.984375 16.5 
Q 14.984375 11.71875 18.140625 8.90625 
Q 21.296875 6.109375 26.703125 6.109375 
Q 34.1875 6.109375 38.703125 11.40625 
Q 43.21875 16.703125 43.21875 25.484375 
L 43.21875 27.484375 
z
M 52.203125 31.203125 
L 52.203125 0 
L 43.21875 0 
L 43.21875 8.296875 
Q 40.140625 3.328125 35.546875 0.953125 
Q 30.953125 -1.421875 24.3125 -1.421875 
Q 15.921875 -1.421875 10.953125 3.296875 
Q 6 8.015625 6 15.921875 
Q 6 25.140625 12.171875 29.828125 
Q 18.359375 34.515625 30.609375 34.515625 
L 43.21875 34.515625 
L 43.21875 35.40625 
Q 43.21875 41.609375 39.140625 45 
Q 35.0625 48.390625 27.6875 48.390625 
Q 23 48.390625 18.546875 47.265625 
Q 14.109375 46.140625 10.015625 43.890625 
L 10.015625 52.203125 
Q 14.9375 54.109375 19.578125 55.046875 
Q 24.21875 56 28.609375 56 
Q 40.484375 56 46.34375 49.84375 
Q 52.203125 43.703125 52.203125 31.203125 
z
" id="DejaVuSans-97"/>
      <path d="M 54.890625 33.015625 
L 54.890625 0 
L 45.90625 0 
L 45.90625 32.71875 
Q 45.90625 40.484375 42.875 44.328125 
Q 39.84375 48.1875 33.796875 48.1875 
Q 26.515625 48.1875 22.3125 43.546875 
Q 18.109375 38.921875 18.109375 30.90625 
L 18.109375 0 
L 9.078125 0 
L 9.078125 75.984375 
L 18.109375 75.984375 
L 18.109375 46.1875 
Q 21.34375 51.125 25.703125 53.5625 
Q 30.078125 56 35.796875 56 
Q 45.21875 56 50.046875 50.171875 
Q 54.890625 44.34375 54.890625 33.015625 
z
" id="DejaVuSans-104"/>
      <path d="M 9.421875 75.984375 
L 18.40625 75.984375 
L 18.40625 0 
L 9.421875 0 
z
" id="DejaVuSans-108"/>
      <path id="DejaVuSans-32"/>
      <path d="M 2.984375 54.6875 
L 12.5 54.6875 
L 29.59375 8.796875 
L 46.6875 54.6875 
L 56.203125 54.6875 
L 35.6875 0 
L 23.484375 0 
z
" id="DejaVuSans-118"/>
      <path d="M 30.609375 48.390625 
Q 23.390625 48.390625 19.1875 42.75 
Q 14.984375 37.109375 14.984375 27.296875 
Q 14.984375 17.484375 19.15625 11.84375 
Q 23.34375 6.203125 30.609375 6.203125 
Q 37.796875 6.203125 41.984375 11.859375 
Q 46.1875 17.53125 46.1875 27.296875 
Q 46.1875 37.015625 41.984375 42.703125 
Q 37.796875 48.390625 30.609375 48.390625 
z
M 30.609375 56 
Q 42.328125 56 49.015625 48.375 
Q 55.71875 40.765625 55.71875 27.296875 
Q 55.71875 13.875 49.015625 6.21875 
Q 42.328125 -1.421875 30.609375 -1.421875 
Q 18.84375 -1.421875 12.171875 6.21875 
Q 5.515625 13.875 5.515625 27.296875 
Q 5.515625 40.765625 12.171875 48.375 
Q 18.84375 56 30.609375 56 
z
" id="DejaVuSans-111"/>
      <path d="M 9.8125 72.90625 
L 51.703125 72.90625 
L 51.703125 64.59375 
L 19.671875 64.59375 
L 19.671875 43.109375 
L 48.578125 43.109375 
L 48.578125 34.8125 
L 19.671875 34.8125 
L 19.671875 0 
L 9.8125 0 
z
" id="DejaVuSans-70"/>
      <path d="M 34.28125 27.484375 
Q 23.390625 27.484375 19.1875 25 
Q 14.984375 22.515625 14.984375 16.5 
Q 14.984375 11.71875 18.140625 8.90625 
Q 21.296875 6.109375 26.703125 6.109375 
Q 34.1875 6.109375 38.703125 11.40625 
Q 43.21875 16.703125 43.21875 25.484375 
L 43.21875 27.484375 
z
M 52.203125 31.203125 
L 52.203125 0 
L 43.21875 0 
L 43.21875 8.296875 
Q 40.140625 3.328125 35.546875 0.953125 
Q 30.953125 -1.421875 24.3125 -1.421875 
Q 15.921875 -1.421875 10.953125 3.296875 
Q 6 8.015625 6 15.921875 
Q 6 25.140625 12.171875 29.828125 
Q 18.359375 34.515625 30.609375 34.515625 
L 43.21875 34.515625 
L 43.21875 35.40625 
Q 43.21875 41.609375 39.140625 45 
Q 35.0625 48.390625 27.6875 48.390625 
Q 23 48.390625 18.546875 47.265625 
Q 14.109375 46.140625 10.015625 43.890625 
L 10.015625 52.203125 
Q 14.9375 54.109375 19.578125 55.046875 
Q 24.21875 56 28.609375 56 
Q 40.484375 56 46.34375 49.84375 
Q 52.203125 43.703125 52.203125 31.203125 
z
M 33.59375 75.78125 
L 43.5 75.78125 
L 43.5 65.921875 
L 33.59375 65.921875 
z
M 14.5 75.78125 
L 24.40625 75.78125 
L 24.40625 65.921875 
L 14.5 65.921875 
z
" id="DejaVuSans-228"/>
      <path d="M 56.203125 29.59375 
L 56.203125 25.203125 
L 14.890625 25.203125 
Q 15.484375 15.921875 20.484375 11.0625 
Q 25.484375 6.203125 34.421875 6.203125 
Q 39.59375 6.203125 44.453125 7.46875 
Q 49.3125 8.734375 54.109375 11.28125 
L 54.109375 2.78125 
Q 49.265625 0.734375 44.1875 -0.34375 
Q 39.109375 -1.421875 33.890625 -1.421875 
Q 20.796875 -1.421875 13.15625 6.1875 
Q 5.515625 13.8125 5.515625 26.8125 
Q 5.515625 40.234375 12.765625 48.109375 
Q 20.015625 56 32.328125 56 
Q 43.359375 56 49.78125 48.890625 
Q 56.203125 41.796875 56.203125 29.59375 
z
M 47.21875 32.234375 
Q 47.125 39.59375 43.09375 43.984375 
Q 39.0625 48.390625 32.421875 48.390625 
Q 24.90625 48.390625 20.390625 44.140625 
Q 15.875 39.890625 15.1875 32.171875 
z
" id="DejaVuSans-101"/>
     </defs>
     <g transform="translate(16.318125 309.388359)rotate(-90)scale(0.12 -0.12)">
      <use xlink:href="#DejaVuSans-65"/>
      <use x="68.408203" xlink:href="#DejaVuSans-110"/>
      <use x="131.787109" xlink:href="#DejaVuSans-122"/>
      <use x="184.277344" xlink:href="#DejaVuSans-97"/>
      <use x="245.556641" xlink:href="#DejaVuSans-104"/>
      <use x="308.935547" xlink:href="#DejaVuSans-108"/>
      <use x="336.71875" xlink:href="#DejaVuSans-32"/>
      <use x="368.505859" xlink:href="#DejaVuSans-118"/>
      <use x="427.685547" xlink:href="#DejaVuSans-111"/>
      <use x="488.867188" xlink:href="#DejaVuSans-110"/>
      <use x="552.246094" xlink:href="#DejaVuSans-32"/>
      <use x="584.033203" xlink:href="#DejaVuSans-70"/>
      <use x="632.427734" xlink:href="#DejaVuSans-228"/>
      <use x="693.707031" xlink:href="#DejaVuSans-108"/>
      <use x="721.490234" xlink:href="#DejaVuSans-108"/>
      <use x="749.273438" xlink:href="#DejaVuSans-101"/>
      <use x="810.796875" xlink:href="#DejaVuSans-110"/>
     </g>
    </g>
   </g>
   <g id="line2d_37">
    <path clip-path="url(#p664289d3fe)" d="M 113.626023 487.777634 
L 122.115943 487.777634 
L 126.360903 486.678315 
L 130.605863 486.678315 
L 134.850823 484.846117 
L 147.585703 484.846117 
L 151.830663 484.479677 
L 156.075623 483.380359 
L 160.320583 480.815281 
L 164.565543 478.983083 
L 168.810504 478.983083 
L 173.055464 478.616643 
L 177.300424 478.616643 
L 181.545384 477.517324 
L 185.790344 476.784445 
L 190.035304 474.952247 
L 198.525224 474.219368 
L 207.015144 472.753609 
L 211.260104 472.387169 
L 215.505064 472.387169 
L 219.750024 469.822092 
L 223.994984 469.822092 
L 232.484904 467.989894 
L 240.974825 465.791256 
L 245.219785 463.226178 
L 253.709705 462.493299 
L 262.199625 459.195342 
L 266.444585 456.996705 
L 270.689545 455.897386 
L 274.934505 453.698748 
L 283.424425 452.599429 
L 291.914345 449.667912 
L 296.159305 447.835714 
L 300.404265 446.736395 
L 304.649225 444.904197 
L 308.894186 444.537757 
L 313.139146 441.972679 
L 321.629066 440.140481 
L 325.874026 439.407602 
L 330.118986 436.842525 
L 334.363946 436.842525 
L 342.853866 431.71237 
L 351.343786 429.513732 
L 355.588746 428.780852 
L 368.323626 425.482896 
L 372.568586 424.750016 
L 381.058507 424.383577 
L 385.303467 424.383577 
L 393.793387 423.284258 
L 398.038347 422.184939 
L 415.018187 421.45206 
L 419.263147 420.352741 
L 423.508107 419.986301 
L 427.753067 419.253422 
L 440.487947 419.253422 
L 444.732907 418.520543 
L 448.977868 418.154103 
L 457.467788 416.688344 
L 461.712748 416.321905 
L 478.692588 416.321905 
L 487.182508 414.123267 
L 491.427468 414.123267 
L 499.917388 413.756827 
L 508.407308 413.023948 
L 576.326669 413.023948 
L 589.06155 411.924629 
L 593.30651 411.19175 
L 597.55147 410.82531 
L 601.79643 410.092431 
L 606.04139 410.092431 
L 618.77627 409.359552 
L 631.51115 407.527354 
L 665.470831 407.527354 
L 707.920431 397.633483 
L 712.165391 394.701966 
L 720.655311 393.236208 
L 724.900271 393.236208 
L 737.635152 390.67113 
L 741.880112 388.838932 
L 746.125072 388.472492 
L 750.370032 387.739613 
L 754.614992 387.739613 
L 767.349872 387.373173 
L 771.594832 386.640294 
L 775.839792 386.273855 
L 780.084752 385.174536 
L 784.329712 383.708777 
L 797.064593 383.342337 
L 801.309553 383.342337 
L 805.554513 382.609458 
L 809.799473 381.510139 
L 814.044433 381.510139 
L 831.024273 378.578622 
L 835.269233 378.212182 
L 839.514193 378.212182 
L 843.759153 376.746424 
L 860.738993 376.746424 
L 864.983953 376.379984 
L 869.228914 375.280665 
L 873.473874 375.280665 
L 886.208754 374.547786 
L 890.453714 374.547786 
L 898.943634 373.082028 
L 903.188594 372.715588 
L 915.923474 371.982709 
L 920.168434 370.51695 
L 924.413394 370.51695 
L 932.903314 369.784071 
L 945.638195 364.653916 
L 949.883155 364.287476 
L 954.128115 362.821718 
L 958.373075 359.523761 
L 979.597875 355.492925 
L 1009.312596 345.599055 
L 1013.557556 342.667538 
L 1017.802516 337.537383 
L 1022.047476 337.170943 
L 1034.782356 331.674348 
L 1039.027316 331.307909 
L 1043.272276 324.345556 
L 1047.517236 321.780478 
L 1051.762196 319.94828 
L 1064.497076 312.619487 
L 1072.986996 312.619487 
L 1081.476917 305.290695 
L 1094.211797 301.626298 
L 1102.701717 283.304316 
L 1106.946677 275.975524 
L 1111.191637 261.317938 
L 1123.926517 246.660353 
L 1128.171477 239.33156 
L 1128.171477 239.33156 
" style="fill:none;stroke:#dbcd00;stroke-linecap:square;stroke-width:2;"/>
    <defs>
     <path d="M 0 1.5 
C 0.397805 1.5 0.77937 1.341951 1.06066 1.06066 
C 1.341951 0.77937 1.5 0.397805 1.5 0 
C 1.5 -0.397805 1.341951 -0.77937 1.06066 -1.06066 
C 0.77937 -1.341951 0.397805 -1.5 0 -1.5 
C -0.397805 -1.5 -0.77937 -1.341951 -1.06066 -1.06066 
C -1.341951 -0.77937 -1.5 -0.397805 -1.5 0 
C -1.5 0.397805 -1.341951 0.77937 -1.06066 1.06066 
C -0.77937 1.341951 -0.397805 1.5 0 1.5 
z
" id="mc2b016c20c" style="stroke:#dbcd00;"/>
    </defs>
    <g clip-path="url(#p664289d3fe)">
     <use style="fill:#dbcd00;stroke:#dbcd00;" x="113.626023" xlink:href="#mc2b016c20c" y="487.777634"/>
     <use style="fill:#dbcd00;stroke:#dbcd00;" x="117.870983" xlink:href="#mc2b016c20c" y="487.777634"/>
     <use style="fill:#dbcd00;stroke:#dbcd00;" x="122.115943" xlink:href="#mc2b016c20c" y="487.777634"/>
     <use style="fill:#dbcd00;stroke:#dbcd00;" x="126.360903" xlink:href="#mc2b016c20c" y="486.678315"/>
     <use style="fill:#dbcd00;stroke:#dbcd00;" x="130.605863" xlink:href="#mc2b016c20c" y="486.678315"/>
     <use style="fill:#dbcd00;stroke:#dbcd00;" x="134.850823" xlink:href="#mc2b016c20c" y="484.846117"/>
     <use style="fill:#dbcd00;stroke:#dbcd00;" x="139.095783" xlink:href="#mc2b016c20c" y="484.846117"/>
     <use style="fill:#dbcd00;stroke:#dbcd00;" x="143.340743" xlink:href="#mc2b016c20c" y="484.846117"/>
     <use style="fill:#dbcd00;stroke:#dbcd00;" x="147.585703" xlink:href="#mc2b016c20c" y="484.846117"/>
     <use style="fill:#dbcd00;stroke:#dbcd00;" x="151.830663" xlink:href="#mc2b016c20c" y="484.479677"/>
     <use style="fill:#dbcd00;stroke:#dbcd00;" x="156.075623" xlink:href="#mc2b016c20c" y="483.380359"/>
     <use style="fill:#dbcd00;stroke:#dbcd00;" x="160.320583" xlink:href="#mc2b016c20c" y="480.815281"/>
     <use style="fill:#dbcd00;stroke:#dbcd00;" x="164.565543" xlink:href="#mc2b016c20c" y="478.983083"/>
     <use style="fill:#dbcd00;stroke:#dbcd00;" x="168.810504" xlink:href="#mc2b016c20c" y="478.983083"/>
     <use style="fill:#dbcd00;stroke:#dbcd00;" x="173.055464" xlink:href="#mc2b016c20c" y="478.616643"/>
     <use style="fill:#dbcd00;stroke:#dbcd00;" x="177.300424" xlink:href="#mc2b016c20c" y="478.616643"/>
     <use style="fill:#dbcd00;stroke:#dbcd00;" x="181.545384" xlink:href="#mc2b016c20c" y="477.517324"/>
     <use style="fill:#dbcd00;stroke:#dbcd00;" x="185.790344" xlink:href="#mc2b016c20c" y="476.784445"/>
     <use style="fill:#dbcd00;stroke:#dbcd00;" x="190.035304" xlink:href="#mc2b016c20c" y="474.952247"/>
     <use style="fill:#dbcd00;stroke:#dbcd00;" x="198.525224" xlink:href="#mc2b016c20c" y="474.219368"/>
     <use style="fill:#dbcd00;stroke:#dbcd00;" x="207.015144" xlink:href="#mc2b016c20c" y="472.753609"/>
     <use style="fill:#dbcd00;stroke:#dbcd00;" x="211.260104" xlink:href="#mc2b016c20c" y="472.387169"/>
     <use style="fill:#dbcd00;stroke:#dbcd00;" x="215.505064" xlink:href="#mc2b016c20c" y="472.387169"/>
     <use style="fill:#dbcd00;stroke:#dbcd00;" x="219.750024" xlink:href="#mc2b016c20c" y="469.822092"/>
     <use style="fill:#dbcd00;stroke:#dbcd00;" x="223.994984" xlink:href="#mc2b016c20c" y="469.822092"/>
     <use style="fill:#dbcd00;stroke:#dbcd00;" x="232.484904" xlink:href="#mc2b016c20c" y="467.989894"/>
     <use style="fill:#dbcd00;stroke:#dbcd00;" x="236.729864" xlink:href="#mc2b016c20c" y="466.890575"/>
     <use style="fill:#dbcd00;stroke:#dbcd00;" x="240.974825" xlink:href="#mc2b016c20c" y="465.791256"/>
     <use style="fill:#dbcd00;stroke:#dbcd00;" x="245.219785" xlink:href="#mc2b016c20c" y="463.226178"/>
     <use style="fill:#dbcd00;stroke:#dbcd00;" x="249.464745" xlink:href="#mc2b016c20c" y="462.859739"/>
     <use style="fill:#dbcd00;stroke:#dbcd00;" x="253.709705" xlink:href="#mc2b016c20c" y="462.493299"/>
     <use style="fill:#dbcd00;stroke:#dbcd00;" x="262.199625" xlink:href="#mc2b016c20c" y="459.195342"/>
     <use style="fill:#dbcd00;stroke:#dbcd00;" x="266.444585" xlink:href="#mc2b016c20c" y="456.996705"/>
     <use style="fill:#dbcd00;stroke:#dbcd00;" x="270.689545" xlink:href="#mc2b016c20c" y="455.897386"/>
     <use style="fill:#dbcd00;stroke:#dbcd00;" x="274.934505" xlink:href="#mc2b016c20c" y="453.698748"/>
     <use style="fill:#dbcd00;stroke:#dbcd00;" x="283.424425" xlink:href="#mc2b016c20c" y="452.599429"/>
     <use style="fill:#dbcd00;stroke:#dbcd00;" x="291.914345" xlink:href="#mc2b016c20c" y="449.667912"/>
     <use style="fill:#dbcd00;stroke:#dbcd00;" x="296.159305" xlink:href="#mc2b016c20c" y="447.835714"/>
     <use style="fill:#dbcd00;stroke:#dbcd00;" x="300.404265" xlink:href="#mc2b016c20c" y="446.736395"/>
     <use style="fill:#dbcd00;stroke:#dbcd00;" x="304.649225" xlink:href="#mc2b016c20c" y="444.904197"/>
     <use style="fill:#dbcd00;stroke:#dbcd00;" x="308.894186" xlink:href="#mc2b016c20c" y="444.537757"/>
     <use style="fill:#dbcd00;stroke:#dbcd00;" x="313.139146" xlink:href="#mc2b016c20c" y="441.972679"/>
     <use style="fill:#dbcd00;stroke:#dbcd00;" x="321.629066" xlink:href="#mc2b016c20c" y="440.140481"/>
     <use style="fill:#dbcd00;stroke:#dbcd00;" x="325.874026" xlink:href="#mc2b016c20c" y="439.407602"/>
     <use style="fill:#dbcd00;stroke:#dbcd00;" x="330.118986" xlink:href="#mc2b016c20c" y="436.842525"/>
     <use style="fill:#dbcd00;stroke:#dbcd00;" x="334.363946" xlink:href="#mc2b016c20c" y="436.842525"/>
     <use style="fill:#dbcd00;stroke:#dbcd00;" x="338.608906" xlink:href="#mc2b016c20c" y="434.277447"/>
     <use style="fill:#dbcd00;stroke:#dbcd00;" x="342.853866" xlink:href="#mc2b016c20c" y="431.71237"/>
     <use style="fill:#dbcd00;stroke:#dbcd00;" x="351.343786" xlink:href="#mc2b016c20c" y="429.513732"/>
     <use style="fill:#dbcd00;stroke:#dbcd00;" x="355.588746" xlink:href="#mc2b016c20c" y="428.780852"/>
     <use style="fill:#dbcd00;stroke:#dbcd00;" x="359.833706" xlink:href="#mc2b016c20c" y="427.681534"/>
     <use style="fill:#dbcd00;stroke:#dbcd00;" x="368.323626" xlink:href="#mc2b016c20c" y="425.482896"/>
     <use style="fill:#dbcd00;stroke:#dbcd00;" x="372.568586" xlink:href="#mc2b016c20c" y="424.750016"/>
     <use style="fill:#dbcd00;stroke:#dbcd00;" x="381.058507" xlink:href="#mc2b016c20c" y="424.383577"/>
     <use style="fill:#dbcd00;stroke:#dbcd00;" x="385.303467" xlink:href="#mc2b016c20c" y="424.383577"/>
     <use style="fill:#dbcd00;stroke:#dbcd00;" x="393.793387" xlink:href="#mc2b016c20c" y="423.284258"/>
     <use style="fill:#dbcd00;stroke:#dbcd00;" x="398.038347" xlink:href="#mc2b016c20c" y="422.184939"/>
     <use style="fill:#dbcd00;stroke:#dbcd00;" x="415.018187" xlink:href="#mc2b016c20c" y="421.45206"/>
     <use style="fill:#dbcd00;stroke:#dbcd00;" x="419.263147" xlink:href="#mc2b016c20c" y="420.352741"/>
     <use style="fill:#dbcd00;stroke:#dbcd00;" x="423.508107" xlink:href="#mc2b016c20c" y="419.986301"/>
     <use style="fill:#dbcd00;stroke:#dbcd00;" x="427.753067" xlink:href="#mc2b016c20c" y="419.253422"/>
     <use style="fill:#dbcd00;stroke:#dbcd00;" x="431.998027" xlink:href="#mc2b016c20c" y="419.253422"/>
     <use style="fill:#dbcd00;stroke:#dbcd00;" x="440.487947" xlink:href="#mc2b016c20c" y="419.253422"/>
     <use style="fill:#dbcd00;stroke:#dbcd00;" x="444.732907" xlink:href="#mc2b016c20c" y="418.520543"/>
     <use style="fill:#dbcd00;stroke:#dbcd00;" x="448.977868" xlink:href="#mc2b016c20c" y="418.154103"/>
     <use style="fill:#dbcd00;stroke:#dbcd00;" x="457.467788" xlink:href="#mc2b016c20c" y="416.688344"/>
     <use style="fill:#dbcd00;stroke:#dbcd00;" x="461.712748" xlink:href="#mc2b016c20c" y="416.321905"/>
     <use style="fill:#dbcd00;stroke:#dbcd00;" x="470.202668" xlink:href="#mc2b016c20c" y="416.321905"/>
     <use style="fill:#dbcd00;stroke:#dbcd00;" x="478.692588" xlink:href="#mc2b016c20c" y="416.321905"/>
     <use style="fill:#dbcd00;stroke:#dbcd00;" x="487.182508" xlink:href="#mc2b016c20c" y="414.123267"/>
     <use style="fill:#dbcd00;stroke:#dbcd00;" x="491.427468" xlink:href="#mc2b016c20c" y="414.123267"/>
     <use style="fill:#dbcd00;stroke:#dbcd00;" x="499.917388" xlink:href="#mc2b016c20c" y="413.756827"/>
     <use style="fill:#dbcd00;stroke:#dbcd00;" x="504.162348" xlink:href="#mc2b016c20c" y="413.390388"/>
     <use style="fill:#dbcd00;stroke:#dbcd00;" x="508.407308" xlink:href="#mc2b016c20c" y="413.023948"/>
     <use style="fill:#dbcd00;stroke:#dbcd00;" x="512.652268" xlink:href="#mc2b016c20c" y="413.023948"/>
     <use style="fill:#dbcd00;stroke:#dbcd00;" x="521.142189" xlink:href="#mc2b016c20c" y="413.023948"/>
     <use style="fill:#dbcd00;stroke:#dbcd00;" x="529.632109" xlink:href="#mc2b016c20c" y="413.023948"/>
     <use style="fill:#dbcd00;stroke:#dbcd00;" x="533.877069" xlink:href="#mc2b016c20c" y="413.023948"/>
     <use style="fill:#dbcd00;stroke:#dbcd00;" x="538.122029" xlink:href="#mc2b016c20c" y="413.023948"/>
     <use style="fill:#dbcd00;stroke:#dbcd00;" x="542.366989" xlink:href="#mc2b016c20c" y="413.023948"/>
     <use style="fill:#dbcd00;stroke:#dbcd00;" x="546.611949" xlink:href="#mc2b016c20c" y="413.023948"/>
     <use style="fill:#dbcd00;stroke:#dbcd00;" x="550.856909" xlink:href="#mc2b016c20c" y="413.023948"/>
     <use style="fill:#dbcd00;stroke:#dbcd00;" x="563.591789" xlink:href="#mc2b016c20c" y="413.023948"/>
     <use style="fill:#dbcd00;stroke:#dbcd00;" x="567.836749" xlink:href="#mc2b016c20c" y="413.023948"/>
     <use style="fill:#dbcd00;stroke:#dbcd00;" x="572.081709" xlink:href="#mc2b016c20c" y="413.023948"/>
     <use style="fill:#dbcd00;stroke:#dbcd00;" x="576.326669" xlink:href="#mc2b016c20c" y="413.023948"/>
     <use style="fill:#dbcd00;stroke:#dbcd00;" x="589.06155" xlink:href="#mc2b016c20c" y="411.924629"/>
     <use style="fill:#dbcd00;stroke:#dbcd00;" x="593.30651" xlink:href="#mc2b016c20c" y="411.19175"/>
     <use style="fill:#dbcd00;stroke:#dbcd00;" x="597.55147" xlink:href="#mc2b016c20c" y="410.82531"/>
     <use style="fill:#dbcd00;stroke:#dbcd00;" x="601.79643" xlink:href="#mc2b016c20c" y="410.092431"/>
     <use style="fill:#dbcd00;stroke:#dbcd00;" x="606.04139" xlink:href="#mc2b016c20c" y="410.092431"/>
     <use style="fill:#dbcd00;stroke:#dbcd00;" x="618.77627" xlink:href="#mc2b016c20c" y="409.359552"/>
     <use style="fill:#dbcd00;stroke:#dbcd00;" x="631.51115" xlink:href="#mc2b016c20c" y="407.527354"/>
     <use style="fill:#dbcd00;stroke:#dbcd00;" x="635.75611" xlink:href="#mc2b016c20c" y="407.527354"/>
     <use style="fill:#dbcd00;stroke:#dbcd00;" x="648.49099" xlink:href="#mc2b016c20c" y="407.527354"/>
     <use style="fill:#dbcd00;stroke:#dbcd00;" x="652.73595" xlink:href="#mc2b016c20c" y="407.527354"/>
     <use style="fill:#dbcd00;stroke:#dbcd00;" x="656.980911" xlink:href="#mc2b016c20c" y="407.527354"/>
     <use style="fill:#dbcd00;stroke:#dbcd00;" x="661.225871" xlink:href="#mc2b016c20c" y="407.527354"/>
     <use style="fill:#dbcd00;stroke:#dbcd00;" x="665.470831" xlink:href="#mc2b016c20c" y="407.527354"/>
     <use style="fill:#dbcd00;stroke:#dbcd00;" x="707.920431" xlink:href="#mc2b016c20c" y="397.633483"/>
     <use style="fill:#dbcd00;stroke:#dbcd00;" x="712.165391" xlink:href="#mc2b016c20c" y="394.701966"/>
     <use style="fill:#dbcd00;stroke:#dbcd00;" x="720.655311" xlink:href="#mc2b016c20c" y="393.236208"/>
     <use style="fill:#dbcd00;stroke:#dbcd00;" x="724.900271" xlink:href="#mc2b016c20c" y="393.236208"/>
     <use style="fill:#dbcd00;stroke:#dbcd00;" x="737.635152" xlink:href="#mc2b016c20c" y="390.67113"/>
     <use style="fill:#dbcd00;stroke:#dbcd00;" x="741.880112" xlink:href="#mc2b016c20c" y="388.838932"/>
     <use style="fill:#dbcd00;stroke:#dbcd00;" x="746.125072" xlink:href="#mc2b016c20c" y="388.472492"/>
     <use style="fill:#dbcd00;stroke:#dbcd00;" x="750.370032" xlink:href="#mc2b016c20c" y="387.739613"/>
     <use style="fill:#dbcd00;stroke:#dbcd00;" x="754.614992" xlink:href="#mc2b016c20c" y="387.739613"/>
     <use style="fill:#dbcd00;stroke:#dbcd00;" x="767.349872" xlink:href="#mc2b016c20c" y="387.373173"/>
     <use style="fill:#dbcd00;stroke:#dbcd00;" x="771.594832" xlink:href="#mc2b016c20c" y="386.640294"/>
     <use style="fill:#dbcd00;stroke:#dbcd00;" x="775.839792" xlink:href="#mc2b016c20c" y="386.273855"/>
     <use style="fill:#dbcd00;stroke:#dbcd00;" x="780.084752" xlink:href="#mc2b016c20c" y="385.174536"/>
     <use style="fill:#dbcd00;stroke:#dbcd00;" x="784.329712" xlink:href="#mc2b016c20c" y="383.708777"/>
     <use style="fill:#dbcd00;stroke:#dbcd00;" x="797.064593" xlink:href="#mc2b016c20c" y="383.342337"/>
     <use style="fill:#dbcd00;stroke:#dbcd00;" x="801.309553" xlink:href="#mc2b016c20c" y="383.342337"/>
     <use style="fill:#dbcd00;stroke:#dbcd00;" x="805.554513" xlink:href="#mc2b016c20c" y="382.609458"/>
     <use style="fill:#dbcd00;stroke:#dbcd00;" x="809.799473" xlink:href="#mc2b016c20c" y="381.510139"/>
     <use style="fill:#dbcd00;stroke:#dbcd00;" x="814.044433" xlink:href="#mc2b016c20c" y="381.510139"/>
     <use style="fill:#dbcd00;stroke:#dbcd00;" x="826.779313" xlink:href="#mc2b016c20c" y="379.311501"/>
     <use style="fill:#dbcd00;stroke:#dbcd00;" x="831.024273" xlink:href="#mc2b016c20c" y="378.578622"/>
     <use style="fill:#dbcd00;stroke:#dbcd00;" x="835.269233" xlink:href="#mc2b016c20c" y="378.212182"/>
     <use style="fill:#dbcd00;stroke:#dbcd00;" x="839.514193" xlink:href="#mc2b016c20c" y="378.212182"/>
     <use style="fill:#dbcd00;stroke:#dbcd00;" x="843.759153" xlink:href="#mc2b016c20c" y="376.746424"/>
     <use style="fill:#dbcd00;stroke:#dbcd00;" x="856.494033" xlink:href="#mc2b016c20c" y="376.746424"/>
     <use style="fill:#dbcd00;stroke:#dbcd00;" x="860.738993" xlink:href="#mc2b016c20c" y="376.746424"/>
     <use style="fill:#dbcd00;stroke:#dbcd00;" x="864.983953" xlink:href="#mc2b016c20c" y="376.379984"/>
     <use style="fill:#dbcd00;stroke:#dbcd00;" x="869.228914" xlink:href="#mc2b016c20c" y="375.280665"/>
     <use style="fill:#dbcd00;stroke:#dbcd00;" x="873.473874" xlink:href="#mc2b016c20c" y="375.280665"/>
     <use style="fill:#dbcd00;stroke:#dbcd00;" x="886.208754" xlink:href="#mc2b016c20c" y="374.547786"/>
     <use style="fill:#dbcd00;stroke:#dbcd00;" x="890.453714" xlink:href="#mc2b016c20c" y="374.547786"/>
     <use style="fill:#dbcd00;stroke:#dbcd00;" x="894.698674" xlink:href="#mc2b016c20c" y="373.814907"/>
     <use style="fill:#dbcd00;stroke:#dbcd00;" x="898.943634" xlink:href="#mc2b016c20c" y="373.082028"/>
     <use style="fill:#dbcd00;stroke:#dbcd00;" x="903.188594" xlink:href="#mc2b016c20c" y="372.715588"/>
     <use style="fill:#dbcd00;stroke:#dbcd00;" x="915.923474" xlink:href="#mc2b016c20c" y="371.982709"/>
     <use style="fill:#dbcd00;stroke:#dbcd00;" x="920.168434" xlink:href="#mc2b016c20c" y="370.51695"/>
     <use style="fill:#dbcd00;stroke:#dbcd00;" x="924.413394" xlink:href="#mc2b016c20c" y="370.51695"/>
     <use style="fill:#dbcd00;stroke:#dbcd00;" x="928.658354" xlink:href="#mc2b016c20c" y="370.15051"/>
     <use style="fill:#dbcd00;stroke:#dbcd00;" x="932.903314" xlink:href="#mc2b016c20c" y="369.784071"/>
     <use style="fill:#dbcd00;stroke:#dbcd00;" x="945.638195" xlink:href="#mc2b016c20c" y="364.653916"/>
     <use style="fill:#dbcd00;stroke:#dbcd00;" x="949.883155" xlink:href="#mc2b016c20c" y="364.287476"/>
     <use style="fill:#dbcd00;stroke:#dbcd00;" x="954.128115" xlink:href="#mc2b016c20c" y="362.821718"/>
     <use style="fill:#dbcd00;stroke:#dbcd00;" x="958.373075" xlink:href="#mc2b016c20c" y="359.523761"/>
     <use style="fill:#dbcd00;stroke:#dbcd00;" x="975.352915" xlink:href="#mc2b016c20c" y="356.225804"/>
     <use style="fill:#dbcd00;stroke:#dbcd00;" x="979.597875" xlink:href="#mc2b016c20c" y="355.492925"/>
     <use style="fill:#dbcd00;stroke:#dbcd00;" x="1009.312596" xlink:href="#mc2b016c20c" y="345.599055"/>
     <use style="fill:#dbcd00;stroke:#dbcd00;" x="1013.557556" xlink:href="#mc2b016c20c" y="342.667538"/>
     <use style="fill:#dbcd00;stroke:#dbcd00;" x="1017.802516" xlink:href="#mc2b016c20c" y="337.537383"/>
     <use style="fill:#dbcd00;stroke:#dbcd00;" x="1022.047476" xlink:href="#mc2b016c20c" y="337.170943"/>
     <use style="fill:#dbcd00;stroke:#dbcd00;" x="1034.782356" xlink:href="#mc2b016c20c" y="331.674348"/>
     <use style="fill:#dbcd00;stroke:#dbcd00;" x="1039.027316" xlink:href="#mc2b016c20c" y="331.307909"/>
     <use style="fill:#dbcd00;stroke:#dbcd00;" x="1043.272276" xlink:href="#mc2b016c20c" y="324.345556"/>
     <use style="fill:#dbcd00;stroke:#dbcd00;" x="1047.517236" xlink:href="#mc2b016c20c" y="321.780478"/>
     <use style="fill:#dbcd00;stroke:#dbcd00;" x="1051.762196" xlink:href="#mc2b016c20c" y="319.94828"/>
     <use style="fill:#dbcd00;stroke:#dbcd00;" x="1064.497076" xlink:href="#mc2b016c20c" y="312.619487"/>
     <use style="fill:#dbcd00;stroke:#dbcd00;" x="1068.742036" xlink:href="#mc2b016c20c" y="312.619487"/>
     <use style="fill:#dbcd00;stroke:#dbcd00;" x="1072.986996" xlink:href="#mc2b016c20c" y="312.619487"/>
     <use style="fill:#dbcd00;stroke:#dbcd00;" x="1077.231957" xlink:href="#mc2b016c20c" y="308.955091"/>
     <use style="fill:#dbcd00;stroke:#dbcd00;" x="1081.476917" xlink:href="#mc2b016c20c" y="305.290695"/>
     <use style="fill:#dbcd00;stroke:#dbcd00;" x="1094.211797" xlink:href="#mc2b016c20c" y="301.626298"/>
     <use style="fill:#dbcd00;stroke:#dbcd00;" x="1102.701717" xlink:href="#mc2b016c20c" y="283.304316"/>
     <use style="fill:#dbcd00;stroke:#dbcd00;" x="1106.946677" xlink:href="#mc2b016c20c" y="275.975524"/>
     <use style="fill:#dbcd00;stroke:#dbcd00;" x="1111.191637" xlink:href="#mc2b016c20c" y="261.317938"/>
     <use style="fill:#dbcd00;stroke:#dbcd00;" x="1123.926517" xlink:href="#mc2b016c20c" y="246.660353"/>
     <use style="fill:#dbcd00;stroke:#dbcd00;" x="1128.171477" xlink:href="#mc2b016c20c" y="239.33156"/>
    </g>
   </g>
   <g id="line2d_38">
    <path clip-path="url(#p664289d3fe)" d="M 113.626023 483.013919 
L 117.870983 482.647479 
L 122.115943 480.082402 
L 126.360903 482.28104 
L 130.605863 480.815281 
L 134.850823 478.983083 
L 139.095783 478.616643 
L 143.340743 477.883764 
L 147.585703 476.418005 
L 151.830663 476.418005 
L 156.075623 475.318686 
L 160.320583 476.418005 
L 164.565543 476.418005 
L 168.810504 476.051566 
L 173.055464 474.952247 
L 181.545384 472.02073 
L 185.790344 471.28785 
L 190.035304 472.02073 
L 198.525224 472.02073 
L 207.015144 471.65429 
L 211.260104 469.822092 
L 215.505064 469.455652 
L 219.750024 470.554971 
L 223.994984 469.455652 
L 232.484904 469.822092 
L 236.729864 467.623454 
L 240.974825 468.722773 
L 245.219785 470.188532 
L 249.464745 469.822092 
L 253.709705 465.424816 
L 262.199625 467.989894 
L 266.444585 469.455652 
L 270.689545 470.188532 
L 274.934505 471.65429 
L 283.424425 469.822092 
L 291.914345 472.753609 
L 296.159305 469.822092 
L 300.404265 468.356333 
L 304.649225 470.188532 
L 308.894186 470.554971 
L 313.139146 472.387169 
L 321.629066 473.852928 
L 325.874026 474.219368 
L 330.118986 474.952247 
L 334.363946 474.952247 
L 338.608906 477.517324 
L 342.853866 479.349523 
L 351.343786 481.54816 
L 355.588746 481.9146 
L 368.323626 485.212557 
L 381.058507 484.113238 
L 385.303467 484.113238 
L 393.793387 484.479677 
L 398.038347 485.578996 
L 415.018187 484.479677 
L 419.263147 485.212557 
L 423.508107 484.846117 
L 427.753067 485.945436 
L 440.487947 485.945436 
L 444.732907 486.678315 
L 448.977868 485.945436 
L 457.467788 486.678315 
L 461.712748 486.311876 
L 478.692588 486.311876 
L 487.182508 488.510513 
L 491.427468 488.144074 
L 499.917388 488.510513 
L 504.162348 488.510513 
L 508.407308 489.243393 
L 533.877069 489.243393 
L 546.611949 488.144074 
L 550.856909 486.678315 
L 563.591789 486.678315 
L 567.836749 485.945436 
L 589.06155 485.945436 
L 593.30651 486.678315 
L 597.55147 487.044755 
L 601.79643 487.777634 
L 606.04139 486.311876 
L 618.77627 486.311876 
L 631.51115 484.846117 
L 635.75611 484.846117 
L 648.49099 480.448841 
L 656.980911 480.448841 
L 661.225871 479.349523 
L 665.470831 474.219368 
L 707.920431 478.250204 
L 712.165391 481.181721 
L 720.655311 481.9146 
L 737.635152 481.9146 
L 741.880112 483.746798 
L 746.125072 484.113238 
L 750.370032 484.846117 
L 754.614992 484.113238 
L 767.349872 483.380359 
L 771.594832 484.113238 
L 775.839792 484.113238 
L 784.329712 484.846117 
L 797.064593 484.846117 
L 805.554513 484.113238 
L 809.799473 485.212557 
L 814.044433 484.479677 
L 826.779313 484.846117 
L 831.024273 485.578996 
L 835.269233 483.746798 
L 839.514193 483.746798 
L 843.759153 484.846117 
L 856.494033 484.479677 
L 860.738993 484.113238 
L 864.983953 484.113238 
L 869.228914 485.212557 
L 873.473874 485.212557 
L 886.208754 483.013919 
L 890.453714 483.013919 
L 898.943634 483.746798 
L 903.188594 481.9146 
L 915.923474 478.616643 
L 920.168434 479.349523 
L 924.413394 476.784445 
L 928.658354 475.318686 
L 932.903314 475.685126 
L 945.638195 474.219368 
L 949.883155 474.219368 
L 954.128115 472.753609 
L 958.373075 476.051566 
L 979.597875 473.852928 
L 1009.312596 460.661101 
L 1013.557556 462.859739 
L 1017.802516 462.493299 
L 1022.047476 462.859739 
L 1034.782356 432.445249 
L 1039.027316 425.116456 
L 1047.517236 414.123267 
L 1051.762196 399.832121 
L 1064.497076 358.790882 
L 1068.742036 351.462089 
L 1072.986996 340.835339 
L 1077.231957 321.414039 
L 1081.476917 301.259859 
L 1094.211797 278.540601 
L 1102.701717 277.441282 
L 1106.946677 275.975524 
L 1111.191637 276.341963 
L 1123.926517 253.989145 
L 1128.171477 256.187783 
L 1128.171477 256.187783 
" style="fill:none;stroke:#2792cb;stroke-linecap:square;stroke-width:2;"/>
    <defs>
     <path d="M 0 1.5 
C 0.397805 1.5 0.77937 1.341951 1.06066 1.06066 
C 1.341951 0.77937 1.5 0.397805 1.5 0 
C 1.5 -0.397805 1.341951 -0.77937 1.06066 -1.06066 
C 0.77937 -1.341951 0.397805 -1.5 0 -1.5 
C -0.397805 -1.5 -0.77937 -1.341951 -1.06066 -1.06066 
C -1.341951 -0.77937 -1.5 -0.397805 -1.5 0 
C -1.5 0.397805 -1.341951 0.77937 -1.06066 1.06066 
C -0.77937 1.341951 -0.397805 1.5 0 1.5 
z
" id="m2b4487fef3" style="stroke:#2792cb;"/>
    </defs>
    <g clip-path="url(#p664289d3fe)">
     <use style="fill:#2792cb;stroke:#2792cb;" x="113.626023" xlink:href="#m2b4487fef3" y="483.013919"/>
     <use style="fill:#2792cb;stroke:#2792cb;" x="117.870983" xlink:href="#m2b4487fef3" y="482.647479"/>
     <use style="fill:#2792cb;stroke:#2792cb;" x="122.115943" xlink:href="#m2b4487fef3" y="480.082402"/>
     <use style="fill:#2792cb;stroke:#2792cb;" x="126.360903" xlink:href="#m2b4487fef3" y="482.28104"/>
     <use style="fill:#2792cb;stroke:#2792cb;" x="130.605863" xlink:href="#m2b4487fef3" y="480.815281"/>
     <use style="fill:#2792cb;stroke:#2792cb;" x="134.850823" xlink:href="#m2b4487fef3" y="478.983083"/>
     <use style="fill:#2792cb;stroke:#2792cb;" x="139.095783" xlink:href="#m2b4487fef3" y="478.616643"/>
     <use style="fill:#2792cb;stroke:#2792cb;" x="143.340743" xlink:href="#m2b4487fef3" y="477.883764"/>
     <use style="fill:#2792cb;stroke:#2792cb;" x="147.585703" xlink:href="#m2b4487fef3" y="476.418005"/>
     <use style="fill:#2792cb;stroke:#2792cb;" x="151.830663" xlink:href="#m2b4487fef3" y="476.418005"/>
     <use style="fill:#2792cb;stroke:#2792cb;" x="156.075623" xlink:href="#m2b4487fef3" y="475.318686"/>
     <use style="fill:#2792cb;stroke:#2792cb;" x="160.320583" xlink:href="#m2b4487fef3" y="476.418005"/>
     <use style="fill:#2792cb;stroke:#2792cb;" x="164.565543" xlink:href="#m2b4487fef3" y="476.418005"/>
     <use style="fill:#2792cb;stroke:#2792cb;" x="168.810504" xlink:href="#m2b4487fef3" y="476.051566"/>
     <use style="fill:#2792cb;stroke:#2792cb;" x="173.055464" xlink:href="#m2b4487fef3" y="474.952247"/>
     <use style="fill:#2792cb;stroke:#2792cb;" x="177.300424" xlink:href="#m2b4487fef3" y="473.486488"/>
     <use style="fill:#2792cb;stroke:#2792cb;" x="181.545384" xlink:href="#m2b4487fef3" y="472.02073"/>
     <use style="fill:#2792cb;stroke:#2792cb;" x="185.790344" xlink:href="#m2b4487fef3" y="471.28785"/>
     <use style="fill:#2792cb;stroke:#2792cb;" x="190.035304" xlink:href="#m2b4487fef3" y="472.02073"/>
     <use style="fill:#2792cb;stroke:#2792cb;" x="198.525224" xlink:href="#m2b4487fef3" y="472.02073"/>
     <use style="fill:#2792cb;stroke:#2792cb;" x="207.015144" xlink:href="#m2b4487fef3" y="471.65429"/>
     <use style="fill:#2792cb;stroke:#2792cb;" x="211.260104" xlink:href="#m2b4487fef3" y="469.822092"/>
     <use style="fill:#2792cb;stroke:#2792cb;" x="215.505064" xlink:href="#m2b4487fef3" y="469.455652"/>
     <use style="fill:#2792cb;stroke:#2792cb;" x="219.750024" xlink:href="#m2b4487fef3" y="470.554971"/>
     <use style="fill:#2792cb;stroke:#2792cb;" x="223.994984" xlink:href="#m2b4487fef3" y="469.455652"/>
     <use style="fill:#2792cb;stroke:#2792cb;" x="232.484904" xlink:href="#m2b4487fef3" y="469.822092"/>
     <use style="fill:#2792cb;stroke:#2792cb;" x="236.729864" xlink:href="#m2b4487fef3" y="467.623454"/>
     <use style="fill:#2792cb;stroke:#2792cb;" x="240.974825" xlink:href="#m2b4487fef3" y="468.722773"/>
     <use style="fill:#2792cb;stroke:#2792cb;" x="245.219785" xlink:href="#m2b4487fef3" y="470.188532"/>
     <use style="fill:#2792cb;stroke:#2792cb;" x="249.464745" xlink:href="#m2b4487fef3" y="469.822092"/>
     <use style="fill:#2792cb;stroke:#2792cb;" x="253.709705" xlink:href="#m2b4487fef3" y="465.424816"/>
     <use style="fill:#2792cb;stroke:#2792cb;" x="262.199625" xlink:href="#m2b4487fef3" y="467.989894"/>
     <use style="fill:#2792cb;stroke:#2792cb;" x="266.444585" xlink:href="#m2b4487fef3" y="469.455652"/>
     <use style="fill:#2792cb;stroke:#2792cb;" x="270.689545" xlink:href="#m2b4487fef3" y="470.188532"/>
     <use style="fill:#2792cb;stroke:#2792cb;" x="274.934505" xlink:href="#m2b4487fef3" y="471.65429"/>
     <use style="fill:#2792cb;stroke:#2792cb;" x="283.424425" xlink:href="#m2b4487fef3" y="469.822092"/>
     <use style="fill:#2792cb;stroke:#2792cb;" x="291.914345" xlink:href="#m2b4487fef3" y="472.753609"/>
     <use style="fill:#2792cb;stroke:#2792cb;" x="296.159305" xlink:href="#m2b4487fef3" y="469.822092"/>
     <use style="fill:#2792cb;stroke:#2792cb;" x="300.404265" xlink:href="#m2b4487fef3" y="468.356333"/>
     <use style="fill:#2792cb;stroke:#2792cb;" x="304.649225" xlink:href="#m2b4487fef3" y="470.188532"/>
     <use style="fill:#2792cb;stroke:#2792cb;" x="308.894186" xlink:href="#m2b4487fef3" y="470.554971"/>
     <use style="fill:#2792cb;stroke:#2792cb;" x="313.139146" xlink:href="#m2b4487fef3" y="472.387169"/>
     <use style="fill:#2792cb;stroke:#2792cb;" x="321.629066" xlink:href="#m2b4487fef3" y="473.852928"/>
     <use style="fill:#2792cb;stroke:#2792cb;" x="325.874026" xlink:href="#m2b4487fef3" y="474.219368"/>
     <use style="fill:#2792cb;stroke:#2792cb;" x="330.118986" xlink:href="#m2b4487fef3" y="474.952247"/>
     <use style="fill:#2792cb;stroke:#2792cb;" x="334.363946" xlink:href="#m2b4487fef3" y="474.952247"/>
     <use style="fill:#2792cb;stroke:#2792cb;" x="338.608906" xlink:href="#m2b4487fef3" y="477.517324"/>
     <use style="fill:#2792cb;stroke:#2792cb;" x="342.853866" xlink:href="#m2b4487fef3" y="479.349523"/>
     <use style="fill:#2792cb;stroke:#2792cb;" x="351.343786" xlink:href="#m2b4487fef3" y="481.54816"/>
     <use style="fill:#2792cb;stroke:#2792cb;" x="355.588746" xlink:href="#m2b4487fef3" y="481.9146"/>
     <use style="fill:#2792cb;stroke:#2792cb;" x="359.833706" xlink:href="#m2b4487fef3" y="483.013919"/>
     <use style="fill:#2792cb;stroke:#2792cb;" x="368.323626" xlink:href="#m2b4487fef3" y="485.212557"/>
     <use style="fill:#2792cb;stroke:#2792cb;" x="372.568586" xlink:href="#m2b4487fef3" y="484.846117"/>
     <use style="fill:#2792cb;stroke:#2792cb;" x="381.058507" xlink:href="#m2b4487fef3" y="484.113238"/>
     <use style="fill:#2792cb;stroke:#2792cb;" x="385.303467" xlink:href="#m2b4487fef3" y="484.113238"/>
     <use style="fill:#2792cb;stroke:#2792cb;" x="393.793387" xlink:href="#m2b4487fef3" y="484.479677"/>
     <use style="fill:#2792cb;stroke:#2792cb;" x="398.038347" xlink:href="#m2b4487fef3" y="485.578996"/>
     <use style="fill:#2792cb;stroke:#2792cb;" x="415.018187" xlink:href="#m2b4487fef3" y="484.479677"/>
     <use style="fill:#2792cb;stroke:#2792cb;" x="419.263147" xlink:href="#m2b4487fef3" y="485.212557"/>
     <use style="fill:#2792cb;stroke:#2792cb;" x="423.508107" xlink:href="#m2b4487fef3" y="484.846117"/>
     <use style="fill:#2792cb;stroke:#2792cb;" x="427.753067" xlink:href="#m2b4487fef3" y="485.945436"/>
     <use style="fill:#2792cb;stroke:#2792cb;" x="431.998027" xlink:href="#m2b4487fef3" y="485.945436"/>
     <use style="fill:#2792cb;stroke:#2792cb;" x="440.487947" xlink:href="#m2b4487fef3" y="485.945436"/>
     <use style="fill:#2792cb;stroke:#2792cb;" x="444.732907" xlink:href="#m2b4487fef3" y="486.678315"/>
     <use style="fill:#2792cb;stroke:#2792cb;" x="448.977868" xlink:href="#m2b4487fef3" y="485.945436"/>
     <use style="fill:#2792cb;stroke:#2792cb;" x="457.467788" xlink:href="#m2b4487fef3" y="486.678315"/>
     <use style="fill:#2792cb;stroke:#2792cb;" x="461.712748" xlink:href="#m2b4487fef3" y="486.311876"/>
     <use style="fill:#2792cb;stroke:#2792cb;" x="470.202668" xlink:href="#m2b4487fef3" y="486.311876"/>
     <use style="fill:#2792cb;stroke:#2792cb;" x="478.692588" xlink:href="#m2b4487fef3" y="486.311876"/>
     <use style="fill:#2792cb;stroke:#2792cb;" x="487.182508" xlink:href="#m2b4487fef3" y="488.510513"/>
     <use style="fill:#2792cb;stroke:#2792cb;" x="491.427468" xlink:href="#m2b4487fef3" y="488.144074"/>
     <use style="fill:#2792cb;stroke:#2792cb;" x="499.917388" xlink:href="#m2b4487fef3" y="488.510513"/>
     <use style="fill:#2792cb;stroke:#2792cb;" x="504.162348" xlink:href="#m2b4487fef3" y="488.510513"/>
     <use style="fill:#2792cb;stroke:#2792cb;" x="508.407308" xlink:href="#m2b4487fef3" y="489.243393"/>
     <use style="fill:#2792cb;stroke:#2792cb;" x="512.652268" xlink:href="#m2b4487fef3" y="489.243393"/>
     <use style="fill:#2792cb;stroke:#2792cb;" x="521.142189" xlink:href="#m2b4487fef3" y="489.243393"/>
     <use style="fill:#2792cb;stroke:#2792cb;" x="529.632109" xlink:href="#m2b4487fef3" y="489.243393"/>
     <use style="fill:#2792cb;stroke:#2792cb;" x="533.877069" xlink:href="#m2b4487fef3" y="489.243393"/>
     <use style="fill:#2792cb;stroke:#2792cb;" x="538.122029" xlink:href="#m2b4487fef3" y="488.876953"/>
     <use style="fill:#2792cb;stroke:#2792cb;" x="542.366989" xlink:href="#m2b4487fef3" y="488.510513"/>
     <use style="fill:#2792cb;stroke:#2792cb;" x="546.611949" xlink:href="#m2b4487fef3" y="488.144074"/>
     <use style="fill:#2792cb;stroke:#2792cb;" x="550.856909" xlink:href="#m2b4487fef3" y="486.678315"/>
     <use style="fill:#2792cb;stroke:#2792cb;" x="563.591789" xlink:href="#m2b4487fef3" y="486.678315"/>
     <use style="fill:#2792cb;stroke:#2792cb;" x="567.836749" xlink:href="#m2b4487fef3" y="485.945436"/>
     <use style="fill:#2792cb;stroke:#2792cb;" x="572.081709" xlink:href="#m2b4487fef3" y="485.945436"/>
     <use style="fill:#2792cb;stroke:#2792cb;" x="576.326669" xlink:href="#m2b4487fef3" y="485.945436"/>
     <use style="fill:#2792cb;stroke:#2792cb;" x="589.06155" xlink:href="#m2b4487fef3" y="485.945436"/>
     <use style="fill:#2792cb;stroke:#2792cb;" x="593.30651" xlink:href="#m2b4487fef3" y="486.678315"/>
     <use style="fill:#2792cb;stroke:#2792cb;" x="597.55147" xlink:href="#m2b4487fef3" y="487.044755"/>
     <use style="fill:#2792cb;stroke:#2792cb;" x="601.79643" xlink:href="#m2b4487fef3" y="487.777634"/>
     <use style="fill:#2792cb;stroke:#2792cb;" x="606.04139" xlink:href="#m2b4487fef3" y="486.311876"/>
     <use style="fill:#2792cb;stroke:#2792cb;" x="618.77627" xlink:href="#m2b4487fef3" y="486.311876"/>
     <use style="fill:#2792cb;stroke:#2792cb;" x="631.51115" xlink:href="#m2b4487fef3" y="484.846117"/>
     <use style="fill:#2792cb;stroke:#2792cb;" x="635.75611" xlink:href="#m2b4487fef3" y="484.846117"/>
     <use style="fill:#2792cb;stroke:#2792cb;" x="648.49099" xlink:href="#m2b4487fef3" y="480.448841"/>
     <use style="fill:#2792cb;stroke:#2792cb;" x="652.73595" xlink:href="#m2b4487fef3" y="480.448841"/>
     <use style="fill:#2792cb;stroke:#2792cb;" x="656.980911" xlink:href="#m2b4487fef3" y="480.448841"/>
     <use style="fill:#2792cb;stroke:#2792cb;" x="661.225871" xlink:href="#m2b4487fef3" y="479.349523"/>
     <use style="fill:#2792cb;stroke:#2792cb;" x="665.470831" xlink:href="#m2b4487fef3" y="474.219368"/>
     <use style="fill:#2792cb;stroke:#2792cb;" x="707.920431" xlink:href="#m2b4487fef3" y="478.250204"/>
     <use style="fill:#2792cb;stroke:#2792cb;" x="712.165391" xlink:href="#m2b4487fef3" y="481.181721"/>
     <use style="fill:#2792cb;stroke:#2792cb;" x="720.655311" xlink:href="#m2b4487fef3" y="481.9146"/>
     <use style="fill:#2792cb;stroke:#2792cb;" x="724.900271" xlink:href="#m2b4487fef3" y="481.9146"/>
     <use style="fill:#2792cb;stroke:#2792cb;" x="737.635152" xlink:href="#m2b4487fef3" y="481.9146"/>
     <use style="fill:#2792cb;stroke:#2792cb;" x="741.880112" xlink:href="#m2b4487fef3" y="483.746798"/>
     <use style="fill:#2792cb;stroke:#2792cb;" x="746.125072" xlink:href="#m2b4487fef3" y="484.113238"/>
     <use style="fill:#2792cb;stroke:#2792cb;" x="750.370032" xlink:href="#m2b4487fef3" y="484.846117"/>
     <use style="fill:#2792cb;stroke:#2792cb;" x="754.614992" xlink:href="#m2b4487fef3" y="484.113238"/>
     <use style="fill:#2792cb;stroke:#2792cb;" x="767.349872" xlink:href="#m2b4487fef3" y="483.380359"/>
     <use style="fill:#2792cb;stroke:#2792cb;" x="771.594832" xlink:href="#m2b4487fef3" y="484.113238"/>
     <use style="fill:#2792cb;stroke:#2792cb;" x="775.839792" xlink:href="#m2b4487fef3" y="484.113238"/>
     <use style="fill:#2792cb;stroke:#2792cb;" x="780.084752" xlink:href="#m2b4487fef3" y="484.479677"/>
     <use style="fill:#2792cb;stroke:#2792cb;" x="784.329712" xlink:href="#m2b4487fef3" y="484.846117"/>
     <use style="fill:#2792cb;stroke:#2792cb;" x="797.064593" xlink:href="#m2b4487fef3" y="484.846117"/>
     <use style="fill:#2792cb;stroke:#2792cb;" x="801.309553" xlink:href="#m2b4487fef3" y="484.479677"/>
     <use style="fill:#2792cb;stroke:#2792cb;" x="805.554513" xlink:href="#m2b4487fef3" y="484.113238"/>
     <use style="fill:#2792cb;stroke:#2792cb;" x="809.799473" xlink:href="#m2b4487fef3" y="485.212557"/>
     <use style="fill:#2792cb;stroke:#2792cb;" x="814.044433" xlink:href="#m2b4487fef3" y="484.479677"/>
     <use style="fill:#2792cb;stroke:#2792cb;" x="826.779313" xlink:href="#m2b4487fef3" y="484.846117"/>
     <use style="fill:#2792cb;stroke:#2792cb;" x="831.024273" xlink:href="#m2b4487fef3" y="485.578996"/>
     <use style="fill:#2792cb;stroke:#2792cb;" x="835.269233" xlink:href="#m2b4487fef3" y="483.746798"/>
     <use style="fill:#2792cb;stroke:#2792cb;" x="839.514193" xlink:href="#m2b4487fef3" y="483.746798"/>
     <use style="fill:#2792cb;stroke:#2792cb;" x="843.759153" xlink:href="#m2b4487fef3" y="484.846117"/>
     <use style="fill:#2792cb;stroke:#2792cb;" x="856.494033" xlink:href="#m2b4487fef3" y="484.479677"/>
     <use style="fill:#2792cb;stroke:#2792cb;" x="860.738993" xlink:href="#m2b4487fef3" y="484.113238"/>
     <use style="fill:#2792cb;stroke:#2792cb;" x="864.983953" xlink:href="#m2b4487fef3" y="484.113238"/>
     <use style="fill:#2792cb;stroke:#2792cb;" x="869.228914" xlink:href="#m2b4487fef3" y="485.212557"/>
     <use style="fill:#2792cb;stroke:#2792cb;" x="873.473874" xlink:href="#m2b4487fef3" y="485.212557"/>
     <use style="fill:#2792cb;stroke:#2792cb;" x="886.208754" xlink:href="#m2b4487fef3" y="483.013919"/>
     <use style="fill:#2792cb;stroke:#2792cb;" x="890.453714" xlink:href="#m2b4487fef3" y="483.013919"/>
     <use style="fill:#2792cb;stroke:#2792cb;" x="894.698674" xlink:href="#m2b4487fef3" y="483.380359"/>
     <use style="fill:#2792cb;stroke:#2792cb;" x="898.943634" xlink:href="#m2b4487fef3" y="483.746798"/>
     <use style="fill:#2792cb;stroke:#2792cb;" x="903.188594" xlink:href="#m2b4487fef3" y="481.9146"/>
     <use style="fill:#2792cb;stroke:#2792cb;" x="915.923474" xlink:href="#m2b4487fef3" y="478.616643"/>
     <use style="fill:#2792cb;stroke:#2792cb;" x="920.168434" xlink:href="#m2b4487fef3" y="479.349523"/>
     <use style="fill:#2792cb;stroke:#2792cb;" x="924.413394" xlink:href="#m2b4487fef3" y="476.784445"/>
     <use style="fill:#2792cb;stroke:#2792cb;" x="928.658354" xlink:href="#m2b4487fef3" y="475.318686"/>
     <use style="fill:#2792cb;stroke:#2792cb;" x="932.903314" xlink:href="#m2b4487fef3" y="475.685126"/>
     <use style="fill:#2792cb;stroke:#2792cb;" x="945.638195" xlink:href="#m2b4487fef3" y="474.219368"/>
     <use style="fill:#2792cb;stroke:#2792cb;" x="949.883155" xlink:href="#m2b4487fef3" y="474.219368"/>
     <use style="fill:#2792cb;stroke:#2792cb;" x="954.128115" xlink:href="#m2b4487fef3" y="472.753609"/>
     <use style="fill:#2792cb;stroke:#2792cb;" x="958.373075" xlink:href="#m2b4487fef3" y="476.051566"/>
     <use style="fill:#2792cb;stroke:#2792cb;" x="975.352915" xlink:href="#m2b4487fef3" y="474.219368"/>
     <use style="fill:#2792cb;stroke:#2792cb;" x="979.597875" xlink:href="#m2b4487fef3" y="473.852928"/>
     <use style="fill:#2792cb;stroke:#2792cb;" x="1009.312596" xlink:href="#m2b4487fef3" y="460.661101"/>
     <use style="fill:#2792cb;stroke:#2792cb;" x="1013.557556" xlink:href="#m2b4487fef3" y="462.859739"/>
     <use style="fill:#2792cb;stroke:#2792cb;" x="1017.802516" xlink:href="#m2b4487fef3" y="462.493299"/>
     <use style="fill:#2792cb;stroke:#2792cb;" x="1022.047476" xlink:href="#m2b4487fef3" y="462.859739"/>
     <use style="fill:#2792cb;stroke:#2792cb;" x="1034.782356" xlink:href="#m2b4487fef3" y="432.445249"/>
     <use style="fill:#2792cb;stroke:#2792cb;" x="1039.027316" xlink:href="#m2b4487fef3" y="425.116456"/>
     <use style="fill:#2792cb;stroke:#2792cb;" x="1043.272276" xlink:href="#m2b4487fef3" y="419.619862"/>
     <use style="fill:#2792cb;stroke:#2792cb;" x="1047.517236" xlink:href="#m2b4487fef3" y="414.123267"/>
     <use style="fill:#2792cb;stroke:#2792cb;" x="1051.762196" xlink:href="#m2b4487fef3" y="399.832121"/>
     <use style="fill:#2792cb;stroke:#2792cb;" x="1064.497076" xlink:href="#m2b4487fef3" y="358.790882"/>
     <use style="fill:#2792cb;stroke:#2792cb;" x="1068.742036" xlink:href="#m2b4487fef3" y="351.462089"/>
     <use style="fill:#2792cb;stroke:#2792cb;" x="1072.986996" xlink:href="#m2b4487fef3" y="340.835339"/>
     <use style="fill:#2792cb;stroke:#2792cb;" x="1077.231957" xlink:href="#m2b4487fef3" y="321.414039"/>
     <use style="fill:#2792cb;stroke:#2792cb;" x="1081.476917" xlink:href="#m2b4487fef3" y="301.259859"/>
     <use style="fill:#2792cb;stroke:#2792cb;" x="1094.211797" xlink:href="#m2b4487fef3" y="278.540601"/>
     <use style="fill:#2792cb;stroke:#2792cb;" x="1102.701717" xlink:href="#m2b4487fef3" y="277.441282"/>
     <use style="fill:#2792cb;stroke:#2792cb;" x="1106.946677" xlink:href="#m2b4487fef3" y="275.975524"/>
     <use style="fill:#2792cb;stroke:#2792cb;" x="1111.191637" xlink:href="#m2b4487fef3" y="276.341963"/>
     <use style="fill:#2792cb;stroke:#2792cb;" x="1123.926517" xlink:href="#m2b4487fef3" y="253.989145"/>
     <use style="fill:#2792cb;stroke:#2792cb;" x="1128.171477" xlink:href="#m2b4487fef3" y="256.187783"/>
    </g>
   </g>
   <g id="patch_3">
    <path d="M 62.89875 501.738984 
L 1178.89875 501.738984 
" style="fill:none;stroke:#000000;stroke-linecap:square;stroke-linejoin:miter;stroke-width:0.8;"/>
   </g>
   <g id="legend_1">
    <g id="line2d_39">
     <path d="M 1091.653438 25.237422 
L 1111.653438 25.237422 
" style="fill:none;stroke:#dbcd00;stroke-linecap:square;stroke-width:2;"/>
    </g>
    <g id="line2d_40">
     <g>
      <use style="fill:#dbcd00;stroke:#dbcd00;" x="1101.653438" xlink:href="#mc2b016c20c" y="25.237422"/>
     </g>
    </g>
    <g id="text_24">
     <!-- Genesene -->
     <defs>
      <path d="M 59.515625 10.40625 
L 59.515625 29.984375 
L 43.40625 29.984375 
L 43.40625 38.09375 
L 69.28125 38.09375 
L 69.28125 6.78125 
Q 63.578125 2.734375 56.6875 0.65625 
Q 49.8125 -1.421875 42 -1.421875 
Q 24.90625 -1.421875 15.25 8.5625 
Q 5.609375 18.5625 5.609375 36.375 
Q 5.609375 54.25 15.25 64.234375 
Q 24.90625 74.21875 42 74.21875 
Q 49.125 74.21875 55.546875 72.453125 
Q 61.96875 70.703125 67.390625 67.28125 
L 67.390625 56.78125 
Q 61.921875 61.421875 55.765625 63.765625 
Q 49.609375 66.109375 42.828125 66.109375 
Q 29.4375 66.109375 22.71875 58.640625 
Q 16.015625 51.171875 16.015625 36.375 
Q 16.015625 21.625 22.71875 14.15625 
Q 29.4375 6.6875 42.828125 6.6875 
Q 48.046875 6.6875 52.140625 7.59375 
Q 56.25 8.5 59.515625 10.40625 
z
" id="DejaVuSans-71"/>
      <path d="M 44.28125 53.078125 
L 44.28125 44.578125 
Q 40.484375 46.53125 36.375 47.5 
Q 32.28125 48.484375 27.875 48.484375 
Q 21.1875 48.484375 17.84375 46.4375 
Q 14.5 44.390625 14.5 40.28125 
Q 14.5 37.15625 16.890625 35.375 
Q 19.28125 33.59375 26.515625 31.984375 
L 29.59375 31.296875 
Q 39.15625 29.25 43.1875 25.515625 
Q 47.21875 21.78125 47.21875 15.09375 
Q 47.21875 7.46875 41.1875 3.015625 
Q 35.15625 -1.421875 24.609375 -1.421875 
Q 20.21875 -1.421875 15.453125 -0.5625 
Q 10.6875 0.296875 5.421875 2 
L 5.421875 11.28125 
Q 10.40625 8.6875 15.234375 7.390625 
Q 20.0625 6.109375 24.8125 6.109375 
Q 31.15625 6.109375 34.5625 8.28125 
Q 37.984375 10.453125 37.984375 14.40625 
Q 37.984375 18.0625 35.515625 20.015625 
Q 33.0625 21.96875 24.703125 23.78125 
L 21.578125 24.515625 
Q 13.234375 26.265625 9.515625 29.90625 
Q 5.8125 33.546875 5.8125 39.890625 
Q 5.8125 47.609375 11.28125 51.796875 
Q 16.75 56 26.8125 56 
Q 31.78125 56 36.171875 55.265625 
Q 40.578125 54.546875 44.28125 53.078125 
z
" id="DejaVuSans-115"/>
     </defs>
     <g transform="translate(1119.653438 28.737422)scale(0.1 -0.1)">
      <use xlink:href="#DejaVuSans-71"/>
      <use x="77.490234" xlink:href="#DejaVuSans-101"/>
      <use x="139.013672" xlink:href="#DejaVuSans-110"/>
      <use x="202.392578" xlink:href="#DejaVuSans-101"/>
      <use x="263.916016" xlink:href="#DejaVuSans-115"/>
      <use x="316.015625" xlink:href="#DejaVuSans-101"/>
      <use x="377.539062" xlink:href="#DejaVuSans-110"/>
      <use x="440.917969" xlink:href="#DejaVuSans-101"/>
     </g>
    </g>
    <g id="line2d_41">
     <path d="M 1091.653438 39.915547 
L 1111.653438 39.915547 
" style="fill:none;stroke:#2792cb;stroke-linecap:square;stroke-width:2;"/>
    </g>
    <g id="line2d_42">
     <g>
      <use style="fill:#2792cb;stroke:#2792cb;" x="1101.653438" xlink:href="#m2b4487fef3" y="39.915547"/>
     </g>
    </g>
    <g id="text_25">
     <!-- Erkrankte -->
     <defs>
      <path d="M 9.8125 72.90625 
L 55.90625 72.90625 
L 55.90625 64.59375 
L 19.671875 64.59375 
L 19.671875 43.015625 
L 54.390625 43.015625 
L 54.390625 34.71875 
L 19.671875 34.71875 
L 19.671875 8.296875 
L 56.78125 8.296875 
L 56.78125 0 
L 9.8125 0 
z
" id="DejaVuSans-69"/>
      <path d="M 41.109375 46.296875 
Q 39.59375 47.171875 37.8125 47.578125 
Q 36.03125 48 33.890625 48 
Q 26.265625 48 22.1875 43.046875 
Q 18.109375 38.09375 18.109375 28.8125 
L 18.109375 0 
L 9.078125 0 
L 9.078125 54.6875 
L 18.109375 54.6875 
L 18.109375 46.1875 
Q 20.953125 51.171875 25.484375 53.578125 
Q 30.03125 56 36.53125 56 
Q 37.453125 56 38.578125 55.875 
Q 39.703125 55.765625 41.0625 55.515625 
z
" id="DejaVuSans-114"/>
      <path d="M 9.078125 75.984375 
L 18.109375 75.984375 
L 18.109375 31.109375 
L 44.921875 54.6875 
L 56.390625 54.6875 
L 27.390625 29.109375 
L 57.625 0 
L 45.90625 0 
L 18.109375 26.703125 
L 18.109375 0 
L 9.078125 0 
z
" id="DejaVuSans-107"/>
      <path d="M 18.3125 70.21875 
L 18.3125 54.6875 
L 36.8125 54.6875 
L 36.8125 47.703125 
L 18.3125 47.703125 
L 18.3125 18.015625 
Q 18.3125 11.328125 20.140625 9.421875 
Q 21.96875 7.515625 27.59375 7.515625 
L 36.8125 7.515625 
L 36.8125 0 
L 27.59375 0 
Q 17.1875 0 13.234375 3.875 
Q 9.28125 7.765625 9.28125 18.015625 
L 9.28125 47.703125 
L 2.6875 47.703125 
L 2.6875 54.6875 
L 9.28125 54.6875 
L 9.28125 70.21875 
z
" id="DejaVuSans-116"/>
     </defs>
     <g transform="translate(1119.653438 43.415547)scale(0.1 -0.1)">
      <use xlink:href="#DejaVuSans-69"/>
      <use x="63.183594" xlink:href="#DejaVuSans-114"/>
      <use x="104.296875" xlink:href="#DejaVuSans-107"/>
      <use x="162.207031" xlink:href="#DejaVuSans-114"/>
      <use x="203.320312" xlink:href="#DejaVuSans-97"/>
      <use x="264.599609" xlink:href="#DejaVuSans-110"/>
      <use x="327.978516" xlink:href="#DejaVuSans-107"/>
      <use x="385.888672" xlink:href="#DejaVuSans-116"/>
      <use x="425.097656" xlink:href="#DejaVuSans-101"/>
     </g>
    </g>
   </g>
  </g>
 </g>
 <defs>
  <clipPath id="p664289d3fe">
   <rect height="489.6" width="1116" x="62.89875" y="12.138984"/>
  </clipPath>
 </defs>
</svg>
