<?xml version="1.0" encoding="utf-8" standalone="no"?>
<!DOCTYPE svg PUBLIC "-//W3C//DTD SVG 1.1//EN"
  "http://www.w3.org/Graphics/SVG/1.1/DTD/svg11.dtd">
<!-- Created with matplotlib (https://matplotlib.org/) -->
<svg height="549.054781pt" version="1.1" viewBox="0 0 1177.8275 549.054781" width="1177.8275pt" xmlns="http://www.w3.org/2000/svg" xmlns:xlink="http://www.w3.org/1999/xlink">
 <defs>
  <style type="text/css">
*{stroke-linecap:butt;stroke-linejoin:round;}
  </style>
 </defs>
 <g id="figure_1">
  <g id="patch_1">
   <path d="M 0 549.054781 
L 1177.8275 549.054781 
L 1177.8275 0 
L 0 0 
z
" style="fill:#ffffff;"/>
  </g>
  <g id="axes_1">
   <g id="patch_2">
    <path d="M 54.6275 496.8 
L 1170.6275 496.8 
L 1170.6275 7.2 
L 54.6275 7.2 
z
" style="fill:#ffffff;"/>
   </g>
   <g id="matplotlib.axis_1">
    <g id="xtick_1">
     <g id="line2d_1">
      <defs>
       <path d="M 0 0 
L 0 3.5 
" id="m8f2dc607e9" style="stroke:#000000;stroke-width:0.8;"/>
      </defs>
      <g>
       <use style="stroke:#000000;stroke-width:0.8;" x="161.718409" xlink:href="#m8f2dc607e9" y="496.8"/>
      </g>
     </g>
     <g id="text_1">
      <!-- 2020-04 -->
      <defs>
       <path d="M 19.1875 8.296875 
L 53.609375 8.296875 
L 53.609375 0 
L 7.328125 0 
L 7.328125 8.296875 
Q 12.9375 14.109375 22.625 23.890625 
Q 32.328125 33.6875 34.8125 36.53125 
Q 39.546875 41.84375 41.421875 45.53125 
Q 43.3125 49.21875 43.3125 52.78125 
Q 43.3125 58.59375 39.234375 62.25 
Q 35.15625 65.921875 28.609375 65.921875 
Q 23.96875 65.921875 18.8125 64.3125 
Q 13.671875 62.703125 7.8125 59.421875 
L 7.8125 69.390625 
Q 13.765625 71.78125 18.9375 73 
Q 24.125 74.21875 28.421875 74.21875 
Q 39.75 74.21875 46.484375 68.546875 
Q 53.21875 62.890625 53.21875 53.421875 
Q 53.21875 48.921875 51.53125 44.890625 
Q 49.859375 40.875 45.40625 35.40625 
Q 44.1875 33.984375 37.640625 27.21875 
Q 31.109375 20.453125 19.1875 8.296875 
z
" id="DejaVuSans-50"/>
       <path d="M 31.78125 66.40625 
Q 24.171875 66.40625 20.328125 58.90625 
Q 16.5 51.421875 16.5 36.375 
Q 16.5 21.390625 20.328125 13.890625 
Q 24.171875 6.390625 31.78125 6.390625 
Q 39.453125 6.390625 43.28125 13.890625 
Q 47.125 21.390625 47.125 36.375 
Q 47.125 51.421875 43.28125 58.90625 
Q 39.453125 66.40625 31.78125 66.40625 
z
M 31.78125 74.21875 
Q 44.046875 74.21875 50.515625 64.515625 
Q 56.984375 54.828125 56.984375 36.375 
Q 56.984375 17.96875 50.515625 8.265625 
Q 44.046875 -1.421875 31.78125 -1.421875 
Q 19.53125 -1.421875 13.0625 8.265625 
Q 6.59375 17.96875 6.59375 36.375 
Q 6.59375 54.828125 13.0625 64.515625 
Q 19.53125 74.21875 31.78125 74.21875 
z
" id="DejaVuSans-48"/>
       <path d="M 4.890625 31.390625 
L 31.203125 31.390625 
L 31.203125 23.390625 
L 4.890625 23.390625 
z
" id="DejaVuSans-45"/>
       <path d="M 37.796875 64.3125 
L 12.890625 25.390625 
L 37.796875 25.390625 
z
M 35.203125 72.90625 
L 47.609375 72.90625 
L 47.609375 25.390625 
L 58.015625 25.390625 
L 58.015625 17.1875 
L 47.609375 17.1875 
L 47.609375 0 
L 37.796875 0 
L 37.796875 17.1875 
L 4.890625 17.1875 
L 4.890625 26.703125 
z
" id="DejaVuSans-52"/>
      </defs>
      <g transform="translate(113.326142 539.5134)rotate(-30)scale(0.13 -0.13)">
       <use xlink:href="#DejaVuSans-50"/>
       <use x="63.623047" xlink:href="#DejaVuSans-48"/>
       <use x="127.246094" xlink:href="#DejaVuSans-50"/>
       <use x="190.869141" xlink:href="#DejaVuSans-48"/>
       <use x="254.492188" xlink:href="#DejaVuSans-45"/>
       <use x="290.576172" xlink:href="#DejaVuSans-48"/>
       <use x="354.199219" xlink:href="#DejaVuSans-52"/>
      </g>
     </g>
    </g>
    <g id="xtick_2">
     <g id="line2d_2">
      <g>
       <use style="stroke:#000000;stroke-width:0.8;" x="349.597197" xlink:href="#m8f2dc607e9" y="496.8"/>
      </g>
     </g>
     <g id="text_2">
      <!-- 2020-05 -->
      <defs>
       <path d="M 10.796875 72.90625 
L 49.515625 72.90625 
L 49.515625 64.59375 
L 19.828125 64.59375 
L 19.828125 46.734375 
Q 21.96875 47.46875 24.109375 47.828125 
Q 26.265625 48.1875 28.421875 48.1875 
Q 40.625 48.1875 47.75 41.5 
Q 54.890625 34.8125 54.890625 23.390625 
Q 54.890625 11.625 47.5625 5.09375 
Q 40.234375 -1.421875 26.90625 -1.421875 
Q 22.3125 -1.421875 17.546875 -0.640625 
Q 12.796875 0.140625 7.71875 1.703125 
L 7.71875 11.625 
Q 12.109375 9.234375 16.796875 8.0625 
Q 21.484375 6.890625 26.703125 6.890625 
Q 35.15625 6.890625 40.078125 11.328125 
Q 45.015625 15.765625 45.015625 23.390625 
Q 45.015625 31 40.078125 35.4375 
Q 35.15625 39.890625 26.703125 39.890625 
Q 22.75 39.890625 18.8125 39.015625 
Q 14.890625 38.140625 10.796875 36.28125 
z
" id="DejaVuSans-53"/>
      </defs>
      <g transform="translate(301.20493 539.5134)rotate(-30)scale(0.13 -0.13)">
       <use xlink:href="#DejaVuSans-50"/>
       <use x="63.623047" xlink:href="#DejaVuSans-48"/>
       <use x="127.246094" xlink:href="#DejaVuSans-50"/>
       <use x="190.869141" xlink:href="#DejaVuSans-48"/>
       <use x="254.492188" xlink:href="#DejaVuSans-45"/>
       <use x="290.576172" xlink:href="#DejaVuSans-48"/>
       <use x="354.199219" xlink:href="#DejaVuSans-53"/>
      </g>
     </g>
    </g>
    <g id="xtick_3">
     <g id="line2d_3">
      <g>
       <use style="stroke:#000000;stroke-width:0.8;" x="543.738611" xlink:href="#m8f2dc607e9" y="496.8"/>
      </g>
     </g>
     <g id="text_3">
      <!-- 2020-06 -->
      <defs>
       <path d="M 33.015625 40.375 
Q 26.375 40.375 22.484375 35.828125 
Q 18.609375 31.296875 18.609375 23.390625 
Q 18.609375 15.53125 22.484375 10.953125 
Q 26.375 6.390625 33.015625 6.390625 
Q 39.65625 6.390625 43.53125 10.953125 
Q 47.40625 15.53125 47.40625 23.390625 
Q 47.40625 31.296875 43.53125 35.828125 
Q 39.65625 40.375 33.015625 40.375 
z
M 52.59375 71.296875 
L 52.59375 62.3125 
Q 48.875 64.0625 45.09375 64.984375 
Q 41.3125 65.921875 37.59375 65.921875 
Q 27.828125 65.921875 22.671875 59.328125 
Q 17.53125 52.734375 16.796875 39.40625 
Q 19.671875 43.65625 24.015625 45.921875 
Q 28.375 48.1875 33.59375 48.1875 
Q 44.578125 48.1875 50.953125 41.515625 
Q 57.328125 34.859375 57.328125 23.390625 
Q 57.328125 12.15625 50.6875 5.359375 
Q 44.046875 -1.421875 33.015625 -1.421875 
Q 20.359375 -1.421875 13.671875 8.265625 
Q 6.984375 17.96875 6.984375 36.375 
Q 6.984375 53.65625 15.1875 63.9375 
Q 23.390625 74.21875 37.203125 74.21875 
Q 40.921875 74.21875 44.703125 73.484375 
Q 48.484375 72.75 52.59375 71.296875 
z
" id="DejaVuSans-54"/>
      </defs>
      <g transform="translate(495.346344 539.5134)rotate(-30)scale(0.13 -0.13)">
       <use xlink:href="#DejaVuSans-50"/>
       <use x="63.623047" xlink:href="#DejaVuSans-48"/>
       <use x="127.246094" xlink:href="#DejaVuSans-50"/>
       <use x="190.869141" xlink:href="#DejaVuSans-48"/>
       <use x="254.492188" xlink:href="#DejaVuSans-45"/>
       <use x="290.576172" xlink:href="#DejaVuSans-48"/>
       <use x="354.199219" xlink:href="#DejaVuSans-54"/>
      </g>
     </g>
    </g>
    <g id="xtick_4">
     <g id="line2d_4">
      <g>
       <use style="stroke:#000000;stroke-width:0.8;" x="731.617399" xlink:href="#m8f2dc607e9" y="496.8"/>
      </g>
     </g>
     <g id="text_4">
      <!-- 2020-07 -->
      <defs>
       <path d="M 8.203125 72.90625 
L 55.078125 72.90625 
L 55.078125 68.703125 
L 28.609375 0 
L 18.3125 0 
L 43.21875 64.59375 
L 8.203125 64.59375 
z
" id="DejaVuSans-55"/>
      </defs>
      <g transform="translate(683.225132 539.5134)rotate(-30)scale(0.13 -0.13)">
       <use xlink:href="#DejaVuSans-50"/>
       <use x="63.623047" xlink:href="#DejaVuSans-48"/>
       <use x="127.246094" xlink:href="#DejaVuSans-50"/>
       <use x="190.869141" xlink:href="#DejaVuSans-48"/>
       <use x="254.492188" xlink:href="#DejaVuSans-45"/>
       <use x="290.576172" xlink:href="#DejaVuSans-48"/>
       <use x="354.199219" xlink:href="#DejaVuSans-55"/>
      </g>
     </g>
    </g>
    <g id="xtick_5">
     <g id="line2d_5">
      <g>
       <use style="stroke:#000000;stroke-width:0.8;" x="925.758813" xlink:href="#m8f2dc607e9" y="496.8"/>
      </g>
     </g>
     <g id="text_5">
      <!-- 2020-08 -->
      <defs>
       <path d="M 31.78125 34.625 
Q 24.75 34.625 20.71875 30.859375 
Q 16.703125 27.09375 16.703125 20.515625 
Q 16.703125 13.921875 20.71875 10.15625 
Q 24.75 6.390625 31.78125 6.390625 
Q 38.8125 6.390625 42.859375 10.171875 
Q 46.921875 13.96875 46.921875 20.515625 
Q 46.921875 27.09375 42.890625 30.859375 
Q 38.875 34.625 31.78125 34.625 
z
M 21.921875 38.8125 
Q 15.578125 40.375 12.03125 44.71875 
Q 8.5 49.078125 8.5 55.328125 
Q 8.5 64.0625 14.71875 69.140625 
Q 20.953125 74.21875 31.78125 74.21875 
Q 42.671875 74.21875 48.875 69.140625 
Q 55.078125 64.0625 55.078125 55.328125 
Q 55.078125 49.078125 51.53125 44.71875 
Q 48 40.375 41.703125 38.8125 
Q 48.828125 37.15625 52.796875 32.3125 
Q 56.78125 27.484375 56.78125 20.515625 
Q 56.78125 9.90625 50.3125 4.234375 
Q 43.84375 -1.421875 31.78125 -1.421875 
Q 19.734375 -1.421875 13.25 4.234375 
Q 6.78125 9.90625 6.78125 20.515625 
Q 6.78125 27.484375 10.78125 32.3125 
Q 14.796875 37.15625 21.921875 38.8125 
z
M 18.3125 54.390625 
Q 18.3125 48.734375 21.84375 45.5625 
Q 25.390625 42.390625 31.78125 42.390625 
Q 38.140625 42.390625 41.71875 45.5625 
Q 45.3125 48.734375 45.3125 54.390625 
Q 45.3125 60.0625 41.71875 63.234375 
Q 38.140625 66.40625 31.78125 66.40625 
Q 25.390625 66.40625 21.84375 63.234375 
Q 18.3125 60.0625 18.3125 54.390625 
z
" id="DejaVuSans-56"/>
      </defs>
      <g transform="translate(877.366546 539.5134)rotate(-30)scale(0.13 -0.13)">
       <use xlink:href="#DejaVuSans-50"/>
       <use x="63.623047" xlink:href="#DejaVuSans-48"/>
       <use x="127.246094" xlink:href="#DejaVuSans-50"/>
       <use x="190.869141" xlink:href="#DejaVuSans-48"/>
       <use x="254.492188" xlink:href="#DejaVuSans-45"/>
       <use x="290.576172" xlink:href="#DejaVuSans-48"/>
       <use x="354.199219" xlink:href="#DejaVuSans-56"/>
      </g>
     </g>
    </g>
    <g id="xtick_6">
     <g id="line2d_6">
      <g>
       <use style="stroke:#000000;stroke-width:0.8;" x="1119.900227" xlink:href="#m8f2dc607e9" y="496.8"/>
      </g>
     </g>
     <g id="text_6">
      <!-- 2020-09 -->
      <defs>
       <path d="M 10.984375 1.515625 
L 10.984375 10.5 
Q 14.703125 8.734375 18.5 7.8125 
Q 22.3125 6.890625 25.984375 6.890625 
Q 35.75 6.890625 40.890625 13.453125 
Q 46.046875 20.015625 46.78125 33.40625 
Q 43.953125 29.203125 39.59375 26.953125 
Q 35.25 24.703125 29.984375 24.703125 
Q 19.046875 24.703125 12.671875 31.3125 
Q 6.296875 37.9375 6.296875 49.421875 
Q 6.296875 60.640625 12.9375 67.421875 
Q 19.578125 74.21875 30.609375 74.21875 
Q 43.265625 74.21875 49.921875 64.515625 
Q 56.59375 54.828125 56.59375 36.375 
Q 56.59375 19.140625 48.40625 8.859375 
Q 40.234375 -1.421875 26.421875 -1.421875 
Q 22.703125 -1.421875 18.890625 -0.6875 
Q 15.09375 0.046875 10.984375 1.515625 
z
M 30.609375 32.421875 
Q 37.25 32.421875 41.125 36.953125 
Q 45.015625 41.5 45.015625 49.421875 
Q 45.015625 57.28125 41.125 61.84375 
Q 37.25 66.40625 30.609375 66.40625 
Q 23.96875 66.40625 20.09375 61.84375 
Q 16.21875 57.28125 16.21875 49.421875 
Q 16.21875 41.5 20.09375 36.953125 
Q 23.96875 32.421875 30.609375 32.421875 
z
" id="DejaVuSans-57"/>
      </defs>
      <g transform="translate(1071.50796 539.5134)rotate(-30)scale(0.13 -0.13)">
       <use xlink:href="#DejaVuSans-50"/>
       <use x="63.623047" xlink:href="#DejaVuSans-48"/>
       <use x="127.246094" xlink:href="#DejaVuSans-50"/>
       <use x="190.869141" xlink:href="#DejaVuSans-48"/>
       <use x="254.492188" xlink:href="#DejaVuSans-45"/>
       <use x="290.576172" xlink:href="#DejaVuSans-48"/>
       <use x="354.199219" xlink:href="#DejaVuSans-57"/>
      </g>
     </g>
    </g>
   </g>
   <g id="matplotlib.axis_2">
    <g id="ytick_1">
     <g id="line2d_7">
      <path clip-path="url(#p2480895262)" d="M 54.6275 473.034965 
L 1170.6275 473.034965 
" style="fill:none;stroke:#b0b0b0;stroke-linecap:square;stroke-width:0.8;"/>
     </g>
     <g id="line2d_8">
      <defs>
       <path d="M 0 0 
L -3.5 0 
" id="m1753a7e993" style="stroke:#000000;stroke-width:0.8;"/>
      </defs>
      <g>
       <use style="stroke:#000000;stroke-width:0.8;" x="54.6275" xlink:href="#m1753a7e993" y="473.034965"/>
      </g>
     </g>
     <g id="text_7">
      <!-- 0 -->
      <g transform="translate(39.35625 477.973949)scale(0.13 -0.13)">
       <use xlink:href="#DejaVuSans-48"/>
      </g>
     </g>
    </g>
    <g id="ytick_2">
     <g id="line2d_9">
      <path clip-path="url(#p2480895262)" d="M 54.6275 422.685315 
L 1170.6275 422.685315 
" style="fill:none;stroke:#b0b0b0;stroke-linecap:square;stroke-width:0.8;"/>
     </g>
     <g id="line2d_10">
      <g>
       <use style="stroke:#000000;stroke-width:0.8;" x="54.6275" xlink:href="#m1753a7e993" y="422.685315"/>
      </g>
     </g>
     <g id="text_8">
      <!-- 100 -->
      <defs>
       <path d="M 12.40625 8.296875 
L 28.515625 8.296875 
L 28.515625 63.921875 
L 10.984375 60.40625 
L 10.984375 69.390625 
L 28.421875 72.90625 
L 38.28125 72.90625 
L 38.28125 8.296875 
L 54.390625 8.296875 
L 54.390625 0 
L 12.40625 0 
z
" id="DejaVuSans-49"/>
      </defs>
      <g transform="translate(22.81375 427.624299)scale(0.13 -0.13)">
       <use xlink:href="#DejaVuSans-49"/>
       <use x="63.623047" xlink:href="#DejaVuSans-48"/>
       <use x="127.246094" xlink:href="#DejaVuSans-48"/>
      </g>
     </g>
    </g>
    <g id="ytick_3">
     <g id="line2d_11">
      <path clip-path="url(#p2480895262)" d="M 54.6275 372.335664 
L 1170.6275 372.335664 
" style="fill:none;stroke:#b0b0b0;stroke-linecap:square;stroke-width:0.8;"/>
     </g>
     <g id="line2d_12">
      <g>
       <use style="stroke:#000000;stroke-width:0.8;" x="54.6275" xlink:href="#m1753a7e993" y="372.335664"/>
      </g>
     </g>
     <g id="text_9">
      <!-- 200 -->
      <g transform="translate(22.81375 377.274649)scale(0.13 -0.13)">
       <use xlink:href="#DejaVuSans-50"/>
       <use x="63.623047" xlink:href="#DejaVuSans-48"/>
       <use x="127.246094" xlink:href="#DejaVuSans-48"/>
      </g>
     </g>
    </g>
    <g id="ytick_4">
     <g id="line2d_13">
      <path clip-path="url(#p2480895262)" d="M 54.6275 321.986014 
L 1170.6275 321.986014 
" style="fill:none;stroke:#b0b0b0;stroke-linecap:square;stroke-width:0.8;"/>
     </g>
     <g id="line2d_14">
      <g>
       <use style="stroke:#000000;stroke-width:0.8;" x="54.6275" xlink:href="#m1753a7e993" y="321.986014"/>
      </g>
     </g>
     <g id="text_10">
      <!-- 300 -->
      <defs>
       <path d="M 40.578125 39.3125 
Q 47.65625 37.796875 51.625 33 
Q 55.609375 28.21875 55.609375 21.1875 
Q 55.609375 10.40625 48.1875 4.484375 
Q 40.765625 -1.421875 27.09375 -1.421875 
Q 22.515625 -1.421875 17.65625 -0.515625 
Q 12.796875 0.390625 7.625 2.203125 
L 7.625 11.71875 
Q 11.71875 9.328125 16.59375 8.109375 
Q 21.484375 6.890625 26.8125 6.890625 
Q 36.078125 6.890625 40.9375 10.546875 
Q 45.796875 14.203125 45.796875 21.1875 
Q 45.796875 27.640625 41.28125 31.265625 
Q 36.765625 34.90625 28.71875 34.90625 
L 20.21875 34.90625 
L 20.21875 43.015625 
L 29.109375 43.015625 
Q 36.375 43.015625 40.234375 45.921875 
Q 44.09375 48.828125 44.09375 54.296875 
Q 44.09375 59.90625 40.109375 62.90625 
Q 36.140625 65.921875 28.71875 65.921875 
Q 24.65625 65.921875 20.015625 65.03125 
Q 15.375 64.15625 9.8125 62.3125 
L 9.8125 71.09375 
Q 15.4375 72.65625 20.34375 73.4375 
Q 25.25 74.21875 29.59375 74.21875 
Q 40.828125 74.21875 47.359375 69.109375 
Q 53.90625 64.015625 53.90625 55.328125 
Q 53.90625 49.265625 50.4375 45.09375 
Q 46.96875 40.921875 40.578125 39.3125 
z
" id="DejaVuSans-51"/>
      </defs>
      <g transform="translate(22.81375 326.924998)scale(0.13 -0.13)">
       <use xlink:href="#DejaVuSans-51"/>
       <use x="63.623047" xlink:href="#DejaVuSans-48"/>
       <use x="127.246094" xlink:href="#DejaVuSans-48"/>
      </g>
     </g>
    </g>
    <g id="ytick_5">
     <g id="line2d_15">
      <path clip-path="url(#p2480895262)" d="M 54.6275 271.636364 
L 1170.6275 271.636364 
" style="fill:none;stroke:#b0b0b0;stroke-linecap:square;stroke-width:0.8;"/>
     </g>
     <g id="line2d_16">
      <g>
       <use style="stroke:#000000;stroke-width:0.8;" x="54.6275" xlink:href="#m1753a7e993" y="271.636364"/>
      </g>
     </g>
     <g id="text_11">
      <!-- 400 -->
      <g transform="translate(22.81375 276.575348)scale(0.13 -0.13)">
       <use xlink:href="#DejaVuSans-52"/>
       <use x="63.623047" xlink:href="#DejaVuSans-48"/>
       <use x="127.246094" xlink:href="#DejaVuSans-48"/>
      </g>
     </g>
    </g>
    <g id="ytick_6">
     <g id="line2d_17">
      <path clip-path="url(#p2480895262)" d="M 54.6275 221.286713 
L 1170.6275 221.286713 
" style="fill:none;stroke:#b0b0b0;stroke-linecap:square;stroke-width:0.8;"/>
     </g>
     <g id="line2d_18">
      <g>
       <use style="stroke:#000000;stroke-width:0.8;" x="54.6275" xlink:href="#m1753a7e993" y="221.286713"/>
      </g>
     </g>
     <g id="text_12">
      <!-- 500 -->
      <g transform="translate(22.81375 226.225698)scale(0.13 -0.13)">
       <use xlink:href="#DejaVuSans-53"/>
       <use x="63.623047" xlink:href="#DejaVuSans-48"/>
       <use x="127.246094" xlink:href="#DejaVuSans-48"/>
      </g>
     </g>
    </g>
    <g id="ytick_7">
     <g id="line2d_19">
      <path clip-path="url(#p2480895262)" d="M 54.6275 170.937063 
L 1170.6275 170.937063 
" style="fill:none;stroke:#b0b0b0;stroke-linecap:square;stroke-width:0.8;"/>
     </g>
     <g id="line2d_20">
      <g>
       <use style="stroke:#000000;stroke-width:0.8;" x="54.6275" xlink:href="#m1753a7e993" y="170.937063"/>
      </g>
     </g>
     <g id="text_13">
      <!-- 600 -->
      <g transform="translate(22.81375 175.876047)scale(0.13 -0.13)">
       <use xlink:href="#DejaVuSans-54"/>
       <use x="63.623047" xlink:href="#DejaVuSans-48"/>
       <use x="127.246094" xlink:href="#DejaVuSans-48"/>
      </g>
     </g>
    </g>
    <g id="ytick_8">
     <g id="line2d_21">
      <path clip-path="url(#p2480895262)" d="M 54.6275 120.587413 
L 1170.6275 120.587413 
" style="fill:none;stroke:#b0b0b0;stroke-linecap:square;stroke-width:0.8;"/>
     </g>
     <g id="line2d_22">
      <g>
       <use style="stroke:#000000;stroke-width:0.8;" x="54.6275" xlink:href="#m1753a7e993" y="120.587413"/>
      </g>
     </g>
     <g id="text_14">
      <!-- 700 -->
      <g transform="translate(22.81375 125.526397)scale(0.13 -0.13)">
       <use xlink:href="#DejaVuSans-55"/>
       <use x="63.623047" xlink:href="#DejaVuSans-48"/>
       <use x="127.246094" xlink:href="#DejaVuSans-48"/>
      </g>
     </g>
    </g>
    <g id="ytick_9">
     <g id="line2d_23">
      <path clip-path="url(#p2480895262)" d="M 54.6275 70.237762 
L 1170.6275 70.237762 
" style="fill:none;stroke:#b0b0b0;stroke-linecap:square;stroke-width:0.8;"/>
     </g>
     <g id="line2d_24">
      <g>
       <use style="stroke:#000000;stroke-width:0.8;" x="54.6275" xlink:href="#m1753a7e993" y="70.237762"/>
      </g>
     </g>
     <g id="text_15">
      <!-- 800 -->
      <g transform="translate(22.81375 75.176747)scale(0.13 -0.13)">
       <use xlink:href="#DejaVuSans-56"/>
       <use x="63.623047" xlink:href="#DejaVuSans-48"/>
       <use x="127.246094" xlink:href="#DejaVuSans-48"/>
      </g>
     </g>
    </g>
    <g id="ytick_10">
     <g id="line2d_25">
      <path clip-path="url(#p2480895262)" d="M 54.6275 19.888112 
L 1170.6275 19.888112 
" style="fill:none;stroke:#b0b0b0;stroke-linecap:square;stroke-width:0.8;"/>
     </g>
     <g id="line2d_26">
      <g>
       <use style="stroke:#000000;stroke-width:0.8;" x="54.6275" xlink:href="#m1753a7e993" y="19.888112"/>
      </g>
     </g>
     <g id="text_16">
      <!-- 900 -->
      <g transform="translate(22.81375 24.827096)scale(0.13 -0.13)">
       <use xlink:href="#DejaVuSans-57"/>
       <use x="63.623047" xlink:href="#DejaVuSans-48"/>
       <use x="127.246094" xlink:href="#DejaVuSans-48"/>
      </g>
     </g>
    </g>
    <g id="text_17">
     <!-- Anzahl von Fällen -->
     <defs>
      <path d="M 34.1875 63.1875 
L 20.796875 26.90625 
L 47.609375 26.90625 
z
M 28.609375 72.90625 
L 39.796875 72.90625 
L 67.578125 0 
L 57.328125 0 
L 50.6875 18.703125 
L 17.828125 18.703125 
L 11.1875 0 
L 0.78125 0 
z
" id="DejaVuSans-65"/>
      <path d="M 54.890625 33.015625 
L 54.890625 0 
L 45.90625 0 
L 45.90625 32.71875 
Q 45.90625 40.484375 42.875 44.328125 
Q 39.84375 48.1875 33.796875 48.1875 
Q 26.515625 48.1875 22.3125 43.546875 
Q 18.109375 38.921875 18.109375 30.90625 
L 18.109375 0 
L 9.078125 0 
L 9.078125 54.6875 
L 18.109375 54.6875 
L 18.109375 46.1875 
Q 21.34375 51.125 25.703125 53.5625 
Q 30.078125 56 35.796875 56 
Q 45.21875 56 50.046875 50.171875 
Q 54.890625 44.34375 54.890625 33.015625 
z
" id="DejaVuSans-110"/>
      <path d="M 5.515625 54.6875 
L 48.1875 54.6875 
L 48.1875 46.484375 
L 14.40625 7.171875 
L 48.1875 7.171875 
L 48.1875 0 
L 4.296875 0 
L 4.296875 8.203125 
L 38.09375 47.515625 
L 5.515625 47.515625 
z
" id="DejaVuSans-122"/>
      <path d="M 34.28125 27.484375 
Q 23.390625 27.484375 19.1875 25 
Q 14.984375 22.515625 14.984375 16.5 
Q 14.984375 11.71875 18.140625 8.90625 
Q 21.296875 6.109375 26.703125 6.109375 
Q 34.1875 6.109375 38.703125 11.40625 
Q 43.21875 16.703125 43.21875 25.484375 
L 43.21875 27.484375 
z
M 52.203125 31.203125 
L 52.203125 0 
L 43.21875 0 
L 43.21875 8.296875 
Q 40.140625 3.328125 35.546875 0.953125 
Q 30.953125 -1.421875 24.3125 -1.421875 
Q 15.921875 -1.421875 10.953125 3.296875 
Q 6 8.015625 6 15.921875 
Q 6 25.140625 12.171875 29.828125 
Q 18.359375 34.515625 30.609375 34.515625 
L 43.21875 34.515625 
L 43.21875 35.40625 
Q 43.21875 41.609375 39.140625 45 
Q 35.0625 48.390625 27.6875 48.390625 
Q 23 48.390625 18.546875 47.265625 
Q 14.109375 46.140625 10.015625 43.890625 
L 10.015625 52.203125 
Q 14.9375 54.109375 19.578125 55.046875 
Q 24.21875 56 28.609375 56 
Q 40.484375 56 46.34375 49.84375 
Q 52.203125 43.703125 52.203125 31.203125 
z
" id="DejaVuSans-97"/>
      <path d="M 54.890625 33.015625 
L 54.890625 0 
L 45.90625 0 
L 45.90625 32.71875 
Q 45.90625 40.484375 42.875 44.328125 
Q 39.84375 48.1875 33.796875 48.1875 
Q 26.515625 48.1875 22.3125 43.546875 
Q 18.109375 38.921875 18.109375 30.90625 
L 18.109375 0 
L 9.078125 0 
L 9.078125 75.984375 
L 18.109375 75.984375 
L 18.109375 46.1875 
Q 21.34375 51.125 25.703125 53.5625 
Q 30.078125 56 35.796875 56 
Q 45.21875 56 50.046875 50.171875 
Q 54.890625 44.34375 54.890625 33.015625 
z
" id="DejaVuSans-104"/>
      <path d="M 9.421875 75.984375 
L 18.40625 75.984375 
L 18.40625 0 
L 9.421875 0 
z
" id="DejaVuSans-108"/>
      <path id="DejaVuSans-32"/>
      <path d="M 2.984375 54.6875 
L 12.5 54.6875 
L 29.59375 8.796875 
L 46.6875 54.6875 
L 56.203125 54.6875 
L 35.6875 0 
L 23.484375 0 
z
" id="DejaVuSans-118"/>
      <path d="M 30.609375 48.390625 
Q 23.390625 48.390625 19.1875 42.75 
Q 14.984375 37.109375 14.984375 27.296875 
Q 14.984375 17.484375 19.15625 11.84375 
Q 23.34375 6.203125 30.609375 6.203125 
Q 37.796875 6.203125 41.984375 11.859375 
Q 46.1875 17.53125 46.1875 27.296875 
Q 46.1875 37.015625 41.984375 42.703125 
Q 37.796875 48.390625 30.609375 48.390625 
z
M 30.609375 56 
Q 42.328125 56 49.015625 48.375 
Q 55.71875 40.765625 55.71875 27.296875 
Q 55.71875 13.875 49.015625 6.21875 
Q 42.328125 -1.421875 30.609375 -1.421875 
Q 18.84375 -1.421875 12.171875 6.21875 
Q 5.515625 13.875 5.515625 27.296875 
Q 5.515625 40.765625 12.171875 48.375 
Q 18.84375 56 30.609375 56 
z
" id="DejaVuSans-111"/>
      <path d="M 9.8125 72.90625 
L 51.703125 72.90625 
L 51.703125 64.59375 
L 19.671875 64.59375 
L 19.671875 43.109375 
L 48.578125 43.109375 
L 48.578125 34.8125 
L 19.671875 34.8125 
L 19.671875 0 
L 9.8125 0 
z
" id="DejaVuSans-70"/>
      <path d="M 34.28125 27.484375 
Q 23.390625 27.484375 19.1875 25 
Q 14.984375 22.515625 14.984375 16.5 
Q 14.984375 11.71875 18.140625 8.90625 
Q 21.296875 6.109375 26.703125 6.109375 
Q 34.1875 6.109375 38.703125 11.40625 
Q 43.21875 16.703125 43.21875 25.484375 
L 43.21875 27.484375 
z
M 52.203125 31.203125 
L 52.203125 0 
L 43.21875 0 
L 43.21875 8.296875 
Q 40.140625 3.328125 35.546875 0.953125 
Q 30.953125 -1.421875 24.3125 -1.421875 
Q 15.921875 -1.421875 10.953125 3.296875 
Q 6 8.015625 6 15.921875 
Q 6 25.140625 12.171875 29.828125 
Q 18.359375 34.515625 30.609375 34.515625 
L 43.21875 34.515625 
L 43.21875 35.40625 
Q 43.21875 41.609375 39.140625 45 
Q 35.0625 48.390625 27.6875 48.390625 
Q 23 48.390625 18.546875 47.265625 
Q 14.109375 46.140625 10.015625 43.890625 
L 10.015625 52.203125 
Q 14.9375 54.109375 19.578125 55.046875 
Q 24.21875 56 28.609375 56 
Q 40.484375 56 46.34375 49.84375 
Q 52.203125 43.703125 52.203125 31.203125 
z
M 33.59375 75.78125 
L 43.5 75.78125 
L 43.5 65.921875 
L 33.59375 65.921875 
z
M 14.5 75.78125 
L 24.40625 75.78125 
L 24.40625 65.921875 
L 14.5 65.921875 
z
" id="DejaVuSans-228"/>
      <path d="M 56.203125 29.59375 
L 56.203125 25.203125 
L 14.890625 25.203125 
Q 15.484375 15.921875 20.484375 11.0625 
Q 25.484375 6.203125 34.421875 6.203125 
Q 39.59375 6.203125 44.453125 7.46875 
Q 49.3125 8.734375 54.109375 11.28125 
L 54.109375 2.78125 
Q 49.265625 0.734375 44.1875 -0.34375 
Q 39.109375 -1.421875 33.890625 -1.421875 
Q 20.796875 -1.421875 13.15625 6.1875 
Q 5.515625 13.8125 5.515625 26.8125 
Q 5.515625 40.234375 12.765625 48.109375 
Q 20.015625 56 32.328125 56 
Q 43.359375 56 49.78125 48.890625 
Q 56.203125 41.796875 56.203125 29.59375 
z
M 47.21875 32.234375 
Q 47.125 39.59375 43.09375 43.984375 
Q 39.0625 48.390625 32.421875 48.390625 
Q 24.90625 48.390625 20.390625 44.140625 
Q 15.875 39.890625 15.1875 32.171875 
z
" id="DejaVuSans-101"/>
     </defs>
     <g transform="translate(16.318125 304.449375)rotate(-90)scale(0.12 -0.12)">
      <use xlink:href="#DejaVuSans-65"/>
      <use x="68.408203" xlink:href="#DejaVuSans-110"/>
      <use x="131.787109" xlink:href="#DejaVuSans-122"/>
      <use x="184.277344" xlink:href="#DejaVuSans-97"/>
      <use x="245.556641" xlink:href="#DejaVuSans-104"/>
      <use x="308.935547" xlink:href="#DejaVuSans-108"/>
      <use x="336.71875" xlink:href="#DejaVuSans-32"/>
      <use x="368.505859" xlink:href="#DejaVuSans-118"/>
      <use x="427.685547" xlink:href="#DejaVuSans-111"/>
      <use x="488.867188" xlink:href="#DejaVuSans-110"/>
      <use x="552.246094" xlink:href="#DejaVuSans-32"/>
      <use x="584.033203" xlink:href="#DejaVuSans-70"/>
      <use x="632.427734" xlink:href="#DejaVuSans-228"/>
      <use x="693.707031" xlink:href="#DejaVuSans-108"/>
      <use x="721.490234" xlink:href="#DejaVuSans-108"/>
      <use x="749.273438" xlink:href="#DejaVuSans-101"/>
      <use x="810.796875" xlink:href="#DejaVuSans-110"/>
     </g>
    </g>
   </g>
   <g id="line2d_27">
    <path clip-path="url(#p2480895262)" d="M 105.354773 462.461538 
L 111.617399 460.951049 
L 117.880025 460.951049 
L 124.142652 460.951049 
L 130.405278 454.909091 
L 136.667904 449.874126 
L 142.93053 449.874126 
L 149.193157 446.34965 
L 155.455783 434.769231 
L 161.718409 427.216783 
L 167.981035 418.153846 
L 174.243662 408.587413 
L 180.506288 402.545455 
L 186.768914 402.545455 
L 193.03154 399.524476 
L 199.294167 384.41958 
L 205.556793 373.342657 
L 211.819419 366.797203 
L 218.082045 364.27972 
L 230.607298 364.27972 
L 243.132551 348.671329 
L 249.395177 347.160839 
L 255.657803 312.41958 
L 261.920429 312.41958 
L 268.183056 304.363636 
L 280.708308 304.867133 
L 286.970934 300.839161 
L 293.233561 289.258741 
L 299.496187 287.244755 
L 305.758813 284.223776 
L 312.021439 272.13986 
L 324.546692 270.629371 
L 330.809318 270.629371 
L 337.071944 264.083916 
L 343.334571 260.055944 
L 355.859823 259.552448 
L 368.385076 259.552448 
L 374.647702 258.545455 
L 380.910328 254.013986 
L 387.172955 250.48951 
L 393.435581 246.461538 
L 399.698207 246.461538 
L 412.22346 243.944056 
L 418.486086 242.937063 
L 424.748712 239.412587 
L 431.011338 237.398601 
L 437.273965 234.881119 
L 443.536591 233.874126 
L 456.061843 221.79021 
L 462.32447 220.783217 
L 468.587096 214.741259 
L 481.112348 209.706294 
L 487.374975 209.706294 
L 499.900227 209.706294 
L 506.162854 123.104895 
L 518.688106 80.307692 
L 524.950732 77.79021 
L 550.001237 75.776224 
L 556.263864 65.202797 
L 562.52649 63.692308 
L 568.789116 56.643357 
L 575.051742 54.125874 
L 587.576995 54.125874 
L 593.839621 54.125874 
L 600.102247 53.622378 
L 612.6275 52.615385 
L 618.890126 52.615385 
L 631.415379 52.615385 
L 643.940631 49.090909 
L 656.465884 49.090909 
L 662.72851 49.090909 
L 675.253763 48.587413 
L 681.516389 48.587413 
L 687.779015 48.083916 
L 694.041641 48.083916 
L 706.566894 47.58042 
L 719.092146 47.58042 
L 725.354773 47.076923 
L 731.617399 46.573427 
L 737.880025 45.566434 
L 744.142652 45.062937 
L 750.405278 45.062937 
L 769.193157 45.062937 
L 775.455783 45.062937 
L 781.718409 45.062937 
L 787.981035 45.062937 
L 806.768914 45.062937 
L 813.03154 45.062937 
L 819.294167 44.055944 
L 825.556793 44.055944 
L 831.819419 43.048951 
L 850.607298 43.048951 
L 856.869924 43.048951 
L 863.132551 41.538462 
L 869.395177 41.034965 
L 875.657803 40.027972 
L 894.445682 40.027972 
L 900.708308 40.027972 
L 906.970934 40.027972 
L 913.233561 40.027972 
L 919.496187 39.524476 
L 938.284066 39.524476 
L 944.546692 39.524476 
L 950.809318 39.524476 
L 957.071944 39.524476 
L 963.334571 39.524476 
L 982.122449 38.013986 
L 988.385076 37.51049 
L 994.647702 37.006993 
L 1000.910328 37.006993 
L 1007.172955 37.006993 
L 1025.960833 34.993007 
L 1032.22346 34.993007 
L 1038.486086 33.986014 
L 1044.748712 33.986014 
L 1051.011338 33.482517 
L 1069.799217 32.475524 
L 1076.061843 30.965035 
L 1082.32447 30.965035 
L 1088.587096 30.965035 
L 1094.849722 29.958042 
L 1113.637601 29.958042 
L 1119.900227 29.454545 
" style="fill:none;stroke:#dbcd00;stroke-linecap:square;stroke-width:2;"/>
    <defs>
     <path d="M 0 1.5 
C 0.397805 1.5 0.77937 1.341951 1.06066 1.06066 
C 1.341951 0.77937 1.5 0.397805 1.5 0 
C 1.5 -0.397805 1.341951 -0.77937 1.06066 -1.06066 
C 0.77937 -1.341951 0.397805 -1.5 0 -1.5 
C -0.397805 -1.5 -0.77937 -1.341951 -1.06066 -1.06066 
C -1.341951 -0.77937 -1.5 -0.397805 -1.5 0 
C -1.5 0.397805 -1.341951 0.77937 -1.06066 1.06066 
C -0.77937 1.341951 -0.397805 1.5 0 1.5 
z
" id="m9ee9c51cbd" style="stroke:#dbcd00;"/>
    </defs>
    <g clip-path="url(#p2480895262)">
     <use style="fill:#dbcd00;stroke:#dbcd00;" x="105.354773" xlink:href="#m9ee9c51cbd" y="462.461538"/>
     <use style="fill:#dbcd00;stroke:#dbcd00;" x="111.617399" xlink:href="#m9ee9c51cbd" y="460.951049"/>
     <use style="fill:#dbcd00;stroke:#dbcd00;" x="117.880025" xlink:href="#m9ee9c51cbd" y="460.951049"/>
     <use style="fill:#dbcd00;stroke:#dbcd00;" x="124.142652" xlink:href="#m9ee9c51cbd" y="460.951049"/>
     <use style="fill:#dbcd00;stroke:#dbcd00;" x="130.405278" xlink:href="#m9ee9c51cbd" y="454.909091"/>
     <use style="fill:#dbcd00;stroke:#dbcd00;" x="136.667904" xlink:href="#m9ee9c51cbd" y="449.874126"/>
     <use style="fill:#dbcd00;stroke:#dbcd00;" x="142.93053" xlink:href="#m9ee9c51cbd" y="449.874126"/>
     <use style="fill:#dbcd00;stroke:#dbcd00;" x="149.193157" xlink:href="#m9ee9c51cbd" y="446.34965"/>
     <use style="fill:#dbcd00;stroke:#dbcd00;" x="155.455783" xlink:href="#m9ee9c51cbd" y="434.769231"/>
     <use style="fill:#dbcd00;stroke:#dbcd00;" x="161.718409" xlink:href="#m9ee9c51cbd" y="427.216783"/>
     <use style="fill:#dbcd00;stroke:#dbcd00;" x="167.981035" xlink:href="#m9ee9c51cbd" y="418.153846"/>
     <use style="fill:#dbcd00;stroke:#dbcd00;" x="174.243662" xlink:href="#m9ee9c51cbd" y="408.587413"/>
     <use style="fill:#dbcd00;stroke:#dbcd00;" x="180.506288" xlink:href="#m9ee9c51cbd" y="402.545455"/>
     <use style="fill:#dbcd00;stroke:#dbcd00;" x="186.768914" xlink:href="#m9ee9c51cbd" y="402.545455"/>
     <use style="fill:#dbcd00;stroke:#dbcd00;" x="193.03154" xlink:href="#m9ee9c51cbd" y="399.524476"/>
     <use style="fill:#dbcd00;stroke:#dbcd00;" x="199.294167" xlink:href="#m9ee9c51cbd" y="384.41958"/>
     <use style="fill:#dbcd00;stroke:#dbcd00;" x="205.556793" xlink:href="#m9ee9c51cbd" y="373.342657"/>
     <use style="fill:#dbcd00;stroke:#dbcd00;" x="211.819419" xlink:href="#m9ee9c51cbd" y="366.797203"/>
     <use style="fill:#dbcd00;stroke:#dbcd00;" x="218.082045" xlink:href="#m9ee9c51cbd" y="364.27972"/>
     <use style="fill:#dbcd00;stroke:#dbcd00;" x="230.607298" xlink:href="#m9ee9c51cbd" y="364.27972"/>
     <use style="fill:#dbcd00;stroke:#dbcd00;" x="243.132551" xlink:href="#m9ee9c51cbd" y="348.671329"/>
     <use style="fill:#dbcd00;stroke:#dbcd00;" x="249.395177" xlink:href="#m9ee9c51cbd" y="347.160839"/>
     <use style="fill:#dbcd00;stroke:#dbcd00;" x="255.657803" xlink:href="#m9ee9c51cbd" y="312.41958"/>
     <use style="fill:#dbcd00;stroke:#dbcd00;" x="261.920429" xlink:href="#m9ee9c51cbd" y="312.41958"/>
     <use style="fill:#dbcd00;stroke:#dbcd00;" x="268.183056" xlink:href="#m9ee9c51cbd" y="304.363636"/>
     <use style="fill:#dbcd00;stroke:#dbcd00;" x="280.708308" xlink:href="#m9ee9c51cbd" y="304.867133"/>
     <use style="fill:#dbcd00;stroke:#dbcd00;" x="286.970934" xlink:href="#m9ee9c51cbd" y="300.839161"/>
     <use style="fill:#dbcd00;stroke:#dbcd00;" x="293.233561" xlink:href="#m9ee9c51cbd" y="289.258741"/>
     <use style="fill:#dbcd00;stroke:#dbcd00;" x="299.496187" xlink:href="#m9ee9c51cbd" y="287.244755"/>
     <use style="fill:#dbcd00;stroke:#dbcd00;" x="305.758813" xlink:href="#m9ee9c51cbd" y="284.223776"/>
     <use style="fill:#dbcd00;stroke:#dbcd00;" x="312.021439" xlink:href="#m9ee9c51cbd" y="272.13986"/>
     <use style="fill:#dbcd00;stroke:#dbcd00;" x="324.546692" xlink:href="#m9ee9c51cbd" y="270.629371"/>
     <use style="fill:#dbcd00;stroke:#dbcd00;" x="330.809318" xlink:href="#m9ee9c51cbd" y="270.629371"/>
     <use style="fill:#dbcd00;stroke:#dbcd00;" x="337.071944" xlink:href="#m9ee9c51cbd" y="264.083916"/>
     <use style="fill:#dbcd00;stroke:#dbcd00;" x="343.334571" xlink:href="#m9ee9c51cbd" y="260.055944"/>
     <use style="fill:#dbcd00;stroke:#dbcd00;" x="355.859823" xlink:href="#m9ee9c51cbd" y="259.552448"/>
     <use style="fill:#dbcd00;stroke:#dbcd00;" x="368.385076" xlink:href="#m9ee9c51cbd" y="259.552448"/>
     <use style="fill:#dbcd00;stroke:#dbcd00;" x="374.647702" xlink:href="#m9ee9c51cbd" y="258.545455"/>
     <use style="fill:#dbcd00;stroke:#dbcd00;" x="380.910328" xlink:href="#m9ee9c51cbd" y="254.013986"/>
     <use style="fill:#dbcd00;stroke:#dbcd00;" x="387.172955" xlink:href="#m9ee9c51cbd" y="250.48951"/>
     <use style="fill:#dbcd00;stroke:#dbcd00;" x="393.435581" xlink:href="#m9ee9c51cbd" y="246.461538"/>
     <use style="fill:#dbcd00;stroke:#dbcd00;" x="399.698207" xlink:href="#m9ee9c51cbd" y="246.461538"/>
     <use style="fill:#dbcd00;stroke:#dbcd00;" x="412.22346" xlink:href="#m9ee9c51cbd" y="243.944056"/>
     <use style="fill:#dbcd00;stroke:#dbcd00;" x="418.486086" xlink:href="#m9ee9c51cbd" y="242.937063"/>
     <use style="fill:#dbcd00;stroke:#dbcd00;" x="424.748712" xlink:href="#m9ee9c51cbd" y="239.412587"/>
     <use style="fill:#dbcd00;stroke:#dbcd00;" x="431.011338" xlink:href="#m9ee9c51cbd" y="237.398601"/>
     <use style="fill:#dbcd00;stroke:#dbcd00;" x="437.273965" xlink:href="#m9ee9c51cbd" y="234.881119"/>
     <use style="fill:#dbcd00;stroke:#dbcd00;" x="443.536591" xlink:href="#m9ee9c51cbd" y="233.874126"/>
     <use style="fill:#dbcd00;stroke:#dbcd00;" x="456.061843" xlink:href="#m9ee9c51cbd" y="221.79021"/>
     <use style="fill:#dbcd00;stroke:#dbcd00;" x="462.32447" xlink:href="#m9ee9c51cbd" y="220.783217"/>
     <use style="fill:#dbcd00;stroke:#dbcd00;" x="468.587096" xlink:href="#m9ee9c51cbd" y="214.741259"/>
     <use style="fill:#dbcd00;stroke:#dbcd00;" x="481.112348" xlink:href="#m9ee9c51cbd" y="209.706294"/>
     <use style="fill:#dbcd00;stroke:#dbcd00;" x="487.374975" xlink:href="#m9ee9c51cbd" y="209.706294"/>
     <use style="fill:#dbcd00;stroke:#dbcd00;" x="499.900227" xlink:href="#m9ee9c51cbd" y="209.706294"/>
     <use style="fill:#dbcd00;stroke:#dbcd00;" x="506.162854" xlink:href="#m9ee9c51cbd" y="123.104895"/>
     <use style="fill:#dbcd00;stroke:#dbcd00;" x="518.688106" xlink:href="#m9ee9c51cbd" y="80.307692"/>
     <use style="fill:#dbcd00;stroke:#dbcd00;" x="524.950732" xlink:href="#m9ee9c51cbd" y="77.79021"/>
     <use style="fill:#dbcd00;stroke:#dbcd00;" x="550.001237" xlink:href="#m9ee9c51cbd" y="75.776224"/>
     <use style="fill:#dbcd00;stroke:#dbcd00;" x="556.263864" xlink:href="#m9ee9c51cbd" y="65.202797"/>
     <use style="fill:#dbcd00;stroke:#dbcd00;" x="562.52649" xlink:href="#m9ee9c51cbd" y="63.692308"/>
     <use style="fill:#dbcd00;stroke:#dbcd00;" x="568.789116" xlink:href="#m9ee9c51cbd" y="56.643357"/>
     <use style="fill:#dbcd00;stroke:#dbcd00;" x="575.051742" xlink:href="#m9ee9c51cbd" y="54.125874"/>
     <use style="fill:#dbcd00;stroke:#dbcd00;" x="587.576995" xlink:href="#m9ee9c51cbd" y="54.125874"/>
     <use style="fill:#dbcd00;stroke:#dbcd00;" x="593.839621" xlink:href="#m9ee9c51cbd" y="54.125874"/>
     <use style="fill:#dbcd00;stroke:#dbcd00;" x="600.102247" xlink:href="#m9ee9c51cbd" y="53.622378"/>
     <use style="fill:#dbcd00;stroke:#dbcd00;" x="612.6275" xlink:href="#m9ee9c51cbd" y="52.615385"/>
     <use style="fill:#dbcd00;stroke:#dbcd00;" x="618.890126" xlink:href="#m9ee9c51cbd" y="52.615385"/>
     <use style="fill:#dbcd00;stroke:#dbcd00;" x="631.415379" xlink:href="#m9ee9c51cbd" y="52.615385"/>
     <use style="fill:#dbcd00;stroke:#dbcd00;" x="643.940631" xlink:href="#m9ee9c51cbd" y="49.090909"/>
     <use style="fill:#dbcd00;stroke:#dbcd00;" x="656.465884" xlink:href="#m9ee9c51cbd" y="49.090909"/>
     <use style="fill:#dbcd00;stroke:#dbcd00;" x="662.72851" xlink:href="#m9ee9c51cbd" y="49.090909"/>
     <use style="fill:#dbcd00;stroke:#dbcd00;" x="675.253763" xlink:href="#m9ee9c51cbd" y="48.587413"/>
     <use style="fill:#dbcd00;stroke:#dbcd00;" x="681.516389" xlink:href="#m9ee9c51cbd" y="48.587413"/>
     <use style="fill:#dbcd00;stroke:#dbcd00;" x="687.779015" xlink:href="#m9ee9c51cbd" y="48.083916"/>
     <use style="fill:#dbcd00;stroke:#dbcd00;" x="694.041641" xlink:href="#m9ee9c51cbd" y="48.083916"/>
     <use style="fill:#dbcd00;stroke:#dbcd00;" x="706.566894" xlink:href="#m9ee9c51cbd" y="47.58042"/>
     <use style="fill:#dbcd00;stroke:#dbcd00;" x="719.092146" xlink:href="#m9ee9c51cbd" y="47.58042"/>
     <use style="fill:#dbcd00;stroke:#dbcd00;" x="725.354773" xlink:href="#m9ee9c51cbd" y="47.076923"/>
     <use style="fill:#dbcd00;stroke:#dbcd00;" x="731.617399" xlink:href="#m9ee9c51cbd" y="46.573427"/>
     <use style="fill:#dbcd00;stroke:#dbcd00;" x="737.880025" xlink:href="#m9ee9c51cbd" y="45.566434"/>
     <use style="fill:#dbcd00;stroke:#dbcd00;" x="744.142652" xlink:href="#m9ee9c51cbd" y="45.062937"/>
     <use style="fill:#dbcd00;stroke:#dbcd00;" x="750.405278" xlink:href="#m9ee9c51cbd" y="45.062937"/>
     <use style="fill:#dbcd00;stroke:#dbcd00;" x="769.193157" xlink:href="#m9ee9c51cbd" y="45.062937"/>
     <use style="fill:#dbcd00;stroke:#dbcd00;" x="775.455783" xlink:href="#m9ee9c51cbd" y="45.062937"/>
     <use style="fill:#dbcd00;stroke:#dbcd00;" x="781.718409" xlink:href="#m9ee9c51cbd" y="45.062937"/>
     <use style="fill:#dbcd00;stroke:#dbcd00;" x="787.981035" xlink:href="#m9ee9c51cbd" y="45.062937"/>
     <use style="fill:#dbcd00;stroke:#dbcd00;" x="806.768914" xlink:href="#m9ee9c51cbd" y="45.062937"/>
     <use style="fill:#dbcd00;stroke:#dbcd00;" x="813.03154" xlink:href="#m9ee9c51cbd" y="45.062937"/>
     <use style="fill:#dbcd00;stroke:#dbcd00;" x="819.294167" xlink:href="#m9ee9c51cbd" y="44.055944"/>
     <use style="fill:#dbcd00;stroke:#dbcd00;" x="825.556793" xlink:href="#m9ee9c51cbd" y="44.055944"/>
     <use style="fill:#dbcd00;stroke:#dbcd00;" x="831.819419" xlink:href="#m9ee9c51cbd" y="43.048951"/>
     <use style="fill:#dbcd00;stroke:#dbcd00;" x="850.607298" xlink:href="#m9ee9c51cbd" y="43.048951"/>
     <use style="fill:#dbcd00;stroke:#dbcd00;" x="856.869924" xlink:href="#m9ee9c51cbd" y="43.048951"/>
     <use style="fill:#dbcd00;stroke:#dbcd00;" x="863.132551" xlink:href="#m9ee9c51cbd" y="41.538462"/>
     <use style="fill:#dbcd00;stroke:#dbcd00;" x="869.395177" xlink:href="#m9ee9c51cbd" y="41.034965"/>
     <use style="fill:#dbcd00;stroke:#dbcd00;" x="875.657803" xlink:href="#m9ee9c51cbd" y="40.027972"/>
     <use style="fill:#dbcd00;stroke:#dbcd00;" x="894.445682" xlink:href="#m9ee9c51cbd" y="40.027972"/>
     <use style="fill:#dbcd00;stroke:#dbcd00;" x="900.708308" xlink:href="#m9ee9c51cbd" y="40.027972"/>
     <use style="fill:#dbcd00;stroke:#dbcd00;" x="906.970934" xlink:href="#m9ee9c51cbd" y="40.027972"/>
     <use style="fill:#dbcd00;stroke:#dbcd00;" x="913.233561" xlink:href="#m9ee9c51cbd" y="40.027972"/>
     <use style="fill:#dbcd00;stroke:#dbcd00;" x="919.496187" xlink:href="#m9ee9c51cbd" y="39.524476"/>
     <use style="fill:#dbcd00;stroke:#dbcd00;" x="938.284066" xlink:href="#m9ee9c51cbd" y="39.524476"/>
     <use style="fill:#dbcd00;stroke:#dbcd00;" x="944.546692" xlink:href="#m9ee9c51cbd" y="39.524476"/>
     <use style="fill:#dbcd00;stroke:#dbcd00;" x="950.809318" xlink:href="#m9ee9c51cbd" y="39.524476"/>
     <use style="fill:#dbcd00;stroke:#dbcd00;" x="957.071944" xlink:href="#m9ee9c51cbd" y="39.524476"/>
     <use style="fill:#dbcd00;stroke:#dbcd00;" x="963.334571" xlink:href="#m9ee9c51cbd" y="39.524476"/>
     <use style="fill:#dbcd00;stroke:#dbcd00;" x="982.122449" xlink:href="#m9ee9c51cbd" y="38.013986"/>
     <use style="fill:#dbcd00;stroke:#dbcd00;" x="988.385076" xlink:href="#m9ee9c51cbd" y="37.51049"/>
     <use style="fill:#dbcd00;stroke:#dbcd00;" x="994.647702" xlink:href="#m9ee9c51cbd" y="37.006993"/>
     <use style="fill:#dbcd00;stroke:#dbcd00;" x="1000.910328" xlink:href="#m9ee9c51cbd" y="37.006993"/>
     <use style="fill:#dbcd00;stroke:#dbcd00;" x="1007.172955" xlink:href="#m9ee9c51cbd" y="37.006993"/>
     <use style="fill:#dbcd00;stroke:#dbcd00;" x="1025.960833" xlink:href="#m9ee9c51cbd" y="34.993007"/>
     <use style="fill:#dbcd00;stroke:#dbcd00;" x="1032.22346" xlink:href="#m9ee9c51cbd" y="34.993007"/>
     <use style="fill:#dbcd00;stroke:#dbcd00;" x="1038.486086" xlink:href="#m9ee9c51cbd" y="33.986014"/>
     <use style="fill:#dbcd00;stroke:#dbcd00;" x="1044.748712" xlink:href="#m9ee9c51cbd" y="33.986014"/>
     <use style="fill:#dbcd00;stroke:#dbcd00;" x="1051.011338" xlink:href="#m9ee9c51cbd" y="33.482517"/>
     <use style="fill:#dbcd00;stroke:#dbcd00;" x="1069.799217" xlink:href="#m9ee9c51cbd" y="32.475524"/>
     <use style="fill:#dbcd00;stroke:#dbcd00;" x="1076.061843" xlink:href="#m9ee9c51cbd" y="30.965035"/>
     <use style="fill:#dbcd00;stroke:#dbcd00;" x="1082.32447" xlink:href="#m9ee9c51cbd" y="30.965035"/>
     <use style="fill:#dbcd00;stroke:#dbcd00;" x="1088.587096" xlink:href="#m9ee9c51cbd" y="30.965035"/>
     <use style="fill:#dbcd00;stroke:#dbcd00;" x="1094.849722" xlink:href="#m9ee9c51cbd" y="29.958042"/>
     <use style="fill:#dbcd00;stroke:#dbcd00;" x="1113.637601" xlink:href="#m9ee9c51cbd" y="29.958042"/>
     <use style="fill:#dbcd00;stroke:#dbcd00;" x="1119.900227" xlink:href="#m9ee9c51cbd" y="29.454545"/>
    </g>
   </g>
   <g id="line2d_28">
    <path clip-path="url(#p2480895262)" d="M 105.354773 400.027972 
L 111.617399 393.482517 
L 117.880025 380.895105 
L 124.142652 368.307692 
L 130.405278 358.741259 
L 136.667904 349.174825 
L 142.93053 344.13986 
L 149.193157 345.146853 
L 155.455783 344.643357 
L 161.718409 341.118881 
L 167.981035 343.132867 
L 174.243662 351.188811 
L 180.506288 347.664336 
L 186.768914 345.146853 
L 193.03154 343.636364 
L 199.294167 356.223776 
L 205.556793 360.251748 
L 211.819419 363.776224 
L 218.082045 360.251748 
L 230.607298 358.741259 
L 243.132551 372.839161 
L 249.395177 372.839161 
L 255.657803 406.573427 
L 261.920429 402.041958 
L 268.183056 408.587413 
L 280.708308 410.601399 
L 286.970934 413.622378 
L 293.233561 425.706294 
L 299.496187 426.713287 
L 305.758813 428.223776 
L 312.021439 437.79021 
L 324.546692 439.300699 
L 330.809318 435.272727 
L 337.071944 440.307692 
L 343.334571 443.328671 
L 355.859823 437.286713 
L 368.385076 425.706294 
L 374.647702 423.692308 
L 380.910328 410.601399 
L 387.172955 411.608392 
L 393.435581 393.482517 
L 399.698207 366.293706 
L 412.22346 335.076923 
L 418.486086 322.48951 
L 424.748712 313.93007 
L 431.011338 308.895105 
L 437.273965 314.433566 
L 443.536591 312.923077 
L 456.061843 319.972028 
L 462.32447 321.986014 
L 468.587096 321.986014 
L 481.112348 322.48951 
L 487.374975 317.958042 
L 499.900227 316.447552 
L 506.162854 403.048951 
L 518.688106 444.839161 
L 524.950732 447.356643 
L 550.001237 448.867133 
L 556.263864 459.440559 
L 562.52649 460.951049 
L 568.789116 468 
L 575.051742 470.517483 
L 587.576995 470.517483 
L 593.839621 469.51049 
L 600.102247 470.013986 
L 612.6275 469.51049 
L 618.890126 469.006993 
L 631.415379 469.006993 
L 643.940631 471.524476 
L 656.465884 471.020979 
L 662.72851 470.517483 
L 675.253763 471.020979 
L 681.516389 471.020979 
L 687.779015 471.524476 
L 694.041641 471.524476 
L 706.566894 472.027972 
L 719.092146 472.027972 
L 725.354773 472.531469 
L 731.617399 472.531469 
L 737.880025 474.041958 
L 744.142652 473.538462 
L 750.405278 472.027972 
L 769.193157 471.020979 
L 775.455783 471.020979 
L 781.718409 471.020979 
L 787.981035 470.013986 
L 806.768914 470.013986 
L 813.03154 470.013986 
L 819.294167 471.020979 
L 825.556793 471.020979 
L 831.819419 472.027972 
L 850.607298 471.524476 
L 856.869924 471.524476 
L 863.132551 473.034965 
L 869.395177 473.538462 
L 875.657803 474.545455 
L 894.445682 474.041958 
L 900.708308 473.538462 
L 906.970934 473.034965 
L 913.233561 471.524476 
L 919.496187 471.020979 
L 938.284066 471.020979 
L 944.546692 471.020979 
L 950.809318 470.517483 
L 957.071944 470.517483 
L 963.334571 470.517483 
L 982.122449 471.524476 
L 988.385076 470.013986 
L 994.647702 470.013986 
L 1000.910328 470.013986 
L 1007.172955 468.503497 
L 1025.960833 470.013986 
L 1032.22346 469.51049 
L 1038.486086 470.517483 
L 1044.748712 470.013986 
L 1051.011338 470.517483 
L 1069.799217 470.517483 
L 1076.061843 470.517483 
L 1082.32447 470.013986 
L 1088.587096 470.013986 
L 1094.849722 470.517483 
L 1113.637601 469.51049 
L 1119.900227 470.013986 
" style="fill:none;stroke:#2792cb;stroke-linecap:square;stroke-width:2;"/>
    <defs>
     <path d="M 0 1.5 
C 0.397805 1.5 0.77937 1.341951 1.06066 1.06066 
C 1.341951 0.77937 1.5 0.397805 1.5 0 
C 1.5 -0.397805 1.341951 -0.77937 1.06066 -1.06066 
C 0.77937 -1.341951 0.397805 -1.5 0 -1.5 
C -0.397805 -1.5 -0.77937 -1.341951 -1.06066 -1.06066 
C -1.341951 -0.77937 -1.5 -0.397805 -1.5 0 
C -1.5 0.397805 -1.341951 0.77937 -1.06066 1.06066 
C -0.77937 1.341951 -0.397805 1.5 0 1.5 
z
" id="m73ebd2c344" style="stroke:#2792cb;"/>
    </defs>
    <g clip-path="url(#p2480895262)">
     <use style="fill:#2792cb;stroke:#2792cb;" x="105.354773" xlink:href="#m73ebd2c344" y="400.027972"/>
     <use style="fill:#2792cb;stroke:#2792cb;" x="111.617399" xlink:href="#m73ebd2c344" y="393.482517"/>
     <use style="fill:#2792cb;stroke:#2792cb;" x="117.880025" xlink:href="#m73ebd2c344" y="380.895105"/>
     <use style="fill:#2792cb;stroke:#2792cb;" x="124.142652" xlink:href="#m73ebd2c344" y="368.307692"/>
     <use style="fill:#2792cb;stroke:#2792cb;" x="130.405278" xlink:href="#m73ebd2c344" y="358.741259"/>
     <use style="fill:#2792cb;stroke:#2792cb;" x="136.667904" xlink:href="#m73ebd2c344" y="349.174825"/>
     <use style="fill:#2792cb;stroke:#2792cb;" x="142.93053" xlink:href="#m73ebd2c344" y="344.13986"/>
     <use style="fill:#2792cb;stroke:#2792cb;" x="149.193157" xlink:href="#m73ebd2c344" y="345.146853"/>
     <use style="fill:#2792cb;stroke:#2792cb;" x="155.455783" xlink:href="#m73ebd2c344" y="344.643357"/>
     <use style="fill:#2792cb;stroke:#2792cb;" x="161.718409" xlink:href="#m73ebd2c344" y="341.118881"/>
     <use style="fill:#2792cb;stroke:#2792cb;" x="167.981035" xlink:href="#m73ebd2c344" y="343.132867"/>
     <use style="fill:#2792cb;stroke:#2792cb;" x="174.243662" xlink:href="#m73ebd2c344" y="351.188811"/>
     <use style="fill:#2792cb;stroke:#2792cb;" x="180.506288" xlink:href="#m73ebd2c344" y="347.664336"/>
     <use style="fill:#2792cb;stroke:#2792cb;" x="186.768914" xlink:href="#m73ebd2c344" y="345.146853"/>
     <use style="fill:#2792cb;stroke:#2792cb;" x="193.03154" xlink:href="#m73ebd2c344" y="343.636364"/>
     <use style="fill:#2792cb;stroke:#2792cb;" x="199.294167" xlink:href="#m73ebd2c344" y="356.223776"/>
     <use style="fill:#2792cb;stroke:#2792cb;" x="205.556793" xlink:href="#m73ebd2c344" y="360.251748"/>
     <use style="fill:#2792cb;stroke:#2792cb;" x="211.819419" xlink:href="#m73ebd2c344" y="363.776224"/>
     <use style="fill:#2792cb;stroke:#2792cb;" x="218.082045" xlink:href="#m73ebd2c344" y="360.251748"/>
     <use style="fill:#2792cb;stroke:#2792cb;" x="230.607298" xlink:href="#m73ebd2c344" y="358.741259"/>
     <use style="fill:#2792cb;stroke:#2792cb;" x="243.132551" xlink:href="#m73ebd2c344" y="372.839161"/>
     <use style="fill:#2792cb;stroke:#2792cb;" x="249.395177" xlink:href="#m73ebd2c344" y="372.839161"/>
     <use style="fill:#2792cb;stroke:#2792cb;" x="255.657803" xlink:href="#m73ebd2c344" y="406.573427"/>
     <use style="fill:#2792cb;stroke:#2792cb;" x="261.920429" xlink:href="#m73ebd2c344" y="402.041958"/>
     <use style="fill:#2792cb;stroke:#2792cb;" x="268.183056" xlink:href="#m73ebd2c344" y="408.587413"/>
     <use style="fill:#2792cb;stroke:#2792cb;" x="280.708308" xlink:href="#m73ebd2c344" y="410.601399"/>
     <use style="fill:#2792cb;stroke:#2792cb;" x="286.970934" xlink:href="#m73ebd2c344" y="413.622378"/>
     <use style="fill:#2792cb;stroke:#2792cb;" x="293.233561" xlink:href="#m73ebd2c344" y="425.706294"/>
     <use style="fill:#2792cb;stroke:#2792cb;" x="299.496187" xlink:href="#m73ebd2c344" y="426.713287"/>
     <use style="fill:#2792cb;stroke:#2792cb;" x="305.758813" xlink:href="#m73ebd2c344" y="428.223776"/>
     <use style="fill:#2792cb;stroke:#2792cb;" x="312.021439" xlink:href="#m73ebd2c344" y="437.79021"/>
     <use style="fill:#2792cb;stroke:#2792cb;" x="324.546692" xlink:href="#m73ebd2c344" y="439.300699"/>
     <use style="fill:#2792cb;stroke:#2792cb;" x="330.809318" xlink:href="#m73ebd2c344" y="435.272727"/>
     <use style="fill:#2792cb;stroke:#2792cb;" x="337.071944" xlink:href="#m73ebd2c344" y="440.307692"/>
     <use style="fill:#2792cb;stroke:#2792cb;" x="343.334571" xlink:href="#m73ebd2c344" y="443.328671"/>
     <use style="fill:#2792cb;stroke:#2792cb;" x="355.859823" xlink:href="#m73ebd2c344" y="437.286713"/>
     <use style="fill:#2792cb;stroke:#2792cb;" x="368.385076" xlink:href="#m73ebd2c344" y="425.706294"/>
     <use style="fill:#2792cb;stroke:#2792cb;" x="374.647702" xlink:href="#m73ebd2c344" y="423.692308"/>
     <use style="fill:#2792cb;stroke:#2792cb;" x="380.910328" xlink:href="#m73ebd2c344" y="410.601399"/>
     <use style="fill:#2792cb;stroke:#2792cb;" x="387.172955" xlink:href="#m73ebd2c344" y="411.608392"/>
     <use style="fill:#2792cb;stroke:#2792cb;" x="393.435581" xlink:href="#m73ebd2c344" y="393.482517"/>
     <use style="fill:#2792cb;stroke:#2792cb;" x="399.698207" xlink:href="#m73ebd2c344" y="366.293706"/>
     <use style="fill:#2792cb;stroke:#2792cb;" x="412.22346" xlink:href="#m73ebd2c344" y="335.076923"/>
     <use style="fill:#2792cb;stroke:#2792cb;" x="418.486086" xlink:href="#m73ebd2c344" y="322.48951"/>
     <use style="fill:#2792cb;stroke:#2792cb;" x="424.748712" xlink:href="#m73ebd2c344" y="313.93007"/>
     <use style="fill:#2792cb;stroke:#2792cb;" x="431.011338" xlink:href="#m73ebd2c344" y="308.895105"/>
     <use style="fill:#2792cb;stroke:#2792cb;" x="437.273965" xlink:href="#m73ebd2c344" y="314.433566"/>
     <use style="fill:#2792cb;stroke:#2792cb;" x="443.536591" xlink:href="#m73ebd2c344" y="312.923077"/>
     <use style="fill:#2792cb;stroke:#2792cb;" x="456.061843" xlink:href="#m73ebd2c344" y="319.972028"/>
     <use style="fill:#2792cb;stroke:#2792cb;" x="462.32447" xlink:href="#m73ebd2c344" y="321.986014"/>
     <use style="fill:#2792cb;stroke:#2792cb;" x="468.587096" xlink:href="#m73ebd2c344" y="321.986014"/>
     <use style="fill:#2792cb;stroke:#2792cb;" x="481.112348" xlink:href="#m73ebd2c344" y="322.48951"/>
     <use style="fill:#2792cb;stroke:#2792cb;" x="487.374975" xlink:href="#m73ebd2c344" y="317.958042"/>
     <use style="fill:#2792cb;stroke:#2792cb;" x="499.900227" xlink:href="#m73ebd2c344" y="316.447552"/>
     <use style="fill:#2792cb;stroke:#2792cb;" x="506.162854" xlink:href="#m73ebd2c344" y="403.048951"/>
     <use style="fill:#2792cb;stroke:#2792cb;" x="518.688106" xlink:href="#m73ebd2c344" y="444.839161"/>
     <use style="fill:#2792cb;stroke:#2792cb;" x="524.950732" xlink:href="#m73ebd2c344" y="447.356643"/>
     <use style="fill:#2792cb;stroke:#2792cb;" x="550.001237" xlink:href="#m73ebd2c344" y="448.867133"/>
     <use style="fill:#2792cb;stroke:#2792cb;" x="556.263864" xlink:href="#m73ebd2c344" y="459.440559"/>
     <use style="fill:#2792cb;stroke:#2792cb;" x="562.52649" xlink:href="#m73ebd2c344" y="460.951049"/>
     <use style="fill:#2792cb;stroke:#2792cb;" x="568.789116" xlink:href="#m73ebd2c344" y="468"/>
     <use style="fill:#2792cb;stroke:#2792cb;" x="575.051742" xlink:href="#m73ebd2c344" y="470.517483"/>
     <use style="fill:#2792cb;stroke:#2792cb;" x="587.576995" xlink:href="#m73ebd2c344" y="470.517483"/>
     <use style="fill:#2792cb;stroke:#2792cb;" x="593.839621" xlink:href="#m73ebd2c344" y="469.51049"/>
     <use style="fill:#2792cb;stroke:#2792cb;" x="600.102247" xlink:href="#m73ebd2c344" y="470.013986"/>
     <use style="fill:#2792cb;stroke:#2792cb;" x="612.6275" xlink:href="#m73ebd2c344" y="469.51049"/>
     <use style="fill:#2792cb;stroke:#2792cb;" x="618.890126" xlink:href="#m73ebd2c344" y="469.006993"/>
     <use style="fill:#2792cb;stroke:#2792cb;" x="631.415379" xlink:href="#m73ebd2c344" y="469.006993"/>
     <use style="fill:#2792cb;stroke:#2792cb;" x="643.940631" xlink:href="#m73ebd2c344" y="471.524476"/>
     <use style="fill:#2792cb;stroke:#2792cb;" x="656.465884" xlink:href="#m73ebd2c344" y="471.020979"/>
     <use style="fill:#2792cb;stroke:#2792cb;" x="662.72851" xlink:href="#m73ebd2c344" y="470.517483"/>
     <use style="fill:#2792cb;stroke:#2792cb;" x="675.253763" xlink:href="#m73ebd2c344" y="471.020979"/>
     <use style="fill:#2792cb;stroke:#2792cb;" x="681.516389" xlink:href="#m73ebd2c344" y="471.020979"/>
     <use style="fill:#2792cb;stroke:#2792cb;" x="687.779015" xlink:href="#m73ebd2c344" y="471.524476"/>
     <use style="fill:#2792cb;stroke:#2792cb;" x="694.041641" xlink:href="#m73ebd2c344" y="471.524476"/>
     <use style="fill:#2792cb;stroke:#2792cb;" x="706.566894" xlink:href="#m73ebd2c344" y="472.027972"/>
     <use style="fill:#2792cb;stroke:#2792cb;" x="719.092146" xlink:href="#m73ebd2c344" y="472.027972"/>
     <use style="fill:#2792cb;stroke:#2792cb;" x="725.354773" xlink:href="#m73ebd2c344" y="472.531469"/>
     <use style="fill:#2792cb;stroke:#2792cb;" x="731.617399" xlink:href="#m73ebd2c344" y="472.531469"/>
     <use style="fill:#2792cb;stroke:#2792cb;" x="737.880025" xlink:href="#m73ebd2c344" y="474.041958"/>
     <use style="fill:#2792cb;stroke:#2792cb;" x="744.142652" xlink:href="#m73ebd2c344" y="473.538462"/>
     <use style="fill:#2792cb;stroke:#2792cb;" x="750.405278" xlink:href="#m73ebd2c344" y="472.027972"/>
     <use style="fill:#2792cb;stroke:#2792cb;" x="769.193157" xlink:href="#m73ebd2c344" y="471.020979"/>
     <use style="fill:#2792cb;stroke:#2792cb;" x="775.455783" xlink:href="#m73ebd2c344" y="471.020979"/>
     <use style="fill:#2792cb;stroke:#2792cb;" x="781.718409" xlink:href="#m73ebd2c344" y="471.020979"/>
     <use style="fill:#2792cb;stroke:#2792cb;" x="787.981035" xlink:href="#m73ebd2c344" y="470.013986"/>
     <use style="fill:#2792cb;stroke:#2792cb;" x="806.768914" xlink:href="#m73ebd2c344" y="470.013986"/>
     <use style="fill:#2792cb;stroke:#2792cb;" x="813.03154" xlink:href="#m73ebd2c344" y="470.013986"/>
     <use style="fill:#2792cb;stroke:#2792cb;" x="819.294167" xlink:href="#m73ebd2c344" y="471.020979"/>
     <use style="fill:#2792cb;stroke:#2792cb;" x="825.556793" xlink:href="#m73ebd2c344" y="471.020979"/>
     <use style="fill:#2792cb;stroke:#2792cb;" x="831.819419" xlink:href="#m73ebd2c344" y="472.027972"/>
     <use style="fill:#2792cb;stroke:#2792cb;" x="850.607298" xlink:href="#m73ebd2c344" y="471.524476"/>
     <use style="fill:#2792cb;stroke:#2792cb;" x="856.869924" xlink:href="#m73ebd2c344" y="471.524476"/>
     <use style="fill:#2792cb;stroke:#2792cb;" x="863.132551" xlink:href="#m73ebd2c344" y="473.034965"/>
     <use style="fill:#2792cb;stroke:#2792cb;" x="869.395177" xlink:href="#m73ebd2c344" y="473.538462"/>
     <use style="fill:#2792cb;stroke:#2792cb;" x="875.657803" xlink:href="#m73ebd2c344" y="474.545455"/>
     <use style="fill:#2792cb;stroke:#2792cb;" x="894.445682" xlink:href="#m73ebd2c344" y="474.041958"/>
     <use style="fill:#2792cb;stroke:#2792cb;" x="900.708308" xlink:href="#m73ebd2c344" y="473.538462"/>
     <use style="fill:#2792cb;stroke:#2792cb;" x="906.970934" xlink:href="#m73ebd2c344" y="473.034965"/>
     <use style="fill:#2792cb;stroke:#2792cb;" x="913.233561" xlink:href="#m73ebd2c344" y="471.524476"/>
     <use style="fill:#2792cb;stroke:#2792cb;" x="919.496187" xlink:href="#m73ebd2c344" y="471.020979"/>
     <use style="fill:#2792cb;stroke:#2792cb;" x="938.284066" xlink:href="#m73ebd2c344" y="471.020979"/>
     <use style="fill:#2792cb;stroke:#2792cb;" x="944.546692" xlink:href="#m73ebd2c344" y="471.020979"/>
     <use style="fill:#2792cb;stroke:#2792cb;" x="950.809318" xlink:href="#m73ebd2c344" y="470.517483"/>
     <use style="fill:#2792cb;stroke:#2792cb;" x="957.071944" xlink:href="#m73ebd2c344" y="470.517483"/>
     <use style="fill:#2792cb;stroke:#2792cb;" x="963.334571" xlink:href="#m73ebd2c344" y="470.517483"/>
     <use style="fill:#2792cb;stroke:#2792cb;" x="982.122449" xlink:href="#m73ebd2c344" y="471.524476"/>
     <use style="fill:#2792cb;stroke:#2792cb;" x="988.385076" xlink:href="#m73ebd2c344" y="470.013986"/>
     <use style="fill:#2792cb;stroke:#2792cb;" x="994.647702" xlink:href="#m73ebd2c344" y="470.013986"/>
     <use style="fill:#2792cb;stroke:#2792cb;" x="1000.910328" xlink:href="#m73ebd2c344" y="470.013986"/>
     <use style="fill:#2792cb;stroke:#2792cb;" x="1007.172955" xlink:href="#m73ebd2c344" y="468.503497"/>
     <use style="fill:#2792cb;stroke:#2792cb;" x="1025.960833" xlink:href="#m73ebd2c344" y="470.013986"/>
     <use style="fill:#2792cb;stroke:#2792cb;" x="1032.22346" xlink:href="#m73ebd2c344" y="469.51049"/>
     <use style="fill:#2792cb;stroke:#2792cb;" x="1038.486086" xlink:href="#m73ebd2c344" y="470.517483"/>
     <use style="fill:#2792cb;stroke:#2792cb;" x="1044.748712" xlink:href="#m73ebd2c344" y="470.013986"/>
     <use style="fill:#2792cb;stroke:#2792cb;" x="1051.011338" xlink:href="#m73ebd2c344" y="470.517483"/>
     <use style="fill:#2792cb;stroke:#2792cb;" x="1069.799217" xlink:href="#m73ebd2c344" y="470.517483"/>
     <use style="fill:#2792cb;stroke:#2792cb;" x="1076.061843" xlink:href="#m73ebd2c344" y="470.517483"/>
     <use style="fill:#2792cb;stroke:#2792cb;" x="1082.32447" xlink:href="#m73ebd2c344" y="470.013986"/>
     <use style="fill:#2792cb;stroke:#2792cb;" x="1088.587096" xlink:href="#m73ebd2c344" y="470.013986"/>
     <use style="fill:#2792cb;stroke:#2792cb;" x="1094.849722" xlink:href="#m73ebd2c344" y="470.517483"/>
     <use style="fill:#2792cb;stroke:#2792cb;" x="1113.637601" xlink:href="#m73ebd2c344" y="469.51049"/>
     <use style="fill:#2792cb;stroke:#2792cb;" x="1119.900227" xlink:href="#m73ebd2c344" y="470.013986"/>
    </g>
   </g>
   <g id="patch_3">
    <path d="M 54.6275 496.8 
L 1170.6275 496.8 
" style="fill:none;stroke:#000000;stroke-linecap:square;stroke-linejoin:miter;stroke-width:0.8;"/>
   </g>
   <g id="legend_1">
    <g id="line2d_29">
     <path d="M 63.6275 20.298437 
L 83.6275 20.298437 
" style="fill:none;stroke:#dbcd00;stroke-linecap:square;stroke-width:2;"/>
    </g>
    <g id="line2d_30">
     <g>
      <use style="fill:#dbcd00;stroke:#dbcd00;" x="73.6275" xlink:href="#m9ee9c51cbd" y="20.298437"/>
     </g>
    </g>
    <g id="text_18">
     <!-- Genesene -->
     <defs>
      <path d="M 59.515625 10.40625 
L 59.515625 29.984375 
L 43.40625 29.984375 
L 43.40625 38.09375 
L 69.28125 38.09375 
L 69.28125 6.78125 
Q 63.578125 2.734375 56.6875 0.65625 
Q 49.8125 -1.421875 42 -1.421875 
Q 24.90625 -1.421875 15.25 8.5625 
Q 5.609375 18.5625 5.609375 36.375 
Q 5.609375 54.25 15.25 64.234375 
Q 24.90625 74.21875 42 74.21875 
Q 49.125 74.21875 55.546875 72.453125 
Q 61.96875 70.703125 67.390625 67.28125 
L 67.390625 56.78125 
Q 61.921875 61.421875 55.765625 63.765625 
Q 49.609375 66.109375 42.828125 66.109375 
Q 29.4375 66.109375 22.71875 58.640625 
Q 16.015625 51.171875 16.015625 36.375 
Q 16.015625 21.625 22.71875 14.15625 
Q 29.4375 6.6875 42.828125 6.6875 
Q 48.046875 6.6875 52.140625 7.59375 
Q 56.25 8.5 59.515625 10.40625 
z
" id="DejaVuSans-71"/>
      <path d="M 44.28125 53.078125 
L 44.28125 44.578125 
Q 40.484375 46.53125 36.375 47.5 
Q 32.28125 48.484375 27.875 48.484375 
Q 21.1875 48.484375 17.84375 46.4375 
Q 14.5 44.390625 14.5 40.28125 
Q 14.5 37.15625 16.890625 35.375 
Q 19.28125 33.59375 26.515625 31.984375 
L 29.59375 31.296875 
Q 39.15625 29.25 43.1875 25.515625 
Q 47.21875 21.78125 47.21875 15.09375 
Q 47.21875 7.46875 41.1875 3.015625 
Q 35.15625 -1.421875 24.609375 -1.421875 
Q 20.21875 -1.421875 15.453125 -0.5625 
Q 10.6875 0.296875 5.421875 2 
L 5.421875 11.28125 
Q 10.40625 8.6875 15.234375 7.390625 
Q 20.0625 6.109375 24.8125 6.109375 
Q 31.15625 6.109375 34.5625 8.28125 
Q 37.984375 10.453125 37.984375 14.40625 
Q 37.984375 18.0625 35.515625 20.015625 
Q 33.0625 21.96875 24.703125 23.78125 
L 21.578125 24.515625 
Q 13.234375 26.265625 9.515625 29.90625 
Q 5.8125 33.546875 5.8125 39.890625 
Q 5.8125 47.609375 11.28125 51.796875 
Q 16.75 56 26.8125 56 
Q 31.78125 56 36.171875 55.265625 
Q 40.578125 54.546875 44.28125 53.078125 
z
" id="DejaVuSans-115"/>
     </defs>
     <g transform="translate(91.6275 23.798437)scale(0.1 -0.1)">
      <use xlink:href="#DejaVuSans-71"/>
      <use x="77.490234" xlink:href="#DejaVuSans-101"/>
      <use x="139.013672" xlink:href="#DejaVuSans-110"/>
      <use x="202.392578" xlink:href="#DejaVuSans-101"/>
      <use x="263.916016" xlink:href="#DejaVuSans-115"/>
      <use x="316.015625" xlink:href="#DejaVuSans-101"/>
      <use x="377.539062" xlink:href="#DejaVuSans-110"/>
      <use x="440.917969" xlink:href="#DejaVuSans-101"/>
     </g>
    </g>
    <g id="line2d_31">
     <path d="M 63.6275 34.976562 
L 83.6275 34.976562 
" style="fill:none;stroke:#2792cb;stroke-linecap:square;stroke-width:2;"/>
    </g>
    <g id="line2d_32">
     <g>
      <use style="fill:#2792cb;stroke:#2792cb;" x="73.6275" xlink:href="#m73ebd2c344" y="34.976562"/>
     </g>
    </g>
    <g id="text_19">
     <!-- Erkrankte -->
     <defs>
      <path d="M 9.8125 72.90625 
L 55.90625 72.90625 
L 55.90625 64.59375 
L 19.671875 64.59375 
L 19.671875 43.015625 
L 54.390625 43.015625 
L 54.390625 34.71875 
L 19.671875 34.71875 
L 19.671875 8.296875 
L 56.78125 8.296875 
L 56.78125 0 
L 9.8125 0 
z
" id="DejaVuSans-69"/>
      <path d="M 41.109375 46.296875 
Q 39.59375 47.171875 37.8125 47.578125 
Q 36.03125 48 33.890625 48 
Q 26.265625 48 22.1875 43.046875 
Q 18.109375 38.09375 18.109375 28.8125 
L 18.109375 0 
L 9.078125 0 
L 9.078125 54.6875 
L 18.109375 54.6875 
L 18.109375 46.1875 
Q 20.953125 51.171875 25.484375 53.578125 
Q 30.03125 56 36.53125 56 
Q 37.453125 56 38.578125 55.875 
Q 39.703125 55.765625 41.0625 55.515625 
z
" id="DejaVuSans-114"/>
      <path d="M 9.078125 75.984375 
L 18.109375 75.984375 
L 18.109375 31.109375 
L 44.921875 54.6875 
L 56.390625 54.6875 
L 27.390625 29.109375 
L 57.625 0 
L 45.90625 0 
L 18.109375 26.703125 
L 18.109375 0 
L 9.078125 0 
z
" id="DejaVuSans-107"/>
      <path d="M 18.3125 70.21875 
L 18.3125 54.6875 
L 36.8125 54.6875 
L 36.8125 47.703125 
L 18.3125 47.703125 
L 18.3125 18.015625 
Q 18.3125 11.328125 20.140625 9.421875 
Q 21.96875 7.515625 27.59375 7.515625 
L 36.8125 7.515625 
L 36.8125 0 
L 27.59375 0 
Q 17.1875 0 13.234375 3.875 
Q 9.28125 7.765625 9.28125 18.015625 
L 9.28125 47.703125 
L 2.6875 47.703125 
L 2.6875 54.6875 
L 9.28125 54.6875 
L 9.28125 70.21875 
z
" id="DejaVuSans-116"/>
     </defs>
     <g transform="translate(91.6275 38.476562)scale(0.1 -0.1)">
      <use xlink:href="#DejaVuSans-69"/>
      <use x="63.183594" xlink:href="#DejaVuSans-114"/>
      <use x="104.296875" xlink:href="#DejaVuSans-107"/>
      <use x="162.207031" xlink:href="#DejaVuSans-114"/>
      <use x="203.320312" xlink:href="#DejaVuSans-97"/>
      <use x="264.599609" xlink:href="#DejaVuSans-110"/>
      <use x="327.978516" xlink:href="#DejaVuSans-107"/>
      <use x="385.888672" xlink:href="#DejaVuSans-116"/>
      <use x="425.097656" xlink:href="#DejaVuSans-101"/>
     </g>
    </g>
   </g>
  </g>
 </g>
 <defs>
  <clipPath id="p2480895262">
   <rect height="489.6" width="1116" x="54.6275" y="7.2"/>
  </clipPath>
 </defs>
</svg>
