<?xml version="1.0" encoding="utf-8" standalone="no"?>
<!DOCTYPE svg PUBLIC "-//W3C//DTD SVG 1.1//EN"
  "http://www.w3.org/Graphics/SVG/1.1/DTD/svg11.dtd">
<!-- Created with matplotlib (https://matplotlib.org/) -->
<svg height="553.993765pt" version="1.1" viewBox="0 0 1186.09875 553.993765" width="1186.09875pt" xmlns="http://www.w3.org/2000/svg" xmlns:xlink="http://www.w3.org/1999/xlink">
 <defs>
  <style type="text/css">
*{stroke-linecap:butt;stroke-linejoin:round;}
  </style>
 </defs>
 <g id="figure_1">
  <g id="patch_1">
   <path d="M 0 553.993765 
L 1186.09875 553.993765 
L 1186.09875 0 
L 0 0 
z
" style="fill:#ffffff;"/>
  </g>
  <g id="axes_1">
   <g id="patch_2">
    <path d="M 62.89875 501.738984 
L 1178.89875 501.738984 
L 1178.89875 12.138984 
L 62.89875 12.138984 
z
" style="fill:#ffffff;"/>
   </g>
   <g id="matplotlib.axis_1">
    <g id="xtick_1">
     <g id="line2d_1">
      <defs>
       <path d="M 0 0 
L 0 3.5 
" id="m22de458a08" style="stroke:#000000;stroke-width:0.8;"/>
      </defs>
      <g>
       <use style="stroke:#000000;stroke-width:0.8;" x="153.67387" xlink:href="#m22de458a08" y="501.738984"/>
      </g>
     </g>
     <g id="text_1">
      <!-- 2020-04 -->
      <defs>
       <path d="M 19.1875 8.296875 
L 53.609375 8.296875 
L 53.609375 0 
L 7.328125 0 
L 7.328125 8.296875 
Q 12.9375 14.109375 22.625 23.890625 
Q 32.328125 33.6875 34.8125 36.53125 
Q 39.546875 41.84375 41.421875 45.53125 
Q 43.3125 49.21875 43.3125 52.78125 
Q 43.3125 58.59375 39.234375 62.25 
Q 35.15625 65.921875 28.609375 65.921875 
Q 23.96875 65.921875 18.8125 64.3125 
Q 13.671875 62.703125 7.8125 59.421875 
L 7.8125 69.390625 
Q 13.765625 71.78125 18.9375 73 
Q 24.125 74.21875 28.421875 74.21875 
Q 39.75 74.21875 46.484375 68.546875 
Q 53.21875 62.890625 53.21875 53.421875 
Q 53.21875 48.921875 51.53125 44.890625 
Q 49.859375 40.875 45.40625 35.40625 
Q 44.1875 33.984375 37.640625 27.21875 
Q 31.109375 20.453125 19.1875 8.296875 
z
" id="DejaVuSans-50"/>
       <path d="M 31.78125 66.40625 
Q 24.171875 66.40625 20.328125 58.90625 
Q 16.5 51.421875 16.5 36.375 
Q 16.5 21.390625 20.328125 13.890625 
Q 24.171875 6.390625 31.78125 6.390625 
Q 39.453125 6.390625 43.28125 13.890625 
Q 47.125 21.390625 47.125 36.375 
Q 47.125 51.421875 43.28125 58.90625 
Q 39.453125 66.40625 31.78125 66.40625 
z
M 31.78125 74.21875 
Q 44.046875 74.21875 50.515625 64.515625 
Q 56.984375 54.828125 56.984375 36.375 
Q 56.984375 17.96875 50.515625 8.265625 
Q 44.046875 -1.421875 31.78125 -1.421875 
Q 19.53125 -1.421875 13.0625 8.265625 
Q 6.59375 17.96875 6.59375 36.375 
Q 6.59375 54.828125 13.0625 64.515625 
Q 19.53125 74.21875 31.78125 74.21875 
z
" id="DejaVuSans-48"/>
       <path d="M 4.890625 31.390625 
L 31.203125 31.390625 
L 31.203125 23.390625 
L 4.890625 23.390625 
z
" id="DejaVuSans-45"/>
       <path d="M 37.796875 64.3125 
L 12.890625 25.390625 
L 37.796875 25.390625 
z
M 35.203125 72.90625 
L 47.609375 72.90625 
L 47.609375 25.390625 
L 58.015625 25.390625 
L 58.015625 17.1875 
L 47.609375 17.1875 
L 47.609375 0 
L 37.796875 0 
L 37.796875 17.1875 
L 4.890625 17.1875 
L 4.890625 26.703125 
z
" id="DejaVuSans-52"/>
      </defs>
      <g transform="translate(105.281603 544.452384)rotate(-30)scale(0.13 -0.13)">
       <use xlink:href="#DejaVuSans-50"/>
       <use x="63.623047" xlink:href="#DejaVuSans-48"/>
       <use x="127.246094" xlink:href="#DejaVuSans-50"/>
       <use x="190.869141" xlink:href="#DejaVuSans-48"/>
       <use x="254.492188" xlink:href="#DejaVuSans-45"/>
       <use x="290.576172" xlink:href="#DejaVuSans-48"/>
       <use x="354.199219" xlink:href="#DejaVuSans-52"/>
      </g>
     </g>
    </g>
    <g id="xtick_2">
     <g id="line2d_2">
      <g>
       <use style="stroke:#000000;stroke-width:0.8;" x="287.166693" xlink:href="#m22de458a08" y="501.738984"/>
      </g>
     </g>
     <g id="text_2">
      <!-- 2020-05 -->
      <defs>
       <path d="M 10.796875 72.90625 
L 49.515625 72.90625 
L 49.515625 64.59375 
L 19.828125 64.59375 
L 19.828125 46.734375 
Q 21.96875 47.46875 24.109375 47.828125 
Q 26.265625 48.1875 28.421875 48.1875 
Q 40.625 48.1875 47.75 41.5 
Q 54.890625 34.8125 54.890625 23.390625 
Q 54.890625 11.625 47.5625 5.09375 
Q 40.234375 -1.421875 26.90625 -1.421875 
Q 22.3125 -1.421875 17.546875 -0.640625 
Q 12.796875 0.140625 7.71875 1.703125 
L 7.71875 11.625 
Q 12.109375 9.234375 16.796875 8.0625 
Q 21.484375 6.890625 26.703125 6.890625 
Q 35.15625 6.890625 40.078125 11.328125 
Q 45.015625 15.765625 45.015625 23.390625 
Q 45.015625 31 40.078125 35.4375 
Q 35.15625 39.890625 26.703125 39.890625 
Q 22.75 39.890625 18.8125 39.015625 
Q 14.890625 38.140625 10.796875 36.28125 
z
" id="DejaVuSans-53"/>
      </defs>
      <g transform="translate(238.774426 544.452384)rotate(-30)scale(0.13 -0.13)">
       <use xlink:href="#DejaVuSans-50"/>
       <use x="63.623047" xlink:href="#DejaVuSans-48"/>
       <use x="127.246094" xlink:href="#DejaVuSans-50"/>
       <use x="190.869141" xlink:href="#DejaVuSans-48"/>
       <use x="254.492188" xlink:href="#DejaVuSans-45"/>
       <use x="290.576172" xlink:href="#DejaVuSans-48"/>
       <use x="354.199219" xlink:href="#DejaVuSans-53"/>
      </g>
     </g>
    </g>
    <g id="xtick_3">
     <g id="line2d_3">
      <g>
       <use style="stroke:#000000;stroke-width:0.8;" x="425.109276" xlink:href="#m22de458a08" y="501.738984"/>
      </g>
     </g>
     <g id="text_3">
      <!-- 2020-06 -->
      <defs>
       <path d="M 33.015625 40.375 
Q 26.375 40.375 22.484375 35.828125 
Q 18.609375 31.296875 18.609375 23.390625 
Q 18.609375 15.53125 22.484375 10.953125 
Q 26.375 6.390625 33.015625 6.390625 
Q 39.65625 6.390625 43.53125 10.953125 
Q 47.40625 15.53125 47.40625 23.390625 
Q 47.40625 31.296875 43.53125 35.828125 
Q 39.65625 40.375 33.015625 40.375 
z
M 52.59375 71.296875 
L 52.59375 62.3125 
Q 48.875 64.0625 45.09375 64.984375 
Q 41.3125 65.921875 37.59375 65.921875 
Q 27.828125 65.921875 22.671875 59.328125 
Q 17.53125 52.734375 16.796875 39.40625 
Q 19.671875 43.65625 24.015625 45.921875 
Q 28.375 48.1875 33.59375 48.1875 
Q 44.578125 48.1875 50.953125 41.515625 
Q 57.328125 34.859375 57.328125 23.390625 
Q 57.328125 12.15625 50.6875 5.359375 
Q 44.046875 -1.421875 33.015625 -1.421875 
Q 20.359375 -1.421875 13.671875 8.265625 
Q 6.984375 17.96875 6.984375 36.375 
Q 6.984375 53.65625 15.1875 63.9375 
Q 23.390625 74.21875 37.203125 74.21875 
Q 40.921875 74.21875 44.703125 73.484375 
Q 48.484375 72.75 52.59375 71.296875 
z
" id="DejaVuSans-54"/>
      </defs>
      <g transform="translate(376.717009 544.452384)rotate(-30)scale(0.13 -0.13)">
       <use xlink:href="#DejaVuSans-50"/>
       <use x="63.623047" xlink:href="#DejaVuSans-48"/>
       <use x="127.246094" xlink:href="#DejaVuSans-50"/>
       <use x="190.869141" xlink:href="#DejaVuSans-48"/>
       <use x="254.492188" xlink:href="#DejaVuSans-45"/>
       <use x="290.576172" xlink:href="#DejaVuSans-48"/>
       <use x="354.199219" xlink:href="#DejaVuSans-54"/>
      </g>
     </g>
    </g>
    <g id="xtick_4">
     <g id="line2d_4">
      <g>
       <use style="stroke:#000000;stroke-width:0.8;" x="558.602099" xlink:href="#m22de458a08" y="501.738984"/>
      </g>
     </g>
     <g id="text_4">
      <!-- 2020-07 -->
      <defs>
       <path d="M 8.203125 72.90625 
L 55.078125 72.90625 
L 55.078125 68.703125 
L 28.609375 0 
L 18.3125 0 
L 43.21875 64.59375 
L 8.203125 64.59375 
z
" id="DejaVuSans-55"/>
      </defs>
      <g transform="translate(510.209832 544.452384)rotate(-30)scale(0.13 -0.13)">
       <use xlink:href="#DejaVuSans-50"/>
       <use x="63.623047" xlink:href="#DejaVuSans-48"/>
       <use x="127.246094" xlink:href="#DejaVuSans-50"/>
       <use x="190.869141" xlink:href="#DejaVuSans-48"/>
       <use x="254.492188" xlink:href="#DejaVuSans-45"/>
       <use x="290.576172" xlink:href="#DejaVuSans-48"/>
       <use x="354.199219" xlink:href="#DejaVuSans-55"/>
      </g>
     </g>
    </g>
    <g id="xtick_5">
     <g id="line2d_5">
      <g>
       <use style="stroke:#000000;stroke-width:0.8;" x="696.544683" xlink:href="#m22de458a08" y="501.738984"/>
      </g>
     </g>
     <g id="text_5">
      <!-- 2020-08 -->
      <defs>
       <path d="M 31.78125 34.625 
Q 24.75 34.625 20.71875 30.859375 
Q 16.703125 27.09375 16.703125 20.515625 
Q 16.703125 13.921875 20.71875 10.15625 
Q 24.75 6.390625 31.78125 6.390625 
Q 38.8125 6.390625 42.859375 10.171875 
Q 46.921875 13.96875 46.921875 20.515625 
Q 46.921875 27.09375 42.890625 30.859375 
Q 38.875 34.625 31.78125 34.625 
z
M 21.921875 38.8125 
Q 15.578125 40.375 12.03125 44.71875 
Q 8.5 49.078125 8.5 55.328125 
Q 8.5 64.0625 14.71875 69.140625 
Q 20.953125 74.21875 31.78125 74.21875 
Q 42.671875 74.21875 48.875 69.140625 
Q 55.078125 64.0625 55.078125 55.328125 
Q 55.078125 49.078125 51.53125 44.71875 
Q 48 40.375 41.703125 38.8125 
Q 48.828125 37.15625 52.796875 32.3125 
Q 56.78125 27.484375 56.78125 20.515625 
Q 56.78125 9.90625 50.3125 4.234375 
Q 43.84375 -1.421875 31.78125 -1.421875 
Q 19.734375 -1.421875 13.25 4.234375 
Q 6.78125 9.90625 6.78125 20.515625 
Q 6.78125 27.484375 10.78125 32.3125 
Q 14.796875 37.15625 21.921875 38.8125 
z
M 18.3125 54.390625 
Q 18.3125 48.734375 21.84375 45.5625 
Q 25.390625 42.390625 31.78125 42.390625 
Q 38.140625 42.390625 41.71875 45.5625 
Q 45.3125 48.734375 45.3125 54.390625 
Q 45.3125 60.0625 41.71875 63.234375 
Q 38.140625 66.40625 31.78125 66.40625 
Q 25.390625 66.40625 21.84375 63.234375 
Q 18.3125 60.0625 18.3125 54.390625 
z
" id="DejaVuSans-56"/>
      </defs>
      <g transform="translate(648.152416 544.452384)rotate(-30)scale(0.13 -0.13)">
       <use xlink:href="#DejaVuSans-50"/>
       <use x="63.623047" xlink:href="#DejaVuSans-48"/>
       <use x="127.246094" xlink:href="#DejaVuSans-50"/>
       <use x="190.869141" xlink:href="#DejaVuSans-48"/>
       <use x="254.492188" xlink:href="#DejaVuSans-45"/>
       <use x="290.576172" xlink:href="#DejaVuSans-48"/>
       <use x="354.199219" xlink:href="#DejaVuSans-56"/>
      </g>
     </g>
    </g>
    <g id="xtick_6">
     <g id="line2d_6">
      <g>
       <use style="stroke:#000000;stroke-width:0.8;" x="834.487267" xlink:href="#m22de458a08" y="501.738984"/>
      </g>
     </g>
     <g id="text_6">
      <!-- 2020-09 -->
      <defs>
       <path d="M 10.984375 1.515625 
L 10.984375 10.5 
Q 14.703125 8.734375 18.5 7.8125 
Q 22.3125 6.890625 25.984375 6.890625 
Q 35.75 6.890625 40.890625 13.453125 
Q 46.046875 20.015625 46.78125 33.40625 
Q 43.953125 29.203125 39.59375 26.953125 
Q 35.25 24.703125 29.984375 24.703125 
Q 19.046875 24.703125 12.671875 31.3125 
Q 6.296875 37.9375 6.296875 49.421875 
Q 6.296875 60.640625 12.9375 67.421875 
Q 19.578125 74.21875 30.609375 74.21875 
Q 43.265625 74.21875 49.921875 64.515625 
Q 56.59375 54.828125 56.59375 36.375 
Q 56.59375 19.140625 48.40625 8.859375 
Q 40.234375 -1.421875 26.421875 -1.421875 
Q 22.703125 -1.421875 18.890625 -0.6875 
Q 15.09375 0.046875 10.984375 1.515625 
z
M 30.609375 32.421875 
Q 37.25 32.421875 41.125 36.953125 
Q 45.015625 41.5 45.015625 49.421875 
Q 45.015625 57.28125 41.125 61.84375 
Q 37.25 66.40625 30.609375 66.40625 
Q 23.96875 66.40625 20.09375 61.84375 
Q 16.21875 57.28125 16.21875 49.421875 
Q 16.21875 41.5 20.09375 36.953125 
Q 23.96875 32.421875 30.609375 32.421875 
z
" id="DejaVuSans-57"/>
      </defs>
      <g transform="translate(786.095 544.452384)rotate(-30)scale(0.13 -0.13)">
       <use xlink:href="#DejaVuSans-50"/>
       <use x="63.623047" xlink:href="#DejaVuSans-48"/>
       <use x="127.246094" xlink:href="#DejaVuSans-50"/>
       <use x="190.869141" xlink:href="#DejaVuSans-48"/>
       <use x="254.492188" xlink:href="#DejaVuSans-45"/>
       <use x="290.576172" xlink:href="#DejaVuSans-48"/>
       <use x="354.199219" xlink:href="#DejaVuSans-57"/>
      </g>
     </g>
    </g>
    <g id="xtick_7">
     <g id="line2d_7">
      <g>
       <use style="stroke:#000000;stroke-width:0.8;" x="967.98009" xlink:href="#m22de458a08" y="501.738984"/>
      </g>
     </g>
     <g id="text_7">
      <!-- 2020-10 -->
      <defs>
       <path d="M 12.40625 8.296875 
L 28.515625 8.296875 
L 28.515625 63.921875 
L 10.984375 60.40625 
L 10.984375 69.390625 
L 28.421875 72.90625 
L 38.28125 72.90625 
L 38.28125 8.296875 
L 54.390625 8.296875 
L 54.390625 0 
L 12.40625 0 
z
" id="DejaVuSans-49"/>
      </defs>
      <g transform="translate(919.587823 544.452384)rotate(-30)scale(0.13 -0.13)">
       <use xlink:href="#DejaVuSans-50"/>
       <use x="63.623047" xlink:href="#DejaVuSans-48"/>
       <use x="127.246094" xlink:href="#DejaVuSans-50"/>
       <use x="190.869141" xlink:href="#DejaVuSans-48"/>
       <use x="254.492188" xlink:href="#DejaVuSans-45"/>
       <use x="290.576172" xlink:href="#DejaVuSans-49"/>
       <use x="354.199219" xlink:href="#DejaVuSans-48"/>
      </g>
     </g>
    </g>
    <g id="xtick_8">
     <g id="line2d_8">
      <g>
       <use style="stroke:#000000;stroke-width:0.8;" x="1105.922673" xlink:href="#m22de458a08" y="501.738984"/>
      </g>
     </g>
     <g id="text_8">
      <!-- 2020-11 -->
      <g transform="translate(1057.530406 544.452384)rotate(-30)scale(0.13 -0.13)">
       <use xlink:href="#DejaVuSans-50"/>
       <use x="63.623047" xlink:href="#DejaVuSans-48"/>
       <use x="127.246094" xlink:href="#DejaVuSans-50"/>
       <use x="190.869141" xlink:href="#DejaVuSans-48"/>
       <use x="254.492188" xlink:href="#DejaVuSans-45"/>
       <use x="290.576172" xlink:href="#DejaVuSans-49"/>
       <use x="354.199219" xlink:href="#DejaVuSans-49"/>
      </g>
     </g>
    </g>
   </g>
   <g id="matplotlib.axis_2">
    <g id="ytick_1">
     <g id="line2d_9">
      <path clip-path="url(#pc6aebe15df)" d="M 62.89875 483.148815 
L 1178.89875 483.148815 
" style="fill:none;stroke:#b0b0b0;stroke-linecap:square;stroke-width:0.8;"/>
     </g>
     <g id="line2d_10">
      <defs>
       <path d="M 0 0 
L -3.5 0 
" id="mcaa428c525" style="stroke:#000000;stroke-width:0.8;"/>
      </defs>
      <g>
       <use style="stroke:#000000;stroke-width:0.8;" x="62.89875" xlink:href="#mcaa428c525" y="483.148815"/>
      </g>
     </g>
     <g id="text_9">
      <!-- 0 -->
      <g transform="translate(47.6275 488.087799)scale(0.13 -0.13)">
       <use xlink:href="#DejaVuSans-48"/>
      </g>
     </g>
    </g>
    <g id="ytick_2">
     <g id="line2d_11">
      <path clip-path="url(#pc6aebe15df)" d="M 62.89875 453.710701 
L 1178.89875 453.710701 
" style="fill:none;stroke:#b0b0b0;stroke-linecap:square;stroke-width:0.8;"/>
     </g>
     <g id="line2d_12">
      <g>
       <use style="stroke:#000000;stroke-width:0.8;" x="62.89875" xlink:href="#mcaa428c525" y="453.710701"/>
      </g>
     </g>
     <g id="text_10">
      <!-- 100 -->
      <g transform="translate(31.085 458.649685)scale(0.13 -0.13)">
       <use xlink:href="#DejaVuSans-49"/>
       <use x="63.623047" xlink:href="#DejaVuSans-48"/>
       <use x="127.246094" xlink:href="#DejaVuSans-48"/>
      </g>
     </g>
    </g>
    <g id="ytick_3">
     <g id="line2d_13">
      <path clip-path="url(#pc6aebe15df)" d="M 62.89875 424.272586 
L 1178.89875 424.272586 
" style="fill:none;stroke:#b0b0b0;stroke-linecap:square;stroke-width:0.8;"/>
     </g>
     <g id="line2d_14">
      <g>
       <use style="stroke:#000000;stroke-width:0.8;" x="62.89875" xlink:href="#mcaa428c525" y="424.272586"/>
      </g>
     </g>
     <g id="text_11">
      <!-- 200 -->
      <g transform="translate(31.085 429.211571)scale(0.13 -0.13)">
       <use xlink:href="#DejaVuSans-50"/>
       <use x="63.623047" xlink:href="#DejaVuSans-48"/>
       <use x="127.246094" xlink:href="#DejaVuSans-48"/>
      </g>
     </g>
    </g>
    <g id="ytick_4">
     <g id="line2d_15">
      <path clip-path="url(#pc6aebe15df)" d="M 62.89875 394.834472 
L 1178.89875 394.834472 
" style="fill:none;stroke:#b0b0b0;stroke-linecap:square;stroke-width:0.8;"/>
     </g>
     <g id="line2d_16">
      <g>
       <use style="stroke:#000000;stroke-width:0.8;" x="62.89875" xlink:href="#mcaa428c525" y="394.834472"/>
      </g>
     </g>
     <g id="text_12">
      <!-- 300 -->
      <defs>
       <path d="M 40.578125 39.3125 
Q 47.65625 37.796875 51.625 33 
Q 55.609375 28.21875 55.609375 21.1875 
Q 55.609375 10.40625 48.1875 4.484375 
Q 40.765625 -1.421875 27.09375 -1.421875 
Q 22.515625 -1.421875 17.65625 -0.515625 
Q 12.796875 0.390625 7.625 2.203125 
L 7.625 11.71875 
Q 11.71875 9.328125 16.59375 8.109375 
Q 21.484375 6.890625 26.8125 6.890625 
Q 36.078125 6.890625 40.9375 10.546875 
Q 45.796875 14.203125 45.796875 21.1875 
Q 45.796875 27.640625 41.28125 31.265625 
Q 36.765625 34.90625 28.71875 34.90625 
L 20.21875 34.90625 
L 20.21875 43.015625 
L 29.109375 43.015625 
Q 36.375 43.015625 40.234375 45.921875 
Q 44.09375 48.828125 44.09375 54.296875 
Q 44.09375 59.90625 40.109375 62.90625 
Q 36.140625 65.921875 28.71875 65.921875 
Q 24.65625 65.921875 20.015625 65.03125 
Q 15.375 64.15625 9.8125 62.3125 
L 9.8125 71.09375 
Q 15.4375 72.65625 20.34375 73.4375 
Q 25.25 74.21875 29.59375 74.21875 
Q 40.828125 74.21875 47.359375 69.109375 
Q 53.90625 64.015625 53.90625 55.328125 
Q 53.90625 49.265625 50.4375 45.09375 
Q 46.96875 40.921875 40.578125 39.3125 
z
" id="DejaVuSans-51"/>
      </defs>
      <g transform="translate(31.085 399.773456)scale(0.13 -0.13)">
       <use xlink:href="#DejaVuSans-51"/>
       <use x="63.623047" xlink:href="#DejaVuSans-48"/>
       <use x="127.246094" xlink:href="#DejaVuSans-48"/>
      </g>
     </g>
    </g>
    <g id="ytick_5">
     <g id="line2d_17">
      <path clip-path="url(#pc6aebe15df)" d="M 62.89875 365.396357 
L 1178.89875 365.396357 
" style="fill:none;stroke:#b0b0b0;stroke-linecap:square;stroke-width:0.8;"/>
     </g>
     <g id="line2d_18">
      <g>
       <use style="stroke:#000000;stroke-width:0.8;" x="62.89875" xlink:href="#mcaa428c525" y="365.396357"/>
      </g>
     </g>
     <g id="text_13">
      <!-- 400 -->
      <g transform="translate(31.085 370.335342)scale(0.13 -0.13)">
       <use xlink:href="#DejaVuSans-52"/>
       <use x="63.623047" xlink:href="#DejaVuSans-48"/>
       <use x="127.246094" xlink:href="#DejaVuSans-48"/>
      </g>
     </g>
    </g>
    <g id="ytick_6">
     <g id="line2d_19">
      <path clip-path="url(#pc6aebe15df)" d="M 62.89875 335.958243 
L 1178.89875 335.958243 
" style="fill:none;stroke:#b0b0b0;stroke-linecap:square;stroke-width:0.8;"/>
     </g>
     <g id="line2d_20">
      <g>
       <use style="stroke:#000000;stroke-width:0.8;" x="62.89875" xlink:href="#mcaa428c525" y="335.958243"/>
      </g>
     </g>
     <g id="text_14">
      <!-- 500 -->
      <g transform="translate(31.085 340.897227)scale(0.13 -0.13)">
       <use xlink:href="#DejaVuSans-53"/>
       <use x="63.623047" xlink:href="#DejaVuSans-48"/>
       <use x="127.246094" xlink:href="#DejaVuSans-48"/>
      </g>
     </g>
    </g>
    <g id="ytick_7">
     <g id="line2d_21">
      <path clip-path="url(#pc6aebe15df)" d="M 62.89875 306.520129 
L 1178.89875 306.520129 
" style="fill:none;stroke:#b0b0b0;stroke-linecap:square;stroke-width:0.8;"/>
     </g>
     <g id="line2d_22">
      <g>
       <use style="stroke:#000000;stroke-width:0.8;" x="62.89875" xlink:href="#mcaa428c525" y="306.520129"/>
      </g>
     </g>
     <g id="text_15">
      <!-- 600 -->
      <g transform="translate(31.085 311.459113)scale(0.13 -0.13)">
       <use xlink:href="#DejaVuSans-54"/>
       <use x="63.623047" xlink:href="#DejaVuSans-48"/>
       <use x="127.246094" xlink:href="#DejaVuSans-48"/>
      </g>
     </g>
    </g>
    <g id="ytick_8">
     <g id="line2d_23">
      <path clip-path="url(#pc6aebe15df)" d="M 62.89875 277.082014 
L 1178.89875 277.082014 
" style="fill:none;stroke:#b0b0b0;stroke-linecap:square;stroke-width:0.8;"/>
     </g>
     <g id="line2d_24">
      <g>
       <use style="stroke:#000000;stroke-width:0.8;" x="62.89875" xlink:href="#mcaa428c525" y="277.082014"/>
      </g>
     </g>
     <g id="text_16">
      <!-- 700 -->
      <g transform="translate(31.085 282.020999)scale(0.13 -0.13)">
       <use xlink:href="#DejaVuSans-55"/>
       <use x="63.623047" xlink:href="#DejaVuSans-48"/>
       <use x="127.246094" xlink:href="#DejaVuSans-48"/>
      </g>
     </g>
    </g>
    <g id="ytick_9">
     <g id="line2d_25">
      <path clip-path="url(#pc6aebe15df)" d="M 62.89875 247.6439 
L 1178.89875 247.6439 
" style="fill:none;stroke:#b0b0b0;stroke-linecap:square;stroke-width:0.8;"/>
     </g>
     <g id="line2d_26">
      <g>
       <use style="stroke:#000000;stroke-width:0.8;" x="62.89875" xlink:href="#mcaa428c525" y="247.6439"/>
      </g>
     </g>
     <g id="text_17">
      <!-- 800 -->
      <g transform="translate(31.085 252.582884)scale(0.13 -0.13)">
       <use xlink:href="#DejaVuSans-56"/>
       <use x="63.623047" xlink:href="#DejaVuSans-48"/>
       <use x="127.246094" xlink:href="#DejaVuSans-48"/>
      </g>
     </g>
    </g>
    <g id="ytick_10">
     <g id="line2d_27">
      <path clip-path="url(#pc6aebe15df)" d="M 62.89875 218.205785 
L 1178.89875 218.205785 
" style="fill:none;stroke:#b0b0b0;stroke-linecap:square;stroke-width:0.8;"/>
     </g>
     <g id="line2d_28">
      <g>
       <use style="stroke:#000000;stroke-width:0.8;" x="62.89875" xlink:href="#mcaa428c525" y="218.205785"/>
      </g>
     </g>
     <g id="text_18">
      <!-- 900 -->
      <g transform="translate(31.085 223.14477)scale(0.13 -0.13)">
       <use xlink:href="#DejaVuSans-57"/>
       <use x="63.623047" xlink:href="#DejaVuSans-48"/>
       <use x="127.246094" xlink:href="#DejaVuSans-48"/>
      </g>
     </g>
    </g>
    <g id="ytick_11">
     <g id="line2d_29">
      <path clip-path="url(#pc6aebe15df)" d="M 62.89875 188.767671 
L 1178.89875 188.767671 
" style="fill:none;stroke:#b0b0b0;stroke-linecap:square;stroke-width:0.8;"/>
     </g>
     <g id="line2d_30">
      <g>
       <use style="stroke:#000000;stroke-width:0.8;" x="62.89875" xlink:href="#mcaa428c525" y="188.767671"/>
      </g>
     </g>
     <g id="text_19">
      <!-- 1000 -->
      <g transform="translate(22.81375 193.706655)scale(0.13 -0.13)">
       <use xlink:href="#DejaVuSans-49"/>
       <use x="63.623047" xlink:href="#DejaVuSans-48"/>
       <use x="127.246094" xlink:href="#DejaVuSans-48"/>
       <use x="190.869141" xlink:href="#DejaVuSans-48"/>
      </g>
     </g>
    </g>
    <g id="ytick_12">
     <g id="line2d_31">
      <path clip-path="url(#pc6aebe15df)" d="M 62.89875 159.329556 
L 1178.89875 159.329556 
" style="fill:none;stroke:#b0b0b0;stroke-linecap:square;stroke-width:0.8;"/>
     </g>
     <g id="line2d_32">
      <g>
       <use style="stroke:#000000;stroke-width:0.8;" x="62.89875" xlink:href="#mcaa428c525" y="159.329556"/>
      </g>
     </g>
     <g id="text_20">
      <!-- 1100 -->
      <g transform="translate(22.81375 164.268541)scale(0.13 -0.13)">
       <use xlink:href="#DejaVuSans-49"/>
       <use x="63.623047" xlink:href="#DejaVuSans-49"/>
       <use x="127.246094" xlink:href="#DejaVuSans-48"/>
       <use x="190.869141" xlink:href="#DejaVuSans-48"/>
      </g>
     </g>
    </g>
    <g id="ytick_13">
     <g id="line2d_33">
      <path clip-path="url(#pc6aebe15df)" d="M 62.89875 129.891442 
L 1178.89875 129.891442 
" style="fill:none;stroke:#b0b0b0;stroke-linecap:square;stroke-width:0.8;"/>
     </g>
     <g id="line2d_34">
      <g>
       <use style="stroke:#000000;stroke-width:0.8;" x="62.89875" xlink:href="#mcaa428c525" y="129.891442"/>
      </g>
     </g>
     <g id="text_21">
      <!-- 1200 -->
      <g transform="translate(22.81375 134.830426)scale(0.13 -0.13)">
       <use xlink:href="#DejaVuSans-49"/>
       <use x="63.623047" xlink:href="#DejaVuSans-50"/>
       <use x="127.246094" xlink:href="#DejaVuSans-48"/>
       <use x="190.869141" xlink:href="#DejaVuSans-48"/>
      </g>
     </g>
    </g>
    <g id="ytick_14">
     <g id="line2d_35">
      <path clip-path="url(#pc6aebe15df)" d="M 62.89875 100.453328 
L 1178.89875 100.453328 
" style="fill:none;stroke:#b0b0b0;stroke-linecap:square;stroke-width:0.8;"/>
     </g>
     <g id="line2d_36">
      <g>
       <use style="stroke:#000000;stroke-width:0.8;" x="62.89875" xlink:href="#mcaa428c525" y="100.453328"/>
      </g>
     </g>
     <g id="text_22">
      <!-- 1300 -->
      <g transform="translate(22.81375 105.392312)scale(0.13 -0.13)">
       <use xlink:href="#DejaVuSans-49"/>
       <use x="63.623047" xlink:href="#DejaVuSans-51"/>
       <use x="127.246094" xlink:href="#DejaVuSans-48"/>
       <use x="190.869141" xlink:href="#DejaVuSans-48"/>
      </g>
     </g>
    </g>
    <g id="ytick_15">
     <g id="line2d_37">
      <path clip-path="url(#pc6aebe15df)" d="M 62.89875 71.015213 
L 1178.89875 71.015213 
" style="fill:none;stroke:#b0b0b0;stroke-linecap:square;stroke-width:0.8;"/>
     </g>
     <g id="line2d_38">
      <g>
       <use style="stroke:#000000;stroke-width:0.8;" x="62.89875" xlink:href="#mcaa428c525" y="71.015213"/>
      </g>
     </g>
     <g id="text_23">
      <!-- 1400 -->
      <g transform="translate(22.81375 75.954198)scale(0.13 -0.13)">
       <use xlink:href="#DejaVuSans-49"/>
       <use x="63.623047" xlink:href="#DejaVuSans-52"/>
       <use x="127.246094" xlink:href="#DejaVuSans-48"/>
       <use x="190.869141" xlink:href="#DejaVuSans-48"/>
      </g>
     </g>
    </g>
    <g id="ytick_16">
     <g id="line2d_39">
      <path clip-path="url(#pc6aebe15df)" d="M 62.89875 41.577099 
L 1178.89875 41.577099 
" style="fill:none;stroke:#b0b0b0;stroke-linecap:square;stroke-width:0.8;"/>
     </g>
     <g id="line2d_40">
      <g>
       <use style="stroke:#000000;stroke-width:0.8;" x="62.89875" xlink:href="#mcaa428c525" y="41.577099"/>
      </g>
     </g>
     <g id="text_24">
      <!-- 1500 -->
      <g transform="translate(22.81375 46.516083)scale(0.13 -0.13)">
       <use xlink:href="#DejaVuSans-49"/>
       <use x="63.623047" xlink:href="#DejaVuSans-53"/>
       <use x="127.246094" xlink:href="#DejaVuSans-48"/>
       <use x="190.869141" xlink:href="#DejaVuSans-48"/>
      </g>
     </g>
    </g>
    <g id="ytick_17">
     <g id="line2d_41">
      <path clip-path="url(#pc6aebe15df)" d="M 62.89875 12.138984 
L 1178.89875 12.138984 
" style="fill:none;stroke:#b0b0b0;stroke-linecap:square;stroke-width:0.8;"/>
     </g>
     <g id="line2d_42">
      <g>
       <use style="stroke:#000000;stroke-width:0.8;" x="62.89875" xlink:href="#mcaa428c525" y="12.138984"/>
      </g>
     </g>
     <g id="text_25">
      <!-- 1600 -->
      <g transform="translate(22.81375 17.077969)scale(0.13 -0.13)">
       <use xlink:href="#DejaVuSans-49"/>
       <use x="63.623047" xlink:href="#DejaVuSans-54"/>
       <use x="127.246094" xlink:href="#DejaVuSans-48"/>
       <use x="190.869141" xlink:href="#DejaVuSans-48"/>
      </g>
     </g>
    </g>
    <g id="text_26">
     <!-- Anzahl von Fällen -->
     <defs>
      <path d="M 34.1875 63.1875 
L 20.796875 26.90625 
L 47.609375 26.90625 
z
M 28.609375 72.90625 
L 39.796875 72.90625 
L 67.578125 0 
L 57.328125 0 
L 50.6875 18.703125 
L 17.828125 18.703125 
L 11.1875 0 
L 0.78125 0 
z
" id="DejaVuSans-65"/>
      <path d="M 54.890625 33.015625 
L 54.890625 0 
L 45.90625 0 
L 45.90625 32.71875 
Q 45.90625 40.484375 42.875 44.328125 
Q 39.84375 48.1875 33.796875 48.1875 
Q 26.515625 48.1875 22.3125 43.546875 
Q 18.109375 38.921875 18.109375 30.90625 
L 18.109375 0 
L 9.078125 0 
L 9.078125 54.6875 
L 18.109375 54.6875 
L 18.109375 46.1875 
Q 21.34375 51.125 25.703125 53.5625 
Q 30.078125 56 35.796875 56 
Q 45.21875 56 50.046875 50.171875 
Q 54.890625 44.34375 54.890625 33.015625 
z
" id="DejaVuSans-110"/>
      <path d="M 5.515625 54.6875 
L 48.1875 54.6875 
L 48.1875 46.484375 
L 14.40625 7.171875 
L 48.1875 7.171875 
L 48.1875 0 
L 4.296875 0 
L 4.296875 8.203125 
L 38.09375 47.515625 
L 5.515625 47.515625 
z
" id="DejaVuSans-122"/>
      <path d="M 34.28125 27.484375 
Q 23.390625 27.484375 19.1875 25 
Q 14.984375 22.515625 14.984375 16.5 
Q 14.984375 11.71875 18.140625 8.90625 
Q 21.296875 6.109375 26.703125 6.109375 
Q 34.1875 6.109375 38.703125 11.40625 
Q 43.21875 16.703125 43.21875 25.484375 
L 43.21875 27.484375 
z
M 52.203125 31.203125 
L 52.203125 0 
L 43.21875 0 
L 43.21875 8.296875 
Q 40.140625 3.328125 35.546875 0.953125 
Q 30.953125 -1.421875 24.3125 -1.421875 
Q 15.921875 -1.421875 10.953125 3.296875 
Q 6 8.015625 6 15.921875 
Q 6 25.140625 12.171875 29.828125 
Q 18.359375 34.515625 30.609375 34.515625 
L 43.21875 34.515625 
L 43.21875 35.40625 
Q 43.21875 41.609375 39.140625 45 
Q 35.0625 48.390625 27.6875 48.390625 
Q 23 48.390625 18.546875 47.265625 
Q 14.109375 46.140625 10.015625 43.890625 
L 10.015625 52.203125 
Q 14.9375 54.109375 19.578125 55.046875 
Q 24.21875 56 28.609375 56 
Q 40.484375 56 46.34375 49.84375 
Q 52.203125 43.703125 52.203125 31.203125 
z
" id="DejaVuSans-97"/>
      <path d="M 54.890625 33.015625 
L 54.890625 0 
L 45.90625 0 
L 45.90625 32.71875 
Q 45.90625 40.484375 42.875 44.328125 
Q 39.84375 48.1875 33.796875 48.1875 
Q 26.515625 48.1875 22.3125 43.546875 
Q 18.109375 38.921875 18.109375 30.90625 
L 18.109375 0 
L 9.078125 0 
L 9.078125 75.984375 
L 18.109375 75.984375 
L 18.109375 46.1875 
Q 21.34375 51.125 25.703125 53.5625 
Q 30.078125 56 35.796875 56 
Q 45.21875 56 50.046875 50.171875 
Q 54.890625 44.34375 54.890625 33.015625 
z
" id="DejaVuSans-104"/>
      <path d="M 9.421875 75.984375 
L 18.40625 75.984375 
L 18.40625 0 
L 9.421875 0 
z
" id="DejaVuSans-108"/>
      <path id="DejaVuSans-32"/>
      <path d="M 2.984375 54.6875 
L 12.5 54.6875 
L 29.59375 8.796875 
L 46.6875 54.6875 
L 56.203125 54.6875 
L 35.6875 0 
L 23.484375 0 
z
" id="DejaVuSans-118"/>
      <path d="M 30.609375 48.390625 
Q 23.390625 48.390625 19.1875 42.75 
Q 14.984375 37.109375 14.984375 27.296875 
Q 14.984375 17.484375 19.15625 11.84375 
Q 23.34375 6.203125 30.609375 6.203125 
Q 37.796875 6.203125 41.984375 11.859375 
Q 46.1875 17.53125 46.1875 27.296875 
Q 46.1875 37.015625 41.984375 42.703125 
Q 37.796875 48.390625 30.609375 48.390625 
z
M 30.609375 56 
Q 42.328125 56 49.015625 48.375 
Q 55.71875 40.765625 55.71875 27.296875 
Q 55.71875 13.875 49.015625 6.21875 
Q 42.328125 -1.421875 30.609375 -1.421875 
Q 18.84375 -1.421875 12.171875 6.21875 
Q 5.515625 13.875 5.515625 27.296875 
Q 5.515625 40.765625 12.171875 48.375 
Q 18.84375 56 30.609375 56 
z
" id="DejaVuSans-111"/>
      <path d="M 9.8125 72.90625 
L 51.703125 72.90625 
L 51.703125 64.59375 
L 19.671875 64.59375 
L 19.671875 43.109375 
L 48.578125 43.109375 
L 48.578125 34.8125 
L 19.671875 34.8125 
L 19.671875 0 
L 9.8125 0 
z
" id="DejaVuSans-70"/>
      <path d="M 34.28125 27.484375 
Q 23.390625 27.484375 19.1875 25 
Q 14.984375 22.515625 14.984375 16.5 
Q 14.984375 11.71875 18.140625 8.90625 
Q 21.296875 6.109375 26.703125 6.109375 
Q 34.1875 6.109375 38.703125 11.40625 
Q 43.21875 16.703125 43.21875 25.484375 
L 43.21875 27.484375 
z
M 52.203125 31.203125 
L 52.203125 0 
L 43.21875 0 
L 43.21875 8.296875 
Q 40.140625 3.328125 35.546875 0.953125 
Q 30.953125 -1.421875 24.3125 -1.421875 
Q 15.921875 -1.421875 10.953125 3.296875 
Q 6 8.015625 6 15.921875 
Q 6 25.140625 12.171875 29.828125 
Q 18.359375 34.515625 30.609375 34.515625 
L 43.21875 34.515625 
L 43.21875 35.40625 
Q 43.21875 41.609375 39.140625 45 
Q 35.0625 48.390625 27.6875 48.390625 
Q 23 48.390625 18.546875 47.265625 
Q 14.109375 46.140625 10.015625 43.890625 
L 10.015625 52.203125 
Q 14.9375 54.109375 19.578125 55.046875 
Q 24.21875 56 28.609375 56 
Q 40.484375 56 46.34375 49.84375 
Q 52.203125 43.703125 52.203125 31.203125 
z
M 33.59375 75.78125 
L 43.5 75.78125 
L 43.5 65.921875 
L 33.59375 65.921875 
z
M 14.5 75.78125 
L 24.40625 75.78125 
L 24.40625 65.921875 
L 14.5 65.921875 
z
" id="DejaVuSans-228"/>
      <path d="M 56.203125 29.59375 
L 56.203125 25.203125 
L 14.890625 25.203125 
Q 15.484375 15.921875 20.484375 11.0625 
Q 25.484375 6.203125 34.421875 6.203125 
Q 39.59375 6.203125 44.453125 7.46875 
Q 49.3125 8.734375 54.109375 11.28125 
L 54.109375 2.78125 
Q 49.265625 0.734375 44.1875 -0.34375 
Q 39.109375 -1.421875 33.890625 -1.421875 
Q 20.796875 -1.421875 13.15625 6.1875 
Q 5.515625 13.8125 5.515625 26.8125 
Q 5.515625 40.234375 12.765625 48.109375 
Q 20.015625 56 32.328125 56 
Q 43.359375 56 49.78125 48.890625 
Q 56.203125 41.796875 56.203125 29.59375 
z
M 47.21875 32.234375 
Q 47.125 39.59375 43.09375 43.984375 
Q 39.0625 48.390625 32.421875 48.390625 
Q 24.90625 48.390625 20.390625 44.140625 
Q 15.875 39.890625 15.1875 32.171875 
z
" id="DejaVuSans-101"/>
     </defs>
     <g transform="translate(16.318125 309.388359)rotate(-90)scale(0.12 -0.12)">
      <use xlink:href="#DejaVuSans-65"/>
      <use x="68.408203" xlink:href="#DejaVuSans-110"/>
      <use x="131.787109" xlink:href="#DejaVuSans-122"/>
      <use x="184.277344" xlink:href="#DejaVuSans-97"/>
      <use x="245.556641" xlink:href="#DejaVuSans-104"/>
      <use x="308.935547" xlink:href="#DejaVuSans-108"/>
      <use x="336.71875" xlink:href="#DejaVuSans-32"/>
      <use x="368.505859" xlink:href="#DejaVuSans-118"/>
      <use x="427.685547" xlink:href="#DejaVuSans-111"/>
      <use x="488.867188" xlink:href="#DejaVuSans-110"/>
      <use x="552.246094" xlink:href="#DejaVuSans-32"/>
      <use x="584.033203" xlink:href="#DejaVuSans-70"/>
      <use x="632.427734" xlink:href="#DejaVuSans-228"/>
      <use x="693.707031" xlink:href="#DejaVuSans-108"/>
      <use x="721.490234" xlink:href="#DejaVuSans-108"/>
      <use x="749.273438" xlink:href="#DejaVuSans-101"/>
      <use x="810.796875" xlink:href="#DejaVuSans-110"/>
     </g>
    </g>
   </g>
   <g id="line2d_43">
    <path clip-path="url(#pc6aebe15df)" d="M 113.626023 476.966811 
L 118.075783 476.083668 
L 126.975305 476.083668 
L 131.425066 472.551094 
L 135.874827 469.607282 
L 140.324587 469.607282 
L 144.774348 467.546614 
L 149.224109 460.775848 
L 153.67387 456.360131 
L 158.12363 451.06127 
L 162.573391 445.468029 
L 167.023152 441.935455 
L 171.472913 441.935455 
L 175.922673 440.169168 
L 180.372434 431.337734 
L 184.822195 424.861349 
L 189.271956 421.034394 
L 193.721717 419.562488 
L 202.621238 419.562488 
L 211.52076 410.436672 
L 215.97052 409.553529 
L 220.420281 389.24123 
L 224.870042 389.24123 
L 229.319803 384.531132 
L 238.219324 384.825513 
L 242.669085 382.470464 
L 247.118846 375.699697 
L 251.568606 374.522173 
L 256.018367 372.755886 
L 260.468128 365.690739 
L 269.36765 364.807595 
L 273.81741 364.807595 
L 278.267171 360.98064 
L 282.716932 358.625591 
L 291.616453 358.33121 
L 300.515975 358.33121 
L 304.965736 357.742448 
L 309.415496 355.093017 
L 313.865257 353.032349 
L 318.315018 350.6773 
L 322.764779 350.6773 
L 331.6643 349.205395 
L 336.114061 348.616632 
L 340.563822 346.555964 
L 345.013583 345.37844 
L 349.463343 343.906534 
L 353.913104 343.317772 
L 362.812626 336.252624 
L 367.262386 335.663862 
L 371.712147 332.131288 
L 380.611669 329.187477 
L 393.960951 329.187477 
L 398.410712 278.55392 
L 407.310233 253.531523 
L 411.759994 252.059617 
L 429.559037 250.882092 
L 434.008798 244.700088 
L 438.458559 243.816945 
L 442.908319 239.695609 
L 447.35808 238.223703 
L 460.707362 238.223703 
L 474.056645 237.34056 
L 487.405927 237.34056 
L 496.305449 235.279892 
L 509.654731 235.279892 
L 518.554252 234.985511 
L 523.004013 234.985511 
L 527.453774 234.691129 
L 531.903535 234.691129 
L 540.803056 234.396748 
L 549.702578 234.396748 
L 558.602099 233.807986 
L 563.05186 233.219224 
L 567.501621 232.924843 
L 616.448989 232.924843 
L 620.89875 232.33608 
L 625.348511 232.33608 
L 629.798272 231.747318 
L 647.597315 231.747318 
L 652.047075 230.864175 
L 656.496836 230.569793 
L 660.946597 229.981031 
L 687.645161 229.981031 
L 692.094922 229.68665 
L 723.243248 229.68665 
L 745.492051 228.214744 
L 754.391573 228.214744 
L 767.740855 227.03722 
L 772.190616 227.03722 
L 776.640377 226.448457 
L 781.090138 226.448457 
L 785.539898 226.154076 
L 798.889181 225.565314 
L 803.338941 224.68217 
L 812.238463 224.68217 
L 816.688224 224.093408 
L 830.037506 224.093408 
L 834.487267 223.799027 
L 838.937028 223.210265 
L 847.836549 222.621502 
L 861.185831 222.03274 
L 865.635592 221.443978 
L 870.085353 221.443978 
L 878.984874 220.855216 
L 892.334157 220.560834 
L 896.783917 219.677691 
L 901.233678 219.38331 
L 905.683439 219.38331 
L 910.1332 218.794548 
L 932.382004 217.322642 
L 936.831764 216.73388 
L 954.630807 216.73388 
L 959.080568 216.439498 
L 963.530329 214.673212 
L 985.779133 213.201306 
L 990.228894 209.963113 
L 994.678654 209.963113 
L 1003.578176 209.374351 
L 1016.927458 207.902445 
L 1021.377219 200.542917 
L 1052.525544 181.996905 
L 1056.975305 178.758712 
L 1061.425066 176.992425 
L 1065.874827 175.814901 
L 1079.224109 170.221659 
L 1083.67387 166.100323 
L 1088.12363 164.922798 
L 1092.573391 156.974507 
L 1097.023152 159.329556 
L 1110.372434 129.891442 
L 1128.171477 129.891442 
L 1128.171477 129.891442 
" style="fill:none;stroke:#dbcd00;stroke-linecap:square;stroke-width:2;"/>
    <defs>
     <path d="M 0 1.5 
C 0.397805 1.5 0.77937 1.341951 1.06066 1.06066 
C 1.341951 0.77937 1.5 0.397805 1.5 0 
C 1.5 -0.397805 1.341951 -0.77937 1.06066 -1.06066 
C 0.77937 -1.341951 0.397805 -1.5 0 -1.5 
C -0.397805 -1.5 -0.77937 -1.341951 -1.06066 -1.06066 
C -1.341951 -0.77937 -1.5 -0.397805 -1.5 0 
C -1.5 0.397805 -1.341951 0.77937 -1.06066 1.06066 
C -0.77937 1.341951 -0.397805 1.5 0 1.5 
z
" id="m7d3c12ad5a" style="stroke:#dbcd00;"/>
    </defs>
    <g clip-path="url(#pc6aebe15df)">
     <use style="fill:#dbcd00;stroke:#dbcd00;" x="113.626023" xlink:href="#m7d3c12ad5a" y="476.966811"/>
     <use style="fill:#dbcd00;stroke:#dbcd00;" x="118.075783" xlink:href="#m7d3c12ad5a" y="476.083668"/>
     <use style="fill:#dbcd00;stroke:#dbcd00;" x="122.525544" xlink:href="#m7d3c12ad5a" y="476.083668"/>
     <use style="fill:#dbcd00;stroke:#dbcd00;" x="126.975305" xlink:href="#m7d3c12ad5a" y="476.083668"/>
     <use style="fill:#dbcd00;stroke:#dbcd00;" x="131.425066" xlink:href="#m7d3c12ad5a" y="472.551094"/>
     <use style="fill:#dbcd00;stroke:#dbcd00;" x="135.874827" xlink:href="#m7d3c12ad5a" y="469.607282"/>
     <use style="fill:#dbcd00;stroke:#dbcd00;" x="140.324587" xlink:href="#m7d3c12ad5a" y="469.607282"/>
     <use style="fill:#dbcd00;stroke:#dbcd00;" x="144.774348" xlink:href="#m7d3c12ad5a" y="467.546614"/>
     <use style="fill:#dbcd00;stroke:#dbcd00;" x="149.224109" xlink:href="#m7d3c12ad5a" y="460.775848"/>
     <use style="fill:#dbcd00;stroke:#dbcd00;" x="153.67387" xlink:href="#m7d3c12ad5a" y="456.360131"/>
     <use style="fill:#dbcd00;stroke:#dbcd00;" x="158.12363" xlink:href="#m7d3c12ad5a" y="451.06127"/>
     <use style="fill:#dbcd00;stroke:#dbcd00;" x="162.573391" xlink:href="#m7d3c12ad5a" y="445.468029"/>
     <use style="fill:#dbcd00;stroke:#dbcd00;" x="167.023152" xlink:href="#m7d3c12ad5a" y="441.935455"/>
     <use style="fill:#dbcd00;stroke:#dbcd00;" x="171.472913" xlink:href="#m7d3c12ad5a" y="441.935455"/>
     <use style="fill:#dbcd00;stroke:#dbcd00;" x="175.922673" xlink:href="#m7d3c12ad5a" y="440.169168"/>
     <use style="fill:#dbcd00;stroke:#dbcd00;" x="180.372434" xlink:href="#m7d3c12ad5a" y="431.337734"/>
     <use style="fill:#dbcd00;stroke:#dbcd00;" x="184.822195" xlink:href="#m7d3c12ad5a" y="424.861349"/>
     <use style="fill:#dbcd00;stroke:#dbcd00;" x="189.271956" xlink:href="#m7d3c12ad5a" y="421.034394"/>
     <use style="fill:#dbcd00;stroke:#dbcd00;" x="193.721717" xlink:href="#m7d3c12ad5a" y="419.562488"/>
     <use style="fill:#dbcd00;stroke:#dbcd00;" x="202.621238" xlink:href="#m7d3c12ad5a" y="419.562488"/>
     <use style="fill:#dbcd00;stroke:#dbcd00;" x="211.52076" xlink:href="#m7d3c12ad5a" y="410.436672"/>
     <use style="fill:#dbcd00;stroke:#dbcd00;" x="215.97052" xlink:href="#m7d3c12ad5a" y="409.553529"/>
     <use style="fill:#dbcd00;stroke:#dbcd00;" x="220.420281" xlink:href="#m7d3c12ad5a" y="389.24123"/>
     <use style="fill:#dbcd00;stroke:#dbcd00;" x="224.870042" xlink:href="#m7d3c12ad5a" y="389.24123"/>
     <use style="fill:#dbcd00;stroke:#dbcd00;" x="229.319803" xlink:href="#m7d3c12ad5a" y="384.531132"/>
     <use style="fill:#dbcd00;stroke:#dbcd00;" x="238.219324" xlink:href="#m7d3c12ad5a" y="384.825513"/>
     <use style="fill:#dbcd00;stroke:#dbcd00;" x="242.669085" xlink:href="#m7d3c12ad5a" y="382.470464"/>
     <use style="fill:#dbcd00;stroke:#dbcd00;" x="247.118846" xlink:href="#m7d3c12ad5a" y="375.699697"/>
     <use style="fill:#dbcd00;stroke:#dbcd00;" x="251.568606" xlink:href="#m7d3c12ad5a" y="374.522173"/>
     <use style="fill:#dbcd00;stroke:#dbcd00;" x="256.018367" xlink:href="#m7d3c12ad5a" y="372.755886"/>
     <use style="fill:#dbcd00;stroke:#dbcd00;" x="260.468128" xlink:href="#m7d3c12ad5a" y="365.690739"/>
     <use style="fill:#dbcd00;stroke:#dbcd00;" x="269.36765" xlink:href="#m7d3c12ad5a" y="364.807595"/>
     <use style="fill:#dbcd00;stroke:#dbcd00;" x="273.81741" xlink:href="#m7d3c12ad5a" y="364.807595"/>
     <use style="fill:#dbcd00;stroke:#dbcd00;" x="278.267171" xlink:href="#m7d3c12ad5a" y="360.98064"/>
     <use style="fill:#dbcd00;stroke:#dbcd00;" x="282.716932" xlink:href="#m7d3c12ad5a" y="358.625591"/>
     <use style="fill:#dbcd00;stroke:#dbcd00;" x="291.616453" xlink:href="#m7d3c12ad5a" y="358.33121"/>
     <use style="fill:#dbcd00;stroke:#dbcd00;" x="300.515975" xlink:href="#m7d3c12ad5a" y="358.33121"/>
     <use style="fill:#dbcd00;stroke:#dbcd00;" x="304.965736" xlink:href="#m7d3c12ad5a" y="357.742448"/>
     <use style="fill:#dbcd00;stroke:#dbcd00;" x="309.415496" xlink:href="#m7d3c12ad5a" y="355.093017"/>
     <use style="fill:#dbcd00;stroke:#dbcd00;" x="313.865257" xlink:href="#m7d3c12ad5a" y="353.032349"/>
     <use style="fill:#dbcd00;stroke:#dbcd00;" x="318.315018" xlink:href="#m7d3c12ad5a" y="350.6773"/>
     <use style="fill:#dbcd00;stroke:#dbcd00;" x="322.764779" xlink:href="#m7d3c12ad5a" y="350.6773"/>
     <use style="fill:#dbcd00;stroke:#dbcd00;" x="331.6643" xlink:href="#m7d3c12ad5a" y="349.205395"/>
     <use style="fill:#dbcd00;stroke:#dbcd00;" x="336.114061" xlink:href="#m7d3c12ad5a" y="348.616632"/>
     <use style="fill:#dbcd00;stroke:#dbcd00;" x="340.563822" xlink:href="#m7d3c12ad5a" y="346.555964"/>
     <use style="fill:#dbcd00;stroke:#dbcd00;" x="345.013583" xlink:href="#m7d3c12ad5a" y="345.37844"/>
     <use style="fill:#dbcd00;stroke:#dbcd00;" x="349.463343" xlink:href="#m7d3c12ad5a" y="343.906534"/>
     <use style="fill:#dbcd00;stroke:#dbcd00;" x="353.913104" xlink:href="#m7d3c12ad5a" y="343.317772"/>
     <use style="fill:#dbcd00;stroke:#dbcd00;" x="362.812626" xlink:href="#m7d3c12ad5a" y="336.252624"/>
     <use style="fill:#dbcd00;stroke:#dbcd00;" x="367.262386" xlink:href="#m7d3c12ad5a" y="335.663862"/>
     <use style="fill:#dbcd00;stroke:#dbcd00;" x="371.712147" xlink:href="#m7d3c12ad5a" y="332.131288"/>
     <use style="fill:#dbcd00;stroke:#dbcd00;" x="380.611669" xlink:href="#m7d3c12ad5a" y="329.187477"/>
     <use style="fill:#dbcd00;stroke:#dbcd00;" x="385.061429" xlink:href="#m7d3c12ad5a" y="329.187477"/>
     <use style="fill:#dbcd00;stroke:#dbcd00;" x="393.960951" xlink:href="#m7d3c12ad5a" y="329.187477"/>
     <use style="fill:#dbcd00;stroke:#dbcd00;" x="398.410712" xlink:href="#m7d3c12ad5a" y="278.55392"/>
     <use style="fill:#dbcd00;stroke:#dbcd00;" x="407.310233" xlink:href="#m7d3c12ad5a" y="253.531523"/>
     <use style="fill:#dbcd00;stroke:#dbcd00;" x="411.759994" xlink:href="#m7d3c12ad5a" y="252.059617"/>
     <use style="fill:#dbcd00;stroke:#dbcd00;" x="429.559037" xlink:href="#m7d3c12ad5a" y="250.882092"/>
     <use style="fill:#dbcd00;stroke:#dbcd00;" x="434.008798" xlink:href="#m7d3c12ad5a" y="244.700088"/>
     <use style="fill:#dbcd00;stroke:#dbcd00;" x="438.458559" xlink:href="#m7d3c12ad5a" y="243.816945"/>
     <use style="fill:#dbcd00;stroke:#dbcd00;" x="442.908319" xlink:href="#m7d3c12ad5a" y="239.695609"/>
     <use style="fill:#dbcd00;stroke:#dbcd00;" x="447.35808" xlink:href="#m7d3c12ad5a" y="238.223703"/>
     <use style="fill:#dbcd00;stroke:#dbcd00;" x="456.257602" xlink:href="#m7d3c12ad5a" y="238.223703"/>
     <use style="fill:#dbcd00;stroke:#dbcd00;" x="460.707362" xlink:href="#m7d3c12ad5a" y="238.223703"/>
     <use style="fill:#dbcd00;stroke:#dbcd00;" x="465.157123" xlink:href="#m7d3c12ad5a" y="237.929322"/>
     <use style="fill:#dbcd00;stroke:#dbcd00;" x="474.056645" xlink:href="#m7d3c12ad5a" y="237.34056"/>
     <use style="fill:#dbcd00;stroke:#dbcd00;" x="478.506406" xlink:href="#m7d3c12ad5a" y="237.34056"/>
     <use style="fill:#dbcd00;stroke:#dbcd00;" x="487.405927" xlink:href="#m7d3c12ad5a" y="237.34056"/>
     <use style="fill:#dbcd00;stroke:#dbcd00;" x="496.305449" xlink:href="#m7d3c12ad5a" y="235.279892"/>
     <use style="fill:#dbcd00;stroke:#dbcd00;" x="505.20497" xlink:href="#m7d3c12ad5a" y="235.279892"/>
     <use style="fill:#dbcd00;stroke:#dbcd00;" x="509.654731" xlink:href="#m7d3c12ad5a" y="235.279892"/>
     <use style="fill:#dbcd00;stroke:#dbcd00;" x="518.554252" xlink:href="#m7d3c12ad5a" y="234.985511"/>
     <use style="fill:#dbcd00;stroke:#dbcd00;" x="523.004013" xlink:href="#m7d3c12ad5a" y="234.985511"/>
     <use style="fill:#dbcd00;stroke:#dbcd00;" x="527.453774" xlink:href="#m7d3c12ad5a" y="234.691129"/>
     <use style="fill:#dbcd00;stroke:#dbcd00;" x="531.903535" xlink:href="#m7d3c12ad5a" y="234.691129"/>
     <use style="fill:#dbcd00;stroke:#dbcd00;" x="540.803056" xlink:href="#m7d3c12ad5a" y="234.396748"/>
     <use style="fill:#dbcd00;stroke:#dbcd00;" x="549.702578" xlink:href="#m7d3c12ad5a" y="234.396748"/>
     <use style="fill:#dbcd00;stroke:#dbcd00;" x="554.152339" xlink:href="#m7d3c12ad5a" y="234.102367"/>
     <use style="fill:#dbcd00;stroke:#dbcd00;" x="558.602099" xlink:href="#m7d3c12ad5a" y="233.807986"/>
     <use style="fill:#dbcd00;stroke:#dbcd00;" x="563.05186" xlink:href="#m7d3c12ad5a" y="233.219224"/>
     <use style="fill:#dbcd00;stroke:#dbcd00;" x="567.501621" xlink:href="#m7d3c12ad5a" y="232.924843"/>
     <use style="fill:#dbcd00;stroke:#dbcd00;" x="571.951382" xlink:href="#m7d3c12ad5a" y="232.924843"/>
     <use style="fill:#dbcd00;stroke:#dbcd00;" x="585.300664" xlink:href="#m7d3c12ad5a" y="232.924843"/>
     <use style="fill:#dbcd00;stroke:#dbcd00;" x="589.750425" xlink:href="#m7d3c12ad5a" y="232.924843"/>
     <use style="fill:#dbcd00;stroke:#dbcd00;" x="594.200185" xlink:href="#m7d3c12ad5a" y="232.924843"/>
     <use style="fill:#dbcd00;stroke:#dbcd00;" x="598.649946" xlink:href="#m7d3c12ad5a" y="232.924843"/>
     <use style="fill:#dbcd00;stroke:#dbcd00;" x="611.999228" xlink:href="#m7d3c12ad5a" y="232.924843"/>
     <use style="fill:#dbcd00;stroke:#dbcd00;" x="616.448989" xlink:href="#m7d3c12ad5a" y="232.924843"/>
     <use style="fill:#dbcd00;stroke:#dbcd00;" x="620.89875" xlink:href="#m7d3c12ad5a" y="232.33608"/>
     <use style="fill:#dbcd00;stroke:#dbcd00;" x="625.348511" xlink:href="#m7d3c12ad5a" y="232.33608"/>
     <use style="fill:#dbcd00;stroke:#dbcd00;" x="629.798272" xlink:href="#m7d3c12ad5a" y="231.747318"/>
     <use style="fill:#dbcd00;stroke:#dbcd00;" x="643.147554" xlink:href="#m7d3c12ad5a" y="231.747318"/>
     <use style="fill:#dbcd00;stroke:#dbcd00;" x="647.597315" xlink:href="#m7d3c12ad5a" y="231.747318"/>
     <use style="fill:#dbcd00;stroke:#dbcd00;" x="652.047075" xlink:href="#m7d3c12ad5a" y="230.864175"/>
     <use style="fill:#dbcd00;stroke:#dbcd00;" x="656.496836" xlink:href="#m7d3c12ad5a" y="230.569793"/>
     <use style="fill:#dbcd00;stroke:#dbcd00;" x="660.946597" xlink:href="#m7d3c12ad5a" y="229.981031"/>
     <use style="fill:#dbcd00;stroke:#dbcd00;" x="674.295879" xlink:href="#m7d3c12ad5a" y="229.981031"/>
     <use style="fill:#dbcd00;stroke:#dbcd00;" x="678.74564" xlink:href="#m7d3c12ad5a" y="229.981031"/>
     <use style="fill:#dbcd00;stroke:#dbcd00;" x="683.195401" xlink:href="#m7d3c12ad5a" y="229.981031"/>
     <use style="fill:#dbcd00;stroke:#dbcd00;" x="687.645161" xlink:href="#m7d3c12ad5a" y="229.981031"/>
     <use style="fill:#dbcd00;stroke:#dbcd00;" x="692.094922" xlink:href="#m7d3c12ad5a" y="229.68665"/>
     <use style="fill:#dbcd00;stroke:#dbcd00;" x="705.444205" xlink:href="#m7d3c12ad5a" y="229.68665"/>
     <use style="fill:#dbcd00;stroke:#dbcd00;" x="709.893965" xlink:href="#m7d3c12ad5a" y="229.68665"/>
     <use style="fill:#dbcd00;stroke:#dbcd00;" x="714.343726" xlink:href="#m7d3c12ad5a" y="229.68665"/>
     <use style="fill:#dbcd00;stroke:#dbcd00;" x="718.793487" xlink:href="#m7d3c12ad5a" y="229.68665"/>
     <use style="fill:#dbcd00;stroke:#dbcd00;" x="723.243248" xlink:href="#m7d3c12ad5a" y="229.68665"/>
     <use style="fill:#dbcd00;stroke:#dbcd00;" x="736.59253" xlink:href="#m7d3c12ad5a" y="228.803507"/>
     <use style="fill:#dbcd00;stroke:#dbcd00;" x="741.042291" xlink:href="#m7d3c12ad5a" y="228.509125"/>
     <use style="fill:#dbcd00;stroke:#dbcd00;" x="745.492051" xlink:href="#m7d3c12ad5a" y="228.214744"/>
     <use style="fill:#dbcd00;stroke:#dbcd00;" x="749.941812" xlink:href="#m7d3c12ad5a" y="228.214744"/>
     <use style="fill:#dbcd00;stroke:#dbcd00;" x="754.391573" xlink:href="#m7d3c12ad5a" y="228.214744"/>
     <use style="fill:#dbcd00;stroke:#dbcd00;" x="767.740855" xlink:href="#m7d3c12ad5a" y="227.03722"/>
     <use style="fill:#dbcd00;stroke:#dbcd00;" x="772.190616" xlink:href="#m7d3c12ad5a" y="227.03722"/>
     <use style="fill:#dbcd00;stroke:#dbcd00;" x="776.640377" xlink:href="#m7d3c12ad5a" y="226.448457"/>
     <use style="fill:#dbcd00;stroke:#dbcd00;" x="781.090138" xlink:href="#m7d3c12ad5a" y="226.448457"/>
     <use style="fill:#dbcd00;stroke:#dbcd00;" x="785.539898" xlink:href="#m7d3c12ad5a" y="226.154076"/>
     <use style="fill:#dbcd00;stroke:#dbcd00;" x="798.889181" xlink:href="#m7d3c12ad5a" y="225.565314"/>
     <use style="fill:#dbcd00;stroke:#dbcd00;" x="803.338941" xlink:href="#m7d3c12ad5a" y="224.68217"/>
     <use style="fill:#dbcd00;stroke:#dbcd00;" x="807.788702" xlink:href="#m7d3c12ad5a" y="224.68217"/>
     <use style="fill:#dbcd00;stroke:#dbcd00;" x="812.238463" xlink:href="#m7d3c12ad5a" y="224.68217"/>
     <use style="fill:#dbcd00;stroke:#dbcd00;" x="816.688224" xlink:href="#m7d3c12ad5a" y="224.093408"/>
     <use style="fill:#dbcd00;stroke:#dbcd00;" x="830.037506" xlink:href="#m7d3c12ad5a" y="224.093408"/>
     <use style="fill:#dbcd00;stroke:#dbcd00;" x="834.487267" xlink:href="#m7d3c12ad5a" y="223.799027"/>
     <use style="fill:#dbcd00;stroke:#dbcd00;" x="838.937028" xlink:href="#m7d3c12ad5a" y="223.210265"/>
     <use style="fill:#dbcd00;stroke:#dbcd00;" x="843.386788" xlink:href="#m7d3c12ad5a" y="222.915884"/>
     <use style="fill:#dbcd00;stroke:#dbcd00;" x="847.836549" xlink:href="#m7d3c12ad5a" y="222.621502"/>
     <use style="fill:#dbcd00;stroke:#dbcd00;" x="861.185831" xlink:href="#m7d3c12ad5a" y="222.03274"/>
     <use style="fill:#dbcd00;stroke:#dbcd00;" x="865.635592" xlink:href="#m7d3c12ad5a" y="221.443978"/>
     <use style="fill:#dbcd00;stroke:#dbcd00;" x="870.085353" xlink:href="#m7d3c12ad5a" y="221.443978"/>
     <use style="fill:#dbcd00;stroke:#dbcd00;" x="874.535114" xlink:href="#m7d3c12ad5a" y="221.149597"/>
     <use style="fill:#dbcd00;stroke:#dbcd00;" x="878.984874" xlink:href="#m7d3c12ad5a" y="220.855216"/>
     <use style="fill:#dbcd00;stroke:#dbcd00;" x="892.334157" xlink:href="#m7d3c12ad5a" y="220.560834"/>
     <use style="fill:#dbcd00;stroke:#dbcd00;" x="896.783917" xlink:href="#m7d3c12ad5a" y="219.677691"/>
     <use style="fill:#dbcd00;stroke:#dbcd00;" x="901.233678" xlink:href="#m7d3c12ad5a" y="219.38331"/>
     <use style="fill:#dbcd00;stroke:#dbcd00;" x="905.683439" xlink:href="#m7d3c12ad5a" y="219.38331"/>
     <use style="fill:#dbcd00;stroke:#dbcd00;" x="910.1332" xlink:href="#m7d3c12ad5a" y="218.794548"/>
     <use style="fill:#dbcd00;stroke:#dbcd00;" x="923.482482" xlink:href="#m7d3c12ad5a" y="217.911404"/>
     <use style="fill:#dbcd00;stroke:#dbcd00;" x="927.932243" xlink:href="#m7d3c12ad5a" y="217.617023"/>
     <use style="fill:#dbcd00;stroke:#dbcd00;" x="932.382004" xlink:href="#m7d3c12ad5a" y="217.322642"/>
     <use style="fill:#dbcd00;stroke:#dbcd00;" x="936.831764" xlink:href="#m7d3c12ad5a" y="216.73388"/>
     <use style="fill:#dbcd00;stroke:#dbcd00;" x="941.281525" xlink:href="#m7d3c12ad5a" y="216.73388"/>
     <use style="fill:#dbcd00;stroke:#dbcd00;" x="954.630807" xlink:href="#m7d3c12ad5a" y="216.73388"/>
     <use style="fill:#dbcd00;stroke:#dbcd00;" x="959.080568" xlink:href="#m7d3c12ad5a" y="216.439498"/>
     <use style="fill:#dbcd00;stroke:#dbcd00;" x="963.530329" xlink:href="#m7d3c12ad5a" y="214.673212"/>
     <use style="fill:#dbcd00;stroke:#dbcd00;" x="967.98009" xlink:href="#m7d3c12ad5a" y="214.37883"/>
     <use style="fill:#dbcd00;stroke:#dbcd00;" x="972.42985" xlink:href="#m7d3c12ad5a" y="214.084449"/>
     <use style="fill:#dbcd00;stroke:#dbcd00;" x="985.779133" xlink:href="#m7d3c12ad5a" y="213.201306"/>
     <use style="fill:#dbcd00;stroke:#dbcd00;" x="990.228894" xlink:href="#m7d3c12ad5a" y="209.963113"/>
     <use style="fill:#dbcd00;stroke:#dbcd00;" x="994.678654" xlink:href="#m7d3c12ad5a" y="209.963113"/>
     <use style="fill:#dbcd00;stroke:#dbcd00;" x="999.128415" xlink:href="#m7d3c12ad5a" y="209.668732"/>
     <use style="fill:#dbcd00;stroke:#dbcd00;" x="1003.578176" xlink:href="#m7d3c12ad5a" y="209.374351"/>
     <use style="fill:#dbcd00;stroke:#dbcd00;" x="1016.927458" xlink:href="#m7d3c12ad5a" y="207.902445"/>
     <use style="fill:#dbcd00;stroke:#dbcd00;" x="1021.377219" xlink:href="#m7d3c12ad5a" y="200.542917"/>
     <use style="fill:#dbcd00;stroke:#dbcd00;" x="1052.525544" xlink:href="#m7d3c12ad5a" y="181.996905"/>
     <use style="fill:#dbcd00;stroke:#dbcd00;" x="1056.975305" xlink:href="#m7d3c12ad5a" y="178.758712"/>
     <use style="fill:#dbcd00;stroke:#dbcd00;" x="1061.425066" xlink:href="#m7d3c12ad5a" y="176.992425"/>
     <use style="fill:#dbcd00;stroke:#dbcd00;" x="1065.874827" xlink:href="#m7d3c12ad5a" y="175.814901"/>
     <use style="fill:#dbcd00;stroke:#dbcd00;" x="1079.224109" xlink:href="#m7d3c12ad5a" y="170.221659"/>
     <use style="fill:#dbcd00;stroke:#dbcd00;" x="1083.67387" xlink:href="#m7d3c12ad5a" y="166.100323"/>
     <use style="fill:#dbcd00;stroke:#dbcd00;" x="1088.12363" xlink:href="#m7d3c12ad5a" y="164.922798"/>
     <use style="fill:#dbcd00;stroke:#dbcd00;" x="1092.573391" xlink:href="#m7d3c12ad5a" y="156.974507"/>
     <use style="fill:#dbcd00;stroke:#dbcd00;" x="1097.023152" xlink:href="#m7d3c12ad5a" y="159.329556"/>
     <use style="fill:#dbcd00;stroke:#dbcd00;" x="1110.372434" xlink:href="#m7d3c12ad5a" y="129.891442"/>
     <use style="fill:#dbcd00;stroke:#dbcd00;" x="1114.822195" xlink:href="#m7d3c12ad5a" y="129.891442"/>
     <use style="fill:#dbcd00;stroke:#dbcd00;" x="1119.271956" xlink:href="#m7d3c12ad5a" y="129.891442"/>
     <use style="fill:#dbcd00;stroke:#dbcd00;" x="1123.721717" xlink:href="#m7d3c12ad5a" y="129.891442"/>
     <use style="fill:#dbcd00;stroke:#dbcd00;" x="1128.171477" xlink:href="#m7d3c12ad5a" y="129.891442"/>
    </g>
   </g>
   <g id="line2d_44">
    <path clip-path="url(#pc6aebe15df)" d="M 113.626023 440.463549 
L 118.075783 436.636594 
L 126.975305 421.917537 
L 135.874827 410.731054 
L 140.324587 407.787242 
L 144.774348 408.376004 
L 149.224109 408.081623 
L 153.67387 406.020955 
L 158.12363 407.19848 
L 162.573391 411.908578 
L 167.023152 409.84791 
L 171.472913 408.376004 
L 175.922673 407.492861 
L 180.372434 414.85239 
L 184.822195 417.207439 
L 189.271956 419.268107 
L 193.721717 417.207439 
L 202.621238 416.324295 
L 211.52076 424.566967 
L 215.97052 424.566967 
L 220.420281 444.290504 
L 224.870042 441.641074 
L 229.319803 445.468029 
L 238.219324 446.645553 
L 242.669085 448.41184 
L 247.118846 455.476988 
L 251.568606 456.06575 
L 256.018367 456.948893 
L 260.468128 462.542135 
L 269.36765 463.425278 
L 273.81741 461.070229 
L 278.267171 464.014041 
L 282.716932 465.780328 
L 291.616453 462.247754 
L 300.515975 455.476988 
L 304.965736 454.299463 
L 309.415496 446.645553 
L 313.865257 447.234316 
L 318.315018 436.636594 
L 322.764779 420.740013 
L 331.6643 402.488382 
L 336.114061 395.128853 
L 340.563822 390.124374 
L 345.013583 387.180562 
L 349.463343 390.418755 
L 353.913104 389.535611 
L 362.812626 393.656947 
L 367.262386 394.834472 
L 371.712147 394.834472 
L 380.611669 395.128853 
L 385.061429 392.479423 
L 393.960951 391.596279 
L 398.410712 442.229836 
L 407.310233 466.663471 
L 411.759994 468.135377 
L 429.559037 469.01852 
L 434.008798 475.200524 
L 438.458559 476.083668 
L 442.908319 480.205004 
L 447.35808 481.676909 
L 456.257602 481.676909 
L 460.707362 481.088147 
L 465.157123 481.382528 
L 474.056645 481.088147 
L 478.506406 480.793766 
L 487.405927 480.793766 
L 496.305449 482.265672 
L 505.20497 481.971291 
L 509.654731 481.676909 
L 518.554252 481.971291 
L 523.004013 481.971291 
L 527.453774 482.265672 
L 531.903535 482.265672 
L 540.803056 482.560053 
L 549.702578 482.560053 
L 554.152339 482.854434 
L 558.602099 482.854434 
L 563.05186 483.737577 
L 567.501621 483.443196 
L 571.951382 482.560053 
L 585.300664 481.971291 
L 594.200185 481.971291 
L 598.649946 481.382528 
L 616.448989 481.382528 
L 620.89875 481.971291 
L 625.348511 481.971291 
L 629.798272 482.560053 
L 647.597315 482.265672 
L 652.047075 483.148815 
L 656.496836 483.443196 
L 660.946597 484.031959 
L 674.295879 483.737577 
L 683.195401 483.148815 
L 687.645161 482.265672 
L 692.094922 481.971291 
L 709.893965 481.971291 
L 714.343726 481.676909 
L 723.243248 481.676909 
L 736.59253 482.265672 
L 741.042291 481.382528 
L 749.941812 481.382528 
L 754.391573 480.499385 
L 767.740855 481.382528 
L 772.190616 481.088147 
L 776.640377 481.676909 
L 781.090138 481.382528 
L 785.539898 481.676909 
L 803.338941 481.676909 
L 807.788702 481.382528 
L 812.238463 481.382528 
L 816.688224 481.676909 
L 830.037506 481.088147 
L 847.836549 482.265672 
L 861.185831 481.676909 
L 865.635592 482.265672 
L 870.085353 480.499385 
L 878.984874 481.088147 
L 892.334157 480.793766 
L 896.783917 480.205004 
L 905.683439 480.205004 
L 910.1332 480.499385 
L 923.482482 480.499385 
L 927.932243 480.205004 
L 932.382004 478.733098 
L 936.831764 479.027479 
L 941.281525 479.027479 
L 959.080568 476.67243 
L 963.530329 478.438717 
L 967.98009 476.67243 
L 972.42985 472.256713 
L 985.779133 470.490426 
L 990.228894 468.135377 
L 994.678654 465.485946 
L 999.128415 463.425278 
L 1003.578176 457.832037 
L 1016.927458 457.243274 
L 1021.377219 459.009561 
L 1052.525544 455.771369 
L 1056.975305 457.243274 
L 1061.425066 449.000602 
L 1065.874827 439.580406 
L 1079.224109 439.580406 
L 1083.67387 432.220877 
L 1088.12363 430.160209 
L 1092.573391 432.809639 
L 1097.023152 413.086103 
L 1110.372434 433.692783 
L 1114.822195 413.086103 
L 1119.271956 404.254668 
L 1123.721717 394.834472 
L 1128.171477 385.119894 
L 1128.171477 385.119894 
" style="fill:none;stroke:#2792cb;stroke-linecap:square;stroke-width:2;"/>
    <defs>
     <path d="M 0 1.5 
C 0.397805 1.5 0.77937 1.341951 1.06066 1.06066 
C 1.341951 0.77937 1.5 0.397805 1.5 0 
C 1.5 -0.397805 1.341951 -0.77937 1.06066 -1.06066 
C 0.77937 -1.341951 0.397805 -1.5 0 -1.5 
C -0.397805 -1.5 -0.77937 -1.341951 -1.06066 -1.06066 
C -1.341951 -0.77937 -1.5 -0.397805 -1.5 0 
C -1.5 0.397805 -1.341951 0.77937 -1.06066 1.06066 
C -0.77937 1.341951 -0.397805 1.5 0 1.5 
z
" id="m609c818174" style="stroke:#2792cb;"/>
    </defs>
    <g clip-path="url(#pc6aebe15df)">
     <use style="fill:#2792cb;stroke:#2792cb;" x="113.626023" xlink:href="#m609c818174" y="440.463549"/>
     <use style="fill:#2792cb;stroke:#2792cb;" x="118.075783" xlink:href="#m609c818174" y="436.636594"/>
     <use style="fill:#2792cb;stroke:#2792cb;" x="122.525544" xlink:href="#m609c818174" y="429.277066"/>
     <use style="fill:#2792cb;stroke:#2792cb;" x="126.975305" xlink:href="#m609c818174" y="421.917537"/>
     <use style="fill:#2792cb;stroke:#2792cb;" x="131.425066" xlink:href="#m609c818174" y="416.324295"/>
     <use style="fill:#2792cb;stroke:#2792cb;" x="135.874827" xlink:href="#m609c818174" y="410.731054"/>
     <use style="fill:#2792cb;stroke:#2792cb;" x="140.324587" xlink:href="#m609c818174" y="407.787242"/>
     <use style="fill:#2792cb;stroke:#2792cb;" x="144.774348" xlink:href="#m609c818174" y="408.376004"/>
     <use style="fill:#2792cb;stroke:#2792cb;" x="149.224109" xlink:href="#m609c818174" y="408.081623"/>
     <use style="fill:#2792cb;stroke:#2792cb;" x="153.67387" xlink:href="#m609c818174" y="406.020955"/>
     <use style="fill:#2792cb;stroke:#2792cb;" x="158.12363" xlink:href="#m609c818174" y="407.19848"/>
     <use style="fill:#2792cb;stroke:#2792cb;" x="162.573391" xlink:href="#m609c818174" y="411.908578"/>
     <use style="fill:#2792cb;stroke:#2792cb;" x="167.023152" xlink:href="#m609c818174" y="409.84791"/>
     <use style="fill:#2792cb;stroke:#2792cb;" x="171.472913" xlink:href="#m609c818174" y="408.376004"/>
     <use style="fill:#2792cb;stroke:#2792cb;" x="175.922673" xlink:href="#m609c818174" y="407.492861"/>
     <use style="fill:#2792cb;stroke:#2792cb;" x="180.372434" xlink:href="#m609c818174" y="414.85239"/>
     <use style="fill:#2792cb;stroke:#2792cb;" x="184.822195" xlink:href="#m609c818174" y="417.207439"/>
     <use style="fill:#2792cb;stroke:#2792cb;" x="189.271956" xlink:href="#m609c818174" y="419.268107"/>
     <use style="fill:#2792cb;stroke:#2792cb;" x="193.721717" xlink:href="#m609c818174" y="417.207439"/>
     <use style="fill:#2792cb;stroke:#2792cb;" x="202.621238" xlink:href="#m609c818174" y="416.324295"/>
     <use style="fill:#2792cb;stroke:#2792cb;" x="211.52076" xlink:href="#m609c818174" y="424.566967"/>
     <use style="fill:#2792cb;stroke:#2792cb;" x="215.97052" xlink:href="#m609c818174" y="424.566967"/>
     <use style="fill:#2792cb;stroke:#2792cb;" x="220.420281" xlink:href="#m609c818174" y="444.290504"/>
     <use style="fill:#2792cb;stroke:#2792cb;" x="224.870042" xlink:href="#m609c818174" y="441.641074"/>
     <use style="fill:#2792cb;stroke:#2792cb;" x="229.319803" xlink:href="#m609c818174" y="445.468029"/>
     <use style="fill:#2792cb;stroke:#2792cb;" x="238.219324" xlink:href="#m609c818174" y="446.645553"/>
     <use style="fill:#2792cb;stroke:#2792cb;" x="242.669085" xlink:href="#m609c818174" y="448.41184"/>
     <use style="fill:#2792cb;stroke:#2792cb;" x="247.118846" xlink:href="#m609c818174" y="455.476988"/>
     <use style="fill:#2792cb;stroke:#2792cb;" x="251.568606" xlink:href="#m609c818174" y="456.06575"/>
     <use style="fill:#2792cb;stroke:#2792cb;" x="256.018367" xlink:href="#m609c818174" y="456.948893"/>
     <use style="fill:#2792cb;stroke:#2792cb;" x="260.468128" xlink:href="#m609c818174" y="462.542135"/>
     <use style="fill:#2792cb;stroke:#2792cb;" x="269.36765" xlink:href="#m609c818174" y="463.425278"/>
     <use style="fill:#2792cb;stroke:#2792cb;" x="273.81741" xlink:href="#m609c818174" y="461.070229"/>
     <use style="fill:#2792cb;stroke:#2792cb;" x="278.267171" xlink:href="#m609c818174" y="464.014041"/>
     <use style="fill:#2792cb;stroke:#2792cb;" x="282.716932" xlink:href="#m609c818174" y="465.780328"/>
     <use style="fill:#2792cb;stroke:#2792cb;" x="291.616453" xlink:href="#m609c818174" y="462.247754"/>
     <use style="fill:#2792cb;stroke:#2792cb;" x="300.515975" xlink:href="#m609c818174" y="455.476988"/>
     <use style="fill:#2792cb;stroke:#2792cb;" x="304.965736" xlink:href="#m609c818174" y="454.299463"/>
     <use style="fill:#2792cb;stroke:#2792cb;" x="309.415496" xlink:href="#m609c818174" y="446.645553"/>
     <use style="fill:#2792cb;stroke:#2792cb;" x="313.865257" xlink:href="#m609c818174" y="447.234316"/>
     <use style="fill:#2792cb;stroke:#2792cb;" x="318.315018" xlink:href="#m609c818174" y="436.636594"/>
     <use style="fill:#2792cb;stroke:#2792cb;" x="322.764779" xlink:href="#m609c818174" y="420.740013"/>
     <use style="fill:#2792cb;stroke:#2792cb;" x="331.6643" xlink:href="#m609c818174" y="402.488382"/>
     <use style="fill:#2792cb;stroke:#2792cb;" x="336.114061" xlink:href="#m609c818174" y="395.128853"/>
     <use style="fill:#2792cb;stroke:#2792cb;" x="340.563822" xlink:href="#m609c818174" y="390.124374"/>
     <use style="fill:#2792cb;stroke:#2792cb;" x="345.013583" xlink:href="#m609c818174" y="387.180562"/>
     <use style="fill:#2792cb;stroke:#2792cb;" x="349.463343" xlink:href="#m609c818174" y="390.418755"/>
     <use style="fill:#2792cb;stroke:#2792cb;" x="353.913104" xlink:href="#m609c818174" y="389.535611"/>
     <use style="fill:#2792cb;stroke:#2792cb;" x="362.812626" xlink:href="#m609c818174" y="393.656947"/>
     <use style="fill:#2792cb;stroke:#2792cb;" x="367.262386" xlink:href="#m609c818174" y="394.834472"/>
     <use style="fill:#2792cb;stroke:#2792cb;" x="371.712147" xlink:href="#m609c818174" y="394.834472"/>
     <use style="fill:#2792cb;stroke:#2792cb;" x="380.611669" xlink:href="#m609c818174" y="395.128853"/>
     <use style="fill:#2792cb;stroke:#2792cb;" x="385.061429" xlink:href="#m609c818174" y="392.479423"/>
     <use style="fill:#2792cb;stroke:#2792cb;" x="393.960951" xlink:href="#m609c818174" y="391.596279"/>
     <use style="fill:#2792cb;stroke:#2792cb;" x="398.410712" xlink:href="#m609c818174" y="442.229836"/>
     <use style="fill:#2792cb;stroke:#2792cb;" x="407.310233" xlink:href="#m609c818174" y="466.663471"/>
     <use style="fill:#2792cb;stroke:#2792cb;" x="411.759994" xlink:href="#m609c818174" y="468.135377"/>
     <use style="fill:#2792cb;stroke:#2792cb;" x="429.559037" xlink:href="#m609c818174" y="469.01852"/>
     <use style="fill:#2792cb;stroke:#2792cb;" x="434.008798" xlink:href="#m609c818174" y="475.200524"/>
     <use style="fill:#2792cb;stroke:#2792cb;" x="438.458559" xlink:href="#m609c818174" y="476.083668"/>
     <use style="fill:#2792cb;stroke:#2792cb;" x="442.908319" xlink:href="#m609c818174" y="480.205004"/>
     <use style="fill:#2792cb;stroke:#2792cb;" x="447.35808" xlink:href="#m609c818174" y="481.676909"/>
     <use style="fill:#2792cb;stroke:#2792cb;" x="456.257602" xlink:href="#m609c818174" y="481.676909"/>
     <use style="fill:#2792cb;stroke:#2792cb;" x="460.707362" xlink:href="#m609c818174" y="481.088147"/>
     <use style="fill:#2792cb;stroke:#2792cb;" x="465.157123" xlink:href="#m609c818174" y="481.382528"/>
     <use style="fill:#2792cb;stroke:#2792cb;" x="474.056645" xlink:href="#m609c818174" y="481.088147"/>
     <use style="fill:#2792cb;stroke:#2792cb;" x="478.506406" xlink:href="#m609c818174" y="480.793766"/>
     <use style="fill:#2792cb;stroke:#2792cb;" x="487.405927" xlink:href="#m609c818174" y="480.793766"/>
     <use style="fill:#2792cb;stroke:#2792cb;" x="496.305449" xlink:href="#m609c818174" y="482.265672"/>
     <use style="fill:#2792cb;stroke:#2792cb;" x="505.20497" xlink:href="#m609c818174" y="481.971291"/>
     <use style="fill:#2792cb;stroke:#2792cb;" x="509.654731" xlink:href="#m609c818174" y="481.676909"/>
     <use style="fill:#2792cb;stroke:#2792cb;" x="518.554252" xlink:href="#m609c818174" y="481.971291"/>
     <use style="fill:#2792cb;stroke:#2792cb;" x="523.004013" xlink:href="#m609c818174" y="481.971291"/>
     <use style="fill:#2792cb;stroke:#2792cb;" x="527.453774" xlink:href="#m609c818174" y="482.265672"/>
     <use style="fill:#2792cb;stroke:#2792cb;" x="531.903535" xlink:href="#m609c818174" y="482.265672"/>
     <use style="fill:#2792cb;stroke:#2792cb;" x="540.803056" xlink:href="#m609c818174" y="482.560053"/>
     <use style="fill:#2792cb;stroke:#2792cb;" x="549.702578" xlink:href="#m609c818174" y="482.560053"/>
     <use style="fill:#2792cb;stroke:#2792cb;" x="554.152339" xlink:href="#m609c818174" y="482.854434"/>
     <use style="fill:#2792cb;stroke:#2792cb;" x="558.602099" xlink:href="#m609c818174" y="482.854434"/>
     <use style="fill:#2792cb;stroke:#2792cb;" x="563.05186" xlink:href="#m609c818174" y="483.737577"/>
     <use style="fill:#2792cb;stroke:#2792cb;" x="567.501621" xlink:href="#m609c818174" y="483.443196"/>
     <use style="fill:#2792cb;stroke:#2792cb;" x="571.951382" xlink:href="#m609c818174" y="482.560053"/>
     <use style="fill:#2792cb;stroke:#2792cb;" x="585.300664" xlink:href="#m609c818174" y="481.971291"/>
     <use style="fill:#2792cb;stroke:#2792cb;" x="589.750425" xlink:href="#m609c818174" y="481.971291"/>
     <use style="fill:#2792cb;stroke:#2792cb;" x="594.200185" xlink:href="#m609c818174" y="481.971291"/>
     <use style="fill:#2792cb;stroke:#2792cb;" x="598.649946" xlink:href="#m609c818174" y="481.382528"/>
     <use style="fill:#2792cb;stroke:#2792cb;" x="611.999228" xlink:href="#m609c818174" y="481.382528"/>
     <use style="fill:#2792cb;stroke:#2792cb;" x="616.448989" xlink:href="#m609c818174" y="481.382528"/>
     <use style="fill:#2792cb;stroke:#2792cb;" x="620.89875" xlink:href="#m609c818174" y="481.971291"/>
     <use style="fill:#2792cb;stroke:#2792cb;" x="625.348511" xlink:href="#m609c818174" y="481.971291"/>
     <use style="fill:#2792cb;stroke:#2792cb;" x="629.798272" xlink:href="#m609c818174" y="482.560053"/>
     <use style="fill:#2792cb;stroke:#2792cb;" x="643.147554" xlink:href="#m609c818174" y="482.265672"/>
     <use style="fill:#2792cb;stroke:#2792cb;" x="647.597315" xlink:href="#m609c818174" y="482.265672"/>
     <use style="fill:#2792cb;stroke:#2792cb;" x="652.047075" xlink:href="#m609c818174" y="483.148815"/>
     <use style="fill:#2792cb;stroke:#2792cb;" x="656.496836" xlink:href="#m609c818174" y="483.443196"/>
     <use style="fill:#2792cb;stroke:#2792cb;" x="660.946597" xlink:href="#m609c818174" y="484.031959"/>
     <use style="fill:#2792cb;stroke:#2792cb;" x="674.295879" xlink:href="#m609c818174" y="483.737577"/>
     <use style="fill:#2792cb;stroke:#2792cb;" x="678.74564" xlink:href="#m609c818174" y="483.443196"/>
     <use style="fill:#2792cb;stroke:#2792cb;" x="683.195401" xlink:href="#m609c818174" y="483.148815"/>
     <use style="fill:#2792cb;stroke:#2792cb;" x="687.645161" xlink:href="#m609c818174" y="482.265672"/>
     <use style="fill:#2792cb;stroke:#2792cb;" x="692.094922" xlink:href="#m609c818174" y="481.971291"/>
     <use style="fill:#2792cb;stroke:#2792cb;" x="705.444205" xlink:href="#m609c818174" y="481.971291"/>
     <use style="fill:#2792cb;stroke:#2792cb;" x="709.893965" xlink:href="#m609c818174" y="481.971291"/>
     <use style="fill:#2792cb;stroke:#2792cb;" x="714.343726" xlink:href="#m609c818174" y="481.676909"/>
     <use style="fill:#2792cb;stroke:#2792cb;" x="718.793487" xlink:href="#m609c818174" y="481.676909"/>
     <use style="fill:#2792cb;stroke:#2792cb;" x="723.243248" xlink:href="#m609c818174" y="481.676909"/>
     <use style="fill:#2792cb;stroke:#2792cb;" x="736.59253" xlink:href="#m609c818174" y="482.265672"/>
     <use style="fill:#2792cb;stroke:#2792cb;" x="741.042291" xlink:href="#m609c818174" y="481.382528"/>
     <use style="fill:#2792cb;stroke:#2792cb;" x="745.492051" xlink:href="#m609c818174" y="481.382528"/>
     <use style="fill:#2792cb;stroke:#2792cb;" x="749.941812" xlink:href="#m609c818174" y="481.382528"/>
     <use style="fill:#2792cb;stroke:#2792cb;" x="754.391573" xlink:href="#m609c818174" y="480.499385"/>
     <use style="fill:#2792cb;stroke:#2792cb;" x="767.740855" xlink:href="#m609c818174" y="481.382528"/>
     <use style="fill:#2792cb;stroke:#2792cb;" x="772.190616" xlink:href="#m609c818174" y="481.088147"/>
     <use style="fill:#2792cb;stroke:#2792cb;" x="776.640377" xlink:href="#m609c818174" y="481.676909"/>
     <use style="fill:#2792cb;stroke:#2792cb;" x="781.090138" xlink:href="#m609c818174" y="481.382528"/>
     <use style="fill:#2792cb;stroke:#2792cb;" x="785.539898" xlink:href="#m609c818174" y="481.676909"/>
     <use style="fill:#2792cb;stroke:#2792cb;" x="798.889181" xlink:href="#m609c818174" y="481.676909"/>
     <use style="fill:#2792cb;stroke:#2792cb;" x="803.338941" xlink:href="#m609c818174" y="481.676909"/>
     <use style="fill:#2792cb;stroke:#2792cb;" x="807.788702" xlink:href="#m609c818174" y="481.382528"/>
     <use style="fill:#2792cb;stroke:#2792cb;" x="812.238463" xlink:href="#m609c818174" y="481.382528"/>
     <use style="fill:#2792cb;stroke:#2792cb;" x="816.688224" xlink:href="#m609c818174" y="481.676909"/>
     <use style="fill:#2792cb;stroke:#2792cb;" x="830.037506" xlink:href="#m609c818174" y="481.088147"/>
     <use style="fill:#2792cb;stroke:#2792cb;" x="834.487267" xlink:href="#m609c818174" y="481.382528"/>
     <use style="fill:#2792cb;stroke:#2792cb;" x="838.937028" xlink:href="#m609c818174" y="481.676909"/>
     <use style="fill:#2792cb;stroke:#2792cb;" x="843.386788" xlink:href="#m609c818174" y="481.971291"/>
     <use style="fill:#2792cb;stroke:#2792cb;" x="847.836549" xlink:href="#m609c818174" y="482.265672"/>
     <use style="fill:#2792cb;stroke:#2792cb;" x="861.185831" xlink:href="#m609c818174" y="481.676909"/>
     <use style="fill:#2792cb;stroke:#2792cb;" x="865.635592" xlink:href="#m609c818174" y="482.265672"/>
     <use style="fill:#2792cb;stroke:#2792cb;" x="870.085353" xlink:href="#m609c818174" y="480.499385"/>
     <use style="fill:#2792cb;stroke:#2792cb;" x="874.535114" xlink:href="#m609c818174" y="480.793766"/>
     <use style="fill:#2792cb;stroke:#2792cb;" x="878.984874" xlink:href="#m609c818174" y="481.088147"/>
     <use style="fill:#2792cb;stroke:#2792cb;" x="892.334157" xlink:href="#m609c818174" y="480.793766"/>
     <use style="fill:#2792cb;stroke:#2792cb;" x="896.783917" xlink:href="#m609c818174" y="480.205004"/>
     <use style="fill:#2792cb;stroke:#2792cb;" x="901.233678" xlink:href="#m609c818174" y="480.205004"/>
     <use style="fill:#2792cb;stroke:#2792cb;" x="905.683439" xlink:href="#m609c818174" y="480.205004"/>
     <use style="fill:#2792cb;stroke:#2792cb;" x="910.1332" xlink:href="#m609c818174" y="480.499385"/>
     <use style="fill:#2792cb;stroke:#2792cb;" x="923.482482" xlink:href="#m609c818174" y="480.499385"/>
     <use style="fill:#2792cb;stroke:#2792cb;" x="927.932243" xlink:href="#m609c818174" y="480.205004"/>
     <use style="fill:#2792cb;stroke:#2792cb;" x="932.382004" xlink:href="#m609c818174" y="478.733098"/>
     <use style="fill:#2792cb;stroke:#2792cb;" x="936.831764" xlink:href="#m609c818174" y="479.027479"/>
     <use style="fill:#2792cb;stroke:#2792cb;" x="941.281525" xlink:href="#m609c818174" y="479.027479"/>
     <use style="fill:#2792cb;stroke:#2792cb;" x="954.630807" xlink:href="#m609c818174" y="477.261192"/>
     <use style="fill:#2792cb;stroke:#2792cb;" x="959.080568" xlink:href="#m609c818174" y="476.67243"/>
     <use style="fill:#2792cb;stroke:#2792cb;" x="963.530329" xlink:href="#m609c818174" y="478.438717"/>
     <use style="fill:#2792cb;stroke:#2792cb;" x="967.98009" xlink:href="#m609c818174" y="476.67243"/>
     <use style="fill:#2792cb;stroke:#2792cb;" x="972.42985" xlink:href="#m609c818174" y="472.256713"/>
     <use style="fill:#2792cb;stroke:#2792cb;" x="985.779133" xlink:href="#m609c818174" y="470.490426"/>
     <use style="fill:#2792cb;stroke:#2792cb;" x="990.228894" xlink:href="#m609c818174" y="468.135377"/>
     <use style="fill:#2792cb;stroke:#2792cb;" x="994.678654" xlink:href="#m609c818174" y="465.485946"/>
     <use style="fill:#2792cb;stroke:#2792cb;" x="999.128415" xlink:href="#m609c818174" y="463.425278"/>
     <use style="fill:#2792cb;stroke:#2792cb;" x="1003.578176" xlink:href="#m609c818174" y="457.832037"/>
     <use style="fill:#2792cb;stroke:#2792cb;" x="1016.927458" xlink:href="#m609c818174" y="457.243274"/>
     <use style="fill:#2792cb;stroke:#2792cb;" x="1021.377219" xlink:href="#m609c818174" y="459.009561"/>
     <use style="fill:#2792cb;stroke:#2792cb;" x="1052.525544" xlink:href="#m609c818174" y="455.771369"/>
     <use style="fill:#2792cb;stroke:#2792cb;" x="1056.975305" xlink:href="#m609c818174" y="457.243274"/>
     <use style="fill:#2792cb;stroke:#2792cb;" x="1061.425066" xlink:href="#m609c818174" y="449.000602"/>
     <use style="fill:#2792cb;stroke:#2792cb;" x="1065.874827" xlink:href="#m609c818174" y="439.580406"/>
     <use style="fill:#2792cb;stroke:#2792cb;" x="1079.224109" xlink:href="#m609c818174" y="439.580406"/>
     <use style="fill:#2792cb;stroke:#2792cb;" x="1083.67387" xlink:href="#m609c818174" y="432.220877"/>
     <use style="fill:#2792cb;stroke:#2792cb;" x="1088.12363" xlink:href="#m609c818174" y="430.160209"/>
     <use style="fill:#2792cb;stroke:#2792cb;" x="1092.573391" xlink:href="#m609c818174" y="432.809639"/>
     <use style="fill:#2792cb;stroke:#2792cb;" x="1097.023152" xlink:href="#m609c818174" y="413.086103"/>
     <use style="fill:#2792cb;stroke:#2792cb;" x="1110.372434" xlink:href="#m609c818174" y="433.692783"/>
     <use style="fill:#2792cb;stroke:#2792cb;" x="1114.822195" xlink:href="#m609c818174" y="413.086103"/>
     <use style="fill:#2792cb;stroke:#2792cb;" x="1119.271956" xlink:href="#m609c818174" y="404.254668"/>
     <use style="fill:#2792cb;stroke:#2792cb;" x="1123.721717" xlink:href="#m609c818174" y="394.834472"/>
     <use style="fill:#2792cb;stroke:#2792cb;" x="1128.171477" xlink:href="#m609c818174" y="385.119894"/>
    </g>
   </g>
   <g id="patch_3">
    <path d="M 62.89875 501.738984 
L 1178.89875 501.738984 
" style="fill:none;stroke:#000000;stroke-linecap:square;stroke-linejoin:miter;stroke-width:0.8;"/>
   </g>
   <g id="legend_1">
    <g id="line2d_45">
     <path d="M 1091.653438 25.237422 
L 1111.653438 25.237422 
" style="fill:none;stroke:#dbcd00;stroke-linecap:square;stroke-width:2;"/>
    </g>
    <g id="line2d_46">
     <g>
      <use style="fill:#dbcd00;stroke:#dbcd00;" x="1101.653438" xlink:href="#m7d3c12ad5a" y="25.237422"/>
     </g>
    </g>
    <g id="text_27">
     <!-- Genesene -->
     <defs>
      <path d="M 59.515625 10.40625 
L 59.515625 29.984375 
L 43.40625 29.984375 
L 43.40625 38.09375 
L 69.28125 38.09375 
L 69.28125 6.78125 
Q 63.578125 2.734375 56.6875 0.65625 
Q 49.8125 -1.421875 42 -1.421875 
Q 24.90625 -1.421875 15.25 8.5625 
Q 5.609375 18.5625 5.609375 36.375 
Q 5.609375 54.25 15.25 64.234375 
Q 24.90625 74.21875 42 74.21875 
Q 49.125 74.21875 55.546875 72.453125 
Q 61.96875 70.703125 67.390625 67.28125 
L 67.390625 56.78125 
Q 61.921875 61.421875 55.765625 63.765625 
Q 49.609375 66.109375 42.828125 66.109375 
Q 29.4375 66.109375 22.71875 58.640625 
Q 16.015625 51.171875 16.015625 36.375 
Q 16.015625 21.625 22.71875 14.15625 
Q 29.4375 6.6875 42.828125 6.6875 
Q 48.046875 6.6875 52.140625 7.59375 
Q 56.25 8.5 59.515625 10.40625 
z
" id="DejaVuSans-71"/>
      <path d="M 44.28125 53.078125 
L 44.28125 44.578125 
Q 40.484375 46.53125 36.375 47.5 
Q 32.28125 48.484375 27.875 48.484375 
Q 21.1875 48.484375 17.84375 46.4375 
Q 14.5 44.390625 14.5 40.28125 
Q 14.5 37.15625 16.890625 35.375 
Q 19.28125 33.59375 26.515625 31.984375 
L 29.59375 31.296875 
Q 39.15625 29.25 43.1875 25.515625 
Q 47.21875 21.78125 47.21875 15.09375 
Q 47.21875 7.46875 41.1875 3.015625 
Q 35.15625 -1.421875 24.609375 -1.421875 
Q 20.21875 -1.421875 15.453125 -0.5625 
Q 10.6875 0.296875 5.421875 2 
L 5.421875 11.28125 
Q 10.40625 8.6875 15.234375 7.390625 
Q 20.0625 6.109375 24.8125 6.109375 
Q 31.15625 6.109375 34.5625 8.28125 
Q 37.984375 10.453125 37.984375 14.40625 
Q 37.984375 18.0625 35.515625 20.015625 
Q 33.0625 21.96875 24.703125 23.78125 
L 21.578125 24.515625 
Q 13.234375 26.265625 9.515625 29.90625 
Q 5.8125 33.546875 5.8125 39.890625 
Q 5.8125 47.609375 11.28125 51.796875 
Q 16.75 56 26.8125 56 
Q 31.78125 56 36.171875 55.265625 
Q 40.578125 54.546875 44.28125 53.078125 
z
" id="DejaVuSans-115"/>
     </defs>
     <g transform="translate(1119.653438 28.737422)scale(0.1 -0.1)">
      <use xlink:href="#DejaVuSans-71"/>
      <use x="77.490234" xlink:href="#DejaVuSans-101"/>
      <use x="139.013672" xlink:href="#DejaVuSans-110"/>
      <use x="202.392578" xlink:href="#DejaVuSans-101"/>
      <use x="263.916016" xlink:href="#DejaVuSans-115"/>
      <use x="316.015625" xlink:href="#DejaVuSans-101"/>
      <use x="377.539062" xlink:href="#DejaVuSans-110"/>
      <use x="440.917969" xlink:href="#DejaVuSans-101"/>
     </g>
    </g>
    <g id="line2d_47">
     <path d="M 1091.653438 39.915547 
L 1111.653438 39.915547 
" style="fill:none;stroke:#2792cb;stroke-linecap:square;stroke-width:2;"/>
    </g>
    <g id="line2d_48">
     <g>
      <use style="fill:#2792cb;stroke:#2792cb;" x="1101.653438" xlink:href="#m609c818174" y="39.915547"/>
     </g>
    </g>
    <g id="text_28">
     <!-- Erkrankte -->
     <defs>
      <path d="M 9.8125 72.90625 
L 55.90625 72.90625 
L 55.90625 64.59375 
L 19.671875 64.59375 
L 19.671875 43.015625 
L 54.390625 43.015625 
L 54.390625 34.71875 
L 19.671875 34.71875 
L 19.671875 8.296875 
L 56.78125 8.296875 
L 56.78125 0 
L 9.8125 0 
z
" id="DejaVuSans-69"/>
      <path d="M 41.109375 46.296875 
Q 39.59375 47.171875 37.8125 47.578125 
Q 36.03125 48 33.890625 48 
Q 26.265625 48 22.1875 43.046875 
Q 18.109375 38.09375 18.109375 28.8125 
L 18.109375 0 
L 9.078125 0 
L 9.078125 54.6875 
L 18.109375 54.6875 
L 18.109375 46.1875 
Q 20.953125 51.171875 25.484375 53.578125 
Q 30.03125 56 36.53125 56 
Q 37.453125 56 38.578125 55.875 
Q 39.703125 55.765625 41.0625 55.515625 
z
" id="DejaVuSans-114"/>
      <path d="M 9.078125 75.984375 
L 18.109375 75.984375 
L 18.109375 31.109375 
L 44.921875 54.6875 
L 56.390625 54.6875 
L 27.390625 29.109375 
L 57.625 0 
L 45.90625 0 
L 18.109375 26.703125 
L 18.109375 0 
L 9.078125 0 
z
" id="DejaVuSans-107"/>
      <path d="M 18.3125 70.21875 
L 18.3125 54.6875 
L 36.8125 54.6875 
L 36.8125 47.703125 
L 18.3125 47.703125 
L 18.3125 18.015625 
Q 18.3125 11.328125 20.140625 9.421875 
Q 21.96875 7.515625 27.59375 7.515625 
L 36.8125 7.515625 
L 36.8125 0 
L 27.59375 0 
Q 17.1875 0 13.234375 3.875 
Q 9.28125 7.765625 9.28125 18.015625 
L 9.28125 47.703125 
L 2.6875 47.703125 
L 2.6875 54.6875 
L 9.28125 54.6875 
L 9.28125 70.21875 
z
" id="DejaVuSans-116"/>
     </defs>
     <g transform="translate(1119.653438 43.415547)scale(0.1 -0.1)">
      <use xlink:href="#DejaVuSans-69"/>
      <use x="63.183594" xlink:href="#DejaVuSans-114"/>
      <use x="104.296875" xlink:href="#DejaVuSans-107"/>
      <use x="162.207031" xlink:href="#DejaVuSans-114"/>
      <use x="203.320312" xlink:href="#DejaVuSans-97"/>
      <use x="264.599609" xlink:href="#DejaVuSans-110"/>
      <use x="327.978516" xlink:href="#DejaVuSans-107"/>
      <use x="385.888672" xlink:href="#DejaVuSans-116"/>
      <use x="425.097656" xlink:href="#DejaVuSans-101"/>
     </g>
    </g>
   </g>
  </g>
 </g>
 <defs>
  <clipPath id="pc6aebe15df">
   <rect height="489.6" width="1116" x="62.89875" y="12.138984"/>
  </clipPath>
 </defs>
</svg>
