<?xml version="1.0" encoding="utf-8" standalone="no"?>
<!DOCTYPE svg PUBLIC "-//W3C//DTD SVG 1.1//EN"
  "http://www.w3.org/Graphics/SVG/1.1/DTD/svg11.dtd">
<!-- Created with matplotlib (https://matplotlib.org/) -->
<svg height="553.993765pt" version="1.1" viewBox="0 0 1177.8275 553.993765" width="1177.8275pt" xmlns="http://www.w3.org/2000/svg" xmlns:xlink="http://www.w3.org/1999/xlink">
 <defs>
  <style type="text/css">
*{stroke-linecap:butt;stroke-linejoin:round;}
  </style>
 </defs>
 <g id="figure_1">
  <g id="patch_1">
   <path d="M 0 553.993765 
L 1177.8275 553.993765 
L 1177.8275 0 
L 0 0 
z
" style="fill:#ffffff;"/>
  </g>
  <g id="axes_1">
   <g id="patch_2">
    <path d="M 54.6275 501.738984 
L 1170.6275 501.738984 
L 1170.6275 12.138984 
L 54.6275 12.138984 
z
" style="fill:#ffffff;"/>
   </g>
   <g id="matplotlib.axis_1">
    <g id="xtick_1">
     <g id="line2d_1">
      <defs>
       <path d="M 0 0 
L 0 3.5 
" id="m526a6c6d2b" style="stroke:#000000;stroke-width:0.8;"/>
      </defs>
      <g>
       <use style="stroke:#000000;stroke-width:0.8;" x="153.666461" xlink:href="#m526a6c6d2b" y="501.738984"/>
      </g>
     </g>
     <g id="text_1">
      <!-- 2020-04 -->
      <defs>
       <path d="M 19.1875 8.296875 
L 53.609375 8.296875 
L 53.609375 0 
L 7.328125 0 
L 7.328125 8.296875 
Q 12.9375 14.109375 22.625 23.890625 
Q 32.328125 33.6875 34.8125 36.53125 
Q 39.546875 41.84375 41.421875 45.53125 
Q 43.3125 49.21875 43.3125 52.78125 
Q 43.3125 58.59375 39.234375 62.25 
Q 35.15625 65.921875 28.609375 65.921875 
Q 23.96875 65.921875 18.8125 64.3125 
Q 13.671875 62.703125 7.8125 59.421875 
L 7.8125 69.390625 
Q 13.765625 71.78125 18.9375 73 
Q 24.125 74.21875 28.421875 74.21875 
Q 39.75 74.21875 46.484375 68.546875 
Q 53.21875 62.890625 53.21875 53.421875 
Q 53.21875 48.921875 51.53125 44.890625 
Q 49.859375 40.875 45.40625 35.40625 
Q 44.1875 33.984375 37.640625 27.21875 
Q 31.109375 20.453125 19.1875 8.296875 
z
" id="DejaVuSans-50"/>
       <path d="M 31.78125 66.40625 
Q 24.171875 66.40625 20.328125 58.90625 
Q 16.5 51.421875 16.5 36.375 
Q 16.5 21.390625 20.328125 13.890625 
Q 24.171875 6.390625 31.78125 6.390625 
Q 39.453125 6.390625 43.28125 13.890625 
Q 47.125 21.390625 47.125 36.375 
Q 47.125 51.421875 43.28125 58.90625 
Q 39.453125 66.40625 31.78125 66.40625 
z
M 31.78125 74.21875 
Q 44.046875 74.21875 50.515625 64.515625 
Q 56.984375 54.828125 56.984375 36.375 
Q 56.984375 17.96875 50.515625 8.265625 
Q 44.046875 -1.421875 31.78125 -1.421875 
Q 19.53125 -1.421875 13.0625 8.265625 
Q 6.59375 17.96875 6.59375 36.375 
Q 6.59375 54.828125 13.0625 64.515625 
Q 19.53125 74.21875 31.78125 74.21875 
z
" id="DejaVuSans-48"/>
       <path d="M 4.890625 31.390625 
L 31.203125 31.390625 
L 31.203125 23.390625 
L 4.890625 23.390625 
z
" id="DejaVuSans-45"/>
       <path d="M 37.796875 64.3125 
L 12.890625 25.390625 
L 37.796875 25.390625 
z
M 35.203125 72.90625 
L 47.609375 72.90625 
L 47.609375 25.390625 
L 58.015625 25.390625 
L 58.015625 17.1875 
L 47.609375 17.1875 
L 47.609375 0 
L 37.796875 0 
L 37.796875 17.1875 
L 4.890625 17.1875 
L 4.890625 26.703125 
z
" id="DejaVuSans-52"/>
      </defs>
      <g transform="translate(105.274194 544.452384)rotate(-30)scale(0.13 -0.13)">
       <use xlink:href="#DejaVuSans-50"/>
       <use x="63.623047" xlink:href="#DejaVuSans-48"/>
       <use x="127.246094" xlink:href="#DejaVuSans-50"/>
       <use x="190.869141" xlink:href="#DejaVuSans-48"/>
       <use x="254.492188" xlink:href="#DejaVuSans-45"/>
       <use x="290.576172" xlink:href="#DejaVuSans-48"/>
       <use x="354.199219" xlink:href="#DejaVuSans-52"/>
      </g>
     </g>
    </g>
    <g id="xtick_2">
     <g id="line2d_2">
      <g>
       <use style="stroke:#000000;stroke-width:0.8;" x="314.705422" xlink:href="#m526a6c6d2b" y="501.738984"/>
      </g>
     </g>
     <g id="text_2">
      <!-- 2020-05 -->
      <defs>
       <path d="M 10.796875 72.90625 
L 49.515625 72.90625 
L 49.515625 64.59375 
L 19.828125 64.59375 
L 19.828125 46.734375 
Q 21.96875 47.46875 24.109375 47.828125 
Q 26.265625 48.1875 28.421875 48.1875 
Q 40.625 48.1875 47.75 41.5 
Q 54.890625 34.8125 54.890625 23.390625 
Q 54.890625 11.625 47.5625 5.09375 
Q 40.234375 -1.421875 26.90625 -1.421875 
Q 22.3125 -1.421875 17.546875 -0.640625 
Q 12.796875 0.140625 7.71875 1.703125 
L 7.71875 11.625 
Q 12.109375 9.234375 16.796875 8.0625 
Q 21.484375 6.890625 26.703125 6.890625 
Q 35.15625 6.890625 40.078125 11.328125 
Q 45.015625 15.765625 45.015625 23.390625 
Q 45.015625 31 40.078125 35.4375 
Q 35.15625 39.890625 26.703125 39.890625 
Q 22.75 39.890625 18.8125 39.015625 
Q 14.890625 38.140625 10.796875 36.28125 
z
" id="DejaVuSans-53"/>
      </defs>
      <g transform="translate(266.313155 544.452384)rotate(-30)scale(0.13 -0.13)">
       <use xlink:href="#DejaVuSans-50"/>
       <use x="63.623047" xlink:href="#DejaVuSans-48"/>
       <use x="127.246094" xlink:href="#DejaVuSans-50"/>
       <use x="190.869141" xlink:href="#DejaVuSans-48"/>
       <use x="254.492188" xlink:href="#DejaVuSans-45"/>
       <use x="290.576172" xlink:href="#DejaVuSans-48"/>
       <use x="354.199219" xlink:href="#DejaVuSans-53"/>
      </g>
     </g>
    </g>
    <g id="xtick_3">
     <g id="line2d_3">
      <g>
       <use style="stroke:#000000;stroke-width:0.8;" x="481.112348" xlink:href="#m526a6c6d2b" y="501.738984"/>
      </g>
     </g>
     <g id="text_3">
      <!-- 2020-06 -->
      <defs>
       <path d="M 33.015625 40.375 
Q 26.375 40.375 22.484375 35.828125 
Q 18.609375 31.296875 18.609375 23.390625 
Q 18.609375 15.53125 22.484375 10.953125 
Q 26.375 6.390625 33.015625 6.390625 
Q 39.65625 6.390625 43.53125 10.953125 
Q 47.40625 15.53125 47.40625 23.390625 
Q 47.40625 31.296875 43.53125 35.828125 
Q 39.65625 40.375 33.015625 40.375 
z
M 52.59375 71.296875 
L 52.59375 62.3125 
Q 48.875 64.0625 45.09375 64.984375 
Q 41.3125 65.921875 37.59375 65.921875 
Q 27.828125 65.921875 22.671875 59.328125 
Q 17.53125 52.734375 16.796875 39.40625 
Q 19.671875 43.65625 24.015625 45.921875 
Q 28.375 48.1875 33.59375 48.1875 
Q 44.578125 48.1875 50.953125 41.515625 
Q 57.328125 34.859375 57.328125 23.390625 
Q 57.328125 12.15625 50.6875 5.359375 
Q 44.046875 -1.421875 33.015625 -1.421875 
Q 20.359375 -1.421875 13.671875 8.265625 
Q 6.984375 17.96875 6.984375 36.375 
Q 6.984375 53.65625 15.1875 63.9375 
Q 23.390625 74.21875 37.203125 74.21875 
Q 40.921875 74.21875 44.703125 73.484375 
Q 48.484375 72.75 52.59375 71.296875 
z
" id="DejaVuSans-54"/>
      </defs>
      <g transform="translate(432.720081 544.452384)rotate(-30)scale(0.13 -0.13)">
       <use xlink:href="#DejaVuSans-50"/>
       <use x="63.623047" xlink:href="#DejaVuSans-48"/>
       <use x="127.246094" xlink:href="#DejaVuSans-50"/>
       <use x="190.869141" xlink:href="#DejaVuSans-48"/>
       <use x="254.492188" xlink:href="#DejaVuSans-45"/>
       <use x="290.576172" xlink:href="#DejaVuSans-48"/>
       <use x="354.199219" xlink:href="#DejaVuSans-54"/>
      </g>
     </g>
    </g>
    <g id="xtick_4">
     <g id="line2d_4">
      <g>
       <use style="stroke:#000000;stroke-width:0.8;" x="642.15131" xlink:href="#m526a6c6d2b" y="501.738984"/>
      </g>
     </g>
     <g id="text_4">
      <!-- 2020-07 -->
      <defs>
       <path d="M 8.203125 72.90625 
L 55.078125 72.90625 
L 55.078125 68.703125 
L 28.609375 0 
L 18.3125 0 
L 43.21875 64.59375 
L 8.203125 64.59375 
z
" id="DejaVuSans-55"/>
      </defs>
      <g transform="translate(593.759042 544.452384)rotate(-30)scale(0.13 -0.13)">
       <use xlink:href="#DejaVuSans-50"/>
       <use x="63.623047" xlink:href="#DejaVuSans-48"/>
       <use x="127.246094" xlink:href="#DejaVuSans-50"/>
       <use x="190.869141" xlink:href="#DejaVuSans-48"/>
       <use x="254.492188" xlink:href="#DejaVuSans-45"/>
       <use x="290.576172" xlink:href="#DejaVuSans-48"/>
       <use x="354.199219" xlink:href="#DejaVuSans-55"/>
      </g>
     </g>
    </g>
    <g id="xtick_5">
     <g id="line2d_5">
      <g>
       <use style="stroke:#000000;stroke-width:0.8;" x="808.558236" xlink:href="#m526a6c6d2b" y="501.738984"/>
      </g>
     </g>
     <g id="text_5">
      <!-- 2020-08 -->
      <defs>
       <path d="M 31.78125 34.625 
Q 24.75 34.625 20.71875 30.859375 
Q 16.703125 27.09375 16.703125 20.515625 
Q 16.703125 13.921875 20.71875 10.15625 
Q 24.75 6.390625 31.78125 6.390625 
Q 38.8125 6.390625 42.859375 10.171875 
Q 46.921875 13.96875 46.921875 20.515625 
Q 46.921875 27.09375 42.890625 30.859375 
Q 38.875 34.625 31.78125 34.625 
z
M 21.921875 38.8125 
Q 15.578125 40.375 12.03125 44.71875 
Q 8.5 49.078125 8.5 55.328125 
Q 8.5 64.0625 14.71875 69.140625 
Q 20.953125 74.21875 31.78125 74.21875 
Q 42.671875 74.21875 48.875 69.140625 
Q 55.078125 64.0625 55.078125 55.328125 
Q 55.078125 49.078125 51.53125 44.71875 
Q 48 40.375 41.703125 38.8125 
Q 48.828125 37.15625 52.796875 32.3125 
Q 56.78125 27.484375 56.78125 20.515625 
Q 56.78125 9.90625 50.3125 4.234375 
Q 43.84375 -1.421875 31.78125 -1.421875 
Q 19.734375 -1.421875 13.25 4.234375 
Q 6.78125 9.90625 6.78125 20.515625 
Q 6.78125 27.484375 10.78125 32.3125 
Q 14.796875 37.15625 21.921875 38.8125 
z
M 18.3125 54.390625 
Q 18.3125 48.734375 21.84375 45.5625 
Q 25.390625 42.390625 31.78125 42.390625 
Q 38.140625 42.390625 41.71875 45.5625 
Q 45.3125 48.734375 45.3125 54.390625 
Q 45.3125 60.0625 41.71875 63.234375 
Q 38.140625 66.40625 31.78125 66.40625 
Q 25.390625 66.40625 21.84375 63.234375 
Q 18.3125 60.0625 18.3125 54.390625 
z
" id="DejaVuSans-56"/>
      </defs>
      <g transform="translate(760.165969 544.452384)rotate(-30)scale(0.13 -0.13)">
       <use xlink:href="#DejaVuSans-50"/>
       <use x="63.623047" xlink:href="#DejaVuSans-48"/>
       <use x="127.246094" xlink:href="#DejaVuSans-50"/>
       <use x="190.869141" xlink:href="#DejaVuSans-48"/>
       <use x="254.492188" xlink:href="#DejaVuSans-45"/>
       <use x="290.576172" xlink:href="#DejaVuSans-48"/>
       <use x="354.199219" xlink:href="#DejaVuSans-56"/>
      </g>
     </g>
    </g>
    <g id="xtick_6">
     <g id="line2d_6">
      <g>
       <use style="stroke:#000000;stroke-width:0.8;" x="974.965162" xlink:href="#m526a6c6d2b" y="501.738984"/>
      </g>
     </g>
     <g id="text_6">
      <!-- 2020-09 -->
      <defs>
       <path d="M 10.984375 1.515625 
L 10.984375 10.5 
Q 14.703125 8.734375 18.5 7.8125 
Q 22.3125 6.890625 25.984375 6.890625 
Q 35.75 6.890625 40.890625 13.453125 
Q 46.046875 20.015625 46.78125 33.40625 
Q 43.953125 29.203125 39.59375 26.953125 
Q 35.25 24.703125 29.984375 24.703125 
Q 19.046875 24.703125 12.671875 31.3125 
Q 6.296875 37.9375 6.296875 49.421875 
Q 6.296875 60.640625 12.9375 67.421875 
Q 19.578125 74.21875 30.609375 74.21875 
Q 43.265625 74.21875 49.921875 64.515625 
Q 56.59375 54.828125 56.59375 36.375 
Q 56.59375 19.140625 48.40625 8.859375 
Q 40.234375 -1.421875 26.421875 -1.421875 
Q 22.703125 -1.421875 18.890625 -0.6875 
Q 15.09375 0.046875 10.984375 1.515625 
z
M 30.609375 32.421875 
Q 37.25 32.421875 41.125 36.953125 
Q 45.015625 41.5 45.015625 49.421875 
Q 45.015625 57.28125 41.125 61.84375 
Q 37.25 66.40625 30.609375 66.40625 
Q 23.96875 66.40625 20.09375 61.84375 
Q 16.21875 57.28125 16.21875 49.421875 
Q 16.21875 41.5 20.09375 36.953125 
Q 23.96875 32.421875 30.609375 32.421875 
z
" id="DejaVuSans-57"/>
      </defs>
      <g transform="translate(926.572895 544.452384)rotate(-30)scale(0.13 -0.13)">
       <use xlink:href="#DejaVuSans-50"/>
       <use x="63.623047" xlink:href="#DejaVuSans-48"/>
       <use x="127.246094" xlink:href="#DejaVuSans-50"/>
       <use x="190.869141" xlink:href="#DejaVuSans-48"/>
       <use x="254.492188" xlink:href="#DejaVuSans-45"/>
       <use x="290.576172" xlink:href="#DejaVuSans-48"/>
       <use x="354.199219" xlink:href="#DejaVuSans-57"/>
      </g>
     </g>
    </g>
    <g id="xtick_7">
     <g id="line2d_7">
      <g>
       <use style="stroke:#000000;stroke-width:0.8;" x="1136.004123" xlink:href="#m526a6c6d2b" y="501.738984"/>
      </g>
     </g>
     <g id="text_7">
      <!-- 2020-10 -->
      <defs>
       <path d="M 12.40625 8.296875 
L 28.515625 8.296875 
L 28.515625 63.921875 
L 10.984375 60.40625 
L 10.984375 69.390625 
L 28.421875 72.90625 
L 38.28125 72.90625 
L 38.28125 8.296875 
L 54.390625 8.296875 
L 54.390625 0 
L 12.40625 0 
z
" id="DejaVuSans-49"/>
      </defs>
      <g transform="translate(1087.611856 544.452384)rotate(-30)scale(0.13 -0.13)">
       <use xlink:href="#DejaVuSans-50"/>
       <use x="63.623047" xlink:href="#DejaVuSans-48"/>
       <use x="127.246094" xlink:href="#DejaVuSans-50"/>
       <use x="190.869141" xlink:href="#DejaVuSans-48"/>
       <use x="254.492188" xlink:href="#DejaVuSans-45"/>
       <use x="290.576172" xlink:href="#DejaVuSans-49"/>
       <use x="354.199219" xlink:href="#DejaVuSans-48"/>
      </g>
     </g>
    </g>
   </g>
   <g id="matplotlib.axis_2">
    <g id="ytick_1">
     <g id="line2d_8">
      <path clip-path="url(#p03d7f35a2b)" d="M 54.6275 480.655731 
L 1170.6275 480.655731 
" style="fill:none;stroke:#b0b0b0;stroke-linecap:square;stroke-width:0.8;"/>
     </g>
     <g id="line2d_9">
      <defs>
       <path d="M 0 0 
L -3.5 0 
" id="m04788008c0" style="stroke:#000000;stroke-width:0.8;"/>
      </defs>
      <g>
       <use style="stroke:#000000;stroke-width:0.8;" x="54.6275" xlink:href="#m04788008c0" y="480.655731"/>
      </g>
     </g>
     <g id="text_8">
      <!-- 0 -->
      <g transform="translate(39.35625 485.594715)scale(0.13 -0.13)">
       <use xlink:href="#DejaVuSans-48"/>
      </g>
     </g>
    </g>
    <g id="ytick_2">
     <g id="line2d_10">
      <path clip-path="url(#p03d7f35a2b)" d="M 54.6275 363.526544 
L 1170.6275 363.526544 
" style="fill:none;stroke:#b0b0b0;stroke-linecap:square;stroke-width:0.8;"/>
     </g>
     <g id="line2d_11">
      <g>
       <use style="stroke:#000000;stroke-width:0.8;" x="54.6275" xlink:href="#m04788008c0" y="363.526544"/>
      </g>
     </g>
     <g id="text_9">
      <!-- 100 -->
      <g transform="translate(22.81375 368.465529)scale(0.13 -0.13)">
       <use xlink:href="#DejaVuSans-49"/>
       <use x="63.623047" xlink:href="#DejaVuSans-48"/>
       <use x="127.246094" xlink:href="#DejaVuSans-48"/>
      </g>
     </g>
    </g>
    <g id="ytick_3">
     <g id="line2d_12">
      <path clip-path="url(#p03d7f35a2b)" d="M 54.6275 246.397358 
L 1170.6275 246.397358 
" style="fill:none;stroke:#b0b0b0;stroke-linecap:square;stroke-width:0.8;"/>
     </g>
     <g id="line2d_13">
      <g>
       <use style="stroke:#000000;stroke-width:0.8;" x="54.6275" xlink:href="#m04788008c0" y="246.397358"/>
      </g>
     </g>
     <g id="text_10">
      <!-- 200 -->
      <g transform="translate(22.81375 251.336342)scale(0.13 -0.13)">
       <use xlink:href="#DejaVuSans-50"/>
       <use x="63.623047" xlink:href="#DejaVuSans-48"/>
       <use x="127.246094" xlink:href="#DejaVuSans-48"/>
      </g>
     </g>
    </g>
    <g id="ytick_4">
     <g id="line2d_14">
      <path clip-path="url(#p03d7f35a2b)" d="M 54.6275 129.268171 
L 1170.6275 129.268171 
" style="fill:none;stroke:#b0b0b0;stroke-linecap:square;stroke-width:0.8;"/>
     </g>
     <g id="line2d_15">
      <g>
       <use style="stroke:#000000;stroke-width:0.8;" x="54.6275" xlink:href="#m04788008c0" y="129.268171"/>
      </g>
     </g>
     <g id="text_11">
      <!-- 300 -->
      <defs>
       <path d="M 40.578125 39.3125 
Q 47.65625 37.796875 51.625 33 
Q 55.609375 28.21875 55.609375 21.1875 
Q 55.609375 10.40625 48.1875 4.484375 
Q 40.765625 -1.421875 27.09375 -1.421875 
Q 22.515625 -1.421875 17.65625 -0.515625 
Q 12.796875 0.390625 7.625 2.203125 
L 7.625 11.71875 
Q 11.71875 9.328125 16.59375 8.109375 
Q 21.484375 6.890625 26.8125 6.890625 
Q 36.078125 6.890625 40.9375 10.546875 
Q 45.796875 14.203125 45.796875 21.1875 
Q 45.796875 27.640625 41.28125 31.265625 
Q 36.765625 34.90625 28.71875 34.90625 
L 20.21875 34.90625 
L 20.21875 43.015625 
L 29.109375 43.015625 
Q 36.375 43.015625 40.234375 45.921875 
Q 44.09375 48.828125 44.09375 54.296875 
Q 44.09375 59.90625 40.109375 62.90625 
Q 36.140625 65.921875 28.71875 65.921875 
Q 24.65625 65.921875 20.015625 65.03125 
Q 15.375 64.15625 9.8125 62.3125 
L 9.8125 71.09375 
Q 15.4375 72.65625 20.34375 73.4375 
Q 25.25 74.21875 29.59375 74.21875 
Q 40.828125 74.21875 47.359375 69.109375 
Q 53.90625 64.015625 53.90625 55.328125 
Q 53.90625 49.265625 50.4375 45.09375 
Q 46.96875 40.921875 40.578125 39.3125 
z
" id="DejaVuSans-51"/>
      </defs>
      <g transform="translate(22.81375 134.207155)scale(0.13 -0.13)">
       <use xlink:href="#DejaVuSans-51"/>
       <use x="63.623047" xlink:href="#DejaVuSans-48"/>
       <use x="127.246094" xlink:href="#DejaVuSans-48"/>
      </g>
     </g>
    </g>
    <g id="ytick_5">
     <g id="line2d_16">
      <path clip-path="url(#p03d7f35a2b)" d="M 54.6275 12.138984 
L 1170.6275 12.138984 
" style="fill:none;stroke:#b0b0b0;stroke-linecap:square;stroke-width:0.8;"/>
     </g>
     <g id="line2d_17">
      <g>
       <use style="stroke:#000000;stroke-width:0.8;" x="54.6275" xlink:href="#m04788008c0" y="12.138984"/>
      </g>
     </g>
     <g id="text_12">
      <!-- 400 -->
      <g transform="translate(22.81375 17.077969)scale(0.13 -0.13)">
       <use xlink:href="#DejaVuSans-52"/>
       <use x="63.623047" xlink:href="#DejaVuSans-48"/>
       <use x="127.246094" xlink:href="#DejaVuSans-48"/>
      </g>
     </g>
    </g>
    <g id="text_13">
     <!-- Anzahl von Fällen -->
     <defs>
      <path d="M 34.1875 63.1875 
L 20.796875 26.90625 
L 47.609375 26.90625 
z
M 28.609375 72.90625 
L 39.796875 72.90625 
L 67.578125 0 
L 57.328125 0 
L 50.6875 18.703125 
L 17.828125 18.703125 
L 11.1875 0 
L 0.78125 0 
z
" id="DejaVuSans-65"/>
      <path d="M 54.890625 33.015625 
L 54.890625 0 
L 45.90625 0 
L 45.90625 32.71875 
Q 45.90625 40.484375 42.875 44.328125 
Q 39.84375 48.1875 33.796875 48.1875 
Q 26.515625 48.1875 22.3125 43.546875 
Q 18.109375 38.921875 18.109375 30.90625 
L 18.109375 0 
L 9.078125 0 
L 9.078125 54.6875 
L 18.109375 54.6875 
L 18.109375 46.1875 
Q 21.34375 51.125 25.703125 53.5625 
Q 30.078125 56 35.796875 56 
Q 45.21875 56 50.046875 50.171875 
Q 54.890625 44.34375 54.890625 33.015625 
z
" id="DejaVuSans-110"/>
      <path d="M 5.515625 54.6875 
L 48.1875 54.6875 
L 48.1875 46.484375 
L 14.40625 7.171875 
L 48.1875 7.171875 
L 48.1875 0 
L 4.296875 0 
L 4.296875 8.203125 
L 38.09375 47.515625 
L 5.515625 47.515625 
z
" id="DejaVuSans-122"/>
      <path d="M 34.28125 27.484375 
Q 23.390625 27.484375 19.1875 25 
Q 14.984375 22.515625 14.984375 16.5 
Q 14.984375 11.71875 18.140625 8.90625 
Q 21.296875 6.109375 26.703125 6.109375 
Q 34.1875 6.109375 38.703125 11.40625 
Q 43.21875 16.703125 43.21875 25.484375 
L 43.21875 27.484375 
z
M 52.203125 31.203125 
L 52.203125 0 
L 43.21875 0 
L 43.21875 8.296875 
Q 40.140625 3.328125 35.546875 0.953125 
Q 30.953125 -1.421875 24.3125 -1.421875 
Q 15.921875 -1.421875 10.953125 3.296875 
Q 6 8.015625 6 15.921875 
Q 6 25.140625 12.171875 29.828125 
Q 18.359375 34.515625 30.609375 34.515625 
L 43.21875 34.515625 
L 43.21875 35.40625 
Q 43.21875 41.609375 39.140625 45 
Q 35.0625 48.390625 27.6875 48.390625 
Q 23 48.390625 18.546875 47.265625 
Q 14.109375 46.140625 10.015625 43.890625 
L 10.015625 52.203125 
Q 14.9375 54.109375 19.578125 55.046875 
Q 24.21875 56 28.609375 56 
Q 40.484375 56 46.34375 49.84375 
Q 52.203125 43.703125 52.203125 31.203125 
z
" id="DejaVuSans-97"/>
      <path d="M 54.890625 33.015625 
L 54.890625 0 
L 45.90625 0 
L 45.90625 32.71875 
Q 45.90625 40.484375 42.875 44.328125 
Q 39.84375 48.1875 33.796875 48.1875 
Q 26.515625 48.1875 22.3125 43.546875 
Q 18.109375 38.921875 18.109375 30.90625 
L 18.109375 0 
L 9.078125 0 
L 9.078125 75.984375 
L 18.109375 75.984375 
L 18.109375 46.1875 
Q 21.34375 51.125 25.703125 53.5625 
Q 30.078125 56 35.796875 56 
Q 45.21875 56 50.046875 50.171875 
Q 54.890625 44.34375 54.890625 33.015625 
z
" id="DejaVuSans-104"/>
      <path d="M 9.421875 75.984375 
L 18.40625 75.984375 
L 18.40625 0 
L 9.421875 0 
z
" id="DejaVuSans-108"/>
      <path id="DejaVuSans-32"/>
      <path d="M 2.984375 54.6875 
L 12.5 54.6875 
L 29.59375 8.796875 
L 46.6875 54.6875 
L 56.203125 54.6875 
L 35.6875 0 
L 23.484375 0 
z
" id="DejaVuSans-118"/>
      <path d="M 30.609375 48.390625 
Q 23.390625 48.390625 19.1875 42.75 
Q 14.984375 37.109375 14.984375 27.296875 
Q 14.984375 17.484375 19.15625 11.84375 
Q 23.34375 6.203125 30.609375 6.203125 
Q 37.796875 6.203125 41.984375 11.859375 
Q 46.1875 17.53125 46.1875 27.296875 
Q 46.1875 37.015625 41.984375 42.703125 
Q 37.796875 48.390625 30.609375 48.390625 
z
M 30.609375 56 
Q 42.328125 56 49.015625 48.375 
Q 55.71875 40.765625 55.71875 27.296875 
Q 55.71875 13.875 49.015625 6.21875 
Q 42.328125 -1.421875 30.609375 -1.421875 
Q 18.84375 -1.421875 12.171875 6.21875 
Q 5.515625 13.875 5.515625 27.296875 
Q 5.515625 40.765625 12.171875 48.375 
Q 18.84375 56 30.609375 56 
z
" id="DejaVuSans-111"/>
      <path d="M 9.8125 72.90625 
L 51.703125 72.90625 
L 51.703125 64.59375 
L 19.671875 64.59375 
L 19.671875 43.109375 
L 48.578125 43.109375 
L 48.578125 34.8125 
L 19.671875 34.8125 
L 19.671875 0 
L 9.8125 0 
z
" id="DejaVuSans-70"/>
      <path d="M 34.28125 27.484375 
Q 23.390625 27.484375 19.1875 25 
Q 14.984375 22.515625 14.984375 16.5 
Q 14.984375 11.71875 18.140625 8.90625 
Q 21.296875 6.109375 26.703125 6.109375 
Q 34.1875 6.109375 38.703125 11.40625 
Q 43.21875 16.703125 43.21875 25.484375 
L 43.21875 27.484375 
z
M 52.203125 31.203125 
L 52.203125 0 
L 43.21875 0 
L 43.21875 8.296875 
Q 40.140625 3.328125 35.546875 0.953125 
Q 30.953125 -1.421875 24.3125 -1.421875 
Q 15.921875 -1.421875 10.953125 3.296875 
Q 6 8.015625 6 15.921875 
Q 6 25.140625 12.171875 29.828125 
Q 18.359375 34.515625 30.609375 34.515625 
L 43.21875 34.515625 
L 43.21875 35.40625 
Q 43.21875 41.609375 39.140625 45 
Q 35.0625 48.390625 27.6875 48.390625 
Q 23 48.390625 18.546875 47.265625 
Q 14.109375 46.140625 10.015625 43.890625 
L 10.015625 52.203125 
Q 14.9375 54.109375 19.578125 55.046875 
Q 24.21875 56 28.609375 56 
Q 40.484375 56 46.34375 49.84375 
Q 52.203125 43.703125 52.203125 31.203125 
z
M 33.59375 75.78125 
L 43.5 75.78125 
L 43.5 65.921875 
L 33.59375 65.921875 
z
M 14.5 75.78125 
L 24.40625 75.78125 
L 24.40625 65.921875 
L 14.5 65.921875 
z
" id="DejaVuSans-228"/>
      <path d="M 56.203125 29.59375 
L 56.203125 25.203125 
L 14.890625 25.203125 
Q 15.484375 15.921875 20.484375 11.0625 
Q 25.484375 6.203125 34.421875 6.203125 
Q 39.59375 6.203125 44.453125 7.46875 
Q 49.3125 8.734375 54.109375 11.28125 
L 54.109375 2.78125 
Q 49.265625 0.734375 44.1875 -0.34375 
Q 39.109375 -1.421875 33.890625 -1.421875 
Q 20.796875 -1.421875 13.15625 6.1875 
Q 5.515625 13.8125 5.515625 26.8125 
Q 5.515625 40.234375 12.765625 48.109375 
Q 20.015625 56 32.328125 56 
Q 43.359375 56 49.78125 48.890625 
Q 56.203125 41.796875 56.203125 29.59375 
z
M 47.21875 32.234375 
Q 47.125 39.59375 43.09375 43.984375 
Q 39.0625 48.390625 32.421875 48.390625 
Q 24.90625 48.390625 20.390625 44.140625 
Q 15.875 39.890625 15.1875 32.171875 
z
" id="DejaVuSans-101"/>
     </defs>
     <g transform="translate(16.318125 309.388359)rotate(-90)scale(0.12 -0.12)">
      <use xlink:href="#DejaVuSans-65"/>
      <use x="68.408203" xlink:href="#DejaVuSans-110"/>
      <use x="131.787109" xlink:href="#DejaVuSans-122"/>
      <use x="184.277344" xlink:href="#DejaVuSans-97"/>
      <use x="245.556641" xlink:href="#DejaVuSans-104"/>
      <use x="308.935547" xlink:href="#DejaVuSans-108"/>
      <use x="336.71875" xlink:href="#DejaVuSans-32"/>
      <use x="368.505859" xlink:href="#DejaVuSans-118"/>
      <use x="427.685547" xlink:href="#DejaVuSans-111"/>
      <use x="488.867188" xlink:href="#DejaVuSans-110"/>
      <use x="552.246094" xlink:href="#DejaVuSans-32"/>
      <use x="584.033203" xlink:href="#DejaVuSans-70"/>
      <use x="632.427734" xlink:href="#DejaVuSans-228"/>
      <use x="693.707031" xlink:href="#DejaVuSans-108"/>
      <use x="721.490234" xlink:href="#DejaVuSans-108"/>
      <use x="749.273438" xlink:href="#DejaVuSans-101"/>
      <use x="810.796875" xlink:href="#DejaVuSans-110"/>
     </g>
    </g>
   </g>
   <g id="line2d_18">
    <path clip-path="url(#p03d7f35a2b)" d="M 105.354773 478.313147 
L 116.090703 478.313147 
L 121.458669 474.799271 
L 126.826634 474.799271 
L 132.1946 468.942812 
L 148.298496 468.942812 
L 153.666461 467.77152 
L 159.034426 464.257645 
L 164.402392 456.058602 
L 169.770357 450.202142 
L 175.138323 450.202142 
L 180.506288 449.03085 
L 185.874253 449.03085 
L 191.242219 445.516975 
L 196.610184 443.174391 
L 201.978149 437.317932 
L 212.71408 434.975348 
L 223.450011 430.290181 
L 228.817976 429.118889 
L 234.185942 429.118889 
L 239.553907 420.919846 
L 244.921872 420.919846 
L 255.657803 415.063386 
L 266.393734 408.035635 
L 271.761699 399.836592 
L 282.49763 397.494008 
L 293.233561 386.952382 
L 298.601526 379.92463 
L 303.969491 376.410755 
L 309.337457 369.383004 
L 320.073387 365.869128 
L 330.809318 356.498793 
L 336.177284 350.642334 
L 341.545249 347.128458 
L 346.913214 341.271999 
L 352.28118 340.100707 
L 357.649145 331.901664 
L 368.385076 326.045204 
L 373.753041 323.702621 
L 379.121006 315.503578 
L 384.488972 315.503578 
L 395.224903 299.105492 
L 405.960833 292.07774 
L 411.328799 289.735157 
L 427.432695 279.19353 
L 432.80066 276.850946 
L 443.536591 275.679654 
L 448.904556 275.679654 
L 459.640487 272.165779 
L 465.008452 268.651903 
L 486.480314 266.309319 
L 491.848279 262.795444 
L 497.216245 261.624152 
L 502.58421 259.281568 
L 518.688106 259.281568 
L 524.056071 256.938984 
L 529.424037 255.767693 
L 540.159968 251.082525 
L 545.527933 249.911233 
L 566.999794 249.911233 
L 577.735725 242.883482 
L 583.10369 242.883482 
L 593.839621 241.71219 
L 604.575552 239.369606 
L 690.462998 239.369606 
L 706.566894 235.855731 
L 711.934859 233.513147 
L 717.302825 232.341855 
L 722.67079 229.999271 
L 728.038755 229.999271 
L 744.142652 227.656688 
L 760.246548 221.800228 
L 803.190271 221.800228 
L 856.869924 190.175348 
L 862.23789 180.805013 
L 872.97382 176.119846 
L 878.341786 176.119846 
L 894.445682 167.920803 
L 899.813647 162.064343 
L 905.181613 160.893051 
L 910.549578 158.550468 
L 915.917543 158.550468 
L 932.021439 157.379176 
L 937.389405 155.036592 
L 942.75737 153.8653 
L 948.125335 150.351425 
L 953.493301 145.666257 
L 969.597197 144.494965 
L 974.965162 144.494965 
L 980.333128 142.152382 
L 985.701093 138.638506 
L 991.069058 138.638506 
L 1012.54092 129.268171 
L 1017.908885 128.096879 
L 1023.276851 128.096879 
L 1028.644816 123.411712 
L 1050.116677 123.411712 
L 1055.484643 122.24042 
L 1060.852608 118.726544 
L 1066.220574 118.726544 
L 1082.32447 116.38396 
L 1087.692435 116.38396 
L 1098.428366 111.698793 
L 1103.796331 110.527501 
L 1119.900227 108.184917 
L 1119.900227 108.184917 
" style="fill:none;stroke:#dbcd00;stroke-linecap:square;stroke-width:2;"/>
    <defs>
     <path d="M 0 1.5 
C 0.397805 1.5 0.77937 1.341951 1.06066 1.06066 
C 1.341951 0.77937 1.5 0.397805 1.5 0 
C 1.5 -0.397805 1.341951 -0.77937 1.06066 -1.06066 
C 0.77937 -1.341951 0.397805 -1.5 0 -1.5 
C -0.397805 -1.5 -0.77937 -1.341951 -1.06066 -1.06066 
C -1.341951 -0.77937 -1.5 -0.397805 -1.5 0 
C -1.5 0.397805 -1.341951 0.77937 -1.06066 1.06066 
C -0.77937 1.341951 -0.397805 1.5 0 1.5 
z
" id="m5378f96678" style="stroke:#dbcd00;"/>
    </defs>
    <g clip-path="url(#p03d7f35a2b)">
     <use style="fill:#dbcd00;stroke:#dbcd00;" x="105.354773" xlink:href="#m5378f96678" y="478.313147"/>
     <use style="fill:#dbcd00;stroke:#dbcd00;" x="110.722738" xlink:href="#m5378f96678" y="478.313147"/>
     <use style="fill:#dbcd00;stroke:#dbcd00;" x="116.090703" xlink:href="#m5378f96678" y="478.313147"/>
     <use style="fill:#dbcd00;stroke:#dbcd00;" x="121.458669" xlink:href="#m5378f96678" y="474.799271"/>
     <use style="fill:#dbcd00;stroke:#dbcd00;" x="126.826634" xlink:href="#m5378f96678" y="474.799271"/>
     <use style="fill:#dbcd00;stroke:#dbcd00;" x="132.1946" xlink:href="#m5378f96678" y="468.942812"/>
     <use style="fill:#dbcd00;stroke:#dbcd00;" x="137.562565" xlink:href="#m5378f96678" y="468.942812"/>
     <use style="fill:#dbcd00;stroke:#dbcd00;" x="142.93053" xlink:href="#m5378f96678" y="468.942812"/>
     <use style="fill:#dbcd00;stroke:#dbcd00;" x="148.298496" xlink:href="#m5378f96678" y="468.942812"/>
     <use style="fill:#dbcd00;stroke:#dbcd00;" x="153.666461" xlink:href="#m5378f96678" y="467.77152"/>
     <use style="fill:#dbcd00;stroke:#dbcd00;" x="159.034426" xlink:href="#m5378f96678" y="464.257645"/>
     <use style="fill:#dbcd00;stroke:#dbcd00;" x="164.402392" xlink:href="#m5378f96678" y="456.058602"/>
     <use style="fill:#dbcd00;stroke:#dbcd00;" x="169.770357" xlink:href="#m5378f96678" y="450.202142"/>
     <use style="fill:#dbcd00;stroke:#dbcd00;" x="175.138323" xlink:href="#m5378f96678" y="450.202142"/>
     <use style="fill:#dbcd00;stroke:#dbcd00;" x="180.506288" xlink:href="#m5378f96678" y="449.03085"/>
     <use style="fill:#dbcd00;stroke:#dbcd00;" x="185.874253" xlink:href="#m5378f96678" y="449.03085"/>
     <use style="fill:#dbcd00;stroke:#dbcd00;" x="191.242219" xlink:href="#m5378f96678" y="445.516975"/>
     <use style="fill:#dbcd00;stroke:#dbcd00;" x="196.610184" xlink:href="#m5378f96678" y="443.174391"/>
     <use style="fill:#dbcd00;stroke:#dbcd00;" x="201.978149" xlink:href="#m5378f96678" y="437.317932"/>
     <use style="fill:#dbcd00;stroke:#dbcd00;" x="212.71408" xlink:href="#m5378f96678" y="434.975348"/>
     <use style="fill:#dbcd00;stroke:#dbcd00;" x="223.450011" xlink:href="#m5378f96678" y="430.290181"/>
     <use style="fill:#dbcd00;stroke:#dbcd00;" x="228.817976" xlink:href="#m5378f96678" y="429.118889"/>
     <use style="fill:#dbcd00;stroke:#dbcd00;" x="234.185942" xlink:href="#m5378f96678" y="429.118889"/>
     <use style="fill:#dbcd00;stroke:#dbcd00;" x="239.553907" xlink:href="#m5378f96678" y="420.919846"/>
     <use style="fill:#dbcd00;stroke:#dbcd00;" x="244.921872" xlink:href="#m5378f96678" y="420.919846"/>
     <use style="fill:#dbcd00;stroke:#dbcd00;" x="255.657803" xlink:href="#m5378f96678" y="415.063386"/>
     <use style="fill:#dbcd00;stroke:#dbcd00;" x="261.025768" xlink:href="#m5378f96678" y="411.549511"/>
     <use style="fill:#dbcd00;stroke:#dbcd00;" x="266.393734" xlink:href="#m5378f96678" y="408.035635"/>
     <use style="fill:#dbcd00;stroke:#dbcd00;" x="271.761699" xlink:href="#m5378f96678" y="399.836592"/>
     <use style="fill:#dbcd00;stroke:#dbcd00;" x="277.129665" xlink:href="#m5378f96678" y="398.6653"/>
     <use style="fill:#dbcd00;stroke:#dbcd00;" x="282.49763" xlink:href="#m5378f96678" y="397.494008"/>
     <use style="fill:#dbcd00;stroke:#dbcd00;" x="293.233561" xlink:href="#m5378f96678" y="386.952382"/>
     <use style="fill:#dbcd00;stroke:#dbcd00;" x="298.601526" xlink:href="#m5378f96678" y="379.92463"/>
     <use style="fill:#dbcd00;stroke:#dbcd00;" x="303.969491" xlink:href="#m5378f96678" y="376.410755"/>
     <use style="fill:#dbcd00;stroke:#dbcd00;" x="309.337457" xlink:href="#m5378f96678" y="369.383004"/>
     <use style="fill:#dbcd00;stroke:#dbcd00;" x="320.073387" xlink:href="#m5378f96678" y="365.869128"/>
     <use style="fill:#dbcd00;stroke:#dbcd00;" x="330.809318" xlink:href="#m5378f96678" y="356.498793"/>
     <use style="fill:#dbcd00;stroke:#dbcd00;" x="336.177284" xlink:href="#m5378f96678" y="350.642334"/>
     <use style="fill:#dbcd00;stroke:#dbcd00;" x="341.545249" xlink:href="#m5378f96678" y="347.128458"/>
     <use style="fill:#dbcd00;stroke:#dbcd00;" x="346.913214" xlink:href="#m5378f96678" y="341.271999"/>
     <use style="fill:#dbcd00;stroke:#dbcd00;" x="352.28118" xlink:href="#m5378f96678" y="340.100707"/>
     <use style="fill:#dbcd00;stroke:#dbcd00;" x="357.649145" xlink:href="#m5378f96678" y="331.901664"/>
     <use style="fill:#dbcd00;stroke:#dbcd00;" x="368.385076" xlink:href="#m5378f96678" y="326.045204"/>
     <use style="fill:#dbcd00;stroke:#dbcd00;" x="373.753041" xlink:href="#m5378f96678" y="323.702621"/>
     <use style="fill:#dbcd00;stroke:#dbcd00;" x="379.121006" xlink:href="#m5378f96678" y="315.503578"/>
     <use style="fill:#dbcd00;stroke:#dbcd00;" x="384.488972" xlink:href="#m5378f96678" y="315.503578"/>
     <use style="fill:#dbcd00;stroke:#dbcd00;" x="389.856937" xlink:href="#m5378f96678" y="307.304535"/>
     <use style="fill:#dbcd00;stroke:#dbcd00;" x="395.224903" xlink:href="#m5378f96678" y="299.105492"/>
     <use style="fill:#dbcd00;stroke:#dbcd00;" x="405.960833" xlink:href="#m5378f96678" y="292.07774"/>
     <use style="fill:#dbcd00;stroke:#dbcd00;" x="411.328799" xlink:href="#m5378f96678" y="289.735157"/>
     <use style="fill:#dbcd00;stroke:#dbcd00;" x="416.696764" xlink:href="#m5378f96678" y="286.221281"/>
     <use style="fill:#dbcd00;stroke:#dbcd00;" x="427.432695" xlink:href="#m5378f96678" y="279.19353"/>
     <use style="fill:#dbcd00;stroke:#dbcd00;" x="432.80066" xlink:href="#m5378f96678" y="276.850946"/>
     <use style="fill:#dbcd00;stroke:#dbcd00;" x="443.536591" xlink:href="#m5378f96678" y="275.679654"/>
     <use style="fill:#dbcd00;stroke:#dbcd00;" x="448.904556" xlink:href="#m5378f96678" y="275.679654"/>
     <use style="fill:#dbcd00;stroke:#dbcd00;" x="459.640487" xlink:href="#m5378f96678" y="272.165779"/>
     <use style="fill:#dbcd00;stroke:#dbcd00;" x="465.008452" xlink:href="#m5378f96678" y="268.651903"/>
     <use style="fill:#dbcd00;stroke:#dbcd00;" x="486.480314" xlink:href="#m5378f96678" y="266.309319"/>
     <use style="fill:#dbcd00;stroke:#dbcd00;" x="491.848279" xlink:href="#m5378f96678" y="262.795444"/>
     <use style="fill:#dbcd00;stroke:#dbcd00;" x="497.216245" xlink:href="#m5378f96678" y="261.624152"/>
     <use style="fill:#dbcd00;stroke:#dbcd00;" x="502.58421" xlink:href="#m5378f96678" y="259.281568"/>
     <use style="fill:#dbcd00;stroke:#dbcd00;" x="507.952175" xlink:href="#m5378f96678" y="259.281568"/>
     <use style="fill:#dbcd00;stroke:#dbcd00;" x="518.688106" xlink:href="#m5378f96678" y="259.281568"/>
     <use style="fill:#dbcd00;stroke:#dbcd00;" x="524.056071" xlink:href="#m5378f96678" y="256.938984"/>
     <use style="fill:#dbcd00;stroke:#dbcd00;" x="529.424037" xlink:href="#m5378f96678" y="255.767693"/>
     <use style="fill:#dbcd00;stroke:#dbcd00;" x="540.159968" xlink:href="#m5378f96678" y="251.082525"/>
     <use style="fill:#dbcd00;stroke:#dbcd00;" x="545.527933" xlink:href="#m5378f96678" y="249.911233"/>
     <use style="fill:#dbcd00;stroke:#dbcd00;" x="556.263864" xlink:href="#m5378f96678" y="249.911233"/>
     <use style="fill:#dbcd00;stroke:#dbcd00;" x="566.999794" xlink:href="#m5378f96678" y="249.911233"/>
     <use style="fill:#dbcd00;stroke:#dbcd00;" x="577.735725" xlink:href="#m5378f96678" y="242.883482"/>
     <use style="fill:#dbcd00;stroke:#dbcd00;" x="583.10369" xlink:href="#m5378f96678" y="242.883482"/>
     <use style="fill:#dbcd00;stroke:#dbcd00;" x="593.839621" xlink:href="#m5378f96678" y="241.71219"/>
     <use style="fill:#dbcd00;stroke:#dbcd00;" x="599.207587" xlink:href="#m5378f96678" y="240.540898"/>
     <use style="fill:#dbcd00;stroke:#dbcd00;" x="604.575552" xlink:href="#m5378f96678" y="239.369606"/>
     <use style="fill:#dbcd00;stroke:#dbcd00;" x="609.943517" xlink:href="#m5378f96678" y="239.369606"/>
     <use style="fill:#dbcd00;stroke:#dbcd00;" x="620.679448" xlink:href="#m5378f96678" y="239.369606"/>
     <use style="fill:#dbcd00;stroke:#dbcd00;" x="631.415379" xlink:href="#m5378f96678" y="239.369606"/>
     <use style="fill:#dbcd00;stroke:#dbcd00;" x="636.783344" xlink:href="#m5378f96678" y="239.369606"/>
     <use style="fill:#dbcd00;stroke:#dbcd00;" x="642.15131" xlink:href="#m5378f96678" y="239.369606"/>
     <use style="fill:#dbcd00;stroke:#dbcd00;" x="647.519275" xlink:href="#m5378f96678" y="239.369606"/>
     <use style="fill:#dbcd00;stroke:#dbcd00;" x="652.88724" xlink:href="#m5378f96678" y="239.369606"/>
     <use style="fill:#dbcd00;stroke:#dbcd00;" x="658.255206" xlink:href="#m5378f96678" y="239.369606"/>
     <use style="fill:#dbcd00;stroke:#dbcd00;" x="674.359102" xlink:href="#m5378f96678" y="239.369606"/>
     <use style="fill:#dbcd00;stroke:#dbcd00;" x="679.727067" xlink:href="#m5378f96678" y="239.369606"/>
     <use style="fill:#dbcd00;stroke:#dbcd00;" x="685.095032" xlink:href="#m5378f96678" y="239.369606"/>
     <use style="fill:#dbcd00;stroke:#dbcd00;" x="690.462998" xlink:href="#m5378f96678" y="239.369606"/>
     <use style="fill:#dbcd00;stroke:#dbcd00;" x="706.566894" xlink:href="#m5378f96678" y="235.855731"/>
     <use style="fill:#dbcd00;stroke:#dbcd00;" x="711.934859" xlink:href="#m5378f96678" y="233.513147"/>
     <use style="fill:#dbcd00;stroke:#dbcd00;" x="717.302825" xlink:href="#m5378f96678" y="232.341855"/>
     <use style="fill:#dbcd00;stroke:#dbcd00;" x="722.67079" xlink:href="#m5378f96678" y="229.999271"/>
     <use style="fill:#dbcd00;stroke:#dbcd00;" x="728.038755" xlink:href="#m5378f96678" y="229.999271"/>
     <use style="fill:#dbcd00;stroke:#dbcd00;" x="744.142652" xlink:href="#m5378f96678" y="227.656688"/>
     <use style="fill:#dbcd00;stroke:#dbcd00;" x="760.246548" xlink:href="#m5378f96678" y="221.800228"/>
     <use style="fill:#dbcd00;stroke:#dbcd00;" x="765.614513" xlink:href="#m5378f96678" y="221.800228"/>
     <use style="fill:#dbcd00;stroke:#dbcd00;" x="781.718409" xlink:href="#m5378f96678" y="221.800228"/>
     <use style="fill:#dbcd00;stroke:#dbcd00;" x="787.086374" xlink:href="#m5378f96678" y="221.800228"/>
     <use style="fill:#dbcd00;stroke:#dbcd00;" x="792.45434" xlink:href="#m5378f96678" y="221.800228"/>
     <use style="fill:#dbcd00;stroke:#dbcd00;" x="797.822305" xlink:href="#m5378f96678" y="221.800228"/>
     <use style="fill:#dbcd00;stroke:#dbcd00;" x="803.190271" xlink:href="#m5378f96678" y="221.800228"/>
     <use style="fill:#dbcd00;stroke:#dbcd00;" x="856.869924" xlink:href="#m5378f96678" y="190.175348"/>
     <use style="fill:#dbcd00;stroke:#dbcd00;" x="862.23789" xlink:href="#m5378f96678" y="180.805013"/>
     <use style="fill:#dbcd00;stroke:#dbcd00;" x="872.97382" xlink:href="#m5378f96678" y="176.119846"/>
     <use style="fill:#dbcd00;stroke:#dbcd00;" x="878.341786" xlink:href="#m5378f96678" y="176.119846"/>
     <use style="fill:#dbcd00;stroke:#dbcd00;" x="894.445682" xlink:href="#m5378f96678" y="167.920803"/>
     <use style="fill:#dbcd00;stroke:#dbcd00;" x="899.813647" xlink:href="#m5378f96678" y="162.064343"/>
     <use style="fill:#dbcd00;stroke:#dbcd00;" x="905.181613" xlink:href="#m5378f96678" y="160.893051"/>
     <use style="fill:#dbcd00;stroke:#dbcd00;" x="910.549578" xlink:href="#m5378f96678" y="158.550468"/>
     <use style="fill:#dbcd00;stroke:#dbcd00;" x="915.917543" xlink:href="#m5378f96678" y="158.550468"/>
     <use style="fill:#dbcd00;stroke:#dbcd00;" x="932.021439" xlink:href="#m5378f96678" y="157.379176"/>
     <use style="fill:#dbcd00;stroke:#dbcd00;" x="937.389405" xlink:href="#m5378f96678" y="155.036592"/>
     <use style="fill:#dbcd00;stroke:#dbcd00;" x="942.75737" xlink:href="#m5378f96678" y="153.8653"/>
     <use style="fill:#dbcd00;stroke:#dbcd00;" x="948.125335" xlink:href="#m5378f96678" y="150.351425"/>
     <use style="fill:#dbcd00;stroke:#dbcd00;" x="953.493301" xlink:href="#m5378f96678" y="145.666257"/>
     <use style="fill:#dbcd00;stroke:#dbcd00;" x="969.597197" xlink:href="#m5378f96678" y="144.494965"/>
     <use style="fill:#dbcd00;stroke:#dbcd00;" x="974.965162" xlink:href="#m5378f96678" y="144.494965"/>
     <use style="fill:#dbcd00;stroke:#dbcd00;" x="980.333128" xlink:href="#m5378f96678" y="142.152382"/>
     <use style="fill:#dbcd00;stroke:#dbcd00;" x="985.701093" xlink:href="#m5378f96678" y="138.638506"/>
     <use style="fill:#dbcd00;stroke:#dbcd00;" x="991.069058" xlink:href="#m5378f96678" y="138.638506"/>
     <use style="fill:#dbcd00;stroke:#dbcd00;" x="1007.172955" xlink:href="#m5378f96678" y="131.610755"/>
     <use style="fill:#dbcd00;stroke:#dbcd00;" x="1012.54092" xlink:href="#m5378f96678" y="129.268171"/>
     <use style="fill:#dbcd00;stroke:#dbcd00;" x="1017.908885" xlink:href="#m5378f96678" y="128.096879"/>
     <use style="fill:#dbcd00;stroke:#dbcd00;" x="1023.276851" xlink:href="#m5378f96678" y="128.096879"/>
     <use style="fill:#dbcd00;stroke:#dbcd00;" x="1028.644816" xlink:href="#m5378f96678" y="123.411712"/>
     <use style="fill:#dbcd00;stroke:#dbcd00;" x="1044.748712" xlink:href="#m5378f96678" y="123.411712"/>
     <use style="fill:#dbcd00;stroke:#dbcd00;" x="1050.116677" xlink:href="#m5378f96678" y="123.411712"/>
     <use style="fill:#dbcd00;stroke:#dbcd00;" x="1055.484643" xlink:href="#m5378f96678" y="122.24042"/>
     <use style="fill:#dbcd00;stroke:#dbcd00;" x="1060.852608" xlink:href="#m5378f96678" y="118.726544"/>
     <use style="fill:#dbcd00;stroke:#dbcd00;" x="1066.220574" xlink:href="#m5378f96678" y="118.726544"/>
     <use style="fill:#dbcd00;stroke:#dbcd00;" x="1082.32447" xlink:href="#m5378f96678" y="116.38396"/>
     <use style="fill:#dbcd00;stroke:#dbcd00;" x="1087.692435" xlink:href="#m5378f96678" y="116.38396"/>
     <use style="fill:#dbcd00;stroke:#dbcd00;" x="1093.0604" xlink:href="#m5378f96678" y="114.041377"/>
     <use style="fill:#dbcd00;stroke:#dbcd00;" x="1098.428366" xlink:href="#m5378f96678" y="111.698793"/>
     <use style="fill:#dbcd00;stroke:#dbcd00;" x="1103.796331" xlink:href="#m5378f96678" y="110.527501"/>
     <use style="fill:#dbcd00;stroke:#dbcd00;" x="1119.900227" xlink:href="#m5378f96678" y="108.184917"/>
    </g>
   </g>
   <g id="line2d_19">
    <path clip-path="url(#p03d7f35a2b)" d="M 105.354773 463.086353 
L 110.722738 461.915061 
L 116.090703 453.716018 
L 121.458669 460.743769 
L 126.826634 456.058602 
L 132.1946 450.202142 
L 137.562565 449.03085 
L 142.93053 446.688267 
L 148.298496 442.003099 
L 153.666461 442.003099 
L 159.034426 438.489224 
L 164.402392 442.003099 
L 169.770357 442.003099 
L 175.138323 440.831807 
L 180.506288 437.317932 
L 191.242219 427.947597 
L 196.610184 425.605013 
L 201.978149 427.947597 
L 212.71408 427.947597 
L 223.450011 426.776305 
L 228.817976 420.919846 
L 234.185942 419.748554 
L 239.553907 423.262429 
L 244.921872 419.748554 
L 255.657803 420.919846 
L 261.025768 413.892094 
L 266.393734 417.40597 
L 271.761699 422.091137 
L 277.129665 420.919846 
L 282.49763 406.864343 
L 293.233561 415.063386 
L 298.601526 419.748554 
L 303.969491 422.091137 
L 309.337457 426.776305 
L 320.073387 420.919846 
L 330.809318 430.290181 
L 336.177284 420.919846 
L 341.545249 416.234678 
L 346.913214 422.091137 
L 352.28118 423.262429 
L 357.649145 429.118889 
L 368.385076 433.804056 
L 373.753041 434.975348 
L 379.121006 437.317932 
L 384.488972 437.317932 
L 389.856937 445.516975 
L 395.224903 451.373434 
L 405.960833 458.401185 
L 411.328799 459.572477 
L 427.432695 470.114104 
L 443.536591 466.600228 
L 448.904556 466.600228 
L 459.640487 467.77152 
L 465.008452 471.285396 
L 486.480314 467.77152 
L 491.848279 470.114104 
L 497.216245 468.942812 
L 502.58421 472.456688 
L 518.688106 472.456688 
L 524.056071 474.799271 
L 529.424037 472.456688 
L 540.159968 474.799271 
L 545.527933 473.62798 
L 566.999794 473.62798 
L 577.735725 480.655731 
L 583.10369 479.484439 
L 593.839621 480.655731 
L 599.207587 480.655731 
L 604.575552 482.998315 
L 636.783344 482.998315 
L 652.88724 479.484439 
L 658.255206 474.799271 
L 674.359102 474.799271 
L 679.727067 472.456688 
L 706.566894 472.456688 
L 711.934859 474.799271 
L 717.302825 475.970563 
L 722.67079 478.313147 
L 728.038755 473.62798 
L 744.142652 473.62798 
L 760.246548 468.942812 
L 765.614513 468.942812 
L 781.718409 454.88731 
L 792.45434 454.88731 
L 797.822305 451.373434 
L 803.190271 434.975348 
L 856.869924 447.859559 
L 862.23789 457.229893 
L 872.97382 459.572477 
L 894.445682 459.572477 
L 899.813647 465.428937 
L 905.181613 466.600228 
L 910.549578 468.942812 
L 915.917543 466.600228 
L 932.021439 464.257645 
L 937.389405 466.600228 
L 942.75737 466.600228 
L 953.493301 468.942812 
L 969.597197 468.942812 
L 980.333128 466.600228 
L 985.701093 470.114104 
L 991.069058 467.77152 
L 1007.172955 468.942812 
L 1012.54092 471.285396 
L 1017.908885 465.428937 
L 1023.276851 465.428937 
L 1028.644816 468.942812 
L 1044.748712 467.77152 
L 1050.116677 466.600228 
L 1055.484643 466.600228 
L 1060.852608 470.114104 
L 1066.220574 470.114104 
L 1082.32447 463.086353 
L 1087.692435 463.086353 
L 1098.428366 465.428937 
L 1103.796331 459.572477 
L 1119.900227 449.03085 
L 1119.900227 449.03085 
" style="fill:none;stroke:#2792cb;stroke-linecap:square;stroke-width:2;"/>
    <defs>
     <path d="M 0 1.5 
C 0.397805 1.5 0.77937 1.341951 1.06066 1.06066 
C 1.341951 0.77937 1.5 0.397805 1.5 0 
C 1.5 -0.397805 1.341951 -0.77937 1.06066 -1.06066 
C 0.77937 -1.341951 0.397805 -1.5 0 -1.5 
C -0.397805 -1.5 -0.77937 -1.341951 -1.06066 -1.06066 
C -1.341951 -0.77937 -1.5 -0.397805 -1.5 0 
C -1.5 0.397805 -1.341951 0.77937 -1.06066 1.06066 
C -0.77937 1.341951 -0.397805 1.5 0 1.5 
z
" id="m2d7da416f7" style="stroke:#2792cb;"/>
    </defs>
    <g clip-path="url(#p03d7f35a2b)">
     <use style="fill:#2792cb;stroke:#2792cb;" x="105.354773" xlink:href="#m2d7da416f7" y="463.086353"/>
     <use style="fill:#2792cb;stroke:#2792cb;" x="110.722738" xlink:href="#m2d7da416f7" y="461.915061"/>
     <use style="fill:#2792cb;stroke:#2792cb;" x="116.090703" xlink:href="#m2d7da416f7" y="453.716018"/>
     <use style="fill:#2792cb;stroke:#2792cb;" x="121.458669" xlink:href="#m2d7da416f7" y="460.743769"/>
     <use style="fill:#2792cb;stroke:#2792cb;" x="126.826634" xlink:href="#m2d7da416f7" y="456.058602"/>
     <use style="fill:#2792cb;stroke:#2792cb;" x="132.1946" xlink:href="#m2d7da416f7" y="450.202142"/>
     <use style="fill:#2792cb;stroke:#2792cb;" x="137.562565" xlink:href="#m2d7da416f7" y="449.03085"/>
     <use style="fill:#2792cb;stroke:#2792cb;" x="142.93053" xlink:href="#m2d7da416f7" y="446.688267"/>
     <use style="fill:#2792cb;stroke:#2792cb;" x="148.298496" xlink:href="#m2d7da416f7" y="442.003099"/>
     <use style="fill:#2792cb;stroke:#2792cb;" x="153.666461" xlink:href="#m2d7da416f7" y="442.003099"/>
     <use style="fill:#2792cb;stroke:#2792cb;" x="159.034426" xlink:href="#m2d7da416f7" y="438.489224"/>
     <use style="fill:#2792cb;stroke:#2792cb;" x="164.402392" xlink:href="#m2d7da416f7" y="442.003099"/>
     <use style="fill:#2792cb;stroke:#2792cb;" x="169.770357" xlink:href="#m2d7da416f7" y="442.003099"/>
     <use style="fill:#2792cb;stroke:#2792cb;" x="175.138323" xlink:href="#m2d7da416f7" y="440.831807"/>
     <use style="fill:#2792cb;stroke:#2792cb;" x="180.506288" xlink:href="#m2d7da416f7" y="437.317932"/>
     <use style="fill:#2792cb;stroke:#2792cb;" x="185.874253" xlink:href="#m2d7da416f7" y="432.632764"/>
     <use style="fill:#2792cb;stroke:#2792cb;" x="191.242219" xlink:href="#m2d7da416f7" y="427.947597"/>
     <use style="fill:#2792cb;stroke:#2792cb;" x="196.610184" xlink:href="#m2d7da416f7" y="425.605013"/>
     <use style="fill:#2792cb;stroke:#2792cb;" x="201.978149" xlink:href="#m2d7da416f7" y="427.947597"/>
     <use style="fill:#2792cb;stroke:#2792cb;" x="212.71408" xlink:href="#m2d7da416f7" y="427.947597"/>
     <use style="fill:#2792cb;stroke:#2792cb;" x="223.450011" xlink:href="#m2d7da416f7" y="426.776305"/>
     <use style="fill:#2792cb;stroke:#2792cb;" x="228.817976" xlink:href="#m2d7da416f7" y="420.919846"/>
     <use style="fill:#2792cb;stroke:#2792cb;" x="234.185942" xlink:href="#m2d7da416f7" y="419.748554"/>
     <use style="fill:#2792cb;stroke:#2792cb;" x="239.553907" xlink:href="#m2d7da416f7" y="423.262429"/>
     <use style="fill:#2792cb;stroke:#2792cb;" x="244.921872" xlink:href="#m2d7da416f7" y="419.748554"/>
     <use style="fill:#2792cb;stroke:#2792cb;" x="255.657803" xlink:href="#m2d7da416f7" y="420.919846"/>
     <use style="fill:#2792cb;stroke:#2792cb;" x="261.025768" xlink:href="#m2d7da416f7" y="413.892094"/>
     <use style="fill:#2792cb;stroke:#2792cb;" x="266.393734" xlink:href="#m2d7da416f7" y="417.40597"/>
     <use style="fill:#2792cb;stroke:#2792cb;" x="271.761699" xlink:href="#m2d7da416f7" y="422.091137"/>
     <use style="fill:#2792cb;stroke:#2792cb;" x="277.129665" xlink:href="#m2d7da416f7" y="420.919846"/>
     <use style="fill:#2792cb;stroke:#2792cb;" x="282.49763" xlink:href="#m2d7da416f7" y="406.864343"/>
     <use style="fill:#2792cb;stroke:#2792cb;" x="293.233561" xlink:href="#m2d7da416f7" y="415.063386"/>
     <use style="fill:#2792cb;stroke:#2792cb;" x="298.601526" xlink:href="#m2d7da416f7" y="419.748554"/>
     <use style="fill:#2792cb;stroke:#2792cb;" x="303.969491" xlink:href="#m2d7da416f7" y="422.091137"/>
     <use style="fill:#2792cb;stroke:#2792cb;" x="309.337457" xlink:href="#m2d7da416f7" y="426.776305"/>
     <use style="fill:#2792cb;stroke:#2792cb;" x="320.073387" xlink:href="#m2d7da416f7" y="420.919846"/>
     <use style="fill:#2792cb;stroke:#2792cb;" x="330.809318" xlink:href="#m2d7da416f7" y="430.290181"/>
     <use style="fill:#2792cb;stroke:#2792cb;" x="336.177284" xlink:href="#m2d7da416f7" y="420.919846"/>
     <use style="fill:#2792cb;stroke:#2792cb;" x="341.545249" xlink:href="#m2d7da416f7" y="416.234678"/>
     <use style="fill:#2792cb;stroke:#2792cb;" x="346.913214" xlink:href="#m2d7da416f7" y="422.091137"/>
     <use style="fill:#2792cb;stroke:#2792cb;" x="352.28118" xlink:href="#m2d7da416f7" y="423.262429"/>
     <use style="fill:#2792cb;stroke:#2792cb;" x="357.649145" xlink:href="#m2d7da416f7" y="429.118889"/>
     <use style="fill:#2792cb;stroke:#2792cb;" x="368.385076" xlink:href="#m2d7da416f7" y="433.804056"/>
     <use style="fill:#2792cb;stroke:#2792cb;" x="373.753041" xlink:href="#m2d7da416f7" y="434.975348"/>
     <use style="fill:#2792cb;stroke:#2792cb;" x="379.121006" xlink:href="#m2d7da416f7" y="437.317932"/>
     <use style="fill:#2792cb;stroke:#2792cb;" x="384.488972" xlink:href="#m2d7da416f7" y="437.317932"/>
     <use style="fill:#2792cb;stroke:#2792cb;" x="389.856937" xlink:href="#m2d7da416f7" y="445.516975"/>
     <use style="fill:#2792cb;stroke:#2792cb;" x="395.224903" xlink:href="#m2d7da416f7" y="451.373434"/>
     <use style="fill:#2792cb;stroke:#2792cb;" x="405.960833" xlink:href="#m2d7da416f7" y="458.401185"/>
     <use style="fill:#2792cb;stroke:#2792cb;" x="411.328799" xlink:href="#m2d7da416f7" y="459.572477"/>
     <use style="fill:#2792cb;stroke:#2792cb;" x="416.696764" xlink:href="#m2d7da416f7" y="463.086353"/>
     <use style="fill:#2792cb;stroke:#2792cb;" x="427.432695" xlink:href="#m2d7da416f7" y="470.114104"/>
     <use style="fill:#2792cb;stroke:#2792cb;" x="432.80066" xlink:href="#m2d7da416f7" y="468.942812"/>
     <use style="fill:#2792cb;stroke:#2792cb;" x="443.536591" xlink:href="#m2d7da416f7" y="466.600228"/>
     <use style="fill:#2792cb;stroke:#2792cb;" x="448.904556" xlink:href="#m2d7da416f7" y="466.600228"/>
     <use style="fill:#2792cb;stroke:#2792cb;" x="459.640487" xlink:href="#m2d7da416f7" y="467.77152"/>
     <use style="fill:#2792cb;stroke:#2792cb;" x="465.008452" xlink:href="#m2d7da416f7" y="471.285396"/>
     <use style="fill:#2792cb;stroke:#2792cb;" x="486.480314" xlink:href="#m2d7da416f7" y="467.77152"/>
     <use style="fill:#2792cb;stroke:#2792cb;" x="491.848279" xlink:href="#m2d7da416f7" y="470.114104"/>
     <use style="fill:#2792cb;stroke:#2792cb;" x="497.216245" xlink:href="#m2d7da416f7" y="468.942812"/>
     <use style="fill:#2792cb;stroke:#2792cb;" x="502.58421" xlink:href="#m2d7da416f7" y="472.456688"/>
     <use style="fill:#2792cb;stroke:#2792cb;" x="507.952175" xlink:href="#m2d7da416f7" y="472.456688"/>
     <use style="fill:#2792cb;stroke:#2792cb;" x="518.688106" xlink:href="#m2d7da416f7" y="472.456688"/>
     <use style="fill:#2792cb;stroke:#2792cb;" x="524.056071" xlink:href="#m2d7da416f7" y="474.799271"/>
     <use style="fill:#2792cb;stroke:#2792cb;" x="529.424037" xlink:href="#m2d7da416f7" y="472.456688"/>
     <use style="fill:#2792cb;stroke:#2792cb;" x="540.159968" xlink:href="#m2d7da416f7" y="474.799271"/>
     <use style="fill:#2792cb;stroke:#2792cb;" x="545.527933" xlink:href="#m2d7da416f7" y="473.62798"/>
     <use style="fill:#2792cb;stroke:#2792cb;" x="556.263864" xlink:href="#m2d7da416f7" y="473.62798"/>
     <use style="fill:#2792cb;stroke:#2792cb;" x="566.999794" xlink:href="#m2d7da416f7" y="473.62798"/>
     <use style="fill:#2792cb;stroke:#2792cb;" x="577.735725" xlink:href="#m2d7da416f7" y="480.655731"/>
     <use style="fill:#2792cb;stroke:#2792cb;" x="583.10369" xlink:href="#m2d7da416f7" y="479.484439"/>
     <use style="fill:#2792cb;stroke:#2792cb;" x="593.839621" xlink:href="#m2d7da416f7" y="480.655731"/>
     <use style="fill:#2792cb;stroke:#2792cb;" x="599.207587" xlink:href="#m2d7da416f7" y="480.655731"/>
     <use style="fill:#2792cb;stroke:#2792cb;" x="604.575552" xlink:href="#m2d7da416f7" y="482.998315"/>
     <use style="fill:#2792cb;stroke:#2792cb;" x="609.943517" xlink:href="#m2d7da416f7" y="482.998315"/>
     <use style="fill:#2792cb;stroke:#2792cb;" x="620.679448" xlink:href="#m2d7da416f7" y="482.998315"/>
     <use style="fill:#2792cb;stroke:#2792cb;" x="631.415379" xlink:href="#m2d7da416f7" y="482.998315"/>
     <use style="fill:#2792cb;stroke:#2792cb;" x="636.783344" xlink:href="#m2d7da416f7" y="482.998315"/>
     <use style="fill:#2792cb;stroke:#2792cb;" x="642.15131" xlink:href="#m2d7da416f7" y="481.827023"/>
     <use style="fill:#2792cb;stroke:#2792cb;" x="647.519275" xlink:href="#m2d7da416f7" y="480.655731"/>
     <use style="fill:#2792cb;stroke:#2792cb;" x="652.88724" xlink:href="#m2d7da416f7" y="479.484439"/>
     <use style="fill:#2792cb;stroke:#2792cb;" x="658.255206" xlink:href="#m2d7da416f7" y="474.799271"/>
     <use style="fill:#2792cb;stroke:#2792cb;" x="674.359102" xlink:href="#m2d7da416f7" y="474.799271"/>
     <use style="fill:#2792cb;stroke:#2792cb;" x="679.727067" xlink:href="#m2d7da416f7" y="472.456688"/>
     <use style="fill:#2792cb;stroke:#2792cb;" x="685.095032" xlink:href="#m2d7da416f7" y="472.456688"/>
     <use style="fill:#2792cb;stroke:#2792cb;" x="690.462998" xlink:href="#m2d7da416f7" y="472.456688"/>
     <use style="fill:#2792cb;stroke:#2792cb;" x="706.566894" xlink:href="#m2d7da416f7" y="472.456688"/>
     <use style="fill:#2792cb;stroke:#2792cb;" x="711.934859" xlink:href="#m2d7da416f7" y="474.799271"/>
     <use style="fill:#2792cb;stroke:#2792cb;" x="717.302825" xlink:href="#m2d7da416f7" y="475.970563"/>
     <use style="fill:#2792cb;stroke:#2792cb;" x="722.67079" xlink:href="#m2d7da416f7" y="478.313147"/>
     <use style="fill:#2792cb;stroke:#2792cb;" x="728.038755" xlink:href="#m2d7da416f7" y="473.62798"/>
     <use style="fill:#2792cb;stroke:#2792cb;" x="744.142652" xlink:href="#m2d7da416f7" y="473.62798"/>
     <use style="fill:#2792cb;stroke:#2792cb;" x="760.246548" xlink:href="#m2d7da416f7" y="468.942812"/>
     <use style="fill:#2792cb;stroke:#2792cb;" x="765.614513" xlink:href="#m2d7da416f7" y="468.942812"/>
     <use style="fill:#2792cb;stroke:#2792cb;" x="781.718409" xlink:href="#m2d7da416f7" y="454.88731"/>
     <use style="fill:#2792cb;stroke:#2792cb;" x="787.086374" xlink:href="#m2d7da416f7" y="454.88731"/>
     <use style="fill:#2792cb;stroke:#2792cb;" x="792.45434" xlink:href="#m2d7da416f7" y="454.88731"/>
     <use style="fill:#2792cb;stroke:#2792cb;" x="797.822305" xlink:href="#m2d7da416f7" y="451.373434"/>
     <use style="fill:#2792cb;stroke:#2792cb;" x="803.190271" xlink:href="#m2d7da416f7" y="434.975348"/>
     <use style="fill:#2792cb;stroke:#2792cb;" x="856.869924" xlink:href="#m2d7da416f7" y="447.859559"/>
     <use style="fill:#2792cb;stroke:#2792cb;" x="862.23789" xlink:href="#m2d7da416f7" y="457.229893"/>
     <use style="fill:#2792cb;stroke:#2792cb;" x="872.97382" xlink:href="#m2d7da416f7" y="459.572477"/>
     <use style="fill:#2792cb;stroke:#2792cb;" x="878.341786" xlink:href="#m2d7da416f7" y="459.572477"/>
     <use style="fill:#2792cb;stroke:#2792cb;" x="894.445682" xlink:href="#m2d7da416f7" y="459.572477"/>
     <use style="fill:#2792cb;stroke:#2792cb;" x="899.813647" xlink:href="#m2d7da416f7" y="465.428937"/>
     <use style="fill:#2792cb;stroke:#2792cb;" x="905.181613" xlink:href="#m2d7da416f7" y="466.600228"/>
     <use style="fill:#2792cb;stroke:#2792cb;" x="910.549578" xlink:href="#m2d7da416f7" y="468.942812"/>
     <use style="fill:#2792cb;stroke:#2792cb;" x="915.917543" xlink:href="#m2d7da416f7" y="466.600228"/>
     <use style="fill:#2792cb;stroke:#2792cb;" x="932.021439" xlink:href="#m2d7da416f7" y="464.257645"/>
     <use style="fill:#2792cb;stroke:#2792cb;" x="937.389405" xlink:href="#m2d7da416f7" y="466.600228"/>
     <use style="fill:#2792cb;stroke:#2792cb;" x="942.75737" xlink:href="#m2d7da416f7" y="466.600228"/>
     <use style="fill:#2792cb;stroke:#2792cb;" x="948.125335" xlink:href="#m2d7da416f7" y="467.77152"/>
     <use style="fill:#2792cb;stroke:#2792cb;" x="953.493301" xlink:href="#m2d7da416f7" y="468.942812"/>
     <use style="fill:#2792cb;stroke:#2792cb;" x="969.597197" xlink:href="#m2d7da416f7" y="468.942812"/>
     <use style="fill:#2792cb;stroke:#2792cb;" x="974.965162" xlink:href="#m2d7da416f7" y="467.77152"/>
     <use style="fill:#2792cb;stroke:#2792cb;" x="980.333128" xlink:href="#m2d7da416f7" y="466.600228"/>
     <use style="fill:#2792cb;stroke:#2792cb;" x="985.701093" xlink:href="#m2d7da416f7" y="470.114104"/>
     <use style="fill:#2792cb;stroke:#2792cb;" x="991.069058" xlink:href="#m2d7da416f7" y="467.77152"/>
     <use style="fill:#2792cb;stroke:#2792cb;" x="1007.172955" xlink:href="#m2d7da416f7" y="468.942812"/>
     <use style="fill:#2792cb;stroke:#2792cb;" x="1012.54092" xlink:href="#m2d7da416f7" y="471.285396"/>
     <use style="fill:#2792cb;stroke:#2792cb;" x="1017.908885" xlink:href="#m2d7da416f7" y="465.428937"/>
     <use style="fill:#2792cb;stroke:#2792cb;" x="1023.276851" xlink:href="#m2d7da416f7" y="465.428937"/>
     <use style="fill:#2792cb;stroke:#2792cb;" x="1028.644816" xlink:href="#m2d7da416f7" y="468.942812"/>
     <use style="fill:#2792cb;stroke:#2792cb;" x="1044.748712" xlink:href="#m2d7da416f7" y="467.77152"/>
     <use style="fill:#2792cb;stroke:#2792cb;" x="1050.116677" xlink:href="#m2d7da416f7" y="466.600228"/>
     <use style="fill:#2792cb;stroke:#2792cb;" x="1055.484643" xlink:href="#m2d7da416f7" y="466.600228"/>
     <use style="fill:#2792cb;stroke:#2792cb;" x="1060.852608" xlink:href="#m2d7da416f7" y="470.114104"/>
     <use style="fill:#2792cb;stroke:#2792cb;" x="1066.220574" xlink:href="#m2d7da416f7" y="470.114104"/>
     <use style="fill:#2792cb;stroke:#2792cb;" x="1082.32447" xlink:href="#m2d7da416f7" y="463.086353"/>
     <use style="fill:#2792cb;stroke:#2792cb;" x="1087.692435" xlink:href="#m2d7da416f7" y="463.086353"/>
     <use style="fill:#2792cb;stroke:#2792cb;" x="1093.0604" xlink:href="#m2d7da416f7" y="464.257645"/>
     <use style="fill:#2792cb;stroke:#2792cb;" x="1098.428366" xlink:href="#m2d7da416f7" y="465.428937"/>
     <use style="fill:#2792cb;stroke:#2792cb;" x="1103.796331" xlink:href="#m2d7da416f7" y="459.572477"/>
     <use style="fill:#2792cb;stroke:#2792cb;" x="1119.900227" xlink:href="#m2d7da416f7" y="449.03085"/>
    </g>
   </g>
   <g id="patch_3">
    <path d="M 54.6275 501.738984 
L 1170.6275 501.738984 
" style="fill:none;stroke:#000000;stroke-linecap:square;stroke-linejoin:miter;stroke-width:0.8;"/>
   </g>
   <g id="legend_1">
    <g id="line2d_20">
     <path d="M 1083.382188 25.237422 
L 1103.382188 25.237422 
" style="fill:none;stroke:#dbcd00;stroke-linecap:square;stroke-width:2;"/>
    </g>
    <g id="line2d_21">
     <g>
      <use style="fill:#dbcd00;stroke:#dbcd00;" x="1093.382188" xlink:href="#m5378f96678" y="25.237422"/>
     </g>
    </g>
    <g id="text_14">
     <!-- Genesene -->
     <defs>
      <path d="M 59.515625 10.40625 
L 59.515625 29.984375 
L 43.40625 29.984375 
L 43.40625 38.09375 
L 69.28125 38.09375 
L 69.28125 6.78125 
Q 63.578125 2.734375 56.6875 0.65625 
Q 49.8125 -1.421875 42 -1.421875 
Q 24.90625 -1.421875 15.25 8.5625 
Q 5.609375 18.5625 5.609375 36.375 
Q 5.609375 54.25 15.25 64.234375 
Q 24.90625 74.21875 42 74.21875 
Q 49.125 74.21875 55.546875 72.453125 
Q 61.96875 70.703125 67.390625 67.28125 
L 67.390625 56.78125 
Q 61.921875 61.421875 55.765625 63.765625 
Q 49.609375 66.109375 42.828125 66.109375 
Q 29.4375 66.109375 22.71875 58.640625 
Q 16.015625 51.171875 16.015625 36.375 
Q 16.015625 21.625 22.71875 14.15625 
Q 29.4375 6.6875 42.828125 6.6875 
Q 48.046875 6.6875 52.140625 7.59375 
Q 56.25 8.5 59.515625 10.40625 
z
" id="DejaVuSans-71"/>
      <path d="M 44.28125 53.078125 
L 44.28125 44.578125 
Q 40.484375 46.53125 36.375 47.5 
Q 32.28125 48.484375 27.875 48.484375 
Q 21.1875 48.484375 17.84375 46.4375 
Q 14.5 44.390625 14.5 40.28125 
Q 14.5 37.15625 16.890625 35.375 
Q 19.28125 33.59375 26.515625 31.984375 
L 29.59375 31.296875 
Q 39.15625 29.25 43.1875 25.515625 
Q 47.21875 21.78125 47.21875 15.09375 
Q 47.21875 7.46875 41.1875 3.015625 
Q 35.15625 -1.421875 24.609375 -1.421875 
Q 20.21875 -1.421875 15.453125 -0.5625 
Q 10.6875 0.296875 5.421875 2 
L 5.421875 11.28125 
Q 10.40625 8.6875 15.234375 7.390625 
Q 20.0625 6.109375 24.8125 6.109375 
Q 31.15625 6.109375 34.5625 8.28125 
Q 37.984375 10.453125 37.984375 14.40625 
Q 37.984375 18.0625 35.515625 20.015625 
Q 33.0625 21.96875 24.703125 23.78125 
L 21.578125 24.515625 
Q 13.234375 26.265625 9.515625 29.90625 
Q 5.8125 33.546875 5.8125 39.890625 
Q 5.8125 47.609375 11.28125 51.796875 
Q 16.75 56 26.8125 56 
Q 31.78125 56 36.171875 55.265625 
Q 40.578125 54.546875 44.28125 53.078125 
z
" id="DejaVuSans-115"/>
     </defs>
     <g transform="translate(1111.382188 28.737422)scale(0.1 -0.1)">
      <use xlink:href="#DejaVuSans-71"/>
      <use x="77.490234" xlink:href="#DejaVuSans-101"/>
      <use x="139.013672" xlink:href="#DejaVuSans-110"/>
      <use x="202.392578" xlink:href="#DejaVuSans-101"/>
      <use x="263.916016" xlink:href="#DejaVuSans-115"/>
      <use x="316.015625" xlink:href="#DejaVuSans-101"/>
      <use x="377.539062" xlink:href="#DejaVuSans-110"/>
      <use x="440.917969" xlink:href="#DejaVuSans-101"/>
     </g>
    </g>
    <g id="line2d_22">
     <path d="M 1083.382188 39.915547 
L 1103.382188 39.915547 
" style="fill:none;stroke:#2792cb;stroke-linecap:square;stroke-width:2;"/>
    </g>
    <g id="line2d_23">
     <g>
      <use style="fill:#2792cb;stroke:#2792cb;" x="1093.382188" xlink:href="#m2d7da416f7" y="39.915547"/>
     </g>
    </g>
    <g id="text_15">
     <!-- Erkrankte -->
     <defs>
      <path d="M 9.8125 72.90625 
L 55.90625 72.90625 
L 55.90625 64.59375 
L 19.671875 64.59375 
L 19.671875 43.015625 
L 54.390625 43.015625 
L 54.390625 34.71875 
L 19.671875 34.71875 
L 19.671875 8.296875 
L 56.78125 8.296875 
L 56.78125 0 
L 9.8125 0 
z
" id="DejaVuSans-69"/>
      <path d="M 41.109375 46.296875 
Q 39.59375 47.171875 37.8125 47.578125 
Q 36.03125 48 33.890625 48 
Q 26.265625 48 22.1875 43.046875 
Q 18.109375 38.09375 18.109375 28.8125 
L 18.109375 0 
L 9.078125 0 
L 9.078125 54.6875 
L 18.109375 54.6875 
L 18.109375 46.1875 
Q 20.953125 51.171875 25.484375 53.578125 
Q 30.03125 56 36.53125 56 
Q 37.453125 56 38.578125 55.875 
Q 39.703125 55.765625 41.0625 55.515625 
z
" id="DejaVuSans-114"/>
      <path d="M 9.078125 75.984375 
L 18.109375 75.984375 
L 18.109375 31.109375 
L 44.921875 54.6875 
L 56.390625 54.6875 
L 27.390625 29.109375 
L 57.625 0 
L 45.90625 0 
L 18.109375 26.703125 
L 18.109375 0 
L 9.078125 0 
z
" id="DejaVuSans-107"/>
      <path d="M 18.3125 70.21875 
L 18.3125 54.6875 
L 36.8125 54.6875 
L 36.8125 47.703125 
L 18.3125 47.703125 
L 18.3125 18.015625 
Q 18.3125 11.328125 20.140625 9.421875 
Q 21.96875 7.515625 27.59375 7.515625 
L 36.8125 7.515625 
L 36.8125 0 
L 27.59375 0 
Q 17.1875 0 13.234375 3.875 
Q 9.28125 7.765625 9.28125 18.015625 
L 9.28125 47.703125 
L 2.6875 47.703125 
L 2.6875 54.6875 
L 9.28125 54.6875 
L 9.28125 70.21875 
z
" id="DejaVuSans-116"/>
     </defs>
     <g transform="translate(1111.382188 43.415547)scale(0.1 -0.1)">
      <use xlink:href="#DejaVuSans-69"/>
      <use x="63.183594" xlink:href="#DejaVuSans-114"/>
      <use x="104.296875" xlink:href="#DejaVuSans-107"/>
      <use x="162.207031" xlink:href="#DejaVuSans-114"/>
      <use x="203.320312" xlink:href="#DejaVuSans-97"/>
      <use x="264.599609" xlink:href="#DejaVuSans-110"/>
      <use x="327.978516" xlink:href="#DejaVuSans-107"/>
      <use x="385.888672" xlink:href="#DejaVuSans-116"/>
      <use x="425.097656" xlink:href="#DejaVuSans-101"/>
     </g>
    </g>
   </g>
  </g>
 </g>
 <defs>
  <clipPath id="p03d7f35a2b">
   <rect height="489.6" width="1116" x="54.6275" y="12.138984"/>
  </clipPath>
 </defs>
</svg>
