<?xml version="1.0" encoding="utf-8" standalone="no"?>
<!DOCTYPE svg PUBLIC "-//W3C//DTD SVG 1.1//EN"
  "http://www.w3.org/Graphics/SVG/1.1/DTD/svg11.dtd">
<!-- Created with matplotlib (https://matplotlib.org/) -->
<svg height="553.993765pt" version="1.1" viewBox="0 0 1186.09875 553.993765" width="1186.09875pt" xmlns="http://www.w3.org/2000/svg" xmlns:xlink="http://www.w3.org/1999/xlink">
 <defs>
  <style type="text/css">
*{stroke-linecap:butt;stroke-linejoin:round;}
  </style>
 </defs>
 <g id="figure_1">
  <g id="patch_1">
   <path d="M 0 553.993765 
L 1186.09875 553.993765 
L 1186.09875 0 
L 0 0 
z
" style="fill:#ffffff;"/>
  </g>
  <g id="axes_1">
   <g id="patch_2">
    <path d="M 62.89875 501.738984 
L 1178.89875 501.738984 
L 1178.89875 12.138984 
L 62.89875 12.138984 
z
" style="fill:#ffffff;"/>
   </g>
   <g id="matplotlib.axis_1">
    <g id="xtick_1">
     <g id="line2d_1">
      <defs>
       <path d="M 0 0 
L 0 3.5 
" id="mcb3cf275d5" style="stroke:#000000;stroke-width:0.8;"/>
      </defs>
      <g>
       <use style="stroke:#000000;stroke-width:0.8;" x="66.136661" xlink:href="#mcb3cf275d5" y="501.738984"/>
      </g>
     </g>
     <g id="text_1">
      <!-- 2020-03 -->
      <defs>
       <path d="M 19.1875 8.296875 
L 53.609375 8.296875 
L 53.609375 0 
L 7.328125 0 
L 7.328125 8.296875 
Q 12.9375 14.109375 22.625 23.890625 
Q 32.328125 33.6875 34.8125 36.53125 
Q 39.546875 41.84375 41.421875 45.53125 
Q 43.3125 49.21875 43.3125 52.78125 
Q 43.3125 58.59375 39.234375 62.25 
Q 35.15625 65.921875 28.609375 65.921875 
Q 23.96875 65.921875 18.8125 64.3125 
Q 13.671875 62.703125 7.8125 59.421875 
L 7.8125 69.390625 
Q 13.765625 71.78125 18.9375 73 
Q 24.125 74.21875 28.421875 74.21875 
Q 39.75 74.21875 46.484375 68.546875 
Q 53.21875 62.890625 53.21875 53.421875 
Q 53.21875 48.921875 51.53125 44.890625 
Q 49.859375 40.875 45.40625 35.40625 
Q 44.1875 33.984375 37.640625 27.21875 
Q 31.109375 20.453125 19.1875 8.296875 
z
" id="DejaVuSans-50"/>
       <path d="M 31.78125 66.40625 
Q 24.171875 66.40625 20.328125 58.90625 
Q 16.5 51.421875 16.5 36.375 
Q 16.5 21.390625 20.328125 13.890625 
Q 24.171875 6.390625 31.78125 6.390625 
Q 39.453125 6.390625 43.28125 13.890625 
Q 47.125 21.390625 47.125 36.375 
Q 47.125 51.421875 43.28125 58.90625 
Q 39.453125 66.40625 31.78125 66.40625 
z
M 31.78125 74.21875 
Q 44.046875 74.21875 50.515625 64.515625 
Q 56.984375 54.828125 56.984375 36.375 
Q 56.984375 17.96875 50.515625 8.265625 
Q 44.046875 -1.421875 31.78125 -1.421875 
Q 19.53125 -1.421875 13.0625 8.265625 
Q 6.59375 17.96875 6.59375 36.375 
Q 6.59375 54.828125 13.0625 64.515625 
Q 19.53125 74.21875 31.78125 74.21875 
z
" id="DejaVuSans-48"/>
       <path d="M 4.890625 31.390625 
L 31.203125 31.390625 
L 31.203125 23.390625 
L 4.890625 23.390625 
z
" id="DejaVuSans-45"/>
       <path d="M 40.578125 39.3125 
Q 47.65625 37.796875 51.625 33 
Q 55.609375 28.21875 55.609375 21.1875 
Q 55.609375 10.40625 48.1875 4.484375 
Q 40.765625 -1.421875 27.09375 -1.421875 
Q 22.515625 -1.421875 17.65625 -0.515625 
Q 12.796875 0.390625 7.625 2.203125 
L 7.625 11.71875 
Q 11.71875 9.328125 16.59375 8.109375 
Q 21.484375 6.890625 26.8125 6.890625 
Q 36.078125 6.890625 40.9375 10.546875 
Q 45.796875 14.203125 45.796875 21.1875 
Q 45.796875 27.640625 41.28125 31.265625 
Q 36.765625 34.90625 28.71875 34.90625 
L 20.21875 34.90625 
L 20.21875 43.015625 
L 29.109375 43.015625 
Q 36.375 43.015625 40.234375 45.921875 
Q 44.09375 48.828125 44.09375 54.296875 
Q 44.09375 59.90625 40.109375 62.90625 
Q 36.140625 65.921875 28.71875 65.921875 
Q 24.65625 65.921875 20.015625 65.03125 
Q 15.375 64.15625 9.8125 62.3125 
L 9.8125 71.09375 
Q 15.4375 72.65625 20.34375 73.4375 
Q 25.25 74.21875 29.59375 74.21875 
Q 40.828125 74.21875 47.359375 69.109375 
Q 53.90625 64.015625 53.90625 55.328125 
Q 53.90625 49.265625 50.4375 45.09375 
Q 46.96875 40.921875 40.578125 39.3125 
z
" id="DejaVuSans-51"/>
      </defs>
      <g transform="translate(17.744394 544.452384)rotate(-30)scale(0.13 -0.13)">
       <use xlink:href="#DejaVuSans-50"/>
       <use x="63.623047" xlink:href="#DejaVuSans-48"/>
       <use x="127.246094" xlink:href="#DejaVuSans-50"/>
       <use x="190.869141" xlink:href="#DejaVuSans-48"/>
       <use x="254.492188" xlink:href="#DejaVuSans-45"/>
       <use x="290.576172" xlink:href="#DejaVuSans-48"/>
       <use x="354.199219" xlink:href="#DejaVuSans-51"/>
      </g>
     </g>
    </g>
    <g id="xtick_2">
     <g id="line2d_2">
      <g>
       <use style="stroke:#000000;stroke-width:0.8;" x="199.970317" xlink:href="#mcb3cf275d5" y="501.738984"/>
      </g>
     </g>
     <g id="text_2">
      <!-- 2020-04 -->
      <defs>
       <path d="M 37.796875 64.3125 
L 12.890625 25.390625 
L 37.796875 25.390625 
z
M 35.203125 72.90625 
L 47.609375 72.90625 
L 47.609375 25.390625 
L 58.015625 25.390625 
L 58.015625 17.1875 
L 47.609375 17.1875 
L 47.609375 0 
L 37.796875 0 
L 37.796875 17.1875 
L 4.890625 17.1875 
L 4.890625 26.703125 
z
" id="DejaVuSans-52"/>
      </defs>
      <g transform="translate(151.57805 544.452384)rotate(-30)scale(0.13 -0.13)">
       <use xlink:href="#DejaVuSans-50"/>
       <use x="63.623047" xlink:href="#DejaVuSans-48"/>
       <use x="127.246094" xlink:href="#DejaVuSans-50"/>
       <use x="190.869141" xlink:href="#DejaVuSans-48"/>
       <use x="254.492188" xlink:href="#DejaVuSans-45"/>
       <use x="290.576172" xlink:href="#DejaVuSans-48"/>
       <use x="354.199219" xlink:href="#DejaVuSans-52"/>
      </g>
     </g>
    </g>
    <g id="xtick_3">
     <g id="line2d_3">
      <g>
       <use style="stroke:#000000;stroke-width:0.8;" x="329.486758" xlink:href="#mcb3cf275d5" y="501.738984"/>
      </g>
     </g>
     <g id="text_3">
      <!-- 2020-05 -->
      <defs>
       <path d="M 10.796875 72.90625 
L 49.515625 72.90625 
L 49.515625 64.59375 
L 19.828125 64.59375 
L 19.828125 46.734375 
Q 21.96875 47.46875 24.109375 47.828125 
Q 26.265625 48.1875 28.421875 48.1875 
Q 40.625 48.1875 47.75 41.5 
Q 54.890625 34.8125 54.890625 23.390625 
Q 54.890625 11.625 47.5625 5.09375 
Q 40.234375 -1.421875 26.90625 -1.421875 
Q 22.3125 -1.421875 17.546875 -0.640625 
Q 12.796875 0.140625 7.71875 1.703125 
L 7.71875 11.625 
Q 12.109375 9.234375 16.796875 8.0625 
Q 21.484375 6.890625 26.703125 6.890625 
Q 35.15625 6.890625 40.078125 11.328125 
Q 45.015625 15.765625 45.015625 23.390625 
Q 45.015625 31 40.078125 35.4375 
Q 35.15625 39.890625 26.703125 39.890625 
Q 22.75 39.890625 18.8125 39.015625 
Q 14.890625 38.140625 10.796875 36.28125 
z
" id="DejaVuSans-53"/>
      </defs>
      <g transform="translate(281.094491 544.452384)rotate(-30)scale(0.13 -0.13)">
       <use xlink:href="#DejaVuSans-50"/>
       <use x="63.623047" xlink:href="#DejaVuSans-48"/>
       <use x="127.246094" xlink:href="#DejaVuSans-50"/>
       <use x="190.869141" xlink:href="#DejaVuSans-48"/>
       <use x="254.492188" xlink:href="#DejaVuSans-45"/>
       <use x="290.576172" xlink:href="#DejaVuSans-48"/>
       <use x="354.199219" xlink:href="#DejaVuSans-53"/>
      </g>
     </g>
    </g>
    <g id="xtick_4">
     <g id="line2d_4">
      <g>
       <use style="stroke:#000000;stroke-width:0.8;" x="463.320413" xlink:href="#mcb3cf275d5" y="501.738984"/>
      </g>
     </g>
     <g id="text_4">
      <!-- 2020-06 -->
      <defs>
       <path d="M 33.015625 40.375 
Q 26.375 40.375 22.484375 35.828125 
Q 18.609375 31.296875 18.609375 23.390625 
Q 18.609375 15.53125 22.484375 10.953125 
Q 26.375 6.390625 33.015625 6.390625 
Q 39.65625 6.390625 43.53125 10.953125 
Q 47.40625 15.53125 47.40625 23.390625 
Q 47.40625 31.296875 43.53125 35.828125 
Q 39.65625 40.375 33.015625 40.375 
z
M 52.59375 71.296875 
L 52.59375 62.3125 
Q 48.875 64.0625 45.09375 64.984375 
Q 41.3125 65.921875 37.59375 65.921875 
Q 27.828125 65.921875 22.671875 59.328125 
Q 17.53125 52.734375 16.796875 39.40625 
Q 19.671875 43.65625 24.015625 45.921875 
Q 28.375 48.1875 33.59375 48.1875 
Q 44.578125 48.1875 50.953125 41.515625 
Q 57.328125 34.859375 57.328125 23.390625 
Q 57.328125 12.15625 50.6875 5.359375 
Q 44.046875 -1.421875 33.015625 -1.421875 
Q 20.359375 -1.421875 13.671875 8.265625 
Q 6.984375 17.96875 6.984375 36.375 
Q 6.984375 53.65625 15.1875 63.9375 
Q 23.390625 74.21875 37.203125 74.21875 
Q 40.921875 74.21875 44.703125 73.484375 
Q 48.484375 72.75 52.59375 71.296875 
z
" id="DejaVuSans-54"/>
      </defs>
      <g transform="translate(414.928146 544.452384)rotate(-30)scale(0.13 -0.13)">
       <use xlink:href="#DejaVuSans-50"/>
       <use x="63.623047" xlink:href="#DejaVuSans-48"/>
       <use x="127.246094" xlink:href="#DejaVuSans-50"/>
       <use x="190.869141" xlink:href="#DejaVuSans-48"/>
       <use x="254.492188" xlink:href="#DejaVuSans-45"/>
       <use x="290.576172" xlink:href="#DejaVuSans-48"/>
       <use x="354.199219" xlink:href="#DejaVuSans-54"/>
      </g>
     </g>
    </g>
    <g id="xtick_5">
     <g id="line2d_5">
      <g>
       <use style="stroke:#000000;stroke-width:0.8;" x="592.836854" xlink:href="#mcb3cf275d5" y="501.738984"/>
      </g>
     </g>
     <g id="text_5">
      <!-- 2020-07 -->
      <defs>
       <path d="M 8.203125 72.90625 
L 55.078125 72.90625 
L 55.078125 68.703125 
L 28.609375 0 
L 18.3125 0 
L 43.21875 64.59375 
L 8.203125 64.59375 
z
" id="DejaVuSans-55"/>
      </defs>
      <g transform="translate(544.444587 544.452384)rotate(-30)scale(0.13 -0.13)">
       <use xlink:href="#DejaVuSans-50"/>
       <use x="63.623047" xlink:href="#DejaVuSans-48"/>
       <use x="127.246094" xlink:href="#DejaVuSans-50"/>
       <use x="190.869141" xlink:href="#DejaVuSans-48"/>
       <use x="254.492188" xlink:href="#DejaVuSans-45"/>
       <use x="290.576172" xlink:href="#DejaVuSans-48"/>
       <use x="354.199219" xlink:href="#DejaVuSans-55"/>
      </g>
     </g>
    </g>
    <g id="xtick_6">
     <g id="line2d_6">
      <g>
       <use style="stroke:#000000;stroke-width:0.8;" x="726.67051" xlink:href="#mcb3cf275d5" y="501.738984"/>
      </g>
     </g>
     <g id="text_6">
      <!-- 2020-08 -->
      <defs>
       <path d="M 31.78125 34.625 
Q 24.75 34.625 20.71875 30.859375 
Q 16.703125 27.09375 16.703125 20.515625 
Q 16.703125 13.921875 20.71875 10.15625 
Q 24.75 6.390625 31.78125 6.390625 
Q 38.8125 6.390625 42.859375 10.171875 
Q 46.921875 13.96875 46.921875 20.515625 
Q 46.921875 27.09375 42.890625 30.859375 
Q 38.875 34.625 31.78125 34.625 
z
M 21.921875 38.8125 
Q 15.578125 40.375 12.03125 44.71875 
Q 8.5 49.078125 8.5 55.328125 
Q 8.5 64.0625 14.71875 69.140625 
Q 20.953125 74.21875 31.78125 74.21875 
Q 42.671875 74.21875 48.875 69.140625 
Q 55.078125 64.0625 55.078125 55.328125 
Q 55.078125 49.078125 51.53125 44.71875 
Q 48 40.375 41.703125 38.8125 
Q 48.828125 37.15625 52.796875 32.3125 
Q 56.78125 27.484375 56.78125 20.515625 
Q 56.78125 9.90625 50.3125 4.234375 
Q 43.84375 -1.421875 31.78125 -1.421875 
Q 19.734375 -1.421875 13.25 4.234375 
Q 6.78125 9.90625 6.78125 20.515625 
Q 6.78125 27.484375 10.78125 32.3125 
Q 14.796875 37.15625 21.921875 38.8125 
z
M 18.3125 54.390625 
Q 18.3125 48.734375 21.84375 45.5625 
Q 25.390625 42.390625 31.78125 42.390625 
Q 38.140625 42.390625 41.71875 45.5625 
Q 45.3125 48.734375 45.3125 54.390625 
Q 45.3125 60.0625 41.71875 63.234375 
Q 38.140625 66.40625 31.78125 66.40625 
Q 25.390625 66.40625 21.84375 63.234375 
Q 18.3125 60.0625 18.3125 54.390625 
z
" id="DejaVuSans-56"/>
      </defs>
      <g transform="translate(678.278243 544.452384)rotate(-30)scale(0.13 -0.13)">
       <use xlink:href="#DejaVuSans-50"/>
       <use x="63.623047" xlink:href="#DejaVuSans-48"/>
       <use x="127.246094" xlink:href="#DejaVuSans-50"/>
       <use x="190.869141" xlink:href="#DejaVuSans-48"/>
       <use x="254.492188" xlink:href="#DejaVuSans-45"/>
       <use x="290.576172" xlink:href="#DejaVuSans-48"/>
       <use x="354.199219" xlink:href="#DejaVuSans-56"/>
      </g>
     </g>
    </g>
    <g id="xtick_7">
     <g id="line2d_7">
      <g>
       <use style="stroke:#000000;stroke-width:0.8;" x="860.504166" xlink:href="#mcb3cf275d5" y="501.738984"/>
      </g>
     </g>
     <g id="text_7">
      <!-- 2020-09 -->
      <defs>
       <path d="M 10.984375 1.515625 
L 10.984375 10.5 
Q 14.703125 8.734375 18.5 7.8125 
Q 22.3125 6.890625 25.984375 6.890625 
Q 35.75 6.890625 40.890625 13.453125 
Q 46.046875 20.015625 46.78125 33.40625 
Q 43.953125 29.203125 39.59375 26.953125 
Q 35.25 24.703125 29.984375 24.703125 
Q 19.046875 24.703125 12.671875 31.3125 
Q 6.296875 37.9375 6.296875 49.421875 
Q 6.296875 60.640625 12.9375 67.421875 
Q 19.578125 74.21875 30.609375 74.21875 
Q 43.265625 74.21875 49.921875 64.515625 
Q 56.59375 54.828125 56.59375 36.375 
Q 56.59375 19.140625 48.40625 8.859375 
Q 40.234375 -1.421875 26.421875 -1.421875 
Q 22.703125 -1.421875 18.890625 -0.6875 
Q 15.09375 0.046875 10.984375 1.515625 
z
M 30.609375 32.421875 
Q 37.25 32.421875 41.125 36.953125 
Q 45.015625 41.5 45.015625 49.421875 
Q 45.015625 57.28125 41.125 61.84375 
Q 37.25 66.40625 30.609375 66.40625 
Q 23.96875 66.40625 20.09375 61.84375 
Q 16.21875 57.28125 16.21875 49.421875 
Q 16.21875 41.5 20.09375 36.953125 
Q 23.96875 32.421875 30.609375 32.421875 
z
" id="DejaVuSans-57"/>
      </defs>
      <g transform="translate(812.111899 544.452384)rotate(-30)scale(0.13 -0.13)">
       <use xlink:href="#DejaVuSans-50"/>
       <use x="63.623047" xlink:href="#DejaVuSans-48"/>
       <use x="127.246094" xlink:href="#DejaVuSans-50"/>
       <use x="190.869141" xlink:href="#DejaVuSans-48"/>
       <use x="254.492188" xlink:href="#DejaVuSans-45"/>
       <use x="290.576172" xlink:href="#DejaVuSans-48"/>
       <use x="354.199219" xlink:href="#DejaVuSans-57"/>
      </g>
     </g>
    </g>
    <g id="xtick_8">
     <g id="line2d_8">
      <g>
       <use style="stroke:#000000;stroke-width:0.8;" x="990.020607" xlink:href="#mcb3cf275d5" y="501.738984"/>
      </g>
     </g>
     <g id="text_8">
      <!-- 2020-10 -->
      <defs>
       <path d="M 12.40625 8.296875 
L 28.515625 8.296875 
L 28.515625 63.921875 
L 10.984375 60.40625 
L 10.984375 69.390625 
L 28.421875 72.90625 
L 38.28125 72.90625 
L 38.28125 8.296875 
L 54.390625 8.296875 
L 54.390625 0 
L 12.40625 0 
z
" id="DejaVuSans-49"/>
      </defs>
      <g transform="translate(941.62834 544.452384)rotate(-30)scale(0.13 -0.13)">
       <use xlink:href="#DejaVuSans-50"/>
       <use x="63.623047" xlink:href="#DejaVuSans-48"/>
       <use x="127.246094" xlink:href="#DejaVuSans-50"/>
       <use x="190.869141" xlink:href="#DejaVuSans-48"/>
       <use x="254.492188" xlink:href="#DejaVuSans-45"/>
       <use x="290.576172" xlink:href="#DejaVuSans-49"/>
       <use x="354.199219" xlink:href="#DejaVuSans-48"/>
      </g>
     </g>
    </g>
    <g id="xtick_9">
     <g id="line2d_9">
      <g>
       <use style="stroke:#000000;stroke-width:0.8;" x="1123.854263" xlink:href="#mcb3cf275d5" y="501.738984"/>
      </g>
     </g>
     <g id="text_9">
      <!-- 2020-11 -->
      <g transform="translate(1075.461996 544.452384)rotate(-30)scale(0.13 -0.13)">
       <use xlink:href="#DejaVuSans-50"/>
       <use x="63.623047" xlink:href="#DejaVuSans-48"/>
       <use x="127.246094" xlink:href="#DejaVuSans-50"/>
       <use x="190.869141" xlink:href="#DejaVuSans-48"/>
       <use x="254.492188" xlink:href="#DejaVuSans-45"/>
       <use x="290.576172" xlink:href="#DejaVuSans-49"/>
       <use x="354.199219" xlink:href="#DejaVuSans-49"/>
      </g>
     </g>
    </g>
   </g>
   <g id="matplotlib.axis_2">
    <g id="ytick_1">
     <g id="line2d_10">
      <path clip-path="url(#p7d7c559785)" d="M 62.89875 484.725857 
L 1178.89875 484.725857 
" style="fill:none;stroke:#b0b0b0;stroke-linecap:square;stroke-width:0.8;"/>
     </g>
     <g id="line2d_11">
      <defs>
       <path d="M 0 0 
L -3.5 0 
" id="ma2b690b3dd" style="stroke:#000000;stroke-width:0.8;"/>
      </defs>
      <g>
       <use style="stroke:#000000;stroke-width:0.8;" x="62.89875" xlink:href="#ma2b690b3dd" y="484.725857"/>
      </g>
     </g>
     <g id="text_10">
      <!-- 0 -->
      <g transform="translate(47.6275 489.664841)scale(0.13 -0.13)">
       <use xlink:href="#DejaVuSans-48"/>
      </g>
     </g>
    </g>
    <g id="ytick_2">
     <g id="line2d_12">
      <path clip-path="url(#p7d7c559785)" d="M 62.89875 465.822382 
L 1178.89875 465.822382 
" style="fill:none;stroke:#b0b0b0;stroke-linecap:square;stroke-width:0.8;"/>
     </g>
     <g id="line2d_13">
      <g>
       <use style="stroke:#000000;stroke-width:0.8;" x="62.89875" xlink:href="#ma2b690b3dd" y="465.822382"/>
      </g>
     </g>
     <g id="text_11">
      <!-- 100 -->
      <g transform="translate(31.085 470.761366)scale(0.13 -0.13)">
       <use xlink:href="#DejaVuSans-49"/>
       <use x="63.623047" xlink:href="#DejaVuSans-48"/>
       <use x="127.246094" xlink:href="#DejaVuSans-48"/>
      </g>
     </g>
    </g>
    <g id="ytick_3">
     <g id="line2d_14">
      <path clip-path="url(#p7d7c559785)" d="M 62.89875 446.918907 
L 1178.89875 446.918907 
" style="fill:none;stroke:#b0b0b0;stroke-linecap:square;stroke-width:0.8;"/>
     </g>
     <g id="line2d_15">
      <g>
       <use style="stroke:#000000;stroke-width:0.8;" x="62.89875" xlink:href="#ma2b690b3dd" y="446.918907"/>
      </g>
     </g>
     <g id="text_12">
      <!-- 200 -->
      <g transform="translate(31.085 451.857892)scale(0.13 -0.13)">
       <use xlink:href="#DejaVuSans-50"/>
       <use x="63.623047" xlink:href="#DejaVuSans-48"/>
       <use x="127.246094" xlink:href="#DejaVuSans-48"/>
      </g>
     </g>
    </g>
    <g id="ytick_4">
     <g id="line2d_16">
      <path clip-path="url(#p7d7c559785)" d="M 62.89875 428.015432 
L 1178.89875 428.015432 
" style="fill:none;stroke:#b0b0b0;stroke-linecap:square;stroke-width:0.8;"/>
     </g>
     <g id="line2d_17">
      <g>
       <use style="stroke:#000000;stroke-width:0.8;" x="62.89875" xlink:href="#ma2b690b3dd" y="428.015432"/>
      </g>
     </g>
     <g id="text_13">
      <!-- 300 -->
      <g transform="translate(31.085 432.954417)scale(0.13 -0.13)">
       <use xlink:href="#DejaVuSans-51"/>
       <use x="63.623047" xlink:href="#DejaVuSans-48"/>
       <use x="127.246094" xlink:href="#DejaVuSans-48"/>
      </g>
     </g>
    </g>
    <g id="ytick_5">
     <g id="line2d_18">
      <path clip-path="url(#p7d7c559785)" d="M 62.89875 409.111957 
L 1178.89875 409.111957 
" style="fill:none;stroke:#b0b0b0;stroke-linecap:square;stroke-width:0.8;"/>
     </g>
     <g id="line2d_19">
      <g>
       <use style="stroke:#000000;stroke-width:0.8;" x="62.89875" xlink:href="#ma2b690b3dd" y="409.111957"/>
      </g>
     </g>
     <g id="text_14">
      <!-- 400 -->
      <g transform="translate(31.085 414.050942)scale(0.13 -0.13)">
       <use xlink:href="#DejaVuSans-52"/>
       <use x="63.623047" xlink:href="#DejaVuSans-48"/>
       <use x="127.246094" xlink:href="#DejaVuSans-48"/>
      </g>
     </g>
    </g>
    <g id="ytick_6">
     <g id="line2d_20">
      <path clip-path="url(#p7d7c559785)" d="M 62.89875 390.208482 
L 1178.89875 390.208482 
" style="fill:none;stroke:#b0b0b0;stroke-linecap:square;stroke-width:0.8;"/>
     </g>
     <g id="line2d_21">
      <g>
       <use style="stroke:#000000;stroke-width:0.8;" x="62.89875" xlink:href="#ma2b690b3dd" y="390.208482"/>
      </g>
     </g>
     <g id="text_15">
      <!-- 500 -->
      <g transform="translate(31.085 395.147467)scale(0.13 -0.13)">
       <use xlink:href="#DejaVuSans-53"/>
       <use x="63.623047" xlink:href="#DejaVuSans-48"/>
       <use x="127.246094" xlink:href="#DejaVuSans-48"/>
      </g>
     </g>
    </g>
    <g id="ytick_7">
     <g id="line2d_22">
      <path clip-path="url(#p7d7c559785)" d="M 62.89875 371.305008 
L 1178.89875 371.305008 
" style="fill:none;stroke:#b0b0b0;stroke-linecap:square;stroke-width:0.8;"/>
     </g>
     <g id="line2d_23">
      <g>
       <use style="stroke:#000000;stroke-width:0.8;" x="62.89875" xlink:href="#ma2b690b3dd" y="371.305008"/>
      </g>
     </g>
     <g id="text_16">
      <!-- 600 -->
      <g transform="translate(31.085 376.243992)scale(0.13 -0.13)">
       <use xlink:href="#DejaVuSans-54"/>
       <use x="63.623047" xlink:href="#DejaVuSans-48"/>
       <use x="127.246094" xlink:href="#DejaVuSans-48"/>
      </g>
     </g>
    </g>
    <g id="ytick_8">
     <g id="line2d_24">
      <path clip-path="url(#p7d7c559785)" d="M 62.89875 352.401533 
L 1178.89875 352.401533 
" style="fill:none;stroke:#b0b0b0;stroke-linecap:square;stroke-width:0.8;"/>
     </g>
     <g id="line2d_25">
      <g>
       <use style="stroke:#000000;stroke-width:0.8;" x="62.89875" xlink:href="#ma2b690b3dd" y="352.401533"/>
      </g>
     </g>
     <g id="text_17">
      <!-- 700 -->
      <g transform="translate(31.085 357.340517)scale(0.13 -0.13)">
       <use xlink:href="#DejaVuSans-55"/>
       <use x="63.623047" xlink:href="#DejaVuSans-48"/>
       <use x="127.246094" xlink:href="#DejaVuSans-48"/>
      </g>
     </g>
    </g>
    <g id="ytick_9">
     <g id="line2d_26">
      <path clip-path="url(#p7d7c559785)" d="M 62.89875 333.498058 
L 1178.89875 333.498058 
" style="fill:none;stroke:#b0b0b0;stroke-linecap:square;stroke-width:0.8;"/>
     </g>
     <g id="line2d_27">
      <g>
       <use style="stroke:#000000;stroke-width:0.8;" x="62.89875" xlink:href="#ma2b690b3dd" y="333.498058"/>
      </g>
     </g>
     <g id="text_18">
      <!-- 800 -->
      <g transform="translate(31.085 338.437042)scale(0.13 -0.13)">
       <use xlink:href="#DejaVuSans-56"/>
       <use x="63.623047" xlink:href="#DejaVuSans-48"/>
       <use x="127.246094" xlink:href="#DejaVuSans-48"/>
      </g>
     </g>
    </g>
    <g id="ytick_10">
     <g id="line2d_28">
      <path clip-path="url(#p7d7c559785)" d="M 62.89875 314.594583 
L 1178.89875 314.594583 
" style="fill:none;stroke:#b0b0b0;stroke-linecap:square;stroke-width:0.8;"/>
     </g>
     <g id="line2d_29">
      <g>
       <use style="stroke:#000000;stroke-width:0.8;" x="62.89875" xlink:href="#ma2b690b3dd" y="314.594583"/>
      </g>
     </g>
     <g id="text_19">
      <!-- 900 -->
      <g transform="translate(31.085 319.533567)scale(0.13 -0.13)">
       <use xlink:href="#DejaVuSans-57"/>
       <use x="63.623047" xlink:href="#DejaVuSans-48"/>
       <use x="127.246094" xlink:href="#DejaVuSans-48"/>
      </g>
     </g>
    </g>
    <g id="ytick_11">
     <g id="line2d_30">
      <path clip-path="url(#p7d7c559785)" d="M 62.89875 295.691108 
L 1178.89875 295.691108 
" style="fill:none;stroke:#b0b0b0;stroke-linecap:square;stroke-width:0.8;"/>
     </g>
     <g id="line2d_31">
      <g>
       <use style="stroke:#000000;stroke-width:0.8;" x="62.89875" xlink:href="#ma2b690b3dd" y="295.691108"/>
      </g>
     </g>
     <g id="text_20">
      <!-- 1000 -->
      <g transform="translate(22.81375 300.630092)scale(0.13 -0.13)">
       <use xlink:href="#DejaVuSans-49"/>
       <use x="63.623047" xlink:href="#DejaVuSans-48"/>
       <use x="127.246094" xlink:href="#DejaVuSans-48"/>
       <use x="190.869141" xlink:href="#DejaVuSans-48"/>
      </g>
     </g>
    </g>
    <g id="ytick_12">
     <g id="line2d_32">
      <path clip-path="url(#p7d7c559785)" d="M 62.89875 276.787633 
L 1178.89875 276.787633 
" style="fill:none;stroke:#b0b0b0;stroke-linecap:square;stroke-width:0.8;"/>
     </g>
     <g id="line2d_33">
      <g>
       <use style="stroke:#000000;stroke-width:0.8;" x="62.89875" xlink:href="#ma2b690b3dd" y="276.787633"/>
      </g>
     </g>
     <g id="text_21">
      <!-- 1100 -->
      <g transform="translate(22.81375 281.726617)scale(0.13 -0.13)">
       <use xlink:href="#DejaVuSans-49"/>
       <use x="63.623047" xlink:href="#DejaVuSans-49"/>
       <use x="127.246094" xlink:href="#DejaVuSans-48"/>
       <use x="190.869141" xlink:href="#DejaVuSans-48"/>
      </g>
     </g>
    </g>
    <g id="ytick_13">
     <g id="line2d_34">
      <path clip-path="url(#p7d7c559785)" d="M 62.89875 257.884158 
L 1178.89875 257.884158 
" style="fill:none;stroke:#b0b0b0;stroke-linecap:square;stroke-width:0.8;"/>
     </g>
     <g id="line2d_35">
      <g>
       <use style="stroke:#000000;stroke-width:0.8;" x="62.89875" xlink:href="#ma2b690b3dd" y="257.884158"/>
      </g>
     </g>
     <g id="text_22">
      <!-- 1200 -->
      <g transform="translate(22.81375 262.823142)scale(0.13 -0.13)">
       <use xlink:href="#DejaVuSans-49"/>
       <use x="63.623047" xlink:href="#DejaVuSans-50"/>
       <use x="127.246094" xlink:href="#DejaVuSans-48"/>
       <use x="190.869141" xlink:href="#DejaVuSans-48"/>
      </g>
     </g>
    </g>
    <g id="ytick_14">
     <g id="line2d_36">
      <path clip-path="url(#p7d7c559785)" d="M 62.89875 238.980683 
L 1178.89875 238.980683 
" style="fill:none;stroke:#b0b0b0;stroke-linecap:square;stroke-width:0.8;"/>
     </g>
     <g id="line2d_37">
      <g>
       <use style="stroke:#000000;stroke-width:0.8;" x="62.89875" xlink:href="#ma2b690b3dd" y="238.980683"/>
      </g>
     </g>
     <g id="text_23">
      <!-- 1300 -->
      <g transform="translate(22.81375 243.919668)scale(0.13 -0.13)">
       <use xlink:href="#DejaVuSans-49"/>
       <use x="63.623047" xlink:href="#DejaVuSans-51"/>
       <use x="127.246094" xlink:href="#DejaVuSans-48"/>
       <use x="190.869141" xlink:href="#DejaVuSans-48"/>
      </g>
     </g>
    </g>
    <g id="ytick_15">
     <g id="line2d_38">
      <path clip-path="url(#p7d7c559785)" d="M 62.89875 220.077208 
L 1178.89875 220.077208 
" style="fill:none;stroke:#b0b0b0;stroke-linecap:square;stroke-width:0.8;"/>
     </g>
     <g id="line2d_39">
      <g>
       <use style="stroke:#000000;stroke-width:0.8;" x="62.89875" xlink:href="#ma2b690b3dd" y="220.077208"/>
      </g>
     </g>
     <g id="text_24">
      <!-- 1400 -->
      <g transform="translate(22.81375 225.016193)scale(0.13 -0.13)">
       <use xlink:href="#DejaVuSans-49"/>
       <use x="63.623047" xlink:href="#DejaVuSans-52"/>
       <use x="127.246094" xlink:href="#DejaVuSans-48"/>
       <use x="190.869141" xlink:href="#DejaVuSans-48"/>
      </g>
     </g>
    </g>
    <g id="ytick_16">
     <g id="line2d_40">
      <path clip-path="url(#p7d7c559785)" d="M 62.89875 201.173733 
L 1178.89875 201.173733 
" style="fill:none;stroke:#b0b0b0;stroke-linecap:square;stroke-width:0.8;"/>
     </g>
     <g id="line2d_41">
      <g>
       <use style="stroke:#000000;stroke-width:0.8;" x="62.89875" xlink:href="#ma2b690b3dd" y="201.173733"/>
      </g>
     </g>
     <g id="text_25">
      <!-- 1500 -->
      <g transform="translate(22.81375 206.112718)scale(0.13 -0.13)">
       <use xlink:href="#DejaVuSans-49"/>
       <use x="63.623047" xlink:href="#DejaVuSans-53"/>
       <use x="127.246094" xlink:href="#DejaVuSans-48"/>
       <use x="190.869141" xlink:href="#DejaVuSans-48"/>
      </g>
     </g>
    </g>
    <g id="ytick_17">
     <g id="line2d_42">
      <path clip-path="url(#p7d7c559785)" d="M 62.89875 182.270259 
L 1178.89875 182.270259 
" style="fill:none;stroke:#b0b0b0;stroke-linecap:square;stroke-width:0.8;"/>
     </g>
     <g id="line2d_43">
      <g>
       <use style="stroke:#000000;stroke-width:0.8;" x="62.89875" xlink:href="#ma2b690b3dd" y="182.270259"/>
      </g>
     </g>
     <g id="text_26">
      <!-- 1600 -->
      <g transform="translate(22.81375 187.209243)scale(0.13 -0.13)">
       <use xlink:href="#DejaVuSans-49"/>
       <use x="63.623047" xlink:href="#DejaVuSans-54"/>
       <use x="127.246094" xlink:href="#DejaVuSans-48"/>
       <use x="190.869141" xlink:href="#DejaVuSans-48"/>
      </g>
     </g>
    </g>
    <g id="ytick_18">
     <g id="line2d_44">
      <path clip-path="url(#p7d7c559785)" d="M 62.89875 163.366784 
L 1178.89875 163.366784 
" style="fill:none;stroke:#b0b0b0;stroke-linecap:square;stroke-width:0.8;"/>
     </g>
     <g id="line2d_45">
      <g>
       <use style="stroke:#000000;stroke-width:0.8;" x="62.89875" xlink:href="#ma2b690b3dd" y="163.366784"/>
      </g>
     </g>
     <g id="text_27">
      <!-- 1700 -->
      <g transform="translate(22.81375 168.305768)scale(0.13 -0.13)">
       <use xlink:href="#DejaVuSans-49"/>
       <use x="63.623047" xlink:href="#DejaVuSans-55"/>
       <use x="127.246094" xlink:href="#DejaVuSans-48"/>
       <use x="190.869141" xlink:href="#DejaVuSans-48"/>
      </g>
     </g>
    </g>
    <g id="ytick_19">
     <g id="line2d_46">
      <path clip-path="url(#p7d7c559785)" d="M 62.89875 144.463309 
L 1178.89875 144.463309 
" style="fill:none;stroke:#b0b0b0;stroke-linecap:square;stroke-width:0.8;"/>
     </g>
     <g id="line2d_47">
      <g>
       <use style="stroke:#000000;stroke-width:0.8;" x="62.89875" xlink:href="#ma2b690b3dd" y="144.463309"/>
      </g>
     </g>
     <g id="text_28">
      <!-- 1800 -->
      <g transform="translate(22.81375 149.402293)scale(0.13 -0.13)">
       <use xlink:href="#DejaVuSans-49"/>
       <use x="63.623047" xlink:href="#DejaVuSans-56"/>
       <use x="127.246094" xlink:href="#DejaVuSans-48"/>
       <use x="190.869141" xlink:href="#DejaVuSans-48"/>
      </g>
     </g>
    </g>
    <g id="ytick_20">
     <g id="line2d_48">
      <path clip-path="url(#p7d7c559785)" d="M 62.89875 125.559834 
L 1178.89875 125.559834 
" style="fill:none;stroke:#b0b0b0;stroke-linecap:square;stroke-width:0.8;"/>
     </g>
     <g id="line2d_49">
      <g>
       <use style="stroke:#000000;stroke-width:0.8;" x="62.89875" xlink:href="#ma2b690b3dd" y="125.559834"/>
      </g>
     </g>
     <g id="text_29">
      <!-- 1900 -->
      <g transform="translate(22.81375 130.498818)scale(0.13 -0.13)">
       <use xlink:href="#DejaVuSans-49"/>
       <use x="63.623047" xlink:href="#DejaVuSans-57"/>
       <use x="127.246094" xlink:href="#DejaVuSans-48"/>
       <use x="190.869141" xlink:href="#DejaVuSans-48"/>
      </g>
     </g>
    </g>
    <g id="ytick_21">
     <g id="line2d_50">
      <path clip-path="url(#p7d7c559785)" d="M 62.89875 106.656359 
L 1178.89875 106.656359 
" style="fill:none;stroke:#b0b0b0;stroke-linecap:square;stroke-width:0.8;"/>
     </g>
     <g id="line2d_51">
      <g>
       <use style="stroke:#000000;stroke-width:0.8;" x="62.89875" xlink:href="#ma2b690b3dd" y="106.656359"/>
      </g>
     </g>
     <g id="text_30">
      <!-- 2000 -->
      <g transform="translate(22.81375 111.595343)scale(0.13 -0.13)">
       <use xlink:href="#DejaVuSans-50"/>
       <use x="63.623047" xlink:href="#DejaVuSans-48"/>
       <use x="127.246094" xlink:href="#DejaVuSans-48"/>
       <use x="190.869141" xlink:href="#DejaVuSans-48"/>
      </g>
     </g>
    </g>
    <g id="ytick_22">
     <g id="line2d_52">
      <path clip-path="url(#p7d7c559785)" d="M 62.89875 87.752884 
L 1178.89875 87.752884 
" style="fill:none;stroke:#b0b0b0;stroke-linecap:square;stroke-width:0.8;"/>
     </g>
     <g id="line2d_53">
      <g>
       <use style="stroke:#000000;stroke-width:0.8;" x="62.89875" xlink:href="#ma2b690b3dd" y="87.752884"/>
      </g>
     </g>
     <g id="text_31">
      <!-- 2100 -->
      <g transform="translate(22.81375 92.691868)scale(0.13 -0.13)">
       <use xlink:href="#DejaVuSans-50"/>
       <use x="63.623047" xlink:href="#DejaVuSans-49"/>
       <use x="127.246094" xlink:href="#DejaVuSans-48"/>
       <use x="190.869141" xlink:href="#DejaVuSans-48"/>
      </g>
     </g>
    </g>
    <g id="ytick_23">
     <g id="line2d_54">
      <path clip-path="url(#p7d7c559785)" d="M 62.89875 68.849409 
L 1178.89875 68.849409 
" style="fill:none;stroke:#b0b0b0;stroke-linecap:square;stroke-width:0.8;"/>
     </g>
     <g id="line2d_55">
      <g>
       <use style="stroke:#000000;stroke-width:0.8;" x="62.89875" xlink:href="#ma2b690b3dd" y="68.849409"/>
      </g>
     </g>
     <g id="text_32">
      <!-- 2200 -->
      <g transform="translate(22.81375 73.788393)scale(0.13 -0.13)">
       <use xlink:href="#DejaVuSans-50"/>
       <use x="63.623047" xlink:href="#DejaVuSans-50"/>
       <use x="127.246094" xlink:href="#DejaVuSans-48"/>
       <use x="190.869141" xlink:href="#DejaVuSans-48"/>
      </g>
     </g>
    </g>
    <g id="ytick_24">
     <g id="line2d_56">
      <path clip-path="url(#p7d7c559785)" d="M 62.89875 49.945934 
L 1178.89875 49.945934 
" style="fill:none;stroke:#b0b0b0;stroke-linecap:square;stroke-width:0.8;"/>
     </g>
     <g id="line2d_57">
      <g>
       <use style="stroke:#000000;stroke-width:0.8;" x="62.89875" xlink:href="#ma2b690b3dd" y="49.945934"/>
      </g>
     </g>
     <g id="text_33">
      <!-- 2300 -->
      <g transform="translate(22.81375 54.884919)scale(0.13 -0.13)">
       <use xlink:href="#DejaVuSans-50"/>
       <use x="63.623047" xlink:href="#DejaVuSans-51"/>
       <use x="127.246094" xlink:href="#DejaVuSans-48"/>
       <use x="190.869141" xlink:href="#DejaVuSans-48"/>
      </g>
     </g>
    </g>
    <g id="ytick_25">
     <g id="line2d_58">
      <path clip-path="url(#p7d7c559785)" d="M 62.89875 31.042459 
L 1178.89875 31.042459 
" style="fill:none;stroke:#b0b0b0;stroke-linecap:square;stroke-width:0.8;"/>
     </g>
     <g id="line2d_59">
      <g>
       <use style="stroke:#000000;stroke-width:0.8;" x="62.89875" xlink:href="#ma2b690b3dd" y="31.042459"/>
      </g>
     </g>
     <g id="text_34">
      <!-- 2400 -->
      <g transform="translate(22.81375 35.981444)scale(0.13 -0.13)">
       <use xlink:href="#DejaVuSans-50"/>
       <use x="63.623047" xlink:href="#DejaVuSans-52"/>
       <use x="127.246094" xlink:href="#DejaVuSans-48"/>
       <use x="190.869141" xlink:href="#DejaVuSans-48"/>
      </g>
     </g>
    </g>
    <g id="ytick_26">
     <g id="line2d_60">
      <path clip-path="url(#p7d7c559785)" d="M 62.89875 12.138984 
L 1178.89875 12.138984 
" style="fill:none;stroke:#b0b0b0;stroke-linecap:square;stroke-width:0.8;"/>
     </g>
     <g id="line2d_61">
      <g>
       <use style="stroke:#000000;stroke-width:0.8;" x="62.89875" xlink:href="#ma2b690b3dd" y="12.138984"/>
      </g>
     </g>
     <g id="text_35">
      <!-- 2500 -->
      <g transform="translate(22.81375 17.077969)scale(0.13 -0.13)">
       <use xlink:href="#DejaVuSans-50"/>
       <use x="63.623047" xlink:href="#DejaVuSans-53"/>
       <use x="127.246094" xlink:href="#DejaVuSans-48"/>
       <use x="190.869141" xlink:href="#DejaVuSans-48"/>
      </g>
     </g>
    </g>
    <g id="text_36">
     <!-- Anzahl von Fällen -->
     <defs>
      <path d="M 34.1875 63.1875 
L 20.796875 26.90625 
L 47.609375 26.90625 
z
M 28.609375 72.90625 
L 39.796875 72.90625 
L 67.578125 0 
L 57.328125 0 
L 50.6875 18.703125 
L 17.828125 18.703125 
L 11.1875 0 
L 0.78125 0 
z
" id="DejaVuSans-65"/>
      <path d="M 54.890625 33.015625 
L 54.890625 0 
L 45.90625 0 
L 45.90625 32.71875 
Q 45.90625 40.484375 42.875 44.328125 
Q 39.84375 48.1875 33.796875 48.1875 
Q 26.515625 48.1875 22.3125 43.546875 
Q 18.109375 38.921875 18.109375 30.90625 
L 18.109375 0 
L 9.078125 0 
L 9.078125 54.6875 
L 18.109375 54.6875 
L 18.109375 46.1875 
Q 21.34375 51.125 25.703125 53.5625 
Q 30.078125 56 35.796875 56 
Q 45.21875 56 50.046875 50.171875 
Q 54.890625 44.34375 54.890625 33.015625 
z
" id="DejaVuSans-110"/>
      <path d="M 5.515625 54.6875 
L 48.1875 54.6875 
L 48.1875 46.484375 
L 14.40625 7.171875 
L 48.1875 7.171875 
L 48.1875 0 
L 4.296875 0 
L 4.296875 8.203125 
L 38.09375 47.515625 
L 5.515625 47.515625 
z
" id="DejaVuSans-122"/>
      <path d="M 34.28125 27.484375 
Q 23.390625 27.484375 19.1875 25 
Q 14.984375 22.515625 14.984375 16.5 
Q 14.984375 11.71875 18.140625 8.90625 
Q 21.296875 6.109375 26.703125 6.109375 
Q 34.1875 6.109375 38.703125 11.40625 
Q 43.21875 16.703125 43.21875 25.484375 
L 43.21875 27.484375 
z
M 52.203125 31.203125 
L 52.203125 0 
L 43.21875 0 
L 43.21875 8.296875 
Q 40.140625 3.328125 35.546875 0.953125 
Q 30.953125 -1.421875 24.3125 -1.421875 
Q 15.921875 -1.421875 10.953125 3.296875 
Q 6 8.015625 6 15.921875 
Q 6 25.140625 12.171875 29.828125 
Q 18.359375 34.515625 30.609375 34.515625 
L 43.21875 34.515625 
L 43.21875 35.40625 
Q 43.21875 41.609375 39.140625 45 
Q 35.0625 48.390625 27.6875 48.390625 
Q 23 48.390625 18.546875 47.265625 
Q 14.109375 46.140625 10.015625 43.890625 
L 10.015625 52.203125 
Q 14.9375 54.109375 19.578125 55.046875 
Q 24.21875 56 28.609375 56 
Q 40.484375 56 46.34375 49.84375 
Q 52.203125 43.703125 52.203125 31.203125 
z
" id="DejaVuSans-97"/>
      <path d="M 54.890625 33.015625 
L 54.890625 0 
L 45.90625 0 
L 45.90625 32.71875 
Q 45.90625 40.484375 42.875 44.328125 
Q 39.84375 48.1875 33.796875 48.1875 
Q 26.515625 48.1875 22.3125 43.546875 
Q 18.109375 38.921875 18.109375 30.90625 
L 18.109375 0 
L 9.078125 0 
L 9.078125 75.984375 
L 18.109375 75.984375 
L 18.109375 46.1875 
Q 21.34375 51.125 25.703125 53.5625 
Q 30.078125 56 35.796875 56 
Q 45.21875 56 50.046875 50.171875 
Q 54.890625 44.34375 54.890625 33.015625 
z
" id="DejaVuSans-104"/>
      <path d="M 9.421875 75.984375 
L 18.40625 75.984375 
L 18.40625 0 
L 9.421875 0 
z
" id="DejaVuSans-108"/>
      <path id="DejaVuSans-32"/>
      <path d="M 2.984375 54.6875 
L 12.5 54.6875 
L 29.59375 8.796875 
L 46.6875 54.6875 
L 56.203125 54.6875 
L 35.6875 0 
L 23.484375 0 
z
" id="DejaVuSans-118"/>
      <path d="M 30.609375 48.390625 
Q 23.390625 48.390625 19.1875 42.75 
Q 14.984375 37.109375 14.984375 27.296875 
Q 14.984375 17.484375 19.15625 11.84375 
Q 23.34375 6.203125 30.609375 6.203125 
Q 37.796875 6.203125 41.984375 11.859375 
Q 46.1875 17.53125 46.1875 27.296875 
Q 46.1875 37.015625 41.984375 42.703125 
Q 37.796875 48.390625 30.609375 48.390625 
z
M 30.609375 56 
Q 42.328125 56 49.015625 48.375 
Q 55.71875 40.765625 55.71875 27.296875 
Q 55.71875 13.875 49.015625 6.21875 
Q 42.328125 -1.421875 30.609375 -1.421875 
Q 18.84375 -1.421875 12.171875 6.21875 
Q 5.515625 13.875 5.515625 27.296875 
Q 5.515625 40.765625 12.171875 48.375 
Q 18.84375 56 30.609375 56 
z
" id="DejaVuSans-111"/>
      <path d="M 9.8125 72.90625 
L 51.703125 72.90625 
L 51.703125 64.59375 
L 19.671875 64.59375 
L 19.671875 43.109375 
L 48.578125 43.109375 
L 48.578125 34.8125 
L 19.671875 34.8125 
L 19.671875 0 
L 9.8125 0 
z
" id="DejaVuSans-70"/>
      <path d="M 34.28125 27.484375 
Q 23.390625 27.484375 19.1875 25 
Q 14.984375 22.515625 14.984375 16.5 
Q 14.984375 11.71875 18.140625 8.90625 
Q 21.296875 6.109375 26.703125 6.109375 
Q 34.1875 6.109375 38.703125 11.40625 
Q 43.21875 16.703125 43.21875 25.484375 
L 43.21875 27.484375 
z
M 52.203125 31.203125 
L 52.203125 0 
L 43.21875 0 
L 43.21875 8.296875 
Q 40.140625 3.328125 35.546875 0.953125 
Q 30.953125 -1.421875 24.3125 -1.421875 
Q 15.921875 -1.421875 10.953125 3.296875 
Q 6 8.015625 6 15.921875 
Q 6 25.140625 12.171875 29.828125 
Q 18.359375 34.515625 30.609375 34.515625 
L 43.21875 34.515625 
L 43.21875 35.40625 
Q 43.21875 41.609375 39.140625 45 
Q 35.0625 48.390625 27.6875 48.390625 
Q 23 48.390625 18.546875 47.265625 
Q 14.109375 46.140625 10.015625 43.890625 
L 10.015625 52.203125 
Q 14.9375 54.109375 19.578125 55.046875 
Q 24.21875 56 28.609375 56 
Q 40.484375 56 46.34375 49.84375 
Q 52.203125 43.703125 52.203125 31.203125 
z
M 33.59375 75.78125 
L 43.5 75.78125 
L 43.5 65.921875 
L 33.59375 65.921875 
z
M 14.5 75.78125 
L 24.40625 75.78125 
L 24.40625 65.921875 
L 14.5 65.921875 
z
" id="DejaVuSans-228"/>
      <path d="M 56.203125 29.59375 
L 56.203125 25.203125 
L 14.890625 25.203125 
Q 15.484375 15.921875 20.484375 11.0625 
Q 25.484375 6.203125 34.421875 6.203125 
Q 39.59375 6.203125 44.453125 7.46875 
Q 49.3125 8.734375 54.109375 11.28125 
L 54.109375 2.78125 
Q 49.265625 0.734375 44.1875 -0.34375 
Q 39.109375 -1.421875 33.890625 -1.421875 
Q 20.796875 -1.421875 13.15625 6.1875 
Q 5.515625 13.8125 5.515625 26.8125 
Q 5.515625 40.234375 12.765625 48.109375 
Q 20.015625 56 32.328125 56 
Q 43.359375 56 49.78125 48.890625 
Q 56.203125 41.796875 56.203125 29.59375 
z
M 47.21875 32.234375 
Q 47.125 39.59375 43.09375 43.984375 
Q 39.0625 48.390625 32.421875 48.390625 
Q 24.90625 48.390625 20.390625 44.140625 
Q 15.875 39.890625 15.1875 32.171875 
z
" id="DejaVuSans-101"/>
     </defs>
     <g transform="translate(16.318125 309.388359)rotate(-90)scale(0.12 -0.12)">
      <use xlink:href="#DejaVuSans-65"/>
      <use x="68.408203" xlink:href="#DejaVuSans-110"/>
      <use x="131.787109" xlink:href="#DejaVuSans-122"/>
      <use x="184.277344" xlink:href="#DejaVuSans-97"/>
      <use x="245.556641" xlink:href="#DejaVuSans-104"/>
      <use x="308.935547" xlink:href="#DejaVuSans-108"/>
      <use x="336.71875" xlink:href="#DejaVuSans-32"/>
      <use x="368.505859" xlink:href="#DejaVuSans-118"/>
      <use x="427.685547" xlink:href="#DejaVuSans-111"/>
      <use x="488.867188" xlink:href="#DejaVuSans-110"/>
      <use x="552.246094" xlink:href="#DejaVuSans-32"/>
      <use x="584.033203" xlink:href="#DejaVuSans-70"/>
      <use x="632.427734" xlink:href="#DejaVuSans-228"/>
      <use x="693.707031" xlink:href="#DejaVuSans-108"/>
      <use x="721.490234" xlink:href="#DejaVuSans-108"/>
      <use x="749.273438" xlink:href="#DejaVuSans-101"/>
      <use x="810.796875" xlink:href="#DejaVuSans-110"/>
     </g>
    </g>
   </g>
   <g id="line2d_62">
    <path clip-path="url(#p7d7c559785)" d="M 113.626023 484.725857 
L 139.529311 484.725857 
L 148.16374 484.158753 
L 152.480955 482.646475 
L 156.79817 482.646475 
L 161.115384 482.45744 
L 165.432599 481.890336 
L 169.749814 479.054814 
L 174.067029 476.975432 
L 178.384243 475.841224 
L 182.701458 473.761842 
L 187.018673 470.548251 
L 191.335887 469.603077 
L 195.653102 465.255278 
L 199.970317 456.370645 
L 204.287531 450.888637 
L 208.604746 447.296977 
L 212.921961 443.516282 
L 217.239176 438.223309 
L 221.55639 434.820683 
L 225.873605 431.607092 
L 230.19082 426.503154 
L 234.508034 423.667633 
L 238.825249 418.563695 
L 247.459678 414.215896 
L 256.094108 410.81327 
L 260.411323 402.306706 
L 264.728537 402.306706 
L 269.045752 390.208482 
L 273.362967 384.915509 
L 281.997396 373.573425 
L 286.314611 370.359834 
L 290.631825 369.981764 
L 294.94904 361.286166 
L 299.266255 361.664235 
L 303.58347 358.26161 
L 312.217899 355.615123 
L 320.852328 351.078289 
L 325.169543 348.053733 
L 333.803972 344.840143 
L 342.438402 343.894969 
L 346.755617 342.571726 
L 351.072831 340.681378 
L 355.390046 337.845857 
L 359.707261 335.19937 
L 364.024475 335.010336 
L 372.658905 333.687092 
L 376.976119 331.796745 
L 381.293334 331.229641 
L 385.610549 330.473502 
L 394.244978 328.583154 
L 407.196622 328.01605 
L 411.513837 326.314737 
L 420.148266 323.479216 
L 424.465481 322.534042 
L 433.099911 316.295896 
L 437.417125 314.594583 
L 446.051555 308.734506 
L 450.368769 308.734506 
L 467.637628 307.222228 
L 471.954843 307.222228 
L 476.272058 306.655123 
L 480.589272 300.984081 
L 484.906487 300.984081 
L 493.540916 297.203386 
L 497.858131 290.965239 
L 502.175346 287.940683 
L 510.809775 286.428405 
L 515.12699 285.861301 
L 523.761419 285.105162 
L 532.395849 283.781919 
L 541.030278 283.214814 
L 545.347493 283.214814 
L 553.981922 282.836745 
L 562.616352 282.836745 
L 566.933566 282.64771 
L 588.51964 282.64771 
L 592.836854 282.080606 
L 597.154069 282.080606 
L 601.471284 281.891571 
L 644.643431 281.891571 
L 653.27786 280.757363 
L 679.181148 280.757363 
L 683.498363 280.568328 
L 687.815578 280.001224 
L 692.132793 279.812189 
L 709.401651 279.623154 
L 713.718866 279.623154 
L 718.036081 278.488946 
L 722.353295 278.488946 
L 765.525442 273.952112 
L 769.842657 273.763077 
L 778.477087 272.628869 
L 782.794301 272.628869 
L 795.745945 271.116591 
L 800.06316 271.116591 
L 804.380375 270.549486 
L 808.697589 269.604313 
L 813.014804 269.415278 
L 825.966448 267.903 
L 830.283663 267.146861 
L 834.600878 267.146861 
L 838.918092 266.201687 
L 843.235307 265.823618 
L 856.186951 265.823618 
L 860.504166 261.475818 
L 864.821381 260.719679 
L 869.138595 259.207401 
L 873.45581 257.506089 
L 895.041883 256.938984 
L 899.359098 255.426706 
L 903.676313 254.670567 
L 916.627957 253.725394 
L 920.945172 253.725394 
L 925.262386 252.591185 
L 929.579601 251.646011 
L 933.896816 251.456977 
L 946.84846 251.267942 
L 951.165675 250.889872 
L 959.800104 249.755664 
L 964.117319 248.243386 
L 977.068963 247.298212 
L 981.386177 247.109177 
L 985.703392 246.542073 
L 994.337822 245.029795 
L 1011.60668 244.084621 
L 1015.923895 242.194274 
L 1020.24111 240.492961 
L 1024.558324 239.547787 
L 1037.509969 237.27937 
L 1041.827183 237.090336 
L 1072.047686 225.748251 
L 1076.364901 223.101764 
L 1080.682116 220.833347 
L 1084.99933 219.321069 
L 1097.950974 212.137749 
L 1102.268189 209.491262 
L 1106.585404 202.686011 
L 1110.902618 197.582073 
L 1115.219833 163.366784 
L 1128.171477 144.463309 
L 1128.171477 144.463309 
" style="fill:none;stroke:#dbcd00;stroke-linecap:square;stroke-width:2;"/>
    <defs>
     <path d="M 0 1.5 
C 0.397805 1.5 0.77937 1.341951 1.06066 1.06066 
C 1.341951 0.77937 1.5 0.397805 1.5 0 
C 1.5 -0.397805 1.341951 -0.77937 1.06066 -1.06066 
C 0.77937 -1.341951 0.397805 -1.5 0 -1.5 
C -0.397805 -1.5 -0.77937 -1.341951 -1.06066 -1.06066 
C -1.341951 -0.77937 -1.5 -0.397805 -1.5 0 
C -1.5 0.397805 -1.341951 0.77937 -1.06066 1.06066 
C -0.77937 1.341951 -0.397805 1.5 0 1.5 
z
" id="mb1dfa706c3" style="stroke:#dbcd00;"/>
    </defs>
    <g clip-path="url(#p7d7c559785)">
     <use style="fill:#dbcd00;stroke:#dbcd00;" x="113.626023" xlink:href="#mb1dfa706c3" y="484.725857"/>
     <use style="fill:#dbcd00;stroke:#dbcd00;" x="117.943237" xlink:href="#mb1dfa706c3" y="484.725857"/>
     <use style="fill:#dbcd00;stroke:#dbcd00;" x="122.260452" xlink:href="#mb1dfa706c3" y="484.725857"/>
     <use style="fill:#dbcd00;stroke:#dbcd00;" x="126.577667" xlink:href="#mb1dfa706c3" y="484.725857"/>
     <use style="fill:#dbcd00;stroke:#dbcd00;" x="130.894882" xlink:href="#mb1dfa706c3" y="484.725857"/>
     <use style="fill:#dbcd00;stroke:#dbcd00;" x="135.212096" xlink:href="#mb1dfa706c3" y="484.725857"/>
     <use style="fill:#dbcd00;stroke:#dbcd00;" x="139.529311" xlink:href="#mb1dfa706c3" y="484.725857"/>
     <use style="fill:#dbcd00;stroke:#dbcd00;" x="148.16374" xlink:href="#mb1dfa706c3" y="484.158753"/>
     <use style="fill:#dbcd00;stroke:#dbcd00;" x="152.480955" xlink:href="#mb1dfa706c3" y="482.646475"/>
     <use style="fill:#dbcd00;stroke:#dbcd00;" x="156.79817" xlink:href="#mb1dfa706c3" y="482.646475"/>
     <use style="fill:#dbcd00;stroke:#dbcd00;" x="161.115384" xlink:href="#mb1dfa706c3" y="482.45744"/>
     <use style="fill:#dbcd00;stroke:#dbcd00;" x="165.432599" xlink:href="#mb1dfa706c3" y="481.890336"/>
     <use style="fill:#dbcd00;stroke:#dbcd00;" x="169.749814" xlink:href="#mb1dfa706c3" y="479.054814"/>
     <use style="fill:#dbcd00;stroke:#dbcd00;" x="174.067029" xlink:href="#mb1dfa706c3" y="476.975432"/>
     <use style="fill:#dbcd00;stroke:#dbcd00;" x="178.384243" xlink:href="#mb1dfa706c3" y="475.841224"/>
     <use style="fill:#dbcd00;stroke:#dbcd00;" x="182.701458" xlink:href="#mb1dfa706c3" y="473.761842"/>
     <use style="fill:#dbcd00;stroke:#dbcd00;" x="187.018673" xlink:href="#mb1dfa706c3" y="470.548251"/>
     <use style="fill:#dbcd00;stroke:#dbcd00;" x="191.335887" xlink:href="#mb1dfa706c3" y="469.603077"/>
     <use style="fill:#dbcd00;stroke:#dbcd00;" x="195.653102" xlink:href="#mb1dfa706c3" y="465.255278"/>
     <use style="fill:#dbcd00;stroke:#dbcd00;" x="199.970317" xlink:href="#mb1dfa706c3" y="456.370645"/>
     <use style="fill:#dbcd00;stroke:#dbcd00;" x="204.287531" xlink:href="#mb1dfa706c3" y="450.888637"/>
     <use style="fill:#dbcd00;stroke:#dbcd00;" x="208.604746" xlink:href="#mb1dfa706c3" y="447.296977"/>
     <use style="fill:#dbcd00;stroke:#dbcd00;" x="212.921961" xlink:href="#mb1dfa706c3" y="443.516282"/>
     <use style="fill:#dbcd00;stroke:#dbcd00;" x="217.239176" xlink:href="#mb1dfa706c3" y="438.223309"/>
     <use style="fill:#dbcd00;stroke:#dbcd00;" x="221.55639" xlink:href="#mb1dfa706c3" y="434.820683"/>
     <use style="fill:#dbcd00;stroke:#dbcd00;" x="225.873605" xlink:href="#mb1dfa706c3" y="431.607092"/>
     <use style="fill:#dbcd00;stroke:#dbcd00;" x="230.19082" xlink:href="#mb1dfa706c3" y="426.503154"/>
     <use style="fill:#dbcd00;stroke:#dbcd00;" x="234.508034" xlink:href="#mb1dfa706c3" y="423.667633"/>
     <use style="fill:#dbcd00;stroke:#dbcd00;" x="238.825249" xlink:href="#mb1dfa706c3" y="418.563695"/>
     <use style="fill:#dbcd00;stroke:#dbcd00;" x="247.459678" xlink:href="#mb1dfa706c3" y="414.215896"/>
     <use style="fill:#dbcd00;stroke:#dbcd00;" x="256.094108" xlink:href="#mb1dfa706c3" y="410.81327"/>
     <use style="fill:#dbcd00;stroke:#dbcd00;" x="260.411323" xlink:href="#mb1dfa706c3" y="402.306706"/>
     <use style="fill:#dbcd00;stroke:#dbcd00;" x="264.728537" xlink:href="#mb1dfa706c3" y="402.306706"/>
     <use style="fill:#dbcd00;stroke:#dbcd00;" x="269.045752" xlink:href="#mb1dfa706c3" y="390.208482"/>
     <use style="fill:#dbcd00;stroke:#dbcd00;" x="273.362967" xlink:href="#mb1dfa706c3" y="384.915509"/>
     <use style="fill:#dbcd00;stroke:#dbcd00;" x="281.997396" xlink:href="#mb1dfa706c3" y="373.573425"/>
     <use style="fill:#dbcd00;stroke:#dbcd00;" x="286.314611" xlink:href="#mb1dfa706c3" y="370.359834"/>
     <use style="fill:#dbcd00;stroke:#dbcd00;" x="290.631825" xlink:href="#mb1dfa706c3" y="369.981764"/>
     <use style="fill:#dbcd00;stroke:#dbcd00;" x="294.94904" xlink:href="#mb1dfa706c3" y="361.286166"/>
     <use style="fill:#dbcd00;stroke:#dbcd00;" x="299.266255" xlink:href="#mb1dfa706c3" y="361.664235"/>
     <use style="fill:#dbcd00;stroke:#dbcd00;" x="303.58347" xlink:href="#mb1dfa706c3" y="358.26161"/>
     <use style="fill:#dbcd00;stroke:#dbcd00;" x="312.217899" xlink:href="#mb1dfa706c3" y="355.615123"/>
     <use style="fill:#dbcd00;stroke:#dbcd00;" x="316.535114" xlink:href="#mb1dfa706c3" y="353.346706"/>
     <use style="fill:#dbcd00;stroke:#dbcd00;" x="320.852328" xlink:href="#mb1dfa706c3" y="351.078289"/>
     <use style="fill:#dbcd00;stroke:#dbcd00;" x="325.169543" xlink:href="#mb1dfa706c3" y="348.053733"/>
     <use style="fill:#dbcd00;stroke:#dbcd00;" x="333.803972" xlink:href="#mb1dfa706c3" y="344.840143"/>
     <use style="fill:#dbcd00;stroke:#dbcd00;" x="342.438402" xlink:href="#mb1dfa706c3" y="343.894969"/>
     <use style="fill:#dbcd00;stroke:#dbcd00;" x="346.755617" xlink:href="#mb1dfa706c3" y="342.571726"/>
     <use style="fill:#dbcd00;stroke:#dbcd00;" x="351.072831" xlink:href="#mb1dfa706c3" y="340.681378"/>
     <use style="fill:#dbcd00;stroke:#dbcd00;" x="355.390046" xlink:href="#mb1dfa706c3" y="337.845857"/>
     <use style="fill:#dbcd00;stroke:#dbcd00;" x="359.707261" xlink:href="#mb1dfa706c3" y="335.19937"/>
     <use style="fill:#dbcd00;stroke:#dbcd00;" x="364.024475" xlink:href="#mb1dfa706c3" y="335.010336"/>
     <use style="fill:#dbcd00;stroke:#dbcd00;" x="372.658905" xlink:href="#mb1dfa706c3" y="333.687092"/>
     <use style="fill:#dbcd00;stroke:#dbcd00;" x="376.976119" xlink:href="#mb1dfa706c3" y="331.796745"/>
     <use style="fill:#dbcd00;stroke:#dbcd00;" x="381.293334" xlink:href="#mb1dfa706c3" y="331.229641"/>
     <use style="fill:#dbcd00;stroke:#dbcd00;" x="385.610549" xlink:href="#mb1dfa706c3" y="330.473502"/>
     <use style="fill:#dbcd00;stroke:#dbcd00;" x="389.927764" xlink:href="#mb1dfa706c3" y="329.528328"/>
     <use style="fill:#dbcd00;stroke:#dbcd00;" x="394.244978" xlink:href="#mb1dfa706c3" y="328.583154"/>
     <use style="fill:#dbcd00;stroke:#dbcd00;" x="402.879408" xlink:href="#mb1dfa706c3" y="328.205085"/>
     <use style="fill:#dbcd00;stroke:#dbcd00;" x="407.196622" xlink:href="#mb1dfa706c3" y="328.01605"/>
     <use style="fill:#dbcd00;stroke:#dbcd00;" x="411.513837" xlink:href="#mb1dfa706c3" y="326.314737"/>
     <use style="fill:#dbcd00;stroke:#dbcd00;" x="420.148266" xlink:href="#mb1dfa706c3" y="323.479216"/>
     <use style="fill:#dbcd00;stroke:#dbcd00;" x="424.465481" xlink:href="#mb1dfa706c3" y="322.534042"/>
     <use style="fill:#dbcd00;stroke:#dbcd00;" x="433.099911" xlink:href="#mb1dfa706c3" y="316.295896"/>
     <use style="fill:#dbcd00;stroke:#dbcd00;" x="437.417125" xlink:href="#mb1dfa706c3" y="314.594583"/>
     <use style="fill:#dbcd00;stroke:#dbcd00;" x="446.051555" xlink:href="#mb1dfa706c3" y="308.734506"/>
     <use style="fill:#dbcd00;stroke:#dbcd00;" x="450.368769" xlink:href="#mb1dfa706c3" y="308.734506"/>
     <use style="fill:#dbcd00;stroke:#dbcd00;" x="467.637628" xlink:href="#mb1dfa706c3" y="307.222228"/>
     <use style="fill:#dbcd00;stroke:#dbcd00;" x="471.954843" xlink:href="#mb1dfa706c3" y="307.222228"/>
     <use style="fill:#dbcd00;stroke:#dbcd00;" x="476.272058" xlink:href="#mb1dfa706c3" y="306.655123"/>
     <use style="fill:#dbcd00;stroke:#dbcd00;" x="480.589272" xlink:href="#mb1dfa706c3" y="300.984081"/>
     <use style="fill:#dbcd00;stroke:#dbcd00;" x="484.906487" xlink:href="#mb1dfa706c3" y="300.984081"/>
     <use style="fill:#dbcd00;stroke:#dbcd00;" x="493.540916" xlink:href="#mb1dfa706c3" y="297.203386"/>
     <use style="fill:#dbcd00;stroke:#dbcd00;" x="497.858131" xlink:href="#mb1dfa706c3" y="290.965239"/>
     <use style="fill:#dbcd00;stroke:#dbcd00;" x="502.175346" xlink:href="#mb1dfa706c3" y="287.940683"/>
     <use style="fill:#dbcd00;stroke:#dbcd00;" x="510.809775" xlink:href="#mb1dfa706c3" y="286.428405"/>
     <use style="fill:#dbcd00;stroke:#dbcd00;" x="515.12699" xlink:href="#mb1dfa706c3" y="285.861301"/>
     <use style="fill:#dbcd00;stroke:#dbcd00;" x="523.761419" xlink:href="#mb1dfa706c3" y="285.105162"/>
     <use style="fill:#dbcd00;stroke:#dbcd00;" x="532.395849" xlink:href="#mb1dfa706c3" y="283.781919"/>
     <use style="fill:#dbcd00;stroke:#dbcd00;" x="541.030278" xlink:href="#mb1dfa706c3" y="283.214814"/>
     <use style="fill:#dbcd00;stroke:#dbcd00;" x="545.347493" xlink:href="#mb1dfa706c3" y="283.214814"/>
     <use style="fill:#dbcd00;stroke:#dbcd00;" x="553.981922" xlink:href="#mb1dfa706c3" y="282.836745"/>
     <use style="fill:#dbcd00;stroke:#dbcd00;" x="558.299137" xlink:href="#mb1dfa706c3" y="282.836745"/>
     <use style="fill:#dbcd00;stroke:#dbcd00;" x="562.616352" xlink:href="#mb1dfa706c3" y="282.836745"/>
     <use style="fill:#dbcd00;stroke:#dbcd00;" x="566.933566" xlink:href="#mb1dfa706c3" y="282.64771"/>
     <use style="fill:#dbcd00;stroke:#dbcd00;" x="575.567996" xlink:href="#mb1dfa706c3" y="282.64771"/>
     <use style="fill:#dbcd00;stroke:#dbcd00;" x="584.202425" xlink:href="#mb1dfa706c3" y="282.64771"/>
     <use style="fill:#dbcd00;stroke:#dbcd00;" x="588.51964" xlink:href="#mb1dfa706c3" y="282.64771"/>
     <use style="fill:#dbcd00;stroke:#dbcd00;" x="592.836854" xlink:href="#mb1dfa706c3" y="282.080606"/>
     <use style="fill:#dbcd00;stroke:#dbcd00;" x="597.154069" xlink:href="#mb1dfa706c3" y="282.080606"/>
     <use style="fill:#dbcd00;stroke:#dbcd00;" x="601.471284" xlink:href="#mb1dfa706c3" y="281.891571"/>
     <use style="fill:#dbcd00;stroke:#dbcd00;" x="605.788499" xlink:href="#mb1dfa706c3" y="281.891571"/>
     <use style="fill:#dbcd00;stroke:#dbcd00;" x="614.422928" xlink:href="#mb1dfa706c3" y="281.891571"/>
     <use style="fill:#dbcd00;stroke:#dbcd00;" x="618.740143" xlink:href="#mb1dfa706c3" y="281.891571"/>
     <use style="fill:#dbcd00;stroke:#dbcd00;" x="623.057357" xlink:href="#mb1dfa706c3" y="281.891571"/>
     <use style="fill:#dbcd00;stroke:#dbcd00;" x="627.374572" xlink:href="#mb1dfa706c3" y="281.891571"/>
     <use style="fill:#dbcd00;stroke:#dbcd00;" x="631.691787" xlink:href="#mb1dfa706c3" y="281.891571"/>
     <use style="fill:#dbcd00;stroke:#dbcd00;" x="644.643431" xlink:href="#mb1dfa706c3" y="281.891571"/>
     <use style="fill:#dbcd00;stroke:#dbcd00;" x="648.960646" xlink:href="#mb1dfa706c3" y="281.324467"/>
     <use style="fill:#dbcd00;stroke:#dbcd00;" x="653.27786" xlink:href="#mb1dfa706c3" y="280.757363"/>
     <use style="fill:#dbcd00;stroke:#dbcd00;" x="657.595075" xlink:href="#mb1dfa706c3" y="280.757363"/>
     <use style="fill:#dbcd00;stroke:#dbcd00;" x="661.91229" xlink:href="#mb1dfa706c3" y="280.757363"/>
     <use style="fill:#dbcd00;stroke:#dbcd00;" x="674.863934" xlink:href="#mb1dfa706c3" y="280.757363"/>
     <use style="fill:#dbcd00;stroke:#dbcd00;" x="679.181148" xlink:href="#mb1dfa706c3" y="280.757363"/>
     <use style="fill:#dbcd00;stroke:#dbcd00;" x="683.498363" xlink:href="#mb1dfa706c3" y="280.568328"/>
     <use style="fill:#dbcd00;stroke:#dbcd00;" x="687.815578" xlink:href="#mb1dfa706c3" y="280.001224"/>
     <use style="fill:#dbcd00;stroke:#dbcd00;" x="692.132793" xlink:href="#mb1dfa706c3" y="279.812189"/>
     <use style="fill:#dbcd00;stroke:#dbcd00;" x="705.084437" xlink:href="#mb1dfa706c3" y="279.623154"/>
     <use style="fill:#dbcd00;stroke:#dbcd00;" x="709.401651" xlink:href="#mb1dfa706c3" y="279.623154"/>
     <use style="fill:#dbcd00;stroke:#dbcd00;" x="713.718866" xlink:href="#mb1dfa706c3" y="279.623154"/>
     <use style="fill:#dbcd00;stroke:#dbcd00;" x="718.036081" xlink:href="#mb1dfa706c3" y="278.488946"/>
     <use style="fill:#dbcd00;stroke:#dbcd00;" x="722.353295" xlink:href="#mb1dfa706c3" y="278.488946"/>
     <use style="fill:#dbcd00;stroke:#dbcd00;" x="765.525442" xlink:href="#mb1dfa706c3" y="273.952112"/>
     <use style="fill:#dbcd00;stroke:#dbcd00;" x="769.842657" xlink:href="#mb1dfa706c3" y="273.763077"/>
     <use style="fill:#dbcd00;stroke:#dbcd00;" x="778.477087" xlink:href="#mb1dfa706c3" y="272.628869"/>
     <use style="fill:#dbcd00;stroke:#dbcd00;" x="782.794301" xlink:href="#mb1dfa706c3" y="272.628869"/>
     <use style="fill:#dbcd00;stroke:#dbcd00;" x="795.745945" xlink:href="#mb1dfa706c3" y="271.116591"/>
     <use style="fill:#dbcd00;stroke:#dbcd00;" x="800.06316" xlink:href="#mb1dfa706c3" y="271.116591"/>
     <use style="fill:#dbcd00;stroke:#dbcd00;" x="804.380375" xlink:href="#mb1dfa706c3" y="270.549486"/>
     <use style="fill:#dbcd00;stroke:#dbcd00;" x="808.697589" xlink:href="#mb1dfa706c3" y="269.604313"/>
     <use style="fill:#dbcd00;stroke:#dbcd00;" x="813.014804" xlink:href="#mb1dfa706c3" y="269.415278"/>
     <use style="fill:#dbcd00;stroke:#dbcd00;" x="825.966448" xlink:href="#mb1dfa706c3" y="267.903"/>
     <use style="fill:#dbcd00;stroke:#dbcd00;" x="830.283663" xlink:href="#mb1dfa706c3" y="267.146861"/>
     <use style="fill:#dbcd00;stroke:#dbcd00;" x="834.600878" xlink:href="#mb1dfa706c3" y="267.146861"/>
     <use style="fill:#dbcd00;stroke:#dbcd00;" x="838.918092" xlink:href="#mb1dfa706c3" y="266.201687"/>
     <use style="fill:#dbcd00;stroke:#dbcd00;" x="843.235307" xlink:href="#mb1dfa706c3" y="265.823618"/>
     <use style="fill:#dbcd00;stroke:#dbcd00;" x="856.186951" xlink:href="#mb1dfa706c3" y="265.823618"/>
     <use style="fill:#dbcd00;stroke:#dbcd00;" x="860.504166" xlink:href="#mb1dfa706c3" y="261.475818"/>
     <use style="fill:#dbcd00;stroke:#dbcd00;" x="864.821381" xlink:href="#mb1dfa706c3" y="260.719679"/>
     <use style="fill:#dbcd00;stroke:#dbcd00;" x="869.138595" xlink:href="#mb1dfa706c3" y="259.207401"/>
     <use style="fill:#dbcd00;stroke:#dbcd00;" x="873.45581" xlink:href="#mb1dfa706c3" y="257.506089"/>
     <use style="fill:#dbcd00;stroke:#dbcd00;" x="886.407454" xlink:href="#mb1dfa706c3" y="257.128019"/>
     <use style="fill:#dbcd00;stroke:#dbcd00;" x="890.724669" xlink:href="#mb1dfa706c3" y="256.938984"/>
     <use style="fill:#dbcd00;stroke:#dbcd00;" x="895.041883" xlink:href="#mb1dfa706c3" y="256.938984"/>
     <use style="fill:#dbcd00;stroke:#dbcd00;" x="899.359098" xlink:href="#mb1dfa706c3" y="255.426706"/>
     <use style="fill:#dbcd00;stroke:#dbcd00;" x="903.676313" xlink:href="#mb1dfa706c3" y="254.670567"/>
     <use style="fill:#dbcd00;stroke:#dbcd00;" x="916.627957" xlink:href="#mb1dfa706c3" y="253.725394"/>
     <use style="fill:#dbcd00;stroke:#dbcd00;" x="920.945172" xlink:href="#mb1dfa706c3" y="253.725394"/>
     <use style="fill:#dbcd00;stroke:#dbcd00;" x="925.262386" xlink:href="#mb1dfa706c3" y="252.591185"/>
     <use style="fill:#dbcd00;stroke:#dbcd00;" x="929.579601" xlink:href="#mb1dfa706c3" y="251.646011"/>
     <use style="fill:#dbcd00;stroke:#dbcd00;" x="933.896816" xlink:href="#mb1dfa706c3" y="251.456977"/>
     <use style="fill:#dbcd00;stroke:#dbcd00;" x="946.84846" xlink:href="#mb1dfa706c3" y="251.267942"/>
     <use style="fill:#dbcd00;stroke:#dbcd00;" x="951.165675" xlink:href="#mb1dfa706c3" y="250.889872"/>
     <use style="fill:#dbcd00;stroke:#dbcd00;" x="955.482889" xlink:href="#mb1dfa706c3" y="250.322768"/>
     <use style="fill:#dbcd00;stroke:#dbcd00;" x="959.800104" xlink:href="#mb1dfa706c3" y="249.755664"/>
     <use style="fill:#dbcd00;stroke:#dbcd00;" x="964.117319" xlink:href="#mb1dfa706c3" y="248.243386"/>
     <use style="fill:#dbcd00;stroke:#dbcd00;" x="977.068963" xlink:href="#mb1dfa706c3" y="247.298212"/>
     <use style="fill:#dbcd00;stroke:#dbcd00;" x="981.386177" xlink:href="#mb1dfa706c3" y="247.109177"/>
     <use style="fill:#dbcd00;stroke:#dbcd00;" x="985.703392" xlink:href="#mb1dfa706c3" y="246.542073"/>
     <use style="fill:#dbcd00;stroke:#dbcd00;" x="990.020607" xlink:href="#mb1dfa706c3" y="245.785934"/>
     <use style="fill:#dbcd00;stroke:#dbcd00;" x="994.337822" xlink:href="#mb1dfa706c3" y="245.029795"/>
     <use style="fill:#dbcd00;stroke:#dbcd00;" x="1007.289466" xlink:href="#mb1dfa706c3" y="244.273656"/>
     <use style="fill:#dbcd00;stroke:#dbcd00;" x="1011.60668" xlink:href="#mb1dfa706c3" y="244.084621"/>
     <use style="fill:#dbcd00;stroke:#dbcd00;" x="1015.923895" xlink:href="#mb1dfa706c3" y="242.194274"/>
     <use style="fill:#dbcd00;stroke:#dbcd00;" x="1020.24111" xlink:href="#mb1dfa706c3" y="240.492961"/>
     <use style="fill:#dbcd00;stroke:#dbcd00;" x="1024.558324" xlink:href="#mb1dfa706c3" y="239.547787"/>
     <use style="fill:#dbcd00;stroke:#dbcd00;" x="1037.509969" xlink:href="#mb1dfa706c3" y="237.27937"/>
     <use style="fill:#dbcd00;stroke:#dbcd00;" x="1041.827183" xlink:href="#mb1dfa706c3" y="237.090336"/>
     <use style="fill:#dbcd00;stroke:#dbcd00;" x="1072.047686" xlink:href="#mb1dfa706c3" y="225.748251"/>
     <use style="fill:#dbcd00;stroke:#dbcd00;" x="1076.364901" xlink:href="#mb1dfa706c3" y="223.101764"/>
     <use style="fill:#dbcd00;stroke:#dbcd00;" x="1080.682116" xlink:href="#mb1dfa706c3" y="220.833347"/>
     <use style="fill:#dbcd00;stroke:#dbcd00;" x="1084.99933" xlink:href="#mb1dfa706c3" y="219.321069"/>
     <use style="fill:#dbcd00;stroke:#dbcd00;" x="1097.950974" xlink:href="#mb1dfa706c3" y="212.137749"/>
     <use style="fill:#dbcd00;stroke:#dbcd00;" x="1102.268189" xlink:href="#mb1dfa706c3" y="209.491262"/>
     <use style="fill:#dbcd00;stroke:#dbcd00;" x="1106.585404" xlink:href="#mb1dfa706c3" y="202.686011"/>
     <use style="fill:#dbcd00;stroke:#dbcd00;" x="1110.902618" xlink:href="#mb1dfa706c3" y="197.582073"/>
     <use style="fill:#dbcd00;stroke:#dbcd00;" x="1115.219833" xlink:href="#mb1dfa706c3" y="163.366784"/>
     <use style="fill:#dbcd00;stroke:#dbcd00;" x="1128.171477" xlink:href="#mb1dfa706c3" y="144.463309"/>
    </g>
   </g>
   <g id="line2d_63">
    <path clip-path="url(#p7d7c559785)" d="M 113.626023 482.07937 
L 117.943237 479.621919 
L 122.260452 476.219293 
L 126.577667 469.225008 
L 130.894882 466.767556 
L 135.212096 461.474583 
L 139.529311 453.724158 
L 148.16374 437.656204 
L 152.480955 435.009718 
L 156.79817 433.49744 
L 161.115384 431.229023 
L 165.432599 429.716745 
L 169.749814 427.070259 
L 174.067029 423.478598 
L 178.384243 418.941764 
L 182.701458 416.295278 
L 187.018673 417.051417 
L 191.335887 416.106243 
L 195.653102 414.783 
L 199.970317 415.350104 
L 204.287531 413.081687 
L 208.604746 408.733888 
L 212.921961 405.331262 
L 217.239176 407.977749 
L 221.55639 408.733888 
L 225.873605 408.733888 
L 230.19082 409.679062 
L 234.508034 407.032575 
L 238.825249 409.868096 
L 247.459678 413.648791 
L 256.094108 413.648791 
L 260.411323 421.588251 
L 264.728537 419.508869 
L 269.045752 428.771571 
L 273.362967 432.552266 
L 281.997396 442.949177 
L 286.314611 445.973733 
L 290.631825 444.65049 
L 294.94904 452.21188 
L 299.266255 450.321533 
L 303.58347 452.778984 
L 312.217899 454.669332 
L 320.852328 458.828096 
L 325.169543 461.852652 
L 333.803972 463.932035 
L 342.438402 464.121069 
L 346.755617 465.066243 
L 351.072831 466.578521 
L 355.390046 467.33466 
L 359.707261 469.225008 
L 364.024475 467.523695 
L 372.658905 465.822382 
L 376.976119 466.956591 
L 381.293334 461.474583 
L 385.610549 460.15134 
L 389.927764 460.718444 
L 394.244978 461.096513 
L 402.879408 458.828096 
L 407.196622 459.017131 
L 411.513837 460.718444 
L 420.148266 460.15134 
L 424.465481 457.504853 
L 433.099911 463.36493 
L 437.417125 464.688174 
L 446.051555 462.230722 
L 450.368769 461.474583 
L 467.637628 462.230722 
L 476.272058 462.230722 
L 480.589272 466.956591 
L 484.906487 466.956591 
L 493.540916 470.548251 
L 497.858131 476.408328 
L 502.175346 479.432884 
L 510.809775 480.945162 
L 515.12699 481.512266 
L 523.761419 482.07937 
L 532.395849 483.402614 
L 545.347493 483.402614 
L 553.981922 483.780683 
L 562.616352 483.780683 
L 566.933566 483.969718 
L 575.567996 483.591648 
L 588.51964 483.591648 
L 592.836854 483.780683 
L 597.154069 483.213579 
L 601.471284 483.402614 
L 605.788499 483.402614 
L 644.643431 482.646475 
L 648.960646 482.835509 
L 653.27786 483.402614 
L 661.91229 483.024544 
L 674.863934 483.024544 
L 679.181148 480.945162 
L 683.498363 481.134197 
L 687.815578 480.756127 
L 692.132793 480.945162 
L 705.084437 480.189023 
L 709.401651 479.621919 
L 713.718866 479.621919 
L 718.036081 479.810953 
L 722.353295 478.676745 
L 765.525442 479.243849 
L 769.842657 478.48771 
L 778.477087 477.353502 
L 782.794301 476.408328 
L 795.745945 476.408328 
L 800.06316 473.572807 
L 804.380375 473.194737 
L 813.014804 472.060529 
L 825.966448 473.005703 
L 830.283663 473.194737 
L 834.600878 473.194737 
L 838.918092 473.950876 
L 843.235307 474.328946 
L 856.186951 474.328946 
L 860.504166 477.542536 
L 864.821381 477.542536 
L 869.138595 477.920606 
L 873.45581 479.243849 
L 886.407454 479.054814 
L 890.724669 478.48771 
L 895.041883 478.48771 
L 899.359098 479.810953 
L 903.676313 480.189023 
L 916.627957 480.189023 
L 920.945172 477.731571 
L 925.262386 478.48771 
L 929.579601 478.48771 
L 933.896816 478.109641 
L 946.84846 478.298675 
L 951.165675 476.975432 
L 964.117319 476.975432 
L 977.068963 476.219293 
L 981.386177 473.194737 
L 985.703392 473.194737 
L 990.020607 471.682459 
L 994.337822 470.92632 
L 1007.289466 471.682459 
L 1011.60668 460.907479 
L 1015.923895 462.230722 
L 1020.24111 460.907479 
L 1024.558324 459.017131 
L 1037.509969 459.77327 
L 1041.827183 452.21188 
L 1072.047686 430.094814 
L 1076.364901 425.747015 
L 1080.682116 420.832112 
L 1084.99933 414.972035 
L 1097.950974 403.062845 
L 1102.268189 387.372961 
L 1106.585404 388.318135 
L 1110.902618 369.41466 
L 1115.219833 383.592266 
L 1128.171477 355.804158 
L 1128.171477 355.804158 
" style="fill:none;stroke:#2792cb;stroke-linecap:square;stroke-width:2;"/>
    <defs>
     <path d="M 0 1.5 
C 0.397805 1.5 0.77937 1.341951 1.06066 1.06066 
C 1.341951 0.77937 1.5 0.397805 1.5 0 
C 1.5 -0.397805 1.341951 -0.77937 1.06066 -1.06066 
C 0.77937 -1.341951 0.397805 -1.5 0 -1.5 
C -0.397805 -1.5 -0.77937 -1.341951 -1.06066 -1.06066 
C -1.341951 -0.77937 -1.5 -0.397805 -1.5 0 
C -1.5 0.397805 -1.341951 0.77937 -1.06066 1.06066 
C -0.77937 1.341951 -0.397805 1.5 0 1.5 
z
" id="mff5b08bf5c" style="stroke:#2792cb;"/>
    </defs>
    <g clip-path="url(#p7d7c559785)">
     <use style="fill:#2792cb;stroke:#2792cb;" x="113.626023" xlink:href="#mff5b08bf5c" y="482.07937"/>
     <use style="fill:#2792cb;stroke:#2792cb;" x="117.943237" xlink:href="#mff5b08bf5c" y="479.621919"/>
     <use style="fill:#2792cb;stroke:#2792cb;" x="122.260452" xlink:href="#mff5b08bf5c" y="476.219293"/>
     <use style="fill:#2792cb;stroke:#2792cb;" x="126.577667" xlink:href="#mff5b08bf5c" y="469.225008"/>
     <use style="fill:#2792cb;stroke:#2792cb;" x="130.894882" xlink:href="#mff5b08bf5c" y="466.767556"/>
     <use style="fill:#2792cb;stroke:#2792cb;" x="135.212096" xlink:href="#mff5b08bf5c" y="461.474583"/>
     <use style="fill:#2792cb;stroke:#2792cb;" x="139.529311" xlink:href="#mff5b08bf5c" y="453.724158"/>
     <use style="fill:#2792cb;stroke:#2792cb;" x="148.16374" xlink:href="#mff5b08bf5c" y="437.656204"/>
     <use style="fill:#2792cb;stroke:#2792cb;" x="152.480955" xlink:href="#mff5b08bf5c" y="435.009718"/>
     <use style="fill:#2792cb;stroke:#2792cb;" x="156.79817" xlink:href="#mff5b08bf5c" y="433.49744"/>
     <use style="fill:#2792cb;stroke:#2792cb;" x="161.115384" xlink:href="#mff5b08bf5c" y="431.229023"/>
     <use style="fill:#2792cb;stroke:#2792cb;" x="165.432599" xlink:href="#mff5b08bf5c" y="429.716745"/>
     <use style="fill:#2792cb;stroke:#2792cb;" x="169.749814" xlink:href="#mff5b08bf5c" y="427.070259"/>
     <use style="fill:#2792cb;stroke:#2792cb;" x="174.067029" xlink:href="#mff5b08bf5c" y="423.478598"/>
     <use style="fill:#2792cb;stroke:#2792cb;" x="178.384243" xlink:href="#mff5b08bf5c" y="418.941764"/>
     <use style="fill:#2792cb;stroke:#2792cb;" x="182.701458" xlink:href="#mff5b08bf5c" y="416.295278"/>
     <use style="fill:#2792cb;stroke:#2792cb;" x="187.018673" xlink:href="#mff5b08bf5c" y="417.051417"/>
     <use style="fill:#2792cb;stroke:#2792cb;" x="191.335887" xlink:href="#mff5b08bf5c" y="416.106243"/>
     <use style="fill:#2792cb;stroke:#2792cb;" x="195.653102" xlink:href="#mff5b08bf5c" y="414.783"/>
     <use style="fill:#2792cb;stroke:#2792cb;" x="199.970317" xlink:href="#mff5b08bf5c" y="415.350104"/>
     <use style="fill:#2792cb;stroke:#2792cb;" x="204.287531" xlink:href="#mff5b08bf5c" y="413.081687"/>
     <use style="fill:#2792cb;stroke:#2792cb;" x="208.604746" xlink:href="#mff5b08bf5c" y="408.733888"/>
     <use style="fill:#2792cb;stroke:#2792cb;" x="212.921961" xlink:href="#mff5b08bf5c" y="405.331262"/>
     <use style="fill:#2792cb;stroke:#2792cb;" x="217.239176" xlink:href="#mff5b08bf5c" y="407.977749"/>
     <use style="fill:#2792cb;stroke:#2792cb;" x="221.55639" xlink:href="#mff5b08bf5c" y="408.733888"/>
     <use style="fill:#2792cb;stroke:#2792cb;" x="225.873605" xlink:href="#mff5b08bf5c" y="408.733888"/>
     <use style="fill:#2792cb;stroke:#2792cb;" x="230.19082" xlink:href="#mff5b08bf5c" y="409.679062"/>
     <use style="fill:#2792cb;stroke:#2792cb;" x="234.508034" xlink:href="#mff5b08bf5c" y="407.032575"/>
     <use style="fill:#2792cb;stroke:#2792cb;" x="238.825249" xlink:href="#mff5b08bf5c" y="409.868096"/>
     <use style="fill:#2792cb;stroke:#2792cb;" x="247.459678" xlink:href="#mff5b08bf5c" y="413.648791"/>
     <use style="fill:#2792cb;stroke:#2792cb;" x="256.094108" xlink:href="#mff5b08bf5c" y="413.648791"/>
     <use style="fill:#2792cb;stroke:#2792cb;" x="260.411323" xlink:href="#mff5b08bf5c" y="421.588251"/>
     <use style="fill:#2792cb;stroke:#2792cb;" x="264.728537" xlink:href="#mff5b08bf5c" y="419.508869"/>
     <use style="fill:#2792cb;stroke:#2792cb;" x="269.045752" xlink:href="#mff5b08bf5c" y="428.771571"/>
     <use style="fill:#2792cb;stroke:#2792cb;" x="273.362967" xlink:href="#mff5b08bf5c" y="432.552266"/>
     <use style="fill:#2792cb;stroke:#2792cb;" x="281.997396" xlink:href="#mff5b08bf5c" y="442.949177"/>
     <use style="fill:#2792cb;stroke:#2792cb;" x="286.314611" xlink:href="#mff5b08bf5c" y="445.973733"/>
     <use style="fill:#2792cb;stroke:#2792cb;" x="290.631825" xlink:href="#mff5b08bf5c" y="444.65049"/>
     <use style="fill:#2792cb;stroke:#2792cb;" x="294.94904" xlink:href="#mff5b08bf5c" y="452.21188"/>
     <use style="fill:#2792cb;stroke:#2792cb;" x="299.266255" xlink:href="#mff5b08bf5c" y="450.321533"/>
     <use style="fill:#2792cb;stroke:#2792cb;" x="303.58347" xlink:href="#mff5b08bf5c" y="452.778984"/>
     <use style="fill:#2792cb;stroke:#2792cb;" x="312.217899" xlink:href="#mff5b08bf5c" y="454.669332"/>
     <use style="fill:#2792cb;stroke:#2792cb;" x="316.535114" xlink:href="#mff5b08bf5c" y="456.748714"/>
     <use style="fill:#2792cb;stroke:#2792cb;" x="320.852328" xlink:href="#mff5b08bf5c" y="458.828096"/>
     <use style="fill:#2792cb;stroke:#2792cb;" x="325.169543" xlink:href="#mff5b08bf5c" y="461.852652"/>
     <use style="fill:#2792cb;stroke:#2792cb;" x="333.803972" xlink:href="#mff5b08bf5c" y="463.932035"/>
     <use style="fill:#2792cb;stroke:#2792cb;" x="342.438402" xlink:href="#mff5b08bf5c" y="464.121069"/>
     <use style="fill:#2792cb;stroke:#2792cb;" x="346.755617" xlink:href="#mff5b08bf5c" y="465.066243"/>
     <use style="fill:#2792cb;stroke:#2792cb;" x="351.072831" xlink:href="#mff5b08bf5c" y="466.578521"/>
     <use style="fill:#2792cb;stroke:#2792cb;" x="355.390046" xlink:href="#mff5b08bf5c" y="467.33466"/>
     <use style="fill:#2792cb;stroke:#2792cb;" x="359.707261" xlink:href="#mff5b08bf5c" y="469.225008"/>
     <use style="fill:#2792cb;stroke:#2792cb;" x="364.024475" xlink:href="#mff5b08bf5c" y="467.523695"/>
     <use style="fill:#2792cb;stroke:#2792cb;" x="372.658905" xlink:href="#mff5b08bf5c" y="465.822382"/>
     <use style="fill:#2792cb;stroke:#2792cb;" x="376.976119" xlink:href="#mff5b08bf5c" y="466.956591"/>
     <use style="fill:#2792cb;stroke:#2792cb;" x="381.293334" xlink:href="#mff5b08bf5c" y="461.474583"/>
     <use style="fill:#2792cb;stroke:#2792cb;" x="385.610549" xlink:href="#mff5b08bf5c" y="460.15134"/>
     <use style="fill:#2792cb;stroke:#2792cb;" x="389.927764" xlink:href="#mff5b08bf5c" y="460.718444"/>
     <use style="fill:#2792cb;stroke:#2792cb;" x="394.244978" xlink:href="#mff5b08bf5c" y="461.096513"/>
     <use style="fill:#2792cb;stroke:#2792cb;" x="402.879408" xlink:href="#mff5b08bf5c" y="458.828096"/>
     <use style="fill:#2792cb;stroke:#2792cb;" x="407.196622" xlink:href="#mff5b08bf5c" y="459.017131"/>
     <use style="fill:#2792cb;stroke:#2792cb;" x="411.513837" xlink:href="#mff5b08bf5c" y="460.718444"/>
     <use style="fill:#2792cb;stroke:#2792cb;" x="420.148266" xlink:href="#mff5b08bf5c" y="460.15134"/>
     <use style="fill:#2792cb;stroke:#2792cb;" x="424.465481" xlink:href="#mff5b08bf5c" y="457.504853"/>
     <use style="fill:#2792cb;stroke:#2792cb;" x="433.099911" xlink:href="#mff5b08bf5c" y="463.36493"/>
     <use style="fill:#2792cb;stroke:#2792cb;" x="437.417125" xlink:href="#mff5b08bf5c" y="464.688174"/>
     <use style="fill:#2792cb;stroke:#2792cb;" x="446.051555" xlink:href="#mff5b08bf5c" y="462.230722"/>
     <use style="fill:#2792cb;stroke:#2792cb;" x="450.368769" xlink:href="#mff5b08bf5c" y="461.474583"/>
     <use style="fill:#2792cb;stroke:#2792cb;" x="467.637628" xlink:href="#mff5b08bf5c" y="462.230722"/>
     <use style="fill:#2792cb;stroke:#2792cb;" x="471.954843" xlink:href="#mff5b08bf5c" y="462.230722"/>
     <use style="fill:#2792cb;stroke:#2792cb;" x="476.272058" xlink:href="#mff5b08bf5c" y="462.230722"/>
     <use style="fill:#2792cb;stroke:#2792cb;" x="480.589272" xlink:href="#mff5b08bf5c" y="466.956591"/>
     <use style="fill:#2792cb;stroke:#2792cb;" x="484.906487" xlink:href="#mff5b08bf5c" y="466.956591"/>
     <use style="fill:#2792cb;stroke:#2792cb;" x="493.540916" xlink:href="#mff5b08bf5c" y="470.548251"/>
     <use style="fill:#2792cb;stroke:#2792cb;" x="497.858131" xlink:href="#mff5b08bf5c" y="476.408328"/>
     <use style="fill:#2792cb;stroke:#2792cb;" x="502.175346" xlink:href="#mff5b08bf5c" y="479.432884"/>
     <use style="fill:#2792cb;stroke:#2792cb;" x="510.809775" xlink:href="#mff5b08bf5c" y="480.945162"/>
     <use style="fill:#2792cb;stroke:#2792cb;" x="515.12699" xlink:href="#mff5b08bf5c" y="481.512266"/>
     <use style="fill:#2792cb;stroke:#2792cb;" x="523.761419" xlink:href="#mff5b08bf5c" y="482.07937"/>
     <use style="fill:#2792cb;stroke:#2792cb;" x="532.395849" xlink:href="#mff5b08bf5c" y="483.402614"/>
     <use style="fill:#2792cb;stroke:#2792cb;" x="541.030278" xlink:href="#mff5b08bf5c" y="483.402614"/>
     <use style="fill:#2792cb;stroke:#2792cb;" x="545.347493" xlink:href="#mff5b08bf5c" y="483.402614"/>
     <use style="fill:#2792cb;stroke:#2792cb;" x="553.981922" xlink:href="#mff5b08bf5c" y="483.780683"/>
     <use style="fill:#2792cb;stroke:#2792cb;" x="558.299137" xlink:href="#mff5b08bf5c" y="483.780683"/>
     <use style="fill:#2792cb;stroke:#2792cb;" x="562.616352" xlink:href="#mff5b08bf5c" y="483.780683"/>
     <use style="fill:#2792cb;stroke:#2792cb;" x="566.933566" xlink:href="#mff5b08bf5c" y="483.969718"/>
     <use style="fill:#2792cb;stroke:#2792cb;" x="575.567996" xlink:href="#mff5b08bf5c" y="483.591648"/>
     <use style="fill:#2792cb;stroke:#2792cb;" x="584.202425" xlink:href="#mff5b08bf5c" y="483.591648"/>
     <use style="fill:#2792cb;stroke:#2792cb;" x="588.51964" xlink:href="#mff5b08bf5c" y="483.591648"/>
     <use style="fill:#2792cb;stroke:#2792cb;" x="592.836854" xlink:href="#mff5b08bf5c" y="483.780683"/>
     <use style="fill:#2792cb;stroke:#2792cb;" x="597.154069" xlink:href="#mff5b08bf5c" y="483.213579"/>
     <use style="fill:#2792cb;stroke:#2792cb;" x="601.471284" xlink:href="#mff5b08bf5c" y="483.402614"/>
     <use style="fill:#2792cb;stroke:#2792cb;" x="605.788499" xlink:href="#mff5b08bf5c" y="483.402614"/>
     <use style="fill:#2792cb;stroke:#2792cb;" x="614.422928" xlink:href="#mff5b08bf5c" y="483.213579"/>
     <use style="fill:#2792cb;stroke:#2792cb;" x="618.740143" xlink:href="#mff5b08bf5c" y="483.024544"/>
     <use style="fill:#2792cb;stroke:#2792cb;" x="623.057357" xlink:href="#mff5b08bf5c" y="483.024544"/>
     <use style="fill:#2792cb;stroke:#2792cb;" x="627.374572" xlink:href="#mff5b08bf5c" y="483.024544"/>
     <use style="fill:#2792cb;stroke:#2792cb;" x="631.691787" xlink:href="#mff5b08bf5c" y="482.835509"/>
     <use style="fill:#2792cb;stroke:#2792cb;" x="644.643431" xlink:href="#mff5b08bf5c" y="482.646475"/>
     <use style="fill:#2792cb;stroke:#2792cb;" x="648.960646" xlink:href="#mff5b08bf5c" y="482.835509"/>
     <use style="fill:#2792cb;stroke:#2792cb;" x="653.27786" xlink:href="#mff5b08bf5c" y="483.402614"/>
     <use style="fill:#2792cb;stroke:#2792cb;" x="657.595075" xlink:href="#mff5b08bf5c" y="483.213579"/>
     <use style="fill:#2792cb;stroke:#2792cb;" x="661.91229" xlink:href="#mff5b08bf5c" y="483.024544"/>
     <use style="fill:#2792cb;stroke:#2792cb;" x="674.863934" xlink:href="#mff5b08bf5c" y="483.024544"/>
     <use style="fill:#2792cb;stroke:#2792cb;" x="679.181148" xlink:href="#mff5b08bf5c" y="480.945162"/>
     <use style="fill:#2792cb;stroke:#2792cb;" x="683.498363" xlink:href="#mff5b08bf5c" y="481.134197"/>
     <use style="fill:#2792cb;stroke:#2792cb;" x="687.815578" xlink:href="#mff5b08bf5c" y="480.756127"/>
     <use style="fill:#2792cb;stroke:#2792cb;" x="692.132793" xlink:href="#mff5b08bf5c" y="480.945162"/>
     <use style="fill:#2792cb;stroke:#2792cb;" x="705.084437" xlink:href="#mff5b08bf5c" y="480.189023"/>
     <use style="fill:#2792cb;stroke:#2792cb;" x="709.401651" xlink:href="#mff5b08bf5c" y="479.621919"/>
     <use style="fill:#2792cb;stroke:#2792cb;" x="713.718866" xlink:href="#mff5b08bf5c" y="479.621919"/>
     <use style="fill:#2792cb;stroke:#2792cb;" x="718.036081" xlink:href="#mff5b08bf5c" y="479.810953"/>
     <use style="fill:#2792cb;stroke:#2792cb;" x="722.353295" xlink:href="#mff5b08bf5c" y="478.676745"/>
     <use style="fill:#2792cb;stroke:#2792cb;" x="765.525442" xlink:href="#mff5b08bf5c" y="479.243849"/>
     <use style="fill:#2792cb;stroke:#2792cb;" x="769.842657" xlink:href="#mff5b08bf5c" y="478.48771"/>
     <use style="fill:#2792cb;stroke:#2792cb;" x="778.477087" xlink:href="#mff5b08bf5c" y="477.353502"/>
     <use style="fill:#2792cb;stroke:#2792cb;" x="782.794301" xlink:href="#mff5b08bf5c" y="476.408328"/>
     <use style="fill:#2792cb;stroke:#2792cb;" x="795.745945" xlink:href="#mff5b08bf5c" y="476.408328"/>
     <use style="fill:#2792cb;stroke:#2792cb;" x="800.06316" xlink:href="#mff5b08bf5c" y="473.572807"/>
     <use style="fill:#2792cb;stroke:#2792cb;" x="804.380375" xlink:href="#mff5b08bf5c" y="473.194737"/>
     <use style="fill:#2792cb;stroke:#2792cb;" x="808.697589" xlink:href="#mff5b08bf5c" y="472.627633"/>
     <use style="fill:#2792cb;stroke:#2792cb;" x="813.014804" xlink:href="#mff5b08bf5c" y="472.060529"/>
     <use style="fill:#2792cb;stroke:#2792cb;" x="825.966448" xlink:href="#mff5b08bf5c" y="473.005703"/>
     <use style="fill:#2792cb;stroke:#2792cb;" x="830.283663" xlink:href="#mff5b08bf5c" y="473.194737"/>
     <use style="fill:#2792cb;stroke:#2792cb;" x="834.600878" xlink:href="#mff5b08bf5c" y="473.194737"/>
     <use style="fill:#2792cb;stroke:#2792cb;" x="838.918092" xlink:href="#mff5b08bf5c" y="473.950876"/>
     <use style="fill:#2792cb;stroke:#2792cb;" x="843.235307" xlink:href="#mff5b08bf5c" y="474.328946"/>
     <use style="fill:#2792cb;stroke:#2792cb;" x="856.186951" xlink:href="#mff5b08bf5c" y="474.328946"/>
     <use style="fill:#2792cb;stroke:#2792cb;" x="860.504166" xlink:href="#mff5b08bf5c" y="477.542536"/>
     <use style="fill:#2792cb;stroke:#2792cb;" x="864.821381" xlink:href="#mff5b08bf5c" y="477.542536"/>
     <use style="fill:#2792cb;stroke:#2792cb;" x="869.138595" xlink:href="#mff5b08bf5c" y="477.920606"/>
     <use style="fill:#2792cb;stroke:#2792cb;" x="873.45581" xlink:href="#mff5b08bf5c" y="479.243849"/>
     <use style="fill:#2792cb;stroke:#2792cb;" x="886.407454" xlink:href="#mff5b08bf5c" y="479.054814"/>
     <use style="fill:#2792cb;stroke:#2792cb;" x="890.724669" xlink:href="#mff5b08bf5c" y="478.48771"/>
     <use style="fill:#2792cb;stroke:#2792cb;" x="895.041883" xlink:href="#mff5b08bf5c" y="478.48771"/>
     <use style="fill:#2792cb;stroke:#2792cb;" x="899.359098" xlink:href="#mff5b08bf5c" y="479.810953"/>
     <use style="fill:#2792cb;stroke:#2792cb;" x="903.676313" xlink:href="#mff5b08bf5c" y="480.189023"/>
     <use style="fill:#2792cb;stroke:#2792cb;" x="916.627957" xlink:href="#mff5b08bf5c" y="480.189023"/>
     <use style="fill:#2792cb;stroke:#2792cb;" x="920.945172" xlink:href="#mff5b08bf5c" y="477.731571"/>
     <use style="fill:#2792cb;stroke:#2792cb;" x="925.262386" xlink:href="#mff5b08bf5c" y="478.48771"/>
     <use style="fill:#2792cb;stroke:#2792cb;" x="929.579601" xlink:href="#mff5b08bf5c" y="478.48771"/>
     <use style="fill:#2792cb;stroke:#2792cb;" x="933.896816" xlink:href="#mff5b08bf5c" y="478.109641"/>
     <use style="fill:#2792cb;stroke:#2792cb;" x="946.84846" xlink:href="#mff5b08bf5c" y="478.298675"/>
     <use style="fill:#2792cb;stroke:#2792cb;" x="951.165675" xlink:href="#mff5b08bf5c" y="476.975432"/>
     <use style="fill:#2792cb;stroke:#2792cb;" x="955.482889" xlink:href="#mff5b08bf5c" y="476.975432"/>
     <use style="fill:#2792cb;stroke:#2792cb;" x="959.800104" xlink:href="#mff5b08bf5c" y="476.975432"/>
     <use style="fill:#2792cb;stroke:#2792cb;" x="964.117319" xlink:href="#mff5b08bf5c" y="476.975432"/>
     <use style="fill:#2792cb;stroke:#2792cb;" x="977.068963" xlink:href="#mff5b08bf5c" y="476.219293"/>
     <use style="fill:#2792cb;stroke:#2792cb;" x="981.386177" xlink:href="#mff5b08bf5c" y="473.194737"/>
     <use style="fill:#2792cb;stroke:#2792cb;" x="985.703392" xlink:href="#mff5b08bf5c" y="473.194737"/>
     <use style="fill:#2792cb;stroke:#2792cb;" x="990.020607" xlink:href="#mff5b08bf5c" y="471.682459"/>
     <use style="fill:#2792cb;stroke:#2792cb;" x="994.337822" xlink:href="#mff5b08bf5c" y="470.92632"/>
     <use style="fill:#2792cb;stroke:#2792cb;" x="1007.289466" xlink:href="#mff5b08bf5c" y="471.682459"/>
     <use style="fill:#2792cb;stroke:#2792cb;" x="1011.60668" xlink:href="#mff5b08bf5c" y="460.907479"/>
     <use style="fill:#2792cb;stroke:#2792cb;" x="1015.923895" xlink:href="#mff5b08bf5c" y="462.230722"/>
     <use style="fill:#2792cb;stroke:#2792cb;" x="1020.24111" xlink:href="#mff5b08bf5c" y="460.907479"/>
     <use style="fill:#2792cb;stroke:#2792cb;" x="1024.558324" xlink:href="#mff5b08bf5c" y="459.017131"/>
     <use style="fill:#2792cb;stroke:#2792cb;" x="1037.509969" xlink:href="#mff5b08bf5c" y="459.77327"/>
     <use style="fill:#2792cb;stroke:#2792cb;" x="1041.827183" xlink:href="#mff5b08bf5c" y="452.21188"/>
     <use style="fill:#2792cb;stroke:#2792cb;" x="1072.047686" xlink:href="#mff5b08bf5c" y="430.094814"/>
     <use style="fill:#2792cb;stroke:#2792cb;" x="1076.364901" xlink:href="#mff5b08bf5c" y="425.747015"/>
     <use style="fill:#2792cb;stroke:#2792cb;" x="1080.682116" xlink:href="#mff5b08bf5c" y="420.832112"/>
     <use style="fill:#2792cb;stroke:#2792cb;" x="1084.99933" xlink:href="#mff5b08bf5c" y="414.972035"/>
     <use style="fill:#2792cb;stroke:#2792cb;" x="1097.950974" xlink:href="#mff5b08bf5c" y="403.062845"/>
     <use style="fill:#2792cb;stroke:#2792cb;" x="1102.268189" xlink:href="#mff5b08bf5c" y="387.372961"/>
     <use style="fill:#2792cb;stroke:#2792cb;" x="1106.585404" xlink:href="#mff5b08bf5c" y="388.318135"/>
     <use style="fill:#2792cb;stroke:#2792cb;" x="1110.902618" xlink:href="#mff5b08bf5c" y="369.41466"/>
     <use style="fill:#2792cb;stroke:#2792cb;" x="1115.219833" xlink:href="#mff5b08bf5c" y="383.592266"/>
     <use style="fill:#2792cb;stroke:#2792cb;" x="1128.171477" xlink:href="#mff5b08bf5c" y="355.804158"/>
    </g>
   </g>
   <g id="patch_3">
    <path d="M 62.89875 501.738984 
L 1178.89875 501.738984 
" style="fill:none;stroke:#000000;stroke-linecap:square;stroke-linejoin:miter;stroke-width:0.8;"/>
   </g>
   <g id="legend_1">
    <g id="line2d_64">
     <path d="M 1091.653438 25.237422 
L 1111.653438 25.237422 
" style="fill:none;stroke:#dbcd00;stroke-linecap:square;stroke-width:2;"/>
    </g>
    <g id="line2d_65">
     <g>
      <use style="fill:#dbcd00;stroke:#dbcd00;" x="1101.653438" xlink:href="#mb1dfa706c3" y="25.237422"/>
     </g>
    </g>
    <g id="text_37">
     <!-- Genesene -->
     <defs>
      <path d="M 59.515625 10.40625 
L 59.515625 29.984375 
L 43.40625 29.984375 
L 43.40625 38.09375 
L 69.28125 38.09375 
L 69.28125 6.78125 
Q 63.578125 2.734375 56.6875 0.65625 
Q 49.8125 -1.421875 42 -1.421875 
Q 24.90625 -1.421875 15.25 8.5625 
Q 5.609375 18.5625 5.609375 36.375 
Q 5.609375 54.25 15.25 64.234375 
Q 24.90625 74.21875 42 74.21875 
Q 49.125 74.21875 55.546875 72.453125 
Q 61.96875 70.703125 67.390625 67.28125 
L 67.390625 56.78125 
Q 61.921875 61.421875 55.765625 63.765625 
Q 49.609375 66.109375 42.828125 66.109375 
Q 29.4375 66.109375 22.71875 58.640625 
Q 16.015625 51.171875 16.015625 36.375 
Q 16.015625 21.625 22.71875 14.15625 
Q 29.4375 6.6875 42.828125 6.6875 
Q 48.046875 6.6875 52.140625 7.59375 
Q 56.25 8.5 59.515625 10.40625 
z
" id="DejaVuSans-71"/>
      <path d="M 44.28125 53.078125 
L 44.28125 44.578125 
Q 40.484375 46.53125 36.375 47.5 
Q 32.28125 48.484375 27.875 48.484375 
Q 21.1875 48.484375 17.84375 46.4375 
Q 14.5 44.390625 14.5 40.28125 
Q 14.5 37.15625 16.890625 35.375 
Q 19.28125 33.59375 26.515625 31.984375 
L 29.59375 31.296875 
Q 39.15625 29.25 43.1875 25.515625 
Q 47.21875 21.78125 47.21875 15.09375 
Q 47.21875 7.46875 41.1875 3.015625 
Q 35.15625 -1.421875 24.609375 -1.421875 
Q 20.21875 -1.421875 15.453125 -0.5625 
Q 10.6875 0.296875 5.421875 2 
L 5.421875 11.28125 
Q 10.40625 8.6875 15.234375 7.390625 
Q 20.0625 6.109375 24.8125 6.109375 
Q 31.15625 6.109375 34.5625 8.28125 
Q 37.984375 10.453125 37.984375 14.40625 
Q 37.984375 18.0625 35.515625 20.015625 
Q 33.0625 21.96875 24.703125 23.78125 
L 21.578125 24.515625 
Q 13.234375 26.265625 9.515625 29.90625 
Q 5.8125 33.546875 5.8125 39.890625 
Q 5.8125 47.609375 11.28125 51.796875 
Q 16.75 56 26.8125 56 
Q 31.78125 56 36.171875 55.265625 
Q 40.578125 54.546875 44.28125 53.078125 
z
" id="DejaVuSans-115"/>
     </defs>
     <g transform="translate(1119.653438 28.737422)scale(0.1 -0.1)">
      <use xlink:href="#DejaVuSans-71"/>
      <use x="77.490234" xlink:href="#DejaVuSans-101"/>
      <use x="139.013672" xlink:href="#DejaVuSans-110"/>
      <use x="202.392578" xlink:href="#DejaVuSans-101"/>
      <use x="263.916016" xlink:href="#DejaVuSans-115"/>
      <use x="316.015625" xlink:href="#DejaVuSans-101"/>
      <use x="377.539062" xlink:href="#DejaVuSans-110"/>
      <use x="440.917969" xlink:href="#DejaVuSans-101"/>
     </g>
    </g>
    <g id="line2d_66">
     <path d="M 1091.653438 39.915547 
L 1111.653438 39.915547 
" style="fill:none;stroke:#2792cb;stroke-linecap:square;stroke-width:2;"/>
    </g>
    <g id="line2d_67">
     <g>
      <use style="fill:#2792cb;stroke:#2792cb;" x="1101.653438" xlink:href="#mff5b08bf5c" y="39.915547"/>
     </g>
    </g>
    <g id="text_38">
     <!-- Erkrankte -->
     <defs>
      <path d="M 9.8125 72.90625 
L 55.90625 72.90625 
L 55.90625 64.59375 
L 19.671875 64.59375 
L 19.671875 43.015625 
L 54.390625 43.015625 
L 54.390625 34.71875 
L 19.671875 34.71875 
L 19.671875 8.296875 
L 56.78125 8.296875 
L 56.78125 0 
L 9.8125 0 
z
" id="DejaVuSans-69"/>
      <path d="M 41.109375 46.296875 
Q 39.59375 47.171875 37.8125 47.578125 
Q 36.03125 48 33.890625 48 
Q 26.265625 48 22.1875 43.046875 
Q 18.109375 38.09375 18.109375 28.8125 
L 18.109375 0 
L 9.078125 0 
L 9.078125 54.6875 
L 18.109375 54.6875 
L 18.109375 46.1875 
Q 20.953125 51.171875 25.484375 53.578125 
Q 30.03125 56 36.53125 56 
Q 37.453125 56 38.578125 55.875 
Q 39.703125 55.765625 41.0625 55.515625 
z
" id="DejaVuSans-114"/>
      <path d="M 9.078125 75.984375 
L 18.109375 75.984375 
L 18.109375 31.109375 
L 44.921875 54.6875 
L 56.390625 54.6875 
L 27.390625 29.109375 
L 57.625 0 
L 45.90625 0 
L 18.109375 26.703125 
L 18.109375 0 
L 9.078125 0 
z
" id="DejaVuSans-107"/>
      <path d="M 18.3125 70.21875 
L 18.3125 54.6875 
L 36.8125 54.6875 
L 36.8125 47.703125 
L 18.3125 47.703125 
L 18.3125 18.015625 
Q 18.3125 11.328125 20.140625 9.421875 
Q 21.96875 7.515625 27.59375 7.515625 
L 36.8125 7.515625 
L 36.8125 0 
L 27.59375 0 
Q 17.1875 0 13.234375 3.875 
Q 9.28125 7.765625 9.28125 18.015625 
L 9.28125 47.703125 
L 2.6875 47.703125 
L 2.6875 54.6875 
L 9.28125 54.6875 
L 9.28125 70.21875 
z
" id="DejaVuSans-116"/>
     </defs>
     <g transform="translate(1119.653438 43.415547)scale(0.1 -0.1)">
      <use xlink:href="#DejaVuSans-69"/>
      <use x="63.183594" xlink:href="#DejaVuSans-114"/>
      <use x="104.296875" xlink:href="#DejaVuSans-107"/>
      <use x="162.207031" xlink:href="#DejaVuSans-114"/>
      <use x="203.320312" xlink:href="#DejaVuSans-97"/>
      <use x="264.599609" xlink:href="#DejaVuSans-110"/>
      <use x="327.978516" xlink:href="#DejaVuSans-107"/>
      <use x="385.888672" xlink:href="#DejaVuSans-116"/>
      <use x="425.097656" xlink:href="#DejaVuSans-101"/>
     </g>
    </g>
   </g>
  </g>
 </g>
 <defs>
  <clipPath id="p7d7c559785">
   <rect height="489.6" width="1116" x="62.89875" y="12.138984"/>
  </clipPath>
 </defs>
</svg>
