<?xml version="1.0" encoding="utf-8" standalone="no"?>
<!DOCTYPE svg PUBLIC "-//W3C//DTD SVG 1.1//EN"
  "http://www.w3.org/Graphics/SVG/1.1/DTD/svg11.dtd">
<!-- Created with matplotlib (https://matplotlib.org/) -->
<svg height="562.864992pt" version="1.1" viewBox="0 0 1186.09875 562.864992" width="1186.09875pt" xmlns="http://www.w3.org/2000/svg" xmlns:xlink="http://www.w3.org/1999/xlink">
 <defs>
  <style type="text/css">
*{stroke-linecap:butt;stroke-linejoin:round;}
  </style>
 </defs>
 <g id="figure_1">
  <g id="patch_1">
   <path d="M 0 562.864992 
L 1186.09875 562.864992 
L 1186.09875 0 
L 0 0 
z
" style="fill:#ffffff;"/>
  </g>
  <g id="axes_1">
   <g id="patch_2">
    <path d="M 62.89875 499.993883 
L 1178.89875 499.993883 
L 1178.89875 10.393883 
L 62.89875 10.393883 
z
" style="fill:#ffffff;"/>
   </g>
   <g id="matplotlib.axis_1">
    <g id="xtick_1">
     <g id="line2d_1">
      <defs>
       <path d="M 0 0 
L 0 3.5 
" id="mb6725da126" style="stroke:#000000;stroke-width:0.8;"/>
      </defs>
      <g>
       <use style="stroke:#000000;stroke-width:0.8;" x="213.965683" xlink:href="#mb6725da126" y="499.993883"/>
      </g>
     </g>
     <g id="text_1">
      <!-- 2020-04-01 -->
      <defs>
       <path d="M 19.1875 8.296875 
L 53.609375 8.296875 
L 53.609375 0 
L 7.328125 0 
L 7.328125 8.296875 
Q 12.9375 14.109375 22.625 23.890625 
Q 32.328125 33.6875 34.8125 36.53125 
Q 39.546875 41.84375 41.421875 45.53125 
Q 43.3125 49.21875 43.3125 52.78125 
Q 43.3125 58.59375 39.234375 62.25 
Q 35.15625 65.921875 28.609375 65.921875 
Q 23.96875 65.921875 18.8125 64.3125 
Q 13.671875 62.703125 7.8125 59.421875 
L 7.8125 69.390625 
Q 13.765625 71.78125 18.9375 73 
Q 24.125 74.21875 28.421875 74.21875 
Q 39.75 74.21875 46.484375 68.546875 
Q 53.21875 62.890625 53.21875 53.421875 
Q 53.21875 48.921875 51.53125 44.890625 
Q 49.859375 40.875 45.40625 35.40625 
Q 44.1875 33.984375 37.640625 27.21875 
Q 31.109375 20.453125 19.1875 8.296875 
z
" id="DejaVuSans-50"/>
       <path d="M 31.78125 66.40625 
Q 24.171875 66.40625 20.328125 58.90625 
Q 16.5 51.421875 16.5 36.375 
Q 16.5 21.390625 20.328125 13.890625 
Q 24.171875 6.390625 31.78125 6.390625 
Q 39.453125 6.390625 43.28125 13.890625 
Q 47.125 21.390625 47.125 36.375 
Q 47.125 51.421875 43.28125 58.90625 
Q 39.453125 66.40625 31.78125 66.40625 
z
M 31.78125 74.21875 
Q 44.046875 74.21875 50.515625 64.515625 
Q 56.984375 54.828125 56.984375 36.375 
Q 56.984375 17.96875 50.515625 8.265625 
Q 44.046875 -1.421875 31.78125 -1.421875 
Q 19.53125 -1.421875 13.0625 8.265625 
Q 6.59375 17.96875 6.59375 36.375 
Q 6.59375 54.828125 13.0625 64.515625 
Q 19.53125 74.21875 31.78125 74.21875 
z
" id="DejaVuSans-48"/>
       <path d="M 4.890625 31.390625 
L 31.203125 31.390625 
L 31.203125 23.390625 
L 4.890625 23.390625 
z
" id="DejaVuSans-45"/>
       <path d="M 37.796875 64.3125 
L 12.890625 25.390625 
L 37.796875 25.390625 
z
M 35.203125 72.90625 
L 47.609375 72.90625 
L 47.609375 25.390625 
L 58.015625 25.390625 
L 58.015625 17.1875 
L 47.609375 17.1875 
L 47.609375 0 
L 37.796875 0 
L 37.796875 17.1875 
L 4.890625 17.1875 
L 4.890625 26.703125 
z
" id="DejaVuSans-52"/>
       <path d="M 12.40625 8.296875 
L 28.515625 8.296875 
L 28.515625 63.921875 
L 10.984375 60.40625 
L 10.984375 69.390625 
L 28.421875 72.90625 
L 38.28125 72.90625 
L 38.28125 8.296875 
L 54.390625 8.296875 
L 54.390625 0 
L 12.40625 0 
z
" id="DejaVuSans-49"/>
      </defs>
      <g transform="translate(147.185396 553.323611)rotate(-30)scale(0.13 -0.13)">
       <use xlink:href="#DejaVuSans-50"/>
       <use x="63.623047" xlink:href="#DejaVuSans-48"/>
       <use x="127.246094" xlink:href="#DejaVuSans-50"/>
       <use x="190.869141" xlink:href="#DejaVuSans-48"/>
       <use x="254.492188" xlink:href="#DejaVuSans-45"/>
       <use x="290.576172" xlink:href="#DejaVuSans-48"/>
       <use x="354.199219" xlink:href="#DejaVuSans-52"/>
       <use x="417.822266" xlink:href="#DejaVuSans-45"/>
       <use x="453.90625" xlink:href="#DejaVuSans-48"/>
       <use x="517.529297" xlink:href="#DejaVuSans-49"/>
      </g>
     </g>
    </g>
    <g id="xtick_2">
     <g id="line2d_2">
      <g>
       <use style="stroke:#000000;stroke-width:0.8;" x="370.049599" xlink:href="#mb6725da126" y="499.993883"/>
      </g>
     </g>
     <g id="text_2">
      <!-- 2020-04-15 -->
      <defs>
       <path d="M 10.796875 72.90625 
L 49.515625 72.90625 
L 49.515625 64.59375 
L 19.828125 64.59375 
L 19.828125 46.734375 
Q 21.96875 47.46875 24.109375 47.828125 
Q 26.265625 48.1875 28.421875 48.1875 
Q 40.625 48.1875 47.75 41.5 
Q 54.890625 34.8125 54.890625 23.390625 
Q 54.890625 11.625 47.5625 5.09375 
Q 40.234375 -1.421875 26.90625 -1.421875 
Q 22.3125 -1.421875 17.546875 -0.640625 
Q 12.796875 0.140625 7.71875 1.703125 
L 7.71875 11.625 
Q 12.109375 9.234375 16.796875 8.0625 
Q 21.484375 6.890625 26.703125 6.890625 
Q 35.15625 6.890625 40.078125 11.328125 
Q 45.015625 15.765625 45.015625 23.390625 
Q 45.015625 31 40.078125 35.4375 
Q 35.15625 39.890625 26.703125 39.890625 
Q 22.75 39.890625 18.8125 39.015625 
Q 14.890625 38.140625 10.796875 36.28125 
z
" id="DejaVuSans-53"/>
      </defs>
      <g transform="translate(303.269312 553.323611)rotate(-30)scale(0.13 -0.13)">
       <use xlink:href="#DejaVuSans-50"/>
       <use x="63.623047" xlink:href="#DejaVuSans-48"/>
       <use x="127.246094" xlink:href="#DejaVuSans-50"/>
       <use x="190.869141" xlink:href="#DejaVuSans-48"/>
       <use x="254.492188" xlink:href="#DejaVuSans-45"/>
       <use x="290.576172" xlink:href="#DejaVuSans-48"/>
       <use x="354.199219" xlink:href="#DejaVuSans-52"/>
       <use x="417.822266" xlink:href="#DejaVuSans-45"/>
       <use x="453.90625" xlink:href="#DejaVuSans-49"/>
       <use x="517.529297" xlink:href="#DejaVuSans-53"/>
      </g>
     </g>
    </g>
    <g id="xtick_3">
     <g id="line2d_3">
      <g>
       <use style="stroke:#000000;stroke-width:0.8;" x="548.431218" xlink:href="#mb6725da126" y="499.993883"/>
      </g>
     </g>
     <g id="text_3">
      <!-- 2020-05-01 -->
      <g transform="translate(481.650931 553.323611)rotate(-30)scale(0.13 -0.13)">
       <use xlink:href="#DejaVuSans-50"/>
       <use x="63.623047" xlink:href="#DejaVuSans-48"/>
       <use x="127.246094" xlink:href="#DejaVuSans-50"/>
       <use x="190.869141" xlink:href="#DejaVuSans-48"/>
       <use x="254.492188" xlink:href="#DejaVuSans-45"/>
       <use x="290.576172" xlink:href="#DejaVuSans-48"/>
       <use x="354.199219" xlink:href="#DejaVuSans-53"/>
       <use x="417.822266" xlink:href="#DejaVuSans-45"/>
       <use x="453.90625" xlink:href="#DejaVuSans-48"/>
       <use x="517.529297" xlink:href="#DejaVuSans-49"/>
      </g>
     </g>
    </g>
    <g id="xtick_4">
     <g id="line2d_4">
      <g>
       <use style="stroke:#000000;stroke-width:0.8;" x="704.515134" xlink:href="#mb6725da126" y="499.993883"/>
      </g>
     </g>
     <g id="text_4">
      <!-- 2020-05-15 -->
      <g transform="translate(637.734847 553.323611)rotate(-30)scale(0.13 -0.13)">
       <use xlink:href="#DejaVuSans-50"/>
       <use x="63.623047" xlink:href="#DejaVuSans-48"/>
       <use x="127.246094" xlink:href="#DejaVuSans-50"/>
       <use x="190.869141" xlink:href="#DejaVuSans-48"/>
       <use x="254.492188" xlink:href="#DejaVuSans-45"/>
       <use x="290.576172" xlink:href="#DejaVuSans-48"/>
       <use x="354.199219" xlink:href="#DejaVuSans-53"/>
       <use x="417.822266" xlink:href="#DejaVuSans-45"/>
       <use x="453.90625" xlink:href="#DejaVuSans-49"/>
       <use x="517.529297" xlink:href="#DejaVuSans-53"/>
      </g>
     </g>
    </g>
    <g id="xtick_5">
     <g id="line2d_5">
      <g>
       <use style="stroke:#000000;stroke-width:0.8;" x="894.045603" xlink:href="#mb6725da126" y="499.993883"/>
      </g>
     </g>
     <g id="text_5">
      <!-- 2020-06-01 -->
      <defs>
       <path d="M 33.015625 40.375 
Q 26.375 40.375 22.484375 35.828125 
Q 18.609375 31.296875 18.609375 23.390625 
Q 18.609375 15.53125 22.484375 10.953125 
Q 26.375 6.390625 33.015625 6.390625 
Q 39.65625 6.390625 43.53125 10.953125 
Q 47.40625 15.53125 47.40625 23.390625 
Q 47.40625 31.296875 43.53125 35.828125 
Q 39.65625 40.375 33.015625 40.375 
z
M 52.59375 71.296875 
L 52.59375 62.3125 
Q 48.875 64.0625 45.09375 64.984375 
Q 41.3125 65.921875 37.59375 65.921875 
Q 27.828125 65.921875 22.671875 59.328125 
Q 17.53125 52.734375 16.796875 39.40625 
Q 19.671875 43.65625 24.015625 45.921875 
Q 28.375 48.1875 33.59375 48.1875 
Q 44.578125 48.1875 50.953125 41.515625 
Q 57.328125 34.859375 57.328125 23.390625 
Q 57.328125 12.15625 50.6875 5.359375 
Q 44.046875 -1.421875 33.015625 -1.421875 
Q 20.359375 -1.421875 13.671875 8.265625 
Q 6.984375 17.96875 6.984375 36.375 
Q 6.984375 53.65625 15.1875 63.9375 
Q 23.390625 74.21875 37.203125 74.21875 
Q 40.921875 74.21875 44.703125 73.484375 
Q 48.484375 72.75 52.59375 71.296875 
z
" id="DejaVuSans-54"/>
      </defs>
      <g transform="translate(827.265316 553.323611)rotate(-30)scale(0.13 -0.13)">
       <use xlink:href="#DejaVuSans-50"/>
       <use x="63.623047" xlink:href="#DejaVuSans-48"/>
       <use x="127.246094" xlink:href="#DejaVuSans-50"/>
       <use x="190.869141" xlink:href="#DejaVuSans-48"/>
       <use x="254.492188" xlink:href="#DejaVuSans-45"/>
       <use x="290.576172" xlink:href="#DejaVuSans-48"/>
       <use x="354.199219" xlink:href="#DejaVuSans-54"/>
       <use x="417.822266" xlink:href="#DejaVuSans-45"/>
       <use x="453.90625" xlink:href="#DejaVuSans-48"/>
       <use x="517.529297" xlink:href="#DejaVuSans-49"/>
      </g>
     </g>
    </g>
    <g id="xtick_6">
     <g id="line2d_6">
      <g>
       <use style="stroke:#000000;stroke-width:0.8;" x="1050.129519" xlink:href="#mb6725da126" y="499.993883"/>
      </g>
     </g>
     <g id="text_6">
      <!-- 2020-06-15 -->
      <g transform="translate(983.349232 553.323611)rotate(-30)scale(0.13 -0.13)">
       <use xlink:href="#DejaVuSans-50"/>
       <use x="63.623047" xlink:href="#DejaVuSans-48"/>
       <use x="127.246094" xlink:href="#DejaVuSans-50"/>
       <use x="190.869141" xlink:href="#DejaVuSans-48"/>
       <use x="254.492188" xlink:href="#DejaVuSans-45"/>
       <use x="290.576172" xlink:href="#DejaVuSans-48"/>
       <use x="354.199219" xlink:href="#DejaVuSans-54"/>
       <use x="417.822266" xlink:href="#DejaVuSans-45"/>
       <use x="453.90625" xlink:href="#DejaVuSans-49"/>
       <use x="517.529297" xlink:href="#DejaVuSans-53"/>
      </g>
     </g>
    </g>
   </g>
   <g id="matplotlib.axis_2">
    <g id="ytick_1">
     <g id="line2d_7">
      <path clip-path="url(#pc13f78e71b)" d="M 62.89875 479.898226 
L 1178.89875 479.898226 
" style="fill:none;stroke:#b0b0b0;stroke-linecap:square;stroke-width:0.8;"/>
     </g>
     <g id="line2d_8">
      <defs>
       <path d="M 0 0 
L -3.5 0 
" id="m1d576fdb72" style="stroke:#000000;stroke-width:0.8;"/>
      </defs>
      <g>
       <use style="stroke:#000000;stroke-width:0.8;" x="62.89875" xlink:href="#m1d576fdb72" y="479.898226"/>
      </g>
     </g>
     <g id="text_7">
      <!-- 0 -->
      <g transform="translate(47.6275 484.83721)scale(0.13 -0.13)">
       <use xlink:href="#DejaVuSans-48"/>
      </g>
     </g>
    </g>
    <g id="ytick_2">
     <g id="line2d_9">
      <path clip-path="url(#pc13f78e71b)" d="M 62.89875 443.916746 
L 1178.89875 443.916746 
" style="fill:none;stroke:#b0b0b0;stroke-linecap:square;stroke-width:0.8;"/>
     </g>
     <g id="line2d_10">
      <g>
       <use style="stroke:#000000;stroke-width:0.8;" x="62.89875" xlink:href="#m1d576fdb72" y="443.916746"/>
      </g>
     </g>
     <g id="text_8">
      <!-- 100 -->
      <g transform="translate(31.085 448.85573)scale(0.13 -0.13)">
       <use xlink:href="#DejaVuSans-49"/>
       <use x="63.623047" xlink:href="#DejaVuSans-48"/>
       <use x="127.246094" xlink:href="#DejaVuSans-48"/>
      </g>
     </g>
    </g>
    <g id="ytick_3">
     <g id="line2d_11">
      <path clip-path="url(#pc13f78e71b)" d="M 62.89875 407.935266 
L 1178.89875 407.935266 
" style="fill:none;stroke:#b0b0b0;stroke-linecap:square;stroke-width:0.8;"/>
     </g>
     <g id="line2d_12">
      <g>
       <use style="stroke:#000000;stroke-width:0.8;" x="62.89875" xlink:href="#m1d576fdb72" y="407.935266"/>
      </g>
     </g>
     <g id="text_9">
      <!-- 200 -->
      <g transform="translate(31.085 412.87425)scale(0.13 -0.13)">
       <use xlink:href="#DejaVuSans-50"/>
       <use x="63.623047" xlink:href="#DejaVuSans-48"/>
       <use x="127.246094" xlink:href="#DejaVuSans-48"/>
      </g>
     </g>
    </g>
    <g id="ytick_4">
     <g id="line2d_13">
      <path clip-path="url(#pc13f78e71b)" d="M 62.89875 371.953786 
L 1178.89875 371.953786 
" style="fill:none;stroke:#b0b0b0;stroke-linecap:square;stroke-width:0.8;"/>
     </g>
     <g id="line2d_14">
      <g>
       <use style="stroke:#000000;stroke-width:0.8;" x="62.89875" xlink:href="#m1d576fdb72" y="371.953786"/>
      </g>
     </g>
     <g id="text_10">
      <!-- 300 -->
      <defs>
       <path d="M 40.578125 39.3125 
Q 47.65625 37.796875 51.625 33 
Q 55.609375 28.21875 55.609375 21.1875 
Q 55.609375 10.40625 48.1875 4.484375 
Q 40.765625 -1.421875 27.09375 -1.421875 
Q 22.515625 -1.421875 17.65625 -0.515625 
Q 12.796875 0.390625 7.625 2.203125 
L 7.625 11.71875 
Q 11.71875 9.328125 16.59375 8.109375 
Q 21.484375 6.890625 26.8125 6.890625 
Q 36.078125 6.890625 40.9375 10.546875 
Q 45.796875 14.203125 45.796875 21.1875 
Q 45.796875 27.640625 41.28125 31.265625 
Q 36.765625 34.90625 28.71875 34.90625 
L 20.21875 34.90625 
L 20.21875 43.015625 
L 29.109375 43.015625 
Q 36.375 43.015625 40.234375 45.921875 
Q 44.09375 48.828125 44.09375 54.296875 
Q 44.09375 59.90625 40.109375 62.90625 
Q 36.140625 65.921875 28.71875 65.921875 
Q 24.65625 65.921875 20.015625 65.03125 
Q 15.375 64.15625 9.8125 62.3125 
L 9.8125 71.09375 
Q 15.4375 72.65625 20.34375 73.4375 
Q 25.25 74.21875 29.59375 74.21875 
Q 40.828125 74.21875 47.359375 69.109375 
Q 53.90625 64.015625 53.90625 55.328125 
Q 53.90625 49.265625 50.4375 45.09375 
Q 46.96875 40.921875 40.578125 39.3125 
z
" id="DejaVuSans-51"/>
      </defs>
      <g transform="translate(31.085 376.89277)scale(0.13 -0.13)">
       <use xlink:href="#DejaVuSans-51"/>
       <use x="63.623047" xlink:href="#DejaVuSans-48"/>
       <use x="127.246094" xlink:href="#DejaVuSans-48"/>
      </g>
     </g>
    </g>
    <g id="ytick_5">
     <g id="line2d_15">
      <path clip-path="url(#pc13f78e71b)" d="M 62.89875 335.972305 
L 1178.89875 335.972305 
" style="fill:none;stroke:#b0b0b0;stroke-linecap:square;stroke-width:0.8;"/>
     </g>
     <g id="line2d_16">
      <g>
       <use style="stroke:#000000;stroke-width:0.8;" x="62.89875" xlink:href="#m1d576fdb72" y="335.972305"/>
      </g>
     </g>
     <g id="text_11">
      <!-- 400 -->
      <g transform="translate(31.085 340.91129)scale(0.13 -0.13)">
       <use xlink:href="#DejaVuSans-52"/>
       <use x="63.623047" xlink:href="#DejaVuSans-48"/>
       <use x="127.246094" xlink:href="#DejaVuSans-48"/>
      </g>
     </g>
    </g>
    <g id="ytick_6">
     <g id="line2d_17">
      <path clip-path="url(#pc13f78e71b)" d="M 62.89875 299.990825 
L 1178.89875 299.990825 
" style="fill:none;stroke:#b0b0b0;stroke-linecap:square;stroke-width:0.8;"/>
     </g>
     <g id="line2d_18">
      <g>
       <use style="stroke:#000000;stroke-width:0.8;" x="62.89875" xlink:href="#m1d576fdb72" y="299.990825"/>
      </g>
     </g>
     <g id="text_12">
      <!-- 500 -->
      <g transform="translate(31.085 304.92981)scale(0.13 -0.13)">
       <use xlink:href="#DejaVuSans-53"/>
       <use x="63.623047" xlink:href="#DejaVuSans-48"/>
       <use x="127.246094" xlink:href="#DejaVuSans-48"/>
      </g>
     </g>
    </g>
    <g id="ytick_7">
     <g id="line2d_19">
      <path clip-path="url(#pc13f78e71b)" d="M 62.89875 264.009345 
L 1178.89875 264.009345 
" style="fill:none;stroke:#b0b0b0;stroke-linecap:square;stroke-width:0.8;"/>
     </g>
     <g id="line2d_20">
      <g>
       <use style="stroke:#000000;stroke-width:0.8;" x="62.89875" xlink:href="#m1d576fdb72" y="264.009345"/>
      </g>
     </g>
     <g id="text_13">
      <!-- 600 -->
      <g transform="translate(31.085 268.94833)scale(0.13 -0.13)">
       <use xlink:href="#DejaVuSans-54"/>
       <use x="63.623047" xlink:href="#DejaVuSans-48"/>
       <use x="127.246094" xlink:href="#DejaVuSans-48"/>
      </g>
     </g>
    </g>
    <g id="ytick_8">
     <g id="line2d_21">
      <path clip-path="url(#pc13f78e71b)" d="M 62.89875 228.027865 
L 1178.89875 228.027865 
" style="fill:none;stroke:#b0b0b0;stroke-linecap:square;stroke-width:0.8;"/>
     </g>
     <g id="line2d_22">
      <g>
       <use style="stroke:#000000;stroke-width:0.8;" x="62.89875" xlink:href="#m1d576fdb72" y="228.027865"/>
      </g>
     </g>
     <g id="text_14">
      <!-- 700 -->
      <defs>
       <path d="M 8.203125 72.90625 
L 55.078125 72.90625 
L 55.078125 68.703125 
L 28.609375 0 
L 18.3125 0 
L 43.21875 64.59375 
L 8.203125 64.59375 
z
" id="DejaVuSans-55"/>
      </defs>
      <g transform="translate(31.085 232.966849)scale(0.13 -0.13)">
       <use xlink:href="#DejaVuSans-55"/>
       <use x="63.623047" xlink:href="#DejaVuSans-48"/>
       <use x="127.246094" xlink:href="#DejaVuSans-48"/>
      </g>
     </g>
    </g>
    <g id="ytick_9">
     <g id="line2d_23">
      <path clip-path="url(#pc13f78e71b)" d="M 62.89875 192.046385 
L 1178.89875 192.046385 
" style="fill:none;stroke:#b0b0b0;stroke-linecap:square;stroke-width:0.8;"/>
     </g>
     <g id="line2d_24">
      <g>
       <use style="stroke:#000000;stroke-width:0.8;" x="62.89875" xlink:href="#m1d576fdb72" y="192.046385"/>
      </g>
     </g>
     <g id="text_15">
      <!-- 800 -->
      <defs>
       <path d="M 31.78125 34.625 
Q 24.75 34.625 20.71875 30.859375 
Q 16.703125 27.09375 16.703125 20.515625 
Q 16.703125 13.921875 20.71875 10.15625 
Q 24.75 6.390625 31.78125 6.390625 
Q 38.8125 6.390625 42.859375 10.171875 
Q 46.921875 13.96875 46.921875 20.515625 
Q 46.921875 27.09375 42.890625 30.859375 
Q 38.875 34.625 31.78125 34.625 
z
M 21.921875 38.8125 
Q 15.578125 40.375 12.03125 44.71875 
Q 8.5 49.078125 8.5 55.328125 
Q 8.5 64.0625 14.71875 69.140625 
Q 20.953125 74.21875 31.78125 74.21875 
Q 42.671875 74.21875 48.875 69.140625 
Q 55.078125 64.0625 55.078125 55.328125 
Q 55.078125 49.078125 51.53125 44.71875 
Q 48 40.375 41.703125 38.8125 
Q 48.828125 37.15625 52.796875 32.3125 
Q 56.78125 27.484375 56.78125 20.515625 
Q 56.78125 9.90625 50.3125 4.234375 
Q 43.84375 -1.421875 31.78125 -1.421875 
Q 19.734375 -1.421875 13.25 4.234375 
Q 6.78125 9.90625 6.78125 20.515625 
Q 6.78125 27.484375 10.78125 32.3125 
Q 14.796875 37.15625 21.921875 38.8125 
z
M 18.3125 54.390625 
Q 18.3125 48.734375 21.84375 45.5625 
Q 25.390625 42.390625 31.78125 42.390625 
Q 38.140625 42.390625 41.71875 45.5625 
Q 45.3125 48.734375 45.3125 54.390625 
Q 45.3125 60.0625 41.71875 63.234375 
Q 38.140625 66.40625 31.78125 66.40625 
Q 25.390625 66.40625 21.84375 63.234375 
Q 18.3125 60.0625 18.3125 54.390625 
z
" id="DejaVuSans-56"/>
      </defs>
      <g transform="translate(31.085 196.985369)scale(0.13 -0.13)">
       <use xlink:href="#DejaVuSans-56"/>
       <use x="63.623047" xlink:href="#DejaVuSans-48"/>
       <use x="127.246094" xlink:href="#DejaVuSans-48"/>
      </g>
     </g>
    </g>
    <g id="ytick_10">
     <g id="line2d_25">
      <path clip-path="url(#pc13f78e71b)" d="M 62.89875 156.064905 
L 1178.89875 156.064905 
" style="fill:none;stroke:#b0b0b0;stroke-linecap:square;stroke-width:0.8;"/>
     </g>
     <g id="line2d_26">
      <g>
       <use style="stroke:#000000;stroke-width:0.8;" x="62.89875" xlink:href="#m1d576fdb72" y="156.064905"/>
      </g>
     </g>
     <g id="text_16">
      <!-- 900 -->
      <defs>
       <path d="M 10.984375 1.515625 
L 10.984375 10.5 
Q 14.703125 8.734375 18.5 7.8125 
Q 22.3125 6.890625 25.984375 6.890625 
Q 35.75 6.890625 40.890625 13.453125 
Q 46.046875 20.015625 46.78125 33.40625 
Q 43.953125 29.203125 39.59375 26.953125 
Q 35.25 24.703125 29.984375 24.703125 
Q 19.046875 24.703125 12.671875 31.3125 
Q 6.296875 37.9375 6.296875 49.421875 
Q 6.296875 60.640625 12.9375 67.421875 
Q 19.578125 74.21875 30.609375 74.21875 
Q 43.265625 74.21875 49.921875 64.515625 
Q 56.59375 54.828125 56.59375 36.375 
Q 56.59375 19.140625 48.40625 8.859375 
Q 40.234375 -1.421875 26.421875 -1.421875 
Q 22.703125 -1.421875 18.890625 -0.6875 
Q 15.09375 0.046875 10.984375 1.515625 
z
M 30.609375 32.421875 
Q 37.25 32.421875 41.125 36.953125 
Q 45.015625 41.5 45.015625 49.421875 
Q 45.015625 57.28125 41.125 61.84375 
Q 37.25 66.40625 30.609375 66.40625 
Q 23.96875 66.40625 20.09375 61.84375 
Q 16.21875 57.28125 16.21875 49.421875 
Q 16.21875 41.5 20.09375 36.953125 
Q 23.96875 32.421875 30.609375 32.421875 
z
" id="DejaVuSans-57"/>
      </defs>
      <g transform="translate(31.085 161.003889)scale(0.13 -0.13)">
       <use xlink:href="#DejaVuSans-57"/>
       <use x="63.623047" xlink:href="#DejaVuSans-48"/>
       <use x="127.246094" xlink:href="#DejaVuSans-48"/>
      </g>
     </g>
    </g>
    <g id="ytick_11">
     <g id="line2d_27">
      <path clip-path="url(#pc13f78e71b)" d="M 62.89875 120.083425 
L 1178.89875 120.083425 
" style="fill:none;stroke:#b0b0b0;stroke-linecap:square;stroke-width:0.8;"/>
     </g>
     <g id="line2d_28">
      <g>
       <use style="stroke:#000000;stroke-width:0.8;" x="62.89875" xlink:href="#m1d576fdb72" y="120.083425"/>
      </g>
     </g>
     <g id="text_17">
      <!-- 1000 -->
      <g transform="translate(22.81375 125.022409)scale(0.13 -0.13)">
       <use xlink:href="#DejaVuSans-49"/>
       <use x="63.623047" xlink:href="#DejaVuSans-48"/>
       <use x="127.246094" xlink:href="#DejaVuSans-48"/>
       <use x="190.869141" xlink:href="#DejaVuSans-48"/>
      </g>
     </g>
    </g>
    <g id="ytick_12">
     <g id="line2d_29">
      <path clip-path="url(#pc13f78e71b)" d="M 62.89875 84.101945 
L 1178.89875 84.101945 
" style="fill:none;stroke:#b0b0b0;stroke-linecap:square;stroke-width:0.8;"/>
     </g>
     <g id="line2d_30">
      <g>
       <use style="stroke:#000000;stroke-width:0.8;" x="62.89875" xlink:href="#m1d576fdb72" y="84.101945"/>
      </g>
     </g>
     <g id="text_18">
      <!-- 1100 -->
      <g transform="translate(22.81375 89.040929)scale(0.13 -0.13)">
       <use xlink:href="#DejaVuSans-49"/>
       <use x="63.623047" xlink:href="#DejaVuSans-49"/>
       <use x="127.246094" xlink:href="#DejaVuSans-48"/>
       <use x="190.869141" xlink:href="#DejaVuSans-48"/>
      </g>
     </g>
    </g>
    <g id="ytick_13">
     <g id="line2d_31">
      <path clip-path="url(#pc13f78e71b)" d="M 62.89875 48.120464 
L 1178.89875 48.120464 
" style="fill:none;stroke:#b0b0b0;stroke-linecap:square;stroke-width:0.8;"/>
     </g>
     <g id="line2d_32">
      <g>
       <use style="stroke:#000000;stroke-width:0.8;" x="62.89875" xlink:href="#m1d576fdb72" y="48.120464"/>
      </g>
     </g>
     <g id="text_19">
      <!-- 1200 -->
      <g transform="translate(22.81375 53.059449)scale(0.13 -0.13)">
       <use xlink:href="#DejaVuSans-49"/>
       <use x="63.623047" xlink:href="#DejaVuSans-50"/>
       <use x="127.246094" xlink:href="#DejaVuSans-48"/>
       <use x="190.869141" xlink:href="#DejaVuSans-48"/>
      </g>
     </g>
    </g>
    <g id="ytick_14">
     <g id="line2d_33">
      <path clip-path="url(#pc13f78e71b)" d="M 62.89875 12.138984 
L 1178.89875 12.138984 
" style="fill:none;stroke:#b0b0b0;stroke-linecap:square;stroke-width:0.8;"/>
     </g>
     <g id="line2d_34">
      <g>
       <use style="stroke:#000000;stroke-width:0.8;" x="62.89875" xlink:href="#m1d576fdb72" y="12.138984"/>
      </g>
     </g>
     <g id="text_20">
      <!-- 1300 -->
      <g transform="translate(22.81375 17.077969)scale(0.13 -0.13)">
       <use xlink:href="#DejaVuSans-49"/>
       <use x="63.623047" xlink:href="#DejaVuSans-51"/>
       <use x="127.246094" xlink:href="#DejaVuSans-48"/>
       <use x="190.869141" xlink:href="#DejaVuSans-48"/>
      </g>
     </g>
    </g>
    <g id="text_21">
     <!-- Anzahl von Fällen -->
     <defs>
      <path d="M 34.1875 63.1875 
L 20.796875 26.90625 
L 47.609375 26.90625 
z
M 28.609375 72.90625 
L 39.796875 72.90625 
L 67.578125 0 
L 57.328125 0 
L 50.6875 18.703125 
L 17.828125 18.703125 
L 11.1875 0 
L 0.78125 0 
z
" id="DejaVuSans-65"/>
      <path d="M 54.890625 33.015625 
L 54.890625 0 
L 45.90625 0 
L 45.90625 32.71875 
Q 45.90625 40.484375 42.875 44.328125 
Q 39.84375 48.1875 33.796875 48.1875 
Q 26.515625 48.1875 22.3125 43.546875 
Q 18.109375 38.921875 18.109375 30.90625 
L 18.109375 0 
L 9.078125 0 
L 9.078125 54.6875 
L 18.109375 54.6875 
L 18.109375 46.1875 
Q 21.34375 51.125 25.703125 53.5625 
Q 30.078125 56 35.796875 56 
Q 45.21875 56 50.046875 50.171875 
Q 54.890625 44.34375 54.890625 33.015625 
z
" id="DejaVuSans-110"/>
      <path d="M 5.515625 54.6875 
L 48.1875 54.6875 
L 48.1875 46.484375 
L 14.40625 7.171875 
L 48.1875 7.171875 
L 48.1875 0 
L 4.296875 0 
L 4.296875 8.203125 
L 38.09375 47.515625 
L 5.515625 47.515625 
z
" id="DejaVuSans-122"/>
      <path d="M 34.28125 27.484375 
Q 23.390625 27.484375 19.1875 25 
Q 14.984375 22.515625 14.984375 16.5 
Q 14.984375 11.71875 18.140625 8.90625 
Q 21.296875 6.109375 26.703125 6.109375 
Q 34.1875 6.109375 38.703125 11.40625 
Q 43.21875 16.703125 43.21875 25.484375 
L 43.21875 27.484375 
z
M 52.203125 31.203125 
L 52.203125 0 
L 43.21875 0 
L 43.21875 8.296875 
Q 40.140625 3.328125 35.546875 0.953125 
Q 30.953125 -1.421875 24.3125 -1.421875 
Q 15.921875 -1.421875 10.953125 3.296875 
Q 6 8.015625 6 15.921875 
Q 6 25.140625 12.171875 29.828125 
Q 18.359375 34.515625 30.609375 34.515625 
L 43.21875 34.515625 
L 43.21875 35.40625 
Q 43.21875 41.609375 39.140625 45 
Q 35.0625 48.390625 27.6875 48.390625 
Q 23 48.390625 18.546875 47.265625 
Q 14.109375 46.140625 10.015625 43.890625 
L 10.015625 52.203125 
Q 14.9375 54.109375 19.578125 55.046875 
Q 24.21875 56 28.609375 56 
Q 40.484375 56 46.34375 49.84375 
Q 52.203125 43.703125 52.203125 31.203125 
z
" id="DejaVuSans-97"/>
      <path d="M 54.890625 33.015625 
L 54.890625 0 
L 45.90625 0 
L 45.90625 32.71875 
Q 45.90625 40.484375 42.875 44.328125 
Q 39.84375 48.1875 33.796875 48.1875 
Q 26.515625 48.1875 22.3125 43.546875 
Q 18.109375 38.921875 18.109375 30.90625 
L 18.109375 0 
L 9.078125 0 
L 9.078125 75.984375 
L 18.109375 75.984375 
L 18.109375 46.1875 
Q 21.34375 51.125 25.703125 53.5625 
Q 30.078125 56 35.796875 56 
Q 45.21875 56 50.046875 50.171875 
Q 54.890625 44.34375 54.890625 33.015625 
z
" id="DejaVuSans-104"/>
      <path d="M 9.421875 75.984375 
L 18.40625 75.984375 
L 18.40625 0 
L 9.421875 0 
z
" id="DejaVuSans-108"/>
      <path id="DejaVuSans-32"/>
      <path d="M 2.984375 54.6875 
L 12.5 54.6875 
L 29.59375 8.796875 
L 46.6875 54.6875 
L 56.203125 54.6875 
L 35.6875 0 
L 23.484375 0 
z
" id="DejaVuSans-118"/>
      <path d="M 30.609375 48.390625 
Q 23.390625 48.390625 19.1875 42.75 
Q 14.984375 37.109375 14.984375 27.296875 
Q 14.984375 17.484375 19.15625 11.84375 
Q 23.34375 6.203125 30.609375 6.203125 
Q 37.796875 6.203125 41.984375 11.859375 
Q 46.1875 17.53125 46.1875 27.296875 
Q 46.1875 37.015625 41.984375 42.703125 
Q 37.796875 48.390625 30.609375 48.390625 
z
M 30.609375 56 
Q 42.328125 56 49.015625 48.375 
Q 55.71875 40.765625 55.71875 27.296875 
Q 55.71875 13.875 49.015625 6.21875 
Q 42.328125 -1.421875 30.609375 -1.421875 
Q 18.84375 -1.421875 12.171875 6.21875 
Q 5.515625 13.875 5.515625 27.296875 
Q 5.515625 40.765625 12.171875 48.375 
Q 18.84375 56 30.609375 56 
z
" id="DejaVuSans-111"/>
      <path d="M 9.8125 72.90625 
L 51.703125 72.90625 
L 51.703125 64.59375 
L 19.671875 64.59375 
L 19.671875 43.109375 
L 48.578125 43.109375 
L 48.578125 34.8125 
L 19.671875 34.8125 
L 19.671875 0 
L 9.8125 0 
z
" id="DejaVuSans-70"/>
      <path d="M 34.28125 27.484375 
Q 23.390625 27.484375 19.1875 25 
Q 14.984375 22.515625 14.984375 16.5 
Q 14.984375 11.71875 18.140625 8.90625 
Q 21.296875 6.109375 26.703125 6.109375 
Q 34.1875 6.109375 38.703125 11.40625 
Q 43.21875 16.703125 43.21875 25.484375 
L 43.21875 27.484375 
z
M 52.203125 31.203125 
L 52.203125 0 
L 43.21875 0 
L 43.21875 8.296875 
Q 40.140625 3.328125 35.546875 0.953125 
Q 30.953125 -1.421875 24.3125 -1.421875 
Q 15.921875 -1.421875 10.953125 3.296875 
Q 6 8.015625 6 15.921875 
Q 6 25.140625 12.171875 29.828125 
Q 18.359375 34.515625 30.609375 34.515625 
L 43.21875 34.515625 
L 43.21875 35.40625 
Q 43.21875 41.609375 39.140625 45 
Q 35.0625 48.390625 27.6875 48.390625 
Q 23 48.390625 18.546875 47.265625 
Q 14.109375 46.140625 10.015625 43.890625 
L 10.015625 52.203125 
Q 14.9375 54.109375 19.578125 55.046875 
Q 24.21875 56 28.609375 56 
Q 40.484375 56 46.34375 49.84375 
Q 52.203125 43.703125 52.203125 31.203125 
z
M 33.59375 75.78125 
L 43.5 75.78125 
L 43.5 65.921875 
L 33.59375 65.921875 
z
M 14.5 75.78125 
L 24.40625 75.78125 
L 24.40625 65.921875 
L 14.5 65.921875 
z
" id="DejaVuSans-228"/>
      <path d="M 56.203125 29.59375 
L 56.203125 25.203125 
L 14.890625 25.203125 
Q 15.484375 15.921875 20.484375 11.0625 
Q 25.484375 6.203125 34.421875 6.203125 
Q 39.59375 6.203125 44.453125 7.46875 
Q 49.3125 8.734375 54.109375 11.28125 
L 54.109375 2.78125 
Q 49.265625 0.734375 44.1875 -0.34375 
Q 39.109375 -1.421875 33.890625 -1.421875 
Q 20.796875 -1.421875 13.15625 6.1875 
Q 5.515625 13.8125 5.515625 26.8125 
Q 5.515625 40.234375 12.765625 48.109375 
Q 20.015625 56 32.328125 56 
Q 43.359375 56 49.78125 48.890625 
Q 56.203125 41.796875 56.203125 29.59375 
z
M 47.21875 32.234375 
Q 47.125 39.59375 43.09375 43.984375 
Q 39.0625 48.390625 32.421875 48.390625 
Q 24.90625 48.390625 20.390625 44.140625 
Q 15.875 39.890625 15.1875 32.171875 
z
" id="DejaVuSans-101"/>
     </defs>
     <g transform="translate(16.318125 307.643258)rotate(-90)scale(0.12 -0.12)">
      <use xlink:href="#DejaVuSans-65"/>
      <use x="68.408203" xlink:href="#DejaVuSans-110"/>
      <use x="131.787109" xlink:href="#DejaVuSans-122"/>
      <use x="184.277344" xlink:href="#DejaVuSans-97"/>
      <use x="245.556641" xlink:href="#DejaVuSans-104"/>
      <use x="308.935547" xlink:href="#DejaVuSans-108"/>
      <use x="336.71875" xlink:href="#DejaVuSans-32"/>
      <use x="368.505859" xlink:href="#DejaVuSans-118"/>
      <use x="427.685547" xlink:href="#DejaVuSans-111"/>
      <use x="488.867188" xlink:href="#DejaVuSans-110"/>
      <use x="552.246094" xlink:href="#DejaVuSans-32"/>
      <use x="584.033203" xlink:href="#DejaVuSans-70"/>
      <use x="632.427734" xlink:href="#DejaVuSans-228"/>
      <use x="693.707031" xlink:href="#DejaVuSans-108"/>
      <use x="721.490234" xlink:href="#DejaVuSans-108"/>
      <use x="749.273438" xlink:href="#DejaVuSans-101"/>
      <use x="810.796875" xlink:href="#DejaVuSans-110"/>
     </g>
    </g>
   </g>
   <g id="line2d_35">
    <path clip-path="url(#pc13f78e71b)" d="M 113.626023 477.739337 
L 124.774874 475.580448 
L 135.923725 470.902856 
L 147.072576 468.743967 
L 158.221427 460.468227 
L 169.370278 455.071005 
L 180.51913 447.874709 
L 191.667981 447.514894 
L 202.816832 428.804524 
L 213.965683 423.047487 
L 225.114534 415.491377 
L 236.263385 405.056747 
L 247.412237 400.73897 
L 258.561088 396.781007 
L 269.709939 389.584711 
L 280.85879 384.187489 
L 292.007641 376.631378 
L 303.156492 366.916378 
L 314.305343 360.079897 
L 325.454195 351.444342 
L 336.603046 345.32749 
L 358.900748 332.733972 
L 370.049599 322.659158 
L 381.19845 315.822677 
L 392.347301 304.308603 
L 403.496153 324.818047 
L 425.793855 262.929901 
L 436.942706 255.37379 
L 448.091557 240.261568 
L 459.240408 227.66805 
L 470.389259 211.476384 
L 481.538111 199.962311 
L 503.835813 183.41083 
L 514.984664 183.41083 
L 526.133515 167.578978 
L 537.282366 154.98546 
L 559.580069 141.312498 
L 581.877771 132.317128 
L 593.026622 125.840462 
L 604.175473 119.00398 
L 615.324324 114.686203 
L 626.473176 109.648796 
L 637.622027 101.01324 
L 659.919729 97.055277 
L 671.06858 93.816944 
L 682.217431 90.578611 
L 693.366282 85.181389 
L 704.515134 80.503797 
L 715.663985 74.02713 
L 737.961687 68.270093 
L 749.110538 65.03176 
L 760.259389 60.713983 
L 782.557092 52.438242 
L 793.705943 50.998983 
L 816.003645 48.480279 
L 827.152496 48.480279 
L 849.450199 44.162502 
L 860.59905 42.363428 
L 905.194454 39.484909 
L 916.343305 38.405465 
L 927.492157 38.405465 
L 938.641008 38.405465 
L 949.789859 37.685835 
L 972.087561 37.32602 
L 983.236412 37.32602 
L 994.385263 35.886761 
L 1016.682966 35.526946 
L 1027.831817 34.807317 
L 1050.129519 34.447502 
L 1072.427222 34.087687 
L 1094.724924 34.087687 
L 1105.873775 33.368058 
L 1128.171477 32.648428 
" style="fill:none;stroke:#dbcd00;stroke-linecap:square;stroke-width:2;"/>
    <defs>
     <path d="M 0 1.5 
C 0.397805 1.5 0.77937 1.341951 1.06066 1.06066 
C 1.341951 0.77937 1.5 0.397805 1.5 0 
C 1.5 -0.397805 1.341951 -0.77937 1.06066 -1.06066 
C 0.77937 -1.341951 0.397805 -1.5 0 -1.5 
C -0.397805 -1.5 -0.77937 -1.341951 -1.06066 -1.06066 
C -1.341951 -0.77937 -1.5 -0.397805 -1.5 0 
C -1.5 0.397805 -1.341951 0.77937 -1.06066 1.06066 
C -0.77937 1.341951 -0.397805 1.5 0 1.5 
z
" id="m83244ec787" style="stroke:#dbcd00;"/>
    </defs>
    <g clip-path="url(#pc13f78e71b)">
     <use style="fill:#dbcd00;stroke:#dbcd00;" x="113.626023" xlink:href="#m83244ec787" y="477.739337"/>
     <use style="fill:#dbcd00;stroke:#dbcd00;" x="124.774874" xlink:href="#m83244ec787" y="475.580448"/>
     <use style="fill:#dbcd00;stroke:#dbcd00;" x="135.923725" xlink:href="#m83244ec787" y="470.902856"/>
     <use style="fill:#dbcd00;stroke:#dbcd00;" x="147.072576" xlink:href="#m83244ec787" y="468.743967"/>
     <use style="fill:#dbcd00;stroke:#dbcd00;" x="158.221427" xlink:href="#m83244ec787" y="460.468227"/>
     <use style="fill:#dbcd00;stroke:#dbcd00;" x="169.370278" xlink:href="#m83244ec787" y="455.071005"/>
     <use style="fill:#dbcd00;stroke:#dbcd00;" x="180.51913" xlink:href="#m83244ec787" y="447.874709"/>
     <use style="fill:#dbcd00;stroke:#dbcd00;" x="191.667981" xlink:href="#m83244ec787" y="447.514894"/>
     <use style="fill:#dbcd00;stroke:#dbcd00;" x="202.816832" xlink:href="#m83244ec787" y="428.804524"/>
     <use style="fill:#dbcd00;stroke:#dbcd00;" x="213.965683" xlink:href="#m83244ec787" y="423.047487"/>
     <use style="fill:#dbcd00;stroke:#dbcd00;" x="225.114534" xlink:href="#m83244ec787" y="415.491377"/>
     <use style="fill:#dbcd00;stroke:#dbcd00;" x="236.263385" xlink:href="#m83244ec787" y="405.056747"/>
     <use style="fill:#dbcd00;stroke:#dbcd00;" x="247.412237" xlink:href="#m83244ec787" y="400.73897"/>
     <use style="fill:#dbcd00;stroke:#dbcd00;" x="258.561088" xlink:href="#m83244ec787" y="396.781007"/>
     <use style="fill:#dbcd00;stroke:#dbcd00;" x="269.709939" xlink:href="#m83244ec787" y="389.584711"/>
     <use style="fill:#dbcd00;stroke:#dbcd00;" x="280.85879" xlink:href="#m83244ec787" y="384.187489"/>
     <use style="fill:#dbcd00;stroke:#dbcd00;" x="292.007641" xlink:href="#m83244ec787" y="376.631378"/>
     <use style="fill:#dbcd00;stroke:#dbcd00;" x="303.156492" xlink:href="#m83244ec787" y="366.916378"/>
     <use style="fill:#dbcd00;stroke:#dbcd00;" x="314.305343" xlink:href="#m83244ec787" y="360.079897"/>
     <use style="fill:#dbcd00;stroke:#dbcd00;" x="325.454195" xlink:href="#m83244ec787" y="351.444342"/>
     <use style="fill:#dbcd00;stroke:#dbcd00;" x="336.603046" xlink:href="#m83244ec787" y="345.32749"/>
     <use style="fill:#dbcd00;stroke:#dbcd00;" x="358.900748" xlink:href="#m83244ec787" y="332.733972"/>
     <use style="fill:#dbcd00;stroke:#dbcd00;" x="370.049599" xlink:href="#m83244ec787" y="322.659158"/>
     <use style="fill:#dbcd00;stroke:#dbcd00;" x="381.19845" xlink:href="#m83244ec787" y="315.822677"/>
     <use style="fill:#dbcd00;stroke:#dbcd00;" x="392.347301" xlink:href="#m83244ec787" y="304.308603"/>
     <use style="fill:#dbcd00;stroke:#dbcd00;" x="403.496153" xlink:href="#m83244ec787" y="324.818047"/>
     <use style="fill:#dbcd00;stroke:#dbcd00;" x="425.793855" xlink:href="#m83244ec787" y="262.929901"/>
     <use style="fill:#dbcd00;stroke:#dbcd00;" x="436.942706" xlink:href="#m83244ec787" y="255.37379"/>
     <use style="fill:#dbcd00;stroke:#dbcd00;" x="448.091557" xlink:href="#m83244ec787" y="240.261568"/>
     <use style="fill:#dbcd00;stroke:#dbcd00;" x="459.240408" xlink:href="#m83244ec787" y="227.66805"/>
     <use style="fill:#dbcd00;stroke:#dbcd00;" x="470.389259" xlink:href="#m83244ec787" y="211.476384"/>
     <use style="fill:#dbcd00;stroke:#dbcd00;" x="481.538111" xlink:href="#m83244ec787" y="199.962311"/>
     <use style="fill:#dbcd00;stroke:#dbcd00;" x="503.835813" xlink:href="#m83244ec787" y="183.41083"/>
     <use style="fill:#dbcd00;stroke:#dbcd00;" x="514.984664" xlink:href="#m83244ec787" y="183.41083"/>
     <use style="fill:#dbcd00;stroke:#dbcd00;" x="526.133515" xlink:href="#m83244ec787" y="167.578978"/>
     <use style="fill:#dbcd00;stroke:#dbcd00;" x="537.282366" xlink:href="#m83244ec787" y="154.98546"/>
     <use style="fill:#dbcd00;stroke:#dbcd00;" x="559.580069" xlink:href="#m83244ec787" y="141.312498"/>
     <use style="fill:#dbcd00;stroke:#dbcd00;" x="581.877771" xlink:href="#m83244ec787" y="132.317128"/>
     <use style="fill:#dbcd00;stroke:#dbcd00;" x="593.026622" xlink:href="#m83244ec787" y="125.840462"/>
     <use style="fill:#dbcd00;stroke:#dbcd00;" x="604.175473" xlink:href="#m83244ec787" y="119.00398"/>
     <use style="fill:#dbcd00;stroke:#dbcd00;" x="615.324324" xlink:href="#m83244ec787" y="114.686203"/>
     <use style="fill:#dbcd00;stroke:#dbcd00;" x="626.473176" xlink:href="#m83244ec787" y="109.648796"/>
     <use style="fill:#dbcd00;stroke:#dbcd00;" x="637.622027" xlink:href="#m83244ec787" y="101.01324"/>
     <use style="fill:#dbcd00;stroke:#dbcd00;" x="659.919729" xlink:href="#m83244ec787" y="97.055277"/>
     <use style="fill:#dbcd00;stroke:#dbcd00;" x="671.06858" xlink:href="#m83244ec787" y="93.816944"/>
     <use style="fill:#dbcd00;stroke:#dbcd00;" x="682.217431" xlink:href="#m83244ec787" y="90.578611"/>
     <use style="fill:#dbcd00;stroke:#dbcd00;" x="693.366282" xlink:href="#m83244ec787" y="85.181389"/>
     <use style="fill:#dbcd00;stroke:#dbcd00;" x="704.515134" xlink:href="#m83244ec787" y="80.503797"/>
     <use style="fill:#dbcd00;stroke:#dbcd00;" x="715.663985" xlink:href="#m83244ec787" y="74.02713"/>
     <use style="fill:#dbcd00;stroke:#dbcd00;" x="737.961687" xlink:href="#m83244ec787" y="68.270093"/>
     <use style="fill:#dbcd00;stroke:#dbcd00;" x="749.110538" xlink:href="#m83244ec787" y="65.03176"/>
     <use style="fill:#dbcd00;stroke:#dbcd00;" x="760.259389" xlink:href="#m83244ec787" y="60.713983"/>
     <use style="fill:#dbcd00;stroke:#dbcd00;" x="782.557092" xlink:href="#m83244ec787" y="52.438242"/>
     <use style="fill:#dbcd00;stroke:#dbcd00;" x="793.705943" xlink:href="#m83244ec787" y="50.998983"/>
     <use style="fill:#dbcd00;stroke:#dbcd00;" x="816.003645" xlink:href="#m83244ec787" y="48.480279"/>
     <use style="fill:#dbcd00;stroke:#dbcd00;" x="827.152496" xlink:href="#m83244ec787" y="48.480279"/>
     <use style="fill:#dbcd00;stroke:#dbcd00;" x="849.450199" xlink:href="#m83244ec787" y="44.162502"/>
     <use style="fill:#dbcd00;stroke:#dbcd00;" x="860.59905" xlink:href="#m83244ec787" y="42.363428"/>
     <use style="fill:#dbcd00;stroke:#dbcd00;" x="905.194454" xlink:href="#m83244ec787" y="39.484909"/>
     <use style="fill:#dbcd00;stroke:#dbcd00;" x="916.343305" xlink:href="#m83244ec787" y="38.405465"/>
     <use style="fill:#dbcd00;stroke:#dbcd00;" x="927.492157" xlink:href="#m83244ec787" y="38.405465"/>
     <use style="fill:#dbcd00;stroke:#dbcd00;" x="938.641008" xlink:href="#m83244ec787" y="38.405465"/>
     <use style="fill:#dbcd00;stroke:#dbcd00;" x="949.789859" xlink:href="#m83244ec787" y="37.685835"/>
     <use style="fill:#dbcd00;stroke:#dbcd00;" x="972.087561" xlink:href="#m83244ec787" y="37.32602"/>
     <use style="fill:#dbcd00;stroke:#dbcd00;" x="983.236412" xlink:href="#m83244ec787" y="37.32602"/>
     <use style="fill:#dbcd00;stroke:#dbcd00;" x="994.385263" xlink:href="#m83244ec787" y="35.886761"/>
     <use style="fill:#dbcd00;stroke:#dbcd00;" x="1016.682966" xlink:href="#m83244ec787" y="35.526946"/>
     <use style="fill:#dbcd00;stroke:#dbcd00;" x="1027.831817" xlink:href="#m83244ec787" y="34.807317"/>
     <use style="fill:#dbcd00;stroke:#dbcd00;" x="1050.129519" xlink:href="#m83244ec787" y="34.447502"/>
     <use style="fill:#dbcd00;stroke:#dbcd00;" x="1072.427222" xlink:href="#m83244ec787" y="34.087687"/>
     <use style="fill:#dbcd00;stroke:#dbcd00;" x="1094.724924" xlink:href="#m83244ec787" y="34.087687"/>
     <use style="fill:#dbcd00;stroke:#dbcd00;" x="1105.873775" xlink:href="#m83244ec787" y="33.368058"/>
     <use style="fill:#dbcd00;stroke:#dbcd00;" x="1128.171477" xlink:href="#m83244ec787" y="32.648428"/>
    </g>
   </g>
   <g id="line2d_36">
    <path clip-path="url(#pc13f78e71b)" d="M 113.626023 402.178229 
L 124.774874 396.421192 
L 135.923725 392.103414 
L 147.072576 383.827674 
L 158.221427 377.710822 
L 169.370278 374.832304 
L 180.51913 371.234156 
L 191.667981 370.514526 
L 202.816832 376.631378 
L 213.965683 369.075267 
L 225.114534 355.402305 
L 236.263385 350.005083 
L 247.412237 334.892861 
L 258.561088 320.500269 
L 269.709939 321.939528 
L 280.85879 308.626381 
L 292.007641 297.472122 
L 303.156492 290.635641 
L 314.305343 282.000085 
L 325.454195 274.08416 
L 336.603046 277.322493 
L 358.900748 274.443974 
L 370.049599 284.518789 
L 381.19845 285.598233 
L 392.347301 291.35527 
L 403.496153 265.808419 
L 425.793855 317.981565 
L 436.942706 310.425455 
L 448.091557 322.659158 
L 459.240408 329.495639 
L 470.389259 341.729342 
L 481.538111 350.724712 
L 503.835813 357.561194 
L 514.984664 354.32286 
L 526.133515 367.636008 
L 537.282366 378.070637 
L 559.580069 396.421192 
L 581.877771 401.458599 
L 593.026622 407.575451 
L 604.175473 413.692303 
L 615.324324 414.411932 
L 626.473176 416.930636 
L 637.622027 421.248413 
L 659.919729 425.206376 
L 671.06858 424.486747 
L 682.217431 427.00545 
L 693.366282 430.243783 
L 704.515134 434.561561 
L 715.663985 439.958783 
L 737.961687 443.916746 
L 749.110538 446.435449 
L 760.259389 451.472857 
L 782.557092 458.669153 
L 793.705943 460.468227 
L 816.003645 462.98693 
L 827.152496 462.98693 
L 849.450199 467.304708 
L 860.59905 469.103782 
L 905.194454 470.183226 
L 916.343305 470.902856 
L 927.492157 470.543041 
L 938.641008 470.183226 
L 949.789859 471.262671 
L 972.087561 470.183226 
L 983.236412 470.183226 
L 994.385263 474.860819 
L 1016.682966 476.300078 
L 1027.831817 476.659893 
L 1050.129519 474.501004 
L 1072.427222 474.860819 
L 1094.724924 473.42156 
L 1105.873775 474.141189 
L 1128.171477 474.860819 
" style="fill:none;stroke:#2792cb;stroke-linecap:square;stroke-width:2;"/>
    <defs>
     <path d="M 0 1.5 
C 0.397805 1.5 0.77937 1.341951 1.06066 1.06066 
C 1.341951 0.77937 1.5 0.397805 1.5 0 
C 1.5 -0.397805 1.341951 -0.77937 1.06066 -1.06066 
C 0.77937 -1.341951 0.397805 -1.5 0 -1.5 
C -0.397805 -1.5 -0.77937 -1.341951 -1.06066 -1.06066 
C -1.341951 -0.77937 -1.5 -0.397805 -1.5 0 
C -1.5 0.397805 -1.341951 0.77937 -1.06066 1.06066 
C -0.77937 1.341951 -0.397805 1.5 0 1.5 
z
" id="ma9efc80a08" style="stroke:#2792cb;"/>
    </defs>
    <g clip-path="url(#pc13f78e71b)">
     <use style="fill:#2792cb;stroke:#2792cb;" x="113.626023" xlink:href="#ma9efc80a08" y="402.178229"/>
     <use style="fill:#2792cb;stroke:#2792cb;" x="124.774874" xlink:href="#ma9efc80a08" y="396.421192"/>
     <use style="fill:#2792cb;stroke:#2792cb;" x="135.923725" xlink:href="#ma9efc80a08" y="392.103414"/>
     <use style="fill:#2792cb;stroke:#2792cb;" x="147.072576" xlink:href="#ma9efc80a08" y="383.827674"/>
     <use style="fill:#2792cb;stroke:#2792cb;" x="158.221427" xlink:href="#ma9efc80a08" y="377.710822"/>
     <use style="fill:#2792cb;stroke:#2792cb;" x="169.370278" xlink:href="#ma9efc80a08" y="374.832304"/>
     <use style="fill:#2792cb;stroke:#2792cb;" x="180.51913" xlink:href="#ma9efc80a08" y="371.234156"/>
     <use style="fill:#2792cb;stroke:#2792cb;" x="191.667981" xlink:href="#ma9efc80a08" y="370.514526"/>
     <use style="fill:#2792cb;stroke:#2792cb;" x="202.816832" xlink:href="#ma9efc80a08" y="376.631378"/>
     <use style="fill:#2792cb;stroke:#2792cb;" x="213.965683" xlink:href="#ma9efc80a08" y="369.075267"/>
     <use style="fill:#2792cb;stroke:#2792cb;" x="225.114534" xlink:href="#ma9efc80a08" y="355.402305"/>
     <use style="fill:#2792cb;stroke:#2792cb;" x="236.263385" xlink:href="#ma9efc80a08" y="350.005083"/>
     <use style="fill:#2792cb;stroke:#2792cb;" x="247.412237" xlink:href="#ma9efc80a08" y="334.892861"/>
     <use style="fill:#2792cb;stroke:#2792cb;" x="258.561088" xlink:href="#ma9efc80a08" y="320.500269"/>
     <use style="fill:#2792cb;stroke:#2792cb;" x="269.709939" xlink:href="#ma9efc80a08" y="321.939528"/>
     <use style="fill:#2792cb;stroke:#2792cb;" x="280.85879" xlink:href="#ma9efc80a08" y="308.626381"/>
     <use style="fill:#2792cb;stroke:#2792cb;" x="292.007641" xlink:href="#ma9efc80a08" y="297.472122"/>
     <use style="fill:#2792cb;stroke:#2792cb;" x="303.156492" xlink:href="#ma9efc80a08" y="290.635641"/>
     <use style="fill:#2792cb;stroke:#2792cb;" x="314.305343" xlink:href="#ma9efc80a08" y="282.000085"/>
     <use style="fill:#2792cb;stroke:#2792cb;" x="325.454195" xlink:href="#ma9efc80a08" y="274.08416"/>
     <use style="fill:#2792cb;stroke:#2792cb;" x="336.603046" xlink:href="#ma9efc80a08" y="277.322493"/>
     <use style="fill:#2792cb;stroke:#2792cb;" x="358.900748" xlink:href="#ma9efc80a08" y="274.443974"/>
     <use style="fill:#2792cb;stroke:#2792cb;" x="370.049599" xlink:href="#ma9efc80a08" y="284.518789"/>
     <use style="fill:#2792cb;stroke:#2792cb;" x="381.19845" xlink:href="#ma9efc80a08" y="285.598233"/>
     <use style="fill:#2792cb;stroke:#2792cb;" x="392.347301" xlink:href="#ma9efc80a08" y="291.35527"/>
     <use style="fill:#2792cb;stroke:#2792cb;" x="403.496153" xlink:href="#ma9efc80a08" y="265.808419"/>
     <use style="fill:#2792cb;stroke:#2792cb;" x="425.793855" xlink:href="#ma9efc80a08" y="317.981565"/>
     <use style="fill:#2792cb;stroke:#2792cb;" x="436.942706" xlink:href="#ma9efc80a08" y="310.425455"/>
     <use style="fill:#2792cb;stroke:#2792cb;" x="448.091557" xlink:href="#ma9efc80a08" y="322.659158"/>
     <use style="fill:#2792cb;stroke:#2792cb;" x="459.240408" xlink:href="#ma9efc80a08" y="329.495639"/>
     <use style="fill:#2792cb;stroke:#2792cb;" x="470.389259" xlink:href="#ma9efc80a08" y="341.729342"/>
     <use style="fill:#2792cb;stroke:#2792cb;" x="481.538111" xlink:href="#ma9efc80a08" y="350.724712"/>
     <use style="fill:#2792cb;stroke:#2792cb;" x="503.835813" xlink:href="#ma9efc80a08" y="357.561194"/>
     <use style="fill:#2792cb;stroke:#2792cb;" x="514.984664" xlink:href="#ma9efc80a08" y="354.32286"/>
     <use style="fill:#2792cb;stroke:#2792cb;" x="526.133515" xlink:href="#ma9efc80a08" y="367.636008"/>
     <use style="fill:#2792cb;stroke:#2792cb;" x="537.282366" xlink:href="#ma9efc80a08" y="378.070637"/>
     <use style="fill:#2792cb;stroke:#2792cb;" x="559.580069" xlink:href="#ma9efc80a08" y="396.421192"/>
     <use style="fill:#2792cb;stroke:#2792cb;" x="581.877771" xlink:href="#ma9efc80a08" y="401.458599"/>
     <use style="fill:#2792cb;stroke:#2792cb;" x="593.026622" xlink:href="#ma9efc80a08" y="407.575451"/>
     <use style="fill:#2792cb;stroke:#2792cb;" x="604.175473" xlink:href="#ma9efc80a08" y="413.692303"/>
     <use style="fill:#2792cb;stroke:#2792cb;" x="615.324324" xlink:href="#ma9efc80a08" y="414.411932"/>
     <use style="fill:#2792cb;stroke:#2792cb;" x="626.473176" xlink:href="#ma9efc80a08" y="416.930636"/>
     <use style="fill:#2792cb;stroke:#2792cb;" x="637.622027" xlink:href="#ma9efc80a08" y="421.248413"/>
     <use style="fill:#2792cb;stroke:#2792cb;" x="659.919729" xlink:href="#ma9efc80a08" y="425.206376"/>
     <use style="fill:#2792cb;stroke:#2792cb;" x="671.06858" xlink:href="#ma9efc80a08" y="424.486747"/>
     <use style="fill:#2792cb;stroke:#2792cb;" x="682.217431" xlink:href="#ma9efc80a08" y="427.00545"/>
     <use style="fill:#2792cb;stroke:#2792cb;" x="693.366282" xlink:href="#ma9efc80a08" y="430.243783"/>
     <use style="fill:#2792cb;stroke:#2792cb;" x="704.515134" xlink:href="#ma9efc80a08" y="434.561561"/>
     <use style="fill:#2792cb;stroke:#2792cb;" x="715.663985" xlink:href="#ma9efc80a08" y="439.958783"/>
     <use style="fill:#2792cb;stroke:#2792cb;" x="737.961687" xlink:href="#ma9efc80a08" y="443.916746"/>
     <use style="fill:#2792cb;stroke:#2792cb;" x="749.110538" xlink:href="#ma9efc80a08" y="446.435449"/>
     <use style="fill:#2792cb;stroke:#2792cb;" x="760.259389" xlink:href="#ma9efc80a08" y="451.472857"/>
     <use style="fill:#2792cb;stroke:#2792cb;" x="782.557092" xlink:href="#ma9efc80a08" y="458.669153"/>
     <use style="fill:#2792cb;stroke:#2792cb;" x="793.705943" xlink:href="#ma9efc80a08" y="460.468227"/>
     <use style="fill:#2792cb;stroke:#2792cb;" x="816.003645" xlink:href="#ma9efc80a08" y="462.98693"/>
     <use style="fill:#2792cb;stroke:#2792cb;" x="827.152496" xlink:href="#ma9efc80a08" y="462.98693"/>
     <use style="fill:#2792cb;stroke:#2792cb;" x="849.450199" xlink:href="#ma9efc80a08" y="467.304708"/>
     <use style="fill:#2792cb;stroke:#2792cb;" x="860.59905" xlink:href="#ma9efc80a08" y="469.103782"/>
     <use style="fill:#2792cb;stroke:#2792cb;" x="905.194454" xlink:href="#ma9efc80a08" y="470.183226"/>
     <use style="fill:#2792cb;stroke:#2792cb;" x="916.343305" xlink:href="#ma9efc80a08" y="470.902856"/>
     <use style="fill:#2792cb;stroke:#2792cb;" x="927.492157" xlink:href="#ma9efc80a08" y="470.543041"/>
     <use style="fill:#2792cb;stroke:#2792cb;" x="938.641008" xlink:href="#ma9efc80a08" y="470.183226"/>
     <use style="fill:#2792cb;stroke:#2792cb;" x="949.789859" xlink:href="#ma9efc80a08" y="471.262671"/>
     <use style="fill:#2792cb;stroke:#2792cb;" x="972.087561" xlink:href="#ma9efc80a08" y="470.183226"/>
     <use style="fill:#2792cb;stroke:#2792cb;" x="983.236412" xlink:href="#ma9efc80a08" y="470.183226"/>
     <use style="fill:#2792cb;stroke:#2792cb;" x="994.385263" xlink:href="#ma9efc80a08" y="474.860819"/>
     <use style="fill:#2792cb;stroke:#2792cb;" x="1016.682966" xlink:href="#ma9efc80a08" y="476.300078"/>
     <use style="fill:#2792cb;stroke:#2792cb;" x="1027.831817" xlink:href="#ma9efc80a08" y="476.659893"/>
     <use style="fill:#2792cb;stroke:#2792cb;" x="1050.129519" xlink:href="#ma9efc80a08" y="474.501004"/>
     <use style="fill:#2792cb;stroke:#2792cb;" x="1072.427222" xlink:href="#ma9efc80a08" y="474.860819"/>
     <use style="fill:#2792cb;stroke:#2792cb;" x="1094.724924" xlink:href="#ma9efc80a08" y="473.42156"/>
     <use style="fill:#2792cb;stroke:#2792cb;" x="1105.873775" xlink:href="#ma9efc80a08" y="474.141189"/>
     <use style="fill:#2792cb;stroke:#2792cb;" x="1128.171477" xlink:href="#ma9efc80a08" y="474.860819"/>
    </g>
   </g>
   <g id="patch_3">
    <path d="M 62.89875 499.993883 
L 1178.89875 499.993883 
" style="fill:none;stroke:#000000;stroke-linecap:square;stroke-linejoin:miter;stroke-width:0.8;"/>
   </g>
   <g id="legend_1">
    <g id="line2d_37">
     <path d="M 71.89875 23.49232 
L 91.89875 23.49232 
" style="fill:none;stroke:#dbcd00;stroke-linecap:square;stroke-width:2;"/>
    </g>
    <g id="line2d_38">
     <g>
      <use style="fill:#dbcd00;stroke:#dbcd00;" x="81.89875" xlink:href="#m83244ec787" y="23.49232"/>
     </g>
    </g>
    <g id="text_22">
     <!-- Genesene -->
     <defs>
      <path d="M 59.515625 10.40625 
L 59.515625 29.984375 
L 43.40625 29.984375 
L 43.40625 38.09375 
L 69.28125 38.09375 
L 69.28125 6.78125 
Q 63.578125 2.734375 56.6875 0.65625 
Q 49.8125 -1.421875 42 -1.421875 
Q 24.90625 -1.421875 15.25 8.5625 
Q 5.609375 18.5625 5.609375 36.375 
Q 5.609375 54.25 15.25 64.234375 
Q 24.90625 74.21875 42 74.21875 
Q 49.125 74.21875 55.546875 72.453125 
Q 61.96875 70.703125 67.390625 67.28125 
L 67.390625 56.78125 
Q 61.921875 61.421875 55.765625 63.765625 
Q 49.609375 66.109375 42.828125 66.109375 
Q 29.4375 66.109375 22.71875 58.640625 
Q 16.015625 51.171875 16.015625 36.375 
Q 16.015625 21.625 22.71875 14.15625 
Q 29.4375 6.6875 42.828125 6.6875 
Q 48.046875 6.6875 52.140625 7.59375 
Q 56.25 8.5 59.515625 10.40625 
z
" id="DejaVuSans-71"/>
      <path d="M 44.28125 53.078125 
L 44.28125 44.578125 
Q 40.484375 46.53125 36.375 47.5 
Q 32.28125 48.484375 27.875 48.484375 
Q 21.1875 48.484375 17.84375 46.4375 
Q 14.5 44.390625 14.5 40.28125 
Q 14.5 37.15625 16.890625 35.375 
Q 19.28125 33.59375 26.515625 31.984375 
L 29.59375 31.296875 
Q 39.15625 29.25 43.1875 25.515625 
Q 47.21875 21.78125 47.21875 15.09375 
Q 47.21875 7.46875 41.1875 3.015625 
Q 35.15625 -1.421875 24.609375 -1.421875 
Q 20.21875 -1.421875 15.453125 -0.5625 
Q 10.6875 0.296875 5.421875 2 
L 5.421875 11.28125 
Q 10.40625 8.6875 15.234375 7.390625 
Q 20.0625 6.109375 24.8125 6.109375 
Q 31.15625 6.109375 34.5625 8.28125 
Q 37.984375 10.453125 37.984375 14.40625 
Q 37.984375 18.0625 35.515625 20.015625 
Q 33.0625 21.96875 24.703125 23.78125 
L 21.578125 24.515625 
Q 13.234375 26.265625 9.515625 29.90625 
Q 5.8125 33.546875 5.8125 39.890625 
Q 5.8125 47.609375 11.28125 51.796875 
Q 16.75 56 26.8125 56 
Q 31.78125 56 36.171875 55.265625 
Q 40.578125 54.546875 44.28125 53.078125 
z
" id="DejaVuSans-115"/>
     </defs>
     <g transform="translate(99.89875 26.99232)scale(0.1 -0.1)">
      <use xlink:href="#DejaVuSans-71"/>
      <use x="77.490234" xlink:href="#DejaVuSans-101"/>
      <use x="139.013672" xlink:href="#DejaVuSans-110"/>
      <use x="202.392578" xlink:href="#DejaVuSans-101"/>
      <use x="263.916016" xlink:href="#DejaVuSans-115"/>
      <use x="316.015625" xlink:href="#DejaVuSans-101"/>
      <use x="377.539062" xlink:href="#DejaVuSans-110"/>
      <use x="440.917969" xlink:href="#DejaVuSans-101"/>
     </g>
    </g>
    <g id="line2d_39">
     <path d="M 71.89875 38.170445 
L 91.89875 38.170445 
" style="fill:none;stroke:#2792cb;stroke-linecap:square;stroke-width:2;"/>
    </g>
    <g id="line2d_40">
     <g>
      <use style="fill:#2792cb;stroke:#2792cb;" x="81.89875" xlink:href="#ma9efc80a08" y="38.170445"/>
     </g>
    </g>
    <g id="text_23">
     <!-- Erkrankte -->
     <defs>
      <path d="M 9.8125 72.90625 
L 55.90625 72.90625 
L 55.90625 64.59375 
L 19.671875 64.59375 
L 19.671875 43.015625 
L 54.390625 43.015625 
L 54.390625 34.71875 
L 19.671875 34.71875 
L 19.671875 8.296875 
L 56.78125 8.296875 
L 56.78125 0 
L 9.8125 0 
z
" id="DejaVuSans-69"/>
      <path d="M 41.109375 46.296875 
Q 39.59375 47.171875 37.8125 47.578125 
Q 36.03125 48 33.890625 48 
Q 26.265625 48 22.1875 43.046875 
Q 18.109375 38.09375 18.109375 28.8125 
L 18.109375 0 
L 9.078125 0 
L 9.078125 54.6875 
L 18.109375 54.6875 
L 18.109375 46.1875 
Q 20.953125 51.171875 25.484375 53.578125 
Q 30.03125 56 36.53125 56 
Q 37.453125 56 38.578125 55.875 
Q 39.703125 55.765625 41.0625 55.515625 
z
" id="DejaVuSans-114"/>
      <path d="M 9.078125 75.984375 
L 18.109375 75.984375 
L 18.109375 31.109375 
L 44.921875 54.6875 
L 56.390625 54.6875 
L 27.390625 29.109375 
L 57.625 0 
L 45.90625 0 
L 18.109375 26.703125 
L 18.109375 0 
L 9.078125 0 
z
" id="DejaVuSans-107"/>
      <path d="M 18.3125 70.21875 
L 18.3125 54.6875 
L 36.8125 54.6875 
L 36.8125 47.703125 
L 18.3125 47.703125 
L 18.3125 18.015625 
Q 18.3125 11.328125 20.140625 9.421875 
Q 21.96875 7.515625 27.59375 7.515625 
L 36.8125 7.515625 
L 36.8125 0 
L 27.59375 0 
Q 17.1875 0 13.234375 3.875 
Q 9.28125 7.765625 9.28125 18.015625 
L 9.28125 47.703125 
L 2.6875 47.703125 
L 2.6875 54.6875 
L 9.28125 54.6875 
L 9.28125 70.21875 
z
" id="DejaVuSans-116"/>
     </defs>
     <g transform="translate(99.89875 41.670445)scale(0.1 -0.1)">
      <use xlink:href="#DejaVuSans-69"/>
      <use x="63.183594" xlink:href="#DejaVuSans-114"/>
      <use x="104.296875" xlink:href="#DejaVuSans-107"/>
      <use x="162.207031" xlink:href="#DejaVuSans-114"/>
      <use x="203.320312" xlink:href="#DejaVuSans-97"/>
      <use x="264.599609" xlink:href="#DejaVuSans-110"/>
      <use x="327.978516" xlink:href="#DejaVuSans-107"/>
      <use x="385.888672" xlink:href="#DejaVuSans-116"/>
      <use x="425.097656" xlink:href="#DejaVuSans-101"/>
     </g>
    </g>
   </g>
  </g>
 </g>
 <defs>
  <clipPath id="pc13f78e71b">
   <rect height="489.6" width="1116" x="62.89875" y="10.393883"/>
  </clipPath>
 </defs>
</svg>
