<?xml version="1.0" encoding="utf-8" standalone="no"?>
<!DOCTYPE svg PUBLIC "-//W3C//DTD SVG 1.1//EN"
  "http://www.w3.org/Graphics/SVG/1.1/DTD/svg11.dtd">
<!-- Created with matplotlib (https://matplotlib.org/) -->
<svg height="553.993765pt" version="1.1" viewBox="0 0 1186.09875 553.993765" width="1186.09875pt" xmlns="http://www.w3.org/2000/svg" xmlns:xlink="http://www.w3.org/1999/xlink">
 <defs>
  <style type="text/css">
*{stroke-linecap:butt;stroke-linejoin:round;}
  </style>
 </defs>
 <g id="figure_1">
  <g id="patch_1">
   <path d="M 0 553.993765 
L 1186.09875 553.993765 
L 1186.09875 0 
L 0 0 
z
" style="fill:#ffffff;"/>
  </g>
  <g id="axes_1">
   <g id="patch_2">
    <path d="M 62.89875 501.738984 
L 1178.89875 501.738984 
L 1178.89875 12.138984 
L 62.89875 12.138984 
z
" style="fill:#ffffff;"/>
   </g>
   <g id="matplotlib.axis_1">
    <g id="xtick_1">
     <g id="line2d_1">
      <defs>
       <path d="M 0 0 
L 0 3.5 
" id="mfc5a0d44a8" style="stroke:#000000;stroke-width:0.8;"/>
      </defs>
      <g>
       <use style="stroke:#000000;stroke-width:0.8;" x="159.975815" xlink:href="#mfc5a0d44a8" y="501.738984"/>
      </g>
     </g>
     <g id="text_1">
      <!-- 2020-04 -->
      <defs>
       <path d="M 19.1875 8.296875 
L 53.609375 8.296875 
L 53.609375 0 
L 7.328125 0 
L 7.328125 8.296875 
Q 12.9375 14.109375 22.625 23.890625 
Q 32.328125 33.6875 34.8125 36.53125 
Q 39.546875 41.84375 41.421875 45.53125 
Q 43.3125 49.21875 43.3125 52.78125 
Q 43.3125 58.59375 39.234375 62.25 
Q 35.15625 65.921875 28.609375 65.921875 
Q 23.96875 65.921875 18.8125 64.3125 
Q 13.671875 62.703125 7.8125 59.421875 
L 7.8125 69.390625 
Q 13.765625 71.78125 18.9375 73 
Q 24.125 74.21875 28.421875 74.21875 
Q 39.75 74.21875 46.484375 68.546875 
Q 53.21875 62.890625 53.21875 53.421875 
Q 53.21875 48.921875 51.53125 44.890625 
Q 49.859375 40.875 45.40625 35.40625 
Q 44.1875 33.984375 37.640625 27.21875 
Q 31.109375 20.453125 19.1875 8.296875 
z
" id="DejaVuSans-50"/>
       <path d="M 31.78125 66.40625 
Q 24.171875 66.40625 20.328125 58.90625 
Q 16.5 51.421875 16.5 36.375 
Q 16.5 21.390625 20.328125 13.890625 
Q 24.171875 6.390625 31.78125 6.390625 
Q 39.453125 6.390625 43.28125 13.890625 
Q 47.125 21.390625 47.125 36.375 
Q 47.125 51.421875 43.28125 58.90625 
Q 39.453125 66.40625 31.78125 66.40625 
z
M 31.78125 74.21875 
Q 44.046875 74.21875 50.515625 64.515625 
Q 56.984375 54.828125 56.984375 36.375 
Q 56.984375 17.96875 50.515625 8.265625 
Q 44.046875 -1.421875 31.78125 -1.421875 
Q 19.53125 -1.421875 13.0625 8.265625 
Q 6.59375 17.96875 6.59375 36.375 
Q 6.59375 54.828125 13.0625 64.515625 
Q 19.53125 74.21875 31.78125 74.21875 
z
" id="DejaVuSans-48"/>
       <path d="M 4.890625 31.390625 
L 31.203125 31.390625 
L 31.203125 23.390625 
L 4.890625 23.390625 
z
" id="DejaVuSans-45"/>
       <path d="M 37.796875 64.3125 
L 12.890625 25.390625 
L 37.796875 25.390625 
z
M 35.203125 72.90625 
L 47.609375 72.90625 
L 47.609375 25.390625 
L 58.015625 25.390625 
L 58.015625 17.1875 
L 47.609375 17.1875 
L 47.609375 0 
L 37.796875 0 
L 37.796875 17.1875 
L 4.890625 17.1875 
L 4.890625 26.703125 
z
" id="DejaVuSans-52"/>
      </defs>
      <g transform="translate(111.583548 544.452384)rotate(-30)scale(0.13 -0.13)">
       <use xlink:href="#DejaVuSans-50"/>
       <use x="63.623047" xlink:href="#DejaVuSans-48"/>
       <use x="127.246094" xlink:href="#DejaVuSans-50"/>
       <use x="190.869141" xlink:href="#DejaVuSans-48"/>
       <use x="254.492188" xlink:href="#DejaVuSans-45"/>
       <use x="290.576172" xlink:href="#DejaVuSans-48"/>
       <use x="354.199219" xlink:href="#DejaVuSans-52"/>
      </g>
     </g>
    </g>
    <g id="xtick_2">
     <g id="line2d_2">
      <g>
       <use style="stroke:#000000;stroke-width:0.8;" x="314.475123" xlink:href="#mfc5a0d44a8" y="501.738984"/>
      </g>
     </g>
     <g id="text_2">
      <!-- 2020-05 -->
      <defs>
       <path d="M 10.796875 72.90625 
L 49.515625 72.90625 
L 49.515625 64.59375 
L 19.828125 64.59375 
L 19.828125 46.734375 
Q 21.96875 47.46875 24.109375 47.828125 
Q 26.265625 48.1875 28.421875 48.1875 
Q 40.625 48.1875 47.75 41.5 
Q 54.890625 34.8125 54.890625 23.390625 
Q 54.890625 11.625 47.5625 5.09375 
Q 40.234375 -1.421875 26.90625 -1.421875 
Q 22.3125 -1.421875 17.546875 -0.640625 
Q 12.796875 0.140625 7.71875 1.703125 
L 7.71875 11.625 
Q 12.109375 9.234375 16.796875 8.0625 
Q 21.484375 6.890625 26.703125 6.890625 
Q 35.15625 6.890625 40.078125 11.328125 
Q 45.015625 15.765625 45.015625 23.390625 
Q 45.015625 31 40.078125 35.4375 
Q 35.15625 39.890625 26.703125 39.890625 
Q 22.75 39.890625 18.8125 39.015625 
Q 14.890625 38.140625 10.796875 36.28125 
z
" id="DejaVuSans-53"/>
      </defs>
      <g transform="translate(266.082856 544.452384)rotate(-30)scale(0.13 -0.13)">
       <use xlink:href="#DejaVuSans-50"/>
       <use x="63.623047" xlink:href="#DejaVuSans-48"/>
       <use x="127.246094" xlink:href="#DejaVuSans-50"/>
       <use x="190.869141" xlink:href="#DejaVuSans-48"/>
       <use x="254.492188" xlink:href="#DejaVuSans-45"/>
       <use x="290.576172" xlink:href="#DejaVuSans-48"/>
       <use x="354.199219" xlink:href="#DejaVuSans-53"/>
      </g>
     </g>
    </g>
    <g id="xtick_3">
     <g id="line2d_3">
      <g>
       <use style="stroke:#000000;stroke-width:0.8;" x="474.124408" xlink:href="#mfc5a0d44a8" y="501.738984"/>
      </g>
     </g>
     <g id="text_3">
      <!-- 2020-06 -->
      <defs>
       <path d="M 33.015625 40.375 
Q 26.375 40.375 22.484375 35.828125 
Q 18.609375 31.296875 18.609375 23.390625 
Q 18.609375 15.53125 22.484375 10.953125 
Q 26.375 6.390625 33.015625 6.390625 
Q 39.65625 6.390625 43.53125 10.953125 
Q 47.40625 15.53125 47.40625 23.390625 
Q 47.40625 31.296875 43.53125 35.828125 
Q 39.65625 40.375 33.015625 40.375 
z
M 52.59375 71.296875 
L 52.59375 62.3125 
Q 48.875 64.0625 45.09375 64.984375 
Q 41.3125 65.921875 37.59375 65.921875 
Q 27.828125 65.921875 22.671875 59.328125 
Q 17.53125 52.734375 16.796875 39.40625 
Q 19.671875 43.65625 24.015625 45.921875 
Q 28.375 48.1875 33.59375 48.1875 
Q 44.578125 48.1875 50.953125 41.515625 
Q 57.328125 34.859375 57.328125 23.390625 
Q 57.328125 12.15625 50.6875 5.359375 
Q 44.046875 -1.421875 33.015625 -1.421875 
Q 20.359375 -1.421875 13.671875 8.265625 
Q 6.984375 17.96875 6.984375 36.375 
Q 6.984375 53.65625 15.1875 63.9375 
Q 23.390625 74.21875 37.203125 74.21875 
Q 40.921875 74.21875 44.703125 73.484375 
Q 48.484375 72.75 52.59375 71.296875 
z
" id="DejaVuSans-54"/>
      </defs>
      <g transform="translate(425.732141 544.452384)rotate(-30)scale(0.13 -0.13)">
       <use xlink:href="#DejaVuSans-50"/>
       <use x="63.623047" xlink:href="#DejaVuSans-48"/>
       <use x="127.246094" xlink:href="#DejaVuSans-50"/>
       <use x="190.869141" xlink:href="#DejaVuSans-48"/>
       <use x="254.492188" xlink:href="#DejaVuSans-45"/>
       <use x="290.576172" xlink:href="#DejaVuSans-48"/>
       <use x="354.199219" xlink:href="#DejaVuSans-54"/>
      </g>
     </g>
    </g>
    <g id="xtick_4">
     <g id="line2d_4">
      <g>
       <use style="stroke:#000000;stroke-width:0.8;" x="628.623715" xlink:href="#mfc5a0d44a8" y="501.738984"/>
      </g>
     </g>
     <g id="text_4">
      <!-- 2020-07 -->
      <defs>
       <path d="M 8.203125 72.90625 
L 55.078125 72.90625 
L 55.078125 68.703125 
L 28.609375 0 
L 18.3125 0 
L 43.21875 64.59375 
L 8.203125 64.59375 
z
" id="DejaVuSans-55"/>
      </defs>
      <g transform="translate(580.231448 544.452384)rotate(-30)scale(0.13 -0.13)">
       <use xlink:href="#DejaVuSans-50"/>
       <use x="63.623047" xlink:href="#DejaVuSans-48"/>
       <use x="127.246094" xlink:href="#DejaVuSans-50"/>
       <use x="190.869141" xlink:href="#DejaVuSans-48"/>
       <use x="254.492188" xlink:href="#DejaVuSans-45"/>
       <use x="290.576172" xlink:href="#DejaVuSans-48"/>
       <use x="354.199219" xlink:href="#DejaVuSans-55"/>
      </g>
     </g>
    </g>
    <g id="xtick_5">
     <g id="line2d_5">
      <g>
       <use style="stroke:#000000;stroke-width:0.8;" x="788.273" xlink:href="#mfc5a0d44a8" y="501.738984"/>
      </g>
     </g>
     <g id="text_5">
      <!-- 2020-08 -->
      <defs>
       <path d="M 31.78125 34.625 
Q 24.75 34.625 20.71875 30.859375 
Q 16.703125 27.09375 16.703125 20.515625 
Q 16.703125 13.921875 20.71875 10.15625 
Q 24.75 6.390625 31.78125 6.390625 
Q 38.8125 6.390625 42.859375 10.171875 
Q 46.921875 13.96875 46.921875 20.515625 
Q 46.921875 27.09375 42.890625 30.859375 
Q 38.875 34.625 31.78125 34.625 
z
M 21.921875 38.8125 
Q 15.578125 40.375 12.03125 44.71875 
Q 8.5 49.078125 8.5 55.328125 
Q 8.5 64.0625 14.71875 69.140625 
Q 20.953125 74.21875 31.78125 74.21875 
Q 42.671875 74.21875 48.875 69.140625 
Q 55.078125 64.0625 55.078125 55.328125 
Q 55.078125 49.078125 51.53125 44.71875 
Q 48 40.375 41.703125 38.8125 
Q 48.828125 37.15625 52.796875 32.3125 
Q 56.78125 27.484375 56.78125 20.515625 
Q 56.78125 9.90625 50.3125 4.234375 
Q 43.84375 -1.421875 31.78125 -1.421875 
Q 19.734375 -1.421875 13.25 4.234375 
Q 6.78125 9.90625 6.78125 20.515625 
Q 6.78125 27.484375 10.78125 32.3125 
Q 14.796875 37.15625 21.921875 38.8125 
z
M 18.3125 54.390625 
Q 18.3125 48.734375 21.84375 45.5625 
Q 25.390625 42.390625 31.78125 42.390625 
Q 38.140625 42.390625 41.71875 45.5625 
Q 45.3125 48.734375 45.3125 54.390625 
Q 45.3125 60.0625 41.71875 63.234375 
Q 38.140625 66.40625 31.78125 66.40625 
Q 25.390625 66.40625 21.84375 63.234375 
Q 18.3125 60.0625 18.3125 54.390625 
z
" id="DejaVuSans-56"/>
      </defs>
      <g transform="translate(739.880733 544.452384)rotate(-30)scale(0.13 -0.13)">
       <use xlink:href="#DejaVuSans-50"/>
       <use x="63.623047" xlink:href="#DejaVuSans-48"/>
       <use x="127.246094" xlink:href="#DejaVuSans-50"/>
       <use x="190.869141" xlink:href="#DejaVuSans-48"/>
       <use x="254.492188" xlink:href="#DejaVuSans-45"/>
       <use x="290.576172" xlink:href="#DejaVuSans-48"/>
       <use x="354.199219" xlink:href="#DejaVuSans-56"/>
      </g>
     </g>
    </g>
    <g id="xtick_6">
     <g id="line2d_6">
      <g>
       <use style="stroke:#000000;stroke-width:0.8;" x="947.922285" xlink:href="#mfc5a0d44a8" y="501.738984"/>
      </g>
     </g>
     <g id="text_6">
      <!-- 2020-09 -->
      <defs>
       <path d="M 10.984375 1.515625 
L 10.984375 10.5 
Q 14.703125 8.734375 18.5 7.8125 
Q 22.3125 6.890625 25.984375 6.890625 
Q 35.75 6.890625 40.890625 13.453125 
Q 46.046875 20.015625 46.78125 33.40625 
Q 43.953125 29.203125 39.59375 26.953125 
Q 35.25 24.703125 29.984375 24.703125 
Q 19.046875 24.703125 12.671875 31.3125 
Q 6.296875 37.9375 6.296875 49.421875 
Q 6.296875 60.640625 12.9375 67.421875 
Q 19.578125 74.21875 30.609375 74.21875 
Q 43.265625 74.21875 49.921875 64.515625 
Q 56.59375 54.828125 56.59375 36.375 
Q 56.59375 19.140625 48.40625 8.859375 
Q 40.234375 -1.421875 26.421875 -1.421875 
Q 22.703125 -1.421875 18.890625 -0.6875 
Q 15.09375 0.046875 10.984375 1.515625 
z
M 30.609375 32.421875 
Q 37.25 32.421875 41.125 36.953125 
Q 45.015625 41.5 45.015625 49.421875 
Q 45.015625 57.28125 41.125 61.84375 
Q 37.25 66.40625 30.609375 66.40625 
Q 23.96875 66.40625 20.09375 61.84375 
Q 16.21875 57.28125 16.21875 49.421875 
Q 16.21875 41.5 20.09375 36.953125 
Q 23.96875 32.421875 30.609375 32.421875 
z
" id="DejaVuSans-57"/>
      </defs>
      <g transform="translate(899.530018 544.452384)rotate(-30)scale(0.13 -0.13)">
       <use xlink:href="#DejaVuSans-50"/>
       <use x="63.623047" xlink:href="#DejaVuSans-48"/>
       <use x="127.246094" xlink:href="#DejaVuSans-50"/>
       <use x="190.869141" xlink:href="#DejaVuSans-48"/>
       <use x="254.492188" xlink:href="#DejaVuSans-45"/>
       <use x="290.576172" xlink:href="#DejaVuSans-48"/>
       <use x="354.199219" xlink:href="#DejaVuSans-57"/>
      </g>
     </g>
    </g>
    <g id="xtick_7">
     <g id="line2d_7">
      <g>
       <use style="stroke:#000000;stroke-width:0.8;" x="1102.421593" xlink:href="#mfc5a0d44a8" y="501.738984"/>
      </g>
     </g>
     <g id="text_7">
      <!-- 2020-10 -->
      <defs>
       <path d="M 12.40625 8.296875 
L 28.515625 8.296875 
L 28.515625 63.921875 
L 10.984375 60.40625 
L 10.984375 69.390625 
L 28.421875 72.90625 
L 38.28125 72.90625 
L 38.28125 8.296875 
L 54.390625 8.296875 
L 54.390625 0 
L 12.40625 0 
z
" id="DejaVuSans-49"/>
      </defs>
      <g transform="translate(1054.029326 544.452384)rotate(-30)scale(0.13 -0.13)">
       <use xlink:href="#DejaVuSans-50"/>
       <use x="63.623047" xlink:href="#DejaVuSans-48"/>
       <use x="127.246094" xlink:href="#DejaVuSans-50"/>
       <use x="190.869141" xlink:href="#DejaVuSans-48"/>
       <use x="254.492188" xlink:href="#DejaVuSans-45"/>
       <use x="290.576172" xlink:href="#DejaVuSans-49"/>
       <use x="354.199219" xlink:href="#DejaVuSans-48"/>
      </g>
     </g>
    </g>
   </g>
   <g id="matplotlib.axis_2">
    <g id="ytick_1">
     <g id="line2d_8">
      <path clip-path="url(#p4de782d7b3)" d="M 62.89875 483.134655 
L 1178.89875 483.134655 
" style="fill:none;stroke:#b0b0b0;stroke-linecap:square;stroke-width:0.8;"/>
     </g>
     <g id="line2d_9">
      <defs>
       <path d="M 0 0 
L -3.5 0 
" id="mdb5c15b37d" style="stroke:#000000;stroke-width:0.8;"/>
      </defs>
      <g>
       <use style="stroke:#000000;stroke-width:0.8;" x="62.89875" xlink:href="#mdb5c15b37d" y="483.134655"/>
      </g>
     </g>
     <g id="text_8">
      <!-- 0 -->
      <g transform="translate(47.6275 488.07364)scale(0.13 -0.13)">
       <use xlink:href="#DejaVuSans-48"/>
      </g>
     </g>
    </g>
    <g id="ytick_2">
     <g id="line2d_10">
      <path clip-path="url(#p4de782d7b3)" d="M 62.89875 440.316867 
L 1178.89875 440.316867 
" style="fill:none;stroke:#b0b0b0;stroke-linecap:square;stroke-width:0.8;"/>
     </g>
     <g id="line2d_11">
      <g>
       <use style="stroke:#000000;stroke-width:0.8;" x="62.89875" xlink:href="#mdb5c15b37d" y="440.316867"/>
      </g>
     </g>
     <g id="text_9">
      <!-- 100 -->
      <g transform="translate(31.085 445.255851)scale(0.13 -0.13)">
       <use xlink:href="#DejaVuSans-49"/>
       <use x="63.623047" xlink:href="#DejaVuSans-48"/>
       <use x="127.246094" xlink:href="#DejaVuSans-48"/>
      </g>
     </g>
    </g>
    <g id="ytick_3">
     <g id="line2d_12">
      <path clip-path="url(#p4de782d7b3)" d="M 62.89875 397.499079 
L 1178.89875 397.499079 
" style="fill:none;stroke:#b0b0b0;stroke-linecap:square;stroke-width:0.8;"/>
     </g>
     <g id="line2d_13">
      <g>
       <use style="stroke:#000000;stroke-width:0.8;" x="62.89875" xlink:href="#mdb5c15b37d" y="397.499079"/>
      </g>
     </g>
     <g id="text_10">
      <!-- 200 -->
      <g transform="translate(31.085 402.438063)scale(0.13 -0.13)">
       <use xlink:href="#DejaVuSans-50"/>
       <use x="63.623047" xlink:href="#DejaVuSans-48"/>
       <use x="127.246094" xlink:href="#DejaVuSans-48"/>
      </g>
     </g>
    </g>
    <g id="ytick_4">
     <g id="line2d_14">
      <path clip-path="url(#p4de782d7b3)" d="M 62.89875 354.681291 
L 1178.89875 354.681291 
" style="fill:none;stroke:#b0b0b0;stroke-linecap:square;stroke-width:0.8;"/>
     </g>
     <g id="line2d_15">
      <g>
       <use style="stroke:#000000;stroke-width:0.8;" x="62.89875" xlink:href="#mdb5c15b37d" y="354.681291"/>
      </g>
     </g>
     <g id="text_11">
      <!-- 300 -->
      <defs>
       <path d="M 40.578125 39.3125 
Q 47.65625 37.796875 51.625 33 
Q 55.609375 28.21875 55.609375 21.1875 
Q 55.609375 10.40625 48.1875 4.484375 
Q 40.765625 -1.421875 27.09375 -1.421875 
Q 22.515625 -1.421875 17.65625 -0.515625 
Q 12.796875 0.390625 7.625 2.203125 
L 7.625 11.71875 
Q 11.71875 9.328125 16.59375 8.109375 
Q 21.484375 6.890625 26.8125 6.890625 
Q 36.078125 6.890625 40.9375 10.546875 
Q 45.796875 14.203125 45.796875 21.1875 
Q 45.796875 27.640625 41.28125 31.265625 
Q 36.765625 34.90625 28.71875 34.90625 
L 20.21875 34.90625 
L 20.21875 43.015625 
L 29.109375 43.015625 
Q 36.375 43.015625 40.234375 45.921875 
Q 44.09375 48.828125 44.09375 54.296875 
Q 44.09375 59.90625 40.109375 62.90625 
Q 36.140625 65.921875 28.71875 65.921875 
Q 24.65625 65.921875 20.015625 65.03125 
Q 15.375 64.15625 9.8125 62.3125 
L 9.8125 71.09375 
Q 15.4375 72.65625 20.34375 73.4375 
Q 25.25 74.21875 29.59375 74.21875 
Q 40.828125 74.21875 47.359375 69.109375 
Q 53.90625 64.015625 53.90625 55.328125 
Q 53.90625 49.265625 50.4375 45.09375 
Q 46.96875 40.921875 40.578125 39.3125 
z
" id="DejaVuSans-51"/>
      </defs>
      <g transform="translate(31.085 359.620275)scale(0.13 -0.13)">
       <use xlink:href="#DejaVuSans-51"/>
       <use x="63.623047" xlink:href="#DejaVuSans-48"/>
       <use x="127.246094" xlink:href="#DejaVuSans-48"/>
      </g>
     </g>
    </g>
    <g id="ytick_5">
     <g id="line2d_16">
      <path clip-path="url(#p4de782d7b3)" d="M 62.89875 311.863502 
L 1178.89875 311.863502 
" style="fill:none;stroke:#b0b0b0;stroke-linecap:square;stroke-width:0.8;"/>
     </g>
     <g id="line2d_17">
      <g>
       <use style="stroke:#000000;stroke-width:0.8;" x="62.89875" xlink:href="#mdb5c15b37d" y="311.863502"/>
      </g>
     </g>
     <g id="text_12">
      <!-- 400 -->
      <g transform="translate(31.085 316.802487)scale(0.13 -0.13)">
       <use xlink:href="#DejaVuSans-52"/>
       <use x="63.623047" xlink:href="#DejaVuSans-48"/>
       <use x="127.246094" xlink:href="#DejaVuSans-48"/>
      </g>
     </g>
    </g>
    <g id="ytick_6">
     <g id="line2d_18">
      <path clip-path="url(#p4de782d7b3)" d="M 62.89875 269.045714 
L 1178.89875 269.045714 
" style="fill:none;stroke:#b0b0b0;stroke-linecap:square;stroke-width:0.8;"/>
     </g>
     <g id="line2d_19">
      <g>
       <use style="stroke:#000000;stroke-width:0.8;" x="62.89875" xlink:href="#mdb5c15b37d" y="269.045714"/>
      </g>
     </g>
     <g id="text_13">
      <!-- 500 -->
      <g transform="translate(31.085 273.984698)scale(0.13 -0.13)">
       <use xlink:href="#DejaVuSans-53"/>
       <use x="63.623047" xlink:href="#DejaVuSans-48"/>
       <use x="127.246094" xlink:href="#DejaVuSans-48"/>
      </g>
     </g>
    </g>
    <g id="ytick_7">
     <g id="line2d_20">
      <path clip-path="url(#p4de782d7b3)" d="M 62.89875 226.227926 
L 1178.89875 226.227926 
" style="fill:none;stroke:#b0b0b0;stroke-linecap:square;stroke-width:0.8;"/>
     </g>
     <g id="line2d_21">
      <g>
       <use style="stroke:#000000;stroke-width:0.8;" x="62.89875" xlink:href="#mdb5c15b37d" y="226.227926"/>
      </g>
     </g>
     <g id="text_14">
      <!-- 600 -->
      <g transform="translate(31.085 231.16691)scale(0.13 -0.13)">
       <use xlink:href="#DejaVuSans-54"/>
       <use x="63.623047" xlink:href="#DejaVuSans-48"/>
       <use x="127.246094" xlink:href="#DejaVuSans-48"/>
      </g>
     </g>
    </g>
    <g id="ytick_8">
     <g id="line2d_22">
      <path clip-path="url(#p4de782d7b3)" d="M 62.89875 183.410137 
L 1178.89875 183.410137 
" style="fill:none;stroke:#b0b0b0;stroke-linecap:square;stroke-width:0.8;"/>
     </g>
     <g id="line2d_23">
      <g>
       <use style="stroke:#000000;stroke-width:0.8;" x="62.89875" xlink:href="#mdb5c15b37d" y="183.410137"/>
      </g>
     </g>
     <g id="text_15">
      <!-- 700 -->
      <g transform="translate(31.085 188.349122)scale(0.13 -0.13)">
       <use xlink:href="#DejaVuSans-55"/>
       <use x="63.623047" xlink:href="#DejaVuSans-48"/>
       <use x="127.246094" xlink:href="#DejaVuSans-48"/>
      </g>
     </g>
    </g>
    <g id="ytick_9">
     <g id="line2d_24">
      <path clip-path="url(#p4de782d7b3)" d="M 62.89875 140.592349 
L 1178.89875 140.592349 
" style="fill:none;stroke:#b0b0b0;stroke-linecap:square;stroke-width:0.8;"/>
     </g>
     <g id="line2d_25">
      <g>
       <use style="stroke:#000000;stroke-width:0.8;" x="62.89875" xlink:href="#mdb5c15b37d" y="140.592349"/>
      </g>
     </g>
     <g id="text_16">
      <!-- 800 -->
      <g transform="translate(31.085 145.531334)scale(0.13 -0.13)">
       <use xlink:href="#DejaVuSans-56"/>
       <use x="63.623047" xlink:href="#DejaVuSans-48"/>
       <use x="127.246094" xlink:href="#DejaVuSans-48"/>
      </g>
     </g>
    </g>
    <g id="ytick_10">
     <g id="line2d_26">
      <path clip-path="url(#p4de782d7b3)" d="M 62.89875 97.774561 
L 1178.89875 97.774561 
" style="fill:none;stroke:#b0b0b0;stroke-linecap:square;stroke-width:0.8;"/>
     </g>
     <g id="line2d_27">
      <g>
       <use style="stroke:#000000;stroke-width:0.8;" x="62.89875" xlink:href="#mdb5c15b37d" y="97.774561"/>
      </g>
     </g>
     <g id="text_17">
      <!-- 900 -->
      <g transform="translate(31.085 102.713545)scale(0.13 -0.13)">
       <use xlink:href="#DejaVuSans-57"/>
       <use x="63.623047" xlink:href="#DejaVuSans-48"/>
       <use x="127.246094" xlink:href="#DejaVuSans-48"/>
      </g>
     </g>
    </g>
    <g id="ytick_11">
     <g id="line2d_28">
      <path clip-path="url(#p4de782d7b3)" d="M 62.89875 54.956773 
L 1178.89875 54.956773 
" style="fill:none;stroke:#b0b0b0;stroke-linecap:square;stroke-width:0.8;"/>
     </g>
     <g id="line2d_29">
      <g>
       <use style="stroke:#000000;stroke-width:0.8;" x="62.89875" xlink:href="#mdb5c15b37d" y="54.956773"/>
      </g>
     </g>
     <g id="text_18">
      <!-- 1000 -->
      <g transform="translate(22.81375 59.895757)scale(0.13 -0.13)">
       <use xlink:href="#DejaVuSans-49"/>
       <use x="63.623047" xlink:href="#DejaVuSans-48"/>
       <use x="127.246094" xlink:href="#DejaVuSans-48"/>
       <use x="190.869141" xlink:href="#DejaVuSans-48"/>
      </g>
     </g>
    </g>
    <g id="ytick_12">
     <g id="line2d_30">
      <path clip-path="url(#p4de782d7b3)" d="M 62.89875 12.138984 
L 1178.89875 12.138984 
" style="fill:none;stroke:#b0b0b0;stroke-linecap:square;stroke-width:0.8;"/>
     </g>
     <g id="line2d_31">
      <g>
       <use style="stroke:#000000;stroke-width:0.8;" x="62.89875" xlink:href="#mdb5c15b37d" y="12.138984"/>
      </g>
     </g>
     <g id="text_19">
      <!-- 1100 -->
      <g transform="translate(22.81375 17.077969)scale(0.13 -0.13)">
       <use xlink:href="#DejaVuSans-49"/>
       <use x="63.623047" xlink:href="#DejaVuSans-49"/>
       <use x="127.246094" xlink:href="#DejaVuSans-48"/>
       <use x="190.869141" xlink:href="#DejaVuSans-48"/>
      </g>
     </g>
    </g>
    <g id="text_20">
     <!-- Anzahl von Fällen -->
     <defs>
      <path d="M 34.1875 63.1875 
L 20.796875 26.90625 
L 47.609375 26.90625 
z
M 28.609375 72.90625 
L 39.796875 72.90625 
L 67.578125 0 
L 57.328125 0 
L 50.6875 18.703125 
L 17.828125 18.703125 
L 11.1875 0 
L 0.78125 0 
z
" id="DejaVuSans-65"/>
      <path d="M 54.890625 33.015625 
L 54.890625 0 
L 45.90625 0 
L 45.90625 32.71875 
Q 45.90625 40.484375 42.875 44.328125 
Q 39.84375 48.1875 33.796875 48.1875 
Q 26.515625 48.1875 22.3125 43.546875 
Q 18.109375 38.921875 18.109375 30.90625 
L 18.109375 0 
L 9.078125 0 
L 9.078125 54.6875 
L 18.109375 54.6875 
L 18.109375 46.1875 
Q 21.34375 51.125 25.703125 53.5625 
Q 30.078125 56 35.796875 56 
Q 45.21875 56 50.046875 50.171875 
Q 54.890625 44.34375 54.890625 33.015625 
z
" id="DejaVuSans-110"/>
      <path d="M 5.515625 54.6875 
L 48.1875 54.6875 
L 48.1875 46.484375 
L 14.40625 7.171875 
L 48.1875 7.171875 
L 48.1875 0 
L 4.296875 0 
L 4.296875 8.203125 
L 38.09375 47.515625 
L 5.515625 47.515625 
z
" id="DejaVuSans-122"/>
      <path d="M 34.28125 27.484375 
Q 23.390625 27.484375 19.1875 25 
Q 14.984375 22.515625 14.984375 16.5 
Q 14.984375 11.71875 18.140625 8.90625 
Q 21.296875 6.109375 26.703125 6.109375 
Q 34.1875 6.109375 38.703125 11.40625 
Q 43.21875 16.703125 43.21875 25.484375 
L 43.21875 27.484375 
z
M 52.203125 31.203125 
L 52.203125 0 
L 43.21875 0 
L 43.21875 8.296875 
Q 40.140625 3.328125 35.546875 0.953125 
Q 30.953125 -1.421875 24.3125 -1.421875 
Q 15.921875 -1.421875 10.953125 3.296875 
Q 6 8.015625 6 15.921875 
Q 6 25.140625 12.171875 29.828125 
Q 18.359375 34.515625 30.609375 34.515625 
L 43.21875 34.515625 
L 43.21875 35.40625 
Q 43.21875 41.609375 39.140625 45 
Q 35.0625 48.390625 27.6875 48.390625 
Q 23 48.390625 18.546875 47.265625 
Q 14.109375 46.140625 10.015625 43.890625 
L 10.015625 52.203125 
Q 14.9375 54.109375 19.578125 55.046875 
Q 24.21875 56 28.609375 56 
Q 40.484375 56 46.34375 49.84375 
Q 52.203125 43.703125 52.203125 31.203125 
z
" id="DejaVuSans-97"/>
      <path d="M 54.890625 33.015625 
L 54.890625 0 
L 45.90625 0 
L 45.90625 32.71875 
Q 45.90625 40.484375 42.875 44.328125 
Q 39.84375 48.1875 33.796875 48.1875 
Q 26.515625 48.1875 22.3125 43.546875 
Q 18.109375 38.921875 18.109375 30.90625 
L 18.109375 0 
L 9.078125 0 
L 9.078125 75.984375 
L 18.109375 75.984375 
L 18.109375 46.1875 
Q 21.34375 51.125 25.703125 53.5625 
Q 30.078125 56 35.796875 56 
Q 45.21875 56 50.046875 50.171875 
Q 54.890625 44.34375 54.890625 33.015625 
z
" id="DejaVuSans-104"/>
      <path d="M 9.421875 75.984375 
L 18.40625 75.984375 
L 18.40625 0 
L 9.421875 0 
z
" id="DejaVuSans-108"/>
      <path id="DejaVuSans-32"/>
      <path d="M 2.984375 54.6875 
L 12.5 54.6875 
L 29.59375 8.796875 
L 46.6875 54.6875 
L 56.203125 54.6875 
L 35.6875 0 
L 23.484375 0 
z
" id="DejaVuSans-118"/>
      <path d="M 30.609375 48.390625 
Q 23.390625 48.390625 19.1875 42.75 
Q 14.984375 37.109375 14.984375 27.296875 
Q 14.984375 17.484375 19.15625 11.84375 
Q 23.34375 6.203125 30.609375 6.203125 
Q 37.796875 6.203125 41.984375 11.859375 
Q 46.1875 17.53125 46.1875 27.296875 
Q 46.1875 37.015625 41.984375 42.703125 
Q 37.796875 48.390625 30.609375 48.390625 
z
M 30.609375 56 
Q 42.328125 56 49.015625 48.375 
Q 55.71875 40.765625 55.71875 27.296875 
Q 55.71875 13.875 49.015625 6.21875 
Q 42.328125 -1.421875 30.609375 -1.421875 
Q 18.84375 -1.421875 12.171875 6.21875 
Q 5.515625 13.875 5.515625 27.296875 
Q 5.515625 40.765625 12.171875 48.375 
Q 18.84375 56 30.609375 56 
z
" id="DejaVuSans-111"/>
      <path d="M 9.8125 72.90625 
L 51.703125 72.90625 
L 51.703125 64.59375 
L 19.671875 64.59375 
L 19.671875 43.109375 
L 48.578125 43.109375 
L 48.578125 34.8125 
L 19.671875 34.8125 
L 19.671875 0 
L 9.8125 0 
z
" id="DejaVuSans-70"/>
      <path d="M 34.28125 27.484375 
Q 23.390625 27.484375 19.1875 25 
Q 14.984375 22.515625 14.984375 16.5 
Q 14.984375 11.71875 18.140625 8.90625 
Q 21.296875 6.109375 26.703125 6.109375 
Q 34.1875 6.109375 38.703125 11.40625 
Q 43.21875 16.703125 43.21875 25.484375 
L 43.21875 27.484375 
z
M 52.203125 31.203125 
L 52.203125 0 
L 43.21875 0 
L 43.21875 8.296875 
Q 40.140625 3.328125 35.546875 0.953125 
Q 30.953125 -1.421875 24.3125 -1.421875 
Q 15.921875 -1.421875 10.953125 3.296875 
Q 6 8.015625 6 15.921875 
Q 6 25.140625 12.171875 29.828125 
Q 18.359375 34.515625 30.609375 34.515625 
L 43.21875 34.515625 
L 43.21875 35.40625 
Q 43.21875 41.609375 39.140625 45 
Q 35.0625 48.390625 27.6875 48.390625 
Q 23 48.390625 18.546875 47.265625 
Q 14.109375 46.140625 10.015625 43.890625 
L 10.015625 52.203125 
Q 14.9375 54.109375 19.578125 55.046875 
Q 24.21875 56 28.609375 56 
Q 40.484375 56 46.34375 49.84375 
Q 52.203125 43.703125 52.203125 31.203125 
z
M 33.59375 75.78125 
L 43.5 75.78125 
L 43.5 65.921875 
L 33.59375 65.921875 
z
M 14.5 75.78125 
L 24.40625 75.78125 
L 24.40625 65.921875 
L 14.5 65.921875 
z
" id="DejaVuSans-228"/>
      <path d="M 56.203125 29.59375 
L 56.203125 25.203125 
L 14.890625 25.203125 
Q 15.484375 15.921875 20.484375 11.0625 
Q 25.484375 6.203125 34.421875 6.203125 
Q 39.59375 6.203125 44.453125 7.46875 
Q 49.3125 8.734375 54.109375 11.28125 
L 54.109375 2.78125 
Q 49.265625 0.734375 44.1875 -0.34375 
Q 39.109375 -1.421875 33.890625 -1.421875 
Q 20.796875 -1.421875 13.15625 6.1875 
Q 5.515625 13.8125 5.515625 26.8125 
Q 5.515625 40.234375 12.765625 48.109375 
Q 20.015625 56 32.328125 56 
Q 43.359375 56 49.78125 48.890625 
Q 56.203125 41.796875 56.203125 29.59375 
z
M 47.21875 32.234375 
Q 47.125 39.59375 43.09375 43.984375 
Q 39.0625 48.390625 32.421875 48.390625 
Q 24.90625 48.390625 20.390625 44.140625 
Q 15.875 39.890625 15.1875 32.171875 
z
" id="DejaVuSans-101"/>
     </defs>
     <g transform="translate(16.318125 309.388359)rotate(-90)scale(0.12 -0.12)">
      <use xlink:href="#DejaVuSans-65"/>
      <use x="68.408203" xlink:href="#DejaVuSans-110"/>
      <use x="131.787109" xlink:href="#DejaVuSans-122"/>
      <use x="184.277344" xlink:href="#DejaVuSans-97"/>
      <use x="245.556641" xlink:href="#DejaVuSans-104"/>
      <use x="308.935547" xlink:href="#DejaVuSans-108"/>
      <use x="336.71875" xlink:href="#DejaVuSans-32"/>
      <use x="368.505859" xlink:href="#DejaVuSans-118"/>
      <use x="427.685547" xlink:href="#DejaVuSans-111"/>
      <use x="488.867188" xlink:href="#DejaVuSans-110"/>
      <use x="552.246094" xlink:href="#DejaVuSans-32"/>
      <use x="584.033203" xlink:href="#DejaVuSans-70"/>
      <use x="632.427734" xlink:href="#DejaVuSans-228"/>
      <use x="693.707031" xlink:href="#DejaVuSans-108"/>
      <use x="721.490234" xlink:href="#DejaVuSans-108"/>
      <use x="749.273438" xlink:href="#DejaVuSans-101"/>
      <use x="810.796875" xlink:href="#DejaVuSans-110"/>
     </g>
    </g>
   </g>
   <g id="line2d_32">
    <path clip-path="url(#p4de782d7b3)" d="M 113.626023 480.565588 
L 118.776 480.13741 
L 123.925977 480.13741 
L 129.075954 477.996521 
L 134.22593 473.714742 
L 139.375907 473.714742 
L 144.525884 472.430208 
L 149.675861 441.173223 
L 154.825838 431.325132 
L 165.125792 413.34166 
L 170.275769 404.778103 
L 175.425746 400.496324 
L 180.575723 395.358189 
L 185.7257 390.648233 
L 190.875677 386.366454 
L 196.025654 379.943786 
L 201.17563 375.662007 
L 206.325607 370.95205 
L 211.475584 370.095694 
L 216.625561 365.813916 
L 226.925515 361.960315 
L 232.075492 358.963069 
L 237.225469 357.250358 
L 242.375446 353.824935 
L 247.525423 352.112223 
L 257.825377 349.971334 
L 262.975354 347.830444 
L 268.125331 343.976843 
L 273.275307 336.697819 
L 278.425284 335.413286 
L 283.575261 334.55693 
L 293.875215 331.987863 
L 299.025192 331.559685 
L 304.175169 330.275151 
L 309.325146 327.706084 
L 319.6251 321.283416 
L 329.925054 314.43257 
L 335.075031 314.004392 
L 340.225007 311.863502 
L 345.374984 310.150791 
L 350.524961 308.009901 
L 355.674938 305.440834 
L 376.274846 300.302699 
L 381.424823 297.305454 
L 386.5748 295.592743 
L 391.724777 295.592743 
L 402.024731 296.020921 
L 407.174708 293.451853 
L 412.324684 293.023675 
L 427.774615 290.454608 
L 438.074569 290.454608 
L 453.5245 286.601007 
L 458.674477 286.601007 
L 484.424361 284.888296 
L 494.724315 284.888296 
L 499.874292 284.460118 
L 515.324223 284.460118 
L 520.4742 284.03194 
L 530.774154 282.747406 
L 535.924131 282.747406 
L 566.823992 278.893805 
L 571.973969 278.465627 
L 582.273923 278.465627 
L 587.4239 276.324738 
L 592.573877 275.468382 
L 623.473738 275.468382 
L 628.623715 275.040204 
L 633.773692 274.183849 
L 638.923669 274.183849 
L 644.073646 269.90207 
L 654.3736 267.333002 
L 659.523577 262.194868 
L 664.673554 202.678142 
L 669.823531 189.832806 
L 674.973508 176.131113 
L 690.423439 147.015017 
L 695.573415 146.58684 
L 700.723392 145.302306 
L 705.873369 143.161416 
L 711.023346 140.164171 
L 726.473277 135.454215 
L 731.623254 135.026037 
L 736.773231 134.169681 
L 741.923208 133.741503 
L 747.073185 133.741503 
L 762.523115 132.456969 
L 767.673092 130.31608 
L 772.823069 130.31608 
L 777.973046 128.603368 
L 783.123023 127.318835 
L 834.622792 121.752522 
L 839.772769 120.467989 
L 850.072723 119.183455 
L 855.2227 118.755277 
L 870.672631 115.329854 
L 875.822608 114.901676 
L 880.972585 114.901676 
L 886.122562 111.048075 
L 891.272539 110.19172 
L 906.722469 104.625407 
L 911.872446 101.628162 
L 917.022423 100.771806 
L 922.1724 98.202739 
L 927.322377 97.346383 
L 942.772308 95.205494 
L 947.922285 93.92096 
L 953.072262 93.492782 
L 963.372216 90.067359 
L 978.822146 88.782825 
L 983.972123 87.070114 
L 999.422054 87.070114 
L 1014.871985 84.929224 
L 1025.171939 83.216513 
L 1030.321916 80.647446 
L 1035.471893 79.79109 
L 1050.921823 76.793845 
L 1056.0718 75.081133 
L 1061.221777 74.224777 
L 1066.371754 73.796599 
L 1071.521731 72.940244 
L 1086.971662 72.083888 
L 1092.121639 69.942999 
L 1097.271616 68.230287 
L 1102.421593 66.945753 
L 1123.0215 60.094907 
L 1128.171477 57.097662 
L 1128.171477 57.097662 
" style="fill:none;stroke:#dbcd00;stroke-linecap:square;stroke-width:2;"/>
    <defs>
     <path d="M 0 1.5 
C 0.397805 1.5 0.77937 1.341951 1.06066 1.06066 
C 1.341951 0.77937 1.5 0.397805 1.5 0 
C 1.5 -0.397805 1.341951 -0.77937 1.06066 -1.06066 
C 0.77937 -1.341951 0.397805 -1.5 0 -1.5 
C -0.397805 -1.5 -0.77937 -1.341951 -1.06066 -1.06066 
C -1.341951 -0.77937 -1.5 -0.397805 -1.5 0 
C -1.5 0.397805 -1.341951 0.77937 -1.06066 1.06066 
C -0.77937 1.341951 -0.397805 1.5 0 1.5 
z
" id="m21cadcb3a9" style="stroke:#dbcd00;"/>
    </defs>
    <g clip-path="url(#p4de782d7b3)">
     <use style="fill:#dbcd00;stroke:#dbcd00;" x="113.626023" xlink:href="#m21cadcb3a9" y="480.565588"/>
     <use style="fill:#dbcd00;stroke:#dbcd00;" x="118.776" xlink:href="#m21cadcb3a9" y="480.13741"/>
     <use style="fill:#dbcd00;stroke:#dbcd00;" x="123.925977" xlink:href="#m21cadcb3a9" y="480.13741"/>
     <use style="fill:#dbcd00;stroke:#dbcd00;" x="129.075954" xlink:href="#m21cadcb3a9" y="477.996521"/>
     <use style="fill:#dbcd00;stroke:#dbcd00;" x="134.22593" xlink:href="#m21cadcb3a9" y="473.714742"/>
     <use style="fill:#dbcd00;stroke:#dbcd00;" x="139.375907" xlink:href="#m21cadcb3a9" y="473.714742"/>
     <use style="fill:#dbcd00;stroke:#dbcd00;" x="144.525884" xlink:href="#m21cadcb3a9" y="472.430208"/>
     <use style="fill:#dbcd00;stroke:#dbcd00;" x="149.675861" xlink:href="#m21cadcb3a9" y="441.173223"/>
     <use style="fill:#dbcd00;stroke:#dbcd00;" x="154.825838" xlink:href="#m21cadcb3a9" y="431.325132"/>
     <use style="fill:#dbcd00;stroke:#dbcd00;" x="159.975815" xlink:href="#m21cadcb3a9" y="422.333396"/>
     <use style="fill:#dbcd00;stroke:#dbcd00;" x="165.125792" xlink:href="#m21cadcb3a9" y="413.34166"/>
     <use style="fill:#dbcd00;stroke:#dbcd00;" x="170.275769" xlink:href="#m21cadcb3a9" y="404.778103"/>
     <use style="fill:#dbcd00;stroke:#dbcd00;" x="175.425746" xlink:href="#m21cadcb3a9" y="400.496324"/>
     <use style="fill:#dbcd00;stroke:#dbcd00;" x="180.575723" xlink:href="#m21cadcb3a9" y="395.358189"/>
     <use style="fill:#dbcd00;stroke:#dbcd00;" x="185.7257" xlink:href="#m21cadcb3a9" y="390.648233"/>
     <use style="fill:#dbcd00;stroke:#dbcd00;" x="190.875677" xlink:href="#m21cadcb3a9" y="386.366454"/>
     <use style="fill:#dbcd00;stroke:#dbcd00;" x="196.025654" xlink:href="#m21cadcb3a9" y="379.943786"/>
     <use style="fill:#dbcd00;stroke:#dbcd00;" x="201.17563" xlink:href="#m21cadcb3a9" y="375.662007"/>
     <use style="fill:#dbcd00;stroke:#dbcd00;" x="206.325607" xlink:href="#m21cadcb3a9" y="370.95205"/>
     <use style="fill:#dbcd00;stroke:#dbcd00;" x="211.475584" xlink:href="#m21cadcb3a9" y="370.095694"/>
     <use style="fill:#dbcd00;stroke:#dbcd00;" x="216.625561" xlink:href="#m21cadcb3a9" y="365.813916"/>
     <use style="fill:#dbcd00;stroke:#dbcd00;" x="226.925515" xlink:href="#m21cadcb3a9" y="361.960315"/>
     <use style="fill:#dbcd00;stroke:#dbcd00;" x="232.075492" xlink:href="#m21cadcb3a9" y="358.963069"/>
     <use style="fill:#dbcd00;stroke:#dbcd00;" x="237.225469" xlink:href="#m21cadcb3a9" y="357.250358"/>
     <use style="fill:#dbcd00;stroke:#dbcd00;" x="242.375446" xlink:href="#m21cadcb3a9" y="353.824935"/>
     <use style="fill:#dbcd00;stroke:#dbcd00;" x="247.525423" xlink:href="#m21cadcb3a9" y="352.112223"/>
     <use style="fill:#dbcd00;stroke:#dbcd00;" x="257.825377" xlink:href="#m21cadcb3a9" y="349.971334"/>
     <use style="fill:#dbcd00;stroke:#dbcd00;" x="262.975354" xlink:href="#m21cadcb3a9" y="347.830444"/>
     <use style="fill:#dbcd00;stroke:#dbcd00;" x="268.125331" xlink:href="#m21cadcb3a9" y="343.976843"/>
     <use style="fill:#dbcd00;stroke:#dbcd00;" x="273.275307" xlink:href="#m21cadcb3a9" y="336.697819"/>
     <use style="fill:#dbcd00;stroke:#dbcd00;" x="278.425284" xlink:href="#m21cadcb3a9" y="335.413286"/>
     <use style="fill:#dbcd00;stroke:#dbcd00;" x="283.575261" xlink:href="#m21cadcb3a9" y="334.55693"/>
     <use style="fill:#dbcd00;stroke:#dbcd00;" x="293.875215" xlink:href="#m21cadcb3a9" y="331.987863"/>
     <use style="fill:#dbcd00;stroke:#dbcd00;" x="299.025192" xlink:href="#m21cadcb3a9" y="331.559685"/>
     <use style="fill:#dbcd00;stroke:#dbcd00;" x="304.175169" xlink:href="#m21cadcb3a9" y="330.275151"/>
     <use style="fill:#dbcd00;stroke:#dbcd00;" x="309.325146" xlink:href="#m21cadcb3a9" y="327.706084"/>
     <use style="fill:#dbcd00;stroke:#dbcd00;" x="319.6251" xlink:href="#m21cadcb3a9" y="321.283416"/>
     <use style="fill:#dbcd00;stroke:#dbcd00;" x="329.925054" xlink:href="#m21cadcb3a9" y="314.43257"/>
     <use style="fill:#dbcd00;stroke:#dbcd00;" x="335.075031" xlink:href="#m21cadcb3a9" y="314.004392"/>
     <use style="fill:#dbcd00;stroke:#dbcd00;" x="340.225007" xlink:href="#m21cadcb3a9" y="311.863502"/>
     <use style="fill:#dbcd00;stroke:#dbcd00;" x="345.374984" xlink:href="#m21cadcb3a9" y="310.150791"/>
     <use style="fill:#dbcd00;stroke:#dbcd00;" x="350.524961" xlink:href="#m21cadcb3a9" y="308.009901"/>
     <use style="fill:#dbcd00;stroke:#dbcd00;" x="355.674938" xlink:href="#m21cadcb3a9" y="305.440834"/>
     <use style="fill:#dbcd00;stroke:#dbcd00;" x="365.974892" xlink:href="#m21cadcb3a9" y="302.871767"/>
     <use style="fill:#dbcd00;stroke:#dbcd00;" x="371.124869" xlink:href="#m21cadcb3a9" y="301.587233"/>
     <use style="fill:#dbcd00;stroke:#dbcd00;" x="376.274846" xlink:href="#m21cadcb3a9" y="300.302699"/>
     <use style="fill:#dbcd00;stroke:#dbcd00;" x="381.424823" xlink:href="#m21cadcb3a9" y="297.305454"/>
     <use style="fill:#dbcd00;stroke:#dbcd00;" x="386.5748" xlink:href="#m21cadcb3a9" y="295.592743"/>
     <use style="fill:#dbcd00;stroke:#dbcd00;" x="391.724777" xlink:href="#m21cadcb3a9" y="295.592743"/>
     <use style="fill:#dbcd00;stroke:#dbcd00;" x="402.024731" xlink:href="#m21cadcb3a9" y="296.020921"/>
     <use style="fill:#dbcd00;stroke:#dbcd00;" x="407.174708" xlink:href="#m21cadcb3a9" y="293.451853"/>
     <use style="fill:#dbcd00;stroke:#dbcd00;" x="412.324684" xlink:href="#m21cadcb3a9" y="293.023675"/>
     <use style="fill:#dbcd00;stroke:#dbcd00;" x="422.624638" xlink:href="#m21cadcb3a9" y="291.310964"/>
     <use style="fill:#dbcd00;stroke:#dbcd00;" x="427.774615" xlink:href="#m21cadcb3a9" y="290.454608"/>
     <use style="fill:#dbcd00;stroke:#dbcd00;" x="438.074569" xlink:href="#m21cadcb3a9" y="290.454608"/>
     <use style="fill:#dbcd00;stroke:#dbcd00;" x="443.224546" xlink:href="#m21cadcb3a9" y="289.170074"/>
     <use style="fill:#dbcd00;stroke:#dbcd00;" x="453.5245" xlink:href="#m21cadcb3a9" y="286.601007"/>
     <use style="fill:#dbcd00;stroke:#dbcd00;" x="458.674477" xlink:href="#m21cadcb3a9" y="286.601007"/>
     <use style="fill:#dbcd00;stroke:#dbcd00;" x="479.274385" xlink:href="#m21cadcb3a9" y="285.316474"/>
     <use style="fill:#dbcd00;stroke:#dbcd00;" x="484.424361" xlink:href="#m21cadcb3a9" y="284.888296"/>
     <use style="fill:#dbcd00;stroke:#dbcd00;" x="489.574338" xlink:href="#m21cadcb3a9" y="284.888296"/>
     <use style="fill:#dbcd00;stroke:#dbcd00;" x="494.724315" xlink:href="#m21cadcb3a9" y="284.888296"/>
     <use style="fill:#dbcd00;stroke:#dbcd00;" x="499.874292" xlink:href="#m21cadcb3a9" y="284.460118"/>
     <use style="fill:#dbcd00;stroke:#dbcd00;" x="510.174246" xlink:href="#m21cadcb3a9" y="284.460118"/>
     <use style="fill:#dbcd00;stroke:#dbcd00;" x="515.324223" xlink:href="#m21cadcb3a9" y="284.460118"/>
     <use style="fill:#dbcd00;stroke:#dbcd00;" x="520.4742" xlink:href="#m21cadcb3a9" y="284.03194"/>
     <use style="fill:#dbcd00;stroke:#dbcd00;" x="530.774154" xlink:href="#m21cadcb3a9" y="282.747406"/>
     <use style="fill:#dbcd00;stroke:#dbcd00;" x="535.924131" xlink:href="#m21cadcb3a9" y="282.747406"/>
     <use style="fill:#dbcd00;stroke:#dbcd00;" x="546.224085" xlink:href="#m21cadcb3a9" y="281.462873"/>
     <use style="fill:#dbcd00;stroke:#dbcd00;" x="556.524038" xlink:href="#m21cadcb3a9" y="280.178339"/>
     <use style="fill:#dbcd00;stroke:#dbcd00;" x="566.823992" xlink:href="#m21cadcb3a9" y="278.893805"/>
     <use style="fill:#dbcd00;stroke:#dbcd00;" x="571.973969" xlink:href="#m21cadcb3a9" y="278.465627"/>
     <use style="fill:#dbcd00;stroke:#dbcd00;" x="582.273923" xlink:href="#m21cadcb3a9" y="278.465627"/>
     <use style="fill:#dbcd00;stroke:#dbcd00;" x="587.4239" xlink:href="#m21cadcb3a9" y="276.324738"/>
     <use style="fill:#dbcd00;stroke:#dbcd00;" x="592.573877" xlink:href="#m21cadcb3a9" y="275.468382"/>
     <use style="fill:#dbcd00;stroke:#dbcd00;" x="597.723854" xlink:href="#m21cadcb3a9" y="275.468382"/>
     <use style="fill:#dbcd00;stroke:#dbcd00;" x="608.023808" xlink:href="#m21cadcb3a9" y="275.468382"/>
     <use style="fill:#dbcd00;stroke:#dbcd00;" x="618.323762" xlink:href="#m21cadcb3a9" y="275.468382"/>
     <use style="fill:#dbcd00;stroke:#dbcd00;" x="623.473738" xlink:href="#m21cadcb3a9" y="275.468382"/>
     <use style="fill:#dbcd00;stroke:#dbcd00;" x="628.623715" xlink:href="#m21cadcb3a9" y="275.040204"/>
     <use style="fill:#dbcd00;stroke:#dbcd00;" x="633.773692" xlink:href="#m21cadcb3a9" y="274.183849"/>
     <use style="fill:#dbcd00;stroke:#dbcd00;" x="638.923669" xlink:href="#m21cadcb3a9" y="274.183849"/>
     <use style="fill:#dbcd00;stroke:#dbcd00;" x="644.073646" xlink:href="#m21cadcb3a9" y="269.90207"/>
     <use style="fill:#dbcd00;stroke:#dbcd00;" x="654.3736" xlink:href="#m21cadcb3a9" y="267.333002"/>
     <use style="fill:#dbcd00;stroke:#dbcd00;" x="659.523577" xlink:href="#m21cadcb3a9" y="262.194868"/>
     <use style="fill:#dbcd00;stroke:#dbcd00;" x="664.673554" xlink:href="#m21cadcb3a9" y="202.678142"/>
     <use style="fill:#dbcd00;stroke:#dbcd00;" x="669.823531" xlink:href="#m21cadcb3a9" y="189.832806"/>
     <use style="fill:#dbcd00;stroke:#dbcd00;" x="674.973508" xlink:href="#m21cadcb3a9" y="176.131113"/>
     <use style="fill:#dbcd00;stroke:#dbcd00;" x="690.423439" xlink:href="#m21cadcb3a9" y="147.015017"/>
     <use style="fill:#dbcd00;stroke:#dbcd00;" x="695.573415" xlink:href="#m21cadcb3a9" y="146.58684"/>
     <use style="fill:#dbcd00;stroke:#dbcd00;" x="700.723392" xlink:href="#m21cadcb3a9" y="145.302306"/>
     <use style="fill:#dbcd00;stroke:#dbcd00;" x="705.873369" xlink:href="#m21cadcb3a9" y="143.161416"/>
     <use style="fill:#dbcd00;stroke:#dbcd00;" x="711.023346" xlink:href="#m21cadcb3a9" y="140.164171"/>
     <use style="fill:#dbcd00;stroke:#dbcd00;" x="726.473277" xlink:href="#m21cadcb3a9" y="135.454215"/>
     <use style="fill:#dbcd00;stroke:#dbcd00;" x="731.623254" xlink:href="#m21cadcb3a9" y="135.026037"/>
     <use style="fill:#dbcd00;stroke:#dbcd00;" x="736.773231" xlink:href="#m21cadcb3a9" y="134.169681"/>
     <use style="fill:#dbcd00;stroke:#dbcd00;" x="741.923208" xlink:href="#m21cadcb3a9" y="133.741503"/>
     <use style="fill:#dbcd00;stroke:#dbcd00;" x="747.073185" xlink:href="#m21cadcb3a9" y="133.741503"/>
     <use style="fill:#dbcd00;stroke:#dbcd00;" x="762.523115" xlink:href="#m21cadcb3a9" y="132.456969"/>
     <use style="fill:#dbcd00;stroke:#dbcd00;" x="767.673092" xlink:href="#m21cadcb3a9" y="130.31608"/>
     <use style="fill:#dbcd00;stroke:#dbcd00;" x="772.823069" xlink:href="#m21cadcb3a9" y="130.31608"/>
     <use style="fill:#dbcd00;stroke:#dbcd00;" x="777.973046" xlink:href="#m21cadcb3a9" y="128.603368"/>
     <use style="fill:#dbcd00;stroke:#dbcd00;" x="783.123023" xlink:href="#m21cadcb3a9" y="127.318835"/>
     <use style="fill:#dbcd00;stroke:#dbcd00;" x="834.622792" xlink:href="#m21cadcb3a9" y="121.752522"/>
     <use style="fill:#dbcd00;stroke:#dbcd00;" x="839.772769" xlink:href="#m21cadcb3a9" y="120.467989"/>
     <use style="fill:#dbcd00;stroke:#dbcd00;" x="850.072723" xlink:href="#m21cadcb3a9" y="119.183455"/>
     <use style="fill:#dbcd00;stroke:#dbcd00;" x="855.2227" xlink:href="#m21cadcb3a9" y="118.755277"/>
     <use style="fill:#dbcd00;stroke:#dbcd00;" x="870.672631" xlink:href="#m21cadcb3a9" y="115.329854"/>
     <use style="fill:#dbcd00;stroke:#dbcd00;" x="875.822608" xlink:href="#m21cadcb3a9" y="114.901676"/>
     <use style="fill:#dbcd00;stroke:#dbcd00;" x="880.972585" xlink:href="#m21cadcb3a9" y="114.901676"/>
     <use style="fill:#dbcd00;stroke:#dbcd00;" x="886.122562" xlink:href="#m21cadcb3a9" y="111.048075"/>
     <use style="fill:#dbcd00;stroke:#dbcd00;" x="891.272539" xlink:href="#m21cadcb3a9" y="110.19172"/>
     <use style="fill:#dbcd00;stroke:#dbcd00;" x="906.722469" xlink:href="#m21cadcb3a9" y="104.625407"/>
     <use style="fill:#dbcd00;stroke:#dbcd00;" x="911.872446" xlink:href="#m21cadcb3a9" y="101.628162"/>
     <use style="fill:#dbcd00;stroke:#dbcd00;" x="917.022423" xlink:href="#m21cadcb3a9" y="100.771806"/>
     <use style="fill:#dbcd00;stroke:#dbcd00;" x="922.1724" xlink:href="#m21cadcb3a9" y="98.202739"/>
     <use style="fill:#dbcd00;stroke:#dbcd00;" x="927.322377" xlink:href="#m21cadcb3a9" y="97.346383"/>
     <use style="fill:#dbcd00;stroke:#dbcd00;" x="942.772308" xlink:href="#m21cadcb3a9" y="95.205494"/>
     <use style="fill:#dbcd00;stroke:#dbcd00;" x="947.922285" xlink:href="#m21cadcb3a9" y="93.92096"/>
     <use style="fill:#dbcd00;stroke:#dbcd00;" x="953.072262" xlink:href="#m21cadcb3a9" y="93.492782"/>
     <use style="fill:#dbcd00;stroke:#dbcd00;" x="958.222239" xlink:href="#m21cadcb3a9" y="91.780071"/>
     <use style="fill:#dbcd00;stroke:#dbcd00;" x="963.372216" xlink:href="#m21cadcb3a9" y="90.067359"/>
     <use style="fill:#dbcd00;stroke:#dbcd00;" x="978.822146" xlink:href="#m21cadcb3a9" y="88.782825"/>
     <use style="fill:#dbcd00;stroke:#dbcd00;" x="983.972123" xlink:href="#m21cadcb3a9" y="87.070114"/>
     <use style="fill:#dbcd00;stroke:#dbcd00;" x="989.1221" xlink:href="#m21cadcb3a9" y="87.070114"/>
     <use style="fill:#dbcd00;stroke:#dbcd00;" x="994.272077" xlink:href="#m21cadcb3a9" y="87.070114"/>
     <use style="fill:#dbcd00;stroke:#dbcd00;" x="999.422054" xlink:href="#m21cadcb3a9" y="87.070114"/>
     <use style="fill:#dbcd00;stroke:#dbcd00;" x="1014.871985" xlink:href="#m21cadcb3a9" y="84.929224"/>
     <use style="fill:#dbcd00;stroke:#dbcd00;" x="1020.021962" xlink:href="#m21cadcb3a9" y="84.072869"/>
     <use style="fill:#dbcd00;stroke:#dbcd00;" x="1025.171939" xlink:href="#m21cadcb3a9" y="83.216513"/>
     <use style="fill:#dbcd00;stroke:#dbcd00;" x="1030.321916" xlink:href="#m21cadcb3a9" y="80.647446"/>
     <use style="fill:#dbcd00;stroke:#dbcd00;" x="1035.471893" xlink:href="#m21cadcb3a9" y="79.79109"/>
     <use style="fill:#dbcd00;stroke:#dbcd00;" x="1050.921823" xlink:href="#m21cadcb3a9" y="76.793845"/>
     <use style="fill:#dbcd00;stroke:#dbcd00;" x="1056.0718" xlink:href="#m21cadcb3a9" y="75.081133"/>
     <use style="fill:#dbcd00;stroke:#dbcd00;" x="1061.221777" xlink:href="#m21cadcb3a9" y="74.224777"/>
     <use style="fill:#dbcd00;stroke:#dbcd00;" x="1066.371754" xlink:href="#m21cadcb3a9" y="73.796599"/>
     <use style="fill:#dbcd00;stroke:#dbcd00;" x="1071.521731" xlink:href="#m21cadcb3a9" y="72.940244"/>
     <use style="fill:#dbcd00;stroke:#dbcd00;" x="1086.971662" xlink:href="#m21cadcb3a9" y="72.083888"/>
     <use style="fill:#dbcd00;stroke:#dbcd00;" x="1092.121639" xlink:href="#m21cadcb3a9" y="69.942999"/>
     <use style="fill:#dbcd00;stroke:#dbcd00;" x="1097.271616" xlink:href="#m21cadcb3a9" y="68.230287"/>
     <use style="fill:#dbcd00;stroke:#dbcd00;" x="1102.421593" xlink:href="#m21cadcb3a9" y="66.945753"/>
     <use style="fill:#dbcd00;stroke:#dbcd00;" x="1107.57157" xlink:href="#m21cadcb3a9" y="65.233042"/>
     <use style="fill:#dbcd00;stroke:#dbcd00;" x="1123.0215" xlink:href="#m21cadcb3a9" y="60.094907"/>
     <use style="fill:#dbcd00;stroke:#dbcd00;" x="1128.171477" xlink:href="#m21cadcb3a9" y="57.097662"/>
    </g>
   </g>
   <g id="line2d_33">
    <path clip-path="url(#p4de782d7b3)" d="M 113.626023 397.070901 
L 118.776 393.2173 
L 123.925977 381.656497 
L 129.075954 379.943786 
L 134.22593 373.521117 
L 139.375907 370.095694 
L 144.525884 369.667516 
L 149.675861 395.786367 
L 154.825838 402.637213 
L 159.975815 406.918992 
L 165.125792 409.059882 
L 170.275769 416.338906 
L 175.425746 420.192507 
L 180.575723 424.902463 
L 185.7257 428.327886 
L 190.875677 430.896954 
L 196.025654 432.609665 
L 201.17563 434.750555 
L 211.475584 436.463266 
L 216.625561 439.460511 
L 226.925515 433.037843 
L 232.075492 434.750555 
L 237.225469 434.322377 
L 247.525423 435.178733 
L 257.825377 439.032333 
L 262.975354 440.745045 
L 268.125331 443.74229 
L 273.275307 450.164958 
L 278.425284 443.74229 
L 283.575261 444.170468 
L 293.875215 445.88318 
L 299.025192 445.88318 
L 304.175169 445.026824 
L 309.325146 447.595891 
L 319.6251 451.021314 
L 329.925054 455.731271 
L 335.075031 456.159449 
L 340.225007 458.300338 
L 345.374984 460.01305 
L 355.674938 464.294829 
L 365.974892 466.435718 
L 376.274846 469.004785 
L 381.424823 472.00203 
L 402.024731 470.289319 
L 407.174708 472.858386 
L 412.324684 473.286564 
L 422.624638 474.571098 
L 427.774615 475.427453 
L 438.074569 475.427453 
L 443.224546 476.711987 
L 453.5245 480.13741 
L 458.674477 479.709232 
L 484.424361 477.996521 
L 489.574338 477.140165 
L 494.724315 477.140165 
L 499.874292 477.568343 
L 515.324223 476.283809 
L 520.4742 476.283809 
L 530.774154 472.430208 
L 535.924131 472.430208 
L 546.224085 468.576607 
L 556.524038 467.292074 
L 566.823992 443.74229 
L 571.973969 423.189752 
L 582.273923 422.333396 
L 587.4239 392.789122 
L 592.573877 393.645478 
L 608.023808 383.369209 
L 618.323762 377.374718 
L 623.473738 370.523872 
L 628.623715 362.388492 
L 633.773692 353.396757 
L 638.923669 350.82769 
L 644.073646 355.109468 
L 654.3736 350.399512 
L 659.523577 355.109468 
L 664.673554 413.34166 
L 669.823531 424.902463 
L 674.973508 438.175978 
L 690.423439 467.292074 
L 695.573415 466.863896 
L 700.723392 467.720252 
L 705.873369 469.861141 
L 711.023346 471.573853 
L 726.473277 474.14292 
L 736.773231 474.999276 
L 741.923208 474.999276 
L 747.073185 474.14292 
L 762.523115 472.858386 
L 767.673092 473.714742 
L 772.823069 472.858386 
L 777.973046 474.14292 
L 783.123023 474.999276 
L 839.772769 466.00754 
L 850.072723 465.579362 
L 855.2227 463.438473 
L 870.672631 462.582117 
L 880.972585 461.725761 
L 886.122562 465.579362 
L 891.272539 465.151184 
L 906.722469 468.148429 
L 911.872446 470.717497 
L 917.022423 469.432963 
L 922.1724 471.573853 
L 927.322377 472.430208 
L 942.772308 474.571098 
L 953.072262 473.714742 
L 958.222239 475.427453 
L 963.372216 475.855631 
L 978.822146 474.571098 
L 983.972123 475.855631 
L 994.272077 473.286564 
L 999.422054 471.145675 
L 1014.871985 468.576607 
L 1020.021962 469.432963 
L 1025.171939 469.004785 
L 1030.321916 471.145675 
L 1035.471893 469.861141 
L 1050.921823 469.432963 
L 1056.0718 471.145675 
L 1066.371754 470.289319 
L 1071.521731 467.720252 
L 1086.971662 459.584872 
L 1092.121639 460.01305 
L 1097.271616 456.587627 
L 1102.421593 456.587627 
L 1107.57157 449.308603 
L 1123.0215 442.029579 
L 1128.171477 443.314112 
L 1128.171477 443.314112 
" style="fill:none;stroke:#2792cb;stroke-linecap:square;stroke-width:2;"/>
    <defs>
     <path d="M 0 1.5 
C 0.397805 1.5 0.77937 1.341951 1.06066 1.06066 
C 1.341951 0.77937 1.5 0.397805 1.5 0 
C 1.5 -0.397805 1.341951 -0.77937 1.06066 -1.06066 
C 0.77937 -1.341951 0.397805 -1.5 0 -1.5 
C -0.397805 -1.5 -0.77937 -1.341951 -1.06066 -1.06066 
C -1.341951 -0.77937 -1.5 -0.397805 -1.5 0 
C -1.5 0.397805 -1.341951 0.77937 -1.06066 1.06066 
C -0.77937 1.341951 -0.397805 1.5 0 1.5 
z
" id="m1141d39a37" style="stroke:#2792cb;"/>
    </defs>
    <g clip-path="url(#p4de782d7b3)">
     <use style="fill:#2792cb;stroke:#2792cb;" x="113.626023" xlink:href="#m1141d39a37" y="397.070901"/>
     <use style="fill:#2792cb;stroke:#2792cb;" x="118.776" xlink:href="#m1141d39a37" y="393.2173"/>
     <use style="fill:#2792cb;stroke:#2792cb;" x="123.925977" xlink:href="#m1141d39a37" y="381.656497"/>
     <use style="fill:#2792cb;stroke:#2792cb;" x="129.075954" xlink:href="#m1141d39a37" y="379.943786"/>
     <use style="fill:#2792cb;stroke:#2792cb;" x="134.22593" xlink:href="#m1141d39a37" y="373.521117"/>
     <use style="fill:#2792cb;stroke:#2792cb;" x="139.375907" xlink:href="#m1141d39a37" y="370.095694"/>
     <use style="fill:#2792cb;stroke:#2792cb;" x="144.525884" xlink:href="#m1141d39a37" y="369.667516"/>
     <use style="fill:#2792cb;stroke:#2792cb;" x="149.675861" xlink:href="#m1141d39a37" y="395.786367"/>
     <use style="fill:#2792cb;stroke:#2792cb;" x="154.825838" xlink:href="#m1141d39a37" y="402.637213"/>
     <use style="fill:#2792cb;stroke:#2792cb;" x="159.975815" xlink:href="#m1141d39a37" y="406.918992"/>
     <use style="fill:#2792cb;stroke:#2792cb;" x="165.125792" xlink:href="#m1141d39a37" y="409.059882"/>
     <use style="fill:#2792cb;stroke:#2792cb;" x="170.275769" xlink:href="#m1141d39a37" y="416.338906"/>
     <use style="fill:#2792cb;stroke:#2792cb;" x="175.425746" xlink:href="#m1141d39a37" y="420.192507"/>
     <use style="fill:#2792cb;stroke:#2792cb;" x="180.575723" xlink:href="#m1141d39a37" y="424.902463"/>
     <use style="fill:#2792cb;stroke:#2792cb;" x="185.7257" xlink:href="#m1141d39a37" y="428.327886"/>
     <use style="fill:#2792cb;stroke:#2792cb;" x="190.875677" xlink:href="#m1141d39a37" y="430.896954"/>
     <use style="fill:#2792cb;stroke:#2792cb;" x="196.025654" xlink:href="#m1141d39a37" y="432.609665"/>
     <use style="fill:#2792cb;stroke:#2792cb;" x="201.17563" xlink:href="#m1141d39a37" y="434.750555"/>
     <use style="fill:#2792cb;stroke:#2792cb;" x="206.325607" xlink:href="#m1141d39a37" y="435.60691"/>
     <use style="fill:#2792cb;stroke:#2792cb;" x="211.475584" xlink:href="#m1141d39a37" y="436.463266"/>
     <use style="fill:#2792cb;stroke:#2792cb;" x="216.625561" xlink:href="#m1141d39a37" y="439.460511"/>
     <use style="fill:#2792cb;stroke:#2792cb;" x="226.925515" xlink:href="#m1141d39a37" y="433.037843"/>
     <use style="fill:#2792cb;stroke:#2792cb;" x="232.075492" xlink:href="#m1141d39a37" y="434.750555"/>
     <use style="fill:#2792cb;stroke:#2792cb;" x="237.225469" xlink:href="#m1141d39a37" y="434.322377"/>
     <use style="fill:#2792cb;stroke:#2792cb;" x="242.375446" xlink:href="#m1141d39a37" y="434.750555"/>
     <use style="fill:#2792cb;stroke:#2792cb;" x="247.525423" xlink:href="#m1141d39a37" y="435.178733"/>
     <use style="fill:#2792cb;stroke:#2792cb;" x="257.825377" xlink:href="#m1141d39a37" y="439.032333"/>
     <use style="fill:#2792cb;stroke:#2792cb;" x="262.975354" xlink:href="#m1141d39a37" y="440.745045"/>
     <use style="fill:#2792cb;stroke:#2792cb;" x="268.125331" xlink:href="#m1141d39a37" y="443.74229"/>
     <use style="fill:#2792cb;stroke:#2792cb;" x="273.275307" xlink:href="#m1141d39a37" y="450.164958"/>
     <use style="fill:#2792cb;stroke:#2792cb;" x="278.425284" xlink:href="#m1141d39a37" y="443.74229"/>
     <use style="fill:#2792cb;stroke:#2792cb;" x="283.575261" xlink:href="#m1141d39a37" y="444.170468"/>
     <use style="fill:#2792cb;stroke:#2792cb;" x="293.875215" xlink:href="#m1141d39a37" y="445.88318"/>
     <use style="fill:#2792cb;stroke:#2792cb;" x="299.025192" xlink:href="#m1141d39a37" y="445.88318"/>
     <use style="fill:#2792cb;stroke:#2792cb;" x="304.175169" xlink:href="#m1141d39a37" y="445.026824"/>
     <use style="fill:#2792cb;stroke:#2792cb;" x="309.325146" xlink:href="#m1141d39a37" y="447.595891"/>
     <use style="fill:#2792cb;stroke:#2792cb;" x="319.6251" xlink:href="#m1141d39a37" y="451.021314"/>
     <use style="fill:#2792cb;stroke:#2792cb;" x="329.925054" xlink:href="#m1141d39a37" y="455.731271"/>
     <use style="fill:#2792cb;stroke:#2792cb;" x="335.075031" xlink:href="#m1141d39a37" y="456.159449"/>
     <use style="fill:#2792cb;stroke:#2792cb;" x="340.225007" xlink:href="#m1141d39a37" y="458.300338"/>
     <use style="fill:#2792cb;stroke:#2792cb;" x="345.374984" xlink:href="#m1141d39a37" y="460.01305"/>
     <use style="fill:#2792cb;stroke:#2792cb;" x="350.524961" xlink:href="#m1141d39a37" y="462.153939"/>
     <use style="fill:#2792cb;stroke:#2792cb;" x="355.674938" xlink:href="#m1141d39a37" y="464.294829"/>
     <use style="fill:#2792cb;stroke:#2792cb;" x="365.974892" xlink:href="#m1141d39a37" y="466.435718"/>
     <use style="fill:#2792cb;stroke:#2792cb;" x="371.124869" xlink:href="#m1141d39a37" y="467.720252"/>
     <use style="fill:#2792cb;stroke:#2792cb;" x="376.274846" xlink:href="#m1141d39a37" y="469.004785"/>
     <use style="fill:#2792cb;stroke:#2792cb;" x="381.424823" xlink:href="#m1141d39a37" y="472.00203"/>
     <use style="fill:#2792cb;stroke:#2792cb;" x="386.5748" xlink:href="#m1141d39a37" y="471.573853"/>
     <use style="fill:#2792cb;stroke:#2792cb;" x="391.724777" xlink:href="#m1141d39a37" y="471.145675"/>
     <use style="fill:#2792cb;stroke:#2792cb;" x="402.024731" xlink:href="#m1141d39a37" y="470.289319"/>
     <use style="fill:#2792cb;stroke:#2792cb;" x="407.174708" xlink:href="#m1141d39a37" y="472.858386"/>
     <use style="fill:#2792cb;stroke:#2792cb;" x="412.324684" xlink:href="#m1141d39a37" y="473.286564"/>
     <use style="fill:#2792cb;stroke:#2792cb;" x="422.624638" xlink:href="#m1141d39a37" y="474.571098"/>
     <use style="fill:#2792cb;stroke:#2792cb;" x="427.774615" xlink:href="#m1141d39a37" y="475.427453"/>
     <use style="fill:#2792cb;stroke:#2792cb;" x="438.074569" xlink:href="#m1141d39a37" y="475.427453"/>
     <use style="fill:#2792cb;stroke:#2792cb;" x="443.224546" xlink:href="#m1141d39a37" y="476.711987"/>
     <use style="fill:#2792cb;stroke:#2792cb;" x="453.5245" xlink:href="#m1141d39a37" y="480.13741"/>
     <use style="fill:#2792cb;stroke:#2792cb;" x="458.674477" xlink:href="#m1141d39a37" y="479.709232"/>
     <use style="fill:#2792cb;stroke:#2792cb;" x="479.274385" xlink:href="#m1141d39a37" y="478.424699"/>
     <use style="fill:#2792cb;stroke:#2792cb;" x="484.424361" xlink:href="#m1141d39a37" y="477.996521"/>
     <use style="fill:#2792cb;stroke:#2792cb;" x="489.574338" xlink:href="#m1141d39a37" y="477.140165"/>
     <use style="fill:#2792cb;stroke:#2792cb;" x="494.724315" xlink:href="#m1141d39a37" y="477.140165"/>
     <use style="fill:#2792cb;stroke:#2792cb;" x="499.874292" xlink:href="#m1141d39a37" y="477.568343"/>
     <use style="fill:#2792cb;stroke:#2792cb;" x="510.174246" xlink:href="#m1141d39a37" y="476.711987"/>
     <use style="fill:#2792cb;stroke:#2792cb;" x="515.324223" xlink:href="#m1141d39a37" y="476.283809"/>
     <use style="fill:#2792cb;stroke:#2792cb;" x="520.4742" xlink:href="#m1141d39a37" y="476.283809"/>
     <use style="fill:#2792cb;stroke:#2792cb;" x="530.774154" xlink:href="#m1141d39a37" y="472.430208"/>
     <use style="fill:#2792cb;stroke:#2792cb;" x="535.924131" xlink:href="#m1141d39a37" y="472.430208"/>
     <use style="fill:#2792cb;stroke:#2792cb;" x="546.224085" xlink:href="#m1141d39a37" y="468.576607"/>
     <use style="fill:#2792cb;stroke:#2792cb;" x="556.524038" xlink:href="#m1141d39a37" y="467.292074"/>
     <use style="fill:#2792cb;stroke:#2792cb;" x="566.823992" xlink:href="#m1141d39a37" y="443.74229"/>
     <use style="fill:#2792cb;stroke:#2792cb;" x="571.973969" xlink:href="#m1141d39a37" y="423.189752"/>
     <use style="fill:#2792cb;stroke:#2792cb;" x="582.273923" xlink:href="#m1141d39a37" y="422.333396"/>
     <use style="fill:#2792cb;stroke:#2792cb;" x="587.4239" xlink:href="#m1141d39a37" y="392.789122"/>
     <use style="fill:#2792cb;stroke:#2792cb;" x="592.573877" xlink:href="#m1141d39a37" y="393.645478"/>
     <use style="fill:#2792cb;stroke:#2792cb;" x="597.723854" xlink:href="#m1141d39a37" y="390.220055"/>
     <use style="fill:#2792cb;stroke:#2792cb;" x="608.023808" xlink:href="#m1141d39a37" y="383.369209"/>
     <use style="fill:#2792cb;stroke:#2792cb;" x="618.323762" xlink:href="#m1141d39a37" y="377.374718"/>
     <use style="fill:#2792cb;stroke:#2792cb;" x="623.473738" xlink:href="#m1141d39a37" y="370.523872"/>
     <use style="fill:#2792cb;stroke:#2792cb;" x="628.623715" xlink:href="#m1141d39a37" y="362.388492"/>
     <use style="fill:#2792cb;stroke:#2792cb;" x="633.773692" xlink:href="#m1141d39a37" y="353.396757"/>
     <use style="fill:#2792cb;stroke:#2792cb;" x="638.923669" xlink:href="#m1141d39a37" y="350.82769"/>
     <use style="fill:#2792cb;stroke:#2792cb;" x="644.073646" xlink:href="#m1141d39a37" y="355.109468"/>
     <use style="fill:#2792cb;stroke:#2792cb;" x="654.3736" xlink:href="#m1141d39a37" y="350.399512"/>
     <use style="fill:#2792cb;stroke:#2792cb;" x="659.523577" xlink:href="#m1141d39a37" y="355.109468"/>
     <use style="fill:#2792cb;stroke:#2792cb;" x="664.673554" xlink:href="#m1141d39a37" y="413.34166"/>
     <use style="fill:#2792cb;stroke:#2792cb;" x="669.823531" xlink:href="#m1141d39a37" y="424.902463"/>
     <use style="fill:#2792cb;stroke:#2792cb;" x="674.973508" xlink:href="#m1141d39a37" y="438.175978"/>
     <use style="fill:#2792cb;stroke:#2792cb;" x="690.423439" xlink:href="#m1141d39a37" y="467.292074"/>
     <use style="fill:#2792cb;stroke:#2792cb;" x="695.573415" xlink:href="#m1141d39a37" y="466.863896"/>
     <use style="fill:#2792cb;stroke:#2792cb;" x="700.723392" xlink:href="#m1141d39a37" y="467.720252"/>
     <use style="fill:#2792cb;stroke:#2792cb;" x="705.873369" xlink:href="#m1141d39a37" y="469.861141"/>
     <use style="fill:#2792cb;stroke:#2792cb;" x="711.023346" xlink:href="#m1141d39a37" y="471.573853"/>
     <use style="fill:#2792cb;stroke:#2792cb;" x="726.473277" xlink:href="#m1141d39a37" y="474.14292"/>
     <use style="fill:#2792cb;stroke:#2792cb;" x="731.623254" xlink:href="#m1141d39a37" y="474.571098"/>
     <use style="fill:#2792cb;stroke:#2792cb;" x="736.773231" xlink:href="#m1141d39a37" y="474.999276"/>
     <use style="fill:#2792cb;stroke:#2792cb;" x="741.923208" xlink:href="#m1141d39a37" y="474.999276"/>
     <use style="fill:#2792cb;stroke:#2792cb;" x="747.073185" xlink:href="#m1141d39a37" y="474.14292"/>
     <use style="fill:#2792cb;stroke:#2792cb;" x="762.523115" xlink:href="#m1141d39a37" y="472.858386"/>
     <use style="fill:#2792cb;stroke:#2792cb;" x="767.673092" xlink:href="#m1141d39a37" y="473.714742"/>
     <use style="fill:#2792cb;stroke:#2792cb;" x="772.823069" xlink:href="#m1141d39a37" y="472.858386"/>
     <use style="fill:#2792cb;stroke:#2792cb;" x="777.973046" xlink:href="#m1141d39a37" y="474.14292"/>
     <use style="fill:#2792cb;stroke:#2792cb;" x="783.123023" xlink:href="#m1141d39a37" y="474.999276"/>
     <use style="fill:#2792cb;stroke:#2792cb;" x="834.622792" xlink:href="#m1141d39a37" y="466.863896"/>
     <use style="fill:#2792cb;stroke:#2792cb;" x="839.772769" xlink:href="#m1141d39a37" y="466.00754"/>
     <use style="fill:#2792cb;stroke:#2792cb;" x="850.072723" xlink:href="#m1141d39a37" y="465.579362"/>
     <use style="fill:#2792cb;stroke:#2792cb;" x="855.2227" xlink:href="#m1141d39a37" y="463.438473"/>
     <use style="fill:#2792cb;stroke:#2792cb;" x="870.672631" xlink:href="#m1141d39a37" y="462.582117"/>
     <use style="fill:#2792cb;stroke:#2792cb;" x="875.822608" xlink:href="#m1141d39a37" y="462.153939"/>
     <use style="fill:#2792cb;stroke:#2792cb;" x="880.972585" xlink:href="#m1141d39a37" y="461.725761"/>
     <use style="fill:#2792cb;stroke:#2792cb;" x="886.122562" xlink:href="#m1141d39a37" y="465.579362"/>
     <use style="fill:#2792cb;stroke:#2792cb;" x="891.272539" xlink:href="#m1141d39a37" y="465.151184"/>
     <use style="fill:#2792cb;stroke:#2792cb;" x="906.722469" xlink:href="#m1141d39a37" y="468.148429"/>
     <use style="fill:#2792cb;stroke:#2792cb;" x="911.872446" xlink:href="#m1141d39a37" y="470.717497"/>
     <use style="fill:#2792cb;stroke:#2792cb;" x="917.022423" xlink:href="#m1141d39a37" y="469.432963"/>
     <use style="fill:#2792cb;stroke:#2792cb;" x="922.1724" xlink:href="#m1141d39a37" y="471.573853"/>
     <use style="fill:#2792cb;stroke:#2792cb;" x="927.322377" xlink:href="#m1141d39a37" y="472.430208"/>
     <use style="fill:#2792cb;stroke:#2792cb;" x="942.772308" xlink:href="#m1141d39a37" y="474.571098"/>
     <use style="fill:#2792cb;stroke:#2792cb;" x="947.922285" xlink:href="#m1141d39a37" y="474.14292"/>
     <use style="fill:#2792cb;stroke:#2792cb;" x="953.072262" xlink:href="#m1141d39a37" y="473.714742"/>
     <use style="fill:#2792cb;stroke:#2792cb;" x="958.222239" xlink:href="#m1141d39a37" y="475.427453"/>
     <use style="fill:#2792cb;stroke:#2792cb;" x="963.372216" xlink:href="#m1141d39a37" y="475.855631"/>
     <use style="fill:#2792cb;stroke:#2792cb;" x="978.822146" xlink:href="#m1141d39a37" y="474.571098"/>
     <use style="fill:#2792cb;stroke:#2792cb;" x="983.972123" xlink:href="#m1141d39a37" y="475.855631"/>
     <use style="fill:#2792cb;stroke:#2792cb;" x="989.1221" xlink:href="#m1141d39a37" y="474.571098"/>
     <use style="fill:#2792cb;stroke:#2792cb;" x="994.272077" xlink:href="#m1141d39a37" y="473.286564"/>
     <use style="fill:#2792cb;stroke:#2792cb;" x="999.422054" xlink:href="#m1141d39a37" y="471.145675"/>
     <use style="fill:#2792cb;stroke:#2792cb;" x="1014.871985" xlink:href="#m1141d39a37" y="468.576607"/>
     <use style="fill:#2792cb;stroke:#2792cb;" x="1020.021962" xlink:href="#m1141d39a37" y="469.432963"/>
     <use style="fill:#2792cb;stroke:#2792cb;" x="1025.171939" xlink:href="#m1141d39a37" y="469.004785"/>
     <use style="fill:#2792cb;stroke:#2792cb;" x="1030.321916" xlink:href="#m1141d39a37" y="471.145675"/>
     <use style="fill:#2792cb;stroke:#2792cb;" x="1035.471893" xlink:href="#m1141d39a37" y="469.861141"/>
     <use style="fill:#2792cb;stroke:#2792cb;" x="1050.921823" xlink:href="#m1141d39a37" y="469.432963"/>
     <use style="fill:#2792cb;stroke:#2792cb;" x="1056.0718" xlink:href="#m1141d39a37" y="471.145675"/>
     <use style="fill:#2792cb;stroke:#2792cb;" x="1061.221777" xlink:href="#m1141d39a37" y="470.717497"/>
     <use style="fill:#2792cb;stroke:#2792cb;" x="1066.371754" xlink:href="#m1141d39a37" y="470.289319"/>
     <use style="fill:#2792cb;stroke:#2792cb;" x="1071.521731" xlink:href="#m1141d39a37" y="467.720252"/>
     <use style="fill:#2792cb;stroke:#2792cb;" x="1086.971662" xlink:href="#m1141d39a37" y="459.584872"/>
     <use style="fill:#2792cb;stroke:#2792cb;" x="1092.121639" xlink:href="#m1141d39a37" y="460.01305"/>
     <use style="fill:#2792cb;stroke:#2792cb;" x="1097.271616" xlink:href="#m1141d39a37" y="456.587627"/>
     <use style="fill:#2792cb;stroke:#2792cb;" x="1102.421593" xlink:href="#m1141d39a37" y="456.587627"/>
     <use style="fill:#2792cb;stroke:#2792cb;" x="1107.57157" xlink:href="#m1141d39a37" y="449.308603"/>
     <use style="fill:#2792cb;stroke:#2792cb;" x="1123.0215" xlink:href="#m1141d39a37" y="442.029579"/>
     <use style="fill:#2792cb;stroke:#2792cb;" x="1128.171477" xlink:href="#m1141d39a37" y="443.314112"/>
    </g>
   </g>
   <g id="patch_3">
    <path d="M 62.89875 501.738984 
L 1178.89875 501.738984 
" style="fill:none;stroke:#000000;stroke-linecap:square;stroke-linejoin:miter;stroke-width:0.8;"/>
   </g>
   <g id="legend_1">
    <g id="line2d_34">
     <path d="M 1091.653438 25.237422 
L 1111.653438 25.237422 
" style="fill:none;stroke:#dbcd00;stroke-linecap:square;stroke-width:2;"/>
    </g>
    <g id="line2d_35">
     <g>
      <use style="fill:#dbcd00;stroke:#dbcd00;" x="1101.653438" xlink:href="#m21cadcb3a9" y="25.237422"/>
     </g>
    </g>
    <g id="text_21">
     <!-- Genesene -->
     <defs>
      <path d="M 59.515625 10.40625 
L 59.515625 29.984375 
L 43.40625 29.984375 
L 43.40625 38.09375 
L 69.28125 38.09375 
L 69.28125 6.78125 
Q 63.578125 2.734375 56.6875 0.65625 
Q 49.8125 -1.421875 42 -1.421875 
Q 24.90625 -1.421875 15.25 8.5625 
Q 5.609375 18.5625 5.609375 36.375 
Q 5.609375 54.25 15.25 64.234375 
Q 24.90625 74.21875 42 74.21875 
Q 49.125 74.21875 55.546875 72.453125 
Q 61.96875 70.703125 67.390625 67.28125 
L 67.390625 56.78125 
Q 61.921875 61.421875 55.765625 63.765625 
Q 49.609375 66.109375 42.828125 66.109375 
Q 29.4375 66.109375 22.71875 58.640625 
Q 16.015625 51.171875 16.015625 36.375 
Q 16.015625 21.625 22.71875 14.15625 
Q 29.4375 6.6875 42.828125 6.6875 
Q 48.046875 6.6875 52.140625 7.59375 
Q 56.25 8.5 59.515625 10.40625 
z
" id="DejaVuSans-71"/>
      <path d="M 44.28125 53.078125 
L 44.28125 44.578125 
Q 40.484375 46.53125 36.375 47.5 
Q 32.28125 48.484375 27.875 48.484375 
Q 21.1875 48.484375 17.84375 46.4375 
Q 14.5 44.390625 14.5 40.28125 
Q 14.5 37.15625 16.890625 35.375 
Q 19.28125 33.59375 26.515625 31.984375 
L 29.59375 31.296875 
Q 39.15625 29.25 43.1875 25.515625 
Q 47.21875 21.78125 47.21875 15.09375 
Q 47.21875 7.46875 41.1875 3.015625 
Q 35.15625 -1.421875 24.609375 -1.421875 
Q 20.21875 -1.421875 15.453125 -0.5625 
Q 10.6875 0.296875 5.421875 2 
L 5.421875 11.28125 
Q 10.40625 8.6875 15.234375 7.390625 
Q 20.0625 6.109375 24.8125 6.109375 
Q 31.15625 6.109375 34.5625 8.28125 
Q 37.984375 10.453125 37.984375 14.40625 
Q 37.984375 18.0625 35.515625 20.015625 
Q 33.0625 21.96875 24.703125 23.78125 
L 21.578125 24.515625 
Q 13.234375 26.265625 9.515625 29.90625 
Q 5.8125 33.546875 5.8125 39.890625 
Q 5.8125 47.609375 11.28125 51.796875 
Q 16.75 56 26.8125 56 
Q 31.78125 56 36.171875 55.265625 
Q 40.578125 54.546875 44.28125 53.078125 
z
" id="DejaVuSans-115"/>
     </defs>
     <g transform="translate(1119.653438 28.737422)scale(0.1 -0.1)">
      <use xlink:href="#DejaVuSans-71"/>
      <use x="77.490234" xlink:href="#DejaVuSans-101"/>
      <use x="139.013672" xlink:href="#DejaVuSans-110"/>
      <use x="202.392578" xlink:href="#DejaVuSans-101"/>
      <use x="263.916016" xlink:href="#DejaVuSans-115"/>
      <use x="316.015625" xlink:href="#DejaVuSans-101"/>
      <use x="377.539062" xlink:href="#DejaVuSans-110"/>
      <use x="440.917969" xlink:href="#DejaVuSans-101"/>
     </g>
    </g>
    <g id="line2d_36">
     <path d="M 1091.653438 39.915547 
L 1111.653438 39.915547 
" style="fill:none;stroke:#2792cb;stroke-linecap:square;stroke-width:2;"/>
    </g>
    <g id="line2d_37">
     <g>
      <use style="fill:#2792cb;stroke:#2792cb;" x="1101.653438" xlink:href="#m1141d39a37" y="39.915547"/>
     </g>
    </g>
    <g id="text_22">
     <!-- Erkrankte -->
     <defs>
      <path d="M 9.8125 72.90625 
L 55.90625 72.90625 
L 55.90625 64.59375 
L 19.671875 64.59375 
L 19.671875 43.015625 
L 54.390625 43.015625 
L 54.390625 34.71875 
L 19.671875 34.71875 
L 19.671875 8.296875 
L 56.78125 8.296875 
L 56.78125 0 
L 9.8125 0 
z
" id="DejaVuSans-69"/>
      <path d="M 41.109375 46.296875 
Q 39.59375 47.171875 37.8125 47.578125 
Q 36.03125 48 33.890625 48 
Q 26.265625 48 22.1875 43.046875 
Q 18.109375 38.09375 18.109375 28.8125 
L 18.109375 0 
L 9.078125 0 
L 9.078125 54.6875 
L 18.109375 54.6875 
L 18.109375 46.1875 
Q 20.953125 51.171875 25.484375 53.578125 
Q 30.03125 56 36.53125 56 
Q 37.453125 56 38.578125 55.875 
Q 39.703125 55.765625 41.0625 55.515625 
z
" id="DejaVuSans-114"/>
      <path d="M 9.078125 75.984375 
L 18.109375 75.984375 
L 18.109375 31.109375 
L 44.921875 54.6875 
L 56.390625 54.6875 
L 27.390625 29.109375 
L 57.625 0 
L 45.90625 0 
L 18.109375 26.703125 
L 18.109375 0 
L 9.078125 0 
z
" id="DejaVuSans-107"/>
      <path d="M 18.3125 70.21875 
L 18.3125 54.6875 
L 36.8125 54.6875 
L 36.8125 47.703125 
L 18.3125 47.703125 
L 18.3125 18.015625 
Q 18.3125 11.328125 20.140625 9.421875 
Q 21.96875 7.515625 27.59375 7.515625 
L 36.8125 7.515625 
L 36.8125 0 
L 27.59375 0 
Q 17.1875 0 13.234375 3.875 
Q 9.28125 7.765625 9.28125 18.015625 
L 9.28125 47.703125 
L 2.6875 47.703125 
L 2.6875 54.6875 
L 9.28125 54.6875 
L 9.28125 70.21875 
z
" id="DejaVuSans-116"/>
     </defs>
     <g transform="translate(1119.653438 43.415547)scale(0.1 -0.1)">
      <use xlink:href="#DejaVuSans-69"/>
      <use x="63.183594" xlink:href="#DejaVuSans-114"/>
      <use x="104.296875" xlink:href="#DejaVuSans-107"/>
      <use x="162.207031" xlink:href="#DejaVuSans-114"/>
      <use x="203.320312" xlink:href="#DejaVuSans-97"/>
      <use x="264.599609" xlink:href="#DejaVuSans-110"/>
      <use x="327.978516" xlink:href="#DejaVuSans-107"/>
      <use x="385.888672" xlink:href="#DejaVuSans-116"/>
      <use x="425.097656" xlink:href="#DejaVuSans-101"/>
     </g>
    </g>
   </g>
  </g>
 </g>
 <defs>
  <clipPath id="p4de782d7b3">
   <rect height="489.6" width="1116" x="62.89875" y="12.138984"/>
  </clipPath>
 </defs>
</svg>
