<?xml version="1.0" encoding="utf-8" standalone="no"?>
<!DOCTYPE svg PUBLIC "-//W3C//DTD SVG 1.1//EN"
  "http://www.w3.org/Graphics/SVG/1.1/DTD/svg11.dtd">
<!-- Created with matplotlib (https://matplotlib.org/) -->
<svg height="553.993765pt" version="1.1" viewBox="0 0 1186.09875 553.993765" width="1186.09875pt" xmlns="http://www.w3.org/2000/svg" xmlns:xlink="http://www.w3.org/1999/xlink">
 <defs>
  <style type="text/css">
*{stroke-linecap:butt;stroke-linejoin:round;}
  </style>
 </defs>
 <g id="figure_1">
  <g id="patch_1">
   <path d="M 0 553.993765 
L 1186.09875 553.993765 
L 1186.09875 0 
L 0 0 
z
" style="fill:#ffffff;"/>
  </g>
  <g id="axes_1">
   <g id="patch_2">
    <path d="M 62.89875 501.738984 
L 1178.89875 501.738984 
L 1178.89875 12.138984 
L 62.89875 12.138984 
z
" style="fill:#ffffff;"/>
   </g>
   <g id="matplotlib.axis_1">
    <g id="xtick_1">
     <g id="line2d_1">
      <defs>
       <path d="M 0 0 
L 0 3.5 
" id="m23e172f068" style="stroke:#000000;stroke-width:0.8;"/>
      </defs>
      <g>
       <use style="stroke:#000000;stroke-width:0.8;" x="156.696349" xlink:href="#m23e172f068" y="501.738984"/>
      </g>
     </g>
     <g id="text_1">
      <!-- 2020-04 -->
      <defs>
       <path d="M 19.1875 8.296875 
L 53.609375 8.296875 
L 53.609375 0 
L 7.328125 0 
L 7.328125 8.296875 
Q 12.9375 14.109375 22.625 23.890625 
Q 32.328125 33.6875 34.8125 36.53125 
Q 39.546875 41.84375 41.421875 45.53125 
Q 43.3125 49.21875 43.3125 52.78125 
Q 43.3125 58.59375 39.234375 62.25 
Q 35.15625 65.921875 28.609375 65.921875 
Q 23.96875 65.921875 18.8125 64.3125 
Q 13.671875 62.703125 7.8125 59.421875 
L 7.8125 69.390625 
Q 13.765625 71.78125 18.9375 73 
Q 24.125 74.21875 28.421875 74.21875 
Q 39.75 74.21875 46.484375 68.546875 
Q 53.21875 62.890625 53.21875 53.421875 
Q 53.21875 48.921875 51.53125 44.890625 
Q 49.859375 40.875 45.40625 35.40625 
Q 44.1875 33.984375 37.640625 27.21875 
Q 31.109375 20.453125 19.1875 8.296875 
z
" id="DejaVuSans-50"/>
       <path d="M 31.78125 66.40625 
Q 24.171875 66.40625 20.328125 58.90625 
Q 16.5 51.421875 16.5 36.375 
Q 16.5 21.390625 20.328125 13.890625 
Q 24.171875 6.390625 31.78125 6.390625 
Q 39.453125 6.390625 43.28125 13.890625 
Q 47.125 21.390625 47.125 36.375 
Q 47.125 51.421875 43.28125 58.90625 
Q 39.453125 66.40625 31.78125 66.40625 
z
M 31.78125 74.21875 
Q 44.046875 74.21875 50.515625 64.515625 
Q 56.984375 54.828125 56.984375 36.375 
Q 56.984375 17.96875 50.515625 8.265625 
Q 44.046875 -1.421875 31.78125 -1.421875 
Q 19.53125 -1.421875 13.0625 8.265625 
Q 6.59375 17.96875 6.59375 36.375 
Q 6.59375 54.828125 13.0625 64.515625 
Q 19.53125 74.21875 31.78125 74.21875 
z
" id="DejaVuSans-48"/>
       <path d="M 4.890625 31.390625 
L 31.203125 31.390625 
L 31.203125 23.390625 
L 4.890625 23.390625 
z
" id="DejaVuSans-45"/>
       <path d="M 37.796875 64.3125 
L 12.890625 25.390625 
L 37.796875 25.390625 
z
M 35.203125 72.90625 
L 47.609375 72.90625 
L 47.609375 25.390625 
L 58.015625 25.390625 
L 58.015625 17.1875 
L 47.609375 17.1875 
L 47.609375 0 
L 37.796875 0 
L 37.796875 17.1875 
L 4.890625 17.1875 
L 4.890625 26.703125 
z
" id="DejaVuSans-52"/>
      </defs>
      <g transform="translate(108.304082 544.452384)rotate(-30)scale(0.13 -0.13)">
       <use xlink:href="#DejaVuSans-50"/>
       <use x="63.623047" xlink:href="#DejaVuSans-48"/>
       <use x="127.246094" xlink:href="#DejaVuSans-50"/>
       <use x="190.869141" xlink:href="#DejaVuSans-48"/>
       <use x="254.492188" xlink:href="#DejaVuSans-45"/>
       <use x="290.576172" xlink:href="#DejaVuSans-48"/>
       <use x="354.199219" xlink:href="#DejaVuSans-52"/>
      </g>
     </g>
    </g>
    <g id="xtick_2">
     <g id="line2d_2">
      <g>
       <use style="stroke:#000000;stroke-width:0.8;" x="300.264102" xlink:href="#m23e172f068" y="501.738984"/>
      </g>
     </g>
     <g id="text_2">
      <!-- 2020-05 -->
      <defs>
       <path d="M 10.796875 72.90625 
L 49.515625 72.90625 
L 49.515625 64.59375 
L 19.828125 64.59375 
L 19.828125 46.734375 
Q 21.96875 47.46875 24.109375 47.828125 
Q 26.265625 48.1875 28.421875 48.1875 
Q 40.625 48.1875 47.75 41.5 
Q 54.890625 34.8125 54.890625 23.390625 
Q 54.890625 11.625 47.5625 5.09375 
Q 40.234375 -1.421875 26.90625 -1.421875 
Q 22.3125 -1.421875 17.546875 -0.640625 
Q 12.796875 0.140625 7.71875 1.703125 
L 7.71875 11.625 
Q 12.109375 9.234375 16.796875 8.0625 
Q 21.484375 6.890625 26.703125 6.890625 
Q 35.15625 6.890625 40.078125 11.328125 
Q 45.015625 15.765625 45.015625 23.390625 
Q 45.015625 31 40.078125 35.4375 
Q 35.15625 39.890625 26.703125 39.890625 
Q 22.75 39.890625 18.8125 39.015625 
Q 14.890625 38.140625 10.796875 36.28125 
z
" id="DejaVuSans-53"/>
      </defs>
      <g transform="translate(251.871835 544.452384)rotate(-30)scale(0.13 -0.13)">
       <use xlink:href="#DejaVuSans-50"/>
       <use x="63.623047" xlink:href="#DejaVuSans-48"/>
       <use x="127.246094" xlink:href="#DejaVuSans-50"/>
       <use x="190.869141" xlink:href="#DejaVuSans-48"/>
       <use x="254.492188" xlink:href="#DejaVuSans-45"/>
       <use x="290.576172" xlink:href="#DejaVuSans-48"/>
       <use x="354.199219" xlink:href="#DejaVuSans-53"/>
      </g>
     </g>
    </g>
    <g id="xtick_3">
     <g id="line2d_3">
      <g>
       <use style="stroke:#000000;stroke-width:0.8;" x="448.617446" xlink:href="#m23e172f068" y="501.738984"/>
      </g>
     </g>
     <g id="text_3">
      <!-- 2020-06 -->
      <defs>
       <path d="M 33.015625 40.375 
Q 26.375 40.375 22.484375 35.828125 
Q 18.609375 31.296875 18.609375 23.390625 
Q 18.609375 15.53125 22.484375 10.953125 
Q 26.375 6.390625 33.015625 6.390625 
Q 39.65625 6.390625 43.53125 10.953125 
Q 47.40625 15.53125 47.40625 23.390625 
Q 47.40625 31.296875 43.53125 35.828125 
Q 39.65625 40.375 33.015625 40.375 
z
M 52.59375 71.296875 
L 52.59375 62.3125 
Q 48.875 64.0625 45.09375 64.984375 
Q 41.3125 65.921875 37.59375 65.921875 
Q 27.828125 65.921875 22.671875 59.328125 
Q 17.53125 52.734375 16.796875 39.40625 
Q 19.671875 43.65625 24.015625 45.921875 
Q 28.375 48.1875 33.59375 48.1875 
Q 44.578125 48.1875 50.953125 41.515625 
Q 57.328125 34.859375 57.328125 23.390625 
Q 57.328125 12.15625 50.6875 5.359375 
Q 44.046875 -1.421875 33.015625 -1.421875 
Q 20.359375 -1.421875 13.671875 8.265625 
Q 6.984375 17.96875 6.984375 36.375 
Q 6.984375 53.65625 15.1875 63.9375 
Q 23.390625 74.21875 37.203125 74.21875 
Q 40.921875 74.21875 44.703125 73.484375 
Q 48.484375 72.75 52.59375 71.296875 
z
" id="DejaVuSans-54"/>
      </defs>
      <g transform="translate(400.225179 544.452384)rotate(-30)scale(0.13 -0.13)">
       <use xlink:href="#DejaVuSans-50"/>
       <use x="63.623047" xlink:href="#DejaVuSans-48"/>
       <use x="127.246094" xlink:href="#DejaVuSans-50"/>
       <use x="190.869141" xlink:href="#DejaVuSans-48"/>
       <use x="254.492188" xlink:href="#DejaVuSans-45"/>
       <use x="290.576172" xlink:href="#DejaVuSans-48"/>
       <use x="354.199219" xlink:href="#DejaVuSans-54"/>
      </g>
     </g>
    </g>
    <g id="xtick_4">
     <g id="line2d_4">
      <g>
       <use style="stroke:#000000;stroke-width:0.8;" x="592.185199" xlink:href="#m23e172f068" y="501.738984"/>
      </g>
     </g>
     <g id="text_4">
      <!-- 2020-07 -->
      <defs>
       <path d="M 8.203125 72.90625 
L 55.078125 72.90625 
L 55.078125 68.703125 
L 28.609375 0 
L 18.3125 0 
L 43.21875 64.59375 
L 8.203125 64.59375 
z
" id="DejaVuSans-55"/>
      </defs>
      <g transform="translate(543.792932 544.452384)rotate(-30)scale(0.13 -0.13)">
       <use xlink:href="#DejaVuSans-50"/>
       <use x="63.623047" xlink:href="#DejaVuSans-48"/>
       <use x="127.246094" xlink:href="#DejaVuSans-50"/>
       <use x="190.869141" xlink:href="#DejaVuSans-48"/>
       <use x="254.492188" xlink:href="#DejaVuSans-45"/>
       <use x="290.576172" xlink:href="#DejaVuSans-48"/>
       <use x="354.199219" xlink:href="#DejaVuSans-55"/>
      </g>
     </g>
    </g>
    <g id="xtick_5">
     <g id="line2d_5">
      <g>
       <use style="stroke:#000000;stroke-width:0.8;" x="740.538544" xlink:href="#m23e172f068" y="501.738984"/>
      </g>
     </g>
     <g id="text_5">
      <!-- 2020-08 -->
      <defs>
       <path d="M 31.78125 34.625 
Q 24.75 34.625 20.71875 30.859375 
Q 16.703125 27.09375 16.703125 20.515625 
Q 16.703125 13.921875 20.71875 10.15625 
Q 24.75 6.390625 31.78125 6.390625 
Q 38.8125 6.390625 42.859375 10.171875 
Q 46.921875 13.96875 46.921875 20.515625 
Q 46.921875 27.09375 42.890625 30.859375 
Q 38.875 34.625 31.78125 34.625 
z
M 21.921875 38.8125 
Q 15.578125 40.375 12.03125 44.71875 
Q 8.5 49.078125 8.5 55.328125 
Q 8.5 64.0625 14.71875 69.140625 
Q 20.953125 74.21875 31.78125 74.21875 
Q 42.671875 74.21875 48.875 69.140625 
Q 55.078125 64.0625 55.078125 55.328125 
Q 55.078125 49.078125 51.53125 44.71875 
Q 48 40.375 41.703125 38.8125 
Q 48.828125 37.15625 52.796875 32.3125 
Q 56.78125 27.484375 56.78125 20.515625 
Q 56.78125 9.90625 50.3125 4.234375 
Q 43.84375 -1.421875 31.78125 -1.421875 
Q 19.734375 -1.421875 13.25 4.234375 
Q 6.78125 9.90625 6.78125 20.515625 
Q 6.78125 27.484375 10.78125 32.3125 
Q 14.796875 37.15625 21.921875 38.8125 
z
M 18.3125 54.390625 
Q 18.3125 48.734375 21.84375 45.5625 
Q 25.390625 42.390625 31.78125 42.390625 
Q 38.140625 42.390625 41.71875 45.5625 
Q 45.3125 48.734375 45.3125 54.390625 
Q 45.3125 60.0625 41.71875 63.234375 
Q 38.140625 66.40625 31.78125 66.40625 
Q 25.390625 66.40625 21.84375 63.234375 
Q 18.3125 60.0625 18.3125 54.390625 
z
" id="DejaVuSans-56"/>
      </defs>
      <g transform="translate(692.146277 544.452384)rotate(-30)scale(0.13 -0.13)">
       <use xlink:href="#DejaVuSans-50"/>
       <use x="63.623047" xlink:href="#DejaVuSans-48"/>
       <use x="127.246094" xlink:href="#DejaVuSans-50"/>
       <use x="190.869141" xlink:href="#DejaVuSans-48"/>
       <use x="254.492188" xlink:href="#DejaVuSans-45"/>
       <use x="290.576172" xlink:href="#DejaVuSans-48"/>
       <use x="354.199219" xlink:href="#DejaVuSans-56"/>
      </g>
     </g>
    </g>
    <g id="xtick_6">
     <g id="line2d_6">
      <g>
       <use style="stroke:#000000;stroke-width:0.8;" x="888.891889" xlink:href="#m23e172f068" y="501.738984"/>
      </g>
     </g>
     <g id="text_6">
      <!-- 2020-09 -->
      <defs>
       <path d="M 10.984375 1.515625 
L 10.984375 10.5 
Q 14.703125 8.734375 18.5 7.8125 
Q 22.3125 6.890625 25.984375 6.890625 
Q 35.75 6.890625 40.890625 13.453125 
Q 46.046875 20.015625 46.78125 33.40625 
Q 43.953125 29.203125 39.59375 26.953125 
Q 35.25 24.703125 29.984375 24.703125 
Q 19.046875 24.703125 12.671875 31.3125 
Q 6.296875 37.9375 6.296875 49.421875 
Q 6.296875 60.640625 12.9375 67.421875 
Q 19.578125 74.21875 30.609375 74.21875 
Q 43.265625 74.21875 49.921875 64.515625 
Q 56.59375 54.828125 56.59375 36.375 
Q 56.59375 19.140625 48.40625 8.859375 
Q 40.234375 -1.421875 26.421875 -1.421875 
Q 22.703125 -1.421875 18.890625 -0.6875 
Q 15.09375 0.046875 10.984375 1.515625 
z
M 30.609375 32.421875 
Q 37.25 32.421875 41.125 36.953125 
Q 45.015625 41.5 45.015625 49.421875 
Q 45.015625 57.28125 41.125 61.84375 
Q 37.25 66.40625 30.609375 66.40625 
Q 23.96875 66.40625 20.09375 61.84375 
Q 16.21875 57.28125 16.21875 49.421875 
Q 16.21875 41.5 20.09375 36.953125 
Q 23.96875 32.421875 30.609375 32.421875 
z
" id="DejaVuSans-57"/>
      </defs>
      <g transform="translate(840.499622 544.452384)rotate(-30)scale(0.13 -0.13)">
       <use xlink:href="#DejaVuSans-50"/>
       <use x="63.623047" xlink:href="#DejaVuSans-48"/>
       <use x="127.246094" xlink:href="#DejaVuSans-50"/>
       <use x="190.869141" xlink:href="#DejaVuSans-48"/>
       <use x="254.492188" xlink:href="#DejaVuSans-45"/>
       <use x="290.576172" xlink:href="#DejaVuSans-48"/>
       <use x="354.199219" xlink:href="#DejaVuSans-57"/>
      </g>
     </g>
    </g>
    <g id="xtick_7">
     <g id="line2d_7">
      <g>
       <use style="stroke:#000000;stroke-width:0.8;" x="1032.459642" xlink:href="#m23e172f068" y="501.738984"/>
      </g>
     </g>
     <g id="text_7">
      <!-- 2020-10 -->
      <defs>
       <path d="M 12.40625 8.296875 
L 28.515625 8.296875 
L 28.515625 63.921875 
L 10.984375 60.40625 
L 10.984375 69.390625 
L 28.421875 72.90625 
L 38.28125 72.90625 
L 38.28125 8.296875 
L 54.390625 8.296875 
L 54.390625 0 
L 12.40625 0 
z
" id="DejaVuSans-49"/>
      </defs>
      <g transform="translate(984.067375 544.452384)rotate(-30)scale(0.13 -0.13)">
       <use xlink:href="#DejaVuSans-50"/>
       <use x="63.623047" xlink:href="#DejaVuSans-48"/>
       <use x="127.246094" xlink:href="#DejaVuSans-50"/>
       <use x="190.869141" xlink:href="#DejaVuSans-48"/>
       <use x="254.492188" xlink:href="#DejaVuSans-45"/>
       <use x="290.576172" xlink:href="#DejaVuSans-49"/>
       <use x="354.199219" xlink:href="#DejaVuSans-48"/>
      </g>
     </g>
    </g>
   </g>
   <g id="matplotlib.axis_2">
    <g id="ytick_1">
     <g id="line2d_8">
      <path clip-path="url(#p324d5f5321)" d="M 62.89875 481.342434 
L 1178.89875 481.342434 
" style="fill:none;stroke:#b0b0b0;stroke-linecap:square;stroke-width:0.8;"/>
     </g>
     <g id="line2d_9">
      <defs>
       <path d="M 0 0 
L -3.5 0 
" id="mfd152fb837" style="stroke:#000000;stroke-width:0.8;"/>
      </defs>
      <g>
       <use style="stroke:#000000;stroke-width:0.8;" x="62.89875" xlink:href="#mfd152fb837" y="481.342434"/>
      </g>
     </g>
     <g id="text_8">
      <!-- 0 -->
      <g transform="translate(47.6275 486.281419)scale(0.13 -0.13)">
       <use xlink:href="#DejaVuSans-48"/>
      </g>
     </g>
    </g>
    <g id="ytick_2">
     <g id="line2d_10">
      <path clip-path="url(#p324d5f5321)" d="M 62.89875 453.742231 
L 1178.89875 453.742231 
" style="fill:none;stroke:#b0b0b0;stroke-linecap:square;stroke-width:0.8;"/>
     </g>
     <g id="line2d_11">
      <g>
       <use style="stroke:#000000;stroke-width:0.8;" x="62.89875" xlink:href="#mfd152fb837" y="453.742231"/>
      </g>
     </g>
     <g id="text_9">
      <!-- 100 -->
      <g transform="translate(31.085 458.681216)scale(0.13 -0.13)">
       <use xlink:href="#DejaVuSans-49"/>
       <use x="63.623047" xlink:href="#DejaVuSans-48"/>
       <use x="127.246094" xlink:href="#DejaVuSans-48"/>
      </g>
     </g>
    </g>
    <g id="ytick_3">
     <g id="line2d_12">
      <path clip-path="url(#p324d5f5321)" d="M 62.89875 426.142029 
L 1178.89875 426.142029 
" style="fill:none;stroke:#b0b0b0;stroke-linecap:square;stroke-width:0.8;"/>
     </g>
     <g id="line2d_13">
      <g>
       <use style="stroke:#000000;stroke-width:0.8;" x="62.89875" xlink:href="#mfd152fb837" y="426.142029"/>
      </g>
     </g>
     <g id="text_10">
      <!-- 200 -->
      <g transform="translate(31.085 431.081013)scale(0.13 -0.13)">
       <use xlink:href="#DejaVuSans-50"/>
       <use x="63.623047" xlink:href="#DejaVuSans-48"/>
       <use x="127.246094" xlink:href="#DejaVuSans-48"/>
      </g>
     </g>
    </g>
    <g id="ytick_4">
     <g id="line2d_14">
      <path clip-path="url(#p324d5f5321)" d="M 62.89875 398.541826 
L 1178.89875 398.541826 
" style="fill:none;stroke:#b0b0b0;stroke-linecap:square;stroke-width:0.8;"/>
     </g>
     <g id="line2d_15">
      <g>
       <use style="stroke:#000000;stroke-width:0.8;" x="62.89875" xlink:href="#mfd152fb837" y="398.541826"/>
      </g>
     </g>
     <g id="text_11">
      <!-- 300 -->
      <defs>
       <path d="M 40.578125 39.3125 
Q 47.65625 37.796875 51.625 33 
Q 55.609375 28.21875 55.609375 21.1875 
Q 55.609375 10.40625 48.1875 4.484375 
Q 40.765625 -1.421875 27.09375 -1.421875 
Q 22.515625 -1.421875 17.65625 -0.515625 
Q 12.796875 0.390625 7.625 2.203125 
L 7.625 11.71875 
Q 11.71875 9.328125 16.59375 8.109375 
Q 21.484375 6.890625 26.8125 6.890625 
Q 36.078125 6.890625 40.9375 10.546875 
Q 45.796875 14.203125 45.796875 21.1875 
Q 45.796875 27.640625 41.28125 31.265625 
Q 36.765625 34.90625 28.71875 34.90625 
L 20.21875 34.90625 
L 20.21875 43.015625 
L 29.109375 43.015625 
Q 36.375 43.015625 40.234375 45.921875 
Q 44.09375 48.828125 44.09375 54.296875 
Q 44.09375 59.90625 40.109375 62.90625 
Q 36.140625 65.921875 28.71875 65.921875 
Q 24.65625 65.921875 20.015625 65.03125 
Q 15.375 64.15625 9.8125 62.3125 
L 9.8125 71.09375 
Q 15.4375 72.65625 20.34375 73.4375 
Q 25.25 74.21875 29.59375 74.21875 
Q 40.828125 74.21875 47.359375 69.109375 
Q 53.90625 64.015625 53.90625 55.328125 
Q 53.90625 49.265625 50.4375 45.09375 
Q 46.96875 40.921875 40.578125 39.3125 
z
" id="DejaVuSans-51"/>
      </defs>
      <g transform="translate(31.085 403.48081)scale(0.13 -0.13)">
       <use xlink:href="#DejaVuSans-51"/>
       <use x="63.623047" xlink:href="#DejaVuSans-48"/>
       <use x="127.246094" xlink:href="#DejaVuSans-48"/>
      </g>
     </g>
    </g>
    <g id="ytick_5">
     <g id="line2d_16">
      <path clip-path="url(#p324d5f5321)" d="M 62.89875 370.941623 
L 1178.89875 370.941623 
" style="fill:none;stroke:#b0b0b0;stroke-linecap:square;stroke-width:0.8;"/>
     </g>
     <g id="line2d_17">
      <g>
       <use style="stroke:#000000;stroke-width:0.8;" x="62.89875" xlink:href="#mfd152fb837" y="370.941623"/>
      </g>
     </g>
     <g id="text_12">
      <!-- 400 -->
      <g transform="translate(31.085 375.880607)scale(0.13 -0.13)">
       <use xlink:href="#DejaVuSans-52"/>
       <use x="63.623047" xlink:href="#DejaVuSans-48"/>
       <use x="127.246094" xlink:href="#DejaVuSans-48"/>
      </g>
     </g>
    </g>
    <g id="ytick_6">
     <g id="line2d_18">
      <path clip-path="url(#p324d5f5321)" d="M 62.89875 343.34142 
L 1178.89875 343.34142 
" style="fill:none;stroke:#b0b0b0;stroke-linecap:square;stroke-width:0.8;"/>
     </g>
     <g id="line2d_19">
      <g>
       <use style="stroke:#000000;stroke-width:0.8;" x="62.89875" xlink:href="#mfd152fb837" y="343.34142"/>
      </g>
     </g>
     <g id="text_13">
      <!-- 500 -->
      <g transform="translate(31.085 348.280404)scale(0.13 -0.13)">
       <use xlink:href="#DejaVuSans-53"/>
       <use x="63.623047" xlink:href="#DejaVuSans-48"/>
       <use x="127.246094" xlink:href="#DejaVuSans-48"/>
      </g>
     </g>
    </g>
    <g id="ytick_7">
     <g id="line2d_20">
      <path clip-path="url(#p324d5f5321)" d="M 62.89875 315.741217 
L 1178.89875 315.741217 
" style="fill:none;stroke:#b0b0b0;stroke-linecap:square;stroke-width:0.8;"/>
     </g>
     <g id="line2d_21">
      <g>
       <use style="stroke:#000000;stroke-width:0.8;" x="62.89875" xlink:href="#mfd152fb837" y="315.741217"/>
      </g>
     </g>
     <g id="text_14">
      <!-- 600 -->
      <g transform="translate(31.085 320.680201)scale(0.13 -0.13)">
       <use xlink:href="#DejaVuSans-54"/>
       <use x="63.623047" xlink:href="#DejaVuSans-48"/>
       <use x="127.246094" xlink:href="#DejaVuSans-48"/>
      </g>
     </g>
    </g>
    <g id="ytick_8">
     <g id="line2d_22">
      <path clip-path="url(#p324d5f5321)" d="M 62.89875 288.141014 
L 1178.89875 288.141014 
" style="fill:none;stroke:#b0b0b0;stroke-linecap:square;stroke-width:0.8;"/>
     </g>
     <g id="line2d_23">
      <g>
       <use style="stroke:#000000;stroke-width:0.8;" x="62.89875" xlink:href="#mfd152fb837" y="288.141014"/>
      </g>
     </g>
     <g id="text_15">
      <!-- 700 -->
      <g transform="translate(31.085 293.079998)scale(0.13 -0.13)">
       <use xlink:href="#DejaVuSans-55"/>
       <use x="63.623047" xlink:href="#DejaVuSans-48"/>
       <use x="127.246094" xlink:href="#DejaVuSans-48"/>
      </g>
     </g>
    </g>
    <g id="ytick_9">
     <g id="line2d_24">
      <path clip-path="url(#p324d5f5321)" d="M 62.89875 260.540811 
L 1178.89875 260.540811 
" style="fill:none;stroke:#b0b0b0;stroke-linecap:square;stroke-width:0.8;"/>
     </g>
     <g id="line2d_25">
      <g>
       <use style="stroke:#000000;stroke-width:0.8;" x="62.89875" xlink:href="#mfd152fb837" y="260.540811"/>
      </g>
     </g>
     <g id="text_16">
      <!-- 800 -->
      <g transform="translate(31.085 265.479795)scale(0.13 -0.13)">
       <use xlink:href="#DejaVuSans-56"/>
       <use x="63.623047" xlink:href="#DejaVuSans-48"/>
       <use x="127.246094" xlink:href="#DejaVuSans-48"/>
      </g>
     </g>
    </g>
    <g id="ytick_10">
     <g id="line2d_26">
      <path clip-path="url(#p324d5f5321)" d="M 62.89875 232.940608 
L 1178.89875 232.940608 
" style="fill:none;stroke:#b0b0b0;stroke-linecap:square;stroke-width:0.8;"/>
     </g>
     <g id="line2d_27">
      <g>
       <use style="stroke:#000000;stroke-width:0.8;" x="62.89875" xlink:href="#mfd152fb837" y="232.940608"/>
      </g>
     </g>
     <g id="text_17">
      <!-- 900 -->
      <g transform="translate(31.085 237.879592)scale(0.13 -0.13)">
       <use xlink:href="#DejaVuSans-57"/>
       <use x="63.623047" xlink:href="#DejaVuSans-48"/>
       <use x="127.246094" xlink:href="#DejaVuSans-48"/>
      </g>
     </g>
    </g>
    <g id="ytick_11">
     <g id="line2d_28">
      <path clip-path="url(#p324d5f5321)" d="M 62.89875 205.340405 
L 1178.89875 205.340405 
" style="fill:none;stroke:#b0b0b0;stroke-linecap:square;stroke-width:0.8;"/>
     </g>
     <g id="line2d_29">
      <g>
       <use style="stroke:#000000;stroke-width:0.8;" x="62.89875" xlink:href="#mfd152fb837" y="205.340405"/>
      </g>
     </g>
     <g id="text_18">
      <!-- 1000 -->
      <g transform="translate(22.81375 210.279389)scale(0.13 -0.13)">
       <use xlink:href="#DejaVuSans-49"/>
       <use x="63.623047" xlink:href="#DejaVuSans-48"/>
       <use x="127.246094" xlink:href="#DejaVuSans-48"/>
       <use x="190.869141" xlink:href="#DejaVuSans-48"/>
      </g>
     </g>
    </g>
    <g id="ytick_12">
     <g id="line2d_30">
      <path clip-path="url(#p324d5f5321)" d="M 62.89875 177.740202 
L 1178.89875 177.740202 
" style="fill:none;stroke:#b0b0b0;stroke-linecap:square;stroke-width:0.8;"/>
     </g>
     <g id="line2d_31">
      <g>
       <use style="stroke:#000000;stroke-width:0.8;" x="62.89875" xlink:href="#mfd152fb837" y="177.740202"/>
      </g>
     </g>
     <g id="text_19">
      <!-- 1100 -->
      <g transform="translate(22.81375 182.679186)scale(0.13 -0.13)">
       <use xlink:href="#DejaVuSans-49"/>
       <use x="63.623047" xlink:href="#DejaVuSans-49"/>
       <use x="127.246094" xlink:href="#DejaVuSans-48"/>
       <use x="190.869141" xlink:href="#DejaVuSans-48"/>
      </g>
     </g>
    </g>
    <g id="ytick_13">
     <g id="line2d_32">
      <path clip-path="url(#p324d5f5321)" d="M 62.89875 150.139999 
L 1178.89875 150.139999 
" style="fill:none;stroke:#b0b0b0;stroke-linecap:square;stroke-width:0.8;"/>
     </g>
     <g id="line2d_33">
      <g>
       <use style="stroke:#000000;stroke-width:0.8;" x="62.89875" xlink:href="#mfd152fb837" y="150.139999"/>
      </g>
     </g>
     <g id="text_20">
      <!-- 1200 -->
      <g transform="translate(22.81375 155.078983)scale(0.13 -0.13)">
       <use xlink:href="#DejaVuSans-49"/>
       <use x="63.623047" xlink:href="#DejaVuSans-50"/>
       <use x="127.246094" xlink:href="#DejaVuSans-48"/>
       <use x="190.869141" xlink:href="#DejaVuSans-48"/>
      </g>
     </g>
    </g>
    <g id="ytick_14">
     <g id="line2d_34">
      <path clip-path="url(#p324d5f5321)" d="M 62.89875 122.539796 
L 1178.89875 122.539796 
" style="fill:none;stroke:#b0b0b0;stroke-linecap:square;stroke-width:0.8;"/>
     </g>
     <g id="line2d_35">
      <g>
       <use style="stroke:#000000;stroke-width:0.8;" x="62.89875" xlink:href="#mfd152fb837" y="122.539796"/>
      </g>
     </g>
     <g id="text_21">
      <!-- 1300 -->
      <g transform="translate(22.81375 127.478781)scale(0.13 -0.13)">
       <use xlink:href="#DejaVuSans-49"/>
       <use x="63.623047" xlink:href="#DejaVuSans-51"/>
       <use x="127.246094" xlink:href="#DejaVuSans-48"/>
       <use x="190.869141" xlink:href="#DejaVuSans-48"/>
      </g>
     </g>
    </g>
    <g id="ytick_15">
     <g id="line2d_36">
      <path clip-path="url(#p324d5f5321)" d="M 62.89875 94.939593 
L 1178.89875 94.939593 
" style="fill:none;stroke:#b0b0b0;stroke-linecap:square;stroke-width:0.8;"/>
     </g>
     <g id="line2d_37">
      <g>
       <use style="stroke:#000000;stroke-width:0.8;" x="62.89875" xlink:href="#mfd152fb837" y="94.939593"/>
      </g>
     </g>
     <g id="text_22">
      <!-- 1400 -->
      <g transform="translate(22.81375 99.878578)scale(0.13 -0.13)">
       <use xlink:href="#DejaVuSans-49"/>
       <use x="63.623047" xlink:href="#DejaVuSans-52"/>
       <use x="127.246094" xlink:href="#DejaVuSans-48"/>
       <use x="190.869141" xlink:href="#DejaVuSans-48"/>
      </g>
     </g>
    </g>
    <g id="ytick_16">
     <g id="line2d_38">
      <path clip-path="url(#p324d5f5321)" d="M 62.89875 67.33939 
L 1178.89875 67.33939 
" style="fill:none;stroke:#b0b0b0;stroke-linecap:square;stroke-width:0.8;"/>
     </g>
     <g id="line2d_39">
      <g>
       <use style="stroke:#000000;stroke-width:0.8;" x="62.89875" xlink:href="#mfd152fb837" y="67.33939"/>
      </g>
     </g>
     <g id="text_23">
      <!-- 1500 -->
      <g transform="translate(22.81375 72.278375)scale(0.13 -0.13)">
       <use xlink:href="#DejaVuSans-49"/>
       <use x="63.623047" xlink:href="#DejaVuSans-53"/>
       <use x="127.246094" xlink:href="#DejaVuSans-48"/>
       <use x="190.869141" xlink:href="#DejaVuSans-48"/>
      </g>
     </g>
    </g>
    <g id="ytick_17">
     <g id="line2d_40">
      <path clip-path="url(#p324d5f5321)" d="M 62.89875 39.739187 
L 1178.89875 39.739187 
" style="fill:none;stroke:#b0b0b0;stroke-linecap:square;stroke-width:0.8;"/>
     </g>
     <g id="line2d_41">
      <g>
       <use style="stroke:#000000;stroke-width:0.8;" x="62.89875" xlink:href="#mfd152fb837" y="39.739187"/>
      </g>
     </g>
     <g id="text_24">
      <!-- 1600 -->
      <g transform="translate(22.81375 44.678172)scale(0.13 -0.13)">
       <use xlink:href="#DejaVuSans-49"/>
       <use x="63.623047" xlink:href="#DejaVuSans-54"/>
       <use x="127.246094" xlink:href="#DejaVuSans-48"/>
       <use x="190.869141" xlink:href="#DejaVuSans-48"/>
      </g>
     </g>
    </g>
    <g id="ytick_18">
     <g id="line2d_42">
      <path clip-path="url(#p324d5f5321)" d="M 62.89875 12.138984 
L 1178.89875 12.138984 
" style="fill:none;stroke:#b0b0b0;stroke-linecap:square;stroke-width:0.8;"/>
     </g>
     <g id="line2d_43">
      <g>
       <use style="stroke:#000000;stroke-width:0.8;" x="62.89875" xlink:href="#mfd152fb837" y="12.138984"/>
      </g>
     </g>
     <g id="text_25">
      <!-- 1700 -->
      <g transform="translate(22.81375 17.077969)scale(0.13 -0.13)">
       <use xlink:href="#DejaVuSans-49"/>
       <use x="63.623047" xlink:href="#DejaVuSans-55"/>
       <use x="127.246094" xlink:href="#DejaVuSans-48"/>
       <use x="190.869141" xlink:href="#DejaVuSans-48"/>
      </g>
     </g>
    </g>
    <g id="text_26">
     <!-- Anzahl von Fällen -->
     <defs>
      <path d="M 34.1875 63.1875 
L 20.796875 26.90625 
L 47.609375 26.90625 
z
M 28.609375 72.90625 
L 39.796875 72.90625 
L 67.578125 0 
L 57.328125 0 
L 50.6875 18.703125 
L 17.828125 18.703125 
L 11.1875 0 
L 0.78125 0 
z
" id="DejaVuSans-65"/>
      <path d="M 54.890625 33.015625 
L 54.890625 0 
L 45.90625 0 
L 45.90625 32.71875 
Q 45.90625 40.484375 42.875 44.328125 
Q 39.84375 48.1875 33.796875 48.1875 
Q 26.515625 48.1875 22.3125 43.546875 
Q 18.109375 38.921875 18.109375 30.90625 
L 18.109375 0 
L 9.078125 0 
L 9.078125 54.6875 
L 18.109375 54.6875 
L 18.109375 46.1875 
Q 21.34375 51.125 25.703125 53.5625 
Q 30.078125 56 35.796875 56 
Q 45.21875 56 50.046875 50.171875 
Q 54.890625 44.34375 54.890625 33.015625 
z
" id="DejaVuSans-110"/>
      <path d="M 5.515625 54.6875 
L 48.1875 54.6875 
L 48.1875 46.484375 
L 14.40625 7.171875 
L 48.1875 7.171875 
L 48.1875 0 
L 4.296875 0 
L 4.296875 8.203125 
L 38.09375 47.515625 
L 5.515625 47.515625 
z
" id="DejaVuSans-122"/>
      <path d="M 34.28125 27.484375 
Q 23.390625 27.484375 19.1875 25 
Q 14.984375 22.515625 14.984375 16.5 
Q 14.984375 11.71875 18.140625 8.90625 
Q 21.296875 6.109375 26.703125 6.109375 
Q 34.1875 6.109375 38.703125 11.40625 
Q 43.21875 16.703125 43.21875 25.484375 
L 43.21875 27.484375 
z
M 52.203125 31.203125 
L 52.203125 0 
L 43.21875 0 
L 43.21875 8.296875 
Q 40.140625 3.328125 35.546875 0.953125 
Q 30.953125 -1.421875 24.3125 -1.421875 
Q 15.921875 -1.421875 10.953125 3.296875 
Q 6 8.015625 6 15.921875 
Q 6 25.140625 12.171875 29.828125 
Q 18.359375 34.515625 30.609375 34.515625 
L 43.21875 34.515625 
L 43.21875 35.40625 
Q 43.21875 41.609375 39.140625 45 
Q 35.0625 48.390625 27.6875 48.390625 
Q 23 48.390625 18.546875 47.265625 
Q 14.109375 46.140625 10.015625 43.890625 
L 10.015625 52.203125 
Q 14.9375 54.109375 19.578125 55.046875 
Q 24.21875 56 28.609375 56 
Q 40.484375 56 46.34375 49.84375 
Q 52.203125 43.703125 52.203125 31.203125 
z
" id="DejaVuSans-97"/>
      <path d="M 54.890625 33.015625 
L 54.890625 0 
L 45.90625 0 
L 45.90625 32.71875 
Q 45.90625 40.484375 42.875 44.328125 
Q 39.84375 48.1875 33.796875 48.1875 
Q 26.515625 48.1875 22.3125 43.546875 
Q 18.109375 38.921875 18.109375 30.90625 
L 18.109375 0 
L 9.078125 0 
L 9.078125 75.984375 
L 18.109375 75.984375 
L 18.109375 46.1875 
Q 21.34375 51.125 25.703125 53.5625 
Q 30.078125 56 35.796875 56 
Q 45.21875 56 50.046875 50.171875 
Q 54.890625 44.34375 54.890625 33.015625 
z
" id="DejaVuSans-104"/>
      <path d="M 9.421875 75.984375 
L 18.40625 75.984375 
L 18.40625 0 
L 9.421875 0 
z
" id="DejaVuSans-108"/>
      <path id="DejaVuSans-32"/>
      <path d="M 2.984375 54.6875 
L 12.5 54.6875 
L 29.59375 8.796875 
L 46.6875 54.6875 
L 56.203125 54.6875 
L 35.6875 0 
L 23.484375 0 
z
" id="DejaVuSans-118"/>
      <path d="M 30.609375 48.390625 
Q 23.390625 48.390625 19.1875 42.75 
Q 14.984375 37.109375 14.984375 27.296875 
Q 14.984375 17.484375 19.15625 11.84375 
Q 23.34375 6.203125 30.609375 6.203125 
Q 37.796875 6.203125 41.984375 11.859375 
Q 46.1875 17.53125 46.1875 27.296875 
Q 46.1875 37.015625 41.984375 42.703125 
Q 37.796875 48.390625 30.609375 48.390625 
z
M 30.609375 56 
Q 42.328125 56 49.015625 48.375 
Q 55.71875 40.765625 55.71875 27.296875 
Q 55.71875 13.875 49.015625 6.21875 
Q 42.328125 -1.421875 30.609375 -1.421875 
Q 18.84375 -1.421875 12.171875 6.21875 
Q 5.515625 13.875 5.515625 27.296875 
Q 5.515625 40.765625 12.171875 48.375 
Q 18.84375 56 30.609375 56 
z
" id="DejaVuSans-111"/>
      <path d="M 9.8125 72.90625 
L 51.703125 72.90625 
L 51.703125 64.59375 
L 19.671875 64.59375 
L 19.671875 43.109375 
L 48.578125 43.109375 
L 48.578125 34.8125 
L 19.671875 34.8125 
L 19.671875 0 
L 9.8125 0 
z
" id="DejaVuSans-70"/>
      <path d="M 34.28125 27.484375 
Q 23.390625 27.484375 19.1875 25 
Q 14.984375 22.515625 14.984375 16.5 
Q 14.984375 11.71875 18.140625 8.90625 
Q 21.296875 6.109375 26.703125 6.109375 
Q 34.1875 6.109375 38.703125 11.40625 
Q 43.21875 16.703125 43.21875 25.484375 
L 43.21875 27.484375 
z
M 52.203125 31.203125 
L 52.203125 0 
L 43.21875 0 
L 43.21875 8.296875 
Q 40.140625 3.328125 35.546875 0.953125 
Q 30.953125 -1.421875 24.3125 -1.421875 
Q 15.921875 -1.421875 10.953125 3.296875 
Q 6 8.015625 6 15.921875 
Q 6 25.140625 12.171875 29.828125 
Q 18.359375 34.515625 30.609375 34.515625 
L 43.21875 34.515625 
L 43.21875 35.40625 
Q 43.21875 41.609375 39.140625 45 
Q 35.0625 48.390625 27.6875 48.390625 
Q 23 48.390625 18.546875 47.265625 
Q 14.109375 46.140625 10.015625 43.890625 
L 10.015625 52.203125 
Q 14.9375 54.109375 19.578125 55.046875 
Q 24.21875 56 28.609375 56 
Q 40.484375 56 46.34375 49.84375 
Q 52.203125 43.703125 52.203125 31.203125 
z
M 33.59375 75.78125 
L 43.5 75.78125 
L 43.5 65.921875 
L 33.59375 65.921875 
z
M 14.5 75.78125 
L 24.40625 75.78125 
L 24.40625 65.921875 
L 14.5 65.921875 
z
" id="DejaVuSans-228"/>
      <path d="M 56.203125 29.59375 
L 56.203125 25.203125 
L 14.890625 25.203125 
Q 15.484375 15.921875 20.484375 11.0625 
Q 25.484375 6.203125 34.421875 6.203125 
Q 39.59375 6.203125 44.453125 7.46875 
Q 49.3125 8.734375 54.109375 11.28125 
L 54.109375 2.78125 
Q 49.265625 0.734375 44.1875 -0.34375 
Q 39.109375 -1.421875 33.890625 -1.421875 
Q 20.796875 -1.421875 13.15625 6.1875 
Q 5.515625 13.8125 5.515625 26.8125 
Q 5.515625 40.234375 12.765625 48.109375 
Q 20.015625 56 32.328125 56 
Q 43.359375 56 49.78125 48.890625 
Q 56.203125 41.796875 56.203125 29.59375 
z
M 47.21875 32.234375 
Q 47.125 39.59375 43.09375 43.984375 
Q 39.0625 48.390625 32.421875 48.390625 
Q 24.90625 48.390625 20.390625 44.140625 
Q 15.875 39.890625 15.1875 32.171875 
z
" id="DejaVuSans-101"/>
     </defs>
     <g transform="translate(16.318125 309.388359)rotate(-90)scale(0.12 -0.12)">
      <use xlink:href="#DejaVuSans-65"/>
      <use x="68.408203" xlink:href="#DejaVuSans-110"/>
      <use x="131.787109" xlink:href="#DejaVuSans-122"/>
      <use x="184.277344" xlink:href="#DejaVuSans-97"/>
      <use x="245.556641" xlink:href="#DejaVuSans-104"/>
      <use x="308.935547" xlink:href="#DejaVuSans-108"/>
      <use x="336.71875" xlink:href="#DejaVuSans-32"/>
      <use x="368.505859" xlink:href="#DejaVuSans-118"/>
      <use x="427.685547" xlink:href="#DejaVuSans-111"/>
      <use x="488.867188" xlink:href="#DejaVuSans-110"/>
      <use x="552.246094" xlink:href="#DejaVuSans-32"/>
      <use x="584.033203" xlink:href="#DejaVuSans-70"/>
      <use x="632.427734" xlink:href="#DejaVuSans-228"/>
      <use x="693.707031" xlink:href="#DejaVuSans-108"/>
      <use x="721.490234" xlink:href="#DejaVuSans-108"/>
      <use x="749.273438" xlink:href="#DejaVuSans-101"/>
      <use x="810.796875" xlink:href="#DejaVuSans-110"/>
     </g>
    </g>
   </g>
   <g id="line2d_44">
    <path clip-path="url(#p324d5f5321)" d="M 113.626023 480.79043 
L 118.411614 480.79043 
L 127.982798 480.238426 
L 147.125165 480.238426 
L 151.910757 476.926402 
L 156.696349 475.822394 
L 166.267532 475.27039 
L 171.053124 474.718386 
L 175.838716 474.442384 
L 180.624307 472.510369 
L 185.409899 471.406361 
L 194.981083 469.750349 
L 199.766675 469.474347 
L 204.552266 468.370339 
L 209.337858 467.818335 
L 218.909042 466.990329 
L 223.694633 455.122242 
L 228.480225 452.086219 
L 233.265817 449.602201 
L 247.622592 442.978152 
L 252.408184 439.114124 
L 257.193776 435.8021 
L 261.979367 428.074043 
L 266.764959 427.246037 
L 271.550551 424.210014 
L 281.121735 423.65801 
L 285.907326 420.345986 
L 290.692918 418.965976 
L 295.47851 418.689974 
L 305.049693 416.75796 
L 314.620877 416.481957 
L 319.406469 413.445935 
L 324.19206 413.445935 
L 328.977652 411.237919 
L 333.763244 410.133911 
L 338.548836 404.337868 
L 348.120019 404.061866 
L 352.905611 404.061866 
L 357.691203 402.405854 
L 362.476795 402.129852 
L 367.262386 400.749842 
L 381.619162 400.749842 
L 386.404753 392.469781 
L 391.190345 390.261765 
L 400.761529 390.261765 
L 405.54712 389.985763 
L 415.118304 389.985763 
L 419.903896 388.881755 
L 429.475079 385.293728 
L 434.260671 385.017726 
L 453.403038 384.465722 
L 458.18863 384.465722 
L 462.974222 383.913718 
L 467.759813 381.981704 
L 472.545405 380.877696 
L 482.116589 380.877696 
L 486.902181 380.04969 
L 491.687772 378.669679 
L 515.615731 378.669679 
L 525.186915 375.633657 
L 534.758098 372.873637 
L 539.54369 371.769629 
L 553.900465 371.769629 
L 558.686057 368.457604 
L 563.471649 367.353596 
L 573.042832 366.52559 
L 582.614016 366.52559 
L 587.399608 362.937564 
L 592.185199 361.833556 
L 596.970791 359.901541 
L 601.756383 357.141521 
L 620.89875 353.829497 
L 625.684342 352.725489 
L 630.469934 349.965468 
L 635.255525 349.413464 
L 649.612301 348.585458 
L 654.397892 347.205448 
L 659.183484 344.72143 
L 663.969076 343.34142 
L 668.754668 343.34142 
L 683.111443 341.96141 
L 687.897035 341.685408 
L 692.682627 339.753393 
L 697.468218 337.545377 
L 702.25381 336.165367 
L 716.610585 335.889365 
L 721.396177 334.509355 
L 726.181769 332.577341 
L 730.967361 329.81732 
L 735.752952 308.289162 
L 750.109728 328.989314 
L 754.895319 328.989314 
L 759.680911 325.125286 
L 764.466503 323.745276 
L 769.252095 323.469274 
L 788.394462 323.469274 
L 793.180054 313.809203 
L 797.965645 311.325184 
L 817.108012 311.325184 
L 821.893604 308.01316 
L 826.679196 307.185154 
L 831.464788 305.805144 
L 836.25038 299.733099 
L 855.392747 298.905093 
L 860.178338 287.037006 
L 864.96393 285.104991 
L 869.749522 284.828989 
L 884.106297 281.516965 
L 888.891889 280.688959 
L 893.677481 274.892916 
L 898.463072 273.236904 
L 903.248664 270.752886 
L 917.60544 269.648878 
L 922.391031 265.784849 
L 927.176623 264.956843 
L 931.962215 264.956843 
L 936.747807 260.816813 
L 951.104582 257.504789 
L 955.890174 257.504789 
L 960.675765 256.40078 
L 965.461357 256.124778 
L 970.246949 253.64076 
L 984.603724 253.64076 
L 989.389316 251.984748 
L 994.174908 248.396722 
L 998.9605 247.292713 
L 1003.746091 245.360699 
L 1018.102867 242.048675 
L 1022.888458 238.184646 
L 1027.67405 235.148624 
L 1032.459642 229.628584 
L 1037.245234 228.524575 
L 1051.602009 226.316559 
L 1056.387601 211.41245 
L 1061.173193 210.860446 
L 1065.958784 201.200375 
L 1070.744376 199.544362 
L 1085.101151 198.716356 
L 1089.886743 198.164352 
L 1123.385886 177.188198 
L 1128.171477 171.944159 
L 1128.171477 171.944159 
" style="fill:none;stroke:#dbcd00;stroke-linecap:square;stroke-width:2;"/>
    <defs>
     <path d="M 0 1.5 
C 0.397805 1.5 0.77937 1.341951 1.06066 1.06066 
C 1.341951 0.77937 1.5 0.397805 1.5 0 
C 1.5 -0.397805 1.341951 -0.77937 1.06066 -1.06066 
C 0.77937 -1.341951 0.397805 -1.5 0 -1.5 
C -0.397805 -1.5 -0.77937 -1.341951 -1.06066 -1.06066 
C -1.341951 -0.77937 -1.5 -0.397805 -1.5 0 
C -1.5 0.397805 -1.341951 0.77937 -1.06066 1.06066 
C -0.77937 1.341951 -0.397805 1.5 0 1.5 
z
" id="m5ae67a1279" style="stroke:#dbcd00;"/>
    </defs>
    <g clip-path="url(#p324d5f5321)">
     <use style="fill:#dbcd00;stroke:#dbcd00;" x="113.626023" xlink:href="#m5ae67a1279" y="480.79043"/>
     <use style="fill:#dbcd00;stroke:#dbcd00;" x="118.411614" xlink:href="#m5ae67a1279" y="480.79043"/>
     <use style="fill:#dbcd00;stroke:#dbcd00;" x="123.197206" xlink:href="#m5ae67a1279" y="480.514428"/>
     <use style="fill:#dbcd00;stroke:#dbcd00;" x="127.982798" xlink:href="#m5ae67a1279" y="480.238426"/>
     <use style="fill:#dbcd00;stroke:#dbcd00;" x="132.76839" xlink:href="#m5ae67a1279" y="480.238426"/>
     <use style="fill:#dbcd00;stroke:#dbcd00;" x="137.553982" xlink:href="#m5ae67a1279" y="480.238426"/>
     <use style="fill:#dbcd00;stroke:#dbcd00;" x="142.339573" xlink:href="#m5ae67a1279" y="480.238426"/>
     <use style="fill:#dbcd00;stroke:#dbcd00;" x="147.125165" xlink:href="#m5ae67a1279" y="480.238426"/>
     <use style="fill:#dbcd00;stroke:#dbcd00;" x="151.910757" xlink:href="#m5ae67a1279" y="476.926402"/>
     <use style="fill:#dbcd00;stroke:#dbcd00;" x="156.696349" xlink:href="#m5ae67a1279" y="475.822394"/>
     <use style="fill:#dbcd00;stroke:#dbcd00;" x="161.48194" xlink:href="#m5ae67a1279" y="475.546392"/>
     <use style="fill:#dbcd00;stroke:#dbcd00;" x="166.267532" xlink:href="#m5ae67a1279" y="475.27039"/>
     <use style="fill:#dbcd00;stroke:#dbcd00;" x="171.053124" xlink:href="#m5ae67a1279" y="474.718386"/>
     <use style="fill:#dbcd00;stroke:#dbcd00;" x="175.838716" xlink:href="#m5ae67a1279" y="474.442384"/>
     <use style="fill:#dbcd00;stroke:#dbcd00;" x="180.624307" xlink:href="#m5ae67a1279" y="472.510369"/>
     <use style="fill:#dbcd00;stroke:#dbcd00;" x="185.409899" xlink:href="#m5ae67a1279" y="471.406361"/>
     <use style="fill:#dbcd00;stroke:#dbcd00;" x="190.195491" xlink:href="#m5ae67a1279" y="470.578355"/>
     <use style="fill:#dbcd00;stroke:#dbcd00;" x="194.981083" xlink:href="#m5ae67a1279" y="469.750349"/>
     <use style="fill:#dbcd00;stroke:#dbcd00;" x="199.766675" xlink:href="#m5ae67a1279" y="469.474347"/>
     <use style="fill:#dbcd00;stroke:#dbcd00;" x="204.552266" xlink:href="#m5ae67a1279" y="468.370339"/>
     <use style="fill:#dbcd00;stroke:#dbcd00;" x="209.337858" xlink:href="#m5ae67a1279" y="467.818335"/>
     <use style="fill:#dbcd00;stroke:#dbcd00;" x="218.909042" xlink:href="#m5ae67a1279" y="466.990329"/>
     <use style="fill:#dbcd00;stroke:#dbcd00;" x="223.694633" xlink:href="#m5ae67a1279" y="455.122242"/>
     <use style="fill:#dbcd00;stroke:#dbcd00;" x="228.480225" xlink:href="#m5ae67a1279" y="452.086219"/>
     <use style="fill:#dbcd00;stroke:#dbcd00;" x="233.265817" xlink:href="#m5ae67a1279" y="449.602201"/>
     <use style="fill:#dbcd00;stroke:#dbcd00;" x="238.051409" xlink:href="#m5ae67a1279" y="447.394185"/>
     <use style="fill:#dbcd00;stroke:#dbcd00;" x="247.622592" xlink:href="#m5ae67a1279" y="442.978152"/>
     <use style="fill:#dbcd00;stroke:#dbcd00;" x="252.408184" xlink:href="#m5ae67a1279" y="439.114124"/>
     <use style="fill:#dbcd00;stroke:#dbcd00;" x="257.193776" xlink:href="#m5ae67a1279" y="435.8021"/>
     <use style="fill:#dbcd00;stroke:#dbcd00;" x="261.979367" xlink:href="#m5ae67a1279" y="428.074043"/>
     <use style="fill:#dbcd00;stroke:#dbcd00;" x="266.764959" xlink:href="#m5ae67a1279" y="427.246037"/>
     <use style="fill:#dbcd00;stroke:#dbcd00;" x="271.550551" xlink:href="#m5ae67a1279" y="424.210014"/>
     <use style="fill:#dbcd00;stroke:#dbcd00;" x="281.121735" xlink:href="#m5ae67a1279" y="423.65801"/>
     <use style="fill:#dbcd00;stroke:#dbcd00;" x="285.907326" xlink:href="#m5ae67a1279" y="420.345986"/>
     <use style="fill:#dbcd00;stroke:#dbcd00;" x="290.692918" xlink:href="#m5ae67a1279" y="418.965976"/>
     <use style="fill:#dbcd00;stroke:#dbcd00;" x="295.47851" xlink:href="#m5ae67a1279" y="418.689974"/>
     <use style="fill:#dbcd00;stroke:#dbcd00;" x="305.049693" xlink:href="#m5ae67a1279" y="416.75796"/>
     <use style="fill:#dbcd00;stroke:#dbcd00;" x="314.620877" xlink:href="#m5ae67a1279" y="416.481957"/>
     <use style="fill:#dbcd00;stroke:#dbcd00;" x="319.406469" xlink:href="#m5ae67a1279" y="413.445935"/>
     <use style="fill:#dbcd00;stroke:#dbcd00;" x="324.19206" xlink:href="#m5ae67a1279" y="413.445935"/>
     <use style="fill:#dbcd00;stroke:#dbcd00;" x="328.977652" xlink:href="#m5ae67a1279" y="411.237919"/>
     <use style="fill:#dbcd00;stroke:#dbcd00;" x="333.763244" xlink:href="#m5ae67a1279" y="410.133911"/>
     <use style="fill:#dbcd00;stroke:#dbcd00;" x="338.548836" xlink:href="#m5ae67a1279" y="404.337868"/>
     <use style="fill:#dbcd00;stroke:#dbcd00;" x="348.120019" xlink:href="#m5ae67a1279" y="404.061866"/>
     <use style="fill:#dbcd00;stroke:#dbcd00;" x="352.905611" xlink:href="#m5ae67a1279" y="404.061866"/>
     <use style="fill:#dbcd00;stroke:#dbcd00;" x="357.691203" xlink:href="#m5ae67a1279" y="402.405854"/>
     <use style="fill:#dbcd00;stroke:#dbcd00;" x="362.476795" xlink:href="#m5ae67a1279" y="402.129852"/>
     <use style="fill:#dbcd00;stroke:#dbcd00;" x="367.262386" xlink:href="#m5ae67a1279" y="400.749842"/>
     <use style="fill:#dbcd00;stroke:#dbcd00;" x="372.047978" xlink:href="#m5ae67a1279" y="400.749842"/>
     <use style="fill:#dbcd00;stroke:#dbcd00;" x="381.619162" xlink:href="#m5ae67a1279" y="400.749842"/>
     <use style="fill:#dbcd00;stroke:#dbcd00;" x="386.404753" xlink:href="#m5ae67a1279" y="392.469781"/>
     <use style="fill:#dbcd00;stroke:#dbcd00;" x="391.190345" xlink:href="#m5ae67a1279" y="390.261765"/>
     <use style="fill:#dbcd00;stroke:#dbcd00;" x="400.761529" xlink:href="#m5ae67a1279" y="390.261765"/>
     <use style="fill:#dbcd00;stroke:#dbcd00;" x="405.54712" xlink:href="#m5ae67a1279" y="389.985763"/>
     <use style="fill:#dbcd00;stroke:#dbcd00;" x="415.118304" xlink:href="#m5ae67a1279" y="389.985763"/>
     <use style="fill:#dbcd00;stroke:#dbcd00;" x="419.903896" xlink:href="#m5ae67a1279" y="388.881755"/>
     <use style="fill:#dbcd00;stroke:#dbcd00;" x="429.475079" xlink:href="#m5ae67a1279" y="385.293728"/>
     <use style="fill:#dbcd00;stroke:#dbcd00;" x="434.260671" xlink:href="#m5ae67a1279" y="385.017726"/>
     <use style="fill:#dbcd00;stroke:#dbcd00;" x="453.403038" xlink:href="#m5ae67a1279" y="384.465722"/>
     <use style="fill:#dbcd00;stroke:#dbcd00;" x="458.18863" xlink:href="#m5ae67a1279" y="384.465722"/>
     <use style="fill:#dbcd00;stroke:#dbcd00;" x="462.974222" xlink:href="#m5ae67a1279" y="383.913718"/>
     <use style="fill:#dbcd00;stroke:#dbcd00;" x="467.759813" xlink:href="#m5ae67a1279" y="381.981704"/>
     <use style="fill:#dbcd00;stroke:#dbcd00;" x="472.545405" xlink:href="#m5ae67a1279" y="380.877696"/>
     <use style="fill:#dbcd00;stroke:#dbcd00;" x="482.116589" xlink:href="#m5ae67a1279" y="380.877696"/>
     <use style="fill:#dbcd00;stroke:#dbcd00;" x="486.902181" xlink:href="#m5ae67a1279" y="380.04969"/>
     <use style="fill:#dbcd00;stroke:#dbcd00;" x="491.687772" xlink:href="#m5ae67a1279" y="378.669679"/>
     <use style="fill:#dbcd00;stroke:#dbcd00;" x="501.258956" xlink:href="#m5ae67a1279" y="378.669679"/>
     <use style="fill:#dbcd00;stroke:#dbcd00;" x="506.044548" xlink:href="#m5ae67a1279" y="378.669679"/>
     <use style="fill:#dbcd00;stroke:#dbcd00;" x="515.615731" xlink:href="#m5ae67a1279" y="378.669679"/>
     <use style="fill:#dbcd00;stroke:#dbcd00;" x="525.186915" xlink:href="#m5ae67a1279" y="375.633657"/>
     <use style="fill:#dbcd00;stroke:#dbcd00;" x="534.758098" xlink:href="#m5ae67a1279" y="372.873637"/>
     <use style="fill:#dbcd00;stroke:#dbcd00;" x="539.54369" xlink:href="#m5ae67a1279" y="371.769629"/>
     <use style="fill:#dbcd00;stroke:#dbcd00;" x="549.114873" xlink:href="#m5ae67a1279" y="371.769629"/>
     <use style="fill:#dbcd00;stroke:#dbcd00;" x="553.900465" xlink:href="#m5ae67a1279" y="371.769629"/>
     <use style="fill:#dbcd00;stroke:#dbcd00;" x="558.686057" xlink:href="#m5ae67a1279" y="368.457604"/>
     <use style="fill:#dbcd00;stroke:#dbcd00;" x="563.471649" xlink:href="#m5ae67a1279" y="367.353596"/>
     <use style="fill:#dbcd00;stroke:#dbcd00;" x="573.042832" xlink:href="#m5ae67a1279" y="366.52559"/>
     <use style="fill:#dbcd00;stroke:#dbcd00;" x="582.614016" xlink:href="#m5ae67a1279" y="366.52559"/>
     <use style="fill:#dbcd00;stroke:#dbcd00;" x="587.399608" xlink:href="#m5ae67a1279" y="362.937564"/>
     <use style="fill:#dbcd00;stroke:#dbcd00;" x="592.185199" xlink:href="#m5ae67a1279" y="361.833556"/>
     <use style="fill:#dbcd00;stroke:#dbcd00;" x="596.970791" xlink:href="#m5ae67a1279" y="359.901541"/>
     <use style="fill:#dbcd00;stroke:#dbcd00;" x="601.756383" xlink:href="#m5ae67a1279" y="357.141521"/>
     <use style="fill:#dbcd00;stroke:#dbcd00;" x="606.541975" xlink:href="#m5ae67a1279" y="356.313515"/>
     <use style="fill:#dbcd00;stroke:#dbcd00;" x="620.89875" xlink:href="#m5ae67a1279" y="353.829497"/>
     <use style="fill:#dbcd00;stroke:#dbcd00;" x="625.684342" xlink:href="#m5ae67a1279" y="352.725489"/>
     <use style="fill:#dbcd00;stroke:#dbcd00;" x="630.469934" xlink:href="#m5ae67a1279" y="349.965468"/>
     <use style="fill:#dbcd00;stroke:#dbcd00;" x="635.255525" xlink:href="#m5ae67a1279" y="349.413464"/>
     <use style="fill:#dbcd00;stroke:#dbcd00;" x="649.612301" xlink:href="#m5ae67a1279" y="348.585458"/>
     <use style="fill:#dbcd00;stroke:#dbcd00;" x="654.397892" xlink:href="#m5ae67a1279" y="347.205448"/>
     <use style="fill:#dbcd00;stroke:#dbcd00;" x="659.183484" xlink:href="#m5ae67a1279" y="344.72143"/>
     <use style="fill:#dbcd00;stroke:#dbcd00;" x="663.969076" xlink:href="#m5ae67a1279" y="343.34142"/>
     <use style="fill:#dbcd00;stroke:#dbcd00;" x="668.754668" xlink:href="#m5ae67a1279" y="343.34142"/>
     <use style="fill:#dbcd00;stroke:#dbcd00;" x="683.111443" xlink:href="#m5ae67a1279" y="341.96141"/>
     <use style="fill:#dbcd00;stroke:#dbcd00;" x="687.897035" xlink:href="#m5ae67a1279" y="341.685408"/>
     <use style="fill:#dbcd00;stroke:#dbcd00;" x="692.682627" xlink:href="#m5ae67a1279" y="339.753393"/>
     <use style="fill:#dbcd00;stroke:#dbcd00;" x="697.468218" xlink:href="#m5ae67a1279" y="337.545377"/>
     <use style="fill:#dbcd00;stroke:#dbcd00;" x="702.25381" xlink:href="#m5ae67a1279" y="336.165367"/>
     <use style="fill:#dbcd00;stroke:#dbcd00;" x="716.610585" xlink:href="#m5ae67a1279" y="335.889365"/>
     <use style="fill:#dbcd00;stroke:#dbcd00;" x="721.396177" xlink:href="#m5ae67a1279" y="334.509355"/>
     <use style="fill:#dbcd00;stroke:#dbcd00;" x="726.181769" xlink:href="#m5ae67a1279" y="332.577341"/>
     <use style="fill:#dbcd00;stroke:#dbcd00;" x="730.967361" xlink:href="#m5ae67a1279" y="329.81732"/>
     <use style="fill:#dbcd00;stroke:#dbcd00;" x="735.752952" xlink:href="#m5ae67a1279" y="308.289162"/>
     <use style="fill:#dbcd00;stroke:#dbcd00;" x="750.109728" xlink:href="#m5ae67a1279" y="328.989314"/>
     <use style="fill:#dbcd00;stroke:#dbcd00;" x="754.895319" xlink:href="#m5ae67a1279" y="328.989314"/>
     <use style="fill:#dbcd00;stroke:#dbcd00;" x="759.680911" xlink:href="#m5ae67a1279" y="325.125286"/>
     <use style="fill:#dbcd00;stroke:#dbcd00;" x="764.466503" xlink:href="#m5ae67a1279" y="323.745276"/>
     <use style="fill:#dbcd00;stroke:#dbcd00;" x="769.252095" xlink:href="#m5ae67a1279" y="323.469274"/>
     <use style="fill:#dbcd00;stroke:#dbcd00;" x="783.60887" xlink:href="#m5ae67a1279" y="323.469274"/>
     <use style="fill:#dbcd00;stroke:#dbcd00;" x="788.394462" xlink:href="#m5ae67a1279" y="323.469274"/>
     <use style="fill:#dbcd00;stroke:#dbcd00;" x="793.180054" xlink:href="#m5ae67a1279" y="313.809203"/>
     <use style="fill:#dbcd00;stroke:#dbcd00;" x="797.965645" xlink:href="#m5ae67a1279" y="311.325184"/>
     <use style="fill:#dbcd00;stroke:#dbcd00;" x="802.751237" xlink:href="#m5ae67a1279" y="311.325184"/>
     <use style="fill:#dbcd00;stroke:#dbcd00;" x="817.108012" xlink:href="#m5ae67a1279" y="311.325184"/>
     <use style="fill:#dbcd00;stroke:#dbcd00;" x="821.893604" xlink:href="#m5ae67a1279" y="308.01316"/>
     <use style="fill:#dbcd00;stroke:#dbcd00;" x="826.679196" xlink:href="#m5ae67a1279" y="307.185154"/>
     <use style="fill:#dbcd00;stroke:#dbcd00;" x="831.464788" xlink:href="#m5ae67a1279" y="305.805144"/>
     <use style="fill:#dbcd00;stroke:#dbcd00;" x="836.25038" xlink:href="#m5ae67a1279" y="299.733099"/>
     <use style="fill:#dbcd00;stroke:#dbcd00;" x="850.607155" xlink:href="#m5ae67a1279" y="299.181095"/>
     <use style="fill:#dbcd00;stroke:#dbcd00;" x="855.392747" xlink:href="#m5ae67a1279" y="298.905093"/>
     <use style="fill:#dbcd00;stroke:#dbcd00;" x="860.178338" xlink:href="#m5ae67a1279" y="287.037006"/>
     <use style="fill:#dbcd00;stroke:#dbcd00;" x="864.96393" xlink:href="#m5ae67a1279" y="285.104991"/>
     <use style="fill:#dbcd00;stroke:#dbcd00;" x="869.749522" xlink:href="#m5ae67a1279" y="284.828989"/>
     <use style="fill:#dbcd00;stroke:#dbcd00;" x="884.106297" xlink:href="#m5ae67a1279" y="281.516965"/>
     <use style="fill:#dbcd00;stroke:#dbcd00;" x="888.891889" xlink:href="#m5ae67a1279" y="280.688959"/>
     <use style="fill:#dbcd00;stroke:#dbcd00;" x="893.677481" xlink:href="#m5ae67a1279" y="274.892916"/>
     <use style="fill:#dbcd00;stroke:#dbcd00;" x="898.463072" xlink:href="#m5ae67a1279" y="273.236904"/>
     <use style="fill:#dbcd00;stroke:#dbcd00;" x="903.248664" xlink:href="#m5ae67a1279" y="270.752886"/>
     <use style="fill:#dbcd00;stroke:#dbcd00;" x="917.60544" xlink:href="#m5ae67a1279" y="269.648878"/>
     <use style="fill:#dbcd00;stroke:#dbcd00;" x="922.391031" xlink:href="#m5ae67a1279" y="265.784849"/>
     <use style="fill:#dbcd00;stroke:#dbcd00;" x="927.176623" xlink:href="#m5ae67a1279" y="264.956843"/>
     <use style="fill:#dbcd00;stroke:#dbcd00;" x="931.962215" xlink:href="#m5ae67a1279" y="264.956843"/>
     <use style="fill:#dbcd00;stroke:#dbcd00;" x="936.747807" xlink:href="#m5ae67a1279" y="260.816813"/>
     <use style="fill:#dbcd00;stroke:#dbcd00;" x="951.104582" xlink:href="#m5ae67a1279" y="257.504789"/>
     <use style="fill:#dbcd00;stroke:#dbcd00;" x="955.890174" xlink:href="#m5ae67a1279" y="257.504789"/>
     <use style="fill:#dbcd00;stroke:#dbcd00;" x="960.675765" xlink:href="#m5ae67a1279" y="256.40078"/>
     <use style="fill:#dbcd00;stroke:#dbcd00;" x="965.461357" xlink:href="#m5ae67a1279" y="256.124778"/>
     <use style="fill:#dbcd00;stroke:#dbcd00;" x="970.246949" xlink:href="#m5ae67a1279" y="253.64076"/>
     <use style="fill:#dbcd00;stroke:#dbcd00;" x="984.603724" xlink:href="#m5ae67a1279" y="253.64076"/>
     <use style="fill:#dbcd00;stroke:#dbcd00;" x="989.389316" xlink:href="#m5ae67a1279" y="251.984748"/>
     <use style="fill:#dbcd00;stroke:#dbcd00;" x="994.174908" xlink:href="#m5ae67a1279" y="248.396722"/>
     <use style="fill:#dbcd00;stroke:#dbcd00;" x="998.9605" xlink:href="#m5ae67a1279" y="247.292713"/>
     <use style="fill:#dbcd00;stroke:#dbcd00;" x="1003.746091" xlink:href="#m5ae67a1279" y="245.360699"/>
     <use style="fill:#dbcd00;stroke:#dbcd00;" x="1018.102867" xlink:href="#m5ae67a1279" y="242.048675"/>
     <use style="fill:#dbcd00;stroke:#dbcd00;" x="1022.888458" xlink:href="#m5ae67a1279" y="238.184646"/>
     <use style="fill:#dbcd00;stroke:#dbcd00;" x="1027.67405" xlink:href="#m5ae67a1279" y="235.148624"/>
     <use style="fill:#dbcd00;stroke:#dbcd00;" x="1032.459642" xlink:href="#m5ae67a1279" y="229.628584"/>
     <use style="fill:#dbcd00;stroke:#dbcd00;" x="1037.245234" xlink:href="#m5ae67a1279" y="228.524575"/>
     <use style="fill:#dbcd00;stroke:#dbcd00;" x="1051.602009" xlink:href="#m5ae67a1279" y="226.316559"/>
     <use style="fill:#dbcd00;stroke:#dbcd00;" x="1056.387601" xlink:href="#m5ae67a1279" y="211.41245"/>
     <use style="fill:#dbcd00;stroke:#dbcd00;" x="1061.173193" xlink:href="#m5ae67a1279" y="210.860446"/>
     <use style="fill:#dbcd00;stroke:#dbcd00;" x="1065.958784" xlink:href="#m5ae67a1279" y="201.200375"/>
     <use style="fill:#dbcd00;stroke:#dbcd00;" x="1070.744376" xlink:href="#m5ae67a1279" y="199.544362"/>
     <use style="fill:#dbcd00;stroke:#dbcd00;" x="1085.101151" xlink:href="#m5ae67a1279" y="198.716356"/>
     <use style="fill:#dbcd00;stroke:#dbcd00;" x="1089.886743" xlink:href="#m5ae67a1279" y="198.164352"/>
     <use style="fill:#dbcd00;stroke:#dbcd00;" x="1123.385886" xlink:href="#m5ae67a1279" y="177.188198"/>
     <use style="fill:#dbcd00;stroke:#dbcd00;" x="1128.171477" xlink:href="#m5ae67a1279" y="171.944159"/>
    </g>
   </g>
   <g id="line2d_45">
    <path clip-path="url(#p324d5f5321)" d="M 113.626023 468.094337 
L 123.197206 465.334317 
L 127.982798 465.886321 
L 132.76839 460.918284 
L 137.553982 458.710268 
L 142.339573 457.054256 
L 147.125165 454.84624 
L 151.910757 454.570238 
L 156.696349 451.534215 
L 161.48194 448.222191 
L 166.267532 444.08216 
L 171.053124 441.598142 
L 175.838716 437.734114 
L 180.624307 437.734114 
L 185.409899 434.422089 
L 190.195491 434.698091 
L 194.981083 431.662069 
L 199.766675 431.386067 
L 204.552266 429.730055 
L 209.337858 430.282059 
L 218.909042 427.798041 
L 223.694633 439.390126 
L 228.480225 441.874144 
L 233.265817 442.426148 
L 238.051409 442.426148 
L 247.622592 454.018233 
L 252.408184 457.330258 
L 257.193776 452.362221 
L 261.979367 458.434266 
L 266.764959 459.262272 
L 271.550551 462.298294 
L 281.121735 462.850298 
L 285.907326 454.84624 
L 290.692918 454.294236 
L 295.47851 454.018233 
L 305.049693 455.398244 
L 314.620877 454.84624 
L 319.406469 457.882262 
L 324.19206 457.054256 
L 328.977652 458.710268 
L 333.763244 458.158264 
L 338.548836 463.1263 
L 348.120019 463.402302 
L 352.905611 462.850298 
L 357.691203 464.506311 
L 362.476795 464.782313 
L 367.262386 464.506311 
L 372.047978 463.402302 
L 381.619162 463.402302 
L 386.404753 467.266331 
L 391.190345 469.474347 
L 400.761529 468.922343 
L 405.54712 467.818335 
L 415.118304 467.818335 
L 419.903896 468.646341 
L 429.475079 470.854357 
L 434.260671 470.026351 
L 453.403038 469.474347 
L 458.18863 468.094337 
L 467.759813 468.094337 
L 472.545405 466.990329 
L 482.116589 466.990329 
L 486.902181 467.818335 
L 491.687772 466.162323 
L 501.258956 466.162323 
L 506.044548 466.438325 
L 515.615731 466.438325 
L 525.186915 467.818335 
L 534.758098 467.542333 
L 539.54369 464.782313 
L 549.114873 464.782313 
L 553.900465 462.298294 
L 558.686057 463.678305 
L 563.471649 463.954307 
L 573.042832 461.470288 
L 582.614016 461.470288 
L 587.399608 463.678305 
L 592.185199 465.058315 
L 596.970791 466.990329 
L 601.756383 465.058315 
L 606.541975 465.610319 
L 620.89875 466.438325 
L 625.684342 466.438325 
L 630.469934 467.266331 
L 635.255525 466.714327 
L 649.612301 466.162323 
L 654.397892 464.506311 
L 659.183484 466.162323 
L 663.969076 466.438325 
L 668.754668 466.162323 
L 683.111443 463.954307 
L 702.25381 465.058315 
L 716.610585 462.298294 
L 721.396177 462.022292 
L 726.181769 462.022292 
L 730.967361 464.506311 
L 735.752952 486.034469 
L 750.109728 463.1263 
L 754.895319 460.918284 
L 759.680911 462.574296 
L 764.466503 463.678305 
L 769.252095 462.022292 
L 783.60887 458.98627 
L 788.394462 457.054256 
L 793.180054 462.574296 
L 797.965645 461.470288 
L 802.751237 459.262272 
L 817.108012 458.158264 
L 821.893604 457.054256 
L 826.679196 455.674246 
L 831.464788 452.638223 
L 836.25038 456.502252 
L 850.607155 454.294236 
L 855.392747 454.018233 
L 860.178338 462.298294 
L 864.96393 462.022292 
L 869.749522 461.470288 
L 884.106297 460.918284 
L 888.891889 458.98627 
L 893.677481 449.602201 
L 898.463072 464.782313 
L 903.248664 465.334317 
L 917.60544 465.886321 
L 922.391031 466.990329 
L 927.176623 466.714327 
L 931.962215 465.058315 
L 936.747807 468.922343 
L 951.104582 468.922343 
L 955.890174 465.334317 
L 960.675765 459.538274 
L 965.461357 459.814276 
L 970.246949 454.018233 
L 984.603724 439.390126 
L 989.389316 433.318081 
L 994.174908 432.490075 
L 998.9605 427.246037 
L 1003.746091 424.210014 
L 1018.102867 419.793982 
L 1022.888458 416.205955 
L 1027.67405 414.825945 
L 1032.459642 414.825945 
L 1037.245234 412.341927 
L 1051.602009 407.925895 
L 1056.387601 413.445935 
L 1061.173193 405.99388 
L 1065.958784 408.477899 
L 1070.744376 402.957858 
L 1085.101151 397.437817 
L 1089.886743 382.80971 
L 1123.385886 326.229294 
L 1128.171477 315.465215 
L 1128.171477 315.465215 
" style="fill:none;stroke:#2792cb;stroke-linecap:square;stroke-width:2;"/>
    <defs>
     <path d="M 0 1.5 
C 0.397805 1.5 0.77937 1.341951 1.06066 1.06066 
C 1.341951 0.77937 1.5 0.397805 1.5 0 
C 1.5 -0.397805 1.341951 -0.77937 1.06066 -1.06066 
C 0.77937 -1.341951 0.397805 -1.5 0 -1.5 
C -0.397805 -1.5 -0.77937 -1.341951 -1.06066 -1.06066 
C -1.341951 -0.77937 -1.5 -0.397805 -1.5 0 
C -1.5 0.397805 -1.341951 0.77937 -1.06066 1.06066 
C -0.77937 1.341951 -0.397805 1.5 0 1.5 
z
" id="mfa37dee485" style="stroke:#2792cb;"/>
    </defs>
    <g clip-path="url(#p324d5f5321)">
     <use style="fill:#2792cb;stroke:#2792cb;" x="113.626023" xlink:href="#mfa37dee485" y="468.094337"/>
     <use style="fill:#2792cb;stroke:#2792cb;" x="118.411614" xlink:href="#mfa37dee485" y="466.714327"/>
     <use style="fill:#2792cb;stroke:#2792cb;" x="123.197206" xlink:href="#mfa37dee485" y="465.334317"/>
     <use style="fill:#2792cb;stroke:#2792cb;" x="127.982798" xlink:href="#mfa37dee485" y="465.886321"/>
     <use style="fill:#2792cb;stroke:#2792cb;" x="132.76839" xlink:href="#mfa37dee485" y="460.918284"/>
     <use style="fill:#2792cb;stroke:#2792cb;" x="137.553982" xlink:href="#mfa37dee485" y="458.710268"/>
     <use style="fill:#2792cb;stroke:#2792cb;" x="142.339573" xlink:href="#mfa37dee485" y="457.054256"/>
     <use style="fill:#2792cb;stroke:#2792cb;" x="147.125165" xlink:href="#mfa37dee485" y="454.84624"/>
     <use style="fill:#2792cb;stroke:#2792cb;" x="151.910757" xlink:href="#mfa37dee485" y="454.570238"/>
     <use style="fill:#2792cb;stroke:#2792cb;" x="156.696349" xlink:href="#mfa37dee485" y="451.534215"/>
     <use style="fill:#2792cb;stroke:#2792cb;" x="161.48194" xlink:href="#mfa37dee485" y="448.222191"/>
     <use style="fill:#2792cb;stroke:#2792cb;" x="166.267532" xlink:href="#mfa37dee485" y="444.08216"/>
     <use style="fill:#2792cb;stroke:#2792cb;" x="171.053124" xlink:href="#mfa37dee485" y="441.598142"/>
     <use style="fill:#2792cb;stroke:#2792cb;" x="175.838716" xlink:href="#mfa37dee485" y="437.734114"/>
     <use style="fill:#2792cb;stroke:#2792cb;" x="180.624307" xlink:href="#mfa37dee485" y="437.734114"/>
     <use style="fill:#2792cb;stroke:#2792cb;" x="185.409899" xlink:href="#mfa37dee485" y="434.422089"/>
     <use style="fill:#2792cb;stroke:#2792cb;" x="190.195491" xlink:href="#mfa37dee485" y="434.698091"/>
     <use style="fill:#2792cb;stroke:#2792cb;" x="194.981083" xlink:href="#mfa37dee485" y="431.662069"/>
     <use style="fill:#2792cb;stroke:#2792cb;" x="199.766675" xlink:href="#mfa37dee485" y="431.386067"/>
     <use style="fill:#2792cb;stroke:#2792cb;" x="204.552266" xlink:href="#mfa37dee485" y="429.730055"/>
     <use style="fill:#2792cb;stroke:#2792cb;" x="209.337858" xlink:href="#mfa37dee485" y="430.282059"/>
     <use style="fill:#2792cb;stroke:#2792cb;" x="218.909042" xlink:href="#mfa37dee485" y="427.798041"/>
     <use style="fill:#2792cb;stroke:#2792cb;" x="223.694633" xlink:href="#mfa37dee485" y="439.390126"/>
     <use style="fill:#2792cb;stroke:#2792cb;" x="228.480225" xlink:href="#mfa37dee485" y="441.874144"/>
     <use style="fill:#2792cb;stroke:#2792cb;" x="233.265817" xlink:href="#mfa37dee485" y="442.426148"/>
     <use style="fill:#2792cb;stroke:#2792cb;" x="238.051409" xlink:href="#mfa37dee485" y="442.426148"/>
     <use style="fill:#2792cb;stroke:#2792cb;" x="247.622592" xlink:href="#mfa37dee485" y="454.018233"/>
     <use style="fill:#2792cb;stroke:#2792cb;" x="252.408184" xlink:href="#mfa37dee485" y="457.330258"/>
     <use style="fill:#2792cb;stroke:#2792cb;" x="257.193776" xlink:href="#mfa37dee485" y="452.362221"/>
     <use style="fill:#2792cb;stroke:#2792cb;" x="261.979367" xlink:href="#mfa37dee485" y="458.434266"/>
     <use style="fill:#2792cb;stroke:#2792cb;" x="266.764959" xlink:href="#mfa37dee485" y="459.262272"/>
     <use style="fill:#2792cb;stroke:#2792cb;" x="271.550551" xlink:href="#mfa37dee485" y="462.298294"/>
     <use style="fill:#2792cb;stroke:#2792cb;" x="281.121735" xlink:href="#mfa37dee485" y="462.850298"/>
     <use style="fill:#2792cb;stroke:#2792cb;" x="285.907326" xlink:href="#mfa37dee485" y="454.84624"/>
     <use style="fill:#2792cb;stroke:#2792cb;" x="290.692918" xlink:href="#mfa37dee485" y="454.294236"/>
     <use style="fill:#2792cb;stroke:#2792cb;" x="295.47851" xlink:href="#mfa37dee485" y="454.018233"/>
     <use style="fill:#2792cb;stroke:#2792cb;" x="305.049693" xlink:href="#mfa37dee485" y="455.398244"/>
     <use style="fill:#2792cb;stroke:#2792cb;" x="314.620877" xlink:href="#mfa37dee485" y="454.84624"/>
     <use style="fill:#2792cb;stroke:#2792cb;" x="319.406469" xlink:href="#mfa37dee485" y="457.882262"/>
     <use style="fill:#2792cb;stroke:#2792cb;" x="324.19206" xlink:href="#mfa37dee485" y="457.054256"/>
     <use style="fill:#2792cb;stroke:#2792cb;" x="328.977652" xlink:href="#mfa37dee485" y="458.710268"/>
     <use style="fill:#2792cb;stroke:#2792cb;" x="333.763244" xlink:href="#mfa37dee485" y="458.158264"/>
     <use style="fill:#2792cb;stroke:#2792cb;" x="338.548836" xlink:href="#mfa37dee485" y="463.1263"/>
     <use style="fill:#2792cb;stroke:#2792cb;" x="348.120019" xlink:href="#mfa37dee485" y="463.402302"/>
     <use style="fill:#2792cb;stroke:#2792cb;" x="352.905611" xlink:href="#mfa37dee485" y="462.850298"/>
     <use style="fill:#2792cb;stroke:#2792cb;" x="357.691203" xlink:href="#mfa37dee485" y="464.506311"/>
     <use style="fill:#2792cb;stroke:#2792cb;" x="362.476795" xlink:href="#mfa37dee485" y="464.782313"/>
     <use style="fill:#2792cb;stroke:#2792cb;" x="367.262386" xlink:href="#mfa37dee485" y="464.506311"/>
     <use style="fill:#2792cb;stroke:#2792cb;" x="372.047978" xlink:href="#mfa37dee485" y="463.402302"/>
     <use style="fill:#2792cb;stroke:#2792cb;" x="381.619162" xlink:href="#mfa37dee485" y="463.402302"/>
     <use style="fill:#2792cb;stroke:#2792cb;" x="386.404753" xlink:href="#mfa37dee485" y="467.266331"/>
     <use style="fill:#2792cb;stroke:#2792cb;" x="391.190345" xlink:href="#mfa37dee485" y="469.474347"/>
     <use style="fill:#2792cb;stroke:#2792cb;" x="400.761529" xlink:href="#mfa37dee485" y="468.922343"/>
     <use style="fill:#2792cb;stroke:#2792cb;" x="405.54712" xlink:href="#mfa37dee485" y="467.818335"/>
     <use style="fill:#2792cb;stroke:#2792cb;" x="415.118304" xlink:href="#mfa37dee485" y="467.818335"/>
     <use style="fill:#2792cb;stroke:#2792cb;" x="419.903896" xlink:href="#mfa37dee485" y="468.646341"/>
     <use style="fill:#2792cb;stroke:#2792cb;" x="429.475079" xlink:href="#mfa37dee485" y="470.854357"/>
     <use style="fill:#2792cb;stroke:#2792cb;" x="434.260671" xlink:href="#mfa37dee485" y="470.026351"/>
     <use style="fill:#2792cb;stroke:#2792cb;" x="453.403038" xlink:href="#mfa37dee485" y="469.474347"/>
     <use style="fill:#2792cb;stroke:#2792cb;" x="458.18863" xlink:href="#mfa37dee485" y="468.094337"/>
     <use style="fill:#2792cb;stroke:#2792cb;" x="462.974222" xlink:href="#mfa37dee485" y="468.094337"/>
     <use style="fill:#2792cb;stroke:#2792cb;" x="467.759813" xlink:href="#mfa37dee485" y="468.094337"/>
     <use style="fill:#2792cb;stroke:#2792cb;" x="472.545405" xlink:href="#mfa37dee485" y="466.990329"/>
     <use style="fill:#2792cb;stroke:#2792cb;" x="482.116589" xlink:href="#mfa37dee485" y="466.990329"/>
     <use style="fill:#2792cb;stroke:#2792cb;" x="486.902181" xlink:href="#mfa37dee485" y="467.818335"/>
     <use style="fill:#2792cb;stroke:#2792cb;" x="491.687772" xlink:href="#mfa37dee485" y="466.162323"/>
     <use style="fill:#2792cb;stroke:#2792cb;" x="501.258956" xlink:href="#mfa37dee485" y="466.162323"/>
     <use style="fill:#2792cb;stroke:#2792cb;" x="506.044548" xlink:href="#mfa37dee485" y="466.438325"/>
     <use style="fill:#2792cb;stroke:#2792cb;" x="515.615731" xlink:href="#mfa37dee485" y="466.438325"/>
     <use style="fill:#2792cb;stroke:#2792cb;" x="525.186915" xlink:href="#mfa37dee485" y="467.818335"/>
     <use style="fill:#2792cb;stroke:#2792cb;" x="534.758098" xlink:href="#mfa37dee485" y="467.542333"/>
     <use style="fill:#2792cb;stroke:#2792cb;" x="539.54369" xlink:href="#mfa37dee485" y="464.782313"/>
     <use style="fill:#2792cb;stroke:#2792cb;" x="549.114873" xlink:href="#mfa37dee485" y="464.782313"/>
     <use style="fill:#2792cb;stroke:#2792cb;" x="553.900465" xlink:href="#mfa37dee485" y="462.298294"/>
     <use style="fill:#2792cb;stroke:#2792cb;" x="558.686057" xlink:href="#mfa37dee485" y="463.678305"/>
     <use style="fill:#2792cb;stroke:#2792cb;" x="563.471649" xlink:href="#mfa37dee485" y="463.954307"/>
     <use style="fill:#2792cb;stroke:#2792cb;" x="573.042832" xlink:href="#mfa37dee485" y="461.470288"/>
     <use style="fill:#2792cb;stroke:#2792cb;" x="582.614016" xlink:href="#mfa37dee485" y="461.470288"/>
     <use style="fill:#2792cb;stroke:#2792cb;" x="587.399608" xlink:href="#mfa37dee485" y="463.678305"/>
     <use style="fill:#2792cb;stroke:#2792cb;" x="592.185199" xlink:href="#mfa37dee485" y="465.058315"/>
     <use style="fill:#2792cb;stroke:#2792cb;" x="596.970791" xlink:href="#mfa37dee485" y="466.990329"/>
     <use style="fill:#2792cb;stroke:#2792cb;" x="601.756383" xlink:href="#mfa37dee485" y="465.058315"/>
     <use style="fill:#2792cb;stroke:#2792cb;" x="606.541975" xlink:href="#mfa37dee485" y="465.610319"/>
     <use style="fill:#2792cb;stroke:#2792cb;" x="620.89875" xlink:href="#mfa37dee485" y="466.438325"/>
     <use style="fill:#2792cb;stroke:#2792cb;" x="625.684342" xlink:href="#mfa37dee485" y="466.438325"/>
     <use style="fill:#2792cb;stroke:#2792cb;" x="630.469934" xlink:href="#mfa37dee485" y="467.266331"/>
     <use style="fill:#2792cb;stroke:#2792cb;" x="635.255525" xlink:href="#mfa37dee485" y="466.714327"/>
     <use style="fill:#2792cb;stroke:#2792cb;" x="649.612301" xlink:href="#mfa37dee485" y="466.162323"/>
     <use style="fill:#2792cb;stroke:#2792cb;" x="654.397892" xlink:href="#mfa37dee485" y="464.506311"/>
     <use style="fill:#2792cb;stroke:#2792cb;" x="659.183484" xlink:href="#mfa37dee485" y="466.162323"/>
     <use style="fill:#2792cb;stroke:#2792cb;" x="663.969076" xlink:href="#mfa37dee485" y="466.438325"/>
     <use style="fill:#2792cb;stroke:#2792cb;" x="668.754668" xlink:href="#mfa37dee485" y="466.162323"/>
     <use style="fill:#2792cb;stroke:#2792cb;" x="683.111443" xlink:href="#mfa37dee485" y="463.954307"/>
     <use style="fill:#2792cb;stroke:#2792cb;" x="687.897035" xlink:href="#mfa37dee485" y="464.230309"/>
     <use style="fill:#2792cb;stroke:#2792cb;" x="692.682627" xlink:href="#mfa37dee485" y="464.506311"/>
     <use style="fill:#2792cb;stroke:#2792cb;" x="697.468218" xlink:href="#mfa37dee485" y="464.782313"/>
     <use style="fill:#2792cb;stroke:#2792cb;" x="702.25381" xlink:href="#mfa37dee485" y="465.058315"/>
     <use style="fill:#2792cb;stroke:#2792cb;" x="716.610585" xlink:href="#mfa37dee485" y="462.298294"/>
     <use style="fill:#2792cb;stroke:#2792cb;" x="721.396177" xlink:href="#mfa37dee485" y="462.022292"/>
     <use style="fill:#2792cb;stroke:#2792cb;" x="726.181769" xlink:href="#mfa37dee485" y="462.022292"/>
     <use style="fill:#2792cb;stroke:#2792cb;" x="730.967361" xlink:href="#mfa37dee485" y="464.506311"/>
     <use style="fill:#2792cb;stroke:#2792cb;" x="735.752952" xlink:href="#mfa37dee485" y="486.034469"/>
     <use style="fill:#2792cb;stroke:#2792cb;" x="750.109728" xlink:href="#mfa37dee485" y="463.1263"/>
     <use style="fill:#2792cb;stroke:#2792cb;" x="754.895319" xlink:href="#mfa37dee485" y="460.918284"/>
     <use style="fill:#2792cb;stroke:#2792cb;" x="759.680911" xlink:href="#mfa37dee485" y="462.574296"/>
     <use style="fill:#2792cb;stroke:#2792cb;" x="764.466503" xlink:href="#mfa37dee485" y="463.678305"/>
     <use style="fill:#2792cb;stroke:#2792cb;" x="769.252095" xlink:href="#mfa37dee485" y="462.022292"/>
     <use style="fill:#2792cb;stroke:#2792cb;" x="783.60887" xlink:href="#mfa37dee485" y="458.98627"/>
     <use style="fill:#2792cb;stroke:#2792cb;" x="788.394462" xlink:href="#mfa37dee485" y="457.054256"/>
     <use style="fill:#2792cb;stroke:#2792cb;" x="793.180054" xlink:href="#mfa37dee485" y="462.574296"/>
     <use style="fill:#2792cb;stroke:#2792cb;" x="797.965645" xlink:href="#mfa37dee485" y="461.470288"/>
     <use style="fill:#2792cb;stroke:#2792cb;" x="802.751237" xlink:href="#mfa37dee485" y="459.262272"/>
     <use style="fill:#2792cb;stroke:#2792cb;" x="817.108012" xlink:href="#mfa37dee485" y="458.158264"/>
     <use style="fill:#2792cb;stroke:#2792cb;" x="821.893604" xlink:href="#mfa37dee485" y="457.054256"/>
     <use style="fill:#2792cb;stroke:#2792cb;" x="826.679196" xlink:href="#mfa37dee485" y="455.674246"/>
     <use style="fill:#2792cb;stroke:#2792cb;" x="831.464788" xlink:href="#mfa37dee485" y="452.638223"/>
     <use style="fill:#2792cb;stroke:#2792cb;" x="836.25038" xlink:href="#mfa37dee485" y="456.502252"/>
     <use style="fill:#2792cb;stroke:#2792cb;" x="850.607155" xlink:href="#mfa37dee485" y="454.294236"/>
     <use style="fill:#2792cb;stroke:#2792cb;" x="855.392747" xlink:href="#mfa37dee485" y="454.018233"/>
     <use style="fill:#2792cb;stroke:#2792cb;" x="860.178338" xlink:href="#mfa37dee485" y="462.298294"/>
     <use style="fill:#2792cb;stroke:#2792cb;" x="864.96393" xlink:href="#mfa37dee485" y="462.022292"/>
     <use style="fill:#2792cb;stroke:#2792cb;" x="869.749522" xlink:href="#mfa37dee485" y="461.470288"/>
     <use style="fill:#2792cb;stroke:#2792cb;" x="884.106297" xlink:href="#mfa37dee485" y="460.918284"/>
     <use style="fill:#2792cb;stroke:#2792cb;" x="888.891889" xlink:href="#mfa37dee485" y="458.98627"/>
     <use style="fill:#2792cb;stroke:#2792cb;" x="893.677481" xlink:href="#mfa37dee485" y="449.602201"/>
     <use style="fill:#2792cb;stroke:#2792cb;" x="898.463072" xlink:href="#mfa37dee485" y="464.782313"/>
     <use style="fill:#2792cb;stroke:#2792cb;" x="903.248664" xlink:href="#mfa37dee485" y="465.334317"/>
     <use style="fill:#2792cb;stroke:#2792cb;" x="917.60544" xlink:href="#mfa37dee485" y="465.886321"/>
     <use style="fill:#2792cb;stroke:#2792cb;" x="922.391031" xlink:href="#mfa37dee485" y="466.990329"/>
     <use style="fill:#2792cb;stroke:#2792cb;" x="927.176623" xlink:href="#mfa37dee485" y="466.714327"/>
     <use style="fill:#2792cb;stroke:#2792cb;" x="931.962215" xlink:href="#mfa37dee485" y="465.058315"/>
     <use style="fill:#2792cb;stroke:#2792cb;" x="936.747807" xlink:href="#mfa37dee485" y="468.922343"/>
     <use style="fill:#2792cb;stroke:#2792cb;" x="951.104582" xlink:href="#mfa37dee485" y="468.922343"/>
     <use style="fill:#2792cb;stroke:#2792cb;" x="955.890174" xlink:href="#mfa37dee485" y="465.334317"/>
     <use style="fill:#2792cb;stroke:#2792cb;" x="960.675765" xlink:href="#mfa37dee485" y="459.538274"/>
     <use style="fill:#2792cb;stroke:#2792cb;" x="965.461357" xlink:href="#mfa37dee485" y="459.814276"/>
     <use style="fill:#2792cb;stroke:#2792cb;" x="970.246949" xlink:href="#mfa37dee485" y="454.018233"/>
     <use style="fill:#2792cb;stroke:#2792cb;" x="984.603724" xlink:href="#mfa37dee485" y="439.390126"/>
     <use style="fill:#2792cb;stroke:#2792cb;" x="989.389316" xlink:href="#mfa37dee485" y="433.318081"/>
     <use style="fill:#2792cb;stroke:#2792cb;" x="994.174908" xlink:href="#mfa37dee485" y="432.490075"/>
     <use style="fill:#2792cb;stroke:#2792cb;" x="998.9605" xlink:href="#mfa37dee485" y="427.246037"/>
     <use style="fill:#2792cb;stroke:#2792cb;" x="1003.746091" xlink:href="#mfa37dee485" y="424.210014"/>
     <use style="fill:#2792cb;stroke:#2792cb;" x="1018.102867" xlink:href="#mfa37dee485" y="419.793982"/>
     <use style="fill:#2792cb;stroke:#2792cb;" x="1022.888458" xlink:href="#mfa37dee485" y="416.205955"/>
     <use style="fill:#2792cb;stroke:#2792cb;" x="1027.67405" xlink:href="#mfa37dee485" y="414.825945"/>
     <use style="fill:#2792cb;stroke:#2792cb;" x="1032.459642" xlink:href="#mfa37dee485" y="414.825945"/>
     <use style="fill:#2792cb;stroke:#2792cb;" x="1037.245234" xlink:href="#mfa37dee485" y="412.341927"/>
     <use style="fill:#2792cb;stroke:#2792cb;" x="1051.602009" xlink:href="#mfa37dee485" y="407.925895"/>
     <use style="fill:#2792cb;stroke:#2792cb;" x="1056.387601" xlink:href="#mfa37dee485" y="413.445935"/>
     <use style="fill:#2792cb;stroke:#2792cb;" x="1061.173193" xlink:href="#mfa37dee485" y="405.99388"/>
     <use style="fill:#2792cb;stroke:#2792cb;" x="1065.958784" xlink:href="#mfa37dee485" y="408.477899"/>
     <use style="fill:#2792cb;stroke:#2792cb;" x="1070.744376" xlink:href="#mfa37dee485" y="402.957858"/>
     <use style="fill:#2792cb;stroke:#2792cb;" x="1085.101151" xlink:href="#mfa37dee485" y="397.437817"/>
     <use style="fill:#2792cb;stroke:#2792cb;" x="1089.886743" xlink:href="#mfa37dee485" y="382.80971"/>
     <use style="fill:#2792cb;stroke:#2792cb;" x="1123.385886" xlink:href="#mfa37dee485" y="326.229294"/>
     <use style="fill:#2792cb;stroke:#2792cb;" x="1128.171477" xlink:href="#mfa37dee485" y="315.465215"/>
    </g>
   </g>
   <g id="patch_3">
    <path d="M 62.89875 501.738984 
L 1178.89875 501.738984 
" style="fill:none;stroke:#000000;stroke-linecap:square;stroke-linejoin:miter;stroke-width:0.8;"/>
   </g>
   <g id="legend_1">
    <g id="line2d_46">
     <path d="M 1091.653438 25.237422 
L 1111.653438 25.237422 
" style="fill:none;stroke:#dbcd00;stroke-linecap:square;stroke-width:2;"/>
    </g>
    <g id="line2d_47">
     <g>
      <use style="fill:#dbcd00;stroke:#dbcd00;" x="1101.653438" xlink:href="#m5ae67a1279" y="25.237422"/>
     </g>
    </g>
    <g id="text_27">
     <!-- Genesene -->
     <defs>
      <path d="M 59.515625 10.40625 
L 59.515625 29.984375 
L 43.40625 29.984375 
L 43.40625 38.09375 
L 69.28125 38.09375 
L 69.28125 6.78125 
Q 63.578125 2.734375 56.6875 0.65625 
Q 49.8125 -1.421875 42 -1.421875 
Q 24.90625 -1.421875 15.25 8.5625 
Q 5.609375 18.5625 5.609375 36.375 
Q 5.609375 54.25 15.25 64.234375 
Q 24.90625 74.21875 42 74.21875 
Q 49.125 74.21875 55.546875 72.453125 
Q 61.96875 70.703125 67.390625 67.28125 
L 67.390625 56.78125 
Q 61.921875 61.421875 55.765625 63.765625 
Q 49.609375 66.109375 42.828125 66.109375 
Q 29.4375 66.109375 22.71875 58.640625 
Q 16.015625 51.171875 16.015625 36.375 
Q 16.015625 21.625 22.71875 14.15625 
Q 29.4375 6.6875 42.828125 6.6875 
Q 48.046875 6.6875 52.140625 7.59375 
Q 56.25 8.5 59.515625 10.40625 
z
" id="DejaVuSans-71"/>
      <path d="M 44.28125 53.078125 
L 44.28125 44.578125 
Q 40.484375 46.53125 36.375 47.5 
Q 32.28125 48.484375 27.875 48.484375 
Q 21.1875 48.484375 17.84375 46.4375 
Q 14.5 44.390625 14.5 40.28125 
Q 14.5 37.15625 16.890625 35.375 
Q 19.28125 33.59375 26.515625 31.984375 
L 29.59375 31.296875 
Q 39.15625 29.25 43.1875 25.515625 
Q 47.21875 21.78125 47.21875 15.09375 
Q 47.21875 7.46875 41.1875 3.015625 
Q 35.15625 -1.421875 24.609375 -1.421875 
Q 20.21875 -1.421875 15.453125 -0.5625 
Q 10.6875 0.296875 5.421875 2 
L 5.421875 11.28125 
Q 10.40625 8.6875 15.234375 7.390625 
Q 20.0625 6.109375 24.8125 6.109375 
Q 31.15625 6.109375 34.5625 8.28125 
Q 37.984375 10.453125 37.984375 14.40625 
Q 37.984375 18.0625 35.515625 20.015625 
Q 33.0625 21.96875 24.703125 23.78125 
L 21.578125 24.515625 
Q 13.234375 26.265625 9.515625 29.90625 
Q 5.8125 33.546875 5.8125 39.890625 
Q 5.8125 47.609375 11.28125 51.796875 
Q 16.75 56 26.8125 56 
Q 31.78125 56 36.171875 55.265625 
Q 40.578125 54.546875 44.28125 53.078125 
z
" id="DejaVuSans-115"/>
     </defs>
     <g transform="translate(1119.653438 28.737422)scale(0.1 -0.1)">
      <use xlink:href="#DejaVuSans-71"/>
      <use x="77.490234" xlink:href="#DejaVuSans-101"/>
      <use x="139.013672" xlink:href="#DejaVuSans-110"/>
      <use x="202.392578" xlink:href="#DejaVuSans-101"/>
      <use x="263.916016" xlink:href="#DejaVuSans-115"/>
      <use x="316.015625" xlink:href="#DejaVuSans-101"/>
      <use x="377.539062" xlink:href="#DejaVuSans-110"/>
      <use x="440.917969" xlink:href="#DejaVuSans-101"/>
     </g>
    </g>
    <g id="line2d_48">
     <path d="M 1091.653438 39.915547 
L 1111.653438 39.915547 
" style="fill:none;stroke:#2792cb;stroke-linecap:square;stroke-width:2;"/>
    </g>
    <g id="line2d_49">
     <g>
      <use style="fill:#2792cb;stroke:#2792cb;" x="1101.653438" xlink:href="#mfa37dee485" y="39.915547"/>
     </g>
    </g>
    <g id="text_28">
     <!-- Erkrankte -->
     <defs>
      <path d="M 9.8125 72.90625 
L 55.90625 72.90625 
L 55.90625 64.59375 
L 19.671875 64.59375 
L 19.671875 43.015625 
L 54.390625 43.015625 
L 54.390625 34.71875 
L 19.671875 34.71875 
L 19.671875 8.296875 
L 56.78125 8.296875 
L 56.78125 0 
L 9.8125 0 
z
" id="DejaVuSans-69"/>
      <path d="M 41.109375 46.296875 
Q 39.59375 47.171875 37.8125 47.578125 
Q 36.03125 48 33.890625 48 
Q 26.265625 48 22.1875 43.046875 
Q 18.109375 38.09375 18.109375 28.8125 
L 18.109375 0 
L 9.078125 0 
L 9.078125 54.6875 
L 18.109375 54.6875 
L 18.109375 46.1875 
Q 20.953125 51.171875 25.484375 53.578125 
Q 30.03125 56 36.53125 56 
Q 37.453125 56 38.578125 55.875 
Q 39.703125 55.765625 41.0625 55.515625 
z
" id="DejaVuSans-114"/>
      <path d="M 9.078125 75.984375 
L 18.109375 75.984375 
L 18.109375 31.109375 
L 44.921875 54.6875 
L 56.390625 54.6875 
L 27.390625 29.109375 
L 57.625 0 
L 45.90625 0 
L 18.109375 26.703125 
L 18.109375 0 
L 9.078125 0 
z
" id="DejaVuSans-107"/>
      <path d="M 18.3125 70.21875 
L 18.3125 54.6875 
L 36.8125 54.6875 
L 36.8125 47.703125 
L 18.3125 47.703125 
L 18.3125 18.015625 
Q 18.3125 11.328125 20.140625 9.421875 
Q 21.96875 7.515625 27.59375 7.515625 
L 36.8125 7.515625 
L 36.8125 0 
L 27.59375 0 
Q 17.1875 0 13.234375 3.875 
Q 9.28125 7.765625 9.28125 18.015625 
L 9.28125 47.703125 
L 2.6875 47.703125 
L 2.6875 54.6875 
L 9.28125 54.6875 
L 9.28125 70.21875 
z
" id="DejaVuSans-116"/>
     </defs>
     <g transform="translate(1119.653438 43.415547)scale(0.1 -0.1)">
      <use xlink:href="#DejaVuSans-69"/>
      <use x="63.183594" xlink:href="#DejaVuSans-114"/>
      <use x="104.296875" xlink:href="#DejaVuSans-107"/>
      <use x="162.207031" xlink:href="#DejaVuSans-114"/>
      <use x="203.320312" xlink:href="#DejaVuSans-97"/>
      <use x="264.599609" xlink:href="#DejaVuSans-110"/>
      <use x="327.978516" xlink:href="#DejaVuSans-107"/>
      <use x="385.888672" xlink:href="#DejaVuSans-116"/>
      <use x="425.097656" xlink:href="#DejaVuSans-101"/>
     </g>
    </g>
   </g>
  </g>
 </g>
 <defs>
  <clipPath id="p324d5f5321">
   <rect height="489.6" width="1116" x="62.89875" y="12.138984"/>
  </clipPath>
 </defs>
</svg>
