<?xml version="1.0" encoding="utf-8" standalone="no"?>
<!DOCTYPE svg PUBLIC "-//W3C//DTD SVG 1.1//EN"
  "http://www.w3.org/Graphics/SVG/1.1/DTD/svg11.dtd">
<!-- Created with matplotlib (https://matplotlib.org/) -->
<svg height="553.993765pt" version="1.1" viewBox="0 0 1186.09875 553.993765" width="1186.09875pt" xmlns="http://www.w3.org/2000/svg" xmlns:xlink="http://www.w3.org/1999/xlink">
 <defs>
  <style type="text/css">
*{stroke-linecap:butt;stroke-linejoin:round;}
  </style>
 </defs>
 <g id="figure_1">
  <g id="patch_1">
   <path d="M 0 553.993765 
L 1186.09875 553.993765 
L 1186.09875 0 
L 0 0 
z
" style="fill:#ffffff;"/>
  </g>
  <g id="axes_1">
   <g id="patch_2">
    <path d="M 62.89875 501.738984 
L 1178.89875 501.738984 
L 1178.89875 12.138984 
L 62.89875 12.138984 
z
" style="fill:#ffffff;"/>
   </g>
   <g id="matplotlib.axis_1">
    <g id="xtick_1">
     <g id="line2d_1">
      <defs>
       <path d="M 0 0 
L 0 3.5 
" id="ma60debfef8" style="stroke:#000000;stroke-width:0.8;"/>
      </defs>
      <g>
       <use style="stroke:#000000;stroke-width:0.8;" x="169.64387" xlink:href="#ma60debfef8" y="501.738984"/>
      </g>
     </g>
     <g id="text_1">
      <!-- 2020-04 -->
      <defs>
       <path d="M 19.1875 8.296875 
L 53.609375 8.296875 
L 53.609375 0 
L 7.328125 0 
L 7.328125 8.296875 
Q 12.9375 14.109375 22.625 23.890625 
Q 32.328125 33.6875 34.8125 36.53125 
Q 39.546875 41.84375 41.421875 45.53125 
Q 43.3125 49.21875 43.3125 52.78125 
Q 43.3125 58.59375 39.234375 62.25 
Q 35.15625 65.921875 28.609375 65.921875 
Q 23.96875 65.921875 18.8125 64.3125 
Q 13.671875 62.703125 7.8125 59.421875 
L 7.8125 69.390625 
Q 13.765625 71.78125 18.9375 73 
Q 24.125 74.21875 28.421875 74.21875 
Q 39.75 74.21875 46.484375 68.546875 
Q 53.21875 62.890625 53.21875 53.421875 
Q 53.21875 48.921875 51.53125 44.890625 
Q 49.859375 40.875 45.40625 35.40625 
Q 44.1875 33.984375 37.640625 27.21875 
Q 31.109375 20.453125 19.1875 8.296875 
z
" id="DejaVuSans-50"/>
       <path d="M 31.78125 66.40625 
Q 24.171875 66.40625 20.328125 58.90625 
Q 16.5 51.421875 16.5 36.375 
Q 16.5 21.390625 20.328125 13.890625 
Q 24.171875 6.390625 31.78125 6.390625 
Q 39.453125 6.390625 43.28125 13.890625 
Q 47.125 21.390625 47.125 36.375 
Q 47.125 51.421875 43.28125 58.90625 
Q 39.453125 66.40625 31.78125 66.40625 
z
M 31.78125 74.21875 
Q 44.046875 74.21875 50.515625 64.515625 
Q 56.984375 54.828125 56.984375 36.375 
Q 56.984375 17.96875 50.515625 8.265625 
Q 44.046875 -1.421875 31.78125 -1.421875 
Q 19.53125 -1.421875 13.0625 8.265625 
Q 6.59375 17.96875 6.59375 36.375 
Q 6.59375 54.828125 13.0625 64.515625 
Q 19.53125 74.21875 31.78125 74.21875 
z
" id="DejaVuSans-48"/>
       <path d="M 4.890625 31.390625 
L 31.203125 31.390625 
L 31.203125 23.390625 
L 4.890625 23.390625 
z
" id="DejaVuSans-45"/>
       <path d="M 37.796875 64.3125 
L 12.890625 25.390625 
L 37.796875 25.390625 
z
M 35.203125 72.90625 
L 47.609375 72.90625 
L 47.609375 25.390625 
L 58.015625 25.390625 
L 58.015625 17.1875 
L 47.609375 17.1875 
L 47.609375 0 
L 37.796875 0 
L 37.796875 17.1875 
L 4.890625 17.1875 
L 4.890625 26.703125 
z
" id="DejaVuSans-52"/>
      </defs>
      <g transform="translate(121.251603 544.452384)rotate(-30)scale(0.13 -0.13)">
       <use xlink:href="#DejaVuSans-50"/>
       <use x="63.623047" xlink:href="#DejaVuSans-48"/>
       <use x="127.246094" xlink:href="#DejaVuSans-50"/>
       <use x="190.869141" xlink:href="#DejaVuSans-48"/>
       <use x="254.492188" xlink:href="#DejaVuSans-45"/>
       <use x="290.576172" xlink:href="#DejaVuSans-48"/>
       <use x="354.199219" xlink:href="#DejaVuSans-52"/>
      </g>
     </g>
    </g>
    <g id="xtick_2">
     <g id="line2d_2">
      <g>
       <use style="stroke:#000000;stroke-width:0.8;" x="356.370027" xlink:href="#ma60debfef8" y="501.738984"/>
      </g>
     </g>
     <g id="text_2">
      <!-- 2020-05 -->
      <defs>
       <path d="M 10.796875 72.90625 
L 49.515625 72.90625 
L 49.515625 64.59375 
L 19.828125 64.59375 
L 19.828125 46.734375 
Q 21.96875 47.46875 24.109375 47.828125 
Q 26.265625 48.1875 28.421875 48.1875 
Q 40.625 48.1875 47.75 41.5 
Q 54.890625 34.8125 54.890625 23.390625 
Q 54.890625 11.625 47.5625 5.09375 
Q 40.234375 -1.421875 26.90625 -1.421875 
Q 22.3125 -1.421875 17.546875 -0.640625 
Q 12.796875 0.140625 7.71875 1.703125 
L 7.71875 11.625 
Q 12.109375 9.234375 16.796875 8.0625 
Q 21.484375 6.890625 26.703125 6.890625 
Q 35.15625 6.890625 40.078125 11.328125 
Q 45.015625 15.765625 45.015625 23.390625 
Q 45.015625 31 40.078125 35.4375 
Q 35.15625 39.890625 26.703125 39.890625 
Q 22.75 39.890625 18.8125 39.015625 
Q 14.890625 38.140625 10.796875 36.28125 
z
" id="DejaVuSans-53"/>
      </defs>
      <g transform="translate(307.97776 544.452384)rotate(-30)scale(0.13 -0.13)">
       <use xlink:href="#DejaVuSans-50"/>
       <use x="63.623047" xlink:href="#DejaVuSans-48"/>
       <use x="127.246094" xlink:href="#DejaVuSans-50"/>
       <use x="190.869141" xlink:href="#DejaVuSans-48"/>
       <use x="254.492188" xlink:href="#DejaVuSans-45"/>
       <use x="290.576172" xlink:href="#DejaVuSans-48"/>
       <use x="354.199219" xlink:href="#DejaVuSans-53"/>
      </g>
     </g>
    </g>
    <g id="xtick_3">
     <g id="line2d_3">
      <g>
       <use style="stroke:#000000;stroke-width:0.8;" x="549.32039" xlink:href="#ma60debfef8" y="501.738984"/>
      </g>
     </g>
     <g id="text_3">
      <!-- 2020-06 -->
      <defs>
       <path d="M 33.015625 40.375 
Q 26.375 40.375 22.484375 35.828125 
Q 18.609375 31.296875 18.609375 23.390625 
Q 18.609375 15.53125 22.484375 10.953125 
Q 26.375 6.390625 33.015625 6.390625 
Q 39.65625 6.390625 43.53125 10.953125 
Q 47.40625 15.53125 47.40625 23.390625 
Q 47.40625 31.296875 43.53125 35.828125 
Q 39.65625 40.375 33.015625 40.375 
z
M 52.59375 71.296875 
L 52.59375 62.3125 
Q 48.875 64.0625 45.09375 64.984375 
Q 41.3125 65.921875 37.59375 65.921875 
Q 27.828125 65.921875 22.671875 59.328125 
Q 17.53125 52.734375 16.796875 39.40625 
Q 19.671875 43.65625 24.015625 45.921875 
Q 28.375 48.1875 33.59375 48.1875 
Q 44.578125 48.1875 50.953125 41.515625 
Q 57.328125 34.859375 57.328125 23.390625 
Q 57.328125 12.15625 50.6875 5.359375 
Q 44.046875 -1.421875 33.015625 -1.421875 
Q 20.359375 -1.421875 13.671875 8.265625 
Q 6.984375 17.96875 6.984375 36.375 
Q 6.984375 53.65625 15.1875 63.9375 
Q 23.390625 74.21875 37.203125 74.21875 
Q 40.921875 74.21875 44.703125 73.484375 
Q 48.484375 72.75 52.59375 71.296875 
z
" id="DejaVuSans-54"/>
      </defs>
      <g transform="translate(500.928123 544.452384)rotate(-30)scale(0.13 -0.13)">
       <use xlink:href="#DejaVuSans-50"/>
       <use x="63.623047" xlink:href="#DejaVuSans-48"/>
       <use x="127.246094" xlink:href="#DejaVuSans-50"/>
       <use x="190.869141" xlink:href="#DejaVuSans-48"/>
       <use x="254.492188" xlink:href="#DejaVuSans-45"/>
       <use x="290.576172" xlink:href="#DejaVuSans-48"/>
       <use x="354.199219" xlink:href="#DejaVuSans-54"/>
      </g>
     </g>
    </g>
    <g id="xtick_4">
     <g id="line2d_4">
      <g>
       <use style="stroke:#000000;stroke-width:0.8;" x="736.046547" xlink:href="#ma60debfef8" y="501.738984"/>
      </g>
     </g>
     <g id="text_4">
      <!-- 2020-07 -->
      <defs>
       <path d="M 8.203125 72.90625 
L 55.078125 72.90625 
L 55.078125 68.703125 
L 28.609375 0 
L 18.3125 0 
L 43.21875 64.59375 
L 8.203125 64.59375 
z
" id="DejaVuSans-55"/>
      </defs>
      <g transform="translate(687.65428 544.452384)rotate(-30)scale(0.13 -0.13)">
       <use xlink:href="#DejaVuSans-50"/>
       <use x="63.623047" xlink:href="#DejaVuSans-48"/>
       <use x="127.246094" xlink:href="#DejaVuSans-50"/>
       <use x="190.869141" xlink:href="#DejaVuSans-48"/>
       <use x="254.492188" xlink:href="#DejaVuSans-45"/>
       <use x="290.576172" xlink:href="#DejaVuSans-48"/>
       <use x="354.199219" xlink:href="#DejaVuSans-55"/>
      </g>
     </g>
    </g>
    <g id="xtick_5">
     <g id="line2d_5">
      <g>
       <use style="stroke:#000000;stroke-width:0.8;" x="928.99691" xlink:href="#ma60debfef8" y="501.738984"/>
      </g>
     </g>
     <g id="text_5">
      <!-- 2020-08 -->
      <defs>
       <path d="M 31.78125 34.625 
Q 24.75 34.625 20.71875 30.859375 
Q 16.703125 27.09375 16.703125 20.515625 
Q 16.703125 13.921875 20.71875 10.15625 
Q 24.75 6.390625 31.78125 6.390625 
Q 38.8125 6.390625 42.859375 10.171875 
Q 46.921875 13.96875 46.921875 20.515625 
Q 46.921875 27.09375 42.890625 30.859375 
Q 38.875 34.625 31.78125 34.625 
z
M 21.921875 38.8125 
Q 15.578125 40.375 12.03125 44.71875 
Q 8.5 49.078125 8.5 55.328125 
Q 8.5 64.0625 14.71875 69.140625 
Q 20.953125 74.21875 31.78125 74.21875 
Q 42.671875 74.21875 48.875 69.140625 
Q 55.078125 64.0625 55.078125 55.328125 
Q 55.078125 49.078125 51.53125 44.71875 
Q 48 40.375 41.703125 38.8125 
Q 48.828125 37.15625 52.796875 32.3125 
Q 56.78125 27.484375 56.78125 20.515625 
Q 56.78125 9.90625 50.3125 4.234375 
Q 43.84375 -1.421875 31.78125 -1.421875 
Q 19.734375 -1.421875 13.25 4.234375 
Q 6.78125 9.90625 6.78125 20.515625 
Q 6.78125 27.484375 10.78125 32.3125 
Q 14.796875 37.15625 21.921875 38.8125 
z
M 18.3125 54.390625 
Q 18.3125 48.734375 21.84375 45.5625 
Q 25.390625 42.390625 31.78125 42.390625 
Q 38.140625 42.390625 41.71875 45.5625 
Q 45.3125 48.734375 45.3125 54.390625 
Q 45.3125 60.0625 41.71875 63.234375 
Q 38.140625 66.40625 31.78125 66.40625 
Q 25.390625 66.40625 21.84375 63.234375 
Q 18.3125 60.0625 18.3125 54.390625 
z
" id="DejaVuSans-56"/>
      </defs>
      <g transform="translate(880.604642 544.452384)rotate(-30)scale(0.13 -0.13)">
       <use xlink:href="#DejaVuSans-50"/>
       <use x="63.623047" xlink:href="#DejaVuSans-48"/>
       <use x="127.246094" xlink:href="#DejaVuSans-50"/>
       <use x="190.869141" xlink:href="#DejaVuSans-48"/>
       <use x="254.492188" xlink:href="#DejaVuSans-45"/>
       <use x="290.576172" xlink:href="#DejaVuSans-48"/>
       <use x="354.199219" xlink:href="#DejaVuSans-56"/>
      </g>
     </g>
    </g>
    <g id="xtick_6">
     <g id="line2d_6">
      <g>
       <use style="stroke:#000000;stroke-width:0.8;" x="1121.947272" xlink:href="#ma60debfef8" y="501.738984"/>
      </g>
     </g>
     <g id="text_6">
      <!-- 2020-09 -->
      <defs>
       <path d="M 10.984375 1.515625 
L 10.984375 10.5 
Q 14.703125 8.734375 18.5 7.8125 
Q 22.3125 6.890625 25.984375 6.890625 
Q 35.75 6.890625 40.890625 13.453125 
Q 46.046875 20.015625 46.78125 33.40625 
Q 43.953125 29.203125 39.59375 26.953125 
Q 35.25 24.703125 29.984375 24.703125 
Q 19.046875 24.703125 12.671875 31.3125 
Q 6.296875 37.9375 6.296875 49.421875 
Q 6.296875 60.640625 12.9375 67.421875 
Q 19.578125 74.21875 30.609375 74.21875 
Q 43.265625 74.21875 49.921875 64.515625 
Q 56.59375 54.828125 56.59375 36.375 
Q 56.59375 19.140625 48.40625 8.859375 
Q 40.234375 -1.421875 26.421875 -1.421875 
Q 22.703125 -1.421875 18.890625 -0.6875 
Q 15.09375 0.046875 10.984375 1.515625 
z
M 30.609375 32.421875 
Q 37.25 32.421875 41.125 36.953125 
Q 45.015625 41.5 45.015625 49.421875 
Q 45.015625 57.28125 41.125 61.84375 
Q 37.25 66.40625 30.609375 66.40625 
Q 23.96875 66.40625 20.09375 61.84375 
Q 16.21875 57.28125 16.21875 49.421875 
Q 16.21875 41.5 20.09375 36.953125 
Q 23.96875 32.421875 30.609375 32.421875 
z
" id="DejaVuSans-57"/>
      </defs>
      <g transform="translate(1073.555005 544.452384)rotate(-30)scale(0.13 -0.13)">
       <use xlink:href="#DejaVuSans-50"/>
       <use x="63.623047" xlink:href="#DejaVuSans-48"/>
       <use x="127.246094" xlink:href="#DejaVuSans-50"/>
       <use x="190.869141" xlink:href="#DejaVuSans-48"/>
       <use x="254.492188" xlink:href="#DejaVuSans-45"/>
       <use x="290.576172" xlink:href="#DejaVuSans-48"/>
       <use x="354.199219" xlink:href="#DejaVuSans-57"/>
      </g>
     </g>
    </g>
   </g>
   <g id="matplotlib.axis_2">
    <g id="ytick_1">
     <g id="line2d_7">
      <path clip-path="url(#pf06524c7db)" d="M 62.89875 480.277748 
L 1178.89875 480.277748 
" style="fill:none;stroke:#b0b0b0;stroke-linecap:square;stroke-width:0.8;"/>
     </g>
     <g id="line2d_8">
      <defs>
       <path d="M 0 0 
L -3.5 0 
" id="madeb0415e5" style="stroke:#000000;stroke-width:0.8;"/>
      </defs>
      <g>
       <use style="stroke:#000000;stroke-width:0.8;" x="62.89875" xlink:href="#madeb0415e5" y="480.277748"/>
      </g>
     </g>
     <g id="text_7">
      <!-- 0 -->
      <g transform="translate(47.6275 485.216732)scale(0.13 -0.13)">
       <use xlink:href="#DejaVuSans-48"/>
      </g>
     </g>
    </g>
    <g id="ytick_2">
     <g id="line2d_9">
      <path clip-path="url(#pf06524c7db)" d="M 62.89875 451.019075 
L 1178.89875 451.019075 
" style="fill:none;stroke:#b0b0b0;stroke-linecap:square;stroke-width:0.8;"/>
     </g>
     <g id="line2d_10">
      <g>
       <use style="stroke:#000000;stroke-width:0.8;" x="62.89875" xlink:href="#madeb0415e5" y="451.019075"/>
      </g>
     </g>
     <g id="text_8">
      <!-- 100 -->
      <defs>
       <path d="M 12.40625 8.296875 
L 28.515625 8.296875 
L 28.515625 63.921875 
L 10.984375 60.40625 
L 10.984375 69.390625 
L 28.421875 72.90625 
L 38.28125 72.90625 
L 38.28125 8.296875 
L 54.390625 8.296875 
L 54.390625 0 
L 12.40625 0 
z
" id="DejaVuSans-49"/>
      </defs>
      <g transform="translate(31.085 455.95806)scale(0.13 -0.13)">
       <use xlink:href="#DejaVuSans-49"/>
       <use x="63.623047" xlink:href="#DejaVuSans-48"/>
       <use x="127.246094" xlink:href="#DejaVuSans-48"/>
      </g>
     </g>
    </g>
    <g id="ytick_3">
     <g id="line2d_11">
      <path clip-path="url(#pf06524c7db)" d="M 62.89875 421.760402 
L 1178.89875 421.760402 
" style="fill:none;stroke:#b0b0b0;stroke-linecap:square;stroke-width:0.8;"/>
     </g>
     <g id="line2d_12">
      <g>
       <use style="stroke:#000000;stroke-width:0.8;" x="62.89875" xlink:href="#madeb0415e5" y="421.760402"/>
      </g>
     </g>
     <g id="text_9">
      <!-- 200 -->
      <g transform="translate(31.085 426.699387)scale(0.13 -0.13)">
       <use xlink:href="#DejaVuSans-50"/>
       <use x="63.623047" xlink:href="#DejaVuSans-48"/>
       <use x="127.246094" xlink:href="#DejaVuSans-48"/>
      </g>
     </g>
    </g>
    <g id="ytick_4">
     <g id="line2d_13">
      <path clip-path="url(#pf06524c7db)" d="M 62.89875 392.50173 
L 1178.89875 392.50173 
" style="fill:none;stroke:#b0b0b0;stroke-linecap:square;stroke-width:0.8;"/>
     </g>
     <g id="line2d_14">
      <g>
       <use style="stroke:#000000;stroke-width:0.8;" x="62.89875" xlink:href="#madeb0415e5" y="392.50173"/>
      </g>
     </g>
     <g id="text_10">
      <!-- 300 -->
      <defs>
       <path d="M 40.578125 39.3125 
Q 47.65625 37.796875 51.625 33 
Q 55.609375 28.21875 55.609375 21.1875 
Q 55.609375 10.40625 48.1875 4.484375 
Q 40.765625 -1.421875 27.09375 -1.421875 
Q 22.515625 -1.421875 17.65625 -0.515625 
Q 12.796875 0.390625 7.625 2.203125 
L 7.625 11.71875 
Q 11.71875 9.328125 16.59375 8.109375 
Q 21.484375 6.890625 26.8125 6.890625 
Q 36.078125 6.890625 40.9375 10.546875 
Q 45.796875 14.203125 45.796875 21.1875 
Q 45.796875 27.640625 41.28125 31.265625 
Q 36.765625 34.90625 28.71875 34.90625 
L 20.21875 34.90625 
L 20.21875 43.015625 
L 29.109375 43.015625 
Q 36.375 43.015625 40.234375 45.921875 
Q 44.09375 48.828125 44.09375 54.296875 
Q 44.09375 59.90625 40.109375 62.90625 
Q 36.140625 65.921875 28.71875 65.921875 
Q 24.65625 65.921875 20.015625 65.03125 
Q 15.375 64.15625 9.8125 62.3125 
L 9.8125 71.09375 
Q 15.4375 72.65625 20.34375 73.4375 
Q 25.25 74.21875 29.59375 74.21875 
Q 40.828125 74.21875 47.359375 69.109375 
Q 53.90625 64.015625 53.90625 55.328125 
Q 53.90625 49.265625 50.4375 45.09375 
Q 46.96875 40.921875 40.578125 39.3125 
z
" id="DejaVuSans-51"/>
      </defs>
      <g transform="translate(31.085 397.440714)scale(0.13 -0.13)">
       <use xlink:href="#DejaVuSans-51"/>
       <use x="63.623047" xlink:href="#DejaVuSans-48"/>
       <use x="127.246094" xlink:href="#DejaVuSans-48"/>
      </g>
     </g>
    </g>
    <g id="ytick_5">
     <g id="line2d_15">
      <path clip-path="url(#pf06524c7db)" d="M 62.89875 363.243057 
L 1178.89875 363.243057 
" style="fill:none;stroke:#b0b0b0;stroke-linecap:square;stroke-width:0.8;"/>
     </g>
     <g id="line2d_16">
      <g>
       <use style="stroke:#000000;stroke-width:0.8;" x="62.89875" xlink:href="#madeb0415e5" y="363.243057"/>
      </g>
     </g>
     <g id="text_11">
      <!-- 400 -->
      <g transform="translate(31.085 368.182041)scale(0.13 -0.13)">
       <use xlink:href="#DejaVuSans-52"/>
       <use x="63.623047" xlink:href="#DejaVuSans-48"/>
       <use x="127.246094" xlink:href="#DejaVuSans-48"/>
      </g>
     </g>
    </g>
    <g id="ytick_6">
     <g id="line2d_17">
      <path clip-path="url(#pf06524c7db)" d="M 62.89875 333.984384 
L 1178.89875 333.984384 
" style="fill:none;stroke:#b0b0b0;stroke-linecap:square;stroke-width:0.8;"/>
     </g>
     <g id="line2d_18">
      <g>
       <use style="stroke:#000000;stroke-width:0.8;" x="62.89875" xlink:href="#madeb0415e5" y="333.984384"/>
      </g>
     </g>
     <g id="text_12">
      <!-- 500 -->
      <g transform="translate(31.085 338.923369)scale(0.13 -0.13)">
       <use xlink:href="#DejaVuSans-53"/>
       <use x="63.623047" xlink:href="#DejaVuSans-48"/>
       <use x="127.246094" xlink:href="#DejaVuSans-48"/>
      </g>
     </g>
    </g>
    <g id="ytick_7">
     <g id="line2d_19">
      <path clip-path="url(#pf06524c7db)" d="M 62.89875 304.725712 
L 1178.89875 304.725712 
" style="fill:none;stroke:#b0b0b0;stroke-linecap:square;stroke-width:0.8;"/>
     </g>
     <g id="line2d_20">
      <g>
       <use style="stroke:#000000;stroke-width:0.8;" x="62.89875" xlink:href="#madeb0415e5" y="304.725712"/>
      </g>
     </g>
     <g id="text_13">
      <!-- 600 -->
      <g transform="translate(31.085 309.664696)scale(0.13 -0.13)">
       <use xlink:href="#DejaVuSans-54"/>
       <use x="63.623047" xlink:href="#DejaVuSans-48"/>
       <use x="127.246094" xlink:href="#DejaVuSans-48"/>
      </g>
     </g>
    </g>
    <g id="ytick_8">
     <g id="line2d_21">
      <path clip-path="url(#pf06524c7db)" d="M 62.89875 275.467039 
L 1178.89875 275.467039 
" style="fill:none;stroke:#b0b0b0;stroke-linecap:square;stroke-width:0.8;"/>
     </g>
     <g id="line2d_22">
      <g>
       <use style="stroke:#000000;stroke-width:0.8;" x="62.89875" xlink:href="#madeb0415e5" y="275.467039"/>
      </g>
     </g>
     <g id="text_14">
      <!-- 700 -->
      <g transform="translate(31.085 280.406023)scale(0.13 -0.13)">
       <use xlink:href="#DejaVuSans-55"/>
       <use x="63.623047" xlink:href="#DejaVuSans-48"/>
       <use x="127.246094" xlink:href="#DejaVuSans-48"/>
      </g>
     </g>
    </g>
    <g id="ytick_9">
     <g id="line2d_23">
      <path clip-path="url(#pf06524c7db)" d="M 62.89875 246.208366 
L 1178.89875 246.208366 
" style="fill:none;stroke:#b0b0b0;stroke-linecap:square;stroke-width:0.8;"/>
     </g>
     <g id="line2d_24">
      <g>
       <use style="stroke:#000000;stroke-width:0.8;" x="62.89875" xlink:href="#madeb0415e5" y="246.208366"/>
      </g>
     </g>
     <g id="text_15">
      <!-- 800 -->
      <g transform="translate(31.085 251.147351)scale(0.13 -0.13)">
       <use xlink:href="#DejaVuSans-56"/>
       <use x="63.623047" xlink:href="#DejaVuSans-48"/>
       <use x="127.246094" xlink:href="#DejaVuSans-48"/>
      </g>
     </g>
    </g>
    <g id="ytick_10">
     <g id="line2d_25">
      <path clip-path="url(#pf06524c7db)" d="M 62.89875 216.949693 
L 1178.89875 216.949693 
" style="fill:none;stroke:#b0b0b0;stroke-linecap:square;stroke-width:0.8;"/>
     </g>
     <g id="line2d_26">
      <g>
       <use style="stroke:#000000;stroke-width:0.8;" x="62.89875" xlink:href="#madeb0415e5" y="216.949693"/>
      </g>
     </g>
     <g id="text_16">
      <!-- 900 -->
      <g transform="translate(31.085 221.888678)scale(0.13 -0.13)">
       <use xlink:href="#DejaVuSans-57"/>
       <use x="63.623047" xlink:href="#DejaVuSans-48"/>
       <use x="127.246094" xlink:href="#DejaVuSans-48"/>
      </g>
     </g>
    </g>
    <g id="ytick_11">
     <g id="line2d_27">
      <path clip-path="url(#pf06524c7db)" d="M 62.89875 187.691021 
L 1178.89875 187.691021 
" style="fill:none;stroke:#b0b0b0;stroke-linecap:square;stroke-width:0.8;"/>
     </g>
     <g id="line2d_28">
      <g>
       <use style="stroke:#000000;stroke-width:0.8;" x="62.89875" xlink:href="#madeb0415e5" y="187.691021"/>
      </g>
     </g>
     <g id="text_17">
      <!-- 1000 -->
      <g transform="translate(22.81375 192.630005)scale(0.13 -0.13)">
       <use xlink:href="#DejaVuSans-49"/>
       <use x="63.623047" xlink:href="#DejaVuSans-48"/>
       <use x="127.246094" xlink:href="#DejaVuSans-48"/>
       <use x="190.869141" xlink:href="#DejaVuSans-48"/>
      </g>
     </g>
    </g>
    <g id="ytick_12">
     <g id="line2d_29">
      <path clip-path="url(#pf06524c7db)" d="M 62.89875 158.432348 
L 1178.89875 158.432348 
" style="fill:none;stroke:#b0b0b0;stroke-linecap:square;stroke-width:0.8;"/>
     </g>
     <g id="line2d_30">
      <g>
       <use style="stroke:#000000;stroke-width:0.8;" x="62.89875" xlink:href="#madeb0415e5" y="158.432348"/>
      </g>
     </g>
     <g id="text_18">
      <!-- 1100 -->
      <g transform="translate(22.81375 163.371332)scale(0.13 -0.13)">
       <use xlink:href="#DejaVuSans-49"/>
       <use x="63.623047" xlink:href="#DejaVuSans-49"/>
       <use x="127.246094" xlink:href="#DejaVuSans-48"/>
       <use x="190.869141" xlink:href="#DejaVuSans-48"/>
      </g>
     </g>
    </g>
    <g id="ytick_13">
     <g id="line2d_31">
      <path clip-path="url(#pf06524c7db)" d="M 62.89875 129.173675 
L 1178.89875 129.173675 
" style="fill:none;stroke:#b0b0b0;stroke-linecap:square;stroke-width:0.8;"/>
     </g>
     <g id="line2d_32">
      <g>
       <use style="stroke:#000000;stroke-width:0.8;" x="62.89875" xlink:href="#madeb0415e5" y="129.173675"/>
      </g>
     </g>
     <g id="text_19">
      <!-- 1200 -->
      <g transform="translate(22.81375 134.11266)scale(0.13 -0.13)">
       <use xlink:href="#DejaVuSans-49"/>
       <use x="63.623047" xlink:href="#DejaVuSans-50"/>
       <use x="127.246094" xlink:href="#DejaVuSans-48"/>
       <use x="190.869141" xlink:href="#DejaVuSans-48"/>
      </g>
     </g>
    </g>
    <g id="ytick_14">
     <g id="line2d_33">
      <path clip-path="url(#pf06524c7db)" d="M 62.89875 99.915003 
L 1178.89875 99.915003 
" style="fill:none;stroke:#b0b0b0;stroke-linecap:square;stroke-width:0.8;"/>
     </g>
     <g id="line2d_34">
      <g>
       <use style="stroke:#000000;stroke-width:0.8;" x="62.89875" xlink:href="#madeb0415e5" y="99.915003"/>
      </g>
     </g>
     <g id="text_20">
      <!-- 1300 -->
      <g transform="translate(22.81375 104.853987)scale(0.13 -0.13)">
       <use xlink:href="#DejaVuSans-49"/>
       <use x="63.623047" xlink:href="#DejaVuSans-51"/>
       <use x="127.246094" xlink:href="#DejaVuSans-48"/>
       <use x="190.869141" xlink:href="#DejaVuSans-48"/>
      </g>
     </g>
    </g>
    <g id="ytick_15">
     <g id="line2d_35">
      <path clip-path="url(#pf06524c7db)" d="M 62.89875 70.65633 
L 1178.89875 70.65633 
" style="fill:none;stroke:#b0b0b0;stroke-linecap:square;stroke-width:0.8;"/>
     </g>
     <g id="line2d_36">
      <g>
       <use style="stroke:#000000;stroke-width:0.8;" x="62.89875" xlink:href="#madeb0415e5" y="70.65633"/>
      </g>
     </g>
     <g id="text_21">
      <!-- 1400 -->
      <g transform="translate(22.81375 75.595314)scale(0.13 -0.13)">
       <use xlink:href="#DejaVuSans-49"/>
       <use x="63.623047" xlink:href="#DejaVuSans-52"/>
       <use x="127.246094" xlink:href="#DejaVuSans-48"/>
       <use x="190.869141" xlink:href="#DejaVuSans-48"/>
      </g>
     </g>
    </g>
    <g id="ytick_16">
     <g id="line2d_37">
      <path clip-path="url(#pf06524c7db)" d="M 62.89875 41.397657 
L 1178.89875 41.397657 
" style="fill:none;stroke:#b0b0b0;stroke-linecap:square;stroke-width:0.8;"/>
     </g>
     <g id="line2d_38">
      <g>
       <use style="stroke:#000000;stroke-width:0.8;" x="62.89875" xlink:href="#madeb0415e5" y="41.397657"/>
      </g>
     </g>
     <g id="text_22">
      <!-- 1500 -->
      <g transform="translate(22.81375 46.336641)scale(0.13 -0.13)">
       <use xlink:href="#DejaVuSans-49"/>
       <use x="63.623047" xlink:href="#DejaVuSans-53"/>
       <use x="127.246094" xlink:href="#DejaVuSans-48"/>
       <use x="190.869141" xlink:href="#DejaVuSans-48"/>
      </g>
     </g>
    </g>
    <g id="ytick_17">
     <g id="line2d_39">
      <path clip-path="url(#pf06524c7db)" d="M 62.89875 12.138984 
L 1178.89875 12.138984 
" style="fill:none;stroke:#b0b0b0;stroke-linecap:square;stroke-width:0.8;"/>
     </g>
     <g id="line2d_40">
      <g>
       <use style="stroke:#000000;stroke-width:0.8;" x="62.89875" xlink:href="#madeb0415e5" y="12.138984"/>
      </g>
     </g>
     <g id="text_23">
      <!-- 1600 -->
      <g transform="translate(22.81375 17.077969)scale(0.13 -0.13)">
       <use xlink:href="#DejaVuSans-49"/>
       <use x="63.623047" xlink:href="#DejaVuSans-54"/>
       <use x="127.246094" xlink:href="#DejaVuSans-48"/>
       <use x="190.869141" xlink:href="#DejaVuSans-48"/>
      </g>
     </g>
    </g>
    <g id="text_24">
     <!-- Anzahl von Fällen -->
     <defs>
      <path d="M 34.1875 63.1875 
L 20.796875 26.90625 
L 47.609375 26.90625 
z
M 28.609375 72.90625 
L 39.796875 72.90625 
L 67.578125 0 
L 57.328125 0 
L 50.6875 18.703125 
L 17.828125 18.703125 
L 11.1875 0 
L 0.78125 0 
z
" id="DejaVuSans-65"/>
      <path d="M 54.890625 33.015625 
L 54.890625 0 
L 45.90625 0 
L 45.90625 32.71875 
Q 45.90625 40.484375 42.875 44.328125 
Q 39.84375 48.1875 33.796875 48.1875 
Q 26.515625 48.1875 22.3125 43.546875 
Q 18.109375 38.921875 18.109375 30.90625 
L 18.109375 0 
L 9.078125 0 
L 9.078125 54.6875 
L 18.109375 54.6875 
L 18.109375 46.1875 
Q 21.34375 51.125 25.703125 53.5625 
Q 30.078125 56 35.796875 56 
Q 45.21875 56 50.046875 50.171875 
Q 54.890625 44.34375 54.890625 33.015625 
z
" id="DejaVuSans-110"/>
      <path d="M 5.515625 54.6875 
L 48.1875 54.6875 
L 48.1875 46.484375 
L 14.40625 7.171875 
L 48.1875 7.171875 
L 48.1875 0 
L 4.296875 0 
L 4.296875 8.203125 
L 38.09375 47.515625 
L 5.515625 47.515625 
z
" id="DejaVuSans-122"/>
      <path d="M 34.28125 27.484375 
Q 23.390625 27.484375 19.1875 25 
Q 14.984375 22.515625 14.984375 16.5 
Q 14.984375 11.71875 18.140625 8.90625 
Q 21.296875 6.109375 26.703125 6.109375 
Q 34.1875 6.109375 38.703125 11.40625 
Q 43.21875 16.703125 43.21875 25.484375 
L 43.21875 27.484375 
z
M 52.203125 31.203125 
L 52.203125 0 
L 43.21875 0 
L 43.21875 8.296875 
Q 40.140625 3.328125 35.546875 0.953125 
Q 30.953125 -1.421875 24.3125 -1.421875 
Q 15.921875 -1.421875 10.953125 3.296875 
Q 6 8.015625 6 15.921875 
Q 6 25.140625 12.171875 29.828125 
Q 18.359375 34.515625 30.609375 34.515625 
L 43.21875 34.515625 
L 43.21875 35.40625 
Q 43.21875 41.609375 39.140625 45 
Q 35.0625 48.390625 27.6875 48.390625 
Q 23 48.390625 18.546875 47.265625 
Q 14.109375 46.140625 10.015625 43.890625 
L 10.015625 52.203125 
Q 14.9375 54.109375 19.578125 55.046875 
Q 24.21875 56 28.609375 56 
Q 40.484375 56 46.34375 49.84375 
Q 52.203125 43.703125 52.203125 31.203125 
z
" id="DejaVuSans-97"/>
      <path d="M 54.890625 33.015625 
L 54.890625 0 
L 45.90625 0 
L 45.90625 32.71875 
Q 45.90625 40.484375 42.875 44.328125 
Q 39.84375 48.1875 33.796875 48.1875 
Q 26.515625 48.1875 22.3125 43.546875 
Q 18.109375 38.921875 18.109375 30.90625 
L 18.109375 0 
L 9.078125 0 
L 9.078125 75.984375 
L 18.109375 75.984375 
L 18.109375 46.1875 
Q 21.34375 51.125 25.703125 53.5625 
Q 30.078125 56 35.796875 56 
Q 45.21875 56 50.046875 50.171875 
Q 54.890625 44.34375 54.890625 33.015625 
z
" id="DejaVuSans-104"/>
      <path d="M 9.421875 75.984375 
L 18.40625 75.984375 
L 18.40625 0 
L 9.421875 0 
z
" id="DejaVuSans-108"/>
      <path id="DejaVuSans-32"/>
      <path d="M 2.984375 54.6875 
L 12.5 54.6875 
L 29.59375 8.796875 
L 46.6875 54.6875 
L 56.203125 54.6875 
L 35.6875 0 
L 23.484375 0 
z
" id="DejaVuSans-118"/>
      <path d="M 30.609375 48.390625 
Q 23.390625 48.390625 19.1875 42.75 
Q 14.984375 37.109375 14.984375 27.296875 
Q 14.984375 17.484375 19.15625 11.84375 
Q 23.34375 6.203125 30.609375 6.203125 
Q 37.796875 6.203125 41.984375 11.859375 
Q 46.1875 17.53125 46.1875 27.296875 
Q 46.1875 37.015625 41.984375 42.703125 
Q 37.796875 48.390625 30.609375 48.390625 
z
M 30.609375 56 
Q 42.328125 56 49.015625 48.375 
Q 55.71875 40.765625 55.71875 27.296875 
Q 55.71875 13.875 49.015625 6.21875 
Q 42.328125 -1.421875 30.609375 -1.421875 
Q 18.84375 -1.421875 12.171875 6.21875 
Q 5.515625 13.875 5.515625 27.296875 
Q 5.515625 40.765625 12.171875 48.375 
Q 18.84375 56 30.609375 56 
z
" id="DejaVuSans-111"/>
      <path d="M 9.8125 72.90625 
L 51.703125 72.90625 
L 51.703125 64.59375 
L 19.671875 64.59375 
L 19.671875 43.109375 
L 48.578125 43.109375 
L 48.578125 34.8125 
L 19.671875 34.8125 
L 19.671875 0 
L 9.8125 0 
z
" id="DejaVuSans-70"/>
      <path d="M 34.28125 27.484375 
Q 23.390625 27.484375 19.1875 25 
Q 14.984375 22.515625 14.984375 16.5 
Q 14.984375 11.71875 18.140625 8.90625 
Q 21.296875 6.109375 26.703125 6.109375 
Q 34.1875 6.109375 38.703125 11.40625 
Q 43.21875 16.703125 43.21875 25.484375 
L 43.21875 27.484375 
z
M 52.203125 31.203125 
L 52.203125 0 
L 43.21875 0 
L 43.21875 8.296875 
Q 40.140625 3.328125 35.546875 0.953125 
Q 30.953125 -1.421875 24.3125 -1.421875 
Q 15.921875 -1.421875 10.953125 3.296875 
Q 6 8.015625 6 15.921875 
Q 6 25.140625 12.171875 29.828125 
Q 18.359375 34.515625 30.609375 34.515625 
L 43.21875 34.515625 
L 43.21875 35.40625 
Q 43.21875 41.609375 39.140625 45 
Q 35.0625 48.390625 27.6875 48.390625 
Q 23 48.390625 18.546875 47.265625 
Q 14.109375 46.140625 10.015625 43.890625 
L 10.015625 52.203125 
Q 14.9375 54.109375 19.578125 55.046875 
Q 24.21875 56 28.609375 56 
Q 40.484375 56 46.34375 49.84375 
Q 52.203125 43.703125 52.203125 31.203125 
z
M 33.59375 75.78125 
L 43.5 75.78125 
L 43.5 65.921875 
L 33.59375 65.921875 
z
M 14.5 75.78125 
L 24.40625 75.78125 
L 24.40625 65.921875 
L 14.5 65.921875 
z
" id="DejaVuSans-228"/>
      <path d="M 56.203125 29.59375 
L 56.203125 25.203125 
L 14.890625 25.203125 
Q 15.484375 15.921875 20.484375 11.0625 
Q 25.484375 6.203125 34.421875 6.203125 
Q 39.59375 6.203125 44.453125 7.46875 
Q 49.3125 8.734375 54.109375 11.28125 
L 54.109375 2.78125 
Q 49.265625 0.734375 44.1875 -0.34375 
Q 39.109375 -1.421875 33.890625 -1.421875 
Q 20.796875 -1.421875 13.15625 6.1875 
Q 5.515625 13.8125 5.515625 26.8125 
Q 5.515625 40.234375 12.765625 48.109375 
Q 20.015625 56 32.328125 56 
Q 43.359375 56 49.78125 48.890625 
Q 56.203125 41.796875 56.203125 29.59375 
z
M 47.21875 32.234375 
Q 47.125 39.59375 43.09375 43.984375 
Q 39.0625 48.390625 32.421875 48.390625 
Q 24.90625 48.390625 20.390625 44.140625 
Q 15.875 39.890625 15.1875 32.171875 
z
" id="DejaVuSans-101"/>
     </defs>
     <g transform="translate(16.318125 309.388359)rotate(-90)scale(0.12 -0.12)">
      <use xlink:href="#DejaVuSans-65"/>
      <use x="68.408203" xlink:href="#DejaVuSans-110"/>
      <use x="131.787109" xlink:href="#DejaVuSans-122"/>
      <use x="184.277344" xlink:href="#DejaVuSans-97"/>
      <use x="245.556641" xlink:href="#DejaVuSans-104"/>
      <use x="308.935547" xlink:href="#DejaVuSans-108"/>
      <use x="336.71875" xlink:href="#DejaVuSans-32"/>
      <use x="368.505859" xlink:href="#DejaVuSans-118"/>
      <use x="427.685547" xlink:href="#DejaVuSans-111"/>
      <use x="488.867188" xlink:href="#DejaVuSans-110"/>
      <use x="552.246094" xlink:href="#DejaVuSans-32"/>
      <use x="584.033203" xlink:href="#DejaVuSans-70"/>
      <use x="632.427734" xlink:href="#DejaVuSans-228"/>
      <use x="693.707031" xlink:href="#DejaVuSans-108"/>
      <use x="721.490234" xlink:href="#DejaVuSans-108"/>
      <use x="749.273438" xlink:href="#DejaVuSans-101"/>
      <use x="810.796875" xlink:href="#DejaVuSans-110"/>
     </g>
    </g>
   </g>
   <g id="line2d_41">
    <path clip-path="url(#pf06524c7db)" d="M 113.626023 478.522228 
L 119.850228 476.766707 
L 126.074433 472.96308 
L 132.298638 471.207559 
L 138.522844 464.478065 
L 144.747049 460.089264 
L 150.971254 454.237529 
L 157.195459 453.944942 
L 163.419665 438.730433 
L 169.64387 434.049045 
L 175.868075 427.904724 
L 182.09228 419.419709 
L 188.316486 415.908668 
L 194.540691 412.690214 
L 200.764896 406.838479 
L 206.989101 402.449678 
L 213.213307 396.305357 
L 219.437512 388.405516 
L 225.661717 382.846368 
L 231.885922 375.824286 
L 238.110128 370.850312 
L 250.558538 360.609776 
L 256.782743 352.417348 
L 263.006949 346.8582 
L 269.231154 337.495425 
L 275.455359 354.172868 
L 287.90377 303.847951 
L 294.127975 297.70363 
L 300.35218 285.414988 
L 306.576385 275.174452 
L 312.80059 262.008049 
L 319.024796 252.645274 
L 331.473206 239.186285 
L 337.697411 239.186285 
L 343.921617 226.312469 
L 350.145822 216.071933 
L 362.594232 204.953638 
L 375.042643 197.638969 
L 381.266848 192.372408 
L 387.491053 186.813261 
L 393.715259 183.30222 
L 399.939464 179.206006 
L 406.163669 172.183924 
L 418.61208 168.96547 
L 424.836285 166.33219 
L 431.06049 163.698909 
L 437.284695 159.310108 
L 443.508901 155.506481 
L 449.733106 150.23992 
L 462.181516 145.558532 
L 468.405722 142.925251 
L 474.629927 139.414211 
L 487.078337 132.684716 
L 493.302543 131.514369 
L 505.750953 129.466262 
L 511.975158 129.466262 
L 524.423569 125.955221 
L 530.647774 124.492288 
L 555.544595 122.151594 
L 561.7688 121.273834 
L 567.993005 121.273834 
L 574.217211 121.273834 
L 580.441416 120.68866 
L 592.889826 120.396073 
L 599.114032 120.396073 
L 605.338237 119.225727 
L 617.786647 118.93314 
L 624.010853 118.347966 
L 636.459263 118.05538 
L 648.907674 117.762793 
L 661.356084 117.762793 
L 667.580289 117.177619 
L 680.0287 116.592446 
L 686.252905 116.592446 
L 692.47711 115.714686 
L 698.701316 115.129512 
L 711.149726 113.959165 
L 723.598137 113.373992 
L 729.822342 112.496232 
L 736.046547 112.496232 
L 742.270752 112.496232 
L 748.494957 112.496232 
L 754.719163 112.496232 
L 767.167573 112.496232 
L 773.391778 112.496232 
L 779.615984 112.496232 
L 785.840189 112.203645 
L 792.064394 112.203645 
L 810.73701 111.618472 
L 816.961215 110.448125 
L 823.18542 110.448125 
L 829.409626 110.155538 
L 835.633831 109.862951 
L 854.306447 108.107431 
L 860.530652 108.107431 
L 866.754857 108.107431 
L 872.979062 108.107431 
L 879.203268 108.107431 
L 897.875883 106.937084 
L 904.100089 106.937084 
L 910.324294 106.937084 
L 916.548499 106.644497 
L 922.772704 106.351911 
L 985.014757 94.355855 
L 991.238962 92.892921 
L 1003.687372 91.137401 
L 1009.911578 90.844814 
L 1028.584193 84.700493 
L 1034.808399 81.774625 
L 1041.032604 77.385825 
L 1047.256809 76.215478 
L 1053.481014 75.922891 
L 1072.15363 66.852702 
L 1078.377835 63.926835 
L 1084.602041 62.756488 
L 1090.826246 61.000968 
L 1097.050451 59.538034 
L 1115.723067 53.6863 
L 1121.947272 52.223366 
L 1128.171477 51.053019 
" style="fill:none;stroke:#dbcd00;stroke-linecap:square;stroke-width:2;"/>
    <defs>
     <path d="M 0 1.5 
C 0.397805 1.5 0.77937 1.341951 1.06066 1.06066 
C 1.341951 0.77937 1.5 0.397805 1.5 0 
C 1.5 -0.397805 1.341951 -0.77937 1.06066 -1.06066 
C 0.77937 -1.341951 0.397805 -1.5 0 -1.5 
C -0.397805 -1.5 -0.77937 -1.341951 -1.06066 -1.06066 
C -1.341951 -0.77937 -1.5 -0.397805 -1.5 0 
C -1.5 0.397805 -1.341951 0.77937 -1.06066 1.06066 
C -0.77937 1.341951 -0.397805 1.5 0 1.5 
z
" id="m87f2cb2cdb" style="stroke:#dbcd00;"/>
    </defs>
    <g clip-path="url(#pf06524c7db)">
     <use style="fill:#dbcd00;stroke:#dbcd00;" x="113.626023" xlink:href="#m87f2cb2cdb" y="478.522228"/>
     <use style="fill:#dbcd00;stroke:#dbcd00;" x="119.850228" xlink:href="#m87f2cb2cdb" y="476.766707"/>
     <use style="fill:#dbcd00;stroke:#dbcd00;" x="126.074433" xlink:href="#m87f2cb2cdb" y="472.96308"/>
     <use style="fill:#dbcd00;stroke:#dbcd00;" x="132.298638" xlink:href="#m87f2cb2cdb" y="471.207559"/>
     <use style="fill:#dbcd00;stroke:#dbcd00;" x="138.522844" xlink:href="#m87f2cb2cdb" y="464.478065"/>
     <use style="fill:#dbcd00;stroke:#dbcd00;" x="144.747049" xlink:href="#m87f2cb2cdb" y="460.089264"/>
     <use style="fill:#dbcd00;stroke:#dbcd00;" x="150.971254" xlink:href="#m87f2cb2cdb" y="454.237529"/>
     <use style="fill:#dbcd00;stroke:#dbcd00;" x="157.195459" xlink:href="#m87f2cb2cdb" y="453.944942"/>
     <use style="fill:#dbcd00;stroke:#dbcd00;" x="163.419665" xlink:href="#m87f2cb2cdb" y="438.730433"/>
     <use style="fill:#dbcd00;stroke:#dbcd00;" x="169.64387" xlink:href="#m87f2cb2cdb" y="434.049045"/>
     <use style="fill:#dbcd00;stroke:#dbcd00;" x="175.868075" xlink:href="#m87f2cb2cdb" y="427.904724"/>
     <use style="fill:#dbcd00;stroke:#dbcd00;" x="182.09228" xlink:href="#m87f2cb2cdb" y="419.419709"/>
     <use style="fill:#dbcd00;stroke:#dbcd00;" x="188.316486" xlink:href="#m87f2cb2cdb" y="415.908668"/>
     <use style="fill:#dbcd00;stroke:#dbcd00;" x="194.540691" xlink:href="#m87f2cb2cdb" y="412.690214"/>
     <use style="fill:#dbcd00;stroke:#dbcd00;" x="200.764896" xlink:href="#m87f2cb2cdb" y="406.838479"/>
     <use style="fill:#dbcd00;stroke:#dbcd00;" x="206.989101" xlink:href="#m87f2cb2cdb" y="402.449678"/>
     <use style="fill:#dbcd00;stroke:#dbcd00;" x="213.213307" xlink:href="#m87f2cb2cdb" y="396.305357"/>
     <use style="fill:#dbcd00;stroke:#dbcd00;" x="219.437512" xlink:href="#m87f2cb2cdb" y="388.405516"/>
     <use style="fill:#dbcd00;stroke:#dbcd00;" x="225.661717" xlink:href="#m87f2cb2cdb" y="382.846368"/>
     <use style="fill:#dbcd00;stroke:#dbcd00;" x="231.885922" xlink:href="#m87f2cb2cdb" y="375.824286"/>
     <use style="fill:#dbcd00;stroke:#dbcd00;" x="238.110128" xlink:href="#m87f2cb2cdb" y="370.850312"/>
     <use style="fill:#dbcd00;stroke:#dbcd00;" x="250.558538" xlink:href="#m87f2cb2cdb" y="360.609776"/>
     <use style="fill:#dbcd00;stroke:#dbcd00;" x="256.782743" xlink:href="#m87f2cb2cdb" y="352.417348"/>
     <use style="fill:#dbcd00;stroke:#dbcd00;" x="263.006949" xlink:href="#m87f2cb2cdb" y="346.8582"/>
     <use style="fill:#dbcd00;stroke:#dbcd00;" x="269.231154" xlink:href="#m87f2cb2cdb" y="337.495425"/>
     <use style="fill:#dbcd00;stroke:#dbcd00;" x="275.455359" xlink:href="#m87f2cb2cdb" y="354.172868"/>
     <use style="fill:#dbcd00;stroke:#dbcd00;" x="287.90377" xlink:href="#m87f2cb2cdb" y="303.847951"/>
     <use style="fill:#dbcd00;stroke:#dbcd00;" x="294.127975" xlink:href="#m87f2cb2cdb" y="297.70363"/>
     <use style="fill:#dbcd00;stroke:#dbcd00;" x="300.35218" xlink:href="#m87f2cb2cdb" y="285.414988"/>
     <use style="fill:#dbcd00;stroke:#dbcd00;" x="306.576385" xlink:href="#m87f2cb2cdb" y="275.174452"/>
     <use style="fill:#dbcd00;stroke:#dbcd00;" x="312.80059" xlink:href="#m87f2cb2cdb" y="262.008049"/>
     <use style="fill:#dbcd00;stroke:#dbcd00;" x="319.024796" xlink:href="#m87f2cb2cdb" y="252.645274"/>
     <use style="fill:#dbcd00;stroke:#dbcd00;" x="331.473206" xlink:href="#m87f2cb2cdb" y="239.186285"/>
     <use style="fill:#dbcd00;stroke:#dbcd00;" x="337.697411" xlink:href="#m87f2cb2cdb" y="239.186285"/>
     <use style="fill:#dbcd00;stroke:#dbcd00;" x="343.921617" xlink:href="#m87f2cb2cdb" y="226.312469"/>
     <use style="fill:#dbcd00;stroke:#dbcd00;" x="350.145822" xlink:href="#m87f2cb2cdb" y="216.071933"/>
     <use style="fill:#dbcd00;stroke:#dbcd00;" x="362.594232" xlink:href="#m87f2cb2cdb" y="204.953638"/>
     <use style="fill:#dbcd00;stroke:#dbcd00;" x="375.042643" xlink:href="#m87f2cb2cdb" y="197.638969"/>
     <use style="fill:#dbcd00;stroke:#dbcd00;" x="381.266848" xlink:href="#m87f2cb2cdb" y="192.372408"/>
     <use style="fill:#dbcd00;stroke:#dbcd00;" x="387.491053" xlink:href="#m87f2cb2cdb" y="186.813261"/>
     <use style="fill:#dbcd00;stroke:#dbcd00;" x="393.715259" xlink:href="#m87f2cb2cdb" y="183.30222"/>
     <use style="fill:#dbcd00;stroke:#dbcd00;" x="399.939464" xlink:href="#m87f2cb2cdb" y="179.206006"/>
     <use style="fill:#dbcd00;stroke:#dbcd00;" x="406.163669" xlink:href="#m87f2cb2cdb" y="172.183924"/>
     <use style="fill:#dbcd00;stroke:#dbcd00;" x="418.61208" xlink:href="#m87f2cb2cdb" y="168.96547"/>
     <use style="fill:#dbcd00;stroke:#dbcd00;" x="424.836285" xlink:href="#m87f2cb2cdb" y="166.33219"/>
     <use style="fill:#dbcd00;stroke:#dbcd00;" x="431.06049" xlink:href="#m87f2cb2cdb" y="163.698909"/>
     <use style="fill:#dbcd00;stroke:#dbcd00;" x="437.284695" xlink:href="#m87f2cb2cdb" y="159.310108"/>
     <use style="fill:#dbcd00;stroke:#dbcd00;" x="443.508901" xlink:href="#m87f2cb2cdb" y="155.506481"/>
     <use style="fill:#dbcd00;stroke:#dbcd00;" x="449.733106" xlink:href="#m87f2cb2cdb" y="150.23992"/>
     <use style="fill:#dbcd00;stroke:#dbcd00;" x="462.181516" xlink:href="#m87f2cb2cdb" y="145.558532"/>
     <use style="fill:#dbcd00;stroke:#dbcd00;" x="468.405722" xlink:href="#m87f2cb2cdb" y="142.925251"/>
     <use style="fill:#dbcd00;stroke:#dbcd00;" x="474.629927" xlink:href="#m87f2cb2cdb" y="139.414211"/>
     <use style="fill:#dbcd00;stroke:#dbcd00;" x="487.078337" xlink:href="#m87f2cb2cdb" y="132.684716"/>
     <use style="fill:#dbcd00;stroke:#dbcd00;" x="493.302543" xlink:href="#m87f2cb2cdb" y="131.514369"/>
     <use style="fill:#dbcd00;stroke:#dbcd00;" x="505.750953" xlink:href="#m87f2cb2cdb" y="129.466262"/>
     <use style="fill:#dbcd00;stroke:#dbcd00;" x="511.975158" xlink:href="#m87f2cb2cdb" y="129.466262"/>
     <use style="fill:#dbcd00;stroke:#dbcd00;" x="524.423569" xlink:href="#m87f2cb2cdb" y="125.955221"/>
     <use style="fill:#dbcd00;stroke:#dbcd00;" x="530.647774" xlink:href="#m87f2cb2cdb" y="124.492288"/>
     <use style="fill:#dbcd00;stroke:#dbcd00;" x="555.544595" xlink:href="#m87f2cb2cdb" y="122.151594"/>
     <use style="fill:#dbcd00;stroke:#dbcd00;" x="561.7688" xlink:href="#m87f2cb2cdb" y="121.273834"/>
     <use style="fill:#dbcd00;stroke:#dbcd00;" x="567.993005" xlink:href="#m87f2cb2cdb" y="121.273834"/>
     <use style="fill:#dbcd00;stroke:#dbcd00;" x="574.217211" xlink:href="#m87f2cb2cdb" y="121.273834"/>
     <use style="fill:#dbcd00;stroke:#dbcd00;" x="580.441416" xlink:href="#m87f2cb2cdb" y="120.68866"/>
     <use style="fill:#dbcd00;stroke:#dbcd00;" x="592.889826" xlink:href="#m87f2cb2cdb" y="120.396073"/>
     <use style="fill:#dbcd00;stroke:#dbcd00;" x="599.114032" xlink:href="#m87f2cb2cdb" y="120.396073"/>
     <use style="fill:#dbcd00;stroke:#dbcd00;" x="605.338237" xlink:href="#m87f2cb2cdb" y="119.225727"/>
     <use style="fill:#dbcd00;stroke:#dbcd00;" x="617.786647" xlink:href="#m87f2cb2cdb" y="118.93314"/>
     <use style="fill:#dbcd00;stroke:#dbcd00;" x="624.010853" xlink:href="#m87f2cb2cdb" y="118.347966"/>
     <use style="fill:#dbcd00;stroke:#dbcd00;" x="636.459263" xlink:href="#m87f2cb2cdb" y="118.05538"/>
     <use style="fill:#dbcd00;stroke:#dbcd00;" x="648.907674" xlink:href="#m87f2cb2cdb" y="117.762793"/>
     <use style="fill:#dbcd00;stroke:#dbcd00;" x="661.356084" xlink:href="#m87f2cb2cdb" y="117.762793"/>
     <use style="fill:#dbcd00;stroke:#dbcd00;" x="667.580289" xlink:href="#m87f2cb2cdb" y="117.177619"/>
     <use style="fill:#dbcd00;stroke:#dbcd00;" x="680.0287" xlink:href="#m87f2cb2cdb" y="116.592446"/>
     <use style="fill:#dbcd00;stroke:#dbcd00;" x="686.252905" xlink:href="#m87f2cb2cdb" y="116.592446"/>
     <use style="fill:#dbcd00;stroke:#dbcd00;" x="692.47711" xlink:href="#m87f2cb2cdb" y="115.714686"/>
     <use style="fill:#dbcd00;stroke:#dbcd00;" x="698.701316" xlink:href="#m87f2cb2cdb" y="115.129512"/>
     <use style="fill:#dbcd00;stroke:#dbcd00;" x="711.149726" xlink:href="#m87f2cb2cdb" y="113.959165"/>
     <use style="fill:#dbcd00;stroke:#dbcd00;" x="723.598137" xlink:href="#m87f2cb2cdb" y="113.373992"/>
     <use style="fill:#dbcd00;stroke:#dbcd00;" x="729.822342" xlink:href="#m87f2cb2cdb" y="112.496232"/>
     <use style="fill:#dbcd00;stroke:#dbcd00;" x="736.046547" xlink:href="#m87f2cb2cdb" y="112.496232"/>
     <use style="fill:#dbcd00;stroke:#dbcd00;" x="742.270752" xlink:href="#m87f2cb2cdb" y="112.496232"/>
     <use style="fill:#dbcd00;stroke:#dbcd00;" x="748.494957" xlink:href="#m87f2cb2cdb" y="112.496232"/>
     <use style="fill:#dbcd00;stroke:#dbcd00;" x="754.719163" xlink:href="#m87f2cb2cdb" y="112.496232"/>
     <use style="fill:#dbcd00;stroke:#dbcd00;" x="767.167573" xlink:href="#m87f2cb2cdb" y="112.496232"/>
     <use style="fill:#dbcd00;stroke:#dbcd00;" x="773.391778" xlink:href="#m87f2cb2cdb" y="112.496232"/>
     <use style="fill:#dbcd00;stroke:#dbcd00;" x="779.615984" xlink:href="#m87f2cb2cdb" y="112.496232"/>
     <use style="fill:#dbcd00;stroke:#dbcd00;" x="785.840189" xlink:href="#m87f2cb2cdb" y="112.203645"/>
     <use style="fill:#dbcd00;stroke:#dbcd00;" x="792.064394" xlink:href="#m87f2cb2cdb" y="112.203645"/>
     <use style="fill:#dbcd00;stroke:#dbcd00;" x="810.73701" xlink:href="#m87f2cb2cdb" y="111.618472"/>
     <use style="fill:#dbcd00;stroke:#dbcd00;" x="816.961215" xlink:href="#m87f2cb2cdb" y="110.448125"/>
     <use style="fill:#dbcd00;stroke:#dbcd00;" x="823.18542" xlink:href="#m87f2cb2cdb" y="110.448125"/>
     <use style="fill:#dbcd00;stroke:#dbcd00;" x="829.409626" xlink:href="#m87f2cb2cdb" y="110.155538"/>
     <use style="fill:#dbcd00;stroke:#dbcd00;" x="835.633831" xlink:href="#m87f2cb2cdb" y="109.862951"/>
     <use style="fill:#dbcd00;stroke:#dbcd00;" x="854.306447" xlink:href="#m87f2cb2cdb" y="108.107431"/>
     <use style="fill:#dbcd00;stroke:#dbcd00;" x="860.530652" xlink:href="#m87f2cb2cdb" y="108.107431"/>
     <use style="fill:#dbcd00;stroke:#dbcd00;" x="866.754857" xlink:href="#m87f2cb2cdb" y="108.107431"/>
     <use style="fill:#dbcd00;stroke:#dbcd00;" x="872.979062" xlink:href="#m87f2cb2cdb" y="108.107431"/>
     <use style="fill:#dbcd00;stroke:#dbcd00;" x="879.203268" xlink:href="#m87f2cb2cdb" y="108.107431"/>
     <use style="fill:#dbcd00;stroke:#dbcd00;" x="897.875883" xlink:href="#m87f2cb2cdb" y="106.937084"/>
     <use style="fill:#dbcd00;stroke:#dbcd00;" x="904.100089" xlink:href="#m87f2cb2cdb" y="106.937084"/>
     <use style="fill:#dbcd00;stroke:#dbcd00;" x="910.324294" xlink:href="#m87f2cb2cdb" y="106.937084"/>
     <use style="fill:#dbcd00;stroke:#dbcd00;" x="916.548499" xlink:href="#m87f2cb2cdb" y="106.644497"/>
     <use style="fill:#dbcd00;stroke:#dbcd00;" x="922.772704" xlink:href="#m87f2cb2cdb" y="106.351911"/>
     <use style="fill:#dbcd00;stroke:#dbcd00;" x="985.014757" xlink:href="#m87f2cb2cdb" y="94.355855"/>
     <use style="fill:#dbcd00;stroke:#dbcd00;" x="991.238962" xlink:href="#m87f2cb2cdb" y="92.892921"/>
     <use style="fill:#dbcd00;stroke:#dbcd00;" x="1003.687372" xlink:href="#m87f2cb2cdb" y="91.137401"/>
     <use style="fill:#dbcd00;stroke:#dbcd00;" x="1009.911578" xlink:href="#m87f2cb2cdb" y="90.844814"/>
     <use style="fill:#dbcd00;stroke:#dbcd00;" x="1028.584193" xlink:href="#m87f2cb2cdb" y="84.700493"/>
     <use style="fill:#dbcd00;stroke:#dbcd00;" x="1034.808399" xlink:href="#m87f2cb2cdb" y="81.774625"/>
     <use style="fill:#dbcd00;stroke:#dbcd00;" x="1041.032604" xlink:href="#m87f2cb2cdb" y="77.385825"/>
     <use style="fill:#dbcd00;stroke:#dbcd00;" x="1047.256809" xlink:href="#m87f2cb2cdb" y="76.215478"/>
     <use style="fill:#dbcd00;stroke:#dbcd00;" x="1053.481014" xlink:href="#m87f2cb2cdb" y="75.922891"/>
     <use style="fill:#dbcd00;stroke:#dbcd00;" x="1072.15363" xlink:href="#m87f2cb2cdb" y="66.852702"/>
     <use style="fill:#dbcd00;stroke:#dbcd00;" x="1078.377835" xlink:href="#m87f2cb2cdb" y="63.926835"/>
     <use style="fill:#dbcd00;stroke:#dbcd00;" x="1084.602041" xlink:href="#m87f2cb2cdb" y="62.756488"/>
     <use style="fill:#dbcd00;stroke:#dbcd00;" x="1090.826246" xlink:href="#m87f2cb2cdb" y="61.000968"/>
     <use style="fill:#dbcd00;stroke:#dbcd00;" x="1097.050451" xlink:href="#m87f2cb2cdb" y="59.538034"/>
     <use style="fill:#dbcd00;stroke:#dbcd00;" x="1115.723067" xlink:href="#m87f2cb2cdb" y="53.6863"/>
     <use style="fill:#dbcd00;stroke:#dbcd00;" x="1121.947272" xlink:href="#m87f2cb2cdb" y="52.223366"/>
     <use style="fill:#dbcd00;stroke:#dbcd00;" x="1128.171477" xlink:href="#m87f2cb2cdb" y="51.053019"/>
    </g>
   </g>
   <g id="line2d_42">
    <path clip-path="url(#pf06524c7db)" d="M 113.626023 417.079015 
L 119.850228 412.397627 
L 126.074433 408.886586 
L 132.298638 402.157092 
L 138.522844 397.183117 
L 144.747049 394.842424 
L 150.971254 391.916556 
L 157.195459 391.331383 
L 163.419665 396.305357 
L 169.64387 390.161036 
L 175.868075 379.04274 
L 182.09228 374.653939 
L 188.316486 362.365297 
L 194.540691 350.661828 
L 200.764896 351.832175 
L 206.989101 341.006466 
L 213.213307 331.936277 
L 219.437512 326.377129 
L 225.661717 319.355048 
L 231.885922 312.91814 
L 238.110128 315.551421 
L 250.558538 313.210727 
L 256.782743 321.403155 
L 263.006949 322.280915 
L 269.231154 326.962303 
L 275.455359 306.188645 
L 287.90377 348.613721 
L 294.127975 342.469399 
L 300.35218 352.417348 
L 306.576385 357.976496 
L 312.80059 367.924445 
L 319.024796 375.239113 
L 331.473206 380.798261 
L 337.697411 378.16498 
L 343.921617 388.990689 
L 350.145822 397.475704 
L 362.594232 412.397627 
L 375.042643 416.493841 
L 381.266848 421.467816 
L 387.491053 426.44179 
L 393.715259 427.026964 
L 399.939464 429.075071 
L 406.163669 432.586111 
L 418.61208 435.804565 
L 424.836285 435.219392 
L 431.06049 437.267499 
L 437.284695 439.90078 
L 443.508901 443.41182 
L 449.733106 447.800621 
L 462.181516 451.019075 
L 468.405722 453.067182 
L 474.629927 457.163396 
L 487.078337 463.015131 
L 493.302543 464.478065 
L 505.750953 466.526172 
L 511.975158 466.526172 
L 524.423569 470.037212 
L 530.647774 471.500146 
L 555.544595 472.377906 
L 561.7688 472.96308 
L 567.993005 472.670493 
L 574.217211 472.377906 
L 580.441416 473.255666 
L 592.889826 472.377906 
L 599.114032 472.377906 
L 605.338237 476.181534 
L 617.786647 477.351881 
L 624.010853 477.644467 
L 636.459263 475.888947 
L 648.907674 476.181534 
L 661.356084 475.011187 
L 667.580289 475.59636 
L 680.0287 476.181534 
L 686.252905 476.47412 
L 692.47711 477.351881 
L 698.701316 477.644467 
L 711.149726 478.814814 
L 723.598137 479.399988 
L 729.822342 480.277748 
L 736.046547 479.692574 
L 742.270752 479.399988 
L 748.494957 479.107401 
L 754.719163 479.107401 
L 767.167573 478.229641 
L 773.391778 478.229641 
L 779.615984 476.766707 
L 785.840189 476.766707 
L 792.064394 476.766707 
L 810.73701 476.766707 
L 816.961215 477.937054 
L 823.18542 477.937054 
L 829.409626 477.351881 
L 835.633831 477.644467 
L 854.306447 479.107401 
L 860.530652 478.814814 
L 866.754857 478.229641 
L 872.979062 477.351881 
L 879.203268 476.181534 
L 897.875883 476.47412 
L 904.100089 476.47412 
L 910.324294 476.181534 
L 916.548499 472.670493 
L 922.772704 472.96308 
L 985.014757 457.74857 
L 991.238962 456.285636 
L 1003.687372 454.822703 
L 1009.911578 452.482009 
L 1028.584193 453.944942 
L 1034.808399 456.285636 
L 1041.032604 458.041157 
L 1047.256809 457.163396 
L 1053.481014 455.115289 
L 1072.15363 459.796677 
L 1078.377835 462.429958 
L 1084.602041 461.552197 
L 1090.826246 462.429958 
L 1097.050451 462.722544 
L 1115.723067 469.744626 
L 1121.947272 470.914973 
L 1128.171477 471.792733 
" style="fill:none;stroke:#2792cb;stroke-linecap:square;stroke-width:2;"/>
    <defs>
     <path d="M 0 1.5 
C 0.397805 1.5 0.77937 1.341951 1.06066 1.06066 
C 1.341951 0.77937 1.5 0.397805 1.5 0 
C 1.5 -0.397805 1.341951 -0.77937 1.06066 -1.06066 
C 0.77937 -1.341951 0.397805 -1.5 0 -1.5 
C -0.397805 -1.5 -0.77937 -1.341951 -1.06066 -1.06066 
C -1.341951 -0.77937 -1.5 -0.397805 -1.5 0 
C -1.5 0.397805 -1.341951 0.77937 -1.06066 1.06066 
C -0.77937 1.341951 -0.397805 1.5 0 1.5 
z
" id="m424549b3cb" style="stroke:#2792cb;"/>
    </defs>
    <g clip-path="url(#pf06524c7db)">
     <use style="fill:#2792cb;stroke:#2792cb;" x="113.626023" xlink:href="#m424549b3cb" y="417.079015"/>
     <use style="fill:#2792cb;stroke:#2792cb;" x="119.850228" xlink:href="#m424549b3cb" y="412.397627"/>
     <use style="fill:#2792cb;stroke:#2792cb;" x="126.074433" xlink:href="#m424549b3cb" y="408.886586"/>
     <use style="fill:#2792cb;stroke:#2792cb;" x="132.298638" xlink:href="#m424549b3cb" y="402.157092"/>
     <use style="fill:#2792cb;stroke:#2792cb;" x="138.522844" xlink:href="#m424549b3cb" y="397.183117"/>
     <use style="fill:#2792cb;stroke:#2792cb;" x="144.747049" xlink:href="#m424549b3cb" y="394.842424"/>
     <use style="fill:#2792cb;stroke:#2792cb;" x="150.971254" xlink:href="#m424549b3cb" y="391.916556"/>
     <use style="fill:#2792cb;stroke:#2792cb;" x="157.195459" xlink:href="#m424549b3cb" y="391.331383"/>
     <use style="fill:#2792cb;stroke:#2792cb;" x="163.419665" xlink:href="#m424549b3cb" y="396.305357"/>
     <use style="fill:#2792cb;stroke:#2792cb;" x="169.64387" xlink:href="#m424549b3cb" y="390.161036"/>
     <use style="fill:#2792cb;stroke:#2792cb;" x="175.868075" xlink:href="#m424549b3cb" y="379.04274"/>
     <use style="fill:#2792cb;stroke:#2792cb;" x="182.09228" xlink:href="#m424549b3cb" y="374.653939"/>
     <use style="fill:#2792cb;stroke:#2792cb;" x="188.316486" xlink:href="#m424549b3cb" y="362.365297"/>
     <use style="fill:#2792cb;stroke:#2792cb;" x="194.540691" xlink:href="#m424549b3cb" y="350.661828"/>
     <use style="fill:#2792cb;stroke:#2792cb;" x="200.764896" xlink:href="#m424549b3cb" y="351.832175"/>
     <use style="fill:#2792cb;stroke:#2792cb;" x="206.989101" xlink:href="#m424549b3cb" y="341.006466"/>
     <use style="fill:#2792cb;stroke:#2792cb;" x="213.213307" xlink:href="#m424549b3cb" y="331.936277"/>
     <use style="fill:#2792cb;stroke:#2792cb;" x="219.437512" xlink:href="#m424549b3cb" y="326.377129"/>
     <use style="fill:#2792cb;stroke:#2792cb;" x="225.661717" xlink:href="#m424549b3cb" y="319.355048"/>
     <use style="fill:#2792cb;stroke:#2792cb;" x="231.885922" xlink:href="#m424549b3cb" y="312.91814"/>
     <use style="fill:#2792cb;stroke:#2792cb;" x="238.110128" xlink:href="#m424549b3cb" y="315.551421"/>
     <use style="fill:#2792cb;stroke:#2792cb;" x="250.558538" xlink:href="#m424549b3cb" y="313.210727"/>
     <use style="fill:#2792cb;stroke:#2792cb;" x="256.782743" xlink:href="#m424549b3cb" y="321.403155"/>
     <use style="fill:#2792cb;stroke:#2792cb;" x="263.006949" xlink:href="#m424549b3cb" y="322.280915"/>
     <use style="fill:#2792cb;stroke:#2792cb;" x="269.231154" xlink:href="#m424549b3cb" y="326.962303"/>
     <use style="fill:#2792cb;stroke:#2792cb;" x="275.455359" xlink:href="#m424549b3cb" y="306.188645"/>
     <use style="fill:#2792cb;stroke:#2792cb;" x="287.90377" xlink:href="#m424549b3cb" y="348.613721"/>
     <use style="fill:#2792cb;stroke:#2792cb;" x="294.127975" xlink:href="#m424549b3cb" y="342.469399"/>
     <use style="fill:#2792cb;stroke:#2792cb;" x="300.35218" xlink:href="#m424549b3cb" y="352.417348"/>
     <use style="fill:#2792cb;stroke:#2792cb;" x="306.576385" xlink:href="#m424549b3cb" y="357.976496"/>
     <use style="fill:#2792cb;stroke:#2792cb;" x="312.80059" xlink:href="#m424549b3cb" y="367.924445"/>
     <use style="fill:#2792cb;stroke:#2792cb;" x="319.024796" xlink:href="#m424549b3cb" y="375.239113"/>
     <use style="fill:#2792cb;stroke:#2792cb;" x="331.473206" xlink:href="#m424549b3cb" y="380.798261"/>
     <use style="fill:#2792cb;stroke:#2792cb;" x="337.697411" xlink:href="#m424549b3cb" y="378.16498"/>
     <use style="fill:#2792cb;stroke:#2792cb;" x="343.921617" xlink:href="#m424549b3cb" y="388.990689"/>
     <use style="fill:#2792cb;stroke:#2792cb;" x="350.145822" xlink:href="#m424549b3cb" y="397.475704"/>
     <use style="fill:#2792cb;stroke:#2792cb;" x="362.594232" xlink:href="#m424549b3cb" y="412.397627"/>
     <use style="fill:#2792cb;stroke:#2792cb;" x="375.042643" xlink:href="#m424549b3cb" y="416.493841"/>
     <use style="fill:#2792cb;stroke:#2792cb;" x="381.266848" xlink:href="#m424549b3cb" y="421.467816"/>
     <use style="fill:#2792cb;stroke:#2792cb;" x="387.491053" xlink:href="#m424549b3cb" y="426.44179"/>
     <use style="fill:#2792cb;stroke:#2792cb;" x="393.715259" xlink:href="#m424549b3cb" y="427.026964"/>
     <use style="fill:#2792cb;stroke:#2792cb;" x="399.939464" xlink:href="#m424549b3cb" y="429.075071"/>
     <use style="fill:#2792cb;stroke:#2792cb;" x="406.163669" xlink:href="#m424549b3cb" y="432.586111"/>
     <use style="fill:#2792cb;stroke:#2792cb;" x="418.61208" xlink:href="#m424549b3cb" y="435.804565"/>
     <use style="fill:#2792cb;stroke:#2792cb;" x="424.836285" xlink:href="#m424549b3cb" y="435.219392"/>
     <use style="fill:#2792cb;stroke:#2792cb;" x="431.06049" xlink:href="#m424549b3cb" y="437.267499"/>
     <use style="fill:#2792cb;stroke:#2792cb;" x="437.284695" xlink:href="#m424549b3cb" y="439.90078"/>
     <use style="fill:#2792cb;stroke:#2792cb;" x="443.508901" xlink:href="#m424549b3cb" y="443.41182"/>
     <use style="fill:#2792cb;stroke:#2792cb;" x="449.733106" xlink:href="#m424549b3cb" y="447.800621"/>
     <use style="fill:#2792cb;stroke:#2792cb;" x="462.181516" xlink:href="#m424549b3cb" y="451.019075"/>
     <use style="fill:#2792cb;stroke:#2792cb;" x="468.405722" xlink:href="#m424549b3cb" y="453.067182"/>
     <use style="fill:#2792cb;stroke:#2792cb;" x="474.629927" xlink:href="#m424549b3cb" y="457.163396"/>
     <use style="fill:#2792cb;stroke:#2792cb;" x="487.078337" xlink:href="#m424549b3cb" y="463.015131"/>
     <use style="fill:#2792cb;stroke:#2792cb;" x="493.302543" xlink:href="#m424549b3cb" y="464.478065"/>
     <use style="fill:#2792cb;stroke:#2792cb;" x="505.750953" xlink:href="#m424549b3cb" y="466.526172"/>
     <use style="fill:#2792cb;stroke:#2792cb;" x="511.975158" xlink:href="#m424549b3cb" y="466.526172"/>
     <use style="fill:#2792cb;stroke:#2792cb;" x="524.423569" xlink:href="#m424549b3cb" y="470.037212"/>
     <use style="fill:#2792cb;stroke:#2792cb;" x="530.647774" xlink:href="#m424549b3cb" y="471.500146"/>
     <use style="fill:#2792cb;stroke:#2792cb;" x="555.544595" xlink:href="#m424549b3cb" y="472.377906"/>
     <use style="fill:#2792cb;stroke:#2792cb;" x="561.7688" xlink:href="#m424549b3cb" y="472.96308"/>
     <use style="fill:#2792cb;stroke:#2792cb;" x="567.993005" xlink:href="#m424549b3cb" y="472.670493"/>
     <use style="fill:#2792cb;stroke:#2792cb;" x="574.217211" xlink:href="#m424549b3cb" y="472.377906"/>
     <use style="fill:#2792cb;stroke:#2792cb;" x="580.441416" xlink:href="#m424549b3cb" y="473.255666"/>
     <use style="fill:#2792cb;stroke:#2792cb;" x="592.889826" xlink:href="#m424549b3cb" y="472.377906"/>
     <use style="fill:#2792cb;stroke:#2792cb;" x="599.114032" xlink:href="#m424549b3cb" y="472.377906"/>
     <use style="fill:#2792cb;stroke:#2792cb;" x="605.338237" xlink:href="#m424549b3cb" y="476.181534"/>
     <use style="fill:#2792cb;stroke:#2792cb;" x="617.786647" xlink:href="#m424549b3cb" y="477.351881"/>
     <use style="fill:#2792cb;stroke:#2792cb;" x="624.010853" xlink:href="#m424549b3cb" y="477.644467"/>
     <use style="fill:#2792cb;stroke:#2792cb;" x="636.459263" xlink:href="#m424549b3cb" y="475.888947"/>
     <use style="fill:#2792cb;stroke:#2792cb;" x="648.907674" xlink:href="#m424549b3cb" y="476.181534"/>
     <use style="fill:#2792cb;stroke:#2792cb;" x="661.356084" xlink:href="#m424549b3cb" y="475.011187"/>
     <use style="fill:#2792cb;stroke:#2792cb;" x="667.580289" xlink:href="#m424549b3cb" y="475.59636"/>
     <use style="fill:#2792cb;stroke:#2792cb;" x="680.0287" xlink:href="#m424549b3cb" y="476.181534"/>
     <use style="fill:#2792cb;stroke:#2792cb;" x="686.252905" xlink:href="#m424549b3cb" y="476.47412"/>
     <use style="fill:#2792cb;stroke:#2792cb;" x="692.47711" xlink:href="#m424549b3cb" y="477.351881"/>
     <use style="fill:#2792cb;stroke:#2792cb;" x="698.701316" xlink:href="#m424549b3cb" y="477.644467"/>
     <use style="fill:#2792cb;stroke:#2792cb;" x="711.149726" xlink:href="#m424549b3cb" y="478.814814"/>
     <use style="fill:#2792cb;stroke:#2792cb;" x="723.598137" xlink:href="#m424549b3cb" y="479.399988"/>
     <use style="fill:#2792cb;stroke:#2792cb;" x="729.822342" xlink:href="#m424549b3cb" y="480.277748"/>
     <use style="fill:#2792cb;stroke:#2792cb;" x="736.046547" xlink:href="#m424549b3cb" y="479.692574"/>
     <use style="fill:#2792cb;stroke:#2792cb;" x="742.270752" xlink:href="#m424549b3cb" y="479.399988"/>
     <use style="fill:#2792cb;stroke:#2792cb;" x="748.494957" xlink:href="#m424549b3cb" y="479.107401"/>
     <use style="fill:#2792cb;stroke:#2792cb;" x="754.719163" xlink:href="#m424549b3cb" y="479.107401"/>
     <use style="fill:#2792cb;stroke:#2792cb;" x="767.167573" xlink:href="#m424549b3cb" y="478.229641"/>
     <use style="fill:#2792cb;stroke:#2792cb;" x="773.391778" xlink:href="#m424549b3cb" y="478.229641"/>
     <use style="fill:#2792cb;stroke:#2792cb;" x="779.615984" xlink:href="#m424549b3cb" y="476.766707"/>
     <use style="fill:#2792cb;stroke:#2792cb;" x="785.840189" xlink:href="#m424549b3cb" y="476.766707"/>
     <use style="fill:#2792cb;stroke:#2792cb;" x="792.064394" xlink:href="#m424549b3cb" y="476.766707"/>
     <use style="fill:#2792cb;stroke:#2792cb;" x="810.73701" xlink:href="#m424549b3cb" y="476.766707"/>
     <use style="fill:#2792cb;stroke:#2792cb;" x="816.961215" xlink:href="#m424549b3cb" y="477.937054"/>
     <use style="fill:#2792cb;stroke:#2792cb;" x="823.18542" xlink:href="#m424549b3cb" y="477.937054"/>
     <use style="fill:#2792cb;stroke:#2792cb;" x="829.409626" xlink:href="#m424549b3cb" y="477.351881"/>
     <use style="fill:#2792cb;stroke:#2792cb;" x="835.633831" xlink:href="#m424549b3cb" y="477.644467"/>
     <use style="fill:#2792cb;stroke:#2792cb;" x="854.306447" xlink:href="#m424549b3cb" y="479.107401"/>
     <use style="fill:#2792cb;stroke:#2792cb;" x="860.530652" xlink:href="#m424549b3cb" y="478.814814"/>
     <use style="fill:#2792cb;stroke:#2792cb;" x="866.754857" xlink:href="#m424549b3cb" y="478.229641"/>
     <use style="fill:#2792cb;stroke:#2792cb;" x="872.979062" xlink:href="#m424549b3cb" y="477.351881"/>
     <use style="fill:#2792cb;stroke:#2792cb;" x="879.203268" xlink:href="#m424549b3cb" y="476.181534"/>
     <use style="fill:#2792cb;stroke:#2792cb;" x="897.875883" xlink:href="#m424549b3cb" y="476.47412"/>
     <use style="fill:#2792cb;stroke:#2792cb;" x="904.100089" xlink:href="#m424549b3cb" y="476.47412"/>
     <use style="fill:#2792cb;stroke:#2792cb;" x="910.324294" xlink:href="#m424549b3cb" y="476.181534"/>
     <use style="fill:#2792cb;stroke:#2792cb;" x="916.548499" xlink:href="#m424549b3cb" y="472.670493"/>
     <use style="fill:#2792cb;stroke:#2792cb;" x="922.772704" xlink:href="#m424549b3cb" y="472.96308"/>
     <use style="fill:#2792cb;stroke:#2792cb;" x="985.014757" xlink:href="#m424549b3cb" y="457.74857"/>
     <use style="fill:#2792cb;stroke:#2792cb;" x="991.238962" xlink:href="#m424549b3cb" y="456.285636"/>
     <use style="fill:#2792cb;stroke:#2792cb;" x="1003.687372" xlink:href="#m424549b3cb" y="454.822703"/>
     <use style="fill:#2792cb;stroke:#2792cb;" x="1009.911578" xlink:href="#m424549b3cb" y="452.482009"/>
     <use style="fill:#2792cb;stroke:#2792cb;" x="1028.584193" xlink:href="#m424549b3cb" y="453.944942"/>
     <use style="fill:#2792cb;stroke:#2792cb;" x="1034.808399" xlink:href="#m424549b3cb" y="456.285636"/>
     <use style="fill:#2792cb;stroke:#2792cb;" x="1041.032604" xlink:href="#m424549b3cb" y="458.041157"/>
     <use style="fill:#2792cb;stroke:#2792cb;" x="1047.256809" xlink:href="#m424549b3cb" y="457.163396"/>
     <use style="fill:#2792cb;stroke:#2792cb;" x="1053.481014" xlink:href="#m424549b3cb" y="455.115289"/>
     <use style="fill:#2792cb;stroke:#2792cb;" x="1072.15363" xlink:href="#m424549b3cb" y="459.796677"/>
     <use style="fill:#2792cb;stroke:#2792cb;" x="1078.377835" xlink:href="#m424549b3cb" y="462.429958"/>
     <use style="fill:#2792cb;stroke:#2792cb;" x="1084.602041" xlink:href="#m424549b3cb" y="461.552197"/>
     <use style="fill:#2792cb;stroke:#2792cb;" x="1090.826246" xlink:href="#m424549b3cb" y="462.429958"/>
     <use style="fill:#2792cb;stroke:#2792cb;" x="1097.050451" xlink:href="#m424549b3cb" y="462.722544"/>
     <use style="fill:#2792cb;stroke:#2792cb;" x="1115.723067" xlink:href="#m424549b3cb" y="469.744626"/>
     <use style="fill:#2792cb;stroke:#2792cb;" x="1121.947272" xlink:href="#m424549b3cb" y="470.914973"/>
     <use style="fill:#2792cb;stroke:#2792cb;" x="1128.171477" xlink:href="#m424549b3cb" y="471.792733"/>
    </g>
   </g>
   <g id="patch_3">
    <path d="M 62.89875 501.738984 
L 1178.89875 501.738984 
" style="fill:none;stroke:#000000;stroke-linecap:square;stroke-linejoin:miter;stroke-width:0.8;"/>
   </g>
   <g id="legend_1">
    <g id="line2d_43">
     <path d="M 1091.653438 25.237422 
L 1111.653438 25.237422 
" style="fill:none;stroke:#dbcd00;stroke-linecap:square;stroke-width:2;"/>
    </g>
    <g id="line2d_44">
     <g>
      <use style="fill:#dbcd00;stroke:#dbcd00;" x="1101.653438" xlink:href="#m87f2cb2cdb" y="25.237422"/>
     </g>
    </g>
    <g id="text_25">
     <!-- Genesene -->
     <defs>
      <path d="M 59.515625 10.40625 
L 59.515625 29.984375 
L 43.40625 29.984375 
L 43.40625 38.09375 
L 69.28125 38.09375 
L 69.28125 6.78125 
Q 63.578125 2.734375 56.6875 0.65625 
Q 49.8125 -1.421875 42 -1.421875 
Q 24.90625 -1.421875 15.25 8.5625 
Q 5.609375 18.5625 5.609375 36.375 
Q 5.609375 54.25 15.25 64.234375 
Q 24.90625 74.21875 42 74.21875 
Q 49.125 74.21875 55.546875 72.453125 
Q 61.96875 70.703125 67.390625 67.28125 
L 67.390625 56.78125 
Q 61.921875 61.421875 55.765625 63.765625 
Q 49.609375 66.109375 42.828125 66.109375 
Q 29.4375 66.109375 22.71875 58.640625 
Q 16.015625 51.171875 16.015625 36.375 
Q 16.015625 21.625 22.71875 14.15625 
Q 29.4375 6.6875 42.828125 6.6875 
Q 48.046875 6.6875 52.140625 7.59375 
Q 56.25 8.5 59.515625 10.40625 
z
" id="DejaVuSans-71"/>
      <path d="M 44.28125 53.078125 
L 44.28125 44.578125 
Q 40.484375 46.53125 36.375 47.5 
Q 32.28125 48.484375 27.875 48.484375 
Q 21.1875 48.484375 17.84375 46.4375 
Q 14.5 44.390625 14.5 40.28125 
Q 14.5 37.15625 16.890625 35.375 
Q 19.28125 33.59375 26.515625 31.984375 
L 29.59375 31.296875 
Q 39.15625 29.25 43.1875 25.515625 
Q 47.21875 21.78125 47.21875 15.09375 
Q 47.21875 7.46875 41.1875 3.015625 
Q 35.15625 -1.421875 24.609375 -1.421875 
Q 20.21875 -1.421875 15.453125 -0.5625 
Q 10.6875 0.296875 5.421875 2 
L 5.421875 11.28125 
Q 10.40625 8.6875 15.234375 7.390625 
Q 20.0625 6.109375 24.8125 6.109375 
Q 31.15625 6.109375 34.5625 8.28125 
Q 37.984375 10.453125 37.984375 14.40625 
Q 37.984375 18.0625 35.515625 20.015625 
Q 33.0625 21.96875 24.703125 23.78125 
L 21.578125 24.515625 
Q 13.234375 26.265625 9.515625 29.90625 
Q 5.8125 33.546875 5.8125 39.890625 
Q 5.8125 47.609375 11.28125 51.796875 
Q 16.75 56 26.8125 56 
Q 31.78125 56 36.171875 55.265625 
Q 40.578125 54.546875 44.28125 53.078125 
z
" id="DejaVuSans-115"/>
     </defs>
     <g transform="translate(1119.653438 28.737422)scale(0.1 -0.1)">
      <use xlink:href="#DejaVuSans-71"/>
      <use x="77.490234" xlink:href="#DejaVuSans-101"/>
      <use x="139.013672" xlink:href="#DejaVuSans-110"/>
      <use x="202.392578" xlink:href="#DejaVuSans-101"/>
      <use x="263.916016" xlink:href="#DejaVuSans-115"/>
      <use x="316.015625" xlink:href="#DejaVuSans-101"/>
      <use x="377.539062" xlink:href="#DejaVuSans-110"/>
      <use x="440.917969" xlink:href="#DejaVuSans-101"/>
     </g>
    </g>
    <g id="line2d_45">
     <path d="M 1091.653438 39.915547 
L 1111.653438 39.915547 
" style="fill:none;stroke:#2792cb;stroke-linecap:square;stroke-width:2;"/>
    </g>
    <g id="line2d_46">
     <g>
      <use style="fill:#2792cb;stroke:#2792cb;" x="1101.653438" xlink:href="#m424549b3cb" y="39.915547"/>
     </g>
    </g>
    <g id="text_26">
     <!-- Erkrankte -->
     <defs>
      <path d="M 9.8125 72.90625 
L 55.90625 72.90625 
L 55.90625 64.59375 
L 19.671875 64.59375 
L 19.671875 43.015625 
L 54.390625 43.015625 
L 54.390625 34.71875 
L 19.671875 34.71875 
L 19.671875 8.296875 
L 56.78125 8.296875 
L 56.78125 0 
L 9.8125 0 
z
" id="DejaVuSans-69"/>
      <path d="M 41.109375 46.296875 
Q 39.59375 47.171875 37.8125 47.578125 
Q 36.03125 48 33.890625 48 
Q 26.265625 48 22.1875 43.046875 
Q 18.109375 38.09375 18.109375 28.8125 
L 18.109375 0 
L 9.078125 0 
L 9.078125 54.6875 
L 18.109375 54.6875 
L 18.109375 46.1875 
Q 20.953125 51.171875 25.484375 53.578125 
Q 30.03125 56 36.53125 56 
Q 37.453125 56 38.578125 55.875 
Q 39.703125 55.765625 41.0625 55.515625 
z
" id="DejaVuSans-114"/>
      <path d="M 9.078125 75.984375 
L 18.109375 75.984375 
L 18.109375 31.109375 
L 44.921875 54.6875 
L 56.390625 54.6875 
L 27.390625 29.109375 
L 57.625 0 
L 45.90625 0 
L 18.109375 26.703125 
L 18.109375 0 
L 9.078125 0 
z
" id="DejaVuSans-107"/>
      <path d="M 18.3125 70.21875 
L 18.3125 54.6875 
L 36.8125 54.6875 
L 36.8125 47.703125 
L 18.3125 47.703125 
L 18.3125 18.015625 
Q 18.3125 11.328125 20.140625 9.421875 
Q 21.96875 7.515625 27.59375 7.515625 
L 36.8125 7.515625 
L 36.8125 0 
L 27.59375 0 
Q 17.1875 0 13.234375 3.875 
Q 9.28125 7.765625 9.28125 18.015625 
L 9.28125 47.703125 
L 2.6875 47.703125 
L 2.6875 54.6875 
L 9.28125 54.6875 
L 9.28125 70.21875 
z
" id="DejaVuSans-116"/>
     </defs>
     <g transform="translate(1119.653438 43.415547)scale(0.1 -0.1)">
      <use xlink:href="#DejaVuSans-69"/>
      <use x="63.183594" xlink:href="#DejaVuSans-114"/>
      <use x="104.296875" xlink:href="#DejaVuSans-107"/>
      <use x="162.207031" xlink:href="#DejaVuSans-114"/>
      <use x="203.320312" xlink:href="#DejaVuSans-97"/>
      <use x="264.599609" xlink:href="#DejaVuSans-110"/>
      <use x="327.978516" xlink:href="#DejaVuSans-107"/>
      <use x="385.888672" xlink:href="#DejaVuSans-116"/>
      <use x="425.097656" xlink:href="#DejaVuSans-101"/>
     </g>
    </g>
   </g>
  </g>
 </g>
 <defs>
  <clipPath id="pf06524c7db">
   <rect height="489.6" width="1116" x="62.89875" y="12.138984"/>
  </clipPath>
 </defs>
</svg>
