<?xml version="1.0" encoding="utf-8" standalone="no"?>
<!DOCTYPE svg PUBLIC "-//W3C//DTD SVG 1.1//EN"
  "http://www.w3.org/Graphics/SVG/1.1/DTD/svg11.dtd">
<!-- Created with matplotlib (https://matplotlib.org/) -->
<svg height="553.993765pt" version="1.1" viewBox="0 0 1186.09875 553.993765" width="1186.09875pt" xmlns="http://www.w3.org/2000/svg" xmlns:xlink="http://www.w3.org/1999/xlink">
 <defs>
  <style type="text/css">
*{stroke-linecap:butt;stroke-linejoin:round;}
  </style>
 </defs>
 <g id="figure_1">
  <g id="patch_1">
   <path d="M 0 553.993765 
L 1186.09875 553.993765 
L 1186.09875 0 
L 0 0 
z
" style="fill:#ffffff;"/>
  </g>
  <g id="axes_1">
   <g id="patch_2">
    <path d="M 62.89875 501.738984 
L 1178.89875 501.738984 
L 1178.89875 12.138984 
L 62.89875 12.138984 
z
" style="fill:#ffffff;"/>
   </g>
   <g id="matplotlib.axis_1">
    <g id="xtick_1">
     <g id="line2d_1">
      <defs>
       <path d="M 0 0 
L 0 3.5 
" id="ma6727b5c8b" style="stroke:#000000;stroke-width:0.8;"/>
      </defs>
      <g>
       <use style="stroke:#000000;stroke-width:0.8;" x="118.344839" xlink:href="#ma6727b5c8b" y="501.738984"/>
      </g>
     </g>
     <g id="text_1">
      <!-- 2020-03 -->
      <defs>
       <path d="M 19.1875 8.296875 
L 53.609375 8.296875 
L 53.609375 0 
L 7.328125 0 
L 7.328125 8.296875 
Q 12.9375 14.109375 22.625 23.890625 
Q 32.328125 33.6875 34.8125 36.53125 
Q 39.546875 41.84375 41.421875 45.53125 
Q 43.3125 49.21875 43.3125 52.78125 
Q 43.3125 58.59375 39.234375 62.25 
Q 35.15625 65.921875 28.609375 65.921875 
Q 23.96875 65.921875 18.8125 64.3125 
Q 13.671875 62.703125 7.8125 59.421875 
L 7.8125 69.390625 
Q 13.765625 71.78125 18.9375 73 
Q 24.125 74.21875 28.421875 74.21875 
Q 39.75 74.21875 46.484375 68.546875 
Q 53.21875 62.890625 53.21875 53.421875 
Q 53.21875 48.921875 51.53125 44.890625 
Q 49.859375 40.875 45.40625 35.40625 
Q 44.1875 33.984375 37.640625 27.21875 
Q 31.109375 20.453125 19.1875 8.296875 
z
" id="DejaVuSans-50"/>
       <path d="M 31.78125 66.40625 
Q 24.171875 66.40625 20.328125 58.90625 
Q 16.5 51.421875 16.5 36.375 
Q 16.5 21.390625 20.328125 13.890625 
Q 24.171875 6.390625 31.78125 6.390625 
Q 39.453125 6.390625 43.28125 13.890625 
Q 47.125 21.390625 47.125 36.375 
Q 47.125 51.421875 43.28125 58.90625 
Q 39.453125 66.40625 31.78125 66.40625 
z
M 31.78125 74.21875 
Q 44.046875 74.21875 50.515625 64.515625 
Q 56.984375 54.828125 56.984375 36.375 
Q 56.984375 17.96875 50.515625 8.265625 
Q 44.046875 -1.421875 31.78125 -1.421875 
Q 19.53125 -1.421875 13.0625 8.265625 
Q 6.59375 17.96875 6.59375 36.375 
Q 6.59375 54.828125 13.0625 64.515625 
Q 19.53125 74.21875 31.78125 74.21875 
z
" id="DejaVuSans-48"/>
       <path d="M 4.890625 31.390625 
L 31.203125 31.390625 
L 31.203125 23.390625 
L 4.890625 23.390625 
z
" id="DejaVuSans-45"/>
       <path d="M 40.578125 39.3125 
Q 47.65625 37.796875 51.625 33 
Q 55.609375 28.21875 55.609375 21.1875 
Q 55.609375 10.40625 48.1875 4.484375 
Q 40.765625 -1.421875 27.09375 -1.421875 
Q 22.515625 -1.421875 17.65625 -0.515625 
Q 12.796875 0.390625 7.625 2.203125 
L 7.625 11.71875 
Q 11.71875 9.328125 16.59375 8.109375 
Q 21.484375 6.890625 26.8125 6.890625 
Q 36.078125 6.890625 40.9375 10.546875 
Q 45.796875 14.203125 45.796875 21.1875 
Q 45.796875 27.640625 41.28125 31.265625 
Q 36.765625 34.90625 28.71875 34.90625 
L 20.21875 34.90625 
L 20.21875 43.015625 
L 29.109375 43.015625 
Q 36.375 43.015625 40.234375 45.921875 
Q 44.09375 48.828125 44.09375 54.296875 
Q 44.09375 59.90625 40.109375 62.90625 
Q 36.140625 65.921875 28.71875 65.921875 
Q 24.65625 65.921875 20.015625 65.03125 
Q 15.375 64.15625 9.8125 62.3125 
L 9.8125 71.09375 
Q 15.4375 72.65625 20.34375 73.4375 
Q 25.25 74.21875 29.59375 74.21875 
Q 40.828125 74.21875 47.359375 69.109375 
Q 53.90625 64.015625 53.90625 55.328125 
Q 53.90625 49.265625 50.4375 45.09375 
Q 46.96875 40.921875 40.578125 39.3125 
z
" id="DejaVuSans-51"/>
      </defs>
      <g transform="translate(69.952572 544.452384)rotate(-30)scale(0.13 -0.13)">
       <use xlink:href="#DejaVuSans-50"/>
       <use x="63.623047" xlink:href="#DejaVuSans-48"/>
       <use x="127.246094" xlink:href="#DejaVuSans-50"/>
       <use x="190.869141" xlink:href="#DejaVuSans-48"/>
       <use x="254.492188" xlink:href="#DejaVuSans-45"/>
       <use x="290.576172" xlink:href="#DejaVuSans-48"/>
       <use x="354.199219" xlink:href="#DejaVuSans-51"/>
      </g>
     </g>
    </g>
    <g id="xtick_2">
     <g id="line2d_2">
      <g>
       <use style="stroke:#000000;stroke-width:0.8;" x="264.628137" xlink:href="#ma6727b5c8b" y="501.738984"/>
      </g>
     </g>
     <g id="text_2">
      <!-- 2020-04 -->
      <defs>
       <path d="M 37.796875 64.3125 
L 12.890625 25.390625 
L 37.796875 25.390625 
z
M 35.203125 72.90625 
L 47.609375 72.90625 
L 47.609375 25.390625 
L 58.015625 25.390625 
L 58.015625 17.1875 
L 47.609375 17.1875 
L 47.609375 0 
L 37.796875 0 
L 37.796875 17.1875 
L 4.890625 17.1875 
L 4.890625 26.703125 
z
" id="DejaVuSans-52"/>
      </defs>
      <g transform="translate(216.23587 544.452384)rotate(-30)scale(0.13 -0.13)">
       <use xlink:href="#DejaVuSans-50"/>
       <use x="63.623047" xlink:href="#DejaVuSans-48"/>
       <use x="127.246094" xlink:href="#DejaVuSans-50"/>
       <use x="190.869141" xlink:href="#DejaVuSans-48"/>
       <use x="254.492188" xlink:href="#DejaVuSans-45"/>
       <use x="290.576172" xlink:href="#DejaVuSans-48"/>
       <use x="354.199219" xlink:href="#DejaVuSans-52"/>
      </g>
     </g>
    </g>
    <g id="xtick_3">
     <g id="line2d_3">
      <g>
       <use style="stroke:#000000;stroke-width:0.8;" x="406.192619" xlink:href="#ma6727b5c8b" y="501.738984"/>
      </g>
     </g>
     <g id="text_3">
      <!-- 2020-05 -->
      <defs>
       <path d="M 10.796875 72.90625 
L 49.515625 72.90625 
L 49.515625 64.59375 
L 19.828125 64.59375 
L 19.828125 46.734375 
Q 21.96875 47.46875 24.109375 47.828125 
Q 26.265625 48.1875 28.421875 48.1875 
Q 40.625 48.1875 47.75 41.5 
Q 54.890625 34.8125 54.890625 23.390625 
Q 54.890625 11.625 47.5625 5.09375 
Q 40.234375 -1.421875 26.90625 -1.421875 
Q 22.3125 -1.421875 17.546875 -0.640625 
Q 12.796875 0.140625 7.71875 1.703125 
L 7.71875 11.625 
Q 12.109375 9.234375 16.796875 8.0625 
Q 21.484375 6.890625 26.703125 6.890625 
Q 35.15625 6.890625 40.078125 11.328125 
Q 45.015625 15.765625 45.015625 23.390625 
Q 45.015625 31 40.078125 35.4375 
Q 35.15625 39.890625 26.703125 39.890625 
Q 22.75 39.890625 18.8125 39.015625 
Q 14.890625 38.140625 10.796875 36.28125 
z
" id="DejaVuSans-53"/>
      </defs>
      <g transform="translate(357.800352 544.452384)rotate(-30)scale(0.13 -0.13)">
       <use xlink:href="#DejaVuSans-50"/>
       <use x="63.623047" xlink:href="#DejaVuSans-48"/>
       <use x="127.246094" xlink:href="#DejaVuSans-50"/>
       <use x="190.869141" xlink:href="#DejaVuSans-48"/>
       <use x="254.492188" xlink:href="#DejaVuSans-45"/>
       <use x="290.576172" xlink:href="#DejaVuSans-48"/>
       <use x="354.199219" xlink:href="#DejaVuSans-53"/>
      </g>
     </g>
    </g>
    <g id="xtick_4">
     <g id="line2d_4">
      <g>
       <use style="stroke:#000000;stroke-width:0.8;" x="552.475917" xlink:href="#ma6727b5c8b" y="501.738984"/>
      </g>
     </g>
     <g id="text_4">
      <!-- 2020-06 -->
      <defs>
       <path d="M 33.015625 40.375 
Q 26.375 40.375 22.484375 35.828125 
Q 18.609375 31.296875 18.609375 23.390625 
Q 18.609375 15.53125 22.484375 10.953125 
Q 26.375 6.390625 33.015625 6.390625 
Q 39.65625 6.390625 43.53125 10.953125 
Q 47.40625 15.53125 47.40625 23.390625 
Q 47.40625 31.296875 43.53125 35.828125 
Q 39.65625 40.375 33.015625 40.375 
z
M 52.59375 71.296875 
L 52.59375 62.3125 
Q 48.875 64.0625 45.09375 64.984375 
Q 41.3125 65.921875 37.59375 65.921875 
Q 27.828125 65.921875 22.671875 59.328125 
Q 17.53125 52.734375 16.796875 39.40625 
Q 19.671875 43.65625 24.015625 45.921875 
Q 28.375 48.1875 33.59375 48.1875 
Q 44.578125 48.1875 50.953125 41.515625 
Q 57.328125 34.859375 57.328125 23.390625 
Q 57.328125 12.15625 50.6875 5.359375 
Q 44.046875 -1.421875 33.015625 -1.421875 
Q 20.359375 -1.421875 13.671875 8.265625 
Q 6.984375 17.96875 6.984375 36.375 
Q 6.984375 53.65625 15.1875 63.9375 
Q 23.390625 74.21875 37.203125 74.21875 
Q 40.921875 74.21875 44.703125 73.484375 
Q 48.484375 72.75 52.59375 71.296875 
z
" id="DejaVuSans-54"/>
      </defs>
      <g transform="translate(504.08365 544.452384)rotate(-30)scale(0.13 -0.13)">
       <use xlink:href="#DejaVuSans-50"/>
       <use x="63.623047" xlink:href="#DejaVuSans-48"/>
       <use x="127.246094" xlink:href="#DejaVuSans-50"/>
       <use x="190.869141" xlink:href="#DejaVuSans-48"/>
       <use x="254.492188" xlink:href="#DejaVuSans-45"/>
       <use x="290.576172" xlink:href="#DejaVuSans-48"/>
       <use x="354.199219" xlink:href="#DejaVuSans-54"/>
      </g>
     </g>
    </g>
    <g id="xtick_5">
     <g id="line2d_5">
      <g>
       <use style="stroke:#000000;stroke-width:0.8;" x="694.040399" xlink:href="#ma6727b5c8b" y="501.738984"/>
      </g>
     </g>
     <g id="text_5">
      <!-- 2020-07 -->
      <defs>
       <path d="M 8.203125 72.90625 
L 55.078125 72.90625 
L 55.078125 68.703125 
L 28.609375 0 
L 18.3125 0 
L 43.21875 64.59375 
L 8.203125 64.59375 
z
" id="DejaVuSans-55"/>
      </defs>
      <g transform="translate(645.648132 544.452384)rotate(-30)scale(0.13 -0.13)">
       <use xlink:href="#DejaVuSans-50"/>
       <use x="63.623047" xlink:href="#DejaVuSans-48"/>
       <use x="127.246094" xlink:href="#DejaVuSans-50"/>
       <use x="190.869141" xlink:href="#DejaVuSans-48"/>
       <use x="254.492188" xlink:href="#DejaVuSans-45"/>
       <use x="290.576172" xlink:href="#DejaVuSans-48"/>
       <use x="354.199219" xlink:href="#DejaVuSans-55"/>
      </g>
     </g>
    </g>
    <g id="xtick_6">
     <g id="line2d_6">
      <g>
       <use style="stroke:#000000;stroke-width:0.8;" x="840.323697" xlink:href="#ma6727b5c8b" y="501.738984"/>
      </g>
     </g>
     <g id="text_6">
      <!-- 2020-08 -->
      <defs>
       <path d="M 31.78125 34.625 
Q 24.75 34.625 20.71875 30.859375 
Q 16.703125 27.09375 16.703125 20.515625 
Q 16.703125 13.921875 20.71875 10.15625 
Q 24.75 6.390625 31.78125 6.390625 
Q 38.8125 6.390625 42.859375 10.171875 
Q 46.921875 13.96875 46.921875 20.515625 
Q 46.921875 27.09375 42.890625 30.859375 
Q 38.875 34.625 31.78125 34.625 
z
M 21.921875 38.8125 
Q 15.578125 40.375 12.03125 44.71875 
Q 8.5 49.078125 8.5 55.328125 
Q 8.5 64.0625 14.71875 69.140625 
Q 20.953125 74.21875 31.78125 74.21875 
Q 42.671875 74.21875 48.875 69.140625 
Q 55.078125 64.0625 55.078125 55.328125 
Q 55.078125 49.078125 51.53125 44.71875 
Q 48 40.375 41.703125 38.8125 
Q 48.828125 37.15625 52.796875 32.3125 
Q 56.78125 27.484375 56.78125 20.515625 
Q 56.78125 9.90625 50.3125 4.234375 
Q 43.84375 -1.421875 31.78125 -1.421875 
Q 19.734375 -1.421875 13.25 4.234375 
Q 6.78125 9.90625 6.78125 20.515625 
Q 6.78125 27.484375 10.78125 32.3125 
Q 14.796875 37.15625 21.921875 38.8125 
z
M 18.3125 54.390625 
Q 18.3125 48.734375 21.84375 45.5625 
Q 25.390625 42.390625 31.78125 42.390625 
Q 38.140625 42.390625 41.71875 45.5625 
Q 45.3125 48.734375 45.3125 54.390625 
Q 45.3125 60.0625 41.71875 63.234375 
Q 38.140625 66.40625 31.78125 66.40625 
Q 25.390625 66.40625 21.84375 63.234375 
Q 18.3125 60.0625 18.3125 54.390625 
z
" id="DejaVuSans-56"/>
      </defs>
      <g transform="translate(791.93143 544.452384)rotate(-30)scale(0.13 -0.13)">
       <use xlink:href="#DejaVuSans-50"/>
       <use x="63.623047" xlink:href="#DejaVuSans-48"/>
       <use x="127.246094" xlink:href="#DejaVuSans-50"/>
       <use x="190.869141" xlink:href="#DejaVuSans-48"/>
       <use x="254.492188" xlink:href="#DejaVuSans-45"/>
       <use x="290.576172" xlink:href="#DejaVuSans-48"/>
       <use x="354.199219" xlink:href="#DejaVuSans-56"/>
      </g>
     </g>
    </g>
    <g id="xtick_7">
     <g id="line2d_7">
      <g>
       <use style="stroke:#000000;stroke-width:0.8;" x="986.606995" xlink:href="#ma6727b5c8b" y="501.738984"/>
      </g>
     </g>
     <g id="text_7">
      <!-- 2020-09 -->
      <defs>
       <path d="M 10.984375 1.515625 
L 10.984375 10.5 
Q 14.703125 8.734375 18.5 7.8125 
Q 22.3125 6.890625 25.984375 6.890625 
Q 35.75 6.890625 40.890625 13.453125 
Q 46.046875 20.015625 46.78125 33.40625 
Q 43.953125 29.203125 39.59375 26.953125 
Q 35.25 24.703125 29.984375 24.703125 
Q 19.046875 24.703125 12.671875 31.3125 
Q 6.296875 37.9375 6.296875 49.421875 
Q 6.296875 60.640625 12.9375 67.421875 
Q 19.578125 74.21875 30.609375 74.21875 
Q 43.265625 74.21875 49.921875 64.515625 
Q 56.59375 54.828125 56.59375 36.375 
Q 56.59375 19.140625 48.40625 8.859375 
Q 40.234375 -1.421875 26.421875 -1.421875 
Q 22.703125 -1.421875 18.890625 -0.6875 
Q 15.09375 0.046875 10.984375 1.515625 
z
M 30.609375 32.421875 
Q 37.25 32.421875 41.125 36.953125 
Q 45.015625 41.5 45.015625 49.421875 
Q 45.015625 57.28125 41.125 61.84375 
Q 37.25 66.40625 30.609375 66.40625 
Q 23.96875 66.40625 20.09375 61.84375 
Q 16.21875 57.28125 16.21875 49.421875 
Q 16.21875 41.5 20.09375 36.953125 
Q 23.96875 32.421875 30.609375 32.421875 
z
" id="DejaVuSans-57"/>
      </defs>
      <g transform="translate(938.214728 544.452384)rotate(-30)scale(0.13 -0.13)">
       <use xlink:href="#DejaVuSans-50"/>
       <use x="63.623047" xlink:href="#DejaVuSans-48"/>
       <use x="127.246094" xlink:href="#DejaVuSans-50"/>
       <use x="190.869141" xlink:href="#DejaVuSans-48"/>
       <use x="254.492188" xlink:href="#DejaVuSans-45"/>
       <use x="290.576172" xlink:href="#DejaVuSans-48"/>
       <use x="354.199219" xlink:href="#DejaVuSans-57"/>
      </g>
     </g>
    </g>
    <g id="xtick_8">
     <g id="line2d_8">
      <g>
       <use style="stroke:#000000;stroke-width:0.8;" x="1128.171477" xlink:href="#ma6727b5c8b" y="501.738984"/>
      </g>
     </g>
     <g id="text_8">
      <!-- 2020-10 -->
      <defs>
       <path d="M 12.40625 8.296875 
L 28.515625 8.296875 
L 28.515625 63.921875 
L 10.984375 60.40625 
L 10.984375 69.390625 
L 28.421875 72.90625 
L 38.28125 72.90625 
L 38.28125 8.296875 
L 54.390625 8.296875 
L 54.390625 0 
L 12.40625 0 
z
" id="DejaVuSans-49"/>
      </defs>
      <g transform="translate(1079.77921 544.452384)rotate(-30)scale(0.13 -0.13)">
       <use xlink:href="#DejaVuSans-50"/>
       <use x="63.623047" xlink:href="#DejaVuSans-48"/>
       <use x="127.246094" xlink:href="#DejaVuSans-50"/>
       <use x="190.869141" xlink:href="#DejaVuSans-48"/>
       <use x="254.492188" xlink:href="#DejaVuSans-45"/>
       <use x="290.576172" xlink:href="#DejaVuSans-49"/>
       <use x="354.199219" xlink:href="#DejaVuSans-48"/>
      </g>
     </g>
    </g>
   </g>
   <g id="matplotlib.axis_2">
    <g id="ytick_1">
     <g id="line2d_9">
      <path clip-path="url(#pa43ffc9377)" d="M 62.89875 480.798428 
L 1178.89875 480.798428 
" style="fill:none;stroke:#b0b0b0;stroke-linecap:square;stroke-width:0.8;"/>
     </g>
     <g id="line2d_10">
      <defs>
       <path d="M 0 0 
L -3.5 0 
" id="mfc9fb68103" style="stroke:#000000;stroke-width:0.8;"/>
      </defs>
      <g>
       <use style="stroke:#000000;stroke-width:0.8;" x="62.89875" xlink:href="#mfc9fb68103" y="480.798428"/>
      </g>
     </g>
     <g id="text_9">
      <!-- 0 -->
      <g transform="translate(47.6275 485.737413)scale(0.13 -0.13)">
       <use xlink:href="#DejaVuSans-48"/>
      </g>
     </g>
    </g>
    <g id="ytick_2">
     <g id="line2d_11">
      <path clip-path="url(#pa43ffc9377)" d="M 62.89875 438.193024 
L 1178.89875 438.193024 
" style="fill:none;stroke:#b0b0b0;stroke-linecap:square;stroke-width:0.8;"/>
     </g>
     <g id="line2d_12">
      <g>
       <use style="stroke:#000000;stroke-width:0.8;" x="62.89875" xlink:href="#mfc9fb68103" y="438.193024"/>
      </g>
     </g>
     <g id="text_10">
      <!-- 100 -->
      <g transform="translate(31.085 443.132009)scale(0.13 -0.13)">
       <use xlink:href="#DejaVuSans-49"/>
       <use x="63.623047" xlink:href="#DejaVuSans-48"/>
       <use x="127.246094" xlink:href="#DejaVuSans-48"/>
      </g>
     </g>
    </g>
    <g id="ytick_3">
     <g id="line2d_13">
      <path clip-path="url(#pa43ffc9377)" d="M 62.89875 395.58762 
L 1178.89875 395.58762 
" style="fill:none;stroke:#b0b0b0;stroke-linecap:square;stroke-width:0.8;"/>
     </g>
     <g id="line2d_14">
      <g>
       <use style="stroke:#000000;stroke-width:0.8;" x="62.89875" xlink:href="#mfc9fb68103" y="395.58762"/>
      </g>
     </g>
     <g id="text_11">
      <!-- 200 -->
      <g transform="translate(31.085 400.526605)scale(0.13 -0.13)">
       <use xlink:href="#DejaVuSans-50"/>
       <use x="63.623047" xlink:href="#DejaVuSans-48"/>
       <use x="127.246094" xlink:href="#DejaVuSans-48"/>
      </g>
     </g>
    </g>
    <g id="ytick_4">
     <g id="line2d_15">
      <path clip-path="url(#pa43ffc9377)" d="M 62.89875 352.982216 
L 1178.89875 352.982216 
" style="fill:none;stroke:#b0b0b0;stroke-linecap:square;stroke-width:0.8;"/>
     </g>
     <g id="line2d_16">
      <g>
       <use style="stroke:#000000;stroke-width:0.8;" x="62.89875" xlink:href="#mfc9fb68103" y="352.982216"/>
      </g>
     </g>
     <g id="text_12">
      <!-- 300 -->
      <g transform="translate(31.085 357.921201)scale(0.13 -0.13)">
       <use xlink:href="#DejaVuSans-51"/>
       <use x="63.623047" xlink:href="#DejaVuSans-48"/>
       <use x="127.246094" xlink:href="#DejaVuSans-48"/>
      </g>
     </g>
    </g>
    <g id="ytick_5">
     <g id="line2d_17">
      <path clip-path="url(#pa43ffc9377)" d="M 62.89875 310.376812 
L 1178.89875 310.376812 
" style="fill:none;stroke:#b0b0b0;stroke-linecap:square;stroke-width:0.8;"/>
     </g>
     <g id="line2d_18">
      <g>
       <use style="stroke:#000000;stroke-width:0.8;" x="62.89875" xlink:href="#mfc9fb68103" y="310.376812"/>
      </g>
     </g>
     <g id="text_13">
      <!-- 400 -->
      <g transform="translate(31.085 315.315797)scale(0.13 -0.13)">
       <use xlink:href="#DejaVuSans-52"/>
       <use x="63.623047" xlink:href="#DejaVuSans-48"/>
       <use x="127.246094" xlink:href="#DejaVuSans-48"/>
      </g>
     </g>
    </g>
    <g id="ytick_6">
     <g id="line2d_19">
      <path clip-path="url(#pa43ffc9377)" d="M 62.89875 267.771408 
L 1178.89875 267.771408 
" style="fill:none;stroke:#b0b0b0;stroke-linecap:square;stroke-width:0.8;"/>
     </g>
     <g id="line2d_20">
      <g>
       <use style="stroke:#000000;stroke-width:0.8;" x="62.89875" xlink:href="#mfc9fb68103" y="267.771408"/>
      </g>
     </g>
     <g id="text_14">
      <!-- 500 -->
      <g transform="translate(31.085 272.710393)scale(0.13 -0.13)">
       <use xlink:href="#DejaVuSans-53"/>
       <use x="63.623047" xlink:href="#DejaVuSans-48"/>
       <use x="127.246094" xlink:href="#DejaVuSans-48"/>
      </g>
     </g>
    </g>
    <g id="ytick_7">
     <g id="line2d_21">
      <path clip-path="url(#pa43ffc9377)" d="M 62.89875 225.166004 
L 1178.89875 225.166004 
" style="fill:none;stroke:#b0b0b0;stroke-linecap:square;stroke-width:0.8;"/>
     </g>
     <g id="line2d_22">
      <g>
       <use style="stroke:#000000;stroke-width:0.8;" x="62.89875" xlink:href="#mfc9fb68103" y="225.166004"/>
      </g>
     </g>
     <g id="text_15">
      <!-- 600 -->
      <g transform="translate(31.085 230.104989)scale(0.13 -0.13)">
       <use xlink:href="#DejaVuSans-54"/>
       <use x="63.623047" xlink:href="#DejaVuSans-48"/>
       <use x="127.246094" xlink:href="#DejaVuSans-48"/>
      </g>
     </g>
    </g>
    <g id="ytick_8">
     <g id="line2d_23">
      <path clip-path="url(#pa43ffc9377)" d="M 62.89875 182.5606 
L 1178.89875 182.5606 
" style="fill:none;stroke:#b0b0b0;stroke-linecap:square;stroke-width:0.8;"/>
     </g>
     <g id="line2d_24">
      <g>
       <use style="stroke:#000000;stroke-width:0.8;" x="62.89875" xlink:href="#mfc9fb68103" y="182.5606"/>
      </g>
     </g>
     <g id="text_16">
      <!-- 700 -->
      <g transform="translate(31.085 187.499585)scale(0.13 -0.13)">
       <use xlink:href="#DejaVuSans-55"/>
       <use x="63.623047" xlink:href="#DejaVuSans-48"/>
       <use x="127.246094" xlink:href="#DejaVuSans-48"/>
      </g>
     </g>
    </g>
    <g id="ytick_9">
     <g id="line2d_25">
      <path clip-path="url(#pa43ffc9377)" d="M 62.89875 139.955196 
L 1178.89875 139.955196 
" style="fill:none;stroke:#b0b0b0;stroke-linecap:square;stroke-width:0.8;"/>
     </g>
     <g id="line2d_26">
      <g>
       <use style="stroke:#000000;stroke-width:0.8;" x="62.89875" xlink:href="#mfc9fb68103" y="139.955196"/>
      </g>
     </g>
     <g id="text_17">
      <!-- 800 -->
      <g transform="translate(31.085 144.894181)scale(0.13 -0.13)">
       <use xlink:href="#DejaVuSans-56"/>
       <use x="63.623047" xlink:href="#DejaVuSans-48"/>
       <use x="127.246094" xlink:href="#DejaVuSans-48"/>
      </g>
     </g>
    </g>
    <g id="ytick_10">
     <g id="line2d_27">
      <path clip-path="url(#pa43ffc9377)" d="M 62.89875 97.349792 
L 1178.89875 97.349792 
" style="fill:none;stroke:#b0b0b0;stroke-linecap:square;stroke-width:0.8;"/>
     </g>
     <g id="line2d_28">
      <g>
       <use style="stroke:#000000;stroke-width:0.8;" x="62.89875" xlink:href="#mfc9fb68103" y="97.349792"/>
      </g>
     </g>
     <g id="text_18">
      <!-- 900 -->
      <g transform="translate(31.085 102.288777)scale(0.13 -0.13)">
       <use xlink:href="#DejaVuSans-57"/>
       <use x="63.623047" xlink:href="#DejaVuSans-48"/>
       <use x="127.246094" xlink:href="#DejaVuSans-48"/>
      </g>
     </g>
    </g>
    <g id="ytick_11">
     <g id="line2d_29">
      <path clip-path="url(#pa43ffc9377)" d="M 62.89875 54.744388 
L 1178.89875 54.744388 
" style="fill:none;stroke:#b0b0b0;stroke-linecap:square;stroke-width:0.8;"/>
     </g>
     <g id="line2d_30">
      <g>
       <use style="stroke:#000000;stroke-width:0.8;" x="62.89875" xlink:href="#mfc9fb68103" y="54.744388"/>
      </g>
     </g>
     <g id="text_19">
      <!-- 1000 -->
      <g transform="translate(22.81375 59.683373)scale(0.13 -0.13)">
       <use xlink:href="#DejaVuSans-49"/>
       <use x="63.623047" xlink:href="#DejaVuSans-48"/>
       <use x="127.246094" xlink:href="#DejaVuSans-48"/>
       <use x="190.869141" xlink:href="#DejaVuSans-48"/>
      </g>
     </g>
    </g>
    <g id="ytick_12">
     <g id="line2d_31">
      <path clip-path="url(#pa43ffc9377)" d="M 62.89875 12.138984 
L 1178.89875 12.138984 
" style="fill:none;stroke:#b0b0b0;stroke-linecap:square;stroke-width:0.8;"/>
     </g>
     <g id="line2d_32">
      <g>
       <use style="stroke:#000000;stroke-width:0.8;" x="62.89875" xlink:href="#mfc9fb68103" y="12.138984"/>
      </g>
     </g>
     <g id="text_20">
      <!-- 1100 -->
      <g transform="translate(22.81375 17.077969)scale(0.13 -0.13)">
       <use xlink:href="#DejaVuSans-49"/>
       <use x="63.623047" xlink:href="#DejaVuSans-49"/>
       <use x="127.246094" xlink:href="#DejaVuSans-48"/>
       <use x="190.869141" xlink:href="#DejaVuSans-48"/>
      </g>
     </g>
    </g>
    <g id="text_21">
     <!-- Anzahl von Fällen -->
     <defs>
      <path d="M 34.1875 63.1875 
L 20.796875 26.90625 
L 47.609375 26.90625 
z
M 28.609375 72.90625 
L 39.796875 72.90625 
L 67.578125 0 
L 57.328125 0 
L 50.6875 18.703125 
L 17.828125 18.703125 
L 11.1875 0 
L 0.78125 0 
z
" id="DejaVuSans-65"/>
      <path d="M 54.890625 33.015625 
L 54.890625 0 
L 45.90625 0 
L 45.90625 32.71875 
Q 45.90625 40.484375 42.875 44.328125 
Q 39.84375 48.1875 33.796875 48.1875 
Q 26.515625 48.1875 22.3125 43.546875 
Q 18.109375 38.921875 18.109375 30.90625 
L 18.109375 0 
L 9.078125 0 
L 9.078125 54.6875 
L 18.109375 54.6875 
L 18.109375 46.1875 
Q 21.34375 51.125 25.703125 53.5625 
Q 30.078125 56 35.796875 56 
Q 45.21875 56 50.046875 50.171875 
Q 54.890625 44.34375 54.890625 33.015625 
z
" id="DejaVuSans-110"/>
      <path d="M 5.515625 54.6875 
L 48.1875 54.6875 
L 48.1875 46.484375 
L 14.40625 7.171875 
L 48.1875 7.171875 
L 48.1875 0 
L 4.296875 0 
L 4.296875 8.203125 
L 38.09375 47.515625 
L 5.515625 47.515625 
z
" id="DejaVuSans-122"/>
      <path d="M 34.28125 27.484375 
Q 23.390625 27.484375 19.1875 25 
Q 14.984375 22.515625 14.984375 16.5 
Q 14.984375 11.71875 18.140625 8.90625 
Q 21.296875 6.109375 26.703125 6.109375 
Q 34.1875 6.109375 38.703125 11.40625 
Q 43.21875 16.703125 43.21875 25.484375 
L 43.21875 27.484375 
z
M 52.203125 31.203125 
L 52.203125 0 
L 43.21875 0 
L 43.21875 8.296875 
Q 40.140625 3.328125 35.546875 0.953125 
Q 30.953125 -1.421875 24.3125 -1.421875 
Q 15.921875 -1.421875 10.953125 3.296875 
Q 6 8.015625 6 15.921875 
Q 6 25.140625 12.171875 29.828125 
Q 18.359375 34.515625 30.609375 34.515625 
L 43.21875 34.515625 
L 43.21875 35.40625 
Q 43.21875 41.609375 39.140625 45 
Q 35.0625 48.390625 27.6875 48.390625 
Q 23 48.390625 18.546875 47.265625 
Q 14.109375 46.140625 10.015625 43.890625 
L 10.015625 52.203125 
Q 14.9375 54.109375 19.578125 55.046875 
Q 24.21875 56 28.609375 56 
Q 40.484375 56 46.34375 49.84375 
Q 52.203125 43.703125 52.203125 31.203125 
z
" id="DejaVuSans-97"/>
      <path d="M 54.890625 33.015625 
L 54.890625 0 
L 45.90625 0 
L 45.90625 32.71875 
Q 45.90625 40.484375 42.875 44.328125 
Q 39.84375 48.1875 33.796875 48.1875 
Q 26.515625 48.1875 22.3125 43.546875 
Q 18.109375 38.921875 18.109375 30.90625 
L 18.109375 0 
L 9.078125 0 
L 9.078125 75.984375 
L 18.109375 75.984375 
L 18.109375 46.1875 
Q 21.34375 51.125 25.703125 53.5625 
Q 30.078125 56 35.796875 56 
Q 45.21875 56 50.046875 50.171875 
Q 54.890625 44.34375 54.890625 33.015625 
z
" id="DejaVuSans-104"/>
      <path d="M 9.421875 75.984375 
L 18.40625 75.984375 
L 18.40625 0 
L 9.421875 0 
z
" id="DejaVuSans-108"/>
      <path id="DejaVuSans-32"/>
      <path d="M 2.984375 54.6875 
L 12.5 54.6875 
L 29.59375 8.796875 
L 46.6875 54.6875 
L 56.203125 54.6875 
L 35.6875 0 
L 23.484375 0 
z
" id="DejaVuSans-118"/>
      <path d="M 30.609375 48.390625 
Q 23.390625 48.390625 19.1875 42.75 
Q 14.984375 37.109375 14.984375 27.296875 
Q 14.984375 17.484375 19.15625 11.84375 
Q 23.34375 6.203125 30.609375 6.203125 
Q 37.796875 6.203125 41.984375 11.859375 
Q 46.1875 17.53125 46.1875 27.296875 
Q 46.1875 37.015625 41.984375 42.703125 
Q 37.796875 48.390625 30.609375 48.390625 
z
M 30.609375 56 
Q 42.328125 56 49.015625 48.375 
Q 55.71875 40.765625 55.71875 27.296875 
Q 55.71875 13.875 49.015625 6.21875 
Q 42.328125 -1.421875 30.609375 -1.421875 
Q 18.84375 -1.421875 12.171875 6.21875 
Q 5.515625 13.875 5.515625 27.296875 
Q 5.515625 40.765625 12.171875 48.375 
Q 18.84375 56 30.609375 56 
z
" id="DejaVuSans-111"/>
      <path d="M 9.8125 72.90625 
L 51.703125 72.90625 
L 51.703125 64.59375 
L 19.671875 64.59375 
L 19.671875 43.109375 
L 48.578125 43.109375 
L 48.578125 34.8125 
L 19.671875 34.8125 
L 19.671875 0 
L 9.8125 0 
z
" id="DejaVuSans-70"/>
      <path d="M 34.28125 27.484375 
Q 23.390625 27.484375 19.1875 25 
Q 14.984375 22.515625 14.984375 16.5 
Q 14.984375 11.71875 18.140625 8.90625 
Q 21.296875 6.109375 26.703125 6.109375 
Q 34.1875 6.109375 38.703125 11.40625 
Q 43.21875 16.703125 43.21875 25.484375 
L 43.21875 27.484375 
z
M 52.203125 31.203125 
L 52.203125 0 
L 43.21875 0 
L 43.21875 8.296875 
Q 40.140625 3.328125 35.546875 0.953125 
Q 30.953125 -1.421875 24.3125 -1.421875 
Q 15.921875 -1.421875 10.953125 3.296875 
Q 6 8.015625 6 15.921875 
Q 6 25.140625 12.171875 29.828125 
Q 18.359375 34.515625 30.609375 34.515625 
L 43.21875 34.515625 
L 43.21875 35.40625 
Q 43.21875 41.609375 39.140625 45 
Q 35.0625 48.390625 27.6875 48.390625 
Q 23 48.390625 18.546875 47.265625 
Q 14.109375 46.140625 10.015625 43.890625 
L 10.015625 52.203125 
Q 14.9375 54.109375 19.578125 55.046875 
Q 24.21875 56 28.609375 56 
Q 40.484375 56 46.34375 49.84375 
Q 52.203125 43.703125 52.203125 31.203125 
z
M 33.59375 75.78125 
L 43.5 75.78125 
L 43.5 65.921875 
L 33.59375 65.921875 
z
M 14.5 75.78125 
L 24.40625 75.78125 
L 24.40625 65.921875 
L 14.5 65.921875 
z
" id="DejaVuSans-228"/>
      <path d="M 56.203125 29.59375 
L 56.203125 25.203125 
L 14.890625 25.203125 
Q 15.484375 15.921875 20.484375 11.0625 
Q 25.484375 6.203125 34.421875 6.203125 
Q 39.59375 6.203125 44.453125 7.46875 
Q 49.3125 8.734375 54.109375 11.28125 
L 54.109375 2.78125 
Q 49.265625 0.734375 44.1875 -0.34375 
Q 39.109375 -1.421875 33.890625 -1.421875 
Q 20.796875 -1.421875 13.15625 6.1875 
Q 5.515625 13.8125 5.515625 26.8125 
Q 5.515625 40.234375 12.765625 48.109375 
Q 20.015625 56 32.328125 56 
Q 43.359375 56 49.78125 48.890625 
Q 56.203125 41.796875 56.203125 29.59375 
z
M 47.21875 32.234375 
Q 47.125 39.59375 43.09375 43.984375 
Q 39.0625 48.390625 32.421875 48.390625 
Q 24.90625 48.390625 20.390625 44.140625 
Q 15.875 39.890625 15.1875 32.171875 
z
" id="DejaVuSans-101"/>
     </defs>
     <g transform="translate(16.318125 309.388359)rotate(-90)scale(0.12 -0.12)">
      <use xlink:href="#DejaVuSans-65"/>
      <use x="68.408203" xlink:href="#DejaVuSans-110"/>
      <use x="131.787109" xlink:href="#DejaVuSans-122"/>
      <use x="184.277344" xlink:href="#DejaVuSans-97"/>
      <use x="245.556641" xlink:href="#DejaVuSans-104"/>
      <use x="308.935547" xlink:href="#DejaVuSans-108"/>
      <use x="336.71875" xlink:href="#DejaVuSans-32"/>
      <use x="368.505859" xlink:href="#DejaVuSans-118"/>
      <use x="427.685547" xlink:href="#DejaVuSans-111"/>
      <use x="488.867188" xlink:href="#DejaVuSans-110"/>
      <use x="552.246094" xlink:href="#DejaVuSans-32"/>
      <use x="584.033203" xlink:href="#DejaVuSans-70"/>
      <use x="632.427734" xlink:href="#DejaVuSans-228"/>
      <use x="693.707031" xlink:href="#DejaVuSans-108"/>
      <use x="721.490234" xlink:href="#DejaVuSans-108"/>
      <use x="749.273438" xlink:href="#DejaVuSans-101"/>
      <use x="810.796875" xlink:href="#DejaVuSans-110"/>
     </g>
    </g>
   </g>
   <g id="line2d_33">
    <path clip-path="url(#pa43ffc9377)" d="M 113.626023 480.798428 
L 184.408264 480.798428 
L 193.845896 479.094212 
L 198.564712 478.668158 
L 203.283528 478.668158 
L 208.002344 478.242104 
L 217.439976 478.242104 
L 222.158792 475.68578 
L 226.877608 470.999185 
L 231.596424 463.330213 
L 236.31524 453.104916 
L 241.034057 437.76697 
L 245.752873 437.76697 
L 255.190505 430.524052 
L 259.909321 416.890322 
L 264.628137 399.848161 
L 269.346953 385.362323 
L 274.065769 365.763838 
L 288.222217 346.165352 
L 292.941033 324.436596 
L 297.659849 316.341569 
L 302.378665 305.690218 
L 307.097482 305.264164 
L 325.972746 286.091732 
L 330.691562 275.440381 
L 335.410378 275.440381 
L 340.129194 270.753787 
L 344.84801 270.753787 
L 354.285642 266.493246 
L 359.004458 258.824274 
L 363.723274 252.433463 
L 368.44209 248.598977 
L 373.160906 245.190544 
L 377.879723 243.486328 
L 392.036171 243.486328 
L 396.754987 234.965247 
L 401.473803 233.687085 
L 420.349067 231.130761 
L 425.067883 225.592058 
L 429.786699 225.592058 
L 434.505515 219.627302 
L 462.818412 219.627302 
L 467.537228 219.201248 
L 472.256044 217.923086 
L 476.97486 217.070978 
L 491.131308 217.070978 
L 495.850124 215.366761 
L 505.287756 214.940707 
L 510.006572 211.958329 
L 519.444205 211.958329 
L 524.163021 209.402005 
L 533.600653 204.71541 
L 538.319469 202.58514 
L 557.194733 198.3246 
L 561.913549 190.655627 
L 566.632365 190.229573 
L 571.351181 188.099303 
L 576.069997 186.821141 
L 585.507629 186.821141 
L 590.226446 185.969033 
L 594.945262 185.542979 
L 604.382894 185.542979 
L 609.10171 184.264817 
L 618.539342 184.264817 
L 627.976974 180.856384 
L 637.414606 179.578222 
L 651.571054 179.578222 
L 656.289871 178.726114 
L 661.008687 178.30006 
L 665.727503 178.30006 
L 675.165135 177.021898 
L 684.602767 177.021898 
L 689.321583 176.16979 
L 698.759215 176.16979 
L 708.196847 175.317682 
L 722.353295 174.465574 
L 769.541456 174.465574 
L 783.697904 174.03952 
L 788.41672 173.187411 
L 802.573169 173.187411 
L 816.729617 172.335303 
L 826.167249 171.483195 
L 830.886065 170.631087 
L 835.604881 170.205033 
L 882.793042 164.240277 
L 887.511858 157.849466 
L 896.94949 154.01498 
L 915.824754 148.902331 
L 920.54357 141.233358 
L 925.262386 135.268602 
L 929.981202 131.86017 
L 934.700018 128.025683 
L 948.856467 121.208819 
L 953.575283 115.670116 
L 958.294099 114.391954 
L 963.012915 113.9659 
L 967.731731 112.687738 
L 981.888179 111.409576 
L 986.606995 106.296927 
L 996.044627 103.740603 
L 1000.763443 101.610333 
L 1014.919892 99.906117 
L 1019.638708 95.645576 
L 1024.357524 93.94136 
L 1029.07634 90.532928 
L 1033.795156 90.532928 
L 1047.951604 89.254766 
L 1052.67042 87.550549 
L 1057.389236 87.124495 
L 1066.826868 83.716063 
L 1080.983317 82.437901 
L 1085.702133 77.751307 
L 1090.420949 76.899198 
L 1095.139765 74.342874 
L 1099.858581 73.490766 
L 1114.015029 70.508388 
L 1118.733845 69.65628 
L 1123.452661 64.117577 
L 1128.171477 61.987307 
L 1128.171477 61.987307 
" style="fill:none;stroke:#dbcd00;stroke-linecap:square;stroke-width:2;"/>
    <defs>
     <path d="M 0 1.5 
C 0.397805 1.5 0.77937 1.341951 1.06066 1.06066 
C 1.341951 0.77937 1.5 0.397805 1.5 0 
C 1.5 -0.397805 1.341951 -0.77937 1.06066 -1.06066 
C 0.77937 -1.341951 0.397805 -1.5 0 -1.5 
C -0.397805 -1.5 -0.77937 -1.341951 -1.06066 -1.06066 
C -1.341951 -0.77937 -1.5 -0.397805 -1.5 0 
C -1.5 0.397805 -1.341951 0.77937 -1.06066 1.06066 
C -0.77937 1.341951 -0.397805 1.5 0 1.5 
z
" id="mfe88536ad5" style="stroke:#dbcd00;"/>
    </defs>
    <g clip-path="url(#pa43ffc9377)">
     <use style="fill:#dbcd00;stroke:#dbcd00;" x="113.626023" xlink:href="#mfe88536ad5" y="480.798428"/>
     <use style="fill:#dbcd00;stroke:#dbcd00;" x="127.782471" xlink:href="#mfe88536ad5" y="480.798428"/>
     <use style="fill:#dbcd00;stroke:#dbcd00;" x="137.220103" xlink:href="#mfe88536ad5" y="480.798428"/>
     <use style="fill:#dbcd00;stroke:#dbcd00;" x="156.095367" xlink:href="#mfe88536ad5" y="480.798428"/>
     <use style="fill:#dbcd00;stroke:#dbcd00;" x="160.814183" xlink:href="#mfe88536ad5" y="480.798428"/>
     <use style="fill:#dbcd00;stroke:#dbcd00;" x="165.532999" xlink:href="#mfe88536ad5" y="480.798428"/>
     <use style="fill:#dbcd00;stroke:#dbcd00;" x="170.251816" xlink:href="#mfe88536ad5" y="480.798428"/>
     <use style="fill:#dbcd00;stroke:#dbcd00;" x="174.970632" xlink:href="#mfe88536ad5" y="480.798428"/>
     <use style="fill:#dbcd00;stroke:#dbcd00;" x="179.689448" xlink:href="#mfe88536ad5" y="480.798428"/>
     <use style="fill:#dbcd00;stroke:#dbcd00;" x="184.408264" xlink:href="#mfe88536ad5" y="480.798428"/>
     <use style="fill:#dbcd00;stroke:#dbcd00;" x="189.12708" xlink:href="#mfe88536ad5" y="479.94632"/>
     <use style="fill:#dbcd00;stroke:#dbcd00;" x="193.845896" xlink:href="#mfe88536ad5" y="479.094212"/>
     <use style="fill:#dbcd00;stroke:#dbcd00;" x="198.564712" xlink:href="#mfe88536ad5" y="478.668158"/>
     <use style="fill:#dbcd00;stroke:#dbcd00;" x="203.283528" xlink:href="#mfe88536ad5" y="478.668158"/>
     <use style="fill:#dbcd00;stroke:#dbcd00;" x="208.002344" xlink:href="#mfe88536ad5" y="478.242104"/>
     <use style="fill:#dbcd00;stroke:#dbcd00;" x="212.72116" xlink:href="#mfe88536ad5" y="478.242104"/>
     <use style="fill:#dbcd00;stroke:#dbcd00;" x="217.439976" xlink:href="#mfe88536ad5" y="478.242104"/>
     <use style="fill:#dbcd00;stroke:#dbcd00;" x="222.158792" xlink:href="#mfe88536ad5" y="475.68578"/>
     <use style="fill:#dbcd00;stroke:#dbcd00;" x="226.877608" xlink:href="#mfe88536ad5" y="470.999185"/>
     <use style="fill:#dbcd00;stroke:#dbcd00;" x="231.596424" xlink:href="#mfe88536ad5" y="463.330213"/>
     <use style="fill:#dbcd00;stroke:#dbcd00;" x="236.31524" xlink:href="#mfe88536ad5" y="453.104916"/>
     <use style="fill:#dbcd00;stroke:#dbcd00;" x="241.034057" xlink:href="#mfe88536ad5" y="437.76697"/>
     <use style="fill:#dbcd00;stroke:#dbcd00;" x="245.752873" xlink:href="#mfe88536ad5" y="437.76697"/>
     <use style="fill:#dbcd00;stroke:#dbcd00;" x="255.190505" xlink:href="#mfe88536ad5" y="430.524052"/>
     <use style="fill:#dbcd00;stroke:#dbcd00;" x="259.909321" xlink:href="#mfe88536ad5" y="416.890322"/>
     <use style="fill:#dbcd00;stroke:#dbcd00;" x="264.628137" xlink:href="#mfe88536ad5" y="399.848161"/>
     <use style="fill:#dbcd00;stroke:#dbcd00;" x="269.346953" xlink:href="#mfe88536ad5" y="385.362323"/>
     <use style="fill:#dbcd00;stroke:#dbcd00;" x="274.065769" xlink:href="#mfe88536ad5" y="365.763838"/>
     <use style="fill:#dbcd00;stroke:#dbcd00;" x="288.222217" xlink:href="#mfe88536ad5" y="346.165352"/>
     <use style="fill:#dbcd00;stroke:#dbcd00;" x="292.941033" xlink:href="#mfe88536ad5" y="324.436596"/>
     <use style="fill:#dbcd00;stroke:#dbcd00;" x="297.659849" xlink:href="#mfe88536ad5" y="316.341569"/>
     <use style="fill:#dbcd00;stroke:#dbcd00;" x="302.378665" xlink:href="#mfe88536ad5" y="305.690218"/>
     <use style="fill:#dbcd00;stroke:#dbcd00;" x="307.097482" xlink:href="#mfe88536ad5" y="305.264164"/>
     <use style="fill:#dbcd00;stroke:#dbcd00;" x="325.972746" xlink:href="#mfe88536ad5" y="286.091732"/>
     <use style="fill:#dbcd00;stroke:#dbcd00;" x="330.691562" xlink:href="#mfe88536ad5" y="275.440381"/>
     <use style="fill:#dbcd00;stroke:#dbcd00;" x="335.410378" xlink:href="#mfe88536ad5" y="275.440381"/>
     <use style="fill:#dbcd00;stroke:#dbcd00;" x="340.129194" xlink:href="#mfe88536ad5" y="270.753787"/>
     <use style="fill:#dbcd00;stroke:#dbcd00;" x="344.84801" xlink:href="#mfe88536ad5" y="270.753787"/>
     <use style="fill:#dbcd00;stroke:#dbcd00;" x="354.285642" xlink:href="#mfe88536ad5" y="266.493246"/>
     <use style="fill:#dbcd00;stroke:#dbcd00;" x="359.004458" xlink:href="#mfe88536ad5" y="258.824274"/>
     <use style="fill:#dbcd00;stroke:#dbcd00;" x="363.723274" xlink:href="#mfe88536ad5" y="252.433463"/>
     <use style="fill:#dbcd00;stroke:#dbcd00;" x="368.44209" xlink:href="#mfe88536ad5" y="248.598977"/>
     <use style="fill:#dbcd00;stroke:#dbcd00;" x="373.160906" xlink:href="#mfe88536ad5" y="245.190544"/>
     <use style="fill:#dbcd00;stroke:#dbcd00;" x="377.879723" xlink:href="#mfe88536ad5" y="243.486328"/>
     <use style="fill:#dbcd00;stroke:#dbcd00;" x="387.317355" xlink:href="#mfe88536ad5" y="243.486328"/>
     <use style="fill:#dbcd00;stroke:#dbcd00;" x="392.036171" xlink:href="#mfe88536ad5" y="243.486328"/>
     <use style="fill:#dbcd00;stroke:#dbcd00;" x="396.754987" xlink:href="#mfe88536ad5" y="234.965247"/>
     <use style="fill:#dbcd00;stroke:#dbcd00;" x="401.473803" xlink:href="#mfe88536ad5" y="233.687085"/>
     <use style="fill:#dbcd00;stroke:#dbcd00;" x="410.911435" xlink:href="#mfe88536ad5" y="232.408923"/>
     <use style="fill:#dbcd00;stroke:#dbcd00;" x="420.349067" xlink:href="#mfe88536ad5" y="231.130761"/>
     <use style="fill:#dbcd00;stroke:#dbcd00;" x="425.067883" xlink:href="#mfe88536ad5" y="225.592058"/>
     <use style="fill:#dbcd00;stroke:#dbcd00;" x="429.786699" xlink:href="#mfe88536ad5" y="225.592058"/>
     <use style="fill:#dbcd00;stroke:#dbcd00;" x="434.505515" xlink:href="#mfe88536ad5" y="219.627302"/>
     <use style="fill:#dbcd00;stroke:#dbcd00;" x="439.224331" xlink:href="#mfe88536ad5" y="219.627302"/>
     <use style="fill:#dbcd00;stroke:#dbcd00;" x="443.943147" xlink:href="#mfe88536ad5" y="219.627302"/>
     <use style="fill:#dbcd00;stroke:#dbcd00;" x="453.38078" xlink:href="#mfe88536ad5" y="219.627302"/>
     <use style="fill:#dbcd00;stroke:#dbcd00;" x="458.099596" xlink:href="#mfe88536ad5" y="219.627302"/>
     <use style="fill:#dbcd00;stroke:#dbcd00;" x="462.818412" xlink:href="#mfe88536ad5" y="219.627302"/>
     <use style="fill:#dbcd00;stroke:#dbcd00;" x="467.537228" xlink:href="#mfe88536ad5" y="219.201248"/>
     <use style="fill:#dbcd00;stroke:#dbcd00;" x="472.256044" xlink:href="#mfe88536ad5" y="217.923086"/>
     <use style="fill:#dbcd00;stroke:#dbcd00;" x="476.97486" xlink:href="#mfe88536ad5" y="217.070978"/>
     <use style="fill:#dbcd00;stroke:#dbcd00;" x="486.412492" xlink:href="#mfe88536ad5" y="217.070978"/>
     <use style="fill:#dbcd00;stroke:#dbcd00;" x="491.131308" xlink:href="#mfe88536ad5" y="217.070978"/>
     <use style="fill:#dbcd00;stroke:#dbcd00;" x="495.850124" xlink:href="#mfe88536ad5" y="215.366761"/>
     <use style="fill:#dbcd00;stroke:#dbcd00;" x="505.287756" xlink:href="#mfe88536ad5" y="214.940707"/>
     <use style="fill:#dbcd00;stroke:#dbcd00;" x="510.006572" xlink:href="#mfe88536ad5" y="211.958329"/>
     <use style="fill:#dbcd00;stroke:#dbcd00;" x="519.444205" xlink:href="#mfe88536ad5" y="211.958329"/>
     <use style="fill:#dbcd00;stroke:#dbcd00;" x="524.163021" xlink:href="#mfe88536ad5" y="209.402005"/>
     <use style="fill:#dbcd00;stroke:#dbcd00;" x="533.600653" xlink:href="#mfe88536ad5" y="204.71541"/>
     <use style="fill:#dbcd00;stroke:#dbcd00;" x="538.319469" xlink:href="#mfe88536ad5" y="202.58514"/>
     <use style="fill:#dbcd00;stroke:#dbcd00;" x="557.194733" xlink:href="#mfe88536ad5" y="198.3246"/>
     <use style="fill:#dbcd00;stroke:#dbcd00;" x="561.913549" xlink:href="#mfe88536ad5" y="190.655627"/>
     <use style="fill:#dbcd00;stroke:#dbcd00;" x="566.632365" xlink:href="#mfe88536ad5" y="190.229573"/>
     <use style="fill:#dbcd00;stroke:#dbcd00;" x="571.351181" xlink:href="#mfe88536ad5" y="188.099303"/>
     <use style="fill:#dbcd00;stroke:#dbcd00;" x="576.069997" xlink:href="#mfe88536ad5" y="186.821141"/>
     <use style="fill:#dbcd00;stroke:#dbcd00;" x="585.507629" xlink:href="#mfe88536ad5" y="186.821141"/>
     <use style="fill:#dbcd00;stroke:#dbcd00;" x="590.226446" xlink:href="#mfe88536ad5" y="185.969033"/>
     <use style="fill:#dbcd00;stroke:#dbcd00;" x="594.945262" xlink:href="#mfe88536ad5" y="185.542979"/>
     <use style="fill:#dbcd00;stroke:#dbcd00;" x="604.382894" xlink:href="#mfe88536ad5" y="185.542979"/>
     <use style="fill:#dbcd00;stroke:#dbcd00;" x="609.10171" xlink:href="#mfe88536ad5" y="184.264817"/>
     <use style="fill:#dbcd00;stroke:#dbcd00;" x="618.539342" xlink:href="#mfe88536ad5" y="184.264817"/>
     <use style="fill:#dbcd00;stroke:#dbcd00;" x="627.976974" xlink:href="#mfe88536ad5" y="180.856384"/>
     <use style="fill:#dbcd00;stroke:#dbcd00;" x="637.414606" xlink:href="#mfe88536ad5" y="179.578222"/>
     <use style="fill:#dbcd00;stroke:#dbcd00;" x="642.133422" xlink:href="#mfe88536ad5" y="179.578222"/>
     <use style="fill:#dbcd00;stroke:#dbcd00;" x="651.571054" xlink:href="#mfe88536ad5" y="179.578222"/>
     <use style="fill:#dbcd00;stroke:#dbcd00;" x="656.289871" xlink:href="#mfe88536ad5" y="178.726114"/>
     <use style="fill:#dbcd00;stroke:#dbcd00;" x="661.008687" xlink:href="#mfe88536ad5" y="178.30006"/>
     <use style="fill:#dbcd00;stroke:#dbcd00;" x="665.727503" xlink:href="#mfe88536ad5" y="178.30006"/>
     <use style="fill:#dbcd00;stroke:#dbcd00;" x="675.165135" xlink:href="#mfe88536ad5" y="177.021898"/>
     <use style="fill:#dbcd00;stroke:#dbcd00;" x="684.602767" xlink:href="#mfe88536ad5" y="177.021898"/>
     <use style="fill:#dbcd00;stroke:#dbcd00;" x="689.321583" xlink:href="#mfe88536ad5" y="176.16979"/>
     <use style="fill:#dbcd00;stroke:#dbcd00;" x="694.040399" xlink:href="#mfe88536ad5" y="176.16979"/>
     <use style="fill:#dbcd00;stroke:#dbcd00;" x="698.759215" xlink:href="#mfe88536ad5" y="176.16979"/>
     <use style="fill:#dbcd00;stroke:#dbcd00;" x="703.478031" xlink:href="#mfe88536ad5" y="175.743736"/>
     <use style="fill:#dbcd00;stroke:#dbcd00;" x="708.196847" xlink:href="#mfe88536ad5" y="175.317682"/>
     <use style="fill:#dbcd00;stroke:#dbcd00;" x="722.353295" xlink:href="#mfe88536ad5" y="174.465574"/>
     <use style="fill:#dbcd00;stroke:#dbcd00;" x="727.072112" xlink:href="#mfe88536ad5" y="174.465574"/>
     <use style="fill:#dbcd00;stroke:#dbcd00;" x="731.790928" xlink:href="#mfe88536ad5" y="174.465574"/>
     <use style="fill:#dbcd00;stroke:#dbcd00;" x="736.509744" xlink:href="#mfe88536ad5" y="174.465574"/>
     <use style="fill:#dbcd00;stroke:#dbcd00;" x="750.666192" xlink:href="#mfe88536ad5" y="174.465574"/>
     <use style="fill:#dbcd00;stroke:#dbcd00;" x="755.385008" xlink:href="#mfe88536ad5" y="174.465574"/>
     <use style="fill:#dbcd00;stroke:#dbcd00;" x="760.103824" xlink:href="#mfe88536ad5" y="174.465574"/>
     <use style="fill:#dbcd00;stroke:#dbcd00;" x="764.82264" xlink:href="#mfe88536ad5" y="174.465574"/>
     <use style="fill:#dbcd00;stroke:#dbcd00;" x="769.541456" xlink:href="#mfe88536ad5" y="174.465574"/>
     <use style="fill:#dbcd00;stroke:#dbcd00;" x="783.697904" xlink:href="#mfe88536ad5" y="174.03952"/>
     <use style="fill:#dbcd00;stroke:#dbcd00;" x="788.41672" xlink:href="#mfe88536ad5" y="173.187411"/>
     <use style="fill:#dbcd00;stroke:#dbcd00;" x="793.135536" xlink:href="#mfe88536ad5" y="173.187411"/>
     <use style="fill:#dbcd00;stroke:#dbcd00;" x="797.854353" xlink:href="#mfe88536ad5" y="173.187411"/>
     <use style="fill:#dbcd00;stroke:#dbcd00;" x="802.573169" xlink:href="#mfe88536ad5" y="173.187411"/>
     <use style="fill:#dbcd00;stroke:#dbcd00;" x="816.729617" xlink:href="#mfe88536ad5" y="172.335303"/>
     <use style="fill:#dbcd00;stroke:#dbcd00;" x="821.448433" xlink:href="#mfe88536ad5" y="171.909249"/>
     <use style="fill:#dbcd00;stroke:#dbcd00;" x="826.167249" xlink:href="#mfe88536ad5" y="171.483195"/>
     <use style="fill:#dbcd00;stroke:#dbcd00;" x="830.886065" xlink:href="#mfe88536ad5" y="170.631087"/>
     <use style="fill:#dbcd00;stroke:#dbcd00;" x="835.604881" xlink:href="#mfe88536ad5" y="170.205033"/>
     <use style="fill:#dbcd00;stroke:#dbcd00;" x="882.793042" xlink:href="#mfe88536ad5" y="164.240277"/>
     <use style="fill:#dbcd00;stroke:#dbcd00;" x="887.511858" xlink:href="#mfe88536ad5" y="157.849466"/>
     <use style="fill:#dbcd00;stroke:#dbcd00;" x="896.94949" xlink:href="#mfe88536ad5" y="154.01498"/>
     <use style="fill:#dbcd00;stroke:#dbcd00;" x="901.668306" xlink:href="#mfe88536ad5" y="152.736818"/>
     <use style="fill:#dbcd00;stroke:#dbcd00;" x="915.824754" xlink:href="#mfe88536ad5" y="148.902331"/>
     <use style="fill:#dbcd00;stroke:#dbcd00;" x="920.54357" xlink:href="#mfe88536ad5" y="141.233358"/>
     <use style="fill:#dbcd00;stroke:#dbcd00;" x="925.262386" xlink:href="#mfe88536ad5" y="135.268602"/>
     <use style="fill:#dbcd00;stroke:#dbcd00;" x="929.981202" xlink:href="#mfe88536ad5" y="131.86017"/>
     <use style="fill:#dbcd00;stroke:#dbcd00;" x="934.700018" xlink:href="#mfe88536ad5" y="128.025683"/>
     <use style="fill:#dbcd00;stroke:#dbcd00;" x="948.856467" xlink:href="#mfe88536ad5" y="121.208819"/>
     <use style="fill:#dbcd00;stroke:#dbcd00;" x="953.575283" xlink:href="#mfe88536ad5" y="115.670116"/>
     <use style="fill:#dbcd00;stroke:#dbcd00;" x="958.294099" xlink:href="#mfe88536ad5" y="114.391954"/>
     <use style="fill:#dbcd00;stroke:#dbcd00;" x="963.012915" xlink:href="#mfe88536ad5" y="113.9659"/>
     <use style="fill:#dbcd00;stroke:#dbcd00;" x="967.731731" xlink:href="#mfe88536ad5" y="112.687738"/>
     <use style="fill:#dbcd00;stroke:#dbcd00;" x="981.888179" xlink:href="#mfe88536ad5" y="111.409576"/>
     <use style="fill:#dbcd00;stroke:#dbcd00;" x="986.606995" xlink:href="#mfe88536ad5" y="106.296927"/>
     <use style="fill:#dbcd00;stroke:#dbcd00;" x="991.325811" xlink:href="#mfe88536ad5" y="105.018765"/>
     <use style="fill:#dbcd00;stroke:#dbcd00;" x="996.044627" xlink:href="#mfe88536ad5" y="103.740603"/>
     <use style="fill:#dbcd00;stroke:#dbcd00;" x="1000.763443" xlink:href="#mfe88536ad5" y="101.610333"/>
     <use style="fill:#dbcd00;stroke:#dbcd00;" x="1014.919892" xlink:href="#mfe88536ad5" y="99.906117"/>
     <use style="fill:#dbcd00;stroke:#dbcd00;" x="1019.638708" xlink:href="#mfe88536ad5" y="95.645576"/>
     <use style="fill:#dbcd00;stroke:#dbcd00;" x="1024.357524" xlink:href="#mfe88536ad5" y="93.94136"/>
     <use style="fill:#dbcd00;stroke:#dbcd00;" x="1029.07634" xlink:href="#mfe88536ad5" y="90.532928"/>
     <use style="fill:#dbcd00;stroke:#dbcd00;" x="1033.795156" xlink:href="#mfe88536ad5" y="90.532928"/>
     <use style="fill:#dbcd00;stroke:#dbcd00;" x="1047.951604" xlink:href="#mfe88536ad5" y="89.254766"/>
     <use style="fill:#dbcd00;stroke:#dbcd00;" x="1052.67042" xlink:href="#mfe88536ad5" y="87.550549"/>
     <use style="fill:#dbcd00;stroke:#dbcd00;" x="1057.389236" xlink:href="#mfe88536ad5" y="87.124495"/>
     <use style="fill:#dbcd00;stroke:#dbcd00;" x="1062.108052" xlink:href="#mfe88536ad5" y="85.420279"/>
     <use style="fill:#dbcd00;stroke:#dbcd00;" x="1066.826868" xlink:href="#mfe88536ad5" y="83.716063"/>
     <use style="fill:#dbcd00;stroke:#dbcd00;" x="1080.983317" xlink:href="#mfe88536ad5" y="82.437901"/>
     <use style="fill:#dbcd00;stroke:#dbcd00;" x="1085.702133" xlink:href="#mfe88536ad5" y="77.751307"/>
     <use style="fill:#dbcd00;stroke:#dbcd00;" x="1090.420949" xlink:href="#mfe88536ad5" y="76.899198"/>
     <use style="fill:#dbcd00;stroke:#dbcd00;" x="1095.139765" xlink:href="#mfe88536ad5" y="74.342874"/>
     <use style="fill:#dbcd00;stroke:#dbcd00;" x="1099.858581" xlink:href="#mfe88536ad5" y="73.490766"/>
     <use style="fill:#dbcd00;stroke:#dbcd00;" x="1114.015029" xlink:href="#mfe88536ad5" y="70.508388"/>
     <use style="fill:#dbcd00;stroke:#dbcd00;" x="1118.733845" xlink:href="#mfe88536ad5" y="69.65628"/>
     <use style="fill:#dbcd00;stroke:#dbcd00;" x="1123.452661" xlink:href="#mfe88536ad5" y="64.117577"/>
     <use style="fill:#dbcd00;stroke:#dbcd00;" x="1128.171477" xlink:href="#mfe88536ad5" y="61.987307"/>
    </g>
   </g>
   <g id="line2d_34">
    <path clip-path="url(#pa43ffc9377)" d="M 113.626023 480.372374 
L 127.782471 479.94632 
L 137.220103 479.094212 
L 156.095367 478.668158 
L 160.814183 478.242104 
L 165.532999 477.389996 
L 170.251816 473.981564 
L 174.970632 468.442861 
L 184.408264 456.513348 
L 189.12708 443.305673 
L 193.845896 438.619078 
L 198.564712 425.411403 
L 203.283528 409.22135 
L 208.002344 390.048918 
L 212.72116 379.823621 
L 217.439976 370.024378 
L 222.158792 367.042 
L 226.877608 360.651189 
L 231.596424 348.295622 
L 236.31524 350.851946 
L 241.034057 347.869568 
L 245.752873 335.940055 
L 255.190505 332.531622 
L 259.909321 338.070325 
L 264.628137 348.295622 
L 269.346953 354.686432 
L 274.065769 367.894108 
L 288.222217 367.042 
L 292.941033 385.362323 
L 302.378665 400.700269 
L 307.097482 401.126323 
L 325.972746 413.907944 
L 330.691562 424.133241 
L 335.410378 424.133241 
L 340.129194 427.541673 
L 344.84801 424.985349 
L 354.285642 438.619078 
L 359.004458 446.714105 
L 363.723274 453.104916 
L 368.44209 454.383078 
L 373.160906 456.939402 
L 377.879723 457.365456 
L 387.317355 456.939402 
L 392.036171 456.087294 
L 396.754987 464.182321 
L 401.473803 463.756267 
L 410.911435 465.460483 
L 420.349067 466.738645 
L 425.067883 471.851293 
L 429.786699 471.851293 
L 434.505515 476.537888 
L 439.224331 475.68578 
L 443.943147 473.981564 
L 453.38078 473.129456 
L 458.099596 471.851293 
L 467.537228 470.999185 
L 472.256044 463.756267 
L 476.97486 463.756267 
L 486.412492 461.625997 
L 491.131308 457.365456 
L 505.287756 454.809132 
L 510.006572 457.79151 
L 519.444205 454.383078 
L 524.163021 456.939402 
L 533.600653 461.199942 
L 538.319469 462.904159 
L 557.194733 465.886537 
L 561.913549 470.999185 
L 566.632365 470.999185 
L 571.351181 469.721023 
L 576.069997 470.999185 
L 585.507629 470.999185 
L 590.226446 471.851293 
L 594.945262 472.277348 
L 604.382894 471.425239 
L 609.10171 472.703402 
L 618.539342 472.277348 
L 627.976974 475.68578 
L 637.414606 476.111834 
L 651.571054 476.111834 
L 656.289871 476.963942 
L 661.008687 477.389996 
L 665.727503 476.963942 
L 675.165135 478.242104 
L 684.602767 478.242104 
L 689.321583 479.094212 
L 703.478031 479.094212 
L 708.196847 479.520266 
L 722.353295 480.372374 
L 736.509744 480.372374 
L 750.666192 479.94632 
L 755.385008 479.094212 
L 760.103824 479.094212 
L 769.541456 478.242104 
L 783.697904 478.242104 
L 788.41672 479.094212 
L 797.854353 477.389996 
L 802.573169 477.389996 
L 816.729617 474.407618 
L 821.448433 473.981564 
L 826.167249 474.407618 
L 830.886065 473.55551 
L 835.604881 473.129456 
L 882.793042 451.4007 
L 887.511858 454.383078 
L 896.94949 445.435943 
L 901.668306 445.009889 
L 915.824754 444.157781 
L 920.54357 450.974646 
L 925.262386 455.235186 
L 929.981202 458.643618 
L 934.700018 456.513348 
L 948.856467 460.773888 
L 953.575283 465.460483 
L 963.012915 463.756267 
L 967.731731 463.756267 
L 981.888179 461.199942 
L 986.606995 464.608375 
L 991.325811 465.460483 
L 1000.763443 462.904159 
L 1014.919892 464.182321 
L 1019.638708 468.016807 
L 1029.07634 471.425239 
L 1033.795156 469.721023 
L 1047.951604 465.886537 
L 1052.67042 464.182321 
L 1057.389236 464.608375 
L 1062.108052 466.312591 
L 1066.826868 461.625997 
L 1080.983317 461.199942 
L 1085.702133 463.330213 
L 1090.420949 461.199942 
L 1095.139765 462.478105 
L 1099.858581 456.939402 
L 1114.015029 449.270429 
L 1118.733845 447.566213 
L 1123.452661 449.270429 
L 1128.171477 444.157781 
L 1128.171477 444.157781 
" style="fill:none;stroke:#2792cb;stroke-linecap:square;stroke-width:2;"/>
    <defs>
     <path d="M 0 1.5 
C 0.397805 1.5 0.77937 1.341951 1.06066 1.06066 
C 1.341951 0.77937 1.5 0.397805 1.5 0 
C 1.5 -0.397805 1.341951 -0.77937 1.06066 -1.06066 
C 0.77937 -1.341951 0.397805 -1.5 0 -1.5 
C -0.397805 -1.5 -0.77937 -1.341951 -1.06066 -1.06066 
C -1.341951 -0.77937 -1.5 -0.397805 -1.5 0 
C -1.5 0.397805 -1.341951 0.77937 -1.06066 1.06066 
C -0.77937 1.341951 -0.397805 1.5 0 1.5 
z
" id="m61f58a239f" style="stroke:#2792cb;"/>
    </defs>
    <g clip-path="url(#pa43ffc9377)">
     <use style="fill:#2792cb;stroke:#2792cb;" x="113.626023" xlink:href="#m61f58a239f" y="480.372374"/>
     <use style="fill:#2792cb;stroke:#2792cb;" x="127.782471" xlink:href="#m61f58a239f" y="479.94632"/>
     <use style="fill:#2792cb;stroke:#2792cb;" x="137.220103" xlink:href="#m61f58a239f" y="479.094212"/>
     <use style="fill:#2792cb;stroke:#2792cb;" x="156.095367" xlink:href="#m61f58a239f" y="478.668158"/>
     <use style="fill:#2792cb;stroke:#2792cb;" x="160.814183" xlink:href="#m61f58a239f" y="478.242104"/>
     <use style="fill:#2792cb;stroke:#2792cb;" x="165.532999" xlink:href="#m61f58a239f" y="477.389996"/>
     <use style="fill:#2792cb;stroke:#2792cb;" x="170.251816" xlink:href="#m61f58a239f" y="473.981564"/>
     <use style="fill:#2792cb;stroke:#2792cb;" x="174.970632" xlink:href="#m61f58a239f" y="468.442861"/>
     <use style="fill:#2792cb;stroke:#2792cb;" x="179.689448" xlink:href="#m61f58a239f" y="462.478105"/>
     <use style="fill:#2792cb;stroke:#2792cb;" x="184.408264" xlink:href="#m61f58a239f" y="456.513348"/>
     <use style="fill:#2792cb;stroke:#2792cb;" x="189.12708" xlink:href="#m61f58a239f" y="443.305673"/>
     <use style="fill:#2792cb;stroke:#2792cb;" x="193.845896" xlink:href="#m61f58a239f" y="438.619078"/>
     <use style="fill:#2792cb;stroke:#2792cb;" x="198.564712" xlink:href="#m61f58a239f" y="425.411403"/>
     <use style="fill:#2792cb;stroke:#2792cb;" x="203.283528" xlink:href="#m61f58a239f" y="409.22135"/>
     <use style="fill:#2792cb;stroke:#2792cb;" x="208.002344" xlink:href="#m61f58a239f" y="390.048918"/>
     <use style="fill:#2792cb;stroke:#2792cb;" x="212.72116" xlink:href="#m61f58a239f" y="379.823621"/>
     <use style="fill:#2792cb;stroke:#2792cb;" x="217.439976" xlink:href="#m61f58a239f" y="370.024378"/>
     <use style="fill:#2792cb;stroke:#2792cb;" x="222.158792" xlink:href="#m61f58a239f" y="367.042"/>
     <use style="fill:#2792cb;stroke:#2792cb;" x="226.877608" xlink:href="#m61f58a239f" y="360.651189"/>
     <use style="fill:#2792cb;stroke:#2792cb;" x="231.596424" xlink:href="#m61f58a239f" y="348.295622"/>
     <use style="fill:#2792cb;stroke:#2792cb;" x="236.31524" xlink:href="#m61f58a239f" y="350.851946"/>
     <use style="fill:#2792cb;stroke:#2792cb;" x="241.034057" xlink:href="#m61f58a239f" y="347.869568"/>
     <use style="fill:#2792cb;stroke:#2792cb;" x="245.752873" xlink:href="#m61f58a239f" y="335.940055"/>
     <use style="fill:#2792cb;stroke:#2792cb;" x="255.190505" xlink:href="#m61f58a239f" y="332.531622"/>
     <use style="fill:#2792cb;stroke:#2792cb;" x="259.909321" xlink:href="#m61f58a239f" y="338.070325"/>
     <use style="fill:#2792cb;stroke:#2792cb;" x="264.628137" xlink:href="#m61f58a239f" y="348.295622"/>
     <use style="fill:#2792cb;stroke:#2792cb;" x="269.346953" xlink:href="#m61f58a239f" y="354.686432"/>
     <use style="fill:#2792cb;stroke:#2792cb;" x="274.065769" xlink:href="#m61f58a239f" y="367.894108"/>
     <use style="fill:#2792cb;stroke:#2792cb;" x="288.222217" xlink:href="#m61f58a239f" y="367.042"/>
     <use style="fill:#2792cb;stroke:#2792cb;" x="292.941033" xlink:href="#m61f58a239f" y="385.362323"/>
     <use style="fill:#2792cb;stroke:#2792cb;" x="297.659849" xlink:href="#m61f58a239f" y="393.031296"/>
     <use style="fill:#2792cb;stroke:#2792cb;" x="302.378665" xlink:href="#m61f58a239f" y="400.700269"/>
     <use style="fill:#2792cb;stroke:#2792cb;" x="307.097482" xlink:href="#m61f58a239f" y="401.126323"/>
     <use style="fill:#2792cb;stroke:#2792cb;" x="325.972746" xlink:href="#m61f58a239f" y="413.907944"/>
     <use style="fill:#2792cb;stroke:#2792cb;" x="330.691562" xlink:href="#m61f58a239f" y="424.133241"/>
     <use style="fill:#2792cb;stroke:#2792cb;" x="335.410378" xlink:href="#m61f58a239f" y="424.133241"/>
     <use style="fill:#2792cb;stroke:#2792cb;" x="340.129194" xlink:href="#m61f58a239f" y="427.541673"/>
     <use style="fill:#2792cb;stroke:#2792cb;" x="344.84801" xlink:href="#m61f58a239f" y="424.985349"/>
     <use style="fill:#2792cb;stroke:#2792cb;" x="354.285642" xlink:href="#m61f58a239f" y="438.619078"/>
     <use style="fill:#2792cb;stroke:#2792cb;" x="359.004458" xlink:href="#m61f58a239f" y="446.714105"/>
     <use style="fill:#2792cb;stroke:#2792cb;" x="363.723274" xlink:href="#m61f58a239f" y="453.104916"/>
     <use style="fill:#2792cb;stroke:#2792cb;" x="368.44209" xlink:href="#m61f58a239f" y="454.383078"/>
     <use style="fill:#2792cb;stroke:#2792cb;" x="373.160906" xlink:href="#m61f58a239f" y="456.939402"/>
     <use style="fill:#2792cb;stroke:#2792cb;" x="377.879723" xlink:href="#m61f58a239f" y="457.365456"/>
     <use style="fill:#2792cb;stroke:#2792cb;" x="387.317355" xlink:href="#m61f58a239f" y="456.939402"/>
     <use style="fill:#2792cb;stroke:#2792cb;" x="392.036171" xlink:href="#m61f58a239f" y="456.087294"/>
     <use style="fill:#2792cb;stroke:#2792cb;" x="396.754987" xlink:href="#m61f58a239f" y="464.182321"/>
     <use style="fill:#2792cb;stroke:#2792cb;" x="401.473803" xlink:href="#m61f58a239f" y="463.756267"/>
     <use style="fill:#2792cb;stroke:#2792cb;" x="410.911435" xlink:href="#m61f58a239f" y="465.460483"/>
     <use style="fill:#2792cb;stroke:#2792cb;" x="420.349067" xlink:href="#m61f58a239f" y="466.738645"/>
     <use style="fill:#2792cb;stroke:#2792cb;" x="425.067883" xlink:href="#m61f58a239f" y="471.851293"/>
     <use style="fill:#2792cb;stroke:#2792cb;" x="429.786699" xlink:href="#m61f58a239f" y="471.851293"/>
     <use style="fill:#2792cb;stroke:#2792cb;" x="434.505515" xlink:href="#m61f58a239f" y="476.537888"/>
     <use style="fill:#2792cb;stroke:#2792cb;" x="439.224331" xlink:href="#m61f58a239f" y="475.68578"/>
     <use style="fill:#2792cb;stroke:#2792cb;" x="443.943147" xlink:href="#m61f58a239f" y="473.981564"/>
     <use style="fill:#2792cb;stroke:#2792cb;" x="453.38078" xlink:href="#m61f58a239f" y="473.129456"/>
     <use style="fill:#2792cb;stroke:#2792cb;" x="458.099596" xlink:href="#m61f58a239f" y="471.851293"/>
     <use style="fill:#2792cb;stroke:#2792cb;" x="462.818412" xlink:href="#m61f58a239f" y="471.425239"/>
     <use style="fill:#2792cb;stroke:#2792cb;" x="467.537228" xlink:href="#m61f58a239f" y="470.999185"/>
     <use style="fill:#2792cb;stroke:#2792cb;" x="472.256044" xlink:href="#m61f58a239f" y="463.756267"/>
     <use style="fill:#2792cb;stroke:#2792cb;" x="476.97486" xlink:href="#m61f58a239f" y="463.756267"/>
     <use style="fill:#2792cb;stroke:#2792cb;" x="486.412492" xlink:href="#m61f58a239f" y="461.625997"/>
     <use style="fill:#2792cb;stroke:#2792cb;" x="491.131308" xlink:href="#m61f58a239f" y="457.365456"/>
     <use style="fill:#2792cb;stroke:#2792cb;" x="495.850124" xlink:href="#m61f58a239f" y="456.513348"/>
     <use style="fill:#2792cb;stroke:#2792cb;" x="505.287756" xlink:href="#m61f58a239f" y="454.809132"/>
     <use style="fill:#2792cb;stroke:#2792cb;" x="510.006572" xlink:href="#m61f58a239f" y="457.79151"/>
     <use style="fill:#2792cb;stroke:#2792cb;" x="519.444205" xlink:href="#m61f58a239f" y="454.383078"/>
     <use style="fill:#2792cb;stroke:#2792cb;" x="524.163021" xlink:href="#m61f58a239f" y="456.939402"/>
     <use style="fill:#2792cb;stroke:#2792cb;" x="533.600653" xlink:href="#m61f58a239f" y="461.199942"/>
     <use style="fill:#2792cb;stroke:#2792cb;" x="538.319469" xlink:href="#m61f58a239f" y="462.904159"/>
     <use style="fill:#2792cb;stroke:#2792cb;" x="557.194733" xlink:href="#m61f58a239f" y="465.886537"/>
     <use style="fill:#2792cb;stroke:#2792cb;" x="561.913549" xlink:href="#m61f58a239f" y="470.999185"/>
     <use style="fill:#2792cb;stroke:#2792cb;" x="566.632365" xlink:href="#m61f58a239f" y="470.999185"/>
     <use style="fill:#2792cb;stroke:#2792cb;" x="571.351181" xlink:href="#m61f58a239f" y="469.721023"/>
     <use style="fill:#2792cb;stroke:#2792cb;" x="576.069997" xlink:href="#m61f58a239f" y="470.999185"/>
     <use style="fill:#2792cb;stroke:#2792cb;" x="585.507629" xlink:href="#m61f58a239f" y="470.999185"/>
     <use style="fill:#2792cb;stroke:#2792cb;" x="590.226446" xlink:href="#m61f58a239f" y="471.851293"/>
     <use style="fill:#2792cb;stroke:#2792cb;" x="594.945262" xlink:href="#m61f58a239f" y="472.277348"/>
     <use style="fill:#2792cb;stroke:#2792cb;" x="604.382894" xlink:href="#m61f58a239f" y="471.425239"/>
     <use style="fill:#2792cb;stroke:#2792cb;" x="609.10171" xlink:href="#m61f58a239f" y="472.703402"/>
     <use style="fill:#2792cb;stroke:#2792cb;" x="618.539342" xlink:href="#m61f58a239f" y="472.277348"/>
     <use style="fill:#2792cb;stroke:#2792cb;" x="627.976974" xlink:href="#m61f58a239f" y="475.68578"/>
     <use style="fill:#2792cb;stroke:#2792cb;" x="637.414606" xlink:href="#m61f58a239f" y="476.111834"/>
     <use style="fill:#2792cb;stroke:#2792cb;" x="642.133422" xlink:href="#m61f58a239f" y="476.111834"/>
     <use style="fill:#2792cb;stroke:#2792cb;" x="651.571054" xlink:href="#m61f58a239f" y="476.111834"/>
     <use style="fill:#2792cb;stroke:#2792cb;" x="656.289871" xlink:href="#m61f58a239f" y="476.963942"/>
     <use style="fill:#2792cb;stroke:#2792cb;" x="661.008687" xlink:href="#m61f58a239f" y="477.389996"/>
     <use style="fill:#2792cb;stroke:#2792cb;" x="665.727503" xlink:href="#m61f58a239f" y="476.963942"/>
     <use style="fill:#2792cb;stroke:#2792cb;" x="675.165135" xlink:href="#m61f58a239f" y="478.242104"/>
     <use style="fill:#2792cb;stroke:#2792cb;" x="684.602767" xlink:href="#m61f58a239f" y="478.242104"/>
     <use style="fill:#2792cb;stroke:#2792cb;" x="689.321583" xlink:href="#m61f58a239f" y="479.094212"/>
     <use style="fill:#2792cb;stroke:#2792cb;" x="694.040399" xlink:href="#m61f58a239f" y="479.094212"/>
     <use style="fill:#2792cb;stroke:#2792cb;" x="698.759215" xlink:href="#m61f58a239f" y="479.094212"/>
     <use style="fill:#2792cb;stroke:#2792cb;" x="703.478031" xlink:href="#m61f58a239f" y="479.094212"/>
     <use style="fill:#2792cb;stroke:#2792cb;" x="708.196847" xlink:href="#m61f58a239f" y="479.520266"/>
     <use style="fill:#2792cb;stroke:#2792cb;" x="722.353295" xlink:href="#m61f58a239f" y="480.372374"/>
     <use style="fill:#2792cb;stroke:#2792cb;" x="727.072112" xlink:href="#m61f58a239f" y="480.372374"/>
     <use style="fill:#2792cb;stroke:#2792cb;" x="731.790928" xlink:href="#m61f58a239f" y="480.372374"/>
     <use style="fill:#2792cb;stroke:#2792cb;" x="736.509744" xlink:href="#m61f58a239f" y="480.372374"/>
     <use style="fill:#2792cb;stroke:#2792cb;" x="750.666192" xlink:href="#m61f58a239f" y="479.94632"/>
     <use style="fill:#2792cb;stroke:#2792cb;" x="755.385008" xlink:href="#m61f58a239f" y="479.094212"/>
     <use style="fill:#2792cb;stroke:#2792cb;" x="760.103824" xlink:href="#m61f58a239f" y="479.094212"/>
     <use style="fill:#2792cb;stroke:#2792cb;" x="764.82264" xlink:href="#m61f58a239f" y="478.668158"/>
     <use style="fill:#2792cb;stroke:#2792cb;" x="769.541456" xlink:href="#m61f58a239f" y="478.242104"/>
     <use style="fill:#2792cb;stroke:#2792cb;" x="783.697904" xlink:href="#m61f58a239f" y="478.242104"/>
     <use style="fill:#2792cb;stroke:#2792cb;" x="788.41672" xlink:href="#m61f58a239f" y="479.094212"/>
     <use style="fill:#2792cb;stroke:#2792cb;" x="793.135536" xlink:href="#m61f58a239f" y="478.242104"/>
     <use style="fill:#2792cb;stroke:#2792cb;" x="797.854353" xlink:href="#m61f58a239f" y="477.389996"/>
     <use style="fill:#2792cb;stroke:#2792cb;" x="802.573169" xlink:href="#m61f58a239f" y="477.389996"/>
     <use style="fill:#2792cb;stroke:#2792cb;" x="816.729617" xlink:href="#m61f58a239f" y="474.407618"/>
     <use style="fill:#2792cb;stroke:#2792cb;" x="821.448433" xlink:href="#m61f58a239f" y="473.981564"/>
     <use style="fill:#2792cb;stroke:#2792cb;" x="826.167249" xlink:href="#m61f58a239f" y="474.407618"/>
     <use style="fill:#2792cb;stroke:#2792cb;" x="830.886065" xlink:href="#m61f58a239f" y="473.55551"/>
     <use style="fill:#2792cb;stroke:#2792cb;" x="835.604881" xlink:href="#m61f58a239f" y="473.129456"/>
     <use style="fill:#2792cb;stroke:#2792cb;" x="882.793042" xlink:href="#m61f58a239f" y="451.4007"/>
     <use style="fill:#2792cb;stroke:#2792cb;" x="887.511858" xlink:href="#m61f58a239f" y="454.383078"/>
     <use style="fill:#2792cb;stroke:#2792cb;" x="896.94949" xlink:href="#m61f58a239f" y="445.435943"/>
     <use style="fill:#2792cb;stroke:#2792cb;" x="901.668306" xlink:href="#m61f58a239f" y="445.009889"/>
     <use style="fill:#2792cb;stroke:#2792cb;" x="915.824754" xlink:href="#m61f58a239f" y="444.157781"/>
     <use style="fill:#2792cb;stroke:#2792cb;" x="920.54357" xlink:href="#m61f58a239f" y="450.974646"/>
     <use style="fill:#2792cb;stroke:#2792cb;" x="925.262386" xlink:href="#m61f58a239f" y="455.235186"/>
     <use style="fill:#2792cb;stroke:#2792cb;" x="929.981202" xlink:href="#m61f58a239f" y="458.643618"/>
     <use style="fill:#2792cb;stroke:#2792cb;" x="934.700018" xlink:href="#m61f58a239f" y="456.513348"/>
     <use style="fill:#2792cb;stroke:#2792cb;" x="948.856467" xlink:href="#m61f58a239f" y="460.773888"/>
     <use style="fill:#2792cb;stroke:#2792cb;" x="953.575283" xlink:href="#m61f58a239f" y="465.460483"/>
     <use style="fill:#2792cb;stroke:#2792cb;" x="958.294099" xlink:href="#m61f58a239f" y="464.608375"/>
     <use style="fill:#2792cb;stroke:#2792cb;" x="963.012915" xlink:href="#m61f58a239f" y="463.756267"/>
     <use style="fill:#2792cb;stroke:#2792cb;" x="967.731731" xlink:href="#m61f58a239f" y="463.756267"/>
     <use style="fill:#2792cb;stroke:#2792cb;" x="981.888179" xlink:href="#m61f58a239f" y="461.199942"/>
     <use style="fill:#2792cb;stroke:#2792cb;" x="986.606995" xlink:href="#m61f58a239f" y="464.608375"/>
     <use style="fill:#2792cb;stroke:#2792cb;" x="991.325811" xlink:href="#m61f58a239f" y="465.460483"/>
     <use style="fill:#2792cb;stroke:#2792cb;" x="996.044627" xlink:href="#m61f58a239f" y="464.182321"/>
     <use style="fill:#2792cb;stroke:#2792cb;" x="1000.763443" xlink:href="#m61f58a239f" y="462.904159"/>
     <use style="fill:#2792cb;stroke:#2792cb;" x="1014.919892" xlink:href="#m61f58a239f" y="464.182321"/>
     <use style="fill:#2792cb;stroke:#2792cb;" x="1019.638708" xlink:href="#m61f58a239f" y="468.016807"/>
     <use style="fill:#2792cb;stroke:#2792cb;" x="1024.357524" xlink:href="#m61f58a239f" y="469.721023"/>
     <use style="fill:#2792cb;stroke:#2792cb;" x="1029.07634" xlink:href="#m61f58a239f" y="471.425239"/>
     <use style="fill:#2792cb;stroke:#2792cb;" x="1033.795156" xlink:href="#m61f58a239f" y="469.721023"/>
     <use style="fill:#2792cb;stroke:#2792cb;" x="1047.951604" xlink:href="#m61f58a239f" y="465.886537"/>
     <use style="fill:#2792cb;stroke:#2792cb;" x="1052.67042" xlink:href="#m61f58a239f" y="464.182321"/>
     <use style="fill:#2792cb;stroke:#2792cb;" x="1057.389236" xlink:href="#m61f58a239f" y="464.608375"/>
     <use style="fill:#2792cb;stroke:#2792cb;" x="1062.108052" xlink:href="#m61f58a239f" y="466.312591"/>
     <use style="fill:#2792cb;stroke:#2792cb;" x="1066.826868" xlink:href="#m61f58a239f" y="461.625997"/>
     <use style="fill:#2792cb;stroke:#2792cb;" x="1080.983317" xlink:href="#m61f58a239f" y="461.199942"/>
     <use style="fill:#2792cb;stroke:#2792cb;" x="1085.702133" xlink:href="#m61f58a239f" y="463.330213"/>
     <use style="fill:#2792cb;stroke:#2792cb;" x="1090.420949" xlink:href="#m61f58a239f" y="461.199942"/>
     <use style="fill:#2792cb;stroke:#2792cb;" x="1095.139765" xlink:href="#m61f58a239f" y="462.478105"/>
     <use style="fill:#2792cb;stroke:#2792cb;" x="1099.858581" xlink:href="#m61f58a239f" y="456.939402"/>
     <use style="fill:#2792cb;stroke:#2792cb;" x="1114.015029" xlink:href="#m61f58a239f" y="449.270429"/>
     <use style="fill:#2792cb;stroke:#2792cb;" x="1118.733845" xlink:href="#m61f58a239f" y="447.566213"/>
     <use style="fill:#2792cb;stroke:#2792cb;" x="1123.452661" xlink:href="#m61f58a239f" y="449.270429"/>
     <use style="fill:#2792cb;stroke:#2792cb;" x="1128.171477" xlink:href="#m61f58a239f" y="444.157781"/>
    </g>
   </g>
   <g id="patch_3">
    <path d="M 62.89875 501.738984 
L 1178.89875 501.738984 
" style="fill:none;stroke:#000000;stroke-linecap:square;stroke-linejoin:miter;stroke-width:0.8;"/>
   </g>
   <g id="legend_1">
    <g id="line2d_35">
     <path d="M 1091.653438 25.237422 
L 1111.653438 25.237422 
" style="fill:none;stroke:#dbcd00;stroke-linecap:square;stroke-width:2;"/>
    </g>
    <g id="line2d_36">
     <g>
      <use style="fill:#dbcd00;stroke:#dbcd00;" x="1101.653438" xlink:href="#mfe88536ad5" y="25.237422"/>
     </g>
    </g>
    <g id="text_22">
     <!-- Genesene -->
     <defs>
      <path d="M 59.515625 10.40625 
L 59.515625 29.984375 
L 43.40625 29.984375 
L 43.40625 38.09375 
L 69.28125 38.09375 
L 69.28125 6.78125 
Q 63.578125 2.734375 56.6875 0.65625 
Q 49.8125 -1.421875 42 -1.421875 
Q 24.90625 -1.421875 15.25 8.5625 
Q 5.609375 18.5625 5.609375 36.375 
Q 5.609375 54.25 15.25 64.234375 
Q 24.90625 74.21875 42 74.21875 
Q 49.125 74.21875 55.546875 72.453125 
Q 61.96875 70.703125 67.390625 67.28125 
L 67.390625 56.78125 
Q 61.921875 61.421875 55.765625 63.765625 
Q 49.609375 66.109375 42.828125 66.109375 
Q 29.4375 66.109375 22.71875 58.640625 
Q 16.015625 51.171875 16.015625 36.375 
Q 16.015625 21.625 22.71875 14.15625 
Q 29.4375 6.6875 42.828125 6.6875 
Q 48.046875 6.6875 52.140625 7.59375 
Q 56.25 8.5 59.515625 10.40625 
z
" id="DejaVuSans-71"/>
      <path d="M 44.28125 53.078125 
L 44.28125 44.578125 
Q 40.484375 46.53125 36.375 47.5 
Q 32.28125 48.484375 27.875 48.484375 
Q 21.1875 48.484375 17.84375 46.4375 
Q 14.5 44.390625 14.5 40.28125 
Q 14.5 37.15625 16.890625 35.375 
Q 19.28125 33.59375 26.515625 31.984375 
L 29.59375 31.296875 
Q 39.15625 29.25 43.1875 25.515625 
Q 47.21875 21.78125 47.21875 15.09375 
Q 47.21875 7.46875 41.1875 3.015625 
Q 35.15625 -1.421875 24.609375 -1.421875 
Q 20.21875 -1.421875 15.453125 -0.5625 
Q 10.6875 0.296875 5.421875 2 
L 5.421875 11.28125 
Q 10.40625 8.6875 15.234375 7.390625 
Q 20.0625 6.109375 24.8125 6.109375 
Q 31.15625 6.109375 34.5625 8.28125 
Q 37.984375 10.453125 37.984375 14.40625 
Q 37.984375 18.0625 35.515625 20.015625 
Q 33.0625 21.96875 24.703125 23.78125 
L 21.578125 24.515625 
Q 13.234375 26.265625 9.515625 29.90625 
Q 5.8125 33.546875 5.8125 39.890625 
Q 5.8125 47.609375 11.28125 51.796875 
Q 16.75 56 26.8125 56 
Q 31.78125 56 36.171875 55.265625 
Q 40.578125 54.546875 44.28125 53.078125 
z
" id="DejaVuSans-115"/>
     </defs>
     <g transform="translate(1119.653438 28.737422)scale(0.1 -0.1)">
      <use xlink:href="#DejaVuSans-71"/>
      <use x="77.490234" xlink:href="#DejaVuSans-101"/>
      <use x="139.013672" xlink:href="#DejaVuSans-110"/>
      <use x="202.392578" xlink:href="#DejaVuSans-101"/>
      <use x="263.916016" xlink:href="#DejaVuSans-115"/>
      <use x="316.015625" xlink:href="#DejaVuSans-101"/>
      <use x="377.539062" xlink:href="#DejaVuSans-110"/>
      <use x="440.917969" xlink:href="#DejaVuSans-101"/>
     </g>
    </g>
    <g id="line2d_37">
     <path d="M 1091.653438 39.915547 
L 1111.653438 39.915547 
" style="fill:none;stroke:#2792cb;stroke-linecap:square;stroke-width:2;"/>
    </g>
    <g id="line2d_38">
     <g>
      <use style="fill:#2792cb;stroke:#2792cb;" x="1101.653438" xlink:href="#m61f58a239f" y="39.915547"/>
     </g>
    </g>
    <g id="text_23">
     <!-- Erkrankte -->
     <defs>
      <path d="M 9.8125 72.90625 
L 55.90625 72.90625 
L 55.90625 64.59375 
L 19.671875 64.59375 
L 19.671875 43.015625 
L 54.390625 43.015625 
L 54.390625 34.71875 
L 19.671875 34.71875 
L 19.671875 8.296875 
L 56.78125 8.296875 
L 56.78125 0 
L 9.8125 0 
z
" id="DejaVuSans-69"/>
      <path d="M 41.109375 46.296875 
Q 39.59375 47.171875 37.8125 47.578125 
Q 36.03125 48 33.890625 48 
Q 26.265625 48 22.1875 43.046875 
Q 18.109375 38.09375 18.109375 28.8125 
L 18.109375 0 
L 9.078125 0 
L 9.078125 54.6875 
L 18.109375 54.6875 
L 18.109375 46.1875 
Q 20.953125 51.171875 25.484375 53.578125 
Q 30.03125 56 36.53125 56 
Q 37.453125 56 38.578125 55.875 
Q 39.703125 55.765625 41.0625 55.515625 
z
" id="DejaVuSans-114"/>
      <path d="M 9.078125 75.984375 
L 18.109375 75.984375 
L 18.109375 31.109375 
L 44.921875 54.6875 
L 56.390625 54.6875 
L 27.390625 29.109375 
L 57.625 0 
L 45.90625 0 
L 18.109375 26.703125 
L 18.109375 0 
L 9.078125 0 
z
" id="DejaVuSans-107"/>
      <path d="M 18.3125 70.21875 
L 18.3125 54.6875 
L 36.8125 54.6875 
L 36.8125 47.703125 
L 18.3125 47.703125 
L 18.3125 18.015625 
Q 18.3125 11.328125 20.140625 9.421875 
Q 21.96875 7.515625 27.59375 7.515625 
L 36.8125 7.515625 
L 36.8125 0 
L 27.59375 0 
Q 17.1875 0 13.234375 3.875 
Q 9.28125 7.765625 9.28125 18.015625 
L 9.28125 47.703125 
L 2.6875 47.703125 
L 2.6875 54.6875 
L 9.28125 54.6875 
L 9.28125 70.21875 
z
" id="DejaVuSans-116"/>
     </defs>
     <g transform="translate(1119.653438 43.415547)scale(0.1 -0.1)">
      <use xlink:href="#DejaVuSans-69"/>
      <use x="63.183594" xlink:href="#DejaVuSans-114"/>
      <use x="104.296875" xlink:href="#DejaVuSans-107"/>
      <use x="162.207031" xlink:href="#DejaVuSans-114"/>
      <use x="203.320312" xlink:href="#DejaVuSans-97"/>
      <use x="264.599609" xlink:href="#DejaVuSans-110"/>
      <use x="327.978516" xlink:href="#DejaVuSans-107"/>
      <use x="385.888672" xlink:href="#DejaVuSans-116"/>
      <use x="425.097656" xlink:href="#DejaVuSans-101"/>
     </g>
    </g>
   </g>
  </g>
 </g>
 <defs>
  <clipPath id="pa43ffc9377">
   <rect height="489.6" width="1116" x="62.89875" y="12.138984"/>
  </clipPath>
 </defs>
</svg>
