<?xml version="1.0" encoding="utf-8" standalone="no"?>
<!DOCTYPE svg PUBLIC "-//W3C//DTD SVG 1.1//EN"
  "http://www.w3.org/Graphics/SVG/1.1/DTD/svg11.dtd">
<!-- Created with matplotlib (https://matplotlib.org/) -->
<svg height="553.993765pt" version="1.1" viewBox="0 0 1186.09875 553.993765" width="1186.09875pt" xmlns="http://www.w3.org/2000/svg" xmlns:xlink="http://www.w3.org/1999/xlink">
 <defs>
  <style type="text/css">
*{stroke-linecap:butt;stroke-linejoin:round;}
  </style>
 </defs>
 <g id="figure_1">
  <g id="patch_1">
   <path d="M 0 553.993765 
L 1186.09875 553.993765 
L 1186.09875 0 
L 0 0 
z
" style="fill:#ffffff;"/>
  </g>
  <g id="axes_1">
   <g id="patch_2">
    <path d="M 62.89875 501.738984 
L 1178.89875 501.738984 
L 1178.89875 12.138984 
L 62.89875 12.138984 
z
" style="fill:#ffffff;"/>
   </g>
   <g id="matplotlib.axis_1">
    <g id="xtick_1">
     <g id="line2d_1">
      <defs>
       <path d="M 0 0 
L 0 3.5 
" id="md06c31491d" style="stroke:#000000;stroke-width:0.8;"/>
      </defs>
      <g>
       <use style="stroke:#000000;stroke-width:0.8;" x="148.344308" xlink:href="#md06c31491d" y="501.738984"/>
      </g>
     </g>
     <g id="text_1">
      <!-- 2020-04 -->
      <defs>
       <path d="M 19.1875 8.296875 
L 53.609375 8.296875 
L 53.609375 0 
L 7.328125 0 
L 7.328125 8.296875 
Q 12.9375 14.109375 22.625 23.890625 
Q 32.328125 33.6875 34.8125 36.53125 
Q 39.546875 41.84375 41.421875 45.53125 
Q 43.3125 49.21875 43.3125 52.78125 
Q 43.3125 58.59375 39.234375 62.25 
Q 35.15625 65.921875 28.609375 65.921875 
Q 23.96875 65.921875 18.8125 64.3125 
Q 13.671875 62.703125 7.8125 59.421875 
L 7.8125 69.390625 
Q 13.765625 71.78125 18.9375 73 
Q 24.125 74.21875 28.421875 74.21875 
Q 39.75 74.21875 46.484375 68.546875 
Q 53.21875 62.890625 53.21875 53.421875 
Q 53.21875 48.921875 51.53125 44.890625 
Q 49.859375 40.875 45.40625 35.40625 
Q 44.1875 33.984375 37.640625 27.21875 
Q 31.109375 20.453125 19.1875 8.296875 
z
" id="DejaVuSans-50"/>
       <path d="M 31.78125 66.40625 
Q 24.171875 66.40625 20.328125 58.90625 
Q 16.5 51.421875 16.5 36.375 
Q 16.5 21.390625 20.328125 13.890625 
Q 24.171875 6.390625 31.78125 6.390625 
Q 39.453125 6.390625 43.28125 13.890625 
Q 47.125 21.390625 47.125 36.375 
Q 47.125 51.421875 43.28125 58.90625 
Q 39.453125 66.40625 31.78125 66.40625 
z
M 31.78125 74.21875 
Q 44.046875 74.21875 50.515625 64.515625 
Q 56.984375 54.828125 56.984375 36.375 
Q 56.984375 17.96875 50.515625 8.265625 
Q 44.046875 -1.421875 31.78125 -1.421875 
Q 19.53125 -1.421875 13.0625 8.265625 
Q 6.59375 17.96875 6.59375 36.375 
Q 6.59375 54.828125 13.0625 64.515625 
Q 19.53125 74.21875 31.78125 74.21875 
z
" id="DejaVuSans-48"/>
       <path d="M 4.890625 31.390625 
L 31.203125 31.390625 
L 31.203125 23.390625 
L 4.890625 23.390625 
z
" id="DejaVuSans-45"/>
       <path d="M 37.796875 64.3125 
L 12.890625 25.390625 
L 37.796875 25.390625 
z
M 35.203125 72.90625 
L 47.609375 72.90625 
L 47.609375 25.390625 
L 58.015625 25.390625 
L 58.015625 17.1875 
L 47.609375 17.1875 
L 47.609375 0 
L 37.796875 0 
L 37.796875 17.1875 
L 4.890625 17.1875 
L 4.890625 26.703125 
z
" id="DejaVuSans-52"/>
      </defs>
      <g transform="translate(99.952041 544.452384)rotate(-30)scale(0.13 -0.13)">
       <use xlink:href="#DejaVuSans-50"/>
       <use x="63.623047" xlink:href="#DejaVuSans-48"/>
       <use x="127.246094" xlink:href="#DejaVuSans-50"/>
       <use x="190.869141" xlink:href="#DejaVuSans-48"/>
       <use x="254.492188" xlink:href="#DejaVuSans-45"/>
       <use x="290.576172" xlink:href="#DejaVuSans-48"/>
       <use x="354.199219" xlink:href="#DejaVuSans-52"/>
      </g>
     </g>
    </g>
    <g id="xtick_2">
     <g id="line2d_2">
      <g>
       <use style="stroke:#000000;stroke-width:0.8;" x="264.071927" xlink:href="#md06c31491d" y="501.738984"/>
      </g>
     </g>
     <g id="text_2">
      <!-- 2020-05 -->
      <defs>
       <path d="M 10.796875 72.90625 
L 49.515625 72.90625 
L 49.515625 64.59375 
L 19.828125 64.59375 
L 19.828125 46.734375 
Q 21.96875 47.46875 24.109375 47.828125 
Q 26.265625 48.1875 28.421875 48.1875 
Q 40.625 48.1875 47.75 41.5 
Q 54.890625 34.8125 54.890625 23.390625 
Q 54.890625 11.625 47.5625 5.09375 
Q 40.234375 -1.421875 26.90625 -1.421875 
Q 22.3125 -1.421875 17.546875 -0.640625 
Q 12.796875 0.140625 7.71875 1.703125 
L 7.71875 11.625 
Q 12.109375 9.234375 16.796875 8.0625 
Q 21.484375 6.890625 26.703125 6.890625 
Q 35.15625 6.890625 40.078125 11.328125 
Q 45.015625 15.765625 45.015625 23.390625 
Q 45.015625 31 40.078125 35.4375 
Q 35.15625 39.890625 26.703125 39.890625 
Q 22.75 39.890625 18.8125 39.015625 
Q 14.890625 38.140625 10.796875 36.28125 
z
" id="DejaVuSans-53"/>
      </defs>
      <g transform="translate(215.67966 544.452384)rotate(-30)scale(0.13 -0.13)">
       <use xlink:href="#DejaVuSans-50"/>
       <use x="63.623047" xlink:href="#DejaVuSans-48"/>
       <use x="127.246094" xlink:href="#DejaVuSans-50"/>
       <use x="190.869141" xlink:href="#DejaVuSans-48"/>
       <use x="254.492188" xlink:href="#DejaVuSans-45"/>
       <use x="290.576172" xlink:href="#DejaVuSans-48"/>
       <use x="354.199219" xlink:href="#DejaVuSans-53"/>
      </g>
     </g>
    </g>
    <g id="xtick_3">
     <g id="line2d_3">
      <g>
       <use style="stroke:#000000;stroke-width:0.8;" x="383.657132" xlink:href="#md06c31491d" y="501.738984"/>
      </g>
     </g>
     <g id="text_3">
      <!-- 2020-06 -->
      <defs>
       <path d="M 33.015625 40.375 
Q 26.375 40.375 22.484375 35.828125 
Q 18.609375 31.296875 18.609375 23.390625 
Q 18.609375 15.53125 22.484375 10.953125 
Q 26.375 6.390625 33.015625 6.390625 
Q 39.65625 6.390625 43.53125 10.953125 
Q 47.40625 15.53125 47.40625 23.390625 
Q 47.40625 31.296875 43.53125 35.828125 
Q 39.65625 40.375 33.015625 40.375 
z
M 52.59375 71.296875 
L 52.59375 62.3125 
Q 48.875 64.0625 45.09375 64.984375 
Q 41.3125 65.921875 37.59375 65.921875 
Q 27.828125 65.921875 22.671875 59.328125 
Q 17.53125 52.734375 16.796875 39.40625 
Q 19.671875 43.65625 24.015625 45.921875 
Q 28.375 48.1875 33.59375 48.1875 
Q 44.578125 48.1875 50.953125 41.515625 
Q 57.328125 34.859375 57.328125 23.390625 
Q 57.328125 12.15625 50.6875 5.359375 
Q 44.046875 -1.421875 33.015625 -1.421875 
Q 20.359375 -1.421875 13.671875 8.265625 
Q 6.984375 17.96875 6.984375 36.375 
Q 6.984375 53.65625 15.1875 63.9375 
Q 23.390625 74.21875 37.203125 74.21875 
Q 40.921875 74.21875 44.703125 73.484375 
Q 48.484375 72.75 52.59375 71.296875 
z
" id="DejaVuSans-54"/>
      </defs>
      <g transform="translate(335.264865 544.452384)rotate(-30)scale(0.13 -0.13)">
       <use xlink:href="#DejaVuSans-50"/>
       <use x="63.623047" xlink:href="#DejaVuSans-48"/>
       <use x="127.246094" xlink:href="#DejaVuSans-50"/>
       <use x="190.869141" xlink:href="#DejaVuSans-48"/>
       <use x="254.492188" xlink:href="#DejaVuSans-45"/>
       <use x="290.576172" xlink:href="#DejaVuSans-48"/>
       <use x="354.199219" xlink:href="#DejaVuSans-54"/>
      </g>
     </g>
    </g>
    <g id="xtick_4">
     <g id="line2d_4">
      <g>
       <use style="stroke:#000000;stroke-width:0.8;" x="499.384751" xlink:href="#md06c31491d" y="501.738984"/>
      </g>
     </g>
     <g id="text_4">
      <!-- 2020-07 -->
      <defs>
       <path d="M 8.203125 72.90625 
L 55.078125 72.90625 
L 55.078125 68.703125 
L 28.609375 0 
L 18.3125 0 
L 43.21875 64.59375 
L 8.203125 64.59375 
z
" id="DejaVuSans-55"/>
      </defs>
      <g transform="translate(450.992484 544.452384)rotate(-30)scale(0.13 -0.13)">
       <use xlink:href="#DejaVuSans-50"/>
       <use x="63.623047" xlink:href="#DejaVuSans-48"/>
       <use x="127.246094" xlink:href="#DejaVuSans-50"/>
       <use x="190.869141" xlink:href="#DejaVuSans-48"/>
       <use x="254.492188" xlink:href="#DejaVuSans-45"/>
       <use x="290.576172" xlink:href="#DejaVuSans-48"/>
       <use x="354.199219" xlink:href="#DejaVuSans-55"/>
      </g>
     </g>
    </g>
    <g id="xtick_5">
     <g id="line2d_5">
      <g>
       <use style="stroke:#000000;stroke-width:0.8;" x="618.969956" xlink:href="#md06c31491d" y="501.738984"/>
      </g>
     </g>
     <g id="text_5">
      <!-- 2020-08 -->
      <defs>
       <path d="M 31.78125 34.625 
Q 24.75 34.625 20.71875 30.859375 
Q 16.703125 27.09375 16.703125 20.515625 
Q 16.703125 13.921875 20.71875 10.15625 
Q 24.75 6.390625 31.78125 6.390625 
Q 38.8125 6.390625 42.859375 10.171875 
Q 46.921875 13.96875 46.921875 20.515625 
Q 46.921875 27.09375 42.890625 30.859375 
Q 38.875 34.625 31.78125 34.625 
z
M 21.921875 38.8125 
Q 15.578125 40.375 12.03125 44.71875 
Q 8.5 49.078125 8.5 55.328125 
Q 8.5 64.0625 14.71875 69.140625 
Q 20.953125 74.21875 31.78125 74.21875 
Q 42.671875 74.21875 48.875 69.140625 
Q 55.078125 64.0625 55.078125 55.328125 
Q 55.078125 49.078125 51.53125 44.71875 
Q 48 40.375 41.703125 38.8125 
Q 48.828125 37.15625 52.796875 32.3125 
Q 56.78125 27.484375 56.78125 20.515625 
Q 56.78125 9.90625 50.3125 4.234375 
Q 43.84375 -1.421875 31.78125 -1.421875 
Q 19.734375 -1.421875 13.25 4.234375 
Q 6.78125 9.90625 6.78125 20.515625 
Q 6.78125 27.484375 10.78125 32.3125 
Q 14.796875 37.15625 21.921875 38.8125 
z
M 18.3125 54.390625 
Q 18.3125 48.734375 21.84375 45.5625 
Q 25.390625 42.390625 31.78125 42.390625 
Q 38.140625 42.390625 41.71875 45.5625 
Q 45.3125 48.734375 45.3125 54.390625 
Q 45.3125 60.0625 41.71875 63.234375 
Q 38.140625 66.40625 31.78125 66.40625 
Q 25.390625 66.40625 21.84375 63.234375 
Q 18.3125 60.0625 18.3125 54.390625 
z
" id="DejaVuSans-56"/>
      </defs>
      <g transform="translate(570.577689 544.452384)rotate(-30)scale(0.13 -0.13)">
       <use xlink:href="#DejaVuSans-50"/>
       <use x="63.623047" xlink:href="#DejaVuSans-48"/>
       <use x="127.246094" xlink:href="#DejaVuSans-50"/>
       <use x="190.869141" xlink:href="#DejaVuSans-48"/>
       <use x="254.492188" xlink:href="#DejaVuSans-45"/>
       <use x="290.576172" xlink:href="#DejaVuSans-48"/>
       <use x="354.199219" xlink:href="#DejaVuSans-56"/>
      </g>
     </g>
    </g>
    <g id="xtick_6">
     <g id="line2d_6">
      <g>
       <use style="stroke:#000000;stroke-width:0.8;" x="738.555162" xlink:href="#md06c31491d" y="501.738984"/>
      </g>
     </g>
     <g id="text_6">
      <!-- 2020-09 -->
      <defs>
       <path d="M 10.984375 1.515625 
L 10.984375 10.5 
Q 14.703125 8.734375 18.5 7.8125 
Q 22.3125 6.890625 25.984375 6.890625 
Q 35.75 6.890625 40.890625 13.453125 
Q 46.046875 20.015625 46.78125 33.40625 
Q 43.953125 29.203125 39.59375 26.953125 
Q 35.25 24.703125 29.984375 24.703125 
Q 19.046875 24.703125 12.671875 31.3125 
Q 6.296875 37.9375 6.296875 49.421875 
Q 6.296875 60.640625 12.9375 67.421875 
Q 19.578125 74.21875 30.609375 74.21875 
Q 43.265625 74.21875 49.921875 64.515625 
Q 56.59375 54.828125 56.59375 36.375 
Q 56.59375 19.140625 48.40625 8.859375 
Q 40.234375 -1.421875 26.421875 -1.421875 
Q 22.703125 -1.421875 18.890625 -0.6875 
Q 15.09375 0.046875 10.984375 1.515625 
z
M 30.609375 32.421875 
Q 37.25 32.421875 41.125 36.953125 
Q 45.015625 41.5 45.015625 49.421875 
Q 45.015625 57.28125 41.125 61.84375 
Q 37.25 66.40625 30.609375 66.40625 
Q 23.96875 66.40625 20.09375 61.84375 
Q 16.21875 57.28125 16.21875 49.421875 
Q 16.21875 41.5 20.09375 36.953125 
Q 23.96875 32.421875 30.609375 32.421875 
z
" id="DejaVuSans-57"/>
      </defs>
      <g transform="translate(690.162895 544.452384)rotate(-30)scale(0.13 -0.13)">
       <use xlink:href="#DejaVuSans-50"/>
       <use x="63.623047" xlink:href="#DejaVuSans-48"/>
       <use x="127.246094" xlink:href="#DejaVuSans-50"/>
       <use x="190.869141" xlink:href="#DejaVuSans-48"/>
       <use x="254.492188" xlink:href="#DejaVuSans-45"/>
       <use x="290.576172" xlink:href="#DejaVuSans-48"/>
       <use x="354.199219" xlink:href="#DejaVuSans-57"/>
      </g>
     </g>
    </g>
    <g id="xtick_7">
     <g id="line2d_7">
      <g>
       <use style="stroke:#000000;stroke-width:0.8;" x="854.28278" xlink:href="#md06c31491d" y="501.738984"/>
      </g>
     </g>
     <g id="text_7">
      <!-- 2020-10 -->
      <defs>
       <path d="M 12.40625 8.296875 
L 28.515625 8.296875 
L 28.515625 63.921875 
L 10.984375 60.40625 
L 10.984375 69.390625 
L 28.421875 72.90625 
L 38.28125 72.90625 
L 38.28125 8.296875 
L 54.390625 8.296875 
L 54.390625 0 
L 12.40625 0 
z
" id="DejaVuSans-49"/>
      </defs>
      <g transform="translate(805.890513 544.452384)rotate(-30)scale(0.13 -0.13)">
       <use xlink:href="#DejaVuSans-50"/>
       <use x="63.623047" xlink:href="#DejaVuSans-48"/>
       <use x="127.246094" xlink:href="#DejaVuSans-50"/>
       <use x="190.869141" xlink:href="#DejaVuSans-48"/>
       <use x="254.492188" xlink:href="#DejaVuSans-45"/>
       <use x="290.576172" xlink:href="#DejaVuSans-49"/>
       <use x="354.199219" xlink:href="#DejaVuSans-48"/>
      </g>
     </g>
    </g>
    <g id="xtick_8">
     <g id="line2d_8">
      <g>
       <use style="stroke:#000000;stroke-width:0.8;" x="973.867986" xlink:href="#md06c31491d" y="501.738984"/>
      </g>
     </g>
     <g id="text_8">
      <!-- 2020-11 -->
      <g transform="translate(925.475719 544.452384)rotate(-30)scale(0.13 -0.13)">
       <use xlink:href="#DejaVuSans-50"/>
       <use x="63.623047" xlink:href="#DejaVuSans-48"/>
       <use x="127.246094" xlink:href="#DejaVuSans-50"/>
       <use x="190.869141" xlink:href="#DejaVuSans-48"/>
       <use x="254.492188" xlink:href="#DejaVuSans-45"/>
       <use x="290.576172" xlink:href="#DejaVuSans-49"/>
       <use x="354.199219" xlink:href="#DejaVuSans-49"/>
      </g>
     </g>
    </g>
    <g id="xtick_9">
     <g id="line2d_9">
      <g>
       <use style="stroke:#000000;stroke-width:0.8;" x="1089.595604" xlink:href="#md06c31491d" y="501.738984"/>
      </g>
     </g>
     <g id="text_9">
      <!-- 2020-12 -->
      <g transform="translate(1041.203337 544.452384)rotate(-30)scale(0.13 -0.13)">
       <use xlink:href="#DejaVuSans-50"/>
       <use x="63.623047" xlink:href="#DejaVuSans-48"/>
       <use x="127.246094" xlink:href="#DejaVuSans-50"/>
       <use x="190.869141" xlink:href="#DejaVuSans-48"/>
       <use x="254.492188" xlink:href="#DejaVuSans-45"/>
       <use x="290.576172" xlink:href="#DejaVuSans-49"/>
       <use x="354.199219" xlink:href="#DejaVuSans-50"/>
      </g>
     </g>
    </g>
   </g>
   <g id="matplotlib.axis_2">
    <g id="ytick_1">
     <g id="line2d_10">
      <path clip-path="url(#p528293ca67)" d="M 62.89875 480.723967 
L 1178.89875 480.723967 
" style="fill:none;stroke:#b0b0b0;stroke-linecap:square;stroke-width:0.8;"/>
     </g>
     <g id="line2d_11">
      <defs>
       <path d="M 0 0 
L -3.5 0 
" id="md3d8961ef8" style="stroke:#000000;stroke-width:0.8;"/>
      </defs>
      <g>
       <use style="stroke:#000000;stroke-width:0.8;" x="62.89875" xlink:href="#md3d8961ef8" y="480.723967"/>
      </g>
     </g>
     <g id="text_10">
      <!-- 0 -->
      <g transform="translate(47.6275 485.662951)scale(0.13 -0.13)">
       <use xlink:href="#DejaVuSans-48"/>
      </g>
     </g>
    </g>
    <g id="ytick_2">
     <g id="line2d_12">
      <path clip-path="url(#p528293ca67)" d="M 62.89875 460.350706 
L 1178.89875 460.350706 
" style="fill:none;stroke:#b0b0b0;stroke-linecap:square;stroke-width:0.8;"/>
     </g>
     <g id="line2d_13">
      <g>
       <use style="stroke:#000000;stroke-width:0.8;" x="62.89875" xlink:href="#md3d8961ef8" y="460.350706"/>
      </g>
     </g>
     <g id="text_11">
      <!-- 100 -->
      <g transform="translate(31.085 465.289691)scale(0.13 -0.13)">
       <use xlink:href="#DejaVuSans-49"/>
       <use x="63.623047" xlink:href="#DejaVuSans-48"/>
       <use x="127.246094" xlink:href="#DejaVuSans-48"/>
      </g>
     </g>
    </g>
    <g id="ytick_3">
     <g id="line2d_14">
      <path clip-path="url(#p528293ca67)" d="M 62.89875 439.977446 
L 1178.89875 439.977446 
" style="fill:none;stroke:#b0b0b0;stroke-linecap:square;stroke-width:0.8;"/>
     </g>
     <g id="line2d_15">
      <g>
       <use style="stroke:#000000;stroke-width:0.8;" x="62.89875" xlink:href="#md3d8961ef8" y="439.977446"/>
      </g>
     </g>
     <g id="text_12">
      <!-- 200 -->
      <g transform="translate(31.085 444.916431)scale(0.13 -0.13)">
       <use xlink:href="#DejaVuSans-50"/>
       <use x="63.623047" xlink:href="#DejaVuSans-48"/>
       <use x="127.246094" xlink:href="#DejaVuSans-48"/>
      </g>
     </g>
    </g>
    <g id="ytick_4">
     <g id="line2d_16">
      <path clip-path="url(#p528293ca67)" d="M 62.89875 419.604186 
L 1178.89875 419.604186 
" style="fill:none;stroke:#b0b0b0;stroke-linecap:square;stroke-width:0.8;"/>
     </g>
     <g id="line2d_17">
      <g>
       <use style="stroke:#000000;stroke-width:0.8;" x="62.89875" xlink:href="#md3d8961ef8" y="419.604186"/>
      </g>
     </g>
     <g id="text_13">
      <!-- 300 -->
      <defs>
       <path d="M 40.578125 39.3125 
Q 47.65625 37.796875 51.625 33 
Q 55.609375 28.21875 55.609375 21.1875 
Q 55.609375 10.40625 48.1875 4.484375 
Q 40.765625 -1.421875 27.09375 -1.421875 
Q 22.515625 -1.421875 17.65625 -0.515625 
Q 12.796875 0.390625 7.625 2.203125 
L 7.625 11.71875 
Q 11.71875 9.328125 16.59375 8.109375 
Q 21.484375 6.890625 26.8125 6.890625 
Q 36.078125 6.890625 40.9375 10.546875 
Q 45.796875 14.203125 45.796875 21.1875 
Q 45.796875 27.640625 41.28125 31.265625 
Q 36.765625 34.90625 28.71875 34.90625 
L 20.21875 34.90625 
L 20.21875 43.015625 
L 29.109375 43.015625 
Q 36.375 43.015625 40.234375 45.921875 
Q 44.09375 48.828125 44.09375 54.296875 
Q 44.09375 59.90625 40.109375 62.90625 
Q 36.140625 65.921875 28.71875 65.921875 
Q 24.65625 65.921875 20.015625 65.03125 
Q 15.375 64.15625 9.8125 62.3125 
L 9.8125 71.09375 
Q 15.4375 72.65625 20.34375 73.4375 
Q 25.25 74.21875 29.59375 74.21875 
Q 40.828125 74.21875 47.359375 69.109375 
Q 53.90625 64.015625 53.90625 55.328125 
Q 53.90625 49.265625 50.4375 45.09375 
Q 46.96875 40.921875 40.578125 39.3125 
z
" id="DejaVuSans-51"/>
      </defs>
      <g transform="translate(31.085 424.543171)scale(0.13 -0.13)">
       <use xlink:href="#DejaVuSans-51"/>
       <use x="63.623047" xlink:href="#DejaVuSans-48"/>
       <use x="127.246094" xlink:href="#DejaVuSans-48"/>
      </g>
     </g>
    </g>
    <g id="ytick_5">
     <g id="line2d_18">
      <path clip-path="url(#p528293ca67)" d="M 62.89875 399.230926 
L 1178.89875 399.230926 
" style="fill:none;stroke:#b0b0b0;stroke-linecap:square;stroke-width:0.8;"/>
     </g>
     <g id="line2d_19">
      <g>
       <use style="stroke:#000000;stroke-width:0.8;" x="62.89875" xlink:href="#md3d8961ef8" y="399.230926"/>
      </g>
     </g>
     <g id="text_14">
      <!-- 400 -->
      <g transform="translate(31.085 404.169911)scale(0.13 -0.13)">
       <use xlink:href="#DejaVuSans-52"/>
       <use x="63.623047" xlink:href="#DejaVuSans-48"/>
       <use x="127.246094" xlink:href="#DejaVuSans-48"/>
      </g>
     </g>
    </g>
    <g id="ytick_6">
     <g id="line2d_20">
      <path clip-path="url(#p528293ca67)" d="M 62.89875 378.857666 
L 1178.89875 378.857666 
" style="fill:none;stroke:#b0b0b0;stroke-linecap:square;stroke-width:0.8;"/>
     </g>
     <g id="line2d_21">
      <g>
       <use style="stroke:#000000;stroke-width:0.8;" x="62.89875" xlink:href="#md3d8961ef8" y="378.857666"/>
      </g>
     </g>
     <g id="text_15">
      <!-- 500 -->
      <g transform="translate(31.085 383.79665)scale(0.13 -0.13)">
       <use xlink:href="#DejaVuSans-53"/>
       <use x="63.623047" xlink:href="#DejaVuSans-48"/>
       <use x="127.246094" xlink:href="#DejaVuSans-48"/>
      </g>
     </g>
    </g>
    <g id="ytick_7">
     <g id="line2d_22">
      <path clip-path="url(#p528293ca67)" d="M 62.89875 358.484406 
L 1178.89875 358.484406 
" style="fill:none;stroke:#b0b0b0;stroke-linecap:square;stroke-width:0.8;"/>
     </g>
     <g id="line2d_23">
      <g>
       <use style="stroke:#000000;stroke-width:0.8;" x="62.89875" xlink:href="#md3d8961ef8" y="358.484406"/>
      </g>
     </g>
     <g id="text_16">
      <!-- 600 -->
      <g transform="translate(31.085 363.42339)scale(0.13 -0.13)">
       <use xlink:href="#DejaVuSans-54"/>
       <use x="63.623047" xlink:href="#DejaVuSans-48"/>
       <use x="127.246094" xlink:href="#DejaVuSans-48"/>
      </g>
     </g>
    </g>
    <g id="ytick_8">
     <g id="line2d_24">
      <path clip-path="url(#p528293ca67)" d="M 62.89875 338.111146 
L 1178.89875 338.111146 
" style="fill:none;stroke:#b0b0b0;stroke-linecap:square;stroke-width:0.8;"/>
     </g>
     <g id="line2d_25">
      <g>
       <use style="stroke:#000000;stroke-width:0.8;" x="62.89875" xlink:href="#md3d8961ef8" y="338.111146"/>
      </g>
     </g>
     <g id="text_17">
      <!-- 700 -->
      <g transform="translate(31.085 343.05013)scale(0.13 -0.13)">
       <use xlink:href="#DejaVuSans-55"/>
       <use x="63.623047" xlink:href="#DejaVuSans-48"/>
       <use x="127.246094" xlink:href="#DejaVuSans-48"/>
      </g>
     </g>
    </g>
    <g id="ytick_9">
     <g id="line2d_26">
      <path clip-path="url(#p528293ca67)" d="M 62.89875 317.737886 
L 1178.89875 317.737886 
" style="fill:none;stroke:#b0b0b0;stroke-linecap:square;stroke-width:0.8;"/>
     </g>
     <g id="line2d_27">
      <g>
       <use style="stroke:#000000;stroke-width:0.8;" x="62.89875" xlink:href="#md3d8961ef8" y="317.737886"/>
      </g>
     </g>
     <g id="text_18">
      <!-- 800 -->
      <g transform="translate(31.085 322.67687)scale(0.13 -0.13)">
       <use xlink:href="#DejaVuSans-56"/>
       <use x="63.623047" xlink:href="#DejaVuSans-48"/>
       <use x="127.246094" xlink:href="#DejaVuSans-48"/>
      </g>
     </g>
    </g>
    <g id="ytick_10">
     <g id="line2d_28">
      <path clip-path="url(#p528293ca67)" d="M 62.89875 297.364626 
L 1178.89875 297.364626 
" style="fill:none;stroke:#b0b0b0;stroke-linecap:square;stroke-width:0.8;"/>
     </g>
     <g id="line2d_29">
      <g>
       <use style="stroke:#000000;stroke-width:0.8;" x="62.89875" xlink:href="#md3d8961ef8" y="297.364626"/>
      </g>
     </g>
     <g id="text_19">
      <!-- 900 -->
      <g transform="translate(31.085 302.30361)scale(0.13 -0.13)">
       <use xlink:href="#DejaVuSans-57"/>
       <use x="63.623047" xlink:href="#DejaVuSans-48"/>
       <use x="127.246094" xlink:href="#DejaVuSans-48"/>
      </g>
     </g>
    </g>
    <g id="ytick_11">
     <g id="line2d_30">
      <path clip-path="url(#p528293ca67)" d="M 62.89875 276.991366 
L 1178.89875 276.991366 
" style="fill:none;stroke:#b0b0b0;stroke-linecap:square;stroke-width:0.8;"/>
     </g>
     <g id="line2d_31">
      <g>
       <use style="stroke:#000000;stroke-width:0.8;" x="62.89875" xlink:href="#md3d8961ef8" y="276.991366"/>
      </g>
     </g>
     <g id="text_20">
      <!-- 1000 -->
      <g transform="translate(22.81375 281.93035)scale(0.13 -0.13)">
       <use xlink:href="#DejaVuSans-49"/>
       <use x="63.623047" xlink:href="#DejaVuSans-48"/>
       <use x="127.246094" xlink:href="#DejaVuSans-48"/>
       <use x="190.869141" xlink:href="#DejaVuSans-48"/>
      </g>
     </g>
    </g>
    <g id="ytick_12">
     <g id="line2d_32">
      <path clip-path="url(#p528293ca67)" d="M 62.89875 256.618106 
L 1178.89875 256.618106 
" style="fill:none;stroke:#b0b0b0;stroke-linecap:square;stroke-width:0.8;"/>
     </g>
     <g id="line2d_33">
      <g>
       <use style="stroke:#000000;stroke-width:0.8;" x="62.89875" xlink:href="#md3d8961ef8" y="256.618106"/>
      </g>
     </g>
     <g id="text_21">
      <!-- 1100 -->
      <g transform="translate(22.81375 261.55709)scale(0.13 -0.13)">
       <use xlink:href="#DejaVuSans-49"/>
       <use x="63.623047" xlink:href="#DejaVuSans-49"/>
       <use x="127.246094" xlink:href="#DejaVuSans-48"/>
       <use x="190.869141" xlink:href="#DejaVuSans-48"/>
      </g>
     </g>
    </g>
    <g id="ytick_13">
     <g id="line2d_34">
      <path clip-path="url(#p528293ca67)" d="M 62.89875 236.244845 
L 1178.89875 236.244845 
" style="fill:none;stroke:#b0b0b0;stroke-linecap:square;stroke-width:0.8;"/>
     </g>
     <g id="line2d_35">
      <g>
       <use style="stroke:#000000;stroke-width:0.8;" x="62.89875" xlink:href="#md3d8961ef8" y="236.244845"/>
      </g>
     </g>
     <g id="text_22">
      <!-- 1200 -->
      <g transform="translate(22.81375 241.18383)scale(0.13 -0.13)">
       <use xlink:href="#DejaVuSans-49"/>
       <use x="63.623047" xlink:href="#DejaVuSans-50"/>
       <use x="127.246094" xlink:href="#DejaVuSans-48"/>
       <use x="190.869141" xlink:href="#DejaVuSans-48"/>
      </g>
     </g>
    </g>
    <g id="ytick_14">
     <g id="line2d_36">
      <path clip-path="url(#p528293ca67)" d="M 62.89875 215.871585 
L 1178.89875 215.871585 
" style="fill:none;stroke:#b0b0b0;stroke-linecap:square;stroke-width:0.8;"/>
     </g>
     <g id="line2d_37">
      <g>
       <use style="stroke:#000000;stroke-width:0.8;" x="62.89875" xlink:href="#md3d8961ef8" y="215.871585"/>
      </g>
     </g>
     <g id="text_23">
      <!-- 1300 -->
      <g transform="translate(22.81375 220.81057)scale(0.13 -0.13)">
       <use xlink:href="#DejaVuSans-49"/>
       <use x="63.623047" xlink:href="#DejaVuSans-51"/>
       <use x="127.246094" xlink:href="#DejaVuSans-48"/>
       <use x="190.869141" xlink:href="#DejaVuSans-48"/>
      </g>
     </g>
    </g>
    <g id="ytick_15">
     <g id="line2d_38">
      <path clip-path="url(#p528293ca67)" d="M 62.89875 195.498325 
L 1178.89875 195.498325 
" style="fill:none;stroke:#b0b0b0;stroke-linecap:square;stroke-width:0.8;"/>
     </g>
     <g id="line2d_39">
      <g>
       <use style="stroke:#000000;stroke-width:0.8;" x="62.89875" xlink:href="#md3d8961ef8" y="195.498325"/>
      </g>
     </g>
     <g id="text_24">
      <!-- 1400 -->
      <g transform="translate(22.81375 200.43731)scale(0.13 -0.13)">
       <use xlink:href="#DejaVuSans-49"/>
       <use x="63.623047" xlink:href="#DejaVuSans-52"/>
       <use x="127.246094" xlink:href="#DejaVuSans-48"/>
       <use x="190.869141" xlink:href="#DejaVuSans-48"/>
      </g>
     </g>
    </g>
    <g id="ytick_16">
     <g id="line2d_40">
      <path clip-path="url(#p528293ca67)" d="M 62.89875 175.125065 
L 1178.89875 175.125065 
" style="fill:none;stroke:#b0b0b0;stroke-linecap:square;stroke-width:0.8;"/>
     </g>
     <g id="line2d_41">
      <g>
       <use style="stroke:#000000;stroke-width:0.8;" x="62.89875" xlink:href="#md3d8961ef8" y="175.125065"/>
      </g>
     </g>
     <g id="text_25">
      <!-- 1500 -->
      <g transform="translate(22.81375 180.06405)scale(0.13 -0.13)">
       <use xlink:href="#DejaVuSans-49"/>
       <use x="63.623047" xlink:href="#DejaVuSans-53"/>
       <use x="127.246094" xlink:href="#DejaVuSans-48"/>
       <use x="190.869141" xlink:href="#DejaVuSans-48"/>
      </g>
     </g>
    </g>
    <g id="ytick_17">
     <g id="line2d_42">
      <path clip-path="url(#p528293ca67)" d="M 62.89875 154.751805 
L 1178.89875 154.751805 
" style="fill:none;stroke:#b0b0b0;stroke-linecap:square;stroke-width:0.8;"/>
     </g>
     <g id="line2d_43">
      <g>
       <use style="stroke:#000000;stroke-width:0.8;" x="62.89875" xlink:href="#md3d8961ef8" y="154.751805"/>
      </g>
     </g>
     <g id="text_26">
      <!-- 1600 -->
      <g transform="translate(22.81375 159.690789)scale(0.13 -0.13)">
       <use xlink:href="#DejaVuSans-49"/>
       <use x="63.623047" xlink:href="#DejaVuSans-54"/>
       <use x="127.246094" xlink:href="#DejaVuSans-48"/>
       <use x="190.869141" xlink:href="#DejaVuSans-48"/>
      </g>
     </g>
    </g>
    <g id="ytick_18">
     <g id="line2d_44">
      <path clip-path="url(#p528293ca67)" d="M 62.89875 134.378545 
L 1178.89875 134.378545 
" style="fill:none;stroke:#b0b0b0;stroke-linecap:square;stroke-width:0.8;"/>
     </g>
     <g id="line2d_45">
      <g>
       <use style="stroke:#000000;stroke-width:0.8;" x="62.89875" xlink:href="#md3d8961ef8" y="134.378545"/>
      </g>
     </g>
     <g id="text_27">
      <!-- 1700 -->
      <g transform="translate(22.81375 139.317529)scale(0.13 -0.13)">
       <use xlink:href="#DejaVuSans-49"/>
       <use x="63.623047" xlink:href="#DejaVuSans-55"/>
       <use x="127.246094" xlink:href="#DejaVuSans-48"/>
       <use x="190.869141" xlink:href="#DejaVuSans-48"/>
      </g>
     </g>
    </g>
    <g id="ytick_19">
     <g id="line2d_46">
      <path clip-path="url(#p528293ca67)" d="M 62.89875 114.005285 
L 1178.89875 114.005285 
" style="fill:none;stroke:#b0b0b0;stroke-linecap:square;stroke-width:0.8;"/>
     </g>
     <g id="line2d_47">
      <g>
       <use style="stroke:#000000;stroke-width:0.8;" x="62.89875" xlink:href="#md3d8961ef8" y="114.005285"/>
      </g>
     </g>
     <g id="text_28">
      <!-- 1800 -->
      <g transform="translate(22.81375 118.944269)scale(0.13 -0.13)">
       <use xlink:href="#DejaVuSans-49"/>
       <use x="63.623047" xlink:href="#DejaVuSans-56"/>
       <use x="127.246094" xlink:href="#DejaVuSans-48"/>
       <use x="190.869141" xlink:href="#DejaVuSans-48"/>
      </g>
     </g>
    </g>
    <g id="ytick_20">
     <g id="line2d_48">
      <path clip-path="url(#p528293ca67)" d="M 62.89875 93.632025 
L 1178.89875 93.632025 
" style="fill:none;stroke:#b0b0b0;stroke-linecap:square;stroke-width:0.8;"/>
     </g>
     <g id="line2d_49">
      <g>
       <use style="stroke:#000000;stroke-width:0.8;" x="62.89875" xlink:href="#md3d8961ef8" y="93.632025"/>
      </g>
     </g>
     <g id="text_29">
      <!-- 1900 -->
      <g transform="translate(22.81375 98.571009)scale(0.13 -0.13)">
       <use xlink:href="#DejaVuSans-49"/>
       <use x="63.623047" xlink:href="#DejaVuSans-57"/>
       <use x="127.246094" xlink:href="#DejaVuSans-48"/>
       <use x="190.869141" xlink:href="#DejaVuSans-48"/>
      </g>
     </g>
    </g>
    <g id="ytick_21">
     <g id="line2d_50">
      <path clip-path="url(#p528293ca67)" d="M 62.89875 73.258765 
L 1178.89875 73.258765 
" style="fill:none;stroke:#b0b0b0;stroke-linecap:square;stroke-width:0.8;"/>
     </g>
     <g id="line2d_51">
      <g>
       <use style="stroke:#000000;stroke-width:0.8;" x="62.89875" xlink:href="#md3d8961ef8" y="73.258765"/>
      </g>
     </g>
     <g id="text_30">
      <!-- 2000 -->
      <g transform="translate(22.81375 78.197749)scale(0.13 -0.13)">
       <use xlink:href="#DejaVuSans-50"/>
       <use x="63.623047" xlink:href="#DejaVuSans-48"/>
       <use x="127.246094" xlink:href="#DejaVuSans-48"/>
       <use x="190.869141" xlink:href="#DejaVuSans-48"/>
      </g>
     </g>
    </g>
    <g id="ytick_22">
     <g id="line2d_52">
      <path clip-path="url(#p528293ca67)" d="M 62.89875 52.885505 
L 1178.89875 52.885505 
" style="fill:none;stroke:#b0b0b0;stroke-linecap:square;stroke-width:0.8;"/>
     </g>
     <g id="line2d_53">
      <g>
       <use style="stroke:#000000;stroke-width:0.8;" x="62.89875" xlink:href="#md3d8961ef8" y="52.885505"/>
      </g>
     </g>
     <g id="text_31">
      <!-- 2100 -->
      <g transform="translate(22.81375 57.824489)scale(0.13 -0.13)">
       <use xlink:href="#DejaVuSans-50"/>
       <use x="63.623047" xlink:href="#DejaVuSans-49"/>
       <use x="127.246094" xlink:href="#DejaVuSans-48"/>
       <use x="190.869141" xlink:href="#DejaVuSans-48"/>
      </g>
     </g>
    </g>
    <g id="ytick_23">
     <g id="line2d_54">
      <path clip-path="url(#p528293ca67)" d="M 62.89875 32.512244 
L 1178.89875 32.512244 
" style="fill:none;stroke:#b0b0b0;stroke-linecap:square;stroke-width:0.8;"/>
     </g>
     <g id="line2d_55">
      <g>
       <use style="stroke:#000000;stroke-width:0.8;" x="62.89875" xlink:href="#md3d8961ef8" y="32.512244"/>
      </g>
     </g>
     <g id="text_32">
      <!-- 2200 -->
      <g transform="translate(22.81375 37.451229)scale(0.13 -0.13)">
       <use xlink:href="#DejaVuSans-50"/>
       <use x="63.623047" xlink:href="#DejaVuSans-50"/>
       <use x="127.246094" xlink:href="#DejaVuSans-48"/>
       <use x="190.869141" xlink:href="#DejaVuSans-48"/>
      </g>
     </g>
    </g>
    <g id="ytick_24">
     <g id="line2d_56">
      <path clip-path="url(#p528293ca67)" d="M 62.89875 12.138984 
L 1178.89875 12.138984 
" style="fill:none;stroke:#b0b0b0;stroke-linecap:square;stroke-width:0.8;"/>
     </g>
     <g id="line2d_57">
      <g>
       <use style="stroke:#000000;stroke-width:0.8;" x="62.89875" xlink:href="#md3d8961ef8" y="12.138984"/>
      </g>
     </g>
     <g id="text_33">
      <!-- 2300 -->
      <g transform="translate(22.81375 17.077969)scale(0.13 -0.13)">
       <use xlink:href="#DejaVuSans-50"/>
       <use x="63.623047" xlink:href="#DejaVuSans-51"/>
       <use x="127.246094" xlink:href="#DejaVuSans-48"/>
       <use x="190.869141" xlink:href="#DejaVuSans-48"/>
      </g>
     </g>
    </g>
    <g id="text_34">
     <!-- Anzahl von Fällen -->
     <defs>
      <path d="M 34.1875 63.1875 
L 20.796875 26.90625 
L 47.609375 26.90625 
z
M 28.609375 72.90625 
L 39.796875 72.90625 
L 67.578125 0 
L 57.328125 0 
L 50.6875 18.703125 
L 17.828125 18.703125 
L 11.1875 0 
L 0.78125 0 
z
" id="DejaVuSans-65"/>
      <path d="M 54.890625 33.015625 
L 54.890625 0 
L 45.90625 0 
L 45.90625 32.71875 
Q 45.90625 40.484375 42.875 44.328125 
Q 39.84375 48.1875 33.796875 48.1875 
Q 26.515625 48.1875 22.3125 43.546875 
Q 18.109375 38.921875 18.109375 30.90625 
L 18.109375 0 
L 9.078125 0 
L 9.078125 54.6875 
L 18.109375 54.6875 
L 18.109375 46.1875 
Q 21.34375 51.125 25.703125 53.5625 
Q 30.078125 56 35.796875 56 
Q 45.21875 56 50.046875 50.171875 
Q 54.890625 44.34375 54.890625 33.015625 
z
" id="DejaVuSans-110"/>
      <path d="M 5.515625 54.6875 
L 48.1875 54.6875 
L 48.1875 46.484375 
L 14.40625 7.171875 
L 48.1875 7.171875 
L 48.1875 0 
L 4.296875 0 
L 4.296875 8.203125 
L 38.09375 47.515625 
L 5.515625 47.515625 
z
" id="DejaVuSans-122"/>
      <path d="M 34.28125 27.484375 
Q 23.390625 27.484375 19.1875 25 
Q 14.984375 22.515625 14.984375 16.5 
Q 14.984375 11.71875 18.140625 8.90625 
Q 21.296875 6.109375 26.703125 6.109375 
Q 34.1875 6.109375 38.703125 11.40625 
Q 43.21875 16.703125 43.21875 25.484375 
L 43.21875 27.484375 
z
M 52.203125 31.203125 
L 52.203125 0 
L 43.21875 0 
L 43.21875 8.296875 
Q 40.140625 3.328125 35.546875 0.953125 
Q 30.953125 -1.421875 24.3125 -1.421875 
Q 15.921875 -1.421875 10.953125 3.296875 
Q 6 8.015625 6 15.921875 
Q 6 25.140625 12.171875 29.828125 
Q 18.359375 34.515625 30.609375 34.515625 
L 43.21875 34.515625 
L 43.21875 35.40625 
Q 43.21875 41.609375 39.140625 45 
Q 35.0625 48.390625 27.6875 48.390625 
Q 23 48.390625 18.546875 47.265625 
Q 14.109375 46.140625 10.015625 43.890625 
L 10.015625 52.203125 
Q 14.9375 54.109375 19.578125 55.046875 
Q 24.21875 56 28.609375 56 
Q 40.484375 56 46.34375 49.84375 
Q 52.203125 43.703125 52.203125 31.203125 
z
" id="DejaVuSans-97"/>
      <path d="M 54.890625 33.015625 
L 54.890625 0 
L 45.90625 0 
L 45.90625 32.71875 
Q 45.90625 40.484375 42.875 44.328125 
Q 39.84375 48.1875 33.796875 48.1875 
Q 26.515625 48.1875 22.3125 43.546875 
Q 18.109375 38.921875 18.109375 30.90625 
L 18.109375 0 
L 9.078125 0 
L 9.078125 75.984375 
L 18.109375 75.984375 
L 18.109375 46.1875 
Q 21.34375 51.125 25.703125 53.5625 
Q 30.078125 56 35.796875 56 
Q 45.21875 56 50.046875 50.171875 
Q 54.890625 44.34375 54.890625 33.015625 
z
" id="DejaVuSans-104"/>
      <path d="M 9.421875 75.984375 
L 18.40625 75.984375 
L 18.40625 0 
L 9.421875 0 
z
" id="DejaVuSans-108"/>
      <path id="DejaVuSans-32"/>
      <path d="M 2.984375 54.6875 
L 12.5 54.6875 
L 29.59375 8.796875 
L 46.6875 54.6875 
L 56.203125 54.6875 
L 35.6875 0 
L 23.484375 0 
z
" id="DejaVuSans-118"/>
      <path d="M 30.609375 48.390625 
Q 23.390625 48.390625 19.1875 42.75 
Q 14.984375 37.109375 14.984375 27.296875 
Q 14.984375 17.484375 19.15625 11.84375 
Q 23.34375 6.203125 30.609375 6.203125 
Q 37.796875 6.203125 41.984375 11.859375 
Q 46.1875 17.53125 46.1875 27.296875 
Q 46.1875 37.015625 41.984375 42.703125 
Q 37.796875 48.390625 30.609375 48.390625 
z
M 30.609375 56 
Q 42.328125 56 49.015625 48.375 
Q 55.71875 40.765625 55.71875 27.296875 
Q 55.71875 13.875 49.015625 6.21875 
Q 42.328125 -1.421875 30.609375 -1.421875 
Q 18.84375 -1.421875 12.171875 6.21875 
Q 5.515625 13.875 5.515625 27.296875 
Q 5.515625 40.765625 12.171875 48.375 
Q 18.84375 56 30.609375 56 
z
" id="DejaVuSans-111"/>
      <path d="M 9.8125 72.90625 
L 51.703125 72.90625 
L 51.703125 64.59375 
L 19.671875 64.59375 
L 19.671875 43.109375 
L 48.578125 43.109375 
L 48.578125 34.8125 
L 19.671875 34.8125 
L 19.671875 0 
L 9.8125 0 
z
" id="DejaVuSans-70"/>
      <path d="M 34.28125 27.484375 
Q 23.390625 27.484375 19.1875 25 
Q 14.984375 22.515625 14.984375 16.5 
Q 14.984375 11.71875 18.140625 8.90625 
Q 21.296875 6.109375 26.703125 6.109375 
Q 34.1875 6.109375 38.703125 11.40625 
Q 43.21875 16.703125 43.21875 25.484375 
L 43.21875 27.484375 
z
M 52.203125 31.203125 
L 52.203125 0 
L 43.21875 0 
L 43.21875 8.296875 
Q 40.140625 3.328125 35.546875 0.953125 
Q 30.953125 -1.421875 24.3125 -1.421875 
Q 15.921875 -1.421875 10.953125 3.296875 
Q 6 8.015625 6 15.921875 
Q 6 25.140625 12.171875 29.828125 
Q 18.359375 34.515625 30.609375 34.515625 
L 43.21875 34.515625 
L 43.21875 35.40625 
Q 43.21875 41.609375 39.140625 45 
Q 35.0625 48.390625 27.6875 48.390625 
Q 23 48.390625 18.546875 47.265625 
Q 14.109375 46.140625 10.015625 43.890625 
L 10.015625 52.203125 
Q 14.9375 54.109375 19.578125 55.046875 
Q 24.21875 56 28.609375 56 
Q 40.484375 56 46.34375 49.84375 
Q 52.203125 43.703125 52.203125 31.203125 
z
M 33.59375 75.78125 
L 43.5 75.78125 
L 43.5 65.921875 
L 33.59375 65.921875 
z
M 14.5 75.78125 
L 24.40625 75.78125 
L 24.40625 65.921875 
L 14.5 65.921875 
z
" id="DejaVuSans-228"/>
      <path d="M 56.203125 29.59375 
L 56.203125 25.203125 
L 14.890625 25.203125 
Q 15.484375 15.921875 20.484375 11.0625 
Q 25.484375 6.203125 34.421875 6.203125 
Q 39.59375 6.203125 44.453125 7.46875 
Q 49.3125 8.734375 54.109375 11.28125 
L 54.109375 2.78125 
Q 49.265625 0.734375 44.1875 -0.34375 
Q 39.109375 -1.421875 33.890625 -1.421875 
Q 20.796875 -1.421875 13.15625 6.1875 
Q 5.515625 13.8125 5.515625 26.8125 
Q 5.515625 40.234375 12.765625 48.109375 
Q 20.015625 56 32.328125 56 
Q 43.359375 56 49.78125 48.890625 
Q 56.203125 41.796875 56.203125 29.59375 
z
M 47.21875 32.234375 
Q 47.125 39.59375 43.09375 43.984375 
Q 39.0625 48.390625 32.421875 48.390625 
Q 24.90625 48.390625 20.390625 44.140625 
Q 15.875 39.890625 15.1875 32.171875 
z
" id="DejaVuSans-101"/>
     </defs>
     <g transform="translate(16.318125 309.388359)rotate(-90)scale(0.12 -0.12)">
      <use xlink:href="#DejaVuSans-65"/>
      <use x="68.408203" xlink:href="#DejaVuSans-110"/>
      <use x="131.787109" xlink:href="#DejaVuSans-122"/>
      <use x="184.277344" xlink:href="#DejaVuSans-97"/>
      <use x="245.556641" xlink:href="#DejaVuSans-104"/>
      <use x="308.935547" xlink:href="#DejaVuSans-108"/>
      <use x="336.71875" xlink:href="#DejaVuSans-32"/>
      <use x="368.505859" xlink:href="#DejaVuSans-118"/>
      <use x="427.685547" xlink:href="#DejaVuSans-111"/>
      <use x="488.867188" xlink:href="#DejaVuSans-110"/>
      <use x="552.246094" xlink:href="#DejaVuSans-32"/>
      <use x="584.033203" xlink:href="#DejaVuSans-70"/>
      <use x="632.427734" xlink:href="#DejaVuSans-228"/>
      <use x="693.707031" xlink:href="#DejaVuSans-108"/>
      <use x="721.490234" xlink:href="#DejaVuSans-108"/>
      <use x="749.273438" xlink:href="#DejaVuSans-101"/>
      <use x="810.796875" xlink:href="#DejaVuSans-110"/>
     </g>
    </g>
   </g>
   <g id="line2d_58">
    <path clip-path="url(#p528293ca67)" d="M 113.626023 476.445582 
L 117.48361 475.834384 
L 125.198785 475.834384 
L 129.056372 473.389593 
L 132.913959 471.352267 
L 136.771546 471.352267 
L 140.629134 469.926139 
L 144.486721 465.240289 
L 148.344308 462.1843 
L 152.201896 458.517113 
L 156.059483 454.646194 
L 159.91707 452.201402 
L 163.774657 452.201402 
L 167.632245 450.979007 
L 171.489832 444.867029 
L 175.347419 440.384912 
L 179.205006 437.736388 
L 183.062594 436.717725 
L 190.777768 436.717725 
L 198.492943 430.402014 
L 202.35053 429.790816 
L 206.208117 415.733267 
L 210.065705 415.733267 
L 213.923292 412.473545 
L 221.638467 412.677278 
L 225.496054 411.047417 
L 229.353641 406.361567 
L 233.211228 405.546637 
L 237.068816 404.324241 
L 240.926403 399.434659 
L 248.641578 398.823461 
L 252.499165 398.823461 
L 256.356752 396.174937 
L 260.214339 394.545076 
L 267.929514 394.341344 
L 275.644688 394.341344 
L 279.502276 393.933879 
L 283.359863 392.100285 
L 287.21745 390.674157 
L 291.075038 389.044296 
L 294.932625 389.044296 
L 306.505387 387.618168 
L 310.362974 386.19204 
L 314.220561 385.377109 
L 318.078149 384.358446 
L 321.935736 383.950981 
L 329.65091 379.061399 
L 333.508498 378.653934 
L 337.366085 376.209142 
L 345.08126 374.171816 
L 356.654021 374.171816 
L 360.511609 339.129809 
L 368.226783 321.812538 
L 372.08437 320.793875 
L 387.51472 319.978944 
L 391.372307 315.70056 
L 395.229894 315.089362 
L 399.087481 312.237106 
L 402.945069 311.218443 
L 414.517831 311.218443 
L 426.090592 310.607245 
L 437.663354 310.607245 
L 445.378529 309.181117 
L 456.951291 309.181117 
L 483.954402 308.569919 
L 491.669576 308.569919 
L 499.384751 308.162454 
L 503.242338 307.754988 
L 507.099925 307.551256 
L 549.533385 307.551256 
L 553.390973 307.143791 
L 557.24856 307.143791 
L 561.106147 306.736325 
L 576.536496 306.736325 
L 580.394084 306.125128 
L 584.251671 305.921395 
L 588.109258 305.51393 
L 611.254782 305.51393 
L 615.112369 305.310197 
L 642.11548 305.310197 
L 661.403416 304.291534 
L 669.118591 304.291534 
L 680.691353 303.476604 
L 684.54894 303.476604 
L 688.406527 303.069139 
L 692.264115 303.069139 
L 696.121702 302.865406 
L 707.694464 302.457941 
L 711.552051 301.846743 
L 719.267226 301.846743 
L 723.124813 301.439278 
L 734.697575 301.439278 
L 738.555162 301.235545 
L 742.412749 300.82808 
L 750.127924 300.420615 
L 761.700686 300.01315 
L 765.558273 299.605684 
L 769.41586 299.605684 
L 777.131035 299.198219 
L 788.703797 298.994487 
L 792.561384 298.383289 
L 796.418971 298.179556 
L 800.276559 298.179556 
L 804.134146 297.772091 
L 823.422082 296.753428 
L 827.279669 296.345963 
L 842.710019 296.345963 
L 846.567606 296.14223 
L 850.425193 294.919835 
L 869.71313 293.901172 
L 873.570717 291.660113 
L 877.428304 291.660113 
L 885.143479 291.252648 
L 896.71624 290.233985 
L 900.573828 285.14067 
L 927.576939 272.305516 
L 931.434526 270.064457 
L 935.292113 268.842062 
L 939.149701 268.027131 
L 950.722462 264.156212 
L 954.58005 261.303955 
L 958.437637 260.489025 
L 962.295224 254.988245 
L 966.152812 256.618106 
L 977.725573 236.244845 
L 993.155922 236.244845 
L 1004.728684 215.871585 
L 1012.443859 215.871585 
L 1016.301446 195.498325 
L 1031.731795 195.498325 
L 1035.589383 175.125065 
L 1047.162144 175.125065 
L 1058.734906 154.751805 
L 1062.592494 154.751805 
L 1070.307668 134.378545 
L 1074.165255 134.378545 
L 1085.738017 114.005285 
L 1097.310779 114.005285 
L 1101.168366 93.632025 
L 1112.741128 93.632025 
L 1116.598715 73.258765 
L 1128.171477 73.258765 
L 1128.171477 73.258765 
" style="fill:none;stroke:#dbcd00;stroke-linecap:square;stroke-width:2;"/>
    <defs>
     <path d="M 0 1.5 
C 0.397805 1.5 0.77937 1.341951 1.06066 1.06066 
C 1.341951 0.77937 1.5 0.397805 1.5 0 
C 1.5 -0.397805 1.341951 -0.77937 1.06066 -1.06066 
C 0.77937 -1.341951 0.397805 -1.5 0 -1.5 
C -0.397805 -1.5 -0.77937 -1.341951 -1.06066 -1.06066 
C -1.341951 -0.77937 -1.5 -0.397805 -1.5 0 
C -1.5 0.397805 -1.341951 0.77937 -1.06066 1.06066 
C -0.77937 1.341951 -0.397805 1.5 0 1.5 
z
" id="m646f51e064" style="stroke:#dbcd00;"/>
    </defs>
    <g clip-path="url(#p528293ca67)">
     <use style="fill:#dbcd00;stroke:#dbcd00;" x="113.626023" xlink:href="#m646f51e064" y="476.445582"/>
     <use style="fill:#dbcd00;stroke:#dbcd00;" x="117.48361" xlink:href="#m646f51e064" y="475.834384"/>
     <use style="fill:#dbcd00;stroke:#dbcd00;" x="121.341197" xlink:href="#m646f51e064" y="475.834384"/>
     <use style="fill:#dbcd00;stroke:#dbcd00;" x="125.198785" xlink:href="#m646f51e064" y="475.834384"/>
     <use style="fill:#dbcd00;stroke:#dbcd00;" x="129.056372" xlink:href="#m646f51e064" y="473.389593"/>
     <use style="fill:#dbcd00;stroke:#dbcd00;" x="132.913959" xlink:href="#m646f51e064" y="471.352267"/>
     <use style="fill:#dbcd00;stroke:#dbcd00;" x="136.771546" xlink:href="#m646f51e064" y="471.352267"/>
     <use style="fill:#dbcd00;stroke:#dbcd00;" x="140.629134" xlink:href="#m646f51e064" y="469.926139"/>
     <use style="fill:#dbcd00;stroke:#dbcd00;" x="144.486721" xlink:href="#m646f51e064" y="465.240289"/>
     <use style="fill:#dbcd00;stroke:#dbcd00;" x="148.344308" xlink:href="#m646f51e064" y="462.1843"/>
     <use style="fill:#dbcd00;stroke:#dbcd00;" x="152.201896" xlink:href="#m646f51e064" y="458.517113"/>
     <use style="fill:#dbcd00;stroke:#dbcd00;" x="156.059483" xlink:href="#m646f51e064" y="454.646194"/>
     <use style="fill:#dbcd00;stroke:#dbcd00;" x="159.91707" xlink:href="#m646f51e064" y="452.201402"/>
     <use style="fill:#dbcd00;stroke:#dbcd00;" x="163.774657" xlink:href="#m646f51e064" y="452.201402"/>
     <use style="fill:#dbcd00;stroke:#dbcd00;" x="167.632245" xlink:href="#m646f51e064" y="450.979007"/>
     <use style="fill:#dbcd00;stroke:#dbcd00;" x="171.489832" xlink:href="#m646f51e064" y="444.867029"/>
     <use style="fill:#dbcd00;stroke:#dbcd00;" x="175.347419" xlink:href="#m646f51e064" y="440.384912"/>
     <use style="fill:#dbcd00;stroke:#dbcd00;" x="179.205006" xlink:href="#m646f51e064" y="437.736388"/>
     <use style="fill:#dbcd00;stroke:#dbcd00;" x="183.062594" xlink:href="#m646f51e064" y="436.717725"/>
     <use style="fill:#dbcd00;stroke:#dbcd00;" x="190.777768" xlink:href="#m646f51e064" y="436.717725"/>
     <use style="fill:#dbcd00;stroke:#dbcd00;" x="198.492943" xlink:href="#m646f51e064" y="430.402014"/>
     <use style="fill:#dbcd00;stroke:#dbcd00;" x="202.35053" xlink:href="#m646f51e064" y="429.790816"/>
     <use style="fill:#dbcd00;stroke:#dbcd00;" x="206.208117" xlink:href="#m646f51e064" y="415.733267"/>
     <use style="fill:#dbcd00;stroke:#dbcd00;" x="210.065705" xlink:href="#m646f51e064" y="415.733267"/>
     <use style="fill:#dbcd00;stroke:#dbcd00;" x="213.923292" xlink:href="#m646f51e064" y="412.473545"/>
     <use style="fill:#dbcd00;stroke:#dbcd00;" x="221.638467" xlink:href="#m646f51e064" y="412.677278"/>
     <use style="fill:#dbcd00;stroke:#dbcd00;" x="225.496054" xlink:href="#m646f51e064" y="411.047417"/>
     <use style="fill:#dbcd00;stroke:#dbcd00;" x="229.353641" xlink:href="#m646f51e064" y="406.361567"/>
     <use style="fill:#dbcd00;stroke:#dbcd00;" x="233.211228" xlink:href="#m646f51e064" y="405.546637"/>
     <use style="fill:#dbcd00;stroke:#dbcd00;" x="237.068816" xlink:href="#m646f51e064" y="404.324241"/>
     <use style="fill:#dbcd00;stroke:#dbcd00;" x="240.926403" xlink:href="#m646f51e064" y="399.434659"/>
     <use style="fill:#dbcd00;stroke:#dbcd00;" x="248.641578" xlink:href="#m646f51e064" y="398.823461"/>
     <use style="fill:#dbcd00;stroke:#dbcd00;" x="252.499165" xlink:href="#m646f51e064" y="398.823461"/>
     <use style="fill:#dbcd00;stroke:#dbcd00;" x="256.356752" xlink:href="#m646f51e064" y="396.174937"/>
     <use style="fill:#dbcd00;stroke:#dbcd00;" x="260.214339" xlink:href="#m646f51e064" y="394.545076"/>
     <use style="fill:#dbcd00;stroke:#dbcd00;" x="267.929514" xlink:href="#m646f51e064" y="394.341344"/>
     <use style="fill:#dbcd00;stroke:#dbcd00;" x="275.644688" xlink:href="#m646f51e064" y="394.341344"/>
     <use style="fill:#dbcd00;stroke:#dbcd00;" x="279.502276" xlink:href="#m646f51e064" y="393.933879"/>
     <use style="fill:#dbcd00;stroke:#dbcd00;" x="283.359863" xlink:href="#m646f51e064" y="392.100285"/>
     <use style="fill:#dbcd00;stroke:#dbcd00;" x="287.21745" xlink:href="#m646f51e064" y="390.674157"/>
     <use style="fill:#dbcd00;stroke:#dbcd00;" x="291.075038" xlink:href="#m646f51e064" y="389.044296"/>
     <use style="fill:#dbcd00;stroke:#dbcd00;" x="294.932625" xlink:href="#m646f51e064" y="389.044296"/>
     <use style="fill:#dbcd00;stroke:#dbcd00;" x="302.647799" xlink:href="#m646f51e064" y="388.025633"/>
     <use style="fill:#dbcd00;stroke:#dbcd00;" x="306.505387" xlink:href="#m646f51e064" y="387.618168"/>
     <use style="fill:#dbcd00;stroke:#dbcd00;" x="310.362974" xlink:href="#m646f51e064" y="386.19204"/>
     <use style="fill:#dbcd00;stroke:#dbcd00;" x="314.220561" xlink:href="#m646f51e064" y="385.377109"/>
     <use style="fill:#dbcd00;stroke:#dbcd00;" x="318.078149" xlink:href="#m646f51e064" y="384.358446"/>
     <use style="fill:#dbcd00;stroke:#dbcd00;" x="321.935736" xlink:href="#m646f51e064" y="383.950981"/>
     <use style="fill:#dbcd00;stroke:#dbcd00;" x="329.65091" xlink:href="#m646f51e064" y="379.061399"/>
     <use style="fill:#dbcd00;stroke:#dbcd00;" x="333.508498" xlink:href="#m646f51e064" y="378.653934"/>
     <use style="fill:#dbcd00;stroke:#dbcd00;" x="337.366085" xlink:href="#m646f51e064" y="376.209142"/>
     <use style="fill:#dbcd00;stroke:#dbcd00;" x="345.08126" xlink:href="#m646f51e064" y="374.171816"/>
     <use style="fill:#dbcd00;stroke:#dbcd00;" x="348.938847" xlink:href="#m646f51e064" y="374.171816"/>
     <use style="fill:#dbcd00;stroke:#dbcd00;" x="356.654021" xlink:href="#m646f51e064" y="374.171816"/>
     <use style="fill:#dbcd00;stroke:#dbcd00;" x="360.511609" xlink:href="#m646f51e064" y="339.129809"/>
     <use style="fill:#dbcd00;stroke:#dbcd00;" x="368.226783" xlink:href="#m646f51e064" y="321.812538"/>
     <use style="fill:#dbcd00;stroke:#dbcd00;" x="372.08437" xlink:href="#m646f51e064" y="320.793875"/>
     <use style="fill:#dbcd00;stroke:#dbcd00;" x="387.51472" xlink:href="#m646f51e064" y="319.978944"/>
     <use style="fill:#dbcd00;stroke:#dbcd00;" x="391.372307" xlink:href="#m646f51e064" y="315.70056"/>
     <use style="fill:#dbcd00;stroke:#dbcd00;" x="395.229894" xlink:href="#m646f51e064" y="315.089362"/>
     <use style="fill:#dbcd00;stroke:#dbcd00;" x="399.087481" xlink:href="#m646f51e064" y="312.237106"/>
     <use style="fill:#dbcd00;stroke:#dbcd00;" x="402.945069" xlink:href="#m646f51e064" y="311.218443"/>
     <use style="fill:#dbcd00;stroke:#dbcd00;" x="410.660243" xlink:href="#m646f51e064" y="311.218443"/>
     <use style="fill:#dbcd00;stroke:#dbcd00;" x="414.517831" xlink:href="#m646f51e064" y="311.218443"/>
     <use style="fill:#dbcd00;stroke:#dbcd00;" x="418.375418" xlink:href="#m646f51e064" y="311.01471"/>
     <use style="fill:#dbcd00;stroke:#dbcd00;" x="426.090592" xlink:href="#m646f51e064" y="310.607245"/>
     <use style="fill:#dbcd00;stroke:#dbcd00;" x="429.94818" xlink:href="#m646f51e064" y="310.607245"/>
     <use style="fill:#dbcd00;stroke:#dbcd00;" x="437.663354" xlink:href="#m646f51e064" y="310.607245"/>
     <use style="fill:#dbcd00;stroke:#dbcd00;" x="445.378529" xlink:href="#m646f51e064" y="309.181117"/>
     <use style="fill:#dbcd00;stroke:#dbcd00;" x="453.093703" xlink:href="#m646f51e064" y="309.181117"/>
     <use style="fill:#dbcd00;stroke:#dbcd00;" x="456.951291" xlink:href="#m646f51e064" y="309.181117"/>
     <use style="fill:#dbcd00;stroke:#dbcd00;" x="464.666465" xlink:href="#m646f51e064" y="308.977384"/>
     <use style="fill:#dbcd00;stroke:#dbcd00;" x="468.524052" xlink:href="#m646f51e064" y="308.977384"/>
     <use style="fill:#dbcd00;stroke:#dbcd00;" x="472.38164" xlink:href="#m646f51e064" y="308.773651"/>
     <use style="fill:#dbcd00;stroke:#dbcd00;" x="476.239227" xlink:href="#m646f51e064" y="308.773651"/>
     <use style="fill:#dbcd00;stroke:#dbcd00;" x="483.954402" xlink:href="#m646f51e064" y="308.569919"/>
     <use style="fill:#dbcd00;stroke:#dbcd00;" x="491.669576" xlink:href="#m646f51e064" y="308.569919"/>
     <use style="fill:#dbcd00;stroke:#dbcd00;" x="495.527163" xlink:href="#m646f51e064" y="308.366186"/>
     <use style="fill:#dbcd00;stroke:#dbcd00;" x="499.384751" xlink:href="#m646f51e064" y="308.162454"/>
     <use style="fill:#dbcd00;stroke:#dbcd00;" x="503.242338" xlink:href="#m646f51e064" y="307.754988"/>
     <use style="fill:#dbcd00;stroke:#dbcd00;" x="507.099925" xlink:href="#m646f51e064" y="307.551256"/>
     <use style="fill:#dbcd00;stroke:#dbcd00;" x="510.957513" xlink:href="#m646f51e064" y="307.551256"/>
     <use style="fill:#dbcd00;stroke:#dbcd00;" x="522.530274" xlink:href="#m646f51e064" y="307.551256"/>
     <use style="fill:#dbcd00;stroke:#dbcd00;" x="526.387862" xlink:href="#m646f51e064" y="307.551256"/>
     <use style="fill:#dbcd00;stroke:#dbcd00;" x="530.245449" xlink:href="#m646f51e064" y="307.551256"/>
     <use style="fill:#dbcd00;stroke:#dbcd00;" x="534.103036" xlink:href="#m646f51e064" y="307.551256"/>
     <use style="fill:#dbcd00;stroke:#dbcd00;" x="545.675798" xlink:href="#m646f51e064" y="307.551256"/>
     <use style="fill:#dbcd00;stroke:#dbcd00;" x="549.533385" xlink:href="#m646f51e064" y="307.551256"/>
     <use style="fill:#dbcd00;stroke:#dbcd00;" x="553.390973" xlink:href="#m646f51e064" y="307.143791"/>
     <use style="fill:#dbcd00;stroke:#dbcd00;" x="557.24856" xlink:href="#m646f51e064" y="307.143791"/>
     <use style="fill:#dbcd00;stroke:#dbcd00;" x="561.106147" xlink:href="#m646f51e064" y="306.736325"/>
     <use style="fill:#dbcd00;stroke:#dbcd00;" x="572.678909" xlink:href="#m646f51e064" y="306.736325"/>
     <use style="fill:#dbcd00;stroke:#dbcd00;" x="576.536496" xlink:href="#m646f51e064" y="306.736325"/>
     <use style="fill:#dbcd00;stroke:#dbcd00;" x="580.394084" xlink:href="#m646f51e064" y="306.125128"/>
     <use style="fill:#dbcd00;stroke:#dbcd00;" x="584.251671" xlink:href="#m646f51e064" y="305.921395"/>
     <use style="fill:#dbcd00;stroke:#dbcd00;" x="588.109258" xlink:href="#m646f51e064" y="305.51393"/>
     <use style="fill:#dbcd00;stroke:#dbcd00;" x="599.68202" xlink:href="#m646f51e064" y="305.51393"/>
     <use style="fill:#dbcd00;stroke:#dbcd00;" x="603.539607" xlink:href="#m646f51e064" y="305.51393"/>
     <use style="fill:#dbcd00;stroke:#dbcd00;" x="607.397195" xlink:href="#m646f51e064" y="305.51393"/>
     <use style="fill:#dbcd00;stroke:#dbcd00;" x="611.254782" xlink:href="#m646f51e064" y="305.51393"/>
     <use style="fill:#dbcd00;stroke:#dbcd00;" x="615.112369" xlink:href="#m646f51e064" y="305.310197"/>
     <use style="fill:#dbcd00;stroke:#dbcd00;" x="626.685131" xlink:href="#m646f51e064" y="305.310197"/>
     <use style="fill:#dbcd00;stroke:#dbcd00;" x="630.542718" xlink:href="#m646f51e064" y="305.310197"/>
     <use style="fill:#dbcd00;stroke:#dbcd00;" x="634.400305" xlink:href="#m646f51e064" y="305.310197"/>
     <use style="fill:#dbcd00;stroke:#dbcd00;" x="638.257893" xlink:href="#m646f51e064" y="305.310197"/>
     <use style="fill:#dbcd00;stroke:#dbcd00;" x="642.11548" xlink:href="#m646f51e064" y="305.310197"/>
     <use style="fill:#dbcd00;stroke:#dbcd00;" x="653.688242" xlink:href="#m646f51e064" y="304.698999"/>
     <use style="fill:#dbcd00;stroke:#dbcd00;" x="657.545829" xlink:href="#m646f51e064" y="304.495267"/>
     <use style="fill:#dbcd00;stroke:#dbcd00;" x="661.403416" xlink:href="#m646f51e064" y="304.291534"/>
     <use style="fill:#dbcd00;stroke:#dbcd00;" x="665.261004" xlink:href="#m646f51e064" y="304.291534"/>
     <use style="fill:#dbcd00;stroke:#dbcd00;" x="669.118591" xlink:href="#m646f51e064" y="304.291534"/>
     <use style="fill:#dbcd00;stroke:#dbcd00;" x="680.691353" xlink:href="#m646f51e064" y="303.476604"/>
     <use style="fill:#dbcd00;stroke:#dbcd00;" x="684.54894" xlink:href="#m646f51e064" y="303.476604"/>
     <use style="fill:#dbcd00;stroke:#dbcd00;" x="688.406527" xlink:href="#m646f51e064" y="303.069139"/>
     <use style="fill:#dbcd00;stroke:#dbcd00;" x="692.264115" xlink:href="#m646f51e064" y="303.069139"/>
     <use style="fill:#dbcd00;stroke:#dbcd00;" x="696.121702" xlink:href="#m646f51e064" y="302.865406"/>
     <use style="fill:#dbcd00;stroke:#dbcd00;" x="707.694464" xlink:href="#m646f51e064" y="302.457941"/>
     <use style="fill:#dbcd00;stroke:#dbcd00;" x="711.552051" xlink:href="#m646f51e064" y="301.846743"/>
     <use style="fill:#dbcd00;stroke:#dbcd00;" x="715.409638" xlink:href="#m646f51e064" y="301.846743"/>
     <use style="fill:#dbcd00;stroke:#dbcd00;" x="719.267226" xlink:href="#m646f51e064" y="301.846743"/>
     <use style="fill:#dbcd00;stroke:#dbcd00;" x="723.124813" xlink:href="#m646f51e064" y="301.439278"/>
     <use style="fill:#dbcd00;stroke:#dbcd00;" x="734.697575" xlink:href="#m646f51e064" y="301.439278"/>
     <use style="fill:#dbcd00;stroke:#dbcd00;" x="738.555162" xlink:href="#m646f51e064" y="301.235545"/>
     <use style="fill:#dbcd00;stroke:#dbcd00;" x="742.412749" xlink:href="#m646f51e064" y="300.82808"/>
     <use style="fill:#dbcd00;stroke:#dbcd00;" x="746.270337" xlink:href="#m646f51e064" y="300.624347"/>
     <use style="fill:#dbcd00;stroke:#dbcd00;" x="750.127924" xlink:href="#m646f51e064" y="300.420615"/>
     <use style="fill:#dbcd00;stroke:#dbcd00;" x="761.700686" xlink:href="#m646f51e064" y="300.01315"/>
     <use style="fill:#dbcd00;stroke:#dbcd00;" x="765.558273" xlink:href="#m646f51e064" y="299.605684"/>
     <use style="fill:#dbcd00;stroke:#dbcd00;" x="769.41586" xlink:href="#m646f51e064" y="299.605684"/>
     <use style="fill:#dbcd00;stroke:#dbcd00;" x="773.273448" xlink:href="#m646f51e064" y="299.401952"/>
     <use style="fill:#dbcd00;stroke:#dbcd00;" x="777.131035" xlink:href="#m646f51e064" y="299.198219"/>
     <use style="fill:#dbcd00;stroke:#dbcd00;" x="788.703797" xlink:href="#m646f51e064" y="298.994487"/>
     <use style="fill:#dbcd00;stroke:#dbcd00;" x="792.561384" xlink:href="#m646f51e064" y="298.383289"/>
     <use style="fill:#dbcd00;stroke:#dbcd00;" x="796.418971" xlink:href="#m646f51e064" y="298.179556"/>
     <use style="fill:#dbcd00;stroke:#dbcd00;" x="800.276559" xlink:href="#m646f51e064" y="298.179556"/>
     <use style="fill:#dbcd00;stroke:#dbcd00;" x="804.134146" xlink:href="#m646f51e064" y="297.772091"/>
     <use style="fill:#dbcd00;stroke:#dbcd00;" x="815.706908" xlink:href="#m646f51e064" y="297.160893"/>
     <use style="fill:#dbcd00;stroke:#dbcd00;" x="819.564495" xlink:href="#m646f51e064" y="296.957161"/>
     <use style="fill:#dbcd00;stroke:#dbcd00;" x="823.422082" xlink:href="#m646f51e064" y="296.753428"/>
     <use style="fill:#dbcd00;stroke:#dbcd00;" x="827.279669" xlink:href="#m646f51e064" y="296.345963"/>
     <use style="fill:#dbcd00;stroke:#dbcd00;" x="831.137257" xlink:href="#m646f51e064" y="296.345963"/>
     <use style="fill:#dbcd00;stroke:#dbcd00;" x="842.710019" xlink:href="#m646f51e064" y="296.345963"/>
     <use style="fill:#dbcd00;stroke:#dbcd00;" x="846.567606" xlink:href="#m646f51e064" y="296.14223"/>
     <use style="fill:#dbcd00;stroke:#dbcd00;" x="850.425193" xlink:href="#m646f51e064" y="294.919835"/>
     <use style="fill:#dbcd00;stroke:#dbcd00;" x="854.28278" xlink:href="#m646f51e064" y="294.716102"/>
     <use style="fill:#dbcd00;stroke:#dbcd00;" x="858.140368" xlink:href="#m646f51e064" y="294.512369"/>
     <use style="fill:#dbcd00;stroke:#dbcd00;" x="869.71313" xlink:href="#m646f51e064" y="293.901172"/>
     <use style="fill:#dbcd00;stroke:#dbcd00;" x="873.570717" xlink:href="#m646f51e064" y="291.660113"/>
     <use style="fill:#dbcd00;stroke:#dbcd00;" x="877.428304" xlink:href="#m646f51e064" y="291.660113"/>
     <use style="fill:#dbcd00;stroke:#dbcd00;" x="881.285891" xlink:href="#m646f51e064" y="291.45638"/>
     <use style="fill:#dbcd00;stroke:#dbcd00;" x="885.143479" xlink:href="#m646f51e064" y="291.252648"/>
     <use style="fill:#dbcd00;stroke:#dbcd00;" x="896.71624" xlink:href="#m646f51e064" y="290.233985"/>
     <use style="fill:#dbcd00;stroke:#dbcd00;" x="900.573828" xlink:href="#m646f51e064" y="285.14067"/>
     <use style="fill:#dbcd00;stroke:#dbcd00;" x="927.576939" xlink:href="#m646f51e064" y="272.305516"/>
     <use style="fill:#dbcd00;stroke:#dbcd00;" x="931.434526" xlink:href="#m646f51e064" y="270.064457"/>
     <use style="fill:#dbcd00;stroke:#dbcd00;" x="935.292113" xlink:href="#m646f51e064" y="268.842062"/>
     <use style="fill:#dbcd00;stroke:#dbcd00;" x="939.149701" xlink:href="#m646f51e064" y="268.027131"/>
     <use style="fill:#dbcd00;stroke:#dbcd00;" x="950.722462" xlink:href="#m646f51e064" y="264.156212"/>
     <use style="fill:#dbcd00;stroke:#dbcd00;" x="954.58005" xlink:href="#m646f51e064" y="261.303955"/>
     <use style="fill:#dbcd00;stroke:#dbcd00;" x="958.437637" xlink:href="#m646f51e064" y="260.489025"/>
     <use style="fill:#dbcd00;stroke:#dbcd00;" x="962.295224" xlink:href="#m646f51e064" y="254.988245"/>
     <use style="fill:#dbcd00;stroke:#dbcd00;" x="966.152812" xlink:href="#m646f51e064" y="256.618106"/>
     <use style="fill:#dbcd00;stroke:#dbcd00;" x="977.725573" xlink:href="#m646f51e064" y="236.244845"/>
     <use style="fill:#dbcd00;stroke:#dbcd00;" x="981.583161" xlink:href="#m646f51e064" y="236.244845"/>
     <use style="fill:#dbcd00;stroke:#dbcd00;" x="985.440748" xlink:href="#m646f51e064" y="236.244845"/>
     <use style="fill:#dbcd00;stroke:#dbcd00;" x="989.298335" xlink:href="#m646f51e064" y="236.244845"/>
     <use style="fill:#dbcd00;stroke:#dbcd00;" x="993.155922" xlink:href="#m646f51e064" y="236.244845"/>
     <use style="fill:#dbcd00;stroke:#dbcd00;" x="1004.728684" xlink:href="#m646f51e064" y="215.871585"/>
     <use style="fill:#dbcd00;stroke:#dbcd00;" x="1012.443859" xlink:href="#m646f51e064" y="215.871585"/>
     <use style="fill:#dbcd00;stroke:#dbcd00;" x="1016.301446" xlink:href="#m646f51e064" y="195.498325"/>
     <use style="fill:#dbcd00;stroke:#dbcd00;" x="1020.159033" xlink:href="#m646f51e064" y="195.498325"/>
     <use style="fill:#dbcd00;stroke:#dbcd00;" x="1031.731795" xlink:href="#m646f51e064" y="195.498325"/>
     <use style="fill:#dbcd00;stroke:#dbcd00;" x="1035.589383" xlink:href="#m646f51e064" y="175.125065"/>
     <use style="fill:#dbcd00;stroke:#dbcd00;" x="1039.44697" xlink:href="#m646f51e064" y="175.125065"/>
     <use style="fill:#dbcd00;stroke:#dbcd00;" x="1043.304557" xlink:href="#m646f51e064" y="175.125065"/>
     <use style="fill:#dbcd00;stroke:#dbcd00;" x="1047.162144" xlink:href="#m646f51e064" y="175.125065"/>
     <use style="fill:#dbcd00;stroke:#dbcd00;" x="1058.734906" xlink:href="#m646f51e064" y="154.751805"/>
     <use style="fill:#dbcd00;stroke:#dbcd00;" x="1062.592494" xlink:href="#m646f51e064" y="154.751805"/>
     <use style="fill:#dbcd00;stroke:#dbcd00;" x="1070.307668" xlink:href="#m646f51e064" y="134.378545"/>
     <use style="fill:#dbcd00;stroke:#dbcd00;" x="1074.165255" xlink:href="#m646f51e064" y="134.378545"/>
     <use style="fill:#dbcd00;stroke:#dbcd00;" x="1085.738017" xlink:href="#m646f51e064" y="114.005285"/>
     <use style="fill:#dbcd00;stroke:#dbcd00;" x="1097.310779" xlink:href="#m646f51e064" y="114.005285"/>
     <use style="fill:#dbcd00;stroke:#dbcd00;" x="1101.168366" xlink:href="#m646f51e064" y="93.632025"/>
     <use style="fill:#dbcd00;stroke:#dbcd00;" x="1112.741128" xlink:href="#m646f51e064" y="93.632025"/>
     <use style="fill:#dbcd00;stroke:#dbcd00;" x="1116.598715" xlink:href="#m646f51e064" y="73.258765"/>
     <use style="fill:#dbcd00;stroke:#dbcd00;" x="1120.456303" xlink:href="#m646f51e064" y="73.258765"/>
     <use style="fill:#dbcd00;stroke:#dbcd00;" x="1124.31389" xlink:href="#m646f51e064" y="73.258765"/>
     <use style="fill:#dbcd00;stroke:#dbcd00;" x="1128.171477" xlink:href="#m646f51e064" y="73.258765"/>
    </g>
   </g>
   <g id="line2d_59">
    <path clip-path="url(#p528293ca67)" d="M 113.626023 451.182739 
L 117.48361 448.534216 
L 125.198785 438.347586 
L 132.913959 430.605747 
L 136.771546 428.568421 
L 140.629134 428.975886 
L 144.486721 428.772153 
L 148.344308 427.346025 
L 152.201896 428.160956 
L 156.059483 431.420677 
L 159.91707 429.994549 
L 163.774657 428.975886 
L 167.632245 428.364688 
L 171.489832 433.458003 
L 175.347419 435.087864 
L 179.205006 436.513992 
L 183.062594 435.087864 
L 190.777768 434.476666 
L 198.492943 440.181179 
L 202.35053 440.181179 
L 206.208117 453.831263 
L 210.065705 451.99767 
L 213.923292 454.646194 
L 221.638467 455.461124 
L 225.496054 456.68352 
L 229.353641 461.573102 
L 233.211228 461.980567 
L 237.068816 462.591765 
L 240.926403 466.462685 
L 248.641578 467.073882 
L 252.499165 465.444022 
L 256.356752 467.481348 
L 260.214339 468.703743 
L 267.929514 466.258952 
L 275.644688 461.573102 
L 279.502276 460.758172 
L 283.359863 455.461124 
L 287.21745 455.868589 
L 291.075038 448.534216 
L 294.932625 437.532655 
L 302.647799 424.901234 
L 306.505387 419.807919 
L 310.362974 416.344465 
L 314.220561 414.307139 
L 318.078149 416.548197 
L 321.935736 415.936999 
L 329.65091 418.789256 
L 333.508498 419.604186 
L 337.366085 419.604186 
L 345.08126 419.807919 
L 348.938847 417.974325 
L 356.654021 417.363128 
L 360.511609 452.405135 
L 368.226783 469.314941 
L 372.08437 470.333604 
L 387.51472 470.944802 
L 391.372307 475.223186 
L 395.229894 475.834384 
L 399.087481 478.686641 
L 402.945069 479.705304 
L 410.660243 479.705304 
L 414.517831 479.297838 
L 418.375418 479.501571 
L 437.663354 479.094106 
L 445.378529 480.112769 
L 456.951291 479.705304 
L 483.954402 480.316501 
L 491.669576 480.316501 
L 495.527163 480.520234 
L 499.384751 480.520234 
L 503.242338 481.131432 
L 507.099925 480.927699 
L 510.957513 480.316501 
L 522.530274 479.909036 
L 530.245449 479.909036 
L 534.103036 479.501571 
L 549.533385 479.501571 
L 553.390973 479.909036 
L 557.24856 479.909036 
L 561.106147 480.316501 
L 576.536496 480.112769 
L 580.394084 480.723967 
L 584.251671 480.927699 
L 588.109258 481.335164 
L 599.68202 481.131432 
L 607.397195 480.723967 
L 611.254782 480.112769 
L 615.112369 479.909036 
L 630.542718 479.909036 
L 634.400305 479.705304 
L 642.11548 479.705304 
L 653.688242 480.112769 
L 657.545829 479.501571 
L 665.261004 479.501571 
L 669.118591 478.890373 
L 680.691353 479.501571 
L 684.54894 479.297838 
L 688.406527 479.705304 
L 692.264115 479.501571 
L 696.121702 479.705304 
L 711.552051 479.705304 
L 715.409638 479.501571 
L 719.267226 479.501571 
L 723.124813 479.705304 
L 734.697575 479.297838 
L 750.127924 480.112769 
L 761.700686 479.705304 
L 765.558273 480.112769 
L 769.41586 478.890373 
L 777.131035 479.297838 
L 788.703797 479.094106 
L 792.561384 478.686641 
L 800.276559 478.686641 
L 804.134146 478.890373 
L 815.706908 478.890373 
L 819.564495 478.686641 
L 823.422082 477.667978 
L 827.279669 477.87171 
L 831.137257 477.87171 
L 846.567606 476.241849 
L 850.425193 477.464245 
L 854.28278 476.241849 
L 858.140368 473.18586 
L 869.71313 471.963465 
L 873.570717 470.333604 
L 877.428304 468.500011 
L 881.285891 467.073882 
L 885.143479 463.202963 
L 896.71624 462.795498 
L 900.573828 464.017893 
L 927.576939 461.776835 
L 931.434526 462.795498 
L 935.292113 457.090985 
L 939.149701 450.571542 
L 950.722462 450.571542 
L 954.58005 445.478227 
L 958.437637 444.052098 
L 962.295224 445.885692 
L 966.152812 432.235608 
L 977.725573 446.49689 
L 981.583161 432.235608 
L 985.440748 426.12363 
L 993.155922 412.88101 
L 1004.728684 431.216945 
L 1012.443859 413.084743 
L 1016.301446 429.994549 
L 1020.159033 429.587084 
L 1031.731795 413.084743 
L 1035.589383 429.587084 
L 1039.44697 424.493769 
L 1043.304557 421.43778 
L 1047.162144 418.178058 
L 1058.734906 427.75349 
L 1062.592494 421.43778 
L 1070.307668 427.75349 
L 1074.165255 423.678838 
L 1085.738017 433.661736 
L 1097.310779 423.271373 
L 1101.168366 427.142293 
L 1112.741128 423.678838 
L 1116.598715 436.717725 
L 1120.456303 433.254271 
L 1124.31389 428.568421 
L 1128.171477 418.992988 
L 1128.171477 418.992988 
" style="fill:none;stroke:#2792cb;stroke-linecap:square;stroke-width:2;"/>
    <defs>
     <path d="M 0 1.5 
C 0.397805 1.5 0.77937 1.341951 1.06066 1.06066 
C 1.341951 0.77937 1.5 0.397805 1.5 0 
C 1.5 -0.397805 1.341951 -0.77937 1.06066 -1.06066 
C 0.77937 -1.341951 0.397805 -1.5 0 -1.5 
C -0.397805 -1.5 -0.77937 -1.341951 -1.06066 -1.06066 
C -1.341951 -0.77937 -1.5 -0.397805 -1.5 0 
C -1.5 0.397805 -1.341951 0.77937 -1.06066 1.06066 
C -0.77937 1.341951 -0.397805 1.5 0 1.5 
z
" id="m5eab6cedcd" style="stroke:#2792cb;"/>
    </defs>
    <g clip-path="url(#p528293ca67)">
     <use style="fill:#2792cb;stroke:#2792cb;" x="113.626023" xlink:href="#m5eab6cedcd" y="451.182739"/>
     <use style="fill:#2792cb;stroke:#2792cb;" x="117.48361" xlink:href="#m5eab6cedcd" y="448.534216"/>
     <use style="fill:#2792cb;stroke:#2792cb;" x="121.341197" xlink:href="#m5eab6cedcd" y="443.440901"/>
     <use style="fill:#2792cb;stroke:#2792cb;" x="125.198785" xlink:href="#m5eab6cedcd" y="438.347586"/>
     <use style="fill:#2792cb;stroke:#2792cb;" x="129.056372" xlink:href="#m5eab6cedcd" y="434.476666"/>
     <use style="fill:#2792cb;stroke:#2792cb;" x="132.913959" xlink:href="#m5eab6cedcd" y="430.605747"/>
     <use style="fill:#2792cb;stroke:#2792cb;" x="136.771546" xlink:href="#m5eab6cedcd" y="428.568421"/>
     <use style="fill:#2792cb;stroke:#2792cb;" x="140.629134" xlink:href="#m5eab6cedcd" y="428.975886"/>
     <use style="fill:#2792cb;stroke:#2792cb;" x="144.486721" xlink:href="#m5eab6cedcd" y="428.772153"/>
     <use style="fill:#2792cb;stroke:#2792cb;" x="148.344308" xlink:href="#m5eab6cedcd" y="427.346025"/>
     <use style="fill:#2792cb;stroke:#2792cb;" x="152.201896" xlink:href="#m5eab6cedcd" y="428.160956"/>
     <use style="fill:#2792cb;stroke:#2792cb;" x="156.059483" xlink:href="#m5eab6cedcd" y="431.420677"/>
     <use style="fill:#2792cb;stroke:#2792cb;" x="159.91707" xlink:href="#m5eab6cedcd" y="429.994549"/>
     <use style="fill:#2792cb;stroke:#2792cb;" x="163.774657" xlink:href="#m5eab6cedcd" y="428.975886"/>
     <use style="fill:#2792cb;stroke:#2792cb;" x="167.632245" xlink:href="#m5eab6cedcd" y="428.364688"/>
     <use style="fill:#2792cb;stroke:#2792cb;" x="171.489832" xlink:href="#m5eab6cedcd" y="433.458003"/>
     <use style="fill:#2792cb;stroke:#2792cb;" x="175.347419" xlink:href="#m5eab6cedcd" y="435.087864"/>
     <use style="fill:#2792cb;stroke:#2792cb;" x="179.205006" xlink:href="#m5eab6cedcd" y="436.513992"/>
     <use style="fill:#2792cb;stroke:#2792cb;" x="183.062594" xlink:href="#m5eab6cedcd" y="435.087864"/>
     <use style="fill:#2792cb;stroke:#2792cb;" x="190.777768" xlink:href="#m5eab6cedcd" y="434.476666"/>
     <use style="fill:#2792cb;stroke:#2792cb;" x="198.492943" xlink:href="#m5eab6cedcd" y="440.181179"/>
     <use style="fill:#2792cb;stroke:#2792cb;" x="202.35053" xlink:href="#m5eab6cedcd" y="440.181179"/>
     <use style="fill:#2792cb;stroke:#2792cb;" x="206.208117" xlink:href="#m5eab6cedcd" y="453.831263"/>
     <use style="fill:#2792cb;stroke:#2792cb;" x="210.065705" xlink:href="#m5eab6cedcd" y="451.99767"/>
     <use style="fill:#2792cb;stroke:#2792cb;" x="213.923292" xlink:href="#m5eab6cedcd" y="454.646194"/>
     <use style="fill:#2792cb;stroke:#2792cb;" x="221.638467" xlink:href="#m5eab6cedcd" y="455.461124"/>
     <use style="fill:#2792cb;stroke:#2792cb;" x="225.496054" xlink:href="#m5eab6cedcd" y="456.68352"/>
     <use style="fill:#2792cb;stroke:#2792cb;" x="229.353641" xlink:href="#m5eab6cedcd" y="461.573102"/>
     <use style="fill:#2792cb;stroke:#2792cb;" x="233.211228" xlink:href="#m5eab6cedcd" y="461.980567"/>
     <use style="fill:#2792cb;stroke:#2792cb;" x="237.068816" xlink:href="#m5eab6cedcd" y="462.591765"/>
     <use style="fill:#2792cb;stroke:#2792cb;" x="240.926403" xlink:href="#m5eab6cedcd" y="466.462685"/>
     <use style="fill:#2792cb;stroke:#2792cb;" x="248.641578" xlink:href="#m5eab6cedcd" y="467.073882"/>
     <use style="fill:#2792cb;stroke:#2792cb;" x="252.499165" xlink:href="#m5eab6cedcd" y="465.444022"/>
     <use style="fill:#2792cb;stroke:#2792cb;" x="256.356752" xlink:href="#m5eab6cedcd" y="467.481348"/>
     <use style="fill:#2792cb;stroke:#2792cb;" x="260.214339" xlink:href="#m5eab6cedcd" y="468.703743"/>
     <use style="fill:#2792cb;stroke:#2792cb;" x="267.929514" xlink:href="#m5eab6cedcd" y="466.258952"/>
     <use style="fill:#2792cb;stroke:#2792cb;" x="275.644688" xlink:href="#m5eab6cedcd" y="461.573102"/>
     <use style="fill:#2792cb;stroke:#2792cb;" x="279.502276" xlink:href="#m5eab6cedcd" y="460.758172"/>
     <use style="fill:#2792cb;stroke:#2792cb;" x="283.359863" xlink:href="#m5eab6cedcd" y="455.461124"/>
     <use style="fill:#2792cb;stroke:#2792cb;" x="287.21745" xlink:href="#m5eab6cedcd" y="455.868589"/>
     <use style="fill:#2792cb;stroke:#2792cb;" x="291.075038" xlink:href="#m5eab6cedcd" y="448.534216"/>
     <use style="fill:#2792cb;stroke:#2792cb;" x="294.932625" xlink:href="#m5eab6cedcd" y="437.532655"/>
     <use style="fill:#2792cb;stroke:#2792cb;" x="302.647799" xlink:href="#m5eab6cedcd" y="424.901234"/>
     <use style="fill:#2792cb;stroke:#2792cb;" x="306.505387" xlink:href="#m5eab6cedcd" y="419.807919"/>
     <use style="fill:#2792cb;stroke:#2792cb;" x="310.362974" xlink:href="#m5eab6cedcd" y="416.344465"/>
     <use style="fill:#2792cb;stroke:#2792cb;" x="314.220561" xlink:href="#m5eab6cedcd" y="414.307139"/>
     <use style="fill:#2792cb;stroke:#2792cb;" x="318.078149" xlink:href="#m5eab6cedcd" y="416.548197"/>
     <use style="fill:#2792cb;stroke:#2792cb;" x="321.935736" xlink:href="#m5eab6cedcd" y="415.936999"/>
     <use style="fill:#2792cb;stroke:#2792cb;" x="329.65091" xlink:href="#m5eab6cedcd" y="418.789256"/>
     <use style="fill:#2792cb;stroke:#2792cb;" x="333.508498" xlink:href="#m5eab6cedcd" y="419.604186"/>
     <use style="fill:#2792cb;stroke:#2792cb;" x="337.366085" xlink:href="#m5eab6cedcd" y="419.604186"/>
     <use style="fill:#2792cb;stroke:#2792cb;" x="345.08126" xlink:href="#m5eab6cedcd" y="419.807919"/>
     <use style="fill:#2792cb;stroke:#2792cb;" x="348.938847" xlink:href="#m5eab6cedcd" y="417.974325"/>
     <use style="fill:#2792cb;stroke:#2792cb;" x="356.654021" xlink:href="#m5eab6cedcd" y="417.363128"/>
     <use style="fill:#2792cb;stroke:#2792cb;" x="360.511609" xlink:href="#m5eab6cedcd" y="452.405135"/>
     <use style="fill:#2792cb;stroke:#2792cb;" x="368.226783" xlink:href="#m5eab6cedcd" y="469.314941"/>
     <use style="fill:#2792cb;stroke:#2792cb;" x="372.08437" xlink:href="#m5eab6cedcd" y="470.333604"/>
     <use style="fill:#2792cb;stroke:#2792cb;" x="387.51472" xlink:href="#m5eab6cedcd" y="470.944802"/>
     <use style="fill:#2792cb;stroke:#2792cb;" x="391.372307" xlink:href="#m5eab6cedcd" y="475.223186"/>
     <use style="fill:#2792cb;stroke:#2792cb;" x="395.229894" xlink:href="#m5eab6cedcd" y="475.834384"/>
     <use style="fill:#2792cb;stroke:#2792cb;" x="399.087481" xlink:href="#m5eab6cedcd" y="478.686641"/>
     <use style="fill:#2792cb;stroke:#2792cb;" x="402.945069" xlink:href="#m5eab6cedcd" y="479.705304"/>
     <use style="fill:#2792cb;stroke:#2792cb;" x="410.660243" xlink:href="#m5eab6cedcd" y="479.705304"/>
     <use style="fill:#2792cb;stroke:#2792cb;" x="414.517831" xlink:href="#m5eab6cedcd" y="479.297838"/>
     <use style="fill:#2792cb;stroke:#2792cb;" x="418.375418" xlink:href="#m5eab6cedcd" y="479.501571"/>
     <use style="fill:#2792cb;stroke:#2792cb;" x="426.090592" xlink:href="#m5eab6cedcd" y="479.297838"/>
     <use style="fill:#2792cb;stroke:#2792cb;" x="429.94818" xlink:href="#m5eab6cedcd" y="479.094106"/>
     <use style="fill:#2792cb;stroke:#2792cb;" x="437.663354" xlink:href="#m5eab6cedcd" y="479.094106"/>
     <use style="fill:#2792cb;stroke:#2792cb;" x="445.378529" xlink:href="#m5eab6cedcd" y="480.112769"/>
     <use style="fill:#2792cb;stroke:#2792cb;" x="453.093703" xlink:href="#m5eab6cedcd" y="479.909036"/>
     <use style="fill:#2792cb;stroke:#2792cb;" x="456.951291" xlink:href="#m5eab6cedcd" y="479.705304"/>
     <use style="fill:#2792cb;stroke:#2792cb;" x="464.666465" xlink:href="#m5eab6cedcd" y="479.909036"/>
     <use style="fill:#2792cb;stroke:#2792cb;" x="468.524052" xlink:href="#m5eab6cedcd" y="479.909036"/>
     <use style="fill:#2792cb;stroke:#2792cb;" x="472.38164" xlink:href="#m5eab6cedcd" y="480.112769"/>
     <use style="fill:#2792cb;stroke:#2792cb;" x="476.239227" xlink:href="#m5eab6cedcd" y="480.112769"/>
     <use style="fill:#2792cb;stroke:#2792cb;" x="483.954402" xlink:href="#m5eab6cedcd" y="480.316501"/>
     <use style="fill:#2792cb;stroke:#2792cb;" x="491.669576" xlink:href="#m5eab6cedcd" y="480.316501"/>
     <use style="fill:#2792cb;stroke:#2792cb;" x="495.527163" xlink:href="#m5eab6cedcd" y="480.520234"/>
     <use style="fill:#2792cb;stroke:#2792cb;" x="499.384751" xlink:href="#m5eab6cedcd" y="480.520234"/>
     <use style="fill:#2792cb;stroke:#2792cb;" x="503.242338" xlink:href="#m5eab6cedcd" y="481.131432"/>
     <use style="fill:#2792cb;stroke:#2792cb;" x="507.099925" xlink:href="#m5eab6cedcd" y="480.927699"/>
     <use style="fill:#2792cb;stroke:#2792cb;" x="510.957513" xlink:href="#m5eab6cedcd" y="480.316501"/>
     <use style="fill:#2792cb;stroke:#2792cb;" x="522.530274" xlink:href="#m5eab6cedcd" y="479.909036"/>
     <use style="fill:#2792cb;stroke:#2792cb;" x="526.387862" xlink:href="#m5eab6cedcd" y="479.909036"/>
     <use style="fill:#2792cb;stroke:#2792cb;" x="530.245449" xlink:href="#m5eab6cedcd" y="479.909036"/>
     <use style="fill:#2792cb;stroke:#2792cb;" x="534.103036" xlink:href="#m5eab6cedcd" y="479.501571"/>
     <use style="fill:#2792cb;stroke:#2792cb;" x="545.675798" xlink:href="#m5eab6cedcd" y="479.501571"/>
     <use style="fill:#2792cb;stroke:#2792cb;" x="549.533385" xlink:href="#m5eab6cedcd" y="479.501571"/>
     <use style="fill:#2792cb;stroke:#2792cb;" x="553.390973" xlink:href="#m5eab6cedcd" y="479.909036"/>
     <use style="fill:#2792cb;stroke:#2792cb;" x="557.24856" xlink:href="#m5eab6cedcd" y="479.909036"/>
     <use style="fill:#2792cb;stroke:#2792cb;" x="561.106147" xlink:href="#m5eab6cedcd" y="480.316501"/>
     <use style="fill:#2792cb;stroke:#2792cb;" x="572.678909" xlink:href="#m5eab6cedcd" y="480.112769"/>
     <use style="fill:#2792cb;stroke:#2792cb;" x="576.536496" xlink:href="#m5eab6cedcd" y="480.112769"/>
     <use style="fill:#2792cb;stroke:#2792cb;" x="580.394084" xlink:href="#m5eab6cedcd" y="480.723967"/>
     <use style="fill:#2792cb;stroke:#2792cb;" x="584.251671" xlink:href="#m5eab6cedcd" y="480.927699"/>
     <use style="fill:#2792cb;stroke:#2792cb;" x="588.109258" xlink:href="#m5eab6cedcd" y="481.335164"/>
     <use style="fill:#2792cb;stroke:#2792cb;" x="599.68202" xlink:href="#m5eab6cedcd" y="481.131432"/>
     <use style="fill:#2792cb;stroke:#2792cb;" x="603.539607" xlink:href="#m5eab6cedcd" y="480.927699"/>
     <use style="fill:#2792cb;stroke:#2792cb;" x="607.397195" xlink:href="#m5eab6cedcd" y="480.723967"/>
     <use style="fill:#2792cb;stroke:#2792cb;" x="611.254782" xlink:href="#m5eab6cedcd" y="480.112769"/>
     <use style="fill:#2792cb;stroke:#2792cb;" x="615.112369" xlink:href="#m5eab6cedcd" y="479.909036"/>
     <use style="fill:#2792cb;stroke:#2792cb;" x="626.685131" xlink:href="#m5eab6cedcd" y="479.909036"/>
     <use style="fill:#2792cb;stroke:#2792cb;" x="630.542718" xlink:href="#m5eab6cedcd" y="479.909036"/>
     <use style="fill:#2792cb;stroke:#2792cb;" x="634.400305" xlink:href="#m5eab6cedcd" y="479.705304"/>
     <use style="fill:#2792cb;stroke:#2792cb;" x="638.257893" xlink:href="#m5eab6cedcd" y="479.705304"/>
     <use style="fill:#2792cb;stroke:#2792cb;" x="642.11548" xlink:href="#m5eab6cedcd" y="479.705304"/>
     <use style="fill:#2792cb;stroke:#2792cb;" x="653.688242" xlink:href="#m5eab6cedcd" y="480.112769"/>
     <use style="fill:#2792cb;stroke:#2792cb;" x="657.545829" xlink:href="#m5eab6cedcd" y="479.501571"/>
     <use style="fill:#2792cb;stroke:#2792cb;" x="661.403416" xlink:href="#m5eab6cedcd" y="479.501571"/>
     <use style="fill:#2792cb;stroke:#2792cb;" x="665.261004" xlink:href="#m5eab6cedcd" y="479.501571"/>
     <use style="fill:#2792cb;stroke:#2792cb;" x="669.118591" xlink:href="#m5eab6cedcd" y="478.890373"/>
     <use style="fill:#2792cb;stroke:#2792cb;" x="680.691353" xlink:href="#m5eab6cedcd" y="479.501571"/>
     <use style="fill:#2792cb;stroke:#2792cb;" x="684.54894" xlink:href="#m5eab6cedcd" y="479.297838"/>
     <use style="fill:#2792cb;stroke:#2792cb;" x="688.406527" xlink:href="#m5eab6cedcd" y="479.705304"/>
     <use style="fill:#2792cb;stroke:#2792cb;" x="692.264115" xlink:href="#m5eab6cedcd" y="479.501571"/>
     <use style="fill:#2792cb;stroke:#2792cb;" x="696.121702" xlink:href="#m5eab6cedcd" y="479.705304"/>
     <use style="fill:#2792cb;stroke:#2792cb;" x="707.694464" xlink:href="#m5eab6cedcd" y="479.705304"/>
     <use style="fill:#2792cb;stroke:#2792cb;" x="711.552051" xlink:href="#m5eab6cedcd" y="479.705304"/>
     <use style="fill:#2792cb;stroke:#2792cb;" x="715.409638" xlink:href="#m5eab6cedcd" y="479.501571"/>
     <use style="fill:#2792cb;stroke:#2792cb;" x="719.267226" xlink:href="#m5eab6cedcd" y="479.501571"/>
     <use style="fill:#2792cb;stroke:#2792cb;" x="723.124813" xlink:href="#m5eab6cedcd" y="479.705304"/>
     <use style="fill:#2792cb;stroke:#2792cb;" x="734.697575" xlink:href="#m5eab6cedcd" y="479.297838"/>
     <use style="fill:#2792cb;stroke:#2792cb;" x="738.555162" xlink:href="#m5eab6cedcd" y="479.501571"/>
     <use style="fill:#2792cb;stroke:#2792cb;" x="742.412749" xlink:href="#m5eab6cedcd" y="479.705304"/>
     <use style="fill:#2792cb;stroke:#2792cb;" x="746.270337" xlink:href="#m5eab6cedcd" y="479.909036"/>
     <use style="fill:#2792cb;stroke:#2792cb;" x="750.127924" xlink:href="#m5eab6cedcd" y="480.112769"/>
     <use style="fill:#2792cb;stroke:#2792cb;" x="761.700686" xlink:href="#m5eab6cedcd" y="479.705304"/>
     <use style="fill:#2792cb;stroke:#2792cb;" x="765.558273" xlink:href="#m5eab6cedcd" y="480.112769"/>
     <use style="fill:#2792cb;stroke:#2792cb;" x="769.41586" xlink:href="#m5eab6cedcd" y="478.890373"/>
     <use style="fill:#2792cb;stroke:#2792cb;" x="773.273448" xlink:href="#m5eab6cedcd" y="479.094106"/>
     <use style="fill:#2792cb;stroke:#2792cb;" x="777.131035" xlink:href="#m5eab6cedcd" y="479.297838"/>
     <use style="fill:#2792cb;stroke:#2792cb;" x="788.703797" xlink:href="#m5eab6cedcd" y="479.094106"/>
     <use style="fill:#2792cb;stroke:#2792cb;" x="792.561384" xlink:href="#m5eab6cedcd" y="478.686641"/>
     <use style="fill:#2792cb;stroke:#2792cb;" x="796.418971" xlink:href="#m5eab6cedcd" y="478.686641"/>
     <use style="fill:#2792cb;stroke:#2792cb;" x="800.276559" xlink:href="#m5eab6cedcd" y="478.686641"/>
     <use style="fill:#2792cb;stroke:#2792cb;" x="804.134146" xlink:href="#m5eab6cedcd" y="478.890373"/>
     <use style="fill:#2792cb;stroke:#2792cb;" x="815.706908" xlink:href="#m5eab6cedcd" y="478.890373"/>
     <use style="fill:#2792cb;stroke:#2792cb;" x="819.564495" xlink:href="#m5eab6cedcd" y="478.686641"/>
     <use style="fill:#2792cb;stroke:#2792cb;" x="823.422082" xlink:href="#m5eab6cedcd" y="477.667978"/>
     <use style="fill:#2792cb;stroke:#2792cb;" x="827.279669" xlink:href="#m5eab6cedcd" y="477.87171"/>
     <use style="fill:#2792cb;stroke:#2792cb;" x="831.137257" xlink:href="#m5eab6cedcd" y="477.87171"/>
     <use style="fill:#2792cb;stroke:#2792cb;" x="842.710019" xlink:href="#m5eab6cedcd" y="476.649315"/>
     <use style="fill:#2792cb;stroke:#2792cb;" x="846.567606" xlink:href="#m5eab6cedcd" y="476.241849"/>
     <use style="fill:#2792cb;stroke:#2792cb;" x="850.425193" xlink:href="#m5eab6cedcd" y="477.464245"/>
     <use style="fill:#2792cb;stroke:#2792cb;" x="854.28278" xlink:href="#m5eab6cedcd" y="476.241849"/>
     <use style="fill:#2792cb;stroke:#2792cb;" x="858.140368" xlink:href="#m5eab6cedcd" y="473.18586"/>
     <use style="fill:#2792cb;stroke:#2792cb;" x="869.71313" xlink:href="#m5eab6cedcd" y="471.963465"/>
     <use style="fill:#2792cb;stroke:#2792cb;" x="873.570717" xlink:href="#m5eab6cedcd" y="470.333604"/>
     <use style="fill:#2792cb;stroke:#2792cb;" x="877.428304" xlink:href="#m5eab6cedcd" y="468.500011"/>
     <use style="fill:#2792cb;stroke:#2792cb;" x="881.285891" xlink:href="#m5eab6cedcd" y="467.073882"/>
     <use style="fill:#2792cb;stroke:#2792cb;" x="885.143479" xlink:href="#m5eab6cedcd" y="463.202963"/>
     <use style="fill:#2792cb;stroke:#2792cb;" x="896.71624" xlink:href="#m5eab6cedcd" y="462.795498"/>
     <use style="fill:#2792cb;stroke:#2792cb;" x="900.573828" xlink:href="#m5eab6cedcd" y="464.017893"/>
     <use style="fill:#2792cb;stroke:#2792cb;" x="927.576939" xlink:href="#m5eab6cedcd" y="461.776835"/>
     <use style="fill:#2792cb;stroke:#2792cb;" x="931.434526" xlink:href="#m5eab6cedcd" y="462.795498"/>
     <use style="fill:#2792cb;stroke:#2792cb;" x="935.292113" xlink:href="#m5eab6cedcd" y="457.090985"/>
     <use style="fill:#2792cb;stroke:#2792cb;" x="939.149701" xlink:href="#m5eab6cedcd" y="450.571542"/>
     <use style="fill:#2792cb;stroke:#2792cb;" x="950.722462" xlink:href="#m5eab6cedcd" y="450.571542"/>
     <use style="fill:#2792cb;stroke:#2792cb;" x="954.58005" xlink:href="#m5eab6cedcd" y="445.478227"/>
     <use style="fill:#2792cb;stroke:#2792cb;" x="958.437637" xlink:href="#m5eab6cedcd" y="444.052098"/>
     <use style="fill:#2792cb;stroke:#2792cb;" x="962.295224" xlink:href="#m5eab6cedcd" y="445.885692"/>
     <use style="fill:#2792cb;stroke:#2792cb;" x="966.152812" xlink:href="#m5eab6cedcd" y="432.235608"/>
     <use style="fill:#2792cb;stroke:#2792cb;" x="977.725573" xlink:href="#m5eab6cedcd" y="446.49689"/>
     <use style="fill:#2792cb;stroke:#2792cb;" x="981.583161" xlink:href="#m5eab6cedcd" y="432.235608"/>
     <use style="fill:#2792cb;stroke:#2792cb;" x="985.440748" xlink:href="#m5eab6cedcd" y="426.12363"/>
     <use style="fill:#2792cb;stroke:#2792cb;" x="989.298335" xlink:href="#m5eab6cedcd" y="419.604186"/>
     <use style="fill:#2792cb;stroke:#2792cb;" x="993.155922" xlink:href="#m5eab6cedcd" y="412.88101"/>
     <use style="fill:#2792cb;stroke:#2792cb;" x="1004.728684" xlink:href="#m5eab6cedcd" y="431.216945"/>
     <use style="fill:#2792cb;stroke:#2792cb;" x="1012.443859" xlink:href="#m5eab6cedcd" y="413.084743"/>
     <use style="fill:#2792cb;stroke:#2792cb;" x="1016.301446" xlink:href="#m5eab6cedcd" y="429.994549"/>
     <use style="fill:#2792cb;stroke:#2792cb;" x="1020.159033" xlink:href="#m5eab6cedcd" y="429.587084"/>
     <use style="fill:#2792cb;stroke:#2792cb;" x="1031.731795" xlink:href="#m5eab6cedcd" y="413.084743"/>
     <use style="fill:#2792cb;stroke:#2792cb;" x="1035.589383" xlink:href="#m5eab6cedcd" y="429.587084"/>
     <use style="fill:#2792cb;stroke:#2792cb;" x="1039.44697" xlink:href="#m5eab6cedcd" y="424.493769"/>
     <use style="fill:#2792cb;stroke:#2792cb;" x="1043.304557" xlink:href="#m5eab6cedcd" y="421.43778"/>
     <use style="fill:#2792cb;stroke:#2792cb;" x="1047.162144" xlink:href="#m5eab6cedcd" y="418.178058"/>
     <use style="fill:#2792cb;stroke:#2792cb;" x="1058.734906" xlink:href="#m5eab6cedcd" y="427.75349"/>
     <use style="fill:#2792cb;stroke:#2792cb;" x="1062.592494" xlink:href="#m5eab6cedcd" y="421.43778"/>
     <use style="fill:#2792cb;stroke:#2792cb;" x="1070.307668" xlink:href="#m5eab6cedcd" y="427.75349"/>
     <use style="fill:#2792cb;stroke:#2792cb;" x="1074.165255" xlink:href="#m5eab6cedcd" y="423.678838"/>
     <use style="fill:#2792cb;stroke:#2792cb;" x="1085.738017" xlink:href="#m5eab6cedcd" y="433.661736"/>
     <use style="fill:#2792cb;stroke:#2792cb;" x="1097.310779" xlink:href="#m5eab6cedcd" y="423.271373"/>
     <use style="fill:#2792cb;stroke:#2792cb;" x="1101.168366" xlink:href="#m5eab6cedcd" y="427.142293"/>
     <use style="fill:#2792cb;stroke:#2792cb;" x="1112.741128" xlink:href="#m5eab6cedcd" y="423.678838"/>
     <use style="fill:#2792cb;stroke:#2792cb;" x="1116.598715" xlink:href="#m5eab6cedcd" y="436.717725"/>
     <use style="fill:#2792cb;stroke:#2792cb;" x="1120.456303" xlink:href="#m5eab6cedcd" y="433.254271"/>
     <use style="fill:#2792cb;stroke:#2792cb;" x="1124.31389" xlink:href="#m5eab6cedcd" y="428.568421"/>
     <use style="fill:#2792cb;stroke:#2792cb;" x="1128.171477" xlink:href="#m5eab6cedcd" y="418.992988"/>
    </g>
   </g>
   <g id="patch_3">
    <path d="M 62.89875 501.738984 
L 1178.89875 501.738984 
" style="fill:none;stroke:#000000;stroke-linecap:square;stroke-linejoin:miter;stroke-width:0.8;"/>
   </g>
   <g id="legend_1">
    <g id="line2d_60">
     <path d="M 1091.653438 25.237422 
L 1111.653438 25.237422 
" style="fill:none;stroke:#dbcd00;stroke-linecap:square;stroke-width:2;"/>
    </g>
    <g id="line2d_61">
     <g>
      <use style="fill:#dbcd00;stroke:#dbcd00;" x="1101.653438" xlink:href="#m646f51e064" y="25.237422"/>
     </g>
    </g>
    <g id="text_35">
     <!-- Genesene -->
     <defs>
      <path d="M 59.515625 10.40625 
L 59.515625 29.984375 
L 43.40625 29.984375 
L 43.40625 38.09375 
L 69.28125 38.09375 
L 69.28125 6.78125 
Q 63.578125 2.734375 56.6875 0.65625 
Q 49.8125 -1.421875 42 -1.421875 
Q 24.90625 -1.421875 15.25 8.5625 
Q 5.609375 18.5625 5.609375 36.375 
Q 5.609375 54.25 15.25 64.234375 
Q 24.90625 74.21875 42 74.21875 
Q 49.125 74.21875 55.546875 72.453125 
Q 61.96875 70.703125 67.390625 67.28125 
L 67.390625 56.78125 
Q 61.921875 61.421875 55.765625 63.765625 
Q 49.609375 66.109375 42.828125 66.109375 
Q 29.4375 66.109375 22.71875 58.640625 
Q 16.015625 51.171875 16.015625 36.375 
Q 16.015625 21.625 22.71875 14.15625 
Q 29.4375 6.6875 42.828125 6.6875 
Q 48.046875 6.6875 52.140625 7.59375 
Q 56.25 8.5 59.515625 10.40625 
z
" id="DejaVuSans-71"/>
      <path d="M 44.28125 53.078125 
L 44.28125 44.578125 
Q 40.484375 46.53125 36.375 47.5 
Q 32.28125 48.484375 27.875 48.484375 
Q 21.1875 48.484375 17.84375 46.4375 
Q 14.5 44.390625 14.5 40.28125 
Q 14.5 37.15625 16.890625 35.375 
Q 19.28125 33.59375 26.515625 31.984375 
L 29.59375 31.296875 
Q 39.15625 29.25 43.1875 25.515625 
Q 47.21875 21.78125 47.21875 15.09375 
Q 47.21875 7.46875 41.1875 3.015625 
Q 35.15625 -1.421875 24.609375 -1.421875 
Q 20.21875 -1.421875 15.453125 -0.5625 
Q 10.6875 0.296875 5.421875 2 
L 5.421875 11.28125 
Q 10.40625 8.6875 15.234375 7.390625 
Q 20.0625 6.109375 24.8125 6.109375 
Q 31.15625 6.109375 34.5625 8.28125 
Q 37.984375 10.453125 37.984375 14.40625 
Q 37.984375 18.0625 35.515625 20.015625 
Q 33.0625 21.96875 24.703125 23.78125 
L 21.578125 24.515625 
Q 13.234375 26.265625 9.515625 29.90625 
Q 5.8125 33.546875 5.8125 39.890625 
Q 5.8125 47.609375 11.28125 51.796875 
Q 16.75 56 26.8125 56 
Q 31.78125 56 36.171875 55.265625 
Q 40.578125 54.546875 44.28125 53.078125 
z
" id="DejaVuSans-115"/>
     </defs>
     <g transform="translate(1119.653438 28.737422)scale(0.1 -0.1)">
      <use xlink:href="#DejaVuSans-71"/>
      <use x="77.490234" xlink:href="#DejaVuSans-101"/>
      <use x="139.013672" xlink:href="#DejaVuSans-110"/>
      <use x="202.392578" xlink:href="#DejaVuSans-101"/>
      <use x="263.916016" xlink:href="#DejaVuSans-115"/>
      <use x="316.015625" xlink:href="#DejaVuSans-101"/>
      <use x="377.539062" xlink:href="#DejaVuSans-110"/>
      <use x="440.917969" xlink:href="#DejaVuSans-101"/>
     </g>
    </g>
    <g id="line2d_62">
     <path d="M 1091.653438 39.915547 
L 1111.653438 39.915547 
" style="fill:none;stroke:#2792cb;stroke-linecap:square;stroke-width:2;"/>
    </g>
    <g id="line2d_63">
     <g>
      <use style="fill:#2792cb;stroke:#2792cb;" x="1101.653438" xlink:href="#m5eab6cedcd" y="39.915547"/>
     </g>
    </g>
    <g id="text_36">
     <!-- Erkrankte -->
     <defs>
      <path d="M 9.8125 72.90625 
L 55.90625 72.90625 
L 55.90625 64.59375 
L 19.671875 64.59375 
L 19.671875 43.015625 
L 54.390625 43.015625 
L 54.390625 34.71875 
L 19.671875 34.71875 
L 19.671875 8.296875 
L 56.78125 8.296875 
L 56.78125 0 
L 9.8125 0 
z
" id="DejaVuSans-69"/>
      <path d="M 41.109375 46.296875 
Q 39.59375 47.171875 37.8125 47.578125 
Q 36.03125 48 33.890625 48 
Q 26.265625 48 22.1875 43.046875 
Q 18.109375 38.09375 18.109375 28.8125 
L 18.109375 0 
L 9.078125 0 
L 9.078125 54.6875 
L 18.109375 54.6875 
L 18.109375 46.1875 
Q 20.953125 51.171875 25.484375 53.578125 
Q 30.03125 56 36.53125 56 
Q 37.453125 56 38.578125 55.875 
Q 39.703125 55.765625 41.0625 55.515625 
z
" id="DejaVuSans-114"/>
      <path d="M 9.078125 75.984375 
L 18.109375 75.984375 
L 18.109375 31.109375 
L 44.921875 54.6875 
L 56.390625 54.6875 
L 27.390625 29.109375 
L 57.625 0 
L 45.90625 0 
L 18.109375 26.703125 
L 18.109375 0 
L 9.078125 0 
z
" id="DejaVuSans-107"/>
      <path d="M 18.3125 70.21875 
L 18.3125 54.6875 
L 36.8125 54.6875 
L 36.8125 47.703125 
L 18.3125 47.703125 
L 18.3125 18.015625 
Q 18.3125 11.328125 20.140625 9.421875 
Q 21.96875 7.515625 27.59375 7.515625 
L 36.8125 7.515625 
L 36.8125 0 
L 27.59375 0 
Q 17.1875 0 13.234375 3.875 
Q 9.28125 7.765625 9.28125 18.015625 
L 9.28125 47.703125 
L 2.6875 47.703125 
L 2.6875 54.6875 
L 9.28125 54.6875 
L 9.28125 70.21875 
z
" id="DejaVuSans-116"/>
     </defs>
     <g transform="translate(1119.653438 43.415547)scale(0.1 -0.1)">
      <use xlink:href="#DejaVuSans-69"/>
      <use x="63.183594" xlink:href="#DejaVuSans-114"/>
      <use x="104.296875" xlink:href="#DejaVuSans-107"/>
      <use x="162.207031" xlink:href="#DejaVuSans-114"/>
      <use x="203.320312" xlink:href="#DejaVuSans-97"/>
      <use x="264.599609" xlink:href="#DejaVuSans-110"/>
      <use x="327.978516" xlink:href="#DejaVuSans-107"/>
      <use x="385.888672" xlink:href="#DejaVuSans-116"/>
      <use x="425.097656" xlink:href="#DejaVuSans-101"/>
     </g>
    </g>
   </g>
  </g>
 </g>
 <defs>
  <clipPath id="p528293ca67">
   <rect height="489.6" width="1116" x="62.89875" y="12.138984"/>
  </clipPath>
 </defs>
</svg>
