<?xml version="1.0" encoding="utf-8" standalone="no"?>
<!DOCTYPE svg PUBLIC "-//W3C//DTD SVG 1.1//EN"
  "http://www.w3.org/Graphics/SVG/1.1/DTD/svg11.dtd">
<!-- Created with matplotlib (https://matplotlib.org/) -->
<svg height="549.054781pt" version="1.1" viewBox="0 0 1177.8275 549.054781" width="1177.8275pt" xmlns="http://www.w3.org/2000/svg" xmlns:xlink="http://www.w3.org/1999/xlink">
 <defs>
  <style type="text/css">
*{stroke-linecap:butt;stroke-linejoin:round;}
  </style>
 </defs>
 <g id="figure_1">
  <g id="patch_1">
   <path d="M 0 549.054781 
L 1177.8275 549.054781 
L 1177.8275 0 
L 0 0 
z
" style="fill:#ffffff;"/>
  </g>
  <g id="axes_1">
   <g id="patch_2">
    <path d="M 54.6275 496.8 
L 1170.6275 496.8 
L 1170.6275 7.2 
L 54.6275 7.2 
z
" style="fill:#ffffff;"/>
   </g>
   <g id="matplotlib.axis_1">
    <g id="xtick_1">
     <g id="line2d_1">
      <defs>
       <path d="M 0 0 
L 0 3.5 
" id="mb8780073a0" style="stroke:#000000;stroke-width:0.8;"/>
      </defs>
      <g>
       <use style="stroke:#000000;stroke-width:0.8;" x="154.711038" xlink:href="#mb8780073a0" y="496.8"/>
      </g>
     </g>
     <g id="text_1">
      <!-- 2020-04 -->
      <defs>
       <path d="M 19.1875 8.296875 
L 53.609375 8.296875 
L 53.609375 0 
L 7.328125 0 
L 7.328125 8.296875 
Q 12.9375 14.109375 22.625 23.890625 
Q 32.328125 33.6875 34.8125 36.53125 
Q 39.546875 41.84375 41.421875 45.53125 
Q 43.3125 49.21875 43.3125 52.78125 
Q 43.3125 58.59375 39.234375 62.25 
Q 35.15625 65.921875 28.609375 65.921875 
Q 23.96875 65.921875 18.8125 64.3125 
Q 13.671875 62.703125 7.8125 59.421875 
L 7.8125 69.390625 
Q 13.765625 71.78125 18.9375 73 
Q 24.125 74.21875 28.421875 74.21875 
Q 39.75 74.21875 46.484375 68.546875 
Q 53.21875 62.890625 53.21875 53.421875 
Q 53.21875 48.921875 51.53125 44.890625 
Q 49.859375 40.875 45.40625 35.40625 
Q 44.1875 33.984375 37.640625 27.21875 
Q 31.109375 20.453125 19.1875 8.296875 
z
" id="DejaVuSans-50"/>
       <path d="M 31.78125 66.40625 
Q 24.171875 66.40625 20.328125 58.90625 
Q 16.5 51.421875 16.5 36.375 
Q 16.5 21.390625 20.328125 13.890625 
Q 24.171875 6.390625 31.78125 6.390625 
Q 39.453125 6.390625 43.28125 13.890625 
Q 47.125 21.390625 47.125 36.375 
Q 47.125 51.421875 43.28125 58.90625 
Q 39.453125 66.40625 31.78125 66.40625 
z
M 31.78125 74.21875 
Q 44.046875 74.21875 50.515625 64.515625 
Q 56.984375 54.828125 56.984375 36.375 
Q 56.984375 17.96875 50.515625 8.265625 
Q 44.046875 -1.421875 31.78125 -1.421875 
Q 19.53125 -1.421875 13.0625 8.265625 
Q 6.59375 17.96875 6.59375 36.375 
Q 6.59375 54.828125 13.0625 64.515625 
Q 19.53125 74.21875 31.78125 74.21875 
z
" id="DejaVuSans-48"/>
       <path d="M 4.890625 31.390625 
L 31.203125 31.390625 
L 31.203125 23.390625 
L 4.890625 23.390625 
z
" id="DejaVuSans-45"/>
       <path d="M 37.796875 64.3125 
L 12.890625 25.390625 
L 37.796875 25.390625 
z
M 35.203125 72.90625 
L 47.609375 72.90625 
L 47.609375 25.390625 
L 58.015625 25.390625 
L 58.015625 17.1875 
L 47.609375 17.1875 
L 47.609375 0 
L 37.796875 0 
L 37.796875 17.1875 
L 4.890625 17.1875 
L 4.890625 26.703125 
z
" id="DejaVuSans-52"/>
      </defs>
      <g transform="translate(106.318771 539.5134)rotate(-30)scale(0.13 -0.13)">
       <use xlink:href="#DejaVuSans-50"/>
       <use x="63.623047" xlink:href="#DejaVuSans-48"/>
       <use x="127.246094" xlink:href="#DejaVuSans-50"/>
       <use x="190.869141" xlink:href="#DejaVuSans-48"/>
       <use x="254.492188" xlink:href="#DejaVuSans-45"/>
       <use x="290.576172" xlink:href="#DejaVuSans-48"/>
       <use x="354.199219" xlink:href="#DejaVuSans-52"/>
      </g>
     </g>
    </g>
    <g id="xtick_2">
     <g id="line2d_2">
      <g>
       <use style="stroke:#000000;stroke-width:0.8;" x="319.231923" xlink:href="#mb8780073a0" y="496.8"/>
      </g>
     </g>
     <g id="text_2">
      <!-- 2020-05 -->
      <defs>
       <path d="M 10.796875 72.90625 
L 49.515625 72.90625 
L 49.515625 64.59375 
L 19.828125 64.59375 
L 19.828125 46.734375 
Q 21.96875 47.46875 24.109375 47.828125 
Q 26.265625 48.1875 28.421875 48.1875 
Q 40.625 48.1875 47.75 41.5 
Q 54.890625 34.8125 54.890625 23.390625 
Q 54.890625 11.625 47.5625 5.09375 
Q 40.234375 -1.421875 26.90625 -1.421875 
Q 22.3125 -1.421875 17.546875 -0.640625 
Q 12.796875 0.140625 7.71875 1.703125 
L 7.71875 11.625 
Q 12.109375 9.234375 16.796875 8.0625 
Q 21.484375 6.890625 26.703125 6.890625 
Q 35.15625 6.890625 40.078125 11.328125 
Q 45.015625 15.765625 45.015625 23.390625 
Q 45.015625 31 40.078125 35.4375 
Q 35.15625 39.890625 26.703125 39.890625 
Q 22.75 39.890625 18.8125 39.015625 
Q 14.890625 38.140625 10.796875 36.28125 
z
" id="DejaVuSans-53"/>
      </defs>
      <g transform="translate(270.839656 539.5134)rotate(-30)scale(0.13 -0.13)">
       <use xlink:href="#DejaVuSans-50"/>
       <use x="63.623047" xlink:href="#DejaVuSans-48"/>
       <use x="127.246094" xlink:href="#DejaVuSans-50"/>
       <use x="190.869141" xlink:href="#DejaVuSans-48"/>
       <use x="254.492188" xlink:href="#DejaVuSans-45"/>
       <use x="290.576172" xlink:href="#DejaVuSans-48"/>
       <use x="354.199219" xlink:href="#DejaVuSans-53"/>
      </g>
     </g>
    </g>
    <g id="xtick_3">
     <g id="line2d_3">
      <g>
       <use style="stroke:#000000;stroke-width:0.8;" x="489.236837" xlink:href="#mb8780073a0" y="496.8"/>
      </g>
     </g>
     <g id="text_3">
      <!-- 2020-06 -->
      <defs>
       <path d="M 33.015625 40.375 
Q 26.375 40.375 22.484375 35.828125 
Q 18.609375 31.296875 18.609375 23.390625 
Q 18.609375 15.53125 22.484375 10.953125 
Q 26.375 6.390625 33.015625 6.390625 
Q 39.65625 6.390625 43.53125 10.953125 
Q 47.40625 15.53125 47.40625 23.390625 
Q 47.40625 31.296875 43.53125 35.828125 
Q 39.65625 40.375 33.015625 40.375 
z
M 52.59375 71.296875 
L 52.59375 62.3125 
Q 48.875 64.0625 45.09375 64.984375 
Q 41.3125 65.921875 37.59375 65.921875 
Q 27.828125 65.921875 22.671875 59.328125 
Q 17.53125 52.734375 16.796875 39.40625 
Q 19.671875 43.65625 24.015625 45.921875 
Q 28.375 48.1875 33.59375 48.1875 
Q 44.578125 48.1875 50.953125 41.515625 
Q 57.328125 34.859375 57.328125 23.390625 
Q 57.328125 12.15625 50.6875 5.359375 
Q 44.046875 -1.421875 33.015625 -1.421875 
Q 20.359375 -1.421875 13.671875 8.265625 
Q 6.984375 17.96875 6.984375 36.375 
Q 6.984375 53.65625 15.1875 63.9375 
Q 23.390625 74.21875 37.203125 74.21875 
Q 40.921875 74.21875 44.703125 73.484375 
Q 48.484375 72.75 52.59375 71.296875 
z
" id="DejaVuSans-54"/>
      </defs>
      <g transform="translate(440.84457 539.5134)rotate(-30)scale(0.13 -0.13)">
       <use xlink:href="#DejaVuSans-50"/>
       <use x="63.623047" xlink:href="#DejaVuSans-48"/>
       <use x="127.246094" xlink:href="#DejaVuSans-50"/>
       <use x="190.869141" xlink:href="#DejaVuSans-48"/>
       <use x="254.492188" xlink:href="#DejaVuSans-45"/>
       <use x="290.576172" xlink:href="#DejaVuSans-48"/>
       <use x="354.199219" xlink:href="#DejaVuSans-54"/>
      </g>
     </g>
    </g>
    <g id="xtick_4">
     <g id="line2d_4">
      <g>
       <use style="stroke:#000000;stroke-width:0.8;" x="653.757721" xlink:href="#mb8780073a0" y="496.8"/>
      </g>
     </g>
     <g id="text_4">
      <!-- 2020-07 -->
      <defs>
       <path d="M 8.203125 72.90625 
L 55.078125 72.90625 
L 55.078125 68.703125 
L 28.609375 0 
L 18.3125 0 
L 43.21875 64.59375 
L 8.203125 64.59375 
z
" id="DejaVuSans-55"/>
      </defs>
      <g transform="translate(605.365454 539.5134)rotate(-30)scale(0.13 -0.13)">
       <use xlink:href="#DejaVuSans-50"/>
       <use x="63.623047" xlink:href="#DejaVuSans-48"/>
       <use x="127.246094" xlink:href="#DejaVuSans-50"/>
       <use x="190.869141" xlink:href="#DejaVuSans-48"/>
       <use x="254.492188" xlink:href="#DejaVuSans-45"/>
       <use x="290.576172" xlink:href="#DejaVuSans-48"/>
       <use x="354.199219" xlink:href="#DejaVuSans-55"/>
      </g>
     </g>
    </g>
    <g id="xtick_5">
     <g id="line2d_5">
      <g>
       <use style="stroke:#000000;stroke-width:0.8;" x="823.762635" xlink:href="#mb8780073a0" y="496.8"/>
      </g>
     </g>
     <g id="text_5">
      <!-- 2020-08 -->
      <defs>
       <path d="M 31.78125 34.625 
Q 24.75 34.625 20.71875 30.859375 
Q 16.703125 27.09375 16.703125 20.515625 
Q 16.703125 13.921875 20.71875 10.15625 
Q 24.75 6.390625 31.78125 6.390625 
Q 38.8125 6.390625 42.859375 10.171875 
Q 46.921875 13.96875 46.921875 20.515625 
Q 46.921875 27.09375 42.890625 30.859375 
Q 38.875 34.625 31.78125 34.625 
z
M 21.921875 38.8125 
Q 15.578125 40.375 12.03125 44.71875 
Q 8.5 49.078125 8.5 55.328125 
Q 8.5 64.0625 14.71875 69.140625 
Q 20.953125 74.21875 31.78125 74.21875 
Q 42.671875 74.21875 48.875 69.140625 
Q 55.078125 64.0625 55.078125 55.328125 
Q 55.078125 49.078125 51.53125 44.71875 
Q 48 40.375 41.703125 38.8125 
Q 48.828125 37.15625 52.796875 32.3125 
Q 56.78125 27.484375 56.78125 20.515625 
Q 56.78125 9.90625 50.3125 4.234375 
Q 43.84375 -1.421875 31.78125 -1.421875 
Q 19.734375 -1.421875 13.25 4.234375 
Q 6.78125 9.90625 6.78125 20.515625 
Q 6.78125 27.484375 10.78125 32.3125 
Q 14.796875 37.15625 21.921875 38.8125 
z
M 18.3125 54.390625 
Q 18.3125 48.734375 21.84375 45.5625 
Q 25.390625 42.390625 31.78125 42.390625 
Q 38.140625 42.390625 41.71875 45.5625 
Q 45.3125 48.734375 45.3125 54.390625 
Q 45.3125 60.0625 41.71875 63.234375 
Q 38.140625 66.40625 31.78125 66.40625 
Q 25.390625 66.40625 21.84375 63.234375 
Q 18.3125 60.0625 18.3125 54.390625 
z
" id="DejaVuSans-56"/>
      </defs>
      <g transform="translate(775.370368 539.5134)rotate(-30)scale(0.13 -0.13)">
       <use xlink:href="#DejaVuSans-50"/>
       <use x="63.623047" xlink:href="#DejaVuSans-48"/>
       <use x="127.246094" xlink:href="#DejaVuSans-50"/>
       <use x="190.869141" xlink:href="#DejaVuSans-48"/>
       <use x="254.492188" xlink:href="#DejaVuSans-45"/>
       <use x="290.576172" xlink:href="#DejaVuSans-48"/>
       <use x="354.199219" xlink:href="#DejaVuSans-56"/>
      </g>
     </g>
    </g>
    <g id="xtick_6">
     <g id="line2d_6">
      <g>
       <use style="stroke:#000000;stroke-width:0.8;" x="993.767549" xlink:href="#mb8780073a0" y="496.8"/>
      </g>
     </g>
     <g id="text_6">
      <!-- 2020-09 -->
      <defs>
       <path d="M 10.984375 1.515625 
L 10.984375 10.5 
Q 14.703125 8.734375 18.5 7.8125 
Q 22.3125 6.890625 25.984375 6.890625 
Q 35.75 6.890625 40.890625 13.453125 
Q 46.046875 20.015625 46.78125 33.40625 
Q 43.953125 29.203125 39.59375 26.953125 
Q 35.25 24.703125 29.984375 24.703125 
Q 19.046875 24.703125 12.671875 31.3125 
Q 6.296875 37.9375 6.296875 49.421875 
Q 6.296875 60.640625 12.9375 67.421875 
Q 19.578125 74.21875 30.609375 74.21875 
Q 43.265625 74.21875 49.921875 64.515625 
Q 56.59375 54.828125 56.59375 36.375 
Q 56.59375 19.140625 48.40625 8.859375 
Q 40.234375 -1.421875 26.421875 -1.421875 
Q 22.703125 -1.421875 18.890625 -0.6875 
Q 15.09375 0.046875 10.984375 1.515625 
z
M 30.609375 32.421875 
Q 37.25 32.421875 41.125 36.953125 
Q 45.015625 41.5 45.015625 49.421875 
Q 45.015625 57.28125 41.125 61.84375 
Q 37.25 66.40625 30.609375 66.40625 
Q 23.96875 66.40625 20.09375 61.84375 
Q 16.21875 57.28125 16.21875 49.421875 
Q 16.21875 41.5 20.09375 36.953125 
Q 23.96875 32.421875 30.609375 32.421875 
z
" id="DejaVuSans-57"/>
      </defs>
      <g transform="translate(945.375282 539.5134)rotate(-30)scale(0.13 -0.13)">
       <use xlink:href="#DejaVuSans-50"/>
       <use x="63.623047" xlink:href="#DejaVuSans-48"/>
       <use x="127.246094" xlink:href="#DejaVuSans-50"/>
       <use x="190.869141" xlink:href="#DejaVuSans-48"/>
       <use x="254.492188" xlink:href="#DejaVuSans-45"/>
       <use x="290.576172" xlink:href="#DejaVuSans-48"/>
       <use x="354.199219" xlink:href="#DejaVuSans-57"/>
      </g>
     </g>
    </g>
    <g id="xtick_7">
     <g id="line2d_7">
      <g>
       <use style="stroke:#000000;stroke-width:0.8;" x="1158.288434" xlink:href="#mb8780073a0" y="496.8"/>
      </g>
     </g>
     <g id="text_7">
      <!-- 2020-10 -->
      <defs>
       <path d="M 12.40625 8.296875 
L 28.515625 8.296875 
L 28.515625 63.921875 
L 10.984375 60.40625 
L 10.984375 69.390625 
L 28.421875 72.90625 
L 38.28125 72.90625 
L 38.28125 8.296875 
L 54.390625 8.296875 
L 54.390625 0 
L 12.40625 0 
z
" id="DejaVuSans-49"/>
      </defs>
      <g transform="translate(1109.896167 539.5134)rotate(-30)scale(0.13 -0.13)">
       <use xlink:href="#DejaVuSans-50"/>
       <use x="63.623047" xlink:href="#DejaVuSans-48"/>
       <use x="127.246094" xlink:href="#DejaVuSans-50"/>
       <use x="190.869141" xlink:href="#DejaVuSans-48"/>
       <use x="254.492188" xlink:href="#DejaVuSans-45"/>
       <use x="290.576172" xlink:href="#DejaVuSans-49"/>
       <use x="354.199219" xlink:href="#DejaVuSans-48"/>
      </g>
     </g>
    </g>
   </g>
   <g id="matplotlib.axis_2">
    <g id="ytick_1">
     <g id="line2d_8">
      <path clip-path="url(#p6c33a7815a)" d="M 54.6275 473.07489 
L 1170.6275 473.07489 
" style="fill:none;stroke:#b0b0b0;stroke-linecap:square;stroke-width:0.8;"/>
     </g>
     <g id="line2d_9">
      <defs>
       <path d="M 0 0 
L -3.5 0 
" id="mb51589e8f9" style="stroke:#000000;stroke-width:0.8;"/>
      </defs>
      <g>
       <use style="stroke:#000000;stroke-width:0.8;" x="54.6275" xlink:href="#mb51589e8f9" y="473.07489"/>
      </g>
     </g>
     <g id="text_8">
      <!-- 0 -->
      <g transform="translate(39.35625 478.013874)scale(0.13 -0.13)">
       <use xlink:href="#DejaVuSans-48"/>
      </g>
     </g>
    </g>
    <g id="ytick_2">
     <g id="line2d_10">
      <path clip-path="url(#p6c33a7815a)" d="M 54.6275 424.056067 
L 1170.6275 424.056067 
" style="fill:none;stroke:#b0b0b0;stroke-linecap:square;stroke-width:0.8;"/>
     </g>
     <g id="line2d_11">
      <g>
       <use style="stroke:#000000;stroke-width:0.8;" x="54.6275" xlink:href="#mb51589e8f9" y="424.056067"/>
      </g>
     </g>
     <g id="text_9">
      <!-- 100 -->
      <g transform="translate(22.81375 428.995052)scale(0.13 -0.13)">
       <use xlink:href="#DejaVuSans-49"/>
       <use x="63.623047" xlink:href="#DejaVuSans-48"/>
       <use x="127.246094" xlink:href="#DejaVuSans-48"/>
      </g>
     </g>
    </g>
    <g id="ytick_3">
     <g id="line2d_12">
      <path clip-path="url(#p6c33a7815a)" d="M 54.6275 375.037245 
L 1170.6275 375.037245 
" style="fill:none;stroke:#b0b0b0;stroke-linecap:square;stroke-width:0.8;"/>
     </g>
     <g id="line2d_13">
      <g>
       <use style="stroke:#000000;stroke-width:0.8;" x="54.6275" xlink:href="#mb51589e8f9" y="375.037245"/>
      </g>
     </g>
     <g id="text_10">
      <!-- 200 -->
      <g transform="translate(22.81375 379.976229)scale(0.13 -0.13)">
       <use xlink:href="#DejaVuSans-50"/>
       <use x="63.623047" xlink:href="#DejaVuSans-48"/>
       <use x="127.246094" xlink:href="#DejaVuSans-48"/>
      </g>
     </g>
    </g>
    <g id="ytick_4">
     <g id="line2d_14">
      <path clip-path="url(#p6c33a7815a)" d="M 54.6275 326.018422 
L 1170.6275 326.018422 
" style="fill:none;stroke:#b0b0b0;stroke-linecap:square;stroke-width:0.8;"/>
     </g>
     <g id="line2d_15">
      <g>
       <use style="stroke:#000000;stroke-width:0.8;" x="54.6275" xlink:href="#mb51589e8f9" y="326.018422"/>
      </g>
     </g>
     <g id="text_11">
      <!-- 300 -->
      <defs>
       <path d="M 40.578125 39.3125 
Q 47.65625 37.796875 51.625 33 
Q 55.609375 28.21875 55.609375 21.1875 
Q 55.609375 10.40625 48.1875 4.484375 
Q 40.765625 -1.421875 27.09375 -1.421875 
Q 22.515625 -1.421875 17.65625 -0.515625 
Q 12.796875 0.390625 7.625 2.203125 
L 7.625 11.71875 
Q 11.71875 9.328125 16.59375 8.109375 
Q 21.484375 6.890625 26.8125 6.890625 
Q 36.078125 6.890625 40.9375 10.546875 
Q 45.796875 14.203125 45.796875 21.1875 
Q 45.796875 27.640625 41.28125 31.265625 
Q 36.765625 34.90625 28.71875 34.90625 
L 20.21875 34.90625 
L 20.21875 43.015625 
L 29.109375 43.015625 
Q 36.375 43.015625 40.234375 45.921875 
Q 44.09375 48.828125 44.09375 54.296875 
Q 44.09375 59.90625 40.109375 62.90625 
Q 36.140625 65.921875 28.71875 65.921875 
Q 24.65625 65.921875 20.015625 65.03125 
Q 15.375 64.15625 9.8125 62.3125 
L 9.8125 71.09375 
Q 15.4375 72.65625 20.34375 73.4375 
Q 25.25 74.21875 29.59375 74.21875 
Q 40.828125 74.21875 47.359375 69.109375 
Q 53.90625 64.015625 53.90625 55.328125 
Q 53.90625 49.265625 50.4375 45.09375 
Q 46.96875 40.921875 40.578125 39.3125 
z
" id="DejaVuSans-51"/>
      </defs>
      <g transform="translate(22.81375 330.957406)scale(0.13 -0.13)">
       <use xlink:href="#DejaVuSans-51"/>
       <use x="63.623047" xlink:href="#DejaVuSans-48"/>
       <use x="127.246094" xlink:href="#DejaVuSans-48"/>
      </g>
     </g>
    </g>
    <g id="ytick_5">
     <g id="line2d_16">
      <path clip-path="url(#p6c33a7815a)" d="M 54.6275 276.9996 
L 1170.6275 276.9996 
" style="fill:none;stroke:#b0b0b0;stroke-linecap:square;stroke-width:0.8;"/>
     </g>
     <g id="line2d_17">
      <g>
       <use style="stroke:#000000;stroke-width:0.8;" x="54.6275" xlink:href="#mb51589e8f9" y="276.9996"/>
      </g>
     </g>
     <g id="text_12">
      <!-- 400 -->
      <g transform="translate(22.81375 281.938584)scale(0.13 -0.13)">
       <use xlink:href="#DejaVuSans-52"/>
       <use x="63.623047" xlink:href="#DejaVuSans-48"/>
       <use x="127.246094" xlink:href="#DejaVuSans-48"/>
      </g>
     </g>
    </g>
    <g id="ytick_6">
     <g id="line2d_18">
      <path clip-path="url(#p6c33a7815a)" d="M 54.6275 227.980777 
L 1170.6275 227.980777 
" style="fill:none;stroke:#b0b0b0;stroke-linecap:square;stroke-width:0.8;"/>
     </g>
     <g id="line2d_19">
      <g>
       <use style="stroke:#000000;stroke-width:0.8;" x="54.6275" xlink:href="#mb51589e8f9" y="227.980777"/>
      </g>
     </g>
     <g id="text_13">
      <!-- 500 -->
      <g transform="translate(22.81375 232.919761)scale(0.13 -0.13)">
       <use xlink:href="#DejaVuSans-53"/>
       <use x="63.623047" xlink:href="#DejaVuSans-48"/>
       <use x="127.246094" xlink:href="#DejaVuSans-48"/>
      </g>
     </g>
    </g>
    <g id="ytick_7">
     <g id="line2d_20">
      <path clip-path="url(#p6c33a7815a)" d="M 54.6275 178.961954 
L 1170.6275 178.961954 
" style="fill:none;stroke:#b0b0b0;stroke-linecap:square;stroke-width:0.8;"/>
     </g>
     <g id="line2d_21">
      <g>
       <use style="stroke:#000000;stroke-width:0.8;" x="54.6275" xlink:href="#mb51589e8f9" y="178.961954"/>
      </g>
     </g>
     <g id="text_14">
      <!-- 600 -->
      <g transform="translate(22.81375 183.900939)scale(0.13 -0.13)">
       <use xlink:href="#DejaVuSans-54"/>
       <use x="63.623047" xlink:href="#DejaVuSans-48"/>
       <use x="127.246094" xlink:href="#DejaVuSans-48"/>
      </g>
     </g>
    </g>
    <g id="ytick_8">
     <g id="line2d_22">
      <path clip-path="url(#p6c33a7815a)" d="M 54.6275 129.943132 
L 1170.6275 129.943132 
" style="fill:none;stroke:#b0b0b0;stroke-linecap:square;stroke-width:0.8;"/>
     </g>
     <g id="line2d_23">
      <g>
       <use style="stroke:#000000;stroke-width:0.8;" x="54.6275" xlink:href="#mb51589e8f9" y="129.943132"/>
      </g>
     </g>
     <g id="text_15">
      <!-- 700 -->
      <g transform="translate(22.81375 134.882116)scale(0.13 -0.13)">
       <use xlink:href="#DejaVuSans-55"/>
       <use x="63.623047" xlink:href="#DejaVuSans-48"/>
       <use x="127.246094" xlink:href="#DejaVuSans-48"/>
      </g>
     </g>
    </g>
    <g id="ytick_9">
     <g id="line2d_24">
      <path clip-path="url(#p6c33a7815a)" d="M 54.6275 80.924309 
L 1170.6275 80.924309 
" style="fill:none;stroke:#b0b0b0;stroke-linecap:square;stroke-width:0.8;"/>
     </g>
     <g id="line2d_25">
      <g>
       <use style="stroke:#000000;stroke-width:0.8;" x="54.6275" xlink:href="#mb51589e8f9" y="80.924309"/>
      </g>
     </g>
     <g id="text_16">
      <!-- 800 -->
      <g transform="translate(22.81375 85.863294)scale(0.13 -0.13)">
       <use xlink:href="#DejaVuSans-56"/>
       <use x="63.623047" xlink:href="#DejaVuSans-48"/>
       <use x="127.246094" xlink:href="#DejaVuSans-48"/>
      </g>
     </g>
    </g>
    <g id="ytick_10">
     <g id="line2d_26">
      <path clip-path="url(#p6c33a7815a)" d="M 54.6275 31.905487 
L 1170.6275 31.905487 
" style="fill:none;stroke:#b0b0b0;stroke-linecap:square;stroke-width:0.8;"/>
     </g>
     <g id="line2d_27">
      <g>
       <use style="stroke:#000000;stroke-width:0.8;" x="54.6275" xlink:href="#mb51589e8f9" y="31.905487"/>
      </g>
     </g>
     <g id="text_17">
      <!-- 900 -->
      <g transform="translate(22.81375 36.844471)scale(0.13 -0.13)">
       <use xlink:href="#DejaVuSans-57"/>
       <use x="63.623047" xlink:href="#DejaVuSans-48"/>
       <use x="127.246094" xlink:href="#DejaVuSans-48"/>
      </g>
     </g>
    </g>
    <g id="text_18">
     <!-- Anzahl von Fällen -->
     <defs>
      <path d="M 34.1875 63.1875 
L 20.796875 26.90625 
L 47.609375 26.90625 
z
M 28.609375 72.90625 
L 39.796875 72.90625 
L 67.578125 0 
L 57.328125 0 
L 50.6875 18.703125 
L 17.828125 18.703125 
L 11.1875 0 
L 0.78125 0 
z
" id="DejaVuSans-65"/>
      <path d="M 54.890625 33.015625 
L 54.890625 0 
L 45.90625 0 
L 45.90625 32.71875 
Q 45.90625 40.484375 42.875 44.328125 
Q 39.84375 48.1875 33.796875 48.1875 
Q 26.515625 48.1875 22.3125 43.546875 
Q 18.109375 38.921875 18.109375 30.90625 
L 18.109375 0 
L 9.078125 0 
L 9.078125 54.6875 
L 18.109375 54.6875 
L 18.109375 46.1875 
Q 21.34375 51.125 25.703125 53.5625 
Q 30.078125 56 35.796875 56 
Q 45.21875 56 50.046875 50.171875 
Q 54.890625 44.34375 54.890625 33.015625 
z
" id="DejaVuSans-110"/>
      <path d="M 5.515625 54.6875 
L 48.1875 54.6875 
L 48.1875 46.484375 
L 14.40625 7.171875 
L 48.1875 7.171875 
L 48.1875 0 
L 4.296875 0 
L 4.296875 8.203125 
L 38.09375 47.515625 
L 5.515625 47.515625 
z
" id="DejaVuSans-122"/>
      <path d="M 34.28125 27.484375 
Q 23.390625 27.484375 19.1875 25 
Q 14.984375 22.515625 14.984375 16.5 
Q 14.984375 11.71875 18.140625 8.90625 
Q 21.296875 6.109375 26.703125 6.109375 
Q 34.1875 6.109375 38.703125 11.40625 
Q 43.21875 16.703125 43.21875 25.484375 
L 43.21875 27.484375 
z
M 52.203125 31.203125 
L 52.203125 0 
L 43.21875 0 
L 43.21875 8.296875 
Q 40.140625 3.328125 35.546875 0.953125 
Q 30.953125 -1.421875 24.3125 -1.421875 
Q 15.921875 -1.421875 10.953125 3.296875 
Q 6 8.015625 6 15.921875 
Q 6 25.140625 12.171875 29.828125 
Q 18.359375 34.515625 30.609375 34.515625 
L 43.21875 34.515625 
L 43.21875 35.40625 
Q 43.21875 41.609375 39.140625 45 
Q 35.0625 48.390625 27.6875 48.390625 
Q 23 48.390625 18.546875 47.265625 
Q 14.109375 46.140625 10.015625 43.890625 
L 10.015625 52.203125 
Q 14.9375 54.109375 19.578125 55.046875 
Q 24.21875 56 28.609375 56 
Q 40.484375 56 46.34375 49.84375 
Q 52.203125 43.703125 52.203125 31.203125 
z
" id="DejaVuSans-97"/>
      <path d="M 54.890625 33.015625 
L 54.890625 0 
L 45.90625 0 
L 45.90625 32.71875 
Q 45.90625 40.484375 42.875 44.328125 
Q 39.84375 48.1875 33.796875 48.1875 
Q 26.515625 48.1875 22.3125 43.546875 
Q 18.109375 38.921875 18.109375 30.90625 
L 18.109375 0 
L 9.078125 0 
L 9.078125 75.984375 
L 18.109375 75.984375 
L 18.109375 46.1875 
Q 21.34375 51.125 25.703125 53.5625 
Q 30.078125 56 35.796875 56 
Q 45.21875 56 50.046875 50.171875 
Q 54.890625 44.34375 54.890625 33.015625 
z
" id="DejaVuSans-104"/>
      <path d="M 9.421875 75.984375 
L 18.40625 75.984375 
L 18.40625 0 
L 9.421875 0 
z
" id="DejaVuSans-108"/>
      <path id="DejaVuSans-32"/>
      <path d="M 2.984375 54.6875 
L 12.5 54.6875 
L 29.59375 8.796875 
L 46.6875 54.6875 
L 56.203125 54.6875 
L 35.6875 0 
L 23.484375 0 
z
" id="DejaVuSans-118"/>
      <path d="M 30.609375 48.390625 
Q 23.390625 48.390625 19.1875 42.75 
Q 14.984375 37.109375 14.984375 27.296875 
Q 14.984375 17.484375 19.15625 11.84375 
Q 23.34375 6.203125 30.609375 6.203125 
Q 37.796875 6.203125 41.984375 11.859375 
Q 46.1875 17.53125 46.1875 27.296875 
Q 46.1875 37.015625 41.984375 42.703125 
Q 37.796875 48.390625 30.609375 48.390625 
z
M 30.609375 56 
Q 42.328125 56 49.015625 48.375 
Q 55.71875 40.765625 55.71875 27.296875 
Q 55.71875 13.875 49.015625 6.21875 
Q 42.328125 -1.421875 30.609375 -1.421875 
Q 18.84375 -1.421875 12.171875 6.21875 
Q 5.515625 13.875 5.515625 27.296875 
Q 5.515625 40.765625 12.171875 48.375 
Q 18.84375 56 30.609375 56 
z
" id="DejaVuSans-111"/>
      <path d="M 9.8125 72.90625 
L 51.703125 72.90625 
L 51.703125 64.59375 
L 19.671875 64.59375 
L 19.671875 43.109375 
L 48.578125 43.109375 
L 48.578125 34.8125 
L 19.671875 34.8125 
L 19.671875 0 
L 9.8125 0 
z
" id="DejaVuSans-70"/>
      <path d="M 34.28125 27.484375 
Q 23.390625 27.484375 19.1875 25 
Q 14.984375 22.515625 14.984375 16.5 
Q 14.984375 11.71875 18.140625 8.90625 
Q 21.296875 6.109375 26.703125 6.109375 
Q 34.1875 6.109375 38.703125 11.40625 
Q 43.21875 16.703125 43.21875 25.484375 
L 43.21875 27.484375 
z
M 52.203125 31.203125 
L 52.203125 0 
L 43.21875 0 
L 43.21875 8.296875 
Q 40.140625 3.328125 35.546875 0.953125 
Q 30.953125 -1.421875 24.3125 -1.421875 
Q 15.921875 -1.421875 10.953125 3.296875 
Q 6 8.015625 6 15.921875 
Q 6 25.140625 12.171875 29.828125 
Q 18.359375 34.515625 30.609375 34.515625 
L 43.21875 34.515625 
L 43.21875 35.40625 
Q 43.21875 41.609375 39.140625 45 
Q 35.0625 48.390625 27.6875 48.390625 
Q 23 48.390625 18.546875 47.265625 
Q 14.109375 46.140625 10.015625 43.890625 
L 10.015625 52.203125 
Q 14.9375 54.109375 19.578125 55.046875 
Q 24.21875 56 28.609375 56 
Q 40.484375 56 46.34375 49.84375 
Q 52.203125 43.703125 52.203125 31.203125 
z
M 33.59375 75.78125 
L 43.5 75.78125 
L 43.5 65.921875 
L 33.59375 65.921875 
z
M 14.5 75.78125 
L 24.40625 75.78125 
L 24.40625 65.921875 
L 14.5 65.921875 
z
" id="DejaVuSans-228"/>
      <path d="M 56.203125 29.59375 
L 56.203125 25.203125 
L 14.890625 25.203125 
Q 15.484375 15.921875 20.484375 11.0625 
Q 25.484375 6.203125 34.421875 6.203125 
Q 39.59375 6.203125 44.453125 7.46875 
Q 49.3125 8.734375 54.109375 11.28125 
L 54.109375 2.78125 
Q 49.265625 0.734375 44.1875 -0.34375 
Q 39.109375 -1.421875 33.890625 -1.421875 
Q 20.796875 -1.421875 13.15625 6.1875 
Q 5.515625 13.8125 5.515625 26.8125 
Q 5.515625 40.234375 12.765625 48.109375 
Q 20.015625 56 32.328125 56 
Q 43.359375 56 49.78125 48.890625 
Q 56.203125 41.796875 56.203125 29.59375 
z
M 47.21875 32.234375 
Q 47.125 39.59375 43.09375 43.984375 
Q 39.0625 48.390625 32.421875 48.390625 
Q 24.90625 48.390625 20.390625 44.140625 
Q 15.875 39.890625 15.1875 32.171875 
z
" id="DejaVuSans-101"/>
     </defs>
     <g transform="translate(16.318125 304.449375)rotate(-90)scale(0.12 -0.12)">
      <use xlink:href="#DejaVuSans-65"/>
      <use x="68.408203" xlink:href="#DejaVuSans-110"/>
      <use x="131.787109" xlink:href="#DejaVuSans-122"/>
      <use x="184.277344" xlink:href="#DejaVuSans-97"/>
      <use x="245.556641" xlink:href="#DejaVuSans-104"/>
      <use x="308.935547" xlink:href="#DejaVuSans-108"/>
      <use x="336.71875" xlink:href="#DejaVuSans-32"/>
      <use x="368.505859" xlink:href="#DejaVuSans-118"/>
      <use x="427.685547" xlink:href="#DejaVuSans-111"/>
      <use x="488.867188" xlink:href="#DejaVuSans-110"/>
      <use x="552.246094" xlink:href="#DejaVuSans-32"/>
      <use x="584.033203" xlink:href="#DejaVuSans-70"/>
      <use x="632.427734" xlink:href="#DejaVuSans-228"/>
      <use x="693.707031" xlink:href="#DejaVuSans-108"/>
      <use x="721.490234" xlink:href="#DejaVuSans-108"/>
      <use x="749.273438" xlink:href="#DejaVuSans-101"/>
      <use x="810.796875" xlink:href="#DejaVuSans-110"/>
     </g>
    </g>
   </g>
   <g id="line2d_28">
    <path clip-path="url(#p6c33a7815a)" d="M 105.354773 462.780937 
L 110.838802 461.310372 
L 121.806861 461.310372 
L 127.290891 455.428114 
L 132.77492 450.526231 
L 138.25895 450.526231 
L 143.742979 447.094914 
L 149.227009 435.820585 
L 154.711038 428.467761 
L 160.195068 419.644373 
L 165.679097 410.330797 
L 171.163127 404.448538 
L 176.647156 404.448538 
L 182.131186 401.507409 
L 187.615215 386.801762 
L 193.099244 376.017621 
L 198.583274 369.645174 
L 204.067303 367.194233 
L 215.035362 367.194233 
L 226.003421 351.998398 
L 231.487451 350.527833 
L 236.97148 316.704846 
L 242.45551 316.704846 
L 247.939539 308.861834 
L 258.907598 309.352022 
L 264.391628 305.430517 
L 269.875657 294.156187 
L 275.359687 292.195435 
L 280.843716 289.254305 
L 286.327746 277.489788 
L 297.295805 276.019223 
L 302.779834 276.019223 
L 308.263864 269.646776 
L 313.747893 265.72527 
L 324.715952 265.235082 
L 335.684011 265.235082 
L 341.168041 264.254706 
L 346.65207 259.843012 
L 352.1361 256.411694 
L 357.620129 252.490188 
L 363.104158 252.490188 
L 374.072217 250.039247 
L 379.556247 249.058871 
L 385.040276 245.627553 
L 390.524306 243.6668 
L 396.008335 241.215859 
L 401.492365 240.235483 
L 412.460424 228.470965 
L 417.944453 227.490589 
L 423.428483 221.60833 
L 434.396542 216.706448 
L 450.84863 216.706448 
L 456.33266 132.394073 
L 467.300719 90.728074 
L 472.784748 88.277133 
L 494.720866 86.31638 
L 500.204896 76.022427 
L 505.688925 74.551862 
L 511.172955 67.689227 
L 516.656984 65.238286 
L 533.109072 65.238286 
L 549.561161 63.767721 
L 566.013249 63.767721 
L 576.981308 60.336404 
L 593.433397 60.336404 
L 604.401456 59.846215 
L 609.885485 59.846215 
L 615.369515 59.356027 
L 620.853544 59.356027 
L 631.821603 58.865839 
L 642.789662 58.865839 
L 653.757721 57.885463 
L 659.241751 56.905086 
L 664.72578 56.414898 
L 725.050104 56.414898 
L 730.534134 55.434521 
L 736.018163 55.434521 
L 741.502193 54.454145 
L 763.438311 54.454145 
L 768.92234 52.98358 
L 774.40637 52.493392 
L 779.890399 51.513016 
L 812.794576 51.513016 
L 818.278606 51.022827 
L 856.666812 51.022827 
L 884.086959 48.571886 
L 895.055018 48.571886 
L 911.507107 46.611133 
L 916.991136 46.611133 
L 922.475166 45.630757 
L 927.959195 45.630757 
L 933.443225 45.140569 
L 949.895313 44.160192 
L 955.379343 42.689628 
L 966.347402 42.689628 
L 971.831431 41.709251 
L 988.28352 41.709251 
L 993.767549 41.219063 
L 999.251579 40.238686 
L 1010.219638 39.25831 
L 1026.671726 38.277934 
L 1032.155756 37.297557 
L 1037.639785 37.297557 
L 1048.607844 36.317181 
L 1065.059932 35.826992 
L 1070.543962 34.356428 
L 1076.027991 33.866239 
L 1081.512021 33.866239 
L 1086.99605 32.885863 
L 1114.416198 30.434922 
L 1119.900227 29.454545 
L 1119.900227 29.454545 
" style="fill:none;stroke:#dbcd00;stroke-linecap:square;stroke-width:2;"/>
    <defs>
     <path d="M 0 1.5 
C 0.397805 1.5 0.77937 1.341951 1.06066 1.06066 
C 1.341951 0.77937 1.5 0.397805 1.5 0 
C 1.5 -0.397805 1.341951 -0.77937 1.06066 -1.06066 
C 0.77937 -1.341951 0.397805 -1.5 0 -1.5 
C -0.397805 -1.5 -0.77937 -1.341951 -1.06066 -1.06066 
C -1.341951 -0.77937 -1.5 -0.397805 -1.5 0 
C -1.5 0.397805 -1.341951 0.77937 -1.06066 1.06066 
C -0.77937 1.341951 -0.397805 1.5 0 1.5 
z
" id="md30589017f" style="stroke:#dbcd00;"/>
    </defs>
    <g clip-path="url(#p6c33a7815a)">
     <use style="fill:#dbcd00;stroke:#dbcd00;" x="105.354773" xlink:href="#md30589017f" y="462.780937"/>
     <use style="fill:#dbcd00;stroke:#dbcd00;" x="110.838802" xlink:href="#md30589017f" y="461.310372"/>
     <use style="fill:#dbcd00;stroke:#dbcd00;" x="116.322832" xlink:href="#md30589017f" y="461.310372"/>
     <use style="fill:#dbcd00;stroke:#dbcd00;" x="121.806861" xlink:href="#md30589017f" y="461.310372"/>
     <use style="fill:#dbcd00;stroke:#dbcd00;" x="127.290891" xlink:href="#md30589017f" y="455.428114"/>
     <use style="fill:#dbcd00;stroke:#dbcd00;" x="132.77492" xlink:href="#md30589017f" y="450.526231"/>
     <use style="fill:#dbcd00;stroke:#dbcd00;" x="138.25895" xlink:href="#md30589017f" y="450.526231"/>
     <use style="fill:#dbcd00;stroke:#dbcd00;" x="143.742979" xlink:href="#md30589017f" y="447.094914"/>
     <use style="fill:#dbcd00;stroke:#dbcd00;" x="149.227009" xlink:href="#md30589017f" y="435.820585"/>
     <use style="fill:#dbcd00;stroke:#dbcd00;" x="154.711038" xlink:href="#md30589017f" y="428.467761"/>
     <use style="fill:#dbcd00;stroke:#dbcd00;" x="160.195068" xlink:href="#md30589017f" y="419.644373"/>
     <use style="fill:#dbcd00;stroke:#dbcd00;" x="165.679097" xlink:href="#md30589017f" y="410.330797"/>
     <use style="fill:#dbcd00;stroke:#dbcd00;" x="171.163127" xlink:href="#md30589017f" y="404.448538"/>
     <use style="fill:#dbcd00;stroke:#dbcd00;" x="176.647156" xlink:href="#md30589017f" y="404.448538"/>
     <use style="fill:#dbcd00;stroke:#dbcd00;" x="182.131186" xlink:href="#md30589017f" y="401.507409"/>
     <use style="fill:#dbcd00;stroke:#dbcd00;" x="187.615215" xlink:href="#md30589017f" y="386.801762"/>
     <use style="fill:#dbcd00;stroke:#dbcd00;" x="193.099244" xlink:href="#md30589017f" y="376.017621"/>
     <use style="fill:#dbcd00;stroke:#dbcd00;" x="198.583274" xlink:href="#md30589017f" y="369.645174"/>
     <use style="fill:#dbcd00;stroke:#dbcd00;" x="204.067303" xlink:href="#md30589017f" y="367.194233"/>
     <use style="fill:#dbcd00;stroke:#dbcd00;" x="215.035362" xlink:href="#md30589017f" y="367.194233"/>
     <use style="fill:#dbcd00;stroke:#dbcd00;" x="226.003421" xlink:href="#md30589017f" y="351.998398"/>
     <use style="fill:#dbcd00;stroke:#dbcd00;" x="231.487451" xlink:href="#md30589017f" y="350.527833"/>
     <use style="fill:#dbcd00;stroke:#dbcd00;" x="236.97148" xlink:href="#md30589017f" y="316.704846"/>
     <use style="fill:#dbcd00;stroke:#dbcd00;" x="242.45551" xlink:href="#md30589017f" y="316.704846"/>
     <use style="fill:#dbcd00;stroke:#dbcd00;" x="247.939539" xlink:href="#md30589017f" y="308.861834"/>
     <use style="fill:#dbcd00;stroke:#dbcd00;" x="258.907598" xlink:href="#md30589017f" y="309.352022"/>
     <use style="fill:#dbcd00;stroke:#dbcd00;" x="264.391628" xlink:href="#md30589017f" y="305.430517"/>
     <use style="fill:#dbcd00;stroke:#dbcd00;" x="269.875657" xlink:href="#md30589017f" y="294.156187"/>
     <use style="fill:#dbcd00;stroke:#dbcd00;" x="275.359687" xlink:href="#md30589017f" y="292.195435"/>
     <use style="fill:#dbcd00;stroke:#dbcd00;" x="280.843716" xlink:href="#md30589017f" y="289.254305"/>
     <use style="fill:#dbcd00;stroke:#dbcd00;" x="286.327746" xlink:href="#md30589017f" y="277.489788"/>
     <use style="fill:#dbcd00;stroke:#dbcd00;" x="297.295805" xlink:href="#md30589017f" y="276.019223"/>
     <use style="fill:#dbcd00;stroke:#dbcd00;" x="302.779834" xlink:href="#md30589017f" y="276.019223"/>
     <use style="fill:#dbcd00;stroke:#dbcd00;" x="308.263864" xlink:href="#md30589017f" y="269.646776"/>
     <use style="fill:#dbcd00;stroke:#dbcd00;" x="313.747893" xlink:href="#md30589017f" y="265.72527"/>
     <use style="fill:#dbcd00;stroke:#dbcd00;" x="324.715952" xlink:href="#md30589017f" y="265.235082"/>
     <use style="fill:#dbcd00;stroke:#dbcd00;" x="335.684011" xlink:href="#md30589017f" y="265.235082"/>
     <use style="fill:#dbcd00;stroke:#dbcd00;" x="341.168041" xlink:href="#md30589017f" y="264.254706"/>
     <use style="fill:#dbcd00;stroke:#dbcd00;" x="346.65207" xlink:href="#md30589017f" y="259.843012"/>
     <use style="fill:#dbcd00;stroke:#dbcd00;" x="352.1361" xlink:href="#md30589017f" y="256.411694"/>
     <use style="fill:#dbcd00;stroke:#dbcd00;" x="357.620129" xlink:href="#md30589017f" y="252.490188"/>
     <use style="fill:#dbcd00;stroke:#dbcd00;" x="363.104158" xlink:href="#md30589017f" y="252.490188"/>
     <use style="fill:#dbcd00;stroke:#dbcd00;" x="374.072217" xlink:href="#md30589017f" y="250.039247"/>
     <use style="fill:#dbcd00;stroke:#dbcd00;" x="379.556247" xlink:href="#md30589017f" y="249.058871"/>
     <use style="fill:#dbcd00;stroke:#dbcd00;" x="385.040276" xlink:href="#md30589017f" y="245.627553"/>
     <use style="fill:#dbcd00;stroke:#dbcd00;" x="390.524306" xlink:href="#md30589017f" y="243.6668"/>
     <use style="fill:#dbcd00;stroke:#dbcd00;" x="396.008335" xlink:href="#md30589017f" y="241.215859"/>
     <use style="fill:#dbcd00;stroke:#dbcd00;" x="401.492365" xlink:href="#md30589017f" y="240.235483"/>
     <use style="fill:#dbcd00;stroke:#dbcd00;" x="412.460424" xlink:href="#md30589017f" y="228.470965"/>
     <use style="fill:#dbcd00;stroke:#dbcd00;" x="417.944453" xlink:href="#md30589017f" y="227.490589"/>
     <use style="fill:#dbcd00;stroke:#dbcd00;" x="423.428483" xlink:href="#md30589017f" y="221.60833"/>
     <use style="fill:#dbcd00;stroke:#dbcd00;" x="434.396542" xlink:href="#md30589017f" y="216.706448"/>
     <use style="fill:#dbcd00;stroke:#dbcd00;" x="439.880571" xlink:href="#md30589017f" y="216.706448"/>
     <use style="fill:#dbcd00;stroke:#dbcd00;" x="450.84863" xlink:href="#md30589017f" y="216.706448"/>
     <use style="fill:#dbcd00;stroke:#dbcd00;" x="456.33266" xlink:href="#md30589017f" y="132.394073"/>
     <use style="fill:#dbcd00;stroke:#dbcd00;" x="467.300719" xlink:href="#md30589017f" y="90.728074"/>
     <use style="fill:#dbcd00;stroke:#dbcd00;" x="472.784748" xlink:href="#md30589017f" y="88.277133"/>
     <use style="fill:#dbcd00;stroke:#dbcd00;" x="494.720866" xlink:href="#md30589017f" y="86.31638"/>
     <use style="fill:#dbcd00;stroke:#dbcd00;" x="500.204896" xlink:href="#md30589017f" y="76.022427"/>
     <use style="fill:#dbcd00;stroke:#dbcd00;" x="505.688925" xlink:href="#md30589017f" y="74.551862"/>
     <use style="fill:#dbcd00;stroke:#dbcd00;" x="511.172955" xlink:href="#md30589017f" y="67.689227"/>
     <use style="fill:#dbcd00;stroke:#dbcd00;" x="516.656984" xlink:href="#md30589017f" y="65.238286"/>
     <use style="fill:#dbcd00;stroke:#dbcd00;" x="527.625043" xlink:href="#md30589017f" y="65.238286"/>
     <use style="fill:#dbcd00;stroke:#dbcd00;" x="533.109072" xlink:href="#md30589017f" y="65.238286"/>
     <use style="fill:#dbcd00;stroke:#dbcd00;" x="538.593102" xlink:href="#md30589017f" y="64.748098"/>
     <use style="fill:#dbcd00;stroke:#dbcd00;" x="549.561161" xlink:href="#md30589017f" y="63.767721"/>
     <use style="fill:#dbcd00;stroke:#dbcd00;" x="555.04519" xlink:href="#md30589017f" y="63.767721"/>
     <use style="fill:#dbcd00;stroke:#dbcd00;" x="566.013249" xlink:href="#md30589017f" y="63.767721"/>
     <use style="fill:#dbcd00;stroke:#dbcd00;" x="576.981308" xlink:href="#md30589017f" y="60.336404"/>
     <use style="fill:#dbcd00;stroke:#dbcd00;" x="587.949367" xlink:href="#md30589017f" y="60.336404"/>
     <use style="fill:#dbcd00;stroke:#dbcd00;" x="593.433397" xlink:href="#md30589017f" y="60.336404"/>
     <use style="fill:#dbcd00;stroke:#dbcd00;" x="604.401456" xlink:href="#md30589017f" y="59.846215"/>
     <use style="fill:#dbcd00;stroke:#dbcd00;" x="609.885485" xlink:href="#md30589017f" y="59.846215"/>
     <use style="fill:#dbcd00;stroke:#dbcd00;" x="615.369515" xlink:href="#md30589017f" y="59.356027"/>
     <use style="fill:#dbcd00;stroke:#dbcd00;" x="620.853544" xlink:href="#md30589017f" y="59.356027"/>
     <use style="fill:#dbcd00;stroke:#dbcd00;" x="631.821603" xlink:href="#md30589017f" y="58.865839"/>
     <use style="fill:#dbcd00;stroke:#dbcd00;" x="642.789662" xlink:href="#md30589017f" y="58.865839"/>
     <use style="fill:#dbcd00;stroke:#dbcd00;" x="648.273692" xlink:href="#md30589017f" y="58.375651"/>
     <use style="fill:#dbcd00;stroke:#dbcd00;" x="653.757721" xlink:href="#md30589017f" y="57.885463"/>
     <use style="fill:#dbcd00;stroke:#dbcd00;" x="659.241751" xlink:href="#md30589017f" y="56.905086"/>
     <use style="fill:#dbcd00;stroke:#dbcd00;" x="664.72578" xlink:href="#md30589017f" y="56.414898"/>
     <use style="fill:#dbcd00;stroke:#dbcd00;" x="670.20981" xlink:href="#md30589017f" y="56.414898"/>
     <use style="fill:#dbcd00;stroke:#dbcd00;" x="686.661898" xlink:href="#md30589017f" y="56.414898"/>
     <use style="fill:#dbcd00;stroke:#dbcd00;" x="692.145928" xlink:href="#md30589017f" y="56.414898"/>
     <use style="fill:#dbcd00;stroke:#dbcd00;" x="697.629957" xlink:href="#md30589017f" y="56.414898"/>
     <use style="fill:#dbcd00;stroke:#dbcd00;" x="703.113986" xlink:href="#md30589017f" y="56.414898"/>
     <use style="fill:#dbcd00;stroke:#dbcd00;" x="719.566075" xlink:href="#md30589017f" y="56.414898"/>
     <use style="fill:#dbcd00;stroke:#dbcd00;" x="725.050104" xlink:href="#md30589017f" y="56.414898"/>
     <use style="fill:#dbcd00;stroke:#dbcd00;" x="730.534134" xlink:href="#md30589017f" y="55.434521"/>
     <use style="fill:#dbcd00;stroke:#dbcd00;" x="736.018163" xlink:href="#md30589017f" y="55.434521"/>
     <use style="fill:#dbcd00;stroke:#dbcd00;" x="741.502193" xlink:href="#md30589017f" y="54.454145"/>
     <use style="fill:#dbcd00;stroke:#dbcd00;" x="757.954281" xlink:href="#md30589017f" y="54.454145"/>
     <use style="fill:#dbcd00;stroke:#dbcd00;" x="763.438311" xlink:href="#md30589017f" y="54.454145"/>
     <use style="fill:#dbcd00;stroke:#dbcd00;" x="768.92234" xlink:href="#md30589017f" y="52.98358"/>
     <use style="fill:#dbcd00;stroke:#dbcd00;" x="774.40637" xlink:href="#md30589017f" y="52.493392"/>
     <use style="fill:#dbcd00;stroke:#dbcd00;" x="779.890399" xlink:href="#md30589017f" y="51.513016"/>
     <use style="fill:#dbcd00;stroke:#dbcd00;" x="796.342488" xlink:href="#md30589017f" y="51.513016"/>
     <use style="fill:#dbcd00;stroke:#dbcd00;" x="801.826517" xlink:href="#md30589017f" y="51.513016"/>
     <use style="fill:#dbcd00;stroke:#dbcd00;" x="807.310547" xlink:href="#md30589017f" y="51.513016"/>
     <use style="fill:#dbcd00;stroke:#dbcd00;" x="812.794576" xlink:href="#md30589017f" y="51.513016"/>
     <use style="fill:#dbcd00;stroke:#dbcd00;" x="818.278606" xlink:href="#md30589017f" y="51.022827"/>
     <use style="fill:#dbcd00;stroke:#dbcd00;" x="834.730694" xlink:href="#md30589017f" y="51.022827"/>
     <use style="fill:#dbcd00;stroke:#dbcd00;" x="840.214724" xlink:href="#md30589017f" y="51.022827"/>
     <use style="fill:#dbcd00;stroke:#dbcd00;" x="845.698753" xlink:href="#md30589017f" y="51.022827"/>
     <use style="fill:#dbcd00;stroke:#dbcd00;" x="851.182783" xlink:href="#md30589017f" y="51.022827"/>
     <use style="fill:#dbcd00;stroke:#dbcd00;" x="856.666812" xlink:href="#md30589017f" y="51.022827"/>
     <use style="fill:#dbcd00;stroke:#dbcd00;" x="873.1189" xlink:href="#md30589017f" y="49.552263"/>
     <use style="fill:#dbcd00;stroke:#dbcd00;" x="878.60293" xlink:href="#md30589017f" y="49.062074"/>
     <use style="fill:#dbcd00;stroke:#dbcd00;" x="884.086959" xlink:href="#md30589017f" y="48.571886"/>
     <use style="fill:#dbcd00;stroke:#dbcd00;" x="889.570989" xlink:href="#md30589017f" y="48.571886"/>
     <use style="fill:#dbcd00;stroke:#dbcd00;" x="895.055018" xlink:href="#md30589017f" y="48.571886"/>
     <use style="fill:#dbcd00;stroke:#dbcd00;" x="911.507107" xlink:href="#md30589017f" y="46.611133"/>
     <use style="fill:#dbcd00;stroke:#dbcd00;" x="916.991136" xlink:href="#md30589017f" y="46.611133"/>
     <use style="fill:#dbcd00;stroke:#dbcd00;" x="922.475166" xlink:href="#md30589017f" y="45.630757"/>
     <use style="fill:#dbcd00;stroke:#dbcd00;" x="927.959195" xlink:href="#md30589017f" y="45.630757"/>
     <use style="fill:#dbcd00;stroke:#dbcd00;" x="933.443225" xlink:href="#md30589017f" y="45.140569"/>
     <use style="fill:#dbcd00;stroke:#dbcd00;" x="949.895313" xlink:href="#md30589017f" y="44.160192"/>
     <use style="fill:#dbcd00;stroke:#dbcd00;" x="955.379343" xlink:href="#md30589017f" y="42.689628"/>
     <use style="fill:#dbcd00;stroke:#dbcd00;" x="960.863372" xlink:href="#md30589017f" y="42.689628"/>
     <use style="fill:#dbcd00;stroke:#dbcd00;" x="966.347402" xlink:href="#md30589017f" y="42.689628"/>
     <use style="fill:#dbcd00;stroke:#dbcd00;" x="971.831431" xlink:href="#md30589017f" y="41.709251"/>
     <use style="fill:#dbcd00;stroke:#dbcd00;" x="988.28352" xlink:href="#md30589017f" y="41.709251"/>
     <use style="fill:#dbcd00;stroke:#dbcd00;" x="993.767549" xlink:href="#md30589017f" y="41.219063"/>
     <use style="fill:#dbcd00;stroke:#dbcd00;" x="999.251579" xlink:href="#md30589017f" y="40.238686"/>
     <use style="fill:#dbcd00;stroke:#dbcd00;" x="1004.735608" xlink:href="#md30589017f" y="39.748498"/>
     <use style="fill:#dbcd00;stroke:#dbcd00;" x="1010.219638" xlink:href="#md30589017f" y="39.25831"/>
     <use style="fill:#dbcd00;stroke:#dbcd00;" x="1026.671726" xlink:href="#md30589017f" y="38.277934"/>
     <use style="fill:#dbcd00;stroke:#dbcd00;" x="1032.155756" xlink:href="#md30589017f" y="37.297557"/>
     <use style="fill:#dbcd00;stroke:#dbcd00;" x="1037.639785" xlink:href="#md30589017f" y="37.297557"/>
     <use style="fill:#dbcd00;stroke:#dbcd00;" x="1043.123814" xlink:href="#md30589017f" y="36.807369"/>
     <use style="fill:#dbcd00;stroke:#dbcd00;" x="1048.607844" xlink:href="#md30589017f" y="36.317181"/>
     <use style="fill:#dbcd00;stroke:#dbcd00;" x="1065.059932" xlink:href="#md30589017f" y="35.826992"/>
     <use style="fill:#dbcd00;stroke:#dbcd00;" x="1070.543962" xlink:href="#md30589017f" y="34.356428"/>
     <use style="fill:#dbcd00;stroke:#dbcd00;" x="1076.027991" xlink:href="#md30589017f" y="33.866239"/>
     <use style="fill:#dbcd00;stroke:#dbcd00;" x="1081.512021" xlink:href="#md30589017f" y="33.866239"/>
     <use style="fill:#dbcd00;stroke:#dbcd00;" x="1086.99605" xlink:href="#md30589017f" y="32.885863"/>
     <use style="fill:#dbcd00;stroke:#dbcd00;" x="1103.448139" xlink:href="#md30589017f" y="31.415298"/>
     <use style="fill:#dbcd00;stroke:#dbcd00;" x="1108.932168" xlink:href="#md30589017f" y="30.92511"/>
     <use style="fill:#dbcd00;stroke:#dbcd00;" x="1114.416198" xlink:href="#md30589017f" y="30.434922"/>
     <use style="fill:#dbcd00;stroke:#dbcd00;" x="1119.900227" xlink:href="#md30589017f" y="29.454545"/>
    </g>
   </g>
   <g id="line2d_29">
    <path clip-path="url(#p6c33a7815a)" d="M 105.354773 401.997597 
L 110.838802 395.62515 
L 121.806861 371.115739 
L 132.77492 352.488586 
L 138.25895 347.586704 
L 143.742979 348.56708 
L 149.227009 348.076892 
L 154.711038 344.645575 
L 160.195068 346.606328 
L 165.679097 354.449339 
L 171.163127 351.018022 
L 176.647156 348.56708 
L 182.131186 347.096516 
L 187.615215 359.351221 
L 193.099244 363.272727 
L 198.583274 366.704045 
L 204.067303 363.272727 
L 215.035362 361.802163 
L 226.003421 375.527433 
L 231.487451 375.527433 
L 236.97148 408.370044 
L 242.45551 403.95835 
L 247.939539 410.330797 
L 258.907598 412.29155 
L 264.391628 415.232679 
L 269.875657 426.997197 
L 275.359687 427.977573 
L 280.843716 429.448138 
L 286.327746 438.761714 
L 297.295805 440.232279 
L 302.779834 436.310773 
L 308.263864 441.212655 
L 313.747893 444.153785 
L 324.715952 438.271526 
L 335.684011 426.997197 
L 341.168041 425.036444 
L 346.65207 412.29155 
L 352.1361 413.271926 
L 357.620129 395.62515 
L 363.104158 369.154986 
L 374.072217 338.763316 
L 379.556247 326.50861 
L 385.040276 318.17541 
L 390.524306 313.273528 
L 396.008335 318.665599 
L 401.492365 317.195034 
L 412.460424 324.057669 
L 417.944453 326.018422 
L 423.428483 326.018422 
L 434.396542 326.50861 
L 439.880571 322.096916 
L 450.84863 320.626352 
L 456.33266 404.938726 
L 467.300719 445.624349 
L 472.784748 448.07529 
L 494.720866 449.545855 
L 500.204896 459.839808 
L 505.688925 461.310372 
L 511.172955 468.173008 
L 516.656984 470.623949 
L 527.625043 470.623949 
L 533.109072 469.643572 
L 538.593102 470.133761 
L 549.561161 469.643572 
L 555.04519 469.153384 
L 566.013249 469.153384 
L 576.981308 471.604325 
L 587.949367 471.114137 
L 593.433397 470.623949 
L 604.401456 471.114137 
L 609.885485 471.114137 
L 615.369515 471.604325 
L 620.853544 471.604325 
L 631.821603 472.094513 
L 642.789662 472.094513 
L 648.273692 472.584702 
L 653.757721 472.584702 
L 659.241751 474.055266 
L 664.72578 473.565078 
L 670.20981 472.094513 
L 686.661898 471.114137 
L 697.629957 471.114137 
L 703.113986 470.133761 
L 725.050104 470.133761 
L 730.534134 471.114137 
L 736.018163 471.114137 
L 741.502193 472.094513 
L 757.954281 471.604325 
L 763.438311 471.604325 
L 768.92234 473.07489 
L 774.40637 473.565078 
L 779.890399 474.545455 
L 796.342488 474.055266 
L 807.310547 473.07489 
L 812.794576 471.604325 
L 818.278606 471.114137 
L 840.214724 471.114137 
L 845.698753 470.623949 
L 856.666812 470.623949 
L 873.1189 471.604325 
L 878.60293 470.133761 
L 889.570989 470.133761 
L 895.055018 468.663196 
L 911.507107 470.133761 
L 916.991136 469.643572 
L 922.475166 470.623949 
L 927.959195 470.133761 
L 933.443225 470.623949 
L 955.379343 470.623949 
L 960.863372 470.133761 
L 966.347402 470.133761 
L 971.831431 470.623949 
L 988.28352 469.643572 
L 1010.219638 471.604325 
L 1026.671726 470.623949 
L 1032.155756 471.604325 
L 1037.639785 468.663196 
L 1048.607844 469.643572 
L 1065.059932 469.153384 
L 1070.543962 468.173008 
L 1081.512021 468.173008 
L 1086.99605 468.663196 
L 1103.448139 468.663196 
L 1108.932168 468.173008 
L 1114.416198 465.722066 
L 1119.900227 466.212255 
L 1119.900227 466.212255 
" style="fill:none;stroke:#2792cb;stroke-linecap:square;stroke-width:2;"/>
    <defs>
     <path d="M 0 1.5 
C 0.397805 1.5 0.77937 1.341951 1.06066 1.06066 
C 1.341951 0.77937 1.5 0.397805 1.5 0 
C 1.5 -0.397805 1.341951 -0.77937 1.06066 -1.06066 
C 0.77937 -1.341951 0.397805 -1.5 0 -1.5 
C -0.397805 -1.5 -0.77937 -1.341951 -1.06066 -1.06066 
C -1.341951 -0.77937 -1.5 -0.397805 -1.5 0 
C -1.5 0.397805 -1.341951 0.77937 -1.06066 1.06066 
C -0.77937 1.341951 -0.397805 1.5 0 1.5 
z
" id="m41b7f56fb9" style="stroke:#2792cb;"/>
    </defs>
    <g clip-path="url(#p6c33a7815a)">
     <use style="fill:#2792cb;stroke:#2792cb;" x="105.354773" xlink:href="#m41b7f56fb9" y="401.997597"/>
     <use style="fill:#2792cb;stroke:#2792cb;" x="110.838802" xlink:href="#m41b7f56fb9" y="395.62515"/>
     <use style="fill:#2792cb;stroke:#2792cb;" x="116.322832" xlink:href="#m41b7f56fb9" y="383.370445"/>
     <use style="fill:#2792cb;stroke:#2792cb;" x="121.806861" xlink:href="#m41b7f56fb9" y="371.115739"/>
     <use style="fill:#2792cb;stroke:#2792cb;" x="127.290891" xlink:href="#m41b7f56fb9" y="361.802163"/>
     <use style="fill:#2792cb;stroke:#2792cb;" x="132.77492" xlink:href="#m41b7f56fb9" y="352.488586"/>
     <use style="fill:#2792cb;stroke:#2792cb;" x="138.25895" xlink:href="#m41b7f56fb9" y="347.586704"/>
     <use style="fill:#2792cb;stroke:#2792cb;" x="143.742979" xlink:href="#m41b7f56fb9" y="348.56708"/>
     <use style="fill:#2792cb;stroke:#2792cb;" x="149.227009" xlink:href="#m41b7f56fb9" y="348.076892"/>
     <use style="fill:#2792cb;stroke:#2792cb;" x="154.711038" xlink:href="#m41b7f56fb9" y="344.645575"/>
     <use style="fill:#2792cb;stroke:#2792cb;" x="160.195068" xlink:href="#m41b7f56fb9" y="346.606328"/>
     <use style="fill:#2792cb;stroke:#2792cb;" x="165.679097" xlink:href="#m41b7f56fb9" y="354.449339"/>
     <use style="fill:#2792cb;stroke:#2792cb;" x="171.163127" xlink:href="#m41b7f56fb9" y="351.018022"/>
     <use style="fill:#2792cb;stroke:#2792cb;" x="176.647156" xlink:href="#m41b7f56fb9" y="348.56708"/>
     <use style="fill:#2792cb;stroke:#2792cb;" x="182.131186" xlink:href="#m41b7f56fb9" y="347.096516"/>
     <use style="fill:#2792cb;stroke:#2792cb;" x="187.615215" xlink:href="#m41b7f56fb9" y="359.351221"/>
     <use style="fill:#2792cb;stroke:#2792cb;" x="193.099244" xlink:href="#m41b7f56fb9" y="363.272727"/>
     <use style="fill:#2792cb;stroke:#2792cb;" x="198.583274" xlink:href="#m41b7f56fb9" y="366.704045"/>
     <use style="fill:#2792cb;stroke:#2792cb;" x="204.067303" xlink:href="#m41b7f56fb9" y="363.272727"/>
     <use style="fill:#2792cb;stroke:#2792cb;" x="215.035362" xlink:href="#m41b7f56fb9" y="361.802163"/>
     <use style="fill:#2792cb;stroke:#2792cb;" x="226.003421" xlink:href="#m41b7f56fb9" y="375.527433"/>
     <use style="fill:#2792cb;stroke:#2792cb;" x="231.487451" xlink:href="#m41b7f56fb9" y="375.527433"/>
     <use style="fill:#2792cb;stroke:#2792cb;" x="236.97148" xlink:href="#m41b7f56fb9" y="408.370044"/>
     <use style="fill:#2792cb;stroke:#2792cb;" x="242.45551" xlink:href="#m41b7f56fb9" y="403.95835"/>
     <use style="fill:#2792cb;stroke:#2792cb;" x="247.939539" xlink:href="#m41b7f56fb9" y="410.330797"/>
     <use style="fill:#2792cb;stroke:#2792cb;" x="258.907598" xlink:href="#m41b7f56fb9" y="412.29155"/>
     <use style="fill:#2792cb;stroke:#2792cb;" x="264.391628" xlink:href="#m41b7f56fb9" y="415.232679"/>
     <use style="fill:#2792cb;stroke:#2792cb;" x="269.875657" xlink:href="#m41b7f56fb9" y="426.997197"/>
     <use style="fill:#2792cb;stroke:#2792cb;" x="275.359687" xlink:href="#m41b7f56fb9" y="427.977573"/>
     <use style="fill:#2792cb;stroke:#2792cb;" x="280.843716" xlink:href="#m41b7f56fb9" y="429.448138"/>
     <use style="fill:#2792cb;stroke:#2792cb;" x="286.327746" xlink:href="#m41b7f56fb9" y="438.761714"/>
     <use style="fill:#2792cb;stroke:#2792cb;" x="297.295805" xlink:href="#m41b7f56fb9" y="440.232279"/>
     <use style="fill:#2792cb;stroke:#2792cb;" x="302.779834" xlink:href="#m41b7f56fb9" y="436.310773"/>
     <use style="fill:#2792cb;stroke:#2792cb;" x="308.263864" xlink:href="#m41b7f56fb9" y="441.212655"/>
     <use style="fill:#2792cb;stroke:#2792cb;" x="313.747893" xlink:href="#m41b7f56fb9" y="444.153785"/>
     <use style="fill:#2792cb;stroke:#2792cb;" x="324.715952" xlink:href="#m41b7f56fb9" y="438.271526"/>
     <use style="fill:#2792cb;stroke:#2792cb;" x="335.684011" xlink:href="#m41b7f56fb9" y="426.997197"/>
     <use style="fill:#2792cb;stroke:#2792cb;" x="341.168041" xlink:href="#m41b7f56fb9" y="425.036444"/>
     <use style="fill:#2792cb;stroke:#2792cb;" x="346.65207" xlink:href="#m41b7f56fb9" y="412.29155"/>
     <use style="fill:#2792cb;stroke:#2792cb;" x="352.1361" xlink:href="#m41b7f56fb9" y="413.271926"/>
     <use style="fill:#2792cb;stroke:#2792cb;" x="357.620129" xlink:href="#m41b7f56fb9" y="395.62515"/>
     <use style="fill:#2792cb;stroke:#2792cb;" x="363.104158" xlink:href="#m41b7f56fb9" y="369.154986"/>
     <use style="fill:#2792cb;stroke:#2792cb;" x="374.072217" xlink:href="#m41b7f56fb9" y="338.763316"/>
     <use style="fill:#2792cb;stroke:#2792cb;" x="379.556247" xlink:href="#m41b7f56fb9" y="326.50861"/>
     <use style="fill:#2792cb;stroke:#2792cb;" x="385.040276" xlink:href="#m41b7f56fb9" y="318.17541"/>
     <use style="fill:#2792cb;stroke:#2792cb;" x="390.524306" xlink:href="#m41b7f56fb9" y="313.273528"/>
     <use style="fill:#2792cb;stroke:#2792cb;" x="396.008335" xlink:href="#m41b7f56fb9" y="318.665599"/>
     <use style="fill:#2792cb;stroke:#2792cb;" x="401.492365" xlink:href="#m41b7f56fb9" y="317.195034"/>
     <use style="fill:#2792cb;stroke:#2792cb;" x="412.460424" xlink:href="#m41b7f56fb9" y="324.057669"/>
     <use style="fill:#2792cb;stroke:#2792cb;" x="417.944453" xlink:href="#m41b7f56fb9" y="326.018422"/>
     <use style="fill:#2792cb;stroke:#2792cb;" x="423.428483" xlink:href="#m41b7f56fb9" y="326.018422"/>
     <use style="fill:#2792cb;stroke:#2792cb;" x="434.396542" xlink:href="#m41b7f56fb9" y="326.50861"/>
     <use style="fill:#2792cb;stroke:#2792cb;" x="439.880571" xlink:href="#m41b7f56fb9" y="322.096916"/>
     <use style="fill:#2792cb;stroke:#2792cb;" x="450.84863" xlink:href="#m41b7f56fb9" y="320.626352"/>
     <use style="fill:#2792cb;stroke:#2792cb;" x="456.33266" xlink:href="#m41b7f56fb9" y="404.938726"/>
     <use style="fill:#2792cb;stroke:#2792cb;" x="467.300719" xlink:href="#m41b7f56fb9" y="445.624349"/>
     <use style="fill:#2792cb;stroke:#2792cb;" x="472.784748" xlink:href="#m41b7f56fb9" y="448.07529"/>
     <use style="fill:#2792cb;stroke:#2792cb;" x="494.720866" xlink:href="#m41b7f56fb9" y="449.545855"/>
     <use style="fill:#2792cb;stroke:#2792cb;" x="500.204896" xlink:href="#m41b7f56fb9" y="459.839808"/>
     <use style="fill:#2792cb;stroke:#2792cb;" x="505.688925" xlink:href="#m41b7f56fb9" y="461.310372"/>
     <use style="fill:#2792cb;stroke:#2792cb;" x="511.172955" xlink:href="#m41b7f56fb9" y="468.173008"/>
     <use style="fill:#2792cb;stroke:#2792cb;" x="516.656984" xlink:href="#m41b7f56fb9" y="470.623949"/>
     <use style="fill:#2792cb;stroke:#2792cb;" x="527.625043" xlink:href="#m41b7f56fb9" y="470.623949"/>
     <use style="fill:#2792cb;stroke:#2792cb;" x="533.109072" xlink:href="#m41b7f56fb9" y="469.643572"/>
     <use style="fill:#2792cb;stroke:#2792cb;" x="538.593102" xlink:href="#m41b7f56fb9" y="470.133761"/>
     <use style="fill:#2792cb;stroke:#2792cb;" x="549.561161" xlink:href="#m41b7f56fb9" y="469.643572"/>
     <use style="fill:#2792cb;stroke:#2792cb;" x="555.04519" xlink:href="#m41b7f56fb9" y="469.153384"/>
     <use style="fill:#2792cb;stroke:#2792cb;" x="566.013249" xlink:href="#m41b7f56fb9" y="469.153384"/>
     <use style="fill:#2792cb;stroke:#2792cb;" x="576.981308" xlink:href="#m41b7f56fb9" y="471.604325"/>
     <use style="fill:#2792cb;stroke:#2792cb;" x="587.949367" xlink:href="#m41b7f56fb9" y="471.114137"/>
     <use style="fill:#2792cb;stroke:#2792cb;" x="593.433397" xlink:href="#m41b7f56fb9" y="470.623949"/>
     <use style="fill:#2792cb;stroke:#2792cb;" x="604.401456" xlink:href="#m41b7f56fb9" y="471.114137"/>
     <use style="fill:#2792cb;stroke:#2792cb;" x="609.885485" xlink:href="#m41b7f56fb9" y="471.114137"/>
     <use style="fill:#2792cb;stroke:#2792cb;" x="615.369515" xlink:href="#m41b7f56fb9" y="471.604325"/>
     <use style="fill:#2792cb;stroke:#2792cb;" x="620.853544" xlink:href="#m41b7f56fb9" y="471.604325"/>
     <use style="fill:#2792cb;stroke:#2792cb;" x="631.821603" xlink:href="#m41b7f56fb9" y="472.094513"/>
     <use style="fill:#2792cb;stroke:#2792cb;" x="642.789662" xlink:href="#m41b7f56fb9" y="472.094513"/>
     <use style="fill:#2792cb;stroke:#2792cb;" x="648.273692" xlink:href="#m41b7f56fb9" y="472.584702"/>
     <use style="fill:#2792cb;stroke:#2792cb;" x="653.757721" xlink:href="#m41b7f56fb9" y="472.584702"/>
     <use style="fill:#2792cb;stroke:#2792cb;" x="659.241751" xlink:href="#m41b7f56fb9" y="474.055266"/>
     <use style="fill:#2792cb;stroke:#2792cb;" x="664.72578" xlink:href="#m41b7f56fb9" y="473.565078"/>
     <use style="fill:#2792cb;stroke:#2792cb;" x="670.20981" xlink:href="#m41b7f56fb9" y="472.094513"/>
     <use style="fill:#2792cb;stroke:#2792cb;" x="686.661898" xlink:href="#m41b7f56fb9" y="471.114137"/>
     <use style="fill:#2792cb;stroke:#2792cb;" x="692.145928" xlink:href="#m41b7f56fb9" y="471.114137"/>
     <use style="fill:#2792cb;stroke:#2792cb;" x="697.629957" xlink:href="#m41b7f56fb9" y="471.114137"/>
     <use style="fill:#2792cb;stroke:#2792cb;" x="703.113986" xlink:href="#m41b7f56fb9" y="470.133761"/>
     <use style="fill:#2792cb;stroke:#2792cb;" x="719.566075" xlink:href="#m41b7f56fb9" y="470.133761"/>
     <use style="fill:#2792cb;stroke:#2792cb;" x="725.050104" xlink:href="#m41b7f56fb9" y="470.133761"/>
     <use style="fill:#2792cb;stroke:#2792cb;" x="730.534134" xlink:href="#m41b7f56fb9" y="471.114137"/>
     <use style="fill:#2792cb;stroke:#2792cb;" x="736.018163" xlink:href="#m41b7f56fb9" y="471.114137"/>
     <use style="fill:#2792cb;stroke:#2792cb;" x="741.502193" xlink:href="#m41b7f56fb9" y="472.094513"/>
     <use style="fill:#2792cb;stroke:#2792cb;" x="757.954281" xlink:href="#m41b7f56fb9" y="471.604325"/>
     <use style="fill:#2792cb;stroke:#2792cb;" x="763.438311" xlink:href="#m41b7f56fb9" y="471.604325"/>
     <use style="fill:#2792cb;stroke:#2792cb;" x="768.92234" xlink:href="#m41b7f56fb9" y="473.07489"/>
     <use style="fill:#2792cb;stroke:#2792cb;" x="774.40637" xlink:href="#m41b7f56fb9" y="473.565078"/>
     <use style="fill:#2792cb;stroke:#2792cb;" x="779.890399" xlink:href="#m41b7f56fb9" y="474.545455"/>
     <use style="fill:#2792cb;stroke:#2792cb;" x="796.342488" xlink:href="#m41b7f56fb9" y="474.055266"/>
     <use style="fill:#2792cb;stroke:#2792cb;" x="801.826517" xlink:href="#m41b7f56fb9" y="473.565078"/>
     <use style="fill:#2792cb;stroke:#2792cb;" x="807.310547" xlink:href="#m41b7f56fb9" y="473.07489"/>
     <use style="fill:#2792cb;stroke:#2792cb;" x="812.794576" xlink:href="#m41b7f56fb9" y="471.604325"/>
     <use style="fill:#2792cb;stroke:#2792cb;" x="818.278606" xlink:href="#m41b7f56fb9" y="471.114137"/>
     <use style="fill:#2792cb;stroke:#2792cb;" x="834.730694" xlink:href="#m41b7f56fb9" y="471.114137"/>
     <use style="fill:#2792cb;stroke:#2792cb;" x="840.214724" xlink:href="#m41b7f56fb9" y="471.114137"/>
     <use style="fill:#2792cb;stroke:#2792cb;" x="845.698753" xlink:href="#m41b7f56fb9" y="470.623949"/>
     <use style="fill:#2792cb;stroke:#2792cb;" x="851.182783" xlink:href="#m41b7f56fb9" y="470.623949"/>
     <use style="fill:#2792cb;stroke:#2792cb;" x="856.666812" xlink:href="#m41b7f56fb9" y="470.623949"/>
     <use style="fill:#2792cb;stroke:#2792cb;" x="873.1189" xlink:href="#m41b7f56fb9" y="471.604325"/>
     <use style="fill:#2792cb;stroke:#2792cb;" x="878.60293" xlink:href="#m41b7f56fb9" y="470.133761"/>
     <use style="fill:#2792cb;stroke:#2792cb;" x="884.086959" xlink:href="#m41b7f56fb9" y="470.133761"/>
     <use style="fill:#2792cb;stroke:#2792cb;" x="889.570989" xlink:href="#m41b7f56fb9" y="470.133761"/>
     <use style="fill:#2792cb;stroke:#2792cb;" x="895.055018" xlink:href="#m41b7f56fb9" y="468.663196"/>
     <use style="fill:#2792cb;stroke:#2792cb;" x="911.507107" xlink:href="#m41b7f56fb9" y="470.133761"/>
     <use style="fill:#2792cb;stroke:#2792cb;" x="916.991136" xlink:href="#m41b7f56fb9" y="469.643572"/>
     <use style="fill:#2792cb;stroke:#2792cb;" x="922.475166" xlink:href="#m41b7f56fb9" y="470.623949"/>
     <use style="fill:#2792cb;stroke:#2792cb;" x="927.959195" xlink:href="#m41b7f56fb9" y="470.133761"/>
     <use style="fill:#2792cb;stroke:#2792cb;" x="933.443225" xlink:href="#m41b7f56fb9" y="470.623949"/>
     <use style="fill:#2792cb;stroke:#2792cb;" x="949.895313" xlink:href="#m41b7f56fb9" y="470.623949"/>
     <use style="fill:#2792cb;stroke:#2792cb;" x="955.379343" xlink:href="#m41b7f56fb9" y="470.623949"/>
     <use style="fill:#2792cb;stroke:#2792cb;" x="960.863372" xlink:href="#m41b7f56fb9" y="470.133761"/>
     <use style="fill:#2792cb;stroke:#2792cb;" x="966.347402" xlink:href="#m41b7f56fb9" y="470.133761"/>
     <use style="fill:#2792cb;stroke:#2792cb;" x="971.831431" xlink:href="#m41b7f56fb9" y="470.623949"/>
     <use style="fill:#2792cb;stroke:#2792cb;" x="988.28352" xlink:href="#m41b7f56fb9" y="469.643572"/>
     <use style="fill:#2792cb;stroke:#2792cb;" x="993.767549" xlink:href="#m41b7f56fb9" y="470.133761"/>
     <use style="fill:#2792cb;stroke:#2792cb;" x="999.251579" xlink:href="#m41b7f56fb9" y="470.623949"/>
     <use style="fill:#2792cb;stroke:#2792cb;" x="1004.735608" xlink:href="#m41b7f56fb9" y="471.114137"/>
     <use style="fill:#2792cb;stroke:#2792cb;" x="1010.219638" xlink:href="#m41b7f56fb9" y="471.604325"/>
     <use style="fill:#2792cb;stroke:#2792cb;" x="1026.671726" xlink:href="#m41b7f56fb9" y="470.623949"/>
     <use style="fill:#2792cb;stroke:#2792cb;" x="1032.155756" xlink:href="#m41b7f56fb9" y="471.604325"/>
     <use style="fill:#2792cb;stroke:#2792cb;" x="1037.639785" xlink:href="#m41b7f56fb9" y="468.663196"/>
     <use style="fill:#2792cb;stroke:#2792cb;" x="1043.123814" xlink:href="#m41b7f56fb9" y="469.153384"/>
     <use style="fill:#2792cb;stroke:#2792cb;" x="1048.607844" xlink:href="#m41b7f56fb9" y="469.643572"/>
     <use style="fill:#2792cb;stroke:#2792cb;" x="1065.059932" xlink:href="#m41b7f56fb9" y="469.153384"/>
     <use style="fill:#2792cb;stroke:#2792cb;" x="1070.543962" xlink:href="#m41b7f56fb9" y="468.173008"/>
     <use style="fill:#2792cb;stroke:#2792cb;" x="1076.027991" xlink:href="#m41b7f56fb9" y="468.173008"/>
     <use style="fill:#2792cb;stroke:#2792cb;" x="1081.512021" xlink:href="#m41b7f56fb9" y="468.173008"/>
     <use style="fill:#2792cb;stroke:#2792cb;" x="1086.99605" xlink:href="#m41b7f56fb9" y="468.663196"/>
     <use style="fill:#2792cb;stroke:#2792cb;" x="1103.448139" xlink:href="#m41b7f56fb9" y="468.663196"/>
     <use style="fill:#2792cb;stroke:#2792cb;" x="1108.932168" xlink:href="#m41b7f56fb9" y="468.173008"/>
     <use style="fill:#2792cb;stroke:#2792cb;" x="1114.416198" xlink:href="#m41b7f56fb9" y="465.722066"/>
     <use style="fill:#2792cb;stroke:#2792cb;" x="1119.900227" xlink:href="#m41b7f56fb9" y="466.212255"/>
    </g>
   </g>
   <g id="patch_3">
    <path d="M 54.6275 496.8 
L 1170.6275 496.8 
" style="fill:none;stroke:#000000;stroke-linecap:square;stroke-linejoin:miter;stroke-width:0.8;"/>
   </g>
   <g id="legend_1">
    <g id="line2d_30">
     <path d="M 63.6275 20.298437 
L 83.6275 20.298437 
" style="fill:none;stroke:#dbcd00;stroke-linecap:square;stroke-width:2;"/>
    </g>
    <g id="line2d_31">
     <g>
      <use style="fill:#dbcd00;stroke:#dbcd00;" x="73.6275" xlink:href="#md30589017f" y="20.298437"/>
     </g>
    </g>
    <g id="text_19">
     <!-- Genesene -->
     <defs>
      <path d="M 59.515625 10.40625 
L 59.515625 29.984375 
L 43.40625 29.984375 
L 43.40625 38.09375 
L 69.28125 38.09375 
L 69.28125 6.78125 
Q 63.578125 2.734375 56.6875 0.65625 
Q 49.8125 -1.421875 42 -1.421875 
Q 24.90625 -1.421875 15.25 8.5625 
Q 5.609375 18.5625 5.609375 36.375 
Q 5.609375 54.25 15.25 64.234375 
Q 24.90625 74.21875 42 74.21875 
Q 49.125 74.21875 55.546875 72.453125 
Q 61.96875 70.703125 67.390625 67.28125 
L 67.390625 56.78125 
Q 61.921875 61.421875 55.765625 63.765625 
Q 49.609375 66.109375 42.828125 66.109375 
Q 29.4375 66.109375 22.71875 58.640625 
Q 16.015625 51.171875 16.015625 36.375 
Q 16.015625 21.625 22.71875 14.15625 
Q 29.4375 6.6875 42.828125 6.6875 
Q 48.046875 6.6875 52.140625 7.59375 
Q 56.25 8.5 59.515625 10.40625 
z
" id="DejaVuSans-71"/>
      <path d="M 44.28125 53.078125 
L 44.28125 44.578125 
Q 40.484375 46.53125 36.375 47.5 
Q 32.28125 48.484375 27.875 48.484375 
Q 21.1875 48.484375 17.84375 46.4375 
Q 14.5 44.390625 14.5 40.28125 
Q 14.5 37.15625 16.890625 35.375 
Q 19.28125 33.59375 26.515625 31.984375 
L 29.59375 31.296875 
Q 39.15625 29.25 43.1875 25.515625 
Q 47.21875 21.78125 47.21875 15.09375 
Q 47.21875 7.46875 41.1875 3.015625 
Q 35.15625 -1.421875 24.609375 -1.421875 
Q 20.21875 -1.421875 15.453125 -0.5625 
Q 10.6875 0.296875 5.421875 2 
L 5.421875 11.28125 
Q 10.40625 8.6875 15.234375 7.390625 
Q 20.0625 6.109375 24.8125 6.109375 
Q 31.15625 6.109375 34.5625 8.28125 
Q 37.984375 10.453125 37.984375 14.40625 
Q 37.984375 18.0625 35.515625 20.015625 
Q 33.0625 21.96875 24.703125 23.78125 
L 21.578125 24.515625 
Q 13.234375 26.265625 9.515625 29.90625 
Q 5.8125 33.546875 5.8125 39.890625 
Q 5.8125 47.609375 11.28125 51.796875 
Q 16.75 56 26.8125 56 
Q 31.78125 56 36.171875 55.265625 
Q 40.578125 54.546875 44.28125 53.078125 
z
" id="DejaVuSans-115"/>
     </defs>
     <g transform="translate(91.6275 23.798437)scale(0.1 -0.1)">
      <use xlink:href="#DejaVuSans-71"/>
      <use x="77.490234" xlink:href="#DejaVuSans-101"/>
      <use x="139.013672" xlink:href="#DejaVuSans-110"/>
      <use x="202.392578" xlink:href="#DejaVuSans-101"/>
      <use x="263.916016" xlink:href="#DejaVuSans-115"/>
      <use x="316.015625" xlink:href="#DejaVuSans-101"/>
      <use x="377.539062" xlink:href="#DejaVuSans-110"/>
      <use x="440.917969" xlink:href="#DejaVuSans-101"/>
     </g>
    </g>
    <g id="line2d_32">
     <path d="M 63.6275 34.976562 
L 83.6275 34.976562 
" style="fill:none;stroke:#2792cb;stroke-linecap:square;stroke-width:2;"/>
    </g>
    <g id="line2d_33">
     <g>
      <use style="fill:#2792cb;stroke:#2792cb;" x="73.6275" xlink:href="#m41b7f56fb9" y="34.976562"/>
     </g>
    </g>
    <g id="text_20">
     <!-- Erkrankte -->
     <defs>
      <path d="M 9.8125 72.90625 
L 55.90625 72.90625 
L 55.90625 64.59375 
L 19.671875 64.59375 
L 19.671875 43.015625 
L 54.390625 43.015625 
L 54.390625 34.71875 
L 19.671875 34.71875 
L 19.671875 8.296875 
L 56.78125 8.296875 
L 56.78125 0 
L 9.8125 0 
z
" id="DejaVuSans-69"/>
      <path d="M 41.109375 46.296875 
Q 39.59375 47.171875 37.8125 47.578125 
Q 36.03125 48 33.890625 48 
Q 26.265625 48 22.1875 43.046875 
Q 18.109375 38.09375 18.109375 28.8125 
L 18.109375 0 
L 9.078125 0 
L 9.078125 54.6875 
L 18.109375 54.6875 
L 18.109375 46.1875 
Q 20.953125 51.171875 25.484375 53.578125 
Q 30.03125 56 36.53125 56 
Q 37.453125 56 38.578125 55.875 
Q 39.703125 55.765625 41.0625 55.515625 
z
" id="DejaVuSans-114"/>
      <path d="M 9.078125 75.984375 
L 18.109375 75.984375 
L 18.109375 31.109375 
L 44.921875 54.6875 
L 56.390625 54.6875 
L 27.390625 29.109375 
L 57.625 0 
L 45.90625 0 
L 18.109375 26.703125 
L 18.109375 0 
L 9.078125 0 
z
" id="DejaVuSans-107"/>
      <path d="M 18.3125 70.21875 
L 18.3125 54.6875 
L 36.8125 54.6875 
L 36.8125 47.703125 
L 18.3125 47.703125 
L 18.3125 18.015625 
Q 18.3125 11.328125 20.140625 9.421875 
Q 21.96875 7.515625 27.59375 7.515625 
L 36.8125 7.515625 
L 36.8125 0 
L 27.59375 0 
Q 17.1875 0 13.234375 3.875 
Q 9.28125 7.765625 9.28125 18.015625 
L 9.28125 47.703125 
L 2.6875 47.703125 
L 2.6875 54.6875 
L 9.28125 54.6875 
L 9.28125 70.21875 
z
" id="DejaVuSans-116"/>
     </defs>
     <g transform="translate(91.6275 38.476562)scale(0.1 -0.1)">
      <use xlink:href="#DejaVuSans-69"/>
      <use x="63.183594" xlink:href="#DejaVuSans-114"/>
      <use x="104.296875" xlink:href="#DejaVuSans-107"/>
      <use x="162.207031" xlink:href="#DejaVuSans-114"/>
      <use x="203.320312" xlink:href="#DejaVuSans-97"/>
      <use x="264.599609" xlink:href="#DejaVuSans-110"/>
      <use x="327.978516" xlink:href="#DejaVuSans-107"/>
      <use x="385.888672" xlink:href="#DejaVuSans-116"/>
      <use x="425.097656" xlink:href="#DejaVuSans-101"/>
     </g>
    </g>
   </g>
  </g>
 </g>
 <defs>
  <clipPath id="p6c33a7815a">
   <rect height="489.6" width="1116" x="54.6275" y="7.2"/>
  </clipPath>
 </defs>
</svg>
