<?xml version="1.0" encoding="utf-8" standalone="no"?>
<!DOCTYPE svg PUBLIC "-//W3C//DTD SVG 1.1//EN"
  "http://www.w3.org/Graphics/SVG/1.1/DTD/svg11.dtd">
<!-- Created with matplotlib (https://matplotlib.org/) -->
<svg height="553.993765pt" version="1.1" viewBox="0 0 1186.09875 553.993765" width="1186.09875pt" xmlns="http://www.w3.org/2000/svg" xmlns:xlink="http://www.w3.org/1999/xlink">
 <defs>
  <style type="text/css">
*{stroke-linecap:butt;stroke-linejoin:round;}
  </style>
 </defs>
 <g id="figure_1">
  <g id="patch_1">
   <path d="M 0 553.993765 
L 1186.09875 553.993765 
L 1186.09875 0 
L 0 0 
z
" style="fill:#ffffff;"/>
  </g>
  <g id="axes_1">
   <g id="patch_2">
    <path d="M 62.89875 501.738984 
L 1178.89875 501.738984 
L 1178.89875 12.138984 
L 62.89875 12.138984 
z
" style="fill:#ffffff;"/>
   </g>
   <g id="matplotlib.axis_1">
    <g id="xtick_1">
     <g id="line2d_1">
      <defs>
       <path d="M 0 0 
L 0 3.5 
" id="m3fa614c505" style="stroke:#000000;stroke-width:0.8;"/>
      </defs>
      <g>
       <use style="stroke:#000000;stroke-width:0.8;" x="225.114534" xlink:href="#m3fa614c505" y="501.738984"/>
      </g>
     </g>
     <g id="text_1">
      <!-- 2020-04 -->
      <defs>
       <path d="M 19.1875 8.296875 
L 53.609375 8.296875 
L 53.609375 0 
L 7.328125 0 
L 7.328125 8.296875 
Q 12.9375 14.109375 22.625 23.890625 
Q 32.328125 33.6875 34.8125 36.53125 
Q 39.546875 41.84375 41.421875 45.53125 
Q 43.3125 49.21875 43.3125 52.78125 
Q 43.3125 58.59375 39.234375 62.25 
Q 35.15625 65.921875 28.609375 65.921875 
Q 23.96875 65.921875 18.8125 64.3125 
Q 13.671875 62.703125 7.8125 59.421875 
L 7.8125 69.390625 
Q 13.765625 71.78125 18.9375 73 
Q 24.125 74.21875 28.421875 74.21875 
Q 39.75 74.21875 46.484375 68.546875 
Q 53.21875 62.890625 53.21875 53.421875 
Q 53.21875 48.921875 51.53125 44.890625 
Q 49.859375 40.875 45.40625 35.40625 
Q 44.1875 33.984375 37.640625 27.21875 
Q 31.109375 20.453125 19.1875 8.296875 
z
" id="DejaVuSans-50"/>
       <path d="M 31.78125 66.40625 
Q 24.171875 66.40625 20.328125 58.90625 
Q 16.5 51.421875 16.5 36.375 
Q 16.5 21.390625 20.328125 13.890625 
Q 24.171875 6.390625 31.78125 6.390625 
Q 39.453125 6.390625 43.28125 13.890625 
Q 47.125 21.390625 47.125 36.375 
Q 47.125 51.421875 43.28125 58.90625 
Q 39.453125 66.40625 31.78125 66.40625 
z
M 31.78125 74.21875 
Q 44.046875 74.21875 50.515625 64.515625 
Q 56.984375 54.828125 56.984375 36.375 
Q 56.984375 17.96875 50.515625 8.265625 
Q 44.046875 -1.421875 31.78125 -1.421875 
Q 19.53125 -1.421875 13.0625 8.265625 
Q 6.59375 17.96875 6.59375 36.375 
Q 6.59375 54.828125 13.0625 64.515625 
Q 19.53125 74.21875 31.78125 74.21875 
z
" id="DejaVuSans-48"/>
       <path d="M 4.890625 31.390625 
L 31.203125 31.390625 
L 31.203125 23.390625 
L 4.890625 23.390625 
z
" id="DejaVuSans-45"/>
       <path d="M 37.796875 64.3125 
L 12.890625 25.390625 
L 37.796875 25.390625 
z
M 35.203125 72.90625 
L 47.609375 72.90625 
L 47.609375 25.390625 
L 58.015625 25.390625 
L 58.015625 17.1875 
L 47.609375 17.1875 
L 47.609375 0 
L 37.796875 0 
L 37.796875 17.1875 
L 4.890625 17.1875 
L 4.890625 26.703125 
z
" id="DejaVuSans-52"/>
      </defs>
      <g transform="translate(176.722267 544.452384)rotate(-30)scale(0.13 -0.13)">
       <use xlink:href="#DejaVuSans-50"/>
       <use x="63.623047" xlink:href="#DejaVuSans-48"/>
       <use x="127.246094" xlink:href="#DejaVuSans-50"/>
       <use x="190.869141" xlink:href="#DejaVuSans-48"/>
       <use x="254.492188" xlink:href="#DejaVuSans-45"/>
       <use x="290.576172" xlink:href="#DejaVuSans-48"/>
       <use x="354.199219" xlink:href="#DejaVuSans-52"/>
      </g>
     </g>
    </g>
    <g id="xtick_2">
     <g id="line2d_2">
      <g>
       <use style="stroke:#000000;stroke-width:0.8;" x="392.347301" xlink:href="#m3fa614c505" y="501.738984"/>
      </g>
     </g>
     <g id="text_2">
      <!-- 2020-05 -->
      <defs>
       <path d="M 10.796875 72.90625 
L 49.515625 72.90625 
L 49.515625 64.59375 
L 19.828125 64.59375 
L 19.828125 46.734375 
Q 21.96875 47.46875 24.109375 47.828125 
Q 26.265625 48.1875 28.421875 48.1875 
Q 40.625 48.1875 47.75 41.5 
Q 54.890625 34.8125 54.890625 23.390625 
Q 54.890625 11.625 47.5625 5.09375 
Q 40.234375 -1.421875 26.90625 -1.421875 
Q 22.3125 -1.421875 17.546875 -0.640625 
Q 12.796875 0.140625 7.71875 1.703125 
L 7.71875 11.625 
Q 12.109375 9.234375 16.796875 8.0625 
Q 21.484375 6.890625 26.703125 6.890625 
Q 35.15625 6.890625 40.078125 11.328125 
Q 45.015625 15.765625 45.015625 23.390625 
Q 45.015625 31 40.078125 35.4375 
Q 35.15625 39.890625 26.703125 39.890625 
Q 22.75 39.890625 18.8125 39.015625 
Q 14.890625 38.140625 10.796875 36.28125 
z
" id="DejaVuSans-53"/>
      </defs>
      <g transform="translate(343.955034 544.452384)rotate(-30)scale(0.13 -0.13)">
       <use xlink:href="#DejaVuSans-50"/>
       <use x="63.623047" xlink:href="#DejaVuSans-48"/>
       <use x="127.246094" xlink:href="#DejaVuSans-50"/>
       <use x="190.869141" xlink:href="#DejaVuSans-48"/>
       <use x="254.492188" xlink:href="#DejaVuSans-45"/>
       <use x="290.576172" xlink:href="#DejaVuSans-48"/>
       <use x="354.199219" xlink:href="#DejaVuSans-53"/>
      </g>
     </g>
    </g>
    <g id="xtick_3">
     <g id="line2d_3">
      <g>
       <use style="stroke:#000000;stroke-width:0.8;" x="565.154494" xlink:href="#m3fa614c505" y="501.738984"/>
      </g>
     </g>
     <g id="text_3">
      <!-- 2020-06 -->
      <defs>
       <path d="M 33.015625 40.375 
Q 26.375 40.375 22.484375 35.828125 
Q 18.609375 31.296875 18.609375 23.390625 
Q 18.609375 15.53125 22.484375 10.953125 
Q 26.375 6.390625 33.015625 6.390625 
Q 39.65625 6.390625 43.53125 10.953125 
Q 47.40625 15.53125 47.40625 23.390625 
Q 47.40625 31.296875 43.53125 35.828125 
Q 39.65625 40.375 33.015625 40.375 
z
M 52.59375 71.296875 
L 52.59375 62.3125 
Q 48.875 64.0625 45.09375 64.984375 
Q 41.3125 65.921875 37.59375 65.921875 
Q 27.828125 65.921875 22.671875 59.328125 
Q 17.53125 52.734375 16.796875 39.40625 
Q 19.671875 43.65625 24.015625 45.921875 
Q 28.375 48.1875 33.59375 48.1875 
Q 44.578125 48.1875 50.953125 41.515625 
Q 57.328125 34.859375 57.328125 23.390625 
Q 57.328125 12.15625 50.6875 5.359375 
Q 44.046875 -1.421875 33.015625 -1.421875 
Q 20.359375 -1.421875 13.671875 8.265625 
Q 6.984375 17.96875 6.984375 36.375 
Q 6.984375 53.65625 15.1875 63.9375 
Q 23.390625 74.21875 37.203125 74.21875 
Q 40.921875 74.21875 44.703125 73.484375 
Q 48.484375 72.75 52.59375 71.296875 
z
" id="DejaVuSans-54"/>
      </defs>
      <g transform="translate(516.762227 544.452384)rotate(-30)scale(0.13 -0.13)">
       <use xlink:href="#DejaVuSans-50"/>
       <use x="63.623047" xlink:href="#DejaVuSans-48"/>
       <use x="127.246094" xlink:href="#DejaVuSans-50"/>
       <use x="190.869141" xlink:href="#DejaVuSans-48"/>
       <use x="254.492188" xlink:href="#DejaVuSans-45"/>
       <use x="290.576172" xlink:href="#DejaVuSans-48"/>
       <use x="354.199219" xlink:href="#DejaVuSans-54"/>
      </g>
     </g>
    </g>
    <g id="xtick_4">
     <g id="line2d_4">
      <g>
       <use style="stroke:#000000;stroke-width:0.8;" x="732.387261" xlink:href="#m3fa614c505" y="501.738984"/>
      </g>
     </g>
     <g id="text_4">
      <!-- 2020-07 -->
      <defs>
       <path d="M 8.203125 72.90625 
L 55.078125 72.90625 
L 55.078125 68.703125 
L 28.609375 0 
L 18.3125 0 
L 43.21875 64.59375 
L 8.203125 64.59375 
z
" id="DejaVuSans-55"/>
      </defs>
      <g transform="translate(683.994994 544.452384)rotate(-30)scale(0.13 -0.13)">
       <use xlink:href="#DejaVuSans-50"/>
       <use x="63.623047" xlink:href="#DejaVuSans-48"/>
       <use x="127.246094" xlink:href="#DejaVuSans-50"/>
       <use x="190.869141" xlink:href="#DejaVuSans-48"/>
       <use x="254.492188" xlink:href="#DejaVuSans-45"/>
       <use x="290.576172" xlink:href="#DejaVuSans-48"/>
       <use x="354.199219" xlink:href="#DejaVuSans-55"/>
      </g>
     </g>
    </g>
    <g id="xtick_5">
     <g id="line2d_5">
      <g>
       <use style="stroke:#000000;stroke-width:0.8;" x="905.194454" xlink:href="#m3fa614c505" y="501.738984"/>
      </g>
     </g>
     <g id="text_5">
      <!-- 2020-08 -->
      <defs>
       <path d="M 31.78125 34.625 
Q 24.75 34.625 20.71875 30.859375 
Q 16.703125 27.09375 16.703125 20.515625 
Q 16.703125 13.921875 20.71875 10.15625 
Q 24.75 6.390625 31.78125 6.390625 
Q 38.8125 6.390625 42.859375 10.171875 
Q 46.921875 13.96875 46.921875 20.515625 
Q 46.921875 27.09375 42.890625 30.859375 
Q 38.875 34.625 31.78125 34.625 
z
M 21.921875 38.8125 
Q 15.578125 40.375 12.03125 44.71875 
Q 8.5 49.078125 8.5 55.328125 
Q 8.5 64.0625 14.71875 69.140625 
Q 20.953125 74.21875 31.78125 74.21875 
Q 42.671875 74.21875 48.875 69.140625 
Q 55.078125 64.0625 55.078125 55.328125 
Q 55.078125 49.078125 51.53125 44.71875 
Q 48 40.375 41.703125 38.8125 
Q 48.828125 37.15625 52.796875 32.3125 
Q 56.78125 27.484375 56.78125 20.515625 
Q 56.78125 9.90625 50.3125 4.234375 
Q 43.84375 -1.421875 31.78125 -1.421875 
Q 19.734375 -1.421875 13.25 4.234375 
Q 6.78125 9.90625 6.78125 20.515625 
Q 6.78125 27.484375 10.78125 32.3125 
Q 14.796875 37.15625 21.921875 38.8125 
z
M 18.3125 54.390625 
Q 18.3125 48.734375 21.84375 45.5625 
Q 25.390625 42.390625 31.78125 42.390625 
Q 38.140625 42.390625 41.71875 45.5625 
Q 45.3125 48.734375 45.3125 54.390625 
Q 45.3125 60.0625 41.71875 63.234375 
Q 38.140625 66.40625 31.78125 66.40625 
Q 25.390625 66.40625 21.84375 63.234375 
Q 18.3125 60.0625 18.3125 54.390625 
z
" id="DejaVuSans-56"/>
      </defs>
      <g transform="translate(856.802187 544.452384)rotate(-30)scale(0.13 -0.13)">
       <use xlink:href="#DejaVuSans-50"/>
       <use x="63.623047" xlink:href="#DejaVuSans-48"/>
       <use x="127.246094" xlink:href="#DejaVuSans-50"/>
       <use x="190.869141" xlink:href="#DejaVuSans-48"/>
       <use x="254.492188" xlink:href="#DejaVuSans-45"/>
       <use x="290.576172" xlink:href="#DejaVuSans-48"/>
       <use x="354.199219" xlink:href="#DejaVuSans-56"/>
      </g>
     </g>
    </g>
    <g id="xtick_6">
     <g id="line2d_6">
      <g>
       <use style="stroke:#000000;stroke-width:0.8;" x="1078.001647" xlink:href="#m3fa614c505" y="501.738984"/>
      </g>
     </g>
     <g id="text_6">
      <!-- 2020-09 -->
      <defs>
       <path d="M 10.984375 1.515625 
L 10.984375 10.5 
Q 14.703125 8.734375 18.5 7.8125 
Q 22.3125 6.890625 25.984375 6.890625 
Q 35.75 6.890625 40.890625 13.453125 
Q 46.046875 20.015625 46.78125 33.40625 
Q 43.953125 29.203125 39.59375 26.953125 
Q 35.25 24.703125 29.984375 24.703125 
Q 19.046875 24.703125 12.671875 31.3125 
Q 6.296875 37.9375 6.296875 49.421875 
Q 6.296875 60.640625 12.9375 67.421875 
Q 19.578125 74.21875 30.609375 74.21875 
Q 43.265625 74.21875 49.921875 64.515625 
Q 56.59375 54.828125 56.59375 36.375 
Q 56.59375 19.140625 48.40625 8.859375 
Q 40.234375 -1.421875 26.421875 -1.421875 
Q 22.703125 -1.421875 18.890625 -0.6875 
Q 15.09375 0.046875 10.984375 1.515625 
z
M 30.609375 32.421875 
Q 37.25 32.421875 41.125 36.953125 
Q 45.015625 41.5 45.015625 49.421875 
Q 45.015625 57.28125 41.125 61.84375 
Q 37.25 66.40625 30.609375 66.40625 
Q 23.96875 66.40625 20.09375 61.84375 
Q 16.21875 57.28125 16.21875 49.421875 
Q 16.21875 41.5 20.09375 36.953125 
Q 23.96875 32.421875 30.609375 32.421875 
z
" id="DejaVuSans-57"/>
      </defs>
      <g transform="translate(1029.60938 544.452384)rotate(-30)scale(0.13 -0.13)">
       <use xlink:href="#DejaVuSans-50"/>
       <use x="63.623047" xlink:href="#DejaVuSans-48"/>
       <use x="127.246094" xlink:href="#DejaVuSans-50"/>
       <use x="190.869141" xlink:href="#DejaVuSans-48"/>
       <use x="254.492188" xlink:href="#DejaVuSans-45"/>
       <use x="290.576172" xlink:href="#DejaVuSans-48"/>
       <use x="354.199219" xlink:href="#DejaVuSans-57"/>
      </g>
     </g>
    </g>
   </g>
   <g id="matplotlib.axis_2">
    <g id="ytick_1">
     <g id="line2d_7">
      <path clip-path="url(#p3d6d218d45)" d="M 62.89875 479.915415 
L 1178.89875 479.915415 
" style="fill:none;stroke:#b0b0b0;stroke-linecap:square;stroke-width:0.8;"/>
     </g>
     <g id="line2d_8">
      <defs>
       <path d="M 0 0 
L -3.5 0 
" id="mb2b2a18d16" style="stroke:#000000;stroke-width:0.8;"/>
      </defs>
      <g>
       <use style="stroke:#000000;stroke-width:0.8;" x="62.89875" xlink:href="#mb2b2a18d16" y="479.915415"/>
      </g>
     </g>
     <g id="text_7">
      <!-- 0 -->
      <g transform="translate(47.6275 484.854399)scale(0.13 -0.13)">
       <use xlink:href="#DejaVuSans-48"/>
      </g>
     </g>
    </g>
    <g id="ytick_2">
     <g id="line2d_9">
      <path clip-path="url(#p3d6d218d45)" d="M 62.89875 443.932612 
L 1178.89875 443.932612 
" style="fill:none;stroke:#b0b0b0;stroke-linecap:square;stroke-width:0.8;"/>
     </g>
     <g id="line2d_10">
      <g>
       <use style="stroke:#000000;stroke-width:0.8;" x="62.89875" xlink:href="#mb2b2a18d16" y="443.932612"/>
      </g>
     </g>
     <g id="text_8">
      <!-- 100 -->
      <defs>
       <path d="M 12.40625 8.296875 
L 28.515625 8.296875 
L 28.515625 63.921875 
L 10.984375 60.40625 
L 10.984375 69.390625 
L 28.421875 72.90625 
L 38.28125 72.90625 
L 38.28125 8.296875 
L 54.390625 8.296875 
L 54.390625 0 
L 12.40625 0 
z
" id="DejaVuSans-49"/>
      </defs>
      <g transform="translate(31.085 448.871597)scale(0.13 -0.13)">
       <use xlink:href="#DejaVuSans-49"/>
       <use x="63.623047" xlink:href="#DejaVuSans-48"/>
       <use x="127.246094" xlink:href="#DejaVuSans-48"/>
      </g>
     </g>
    </g>
    <g id="ytick_3">
     <g id="line2d_11">
      <path clip-path="url(#p3d6d218d45)" d="M 62.89875 407.94981 
L 1178.89875 407.94981 
" style="fill:none;stroke:#b0b0b0;stroke-linecap:square;stroke-width:0.8;"/>
     </g>
     <g id="line2d_12">
      <g>
       <use style="stroke:#000000;stroke-width:0.8;" x="62.89875" xlink:href="#mb2b2a18d16" y="407.94981"/>
      </g>
     </g>
     <g id="text_9">
      <!-- 200 -->
      <g transform="translate(31.085 412.888794)scale(0.13 -0.13)">
       <use xlink:href="#DejaVuSans-50"/>
       <use x="63.623047" xlink:href="#DejaVuSans-48"/>
       <use x="127.246094" xlink:href="#DejaVuSans-48"/>
      </g>
     </g>
    </g>
    <g id="ytick_4">
     <g id="line2d_13">
      <path clip-path="url(#p3d6d218d45)" d="M 62.89875 371.967008 
L 1178.89875 371.967008 
" style="fill:none;stroke:#b0b0b0;stroke-linecap:square;stroke-width:0.8;"/>
     </g>
     <g id="line2d_14">
      <g>
       <use style="stroke:#000000;stroke-width:0.8;" x="62.89875" xlink:href="#mb2b2a18d16" y="371.967008"/>
      </g>
     </g>
     <g id="text_10">
      <!-- 300 -->
      <defs>
       <path d="M 40.578125 39.3125 
Q 47.65625 37.796875 51.625 33 
Q 55.609375 28.21875 55.609375 21.1875 
Q 55.609375 10.40625 48.1875 4.484375 
Q 40.765625 -1.421875 27.09375 -1.421875 
Q 22.515625 -1.421875 17.65625 -0.515625 
Q 12.796875 0.390625 7.625 2.203125 
L 7.625 11.71875 
Q 11.71875 9.328125 16.59375 8.109375 
Q 21.484375 6.890625 26.8125 6.890625 
Q 36.078125 6.890625 40.9375 10.546875 
Q 45.796875 14.203125 45.796875 21.1875 
Q 45.796875 27.640625 41.28125 31.265625 
Q 36.765625 34.90625 28.71875 34.90625 
L 20.21875 34.90625 
L 20.21875 43.015625 
L 29.109375 43.015625 
Q 36.375 43.015625 40.234375 45.921875 
Q 44.09375 48.828125 44.09375 54.296875 
Q 44.09375 59.90625 40.109375 62.90625 
Q 36.140625 65.921875 28.71875 65.921875 
Q 24.65625 65.921875 20.015625 65.03125 
Q 15.375 64.15625 9.8125 62.3125 
L 9.8125 71.09375 
Q 15.4375 72.65625 20.34375 73.4375 
Q 25.25 74.21875 29.59375 74.21875 
Q 40.828125 74.21875 47.359375 69.109375 
Q 53.90625 64.015625 53.90625 55.328125 
Q 53.90625 49.265625 50.4375 45.09375 
Q 46.96875 40.921875 40.578125 39.3125 
z
" id="DejaVuSans-51"/>
      </defs>
      <g transform="translate(31.085 376.905992)scale(0.13 -0.13)">
       <use xlink:href="#DejaVuSans-51"/>
       <use x="63.623047" xlink:href="#DejaVuSans-48"/>
       <use x="127.246094" xlink:href="#DejaVuSans-48"/>
      </g>
     </g>
    </g>
    <g id="ytick_5">
     <g id="line2d_15">
      <path clip-path="url(#p3d6d218d45)" d="M 62.89875 335.984205 
L 1178.89875 335.984205 
" style="fill:none;stroke:#b0b0b0;stroke-linecap:square;stroke-width:0.8;"/>
     </g>
     <g id="line2d_16">
      <g>
       <use style="stroke:#000000;stroke-width:0.8;" x="62.89875" xlink:href="#mb2b2a18d16" y="335.984205"/>
      </g>
     </g>
     <g id="text_11">
      <!-- 400 -->
      <g transform="translate(31.085 340.92319)scale(0.13 -0.13)">
       <use xlink:href="#DejaVuSans-52"/>
       <use x="63.623047" xlink:href="#DejaVuSans-48"/>
       <use x="127.246094" xlink:href="#DejaVuSans-48"/>
      </g>
     </g>
    </g>
    <g id="ytick_6">
     <g id="line2d_17">
      <path clip-path="url(#p3d6d218d45)" d="M 62.89875 300.001403 
L 1178.89875 300.001403 
" style="fill:none;stroke:#b0b0b0;stroke-linecap:square;stroke-width:0.8;"/>
     </g>
     <g id="line2d_18">
      <g>
       <use style="stroke:#000000;stroke-width:0.8;" x="62.89875" xlink:href="#mb2b2a18d16" y="300.001403"/>
      </g>
     </g>
     <g id="text_12">
      <!-- 500 -->
      <g transform="translate(31.085 304.940387)scale(0.13 -0.13)">
       <use xlink:href="#DejaVuSans-53"/>
       <use x="63.623047" xlink:href="#DejaVuSans-48"/>
       <use x="127.246094" xlink:href="#DejaVuSans-48"/>
      </g>
     </g>
    </g>
    <g id="ytick_7">
     <g id="line2d_19">
      <path clip-path="url(#p3d6d218d45)" d="M 62.89875 264.018601 
L 1178.89875 264.018601 
" style="fill:none;stroke:#b0b0b0;stroke-linecap:square;stroke-width:0.8;"/>
     </g>
     <g id="line2d_20">
      <g>
       <use style="stroke:#000000;stroke-width:0.8;" x="62.89875" xlink:href="#mb2b2a18d16" y="264.018601"/>
      </g>
     </g>
     <g id="text_13">
      <!-- 600 -->
      <g transform="translate(31.085 268.957585)scale(0.13 -0.13)">
       <use xlink:href="#DejaVuSans-54"/>
       <use x="63.623047" xlink:href="#DejaVuSans-48"/>
       <use x="127.246094" xlink:href="#DejaVuSans-48"/>
      </g>
     </g>
    </g>
    <g id="ytick_8">
     <g id="line2d_21">
      <path clip-path="url(#p3d6d218d45)" d="M 62.89875 228.035798 
L 1178.89875 228.035798 
" style="fill:none;stroke:#b0b0b0;stroke-linecap:square;stroke-width:0.8;"/>
     </g>
     <g id="line2d_22">
      <g>
       <use style="stroke:#000000;stroke-width:0.8;" x="62.89875" xlink:href="#mb2b2a18d16" y="228.035798"/>
      </g>
     </g>
     <g id="text_14">
      <!-- 700 -->
      <g transform="translate(31.085 232.974783)scale(0.13 -0.13)">
       <use xlink:href="#DejaVuSans-55"/>
       <use x="63.623047" xlink:href="#DejaVuSans-48"/>
       <use x="127.246094" xlink:href="#DejaVuSans-48"/>
      </g>
     </g>
    </g>
    <g id="ytick_9">
     <g id="line2d_23">
      <path clip-path="url(#p3d6d218d45)" d="M 62.89875 192.052996 
L 1178.89875 192.052996 
" style="fill:none;stroke:#b0b0b0;stroke-linecap:square;stroke-width:0.8;"/>
     </g>
     <g id="line2d_24">
      <g>
       <use style="stroke:#000000;stroke-width:0.8;" x="62.89875" xlink:href="#mb2b2a18d16" y="192.052996"/>
      </g>
     </g>
     <g id="text_15">
      <!-- 800 -->
      <g transform="translate(31.085 196.99198)scale(0.13 -0.13)">
       <use xlink:href="#DejaVuSans-56"/>
       <use x="63.623047" xlink:href="#DejaVuSans-48"/>
       <use x="127.246094" xlink:href="#DejaVuSans-48"/>
      </g>
     </g>
    </g>
    <g id="ytick_10">
     <g id="line2d_25">
      <path clip-path="url(#p3d6d218d45)" d="M 62.89875 156.070194 
L 1178.89875 156.070194 
" style="fill:none;stroke:#b0b0b0;stroke-linecap:square;stroke-width:0.8;"/>
     </g>
     <g id="line2d_26">
      <g>
       <use style="stroke:#000000;stroke-width:0.8;" x="62.89875" xlink:href="#mb2b2a18d16" y="156.070194"/>
      </g>
     </g>
     <g id="text_16">
      <!-- 900 -->
      <g transform="translate(31.085 161.009178)scale(0.13 -0.13)">
       <use xlink:href="#DejaVuSans-57"/>
       <use x="63.623047" xlink:href="#DejaVuSans-48"/>
       <use x="127.246094" xlink:href="#DejaVuSans-48"/>
      </g>
     </g>
    </g>
    <g id="ytick_11">
     <g id="line2d_27">
      <path clip-path="url(#p3d6d218d45)" d="M 62.89875 120.087391 
L 1178.89875 120.087391 
" style="fill:none;stroke:#b0b0b0;stroke-linecap:square;stroke-width:0.8;"/>
     </g>
     <g id="line2d_28">
      <g>
       <use style="stroke:#000000;stroke-width:0.8;" x="62.89875" xlink:href="#mb2b2a18d16" y="120.087391"/>
      </g>
     </g>
     <g id="text_17">
      <!-- 1000 -->
      <g transform="translate(22.81375 125.026376)scale(0.13 -0.13)">
       <use xlink:href="#DejaVuSans-49"/>
       <use x="63.623047" xlink:href="#DejaVuSans-48"/>
       <use x="127.246094" xlink:href="#DejaVuSans-48"/>
       <use x="190.869141" xlink:href="#DejaVuSans-48"/>
      </g>
     </g>
    </g>
    <g id="ytick_12">
     <g id="line2d_29">
      <path clip-path="url(#p3d6d218d45)" d="M 62.89875 84.104589 
L 1178.89875 84.104589 
" style="fill:none;stroke:#b0b0b0;stroke-linecap:square;stroke-width:0.8;"/>
     </g>
     <g id="line2d_30">
      <g>
       <use style="stroke:#000000;stroke-width:0.8;" x="62.89875" xlink:href="#mb2b2a18d16" y="84.104589"/>
      </g>
     </g>
     <g id="text_18">
      <!-- 1100 -->
      <g transform="translate(22.81375 89.043573)scale(0.13 -0.13)">
       <use xlink:href="#DejaVuSans-49"/>
       <use x="63.623047" xlink:href="#DejaVuSans-49"/>
       <use x="127.246094" xlink:href="#DejaVuSans-48"/>
       <use x="190.869141" xlink:href="#DejaVuSans-48"/>
      </g>
     </g>
    </g>
    <g id="ytick_13">
     <g id="line2d_31">
      <path clip-path="url(#p3d6d218d45)" d="M 62.89875 48.121787 
L 1178.89875 48.121787 
" style="fill:none;stroke:#b0b0b0;stroke-linecap:square;stroke-width:0.8;"/>
     </g>
     <g id="line2d_32">
      <g>
       <use style="stroke:#000000;stroke-width:0.8;" x="62.89875" xlink:href="#mb2b2a18d16" y="48.121787"/>
      </g>
     </g>
     <g id="text_19">
      <!-- 1200 -->
      <g transform="translate(22.81375 53.060771)scale(0.13 -0.13)">
       <use xlink:href="#DejaVuSans-49"/>
       <use x="63.623047" xlink:href="#DejaVuSans-50"/>
       <use x="127.246094" xlink:href="#DejaVuSans-48"/>
       <use x="190.869141" xlink:href="#DejaVuSans-48"/>
      </g>
     </g>
    </g>
    <g id="ytick_14">
     <g id="line2d_33">
      <path clip-path="url(#p3d6d218d45)" d="M 62.89875 12.138984 
L 1178.89875 12.138984 
" style="fill:none;stroke:#b0b0b0;stroke-linecap:square;stroke-width:0.8;"/>
     </g>
     <g id="line2d_34">
      <g>
       <use style="stroke:#000000;stroke-width:0.8;" x="62.89875" xlink:href="#mb2b2a18d16" y="12.138984"/>
      </g>
     </g>
     <g id="text_20">
      <!-- 1300 -->
      <g transform="translate(22.81375 17.077969)scale(0.13 -0.13)">
       <use xlink:href="#DejaVuSans-49"/>
       <use x="63.623047" xlink:href="#DejaVuSans-51"/>
       <use x="127.246094" xlink:href="#DejaVuSans-48"/>
       <use x="190.869141" xlink:href="#DejaVuSans-48"/>
      </g>
     </g>
    </g>
    <g id="text_21">
     <!-- Anzahl von Fällen -->
     <defs>
      <path d="M 34.1875 63.1875 
L 20.796875 26.90625 
L 47.609375 26.90625 
z
M 28.609375 72.90625 
L 39.796875 72.90625 
L 67.578125 0 
L 57.328125 0 
L 50.6875 18.703125 
L 17.828125 18.703125 
L 11.1875 0 
L 0.78125 0 
z
" id="DejaVuSans-65"/>
      <path d="M 54.890625 33.015625 
L 54.890625 0 
L 45.90625 0 
L 45.90625 32.71875 
Q 45.90625 40.484375 42.875 44.328125 
Q 39.84375 48.1875 33.796875 48.1875 
Q 26.515625 48.1875 22.3125 43.546875 
Q 18.109375 38.921875 18.109375 30.90625 
L 18.109375 0 
L 9.078125 0 
L 9.078125 54.6875 
L 18.109375 54.6875 
L 18.109375 46.1875 
Q 21.34375 51.125 25.703125 53.5625 
Q 30.078125 56 35.796875 56 
Q 45.21875 56 50.046875 50.171875 
Q 54.890625 44.34375 54.890625 33.015625 
z
" id="DejaVuSans-110"/>
      <path d="M 5.515625 54.6875 
L 48.1875 54.6875 
L 48.1875 46.484375 
L 14.40625 7.171875 
L 48.1875 7.171875 
L 48.1875 0 
L 4.296875 0 
L 4.296875 8.203125 
L 38.09375 47.515625 
L 5.515625 47.515625 
z
" id="DejaVuSans-122"/>
      <path d="M 34.28125 27.484375 
Q 23.390625 27.484375 19.1875 25 
Q 14.984375 22.515625 14.984375 16.5 
Q 14.984375 11.71875 18.140625 8.90625 
Q 21.296875 6.109375 26.703125 6.109375 
Q 34.1875 6.109375 38.703125 11.40625 
Q 43.21875 16.703125 43.21875 25.484375 
L 43.21875 27.484375 
z
M 52.203125 31.203125 
L 52.203125 0 
L 43.21875 0 
L 43.21875 8.296875 
Q 40.140625 3.328125 35.546875 0.953125 
Q 30.953125 -1.421875 24.3125 -1.421875 
Q 15.921875 -1.421875 10.953125 3.296875 
Q 6 8.015625 6 15.921875 
Q 6 25.140625 12.171875 29.828125 
Q 18.359375 34.515625 30.609375 34.515625 
L 43.21875 34.515625 
L 43.21875 35.40625 
Q 43.21875 41.609375 39.140625 45 
Q 35.0625 48.390625 27.6875 48.390625 
Q 23 48.390625 18.546875 47.265625 
Q 14.109375 46.140625 10.015625 43.890625 
L 10.015625 52.203125 
Q 14.9375 54.109375 19.578125 55.046875 
Q 24.21875 56 28.609375 56 
Q 40.484375 56 46.34375 49.84375 
Q 52.203125 43.703125 52.203125 31.203125 
z
" id="DejaVuSans-97"/>
      <path d="M 54.890625 33.015625 
L 54.890625 0 
L 45.90625 0 
L 45.90625 32.71875 
Q 45.90625 40.484375 42.875 44.328125 
Q 39.84375 48.1875 33.796875 48.1875 
Q 26.515625 48.1875 22.3125 43.546875 
Q 18.109375 38.921875 18.109375 30.90625 
L 18.109375 0 
L 9.078125 0 
L 9.078125 75.984375 
L 18.109375 75.984375 
L 18.109375 46.1875 
Q 21.34375 51.125 25.703125 53.5625 
Q 30.078125 56 35.796875 56 
Q 45.21875 56 50.046875 50.171875 
Q 54.890625 44.34375 54.890625 33.015625 
z
" id="DejaVuSans-104"/>
      <path d="M 9.421875 75.984375 
L 18.40625 75.984375 
L 18.40625 0 
L 9.421875 0 
z
" id="DejaVuSans-108"/>
      <path id="DejaVuSans-32"/>
      <path d="M 2.984375 54.6875 
L 12.5 54.6875 
L 29.59375 8.796875 
L 46.6875 54.6875 
L 56.203125 54.6875 
L 35.6875 0 
L 23.484375 0 
z
" id="DejaVuSans-118"/>
      <path d="M 30.609375 48.390625 
Q 23.390625 48.390625 19.1875 42.75 
Q 14.984375 37.109375 14.984375 27.296875 
Q 14.984375 17.484375 19.15625 11.84375 
Q 23.34375 6.203125 30.609375 6.203125 
Q 37.796875 6.203125 41.984375 11.859375 
Q 46.1875 17.53125 46.1875 27.296875 
Q 46.1875 37.015625 41.984375 42.703125 
Q 37.796875 48.390625 30.609375 48.390625 
z
M 30.609375 56 
Q 42.328125 56 49.015625 48.375 
Q 55.71875 40.765625 55.71875 27.296875 
Q 55.71875 13.875 49.015625 6.21875 
Q 42.328125 -1.421875 30.609375 -1.421875 
Q 18.84375 -1.421875 12.171875 6.21875 
Q 5.515625 13.875 5.515625 27.296875 
Q 5.515625 40.765625 12.171875 48.375 
Q 18.84375 56 30.609375 56 
z
" id="DejaVuSans-111"/>
      <path d="M 9.8125 72.90625 
L 51.703125 72.90625 
L 51.703125 64.59375 
L 19.671875 64.59375 
L 19.671875 43.109375 
L 48.578125 43.109375 
L 48.578125 34.8125 
L 19.671875 34.8125 
L 19.671875 0 
L 9.8125 0 
z
" id="DejaVuSans-70"/>
      <path d="M 34.28125 27.484375 
Q 23.390625 27.484375 19.1875 25 
Q 14.984375 22.515625 14.984375 16.5 
Q 14.984375 11.71875 18.140625 8.90625 
Q 21.296875 6.109375 26.703125 6.109375 
Q 34.1875 6.109375 38.703125 11.40625 
Q 43.21875 16.703125 43.21875 25.484375 
L 43.21875 27.484375 
z
M 52.203125 31.203125 
L 52.203125 0 
L 43.21875 0 
L 43.21875 8.296875 
Q 40.140625 3.328125 35.546875 0.953125 
Q 30.953125 -1.421875 24.3125 -1.421875 
Q 15.921875 -1.421875 10.953125 3.296875 
Q 6 8.015625 6 15.921875 
Q 6 25.140625 12.171875 29.828125 
Q 18.359375 34.515625 30.609375 34.515625 
L 43.21875 34.515625 
L 43.21875 35.40625 
Q 43.21875 41.609375 39.140625 45 
Q 35.0625 48.390625 27.6875 48.390625 
Q 23 48.390625 18.546875 47.265625 
Q 14.109375 46.140625 10.015625 43.890625 
L 10.015625 52.203125 
Q 14.9375 54.109375 19.578125 55.046875 
Q 24.21875 56 28.609375 56 
Q 40.484375 56 46.34375 49.84375 
Q 52.203125 43.703125 52.203125 31.203125 
z
M 33.59375 75.78125 
L 43.5 75.78125 
L 43.5 65.921875 
L 33.59375 65.921875 
z
M 14.5 75.78125 
L 24.40625 75.78125 
L 24.40625 65.921875 
L 14.5 65.921875 
z
" id="DejaVuSans-228"/>
      <path d="M 56.203125 29.59375 
L 56.203125 25.203125 
L 14.890625 25.203125 
Q 15.484375 15.921875 20.484375 11.0625 
Q 25.484375 6.203125 34.421875 6.203125 
Q 39.59375 6.203125 44.453125 7.46875 
Q 49.3125 8.734375 54.109375 11.28125 
L 54.109375 2.78125 
Q 49.265625 0.734375 44.1875 -0.34375 
Q 39.109375 -1.421875 33.890625 -1.421875 
Q 20.796875 -1.421875 13.15625 6.1875 
Q 5.515625 13.8125 5.515625 26.8125 
Q 5.515625 40.234375 12.765625 48.109375 
Q 20.015625 56 32.328125 56 
Q 43.359375 56 49.78125 48.890625 
Q 56.203125 41.796875 56.203125 29.59375 
z
M 47.21875 32.234375 
Q 47.125 39.59375 43.09375 43.984375 
Q 39.0625 48.390625 32.421875 48.390625 
Q 24.90625 48.390625 20.390625 44.140625 
Q 15.875 39.890625 15.1875 32.171875 
z
" id="DejaVuSans-101"/>
     </defs>
     <g transform="translate(16.318125 309.388359)rotate(-90)scale(0.12 -0.12)">
      <use xlink:href="#DejaVuSans-65"/>
      <use x="68.408203" xlink:href="#DejaVuSans-110"/>
      <use x="131.787109" xlink:href="#DejaVuSans-122"/>
      <use x="184.277344" xlink:href="#DejaVuSans-97"/>
      <use x="245.556641" xlink:href="#DejaVuSans-104"/>
      <use x="308.935547" xlink:href="#DejaVuSans-108"/>
      <use x="336.71875" xlink:href="#DejaVuSans-32"/>
      <use x="368.505859" xlink:href="#DejaVuSans-118"/>
      <use x="427.685547" xlink:href="#DejaVuSans-111"/>
      <use x="488.867188" xlink:href="#DejaVuSans-110"/>
      <use x="552.246094" xlink:href="#DejaVuSans-32"/>
      <use x="584.033203" xlink:href="#DejaVuSans-70"/>
      <use x="632.427734" xlink:href="#DejaVuSans-228"/>
      <use x="693.707031" xlink:href="#DejaVuSans-108"/>
      <use x="721.490234" xlink:href="#DejaVuSans-108"/>
      <use x="749.273438" xlink:href="#DejaVuSans-101"/>
      <use x="810.796875" xlink:href="#DejaVuSans-110"/>
     </g>
    </g>
   </g>
   <g id="line2d_35">
    <path clip-path="url(#p3d6d218d45)" d="M 113.626023 479.915415 
L 147.072576 479.915415 
L 158.221427 478.835931 
L 163.795853 475.957307 
L 169.370278 475.957307 
L 174.944704 475.597478 
L 180.51913 474.517994 
L 186.093555 469.120574 
L 191.667981 465.162466 
L 197.242406 463.003498 
L 202.816832 459.045389 
L 208.391257 452.928313 
L 213.965683 451.129173 
L 219.540109 442.853128 
L 225.114534 425.941211 
L 230.68896 415.506199 
L 236.263385 408.669466 
L 241.837811 401.472906 
L 247.412237 391.397721 
L 252.986662 384.920817 
L 258.561088 378.80374 
L 264.135513 369.088384 
L 269.709939 363.690963 
L 275.284364 353.975607 
L 286.433216 345.699562 
L 297.582067 339.222658 
L 303.156492 323.030397 
L 308.730918 323.030397 
L 314.305343 300.001403 
L 319.879769 289.926218 
L 331.02862 268.336537 
L 336.603046 262.219461 
L 342.177471 261.499805 
L 347.751897 244.947715 
L 353.326322 245.667372 
L 358.900748 239.190467 
L 370.049599 234.152875 
L 381.19845 225.517002 
L 386.772876 219.759754 
L 397.921727 213.642677 
L 409.070578 211.843537 
L 414.645004 209.324741 
L 420.219429 205.726461 
L 425.793855 200.329041 
L 431.36828 195.291448 
L 436.942706 194.93162 
L 448.091557 192.412824 
L 453.665983 188.814544 
L 459.240408 187.73506 
L 464.814834 186.295748 
L 475.963685 182.697467 
L 492.686962 181.617983 
L 498.261387 178.379531 
L 509.410239 172.982111 
L 514.984664 171.182971 
L 526.133515 159.308646 
L 531.707941 156.070194 
L 542.856792 144.915525 
L 548.431218 144.915525 
L 570.72892 142.036901 
L 576.303345 142.036901 
L 581.877771 140.957417 
L 587.452197 130.162576 
L 593.026622 130.162576 
L 604.175473 122.966016 
L 609.749899 111.091691 
L 615.324324 105.334442 
L 626.473176 102.455818 
L 632.047601 101.376334 
L 643.196452 99.937022 
L 654.345303 97.418226 
L 665.494155 96.338742 
L 671.06858 96.338742 
L 682.217431 95.619086 
L 693.366282 95.619086 
L 698.940708 95.259258 
L 726.812836 95.259258 
L 732.387261 94.179774 
L 737.961687 94.179774 
L 743.536113 93.819946 
L 799.280368 93.819946 
L 810.42922 91.660978 
L 843.875773 91.660978 
L 849.450199 91.30115 
L 855.024624 90.221665 
L 860.59905 89.861837 
L 877.322326 89.502009 
L 888.471178 89.502009 
L 894.045603 87.343041 
L 899.620029 87.343041 
L 955.364284 78.707169 
L 960.93871 78.347341 
L 972.087561 76.188373 
L 977.661987 76.188373 
L 994.385263 73.309748 
L 999.959689 73.309748 
L 1005.534115 72.230264 
L 1011.10854 70.431124 
L 1016.682966 70.071296 
L 1033.406243 67.192672 
L 1038.980668 65.75336 
L 1044.555094 65.75336 
L 1050.129519 63.95422 
L 1055.703945 63.234564 
L 1072.427222 63.234564 
L 1078.001647 54.958519 
L 1083.576073 53.519207 
L 1089.150498 50.640583 
L 1094.724924 47.402131 
L 1111.448201 46.682475 
L 1117.022626 46.322647 
L 1122.597052 46.322647 
L 1128.171477 43.444022 
L 1128.171477 43.444022 
" style="fill:none;stroke:#dbcd00;stroke-linecap:square;stroke-width:2;"/>
    <defs>
     <path d="M 0 1.5 
C 0.397805 1.5 0.77937 1.341951 1.06066 1.06066 
C 1.341951 0.77937 1.5 0.397805 1.5 0 
C 1.5 -0.397805 1.341951 -0.77937 1.06066 -1.06066 
C 0.77937 -1.341951 0.397805 -1.5 0 -1.5 
C -0.397805 -1.5 -0.77937 -1.341951 -1.06066 -1.06066 
C -1.341951 -0.77937 -1.5 -0.397805 -1.5 0 
C -1.5 0.397805 -1.341951 0.77937 -1.06066 1.06066 
C -0.77937 1.341951 -0.397805 1.5 0 1.5 
z
" id="m4dead25275" style="stroke:#dbcd00;"/>
    </defs>
    <g clip-path="url(#p3d6d218d45)">
     <use style="fill:#dbcd00;stroke:#dbcd00;" x="113.626023" xlink:href="#m4dead25275" y="479.915415"/>
     <use style="fill:#dbcd00;stroke:#dbcd00;" x="119.200448" xlink:href="#m4dead25275" y="479.915415"/>
     <use style="fill:#dbcd00;stroke:#dbcd00;" x="124.774874" xlink:href="#m4dead25275" y="479.915415"/>
     <use style="fill:#dbcd00;stroke:#dbcd00;" x="130.349299" xlink:href="#m4dead25275" y="479.915415"/>
     <use style="fill:#dbcd00;stroke:#dbcd00;" x="135.923725" xlink:href="#m4dead25275" y="479.915415"/>
     <use style="fill:#dbcd00;stroke:#dbcd00;" x="141.498151" xlink:href="#m4dead25275" y="479.915415"/>
     <use style="fill:#dbcd00;stroke:#dbcd00;" x="147.072576" xlink:href="#m4dead25275" y="479.915415"/>
     <use style="fill:#dbcd00;stroke:#dbcd00;" x="158.221427" xlink:href="#m4dead25275" y="478.835931"/>
     <use style="fill:#dbcd00;stroke:#dbcd00;" x="163.795853" xlink:href="#m4dead25275" y="475.957307"/>
     <use style="fill:#dbcd00;stroke:#dbcd00;" x="169.370278" xlink:href="#m4dead25275" y="475.957307"/>
     <use style="fill:#dbcd00;stroke:#dbcd00;" x="174.944704" xlink:href="#m4dead25275" y="475.597478"/>
     <use style="fill:#dbcd00;stroke:#dbcd00;" x="180.51913" xlink:href="#m4dead25275" y="474.517994"/>
     <use style="fill:#dbcd00;stroke:#dbcd00;" x="186.093555" xlink:href="#m4dead25275" y="469.120574"/>
     <use style="fill:#dbcd00;stroke:#dbcd00;" x="191.667981" xlink:href="#m4dead25275" y="465.162466"/>
     <use style="fill:#dbcd00;stroke:#dbcd00;" x="197.242406" xlink:href="#m4dead25275" y="463.003498"/>
     <use style="fill:#dbcd00;stroke:#dbcd00;" x="202.816832" xlink:href="#m4dead25275" y="459.045389"/>
     <use style="fill:#dbcd00;stroke:#dbcd00;" x="208.391257" xlink:href="#m4dead25275" y="452.928313"/>
     <use style="fill:#dbcd00;stroke:#dbcd00;" x="213.965683" xlink:href="#m4dead25275" y="451.129173"/>
     <use style="fill:#dbcd00;stroke:#dbcd00;" x="219.540109" xlink:href="#m4dead25275" y="442.853128"/>
     <use style="fill:#dbcd00;stroke:#dbcd00;" x="225.114534" xlink:href="#m4dead25275" y="425.941211"/>
     <use style="fill:#dbcd00;stroke:#dbcd00;" x="230.68896" xlink:href="#m4dead25275" y="415.506199"/>
     <use style="fill:#dbcd00;stroke:#dbcd00;" x="236.263385" xlink:href="#m4dead25275" y="408.669466"/>
     <use style="fill:#dbcd00;stroke:#dbcd00;" x="241.837811" xlink:href="#m4dead25275" y="401.472906"/>
     <use style="fill:#dbcd00;stroke:#dbcd00;" x="247.412237" xlink:href="#m4dead25275" y="391.397721"/>
     <use style="fill:#dbcd00;stroke:#dbcd00;" x="252.986662" xlink:href="#m4dead25275" y="384.920817"/>
     <use style="fill:#dbcd00;stroke:#dbcd00;" x="258.561088" xlink:href="#m4dead25275" y="378.80374"/>
     <use style="fill:#dbcd00;stroke:#dbcd00;" x="264.135513" xlink:href="#m4dead25275" y="369.088384"/>
     <use style="fill:#dbcd00;stroke:#dbcd00;" x="269.709939" xlink:href="#m4dead25275" y="363.690963"/>
     <use style="fill:#dbcd00;stroke:#dbcd00;" x="275.284364" xlink:href="#m4dead25275" y="353.975607"/>
     <use style="fill:#dbcd00;stroke:#dbcd00;" x="286.433216" xlink:href="#m4dead25275" y="345.699562"/>
     <use style="fill:#dbcd00;stroke:#dbcd00;" x="297.582067" xlink:href="#m4dead25275" y="339.222658"/>
     <use style="fill:#dbcd00;stroke:#dbcd00;" x="303.156492" xlink:href="#m4dead25275" y="323.030397"/>
     <use style="fill:#dbcd00;stroke:#dbcd00;" x="308.730918" xlink:href="#m4dead25275" y="323.030397"/>
     <use style="fill:#dbcd00;stroke:#dbcd00;" x="314.305343" xlink:href="#m4dead25275" y="300.001403"/>
     <use style="fill:#dbcd00;stroke:#dbcd00;" x="319.879769" xlink:href="#m4dead25275" y="289.926218"/>
     <use style="fill:#dbcd00;stroke:#dbcd00;" x="331.02862" xlink:href="#m4dead25275" y="268.336537"/>
     <use style="fill:#dbcd00;stroke:#dbcd00;" x="336.603046" xlink:href="#m4dead25275" y="262.219461"/>
     <use style="fill:#dbcd00;stroke:#dbcd00;" x="342.177471" xlink:href="#m4dead25275" y="261.499805"/>
     <use style="fill:#dbcd00;stroke:#dbcd00;" x="347.751897" xlink:href="#m4dead25275" y="244.947715"/>
     <use style="fill:#dbcd00;stroke:#dbcd00;" x="353.326322" xlink:href="#m4dead25275" y="245.667372"/>
     <use style="fill:#dbcd00;stroke:#dbcd00;" x="358.900748" xlink:href="#m4dead25275" y="239.190467"/>
     <use style="fill:#dbcd00;stroke:#dbcd00;" x="370.049599" xlink:href="#m4dead25275" y="234.152875"/>
     <use style="fill:#dbcd00;stroke:#dbcd00;" x="375.624025" xlink:href="#m4dead25275" y="229.834939"/>
     <use style="fill:#dbcd00;stroke:#dbcd00;" x="381.19845" xlink:href="#m4dead25275" y="225.517002"/>
     <use style="fill:#dbcd00;stroke:#dbcd00;" x="386.772876" xlink:href="#m4dead25275" y="219.759754"/>
     <use style="fill:#dbcd00;stroke:#dbcd00;" x="397.921727" xlink:href="#m4dead25275" y="213.642677"/>
     <use style="fill:#dbcd00;stroke:#dbcd00;" x="409.070578" xlink:href="#m4dead25275" y="211.843537"/>
     <use style="fill:#dbcd00;stroke:#dbcd00;" x="414.645004" xlink:href="#m4dead25275" y="209.324741"/>
     <use style="fill:#dbcd00;stroke:#dbcd00;" x="420.219429" xlink:href="#m4dead25275" y="205.726461"/>
     <use style="fill:#dbcd00;stroke:#dbcd00;" x="425.793855" xlink:href="#m4dead25275" y="200.329041"/>
     <use style="fill:#dbcd00;stroke:#dbcd00;" x="431.36828" xlink:href="#m4dead25275" y="195.291448"/>
     <use style="fill:#dbcd00;stroke:#dbcd00;" x="436.942706" xlink:href="#m4dead25275" y="194.93162"/>
     <use style="fill:#dbcd00;stroke:#dbcd00;" x="448.091557" xlink:href="#m4dead25275" y="192.412824"/>
     <use style="fill:#dbcd00;stroke:#dbcd00;" x="453.665983" xlink:href="#m4dead25275" y="188.814544"/>
     <use style="fill:#dbcd00;stroke:#dbcd00;" x="459.240408" xlink:href="#m4dead25275" y="187.73506"/>
     <use style="fill:#dbcd00;stroke:#dbcd00;" x="464.814834" xlink:href="#m4dead25275" y="186.295748"/>
     <use style="fill:#dbcd00;stroke:#dbcd00;" x="470.389259" xlink:href="#m4dead25275" y="184.496608"/>
     <use style="fill:#dbcd00;stroke:#dbcd00;" x="475.963685" xlink:href="#m4dead25275" y="182.697467"/>
     <use style="fill:#dbcd00;stroke:#dbcd00;" x="487.112536" xlink:href="#m4dead25275" y="181.977811"/>
     <use style="fill:#dbcd00;stroke:#dbcd00;" x="492.686962" xlink:href="#m4dead25275" y="181.617983"/>
     <use style="fill:#dbcd00;stroke:#dbcd00;" x="498.261387" xlink:href="#m4dead25275" y="178.379531"/>
     <use style="fill:#dbcd00;stroke:#dbcd00;" x="509.410239" xlink:href="#m4dead25275" y="172.982111"/>
     <use style="fill:#dbcd00;stroke:#dbcd00;" x="514.984664" xlink:href="#m4dead25275" y="171.182971"/>
     <use style="fill:#dbcd00;stroke:#dbcd00;" x="526.133515" xlink:href="#m4dead25275" y="159.308646"/>
     <use style="fill:#dbcd00;stroke:#dbcd00;" x="531.707941" xlink:href="#m4dead25275" y="156.070194"/>
     <use style="fill:#dbcd00;stroke:#dbcd00;" x="542.856792" xlink:href="#m4dead25275" y="144.915525"/>
     <use style="fill:#dbcd00;stroke:#dbcd00;" x="548.431218" xlink:href="#m4dead25275" y="144.915525"/>
     <use style="fill:#dbcd00;stroke:#dbcd00;" x="570.72892" xlink:href="#m4dead25275" y="142.036901"/>
     <use style="fill:#dbcd00;stroke:#dbcd00;" x="576.303345" xlink:href="#m4dead25275" y="142.036901"/>
     <use style="fill:#dbcd00;stroke:#dbcd00;" x="581.877771" xlink:href="#m4dead25275" y="140.957417"/>
     <use style="fill:#dbcd00;stroke:#dbcd00;" x="587.452197" xlink:href="#m4dead25275" y="130.162576"/>
     <use style="fill:#dbcd00;stroke:#dbcd00;" x="593.026622" xlink:href="#m4dead25275" y="130.162576"/>
     <use style="fill:#dbcd00;stroke:#dbcd00;" x="604.175473" xlink:href="#m4dead25275" y="122.966016"/>
     <use style="fill:#dbcd00;stroke:#dbcd00;" x="609.749899" xlink:href="#m4dead25275" y="111.091691"/>
     <use style="fill:#dbcd00;stroke:#dbcd00;" x="615.324324" xlink:href="#m4dead25275" y="105.334442"/>
     <use style="fill:#dbcd00;stroke:#dbcd00;" x="626.473176" xlink:href="#m4dead25275" y="102.455818"/>
     <use style="fill:#dbcd00;stroke:#dbcd00;" x="632.047601" xlink:href="#m4dead25275" y="101.376334"/>
     <use style="fill:#dbcd00;stroke:#dbcd00;" x="643.196452" xlink:href="#m4dead25275" y="99.937022"/>
     <use style="fill:#dbcd00;stroke:#dbcd00;" x="654.345303" xlink:href="#m4dead25275" y="97.418226"/>
     <use style="fill:#dbcd00;stroke:#dbcd00;" x="665.494155" xlink:href="#m4dead25275" y="96.338742"/>
     <use style="fill:#dbcd00;stroke:#dbcd00;" x="671.06858" xlink:href="#m4dead25275" y="96.338742"/>
     <use style="fill:#dbcd00;stroke:#dbcd00;" x="682.217431" xlink:href="#m4dead25275" y="95.619086"/>
     <use style="fill:#dbcd00;stroke:#dbcd00;" x="687.791857" xlink:href="#m4dead25275" y="95.619086"/>
     <use style="fill:#dbcd00;stroke:#dbcd00;" x="693.366282" xlink:href="#m4dead25275" y="95.619086"/>
     <use style="fill:#dbcd00;stroke:#dbcd00;" x="698.940708" xlink:href="#m4dead25275" y="95.259258"/>
     <use style="fill:#dbcd00;stroke:#dbcd00;" x="710.089559" xlink:href="#m4dead25275" y="95.259258"/>
     <use style="fill:#dbcd00;stroke:#dbcd00;" x="721.23841" xlink:href="#m4dead25275" y="95.259258"/>
     <use style="fill:#dbcd00;stroke:#dbcd00;" x="726.812836" xlink:href="#m4dead25275" y="95.259258"/>
     <use style="fill:#dbcd00;stroke:#dbcd00;" x="732.387261" xlink:href="#m4dead25275" y="94.179774"/>
     <use style="fill:#dbcd00;stroke:#dbcd00;" x="737.961687" xlink:href="#m4dead25275" y="94.179774"/>
     <use style="fill:#dbcd00;stroke:#dbcd00;" x="743.536113" xlink:href="#m4dead25275" y="93.819946"/>
     <use style="fill:#dbcd00;stroke:#dbcd00;" x="749.110538" xlink:href="#m4dead25275" y="93.819946"/>
     <use style="fill:#dbcd00;stroke:#dbcd00;" x="760.259389" xlink:href="#m4dead25275" y="93.819946"/>
     <use style="fill:#dbcd00;stroke:#dbcd00;" x="765.833815" xlink:href="#m4dead25275" y="93.819946"/>
     <use style="fill:#dbcd00;stroke:#dbcd00;" x="771.408241" xlink:href="#m4dead25275" y="93.819946"/>
     <use style="fill:#dbcd00;stroke:#dbcd00;" x="776.982666" xlink:href="#m4dead25275" y="93.819946"/>
     <use style="fill:#dbcd00;stroke:#dbcd00;" x="782.557092" xlink:href="#m4dead25275" y="93.819946"/>
     <use style="fill:#dbcd00;stroke:#dbcd00;" x="799.280368" xlink:href="#m4dead25275" y="93.819946"/>
     <use style="fill:#dbcd00;stroke:#dbcd00;" x="804.854794" xlink:href="#m4dead25275" y="92.740462"/>
     <use style="fill:#dbcd00;stroke:#dbcd00;" x="810.42922" xlink:href="#m4dead25275" y="91.660978"/>
     <use style="fill:#dbcd00;stroke:#dbcd00;" x="816.003645" xlink:href="#m4dead25275" y="91.660978"/>
     <use style="fill:#dbcd00;stroke:#dbcd00;" x="821.578071" xlink:href="#m4dead25275" y="91.660978"/>
     <use style="fill:#dbcd00;stroke:#dbcd00;" x="838.301347" xlink:href="#m4dead25275" y="91.660978"/>
     <use style="fill:#dbcd00;stroke:#dbcd00;" x="843.875773" xlink:href="#m4dead25275" y="91.660978"/>
     <use style="fill:#dbcd00;stroke:#dbcd00;" x="849.450199" xlink:href="#m4dead25275" y="91.30115"/>
     <use style="fill:#dbcd00;stroke:#dbcd00;" x="855.024624" xlink:href="#m4dead25275" y="90.221665"/>
     <use style="fill:#dbcd00;stroke:#dbcd00;" x="860.59905" xlink:href="#m4dead25275" y="89.861837"/>
     <use style="fill:#dbcd00;stroke:#dbcd00;" x="877.322326" xlink:href="#m4dead25275" y="89.502009"/>
     <use style="fill:#dbcd00;stroke:#dbcd00;" x="882.896752" xlink:href="#m4dead25275" y="89.502009"/>
     <use style="fill:#dbcd00;stroke:#dbcd00;" x="888.471178" xlink:href="#m4dead25275" y="89.502009"/>
     <use style="fill:#dbcd00;stroke:#dbcd00;" x="894.045603" xlink:href="#m4dead25275" y="87.343041"/>
     <use style="fill:#dbcd00;stroke:#dbcd00;" x="899.620029" xlink:href="#m4dead25275" y="87.343041"/>
     <use style="fill:#dbcd00;stroke:#dbcd00;" x="955.364284" xlink:href="#m4dead25275" y="78.707169"/>
     <use style="fill:#dbcd00;stroke:#dbcd00;" x="960.93871" xlink:href="#m4dead25275" y="78.347341"/>
     <use style="fill:#dbcd00;stroke:#dbcd00;" x="972.087561" xlink:href="#m4dead25275" y="76.188373"/>
     <use style="fill:#dbcd00;stroke:#dbcd00;" x="977.661987" xlink:href="#m4dead25275" y="76.188373"/>
     <use style="fill:#dbcd00;stroke:#dbcd00;" x="994.385263" xlink:href="#m4dead25275" y="73.309748"/>
     <use style="fill:#dbcd00;stroke:#dbcd00;" x="999.959689" xlink:href="#m4dead25275" y="73.309748"/>
     <use style="fill:#dbcd00;stroke:#dbcd00;" x="1005.534115" xlink:href="#m4dead25275" y="72.230264"/>
     <use style="fill:#dbcd00;stroke:#dbcd00;" x="1011.10854" xlink:href="#m4dead25275" y="70.431124"/>
     <use style="fill:#dbcd00;stroke:#dbcd00;" x="1016.682966" xlink:href="#m4dead25275" y="70.071296"/>
     <use style="fill:#dbcd00;stroke:#dbcd00;" x="1033.406243" xlink:href="#m4dead25275" y="67.192672"/>
     <use style="fill:#dbcd00;stroke:#dbcd00;" x="1038.980668" xlink:href="#m4dead25275" y="65.75336"/>
     <use style="fill:#dbcd00;stroke:#dbcd00;" x="1044.555094" xlink:href="#m4dead25275" y="65.75336"/>
     <use style="fill:#dbcd00;stroke:#dbcd00;" x="1050.129519" xlink:href="#m4dead25275" y="63.95422"/>
     <use style="fill:#dbcd00;stroke:#dbcd00;" x="1055.703945" xlink:href="#m4dead25275" y="63.234564"/>
     <use style="fill:#dbcd00;stroke:#dbcd00;" x="1072.427222" xlink:href="#m4dead25275" y="63.234564"/>
     <use style="fill:#dbcd00;stroke:#dbcd00;" x="1078.001647" xlink:href="#m4dead25275" y="54.958519"/>
     <use style="fill:#dbcd00;stroke:#dbcd00;" x="1083.576073" xlink:href="#m4dead25275" y="53.519207"/>
     <use style="fill:#dbcd00;stroke:#dbcd00;" x="1089.150498" xlink:href="#m4dead25275" y="50.640583"/>
     <use style="fill:#dbcd00;stroke:#dbcd00;" x="1094.724924" xlink:href="#m4dead25275" y="47.402131"/>
     <use style="fill:#dbcd00;stroke:#dbcd00;" x="1111.448201" xlink:href="#m4dead25275" y="46.682475"/>
     <use style="fill:#dbcd00;stroke:#dbcd00;" x="1117.022626" xlink:href="#m4dead25275" y="46.322647"/>
     <use style="fill:#dbcd00;stroke:#dbcd00;" x="1122.597052" xlink:href="#m4dead25275" y="46.322647"/>
     <use style="fill:#dbcd00;stroke:#dbcd00;" x="1128.171477" xlink:href="#m4dead25275" y="43.444022"/>
    </g>
   </g>
   <g id="line2d_36">
    <path clip-path="url(#p3d6d218d45)" d="M 113.626023 474.877822 
L 119.200448 470.200058 
L 124.774874 463.723154 
L 130.349299 450.409517 
L 135.923725 445.731753 
L 141.498151 435.656568 
L 147.072576 420.903619 
L 158.221427 390.318237 
L 163.795853 385.280645 
L 169.370278 382.40202 
L 174.944704 378.084084 
L 180.51913 375.20546 
L 186.093555 370.167868 
L 191.667981 363.331135 
L 197.242406 354.695263 
L 202.816832 349.65767 
L 208.391257 351.096982 
L 213.965683 349.297842 
L 219.540109 346.779046 
L 225.114534 347.85853 
L 230.68896 343.540594 
L 236.263385 335.264549 
L 241.837811 328.787645 
L 247.412237 333.825237 
L 252.986662 335.264549 
L 258.561088 335.264549 
L 264.135513 337.063689 
L 269.709939 332.026097 
L 275.284364 337.423518 
L 286.433216 344.620078 
L 297.582067 344.620078 
L 303.156492 359.732855 
L 308.730918 355.774747 
L 314.305343 373.40632 
L 319.879769 380.60288 
L 331.02862 400.393422 
L 336.603046 406.15067 
L 342.177471 403.631874 
L 347.751897 418.024995 
L 353.326322 414.426715 
L 358.900748 419.104479 
L 370.049599 422.702759 
L 381.19845 430.618976 
L 386.772876 436.376224 
L 397.921727 440.334332 
L 409.070578 440.69416 
L 414.645004 442.4933 
L 420.219429 445.371925 
L 425.793855 446.811237 
L 431.36828 450.409517 
L 436.942706 447.171065 
L 448.091557 443.932612 
L 453.665983 446.091581 
L 459.240408 435.656568 
L 464.814834 433.137772 
L 470.389259 434.217256 
L 475.963685 434.936912 
L 487.112536 430.618976 
L 492.686962 430.978804 
L 498.261387 434.217256 
L 509.410239 433.137772 
L 514.984664 428.100179 
L 526.133515 439.254848 
L 531.707941 441.773644 
L 542.856792 437.09588 
L 548.431218 435.656568 
L 570.72892 437.09588 
L 581.877771 437.09588 
L 587.452197 446.091581 
L 593.026622 446.091581 
L 604.175473 452.928313 
L 609.749899 464.082982 
L 615.324324 469.84023 
L 626.473176 472.718854 
L 632.047601 473.798338 
L 643.196452 474.877822 
L 654.345303 477.396619 
L 671.06858 477.396619 
L 682.217431 478.116275 
L 693.366282 478.116275 
L 698.940708 478.476103 
L 710.089559 477.756447 
L 726.812836 477.756447 
L 732.387261 478.116275 
L 737.961687 477.036791 
L 743.536113 477.396619 
L 749.110538 477.396619 
L 760.259389 477.036791 
L 765.833815 476.676963 
L 776.982666 476.676963 
L 782.557092 476.317135 
L 799.280368 475.957307 
L 804.854794 476.317135 
L 810.42922 477.396619 
L 821.578071 476.676963 
L 838.301347 476.676963 
L 843.875773 472.718854 
L 849.450199 473.078682 
L 855.024624 472.359026 
L 860.59905 472.718854 
L 877.322326 471.279542 
L 882.896752 470.200058 
L 888.471178 470.200058 
L 894.045603 470.559886 
L 899.620029 468.400918 
L 955.364284 469.480402 
L 960.93871 468.04109 
L 972.087561 465.882122 
L 977.661987 464.082982 
L 994.385263 464.082982 
L 999.959689 458.685561 
L 1005.534115 457.965905 
L 1016.682966 455.806937 
L 1033.406243 457.606077 
L 1038.980668 457.965905 
L 1044.555094 457.965905 
L 1050.129519 459.405217 
L 1055.703945 460.124873 
L 1072.427222 460.124873 
L 1078.001647 466.24195 
L 1083.576073 466.24195 
L 1089.150498 466.961606 
L 1094.724924 469.480402 
L 1111.448201 469.120574 
L 1117.022626 468.04109 
L 1122.597052 468.04109 
L 1128.171477 470.559886 
L 1128.171477 470.559886 
" style="fill:none;stroke:#2792cb;stroke-linecap:square;stroke-width:2;"/>
    <defs>
     <path d="M 0 1.5 
C 0.397805 1.5 0.77937 1.341951 1.06066 1.06066 
C 1.341951 0.77937 1.5 0.397805 1.5 0 
C 1.5 -0.397805 1.341951 -0.77937 1.06066 -1.06066 
C 0.77937 -1.341951 0.397805 -1.5 0 -1.5 
C -0.397805 -1.5 -0.77937 -1.341951 -1.06066 -1.06066 
C -1.341951 -0.77937 -1.5 -0.397805 -1.5 0 
C -1.5 0.397805 -1.341951 0.77937 -1.06066 1.06066 
C -0.77937 1.341951 -0.397805 1.5 0 1.5 
z
" id="m2b5ca44206" style="stroke:#2792cb;"/>
    </defs>
    <g clip-path="url(#p3d6d218d45)">
     <use style="fill:#2792cb;stroke:#2792cb;" x="113.626023" xlink:href="#m2b5ca44206" y="474.877822"/>
     <use style="fill:#2792cb;stroke:#2792cb;" x="119.200448" xlink:href="#m2b5ca44206" y="470.200058"/>
     <use style="fill:#2792cb;stroke:#2792cb;" x="124.774874" xlink:href="#m2b5ca44206" y="463.723154"/>
     <use style="fill:#2792cb;stroke:#2792cb;" x="130.349299" xlink:href="#m2b5ca44206" y="450.409517"/>
     <use style="fill:#2792cb;stroke:#2792cb;" x="135.923725" xlink:href="#m2b5ca44206" y="445.731753"/>
     <use style="fill:#2792cb;stroke:#2792cb;" x="141.498151" xlink:href="#m2b5ca44206" y="435.656568"/>
     <use style="fill:#2792cb;stroke:#2792cb;" x="147.072576" xlink:href="#m2b5ca44206" y="420.903619"/>
     <use style="fill:#2792cb;stroke:#2792cb;" x="158.221427" xlink:href="#m2b5ca44206" y="390.318237"/>
     <use style="fill:#2792cb;stroke:#2792cb;" x="163.795853" xlink:href="#m2b5ca44206" y="385.280645"/>
     <use style="fill:#2792cb;stroke:#2792cb;" x="169.370278" xlink:href="#m2b5ca44206" y="382.40202"/>
     <use style="fill:#2792cb;stroke:#2792cb;" x="174.944704" xlink:href="#m2b5ca44206" y="378.084084"/>
     <use style="fill:#2792cb;stroke:#2792cb;" x="180.51913" xlink:href="#m2b5ca44206" y="375.20546"/>
     <use style="fill:#2792cb;stroke:#2792cb;" x="186.093555" xlink:href="#m2b5ca44206" y="370.167868"/>
     <use style="fill:#2792cb;stroke:#2792cb;" x="191.667981" xlink:href="#m2b5ca44206" y="363.331135"/>
     <use style="fill:#2792cb;stroke:#2792cb;" x="197.242406" xlink:href="#m2b5ca44206" y="354.695263"/>
     <use style="fill:#2792cb;stroke:#2792cb;" x="202.816832" xlink:href="#m2b5ca44206" y="349.65767"/>
     <use style="fill:#2792cb;stroke:#2792cb;" x="208.391257" xlink:href="#m2b5ca44206" y="351.096982"/>
     <use style="fill:#2792cb;stroke:#2792cb;" x="213.965683" xlink:href="#m2b5ca44206" y="349.297842"/>
     <use style="fill:#2792cb;stroke:#2792cb;" x="219.540109" xlink:href="#m2b5ca44206" y="346.779046"/>
     <use style="fill:#2792cb;stroke:#2792cb;" x="225.114534" xlink:href="#m2b5ca44206" y="347.85853"/>
     <use style="fill:#2792cb;stroke:#2792cb;" x="230.68896" xlink:href="#m2b5ca44206" y="343.540594"/>
     <use style="fill:#2792cb;stroke:#2792cb;" x="236.263385" xlink:href="#m2b5ca44206" y="335.264549"/>
     <use style="fill:#2792cb;stroke:#2792cb;" x="241.837811" xlink:href="#m2b5ca44206" y="328.787645"/>
     <use style="fill:#2792cb;stroke:#2792cb;" x="247.412237" xlink:href="#m2b5ca44206" y="333.825237"/>
     <use style="fill:#2792cb;stroke:#2792cb;" x="252.986662" xlink:href="#m2b5ca44206" y="335.264549"/>
     <use style="fill:#2792cb;stroke:#2792cb;" x="258.561088" xlink:href="#m2b5ca44206" y="335.264549"/>
     <use style="fill:#2792cb;stroke:#2792cb;" x="264.135513" xlink:href="#m2b5ca44206" y="337.063689"/>
     <use style="fill:#2792cb;stroke:#2792cb;" x="269.709939" xlink:href="#m2b5ca44206" y="332.026097"/>
     <use style="fill:#2792cb;stroke:#2792cb;" x="275.284364" xlink:href="#m2b5ca44206" y="337.423518"/>
     <use style="fill:#2792cb;stroke:#2792cb;" x="286.433216" xlink:href="#m2b5ca44206" y="344.620078"/>
     <use style="fill:#2792cb;stroke:#2792cb;" x="297.582067" xlink:href="#m2b5ca44206" y="344.620078"/>
     <use style="fill:#2792cb;stroke:#2792cb;" x="303.156492" xlink:href="#m2b5ca44206" y="359.732855"/>
     <use style="fill:#2792cb;stroke:#2792cb;" x="308.730918" xlink:href="#m2b5ca44206" y="355.774747"/>
     <use style="fill:#2792cb;stroke:#2792cb;" x="314.305343" xlink:href="#m2b5ca44206" y="373.40632"/>
     <use style="fill:#2792cb;stroke:#2792cb;" x="319.879769" xlink:href="#m2b5ca44206" y="380.60288"/>
     <use style="fill:#2792cb;stroke:#2792cb;" x="331.02862" xlink:href="#m2b5ca44206" y="400.393422"/>
     <use style="fill:#2792cb;stroke:#2792cb;" x="336.603046" xlink:href="#m2b5ca44206" y="406.15067"/>
     <use style="fill:#2792cb;stroke:#2792cb;" x="342.177471" xlink:href="#m2b5ca44206" y="403.631874"/>
     <use style="fill:#2792cb;stroke:#2792cb;" x="347.751897" xlink:href="#m2b5ca44206" y="418.024995"/>
     <use style="fill:#2792cb;stroke:#2792cb;" x="353.326322" xlink:href="#m2b5ca44206" y="414.426715"/>
     <use style="fill:#2792cb;stroke:#2792cb;" x="358.900748" xlink:href="#m2b5ca44206" y="419.104479"/>
     <use style="fill:#2792cb;stroke:#2792cb;" x="370.049599" xlink:href="#m2b5ca44206" y="422.702759"/>
     <use style="fill:#2792cb;stroke:#2792cb;" x="375.624025" xlink:href="#m2b5ca44206" y="426.660867"/>
     <use style="fill:#2792cb;stroke:#2792cb;" x="381.19845" xlink:href="#m2b5ca44206" y="430.618976"/>
     <use style="fill:#2792cb;stroke:#2792cb;" x="386.772876" xlink:href="#m2b5ca44206" y="436.376224"/>
     <use style="fill:#2792cb;stroke:#2792cb;" x="397.921727" xlink:href="#m2b5ca44206" y="440.334332"/>
     <use style="fill:#2792cb;stroke:#2792cb;" x="409.070578" xlink:href="#m2b5ca44206" y="440.69416"/>
     <use style="fill:#2792cb;stroke:#2792cb;" x="414.645004" xlink:href="#m2b5ca44206" y="442.4933"/>
     <use style="fill:#2792cb;stroke:#2792cb;" x="420.219429" xlink:href="#m2b5ca44206" y="445.371925"/>
     <use style="fill:#2792cb;stroke:#2792cb;" x="425.793855" xlink:href="#m2b5ca44206" y="446.811237"/>
     <use style="fill:#2792cb;stroke:#2792cb;" x="431.36828" xlink:href="#m2b5ca44206" y="450.409517"/>
     <use style="fill:#2792cb;stroke:#2792cb;" x="436.942706" xlink:href="#m2b5ca44206" y="447.171065"/>
     <use style="fill:#2792cb;stroke:#2792cb;" x="448.091557" xlink:href="#m2b5ca44206" y="443.932612"/>
     <use style="fill:#2792cb;stroke:#2792cb;" x="453.665983" xlink:href="#m2b5ca44206" y="446.091581"/>
     <use style="fill:#2792cb;stroke:#2792cb;" x="459.240408" xlink:href="#m2b5ca44206" y="435.656568"/>
     <use style="fill:#2792cb;stroke:#2792cb;" x="464.814834" xlink:href="#m2b5ca44206" y="433.137772"/>
     <use style="fill:#2792cb;stroke:#2792cb;" x="470.389259" xlink:href="#m2b5ca44206" y="434.217256"/>
     <use style="fill:#2792cb;stroke:#2792cb;" x="475.963685" xlink:href="#m2b5ca44206" y="434.936912"/>
     <use style="fill:#2792cb;stroke:#2792cb;" x="487.112536" xlink:href="#m2b5ca44206" y="430.618976"/>
     <use style="fill:#2792cb;stroke:#2792cb;" x="492.686962" xlink:href="#m2b5ca44206" y="430.978804"/>
     <use style="fill:#2792cb;stroke:#2792cb;" x="498.261387" xlink:href="#m2b5ca44206" y="434.217256"/>
     <use style="fill:#2792cb;stroke:#2792cb;" x="509.410239" xlink:href="#m2b5ca44206" y="433.137772"/>
     <use style="fill:#2792cb;stroke:#2792cb;" x="514.984664" xlink:href="#m2b5ca44206" y="428.100179"/>
     <use style="fill:#2792cb;stroke:#2792cb;" x="526.133515" xlink:href="#m2b5ca44206" y="439.254848"/>
     <use style="fill:#2792cb;stroke:#2792cb;" x="531.707941" xlink:href="#m2b5ca44206" y="441.773644"/>
     <use style="fill:#2792cb;stroke:#2792cb;" x="542.856792" xlink:href="#m2b5ca44206" y="437.09588"/>
     <use style="fill:#2792cb;stroke:#2792cb;" x="548.431218" xlink:href="#m2b5ca44206" y="435.656568"/>
     <use style="fill:#2792cb;stroke:#2792cb;" x="570.72892" xlink:href="#m2b5ca44206" y="437.09588"/>
     <use style="fill:#2792cb;stroke:#2792cb;" x="576.303345" xlink:href="#m2b5ca44206" y="437.09588"/>
     <use style="fill:#2792cb;stroke:#2792cb;" x="581.877771" xlink:href="#m2b5ca44206" y="437.09588"/>
     <use style="fill:#2792cb;stroke:#2792cb;" x="587.452197" xlink:href="#m2b5ca44206" y="446.091581"/>
     <use style="fill:#2792cb;stroke:#2792cb;" x="593.026622" xlink:href="#m2b5ca44206" y="446.091581"/>
     <use style="fill:#2792cb;stroke:#2792cb;" x="604.175473" xlink:href="#m2b5ca44206" y="452.928313"/>
     <use style="fill:#2792cb;stroke:#2792cb;" x="609.749899" xlink:href="#m2b5ca44206" y="464.082982"/>
     <use style="fill:#2792cb;stroke:#2792cb;" x="615.324324" xlink:href="#m2b5ca44206" y="469.84023"/>
     <use style="fill:#2792cb;stroke:#2792cb;" x="626.473176" xlink:href="#m2b5ca44206" y="472.718854"/>
     <use style="fill:#2792cb;stroke:#2792cb;" x="632.047601" xlink:href="#m2b5ca44206" y="473.798338"/>
     <use style="fill:#2792cb;stroke:#2792cb;" x="643.196452" xlink:href="#m2b5ca44206" y="474.877822"/>
     <use style="fill:#2792cb;stroke:#2792cb;" x="654.345303" xlink:href="#m2b5ca44206" y="477.396619"/>
     <use style="fill:#2792cb;stroke:#2792cb;" x="665.494155" xlink:href="#m2b5ca44206" y="477.396619"/>
     <use style="fill:#2792cb;stroke:#2792cb;" x="671.06858" xlink:href="#m2b5ca44206" y="477.396619"/>
     <use style="fill:#2792cb;stroke:#2792cb;" x="682.217431" xlink:href="#m2b5ca44206" y="478.116275"/>
     <use style="fill:#2792cb;stroke:#2792cb;" x="687.791857" xlink:href="#m2b5ca44206" y="478.116275"/>
     <use style="fill:#2792cb;stroke:#2792cb;" x="693.366282" xlink:href="#m2b5ca44206" y="478.116275"/>
     <use style="fill:#2792cb;stroke:#2792cb;" x="698.940708" xlink:href="#m2b5ca44206" y="478.476103"/>
     <use style="fill:#2792cb;stroke:#2792cb;" x="710.089559" xlink:href="#m2b5ca44206" y="477.756447"/>
     <use style="fill:#2792cb;stroke:#2792cb;" x="721.23841" xlink:href="#m2b5ca44206" y="477.756447"/>
     <use style="fill:#2792cb;stroke:#2792cb;" x="726.812836" xlink:href="#m2b5ca44206" y="477.756447"/>
     <use style="fill:#2792cb;stroke:#2792cb;" x="732.387261" xlink:href="#m2b5ca44206" y="478.116275"/>
     <use style="fill:#2792cb;stroke:#2792cb;" x="737.961687" xlink:href="#m2b5ca44206" y="477.036791"/>
     <use style="fill:#2792cb;stroke:#2792cb;" x="743.536113" xlink:href="#m2b5ca44206" y="477.396619"/>
     <use style="fill:#2792cb;stroke:#2792cb;" x="749.110538" xlink:href="#m2b5ca44206" y="477.396619"/>
     <use style="fill:#2792cb;stroke:#2792cb;" x="760.259389" xlink:href="#m2b5ca44206" y="477.036791"/>
     <use style="fill:#2792cb;stroke:#2792cb;" x="765.833815" xlink:href="#m2b5ca44206" y="476.676963"/>
     <use style="fill:#2792cb;stroke:#2792cb;" x="771.408241" xlink:href="#m2b5ca44206" y="476.676963"/>
     <use style="fill:#2792cb;stroke:#2792cb;" x="776.982666" xlink:href="#m2b5ca44206" y="476.676963"/>
     <use style="fill:#2792cb;stroke:#2792cb;" x="782.557092" xlink:href="#m2b5ca44206" y="476.317135"/>
     <use style="fill:#2792cb;stroke:#2792cb;" x="799.280368" xlink:href="#m2b5ca44206" y="475.957307"/>
     <use style="fill:#2792cb;stroke:#2792cb;" x="804.854794" xlink:href="#m2b5ca44206" y="476.317135"/>
     <use style="fill:#2792cb;stroke:#2792cb;" x="810.42922" xlink:href="#m2b5ca44206" y="477.396619"/>
     <use style="fill:#2792cb;stroke:#2792cb;" x="816.003645" xlink:href="#m2b5ca44206" y="477.036791"/>
     <use style="fill:#2792cb;stroke:#2792cb;" x="821.578071" xlink:href="#m2b5ca44206" y="476.676963"/>
     <use style="fill:#2792cb;stroke:#2792cb;" x="838.301347" xlink:href="#m2b5ca44206" y="476.676963"/>
     <use style="fill:#2792cb;stroke:#2792cb;" x="843.875773" xlink:href="#m2b5ca44206" y="472.718854"/>
     <use style="fill:#2792cb;stroke:#2792cb;" x="849.450199" xlink:href="#m2b5ca44206" y="473.078682"/>
     <use style="fill:#2792cb;stroke:#2792cb;" x="855.024624" xlink:href="#m2b5ca44206" y="472.359026"/>
     <use style="fill:#2792cb;stroke:#2792cb;" x="860.59905" xlink:href="#m2b5ca44206" y="472.718854"/>
     <use style="fill:#2792cb;stroke:#2792cb;" x="877.322326" xlink:href="#m2b5ca44206" y="471.279542"/>
     <use style="fill:#2792cb;stroke:#2792cb;" x="882.896752" xlink:href="#m2b5ca44206" y="470.200058"/>
     <use style="fill:#2792cb;stroke:#2792cb;" x="888.471178" xlink:href="#m2b5ca44206" y="470.200058"/>
     <use style="fill:#2792cb;stroke:#2792cb;" x="894.045603" xlink:href="#m2b5ca44206" y="470.559886"/>
     <use style="fill:#2792cb;stroke:#2792cb;" x="899.620029" xlink:href="#m2b5ca44206" y="468.400918"/>
     <use style="fill:#2792cb;stroke:#2792cb;" x="955.364284" xlink:href="#m2b5ca44206" y="469.480402"/>
     <use style="fill:#2792cb;stroke:#2792cb;" x="960.93871" xlink:href="#m2b5ca44206" y="468.04109"/>
     <use style="fill:#2792cb;stroke:#2792cb;" x="972.087561" xlink:href="#m2b5ca44206" y="465.882122"/>
     <use style="fill:#2792cb;stroke:#2792cb;" x="977.661987" xlink:href="#m2b5ca44206" y="464.082982"/>
     <use style="fill:#2792cb;stroke:#2792cb;" x="994.385263" xlink:href="#m2b5ca44206" y="464.082982"/>
     <use style="fill:#2792cb;stroke:#2792cb;" x="999.959689" xlink:href="#m2b5ca44206" y="458.685561"/>
     <use style="fill:#2792cb;stroke:#2792cb;" x="1005.534115" xlink:href="#m2b5ca44206" y="457.965905"/>
     <use style="fill:#2792cb;stroke:#2792cb;" x="1011.10854" xlink:href="#m2b5ca44206" y="456.886421"/>
     <use style="fill:#2792cb;stroke:#2792cb;" x="1016.682966" xlink:href="#m2b5ca44206" y="455.806937"/>
     <use style="fill:#2792cb;stroke:#2792cb;" x="1033.406243" xlink:href="#m2b5ca44206" y="457.606077"/>
     <use style="fill:#2792cb;stroke:#2792cb;" x="1038.980668" xlink:href="#m2b5ca44206" y="457.965905"/>
     <use style="fill:#2792cb;stroke:#2792cb;" x="1044.555094" xlink:href="#m2b5ca44206" y="457.965905"/>
     <use style="fill:#2792cb;stroke:#2792cb;" x="1050.129519" xlink:href="#m2b5ca44206" y="459.405217"/>
     <use style="fill:#2792cb;stroke:#2792cb;" x="1055.703945" xlink:href="#m2b5ca44206" y="460.124873"/>
     <use style="fill:#2792cb;stroke:#2792cb;" x="1072.427222" xlink:href="#m2b5ca44206" y="460.124873"/>
     <use style="fill:#2792cb;stroke:#2792cb;" x="1078.001647" xlink:href="#m2b5ca44206" y="466.24195"/>
     <use style="fill:#2792cb;stroke:#2792cb;" x="1083.576073" xlink:href="#m2b5ca44206" y="466.24195"/>
     <use style="fill:#2792cb;stroke:#2792cb;" x="1089.150498" xlink:href="#m2b5ca44206" y="466.961606"/>
     <use style="fill:#2792cb;stroke:#2792cb;" x="1094.724924" xlink:href="#m2b5ca44206" y="469.480402"/>
     <use style="fill:#2792cb;stroke:#2792cb;" x="1111.448201" xlink:href="#m2b5ca44206" y="469.120574"/>
     <use style="fill:#2792cb;stroke:#2792cb;" x="1117.022626" xlink:href="#m2b5ca44206" y="468.04109"/>
     <use style="fill:#2792cb;stroke:#2792cb;" x="1122.597052" xlink:href="#m2b5ca44206" y="468.04109"/>
     <use style="fill:#2792cb;stroke:#2792cb;" x="1128.171477" xlink:href="#m2b5ca44206" y="470.559886"/>
    </g>
   </g>
   <g id="patch_3">
    <path d="M 62.89875 501.738984 
L 1178.89875 501.738984 
" style="fill:none;stroke:#000000;stroke-linecap:square;stroke-linejoin:miter;stroke-width:0.8;"/>
   </g>
   <g id="legend_1">
    <g id="line2d_37">
     <path d="M 71.89875 25.237422 
L 91.89875 25.237422 
" style="fill:none;stroke:#dbcd00;stroke-linecap:square;stroke-width:2;"/>
    </g>
    <g id="line2d_38">
     <g>
      <use style="fill:#dbcd00;stroke:#dbcd00;" x="81.89875" xlink:href="#m4dead25275" y="25.237422"/>
     </g>
    </g>
    <g id="text_22">
     <!-- Genesene -->
     <defs>
      <path d="M 59.515625 10.40625 
L 59.515625 29.984375 
L 43.40625 29.984375 
L 43.40625 38.09375 
L 69.28125 38.09375 
L 69.28125 6.78125 
Q 63.578125 2.734375 56.6875 0.65625 
Q 49.8125 -1.421875 42 -1.421875 
Q 24.90625 -1.421875 15.25 8.5625 
Q 5.609375 18.5625 5.609375 36.375 
Q 5.609375 54.25 15.25 64.234375 
Q 24.90625 74.21875 42 74.21875 
Q 49.125 74.21875 55.546875 72.453125 
Q 61.96875 70.703125 67.390625 67.28125 
L 67.390625 56.78125 
Q 61.921875 61.421875 55.765625 63.765625 
Q 49.609375 66.109375 42.828125 66.109375 
Q 29.4375 66.109375 22.71875 58.640625 
Q 16.015625 51.171875 16.015625 36.375 
Q 16.015625 21.625 22.71875 14.15625 
Q 29.4375 6.6875 42.828125 6.6875 
Q 48.046875 6.6875 52.140625 7.59375 
Q 56.25 8.5 59.515625 10.40625 
z
" id="DejaVuSans-71"/>
      <path d="M 44.28125 53.078125 
L 44.28125 44.578125 
Q 40.484375 46.53125 36.375 47.5 
Q 32.28125 48.484375 27.875 48.484375 
Q 21.1875 48.484375 17.84375 46.4375 
Q 14.5 44.390625 14.5 40.28125 
Q 14.5 37.15625 16.890625 35.375 
Q 19.28125 33.59375 26.515625 31.984375 
L 29.59375 31.296875 
Q 39.15625 29.25 43.1875 25.515625 
Q 47.21875 21.78125 47.21875 15.09375 
Q 47.21875 7.46875 41.1875 3.015625 
Q 35.15625 -1.421875 24.609375 -1.421875 
Q 20.21875 -1.421875 15.453125 -0.5625 
Q 10.6875 0.296875 5.421875 2 
L 5.421875 11.28125 
Q 10.40625 8.6875 15.234375 7.390625 
Q 20.0625 6.109375 24.8125 6.109375 
Q 31.15625 6.109375 34.5625 8.28125 
Q 37.984375 10.453125 37.984375 14.40625 
Q 37.984375 18.0625 35.515625 20.015625 
Q 33.0625 21.96875 24.703125 23.78125 
L 21.578125 24.515625 
Q 13.234375 26.265625 9.515625 29.90625 
Q 5.8125 33.546875 5.8125 39.890625 
Q 5.8125 47.609375 11.28125 51.796875 
Q 16.75 56 26.8125 56 
Q 31.78125 56 36.171875 55.265625 
Q 40.578125 54.546875 44.28125 53.078125 
z
" id="DejaVuSans-115"/>
     </defs>
     <g transform="translate(99.89875 28.737422)scale(0.1 -0.1)">
      <use xlink:href="#DejaVuSans-71"/>
      <use x="77.490234" xlink:href="#DejaVuSans-101"/>
      <use x="139.013672" xlink:href="#DejaVuSans-110"/>
      <use x="202.392578" xlink:href="#DejaVuSans-101"/>
      <use x="263.916016" xlink:href="#DejaVuSans-115"/>
      <use x="316.015625" xlink:href="#DejaVuSans-101"/>
      <use x="377.539062" xlink:href="#DejaVuSans-110"/>
      <use x="440.917969" xlink:href="#DejaVuSans-101"/>
     </g>
    </g>
    <g id="line2d_39">
     <path d="M 71.89875 39.915547 
L 91.89875 39.915547 
" style="fill:none;stroke:#2792cb;stroke-linecap:square;stroke-width:2;"/>
    </g>
    <g id="line2d_40">
     <g>
      <use style="fill:#2792cb;stroke:#2792cb;" x="81.89875" xlink:href="#m2b5ca44206" y="39.915547"/>
     </g>
    </g>
    <g id="text_23">
     <!-- Erkrankte -->
     <defs>
      <path d="M 9.8125 72.90625 
L 55.90625 72.90625 
L 55.90625 64.59375 
L 19.671875 64.59375 
L 19.671875 43.015625 
L 54.390625 43.015625 
L 54.390625 34.71875 
L 19.671875 34.71875 
L 19.671875 8.296875 
L 56.78125 8.296875 
L 56.78125 0 
L 9.8125 0 
z
" id="DejaVuSans-69"/>
      <path d="M 41.109375 46.296875 
Q 39.59375 47.171875 37.8125 47.578125 
Q 36.03125 48 33.890625 48 
Q 26.265625 48 22.1875 43.046875 
Q 18.109375 38.09375 18.109375 28.8125 
L 18.109375 0 
L 9.078125 0 
L 9.078125 54.6875 
L 18.109375 54.6875 
L 18.109375 46.1875 
Q 20.953125 51.171875 25.484375 53.578125 
Q 30.03125 56 36.53125 56 
Q 37.453125 56 38.578125 55.875 
Q 39.703125 55.765625 41.0625 55.515625 
z
" id="DejaVuSans-114"/>
      <path d="M 9.078125 75.984375 
L 18.109375 75.984375 
L 18.109375 31.109375 
L 44.921875 54.6875 
L 56.390625 54.6875 
L 27.390625 29.109375 
L 57.625 0 
L 45.90625 0 
L 18.109375 26.703125 
L 18.109375 0 
L 9.078125 0 
z
" id="DejaVuSans-107"/>
      <path d="M 18.3125 70.21875 
L 18.3125 54.6875 
L 36.8125 54.6875 
L 36.8125 47.703125 
L 18.3125 47.703125 
L 18.3125 18.015625 
Q 18.3125 11.328125 20.140625 9.421875 
Q 21.96875 7.515625 27.59375 7.515625 
L 36.8125 7.515625 
L 36.8125 0 
L 27.59375 0 
Q 17.1875 0 13.234375 3.875 
Q 9.28125 7.765625 9.28125 18.015625 
L 9.28125 47.703125 
L 2.6875 47.703125 
L 2.6875 54.6875 
L 9.28125 54.6875 
L 9.28125 70.21875 
z
" id="DejaVuSans-116"/>
     </defs>
     <g transform="translate(99.89875 43.415547)scale(0.1 -0.1)">
      <use xlink:href="#DejaVuSans-69"/>
      <use x="63.183594" xlink:href="#DejaVuSans-114"/>
      <use x="104.296875" xlink:href="#DejaVuSans-107"/>
      <use x="162.207031" xlink:href="#DejaVuSans-114"/>
      <use x="203.320312" xlink:href="#DejaVuSans-97"/>
      <use x="264.599609" xlink:href="#DejaVuSans-110"/>
      <use x="327.978516" xlink:href="#DejaVuSans-107"/>
      <use x="385.888672" xlink:href="#DejaVuSans-116"/>
      <use x="425.097656" xlink:href="#DejaVuSans-101"/>
     </g>
    </g>
   </g>
  </g>
 </g>
 <defs>
  <clipPath id="p3d6d218d45">
   <rect height="489.6" width="1116" x="62.89875" y="12.138984"/>
  </clipPath>
 </defs>
</svg>
