<?xml version="1.0" encoding="utf-8" standalone="no"?>
<!DOCTYPE svg PUBLIC "-//W3C//DTD SVG 1.1//EN"
  "http://www.w3.org/Graphics/SVG/1.1/DTD/svg11.dtd">
<!-- Created with matplotlib (https://matplotlib.org/) -->
<svg height="553.993765pt" version="1.1" viewBox="0 0 1186.09875 553.993765" width="1186.09875pt" xmlns="http://www.w3.org/2000/svg" xmlns:xlink="http://www.w3.org/1999/xlink">
 <defs>
  <style type="text/css">
*{stroke-linecap:butt;stroke-linejoin:round;}
  </style>
 </defs>
 <g id="figure_1">
  <g id="patch_1">
   <path d="M 0 553.993765 
L 1186.09875 553.993765 
L 1186.09875 0 
L 0 0 
z
" style="fill:#ffffff;"/>
  </g>
  <g id="axes_1">
   <g id="patch_2">
    <path d="M 62.89875 501.738984 
L 1178.89875 501.738984 
L 1178.89875 12.138984 
L 62.89875 12.138984 
z
" style="fill:#ffffff;"/>
   </g>
   <g id="matplotlib.axis_1">
    <g id="xtick_1">
     <g id="line2d_1">
      <defs>
       <path d="M 0 0 
L 0 3.5 
" id="mce5c69b39b" style="stroke:#000000;stroke-width:0.8;"/>
      </defs>
      <g>
       <use style="stroke:#000000;stroke-width:0.8;" x="148.344308" xlink:href="#mce5c69b39b" y="501.738984"/>
      </g>
     </g>
     <g id="text_1">
      <!-- 2020-04 -->
      <defs>
       <path d="M 19.1875 8.296875 
L 53.609375 8.296875 
L 53.609375 0 
L 7.328125 0 
L 7.328125 8.296875 
Q 12.9375 14.109375 22.625 23.890625 
Q 32.328125 33.6875 34.8125 36.53125 
Q 39.546875 41.84375 41.421875 45.53125 
Q 43.3125 49.21875 43.3125 52.78125 
Q 43.3125 58.59375 39.234375 62.25 
Q 35.15625 65.921875 28.609375 65.921875 
Q 23.96875 65.921875 18.8125 64.3125 
Q 13.671875 62.703125 7.8125 59.421875 
L 7.8125 69.390625 
Q 13.765625 71.78125 18.9375 73 
Q 24.125 74.21875 28.421875 74.21875 
Q 39.75 74.21875 46.484375 68.546875 
Q 53.21875 62.890625 53.21875 53.421875 
Q 53.21875 48.921875 51.53125 44.890625 
Q 49.859375 40.875 45.40625 35.40625 
Q 44.1875 33.984375 37.640625 27.21875 
Q 31.109375 20.453125 19.1875 8.296875 
z
" id="DejaVuSans-50"/>
       <path d="M 31.78125 66.40625 
Q 24.171875 66.40625 20.328125 58.90625 
Q 16.5 51.421875 16.5 36.375 
Q 16.5 21.390625 20.328125 13.890625 
Q 24.171875 6.390625 31.78125 6.390625 
Q 39.453125 6.390625 43.28125 13.890625 
Q 47.125 21.390625 47.125 36.375 
Q 47.125 51.421875 43.28125 58.90625 
Q 39.453125 66.40625 31.78125 66.40625 
z
M 31.78125 74.21875 
Q 44.046875 74.21875 50.515625 64.515625 
Q 56.984375 54.828125 56.984375 36.375 
Q 56.984375 17.96875 50.515625 8.265625 
Q 44.046875 -1.421875 31.78125 -1.421875 
Q 19.53125 -1.421875 13.0625 8.265625 
Q 6.59375 17.96875 6.59375 36.375 
Q 6.59375 54.828125 13.0625 64.515625 
Q 19.53125 74.21875 31.78125 74.21875 
z
" id="DejaVuSans-48"/>
       <path d="M 4.890625 31.390625 
L 31.203125 31.390625 
L 31.203125 23.390625 
L 4.890625 23.390625 
z
" id="DejaVuSans-45"/>
       <path d="M 37.796875 64.3125 
L 12.890625 25.390625 
L 37.796875 25.390625 
z
M 35.203125 72.90625 
L 47.609375 72.90625 
L 47.609375 25.390625 
L 58.015625 25.390625 
L 58.015625 17.1875 
L 47.609375 17.1875 
L 47.609375 0 
L 37.796875 0 
L 37.796875 17.1875 
L 4.890625 17.1875 
L 4.890625 26.703125 
z
" id="DejaVuSans-52"/>
      </defs>
      <g transform="translate(99.952041 544.452384)rotate(-30)scale(0.13 -0.13)">
       <use xlink:href="#DejaVuSans-50"/>
       <use x="63.623047" xlink:href="#DejaVuSans-48"/>
       <use x="127.246094" xlink:href="#DejaVuSans-50"/>
       <use x="190.869141" xlink:href="#DejaVuSans-48"/>
       <use x="254.492188" xlink:href="#DejaVuSans-45"/>
       <use x="290.576172" xlink:href="#DejaVuSans-48"/>
       <use x="354.199219" xlink:href="#DejaVuSans-52"/>
      </g>
     </g>
    </g>
    <g id="xtick_2">
     <g id="line2d_2">
      <g>
       <use style="stroke:#000000;stroke-width:0.8;" x="264.071927" xlink:href="#mce5c69b39b" y="501.738984"/>
      </g>
     </g>
     <g id="text_2">
      <!-- 2020-05 -->
      <defs>
       <path d="M 10.796875 72.90625 
L 49.515625 72.90625 
L 49.515625 64.59375 
L 19.828125 64.59375 
L 19.828125 46.734375 
Q 21.96875 47.46875 24.109375 47.828125 
Q 26.265625 48.1875 28.421875 48.1875 
Q 40.625 48.1875 47.75 41.5 
Q 54.890625 34.8125 54.890625 23.390625 
Q 54.890625 11.625 47.5625 5.09375 
Q 40.234375 -1.421875 26.90625 -1.421875 
Q 22.3125 -1.421875 17.546875 -0.640625 
Q 12.796875 0.140625 7.71875 1.703125 
L 7.71875 11.625 
Q 12.109375 9.234375 16.796875 8.0625 
Q 21.484375 6.890625 26.703125 6.890625 
Q 35.15625 6.890625 40.078125 11.328125 
Q 45.015625 15.765625 45.015625 23.390625 
Q 45.015625 31 40.078125 35.4375 
Q 35.15625 39.890625 26.703125 39.890625 
Q 22.75 39.890625 18.8125 39.015625 
Q 14.890625 38.140625 10.796875 36.28125 
z
" id="DejaVuSans-53"/>
      </defs>
      <g transform="translate(215.67966 544.452384)rotate(-30)scale(0.13 -0.13)">
       <use xlink:href="#DejaVuSans-50"/>
       <use x="63.623047" xlink:href="#DejaVuSans-48"/>
       <use x="127.246094" xlink:href="#DejaVuSans-50"/>
       <use x="190.869141" xlink:href="#DejaVuSans-48"/>
       <use x="254.492188" xlink:href="#DejaVuSans-45"/>
       <use x="290.576172" xlink:href="#DejaVuSans-48"/>
       <use x="354.199219" xlink:href="#DejaVuSans-53"/>
      </g>
     </g>
    </g>
    <g id="xtick_3">
     <g id="line2d_3">
      <g>
       <use style="stroke:#000000;stroke-width:0.8;" x="383.657132" xlink:href="#mce5c69b39b" y="501.738984"/>
      </g>
     </g>
     <g id="text_3">
      <!-- 2020-06 -->
      <defs>
       <path d="M 33.015625 40.375 
Q 26.375 40.375 22.484375 35.828125 
Q 18.609375 31.296875 18.609375 23.390625 
Q 18.609375 15.53125 22.484375 10.953125 
Q 26.375 6.390625 33.015625 6.390625 
Q 39.65625 6.390625 43.53125 10.953125 
Q 47.40625 15.53125 47.40625 23.390625 
Q 47.40625 31.296875 43.53125 35.828125 
Q 39.65625 40.375 33.015625 40.375 
z
M 52.59375 71.296875 
L 52.59375 62.3125 
Q 48.875 64.0625 45.09375 64.984375 
Q 41.3125 65.921875 37.59375 65.921875 
Q 27.828125 65.921875 22.671875 59.328125 
Q 17.53125 52.734375 16.796875 39.40625 
Q 19.671875 43.65625 24.015625 45.921875 
Q 28.375 48.1875 33.59375 48.1875 
Q 44.578125 48.1875 50.953125 41.515625 
Q 57.328125 34.859375 57.328125 23.390625 
Q 57.328125 12.15625 50.6875 5.359375 
Q 44.046875 -1.421875 33.015625 -1.421875 
Q 20.359375 -1.421875 13.671875 8.265625 
Q 6.984375 17.96875 6.984375 36.375 
Q 6.984375 53.65625 15.1875 63.9375 
Q 23.390625 74.21875 37.203125 74.21875 
Q 40.921875 74.21875 44.703125 73.484375 
Q 48.484375 72.75 52.59375 71.296875 
z
" id="DejaVuSans-54"/>
      </defs>
      <g transform="translate(335.264865 544.452384)rotate(-30)scale(0.13 -0.13)">
       <use xlink:href="#DejaVuSans-50"/>
       <use x="63.623047" xlink:href="#DejaVuSans-48"/>
       <use x="127.246094" xlink:href="#DejaVuSans-50"/>
       <use x="190.869141" xlink:href="#DejaVuSans-48"/>
       <use x="254.492188" xlink:href="#DejaVuSans-45"/>
       <use x="290.576172" xlink:href="#DejaVuSans-48"/>
       <use x="354.199219" xlink:href="#DejaVuSans-54"/>
      </g>
     </g>
    </g>
    <g id="xtick_4">
     <g id="line2d_4">
      <g>
       <use style="stroke:#000000;stroke-width:0.8;" x="499.384751" xlink:href="#mce5c69b39b" y="501.738984"/>
      </g>
     </g>
     <g id="text_4">
      <!-- 2020-07 -->
      <defs>
       <path d="M 8.203125 72.90625 
L 55.078125 72.90625 
L 55.078125 68.703125 
L 28.609375 0 
L 18.3125 0 
L 43.21875 64.59375 
L 8.203125 64.59375 
z
" id="DejaVuSans-55"/>
      </defs>
      <g transform="translate(450.992484 544.452384)rotate(-30)scale(0.13 -0.13)">
       <use xlink:href="#DejaVuSans-50"/>
       <use x="63.623047" xlink:href="#DejaVuSans-48"/>
       <use x="127.246094" xlink:href="#DejaVuSans-50"/>
       <use x="190.869141" xlink:href="#DejaVuSans-48"/>
       <use x="254.492188" xlink:href="#DejaVuSans-45"/>
       <use x="290.576172" xlink:href="#DejaVuSans-48"/>
       <use x="354.199219" xlink:href="#DejaVuSans-55"/>
      </g>
     </g>
    </g>
    <g id="xtick_5">
     <g id="line2d_5">
      <g>
       <use style="stroke:#000000;stroke-width:0.8;" x="618.969956" xlink:href="#mce5c69b39b" y="501.738984"/>
      </g>
     </g>
     <g id="text_5">
      <!-- 2020-08 -->
      <defs>
       <path d="M 31.78125 34.625 
Q 24.75 34.625 20.71875 30.859375 
Q 16.703125 27.09375 16.703125 20.515625 
Q 16.703125 13.921875 20.71875 10.15625 
Q 24.75 6.390625 31.78125 6.390625 
Q 38.8125 6.390625 42.859375 10.171875 
Q 46.921875 13.96875 46.921875 20.515625 
Q 46.921875 27.09375 42.890625 30.859375 
Q 38.875 34.625 31.78125 34.625 
z
M 21.921875 38.8125 
Q 15.578125 40.375 12.03125 44.71875 
Q 8.5 49.078125 8.5 55.328125 
Q 8.5 64.0625 14.71875 69.140625 
Q 20.953125 74.21875 31.78125 74.21875 
Q 42.671875 74.21875 48.875 69.140625 
Q 55.078125 64.0625 55.078125 55.328125 
Q 55.078125 49.078125 51.53125 44.71875 
Q 48 40.375 41.703125 38.8125 
Q 48.828125 37.15625 52.796875 32.3125 
Q 56.78125 27.484375 56.78125 20.515625 
Q 56.78125 9.90625 50.3125 4.234375 
Q 43.84375 -1.421875 31.78125 -1.421875 
Q 19.734375 -1.421875 13.25 4.234375 
Q 6.78125 9.90625 6.78125 20.515625 
Q 6.78125 27.484375 10.78125 32.3125 
Q 14.796875 37.15625 21.921875 38.8125 
z
M 18.3125 54.390625 
Q 18.3125 48.734375 21.84375 45.5625 
Q 25.390625 42.390625 31.78125 42.390625 
Q 38.140625 42.390625 41.71875 45.5625 
Q 45.3125 48.734375 45.3125 54.390625 
Q 45.3125 60.0625 41.71875 63.234375 
Q 38.140625 66.40625 31.78125 66.40625 
Q 25.390625 66.40625 21.84375 63.234375 
Q 18.3125 60.0625 18.3125 54.390625 
z
" id="DejaVuSans-56"/>
      </defs>
      <g transform="translate(570.577689 544.452384)rotate(-30)scale(0.13 -0.13)">
       <use xlink:href="#DejaVuSans-50"/>
       <use x="63.623047" xlink:href="#DejaVuSans-48"/>
       <use x="127.246094" xlink:href="#DejaVuSans-50"/>
       <use x="190.869141" xlink:href="#DejaVuSans-48"/>
       <use x="254.492188" xlink:href="#DejaVuSans-45"/>
       <use x="290.576172" xlink:href="#DejaVuSans-48"/>
       <use x="354.199219" xlink:href="#DejaVuSans-56"/>
      </g>
     </g>
    </g>
    <g id="xtick_6">
     <g id="line2d_6">
      <g>
       <use style="stroke:#000000;stroke-width:0.8;" x="738.555162" xlink:href="#mce5c69b39b" y="501.738984"/>
      </g>
     </g>
     <g id="text_6">
      <!-- 2020-09 -->
      <defs>
       <path d="M 10.984375 1.515625 
L 10.984375 10.5 
Q 14.703125 8.734375 18.5 7.8125 
Q 22.3125 6.890625 25.984375 6.890625 
Q 35.75 6.890625 40.890625 13.453125 
Q 46.046875 20.015625 46.78125 33.40625 
Q 43.953125 29.203125 39.59375 26.953125 
Q 35.25 24.703125 29.984375 24.703125 
Q 19.046875 24.703125 12.671875 31.3125 
Q 6.296875 37.9375 6.296875 49.421875 
Q 6.296875 60.640625 12.9375 67.421875 
Q 19.578125 74.21875 30.609375 74.21875 
Q 43.265625 74.21875 49.921875 64.515625 
Q 56.59375 54.828125 56.59375 36.375 
Q 56.59375 19.140625 48.40625 8.859375 
Q 40.234375 -1.421875 26.421875 -1.421875 
Q 22.703125 -1.421875 18.890625 -0.6875 
Q 15.09375 0.046875 10.984375 1.515625 
z
M 30.609375 32.421875 
Q 37.25 32.421875 41.125 36.953125 
Q 45.015625 41.5 45.015625 49.421875 
Q 45.015625 57.28125 41.125 61.84375 
Q 37.25 66.40625 30.609375 66.40625 
Q 23.96875 66.40625 20.09375 61.84375 
Q 16.21875 57.28125 16.21875 49.421875 
Q 16.21875 41.5 20.09375 36.953125 
Q 23.96875 32.421875 30.609375 32.421875 
z
" id="DejaVuSans-57"/>
      </defs>
      <g transform="translate(690.162895 544.452384)rotate(-30)scale(0.13 -0.13)">
       <use xlink:href="#DejaVuSans-50"/>
       <use x="63.623047" xlink:href="#DejaVuSans-48"/>
       <use x="127.246094" xlink:href="#DejaVuSans-50"/>
       <use x="190.869141" xlink:href="#DejaVuSans-48"/>
       <use x="254.492188" xlink:href="#DejaVuSans-45"/>
       <use x="290.576172" xlink:href="#DejaVuSans-48"/>
       <use x="354.199219" xlink:href="#DejaVuSans-57"/>
      </g>
     </g>
    </g>
    <g id="xtick_7">
     <g id="line2d_7">
      <g>
       <use style="stroke:#000000;stroke-width:0.8;" x="854.28278" xlink:href="#mce5c69b39b" y="501.738984"/>
      </g>
     </g>
     <g id="text_7">
      <!-- 2020-10 -->
      <defs>
       <path d="M 12.40625 8.296875 
L 28.515625 8.296875 
L 28.515625 63.921875 
L 10.984375 60.40625 
L 10.984375 69.390625 
L 28.421875 72.90625 
L 38.28125 72.90625 
L 38.28125 8.296875 
L 54.390625 8.296875 
L 54.390625 0 
L 12.40625 0 
z
" id="DejaVuSans-49"/>
      </defs>
      <g transform="translate(805.890513 544.452384)rotate(-30)scale(0.13 -0.13)">
       <use xlink:href="#DejaVuSans-50"/>
       <use x="63.623047" xlink:href="#DejaVuSans-48"/>
       <use x="127.246094" xlink:href="#DejaVuSans-50"/>
       <use x="190.869141" xlink:href="#DejaVuSans-48"/>
       <use x="254.492188" xlink:href="#DejaVuSans-45"/>
       <use x="290.576172" xlink:href="#DejaVuSans-49"/>
       <use x="354.199219" xlink:href="#DejaVuSans-48"/>
      </g>
     </g>
    </g>
    <g id="xtick_8">
     <g id="line2d_8">
      <g>
       <use style="stroke:#000000;stroke-width:0.8;" x="973.867986" xlink:href="#mce5c69b39b" y="501.738984"/>
      </g>
     </g>
     <g id="text_8">
      <!-- 2020-11 -->
      <g transform="translate(925.475719 544.452384)rotate(-30)scale(0.13 -0.13)">
       <use xlink:href="#DejaVuSans-50"/>
       <use x="63.623047" xlink:href="#DejaVuSans-48"/>
       <use x="127.246094" xlink:href="#DejaVuSans-50"/>
       <use x="190.869141" xlink:href="#DejaVuSans-48"/>
       <use x="254.492188" xlink:href="#DejaVuSans-45"/>
       <use x="290.576172" xlink:href="#DejaVuSans-49"/>
       <use x="354.199219" xlink:href="#DejaVuSans-49"/>
      </g>
     </g>
    </g>
    <g id="xtick_9">
     <g id="line2d_9">
      <g>
       <use style="stroke:#000000;stroke-width:0.8;" x="1089.595604" xlink:href="#mce5c69b39b" y="501.738984"/>
      </g>
     </g>
     <g id="text_9">
      <!-- 2020-12 -->
      <g transform="translate(1041.203337 544.452384)rotate(-30)scale(0.13 -0.13)">
       <use xlink:href="#DejaVuSans-50"/>
       <use x="63.623047" xlink:href="#DejaVuSans-48"/>
       <use x="127.246094" xlink:href="#DejaVuSans-50"/>
       <use x="190.869141" xlink:href="#DejaVuSans-48"/>
       <use x="254.492188" xlink:href="#DejaVuSans-45"/>
       <use x="290.576172" xlink:href="#DejaVuSans-49"/>
       <use x="354.199219" xlink:href="#DejaVuSans-50"/>
      </g>
     </g>
    </g>
   </g>
   <g id="matplotlib.axis_2">
    <g id="ytick_1">
     <g id="line2d_10">
      <path clip-path="url(#p3241e6e963)" d="M 62.89875 483.318124 
L 1178.89875 483.318124 
" style="fill:none;stroke:#b0b0b0;stroke-linecap:square;stroke-width:0.8;"/>
     </g>
     <g id="line2d_11">
      <defs>
       <path d="M 0 0 
L -3.5 0 
" id="m2109198798" style="stroke:#000000;stroke-width:0.8;"/>
      </defs>
      <g>
       <use style="stroke:#000000;stroke-width:0.8;" x="62.89875" xlink:href="#m2109198798" y="483.318124"/>
      </g>
     </g>
     <g id="text_10">
      <!-- 0 -->
      <g transform="translate(47.6275 488.257108)scale(0.13 -0.13)">
       <use xlink:href="#DejaVuSans-48"/>
      </g>
     </g>
    </g>
    <g id="ytick_2">
     <g id="line2d_12">
      <path clip-path="url(#p3241e6e963)" d="M 62.89875 460.881022 
L 1178.89875 460.881022 
" style="fill:none;stroke:#b0b0b0;stroke-linecap:square;stroke-width:0.8;"/>
     </g>
     <g id="line2d_13">
      <g>
       <use style="stroke:#000000;stroke-width:0.8;" x="62.89875" xlink:href="#m2109198798" y="460.881022"/>
      </g>
     </g>
     <g id="text_11">
      <!-- 100 -->
      <g transform="translate(31.085 465.820006)scale(0.13 -0.13)">
       <use xlink:href="#DejaVuSans-49"/>
       <use x="63.623047" xlink:href="#DejaVuSans-48"/>
       <use x="127.246094" xlink:href="#DejaVuSans-48"/>
      </g>
     </g>
    </g>
    <g id="ytick_3">
     <g id="line2d_14">
      <path clip-path="url(#p3241e6e963)" d="M 62.89875 438.44392 
L 1178.89875 438.44392 
" style="fill:none;stroke:#b0b0b0;stroke-linecap:square;stroke-width:0.8;"/>
     </g>
     <g id="line2d_15">
      <g>
       <use style="stroke:#000000;stroke-width:0.8;" x="62.89875" xlink:href="#m2109198798" y="438.44392"/>
      </g>
     </g>
     <g id="text_12">
      <!-- 200 -->
      <g transform="translate(31.085 443.382904)scale(0.13 -0.13)">
       <use xlink:href="#DejaVuSans-50"/>
       <use x="63.623047" xlink:href="#DejaVuSans-48"/>
       <use x="127.246094" xlink:href="#DejaVuSans-48"/>
      </g>
     </g>
    </g>
    <g id="ytick_4">
     <g id="line2d_16">
      <path clip-path="url(#p3241e6e963)" d="M 62.89875 416.006818 
L 1178.89875 416.006818 
" style="fill:none;stroke:#b0b0b0;stroke-linecap:square;stroke-width:0.8;"/>
     </g>
     <g id="line2d_17">
      <g>
       <use style="stroke:#000000;stroke-width:0.8;" x="62.89875" xlink:href="#m2109198798" y="416.006818"/>
      </g>
     </g>
     <g id="text_13">
      <!-- 300 -->
      <defs>
       <path d="M 40.578125 39.3125 
Q 47.65625 37.796875 51.625 33 
Q 55.609375 28.21875 55.609375 21.1875 
Q 55.609375 10.40625 48.1875 4.484375 
Q 40.765625 -1.421875 27.09375 -1.421875 
Q 22.515625 -1.421875 17.65625 -0.515625 
Q 12.796875 0.390625 7.625 2.203125 
L 7.625 11.71875 
Q 11.71875 9.328125 16.59375 8.109375 
Q 21.484375 6.890625 26.8125 6.890625 
Q 36.078125 6.890625 40.9375 10.546875 
Q 45.796875 14.203125 45.796875 21.1875 
Q 45.796875 27.640625 41.28125 31.265625 
Q 36.765625 34.90625 28.71875 34.90625 
L 20.21875 34.90625 
L 20.21875 43.015625 
L 29.109375 43.015625 
Q 36.375 43.015625 40.234375 45.921875 
Q 44.09375 48.828125 44.09375 54.296875 
Q 44.09375 59.90625 40.109375 62.90625 
Q 36.140625 65.921875 28.71875 65.921875 
Q 24.65625 65.921875 20.015625 65.03125 
Q 15.375 64.15625 9.8125 62.3125 
L 9.8125 71.09375 
Q 15.4375 72.65625 20.34375 73.4375 
Q 25.25 74.21875 29.59375 74.21875 
Q 40.828125 74.21875 47.359375 69.109375 
Q 53.90625 64.015625 53.90625 55.328125 
Q 53.90625 49.265625 50.4375 45.09375 
Q 46.96875 40.921875 40.578125 39.3125 
z
" id="DejaVuSans-51"/>
      </defs>
      <g transform="translate(31.085 420.945802)scale(0.13 -0.13)">
       <use xlink:href="#DejaVuSans-51"/>
       <use x="63.623047" xlink:href="#DejaVuSans-48"/>
       <use x="127.246094" xlink:href="#DejaVuSans-48"/>
      </g>
     </g>
    </g>
    <g id="ytick_5">
     <g id="line2d_18">
      <path clip-path="url(#p3241e6e963)" d="M 62.89875 393.569716 
L 1178.89875 393.569716 
" style="fill:none;stroke:#b0b0b0;stroke-linecap:square;stroke-width:0.8;"/>
     </g>
     <g id="line2d_19">
      <g>
       <use style="stroke:#000000;stroke-width:0.8;" x="62.89875" xlink:href="#m2109198798" y="393.569716"/>
      </g>
     </g>
     <g id="text_14">
      <!-- 400 -->
      <g transform="translate(31.085 398.508701)scale(0.13 -0.13)">
       <use xlink:href="#DejaVuSans-52"/>
       <use x="63.623047" xlink:href="#DejaVuSans-48"/>
       <use x="127.246094" xlink:href="#DejaVuSans-48"/>
      </g>
     </g>
    </g>
    <g id="ytick_6">
     <g id="line2d_20">
      <path clip-path="url(#p3241e6e963)" d="M 62.89875 371.132614 
L 1178.89875 371.132614 
" style="fill:none;stroke:#b0b0b0;stroke-linecap:square;stroke-width:0.8;"/>
     </g>
     <g id="line2d_21">
      <g>
       <use style="stroke:#000000;stroke-width:0.8;" x="62.89875" xlink:href="#m2109198798" y="371.132614"/>
      </g>
     </g>
     <g id="text_15">
      <!-- 500 -->
      <g transform="translate(31.085 376.071599)scale(0.13 -0.13)">
       <use xlink:href="#DejaVuSans-53"/>
       <use x="63.623047" xlink:href="#DejaVuSans-48"/>
       <use x="127.246094" xlink:href="#DejaVuSans-48"/>
      </g>
     </g>
    </g>
    <g id="ytick_7">
     <g id="line2d_22">
      <path clip-path="url(#p3241e6e963)" d="M 62.89875 348.695512 
L 1178.89875 348.695512 
" style="fill:none;stroke:#b0b0b0;stroke-linecap:square;stroke-width:0.8;"/>
     </g>
     <g id="line2d_23">
      <g>
       <use style="stroke:#000000;stroke-width:0.8;" x="62.89875" xlink:href="#m2109198798" y="348.695512"/>
      </g>
     </g>
     <g id="text_16">
      <!-- 600 -->
      <g transform="translate(31.085 353.634497)scale(0.13 -0.13)">
       <use xlink:href="#DejaVuSans-54"/>
       <use x="63.623047" xlink:href="#DejaVuSans-48"/>
       <use x="127.246094" xlink:href="#DejaVuSans-48"/>
      </g>
     </g>
    </g>
    <g id="ytick_8">
     <g id="line2d_24">
      <path clip-path="url(#p3241e6e963)" d="M 62.89875 326.258411 
L 1178.89875 326.258411 
" style="fill:none;stroke:#b0b0b0;stroke-linecap:square;stroke-width:0.8;"/>
     </g>
     <g id="line2d_25">
      <g>
       <use style="stroke:#000000;stroke-width:0.8;" x="62.89875" xlink:href="#m2109198798" y="326.258411"/>
      </g>
     </g>
     <g id="text_17">
      <!-- 700 -->
      <g transform="translate(31.085 331.197395)scale(0.13 -0.13)">
       <use xlink:href="#DejaVuSans-55"/>
       <use x="63.623047" xlink:href="#DejaVuSans-48"/>
       <use x="127.246094" xlink:href="#DejaVuSans-48"/>
      </g>
     </g>
    </g>
    <g id="ytick_9">
     <g id="line2d_26">
      <path clip-path="url(#p3241e6e963)" d="M 62.89875 303.821309 
L 1178.89875 303.821309 
" style="fill:none;stroke:#b0b0b0;stroke-linecap:square;stroke-width:0.8;"/>
     </g>
     <g id="line2d_27">
      <g>
       <use style="stroke:#000000;stroke-width:0.8;" x="62.89875" xlink:href="#m2109198798" y="303.821309"/>
      </g>
     </g>
     <g id="text_18">
      <!-- 800 -->
      <g transform="translate(31.085 308.760293)scale(0.13 -0.13)">
       <use xlink:href="#DejaVuSans-56"/>
       <use x="63.623047" xlink:href="#DejaVuSans-48"/>
       <use x="127.246094" xlink:href="#DejaVuSans-48"/>
      </g>
     </g>
    </g>
    <g id="ytick_10">
     <g id="line2d_28">
      <path clip-path="url(#p3241e6e963)" d="M 62.89875 281.384207 
L 1178.89875 281.384207 
" style="fill:none;stroke:#b0b0b0;stroke-linecap:square;stroke-width:0.8;"/>
     </g>
     <g id="line2d_29">
      <g>
       <use style="stroke:#000000;stroke-width:0.8;" x="62.89875" xlink:href="#m2109198798" y="281.384207"/>
      </g>
     </g>
     <g id="text_19">
      <!-- 900 -->
      <g transform="translate(31.085 286.323191)scale(0.13 -0.13)">
       <use xlink:href="#DejaVuSans-57"/>
       <use x="63.623047" xlink:href="#DejaVuSans-48"/>
       <use x="127.246094" xlink:href="#DejaVuSans-48"/>
      </g>
     </g>
    </g>
    <g id="ytick_11">
     <g id="line2d_30">
      <path clip-path="url(#p3241e6e963)" d="M 62.89875 258.947105 
L 1178.89875 258.947105 
" style="fill:none;stroke:#b0b0b0;stroke-linecap:square;stroke-width:0.8;"/>
     </g>
     <g id="line2d_31">
      <g>
       <use style="stroke:#000000;stroke-width:0.8;" x="62.89875" xlink:href="#m2109198798" y="258.947105"/>
      </g>
     </g>
     <g id="text_20">
      <!-- 1000 -->
      <g transform="translate(22.81375 263.886089)scale(0.13 -0.13)">
       <use xlink:href="#DejaVuSans-49"/>
       <use x="63.623047" xlink:href="#DejaVuSans-48"/>
       <use x="127.246094" xlink:href="#DejaVuSans-48"/>
       <use x="190.869141" xlink:href="#DejaVuSans-48"/>
      </g>
     </g>
    </g>
    <g id="ytick_12">
     <g id="line2d_32">
      <path clip-path="url(#p3241e6e963)" d="M 62.89875 236.510003 
L 1178.89875 236.510003 
" style="fill:none;stroke:#b0b0b0;stroke-linecap:square;stroke-width:0.8;"/>
     </g>
     <g id="line2d_33">
      <g>
       <use style="stroke:#000000;stroke-width:0.8;" x="62.89875" xlink:href="#m2109198798" y="236.510003"/>
      </g>
     </g>
     <g id="text_21">
      <!-- 1100 -->
      <g transform="translate(22.81375 241.448987)scale(0.13 -0.13)">
       <use xlink:href="#DejaVuSans-49"/>
       <use x="63.623047" xlink:href="#DejaVuSans-49"/>
       <use x="127.246094" xlink:href="#DejaVuSans-48"/>
       <use x="190.869141" xlink:href="#DejaVuSans-48"/>
      </g>
     </g>
    </g>
    <g id="ytick_13">
     <g id="line2d_34">
      <path clip-path="url(#p3241e6e963)" d="M 62.89875 214.072901 
L 1178.89875 214.072901 
" style="fill:none;stroke:#b0b0b0;stroke-linecap:square;stroke-width:0.8;"/>
     </g>
     <g id="line2d_35">
      <g>
       <use style="stroke:#000000;stroke-width:0.8;" x="62.89875" xlink:href="#m2109198798" y="214.072901"/>
      </g>
     </g>
     <g id="text_22">
      <!-- 1200 -->
      <g transform="translate(22.81375 219.011886)scale(0.13 -0.13)">
       <use xlink:href="#DejaVuSans-49"/>
       <use x="63.623047" xlink:href="#DejaVuSans-50"/>
       <use x="127.246094" xlink:href="#DejaVuSans-48"/>
       <use x="190.869141" xlink:href="#DejaVuSans-48"/>
      </g>
     </g>
    </g>
    <g id="ytick_14">
     <g id="line2d_36">
      <path clip-path="url(#p3241e6e963)" d="M 62.89875 191.635799 
L 1178.89875 191.635799 
" style="fill:none;stroke:#b0b0b0;stroke-linecap:square;stroke-width:0.8;"/>
     </g>
     <g id="line2d_37">
      <g>
       <use style="stroke:#000000;stroke-width:0.8;" x="62.89875" xlink:href="#m2109198798" y="191.635799"/>
      </g>
     </g>
     <g id="text_23">
      <!-- 1300 -->
      <g transform="translate(22.81375 196.574784)scale(0.13 -0.13)">
       <use xlink:href="#DejaVuSans-49"/>
       <use x="63.623047" xlink:href="#DejaVuSans-51"/>
       <use x="127.246094" xlink:href="#DejaVuSans-48"/>
       <use x="190.869141" xlink:href="#DejaVuSans-48"/>
      </g>
     </g>
    </g>
    <g id="ytick_15">
     <g id="line2d_38">
      <path clip-path="url(#p3241e6e963)" d="M 62.89875 169.198697 
L 1178.89875 169.198697 
" style="fill:none;stroke:#b0b0b0;stroke-linecap:square;stroke-width:0.8;"/>
     </g>
     <g id="line2d_39">
      <g>
       <use style="stroke:#000000;stroke-width:0.8;" x="62.89875" xlink:href="#m2109198798" y="169.198697"/>
      </g>
     </g>
     <g id="text_24">
      <!-- 1400 -->
      <g transform="translate(22.81375 174.137682)scale(0.13 -0.13)">
       <use xlink:href="#DejaVuSans-49"/>
       <use x="63.623047" xlink:href="#DejaVuSans-52"/>
       <use x="127.246094" xlink:href="#DejaVuSans-48"/>
       <use x="190.869141" xlink:href="#DejaVuSans-48"/>
      </g>
     </g>
    </g>
    <g id="ytick_16">
     <g id="line2d_40">
      <path clip-path="url(#p3241e6e963)" d="M 62.89875 146.761596 
L 1178.89875 146.761596 
" style="fill:none;stroke:#b0b0b0;stroke-linecap:square;stroke-width:0.8;"/>
     </g>
     <g id="line2d_41">
      <g>
       <use style="stroke:#000000;stroke-width:0.8;" x="62.89875" xlink:href="#m2109198798" y="146.761596"/>
      </g>
     </g>
     <g id="text_25">
      <!-- 1500 -->
      <g transform="translate(22.81375 151.70058)scale(0.13 -0.13)">
       <use xlink:href="#DejaVuSans-49"/>
       <use x="63.623047" xlink:href="#DejaVuSans-53"/>
       <use x="127.246094" xlink:href="#DejaVuSans-48"/>
       <use x="190.869141" xlink:href="#DejaVuSans-48"/>
      </g>
     </g>
    </g>
    <g id="ytick_17">
     <g id="line2d_42">
      <path clip-path="url(#p3241e6e963)" d="M 62.89875 124.324494 
L 1178.89875 124.324494 
" style="fill:none;stroke:#b0b0b0;stroke-linecap:square;stroke-width:0.8;"/>
     </g>
     <g id="line2d_43">
      <g>
       <use style="stroke:#000000;stroke-width:0.8;" x="62.89875" xlink:href="#m2109198798" y="124.324494"/>
      </g>
     </g>
     <g id="text_26">
      <!-- 1600 -->
      <g transform="translate(22.81375 129.263478)scale(0.13 -0.13)">
       <use xlink:href="#DejaVuSans-49"/>
       <use x="63.623047" xlink:href="#DejaVuSans-54"/>
       <use x="127.246094" xlink:href="#DejaVuSans-48"/>
       <use x="190.869141" xlink:href="#DejaVuSans-48"/>
      </g>
     </g>
    </g>
    <g id="ytick_18">
     <g id="line2d_44">
      <path clip-path="url(#p3241e6e963)" d="M 62.89875 101.887392 
L 1178.89875 101.887392 
" style="fill:none;stroke:#b0b0b0;stroke-linecap:square;stroke-width:0.8;"/>
     </g>
     <g id="line2d_45">
      <g>
       <use style="stroke:#000000;stroke-width:0.8;" x="62.89875" xlink:href="#m2109198798" y="101.887392"/>
      </g>
     </g>
     <g id="text_27">
      <!-- 1700 -->
      <g transform="translate(22.81375 106.826376)scale(0.13 -0.13)">
       <use xlink:href="#DejaVuSans-49"/>
       <use x="63.623047" xlink:href="#DejaVuSans-55"/>
       <use x="127.246094" xlink:href="#DejaVuSans-48"/>
       <use x="190.869141" xlink:href="#DejaVuSans-48"/>
      </g>
     </g>
    </g>
    <g id="ytick_19">
     <g id="line2d_46">
      <path clip-path="url(#p3241e6e963)" d="M 62.89875 79.45029 
L 1178.89875 79.45029 
" style="fill:none;stroke:#b0b0b0;stroke-linecap:square;stroke-width:0.8;"/>
     </g>
     <g id="line2d_47">
      <g>
       <use style="stroke:#000000;stroke-width:0.8;" x="62.89875" xlink:href="#m2109198798" y="79.45029"/>
      </g>
     </g>
     <g id="text_28">
      <!-- 1800 -->
      <g transform="translate(22.81375 84.389274)scale(0.13 -0.13)">
       <use xlink:href="#DejaVuSans-49"/>
       <use x="63.623047" xlink:href="#DejaVuSans-56"/>
       <use x="127.246094" xlink:href="#DejaVuSans-48"/>
       <use x="190.869141" xlink:href="#DejaVuSans-48"/>
      </g>
     </g>
    </g>
    <g id="ytick_20">
     <g id="line2d_48">
      <path clip-path="url(#p3241e6e963)" d="M 62.89875 57.013188 
L 1178.89875 57.013188 
" style="fill:none;stroke:#b0b0b0;stroke-linecap:square;stroke-width:0.8;"/>
     </g>
     <g id="line2d_49">
      <g>
       <use style="stroke:#000000;stroke-width:0.8;" x="62.89875" xlink:href="#m2109198798" y="57.013188"/>
      </g>
     </g>
     <g id="text_29">
      <!-- 1900 -->
      <g transform="translate(22.81375 61.952172)scale(0.13 -0.13)">
       <use xlink:href="#DejaVuSans-49"/>
       <use x="63.623047" xlink:href="#DejaVuSans-57"/>
       <use x="127.246094" xlink:href="#DejaVuSans-48"/>
       <use x="190.869141" xlink:href="#DejaVuSans-48"/>
      </g>
     </g>
    </g>
    <g id="ytick_21">
     <g id="line2d_50">
      <path clip-path="url(#p3241e6e963)" d="M 62.89875 34.576086 
L 1178.89875 34.576086 
" style="fill:none;stroke:#b0b0b0;stroke-linecap:square;stroke-width:0.8;"/>
     </g>
     <g id="line2d_51">
      <g>
       <use style="stroke:#000000;stroke-width:0.8;" x="62.89875" xlink:href="#m2109198798" y="34.576086"/>
      </g>
     </g>
     <g id="text_30">
      <!-- 2000 -->
      <g transform="translate(22.81375 39.515071)scale(0.13 -0.13)">
       <use xlink:href="#DejaVuSans-50"/>
       <use x="63.623047" xlink:href="#DejaVuSans-48"/>
       <use x="127.246094" xlink:href="#DejaVuSans-48"/>
       <use x="190.869141" xlink:href="#DejaVuSans-48"/>
      </g>
     </g>
    </g>
    <g id="ytick_22">
     <g id="line2d_52">
      <path clip-path="url(#p3241e6e963)" d="M 62.89875 12.138984 
L 1178.89875 12.138984 
" style="fill:none;stroke:#b0b0b0;stroke-linecap:square;stroke-width:0.8;"/>
     </g>
     <g id="line2d_53">
      <g>
       <use style="stroke:#000000;stroke-width:0.8;" x="62.89875" xlink:href="#m2109198798" y="12.138984"/>
      </g>
     </g>
     <g id="text_31">
      <!-- 2100 -->
      <g transform="translate(22.81375 17.077969)scale(0.13 -0.13)">
       <use xlink:href="#DejaVuSans-50"/>
       <use x="63.623047" xlink:href="#DejaVuSans-49"/>
       <use x="127.246094" xlink:href="#DejaVuSans-48"/>
       <use x="190.869141" xlink:href="#DejaVuSans-48"/>
      </g>
     </g>
    </g>
    <g id="text_32">
     <!-- Anzahl von Fällen -->
     <defs>
      <path d="M 34.1875 63.1875 
L 20.796875 26.90625 
L 47.609375 26.90625 
z
M 28.609375 72.90625 
L 39.796875 72.90625 
L 67.578125 0 
L 57.328125 0 
L 50.6875 18.703125 
L 17.828125 18.703125 
L 11.1875 0 
L 0.78125 0 
z
" id="DejaVuSans-65"/>
      <path d="M 54.890625 33.015625 
L 54.890625 0 
L 45.90625 0 
L 45.90625 32.71875 
Q 45.90625 40.484375 42.875 44.328125 
Q 39.84375 48.1875 33.796875 48.1875 
Q 26.515625 48.1875 22.3125 43.546875 
Q 18.109375 38.921875 18.109375 30.90625 
L 18.109375 0 
L 9.078125 0 
L 9.078125 54.6875 
L 18.109375 54.6875 
L 18.109375 46.1875 
Q 21.34375 51.125 25.703125 53.5625 
Q 30.078125 56 35.796875 56 
Q 45.21875 56 50.046875 50.171875 
Q 54.890625 44.34375 54.890625 33.015625 
z
" id="DejaVuSans-110"/>
      <path d="M 5.515625 54.6875 
L 48.1875 54.6875 
L 48.1875 46.484375 
L 14.40625 7.171875 
L 48.1875 7.171875 
L 48.1875 0 
L 4.296875 0 
L 4.296875 8.203125 
L 38.09375 47.515625 
L 5.515625 47.515625 
z
" id="DejaVuSans-122"/>
      <path d="M 34.28125 27.484375 
Q 23.390625 27.484375 19.1875 25 
Q 14.984375 22.515625 14.984375 16.5 
Q 14.984375 11.71875 18.140625 8.90625 
Q 21.296875 6.109375 26.703125 6.109375 
Q 34.1875 6.109375 38.703125 11.40625 
Q 43.21875 16.703125 43.21875 25.484375 
L 43.21875 27.484375 
z
M 52.203125 31.203125 
L 52.203125 0 
L 43.21875 0 
L 43.21875 8.296875 
Q 40.140625 3.328125 35.546875 0.953125 
Q 30.953125 -1.421875 24.3125 -1.421875 
Q 15.921875 -1.421875 10.953125 3.296875 
Q 6 8.015625 6 15.921875 
Q 6 25.140625 12.171875 29.828125 
Q 18.359375 34.515625 30.609375 34.515625 
L 43.21875 34.515625 
L 43.21875 35.40625 
Q 43.21875 41.609375 39.140625 45 
Q 35.0625 48.390625 27.6875 48.390625 
Q 23 48.390625 18.546875 47.265625 
Q 14.109375 46.140625 10.015625 43.890625 
L 10.015625 52.203125 
Q 14.9375 54.109375 19.578125 55.046875 
Q 24.21875 56 28.609375 56 
Q 40.484375 56 46.34375 49.84375 
Q 52.203125 43.703125 52.203125 31.203125 
z
" id="DejaVuSans-97"/>
      <path d="M 54.890625 33.015625 
L 54.890625 0 
L 45.90625 0 
L 45.90625 32.71875 
Q 45.90625 40.484375 42.875 44.328125 
Q 39.84375 48.1875 33.796875 48.1875 
Q 26.515625 48.1875 22.3125 43.546875 
Q 18.109375 38.921875 18.109375 30.90625 
L 18.109375 0 
L 9.078125 0 
L 9.078125 75.984375 
L 18.109375 75.984375 
L 18.109375 46.1875 
Q 21.34375 51.125 25.703125 53.5625 
Q 30.078125 56 35.796875 56 
Q 45.21875 56 50.046875 50.171875 
Q 54.890625 44.34375 54.890625 33.015625 
z
" id="DejaVuSans-104"/>
      <path d="M 9.421875 75.984375 
L 18.40625 75.984375 
L 18.40625 0 
L 9.421875 0 
z
" id="DejaVuSans-108"/>
      <path id="DejaVuSans-32"/>
      <path d="M 2.984375 54.6875 
L 12.5 54.6875 
L 29.59375 8.796875 
L 46.6875 54.6875 
L 56.203125 54.6875 
L 35.6875 0 
L 23.484375 0 
z
" id="DejaVuSans-118"/>
      <path d="M 30.609375 48.390625 
Q 23.390625 48.390625 19.1875 42.75 
Q 14.984375 37.109375 14.984375 27.296875 
Q 14.984375 17.484375 19.15625 11.84375 
Q 23.34375 6.203125 30.609375 6.203125 
Q 37.796875 6.203125 41.984375 11.859375 
Q 46.1875 17.53125 46.1875 27.296875 
Q 46.1875 37.015625 41.984375 42.703125 
Q 37.796875 48.390625 30.609375 48.390625 
z
M 30.609375 56 
Q 42.328125 56 49.015625 48.375 
Q 55.71875 40.765625 55.71875 27.296875 
Q 55.71875 13.875 49.015625 6.21875 
Q 42.328125 -1.421875 30.609375 -1.421875 
Q 18.84375 -1.421875 12.171875 6.21875 
Q 5.515625 13.875 5.515625 27.296875 
Q 5.515625 40.765625 12.171875 48.375 
Q 18.84375 56 30.609375 56 
z
" id="DejaVuSans-111"/>
      <path d="M 9.8125 72.90625 
L 51.703125 72.90625 
L 51.703125 64.59375 
L 19.671875 64.59375 
L 19.671875 43.109375 
L 48.578125 43.109375 
L 48.578125 34.8125 
L 19.671875 34.8125 
L 19.671875 0 
L 9.8125 0 
z
" id="DejaVuSans-70"/>
      <path d="M 34.28125 27.484375 
Q 23.390625 27.484375 19.1875 25 
Q 14.984375 22.515625 14.984375 16.5 
Q 14.984375 11.71875 18.140625 8.90625 
Q 21.296875 6.109375 26.703125 6.109375 
Q 34.1875 6.109375 38.703125 11.40625 
Q 43.21875 16.703125 43.21875 25.484375 
L 43.21875 27.484375 
z
M 52.203125 31.203125 
L 52.203125 0 
L 43.21875 0 
L 43.21875 8.296875 
Q 40.140625 3.328125 35.546875 0.953125 
Q 30.953125 -1.421875 24.3125 -1.421875 
Q 15.921875 -1.421875 10.953125 3.296875 
Q 6 8.015625 6 15.921875 
Q 6 25.140625 12.171875 29.828125 
Q 18.359375 34.515625 30.609375 34.515625 
L 43.21875 34.515625 
L 43.21875 35.40625 
Q 43.21875 41.609375 39.140625 45 
Q 35.0625 48.390625 27.6875 48.390625 
Q 23 48.390625 18.546875 47.265625 
Q 14.109375 46.140625 10.015625 43.890625 
L 10.015625 52.203125 
Q 14.9375 54.109375 19.578125 55.046875 
Q 24.21875 56 28.609375 56 
Q 40.484375 56 46.34375 49.84375 
Q 52.203125 43.703125 52.203125 31.203125 
z
M 33.59375 75.78125 
L 43.5 75.78125 
L 43.5 65.921875 
L 33.59375 65.921875 
z
M 14.5 75.78125 
L 24.40625 75.78125 
L 24.40625 65.921875 
L 14.5 65.921875 
z
" id="DejaVuSans-228"/>
      <path d="M 56.203125 29.59375 
L 56.203125 25.203125 
L 14.890625 25.203125 
Q 15.484375 15.921875 20.484375 11.0625 
Q 25.484375 6.203125 34.421875 6.203125 
Q 39.59375 6.203125 44.453125 7.46875 
Q 49.3125 8.734375 54.109375 11.28125 
L 54.109375 2.78125 
Q 49.265625 0.734375 44.1875 -0.34375 
Q 39.109375 -1.421875 33.890625 -1.421875 
Q 20.796875 -1.421875 13.15625 6.1875 
Q 5.515625 13.8125 5.515625 26.8125 
Q 5.515625 40.234375 12.765625 48.109375 
Q 20.015625 56 32.328125 56 
Q 43.359375 56 49.78125 48.890625 
Q 56.203125 41.796875 56.203125 29.59375 
z
M 47.21875 32.234375 
Q 47.125 39.59375 43.09375 43.984375 
Q 39.0625 48.390625 32.421875 48.390625 
Q 24.90625 48.390625 20.390625 44.140625 
Q 15.875 39.890625 15.1875 32.171875 
z
" id="DejaVuSans-101"/>
     </defs>
     <g transform="translate(16.318125 309.388359)rotate(-90)scale(0.12 -0.12)">
      <use xlink:href="#DejaVuSans-65"/>
      <use x="68.408203" xlink:href="#DejaVuSans-110"/>
      <use x="131.787109" xlink:href="#DejaVuSans-122"/>
      <use x="184.277344" xlink:href="#DejaVuSans-97"/>
      <use x="245.556641" xlink:href="#DejaVuSans-104"/>
      <use x="308.935547" xlink:href="#DejaVuSans-108"/>
      <use x="336.71875" xlink:href="#DejaVuSans-32"/>
      <use x="368.505859" xlink:href="#DejaVuSans-118"/>
      <use x="427.685547" xlink:href="#DejaVuSans-111"/>
      <use x="488.867188" xlink:href="#DejaVuSans-110"/>
      <use x="552.246094" xlink:href="#DejaVuSans-32"/>
      <use x="584.033203" xlink:href="#DejaVuSans-70"/>
      <use x="632.427734" xlink:href="#DejaVuSans-228"/>
      <use x="693.707031" xlink:href="#DejaVuSans-108"/>
      <use x="721.490234" xlink:href="#DejaVuSans-108"/>
      <use x="749.273438" xlink:href="#DejaVuSans-101"/>
      <use x="810.796875" xlink:href="#DejaVuSans-110"/>
     </g>
    </g>
   </g>
   <g id="line2d_54">
    <path clip-path="url(#p3241e6e963)" d="M 113.626023 482.869382 
L 121.341197 482.869382 
L 125.198785 482.196269 
L 129.056372 482.196269 
L 132.913959 481.074414 
L 144.486721 481.074414 
L 148.344308 480.850043 
L 152.201896 480.176929 
L 156.059483 478.606332 
L 159.91707 477.484477 
L 163.774657 477.484477 
L 167.632245 477.260106 
L 171.489832 477.260106 
L 175.347419 476.586993 
L 179.205006 476.138251 
L 183.062594 475.016396 
L 190.777768 474.567654 
L 198.492943 473.67017 
L 202.35053 473.445799 
L 206.208117 473.445799 
L 210.065705 471.875202 
L 213.923292 471.875202 
L 225.496054 470.080234 
L 229.353641 469.407121 
L 233.211228 467.836523 
L 240.926403 467.387781 
L 248.641578 465.368442 
L 252.499165 464.022216 
L 256.356752 463.349103 
L 260.214339 462.002877 
L 267.929514 461.329764 
L 275.644688 459.534796 
L 279.502276 458.412941 
L 283.359863 457.739828 
L 287.21745 456.617973 
L 291.075038 456.393601 
L 294.932625 454.823004 
L 306.505387 453.252407 
L 310.362974 451.68181 
L 314.220561 451.68181 
L 321.935736 448.540616 
L 329.65091 447.19439 
L 333.508498 446.745648 
L 345.08126 444.726309 
L 348.938847 444.277566 
L 356.654021 444.053195 
L 360.511609 444.053195 
L 368.226783 443.380082 
L 372.08437 442.706969 
L 387.51472 442.258227 
L 391.372307 441.585114 
L 395.229894 441.360743 
L 399.087481 440.912001 
L 410.660243 440.912001 
L 414.517831 440.463259 
L 418.375418 440.238888 
L 426.090592 439.341404 
L 429.94818 439.117033 
L 445.378529 439.117033 
L 453.093703 437.770807 
L 456.951291 437.770807 
L 464.666465 437.546436 
L 472.38164 437.097694 
L 534.103036 437.097694 
L 545.675798 436.424581 
L 549.533385 435.975839 
L 553.390973 435.751468 
L 557.24856 435.302726 
L 561.106147 435.302726 
L 572.678909 434.853984 
L 584.251671 433.732129 
L 615.112369 433.732129 
L 653.688242 427.674111 
L 657.545829 425.879143 
L 665.261004 424.981659 
L 669.118591 424.981659 
L 680.691353 423.411062 
L 684.54894 422.289207 
L 688.406527 422.064836 
L 692.264115 421.616094 
L 696.121702 421.616094 
L 707.694464 421.391723 
L 711.552051 420.942981 
L 715.409638 420.71861 
L 719.267226 420.045496 
L 723.124813 419.148012 
L 738.555162 418.923641 
L 742.412749 418.474899 
L 746.270337 417.801786 
L 750.127924 417.801786 
L 765.558273 416.006818 
L 769.41586 415.782447 
L 773.273448 415.782447 
L 777.131035 414.884963 
L 792.561384 414.884963 
L 796.418971 414.660592 
L 800.276559 413.987479 
L 804.134146 413.987479 
L 815.706908 413.538737 
L 819.564495 413.538737 
L 827.279669 412.641253 
L 831.137257 412.416882 
L 842.710019 411.96814 
L 846.567606 411.070656 
L 850.425193 411.070656 
L 858.140368 410.621914 
L 869.71313 407.480719 
L 873.570717 407.256348 
L 877.428304 406.358864 
L 881.285891 404.339525 
L 900.573828 401.871444 
L 927.576939 395.813426 
L 931.434526 394.018458 
L 935.292113 390.877264 
L 939.149701 390.652893 
L 950.722462 387.287328 
L 954.58005 387.062957 
L 958.437637 382.799907 
L 962.295224 381.22931 
L 966.152812 380.107455 
L 977.725573 375.620035 
L 985.440748 375.620035 
L 993.155922 371.132614 
L 1004.728684 368.888904 
L 1012.443859 357.670353 
L 1016.301446 353.182933 
L 1020.159033 344.208092 
L 1031.731795 335.233251 
L 1043.304557 321.77099 
L 1047.162144 319.52728 
L 1058.734906 303.821309 
L 1062.592494 292.602758 
L 1070.307668 265.678236 
L 1074.165255 258.947105 
L 1085.738017 236.510003 
L 1097.310779 169.198697 
L 1101.168366 169.198697 
L 1112.741128 146.761596 
L 1116.598715 146.761596 
L 1120.456303 124.324494 
L 1128.171477 124.324494 
L 1128.171477 124.324494 
" style="fill:none;stroke:#dbcd00;stroke-linecap:square;stroke-width:2;"/>
    <defs>
     <path d="M 0 1.5 
C 0.397805 1.5 0.77937 1.341951 1.06066 1.06066 
C 1.341951 0.77937 1.5 0.397805 1.5 0 
C 1.5 -0.397805 1.341951 -0.77937 1.06066 -1.06066 
C 0.77937 -1.341951 0.397805 -1.5 0 -1.5 
C -0.397805 -1.5 -0.77937 -1.341951 -1.06066 -1.06066 
C -1.341951 -0.77937 -1.5 -0.397805 -1.5 0 
C -1.5 0.397805 -1.341951 0.77937 -1.06066 1.06066 
C -0.77937 1.341951 -0.397805 1.5 0 1.5 
z
" id="mc966bbbf39" style="stroke:#dbcd00;"/>
    </defs>
    <g clip-path="url(#p3241e6e963)">
     <use style="fill:#dbcd00;stroke:#dbcd00;" x="113.626023" xlink:href="#mc966bbbf39" y="482.869382"/>
     <use style="fill:#dbcd00;stroke:#dbcd00;" x="117.48361" xlink:href="#mc966bbbf39" y="482.869382"/>
     <use style="fill:#dbcd00;stroke:#dbcd00;" x="121.341197" xlink:href="#mc966bbbf39" y="482.869382"/>
     <use style="fill:#dbcd00;stroke:#dbcd00;" x="125.198785" xlink:href="#mc966bbbf39" y="482.196269"/>
     <use style="fill:#dbcd00;stroke:#dbcd00;" x="129.056372" xlink:href="#mc966bbbf39" y="482.196269"/>
     <use style="fill:#dbcd00;stroke:#dbcd00;" x="132.913959" xlink:href="#mc966bbbf39" y="481.074414"/>
     <use style="fill:#dbcd00;stroke:#dbcd00;" x="136.771546" xlink:href="#mc966bbbf39" y="481.074414"/>
     <use style="fill:#dbcd00;stroke:#dbcd00;" x="140.629134" xlink:href="#mc966bbbf39" y="481.074414"/>
     <use style="fill:#dbcd00;stroke:#dbcd00;" x="144.486721" xlink:href="#mc966bbbf39" y="481.074414"/>
     <use style="fill:#dbcd00;stroke:#dbcd00;" x="148.344308" xlink:href="#mc966bbbf39" y="480.850043"/>
     <use style="fill:#dbcd00;stroke:#dbcd00;" x="152.201896" xlink:href="#mc966bbbf39" y="480.176929"/>
     <use style="fill:#dbcd00;stroke:#dbcd00;" x="156.059483" xlink:href="#mc966bbbf39" y="478.606332"/>
     <use style="fill:#dbcd00;stroke:#dbcd00;" x="159.91707" xlink:href="#mc966bbbf39" y="477.484477"/>
     <use style="fill:#dbcd00;stroke:#dbcd00;" x="163.774657" xlink:href="#mc966bbbf39" y="477.484477"/>
     <use style="fill:#dbcd00;stroke:#dbcd00;" x="167.632245" xlink:href="#mc966bbbf39" y="477.260106"/>
     <use style="fill:#dbcd00;stroke:#dbcd00;" x="171.489832" xlink:href="#mc966bbbf39" y="477.260106"/>
     <use style="fill:#dbcd00;stroke:#dbcd00;" x="175.347419" xlink:href="#mc966bbbf39" y="476.586993"/>
     <use style="fill:#dbcd00;stroke:#dbcd00;" x="179.205006" xlink:href="#mc966bbbf39" y="476.138251"/>
     <use style="fill:#dbcd00;stroke:#dbcd00;" x="183.062594" xlink:href="#mc966bbbf39" y="475.016396"/>
     <use style="fill:#dbcd00;stroke:#dbcd00;" x="190.777768" xlink:href="#mc966bbbf39" y="474.567654"/>
     <use style="fill:#dbcd00;stroke:#dbcd00;" x="198.492943" xlink:href="#mc966bbbf39" y="473.67017"/>
     <use style="fill:#dbcd00;stroke:#dbcd00;" x="202.35053" xlink:href="#mc966bbbf39" y="473.445799"/>
     <use style="fill:#dbcd00;stroke:#dbcd00;" x="206.208117" xlink:href="#mc966bbbf39" y="473.445799"/>
     <use style="fill:#dbcd00;stroke:#dbcd00;" x="210.065705" xlink:href="#mc966bbbf39" y="471.875202"/>
     <use style="fill:#dbcd00;stroke:#dbcd00;" x="213.923292" xlink:href="#mc966bbbf39" y="471.875202"/>
     <use style="fill:#dbcd00;stroke:#dbcd00;" x="221.638467" xlink:href="#mc966bbbf39" y="470.753347"/>
     <use style="fill:#dbcd00;stroke:#dbcd00;" x="225.496054" xlink:href="#mc966bbbf39" y="470.080234"/>
     <use style="fill:#dbcd00;stroke:#dbcd00;" x="229.353641" xlink:href="#mc966bbbf39" y="469.407121"/>
     <use style="fill:#dbcd00;stroke:#dbcd00;" x="233.211228" xlink:href="#mc966bbbf39" y="467.836523"/>
     <use style="fill:#dbcd00;stroke:#dbcd00;" x="237.068816" xlink:href="#mc966bbbf39" y="467.612152"/>
     <use style="fill:#dbcd00;stroke:#dbcd00;" x="240.926403" xlink:href="#mc966bbbf39" y="467.387781"/>
     <use style="fill:#dbcd00;stroke:#dbcd00;" x="248.641578" xlink:href="#mc966bbbf39" y="465.368442"/>
     <use style="fill:#dbcd00;stroke:#dbcd00;" x="252.499165" xlink:href="#mc966bbbf39" y="464.022216"/>
     <use style="fill:#dbcd00;stroke:#dbcd00;" x="256.356752" xlink:href="#mc966bbbf39" y="463.349103"/>
     <use style="fill:#dbcd00;stroke:#dbcd00;" x="260.214339" xlink:href="#mc966bbbf39" y="462.002877"/>
     <use style="fill:#dbcd00;stroke:#dbcd00;" x="267.929514" xlink:href="#mc966bbbf39" y="461.329764"/>
     <use style="fill:#dbcd00;stroke:#dbcd00;" x="275.644688" xlink:href="#mc966bbbf39" y="459.534796"/>
     <use style="fill:#dbcd00;stroke:#dbcd00;" x="279.502276" xlink:href="#mc966bbbf39" y="458.412941"/>
     <use style="fill:#dbcd00;stroke:#dbcd00;" x="283.359863" xlink:href="#mc966bbbf39" y="457.739828"/>
     <use style="fill:#dbcd00;stroke:#dbcd00;" x="287.21745" xlink:href="#mc966bbbf39" y="456.617973"/>
     <use style="fill:#dbcd00;stroke:#dbcd00;" x="291.075038" xlink:href="#mc966bbbf39" y="456.393601"/>
     <use style="fill:#dbcd00;stroke:#dbcd00;" x="294.932625" xlink:href="#mc966bbbf39" y="454.823004"/>
     <use style="fill:#dbcd00;stroke:#dbcd00;" x="302.647799" xlink:href="#mc966bbbf39" y="453.701149"/>
     <use style="fill:#dbcd00;stroke:#dbcd00;" x="306.505387" xlink:href="#mc966bbbf39" y="453.252407"/>
     <use style="fill:#dbcd00;stroke:#dbcd00;" x="310.362974" xlink:href="#mc966bbbf39" y="451.68181"/>
     <use style="fill:#dbcd00;stroke:#dbcd00;" x="314.220561" xlink:href="#mc966bbbf39" y="451.68181"/>
     <use style="fill:#dbcd00;stroke:#dbcd00;" x="318.078149" xlink:href="#mc966bbbf39" y="450.111213"/>
     <use style="fill:#dbcd00;stroke:#dbcd00;" x="321.935736" xlink:href="#mc966bbbf39" y="448.540616"/>
     <use style="fill:#dbcd00;stroke:#dbcd00;" x="329.65091" xlink:href="#mc966bbbf39" y="447.19439"/>
     <use style="fill:#dbcd00;stroke:#dbcd00;" x="333.508498" xlink:href="#mc966bbbf39" y="446.745648"/>
     <use style="fill:#dbcd00;stroke:#dbcd00;" x="337.366085" xlink:href="#mc966bbbf39" y="446.072535"/>
     <use style="fill:#dbcd00;stroke:#dbcd00;" x="345.08126" xlink:href="#mc966bbbf39" y="444.726309"/>
     <use style="fill:#dbcd00;stroke:#dbcd00;" x="348.938847" xlink:href="#mc966bbbf39" y="444.277566"/>
     <use style="fill:#dbcd00;stroke:#dbcd00;" x="356.654021" xlink:href="#mc966bbbf39" y="444.053195"/>
     <use style="fill:#dbcd00;stroke:#dbcd00;" x="360.511609" xlink:href="#mc966bbbf39" y="444.053195"/>
     <use style="fill:#dbcd00;stroke:#dbcd00;" x="368.226783" xlink:href="#mc966bbbf39" y="443.380082"/>
     <use style="fill:#dbcd00;stroke:#dbcd00;" x="372.08437" xlink:href="#mc966bbbf39" y="442.706969"/>
     <use style="fill:#dbcd00;stroke:#dbcd00;" x="387.51472" xlink:href="#mc966bbbf39" y="442.258227"/>
     <use style="fill:#dbcd00;stroke:#dbcd00;" x="391.372307" xlink:href="#mc966bbbf39" y="441.585114"/>
     <use style="fill:#dbcd00;stroke:#dbcd00;" x="395.229894" xlink:href="#mc966bbbf39" y="441.360743"/>
     <use style="fill:#dbcd00;stroke:#dbcd00;" x="399.087481" xlink:href="#mc966bbbf39" y="440.912001"/>
     <use style="fill:#dbcd00;stroke:#dbcd00;" x="402.945069" xlink:href="#mc966bbbf39" y="440.912001"/>
     <use style="fill:#dbcd00;stroke:#dbcd00;" x="410.660243" xlink:href="#mc966bbbf39" y="440.912001"/>
     <use style="fill:#dbcd00;stroke:#dbcd00;" x="414.517831" xlink:href="#mc966bbbf39" y="440.463259"/>
     <use style="fill:#dbcd00;stroke:#dbcd00;" x="418.375418" xlink:href="#mc966bbbf39" y="440.238888"/>
     <use style="fill:#dbcd00;stroke:#dbcd00;" x="426.090592" xlink:href="#mc966bbbf39" y="439.341404"/>
     <use style="fill:#dbcd00;stroke:#dbcd00;" x="429.94818" xlink:href="#mc966bbbf39" y="439.117033"/>
     <use style="fill:#dbcd00;stroke:#dbcd00;" x="437.663354" xlink:href="#mc966bbbf39" y="439.117033"/>
     <use style="fill:#dbcd00;stroke:#dbcd00;" x="445.378529" xlink:href="#mc966bbbf39" y="439.117033"/>
     <use style="fill:#dbcd00;stroke:#dbcd00;" x="453.093703" xlink:href="#mc966bbbf39" y="437.770807"/>
     <use style="fill:#dbcd00;stroke:#dbcd00;" x="456.951291" xlink:href="#mc966bbbf39" y="437.770807"/>
     <use style="fill:#dbcd00;stroke:#dbcd00;" x="464.666465" xlink:href="#mc966bbbf39" y="437.546436"/>
     <use style="fill:#dbcd00;stroke:#dbcd00;" x="468.524052" xlink:href="#mc966bbbf39" y="437.322065"/>
     <use style="fill:#dbcd00;stroke:#dbcd00;" x="472.38164" xlink:href="#mc966bbbf39" y="437.097694"/>
     <use style="fill:#dbcd00;stroke:#dbcd00;" x="476.239227" xlink:href="#mc966bbbf39" y="437.097694"/>
     <use style="fill:#dbcd00;stroke:#dbcd00;" x="483.954402" xlink:href="#mc966bbbf39" y="437.097694"/>
     <use style="fill:#dbcd00;stroke:#dbcd00;" x="491.669576" xlink:href="#mc966bbbf39" y="437.097694"/>
     <use style="fill:#dbcd00;stroke:#dbcd00;" x="495.527163" xlink:href="#mc966bbbf39" y="437.097694"/>
     <use style="fill:#dbcd00;stroke:#dbcd00;" x="499.384751" xlink:href="#mc966bbbf39" y="437.097694"/>
     <use style="fill:#dbcd00;stroke:#dbcd00;" x="503.242338" xlink:href="#mc966bbbf39" y="437.097694"/>
     <use style="fill:#dbcd00;stroke:#dbcd00;" x="507.099925" xlink:href="#mc966bbbf39" y="437.097694"/>
     <use style="fill:#dbcd00;stroke:#dbcd00;" x="510.957513" xlink:href="#mc966bbbf39" y="437.097694"/>
     <use style="fill:#dbcd00;stroke:#dbcd00;" x="522.530274" xlink:href="#mc966bbbf39" y="437.097694"/>
     <use style="fill:#dbcd00;stroke:#dbcd00;" x="526.387862" xlink:href="#mc966bbbf39" y="437.097694"/>
     <use style="fill:#dbcd00;stroke:#dbcd00;" x="530.245449" xlink:href="#mc966bbbf39" y="437.097694"/>
     <use style="fill:#dbcd00;stroke:#dbcd00;" x="534.103036" xlink:href="#mc966bbbf39" y="437.097694"/>
     <use style="fill:#dbcd00;stroke:#dbcd00;" x="545.675798" xlink:href="#mc966bbbf39" y="436.424581"/>
     <use style="fill:#dbcd00;stroke:#dbcd00;" x="549.533385" xlink:href="#mc966bbbf39" y="435.975839"/>
     <use style="fill:#dbcd00;stroke:#dbcd00;" x="553.390973" xlink:href="#mc966bbbf39" y="435.751468"/>
     <use style="fill:#dbcd00;stroke:#dbcd00;" x="557.24856" xlink:href="#mc966bbbf39" y="435.302726"/>
     <use style="fill:#dbcd00;stroke:#dbcd00;" x="561.106147" xlink:href="#mc966bbbf39" y="435.302726"/>
     <use style="fill:#dbcd00;stroke:#dbcd00;" x="572.678909" xlink:href="#mc966bbbf39" y="434.853984"/>
     <use style="fill:#dbcd00;stroke:#dbcd00;" x="584.251671" xlink:href="#mc966bbbf39" y="433.732129"/>
     <use style="fill:#dbcd00;stroke:#dbcd00;" x="588.109258" xlink:href="#mc966bbbf39" y="433.732129"/>
     <use style="fill:#dbcd00;stroke:#dbcd00;" x="599.68202" xlink:href="#mc966bbbf39" y="433.732129"/>
     <use style="fill:#dbcd00;stroke:#dbcd00;" x="603.539607" xlink:href="#mc966bbbf39" y="433.732129"/>
     <use style="fill:#dbcd00;stroke:#dbcd00;" x="607.397195" xlink:href="#mc966bbbf39" y="433.732129"/>
     <use style="fill:#dbcd00;stroke:#dbcd00;" x="611.254782" xlink:href="#mc966bbbf39" y="433.732129"/>
     <use style="fill:#dbcd00;stroke:#dbcd00;" x="615.112369" xlink:href="#mc966bbbf39" y="433.732129"/>
     <use style="fill:#dbcd00;stroke:#dbcd00;" x="653.688242" xlink:href="#mc966bbbf39" y="427.674111"/>
     <use style="fill:#dbcd00;stroke:#dbcd00;" x="657.545829" xlink:href="#mc966bbbf39" y="425.879143"/>
     <use style="fill:#dbcd00;stroke:#dbcd00;" x="665.261004" xlink:href="#mc966bbbf39" y="424.981659"/>
     <use style="fill:#dbcd00;stroke:#dbcd00;" x="669.118591" xlink:href="#mc966bbbf39" y="424.981659"/>
     <use style="fill:#dbcd00;stroke:#dbcd00;" x="680.691353" xlink:href="#mc966bbbf39" y="423.411062"/>
     <use style="fill:#dbcd00;stroke:#dbcd00;" x="684.54894" xlink:href="#mc966bbbf39" y="422.289207"/>
     <use style="fill:#dbcd00;stroke:#dbcd00;" x="688.406527" xlink:href="#mc966bbbf39" y="422.064836"/>
     <use style="fill:#dbcd00;stroke:#dbcd00;" x="692.264115" xlink:href="#mc966bbbf39" y="421.616094"/>
     <use style="fill:#dbcd00;stroke:#dbcd00;" x="696.121702" xlink:href="#mc966bbbf39" y="421.616094"/>
     <use style="fill:#dbcd00;stroke:#dbcd00;" x="707.694464" xlink:href="#mc966bbbf39" y="421.391723"/>
     <use style="fill:#dbcd00;stroke:#dbcd00;" x="711.552051" xlink:href="#mc966bbbf39" y="420.942981"/>
     <use style="fill:#dbcd00;stroke:#dbcd00;" x="715.409638" xlink:href="#mc966bbbf39" y="420.71861"/>
     <use style="fill:#dbcd00;stroke:#dbcd00;" x="719.267226" xlink:href="#mc966bbbf39" y="420.045496"/>
     <use style="fill:#dbcd00;stroke:#dbcd00;" x="723.124813" xlink:href="#mc966bbbf39" y="419.148012"/>
     <use style="fill:#dbcd00;stroke:#dbcd00;" x="734.697575" xlink:href="#mc966bbbf39" y="418.923641"/>
     <use style="fill:#dbcd00;stroke:#dbcd00;" x="738.555162" xlink:href="#mc966bbbf39" y="418.923641"/>
     <use style="fill:#dbcd00;stroke:#dbcd00;" x="742.412749" xlink:href="#mc966bbbf39" y="418.474899"/>
     <use style="fill:#dbcd00;stroke:#dbcd00;" x="746.270337" xlink:href="#mc966bbbf39" y="417.801786"/>
     <use style="fill:#dbcd00;stroke:#dbcd00;" x="750.127924" xlink:href="#mc966bbbf39" y="417.801786"/>
     <use style="fill:#dbcd00;stroke:#dbcd00;" x="761.700686" xlink:href="#mc966bbbf39" y="416.45556"/>
     <use style="fill:#dbcd00;stroke:#dbcd00;" x="765.558273" xlink:href="#mc966bbbf39" y="416.006818"/>
     <use style="fill:#dbcd00;stroke:#dbcd00;" x="769.41586" xlink:href="#mc966bbbf39" y="415.782447"/>
     <use style="fill:#dbcd00;stroke:#dbcd00;" x="773.273448" xlink:href="#mc966bbbf39" y="415.782447"/>
     <use style="fill:#dbcd00;stroke:#dbcd00;" x="777.131035" xlink:href="#mc966bbbf39" y="414.884963"/>
     <use style="fill:#dbcd00;stroke:#dbcd00;" x="788.703797" xlink:href="#mc966bbbf39" y="414.884963"/>
     <use style="fill:#dbcd00;stroke:#dbcd00;" x="792.561384" xlink:href="#mc966bbbf39" y="414.884963"/>
     <use style="fill:#dbcd00;stroke:#dbcd00;" x="796.418971" xlink:href="#mc966bbbf39" y="414.660592"/>
     <use style="fill:#dbcd00;stroke:#dbcd00;" x="800.276559" xlink:href="#mc966bbbf39" y="413.987479"/>
     <use style="fill:#dbcd00;stroke:#dbcd00;" x="804.134146" xlink:href="#mc966bbbf39" y="413.987479"/>
     <use style="fill:#dbcd00;stroke:#dbcd00;" x="815.706908" xlink:href="#mc966bbbf39" y="413.538737"/>
     <use style="fill:#dbcd00;stroke:#dbcd00;" x="819.564495" xlink:href="#mc966bbbf39" y="413.538737"/>
     <use style="fill:#dbcd00;stroke:#dbcd00;" x="823.422082" xlink:href="#mc966bbbf39" y="413.089995"/>
     <use style="fill:#dbcd00;stroke:#dbcd00;" x="827.279669" xlink:href="#mc966bbbf39" y="412.641253"/>
     <use style="fill:#dbcd00;stroke:#dbcd00;" x="831.137257" xlink:href="#mc966bbbf39" y="412.416882"/>
     <use style="fill:#dbcd00;stroke:#dbcd00;" x="842.710019" xlink:href="#mc966bbbf39" y="411.96814"/>
     <use style="fill:#dbcd00;stroke:#dbcd00;" x="846.567606" xlink:href="#mc966bbbf39" y="411.070656"/>
     <use style="fill:#dbcd00;stroke:#dbcd00;" x="850.425193" xlink:href="#mc966bbbf39" y="411.070656"/>
     <use style="fill:#dbcd00;stroke:#dbcd00;" x="854.28278" xlink:href="#mc966bbbf39" y="410.846285"/>
     <use style="fill:#dbcd00;stroke:#dbcd00;" x="858.140368" xlink:href="#mc966bbbf39" y="410.621914"/>
     <use style="fill:#dbcd00;stroke:#dbcd00;" x="869.71313" xlink:href="#mc966bbbf39" y="407.480719"/>
     <use style="fill:#dbcd00;stroke:#dbcd00;" x="873.570717" xlink:href="#mc966bbbf39" y="407.256348"/>
     <use style="fill:#dbcd00;stroke:#dbcd00;" x="877.428304" xlink:href="#mc966bbbf39" y="406.358864"/>
     <use style="fill:#dbcd00;stroke:#dbcd00;" x="881.285891" xlink:href="#mc966bbbf39" y="404.339525"/>
     <use style="fill:#dbcd00;stroke:#dbcd00;" x="896.71624" xlink:href="#mc966bbbf39" y="402.320186"/>
     <use style="fill:#dbcd00;stroke:#dbcd00;" x="900.573828" xlink:href="#mc966bbbf39" y="401.871444"/>
     <use style="fill:#dbcd00;stroke:#dbcd00;" x="927.576939" xlink:href="#mc966bbbf39" y="395.813426"/>
     <use style="fill:#dbcd00;stroke:#dbcd00;" x="931.434526" xlink:href="#mc966bbbf39" y="394.018458"/>
     <use style="fill:#dbcd00;stroke:#dbcd00;" x="935.292113" xlink:href="#mc966bbbf39" y="390.877264"/>
     <use style="fill:#dbcd00;stroke:#dbcd00;" x="939.149701" xlink:href="#mc966bbbf39" y="390.652893"/>
     <use style="fill:#dbcd00;stroke:#dbcd00;" x="950.722462" xlink:href="#mc966bbbf39" y="387.287328"/>
     <use style="fill:#dbcd00;stroke:#dbcd00;" x="954.58005" xlink:href="#mc966bbbf39" y="387.062957"/>
     <use style="fill:#dbcd00;stroke:#dbcd00;" x="958.437637" xlink:href="#mc966bbbf39" y="382.799907"/>
     <use style="fill:#dbcd00;stroke:#dbcd00;" x="962.295224" xlink:href="#mc966bbbf39" y="381.22931"/>
     <use style="fill:#dbcd00;stroke:#dbcd00;" x="966.152812" xlink:href="#mc966bbbf39" y="380.107455"/>
     <use style="fill:#dbcd00;stroke:#dbcd00;" x="977.725573" xlink:href="#mc966bbbf39" y="375.620035"/>
     <use style="fill:#dbcd00;stroke:#dbcd00;" x="981.583161" xlink:href="#mc966bbbf39" y="375.620035"/>
     <use style="fill:#dbcd00;stroke:#dbcd00;" x="985.440748" xlink:href="#mc966bbbf39" y="375.620035"/>
     <use style="fill:#dbcd00;stroke:#dbcd00;" x="989.298335" xlink:href="#mc966bbbf39" y="373.376325"/>
     <use style="fill:#dbcd00;stroke:#dbcd00;" x="993.155922" xlink:href="#mc966bbbf39" y="371.132614"/>
     <use style="fill:#dbcd00;stroke:#dbcd00;" x="1004.728684" xlink:href="#mc966bbbf39" y="368.888904"/>
     <use style="fill:#dbcd00;stroke:#dbcd00;" x="1012.443859" xlink:href="#mc966bbbf39" y="357.670353"/>
     <use style="fill:#dbcd00;stroke:#dbcd00;" x="1016.301446" xlink:href="#mc966bbbf39" y="353.182933"/>
     <use style="fill:#dbcd00;stroke:#dbcd00;" x="1020.159033" xlink:href="#mc966bbbf39" y="344.208092"/>
     <use style="fill:#dbcd00;stroke:#dbcd00;" x="1031.731795" xlink:href="#mc966bbbf39" y="335.233251"/>
     <use style="fill:#dbcd00;stroke:#dbcd00;" x="1035.589383" xlink:href="#mc966bbbf39" y="330.745831"/>
     <use style="fill:#dbcd00;stroke:#dbcd00;" x="1039.44697" xlink:href="#mc966bbbf39" y="326.258411"/>
     <use style="fill:#dbcd00;stroke:#dbcd00;" x="1043.304557" xlink:href="#mc966bbbf39" y="321.77099"/>
     <use style="fill:#dbcd00;stroke:#dbcd00;" x="1047.162144" xlink:href="#mc966bbbf39" y="319.52728"/>
     <use style="fill:#dbcd00;stroke:#dbcd00;" x="1058.734906" xlink:href="#mc966bbbf39" y="303.821309"/>
     <use style="fill:#dbcd00;stroke:#dbcd00;" x="1062.592494" xlink:href="#mc966bbbf39" y="292.602758"/>
     <use style="fill:#dbcd00;stroke:#dbcd00;" x="1070.307668" xlink:href="#mc966bbbf39" y="265.678236"/>
     <use style="fill:#dbcd00;stroke:#dbcd00;" x="1074.165255" xlink:href="#mc966bbbf39" y="258.947105"/>
     <use style="fill:#dbcd00;stroke:#dbcd00;" x="1085.738017" xlink:href="#mc966bbbf39" y="236.510003"/>
     <use style="fill:#dbcd00;stroke:#dbcd00;" x="1097.310779" xlink:href="#mc966bbbf39" y="169.198697"/>
     <use style="fill:#dbcd00;stroke:#dbcd00;" x="1101.168366" xlink:href="#mc966bbbf39" y="169.198697"/>
     <use style="fill:#dbcd00;stroke:#dbcd00;" x="1112.741128" xlink:href="#mc966bbbf39" y="146.761596"/>
     <use style="fill:#dbcd00;stroke:#dbcd00;" x="1116.598715" xlink:href="#mc966bbbf39" y="146.761596"/>
     <use style="fill:#dbcd00;stroke:#dbcd00;" x="1120.456303" xlink:href="#mc966bbbf39" y="124.324494"/>
     <use style="fill:#dbcd00;stroke:#dbcd00;" x="1124.31389" xlink:href="#mc966bbbf39" y="124.324494"/>
     <use style="fill:#dbcd00;stroke:#dbcd00;" x="1128.171477" xlink:href="#mc966bbbf39" y="124.324494"/>
    </g>
   </g>
   <g id="line2d_55">
    <path clip-path="url(#p3241e6e963)" d="M 113.626023 479.952558 
L 117.48361 479.728187 
L 121.341197 478.15759 
L 125.198785 479.503816 
L 129.056372 478.606332 
L 132.913959 477.484477 
L 136.771546 477.260106 
L 140.629134 476.811364 
L 144.486721 475.91388 
L 148.344308 475.91388 
L 152.201896 475.240767 
L 156.059483 475.91388 
L 159.91707 475.91388 
L 163.774657 475.689509 
L 167.632245 475.016396 
L 175.347419 473.221428 
L 179.205006 472.772686 
L 183.062594 473.221428 
L 190.777768 473.221428 
L 198.492943 472.997057 
L 202.35053 471.875202 
L 206.208117 471.650831 
L 210.065705 472.323944 
L 213.923292 471.650831 
L 221.638467 471.875202 
L 225.496054 470.528976 
L 229.353641 471.202089 
L 233.211228 472.099573 
L 237.068816 471.875202 
L 240.926403 469.18275 
L 252.499165 471.650831 
L 256.356752 472.099573 
L 260.214339 472.997057 
L 267.929514 471.875202 
L 275.644688 473.67017 
L 279.502276 471.875202 
L 283.359863 470.977718 
L 287.21745 472.099573 
L 291.075038 472.323944 
L 294.932625 473.445799 
L 302.647799 474.343283 
L 306.505387 474.567654 
L 310.362974 475.016396 
L 314.220561 475.016396 
L 318.078149 476.586993 
L 321.935736 477.708848 
L 329.65091 479.055074 
L 333.508498 479.279445 
L 345.08126 481.298785 
L 356.654021 480.625672 
L 360.511609 480.625672 
L 368.226783 480.850043 
L 372.08437 481.523156 
L 387.51472 480.850043 
L 391.372307 481.298785 
L 395.229894 481.074414 
L 399.087481 481.747527 
L 410.660243 481.747527 
L 414.517831 482.196269 
L 418.375418 481.747527 
L 426.090592 482.196269 
L 429.94818 481.971898 
L 445.378529 481.971898 
L 453.093703 483.318124 
L 456.951291 483.093753 
L 464.666465 483.318124 
L 468.524052 483.318124 
L 472.38164 483.766866 
L 495.527163 483.766866 
L 507.099925 483.093753 
L 510.957513 482.196269 
L 522.530274 482.196269 
L 526.387862 481.747527 
L 545.675798 481.747527 
L 549.533385 482.196269 
L 553.390973 482.42064 
L 557.24856 482.869382 
L 561.106147 481.971898 
L 572.678909 481.971898 
L 584.251671 481.074414 
L 588.109258 481.074414 
L 599.68202 478.381961 
L 607.397195 478.381961 
L 611.254782 477.708848 
L 615.112369 474.567654 
L 653.688242 477.035735 
L 657.545829 478.830703 
L 665.261004 479.279445 
L 680.691353 479.279445 
L 684.54894 480.4013 
L 688.406527 480.625672 
L 692.264115 481.074414 
L 696.121702 480.625672 
L 707.694464 480.176929 
L 711.552051 480.625672 
L 715.409638 480.625672 
L 723.124813 481.074414 
L 734.697575 481.074414 
L 742.412749 480.625672 
L 746.270337 481.298785 
L 750.127924 480.850043 
L 761.700686 481.074414 
L 765.558273 481.523156 
L 769.41586 480.4013 
L 773.273448 480.4013 
L 777.131035 481.074414 
L 788.703797 480.850043 
L 792.561384 480.625672 
L 796.418971 480.625672 
L 800.276559 481.298785 
L 804.134146 481.298785 
L 815.706908 479.952558 
L 819.564495 479.952558 
L 827.279669 480.4013 
L 831.137257 479.279445 
L 842.710019 477.260106 
L 846.567606 477.708848 
L 850.425193 476.138251 
L 854.28278 475.240767 
L 858.140368 475.465138 
L 869.71313 474.567654 
L 873.570717 474.567654 
L 877.428304 473.67017 
L 881.285891 475.689509 
L 900.573828 474.343283 
L 927.576939 466.265926 
L 931.434526 467.612152 
L 935.292113 467.387781 
L 939.149701 467.612152 
L 950.722462 448.989358 
L 954.58005 444.501937 
L 962.295224 437.770807 
L 966.152812 429.020337 
L 977.725573 403.890783 
L 981.583161 399.403363 
L 985.440748 392.896603 
L 989.298335 381.004939 
L 993.155922 368.664533 
L 1004.728684 354.75353 
L 1012.443859 354.080417 
L 1016.301446 353.182933 
L 1020.159033 353.407304 
L 1031.731795 339.720672 
L 1035.589383 341.066898 
L 1039.44697 337.252591 
L 1043.304557 332.316428 
L 1047.162144 317.732312 
L 1058.734906 318.629796 
L 1062.592494 324.0147 
L 1070.307668 336.579477 
L 1074.165255 333.887025 
L 1085.738017 339.945043 
L 1097.310779 388.409183 
L 1101.168366 377.863745 
L 1112.741128 384.370504 
L 1116.598715 375.171293 
L 1120.456303 391.326006 
L 1124.31389 391.326006 
L 1128.171477 379.658713 
L 1128.171477 379.658713 
" style="fill:none;stroke:#2792cb;stroke-linecap:square;stroke-width:2;"/>
    <defs>
     <path d="M 0 1.5 
C 0.397805 1.5 0.77937 1.341951 1.06066 1.06066 
C 1.341951 0.77937 1.5 0.397805 1.5 0 
C 1.5 -0.397805 1.341951 -0.77937 1.06066 -1.06066 
C 0.77937 -1.341951 0.397805 -1.5 0 -1.5 
C -0.397805 -1.5 -0.77937 -1.341951 -1.06066 -1.06066 
C -1.341951 -0.77937 -1.5 -0.397805 -1.5 0 
C -1.5 0.397805 -1.341951 0.77937 -1.06066 1.06066 
C -0.77937 1.341951 -0.397805 1.5 0 1.5 
z
" id="m5a38b982ea" style="stroke:#2792cb;"/>
    </defs>
    <g clip-path="url(#p3241e6e963)">
     <use style="fill:#2792cb;stroke:#2792cb;" x="113.626023" xlink:href="#m5a38b982ea" y="479.952558"/>
     <use style="fill:#2792cb;stroke:#2792cb;" x="117.48361" xlink:href="#m5a38b982ea" y="479.728187"/>
     <use style="fill:#2792cb;stroke:#2792cb;" x="121.341197" xlink:href="#m5a38b982ea" y="478.15759"/>
     <use style="fill:#2792cb;stroke:#2792cb;" x="125.198785" xlink:href="#m5a38b982ea" y="479.503816"/>
     <use style="fill:#2792cb;stroke:#2792cb;" x="129.056372" xlink:href="#m5a38b982ea" y="478.606332"/>
     <use style="fill:#2792cb;stroke:#2792cb;" x="132.913959" xlink:href="#m5a38b982ea" y="477.484477"/>
     <use style="fill:#2792cb;stroke:#2792cb;" x="136.771546" xlink:href="#m5a38b982ea" y="477.260106"/>
     <use style="fill:#2792cb;stroke:#2792cb;" x="140.629134" xlink:href="#m5a38b982ea" y="476.811364"/>
     <use style="fill:#2792cb;stroke:#2792cb;" x="144.486721" xlink:href="#m5a38b982ea" y="475.91388"/>
     <use style="fill:#2792cb;stroke:#2792cb;" x="148.344308" xlink:href="#m5a38b982ea" y="475.91388"/>
     <use style="fill:#2792cb;stroke:#2792cb;" x="152.201896" xlink:href="#m5a38b982ea" y="475.240767"/>
     <use style="fill:#2792cb;stroke:#2792cb;" x="156.059483" xlink:href="#m5a38b982ea" y="475.91388"/>
     <use style="fill:#2792cb;stroke:#2792cb;" x="159.91707" xlink:href="#m5a38b982ea" y="475.91388"/>
     <use style="fill:#2792cb;stroke:#2792cb;" x="163.774657" xlink:href="#m5a38b982ea" y="475.689509"/>
     <use style="fill:#2792cb;stroke:#2792cb;" x="167.632245" xlink:href="#m5a38b982ea" y="475.016396"/>
     <use style="fill:#2792cb;stroke:#2792cb;" x="171.489832" xlink:href="#m5a38b982ea" y="474.118912"/>
     <use style="fill:#2792cb;stroke:#2792cb;" x="175.347419" xlink:href="#m5a38b982ea" y="473.221428"/>
     <use style="fill:#2792cb;stroke:#2792cb;" x="179.205006" xlink:href="#m5a38b982ea" y="472.772686"/>
     <use style="fill:#2792cb;stroke:#2792cb;" x="183.062594" xlink:href="#m5a38b982ea" y="473.221428"/>
     <use style="fill:#2792cb;stroke:#2792cb;" x="190.777768" xlink:href="#m5a38b982ea" y="473.221428"/>
     <use style="fill:#2792cb;stroke:#2792cb;" x="198.492943" xlink:href="#m5a38b982ea" y="472.997057"/>
     <use style="fill:#2792cb;stroke:#2792cb;" x="202.35053" xlink:href="#m5a38b982ea" y="471.875202"/>
     <use style="fill:#2792cb;stroke:#2792cb;" x="206.208117" xlink:href="#m5a38b982ea" y="471.650831"/>
     <use style="fill:#2792cb;stroke:#2792cb;" x="210.065705" xlink:href="#m5a38b982ea" y="472.323944"/>
     <use style="fill:#2792cb;stroke:#2792cb;" x="213.923292" xlink:href="#m5a38b982ea" y="471.650831"/>
     <use style="fill:#2792cb;stroke:#2792cb;" x="221.638467" xlink:href="#m5a38b982ea" y="471.875202"/>
     <use style="fill:#2792cb;stroke:#2792cb;" x="225.496054" xlink:href="#m5a38b982ea" y="470.528976"/>
     <use style="fill:#2792cb;stroke:#2792cb;" x="229.353641" xlink:href="#m5a38b982ea" y="471.202089"/>
     <use style="fill:#2792cb;stroke:#2792cb;" x="233.211228" xlink:href="#m5a38b982ea" y="472.099573"/>
     <use style="fill:#2792cb;stroke:#2792cb;" x="237.068816" xlink:href="#m5a38b982ea" y="471.875202"/>
     <use style="fill:#2792cb;stroke:#2792cb;" x="240.926403" xlink:href="#m5a38b982ea" y="469.18275"/>
     <use style="fill:#2792cb;stroke:#2792cb;" x="248.641578" xlink:href="#m5a38b982ea" y="470.753347"/>
     <use style="fill:#2792cb;stroke:#2792cb;" x="252.499165" xlink:href="#m5a38b982ea" y="471.650831"/>
     <use style="fill:#2792cb;stroke:#2792cb;" x="256.356752" xlink:href="#m5a38b982ea" y="472.099573"/>
     <use style="fill:#2792cb;stroke:#2792cb;" x="260.214339" xlink:href="#m5a38b982ea" y="472.997057"/>
     <use style="fill:#2792cb;stroke:#2792cb;" x="267.929514" xlink:href="#m5a38b982ea" y="471.875202"/>
     <use style="fill:#2792cb;stroke:#2792cb;" x="275.644688" xlink:href="#m5a38b982ea" y="473.67017"/>
     <use style="fill:#2792cb;stroke:#2792cb;" x="279.502276" xlink:href="#m5a38b982ea" y="471.875202"/>
     <use style="fill:#2792cb;stroke:#2792cb;" x="283.359863" xlink:href="#m5a38b982ea" y="470.977718"/>
     <use style="fill:#2792cb;stroke:#2792cb;" x="287.21745" xlink:href="#m5a38b982ea" y="472.099573"/>
     <use style="fill:#2792cb;stroke:#2792cb;" x="291.075038" xlink:href="#m5a38b982ea" y="472.323944"/>
     <use style="fill:#2792cb;stroke:#2792cb;" x="294.932625" xlink:href="#m5a38b982ea" y="473.445799"/>
     <use style="fill:#2792cb;stroke:#2792cb;" x="302.647799" xlink:href="#m5a38b982ea" y="474.343283"/>
     <use style="fill:#2792cb;stroke:#2792cb;" x="306.505387" xlink:href="#m5a38b982ea" y="474.567654"/>
     <use style="fill:#2792cb;stroke:#2792cb;" x="310.362974" xlink:href="#m5a38b982ea" y="475.016396"/>
     <use style="fill:#2792cb;stroke:#2792cb;" x="314.220561" xlink:href="#m5a38b982ea" y="475.016396"/>
     <use style="fill:#2792cb;stroke:#2792cb;" x="318.078149" xlink:href="#m5a38b982ea" y="476.586993"/>
     <use style="fill:#2792cb;stroke:#2792cb;" x="321.935736" xlink:href="#m5a38b982ea" y="477.708848"/>
     <use style="fill:#2792cb;stroke:#2792cb;" x="329.65091" xlink:href="#m5a38b982ea" y="479.055074"/>
     <use style="fill:#2792cb;stroke:#2792cb;" x="333.508498" xlink:href="#m5a38b982ea" y="479.279445"/>
     <use style="fill:#2792cb;stroke:#2792cb;" x="337.366085" xlink:href="#m5a38b982ea" y="479.952558"/>
     <use style="fill:#2792cb;stroke:#2792cb;" x="345.08126" xlink:href="#m5a38b982ea" y="481.298785"/>
     <use style="fill:#2792cb;stroke:#2792cb;" x="348.938847" xlink:href="#m5a38b982ea" y="481.074414"/>
     <use style="fill:#2792cb;stroke:#2792cb;" x="356.654021" xlink:href="#m5a38b982ea" y="480.625672"/>
     <use style="fill:#2792cb;stroke:#2792cb;" x="360.511609" xlink:href="#m5a38b982ea" y="480.625672"/>
     <use style="fill:#2792cb;stroke:#2792cb;" x="368.226783" xlink:href="#m5a38b982ea" y="480.850043"/>
     <use style="fill:#2792cb;stroke:#2792cb;" x="372.08437" xlink:href="#m5a38b982ea" y="481.523156"/>
     <use style="fill:#2792cb;stroke:#2792cb;" x="387.51472" xlink:href="#m5a38b982ea" y="480.850043"/>
     <use style="fill:#2792cb;stroke:#2792cb;" x="391.372307" xlink:href="#m5a38b982ea" y="481.298785"/>
     <use style="fill:#2792cb;stroke:#2792cb;" x="395.229894" xlink:href="#m5a38b982ea" y="481.074414"/>
     <use style="fill:#2792cb;stroke:#2792cb;" x="399.087481" xlink:href="#m5a38b982ea" y="481.747527"/>
     <use style="fill:#2792cb;stroke:#2792cb;" x="402.945069" xlink:href="#m5a38b982ea" y="481.747527"/>
     <use style="fill:#2792cb;stroke:#2792cb;" x="410.660243" xlink:href="#m5a38b982ea" y="481.747527"/>
     <use style="fill:#2792cb;stroke:#2792cb;" x="414.517831" xlink:href="#m5a38b982ea" y="482.196269"/>
     <use style="fill:#2792cb;stroke:#2792cb;" x="418.375418" xlink:href="#m5a38b982ea" y="481.747527"/>
     <use style="fill:#2792cb;stroke:#2792cb;" x="426.090592" xlink:href="#m5a38b982ea" y="482.196269"/>
     <use style="fill:#2792cb;stroke:#2792cb;" x="429.94818" xlink:href="#m5a38b982ea" y="481.971898"/>
     <use style="fill:#2792cb;stroke:#2792cb;" x="437.663354" xlink:href="#m5a38b982ea" y="481.971898"/>
     <use style="fill:#2792cb;stroke:#2792cb;" x="445.378529" xlink:href="#m5a38b982ea" y="481.971898"/>
     <use style="fill:#2792cb;stroke:#2792cb;" x="453.093703" xlink:href="#m5a38b982ea" y="483.318124"/>
     <use style="fill:#2792cb;stroke:#2792cb;" x="456.951291" xlink:href="#m5a38b982ea" y="483.093753"/>
     <use style="fill:#2792cb;stroke:#2792cb;" x="464.666465" xlink:href="#m5a38b982ea" y="483.318124"/>
     <use style="fill:#2792cb;stroke:#2792cb;" x="468.524052" xlink:href="#m5a38b982ea" y="483.318124"/>
     <use style="fill:#2792cb;stroke:#2792cb;" x="472.38164" xlink:href="#m5a38b982ea" y="483.766866"/>
     <use style="fill:#2792cb;stroke:#2792cb;" x="476.239227" xlink:href="#m5a38b982ea" y="483.766866"/>
     <use style="fill:#2792cb;stroke:#2792cb;" x="483.954402" xlink:href="#m5a38b982ea" y="483.766866"/>
     <use style="fill:#2792cb;stroke:#2792cb;" x="491.669576" xlink:href="#m5a38b982ea" y="483.766866"/>
     <use style="fill:#2792cb;stroke:#2792cb;" x="495.527163" xlink:href="#m5a38b982ea" y="483.766866"/>
     <use style="fill:#2792cb;stroke:#2792cb;" x="499.384751" xlink:href="#m5a38b982ea" y="483.542495"/>
     <use style="fill:#2792cb;stroke:#2792cb;" x="503.242338" xlink:href="#m5a38b982ea" y="483.318124"/>
     <use style="fill:#2792cb;stroke:#2792cb;" x="507.099925" xlink:href="#m5a38b982ea" y="483.093753"/>
     <use style="fill:#2792cb;stroke:#2792cb;" x="510.957513" xlink:href="#m5a38b982ea" y="482.196269"/>
     <use style="fill:#2792cb;stroke:#2792cb;" x="522.530274" xlink:href="#m5a38b982ea" y="482.196269"/>
     <use style="fill:#2792cb;stroke:#2792cb;" x="526.387862" xlink:href="#m5a38b982ea" y="481.747527"/>
     <use style="fill:#2792cb;stroke:#2792cb;" x="530.245449" xlink:href="#m5a38b982ea" y="481.747527"/>
     <use style="fill:#2792cb;stroke:#2792cb;" x="534.103036" xlink:href="#m5a38b982ea" y="481.747527"/>
     <use style="fill:#2792cb;stroke:#2792cb;" x="545.675798" xlink:href="#m5a38b982ea" y="481.747527"/>
     <use style="fill:#2792cb;stroke:#2792cb;" x="549.533385" xlink:href="#m5a38b982ea" y="482.196269"/>
     <use style="fill:#2792cb;stroke:#2792cb;" x="553.390973" xlink:href="#m5a38b982ea" y="482.42064"/>
     <use style="fill:#2792cb;stroke:#2792cb;" x="557.24856" xlink:href="#m5a38b982ea" y="482.869382"/>
     <use style="fill:#2792cb;stroke:#2792cb;" x="561.106147" xlink:href="#m5a38b982ea" y="481.971898"/>
     <use style="fill:#2792cb;stroke:#2792cb;" x="572.678909" xlink:href="#m5a38b982ea" y="481.971898"/>
     <use style="fill:#2792cb;stroke:#2792cb;" x="584.251671" xlink:href="#m5a38b982ea" y="481.074414"/>
     <use style="fill:#2792cb;stroke:#2792cb;" x="588.109258" xlink:href="#m5a38b982ea" y="481.074414"/>
     <use style="fill:#2792cb;stroke:#2792cb;" x="599.68202" xlink:href="#m5a38b982ea" y="478.381961"/>
     <use style="fill:#2792cb;stroke:#2792cb;" x="603.539607" xlink:href="#m5a38b982ea" y="478.381961"/>
     <use style="fill:#2792cb;stroke:#2792cb;" x="607.397195" xlink:href="#m5a38b982ea" y="478.381961"/>
     <use style="fill:#2792cb;stroke:#2792cb;" x="611.254782" xlink:href="#m5a38b982ea" y="477.708848"/>
     <use style="fill:#2792cb;stroke:#2792cb;" x="615.112369" xlink:href="#m5a38b982ea" y="474.567654"/>
     <use style="fill:#2792cb;stroke:#2792cb;" x="653.688242" xlink:href="#m5a38b982ea" y="477.035735"/>
     <use style="fill:#2792cb;stroke:#2792cb;" x="657.545829" xlink:href="#m5a38b982ea" y="478.830703"/>
     <use style="fill:#2792cb;stroke:#2792cb;" x="665.261004" xlink:href="#m5a38b982ea" y="479.279445"/>
     <use style="fill:#2792cb;stroke:#2792cb;" x="669.118591" xlink:href="#m5a38b982ea" y="479.279445"/>
     <use style="fill:#2792cb;stroke:#2792cb;" x="680.691353" xlink:href="#m5a38b982ea" y="479.279445"/>
     <use style="fill:#2792cb;stroke:#2792cb;" x="684.54894" xlink:href="#m5a38b982ea" y="480.4013"/>
     <use style="fill:#2792cb;stroke:#2792cb;" x="688.406527" xlink:href="#m5a38b982ea" y="480.625672"/>
     <use style="fill:#2792cb;stroke:#2792cb;" x="692.264115" xlink:href="#m5a38b982ea" y="481.074414"/>
     <use style="fill:#2792cb;stroke:#2792cb;" x="696.121702" xlink:href="#m5a38b982ea" y="480.625672"/>
     <use style="fill:#2792cb;stroke:#2792cb;" x="707.694464" xlink:href="#m5a38b982ea" y="480.176929"/>
     <use style="fill:#2792cb;stroke:#2792cb;" x="711.552051" xlink:href="#m5a38b982ea" y="480.625672"/>
     <use style="fill:#2792cb;stroke:#2792cb;" x="715.409638" xlink:href="#m5a38b982ea" y="480.625672"/>
     <use style="fill:#2792cb;stroke:#2792cb;" x="719.267226" xlink:href="#m5a38b982ea" y="480.850043"/>
     <use style="fill:#2792cb;stroke:#2792cb;" x="723.124813" xlink:href="#m5a38b982ea" y="481.074414"/>
     <use style="fill:#2792cb;stroke:#2792cb;" x="734.697575" xlink:href="#m5a38b982ea" y="481.074414"/>
     <use style="fill:#2792cb;stroke:#2792cb;" x="738.555162" xlink:href="#m5a38b982ea" y="480.850043"/>
     <use style="fill:#2792cb;stroke:#2792cb;" x="742.412749" xlink:href="#m5a38b982ea" y="480.625672"/>
     <use style="fill:#2792cb;stroke:#2792cb;" x="746.270337" xlink:href="#m5a38b982ea" y="481.298785"/>
     <use style="fill:#2792cb;stroke:#2792cb;" x="750.127924" xlink:href="#m5a38b982ea" y="480.850043"/>
     <use style="fill:#2792cb;stroke:#2792cb;" x="761.700686" xlink:href="#m5a38b982ea" y="481.074414"/>
     <use style="fill:#2792cb;stroke:#2792cb;" x="765.558273" xlink:href="#m5a38b982ea" y="481.523156"/>
     <use style="fill:#2792cb;stroke:#2792cb;" x="769.41586" xlink:href="#m5a38b982ea" y="480.4013"/>
     <use style="fill:#2792cb;stroke:#2792cb;" x="773.273448" xlink:href="#m5a38b982ea" y="480.4013"/>
     <use style="fill:#2792cb;stroke:#2792cb;" x="777.131035" xlink:href="#m5a38b982ea" y="481.074414"/>
     <use style="fill:#2792cb;stroke:#2792cb;" x="788.703797" xlink:href="#m5a38b982ea" y="480.850043"/>
     <use style="fill:#2792cb;stroke:#2792cb;" x="792.561384" xlink:href="#m5a38b982ea" y="480.625672"/>
     <use style="fill:#2792cb;stroke:#2792cb;" x="796.418971" xlink:href="#m5a38b982ea" y="480.625672"/>
     <use style="fill:#2792cb;stroke:#2792cb;" x="800.276559" xlink:href="#m5a38b982ea" y="481.298785"/>
     <use style="fill:#2792cb;stroke:#2792cb;" x="804.134146" xlink:href="#m5a38b982ea" y="481.298785"/>
     <use style="fill:#2792cb;stroke:#2792cb;" x="815.706908" xlink:href="#m5a38b982ea" y="479.952558"/>
     <use style="fill:#2792cb;stroke:#2792cb;" x="819.564495" xlink:href="#m5a38b982ea" y="479.952558"/>
     <use style="fill:#2792cb;stroke:#2792cb;" x="823.422082" xlink:href="#m5a38b982ea" y="480.176929"/>
     <use style="fill:#2792cb;stroke:#2792cb;" x="827.279669" xlink:href="#m5a38b982ea" y="480.4013"/>
     <use style="fill:#2792cb;stroke:#2792cb;" x="831.137257" xlink:href="#m5a38b982ea" y="479.279445"/>
     <use style="fill:#2792cb;stroke:#2792cb;" x="842.710019" xlink:href="#m5a38b982ea" y="477.260106"/>
     <use style="fill:#2792cb;stroke:#2792cb;" x="846.567606" xlink:href="#m5a38b982ea" y="477.708848"/>
     <use style="fill:#2792cb;stroke:#2792cb;" x="850.425193" xlink:href="#m5a38b982ea" y="476.138251"/>
     <use style="fill:#2792cb;stroke:#2792cb;" x="854.28278" xlink:href="#m5a38b982ea" y="475.240767"/>
     <use style="fill:#2792cb;stroke:#2792cb;" x="858.140368" xlink:href="#m5a38b982ea" y="475.465138"/>
     <use style="fill:#2792cb;stroke:#2792cb;" x="869.71313" xlink:href="#m5a38b982ea" y="474.567654"/>
     <use style="fill:#2792cb;stroke:#2792cb;" x="873.570717" xlink:href="#m5a38b982ea" y="474.567654"/>
     <use style="fill:#2792cb;stroke:#2792cb;" x="877.428304" xlink:href="#m5a38b982ea" y="473.67017"/>
     <use style="fill:#2792cb;stroke:#2792cb;" x="881.285891" xlink:href="#m5a38b982ea" y="475.689509"/>
     <use style="fill:#2792cb;stroke:#2792cb;" x="896.71624" xlink:href="#m5a38b982ea" y="474.567654"/>
     <use style="fill:#2792cb;stroke:#2792cb;" x="900.573828" xlink:href="#m5a38b982ea" y="474.343283"/>
     <use style="fill:#2792cb;stroke:#2792cb;" x="927.576939" xlink:href="#m5a38b982ea" y="466.265926"/>
     <use style="fill:#2792cb;stroke:#2792cb;" x="931.434526" xlink:href="#m5a38b982ea" y="467.612152"/>
     <use style="fill:#2792cb;stroke:#2792cb;" x="935.292113" xlink:href="#m5a38b982ea" y="467.387781"/>
     <use style="fill:#2792cb;stroke:#2792cb;" x="939.149701" xlink:href="#m5a38b982ea" y="467.612152"/>
     <use style="fill:#2792cb;stroke:#2792cb;" x="950.722462" xlink:href="#m5a38b982ea" y="448.989358"/>
     <use style="fill:#2792cb;stroke:#2792cb;" x="954.58005" xlink:href="#m5a38b982ea" y="444.501937"/>
     <use style="fill:#2792cb;stroke:#2792cb;" x="958.437637" xlink:href="#m5a38b982ea" y="441.136372"/>
     <use style="fill:#2792cb;stroke:#2792cb;" x="962.295224" xlink:href="#m5a38b982ea" y="437.770807"/>
     <use style="fill:#2792cb;stroke:#2792cb;" x="966.152812" xlink:href="#m5a38b982ea" y="429.020337"/>
     <use style="fill:#2792cb;stroke:#2792cb;" x="977.725573" xlink:href="#m5a38b982ea" y="403.890783"/>
     <use style="fill:#2792cb;stroke:#2792cb;" x="981.583161" xlink:href="#m5a38b982ea" y="399.403363"/>
     <use style="fill:#2792cb;stroke:#2792cb;" x="985.440748" xlink:href="#m5a38b982ea" y="392.896603"/>
     <use style="fill:#2792cb;stroke:#2792cb;" x="989.298335" xlink:href="#m5a38b982ea" y="381.004939"/>
     <use style="fill:#2792cb;stroke:#2792cb;" x="993.155922" xlink:href="#m5a38b982ea" y="368.664533"/>
     <use style="fill:#2792cb;stroke:#2792cb;" x="1004.728684" xlink:href="#m5a38b982ea" y="354.75353"/>
     <use style="fill:#2792cb;stroke:#2792cb;" x="1012.443859" xlink:href="#m5a38b982ea" y="354.080417"/>
     <use style="fill:#2792cb;stroke:#2792cb;" x="1016.301446" xlink:href="#m5a38b982ea" y="353.182933"/>
     <use style="fill:#2792cb;stroke:#2792cb;" x="1020.159033" xlink:href="#m5a38b982ea" y="353.407304"/>
     <use style="fill:#2792cb;stroke:#2792cb;" x="1031.731795" xlink:href="#m5a38b982ea" y="339.720672"/>
     <use style="fill:#2792cb;stroke:#2792cb;" x="1035.589383" xlink:href="#m5a38b982ea" y="341.066898"/>
     <use style="fill:#2792cb;stroke:#2792cb;" x="1039.44697" xlink:href="#m5a38b982ea" y="337.252591"/>
     <use style="fill:#2792cb;stroke:#2792cb;" x="1043.304557" xlink:href="#m5a38b982ea" y="332.316428"/>
     <use style="fill:#2792cb;stroke:#2792cb;" x="1047.162144" xlink:href="#m5a38b982ea" y="317.732312"/>
     <use style="fill:#2792cb;stroke:#2792cb;" x="1058.734906" xlink:href="#m5a38b982ea" y="318.629796"/>
     <use style="fill:#2792cb;stroke:#2792cb;" x="1062.592494" xlink:href="#m5a38b982ea" y="324.0147"/>
     <use style="fill:#2792cb;stroke:#2792cb;" x="1070.307668" xlink:href="#m5a38b982ea" y="336.579477"/>
     <use style="fill:#2792cb;stroke:#2792cb;" x="1074.165255" xlink:href="#m5a38b982ea" y="333.887025"/>
     <use style="fill:#2792cb;stroke:#2792cb;" x="1085.738017" xlink:href="#m5a38b982ea" y="339.945043"/>
     <use style="fill:#2792cb;stroke:#2792cb;" x="1097.310779" xlink:href="#m5a38b982ea" y="388.409183"/>
     <use style="fill:#2792cb;stroke:#2792cb;" x="1101.168366" xlink:href="#m5a38b982ea" y="377.863745"/>
     <use style="fill:#2792cb;stroke:#2792cb;" x="1112.741128" xlink:href="#m5a38b982ea" y="384.370504"/>
     <use style="fill:#2792cb;stroke:#2792cb;" x="1116.598715" xlink:href="#m5a38b982ea" y="375.171293"/>
     <use style="fill:#2792cb;stroke:#2792cb;" x="1120.456303" xlink:href="#m5a38b982ea" y="391.326006"/>
     <use style="fill:#2792cb;stroke:#2792cb;" x="1124.31389" xlink:href="#m5a38b982ea" y="391.326006"/>
     <use style="fill:#2792cb;stroke:#2792cb;" x="1128.171477" xlink:href="#m5a38b982ea" y="379.658713"/>
    </g>
   </g>
   <g id="patch_3">
    <path d="M 62.89875 501.738984 
L 1178.89875 501.738984 
" style="fill:none;stroke:#000000;stroke-linecap:square;stroke-linejoin:miter;stroke-width:0.8;"/>
   </g>
   <g id="legend_1">
    <g id="line2d_56">
     <path d="M 1091.653438 25.237422 
L 1111.653438 25.237422 
" style="fill:none;stroke:#dbcd00;stroke-linecap:square;stroke-width:2;"/>
    </g>
    <g id="line2d_57">
     <g>
      <use style="fill:#dbcd00;stroke:#dbcd00;" x="1101.653438" xlink:href="#mc966bbbf39" y="25.237422"/>
     </g>
    </g>
    <g id="text_33">
     <!-- Genesene -->
     <defs>
      <path d="M 59.515625 10.40625 
L 59.515625 29.984375 
L 43.40625 29.984375 
L 43.40625 38.09375 
L 69.28125 38.09375 
L 69.28125 6.78125 
Q 63.578125 2.734375 56.6875 0.65625 
Q 49.8125 -1.421875 42 -1.421875 
Q 24.90625 -1.421875 15.25 8.5625 
Q 5.609375 18.5625 5.609375 36.375 
Q 5.609375 54.25 15.25 64.234375 
Q 24.90625 74.21875 42 74.21875 
Q 49.125 74.21875 55.546875 72.453125 
Q 61.96875 70.703125 67.390625 67.28125 
L 67.390625 56.78125 
Q 61.921875 61.421875 55.765625 63.765625 
Q 49.609375 66.109375 42.828125 66.109375 
Q 29.4375 66.109375 22.71875 58.640625 
Q 16.015625 51.171875 16.015625 36.375 
Q 16.015625 21.625 22.71875 14.15625 
Q 29.4375 6.6875 42.828125 6.6875 
Q 48.046875 6.6875 52.140625 7.59375 
Q 56.25 8.5 59.515625 10.40625 
z
" id="DejaVuSans-71"/>
      <path d="M 44.28125 53.078125 
L 44.28125 44.578125 
Q 40.484375 46.53125 36.375 47.5 
Q 32.28125 48.484375 27.875 48.484375 
Q 21.1875 48.484375 17.84375 46.4375 
Q 14.5 44.390625 14.5 40.28125 
Q 14.5 37.15625 16.890625 35.375 
Q 19.28125 33.59375 26.515625 31.984375 
L 29.59375 31.296875 
Q 39.15625 29.25 43.1875 25.515625 
Q 47.21875 21.78125 47.21875 15.09375 
Q 47.21875 7.46875 41.1875 3.015625 
Q 35.15625 -1.421875 24.609375 -1.421875 
Q 20.21875 -1.421875 15.453125 -0.5625 
Q 10.6875 0.296875 5.421875 2 
L 5.421875 11.28125 
Q 10.40625 8.6875 15.234375 7.390625 
Q 20.0625 6.109375 24.8125 6.109375 
Q 31.15625 6.109375 34.5625 8.28125 
Q 37.984375 10.453125 37.984375 14.40625 
Q 37.984375 18.0625 35.515625 20.015625 
Q 33.0625 21.96875 24.703125 23.78125 
L 21.578125 24.515625 
Q 13.234375 26.265625 9.515625 29.90625 
Q 5.8125 33.546875 5.8125 39.890625 
Q 5.8125 47.609375 11.28125 51.796875 
Q 16.75 56 26.8125 56 
Q 31.78125 56 36.171875 55.265625 
Q 40.578125 54.546875 44.28125 53.078125 
z
" id="DejaVuSans-115"/>
     </defs>
     <g transform="translate(1119.653438 28.737422)scale(0.1 -0.1)">
      <use xlink:href="#DejaVuSans-71"/>
      <use x="77.490234" xlink:href="#DejaVuSans-101"/>
      <use x="139.013672" xlink:href="#DejaVuSans-110"/>
      <use x="202.392578" xlink:href="#DejaVuSans-101"/>
      <use x="263.916016" xlink:href="#DejaVuSans-115"/>
      <use x="316.015625" xlink:href="#DejaVuSans-101"/>
      <use x="377.539062" xlink:href="#DejaVuSans-110"/>
      <use x="440.917969" xlink:href="#DejaVuSans-101"/>
     </g>
    </g>
    <g id="line2d_58">
     <path d="M 1091.653438 39.915547 
L 1111.653438 39.915547 
" style="fill:none;stroke:#2792cb;stroke-linecap:square;stroke-width:2;"/>
    </g>
    <g id="line2d_59">
     <g>
      <use style="fill:#2792cb;stroke:#2792cb;" x="1101.653438" xlink:href="#m5a38b982ea" y="39.915547"/>
     </g>
    </g>
    <g id="text_34">
     <!-- Erkrankte -->
     <defs>
      <path d="M 9.8125 72.90625 
L 55.90625 72.90625 
L 55.90625 64.59375 
L 19.671875 64.59375 
L 19.671875 43.015625 
L 54.390625 43.015625 
L 54.390625 34.71875 
L 19.671875 34.71875 
L 19.671875 8.296875 
L 56.78125 8.296875 
L 56.78125 0 
L 9.8125 0 
z
" id="DejaVuSans-69"/>
      <path d="M 41.109375 46.296875 
Q 39.59375 47.171875 37.8125 47.578125 
Q 36.03125 48 33.890625 48 
Q 26.265625 48 22.1875 43.046875 
Q 18.109375 38.09375 18.109375 28.8125 
L 18.109375 0 
L 9.078125 0 
L 9.078125 54.6875 
L 18.109375 54.6875 
L 18.109375 46.1875 
Q 20.953125 51.171875 25.484375 53.578125 
Q 30.03125 56 36.53125 56 
Q 37.453125 56 38.578125 55.875 
Q 39.703125 55.765625 41.0625 55.515625 
z
" id="DejaVuSans-114"/>
      <path d="M 9.078125 75.984375 
L 18.109375 75.984375 
L 18.109375 31.109375 
L 44.921875 54.6875 
L 56.390625 54.6875 
L 27.390625 29.109375 
L 57.625 0 
L 45.90625 0 
L 18.109375 26.703125 
L 18.109375 0 
L 9.078125 0 
z
" id="DejaVuSans-107"/>
      <path d="M 18.3125 70.21875 
L 18.3125 54.6875 
L 36.8125 54.6875 
L 36.8125 47.703125 
L 18.3125 47.703125 
L 18.3125 18.015625 
Q 18.3125 11.328125 20.140625 9.421875 
Q 21.96875 7.515625 27.59375 7.515625 
L 36.8125 7.515625 
L 36.8125 0 
L 27.59375 0 
Q 17.1875 0 13.234375 3.875 
Q 9.28125 7.765625 9.28125 18.015625 
L 9.28125 47.703125 
L 2.6875 47.703125 
L 2.6875 54.6875 
L 9.28125 54.6875 
L 9.28125 70.21875 
z
" id="DejaVuSans-116"/>
     </defs>
     <g transform="translate(1119.653438 43.415547)scale(0.1 -0.1)">
      <use xlink:href="#DejaVuSans-69"/>
      <use x="63.183594" xlink:href="#DejaVuSans-114"/>
      <use x="104.296875" xlink:href="#DejaVuSans-107"/>
      <use x="162.207031" xlink:href="#DejaVuSans-114"/>
      <use x="203.320312" xlink:href="#DejaVuSans-97"/>
      <use x="264.599609" xlink:href="#DejaVuSans-110"/>
      <use x="327.978516" xlink:href="#DejaVuSans-107"/>
      <use x="385.888672" xlink:href="#DejaVuSans-116"/>
      <use x="425.097656" xlink:href="#DejaVuSans-101"/>
     </g>
    </g>
   </g>
  </g>
 </g>
 <defs>
  <clipPath id="p3241e6e963">
   <rect height="489.6" width="1116" x="62.89875" y="12.138984"/>
  </clipPath>
 </defs>
</svg>
