<?xml version="1.0" encoding="utf-8" standalone="no"?>
<!DOCTYPE svg PUBLIC "-//W3C//DTD SVG 1.1//EN"
  "http://www.w3.org/Graphics/SVG/1.1/DTD/svg11.dtd">
<!-- Created with matplotlib (https://matplotlib.org/) -->
<svg height="564.610093pt" version="1.1" viewBox="0 0 1177.8275 564.610093" width="1177.8275pt" xmlns="http://www.w3.org/2000/svg" xmlns:xlink="http://www.w3.org/1999/xlink">
 <defs>
  <style type="text/css">
*{stroke-linecap:butt;stroke-linejoin:round;}
  </style>
 </defs>
 <g id="figure_1">
  <g id="patch_1">
   <path d="M 0 564.610093 
L 1177.8275 564.610093 
L 1177.8275 0 
L 0 0 
z
" style="fill:#ffffff;"/>
  </g>
  <g id="axes_1">
   <g id="patch_2">
    <path d="M 54.6275 501.738984 
L 1170.6275 501.738984 
L 1170.6275 12.138984 
L 54.6275 12.138984 
z
" style="fill:#ffffff;"/>
   </g>
   <g id="matplotlib.axis_1">
    <g id="xtick_1">
     <g id="line2d_1">
      <defs>
       <path d="M 0 0 
L 0 3.5 
" id="maf5dade107" style="stroke:#000000;stroke-width:0.8;"/>
      </defs>
      <g>
       <use style="stroke:#000000;stroke-width:0.8;" x="195.759813" xlink:href="#maf5dade107" y="501.738984"/>
      </g>
     </g>
     <g id="text_1">
      <!-- 2020-04-01 -->
      <defs>
       <path d="M 19.1875 8.296875 
L 53.609375 8.296875 
L 53.609375 0 
L 7.328125 0 
L 7.328125 8.296875 
Q 12.9375 14.109375 22.625 23.890625 
Q 32.328125 33.6875 34.8125 36.53125 
Q 39.546875 41.84375 41.421875 45.53125 
Q 43.3125 49.21875 43.3125 52.78125 
Q 43.3125 58.59375 39.234375 62.25 
Q 35.15625 65.921875 28.609375 65.921875 
Q 23.96875 65.921875 18.8125 64.3125 
Q 13.671875 62.703125 7.8125 59.421875 
L 7.8125 69.390625 
Q 13.765625 71.78125 18.9375 73 
Q 24.125 74.21875 28.421875 74.21875 
Q 39.75 74.21875 46.484375 68.546875 
Q 53.21875 62.890625 53.21875 53.421875 
Q 53.21875 48.921875 51.53125 44.890625 
Q 49.859375 40.875 45.40625 35.40625 
Q 44.1875 33.984375 37.640625 27.21875 
Q 31.109375 20.453125 19.1875 8.296875 
z
" id="DejaVuSans-50"/>
       <path d="M 31.78125 66.40625 
Q 24.171875 66.40625 20.328125 58.90625 
Q 16.5 51.421875 16.5 36.375 
Q 16.5 21.390625 20.328125 13.890625 
Q 24.171875 6.390625 31.78125 6.390625 
Q 39.453125 6.390625 43.28125 13.890625 
Q 47.125 21.390625 47.125 36.375 
Q 47.125 51.421875 43.28125 58.90625 
Q 39.453125 66.40625 31.78125 66.40625 
z
M 31.78125 74.21875 
Q 44.046875 74.21875 50.515625 64.515625 
Q 56.984375 54.828125 56.984375 36.375 
Q 56.984375 17.96875 50.515625 8.265625 
Q 44.046875 -1.421875 31.78125 -1.421875 
Q 19.53125 -1.421875 13.0625 8.265625 
Q 6.59375 17.96875 6.59375 36.375 
Q 6.59375 54.828125 13.0625 64.515625 
Q 19.53125 74.21875 31.78125 74.21875 
z
" id="DejaVuSans-48"/>
       <path d="M 4.890625 31.390625 
L 31.203125 31.390625 
L 31.203125 23.390625 
L 4.890625 23.390625 
z
" id="DejaVuSans-45"/>
       <path d="M 37.796875 64.3125 
L 12.890625 25.390625 
L 37.796875 25.390625 
z
M 35.203125 72.90625 
L 47.609375 72.90625 
L 47.609375 25.390625 
L 58.015625 25.390625 
L 58.015625 17.1875 
L 47.609375 17.1875 
L 47.609375 0 
L 37.796875 0 
L 37.796875 17.1875 
L 4.890625 17.1875 
L 4.890625 26.703125 
z
" id="DejaVuSans-52"/>
       <path d="M 12.40625 8.296875 
L 28.515625 8.296875 
L 28.515625 63.921875 
L 10.984375 60.40625 
L 10.984375 69.390625 
L 28.421875 72.90625 
L 38.28125 72.90625 
L 38.28125 8.296875 
L 54.390625 8.296875 
L 54.390625 0 
L 12.40625 0 
z
" id="DejaVuSans-49"/>
      </defs>
      <g transform="translate(128.979526 555.068713)rotate(-30)scale(0.13 -0.13)">
       <use xlink:href="#DejaVuSans-50"/>
       <use x="63.623047" xlink:href="#DejaVuSans-48"/>
       <use x="127.246094" xlink:href="#DejaVuSans-50"/>
       <use x="190.869141" xlink:href="#DejaVuSans-48"/>
       <use x="254.492188" xlink:href="#DejaVuSans-45"/>
       <use x="290.576172" xlink:href="#DejaVuSans-48"/>
       <use x="354.199219" xlink:href="#DejaVuSans-52"/>
       <use x="417.822266" xlink:href="#DejaVuSans-45"/>
       <use x="453.90625" xlink:href="#DejaVuSans-48"/>
       <use x="517.529297" xlink:href="#DejaVuSans-49"/>
      </g>
     </g>
    </g>
    <g id="xtick_2">
     <g id="line2d_2">
      <g>
       <use style="stroke:#000000;stroke-width:0.8;" x="336.389876" xlink:href="#maf5dade107" y="501.738984"/>
      </g>
     </g>
     <g id="text_2">
      <!-- 2020-04-15 -->
      <defs>
       <path d="M 10.796875 72.90625 
L 49.515625 72.90625 
L 49.515625 64.59375 
L 19.828125 64.59375 
L 19.828125 46.734375 
Q 21.96875 47.46875 24.109375 47.828125 
Q 26.265625 48.1875 28.421875 48.1875 
Q 40.625 48.1875 47.75 41.5 
Q 54.890625 34.8125 54.890625 23.390625 
Q 54.890625 11.625 47.5625 5.09375 
Q 40.234375 -1.421875 26.90625 -1.421875 
Q 22.3125 -1.421875 17.546875 -0.640625 
Q 12.796875 0.140625 7.71875 1.703125 
L 7.71875 11.625 
Q 12.109375 9.234375 16.796875 8.0625 
Q 21.484375 6.890625 26.703125 6.890625 
Q 35.15625 6.890625 40.078125 11.328125 
Q 45.015625 15.765625 45.015625 23.390625 
Q 45.015625 31 40.078125 35.4375 
Q 35.15625 39.890625 26.703125 39.890625 
Q 22.75 39.890625 18.8125 39.015625 
Q 14.890625 38.140625 10.796875 36.28125 
z
" id="DejaVuSans-53"/>
      </defs>
      <g transform="translate(269.609589 555.068713)rotate(-30)scale(0.13 -0.13)">
       <use xlink:href="#DejaVuSans-50"/>
       <use x="63.623047" xlink:href="#DejaVuSans-48"/>
       <use x="127.246094" xlink:href="#DejaVuSans-50"/>
       <use x="190.869141" xlink:href="#DejaVuSans-48"/>
       <use x="254.492188" xlink:href="#DejaVuSans-45"/>
       <use x="290.576172" xlink:href="#DejaVuSans-48"/>
       <use x="354.199219" xlink:href="#DejaVuSans-52"/>
       <use x="417.822266" xlink:href="#DejaVuSans-45"/>
       <use x="453.90625" xlink:href="#DejaVuSans-49"/>
       <use x="517.529297" xlink:href="#DejaVuSans-53"/>
      </g>
     </g>
    </g>
    <g id="xtick_3">
     <g id="line2d_3">
      <g>
       <use style="stroke:#000000;stroke-width:0.8;" x="497.109948" xlink:href="#maf5dade107" y="501.738984"/>
      </g>
     </g>
     <g id="text_3">
      <!-- 2020-05-01 -->
      <g transform="translate(430.329661 555.068713)rotate(-30)scale(0.13 -0.13)">
       <use xlink:href="#DejaVuSans-50"/>
       <use x="63.623047" xlink:href="#DejaVuSans-48"/>
       <use x="127.246094" xlink:href="#DejaVuSans-50"/>
       <use x="190.869141" xlink:href="#DejaVuSans-48"/>
       <use x="254.492188" xlink:href="#DejaVuSans-45"/>
       <use x="290.576172" xlink:href="#DejaVuSans-48"/>
       <use x="354.199219" xlink:href="#DejaVuSans-53"/>
       <use x="417.822266" xlink:href="#DejaVuSans-45"/>
       <use x="453.90625" xlink:href="#DejaVuSans-48"/>
       <use x="517.529297" xlink:href="#DejaVuSans-49"/>
      </g>
     </g>
    </g>
    <g id="xtick_4">
     <g id="line2d_4">
      <g>
       <use style="stroke:#000000;stroke-width:0.8;" x="637.740011" xlink:href="#maf5dade107" y="501.738984"/>
      </g>
     </g>
     <g id="text_4">
      <!-- 2020-05-15 -->
      <g transform="translate(570.959724 555.068713)rotate(-30)scale(0.13 -0.13)">
       <use xlink:href="#DejaVuSans-50"/>
       <use x="63.623047" xlink:href="#DejaVuSans-48"/>
       <use x="127.246094" xlink:href="#DejaVuSans-50"/>
       <use x="190.869141" xlink:href="#DejaVuSans-48"/>
       <use x="254.492188" xlink:href="#DejaVuSans-45"/>
       <use x="290.576172" xlink:href="#DejaVuSans-48"/>
       <use x="354.199219" xlink:href="#DejaVuSans-53"/>
       <use x="417.822266" xlink:href="#DejaVuSans-45"/>
       <use x="453.90625" xlink:href="#DejaVuSans-49"/>
       <use x="517.529297" xlink:href="#DejaVuSans-53"/>
      </g>
     </g>
    </g>
    <g id="xtick_5">
     <g id="line2d_5">
      <g>
       <use style="stroke:#000000;stroke-width:0.8;" x="808.505088" xlink:href="#maf5dade107" y="501.738984"/>
      </g>
     </g>
     <g id="text_5">
      <!-- 2020-06-01 -->
      <defs>
       <path d="M 33.015625 40.375 
Q 26.375 40.375 22.484375 35.828125 
Q 18.609375 31.296875 18.609375 23.390625 
Q 18.609375 15.53125 22.484375 10.953125 
Q 26.375 6.390625 33.015625 6.390625 
Q 39.65625 6.390625 43.53125 10.953125 
Q 47.40625 15.53125 47.40625 23.390625 
Q 47.40625 31.296875 43.53125 35.828125 
Q 39.65625 40.375 33.015625 40.375 
z
M 52.59375 71.296875 
L 52.59375 62.3125 
Q 48.875 64.0625 45.09375 64.984375 
Q 41.3125 65.921875 37.59375 65.921875 
Q 27.828125 65.921875 22.671875 59.328125 
Q 17.53125 52.734375 16.796875 39.40625 
Q 19.671875 43.65625 24.015625 45.921875 
Q 28.375 48.1875 33.59375 48.1875 
Q 44.578125 48.1875 50.953125 41.515625 
Q 57.328125 34.859375 57.328125 23.390625 
Q 57.328125 12.15625 50.6875 5.359375 
Q 44.046875 -1.421875 33.015625 -1.421875 
Q 20.359375 -1.421875 13.671875 8.265625 
Q 6.984375 17.96875 6.984375 36.375 
Q 6.984375 53.65625 15.1875 63.9375 
Q 23.390625 74.21875 37.203125 74.21875 
Q 40.921875 74.21875 44.703125 73.484375 
Q 48.484375 72.75 52.59375 71.296875 
z
" id="DejaVuSans-54"/>
      </defs>
      <g transform="translate(741.724801 555.068713)rotate(-30)scale(0.13 -0.13)">
       <use xlink:href="#DejaVuSans-50"/>
       <use x="63.623047" xlink:href="#DejaVuSans-48"/>
       <use x="127.246094" xlink:href="#DejaVuSans-50"/>
       <use x="190.869141" xlink:href="#DejaVuSans-48"/>
       <use x="254.492188" xlink:href="#DejaVuSans-45"/>
       <use x="290.576172" xlink:href="#DejaVuSans-48"/>
       <use x="354.199219" xlink:href="#DejaVuSans-54"/>
       <use x="417.822266" xlink:href="#DejaVuSans-45"/>
       <use x="453.90625" xlink:href="#DejaVuSans-48"/>
       <use x="517.529297" xlink:href="#DejaVuSans-49"/>
      </g>
     </g>
    </g>
    <g id="xtick_6">
     <g id="line2d_6">
      <g>
       <use style="stroke:#000000;stroke-width:0.8;" x="949.135151" xlink:href="#maf5dade107" y="501.738984"/>
      </g>
     </g>
     <g id="text_6">
      <!-- 2020-06-15 -->
      <g transform="translate(882.354864 555.068713)rotate(-30)scale(0.13 -0.13)">
       <use xlink:href="#DejaVuSans-50"/>
       <use x="63.623047" xlink:href="#DejaVuSans-48"/>
       <use x="127.246094" xlink:href="#DejaVuSans-50"/>
       <use x="190.869141" xlink:href="#DejaVuSans-48"/>
       <use x="254.492188" xlink:href="#DejaVuSans-45"/>
       <use x="290.576172" xlink:href="#DejaVuSans-48"/>
       <use x="354.199219" xlink:href="#DejaVuSans-54"/>
       <use x="417.822266" xlink:href="#DejaVuSans-45"/>
       <use x="453.90625" xlink:href="#DejaVuSans-49"/>
       <use x="517.529297" xlink:href="#DejaVuSans-53"/>
      </g>
     </g>
    </g>
    <g id="xtick_7">
     <g id="line2d_7">
      <g>
       <use style="stroke:#000000;stroke-width:0.8;" x="1109.855223" xlink:href="#maf5dade107" y="501.738984"/>
      </g>
     </g>
     <g id="text_7">
      <!-- 2020-07-01 -->
      <defs>
       <path d="M 8.203125 72.90625 
L 55.078125 72.90625 
L 55.078125 68.703125 
L 28.609375 0 
L 18.3125 0 
L 43.21875 64.59375 
L 8.203125 64.59375 
z
" id="DejaVuSans-55"/>
      </defs>
      <g transform="translate(1043.074936 555.068713)rotate(-30)scale(0.13 -0.13)">
       <use xlink:href="#DejaVuSans-50"/>
       <use x="63.623047" xlink:href="#DejaVuSans-48"/>
       <use x="127.246094" xlink:href="#DejaVuSans-50"/>
       <use x="190.869141" xlink:href="#DejaVuSans-48"/>
       <use x="254.492188" xlink:href="#DejaVuSans-45"/>
       <use x="290.576172" xlink:href="#DejaVuSans-48"/>
       <use x="354.199219" xlink:href="#DejaVuSans-55"/>
       <use x="417.822266" xlink:href="#DejaVuSans-45"/>
       <use x="453.90625" xlink:href="#DejaVuSans-48"/>
       <use x="517.529297" xlink:href="#DejaVuSans-49"/>
      </g>
     </g>
    </g>
   </g>
   <g id="matplotlib.axis_2">
    <g id="ytick_1">
     <g id="line2d_8">
      <path clip-path="url(#p7ea5b977a7)" d="M 54.6275 490.906861 
L 1170.6275 490.906861 
" style="fill:none;stroke:#b0b0b0;stroke-linecap:square;stroke-width:0.8;"/>
     </g>
     <g id="line2d_9">
      <defs>
       <path d="M 0 0 
L -3.5 0 
" id="me686a48c4b" style="stroke:#000000;stroke-width:0.8;"/>
      </defs>
      <g>
       <use style="stroke:#000000;stroke-width:0.8;" x="54.6275" xlink:href="#me686a48c4b" y="490.906861"/>
      </g>
     </g>
     <g id="text_8">
      <!-- 0 -->
      <g transform="translate(39.35625 495.845846)scale(0.13 -0.13)">
       <use xlink:href="#DejaVuSans-48"/>
      </g>
     </g>
    </g>
    <g id="ytick_2">
     <g id="line2d_10">
      <path clip-path="url(#p7ea5b977a7)" d="M 54.6275 431.060877 
L 1170.6275 431.060877 
" style="fill:none;stroke:#b0b0b0;stroke-linecap:square;stroke-width:0.8;"/>
     </g>
     <g id="line2d_11">
      <g>
       <use style="stroke:#000000;stroke-width:0.8;" x="54.6275" xlink:href="#me686a48c4b" y="431.060877"/>
      </g>
     </g>
     <g id="text_9">
      <!-- 100 -->
      <g transform="translate(22.81375 435.999861)scale(0.13 -0.13)">
       <use xlink:href="#DejaVuSans-49"/>
       <use x="63.623047" xlink:href="#DejaVuSans-48"/>
       <use x="127.246094" xlink:href="#DejaVuSans-48"/>
      </g>
     </g>
    </g>
    <g id="ytick_3">
     <g id="line2d_12">
      <path clip-path="url(#p7ea5b977a7)" d="M 54.6275 371.214892 
L 1170.6275 371.214892 
" style="fill:none;stroke:#b0b0b0;stroke-linecap:square;stroke-width:0.8;"/>
     </g>
     <g id="line2d_13">
      <g>
       <use style="stroke:#000000;stroke-width:0.8;" x="54.6275" xlink:href="#me686a48c4b" y="371.214892"/>
      </g>
     </g>
     <g id="text_10">
      <!-- 200 -->
      <g transform="translate(22.81375 376.153876)scale(0.13 -0.13)">
       <use xlink:href="#DejaVuSans-50"/>
       <use x="63.623047" xlink:href="#DejaVuSans-48"/>
       <use x="127.246094" xlink:href="#DejaVuSans-48"/>
      </g>
     </g>
    </g>
    <g id="ytick_4">
     <g id="line2d_14">
      <path clip-path="url(#p7ea5b977a7)" d="M 54.6275 311.368907 
L 1170.6275 311.368907 
" style="fill:none;stroke:#b0b0b0;stroke-linecap:square;stroke-width:0.8;"/>
     </g>
     <g id="line2d_15">
      <g>
       <use style="stroke:#000000;stroke-width:0.8;" x="54.6275" xlink:href="#me686a48c4b" y="311.368907"/>
      </g>
     </g>
     <g id="text_11">
      <!-- 300 -->
      <defs>
       <path d="M 40.578125 39.3125 
Q 47.65625 37.796875 51.625 33 
Q 55.609375 28.21875 55.609375 21.1875 
Q 55.609375 10.40625 48.1875 4.484375 
Q 40.765625 -1.421875 27.09375 -1.421875 
Q 22.515625 -1.421875 17.65625 -0.515625 
Q 12.796875 0.390625 7.625 2.203125 
L 7.625 11.71875 
Q 11.71875 9.328125 16.59375 8.109375 
Q 21.484375 6.890625 26.8125 6.890625 
Q 36.078125 6.890625 40.9375 10.546875 
Q 45.796875 14.203125 45.796875 21.1875 
Q 45.796875 27.640625 41.28125 31.265625 
Q 36.765625 34.90625 28.71875 34.90625 
L 20.21875 34.90625 
L 20.21875 43.015625 
L 29.109375 43.015625 
Q 36.375 43.015625 40.234375 45.921875 
Q 44.09375 48.828125 44.09375 54.296875 
Q 44.09375 59.90625 40.109375 62.90625 
Q 36.140625 65.921875 28.71875 65.921875 
Q 24.65625 65.921875 20.015625 65.03125 
Q 15.375 64.15625 9.8125 62.3125 
L 9.8125 71.09375 
Q 15.4375 72.65625 20.34375 73.4375 
Q 25.25 74.21875 29.59375 74.21875 
Q 40.828125 74.21875 47.359375 69.109375 
Q 53.90625 64.015625 53.90625 55.328125 
Q 53.90625 49.265625 50.4375 45.09375 
Q 46.96875 40.921875 40.578125 39.3125 
z
" id="DejaVuSans-51"/>
      </defs>
      <g transform="translate(22.81375 316.307892)scale(0.13 -0.13)">
       <use xlink:href="#DejaVuSans-51"/>
       <use x="63.623047" xlink:href="#DejaVuSans-48"/>
       <use x="127.246094" xlink:href="#DejaVuSans-48"/>
      </g>
     </g>
    </g>
    <g id="ytick_5">
     <g id="line2d_16">
      <path clip-path="url(#p7ea5b977a7)" d="M 54.6275 251.522923 
L 1170.6275 251.522923 
" style="fill:none;stroke:#b0b0b0;stroke-linecap:square;stroke-width:0.8;"/>
     </g>
     <g id="line2d_17">
      <g>
       <use style="stroke:#000000;stroke-width:0.8;" x="54.6275" xlink:href="#me686a48c4b" y="251.522923"/>
      </g>
     </g>
     <g id="text_12">
      <!-- 400 -->
      <g transform="translate(22.81375 256.461907)scale(0.13 -0.13)">
       <use xlink:href="#DejaVuSans-52"/>
       <use x="63.623047" xlink:href="#DejaVuSans-48"/>
       <use x="127.246094" xlink:href="#DejaVuSans-48"/>
      </g>
     </g>
    </g>
    <g id="ytick_6">
     <g id="line2d_18">
      <path clip-path="url(#p7ea5b977a7)" d="M 54.6275 191.676938 
L 1170.6275 191.676938 
" style="fill:none;stroke:#b0b0b0;stroke-linecap:square;stroke-width:0.8;"/>
     </g>
     <g id="line2d_19">
      <g>
       <use style="stroke:#000000;stroke-width:0.8;" x="54.6275" xlink:href="#me686a48c4b" y="191.676938"/>
      </g>
     </g>
     <g id="text_13">
      <!-- 500 -->
      <g transform="translate(22.81375 196.615923)scale(0.13 -0.13)">
       <use xlink:href="#DejaVuSans-53"/>
       <use x="63.623047" xlink:href="#DejaVuSans-48"/>
       <use x="127.246094" xlink:href="#DejaVuSans-48"/>
      </g>
     </g>
    </g>
    <g id="ytick_7">
     <g id="line2d_20">
      <path clip-path="url(#p7ea5b977a7)" d="M 54.6275 131.830954 
L 1170.6275 131.830954 
" style="fill:none;stroke:#b0b0b0;stroke-linecap:square;stroke-width:0.8;"/>
     </g>
     <g id="line2d_21">
      <g>
       <use style="stroke:#000000;stroke-width:0.8;" x="54.6275" xlink:href="#me686a48c4b" y="131.830954"/>
      </g>
     </g>
     <g id="text_14">
      <!-- 600 -->
      <g transform="translate(22.81375 136.769938)scale(0.13 -0.13)">
       <use xlink:href="#DejaVuSans-54"/>
       <use x="63.623047" xlink:href="#DejaVuSans-48"/>
       <use x="127.246094" xlink:href="#DejaVuSans-48"/>
      </g>
     </g>
    </g>
    <g id="ytick_8">
     <g id="line2d_22">
      <path clip-path="url(#p7ea5b977a7)" d="M 54.6275 71.984969 
L 1170.6275 71.984969 
" style="fill:none;stroke:#b0b0b0;stroke-linecap:square;stroke-width:0.8;"/>
     </g>
     <g id="line2d_23">
      <g>
       <use style="stroke:#000000;stroke-width:0.8;" x="54.6275" xlink:href="#me686a48c4b" y="71.984969"/>
      </g>
     </g>
     <g id="text_15">
      <!-- 700 -->
      <g transform="translate(22.81375 76.923953)scale(0.13 -0.13)">
       <use xlink:href="#DejaVuSans-55"/>
       <use x="63.623047" xlink:href="#DejaVuSans-48"/>
       <use x="127.246094" xlink:href="#DejaVuSans-48"/>
      </g>
     </g>
    </g>
    <g id="ytick_9">
     <g id="line2d_24">
      <path clip-path="url(#p7ea5b977a7)" d="M 54.6275 12.138984 
L 1170.6275 12.138984 
" style="fill:none;stroke:#b0b0b0;stroke-linecap:square;stroke-width:0.8;"/>
     </g>
     <g id="line2d_25">
      <g>
       <use style="stroke:#000000;stroke-width:0.8;" x="54.6275" xlink:href="#me686a48c4b" y="12.138984"/>
      </g>
     </g>
     <g id="text_16">
      <!-- 800 -->
      <defs>
       <path d="M 31.78125 34.625 
Q 24.75 34.625 20.71875 30.859375 
Q 16.703125 27.09375 16.703125 20.515625 
Q 16.703125 13.921875 20.71875 10.15625 
Q 24.75 6.390625 31.78125 6.390625 
Q 38.8125 6.390625 42.859375 10.171875 
Q 46.921875 13.96875 46.921875 20.515625 
Q 46.921875 27.09375 42.890625 30.859375 
Q 38.875 34.625 31.78125 34.625 
z
M 21.921875 38.8125 
Q 15.578125 40.375 12.03125 44.71875 
Q 8.5 49.078125 8.5 55.328125 
Q 8.5 64.0625 14.71875 69.140625 
Q 20.953125 74.21875 31.78125 74.21875 
Q 42.671875 74.21875 48.875 69.140625 
Q 55.078125 64.0625 55.078125 55.328125 
Q 55.078125 49.078125 51.53125 44.71875 
Q 48 40.375 41.703125 38.8125 
Q 48.828125 37.15625 52.796875 32.3125 
Q 56.78125 27.484375 56.78125 20.515625 
Q 56.78125 9.90625 50.3125 4.234375 
Q 43.84375 -1.421875 31.78125 -1.421875 
Q 19.734375 -1.421875 13.25 4.234375 
Q 6.78125 9.90625 6.78125 20.515625 
Q 6.78125 27.484375 10.78125 32.3125 
Q 14.796875 37.15625 21.921875 38.8125 
z
M 18.3125 54.390625 
Q 18.3125 48.734375 21.84375 45.5625 
Q 25.390625 42.390625 31.78125 42.390625 
Q 38.140625 42.390625 41.71875 45.5625 
Q 45.3125 48.734375 45.3125 54.390625 
Q 45.3125 60.0625 41.71875 63.234375 
Q 38.140625 66.40625 31.78125 66.40625 
Q 25.390625 66.40625 21.84375 63.234375 
Q 18.3125 60.0625 18.3125 54.390625 
z
" id="DejaVuSans-56"/>
      </defs>
      <g transform="translate(22.81375 17.077969)scale(0.13 -0.13)">
       <use xlink:href="#DejaVuSans-56"/>
       <use x="63.623047" xlink:href="#DejaVuSans-48"/>
       <use x="127.246094" xlink:href="#DejaVuSans-48"/>
      </g>
     </g>
    </g>
    <g id="text_17">
     <!-- Anzahl von Fällen -->
     <defs>
      <path d="M 34.1875 63.1875 
L 20.796875 26.90625 
L 47.609375 26.90625 
z
M 28.609375 72.90625 
L 39.796875 72.90625 
L 67.578125 0 
L 57.328125 0 
L 50.6875 18.703125 
L 17.828125 18.703125 
L 11.1875 0 
L 0.78125 0 
z
" id="DejaVuSans-65"/>
      <path d="M 54.890625 33.015625 
L 54.890625 0 
L 45.90625 0 
L 45.90625 32.71875 
Q 45.90625 40.484375 42.875 44.328125 
Q 39.84375 48.1875 33.796875 48.1875 
Q 26.515625 48.1875 22.3125 43.546875 
Q 18.109375 38.921875 18.109375 30.90625 
L 18.109375 0 
L 9.078125 0 
L 9.078125 54.6875 
L 18.109375 54.6875 
L 18.109375 46.1875 
Q 21.34375 51.125 25.703125 53.5625 
Q 30.078125 56 35.796875 56 
Q 45.21875 56 50.046875 50.171875 
Q 54.890625 44.34375 54.890625 33.015625 
z
" id="DejaVuSans-110"/>
      <path d="M 5.515625 54.6875 
L 48.1875 54.6875 
L 48.1875 46.484375 
L 14.40625 7.171875 
L 48.1875 7.171875 
L 48.1875 0 
L 4.296875 0 
L 4.296875 8.203125 
L 38.09375 47.515625 
L 5.515625 47.515625 
z
" id="DejaVuSans-122"/>
      <path d="M 34.28125 27.484375 
Q 23.390625 27.484375 19.1875 25 
Q 14.984375 22.515625 14.984375 16.5 
Q 14.984375 11.71875 18.140625 8.90625 
Q 21.296875 6.109375 26.703125 6.109375 
Q 34.1875 6.109375 38.703125 11.40625 
Q 43.21875 16.703125 43.21875 25.484375 
L 43.21875 27.484375 
z
M 52.203125 31.203125 
L 52.203125 0 
L 43.21875 0 
L 43.21875 8.296875 
Q 40.140625 3.328125 35.546875 0.953125 
Q 30.953125 -1.421875 24.3125 -1.421875 
Q 15.921875 -1.421875 10.953125 3.296875 
Q 6 8.015625 6 15.921875 
Q 6 25.140625 12.171875 29.828125 
Q 18.359375 34.515625 30.609375 34.515625 
L 43.21875 34.515625 
L 43.21875 35.40625 
Q 43.21875 41.609375 39.140625 45 
Q 35.0625 48.390625 27.6875 48.390625 
Q 23 48.390625 18.546875 47.265625 
Q 14.109375 46.140625 10.015625 43.890625 
L 10.015625 52.203125 
Q 14.9375 54.109375 19.578125 55.046875 
Q 24.21875 56 28.609375 56 
Q 40.484375 56 46.34375 49.84375 
Q 52.203125 43.703125 52.203125 31.203125 
z
" id="DejaVuSans-97"/>
      <path d="M 54.890625 33.015625 
L 54.890625 0 
L 45.90625 0 
L 45.90625 32.71875 
Q 45.90625 40.484375 42.875 44.328125 
Q 39.84375 48.1875 33.796875 48.1875 
Q 26.515625 48.1875 22.3125 43.546875 
Q 18.109375 38.921875 18.109375 30.90625 
L 18.109375 0 
L 9.078125 0 
L 9.078125 75.984375 
L 18.109375 75.984375 
L 18.109375 46.1875 
Q 21.34375 51.125 25.703125 53.5625 
Q 30.078125 56 35.796875 56 
Q 45.21875 56 50.046875 50.171875 
Q 54.890625 44.34375 54.890625 33.015625 
z
" id="DejaVuSans-104"/>
      <path d="M 9.421875 75.984375 
L 18.40625 75.984375 
L 18.40625 0 
L 9.421875 0 
z
" id="DejaVuSans-108"/>
      <path id="DejaVuSans-32"/>
      <path d="M 2.984375 54.6875 
L 12.5 54.6875 
L 29.59375 8.796875 
L 46.6875 54.6875 
L 56.203125 54.6875 
L 35.6875 0 
L 23.484375 0 
z
" id="DejaVuSans-118"/>
      <path d="M 30.609375 48.390625 
Q 23.390625 48.390625 19.1875 42.75 
Q 14.984375 37.109375 14.984375 27.296875 
Q 14.984375 17.484375 19.15625 11.84375 
Q 23.34375 6.203125 30.609375 6.203125 
Q 37.796875 6.203125 41.984375 11.859375 
Q 46.1875 17.53125 46.1875 27.296875 
Q 46.1875 37.015625 41.984375 42.703125 
Q 37.796875 48.390625 30.609375 48.390625 
z
M 30.609375 56 
Q 42.328125 56 49.015625 48.375 
Q 55.71875 40.765625 55.71875 27.296875 
Q 55.71875 13.875 49.015625 6.21875 
Q 42.328125 -1.421875 30.609375 -1.421875 
Q 18.84375 -1.421875 12.171875 6.21875 
Q 5.515625 13.875 5.515625 27.296875 
Q 5.515625 40.765625 12.171875 48.375 
Q 18.84375 56 30.609375 56 
z
" id="DejaVuSans-111"/>
      <path d="M 9.8125 72.90625 
L 51.703125 72.90625 
L 51.703125 64.59375 
L 19.671875 64.59375 
L 19.671875 43.109375 
L 48.578125 43.109375 
L 48.578125 34.8125 
L 19.671875 34.8125 
L 19.671875 0 
L 9.8125 0 
z
" id="DejaVuSans-70"/>
      <path d="M 34.28125 27.484375 
Q 23.390625 27.484375 19.1875 25 
Q 14.984375 22.515625 14.984375 16.5 
Q 14.984375 11.71875 18.140625 8.90625 
Q 21.296875 6.109375 26.703125 6.109375 
Q 34.1875 6.109375 38.703125 11.40625 
Q 43.21875 16.703125 43.21875 25.484375 
L 43.21875 27.484375 
z
M 52.203125 31.203125 
L 52.203125 0 
L 43.21875 0 
L 43.21875 8.296875 
Q 40.140625 3.328125 35.546875 0.953125 
Q 30.953125 -1.421875 24.3125 -1.421875 
Q 15.921875 -1.421875 10.953125 3.296875 
Q 6 8.015625 6 15.921875 
Q 6 25.140625 12.171875 29.828125 
Q 18.359375 34.515625 30.609375 34.515625 
L 43.21875 34.515625 
L 43.21875 35.40625 
Q 43.21875 41.609375 39.140625 45 
Q 35.0625 48.390625 27.6875 48.390625 
Q 23 48.390625 18.546875 47.265625 
Q 14.109375 46.140625 10.015625 43.890625 
L 10.015625 52.203125 
Q 14.9375 54.109375 19.578125 55.046875 
Q 24.21875 56 28.609375 56 
Q 40.484375 56 46.34375 49.84375 
Q 52.203125 43.703125 52.203125 31.203125 
z
M 33.59375 75.78125 
L 43.5 75.78125 
L 43.5 65.921875 
L 33.59375 65.921875 
z
M 14.5 75.78125 
L 24.40625 75.78125 
L 24.40625 65.921875 
L 14.5 65.921875 
z
" id="DejaVuSans-228"/>
      <path d="M 56.203125 29.59375 
L 56.203125 25.203125 
L 14.890625 25.203125 
Q 15.484375 15.921875 20.484375 11.0625 
Q 25.484375 6.203125 34.421875 6.203125 
Q 39.59375 6.203125 44.453125 7.46875 
Q 49.3125 8.734375 54.109375 11.28125 
L 54.109375 2.78125 
Q 49.265625 0.734375 44.1875 -0.34375 
Q 39.109375 -1.421875 33.890625 -1.421875 
Q 20.796875 -1.421875 13.15625 6.1875 
Q 5.515625 13.8125 5.515625 26.8125 
Q 5.515625 40.234375 12.765625 48.109375 
Q 20.015625 56 32.328125 56 
Q 43.359375 56 49.78125 48.890625 
Q 56.203125 41.796875 56.203125 29.59375 
z
M 47.21875 32.234375 
Q 47.125 39.59375 43.09375 43.984375 
Q 39.0625 48.390625 32.421875 48.390625 
Q 24.90625 48.390625 20.390625 44.140625 
Q 15.875 39.890625 15.1875 32.171875 
z
" id="DejaVuSans-101"/>
     </defs>
     <g transform="translate(16.318125 309.388359)rotate(-90)scale(0.12 -0.12)">
      <use xlink:href="#DejaVuSans-65"/>
      <use x="68.408203" xlink:href="#DejaVuSans-110"/>
      <use x="131.787109" xlink:href="#DejaVuSans-122"/>
      <use x="184.277344" xlink:href="#DejaVuSans-97"/>
      <use x="245.556641" xlink:href="#DejaVuSans-104"/>
      <use x="308.935547" xlink:href="#DejaVuSans-108"/>
      <use x="336.71875" xlink:href="#DejaVuSans-32"/>
      <use x="368.505859" xlink:href="#DejaVuSans-118"/>
      <use x="427.685547" xlink:href="#DejaVuSans-111"/>
      <use x="488.867188" xlink:href="#DejaVuSans-110"/>
      <use x="552.246094" xlink:href="#DejaVuSans-32"/>
      <use x="584.033203" xlink:href="#DejaVuSans-70"/>
      <use x="632.427734" xlink:href="#DejaVuSans-228"/>
      <use x="693.707031" xlink:href="#DejaVuSans-108"/>
      <use x="721.490234" xlink:href="#DejaVuSans-108"/>
      <use x="749.273438" xlink:href="#DejaVuSans-101"/>
      <use x="810.796875" xlink:href="#DejaVuSans-110"/>
     </g>
    </g>
   </g>
   <g id="line2d_26">
    <path clip-path="url(#p7ea5b977a7)" d="M 105.354773 487.316102 
L 115.399777 486.717642 
L 125.444782 486.717642 
L 135.489786 483.725343 
L 145.534791 477.740745 
L 155.579795 477.740745 
L 165.6248 475.945365 
L 175.669804 432.257796 
L 185.714809 418.49322 
L 195.759813 405.925563 
L 205.804818 393.357906 
L 215.849822 381.388709 
L 225.894827 375.404111 
L 235.939831 368.222593 
L 245.984836 361.639534 
L 256.02984 355.654936 
L 266.074845 346.678038 
L 276.119849 340.69344 
L 286.164854 334.110382 
L 296.209858 332.913462 
L 306.254863 326.928863 
L 326.344872 321.542725 
L 336.389876 317.353506 
L 346.434881 314.959666 
L 356.479885 310.171988 
L 366.52489 307.778148 
L 386.614899 304.785849 
L 396.659903 301.79355 
L 406.704908 296.407411 
L 416.749912 286.233594 
L 426.794917 284.438214 
L 436.839921 283.241295 
L 456.92993 279.650536 
L 466.974935 279.052076 
L 477.019939 277.256696 
L 487.064944 273.665937 
L 507.154953 264.689039 
L 527.244962 255.113682 
L 537.289966 254.515222 
L 547.334971 251.522923 
L 557.379975 249.129083 
L 567.42498 246.136784 
L 577.469984 242.546025 
L 597.559993 238.955266 
L 607.604998 237.159886 
L 617.650002 235.364507 
L 627.695007 231.175288 
L 637.740011 228.781449 
L 647.785016 228.781449 
L 667.875025 229.379908 
L 677.920029 225.789149 
L 687.965034 225.19069 
L 708.055043 222.79685 
L 718.100047 221.59993 
L 738.190056 221.59993 
L 748.235061 219.804551 
L 768.32507 216.213792 
L 778.370074 216.213792 
L 818.550092 214.418412 
L 828.595097 213.819952 
L 838.640101 213.819952 
L 848.685106 213.819952 
L 858.73011 213.221493 
L 878.820119 213.221493 
L 888.865124 213.221493 
L 898.910128 212.623033 
L 919.000137 210.827653 
L 929.045142 210.827653 
L 949.135151 209.032274 
L 969.22516 207.236894 
L 989.315169 205.441515 
L 999.360173 204.843055 
L 1019.450182 204.843055 
L 1029.495187 201.850756 
L 1039.540191 200.653836 
L 1049.585196 200.653836 
L 1069.675205 200.653836 
L 1089.765214 200.653836 
L 1099.810218 200.653836 
L 1109.855223 200.055376 
L 1119.900227 198.858456 
" style="fill:none;stroke:#dbcd00;stroke-linecap:square;stroke-width:2;"/>
    <defs>
     <path d="M 0 1.5 
C 0.397805 1.5 0.77937 1.341951 1.06066 1.06066 
C 1.341951 0.77937 1.5 0.397805 1.5 0 
C 1.5 -0.397805 1.341951 -0.77937 1.06066 -1.06066 
C 0.77937 -1.341951 0.397805 -1.5 0 -1.5 
C -0.397805 -1.5 -0.77937 -1.341951 -1.06066 -1.06066 
C -1.341951 -0.77937 -1.5 -0.397805 -1.5 0 
C -1.5 0.397805 -1.341951 0.77937 -1.06066 1.06066 
C -0.77937 1.341951 -0.397805 1.5 0 1.5 
z
" id="m2899d900aa" style="stroke:#dbcd00;"/>
    </defs>
    <g clip-path="url(#p7ea5b977a7)">
     <use style="fill:#dbcd00;stroke:#dbcd00;" x="105.354773" xlink:href="#m2899d900aa" y="487.316102"/>
     <use style="fill:#dbcd00;stroke:#dbcd00;" x="115.399777" xlink:href="#m2899d900aa" y="486.717642"/>
     <use style="fill:#dbcd00;stroke:#dbcd00;" x="125.444782" xlink:href="#m2899d900aa" y="486.717642"/>
     <use style="fill:#dbcd00;stroke:#dbcd00;" x="135.489786" xlink:href="#m2899d900aa" y="483.725343"/>
     <use style="fill:#dbcd00;stroke:#dbcd00;" x="145.534791" xlink:href="#m2899d900aa" y="477.740745"/>
     <use style="fill:#dbcd00;stroke:#dbcd00;" x="155.579795" xlink:href="#m2899d900aa" y="477.740745"/>
     <use style="fill:#dbcd00;stroke:#dbcd00;" x="165.6248" xlink:href="#m2899d900aa" y="475.945365"/>
     <use style="fill:#dbcd00;stroke:#dbcd00;" x="175.669804" xlink:href="#m2899d900aa" y="432.257796"/>
     <use style="fill:#dbcd00;stroke:#dbcd00;" x="185.714809" xlink:href="#m2899d900aa" y="418.49322"/>
     <use style="fill:#dbcd00;stroke:#dbcd00;" x="195.759813" xlink:href="#m2899d900aa" y="405.925563"/>
     <use style="fill:#dbcd00;stroke:#dbcd00;" x="205.804818" xlink:href="#m2899d900aa" y="393.357906"/>
     <use style="fill:#dbcd00;stroke:#dbcd00;" x="215.849822" xlink:href="#m2899d900aa" y="381.388709"/>
     <use style="fill:#dbcd00;stroke:#dbcd00;" x="225.894827" xlink:href="#m2899d900aa" y="375.404111"/>
     <use style="fill:#dbcd00;stroke:#dbcd00;" x="235.939831" xlink:href="#m2899d900aa" y="368.222593"/>
     <use style="fill:#dbcd00;stroke:#dbcd00;" x="245.984836" xlink:href="#m2899d900aa" y="361.639534"/>
     <use style="fill:#dbcd00;stroke:#dbcd00;" x="256.02984" xlink:href="#m2899d900aa" y="355.654936"/>
     <use style="fill:#dbcd00;stroke:#dbcd00;" x="266.074845" xlink:href="#m2899d900aa" y="346.678038"/>
     <use style="fill:#dbcd00;stroke:#dbcd00;" x="276.119849" xlink:href="#m2899d900aa" y="340.69344"/>
     <use style="fill:#dbcd00;stroke:#dbcd00;" x="286.164854" xlink:href="#m2899d900aa" y="334.110382"/>
     <use style="fill:#dbcd00;stroke:#dbcd00;" x="296.209858" xlink:href="#m2899d900aa" y="332.913462"/>
     <use style="fill:#dbcd00;stroke:#dbcd00;" x="306.254863" xlink:href="#m2899d900aa" y="326.928863"/>
     <use style="fill:#dbcd00;stroke:#dbcd00;" x="326.344872" xlink:href="#m2899d900aa" y="321.542725"/>
     <use style="fill:#dbcd00;stroke:#dbcd00;" x="336.389876" xlink:href="#m2899d900aa" y="317.353506"/>
     <use style="fill:#dbcd00;stroke:#dbcd00;" x="346.434881" xlink:href="#m2899d900aa" y="314.959666"/>
     <use style="fill:#dbcd00;stroke:#dbcd00;" x="356.479885" xlink:href="#m2899d900aa" y="310.171988"/>
     <use style="fill:#dbcd00;stroke:#dbcd00;" x="366.52489" xlink:href="#m2899d900aa" y="307.778148"/>
     <use style="fill:#dbcd00;stroke:#dbcd00;" x="386.614899" xlink:href="#m2899d900aa" y="304.785849"/>
     <use style="fill:#dbcd00;stroke:#dbcd00;" x="396.659903" xlink:href="#m2899d900aa" y="301.79355"/>
     <use style="fill:#dbcd00;stroke:#dbcd00;" x="406.704908" xlink:href="#m2899d900aa" y="296.407411"/>
     <use style="fill:#dbcd00;stroke:#dbcd00;" x="416.749912" xlink:href="#m2899d900aa" y="286.233594"/>
     <use style="fill:#dbcd00;stroke:#dbcd00;" x="426.794917" xlink:href="#m2899d900aa" y="284.438214"/>
     <use style="fill:#dbcd00;stroke:#dbcd00;" x="436.839921" xlink:href="#m2899d900aa" y="283.241295"/>
     <use style="fill:#dbcd00;stroke:#dbcd00;" x="456.92993" xlink:href="#m2899d900aa" y="279.650536"/>
     <use style="fill:#dbcd00;stroke:#dbcd00;" x="466.974935" xlink:href="#m2899d900aa" y="279.052076"/>
     <use style="fill:#dbcd00;stroke:#dbcd00;" x="477.019939" xlink:href="#m2899d900aa" y="277.256696"/>
     <use style="fill:#dbcd00;stroke:#dbcd00;" x="487.064944" xlink:href="#m2899d900aa" y="273.665937"/>
     <use style="fill:#dbcd00;stroke:#dbcd00;" x="507.154953" xlink:href="#m2899d900aa" y="264.689039"/>
     <use style="fill:#dbcd00;stroke:#dbcd00;" x="527.244962" xlink:href="#m2899d900aa" y="255.113682"/>
     <use style="fill:#dbcd00;stroke:#dbcd00;" x="537.289966" xlink:href="#m2899d900aa" y="254.515222"/>
     <use style="fill:#dbcd00;stroke:#dbcd00;" x="547.334971" xlink:href="#m2899d900aa" y="251.522923"/>
     <use style="fill:#dbcd00;stroke:#dbcd00;" x="557.379975" xlink:href="#m2899d900aa" y="249.129083"/>
     <use style="fill:#dbcd00;stroke:#dbcd00;" x="567.42498" xlink:href="#m2899d900aa" y="246.136784"/>
     <use style="fill:#dbcd00;stroke:#dbcd00;" x="577.469984" xlink:href="#m2899d900aa" y="242.546025"/>
     <use style="fill:#dbcd00;stroke:#dbcd00;" x="597.559993" xlink:href="#m2899d900aa" y="238.955266"/>
     <use style="fill:#dbcd00;stroke:#dbcd00;" x="607.604998" xlink:href="#m2899d900aa" y="237.159886"/>
     <use style="fill:#dbcd00;stroke:#dbcd00;" x="617.650002" xlink:href="#m2899d900aa" y="235.364507"/>
     <use style="fill:#dbcd00;stroke:#dbcd00;" x="627.695007" xlink:href="#m2899d900aa" y="231.175288"/>
     <use style="fill:#dbcd00;stroke:#dbcd00;" x="637.740011" xlink:href="#m2899d900aa" y="228.781449"/>
     <use style="fill:#dbcd00;stroke:#dbcd00;" x="647.785016" xlink:href="#m2899d900aa" y="228.781449"/>
     <use style="fill:#dbcd00;stroke:#dbcd00;" x="667.875025" xlink:href="#m2899d900aa" y="229.379908"/>
     <use style="fill:#dbcd00;stroke:#dbcd00;" x="677.920029" xlink:href="#m2899d900aa" y="225.789149"/>
     <use style="fill:#dbcd00;stroke:#dbcd00;" x="687.965034" xlink:href="#m2899d900aa" y="225.19069"/>
     <use style="fill:#dbcd00;stroke:#dbcd00;" x="708.055043" xlink:href="#m2899d900aa" y="222.79685"/>
     <use style="fill:#dbcd00;stroke:#dbcd00;" x="718.100047" xlink:href="#m2899d900aa" y="221.59993"/>
     <use style="fill:#dbcd00;stroke:#dbcd00;" x="738.190056" xlink:href="#m2899d900aa" y="221.59993"/>
     <use style="fill:#dbcd00;stroke:#dbcd00;" x="748.235061" xlink:href="#m2899d900aa" y="219.804551"/>
     <use style="fill:#dbcd00;stroke:#dbcd00;" x="768.32507" xlink:href="#m2899d900aa" y="216.213792"/>
     <use style="fill:#dbcd00;stroke:#dbcd00;" x="778.370074" xlink:href="#m2899d900aa" y="216.213792"/>
     <use style="fill:#dbcd00;stroke:#dbcd00;" x="818.550092" xlink:href="#m2899d900aa" y="214.418412"/>
     <use style="fill:#dbcd00;stroke:#dbcd00;" x="828.595097" xlink:href="#m2899d900aa" y="213.819952"/>
     <use style="fill:#dbcd00;stroke:#dbcd00;" x="838.640101" xlink:href="#m2899d900aa" y="213.819952"/>
     <use style="fill:#dbcd00;stroke:#dbcd00;" x="848.685106" xlink:href="#m2899d900aa" y="213.819952"/>
     <use style="fill:#dbcd00;stroke:#dbcd00;" x="858.73011" xlink:href="#m2899d900aa" y="213.221493"/>
     <use style="fill:#dbcd00;stroke:#dbcd00;" x="878.820119" xlink:href="#m2899d900aa" y="213.221493"/>
     <use style="fill:#dbcd00;stroke:#dbcd00;" x="888.865124" xlink:href="#m2899d900aa" y="213.221493"/>
     <use style="fill:#dbcd00;stroke:#dbcd00;" x="898.910128" xlink:href="#m2899d900aa" y="212.623033"/>
     <use style="fill:#dbcd00;stroke:#dbcd00;" x="919.000137" xlink:href="#m2899d900aa" y="210.827653"/>
     <use style="fill:#dbcd00;stroke:#dbcd00;" x="929.045142" xlink:href="#m2899d900aa" y="210.827653"/>
     <use style="fill:#dbcd00;stroke:#dbcd00;" x="949.135151" xlink:href="#m2899d900aa" y="209.032274"/>
     <use style="fill:#dbcd00;stroke:#dbcd00;" x="969.22516" xlink:href="#m2899d900aa" y="207.236894"/>
     <use style="fill:#dbcd00;stroke:#dbcd00;" x="989.315169" xlink:href="#m2899d900aa" y="205.441515"/>
     <use style="fill:#dbcd00;stroke:#dbcd00;" x="999.360173" xlink:href="#m2899d900aa" y="204.843055"/>
     <use style="fill:#dbcd00;stroke:#dbcd00;" x="1019.450182" xlink:href="#m2899d900aa" y="204.843055"/>
     <use style="fill:#dbcd00;stroke:#dbcd00;" x="1029.495187" xlink:href="#m2899d900aa" y="201.850756"/>
     <use style="fill:#dbcd00;stroke:#dbcd00;" x="1039.540191" xlink:href="#m2899d900aa" y="200.653836"/>
     <use style="fill:#dbcd00;stroke:#dbcd00;" x="1049.585196" xlink:href="#m2899d900aa" y="200.653836"/>
     <use style="fill:#dbcd00;stroke:#dbcd00;" x="1069.675205" xlink:href="#m2899d900aa" y="200.653836"/>
     <use style="fill:#dbcd00;stroke:#dbcd00;" x="1089.765214" xlink:href="#m2899d900aa" y="200.653836"/>
     <use style="fill:#dbcd00;stroke:#dbcd00;" x="1099.810218" xlink:href="#m2899d900aa" y="200.653836"/>
     <use style="fill:#dbcd00;stroke:#dbcd00;" x="1109.855223" xlink:href="#m2899d900aa" y="200.055376"/>
     <use style="fill:#dbcd00;stroke:#dbcd00;" x="1119.900227" xlink:href="#m2899d900aa" y="198.858456"/>
    </g>
   </g>
   <g id="line2d_27">
    <path clip-path="url(#p7ea5b977a7)" d="M 105.354773 370.616432 
L 115.399777 365.230294 
L 125.444782 349.071878 
L 135.489786 346.678038 
L 145.534791 337.701141 
L 155.579795 332.913462 
L 165.6248 332.315002 
L 175.669804 368.821053 
L 185.714809 378.39641 
L 195.759813 384.381009 
L 205.804818 387.373308 
L 215.849822 397.547125 
L 225.894827 402.933264 
L 235.939831 409.516322 
L 245.984836 414.304001 
L 256.02984 417.89476 
L 266.074845 420.288599 
L 276.119849 423.280899 
L 286.164854 424.477818 
L 296.209858 425.674738 
L 306.254863 429.863957 
L 326.344872 420.887059 
L 336.389876 423.280899 
L 346.434881 422.682439 
L 356.479885 423.280899 
L 366.52489 423.879358 
L 386.614899 429.265497 
L 396.659903 431.659336 
L 406.704908 435.848555 
L 416.749912 444.825453 
L 426.794917 435.848555 
L 436.839921 436.447015 
L 456.92993 438.840855 
L 466.974935 438.840855 
L 477.019939 437.643935 
L 487.064944 441.234694 
L 507.154953 446.022373 
L 527.244962 452.605431 
L 537.289966 453.203891 
L 547.334971 456.19619 
L 557.379975 458.590029 
L 567.42498 461.582329 
L 577.469984 464.574628 
L 597.559993 467.566927 
L 607.604998 469.362307 
L 617.650002 471.157686 
L 627.695007 475.346905 
L 637.740011 474.748445 
L 647.785016 474.149985 
L 667.875025 472.953066 
L 677.920029 476.543825 
L 687.965034 477.142285 
L 708.055043 478.937664 
L 718.100047 480.134584 
L 738.190056 480.134584 
L 748.235061 481.929963 
L 768.32507 486.717642 
L 778.370074 486.119182 
L 818.550092 484.323803 
L 828.595097 483.725343 
L 838.640101 482.528423 
L 848.685106 482.528423 
L 858.73011 483.126883 
L 878.820119 481.929963 
L 888.865124 481.331504 
L 898.910128 481.331504 
L 919.000137 475.945365 
L 929.045142 475.945365 
L 949.135151 470.559226 
L 969.22516 468.763847 
L 989.315169 435.848555 
L 999.360173 407.122483 
L 1019.450182 405.925563 
L 1029.495187 364.631834 
L 1039.540191 365.828753 
L 1049.585196 361.041075 
L 1069.675205 351.465717 
L 1089.765214 343.087279 
L 1099.810218 333.511922 
L 1109.855223 322.141185 
L 1119.900227 309.573528 
" style="fill:none;stroke:#2792cb;stroke-linecap:square;stroke-width:2;"/>
    <defs>
     <path d="M 0 1.5 
C 0.397805 1.5 0.77937 1.341951 1.06066 1.06066 
C 1.341951 0.77937 1.5 0.397805 1.5 0 
C 1.5 -0.397805 1.341951 -0.77937 1.06066 -1.06066 
C 0.77937 -1.341951 0.397805 -1.5 0 -1.5 
C -0.397805 -1.5 -0.77937 -1.341951 -1.06066 -1.06066 
C -1.341951 -0.77937 -1.5 -0.397805 -1.5 0 
C -1.5 0.397805 -1.341951 0.77937 -1.06066 1.06066 
C -0.77937 1.341951 -0.397805 1.5 0 1.5 
z
" id="m4532d09973" style="stroke:#2792cb;"/>
    </defs>
    <g clip-path="url(#p7ea5b977a7)">
     <use style="fill:#2792cb;stroke:#2792cb;" x="105.354773" xlink:href="#m4532d09973" y="370.616432"/>
     <use style="fill:#2792cb;stroke:#2792cb;" x="115.399777" xlink:href="#m4532d09973" y="365.230294"/>
     <use style="fill:#2792cb;stroke:#2792cb;" x="125.444782" xlink:href="#m4532d09973" y="349.071878"/>
     <use style="fill:#2792cb;stroke:#2792cb;" x="135.489786" xlink:href="#m4532d09973" y="346.678038"/>
     <use style="fill:#2792cb;stroke:#2792cb;" x="145.534791" xlink:href="#m4532d09973" y="337.701141"/>
     <use style="fill:#2792cb;stroke:#2792cb;" x="155.579795" xlink:href="#m4532d09973" y="332.913462"/>
     <use style="fill:#2792cb;stroke:#2792cb;" x="165.6248" xlink:href="#m4532d09973" y="332.315002"/>
     <use style="fill:#2792cb;stroke:#2792cb;" x="175.669804" xlink:href="#m4532d09973" y="368.821053"/>
     <use style="fill:#2792cb;stroke:#2792cb;" x="185.714809" xlink:href="#m4532d09973" y="378.39641"/>
     <use style="fill:#2792cb;stroke:#2792cb;" x="195.759813" xlink:href="#m4532d09973" y="384.381009"/>
     <use style="fill:#2792cb;stroke:#2792cb;" x="205.804818" xlink:href="#m4532d09973" y="387.373308"/>
     <use style="fill:#2792cb;stroke:#2792cb;" x="215.849822" xlink:href="#m4532d09973" y="397.547125"/>
     <use style="fill:#2792cb;stroke:#2792cb;" x="225.894827" xlink:href="#m4532d09973" y="402.933264"/>
     <use style="fill:#2792cb;stroke:#2792cb;" x="235.939831" xlink:href="#m4532d09973" y="409.516322"/>
     <use style="fill:#2792cb;stroke:#2792cb;" x="245.984836" xlink:href="#m4532d09973" y="414.304001"/>
     <use style="fill:#2792cb;stroke:#2792cb;" x="256.02984" xlink:href="#m4532d09973" y="417.89476"/>
     <use style="fill:#2792cb;stroke:#2792cb;" x="266.074845" xlink:href="#m4532d09973" y="420.288599"/>
     <use style="fill:#2792cb;stroke:#2792cb;" x="276.119849" xlink:href="#m4532d09973" y="423.280899"/>
     <use style="fill:#2792cb;stroke:#2792cb;" x="286.164854" xlink:href="#m4532d09973" y="424.477818"/>
     <use style="fill:#2792cb;stroke:#2792cb;" x="296.209858" xlink:href="#m4532d09973" y="425.674738"/>
     <use style="fill:#2792cb;stroke:#2792cb;" x="306.254863" xlink:href="#m4532d09973" y="429.863957"/>
     <use style="fill:#2792cb;stroke:#2792cb;" x="326.344872" xlink:href="#m4532d09973" y="420.887059"/>
     <use style="fill:#2792cb;stroke:#2792cb;" x="336.389876" xlink:href="#m4532d09973" y="423.280899"/>
     <use style="fill:#2792cb;stroke:#2792cb;" x="346.434881" xlink:href="#m4532d09973" y="422.682439"/>
     <use style="fill:#2792cb;stroke:#2792cb;" x="356.479885" xlink:href="#m4532d09973" y="423.280899"/>
     <use style="fill:#2792cb;stroke:#2792cb;" x="366.52489" xlink:href="#m4532d09973" y="423.879358"/>
     <use style="fill:#2792cb;stroke:#2792cb;" x="386.614899" xlink:href="#m4532d09973" y="429.265497"/>
     <use style="fill:#2792cb;stroke:#2792cb;" x="396.659903" xlink:href="#m4532d09973" y="431.659336"/>
     <use style="fill:#2792cb;stroke:#2792cb;" x="406.704908" xlink:href="#m4532d09973" y="435.848555"/>
     <use style="fill:#2792cb;stroke:#2792cb;" x="416.749912" xlink:href="#m4532d09973" y="444.825453"/>
     <use style="fill:#2792cb;stroke:#2792cb;" x="426.794917" xlink:href="#m4532d09973" y="435.848555"/>
     <use style="fill:#2792cb;stroke:#2792cb;" x="436.839921" xlink:href="#m4532d09973" y="436.447015"/>
     <use style="fill:#2792cb;stroke:#2792cb;" x="456.92993" xlink:href="#m4532d09973" y="438.840855"/>
     <use style="fill:#2792cb;stroke:#2792cb;" x="466.974935" xlink:href="#m4532d09973" y="438.840855"/>
     <use style="fill:#2792cb;stroke:#2792cb;" x="477.019939" xlink:href="#m4532d09973" y="437.643935"/>
     <use style="fill:#2792cb;stroke:#2792cb;" x="487.064944" xlink:href="#m4532d09973" y="441.234694"/>
     <use style="fill:#2792cb;stroke:#2792cb;" x="507.154953" xlink:href="#m4532d09973" y="446.022373"/>
     <use style="fill:#2792cb;stroke:#2792cb;" x="527.244962" xlink:href="#m4532d09973" y="452.605431"/>
     <use style="fill:#2792cb;stroke:#2792cb;" x="537.289966" xlink:href="#m4532d09973" y="453.203891"/>
     <use style="fill:#2792cb;stroke:#2792cb;" x="547.334971" xlink:href="#m4532d09973" y="456.19619"/>
     <use style="fill:#2792cb;stroke:#2792cb;" x="557.379975" xlink:href="#m4532d09973" y="458.590029"/>
     <use style="fill:#2792cb;stroke:#2792cb;" x="567.42498" xlink:href="#m4532d09973" y="461.582329"/>
     <use style="fill:#2792cb;stroke:#2792cb;" x="577.469984" xlink:href="#m4532d09973" y="464.574628"/>
     <use style="fill:#2792cb;stroke:#2792cb;" x="597.559993" xlink:href="#m4532d09973" y="467.566927"/>
     <use style="fill:#2792cb;stroke:#2792cb;" x="607.604998" xlink:href="#m4532d09973" y="469.362307"/>
     <use style="fill:#2792cb;stroke:#2792cb;" x="617.650002" xlink:href="#m4532d09973" y="471.157686"/>
     <use style="fill:#2792cb;stroke:#2792cb;" x="627.695007" xlink:href="#m4532d09973" y="475.346905"/>
     <use style="fill:#2792cb;stroke:#2792cb;" x="637.740011" xlink:href="#m4532d09973" y="474.748445"/>
     <use style="fill:#2792cb;stroke:#2792cb;" x="647.785016" xlink:href="#m4532d09973" y="474.149985"/>
     <use style="fill:#2792cb;stroke:#2792cb;" x="667.875025" xlink:href="#m4532d09973" y="472.953066"/>
     <use style="fill:#2792cb;stroke:#2792cb;" x="677.920029" xlink:href="#m4532d09973" y="476.543825"/>
     <use style="fill:#2792cb;stroke:#2792cb;" x="687.965034" xlink:href="#m4532d09973" y="477.142285"/>
     <use style="fill:#2792cb;stroke:#2792cb;" x="708.055043" xlink:href="#m4532d09973" y="478.937664"/>
     <use style="fill:#2792cb;stroke:#2792cb;" x="718.100047" xlink:href="#m4532d09973" y="480.134584"/>
     <use style="fill:#2792cb;stroke:#2792cb;" x="738.190056" xlink:href="#m4532d09973" y="480.134584"/>
     <use style="fill:#2792cb;stroke:#2792cb;" x="748.235061" xlink:href="#m4532d09973" y="481.929963"/>
     <use style="fill:#2792cb;stroke:#2792cb;" x="768.32507" xlink:href="#m4532d09973" y="486.717642"/>
     <use style="fill:#2792cb;stroke:#2792cb;" x="778.370074" xlink:href="#m4532d09973" y="486.119182"/>
     <use style="fill:#2792cb;stroke:#2792cb;" x="818.550092" xlink:href="#m4532d09973" y="484.323803"/>
     <use style="fill:#2792cb;stroke:#2792cb;" x="828.595097" xlink:href="#m4532d09973" y="483.725343"/>
     <use style="fill:#2792cb;stroke:#2792cb;" x="838.640101" xlink:href="#m4532d09973" y="482.528423"/>
     <use style="fill:#2792cb;stroke:#2792cb;" x="848.685106" xlink:href="#m4532d09973" y="482.528423"/>
     <use style="fill:#2792cb;stroke:#2792cb;" x="858.73011" xlink:href="#m4532d09973" y="483.126883"/>
     <use style="fill:#2792cb;stroke:#2792cb;" x="878.820119" xlink:href="#m4532d09973" y="481.929963"/>
     <use style="fill:#2792cb;stroke:#2792cb;" x="888.865124" xlink:href="#m4532d09973" y="481.331504"/>
     <use style="fill:#2792cb;stroke:#2792cb;" x="898.910128" xlink:href="#m4532d09973" y="481.331504"/>
     <use style="fill:#2792cb;stroke:#2792cb;" x="919.000137" xlink:href="#m4532d09973" y="475.945365"/>
     <use style="fill:#2792cb;stroke:#2792cb;" x="929.045142" xlink:href="#m4532d09973" y="475.945365"/>
     <use style="fill:#2792cb;stroke:#2792cb;" x="949.135151" xlink:href="#m4532d09973" y="470.559226"/>
     <use style="fill:#2792cb;stroke:#2792cb;" x="969.22516" xlink:href="#m4532d09973" y="468.763847"/>
     <use style="fill:#2792cb;stroke:#2792cb;" x="989.315169" xlink:href="#m4532d09973" y="435.848555"/>
     <use style="fill:#2792cb;stroke:#2792cb;" x="999.360173" xlink:href="#m4532d09973" y="407.122483"/>
     <use style="fill:#2792cb;stroke:#2792cb;" x="1019.450182" xlink:href="#m4532d09973" y="405.925563"/>
     <use style="fill:#2792cb;stroke:#2792cb;" x="1029.495187" xlink:href="#m4532d09973" y="364.631834"/>
     <use style="fill:#2792cb;stroke:#2792cb;" x="1039.540191" xlink:href="#m4532d09973" y="365.828753"/>
     <use style="fill:#2792cb;stroke:#2792cb;" x="1049.585196" xlink:href="#m4532d09973" y="361.041075"/>
     <use style="fill:#2792cb;stroke:#2792cb;" x="1069.675205" xlink:href="#m4532d09973" y="351.465717"/>
     <use style="fill:#2792cb;stroke:#2792cb;" x="1089.765214" xlink:href="#m4532d09973" y="343.087279"/>
     <use style="fill:#2792cb;stroke:#2792cb;" x="1099.810218" xlink:href="#m4532d09973" y="333.511922"/>
     <use style="fill:#2792cb;stroke:#2792cb;" x="1109.855223" xlink:href="#m4532d09973" y="322.141185"/>
     <use style="fill:#2792cb;stroke:#2792cb;" x="1119.900227" xlink:href="#m4532d09973" y="309.573528"/>
    </g>
   </g>
   <g id="patch_3">
    <path d="M 54.6275 501.738984 
L 1170.6275 501.738984 
" style="fill:none;stroke:#000000;stroke-linecap:square;stroke-linejoin:miter;stroke-width:0.8;"/>
   </g>
   <g id="legend_1">
    <g id="line2d_28">
     <path d="M 1083.382188 25.237422 
L 1103.382188 25.237422 
" style="fill:none;stroke:#dbcd00;stroke-linecap:square;stroke-width:2;"/>
    </g>
    <g id="line2d_29">
     <g>
      <use style="fill:#dbcd00;stroke:#dbcd00;" x="1093.382188" xlink:href="#m2899d900aa" y="25.237422"/>
     </g>
    </g>
    <g id="text_18">
     <!-- Genesene -->
     <defs>
      <path d="M 59.515625 10.40625 
L 59.515625 29.984375 
L 43.40625 29.984375 
L 43.40625 38.09375 
L 69.28125 38.09375 
L 69.28125 6.78125 
Q 63.578125 2.734375 56.6875 0.65625 
Q 49.8125 -1.421875 42 -1.421875 
Q 24.90625 -1.421875 15.25 8.5625 
Q 5.609375 18.5625 5.609375 36.375 
Q 5.609375 54.25 15.25 64.234375 
Q 24.90625 74.21875 42 74.21875 
Q 49.125 74.21875 55.546875 72.453125 
Q 61.96875 70.703125 67.390625 67.28125 
L 67.390625 56.78125 
Q 61.921875 61.421875 55.765625 63.765625 
Q 49.609375 66.109375 42.828125 66.109375 
Q 29.4375 66.109375 22.71875 58.640625 
Q 16.015625 51.171875 16.015625 36.375 
Q 16.015625 21.625 22.71875 14.15625 
Q 29.4375 6.6875 42.828125 6.6875 
Q 48.046875 6.6875 52.140625 7.59375 
Q 56.25 8.5 59.515625 10.40625 
z
" id="DejaVuSans-71"/>
      <path d="M 44.28125 53.078125 
L 44.28125 44.578125 
Q 40.484375 46.53125 36.375 47.5 
Q 32.28125 48.484375 27.875 48.484375 
Q 21.1875 48.484375 17.84375 46.4375 
Q 14.5 44.390625 14.5 40.28125 
Q 14.5 37.15625 16.890625 35.375 
Q 19.28125 33.59375 26.515625 31.984375 
L 29.59375 31.296875 
Q 39.15625 29.25 43.1875 25.515625 
Q 47.21875 21.78125 47.21875 15.09375 
Q 47.21875 7.46875 41.1875 3.015625 
Q 35.15625 -1.421875 24.609375 -1.421875 
Q 20.21875 -1.421875 15.453125 -0.5625 
Q 10.6875 0.296875 5.421875 2 
L 5.421875 11.28125 
Q 10.40625 8.6875 15.234375 7.390625 
Q 20.0625 6.109375 24.8125 6.109375 
Q 31.15625 6.109375 34.5625 8.28125 
Q 37.984375 10.453125 37.984375 14.40625 
Q 37.984375 18.0625 35.515625 20.015625 
Q 33.0625 21.96875 24.703125 23.78125 
L 21.578125 24.515625 
Q 13.234375 26.265625 9.515625 29.90625 
Q 5.8125 33.546875 5.8125 39.890625 
Q 5.8125 47.609375 11.28125 51.796875 
Q 16.75 56 26.8125 56 
Q 31.78125 56 36.171875 55.265625 
Q 40.578125 54.546875 44.28125 53.078125 
z
" id="DejaVuSans-115"/>
     </defs>
     <g transform="translate(1111.382188 28.737422)scale(0.1 -0.1)">
      <use xlink:href="#DejaVuSans-71"/>
      <use x="77.490234" xlink:href="#DejaVuSans-101"/>
      <use x="139.013672" xlink:href="#DejaVuSans-110"/>
      <use x="202.392578" xlink:href="#DejaVuSans-101"/>
      <use x="263.916016" xlink:href="#DejaVuSans-115"/>
      <use x="316.015625" xlink:href="#DejaVuSans-101"/>
      <use x="377.539062" xlink:href="#DejaVuSans-110"/>
      <use x="440.917969" xlink:href="#DejaVuSans-101"/>
     </g>
    </g>
    <g id="line2d_30">
     <path d="M 1083.382188 39.915547 
L 1103.382188 39.915547 
" style="fill:none;stroke:#2792cb;stroke-linecap:square;stroke-width:2;"/>
    </g>
    <g id="line2d_31">
     <g>
      <use style="fill:#2792cb;stroke:#2792cb;" x="1093.382188" xlink:href="#m4532d09973" y="39.915547"/>
     </g>
    </g>
    <g id="text_19">
     <!-- Erkrankte -->
     <defs>
      <path d="M 9.8125 72.90625 
L 55.90625 72.90625 
L 55.90625 64.59375 
L 19.671875 64.59375 
L 19.671875 43.015625 
L 54.390625 43.015625 
L 54.390625 34.71875 
L 19.671875 34.71875 
L 19.671875 8.296875 
L 56.78125 8.296875 
L 56.78125 0 
L 9.8125 0 
z
" id="DejaVuSans-69"/>
      <path d="M 41.109375 46.296875 
Q 39.59375 47.171875 37.8125 47.578125 
Q 36.03125 48 33.890625 48 
Q 26.265625 48 22.1875 43.046875 
Q 18.109375 38.09375 18.109375 28.8125 
L 18.109375 0 
L 9.078125 0 
L 9.078125 54.6875 
L 18.109375 54.6875 
L 18.109375 46.1875 
Q 20.953125 51.171875 25.484375 53.578125 
Q 30.03125 56 36.53125 56 
Q 37.453125 56 38.578125 55.875 
Q 39.703125 55.765625 41.0625 55.515625 
z
" id="DejaVuSans-114"/>
      <path d="M 9.078125 75.984375 
L 18.109375 75.984375 
L 18.109375 31.109375 
L 44.921875 54.6875 
L 56.390625 54.6875 
L 27.390625 29.109375 
L 57.625 0 
L 45.90625 0 
L 18.109375 26.703125 
L 18.109375 0 
L 9.078125 0 
z
" id="DejaVuSans-107"/>
      <path d="M 18.3125 70.21875 
L 18.3125 54.6875 
L 36.8125 54.6875 
L 36.8125 47.703125 
L 18.3125 47.703125 
L 18.3125 18.015625 
Q 18.3125 11.328125 20.140625 9.421875 
Q 21.96875 7.515625 27.59375 7.515625 
L 36.8125 7.515625 
L 36.8125 0 
L 27.59375 0 
Q 17.1875 0 13.234375 3.875 
Q 9.28125 7.765625 9.28125 18.015625 
L 9.28125 47.703125 
L 2.6875 47.703125 
L 2.6875 54.6875 
L 9.28125 54.6875 
L 9.28125 70.21875 
z
" id="DejaVuSans-116"/>
     </defs>
     <g transform="translate(1111.382188 43.415547)scale(0.1 -0.1)">
      <use xlink:href="#DejaVuSans-69"/>
      <use x="63.183594" xlink:href="#DejaVuSans-114"/>
      <use x="104.296875" xlink:href="#DejaVuSans-107"/>
      <use x="162.207031" xlink:href="#DejaVuSans-114"/>
      <use x="203.320312" xlink:href="#DejaVuSans-97"/>
      <use x="264.599609" xlink:href="#DejaVuSans-110"/>
      <use x="327.978516" xlink:href="#DejaVuSans-107"/>
      <use x="385.888672" xlink:href="#DejaVuSans-116"/>
      <use x="425.097656" xlink:href="#DejaVuSans-101"/>
     </g>
    </g>
   </g>
  </g>
 </g>
 <defs>
  <clipPath id="p7ea5b977a7">
   <rect height="489.6" width="1116" x="54.6275" y="12.138984"/>
  </clipPath>
 </defs>
</svg>
