<?xml version="1.0" encoding="utf-8" standalone="no"?>
<!DOCTYPE svg PUBLIC "-//W3C//DTD SVG 1.1//EN"
  "http://www.w3.org/Graphics/SVG/1.1/DTD/svg11.dtd">
<!-- Created with matplotlib (https://matplotlib.org/) -->
<svg height="564.610093pt" version="1.1" viewBox="0 0 1186.09875 564.610093" width="1186.09875pt" xmlns="http://www.w3.org/2000/svg" xmlns:xlink="http://www.w3.org/1999/xlink">
 <defs>
  <style type="text/css">
*{stroke-linecap:butt;stroke-linejoin:round;}
  </style>
 </defs>
 <g id="figure_1">
  <g id="patch_1">
   <path d="M 0 564.610093 
L 1186.09875 564.610093 
L 1186.09875 0 
L 0 0 
z
" style="fill:#ffffff;"/>
  </g>
  <g id="axes_1">
   <g id="patch_2">
    <path d="M 62.89875 501.738984 
L 1178.89875 501.738984 
L 1178.89875 12.138984 
L 62.89875 12.138984 
z
" style="fill:#ffffff;"/>
   </g>
   <g id="matplotlib.axis_1">
    <g id="xtick_1">
     <g id="line2d_1">
      <defs>
       <path d="M 0 0 
L 0 3.5 
" id="m39d956fb89" style="stroke:#000000;stroke-width:0.8;"/>
      </defs>
      <g>
       <use style="stroke:#000000;stroke-width:0.8;" x="251.97313" xlink:href="#m39d956fb89" y="501.738984"/>
      </g>
     </g>
     <g id="text_1">
      <!-- 2020-04-01 -->
      <defs>
       <path d="M 19.1875 8.296875 
L 53.609375 8.296875 
L 53.609375 0 
L 7.328125 0 
L 7.328125 8.296875 
Q 12.9375 14.109375 22.625 23.890625 
Q 32.328125 33.6875 34.8125 36.53125 
Q 39.546875 41.84375 41.421875 45.53125 
Q 43.3125 49.21875 43.3125 52.78125 
Q 43.3125 58.59375 39.234375 62.25 
Q 35.15625 65.921875 28.609375 65.921875 
Q 23.96875 65.921875 18.8125 64.3125 
Q 13.671875 62.703125 7.8125 59.421875 
L 7.8125 69.390625 
Q 13.765625 71.78125 18.9375 73 
Q 24.125 74.21875 28.421875 74.21875 
Q 39.75 74.21875 46.484375 68.546875 
Q 53.21875 62.890625 53.21875 53.421875 
Q 53.21875 48.921875 51.53125 44.890625 
Q 49.859375 40.875 45.40625 35.40625 
Q 44.1875 33.984375 37.640625 27.21875 
Q 31.109375 20.453125 19.1875 8.296875 
z
" id="DejaVuSans-50"/>
       <path d="M 31.78125 66.40625 
Q 24.171875 66.40625 20.328125 58.90625 
Q 16.5 51.421875 16.5 36.375 
Q 16.5 21.390625 20.328125 13.890625 
Q 24.171875 6.390625 31.78125 6.390625 
Q 39.453125 6.390625 43.28125 13.890625 
Q 47.125 21.390625 47.125 36.375 
Q 47.125 51.421875 43.28125 58.90625 
Q 39.453125 66.40625 31.78125 66.40625 
z
M 31.78125 74.21875 
Q 44.046875 74.21875 50.515625 64.515625 
Q 56.984375 54.828125 56.984375 36.375 
Q 56.984375 17.96875 50.515625 8.265625 
Q 44.046875 -1.421875 31.78125 -1.421875 
Q 19.53125 -1.421875 13.0625 8.265625 
Q 6.59375 17.96875 6.59375 36.375 
Q 6.59375 54.828125 13.0625 64.515625 
Q 19.53125 74.21875 31.78125 74.21875 
z
" id="DejaVuSans-48"/>
       <path d="M 4.890625 31.390625 
L 31.203125 31.390625 
L 31.203125 23.390625 
L 4.890625 23.390625 
z
" id="DejaVuSans-45"/>
       <path d="M 37.796875 64.3125 
L 12.890625 25.390625 
L 37.796875 25.390625 
z
M 35.203125 72.90625 
L 47.609375 72.90625 
L 47.609375 25.390625 
L 58.015625 25.390625 
L 58.015625 17.1875 
L 47.609375 17.1875 
L 47.609375 0 
L 37.796875 0 
L 37.796875 17.1875 
L 4.890625 17.1875 
L 4.890625 26.703125 
z
" id="DejaVuSans-52"/>
       <path d="M 12.40625 8.296875 
L 28.515625 8.296875 
L 28.515625 63.921875 
L 10.984375 60.40625 
L 10.984375 69.390625 
L 28.421875 72.90625 
L 38.28125 72.90625 
L 38.28125 8.296875 
L 54.390625 8.296875 
L 54.390625 0 
L 12.40625 0 
z
" id="DejaVuSans-49"/>
      </defs>
      <g transform="translate(185.192843 555.068713)rotate(-30)scale(0.13 -0.13)">
       <use xlink:href="#DejaVuSans-50"/>
       <use x="63.623047" xlink:href="#DejaVuSans-48"/>
       <use x="127.246094" xlink:href="#DejaVuSans-50"/>
       <use x="190.869141" xlink:href="#DejaVuSans-48"/>
       <use x="254.492188" xlink:href="#DejaVuSans-45"/>
       <use x="290.576172" xlink:href="#DejaVuSans-48"/>
       <use x="354.199219" xlink:href="#DejaVuSans-52"/>
       <use x="417.822266" xlink:href="#DejaVuSans-45"/>
       <use x="453.90625" xlink:href="#DejaVuSans-48"/>
       <use x="517.529297" xlink:href="#DejaVuSans-49"/>
      </g>
     </g>
    </g>
    <g id="xtick_2">
     <g id="line2d_2">
      <g>
       <use style="stroke:#000000;stroke-width:0.8;" x="467.179742" xlink:href="#m39d956fb89" y="501.738984"/>
      </g>
     </g>
     <g id="text_2">
      <!-- 2020-04-15 -->
      <defs>
       <path d="M 10.796875 72.90625 
L 49.515625 72.90625 
L 49.515625 64.59375 
L 19.828125 64.59375 
L 19.828125 46.734375 
Q 21.96875 47.46875 24.109375 47.828125 
Q 26.265625 48.1875 28.421875 48.1875 
Q 40.625 48.1875 47.75 41.5 
Q 54.890625 34.8125 54.890625 23.390625 
Q 54.890625 11.625 47.5625 5.09375 
Q 40.234375 -1.421875 26.90625 -1.421875 
Q 22.3125 -1.421875 17.546875 -0.640625 
Q 12.796875 0.140625 7.71875 1.703125 
L 7.71875 11.625 
Q 12.109375 9.234375 16.796875 8.0625 
Q 21.484375 6.890625 26.703125 6.890625 
Q 35.15625 6.890625 40.078125 11.328125 
Q 45.015625 15.765625 45.015625 23.390625 
Q 45.015625 31 40.078125 35.4375 
Q 35.15625 39.890625 26.703125 39.890625 
Q 22.75 39.890625 18.8125 39.015625 
Q 14.890625 38.140625 10.796875 36.28125 
z
" id="DejaVuSans-53"/>
      </defs>
      <g transform="translate(400.399455 555.068713)rotate(-30)scale(0.13 -0.13)">
       <use xlink:href="#DejaVuSans-50"/>
       <use x="63.623047" xlink:href="#DejaVuSans-48"/>
       <use x="127.246094" xlink:href="#DejaVuSans-50"/>
       <use x="190.869141" xlink:href="#DejaVuSans-48"/>
       <use x="254.492188" xlink:href="#DejaVuSans-45"/>
       <use x="290.576172" xlink:href="#DejaVuSans-48"/>
       <use x="354.199219" xlink:href="#DejaVuSans-52"/>
       <use x="417.822266" xlink:href="#DejaVuSans-45"/>
       <use x="453.90625" xlink:href="#DejaVuSans-49"/>
       <use x="517.529297" xlink:href="#DejaVuSans-53"/>
      </g>
     </g>
    </g>
    <g id="xtick_3">
     <g id="line2d_3">
      <g>
       <use style="stroke:#000000;stroke-width:0.8;" x="713.130155" xlink:href="#m39d956fb89" y="501.738984"/>
      </g>
     </g>
     <g id="text_3">
      <!-- 2020-05-01 -->
      <g transform="translate(646.349868 555.068713)rotate(-30)scale(0.13 -0.13)">
       <use xlink:href="#DejaVuSans-50"/>
       <use x="63.623047" xlink:href="#DejaVuSans-48"/>
       <use x="127.246094" xlink:href="#DejaVuSans-50"/>
       <use x="190.869141" xlink:href="#DejaVuSans-48"/>
       <use x="254.492188" xlink:href="#DejaVuSans-45"/>
       <use x="290.576172" xlink:href="#DejaVuSans-48"/>
       <use x="354.199219" xlink:href="#DejaVuSans-53"/>
       <use x="417.822266" xlink:href="#DejaVuSans-45"/>
       <use x="453.90625" xlink:href="#DejaVuSans-48"/>
       <use x="517.529297" xlink:href="#DejaVuSans-49"/>
      </g>
     </g>
    </g>
    <g id="xtick_4">
     <g id="line2d_4">
      <g>
       <use style="stroke:#000000;stroke-width:0.8;" x="928.336767" xlink:href="#m39d956fb89" y="501.738984"/>
      </g>
     </g>
     <g id="text_4">
      <!-- 2020-05-15 -->
      <g transform="translate(861.55648 555.068713)rotate(-30)scale(0.13 -0.13)">
       <use xlink:href="#DejaVuSans-50"/>
       <use x="63.623047" xlink:href="#DejaVuSans-48"/>
       <use x="127.246094" xlink:href="#DejaVuSans-50"/>
       <use x="190.869141" xlink:href="#DejaVuSans-48"/>
       <use x="254.492188" xlink:href="#DejaVuSans-45"/>
       <use x="290.576172" xlink:href="#DejaVuSans-48"/>
       <use x="354.199219" xlink:href="#DejaVuSans-53"/>
       <use x="417.822266" xlink:href="#DejaVuSans-45"/>
       <use x="453.90625" xlink:href="#DejaVuSans-49"/>
       <use x="517.529297" xlink:href="#DejaVuSans-53"/>
      </g>
     </g>
    </g>
   </g>
   <g id="matplotlib.axis_2">
    <g id="ytick_1">
     <g id="line2d_5">
      <path clip-path="url(#pf090b941d0)" d="M 62.89875 486.734466 
L 1178.89875 486.734466 
" style="fill:none;stroke:#b0b0b0;stroke-linecap:square;stroke-width:0.8;"/>
     </g>
     <g id="line2d_6">
      <defs>
       <path d="M 0 0 
L -3.5 0 
" id="m07ee65f1aa" style="stroke:#000000;stroke-width:0.8;"/>
      </defs>
      <g>
       <use style="stroke:#000000;stroke-width:0.8;" x="62.89875" xlink:href="#m07ee65f1aa" y="486.734466"/>
      </g>
     </g>
     <g id="text_5">
      <!-- 0 -->
      <g transform="translate(47.6275 491.67345)scale(0.13 -0.13)">
       <use xlink:href="#DejaVuSans-48"/>
      </g>
     </g>
    </g>
    <g id="ytick_2">
     <g id="line2d_7">
      <path clip-path="url(#pf090b941d0)" d="M 62.89875 450.227121 
L 1178.89875 450.227121 
" style="fill:none;stroke:#b0b0b0;stroke-linecap:square;stroke-width:0.8;"/>
     </g>
     <g id="line2d_8">
      <g>
       <use style="stroke:#000000;stroke-width:0.8;" x="62.89875" xlink:href="#m07ee65f1aa" y="450.227121"/>
      </g>
     </g>
     <g id="text_6">
      <!-- 100 -->
      <g transform="translate(31.085 455.166105)scale(0.13 -0.13)">
       <use xlink:href="#DejaVuSans-49"/>
       <use x="63.623047" xlink:href="#DejaVuSans-48"/>
       <use x="127.246094" xlink:href="#DejaVuSans-48"/>
      </g>
     </g>
    </g>
    <g id="ytick_3">
     <g id="line2d_9">
      <path clip-path="url(#pf090b941d0)" d="M 62.89875 413.719776 
L 1178.89875 413.719776 
" style="fill:none;stroke:#b0b0b0;stroke-linecap:square;stroke-width:0.8;"/>
     </g>
     <g id="line2d_10">
      <g>
       <use style="stroke:#000000;stroke-width:0.8;" x="62.89875" xlink:href="#m07ee65f1aa" y="413.719776"/>
      </g>
     </g>
     <g id="text_7">
      <!-- 200 -->
      <g transform="translate(31.085 418.658761)scale(0.13 -0.13)">
       <use xlink:href="#DejaVuSans-50"/>
       <use x="63.623047" xlink:href="#DejaVuSans-48"/>
       <use x="127.246094" xlink:href="#DejaVuSans-48"/>
      </g>
     </g>
    </g>
    <g id="ytick_4">
     <g id="line2d_11">
      <path clip-path="url(#pf090b941d0)" d="M 62.89875 377.212432 
L 1178.89875 377.212432 
" style="fill:none;stroke:#b0b0b0;stroke-linecap:square;stroke-width:0.8;"/>
     </g>
     <g id="line2d_12">
      <g>
       <use style="stroke:#000000;stroke-width:0.8;" x="62.89875" xlink:href="#m07ee65f1aa" y="377.212432"/>
      </g>
     </g>
     <g id="text_8">
      <!-- 300 -->
      <defs>
       <path d="M 40.578125 39.3125 
Q 47.65625 37.796875 51.625 33 
Q 55.609375 28.21875 55.609375 21.1875 
Q 55.609375 10.40625 48.1875 4.484375 
Q 40.765625 -1.421875 27.09375 -1.421875 
Q 22.515625 -1.421875 17.65625 -0.515625 
Q 12.796875 0.390625 7.625 2.203125 
L 7.625 11.71875 
Q 11.71875 9.328125 16.59375 8.109375 
Q 21.484375 6.890625 26.8125 6.890625 
Q 36.078125 6.890625 40.9375 10.546875 
Q 45.796875 14.203125 45.796875 21.1875 
Q 45.796875 27.640625 41.28125 31.265625 
Q 36.765625 34.90625 28.71875 34.90625 
L 20.21875 34.90625 
L 20.21875 43.015625 
L 29.109375 43.015625 
Q 36.375 43.015625 40.234375 45.921875 
Q 44.09375 48.828125 44.09375 54.296875 
Q 44.09375 59.90625 40.109375 62.90625 
Q 36.140625 65.921875 28.71875 65.921875 
Q 24.65625 65.921875 20.015625 65.03125 
Q 15.375 64.15625 9.8125 62.3125 
L 9.8125 71.09375 
Q 15.4375 72.65625 20.34375 73.4375 
Q 25.25 74.21875 29.59375 74.21875 
Q 40.828125 74.21875 47.359375 69.109375 
Q 53.90625 64.015625 53.90625 55.328125 
Q 53.90625 49.265625 50.4375 45.09375 
Q 46.96875 40.921875 40.578125 39.3125 
z
" id="DejaVuSans-51"/>
      </defs>
      <g transform="translate(31.085 382.151416)scale(0.13 -0.13)">
       <use xlink:href="#DejaVuSans-51"/>
       <use x="63.623047" xlink:href="#DejaVuSans-48"/>
       <use x="127.246094" xlink:href="#DejaVuSans-48"/>
      </g>
     </g>
    </g>
    <g id="ytick_5">
     <g id="line2d_13">
      <path clip-path="url(#pf090b941d0)" d="M 62.89875 340.705087 
L 1178.89875 340.705087 
" style="fill:none;stroke:#b0b0b0;stroke-linecap:square;stroke-width:0.8;"/>
     </g>
     <g id="line2d_14">
      <g>
       <use style="stroke:#000000;stroke-width:0.8;" x="62.89875" xlink:href="#m07ee65f1aa" y="340.705087"/>
      </g>
     </g>
     <g id="text_9">
      <!-- 400 -->
      <g transform="translate(31.085 345.644071)scale(0.13 -0.13)">
       <use xlink:href="#DejaVuSans-52"/>
       <use x="63.623047" xlink:href="#DejaVuSans-48"/>
       <use x="127.246094" xlink:href="#DejaVuSans-48"/>
      </g>
     </g>
    </g>
    <g id="ytick_6">
     <g id="line2d_15">
      <path clip-path="url(#pf090b941d0)" d="M 62.89875 304.197742 
L 1178.89875 304.197742 
" style="fill:none;stroke:#b0b0b0;stroke-linecap:square;stroke-width:0.8;"/>
     </g>
     <g id="line2d_16">
      <g>
       <use style="stroke:#000000;stroke-width:0.8;" x="62.89875" xlink:href="#m07ee65f1aa" y="304.197742"/>
      </g>
     </g>
     <g id="text_10">
      <!-- 500 -->
      <g transform="translate(31.085 309.136726)scale(0.13 -0.13)">
       <use xlink:href="#DejaVuSans-53"/>
       <use x="63.623047" xlink:href="#DejaVuSans-48"/>
       <use x="127.246094" xlink:href="#DejaVuSans-48"/>
      </g>
     </g>
    </g>
    <g id="ytick_7">
     <g id="line2d_17">
      <path clip-path="url(#pf090b941d0)" d="M 62.89875 267.690397 
L 1178.89875 267.690397 
" style="fill:none;stroke:#b0b0b0;stroke-linecap:square;stroke-width:0.8;"/>
     </g>
     <g id="line2d_18">
      <g>
       <use style="stroke:#000000;stroke-width:0.8;" x="62.89875" xlink:href="#m07ee65f1aa" y="267.690397"/>
      </g>
     </g>
     <g id="text_11">
      <!-- 600 -->
      <defs>
       <path d="M 33.015625 40.375 
Q 26.375 40.375 22.484375 35.828125 
Q 18.609375 31.296875 18.609375 23.390625 
Q 18.609375 15.53125 22.484375 10.953125 
Q 26.375 6.390625 33.015625 6.390625 
Q 39.65625 6.390625 43.53125 10.953125 
Q 47.40625 15.53125 47.40625 23.390625 
Q 47.40625 31.296875 43.53125 35.828125 
Q 39.65625 40.375 33.015625 40.375 
z
M 52.59375 71.296875 
L 52.59375 62.3125 
Q 48.875 64.0625 45.09375 64.984375 
Q 41.3125 65.921875 37.59375 65.921875 
Q 27.828125 65.921875 22.671875 59.328125 
Q 17.53125 52.734375 16.796875 39.40625 
Q 19.671875 43.65625 24.015625 45.921875 
Q 28.375 48.1875 33.59375 48.1875 
Q 44.578125 48.1875 50.953125 41.515625 
Q 57.328125 34.859375 57.328125 23.390625 
Q 57.328125 12.15625 50.6875 5.359375 
Q 44.046875 -1.421875 33.015625 -1.421875 
Q 20.359375 -1.421875 13.671875 8.265625 
Q 6.984375 17.96875 6.984375 36.375 
Q 6.984375 53.65625 15.1875 63.9375 
Q 23.390625 74.21875 37.203125 74.21875 
Q 40.921875 74.21875 44.703125 73.484375 
Q 48.484375 72.75 52.59375 71.296875 
z
" id="DejaVuSans-54"/>
      </defs>
      <g transform="translate(31.085 272.629382)scale(0.13 -0.13)">
       <use xlink:href="#DejaVuSans-54"/>
       <use x="63.623047" xlink:href="#DejaVuSans-48"/>
       <use x="127.246094" xlink:href="#DejaVuSans-48"/>
      </g>
     </g>
    </g>
    <g id="ytick_8">
     <g id="line2d_19">
      <path clip-path="url(#pf090b941d0)" d="M 62.89875 231.183053 
L 1178.89875 231.183053 
" style="fill:none;stroke:#b0b0b0;stroke-linecap:square;stroke-width:0.8;"/>
     </g>
     <g id="line2d_20">
      <g>
       <use style="stroke:#000000;stroke-width:0.8;" x="62.89875" xlink:href="#m07ee65f1aa" y="231.183053"/>
      </g>
     </g>
     <g id="text_12">
      <!-- 700 -->
      <defs>
       <path d="M 8.203125 72.90625 
L 55.078125 72.90625 
L 55.078125 68.703125 
L 28.609375 0 
L 18.3125 0 
L 43.21875 64.59375 
L 8.203125 64.59375 
z
" id="DejaVuSans-55"/>
      </defs>
      <g transform="translate(31.085 236.122037)scale(0.13 -0.13)">
       <use xlink:href="#DejaVuSans-55"/>
       <use x="63.623047" xlink:href="#DejaVuSans-48"/>
       <use x="127.246094" xlink:href="#DejaVuSans-48"/>
      </g>
     </g>
    </g>
    <g id="ytick_9">
     <g id="line2d_21">
      <path clip-path="url(#pf090b941d0)" d="M 62.89875 194.675708 
L 1178.89875 194.675708 
" style="fill:none;stroke:#b0b0b0;stroke-linecap:square;stroke-width:0.8;"/>
     </g>
     <g id="line2d_22">
      <g>
       <use style="stroke:#000000;stroke-width:0.8;" x="62.89875" xlink:href="#m07ee65f1aa" y="194.675708"/>
      </g>
     </g>
     <g id="text_13">
      <!-- 800 -->
      <defs>
       <path d="M 31.78125 34.625 
Q 24.75 34.625 20.71875 30.859375 
Q 16.703125 27.09375 16.703125 20.515625 
Q 16.703125 13.921875 20.71875 10.15625 
Q 24.75 6.390625 31.78125 6.390625 
Q 38.8125 6.390625 42.859375 10.171875 
Q 46.921875 13.96875 46.921875 20.515625 
Q 46.921875 27.09375 42.890625 30.859375 
Q 38.875 34.625 31.78125 34.625 
z
M 21.921875 38.8125 
Q 15.578125 40.375 12.03125 44.71875 
Q 8.5 49.078125 8.5 55.328125 
Q 8.5 64.0625 14.71875 69.140625 
Q 20.953125 74.21875 31.78125 74.21875 
Q 42.671875 74.21875 48.875 69.140625 
Q 55.078125 64.0625 55.078125 55.328125 
Q 55.078125 49.078125 51.53125 44.71875 
Q 48 40.375 41.703125 38.8125 
Q 48.828125 37.15625 52.796875 32.3125 
Q 56.78125 27.484375 56.78125 20.515625 
Q 56.78125 9.90625 50.3125 4.234375 
Q 43.84375 -1.421875 31.78125 -1.421875 
Q 19.734375 -1.421875 13.25 4.234375 
Q 6.78125 9.90625 6.78125 20.515625 
Q 6.78125 27.484375 10.78125 32.3125 
Q 14.796875 37.15625 21.921875 38.8125 
z
M 18.3125 54.390625 
Q 18.3125 48.734375 21.84375 45.5625 
Q 25.390625 42.390625 31.78125 42.390625 
Q 38.140625 42.390625 41.71875 45.5625 
Q 45.3125 48.734375 45.3125 54.390625 
Q 45.3125 60.0625 41.71875 63.234375 
Q 38.140625 66.40625 31.78125 66.40625 
Q 25.390625 66.40625 21.84375 63.234375 
Q 18.3125 60.0625 18.3125 54.390625 
z
" id="DejaVuSans-56"/>
      </defs>
      <g transform="translate(31.085 199.614692)scale(0.13 -0.13)">
       <use xlink:href="#DejaVuSans-56"/>
       <use x="63.623047" xlink:href="#DejaVuSans-48"/>
       <use x="127.246094" xlink:href="#DejaVuSans-48"/>
      </g>
     </g>
    </g>
    <g id="ytick_10">
     <g id="line2d_23">
      <path clip-path="url(#pf090b941d0)" d="M 62.89875 158.168363 
L 1178.89875 158.168363 
" style="fill:none;stroke:#b0b0b0;stroke-linecap:square;stroke-width:0.8;"/>
     </g>
     <g id="line2d_24">
      <g>
       <use style="stroke:#000000;stroke-width:0.8;" x="62.89875" xlink:href="#m07ee65f1aa" y="158.168363"/>
      </g>
     </g>
     <g id="text_14">
      <!-- 900 -->
      <defs>
       <path d="M 10.984375 1.515625 
L 10.984375 10.5 
Q 14.703125 8.734375 18.5 7.8125 
Q 22.3125 6.890625 25.984375 6.890625 
Q 35.75 6.890625 40.890625 13.453125 
Q 46.046875 20.015625 46.78125 33.40625 
Q 43.953125 29.203125 39.59375 26.953125 
Q 35.25 24.703125 29.984375 24.703125 
Q 19.046875 24.703125 12.671875 31.3125 
Q 6.296875 37.9375 6.296875 49.421875 
Q 6.296875 60.640625 12.9375 67.421875 
Q 19.578125 74.21875 30.609375 74.21875 
Q 43.265625 74.21875 49.921875 64.515625 
Q 56.59375 54.828125 56.59375 36.375 
Q 56.59375 19.140625 48.40625 8.859375 
Q 40.234375 -1.421875 26.421875 -1.421875 
Q 22.703125 -1.421875 18.890625 -0.6875 
Q 15.09375 0.046875 10.984375 1.515625 
z
M 30.609375 32.421875 
Q 37.25 32.421875 41.125 36.953125 
Q 45.015625 41.5 45.015625 49.421875 
Q 45.015625 57.28125 41.125 61.84375 
Q 37.25 66.40625 30.609375 66.40625 
Q 23.96875 66.40625 20.09375 61.84375 
Q 16.21875 57.28125 16.21875 49.421875 
Q 16.21875 41.5 20.09375 36.953125 
Q 23.96875 32.421875 30.609375 32.421875 
z
" id="DejaVuSans-57"/>
      </defs>
      <g transform="translate(31.085 163.107348)scale(0.13 -0.13)">
       <use xlink:href="#DejaVuSans-57"/>
       <use x="63.623047" xlink:href="#DejaVuSans-48"/>
       <use x="127.246094" xlink:href="#DejaVuSans-48"/>
      </g>
     </g>
    </g>
    <g id="ytick_11">
     <g id="line2d_25">
      <path clip-path="url(#pf090b941d0)" d="M 62.89875 121.661019 
L 1178.89875 121.661019 
" style="fill:none;stroke:#b0b0b0;stroke-linecap:square;stroke-width:0.8;"/>
     </g>
     <g id="line2d_26">
      <g>
       <use style="stroke:#000000;stroke-width:0.8;" x="62.89875" xlink:href="#m07ee65f1aa" y="121.661019"/>
      </g>
     </g>
     <g id="text_15">
      <!-- 1000 -->
      <g transform="translate(22.81375 126.600003)scale(0.13 -0.13)">
       <use xlink:href="#DejaVuSans-49"/>
       <use x="63.623047" xlink:href="#DejaVuSans-48"/>
       <use x="127.246094" xlink:href="#DejaVuSans-48"/>
       <use x="190.869141" xlink:href="#DejaVuSans-48"/>
      </g>
     </g>
    </g>
    <g id="ytick_12">
     <g id="line2d_27">
      <path clip-path="url(#pf090b941d0)" d="M 62.89875 85.153674 
L 1178.89875 85.153674 
" style="fill:none;stroke:#b0b0b0;stroke-linecap:square;stroke-width:0.8;"/>
     </g>
     <g id="line2d_28">
      <g>
       <use style="stroke:#000000;stroke-width:0.8;" x="62.89875" xlink:href="#m07ee65f1aa" y="85.153674"/>
      </g>
     </g>
     <g id="text_16">
      <!-- 1100 -->
      <g transform="translate(22.81375 90.092658)scale(0.13 -0.13)">
       <use xlink:href="#DejaVuSans-49"/>
       <use x="63.623047" xlink:href="#DejaVuSans-49"/>
       <use x="127.246094" xlink:href="#DejaVuSans-48"/>
       <use x="190.869141" xlink:href="#DejaVuSans-48"/>
      </g>
     </g>
    </g>
    <g id="ytick_13">
     <g id="line2d_29">
      <path clip-path="url(#pf090b941d0)" d="M 62.89875 48.646329 
L 1178.89875 48.646329 
" style="fill:none;stroke:#b0b0b0;stroke-linecap:square;stroke-width:0.8;"/>
     </g>
     <g id="line2d_30">
      <g>
       <use style="stroke:#000000;stroke-width:0.8;" x="62.89875" xlink:href="#m07ee65f1aa" y="48.646329"/>
      </g>
     </g>
     <g id="text_17">
      <!-- 1200 -->
      <g transform="translate(22.81375 53.585313)scale(0.13 -0.13)">
       <use xlink:href="#DejaVuSans-49"/>
       <use x="63.623047" xlink:href="#DejaVuSans-50"/>
       <use x="127.246094" xlink:href="#DejaVuSans-48"/>
       <use x="190.869141" xlink:href="#DejaVuSans-48"/>
      </g>
     </g>
    </g>
    <g id="ytick_14">
     <g id="line2d_31">
      <path clip-path="url(#pf090b941d0)" d="M 62.89875 12.138984 
L 1178.89875 12.138984 
" style="fill:none;stroke:#b0b0b0;stroke-linecap:square;stroke-width:0.8;"/>
     </g>
     <g id="line2d_32">
      <g>
       <use style="stroke:#000000;stroke-width:0.8;" x="62.89875" xlink:href="#m07ee65f1aa" y="12.138984"/>
      </g>
     </g>
     <g id="text_18">
      <!-- 1300 -->
      <g transform="translate(22.81375 17.077969)scale(0.13 -0.13)">
       <use xlink:href="#DejaVuSans-49"/>
       <use x="63.623047" xlink:href="#DejaVuSans-51"/>
       <use x="127.246094" xlink:href="#DejaVuSans-48"/>
       <use x="190.869141" xlink:href="#DejaVuSans-48"/>
      </g>
     </g>
    </g>
    <g id="text_19">
     <!-- Anzahl von Fällen -->
     <defs>
      <path d="M 34.1875 63.1875 
L 20.796875 26.90625 
L 47.609375 26.90625 
z
M 28.609375 72.90625 
L 39.796875 72.90625 
L 67.578125 0 
L 57.328125 0 
L 50.6875 18.703125 
L 17.828125 18.703125 
L 11.1875 0 
L 0.78125 0 
z
" id="DejaVuSans-65"/>
      <path d="M 54.890625 33.015625 
L 54.890625 0 
L 45.90625 0 
L 45.90625 32.71875 
Q 45.90625 40.484375 42.875 44.328125 
Q 39.84375 48.1875 33.796875 48.1875 
Q 26.515625 48.1875 22.3125 43.546875 
Q 18.109375 38.921875 18.109375 30.90625 
L 18.109375 0 
L 9.078125 0 
L 9.078125 54.6875 
L 18.109375 54.6875 
L 18.109375 46.1875 
Q 21.34375 51.125 25.703125 53.5625 
Q 30.078125 56 35.796875 56 
Q 45.21875 56 50.046875 50.171875 
Q 54.890625 44.34375 54.890625 33.015625 
z
" id="DejaVuSans-110"/>
      <path d="M 5.515625 54.6875 
L 48.1875 54.6875 
L 48.1875 46.484375 
L 14.40625 7.171875 
L 48.1875 7.171875 
L 48.1875 0 
L 4.296875 0 
L 4.296875 8.203125 
L 38.09375 47.515625 
L 5.515625 47.515625 
z
" id="DejaVuSans-122"/>
      <path d="M 34.28125 27.484375 
Q 23.390625 27.484375 19.1875 25 
Q 14.984375 22.515625 14.984375 16.5 
Q 14.984375 11.71875 18.140625 8.90625 
Q 21.296875 6.109375 26.703125 6.109375 
Q 34.1875 6.109375 38.703125 11.40625 
Q 43.21875 16.703125 43.21875 25.484375 
L 43.21875 27.484375 
z
M 52.203125 31.203125 
L 52.203125 0 
L 43.21875 0 
L 43.21875 8.296875 
Q 40.140625 3.328125 35.546875 0.953125 
Q 30.953125 -1.421875 24.3125 -1.421875 
Q 15.921875 -1.421875 10.953125 3.296875 
Q 6 8.015625 6 15.921875 
Q 6 25.140625 12.171875 29.828125 
Q 18.359375 34.515625 30.609375 34.515625 
L 43.21875 34.515625 
L 43.21875 35.40625 
Q 43.21875 41.609375 39.140625 45 
Q 35.0625 48.390625 27.6875 48.390625 
Q 23 48.390625 18.546875 47.265625 
Q 14.109375 46.140625 10.015625 43.890625 
L 10.015625 52.203125 
Q 14.9375 54.109375 19.578125 55.046875 
Q 24.21875 56 28.609375 56 
Q 40.484375 56 46.34375 49.84375 
Q 52.203125 43.703125 52.203125 31.203125 
z
" id="DejaVuSans-97"/>
      <path d="M 54.890625 33.015625 
L 54.890625 0 
L 45.90625 0 
L 45.90625 32.71875 
Q 45.90625 40.484375 42.875 44.328125 
Q 39.84375 48.1875 33.796875 48.1875 
Q 26.515625 48.1875 22.3125 43.546875 
Q 18.109375 38.921875 18.109375 30.90625 
L 18.109375 0 
L 9.078125 0 
L 9.078125 75.984375 
L 18.109375 75.984375 
L 18.109375 46.1875 
Q 21.34375 51.125 25.703125 53.5625 
Q 30.078125 56 35.796875 56 
Q 45.21875 56 50.046875 50.171875 
Q 54.890625 44.34375 54.890625 33.015625 
z
" id="DejaVuSans-104"/>
      <path d="M 9.421875 75.984375 
L 18.40625 75.984375 
L 18.40625 0 
L 9.421875 0 
z
" id="DejaVuSans-108"/>
      <path id="DejaVuSans-32"/>
      <path d="M 2.984375 54.6875 
L 12.5 54.6875 
L 29.59375 8.796875 
L 46.6875 54.6875 
L 56.203125 54.6875 
L 35.6875 0 
L 23.484375 0 
z
" id="DejaVuSans-118"/>
      <path d="M 30.609375 48.390625 
Q 23.390625 48.390625 19.1875 42.75 
Q 14.984375 37.109375 14.984375 27.296875 
Q 14.984375 17.484375 19.15625 11.84375 
Q 23.34375 6.203125 30.609375 6.203125 
Q 37.796875 6.203125 41.984375 11.859375 
Q 46.1875 17.53125 46.1875 27.296875 
Q 46.1875 37.015625 41.984375 42.703125 
Q 37.796875 48.390625 30.609375 48.390625 
z
M 30.609375 56 
Q 42.328125 56 49.015625 48.375 
Q 55.71875 40.765625 55.71875 27.296875 
Q 55.71875 13.875 49.015625 6.21875 
Q 42.328125 -1.421875 30.609375 -1.421875 
Q 18.84375 -1.421875 12.171875 6.21875 
Q 5.515625 13.875 5.515625 27.296875 
Q 5.515625 40.765625 12.171875 48.375 
Q 18.84375 56 30.609375 56 
z
" id="DejaVuSans-111"/>
      <path d="M 9.8125 72.90625 
L 51.703125 72.90625 
L 51.703125 64.59375 
L 19.671875 64.59375 
L 19.671875 43.109375 
L 48.578125 43.109375 
L 48.578125 34.8125 
L 19.671875 34.8125 
L 19.671875 0 
L 9.8125 0 
z
" id="DejaVuSans-70"/>
      <path d="M 34.28125 27.484375 
Q 23.390625 27.484375 19.1875 25 
Q 14.984375 22.515625 14.984375 16.5 
Q 14.984375 11.71875 18.140625 8.90625 
Q 21.296875 6.109375 26.703125 6.109375 
Q 34.1875 6.109375 38.703125 11.40625 
Q 43.21875 16.703125 43.21875 25.484375 
L 43.21875 27.484375 
z
M 52.203125 31.203125 
L 52.203125 0 
L 43.21875 0 
L 43.21875 8.296875 
Q 40.140625 3.328125 35.546875 0.953125 
Q 30.953125 -1.421875 24.3125 -1.421875 
Q 15.921875 -1.421875 10.953125 3.296875 
Q 6 8.015625 6 15.921875 
Q 6 25.140625 12.171875 29.828125 
Q 18.359375 34.515625 30.609375 34.515625 
L 43.21875 34.515625 
L 43.21875 35.40625 
Q 43.21875 41.609375 39.140625 45 
Q 35.0625 48.390625 27.6875 48.390625 
Q 23 48.390625 18.546875 47.265625 
Q 14.109375 46.140625 10.015625 43.890625 
L 10.015625 52.203125 
Q 14.9375 54.109375 19.578125 55.046875 
Q 24.21875 56 28.609375 56 
Q 40.484375 56 46.34375 49.84375 
Q 52.203125 43.703125 52.203125 31.203125 
z
M 33.59375 75.78125 
L 43.5 75.78125 
L 43.5 65.921875 
L 33.59375 65.921875 
z
M 14.5 75.78125 
L 24.40625 75.78125 
L 24.40625 65.921875 
L 14.5 65.921875 
z
" id="DejaVuSans-228"/>
      <path d="M 56.203125 29.59375 
L 56.203125 25.203125 
L 14.890625 25.203125 
Q 15.484375 15.921875 20.484375 11.0625 
Q 25.484375 6.203125 34.421875 6.203125 
Q 39.59375 6.203125 44.453125 7.46875 
Q 49.3125 8.734375 54.109375 11.28125 
L 54.109375 2.78125 
Q 49.265625 0.734375 44.1875 -0.34375 
Q 39.109375 -1.421875 33.890625 -1.421875 
Q 20.796875 -1.421875 13.15625 6.1875 
Q 5.515625 13.8125 5.515625 26.8125 
Q 5.515625 40.234375 12.765625 48.109375 
Q 20.015625 56 32.328125 56 
Q 43.359375 56 49.78125 48.890625 
Q 56.203125 41.796875 56.203125 29.59375 
z
M 47.21875 32.234375 
Q 47.125 39.59375 43.09375 43.984375 
Q 39.0625 48.390625 32.421875 48.390625 
Q 24.90625 48.390625 20.390625 44.140625 
Q 15.875 39.890625 15.1875 32.171875 
z
" id="DejaVuSans-101"/>
     </defs>
     <g transform="translate(16.318125 309.388359)rotate(-90)scale(0.12 -0.12)">
      <use xlink:href="#DejaVuSans-65"/>
      <use x="68.408203" xlink:href="#DejaVuSans-110"/>
      <use x="131.787109" xlink:href="#DejaVuSans-122"/>
      <use x="184.277344" xlink:href="#DejaVuSans-97"/>
      <use x="245.556641" xlink:href="#DejaVuSans-104"/>
      <use x="308.935547" xlink:href="#DejaVuSans-108"/>
      <use x="336.71875" xlink:href="#DejaVuSans-32"/>
      <use x="368.505859" xlink:href="#DejaVuSans-118"/>
      <use x="427.685547" xlink:href="#DejaVuSans-111"/>
      <use x="488.867188" xlink:href="#DejaVuSans-110"/>
      <use x="552.246094" xlink:href="#DejaVuSans-32"/>
      <use x="584.033203" xlink:href="#DejaVuSans-70"/>
      <use x="632.427734" xlink:href="#DejaVuSans-228"/>
      <use x="693.707031" xlink:href="#DejaVuSans-108"/>
      <use x="721.490234" xlink:href="#DejaVuSans-108"/>
      <use x="749.273438" xlink:href="#DejaVuSans-101"/>
      <use x="810.796875" xlink:href="#DejaVuSans-110"/>
     </g>
    </g>
   </g>
   <g id="line2d_33">
    <path clip-path="url(#pf090b941d0)" d="M 113.626023 480.528217 
L 128.997924 478.70285 
L 144.369824 475.052115 
L 159.741725 468.845867 
L 175.113626 463.004692 
L 190.485527 458.988884 
L 205.857428 458.258737 
L 221.229329 452.782635 
L 236.601229 443.655799 
L 251.97313 437.814624 
L 267.345031 430.148081 
L 282.716932 416.640364 
L 298.088833 402.037426 
L 313.460733 398.386691 
L 328.832634 390.355076 
L 344.204535 377.942578 
L 359.576436 365.530081 
L 374.948337 359.688906 
L 390.320238 346.911335 
L 421.064039 346.911335 
L 451.807841 332.308398 
L 467.179742 321.356194 
L 482.551643 314.419799 
L 497.923543 304.197742 
L 513.295444 296.896273 
L 544.039246 285.213923 
L 559.411147 277.182307 
L 574.783048 270.245912 
L 590.154948 263.309516 
L 605.526849 254.912827 
L 620.89875 245.420917 
L 651.642552 233.00842 
L 667.014452 233.00842 
L 682.386353 218.040409 
L 697.758254 211.469087 
L 728.502056 187.739312 
L 759.245857 175.326815 
L 774.617758 166.930126 
L 789.989659 160.358804 
L 805.36156 156.342996 
L 820.733461 150.501821 
L 836.105362 145.025719 
L 866.849163 141.009911 
L 882.221064 132.978295 
L 897.592965 128.597414 
L 912.964866 122.026092 
L 928.336767 117.645211 
L 943.708667 114.35955 
L 974.452469 109.248521 
L 989.82437 106.327934 
L 1005.196271 98.661391 
L 1035.940072 93.18529 
L 1051.311973 86.248894 
L 1082.055775 75.296691 
L 1097.427676 69.090442 
L 1128.171477 56.312871 
" style="fill:none;stroke:#dbcd00;stroke-linecap:square;stroke-width:2;"/>
    <defs>
     <path d="M 0 1.5 
C 0.397805 1.5 0.77937 1.341951 1.06066 1.06066 
C 1.341951 0.77937 1.5 0.397805 1.5 0 
C 1.5 -0.397805 1.341951 -0.77937 1.06066 -1.06066 
C 0.77937 -1.341951 0.397805 -1.5 0 -1.5 
C -0.397805 -1.5 -0.77937 -1.341951 -1.06066 -1.06066 
C -1.341951 -0.77937 -1.5 -0.397805 -1.5 0 
C -1.5 0.397805 -1.341951 0.77937 -1.06066 1.06066 
C -0.77937 1.341951 -0.397805 1.5 0 1.5 
z
" id="m95b094e619" style="stroke:#dbcd00;"/>
    </defs>
    <g clip-path="url(#pf090b941d0)">
     <use style="fill:#dbcd00;stroke:#dbcd00;" x="113.626023" xlink:href="#m95b094e619" y="480.528217"/>
     <use style="fill:#dbcd00;stroke:#dbcd00;" x="128.997924" xlink:href="#m95b094e619" y="478.70285"/>
     <use style="fill:#dbcd00;stroke:#dbcd00;" x="144.369824" xlink:href="#m95b094e619" y="475.052115"/>
     <use style="fill:#dbcd00;stroke:#dbcd00;" x="159.741725" xlink:href="#m95b094e619" y="468.845867"/>
     <use style="fill:#dbcd00;stroke:#dbcd00;" x="175.113626" xlink:href="#m95b094e619" y="463.004692"/>
     <use style="fill:#dbcd00;stroke:#dbcd00;" x="190.485527" xlink:href="#m95b094e619" y="458.988884"/>
     <use style="fill:#dbcd00;stroke:#dbcd00;" x="205.857428" xlink:href="#m95b094e619" y="458.258737"/>
     <use style="fill:#dbcd00;stroke:#dbcd00;" x="221.229329" xlink:href="#m95b094e619" y="452.782635"/>
     <use style="fill:#dbcd00;stroke:#dbcd00;" x="236.601229" xlink:href="#m95b094e619" y="443.655799"/>
     <use style="fill:#dbcd00;stroke:#dbcd00;" x="251.97313" xlink:href="#m95b094e619" y="437.814624"/>
     <use style="fill:#dbcd00;stroke:#dbcd00;" x="267.345031" xlink:href="#m95b094e619" y="430.148081"/>
     <use style="fill:#dbcd00;stroke:#dbcd00;" x="282.716932" xlink:href="#m95b094e619" y="416.640364"/>
     <use style="fill:#dbcd00;stroke:#dbcd00;" x="298.088833" xlink:href="#m95b094e619" y="402.037426"/>
     <use style="fill:#dbcd00;stroke:#dbcd00;" x="313.460733" xlink:href="#m95b094e619" y="398.386691"/>
     <use style="fill:#dbcd00;stroke:#dbcd00;" x="328.832634" xlink:href="#m95b094e619" y="390.355076"/>
     <use style="fill:#dbcd00;stroke:#dbcd00;" x="344.204535" xlink:href="#m95b094e619" y="377.942578"/>
     <use style="fill:#dbcd00;stroke:#dbcd00;" x="359.576436" xlink:href="#m95b094e619" y="365.530081"/>
     <use style="fill:#dbcd00;stroke:#dbcd00;" x="374.948337" xlink:href="#m95b094e619" y="359.688906"/>
     <use style="fill:#dbcd00;stroke:#dbcd00;" x="390.320238" xlink:href="#m95b094e619" y="346.911335"/>
     <use style="fill:#dbcd00;stroke:#dbcd00;" x="421.064039" xlink:href="#m95b094e619" y="346.911335"/>
     <use style="fill:#dbcd00;stroke:#dbcd00;" x="451.807841" xlink:href="#m95b094e619" y="332.308398"/>
     <use style="fill:#dbcd00;stroke:#dbcd00;" x="467.179742" xlink:href="#m95b094e619" y="321.356194"/>
     <use style="fill:#dbcd00;stroke:#dbcd00;" x="482.551643" xlink:href="#m95b094e619" y="314.419799"/>
     <use style="fill:#dbcd00;stroke:#dbcd00;" x="497.923543" xlink:href="#m95b094e619" y="304.197742"/>
     <use style="fill:#dbcd00;stroke:#dbcd00;" x="513.295444" xlink:href="#m95b094e619" y="296.896273"/>
     <use style="fill:#dbcd00;stroke:#dbcd00;" x="544.039246" xlink:href="#m95b094e619" y="285.213923"/>
     <use style="fill:#dbcd00;stroke:#dbcd00;" x="559.411147" xlink:href="#m95b094e619" y="277.182307"/>
     <use style="fill:#dbcd00;stroke:#dbcd00;" x="574.783048" xlink:href="#m95b094e619" y="270.245912"/>
     <use style="fill:#dbcd00;stroke:#dbcd00;" x="590.154948" xlink:href="#m95b094e619" y="263.309516"/>
     <use style="fill:#dbcd00;stroke:#dbcd00;" x="605.526849" xlink:href="#m95b094e619" y="254.912827"/>
     <use style="fill:#dbcd00;stroke:#dbcd00;" x="620.89875" xlink:href="#m95b094e619" y="245.420917"/>
     <use style="fill:#dbcd00;stroke:#dbcd00;" x="651.642552" xlink:href="#m95b094e619" y="233.00842"/>
     <use style="fill:#dbcd00;stroke:#dbcd00;" x="667.014452" xlink:href="#m95b094e619" y="233.00842"/>
     <use style="fill:#dbcd00;stroke:#dbcd00;" x="682.386353" xlink:href="#m95b094e619" y="218.040409"/>
     <use style="fill:#dbcd00;stroke:#dbcd00;" x="697.758254" xlink:href="#m95b094e619" y="211.469087"/>
     <use style="fill:#dbcd00;stroke:#dbcd00;" x="728.502056" xlink:href="#m95b094e619" y="187.739312"/>
     <use style="fill:#dbcd00;stroke:#dbcd00;" x="759.245857" xlink:href="#m95b094e619" y="175.326815"/>
     <use style="fill:#dbcd00;stroke:#dbcd00;" x="774.617758" xlink:href="#m95b094e619" y="166.930126"/>
     <use style="fill:#dbcd00;stroke:#dbcd00;" x="789.989659" xlink:href="#m95b094e619" y="160.358804"/>
     <use style="fill:#dbcd00;stroke:#dbcd00;" x="805.36156" xlink:href="#m95b094e619" y="156.342996"/>
     <use style="fill:#dbcd00;stroke:#dbcd00;" x="820.733461" xlink:href="#m95b094e619" y="150.501821"/>
     <use style="fill:#dbcd00;stroke:#dbcd00;" x="836.105362" xlink:href="#m95b094e619" y="145.025719"/>
     <use style="fill:#dbcd00;stroke:#dbcd00;" x="866.849163" xlink:href="#m95b094e619" y="141.009911"/>
     <use style="fill:#dbcd00;stroke:#dbcd00;" x="882.221064" xlink:href="#m95b094e619" y="132.978295"/>
     <use style="fill:#dbcd00;stroke:#dbcd00;" x="897.592965" xlink:href="#m95b094e619" y="128.597414"/>
     <use style="fill:#dbcd00;stroke:#dbcd00;" x="912.964866" xlink:href="#m95b094e619" y="122.026092"/>
     <use style="fill:#dbcd00;stroke:#dbcd00;" x="928.336767" xlink:href="#m95b094e619" y="117.645211"/>
     <use style="fill:#dbcd00;stroke:#dbcd00;" x="943.708667" xlink:href="#m95b094e619" y="114.35955"/>
     <use style="fill:#dbcd00;stroke:#dbcd00;" x="974.452469" xlink:href="#m95b094e619" y="109.248521"/>
     <use style="fill:#dbcd00;stroke:#dbcd00;" x="989.82437" xlink:href="#m95b094e619" y="106.327934"/>
     <use style="fill:#dbcd00;stroke:#dbcd00;" x="1005.196271" xlink:href="#m95b094e619" y="98.661391"/>
     <use style="fill:#dbcd00;stroke:#dbcd00;" x="1035.940072" xlink:href="#m95b094e619" y="93.18529"/>
     <use style="fill:#dbcd00;stroke:#dbcd00;" x="1051.311973" xlink:href="#m95b094e619" y="86.248894"/>
     <use style="fill:#dbcd00;stroke:#dbcd00;" x="1082.055775" xlink:href="#m95b094e619" y="75.296691"/>
     <use style="fill:#dbcd00;stroke:#dbcd00;" x="1097.427676" xlink:href="#m95b094e619" y="69.090442"/>
     <use style="fill:#dbcd00;stroke:#dbcd00;" x="1128.171477" xlink:href="#m95b094e619" y="56.312871"/>
    </g>
   </g>
   <g id="line2d_34">
    <path clip-path="url(#pf090b941d0)" d="M 113.626023 433.798816 
L 128.997924 423.576759 
L 144.369824 417.370511 
L 159.741725 408.243675 
L 175.113626 399.481912 
L 190.485527 400.577132 
L 205.857428 395.831177 
L 221.229329 390.720149 
L 236.601229 389.624929 
L 251.97313 383.783754 
L 267.345031 374.656917 
L 282.716932 378.307652 
L 298.088833 378.672725 
L 313.460733 379.037799 
L 328.832634 384.5139 
L 344.204535 384.5139 
L 359.576436 386.704341 
L 374.948337 374.656917 
L 390.320238 384.148827 
L 421.064039 384.148827 
L 451.807841 382.32346 
L 467.179742 388.529708 
L 482.551643 379.402872 
L 497.923543 381.958386 
L 513.295444 376.117211 
L 544.039246 394.735957 
L 559.411147 384.5139 
L 574.783048 377.577505 
L 590.154948 376.117211 
L 605.526849 377.942578 
L 620.89875 378.672725 
L 651.642552 382.32346 
L 667.014452 381.228239 
L 682.386353 389.990002 
L 697.758254 395.466104 
L 728.502056 407.513528 
L 759.245857 408.608748 
L 774.617758 408.608748 
L 789.989659 413.719776 
L 805.36156 414.449923 
L 820.733461 415.545143 
L 836.105362 415.910217 
L 866.849163 410.799189 
L 882.221064 418.100658 
L 897.592965 417.735584 
L 912.964866 421.386319 
L 928.336767 418.830805 
L 943.708667 419.195878 
L 974.452469 421.386319 
L 989.82437 423.576759 
L 1005.196271 431.243302 
L 1035.940072 434.894036 
L 1051.311973 440.735211 
L 1082.055775 451.322341 
L 1097.427676 457.52859 
L 1128.171477 468.480793 
" style="fill:none;stroke:#2792cb;stroke-linecap:square;stroke-width:2;"/>
    <defs>
     <path d="M 0 1.5 
C 0.397805 1.5 0.77937 1.341951 1.06066 1.06066 
C 1.341951 0.77937 1.5 0.397805 1.5 0 
C 1.5 -0.397805 1.341951 -0.77937 1.06066 -1.06066 
C 0.77937 -1.341951 0.397805 -1.5 0 -1.5 
C -0.397805 -1.5 -0.77937 -1.341951 -1.06066 -1.06066 
C -1.341951 -0.77937 -1.5 -0.397805 -1.5 0 
C -1.5 0.397805 -1.341951 0.77937 -1.06066 1.06066 
C -0.77937 1.341951 -0.397805 1.5 0 1.5 
z
" id="m7a7d789ca8" style="stroke:#2792cb;"/>
    </defs>
    <g clip-path="url(#pf090b941d0)">
     <use style="fill:#2792cb;stroke:#2792cb;" x="113.626023" xlink:href="#m7a7d789ca8" y="433.798816"/>
     <use style="fill:#2792cb;stroke:#2792cb;" x="128.997924" xlink:href="#m7a7d789ca8" y="423.576759"/>
     <use style="fill:#2792cb;stroke:#2792cb;" x="144.369824" xlink:href="#m7a7d789ca8" y="417.370511"/>
     <use style="fill:#2792cb;stroke:#2792cb;" x="159.741725" xlink:href="#m7a7d789ca8" y="408.243675"/>
     <use style="fill:#2792cb;stroke:#2792cb;" x="175.113626" xlink:href="#m7a7d789ca8" y="399.481912"/>
     <use style="fill:#2792cb;stroke:#2792cb;" x="190.485527" xlink:href="#m7a7d789ca8" y="400.577132"/>
     <use style="fill:#2792cb;stroke:#2792cb;" x="205.857428" xlink:href="#m7a7d789ca8" y="395.831177"/>
     <use style="fill:#2792cb;stroke:#2792cb;" x="221.229329" xlink:href="#m7a7d789ca8" y="390.720149"/>
     <use style="fill:#2792cb;stroke:#2792cb;" x="236.601229" xlink:href="#m7a7d789ca8" y="389.624929"/>
     <use style="fill:#2792cb;stroke:#2792cb;" x="251.97313" xlink:href="#m7a7d789ca8" y="383.783754"/>
     <use style="fill:#2792cb;stroke:#2792cb;" x="267.345031" xlink:href="#m7a7d789ca8" y="374.656917"/>
     <use style="fill:#2792cb;stroke:#2792cb;" x="282.716932" xlink:href="#m7a7d789ca8" y="378.307652"/>
     <use style="fill:#2792cb;stroke:#2792cb;" x="298.088833" xlink:href="#m7a7d789ca8" y="378.672725"/>
     <use style="fill:#2792cb;stroke:#2792cb;" x="313.460733" xlink:href="#m7a7d789ca8" y="379.037799"/>
     <use style="fill:#2792cb;stroke:#2792cb;" x="328.832634" xlink:href="#m7a7d789ca8" y="384.5139"/>
     <use style="fill:#2792cb;stroke:#2792cb;" x="344.204535" xlink:href="#m7a7d789ca8" y="384.5139"/>
     <use style="fill:#2792cb;stroke:#2792cb;" x="359.576436" xlink:href="#m7a7d789ca8" y="386.704341"/>
     <use style="fill:#2792cb;stroke:#2792cb;" x="374.948337" xlink:href="#m7a7d789ca8" y="374.656917"/>
     <use style="fill:#2792cb;stroke:#2792cb;" x="390.320238" xlink:href="#m7a7d789ca8" y="384.148827"/>
     <use style="fill:#2792cb;stroke:#2792cb;" x="421.064039" xlink:href="#m7a7d789ca8" y="384.148827"/>
     <use style="fill:#2792cb;stroke:#2792cb;" x="451.807841" xlink:href="#m7a7d789ca8" y="382.32346"/>
     <use style="fill:#2792cb;stroke:#2792cb;" x="467.179742" xlink:href="#m7a7d789ca8" y="388.529708"/>
     <use style="fill:#2792cb;stroke:#2792cb;" x="482.551643" xlink:href="#m7a7d789ca8" y="379.402872"/>
     <use style="fill:#2792cb;stroke:#2792cb;" x="497.923543" xlink:href="#m7a7d789ca8" y="381.958386"/>
     <use style="fill:#2792cb;stroke:#2792cb;" x="513.295444" xlink:href="#m7a7d789ca8" y="376.117211"/>
     <use style="fill:#2792cb;stroke:#2792cb;" x="544.039246" xlink:href="#m7a7d789ca8" y="394.735957"/>
     <use style="fill:#2792cb;stroke:#2792cb;" x="559.411147" xlink:href="#m7a7d789ca8" y="384.5139"/>
     <use style="fill:#2792cb;stroke:#2792cb;" x="574.783048" xlink:href="#m7a7d789ca8" y="377.577505"/>
     <use style="fill:#2792cb;stroke:#2792cb;" x="590.154948" xlink:href="#m7a7d789ca8" y="376.117211"/>
     <use style="fill:#2792cb;stroke:#2792cb;" x="605.526849" xlink:href="#m7a7d789ca8" y="377.942578"/>
     <use style="fill:#2792cb;stroke:#2792cb;" x="620.89875" xlink:href="#m7a7d789ca8" y="378.672725"/>
     <use style="fill:#2792cb;stroke:#2792cb;" x="651.642552" xlink:href="#m7a7d789ca8" y="382.32346"/>
     <use style="fill:#2792cb;stroke:#2792cb;" x="667.014452" xlink:href="#m7a7d789ca8" y="381.228239"/>
     <use style="fill:#2792cb;stroke:#2792cb;" x="682.386353" xlink:href="#m7a7d789ca8" y="389.990002"/>
     <use style="fill:#2792cb;stroke:#2792cb;" x="697.758254" xlink:href="#m7a7d789ca8" y="395.466104"/>
     <use style="fill:#2792cb;stroke:#2792cb;" x="728.502056" xlink:href="#m7a7d789ca8" y="407.513528"/>
     <use style="fill:#2792cb;stroke:#2792cb;" x="759.245857" xlink:href="#m7a7d789ca8" y="408.608748"/>
     <use style="fill:#2792cb;stroke:#2792cb;" x="774.617758" xlink:href="#m7a7d789ca8" y="408.608748"/>
     <use style="fill:#2792cb;stroke:#2792cb;" x="789.989659" xlink:href="#m7a7d789ca8" y="413.719776"/>
     <use style="fill:#2792cb;stroke:#2792cb;" x="805.36156" xlink:href="#m7a7d789ca8" y="414.449923"/>
     <use style="fill:#2792cb;stroke:#2792cb;" x="820.733461" xlink:href="#m7a7d789ca8" y="415.545143"/>
     <use style="fill:#2792cb;stroke:#2792cb;" x="836.105362" xlink:href="#m7a7d789ca8" y="415.910217"/>
     <use style="fill:#2792cb;stroke:#2792cb;" x="866.849163" xlink:href="#m7a7d789ca8" y="410.799189"/>
     <use style="fill:#2792cb;stroke:#2792cb;" x="882.221064" xlink:href="#m7a7d789ca8" y="418.100658"/>
     <use style="fill:#2792cb;stroke:#2792cb;" x="897.592965" xlink:href="#m7a7d789ca8" y="417.735584"/>
     <use style="fill:#2792cb;stroke:#2792cb;" x="912.964866" xlink:href="#m7a7d789ca8" y="421.386319"/>
     <use style="fill:#2792cb;stroke:#2792cb;" x="928.336767" xlink:href="#m7a7d789ca8" y="418.830805"/>
     <use style="fill:#2792cb;stroke:#2792cb;" x="943.708667" xlink:href="#m7a7d789ca8" y="419.195878"/>
     <use style="fill:#2792cb;stroke:#2792cb;" x="974.452469" xlink:href="#m7a7d789ca8" y="421.386319"/>
     <use style="fill:#2792cb;stroke:#2792cb;" x="989.82437" xlink:href="#m7a7d789ca8" y="423.576759"/>
     <use style="fill:#2792cb;stroke:#2792cb;" x="1005.196271" xlink:href="#m7a7d789ca8" y="431.243302"/>
     <use style="fill:#2792cb;stroke:#2792cb;" x="1035.940072" xlink:href="#m7a7d789ca8" y="434.894036"/>
     <use style="fill:#2792cb;stroke:#2792cb;" x="1051.311973" xlink:href="#m7a7d789ca8" y="440.735211"/>
     <use style="fill:#2792cb;stroke:#2792cb;" x="1082.055775" xlink:href="#m7a7d789ca8" y="451.322341"/>
     <use style="fill:#2792cb;stroke:#2792cb;" x="1097.427676" xlink:href="#m7a7d789ca8" y="457.52859"/>
     <use style="fill:#2792cb;stroke:#2792cb;" x="1128.171477" xlink:href="#m7a7d789ca8" y="468.480793"/>
    </g>
   </g>
   <g id="patch_3">
    <path d="M 62.89875 501.738984 
L 1178.89875 501.738984 
" style="fill:none;stroke:#000000;stroke-linecap:square;stroke-linejoin:miter;stroke-width:0.8;"/>
   </g>
   <g id="legend_1">
    <g id="line2d_35">
     <path d="M 1091.653438 25.237422 
L 1111.653438 25.237422 
" style="fill:none;stroke:#dbcd00;stroke-linecap:square;stroke-width:2;"/>
    </g>
    <g id="line2d_36">
     <g>
      <use style="fill:#dbcd00;stroke:#dbcd00;" x="1101.653438" xlink:href="#m95b094e619" y="25.237422"/>
     </g>
    </g>
    <g id="text_20">
     <!-- Genesene -->
     <defs>
      <path d="M 59.515625 10.40625 
L 59.515625 29.984375 
L 43.40625 29.984375 
L 43.40625 38.09375 
L 69.28125 38.09375 
L 69.28125 6.78125 
Q 63.578125 2.734375 56.6875 0.65625 
Q 49.8125 -1.421875 42 -1.421875 
Q 24.90625 -1.421875 15.25 8.5625 
Q 5.609375 18.5625 5.609375 36.375 
Q 5.609375 54.25 15.25 64.234375 
Q 24.90625 74.21875 42 74.21875 
Q 49.125 74.21875 55.546875 72.453125 
Q 61.96875 70.703125 67.390625 67.28125 
L 67.390625 56.78125 
Q 61.921875 61.421875 55.765625 63.765625 
Q 49.609375 66.109375 42.828125 66.109375 
Q 29.4375 66.109375 22.71875 58.640625 
Q 16.015625 51.171875 16.015625 36.375 
Q 16.015625 21.625 22.71875 14.15625 
Q 29.4375 6.6875 42.828125 6.6875 
Q 48.046875 6.6875 52.140625 7.59375 
Q 56.25 8.5 59.515625 10.40625 
z
" id="DejaVuSans-71"/>
      <path d="M 44.28125 53.078125 
L 44.28125 44.578125 
Q 40.484375 46.53125 36.375 47.5 
Q 32.28125 48.484375 27.875 48.484375 
Q 21.1875 48.484375 17.84375 46.4375 
Q 14.5 44.390625 14.5 40.28125 
Q 14.5 37.15625 16.890625 35.375 
Q 19.28125 33.59375 26.515625 31.984375 
L 29.59375 31.296875 
Q 39.15625 29.25 43.1875 25.515625 
Q 47.21875 21.78125 47.21875 15.09375 
Q 47.21875 7.46875 41.1875 3.015625 
Q 35.15625 -1.421875 24.609375 -1.421875 
Q 20.21875 -1.421875 15.453125 -0.5625 
Q 10.6875 0.296875 5.421875 2 
L 5.421875 11.28125 
Q 10.40625 8.6875 15.234375 7.390625 
Q 20.0625 6.109375 24.8125 6.109375 
Q 31.15625 6.109375 34.5625 8.28125 
Q 37.984375 10.453125 37.984375 14.40625 
Q 37.984375 18.0625 35.515625 20.015625 
Q 33.0625 21.96875 24.703125 23.78125 
L 21.578125 24.515625 
Q 13.234375 26.265625 9.515625 29.90625 
Q 5.8125 33.546875 5.8125 39.890625 
Q 5.8125 47.609375 11.28125 51.796875 
Q 16.75 56 26.8125 56 
Q 31.78125 56 36.171875 55.265625 
Q 40.578125 54.546875 44.28125 53.078125 
z
" id="DejaVuSans-115"/>
     </defs>
     <g transform="translate(1119.653438 28.737422)scale(0.1 -0.1)">
      <use xlink:href="#DejaVuSans-71"/>
      <use x="77.490234" xlink:href="#DejaVuSans-101"/>
      <use x="139.013672" xlink:href="#DejaVuSans-110"/>
      <use x="202.392578" xlink:href="#DejaVuSans-101"/>
      <use x="263.916016" xlink:href="#DejaVuSans-115"/>
      <use x="316.015625" xlink:href="#DejaVuSans-101"/>
      <use x="377.539062" xlink:href="#DejaVuSans-110"/>
      <use x="440.917969" xlink:href="#DejaVuSans-101"/>
     </g>
    </g>
    <g id="line2d_37">
     <path d="M 1091.653438 39.915547 
L 1111.653438 39.915547 
" style="fill:none;stroke:#2792cb;stroke-linecap:square;stroke-width:2;"/>
    </g>
    <g id="line2d_38">
     <g>
      <use style="fill:#2792cb;stroke:#2792cb;" x="1101.653438" xlink:href="#m7a7d789ca8" y="39.915547"/>
     </g>
    </g>
    <g id="text_21">
     <!-- Erkrankte -->
     <defs>
      <path d="M 9.8125 72.90625 
L 55.90625 72.90625 
L 55.90625 64.59375 
L 19.671875 64.59375 
L 19.671875 43.015625 
L 54.390625 43.015625 
L 54.390625 34.71875 
L 19.671875 34.71875 
L 19.671875 8.296875 
L 56.78125 8.296875 
L 56.78125 0 
L 9.8125 0 
z
" id="DejaVuSans-69"/>
      <path d="M 41.109375 46.296875 
Q 39.59375 47.171875 37.8125 47.578125 
Q 36.03125 48 33.890625 48 
Q 26.265625 48 22.1875 43.046875 
Q 18.109375 38.09375 18.109375 28.8125 
L 18.109375 0 
L 9.078125 0 
L 9.078125 54.6875 
L 18.109375 54.6875 
L 18.109375 46.1875 
Q 20.953125 51.171875 25.484375 53.578125 
Q 30.03125 56 36.53125 56 
Q 37.453125 56 38.578125 55.875 
Q 39.703125 55.765625 41.0625 55.515625 
z
" id="DejaVuSans-114"/>
      <path d="M 9.078125 75.984375 
L 18.109375 75.984375 
L 18.109375 31.109375 
L 44.921875 54.6875 
L 56.390625 54.6875 
L 27.390625 29.109375 
L 57.625 0 
L 45.90625 0 
L 18.109375 26.703125 
L 18.109375 0 
L 9.078125 0 
z
" id="DejaVuSans-107"/>
      <path d="M 18.3125 70.21875 
L 18.3125 54.6875 
L 36.8125 54.6875 
L 36.8125 47.703125 
L 18.3125 47.703125 
L 18.3125 18.015625 
Q 18.3125 11.328125 20.140625 9.421875 
Q 21.96875 7.515625 27.59375 7.515625 
L 36.8125 7.515625 
L 36.8125 0 
L 27.59375 0 
Q 17.1875 0 13.234375 3.875 
Q 9.28125 7.765625 9.28125 18.015625 
L 9.28125 47.703125 
L 2.6875 47.703125 
L 2.6875 54.6875 
L 9.28125 54.6875 
L 9.28125 70.21875 
z
" id="DejaVuSans-116"/>
     </defs>
     <g transform="translate(1119.653438 43.415547)scale(0.1 -0.1)">
      <use xlink:href="#DejaVuSans-69"/>
      <use x="63.183594" xlink:href="#DejaVuSans-114"/>
      <use x="104.296875" xlink:href="#DejaVuSans-107"/>
      <use x="162.207031" xlink:href="#DejaVuSans-114"/>
      <use x="203.320312" xlink:href="#DejaVuSans-97"/>
      <use x="264.599609" xlink:href="#DejaVuSans-110"/>
      <use x="327.978516" xlink:href="#DejaVuSans-107"/>
      <use x="385.888672" xlink:href="#DejaVuSans-116"/>
      <use x="425.097656" xlink:href="#DejaVuSans-101"/>
     </g>
    </g>
   </g>
  </g>
 </g>
 <defs>
  <clipPath id="pf090b941d0">
   <rect height="489.6" width="1116" x="62.89875" y="12.138984"/>
  </clipPath>
 </defs>
</svg>
