<?xml version="1.0" encoding="utf-8" standalone="no"?>
<!DOCTYPE svg PUBLIC "-//W3C//DTD SVG 1.1//EN"
  "http://www.w3.org/Graphics/SVG/1.1/DTD/svg11.dtd">
<!-- Created with matplotlib (https://matplotlib.org/) -->
<svg height="553.993765pt" version="1.1" viewBox="0 0 1186.09875 553.993765" width="1186.09875pt" xmlns="http://www.w3.org/2000/svg" xmlns:xlink="http://www.w3.org/1999/xlink">
 <defs>
  <style type="text/css">
*{stroke-linecap:butt;stroke-linejoin:round;}
  </style>
 </defs>
 <g id="figure_1">
  <g id="patch_1">
   <path d="M 0 553.993765 
L 1186.09875 553.993765 
L 1186.09875 0 
L 0 0 
z
" style="fill:#ffffff;"/>
  </g>
  <g id="axes_1">
   <g id="patch_2">
    <path d="M 62.89875 501.738984 
L 1178.89875 501.738984 
L 1178.89875 12.138984 
L 62.89875 12.138984 
z
" style="fill:#ffffff;"/>
   </g>
   <g id="matplotlib.axis_1">
    <g id="xtick_1">
     <g id="line2d_1">
      <defs>
       <path d="M 0 0 
L 0 3.5 
" id="mf6d6c5e5b7" style="stroke:#000000;stroke-width:0.8;"/>
      </defs>
      <g>
       <use style="stroke:#000000;stroke-width:0.8;" x="167.655071" xlink:href="#mf6d6c5e5b7" y="501.738984"/>
      </g>
     </g>
     <g id="text_1">
      <!-- 2020-04 -->
      <defs>
       <path d="M 19.1875 8.296875 
L 53.609375 8.296875 
L 53.609375 0 
L 7.328125 0 
L 7.328125 8.296875 
Q 12.9375 14.109375 22.625 23.890625 
Q 32.328125 33.6875 34.8125 36.53125 
Q 39.546875 41.84375 41.421875 45.53125 
Q 43.3125 49.21875 43.3125 52.78125 
Q 43.3125 58.59375 39.234375 62.25 
Q 35.15625 65.921875 28.609375 65.921875 
Q 23.96875 65.921875 18.8125 64.3125 
Q 13.671875 62.703125 7.8125 59.421875 
L 7.8125 69.390625 
Q 13.765625 71.78125 18.9375 73 
Q 24.125 74.21875 28.421875 74.21875 
Q 39.75 74.21875 46.484375 68.546875 
Q 53.21875 62.890625 53.21875 53.421875 
Q 53.21875 48.921875 51.53125 44.890625 
Q 49.859375 40.875 45.40625 35.40625 
Q 44.1875 33.984375 37.640625 27.21875 
Q 31.109375 20.453125 19.1875 8.296875 
z
" id="DejaVuSans-50"/>
       <path d="M 31.78125 66.40625 
Q 24.171875 66.40625 20.328125 58.90625 
Q 16.5 51.421875 16.5 36.375 
Q 16.5 21.390625 20.328125 13.890625 
Q 24.171875 6.390625 31.78125 6.390625 
Q 39.453125 6.390625 43.28125 13.890625 
Q 47.125 21.390625 47.125 36.375 
Q 47.125 51.421875 43.28125 58.90625 
Q 39.453125 66.40625 31.78125 66.40625 
z
M 31.78125 74.21875 
Q 44.046875 74.21875 50.515625 64.515625 
Q 56.984375 54.828125 56.984375 36.375 
Q 56.984375 17.96875 50.515625 8.265625 
Q 44.046875 -1.421875 31.78125 -1.421875 
Q 19.53125 -1.421875 13.0625 8.265625 
Q 6.59375 17.96875 6.59375 36.375 
Q 6.59375 54.828125 13.0625 64.515625 
Q 19.53125 74.21875 31.78125 74.21875 
z
" id="DejaVuSans-48"/>
       <path d="M 4.890625 31.390625 
L 31.203125 31.390625 
L 31.203125 23.390625 
L 4.890625 23.390625 
z
" id="DejaVuSans-45"/>
       <path d="M 37.796875 64.3125 
L 12.890625 25.390625 
L 37.796875 25.390625 
z
M 35.203125 72.90625 
L 47.609375 72.90625 
L 47.609375 25.390625 
L 58.015625 25.390625 
L 58.015625 17.1875 
L 47.609375 17.1875 
L 47.609375 0 
L 37.796875 0 
L 37.796875 17.1875 
L 4.890625 17.1875 
L 4.890625 26.703125 
z
" id="DejaVuSans-52"/>
      </defs>
      <g transform="translate(119.262804 544.452384)rotate(-30)scale(0.13 -0.13)">
       <use xlink:href="#DejaVuSans-50"/>
       <use x="63.623047" xlink:href="#DejaVuSans-48"/>
       <use x="127.246094" xlink:href="#DejaVuSans-50"/>
       <use x="190.869141" xlink:href="#DejaVuSans-48"/>
       <use x="254.492188" xlink:href="#DejaVuSans-45"/>
       <use x="290.576172" xlink:href="#DejaVuSans-48"/>
       <use x="354.199219" xlink:href="#DejaVuSans-52"/>
      </g>
     </g>
    </g>
    <g id="xtick_2">
     <g id="line2d_2">
      <g>
       <use style="stroke:#000000;stroke-width:0.8;" x="347.751897" xlink:href="#mf6d6c5e5b7" y="501.738984"/>
      </g>
     </g>
     <g id="text_2">
      <!-- 2020-05 -->
      <defs>
       <path d="M 10.796875 72.90625 
L 49.515625 72.90625 
L 49.515625 64.59375 
L 19.828125 64.59375 
L 19.828125 46.734375 
Q 21.96875 47.46875 24.109375 47.828125 
Q 26.265625 48.1875 28.421875 48.1875 
Q 40.625 48.1875 47.75 41.5 
Q 54.890625 34.8125 54.890625 23.390625 
Q 54.890625 11.625 47.5625 5.09375 
Q 40.234375 -1.421875 26.90625 -1.421875 
Q 22.3125 -1.421875 17.546875 -0.640625 
Q 12.796875 0.140625 7.71875 1.703125 
L 7.71875 11.625 
Q 12.109375 9.234375 16.796875 8.0625 
Q 21.484375 6.890625 26.703125 6.890625 
Q 35.15625 6.890625 40.078125 11.328125 
Q 45.015625 15.765625 45.015625 23.390625 
Q 45.015625 31 40.078125 35.4375 
Q 35.15625 39.890625 26.703125 39.890625 
Q 22.75 39.890625 18.8125 39.015625 
Q 14.890625 38.140625 10.796875 36.28125 
z
" id="DejaVuSans-53"/>
      </defs>
      <g transform="translate(299.35963 544.452384)rotate(-30)scale(0.13 -0.13)">
       <use xlink:href="#DejaVuSans-50"/>
       <use x="63.623047" xlink:href="#DejaVuSans-48"/>
       <use x="127.246094" xlink:href="#DejaVuSans-50"/>
       <use x="190.869141" xlink:href="#DejaVuSans-48"/>
       <use x="254.492188" xlink:href="#DejaVuSans-45"/>
       <use x="290.576172" xlink:href="#DejaVuSans-48"/>
       <use x="354.199219" xlink:href="#DejaVuSans-53"/>
      </g>
     </g>
    </g>
    <g id="xtick_3">
     <g id="line2d_3">
      <g>
       <use style="stroke:#000000;stroke-width:0.8;" x="533.851951" xlink:href="#mf6d6c5e5b7" y="501.738984"/>
      </g>
     </g>
     <g id="text_3">
      <!-- 2020-06 -->
      <defs>
       <path d="M 33.015625 40.375 
Q 26.375 40.375 22.484375 35.828125 
Q 18.609375 31.296875 18.609375 23.390625 
Q 18.609375 15.53125 22.484375 10.953125 
Q 26.375 6.390625 33.015625 6.390625 
Q 39.65625 6.390625 43.53125 10.953125 
Q 47.40625 15.53125 47.40625 23.390625 
Q 47.40625 31.296875 43.53125 35.828125 
Q 39.65625 40.375 33.015625 40.375 
z
M 52.59375 71.296875 
L 52.59375 62.3125 
Q 48.875 64.0625 45.09375 64.984375 
Q 41.3125 65.921875 37.59375 65.921875 
Q 27.828125 65.921875 22.671875 59.328125 
Q 17.53125 52.734375 16.796875 39.40625 
Q 19.671875 43.65625 24.015625 45.921875 
Q 28.375 48.1875 33.59375 48.1875 
Q 44.578125 48.1875 50.953125 41.515625 
Q 57.328125 34.859375 57.328125 23.390625 
Q 57.328125 12.15625 50.6875 5.359375 
Q 44.046875 -1.421875 33.015625 -1.421875 
Q 20.359375 -1.421875 13.671875 8.265625 
Q 6.984375 17.96875 6.984375 36.375 
Q 6.984375 53.65625 15.1875 63.9375 
Q 23.390625 74.21875 37.203125 74.21875 
Q 40.921875 74.21875 44.703125 73.484375 
Q 48.484375 72.75 52.59375 71.296875 
z
" id="DejaVuSans-54"/>
      </defs>
      <g transform="translate(485.459684 544.452384)rotate(-30)scale(0.13 -0.13)">
       <use xlink:href="#DejaVuSans-50"/>
       <use x="63.623047" xlink:href="#DejaVuSans-48"/>
       <use x="127.246094" xlink:href="#DejaVuSans-50"/>
       <use x="190.869141" xlink:href="#DejaVuSans-48"/>
       <use x="254.492188" xlink:href="#DejaVuSans-45"/>
       <use x="290.576172" xlink:href="#DejaVuSans-48"/>
       <use x="354.199219" xlink:href="#DejaVuSans-54"/>
      </g>
     </g>
    </g>
    <g id="xtick_4">
     <g id="line2d_4">
      <g>
       <use style="stroke:#000000;stroke-width:0.8;" x="713.948777" xlink:href="#mf6d6c5e5b7" y="501.738984"/>
      </g>
     </g>
     <g id="text_4">
      <!-- 2020-07 -->
      <defs>
       <path d="M 8.203125 72.90625 
L 55.078125 72.90625 
L 55.078125 68.703125 
L 28.609375 0 
L 18.3125 0 
L 43.21875 64.59375 
L 8.203125 64.59375 
z
" id="DejaVuSans-55"/>
      </defs>
      <g transform="translate(665.55651 544.452384)rotate(-30)scale(0.13 -0.13)">
       <use xlink:href="#DejaVuSans-50"/>
       <use x="63.623047" xlink:href="#DejaVuSans-48"/>
       <use x="127.246094" xlink:href="#DejaVuSans-50"/>
       <use x="190.869141" xlink:href="#DejaVuSans-48"/>
       <use x="254.492188" xlink:href="#DejaVuSans-45"/>
       <use x="290.576172" xlink:href="#DejaVuSans-48"/>
       <use x="354.199219" xlink:href="#DejaVuSans-55"/>
      </g>
     </g>
    </g>
    <g id="xtick_5">
     <g id="line2d_5">
      <g>
       <use style="stroke:#000000;stroke-width:0.8;" x="900.048831" xlink:href="#mf6d6c5e5b7" y="501.738984"/>
      </g>
     </g>
     <g id="text_5">
      <!-- 2020-08 -->
      <defs>
       <path d="M 31.78125 34.625 
Q 24.75 34.625 20.71875 30.859375 
Q 16.703125 27.09375 16.703125 20.515625 
Q 16.703125 13.921875 20.71875 10.15625 
Q 24.75 6.390625 31.78125 6.390625 
Q 38.8125 6.390625 42.859375 10.171875 
Q 46.921875 13.96875 46.921875 20.515625 
Q 46.921875 27.09375 42.890625 30.859375 
Q 38.875 34.625 31.78125 34.625 
z
M 21.921875 38.8125 
Q 15.578125 40.375 12.03125 44.71875 
Q 8.5 49.078125 8.5 55.328125 
Q 8.5 64.0625 14.71875 69.140625 
Q 20.953125 74.21875 31.78125 74.21875 
Q 42.671875 74.21875 48.875 69.140625 
Q 55.078125 64.0625 55.078125 55.328125 
Q 55.078125 49.078125 51.53125 44.71875 
Q 48 40.375 41.703125 38.8125 
Q 48.828125 37.15625 52.796875 32.3125 
Q 56.78125 27.484375 56.78125 20.515625 
Q 56.78125 9.90625 50.3125 4.234375 
Q 43.84375 -1.421875 31.78125 -1.421875 
Q 19.734375 -1.421875 13.25 4.234375 
Q 6.78125 9.90625 6.78125 20.515625 
Q 6.78125 27.484375 10.78125 32.3125 
Q 14.796875 37.15625 21.921875 38.8125 
z
M 18.3125 54.390625 
Q 18.3125 48.734375 21.84375 45.5625 
Q 25.390625 42.390625 31.78125 42.390625 
Q 38.140625 42.390625 41.71875 45.5625 
Q 45.3125 48.734375 45.3125 54.390625 
Q 45.3125 60.0625 41.71875 63.234375 
Q 38.140625 66.40625 31.78125 66.40625 
Q 25.390625 66.40625 21.84375 63.234375 
Q 18.3125 60.0625 18.3125 54.390625 
z
" id="DejaVuSans-56"/>
      </defs>
      <g transform="translate(851.656564 544.452384)rotate(-30)scale(0.13 -0.13)">
       <use xlink:href="#DejaVuSans-50"/>
       <use x="63.623047" xlink:href="#DejaVuSans-48"/>
       <use x="127.246094" xlink:href="#DejaVuSans-50"/>
       <use x="190.869141" xlink:href="#DejaVuSans-48"/>
       <use x="254.492188" xlink:href="#DejaVuSans-45"/>
       <use x="290.576172" xlink:href="#DejaVuSans-48"/>
       <use x="354.199219" xlink:href="#DejaVuSans-56"/>
      </g>
     </g>
    </g>
    <g id="xtick_6">
     <g id="line2d_6">
      <g>
       <use style="stroke:#000000;stroke-width:0.8;" x="1086.148884" xlink:href="#mf6d6c5e5b7" y="501.738984"/>
      </g>
     </g>
     <g id="text_6">
      <!-- 2020-09 -->
      <defs>
       <path d="M 10.984375 1.515625 
L 10.984375 10.5 
Q 14.703125 8.734375 18.5 7.8125 
Q 22.3125 6.890625 25.984375 6.890625 
Q 35.75 6.890625 40.890625 13.453125 
Q 46.046875 20.015625 46.78125 33.40625 
Q 43.953125 29.203125 39.59375 26.953125 
Q 35.25 24.703125 29.984375 24.703125 
Q 19.046875 24.703125 12.671875 31.3125 
Q 6.296875 37.9375 6.296875 49.421875 
Q 6.296875 60.640625 12.9375 67.421875 
Q 19.578125 74.21875 30.609375 74.21875 
Q 43.265625 74.21875 49.921875 64.515625 
Q 56.59375 54.828125 56.59375 36.375 
Q 56.59375 19.140625 48.40625 8.859375 
Q 40.234375 -1.421875 26.421875 -1.421875 
Q 22.703125 -1.421875 18.890625 -0.6875 
Q 15.09375 0.046875 10.984375 1.515625 
z
M 30.609375 32.421875 
Q 37.25 32.421875 41.125 36.953125 
Q 45.015625 41.5 45.015625 49.421875 
Q 45.015625 57.28125 41.125 61.84375 
Q 37.25 66.40625 30.609375 66.40625 
Q 23.96875 66.40625 20.09375 61.84375 
Q 16.21875 57.28125 16.21875 49.421875 
Q 16.21875 41.5 20.09375 36.953125 
Q 23.96875 32.421875 30.609375 32.421875 
z
" id="DejaVuSans-57"/>
      </defs>
      <g transform="translate(1037.756617 544.452384)rotate(-30)scale(0.13 -0.13)">
       <use xlink:href="#DejaVuSans-50"/>
       <use x="63.623047" xlink:href="#DejaVuSans-48"/>
       <use x="127.246094" xlink:href="#DejaVuSans-50"/>
       <use x="190.869141" xlink:href="#DejaVuSans-48"/>
       <use x="254.492188" xlink:href="#DejaVuSans-45"/>
       <use x="290.576172" xlink:href="#DejaVuSans-48"/>
       <use x="354.199219" xlink:href="#DejaVuSans-57"/>
      </g>
     </g>
    </g>
   </g>
   <g id="matplotlib.axis_2">
    <g id="ytick_1">
     <g id="line2d_7">
      <path clip-path="url(#p3c5126bab6)" d="M 62.89875 482.930849 
L 1178.89875 482.930849 
" style="fill:none;stroke:#b0b0b0;stroke-linecap:square;stroke-width:0.8;"/>
     </g>
     <g id="line2d_8">
      <defs>
       <path d="M 0 0 
L -3.5 0 
" id="m8823852b7a" style="stroke:#000000;stroke-width:0.8;"/>
      </defs>
      <g>
       <use style="stroke:#000000;stroke-width:0.8;" x="62.89875" xlink:href="#m8823852b7a" y="482.930849"/>
      </g>
     </g>
     <g id="text_7">
      <!-- 0 -->
      <g transform="translate(47.6275 487.869834)scale(0.13 -0.13)">
       <use xlink:href="#DejaVuSans-48"/>
      </g>
     </g>
    </g>
    <g id="ytick_2">
     <g id="line2d_9">
      <path clip-path="url(#p3c5126bab6)" d="M 62.89875 435.851663 
L 1178.89875 435.851663 
" style="fill:none;stroke:#b0b0b0;stroke-linecap:square;stroke-width:0.8;"/>
     </g>
     <g id="line2d_10">
      <g>
       <use style="stroke:#000000;stroke-width:0.8;" x="62.89875" xlink:href="#m8823852b7a" y="435.851663"/>
      </g>
     </g>
     <g id="text_8">
      <!-- 100 -->
      <defs>
       <path d="M 12.40625 8.296875 
L 28.515625 8.296875 
L 28.515625 63.921875 
L 10.984375 60.40625 
L 10.984375 69.390625 
L 28.421875 72.90625 
L 38.28125 72.90625 
L 38.28125 8.296875 
L 54.390625 8.296875 
L 54.390625 0 
L 12.40625 0 
z
" id="DejaVuSans-49"/>
      </defs>
      <g transform="translate(31.085 440.790647)scale(0.13 -0.13)">
       <use xlink:href="#DejaVuSans-49"/>
       <use x="63.623047" xlink:href="#DejaVuSans-48"/>
       <use x="127.246094" xlink:href="#DejaVuSans-48"/>
      </g>
     </g>
    </g>
    <g id="ytick_3">
     <g id="line2d_11">
      <path clip-path="url(#p3c5126bab6)" d="M 62.89875 388.772476 
L 1178.89875 388.772476 
" style="fill:none;stroke:#b0b0b0;stroke-linecap:square;stroke-width:0.8;"/>
     </g>
     <g id="line2d_12">
      <g>
       <use style="stroke:#000000;stroke-width:0.8;" x="62.89875" xlink:href="#m8823852b7a" y="388.772476"/>
      </g>
     </g>
     <g id="text_9">
      <!-- 200 -->
      <g transform="translate(31.085 393.711461)scale(0.13 -0.13)">
       <use xlink:href="#DejaVuSans-50"/>
       <use x="63.623047" xlink:href="#DejaVuSans-48"/>
       <use x="127.246094" xlink:href="#DejaVuSans-48"/>
      </g>
     </g>
    </g>
    <g id="ytick_4">
     <g id="line2d_13">
      <path clip-path="url(#p3c5126bab6)" d="M 62.89875 341.69329 
L 1178.89875 341.69329 
" style="fill:none;stroke:#b0b0b0;stroke-linecap:square;stroke-width:0.8;"/>
     </g>
     <g id="line2d_14">
      <g>
       <use style="stroke:#000000;stroke-width:0.8;" x="62.89875" xlink:href="#m8823852b7a" y="341.69329"/>
      </g>
     </g>
     <g id="text_10">
      <!-- 300 -->
      <defs>
       <path d="M 40.578125 39.3125 
Q 47.65625 37.796875 51.625 33 
Q 55.609375 28.21875 55.609375 21.1875 
Q 55.609375 10.40625 48.1875 4.484375 
Q 40.765625 -1.421875 27.09375 -1.421875 
Q 22.515625 -1.421875 17.65625 -0.515625 
Q 12.796875 0.390625 7.625 2.203125 
L 7.625 11.71875 
Q 11.71875 9.328125 16.59375 8.109375 
Q 21.484375 6.890625 26.8125 6.890625 
Q 36.078125 6.890625 40.9375 10.546875 
Q 45.796875 14.203125 45.796875 21.1875 
Q 45.796875 27.640625 41.28125 31.265625 
Q 36.765625 34.90625 28.71875 34.90625 
L 20.21875 34.90625 
L 20.21875 43.015625 
L 29.109375 43.015625 
Q 36.375 43.015625 40.234375 45.921875 
Q 44.09375 48.828125 44.09375 54.296875 
Q 44.09375 59.90625 40.109375 62.90625 
Q 36.140625 65.921875 28.71875 65.921875 
Q 24.65625 65.921875 20.015625 65.03125 
Q 15.375 64.15625 9.8125 62.3125 
L 9.8125 71.09375 
Q 15.4375 72.65625 20.34375 73.4375 
Q 25.25 74.21875 29.59375 74.21875 
Q 40.828125 74.21875 47.359375 69.109375 
Q 53.90625 64.015625 53.90625 55.328125 
Q 53.90625 49.265625 50.4375 45.09375 
Q 46.96875 40.921875 40.578125 39.3125 
z
" id="DejaVuSans-51"/>
      </defs>
      <g transform="translate(31.085 346.632274)scale(0.13 -0.13)">
       <use xlink:href="#DejaVuSans-51"/>
       <use x="63.623047" xlink:href="#DejaVuSans-48"/>
       <use x="127.246094" xlink:href="#DejaVuSans-48"/>
      </g>
     </g>
    </g>
    <g id="ytick_5">
     <g id="line2d_15">
      <path clip-path="url(#p3c5126bab6)" d="M 62.89875 294.614103 
L 1178.89875 294.614103 
" style="fill:none;stroke:#b0b0b0;stroke-linecap:square;stroke-width:0.8;"/>
     </g>
     <g id="line2d_16">
      <g>
       <use style="stroke:#000000;stroke-width:0.8;" x="62.89875" xlink:href="#m8823852b7a" y="294.614103"/>
      </g>
     </g>
     <g id="text_11">
      <!-- 400 -->
      <g transform="translate(31.085 299.553088)scale(0.13 -0.13)">
       <use xlink:href="#DejaVuSans-52"/>
       <use x="63.623047" xlink:href="#DejaVuSans-48"/>
       <use x="127.246094" xlink:href="#DejaVuSans-48"/>
      </g>
     </g>
    </g>
    <g id="ytick_6">
     <g id="line2d_17">
      <path clip-path="url(#p3c5126bab6)" d="M 62.89875 247.534917 
L 1178.89875 247.534917 
" style="fill:none;stroke:#b0b0b0;stroke-linecap:square;stroke-width:0.8;"/>
     </g>
     <g id="line2d_18">
      <g>
       <use style="stroke:#000000;stroke-width:0.8;" x="62.89875" xlink:href="#m8823852b7a" y="247.534917"/>
      </g>
     </g>
     <g id="text_12">
      <!-- 500 -->
      <g transform="translate(31.085 252.473901)scale(0.13 -0.13)">
       <use xlink:href="#DejaVuSans-53"/>
       <use x="63.623047" xlink:href="#DejaVuSans-48"/>
       <use x="127.246094" xlink:href="#DejaVuSans-48"/>
      </g>
     </g>
    </g>
    <g id="ytick_7">
     <g id="line2d_19">
      <path clip-path="url(#p3c5126bab6)" d="M 62.89875 200.45573 
L 1178.89875 200.45573 
" style="fill:none;stroke:#b0b0b0;stroke-linecap:square;stroke-width:0.8;"/>
     </g>
     <g id="line2d_20">
      <g>
       <use style="stroke:#000000;stroke-width:0.8;" x="62.89875" xlink:href="#m8823852b7a" y="200.45573"/>
      </g>
     </g>
     <g id="text_13">
      <!-- 600 -->
      <g transform="translate(31.085 205.394715)scale(0.13 -0.13)">
       <use xlink:href="#DejaVuSans-54"/>
       <use x="63.623047" xlink:href="#DejaVuSans-48"/>
       <use x="127.246094" xlink:href="#DejaVuSans-48"/>
      </g>
     </g>
    </g>
    <g id="ytick_8">
     <g id="line2d_21">
      <path clip-path="url(#p3c5126bab6)" d="M 62.89875 153.376544 
L 1178.89875 153.376544 
" style="fill:none;stroke:#b0b0b0;stroke-linecap:square;stroke-width:0.8;"/>
     </g>
     <g id="line2d_22">
      <g>
       <use style="stroke:#000000;stroke-width:0.8;" x="62.89875" xlink:href="#m8823852b7a" y="153.376544"/>
      </g>
     </g>
     <g id="text_14">
      <!-- 700 -->
      <g transform="translate(31.085 158.315528)scale(0.13 -0.13)">
       <use xlink:href="#DejaVuSans-55"/>
       <use x="63.623047" xlink:href="#DejaVuSans-48"/>
       <use x="127.246094" xlink:href="#DejaVuSans-48"/>
      </g>
     </g>
    </g>
    <g id="ytick_9">
     <g id="line2d_23">
      <path clip-path="url(#p3c5126bab6)" d="M 62.89875 106.297357 
L 1178.89875 106.297357 
" style="fill:none;stroke:#b0b0b0;stroke-linecap:square;stroke-width:0.8;"/>
     </g>
     <g id="line2d_24">
      <g>
       <use style="stroke:#000000;stroke-width:0.8;" x="62.89875" xlink:href="#m8823852b7a" y="106.297357"/>
      </g>
     </g>
     <g id="text_15">
      <!-- 800 -->
      <g transform="translate(31.085 111.236342)scale(0.13 -0.13)">
       <use xlink:href="#DejaVuSans-56"/>
       <use x="63.623047" xlink:href="#DejaVuSans-48"/>
       <use x="127.246094" xlink:href="#DejaVuSans-48"/>
      </g>
     </g>
    </g>
    <g id="ytick_10">
     <g id="line2d_25">
      <path clip-path="url(#p3c5126bab6)" d="M 62.89875 59.218171 
L 1178.89875 59.218171 
" style="fill:none;stroke:#b0b0b0;stroke-linecap:square;stroke-width:0.8;"/>
     </g>
     <g id="line2d_26">
      <g>
       <use style="stroke:#000000;stroke-width:0.8;" x="62.89875" xlink:href="#m8823852b7a" y="59.218171"/>
      </g>
     </g>
     <g id="text_16">
      <!-- 900 -->
      <g transform="translate(31.085 64.157155)scale(0.13 -0.13)">
       <use xlink:href="#DejaVuSans-57"/>
       <use x="63.623047" xlink:href="#DejaVuSans-48"/>
       <use x="127.246094" xlink:href="#DejaVuSans-48"/>
      </g>
     </g>
    </g>
    <g id="ytick_11">
     <g id="line2d_27">
      <path clip-path="url(#p3c5126bab6)" d="M 62.89875 12.138984 
L 1178.89875 12.138984 
" style="fill:none;stroke:#b0b0b0;stroke-linecap:square;stroke-width:0.8;"/>
     </g>
     <g id="line2d_28">
      <g>
       <use style="stroke:#000000;stroke-width:0.8;" x="62.89875" xlink:href="#m8823852b7a" y="12.138984"/>
      </g>
     </g>
     <g id="text_17">
      <!-- 1000 -->
      <g transform="translate(22.81375 17.077969)scale(0.13 -0.13)">
       <use xlink:href="#DejaVuSans-49"/>
       <use x="63.623047" xlink:href="#DejaVuSans-48"/>
       <use x="127.246094" xlink:href="#DejaVuSans-48"/>
       <use x="190.869141" xlink:href="#DejaVuSans-48"/>
      </g>
     </g>
    </g>
    <g id="text_18">
     <!-- Anzahl von Fällen -->
     <defs>
      <path d="M 34.1875 63.1875 
L 20.796875 26.90625 
L 47.609375 26.90625 
z
M 28.609375 72.90625 
L 39.796875 72.90625 
L 67.578125 0 
L 57.328125 0 
L 50.6875 18.703125 
L 17.828125 18.703125 
L 11.1875 0 
L 0.78125 0 
z
" id="DejaVuSans-65"/>
      <path d="M 54.890625 33.015625 
L 54.890625 0 
L 45.90625 0 
L 45.90625 32.71875 
Q 45.90625 40.484375 42.875 44.328125 
Q 39.84375 48.1875 33.796875 48.1875 
Q 26.515625 48.1875 22.3125 43.546875 
Q 18.109375 38.921875 18.109375 30.90625 
L 18.109375 0 
L 9.078125 0 
L 9.078125 54.6875 
L 18.109375 54.6875 
L 18.109375 46.1875 
Q 21.34375 51.125 25.703125 53.5625 
Q 30.078125 56 35.796875 56 
Q 45.21875 56 50.046875 50.171875 
Q 54.890625 44.34375 54.890625 33.015625 
z
" id="DejaVuSans-110"/>
      <path d="M 5.515625 54.6875 
L 48.1875 54.6875 
L 48.1875 46.484375 
L 14.40625 7.171875 
L 48.1875 7.171875 
L 48.1875 0 
L 4.296875 0 
L 4.296875 8.203125 
L 38.09375 47.515625 
L 5.515625 47.515625 
z
" id="DejaVuSans-122"/>
      <path d="M 34.28125 27.484375 
Q 23.390625 27.484375 19.1875 25 
Q 14.984375 22.515625 14.984375 16.5 
Q 14.984375 11.71875 18.140625 8.90625 
Q 21.296875 6.109375 26.703125 6.109375 
Q 34.1875 6.109375 38.703125 11.40625 
Q 43.21875 16.703125 43.21875 25.484375 
L 43.21875 27.484375 
z
M 52.203125 31.203125 
L 52.203125 0 
L 43.21875 0 
L 43.21875 8.296875 
Q 40.140625 3.328125 35.546875 0.953125 
Q 30.953125 -1.421875 24.3125 -1.421875 
Q 15.921875 -1.421875 10.953125 3.296875 
Q 6 8.015625 6 15.921875 
Q 6 25.140625 12.171875 29.828125 
Q 18.359375 34.515625 30.609375 34.515625 
L 43.21875 34.515625 
L 43.21875 35.40625 
Q 43.21875 41.609375 39.140625 45 
Q 35.0625 48.390625 27.6875 48.390625 
Q 23 48.390625 18.546875 47.265625 
Q 14.109375 46.140625 10.015625 43.890625 
L 10.015625 52.203125 
Q 14.9375 54.109375 19.578125 55.046875 
Q 24.21875 56 28.609375 56 
Q 40.484375 56 46.34375 49.84375 
Q 52.203125 43.703125 52.203125 31.203125 
z
" id="DejaVuSans-97"/>
      <path d="M 54.890625 33.015625 
L 54.890625 0 
L 45.90625 0 
L 45.90625 32.71875 
Q 45.90625 40.484375 42.875 44.328125 
Q 39.84375 48.1875 33.796875 48.1875 
Q 26.515625 48.1875 22.3125 43.546875 
Q 18.109375 38.921875 18.109375 30.90625 
L 18.109375 0 
L 9.078125 0 
L 9.078125 75.984375 
L 18.109375 75.984375 
L 18.109375 46.1875 
Q 21.34375 51.125 25.703125 53.5625 
Q 30.078125 56 35.796875 56 
Q 45.21875 56 50.046875 50.171875 
Q 54.890625 44.34375 54.890625 33.015625 
z
" id="DejaVuSans-104"/>
      <path d="M 9.421875 75.984375 
L 18.40625 75.984375 
L 18.40625 0 
L 9.421875 0 
z
" id="DejaVuSans-108"/>
      <path id="DejaVuSans-32"/>
      <path d="M 2.984375 54.6875 
L 12.5 54.6875 
L 29.59375 8.796875 
L 46.6875 54.6875 
L 56.203125 54.6875 
L 35.6875 0 
L 23.484375 0 
z
" id="DejaVuSans-118"/>
      <path d="M 30.609375 48.390625 
Q 23.390625 48.390625 19.1875 42.75 
Q 14.984375 37.109375 14.984375 27.296875 
Q 14.984375 17.484375 19.15625 11.84375 
Q 23.34375 6.203125 30.609375 6.203125 
Q 37.796875 6.203125 41.984375 11.859375 
Q 46.1875 17.53125 46.1875 27.296875 
Q 46.1875 37.015625 41.984375 42.703125 
Q 37.796875 48.390625 30.609375 48.390625 
z
M 30.609375 56 
Q 42.328125 56 49.015625 48.375 
Q 55.71875 40.765625 55.71875 27.296875 
Q 55.71875 13.875 49.015625 6.21875 
Q 42.328125 -1.421875 30.609375 -1.421875 
Q 18.84375 -1.421875 12.171875 6.21875 
Q 5.515625 13.875 5.515625 27.296875 
Q 5.515625 40.765625 12.171875 48.375 
Q 18.84375 56 30.609375 56 
z
" id="DejaVuSans-111"/>
      <path d="M 9.8125 72.90625 
L 51.703125 72.90625 
L 51.703125 64.59375 
L 19.671875 64.59375 
L 19.671875 43.109375 
L 48.578125 43.109375 
L 48.578125 34.8125 
L 19.671875 34.8125 
L 19.671875 0 
L 9.8125 0 
z
" id="DejaVuSans-70"/>
      <path d="M 34.28125 27.484375 
Q 23.390625 27.484375 19.1875 25 
Q 14.984375 22.515625 14.984375 16.5 
Q 14.984375 11.71875 18.140625 8.90625 
Q 21.296875 6.109375 26.703125 6.109375 
Q 34.1875 6.109375 38.703125 11.40625 
Q 43.21875 16.703125 43.21875 25.484375 
L 43.21875 27.484375 
z
M 52.203125 31.203125 
L 52.203125 0 
L 43.21875 0 
L 43.21875 8.296875 
Q 40.140625 3.328125 35.546875 0.953125 
Q 30.953125 -1.421875 24.3125 -1.421875 
Q 15.921875 -1.421875 10.953125 3.296875 
Q 6 8.015625 6 15.921875 
Q 6 25.140625 12.171875 29.828125 
Q 18.359375 34.515625 30.609375 34.515625 
L 43.21875 34.515625 
L 43.21875 35.40625 
Q 43.21875 41.609375 39.140625 45 
Q 35.0625 48.390625 27.6875 48.390625 
Q 23 48.390625 18.546875 47.265625 
Q 14.109375 46.140625 10.015625 43.890625 
L 10.015625 52.203125 
Q 14.9375 54.109375 19.578125 55.046875 
Q 24.21875 56 28.609375 56 
Q 40.484375 56 46.34375 49.84375 
Q 52.203125 43.703125 52.203125 31.203125 
z
M 33.59375 75.78125 
L 43.5 75.78125 
L 43.5 65.921875 
L 33.59375 65.921875 
z
M 14.5 75.78125 
L 24.40625 75.78125 
L 24.40625 65.921875 
L 14.5 65.921875 
z
" id="DejaVuSans-228"/>
      <path d="M 56.203125 29.59375 
L 56.203125 25.203125 
L 14.890625 25.203125 
Q 15.484375 15.921875 20.484375 11.0625 
Q 25.484375 6.203125 34.421875 6.203125 
Q 39.59375 6.203125 44.453125 7.46875 
Q 49.3125 8.734375 54.109375 11.28125 
L 54.109375 2.78125 
Q 49.265625 0.734375 44.1875 -0.34375 
Q 39.109375 -1.421875 33.890625 -1.421875 
Q 20.796875 -1.421875 13.15625 6.1875 
Q 5.515625 13.8125 5.515625 26.8125 
Q 5.515625 40.234375 12.765625 48.109375 
Q 20.015625 56 32.328125 56 
Q 43.359375 56 49.78125 48.890625 
Q 56.203125 41.796875 56.203125 29.59375 
z
M 47.21875 32.234375 
Q 47.125 39.59375 43.09375 43.984375 
Q 39.0625 48.390625 32.421875 48.390625 
Q 24.90625 48.390625 20.390625 44.140625 
Q 15.875 39.890625 15.1875 32.171875 
z
" id="DejaVuSans-101"/>
     </defs>
     <g transform="translate(16.318125 309.388359)rotate(-90)scale(0.12 -0.12)">
      <use xlink:href="#DejaVuSans-65"/>
      <use x="68.408203" xlink:href="#DejaVuSans-110"/>
      <use x="131.787109" xlink:href="#DejaVuSans-122"/>
      <use x="184.277344" xlink:href="#DejaVuSans-97"/>
      <use x="245.556641" xlink:href="#DejaVuSans-104"/>
      <use x="308.935547" xlink:href="#DejaVuSans-108"/>
      <use x="336.71875" xlink:href="#DejaVuSans-32"/>
      <use x="368.505859" xlink:href="#DejaVuSans-118"/>
      <use x="427.685547" xlink:href="#DejaVuSans-111"/>
      <use x="488.867188" xlink:href="#DejaVuSans-110"/>
      <use x="552.246094" xlink:href="#DejaVuSans-32"/>
      <use x="584.033203" xlink:href="#DejaVuSans-70"/>
      <use x="632.427734" xlink:href="#DejaVuSans-228"/>
      <use x="693.707031" xlink:href="#DejaVuSans-108"/>
      <use x="721.490234" xlink:href="#DejaVuSans-108"/>
      <use x="749.273438" xlink:href="#DejaVuSans-101"/>
      <use x="810.796875" xlink:href="#DejaVuSans-110"/>
     </g>
    </g>
   </g>
   <g id="line2d_29">
    <path clip-path="url(#p3c5126bab6)" d="M 113.626023 480.106098 
L 119.62925 479.635306 
L 125.632478 479.635306 
L 131.635705 477.281347 
L 137.638933 472.573428 
L 143.64216 472.573428 
L 149.645388 471.161053 
L 155.648616 436.793247 
L 161.651843 425.965034 
L 167.655071 416.078405 
L 173.658298 406.191775 
L 179.661526 396.775938 
L 185.664753 392.068019 
L 191.667981 386.418517 
L 197.671208 381.239807 
L 203.674436 376.531888 
L 209.677663 369.47001 
L 215.680891 364.762091 
L 221.684118 359.583381 
L 227.687346 358.641797 
L 233.690574 353.933878 
L 245.697029 349.696752 
L 251.700256 346.401209 
L 257.703484 344.518041 
L 263.706711 340.751706 
L 269.709939 338.868539 
L 281.716394 336.514579 
L 287.719621 334.16062 
L 293.722849 329.923493 
L 299.726077 321.920032 
L 305.729304 320.507656 
L 311.732532 319.566072 
L 323.738987 316.741321 
L 329.742214 316.270529 
L 335.745442 314.858154 
L 341.748669 312.033402 
L 353.755124 304.971524 
L 365.761579 297.438855 
L 371.764807 296.968063 
L 377.768035 294.614103 
L 383.771262 292.730936 
L 389.77449 290.376977 
L 395.777717 287.552225 
L 407.784172 284.727474 
L 413.7874 283.315099 
L 419.790627 281.902723 
L 425.793855 278.60718 
L 431.797082 276.724013 
L 437.80031 276.724013 
L 449.806765 277.194804 
L 455.809993 274.370053 
L 461.81322 273.899261 
L 473.819675 272.016094 
L 479.822903 271.07451 
L 491.829358 271.07451 
L 497.832585 269.662135 
L 509.83904 266.837383 
L 515.842268 266.837383 
L 539.855178 265.425008 
L 545.858406 264.954216 
L 551.861633 264.954216 
L 557.864861 264.954216 
L 563.868088 264.483424 
L 575.874543 264.483424 
L 581.877771 264.483424 
L 587.880999 264.012632 
L 599.887454 262.600257 
L 605.890681 262.600257 
L 617.897136 261.187881 
L 629.903591 259.775505 
L 641.910046 258.36313 
L 647.913274 257.892338 
L 659.919729 257.892338 
L 665.922957 255.538379 
L 671.926184 254.596795 
L 677.929412 254.596795 
L 689.935867 254.596795 
L 701.942322 254.596795 
L 707.945549 254.596795 
L 713.948777 254.126003 
L 719.952004 253.184419 
L 725.955232 253.184419 
L 731.95846 248.476501 
L 743.964915 245.651749 
L 749.968142 240.002247 
L 755.97137 174.562178 
L 761.974597 160.438422 
L 767.977825 145.373082 
L 785.987507 113.359235 
L 791.990735 112.888443 
L 797.993962 111.476068 
L 803.99719 109.122109 
L 810.000418 105.826566 
L 828.0101 100.647855 
L 834.013328 100.177063 
L 840.016555 99.235479 
L 846.019783 98.764688 
L 852.02301 98.764688 
L 870.032693 97.352312 
L 876.035921 94.998353 
L 882.039148 94.998353 
L 888.042376 93.115185 
L 894.045603 91.70281 
L 954.077879 85.582515 
L 960.081106 84.17014 
L 972.087561 82.757764 
L 978.090789 82.286972 
L 996.100471 78.520637 
L 1002.103699 78.049845 
L 1008.106926 78.049845 
L 1014.110154 73.812719 
L 1020.113382 72.871135 
L 1038.123064 66.750841 
L 1044.126292 63.455298 
L 1050.129519 62.513714 
L 1056.132747 59.688963 
L 1062.135974 58.747379 
L 1080.145657 56.39342 
L 1086.148884 54.981044 
L 1092.152112 54.510252 
L 1098.15534 52.627085 
L 1104.158567 50.743917 
L 1122.16825 49.331542 
L 1128.171477 47.448374 
" style="fill:none;stroke:#dbcd00;stroke-linecap:square;stroke-width:2;"/>
    <defs>
     <path d="M 0 1.5 
C 0.397805 1.5 0.77937 1.341951 1.06066 1.06066 
C 1.341951 0.77937 1.5 0.397805 1.5 0 
C 1.5 -0.397805 1.341951 -0.77937 1.06066 -1.06066 
C 0.77937 -1.341951 0.397805 -1.5 0 -1.5 
C -0.397805 -1.5 -0.77937 -1.341951 -1.06066 -1.06066 
C -1.341951 -0.77937 -1.5 -0.397805 -1.5 0 
C -1.5 0.397805 -1.341951 0.77937 -1.06066 1.06066 
C -0.77937 1.341951 -0.397805 1.5 0 1.5 
z
" id="mead11aa733" style="stroke:#dbcd00;"/>
    </defs>
    <g clip-path="url(#p3c5126bab6)">
     <use style="fill:#dbcd00;stroke:#dbcd00;" x="113.626023" xlink:href="#mead11aa733" y="480.106098"/>
     <use style="fill:#dbcd00;stroke:#dbcd00;" x="119.62925" xlink:href="#mead11aa733" y="479.635306"/>
     <use style="fill:#dbcd00;stroke:#dbcd00;" x="125.632478" xlink:href="#mead11aa733" y="479.635306"/>
     <use style="fill:#dbcd00;stroke:#dbcd00;" x="131.635705" xlink:href="#mead11aa733" y="477.281347"/>
     <use style="fill:#dbcd00;stroke:#dbcd00;" x="137.638933" xlink:href="#mead11aa733" y="472.573428"/>
     <use style="fill:#dbcd00;stroke:#dbcd00;" x="143.64216" xlink:href="#mead11aa733" y="472.573428"/>
     <use style="fill:#dbcd00;stroke:#dbcd00;" x="149.645388" xlink:href="#mead11aa733" y="471.161053"/>
     <use style="fill:#dbcd00;stroke:#dbcd00;" x="155.648616" xlink:href="#mead11aa733" y="436.793247"/>
     <use style="fill:#dbcd00;stroke:#dbcd00;" x="161.651843" xlink:href="#mead11aa733" y="425.965034"/>
     <use style="fill:#dbcd00;stroke:#dbcd00;" x="167.655071" xlink:href="#mead11aa733" y="416.078405"/>
     <use style="fill:#dbcd00;stroke:#dbcd00;" x="173.658298" xlink:href="#mead11aa733" y="406.191775"/>
     <use style="fill:#dbcd00;stroke:#dbcd00;" x="179.661526" xlink:href="#mead11aa733" y="396.775938"/>
     <use style="fill:#dbcd00;stroke:#dbcd00;" x="185.664753" xlink:href="#mead11aa733" y="392.068019"/>
     <use style="fill:#dbcd00;stroke:#dbcd00;" x="191.667981" xlink:href="#mead11aa733" y="386.418517"/>
     <use style="fill:#dbcd00;stroke:#dbcd00;" x="197.671208" xlink:href="#mead11aa733" y="381.239807"/>
     <use style="fill:#dbcd00;stroke:#dbcd00;" x="203.674436" xlink:href="#mead11aa733" y="376.531888"/>
     <use style="fill:#dbcd00;stroke:#dbcd00;" x="209.677663" xlink:href="#mead11aa733" y="369.47001"/>
     <use style="fill:#dbcd00;stroke:#dbcd00;" x="215.680891" xlink:href="#mead11aa733" y="364.762091"/>
     <use style="fill:#dbcd00;stroke:#dbcd00;" x="221.684118" xlink:href="#mead11aa733" y="359.583381"/>
     <use style="fill:#dbcd00;stroke:#dbcd00;" x="227.687346" xlink:href="#mead11aa733" y="358.641797"/>
     <use style="fill:#dbcd00;stroke:#dbcd00;" x="233.690574" xlink:href="#mead11aa733" y="353.933878"/>
     <use style="fill:#dbcd00;stroke:#dbcd00;" x="245.697029" xlink:href="#mead11aa733" y="349.696752"/>
     <use style="fill:#dbcd00;stroke:#dbcd00;" x="251.700256" xlink:href="#mead11aa733" y="346.401209"/>
     <use style="fill:#dbcd00;stroke:#dbcd00;" x="257.703484" xlink:href="#mead11aa733" y="344.518041"/>
     <use style="fill:#dbcd00;stroke:#dbcd00;" x="263.706711" xlink:href="#mead11aa733" y="340.751706"/>
     <use style="fill:#dbcd00;stroke:#dbcd00;" x="269.709939" xlink:href="#mead11aa733" y="338.868539"/>
     <use style="fill:#dbcd00;stroke:#dbcd00;" x="281.716394" xlink:href="#mead11aa733" y="336.514579"/>
     <use style="fill:#dbcd00;stroke:#dbcd00;" x="287.719621" xlink:href="#mead11aa733" y="334.16062"/>
     <use style="fill:#dbcd00;stroke:#dbcd00;" x="293.722849" xlink:href="#mead11aa733" y="329.923493"/>
     <use style="fill:#dbcd00;stroke:#dbcd00;" x="299.726077" xlink:href="#mead11aa733" y="321.920032"/>
     <use style="fill:#dbcd00;stroke:#dbcd00;" x="305.729304" xlink:href="#mead11aa733" y="320.507656"/>
     <use style="fill:#dbcd00;stroke:#dbcd00;" x="311.732532" xlink:href="#mead11aa733" y="319.566072"/>
     <use style="fill:#dbcd00;stroke:#dbcd00;" x="323.738987" xlink:href="#mead11aa733" y="316.741321"/>
     <use style="fill:#dbcd00;stroke:#dbcd00;" x="329.742214" xlink:href="#mead11aa733" y="316.270529"/>
     <use style="fill:#dbcd00;stroke:#dbcd00;" x="335.745442" xlink:href="#mead11aa733" y="314.858154"/>
     <use style="fill:#dbcd00;stroke:#dbcd00;" x="341.748669" xlink:href="#mead11aa733" y="312.033402"/>
     <use style="fill:#dbcd00;stroke:#dbcd00;" x="353.755124" xlink:href="#mead11aa733" y="304.971524"/>
     <use style="fill:#dbcd00;stroke:#dbcd00;" x="365.761579" xlink:href="#mead11aa733" y="297.438855"/>
     <use style="fill:#dbcd00;stroke:#dbcd00;" x="371.764807" xlink:href="#mead11aa733" y="296.968063"/>
     <use style="fill:#dbcd00;stroke:#dbcd00;" x="377.768035" xlink:href="#mead11aa733" y="294.614103"/>
     <use style="fill:#dbcd00;stroke:#dbcd00;" x="383.771262" xlink:href="#mead11aa733" y="292.730936"/>
     <use style="fill:#dbcd00;stroke:#dbcd00;" x="389.77449" xlink:href="#mead11aa733" y="290.376977"/>
     <use style="fill:#dbcd00;stroke:#dbcd00;" x="395.777717" xlink:href="#mead11aa733" y="287.552225"/>
     <use style="fill:#dbcd00;stroke:#dbcd00;" x="407.784172" xlink:href="#mead11aa733" y="284.727474"/>
     <use style="fill:#dbcd00;stroke:#dbcd00;" x="413.7874" xlink:href="#mead11aa733" y="283.315099"/>
     <use style="fill:#dbcd00;stroke:#dbcd00;" x="419.790627" xlink:href="#mead11aa733" y="281.902723"/>
     <use style="fill:#dbcd00;stroke:#dbcd00;" x="425.793855" xlink:href="#mead11aa733" y="278.60718"/>
     <use style="fill:#dbcd00;stroke:#dbcd00;" x="431.797082" xlink:href="#mead11aa733" y="276.724013"/>
     <use style="fill:#dbcd00;stroke:#dbcd00;" x="437.80031" xlink:href="#mead11aa733" y="276.724013"/>
     <use style="fill:#dbcd00;stroke:#dbcd00;" x="449.806765" xlink:href="#mead11aa733" y="277.194804"/>
     <use style="fill:#dbcd00;stroke:#dbcd00;" x="455.809993" xlink:href="#mead11aa733" y="274.370053"/>
     <use style="fill:#dbcd00;stroke:#dbcd00;" x="461.81322" xlink:href="#mead11aa733" y="273.899261"/>
     <use style="fill:#dbcd00;stroke:#dbcd00;" x="473.819675" xlink:href="#mead11aa733" y="272.016094"/>
     <use style="fill:#dbcd00;stroke:#dbcd00;" x="479.822903" xlink:href="#mead11aa733" y="271.07451"/>
     <use style="fill:#dbcd00;stroke:#dbcd00;" x="491.829358" xlink:href="#mead11aa733" y="271.07451"/>
     <use style="fill:#dbcd00;stroke:#dbcd00;" x="497.832585" xlink:href="#mead11aa733" y="269.662135"/>
     <use style="fill:#dbcd00;stroke:#dbcd00;" x="509.83904" xlink:href="#mead11aa733" y="266.837383"/>
     <use style="fill:#dbcd00;stroke:#dbcd00;" x="515.842268" xlink:href="#mead11aa733" y="266.837383"/>
     <use style="fill:#dbcd00;stroke:#dbcd00;" x="539.855178" xlink:href="#mead11aa733" y="265.425008"/>
     <use style="fill:#dbcd00;stroke:#dbcd00;" x="545.858406" xlink:href="#mead11aa733" y="264.954216"/>
     <use style="fill:#dbcd00;stroke:#dbcd00;" x="551.861633" xlink:href="#mead11aa733" y="264.954216"/>
     <use style="fill:#dbcd00;stroke:#dbcd00;" x="557.864861" xlink:href="#mead11aa733" y="264.954216"/>
     <use style="fill:#dbcd00;stroke:#dbcd00;" x="563.868088" xlink:href="#mead11aa733" y="264.483424"/>
     <use style="fill:#dbcd00;stroke:#dbcd00;" x="575.874543" xlink:href="#mead11aa733" y="264.483424"/>
     <use style="fill:#dbcd00;stroke:#dbcd00;" x="581.877771" xlink:href="#mead11aa733" y="264.483424"/>
     <use style="fill:#dbcd00;stroke:#dbcd00;" x="587.880999" xlink:href="#mead11aa733" y="264.012632"/>
     <use style="fill:#dbcd00;stroke:#dbcd00;" x="599.887454" xlink:href="#mead11aa733" y="262.600257"/>
     <use style="fill:#dbcd00;stroke:#dbcd00;" x="605.890681" xlink:href="#mead11aa733" y="262.600257"/>
     <use style="fill:#dbcd00;stroke:#dbcd00;" x="617.897136" xlink:href="#mead11aa733" y="261.187881"/>
     <use style="fill:#dbcd00;stroke:#dbcd00;" x="629.903591" xlink:href="#mead11aa733" y="259.775505"/>
     <use style="fill:#dbcd00;stroke:#dbcd00;" x="641.910046" xlink:href="#mead11aa733" y="258.36313"/>
     <use style="fill:#dbcd00;stroke:#dbcd00;" x="647.913274" xlink:href="#mead11aa733" y="257.892338"/>
     <use style="fill:#dbcd00;stroke:#dbcd00;" x="659.919729" xlink:href="#mead11aa733" y="257.892338"/>
     <use style="fill:#dbcd00;stroke:#dbcd00;" x="665.922957" xlink:href="#mead11aa733" y="255.538379"/>
     <use style="fill:#dbcd00;stroke:#dbcd00;" x="671.926184" xlink:href="#mead11aa733" y="254.596795"/>
     <use style="fill:#dbcd00;stroke:#dbcd00;" x="677.929412" xlink:href="#mead11aa733" y="254.596795"/>
     <use style="fill:#dbcd00;stroke:#dbcd00;" x="689.935867" xlink:href="#mead11aa733" y="254.596795"/>
     <use style="fill:#dbcd00;stroke:#dbcd00;" x="701.942322" xlink:href="#mead11aa733" y="254.596795"/>
     <use style="fill:#dbcd00;stroke:#dbcd00;" x="707.945549" xlink:href="#mead11aa733" y="254.596795"/>
     <use style="fill:#dbcd00;stroke:#dbcd00;" x="713.948777" xlink:href="#mead11aa733" y="254.126003"/>
     <use style="fill:#dbcd00;stroke:#dbcd00;" x="719.952004" xlink:href="#mead11aa733" y="253.184419"/>
     <use style="fill:#dbcd00;stroke:#dbcd00;" x="725.955232" xlink:href="#mead11aa733" y="253.184419"/>
     <use style="fill:#dbcd00;stroke:#dbcd00;" x="731.95846" xlink:href="#mead11aa733" y="248.476501"/>
     <use style="fill:#dbcd00;stroke:#dbcd00;" x="743.964915" xlink:href="#mead11aa733" y="245.651749"/>
     <use style="fill:#dbcd00;stroke:#dbcd00;" x="749.968142" xlink:href="#mead11aa733" y="240.002247"/>
     <use style="fill:#dbcd00;stroke:#dbcd00;" x="755.97137" xlink:href="#mead11aa733" y="174.562178"/>
     <use style="fill:#dbcd00;stroke:#dbcd00;" x="761.974597" xlink:href="#mead11aa733" y="160.438422"/>
     <use style="fill:#dbcd00;stroke:#dbcd00;" x="767.977825" xlink:href="#mead11aa733" y="145.373082"/>
     <use style="fill:#dbcd00;stroke:#dbcd00;" x="785.987507" xlink:href="#mead11aa733" y="113.359235"/>
     <use style="fill:#dbcd00;stroke:#dbcd00;" x="791.990735" xlink:href="#mead11aa733" y="112.888443"/>
     <use style="fill:#dbcd00;stroke:#dbcd00;" x="797.993962" xlink:href="#mead11aa733" y="111.476068"/>
     <use style="fill:#dbcd00;stroke:#dbcd00;" x="803.99719" xlink:href="#mead11aa733" y="109.122109"/>
     <use style="fill:#dbcd00;stroke:#dbcd00;" x="810.000418" xlink:href="#mead11aa733" y="105.826566"/>
     <use style="fill:#dbcd00;stroke:#dbcd00;" x="828.0101" xlink:href="#mead11aa733" y="100.647855"/>
     <use style="fill:#dbcd00;stroke:#dbcd00;" x="834.013328" xlink:href="#mead11aa733" y="100.177063"/>
     <use style="fill:#dbcd00;stroke:#dbcd00;" x="840.016555" xlink:href="#mead11aa733" y="99.235479"/>
     <use style="fill:#dbcd00;stroke:#dbcd00;" x="846.019783" xlink:href="#mead11aa733" y="98.764688"/>
     <use style="fill:#dbcd00;stroke:#dbcd00;" x="852.02301" xlink:href="#mead11aa733" y="98.764688"/>
     <use style="fill:#dbcd00;stroke:#dbcd00;" x="870.032693" xlink:href="#mead11aa733" y="97.352312"/>
     <use style="fill:#dbcd00;stroke:#dbcd00;" x="876.035921" xlink:href="#mead11aa733" y="94.998353"/>
     <use style="fill:#dbcd00;stroke:#dbcd00;" x="882.039148" xlink:href="#mead11aa733" y="94.998353"/>
     <use style="fill:#dbcd00;stroke:#dbcd00;" x="888.042376" xlink:href="#mead11aa733" y="93.115185"/>
     <use style="fill:#dbcd00;stroke:#dbcd00;" x="894.045603" xlink:href="#mead11aa733" y="91.70281"/>
     <use style="fill:#dbcd00;stroke:#dbcd00;" x="954.077879" xlink:href="#mead11aa733" y="85.582515"/>
     <use style="fill:#dbcd00;stroke:#dbcd00;" x="960.081106" xlink:href="#mead11aa733" y="84.17014"/>
     <use style="fill:#dbcd00;stroke:#dbcd00;" x="972.087561" xlink:href="#mead11aa733" y="82.757764"/>
     <use style="fill:#dbcd00;stroke:#dbcd00;" x="978.090789" xlink:href="#mead11aa733" y="82.286972"/>
     <use style="fill:#dbcd00;stroke:#dbcd00;" x="996.100471" xlink:href="#mead11aa733" y="78.520637"/>
     <use style="fill:#dbcd00;stroke:#dbcd00;" x="1002.103699" xlink:href="#mead11aa733" y="78.049845"/>
     <use style="fill:#dbcd00;stroke:#dbcd00;" x="1008.106926" xlink:href="#mead11aa733" y="78.049845"/>
     <use style="fill:#dbcd00;stroke:#dbcd00;" x="1014.110154" xlink:href="#mead11aa733" y="73.812719"/>
     <use style="fill:#dbcd00;stroke:#dbcd00;" x="1020.113382" xlink:href="#mead11aa733" y="72.871135"/>
     <use style="fill:#dbcd00;stroke:#dbcd00;" x="1038.123064" xlink:href="#mead11aa733" y="66.750841"/>
     <use style="fill:#dbcd00;stroke:#dbcd00;" x="1044.126292" xlink:href="#mead11aa733" y="63.455298"/>
     <use style="fill:#dbcd00;stroke:#dbcd00;" x="1050.129519" xlink:href="#mead11aa733" y="62.513714"/>
     <use style="fill:#dbcd00;stroke:#dbcd00;" x="1056.132747" xlink:href="#mead11aa733" y="59.688963"/>
     <use style="fill:#dbcd00;stroke:#dbcd00;" x="1062.135974" xlink:href="#mead11aa733" y="58.747379"/>
     <use style="fill:#dbcd00;stroke:#dbcd00;" x="1080.145657" xlink:href="#mead11aa733" y="56.39342"/>
     <use style="fill:#dbcd00;stroke:#dbcd00;" x="1086.148884" xlink:href="#mead11aa733" y="54.981044"/>
     <use style="fill:#dbcd00;stroke:#dbcd00;" x="1092.152112" xlink:href="#mead11aa733" y="54.510252"/>
     <use style="fill:#dbcd00;stroke:#dbcd00;" x="1098.15534" xlink:href="#mead11aa733" y="52.627085"/>
     <use style="fill:#dbcd00;stroke:#dbcd00;" x="1104.158567" xlink:href="#mead11aa733" y="50.743917"/>
     <use style="fill:#dbcd00;stroke:#dbcd00;" x="1122.16825" xlink:href="#mead11aa733" y="49.331542"/>
     <use style="fill:#dbcd00;stroke:#dbcd00;" x="1128.171477" xlink:href="#mead11aa733" y="47.448374"/>
    </g>
   </g>
   <g id="line2d_30">
    <path clip-path="url(#p3c5126bab6)" d="M 113.626023 388.301685 
L 119.62925 384.064558 
L 125.632478 371.353177 
L 131.635705 369.47001 
L 137.638933 362.408132 
L 143.64216 358.641797 
L 149.645388 358.171005 
L 155.648616 386.889309 
L 161.651843 394.421979 
L 167.655071 399.129897 
L 173.658298 401.483857 
L 179.661526 409.487318 
L 185.664753 413.724445 
L 191.667981 418.903156 
L 197.671208 422.669491 
L 203.674436 425.494242 
L 209.677663 427.377409 
L 215.680891 429.731369 
L 221.684118 430.672952 
L 227.687346 431.614536 
L 233.690574 434.910079 
L 245.697029 427.848201 
L 251.700256 429.731369 
L 257.703484 429.260577 
L 263.706711 429.731369 
L 269.709939 430.20216 
L 281.716394 434.439287 
L 287.719621 436.322455 
L 293.722849 439.617998 
L 299.726077 446.679876 
L 305.729304 439.617998 
L 311.732532 440.08879 
L 323.738987 441.971957 
L 329.742214 441.971957 
L 335.745442 441.030373 
L 341.748669 443.855125 
L 353.755124 447.621459 
L 365.761579 452.80017 
L 371.764807 453.270962 
L 377.768035 455.624921 
L 383.771262 457.508089 
L 389.77449 459.862048 
L 395.777717 462.216007 
L 407.784172 464.569967 
L 413.7874 465.982342 
L 419.790627 467.394718 
L 425.793855 470.690261 
L 431.797082 470.219469 
L 437.80031 469.748677 
L 449.806765 468.807093 
L 455.809993 471.631845 
L 461.81322 472.102636 
L 473.819675 473.515012 
L 479.822903 474.456596 
L 491.829358 474.456596 
L 497.832585 475.868971 
L 509.83904 479.635306 
L 515.842268 479.164514 
L 539.855178 477.752139 
L 545.858406 477.281347 
L 551.861633 476.339763 
L 557.864861 476.339763 
L 563.868088 476.810555 
L 575.874543 475.868971 
L 581.877771 475.39818 
L 587.880999 475.39818 
L 599.887454 471.161053 
L 605.890681 471.161053 
L 617.897136 466.923926 
L 629.903591 465.51155 
L 641.910046 439.617998 
L 647.913274 417.019988 
L 659.919729 416.078405 
L 665.922957 383.593766 
L 671.926184 384.53535 
L 677.929412 380.769015 
L 689.935867 373.236345 
L 701.942322 366.645259 
L 707.945549 359.112589 
L 713.948777 350.167543 
L 719.952004 340.280914 
L 725.955232 337.456163 
L 731.95846 342.164082 
L 743.964915 336.985371 
L 749.968142 342.164082 
L 755.97137 406.191775 
L 761.974597 418.903156 
L 767.977825 433.497704 
L 785.987507 465.51155 
L 791.990735 465.040758 
L 797.993962 465.982342 
L 803.99719 468.336302 
L 810.000418 470.219469 
L 828.0101 473.04422 
L 834.013328 473.515012 
L 840.016555 473.985804 
L 846.019783 473.985804 
L 852.02301 473.04422 
L 870.032693 471.631845 
L 876.035921 472.573428 
L 882.039148 471.631845 
L 888.042376 473.04422 
L 894.045603 473.985804 
L 954.077879 465.040758 
L 960.081106 464.099175 
L 972.087561 463.628383 
L 978.090789 461.274424 
L 996.100471 460.33284 
L 1002.103699 459.862048 
L 1008.106926 459.391256 
L 1014.110154 463.628383 
L 1020.113382 463.157591 
L 1038.123064 466.453134 
L 1044.126292 469.277885 
L 1050.129519 467.86551 
L 1056.132747 470.219469 
L 1062.135974 471.161053 
L 1080.145657 473.515012 
L 1086.148884 473.04422 
L 1092.152112 472.573428 
L 1098.15534 474.456596 
L 1104.158567 474.927388 
L 1122.16825 473.515012 
L 1128.171477 474.927388 
" style="fill:none;stroke:#2792cb;stroke-linecap:square;stroke-width:2;"/>
    <defs>
     <path d="M 0 1.5 
C 0.397805 1.5 0.77937 1.341951 1.06066 1.06066 
C 1.341951 0.77937 1.5 0.397805 1.5 0 
C 1.5 -0.397805 1.341951 -0.77937 1.06066 -1.06066 
C 0.77937 -1.341951 0.397805 -1.5 0 -1.5 
C -0.397805 -1.5 -0.77937 -1.341951 -1.06066 -1.06066 
C -1.341951 -0.77937 -1.5 -0.397805 -1.5 0 
C -1.5 0.397805 -1.341951 0.77937 -1.06066 1.06066 
C -0.77937 1.341951 -0.397805 1.5 0 1.5 
z
" id="m60b8cb47af" style="stroke:#2792cb;"/>
    </defs>
    <g clip-path="url(#p3c5126bab6)">
     <use style="fill:#2792cb;stroke:#2792cb;" x="113.626023" xlink:href="#m60b8cb47af" y="388.301685"/>
     <use style="fill:#2792cb;stroke:#2792cb;" x="119.62925" xlink:href="#m60b8cb47af" y="384.064558"/>
     <use style="fill:#2792cb;stroke:#2792cb;" x="125.632478" xlink:href="#m60b8cb47af" y="371.353177"/>
     <use style="fill:#2792cb;stroke:#2792cb;" x="131.635705" xlink:href="#m60b8cb47af" y="369.47001"/>
     <use style="fill:#2792cb;stroke:#2792cb;" x="137.638933" xlink:href="#m60b8cb47af" y="362.408132"/>
     <use style="fill:#2792cb;stroke:#2792cb;" x="143.64216" xlink:href="#m60b8cb47af" y="358.641797"/>
     <use style="fill:#2792cb;stroke:#2792cb;" x="149.645388" xlink:href="#m60b8cb47af" y="358.171005"/>
     <use style="fill:#2792cb;stroke:#2792cb;" x="155.648616" xlink:href="#m60b8cb47af" y="386.889309"/>
     <use style="fill:#2792cb;stroke:#2792cb;" x="161.651843" xlink:href="#m60b8cb47af" y="394.421979"/>
     <use style="fill:#2792cb;stroke:#2792cb;" x="167.655071" xlink:href="#m60b8cb47af" y="399.129897"/>
     <use style="fill:#2792cb;stroke:#2792cb;" x="173.658298" xlink:href="#m60b8cb47af" y="401.483857"/>
     <use style="fill:#2792cb;stroke:#2792cb;" x="179.661526" xlink:href="#m60b8cb47af" y="409.487318"/>
     <use style="fill:#2792cb;stroke:#2792cb;" x="185.664753" xlink:href="#m60b8cb47af" y="413.724445"/>
     <use style="fill:#2792cb;stroke:#2792cb;" x="191.667981" xlink:href="#m60b8cb47af" y="418.903156"/>
     <use style="fill:#2792cb;stroke:#2792cb;" x="197.671208" xlink:href="#m60b8cb47af" y="422.669491"/>
     <use style="fill:#2792cb;stroke:#2792cb;" x="203.674436" xlink:href="#m60b8cb47af" y="425.494242"/>
     <use style="fill:#2792cb;stroke:#2792cb;" x="209.677663" xlink:href="#m60b8cb47af" y="427.377409"/>
     <use style="fill:#2792cb;stroke:#2792cb;" x="215.680891" xlink:href="#m60b8cb47af" y="429.731369"/>
     <use style="fill:#2792cb;stroke:#2792cb;" x="221.684118" xlink:href="#m60b8cb47af" y="430.672952"/>
     <use style="fill:#2792cb;stroke:#2792cb;" x="227.687346" xlink:href="#m60b8cb47af" y="431.614536"/>
     <use style="fill:#2792cb;stroke:#2792cb;" x="233.690574" xlink:href="#m60b8cb47af" y="434.910079"/>
     <use style="fill:#2792cb;stroke:#2792cb;" x="245.697029" xlink:href="#m60b8cb47af" y="427.848201"/>
     <use style="fill:#2792cb;stroke:#2792cb;" x="251.700256" xlink:href="#m60b8cb47af" y="429.731369"/>
     <use style="fill:#2792cb;stroke:#2792cb;" x="257.703484" xlink:href="#m60b8cb47af" y="429.260577"/>
     <use style="fill:#2792cb;stroke:#2792cb;" x="263.706711" xlink:href="#m60b8cb47af" y="429.731369"/>
     <use style="fill:#2792cb;stroke:#2792cb;" x="269.709939" xlink:href="#m60b8cb47af" y="430.20216"/>
     <use style="fill:#2792cb;stroke:#2792cb;" x="281.716394" xlink:href="#m60b8cb47af" y="434.439287"/>
     <use style="fill:#2792cb;stroke:#2792cb;" x="287.719621" xlink:href="#m60b8cb47af" y="436.322455"/>
     <use style="fill:#2792cb;stroke:#2792cb;" x="293.722849" xlink:href="#m60b8cb47af" y="439.617998"/>
     <use style="fill:#2792cb;stroke:#2792cb;" x="299.726077" xlink:href="#m60b8cb47af" y="446.679876"/>
     <use style="fill:#2792cb;stroke:#2792cb;" x="305.729304" xlink:href="#m60b8cb47af" y="439.617998"/>
     <use style="fill:#2792cb;stroke:#2792cb;" x="311.732532" xlink:href="#m60b8cb47af" y="440.08879"/>
     <use style="fill:#2792cb;stroke:#2792cb;" x="323.738987" xlink:href="#m60b8cb47af" y="441.971957"/>
     <use style="fill:#2792cb;stroke:#2792cb;" x="329.742214" xlink:href="#m60b8cb47af" y="441.971957"/>
     <use style="fill:#2792cb;stroke:#2792cb;" x="335.745442" xlink:href="#m60b8cb47af" y="441.030373"/>
     <use style="fill:#2792cb;stroke:#2792cb;" x="341.748669" xlink:href="#m60b8cb47af" y="443.855125"/>
     <use style="fill:#2792cb;stroke:#2792cb;" x="353.755124" xlink:href="#m60b8cb47af" y="447.621459"/>
     <use style="fill:#2792cb;stroke:#2792cb;" x="365.761579" xlink:href="#m60b8cb47af" y="452.80017"/>
     <use style="fill:#2792cb;stroke:#2792cb;" x="371.764807" xlink:href="#m60b8cb47af" y="453.270962"/>
     <use style="fill:#2792cb;stroke:#2792cb;" x="377.768035" xlink:href="#m60b8cb47af" y="455.624921"/>
     <use style="fill:#2792cb;stroke:#2792cb;" x="383.771262" xlink:href="#m60b8cb47af" y="457.508089"/>
     <use style="fill:#2792cb;stroke:#2792cb;" x="389.77449" xlink:href="#m60b8cb47af" y="459.862048"/>
     <use style="fill:#2792cb;stroke:#2792cb;" x="395.777717" xlink:href="#m60b8cb47af" y="462.216007"/>
     <use style="fill:#2792cb;stroke:#2792cb;" x="407.784172" xlink:href="#m60b8cb47af" y="464.569967"/>
     <use style="fill:#2792cb;stroke:#2792cb;" x="413.7874" xlink:href="#m60b8cb47af" y="465.982342"/>
     <use style="fill:#2792cb;stroke:#2792cb;" x="419.790627" xlink:href="#m60b8cb47af" y="467.394718"/>
     <use style="fill:#2792cb;stroke:#2792cb;" x="425.793855" xlink:href="#m60b8cb47af" y="470.690261"/>
     <use style="fill:#2792cb;stroke:#2792cb;" x="431.797082" xlink:href="#m60b8cb47af" y="470.219469"/>
     <use style="fill:#2792cb;stroke:#2792cb;" x="437.80031" xlink:href="#m60b8cb47af" y="469.748677"/>
     <use style="fill:#2792cb;stroke:#2792cb;" x="449.806765" xlink:href="#m60b8cb47af" y="468.807093"/>
     <use style="fill:#2792cb;stroke:#2792cb;" x="455.809993" xlink:href="#m60b8cb47af" y="471.631845"/>
     <use style="fill:#2792cb;stroke:#2792cb;" x="461.81322" xlink:href="#m60b8cb47af" y="472.102636"/>
     <use style="fill:#2792cb;stroke:#2792cb;" x="473.819675" xlink:href="#m60b8cb47af" y="473.515012"/>
     <use style="fill:#2792cb;stroke:#2792cb;" x="479.822903" xlink:href="#m60b8cb47af" y="474.456596"/>
     <use style="fill:#2792cb;stroke:#2792cb;" x="491.829358" xlink:href="#m60b8cb47af" y="474.456596"/>
     <use style="fill:#2792cb;stroke:#2792cb;" x="497.832585" xlink:href="#m60b8cb47af" y="475.868971"/>
     <use style="fill:#2792cb;stroke:#2792cb;" x="509.83904" xlink:href="#m60b8cb47af" y="479.635306"/>
     <use style="fill:#2792cb;stroke:#2792cb;" x="515.842268" xlink:href="#m60b8cb47af" y="479.164514"/>
     <use style="fill:#2792cb;stroke:#2792cb;" x="539.855178" xlink:href="#m60b8cb47af" y="477.752139"/>
     <use style="fill:#2792cb;stroke:#2792cb;" x="545.858406" xlink:href="#m60b8cb47af" y="477.281347"/>
     <use style="fill:#2792cb;stroke:#2792cb;" x="551.861633" xlink:href="#m60b8cb47af" y="476.339763"/>
     <use style="fill:#2792cb;stroke:#2792cb;" x="557.864861" xlink:href="#m60b8cb47af" y="476.339763"/>
     <use style="fill:#2792cb;stroke:#2792cb;" x="563.868088" xlink:href="#m60b8cb47af" y="476.810555"/>
     <use style="fill:#2792cb;stroke:#2792cb;" x="575.874543" xlink:href="#m60b8cb47af" y="475.868971"/>
     <use style="fill:#2792cb;stroke:#2792cb;" x="581.877771" xlink:href="#m60b8cb47af" y="475.39818"/>
     <use style="fill:#2792cb;stroke:#2792cb;" x="587.880999" xlink:href="#m60b8cb47af" y="475.39818"/>
     <use style="fill:#2792cb;stroke:#2792cb;" x="599.887454" xlink:href="#m60b8cb47af" y="471.161053"/>
     <use style="fill:#2792cb;stroke:#2792cb;" x="605.890681" xlink:href="#m60b8cb47af" y="471.161053"/>
     <use style="fill:#2792cb;stroke:#2792cb;" x="617.897136" xlink:href="#m60b8cb47af" y="466.923926"/>
     <use style="fill:#2792cb;stroke:#2792cb;" x="629.903591" xlink:href="#m60b8cb47af" y="465.51155"/>
     <use style="fill:#2792cb;stroke:#2792cb;" x="641.910046" xlink:href="#m60b8cb47af" y="439.617998"/>
     <use style="fill:#2792cb;stroke:#2792cb;" x="647.913274" xlink:href="#m60b8cb47af" y="417.019988"/>
     <use style="fill:#2792cb;stroke:#2792cb;" x="659.919729" xlink:href="#m60b8cb47af" y="416.078405"/>
     <use style="fill:#2792cb;stroke:#2792cb;" x="665.922957" xlink:href="#m60b8cb47af" y="383.593766"/>
     <use style="fill:#2792cb;stroke:#2792cb;" x="671.926184" xlink:href="#m60b8cb47af" y="384.53535"/>
     <use style="fill:#2792cb;stroke:#2792cb;" x="677.929412" xlink:href="#m60b8cb47af" y="380.769015"/>
     <use style="fill:#2792cb;stroke:#2792cb;" x="689.935867" xlink:href="#m60b8cb47af" y="373.236345"/>
     <use style="fill:#2792cb;stroke:#2792cb;" x="701.942322" xlink:href="#m60b8cb47af" y="366.645259"/>
     <use style="fill:#2792cb;stroke:#2792cb;" x="707.945549" xlink:href="#m60b8cb47af" y="359.112589"/>
     <use style="fill:#2792cb;stroke:#2792cb;" x="713.948777" xlink:href="#m60b8cb47af" y="350.167543"/>
     <use style="fill:#2792cb;stroke:#2792cb;" x="719.952004" xlink:href="#m60b8cb47af" y="340.280914"/>
     <use style="fill:#2792cb;stroke:#2792cb;" x="725.955232" xlink:href="#m60b8cb47af" y="337.456163"/>
     <use style="fill:#2792cb;stroke:#2792cb;" x="731.95846" xlink:href="#m60b8cb47af" y="342.164082"/>
     <use style="fill:#2792cb;stroke:#2792cb;" x="743.964915" xlink:href="#m60b8cb47af" y="336.985371"/>
     <use style="fill:#2792cb;stroke:#2792cb;" x="749.968142" xlink:href="#m60b8cb47af" y="342.164082"/>
     <use style="fill:#2792cb;stroke:#2792cb;" x="755.97137" xlink:href="#m60b8cb47af" y="406.191775"/>
     <use style="fill:#2792cb;stroke:#2792cb;" x="761.974597" xlink:href="#m60b8cb47af" y="418.903156"/>
     <use style="fill:#2792cb;stroke:#2792cb;" x="767.977825" xlink:href="#m60b8cb47af" y="433.497704"/>
     <use style="fill:#2792cb;stroke:#2792cb;" x="785.987507" xlink:href="#m60b8cb47af" y="465.51155"/>
     <use style="fill:#2792cb;stroke:#2792cb;" x="791.990735" xlink:href="#m60b8cb47af" y="465.040758"/>
     <use style="fill:#2792cb;stroke:#2792cb;" x="797.993962" xlink:href="#m60b8cb47af" y="465.982342"/>
     <use style="fill:#2792cb;stroke:#2792cb;" x="803.99719" xlink:href="#m60b8cb47af" y="468.336302"/>
     <use style="fill:#2792cb;stroke:#2792cb;" x="810.000418" xlink:href="#m60b8cb47af" y="470.219469"/>
     <use style="fill:#2792cb;stroke:#2792cb;" x="828.0101" xlink:href="#m60b8cb47af" y="473.04422"/>
     <use style="fill:#2792cb;stroke:#2792cb;" x="834.013328" xlink:href="#m60b8cb47af" y="473.515012"/>
     <use style="fill:#2792cb;stroke:#2792cb;" x="840.016555" xlink:href="#m60b8cb47af" y="473.985804"/>
     <use style="fill:#2792cb;stroke:#2792cb;" x="846.019783" xlink:href="#m60b8cb47af" y="473.985804"/>
     <use style="fill:#2792cb;stroke:#2792cb;" x="852.02301" xlink:href="#m60b8cb47af" y="473.04422"/>
     <use style="fill:#2792cb;stroke:#2792cb;" x="870.032693" xlink:href="#m60b8cb47af" y="471.631845"/>
     <use style="fill:#2792cb;stroke:#2792cb;" x="876.035921" xlink:href="#m60b8cb47af" y="472.573428"/>
     <use style="fill:#2792cb;stroke:#2792cb;" x="882.039148" xlink:href="#m60b8cb47af" y="471.631845"/>
     <use style="fill:#2792cb;stroke:#2792cb;" x="888.042376" xlink:href="#m60b8cb47af" y="473.04422"/>
     <use style="fill:#2792cb;stroke:#2792cb;" x="894.045603" xlink:href="#m60b8cb47af" y="473.985804"/>
     <use style="fill:#2792cb;stroke:#2792cb;" x="954.077879" xlink:href="#m60b8cb47af" y="465.040758"/>
     <use style="fill:#2792cb;stroke:#2792cb;" x="960.081106" xlink:href="#m60b8cb47af" y="464.099175"/>
     <use style="fill:#2792cb;stroke:#2792cb;" x="972.087561" xlink:href="#m60b8cb47af" y="463.628383"/>
     <use style="fill:#2792cb;stroke:#2792cb;" x="978.090789" xlink:href="#m60b8cb47af" y="461.274424"/>
     <use style="fill:#2792cb;stroke:#2792cb;" x="996.100471" xlink:href="#m60b8cb47af" y="460.33284"/>
     <use style="fill:#2792cb;stroke:#2792cb;" x="1002.103699" xlink:href="#m60b8cb47af" y="459.862048"/>
     <use style="fill:#2792cb;stroke:#2792cb;" x="1008.106926" xlink:href="#m60b8cb47af" y="459.391256"/>
     <use style="fill:#2792cb;stroke:#2792cb;" x="1014.110154" xlink:href="#m60b8cb47af" y="463.628383"/>
     <use style="fill:#2792cb;stroke:#2792cb;" x="1020.113382" xlink:href="#m60b8cb47af" y="463.157591"/>
     <use style="fill:#2792cb;stroke:#2792cb;" x="1038.123064" xlink:href="#m60b8cb47af" y="466.453134"/>
     <use style="fill:#2792cb;stroke:#2792cb;" x="1044.126292" xlink:href="#m60b8cb47af" y="469.277885"/>
     <use style="fill:#2792cb;stroke:#2792cb;" x="1050.129519" xlink:href="#m60b8cb47af" y="467.86551"/>
     <use style="fill:#2792cb;stroke:#2792cb;" x="1056.132747" xlink:href="#m60b8cb47af" y="470.219469"/>
     <use style="fill:#2792cb;stroke:#2792cb;" x="1062.135974" xlink:href="#m60b8cb47af" y="471.161053"/>
     <use style="fill:#2792cb;stroke:#2792cb;" x="1080.145657" xlink:href="#m60b8cb47af" y="473.515012"/>
     <use style="fill:#2792cb;stroke:#2792cb;" x="1086.148884" xlink:href="#m60b8cb47af" y="473.04422"/>
     <use style="fill:#2792cb;stroke:#2792cb;" x="1092.152112" xlink:href="#m60b8cb47af" y="472.573428"/>
     <use style="fill:#2792cb;stroke:#2792cb;" x="1098.15534" xlink:href="#m60b8cb47af" y="474.456596"/>
     <use style="fill:#2792cb;stroke:#2792cb;" x="1104.158567" xlink:href="#m60b8cb47af" y="474.927388"/>
     <use style="fill:#2792cb;stroke:#2792cb;" x="1122.16825" xlink:href="#m60b8cb47af" y="473.515012"/>
     <use style="fill:#2792cb;stroke:#2792cb;" x="1128.171477" xlink:href="#m60b8cb47af" y="474.927388"/>
    </g>
   </g>
   <g id="patch_3">
    <path d="M 62.89875 501.738984 
L 1178.89875 501.738984 
" style="fill:none;stroke:#000000;stroke-linecap:square;stroke-linejoin:miter;stroke-width:0.8;"/>
   </g>
   <g id="legend_1">
    <g id="line2d_31">
     <path d="M 71.89875 25.237422 
L 91.89875 25.237422 
" style="fill:none;stroke:#dbcd00;stroke-linecap:square;stroke-width:2;"/>
    </g>
    <g id="line2d_32">
     <g>
      <use style="fill:#dbcd00;stroke:#dbcd00;" x="81.89875" xlink:href="#mead11aa733" y="25.237422"/>
     </g>
    </g>
    <g id="text_19">
     <!-- Genesene -->
     <defs>
      <path d="M 59.515625 10.40625 
L 59.515625 29.984375 
L 43.40625 29.984375 
L 43.40625 38.09375 
L 69.28125 38.09375 
L 69.28125 6.78125 
Q 63.578125 2.734375 56.6875 0.65625 
Q 49.8125 -1.421875 42 -1.421875 
Q 24.90625 -1.421875 15.25 8.5625 
Q 5.609375 18.5625 5.609375 36.375 
Q 5.609375 54.25 15.25 64.234375 
Q 24.90625 74.21875 42 74.21875 
Q 49.125 74.21875 55.546875 72.453125 
Q 61.96875 70.703125 67.390625 67.28125 
L 67.390625 56.78125 
Q 61.921875 61.421875 55.765625 63.765625 
Q 49.609375 66.109375 42.828125 66.109375 
Q 29.4375 66.109375 22.71875 58.640625 
Q 16.015625 51.171875 16.015625 36.375 
Q 16.015625 21.625 22.71875 14.15625 
Q 29.4375 6.6875 42.828125 6.6875 
Q 48.046875 6.6875 52.140625 7.59375 
Q 56.25 8.5 59.515625 10.40625 
z
" id="DejaVuSans-71"/>
      <path d="M 44.28125 53.078125 
L 44.28125 44.578125 
Q 40.484375 46.53125 36.375 47.5 
Q 32.28125 48.484375 27.875 48.484375 
Q 21.1875 48.484375 17.84375 46.4375 
Q 14.5 44.390625 14.5 40.28125 
Q 14.5 37.15625 16.890625 35.375 
Q 19.28125 33.59375 26.515625 31.984375 
L 29.59375 31.296875 
Q 39.15625 29.25 43.1875 25.515625 
Q 47.21875 21.78125 47.21875 15.09375 
Q 47.21875 7.46875 41.1875 3.015625 
Q 35.15625 -1.421875 24.609375 -1.421875 
Q 20.21875 -1.421875 15.453125 -0.5625 
Q 10.6875 0.296875 5.421875 2 
L 5.421875 11.28125 
Q 10.40625 8.6875 15.234375 7.390625 
Q 20.0625 6.109375 24.8125 6.109375 
Q 31.15625 6.109375 34.5625 8.28125 
Q 37.984375 10.453125 37.984375 14.40625 
Q 37.984375 18.0625 35.515625 20.015625 
Q 33.0625 21.96875 24.703125 23.78125 
L 21.578125 24.515625 
Q 13.234375 26.265625 9.515625 29.90625 
Q 5.8125 33.546875 5.8125 39.890625 
Q 5.8125 47.609375 11.28125 51.796875 
Q 16.75 56 26.8125 56 
Q 31.78125 56 36.171875 55.265625 
Q 40.578125 54.546875 44.28125 53.078125 
z
" id="DejaVuSans-115"/>
     </defs>
     <g transform="translate(99.89875 28.737422)scale(0.1 -0.1)">
      <use xlink:href="#DejaVuSans-71"/>
      <use x="77.490234" xlink:href="#DejaVuSans-101"/>
      <use x="139.013672" xlink:href="#DejaVuSans-110"/>
      <use x="202.392578" xlink:href="#DejaVuSans-101"/>
      <use x="263.916016" xlink:href="#DejaVuSans-115"/>
      <use x="316.015625" xlink:href="#DejaVuSans-101"/>
      <use x="377.539062" xlink:href="#DejaVuSans-110"/>
      <use x="440.917969" xlink:href="#DejaVuSans-101"/>
     </g>
    </g>
    <g id="line2d_33">
     <path d="M 71.89875 39.915547 
L 91.89875 39.915547 
" style="fill:none;stroke:#2792cb;stroke-linecap:square;stroke-width:2;"/>
    </g>
    <g id="line2d_34">
     <g>
      <use style="fill:#2792cb;stroke:#2792cb;" x="81.89875" xlink:href="#m60b8cb47af" y="39.915547"/>
     </g>
    </g>
    <g id="text_20">
     <!-- Erkrankte -->
     <defs>
      <path d="M 9.8125 72.90625 
L 55.90625 72.90625 
L 55.90625 64.59375 
L 19.671875 64.59375 
L 19.671875 43.015625 
L 54.390625 43.015625 
L 54.390625 34.71875 
L 19.671875 34.71875 
L 19.671875 8.296875 
L 56.78125 8.296875 
L 56.78125 0 
L 9.8125 0 
z
" id="DejaVuSans-69"/>
      <path d="M 41.109375 46.296875 
Q 39.59375 47.171875 37.8125 47.578125 
Q 36.03125 48 33.890625 48 
Q 26.265625 48 22.1875 43.046875 
Q 18.109375 38.09375 18.109375 28.8125 
L 18.109375 0 
L 9.078125 0 
L 9.078125 54.6875 
L 18.109375 54.6875 
L 18.109375 46.1875 
Q 20.953125 51.171875 25.484375 53.578125 
Q 30.03125 56 36.53125 56 
Q 37.453125 56 38.578125 55.875 
Q 39.703125 55.765625 41.0625 55.515625 
z
" id="DejaVuSans-114"/>
      <path d="M 9.078125 75.984375 
L 18.109375 75.984375 
L 18.109375 31.109375 
L 44.921875 54.6875 
L 56.390625 54.6875 
L 27.390625 29.109375 
L 57.625 0 
L 45.90625 0 
L 18.109375 26.703125 
L 18.109375 0 
L 9.078125 0 
z
" id="DejaVuSans-107"/>
      <path d="M 18.3125 70.21875 
L 18.3125 54.6875 
L 36.8125 54.6875 
L 36.8125 47.703125 
L 18.3125 47.703125 
L 18.3125 18.015625 
Q 18.3125 11.328125 20.140625 9.421875 
Q 21.96875 7.515625 27.59375 7.515625 
L 36.8125 7.515625 
L 36.8125 0 
L 27.59375 0 
Q 17.1875 0 13.234375 3.875 
Q 9.28125 7.765625 9.28125 18.015625 
L 9.28125 47.703125 
L 2.6875 47.703125 
L 2.6875 54.6875 
L 9.28125 54.6875 
L 9.28125 70.21875 
z
" id="DejaVuSans-116"/>
     </defs>
     <g transform="translate(99.89875 43.415547)scale(0.1 -0.1)">
      <use xlink:href="#DejaVuSans-69"/>
      <use x="63.183594" xlink:href="#DejaVuSans-114"/>
      <use x="104.296875" xlink:href="#DejaVuSans-107"/>
      <use x="162.207031" xlink:href="#DejaVuSans-114"/>
      <use x="203.320312" xlink:href="#DejaVuSans-97"/>
      <use x="264.599609" xlink:href="#DejaVuSans-110"/>
      <use x="327.978516" xlink:href="#DejaVuSans-107"/>
      <use x="385.888672" xlink:href="#DejaVuSans-116"/>
      <use x="425.097656" xlink:href="#DejaVuSans-101"/>
     </g>
    </g>
   </g>
  </g>
 </g>
 <defs>
  <clipPath id="p3c5126bab6">
   <rect height="489.6" width="1116" x="62.89875" y="12.138984"/>
  </clipPath>
 </defs>
</svg>
