<?xml version="1.0" encoding="utf-8" standalone="no"?>
<!DOCTYPE svg PUBLIC "-//W3C//DTD SVG 1.1//EN"
  "http://www.w3.org/Graphics/SVG/1.1/DTD/svg11.dtd">
<!-- Created with matplotlib (https://matplotlib.org/) -->
<svg height="553.993765pt" version="1.1" viewBox="0 0 1186.09875 553.993765" width="1186.09875pt" xmlns="http://www.w3.org/2000/svg" xmlns:xlink="http://www.w3.org/1999/xlink">
 <defs>
  <style type="text/css">
*{stroke-linecap:butt;stroke-linejoin:round;}
  </style>
 </defs>
 <g id="figure_1">
  <g id="patch_1">
   <path d="M 0 553.993765 
L 1186.09875 553.993765 
L 1186.09875 0 
L 0 0 
z
" style="fill:#ffffff;"/>
  </g>
  <g id="axes_1">
   <g id="patch_2">
    <path d="M 62.89875 501.738984 
L 1178.89875 501.738984 
L 1178.89875 12.138984 
L 62.89875 12.138984 
z
" style="fill:#ffffff;"/>
   </g>
   <g id="matplotlib.axis_1">
    <g id="xtick_1">
     <g id="line2d_1">
      <defs>
       <path d="M 0 0 
L 0 3.5 
" id="m1d2b3a620b" style="stroke:#000000;stroke-width:0.8;"/>
      </defs>
      <g>
       <use style="stroke:#000000;stroke-width:0.8;" x="226.353295" xlink:href="#m1d2b3a620b" y="501.738984"/>
      </g>
     </g>
     <g id="text_1">
      <!-- 2020-04 -->
      <defs>
       <path d="M 19.1875 8.296875 
L 53.609375 8.296875 
L 53.609375 0 
L 7.328125 0 
L 7.328125 8.296875 
Q 12.9375 14.109375 22.625 23.890625 
Q 32.328125 33.6875 34.8125 36.53125 
Q 39.546875 41.84375 41.421875 45.53125 
Q 43.3125 49.21875 43.3125 52.78125 
Q 43.3125 58.59375 39.234375 62.25 
Q 35.15625 65.921875 28.609375 65.921875 
Q 23.96875 65.921875 18.8125 64.3125 
Q 13.671875 62.703125 7.8125 59.421875 
L 7.8125 69.390625 
Q 13.765625 71.78125 18.9375 73 
Q 24.125 74.21875 28.421875 74.21875 
Q 39.75 74.21875 46.484375 68.546875 
Q 53.21875 62.890625 53.21875 53.421875 
Q 53.21875 48.921875 51.53125 44.890625 
Q 49.859375 40.875 45.40625 35.40625 
Q 44.1875 33.984375 37.640625 27.21875 
Q 31.109375 20.453125 19.1875 8.296875 
z
" id="DejaVuSans-50"/>
       <path d="M 31.78125 66.40625 
Q 24.171875 66.40625 20.328125 58.90625 
Q 16.5 51.421875 16.5 36.375 
Q 16.5 21.390625 20.328125 13.890625 
Q 24.171875 6.390625 31.78125 6.390625 
Q 39.453125 6.390625 43.28125 13.890625 
Q 47.125 21.390625 47.125 36.375 
Q 47.125 51.421875 43.28125 58.90625 
Q 39.453125 66.40625 31.78125 66.40625 
z
M 31.78125 74.21875 
Q 44.046875 74.21875 50.515625 64.515625 
Q 56.984375 54.828125 56.984375 36.375 
Q 56.984375 17.96875 50.515625 8.265625 
Q 44.046875 -1.421875 31.78125 -1.421875 
Q 19.53125 -1.421875 13.0625 8.265625 
Q 6.59375 17.96875 6.59375 36.375 
Q 6.59375 54.828125 13.0625 64.515625 
Q 19.53125 74.21875 31.78125 74.21875 
z
" id="DejaVuSans-48"/>
       <path d="M 4.890625 31.390625 
L 31.203125 31.390625 
L 31.203125 23.390625 
L 4.890625 23.390625 
z
" id="DejaVuSans-45"/>
       <path d="M 37.796875 64.3125 
L 12.890625 25.390625 
L 37.796875 25.390625 
z
M 35.203125 72.90625 
L 47.609375 72.90625 
L 47.609375 25.390625 
L 58.015625 25.390625 
L 58.015625 17.1875 
L 47.609375 17.1875 
L 47.609375 0 
L 37.796875 0 
L 37.796875 17.1875 
L 4.890625 17.1875 
L 4.890625 26.703125 
z
" id="DejaVuSans-52"/>
      </defs>
      <g transform="translate(177.961028 544.452384)rotate(-30)scale(0.13 -0.13)">
       <use xlink:href="#DejaVuSans-50"/>
       <use x="63.623047" xlink:href="#DejaVuSans-48"/>
       <use x="127.246094" xlink:href="#DejaVuSans-50"/>
       <use x="190.869141" xlink:href="#DejaVuSans-48"/>
       <use x="254.492188" xlink:href="#DejaVuSans-45"/>
       <use x="290.576172" xlink:href="#DejaVuSans-48"/>
       <use x="354.199219" xlink:href="#DejaVuSans-52"/>
      </g>
     </g>
    </g>
    <g id="xtick_2">
     <g id="line2d_2">
      <g>
       <use style="stroke:#000000;stroke-width:0.8;" x="395.444205" xlink:href="#m1d2b3a620b" y="501.738984"/>
      </g>
     </g>
     <g id="text_2">
      <!-- 2020-05 -->
      <defs>
       <path d="M 10.796875 72.90625 
L 49.515625 72.90625 
L 49.515625 64.59375 
L 19.828125 64.59375 
L 19.828125 46.734375 
Q 21.96875 47.46875 24.109375 47.828125 
Q 26.265625 48.1875 28.421875 48.1875 
Q 40.625 48.1875 47.75 41.5 
Q 54.890625 34.8125 54.890625 23.390625 
Q 54.890625 11.625 47.5625 5.09375 
Q 40.234375 -1.421875 26.90625 -1.421875 
Q 22.3125 -1.421875 17.546875 -0.640625 
Q 12.796875 0.140625 7.71875 1.703125 
L 7.71875 11.625 
Q 12.109375 9.234375 16.796875 8.0625 
Q 21.484375 6.890625 26.703125 6.890625 
Q 35.15625 6.890625 40.078125 11.328125 
Q 45.015625 15.765625 45.015625 23.390625 
Q 45.015625 31 40.078125 35.4375 
Q 35.15625 39.890625 26.703125 39.890625 
Q 22.75 39.890625 18.8125 39.015625 
Q 14.890625 38.140625 10.796875 36.28125 
z
" id="DejaVuSans-53"/>
      </defs>
      <g transform="translate(347.051937 544.452384)rotate(-30)scale(0.13 -0.13)">
       <use xlink:href="#DejaVuSans-50"/>
       <use x="63.623047" xlink:href="#DejaVuSans-48"/>
       <use x="127.246094" xlink:href="#DejaVuSans-50"/>
       <use x="190.869141" xlink:href="#DejaVuSans-48"/>
       <use x="254.492188" xlink:href="#DejaVuSans-45"/>
       <use x="290.576172" xlink:href="#DejaVuSans-48"/>
       <use x="354.199219" xlink:href="#DejaVuSans-53"/>
      </g>
     </g>
    </g>
    <g id="xtick_3">
     <g id="line2d_3">
      <g>
       <use style="stroke:#000000;stroke-width:0.8;" x="570.171477" xlink:href="#m1d2b3a620b" y="501.738984"/>
      </g>
     </g>
     <g id="text_3">
      <!-- 2020-06 -->
      <defs>
       <path d="M 33.015625 40.375 
Q 26.375 40.375 22.484375 35.828125 
Q 18.609375 31.296875 18.609375 23.390625 
Q 18.609375 15.53125 22.484375 10.953125 
Q 26.375 6.390625 33.015625 6.390625 
Q 39.65625 6.390625 43.53125 10.953125 
Q 47.40625 15.53125 47.40625 23.390625 
Q 47.40625 31.296875 43.53125 35.828125 
Q 39.65625 40.375 33.015625 40.375 
z
M 52.59375 71.296875 
L 52.59375 62.3125 
Q 48.875 64.0625 45.09375 64.984375 
Q 41.3125 65.921875 37.59375 65.921875 
Q 27.828125 65.921875 22.671875 59.328125 
Q 17.53125 52.734375 16.796875 39.40625 
Q 19.671875 43.65625 24.015625 45.921875 
Q 28.375 48.1875 33.59375 48.1875 
Q 44.578125 48.1875 50.953125 41.515625 
Q 57.328125 34.859375 57.328125 23.390625 
Q 57.328125 12.15625 50.6875 5.359375 
Q 44.046875 -1.421875 33.015625 -1.421875 
Q 20.359375 -1.421875 13.671875 8.265625 
Q 6.984375 17.96875 6.984375 36.375 
Q 6.984375 53.65625 15.1875 63.9375 
Q 23.390625 74.21875 37.203125 74.21875 
Q 40.921875 74.21875 44.703125 73.484375 
Q 48.484375 72.75 52.59375 71.296875 
z
" id="DejaVuSans-54"/>
      </defs>
      <g transform="translate(521.77921 544.452384)rotate(-30)scale(0.13 -0.13)">
       <use xlink:href="#DejaVuSans-50"/>
       <use x="63.623047" xlink:href="#DejaVuSans-48"/>
       <use x="127.246094" xlink:href="#DejaVuSans-50"/>
       <use x="190.869141" xlink:href="#DejaVuSans-48"/>
       <use x="254.492188" xlink:href="#DejaVuSans-45"/>
       <use x="290.576172" xlink:href="#DejaVuSans-48"/>
       <use x="354.199219" xlink:href="#DejaVuSans-54"/>
      </g>
     </g>
    </g>
    <g id="xtick_4">
     <g id="line2d_4">
      <g>
       <use style="stroke:#000000;stroke-width:0.8;" x="739.262386" xlink:href="#m1d2b3a620b" y="501.738984"/>
      </g>
     </g>
     <g id="text_4">
      <!-- 2020-07 -->
      <defs>
       <path d="M 8.203125 72.90625 
L 55.078125 72.90625 
L 55.078125 68.703125 
L 28.609375 0 
L 18.3125 0 
L 43.21875 64.59375 
L 8.203125 64.59375 
z
" id="DejaVuSans-55"/>
      </defs>
      <g transform="translate(690.870119 544.452384)rotate(-30)scale(0.13 -0.13)">
       <use xlink:href="#DejaVuSans-50"/>
       <use x="63.623047" xlink:href="#DejaVuSans-48"/>
       <use x="127.246094" xlink:href="#DejaVuSans-50"/>
       <use x="190.869141" xlink:href="#DejaVuSans-48"/>
       <use x="254.492188" xlink:href="#DejaVuSans-45"/>
       <use x="290.576172" xlink:href="#DejaVuSans-48"/>
       <use x="354.199219" xlink:href="#DejaVuSans-55"/>
      </g>
     </g>
    </g>
    <g id="xtick_5">
     <g id="line2d_5">
      <g>
       <use style="stroke:#000000;stroke-width:0.8;" x="913.989659" xlink:href="#m1d2b3a620b" y="501.738984"/>
      </g>
     </g>
     <g id="text_5">
      <!-- 2020-08 -->
      <defs>
       <path d="M 31.78125 34.625 
Q 24.75 34.625 20.71875 30.859375 
Q 16.703125 27.09375 16.703125 20.515625 
Q 16.703125 13.921875 20.71875 10.15625 
Q 24.75 6.390625 31.78125 6.390625 
Q 38.8125 6.390625 42.859375 10.171875 
Q 46.921875 13.96875 46.921875 20.515625 
Q 46.921875 27.09375 42.890625 30.859375 
Q 38.875 34.625 31.78125 34.625 
z
M 21.921875 38.8125 
Q 15.578125 40.375 12.03125 44.71875 
Q 8.5 49.078125 8.5 55.328125 
Q 8.5 64.0625 14.71875 69.140625 
Q 20.953125 74.21875 31.78125 74.21875 
Q 42.671875 74.21875 48.875 69.140625 
Q 55.078125 64.0625 55.078125 55.328125 
Q 55.078125 49.078125 51.53125 44.71875 
Q 48 40.375 41.703125 38.8125 
Q 48.828125 37.15625 52.796875 32.3125 
Q 56.78125 27.484375 56.78125 20.515625 
Q 56.78125 9.90625 50.3125 4.234375 
Q 43.84375 -1.421875 31.78125 -1.421875 
Q 19.734375 -1.421875 13.25 4.234375 
Q 6.78125 9.90625 6.78125 20.515625 
Q 6.78125 27.484375 10.78125 32.3125 
Q 14.796875 37.15625 21.921875 38.8125 
z
M 18.3125 54.390625 
Q 18.3125 48.734375 21.84375 45.5625 
Q 25.390625 42.390625 31.78125 42.390625 
Q 38.140625 42.390625 41.71875 45.5625 
Q 45.3125 48.734375 45.3125 54.390625 
Q 45.3125 60.0625 41.71875 63.234375 
Q 38.140625 66.40625 31.78125 66.40625 
Q 25.390625 66.40625 21.84375 63.234375 
Q 18.3125 60.0625 18.3125 54.390625 
z
" id="DejaVuSans-56"/>
      </defs>
      <g transform="translate(865.597392 544.452384)rotate(-30)scale(0.13 -0.13)">
       <use xlink:href="#DejaVuSans-50"/>
       <use x="63.623047" xlink:href="#DejaVuSans-48"/>
       <use x="127.246094" xlink:href="#DejaVuSans-50"/>
       <use x="190.869141" xlink:href="#DejaVuSans-48"/>
       <use x="254.492188" xlink:href="#DejaVuSans-45"/>
       <use x="290.576172" xlink:href="#DejaVuSans-48"/>
       <use x="354.199219" xlink:href="#DejaVuSans-56"/>
      </g>
     </g>
    </g>
    <g id="xtick_6">
     <g id="line2d_6">
      <g>
       <use style="stroke:#000000;stroke-width:0.8;" x="1088.716932" xlink:href="#m1d2b3a620b" y="501.738984"/>
      </g>
     </g>
     <g id="text_6">
      <!-- 2020-09 -->
      <defs>
       <path d="M 10.984375 1.515625 
L 10.984375 10.5 
Q 14.703125 8.734375 18.5 7.8125 
Q 22.3125 6.890625 25.984375 6.890625 
Q 35.75 6.890625 40.890625 13.453125 
Q 46.046875 20.015625 46.78125 33.40625 
Q 43.953125 29.203125 39.59375 26.953125 
Q 35.25 24.703125 29.984375 24.703125 
Q 19.046875 24.703125 12.671875 31.3125 
Q 6.296875 37.9375 6.296875 49.421875 
Q 6.296875 60.640625 12.9375 67.421875 
Q 19.578125 74.21875 30.609375 74.21875 
Q 43.265625 74.21875 49.921875 64.515625 
Q 56.59375 54.828125 56.59375 36.375 
Q 56.59375 19.140625 48.40625 8.859375 
Q 40.234375 -1.421875 26.421875 -1.421875 
Q 22.703125 -1.421875 18.890625 -0.6875 
Q 15.09375 0.046875 10.984375 1.515625 
z
M 30.609375 32.421875 
Q 37.25 32.421875 41.125 36.953125 
Q 45.015625 41.5 45.015625 49.421875 
Q 45.015625 57.28125 41.125 61.84375 
Q 37.25 66.40625 30.609375 66.40625 
Q 23.96875 66.40625 20.09375 61.84375 
Q 16.21875 57.28125 16.21875 49.421875 
Q 16.21875 41.5 20.09375 36.953125 
Q 23.96875 32.421875 30.609375 32.421875 
z
" id="DejaVuSans-57"/>
      </defs>
      <g transform="translate(1040.324665 544.452384)rotate(-30)scale(0.13 -0.13)">
       <use xlink:href="#DejaVuSans-50"/>
       <use x="63.623047" xlink:href="#DejaVuSans-48"/>
       <use x="127.246094" xlink:href="#DejaVuSans-50"/>
       <use x="190.869141" xlink:href="#DejaVuSans-48"/>
       <use x="254.492188" xlink:href="#DejaVuSans-45"/>
       <use x="290.576172" xlink:href="#DejaVuSans-48"/>
       <use x="354.199219" xlink:href="#DejaVuSans-57"/>
      </g>
     </g>
    </g>
   </g>
   <g id="matplotlib.axis_2">
    <g id="ytick_1">
     <g id="line2d_7">
      <path clip-path="url(#p1c548567b8)" d="M 62.89875 480.052971 
L 1178.89875 480.052971 
" style="fill:none;stroke:#b0b0b0;stroke-linecap:square;stroke-width:0.8;"/>
     </g>
     <g id="line2d_8">
      <defs>
       <path d="M 0 0 
L -3.5 0 
" id="mbd227098ca" style="stroke:#000000;stroke-width:0.8;"/>
      </defs>
      <g>
       <use style="stroke:#000000;stroke-width:0.8;" x="62.89875" xlink:href="#mbd227098ca" y="480.052971"/>
      </g>
     </g>
     <g id="text_7">
      <!-- 0 -->
      <g transform="translate(47.6275 484.991955)scale(0.13 -0.13)">
       <use xlink:href="#DejaVuSans-48"/>
      </g>
     </g>
    </g>
    <g id="ytick_2">
     <g id="line2d_9">
      <path clip-path="url(#p1c548567b8)" d="M 62.89875 444.059587 
L 1178.89875 444.059587 
" style="fill:none;stroke:#b0b0b0;stroke-linecap:square;stroke-width:0.8;"/>
     </g>
     <g id="line2d_10">
      <g>
       <use style="stroke:#000000;stroke-width:0.8;" x="62.89875" xlink:href="#mbd227098ca" y="444.059587"/>
      </g>
     </g>
     <g id="text_8">
      <!-- 100 -->
      <defs>
       <path d="M 12.40625 8.296875 
L 28.515625 8.296875 
L 28.515625 63.921875 
L 10.984375 60.40625 
L 10.984375 69.390625 
L 28.421875 72.90625 
L 38.28125 72.90625 
L 38.28125 8.296875 
L 54.390625 8.296875 
L 54.390625 0 
L 12.40625 0 
z
" id="DejaVuSans-49"/>
      </defs>
      <g transform="translate(31.085 448.998572)scale(0.13 -0.13)">
       <use xlink:href="#DejaVuSans-49"/>
       <use x="63.623047" xlink:href="#DejaVuSans-48"/>
       <use x="127.246094" xlink:href="#DejaVuSans-48"/>
      </g>
     </g>
    </g>
    <g id="ytick_3">
     <g id="line2d_11">
      <path clip-path="url(#p1c548567b8)" d="M 62.89875 408.066204 
L 1178.89875 408.066204 
" style="fill:none;stroke:#b0b0b0;stroke-linecap:square;stroke-width:0.8;"/>
     </g>
     <g id="line2d_12">
      <g>
       <use style="stroke:#000000;stroke-width:0.8;" x="62.89875" xlink:href="#mbd227098ca" y="408.066204"/>
      </g>
     </g>
     <g id="text_9">
      <!-- 200 -->
      <g transform="translate(31.085 413.005188)scale(0.13 -0.13)">
       <use xlink:href="#DejaVuSans-50"/>
       <use x="63.623047" xlink:href="#DejaVuSans-48"/>
       <use x="127.246094" xlink:href="#DejaVuSans-48"/>
      </g>
     </g>
    </g>
    <g id="ytick_4">
     <g id="line2d_13">
      <path clip-path="url(#p1c548567b8)" d="M 62.89875 372.07282 
L 1178.89875 372.07282 
" style="fill:none;stroke:#b0b0b0;stroke-linecap:square;stroke-width:0.8;"/>
     </g>
     <g id="line2d_14">
      <g>
       <use style="stroke:#000000;stroke-width:0.8;" x="62.89875" xlink:href="#mbd227098ca" y="372.07282"/>
      </g>
     </g>
     <g id="text_10">
      <!-- 300 -->
      <defs>
       <path d="M 40.578125 39.3125 
Q 47.65625 37.796875 51.625 33 
Q 55.609375 28.21875 55.609375 21.1875 
Q 55.609375 10.40625 48.1875 4.484375 
Q 40.765625 -1.421875 27.09375 -1.421875 
Q 22.515625 -1.421875 17.65625 -0.515625 
Q 12.796875 0.390625 7.625 2.203125 
L 7.625 11.71875 
Q 11.71875 9.328125 16.59375 8.109375 
Q 21.484375 6.890625 26.8125 6.890625 
Q 36.078125 6.890625 40.9375 10.546875 
Q 45.796875 14.203125 45.796875 21.1875 
Q 45.796875 27.640625 41.28125 31.265625 
Q 36.765625 34.90625 28.71875 34.90625 
L 20.21875 34.90625 
L 20.21875 43.015625 
L 29.109375 43.015625 
Q 36.375 43.015625 40.234375 45.921875 
Q 44.09375 48.828125 44.09375 54.296875 
Q 44.09375 59.90625 40.109375 62.90625 
Q 36.140625 65.921875 28.71875 65.921875 
Q 24.65625 65.921875 20.015625 65.03125 
Q 15.375 64.15625 9.8125 62.3125 
L 9.8125 71.09375 
Q 15.4375 72.65625 20.34375 73.4375 
Q 25.25 74.21875 29.59375 74.21875 
Q 40.828125 74.21875 47.359375 69.109375 
Q 53.90625 64.015625 53.90625 55.328125 
Q 53.90625 49.265625 50.4375 45.09375 
Q 46.96875 40.921875 40.578125 39.3125 
z
" id="DejaVuSans-51"/>
      </defs>
      <g transform="translate(31.085 377.011804)scale(0.13 -0.13)">
       <use xlink:href="#DejaVuSans-51"/>
       <use x="63.623047" xlink:href="#DejaVuSans-48"/>
       <use x="127.246094" xlink:href="#DejaVuSans-48"/>
      </g>
     </g>
    </g>
    <g id="ytick_5">
     <g id="line2d_15">
      <path clip-path="url(#p1c548567b8)" d="M 62.89875 336.079436 
L 1178.89875 336.079436 
" style="fill:none;stroke:#b0b0b0;stroke-linecap:square;stroke-width:0.8;"/>
     </g>
     <g id="line2d_16">
      <g>
       <use style="stroke:#000000;stroke-width:0.8;" x="62.89875" xlink:href="#mbd227098ca" y="336.079436"/>
      </g>
     </g>
     <g id="text_11">
      <!-- 400 -->
      <g transform="translate(31.085 341.018421)scale(0.13 -0.13)">
       <use xlink:href="#DejaVuSans-52"/>
       <use x="63.623047" xlink:href="#DejaVuSans-48"/>
       <use x="127.246094" xlink:href="#DejaVuSans-48"/>
      </g>
     </g>
    </g>
    <g id="ytick_6">
     <g id="line2d_17">
      <path clip-path="url(#p1c548567b8)" d="M 62.89875 300.086053 
L 1178.89875 300.086053 
" style="fill:none;stroke:#b0b0b0;stroke-linecap:square;stroke-width:0.8;"/>
     </g>
     <g id="line2d_18">
      <g>
       <use style="stroke:#000000;stroke-width:0.8;" x="62.89875" xlink:href="#mbd227098ca" y="300.086053"/>
      </g>
     </g>
     <g id="text_12">
      <!-- 500 -->
      <g transform="translate(31.085 305.025037)scale(0.13 -0.13)">
       <use xlink:href="#DejaVuSans-53"/>
       <use x="63.623047" xlink:href="#DejaVuSans-48"/>
       <use x="127.246094" xlink:href="#DejaVuSans-48"/>
      </g>
     </g>
    </g>
    <g id="ytick_7">
     <g id="line2d_19">
      <path clip-path="url(#p1c548567b8)" d="M 62.89875 264.092669 
L 1178.89875 264.092669 
" style="fill:none;stroke:#b0b0b0;stroke-linecap:square;stroke-width:0.8;"/>
     </g>
     <g id="line2d_20">
      <g>
       <use style="stroke:#000000;stroke-width:0.8;" x="62.89875" xlink:href="#mbd227098ca" y="264.092669"/>
      </g>
     </g>
     <g id="text_13">
      <!-- 600 -->
      <g transform="translate(31.085 269.031654)scale(0.13 -0.13)">
       <use xlink:href="#DejaVuSans-54"/>
       <use x="63.623047" xlink:href="#DejaVuSans-48"/>
       <use x="127.246094" xlink:href="#DejaVuSans-48"/>
      </g>
     </g>
    </g>
    <g id="ytick_8">
     <g id="line2d_21">
      <path clip-path="url(#p1c548567b8)" d="M 62.89875 228.099286 
L 1178.89875 228.099286 
" style="fill:none;stroke:#b0b0b0;stroke-linecap:square;stroke-width:0.8;"/>
     </g>
     <g id="line2d_22">
      <g>
       <use style="stroke:#000000;stroke-width:0.8;" x="62.89875" xlink:href="#mbd227098ca" y="228.099286"/>
      </g>
     </g>
     <g id="text_14">
      <!-- 700 -->
      <g transform="translate(31.085 233.03827)scale(0.13 -0.13)">
       <use xlink:href="#DejaVuSans-55"/>
       <use x="63.623047" xlink:href="#DejaVuSans-48"/>
       <use x="127.246094" xlink:href="#DejaVuSans-48"/>
      </g>
     </g>
    </g>
    <g id="ytick_9">
     <g id="line2d_23">
      <path clip-path="url(#p1c548567b8)" d="M 62.89875 192.105902 
L 1178.89875 192.105902 
" style="fill:none;stroke:#b0b0b0;stroke-linecap:square;stroke-width:0.8;"/>
     </g>
     <g id="line2d_24">
      <g>
       <use style="stroke:#000000;stroke-width:0.8;" x="62.89875" xlink:href="#mbd227098ca" y="192.105902"/>
      </g>
     </g>
     <g id="text_15">
      <!-- 800 -->
      <g transform="translate(31.085 197.044887)scale(0.13 -0.13)">
       <use xlink:href="#DejaVuSans-56"/>
       <use x="63.623047" xlink:href="#DejaVuSans-48"/>
       <use x="127.246094" xlink:href="#DejaVuSans-48"/>
      </g>
     </g>
    </g>
    <g id="ytick_10">
     <g id="line2d_25">
      <path clip-path="url(#p1c548567b8)" d="M 62.89875 156.112519 
L 1178.89875 156.112519 
" style="fill:none;stroke:#b0b0b0;stroke-linecap:square;stroke-width:0.8;"/>
     </g>
     <g id="line2d_26">
      <g>
       <use style="stroke:#000000;stroke-width:0.8;" x="62.89875" xlink:href="#mbd227098ca" y="156.112519"/>
      </g>
     </g>
     <g id="text_16">
      <!-- 900 -->
      <g transform="translate(31.085 161.051503)scale(0.13 -0.13)">
       <use xlink:href="#DejaVuSans-57"/>
       <use x="63.623047" xlink:href="#DejaVuSans-48"/>
       <use x="127.246094" xlink:href="#DejaVuSans-48"/>
      </g>
     </g>
    </g>
    <g id="ytick_11">
     <g id="line2d_27">
      <path clip-path="url(#p1c548567b8)" d="M 62.89875 120.119135 
L 1178.89875 120.119135 
" style="fill:none;stroke:#b0b0b0;stroke-linecap:square;stroke-width:0.8;"/>
     </g>
     <g id="line2d_28">
      <g>
       <use style="stroke:#000000;stroke-width:0.8;" x="62.89875" xlink:href="#mbd227098ca" y="120.119135"/>
      </g>
     </g>
     <g id="text_17">
      <!-- 1000 -->
      <g transform="translate(22.81375 125.058119)scale(0.13 -0.13)">
       <use xlink:href="#DejaVuSans-49"/>
       <use x="63.623047" xlink:href="#DejaVuSans-48"/>
       <use x="127.246094" xlink:href="#DejaVuSans-48"/>
       <use x="190.869141" xlink:href="#DejaVuSans-48"/>
      </g>
     </g>
    </g>
    <g id="ytick_12">
     <g id="line2d_29">
      <path clip-path="url(#p1c548567b8)" d="M 62.89875 84.125752 
L 1178.89875 84.125752 
" style="fill:none;stroke:#b0b0b0;stroke-linecap:square;stroke-width:0.8;"/>
     </g>
     <g id="line2d_30">
      <g>
       <use style="stroke:#000000;stroke-width:0.8;" x="62.89875" xlink:href="#mbd227098ca" y="84.125752"/>
      </g>
     </g>
     <g id="text_18">
      <!-- 1100 -->
      <g transform="translate(22.81375 89.064736)scale(0.13 -0.13)">
       <use xlink:href="#DejaVuSans-49"/>
       <use x="63.623047" xlink:href="#DejaVuSans-49"/>
       <use x="127.246094" xlink:href="#DejaVuSans-48"/>
       <use x="190.869141" xlink:href="#DejaVuSans-48"/>
      </g>
     </g>
    </g>
    <g id="ytick_13">
     <g id="line2d_31">
      <path clip-path="url(#p1c548567b8)" d="M 62.89875 48.132368 
L 1178.89875 48.132368 
" style="fill:none;stroke:#b0b0b0;stroke-linecap:square;stroke-width:0.8;"/>
     </g>
     <g id="line2d_32">
      <g>
       <use style="stroke:#000000;stroke-width:0.8;" x="62.89875" xlink:href="#mbd227098ca" y="48.132368"/>
      </g>
     </g>
     <g id="text_19">
      <!-- 1200 -->
      <g transform="translate(22.81375 53.071352)scale(0.13 -0.13)">
       <use xlink:href="#DejaVuSans-49"/>
       <use x="63.623047" xlink:href="#DejaVuSans-50"/>
       <use x="127.246094" xlink:href="#DejaVuSans-48"/>
       <use x="190.869141" xlink:href="#DejaVuSans-48"/>
      </g>
     </g>
    </g>
    <g id="ytick_14">
     <g id="line2d_33">
      <path clip-path="url(#p1c548567b8)" d="M 62.89875 12.138984 
L 1178.89875 12.138984 
" style="fill:none;stroke:#b0b0b0;stroke-linecap:square;stroke-width:0.8;"/>
     </g>
     <g id="line2d_34">
      <g>
       <use style="stroke:#000000;stroke-width:0.8;" x="62.89875" xlink:href="#mbd227098ca" y="12.138984"/>
      </g>
     </g>
     <g id="text_20">
      <!-- 1300 -->
      <g transform="translate(22.81375 17.077969)scale(0.13 -0.13)">
       <use xlink:href="#DejaVuSans-49"/>
       <use x="63.623047" xlink:href="#DejaVuSans-51"/>
       <use x="127.246094" xlink:href="#DejaVuSans-48"/>
       <use x="190.869141" xlink:href="#DejaVuSans-48"/>
      </g>
     </g>
    </g>
    <g id="text_21">
     <!-- Anzahl von Fällen -->
     <defs>
      <path d="M 34.1875 63.1875 
L 20.796875 26.90625 
L 47.609375 26.90625 
z
M 28.609375 72.90625 
L 39.796875 72.90625 
L 67.578125 0 
L 57.328125 0 
L 50.6875 18.703125 
L 17.828125 18.703125 
L 11.1875 0 
L 0.78125 0 
z
" id="DejaVuSans-65"/>
      <path d="M 54.890625 33.015625 
L 54.890625 0 
L 45.90625 0 
L 45.90625 32.71875 
Q 45.90625 40.484375 42.875 44.328125 
Q 39.84375 48.1875 33.796875 48.1875 
Q 26.515625 48.1875 22.3125 43.546875 
Q 18.109375 38.921875 18.109375 30.90625 
L 18.109375 0 
L 9.078125 0 
L 9.078125 54.6875 
L 18.109375 54.6875 
L 18.109375 46.1875 
Q 21.34375 51.125 25.703125 53.5625 
Q 30.078125 56 35.796875 56 
Q 45.21875 56 50.046875 50.171875 
Q 54.890625 44.34375 54.890625 33.015625 
z
" id="DejaVuSans-110"/>
      <path d="M 5.515625 54.6875 
L 48.1875 54.6875 
L 48.1875 46.484375 
L 14.40625 7.171875 
L 48.1875 7.171875 
L 48.1875 0 
L 4.296875 0 
L 4.296875 8.203125 
L 38.09375 47.515625 
L 5.515625 47.515625 
z
" id="DejaVuSans-122"/>
      <path d="M 34.28125 27.484375 
Q 23.390625 27.484375 19.1875 25 
Q 14.984375 22.515625 14.984375 16.5 
Q 14.984375 11.71875 18.140625 8.90625 
Q 21.296875 6.109375 26.703125 6.109375 
Q 34.1875 6.109375 38.703125 11.40625 
Q 43.21875 16.703125 43.21875 25.484375 
L 43.21875 27.484375 
z
M 52.203125 31.203125 
L 52.203125 0 
L 43.21875 0 
L 43.21875 8.296875 
Q 40.140625 3.328125 35.546875 0.953125 
Q 30.953125 -1.421875 24.3125 -1.421875 
Q 15.921875 -1.421875 10.953125 3.296875 
Q 6 8.015625 6 15.921875 
Q 6 25.140625 12.171875 29.828125 
Q 18.359375 34.515625 30.609375 34.515625 
L 43.21875 34.515625 
L 43.21875 35.40625 
Q 43.21875 41.609375 39.140625 45 
Q 35.0625 48.390625 27.6875 48.390625 
Q 23 48.390625 18.546875 47.265625 
Q 14.109375 46.140625 10.015625 43.890625 
L 10.015625 52.203125 
Q 14.9375 54.109375 19.578125 55.046875 
Q 24.21875 56 28.609375 56 
Q 40.484375 56 46.34375 49.84375 
Q 52.203125 43.703125 52.203125 31.203125 
z
" id="DejaVuSans-97"/>
      <path d="M 54.890625 33.015625 
L 54.890625 0 
L 45.90625 0 
L 45.90625 32.71875 
Q 45.90625 40.484375 42.875 44.328125 
Q 39.84375 48.1875 33.796875 48.1875 
Q 26.515625 48.1875 22.3125 43.546875 
Q 18.109375 38.921875 18.109375 30.90625 
L 18.109375 0 
L 9.078125 0 
L 9.078125 75.984375 
L 18.109375 75.984375 
L 18.109375 46.1875 
Q 21.34375 51.125 25.703125 53.5625 
Q 30.078125 56 35.796875 56 
Q 45.21875 56 50.046875 50.171875 
Q 54.890625 44.34375 54.890625 33.015625 
z
" id="DejaVuSans-104"/>
      <path d="M 9.421875 75.984375 
L 18.40625 75.984375 
L 18.40625 0 
L 9.421875 0 
z
" id="DejaVuSans-108"/>
      <path id="DejaVuSans-32"/>
      <path d="M 2.984375 54.6875 
L 12.5 54.6875 
L 29.59375 8.796875 
L 46.6875 54.6875 
L 56.203125 54.6875 
L 35.6875 0 
L 23.484375 0 
z
" id="DejaVuSans-118"/>
      <path d="M 30.609375 48.390625 
Q 23.390625 48.390625 19.1875 42.75 
Q 14.984375 37.109375 14.984375 27.296875 
Q 14.984375 17.484375 19.15625 11.84375 
Q 23.34375 6.203125 30.609375 6.203125 
Q 37.796875 6.203125 41.984375 11.859375 
Q 46.1875 17.53125 46.1875 27.296875 
Q 46.1875 37.015625 41.984375 42.703125 
Q 37.796875 48.390625 30.609375 48.390625 
z
M 30.609375 56 
Q 42.328125 56 49.015625 48.375 
Q 55.71875 40.765625 55.71875 27.296875 
Q 55.71875 13.875 49.015625 6.21875 
Q 42.328125 -1.421875 30.609375 -1.421875 
Q 18.84375 -1.421875 12.171875 6.21875 
Q 5.515625 13.875 5.515625 27.296875 
Q 5.515625 40.765625 12.171875 48.375 
Q 18.84375 56 30.609375 56 
z
" id="DejaVuSans-111"/>
      <path d="M 9.8125 72.90625 
L 51.703125 72.90625 
L 51.703125 64.59375 
L 19.671875 64.59375 
L 19.671875 43.109375 
L 48.578125 43.109375 
L 48.578125 34.8125 
L 19.671875 34.8125 
L 19.671875 0 
L 9.8125 0 
z
" id="DejaVuSans-70"/>
      <path d="M 34.28125 27.484375 
Q 23.390625 27.484375 19.1875 25 
Q 14.984375 22.515625 14.984375 16.5 
Q 14.984375 11.71875 18.140625 8.90625 
Q 21.296875 6.109375 26.703125 6.109375 
Q 34.1875 6.109375 38.703125 11.40625 
Q 43.21875 16.703125 43.21875 25.484375 
L 43.21875 27.484375 
z
M 52.203125 31.203125 
L 52.203125 0 
L 43.21875 0 
L 43.21875 8.296875 
Q 40.140625 3.328125 35.546875 0.953125 
Q 30.953125 -1.421875 24.3125 -1.421875 
Q 15.921875 -1.421875 10.953125 3.296875 
Q 6 8.015625 6 15.921875 
Q 6 25.140625 12.171875 29.828125 
Q 18.359375 34.515625 30.609375 34.515625 
L 43.21875 34.515625 
L 43.21875 35.40625 
Q 43.21875 41.609375 39.140625 45 
Q 35.0625 48.390625 27.6875 48.390625 
Q 23 48.390625 18.546875 47.265625 
Q 14.109375 46.140625 10.015625 43.890625 
L 10.015625 52.203125 
Q 14.9375 54.109375 19.578125 55.046875 
Q 24.21875 56 28.609375 56 
Q 40.484375 56 46.34375 49.84375 
Q 52.203125 43.703125 52.203125 31.203125 
z
M 33.59375 75.78125 
L 43.5 75.78125 
L 43.5 65.921875 
L 33.59375 65.921875 
z
M 14.5 75.78125 
L 24.40625 75.78125 
L 24.40625 65.921875 
L 14.5 65.921875 
z
" id="DejaVuSans-228"/>
      <path d="M 56.203125 29.59375 
L 56.203125 25.203125 
L 14.890625 25.203125 
Q 15.484375 15.921875 20.484375 11.0625 
Q 25.484375 6.203125 34.421875 6.203125 
Q 39.59375 6.203125 44.453125 7.46875 
Q 49.3125 8.734375 54.109375 11.28125 
L 54.109375 2.78125 
Q 49.265625 0.734375 44.1875 -0.34375 
Q 39.109375 -1.421875 33.890625 -1.421875 
Q 20.796875 -1.421875 13.15625 6.1875 
Q 5.515625 13.8125 5.515625 26.8125 
Q 5.515625 40.234375 12.765625 48.109375 
Q 20.015625 56 32.328125 56 
Q 43.359375 56 49.78125 48.890625 
Q 56.203125 41.796875 56.203125 29.59375 
z
M 47.21875 32.234375 
Q 47.125 39.59375 43.09375 43.984375 
Q 39.0625 48.390625 32.421875 48.390625 
Q 24.90625 48.390625 20.390625 44.140625 
Q 15.875 39.890625 15.1875 32.171875 
z
" id="DejaVuSans-101"/>
     </defs>
     <g transform="translate(16.318125 309.388359)rotate(-90)scale(0.12 -0.12)">
      <use xlink:href="#DejaVuSans-65"/>
      <use x="68.408203" xlink:href="#DejaVuSans-110"/>
      <use x="131.787109" xlink:href="#DejaVuSans-122"/>
      <use x="184.277344" xlink:href="#DejaVuSans-97"/>
      <use x="245.556641" xlink:href="#DejaVuSans-104"/>
      <use x="308.935547" xlink:href="#DejaVuSans-108"/>
      <use x="336.71875" xlink:href="#DejaVuSans-32"/>
      <use x="368.505859" xlink:href="#DejaVuSans-118"/>
      <use x="427.685547" xlink:href="#DejaVuSans-111"/>
      <use x="488.867188" xlink:href="#DejaVuSans-110"/>
      <use x="552.246094" xlink:href="#DejaVuSans-32"/>
      <use x="584.033203" xlink:href="#DejaVuSans-70"/>
      <use x="632.427734" xlink:href="#DejaVuSans-228"/>
      <use x="693.707031" xlink:href="#DejaVuSans-108"/>
      <use x="721.490234" xlink:href="#DejaVuSans-108"/>
      <use x="749.273438" xlink:href="#DejaVuSans-101"/>
      <use x="810.796875" xlink:href="#DejaVuSans-110"/>
     </g>
    </g>
   </g>
   <g id="line2d_35">
    <path clip-path="url(#p1c548567b8)" d="M 113.626023 480.052971 
L 147.444205 480.052971 
L 158.716932 478.973169 
L 164.353295 476.093699 
L 169.989659 476.093699 
L 175.626023 475.733765 
L 181.262386 474.653963 
L 186.89875 469.254956 
L 192.535114 465.295684 
L 198.171477 463.13608 
L 203.807841 459.176808 
L 209.444205 453.057933 
L 215.080568 451.258264 
L 220.716932 442.979786 
L 226.353295 426.062895 
L 231.989659 415.624814 
L 237.626023 408.786071 
L 243.262386 401.587395 
L 248.89875 391.509247 
L 254.535114 385.030438 
L 260.171477 378.911563 
L 265.807841 369.193349 
L 271.444205 363.794342 
L 277.080568 354.076128 
L 288.353295 345.79765 
L 299.626023 339.318841 
L 305.262386 323.121818 
L 310.89875 323.121818 
L 316.535114 300.086053 
L 322.171477 290.007906 
L 333.444205 268.411875 
L 339.080568 262.293 
L 344.716932 261.573133 
L 350.353295 245.016176 
L 355.989659 245.736044 
L 361.626023 239.257235 
L 372.89875 234.218161 
L 384.171477 225.579749 
L 389.807841 219.820808 
L 401.080568 213.701932 
L 412.353295 211.902263 
L 417.989659 209.382726 
L 423.626023 205.783388 
L 429.262386 200.38438 
L 434.89875 195.345307 
L 440.535114 194.985373 
L 451.807841 192.465836 
L 457.444205 188.866498 
L 463.080568 187.786696 
L 468.716932 186.346961 
L 479.989659 182.747622 
L 496.89875 181.667821 
L 502.535114 178.428416 
L 513.807841 173.029409 
L 519.444205 171.22974 
L 530.716932 159.351923 
L 536.353295 156.112519 
L 547.626023 144.95457 
L 553.262386 144.95457 
L 575.807841 142.075099 
L 581.444205 142.075099 
L 587.080568 140.995298 
L 592.716932 130.197282 
L 598.353295 130.197282 
L 609.626023 122.998606 
L 615.262386 111.120789 
L 620.89875 105.361848 
L 632.171477 102.482377 
L 637.807841 101.402576 
L 649.080568 99.96284 
L 660.353295 97.443303 
L 671.626023 96.363502 
L 677.262386 96.363502 
L 688.535114 95.643634 
L 699.807841 95.643634 
L 705.444205 95.2837 
L 733.626023 95.2837 
L 739.262386 94.203899 
L 744.89875 94.203899 
L 750.535114 93.843965 
L 806.89875 93.843965 
L 818.171477 91.684362 
L 851.989659 91.684362 
L 857.626023 91.324428 
L 863.262386 90.244627 
L 868.89875 89.884693 
L 885.807841 89.524759 
L 897.080568 89.524759 
L 902.716932 87.365156 
L 908.353295 87.365156 
L 964.716932 78.726744 
L 970.353295 78.36681 
L 981.626023 76.207207 
L 987.262386 76.207207 
L 1004.171477 73.327736 
L 1009.807841 73.327736 
L 1015.444205 72.247935 
L 1021.080568 70.448266 
L 1026.716932 70.088332 
L 1043.626023 67.208861 
L 1049.262386 65.769126 
L 1054.89875 65.769126 
L 1060.535114 63.969457 
L 1066.171477 63.249589 
L 1083.080568 63.249589 
L 1088.716932 54.971111 
L 1094.353295 53.531375 
L 1099.989659 50.651905 
L 1105.626023 47.4125 
L 1122.535114 46.692633 
L 1128.171477 46.332699 
L 1128.171477 46.332699 
" style="fill:none;stroke:#dbcd00;stroke-linecap:square;stroke-width:2;"/>
    <defs>
     <path d="M 0 1.5 
C 0.397805 1.5 0.77937 1.341951 1.06066 1.06066 
C 1.341951 0.77937 1.5 0.397805 1.5 0 
C 1.5 -0.397805 1.341951 -0.77937 1.06066 -1.06066 
C 0.77937 -1.341951 0.397805 -1.5 0 -1.5 
C -0.397805 -1.5 -0.77937 -1.341951 -1.06066 -1.06066 
C -1.341951 -0.77937 -1.5 -0.397805 -1.5 0 
C -1.5 0.397805 -1.341951 0.77937 -1.06066 1.06066 
C -0.77937 1.341951 -0.397805 1.5 0 1.5 
z
" id="m8eb81ea917" style="stroke:#dbcd00;"/>
    </defs>
    <g clip-path="url(#p1c548567b8)">
     <use style="fill:#dbcd00;stroke:#dbcd00;" x="113.626023" xlink:href="#m8eb81ea917" y="480.052971"/>
     <use style="fill:#dbcd00;stroke:#dbcd00;" x="119.262386" xlink:href="#m8eb81ea917" y="480.052971"/>
     <use style="fill:#dbcd00;stroke:#dbcd00;" x="124.89875" xlink:href="#m8eb81ea917" y="480.052971"/>
     <use style="fill:#dbcd00;stroke:#dbcd00;" x="130.535114" xlink:href="#m8eb81ea917" y="480.052971"/>
     <use style="fill:#dbcd00;stroke:#dbcd00;" x="136.171477" xlink:href="#m8eb81ea917" y="480.052971"/>
     <use style="fill:#dbcd00;stroke:#dbcd00;" x="141.807841" xlink:href="#m8eb81ea917" y="480.052971"/>
     <use style="fill:#dbcd00;stroke:#dbcd00;" x="147.444205" xlink:href="#m8eb81ea917" y="480.052971"/>
     <use style="fill:#dbcd00;stroke:#dbcd00;" x="158.716932" xlink:href="#m8eb81ea917" y="478.973169"/>
     <use style="fill:#dbcd00;stroke:#dbcd00;" x="164.353295" xlink:href="#m8eb81ea917" y="476.093699"/>
     <use style="fill:#dbcd00;stroke:#dbcd00;" x="169.989659" xlink:href="#m8eb81ea917" y="476.093699"/>
     <use style="fill:#dbcd00;stroke:#dbcd00;" x="175.626023" xlink:href="#m8eb81ea917" y="475.733765"/>
     <use style="fill:#dbcd00;stroke:#dbcd00;" x="181.262386" xlink:href="#m8eb81ea917" y="474.653963"/>
     <use style="fill:#dbcd00;stroke:#dbcd00;" x="186.89875" xlink:href="#m8eb81ea917" y="469.254956"/>
     <use style="fill:#dbcd00;stroke:#dbcd00;" x="192.535114" xlink:href="#m8eb81ea917" y="465.295684"/>
     <use style="fill:#dbcd00;stroke:#dbcd00;" x="198.171477" xlink:href="#m8eb81ea917" y="463.13608"/>
     <use style="fill:#dbcd00;stroke:#dbcd00;" x="203.807841" xlink:href="#m8eb81ea917" y="459.176808"/>
     <use style="fill:#dbcd00;stroke:#dbcd00;" x="209.444205" xlink:href="#m8eb81ea917" y="453.057933"/>
     <use style="fill:#dbcd00;stroke:#dbcd00;" x="215.080568" xlink:href="#m8eb81ea917" y="451.258264"/>
     <use style="fill:#dbcd00;stroke:#dbcd00;" x="220.716932" xlink:href="#m8eb81ea917" y="442.979786"/>
     <use style="fill:#dbcd00;stroke:#dbcd00;" x="226.353295" xlink:href="#m8eb81ea917" y="426.062895"/>
     <use style="fill:#dbcd00;stroke:#dbcd00;" x="231.989659" xlink:href="#m8eb81ea917" y="415.624814"/>
     <use style="fill:#dbcd00;stroke:#dbcd00;" x="237.626023" xlink:href="#m8eb81ea917" y="408.786071"/>
     <use style="fill:#dbcd00;stroke:#dbcd00;" x="243.262386" xlink:href="#m8eb81ea917" y="401.587395"/>
     <use style="fill:#dbcd00;stroke:#dbcd00;" x="248.89875" xlink:href="#m8eb81ea917" y="391.509247"/>
     <use style="fill:#dbcd00;stroke:#dbcd00;" x="254.535114" xlink:href="#m8eb81ea917" y="385.030438"/>
     <use style="fill:#dbcd00;stroke:#dbcd00;" x="260.171477" xlink:href="#m8eb81ea917" y="378.911563"/>
     <use style="fill:#dbcd00;stroke:#dbcd00;" x="265.807841" xlink:href="#m8eb81ea917" y="369.193349"/>
     <use style="fill:#dbcd00;stroke:#dbcd00;" x="271.444205" xlink:href="#m8eb81ea917" y="363.794342"/>
     <use style="fill:#dbcd00;stroke:#dbcd00;" x="277.080568" xlink:href="#m8eb81ea917" y="354.076128"/>
     <use style="fill:#dbcd00;stroke:#dbcd00;" x="288.353295" xlink:href="#m8eb81ea917" y="345.79765"/>
     <use style="fill:#dbcd00;stroke:#dbcd00;" x="299.626023" xlink:href="#m8eb81ea917" y="339.318841"/>
     <use style="fill:#dbcd00;stroke:#dbcd00;" x="305.262386" xlink:href="#m8eb81ea917" y="323.121818"/>
     <use style="fill:#dbcd00;stroke:#dbcd00;" x="310.89875" xlink:href="#m8eb81ea917" y="323.121818"/>
     <use style="fill:#dbcd00;stroke:#dbcd00;" x="316.535114" xlink:href="#m8eb81ea917" y="300.086053"/>
     <use style="fill:#dbcd00;stroke:#dbcd00;" x="322.171477" xlink:href="#m8eb81ea917" y="290.007906"/>
     <use style="fill:#dbcd00;stroke:#dbcd00;" x="333.444205" xlink:href="#m8eb81ea917" y="268.411875"/>
     <use style="fill:#dbcd00;stroke:#dbcd00;" x="339.080568" xlink:href="#m8eb81ea917" y="262.293"/>
     <use style="fill:#dbcd00;stroke:#dbcd00;" x="344.716932" xlink:href="#m8eb81ea917" y="261.573133"/>
     <use style="fill:#dbcd00;stroke:#dbcd00;" x="350.353295" xlink:href="#m8eb81ea917" y="245.016176"/>
     <use style="fill:#dbcd00;stroke:#dbcd00;" x="355.989659" xlink:href="#m8eb81ea917" y="245.736044"/>
     <use style="fill:#dbcd00;stroke:#dbcd00;" x="361.626023" xlink:href="#m8eb81ea917" y="239.257235"/>
     <use style="fill:#dbcd00;stroke:#dbcd00;" x="372.89875" xlink:href="#m8eb81ea917" y="234.218161"/>
     <use style="fill:#dbcd00;stroke:#dbcd00;" x="378.535114" xlink:href="#m8eb81ea917" y="229.898955"/>
     <use style="fill:#dbcd00;stroke:#dbcd00;" x="384.171477" xlink:href="#m8eb81ea917" y="225.579749"/>
     <use style="fill:#dbcd00;stroke:#dbcd00;" x="389.807841" xlink:href="#m8eb81ea917" y="219.820808"/>
     <use style="fill:#dbcd00;stroke:#dbcd00;" x="401.080568" xlink:href="#m8eb81ea917" y="213.701932"/>
     <use style="fill:#dbcd00;stroke:#dbcd00;" x="412.353295" xlink:href="#m8eb81ea917" y="211.902263"/>
     <use style="fill:#dbcd00;stroke:#dbcd00;" x="417.989659" xlink:href="#m8eb81ea917" y="209.382726"/>
     <use style="fill:#dbcd00;stroke:#dbcd00;" x="423.626023" xlink:href="#m8eb81ea917" y="205.783388"/>
     <use style="fill:#dbcd00;stroke:#dbcd00;" x="429.262386" xlink:href="#m8eb81ea917" y="200.38438"/>
     <use style="fill:#dbcd00;stroke:#dbcd00;" x="434.89875" xlink:href="#m8eb81ea917" y="195.345307"/>
     <use style="fill:#dbcd00;stroke:#dbcd00;" x="440.535114" xlink:href="#m8eb81ea917" y="194.985373"/>
     <use style="fill:#dbcd00;stroke:#dbcd00;" x="451.807841" xlink:href="#m8eb81ea917" y="192.465836"/>
     <use style="fill:#dbcd00;stroke:#dbcd00;" x="457.444205" xlink:href="#m8eb81ea917" y="188.866498"/>
     <use style="fill:#dbcd00;stroke:#dbcd00;" x="463.080568" xlink:href="#m8eb81ea917" y="187.786696"/>
     <use style="fill:#dbcd00;stroke:#dbcd00;" x="468.716932" xlink:href="#m8eb81ea917" y="186.346961"/>
     <use style="fill:#dbcd00;stroke:#dbcd00;" x="474.353295" xlink:href="#m8eb81ea917" y="184.547292"/>
     <use style="fill:#dbcd00;stroke:#dbcd00;" x="479.989659" xlink:href="#m8eb81ea917" y="182.747622"/>
     <use style="fill:#dbcd00;stroke:#dbcd00;" x="491.262386" xlink:href="#m8eb81ea917" y="182.027755"/>
     <use style="fill:#dbcd00;stroke:#dbcd00;" x="496.89875" xlink:href="#m8eb81ea917" y="181.667821"/>
     <use style="fill:#dbcd00;stroke:#dbcd00;" x="502.535114" xlink:href="#m8eb81ea917" y="178.428416"/>
     <use style="fill:#dbcd00;stroke:#dbcd00;" x="513.807841" xlink:href="#m8eb81ea917" y="173.029409"/>
     <use style="fill:#dbcd00;stroke:#dbcd00;" x="519.444205" xlink:href="#m8eb81ea917" y="171.22974"/>
     <use style="fill:#dbcd00;stroke:#dbcd00;" x="530.716932" xlink:href="#m8eb81ea917" y="159.351923"/>
     <use style="fill:#dbcd00;stroke:#dbcd00;" x="536.353295" xlink:href="#m8eb81ea917" y="156.112519"/>
     <use style="fill:#dbcd00;stroke:#dbcd00;" x="547.626023" xlink:href="#m8eb81ea917" y="144.95457"/>
     <use style="fill:#dbcd00;stroke:#dbcd00;" x="553.262386" xlink:href="#m8eb81ea917" y="144.95457"/>
     <use style="fill:#dbcd00;stroke:#dbcd00;" x="575.807841" xlink:href="#m8eb81ea917" y="142.075099"/>
     <use style="fill:#dbcd00;stroke:#dbcd00;" x="581.444205" xlink:href="#m8eb81ea917" y="142.075099"/>
     <use style="fill:#dbcd00;stroke:#dbcd00;" x="587.080568" xlink:href="#m8eb81ea917" y="140.995298"/>
     <use style="fill:#dbcd00;stroke:#dbcd00;" x="592.716932" xlink:href="#m8eb81ea917" y="130.197282"/>
     <use style="fill:#dbcd00;stroke:#dbcd00;" x="598.353295" xlink:href="#m8eb81ea917" y="130.197282"/>
     <use style="fill:#dbcd00;stroke:#dbcd00;" x="609.626023" xlink:href="#m8eb81ea917" y="122.998606"/>
     <use style="fill:#dbcd00;stroke:#dbcd00;" x="615.262386" xlink:href="#m8eb81ea917" y="111.120789"/>
     <use style="fill:#dbcd00;stroke:#dbcd00;" x="620.89875" xlink:href="#m8eb81ea917" y="105.361848"/>
     <use style="fill:#dbcd00;stroke:#dbcd00;" x="632.171477" xlink:href="#m8eb81ea917" y="102.482377"/>
     <use style="fill:#dbcd00;stroke:#dbcd00;" x="637.807841" xlink:href="#m8eb81ea917" y="101.402576"/>
     <use style="fill:#dbcd00;stroke:#dbcd00;" x="649.080568" xlink:href="#m8eb81ea917" y="99.96284"/>
     <use style="fill:#dbcd00;stroke:#dbcd00;" x="660.353295" xlink:href="#m8eb81ea917" y="97.443303"/>
     <use style="fill:#dbcd00;stroke:#dbcd00;" x="671.626023" xlink:href="#m8eb81ea917" y="96.363502"/>
     <use style="fill:#dbcd00;stroke:#dbcd00;" x="677.262386" xlink:href="#m8eb81ea917" y="96.363502"/>
     <use style="fill:#dbcd00;stroke:#dbcd00;" x="688.535114" xlink:href="#m8eb81ea917" y="95.643634"/>
     <use style="fill:#dbcd00;stroke:#dbcd00;" x="694.171477" xlink:href="#m8eb81ea917" y="95.643634"/>
     <use style="fill:#dbcd00;stroke:#dbcd00;" x="699.807841" xlink:href="#m8eb81ea917" y="95.643634"/>
     <use style="fill:#dbcd00;stroke:#dbcd00;" x="705.444205" xlink:href="#m8eb81ea917" y="95.2837"/>
     <use style="fill:#dbcd00;stroke:#dbcd00;" x="716.716932" xlink:href="#m8eb81ea917" y="95.2837"/>
     <use style="fill:#dbcd00;stroke:#dbcd00;" x="727.989659" xlink:href="#m8eb81ea917" y="95.2837"/>
     <use style="fill:#dbcd00;stroke:#dbcd00;" x="733.626023" xlink:href="#m8eb81ea917" y="95.2837"/>
     <use style="fill:#dbcd00;stroke:#dbcd00;" x="739.262386" xlink:href="#m8eb81ea917" y="94.203899"/>
     <use style="fill:#dbcd00;stroke:#dbcd00;" x="744.89875" xlink:href="#m8eb81ea917" y="94.203899"/>
     <use style="fill:#dbcd00;stroke:#dbcd00;" x="750.535114" xlink:href="#m8eb81ea917" y="93.843965"/>
     <use style="fill:#dbcd00;stroke:#dbcd00;" x="756.171477" xlink:href="#m8eb81ea917" y="93.843965"/>
     <use style="fill:#dbcd00;stroke:#dbcd00;" x="767.444205" xlink:href="#m8eb81ea917" y="93.843965"/>
     <use style="fill:#dbcd00;stroke:#dbcd00;" x="773.080568" xlink:href="#m8eb81ea917" y="93.843965"/>
     <use style="fill:#dbcd00;stroke:#dbcd00;" x="778.716932" xlink:href="#m8eb81ea917" y="93.843965"/>
     <use style="fill:#dbcd00;stroke:#dbcd00;" x="784.353295" xlink:href="#m8eb81ea917" y="93.843965"/>
     <use style="fill:#dbcd00;stroke:#dbcd00;" x="789.989659" xlink:href="#m8eb81ea917" y="93.843965"/>
     <use style="fill:#dbcd00;stroke:#dbcd00;" x="806.89875" xlink:href="#m8eb81ea917" y="93.843965"/>
     <use style="fill:#dbcd00;stroke:#dbcd00;" x="812.535114" xlink:href="#m8eb81ea917" y="92.764164"/>
     <use style="fill:#dbcd00;stroke:#dbcd00;" x="818.171477" xlink:href="#m8eb81ea917" y="91.684362"/>
     <use style="fill:#dbcd00;stroke:#dbcd00;" x="823.807841" xlink:href="#m8eb81ea917" y="91.684362"/>
     <use style="fill:#dbcd00;stroke:#dbcd00;" x="829.444205" xlink:href="#m8eb81ea917" y="91.684362"/>
     <use style="fill:#dbcd00;stroke:#dbcd00;" x="846.353295" xlink:href="#m8eb81ea917" y="91.684362"/>
     <use style="fill:#dbcd00;stroke:#dbcd00;" x="851.989659" xlink:href="#m8eb81ea917" y="91.684362"/>
     <use style="fill:#dbcd00;stroke:#dbcd00;" x="857.626023" xlink:href="#m8eb81ea917" y="91.324428"/>
     <use style="fill:#dbcd00;stroke:#dbcd00;" x="863.262386" xlink:href="#m8eb81ea917" y="90.244627"/>
     <use style="fill:#dbcd00;stroke:#dbcd00;" x="868.89875" xlink:href="#m8eb81ea917" y="89.884693"/>
     <use style="fill:#dbcd00;stroke:#dbcd00;" x="885.807841" xlink:href="#m8eb81ea917" y="89.524759"/>
     <use style="fill:#dbcd00;stroke:#dbcd00;" x="891.444205" xlink:href="#m8eb81ea917" y="89.524759"/>
     <use style="fill:#dbcd00;stroke:#dbcd00;" x="897.080568" xlink:href="#m8eb81ea917" y="89.524759"/>
     <use style="fill:#dbcd00;stroke:#dbcd00;" x="902.716932" xlink:href="#m8eb81ea917" y="87.365156"/>
     <use style="fill:#dbcd00;stroke:#dbcd00;" x="908.353295" xlink:href="#m8eb81ea917" y="87.365156"/>
     <use style="fill:#dbcd00;stroke:#dbcd00;" x="964.716932" xlink:href="#m8eb81ea917" y="78.726744"/>
     <use style="fill:#dbcd00;stroke:#dbcd00;" x="970.353295" xlink:href="#m8eb81ea917" y="78.36681"/>
     <use style="fill:#dbcd00;stroke:#dbcd00;" x="981.626023" xlink:href="#m8eb81ea917" y="76.207207"/>
     <use style="fill:#dbcd00;stroke:#dbcd00;" x="987.262386" xlink:href="#m8eb81ea917" y="76.207207"/>
     <use style="fill:#dbcd00;stroke:#dbcd00;" x="1004.171477" xlink:href="#m8eb81ea917" y="73.327736"/>
     <use style="fill:#dbcd00;stroke:#dbcd00;" x="1009.807841" xlink:href="#m8eb81ea917" y="73.327736"/>
     <use style="fill:#dbcd00;stroke:#dbcd00;" x="1015.444205" xlink:href="#m8eb81ea917" y="72.247935"/>
     <use style="fill:#dbcd00;stroke:#dbcd00;" x="1021.080568" xlink:href="#m8eb81ea917" y="70.448266"/>
     <use style="fill:#dbcd00;stroke:#dbcd00;" x="1026.716932" xlink:href="#m8eb81ea917" y="70.088332"/>
     <use style="fill:#dbcd00;stroke:#dbcd00;" x="1043.626023" xlink:href="#m8eb81ea917" y="67.208861"/>
     <use style="fill:#dbcd00;stroke:#dbcd00;" x="1049.262386" xlink:href="#m8eb81ea917" y="65.769126"/>
     <use style="fill:#dbcd00;stroke:#dbcd00;" x="1054.89875" xlink:href="#m8eb81ea917" y="65.769126"/>
     <use style="fill:#dbcd00;stroke:#dbcd00;" x="1060.535114" xlink:href="#m8eb81ea917" y="63.969457"/>
     <use style="fill:#dbcd00;stroke:#dbcd00;" x="1066.171477" xlink:href="#m8eb81ea917" y="63.249589"/>
     <use style="fill:#dbcd00;stroke:#dbcd00;" x="1083.080568" xlink:href="#m8eb81ea917" y="63.249589"/>
     <use style="fill:#dbcd00;stroke:#dbcd00;" x="1088.716932" xlink:href="#m8eb81ea917" y="54.971111"/>
     <use style="fill:#dbcd00;stroke:#dbcd00;" x="1094.353295" xlink:href="#m8eb81ea917" y="53.531375"/>
     <use style="fill:#dbcd00;stroke:#dbcd00;" x="1099.989659" xlink:href="#m8eb81ea917" y="50.651905"/>
     <use style="fill:#dbcd00;stroke:#dbcd00;" x="1105.626023" xlink:href="#m8eb81ea917" y="47.4125"/>
     <use style="fill:#dbcd00;stroke:#dbcd00;" x="1122.535114" xlink:href="#m8eb81ea917" y="46.692633"/>
     <use style="fill:#dbcd00;stroke:#dbcd00;" x="1128.171477" xlink:href="#m8eb81ea917" y="46.332699"/>
    </g>
   </g>
   <g id="line2d_36">
    <path clip-path="url(#p1c548567b8)" d="M 113.626023 475.013897 
L 119.262386 470.334757 
L 124.89875 463.855948 
L 130.535114 450.538396 
L 136.171477 445.859256 
L 141.807841 435.781109 
L 147.444205 421.023822 
L 158.716932 390.429446 
L 164.353295 385.390372 
L 169.989659 382.510901 
L 175.626023 378.191695 
L 181.262386 375.312225 
L 186.89875 370.273151 
L 192.535114 363.434408 
L 198.171477 354.795996 
L 203.807841 349.756922 
L 209.444205 351.196658 
L 215.080568 349.396988 
L 220.716932 346.877452 
L 226.353295 347.957253 
L 231.989659 343.638047 
L 237.626023 335.359569 
L 243.262386 328.88076 
L 248.89875 333.919833 
L 254.535114 335.359569 
L 260.171477 335.359569 
L 265.807841 337.159238 
L 271.444205 332.120164 
L 277.080568 337.519172 
L 288.353295 344.717849 
L 299.626023 344.717849 
L 305.262386 359.83507 
L 310.89875 355.875797 
L 316.535114 373.512555 
L 322.171477 380.711232 
L 333.444205 400.507593 
L 339.080568 406.266534 
L 344.716932 403.746998 
L 350.353295 418.144351 
L 355.989659 414.545013 
L 361.626023 419.224153 
L 372.89875 422.823491 
L 384.171477 430.742035 
L 389.807841 436.500977 
L 401.080568 440.460249 
L 412.353295 440.820183 
L 417.989659 442.619852 
L 423.626023 445.499323 
L 429.262386 446.939058 
L 434.89875 450.538396 
L 440.535114 447.298992 
L 451.807841 444.059587 
L 457.444205 446.21919 
L 463.080568 435.781109 
L 468.716932 433.261572 
L 474.353295 434.341374 
L 479.989659 435.061241 
L 491.262386 430.742035 
L 496.89875 431.101969 
L 502.535114 434.341374 
L 513.807841 433.261572 
L 519.444205 428.222498 
L 530.716932 439.380447 
L 536.353295 441.899984 
L 547.626023 437.220844 
L 553.262386 435.781109 
L 575.807841 437.220844 
L 587.080568 437.220844 
L 592.716932 446.21919 
L 598.353295 446.21919 
L 609.626023 453.057933 
L 615.262386 464.215882 
L 620.89875 469.974823 
L 632.171477 472.854294 
L 637.807841 473.934096 
L 649.080568 475.013897 
L 660.353295 477.533434 
L 677.262386 477.533434 
L 688.535114 478.253302 
L 699.807841 478.253302 
L 705.444205 478.613235 
L 716.716932 477.893368 
L 733.626023 477.893368 
L 739.262386 478.253302 
L 744.89875 477.1735 
L 750.535114 477.533434 
L 756.171477 477.533434 
L 767.444205 477.1735 
L 773.080568 476.813566 
L 784.353295 476.813566 
L 789.989659 476.453632 
L 806.89875 476.093699 
L 812.535114 476.453632 
L 818.171477 477.533434 
L 829.444205 476.813566 
L 846.353295 476.813566 
L 851.989659 472.854294 
L 857.626023 473.214228 
L 863.262386 472.49436 
L 868.89875 472.854294 
L 885.807841 471.414559 
L 891.444205 470.334757 
L 897.080568 470.334757 
L 902.716932 470.694691 
L 908.353295 468.535088 
L 964.716932 469.61489 
L 970.353295 468.175154 
L 981.626023 466.015551 
L 987.262386 464.215882 
L 1004.171477 464.215882 
L 1009.807841 458.816874 
L 1015.444205 458.097007 
L 1026.716932 455.937404 
L 1043.626023 457.737073 
L 1049.262386 458.097007 
L 1054.89875 458.097007 
L 1060.535114 459.536742 
L 1066.171477 460.25661 
L 1083.080568 460.25661 
L 1088.716932 466.375485 
L 1094.353295 466.375485 
L 1099.989659 467.095353 
L 1105.626023 469.61489 
L 1122.535114 469.254956 
L 1128.171477 468.175154 
L 1128.171477 468.175154 
" style="fill:none;stroke:#2792cb;stroke-linecap:square;stroke-width:2;"/>
    <defs>
     <path d="M 0 1.5 
C 0.397805 1.5 0.77937 1.341951 1.06066 1.06066 
C 1.341951 0.77937 1.5 0.397805 1.5 0 
C 1.5 -0.397805 1.341951 -0.77937 1.06066 -1.06066 
C 0.77937 -1.341951 0.397805 -1.5 0 -1.5 
C -0.397805 -1.5 -0.77937 -1.341951 -1.06066 -1.06066 
C -1.341951 -0.77937 -1.5 -0.397805 -1.5 0 
C -1.5 0.397805 -1.341951 0.77937 -1.06066 1.06066 
C -0.77937 1.341951 -0.397805 1.5 0 1.5 
z
" id="me4ba5dfcbb" style="stroke:#2792cb;"/>
    </defs>
    <g clip-path="url(#p1c548567b8)">
     <use style="fill:#2792cb;stroke:#2792cb;" x="113.626023" xlink:href="#me4ba5dfcbb" y="475.013897"/>
     <use style="fill:#2792cb;stroke:#2792cb;" x="119.262386" xlink:href="#me4ba5dfcbb" y="470.334757"/>
     <use style="fill:#2792cb;stroke:#2792cb;" x="124.89875" xlink:href="#me4ba5dfcbb" y="463.855948"/>
     <use style="fill:#2792cb;stroke:#2792cb;" x="130.535114" xlink:href="#me4ba5dfcbb" y="450.538396"/>
     <use style="fill:#2792cb;stroke:#2792cb;" x="136.171477" xlink:href="#me4ba5dfcbb" y="445.859256"/>
     <use style="fill:#2792cb;stroke:#2792cb;" x="141.807841" xlink:href="#me4ba5dfcbb" y="435.781109"/>
     <use style="fill:#2792cb;stroke:#2792cb;" x="147.444205" xlink:href="#me4ba5dfcbb" y="421.023822"/>
     <use style="fill:#2792cb;stroke:#2792cb;" x="158.716932" xlink:href="#me4ba5dfcbb" y="390.429446"/>
     <use style="fill:#2792cb;stroke:#2792cb;" x="164.353295" xlink:href="#me4ba5dfcbb" y="385.390372"/>
     <use style="fill:#2792cb;stroke:#2792cb;" x="169.989659" xlink:href="#me4ba5dfcbb" y="382.510901"/>
     <use style="fill:#2792cb;stroke:#2792cb;" x="175.626023" xlink:href="#me4ba5dfcbb" y="378.191695"/>
     <use style="fill:#2792cb;stroke:#2792cb;" x="181.262386" xlink:href="#me4ba5dfcbb" y="375.312225"/>
     <use style="fill:#2792cb;stroke:#2792cb;" x="186.89875" xlink:href="#me4ba5dfcbb" y="370.273151"/>
     <use style="fill:#2792cb;stroke:#2792cb;" x="192.535114" xlink:href="#me4ba5dfcbb" y="363.434408"/>
     <use style="fill:#2792cb;stroke:#2792cb;" x="198.171477" xlink:href="#me4ba5dfcbb" y="354.795996"/>
     <use style="fill:#2792cb;stroke:#2792cb;" x="203.807841" xlink:href="#me4ba5dfcbb" y="349.756922"/>
     <use style="fill:#2792cb;stroke:#2792cb;" x="209.444205" xlink:href="#me4ba5dfcbb" y="351.196658"/>
     <use style="fill:#2792cb;stroke:#2792cb;" x="215.080568" xlink:href="#me4ba5dfcbb" y="349.396988"/>
     <use style="fill:#2792cb;stroke:#2792cb;" x="220.716932" xlink:href="#me4ba5dfcbb" y="346.877452"/>
     <use style="fill:#2792cb;stroke:#2792cb;" x="226.353295" xlink:href="#me4ba5dfcbb" y="347.957253"/>
     <use style="fill:#2792cb;stroke:#2792cb;" x="231.989659" xlink:href="#me4ba5dfcbb" y="343.638047"/>
     <use style="fill:#2792cb;stroke:#2792cb;" x="237.626023" xlink:href="#me4ba5dfcbb" y="335.359569"/>
     <use style="fill:#2792cb;stroke:#2792cb;" x="243.262386" xlink:href="#me4ba5dfcbb" y="328.88076"/>
     <use style="fill:#2792cb;stroke:#2792cb;" x="248.89875" xlink:href="#me4ba5dfcbb" y="333.919833"/>
     <use style="fill:#2792cb;stroke:#2792cb;" x="254.535114" xlink:href="#me4ba5dfcbb" y="335.359569"/>
     <use style="fill:#2792cb;stroke:#2792cb;" x="260.171477" xlink:href="#me4ba5dfcbb" y="335.359569"/>
     <use style="fill:#2792cb;stroke:#2792cb;" x="265.807841" xlink:href="#me4ba5dfcbb" y="337.159238"/>
     <use style="fill:#2792cb;stroke:#2792cb;" x="271.444205" xlink:href="#me4ba5dfcbb" y="332.120164"/>
     <use style="fill:#2792cb;stroke:#2792cb;" x="277.080568" xlink:href="#me4ba5dfcbb" y="337.519172"/>
     <use style="fill:#2792cb;stroke:#2792cb;" x="288.353295" xlink:href="#me4ba5dfcbb" y="344.717849"/>
     <use style="fill:#2792cb;stroke:#2792cb;" x="299.626023" xlink:href="#me4ba5dfcbb" y="344.717849"/>
     <use style="fill:#2792cb;stroke:#2792cb;" x="305.262386" xlink:href="#me4ba5dfcbb" y="359.83507"/>
     <use style="fill:#2792cb;stroke:#2792cb;" x="310.89875" xlink:href="#me4ba5dfcbb" y="355.875797"/>
     <use style="fill:#2792cb;stroke:#2792cb;" x="316.535114" xlink:href="#me4ba5dfcbb" y="373.512555"/>
     <use style="fill:#2792cb;stroke:#2792cb;" x="322.171477" xlink:href="#me4ba5dfcbb" y="380.711232"/>
     <use style="fill:#2792cb;stroke:#2792cb;" x="333.444205" xlink:href="#me4ba5dfcbb" y="400.507593"/>
     <use style="fill:#2792cb;stroke:#2792cb;" x="339.080568" xlink:href="#me4ba5dfcbb" y="406.266534"/>
     <use style="fill:#2792cb;stroke:#2792cb;" x="344.716932" xlink:href="#me4ba5dfcbb" y="403.746998"/>
     <use style="fill:#2792cb;stroke:#2792cb;" x="350.353295" xlink:href="#me4ba5dfcbb" y="418.144351"/>
     <use style="fill:#2792cb;stroke:#2792cb;" x="355.989659" xlink:href="#me4ba5dfcbb" y="414.545013"/>
     <use style="fill:#2792cb;stroke:#2792cb;" x="361.626023" xlink:href="#me4ba5dfcbb" y="419.224153"/>
     <use style="fill:#2792cb;stroke:#2792cb;" x="372.89875" xlink:href="#me4ba5dfcbb" y="422.823491"/>
     <use style="fill:#2792cb;stroke:#2792cb;" x="378.535114" xlink:href="#me4ba5dfcbb" y="426.782763"/>
     <use style="fill:#2792cb;stroke:#2792cb;" x="384.171477" xlink:href="#me4ba5dfcbb" y="430.742035"/>
     <use style="fill:#2792cb;stroke:#2792cb;" x="389.807841" xlink:href="#me4ba5dfcbb" y="436.500977"/>
     <use style="fill:#2792cb;stroke:#2792cb;" x="401.080568" xlink:href="#me4ba5dfcbb" y="440.460249"/>
     <use style="fill:#2792cb;stroke:#2792cb;" x="412.353295" xlink:href="#me4ba5dfcbb" y="440.820183"/>
     <use style="fill:#2792cb;stroke:#2792cb;" x="417.989659" xlink:href="#me4ba5dfcbb" y="442.619852"/>
     <use style="fill:#2792cb;stroke:#2792cb;" x="423.626023" xlink:href="#me4ba5dfcbb" y="445.499323"/>
     <use style="fill:#2792cb;stroke:#2792cb;" x="429.262386" xlink:href="#me4ba5dfcbb" y="446.939058"/>
     <use style="fill:#2792cb;stroke:#2792cb;" x="434.89875" xlink:href="#me4ba5dfcbb" y="450.538396"/>
     <use style="fill:#2792cb;stroke:#2792cb;" x="440.535114" xlink:href="#me4ba5dfcbb" y="447.298992"/>
     <use style="fill:#2792cb;stroke:#2792cb;" x="451.807841" xlink:href="#me4ba5dfcbb" y="444.059587"/>
     <use style="fill:#2792cb;stroke:#2792cb;" x="457.444205" xlink:href="#me4ba5dfcbb" y="446.21919"/>
     <use style="fill:#2792cb;stroke:#2792cb;" x="463.080568" xlink:href="#me4ba5dfcbb" y="435.781109"/>
     <use style="fill:#2792cb;stroke:#2792cb;" x="468.716932" xlink:href="#me4ba5dfcbb" y="433.261572"/>
     <use style="fill:#2792cb;stroke:#2792cb;" x="474.353295" xlink:href="#me4ba5dfcbb" y="434.341374"/>
     <use style="fill:#2792cb;stroke:#2792cb;" x="479.989659" xlink:href="#me4ba5dfcbb" y="435.061241"/>
     <use style="fill:#2792cb;stroke:#2792cb;" x="491.262386" xlink:href="#me4ba5dfcbb" y="430.742035"/>
     <use style="fill:#2792cb;stroke:#2792cb;" x="496.89875" xlink:href="#me4ba5dfcbb" y="431.101969"/>
     <use style="fill:#2792cb;stroke:#2792cb;" x="502.535114" xlink:href="#me4ba5dfcbb" y="434.341374"/>
     <use style="fill:#2792cb;stroke:#2792cb;" x="513.807841" xlink:href="#me4ba5dfcbb" y="433.261572"/>
     <use style="fill:#2792cb;stroke:#2792cb;" x="519.444205" xlink:href="#me4ba5dfcbb" y="428.222498"/>
     <use style="fill:#2792cb;stroke:#2792cb;" x="530.716932" xlink:href="#me4ba5dfcbb" y="439.380447"/>
     <use style="fill:#2792cb;stroke:#2792cb;" x="536.353295" xlink:href="#me4ba5dfcbb" y="441.899984"/>
     <use style="fill:#2792cb;stroke:#2792cb;" x="547.626023" xlink:href="#me4ba5dfcbb" y="437.220844"/>
     <use style="fill:#2792cb;stroke:#2792cb;" x="553.262386" xlink:href="#me4ba5dfcbb" y="435.781109"/>
     <use style="fill:#2792cb;stroke:#2792cb;" x="575.807841" xlink:href="#me4ba5dfcbb" y="437.220844"/>
     <use style="fill:#2792cb;stroke:#2792cb;" x="581.444205" xlink:href="#me4ba5dfcbb" y="437.220844"/>
     <use style="fill:#2792cb;stroke:#2792cb;" x="587.080568" xlink:href="#me4ba5dfcbb" y="437.220844"/>
     <use style="fill:#2792cb;stroke:#2792cb;" x="592.716932" xlink:href="#me4ba5dfcbb" y="446.21919"/>
     <use style="fill:#2792cb;stroke:#2792cb;" x="598.353295" xlink:href="#me4ba5dfcbb" y="446.21919"/>
     <use style="fill:#2792cb;stroke:#2792cb;" x="609.626023" xlink:href="#me4ba5dfcbb" y="453.057933"/>
     <use style="fill:#2792cb;stroke:#2792cb;" x="615.262386" xlink:href="#me4ba5dfcbb" y="464.215882"/>
     <use style="fill:#2792cb;stroke:#2792cb;" x="620.89875" xlink:href="#me4ba5dfcbb" y="469.974823"/>
     <use style="fill:#2792cb;stroke:#2792cb;" x="632.171477" xlink:href="#me4ba5dfcbb" y="472.854294"/>
     <use style="fill:#2792cb;stroke:#2792cb;" x="637.807841" xlink:href="#me4ba5dfcbb" y="473.934096"/>
     <use style="fill:#2792cb;stroke:#2792cb;" x="649.080568" xlink:href="#me4ba5dfcbb" y="475.013897"/>
     <use style="fill:#2792cb;stroke:#2792cb;" x="660.353295" xlink:href="#me4ba5dfcbb" y="477.533434"/>
     <use style="fill:#2792cb;stroke:#2792cb;" x="671.626023" xlink:href="#me4ba5dfcbb" y="477.533434"/>
     <use style="fill:#2792cb;stroke:#2792cb;" x="677.262386" xlink:href="#me4ba5dfcbb" y="477.533434"/>
     <use style="fill:#2792cb;stroke:#2792cb;" x="688.535114" xlink:href="#me4ba5dfcbb" y="478.253302"/>
     <use style="fill:#2792cb;stroke:#2792cb;" x="694.171477" xlink:href="#me4ba5dfcbb" y="478.253302"/>
     <use style="fill:#2792cb;stroke:#2792cb;" x="699.807841" xlink:href="#me4ba5dfcbb" y="478.253302"/>
     <use style="fill:#2792cb;stroke:#2792cb;" x="705.444205" xlink:href="#me4ba5dfcbb" y="478.613235"/>
     <use style="fill:#2792cb;stroke:#2792cb;" x="716.716932" xlink:href="#me4ba5dfcbb" y="477.893368"/>
     <use style="fill:#2792cb;stroke:#2792cb;" x="727.989659" xlink:href="#me4ba5dfcbb" y="477.893368"/>
     <use style="fill:#2792cb;stroke:#2792cb;" x="733.626023" xlink:href="#me4ba5dfcbb" y="477.893368"/>
     <use style="fill:#2792cb;stroke:#2792cb;" x="739.262386" xlink:href="#me4ba5dfcbb" y="478.253302"/>
     <use style="fill:#2792cb;stroke:#2792cb;" x="744.89875" xlink:href="#me4ba5dfcbb" y="477.1735"/>
     <use style="fill:#2792cb;stroke:#2792cb;" x="750.535114" xlink:href="#me4ba5dfcbb" y="477.533434"/>
     <use style="fill:#2792cb;stroke:#2792cb;" x="756.171477" xlink:href="#me4ba5dfcbb" y="477.533434"/>
     <use style="fill:#2792cb;stroke:#2792cb;" x="767.444205" xlink:href="#me4ba5dfcbb" y="477.1735"/>
     <use style="fill:#2792cb;stroke:#2792cb;" x="773.080568" xlink:href="#me4ba5dfcbb" y="476.813566"/>
     <use style="fill:#2792cb;stroke:#2792cb;" x="778.716932" xlink:href="#me4ba5dfcbb" y="476.813566"/>
     <use style="fill:#2792cb;stroke:#2792cb;" x="784.353295" xlink:href="#me4ba5dfcbb" y="476.813566"/>
     <use style="fill:#2792cb;stroke:#2792cb;" x="789.989659" xlink:href="#me4ba5dfcbb" y="476.453632"/>
     <use style="fill:#2792cb;stroke:#2792cb;" x="806.89875" xlink:href="#me4ba5dfcbb" y="476.093699"/>
     <use style="fill:#2792cb;stroke:#2792cb;" x="812.535114" xlink:href="#me4ba5dfcbb" y="476.453632"/>
     <use style="fill:#2792cb;stroke:#2792cb;" x="818.171477" xlink:href="#me4ba5dfcbb" y="477.533434"/>
     <use style="fill:#2792cb;stroke:#2792cb;" x="823.807841" xlink:href="#me4ba5dfcbb" y="477.1735"/>
     <use style="fill:#2792cb;stroke:#2792cb;" x="829.444205" xlink:href="#me4ba5dfcbb" y="476.813566"/>
     <use style="fill:#2792cb;stroke:#2792cb;" x="846.353295" xlink:href="#me4ba5dfcbb" y="476.813566"/>
     <use style="fill:#2792cb;stroke:#2792cb;" x="851.989659" xlink:href="#me4ba5dfcbb" y="472.854294"/>
     <use style="fill:#2792cb;stroke:#2792cb;" x="857.626023" xlink:href="#me4ba5dfcbb" y="473.214228"/>
     <use style="fill:#2792cb;stroke:#2792cb;" x="863.262386" xlink:href="#me4ba5dfcbb" y="472.49436"/>
     <use style="fill:#2792cb;stroke:#2792cb;" x="868.89875" xlink:href="#me4ba5dfcbb" y="472.854294"/>
     <use style="fill:#2792cb;stroke:#2792cb;" x="885.807841" xlink:href="#me4ba5dfcbb" y="471.414559"/>
     <use style="fill:#2792cb;stroke:#2792cb;" x="891.444205" xlink:href="#me4ba5dfcbb" y="470.334757"/>
     <use style="fill:#2792cb;stroke:#2792cb;" x="897.080568" xlink:href="#me4ba5dfcbb" y="470.334757"/>
     <use style="fill:#2792cb;stroke:#2792cb;" x="902.716932" xlink:href="#me4ba5dfcbb" y="470.694691"/>
     <use style="fill:#2792cb;stroke:#2792cb;" x="908.353295" xlink:href="#me4ba5dfcbb" y="468.535088"/>
     <use style="fill:#2792cb;stroke:#2792cb;" x="964.716932" xlink:href="#me4ba5dfcbb" y="469.61489"/>
     <use style="fill:#2792cb;stroke:#2792cb;" x="970.353295" xlink:href="#me4ba5dfcbb" y="468.175154"/>
     <use style="fill:#2792cb;stroke:#2792cb;" x="981.626023" xlink:href="#me4ba5dfcbb" y="466.015551"/>
     <use style="fill:#2792cb;stroke:#2792cb;" x="987.262386" xlink:href="#me4ba5dfcbb" y="464.215882"/>
     <use style="fill:#2792cb;stroke:#2792cb;" x="1004.171477" xlink:href="#me4ba5dfcbb" y="464.215882"/>
     <use style="fill:#2792cb;stroke:#2792cb;" x="1009.807841" xlink:href="#me4ba5dfcbb" y="458.816874"/>
     <use style="fill:#2792cb;stroke:#2792cb;" x="1015.444205" xlink:href="#me4ba5dfcbb" y="458.097007"/>
     <use style="fill:#2792cb;stroke:#2792cb;" x="1021.080568" xlink:href="#me4ba5dfcbb" y="457.017205"/>
     <use style="fill:#2792cb;stroke:#2792cb;" x="1026.716932" xlink:href="#me4ba5dfcbb" y="455.937404"/>
     <use style="fill:#2792cb;stroke:#2792cb;" x="1043.626023" xlink:href="#me4ba5dfcbb" y="457.737073"/>
     <use style="fill:#2792cb;stroke:#2792cb;" x="1049.262386" xlink:href="#me4ba5dfcbb" y="458.097007"/>
     <use style="fill:#2792cb;stroke:#2792cb;" x="1054.89875" xlink:href="#me4ba5dfcbb" y="458.097007"/>
     <use style="fill:#2792cb;stroke:#2792cb;" x="1060.535114" xlink:href="#me4ba5dfcbb" y="459.536742"/>
     <use style="fill:#2792cb;stroke:#2792cb;" x="1066.171477" xlink:href="#me4ba5dfcbb" y="460.25661"/>
     <use style="fill:#2792cb;stroke:#2792cb;" x="1083.080568" xlink:href="#me4ba5dfcbb" y="460.25661"/>
     <use style="fill:#2792cb;stroke:#2792cb;" x="1088.716932" xlink:href="#me4ba5dfcbb" y="466.375485"/>
     <use style="fill:#2792cb;stroke:#2792cb;" x="1094.353295" xlink:href="#me4ba5dfcbb" y="466.375485"/>
     <use style="fill:#2792cb;stroke:#2792cb;" x="1099.989659" xlink:href="#me4ba5dfcbb" y="467.095353"/>
     <use style="fill:#2792cb;stroke:#2792cb;" x="1105.626023" xlink:href="#me4ba5dfcbb" y="469.61489"/>
     <use style="fill:#2792cb;stroke:#2792cb;" x="1122.535114" xlink:href="#me4ba5dfcbb" y="469.254956"/>
     <use style="fill:#2792cb;stroke:#2792cb;" x="1128.171477" xlink:href="#me4ba5dfcbb" y="468.175154"/>
    </g>
   </g>
   <g id="patch_3">
    <path d="M 62.89875 501.738984 
L 1178.89875 501.738984 
" style="fill:none;stroke:#000000;stroke-linecap:square;stroke-linejoin:miter;stroke-width:0.8;"/>
   </g>
   <g id="legend_1">
    <g id="line2d_37">
     <path d="M 71.89875 25.237422 
L 91.89875 25.237422 
" style="fill:none;stroke:#dbcd00;stroke-linecap:square;stroke-width:2;"/>
    </g>
    <g id="line2d_38">
     <g>
      <use style="fill:#dbcd00;stroke:#dbcd00;" x="81.89875" xlink:href="#m8eb81ea917" y="25.237422"/>
     </g>
    </g>
    <g id="text_22">
     <!-- Genesene -->
     <defs>
      <path d="M 59.515625 10.40625 
L 59.515625 29.984375 
L 43.40625 29.984375 
L 43.40625 38.09375 
L 69.28125 38.09375 
L 69.28125 6.78125 
Q 63.578125 2.734375 56.6875 0.65625 
Q 49.8125 -1.421875 42 -1.421875 
Q 24.90625 -1.421875 15.25 8.5625 
Q 5.609375 18.5625 5.609375 36.375 
Q 5.609375 54.25 15.25 64.234375 
Q 24.90625 74.21875 42 74.21875 
Q 49.125 74.21875 55.546875 72.453125 
Q 61.96875 70.703125 67.390625 67.28125 
L 67.390625 56.78125 
Q 61.921875 61.421875 55.765625 63.765625 
Q 49.609375 66.109375 42.828125 66.109375 
Q 29.4375 66.109375 22.71875 58.640625 
Q 16.015625 51.171875 16.015625 36.375 
Q 16.015625 21.625 22.71875 14.15625 
Q 29.4375 6.6875 42.828125 6.6875 
Q 48.046875 6.6875 52.140625 7.59375 
Q 56.25 8.5 59.515625 10.40625 
z
" id="DejaVuSans-71"/>
      <path d="M 44.28125 53.078125 
L 44.28125 44.578125 
Q 40.484375 46.53125 36.375 47.5 
Q 32.28125 48.484375 27.875 48.484375 
Q 21.1875 48.484375 17.84375 46.4375 
Q 14.5 44.390625 14.5 40.28125 
Q 14.5 37.15625 16.890625 35.375 
Q 19.28125 33.59375 26.515625 31.984375 
L 29.59375 31.296875 
Q 39.15625 29.25 43.1875 25.515625 
Q 47.21875 21.78125 47.21875 15.09375 
Q 47.21875 7.46875 41.1875 3.015625 
Q 35.15625 -1.421875 24.609375 -1.421875 
Q 20.21875 -1.421875 15.453125 -0.5625 
Q 10.6875 0.296875 5.421875 2 
L 5.421875 11.28125 
Q 10.40625 8.6875 15.234375 7.390625 
Q 20.0625 6.109375 24.8125 6.109375 
Q 31.15625 6.109375 34.5625 8.28125 
Q 37.984375 10.453125 37.984375 14.40625 
Q 37.984375 18.0625 35.515625 20.015625 
Q 33.0625 21.96875 24.703125 23.78125 
L 21.578125 24.515625 
Q 13.234375 26.265625 9.515625 29.90625 
Q 5.8125 33.546875 5.8125 39.890625 
Q 5.8125 47.609375 11.28125 51.796875 
Q 16.75 56 26.8125 56 
Q 31.78125 56 36.171875 55.265625 
Q 40.578125 54.546875 44.28125 53.078125 
z
" id="DejaVuSans-115"/>
     </defs>
     <g transform="translate(99.89875 28.737422)scale(0.1 -0.1)">
      <use xlink:href="#DejaVuSans-71"/>
      <use x="77.490234" xlink:href="#DejaVuSans-101"/>
      <use x="139.013672" xlink:href="#DejaVuSans-110"/>
      <use x="202.392578" xlink:href="#DejaVuSans-101"/>
      <use x="263.916016" xlink:href="#DejaVuSans-115"/>
      <use x="316.015625" xlink:href="#DejaVuSans-101"/>
      <use x="377.539062" xlink:href="#DejaVuSans-110"/>
      <use x="440.917969" xlink:href="#DejaVuSans-101"/>
     </g>
    </g>
    <g id="line2d_39">
     <path d="M 71.89875 39.915547 
L 91.89875 39.915547 
" style="fill:none;stroke:#2792cb;stroke-linecap:square;stroke-width:2;"/>
    </g>
    <g id="line2d_40">
     <g>
      <use style="fill:#2792cb;stroke:#2792cb;" x="81.89875" xlink:href="#me4ba5dfcbb" y="39.915547"/>
     </g>
    </g>
    <g id="text_23">
     <!-- Erkrankte -->
     <defs>
      <path d="M 9.8125 72.90625 
L 55.90625 72.90625 
L 55.90625 64.59375 
L 19.671875 64.59375 
L 19.671875 43.015625 
L 54.390625 43.015625 
L 54.390625 34.71875 
L 19.671875 34.71875 
L 19.671875 8.296875 
L 56.78125 8.296875 
L 56.78125 0 
L 9.8125 0 
z
" id="DejaVuSans-69"/>
      <path d="M 41.109375 46.296875 
Q 39.59375 47.171875 37.8125 47.578125 
Q 36.03125 48 33.890625 48 
Q 26.265625 48 22.1875 43.046875 
Q 18.109375 38.09375 18.109375 28.8125 
L 18.109375 0 
L 9.078125 0 
L 9.078125 54.6875 
L 18.109375 54.6875 
L 18.109375 46.1875 
Q 20.953125 51.171875 25.484375 53.578125 
Q 30.03125 56 36.53125 56 
Q 37.453125 56 38.578125 55.875 
Q 39.703125 55.765625 41.0625 55.515625 
z
" id="DejaVuSans-114"/>
      <path d="M 9.078125 75.984375 
L 18.109375 75.984375 
L 18.109375 31.109375 
L 44.921875 54.6875 
L 56.390625 54.6875 
L 27.390625 29.109375 
L 57.625 0 
L 45.90625 0 
L 18.109375 26.703125 
L 18.109375 0 
L 9.078125 0 
z
" id="DejaVuSans-107"/>
      <path d="M 18.3125 70.21875 
L 18.3125 54.6875 
L 36.8125 54.6875 
L 36.8125 47.703125 
L 18.3125 47.703125 
L 18.3125 18.015625 
Q 18.3125 11.328125 20.140625 9.421875 
Q 21.96875 7.515625 27.59375 7.515625 
L 36.8125 7.515625 
L 36.8125 0 
L 27.59375 0 
Q 17.1875 0 13.234375 3.875 
Q 9.28125 7.765625 9.28125 18.015625 
L 9.28125 47.703125 
L 2.6875 47.703125 
L 2.6875 54.6875 
L 9.28125 54.6875 
L 9.28125 70.21875 
z
" id="DejaVuSans-116"/>
     </defs>
     <g transform="translate(99.89875 43.415547)scale(0.1 -0.1)">
      <use xlink:href="#DejaVuSans-69"/>
      <use x="63.183594" xlink:href="#DejaVuSans-114"/>
      <use x="104.296875" xlink:href="#DejaVuSans-107"/>
      <use x="162.207031" xlink:href="#DejaVuSans-114"/>
      <use x="203.320312" xlink:href="#DejaVuSans-97"/>
      <use x="264.599609" xlink:href="#DejaVuSans-110"/>
      <use x="327.978516" xlink:href="#DejaVuSans-107"/>
      <use x="385.888672" xlink:href="#DejaVuSans-116"/>
      <use x="425.097656" xlink:href="#DejaVuSans-101"/>
     </g>
    </g>
   </g>
  </g>
 </g>
 <defs>
  <clipPath id="p1c548567b8">
   <rect height="489.6" width="1116" x="62.89875" y="12.138984"/>
  </clipPath>
 </defs>
</svg>
