<?xml version="1.0" encoding="utf-8" standalone="no"?>
<!DOCTYPE svg PUBLIC "-//W3C//DTD SVG 1.1//EN"
  "http://www.w3.org/Graphics/SVG/1.1/DTD/svg11.dtd">
<!-- Created with matplotlib (https://matplotlib.org/) -->
<svg height="564.610093pt" version="1.1" viewBox="0 0 1177.8275 564.610093" width="1177.8275pt" xmlns="http://www.w3.org/2000/svg" xmlns:xlink="http://www.w3.org/1999/xlink">
 <defs>
  <style type="text/css">
*{stroke-linecap:butt;stroke-linejoin:round;}
  </style>
 </defs>
 <g id="figure_1">
  <g id="patch_1">
   <path d="M 0 564.610093 
L 1177.8275 564.610093 
L 1177.8275 0 
L 0 0 
z
" style="fill:#ffffff;"/>
  </g>
  <g id="axes_1">
   <g id="patch_2">
    <path d="M 54.6275 501.738984 
L 1170.6275 501.738984 
L 1170.6275 12.138984 
L 54.6275 12.138984 
z
" style="fill:#ffffff;"/>
   </g>
   <g id="matplotlib.axis_1">
    <g id="xtick_1">
     <g id="line2d_1">
      <defs>
       <path d="M 0 0 
L 0 3.5 
" id="m5c8d9603da" style="stroke:#000000;stroke-width:0.8;"/>
      </defs>
      <g>
       <use style="stroke:#000000;stroke-width:0.8;" x="83.768699" xlink:href="#m5c8d9603da" y="501.738984"/>
      </g>
     </g>
     <g id="text_1">
      <!-- 2020-03-22 -->
      <defs>
       <path d="M 19.1875 8.296875 
L 53.609375 8.296875 
L 53.609375 0 
L 7.328125 0 
L 7.328125 8.296875 
Q 12.9375 14.109375 22.625 23.890625 
Q 32.328125 33.6875 34.8125 36.53125 
Q 39.546875 41.84375 41.421875 45.53125 
Q 43.3125 49.21875 43.3125 52.78125 
Q 43.3125 58.59375 39.234375 62.25 
Q 35.15625 65.921875 28.609375 65.921875 
Q 23.96875 65.921875 18.8125 64.3125 
Q 13.671875 62.703125 7.8125 59.421875 
L 7.8125 69.390625 
Q 13.765625 71.78125 18.9375 73 
Q 24.125 74.21875 28.421875 74.21875 
Q 39.75 74.21875 46.484375 68.546875 
Q 53.21875 62.890625 53.21875 53.421875 
Q 53.21875 48.921875 51.53125 44.890625 
Q 49.859375 40.875 45.40625 35.40625 
Q 44.1875 33.984375 37.640625 27.21875 
Q 31.109375 20.453125 19.1875 8.296875 
z
" id="DejaVuSans-50"/>
       <path d="M 31.78125 66.40625 
Q 24.171875 66.40625 20.328125 58.90625 
Q 16.5 51.421875 16.5 36.375 
Q 16.5 21.390625 20.328125 13.890625 
Q 24.171875 6.390625 31.78125 6.390625 
Q 39.453125 6.390625 43.28125 13.890625 
Q 47.125 21.390625 47.125 36.375 
Q 47.125 51.421875 43.28125 58.90625 
Q 39.453125 66.40625 31.78125 66.40625 
z
M 31.78125 74.21875 
Q 44.046875 74.21875 50.515625 64.515625 
Q 56.984375 54.828125 56.984375 36.375 
Q 56.984375 17.96875 50.515625 8.265625 
Q 44.046875 -1.421875 31.78125 -1.421875 
Q 19.53125 -1.421875 13.0625 8.265625 
Q 6.59375 17.96875 6.59375 36.375 
Q 6.59375 54.828125 13.0625 64.515625 
Q 19.53125 74.21875 31.78125 74.21875 
z
" id="DejaVuSans-48"/>
       <path d="M 4.890625 31.390625 
L 31.203125 31.390625 
L 31.203125 23.390625 
L 4.890625 23.390625 
z
" id="DejaVuSans-45"/>
       <path d="M 40.578125 39.3125 
Q 47.65625 37.796875 51.625 33 
Q 55.609375 28.21875 55.609375 21.1875 
Q 55.609375 10.40625 48.1875 4.484375 
Q 40.765625 -1.421875 27.09375 -1.421875 
Q 22.515625 -1.421875 17.65625 -0.515625 
Q 12.796875 0.390625 7.625 2.203125 
L 7.625 11.71875 
Q 11.71875 9.328125 16.59375 8.109375 
Q 21.484375 6.890625 26.8125 6.890625 
Q 36.078125 6.890625 40.9375 10.546875 
Q 45.796875 14.203125 45.796875 21.1875 
Q 45.796875 27.640625 41.28125 31.265625 
Q 36.765625 34.90625 28.71875 34.90625 
L 20.21875 34.90625 
L 20.21875 43.015625 
L 29.109375 43.015625 
Q 36.375 43.015625 40.234375 45.921875 
Q 44.09375 48.828125 44.09375 54.296875 
Q 44.09375 59.90625 40.109375 62.90625 
Q 36.140625 65.921875 28.71875 65.921875 
Q 24.65625 65.921875 20.015625 65.03125 
Q 15.375 64.15625 9.8125 62.3125 
L 9.8125 71.09375 
Q 15.4375 72.65625 20.34375 73.4375 
Q 25.25 74.21875 29.59375 74.21875 
Q 40.828125 74.21875 47.359375 69.109375 
Q 53.90625 64.015625 53.90625 55.328125 
Q 53.90625 49.265625 50.4375 45.09375 
Q 46.96875 40.921875 40.578125 39.3125 
z
" id="DejaVuSans-51"/>
      </defs>
      <g transform="translate(16.988412 555.068713)rotate(-30)scale(0.13 -0.13)">
       <use xlink:href="#DejaVuSans-50"/>
       <use x="63.623047" xlink:href="#DejaVuSans-48"/>
       <use x="127.246094" xlink:href="#DejaVuSans-50"/>
       <use x="190.869141" xlink:href="#DejaVuSans-48"/>
       <use x="254.492188" xlink:href="#DejaVuSans-45"/>
       <use x="290.576172" xlink:href="#DejaVuSans-48"/>
       <use x="354.199219" xlink:href="#DejaVuSans-51"/>
       <use x="417.822266" xlink:href="#DejaVuSans-45"/>
       <use x="453.90625" xlink:href="#DejaVuSans-50"/>
       <use x="517.529297" xlink:href="#DejaVuSans-50"/>
      </g>
     </g>
    </g>
    <g id="xtick_2">
     <g id="line2d_2">
      <g>
       <use style="stroke:#000000;stroke-width:0.8;" x="299.629434" xlink:href="#m5c8d9603da" y="501.738984"/>
      </g>
     </g>
     <g id="text_2">
      <!-- 2020-04-01 -->
      <defs>
       <path d="M 37.796875 64.3125 
L 12.890625 25.390625 
L 37.796875 25.390625 
z
M 35.203125 72.90625 
L 47.609375 72.90625 
L 47.609375 25.390625 
L 58.015625 25.390625 
L 58.015625 17.1875 
L 47.609375 17.1875 
L 47.609375 0 
L 37.796875 0 
L 37.796875 17.1875 
L 4.890625 17.1875 
L 4.890625 26.703125 
z
" id="DejaVuSans-52"/>
       <path d="M 12.40625 8.296875 
L 28.515625 8.296875 
L 28.515625 63.921875 
L 10.984375 60.40625 
L 10.984375 69.390625 
L 28.421875 72.90625 
L 38.28125 72.90625 
L 38.28125 8.296875 
L 54.390625 8.296875 
L 54.390625 0 
L 12.40625 0 
z
" id="DejaVuSans-49"/>
      </defs>
      <g transform="translate(232.849147 555.068713)rotate(-30)scale(0.13 -0.13)">
       <use xlink:href="#DejaVuSans-50"/>
       <use x="63.623047" xlink:href="#DejaVuSans-48"/>
       <use x="127.246094" xlink:href="#DejaVuSans-50"/>
       <use x="190.869141" xlink:href="#DejaVuSans-48"/>
       <use x="254.492188" xlink:href="#DejaVuSans-45"/>
       <use x="290.576172" xlink:href="#DejaVuSans-48"/>
       <use x="354.199219" xlink:href="#DejaVuSans-52"/>
       <use x="417.822266" xlink:href="#DejaVuSans-45"/>
       <use x="453.90625" xlink:href="#DejaVuSans-48"/>
       <use x="517.529297" xlink:href="#DejaVuSans-49"/>
      </g>
     </g>
    </g>
    <g id="xtick_3">
     <g id="line2d_3">
      <g>
       <use style="stroke:#000000;stroke-width:0.8;" x="450.731949" xlink:href="#m5c8d9603da" y="501.738984"/>
      </g>
     </g>
     <g id="text_3">
      <!-- 2020-04-08 -->
      <defs>
       <path d="M 31.78125 34.625 
Q 24.75 34.625 20.71875 30.859375 
Q 16.703125 27.09375 16.703125 20.515625 
Q 16.703125 13.921875 20.71875 10.15625 
Q 24.75 6.390625 31.78125 6.390625 
Q 38.8125 6.390625 42.859375 10.171875 
Q 46.921875 13.96875 46.921875 20.515625 
Q 46.921875 27.09375 42.890625 30.859375 
Q 38.875 34.625 31.78125 34.625 
z
M 21.921875 38.8125 
Q 15.578125 40.375 12.03125 44.71875 
Q 8.5 49.078125 8.5 55.328125 
Q 8.5 64.0625 14.71875 69.140625 
Q 20.953125 74.21875 31.78125 74.21875 
Q 42.671875 74.21875 48.875 69.140625 
Q 55.078125 64.0625 55.078125 55.328125 
Q 55.078125 49.078125 51.53125 44.71875 
Q 48 40.375 41.703125 38.8125 
Q 48.828125 37.15625 52.796875 32.3125 
Q 56.78125 27.484375 56.78125 20.515625 
Q 56.78125 9.90625 50.3125 4.234375 
Q 43.84375 -1.421875 31.78125 -1.421875 
Q 19.734375 -1.421875 13.25 4.234375 
Q 6.78125 9.90625 6.78125 20.515625 
Q 6.78125 27.484375 10.78125 32.3125 
Q 14.796875 37.15625 21.921875 38.8125 
z
M 18.3125 54.390625 
Q 18.3125 48.734375 21.84375 45.5625 
Q 25.390625 42.390625 31.78125 42.390625 
Q 38.140625 42.390625 41.71875 45.5625 
Q 45.3125 48.734375 45.3125 54.390625 
Q 45.3125 60.0625 41.71875 63.234375 
Q 38.140625 66.40625 31.78125 66.40625 
Q 25.390625 66.40625 21.84375 63.234375 
Q 18.3125 60.0625 18.3125 54.390625 
z
" id="DejaVuSans-56"/>
      </defs>
      <g transform="translate(383.951662 555.068713)rotate(-30)scale(0.13 -0.13)">
       <use xlink:href="#DejaVuSans-50"/>
       <use x="63.623047" xlink:href="#DejaVuSans-48"/>
       <use x="127.246094" xlink:href="#DejaVuSans-50"/>
       <use x="190.869141" xlink:href="#DejaVuSans-48"/>
       <use x="254.492188" xlink:href="#DejaVuSans-45"/>
       <use x="290.576172" xlink:href="#DejaVuSans-48"/>
       <use x="354.199219" xlink:href="#DejaVuSans-52"/>
       <use x="417.822266" xlink:href="#DejaVuSans-45"/>
       <use x="453.90625" xlink:href="#DejaVuSans-48"/>
       <use x="517.529297" xlink:href="#DejaVuSans-56"/>
      </g>
     </g>
    </g>
    <g id="xtick_4">
     <g id="line2d_4">
      <g>
       <use style="stroke:#000000;stroke-width:0.8;" x="601.834463" xlink:href="#m5c8d9603da" y="501.738984"/>
      </g>
     </g>
     <g id="text_4">
      <!-- 2020-04-15 -->
      <defs>
       <path d="M 10.796875 72.90625 
L 49.515625 72.90625 
L 49.515625 64.59375 
L 19.828125 64.59375 
L 19.828125 46.734375 
Q 21.96875 47.46875 24.109375 47.828125 
Q 26.265625 48.1875 28.421875 48.1875 
Q 40.625 48.1875 47.75 41.5 
Q 54.890625 34.8125 54.890625 23.390625 
Q 54.890625 11.625 47.5625 5.09375 
Q 40.234375 -1.421875 26.90625 -1.421875 
Q 22.3125 -1.421875 17.546875 -0.640625 
Q 12.796875 0.140625 7.71875 1.703125 
L 7.71875 11.625 
Q 12.109375 9.234375 16.796875 8.0625 
Q 21.484375 6.890625 26.703125 6.890625 
Q 35.15625 6.890625 40.078125 11.328125 
Q 45.015625 15.765625 45.015625 23.390625 
Q 45.015625 31 40.078125 35.4375 
Q 35.15625 39.890625 26.703125 39.890625 
Q 22.75 39.890625 18.8125 39.015625 
Q 14.890625 38.140625 10.796875 36.28125 
z
" id="DejaVuSans-53"/>
      </defs>
      <g transform="translate(535.054176 555.068713)rotate(-30)scale(0.13 -0.13)">
       <use xlink:href="#DejaVuSans-50"/>
       <use x="63.623047" xlink:href="#DejaVuSans-48"/>
       <use x="127.246094" xlink:href="#DejaVuSans-50"/>
       <use x="190.869141" xlink:href="#DejaVuSans-48"/>
       <use x="254.492188" xlink:href="#DejaVuSans-45"/>
       <use x="290.576172" xlink:href="#DejaVuSans-48"/>
       <use x="354.199219" xlink:href="#DejaVuSans-52"/>
       <use x="417.822266" xlink:href="#DejaVuSans-45"/>
       <use x="453.90625" xlink:href="#DejaVuSans-49"/>
       <use x="517.529297" xlink:href="#DejaVuSans-53"/>
      </g>
     </g>
    </g>
    <g id="xtick_5">
     <g id="line2d_5">
      <g>
       <use style="stroke:#000000;stroke-width:0.8;" x="752.936978" xlink:href="#m5c8d9603da" y="501.738984"/>
      </g>
     </g>
     <g id="text_5">
      <!-- 2020-04-22 -->
      <g transform="translate(686.156691 555.068713)rotate(-30)scale(0.13 -0.13)">
       <use xlink:href="#DejaVuSans-50"/>
       <use x="63.623047" xlink:href="#DejaVuSans-48"/>
       <use x="127.246094" xlink:href="#DejaVuSans-50"/>
       <use x="190.869141" xlink:href="#DejaVuSans-48"/>
       <use x="254.492188" xlink:href="#DejaVuSans-45"/>
       <use x="290.576172" xlink:href="#DejaVuSans-48"/>
       <use x="354.199219" xlink:href="#DejaVuSans-52"/>
       <use x="417.822266" xlink:href="#DejaVuSans-45"/>
       <use x="453.90625" xlink:href="#DejaVuSans-50"/>
       <use x="517.529297" xlink:href="#DejaVuSans-50"/>
      </g>
     </g>
    </g>
    <g id="xtick_6">
     <g id="line2d_6">
      <g>
       <use style="stroke:#000000;stroke-width:0.8;" x="947.211639" xlink:href="#m5c8d9603da" y="501.738984"/>
      </g>
     </g>
     <g id="text_6">
      <!-- 2020-05-01 -->
      <g transform="translate(880.431353 555.068713)rotate(-30)scale(0.13 -0.13)">
       <use xlink:href="#DejaVuSans-50"/>
       <use x="63.623047" xlink:href="#DejaVuSans-48"/>
       <use x="127.246094" xlink:href="#DejaVuSans-50"/>
       <use x="190.869141" xlink:href="#DejaVuSans-48"/>
       <use x="254.492188" xlink:href="#DejaVuSans-45"/>
       <use x="290.576172" xlink:href="#DejaVuSans-48"/>
       <use x="354.199219" xlink:href="#DejaVuSans-53"/>
       <use x="417.822266" xlink:href="#DejaVuSans-45"/>
       <use x="453.90625" xlink:href="#DejaVuSans-48"/>
       <use x="517.529297" xlink:href="#DejaVuSans-49"/>
      </g>
     </g>
    </g>
    <g id="xtick_7">
     <g id="line2d_7">
      <g>
       <use style="stroke:#000000;stroke-width:0.8;" x="1098.314154" xlink:href="#m5c8d9603da" y="501.738984"/>
      </g>
     </g>
     <g id="text_7">
      <!-- 2020-05-08 -->
      <g transform="translate(1031.533867 555.068713)rotate(-30)scale(0.13 -0.13)">
       <use xlink:href="#DejaVuSans-50"/>
       <use x="63.623047" xlink:href="#DejaVuSans-48"/>
       <use x="127.246094" xlink:href="#DejaVuSans-50"/>
       <use x="190.869141" xlink:href="#DejaVuSans-48"/>
       <use x="254.492188" xlink:href="#DejaVuSans-45"/>
       <use x="290.576172" xlink:href="#DejaVuSans-48"/>
       <use x="354.199219" xlink:href="#DejaVuSans-53"/>
       <use x="417.822266" xlink:href="#DejaVuSans-45"/>
       <use x="453.90625" xlink:href="#DejaVuSans-48"/>
       <use x="517.529297" xlink:href="#DejaVuSans-56"/>
      </g>
     </g>
    </g>
   </g>
   <g id="matplotlib.axis_2">
    <g id="ytick_1">
     <g id="line2d_8">
      <path clip-path="url(#p01c863db33)" d="M 54.6275 487.651914 
L 1170.6275 487.651914 
" style="fill:none;stroke:#b0b0b0;stroke-linecap:square;stroke-width:0.8;"/>
     </g>
     <g id="line2d_9">
      <defs>
       <path d="M 0 0 
L -3.5 0 
" id="m502b6de7f1" style="stroke:#000000;stroke-width:0.8;"/>
      </defs>
      <g>
       <use style="stroke:#000000;stroke-width:0.8;" x="54.6275" xlink:href="#m502b6de7f1" y="487.651914"/>
      </g>
     </g>
     <g id="text_8">
      <!-- 0 -->
      <g transform="translate(39.35625 492.590898)scale(0.13 -0.13)">
       <use xlink:href="#DejaVuSans-48"/>
      </g>
     </g>
    </g>
    <g id="ytick_2">
     <g id="line2d_10">
      <path clip-path="url(#p01c863db33)" d="M 54.6275 368.773681 
L 1170.6275 368.773681 
" style="fill:none;stroke:#b0b0b0;stroke-linecap:square;stroke-width:0.8;"/>
     </g>
     <g id="line2d_11">
      <g>
       <use style="stroke:#000000;stroke-width:0.8;" x="54.6275" xlink:href="#m502b6de7f1" y="368.773681"/>
      </g>
     </g>
     <g id="text_9">
      <!-- 100 -->
      <g transform="translate(22.81375 373.712666)scale(0.13 -0.13)">
       <use xlink:href="#DejaVuSans-49"/>
       <use x="63.623047" xlink:href="#DejaVuSans-48"/>
       <use x="127.246094" xlink:href="#DejaVuSans-48"/>
      </g>
     </g>
    </g>
    <g id="ytick_3">
     <g id="line2d_12">
      <path clip-path="url(#p01c863db33)" d="M 54.6275 249.895449 
L 1170.6275 249.895449 
" style="fill:none;stroke:#b0b0b0;stroke-linecap:square;stroke-width:0.8;"/>
     </g>
     <g id="line2d_13">
      <g>
       <use style="stroke:#000000;stroke-width:0.8;" x="54.6275" xlink:href="#m502b6de7f1" y="249.895449"/>
      </g>
     </g>
     <g id="text_10">
      <!-- 200 -->
      <g transform="translate(22.81375 254.834433)scale(0.13 -0.13)">
       <use xlink:href="#DejaVuSans-50"/>
       <use x="63.623047" xlink:href="#DejaVuSans-48"/>
       <use x="127.246094" xlink:href="#DejaVuSans-48"/>
      </g>
     </g>
    </g>
    <g id="ytick_4">
     <g id="line2d_14">
      <path clip-path="url(#p01c863db33)" d="M 54.6275 131.017217 
L 1170.6275 131.017217 
" style="fill:none;stroke:#b0b0b0;stroke-linecap:square;stroke-width:0.8;"/>
     </g>
     <g id="line2d_15">
      <g>
       <use style="stroke:#000000;stroke-width:0.8;" x="54.6275" xlink:href="#m502b6de7f1" y="131.017217"/>
      </g>
     </g>
     <g id="text_11">
      <!-- 300 -->
      <g transform="translate(22.81375 135.956201)scale(0.13 -0.13)">
       <use xlink:href="#DejaVuSans-51"/>
       <use x="63.623047" xlink:href="#DejaVuSans-48"/>
       <use x="127.246094" xlink:href="#DejaVuSans-48"/>
      </g>
     </g>
    </g>
    <g id="ytick_5">
     <g id="line2d_16">
      <path clip-path="url(#p01c863db33)" d="M 54.6275 12.138984 
L 1170.6275 12.138984 
" style="fill:none;stroke:#b0b0b0;stroke-linecap:square;stroke-width:0.8;"/>
     </g>
     <g id="line2d_17">
      <g>
       <use style="stroke:#000000;stroke-width:0.8;" x="54.6275" xlink:href="#m502b6de7f1" y="12.138984"/>
      </g>
     </g>
     <g id="text_12">
      <!-- 400 -->
      <g transform="translate(22.81375 17.077969)scale(0.13 -0.13)">
       <use xlink:href="#DejaVuSans-52"/>
       <use x="63.623047" xlink:href="#DejaVuSans-48"/>
       <use x="127.246094" xlink:href="#DejaVuSans-48"/>
      </g>
     </g>
    </g>
    <g id="text_13">
     <!-- Anzahl von Fällen -->
     <defs>
      <path d="M 34.1875 63.1875 
L 20.796875 26.90625 
L 47.609375 26.90625 
z
M 28.609375 72.90625 
L 39.796875 72.90625 
L 67.578125 0 
L 57.328125 0 
L 50.6875 18.703125 
L 17.828125 18.703125 
L 11.1875 0 
L 0.78125 0 
z
" id="DejaVuSans-65"/>
      <path d="M 54.890625 33.015625 
L 54.890625 0 
L 45.90625 0 
L 45.90625 32.71875 
Q 45.90625 40.484375 42.875 44.328125 
Q 39.84375 48.1875 33.796875 48.1875 
Q 26.515625 48.1875 22.3125 43.546875 
Q 18.109375 38.921875 18.109375 30.90625 
L 18.109375 0 
L 9.078125 0 
L 9.078125 54.6875 
L 18.109375 54.6875 
L 18.109375 46.1875 
Q 21.34375 51.125 25.703125 53.5625 
Q 30.078125 56 35.796875 56 
Q 45.21875 56 50.046875 50.171875 
Q 54.890625 44.34375 54.890625 33.015625 
z
" id="DejaVuSans-110"/>
      <path d="M 5.515625 54.6875 
L 48.1875 54.6875 
L 48.1875 46.484375 
L 14.40625 7.171875 
L 48.1875 7.171875 
L 48.1875 0 
L 4.296875 0 
L 4.296875 8.203125 
L 38.09375 47.515625 
L 5.515625 47.515625 
z
" id="DejaVuSans-122"/>
      <path d="M 34.28125 27.484375 
Q 23.390625 27.484375 19.1875 25 
Q 14.984375 22.515625 14.984375 16.5 
Q 14.984375 11.71875 18.140625 8.90625 
Q 21.296875 6.109375 26.703125 6.109375 
Q 34.1875 6.109375 38.703125 11.40625 
Q 43.21875 16.703125 43.21875 25.484375 
L 43.21875 27.484375 
z
M 52.203125 31.203125 
L 52.203125 0 
L 43.21875 0 
L 43.21875 8.296875 
Q 40.140625 3.328125 35.546875 0.953125 
Q 30.953125 -1.421875 24.3125 -1.421875 
Q 15.921875 -1.421875 10.953125 3.296875 
Q 6 8.015625 6 15.921875 
Q 6 25.140625 12.171875 29.828125 
Q 18.359375 34.515625 30.609375 34.515625 
L 43.21875 34.515625 
L 43.21875 35.40625 
Q 43.21875 41.609375 39.140625 45 
Q 35.0625 48.390625 27.6875 48.390625 
Q 23 48.390625 18.546875 47.265625 
Q 14.109375 46.140625 10.015625 43.890625 
L 10.015625 52.203125 
Q 14.9375 54.109375 19.578125 55.046875 
Q 24.21875 56 28.609375 56 
Q 40.484375 56 46.34375 49.84375 
Q 52.203125 43.703125 52.203125 31.203125 
z
" id="DejaVuSans-97"/>
      <path d="M 54.890625 33.015625 
L 54.890625 0 
L 45.90625 0 
L 45.90625 32.71875 
Q 45.90625 40.484375 42.875 44.328125 
Q 39.84375 48.1875 33.796875 48.1875 
Q 26.515625 48.1875 22.3125 43.546875 
Q 18.109375 38.921875 18.109375 30.90625 
L 18.109375 0 
L 9.078125 0 
L 9.078125 75.984375 
L 18.109375 75.984375 
L 18.109375 46.1875 
Q 21.34375 51.125 25.703125 53.5625 
Q 30.078125 56 35.796875 56 
Q 45.21875 56 50.046875 50.171875 
Q 54.890625 44.34375 54.890625 33.015625 
z
" id="DejaVuSans-104"/>
      <path d="M 9.421875 75.984375 
L 18.40625 75.984375 
L 18.40625 0 
L 9.421875 0 
z
" id="DejaVuSans-108"/>
      <path id="DejaVuSans-32"/>
      <path d="M 2.984375 54.6875 
L 12.5 54.6875 
L 29.59375 8.796875 
L 46.6875 54.6875 
L 56.203125 54.6875 
L 35.6875 0 
L 23.484375 0 
z
" id="DejaVuSans-118"/>
      <path d="M 30.609375 48.390625 
Q 23.390625 48.390625 19.1875 42.75 
Q 14.984375 37.109375 14.984375 27.296875 
Q 14.984375 17.484375 19.15625 11.84375 
Q 23.34375 6.203125 30.609375 6.203125 
Q 37.796875 6.203125 41.984375 11.859375 
Q 46.1875 17.53125 46.1875 27.296875 
Q 46.1875 37.015625 41.984375 42.703125 
Q 37.796875 48.390625 30.609375 48.390625 
z
M 30.609375 56 
Q 42.328125 56 49.015625 48.375 
Q 55.71875 40.765625 55.71875 27.296875 
Q 55.71875 13.875 49.015625 6.21875 
Q 42.328125 -1.421875 30.609375 -1.421875 
Q 18.84375 -1.421875 12.171875 6.21875 
Q 5.515625 13.875 5.515625 27.296875 
Q 5.515625 40.765625 12.171875 48.375 
Q 18.84375 56 30.609375 56 
z
" id="DejaVuSans-111"/>
      <path d="M 9.8125 72.90625 
L 51.703125 72.90625 
L 51.703125 64.59375 
L 19.671875 64.59375 
L 19.671875 43.109375 
L 48.578125 43.109375 
L 48.578125 34.8125 
L 19.671875 34.8125 
L 19.671875 0 
L 9.8125 0 
z
" id="DejaVuSans-70"/>
      <path d="M 34.28125 27.484375 
Q 23.390625 27.484375 19.1875 25 
Q 14.984375 22.515625 14.984375 16.5 
Q 14.984375 11.71875 18.140625 8.90625 
Q 21.296875 6.109375 26.703125 6.109375 
Q 34.1875 6.109375 38.703125 11.40625 
Q 43.21875 16.703125 43.21875 25.484375 
L 43.21875 27.484375 
z
M 52.203125 31.203125 
L 52.203125 0 
L 43.21875 0 
L 43.21875 8.296875 
Q 40.140625 3.328125 35.546875 0.953125 
Q 30.953125 -1.421875 24.3125 -1.421875 
Q 15.921875 -1.421875 10.953125 3.296875 
Q 6 8.015625 6 15.921875 
Q 6 25.140625 12.171875 29.828125 
Q 18.359375 34.515625 30.609375 34.515625 
L 43.21875 34.515625 
L 43.21875 35.40625 
Q 43.21875 41.609375 39.140625 45 
Q 35.0625 48.390625 27.6875 48.390625 
Q 23 48.390625 18.546875 47.265625 
Q 14.109375 46.140625 10.015625 43.890625 
L 10.015625 52.203125 
Q 14.9375 54.109375 19.578125 55.046875 
Q 24.21875 56 28.609375 56 
Q 40.484375 56 46.34375 49.84375 
Q 52.203125 43.703125 52.203125 31.203125 
z
M 33.59375 75.78125 
L 43.5 75.78125 
L 43.5 65.921875 
L 33.59375 65.921875 
z
M 14.5 75.78125 
L 24.40625 75.78125 
L 24.40625 65.921875 
L 14.5 65.921875 
z
" id="DejaVuSans-228"/>
      <path d="M 56.203125 29.59375 
L 56.203125 25.203125 
L 14.890625 25.203125 
Q 15.484375 15.921875 20.484375 11.0625 
Q 25.484375 6.203125 34.421875 6.203125 
Q 39.59375 6.203125 44.453125 7.46875 
Q 49.3125 8.734375 54.109375 11.28125 
L 54.109375 2.78125 
Q 49.265625 0.734375 44.1875 -0.34375 
Q 39.109375 -1.421875 33.890625 -1.421875 
Q 20.796875 -1.421875 13.15625 6.1875 
Q 5.515625 13.8125 5.515625 26.8125 
Q 5.515625 40.234375 12.765625 48.109375 
Q 20.015625 56 32.328125 56 
Q 43.359375 56 49.78125 48.890625 
Q 56.203125 41.796875 56.203125 29.59375 
z
M 47.21875 32.234375 
Q 47.125 39.59375 43.09375 43.984375 
Q 39.0625 48.390625 32.421875 48.390625 
Q 24.90625 48.390625 20.390625 44.140625 
Q 15.875 39.890625 15.1875 32.171875 
z
" id="DejaVuSans-101"/>
     </defs>
     <g transform="translate(16.318125 309.388359)rotate(-90)scale(0.12 -0.12)">
      <use xlink:href="#DejaVuSans-65"/>
      <use x="68.408203" xlink:href="#DejaVuSans-110"/>
      <use x="131.787109" xlink:href="#DejaVuSans-122"/>
      <use x="184.277344" xlink:href="#DejaVuSans-97"/>
      <use x="245.556641" xlink:href="#DejaVuSans-104"/>
      <use x="308.935547" xlink:href="#DejaVuSans-108"/>
      <use x="336.71875" xlink:href="#DejaVuSans-32"/>
      <use x="368.505859" xlink:href="#DejaVuSans-118"/>
      <use x="427.685547" xlink:href="#DejaVuSans-111"/>
      <use x="488.867188" xlink:href="#DejaVuSans-110"/>
      <use x="552.246094" xlink:href="#DejaVuSans-32"/>
      <use x="584.033203" xlink:href="#DejaVuSans-70"/>
      <use x="632.427734" xlink:href="#DejaVuSans-228"/>
      <use x="693.707031" xlink:href="#DejaVuSans-108"/>
      <use x="721.490234" xlink:href="#DejaVuSans-108"/>
      <use x="749.273438" xlink:href="#DejaVuSans-101"/>
      <use x="810.796875" xlink:href="#DejaVuSans-110"/>
     </g>
    </g>
   </g>
   <g id="line2d_18">
    <path clip-path="url(#p01c863db33)" d="M 105.354773 485.274349 
L 126.940846 485.274349 
L 148.52692 484.085567 
L 170.112993 482.896785 
L 191.699067 482.896785 
L 213.28514 482.896785 
L 234.871214 482.896785 
L 256.457287 482.896785 
L 278.043361 468.631397 
L 299.629434 463.876267 
L 321.215508 462.687485 
L 342.801581 461.498703 
L 364.387655 459.121138 
L 385.973728 457.932356 
L 407.559802 449.610879 
L 429.145875 444.85575 
L 450.731949 441.289403 
L 472.318022 437.723056 
L 493.904096 436.534274 
L 515.490169 431.779145 
L 537.076243 429.40158 
L 580.24839 425.835233 
L 601.834463 374.717593 
L 623.420537 361.640988 
L 645.00661 350.941947 
L 666.592684 341.431688 
L 709.764831 322.411171 
L 731.350904 305.768218 
L 752.936978 291.50283 
L 774.523051 258.216925 
L 796.109125 254.650578 
L 817.695198 241.573973 
L 860.867345 239.196408 
L 882.453419 224.93102 
L 904.039492 218.987109 
L 925.625566 217.798326 
L 968.797713 209.47685 
L 1011.96986 208.288068 
L 1033.555933 195.211462 
L 1055.142007 195.211462 
L 1076.72808 185.701204 
L 1098.314154 180.946074 
L 1119.900227 155.981646 
" style="fill:none;stroke:#dbcd00;stroke-linecap:square;stroke-width:2;"/>
    <defs>
     <path d="M 0 1.5 
C 0.397805 1.5 0.77937 1.341951 1.06066 1.06066 
C 1.341951 0.77937 1.5 0.397805 1.5 0 
C 1.5 -0.397805 1.341951 -0.77937 1.06066 -1.06066 
C 0.77937 -1.341951 0.397805 -1.5 0 -1.5 
C -0.397805 -1.5 -0.77937 -1.341951 -1.06066 -1.06066 
C -1.341951 -0.77937 -1.5 -0.397805 -1.5 0 
C -1.5 0.397805 -1.341951 0.77937 -1.06066 1.06066 
C -0.77937 1.341951 -0.397805 1.5 0 1.5 
z
" id="m1b0dff71f4" style="stroke:#dbcd00;"/>
    </defs>
    <g clip-path="url(#p01c863db33)">
     <use style="fill:#dbcd00;stroke:#dbcd00;" x="105.354773" xlink:href="#m1b0dff71f4" y="485.274349"/>
     <use style="fill:#dbcd00;stroke:#dbcd00;" x="126.940846" xlink:href="#m1b0dff71f4" y="485.274349"/>
     <use style="fill:#dbcd00;stroke:#dbcd00;" x="148.52692" xlink:href="#m1b0dff71f4" y="484.085567"/>
     <use style="fill:#dbcd00;stroke:#dbcd00;" x="170.112993" xlink:href="#m1b0dff71f4" y="482.896785"/>
     <use style="fill:#dbcd00;stroke:#dbcd00;" x="191.699067" xlink:href="#m1b0dff71f4" y="482.896785"/>
     <use style="fill:#dbcd00;stroke:#dbcd00;" x="213.28514" xlink:href="#m1b0dff71f4" y="482.896785"/>
     <use style="fill:#dbcd00;stroke:#dbcd00;" x="234.871214" xlink:href="#m1b0dff71f4" y="482.896785"/>
     <use style="fill:#dbcd00;stroke:#dbcd00;" x="256.457287" xlink:href="#m1b0dff71f4" y="482.896785"/>
     <use style="fill:#dbcd00;stroke:#dbcd00;" x="278.043361" xlink:href="#m1b0dff71f4" y="468.631397"/>
     <use style="fill:#dbcd00;stroke:#dbcd00;" x="299.629434" xlink:href="#m1b0dff71f4" y="463.876267"/>
     <use style="fill:#dbcd00;stroke:#dbcd00;" x="321.215508" xlink:href="#m1b0dff71f4" y="462.687485"/>
     <use style="fill:#dbcd00;stroke:#dbcd00;" x="342.801581" xlink:href="#m1b0dff71f4" y="461.498703"/>
     <use style="fill:#dbcd00;stroke:#dbcd00;" x="364.387655" xlink:href="#m1b0dff71f4" y="459.121138"/>
     <use style="fill:#dbcd00;stroke:#dbcd00;" x="385.973728" xlink:href="#m1b0dff71f4" y="457.932356"/>
     <use style="fill:#dbcd00;stroke:#dbcd00;" x="407.559802" xlink:href="#m1b0dff71f4" y="449.610879"/>
     <use style="fill:#dbcd00;stroke:#dbcd00;" x="429.145875" xlink:href="#m1b0dff71f4" y="444.85575"/>
     <use style="fill:#dbcd00;stroke:#dbcd00;" x="450.731949" xlink:href="#m1b0dff71f4" y="441.289403"/>
     <use style="fill:#dbcd00;stroke:#dbcd00;" x="472.318022" xlink:href="#m1b0dff71f4" y="437.723056"/>
     <use style="fill:#dbcd00;stroke:#dbcd00;" x="493.904096" xlink:href="#m1b0dff71f4" y="436.534274"/>
     <use style="fill:#dbcd00;stroke:#dbcd00;" x="515.490169" xlink:href="#m1b0dff71f4" y="431.779145"/>
     <use style="fill:#dbcd00;stroke:#dbcd00;" x="537.076243" xlink:href="#m1b0dff71f4" y="429.40158"/>
     <use style="fill:#dbcd00;stroke:#dbcd00;" x="580.24839" xlink:href="#m1b0dff71f4" y="425.835233"/>
     <use style="fill:#dbcd00;stroke:#dbcd00;" x="601.834463" xlink:href="#m1b0dff71f4" y="374.717593"/>
     <use style="fill:#dbcd00;stroke:#dbcd00;" x="623.420537" xlink:href="#m1b0dff71f4" y="361.640988"/>
     <use style="fill:#dbcd00;stroke:#dbcd00;" x="645.00661" xlink:href="#m1b0dff71f4" y="350.941947"/>
     <use style="fill:#dbcd00;stroke:#dbcd00;" x="666.592684" xlink:href="#m1b0dff71f4" y="341.431688"/>
     <use style="fill:#dbcd00;stroke:#dbcd00;" x="709.764831" xlink:href="#m1b0dff71f4" y="322.411171"/>
     <use style="fill:#dbcd00;stroke:#dbcd00;" x="731.350904" xlink:href="#m1b0dff71f4" y="305.768218"/>
     <use style="fill:#dbcd00;stroke:#dbcd00;" x="752.936978" xlink:href="#m1b0dff71f4" y="291.50283"/>
     <use style="fill:#dbcd00;stroke:#dbcd00;" x="774.523051" xlink:href="#m1b0dff71f4" y="258.216925"/>
     <use style="fill:#dbcd00;stroke:#dbcd00;" x="796.109125" xlink:href="#m1b0dff71f4" y="254.650578"/>
     <use style="fill:#dbcd00;stroke:#dbcd00;" x="817.695198" xlink:href="#m1b0dff71f4" y="241.573973"/>
     <use style="fill:#dbcd00;stroke:#dbcd00;" x="860.867345" xlink:href="#m1b0dff71f4" y="239.196408"/>
     <use style="fill:#dbcd00;stroke:#dbcd00;" x="882.453419" xlink:href="#m1b0dff71f4" y="224.93102"/>
     <use style="fill:#dbcd00;stroke:#dbcd00;" x="904.039492" xlink:href="#m1b0dff71f4" y="218.987109"/>
     <use style="fill:#dbcd00;stroke:#dbcd00;" x="925.625566" xlink:href="#m1b0dff71f4" y="217.798326"/>
     <use style="fill:#dbcd00;stroke:#dbcd00;" x="968.797713" xlink:href="#m1b0dff71f4" y="209.47685"/>
     <use style="fill:#dbcd00;stroke:#dbcd00;" x="1011.96986" xlink:href="#m1b0dff71f4" y="208.288068"/>
     <use style="fill:#dbcd00;stroke:#dbcd00;" x="1033.555933" xlink:href="#m1b0dff71f4" y="195.211462"/>
     <use style="fill:#dbcd00;stroke:#dbcd00;" x="1055.142007" xlink:href="#m1b0dff71f4" y="195.211462"/>
     <use style="fill:#dbcd00;stroke:#dbcd00;" x="1076.72808" xlink:href="#m1b0dff71f4" y="185.701204"/>
     <use style="fill:#dbcd00;stroke:#dbcd00;" x="1098.314154" xlink:href="#m1b0dff71f4" y="180.946074"/>
     <use style="fill:#dbcd00;stroke:#dbcd00;" x="1119.900227" xlink:href="#m1b0dff71f4" y="155.981646"/>
    </g>
   </g>
   <g id="line2d_19">
    <path clip-path="url(#p01c863db33)" d="M 105.354773 430.590362 
L 126.940846 424.646451 
L 148.52692 418.702539 
L 170.112993 421.080104 
L 191.699067 399.682022 
L 213.28514 390.171763 
L 234.871214 383.039069 
L 256.457287 373.528811 
L 278.043361 372.340028 
L 299.629434 359.263423 
L 321.215508 344.998035 
L 342.801581 327.1663 
L 364.387655 316.467259 
L 385.973728 299.824307 
L 407.559802 299.824307 
L 429.145875 285.558919 
L 450.731949 286.747701 
L 472.318022 273.671096 
L 493.904096 272.482313 
L 515.490169 265.349619 
L 537.076243 267.727184 
L 580.24839 257.028143 
L 601.834463 306.957001 
L 623.420537 317.656042 
L 645.00661 320.033606 
L 666.592684 320.033606 
L 709.764831 369.962464 
L 731.350904 384.227852 
L 752.936978 362.82977 
L 774.523051 388.982981 
L 796.109125 392.549328 
L 817.695198 405.625934 
L 860.867345 408.003498 
L 882.453419 373.528811 
L 904.039492 371.151246 
L 925.625566 369.962464 
L 968.797713 375.906375 
L 1011.96986 373.528811 
L 1033.555933 386.605416 
L 1055.142007 383.039069 
L 1076.72808 390.171763 
L 1098.314154 387.794199 
L 1119.900227 409.19228 
" style="fill:none;stroke:#2792cb;stroke-linecap:square;stroke-width:2;"/>
    <defs>
     <path d="M 0 1.5 
C 0.397805 1.5 0.77937 1.341951 1.06066 1.06066 
C 1.341951 0.77937 1.5 0.397805 1.5 0 
C 1.5 -0.397805 1.341951 -0.77937 1.06066 -1.06066 
C 0.77937 -1.341951 0.397805 -1.5 0 -1.5 
C -0.397805 -1.5 -0.77937 -1.341951 -1.06066 -1.06066 
C -1.341951 -0.77937 -1.5 -0.397805 -1.5 0 
C -1.5 0.397805 -1.341951 0.77937 -1.06066 1.06066 
C -0.77937 1.341951 -0.397805 1.5 0 1.5 
z
" id="m2a3f30cace" style="stroke:#2792cb;"/>
    </defs>
    <g clip-path="url(#p01c863db33)">
     <use style="fill:#2792cb;stroke:#2792cb;" x="105.354773" xlink:href="#m2a3f30cace" y="430.590362"/>
     <use style="fill:#2792cb;stroke:#2792cb;" x="126.940846" xlink:href="#m2a3f30cace" y="424.646451"/>
     <use style="fill:#2792cb;stroke:#2792cb;" x="148.52692" xlink:href="#m2a3f30cace" y="418.702539"/>
     <use style="fill:#2792cb;stroke:#2792cb;" x="170.112993" xlink:href="#m2a3f30cace" y="421.080104"/>
     <use style="fill:#2792cb;stroke:#2792cb;" x="191.699067" xlink:href="#m2a3f30cace" y="399.682022"/>
     <use style="fill:#2792cb;stroke:#2792cb;" x="213.28514" xlink:href="#m2a3f30cace" y="390.171763"/>
     <use style="fill:#2792cb;stroke:#2792cb;" x="234.871214" xlink:href="#m2a3f30cace" y="383.039069"/>
     <use style="fill:#2792cb;stroke:#2792cb;" x="256.457287" xlink:href="#m2a3f30cace" y="373.528811"/>
     <use style="fill:#2792cb;stroke:#2792cb;" x="278.043361" xlink:href="#m2a3f30cace" y="372.340028"/>
     <use style="fill:#2792cb;stroke:#2792cb;" x="299.629434" xlink:href="#m2a3f30cace" y="359.263423"/>
     <use style="fill:#2792cb;stroke:#2792cb;" x="321.215508" xlink:href="#m2a3f30cace" y="344.998035"/>
     <use style="fill:#2792cb;stroke:#2792cb;" x="342.801581" xlink:href="#m2a3f30cace" y="327.1663"/>
     <use style="fill:#2792cb;stroke:#2792cb;" x="364.387655" xlink:href="#m2a3f30cace" y="316.467259"/>
     <use style="fill:#2792cb;stroke:#2792cb;" x="385.973728" xlink:href="#m2a3f30cace" y="299.824307"/>
     <use style="fill:#2792cb;stroke:#2792cb;" x="407.559802" xlink:href="#m2a3f30cace" y="299.824307"/>
     <use style="fill:#2792cb;stroke:#2792cb;" x="429.145875" xlink:href="#m2a3f30cace" y="285.558919"/>
     <use style="fill:#2792cb;stroke:#2792cb;" x="450.731949" xlink:href="#m2a3f30cace" y="286.747701"/>
     <use style="fill:#2792cb;stroke:#2792cb;" x="472.318022" xlink:href="#m2a3f30cace" y="273.671096"/>
     <use style="fill:#2792cb;stroke:#2792cb;" x="493.904096" xlink:href="#m2a3f30cace" y="272.482313"/>
     <use style="fill:#2792cb;stroke:#2792cb;" x="515.490169" xlink:href="#m2a3f30cace" y="265.349619"/>
     <use style="fill:#2792cb;stroke:#2792cb;" x="537.076243" xlink:href="#m2a3f30cace" y="267.727184"/>
     <use style="fill:#2792cb;stroke:#2792cb;" x="580.24839" xlink:href="#m2a3f30cace" y="257.028143"/>
     <use style="fill:#2792cb;stroke:#2792cb;" x="601.834463" xlink:href="#m2a3f30cace" y="306.957001"/>
     <use style="fill:#2792cb;stroke:#2792cb;" x="623.420537" xlink:href="#m2a3f30cace" y="317.656042"/>
     <use style="fill:#2792cb;stroke:#2792cb;" x="645.00661" xlink:href="#m2a3f30cace" y="320.033606"/>
     <use style="fill:#2792cb;stroke:#2792cb;" x="666.592684" xlink:href="#m2a3f30cace" y="320.033606"/>
     <use style="fill:#2792cb;stroke:#2792cb;" x="709.764831" xlink:href="#m2a3f30cace" y="369.962464"/>
     <use style="fill:#2792cb;stroke:#2792cb;" x="731.350904" xlink:href="#m2a3f30cace" y="384.227852"/>
     <use style="fill:#2792cb;stroke:#2792cb;" x="752.936978" xlink:href="#m2a3f30cace" y="362.82977"/>
     <use style="fill:#2792cb;stroke:#2792cb;" x="774.523051" xlink:href="#m2a3f30cace" y="388.982981"/>
     <use style="fill:#2792cb;stroke:#2792cb;" x="796.109125" xlink:href="#m2a3f30cace" y="392.549328"/>
     <use style="fill:#2792cb;stroke:#2792cb;" x="817.695198" xlink:href="#m2a3f30cace" y="405.625934"/>
     <use style="fill:#2792cb;stroke:#2792cb;" x="860.867345" xlink:href="#m2a3f30cace" y="408.003498"/>
     <use style="fill:#2792cb;stroke:#2792cb;" x="882.453419" xlink:href="#m2a3f30cace" y="373.528811"/>
     <use style="fill:#2792cb;stroke:#2792cb;" x="904.039492" xlink:href="#m2a3f30cace" y="371.151246"/>
     <use style="fill:#2792cb;stroke:#2792cb;" x="925.625566" xlink:href="#m2a3f30cace" y="369.962464"/>
     <use style="fill:#2792cb;stroke:#2792cb;" x="968.797713" xlink:href="#m2a3f30cace" y="375.906375"/>
     <use style="fill:#2792cb;stroke:#2792cb;" x="1011.96986" xlink:href="#m2a3f30cace" y="373.528811"/>
     <use style="fill:#2792cb;stroke:#2792cb;" x="1033.555933" xlink:href="#m2a3f30cace" y="386.605416"/>
     <use style="fill:#2792cb;stroke:#2792cb;" x="1055.142007" xlink:href="#m2a3f30cace" y="383.039069"/>
     <use style="fill:#2792cb;stroke:#2792cb;" x="1076.72808" xlink:href="#m2a3f30cace" y="390.171763"/>
     <use style="fill:#2792cb;stroke:#2792cb;" x="1098.314154" xlink:href="#m2a3f30cace" y="387.794199"/>
     <use style="fill:#2792cb;stroke:#2792cb;" x="1119.900227" xlink:href="#m2a3f30cace" y="409.19228"/>
    </g>
   </g>
   <g id="patch_3">
    <path d="M 54.6275 501.738984 
L 1170.6275 501.738984 
" style="fill:none;stroke:#000000;stroke-linecap:square;stroke-linejoin:miter;stroke-width:0.8;"/>
   </g>
   <g id="legend_1">
    <g id="line2d_20">
     <path d="M 1083.382188 25.237422 
L 1103.382188 25.237422 
" style="fill:none;stroke:#dbcd00;stroke-linecap:square;stroke-width:2;"/>
    </g>
    <g id="line2d_21">
     <g>
      <use style="fill:#dbcd00;stroke:#dbcd00;" x="1093.382188" xlink:href="#m1b0dff71f4" y="25.237422"/>
     </g>
    </g>
    <g id="text_14">
     <!-- Genesene -->
     <defs>
      <path d="M 59.515625 10.40625 
L 59.515625 29.984375 
L 43.40625 29.984375 
L 43.40625 38.09375 
L 69.28125 38.09375 
L 69.28125 6.78125 
Q 63.578125 2.734375 56.6875 0.65625 
Q 49.8125 -1.421875 42 -1.421875 
Q 24.90625 -1.421875 15.25 8.5625 
Q 5.609375 18.5625 5.609375 36.375 
Q 5.609375 54.25 15.25 64.234375 
Q 24.90625 74.21875 42 74.21875 
Q 49.125 74.21875 55.546875 72.453125 
Q 61.96875 70.703125 67.390625 67.28125 
L 67.390625 56.78125 
Q 61.921875 61.421875 55.765625 63.765625 
Q 49.609375 66.109375 42.828125 66.109375 
Q 29.4375 66.109375 22.71875 58.640625 
Q 16.015625 51.171875 16.015625 36.375 
Q 16.015625 21.625 22.71875 14.15625 
Q 29.4375 6.6875 42.828125 6.6875 
Q 48.046875 6.6875 52.140625 7.59375 
Q 56.25 8.5 59.515625 10.40625 
z
" id="DejaVuSans-71"/>
      <path d="M 44.28125 53.078125 
L 44.28125 44.578125 
Q 40.484375 46.53125 36.375 47.5 
Q 32.28125 48.484375 27.875 48.484375 
Q 21.1875 48.484375 17.84375 46.4375 
Q 14.5 44.390625 14.5 40.28125 
Q 14.5 37.15625 16.890625 35.375 
Q 19.28125 33.59375 26.515625 31.984375 
L 29.59375 31.296875 
Q 39.15625 29.25 43.1875 25.515625 
Q 47.21875 21.78125 47.21875 15.09375 
Q 47.21875 7.46875 41.1875 3.015625 
Q 35.15625 -1.421875 24.609375 -1.421875 
Q 20.21875 -1.421875 15.453125 -0.5625 
Q 10.6875 0.296875 5.421875 2 
L 5.421875 11.28125 
Q 10.40625 8.6875 15.234375 7.390625 
Q 20.0625 6.109375 24.8125 6.109375 
Q 31.15625 6.109375 34.5625 8.28125 
Q 37.984375 10.453125 37.984375 14.40625 
Q 37.984375 18.0625 35.515625 20.015625 
Q 33.0625 21.96875 24.703125 23.78125 
L 21.578125 24.515625 
Q 13.234375 26.265625 9.515625 29.90625 
Q 5.8125 33.546875 5.8125 39.890625 
Q 5.8125 47.609375 11.28125 51.796875 
Q 16.75 56 26.8125 56 
Q 31.78125 56 36.171875 55.265625 
Q 40.578125 54.546875 44.28125 53.078125 
z
" id="DejaVuSans-115"/>
     </defs>
     <g transform="translate(1111.382188 28.737422)scale(0.1 -0.1)">
      <use xlink:href="#DejaVuSans-71"/>
      <use x="77.490234" xlink:href="#DejaVuSans-101"/>
      <use x="139.013672" xlink:href="#DejaVuSans-110"/>
      <use x="202.392578" xlink:href="#DejaVuSans-101"/>
      <use x="263.916016" xlink:href="#DejaVuSans-115"/>
      <use x="316.015625" xlink:href="#DejaVuSans-101"/>
      <use x="377.539062" xlink:href="#DejaVuSans-110"/>
      <use x="440.917969" xlink:href="#DejaVuSans-101"/>
     </g>
    </g>
    <g id="line2d_22">
     <path d="M 1083.382188 39.915547 
L 1103.382188 39.915547 
" style="fill:none;stroke:#2792cb;stroke-linecap:square;stroke-width:2;"/>
    </g>
    <g id="line2d_23">
     <g>
      <use style="fill:#2792cb;stroke:#2792cb;" x="1093.382188" xlink:href="#m2a3f30cace" y="39.915547"/>
     </g>
    </g>
    <g id="text_15">
     <!-- Erkrankte -->
     <defs>
      <path d="M 9.8125 72.90625 
L 55.90625 72.90625 
L 55.90625 64.59375 
L 19.671875 64.59375 
L 19.671875 43.015625 
L 54.390625 43.015625 
L 54.390625 34.71875 
L 19.671875 34.71875 
L 19.671875 8.296875 
L 56.78125 8.296875 
L 56.78125 0 
L 9.8125 0 
z
" id="DejaVuSans-69"/>
      <path d="M 41.109375 46.296875 
Q 39.59375 47.171875 37.8125 47.578125 
Q 36.03125 48 33.890625 48 
Q 26.265625 48 22.1875 43.046875 
Q 18.109375 38.09375 18.109375 28.8125 
L 18.109375 0 
L 9.078125 0 
L 9.078125 54.6875 
L 18.109375 54.6875 
L 18.109375 46.1875 
Q 20.953125 51.171875 25.484375 53.578125 
Q 30.03125 56 36.53125 56 
Q 37.453125 56 38.578125 55.875 
Q 39.703125 55.765625 41.0625 55.515625 
z
" id="DejaVuSans-114"/>
      <path d="M 9.078125 75.984375 
L 18.109375 75.984375 
L 18.109375 31.109375 
L 44.921875 54.6875 
L 56.390625 54.6875 
L 27.390625 29.109375 
L 57.625 0 
L 45.90625 0 
L 18.109375 26.703125 
L 18.109375 0 
L 9.078125 0 
z
" id="DejaVuSans-107"/>
      <path d="M 18.3125 70.21875 
L 18.3125 54.6875 
L 36.8125 54.6875 
L 36.8125 47.703125 
L 18.3125 47.703125 
L 18.3125 18.015625 
Q 18.3125 11.328125 20.140625 9.421875 
Q 21.96875 7.515625 27.59375 7.515625 
L 36.8125 7.515625 
L 36.8125 0 
L 27.59375 0 
Q 17.1875 0 13.234375 3.875 
Q 9.28125 7.765625 9.28125 18.015625 
L 9.28125 47.703125 
L 2.6875 47.703125 
L 2.6875 54.6875 
L 9.28125 54.6875 
L 9.28125 70.21875 
z
" id="DejaVuSans-116"/>
     </defs>
     <g transform="translate(1111.382188 43.415547)scale(0.1 -0.1)">
      <use xlink:href="#DejaVuSans-69"/>
      <use x="63.183594" xlink:href="#DejaVuSans-114"/>
      <use x="104.296875" xlink:href="#DejaVuSans-107"/>
      <use x="162.207031" xlink:href="#DejaVuSans-114"/>
      <use x="203.320312" xlink:href="#DejaVuSans-97"/>
      <use x="264.599609" xlink:href="#DejaVuSans-110"/>
      <use x="327.978516" xlink:href="#DejaVuSans-107"/>
      <use x="385.888672" xlink:href="#DejaVuSans-116"/>
      <use x="425.097656" xlink:href="#DejaVuSans-101"/>
     </g>
    </g>
   </g>
  </g>
 </g>
 <defs>
  <clipPath id="p01c863db33">
   <rect height="489.6" width="1116" x="54.6275" y="12.138984"/>
  </clipPath>
 </defs>
</svg>
