<?xml version="1.0" encoding="utf-8" standalone="no"?>
<!DOCTYPE svg PUBLIC "-//W3C//DTD SVG 1.1//EN"
  "http://www.w3.org/Graphics/SVG/1.1/DTD/svg11.dtd">
<!-- Created with matplotlib (https://matplotlib.org/) -->
<svg height="553.993765pt" version="1.1" viewBox="0 0 1186.09875 553.993765" width="1186.09875pt" xmlns="http://www.w3.org/2000/svg" xmlns:xlink="http://www.w3.org/1999/xlink">
 <defs>
  <style type="text/css">
*{stroke-linecap:butt;stroke-linejoin:round;}
  </style>
 </defs>
 <g id="figure_1">
  <g id="patch_1">
   <path d="M 0 553.993765 
L 1186.09875 553.993765 
L 1186.09875 0 
L 0 0 
z
" style="fill:#ffffff;"/>
  </g>
  <g id="axes_1">
   <g id="patch_2">
    <path d="M 62.89875 501.738984 
L 1178.89875 501.738984 
L 1178.89875 12.138984 
L 62.89875 12.138984 
z
" style="fill:#ffffff;"/>
   </g>
   <g id="matplotlib.axis_1">
    <g id="xtick_1">
     <g id="line2d_1">
      <defs>
       <path d="M 0 0 
L 0 3.5 
" id="m60392b60de" style="stroke:#000000;stroke-width:0.8;"/>
      </defs>
      <g>
       <use style="stroke:#000000;stroke-width:0.8;" x="214.575819" xlink:href="#m60392b60de" y="501.738984"/>
      </g>
     </g>
     <g id="text_1">
      <!-- 2020-04 -->
      <defs>
       <path d="M 19.1875 8.296875 
L 53.609375 8.296875 
L 53.609375 0 
L 7.328125 0 
L 7.328125 8.296875 
Q 12.9375 14.109375 22.625 23.890625 
Q 32.328125 33.6875 34.8125 36.53125 
Q 39.546875 41.84375 41.421875 45.53125 
Q 43.3125 49.21875 43.3125 52.78125 
Q 43.3125 58.59375 39.234375 62.25 
Q 35.15625 65.921875 28.609375 65.921875 
Q 23.96875 65.921875 18.8125 64.3125 
Q 13.671875 62.703125 7.8125 59.421875 
L 7.8125 69.390625 
Q 13.765625 71.78125 18.9375 73 
Q 24.125 74.21875 28.421875 74.21875 
Q 39.75 74.21875 46.484375 68.546875 
Q 53.21875 62.890625 53.21875 53.421875 
Q 53.21875 48.921875 51.53125 44.890625 
Q 49.859375 40.875 45.40625 35.40625 
Q 44.1875 33.984375 37.640625 27.21875 
Q 31.109375 20.453125 19.1875 8.296875 
z
" id="DejaVuSans-50"/>
       <path d="M 31.78125 66.40625 
Q 24.171875 66.40625 20.328125 58.90625 
Q 16.5 51.421875 16.5 36.375 
Q 16.5 21.390625 20.328125 13.890625 
Q 24.171875 6.390625 31.78125 6.390625 
Q 39.453125 6.390625 43.28125 13.890625 
Q 47.125 21.390625 47.125 36.375 
Q 47.125 51.421875 43.28125 58.90625 
Q 39.453125 66.40625 31.78125 66.40625 
z
M 31.78125 74.21875 
Q 44.046875 74.21875 50.515625 64.515625 
Q 56.984375 54.828125 56.984375 36.375 
Q 56.984375 17.96875 50.515625 8.265625 
Q 44.046875 -1.421875 31.78125 -1.421875 
Q 19.53125 -1.421875 13.0625 8.265625 
Q 6.59375 17.96875 6.59375 36.375 
Q 6.59375 54.828125 13.0625 64.515625 
Q 19.53125 74.21875 31.78125 74.21875 
z
" id="DejaVuSans-48"/>
       <path d="M 4.890625 31.390625 
L 31.203125 31.390625 
L 31.203125 23.390625 
L 4.890625 23.390625 
z
" id="DejaVuSans-45"/>
       <path d="M 37.796875 64.3125 
L 12.890625 25.390625 
L 37.796875 25.390625 
z
M 35.203125 72.90625 
L 47.609375 72.90625 
L 47.609375 25.390625 
L 58.015625 25.390625 
L 58.015625 17.1875 
L 47.609375 17.1875 
L 47.609375 0 
L 37.796875 0 
L 37.796875 17.1875 
L 4.890625 17.1875 
L 4.890625 26.703125 
z
" id="DejaVuSans-52"/>
      </defs>
      <g transform="translate(166.183552 544.452384)rotate(-30)scale(0.13 -0.13)">
       <use xlink:href="#DejaVuSans-50"/>
       <use x="63.623047" xlink:href="#DejaVuSans-48"/>
       <use x="127.246094" xlink:href="#DejaVuSans-50"/>
       <use x="190.869141" xlink:href="#DejaVuSans-48"/>
       <use x="254.492188" xlink:href="#DejaVuSans-45"/>
       <use x="290.576172" xlink:href="#DejaVuSans-48"/>
       <use x="354.199219" xlink:href="#DejaVuSans-52"/>
      </g>
     </g>
    </g>
    <g id="xtick_2">
     <g id="line2d_2">
      <g>
       <use style="stroke:#000000;stroke-width:0.8;" x="366.000514" xlink:href="#m60392b60de" y="501.738984"/>
      </g>
     </g>
     <g id="text_2">
      <!-- 2020-05 -->
      <defs>
       <path d="M 10.796875 72.90625 
L 49.515625 72.90625 
L 49.515625 64.59375 
L 19.828125 64.59375 
L 19.828125 46.734375 
Q 21.96875 47.46875 24.109375 47.828125 
Q 26.265625 48.1875 28.421875 48.1875 
Q 40.625 48.1875 47.75 41.5 
Q 54.890625 34.8125 54.890625 23.390625 
Q 54.890625 11.625 47.5625 5.09375 
Q 40.234375 -1.421875 26.90625 -1.421875 
Q 22.3125 -1.421875 17.546875 -0.640625 
Q 12.796875 0.140625 7.71875 1.703125 
L 7.71875 11.625 
Q 12.109375 9.234375 16.796875 8.0625 
Q 21.484375 6.890625 26.703125 6.890625 
Q 35.15625 6.890625 40.078125 11.328125 
Q 45.015625 15.765625 45.015625 23.390625 
Q 45.015625 31 40.078125 35.4375 
Q 35.15625 39.890625 26.703125 39.890625 
Q 22.75 39.890625 18.8125 39.015625 
Q 14.890625 38.140625 10.796875 36.28125 
z
" id="DejaVuSans-53"/>
      </defs>
      <g transform="translate(317.608247 544.452384)rotate(-30)scale(0.13 -0.13)">
       <use xlink:href="#DejaVuSans-50"/>
       <use x="63.623047" xlink:href="#DejaVuSans-48"/>
       <use x="127.246094" xlink:href="#DejaVuSans-50"/>
       <use x="190.869141" xlink:href="#DejaVuSans-48"/>
       <use x="254.492188" xlink:href="#DejaVuSans-45"/>
       <use x="290.576172" xlink:href="#DejaVuSans-48"/>
       <use x="354.199219" xlink:href="#DejaVuSans-53"/>
      </g>
     </g>
    </g>
    <g id="xtick_3">
     <g id="line2d_3">
      <g>
       <use style="stroke:#000000;stroke-width:0.8;" x="522.472698" xlink:href="#m60392b60de" y="501.738984"/>
      </g>
     </g>
     <g id="text_3">
      <!-- 2020-06 -->
      <defs>
       <path d="M 33.015625 40.375 
Q 26.375 40.375 22.484375 35.828125 
Q 18.609375 31.296875 18.609375 23.390625 
Q 18.609375 15.53125 22.484375 10.953125 
Q 26.375 6.390625 33.015625 6.390625 
Q 39.65625 6.390625 43.53125 10.953125 
Q 47.40625 15.53125 47.40625 23.390625 
Q 47.40625 31.296875 43.53125 35.828125 
Q 39.65625 40.375 33.015625 40.375 
z
M 52.59375 71.296875 
L 52.59375 62.3125 
Q 48.875 64.0625 45.09375 64.984375 
Q 41.3125 65.921875 37.59375 65.921875 
Q 27.828125 65.921875 22.671875 59.328125 
Q 17.53125 52.734375 16.796875 39.40625 
Q 19.671875 43.65625 24.015625 45.921875 
Q 28.375 48.1875 33.59375 48.1875 
Q 44.578125 48.1875 50.953125 41.515625 
Q 57.328125 34.859375 57.328125 23.390625 
Q 57.328125 12.15625 50.6875 5.359375 
Q 44.046875 -1.421875 33.015625 -1.421875 
Q 20.359375 -1.421875 13.671875 8.265625 
Q 6.984375 17.96875 6.984375 36.375 
Q 6.984375 53.65625 15.1875 63.9375 
Q 23.390625 74.21875 37.203125 74.21875 
Q 40.921875 74.21875 44.703125 73.484375 
Q 48.484375 72.75 52.59375 71.296875 
z
" id="DejaVuSans-54"/>
      </defs>
      <g transform="translate(474.080431 544.452384)rotate(-30)scale(0.13 -0.13)">
       <use xlink:href="#DejaVuSans-50"/>
       <use x="63.623047" xlink:href="#DejaVuSans-48"/>
       <use x="127.246094" xlink:href="#DejaVuSans-50"/>
       <use x="190.869141" xlink:href="#DejaVuSans-48"/>
       <use x="254.492188" xlink:href="#DejaVuSans-45"/>
       <use x="290.576172" xlink:href="#DejaVuSans-48"/>
       <use x="354.199219" xlink:href="#DejaVuSans-54"/>
      </g>
     </g>
    </g>
    <g id="xtick_4">
     <g id="line2d_4">
      <g>
       <use style="stroke:#000000;stroke-width:0.8;" x="673.897393" xlink:href="#m60392b60de" y="501.738984"/>
      </g>
     </g>
     <g id="text_4">
      <!-- 2020-07 -->
      <defs>
       <path d="M 8.203125 72.90625 
L 55.078125 72.90625 
L 55.078125 68.703125 
L 28.609375 0 
L 18.3125 0 
L 43.21875 64.59375 
L 8.203125 64.59375 
z
" id="DejaVuSans-55"/>
      </defs>
      <g transform="translate(625.505126 544.452384)rotate(-30)scale(0.13 -0.13)">
       <use xlink:href="#DejaVuSans-50"/>
       <use x="63.623047" xlink:href="#DejaVuSans-48"/>
       <use x="127.246094" xlink:href="#DejaVuSans-50"/>
       <use x="190.869141" xlink:href="#DejaVuSans-48"/>
       <use x="254.492188" xlink:href="#DejaVuSans-45"/>
       <use x="290.576172" xlink:href="#DejaVuSans-48"/>
       <use x="354.199219" xlink:href="#DejaVuSans-55"/>
      </g>
     </g>
    </g>
    <g id="xtick_5">
     <g id="line2d_5">
      <g>
       <use style="stroke:#000000;stroke-width:0.8;" x="830.369578" xlink:href="#m60392b60de" y="501.738984"/>
      </g>
     </g>
     <g id="text_5">
      <!-- 2020-08 -->
      <defs>
       <path d="M 31.78125 34.625 
Q 24.75 34.625 20.71875 30.859375 
Q 16.703125 27.09375 16.703125 20.515625 
Q 16.703125 13.921875 20.71875 10.15625 
Q 24.75 6.390625 31.78125 6.390625 
Q 38.8125 6.390625 42.859375 10.171875 
Q 46.921875 13.96875 46.921875 20.515625 
Q 46.921875 27.09375 42.890625 30.859375 
Q 38.875 34.625 31.78125 34.625 
z
M 21.921875 38.8125 
Q 15.578125 40.375 12.03125 44.71875 
Q 8.5 49.078125 8.5 55.328125 
Q 8.5 64.0625 14.71875 69.140625 
Q 20.953125 74.21875 31.78125 74.21875 
Q 42.671875 74.21875 48.875 69.140625 
Q 55.078125 64.0625 55.078125 55.328125 
Q 55.078125 49.078125 51.53125 44.71875 
Q 48 40.375 41.703125 38.8125 
Q 48.828125 37.15625 52.796875 32.3125 
Q 56.78125 27.484375 56.78125 20.515625 
Q 56.78125 9.90625 50.3125 4.234375 
Q 43.84375 -1.421875 31.78125 -1.421875 
Q 19.734375 -1.421875 13.25 4.234375 
Q 6.78125 9.90625 6.78125 20.515625 
Q 6.78125 27.484375 10.78125 32.3125 
Q 14.796875 37.15625 21.921875 38.8125 
z
M 18.3125 54.390625 
Q 18.3125 48.734375 21.84375 45.5625 
Q 25.390625 42.390625 31.78125 42.390625 
Q 38.140625 42.390625 41.71875 45.5625 
Q 45.3125 48.734375 45.3125 54.390625 
Q 45.3125 60.0625 41.71875 63.234375 
Q 38.140625 66.40625 31.78125 66.40625 
Q 25.390625 66.40625 21.84375 63.234375 
Q 18.3125 60.0625 18.3125 54.390625 
z
" id="DejaVuSans-56"/>
      </defs>
      <g transform="translate(781.977311 544.452384)rotate(-30)scale(0.13 -0.13)">
       <use xlink:href="#DejaVuSans-50"/>
       <use x="63.623047" xlink:href="#DejaVuSans-48"/>
       <use x="127.246094" xlink:href="#DejaVuSans-50"/>
       <use x="190.869141" xlink:href="#DejaVuSans-48"/>
       <use x="254.492188" xlink:href="#DejaVuSans-45"/>
       <use x="290.576172" xlink:href="#DejaVuSans-48"/>
       <use x="354.199219" xlink:href="#DejaVuSans-56"/>
      </g>
     </g>
    </g>
    <g id="xtick_6">
     <g id="line2d_6">
      <g>
       <use style="stroke:#000000;stroke-width:0.8;" x="986.841762" xlink:href="#m60392b60de" y="501.738984"/>
      </g>
     </g>
     <g id="text_6">
      <!-- 2020-09 -->
      <defs>
       <path d="M 10.984375 1.515625 
L 10.984375 10.5 
Q 14.703125 8.734375 18.5 7.8125 
Q 22.3125 6.890625 25.984375 6.890625 
Q 35.75 6.890625 40.890625 13.453125 
Q 46.046875 20.015625 46.78125 33.40625 
Q 43.953125 29.203125 39.59375 26.953125 
Q 35.25 24.703125 29.984375 24.703125 
Q 19.046875 24.703125 12.671875 31.3125 
Q 6.296875 37.9375 6.296875 49.421875 
Q 6.296875 60.640625 12.9375 67.421875 
Q 19.578125 74.21875 30.609375 74.21875 
Q 43.265625 74.21875 49.921875 64.515625 
Q 56.59375 54.828125 56.59375 36.375 
Q 56.59375 19.140625 48.40625 8.859375 
Q 40.234375 -1.421875 26.421875 -1.421875 
Q 22.703125 -1.421875 18.890625 -0.6875 
Q 15.09375 0.046875 10.984375 1.515625 
z
M 30.609375 32.421875 
Q 37.25 32.421875 41.125 36.953125 
Q 45.015625 41.5 45.015625 49.421875 
Q 45.015625 57.28125 41.125 61.84375 
Q 37.25 66.40625 30.609375 66.40625 
Q 23.96875 66.40625 20.09375 61.84375 
Q 16.21875 57.28125 16.21875 49.421875 
Q 16.21875 41.5 20.09375 36.953125 
Q 23.96875 32.421875 30.609375 32.421875 
z
" id="DejaVuSans-57"/>
      </defs>
      <g transform="translate(938.449495 544.452384)rotate(-30)scale(0.13 -0.13)">
       <use xlink:href="#DejaVuSans-50"/>
       <use x="63.623047" xlink:href="#DejaVuSans-48"/>
       <use x="127.246094" xlink:href="#DejaVuSans-50"/>
       <use x="190.869141" xlink:href="#DejaVuSans-48"/>
       <use x="254.492188" xlink:href="#DejaVuSans-45"/>
       <use x="290.576172" xlink:href="#DejaVuSans-48"/>
       <use x="354.199219" xlink:href="#DejaVuSans-57"/>
      </g>
     </g>
    </g>
    <g id="xtick_7">
     <g id="line2d_7">
      <g>
       <use style="stroke:#000000;stroke-width:0.8;" x="1138.266457" xlink:href="#m60392b60de" y="501.738984"/>
      </g>
     </g>
     <g id="text_7">
      <!-- 2020-10 -->
      <defs>
       <path d="M 12.40625 8.296875 
L 28.515625 8.296875 
L 28.515625 63.921875 
L 10.984375 60.40625 
L 10.984375 69.390625 
L 28.421875 72.90625 
L 38.28125 72.90625 
L 38.28125 8.296875 
L 54.390625 8.296875 
L 54.390625 0 
L 12.40625 0 
z
" id="DejaVuSans-49"/>
      </defs>
      <g transform="translate(1089.87419 544.452384)rotate(-30)scale(0.13 -0.13)">
       <use xlink:href="#DejaVuSans-50"/>
       <use x="63.623047" xlink:href="#DejaVuSans-48"/>
       <use x="127.246094" xlink:href="#DejaVuSans-50"/>
       <use x="190.869141" xlink:href="#DejaVuSans-48"/>
       <use x="254.492188" xlink:href="#DejaVuSans-45"/>
       <use x="290.576172" xlink:href="#DejaVuSans-49"/>
       <use x="354.199219" xlink:href="#DejaVuSans-48"/>
      </g>
     </g>
    </g>
   </g>
   <g id="matplotlib.axis_2">
    <g id="ytick_1">
     <g id="line2d_8">
      <path clip-path="url(#p2aca96259b)" d="M 62.89875 480.703772 
L 1178.89875 480.703772 
" style="fill:none;stroke:#b0b0b0;stroke-linecap:square;stroke-width:0.8;"/>
     </g>
     <g id="line2d_9">
      <defs>
       <path d="M 0 0 
L -3.5 0 
" id="mf5c3168f3e" style="stroke:#000000;stroke-width:0.8;"/>
      </defs>
      <g>
       <use style="stroke:#000000;stroke-width:0.8;" x="62.89875" xlink:href="#mf5c3168f3e" y="480.703772"/>
      </g>
     </g>
     <g id="text_8">
      <!-- 0 -->
      <g transform="translate(47.6275 485.642757)scale(0.13 -0.13)">
       <use xlink:href="#DejaVuSans-48"/>
      </g>
     </g>
    </g>
    <g id="ytick_2">
     <g id="line2d_10">
      <path clip-path="url(#p2aca96259b)" d="M 62.89875 447.234859 
L 1178.89875 447.234859 
" style="fill:none;stroke:#b0b0b0;stroke-linecap:square;stroke-width:0.8;"/>
     </g>
     <g id="line2d_11">
      <g>
       <use style="stroke:#000000;stroke-width:0.8;" x="62.89875" xlink:href="#mf5c3168f3e" y="447.234859"/>
      </g>
     </g>
     <g id="text_9">
      <!-- 100 -->
      <g transform="translate(31.085 452.173843)scale(0.13 -0.13)">
       <use xlink:href="#DejaVuSans-49"/>
       <use x="63.623047" xlink:href="#DejaVuSans-48"/>
       <use x="127.246094" xlink:href="#DejaVuSans-48"/>
      </g>
     </g>
    </g>
    <g id="ytick_3">
     <g id="line2d_12">
      <path clip-path="url(#p2aca96259b)" d="M 62.89875 413.765945 
L 1178.89875 413.765945 
" style="fill:none;stroke:#b0b0b0;stroke-linecap:square;stroke-width:0.8;"/>
     </g>
     <g id="line2d_13">
      <g>
       <use style="stroke:#000000;stroke-width:0.8;" x="62.89875" xlink:href="#mf5c3168f3e" y="413.765945"/>
      </g>
     </g>
     <g id="text_10">
      <!-- 200 -->
      <g transform="translate(31.085 418.70493)scale(0.13 -0.13)">
       <use xlink:href="#DejaVuSans-50"/>
       <use x="63.623047" xlink:href="#DejaVuSans-48"/>
       <use x="127.246094" xlink:href="#DejaVuSans-48"/>
      </g>
     </g>
    </g>
    <g id="ytick_4">
     <g id="line2d_14">
      <path clip-path="url(#p2aca96259b)" d="M 62.89875 380.297032 
L 1178.89875 380.297032 
" style="fill:none;stroke:#b0b0b0;stroke-linecap:square;stroke-width:0.8;"/>
     </g>
     <g id="line2d_15">
      <g>
       <use style="stroke:#000000;stroke-width:0.8;" x="62.89875" xlink:href="#mf5c3168f3e" y="380.297032"/>
      </g>
     </g>
     <g id="text_11">
      <!-- 300 -->
      <defs>
       <path d="M 40.578125 39.3125 
Q 47.65625 37.796875 51.625 33 
Q 55.609375 28.21875 55.609375 21.1875 
Q 55.609375 10.40625 48.1875 4.484375 
Q 40.765625 -1.421875 27.09375 -1.421875 
Q 22.515625 -1.421875 17.65625 -0.515625 
Q 12.796875 0.390625 7.625 2.203125 
L 7.625 11.71875 
Q 11.71875 9.328125 16.59375 8.109375 
Q 21.484375 6.890625 26.8125 6.890625 
Q 36.078125 6.890625 40.9375 10.546875 
Q 45.796875 14.203125 45.796875 21.1875 
Q 45.796875 27.640625 41.28125 31.265625 
Q 36.765625 34.90625 28.71875 34.90625 
L 20.21875 34.90625 
L 20.21875 43.015625 
L 29.109375 43.015625 
Q 36.375 43.015625 40.234375 45.921875 
Q 44.09375 48.828125 44.09375 54.296875 
Q 44.09375 59.90625 40.109375 62.90625 
Q 36.140625 65.921875 28.71875 65.921875 
Q 24.65625 65.921875 20.015625 65.03125 
Q 15.375 64.15625 9.8125 62.3125 
L 9.8125 71.09375 
Q 15.4375 72.65625 20.34375 73.4375 
Q 25.25 74.21875 29.59375 74.21875 
Q 40.828125 74.21875 47.359375 69.109375 
Q 53.90625 64.015625 53.90625 55.328125 
Q 53.90625 49.265625 50.4375 45.09375 
Q 46.96875 40.921875 40.578125 39.3125 
z
" id="DejaVuSans-51"/>
      </defs>
      <g transform="translate(31.085 385.236016)scale(0.13 -0.13)">
       <use xlink:href="#DejaVuSans-51"/>
       <use x="63.623047" xlink:href="#DejaVuSans-48"/>
       <use x="127.246094" xlink:href="#DejaVuSans-48"/>
      </g>
     </g>
    </g>
    <g id="ytick_5">
     <g id="line2d_16">
      <path clip-path="url(#p2aca96259b)" d="M 62.89875 346.828119 
L 1178.89875 346.828119 
" style="fill:none;stroke:#b0b0b0;stroke-linecap:square;stroke-width:0.8;"/>
     </g>
     <g id="line2d_17">
      <g>
       <use style="stroke:#000000;stroke-width:0.8;" x="62.89875" xlink:href="#mf5c3168f3e" y="346.828119"/>
      </g>
     </g>
     <g id="text_12">
      <!-- 400 -->
      <g transform="translate(31.085 351.767103)scale(0.13 -0.13)">
       <use xlink:href="#DejaVuSans-52"/>
       <use x="63.623047" xlink:href="#DejaVuSans-48"/>
       <use x="127.246094" xlink:href="#DejaVuSans-48"/>
      </g>
     </g>
    </g>
    <g id="ytick_6">
     <g id="line2d_18">
      <path clip-path="url(#p2aca96259b)" d="M 62.89875 313.359205 
L 1178.89875 313.359205 
" style="fill:none;stroke:#b0b0b0;stroke-linecap:square;stroke-width:0.8;"/>
     </g>
     <g id="line2d_19">
      <g>
       <use style="stroke:#000000;stroke-width:0.8;" x="62.89875" xlink:href="#mf5c3168f3e" y="313.359205"/>
      </g>
     </g>
     <g id="text_13">
      <!-- 500 -->
      <g transform="translate(31.085 318.29819)scale(0.13 -0.13)">
       <use xlink:href="#DejaVuSans-53"/>
       <use x="63.623047" xlink:href="#DejaVuSans-48"/>
       <use x="127.246094" xlink:href="#DejaVuSans-48"/>
      </g>
     </g>
    </g>
    <g id="ytick_7">
     <g id="line2d_20">
      <path clip-path="url(#p2aca96259b)" d="M 62.89875 279.890292 
L 1178.89875 279.890292 
" style="fill:none;stroke:#b0b0b0;stroke-linecap:square;stroke-width:0.8;"/>
     </g>
     <g id="line2d_21">
      <g>
       <use style="stroke:#000000;stroke-width:0.8;" x="62.89875" xlink:href="#mf5c3168f3e" y="279.890292"/>
      </g>
     </g>
     <g id="text_14">
      <!-- 600 -->
      <g transform="translate(31.085 284.829276)scale(0.13 -0.13)">
       <use xlink:href="#DejaVuSans-54"/>
       <use x="63.623047" xlink:href="#DejaVuSans-48"/>
       <use x="127.246094" xlink:href="#DejaVuSans-48"/>
      </g>
     </g>
    </g>
    <g id="ytick_8">
     <g id="line2d_22">
      <path clip-path="url(#p2aca96259b)" d="M 62.89875 246.421378 
L 1178.89875 246.421378 
" style="fill:none;stroke:#b0b0b0;stroke-linecap:square;stroke-width:0.8;"/>
     </g>
     <g id="line2d_23">
      <g>
       <use style="stroke:#000000;stroke-width:0.8;" x="62.89875" xlink:href="#mf5c3168f3e" y="246.421378"/>
      </g>
     </g>
     <g id="text_15">
      <!-- 700 -->
      <g transform="translate(31.085 251.360363)scale(0.13 -0.13)">
       <use xlink:href="#DejaVuSans-55"/>
       <use x="63.623047" xlink:href="#DejaVuSans-48"/>
       <use x="127.246094" xlink:href="#DejaVuSans-48"/>
      </g>
     </g>
    </g>
    <g id="ytick_9">
     <g id="line2d_24">
      <path clip-path="url(#p2aca96259b)" d="M 62.89875 212.952465 
L 1178.89875 212.952465 
" style="fill:none;stroke:#b0b0b0;stroke-linecap:square;stroke-width:0.8;"/>
     </g>
     <g id="line2d_25">
      <g>
       <use style="stroke:#000000;stroke-width:0.8;" x="62.89875" xlink:href="#mf5c3168f3e" y="212.952465"/>
      </g>
     </g>
     <g id="text_16">
      <!-- 800 -->
      <g transform="translate(31.085 217.891449)scale(0.13 -0.13)">
       <use xlink:href="#DejaVuSans-56"/>
       <use x="63.623047" xlink:href="#DejaVuSans-48"/>
       <use x="127.246094" xlink:href="#DejaVuSans-48"/>
      </g>
     </g>
    </g>
    <g id="ytick_10">
     <g id="line2d_26">
      <path clip-path="url(#p2aca96259b)" d="M 62.89875 179.483551 
L 1178.89875 179.483551 
" style="fill:none;stroke:#b0b0b0;stroke-linecap:square;stroke-width:0.8;"/>
     </g>
     <g id="line2d_27">
      <g>
       <use style="stroke:#000000;stroke-width:0.8;" x="62.89875" xlink:href="#mf5c3168f3e" y="179.483551"/>
      </g>
     </g>
     <g id="text_17">
      <!-- 900 -->
      <g transform="translate(31.085 184.422536)scale(0.13 -0.13)">
       <use xlink:href="#DejaVuSans-57"/>
       <use x="63.623047" xlink:href="#DejaVuSans-48"/>
       <use x="127.246094" xlink:href="#DejaVuSans-48"/>
      </g>
     </g>
    </g>
    <g id="ytick_11">
     <g id="line2d_28">
      <path clip-path="url(#p2aca96259b)" d="M 62.89875 146.014638 
L 1178.89875 146.014638 
" style="fill:none;stroke:#b0b0b0;stroke-linecap:square;stroke-width:0.8;"/>
     </g>
     <g id="line2d_29">
      <g>
       <use style="stroke:#000000;stroke-width:0.8;" x="62.89875" xlink:href="#mf5c3168f3e" y="146.014638"/>
      </g>
     </g>
     <g id="text_18">
      <!-- 1000 -->
      <g transform="translate(22.81375 150.953622)scale(0.13 -0.13)">
       <use xlink:href="#DejaVuSans-49"/>
       <use x="63.623047" xlink:href="#DejaVuSans-48"/>
       <use x="127.246094" xlink:href="#DejaVuSans-48"/>
       <use x="190.869141" xlink:href="#DejaVuSans-48"/>
      </g>
     </g>
    </g>
    <g id="ytick_12">
     <g id="line2d_30">
      <path clip-path="url(#p2aca96259b)" d="M 62.89875 112.545725 
L 1178.89875 112.545725 
" style="fill:none;stroke:#b0b0b0;stroke-linecap:square;stroke-width:0.8;"/>
     </g>
     <g id="line2d_31">
      <g>
       <use style="stroke:#000000;stroke-width:0.8;" x="62.89875" xlink:href="#mf5c3168f3e" y="112.545725"/>
      </g>
     </g>
     <g id="text_19">
      <!-- 1100 -->
      <g transform="translate(22.81375 117.484709)scale(0.13 -0.13)">
       <use xlink:href="#DejaVuSans-49"/>
       <use x="63.623047" xlink:href="#DejaVuSans-49"/>
       <use x="127.246094" xlink:href="#DejaVuSans-48"/>
       <use x="190.869141" xlink:href="#DejaVuSans-48"/>
      </g>
     </g>
    </g>
    <g id="ytick_13">
     <g id="line2d_32">
      <path clip-path="url(#p2aca96259b)" d="M 62.89875 79.076811 
L 1178.89875 79.076811 
" style="fill:none;stroke:#b0b0b0;stroke-linecap:square;stroke-width:0.8;"/>
     </g>
     <g id="line2d_33">
      <g>
       <use style="stroke:#000000;stroke-width:0.8;" x="62.89875" xlink:href="#mf5c3168f3e" y="79.076811"/>
      </g>
     </g>
     <g id="text_20">
      <!-- 1200 -->
      <g transform="translate(22.81375 84.015796)scale(0.13 -0.13)">
       <use xlink:href="#DejaVuSans-49"/>
       <use x="63.623047" xlink:href="#DejaVuSans-50"/>
       <use x="127.246094" xlink:href="#DejaVuSans-48"/>
       <use x="190.869141" xlink:href="#DejaVuSans-48"/>
      </g>
     </g>
    </g>
    <g id="ytick_14">
     <g id="line2d_34">
      <path clip-path="url(#p2aca96259b)" d="M 62.89875 45.607898 
L 1178.89875 45.607898 
" style="fill:none;stroke:#b0b0b0;stroke-linecap:square;stroke-width:0.8;"/>
     </g>
     <g id="line2d_35">
      <g>
       <use style="stroke:#000000;stroke-width:0.8;" x="62.89875" xlink:href="#mf5c3168f3e" y="45.607898"/>
      </g>
     </g>
     <g id="text_21">
      <!-- 1300 -->
      <g transform="translate(22.81375 50.546882)scale(0.13 -0.13)">
       <use xlink:href="#DejaVuSans-49"/>
       <use x="63.623047" xlink:href="#DejaVuSans-51"/>
       <use x="127.246094" xlink:href="#DejaVuSans-48"/>
       <use x="190.869141" xlink:href="#DejaVuSans-48"/>
      </g>
     </g>
    </g>
    <g id="ytick_15">
     <g id="line2d_36">
      <path clip-path="url(#p2aca96259b)" d="M 62.89875 12.138984 
L 1178.89875 12.138984 
" style="fill:none;stroke:#b0b0b0;stroke-linecap:square;stroke-width:0.8;"/>
     </g>
     <g id="line2d_37">
      <g>
       <use style="stroke:#000000;stroke-width:0.8;" x="62.89875" xlink:href="#mf5c3168f3e" y="12.138984"/>
      </g>
     </g>
     <g id="text_22">
      <!-- 1400 -->
      <g transform="translate(22.81375 17.077969)scale(0.13 -0.13)">
       <use xlink:href="#DejaVuSans-49"/>
       <use x="63.623047" xlink:href="#DejaVuSans-52"/>
       <use x="127.246094" xlink:href="#DejaVuSans-48"/>
       <use x="190.869141" xlink:href="#DejaVuSans-48"/>
      </g>
     </g>
    </g>
    <g id="text_23">
     <!-- Anzahl von Fällen -->
     <defs>
      <path d="M 34.1875 63.1875 
L 20.796875 26.90625 
L 47.609375 26.90625 
z
M 28.609375 72.90625 
L 39.796875 72.90625 
L 67.578125 0 
L 57.328125 0 
L 50.6875 18.703125 
L 17.828125 18.703125 
L 11.1875 0 
L 0.78125 0 
z
" id="DejaVuSans-65"/>
      <path d="M 54.890625 33.015625 
L 54.890625 0 
L 45.90625 0 
L 45.90625 32.71875 
Q 45.90625 40.484375 42.875 44.328125 
Q 39.84375 48.1875 33.796875 48.1875 
Q 26.515625 48.1875 22.3125 43.546875 
Q 18.109375 38.921875 18.109375 30.90625 
L 18.109375 0 
L 9.078125 0 
L 9.078125 54.6875 
L 18.109375 54.6875 
L 18.109375 46.1875 
Q 21.34375 51.125 25.703125 53.5625 
Q 30.078125 56 35.796875 56 
Q 45.21875 56 50.046875 50.171875 
Q 54.890625 44.34375 54.890625 33.015625 
z
" id="DejaVuSans-110"/>
      <path d="M 5.515625 54.6875 
L 48.1875 54.6875 
L 48.1875 46.484375 
L 14.40625 7.171875 
L 48.1875 7.171875 
L 48.1875 0 
L 4.296875 0 
L 4.296875 8.203125 
L 38.09375 47.515625 
L 5.515625 47.515625 
z
" id="DejaVuSans-122"/>
      <path d="M 34.28125 27.484375 
Q 23.390625 27.484375 19.1875 25 
Q 14.984375 22.515625 14.984375 16.5 
Q 14.984375 11.71875 18.140625 8.90625 
Q 21.296875 6.109375 26.703125 6.109375 
Q 34.1875 6.109375 38.703125 11.40625 
Q 43.21875 16.703125 43.21875 25.484375 
L 43.21875 27.484375 
z
M 52.203125 31.203125 
L 52.203125 0 
L 43.21875 0 
L 43.21875 8.296875 
Q 40.140625 3.328125 35.546875 0.953125 
Q 30.953125 -1.421875 24.3125 -1.421875 
Q 15.921875 -1.421875 10.953125 3.296875 
Q 6 8.015625 6 15.921875 
Q 6 25.140625 12.171875 29.828125 
Q 18.359375 34.515625 30.609375 34.515625 
L 43.21875 34.515625 
L 43.21875 35.40625 
Q 43.21875 41.609375 39.140625 45 
Q 35.0625 48.390625 27.6875 48.390625 
Q 23 48.390625 18.546875 47.265625 
Q 14.109375 46.140625 10.015625 43.890625 
L 10.015625 52.203125 
Q 14.9375 54.109375 19.578125 55.046875 
Q 24.21875 56 28.609375 56 
Q 40.484375 56 46.34375 49.84375 
Q 52.203125 43.703125 52.203125 31.203125 
z
" id="DejaVuSans-97"/>
      <path d="M 54.890625 33.015625 
L 54.890625 0 
L 45.90625 0 
L 45.90625 32.71875 
Q 45.90625 40.484375 42.875 44.328125 
Q 39.84375 48.1875 33.796875 48.1875 
Q 26.515625 48.1875 22.3125 43.546875 
Q 18.109375 38.921875 18.109375 30.90625 
L 18.109375 0 
L 9.078125 0 
L 9.078125 75.984375 
L 18.109375 75.984375 
L 18.109375 46.1875 
Q 21.34375 51.125 25.703125 53.5625 
Q 30.078125 56 35.796875 56 
Q 45.21875 56 50.046875 50.171875 
Q 54.890625 44.34375 54.890625 33.015625 
z
" id="DejaVuSans-104"/>
      <path d="M 9.421875 75.984375 
L 18.40625 75.984375 
L 18.40625 0 
L 9.421875 0 
z
" id="DejaVuSans-108"/>
      <path id="DejaVuSans-32"/>
      <path d="M 2.984375 54.6875 
L 12.5 54.6875 
L 29.59375 8.796875 
L 46.6875 54.6875 
L 56.203125 54.6875 
L 35.6875 0 
L 23.484375 0 
z
" id="DejaVuSans-118"/>
      <path d="M 30.609375 48.390625 
Q 23.390625 48.390625 19.1875 42.75 
Q 14.984375 37.109375 14.984375 27.296875 
Q 14.984375 17.484375 19.15625 11.84375 
Q 23.34375 6.203125 30.609375 6.203125 
Q 37.796875 6.203125 41.984375 11.859375 
Q 46.1875 17.53125 46.1875 27.296875 
Q 46.1875 37.015625 41.984375 42.703125 
Q 37.796875 48.390625 30.609375 48.390625 
z
M 30.609375 56 
Q 42.328125 56 49.015625 48.375 
Q 55.71875 40.765625 55.71875 27.296875 
Q 55.71875 13.875 49.015625 6.21875 
Q 42.328125 -1.421875 30.609375 -1.421875 
Q 18.84375 -1.421875 12.171875 6.21875 
Q 5.515625 13.875 5.515625 27.296875 
Q 5.515625 40.765625 12.171875 48.375 
Q 18.84375 56 30.609375 56 
z
" id="DejaVuSans-111"/>
      <path d="M 9.8125 72.90625 
L 51.703125 72.90625 
L 51.703125 64.59375 
L 19.671875 64.59375 
L 19.671875 43.109375 
L 48.578125 43.109375 
L 48.578125 34.8125 
L 19.671875 34.8125 
L 19.671875 0 
L 9.8125 0 
z
" id="DejaVuSans-70"/>
      <path d="M 34.28125 27.484375 
Q 23.390625 27.484375 19.1875 25 
Q 14.984375 22.515625 14.984375 16.5 
Q 14.984375 11.71875 18.140625 8.90625 
Q 21.296875 6.109375 26.703125 6.109375 
Q 34.1875 6.109375 38.703125 11.40625 
Q 43.21875 16.703125 43.21875 25.484375 
L 43.21875 27.484375 
z
M 52.203125 31.203125 
L 52.203125 0 
L 43.21875 0 
L 43.21875 8.296875 
Q 40.140625 3.328125 35.546875 0.953125 
Q 30.953125 -1.421875 24.3125 -1.421875 
Q 15.921875 -1.421875 10.953125 3.296875 
Q 6 8.015625 6 15.921875 
Q 6 25.140625 12.171875 29.828125 
Q 18.359375 34.515625 30.609375 34.515625 
L 43.21875 34.515625 
L 43.21875 35.40625 
Q 43.21875 41.609375 39.140625 45 
Q 35.0625 48.390625 27.6875 48.390625 
Q 23 48.390625 18.546875 47.265625 
Q 14.109375 46.140625 10.015625 43.890625 
L 10.015625 52.203125 
Q 14.9375 54.109375 19.578125 55.046875 
Q 24.21875 56 28.609375 56 
Q 40.484375 56 46.34375 49.84375 
Q 52.203125 43.703125 52.203125 31.203125 
z
M 33.59375 75.78125 
L 43.5 75.78125 
L 43.5 65.921875 
L 33.59375 65.921875 
z
M 14.5 75.78125 
L 24.40625 75.78125 
L 24.40625 65.921875 
L 14.5 65.921875 
z
" id="DejaVuSans-228"/>
      <path d="M 56.203125 29.59375 
L 56.203125 25.203125 
L 14.890625 25.203125 
Q 15.484375 15.921875 20.484375 11.0625 
Q 25.484375 6.203125 34.421875 6.203125 
Q 39.59375 6.203125 44.453125 7.46875 
Q 49.3125 8.734375 54.109375 11.28125 
L 54.109375 2.78125 
Q 49.265625 0.734375 44.1875 -0.34375 
Q 39.109375 -1.421875 33.890625 -1.421875 
Q 20.796875 -1.421875 13.15625 6.1875 
Q 5.515625 13.8125 5.515625 26.8125 
Q 5.515625 40.234375 12.765625 48.109375 
Q 20.015625 56 32.328125 56 
Q 43.359375 56 49.78125 48.890625 
Q 56.203125 41.796875 56.203125 29.59375 
z
M 47.21875 32.234375 
Q 47.125 39.59375 43.09375 43.984375 
Q 39.0625 48.390625 32.421875 48.390625 
Q 24.90625 48.390625 20.390625 44.140625 
Q 15.875 39.890625 15.1875 32.171875 
z
" id="DejaVuSans-101"/>
     </defs>
     <g transform="translate(16.318125 309.388359)rotate(-90)scale(0.12 -0.12)">
      <use xlink:href="#DejaVuSans-65"/>
      <use x="68.408203" xlink:href="#DejaVuSans-110"/>
      <use x="131.787109" xlink:href="#DejaVuSans-122"/>
      <use x="184.277344" xlink:href="#DejaVuSans-97"/>
      <use x="245.556641" xlink:href="#DejaVuSans-104"/>
      <use x="308.935547" xlink:href="#DejaVuSans-108"/>
      <use x="336.71875" xlink:href="#DejaVuSans-32"/>
      <use x="368.505859" xlink:href="#DejaVuSans-118"/>
      <use x="427.685547" xlink:href="#DejaVuSans-111"/>
      <use x="488.867188" xlink:href="#DejaVuSans-110"/>
      <use x="552.246094" xlink:href="#DejaVuSans-32"/>
      <use x="584.033203" xlink:href="#DejaVuSans-70"/>
      <use x="632.427734" xlink:href="#DejaVuSans-228"/>
      <use x="693.707031" xlink:href="#DejaVuSans-108"/>
      <use x="721.490234" xlink:href="#DejaVuSans-108"/>
      <use x="749.273438" xlink:href="#DejaVuSans-101"/>
      <use x="810.796875" xlink:href="#DejaVuSans-110"/>
     </g>
    </g>
   </g>
   <g id="line2d_38">
    <path clip-path="url(#p2aca96259b)" d="M 113.626023 480.703772 
L 143.910962 480.703772 
L 154.005941 479.699705 
L 159.053431 477.022192 
L 164.100921 477.022192 
L 169.148411 476.687503 
L 174.195901 475.683435 
L 179.24339 470.663098 
L 184.29088 466.981518 
L 189.33837 464.973383 
L 194.38586 461.291803 
L 199.43335 455.602087 
L 204.48084 453.928642 
L 209.528329 446.230791 
L 214.575819 430.500402 
L 219.623309 420.794417 
L 224.670799 414.435324 
L 229.718289 407.741541 
L 234.765778 398.370245 
L 239.813268 392.345841 
L 244.860758 386.656126 
L 249.908248 377.619519 
L 254.955738 372.599182 
L 260.003228 363.562575 
L 270.098207 355.864725 
L 280.193187 349.840321 
L 285.240677 334.77931 
L 290.288167 334.77931 
L 295.335656 313.359205 
L 300.383146 303.987909 
L 310.478126 283.906561 
L 315.525616 278.216846 
L 320.573105 277.547468 
L 325.620595 262.151768 
L 330.668085 262.821146 
L 335.715575 256.796741 
L 345.810555 252.111094 
L 355.905534 244.078554 
L 360.953024 238.723528 
L 371.048004 233.033813 
L 381.142983 231.360367 
L 386.190473 229.017543 
L 391.237963 225.670652 
L 396.285453 220.650315 
L 401.332943 215.964667 
L 406.380432 215.629978 
L 416.475412 213.287154 
L 421.522902 209.940263 
L 426.570392 208.936195 
L 431.617882 207.597439 
L 441.712861 204.250547 
L 456.855331 203.24648 
L 461.902821 200.234278 
L 471.9978 195.213941 
L 477.04529 193.540495 
L 487.14027 182.495754 
L 492.187759 179.483551 
L 502.282739 169.108188 
L 507.330229 169.108188 
L 527.520188 166.430675 
L 532.567678 166.430675 
L 537.615168 165.426608 
L 542.662658 155.385934 
L 547.710148 155.385934 
L 557.805127 148.692151 
L 562.852617 137.64741 
L 567.900107 132.292384 
L 577.995086 129.61487 
L 583.042576 128.610803 
L 593.137556 127.272047 
L 603.232536 124.929223 
L 613.327515 123.925155 
L 618.375005 123.925155 
L 628.469985 123.255777 
L 638.564964 123.255777 
L 643.612454 122.921088 
L 668.849903 122.921088 
L 673.897393 121.91702 
L 678.944883 121.91702 
L 683.992373 121.582331 
L 734.467271 121.582331 
L 744.562251 119.574196 
L 774.84719 119.574196 
L 779.894679 119.239507 
L 784.942169 118.23544 
L 789.989659 117.900751 
L 805.132129 117.566062 
L 815.227108 117.566062 
L 820.274598 115.557927 
L 825.322088 115.557927 
L 875.796986 107.525388 
L 880.844476 107.190698 
L 890.939456 105.182564 
L 895.986945 105.182564 
L 911.129415 102.505051 
L 916.176905 102.505051 
L 921.224395 101.500983 
L 926.271884 99.827538 
L 931.319374 99.492848 
L 946.461844 96.815335 
L 951.509333 95.476579 
L 956.556823 95.476579 
L 961.604313 93.803133 
L 966.651803 93.133755 
L 981.794272 93.133755 
L 986.841762 85.435905 
L 991.889252 84.097148 
L 996.936742 81.419635 
L 1001.984232 78.407433 
L 1017.126701 77.738055 
L 1022.174191 77.403366 
L 1027.221681 77.403366 
L 1032.269171 74.725852 
L 1037.31666 73.387096 
L 1052.45913 71.71365 
L 1057.50662 71.71365 
L 1062.55411 69.705515 
L 1067.601599 68.03207 
L 1072.649089 67.697381 
L 1087.791559 67.362692 
L 1092.839049 66.693313 
L 1102.934028 64.685178 
L 1107.981518 62.007665 
L 1123.123987 60.33422 
L 1128.171477 59.999531 
L 1128.171477 59.999531 
" style="fill:none;stroke:#dbcd00;stroke-linecap:square;stroke-width:2;"/>
    <defs>
     <path d="M 0 1.5 
C 0.397805 1.5 0.77937 1.341951 1.06066 1.06066 
C 1.341951 0.77937 1.5 0.397805 1.5 0 
C 1.5 -0.397805 1.341951 -0.77937 1.06066 -1.06066 
C 0.77937 -1.341951 0.397805 -1.5 0 -1.5 
C -0.397805 -1.5 -0.77937 -1.341951 -1.06066 -1.06066 
C -1.341951 -0.77937 -1.5 -0.397805 -1.5 0 
C -1.5 0.397805 -1.341951 0.77937 -1.06066 1.06066 
C -0.77937 1.341951 -0.397805 1.5 0 1.5 
z
" id="m8190731262" style="stroke:#dbcd00;"/>
    </defs>
    <g clip-path="url(#p2aca96259b)">
     <use style="fill:#dbcd00;stroke:#dbcd00;" x="113.626023" xlink:href="#m8190731262" y="480.703772"/>
     <use style="fill:#dbcd00;stroke:#dbcd00;" x="118.673513" xlink:href="#m8190731262" y="480.703772"/>
     <use style="fill:#dbcd00;stroke:#dbcd00;" x="123.721002" xlink:href="#m8190731262" y="480.703772"/>
     <use style="fill:#dbcd00;stroke:#dbcd00;" x="128.768492" xlink:href="#m8190731262" y="480.703772"/>
     <use style="fill:#dbcd00;stroke:#dbcd00;" x="133.815982" xlink:href="#m8190731262" y="480.703772"/>
     <use style="fill:#dbcd00;stroke:#dbcd00;" x="138.863472" xlink:href="#m8190731262" y="480.703772"/>
     <use style="fill:#dbcd00;stroke:#dbcd00;" x="143.910962" xlink:href="#m8190731262" y="480.703772"/>
     <use style="fill:#dbcd00;stroke:#dbcd00;" x="154.005941" xlink:href="#m8190731262" y="479.699705"/>
     <use style="fill:#dbcd00;stroke:#dbcd00;" x="159.053431" xlink:href="#m8190731262" y="477.022192"/>
     <use style="fill:#dbcd00;stroke:#dbcd00;" x="164.100921" xlink:href="#m8190731262" y="477.022192"/>
     <use style="fill:#dbcd00;stroke:#dbcd00;" x="169.148411" xlink:href="#m8190731262" y="476.687503"/>
     <use style="fill:#dbcd00;stroke:#dbcd00;" x="174.195901" xlink:href="#m8190731262" y="475.683435"/>
     <use style="fill:#dbcd00;stroke:#dbcd00;" x="179.24339" xlink:href="#m8190731262" y="470.663098"/>
     <use style="fill:#dbcd00;stroke:#dbcd00;" x="184.29088" xlink:href="#m8190731262" y="466.981518"/>
     <use style="fill:#dbcd00;stroke:#dbcd00;" x="189.33837" xlink:href="#m8190731262" y="464.973383"/>
     <use style="fill:#dbcd00;stroke:#dbcd00;" x="194.38586" xlink:href="#m8190731262" y="461.291803"/>
     <use style="fill:#dbcd00;stroke:#dbcd00;" x="199.43335" xlink:href="#m8190731262" y="455.602087"/>
     <use style="fill:#dbcd00;stroke:#dbcd00;" x="204.48084" xlink:href="#m8190731262" y="453.928642"/>
     <use style="fill:#dbcd00;stroke:#dbcd00;" x="209.528329" xlink:href="#m8190731262" y="446.230791"/>
     <use style="fill:#dbcd00;stroke:#dbcd00;" x="214.575819" xlink:href="#m8190731262" y="430.500402"/>
     <use style="fill:#dbcd00;stroke:#dbcd00;" x="219.623309" xlink:href="#m8190731262" y="420.794417"/>
     <use style="fill:#dbcd00;stroke:#dbcd00;" x="224.670799" xlink:href="#m8190731262" y="414.435324"/>
     <use style="fill:#dbcd00;stroke:#dbcd00;" x="229.718289" xlink:href="#m8190731262" y="407.741541"/>
     <use style="fill:#dbcd00;stroke:#dbcd00;" x="234.765778" xlink:href="#m8190731262" y="398.370245"/>
     <use style="fill:#dbcd00;stroke:#dbcd00;" x="239.813268" xlink:href="#m8190731262" y="392.345841"/>
     <use style="fill:#dbcd00;stroke:#dbcd00;" x="244.860758" xlink:href="#m8190731262" y="386.656126"/>
     <use style="fill:#dbcd00;stroke:#dbcd00;" x="249.908248" xlink:href="#m8190731262" y="377.619519"/>
     <use style="fill:#dbcd00;stroke:#dbcd00;" x="254.955738" xlink:href="#m8190731262" y="372.599182"/>
     <use style="fill:#dbcd00;stroke:#dbcd00;" x="260.003228" xlink:href="#m8190731262" y="363.562575"/>
     <use style="fill:#dbcd00;stroke:#dbcd00;" x="270.098207" xlink:href="#m8190731262" y="355.864725"/>
     <use style="fill:#dbcd00;stroke:#dbcd00;" x="280.193187" xlink:href="#m8190731262" y="349.840321"/>
     <use style="fill:#dbcd00;stroke:#dbcd00;" x="285.240677" xlink:href="#m8190731262" y="334.77931"/>
     <use style="fill:#dbcd00;stroke:#dbcd00;" x="290.288167" xlink:href="#m8190731262" y="334.77931"/>
     <use style="fill:#dbcd00;stroke:#dbcd00;" x="295.335656" xlink:href="#m8190731262" y="313.359205"/>
     <use style="fill:#dbcd00;stroke:#dbcd00;" x="300.383146" xlink:href="#m8190731262" y="303.987909"/>
     <use style="fill:#dbcd00;stroke:#dbcd00;" x="310.478126" xlink:href="#m8190731262" y="283.906561"/>
     <use style="fill:#dbcd00;stroke:#dbcd00;" x="315.525616" xlink:href="#m8190731262" y="278.216846"/>
     <use style="fill:#dbcd00;stroke:#dbcd00;" x="320.573105" xlink:href="#m8190731262" y="277.547468"/>
     <use style="fill:#dbcd00;stroke:#dbcd00;" x="325.620595" xlink:href="#m8190731262" y="262.151768"/>
     <use style="fill:#dbcd00;stroke:#dbcd00;" x="330.668085" xlink:href="#m8190731262" y="262.821146"/>
     <use style="fill:#dbcd00;stroke:#dbcd00;" x="335.715575" xlink:href="#m8190731262" y="256.796741"/>
     <use style="fill:#dbcd00;stroke:#dbcd00;" x="345.810555" xlink:href="#m8190731262" y="252.111094"/>
     <use style="fill:#dbcd00;stroke:#dbcd00;" x="350.858044" xlink:href="#m8190731262" y="248.094824"/>
     <use style="fill:#dbcd00;stroke:#dbcd00;" x="355.905534" xlink:href="#m8190731262" y="244.078554"/>
     <use style="fill:#dbcd00;stroke:#dbcd00;" x="360.953024" xlink:href="#m8190731262" y="238.723528"/>
     <use style="fill:#dbcd00;stroke:#dbcd00;" x="371.048004" xlink:href="#m8190731262" y="233.033813"/>
     <use style="fill:#dbcd00;stroke:#dbcd00;" x="381.142983" xlink:href="#m8190731262" y="231.360367"/>
     <use style="fill:#dbcd00;stroke:#dbcd00;" x="386.190473" xlink:href="#m8190731262" y="229.017543"/>
     <use style="fill:#dbcd00;stroke:#dbcd00;" x="391.237963" xlink:href="#m8190731262" y="225.670652"/>
     <use style="fill:#dbcd00;stroke:#dbcd00;" x="396.285453" xlink:href="#m8190731262" y="220.650315"/>
     <use style="fill:#dbcd00;stroke:#dbcd00;" x="401.332943" xlink:href="#m8190731262" y="215.964667"/>
     <use style="fill:#dbcd00;stroke:#dbcd00;" x="406.380432" xlink:href="#m8190731262" y="215.629978"/>
     <use style="fill:#dbcd00;stroke:#dbcd00;" x="416.475412" xlink:href="#m8190731262" y="213.287154"/>
     <use style="fill:#dbcd00;stroke:#dbcd00;" x="421.522902" xlink:href="#m8190731262" y="209.940263"/>
     <use style="fill:#dbcd00;stroke:#dbcd00;" x="426.570392" xlink:href="#m8190731262" y="208.936195"/>
     <use style="fill:#dbcd00;stroke:#dbcd00;" x="431.617882" xlink:href="#m8190731262" y="207.597439"/>
     <use style="fill:#dbcd00;stroke:#dbcd00;" x="436.665371" xlink:href="#m8190731262" y="205.923993"/>
     <use style="fill:#dbcd00;stroke:#dbcd00;" x="441.712861" xlink:href="#m8190731262" y="204.250547"/>
     <use style="fill:#dbcd00;stroke:#dbcd00;" x="451.807841" xlink:href="#m8190731262" y="203.581169"/>
     <use style="fill:#dbcd00;stroke:#dbcd00;" x="456.855331" xlink:href="#m8190731262" y="203.24648"/>
     <use style="fill:#dbcd00;stroke:#dbcd00;" x="461.902821" xlink:href="#m8190731262" y="200.234278"/>
     <use style="fill:#dbcd00;stroke:#dbcd00;" x="471.9978" xlink:href="#m8190731262" y="195.213941"/>
     <use style="fill:#dbcd00;stroke:#dbcd00;" x="477.04529" xlink:href="#m8190731262" y="193.540495"/>
     <use style="fill:#dbcd00;stroke:#dbcd00;" x="487.14027" xlink:href="#m8190731262" y="182.495754"/>
     <use style="fill:#dbcd00;stroke:#dbcd00;" x="492.187759" xlink:href="#m8190731262" y="179.483551"/>
     <use style="fill:#dbcd00;stroke:#dbcd00;" x="502.282739" xlink:href="#m8190731262" y="169.108188"/>
     <use style="fill:#dbcd00;stroke:#dbcd00;" x="507.330229" xlink:href="#m8190731262" y="169.108188"/>
     <use style="fill:#dbcd00;stroke:#dbcd00;" x="527.520188" xlink:href="#m8190731262" y="166.430675"/>
     <use style="fill:#dbcd00;stroke:#dbcd00;" x="532.567678" xlink:href="#m8190731262" y="166.430675"/>
     <use style="fill:#dbcd00;stroke:#dbcd00;" x="537.615168" xlink:href="#m8190731262" y="165.426608"/>
     <use style="fill:#dbcd00;stroke:#dbcd00;" x="542.662658" xlink:href="#m8190731262" y="155.385934"/>
     <use style="fill:#dbcd00;stroke:#dbcd00;" x="547.710148" xlink:href="#m8190731262" y="155.385934"/>
     <use style="fill:#dbcd00;stroke:#dbcd00;" x="557.805127" xlink:href="#m8190731262" y="148.692151"/>
     <use style="fill:#dbcd00;stroke:#dbcd00;" x="562.852617" xlink:href="#m8190731262" y="137.64741"/>
     <use style="fill:#dbcd00;stroke:#dbcd00;" x="567.900107" xlink:href="#m8190731262" y="132.292384"/>
     <use style="fill:#dbcd00;stroke:#dbcd00;" x="577.995086" xlink:href="#m8190731262" y="129.61487"/>
     <use style="fill:#dbcd00;stroke:#dbcd00;" x="583.042576" xlink:href="#m8190731262" y="128.610803"/>
     <use style="fill:#dbcd00;stroke:#dbcd00;" x="593.137556" xlink:href="#m8190731262" y="127.272047"/>
     <use style="fill:#dbcd00;stroke:#dbcd00;" x="603.232536" xlink:href="#m8190731262" y="124.929223"/>
     <use style="fill:#dbcd00;stroke:#dbcd00;" x="613.327515" xlink:href="#m8190731262" y="123.925155"/>
     <use style="fill:#dbcd00;stroke:#dbcd00;" x="618.375005" xlink:href="#m8190731262" y="123.925155"/>
     <use style="fill:#dbcd00;stroke:#dbcd00;" x="628.469985" xlink:href="#m8190731262" y="123.255777"/>
     <use style="fill:#dbcd00;stroke:#dbcd00;" x="633.517475" xlink:href="#m8190731262" y="123.255777"/>
     <use style="fill:#dbcd00;stroke:#dbcd00;" x="638.564964" xlink:href="#m8190731262" y="123.255777"/>
     <use style="fill:#dbcd00;stroke:#dbcd00;" x="643.612454" xlink:href="#m8190731262" y="122.921088"/>
     <use style="fill:#dbcd00;stroke:#dbcd00;" x="653.707434" xlink:href="#m8190731262" y="122.921088"/>
     <use style="fill:#dbcd00;stroke:#dbcd00;" x="663.802414" xlink:href="#m8190731262" y="122.921088"/>
     <use style="fill:#dbcd00;stroke:#dbcd00;" x="668.849903" xlink:href="#m8190731262" y="122.921088"/>
     <use style="fill:#dbcd00;stroke:#dbcd00;" x="673.897393" xlink:href="#m8190731262" y="121.91702"/>
     <use style="fill:#dbcd00;stroke:#dbcd00;" x="678.944883" xlink:href="#m8190731262" y="121.91702"/>
     <use style="fill:#dbcd00;stroke:#dbcd00;" x="683.992373" xlink:href="#m8190731262" y="121.582331"/>
     <use style="fill:#dbcd00;stroke:#dbcd00;" x="689.039863" xlink:href="#m8190731262" y="121.582331"/>
     <use style="fill:#dbcd00;stroke:#dbcd00;" x="699.134842" xlink:href="#m8190731262" y="121.582331"/>
     <use style="fill:#dbcd00;stroke:#dbcd00;" x="704.182332" xlink:href="#m8190731262" y="121.582331"/>
     <use style="fill:#dbcd00;stroke:#dbcd00;" x="709.229822" xlink:href="#m8190731262" y="121.582331"/>
     <use style="fill:#dbcd00;stroke:#dbcd00;" x="714.277312" xlink:href="#m8190731262" y="121.582331"/>
     <use style="fill:#dbcd00;stroke:#dbcd00;" x="719.324802" xlink:href="#m8190731262" y="121.582331"/>
     <use style="fill:#dbcd00;stroke:#dbcd00;" x="734.467271" xlink:href="#m8190731262" y="121.582331"/>
     <use style="fill:#dbcd00;stroke:#dbcd00;" x="739.514761" xlink:href="#m8190731262" y="120.578264"/>
     <use style="fill:#dbcd00;stroke:#dbcd00;" x="744.562251" xlink:href="#m8190731262" y="119.574196"/>
     <use style="fill:#dbcd00;stroke:#dbcd00;" x="749.609741" xlink:href="#m8190731262" y="119.574196"/>
     <use style="fill:#dbcd00;stroke:#dbcd00;" x="754.65723" xlink:href="#m8190731262" y="119.574196"/>
     <use style="fill:#dbcd00;stroke:#dbcd00;" x="769.7997" xlink:href="#m8190731262" y="119.574196"/>
     <use style="fill:#dbcd00;stroke:#dbcd00;" x="774.84719" xlink:href="#m8190731262" y="119.574196"/>
     <use style="fill:#dbcd00;stroke:#dbcd00;" x="779.894679" xlink:href="#m8190731262" y="119.239507"/>
     <use style="fill:#dbcd00;stroke:#dbcd00;" x="784.942169" xlink:href="#m8190731262" y="118.23544"/>
     <use style="fill:#dbcd00;stroke:#dbcd00;" x="789.989659" xlink:href="#m8190731262" y="117.900751"/>
     <use style="fill:#dbcd00;stroke:#dbcd00;" x="805.132129" xlink:href="#m8190731262" y="117.566062"/>
     <use style="fill:#dbcd00;stroke:#dbcd00;" x="810.179618" xlink:href="#m8190731262" y="117.566062"/>
     <use style="fill:#dbcd00;stroke:#dbcd00;" x="815.227108" xlink:href="#m8190731262" y="117.566062"/>
     <use style="fill:#dbcd00;stroke:#dbcd00;" x="820.274598" xlink:href="#m8190731262" y="115.557927"/>
     <use style="fill:#dbcd00;stroke:#dbcd00;" x="825.322088" xlink:href="#m8190731262" y="115.557927"/>
     <use style="fill:#dbcd00;stroke:#dbcd00;" x="875.796986" xlink:href="#m8190731262" y="107.525388"/>
     <use style="fill:#dbcd00;stroke:#dbcd00;" x="880.844476" xlink:href="#m8190731262" y="107.190698"/>
     <use style="fill:#dbcd00;stroke:#dbcd00;" x="890.939456" xlink:href="#m8190731262" y="105.182564"/>
     <use style="fill:#dbcd00;stroke:#dbcd00;" x="895.986945" xlink:href="#m8190731262" y="105.182564"/>
     <use style="fill:#dbcd00;stroke:#dbcd00;" x="911.129415" xlink:href="#m8190731262" y="102.505051"/>
     <use style="fill:#dbcd00;stroke:#dbcd00;" x="916.176905" xlink:href="#m8190731262" y="102.505051"/>
     <use style="fill:#dbcd00;stroke:#dbcd00;" x="921.224395" xlink:href="#m8190731262" y="101.500983"/>
     <use style="fill:#dbcd00;stroke:#dbcd00;" x="926.271884" xlink:href="#m8190731262" y="99.827538"/>
     <use style="fill:#dbcd00;stroke:#dbcd00;" x="931.319374" xlink:href="#m8190731262" y="99.492848"/>
     <use style="fill:#dbcd00;stroke:#dbcd00;" x="946.461844" xlink:href="#m8190731262" y="96.815335"/>
     <use style="fill:#dbcd00;stroke:#dbcd00;" x="951.509333" xlink:href="#m8190731262" y="95.476579"/>
     <use style="fill:#dbcd00;stroke:#dbcd00;" x="956.556823" xlink:href="#m8190731262" y="95.476579"/>
     <use style="fill:#dbcd00;stroke:#dbcd00;" x="961.604313" xlink:href="#m8190731262" y="93.803133"/>
     <use style="fill:#dbcd00;stroke:#dbcd00;" x="966.651803" xlink:href="#m8190731262" y="93.133755"/>
     <use style="fill:#dbcd00;stroke:#dbcd00;" x="981.794272" xlink:href="#m8190731262" y="93.133755"/>
     <use style="fill:#dbcd00;stroke:#dbcd00;" x="986.841762" xlink:href="#m8190731262" y="85.435905"/>
     <use style="fill:#dbcd00;stroke:#dbcd00;" x="991.889252" xlink:href="#m8190731262" y="84.097148"/>
     <use style="fill:#dbcd00;stroke:#dbcd00;" x="996.936742" xlink:href="#m8190731262" y="81.419635"/>
     <use style="fill:#dbcd00;stroke:#dbcd00;" x="1001.984232" xlink:href="#m8190731262" y="78.407433"/>
     <use style="fill:#dbcd00;stroke:#dbcd00;" x="1017.126701" xlink:href="#m8190731262" y="77.738055"/>
     <use style="fill:#dbcd00;stroke:#dbcd00;" x="1022.174191" xlink:href="#m8190731262" y="77.403366"/>
     <use style="fill:#dbcd00;stroke:#dbcd00;" x="1027.221681" xlink:href="#m8190731262" y="77.403366"/>
     <use style="fill:#dbcd00;stroke:#dbcd00;" x="1032.269171" xlink:href="#m8190731262" y="74.725852"/>
     <use style="fill:#dbcd00;stroke:#dbcd00;" x="1037.31666" xlink:href="#m8190731262" y="73.387096"/>
     <use style="fill:#dbcd00;stroke:#dbcd00;" x="1052.45913" xlink:href="#m8190731262" y="71.71365"/>
     <use style="fill:#dbcd00;stroke:#dbcd00;" x="1057.50662" xlink:href="#m8190731262" y="71.71365"/>
     <use style="fill:#dbcd00;stroke:#dbcd00;" x="1062.55411" xlink:href="#m8190731262" y="69.705515"/>
     <use style="fill:#dbcd00;stroke:#dbcd00;" x="1067.601599" xlink:href="#m8190731262" y="68.03207"/>
     <use style="fill:#dbcd00;stroke:#dbcd00;" x="1072.649089" xlink:href="#m8190731262" y="67.697381"/>
     <use style="fill:#dbcd00;stroke:#dbcd00;" x="1087.791559" xlink:href="#m8190731262" y="67.362692"/>
     <use style="fill:#dbcd00;stroke:#dbcd00;" x="1092.839049" xlink:href="#m8190731262" y="66.693313"/>
     <use style="fill:#dbcd00;stroke:#dbcd00;" x="1097.886538" xlink:href="#m8190731262" y="65.689246"/>
     <use style="fill:#dbcd00;stroke:#dbcd00;" x="1102.934028" xlink:href="#m8190731262" y="64.685178"/>
     <use style="fill:#dbcd00;stroke:#dbcd00;" x="1107.981518" xlink:href="#m8190731262" y="62.007665"/>
     <use style="fill:#dbcd00;stroke:#dbcd00;" x="1123.123987" xlink:href="#m8190731262" y="60.33422"/>
     <use style="fill:#dbcd00;stroke:#dbcd00;" x="1128.171477" xlink:href="#m8190731262" y="59.999531"/>
    </g>
   </g>
   <g id="line2d_39">
    <path clip-path="url(#p2aca96259b)" d="M 113.626023 476.018124 
L 118.673513 471.667166 
L 123.721002 465.642761 
L 128.768492 453.259263 
L 133.815982 448.908305 
L 138.863472 439.537009 
L 143.910962 425.814754 
L 154.005941 397.366178 
L 159.053431 392.68053 
L 164.100921 390.003017 
L 169.148411 385.986747 
L 174.195901 383.309234 
L 179.24339 378.623586 
L 184.29088 372.264493 
L 189.33837 364.231954 
L 194.38586 359.546306 
L 199.43335 360.885062 
L 204.48084 359.211617 
L 209.528329 356.868793 
L 214.575819 357.87286 
L 219.623309 353.85659 
L 224.670799 346.15874 
L 229.718289 340.134336 
L 234.765778 344.819984 
L 239.813268 346.15874 
L 244.860758 346.15874 
L 249.908248 347.832186 
L 254.955738 343.146538 
L 260.003228 348.166875 
L 270.098207 354.860658 
L 280.193187 354.860658 
L 285.240677 368.917601 
L 290.288167 365.236021 
L 295.335656 381.635789 
L 300.383146 388.329571 
L 310.478126 406.737474 
L 315.525616 412.0925 
L 320.573105 409.749676 
L 325.620595 423.137241 
L 330.668085 419.79035 
L 335.715575 424.141309 
L 345.810555 427.4882 
L 355.905534 434.851361 
L 360.953024 440.206387 
L 371.048004 443.887968 
L 381.142983 444.222657 
L 386.190473 445.896102 
L 391.237963 448.573615 
L 396.285453 449.912372 
L 401.332943 453.259263 
L 406.380432 450.247061 
L 416.475412 447.234859 
L 421.522902 449.242994 
L 426.570392 439.537009 
L 431.617882 437.194185 
L 436.665371 438.198252 
L 441.712861 438.867631 
L 451.807841 434.851361 
L 456.855331 435.18605 
L 461.902821 438.198252 
L 471.9978 437.194185 
L 477.04529 432.508537 
L 487.14027 442.8839 
L 492.187759 445.226724 
L 502.282739 440.875765 
L 507.330229 439.537009 
L 527.520188 440.875765 
L 537.615168 440.875765 
L 542.662658 449.242994 
L 547.710148 449.242994 
L 557.805127 455.602087 
L 562.852617 465.97745 
L 567.900107 471.332477 
L 577.995086 474.00999 
L 583.042576 475.014057 
L 593.137556 476.018124 
L 603.232536 478.360948 
L 618.375005 478.360948 
L 628.469985 479.030327 
L 638.564964 479.030327 
L 643.612454 479.365016 
L 653.707434 478.695637 
L 668.849903 478.695637 
L 673.897393 479.030327 
L 678.944883 478.026259 
L 683.992373 478.360948 
L 689.039863 478.360948 
L 699.134842 478.026259 
L 704.182332 477.69157 
L 714.277312 477.69157 
L 719.324802 477.356881 
L 734.467271 477.022192 
L 739.514761 477.356881 
L 744.562251 478.360948 
L 754.65723 477.69157 
L 769.7997 477.69157 
L 774.84719 474.00999 
L 779.894679 474.344679 
L 784.942169 473.6753 
L 789.989659 474.00999 
L 805.132129 472.671233 
L 810.179618 471.667166 
L 815.227108 471.667166 
L 820.274598 472.001855 
L 825.322088 469.99372 
L 875.796986 470.997787 
L 880.844476 469.659031 
L 890.939456 467.650896 
L 895.986945 465.97745 
L 911.129415 465.97745 
L 916.176905 460.957113 
L 921.224395 460.287735 
L 931.319374 458.2796 
L 946.461844 459.953046 
L 951.509333 460.287735 
L 956.556823 460.287735 
L 961.604313 461.626492 
L 966.651803 462.29587 
L 981.794272 462.29587 
L 986.841762 467.985585 
L 991.889252 467.985585 
L 996.936742 468.654963 
L 1001.984232 470.997787 
L 1017.126701 470.663098 
L 1022.174191 469.659031 
L 1027.221681 469.659031 
L 1032.269171 472.001855 
L 1037.31666 472.671233 
L 1052.45913 472.671233 
L 1057.50662 468.320274 
L 1062.55411 469.659031 
L 1067.601599 469.659031 
L 1072.649089 468.989653 
L 1087.791559 469.324342 
L 1092.839049 466.981518 
L 1107.981518 466.981518 
L 1123.123987 465.642761 
L 1128.171477 460.287735 
L 1128.171477 460.287735 
" style="fill:none;stroke:#2792cb;stroke-linecap:square;stroke-width:2;"/>
    <defs>
     <path d="M 0 1.5 
C 0.397805 1.5 0.77937 1.341951 1.06066 1.06066 
C 1.341951 0.77937 1.5 0.397805 1.5 0 
C 1.5 -0.397805 1.341951 -0.77937 1.06066 -1.06066 
C 0.77937 -1.341951 0.397805 -1.5 0 -1.5 
C -0.397805 -1.5 -0.77937 -1.341951 -1.06066 -1.06066 
C -1.341951 -0.77937 -1.5 -0.397805 -1.5 0 
C -1.5 0.397805 -1.341951 0.77937 -1.06066 1.06066 
C -0.77937 1.341951 -0.397805 1.5 0 1.5 
z
" id="m7922f5e2f0" style="stroke:#2792cb;"/>
    </defs>
    <g clip-path="url(#p2aca96259b)">
     <use style="fill:#2792cb;stroke:#2792cb;" x="113.626023" xlink:href="#m7922f5e2f0" y="476.018124"/>
     <use style="fill:#2792cb;stroke:#2792cb;" x="118.673513" xlink:href="#m7922f5e2f0" y="471.667166"/>
     <use style="fill:#2792cb;stroke:#2792cb;" x="123.721002" xlink:href="#m7922f5e2f0" y="465.642761"/>
     <use style="fill:#2792cb;stroke:#2792cb;" x="128.768492" xlink:href="#m7922f5e2f0" y="453.259263"/>
     <use style="fill:#2792cb;stroke:#2792cb;" x="133.815982" xlink:href="#m7922f5e2f0" y="448.908305"/>
     <use style="fill:#2792cb;stroke:#2792cb;" x="138.863472" xlink:href="#m7922f5e2f0" y="439.537009"/>
     <use style="fill:#2792cb;stroke:#2792cb;" x="143.910962" xlink:href="#m7922f5e2f0" y="425.814754"/>
     <use style="fill:#2792cb;stroke:#2792cb;" x="154.005941" xlink:href="#m7922f5e2f0" y="397.366178"/>
     <use style="fill:#2792cb;stroke:#2792cb;" x="159.053431" xlink:href="#m7922f5e2f0" y="392.68053"/>
     <use style="fill:#2792cb;stroke:#2792cb;" x="164.100921" xlink:href="#m7922f5e2f0" y="390.003017"/>
     <use style="fill:#2792cb;stroke:#2792cb;" x="169.148411" xlink:href="#m7922f5e2f0" y="385.986747"/>
     <use style="fill:#2792cb;stroke:#2792cb;" x="174.195901" xlink:href="#m7922f5e2f0" y="383.309234"/>
     <use style="fill:#2792cb;stroke:#2792cb;" x="179.24339" xlink:href="#m7922f5e2f0" y="378.623586"/>
     <use style="fill:#2792cb;stroke:#2792cb;" x="184.29088" xlink:href="#m7922f5e2f0" y="372.264493"/>
     <use style="fill:#2792cb;stroke:#2792cb;" x="189.33837" xlink:href="#m7922f5e2f0" y="364.231954"/>
     <use style="fill:#2792cb;stroke:#2792cb;" x="194.38586" xlink:href="#m7922f5e2f0" y="359.546306"/>
     <use style="fill:#2792cb;stroke:#2792cb;" x="199.43335" xlink:href="#m7922f5e2f0" y="360.885062"/>
     <use style="fill:#2792cb;stroke:#2792cb;" x="204.48084" xlink:href="#m7922f5e2f0" y="359.211617"/>
     <use style="fill:#2792cb;stroke:#2792cb;" x="209.528329" xlink:href="#m7922f5e2f0" y="356.868793"/>
     <use style="fill:#2792cb;stroke:#2792cb;" x="214.575819" xlink:href="#m7922f5e2f0" y="357.87286"/>
     <use style="fill:#2792cb;stroke:#2792cb;" x="219.623309" xlink:href="#m7922f5e2f0" y="353.85659"/>
     <use style="fill:#2792cb;stroke:#2792cb;" x="224.670799" xlink:href="#m7922f5e2f0" y="346.15874"/>
     <use style="fill:#2792cb;stroke:#2792cb;" x="229.718289" xlink:href="#m7922f5e2f0" y="340.134336"/>
     <use style="fill:#2792cb;stroke:#2792cb;" x="234.765778" xlink:href="#m7922f5e2f0" y="344.819984"/>
     <use style="fill:#2792cb;stroke:#2792cb;" x="239.813268" xlink:href="#m7922f5e2f0" y="346.15874"/>
     <use style="fill:#2792cb;stroke:#2792cb;" x="244.860758" xlink:href="#m7922f5e2f0" y="346.15874"/>
     <use style="fill:#2792cb;stroke:#2792cb;" x="249.908248" xlink:href="#m7922f5e2f0" y="347.832186"/>
     <use style="fill:#2792cb;stroke:#2792cb;" x="254.955738" xlink:href="#m7922f5e2f0" y="343.146538"/>
     <use style="fill:#2792cb;stroke:#2792cb;" x="260.003228" xlink:href="#m7922f5e2f0" y="348.166875"/>
     <use style="fill:#2792cb;stroke:#2792cb;" x="270.098207" xlink:href="#m7922f5e2f0" y="354.860658"/>
     <use style="fill:#2792cb;stroke:#2792cb;" x="280.193187" xlink:href="#m7922f5e2f0" y="354.860658"/>
     <use style="fill:#2792cb;stroke:#2792cb;" x="285.240677" xlink:href="#m7922f5e2f0" y="368.917601"/>
     <use style="fill:#2792cb;stroke:#2792cb;" x="290.288167" xlink:href="#m7922f5e2f0" y="365.236021"/>
     <use style="fill:#2792cb;stroke:#2792cb;" x="295.335656" xlink:href="#m7922f5e2f0" y="381.635789"/>
     <use style="fill:#2792cb;stroke:#2792cb;" x="300.383146" xlink:href="#m7922f5e2f0" y="388.329571"/>
     <use style="fill:#2792cb;stroke:#2792cb;" x="310.478126" xlink:href="#m7922f5e2f0" y="406.737474"/>
     <use style="fill:#2792cb;stroke:#2792cb;" x="315.525616" xlink:href="#m7922f5e2f0" y="412.0925"/>
     <use style="fill:#2792cb;stroke:#2792cb;" x="320.573105" xlink:href="#m7922f5e2f0" y="409.749676"/>
     <use style="fill:#2792cb;stroke:#2792cb;" x="325.620595" xlink:href="#m7922f5e2f0" y="423.137241"/>
     <use style="fill:#2792cb;stroke:#2792cb;" x="330.668085" xlink:href="#m7922f5e2f0" y="419.79035"/>
     <use style="fill:#2792cb;stroke:#2792cb;" x="335.715575" xlink:href="#m7922f5e2f0" y="424.141309"/>
     <use style="fill:#2792cb;stroke:#2792cb;" x="345.810555" xlink:href="#m7922f5e2f0" y="427.4882"/>
     <use style="fill:#2792cb;stroke:#2792cb;" x="350.858044" xlink:href="#m7922f5e2f0" y="431.16978"/>
     <use style="fill:#2792cb;stroke:#2792cb;" x="355.905534" xlink:href="#m7922f5e2f0" y="434.851361"/>
     <use style="fill:#2792cb;stroke:#2792cb;" x="360.953024" xlink:href="#m7922f5e2f0" y="440.206387"/>
     <use style="fill:#2792cb;stroke:#2792cb;" x="371.048004" xlink:href="#m7922f5e2f0" y="443.887968"/>
     <use style="fill:#2792cb;stroke:#2792cb;" x="381.142983" xlink:href="#m7922f5e2f0" y="444.222657"/>
     <use style="fill:#2792cb;stroke:#2792cb;" x="386.190473" xlink:href="#m7922f5e2f0" y="445.896102"/>
     <use style="fill:#2792cb;stroke:#2792cb;" x="391.237963" xlink:href="#m7922f5e2f0" y="448.573615"/>
     <use style="fill:#2792cb;stroke:#2792cb;" x="396.285453" xlink:href="#m7922f5e2f0" y="449.912372"/>
     <use style="fill:#2792cb;stroke:#2792cb;" x="401.332943" xlink:href="#m7922f5e2f0" y="453.259263"/>
     <use style="fill:#2792cb;stroke:#2792cb;" x="406.380432" xlink:href="#m7922f5e2f0" y="450.247061"/>
     <use style="fill:#2792cb;stroke:#2792cb;" x="416.475412" xlink:href="#m7922f5e2f0" y="447.234859"/>
     <use style="fill:#2792cb;stroke:#2792cb;" x="421.522902" xlink:href="#m7922f5e2f0" y="449.242994"/>
     <use style="fill:#2792cb;stroke:#2792cb;" x="426.570392" xlink:href="#m7922f5e2f0" y="439.537009"/>
     <use style="fill:#2792cb;stroke:#2792cb;" x="431.617882" xlink:href="#m7922f5e2f0" y="437.194185"/>
     <use style="fill:#2792cb;stroke:#2792cb;" x="436.665371" xlink:href="#m7922f5e2f0" y="438.198252"/>
     <use style="fill:#2792cb;stroke:#2792cb;" x="441.712861" xlink:href="#m7922f5e2f0" y="438.867631"/>
     <use style="fill:#2792cb;stroke:#2792cb;" x="451.807841" xlink:href="#m7922f5e2f0" y="434.851361"/>
     <use style="fill:#2792cb;stroke:#2792cb;" x="456.855331" xlink:href="#m7922f5e2f0" y="435.18605"/>
     <use style="fill:#2792cb;stroke:#2792cb;" x="461.902821" xlink:href="#m7922f5e2f0" y="438.198252"/>
     <use style="fill:#2792cb;stroke:#2792cb;" x="471.9978" xlink:href="#m7922f5e2f0" y="437.194185"/>
     <use style="fill:#2792cb;stroke:#2792cb;" x="477.04529" xlink:href="#m7922f5e2f0" y="432.508537"/>
     <use style="fill:#2792cb;stroke:#2792cb;" x="487.14027" xlink:href="#m7922f5e2f0" y="442.8839"/>
     <use style="fill:#2792cb;stroke:#2792cb;" x="492.187759" xlink:href="#m7922f5e2f0" y="445.226724"/>
     <use style="fill:#2792cb;stroke:#2792cb;" x="502.282739" xlink:href="#m7922f5e2f0" y="440.875765"/>
     <use style="fill:#2792cb;stroke:#2792cb;" x="507.330229" xlink:href="#m7922f5e2f0" y="439.537009"/>
     <use style="fill:#2792cb;stroke:#2792cb;" x="527.520188" xlink:href="#m7922f5e2f0" y="440.875765"/>
     <use style="fill:#2792cb;stroke:#2792cb;" x="532.567678" xlink:href="#m7922f5e2f0" y="440.875765"/>
     <use style="fill:#2792cb;stroke:#2792cb;" x="537.615168" xlink:href="#m7922f5e2f0" y="440.875765"/>
     <use style="fill:#2792cb;stroke:#2792cb;" x="542.662658" xlink:href="#m7922f5e2f0" y="449.242994"/>
     <use style="fill:#2792cb;stroke:#2792cb;" x="547.710148" xlink:href="#m7922f5e2f0" y="449.242994"/>
     <use style="fill:#2792cb;stroke:#2792cb;" x="557.805127" xlink:href="#m7922f5e2f0" y="455.602087"/>
     <use style="fill:#2792cb;stroke:#2792cb;" x="562.852617" xlink:href="#m7922f5e2f0" y="465.97745"/>
     <use style="fill:#2792cb;stroke:#2792cb;" x="567.900107" xlink:href="#m7922f5e2f0" y="471.332477"/>
     <use style="fill:#2792cb;stroke:#2792cb;" x="577.995086" xlink:href="#m7922f5e2f0" y="474.00999"/>
     <use style="fill:#2792cb;stroke:#2792cb;" x="583.042576" xlink:href="#m7922f5e2f0" y="475.014057"/>
     <use style="fill:#2792cb;stroke:#2792cb;" x="593.137556" xlink:href="#m7922f5e2f0" y="476.018124"/>
     <use style="fill:#2792cb;stroke:#2792cb;" x="603.232536" xlink:href="#m7922f5e2f0" y="478.360948"/>
     <use style="fill:#2792cb;stroke:#2792cb;" x="613.327515" xlink:href="#m7922f5e2f0" y="478.360948"/>
     <use style="fill:#2792cb;stroke:#2792cb;" x="618.375005" xlink:href="#m7922f5e2f0" y="478.360948"/>
     <use style="fill:#2792cb;stroke:#2792cb;" x="628.469985" xlink:href="#m7922f5e2f0" y="479.030327"/>
     <use style="fill:#2792cb;stroke:#2792cb;" x="633.517475" xlink:href="#m7922f5e2f0" y="479.030327"/>
     <use style="fill:#2792cb;stroke:#2792cb;" x="638.564964" xlink:href="#m7922f5e2f0" y="479.030327"/>
     <use style="fill:#2792cb;stroke:#2792cb;" x="643.612454" xlink:href="#m7922f5e2f0" y="479.365016"/>
     <use style="fill:#2792cb;stroke:#2792cb;" x="653.707434" xlink:href="#m7922f5e2f0" y="478.695637"/>
     <use style="fill:#2792cb;stroke:#2792cb;" x="663.802414" xlink:href="#m7922f5e2f0" y="478.695637"/>
     <use style="fill:#2792cb;stroke:#2792cb;" x="668.849903" xlink:href="#m7922f5e2f0" y="478.695637"/>
     <use style="fill:#2792cb;stroke:#2792cb;" x="673.897393" xlink:href="#m7922f5e2f0" y="479.030327"/>
     <use style="fill:#2792cb;stroke:#2792cb;" x="678.944883" xlink:href="#m7922f5e2f0" y="478.026259"/>
     <use style="fill:#2792cb;stroke:#2792cb;" x="683.992373" xlink:href="#m7922f5e2f0" y="478.360948"/>
     <use style="fill:#2792cb;stroke:#2792cb;" x="689.039863" xlink:href="#m7922f5e2f0" y="478.360948"/>
     <use style="fill:#2792cb;stroke:#2792cb;" x="699.134842" xlink:href="#m7922f5e2f0" y="478.026259"/>
     <use style="fill:#2792cb;stroke:#2792cb;" x="704.182332" xlink:href="#m7922f5e2f0" y="477.69157"/>
     <use style="fill:#2792cb;stroke:#2792cb;" x="709.229822" xlink:href="#m7922f5e2f0" y="477.69157"/>
     <use style="fill:#2792cb;stroke:#2792cb;" x="714.277312" xlink:href="#m7922f5e2f0" y="477.69157"/>
     <use style="fill:#2792cb;stroke:#2792cb;" x="719.324802" xlink:href="#m7922f5e2f0" y="477.356881"/>
     <use style="fill:#2792cb;stroke:#2792cb;" x="734.467271" xlink:href="#m7922f5e2f0" y="477.022192"/>
     <use style="fill:#2792cb;stroke:#2792cb;" x="739.514761" xlink:href="#m7922f5e2f0" y="477.356881"/>
     <use style="fill:#2792cb;stroke:#2792cb;" x="744.562251" xlink:href="#m7922f5e2f0" y="478.360948"/>
     <use style="fill:#2792cb;stroke:#2792cb;" x="749.609741" xlink:href="#m7922f5e2f0" y="478.026259"/>
     <use style="fill:#2792cb;stroke:#2792cb;" x="754.65723" xlink:href="#m7922f5e2f0" y="477.69157"/>
     <use style="fill:#2792cb;stroke:#2792cb;" x="769.7997" xlink:href="#m7922f5e2f0" y="477.69157"/>
     <use style="fill:#2792cb;stroke:#2792cb;" x="774.84719" xlink:href="#m7922f5e2f0" y="474.00999"/>
     <use style="fill:#2792cb;stroke:#2792cb;" x="779.894679" xlink:href="#m7922f5e2f0" y="474.344679"/>
     <use style="fill:#2792cb;stroke:#2792cb;" x="784.942169" xlink:href="#m7922f5e2f0" y="473.6753"/>
     <use style="fill:#2792cb;stroke:#2792cb;" x="789.989659" xlink:href="#m7922f5e2f0" y="474.00999"/>
     <use style="fill:#2792cb;stroke:#2792cb;" x="805.132129" xlink:href="#m7922f5e2f0" y="472.671233"/>
     <use style="fill:#2792cb;stroke:#2792cb;" x="810.179618" xlink:href="#m7922f5e2f0" y="471.667166"/>
     <use style="fill:#2792cb;stroke:#2792cb;" x="815.227108" xlink:href="#m7922f5e2f0" y="471.667166"/>
     <use style="fill:#2792cb;stroke:#2792cb;" x="820.274598" xlink:href="#m7922f5e2f0" y="472.001855"/>
     <use style="fill:#2792cb;stroke:#2792cb;" x="825.322088" xlink:href="#m7922f5e2f0" y="469.99372"/>
     <use style="fill:#2792cb;stroke:#2792cb;" x="875.796986" xlink:href="#m7922f5e2f0" y="470.997787"/>
     <use style="fill:#2792cb;stroke:#2792cb;" x="880.844476" xlink:href="#m7922f5e2f0" y="469.659031"/>
     <use style="fill:#2792cb;stroke:#2792cb;" x="890.939456" xlink:href="#m7922f5e2f0" y="467.650896"/>
     <use style="fill:#2792cb;stroke:#2792cb;" x="895.986945" xlink:href="#m7922f5e2f0" y="465.97745"/>
     <use style="fill:#2792cb;stroke:#2792cb;" x="911.129415" xlink:href="#m7922f5e2f0" y="465.97745"/>
     <use style="fill:#2792cb;stroke:#2792cb;" x="916.176905" xlink:href="#m7922f5e2f0" y="460.957113"/>
     <use style="fill:#2792cb;stroke:#2792cb;" x="921.224395" xlink:href="#m7922f5e2f0" y="460.287735"/>
     <use style="fill:#2792cb;stroke:#2792cb;" x="926.271884" xlink:href="#m7922f5e2f0" y="459.283668"/>
     <use style="fill:#2792cb;stroke:#2792cb;" x="931.319374" xlink:href="#m7922f5e2f0" y="458.2796"/>
     <use style="fill:#2792cb;stroke:#2792cb;" x="946.461844" xlink:href="#m7922f5e2f0" y="459.953046"/>
     <use style="fill:#2792cb;stroke:#2792cb;" x="951.509333" xlink:href="#m7922f5e2f0" y="460.287735"/>
     <use style="fill:#2792cb;stroke:#2792cb;" x="956.556823" xlink:href="#m7922f5e2f0" y="460.287735"/>
     <use style="fill:#2792cb;stroke:#2792cb;" x="961.604313" xlink:href="#m7922f5e2f0" y="461.626492"/>
     <use style="fill:#2792cb;stroke:#2792cb;" x="966.651803" xlink:href="#m7922f5e2f0" y="462.29587"/>
     <use style="fill:#2792cb;stroke:#2792cb;" x="981.794272" xlink:href="#m7922f5e2f0" y="462.29587"/>
     <use style="fill:#2792cb;stroke:#2792cb;" x="986.841762" xlink:href="#m7922f5e2f0" y="467.985585"/>
     <use style="fill:#2792cb;stroke:#2792cb;" x="991.889252" xlink:href="#m7922f5e2f0" y="467.985585"/>
     <use style="fill:#2792cb;stroke:#2792cb;" x="996.936742" xlink:href="#m7922f5e2f0" y="468.654963"/>
     <use style="fill:#2792cb;stroke:#2792cb;" x="1001.984232" xlink:href="#m7922f5e2f0" y="470.997787"/>
     <use style="fill:#2792cb;stroke:#2792cb;" x="1017.126701" xlink:href="#m7922f5e2f0" y="470.663098"/>
     <use style="fill:#2792cb;stroke:#2792cb;" x="1022.174191" xlink:href="#m7922f5e2f0" y="469.659031"/>
     <use style="fill:#2792cb;stroke:#2792cb;" x="1027.221681" xlink:href="#m7922f5e2f0" y="469.659031"/>
     <use style="fill:#2792cb;stroke:#2792cb;" x="1032.269171" xlink:href="#m7922f5e2f0" y="472.001855"/>
     <use style="fill:#2792cb;stroke:#2792cb;" x="1037.31666" xlink:href="#m7922f5e2f0" y="472.671233"/>
     <use style="fill:#2792cb;stroke:#2792cb;" x="1052.45913" xlink:href="#m7922f5e2f0" y="472.671233"/>
     <use style="fill:#2792cb;stroke:#2792cb;" x="1057.50662" xlink:href="#m7922f5e2f0" y="468.320274"/>
     <use style="fill:#2792cb;stroke:#2792cb;" x="1062.55411" xlink:href="#m7922f5e2f0" y="469.659031"/>
     <use style="fill:#2792cb;stroke:#2792cb;" x="1067.601599" xlink:href="#m7922f5e2f0" y="469.659031"/>
     <use style="fill:#2792cb;stroke:#2792cb;" x="1072.649089" xlink:href="#m7922f5e2f0" y="468.989653"/>
     <use style="fill:#2792cb;stroke:#2792cb;" x="1087.791559" xlink:href="#m7922f5e2f0" y="469.324342"/>
     <use style="fill:#2792cb;stroke:#2792cb;" x="1092.839049" xlink:href="#m7922f5e2f0" y="466.981518"/>
     <use style="fill:#2792cb;stroke:#2792cb;" x="1097.886538" xlink:href="#m7922f5e2f0" y="466.981518"/>
     <use style="fill:#2792cb;stroke:#2792cb;" x="1102.934028" xlink:href="#m7922f5e2f0" y="466.981518"/>
     <use style="fill:#2792cb;stroke:#2792cb;" x="1107.981518" xlink:href="#m7922f5e2f0" y="466.981518"/>
     <use style="fill:#2792cb;stroke:#2792cb;" x="1123.123987" xlink:href="#m7922f5e2f0" y="465.642761"/>
     <use style="fill:#2792cb;stroke:#2792cb;" x="1128.171477" xlink:href="#m7922f5e2f0" y="460.287735"/>
    </g>
   </g>
   <g id="patch_3">
    <path d="M 62.89875 501.738984 
L 1178.89875 501.738984 
" style="fill:none;stroke:#000000;stroke-linecap:square;stroke-linejoin:miter;stroke-width:0.8;"/>
   </g>
   <g id="legend_1">
    <g id="line2d_40">
     <path d="M 1091.653438 25.237422 
L 1111.653438 25.237422 
" style="fill:none;stroke:#dbcd00;stroke-linecap:square;stroke-width:2;"/>
    </g>
    <g id="line2d_41">
     <g>
      <use style="fill:#dbcd00;stroke:#dbcd00;" x="1101.653438" xlink:href="#m8190731262" y="25.237422"/>
     </g>
    </g>
    <g id="text_24">
     <!-- Genesene -->
     <defs>
      <path d="M 59.515625 10.40625 
L 59.515625 29.984375 
L 43.40625 29.984375 
L 43.40625 38.09375 
L 69.28125 38.09375 
L 69.28125 6.78125 
Q 63.578125 2.734375 56.6875 0.65625 
Q 49.8125 -1.421875 42 -1.421875 
Q 24.90625 -1.421875 15.25 8.5625 
Q 5.609375 18.5625 5.609375 36.375 
Q 5.609375 54.25 15.25 64.234375 
Q 24.90625 74.21875 42 74.21875 
Q 49.125 74.21875 55.546875 72.453125 
Q 61.96875 70.703125 67.390625 67.28125 
L 67.390625 56.78125 
Q 61.921875 61.421875 55.765625 63.765625 
Q 49.609375 66.109375 42.828125 66.109375 
Q 29.4375 66.109375 22.71875 58.640625 
Q 16.015625 51.171875 16.015625 36.375 
Q 16.015625 21.625 22.71875 14.15625 
Q 29.4375 6.6875 42.828125 6.6875 
Q 48.046875 6.6875 52.140625 7.59375 
Q 56.25 8.5 59.515625 10.40625 
z
" id="DejaVuSans-71"/>
      <path d="M 44.28125 53.078125 
L 44.28125 44.578125 
Q 40.484375 46.53125 36.375 47.5 
Q 32.28125 48.484375 27.875 48.484375 
Q 21.1875 48.484375 17.84375 46.4375 
Q 14.5 44.390625 14.5 40.28125 
Q 14.5 37.15625 16.890625 35.375 
Q 19.28125 33.59375 26.515625 31.984375 
L 29.59375 31.296875 
Q 39.15625 29.25 43.1875 25.515625 
Q 47.21875 21.78125 47.21875 15.09375 
Q 47.21875 7.46875 41.1875 3.015625 
Q 35.15625 -1.421875 24.609375 -1.421875 
Q 20.21875 -1.421875 15.453125 -0.5625 
Q 10.6875 0.296875 5.421875 2 
L 5.421875 11.28125 
Q 10.40625 8.6875 15.234375 7.390625 
Q 20.0625 6.109375 24.8125 6.109375 
Q 31.15625 6.109375 34.5625 8.28125 
Q 37.984375 10.453125 37.984375 14.40625 
Q 37.984375 18.0625 35.515625 20.015625 
Q 33.0625 21.96875 24.703125 23.78125 
L 21.578125 24.515625 
Q 13.234375 26.265625 9.515625 29.90625 
Q 5.8125 33.546875 5.8125 39.890625 
Q 5.8125 47.609375 11.28125 51.796875 
Q 16.75 56 26.8125 56 
Q 31.78125 56 36.171875 55.265625 
Q 40.578125 54.546875 44.28125 53.078125 
z
" id="DejaVuSans-115"/>
     </defs>
     <g transform="translate(1119.653438 28.737422)scale(0.1 -0.1)">
      <use xlink:href="#DejaVuSans-71"/>
      <use x="77.490234" xlink:href="#DejaVuSans-101"/>
      <use x="139.013672" xlink:href="#DejaVuSans-110"/>
      <use x="202.392578" xlink:href="#DejaVuSans-101"/>
      <use x="263.916016" xlink:href="#DejaVuSans-115"/>
      <use x="316.015625" xlink:href="#DejaVuSans-101"/>
      <use x="377.539062" xlink:href="#DejaVuSans-110"/>
      <use x="440.917969" xlink:href="#DejaVuSans-101"/>
     </g>
    </g>
    <g id="line2d_42">
     <path d="M 1091.653438 39.915547 
L 1111.653438 39.915547 
" style="fill:none;stroke:#2792cb;stroke-linecap:square;stroke-width:2;"/>
    </g>
    <g id="line2d_43">
     <g>
      <use style="fill:#2792cb;stroke:#2792cb;" x="1101.653438" xlink:href="#m7922f5e2f0" y="39.915547"/>
     </g>
    </g>
    <g id="text_25">
     <!-- Erkrankte -->
     <defs>
      <path d="M 9.8125 72.90625 
L 55.90625 72.90625 
L 55.90625 64.59375 
L 19.671875 64.59375 
L 19.671875 43.015625 
L 54.390625 43.015625 
L 54.390625 34.71875 
L 19.671875 34.71875 
L 19.671875 8.296875 
L 56.78125 8.296875 
L 56.78125 0 
L 9.8125 0 
z
" id="DejaVuSans-69"/>
      <path d="M 41.109375 46.296875 
Q 39.59375 47.171875 37.8125 47.578125 
Q 36.03125 48 33.890625 48 
Q 26.265625 48 22.1875 43.046875 
Q 18.109375 38.09375 18.109375 28.8125 
L 18.109375 0 
L 9.078125 0 
L 9.078125 54.6875 
L 18.109375 54.6875 
L 18.109375 46.1875 
Q 20.953125 51.171875 25.484375 53.578125 
Q 30.03125 56 36.53125 56 
Q 37.453125 56 38.578125 55.875 
Q 39.703125 55.765625 41.0625 55.515625 
z
" id="DejaVuSans-114"/>
      <path d="M 9.078125 75.984375 
L 18.109375 75.984375 
L 18.109375 31.109375 
L 44.921875 54.6875 
L 56.390625 54.6875 
L 27.390625 29.109375 
L 57.625 0 
L 45.90625 0 
L 18.109375 26.703125 
L 18.109375 0 
L 9.078125 0 
z
" id="DejaVuSans-107"/>
      <path d="M 18.3125 70.21875 
L 18.3125 54.6875 
L 36.8125 54.6875 
L 36.8125 47.703125 
L 18.3125 47.703125 
L 18.3125 18.015625 
Q 18.3125 11.328125 20.140625 9.421875 
Q 21.96875 7.515625 27.59375 7.515625 
L 36.8125 7.515625 
L 36.8125 0 
L 27.59375 0 
Q 17.1875 0 13.234375 3.875 
Q 9.28125 7.765625 9.28125 18.015625 
L 9.28125 47.703125 
L 2.6875 47.703125 
L 2.6875 54.6875 
L 9.28125 54.6875 
L 9.28125 70.21875 
z
" id="DejaVuSans-116"/>
     </defs>
     <g transform="translate(1119.653438 43.415547)scale(0.1 -0.1)">
      <use xlink:href="#DejaVuSans-69"/>
      <use x="63.183594" xlink:href="#DejaVuSans-114"/>
      <use x="104.296875" xlink:href="#DejaVuSans-107"/>
      <use x="162.207031" xlink:href="#DejaVuSans-114"/>
      <use x="203.320312" xlink:href="#DejaVuSans-97"/>
      <use x="264.599609" xlink:href="#DejaVuSans-110"/>
      <use x="327.978516" xlink:href="#DejaVuSans-107"/>
      <use x="385.888672" xlink:href="#DejaVuSans-116"/>
      <use x="425.097656" xlink:href="#DejaVuSans-101"/>
     </g>
    </g>
   </g>
  </g>
 </g>
 <defs>
  <clipPath id="p2aca96259b">
   <rect height="489.6" width="1116" x="62.89875" y="12.138984"/>
  </clipPath>
 </defs>
</svg>
