<?xml version="1.0" encoding="utf-8" standalone="no"?>
<!DOCTYPE svg PUBLIC "-//W3C//DTD SVG 1.1//EN"
  "http://www.w3.org/Graphics/SVG/1.1/DTD/svg11.dtd">
<!-- Created with matplotlib (https://matplotlib.org/) -->
<svg height="553.993765pt" version="1.1" viewBox="0 0 1186.09875 553.993765" width="1186.09875pt" xmlns="http://www.w3.org/2000/svg" xmlns:xlink="http://www.w3.org/1999/xlink">
 <defs>
  <style type="text/css">
*{stroke-linecap:butt;stroke-linejoin:round;}
  </style>
 </defs>
 <g id="figure_1">
  <g id="patch_1">
   <path d="M 0 553.993765 
L 1186.09875 553.993765 
L 1186.09875 0 
L 0 0 
z
" style="fill:#ffffff;"/>
  </g>
  <g id="axes_1">
   <g id="patch_2">
    <path d="M 62.89875 501.738984 
L 1178.89875 501.738984 
L 1178.89875 12.138984 
L 62.89875 12.138984 
z
" style="fill:#ffffff;"/>
   </g>
   <g id="matplotlib.axis_1">
    <g id="xtick_1">
     <g id="line2d_1">
      <defs>
       <path d="M 0 0 
L 0 3.5 
" id="m4b91c21181" style="stroke:#000000;stroke-width:0.8;"/>
      </defs>
      <g>
       <use style="stroke:#000000;stroke-width:0.8;" x="158.60587" xlink:href="#m4b91c21181" y="501.738984"/>
      </g>
     </g>
     <g id="text_1">
      <!-- 2020-04 -->
      <defs>
       <path d="M 19.1875 8.296875 
L 53.609375 8.296875 
L 53.609375 0 
L 7.328125 0 
L 7.328125 8.296875 
Q 12.9375 14.109375 22.625 23.890625 
Q 32.328125 33.6875 34.8125 36.53125 
Q 39.546875 41.84375 41.421875 45.53125 
Q 43.3125 49.21875 43.3125 52.78125 
Q 43.3125 58.59375 39.234375 62.25 
Q 35.15625 65.921875 28.609375 65.921875 
Q 23.96875 65.921875 18.8125 64.3125 
Q 13.671875 62.703125 7.8125 59.421875 
L 7.8125 69.390625 
Q 13.765625 71.78125 18.9375 73 
Q 24.125 74.21875 28.421875 74.21875 
Q 39.75 74.21875 46.484375 68.546875 
Q 53.21875 62.890625 53.21875 53.421875 
Q 53.21875 48.921875 51.53125 44.890625 
Q 49.859375 40.875 45.40625 35.40625 
Q 44.1875 33.984375 37.640625 27.21875 
Q 31.109375 20.453125 19.1875 8.296875 
z
" id="DejaVuSans-50"/>
       <path d="M 31.78125 66.40625 
Q 24.171875 66.40625 20.328125 58.90625 
Q 16.5 51.421875 16.5 36.375 
Q 16.5 21.390625 20.328125 13.890625 
Q 24.171875 6.390625 31.78125 6.390625 
Q 39.453125 6.390625 43.28125 13.890625 
Q 47.125 21.390625 47.125 36.375 
Q 47.125 51.421875 43.28125 58.90625 
Q 39.453125 66.40625 31.78125 66.40625 
z
M 31.78125 74.21875 
Q 44.046875 74.21875 50.515625 64.515625 
Q 56.984375 54.828125 56.984375 36.375 
Q 56.984375 17.96875 50.515625 8.265625 
Q 44.046875 -1.421875 31.78125 -1.421875 
Q 19.53125 -1.421875 13.0625 8.265625 
Q 6.59375 17.96875 6.59375 36.375 
Q 6.59375 54.828125 13.0625 64.515625 
Q 19.53125 74.21875 31.78125 74.21875 
z
" id="DejaVuSans-48"/>
       <path d="M 4.890625 31.390625 
L 31.203125 31.390625 
L 31.203125 23.390625 
L 4.890625 23.390625 
z
" id="DejaVuSans-45"/>
       <path d="M 37.796875 64.3125 
L 12.890625 25.390625 
L 37.796875 25.390625 
z
M 35.203125 72.90625 
L 47.609375 72.90625 
L 47.609375 25.390625 
L 58.015625 25.390625 
L 58.015625 17.1875 
L 47.609375 17.1875 
L 47.609375 0 
L 37.796875 0 
L 37.796875 17.1875 
L 4.890625 17.1875 
L 4.890625 26.703125 
z
" id="DejaVuSans-52"/>
      </defs>
      <g transform="translate(110.213603 544.452384)rotate(-30)scale(0.13 -0.13)">
       <use xlink:href="#DejaVuSans-50"/>
       <use x="63.623047" xlink:href="#DejaVuSans-48"/>
       <use x="127.246094" xlink:href="#DejaVuSans-50"/>
       <use x="190.869141" xlink:href="#DejaVuSans-48"/>
       <use x="254.492188" xlink:href="#DejaVuSans-45"/>
       <use x="290.576172" xlink:href="#DejaVuSans-48"/>
       <use x="354.199219" xlink:href="#DejaVuSans-52"/>
      </g>
     </g>
    </g>
    <g id="xtick_2">
     <g id="line2d_2">
      <g>
       <use style="stroke:#000000;stroke-width:0.8;" x="308.538696" xlink:href="#m4b91c21181" y="501.738984"/>
      </g>
     </g>
     <g id="text_2">
      <!-- 2020-05 -->
      <defs>
       <path d="M 10.796875 72.90625 
L 49.515625 72.90625 
L 49.515625 64.59375 
L 19.828125 64.59375 
L 19.828125 46.734375 
Q 21.96875 47.46875 24.109375 47.828125 
Q 26.265625 48.1875 28.421875 48.1875 
Q 40.625 48.1875 47.75 41.5 
Q 54.890625 34.8125 54.890625 23.390625 
Q 54.890625 11.625 47.5625 5.09375 
Q 40.234375 -1.421875 26.90625 -1.421875 
Q 22.3125 -1.421875 17.546875 -0.640625 
Q 12.796875 0.140625 7.71875 1.703125 
L 7.71875 11.625 
Q 12.109375 9.234375 16.796875 8.0625 
Q 21.484375 6.890625 26.703125 6.890625 
Q 35.15625 6.890625 40.078125 11.328125 
Q 45.015625 15.765625 45.015625 23.390625 
Q 45.015625 31 40.078125 35.4375 
Q 35.15625 39.890625 26.703125 39.890625 
Q 22.75 39.890625 18.8125 39.015625 
Q 14.890625 38.140625 10.796875 36.28125 
z
" id="DejaVuSans-53"/>
      </defs>
      <g transform="translate(260.146429 544.452384)rotate(-30)scale(0.13 -0.13)">
       <use xlink:href="#DejaVuSans-50"/>
       <use x="63.623047" xlink:href="#DejaVuSans-48"/>
       <use x="127.246094" xlink:href="#DejaVuSans-50"/>
       <use x="190.869141" xlink:href="#DejaVuSans-48"/>
       <use x="254.492188" xlink:href="#DejaVuSans-45"/>
       <use x="290.576172" xlink:href="#DejaVuSans-48"/>
       <use x="354.199219" xlink:href="#DejaVuSans-53"/>
      </g>
     </g>
    </g>
    <g id="xtick_3">
     <g id="line2d_3">
      <g>
       <use style="stroke:#000000;stroke-width:0.8;" x="463.469283" xlink:href="#m4b91c21181" y="501.738984"/>
      </g>
     </g>
     <g id="text_3">
      <!-- 2020-06 -->
      <defs>
       <path d="M 33.015625 40.375 
Q 26.375 40.375 22.484375 35.828125 
Q 18.609375 31.296875 18.609375 23.390625 
Q 18.609375 15.53125 22.484375 10.953125 
Q 26.375 6.390625 33.015625 6.390625 
Q 39.65625 6.390625 43.53125 10.953125 
Q 47.40625 15.53125 47.40625 23.390625 
Q 47.40625 31.296875 43.53125 35.828125 
Q 39.65625 40.375 33.015625 40.375 
z
M 52.59375 71.296875 
L 52.59375 62.3125 
Q 48.875 64.0625 45.09375 64.984375 
Q 41.3125 65.921875 37.59375 65.921875 
Q 27.828125 65.921875 22.671875 59.328125 
Q 17.53125 52.734375 16.796875 39.40625 
Q 19.671875 43.65625 24.015625 45.921875 
Q 28.375 48.1875 33.59375 48.1875 
Q 44.578125 48.1875 50.953125 41.515625 
Q 57.328125 34.859375 57.328125 23.390625 
Q 57.328125 12.15625 50.6875 5.359375 
Q 44.046875 -1.421875 33.015625 -1.421875 
Q 20.359375 -1.421875 13.671875 8.265625 
Q 6.984375 17.96875 6.984375 36.375 
Q 6.984375 53.65625 15.1875 63.9375 
Q 23.390625 74.21875 37.203125 74.21875 
Q 40.921875 74.21875 44.703125 73.484375 
Q 48.484375 72.75 52.59375 71.296875 
z
" id="DejaVuSans-54"/>
      </defs>
      <g transform="translate(415.077016 544.452384)rotate(-30)scale(0.13 -0.13)">
       <use xlink:href="#DejaVuSans-50"/>
       <use x="63.623047" xlink:href="#DejaVuSans-48"/>
       <use x="127.246094" xlink:href="#DejaVuSans-50"/>
       <use x="190.869141" xlink:href="#DejaVuSans-48"/>
       <use x="254.492188" xlink:href="#DejaVuSans-45"/>
       <use x="290.576172" xlink:href="#DejaVuSans-48"/>
       <use x="354.199219" xlink:href="#DejaVuSans-54"/>
      </g>
     </g>
    </g>
    <g id="xtick_4">
     <g id="line2d_4">
      <g>
       <use style="stroke:#000000;stroke-width:0.8;" x="613.402109" xlink:href="#m4b91c21181" y="501.738984"/>
      </g>
     </g>
     <g id="text_4">
      <!-- 2020-07 -->
      <defs>
       <path d="M 8.203125 72.90625 
L 55.078125 72.90625 
L 55.078125 68.703125 
L 28.609375 0 
L 18.3125 0 
L 43.21875 64.59375 
L 8.203125 64.59375 
z
" id="DejaVuSans-55"/>
      </defs>
      <g transform="translate(565.009842 544.452384)rotate(-30)scale(0.13 -0.13)">
       <use xlink:href="#DejaVuSans-50"/>
       <use x="63.623047" xlink:href="#DejaVuSans-48"/>
       <use x="127.246094" xlink:href="#DejaVuSans-50"/>
       <use x="190.869141" xlink:href="#DejaVuSans-48"/>
       <use x="254.492188" xlink:href="#DejaVuSans-45"/>
       <use x="290.576172" xlink:href="#DejaVuSans-48"/>
       <use x="354.199219" xlink:href="#DejaVuSans-55"/>
      </g>
     </g>
    </g>
    <g id="xtick_5">
     <g id="line2d_5">
      <g>
       <use style="stroke:#000000;stroke-width:0.8;" x="768.332695" xlink:href="#m4b91c21181" y="501.738984"/>
      </g>
     </g>
     <g id="text_5">
      <!-- 2020-08 -->
      <defs>
       <path d="M 31.78125 34.625 
Q 24.75 34.625 20.71875 30.859375 
Q 16.703125 27.09375 16.703125 20.515625 
Q 16.703125 13.921875 20.71875 10.15625 
Q 24.75 6.390625 31.78125 6.390625 
Q 38.8125 6.390625 42.859375 10.171875 
Q 46.921875 13.96875 46.921875 20.515625 
Q 46.921875 27.09375 42.890625 30.859375 
Q 38.875 34.625 31.78125 34.625 
z
M 21.921875 38.8125 
Q 15.578125 40.375 12.03125 44.71875 
Q 8.5 49.078125 8.5 55.328125 
Q 8.5 64.0625 14.71875 69.140625 
Q 20.953125 74.21875 31.78125 74.21875 
Q 42.671875 74.21875 48.875 69.140625 
Q 55.078125 64.0625 55.078125 55.328125 
Q 55.078125 49.078125 51.53125 44.71875 
Q 48 40.375 41.703125 38.8125 
Q 48.828125 37.15625 52.796875 32.3125 
Q 56.78125 27.484375 56.78125 20.515625 
Q 56.78125 9.90625 50.3125 4.234375 
Q 43.84375 -1.421875 31.78125 -1.421875 
Q 19.734375 -1.421875 13.25 4.234375 
Q 6.78125 9.90625 6.78125 20.515625 
Q 6.78125 27.484375 10.78125 32.3125 
Q 14.796875 37.15625 21.921875 38.8125 
z
M 18.3125 54.390625 
Q 18.3125 48.734375 21.84375 45.5625 
Q 25.390625 42.390625 31.78125 42.390625 
Q 38.140625 42.390625 41.71875 45.5625 
Q 45.3125 48.734375 45.3125 54.390625 
Q 45.3125 60.0625 41.71875 63.234375 
Q 38.140625 66.40625 31.78125 66.40625 
Q 25.390625 66.40625 21.84375 63.234375 
Q 18.3125 60.0625 18.3125 54.390625 
z
" id="DejaVuSans-56"/>
      </defs>
      <g transform="translate(719.940428 544.452384)rotate(-30)scale(0.13 -0.13)">
       <use xlink:href="#DejaVuSans-50"/>
       <use x="63.623047" xlink:href="#DejaVuSans-48"/>
       <use x="127.246094" xlink:href="#DejaVuSans-50"/>
       <use x="190.869141" xlink:href="#DejaVuSans-48"/>
       <use x="254.492188" xlink:href="#DejaVuSans-45"/>
       <use x="290.576172" xlink:href="#DejaVuSans-48"/>
       <use x="354.199219" xlink:href="#DejaVuSans-56"/>
      </g>
     </g>
    </g>
    <g id="xtick_6">
     <g id="line2d_6">
      <g>
       <use style="stroke:#000000;stroke-width:0.8;" x="923.263282" xlink:href="#m4b91c21181" y="501.738984"/>
      </g>
     </g>
     <g id="text_6">
      <!-- 2020-09 -->
      <defs>
       <path d="M 10.984375 1.515625 
L 10.984375 10.5 
Q 14.703125 8.734375 18.5 7.8125 
Q 22.3125 6.890625 25.984375 6.890625 
Q 35.75 6.890625 40.890625 13.453125 
Q 46.046875 20.015625 46.78125 33.40625 
Q 43.953125 29.203125 39.59375 26.953125 
Q 35.25 24.703125 29.984375 24.703125 
Q 19.046875 24.703125 12.671875 31.3125 
Q 6.296875 37.9375 6.296875 49.421875 
Q 6.296875 60.640625 12.9375 67.421875 
Q 19.578125 74.21875 30.609375 74.21875 
Q 43.265625 74.21875 49.921875 64.515625 
Q 56.59375 54.828125 56.59375 36.375 
Q 56.59375 19.140625 48.40625 8.859375 
Q 40.234375 -1.421875 26.421875 -1.421875 
Q 22.703125 -1.421875 18.890625 -0.6875 
Q 15.09375 0.046875 10.984375 1.515625 
z
M 30.609375 32.421875 
Q 37.25 32.421875 41.125 36.953125 
Q 45.015625 41.5 45.015625 49.421875 
Q 45.015625 57.28125 41.125 61.84375 
Q 37.25 66.40625 30.609375 66.40625 
Q 23.96875 66.40625 20.09375 61.84375 
Q 16.21875 57.28125 16.21875 49.421875 
Q 16.21875 41.5 20.09375 36.953125 
Q 23.96875 32.421875 30.609375 32.421875 
z
" id="DejaVuSans-57"/>
      </defs>
      <g transform="translate(874.871015 544.452384)rotate(-30)scale(0.13 -0.13)">
       <use xlink:href="#DejaVuSans-50"/>
       <use x="63.623047" xlink:href="#DejaVuSans-48"/>
       <use x="127.246094" xlink:href="#DejaVuSans-50"/>
       <use x="190.869141" xlink:href="#DejaVuSans-48"/>
       <use x="254.492188" xlink:href="#DejaVuSans-45"/>
       <use x="290.576172" xlink:href="#DejaVuSans-48"/>
       <use x="354.199219" xlink:href="#DejaVuSans-57"/>
      </g>
     </g>
    </g>
    <g id="xtick_7">
     <g id="line2d_7">
      <g>
       <use style="stroke:#000000;stroke-width:0.8;" x="1073.196108" xlink:href="#m4b91c21181" y="501.738984"/>
      </g>
     </g>
     <g id="text_7">
      <!-- 2020-10 -->
      <defs>
       <path d="M 12.40625 8.296875 
L 28.515625 8.296875 
L 28.515625 63.921875 
L 10.984375 60.40625 
L 10.984375 69.390625 
L 28.421875 72.90625 
L 38.28125 72.90625 
L 38.28125 8.296875 
L 54.390625 8.296875 
L 54.390625 0 
L 12.40625 0 
z
" id="DejaVuSans-49"/>
      </defs>
      <g transform="translate(1024.803841 544.452384)rotate(-30)scale(0.13 -0.13)">
       <use xlink:href="#DejaVuSans-50"/>
       <use x="63.623047" xlink:href="#DejaVuSans-48"/>
       <use x="127.246094" xlink:href="#DejaVuSans-50"/>
       <use x="190.869141" xlink:href="#DejaVuSans-48"/>
       <use x="254.492188" xlink:href="#DejaVuSans-45"/>
       <use x="290.576172" xlink:href="#DejaVuSans-49"/>
       <use x="354.199219" xlink:href="#DejaVuSans-48"/>
      </g>
     </g>
    </g>
   </g>
   <g id="matplotlib.axis_2">
    <g id="ytick_1">
     <g id="line2d_8">
      <path clip-path="url(#pc5c84bac66)" d="M 62.89875 485.648432 
L 1178.89875 485.648432 
" style="fill:none;stroke:#b0b0b0;stroke-linecap:square;stroke-width:0.8;"/>
     </g>
     <g id="line2d_9">
      <defs>
       <path d="M 0 0 
L -3.5 0 
" id="m01351b6181" style="stroke:#000000;stroke-width:0.8;"/>
      </defs>
      <g>
       <use style="stroke:#000000;stroke-width:0.8;" x="62.89875" xlink:href="#m01351b6181" y="485.648432"/>
      </g>
     </g>
     <g id="text_8">
      <!-- 0 -->
      <g transform="translate(47.6275 490.587416)scale(0.13 -0.13)">
       <use xlink:href="#DejaVuSans-48"/>
      </g>
     </g>
    </g>
    <g id="ytick_2">
     <g id="line2d_10">
      <path clip-path="url(#pc5c84bac66)" d="M 62.89875 468.111045 
L 1178.89875 468.111045 
" style="fill:none;stroke:#b0b0b0;stroke-linecap:square;stroke-width:0.8;"/>
     </g>
     <g id="line2d_11">
      <g>
       <use style="stroke:#000000;stroke-width:0.8;" x="62.89875" xlink:href="#m01351b6181" y="468.111045"/>
      </g>
     </g>
     <g id="text_9">
      <!-- 100 -->
      <g transform="translate(31.085 473.050029)scale(0.13 -0.13)">
       <use xlink:href="#DejaVuSans-49"/>
       <use x="63.623047" xlink:href="#DejaVuSans-48"/>
       <use x="127.246094" xlink:href="#DejaVuSans-48"/>
      </g>
     </g>
    </g>
    <g id="ytick_3">
     <g id="line2d_12">
      <path clip-path="url(#pc5c84bac66)" d="M 62.89875 450.573658 
L 1178.89875 450.573658 
" style="fill:none;stroke:#b0b0b0;stroke-linecap:square;stroke-width:0.8;"/>
     </g>
     <g id="line2d_13">
      <g>
       <use style="stroke:#000000;stroke-width:0.8;" x="62.89875" xlink:href="#m01351b6181" y="450.573658"/>
      </g>
     </g>
     <g id="text_10">
      <!-- 200 -->
      <g transform="translate(31.085 455.512642)scale(0.13 -0.13)">
       <use xlink:href="#DejaVuSans-50"/>
       <use x="63.623047" xlink:href="#DejaVuSans-48"/>
       <use x="127.246094" xlink:href="#DejaVuSans-48"/>
      </g>
     </g>
    </g>
    <g id="ytick_4">
     <g id="line2d_14">
      <path clip-path="url(#pc5c84bac66)" d="M 62.89875 433.036271 
L 1178.89875 433.036271 
" style="fill:none;stroke:#b0b0b0;stroke-linecap:square;stroke-width:0.8;"/>
     </g>
     <g id="line2d_15">
      <g>
       <use style="stroke:#000000;stroke-width:0.8;" x="62.89875" xlink:href="#m01351b6181" y="433.036271"/>
      </g>
     </g>
     <g id="text_11">
      <!-- 300 -->
      <defs>
       <path d="M 40.578125 39.3125 
Q 47.65625 37.796875 51.625 33 
Q 55.609375 28.21875 55.609375 21.1875 
Q 55.609375 10.40625 48.1875 4.484375 
Q 40.765625 -1.421875 27.09375 -1.421875 
Q 22.515625 -1.421875 17.65625 -0.515625 
Q 12.796875 0.390625 7.625 2.203125 
L 7.625 11.71875 
Q 11.71875 9.328125 16.59375 8.109375 
Q 21.484375 6.890625 26.8125 6.890625 
Q 36.078125 6.890625 40.9375 10.546875 
Q 45.796875 14.203125 45.796875 21.1875 
Q 45.796875 27.640625 41.28125 31.265625 
Q 36.765625 34.90625 28.71875 34.90625 
L 20.21875 34.90625 
L 20.21875 43.015625 
L 29.109375 43.015625 
Q 36.375 43.015625 40.234375 45.921875 
Q 44.09375 48.828125 44.09375 54.296875 
Q 44.09375 59.90625 40.109375 62.90625 
Q 36.140625 65.921875 28.71875 65.921875 
Q 24.65625 65.921875 20.015625 65.03125 
Q 15.375 64.15625 9.8125 62.3125 
L 9.8125 71.09375 
Q 15.4375 72.65625 20.34375 73.4375 
Q 25.25 74.21875 29.59375 74.21875 
Q 40.828125 74.21875 47.359375 69.109375 
Q 53.90625 64.015625 53.90625 55.328125 
Q 53.90625 49.265625 50.4375 45.09375 
Q 46.96875 40.921875 40.578125 39.3125 
z
" id="DejaVuSans-51"/>
      </defs>
      <g transform="translate(31.085 437.975255)scale(0.13 -0.13)">
       <use xlink:href="#DejaVuSans-51"/>
       <use x="63.623047" xlink:href="#DejaVuSans-48"/>
       <use x="127.246094" xlink:href="#DejaVuSans-48"/>
      </g>
     </g>
    </g>
    <g id="ytick_5">
     <g id="line2d_16">
      <path clip-path="url(#pc5c84bac66)" d="M 62.89875 415.498884 
L 1178.89875 415.498884 
" style="fill:none;stroke:#b0b0b0;stroke-linecap:square;stroke-width:0.8;"/>
     </g>
     <g id="line2d_17">
      <g>
       <use style="stroke:#000000;stroke-width:0.8;" x="62.89875" xlink:href="#m01351b6181" y="415.498884"/>
      </g>
     </g>
     <g id="text_12">
      <!-- 400 -->
      <g transform="translate(31.085 420.437868)scale(0.13 -0.13)">
       <use xlink:href="#DejaVuSans-52"/>
       <use x="63.623047" xlink:href="#DejaVuSans-48"/>
       <use x="127.246094" xlink:href="#DejaVuSans-48"/>
      </g>
     </g>
    </g>
    <g id="ytick_6">
     <g id="line2d_18">
      <path clip-path="url(#pc5c84bac66)" d="M 62.89875 397.961497 
L 1178.89875 397.961497 
" style="fill:none;stroke:#b0b0b0;stroke-linecap:square;stroke-width:0.8;"/>
     </g>
     <g id="line2d_19">
      <g>
       <use style="stroke:#000000;stroke-width:0.8;" x="62.89875" xlink:href="#m01351b6181" y="397.961497"/>
      </g>
     </g>
     <g id="text_13">
      <!-- 500 -->
      <g transform="translate(31.085 402.900482)scale(0.13 -0.13)">
       <use xlink:href="#DejaVuSans-53"/>
       <use x="63.623047" xlink:href="#DejaVuSans-48"/>
       <use x="127.246094" xlink:href="#DejaVuSans-48"/>
      </g>
     </g>
    </g>
    <g id="ytick_7">
     <g id="line2d_20">
      <path clip-path="url(#pc5c84bac66)" d="M 62.89875 380.42411 
L 1178.89875 380.42411 
" style="fill:none;stroke:#b0b0b0;stroke-linecap:square;stroke-width:0.8;"/>
     </g>
     <g id="line2d_21">
      <g>
       <use style="stroke:#000000;stroke-width:0.8;" x="62.89875" xlink:href="#m01351b6181" y="380.42411"/>
      </g>
     </g>
     <g id="text_14">
      <!-- 600 -->
      <g transform="translate(31.085 385.363095)scale(0.13 -0.13)">
       <use xlink:href="#DejaVuSans-54"/>
       <use x="63.623047" xlink:href="#DejaVuSans-48"/>
       <use x="127.246094" xlink:href="#DejaVuSans-48"/>
      </g>
     </g>
    </g>
    <g id="ytick_8">
     <g id="line2d_22">
      <path clip-path="url(#pc5c84bac66)" d="M 62.89875 362.886723 
L 1178.89875 362.886723 
" style="fill:none;stroke:#b0b0b0;stroke-linecap:square;stroke-width:0.8;"/>
     </g>
     <g id="line2d_23">
      <g>
       <use style="stroke:#000000;stroke-width:0.8;" x="62.89875" xlink:href="#m01351b6181" y="362.886723"/>
      </g>
     </g>
     <g id="text_15">
      <!-- 700 -->
      <g transform="translate(31.085 367.825708)scale(0.13 -0.13)">
       <use xlink:href="#DejaVuSans-55"/>
       <use x="63.623047" xlink:href="#DejaVuSans-48"/>
       <use x="127.246094" xlink:href="#DejaVuSans-48"/>
      </g>
     </g>
    </g>
    <g id="ytick_9">
     <g id="line2d_24">
      <path clip-path="url(#pc5c84bac66)" d="M 62.89875 345.349336 
L 1178.89875 345.349336 
" style="fill:none;stroke:#b0b0b0;stroke-linecap:square;stroke-width:0.8;"/>
     </g>
     <g id="line2d_25">
      <g>
       <use style="stroke:#000000;stroke-width:0.8;" x="62.89875" xlink:href="#m01351b6181" y="345.349336"/>
      </g>
     </g>
     <g id="text_16">
      <!-- 800 -->
      <g transform="translate(31.085 350.288321)scale(0.13 -0.13)">
       <use xlink:href="#DejaVuSans-56"/>
       <use x="63.623047" xlink:href="#DejaVuSans-48"/>
       <use x="127.246094" xlink:href="#DejaVuSans-48"/>
      </g>
     </g>
    </g>
    <g id="ytick_10">
     <g id="line2d_26">
      <path clip-path="url(#pc5c84bac66)" d="M 62.89875 327.811949 
L 1178.89875 327.811949 
" style="fill:none;stroke:#b0b0b0;stroke-linecap:square;stroke-width:0.8;"/>
     </g>
     <g id="line2d_27">
      <g>
       <use style="stroke:#000000;stroke-width:0.8;" x="62.89875" xlink:href="#m01351b6181" y="327.811949"/>
      </g>
     </g>
     <g id="text_17">
      <!-- 900 -->
      <g transform="translate(31.085 332.750934)scale(0.13 -0.13)">
       <use xlink:href="#DejaVuSans-57"/>
       <use x="63.623047" xlink:href="#DejaVuSans-48"/>
       <use x="127.246094" xlink:href="#DejaVuSans-48"/>
      </g>
     </g>
    </g>
    <g id="ytick_11">
     <g id="line2d_28">
      <path clip-path="url(#pc5c84bac66)" d="M 62.89875 310.274562 
L 1178.89875 310.274562 
" style="fill:none;stroke:#b0b0b0;stroke-linecap:square;stroke-width:0.8;"/>
     </g>
     <g id="line2d_29">
      <g>
       <use style="stroke:#000000;stroke-width:0.8;" x="62.89875" xlink:href="#m01351b6181" y="310.274562"/>
      </g>
     </g>
     <g id="text_18">
      <!-- 1000 -->
      <g transform="translate(22.81375 315.213547)scale(0.13 -0.13)">
       <use xlink:href="#DejaVuSans-49"/>
       <use x="63.623047" xlink:href="#DejaVuSans-48"/>
       <use x="127.246094" xlink:href="#DejaVuSans-48"/>
       <use x="190.869141" xlink:href="#DejaVuSans-48"/>
      </g>
     </g>
    </g>
    <g id="ytick_12">
     <g id="line2d_30">
      <path clip-path="url(#pc5c84bac66)" d="M 62.89875 292.737175 
L 1178.89875 292.737175 
" style="fill:none;stroke:#b0b0b0;stroke-linecap:square;stroke-width:0.8;"/>
     </g>
     <g id="line2d_31">
      <g>
       <use style="stroke:#000000;stroke-width:0.8;" x="62.89875" xlink:href="#m01351b6181" y="292.737175"/>
      </g>
     </g>
     <g id="text_19">
      <!-- 1100 -->
      <g transform="translate(22.81375 297.67616)scale(0.13 -0.13)">
       <use xlink:href="#DejaVuSans-49"/>
       <use x="63.623047" xlink:href="#DejaVuSans-49"/>
       <use x="127.246094" xlink:href="#DejaVuSans-48"/>
       <use x="190.869141" xlink:href="#DejaVuSans-48"/>
      </g>
     </g>
    </g>
    <g id="ytick_13">
     <g id="line2d_32">
      <path clip-path="url(#pc5c84bac66)" d="M 62.89875 275.199789 
L 1178.89875 275.199789 
" style="fill:none;stroke:#b0b0b0;stroke-linecap:square;stroke-width:0.8;"/>
     </g>
     <g id="line2d_33">
      <g>
       <use style="stroke:#000000;stroke-width:0.8;" x="62.89875" xlink:href="#m01351b6181" y="275.199789"/>
      </g>
     </g>
     <g id="text_20">
      <!-- 1200 -->
      <g transform="translate(22.81375 280.138773)scale(0.13 -0.13)">
       <use xlink:href="#DejaVuSans-49"/>
       <use x="63.623047" xlink:href="#DejaVuSans-50"/>
       <use x="127.246094" xlink:href="#DejaVuSans-48"/>
       <use x="190.869141" xlink:href="#DejaVuSans-48"/>
      </g>
     </g>
    </g>
    <g id="ytick_14">
     <g id="line2d_34">
      <path clip-path="url(#pc5c84bac66)" d="M 62.89875 257.662402 
L 1178.89875 257.662402 
" style="fill:none;stroke:#b0b0b0;stroke-linecap:square;stroke-width:0.8;"/>
     </g>
     <g id="line2d_35">
      <g>
       <use style="stroke:#000000;stroke-width:0.8;" x="62.89875" xlink:href="#m01351b6181" y="257.662402"/>
      </g>
     </g>
     <g id="text_21">
      <!-- 1300 -->
      <g transform="translate(22.81375 262.601386)scale(0.13 -0.13)">
       <use xlink:href="#DejaVuSans-49"/>
       <use x="63.623047" xlink:href="#DejaVuSans-51"/>
       <use x="127.246094" xlink:href="#DejaVuSans-48"/>
       <use x="190.869141" xlink:href="#DejaVuSans-48"/>
      </g>
     </g>
    </g>
    <g id="ytick_15">
     <g id="line2d_36">
      <path clip-path="url(#pc5c84bac66)" d="M 62.89875 240.125015 
L 1178.89875 240.125015 
" style="fill:none;stroke:#b0b0b0;stroke-linecap:square;stroke-width:0.8;"/>
     </g>
     <g id="line2d_37">
      <g>
       <use style="stroke:#000000;stroke-width:0.8;" x="62.89875" xlink:href="#m01351b6181" y="240.125015"/>
      </g>
     </g>
     <g id="text_22">
      <!-- 1400 -->
      <g transform="translate(22.81375 245.063999)scale(0.13 -0.13)">
       <use xlink:href="#DejaVuSans-49"/>
       <use x="63.623047" xlink:href="#DejaVuSans-52"/>
       <use x="127.246094" xlink:href="#DejaVuSans-48"/>
       <use x="190.869141" xlink:href="#DejaVuSans-48"/>
      </g>
     </g>
    </g>
    <g id="ytick_16">
     <g id="line2d_38">
      <path clip-path="url(#pc5c84bac66)" d="M 62.89875 222.587628 
L 1178.89875 222.587628 
" style="fill:none;stroke:#b0b0b0;stroke-linecap:square;stroke-width:0.8;"/>
     </g>
     <g id="line2d_39">
      <g>
       <use style="stroke:#000000;stroke-width:0.8;" x="62.89875" xlink:href="#m01351b6181" y="222.587628"/>
      </g>
     </g>
     <g id="text_23">
      <!-- 1500 -->
      <g transform="translate(22.81375 227.526612)scale(0.13 -0.13)">
       <use xlink:href="#DejaVuSans-49"/>
       <use x="63.623047" xlink:href="#DejaVuSans-53"/>
       <use x="127.246094" xlink:href="#DejaVuSans-48"/>
       <use x="190.869141" xlink:href="#DejaVuSans-48"/>
      </g>
     </g>
    </g>
    <g id="ytick_17">
     <g id="line2d_40">
      <path clip-path="url(#pc5c84bac66)" d="M 62.89875 205.050241 
L 1178.89875 205.050241 
" style="fill:none;stroke:#b0b0b0;stroke-linecap:square;stroke-width:0.8;"/>
     </g>
     <g id="line2d_41">
      <g>
       <use style="stroke:#000000;stroke-width:0.8;" x="62.89875" xlink:href="#m01351b6181" y="205.050241"/>
      </g>
     </g>
     <g id="text_24">
      <!-- 1600 -->
      <g transform="translate(22.81375 209.989225)scale(0.13 -0.13)">
       <use xlink:href="#DejaVuSans-49"/>
       <use x="63.623047" xlink:href="#DejaVuSans-54"/>
       <use x="127.246094" xlink:href="#DejaVuSans-48"/>
       <use x="190.869141" xlink:href="#DejaVuSans-48"/>
      </g>
     </g>
    </g>
    <g id="ytick_18">
     <g id="line2d_42">
      <path clip-path="url(#pc5c84bac66)" d="M 62.89875 187.512854 
L 1178.89875 187.512854 
" style="fill:none;stroke:#b0b0b0;stroke-linecap:square;stroke-width:0.8;"/>
     </g>
     <g id="line2d_43">
      <g>
       <use style="stroke:#000000;stroke-width:0.8;" x="62.89875" xlink:href="#m01351b6181" y="187.512854"/>
      </g>
     </g>
     <g id="text_25">
      <!-- 1700 -->
      <g transform="translate(22.81375 192.451838)scale(0.13 -0.13)">
       <use xlink:href="#DejaVuSans-49"/>
       <use x="63.623047" xlink:href="#DejaVuSans-55"/>
       <use x="127.246094" xlink:href="#DejaVuSans-48"/>
       <use x="190.869141" xlink:href="#DejaVuSans-48"/>
      </g>
     </g>
    </g>
    <g id="ytick_19">
     <g id="line2d_44">
      <path clip-path="url(#pc5c84bac66)" d="M 62.89875 169.975467 
L 1178.89875 169.975467 
" style="fill:none;stroke:#b0b0b0;stroke-linecap:square;stroke-width:0.8;"/>
     </g>
     <g id="line2d_45">
      <g>
       <use style="stroke:#000000;stroke-width:0.8;" x="62.89875" xlink:href="#m01351b6181" y="169.975467"/>
      </g>
     </g>
     <g id="text_26">
      <!-- 1800 -->
      <g transform="translate(22.81375 174.914451)scale(0.13 -0.13)">
       <use xlink:href="#DejaVuSans-49"/>
       <use x="63.623047" xlink:href="#DejaVuSans-56"/>
       <use x="127.246094" xlink:href="#DejaVuSans-48"/>
       <use x="190.869141" xlink:href="#DejaVuSans-48"/>
      </g>
     </g>
    </g>
    <g id="ytick_20">
     <g id="line2d_46">
      <path clip-path="url(#pc5c84bac66)" d="M 62.89875 152.43808 
L 1178.89875 152.43808 
" style="fill:none;stroke:#b0b0b0;stroke-linecap:square;stroke-width:0.8;"/>
     </g>
     <g id="line2d_47">
      <g>
       <use style="stroke:#000000;stroke-width:0.8;" x="62.89875" xlink:href="#m01351b6181" y="152.43808"/>
      </g>
     </g>
     <g id="text_27">
      <!-- 1900 -->
      <g transform="translate(22.81375 157.377064)scale(0.13 -0.13)">
       <use xlink:href="#DejaVuSans-49"/>
       <use x="63.623047" xlink:href="#DejaVuSans-57"/>
       <use x="127.246094" xlink:href="#DejaVuSans-48"/>
       <use x="190.869141" xlink:href="#DejaVuSans-48"/>
      </g>
     </g>
    </g>
    <g id="ytick_21">
     <g id="line2d_48">
      <path clip-path="url(#pc5c84bac66)" d="M 62.89875 134.900693 
L 1178.89875 134.900693 
" style="fill:none;stroke:#b0b0b0;stroke-linecap:square;stroke-width:0.8;"/>
     </g>
     <g id="line2d_49">
      <g>
       <use style="stroke:#000000;stroke-width:0.8;" x="62.89875" xlink:href="#m01351b6181" y="134.900693"/>
      </g>
     </g>
     <g id="text_28">
      <!-- 2000 -->
      <g transform="translate(22.81375 139.839677)scale(0.13 -0.13)">
       <use xlink:href="#DejaVuSans-50"/>
       <use x="63.623047" xlink:href="#DejaVuSans-48"/>
       <use x="127.246094" xlink:href="#DejaVuSans-48"/>
       <use x="190.869141" xlink:href="#DejaVuSans-48"/>
      </g>
     </g>
    </g>
    <g id="ytick_22">
     <g id="line2d_50">
      <path clip-path="url(#pc5c84bac66)" d="M 62.89875 117.363306 
L 1178.89875 117.363306 
" style="fill:none;stroke:#b0b0b0;stroke-linecap:square;stroke-width:0.8;"/>
     </g>
     <g id="line2d_51">
      <g>
       <use style="stroke:#000000;stroke-width:0.8;" x="62.89875" xlink:href="#m01351b6181" y="117.363306"/>
      </g>
     </g>
     <g id="text_29">
      <!-- 2100 -->
      <g transform="translate(22.81375 122.30229)scale(0.13 -0.13)">
       <use xlink:href="#DejaVuSans-50"/>
       <use x="63.623047" xlink:href="#DejaVuSans-49"/>
       <use x="127.246094" xlink:href="#DejaVuSans-48"/>
       <use x="190.869141" xlink:href="#DejaVuSans-48"/>
      </g>
     </g>
    </g>
    <g id="ytick_23">
     <g id="line2d_52">
      <path clip-path="url(#pc5c84bac66)" d="M 62.89875 99.825919 
L 1178.89875 99.825919 
" style="fill:none;stroke:#b0b0b0;stroke-linecap:square;stroke-width:0.8;"/>
     </g>
     <g id="line2d_53">
      <g>
       <use style="stroke:#000000;stroke-width:0.8;" x="62.89875" xlink:href="#m01351b6181" y="99.825919"/>
      </g>
     </g>
     <g id="text_30">
      <!-- 2200 -->
      <g transform="translate(22.81375 104.764903)scale(0.13 -0.13)">
       <use xlink:href="#DejaVuSans-50"/>
       <use x="63.623047" xlink:href="#DejaVuSans-50"/>
       <use x="127.246094" xlink:href="#DejaVuSans-48"/>
       <use x="190.869141" xlink:href="#DejaVuSans-48"/>
      </g>
     </g>
    </g>
    <g id="ytick_24">
     <g id="line2d_54">
      <path clip-path="url(#pc5c84bac66)" d="M 62.89875 82.288532 
L 1178.89875 82.288532 
" style="fill:none;stroke:#b0b0b0;stroke-linecap:square;stroke-width:0.8;"/>
     </g>
     <g id="line2d_55">
      <g>
       <use style="stroke:#000000;stroke-width:0.8;" x="62.89875" xlink:href="#m01351b6181" y="82.288532"/>
      </g>
     </g>
     <g id="text_31">
      <!-- 2300 -->
      <g transform="translate(22.81375 87.227517)scale(0.13 -0.13)">
       <use xlink:href="#DejaVuSans-50"/>
       <use x="63.623047" xlink:href="#DejaVuSans-51"/>
       <use x="127.246094" xlink:href="#DejaVuSans-48"/>
       <use x="190.869141" xlink:href="#DejaVuSans-48"/>
      </g>
     </g>
    </g>
    <g id="ytick_25">
     <g id="line2d_56">
      <path clip-path="url(#pc5c84bac66)" d="M 62.89875 64.751145 
L 1178.89875 64.751145 
" style="fill:none;stroke:#b0b0b0;stroke-linecap:square;stroke-width:0.8;"/>
     </g>
     <g id="line2d_57">
      <g>
       <use style="stroke:#000000;stroke-width:0.8;" x="62.89875" xlink:href="#m01351b6181" y="64.751145"/>
      </g>
     </g>
     <g id="text_32">
      <!-- 2400 -->
      <g transform="translate(22.81375 69.69013)scale(0.13 -0.13)">
       <use xlink:href="#DejaVuSans-50"/>
       <use x="63.623047" xlink:href="#DejaVuSans-52"/>
       <use x="127.246094" xlink:href="#DejaVuSans-48"/>
       <use x="190.869141" xlink:href="#DejaVuSans-48"/>
      </g>
     </g>
    </g>
    <g id="ytick_26">
     <g id="line2d_58">
      <path clip-path="url(#pc5c84bac66)" d="M 62.89875 47.213758 
L 1178.89875 47.213758 
" style="fill:none;stroke:#b0b0b0;stroke-linecap:square;stroke-width:0.8;"/>
     </g>
     <g id="line2d_59">
      <g>
       <use style="stroke:#000000;stroke-width:0.8;" x="62.89875" xlink:href="#m01351b6181" y="47.213758"/>
      </g>
     </g>
     <g id="text_33">
      <!-- 2500 -->
      <g transform="translate(22.81375 52.152743)scale(0.13 -0.13)">
       <use xlink:href="#DejaVuSans-50"/>
       <use x="63.623047" xlink:href="#DejaVuSans-53"/>
       <use x="127.246094" xlink:href="#DejaVuSans-48"/>
       <use x="190.869141" xlink:href="#DejaVuSans-48"/>
      </g>
     </g>
    </g>
    <g id="ytick_27">
     <g id="line2d_60">
      <path clip-path="url(#pc5c84bac66)" d="M 62.89875 29.676371 
L 1178.89875 29.676371 
" style="fill:none;stroke:#b0b0b0;stroke-linecap:square;stroke-width:0.8;"/>
     </g>
     <g id="line2d_61">
      <g>
       <use style="stroke:#000000;stroke-width:0.8;" x="62.89875" xlink:href="#m01351b6181" y="29.676371"/>
      </g>
     </g>
     <g id="text_34">
      <!-- 2600 -->
      <g transform="translate(22.81375 34.615356)scale(0.13 -0.13)">
       <use xlink:href="#DejaVuSans-50"/>
       <use x="63.623047" xlink:href="#DejaVuSans-54"/>
       <use x="127.246094" xlink:href="#DejaVuSans-48"/>
       <use x="190.869141" xlink:href="#DejaVuSans-48"/>
      </g>
     </g>
    </g>
    <g id="ytick_28">
     <g id="line2d_62">
      <path clip-path="url(#pc5c84bac66)" d="M 62.89875 12.138984 
L 1178.89875 12.138984 
" style="fill:none;stroke:#b0b0b0;stroke-linecap:square;stroke-width:0.8;"/>
     </g>
     <g id="line2d_63">
      <g>
       <use style="stroke:#000000;stroke-width:0.8;" x="62.89875" xlink:href="#m01351b6181" y="12.138984"/>
      </g>
     </g>
     <g id="text_35">
      <!-- 2700 -->
      <g transform="translate(22.81375 17.077969)scale(0.13 -0.13)">
       <use xlink:href="#DejaVuSans-50"/>
       <use x="63.623047" xlink:href="#DejaVuSans-55"/>
       <use x="127.246094" xlink:href="#DejaVuSans-48"/>
       <use x="190.869141" xlink:href="#DejaVuSans-48"/>
      </g>
     </g>
    </g>
    <g id="text_36">
     <!-- Anzahl von Fällen -->
     <defs>
      <path d="M 34.1875 63.1875 
L 20.796875 26.90625 
L 47.609375 26.90625 
z
M 28.609375 72.90625 
L 39.796875 72.90625 
L 67.578125 0 
L 57.328125 0 
L 50.6875 18.703125 
L 17.828125 18.703125 
L 11.1875 0 
L 0.78125 0 
z
" id="DejaVuSans-65"/>
      <path d="M 54.890625 33.015625 
L 54.890625 0 
L 45.90625 0 
L 45.90625 32.71875 
Q 45.90625 40.484375 42.875 44.328125 
Q 39.84375 48.1875 33.796875 48.1875 
Q 26.515625 48.1875 22.3125 43.546875 
Q 18.109375 38.921875 18.109375 30.90625 
L 18.109375 0 
L 9.078125 0 
L 9.078125 54.6875 
L 18.109375 54.6875 
L 18.109375 46.1875 
Q 21.34375 51.125 25.703125 53.5625 
Q 30.078125 56 35.796875 56 
Q 45.21875 56 50.046875 50.171875 
Q 54.890625 44.34375 54.890625 33.015625 
z
" id="DejaVuSans-110"/>
      <path d="M 5.515625 54.6875 
L 48.1875 54.6875 
L 48.1875 46.484375 
L 14.40625 7.171875 
L 48.1875 7.171875 
L 48.1875 0 
L 4.296875 0 
L 4.296875 8.203125 
L 38.09375 47.515625 
L 5.515625 47.515625 
z
" id="DejaVuSans-122"/>
      <path d="M 34.28125 27.484375 
Q 23.390625 27.484375 19.1875 25 
Q 14.984375 22.515625 14.984375 16.5 
Q 14.984375 11.71875 18.140625 8.90625 
Q 21.296875 6.109375 26.703125 6.109375 
Q 34.1875 6.109375 38.703125 11.40625 
Q 43.21875 16.703125 43.21875 25.484375 
L 43.21875 27.484375 
z
M 52.203125 31.203125 
L 52.203125 0 
L 43.21875 0 
L 43.21875 8.296875 
Q 40.140625 3.328125 35.546875 0.953125 
Q 30.953125 -1.421875 24.3125 -1.421875 
Q 15.921875 -1.421875 10.953125 3.296875 
Q 6 8.015625 6 15.921875 
Q 6 25.140625 12.171875 29.828125 
Q 18.359375 34.515625 30.609375 34.515625 
L 43.21875 34.515625 
L 43.21875 35.40625 
Q 43.21875 41.609375 39.140625 45 
Q 35.0625 48.390625 27.6875 48.390625 
Q 23 48.390625 18.546875 47.265625 
Q 14.109375 46.140625 10.015625 43.890625 
L 10.015625 52.203125 
Q 14.9375 54.109375 19.578125 55.046875 
Q 24.21875 56 28.609375 56 
Q 40.484375 56 46.34375 49.84375 
Q 52.203125 43.703125 52.203125 31.203125 
z
" id="DejaVuSans-97"/>
      <path d="M 54.890625 33.015625 
L 54.890625 0 
L 45.90625 0 
L 45.90625 32.71875 
Q 45.90625 40.484375 42.875 44.328125 
Q 39.84375 48.1875 33.796875 48.1875 
Q 26.515625 48.1875 22.3125 43.546875 
Q 18.109375 38.921875 18.109375 30.90625 
L 18.109375 0 
L 9.078125 0 
L 9.078125 75.984375 
L 18.109375 75.984375 
L 18.109375 46.1875 
Q 21.34375 51.125 25.703125 53.5625 
Q 30.078125 56 35.796875 56 
Q 45.21875 56 50.046875 50.171875 
Q 54.890625 44.34375 54.890625 33.015625 
z
" id="DejaVuSans-104"/>
      <path d="M 9.421875 75.984375 
L 18.40625 75.984375 
L 18.40625 0 
L 9.421875 0 
z
" id="DejaVuSans-108"/>
      <path id="DejaVuSans-32"/>
      <path d="M 2.984375 54.6875 
L 12.5 54.6875 
L 29.59375 8.796875 
L 46.6875 54.6875 
L 56.203125 54.6875 
L 35.6875 0 
L 23.484375 0 
z
" id="DejaVuSans-118"/>
      <path d="M 30.609375 48.390625 
Q 23.390625 48.390625 19.1875 42.75 
Q 14.984375 37.109375 14.984375 27.296875 
Q 14.984375 17.484375 19.15625 11.84375 
Q 23.34375 6.203125 30.609375 6.203125 
Q 37.796875 6.203125 41.984375 11.859375 
Q 46.1875 17.53125 46.1875 27.296875 
Q 46.1875 37.015625 41.984375 42.703125 
Q 37.796875 48.390625 30.609375 48.390625 
z
M 30.609375 56 
Q 42.328125 56 49.015625 48.375 
Q 55.71875 40.765625 55.71875 27.296875 
Q 55.71875 13.875 49.015625 6.21875 
Q 42.328125 -1.421875 30.609375 -1.421875 
Q 18.84375 -1.421875 12.171875 6.21875 
Q 5.515625 13.875 5.515625 27.296875 
Q 5.515625 40.765625 12.171875 48.375 
Q 18.84375 56 30.609375 56 
z
" id="DejaVuSans-111"/>
      <path d="M 9.8125 72.90625 
L 51.703125 72.90625 
L 51.703125 64.59375 
L 19.671875 64.59375 
L 19.671875 43.109375 
L 48.578125 43.109375 
L 48.578125 34.8125 
L 19.671875 34.8125 
L 19.671875 0 
L 9.8125 0 
z
" id="DejaVuSans-70"/>
      <path d="M 34.28125 27.484375 
Q 23.390625 27.484375 19.1875 25 
Q 14.984375 22.515625 14.984375 16.5 
Q 14.984375 11.71875 18.140625 8.90625 
Q 21.296875 6.109375 26.703125 6.109375 
Q 34.1875 6.109375 38.703125 11.40625 
Q 43.21875 16.703125 43.21875 25.484375 
L 43.21875 27.484375 
z
M 52.203125 31.203125 
L 52.203125 0 
L 43.21875 0 
L 43.21875 8.296875 
Q 40.140625 3.328125 35.546875 0.953125 
Q 30.953125 -1.421875 24.3125 -1.421875 
Q 15.921875 -1.421875 10.953125 3.296875 
Q 6 8.015625 6 15.921875 
Q 6 25.140625 12.171875 29.828125 
Q 18.359375 34.515625 30.609375 34.515625 
L 43.21875 34.515625 
L 43.21875 35.40625 
Q 43.21875 41.609375 39.140625 45 
Q 35.0625 48.390625 27.6875 48.390625 
Q 23 48.390625 18.546875 47.265625 
Q 14.109375 46.140625 10.015625 43.890625 
L 10.015625 52.203125 
Q 14.9375 54.109375 19.578125 55.046875 
Q 24.21875 56 28.609375 56 
Q 40.484375 56 46.34375 49.84375 
Q 52.203125 43.703125 52.203125 31.203125 
z
M 33.59375 75.78125 
L 43.5 75.78125 
L 43.5 65.921875 
L 33.59375 65.921875 
z
M 14.5 75.78125 
L 24.40625 75.78125 
L 24.40625 65.921875 
L 14.5 65.921875 
z
" id="DejaVuSans-228"/>
      <path d="M 56.203125 29.59375 
L 56.203125 25.203125 
L 14.890625 25.203125 
Q 15.484375 15.921875 20.484375 11.0625 
Q 25.484375 6.203125 34.421875 6.203125 
Q 39.59375 6.203125 44.453125 7.46875 
Q 49.3125 8.734375 54.109375 11.28125 
L 54.109375 2.78125 
Q 49.265625 0.734375 44.1875 -0.34375 
Q 39.109375 -1.421875 33.890625 -1.421875 
Q 20.796875 -1.421875 13.15625 6.1875 
Q 5.515625 13.8125 5.515625 26.8125 
Q 5.515625 40.234375 12.765625 48.109375 
Q 20.015625 56 32.328125 56 
Q 43.359375 56 49.78125 48.890625 
Q 56.203125 41.796875 56.203125 29.59375 
z
M 47.21875 32.234375 
Q 47.125 39.59375 43.09375 43.984375 
Q 39.0625 48.390625 32.421875 48.390625 
Q 24.90625 48.390625 20.390625 44.140625 
Q 15.875 39.890625 15.1875 32.171875 
z
" id="DejaVuSans-101"/>
     </defs>
     <g transform="translate(16.318125 309.388359)rotate(-90)scale(0.12 -0.12)">
      <use xlink:href="#DejaVuSans-65"/>
      <use x="68.408203" xlink:href="#DejaVuSans-110"/>
      <use x="131.787109" xlink:href="#DejaVuSans-122"/>
      <use x="184.277344" xlink:href="#DejaVuSans-97"/>
      <use x="245.556641" xlink:href="#DejaVuSans-104"/>
      <use x="308.935547" xlink:href="#DejaVuSans-108"/>
      <use x="336.71875" xlink:href="#DejaVuSans-32"/>
      <use x="368.505859" xlink:href="#DejaVuSans-118"/>
      <use x="427.685547" xlink:href="#DejaVuSans-111"/>
      <use x="488.867188" xlink:href="#DejaVuSans-110"/>
      <use x="552.246094" xlink:href="#DejaVuSans-32"/>
      <use x="584.033203" xlink:href="#DejaVuSans-70"/>
      <use x="632.427734" xlink:href="#DejaVuSans-228"/>
      <use x="693.707031" xlink:href="#DejaVuSans-108"/>
      <use x="721.490234" xlink:href="#DejaVuSans-108"/>
      <use x="749.273438" xlink:href="#DejaVuSans-101"/>
      <use x="810.796875" xlink:href="#DejaVuSans-110"/>
     </g>
    </g>
   </g>
   <g id="line2d_64">
    <path clip-path="url(#pc5c84bac66)" d="M 113.626023 482.667076 
L 118.623784 481.790207 
L 123.621544 480.036468 
L 128.619305 477.055112 
L 133.617066 474.24913 
L 138.614827 472.320018 
L 143.612588 471.96927 
L 148.610349 469.338662 
L 153.60811 464.954315 
L 158.60587 462.148333 
L 163.603631 458.465482 
L 168.601392 451.976649 
L 173.599153 444.961694 
L 178.596914 443.207955 
L 183.594675 439.34973 
L 193.590196 427.424307 
L 198.587957 424.618325 
L 203.585718 418.48024 
L 213.58124 418.48024 
L 223.576762 411.465285 
L 228.574523 406.204069 
L 233.572283 402.871965 
L 238.570044 397.961497 
L 243.567805 394.45402 
L 253.563327 388.842056 
L 258.561088 384.983831 
L 268.556609 378.319624 
L 273.55437 374.286025 
L 278.552131 369.726304 
L 288.547653 363.763593 
L 293.545414 363.763593 
L 298.543175 356.573264 
L 303.540935 353.416534 
L 313.536457 342.017233 
L 323.531979 336.054521 
L 328.52974 332.020922 
L 333.527501 328.864193 
L 338.525261 326.93508 
L 343.523022 324.129098 
L 348.520783 321.49849 
L 358.516305 319.569377 
L 363.514066 315.711152 
L 368.511827 313.606666 
L 373.509587 310.449936 
L 378.507348 308.34545 
L 383.505109 306.767085 
L 393.500631 304.311851 
L 398.498392 302.90886 
L 403.496153 299.226009 
L 413.491674 296.595401 
L 418.489435 293.263297 
L 428.484957 288.002081 
L 433.482718 285.020725 
L 443.478239 278.88264 
L 448.476 277.479649 
L 468.467044 275.72591 
L 473.464805 274.849041 
L 478.462565 274.147545 
L 483.460326 273.095302 
L 488.458087 273.095302 
L 498.453609 272.393807 
L 508.449131 272.393807 
L 518.444652 270.815442 
L 523.442413 270.815442 
L 533.437935 270.464694 
L 543.433457 268.535581 
L 553.428978 267.132591 
L 558.426739 267.132591 
L 568.422261 265.904973 
L 573.420022 265.554226 
L 578.417783 265.554226 
L 583.415544 264.501982 
L 593.411065 263.625113 
L 603.406587 263.098992 
L 608.404348 263.098992 
L 613.402109 261.345253 
L 618.39987 260.643757 
L 623.39763 259.41614 
L 628.395391 259.41614 
L 638.390913 256.785532 
L 643.388674 254.505672 
L 653.384196 253.804176 
L 658.381956 251.524316 
L 673.375239 249.770577 
L 678.373 249.770577 
L 683.370761 246.789222 
L 688.368522 246.789222 
L 693.366282 245.561605 
L 708.359565 245.386231 
L 718.355087 244.333988 
L 728.350608 243.632492 
L 743.343891 242.229501 
L 748.341652 242.054127 
L 753.339413 241.177258 
L 758.337174 241.001884 
L 763.334935 240.651136 
L 778.328217 238.897398 
L 783.325978 237.66978 
L 788.323739 235.916042 
L 793.3215 233.986929 
L 798.319261 231.707069 
L 813.312543 228.901087 
L 818.310304 226.971974 
L 823.308065 223.990619 
L 828.305826 223.113749 
L 833.303587 221.535384 
L 848.296869 217.677159 
L 858.292391 212.415943 
L 863.290152 211.889822 
L 868.287913 209.785335 
L 883.281195 203.296502 
L 888.278956 199.262903 
L 893.276717 198.035286 
L 898.274478 196.456921 
L 903.272239 192.423322 
L 918.265521 187.162106 
L 923.263282 185.934489 
L 928.261043 184.18075 
L 933.258804 181.550142 
L 938.256565 180.497899 
L 953.249847 178.74416 
L 958.247608 176.288926 
L 963.245369 172.781449 
L 968.24313 171.553832 
L 973.240891 170.150841 
L 988.234173 166.994111 
L 993.231934 164.188129 
L 998.229695 162.43439 
L 1003.227456 160.856026 
L 1008.225217 160.856026 
L 1023.218499 155.419436 
L 1028.21626 154.367192 
L 1033.214021 151.736584 
L 1038.211782 147.352238 
L 1043.209543 145.598499 
L 1058.202825 141.389526 
L 1063.200586 140.337283 
L 1068.198347 136.829806 
L 1073.196108 135.076067 
L 1078.193869 131.568589 
L 1093.187151 126.482747 
L 1098.184912 124.202887 
L 1103.182673 119.81854 
L 1108.180434 114.38195 
L 1113.178195 110.523725 
L 1128.171477 101.22891 
L 1128.171477 101.22891 
" style="fill:none;stroke:#dbcd00;stroke-linecap:square;stroke-width:2;"/>
    <defs>
     <path d="M 0 1.5 
C 0.397805 1.5 0.77937 1.341951 1.06066 1.06066 
C 1.341951 0.77937 1.5 0.397805 1.5 0 
C 1.5 -0.397805 1.341951 -0.77937 1.06066 -1.06066 
C 0.77937 -1.341951 0.397805 -1.5 0 -1.5 
C -0.397805 -1.5 -0.77937 -1.341951 -1.06066 -1.06066 
C -1.341951 -0.77937 -1.5 -0.397805 -1.5 0 
C -1.5 0.397805 -1.341951 0.77937 -1.06066 1.06066 
C -0.77937 1.341951 -0.397805 1.5 0 1.5 
z
" id="m4f0ccdbcd7" style="stroke:#dbcd00;"/>
    </defs>
    <g clip-path="url(#pc5c84bac66)">
     <use style="fill:#dbcd00;stroke:#dbcd00;" x="113.626023" xlink:href="#m4f0ccdbcd7" y="482.667076"/>
     <use style="fill:#dbcd00;stroke:#dbcd00;" x="118.623784" xlink:href="#m4f0ccdbcd7" y="481.790207"/>
     <use style="fill:#dbcd00;stroke:#dbcd00;" x="123.621544" xlink:href="#m4f0ccdbcd7" y="480.036468"/>
     <use style="fill:#dbcd00;stroke:#dbcd00;" x="128.619305" xlink:href="#m4f0ccdbcd7" y="477.055112"/>
     <use style="fill:#dbcd00;stroke:#dbcd00;" x="133.617066" xlink:href="#m4f0ccdbcd7" y="474.24913"/>
     <use style="fill:#dbcd00;stroke:#dbcd00;" x="138.614827" xlink:href="#m4f0ccdbcd7" y="472.320018"/>
     <use style="fill:#dbcd00;stroke:#dbcd00;" x="143.612588" xlink:href="#m4f0ccdbcd7" y="471.96927"/>
     <use style="fill:#dbcd00;stroke:#dbcd00;" x="148.610349" xlink:href="#m4f0ccdbcd7" y="469.338662"/>
     <use style="fill:#dbcd00;stroke:#dbcd00;" x="153.60811" xlink:href="#m4f0ccdbcd7" y="464.954315"/>
     <use style="fill:#dbcd00;stroke:#dbcd00;" x="158.60587" xlink:href="#m4f0ccdbcd7" y="462.148333"/>
     <use style="fill:#dbcd00;stroke:#dbcd00;" x="163.603631" xlink:href="#m4f0ccdbcd7" y="458.465482"/>
     <use style="fill:#dbcd00;stroke:#dbcd00;" x="168.601392" xlink:href="#m4f0ccdbcd7" y="451.976649"/>
     <use style="fill:#dbcd00;stroke:#dbcd00;" x="173.599153" xlink:href="#m4f0ccdbcd7" y="444.961694"/>
     <use style="fill:#dbcd00;stroke:#dbcd00;" x="178.596914" xlink:href="#m4f0ccdbcd7" y="443.207955"/>
     <use style="fill:#dbcd00;stroke:#dbcd00;" x="183.594675" xlink:href="#m4f0ccdbcd7" y="439.34973"/>
     <use style="fill:#dbcd00;stroke:#dbcd00;" x="188.592436" xlink:href="#m4f0ccdbcd7" y="433.387019"/>
     <use style="fill:#dbcd00;stroke:#dbcd00;" x="193.590196" xlink:href="#m4f0ccdbcd7" y="427.424307"/>
     <use style="fill:#dbcd00;stroke:#dbcd00;" x="198.587957" xlink:href="#m4f0ccdbcd7" y="424.618325"/>
     <use style="fill:#dbcd00;stroke:#dbcd00;" x="203.585718" xlink:href="#m4f0ccdbcd7" y="418.48024"/>
     <use style="fill:#dbcd00;stroke:#dbcd00;" x="213.58124" xlink:href="#m4f0ccdbcd7" y="418.48024"/>
     <use style="fill:#dbcd00;stroke:#dbcd00;" x="223.576762" xlink:href="#m4f0ccdbcd7" y="411.465285"/>
     <use style="fill:#dbcd00;stroke:#dbcd00;" x="228.574523" xlink:href="#m4f0ccdbcd7" y="406.204069"/>
     <use style="fill:#dbcd00;stroke:#dbcd00;" x="233.572283" xlink:href="#m4f0ccdbcd7" y="402.871965"/>
     <use style="fill:#dbcd00;stroke:#dbcd00;" x="238.570044" xlink:href="#m4f0ccdbcd7" y="397.961497"/>
     <use style="fill:#dbcd00;stroke:#dbcd00;" x="243.567805" xlink:href="#m4f0ccdbcd7" y="394.45402"/>
     <use style="fill:#dbcd00;stroke:#dbcd00;" x="253.563327" xlink:href="#m4f0ccdbcd7" y="388.842056"/>
     <use style="fill:#dbcd00;stroke:#dbcd00;" x="258.561088" xlink:href="#m4f0ccdbcd7" y="384.983831"/>
     <use style="fill:#dbcd00;stroke:#dbcd00;" x="263.558849" xlink:href="#m4f0ccdbcd7" y="381.651727"/>
     <use style="fill:#dbcd00;stroke:#dbcd00;" x="268.556609" xlink:href="#m4f0ccdbcd7" y="378.319624"/>
     <use style="fill:#dbcd00;stroke:#dbcd00;" x="273.55437" xlink:href="#m4f0ccdbcd7" y="374.286025"/>
     <use style="fill:#dbcd00;stroke:#dbcd00;" x="278.552131" xlink:href="#m4f0ccdbcd7" y="369.726304"/>
     <use style="fill:#dbcd00;stroke:#dbcd00;" x="288.547653" xlink:href="#m4f0ccdbcd7" y="363.763593"/>
     <use style="fill:#dbcd00;stroke:#dbcd00;" x="293.545414" xlink:href="#m4f0ccdbcd7" y="363.763593"/>
     <use style="fill:#dbcd00;stroke:#dbcd00;" x="298.543175" xlink:href="#m4f0ccdbcd7" y="356.573264"/>
     <use style="fill:#dbcd00;stroke:#dbcd00;" x="303.540935" xlink:href="#m4f0ccdbcd7" y="353.416534"/>
     <use style="fill:#dbcd00;stroke:#dbcd00;" x="313.536457" xlink:href="#m4f0ccdbcd7" y="342.017233"/>
     <use style="fill:#dbcd00;stroke:#dbcd00;" x="323.531979" xlink:href="#m4f0ccdbcd7" y="336.054521"/>
     <use style="fill:#dbcd00;stroke:#dbcd00;" x="328.52974" xlink:href="#m4f0ccdbcd7" y="332.020922"/>
     <use style="fill:#dbcd00;stroke:#dbcd00;" x="333.527501" xlink:href="#m4f0ccdbcd7" y="328.864193"/>
     <use style="fill:#dbcd00;stroke:#dbcd00;" x="338.525261" xlink:href="#m4f0ccdbcd7" y="326.93508"/>
     <use style="fill:#dbcd00;stroke:#dbcd00;" x="343.523022" xlink:href="#m4f0ccdbcd7" y="324.129098"/>
     <use style="fill:#dbcd00;stroke:#dbcd00;" x="348.520783" xlink:href="#m4f0ccdbcd7" y="321.49849"/>
     <use style="fill:#dbcd00;stroke:#dbcd00;" x="358.516305" xlink:href="#m4f0ccdbcd7" y="319.569377"/>
     <use style="fill:#dbcd00;stroke:#dbcd00;" x="363.514066" xlink:href="#m4f0ccdbcd7" y="315.711152"/>
     <use style="fill:#dbcd00;stroke:#dbcd00;" x="368.511827" xlink:href="#m4f0ccdbcd7" y="313.606666"/>
     <use style="fill:#dbcd00;stroke:#dbcd00;" x="373.509587" xlink:href="#m4f0ccdbcd7" y="310.449936"/>
     <use style="fill:#dbcd00;stroke:#dbcd00;" x="378.507348" xlink:href="#m4f0ccdbcd7" y="308.34545"/>
     <use style="fill:#dbcd00;stroke:#dbcd00;" x="383.505109" xlink:href="#m4f0ccdbcd7" y="306.767085"/>
     <use style="fill:#dbcd00;stroke:#dbcd00;" x="393.500631" xlink:href="#m4f0ccdbcd7" y="304.311851"/>
     <use style="fill:#dbcd00;stroke:#dbcd00;" x="398.498392" xlink:href="#m4f0ccdbcd7" y="302.90886"/>
     <use style="fill:#dbcd00;stroke:#dbcd00;" x="403.496153" xlink:href="#m4f0ccdbcd7" y="299.226009"/>
     <use style="fill:#dbcd00;stroke:#dbcd00;" x="413.491674" xlink:href="#m4f0ccdbcd7" y="296.595401"/>
     <use style="fill:#dbcd00;stroke:#dbcd00;" x="418.489435" xlink:href="#m4f0ccdbcd7" y="293.263297"/>
     <use style="fill:#dbcd00;stroke:#dbcd00;" x="428.484957" xlink:href="#m4f0ccdbcd7" y="288.002081"/>
     <use style="fill:#dbcd00;stroke:#dbcd00;" x="433.482718" xlink:href="#m4f0ccdbcd7" y="285.020725"/>
     <use style="fill:#dbcd00;stroke:#dbcd00;" x="443.478239" xlink:href="#m4f0ccdbcd7" y="278.88264"/>
     <use style="fill:#dbcd00;stroke:#dbcd00;" x="448.476" xlink:href="#m4f0ccdbcd7" y="277.479649"/>
     <use style="fill:#dbcd00;stroke:#dbcd00;" x="468.467044" xlink:href="#m4f0ccdbcd7" y="275.72591"/>
     <use style="fill:#dbcd00;stroke:#dbcd00;" x="473.464805" xlink:href="#m4f0ccdbcd7" y="274.849041"/>
     <use style="fill:#dbcd00;stroke:#dbcd00;" x="478.462565" xlink:href="#m4f0ccdbcd7" y="274.147545"/>
     <use style="fill:#dbcd00;stroke:#dbcd00;" x="483.460326" xlink:href="#m4f0ccdbcd7" y="273.095302"/>
     <use style="fill:#dbcd00;stroke:#dbcd00;" x="488.458087" xlink:href="#m4f0ccdbcd7" y="273.095302"/>
     <use style="fill:#dbcd00;stroke:#dbcd00;" x="498.453609" xlink:href="#m4f0ccdbcd7" y="272.393807"/>
     <use style="fill:#dbcd00;stroke:#dbcd00;" x="503.45137" xlink:href="#m4f0ccdbcd7" y="272.393807"/>
     <use style="fill:#dbcd00;stroke:#dbcd00;" x="508.449131" xlink:href="#m4f0ccdbcd7" y="272.393807"/>
     <use style="fill:#dbcd00;stroke:#dbcd00;" x="518.444652" xlink:href="#m4f0ccdbcd7" y="270.815442"/>
     <use style="fill:#dbcd00;stroke:#dbcd00;" x="523.442413" xlink:href="#m4f0ccdbcd7" y="270.815442"/>
     <use style="fill:#dbcd00;stroke:#dbcd00;" x="533.437935" xlink:href="#m4f0ccdbcd7" y="270.464694"/>
     <use style="fill:#dbcd00;stroke:#dbcd00;" x="543.433457" xlink:href="#m4f0ccdbcd7" y="268.535581"/>
     <use style="fill:#dbcd00;stroke:#dbcd00;" x="553.428978" xlink:href="#m4f0ccdbcd7" y="267.132591"/>
     <use style="fill:#dbcd00;stroke:#dbcd00;" x="558.426739" xlink:href="#m4f0ccdbcd7" y="267.132591"/>
     <use style="fill:#dbcd00;stroke:#dbcd00;" x="568.422261" xlink:href="#m4f0ccdbcd7" y="265.904973"/>
     <use style="fill:#dbcd00;stroke:#dbcd00;" x="573.420022" xlink:href="#m4f0ccdbcd7" y="265.554226"/>
     <use style="fill:#dbcd00;stroke:#dbcd00;" x="578.417783" xlink:href="#m4f0ccdbcd7" y="265.554226"/>
     <use style="fill:#dbcd00;stroke:#dbcd00;" x="583.415544" xlink:href="#m4f0ccdbcd7" y="264.501982"/>
     <use style="fill:#dbcd00;stroke:#dbcd00;" x="593.411065" xlink:href="#m4f0ccdbcd7" y="263.625113"/>
     <use style="fill:#dbcd00;stroke:#dbcd00;" x="603.406587" xlink:href="#m4f0ccdbcd7" y="263.098992"/>
     <use style="fill:#dbcd00;stroke:#dbcd00;" x="608.404348" xlink:href="#m4f0ccdbcd7" y="263.098992"/>
     <use style="fill:#dbcd00;stroke:#dbcd00;" x="613.402109" xlink:href="#m4f0ccdbcd7" y="261.345253"/>
     <use style="fill:#dbcd00;stroke:#dbcd00;" x="618.39987" xlink:href="#m4f0ccdbcd7" y="260.643757"/>
     <use style="fill:#dbcd00;stroke:#dbcd00;" x="623.39763" xlink:href="#m4f0ccdbcd7" y="259.41614"/>
     <use style="fill:#dbcd00;stroke:#dbcd00;" x="628.395391" xlink:href="#m4f0ccdbcd7" y="259.41614"/>
     <use style="fill:#dbcd00;stroke:#dbcd00;" x="638.390913" xlink:href="#m4f0ccdbcd7" y="256.785532"/>
     <use style="fill:#dbcd00;stroke:#dbcd00;" x="643.388674" xlink:href="#m4f0ccdbcd7" y="254.505672"/>
     <use style="fill:#dbcd00;stroke:#dbcd00;" x="648.386435" xlink:href="#m4f0ccdbcd7" y="254.154924"/>
     <use style="fill:#dbcd00;stroke:#dbcd00;" x="653.384196" xlink:href="#m4f0ccdbcd7" y="253.804176"/>
     <use style="fill:#dbcd00;stroke:#dbcd00;" x="658.381956" xlink:href="#m4f0ccdbcd7" y="251.524316"/>
     <use style="fill:#dbcd00;stroke:#dbcd00;" x="673.375239" xlink:href="#m4f0ccdbcd7" y="249.770577"/>
     <use style="fill:#dbcd00;stroke:#dbcd00;" x="678.373" xlink:href="#m4f0ccdbcd7" y="249.770577"/>
     <use style="fill:#dbcd00;stroke:#dbcd00;" x="683.370761" xlink:href="#m4f0ccdbcd7" y="246.789222"/>
     <use style="fill:#dbcd00;stroke:#dbcd00;" x="688.368522" xlink:href="#m4f0ccdbcd7" y="246.789222"/>
     <use style="fill:#dbcd00;stroke:#dbcd00;" x="693.366282" xlink:href="#m4f0ccdbcd7" y="245.561605"/>
     <use style="fill:#dbcd00;stroke:#dbcd00;" x="708.359565" xlink:href="#m4f0ccdbcd7" y="245.386231"/>
     <use style="fill:#dbcd00;stroke:#dbcd00;" x="713.357326" xlink:href="#m4f0ccdbcd7" y="244.860109"/>
     <use style="fill:#dbcd00;stroke:#dbcd00;" x="718.355087" xlink:href="#m4f0ccdbcd7" y="244.333988"/>
     <use style="fill:#dbcd00;stroke:#dbcd00;" x="723.352848" xlink:href="#m4f0ccdbcd7" y="243.98324"/>
     <use style="fill:#dbcd00;stroke:#dbcd00;" x="728.350608" xlink:href="#m4f0ccdbcd7" y="243.632492"/>
     <use style="fill:#dbcd00;stroke:#dbcd00;" x="743.343891" xlink:href="#m4f0ccdbcd7" y="242.229501"/>
     <use style="fill:#dbcd00;stroke:#dbcd00;" x="748.341652" xlink:href="#m4f0ccdbcd7" y="242.054127"/>
     <use style="fill:#dbcd00;stroke:#dbcd00;" x="753.339413" xlink:href="#m4f0ccdbcd7" y="241.177258"/>
     <use style="fill:#dbcd00;stroke:#dbcd00;" x="758.337174" xlink:href="#m4f0ccdbcd7" y="241.001884"/>
     <use style="fill:#dbcd00;stroke:#dbcd00;" x="763.334935" xlink:href="#m4f0ccdbcd7" y="240.651136"/>
     <use style="fill:#dbcd00;stroke:#dbcd00;" x="778.328217" xlink:href="#m4f0ccdbcd7" y="238.897398"/>
     <use style="fill:#dbcd00;stroke:#dbcd00;" x="783.325978" xlink:href="#m4f0ccdbcd7" y="237.66978"/>
     <use style="fill:#dbcd00;stroke:#dbcd00;" x="788.323739" xlink:href="#m4f0ccdbcd7" y="235.916042"/>
     <use style="fill:#dbcd00;stroke:#dbcd00;" x="793.3215" xlink:href="#m4f0ccdbcd7" y="233.986929"/>
     <use style="fill:#dbcd00;stroke:#dbcd00;" x="798.319261" xlink:href="#m4f0ccdbcd7" y="231.707069"/>
     <use style="fill:#dbcd00;stroke:#dbcd00;" x="813.312543" xlink:href="#m4f0ccdbcd7" y="228.901087"/>
     <use style="fill:#dbcd00;stroke:#dbcd00;" x="818.310304" xlink:href="#m4f0ccdbcd7" y="226.971974"/>
     <use style="fill:#dbcd00;stroke:#dbcd00;" x="823.308065" xlink:href="#m4f0ccdbcd7" y="223.990619"/>
     <use style="fill:#dbcd00;stroke:#dbcd00;" x="828.305826" xlink:href="#m4f0ccdbcd7" y="223.113749"/>
     <use style="fill:#dbcd00;stroke:#dbcd00;" x="833.303587" xlink:href="#m4f0ccdbcd7" y="221.535384"/>
     <use style="fill:#dbcd00;stroke:#dbcd00;" x="848.296869" xlink:href="#m4f0ccdbcd7" y="217.677159"/>
     <use style="fill:#dbcd00;stroke:#dbcd00;" x="853.29463" xlink:href="#m4f0ccdbcd7" y="215.046551"/>
     <use style="fill:#dbcd00;stroke:#dbcd00;" x="858.292391" xlink:href="#m4f0ccdbcd7" y="212.415943"/>
     <use style="fill:#dbcd00;stroke:#dbcd00;" x="863.290152" xlink:href="#m4f0ccdbcd7" y="211.889822"/>
     <use style="fill:#dbcd00;stroke:#dbcd00;" x="868.287913" xlink:href="#m4f0ccdbcd7" y="209.785335"/>
     <use style="fill:#dbcd00;stroke:#dbcd00;" x="883.281195" xlink:href="#m4f0ccdbcd7" y="203.296502"/>
     <use style="fill:#dbcd00;stroke:#dbcd00;" x="888.278956" xlink:href="#m4f0ccdbcd7" y="199.262903"/>
     <use style="fill:#dbcd00;stroke:#dbcd00;" x="893.276717" xlink:href="#m4f0ccdbcd7" y="198.035286"/>
     <use style="fill:#dbcd00;stroke:#dbcd00;" x="898.274478" xlink:href="#m4f0ccdbcd7" y="196.456921"/>
     <use style="fill:#dbcd00;stroke:#dbcd00;" x="903.272239" xlink:href="#m4f0ccdbcd7" y="192.423322"/>
     <use style="fill:#dbcd00;stroke:#dbcd00;" x="918.265521" xlink:href="#m4f0ccdbcd7" y="187.162106"/>
     <use style="fill:#dbcd00;stroke:#dbcd00;" x="923.263282" xlink:href="#m4f0ccdbcd7" y="185.934489"/>
     <use style="fill:#dbcd00;stroke:#dbcd00;" x="928.261043" xlink:href="#m4f0ccdbcd7" y="184.18075"/>
     <use style="fill:#dbcd00;stroke:#dbcd00;" x="933.258804" xlink:href="#m4f0ccdbcd7" y="181.550142"/>
     <use style="fill:#dbcd00;stroke:#dbcd00;" x="938.256565" xlink:href="#m4f0ccdbcd7" y="180.497899"/>
     <use style="fill:#dbcd00;stroke:#dbcd00;" x="953.249847" xlink:href="#m4f0ccdbcd7" y="178.74416"/>
     <use style="fill:#dbcd00;stroke:#dbcd00;" x="958.247608" xlink:href="#m4f0ccdbcd7" y="176.288926"/>
     <use style="fill:#dbcd00;stroke:#dbcd00;" x="963.245369" xlink:href="#m4f0ccdbcd7" y="172.781449"/>
     <use style="fill:#dbcd00;stroke:#dbcd00;" x="968.24313" xlink:href="#m4f0ccdbcd7" y="171.553832"/>
     <use style="fill:#dbcd00;stroke:#dbcd00;" x="973.240891" xlink:href="#m4f0ccdbcd7" y="170.150841"/>
     <use style="fill:#dbcd00;stroke:#dbcd00;" x="988.234173" xlink:href="#m4f0ccdbcd7" y="166.994111"/>
     <use style="fill:#dbcd00;stroke:#dbcd00;" x="993.231934" xlink:href="#m4f0ccdbcd7" y="164.188129"/>
     <use style="fill:#dbcd00;stroke:#dbcd00;" x="998.229695" xlink:href="#m4f0ccdbcd7" y="162.43439"/>
     <use style="fill:#dbcd00;stroke:#dbcd00;" x="1003.227456" xlink:href="#m4f0ccdbcd7" y="160.856026"/>
     <use style="fill:#dbcd00;stroke:#dbcd00;" x="1008.225217" xlink:href="#m4f0ccdbcd7" y="160.856026"/>
     <use style="fill:#dbcd00;stroke:#dbcd00;" x="1023.218499" xlink:href="#m4f0ccdbcd7" y="155.419436"/>
     <use style="fill:#dbcd00;stroke:#dbcd00;" x="1028.21626" xlink:href="#m4f0ccdbcd7" y="154.367192"/>
     <use style="fill:#dbcd00;stroke:#dbcd00;" x="1033.214021" xlink:href="#m4f0ccdbcd7" y="151.736584"/>
     <use style="fill:#dbcd00;stroke:#dbcd00;" x="1038.211782" xlink:href="#m4f0ccdbcd7" y="147.352238"/>
     <use style="fill:#dbcd00;stroke:#dbcd00;" x="1043.209543" xlink:href="#m4f0ccdbcd7" y="145.598499"/>
     <use style="fill:#dbcd00;stroke:#dbcd00;" x="1058.202825" xlink:href="#m4f0ccdbcd7" y="141.389526"/>
     <use style="fill:#dbcd00;stroke:#dbcd00;" x="1063.200586" xlink:href="#m4f0ccdbcd7" y="140.337283"/>
     <use style="fill:#dbcd00;stroke:#dbcd00;" x="1068.198347" xlink:href="#m4f0ccdbcd7" y="136.829806"/>
     <use style="fill:#dbcd00;stroke:#dbcd00;" x="1073.196108" xlink:href="#m4f0ccdbcd7" y="135.076067"/>
     <use style="fill:#dbcd00;stroke:#dbcd00;" x="1078.193869" xlink:href="#m4f0ccdbcd7" y="131.568589"/>
     <use style="fill:#dbcd00;stroke:#dbcd00;" x="1093.187151" xlink:href="#m4f0ccdbcd7" y="126.482747"/>
     <use style="fill:#dbcd00;stroke:#dbcd00;" x="1098.184912" xlink:href="#m4f0ccdbcd7" y="124.202887"/>
     <use style="fill:#dbcd00;stroke:#dbcd00;" x="1103.182673" xlink:href="#m4f0ccdbcd7" y="119.81854"/>
     <use style="fill:#dbcd00;stroke:#dbcd00;" x="1108.180434" xlink:href="#m4f0ccdbcd7" y="114.38195"/>
     <use style="fill:#dbcd00;stroke:#dbcd00;" x="1113.178195" xlink:href="#m4f0ccdbcd7" y="110.523725"/>
     <use style="fill:#dbcd00;stroke:#dbcd00;" x="1128.171477" xlink:href="#m4f0ccdbcd7" y="101.22891"/>
    </g>
   </g>
   <g id="line2d_65">
    <path clip-path="url(#pc5c84bac66)" d="M 113.626023 460.219221 
L 118.623784 455.308752 
L 123.621544 452.327397 
L 128.619305 447.94305 
L 133.617066 443.734077 
L 138.614827 444.260199 
L 143.612588 441.980338 
L 148.610349 439.525104 
L 153.60811 438.998983 
L 158.60587 436.193001 
L 163.603631 431.808654 
L 168.601392 433.562393 
L 178.596914 433.91314 
L 183.594675 436.543748 
L 188.592436 436.543748 
L 193.590196 437.595992 
L 198.587957 431.808654 
L 203.585718 436.368375 
L 213.58124 436.368375 
L 223.576762 435.491505 
L 228.574523 438.472861 
L 233.572283 434.088514 
L 238.570044 435.316131 
L 243.567805 432.510149 
L 253.563327 441.454217 
L 258.561088 436.543748 
L 263.558849 433.211645 
L 268.556609 432.510149 
L 273.55437 433.387019 
L 278.552131 433.737767 
L 288.547653 435.491505 
L 293.545414 434.965384 
L 298.543175 439.174356 
L 303.540935 441.804964 
L 313.536457 447.592302 
L 323.531979 448.118424 
L 328.52974 448.118424 
L 333.527501 450.573658 
L 338.525261 450.924406 
L 343.523022 451.450527 
L 348.520783 451.625901 
L 358.516305 449.170667 
L 363.514066 452.678144 
L 368.511827 452.502771 
L 373.509587 454.256509 
L 378.507348 453.028892 
L 383.505109 453.204266 
L 393.500631 454.256509 
L 398.498392 455.308752 
L 403.496153 458.991604 
L 413.491674 460.745342 
L 418.489435 463.551324 
L 428.484957 468.637167 
L 433.482718 471.618522 
L 443.478239 476.879738 
L 448.476 478.107355 
L 468.467044 478.458103 
L 473.464805 478.984225 
L 478.462565 478.107355 
L 483.460326 478.808851 
L 488.458087 477.931982 
L 498.453609 478.282729 
L 503.45137 477.230486 
L 508.449131 476.704365 
L 518.444652 479.159599 
L 523.442413 478.633477 
L 533.437935 478.107355 
L 543.433457 480.036468 
L 553.428978 480.387216 
L 558.426739 479.159599 
L 573.420022 477.931982 
L 578.417783 477.055112 
L 583.415544 477.40586 
L 603.406587 473.547635 
L 608.404348 473.547635 
L 613.402109 473.723009 
L 618.39987 472.846139 
L 623.39763 474.073756 
L 628.395391 471.793896 
L 638.390913 473.898383 
L 643.388674 476.002869 
L 648.386435 476.002869 
L 653.384196 475.652121 
L 658.381956 477.230486 
L 673.375239 478.458103 
L 678.373 478.282729 
L 683.370761 480.913337 
L 688.368522 480.387216 
L 708.359565 479.68572 
L 713.357326 479.861094 
L 718.355087 479.861094 
L 723.352848 479.68572 
L 728.350608 479.159599 
L 743.343891 476.002869 
L 748.341652 475.301374 
L 753.339413 474.950626 
L 758.337174 471.267775 
L 763.334935 470.566279 
L 778.328217 470.040157 
L 783.325978 469.68941 
L 788.323739 468.461793 
L 793.3215 468.81254 
L 798.319261 470.040157 
L 813.312543 467.584923 
L 818.310304 468.637167 
L 823.308065 470.215531 
L 828.305826 464.428194 
L 833.303587 463.551324 
L 848.296869 461.622212 
L 858.292391 461.972959 
L 863.290152 460.745342 
L 868.287913 460.043847 
L 883.281195 462.499081 
L 888.278956 464.954315 
L 893.276717 465.129689 
L 898.274478 464.778941 
L 903.272239 465.831185 
L 918.265521 470.040157 
L 923.263282 467.760297 
L 933.258804 470.215531 
L 953.249847 467.409549 
L 958.247608 468.111045 
L 963.245369 470.215531 
L 968.24313 469.864784 
L 988.234173 470.566279 
L 993.231934 468.987914 
L 998.229695 468.286419 
L 1003.227456 467.760297 
L 1008.225217 463.726698 
L 1023.218499 462.849829 
L 1028.21626 463.025203 
L 1033.214021 463.551324 
L 1038.211782 464.954315 
L 1043.209543 462.674455 
L 1058.202825 457.763987 
L 1063.200586 454.256509 
L 1068.198347 454.607257 
L 1073.196108 450.924406 
L 1078.193869 448.819919 
L 1093.187151 443.032582 
L 1098.184912 440.752721 
L 1103.182673 440.928095 
L 1108.180434 436.719122 
L 1113.178195 436.894496 
L 1128.171477 399.89061 
L 1128.171477 399.89061 
" style="fill:none;stroke:#2792cb;stroke-linecap:square;stroke-width:2;"/>
    <defs>
     <path d="M 0 1.5 
C 0.397805 1.5 0.77937 1.341951 1.06066 1.06066 
C 1.341951 0.77937 1.5 0.397805 1.5 0 
C 1.5 -0.397805 1.341951 -0.77937 1.06066 -1.06066 
C 0.77937 -1.341951 0.397805 -1.5 0 -1.5 
C -0.397805 -1.5 -0.77937 -1.341951 -1.06066 -1.06066 
C -1.341951 -0.77937 -1.5 -0.397805 -1.5 0 
C -1.5 0.397805 -1.341951 0.77937 -1.06066 1.06066 
C -0.77937 1.341951 -0.397805 1.5 0 1.5 
z
" id="m29b3f92c1e" style="stroke:#2792cb;"/>
    </defs>
    <g clip-path="url(#pc5c84bac66)">
     <use style="fill:#2792cb;stroke:#2792cb;" x="113.626023" xlink:href="#m29b3f92c1e" y="460.219221"/>
     <use style="fill:#2792cb;stroke:#2792cb;" x="118.623784" xlink:href="#m29b3f92c1e" y="455.308752"/>
     <use style="fill:#2792cb;stroke:#2792cb;" x="123.621544" xlink:href="#m29b3f92c1e" y="452.327397"/>
     <use style="fill:#2792cb;stroke:#2792cb;" x="128.619305" xlink:href="#m29b3f92c1e" y="447.94305"/>
     <use style="fill:#2792cb;stroke:#2792cb;" x="133.617066" xlink:href="#m29b3f92c1e" y="443.734077"/>
     <use style="fill:#2792cb;stroke:#2792cb;" x="138.614827" xlink:href="#m29b3f92c1e" y="444.260199"/>
     <use style="fill:#2792cb;stroke:#2792cb;" x="143.612588" xlink:href="#m29b3f92c1e" y="441.980338"/>
     <use style="fill:#2792cb;stroke:#2792cb;" x="148.610349" xlink:href="#m29b3f92c1e" y="439.525104"/>
     <use style="fill:#2792cb;stroke:#2792cb;" x="153.60811" xlink:href="#m29b3f92c1e" y="438.998983"/>
     <use style="fill:#2792cb;stroke:#2792cb;" x="158.60587" xlink:href="#m29b3f92c1e" y="436.193001"/>
     <use style="fill:#2792cb;stroke:#2792cb;" x="163.603631" xlink:href="#m29b3f92c1e" y="431.808654"/>
     <use style="fill:#2792cb;stroke:#2792cb;" x="168.601392" xlink:href="#m29b3f92c1e" y="433.562393"/>
     <use style="fill:#2792cb;stroke:#2792cb;" x="173.599153" xlink:href="#m29b3f92c1e" y="433.737767"/>
     <use style="fill:#2792cb;stroke:#2792cb;" x="178.596914" xlink:href="#m29b3f92c1e" y="433.91314"/>
     <use style="fill:#2792cb;stroke:#2792cb;" x="183.594675" xlink:href="#m29b3f92c1e" y="436.543748"/>
     <use style="fill:#2792cb;stroke:#2792cb;" x="188.592436" xlink:href="#m29b3f92c1e" y="436.543748"/>
     <use style="fill:#2792cb;stroke:#2792cb;" x="193.590196" xlink:href="#m29b3f92c1e" y="437.595992"/>
     <use style="fill:#2792cb;stroke:#2792cb;" x="198.587957" xlink:href="#m29b3f92c1e" y="431.808654"/>
     <use style="fill:#2792cb;stroke:#2792cb;" x="203.585718" xlink:href="#m29b3f92c1e" y="436.368375"/>
     <use style="fill:#2792cb;stroke:#2792cb;" x="213.58124" xlink:href="#m29b3f92c1e" y="436.368375"/>
     <use style="fill:#2792cb;stroke:#2792cb;" x="223.576762" xlink:href="#m29b3f92c1e" y="435.491505"/>
     <use style="fill:#2792cb;stroke:#2792cb;" x="228.574523" xlink:href="#m29b3f92c1e" y="438.472861"/>
     <use style="fill:#2792cb;stroke:#2792cb;" x="233.572283" xlink:href="#m29b3f92c1e" y="434.088514"/>
     <use style="fill:#2792cb;stroke:#2792cb;" x="238.570044" xlink:href="#m29b3f92c1e" y="435.316131"/>
     <use style="fill:#2792cb;stroke:#2792cb;" x="243.567805" xlink:href="#m29b3f92c1e" y="432.510149"/>
     <use style="fill:#2792cb;stroke:#2792cb;" x="253.563327" xlink:href="#m29b3f92c1e" y="441.454217"/>
     <use style="fill:#2792cb;stroke:#2792cb;" x="258.561088" xlink:href="#m29b3f92c1e" y="436.543748"/>
     <use style="fill:#2792cb;stroke:#2792cb;" x="263.558849" xlink:href="#m29b3f92c1e" y="433.211645"/>
     <use style="fill:#2792cb;stroke:#2792cb;" x="268.556609" xlink:href="#m29b3f92c1e" y="432.510149"/>
     <use style="fill:#2792cb;stroke:#2792cb;" x="273.55437" xlink:href="#m29b3f92c1e" y="433.387019"/>
     <use style="fill:#2792cb;stroke:#2792cb;" x="278.552131" xlink:href="#m29b3f92c1e" y="433.737767"/>
     <use style="fill:#2792cb;stroke:#2792cb;" x="288.547653" xlink:href="#m29b3f92c1e" y="435.491505"/>
     <use style="fill:#2792cb;stroke:#2792cb;" x="293.545414" xlink:href="#m29b3f92c1e" y="434.965384"/>
     <use style="fill:#2792cb;stroke:#2792cb;" x="298.543175" xlink:href="#m29b3f92c1e" y="439.174356"/>
     <use style="fill:#2792cb;stroke:#2792cb;" x="303.540935" xlink:href="#m29b3f92c1e" y="441.804964"/>
     <use style="fill:#2792cb;stroke:#2792cb;" x="313.536457" xlink:href="#m29b3f92c1e" y="447.592302"/>
     <use style="fill:#2792cb;stroke:#2792cb;" x="323.531979" xlink:href="#m29b3f92c1e" y="448.118424"/>
     <use style="fill:#2792cb;stroke:#2792cb;" x="328.52974" xlink:href="#m29b3f92c1e" y="448.118424"/>
     <use style="fill:#2792cb;stroke:#2792cb;" x="333.527501" xlink:href="#m29b3f92c1e" y="450.573658"/>
     <use style="fill:#2792cb;stroke:#2792cb;" x="338.525261" xlink:href="#m29b3f92c1e" y="450.924406"/>
     <use style="fill:#2792cb;stroke:#2792cb;" x="343.523022" xlink:href="#m29b3f92c1e" y="451.450527"/>
     <use style="fill:#2792cb;stroke:#2792cb;" x="348.520783" xlink:href="#m29b3f92c1e" y="451.625901"/>
     <use style="fill:#2792cb;stroke:#2792cb;" x="358.516305" xlink:href="#m29b3f92c1e" y="449.170667"/>
     <use style="fill:#2792cb;stroke:#2792cb;" x="363.514066" xlink:href="#m29b3f92c1e" y="452.678144"/>
     <use style="fill:#2792cb;stroke:#2792cb;" x="368.511827" xlink:href="#m29b3f92c1e" y="452.502771"/>
     <use style="fill:#2792cb;stroke:#2792cb;" x="373.509587" xlink:href="#m29b3f92c1e" y="454.256509"/>
     <use style="fill:#2792cb;stroke:#2792cb;" x="378.507348" xlink:href="#m29b3f92c1e" y="453.028892"/>
     <use style="fill:#2792cb;stroke:#2792cb;" x="383.505109" xlink:href="#m29b3f92c1e" y="453.204266"/>
     <use style="fill:#2792cb;stroke:#2792cb;" x="393.500631" xlink:href="#m29b3f92c1e" y="454.256509"/>
     <use style="fill:#2792cb;stroke:#2792cb;" x="398.498392" xlink:href="#m29b3f92c1e" y="455.308752"/>
     <use style="fill:#2792cb;stroke:#2792cb;" x="403.496153" xlink:href="#m29b3f92c1e" y="458.991604"/>
     <use style="fill:#2792cb;stroke:#2792cb;" x="413.491674" xlink:href="#m29b3f92c1e" y="460.745342"/>
     <use style="fill:#2792cb;stroke:#2792cb;" x="418.489435" xlink:href="#m29b3f92c1e" y="463.551324"/>
     <use style="fill:#2792cb;stroke:#2792cb;" x="428.484957" xlink:href="#m29b3f92c1e" y="468.637167"/>
     <use style="fill:#2792cb;stroke:#2792cb;" x="433.482718" xlink:href="#m29b3f92c1e" y="471.618522"/>
     <use style="fill:#2792cb;stroke:#2792cb;" x="443.478239" xlink:href="#m29b3f92c1e" y="476.879738"/>
     <use style="fill:#2792cb;stroke:#2792cb;" x="448.476" xlink:href="#m29b3f92c1e" y="478.107355"/>
     <use style="fill:#2792cb;stroke:#2792cb;" x="468.467044" xlink:href="#m29b3f92c1e" y="478.458103"/>
     <use style="fill:#2792cb;stroke:#2792cb;" x="473.464805" xlink:href="#m29b3f92c1e" y="478.984225"/>
     <use style="fill:#2792cb;stroke:#2792cb;" x="478.462565" xlink:href="#m29b3f92c1e" y="478.107355"/>
     <use style="fill:#2792cb;stroke:#2792cb;" x="483.460326" xlink:href="#m29b3f92c1e" y="478.808851"/>
     <use style="fill:#2792cb;stroke:#2792cb;" x="488.458087" xlink:href="#m29b3f92c1e" y="477.931982"/>
     <use style="fill:#2792cb;stroke:#2792cb;" x="498.453609" xlink:href="#m29b3f92c1e" y="478.282729"/>
     <use style="fill:#2792cb;stroke:#2792cb;" x="503.45137" xlink:href="#m29b3f92c1e" y="477.230486"/>
     <use style="fill:#2792cb;stroke:#2792cb;" x="508.449131" xlink:href="#m29b3f92c1e" y="476.704365"/>
     <use style="fill:#2792cb;stroke:#2792cb;" x="518.444652" xlink:href="#m29b3f92c1e" y="479.159599"/>
     <use style="fill:#2792cb;stroke:#2792cb;" x="523.442413" xlink:href="#m29b3f92c1e" y="478.633477"/>
     <use style="fill:#2792cb;stroke:#2792cb;" x="533.437935" xlink:href="#m29b3f92c1e" y="478.107355"/>
     <use style="fill:#2792cb;stroke:#2792cb;" x="543.433457" xlink:href="#m29b3f92c1e" y="480.036468"/>
     <use style="fill:#2792cb;stroke:#2792cb;" x="553.428978" xlink:href="#m29b3f92c1e" y="480.387216"/>
     <use style="fill:#2792cb;stroke:#2792cb;" x="558.426739" xlink:href="#m29b3f92c1e" y="479.159599"/>
     <use style="fill:#2792cb;stroke:#2792cb;" x="568.422261" xlink:href="#m29b3f92c1e" y="478.282729"/>
     <use style="fill:#2792cb;stroke:#2792cb;" x="573.420022" xlink:href="#m29b3f92c1e" y="477.931982"/>
     <use style="fill:#2792cb;stroke:#2792cb;" x="578.417783" xlink:href="#m29b3f92c1e" y="477.055112"/>
     <use style="fill:#2792cb;stroke:#2792cb;" x="583.415544" xlink:href="#m29b3f92c1e" y="477.40586"/>
     <use style="fill:#2792cb;stroke:#2792cb;" x="593.411065" xlink:href="#m29b3f92c1e" y="475.476747"/>
     <use style="fill:#2792cb;stroke:#2792cb;" x="603.406587" xlink:href="#m29b3f92c1e" y="473.547635"/>
     <use style="fill:#2792cb;stroke:#2792cb;" x="608.404348" xlink:href="#m29b3f92c1e" y="473.547635"/>
     <use style="fill:#2792cb;stroke:#2792cb;" x="613.402109" xlink:href="#m29b3f92c1e" y="473.723009"/>
     <use style="fill:#2792cb;stroke:#2792cb;" x="618.39987" xlink:href="#m29b3f92c1e" y="472.846139"/>
     <use style="fill:#2792cb;stroke:#2792cb;" x="623.39763" xlink:href="#m29b3f92c1e" y="474.073756"/>
     <use style="fill:#2792cb;stroke:#2792cb;" x="628.395391" xlink:href="#m29b3f92c1e" y="471.793896"/>
     <use style="fill:#2792cb;stroke:#2792cb;" x="638.390913" xlink:href="#m29b3f92c1e" y="473.898383"/>
     <use style="fill:#2792cb;stroke:#2792cb;" x="643.388674" xlink:href="#m29b3f92c1e" y="476.002869"/>
     <use style="fill:#2792cb;stroke:#2792cb;" x="648.386435" xlink:href="#m29b3f92c1e" y="476.002869"/>
     <use style="fill:#2792cb;stroke:#2792cb;" x="653.384196" xlink:href="#m29b3f92c1e" y="475.652121"/>
     <use style="fill:#2792cb;stroke:#2792cb;" x="658.381956" xlink:href="#m29b3f92c1e" y="477.230486"/>
     <use style="fill:#2792cb;stroke:#2792cb;" x="673.375239" xlink:href="#m29b3f92c1e" y="478.458103"/>
     <use style="fill:#2792cb;stroke:#2792cb;" x="678.373" xlink:href="#m29b3f92c1e" y="478.282729"/>
     <use style="fill:#2792cb;stroke:#2792cb;" x="683.370761" xlink:href="#m29b3f92c1e" y="480.913337"/>
     <use style="fill:#2792cb;stroke:#2792cb;" x="688.368522" xlink:href="#m29b3f92c1e" y="480.387216"/>
     <use style="fill:#2792cb;stroke:#2792cb;" x="693.366282" xlink:href="#m29b3f92c1e" y="480.211842"/>
     <use style="fill:#2792cb;stroke:#2792cb;" x="708.359565" xlink:href="#m29b3f92c1e" y="479.68572"/>
     <use style="fill:#2792cb;stroke:#2792cb;" x="713.357326" xlink:href="#m29b3f92c1e" y="479.861094"/>
     <use style="fill:#2792cb;stroke:#2792cb;" x="718.355087" xlink:href="#m29b3f92c1e" y="479.861094"/>
     <use style="fill:#2792cb;stroke:#2792cb;" x="723.352848" xlink:href="#m29b3f92c1e" y="479.68572"/>
     <use style="fill:#2792cb;stroke:#2792cb;" x="728.350608" xlink:href="#m29b3f92c1e" y="479.159599"/>
     <use style="fill:#2792cb;stroke:#2792cb;" x="743.343891" xlink:href="#m29b3f92c1e" y="476.002869"/>
     <use style="fill:#2792cb;stroke:#2792cb;" x="748.341652" xlink:href="#m29b3f92c1e" y="475.301374"/>
     <use style="fill:#2792cb;stroke:#2792cb;" x="753.339413" xlink:href="#m29b3f92c1e" y="474.950626"/>
     <use style="fill:#2792cb;stroke:#2792cb;" x="758.337174" xlink:href="#m29b3f92c1e" y="471.267775"/>
     <use style="fill:#2792cb;stroke:#2792cb;" x="763.334935" xlink:href="#m29b3f92c1e" y="470.566279"/>
     <use style="fill:#2792cb;stroke:#2792cb;" x="778.328217" xlink:href="#m29b3f92c1e" y="470.040157"/>
     <use style="fill:#2792cb;stroke:#2792cb;" x="783.325978" xlink:href="#m29b3f92c1e" y="469.68941"/>
     <use style="fill:#2792cb;stroke:#2792cb;" x="788.323739" xlink:href="#m29b3f92c1e" y="468.461793"/>
     <use style="fill:#2792cb;stroke:#2792cb;" x="793.3215" xlink:href="#m29b3f92c1e" y="468.81254"/>
     <use style="fill:#2792cb;stroke:#2792cb;" x="798.319261" xlink:href="#m29b3f92c1e" y="470.040157"/>
     <use style="fill:#2792cb;stroke:#2792cb;" x="813.312543" xlink:href="#m29b3f92c1e" y="467.584923"/>
     <use style="fill:#2792cb;stroke:#2792cb;" x="818.310304" xlink:href="#m29b3f92c1e" y="468.637167"/>
     <use style="fill:#2792cb;stroke:#2792cb;" x="823.308065" xlink:href="#m29b3f92c1e" y="470.215531"/>
     <use style="fill:#2792cb;stroke:#2792cb;" x="828.305826" xlink:href="#m29b3f92c1e" y="464.428194"/>
     <use style="fill:#2792cb;stroke:#2792cb;" x="833.303587" xlink:href="#m29b3f92c1e" y="463.551324"/>
     <use style="fill:#2792cb;stroke:#2792cb;" x="848.296869" xlink:href="#m29b3f92c1e" y="461.622212"/>
     <use style="fill:#2792cb;stroke:#2792cb;" x="853.29463" xlink:href="#m29b3f92c1e" y="461.797586"/>
     <use style="fill:#2792cb;stroke:#2792cb;" x="858.292391" xlink:href="#m29b3f92c1e" y="461.972959"/>
     <use style="fill:#2792cb;stroke:#2792cb;" x="863.290152" xlink:href="#m29b3f92c1e" y="460.745342"/>
     <use style="fill:#2792cb;stroke:#2792cb;" x="868.287913" xlink:href="#m29b3f92c1e" y="460.043847"/>
     <use style="fill:#2792cb;stroke:#2792cb;" x="883.281195" xlink:href="#m29b3f92c1e" y="462.499081"/>
     <use style="fill:#2792cb;stroke:#2792cb;" x="888.278956" xlink:href="#m29b3f92c1e" y="464.954315"/>
     <use style="fill:#2792cb;stroke:#2792cb;" x="893.276717" xlink:href="#m29b3f92c1e" y="465.129689"/>
     <use style="fill:#2792cb;stroke:#2792cb;" x="898.274478" xlink:href="#m29b3f92c1e" y="464.778941"/>
     <use style="fill:#2792cb;stroke:#2792cb;" x="903.272239" xlink:href="#m29b3f92c1e" y="465.831185"/>
     <use style="fill:#2792cb;stroke:#2792cb;" x="918.265521" xlink:href="#m29b3f92c1e" y="470.040157"/>
     <use style="fill:#2792cb;stroke:#2792cb;" x="923.263282" xlink:href="#m29b3f92c1e" y="467.760297"/>
     <use style="fill:#2792cb;stroke:#2792cb;" x="928.261043" xlink:href="#m29b3f92c1e" y="468.987914"/>
     <use style="fill:#2792cb;stroke:#2792cb;" x="933.258804" xlink:href="#m29b3f92c1e" y="470.215531"/>
     <use style="fill:#2792cb;stroke:#2792cb;" x="938.256565" xlink:href="#m29b3f92c1e" y="469.514036"/>
     <use style="fill:#2792cb;stroke:#2792cb;" x="953.249847" xlink:href="#m29b3f92c1e" y="467.409549"/>
     <use style="fill:#2792cb;stroke:#2792cb;" x="958.247608" xlink:href="#m29b3f92c1e" y="468.111045"/>
     <use style="fill:#2792cb;stroke:#2792cb;" x="963.245369" xlink:href="#m29b3f92c1e" y="470.215531"/>
     <use style="fill:#2792cb;stroke:#2792cb;" x="968.24313" xlink:href="#m29b3f92c1e" y="469.864784"/>
     <use style="fill:#2792cb;stroke:#2792cb;" x="973.240891" xlink:href="#m29b3f92c1e" y="470.040157"/>
     <use style="fill:#2792cb;stroke:#2792cb;" x="988.234173" xlink:href="#m29b3f92c1e" y="470.566279"/>
     <use style="fill:#2792cb;stroke:#2792cb;" x="993.231934" xlink:href="#m29b3f92c1e" y="468.987914"/>
     <use style="fill:#2792cb;stroke:#2792cb;" x="998.229695" xlink:href="#m29b3f92c1e" y="468.286419"/>
     <use style="fill:#2792cb;stroke:#2792cb;" x="1003.227456" xlink:href="#m29b3f92c1e" y="467.760297"/>
     <use style="fill:#2792cb;stroke:#2792cb;" x="1008.225217" xlink:href="#m29b3f92c1e" y="463.726698"/>
     <use style="fill:#2792cb;stroke:#2792cb;" x="1023.218499" xlink:href="#m29b3f92c1e" y="462.849829"/>
     <use style="fill:#2792cb;stroke:#2792cb;" x="1028.21626" xlink:href="#m29b3f92c1e" y="463.025203"/>
     <use style="fill:#2792cb;stroke:#2792cb;" x="1033.214021" xlink:href="#m29b3f92c1e" y="463.551324"/>
     <use style="fill:#2792cb;stroke:#2792cb;" x="1038.211782" xlink:href="#m29b3f92c1e" y="464.954315"/>
     <use style="fill:#2792cb;stroke:#2792cb;" x="1043.209543" xlink:href="#m29b3f92c1e" y="462.674455"/>
     <use style="fill:#2792cb;stroke:#2792cb;" x="1058.202825" xlink:href="#m29b3f92c1e" y="457.763987"/>
     <use style="fill:#2792cb;stroke:#2792cb;" x="1063.200586" xlink:href="#m29b3f92c1e" y="454.256509"/>
     <use style="fill:#2792cb;stroke:#2792cb;" x="1068.198347" xlink:href="#m29b3f92c1e" y="454.607257"/>
     <use style="fill:#2792cb;stroke:#2792cb;" x="1073.196108" xlink:href="#m29b3f92c1e" y="450.924406"/>
     <use style="fill:#2792cb;stroke:#2792cb;" x="1078.193869" xlink:href="#m29b3f92c1e" y="448.819919"/>
     <use style="fill:#2792cb;stroke:#2792cb;" x="1093.187151" xlink:href="#m29b3f92c1e" y="443.032582"/>
     <use style="fill:#2792cb;stroke:#2792cb;" x="1098.184912" xlink:href="#m29b3f92c1e" y="440.752721"/>
     <use style="fill:#2792cb;stroke:#2792cb;" x="1103.182673" xlink:href="#m29b3f92c1e" y="440.928095"/>
     <use style="fill:#2792cb;stroke:#2792cb;" x="1108.180434" xlink:href="#m29b3f92c1e" y="436.719122"/>
     <use style="fill:#2792cb;stroke:#2792cb;" x="1113.178195" xlink:href="#m29b3f92c1e" y="436.894496"/>
     <use style="fill:#2792cb;stroke:#2792cb;" x="1128.171477" xlink:href="#m29b3f92c1e" y="399.89061"/>
    </g>
   </g>
   <g id="patch_3">
    <path d="M 62.89875 501.738984 
L 1178.89875 501.738984 
" style="fill:none;stroke:#000000;stroke-linecap:square;stroke-linejoin:miter;stroke-width:0.8;"/>
   </g>
   <g id="legend_1">
    <g id="line2d_66">
     <path d="M 1091.653438 25.237422 
L 1111.653438 25.237422 
" style="fill:none;stroke:#dbcd00;stroke-linecap:square;stroke-width:2;"/>
    </g>
    <g id="line2d_67">
     <g>
      <use style="fill:#dbcd00;stroke:#dbcd00;" x="1101.653438" xlink:href="#m4f0ccdbcd7" y="25.237422"/>
     </g>
    </g>
    <g id="text_37">
     <!-- Genesene -->
     <defs>
      <path d="M 59.515625 10.40625 
L 59.515625 29.984375 
L 43.40625 29.984375 
L 43.40625 38.09375 
L 69.28125 38.09375 
L 69.28125 6.78125 
Q 63.578125 2.734375 56.6875 0.65625 
Q 49.8125 -1.421875 42 -1.421875 
Q 24.90625 -1.421875 15.25 8.5625 
Q 5.609375 18.5625 5.609375 36.375 
Q 5.609375 54.25 15.25 64.234375 
Q 24.90625 74.21875 42 74.21875 
Q 49.125 74.21875 55.546875 72.453125 
Q 61.96875 70.703125 67.390625 67.28125 
L 67.390625 56.78125 
Q 61.921875 61.421875 55.765625 63.765625 
Q 49.609375 66.109375 42.828125 66.109375 
Q 29.4375 66.109375 22.71875 58.640625 
Q 16.015625 51.171875 16.015625 36.375 
Q 16.015625 21.625 22.71875 14.15625 
Q 29.4375 6.6875 42.828125 6.6875 
Q 48.046875 6.6875 52.140625 7.59375 
Q 56.25 8.5 59.515625 10.40625 
z
" id="DejaVuSans-71"/>
      <path d="M 44.28125 53.078125 
L 44.28125 44.578125 
Q 40.484375 46.53125 36.375 47.5 
Q 32.28125 48.484375 27.875 48.484375 
Q 21.1875 48.484375 17.84375 46.4375 
Q 14.5 44.390625 14.5 40.28125 
Q 14.5 37.15625 16.890625 35.375 
Q 19.28125 33.59375 26.515625 31.984375 
L 29.59375 31.296875 
Q 39.15625 29.25 43.1875 25.515625 
Q 47.21875 21.78125 47.21875 15.09375 
Q 47.21875 7.46875 41.1875 3.015625 
Q 35.15625 -1.421875 24.609375 -1.421875 
Q 20.21875 -1.421875 15.453125 -0.5625 
Q 10.6875 0.296875 5.421875 2 
L 5.421875 11.28125 
Q 10.40625 8.6875 15.234375 7.390625 
Q 20.0625 6.109375 24.8125 6.109375 
Q 31.15625 6.109375 34.5625 8.28125 
Q 37.984375 10.453125 37.984375 14.40625 
Q 37.984375 18.0625 35.515625 20.015625 
Q 33.0625 21.96875 24.703125 23.78125 
L 21.578125 24.515625 
Q 13.234375 26.265625 9.515625 29.90625 
Q 5.8125 33.546875 5.8125 39.890625 
Q 5.8125 47.609375 11.28125 51.796875 
Q 16.75 56 26.8125 56 
Q 31.78125 56 36.171875 55.265625 
Q 40.578125 54.546875 44.28125 53.078125 
z
" id="DejaVuSans-115"/>
     </defs>
     <g transform="translate(1119.653438 28.737422)scale(0.1 -0.1)">
      <use xlink:href="#DejaVuSans-71"/>
      <use x="77.490234" xlink:href="#DejaVuSans-101"/>
      <use x="139.013672" xlink:href="#DejaVuSans-110"/>
      <use x="202.392578" xlink:href="#DejaVuSans-101"/>
      <use x="263.916016" xlink:href="#DejaVuSans-115"/>
      <use x="316.015625" xlink:href="#DejaVuSans-101"/>
      <use x="377.539062" xlink:href="#DejaVuSans-110"/>
      <use x="440.917969" xlink:href="#DejaVuSans-101"/>
     </g>
    </g>
    <g id="line2d_68">
     <path d="M 1091.653438 39.915547 
L 1111.653438 39.915547 
" style="fill:none;stroke:#2792cb;stroke-linecap:square;stroke-width:2;"/>
    </g>
    <g id="line2d_69">
     <g>
      <use style="fill:#2792cb;stroke:#2792cb;" x="1101.653438" xlink:href="#m29b3f92c1e" y="39.915547"/>
     </g>
    </g>
    <g id="text_38">
     <!-- Erkrankte -->
     <defs>
      <path d="M 9.8125 72.90625 
L 55.90625 72.90625 
L 55.90625 64.59375 
L 19.671875 64.59375 
L 19.671875 43.015625 
L 54.390625 43.015625 
L 54.390625 34.71875 
L 19.671875 34.71875 
L 19.671875 8.296875 
L 56.78125 8.296875 
L 56.78125 0 
L 9.8125 0 
z
" id="DejaVuSans-69"/>
      <path d="M 41.109375 46.296875 
Q 39.59375 47.171875 37.8125 47.578125 
Q 36.03125 48 33.890625 48 
Q 26.265625 48 22.1875 43.046875 
Q 18.109375 38.09375 18.109375 28.8125 
L 18.109375 0 
L 9.078125 0 
L 9.078125 54.6875 
L 18.109375 54.6875 
L 18.109375 46.1875 
Q 20.953125 51.171875 25.484375 53.578125 
Q 30.03125 56 36.53125 56 
Q 37.453125 56 38.578125 55.875 
Q 39.703125 55.765625 41.0625 55.515625 
z
" id="DejaVuSans-114"/>
      <path d="M 9.078125 75.984375 
L 18.109375 75.984375 
L 18.109375 31.109375 
L 44.921875 54.6875 
L 56.390625 54.6875 
L 27.390625 29.109375 
L 57.625 0 
L 45.90625 0 
L 18.109375 26.703125 
L 18.109375 0 
L 9.078125 0 
z
" id="DejaVuSans-107"/>
      <path d="M 18.3125 70.21875 
L 18.3125 54.6875 
L 36.8125 54.6875 
L 36.8125 47.703125 
L 18.3125 47.703125 
L 18.3125 18.015625 
Q 18.3125 11.328125 20.140625 9.421875 
Q 21.96875 7.515625 27.59375 7.515625 
L 36.8125 7.515625 
L 36.8125 0 
L 27.59375 0 
Q 17.1875 0 13.234375 3.875 
Q 9.28125 7.765625 9.28125 18.015625 
L 9.28125 47.703125 
L 2.6875 47.703125 
L 2.6875 54.6875 
L 9.28125 54.6875 
L 9.28125 70.21875 
z
" id="DejaVuSans-116"/>
     </defs>
     <g transform="translate(1119.653438 43.415547)scale(0.1 -0.1)">
      <use xlink:href="#DejaVuSans-69"/>
      <use x="63.183594" xlink:href="#DejaVuSans-114"/>
      <use x="104.296875" xlink:href="#DejaVuSans-107"/>
      <use x="162.207031" xlink:href="#DejaVuSans-114"/>
      <use x="203.320312" xlink:href="#DejaVuSans-97"/>
      <use x="264.599609" xlink:href="#DejaVuSans-110"/>
      <use x="327.978516" xlink:href="#DejaVuSans-107"/>
      <use x="385.888672" xlink:href="#DejaVuSans-116"/>
      <use x="425.097656" xlink:href="#DejaVuSans-101"/>
     </g>
    </g>
   </g>
  </g>
 </g>
 <defs>
  <clipPath id="pc5c84bac66">
   <rect height="489.6" width="1116" x="62.89875" y="12.138984"/>
  </clipPath>
 </defs>
</svg>
