<?xml version="1.0" encoding="utf-8" standalone="no"?>
<!DOCTYPE svg PUBLIC "-//W3C//DTD SVG 1.1//EN"
  "http://www.w3.org/Graphics/SVG/1.1/DTD/svg11.dtd">
<!-- Created with matplotlib (https://matplotlib.org/) -->
<svg height="564.610093pt" version="1.1" viewBox="0 0 1177.8275 564.610093" width="1177.8275pt" xmlns="http://www.w3.org/2000/svg" xmlns:xlink="http://www.w3.org/1999/xlink">
 <defs>
  <style type="text/css">
*{stroke-linecap:butt;stroke-linejoin:round;}
  </style>
 </defs>
 <g id="figure_1">
  <g id="patch_1">
   <path d="M 0 564.610093 
L 1177.8275 564.610093 
L 1177.8275 0 
L 0 0 
z
" style="fill:#ffffff;"/>
  </g>
  <g id="axes_1">
   <g id="patch_2">
    <path d="M 54.6275 501.738984 
L 1170.6275 501.738984 
L 1170.6275 12.138984 
L 54.6275 12.138984 
z
" style="fill:#ffffff;"/>
   </g>
   <g id="matplotlib.axis_1">
    <g id="xtick_1">
     <g id="line2d_1">
      <defs>
       <path d="M 0 0 
L 0 3.5 
" id="m40a05201c7" style="stroke:#000000;stroke-width:0.8;"/>
      </defs>
      <g>
       <use style="stroke:#000000;stroke-width:0.8;" x="116.75416" xlink:href="#m40a05201c7" y="501.738984"/>
      </g>
     </g>
     <g id="text_1">
      <!-- 2020-03-01 -->
      <defs>
       <path d="M 19.1875 8.296875 
L 53.609375 8.296875 
L 53.609375 0 
L 7.328125 0 
L 7.328125 8.296875 
Q 12.9375 14.109375 22.625 23.890625 
Q 32.328125 33.6875 34.8125 36.53125 
Q 39.546875 41.84375 41.421875 45.53125 
Q 43.3125 49.21875 43.3125 52.78125 
Q 43.3125 58.59375 39.234375 62.25 
Q 35.15625 65.921875 28.609375 65.921875 
Q 23.96875 65.921875 18.8125 64.3125 
Q 13.671875 62.703125 7.8125 59.421875 
L 7.8125 69.390625 
Q 13.765625 71.78125 18.9375 73 
Q 24.125 74.21875 28.421875 74.21875 
Q 39.75 74.21875 46.484375 68.546875 
Q 53.21875 62.890625 53.21875 53.421875 
Q 53.21875 48.921875 51.53125 44.890625 
Q 49.859375 40.875 45.40625 35.40625 
Q 44.1875 33.984375 37.640625 27.21875 
Q 31.109375 20.453125 19.1875 8.296875 
z
" id="DejaVuSans-50"/>
       <path d="M 31.78125 66.40625 
Q 24.171875 66.40625 20.328125 58.90625 
Q 16.5 51.421875 16.5 36.375 
Q 16.5 21.390625 20.328125 13.890625 
Q 24.171875 6.390625 31.78125 6.390625 
Q 39.453125 6.390625 43.28125 13.890625 
Q 47.125 21.390625 47.125 36.375 
Q 47.125 51.421875 43.28125 58.90625 
Q 39.453125 66.40625 31.78125 66.40625 
z
M 31.78125 74.21875 
Q 44.046875 74.21875 50.515625 64.515625 
Q 56.984375 54.828125 56.984375 36.375 
Q 56.984375 17.96875 50.515625 8.265625 
Q 44.046875 -1.421875 31.78125 -1.421875 
Q 19.53125 -1.421875 13.0625 8.265625 
Q 6.59375 17.96875 6.59375 36.375 
Q 6.59375 54.828125 13.0625 64.515625 
Q 19.53125 74.21875 31.78125 74.21875 
z
" id="DejaVuSans-48"/>
       <path d="M 4.890625 31.390625 
L 31.203125 31.390625 
L 31.203125 23.390625 
L 4.890625 23.390625 
z
" id="DejaVuSans-45"/>
       <path d="M 40.578125 39.3125 
Q 47.65625 37.796875 51.625 33 
Q 55.609375 28.21875 55.609375 21.1875 
Q 55.609375 10.40625 48.1875 4.484375 
Q 40.765625 -1.421875 27.09375 -1.421875 
Q 22.515625 -1.421875 17.65625 -0.515625 
Q 12.796875 0.390625 7.625 2.203125 
L 7.625 11.71875 
Q 11.71875 9.328125 16.59375 8.109375 
Q 21.484375 6.890625 26.8125 6.890625 
Q 36.078125 6.890625 40.9375 10.546875 
Q 45.796875 14.203125 45.796875 21.1875 
Q 45.796875 27.640625 41.28125 31.265625 
Q 36.765625 34.90625 28.71875 34.90625 
L 20.21875 34.90625 
L 20.21875 43.015625 
L 29.109375 43.015625 
Q 36.375 43.015625 40.234375 45.921875 
Q 44.09375 48.828125 44.09375 54.296875 
Q 44.09375 59.90625 40.109375 62.90625 
Q 36.140625 65.921875 28.71875 65.921875 
Q 24.65625 65.921875 20.015625 65.03125 
Q 15.375 64.15625 9.8125 62.3125 
L 9.8125 71.09375 
Q 15.4375 72.65625 20.34375 73.4375 
Q 25.25 74.21875 29.59375 74.21875 
Q 40.828125 74.21875 47.359375 69.109375 
Q 53.90625 64.015625 53.90625 55.328125 
Q 53.90625 49.265625 50.4375 45.09375 
Q 46.96875 40.921875 40.578125 39.3125 
z
" id="DejaVuSans-51"/>
       <path d="M 12.40625 8.296875 
L 28.515625 8.296875 
L 28.515625 63.921875 
L 10.984375 60.40625 
L 10.984375 69.390625 
L 28.421875 72.90625 
L 38.28125 72.90625 
L 38.28125 8.296875 
L 54.390625 8.296875 
L 54.390625 0 
L 12.40625 0 
z
" id="DejaVuSans-49"/>
      </defs>
      <g transform="translate(49.973873 555.068713)rotate(-30)scale(0.13 -0.13)">
       <use xlink:href="#DejaVuSans-50"/>
       <use x="63.623047" xlink:href="#DejaVuSans-48"/>
       <use x="127.246094" xlink:href="#DejaVuSans-50"/>
       <use x="190.869141" xlink:href="#DejaVuSans-48"/>
       <use x="254.492188" xlink:href="#DejaVuSans-45"/>
       <use x="290.576172" xlink:href="#DejaVuSans-48"/>
       <use x="354.199219" xlink:href="#DejaVuSans-51"/>
       <use x="417.822266" xlink:href="#DejaVuSans-45"/>
       <use x="453.90625" xlink:href="#DejaVuSans-48"/>
       <use x="517.529297" xlink:href="#DejaVuSans-49"/>
      </g>
     </g>
    </g>
    <g id="xtick_2">
     <g id="line2d_2">
      <g>
       <use style="stroke:#000000;stroke-width:0.8;" x="276.34558" xlink:href="#m40a05201c7" y="501.738984"/>
      </g>
     </g>
     <g id="text_2">
      <!-- 2020-03-15 -->
      <defs>
       <path d="M 10.796875 72.90625 
L 49.515625 72.90625 
L 49.515625 64.59375 
L 19.828125 64.59375 
L 19.828125 46.734375 
Q 21.96875 47.46875 24.109375 47.828125 
Q 26.265625 48.1875 28.421875 48.1875 
Q 40.625 48.1875 47.75 41.5 
Q 54.890625 34.8125 54.890625 23.390625 
Q 54.890625 11.625 47.5625 5.09375 
Q 40.234375 -1.421875 26.90625 -1.421875 
Q 22.3125 -1.421875 17.546875 -0.640625 
Q 12.796875 0.140625 7.71875 1.703125 
L 7.71875 11.625 
Q 12.109375 9.234375 16.796875 8.0625 
Q 21.484375 6.890625 26.703125 6.890625 
Q 35.15625 6.890625 40.078125 11.328125 
Q 45.015625 15.765625 45.015625 23.390625 
Q 45.015625 31 40.078125 35.4375 
Q 35.15625 39.890625 26.703125 39.890625 
Q 22.75 39.890625 18.8125 39.015625 
Q 14.890625 38.140625 10.796875 36.28125 
z
" id="DejaVuSans-53"/>
      </defs>
      <g transform="translate(209.565293 555.068713)rotate(-30)scale(0.13 -0.13)">
       <use xlink:href="#DejaVuSans-50"/>
       <use x="63.623047" xlink:href="#DejaVuSans-48"/>
       <use x="127.246094" xlink:href="#DejaVuSans-50"/>
       <use x="190.869141" xlink:href="#DejaVuSans-48"/>
       <use x="254.492188" xlink:href="#DejaVuSans-45"/>
       <use x="290.576172" xlink:href="#DejaVuSans-48"/>
       <use x="354.199219" xlink:href="#DejaVuSans-51"/>
       <use x="417.822266" xlink:href="#DejaVuSans-45"/>
       <use x="453.90625" xlink:href="#DejaVuSans-49"/>
       <use x="517.529297" xlink:href="#DejaVuSans-53"/>
      </g>
     </g>
    </g>
    <g id="xtick_3">
     <g id="line2d_3">
      <g>
       <use style="stroke:#000000;stroke-width:0.8;" x="470.135161" xlink:href="#m40a05201c7" y="501.738984"/>
      </g>
     </g>
     <g id="text_3">
      <!-- 2020-04-01 -->
      <defs>
       <path d="M 37.796875 64.3125 
L 12.890625 25.390625 
L 37.796875 25.390625 
z
M 35.203125 72.90625 
L 47.609375 72.90625 
L 47.609375 25.390625 
L 58.015625 25.390625 
L 58.015625 17.1875 
L 47.609375 17.1875 
L 47.609375 0 
L 37.796875 0 
L 37.796875 17.1875 
L 4.890625 17.1875 
L 4.890625 26.703125 
z
" id="DejaVuSans-52"/>
      </defs>
      <g transform="translate(403.354874 555.068713)rotate(-30)scale(0.13 -0.13)">
       <use xlink:href="#DejaVuSans-50"/>
       <use x="63.623047" xlink:href="#DejaVuSans-48"/>
       <use x="127.246094" xlink:href="#DejaVuSans-50"/>
       <use x="190.869141" xlink:href="#DejaVuSans-48"/>
       <use x="254.492188" xlink:href="#DejaVuSans-45"/>
       <use x="290.576172" xlink:href="#DejaVuSans-48"/>
       <use x="354.199219" xlink:href="#DejaVuSans-52"/>
       <use x="417.822266" xlink:href="#DejaVuSans-45"/>
       <use x="453.90625" xlink:href="#DejaVuSans-48"/>
       <use x="517.529297" xlink:href="#DejaVuSans-49"/>
      </g>
     </g>
    </g>
    <g id="xtick_4">
     <g id="line2d_4">
      <g>
       <use style="stroke:#000000;stroke-width:0.8;" x="629.726581" xlink:href="#m40a05201c7" y="501.738984"/>
      </g>
     </g>
     <g id="text_4">
      <!-- 2020-04-15 -->
      <g transform="translate(562.946294 555.068713)rotate(-30)scale(0.13 -0.13)">
       <use xlink:href="#DejaVuSans-50"/>
       <use x="63.623047" xlink:href="#DejaVuSans-48"/>
       <use x="127.246094" xlink:href="#DejaVuSans-50"/>
       <use x="190.869141" xlink:href="#DejaVuSans-48"/>
       <use x="254.492188" xlink:href="#DejaVuSans-45"/>
       <use x="290.576172" xlink:href="#DejaVuSans-48"/>
       <use x="354.199219" xlink:href="#DejaVuSans-52"/>
       <use x="417.822266" xlink:href="#DejaVuSans-45"/>
       <use x="453.90625" xlink:href="#DejaVuSans-49"/>
       <use x="517.529297" xlink:href="#DejaVuSans-53"/>
      </g>
     </g>
    </g>
    <g id="xtick_5">
     <g id="line2d_5">
      <g>
       <use style="stroke:#000000;stroke-width:0.8;" x="812.116775" xlink:href="#m40a05201c7" y="501.738984"/>
      </g>
     </g>
     <g id="text_5">
      <!-- 2020-05-01 -->
      <g transform="translate(745.336488 555.068713)rotate(-30)scale(0.13 -0.13)">
       <use xlink:href="#DejaVuSans-50"/>
       <use x="63.623047" xlink:href="#DejaVuSans-48"/>
       <use x="127.246094" xlink:href="#DejaVuSans-50"/>
       <use x="190.869141" xlink:href="#DejaVuSans-48"/>
       <use x="254.492188" xlink:href="#DejaVuSans-45"/>
       <use x="290.576172" xlink:href="#DejaVuSans-48"/>
       <use x="354.199219" xlink:href="#DejaVuSans-53"/>
       <use x="417.822266" xlink:href="#DejaVuSans-45"/>
       <use x="453.90625" xlink:href="#DejaVuSans-48"/>
       <use x="517.529297" xlink:href="#DejaVuSans-49"/>
      </g>
     </g>
    </g>
    <g id="xtick_6">
     <g id="line2d_6">
      <g>
       <use style="stroke:#000000;stroke-width:0.8;" x="971.708195" xlink:href="#m40a05201c7" y="501.738984"/>
      </g>
     </g>
     <g id="text_6">
      <!-- 2020-05-15 -->
      <g transform="translate(904.927908 555.068713)rotate(-30)scale(0.13 -0.13)">
       <use xlink:href="#DejaVuSans-50"/>
       <use x="63.623047" xlink:href="#DejaVuSans-48"/>
       <use x="127.246094" xlink:href="#DejaVuSans-50"/>
       <use x="190.869141" xlink:href="#DejaVuSans-48"/>
       <use x="254.492188" xlink:href="#DejaVuSans-45"/>
       <use x="290.576172" xlink:href="#DejaVuSans-48"/>
       <use x="354.199219" xlink:href="#DejaVuSans-53"/>
       <use x="417.822266" xlink:href="#DejaVuSans-45"/>
       <use x="453.90625" xlink:href="#DejaVuSans-49"/>
       <use x="517.529297" xlink:href="#DejaVuSans-53"/>
      </g>
     </g>
    </g>
    <g id="xtick_7">
     <g id="line2d_7">
      <g>
       <use style="stroke:#000000;stroke-width:0.8;" x="1165.497776" xlink:href="#m40a05201c7" y="501.738984"/>
      </g>
     </g>
     <g id="text_7">
      <!-- 2020-06-01 -->
      <defs>
       <path d="M 33.015625 40.375 
Q 26.375 40.375 22.484375 35.828125 
Q 18.609375 31.296875 18.609375 23.390625 
Q 18.609375 15.53125 22.484375 10.953125 
Q 26.375 6.390625 33.015625 6.390625 
Q 39.65625 6.390625 43.53125 10.953125 
Q 47.40625 15.53125 47.40625 23.390625 
Q 47.40625 31.296875 43.53125 35.828125 
Q 39.65625 40.375 33.015625 40.375 
z
M 52.59375 71.296875 
L 52.59375 62.3125 
Q 48.875 64.0625 45.09375 64.984375 
Q 41.3125 65.921875 37.59375 65.921875 
Q 27.828125 65.921875 22.671875 59.328125 
Q 17.53125 52.734375 16.796875 39.40625 
Q 19.671875 43.65625 24.015625 45.921875 
Q 28.375 48.1875 33.59375 48.1875 
Q 44.578125 48.1875 50.953125 41.515625 
Q 57.328125 34.859375 57.328125 23.390625 
Q 57.328125 12.15625 50.6875 5.359375 
Q 44.046875 -1.421875 33.015625 -1.421875 
Q 20.359375 -1.421875 13.671875 8.265625 
Q 6.984375 17.96875 6.984375 36.375 
Q 6.984375 53.65625 15.1875 63.9375 
Q 23.390625 74.21875 37.203125 74.21875 
Q 40.921875 74.21875 44.703125 73.484375 
Q 48.484375 72.75 52.59375 71.296875 
z
" id="DejaVuSans-54"/>
      </defs>
      <g transform="translate(1098.717489 555.068713)rotate(-30)scale(0.13 -0.13)">
       <use xlink:href="#DejaVuSans-50"/>
       <use x="63.623047" xlink:href="#DejaVuSans-48"/>
       <use x="127.246094" xlink:href="#DejaVuSans-50"/>
       <use x="190.869141" xlink:href="#DejaVuSans-48"/>
       <use x="254.492188" xlink:href="#DejaVuSans-45"/>
       <use x="290.576172" xlink:href="#DejaVuSans-48"/>
       <use x="354.199219" xlink:href="#DejaVuSans-54"/>
       <use x="417.822266" xlink:href="#DejaVuSans-45"/>
       <use x="453.90625" xlink:href="#DejaVuSans-48"/>
       <use x="517.529297" xlink:href="#DejaVuSans-49"/>
      </g>
     </g>
    </g>
   </g>
   <g id="matplotlib.axis_2">
    <g id="ytick_1">
     <g id="line2d_8">
      <path clip-path="url(#p052b7c0c7b)" d="M 54.6275 480.08 
L 1170.6275 480.08 
" style="fill:none;stroke:#b0b0b0;stroke-linecap:square;stroke-width:0.8;"/>
     </g>
     <g id="line2d_9">
      <defs>
       <path d="M 0 0 
L -3.5 0 
" id="mdf7956e5c8" style="stroke:#000000;stroke-width:0.8;"/>
      </defs>
      <g>
       <use style="stroke:#000000;stroke-width:0.8;" x="54.6275" xlink:href="#mdf7956e5c8" y="480.08"/>
      </g>
     </g>
     <g id="text_8">
      <!-- 0 -->
      <g transform="translate(39.35625 485.018985)scale(0.13 -0.13)">
       <use xlink:href="#DejaVuSans-48"/>
      </g>
     </g>
    </g>
    <g id="ytick_2">
     <g id="line2d_10">
      <path clip-path="url(#p052b7c0c7b)" d="M 54.6275 413.231284 
L 1170.6275 413.231284 
" style="fill:none;stroke:#b0b0b0;stroke-linecap:square;stroke-width:0.8;"/>
     </g>
     <g id="line2d_11">
      <g>
       <use style="stroke:#000000;stroke-width:0.8;" x="54.6275" xlink:href="#mdf7956e5c8" y="413.231284"/>
      </g>
     </g>
     <g id="text_9">
      <!-- 100 -->
      <g transform="translate(22.81375 418.170268)scale(0.13 -0.13)">
       <use xlink:href="#DejaVuSans-49"/>
       <use x="63.623047" xlink:href="#DejaVuSans-48"/>
       <use x="127.246094" xlink:href="#DejaVuSans-48"/>
      </g>
     </g>
    </g>
    <g id="ytick_3">
     <g id="line2d_12">
      <path clip-path="url(#p052b7c0c7b)" d="M 54.6275 346.382567 
L 1170.6275 346.382567 
" style="fill:none;stroke:#b0b0b0;stroke-linecap:square;stroke-width:0.8;"/>
     </g>
     <g id="line2d_13">
      <g>
       <use style="stroke:#000000;stroke-width:0.8;" x="54.6275" xlink:href="#mdf7956e5c8" y="346.382567"/>
      </g>
     </g>
     <g id="text_10">
      <!-- 200 -->
      <g transform="translate(22.81375 351.321551)scale(0.13 -0.13)">
       <use xlink:href="#DejaVuSans-50"/>
       <use x="63.623047" xlink:href="#DejaVuSans-48"/>
       <use x="127.246094" xlink:href="#DejaVuSans-48"/>
      </g>
     </g>
    </g>
    <g id="ytick_4">
     <g id="line2d_14">
      <path clip-path="url(#p052b7c0c7b)" d="M 54.6275 279.533851 
L 1170.6275 279.533851 
" style="fill:none;stroke:#b0b0b0;stroke-linecap:square;stroke-width:0.8;"/>
     </g>
     <g id="line2d_15">
      <g>
       <use style="stroke:#000000;stroke-width:0.8;" x="54.6275" xlink:href="#mdf7956e5c8" y="279.533851"/>
      </g>
     </g>
     <g id="text_11">
      <!-- 300 -->
      <g transform="translate(22.81375 284.472835)scale(0.13 -0.13)">
       <use xlink:href="#DejaVuSans-51"/>
       <use x="63.623047" xlink:href="#DejaVuSans-48"/>
       <use x="127.246094" xlink:href="#DejaVuSans-48"/>
      </g>
     </g>
    </g>
    <g id="ytick_5">
     <g id="line2d_16">
      <path clip-path="url(#p052b7c0c7b)" d="M 54.6275 212.685134 
L 1170.6275 212.685134 
" style="fill:none;stroke:#b0b0b0;stroke-linecap:square;stroke-width:0.8;"/>
     </g>
     <g id="line2d_17">
      <g>
       <use style="stroke:#000000;stroke-width:0.8;" x="54.6275" xlink:href="#mdf7956e5c8" y="212.685134"/>
      </g>
     </g>
     <g id="text_12">
      <!-- 400 -->
      <g transform="translate(22.81375 217.624118)scale(0.13 -0.13)">
       <use xlink:href="#DejaVuSans-52"/>
       <use x="63.623047" xlink:href="#DejaVuSans-48"/>
       <use x="127.246094" xlink:href="#DejaVuSans-48"/>
      </g>
     </g>
    </g>
    <g id="ytick_6">
     <g id="line2d_18">
      <path clip-path="url(#p052b7c0c7b)" d="M 54.6275 145.836417 
L 1170.6275 145.836417 
" style="fill:none;stroke:#b0b0b0;stroke-linecap:square;stroke-width:0.8;"/>
     </g>
     <g id="line2d_19">
      <g>
       <use style="stroke:#000000;stroke-width:0.8;" x="54.6275" xlink:href="#mdf7956e5c8" y="145.836417"/>
      </g>
     </g>
     <g id="text_13">
      <!-- 500 -->
      <g transform="translate(22.81375 150.775402)scale(0.13 -0.13)">
       <use xlink:href="#DejaVuSans-53"/>
       <use x="63.623047" xlink:href="#DejaVuSans-48"/>
       <use x="127.246094" xlink:href="#DejaVuSans-48"/>
      </g>
     </g>
    </g>
    <g id="ytick_7">
     <g id="line2d_20">
      <path clip-path="url(#p052b7c0c7b)" d="M 54.6275 78.987701 
L 1170.6275 78.987701 
" style="fill:none;stroke:#b0b0b0;stroke-linecap:square;stroke-width:0.8;"/>
     </g>
     <g id="line2d_21">
      <g>
       <use style="stroke:#000000;stroke-width:0.8;" x="54.6275" xlink:href="#mdf7956e5c8" y="78.987701"/>
      </g>
     </g>
     <g id="text_14">
      <!-- 600 -->
      <g transform="translate(22.81375 83.926685)scale(0.13 -0.13)">
       <use xlink:href="#DejaVuSans-54"/>
       <use x="63.623047" xlink:href="#DejaVuSans-48"/>
       <use x="127.246094" xlink:href="#DejaVuSans-48"/>
      </g>
     </g>
    </g>
    <g id="ytick_8">
     <g id="line2d_22">
      <path clip-path="url(#p052b7c0c7b)" d="M 54.6275 12.138984 
L 1170.6275 12.138984 
" style="fill:none;stroke:#b0b0b0;stroke-linecap:square;stroke-width:0.8;"/>
     </g>
     <g id="line2d_23">
      <g>
       <use style="stroke:#000000;stroke-width:0.8;" x="54.6275" xlink:href="#mdf7956e5c8" y="12.138984"/>
      </g>
     </g>
     <g id="text_15">
      <!-- 700 -->
      <defs>
       <path d="M 8.203125 72.90625 
L 55.078125 72.90625 
L 55.078125 68.703125 
L 28.609375 0 
L 18.3125 0 
L 43.21875 64.59375 
L 8.203125 64.59375 
z
" id="DejaVuSans-55"/>
      </defs>
      <g transform="translate(22.81375 17.077969)scale(0.13 -0.13)">
       <use xlink:href="#DejaVuSans-55"/>
       <use x="63.623047" xlink:href="#DejaVuSans-48"/>
       <use x="127.246094" xlink:href="#DejaVuSans-48"/>
      </g>
     </g>
    </g>
    <g id="text_16">
     <!-- Anzahl von Fällen -->
     <defs>
      <path d="M 34.1875 63.1875 
L 20.796875 26.90625 
L 47.609375 26.90625 
z
M 28.609375 72.90625 
L 39.796875 72.90625 
L 67.578125 0 
L 57.328125 0 
L 50.6875 18.703125 
L 17.828125 18.703125 
L 11.1875 0 
L 0.78125 0 
z
" id="DejaVuSans-65"/>
      <path d="M 54.890625 33.015625 
L 54.890625 0 
L 45.90625 0 
L 45.90625 32.71875 
Q 45.90625 40.484375 42.875 44.328125 
Q 39.84375 48.1875 33.796875 48.1875 
Q 26.515625 48.1875 22.3125 43.546875 
Q 18.109375 38.921875 18.109375 30.90625 
L 18.109375 0 
L 9.078125 0 
L 9.078125 54.6875 
L 18.109375 54.6875 
L 18.109375 46.1875 
Q 21.34375 51.125 25.703125 53.5625 
Q 30.078125 56 35.796875 56 
Q 45.21875 56 50.046875 50.171875 
Q 54.890625 44.34375 54.890625 33.015625 
z
" id="DejaVuSans-110"/>
      <path d="M 5.515625 54.6875 
L 48.1875 54.6875 
L 48.1875 46.484375 
L 14.40625 7.171875 
L 48.1875 7.171875 
L 48.1875 0 
L 4.296875 0 
L 4.296875 8.203125 
L 38.09375 47.515625 
L 5.515625 47.515625 
z
" id="DejaVuSans-122"/>
      <path d="M 34.28125 27.484375 
Q 23.390625 27.484375 19.1875 25 
Q 14.984375 22.515625 14.984375 16.5 
Q 14.984375 11.71875 18.140625 8.90625 
Q 21.296875 6.109375 26.703125 6.109375 
Q 34.1875 6.109375 38.703125 11.40625 
Q 43.21875 16.703125 43.21875 25.484375 
L 43.21875 27.484375 
z
M 52.203125 31.203125 
L 52.203125 0 
L 43.21875 0 
L 43.21875 8.296875 
Q 40.140625 3.328125 35.546875 0.953125 
Q 30.953125 -1.421875 24.3125 -1.421875 
Q 15.921875 -1.421875 10.953125 3.296875 
Q 6 8.015625 6 15.921875 
Q 6 25.140625 12.171875 29.828125 
Q 18.359375 34.515625 30.609375 34.515625 
L 43.21875 34.515625 
L 43.21875 35.40625 
Q 43.21875 41.609375 39.140625 45 
Q 35.0625 48.390625 27.6875 48.390625 
Q 23 48.390625 18.546875 47.265625 
Q 14.109375 46.140625 10.015625 43.890625 
L 10.015625 52.203125 
Q 14.9375 54.109375 19.578125 55.046875 
Q 24.21875 56 28.609375 56 
Q 40.484375 56 46.34375 49.84375 
Q 52.203125 43.703125 52.203125 31.203125 
z
" id="DejaVuSans-97"/>
      <path d="M 54.890625 33.015625 
L 54.890625 0 
L 45.90625 0 
L 45.90625 32.71875 
Q 45.90625 40.484375 42.875 44.328125 
Q 39.84375 48.1875 33.796875 48.1875 
Q 26.515625 48.1875 22.3125 43.546875 
Q 18.109375 38.921875 18.109375 30.90625 
L 18.109375 0 
L 9.078125 0 
L 9.078125 75.984375 
L 18.109375 75.984375 
L 18.109375 46.1875 
Q 21.34375 51.125 25.703125 53.5625 
Q 30.078125 56 35.796875 56 
Q 45.21875 56 50.046875 50.171875 
Q 54.890625 44.34375 54.890625 33.015625 
z
" id="DejaVuSans-104"/>
      <path d="M 9.421875 75.984375 
L 18.40625 75.984375 
L 18.40625 0 
L 9.421875 0 
z
" id="DejaVuSans-108"/>
      <path id="DejaVuSans-32"/>
      <path d="M 2.984375 54.6875 
L 12.5 54.6875 
L 29.59375 8.796875 
L 46.6875 54.6875 
L 56.203125 54.6875 
L 35.6875 0 
L 23.484375 0 
z
" id="DejaVuSans-118"/>
      <path d="M 30.609375 48.390625 
Q 23.390625 48.390625 19.1875 42.75 
Q 14.984375 37.109375 14.984375 27.296875 
Q 14.984375 17.484375 19.15625 11.84375 
Q 23.34375 6.203125 30.609375 6.203125 
Q 37.796875 6.203125 41.984375 11.859375 
Q 46.1875 17.53125 46.1875 27.296875 
Q 46.1875 37.015625 41.984375 42.703125 
Q 37.796875 48.390625 30.609375 48.390625 
z
M 30.609375 56 
Q 42.328125 56 49.015625 48.375 
Q 55.71875 40.765625 55.71875 27.296875 
Q 55.71875 13.875 49.015625 6.21875 
Q 42.328125 -1.421875 30.609375 -1.421875 
Q 18.84375 -1.421875 12.171875 6.21875 
Q 5.515625 13.875 5.515625 27.296875 
Q 5.515625 40.765625 12.171875 48.375 
Q 18.84375 56 30.609375 56 
z
" id="DejaVuSans-111"/>
      <path d="M 9.8125 72.90625 
L 51.703125 72.90625 
L 51.703125 64.59375 
L 19.671875 64.59375 
L 19.671875 43.109375 
L 48.578125 43.109375 
L 48.578125 34.8125 
L 19.671875 34.8125 
L 19.671875 0 
L 9.8125 0 
z
" id="DejaVuSans-70"/>
      <path d="M 34.28125 27.484375 
Q 23.390625 27.484375 19.1875 25 
Q 14.984375 22.515625 14.984375 16.5 
Q 14.984375 11.71875 18.140625 8.90625 
Q 21.296875 6.109375 26.703125 6.109375 
Q 34.1875 6.109375 38.703125 11.40625 
Q 43.21875 16.703125 43.21875 25.484375 
L 43.21875 27.484375 
z
M 52.203125 31.203125 
L 52.203125 0 
L 43.21875 0 
L 43.21875 8.296875 
Q 40.140625 3.328125 35.546875 0.953125 
Q 30.953125 -1.421875 24.3125 -1.421875 
Q 15.921875 -1.421875 10.953125 3.296875 
Q 6 8.015625 6 15.921875 
Q 6 25.140625 12.171875 29.828125 
Q 18.359375 34.515625 30.609375 34.515625 
L 43.21875 34.515625 
L 43.21875 35.40625 
Q 43.21875 41.609375 39.140625 45 
Q 35.0625 48.390625 27.6875 48.390625 
Q 23 48.390625 18.546875 47.265625 
Q 14.109375 46.140625 10.015625 43.890625 
L 10.015625 52.203125 
Q 14.9375 54.109375 19.578125 55.046875 
Q 24.21875 56 28.609375 56 
Q 40.484375 56 46.34375 49.84375 
Q 52.203125 43.703125 52.203125 31.203125 
z
M 33.59375 75.78125 
L 43.5 75.78125 
L 43.5 65.921875 
L 33.59375 65.921875 
z
M 14.5 75.78125 
L 24.40625 75.78125 
L 24.40625 65.921875 
L 14.5 65.921875 
z
" id="DejaVuSans-228"/>
      <path d="M 56.203125 29.59375 
L 56.203125 25.203125 
L 14.890625 25.203125 
Q 15.484375 15.921875 20.484375 11.0625 
Q 25.484375 6.203125 34.421875 6.203125 
Q 39.59375 6.203125 44.453125 7.46875 
Q 49.3125 8.734375 54.109375 11.28125 
L 54.109375 2.78125 
Q 49.265625 0.734375 44.1875 -0.34375 
Q 39.109375 -1.421875 33.890625 -1.421875 
Q 20.796875 -1.421875 13.15625 6.1875 
Q 5.515625 13.8125 5.515625 26.8125 
Q 5.515625 40.234375 12.765625 48.109375 
Q 20.015625 56 32.328125 56 
Q 43.359375 56 49.78125 48.890625 
Q 56.203125 41.796875 56.203125 29.59375 
z
M 47.21875 32.234375 
Q 47.125 39.59375 43.09375 43.984375 
Q 39.0625 48.390625 32.421875 48.390625 
Q 24.90625 48.390625 20.390625 44.140625 
Q 15.875 39.890625 15.1875 32.171875 
z
" id="DejaVuSans-101"/>
     </defs>
     <g transform="translate(16.318125 309.388359)rotate(-90)scale(0.12 -0.12)">
      <use xlink:href="#DejaVuSans-65"/>
      <use x="68.408203" xlink:href="#DejaVuSans-110"/>
      <use x="131.787109" xlink:href="#DejaVuSans-122"/>
      <use x="184.277344" xlink:href="#DejaVuSans-97"/>
      <use x="245.556641" xlink:href="#DejaVuSans-104"/>
      <use x="308.935547" xlink:href="#DejaVuSans-108"/>
      <use x="336.71875" xlink:href="#DejaVuSans-32"/>
      <use x="368.505859" xlink:href="#DejaVuSans-118"/>
      <use x="427.685547" xlink:href="#DejaVuSans-111"/>
      <use x="488.867188" xlink:href="#DejaVuSans-110"/>
      <use x="552.246094" xlink:href="#DejaVuSans-32"/>
      <use x="584.033203" xlink:href="#DejaVuSans-70"/>
      <use x="632.427734" xlink:href="#DejaVuSans-228"/>
      <use x="693.707031" xlink:href="#DejaVuSans-108"/>
      <use x="721.490234" xlink:href="#DejaVuSans-108"/>
      <use x="749.273438" xlink:href="#DejaVuSans-101"/>
      <use x="810.796875" xlink:href="#DejaVuSans-110"/>
     </g>
    </g>
   </g>
   <g id="line2d_24">
    <path clip-path="url(#p052b7c0c7b)" d="M 105.354773 480.08 
L 139.552934 480.08 
L 162.351708 480.08 
L 207.949257 480.08 
L 219.348644 480.08 
L 230.748031 480.08 
L 242.147418 480.08 
L 253.546805 480.08 
L 264.946193 480.08 
L 276.34558 480.08 
L 287.744967 478.743026 
L 299.144354 477.406052 
L 310.543741 476.737564 
L 321.943128 476.737564 
L 333.342515 476.069077 
L 344.741902 476.069077 
L 356.14129 476.069077 
L 367.540677 472.058154 
L 378.940064 464.704795 
L 390.339451 452.672026 
L 401.738838 436.628334 
L 413.138225 412.562796 
L 424.537612 412.562796 
L 447.336387 401.198515 
L 458.735774 379.806925 
L 470.135161 353.067439 
L 481.534548 330.338875 
L 492.933935 299.588466 
L 527.132097 268.838056 
L 538.531484 234.74521 
L 549.930871 222.043954 
L 561.330258 205.331775 
L 572.729645 204.663288 
L 618.327194 174.581366 
L 629.726581 157.869186 
L 641.125968 157.869186 
L 652.525355 150.515828 
L 663.924742 150.515828 
L 686.723516 143.830956 
L 698.122903 131.798187 
L 709.522291 121.77088 
L 720.921678 115.754495 
L 732.321065 110.406598 
L 743.720452 107.732649 
L 766.519226 107.732649 
L 777.918613 107.732649 
L 789.318001 94.362906 
L 800.717388 92.357444 
L 823.516162 90.351983 
L 846.314936 88.346521 
L 857.714323 79.656188 
L 869.11371 79.656188 
L 880.513098 70.297368 
L 891.912485 70.297368 
L 903.311872 70.297368 
L 926.110646 70.297368 
L 937.510033 70.297368 
L 948.90942 70.297368 
L 960.308807 69.628881 
L 971.708195 67.623419 
L 983.107582 66.286445 
L 1005.906356 66.286445 
L 1017.305743 66.286445 
L 1028.70513 63.612496 
L 1051.503904 62.944009 
L 1062.903292 58.264599 
L 1085.702066 58.264599 
L 1097.101453 54.253676 
L 1119.900227 46.900317 
" style="fill:none;stroke:#dbcd00;stroke-linecap:square;stroke-width:2;"/>
    <defs>
     <path d="M 0 1.5 
C 0.397805 1.5 0.77937 1.341951 1.06066 1.06066 
C 1.341951 0.77937 1.5 0.397805 1.5 0 
C 1.5 -0.397805 1.341951 -0.77937 1.06066 -1.06066 
C 0.77937 -1.341951 0.397805 -1.5 0 -1.5 
C -0.397805 -1.5 -0.77937 -1.341951 -1.06066 -1.06066 
C -1.341951 -0.77937 -1.5 -0.397805 -1.5 0 
C -1.5 0.397805 -1.341951 0.77937 -1.06066 1.06066 
C -0.77937 1.341951 -0.397805 1.5 0 1.5 
z
" id="m5ae9b23675" style="stroke:#dbcd00;"/>
    </defs>
    <g clip-path="url(#p052b7c0c7b)">
     <use style="fill:#dbcd00;stroke:#dbcd00;" x="105.354773" xlink:href="#m5ae9b23675" y="480.08"/>
     <use style="fill:#dbcd00;stroke:#dbcd00;" x="139.552934" xlink:href="#m5ae9b23675" y="480.08"/>
     <use style="fill:#dbcd00;stroke:#dbcd00;" x="162.351708" xlink:href="#m5ae9b23675" y="480.08"/>
     <use style="fill:#dbcd00;stroke:#dbcd00;" x="207.949257" xlink:href="#m5ae9b23675" y="480.08"/>
     <use style="fill:#dbcd00;stroke:#dbcd00;" x="219.348644" xlink:href="#m5ae9b23675" y="480.08"/>
     <use style="fill:#dbcd00;stroke:#dbcd00;" x="230.748031" xlink:href="#m5ae9b23675" y="480.08"/>
     <use style="fill:#dbcd00;stroke:#dbcd00;" x="242.147418" xlink:href="#m5ae9b23675" y="480.08"/>
     <use style="fill:#dbcd00;stroke:#dbcd00;" x="253.546805" xlink:href="#m5ae9b23675" y="480.08"/>
     <use style="fill:#dbcd00;stroke:#dbcd00;" x="264.946193" xlink:href="#m5ae9b23675" y="480.08"/>
     <use style="fill:#dbcd00;stroke:#dbcd00;" x="276.34558" xlink:href="#m5ae9b23675" y="480.08"/>
     <use style="fill:#dbcd00;stroke:#dbcd00;" x="287.744967" xlink:href="#m5ae9b23675" y="478.743026"/>
     <use style="fill:#dbcd00;stroke:#dbcd00;" x="299.144354" xlink:href="#m5ae9b23675" y="477.406052"/>
     <use style="fill:#dbcd00;stroke:#dbcd00;" x="310.543741" xlink:href="#m5ae9b23675" y="476.737564"/>
     <use style="fill:#dbcd00;stroke:#dbcd00;" x="321.943128" xlink:href="#m5ae9b23675" y="476.737564"/>
     <use style="fill:#dbcd00;stroke:#dbcd00;" x="333.342515" xlink:href="#m5ae9b23675" y="476.069077"/>
     <use style="fill:#dbcd00;stroke:#dbcd00;" x="344.741902" xlink:href="#m5ae9b23675" y="476.069077"/>
     <use style="fill:#dbcd00;stroke:#dbcd00;" x="356.14129" xlink:href="#m5ae9b23675" y="476.069077"/>
     <use style="fill:#dbcd00;stroke:#dbcd00;" x="367.540677" xlink:href="#m5ae9b23675" y="472.058154"/>
     <use style="fill:#dbcd00;stroke:#dbcd00;" x="378.940064" xlink:href="#m5ae9b23675" y="464.704795"/>
     <use style="fill:#dbcd00;stroke:#dbcd00;" x="390.339451" xlink:href="#m5ae9b23675" y="452.672026"/>
     <use style="fill:#dbcd00;stroke:#dbcd00;" x="401.738838" xlink:href="#m5ae9b23675" y="436.628334"/>
     <use style="fill:#dbcd00;stroke:#dbcd00;" x="413.138225" xlink:href="#m5ae9b23675" y="412.562796"/>
     <use style="fill:#dbcd00;stroke:#dbcd00;" x="424.537612" xlink:href="#m5ae9b23675" y="412.562796"/>
     <use style="fill:#dbcd00;stroke:#dbcd00;" x="447.336387" xlink:href="#m5ae9b23675" y="401.198515"/>
     <use style="fill:#dbcd00;stroke:#dbcd00;" x="458.735774" xlink:href="#m5ae9b23675" y="379.806925"/>
     <use style="fill:#dbcd00;stroke:#dbcd00;" x="470.135161" xlink:href="#m5ae9b23675" y="353.067439"/>
     <use style="fill:#dbcd00;stroke:#dbcd00;" x="481.534548" xlink:href="#m5ae9b23675" y="330.338875"/>
     <use style="fill:#dbcd00;stroke:#dbcd00;" x="492.933935" xlink:href="#m5ae9b23675" y="299.588466"/>
     <use style="fill:#dbcd00;stroke:#dbcd00;" x="527.132097" xlink:href="#m5ae9b23675" y="268.838056"/>
     <use style="fill:#dbcd00;stroke:#dbcd00;" x="538.531484" xlink:href="#m5ae9b23675" y="234.74521"/>
     <use style="fill:#dbcd00;stroke:#dbcd00;" x="549.930871" xlink:href="#m5ae9b23675" y="222.043954"/>
     <use style="fill:#dbcd00;stroke:#dbcd00;" x="561.330258" xlink:href="#m5ae9b23675" y="205.331775"/>
     <use style="fill:#dbcd00;stroke:#dbcd00;" x="572.729645" xlink:href="#m5ae9b23675" y="204.663288"/>
     <use style="fill:#dbcd00;stroke:#dbcd00;" x="618.327194" xlink:href="#m5ae9b23675" y="174.581366"/>
     <use style="fill:#dbcd00;stroke:#dbcd00;" x="629.726581" xlink:href="#m5ae9b23675" y="157.869186"/>
     <use style="fill:#dbcd00;stroke:#dbcd00;" x="641.125968" xlink:href="#m5ae9b23675" y="157.869186"/>
     <use style="fill:#dbcd00;stroke:#dbcd00;" x="652.525355" xlink:href="#m5ae9b23675" y="150.515828"/>
     <use style="fill:#dbcd00;stroke:#dbcd00;" x="663.924742" xlink:href="#m5ae9b23675" y="150.515828"/>
     <use style="fill:#dbcd00;stroke:#dbcd00;" x="686.723516" xlink:href="#m5ae9b23675" y="143.830956"/>
     <use style="fill:#dbcd00;stroke:#dbcd00;" x="698.122903" xlink:href="#m5ae9b23675" y="131.798187"/>
     <use style="fill:#dbcd00;stroke:#dbcd00;" x="709.522291" xlink:href="#m5ae9b23675" y="121.77088"/>
     <use style="fill:#dbcd00;stroke:#dbcd00;" x="720.921678" xlink:href="#m5ae9b23675" y="115.754495"/>
     <use style="fill:#dbcd00;stroke:#dbcd00;" x="732.321065" xlink:href="#m5ae9b23675" y="110.406598"/>
     <use style="fill:#dbcd00;stroke:#dbcd00;" x="743.720452" xlink:href="#m5ae9b23675" y="107.732649"/>
     <use style="fill:#dbcd00;stroke:#dbcd00;" x="766.519226" xlink:href="#m5ae9b23675" y="107.732649"/>
     <use style="fill:#dbcd00;stroke:#dbcd00;" x="777.918613" xlink:href="#m5ae9b23675" y="107.732649"/>
     <use style="fill:#dbcd00;stroke:#dbcd00;" x="789.318001" xlink:href="#m5ae9b23675" y="94.362906"/>
     <use style="fill:#dbcd00;stroke:#dbcd00;" x="800.717388" xlink:href="#m5ae9b23675" y="92.357444"/>
     <use style="fill:#dbcd00;stroke:#dbcd00;" x="823.516162" xlink:href="#m5ae9b23675" y="90.351983"/>
     <use style="fill:#dbcd00;stroke:#dbcd00;" x="846.314936" xlink:href="#m5ae9b23675" y="88.346521"/>
     <use style="fill:#dbcd00;stroke:#dbcd00;" x="857.714323" xlink:href="#m5ae9b23675" y="79.656188"/>
     <use style="fill:#dbcd00;stroke:#dbcd00;" x="869.11371" xlink:href="#m5ae9b23675" y="79.656188"/>
     <use style="fill:#dbcd00;stroke:#dbcd00;" x="880.513098" xlink:href="#m5ae9b23675" y="70.297368"/>
     <use style="fill:#dbcd00;stroke:#dbcd00;" x="891.912485" xlink:href="#m5ae9b23675" y="70.297368"/>
     <use style="fill:#dbcd00;stroke:#dbcd00;" x="903.311872" xlink:href="#m5ae9b23675" y="70.297368"/>
     <use style="fill:#dbcd00;stroke:#dbcd00;" x="926.110646" xlink:href="#m5ae9b23675" y="70.297368"/>
     <use style="fill:#dbcd00;stroke:#dbcd00;" x="937.510033" xlink:href="#m5ae9b23675" y="70.297368"/>
     <use style="fill:#dbcd00;stroke:#dbcd00;" x="948.90942" xlink:href="#m5ae9b23675" y="70.297368"/>
     <use style="fill:#dbcd00;stroke:#dbcd00;" x="960.308807" xlink:href="#m5ae9b23675" y="69.628881"/>
     <use style="fill:#dbcd00;stroke:#dbcd00;" x="971.708195" xlink:href="#m5ae9b23675" y="67.623419"/>
     <use style="fill:#dbcd00;stroke:#dbcd00;" x="983.107582" xlink:href="#m5ae9b23675" y="66.286445"/>
     <use style="fill:#dbcd00;stroke:#dbcd00;" x="1005.906356" xlink:href="#m5ae9b23675" y="66.286445"/>
     <use style="fill:#dbcd00;stroke:#dbcd00;" x="1017.305743" xlink:href="#m5ae9b23675" y="66.286445"/>
     <use style="fill:#dbcd00;stroke:#dbcd00;" x="1028.70513" xlink:href="#m5ae9b23675" y="63.612496"/>
     <use style="fill:#dbcd00;stroke:#dbcd00;" x="1051.503904" xlink:href="#m5ae9b23675" y="62.944009"/>
     <use style="fill:#dbcd00;stroke:#dbcd00;" x="1062.903292" xlink:href="#m5ae9b23675" y="58.264599"/>
     <use style="fill:#dbcd00;stroke:#dbcd00;" x="1085.702066" xlink:href="#m5ae9b23675" y="58.264599"/>
     <use style="fill:#dbcd00;stroke:#dbcd00;" x="1097.101453" xlink:href="#m5ae9b23675" y="54.253676"/>
     <use style="fill:#dbcd00;stroke:#dbcd00;" x="1119.900227" xlink:href="#m5ae9b23675" y="46.900317"/>
    </g>
   </g>
   <g id="line2d_25">
    <path clip-path="url(#p052b7c0c7b)" d="M 105.354773 479.411513 
L 139.552934 478.743026 
L 162.351708 477.406052 
L 207.949257 476.737564 
L 219.348644 476.069077 
L 230.748031 474.732103 
L 242.147418 469.384206 
L 253.546805 460.693872 
L 264.946193 451.335052 
L 276.34558 441.976232 
L 287.744967 421.25313 
L 299.144354 413.899771 
L 310.543741 393.176669 
L 321.943128 367.774156 
L 333.342515 337.692234 
L 344.741902 321.648542 
L 356.14129 306.273337 
L 367.540677 301.593927 
L 378.940064 291.56662 
L 390.339451 272.180492 
L 401.738838 276.191415 
L 413.138225 271.512005 
L 424.537612 252.794364 
L 447.336387 247.446467 
L 458.735774 256.1368 
L 470.135161 272.180492 
L 481.534548 282.207799 
L 492.933935 302.930901 
L 527.132097 301.593927 
L 538.531484 330.338875 
L 549.930871 342.371644 
L 561.330258 354.404413 
L 572.729645 355.0729 
L 618.327194 375.127515 
L 629.726581 391.171207 
L 641.125968 391.171207 
L 652.525355 396.519105 
L 663.924742 392.508182 
L 686.723516 413.899771 
L 698.122903 426.601027 
L 709.522291 436.628334 
L 720.921678 438.633796 
L 732.321065 442.644719 
L 743.720452 443.313206 
L 766.519226 442.644719 
L 777.918613 441.307745 
L 789.318001 454.009001 
L 800.717388 453.340514 
L 823.516162 456.014462 
L 846.314936 458.019924 
L 857.714323 466.04177 
L 869.11371 466.04177 
L 880.513098 473.395129 
L 891.912485 472.058154 
L 903.311872 469.384206 
L 926.110646 468.047231 
L 937.510033 466.04177 
L 948.90942 465.373283 
L 960.308807 464.704795 
L 971.708195 453.340514 
L 983.107582 453.340514 
L 1005.906356 449.998078 
L 1017.305743 443.313206 
L 1028.70513 441.976232 
L 1051.503904 439.302283 
L 1062.903292 443.981693 
L 1085.702066 438.633796 
L 1097.101453 442.644719 
L 1119.900227 449.329591 
" style="fill:none;stroke:#2792cb;stroke-linecap:square;stroke-width:2;"/>
    <defs>
     <path d="M 0 1.5 
C 0.397805 1.5 0.77937 1.341951 1.06066 1.06066 
C 1.341951 0.77937 1.5 0.397805 1.5 0 
C 1.5 -0.397805 1.341951 -0.77937 1.06066 -1.06066 
C 0.77937 -1.341951 0.397805 -1.5 0 -1.5 
C -0.397805 -1.5 -0.77937 -1.341951 -1.06066 -1.06066 
C -1.341951 -0.77937 -1.5 -0.397805 -1.5 0 
C -1.5 0.397805 -1.341951 0.77937 -1.06066 1.06066 
C -0.77937 1.341951 -0.397805 1.5 0 1.5 
z
" id="m311050d0cf" style="stroke:#2792cb;"/>
    </defs>
    <g clip-path="url(#p052b7c0c7b)">
     <use style="fill:#2792cb;stroke:#2792cb;" x="105.354773" xlink:href="#m311050d0cf" y="479.411513"/>
     <use style="fill:#2792cb;stroke:#2792cb;" x="139.552934" xlink:href="#m311050d0cf" y="478.743026"/>
     <use style="fill:#2792cb;stroke:#2792cb;" x="162.351708" xlink:href="#m311050d0cf" y="477.406052"/>
     <use style="fill:#2792cb;stroke:#2792cb;" x="207.949257" xlink:href="#m311050d0cf" y="476.737564"/>
     <use style="fill:#2792cb;stroke:#2792cb;" x="219.348644" xlink:href="#m311050d0cf" y="476.069077"/>
     <use style="fill:#2792cb;stroke:#2792cb;" x="230.748031" xlink:href="#m311050d0cf" y="474.732103"/>
     <use style="fill:#2792cb;stroke:#2792cb;" x="242.147418" xlink:href="#m311050d0cf" y="469.384206"/>
     <use style="fill:#2792cb;stroke:#2792cb;" x="253.546805" xlink:href="#m311050d0cf" y="460.693872"/>
     <use style="fill:#2792cb;stroke:#2792cb;" x="264.946193" xlink:href="#m311050d0cf" y="451.335052"/>
     <use style="fill:#2792cb;stroke:#2792cb;" x="276.34558" xlink:href="#m311050d0cf" y="441.976232"/>
     <use style="fill:#2792cb;stroke:#2792cb;" x="287.744967" xlink:href="#m311050d0cf" y="421.25313"/>
     <use style="fill:#2792cb;stroke:#2792cb;" x="299.144354" xlink:href="#m311050d0cf" y="413.899771"/>
     <use style="fill:#2792cb;stroke:#2792cb;" x="310.543741" xlink:href="#m311050d0cf" y="393.176669"/>
     <use style="fill:#2792cb;stroke:#2792cb;" x="321.943128" xlink:href="#m311050d0cf" y="367.774156"/>
     <use style="fill:#2792cb;stroke:#2792cb;" x="333.342515" xlink:href="#m311050d0cf" y="337.692234"/>
     <use style="fill:#2792cb;stroke:#2792cb;" x="344.741902" xlink:href="#m311050d0cf" y="321.648542"/>
     <use style="fill:#2792cb;stroke:#2792cb;" x="356.14129" xlink:href="#m311050d0cf" y="306.273337"/>
     <use style="fill:#2792cb;stroke:#2792cb;" x="367.540677" xlink:href="#m311050d0cf" y="301.593927"/>
     <use style="fill:#2792cb;stroke:#2792cb;" x="378.940064" xlink:href="#m311050d0cf" y="291.56662"/>
     <use style="fill:#2792cb;stroke:#2792cb;" x="390.339451" xlink:href="#m311050d0cf" y="272.180492"/>
     <use style="fill:#2792cb;stroke:#2792cb;" x="401.738838" xlink:href="#m311050d0cf" y="276.191415"/>
     <use style="fill:#2792cb;stroke:#2792cb;" x="413.138225" xlink:href="#m311050d0cf" y="271.512005"/>
     <use style="fill:#2792cb;stroke:#2792cb;" x="424.537612" xlink:href="#m311050d0cf" y="252.794364"/>
     <use style="fill:#2792cb;stroke:#2792cb;" x="447.336387" xlink:href="#m311050d0cf" y="247.446467"/>
     <use style="fill:#2792cb;stroke:#2792cb;" x="458.735774" xlink:href="#m311050d0cf" y="256.1368"/>
     <use style="fill:#2792cb;stroke:#2792cb;" x="470.135161" xlink:href="#m311050d0cf" y="272.180492"/>
     <use style="fill:#2792cb;stroke:#2792cb;" x="481.534548" xlink:href="#m311050d0cf" y="282.207799"/>
     <use style="fill:#2792cb;stroke:#2792cb;" x="492.933935" xlink:href="#m311050d0cf" y="302.930901"/>
     <use style="fill:#2792cb;stroke:#2792cb;" x="527.132097" xlink:href="#m311050d0cf" y="301.593927"/>
     <use style="fill:#2792cb;stroke:#2792cb;" x="538.531484" xlink:href="#m311050d0cf" y="330.338875"/>
     <use style="fill:#2792cb;stroke:#2792cb;" x="549.930871" xlink:href="#m311050d0cf" y="342.371644"/>
     <use style="fill:#2792cb;stroke:#2792cb;" x="561.330258" xlink:href="#m311050d0cf" y="354.404413"/>
     <use style="fill:#2792cb;stroke:#2792cb;" x="572.729645" xlink:href="#m311050d0cf" y="355.0729"/>
     <use style="fill:#2792cb;stroke:#2792cb;" x="618.327194" xlink:href="#m311050d0cf" y="375.127515"/>
     <use style="fill:#2792cb;stroke:#2792cb;" x="629.726581" xlink:href="#m311050d0cf" y="391.171207"/>
     <use style="fill:#2792cb;stroke:#2792cb;" x="641.125968" xlink:href="#m311050d0cf" y="391.171207"/>
     <use style="fill:#2792cb;stroke:#2792cb;" x="652.525355" xlink:href="#m311050d0cf" y="396.519105"/>
     <use style="fill:#2792cb;stroke:#2792cb;" x="663.924742" xlink:href="#m311050d0cf" y="392.508182"/>
     <use style="fill:#2792cb;stroke:#2792cb;" x="686.723516" xlink:href="#m311050d0cf" y="413.899771"/>
     <use style="fill:#2792cb;stroke:#2792cb;" x="698.122903" xlink:href="#m311050d0cf" y="426.601027"/>
     <use style="fill:#2792cb;stroke:#2792cb;" x="709.522291" xlink:href="#m311050d0cf" y="436.628334"/>
     <use style="fill:#2792cb;stroke:#2792cb;" x="720.921678" xlink:href="#m311050d0cf" y="438.633796"/>
     <use style="fill:#2792cb;stroke:#2792cb;" x="732.321065" xlink:href="#m311050d0cf" y="442.644719"/>
     <use style="fill:#2792cb;stroke:#2792cb;" x="743.720452" xlink:href="#m311050d0cf" y="443.313206"/>
     <use style="fill:#2792cb;stroke:#2792cb;" x="766.519226" xlink:href="#m311050d0cf" y="442.644719"/>
     <use style="fill:#2792cb;stroke:#2792cb;" x="777.918613" xlink:href="#m311050d0cf" y="441.307745"/>
     <use style="fill:#2792cb;stroke:#2792cb;" x="789.318001" xlink:href="#m311050d0cf" y="454.009001"/>
     <use style="fill:#2792cb;stroke:#2792cb;" x="800.717388" xlink:href="#m311050d0cf" y="453.340514"/>
     <use style="fill:#2792cb;stroke:#2792cb;" x="823.516162" xlink:href="#m311050d0cf" y="456.014462"/>
     <use style="fill:#2792cb;stroke:#2792cb;" x="846.314936" xlink:href="#m311050d0cf" y="458.019924"/>
     <use style="fill:#2792cb;stroke:#2792cb;" x="857.714323" xlink:href="#m311050d0cf" y="466.04177"/>
     <use style="fill:#2792cb;stroke:#2792cb;" x="869.11371" xlink:href="#m311050d0cf" y="466.04177"/>
     <use style="fill:#2792cb;stroke:#2792cb;" x="880.513098" xlink:href="#m311050d0cf" y="473.395129"/>
     <use style="fill:#2792cb;stroke:#2792cb;" x="891.912485" xlink:href="#m311050d0cf" y="472.058154"/>
     <use style="fill:#2792cb;stroke:#2792cb;" x="903.311872" xlink:href="#m311050d0cf" y="469.384206"/>
     <use style="fill:#2792cb;stroke:#2792cb;" x="926.110646" xlink:href="#m311050d0cf" y="468.047231"/>
     <use style="fill:#2792cb;stroke:#2792cb;" x="937.510033" xlink:href="#m311050d0cf" y="466.04177"/>
     <use style="fill:#2792cb;stroke:#2792cb;" x="948.90942" xlink:href="#m311050d0cf" y="465.373283"/>
     <use style="fill:#2792cb;stroke:#2792cb;" x="960.308807" xlink:href="#m311050d0cf" y="464.704795"/>
     <use style="fill:#2792cb;stroke:#2792cb;" x="971.708195" xlink:href="#m311050d0cf" y="453.340514"/>
     <use style="fill:#2792cb;stroke:#2792cb;" x="983.107582" xlink:href="#m311050d0cf" y="453.340514"/>
     <use style="fill:#2792cb;stroke:#2792cb;" x="1005.906356" xlink:href="#m311050d0cf" y="449.998078"/>
     <use style="fill:#2792cb;stroke:#2792cb;" x="1017.305743" xlink:href="#m311050d0cf" y="443.313206"/>
     <use style="fill:#2792cb;stroke:#2792cb;" x="1028.70513" xlink:href="#m311050d0cf" y="441.976232"/>
     <use style="fill:#2792cb;stroke:#2792cb;" x="1051.503904" xlink:href="#m311050d0cf" y="439.302283"/>
     <use style="fill:#2792cb;stroke:#2792cb;" x="1062.903292" xlink:href="#m311050d0cf" y="443.981693"/>
     <use style="fill:#2792cb;stroke:#2792cb;" x="1085.702066" xlink:href="#m311050d0cf" y="438.633796"/>
     <use style="fill:#2792cb;stroke:#2792cb;" x="1097.101453" xlink:href="#m311050d0cf" y="442.644719"/>
     <use style="fill:#2792cb;stroke:#2792cb;" x="1119.900227" xlink:href="#m311050d0cf" y="449.329591"/>
    </g>
   </g>
   <g id="patch_3">
    <path d="M 54.6275 501.738984 
L 1170.6275 501.738984 
" style="fill:none;stroke:#000000;stroke-linecap:square;stroke-linejoin:miter;stroke-width:0.8;"/>
   </g>
   <g id="legend_1">
    <g id="line2d_26">
     <path d="M 63.6275 25.237422 
L 83.6275 25.237422 
" style="fill:none;stroke:#dbcd00;stroke-linecap:square;stroke-width:2;"/>
    </g>
    <g id="line2d_27">
     <g>
      <use style="fill:#dbcd00;stroke:#dbcd00;" x="73.6275" xlink:href="#m5ae9b23675" y="25.237422"/>
     </g>
    </g>
    <g id="text_17">
     <!-- Genesene -->
     <defs>
      <path d="M 59.515625 10.40625 
L 59.515625 29.984375 
L 43.40625 29.984375 
L 43.40625 38.09375 
L 69.28125 38.09375 
L 69.28125 6.78125 
Q 63.578125 2.734375 56.6875 0.65625 
Q 49.8125 -1.421875 42 -1.421875 
Q 24.90625 -1.421875 15.25 8.5625 
Q 5.609375 18.5625 5.609375 36.375 
Q 5.609375 54.25 15.25 64.234375 
Q 24.90625 74.21875 42 74.21875 
Q 49.125 74.21875 55.546875 72.453125 
Q 61.96875 70.703125 67.390625 67.28125 
L 67.390625 56.78125 
Q 61.921875 61.421875 55.765625 63.765625 
Q 49.609375 66.109375 42.828125 66.109375 
Q 29.4375 66.109375 22.71875 58.640625 
Q 16.015625 51.171875 16.015625 36.375 
Q 16.015625 21.625 22.71875 14.15625 
Q 29.4375 6.6875 42.828125 6.6875 
Q 48.046875 6.6875 52.140625 7.59375 
Q 56.25 8.5 59.515625 10.40625 
z
" id="DejaVuSans-71"/>
      <path d="M 44.28125 53.078125 
L 44.28125 44.578125 
Q 40.484375 46.53125 36.375 47.5 
Q 32.28125 48.484375 27.875 48.484375 
Q 21.1875 48.484375 17.84375 46.4375 
Q 14.5 44.390625 14.5 40.28125 
Q 14.5 37.15625 16.890625 35.375 
Q 19.28125 33.59375 26.515625 31.984375 
L 29.59375 31.296875 
Q 39.15625 29.25 43.1875 25.515625 
Q 47.21875 21.78125 47.21875 15.09375 
Q 47.21875 7.46875 41.1875 3.015625 
Q 35.15625 -1.421875 24.609375 -1.421875 
Q 20.21875 -1.421875 15.453125 -0.5625 
Q 10.6875 0.296875 5.421875 2 
L 5.421875 11.28125 
Q 10.40625 8.6875 15.234375 7.390625 
Q 20.0625 6.109375 24.8125 6.109375 
Q 31.15625 6.109375 34.5625 8.28125 
Q 37.984375 10.453125 37.984375 14.40625 
Q 37.984375 18.0625 35.515625 20.015625 
Q 33.0625 21.96875 24.703125 23.78125 
L 21.578125 24.515625 
Q 13.234375 26.265625 9.515625 29.90625 
Q 5.8125 33.546875 5.8125 39.890625 
Q 5.8125 47.609375 11.28125 51.796875 
Q 16.75 56 26.8125 56 
Q 31.78125 56 36.171875 55.265625 
Q 40.578125 54.546875 44.28125 53.078125 
z
" id="DejaVuSans-115"/>
     </defs>
     <g transform="translate(91.6275 28.737422)scale(0.1 -0.1)">
      <use xlink:href="#DejaVuSans-71"/>
      <use x="77.490234" xlink:href="#DejaVuSans-101"/>
      <use x="139.013672" xlink:href="#DejaVuSans-110"/>
      <use x="202.392578" xlink:href="#DejaVuSans-101"/>
      <use x="263.916016" xlink:href="#DejaVuSans-115"/>
      <use x="316.015625" xlink:href="#DejaVuSans-101"/>
      <use x="377.539062" xlink:href="#DejaVuSans-110"/>
      <use x="440.917969" xlink:href="#DejaVuSans-101"/>
     </g>
    </g>
    <g id="line2d_28">
     <path d="M 63.6275 39.915547 
L 83.6275 39.915547 
" style="fill:none;stroke:#2792cb;stroke-linecap:square;stroke-width:2;"/>
    </g>
    <g id="line2d_29">
     <g>
      <use style="fill:#2792cb;stroke:#2792cb;" x="73.6275" xlink:href="#m311050d0cf" y="39.915547"/>
     </g>
    </g>
    <g id="text_18">
     <!-- Erkrankte -->
     <defs>
      <path d="M 9.8125 72.90625 
L 55.90625 72.90625 
L 55.90625 64.59375 
L 19.671875 64.59375 
L 19.671875 43.015625 
L 54.390625 43.015625 
L 54.390625 34.71875 
L 19.671875 34.71875 
L 19.671875 8.296875 
L 56.78125 8.296875 
L 56.78125 0 
L 9.8125 0 
z
" id="DejaVuSans-69"/>
      <path d="M 41.109375 46.296875 
Q 39.59375 47.171875 37.8125 47.578125 
Q 36.03125 48 33.890625 48 
Q 26.265625 48 22.1875 43.046875 
Q 18.109375 38.09375 18.109375 28.8125 
L 18.109375 0 
L 9.078125 0 
L 9.078125 54.6875 
L 18.109375 54.6875 
L 18.109375 46.1875 
Q 20.953125 51.171875 25.484375 53.578125 
Q 30.03125 56 36.53125 56 
Q 37.453125 56 38.578125 55.875 
Q 39.703125 55.765625 41.0625 55.515625 
z
" id="DejaVuSans-114"/>
      <path d="M 9.078125 75.984375 
L 18.109375 75.984375 
L 18.109375 31.109375 
L 44.921875 54.6875 
L 56.390625 54.6875 
L 27.390625 29.109375 
L 57.625 0 
L 45.90625 0 
L 18.109375 26.703125 
L 18.109375 0 
L 9.078125 0 
z
" id="DejaVuSans-107"/>
      <path d="M 18.3125 70.21875 
L 18.3125 54.6875 
L 36.8125 54.6875 
L 36.8125 47.703125 
L 18.3125 47.703125 
L 18.3125 18.015625 
Q 18.3125 11.328125 20.140625 9.421875 
Q 21.96875 7.515625 27.59375 7.515625 
L 36.8125 7.515625 
L 36.8125 0 
L 27.59375 0 
Q 17.1875 0 13.234375 3.875 
Q 9.28125 7.765625 9.28125 18.015625 
L 9.28125 47.703125 
L 2.6875 47.703125 
L 2.6875 54.6875 
L 9.28125 54.6875 
L 9.28125 70.21875 
z
" id="DejaVuSans-116"/>
     </defs>
     <g transform="translate(91.6275 43.415547)scale(0.1 -0.1)">
      <use xlink:href="#DejaVuSans-69"/>
      <use x="63.183594" xlink:href="#DejaVuSans-114"/>
      <use x="104.296875" xlink:href="#DejaVuSans-107"/>
      <use x="162.207031" xlink:href="#DejaVuSans-114"/>
      <use x="203.320312" xlink:href="#DejaVuSans-97"/>
      <use x="264.599609" xlink:href="#DejaVuSans-110"/>
      <use x="327.978516" xlink:href="#DejaVuSans-107"/>
      <use x="385.888672" xlink:href="#DejaVuSans-116"/>
      <use x="425.097656" xlink:href="#DejaVuSans-101"/>
     </g>
    </g>
   </g>
  </g>
 </g>
 <defs>
  <clipPath id="p052b7c0c7b">
   <rect height="489.6" width="1116" x="54.6275" y="12.138984"/>
  </clipPath>
 </defs>
</svg>
