<?xml version="1.0" encoding="utf-8" standalone="no"?>
<!DOCTYPE svg PUBLIC "-//W3C//DTD SVG 1.1//EN"
  "http://www.w3.org/Graphics/SVG/1.1/DTD/svg11.dtd">
<!-- Created with matplotlib (https://matplotlib.org/) -->
<svg height="564.610093pt" version="1.1" viewBox="0 0 1177.8275 564.610093" width="1177.8275pt" xmlns="http://www.w3.org/2000/svg" xmlns:xlink="http://www.w3.org/1999/xlink">
 <defs>
  <style type="text/css">
*{stroke-linecap:butt;stroke-linejoin:round;}
  </style>
 </defs>
 <g id="figure_1">
  <g id="patch_1">
   <path d="M 0 564.610093 
L 1177.8275 564.610093 
L 1177.8275 0 
L 0 0 
z
" style="fill:#ffffff;"/>
  </g>
  <g id="axes_1">
   <g id="patch_2">
    <path d="M 54.6275 501.738984 
L 1170.6275 501.738984 
L 1170.6275 12.138984 
L 54.6275 12.138984 
z
" style="fill:#ffffff;"/>
   </g>
   <g id="matplotlib.axis_1">
    <g id="xtick_1">
     <g id="line2d_1">
      <defs>
       <path d="M 0 0 
L 0 3.5 
" id="m9aef0d62f9" style="stroke:#000000;stroke-width:0.8;"/>
      </defs>
      <g>
       <use style="stroke:#000000;stroke-width:0.8;" x="243.70188" xlink:href="#m9aef0d62f9" y="501.738984"/>
      </g>
     </g>
     <g id="text_1">
      <!-- 2020-04-01 -->
      <defs>
       <path d="M 19.1875 8.296875 
L 53.609375 8.296875 
L 53.609375 0 
L 7.328125 0 
L 7.328125 8.296875 
Q 12.9375 14.109375 22.625 23.890625 
Q 32.328125 33.6875 34.8125 36.53125 
Q 39.546875 41.84375 41.421875 45.53125 
Q 43.3125 49.21875 43.3125 52.78125 
Q 43.3125 58.59375 39.234375 62.25 
Q 35.15625 65.921875 28.609375 65.921875 
Q 23.96875 65.921875 18.8125 64.3125 
Q 13.671875 62.703125 7.8125 59.421875 
L 7.8125 69.390625 
Q 13.765625 71.78125 18.9375 73 
Q 24.125 74.21875 28.421875 74.21875 
Q 39.75 74.21875 46.484375 68.546875 
Q 53.21875 62.890625 53.21875 53.421875 
Q 53.21875 48.921875 51.53125 44.890625 
Q 49.859375 40.875 45.40625 35.40625 
Q 44.1875 33.984375 37.640625 27.21875 
Q 31.109375 20.453125 19.1875 8.296875 
z
" id="DejaVuSans-50"/>
       <path d="M 31.78125 66.40625 
Q 24.171875 66.40625 20.328125 58.90625 
Q 16.5 51.421875 16.5 36.375 
Q 16.5 21.390625 20.328125 13.890625 
Q 24.171875 6.390625 31.78125 6.390625 
Q 39.453125 6.390625 43.28125 13.890625 
Q 47.125 21.390625 47.125 36.375 
Q 47.125 51.421875 43.28125 58.90625 
Q 39.453125 66.40625 31.78125 66.40625 
z
M 31.78125 74.21875 
Q 44.046875 74.21875 50.515625 64.515625 
Q 56.984375 54.828125 56.984375 36.375 
Q 56.984375 17.96875 50.515625 8.265625 
Q 44.046875 -1.421875 31.78125 -1.421875 
Q 19.53125 -1.421875 13.0625 8.265625 
Q 6.59375 17.96875 6.59375 36.375 
Q 6.59375 54.828125 13.0625 64.515625 
Q 19.53125 74.21875 31.78125 74.21875 
z
" id="DejaVuSans-48"/>
       <path d="M 4.890625 31.390625 
L 31.203125 31.390625 
L 31.203125 23.390625 
L 4.890625 23.390625 
z
" id="DejaVuSans-45"/>
       <path d="M 37.796875 64.3125 
L 12.890625 25.390625 
L 37.796875 25.390625 
z
M 35.203125 72.90625 
L 47.609375 72.90625 
L 47.609375 25.390625 
L 58.015625 25.390625 
L 58.015625 17.1875 
L 47.609375 17.1875 
L 47.609375 0 
L 37.796875 0 
L 37.796875 17.1875 
L 4.890625 17.1875 
L 4.890625 26.703125 
z
" id="DejaVuSans-52"/>
       <path d="M 12.40625 8.296875 
L 28.515625 8.296875 
L 28.515625 63.921875 
L 10.984375 60.40625 
L 10.984375 69.390625 
L 28.421875 72.90625 
L 38.28125 72.90625 
L 38.28125 8.296875 
L 54.390625 8.296875 
L 54.390625 0 
L 12.40625 0 
z
" id="DejaVuSans-49"/>
      </defs>
      <g transform="translate(176.921593 555.068713)rotate(-30)scale(0.13 -0.13)">
       <use xlink:href="#DejaVuSans-50"/>
       <use x="63.623047" xlink:href="#DejaVuSans-48"/>
       <use x="127.246094" xlink:href="#DejaVuSans-50"/>
       <use x="190.869141" xlink:href="#DejaVuSans-48"/>
       <use x="254.492188" xlink:href="#DejaVuSans-45"/>
       <use x="290.576172" xlink:href="#DejaVuSans-48"/>
       <use x="354.199219" xlink:href="#DejaVuSans-52"/>
       <use x="417.822266" xlink:href="#DejaVuSans-45"/>
       <use x="453.90625" xlink:href="#DejaVuSans-48"/>
       <use x="517.529297" xlink:href="#DejaVuSans-49"/>
      </g>
     </g>
    </g>
    <g id="xtick_2">
     <g id="line2d_2">
      <g>
       <use style="stroke:#000000;stroke-width:0.8;" x="458.908492" xlink:href="#m9aef0d62f9" y="501.738984"/>
      </g>
     </g>
     <g id="text_2">
      <!-- 2020-04-15 -->
      <defs>
       <path d="M 10.796875 72.90625 
L 49.515625 72.90625 
L 49.515625 64.59375 
L 19.828125 64.59375 
L 19.828125 46.734375 
Q 21.96875 47.46875 24.109375 47.828125 
Q 26.265625 48.1875 28.421875 48.1875 
Q 40.625 48.1875 47.75 41.5 
Q 54.890625 34.8125 54.890625 23.390625 
Q 54.890625 11.625 47.5625 5.09375 
Q 40.234375 -1.421875 26.90625 -1.421875 
Q 22.3125 -1.421875 17.546875 -0.640625 
Q 12.796875 0.140625 7.71875 1.703125 
L 7.71875 11.625 
Q 12.109375 9.234375 16.796875 8.0625 
Q 21.484375 6.890625 26.703125 6.890625 
Q 35.15625 6.890625 40.078125 11.328125 
Q 45.015625 15.765625 45.015625 23.390625 
Q 45.015625 31 40.078125 35.4375 
Q 35.15625 39.890625 26.703125 39.890625 
Q 22.75 39.890625 18.8125 39.015625 
Q 14.890625 38.140625 10.796875 36.28125 
z
" id="DejaVuSans-53"/>
      </defs>
      <g transform="translate(392.128205 555.068713)rotate(-30)scale(0.13 -0.13)">
       <use xlink:href="#DejaVuSans-50"/>
       <use x="63.623047" xlink:href="#DejaVuSans-48"/>
       <use x="127.246094" xlink:href="#DejaVuSans-50"/>
       <use x="190.869141" xlink:href="#DejaVuSans-48"/>
       <use x="254.492188" xlink:href="#DejaVuSans-45"/>
       <use x="290.576172" xlink:href="#DejaVuSans-48"/>
       <use x="354.199219" xlink:href="#DejaVuSans-52"/>
       <use x="417.822266" xlink:href="#DejaVuSans-45"/>
       <use x="453.90625" xlink:href="#DejaVuSans-49"/>
       <use x="517.529297" xlink:href="#DejaVuSans-53"/>
      </g>
     </g>
    </g>
    <g id="xtick_3">
     <g id="line2d_3">
      <g>
       <use style="stroke:#000000;stroke-width:0.8;" x="704.858905" xlink:href="#m9aef0d62f9" y="501.738984"/>
      </g>
     </g>
     <g id="text_3">
      <!-- 2020-05-01 -->
      <g transform="translate(638.078618 555.068713)rotate(-30)scale(0.13 -0.13)">
       <use xlink:href="#DejaVuSans-50"/>
       <use x="63.623047" xlink:href="#DejaVuSans-48"/>
       <use x="127.246094" xlink:href="#DejaVuSans-50"/>
       <use x="190.869141" xlink:href="#DejaVuSans-48"/>
       <use x="254.492188" xlink:href="#DejaVuSans-45"/>
       <use x="290.576172" xlink:href="#DejaVuSans-48"/>
       <use x="354.199219" xlink:href="#DejaVuSans-53"/>
       <use x="417.822266" xlink:href="#DejaVuSans-45"/>
       <use x="453.90625" xlink:href="#DejaVuSans-48"/>
       <use x="517.529297" xlink:href="#DejaVuSans-49"/>
      </g>
     </g>
    </g>
    <g id="xtick_4">
     <g id="line2d_4">
      <g>
       <use style="stroke:#000000;stroke-width:0.8;" x="920.065517" xlink:href="#m9aef0d62f9" y="501.738984"/>
      </g>
     </g>
     <g id="text_4">
      <!-- 2020-05-15 -->
      <g transform="translate(853.28523 555.068713)rotate(-30)scale(0.13 -0.13)">
       <use xlink:href="#DejaVuSans-50"/>
       <use x="63.623047" xlink:href="#DejaVuSans-48"/>
       <use x="127.246094" xlink:href="#DejaVuSans-50"/>
       <use x="190.869141" xlink:href="#DejaVuSans-48"/>
       <use x="254.492188" xlink:href="#DejaVuSans-45"/>
       <use x="290.576172" xlink:href="#DejaVuSans-48"/>
       <use x="354.199219" xlink:href="#DejaVuSans-53"/>
       <use x="417.822266" xlink:href="#DejaVuSans-45"/>
       <use x="453.90625" xlink:href="#DejaVuSans-49"/>
       <use x="517.529297" xlink:href="#DejaVuSans-53"/>
      </g>
     </g>
    </g>
   </g>
   <g id="matplotlib.axis_2">
    <g id="ytick_1">
     <g id="line2d_5">
      <path clip-path="url(#p1d2975145c)" d="M 54.6275 485.639951 
L 1170.6275 485.639951 
" style="fill:none;stroke:#b0b0b0;stroke-linecap:square;stroke-width:0.8;"/>
     </g>
     <g id="line2d_6">
      <defs>
       <path d="M 0 0 
L -3.5 0 
" id="m540aa5baf4" style="stroke:#000000;stroke-width:0.8;"/>
      </defs>
      <g>
       <use style="stroke:#000000;stroke-width:0.8;" x="54.6275" xlink:href="#m540aa5baf4" y="485.639951"/>
      </g>
     </g>
     <g id="text_5">
      <!-- 0 -->
      <g transform="translate(39.35625 490.578936)scale(0.13 -0.13)">
       <use xlink:href="#DejaVuSans-48"/>
      </g>
     </g>
    </g>
    <g id="ytick_2">
     <g id="line2d_7">
      <path clip-path="url(#p1d2975145c)" d="M 54.6275 248.889468 
L 1170.6275 248.889468 
" style="fill:none;stroke:#b0b0b0;stroke-linecap:square;stroke-width:0.8;"/>
     </g>
     <g id="line2d_8">
      <g>
       <use style="stroke:#000000;stroke-width:0.8;" x="54.6275" xlink:href="#m540aa5baf4" y="248.889468"/>
      </g>
     </g>
     <g id="text_6">
      <!-- 100 -->
      <g transform="translate(22.81375 253.828452)scale(0.13 -0.13)">
       <use xlink:href="#DejaVuSans-49"/>
       <use x="63.623047" xlink:href="#DejaVuSans-48"/>
       <use x="127.246094" xlink:href="#DejaVuSans-48"/>
      </g>
     </g>
    </g>
    <g id="ytick_3">
     <g id="line2d_9">
      <path clip-path="url(#p1d2975145c)" d="M 54.6275 12.138984 
L 1170.6275 12.138984 
" style="fill:none;stroke:#b0b0b0;stroke-linecap:square;stroke-width:0.8;"/>
     </g>
     <g id="line2d_10">
      <g>
       <use style="stroke:#000000;stroke-width:0.8;" x="54.6275" xlink:href="#m540aa5baf4" y="12.138984"/>
      </g>
     </g>
     <g id="text_7">
      <!-- 200 -->
      <g transform="translate(22.81375 17.077969)scale(0.13 -0.13)">
       <use xlink:href="#DejaVuSans-50"/>
       <use x="63.623047" xlink:href="#DejaVuSans-48"/>
       <use x="127.246094" xlink:href="#DejaVuSans-48"/>
      </g>
     </g>
    </g>
    <g id="text_8">
     <!-- Anzahl von Fällen -->
     <defs>
      <path d="M 34.1875 63.1875 
L 20.796875 26.90625 
L 47.609375 26.90625 
z
M 28.609375 72.90625 
L 39.796875 72.90625 
L 67.578125 0 
L 57.328125 0 
L 50.6875 18.703125 
L 17.828125 18.703125 
L 11.1875 0 
L 0.78125 0 
z
" id="DejaVuSans-65"/>
      <path d="M 54.890625 33.015625 
L 54.890625 0 
L 45.90625 0 
L 45.90625 32.71875 
Q 45.90625 40.484375 42.875 44.328125 
Q 39.84375 48.1875 33.796875 48.1875 
Q 26.515625 48.1875 22.3125 43.546875 
Q 18.109375 38.921875 18.109375 30.90625 
L 18.109375 0 
L 9.078125 0 
L 9.078125 54.6875 
L 18.109375 54.6875 
L 18.109375 46.1875 
Q 21.34375 51.125 25.703125 53.5625 
Q 30.078125 56 35.796875 56 
Q 45.21875 56 50.046875 50.171875 
Q 54.890625 44.34375 54.890625 33.015625 
z
" id="DejaVuSans-110"/>
      <path d="M 5.515625 54.6875 
L 48.1875 54.6875 
L 48.1875 46.484375 
L 14.40625 7.171875 
L 48.1875 7.171875 
L 48.1875 0 
L 4.296875 0 
L 4.296875 8.203125 
L 38.09375 47.515625 
L 5.515625 47.515625 
z
" id="DejaVuSans-122"/>
      <path d="M 34.28125 27.484375 
Q 23.390625 27.484375 19.1875 25 
Q 14.984375 22.515625 14.984375 16.5 
Q 14.984375 11.71875 18.140625 8.90625 
Q 21.296875 6.109375 26.703125 6.109375 
Q 34.1875 6.109375 38.703125 11.40625 
Q 43.21875 16.703125 43.21875 25.484375 
L 43.21875 27.484375 
z
M 52.203125 31.203125 
L 52.203125 0 
L 43.21875 0 
L 43.21875 8.296875 
Q 40.140625 3.328125 35.546875 0.953125 
Q 30.953125 -1.421875 24.3125 -1.421875 
Q 15.921875 -1.421875 10.953125 3.296875 
Q 6 8.015625 6 15.921875 
Q 6 25.140625 12.171875 29.828125 
Q 18.359375 34.515625 30.609375 34.515625 
L 43.21875 34.515625 
L 43.21875 35.40625 
Q 43.21875 41.609375 39.140625 45 
Q 35.0625 48.390625 27.6875 48.390625 
Q 23 48.390625 18.546875 47.265625 
Q 14.109375 46.140625 10.015625 43.890625 
L 10.015625 52.203125 
Q 14.9375 54.109375 19.578125 55.046875 
Q 24.21875 56 28.609375 56 
Q 40.484375 56 46.34375 49.84375 
Q 52.203125 43.703125 52.203125 31.203125 
z
" id="DejaVuSans-97"/>
      <path d="M 54.890625 33.015625 
L 54.890625 0 
L 45.90625 0 
L 45.90625 32.71875 
Q 45.90625 40.484375 42.875 44.328125 
Q 39.84375 48.1875 33.796875 48.1875 
Q 26.515625 48.1875 22.3125 43.546875 
Q 18.109375 38.921875 18.109375 30.90625 
L 18.109375 0 
L 9.078125 0 
L 9.078125 75.984375 
L 18.109375 75.984375 
L 18.109375 46.1875 
Q 21.34375 51.125 25.703125 53.5625 
Q 30.078125 56 35.796875 56 
Q 45.21875 56 50.046875 50.171875 
Q 54.890625 44.34375 54.890625 33.015625 
z
" id="DejaVuSans-104"/>
      <path d="M 9.421875 75.984375 
L 18.40625 75.984375 
L 18.40625 0 
L 9.421875 0 
z
" id="DejaVuSans-108"/>
      <path id="DejaVuSans-32"/>
      <path d="M 2.984375 54.6875 
L 12.5 54.6875 
L 29.59375 8.796875 
L 46.6875 54.6875 
L 56.203125 54.6875 
L 35.6875 0 
L 23.484375 0 
z
" id="DejaVuSans-118"/>
      <path d="M 30.609375 48.390625 
Q 23.390625 48.390625 19.1875 42.75 
Q 14.984375 37.109375 14.984375 27.296875 
Q 14.984375 17.484375 19.15625 11.84375 
Q 23.34375 6.203125 30.609375 6.203125 
Q 37.796875 6.203125 41.984375 11.859375 
Q 46.1875 17.53125 46.1875 27.296875 
Q 46.1875 37.015625 41.984375 42.703125 
Q 37.796875 48.390625 30.609375 48.390625 
z
M 30.609375 56 
Q 42.328125 56 49.015625 48.375 
Q 55.71875 40.765625 55.71875 27.296875 
Q 55.71875 13.875 49.015625 6.21875 
Q 42.328125 -1.421875 30.609375 -1.421875 
Q 18.84375 -1.421875 12.171875 6.21875 
Q 5.515625 13.875 5.515625 27.296875 
Q 5.515625 40.765625 12.171875 48.375 
Q 18.84375 56 30.609375 56 
z
" id="DejaVuSans-111"/>
      <path d="M 9.8125 72.90625 
L 51.703125 72.90625 
L 51.703125 64.59375 
L 19.671875 64.59375 
L 19.671875 43.109375 
L 48.578125 43.109375 
L 48.578125 34.8125 
L 19.671875 34.8125 
L 19.671875 0 
L 9.8125 0 
z
" id="DejaVuSans-70"/>
      <path d="M 34.28125 27.484375 
Q 23.390625 27.484375 19.1875 25 
Q 14.984375 22.515625 14.984375 16.5 
Q 14.984375 11.71875 18.140625 8.90625 
Q 21.296875 6.109375 26.703125 6.109375 
Q 34.1875 6.109375 38.703125 11.40625 
Q 43.21875 16.703125 43.21875 25.484375 
L 43.21875 27.484375 
z
M 52.203125 31.203125 
L 52.203125 0 
L 43.21875 0 
L 43.21875 8.296875 
Q 40.140625 3.328125 35.546875 0.953125 
Q 30.953125 -1.421875 24.3125 -1.421875 
Q 15.921875 -1.421875 10.953125 3.296875 
Q 6 8.015625 6 15.921875 
Q 6 25.140625 12.171875 29.828125 
Q 18.359375 34.515625 30.609375 34.515625 
L 43.21875 34.515625 
L 43.21875 35.40625 
Q 43.21875 41.609375 39.140625 45 
Q 35.0625 48.390625 27.6875 48.390625 
Q 23 48.390625 18.546875 47.265625 
Q 14.109375 46.140625 10.015625 43.890625 
L 10.015625 52.203125 
Q 14.9375 54.109375 19.578125 55.046875 
Q 24.21875 56 28.609375 56 
Q 40.484375 56 46.34375 49.84375 
Q 52.203125 43.703125 52.203125 31.203125 
z
M 33.59375 75.78125 
L 43.5 75.78125 
L 43.5 65.921875 
L 33.59375 65.921875 
z
M 14.5 75.78125 
L 24.40625 75.78125 
L 24.40625 65.921875 
L 14.5 65.921875 
z
" id="DejaVuSans-228"/>
      <path d="M 56.203125 29.59375 
L 56.203125 25.203125 
L 14.890625 25.203125 
Q 15.484375 15.921875 20.484375 11.0625 
Q 25.484375 6.203125 34.421875 6.203125 
Q 39.59375 6.203125 44.453125 7.46875 
Q 49.3125 8.734375 54.109375 11.28125 
L 54.109375 2.78125 
Q 49.265625 0.734375 44.1875 -0.34375 
Q 39.109375 -1.421875 33.890625 -1.421875 
Q 20.796875 -1.421875 13.15625 6.1875 
Q 5.515625 13.8125 5.515625 26.8125 
Q 5.515625 40.234375 12.765625 48.109375 
Q 20.015625 56 32.328125 56 
Q 43.359375 56 49.78125 48.890625 
Q 56.203125 41.796875 56.203125 29.59375 
z
M 47.21875 32.234375 
Q 47.125 39.59375 43.09375 43.984375 
Q 39.0625 48.390625 32.421875 48.390625 
Q 24.90625 48.390625 20.390625 44.140625 
Q 15.875 39.890625 15.1875 32.171875 
z
" id="DejaVuSans-101"/>
     </defs>
     <g transform="translate(16.318125 309.388359)rotate(-90)scale(0.12 -0.12)">
      <use xlink:href="#DejaVuSans-65"/>
      <use x="68.408203" xlink:href="#DejaVuSans-110"/>
      <use x="131.787109" xlink:href="#DejaVuSans-122"/>
      <use x="184.277344" xlink:href="#DejaVuSans-97"/>
      <use x="245.556641" xlink:href="#DejaVuSans-104"/>
      <use x="308.935547" xlink:href="#DejaVuSans-108"/>
      <use x="336.71875" xlink:href="#DejaVuSans-32"/>
      <use x="368.505859" xlink:href="#DejaVuSans-118"/>
      <use x="427.685547" xlink:href="#DejaVuSans-111"/>
      <use x="488.867188" xlink:href="#DejaVuSans-110"/>
      <use x="552.246094" xlink:href="#DejaVuSans-32"/>
      <use x="584.033203" xlink:href="#DejaVuSans-70"/>
      <use x="632.427734" xlink:href="#DejaVuSans-228"/>
      <use x="693.707031" xlink:href="#DejaVuSans-108"/>
      <use x="721.490234" xlink:href="#DejaVuSans-108"/>
      <use x="749.273438" xlink:href="#DejaVuSans-101"/>
      <use x="810.796875" xlink:href="#DejaVuSans-110"/>
     </g>
    </g>
   </g>
   <g id="line2d_11">
    <path clip-path="url(#p1d2975145c)" d="M 105.354773 480.904942 
L 120.726674 480.904942 
L 136.098574 480.904942 
L 151.470475 473.802427 
L 166.842376 473.802427 
L 182.214277 461.964903 
L 197.586178 461.964903 
L 212.958079 461.964903 
L 228.329979 461.964903 
L 243.70188 459.597398 
L 259.073781 452.494884 
L 274.445682 435.92235 
L 289.817583 424.084826 
L 305.189483 424.084826 
L 320.561384 421.717321 
L 335.933285 421.717321 
L 351.305186 414.614806 
L 366.677087 409.879797 
L 382.048988 398.042273 
L 412.792789 393.307263 
L 443.536591 383.837244 
L 458.908492 381.469739 
L 474.280393 381.469739 
L 489.652293 364.897205 
L 505.024194 364.897205 
L 535.767996 353.059681 
L 551.139897 345.957166 
L 566.511798 338.854652 
L 581.883698 322.282118 
L 597.255599 319.914613 
L 612.6275 317.547108 
L 643.371302 296.239565 
L 658.743202 282.034536 
L 674.115103 274.932021 
L 689.487004 260.726992 
L 720.230806 253.624478 
L 750.974607 234.684439 
L 766.346508 222.846915 
L 781.718409 215.7444 
L 797.09031 203.906876 
L 812.462211 201.539371 
L 827.834112 184.966837 
L 858.577913 173.129313 
L 873.949814 168.394304 
L 889.321715 151.82177 
L 904.693616 151.82177 
L 920.065517 135.249236 
L 935.437417 118.676702 
L 966.181219 104.471673 
L 981.55312 99.736663 
L 996.925021 92.634149 
L 1027.668822 78.42912 
L 1043.040723 73.69411 
L 1073.784525 71.326605 
L 1089.156426 71.326605 
L 1119.900227 64.224091 
" style="fill:none;stroke:#dbcd00;stroke-linecap:square;stroke-width:2;"/>
    <defs>
     <path d="M 0 1.5 
C 0.397805 1.5 0.77937 1.341951 1.06066 1.06066 
C 1.341951 0.77937 1.5 0.397805 1.5 0 
C 1.5 -0.397805 1.341951 -0.77937 1.06066 -1.06066 
C 0.77937 -1.341951 0.397805 -1.5 0 -1.5 
C -0.397805 -1.5 -0.77937 -1.341951 -1.06066 -1.06066 
C -1.341951 -0.77937 -1.5 -0.397805 -1.5 0 
C -1.5 0.397805 -1.341951 0.77937 -1.06066 1.06066 
C -0.77937 1.341951 -0.397805 1.5 0 1.5 
z
" id="m40cc0711f8" style="stroke:#dbcd00;"/>
    </defs>
    <g clip-path="url(#p1d2975145c)">
     <use style="fill:#dbcd00;stroke:#dbcd00;" x="105.354773" xlink:href="#m40cc0711f8" y="480.904942"/>
     <use style="fill:#dbcd00;stroke:#dbcd00;" x="120.726674" xlink:href="#m40cc0711f8" y="480.904942"/>
     <use style="fill:#dbcd00;stroke:#dbcd00;" x="136.098574" xlink:href="#m40cc0711f8" y="480.904942"/>
     <use style="fill:#dbcd00;stroke:#dbcd00;" x="151.470475" xlink:href="#m40cc0711f8" y="473.802427"/>
     <use style="fill:#dbcd00;stroke:#dbcd00;" x="166.842376" xlink:href="#m40cc0711f8" y="473.802427"/>
     <use style="fill:#dbcd00;stroke:#dbcd00;" x="182.214277" xlink:href="#m40cc0711f8" y="461.964903"/>
     <use style="fill:#dbcd00;stroke:#dbcd00;" x="197.586178" xlink:href="#m40cc0711f8" y="461.964903"/>
     <use style="fill:#dbcd00;stroke:#dbcd00;" x="212.958079" xlink:href="#m40cc0711f8" y="461.964903"/>
     <use style="fill:#dbcd00;stroke:#dbcd00;" x="228.329979" xlink:href="#m40cc0711f8" y="461.964903"/>
     <use style="fill:#dbcd00;stroke:#dbcd00;" x="243.70188" xlink:href="#m40cc0711f8" y="459.597398"/>
     <use style="fill:#dbcd00;stroke:#dbcd00;" x="259.073781" xlink:href="#m40cc0711f8" y="452.494884"/>
     <use style="fill:#dbcd00;stroke:#dbcd00;" x="274.445682" xlink:href="#m40cc0711f8" y="435.92235"/>
     <use style="fill:#dbcd00;stroke:#dbcd00;" x="289.817583" xlink:href="#m40cc0711f8" y="424.084826"/>
     <use style="fill:#dbcd00;stroke:#dbcd00;" x="305.189483" xlink:href="#m40cc0711f8" y="424.084826"/>
     <use style="fill:#dbcd00;stroke:#dbcd00;" x="320.561384" xlink:href="#m40cc0711f8" y="421.717321"/>
     <use style="fill:#dbcd00;stroke:#dbcd00;" x="335.933285" xlink:href="#m40cc0711f8" y="421.717321"/>
     <use style="fill:#dbcd00;stroke:#dbcd00;" x="351.305186" xlink:href="#m40cc0711f8" y="414.614806"/>
     <use style="fill:#dbcd00;stroke:#dbcd00;" x="366.677087" xlink:href="#m40cc0711f8" y="409.879797"/>
     <use style="fill:#dbcd00;stroke:#dbcd00;" x="382.048988" xlink:href="#m40cc0711f8" y="398.042273"/>
     <use style="fill:#dbcd00;stroke:#dbcd00;" x="412.792789" xlink:href="#m40cc0711f8" y="393.307263"/>
     <use style="fill:#dbcd00;stroke:#dbcd00;" x="443.536591" xlink:href="#m40cc0711f8" y="383.837244"/>
     <use style="fill:#dbcd00;stroke:#dbcd00;" x="458.908492" xlink:href="#m40cc0711f8" y="381.469739"/>
     <use style="fill:#dbcd00;stroke:#dbcd00;" x="474.280393" xlink:href="#m40cc0711f8" y="381.469739"/>
     <use style="fill:#dbcd00;stroke:#dbcd00;" x="489.652293" xlink:href="#m40cc0711f8" y="364.897205"/>
     <use style="fill:#dbcd00;stroke:#dbcd00;" x="505.024194" xlink:href="#m40cc0711f8" y="364.897205"/>
     <use style="fill:#dbcd00;stroke:#dbcd00;" x="535.767996" xlink:href="#m40cc0711f8" y="353.059681"/>
     <use style="fill:#dbcd00;stroke:#dbcd00;" x="551.139897" xlink:href="#m40cc0711f8" y="345.957166"/>
     <use style="fill:#dbcd00;stroke:#dbcd00;" x="566.511798" xlink:href="#m40cc0711f8" y="338.854652"/>
     <use style="fill:#dbcd00;stroke:#dbcd00;" x="581.883698" xlink:href="#m40cc0711f8" y="322.282118"/>
     <use style="fill:#dbcd00;stroke:#dbcd00;" x="597.255599" xlink:href="#m40cc0711f8" y="319.914613"/>
     <use style="fill:#dbcd00;stroke:#dbcd00;" x="612.6275" xlink:href="#m40cc0711f8" y="317.547108"/>
     <use style="fill:#dbcd00;stroke:#dbcd00;" x="643.371302" xlink:href="#m40cc0711f8" y="296.239565"/>
     <use style="fill:#dbcd00;stroke:#dbcd00;" x="658.743202" xlink:href="#m40cc0711f8" y="282.034536"/>
     <use style="fill:#dbcd00;stroke:#dbcd00;" x="674.115103" xlink:href="#m40cc0711f8" y="274.932021"/>
     <use style="fill:#dbcd00;stroke:#dbcd00;" x="689.487004" xlink:href="#m40cc0711f8" y="260.726992"/>
     <use style="fill:#dbcd00;stroke:#dbcd00;" x="720.230806" xlink:href="#m40cc0711f8" y="253.624478"/>
     <use style="fill:#dbcd00;stroke:#dbcd00;" x="750.974607" xlink:href="#m40cc0711f8" y="234.684439"/>
     <use style="fill:#dbcd00;stroke:#dbcd00;" x="766.346508" xlink:href="#m40cc0711f8" y="222.846915"/>
     <use style="fill:#dbcd00;stroke:#dbcd00;" x="781.718409" xlink:href="#m40cc0711f8" y="215.7444"/>
     <use style="fill:#dbcd00;stroke:#dbcd00;" x="797.09031" xlink:href="#m40cc0711f8" y="203.906876"/>
     <use style="fill:#dbcd00;stroke:#dbcd00;" x="812.462211" xlink:href="#m40cc0711f8" y="201.539371"/>
     <use style="fill:#dbcd00;stroke:#dbcd00;" x="827.834112" xlink:href="#m40cc0711f8" y="184.966837"/>
     <use style="fill:#dbcd00;stroke:#dbcd00;" x="858.577913" xlink:href="#m40cc0711f8" y="173.129313"/>
     <use style="fill:#dbcd00;stroke:#dbcd00;" x="873.949814" xlink:href="#m40cc0711f8" y="168.394304"/>
     <use style="fill:#dbcd00;stroke:#dbcd00;" x="889.321715" xlink:href="#m40cc0711f8" y="151.82177"/>
     <use style="fill:#dbcd00;stroke:#dbcd00;" x="904.693616" xlink:href="#m40cc0711f8" y="151.82177"/>
     <use style="fill:#dbcd00;stroke:#dbcd00;" x="920.065517" xlink:href="#m40cc0711f8" y="135.249236"/>
     <use style="fill:#dbcd00;stroke:#dbcd00;" x="935.437417" xlink:href="#m40cc0711f8" y="118.676702"/>
     <use style="fill:#dbcd00;stroke:#dbcd00;" x="966.181219" xlink:href="#m40cc0711f8" y="104.471673"/>
     <use style="fill:#dbcd00;stroke:#dbcd00;" x="981.55312" xlink:href="#m40cc0711f8" y="99.736663"/>
     <use style="fill:#dbcd00;stroke:#dbcd00;" x="996.925021" xlink:href="#m40cc0711f8" y="92.634149"/>
     <use style="fill:#dbcd00;stroke:#dbcd00;" x="1027.668822" xlink:href="#m40cc0711f8" y="78.42912"/>
     <use style="fill:#dbcd00;stroke:#dbcd00;" x="1043.040723" xlink:href="#m40cc0711f8" y="73.69411"/>
     <use style="fill:#dbcd00;stroke:#dbcd00;" x="1073.784525" xlink:href="#m40cc0711f8" y="71.326605"/>
     <use style="fill:#dbcd00;stroke:#dbcd00;" x="1089.156426" xlink:href="#m40cc0711f8" y="71.326605"/>
     <use style="fill:#dbcd00;stroke:#dbcd00;" x="1119.900227" xlink:href="#m40cc0711f8" y="64.224091"/>
    </g>
   </g>
   <g id="line2d_12">
    <path clip-path="url(#p1d2975145c)" d="M 105.354773 450.127379 
L 120.726674 447.759874 
L 136.098574 431.18734 
L 151.470475 445.392369 
L 166.842376 435.92235 
L 182.214277 424.084826 
L 197.586178 421.717321 
L 212.958079 416.982311 
L 228.329979 407.512292 
L 243.70188 407.512292 
L 259.073781 400.409777 
L 274.445682 407.512292 
L 289.817583 407.512292 
L 305.189483 405.144787 
L 320.561384 398.042273 
L 335.933285 388.572253 
L 351.305186 379.102234 
L 366.677087 374.367224 
L 382.048988 379.102234 
L 412.792789 379.102234 
L 443.536591 376.734729 
L 458.908492 364.897205 
L 474.280393 362.5297 
L 489.652293 369.632215 
L 505.024194 362.5297 
L 535.767996 364.897205 
L 551.139897 350.692176 
L 566.511798 357.79469 
L 581.883698 367.26471 
L 597.255599 364.897205 
L 612.6275 336.487147 
L 643.371302 353.059681 
L 658.743202 362.5297 
L 674.115103 367.26471 
L 689.487004 376.734729 
L 720.230806 364.897205 
L 750.974607 383.837244 
L 766.346508 364.897205 
L 781.718409 355.427186 
L 797.09031 367.26471 
L 812.462211 369.632215 
L 827.834112 381.469739 
L 858.577913 390.939758 
L 873.949814 393.307263 
L 889.321715 398.042273 
L 904.693616 398.042273 
L 920.065517 414.614806 
L 935.437417 426.452331 
L 966.181219 440.65736 
L 981.55312 443.024864 
L 996.925021 450.127379 
L 1027.668822 464.332408 
L 1043.040723 461.964903 
L 1073.784525 457.229893 
L 1089.156426 457.229893 
L 1119.900227 459.597398 
" style="fill:none;stroke:#2792cb;stroke-linecap:square;stroke-width:2;"/>
    <defs>
     <path d="M 0 1.5 
C 0.397805 1.5 0.77937 1.341951 1.06066 1.06066 
C 1.341951 0.77937 1.5 0.397805 1.5 0 
C 1.5 -0.397805 1.341951 -0.77937 1.06066 -1.06066 
C 0.77937 -1.341951 0.397805 -1.5 0 -1.5 
C -0.397805 -1.5 -0.77937 -1.341951 -1.06066 -1.06066 
C -1.341951 -0.77937 -1.5 -0.397805 -1.5 0 
C -1.5 0.397805 -1.341951 0.77937 -1.06066 1.06066 
C -0.77937 1.341951 -0.397805 1.5 0 1.5 
z
" id="me18f012250" style="stroke:#2792cb;"/>
    </defs>
    <g clip-path="url(#p1d2975145c)">
     <use style="fill:#2792cb;stroke:#2792cb;" x="105.354773" xlink:href="#me18f012250" y="450.127379"/>
     <use style="fill:#2792cb;stroke:#2792cb;" x="120.726674" xlink:href="#me18f012250" y="447.759874"/>
     <use style="fill:#2792cb;stroke:#2792cb;" x="136.098574" xlink:href="#me18f012250" y="431.18734"/>
     <use style="fill:#2792cb;stroke:#2792cb;" x="151.470475" xlink:href="#me18f012250" y="445.392369"/>
     <use style="fill:#2792cb;stroke:#2792cb;" x="166.842376" xlink:href="#me18f012250" y="435.92235"/>
     <use style="fill:#2792cb;stroke:#2792cb;" x="182.214277" xlink:href="#me18f012250" y="424.084826"/>
     <use style="fill:#2792cb;stroke:#2792cb;" x="197.586178" xlink:href="#me18f012250" y="421.717321"/>
     <use style="fill:#2792cb;stroke:#2792cb;" x="212.958079" xlink:href="#me18f012250" y="416.982311"/>
     <use style="fill:#2792cb;stroke:#2792cb;" x="228.329979" xlink:href="#me18f012250" y="407.512292"/>
     <use style="fill:#2792cb;stroke:#2792cb;" x="243.70188" xlink:href="#me18f012250" y="407.512292"/>
     <use style="fill:#2792cb;stroke:#2792cb;" x="259.073781" xlink:href="#me18f012250" y="400.409777"/>
     <use style="fill:#2792cb;stroke:#2792cb;" x="274.445682" xlink:href="#me18f012250" y="407.512292"/>
     <use style="fill:#2792cb;stroke:#2792cb;" x="289.817583" xlink:href="#me18f012250" y="407.512292"/>
     <use style="fill:#2792cb;stroke:#2792cb;" x="305.189483" xlink:href="#me18f012250" y="405.144787"/>
     <use style="fill:#2792cb;stroke:#2792cb;" x="320.561384" xlink:href="#me18f012250" y="398.042273"/>
     <use style="fill:#2792cb;stroke:#2792cb;" x="335.933285" xlink:href="#me18f012250" y="388.572253"/>
     <use style="fill:#2792cb;stroke:#2792cb;" x="351.305186" xlink:href="#me18f012250" y="379.102234"/>
     <use style="fill:#2792cb;stroke:#2792cb;" x="366.677087" xlink:href="#me18f012250" y="374.367224"/>
     <use style="fill:#2792cb;stroke:#2792cb;" x="382.048988" xlink:href="#me18f012250" y="379.102234"/>
     <use style="fill:#2792cb;stroke:#2792cb;" x="412.792789" xlink:href="#me18f012250" y="379.102234"/>
     <use style="fill:#2792cb;stroke:#2792cb;" x="443.536591" xlink:href="#me18f012250" y="376.734729"/>
     <use style="fill:#2792cb;stroke:#2792cb;" x="458.908492" xlink:href="#me18f012250" y="364.897205"/>
     <use style="fill:#2792cb;stroke:#2792cb;" x="474.280393" xlink:href="#me18f012250" y="362.5297"/>
     <use style="fill:#2792cb;stroke:#2792cb;" x="489.652293" xlink:href="#me18f012250" y="369.632215"/>
     <use style="fill:#2792cb;stroke:#2792cb;" x="505.024194" xlink:href="#me18f012250" y="362.5297"/>
     <use style="fill:#2792cb;stroke:#2792cb;" x="535.767996" xlink:href="#me18f012250" y="364.897205"/>
     <use style="fill:#2792cb;stroke:#2792cb;" x="551.139897" xlink:href="#me18f012250" y="350.692176"/>
     <use style="fill:#2792cb;stroke:#2792cb;" x="566.511798" xlink:href="#me18f012250" y="357.79469"/>
     <use style="fill:#2792cb;stroke:#2792cb;" x="581.883698" xlink:href="#me18f012250" y="367.26471"/>
     <use style="fill:#2792cb;stroke:#2792cb;" x="597.255599" xlink:href="#me18f012250" y="364.897205"/>
     <use style="fill:#2792cb;stroke:#2792cb;" x="612.6275" xlink:href="#me18f012250" y="336.487147"/>
     <use style="fill:#2792cb;stroke:#2792cb;" x="643.371302" xlink:href="#me18f012250" y="353.059681"/>
     <use style="fill:#2792cb;stroke:#2792cb;" x="658.743202" xlink:href="#me18f012250" y="362.5297"/>
     <use style="fill:#2792cb;stroke:#2792cb;" x="674.115103" xlink:href="#me18f012250" y="367.26471"/>
     <use style="fill:#2792cb;stroke:#2792cb;" x="689.487004" xlink:href="#me18f012250" y="376.734729"/>
     <use style="fill:#2792cb;stroke:#2792cb;" x="720.230806" xlink:href="#me18f012250" y="364.897205"/>
     <use style="fill:#2792cb;stroke:#2792cb;" x="750.974607" xlink:href="#me18f012250" y="383.837244"/>
     <use style="fill:#2792cb;stroke:#2792cb;" x="766.346508" xlink:href="#me18f012250" y="364.897205"/>
     <use style="fill:#2792cb;stroke:#2792cb;" x="781.718409" xlink:href="#me18f012250" y="355.427186"/>
     <use style="fill:#2792cb;stroke:#2792cb;" x="797.09031" xlink:href="#me18f012250" y="367.26471"/>
     <use style="fill:#2792cb;stroke:#2792cb;" x="812.462211" xlink:href="#me18f012250" y="369.632215"/>
     <use style="fill:#2792cb;stroke:#2792cb;" x="827.834112" xlink:href="#me18f012250" y="381.469739"/>
     <use style="fill:#2792cb;stroke:#2792cb;" x="858.577913" xlink:href="#me18f012250" y="390.939758"/>
     <use style="fill:#2792cb;stroke:#2792cb;" x="873.949814" xlink:href="#me18f012250" y="393.307263"/>
     <use style="fill:#2792cb;stroke:#2792cb;" x="889.321715" xlink:href="#me18f012250" y="398.042273"/>
     <use style="fill:#2792cb;stroke:#2792cb;" x="904.693616" xlink:href="#me18f012250" y="398.042273"/>
     <use style="fill:#2792cb;stroke:#2792cb;" x="920.065517" xlink:href="#me18f012250" y="414.614806"/>
     <use style="fill:#2792cb;stroke:#2792cb;" x="935.437417" xlink:href="#me18f012250" y="426.452331"/>
     <use style="fill:#2792cb;stroke:#2792cb;" x="966.181219" xlink:href="#me18f012250" y="440.65736"/>
     <use style="fill:#2792cb;stroke:#2792cb;" x="981.55312" xlink:href="#me18f012250" y="443.024864"/>
     <use style="fill:#2792cb;stroke:#2792cb;" x="996.925021" xlink:href="#me18f012250" y="450.127379"/>
     <use style="fill:#2792cb;stroke:#2792cb;" x="1027.668822" xlink:href="#me18f012250" y="464.332408"/>
     <use style="fill:#2792cb;stroke:#2792cb;" x="1043.040723" xlink:href="#me18f012250" y="461.964903"/>
     <use style="fill:#2792cb;stroke:#2792cb;" x="1073.784525" xlink:href="#me18f012250" y="457.229893"/>
     <use style="fill:#2792cb;stroke:#2792cb;" x="1089.156426" xlink:href="#me18f012250" y="457.229893"/>
     <use style="fill:#2792cb;stroke:#2792cb;" x="1119.900227" xlink:href="#me18f012250" y="459.597398"/>
    </g>
   </g>
   <g id="patch_3">
    <path d="M 54.6275 501.738984 
L 1170.6275 501.738984 
" style="fill:none;stroke:#000000;stroke-linecap:square;stroke-linejoin:miter;stroke-width:0.8;"/>
   </g>
   <g id="legend_1">
    <g id="line2d_13">
     <path d="M 1083.382188 25.237422 
L 1103.382188 25.237422 
" style="fill:none;stroke:#dbcd00;stroke-linecap:square;stroke-width:2;"/>
    </g>
    <g id="line2d_14">
     <g>
      <use style="fill:#dbcd00;stroke:#dbcd00;" x="1093.382188" xlink:href="#m40cc0711f8" y="25.237422"/>
     </g>
    </g>
    <g id="text_9">
     <!-- Genesene -->
     <defs>
      <path d="M 59.515625 10.40625 
L 59.515625 29.984375 
L 43.40625 29.984375 
L 43.40625 38.09375 
L 69.28125 38.09375 
L 69.28125 6.78125 
Q 63.578125 2.734375 56.6875 0.65625 
Q 49.8125 -1.421875 42 -1.421875 
Q 24.90625 -1.421875 15.25 8.5625 
Q 5.609375 18.5625 5.609375 36.375 
Q 5.609375 54.25 15.25 64.234375 
Q 24.90625 74.21875 42 74.21875 
Q 49.125 74.21875 55.546875 72.453125 
Q 61.96875 70.703125 67.390625 67.28125 
L 67.390625 56.78125 
Q 61.921875 61.421875 55.765625 63.765625 
Q 49.609375 66.109375 42.828125 66.109375 
Q 29.4375 66.109375 22.71875 58.640625 
Q 16.015625 51.171875 16.015625 36.375 
Q 16.015625 21.625 22.71875 14.15625 
Q 29.4375 6.6875 42.828125 6.6875 
Q 48.046875 6.6875 52.140625 7.59375 
Q 56.25 8.5 59.515625 10.40625 
z
" id="DejaVuSans-71"/>
      <path d="M 44.28125 53.078125 
L 44.28125 44.578125 
Q 40.484375 46.53125 36.375 47.5 
Q 32.28125 48.484375 27.875 48.484375 
Q 21.1875 48.484375 17.84375 46.4375 
Q 14.5 44.390625 14.5 40.28125 
Q 14.5 37.15625 16.890625 35.375 
Q 19.28125 33.59375 26.515625 31.984375 
L 29.59375 31.296875 
Q 39.15625 29.25 43.1875 25.515625 
Q 47.21875 21.78125 47.21875 15.09375 
Q 47.21875 7.46875 41.1875 3.015625 
Q 35.15625 -1.421875 24.609375 -1.421875 
Q 20.21875 -1.421875 15.453125 -0.5625 
Q 10.6875 0.296875 5.421875 2 
L 5.421875 11.28125 
Q 10.40625 8.6875 15.234375 7.390625 
Q 20.0625 6.109375 24.8125 6.109375 
Q 31.15625 6.109375 34.5625 8.28125 
Q 37.984375 10.453125 37.984375 14.40625 
Q 37.984375 18.0625 35.515625 20.015625 
Q 33.0625 21.96875 24.703125 23.78125 
L 21.578125 24.515625 
Q 13.234375 26.265625 9.515625 29.90625 
Q 5.8125 33.546875 5.8125 39.890625 
Q 5.8125 47.609375 11.28125 51.796875 
Q 16.75 56 26.8125 56 
Q 31.78125 56 36.171875 55.265625 
Q 40.578125 54.546875 44.28125 53.078125 
z
" id="DejaVuSans-115"/>
     </defs>
     <g transform="translate(1111.382188 28.737422)scale(0.1 -0.1)">
      <use xlink:href="#DejaVuSans-71"/>
      <use x="77.490234" xlink:href="#DejaVuSans-101"/>
      <use x="139.013672" xlink:href="#DejaVuSans-110"/>
      <use x="202.392578" xlink:href="#DejaVuSans-101"/>
      <use x="263.916016" xlink:href="#DejaVuSans-115"/>
      <use x="316.015625" xlink:href="#DejaVuSans-101"/>
      <use x="377.539062" xlink:href="#DejaVuSans-110"/>
      <use x="440.917969" xlink:href="#DejaVuSans-101"/>
     </g>
    </g>
    <g id="line2d_15">
     <path d="M 1083.382188 39.915547 
L 1103.382188 39.915547 
" style="fill:none;stroke:#2792cb;stroke-linecap:square;stroke-width:2;"/>
    </g>
    <g id="line2d_16">
     <g>
      <use style="fill:#2792cb;stroke:#2792cb;" x="1093.382188" xlink:href="#me18f012250" y="39.915547"/>
     </g>
    </g>
    <g id="text_10">
     <!-- Erkrankte -->
     <defs>
      <path d="M 9.8125 72.90625 
L 55.90625 72.90625 
L 55.90625 64.59375 
L 19.671875 64.59375 
L 19.671875 43.015625 
L 54.390625 43.015625 
L 54.390625 34.71875 
L 19.671875 34.71875 
L 19.671875 8.296875 
L 56.78125 8.296875 
L 56.78125 0 
L 9.8125 0 
z
" id="DejaVuSans-69"/>
      <path d="M 41.109375 46.296875 
Q 39.59375 47.171875 37.8125 47.578125 
Q 36.03125 48 33.890625 48 
Q 26.265625 48 22.1875 43.046875 
Q 18.109375 38.09375 18.109375 28.8125 
L 18.109375 0 
L 9.078125 0 
L 9.078125 54.6875 
L 18.109375 54.6875 
L 18.109375 46.1875 
Q 20.953125 51.171875 25.484375 53.578125 
Q 30.03125 56 36.53125 56 
Q 37.453125 56 38.578125 55.875 
Q 39.703125 55.765625 41.0625 55.515625 
z
" id="DejaVuSans-114"/>
      <path d="M 9.078125 75.984375 
L 18.109375 75.984375 
L 18.109375 31.109375 
L 44.921875 54.6875 
L 56.390625 54.6875 
L 27.390625 29.109375 
L 57.625 0 
L 45.90625 0 
L 18.109375 26.703125 
L 18.109375 0 
L 9.078125 0 
z
" id="DejaVuSans-107"/>
      <path d="M 18.3125 70.21875 
L 18.3125 54.6875 
L 36.8125 54.6875 
L 36.8125 47.703125 
L 18.3125 47.703125 
L 18.3125 18.015625 
Q 18.3125 11.328125 20.140625 9.421875 
Q 21.96875 7.515625 27.59375 7.515625 
L 36.8125 7.515625 
L 36.8125 0 
L 27.59375 0 
Q 17.1875 0 13.234375 3.875 
Q 9.28125 7.765625 9.28125 18.015625 
L 9.28125 47.703125 
L 2.6875 47.703125 
L 2.6875 54.6875 
L 9.28125 54.6875 
L 9.28125 70.21875 
z
" id="DejaVuSans-116"/>
     </defs>
     <g transform="translate(1111.382188 43.415547)scale(0.1 -0.1)">
      <use xlink:href="#DejaVuSans-69"/>
      <use x="63.183594" xlink:href="#DejaVuSans-114"/>
      <use x="104.296875" xlink:href="#DejaVuSans-107"/>
      <use x="162.207031" xlink:href="#DejaVuSans-114"/>
      <use x="203.320312" xlink:href="#DejaVuSans-97"/>
      <use x="264.599609" xlink:href="#DejaVuSans-110"/>
      <use x="327.978516" xlink:href="#DejaVuSans-107"/>
      <use x="385.888672" xlink:href="#DejaVuSans-116"/>
      <use x="425.097656" xlink:href="#DejaVuSans-101"/>
     </g>
    </g>
   </g>
  </g>
 </g>
 <defs>
  <clipPath id="p1d2975145c">
   <rect height="489.6" width="1116" x="54.6275" y="12.138984"/>
  </clipPath>
 </defs>
</svg>
