<?xml version="1.0" encoding="utf-8" standalone="no"?>
<!DOCTYPE svg PUBLIC "-//W3C//DTD SVG 1.1//EN"
  "http://www.w3.org/Graphics/SVG/1.1/DTD/svg11.dtd">
<!-- Created with matplotlib (https://matplotlib.org/) -->
<svg height="559.671109pt" version="1.1" viewBox="0 0 1177.8275 559.671109" width="1177.8275pt" xmlns="http://www.w3.org/2000/svg" xmlns:xlink="http://www.w3.org/1999/xlink">
 <defs>
  <style type="text/css">
*{stroke-linecap:butt;stroke-linejoin:round;}
  </style>
 </defs>
 <g id="figure_1">
  <g id="patch_1">
   <path d="M 0 559.671109 
L 1177.8275 559.671109 
L 1177.8275 0 
L 0 0 
z
" style="fill:#ffffff;"/>
  </g>
  <g id="axes_1">
   <g id="patch_2">
    <path d="M 54.6275 496.8 
L 1170.6275 496.8 
L 1170.6275 7.2 
L 54.6275 7.2 
z
" style="fill:#ffffff;"/>
   </g>
   <g id="matplotlib.axis_1">
    <g id="xtick_1">
     <g id="line2d_1">
      <defs>
       <path d="M 0 0 
L 0 3.5 
" id="mf1e5df5dfc" style="stroke:#000000;stroke-width:0.8;"/>
      </defs>
      <g>
       <use style="stroke:#000000;stroke-width:0.8;" x="114.662529" xlink:href="#mf1e5df5dfc" y="496.8"/>
      </g>
     </g>
     <g id="text_1">
      <!-- 2020-03-01 -->
      <defs>
       <path d="M 19.1875 8.296875 
L 53.609375 8.296875 
L 53.609375 0 
L 7.328125 0 
L 7.328125 8.296875 
Q 12.9375 14.109375 22.625 23.890625 
Q 32.328125 33.6875 34.8125 36.53125 
Q 39.546875 41.84375 41.421875 45.53125 
Q 43.3125 49.21875 43.3125 52.78125 
Q 43.3125 58.59375 39.234375 62.25 
Q 35.15625 65.921875 28.609375 65.921875 
Q 23.96875 65.921875 18.8125 64.3125 
Q 13.671875 62.703125 7.8125 59.421875 
L 7.8125 69.390625 
Q 13.765625 71.78125 18.9375 73 
Q 24.125 74.21875 28.421875 74.21875 
Q 39.75 74.21875 46.484375 68.546875 
Q 53.21875 62.890625 53.21875 53.421875 
Q 53.21875 48.921875 51.53125 44.890625 
Q 49.859375 40.875 45.40625 35.40625 
Q 44.1875 33.984375 37.640625 27.21875 
Q 31.109375 20.453125 19.1875 8.296875 
z
" id="DejaVuSans-50"/>
       <path d="M 31.78125 66.40625 
Q 24.171875 66.40625 20.328125 58.90625 
Q 16.5 51.421875 16.5 36.375 
Q 16.5 21.390625 20.328125 13.890625 
Q 24.171875 6.390625 31.78125 6.390625 
Q 39.453125 6.390625 43.28125 13.890625 
Q 47.125 21.390625 47.125 36.375 
Q 47.125 51.421875 43.28125 58.90625 
Q 39.453125 66.40625 31.78125 66.40625 
z
M 31.78125 74.21875 
Q 44.046875 74.21875 50.515625 64.515625 
Q 56.984375 54.828125 56.984375 36.375 
Q 56.984375 17.96875 50.515625 8.265625 
Q 44.046875 -1.421875 31.78125 -1.421875 
Q 19.53125 -1.421875 13.0625 8.265625 
Q 6.59375 17.96875 6.59375 36.375 
Q 6.59375 54.828125 13.0625 64.515625 
Q 19.53125 74.21875 31.78125 74.21875 
z
" id="DejaVuSans-48"/>
       <path d="M 4.890625 31.390625 
L 31.203125 31.390625 
L 31.203125 23.390625 
L 4.890625 23.390625 
z
" id="DejaVuSans-45"/>
       <path d="M 40.578125 39.3125 
Q 47.65625 37.796875 51.625 33 
Q 55.609375 28.21875 55.609375 21.1875 
Q 55.609375 10.40625 48.1875 4.484375 
Q 40.765625 -1.421875 27.09375 -1.421875 
Q 22.515625 -1.421875 17.65625 -0.515625 
Q 12.796875 0.390625 7.625 2.203125 
L 7.625 11.71875 
Q 11.71875 9.328125 16.59375 8.109375 
Q 21.484375 6.890625 26.8125 6.890625 
Q 36.078125 6.890625 40.9375 10.546875 
Q 45.796875 14.203125 45.796875 21.1875 
Q 45.796875 27.640625 41.28125 31.265625 
Q 36.765625 34.90625 28.71875 34.90625 
L 20.21875 34.90625 
L 20.21875 43.015625 
L 29.109375 43.015625 
Q 36.375 43.015625 40.234375 45.921875 
Q 44.09375 48.828125 44.09375 54.296875 
Q 44.09375 59.90625 40.109375 62.90625 
Q 36.140625 65.921875 28.71875 65.921875 
Q 24.65625 65.921875 20.015625 65.03125 
Q 15.375 64.15625 9.8125 62.3125 
L 9.8125 71.09375 
Q 15.4375 72.65625 20.34375 73.4375 
Q 25.25 74.21875 29.59375 74.21875 
Q 40.828125 74.21875 47.359375 69.109375 
Q 53.90625 64.015625 53.90625 55.328125 
Q 53.90625 49.265625 50.4375 45.09375 
Q 46.96875 40.921875 40.578125 39.3125 
z
" id="DejaVuSans-51"/>
       <path d="M 12.40625 8.296875 
L 28.515625 8.296875 
L 28.515625 63.921875 
L 10.984375 60.40625 
L 10.984375 69.390625 
L 28.421875 72.90625 
L 38.28125 72.90625 
L 38.28125 8.296875 
L 54.390625 8.296875 
L 54.390625 0 
L 12.40625 0 
z
" id="DejaVuSans-49"/>
      </defs>
      <g transform="translate(47.882242 550.129728)rotate(-30)scale(0.13 -0.13)">
       <use xlink:href="#DejaVuSans-50"/>
       <use x="63.623047" xlink:href="#DejaVuSans-48"/>
       <use x="127.246094" xlink:href="#DejaVuSans-50"/>
       <use x="190.869141" xlink:href="#DejaVuSans-48"/>
       <use x="254.492188" xlink:href="#DejaVuSans-45"/>
       <use x="290.576172" xlink:href="#DejaVuSans-48"/>
       <use x="354.199219" xlink:href="#DejaVuSans-51"/>
       <use x="417.822266" xlink:href="#DejaVuSans-45"/>
       <use x="453.90625" xlink:href="#DejaVuSans-48"/>
       <use x="517.529297" xlink:href="#DejaVuSans-49"/>
      </g>
     </g>
    </g>
    <g id="xtick_2">
     <g id="line2d_2">
      <g>
       <use style="stroke:#000000;stroke-width:0.8;" x="244.97112" xlink:href="#mf1e5df5dfc" y="496.8"/>
      </g>
     </g>
     <g id="text_2">
      <!-- 2020-03-15 -->
      <defs>
       <path d="M 10.796875 72.90625 
L 49.515625 72.90625 
L 49.515625 64.59375 
L 19.828125 64.59375 
L 19.828125 46.734375 
Q 21.96875 47.46875 24.109375 47.828125 
Q 26.265625 48.1875 28.421875 48.1875 
Q 40.625 48.1875 47.75 41.5 
Q 54.890625 34.8125 54.890625 23.390625 
Q 54.890625 11.625 47.5625 5.09375 
Q 40.234375 -1.421875 26.90625 -1.421875 
Q 22.3125 -1.421875 17.546875 -0.640625 
Q 12.796875 0.140625 7.71875 1.703125 
L 7.71875 11.625 
Q 12.109375 9.234375 16.796875 8.0625 
Q 21.484375 6.890625 26.703125 6.890625 
Q 35.15625 6.890625 40.078125 11.328125 
Q 45.015625 15.765625 45.015625 23.390625 
Q 45.015625 31 40.078125 35.4375 
Q 35.15625 39.890625 26.703125 39.890625 
Q 22.75 39.890625 18.8125 39.015625 
Q 14.890625 38.140625 10.796875 36.28125 
z
" id="DejaVuSans-53"/>
      </defs>
      <g transform="translate(178.190833 550.129728)rotate(-30)scale(0.13 -0.13)">
       <use xlink:href="#DejaVuSans-50"/>
       <use x="63.623047" xlink:href="#DejaVuSans-48"/>
       <use x="127.246094" xlink:href="#DejaVuSans-50"/>
       <use x="190.869141" xlink:href="#DejaVuSans-48"/>
       <use x="254.492188" xlink:href="#DejaVuSans-45"/>
       <use x="290.576172" xlink:href="#DejaVuSans-48"/>
       <use x="354.199219" xlink:href="#DejaVuSans-51"/>
       <use x="417.822266" xlink:href="#DejaVuSans-45"/>
       <use x="453.90625" xlink:href="#DejaVuSans-49"/>
       <use x="517.529297" xlink:href="#DejaVuSans-53"/>
      </g>
     </g>
    </g>
    <g id="xtick_3">
     <g id="line2d_3">
      <g>
       <use style="stroke:#000000;stroke-width:0.8;" x="403.20298" xlink:href="#mf1e5df5dfc" y="496.8"/>
      </g>
     </g>
     <g id="text_3">
      <!-- 2020-04-01 -->
      <defs>
       <path d="M 37.796875 64.3125 
L 12.890625 25.390625 
L 37.796875 25.390625 
z
M 35.203125 72.90625 
L 47.609375 72.90625 
L 47.609375 25.390625 
L 58.015625 25.390625 
L 58.015625 17.1875 
L 47.609375 17.1875 
L 47.609375 0 
L 37.796875 0 
L 37.796875 17.1875 
L 4.890625 17.1875 
L 4.890625 26.703125 
z
" id="DejaVuSans-52"/>
      </defs>
      <g transform="translate(336.422693 550.129728)rotate(-30)scale(0.13 -0.13)">
       <use xlink:href="#DejaVuSans-50"/>
       <use x="63.623047" xlink:href="#DejaVuSans-48"/>
       <use x="127.246094" xlink:href="#DejaVuSans-50"/>
       <use x="190.869141" xlink:href="#DejaVuSans-48"/>
       <use x="254.492188" xlink:href="#DejaVuSans-45"/>
       <use x="290.576172" xlink:href="#DejaVuSans-48"/>
       <use x="354.199219" xlink:href="#DejaVuSans-52"/>
       <use x="417.822266" xlink:href="#DejaVuSans-45"/>
       <use x="453.90625" xlink:href="#DejaVuSans-48"/>
       <use x="517.529297" xlink:href="#DejaVuSans-49"/>
      </g>
     </g>
    </g>
    <g id="xtick_4">
     <g id="line2d_4">
      <g>
       <use style="stroke:#000000;stroke-width:0.8;" x="533.51157" xlink:href="#mf1e5df5dfc" y="496.8"/>
      </g>
     </g>
     <g id="text_4">
      <!-- 2020-04-15 -->
      <g transform="translate(466.731283 550.129728)rotate(-30)scale(0.13 -0.13)">
       <use xlink:href="#DejaVuSans-50"/>
       <use x="63.623047" xlink:href="#DejaVuSans-48"/>
       <use x="127.246094" xlink:href="#DejaVuSans-50"/>
       <use x="190.869141" xlink:href="#DejaVuSans-48"/>
       <use x="254.492188" xlink:href="#DejaVuSans-45"/>
       <use x="290.576172" xlink:href="#DejaVuSans-48"/>
       <use x="354.199219" xlink:href="#DejaVuSans-52"/>
       <use x="417.822266" xlink:href="#DejaVuSans-45"/>
       <use x="453.90625" xlink:href="#DejaVuSans-49"/>
       <use x="517.529297" xlink:href="#DejaVuSans-53"/>
      </g>
     </g>
    </g>
    <g id="xtick_5">
     <g id="line2d_5">
      <g>
       <use style="stroke:#000000;stroke-width:0.8;" x="682.435673" xlink:href="#mf1e5df5dfc" y="496.8"/>
      </g>
     </g>
     <g id="text_5">
      <!-- 2020-05-01 -->
      <g transform="translate(615.655387 550.129728)rotate(-30)scale(0.13 -0.13)">
       <use xlink:href="#DejaVuSans-50"/>
       <use x="63.623047" xlink:href="#DejaVuSans-48"/>
       <use x="127.246094" xlink:href="#DejaVuSans-50"/>
       <use x="190.869141" xlink:href="#DejaVuSans-48"/>
       <use x="254.492188" xlink:href="#DejaVuSans-45"/>
       <use x="290.576172" xlink:href="#DejaVuSans-48"/>
       <use x="354.199219" xlink:href="#DejaVuSans-53"/>
       <use x="417.822266" xlink:href="#DejaVuSans-45"/>
       <use x="453.90625" xlink:href="#DejaVuSans-48"/>
       <use x="517.529297" xlink:href="#DejaVuSans-49"/>
      </g>
     </g>
    </g>
    <g id="xtick_6">
     <g id="line2d_6">
      <g>
       <use style="stroke:#000000;stroke-width:0.8;" x="812.744264" xlink:href="#mf1e5df5dfc" y="496.8"/>
      </g>
     </g>
     <g id="text_6">
      <!-- 2020-05-15 -->
      <g transform="translate(745.963977 550.129728)rotate(-30)scale(0.13 -0.13)">
       <use xlink:href="#DejaVuSans-50"/>
       <use x="63.623047" xlink:href="#DejaVuSans-48"/>
       <use x="127.246094" xlink:href="#DejaVuSans-50"/>
       <use x="190.869141" xlink:href="#DejaVuSans-48"/>
       <use x="254.492188" xlink:href="#DejaVuSans-45"/>
       <use x="290.576172" xlink:href="#DejaVuSans-48"/>
       <use x="354.199219" xlink:href="#DejaVuSans-53"/>
       <use x="417.822266" xlink:href="#DejaVuSans-45"/>
       <use x="453.90625" xlink:href="#DejaVuSans-49"/>
       <use x="517.529297" xlink:href="#DejaVuSans-53"/>
      </g>
     </g>
    </g>
    <g id="xtick_7">
     <g id="line2d_7">
      <g>
       <use style="stroke:#000000;stroke-width:0.8;" x="970.976124" xlink:href="#mf1e5df5dfc" y="496.8"/>
      </g>
     </g>
     <g id="text_7">
      <!-- 2020-06-01 -->
      <defs>
       <path d="M 33.015625 40.375 
Q 26.375 40.375 22.484375 35.828125 
Q 18.609375 31.296875 18.609375 23.390625 
Q 18.609375 15.53125 22.484375 10.953125 
Q 26.375 6.390625 33.015625 6.390625 
Q 39.65625 6.390625 43.53125 10.953125 
Q 47.40625 15.53125 47.40625 23.390625 
Q 47.40625 31.296875 43.53125 35.828125 
Q 39.65625 40.375 33.015625 40.375 
z
M 52.59375 71.296875 
L 52.59375 62.3125 
Q 48.875 64.0625 45.09375 64.984375 
Q 41.3125 65.921875 37.59375 65.921875 
Q 27.828125 65.921875 22.671875 59.328125 
Q 17.53125 52.734375 16.796875 39.40625 
Q 19.671875 43.65625 24.015625 45.921875 
Q 28.375 48.1875 33.59375 48.1875 
Q 44.578125 48.1875 50.953125 41.515625 
Q 57.328125 34.859375 57.328125 23.390625 
Q 57.328125 12.15625 50.6875 5.359375 
Q 44.046875 -1.421875 33.015625 -1.421875 
Q 20.359375 -1.421875 13.671875 8.265625 
Q 6.984375 17.96875 6.984375 36.375 
Q 6.984375 53.65625 15.1875 63.9375 
Q 23.390625 74.21875 37.203125 74.21875 
Q 40.921875 74.21875 44.703125 73.484375 
Q 48.484375 72.75 52.59375 71.296875 
z
" id="DejaVuSans-54"/>
      </defs>
      <g transform="translate(904.195837 550.129728)rotate(-30)scale(0.13 -0.13)">
       <use xlink:href="#DejaVuSans-50"/>
       <use x="63.623047" xlink:href="#DejaVuSans-48"/>
       <use x="127.246094" xlink:href="#DejaVuSans-50"/>
       <use x="190.869141" xlink:href="#DejaVuSans-48"/>
       <use x="254.492188" xlink:href="#DejaVuSans-45"/>
       <use x="290.576172" xlink:href="#DejaVuSans-48"/>
       <use x="354.199219" xlink:href="#DejaVuSans-54"/>
       <use x="417.822266" xlink:href="#DejaVuSans-45"/>
       <use x="453.90625" xlink:href="#DejaVuSans-48"/>
       <use x="517.529297" xlink:href="#DejaVuSans-49"/>
      </g>
     </g>
    </g>
    <g id="xtick_8">
     <g id="line2d_8">
      <g>
       <use style="stroke:#000000;stroke-width:0.8;" x="1101.284714" xlink:href="#mf1e5df5dfc" y="496.8"/>
      </g>
     </g>
     <g id="text_8">
      <!-- 2020-06-15 -->
      <g transform="translate(1034.504428 550.129728)rotate(-30)scale(0.13 -0.13)">
       <use xlink:href="#DejaVuSans-50"/>
       <use x="63.623047" xlink:href="#DejaVuSans-48"/>
       <use x="127.246094" xlink:href="#DejaVuSans-50"/>
       <use x="190.869141" xlink:href="#DejaVuSans-48"/>
       <use x="254.492188" xlink:href="#DejaVuSans-45"/>
       <use x="290.576172" xlink:href="#DejaVuSans-48"/>
       <use x="354.199219" xlink:href="#DejaVuSans-54"/>
       <use x="417.822266" xlink:href="#DejaVuSans-45"/>
       <use x="453.90625" xlink:href="#DejaVuSans-49"/>
       <use x="517.529297" xlink:href="#DejaVuSans-53"/>
      </g>
     </g>
    </g>
   </g>
   <g id="matplotlib.axis_2">
    <g id="ytick_1">
     <g id="line2d_9">
      <path clip-path="url(#paac223fdc4)" d="M 54.6275 474.545455 
L 1170.6275 474.545455 
" style="fill:none;stroke:#b0b0b0;stroke-linecap:square;stroke-width:0.8;"/>
     </g>
     <g id="line2d_10">
      <defs>
       <path d="M 0 0 
L -3.5 0 
" id="mebbef3ff5b" style="stroke:#000000;stroke-width:0.8;"/>
      </defs>
      <g>
       <use style="stroke:#000000;stroke-width:0.8;" x="54.6275" xlink:href="#mebbef3ff5b" y="474.545455"/>
      </g>
     </g>
     <g id="text_9">
      <!-- 0 -->
      <g transform="translate(39.35625 479.484439)scale(0.13 -0.13)">
       <use xlink:href="#DejaVuSans-48"/>
      </g>
     </g>
    </g>
    <g id="ytick_2">
     <g id="line2d_11">
      <path clip-path="url(#paac223fdc4)" d="M 54.6275 411.322314 
L 1170.6275 411.322314 
" style="fill:none;stroke:#b0b0b0;stroke-linecap:square;stroke-width:0.8;"/>
     </g>
     <g id="line2d_12">
      <g>
       <use style="stroke:#000000;stroke-width:0.8;" x="54.6275" xlink:href="#mebbef3ff5b" y="411.322314"/>
      </g>
     </g>
     <g id="text_10">
      <!-- 100 -->
      <g transform="translate(22.81375 416.261298)scale(0.13 -0.13)">
       <use xlink:href="#DejaVuSans-49"/>
       <use x="63.623047" xlink:href="#DejaVuSans-48"/>
       <use x="127.246094" xlink:href="#DejaVuSans-48"/>
      </g>
     </g>
    </g>
    <g id="ytick_3">
     <g id="line2d_13">
      <path clip-path="url(#paac223fdc4)" d="M 54.6275 348.099174 
L 1170.6275 348.099174 
" style="fill:none;stroke:#b0b0b0;stroke-linecap:square;stroke-width:0.8;"/>
     </g>
     <g id="line2d_14">
      <g>
       <use style="stroke:#000000;stroke-width:0.8;" x="54.6275" xlink:href="#mebbef3ff5b" y="348.099174"/>
      </g>
     </g>
     <g id="text_11">
      <!-- 200 -->
      <g transform="translate(22.81375 353.038158)scale(0.13 -0.13)">
       <use xlink:href="#DejaVuSans-50"/>
       <use x="63.623047" xlink:href="#DejaVuSans-48"/>
       <use x="127.246094" xlink:href="#DejaVuSans-48"/>
      </g>
     </g>
    </g>
    <g id="ytick_4">
     <g id="line2d_15">
      <path clip-path="url(#paac223fdc4)" d="M 54.6275 284.876033 
L 1170.6275 284.876033 
" style="fill:none;stroke:#b0b0b0;stroke-linecap:square;stroke-width:0.8;"/>
     </g>
     <g id="line2d_16">
      <g>
       <use style="stroke:#000000;stroke-width:0.8;" x="54.6275" xlink:href="#mebbef3ff5b" y="284.876033"/>
      </g>
     </g>
     <g id="text_12">
      <!-- 300 -->
      <g transform="translate(22.81375 289.815017)scale(0.13 -0.13)">
       <use xlink:href="#DejaVuSans-51"/>
       <use x="63.623047" xlink:href="#DejaVuSans-48"/>
       <use x="127.246094" xlink:href="#DejaVuSans-48"/>
      </g>
     </g>
    </g>
    <g id="ytick_5">
     <g id="line2d_17">
      <path clip-path="url(#paac223fdc4)" d="M 54.6275 221.652893 
L 1170.6275 221.652893 
" style="fill:none;stroke:#b0b0b0;stroke-linecap:square;stroke-width:0.8;"/>
     </g>
     <g id="line2d_18">
      <g>
       <use style="stroke:#000000;stroke-width:0.8;" x="54.6275" xlink:href="#mebbef3ff5b" y="221.652893"/>
      </g>
     </g>
     <g id="text_13">
      <!-- 400 -->
      <g transform="translate(22.81375 226.591877)scale(0.13 -0.13)">
       <use xlink:href="#DejaVuSans-52"/>
       <use x="63.623047" xlink:href="#DejaVuSans-48"/>
       <use x="127.246094" xlink:href="#DejaVuSans-48"/>
      </g>
     </g>
    </g>
    <g id="ytick_6">
     <g id="line2d_19">
      <path clip-path="url(#paac223fdc4)" d="M 54.6275 158.429752 
L 1170.6275 158.429752 
" style="fill:none;stroke:#b0b0b0;stroke-linecap:square;stroke-width:0.8;"/>
     </g>
     <g id="line2d_20">
      <g>
       <use style="stroke:#000000;stroke-width:0.8;" x="54.6275" xlink:href="#mebbef3ff5b" y="158.429752"/>
      </g>
     </g>
     <g id="text_14">
      <!-- 500 -->
      <g transform="translate(22.81375 163.368736)scale(0.13 -0.13)">
       <use xlink:href="#DejaVuSans-53"/>
       <use x="63.623047" xlink:href="#DejaVuSans-48"/>
       <use x="127.246094" xlink:href="#DejaVuSans-48"/>
      </g>
     </g>
    </g>
    <g id="ytick_7">
     <g id="line2d_21">
      <path clip-path="url(#paac223fdc4)" d="M 54.6275 95.206612 
L 1170.6275 95.206612 
" style="fill:none;stroke:#b0b0b0;stroke-linecap:square;stroke-width:0.8;"/>
     </g>
     <g id="line2d_22">
      <g>
       <use style="stroke:#000000;stroke-width:0.8;" x="54.6275" xlink:href="#mebbef3ff5b" y="95.206612"/>
      </g>
     </g>
     <g id="text_15">
      <!-- 600 -->
      <g transform="translate(22.81375 100.145596)scale(0.13 -0.13)">
       <use xlink:href="#DejaVuSans-54"/>
       <use x="63.623047" xlink:href="#DejaVuSans-48"/>
       <use x="127.246094" xlink:href="#DejaVuSans-48"/>
      </g>
     </g>
    </g>
    <g id="ytick_8">
     <g id="line2d_23">
      <path clip-path="url(#paac223fdc4)" d="M 54.6275 31.983471 
L 1170.6275 31.983471 
" style="fill:none;stroke:#b0b0b0;stroke-linecap:square;stroke-width:0.8;"/>
     </g>
     <g id="line2d_24">
      <g>
       <use style="stroke:#000000;stroke-width:0.8;" x="54.6275" xlink:href="#mebbef3ff5b" y="31.983471"/>
      </g>
     </g>
     <g id="text_16">
      <!-- 700 -->
      <defs>
       <path d="M 8.203125 72.90625 
L 55.078125 72.90625 
L 55.078125 68.703125 
L 28.609375 0 
L 18.3125 0 
L 43.21875 64.59375 
L 8.203125 64.59375 
z
" id="DejaVuSans-55"/>
      </defs>
      <g transform="translate(22.81375 36.922455)scale(0.13 -0.13)">
       <use xlink:href="#DejaVuSans-55"/>
       <use x="63.623047" xlink:href="#DejaVuSans-48"/>
       <use x="127.246094" xlink:href="#DejaVuSans-48"/>
      </g>
     </g>
    </g>
    <g id="text_17">
     <!-- Anzahl von Fällen -->
     <defs>
      <path d="M 34.1875 63.1875 
L 20.796875 26.90625 
L 47.609375 26.90625 
z
M 28.609375 72.90625 
L 39.796875 72.90625 
L 67.578125 0 
L 57.328125 0 
L 50.6875 18.703125 
L 17.828125 18.703125 
L 11.1875 0 
L 0.78125 0 
z
" id="DejaVuSans-65"/>
      <path d="M 54.890625 33.015625 
L 54.890625 0 
L 45.90625 0 
L 45.90625 32.71875 
Q 45.90625 40.484375 42.875 44.328125 
Q 39.84375 48.1875 33.796875 48.1875 
Q 26.515625 48.1875 22.3125 43.546875 
Q 18.109375 38.921875 18.109375 30.90625 
L 18.109375 0 
L 9.078125 0 
L 9.078125 54.6875 
L 18.109375 54.6875 
L 18.109375 46.1875 
Q 21.34375 51.125 25.703125 53.5625 
Q 30.078125 56 35.796875 56 
Q 45.21875 56 50.046875 50.171875 
Q 54.890625 44.34375 54.890625 33.015625 
z
" id="DejaVuSans-110"/>
      <path d="M 5.515625 54.6875 
L 48.1875 54.6875 
L 48.1875 46.484375 
L 14.40625 7.171875 
L 48.1875 7.171875 
L 48.1875 0 
L 4.296875 0 
L 4.296875 8.203125 
L 38.09375 47.515625 
L 5.515625 47.515625 
z
" id="DejaVuSans-122"/>
      <path d="M 34.28125 27.484375 
Q 23.390625 27.484375 19.1875 25 
Q 14.984375 22.515625 14.984375 16.5 
Q 14.984375 11.71875 18.140625 8.90625 
Q 21.296875 6.109375 26.703125 6.109375 
Q 34.1875 6.109375 38.703125 11.40625 
Q 43.21875 16.703125 43.21875 25.484375 
L 43.21875 27.484375 
z
M 52.203125 31.203125 
L 52.203125 0 
L 43.21875 0 
L 43.21875 8.296875 
Q 40.140625 3.328125 35.546875 0.953125 
Q 30.953125 -1.421875 24.3125 -1.421875 
Q 15.921875 -1.421875 10.953125 3.296875 
Q 6 8.015625 6 15.921875 
Q 6 25.140625 12.171875 29.828125 
Q 18.359375 34.515625 30.609375 34.515625 
L 43.21875 34.515625 
L 43.21875 35.40625 
Q 43.21875 41.609375 39.140625 45 
Q 35.0625 48.390625 27.6875 48.390625 
Q 23 48.390625 18.546875 47.265625 
Q 14.109375 46.140625 10.015625 43.890625 
L 10.015625 52.203125 
Q 14.9375 54.109375 19.578125 55.046875 
Q 24.21875 56 28.609375 56 
Q 40.484375 56 46.34375 49.84375 
Q 52.203125 43.703125 52.203125 31.203125 
z
" id="DejaVuSans-97"/>
      <path d="M 54.890625 33.015625 
L 54.890625 0 
L 45.90625 0 
L 45.90625 32.71875 
Q 45.90625 40.484375 42.875 44.328125 
Q 39.84375 48.1875 33.796875 48.1875 
Q 26.515625 48.1875 22.3125 43.546875 
Q 18.109375 38.921875 18.109375 30.90625 
L 18.109375 0 
L 9.078125 0 
L 9.078125 75.984375 
L 18.109375 75.984375 
L 18.109375 46.1875 
Q 21.34375 51.125 25.703125 53.5625 
Q 30.078125 56 35.796875 56 
Q 45.21875 56 50.046875 50.171875 
Q 54.890625 44.34375 54.890625 33.015625 
z
" id="DejaVuSans-104"/>
      <path d="M 9.421875 75.984375 
L 18.40625 75.984375 
L 18.40625 0 
L 9.421875 0 
z
" id="DejaVuSans-108"/>
      <path id="DejaVuSans-32"/>
      <path d="M 2.984375 54.6875 
L 12.5 54.6875 
L 29.59375 8.796875 
L 46.6875 54.6875 
L 56.203125 54.6875 
L 35.6875 0 
L 23.484375 0 
z
" id="DejaVuSans-118"/>
      <path d="M 30.609375 48.390625 
Q 23.390625 48.390625 19.1875 42.75 
Q 14.984375 37.109375 14.984375 27.296875 
Q 14.984375 17.484375 19.15625 11.84375 
Q 23.34375 6.203125 30.609375 6.203125 
Q 37.796875 6.203125 41.984375 11.859375 
Q 46.1875 17.53125 46.1875 27.296875 
Q 46.1875 37.015625 41.984375 42.703125 
Q 37.796875 48.390625 30.609375 48.390625 
z
M 30.609375 56 
Q 42.328125 56 49.015625 48.375 
Q 55.71875 40.765625 55.71875 27.296875 
Q 55.71875 13.875 49.015625 6.21875 
Q 42.328125 -1.421875 30.609375 -1.421875 
Q 18.84375 -1.421875 12.171875 6.21875 
Q 5.515625 13.875 5.515625 27.296875 
Q 5.515625 40.765625 12.171875 48.375 
Q 18.84375 56 30.609375 56 
z
" id="DejaVuSans-111"/>
      <path d="M 9.8125 72.90625 
L 51.703125 72.90625 
L 51.703125 64.59375 
L 19.671875 64.59375 
L 19.671875 43.109375 
L 48.578125 43.109375 
L 48.578125 34.8125 
L 19.671875 34.8125 
L 19.671875 0 
L 9.8125 0 
z
" id="DejaVuSans-70"/>
      <path d="M 34.28125 27.484375 
Q 23.390625 27.484375 19.1875 25 
Q 14.984375 22.515625 14.984375 16.5 
Q 14.984375 11.71875 18.140625 8.90625 
Q 21.296875 6.109375 26.703125 6.109375 
Q 34.1875 6.109375 38.703125 11.40625 
Q 43.21875 16.703125 43.21875 25.484375 
L 43.21875 27.484375 
z
M 52.203125 31.203125 
L 52.203125 0 
L 43.21875 0 
L 43.21875 8.296875 
Q 40.140625 3.328125 35.546875 0.953125 
Q 30.953125 -1.421875 24.3125 -1.421875 
Q 15.921875 -1.421875 10.953125 3.296875 
Q 6 8.015625 6 15.921875 
Q 6 25.140625 12.171875 29.828125 
Q 18.359375 34.515625 30.609375 34.515625 
L 43.21875 34.515625 
L 43.21875 35.40625 
Q 43.21875 41.609375 39.140625 45 
Q 35.0625 48.390625 27.6875 48.390625 
Q 23 48.390625 18.546875 47.265625 
Q 14.109375 46.140625 10.015625 43.890625 
L 10.015625 52.203125 
Q 14.9375 54.109375 19.578125 55.046875 
Q 24.21875 56 28.609375 56 
Q 40.484375 56 46.34375 49.84375 
Q 52.203125 43.703125 52.203125 31.203125 
z
M 33.59375 75.78125 
L 43.5 75.78125 
L 43.5 65.921875 
L 33.59375 65.921875 
z
M 14.5 75.78125 
L 24.40625 75.78125 
L 24.40625 65.921875 
L 14.5 65.921875 
z
" id="DejaVuSans-228"/>
      <path d="M 56.203125 29.59375 
L 56.203125 25.203125 
L 14.890625 25.203125 
Q 15.484375 15.921875 20.484375 11.0625 
Q 25.484375 6.203125 34.421875 6.203125 
Q 39.59375 6.203125 44.453125 7.46875 
Q 49.3125 8.734375 54.109375 11.28125 
L 54.109375 2.78125 
Q 49.265625 0.734375 44.1875 -0.34375 
Q 39.109375 -1.421875 33.890625 -1.421875 
Q 20.796875 -1.421875 13.15625 6.1875 
Q 5.515625 13.8125 5.515625 26.8125 
Q 5.515625 40.234375 12.765625 48.109375 
Q 20.015625 56 32.328125 56 
Q 43.359375 56 49.78125 48.890625 
Q 56.203125 41.796875 56.203125 29.59375 
z
M 47.21875 32.234375 
Q 47.125 39.59375 43.09375 43.984375 
Q 39.0625 48.390625 32.421875 48.390625 
Q 24.90625 48.390625 20.390625 44.140625 
Q 15.875 39.890625 15.1875 32.171875 
z
" id="DejaVuSans-101"/>
     </defs>
     <g transform="translate(16.318125 304.449375)rotate(-90)scale(0.12 -0.12)">
      <use xlink:href="#DejaVuSans-65"/>
      <use x="68.408203" xlink:href="#DejaVuSans-110"/>
      <use x="131.787109" xlink:href="#DejaVuSans-122"/>
      <use x="184.277344" xlink:href="#DejaVuSans-97"/>
      <use x="245.556641" xlink:href="#DejaVuSans-104"/>
      <use x="308.935547" xlink:href="#DejaVuSans-108"/>
      <use x="336.71875" xlink:href="#DejaVuSans-32"/>
      <use x="368.505859" xlink:href="#DejaVuSans-118"/>
      <use x="427.685547" xlink:href="#DejaVuSans-111"/>
      <use x="488.867188" xlink:href="#DejaVuSans-110"/>
      <use x="552.246094" xlink:href="#DejaVuSans-32"/>
      <use x="584.033203" xlink:href="#DejaVuSans-70"/>
      <use x="632.427734" xlink:href="#DejaVuSans-228"/>
      <use x="693.707031" xlink:href="#DejaVuSans-108"/>
      <use x="721.490234" xlink:href="#DejaVuSans-108"/>
      <use x="749.273438" xlink:href="#DejaVuSans-101"/>
      <use x="810.796875" xlink:href="#DejaVuSans-110"/>
     </g>
    </g>
   </g>
   <g id="line2d_25">
    <path clip-path="url(#paac223fdc4)" d="M 105.354773 474.545455 
L 133.278042 474.545455 
L 151.893555 474.545455 
L 189.124581 474.545455 
L 198.432337 474.545455 
L 207.740094 474.545455 
L 217.04785 474.545455 
L 226.355607 474.545455 
L 235.663363 474.545455 
L 244.97112 474.545455 
L 254.278876 473.280992 
L 263.586633 472.016529 
L 272.894389 471.384298 
L 282.202146 471.384298 
L 291.509902 470.752066 
L 300.817658 470.752066 
L 310.125415 470.752066 
L 319.433171 466.958678 
L 328.740928 460.004132 
L 338.048684 448.623967 
L 347.356441 433.450413 
L 356.664197 410.690083 
L 365.971954 410.690083 
L 384.587467 399.942149 
L 393.895223 379.710744 
L 403.20298 354.421488 
L 412.510736 332.92562 
L 421.818492 303.842975 
L 449.741762 274.760331 
L 459.049518 242.516529 
L 468.357275 230.504132 
L 477.665031 214.698347 
L 486.972788 214.066116 
L 524.203814 185.615702 
L 533.51157 169.809917 
L 542.819327 169.809917 
L 552.127083 162.855372 
L 561.434839 162.855372 
L 580.050352 156.533058 
L 589.358109 145.152893 
L 598.665865 135.669421 
L 607.973622 129.979339 
L 617.281378 124.921488 
L 626.589135 122.392562 
L 645.204648 122.392562 
L 654.512404 122.392562 
L 663.820161 109.747934 
L 673.127917 107.85124 
L 691.74343 105.954545 
L 710.358943 104.057851 
L 719.666699 95.838843 
L 728.974456 95.838843 
L 738.282212 86.987603 
L 747.589969 86.987603 
L 756.897725 86.987603 
L 775.513238 86.987603 
L 784.820995 86.987603 
L 794.128751 86.987603 
L 803.436508 86.355372 
L 812.744264 84.458678 
L 822.05202 83.194215 
L 840.667533 83.194215 
L 849.97529 83.194215 
L 859.283046 80.665289 
L 877.898559 80.033058 
L 887.206316 75.607438 
L 905.821829 75.607438 
L 915.129585 71.81405 
L 933.745098 64.859504 
L 943.052854 61.698347 
L 980.28388 55.376033 
L 989.591637 43.995868 
L 998.899393 43.363636 
L 1008.20715 40.202479 
L 1017.514906 38.305785 
L 1036.130419 38.305785 
L 1045.438176 37.041322 
L 1054.745932 36.409091 
L 1073.361445 36.409091 
L 1082.669201 34.512397 
L 1101.284714 34.512397 
L 1119.900227 29.454545 
" style="fill:none;stroke:#dbcd00;stroke-linecap:square;stroke-width:2;"/>
    <defs>
     <path d="M 0 1.5 
C 0.397805 1.5 0.77937 1.341951 1.06066 1.06066 
C 1.341951 0.77937 1.5 0.397805 1.5 0 
C 1.5 -0.397805 1.341951 -0.77937 1.06066 -1.06066 
C 0.77937 -1.341951 0.397805 -1.5 0 -1.5 
C -0.397805 -1.5 -0.77937 -1.341951 -1.06066 -1.06066 
C -1.341951 -0.77937 -1.5 -0.397805 -1.5 0 
C -1.5 0.397805 -1.341951 0.77937 -1.06066 1.06066 
C -0.77937 1.341951 -0.397805 1.5 0 1.5 
z
" id="m6c2fce321a" style="stroke:#dbcd00;"/>
    </defs>
    <g clip-path="url(#paac223fdc4)">
     <use style="fill:#dbcd00;stroke:#dbcd00;" x="105.354773" xlink:href="#m6c2fce321a" y="474.545455"/>
     <use style="fill:#dbcd00;stroke:#dbcd00;" x="133.278042" xlink:href="#m6c2fce321a" y="474.545455"/>
     <use style="fill:#dbcd00;stroke:#dbcd00;" x="151.893555" xlink:href="#m6c2fce321a" y="474.545455"/>
     <use style="fill:#dbcd00;stroke:#dbcd00;" x="189.124581" xlink:href="#m6c2fce321a" y="474.545455"/>
     <use style="fill:#dbcd00;stroke:#dbcd00;" x="198.432337" xlink:href="#m6c2fce321a" y="474.545455"/>
     <use style="fill:#dbcd00;stroke:#dbcd00;" x="207.740094" xlink:href="#m6c2fce321a" y="474.545455"/>
     <use style="fill:#dbcd00;stroke:#dbcd00;" x="217.04785" xlink:href="#m6c2fce321a" y="474.545455"/>
     <use style="fill:#dbcd00;stroke:#dbcd00;" x="226.355607" xlink:href="#m6c2fce321a" y="474.545455"/>
     <use style="fill:#dbcd00;stroke:#dbcd00;" x="235.663363" xlink:href="#m6c2fce321a" y="474.545455"/>
     <use style="fill:#dbcd00;stroke:#dbcd00;" x="244.97112" xlink:href="#m6c2fce321a" y="474.545455"/>
     <use style="fill:#dbcd00;stroke:#dbcd00;" x="254.278876" xlink:href="#m6c2fce321a" y="473.280992"/>
     <use style="fill:#dbcd00;stroke:#dbcd00;" x="263.586633" xlink:href="#m6c2fce321a" y="472.016529"/>
     <use style="fill:#dbcd00;stroke:#dbcd00;" x="272.894389" xlink:href="#m6c2fce321a" y="471.384298"/>
     <use style="fill:#dbcd00;stroke:#dbcd00;" x="282.202146" xlink:href="#m6c2fce321a" y="471.384298"/>
     <use style="fill:#dbcd00;stroke:#dbcd00;" x="291.509902" xlink:href="#m6c2fce321a" y="470.752066"/>
     <use style="fill:#dbcd00;stroke:#dbcd00;" x="300.817658" xlink:href="#m6c2fce321a" y="470.752066"/>
     <use style="fill:#dbcd00;stroke:#dbcd00;" x="310.125415" xlink:href="#m6c2fce321a" y="470.752066"/>
     <use style="fill:#dbcd00;stroke:#dbcd00;" x="319.433171" xlink:href="#m6c2fce321a" y="466.958678"/>
     <use style="fill:#dbcd00;stroke:#dbcd00;" x="328.740928" xlink:href="#m6c2fce321a" y="460.004132"/>
     <use style="fill:#dbcd00;stroke:#dbcd00;" x="338.048684" xlink:href="#m6c2fce321a" y="448.623967"/>
     <use style="fill:#dbcd00;stroke:#dbcd00;" x="347.356441" xlink:href="#m6c2fce321a" y="433.450413"/>
     <use style="fill:#dbcd00;stroke:#dbcd00;" x="356.664197" xlink:href="#m6c2fce321a" y="410.690083"/>
     <use style="fill:#dbcd00;stroke:#dbcd00;" x="365.971954" xlink:href="#m6c2fce321a" y="410.690083"/>
     <use style="fill:#dbcd00;stroke:#dbcd00;" x="384.587467" xlink:href="#m6c2fce321a" y="399.942149"/>
     <use style="fill:#dbcd00;stroke:#dbcd00;" x="393.895223" xlink:href="#m6c2fce321a" y="379.710744"/>
     <use style="fill:#dbcd00;stroke:#dbcd00;" x="403.20298" xlink:href="#m6c2fce321a" y="354.421488"/>
     <use style="fill:#dbcd00;stroke:#dbcd00;" x="412.510736" xlink:href="#m6c2fce321a" y="332.92562"/>
     <use style="fill:#dbcd00;stroke:#dbcd00;" x="421.818492" xlink:href="#m6c2fce321a" y="303.842975"/>
     <use style="fill:#dbcd00;stroke:#dbcd00;" x="449.741762" xlink:href="#m6c2fce321a" y="274.760331"/>
     <use style="fill:#dbcd00;stroke:#dbcd00;" x="459.049518" xlink:href="#m6c2fce321a" y="242.516529"/>
     <use style="fill:#dbcd00;stroke:#dbcd00;" x="468.357275" xlink:href="#m6c2fce321a" y="230.504132"/>
     <use style="fill:#dbcd00;stroke:#dbcd00;" x="477.665031" xlink:href="#m6c2fce321a" y="214.698347"/>
     <use style="fill:#dbcd00;stroke:#dbcd00;" x="486.972788" xlink:href="#m6c2fce321a" y="214.066116"/>
     <use style="fill:#dbcd00;stroke:#dbcd00;" x="524.203814" xlink:href="#m6c2fce321a" y="185.615702"/>
     <use style="fill:#dbcd00;stroke:#dbcd00;" x="533.51157" xlink:href="#m6c2fce321a" y="169.809917"/>
     <use style="fill:#dbcd00;stroke:#dbcd00;" x="542.819327" xlink:href="#m6c2fce321a" y="169.809917"/>
     <use style="fill:#dbcd00;stroke:#dbcd00;" x="552.127083" xlink:href="#m6c2fce321a" y="162.855372"/>
     <use style="fill:#dbcd00;stroke:#dbcd00;" x="561.434839" xlink:href="#m6c2fce321a" y="162.855372"/>
     <use style="fill:#dbcd00;stroke:#dbcd00;" x="580.050352" xlink:href="#m6c2fce321a" y="156.533058"/>
     <use style="fill:#dbcd00;stroke:#dbcd00;" x="589.358109" xlink:href="#m6c2fce321a" y="145.152893"/>
     <use style="fill:#dbcd00;stroke:#dbcd00;" x="598.665865" xlink:href="#m6c2fce321a" y="135.669421"/>
     <use style="fill:#dbcd00;stroke:#dbcd00;" x="607.973622" xlink:href="#m6c2fce321a" y="129.979339"/>
     <use style="fill:#dbcd00;stroke:#dbcd00;" x="617.281378" xlink:href="#m6c2fce321a" y="124.921488"/>
     <use style="fill:#dbcd00;stroke:#dbcd00;" x="626.589135" xlink:href="#m6c2fce321a" y="122.392562"/>
     <use style="fill:#dbcd00;stroke:#dbcd00;" x="645.204648" xlink:href="#m6c2fce321a" y="122.392562"/>
     <use style="fill:#dbcd00;stroke:#dbcd00;" x="654.512404" xlink:href="#m6c2fce321a" y="122.392562"/>
     <use style="fill:#dbcd00;stroke:#dbcd00;" x="663.820161" xlink:href="#m6c2fce321a" y="109.747934"/>
     <use style="fill:#dbcd00;stroke:#dbcd00;" x="673.127917" xlink:href="#m6c2fce321a" y="107.85124"/>
     <use style="fill:#dbcd00;stroke:#dbcd00;" x="691.74343" xlink:href="#m6c2fce321a" y="105.954545"/>
     <use style="fill:#dbcd00;stroke:#dbcd00;" x="710.358943" xlink:href="#m6c2fce321a" y="104.057851"/>
     <use style="fill:#dbcd00;stroke:#dbcd00;" x="719.666699" xlink:href="#m6c2fce321a" y="95.838843"/>
     <use style="fill:#dbcd00;stroke:#dbcd00;" x="728.974456" xlink:href="#m6c2fce321a" y="95.838843"/>
     <use style="fill:#dbcd00;stroke:#dbcd00;" x="738.282212" xlink:href="#m6c2fce321a" y="86.987603"/>
     <use style="fill:#dbcd00;stroke:#dbcd00;" x="747.589969" xlink:href="#m6c2fce321a" y="86.987603"/>
     <use style="fill:#dbcd00;stroke:#dbcd00;" x="756.897725" xlink:href="#m6c2fce321a" y="86.987603"/>
     <use style="fill:#dbcd00;stroke:#dbcd00;" x="775.513238" xlink:href="#m6c2fce321a" y="86.987603"/>
     <use style="fill:#dbcd00;stroke:#dbcd00;" x="784.820995" xlink:href="#m6c2fce321a" y="86.987603"/>
     <use style="fill:#dbcd00;stroke:#dbcd00;" x="794.128751" xlink:href="#m6c2fce321a" y="86.987603"/>
     <use style="fill:#dbcd00;stroke:#dbcd00;" x="803.436508" xlink:href="#m6c2fce321a" y="86.355372"/>
     <use style="fill:#dbcd00;stroke:#dbcd00;" x="812.744264" xlink:href="#m6c2fce321a" y="84.458678"/>
     <use style="fill:#dbcd00;stroke:#dbcd00;" x="822.05202" xlink:href="#m6c2fce321a" y="83.194215"/>
     <use style="fill:#dbcd00;stroke:#dbcd00;" x="840.667533" xlink:href="#m6c2fce321a" y="83.194215"/>
     <use style="fill:#dbcd00;stroke:#dbcd00;" x="849.97529" xlink:href="#m6c2fce321a" y="83.194215"/>
     <use style="fill:#dbcd00;stroke:#dbcd00;" x="859.283046" xlink:href="#m6c2fce321a" y="80.665289"/>
     <use style="fill:#dbcd00;stroke:#dbcd00;" x="877.898559" xlink:href="#m6c2fce321a" y="80.033058"/>
     <use style="fill:#dbcd00;stroke:#dbcd00;" x="887.206316" xlink:href="#m6c2fce321a" y="75.607438"/>
     <use style="fill:#dbcd00;stroke:#dbcd00;" x="905.821829" xlink:href="#m6c2fce321a" y="75.607438"/>
     <use style="fill:#dbcd00;stroke:#dbcd00;" x="915.129585" xlink:href="#m6c2fce321a" y="71.81405"/>
     <use style="fill:#dbcd00;stroke:#dbcd00;" x="933.745098" xlink:href="#m6c2fce321a" y="64.859504"/>
     <use style="fill:#dbcd00;stroke:#dbcd00;" x="943.052854" xlink:href="#m6c2fce321a" y="61.698347"/>
     <use style="fill:#dbcd00;stroke:#dbcd00;" x="980.28388" xlink:href="#m6c2fce321a" y="55.376033"/>
     <use style="fill:#dbcd00;stroke:#dbcd00;" x="989.591637" xlink:href="#m6c2fce321a" y="43.995868"/>
     <use style="fill:#dbcd00;stroke:#dbcd00;" x="998.899393" xlink:href="#m6c2fce321a" y="43.363636"/>
     <use style="fill:#dbcd00;stroke:#dbcd00;" x="1008.20715" xlink:href="#m6c2fce321a" y="40.202479"/>
     <use style="fill:#dbcd00;stroke:#dbcd00;" x="1017.514906" xlink:href="#m6c2fce321a" y="38.305785"/>
     <use style="fill:#dbcd00;stroke:#dbcd00;" x="1036.130419" xlink:href="#m6c2fce321a" y="38.305785"/>
     <use style="fill:#dbcd00;stroke:#dbcd00;" x="1045.438176" xlink:href="#m6c2fce321a" y="37.041322"/>
     <use style="fill:#dbcd00;stroke:#dbcd00;" x="1054.745932" xlink:href="#m6c2fce321a" y="36.409091"/>
     <use style="fill:#dbcd00;stroke:#dbcd00;" x="1073.361445" xlink:href="#m6c2fce321a" y="36.409091"/>
     <use style="fill:#dbcd00;stroke:#dbcd00;" x="1082.669201" xlink:href="#m6c2fce321a" y="34.512397"/>
     <use style="fill:#dbcd00;stroke:#dbcd00;" x="1101.284714" xlink:href="#m6c2fce321a" y="34.512397"/>
     <use style="fill:#dbcd00;stroke:#dbcd00;" x="1119.900227" xlink:href="#m6c2fce321a" y="29.454545"/>
    </g>
   </g>
   <g id="line2d_26">
    <path clip-path="url(#paac223fdc4)" d="M 105.354773 473.913223 
L 133.278042 473.280992 
L 151.893555 472.016529 
L 189.124581 471.384298 
L 198.432337 470.752066 
L 207.740094 469.487603 
L 217.04785 464.429752 
L 226.355607 456.210744 
L 235.663363 447.359504 
L 244.97112 438.508264 
L 254.278876 418.909091 
L 263.586633 411.954545 
L 272.894389 392.355372 
L 282.202146 368.330579 
L 291.509902 339.880165 
L 300.817658 324.706612 
L 310.125415 310.165289 
L 319.433171 305.739669 
L 328.740928 296.256198 
L 338.048684 277.921488 
L 347.356441 281.714876 
L 356.664197 277.289256 
L 365.971954 259.586777 
L 384.587467 254.528926 
L 393.895223 262.747934 
L 403.20298 277.921488 
L 412.510736 287.404959 
L 421.818492 307.004132 
L 449.741762 305.739669 
L 459.049518 332.92562 
L 468.357275 344.305785 
L 477.665031 355.68595 
L 486.972788 356.318182 
L 524.203814 375.285124 
L 533.51157 390.458678 
L 542.819327 390.458678 
L 552.127083 395.516529 
L 561.434839 391.72314 
L 580.050352 411.954545 
L 589.358109 423.966942 
L 598.665865 433.450413 
L 607.973622 435.347107 
L 617.281378 439.140496 
L 626.589135 439.772727 
L 645.204648 439.140496 
L 654.512404 437.876033 
L 663.820161 449.88843 
L 673.127917 449.256198 
L 691.74343 451.785124 
L 710.358943 453.681818 
L 719.666699 461.268595 
L 728.974456 461.268595 
L 738.282212 468.22314 
L 747.589969 466.958678 
L 756.897725 464.429752 
L 775.513238 463.165289 
L 784.820995 461.268595 
L 794.128751 460.636364 
L 803.436508 460.004132 
L 812.744264 449.256198 
L 822.05202 449.256198 
L 840.667533 446.095041 
L 849.97529 439.772727 
L 859.283046 438.508264 
L 877.898559 435.979339 
L 887.206316 440.404959 
L 905.821829 435.347107 
L 915.129585 439.140496 
L 933.745098 445.46281 
L 943.052854 447.991736 
L 980.28388 452.417355 
L 989.591637 460.004132 
L 998.899393 460.004132 
L 1008.20715 458.107438 
L 1017.514906 460.004132 
L 1036.130419 460.004132 
L 1045.438176 461.268595 
L 1054.745932 461.900826 
L 1073.361445 460.636364 
L 1082.669201 462.533058 
L 1101.284714 461.900826 
L 1119.900227 466.958678 
" style="fill:none;stroke:#2792cb;stroke-linecap:square;stroke-width:2;"/>
    <defs>
     <path d="M 0 1.5 
C 0.397805 1.5 0.77937 1.341951 1.06066 1.06066 
C 1.341951 0.77937 1.5 0.397805 1.5 0 
C 1.5 -0.397805 1.341951 -0.77937 1.06066 -1.06066 
C 0.77937 -1.341951 0.397805 -1.5 0 -1.5 
C -0.397805 -1.5 -0.77937 -1.341951 -1.06066 -1.06066 
C -1.341951 -0.77937 -1.5 -0.397805 -1.5 0 
C -1.5 0.397805 -1.341951 0.77937 -1.06066 1.06066 
C -0.77937 1.341951 -0.397805 1.5 0 1.5 
z
" id="m7396d8d234" style="stroke:#2792cb;"/>
    </defs>
    <g clip-path="url(#paac223fdc4)">
     <use style="fill:#2792cb;stroke:#2792cb;" x="105.354773" xlink:href="#m7396d8d234" y="473.913223"/>
     <use style="fill:#2792cb;stroke:#2792cb;" x="133.278042" xlink:href="#m7396d8d234" y="473.280992"/>
     <use style="fill:#2792cb;stroke:#2792cb;" x="151.893555" xlink:href="#m7396d8d234" y="472.016529"/>
     <use style="fill:#2792cb;stroke:#2792cb;" x="189.124581" xlink:href="#m7396d8d234" y="471.384298"/>
     <use style="fill:#2792cb;stroke:#2792cb;" x="198.432337" xlink:href="#m7396d8d234" y="470.752066"/>
     <use style="fill:#2792cb;stroke:#2792cb;" x="207.740094" xlink:href="#m7396d8d234" y="469.487603"/>
     <use style="fill:#2792cb;stroke:#2792cb;" x="217.04785" xlink:href="#m7396d8d234" y="464.429752"/>
     <use style="fill:#2792cb;stroke:#2792cb;" x="226.355607" xlink:href="#m7396d8d234" y="456.210744"/>
     <use style="fill:#2792cb;stroke:#2792cb;" x="235.663363" xlink:href="#m7396d8d234" y="447.359504"/>
     <use style="fill:#2792cb;stroke:#2792cb;" x="244.97112" xlink:href="#m7396d8d234" y="438.508264"/>
     <use style="fill:#2792cb;stroke:#2792cb;" x="254.278876" xlink:href="#m7396d8d234" y="418.909091"/>
     <use style="fill:#2792cb;stroke:#2792cb;" x="263.586633" xlink:href="#m7396d8d234" y="411.954545"/>
     <use style="fill:#2792cb;stroke:#2792cb;" x="272.894389" xlink:href="#m7396d8d234" y="392.355372"/>
     <use style="fill:#2792cb;stroke:#2792cb;" x="282.202146" xlink:href="#m7396d8d234" y="368.330579"/>
     <use style="fill:#2792cb;stroke:#2792cb;" x="291.509902" xlink:href="#m7396d8d234" y="339.880165"/>
     <use style="fill:#2792cb;stroke:#2792cb;" x="300.817658" xlink:href="#m7396d8d234" y="324.706612"/>
     <use style="fill:#2792cb;stroke:#2792cb;" x="310.125415" xlink:href="#m7396d8d234" y="310.165289"/>
     <use style="fill:#2792cb;stroke:#2792cb;" x="319.433171" xlink:href="#m7396d8d234" y="305.739669"/>
     <use style="fill:#2792cb;stroke:#2792cb;" x="328.740928" xlink:href="#m7396d8d234" y="296.256198"/>
     <use style="fill:#2792cb;stroke:#2792cb;" x="338.048684" xlink:href="#m7396d8d234" y="277.921488"/>
     <use style="fill:#2792cb;stroke:#2792cb;" x="347.356441" xlink:href="#m7396d8d234" y="281.714876"/>
     <use style="fill:#2792cb;stroke:#2792cb;" x="356.664197" xlink:href="#m7396d8d234" y="277.289256"/>
     <use style="fill:#2792cb;stroke:#2792cb;" x="365.971954" xlink:href="#m7396d8d234" y="259.586777"/>
     <use style="fill:#2792cb;stroke:#2792cb;" x="384.587467" xlink:href="#m7396d8d234" y="254.528926"/>
     <use style="fill:#2792cb;stroke:#2792cb;" x="393.895223" xlink:href="#m7396d8d234" y="262.747934"/>
     <use style="fill:#2792cb;stroke:#2792cb;" x="403.20298" xlink:href="#m7396d8d234" y="277.921488"/>
     <use style="fill:#2792cb;stroke:#2792cb;" x="412.510736" xlink:href="#m7396d8d234" y="287.404959"/>
     <use style="fill:#2792cb;stroke:#2792cb;" x="421.818492" xlink:href="#m7396d8d234" y="307.004132"/>
     <use style="fill:#2792cb;stroke:#2792cb;" x="449.741762" xlink:href="#m7396d8d234" y="305.739669"/>
     <use style="fill:#2792cb;stroke:#2792cb;" x="459.049518" xlink:href="#m7396d8d234" y="332.92562"/>
     <use style="fill:#2792cb;stroke:#2792cb;" x="468.357275" xlink:href="#m7396d8d234" y="344.305785"/>
     <use style="fill:#2792cb;stroke:#2792cb;" x="477.665031" xlink:href="#m7396d8d234" y="355.68595"/>
     <use style="fill:#2792cb;stroke:#2792cb;" x="486.972788" xlink:href="#m7396d8d234" y="356.318182"/>
     <use style="fill:#2792cb;stroke:#2792cb;" x="524.203814" xlink:href="#m7396d8d234" y="375.285124"/>
     <use style="fill:#2792cb;stroke:#2792cb;" x="533.51157" xlink:href="#m7396d8d234" y="390.458678"/>
     <use style="fill:#2792cb;stroke:#2792cb;" x="542.819327" xlink:href="#m7396d8d234" y="390.458678"/>
     <use style="fill:#2792cb;stroke:#2792cb;" x="552.127083" xlink:href="#m7396d8d234" y="395.516529"/>
     <use style="fill:#2792cb;stroke:#2792cb;" x="561.434839" xlink:href="#m7396d8d234" y="391.72314"/>
     <use style="fill:#2792cb;stroke:#2792cb;" x="580.050352" xlink:href="#m7396d8d234" y="411.954545"/>
     <use style="fill:#2792cb;stroke:#2792cb;" x="589.358109" xlink:href="#m7396d8d234" y="423.966942"/>
     <use style="fill:#2792cb;stroke:#2792cb;" x="598.665865" xlink:href="#m7396d8d234" y="433.450413"/>
     <use style="fill:#2792cb;stroke:#2792cb;" x="607.973622" xlink:href="#m7396d8d234" y="435.347107"/>
     <use style="fill:#2792cb;stroke:#2792cb;" x="617.281378" xlink:href="#m7396d8d234" y="439.140496"/>
     <use style="fill:#2792cb;stroke:#2792cb;" x="626.589135" xlink:href="#m7396d8d234" y="439.772727"/>
     <use style="fill:#2792cb;stroke:#2792cb;" x="645.204648" xlink:href="#m7396d8d234" y="439.140496"/>
     <use style="fill:#2792cb;stroke:#2792cb;" x="654.512404" xlink:href="#m7396d8d234" y="437.876033"/>
     <use style="fill:#2792cb;stroke:#2792cb;" x="663.820161" xlink:href="#m7396d8d234" y="449.88843"/>
     <use style="fill:#2792cb;stroke:#2792cb;" x="673.127917" xlink:href="#m7396d8d234" y="449.256198"/>
     <use style="fill:#2792cb;stroke:#2792cb;" x="691.74343" xlink:href="#m7396d8d234" y="451.785124"/>
     <use style="fill:#2792cb;stroke:#2792cb;" x="710.358943" xlink:href="#m7396d8d234" y="453.681818"/>
     <use style="fill:#2792cb;stroke:#2792cb;" x="719.666699" xlink:href="#m7396d8d234" y="461.268595"/>
     <use style="fill:#2792cb;stroke:#2792cb;" x="728.974456" xlink:href="#m7396d8d234" y="461.268595"/>
     <use style="fill:#2792cb;stroke:#2792cb;" x="738.282212" xlink:href="#m7396d8d234" y="468.22314"/>
     <use style="fill:#2792cb;stroke:#2792cb;" x="747.589969" xlink:href="#m7396d8d234" y="466.958678"/>
     <use style="fill:#2792cb;stroke:#2792cb;" x="756.897725" xlink:href="#m7396d8d234" y="464.429752"/>
     <use style="fill:#2792cb;stroke:#2792cb;" x="775.513238" xlink:href="#m7396d8d234" y="463.165289"/>
     <use style="fill:#2792cb;stroke:#2792cb;" x="784.820995" xlink:href="#m7396d8d234" y="461.268595"/>
     <use style="fill:#2792cb;stroke:#2792cb;" x="794.128751" xlink:href="#m7396d8d234" y="460.636364"/>
     <use style="fill:#2792cb;stroke:#2792cb;" x="803.436508" xlink:href="#m7396d8d234" y="460.004132"/>
     <use style="fill:#2792cb;stroke:#2792cb;" x="812.744264" xlink:href="#m7396d8d234" y="449.256198"/>
     <use style="fill:#2792cb;stroke:#2792cb;" x="822.05202" xlink:href="#m7396d8d234" y="449.256198"/>
     <use style="fill:#2792cb;stroke:#2792cb;" x="840.667533" xlink:href="#m7396d8d234" y="446.095041"/>
     <use style="fill:#2792cb;stroke:#2792cb;" x="849.97529" xlink:href="#m7396d8d234" y="439.772727"/>
     <use style="fill:#2792cb;stroke:#2792cb;" x="859.283046" xlink:href="#m7396d8d234" y="438.508264"/>
     <use style="fill:#2792cb;stroke:#2792cb;" x="877.898559" xlink:href="#m7396d8d234" y="435.979339"/>
     <use style="fill:#2792cb;stroke:#2792cb;" x="887.206316" xlink:href="#m7396d8d234" y="440.404959"/>
     <use style="fill:#2792cb;stroke:#2792cb;" x="905.821829" xlink:href="#m7396d8d234" y="435.347107"/>
     <use style="fill:#2792cb;stroke:#2792cb;" x="915.129585" xlink:href="#m7396d8d234" y="439.140496"/>
     <use style="fill:#2792cb;stroke:#2792cb;" x="933.745098" xlink:href="#m7396d8d234" y="445.46281"/>
     <use style="fill:#2792cb;stroke:#2792cb;" x="943.052854" xlink:href="#m7396d8d234" y="447.991736"/>
     <use style="fill:#2792cb;stroke:#2792cb;" x="980.28388" xlink:href="#m7396d8d234" y="452.417355"/>
     <use style="fill:#2792cb;stroke:#2792cb;" x="989.591637" xlink:href="#m7396d8d234" y="460.004132"/>
     <use style="fill:#2792cb;stroke:#2792cb;" x="998.899393" xlink:href="#m7396d8d234" y="460.004132"/>
     <use style="fill:#2792cb;stroke:#2792cb;" x="1008.20715" xlink:href="#m7396d8d234" y="458.107438"/>
     <use style="fill:#2792cb;stroke:#2792cb;" x="1017.514906" xlink:href="#m7396d8d234" y="460.004132"/>
     <use style="fill:#2792cb;stroke:#2792cb;" x="1036.130419" xlink:href="#m7396d8d234" y="460.004132"/>
     <use style="fill:#2792cb;stroke:#2792cb;" x="1045.438176" xlink:href="#m7396d8d234" y="461.268595"/>
     <use style="fill:#2792cb;stroke:#2792cb;" x="1054.745932" xlink:href="#m7396d8d234" y="461.900826"/>
     <use style="fill:#2792cb;stroke:#2792cb;" x="1073.361445" xlink:href="#m7396d8d234" y="460.636364"/>
     <use style="fill:#2792cb;stroke:#2792cb;" x="1082.669201" xlink:href="#m7396d8d234" y="462.533058"/>
     <use style="fill:#2792cb;stroke:#2792cb;" x="1101.284714" xlink:href="#m7396d8d234" y="461.900826"/>
     <use style="fill:#2792cb;stroke:#2792cb;" x="1119.900227" xlink:href="#m7396d8d234" y="466.958678"/>
    </g>
   </g>
   <g id="patch_3">
    <path d="M 54.6275 496.8 
L 1170.6275 496.8 
" style="fill:none;stroke:#000000;stroke-linecap:square;stroke-linejoin:miter;stroke-width:0.8;"/>
   </g>
   <g id="legend_1">
    <g id="line2d_27">
     <path d="M 63.6275 20.298437 
L 83.6275 20.298437 
" style="fill:none;stroke:#dbcd00;stroke-linecap:square;stroke-width:2;"/>
    </g>
    <g id="line2d_28">
     <g>
      <use style="fill:#dbcd00;stroke:#dbcd00;" x="73.6275" xlink:href="#m6c2fce321a" y="20.298437"/>
     </g>
    </g>
    <g id="text_18">
     <!-- Genesene -->
     <defs>
      <path d="M 59.515625 10.40625 
L 59.515625 29.984375 
L 43.40625 29.984375 
L 43.40625 38.09375 
L 69.28125 38.09375 
L 69.28125 6.78125 
Q 63.578125 2.734375 56.6875 0.65625 
Q 49.8125 -1.421875 42 -1.421875 
Q 24.90625 -1.421875 15.25 8.5625 
Q 5.609375 18.5625 5.609375 36.375 
Q 5.609375 54.25 15.25 64.234375 
Q 24.90625 74.21875 42 74.21875 
Q 49.125 74.21875 55.546875 72.453125 
Q 61.96875 70.703125 67.390625 67.28125 
L 67.390625 56.78125 
Q 61.921875 61.421875 55.765625 63.765625 
Q 49.609375 66.109375 42.828125 66.109375 
Q 29.4375 66.109375 22.71875 58.640625 
Q 16.015625 51.171875 16.015625 36.375 
Q 16.015625 21.625 22.71875 14.15625 
Q 29.4375 6.6875 42.828125 6.6875 
Q 48.046875 6.6875 52.140625 7.59375 
Q 56.25 8.5 59.515625 10.40625 
z
" id="DejaVuSans-71"/>
      <path d="M 44.28125 53.078125 
L 44.28125 44.578125 
Q 40.484375 46.53125 36.375 47.5 
Q 32.28125 48.484375 27.875 48.484375 
Q 21.1875 48.484375 17.84375 46.4375 
Q 14.5 44.390625 14.5 40.28125 
Q 14.5 37.15625 16.890625 35.375 
Q 19.28125 33.59375 26.515625 31.984375 
L 29.59375 31.296875 
Q 39.15625 29.25 43.1875 25.515625 
Q 47.21875 21.78125 47.21875 15.09375 
Q 47.21875 7.46875 41.1875 3.015625 
Q 35.15625 -1.421875 24.609375 -1.421875 
Q 20.21875 -1.421875 15.453125 -0.5625 
Q 10.6875 0.296875 5.421875 2 
L 5.421875 11.28125 
Q 10.40625 8.6875 15.234375 7.390625 
Q 20.0625 6.109375 24.8125 6.109375 
Q 31.15625 6.109375 34.5625 8.28125 
Q 37.984375 10.453125 37.984375 14.40625 
Q 37.984375 18.0625 35.515625 20.015625 
Q 33.0625 21.96875 24.703125 23.78125 
L 21.578125 24.515625 
Q 13.234375 26.265625 9.515625 29.90625 
Q 5.8125 33.546875 5.8125 39.890625 
Q 5.8125 47.609375 11.28125 51.796875 
Q 16.75 56 26.8125 56 
Q 31.78125 56 36.171875 55.265625 
Q 40.578125 54.546875 44.28125 53.078125 
z
" id="DejaVuSans-115"/>
     </defs>
     <g transform="translate(91.6275 23.798437)scale(0.1 -0.1)">
      <use xlink:href="#DejaVuSans-71"/>
      <use x="77.490234" xlink:href="#DejaVuSans-101"/>
      <use x="139.013672" xlink:href="#DejaVuSans-110"/>
      <use x="202.392578" xlink:href="#DejaVuSans-101"/>
      <use x="263.916016" xlink:href="#DejaVuSans-115"/>
      <use x="316.015625" xlink:href="#DejaVuSans-101"/>
      <use x="377.539062" xlink:href="#DejaVuSans-110"/>
      <use x="440.917969" xlink:href="#DejaVuSans-101"/>
     </g>
    </g>
    <g id="line2d_29">
     <path d="M 63.6275 34.976562 
L 83.6275 34.976562 
" style="fill:none;stroke:#2792cb;stroke-linecap:square;stroke-width:2;"/>
    </g>
    <g id="line2d_30">
     <g>
      <use style="fill:#2792cb;stroke:#2792cb;" x="73.6275" xlink:href="#m7396d8d234" y="34.976562"/>
     </g>
    </g>
    <g id="text_19">
     <!-- Erkrankte -->
     <defs>
      <path d="M 9.8125 72.90625 
L 55.90625 72.90625 
L 55.90625 64.59375 
L 19.671875 64.59375 
L 19.671875 43.015625 
L 54.390625 43.015625 
L 54.390625 34.71875 
L 19.671875 34.71875 
L 19.671875 8.296875 
L 56.78125 8.296875 
L 56.78125 0 
L 9.8125 0 
z
" id="DejaVuSans-69"/>
      <path d="M 41.109375 46.296875 
Q 39.59375 47.171875 37.8125 47.578125 
Q 36.03125 48 33.890625 48 
Q 26.265625 48 22.1875 43.046875 
Q 18.109375 38.09375 18.109375 28.8125 
L 18.109375 0 
L 9.078125 0 
L 9.078125 54.6875 
L 18.109375 54.6875 
L 18.109375 46.1875 
Q 20.953125 51.171875 25.484375 53.578125 
Q 30.03125 56 36.53125 56 
Q 37.453125 56 38.578125 55.875 
Q 39.703125 55.765625 41.0625 55.515625 
z
" id="DejaVuSans-114"/>
      <path d="M 9.078125 75.984375 
L 18.109375 75.984375 
L 18.109375 31.109375 
L 44.921875 54.6875 
L 56.390625 54.6875 
L 27.390625 29.109375 
L 57.625 0 
L 45.90625 0 
L 18.109375 26.703125 
L 18.109375 0 
L 9.078125 0 
z
" id="DejaVuSans-107"/>
      <path d="M 18.3125 70.21875 
L 18.3125 54.6875 
L 36.8125 54.6875 
L 36.8125 47.703125 
L 18.3125 47.703125 
L 18.3125 18.015625 
Q 18.3125 11.328125 20.140625 9.421875 
Q 21.96875 7.515625 27.59375 7.515625 
L 36.8125 7.515625 
L 36.8125 0 
L 27.59375 0 
Q 17.1875 0 13.234375 3.875 
Q 9.28125 7.765625 9.28125 18.015625 
L 9.28125 47.703125 
L 2.6875 47.703125 
L 2.6875 54.6875 
L 9.28125 54.6875 
L 9.28125 70.21875 
z
" id="DejaVuSans-116"/>
     </defs>
     <g transform="translate(91.6275 38.476562)scale(0.1 -0.1)">
      <use xlink:href="#DejaVuSans-69"/>
      <use x="63.183594" xlink:href="#DejaVuSans-114"/>
      <use x="104.296875" xlink:href="#DejaVuSans-107"/>
      <use x="162.207031" xlink:href="#DejaVuSans-114"/>
      <use x="203.320312" xlink:href="#DejaVuSans-97"/>
      <use x="264.599609" xlink:href="#DejaVuSans-110"/>
      <use x="327.978516" xlink:href="#DejaVuSans-107"/>
      <use x="385.888672" xlink:href="#DejaVuSans-116"/>
      <use x="425.097656" xlink:href="#DejaVuSans-101"/>
     </g>
    </g>
   </g>
  </g>
 </g>
 <defs>
  <clipPath id="paac223fdc4">
   <rect height="489.6" width="1116" x="54.6275" y="7.2"/>
  </clipPath>
 </defs>
</svg>
