<?xml version="1.0" encoding="utf-8" standalone="no"?>
<!DOCTYPE svg PUBLIC "-//W3C//DTD SVG 1.1//EN"
  "http://www.w3.org/Graphics/SVG/1.1/DTD/svg11.dtd">
<!-- Created with matplotlib (https://matplotlib.org/) -->
<svg height="559.671109pt" version="1.1" viewBox="0 0 1177.8275 559.671109" width="1177.8275pt" xmlns="http://www.w3.org/2000/svg" xmlns:xlink="http://www.w3.org/1999/xlink">
 <defs>
  <style type="text/css">
*{stroke-linecap:butt;stroke-linejoin:round;}
  </style>
 </defs>
 <g id="figure_1">
  <g id="patch_1">
   <path d="M 0 559.671109 
L 1177.8275 559.671109 
L 1177.8275 0 
L 0 0 
z
" style="fill:#ffffff;"/>
  </g>
  <g id="axes_1">
   <g id="patch_2">
    <path d="M 54.6275 496.8 
L 1170.6275 496.8 
L 1170.6275 7.2 
L 54.6275 7.2 
z
" style="fill:#ffffff;"/>
   </g>
   <g id="matplotlib.axis_1">
    <g id="xtick_1">
     <g id="line2d_1">
      <defs>
       <path d="M 0 0 
L 0 3.5 
" id="md07e2dd636" style="stroke:#000000;stroke-width:0.8;"/>
      </defs>
      <g>
       <use style="stroke:#000000;stroke-width:0.8;" x="180.19829" xlink:href="#md07e2dd636" y="496.8"/>
      </g>
     </g>
     <g id="text_1">
      <!-- 2020-04-01 -->
      <defs>
       <path d="M 19.1875 8.296875 
L 53.609375 8.296875 
L 53.609375 0 
L 7.328125 0 
L 7.328125 8.296875 
Q 12.9375 14.109375 22.625 23.890625 
Q 32.328125 33.6875 34.8125 36.53125 
Q 39.546875 41.84375 41.421875 45.53125 
Q 43.3125 49.21875 43.3125 52.78125 
Q 43.3125 58.59375 39.234375 62.25 
Q 35.15625 65.921875 28.609375 65.921875 
Q 23.96875 65.921875 18.8125 64.3125 
Q 13.671875 62.703125 7.8125 59.421875 
L 7.8125 69.390625 
Q 13.765625 71.78125 18.9375 73 
Q 24.125 74.21875 28.421875 74.21875 
Q 39.75 74.21875 46.484375 68.546875 
Q 53.21875 62.890625 53.21875 53.421875 
Q 53.21875 48.921875 51.53125 44.890625 
Q 49.859375 40.875 45.40625 35.40625 
Q 44.1875 33.984375 37.640625 27.21875 
Q 31.109375 20.453125 19.1875 8.296875 
z
" id="DejaVuSans-50"/>
       <path d="M 31.78125 66.40625 
Q 24.171875 66.40625 20.328125 58.90625 
Q 16.5 51.421875 16.5 36.375 
Q 16.5 21.390625 20.328125 13.890625 
Q 24.171875 6.390625 31.78125 6.390625 
Q 39.453125 6.390625 43.28125 13.890625 
Q 47.125 21.390625 47.125 36.375 
Q 47.125 51.421875 43.28125 58.90625 
Q 39.453125 66.40625 31.78125 66.40625 
z
M 31.78125 74.21875 
Q 44.046875 74.21875 50.515625 64.515625 
Q 56.984375 54.828125 56.984375 36.375 
Q 56.984375 17.96875 50.515625 8.265625 
Q 44.046875 -1.421875 31.78125 -1.421875 
Q 19.53125 -1.421875 13.0625 8.265625 
Q 6.59375 17.96875 6.59375 36.375 
Q 6.59375 54.828125 13.0625 64.515625 
Q 19.53125 74.21875 31.78125 74.21875 
z
" id="DejaVuSans-48"/>
       <path d="M 4.890625 31.390625 
L 31.203125 31.390625 
L 31.203125 23.390625 
L 4.890625 23.390625 
z
" id="DejaVuSans-45"/>
       <path d="M 37.796875 64.3125 
L 12.890625 25.390625 
L 37.796875 25.390625 
z
M 35.203125 72.90625 
L 47.609375 72.90625 
L 47.609375 25.390625 
L 58.015625 25.390625 
L 58.015625 17.1875 
L 47.609375 17.1875 
L 47.609375 0 
L 37.796875 0 
L 37.796875 17.1875 
L 4.890625 17.1875 
L 4.890625 26.703125 
z
" id="DejaVuSans-52"/>
       <path d="M 12.40625 8.296875 
L 28.515625 8.296875 
L 28.515625 63.921875 
L 10.984375 60.40625 
L 10.984375 69.390625 
L 28.421875 72.90625 
L 38.28125 72.90625 
L 38.28125 8.296875 
L 54.390625 8.296875 
L 54.390625 0 
L 12.40625 0 
z
" id="DejaVuSans-49"/>
      </defs>
      <g transform="translate(113.418003 550.129728)rotate(-30)scale(0.13 -0.13)">
       <use xlink:href="#DejaVuSans-50"/>
       <use x="63.623047" xlink:href="#DejaVuSans-48"/>
       <use x="127.246094" xlink:href="#DejaVuSans-50"/>
       <use x="190.869141" xlink:href="#DejaVuSans-48"/>
       <use x="254.492188" xlink:href="#DejaVuSans-45"/>
       <use x="290.576172" xlink:href="#DejaVuSans-48"/>
       <use x="354.199219" xlink:href="#DejaVuSans-52"/>
       <use x="417.822266" xlink:href="#DejaVuSans-45"/>
       <use x="453.90625" xlink:href="#DejaVuSans-48"/>
       <use x="517.529297" xlink:href="#DejaVuSans-49"/>
      </g>
     </g>
    </g>
    <g id="xtick_2">
     <g id="line2d_2">
      <g>
       <use style="stroke:#000000;stroke-width:0.8;" x="296.621539" xlink:href="#md07e2dd636" y="496.8"/>
      </g>
     </g>
     <g id="text_2">
      <!-- 2020-04-15 -->
      <defs>
       <path d="M 10.796875 72.90625 
L 49.515625 72.90625 
L 49.515625 64.59375 
L 19.828125 64.59375 
L 19.828125 46.734375 
Q 21.96875 47.46875 24.109375 47.828125 
Q 26.265625 48.1875 28.421875 48.1875 
Q 40.625 48.1875 47.75 41.5 
Q 54.890625 34.8125 54.890625 23.390625 
Q 54.890625 11.625 47.5625 5.09375 
Q 40.234375 -1.421875 26.90625 -1.421875 
Q 22.3125 -1.421875 17.546875 -0.640625 
Q 12.796875 0.140625 7.71875 1.703125 
L 7.71875 11.625 
Q 12.109375 9.234375 16.796875 8.0625 
Q 21.484375 6.890625 26.703125 6.890625 
Q 35.15625 6.890625 40.078125 11.328125 
Q 45.015625 15.765625 45.015625 23.390625 
Q 45.015625 31 40.078125 35.4375 
Q 35.15625 39.890625 26.703125 39.890625 
Q 22.75 39.890625 18.8125 39.015625 
Q 14.890625 38.140625 10.796875 36.28125 
z
" id="DejaVuSans-53"/>
      </defs>
      <g transform="translate(229.841252 550.129728)rotate(-30)scale(0.13 -0.13)">
       <use xlink:href="#DejaVuSans-50"/>
       <use x="63.623047" xlink:href="#DejaVuSans-48"/>
       <use x="127.246094" xlink:href="#DejaVuSans-50"/>
       <use x="190.869141" xlink:href="#DejaVuSans-48"/>
       <use x="254.492188" xlink:href="#DejaVuSans-45"/>
       <use x="290.576172" xlink:href="#DejaVuSans-48"/>
       <use x="354.199219" xlink:href="#DejaVuSans-52"/>
       <use x="417.822266" xlink:href="#DejaVuSans-45"/>
       <use x="453.90625" xlink:href="#DejaVuSans-49"/>
       <use x="517.529297" xlink:href="#DejaVuSans-53"/>
      </g>
     </g>
    </g>
    <g id="xtick_3">
     <g id="line2d_3">
      <g>
       <use style="stroke:#000000;stroke-width:0.8;" x="429.67668" xlink:href="#md07e2dd636" y="496.8"/>
      </g>
     </g>
     <g id="text_3">
      <!-- 2020-05-01 -->
      <g transform="translate(362.896394 550.129728)rotate(-30)scale(0.13 -0.13)">
       <use xlink:href="#DejaVuSans-50"/>
       <use x="63.623047" xlink:href="#DejaVuSans-48"/>
       <use x="127.246094" xlink:href="#DejaVuSans-50"/>
       <use x="190.869141" xlink:href="#DejaVuSans-48"/>
       <use x="254.492188" xlink:href="#DejaVuSans-45"/>
       <use x="290.576172" xlink:href="#DejaVuSans-48"/>
       <use x="354.199219" xlink:href="#DejaVuSans-53"/>
       <use x="417.822266" xlink:href="#DejaVuSans-45"/>
       <use x="453.90625" xlink:href="#DejaVuSans-48"/>
       <use x="517.529297" xlink:href="#DejaVuSans-49"/>
      </g>
     </g>
    </g>
    <g id="xtick_4">
     <g id="line2d_4">
      <g>
       <use style="stroke:#000000;stroke-width:0.8;" x="546.099929" xlink:href="#md07e2dd636" y="496.8"/>
      </g>
     </g>
     <g id="text_4">
      <!-- 2020-05-15 -->
      <g transform="translate(479.319642 550.129728)rotate(-30)scale(0.13 -0.13)">
       <use xlink:href="#DejaVuSans-50"/>
       <use x="63.623047" xlink:href="#DejaVuSans-48"/>
       <use x="127.246094" xlink:href="#DejaVuSans-50"/>
       <use x="190.869141" xlink:href="#DejaVuSans-48"/>
       <use x="254.492188" xlink:href="#DejaVuSans-45"/>
       <use x="290.576172" xlink:href="#DejaVuSans-48"/>
       <use x="354.199219" xlink:href="#DejaVuSans-53"/>
       <use x="417.822266" xlink:href="#DejaVuSans-45"/>
       <use x="453.90625" xlink:href="#DejaVuSans-49"/>
       <use x="517.529297" xlink:href="#DejaVuSans-53"/>
      </g>
     </g>
    </g>
    <g id="xtick_5">
     <g id="line2d_5">
      <g>
       <use style="stroke:#000000;stroke-width:0.8;" x="687.471017" xlink:href="#md07e2dd636" y="496.8"/>
      </g>
     </g>
     <g id="text_5">
      <!-- 2020-06-01 -->
      <defs>
       <path d="M 33.015625 40.375 
Q 26.375 40.375 22.484375 35.828125 
Q 18.609375 31.296875 18.609375 23.390625 
Q 18.609375 15.53125 22.484375 10.953125 
Q 26.375 6.390625 33.015625 6.390625 
Q 39.65625 6.390625 43.53125 10.953125 
Q 47.40625 15.53125 47.40625 23.390625 
Q 47.40625 31.296875 43.53125 35.828125 
Q 39.65625 40.375 33.015625 40.375 
z
M 52.59375 71.296875 
L 52.59375 62.3125 
Q 48.875 64.0625 45.09375 64.984375 
Q 41.3125 65.921875 37.59375 65.921875 
Q 27.828125 65.921875 22.671875 59.328125 
Q 17.53125 52.734375 16.796875 39.40625 
Q 19.671875 43.65625 24.015625 45.921875 
Q 28.375 48.1875 33.59375 48.1875 
Q 44.578125 48.1875 50.953125 41.515625 
Q 57.328125 34.859375 57.328125 23.390625 
Q 57.328125 12.15625 50.6875 5.359375 
Q 44.046875 -1.421875 33.015625 -1.421875 
Q 20.359375 -1.421875 13.671875 8.265625 
Q 6.984375 17.96875 6.984375 36.375 
Q 6.984375 53.65625 15.1875 63.9375 
Q 23.390625 74.21875 37.203125 74.21875 
Q 40.921875 74.21875 44.703125 73.484375 
Q 48.484375 72.75 52.59375 71.296875 
z
" id="DejaVuSans-54"/>
      </defs>
      <g transform="translate(620.69073 550.129728)rotate(-30)scale(0.13 -0.13)">
       <use xlink:href="#DejaVuSans-50"/>
       <use x="63.623047" xlink:href="#DejaVuSans-48"/>
       <use x="127.246094" xlink:href="#DejaVuSans-50"/>
       <use x="190.869141" xlink:href="#DejaVuSans-48"/>
       <use x="254.492188" xlink:href="#DejaVuSans-45"/>
       <use x="290.576172" xlink:href="#DejaVuSans-48"/>
       <use x="354.199219" xlink:href="#DejaVuSans-54"/>
       <use x="417.822266" xlink:href="#DejaVuSans-45"/>
       <use x="453.90625" xlink:href="#DejaVuSans-48"/>
       <use x="517.529297" xlink:href="#DejaVuSans-49"/>
      </g>
     </g>
    </g>
    <g id="xtick_6">
     <g id="line2d_6">
      <g>
       <use style="stroke:#000000;stroke-width:0.8;" x="803.894266" xlink:href="#md07e2dd636" y="496.8"/>
      </g>
     </g>
     <g id="text_6">
      <!-- 2020-06-15 -->
      <g transform="translate(737.113979 550.129728)rotate(-30)scale(0.13 -0.13)">
       <use xlink:href="#DejaVuSans-50"/>
       <use x="63.623047" xlink:href="#DejaVuSans-48"/>
       <use x="127.246094" xlink:href="#DejaVuSans-50"/>
       <use x="190.869141" xlink:href="#DejaVuSans-48"/>
       <use x="254.492188" xlink:href="#DejaVuSans-45"/>
       <use x="290.576172" xlink:href="#DejaVuSans-48"/>
       <use x="354.199219" xlink:href="#DejaVuSans-54"/>
       <use x="417.822266" xlink:href="#DejaVuSans-45"/>
       <use x="453.90625" xlink:href="#DejaVuSans-49"/>
       <use x="517.529297" xlink:href="#DejaVuSans-53"/>
      </g>
     </g>
    </g>
    <g id="xtick_7">
     <g id="line2d_7">
      <g>
       <use style="stroke:#000000;stroke-width:0.8;" x="936.949408" xlink:href="#md07e2dd636" y="496.8"/>
      </g>
     </g>
     <g id="text_7">
      <!-- 2020-07-01 -->
      <defs>
       <path d="M 8.203125 72.90625 
L 55.078125 72.90625 
L 55.078125 68.703125 
L 28.609375 0 
L 18.3125 0 
L 43.21875 64.59375 
L 8.203125 64.59375 
z
" id="DejaVuSans-55"/>
      </defs>
      <g transform="translate(870.169121 550.129728)rotate(-30)scale(0.13 -0.13)">
       <use xlink:href="#DejaVuSans-50"/>
       <use x="63.623047" xlink:href="#DejaVuSans-48"/>
       <use x="127.246094" xlink:href="#DejaVuSans-50"/>
       <use x="190.869141" xlink:href="#DejaVuSans-48"/>
       <use x="254.492188" xlink:href="#DejaVuSans-45"/>
       <use x="290.576172" xlink:href="#DejaVuSans-48"/>
       <use x="354.199219" xlink:href="#DejaVuSans-55"/>
       <use x="417.822266" xlink:href="#DejaVuSans-45"/>
       <use x="453.90625" xlink:href="#DejaVuSans-48"/>
       <use x="517.529297" xlink:href="#DejaVuSans-49"/>
      </g>
     </g>
    </g>
    <g id="xtick_8">
     <g id="line2d_8">
      <g>
       <use style="stroke:#000000;stroke-width:0.8;" x="1053.372656" xlink:href="#md07e2dd636" y="496.8"/>
      </g>
     </g>
     <g id="text_8">
      <!-- 2020-07-15 -->
      <g transform="translate(986.59237 550.129728)rotate(-30)scale(0.13 -0.13)">
       <use xlink:href="#DejaVuSans-50"/>
       <use x="63.623047" xlink:href="#DejaVuSans-48"/>
       <use x="127.246094" xlink:href="#DejaVuSans-50"/>
       <use x="190.869141" xlink:href="#DejaVuSans-48"/>
       <use x="254.492188" xlink:href="#DejaVuSans-45"/>
       <use x="290.576172" xlink:href="#DejaVuSans-48"/>
       <use x="354.199219" xlink:href="#DejaVuSans-55"/>
       <use x="417.822266" xlink:href="#DejaVuSans-45"/>
       <use x="453.90625" xlink:href="#DejaVuSans-49"/>
       <use x="517.529297" xlink:href="#DejaVuSans-53"/>
      </g>
     </g>
    </g>
   </g>
   <g id="matplotlib.axis_2">
    <g id="ytick_1">
     <g id="line2d_9">
      <path clip-path="url(#pfb0b021d69)" d="M 54.6275 470.553608 
L 1170.6275 470.553608 
" style="fill:none;stroke:#b0b0b0;stroke-linecap:square;stroke-width:0.8;"/>
     </g>
     <g id="line2d_10">
      <defs>
       <path d="M 0 0 
L -3.5 0 
" id="m8187bfd839" style="stroke:#000000;stroke-width:0.8;"/>
      </defs>
      <g>
       <use style="stroke:#000000;stroke-width:0.8;" x="54.6275" xlink:href="#m8187bfd839" y="470.553608"/>
      </g>
     </g>
     <g id="text_9">
      <!-- 0 -->
      <g transform="translate(39.35625 475.492592)scale(0.13 -0.13)">
       <use xlink:href="#DejaVuSans-48"/>
      </g>
     </g>
    </g>
    <g id="ytick_2">
     <g id="line2d_11">
      <path clip-path="url(#pfb0b021d69)" d="M 54.6275 270.961272 
L 1170.6275 270.961272 
" style="fill:none;stroke:#b0b0b0;stroke-linecap:square;stroke-width:0.8;"/>
     </g>
     <g id="line2d_12">
      <g>
       <use style="stroke:#000000;stroke-width:0.8;" x="54.6275" xlink:href="#m8187bfd839" y="270.961272"/>
      </g>
     </g>
     <g id="text_10">
      <!-- 100 -->
      <g transform="translate(22.81375 275.900256)scale(0.13 -0.13)">
       <use xlink:href="#DejaVuSans-49"/>
       <use x="63.623047" xlink:href="#DejaVuSans-48"/>
       <use x="127.246094" xlink:href="#DejaVuSans-48"/>
      </g>
     </g>
    </g>
    <g id="ytick_3">
     <g id="line2d_13">
      <path clip-path="url(#pfb0b021d69)" d="M 54.6275 71.368936 
L 1170.6275 71.368936 
" style="fill:none;stroke:#b0b0b0;stroke-linecap:square;stroke-width:0.8;"/>
     </g>
     <g id="line2d_14">
      <g>
       <use style="stroke:#000000;stroke-width:0.8;" x="54.6275" xlink:href="#m8187bfd839" y="71.368936"/>
      </g>
     </g>
     <g id="text_11">
      <!-- 200 -->
      <g transform="translate(22.81375 76.30792)scale(0.13 -0.13)">
       <use xlink:href="#DejaVuSans-50"/>
       <use x="63.623047" xlink:href="#DejaVuSans-48"/>
       <use x="127.246094" xlink:href="#DejaVuSans-48"/>
      </g>
     </g>
    </g>
    <g id="text_12">
     <!-- Anzahl von Fällen -->
     <defs>
      <path d="M 34.1875 63.1875 
L 20.796875 26.90625 
L 47.609375 26.90625 
z
M 28.609375 72.90625 
L 39.796875 72.90625 
L 67.578125 0 
L 57.328125 0 
L 50.6875 18.703125 
L 17.828125 18.703125 
L 11.1875 0 
L 0.78125 0 
z
" id="DejaVuSans-65"/>
      <path d="M 54.890625 33.015625 
L 54.890625 0 
L 45.90625 0 
L 45.90625 32.71875 
Q 45.90625 40.484375 42.875 44.328125 
Q 39.84375 48.1875 33.796875 48.1875 
Q 26.515625 48.1875 22.3125 43.546875 
Q 18.109375 38.921875 18.109375 30.90625 
L 18.109375 0 
L 9.078125 0 
L 9.078125 54.6875 
L 18.109375 54.6875 
L 18.109375 46.1875 
Q 21.34375 51.125 25.703125 53.5625 
Q 30.078125 56 35.796875 56 
Q 45.21875 56 50.046875 50.171875 
Q 54.890625 44.34375 54.890625 33.015625 
z
" id="DejaVuSans-110"/>
      <path d="M 5.515625 54.6875 
L 48.1875 54.6875 
L 48.1875 46.484375 
L 14.40625 7.171875 
L 48.1875 7.171875 
L 48.1875 0 
L 4.296875 0 
L 4.296875 8.203125 
L 38.09375 47.515625 
L 5.515625 47.515625 
z
" id="DejaVuSans-122"/>
      <path d="M 34.28125 27.484375 
Q 23.390625 27.484375 19.1875 25 
Q 14.984375 22.515625 14.984375 16.5 
Q 14.984375 11.71875 18.140625 8.90625 
Q 21.296875 6.109375 26.703125 6.109375 
Q 34.1875 6.109375 38.703125 11.40625 
Q 43.21875 16.703125 43.21875 25.484375 
L 43.21875 27.484375 
z
M 52.203125 31.203125 
L 52.203125 0 
L 43.21875 0 
L 43.21875 8.296875 
Q 40.140625 3.328125 35.546875 0.953125 
Q 30.953125 -1.421875 24.3125 -1.421875 
Q 15.921875 -1.421875 10.953125 3.296875 
Q 6 8.015625 6 15.921875 
Q 6 25.140625 12.171875 29.828125 
Q 18.359375 34.515625 30.609375 34.515625 
L 43.21875 34.515625 
L 43.21875 35.40625 
Q 43.21875 41.609375 39.140625 45 
Q 35.0625 48.390625 27.6875 48.390625 
Q 23 48.390625 18.546875 47.265625 
Q 14.109375 46.140625 10.015625 43.890625 
L 10.015625 52.203125 
Q 14.9375 54.109375 19.578125 55.046875 
Q 24.21875 56 28.609375 56 
Q 40.484375 56 46.34375 49.84375 
Q 52.203125 43.703125 52.203125 31.203125 
z
" id="DejaVuSans-97"/>
      <path d="M 54.890625 33.015625 
L 54.890625 0 
L 45.90625 0 
L 45.90625 32.71875 
Q 45.90625 40.484375 42.875 44.328125 
Q 39.84375 48.1875 33.796875 48.1875 
Q 26.515625 48.1875 22.3125 43.546875 
Q 18.109375 38.921875 18.109375 30.90625 
L 18.109375 0 
L 9.078125 0 
L 9.078125 75.984375 
L 18.109375 75.984375 
L 18.109375 46.1875 
Q 21.34375 51.125 25.703125 53.5625 
Q 30.078125 56 35.796875 56 
Q 45.21875 56 50.046875 50.171875 
Q 54.890625 44.34375 54.890625 33.015625 
z
" id="DejaVuSans-104"/>
      <path d="M 9.421875 75.984375 
L 18.40625 75.984375 
L 18.40625 0 
L 9.421875 0 
z
" id="DejaVuSans-108"/>
      <path id="DejaVuSans-32"/>
      <path d="M 2.984375 54.6875 
L 12.5 54.6875 
L 29.59375 8.796875 
L 46.6875 54.6875 
L 56.203125 54.6875 
L 35.6875 0 
L 23.484375 0 
z
" id="DejaVuSans-118"/>
      <path d="M 30.609375 48.390625 
Q 23.390625 48.390625 19.1875 42.75 
Q 14.984375 37.109375 14.984375 27.296875 
Q 14.984375 17.484375 19.15625 11.84375 
Q 23.34375 6.203125 30.609375 6.203125 
Q 37.796875 6.203125 41.984375 11.859375 
Q 46.1875 17.53125 46.1875 27.296875 
Q 46.1875 37.015625 41.984375 42.703125 
Q 37.796875 48.390625 30.609375 48.390625 
z
M 30.609375 56 
Q 42.328125 56 49.015625 48.375 
Q 55.71875 40.765625 55.71875 27.296875 
Q 55.71875 13.875 49.015625 6.21875 
Q 42.328125 -1.421875 30.609375 -1.421875 
Q 18.84375 -1.421875 12.171875 6.21875 
Q 5.515625 13.875 5.515625 27.296875 
Q 5.515625 40.765625 12.171875 48.375 
Q 18.84375 56 30.609375 56 
z
" id="DejaVuSans-111"/>
      <path d="M 9.8125 72.90625 
L 51.703125 72.90625 
L 51.703125 64.59375 
L 19.671875 64.59375 
L 19.671875 43.109375 
L 48.578125 43.109375 
L 48.578125 34.8125 
L 19.671875 34.8125 
L 19.671875 0 
L 9.8125 0 
z
" id="DejaVuSans-70"/>
      <path d="M 34.28125 27.484375 
Q 23.390625 27.484375 19.1875 25 
Q 14.984375 22.515625 14.984375 16.5 
Q 14.984375 11.71875 18.140625 8.90625 
Q 21.296875 6.109375 26.703125 6.109375 
Q 34.1875 6.109375 38.703125 11.40625 
Q 43.21875 16.703125 43.21875 25.484375 
L 43.21875 27.484375 
z
M 52.203125 31.203125 
L 52.203125 0 
L 43.21875 0 
L 43.21875 8.296875 
Q 40.140625 3.328125 35.546875 0.953125 
Q 30.953125 -1.421875 24.3125 -1.421875 
Q 15.921875 -1.421875 10.953125 3.296875 
Q 6 8.015625 6 15.921875 
Q 6 25.140625 12.171875 29.828125 
Q 18.359375 34.515625 30.609375 34.515625 
L 43.21875 34.515625 
L 43.21875 35.40625 
Q 43.21875 41.609375 39.140625 45 
Q 35.0625 48.390625 27.6875 48.390625 
Q 23 48.390625 18.546875 47.265625 
Q 14.109375 46.140625 10.015625 43.890625 
L 10.015625 52.203125 
Q 14.9375 54.109375 19.578125 55.046875 
Q 24.21875 56 28.609375 56 
Q 40.484375 56 46.34375 49.84375 
Q 52.203125 43.703125 52.203125 31.203125 
z
M 33.59375 75.78125 
L 43.5 75.78125 
L 43.5 65.921875 
L 33.59375 65.921875 
z
M 14.5 75.78125 
L 24.40625 75.78125 
L 24.40625 65.921875 
L 14.5 65.921875 
z
" id="DejaVuSans-228"/>
      <path d="M 56.203125 29.59375 
L 56.203125 25.203125 
L 14.890625 25.203125 
Q 15.484375 15.921875 20.484375 11.0625 
Q 25.484375 6.203125 34.421875 6.203125 
Q 39.59375 6.203125 44.453125 7.46875 
Q 49.3125 8.734375 54.109375 11.28125 
L 54.109375 2.78125 
Q 49.265625 0.734375 44.1875 -0.34375 
Q 39.109375 -1.421875 33.890625 -1.421875 
Q 20.796875 -1.421875 13.15625 6.1875 
Q 5.515625 13.8125 5.515625 26.8125 
Q 5.515625 40.234375 12.765625 48.109375 
Q 20.015625 56 32.328125 56 
Q 43.359375 56 49.78125 48.890625 
Q 56.203125 41.796875 56.203125 29.59375 
z
M 47.21875 32.234375 
Q 47.125 39.59375 43.09375 43.984375 
Q 39.0625 48.390625 32.421875 48.390625 
Q 24.90625 48.390625 20.390625 44.140625 
Q 15.875 39.890625 15.1875 32.171875 
z
" id="DejaVuSans-101"/>
     </defs>
     <g transform="translate(16.318125 304.449375)rotate(-90)scale(0.12 -0.12)">
      <use xlink:href="#DejaVuSans-65"/>
      <use x="68.408203" xlink:href="#DejaVuSans-110"/>
      <use x="131.787109" xlink:href="#DejaVuSans-122"/>
      <use x="184.277344" xlink:href="#DejaVuSans-97"/>
      <use x="245.556641" xlink:href="#DejaVuSans-104"/>
      <use x="308.935547" xlink:href="#DejaVuSans-108"/>
      <use x="336.71875" xlink:href="#DejaVuSans-32"/>
      <use x="368.505859" xlink:href="#DejaVuSans-118"/>
      <use x="427.685547" xlink:href="#DejaVuSans-111"/>
      <use x="488.867188" xlink:href="#DejaVuSans-110"/>
      <use x="552.246094" xlink:href="#DejaVuSans-32"/>
      <use x="584.033203" xlink:href="#DejaVuSans-70"/>
      <use x="632.427734" xlink:href="#DejaVuSans-228"/>
      <use x="693.707031" xlink:href="#DejaVuSans-108"/>
      <use x="721.490234" xlink:href="#DejaVuSans-108"/>
      <use x="749.273438" xlink:href="#DejaVuSans-101"/>
      <use x="810.796875" xlink:href="#DejaVuSans-110"/>
     </g>
    </g>
   </g>
   <g id="line2d_15">
    <path clip-path="url(#pfb0b021d69)" d="M 105.354773 466.561761 
L 113.670719 466.561761 
L 121.986665 466.561761 
L 130.302612 460.573991 
L 138.618558 460.573991 
L 146.934504 450.594374 
L 155.250451 450.594374 
L 163.566397 450.594374 
L 171.882344 450.594374 
L 180.19829 448.598451 
L 188.514236 442.610681 
L 196.830183 428.639217 
L 205.146129 418.6596 
L 213.462075 418.6596 
L 221.778022 416.663677 
L 230.093968 416.663677 
L 238.409914 410.675907 
L 246.725861 406.68406 
L 255.041807 396.704444 
L 271.6737 392.712597 
L 288.305592 384.728903 
L 296.621539 382.73298 
L 304.937485 382.73298 
L 313.253431 368.761517 
L 321.569378 368.761517 
L 338.20127 358.7819 
L 346.517217 352.79413 
L 354.833163 346.80636 
L 363.14911 332.834896 
L 371.465056 330.838973 
L 379.781002 328.843049 
L 396.412895 310.879739 
L 404.728841 298.904199 
L 413.044788 292.916429 
L 421.360734 280.940889 
L 437.992627 274.953119 
L 454.624519 258.985732 
L 462.940466 249.006115 
L 471.256412 243.018345 
L 479.572358 233.038728 
L 487.888305 231.042805 
L 496.204251 217.071341 
L 512.836144 207.091724 
L 521.15209 203.099878 
L 529.468037 189.128414 
L 537.783983 189.128414 
L 546.099929 175.156951 
L 554.415876 161.185487 
L 571.047768 149.209947 
L 579.363715 145.2181 
L 587.679661 139.23033 
L 604.311554 127.25479 
L 612.6275 123.262943 
L 629.259393 121.26702 
L 637.575339 121.26702 
L 654.207232 115.27925 
L 662.523178 109.29148 
L 695.786963 105.299633 
L 704.10291 99.311863 
L 712.418856 97.31594 
L 720.734803 93.324093 
L 729.050749 93.324093 
L 745.682642 93.324093 
L 753.998588 89.332246 
L 762.314534 87.336323 
L 778.946427 79.352629 
L 787.262373 77.356706 
L 803.894266 77.356706 
L 820.526159 77.356706 
L 837.158051 65.381166 
L 845.473998 65.381166 
L 862.10589 63.385243 
L 870.421837 61.389319 
L 878.737783 59.393396 
L 887.05373 59.393396 
L 903.685622 59.393396 
L 920.317515 59.393396 
L 928.633461 59.393396 
L 936.949408 59.393396 
L 945.265354 59.393396 
L 953.5813 59.393396 
L 961.897247 59.393396 
L 986.845086 59.393396 
L 995.161032 59.393396 
L 1003.476978 59.393396 
L 1011.792925 59.393396 
L 1036.740764 53.405626 
L 1045.05671 49.413779 
L 1053.372656 47.417856 
L 1061.688603 43.426009 
L 1070.004549 43.426009 
L 1094.952388 39.434162 
L 1119.900227 29.454545 
" style="fill:none;stroke:#dbcd00;stroke-linecap:square;stroke-width:2;"/>
    <defs>
     <path d="M 0 1.5 
C 0.397805 1.5 0.77937 1.341951 1.06066 1.06066 
C 1.341951 0.77937 1.5 0.397805 1.5 0 
C 1.5 -0.397805 1.341951 -0.77937 1.06066 -1.06066 
C 0.77937 -1.341951 0.397805 -1.5 0 -1.5 
C -0.397805 -1.5 -0.77937 -1.341951 -1.06066 -1.06066 
C -1.341951 -0.77937 -1.5 -0.397805 -1.5 0 
C -1.5 0.397805 -1.341951 0.77937 -1.06066 1.06066 
C -0.77937 1.341951 -0.397805 1.5 0 1.5 
z
" id="m71fca1a6e9" style="stroke:#dbcd00;"/>
    </defs>
    <g clip-path="url(#pfb0b021d69)">
     <use style="fill:#dbcd00;stroke:#dbcd00;" x="105.354773" xlink:href="#m71fca1a6e9" y="466.561761"/>
     <use style="fill:#dbcd00;stroke:#dbcd00;" x="113.670719" xlink:href="#m71fca1a6e9" y="466.561761"/>
     <use style="fill:#dbcd00;stroke:#dbcd00;" x="121.986665" xlink:href="#m71fca1a6e9" y="466.561761"/>
     <use style="fill:#dbcd00;stroke:#dbcd00;" x="130.302612" xlink:href="#m71fca1a6e9" y="460.573991"/>
     <use style="fill:#dbcd00;stroke:#dbcd00;" x="138.618558" xlink:href="#m71fca1a6e9" y="460.573991"/>
     <use style="fill:#dbcd00;stroke:#dbcd00;" x="146.934504" xlink:href="#m71fca1a6e9" y="450.594374"/>
     <use style="fill:#dbcd00;stroke:#dbcd00;" x="155.250451" xlink:href="#m71fca1a6e9" y="450.594374"/>
     <use style="fill:#dbcd00;stroke:#dbcd00;" x="163.566397" xlink:href="#m71fca1a6e9" y="450.594374"/>
     <use style="fill:#dbcd00;stroke:#dbcd00;" x="171.882344" xlink:href="#m71fca1a6e9" y="450.594374"/>
     <use style="fill:#dbcd00;stroke:#dbcd00;" x="180.19829" xlink:href="#m71fca1a6e9" y="448.598451"/>
     <use style="fill:#dbcd00;stroke:#dbcd00;" x="188.514236" xlink:href="#m71fca1a6e9" y="442.610681"/>
     <use style="fill:#dbcd00;stroke:#dbcd00;" x="196.830183" xlink:href="#m71fca1a6e9" y="428.639217"/>
     <use style="fill:#dbcd00;stroke:#dbcd00;" x="205.146129" xlink:href="#m71fca1a6e9" y="418.6596"/>
     <use style="fill:#dbcd00;stroke:#dbcd00;" x="213.462075" xlink:href="#m71fca1a6e9" y="418.6596"/>
     <use style="fill:#dbcd00;stroke:#dbcd00;" x="221.778022" xlink:href="#m71fca1a6e9" y="416.663677"/>
     <use style="fill:#dbcd00;stroke:#dbcd00;" x="230.093968" xlink:href="#m71fca1a6e9" y="416.663677"/>
     <use style="fill:#dbcd00;stroke:#dbcd00;" x="238.409914" xlink:href="#m71fca1a6e9" y="410.675907"/>
     <use style="fill:#dbcd00;stroke:#dbcd00;" x="246.725861" xlink:href="#m71fca1a6e9" y="406.68406"/>
     <use style="fill:#dbcd00;stroke:#dbcd00;" x="255.041807" xlink:href="#m71fca1a6e9" y="396.704444"/>
     <use style="fill:#dbcd00;stroke:#dbcd00;" x="271.6737" xlink:href="#m71fca1a6e9" y="392.712597"/>
     <use style="fill:#dbcd00;stroke:#dbcd00;" x="288.305592" xlink:href="#m71fca1a6e9" y="384.728903"/>
     <use style="fill:#dbcd00;stroke:#dbcd00;" x="296.621539" xlink:href="#m71fca1a6e9" y="382.73298"/>
     <use style="fill:#dbcd00;stroke:#dbcd00;" x="304.937485" xlink:href="#m71fca1a6e9" y="382.73298"/>
     <use style="fill:#dbcd00;stroke:#dbcd00;" x="313.253431" xlink:href="#m71fca1a6e9" y="368.761517"/>
     <use style="fill:#dbcd00;stroke:#dbcd00;" x="321.569378" xlink:href="#m71fca1a6e9" y="368.761517"/>
     <use style="fill:#dbcd00;stroke:#dbcd00;" x="338.20127" xlink:href="#m71fca1a6e9" y="358.7819"/>
     <use style="fill:#dbcd00;stroke:#dbcd00;" x="346.517217" xlink:href="#m71fca1a6e9" y="352.79413"/>
     <use style="fill:#dbcd00;stroke:#dbcd00;" x="354.833163" xlink:href="#m71fca1a6e9" y="346.80636"/>
     <use style="fill:#dbcd00;stroke:#dbcd00;" x="363.14911" xlink:href="#m71fca1a6e9" y="332.834896"/>
     <use style="fill:#dbcd00;stroke:#dbcd00;" x="371.465056" xlink:href="#m71fca1a6e9" y="330.838973"/>
     <use style="fill:#dbcd00;stroke:#dbcd00;" x="379.781002" xlink:href="#m71fca1a6e9" y="328.843049"/>
     <use style="fill:#dbcd00;stroke:#dbcd00;" x="396.412895" xlink:href="#m71fca1a6e9" y="310.879739"/>
     <use style="fill:#dbcd00;stroke:#dbcd00;" x="404.728841" xlink:href="#m71fca1a6e9" y="298.904199"/>
     <use style="fill:#dbcd00;stroke:#dbcd00;" x="413.044788" xlink:href="#m71fca1a6e9" y="292.916429"/>
     <use style="fill:#dbcd00;stroke:#dbcd00;" x="421.360734" xlink:href="#m71fca1a6e9" y="280.940889"/>
     <use style="fill:#dbcd00;stroke:#dbcd00;" x="437.992627" xlink:href="#m71fca1a6e9" y="274.953119"/>
     <use style="fill:#dbcd00;stroke:#dbcd00;" x="454.624519" xlink:href="#m71fca1a6e9" y="258.985732"/>
     <use style="fill:#dbcd00;stroke:#dbcd00;" x="462.940466" xlink:href="#m71fca1a6e9" y="249.006115"/>
     <use style="fill:#dbcd00;stroke:#dbcd00;" x="471.256412" xlink:href="#m71fca1a6e9" y="243.018345"/>
     <use style="fill:#dbcd00;stroke:#dbcd00;" x="479.572358" xlink:href="#m71fca1a6e9" y="233.038728"/>
     <use style="fill:#dbcd00;stroke:#dbcd00;" x="487.888305" xlink:href="#m71fca1a6e9" y="231.042805"/>
     <use style="fill:#dbcd00;stroke:#dbcd00;" x="496.204251" xlink:href="#m71fca1a6e9" y="217.071341"/>
     <use style="fill:#dbcd00;stroke:#dbcd00;" x="512.836144" xlink:href="#m71fca1a6e9" y="207.091724"/>
     <use style="fill:#dbcd00;stroke:#dbcd00;" x="521.15209" xlink:href="#m71fca1a6e9" y="203.099878"/>
     <use style="fill:#dbcd00;stroke:#dbcd00;" x="529.468037" xlink:href="#m71fca1a6e9" y="189.128414"/>
     <use style="fill:#dbcd00;stroke:#dbcd00;" x="537.783983" xlink:href="#m71fca1a6e9" y="189.128414"/>
     <use style="fill:#dbcd00;stroke:#dbcd00;" x="546.099929" xlink:href="#m71fca1a6e9" y="175.156951"/>
     <use style="fill:#dbcd00;stroke:#dbcd00;" x="554.415876" xlink:href="#m71fca1a6e9" y="161.185487"/>
     <use style="fill:#dbcd00;stroke:#dbcd00;" x="571.047768" xlink:href="#m71fca1a6e9" y="149.209947"/>
     <use style="fill:#dbcd00;stroke:#dbcd00;" x="579.363715" xlink:href="#m71fca1a6e9" y="145.2181"/>
     <use style="fill:#dbcd00;stroke:#dbcd00;" x="587.679661" xlink:href="#m71fca1a6e9" y="139.23033"/>
     <use style="fill:#dbcd00;stroke:#dbcd00;" x="604.311554" xlink:href="#m71fca1a6e9" y="127.25479"/>
     <use style="fill:#dbcd00;stroke:#dbcd00;" x="612.6275" xlink:href="#m71fca1a6e9" y="123.262943"/>
     <use style="fill:#dbcd00;stroke:#dbcd00;" x="629.259393" xlink:href="#m71fca1a6e9" y="121.26702"/>
     <use style="fill:#dbcd00;stroke:#dbcd00;" x="637.575339" xlink:href="#m71fca1a6e9" y="121.26702"/>
     <use style="fill:#dbcd00;stroke:#dbcd00;" x="654.207232" xlink:href="#m71fca1a6e9" y="115.27925"/>
     <use style="fill:#dbcd00;stroke:#dbcd00;" x="662.523178" xlink:href="#m71fca1a6e9" y="109.29148"/>
     <use style="fill:#dbcd00;stroke:#dbcd00;" x="695.786963" xlink:href="#m71fca1a6e9" y="105.299633"/>
     <use style="fill:#dbcd00;stroke:#dbcd00;" x="704.10291" xlink:href="#m71fca1a6e9" y="99.311863"/>
     <use style="fill:#dbcd00;stroke:#dbcd00;" x="712.418856" xlink:href="#m71fca1a6e9" y="97.31594"/>
     <use style="fill:#dbcd00;stroke:#dbcd00;" x="720.734803" xlink:href="#m71fca1a6e9" y="93.324093"/>
     <use style="fill:#dbcd00;stroke:#dbcd00;" x="729.050749" xlink:href="#m71fca1a6e9" y="93.324093"/>
     <use style="fill:#dbcd00;stroke:#dbcd00;" x="745.682642" xlink:href="#m71fca1a6e9" y="93.324093"/>
     <use style="fill:#dbcd00;stroke:#dbcd00;" x="753.998588" xlink:href="#m71fca1a6e9" y="89.332246"/>
     <use style="fill:#dbcd00;stroke:#dbcd00;" x="762.314534" xlink:href="#m71fca1a6e9" y="87.336323"/>
     <use style="fill:#dbcd00;stroke:#dbcd00;" x="778.946427" xlink:href="#m71fca1a6e9" y="79.352629"/>
     <use style="fill:#dbcd00;stroke:#dbcd00;" x="787.262373" xlink:href="#m71fca1a6e9" y="77.356706"/>
     <use style="fill:#dbcd00;stroke:#dbcd00;" x="803.894266" xlink:href="#m71fca1a6e9" y="77.356706"/>
     <use style="fill:#dbcd00;stroke:#dbcd00;" x="820.526159" xlink:href="#m71fca1a6e9" y="77.356706"/>
     <use style="fill:#dbcd00;stroke:#dbcd00;" x="837.158051" xlink:href="#m71fca1a6e9" y="65.381166"/>
     <use style="fill:#dbcd00;stroke:#dbcd00;" x="845.473998" xlink:href="#m71fca1a6e9" y="65.381166"/>
     <use style="fill:#dbcd00;stroke:#dbcd00;" x="862.10589" xlink:href="#m71fca1a6e9" y="63.385243"/>
     <use style="fill:#dbcd00;stroke:#dbcd00;" x="870.421837" xlink:href="#m71fca1a6e9" y="61.389319"/>
     <use style="fill:#dbcd00;stroke:#dbcd00;" x="878.737783" xlink:href="#m71fca1a6e9" y="59.393396"/>
     <use style="fill:#dbcd00;stroke:#dbcd00;" x="887.05373" xlink:href="#m71fca1a6e9" y="59.393396"/>
     <use style="fill:#dbcd00;stroke:#dbcd00;" x="903.685622" xlink:href="#m71fca1a6e9" y="59.393396"/>
     <use style="fill:#dbcd00;stroke:#dbcd00;" x="920.317515" xlink:href="#m71fca1a6e9" y="59.393396"/>
     <use style="fill:#dbcd00;stroke:#dbcd00;" x="928.633461" xlink:href="#m71fca1a6e9" y="59.393396"/>
     <use style="fill:#dbcd00;stroke:#dbcd00;" x="936.949408" xlink:href="#m71fca1a6e9" y="59.393396"/>
     <use style="fill:#dbcd00;stroke:#dbcd00;" x="945.265354" xlink:href="#m71fca1a6e9" y="59.393396"/>
     <use style="fill:#dbcd00;stroke:#dbcd00;" x="953.5813" xlink:href="#m71fca1a6e9" y="59.393396"/>
     <use style="fill:#dbcd00;stroke:#dbcd00;" x="961.897247" xlink:href="#m71fca1a6e9" y="59.393396"/>
     <use style="fill:#dbcd00;stroke:#dbcd00;" x="986.845086" xlink:href="#m71fca1a6e9" y="59.393396"/>
     <use style="fill:#dbcd00;stroke:#dbcd00;" x="995.161032" xlink:href="#m71fca1a6e9" y="59.393396"/>
     <use style="fill:#dbcd00;stroke:#dbcd00;" x="1003.476978" xlink:href="#m71fca1a6e9" y="59.393396"/>
     <use style="fill:#dbcd00;stroke:#dbcd00;" x="1011.792925" xlink:href="#m71fca1a6e9" y="59.393396"/>
     <use style="fill:#dbcd00;stroke:#dbcd00;" x="1036.740764" xlink:href="#m71fca1a6e9" y="53.405626"/>
     <use style="fill:#dbcd00;stroke:#dbcd00;" x="1045.05671" xlink:href="#m71fca1a6e9" y="49.413779"/>
     <use style="fill:#dbcd00;stroke:#dbcd00;" x="1053.372656" xlink:href="#m71fca1a6e9" y="47.417856"/>
     <use style="fill:#dbcd00;stroke:#dbcd00;" x="1061.688603" xlink:href="#m71fca1a6e9" y="43.426009"/>
     <use style="fill:#dbcd00;stroke:#dbcd00;" x="1070.004549" xlink:href="#m71fca1a6e9" y="43.426009"/>
     <use style="fill:#dbcd00;stroke:#dbcd00;" x="1094.952388" xlink:href="#m71fca1a6e9" y="39.434162"/>
     <use style="fill:#dbcd00;stroke:#dbcd00;" x="1119.900227" xlink:href="#m71fca1a6e9" y="29.454545"/>
    </g>
   </g>
   <g id="line2d_16">
    <path clip-path="url(#pfb0b021d69)" d="M 105.354773 440.614757 
L 113.670719 438.618834 
L 121.986665 424.647371 
L 130.302612 436.622911 
L 138.618558 428.639217 
L 146.934504 418.6596 
L 155.250451 416.663677 
L 163.566397 412.67183 
L 171.882344 404.688137 
L 180.19829 404.688137 
L 188.514236 398.700367 
L 196.830183 404.688137 
L 205.146129 404.688137 
L 213.462075 402.692214 
L 221.778022 396.704444 
L 230.093968 388.72075 
L 238.409914 380.737057 
L 246.725861 376.74521 
L 255.041807 380.737057 
L 271.6737 380.737057 
L 288.305592 378.741133 
L 296.621539 368.761517 
L 304.937485 366.765593 
L 313.253431 372.753363 
L 321.569378 366.765593 
L 338.20127 368.761517 
L 346.517217 356.785976 
L 354.833163 362.773746 
L 363.14911 370.75744 
L 371.465056 368.761517 
L 379.781002 344.810436 
L 396.412895 358.7819 
L 404.728841 366.765593 
L 413.044788 370.75744 
L 421.360734 378.741133 
L 437.992627 368.761517 
L 454.624519 384.728903 
L 462.940466 368.761517 
L 471.256412 360.777823 
L 479.572358 370.75744 
L 487.888305 372.753363 
L 496.204251 382.73298 
L 512.836144 390.716673 
L 521.15209 392.712597 
L 529.468037 396.704444 
L 537.783983 396.704444 
L 546.099929 410.675907 
L 554.415876 420.655524 
L 571.047768 432.631064 
L 579.363715 434.626987 
L 587.679661 440.614757 
L 604.311554 452.590298 
L 612.6275 450.594374 
L 629.259393 446.602528 
L 637.575339 446.602528 
L 654.207232 448.598451 
L 662.523178 454.586221 
L 695.786963 448.598451 
L 704.10291 452.590298 
L 712.418856 450.594374 
L 720.734803 456.582144 
L 729.050749 456.582144 
L 745.682642 456.582144 
L 753.998588 460.573991 
L 762.314534 456.582144 
L 778.946427 460.573991 
L 787.262373 458.578068 
L 803.894266 458.578068 
L 820.526159 458.578068 
L 837.158051 470.553608 
L 845.473998 468.557684 
L 862.10589 470.553608 
L 870.421837 470.553608 
L 878.737783 474.545455 
L 887.05373 474.545455 
L 903.685622 474.545455 
L 920.317515 474.545455 
L 928.633461 474.545455 
L 936.949408 472.549531 
L 945.265354 470.553608 
L 953.5813 468.557684 
L 961.897247 460.573991 
L 986.845086 460.573991 
L 995.161032 456.582144 
L 1003.476978 456.582144 
L 1011.792925 456.582144 
L 1036.740764 456.582144 
L 1045.05671 460.573991 
L 1053.372656 462.569914 
L 1061.688603 466.561761 
L 1070.004549 458.578068 
L 1094.952388 458.578068 
L 1119.900227 450.594374 
" style="fill:none;stroke:#2792cb;stroke-linecap:square;stroke-width:2;"/>
    <defs>
     <path d="M 0 1.5 
C 0.397805 1.5 0.77937 1.341951 1.06066 1.06066 
C 1.341951 0.77937 1.5 0.397805 1.5 0 
C 1.5 -0.397805 1.341951 -0.77937 1.06066 -1.06066 
C 0.77937 -1.341951 0.397805 -1.5 0 -1.5 
C -0.397805 -1.5 -0.77937 -1.341951 -1.06066 -1.06066 
C -1.341951 -0.77937 -1.5 -0.397805 -1.5 0 
C -1.5 0.397805 -1.341951 0.77937 -1.06066 1.06066 
C -0.77937 1.341951 -0.397805 1.5 0 1.5 
z
" id="m85d675610d" style="stroke:#2792cb;"/>
    </defs>
    <g clip-path="url(#pfb0b021d69)">
     <use style="fill:#2792cb;stroke:#2792cb;" x="105.354773" xlink:href="#m85d675610d" y="440.614757"/>
     <use style="fill:#2792cb;stroke:#2792cb;" x="113.670719" xlink:href="#m85d675610d" y="438.618834"/>
     <use style="fill:#2792cb;stroke:#2792cb;" x="121.986665" xlink:href="#m85d675610d" y="424.647371"/>
     <use style="fill:#2792cb;stroke:#2792cb;" x="130.302612" xlink:href="#m85d675610d" y="436.622911"/>
     <use style="fill:#2792cb;stroke:#2792cb;" x="138.618558" xlink:href="#m85d675610d" y="428.639217"/>
     <use style="fill:#2792cb;stroke:#2792cb;" x="146.934504" xlink:href="#m85d675610d" y="418.6596"/>
     <use style="fill:#2792cb;stroke:#2792cb;" x="155.250451" xlink:href="#m85d675610d" y="416.663677"/>
     <use style="fill:#2792cb;stroke:#2792cb;" x="163.566397" xlink:href="#m85d675610d" y="412.67183"/>
     <use style="fill:#2792cb;stroke:#2792cb;" x="171.882344" xlink:href="#m85d675610d" y="404.688137"/>
     <use style="fill:#2792cb;stroke:#2792cb;" x="180.19829" xlink:href="#m85d675610d" y="404.688137"/>
     <use style="fill:#2792cb;stroke:#2792cb;" x="188.514236" xlink:href="#m85d675610d" y="398.700367"/>
     <use style="fill:#2792cb;stroke:#2792cb;" x="196.830183" xlink:href="#m85d675610d" y="404.688137"/>
     <use style="fill:#2792cb;stroke:#2792cb;" x="205.146129" xlink:href="#m85d675610d" y="404.688137"/>
     <use style="fill:#2792cb;stroke:#2792cb;" x="213.462075" xlink:href="#m85d675610d" y="402.692214"/>
     <use style="fill:#2792cb;stroke:#2792cb;" x="221.778022" xlink:href="#m85d675610d" y="396.704444"/>
     <use style="fill:#2792cb;stroke:#2792cb;" x="230.093968" xlink:href="#m85d675610d" y="388.72075"/>
     <use style="fill:#2792cb;stroke:#2792cb;" x="238.409914" xlink:href="#m85d675610d" y="380.737057"/>
     <use style="fill:#2792cb;stroke:#2792cb;" x="246.725861" xlink:href="#m85d675610d" y="376.74521"/>
     <use style="fill:#2792cb;stroke:#2792cb;" x="255.041807" xlink:href="#m85d675610d" y="380.737057"/>
     <use style="fill:#2792cb;stroke:#2792cb;" x="271.6737" xlink:href="#m85d675610d" y="380.737057"/>
     <use style="fill:#2792cb;stroke:#2792cb;" x="288.305592" xlink:href="#m85d675610d" y="378.741133"/>
     <use style="fill:#2792cb;stroke:#2792cb;" x="296.621539" xlink:href="#m85d675610d" y="368.761517"/>
     <use style="fill:#2792cb;stroke:#2792cb;" x="304.937485" xlink:href="#m85d675610d" y="366.765593"/>
     <use style="fill:#2792cb;stroke:#2792cb;" x="313.253431" xlink:href="#m85d675610d" y="372.753363"/>
     <use style="fill:#2792cb;stroke:#2792cb;" x="321.569378" xlink:href="#m85d675610d" y="366.765593"/>
     <use style="fill:#2792cb;stroke:#2792cb;" x="338.20127" xlink:href="#m85d675610d" y="368.761517"/>
     <use style="fill:#2792cb;stroke:#2792cb;" x="346.517217" xlink:href="#m85d675610d" y="356.785976"/>
     <use style="fill:#2792cb;stroke:#2792cb;" x="354.833163" xlink:href="#m85d675610d" y="362.773746"/>
     <use style="fill:#2792cb;stroke:#2792cb;" x="363.14911" xlink:href="#m85d675610d" y="370.75744"/>
     <use style="fill:#2792cb;stroke:#2792cb;" x="371.465056" xlink:href="#m85d675610d" y="368.761517"/>
     <use style="fill:#2792cb;stroke:#2792cb;" x="379.781002" xlink:href="#m85d675610d" y="344.810436"/>
     <use style="fill:#2792cb;stroke:#2792cb;" x="396.412895" xlink:href="#m85d675610d" y="358.7819"/>
     <use style="fill:#2792cb;stroke:#2792cb;" x="404.728841" xlink:href="#m85d675610d" y="366.765593"/>
     <use style="fill:#2792cb;stroke:#2792cb;" x="413.044788" xlink:href="#m85d675610d" y="370.75744"/>
     <use style="fill:#2792cb;stroke:#2792cb;" x="421.360734" xlink:href="#m85d675610d" y="378.741133"/>
     <use style="fill:#2792cb;stroke:#2792cb;" x="437.992627" xlink:href="#m85d675610d" y="368.761517"/>
     <use style="fill:#2792cb;stroke:#2792cb;" x="454.624519" xlink:href="#m85d675610d" y="384.728903"/>
     <use style="fill:#2792cb;stroke:#2792cb;" x="462.940466" xlink:href="#m85d675610d" y="368.761517"/>
     <use style="fill:#2792cb;stroke:#2792cb;" x="471.256412" xlink:href="#m85d675610d" y="360.777823"/>
     <use style="fill:#2792cb;stroke:#2792cb;" x="479.572358" xlink:href="#m85d675610d" y="370.75744"/>
     <use style="fill:#2792cb;stroke:#2792cb;" x="487.888305" xlink:href="#m85d675610d" y="372.753363"/>
     <use style="fill:#2792cb;stroke:#2792cb;" x="496.204251" xlink:href="#m85d675610d" y="382.73298"/>
     <use style="fill:#2792cb;stroke:#2792cb;" x="512.836144" xlink:href="#m85d675610d" y="390.716673"/>
     <use style="fill:#2792cb;stroke:#2792cb;" x="521.15209" xlink:href="#m85d675610d" y="392.712597"/>
     <use style="fill:#2792cb;stroke:#2792cb;" x="529.468037" xlink:href="#m85d675610d" y="396.704444"/>
     <use style="fill:#2792cb;stroke:#2792cb;" x="537.783983" xlink:href="#m85d675610d" y="396.704444"/>
     <use style="fill:#2792cb;stroke:#2792cb;" x="546.099929" xlink:href="#m85d675610d" y="410.675907"/>
     <use style="fill:#2792cb;stroke:#2792cb;" x="554.415876" xlink:href="#m85d675610d" y="420.655524"/>
     <use style="fill:#2792cb;stroke:#2792cb;" x="571.047768" xlink:href="#m85d675610d" y="432.631064"/>
     <use style="fill:#2792cb;stroke:#2792cb;" x="579.363715" xlink:href="#m85d675610d" y="434.626987"/>
     <use style="fill:#2792cb;stroke:#2792cb;" x="587.679661" xlink:href="#m85d675610d" y="440.614757"/>
     <use style="fill:#2792cb;stroke:#2792cb;" x="604.311554" xlink:href="#m85d675610d" y="452.590298"/>
     <use style="fill:#2792cb;stroke:#2792cb;" x="612.6275" xlink:href="#m85d675610d" y="450.594374"/>
     <use style="fill:#2792cb;stroke:#2792cb;" x="629.259393" xlink:href="#m85d675610d" y="446.602528"/>
     <use style="fill:#2792cb;stroke:#2792cb;" x="637.575339" xlink:href="#m85d675610d" y="446.602528"/>
     <use style="fill:#2792cb;stroke:#2792cb;" x="654.207232" xlink:href="#m85d675610d" y="448.598451"/>
     <use style="fill:#2792cb;stroke:#2792cb;" x="662.523178" xlink:href="#m85d675610d" y="454.586221"/>
     <use style="fill:#2792cb;stroke:#2792cb;" x="695.786963" xlink:href="#m85d675610d" y="448.598451"/>
     <use style="fill:#2792cb;stroke:#2792cb;" x="704.10291" xlink:href="#m85d675610d" y="452.590298"/>
     <use style="fill:#2792cb;stroke:#2792cb;" x="712.418856" xlink:href="#m85d675610d" y="450.594374"/>
     <use style="fill:#2792cb;stroke:#2792cb;" x="720.734803" xlink:href="#m85d675610d" y="456.582144"/>
     <use style="fill:#2792cb;stroke:#2792cb;" x="729.050749" xlink:href="#m85d675610d" y="456.582144"/>
     <use style="fill:#2792cb;stroke:#2792cb;" x="745.682642" xlink:href="#m85d675610d" y="456.582144"/>
     <use style="fill:#2792cb;stroke:#2792cb;" x="753.998588" xlink:href="#m85d675610d" y="460.573991"/>
     <use style="fill:#2792cb;stroke:#2792cb;" x="762.314534" xlink:href="#m85d675610d" y="456.582144"/>
     <use style="fill:#2792cb;stroke:#2792cb;" x="778.946427" xlink:href="#m85d675610d" y="460.573991"/>
     <use style="fill:#2792cb;stroke:#2792cb;" x="787.262373" xlink:href="#m85d675610d" y="458.578068"/>
     <use style="fill:#2792cb;stroke:#2792cb;" x="803.894266" xlink:href="#m85d675610d" y="458.578068"/>
     <use style="fill:#2792cb;stroke:#2792cb;" x="820.526159" xlink:href="#m85d675610d" y="458.578068"/>
     <use style="fill:#2792cb;stroke:#2792cb;" x="837.158051" xlink:href="#m85d675610d" y="470.553608"/>
     <use style="fill:#2792cb;stroke:#2792cb;" x="845.473998" xlink:href="#m85d675610d" y="468.557684"/>
     <use style="fill:#2792cb;stroke:#2792cb;" x="862.10589" xlink:href="#m85d675610d" y="470.553608"/>
     <use style="fill:#2792cb;stroke:#2792cb;" x="870.421837" xlink:href="#m85d675610d" y="470.553608"/>
     <use style="fill:#2792cb;stroke:#2792cb;" x="878.737783" xlink:href="#m85d675610d" y="474.545455"/>
     <use style="fill:#2792cb;stroke:#2792cb;" x="887.05373" xlink:href="#m85d675610d" y="474.545455"/>
     <use style="fill:#2792cb;stroke:#2792cb;" x="903.685622" xlink:href="#m85d675610d" y="474.545455"/>
     <use style="fill:#2792cb;stroke:#2792cb;" x="920.317515" xlink:href="#m85d675610d" y="474.545455"/>
     <use style="fill:#2792cb;stroke:#2792cb;" x="928.633461" xlink:href="#m85d675610d" y="474.545455"/>
     <use style="fill:#2792cb;stroke:#2792cb;" x="936.949408" xlink:href="#m85d675610d" y="472.549531"/>
     <use style="fill:#2792cb;stroke:#2792cb;" x="945.265354" xlink:href="#m85d675610d" y="470.553608"/>
     <use style="fill:#2792cb;stroke:#2792cb;" x="953.5813" xlink:href="#m85d675610d" y="468.557684"/>
     <use style="fill:#2792cb;stroke:#2792cb;" x="961.897247" xlink:href="#m85d675610d" y="460.573991"/>
     <use style="fill:#2792cb;stroke:#2792cb;" x="986.845086" xlink:href="#m85d675610d" y="460.573991"/>
     <use style="fill:#2792cb;stroke:#2792cb;" x="995.161032" xlink:href="#m85d675610d" y="456.582144"/>
     <use style="fill:#2792cb;stroke:#2792cb;" x="1003.476978" xlink:href="#m85d675610d" y="456.582144"/>
     <use style="fill:#2792cb;stroke:#2792cb;" x="1011.792925" xlink:href="#m85d675610d" y="456.582144"/>
     <use style="fill:#2792cb;stroke:#2792cb;" x="1036.740764" xlink:href="#m85d675610d" y="456.582144"/>
     <use style="fill:#2792cb;stroke:#2792cb;" x="1045.05671" xlink:href="#m85d675610d" y="460.573991"/>
     <use style="fill:#2792cb;stroke:#2792cb;" x="1053.372656" xlink:href="#m85d675610d" y="462.569914"/>
     <use style="fill:#2792cb;stroke:#2792cb;" x="1061.688603" xlink:href="#m85d675610d" y="466.561761"/>
     <use style="fill:#2792cb;stroke:#2792cb;" x="1070.004549" xlink:href="#m85d675610d" y="458.578068"/>
     <use style="fill:#2792cb;stroke:#2792cb;" x="1094.952388" xlink:href="#m85d675610d" y="458.578068"/>
     <use style="fill:#2792cb;stroke:#2792cb;" x="1119.900227" xlink:href="#m85d675610d" y="450.594374"/>
    </g>
   </g>
   <g id="patch_3">
    <path d="M 54.6275 496.8 
L 1170.6275 496.8 
" style="fill:none;stroke:#000000;stroke-linecap:square;stroke-linejoin:miter;stroke-width:0.8;"/>
   </g>
   <g id="legend_1">
    <g id="line2d_17">
     <path d="M 63.6275 20.298437 
L 83.6275 20.298437 
" style="fill:none;stroke:#dbcd00;stroke-linecap:square;stroke-width:2;"/>
    </g>
    <g id="line2d_18">
     <g>
      <use style="fill:#dbcd00;stroke:#dbcd00;" x="73.6275" xlink:href="#m71fca1a6e9" y="20.298437"/>
     </g>
    </g>
    <g id="text_13">
     <!-- Genesene -->
     <defs>
      <path d="M 59.515625 10.40625 
L 59.515625 29.984375 
L 43.40625 29.984375 
L 43.40625 38.09375 
L 69.28125 38.09375 
L 69.28125 6.78125 
Q 63.578125 2.734375 56.6875 0.65625 
Q 49.8125 -1.421875 42 -1.421875 
Q 24.90625 -1.421875 15.25 8.5625 
Q 5.609375 18.5625 5.609375 36.375 
Q 5.609375 54.25 15.25 64.234375 
Q 24.90625 74.21875 42 74.21875 
Q 49.125 74.21875 55.546875 72.453125 
Q 61.96875 70.703125 67.390625 67.28125 
L 67.390625 56.78125 
Q 61.921875 61.421875 55.765625 63.765625 
Q 49.609375 66.109375 42.828125 66.109375 
Q 29.4375 66.109375 22.71875 58.640625 
Q 16.015625 51.171875 16.015625 36.375 
Q 16.015625 21.625 22.71875 14.15625 
Q 29.4375 6.6875 42.828125 6.6875 
Q 48.046875 6.6875 52.140625 7.59375 
Q 56.25 8.5 59.515625 10.40625 
z
" id="DejaVuSans-71"/>
      <path d="M 44.28125 53.078125 
L 44.28125 44.578125 
Q 40.484375 46.53125 36.375 47.5 
Q 32.28125 48.484375 27.875 48.484375 
Q 21.1875 48.484375 17.84375 46.4375 
Q 14.5 44.390625 14.5 40.28125 
Q 14.5 37.15625 16.890625 35.375 
Q 19.28125 33.59375 26.515625 31.984375 
L 29.59375 31.296875 
Q 39.15625 29.25 43.1875 25.515625 
Q 47.21875 21.78125 47.21875 15.09375 
Q 47.21875 7.46875 41.1875 3.015625 
Q 35.15625 -1.421875 24.609375 -1.421875 
Q 20.21875 -1.421875 15.453125 -0.5625 
Q 10.6875 0.296875 5.421875 2 
L 5.421875 11.28125 
Q 10.40625 8.6875 15.234375 7.390625 
Q 20.0625 6.109375 24.8125 6.109375 
Q 31.15625 6.109375 34.5625 8.28125 
Q 37.984375 10.453125 37.984375 14.40625 
Q 37.984375 18.0625 35.515625 20.015625 
Q 33.0625 21.96875 24.703125 23.78125 
L 21.578125 24.515625 
Q 13.234375 26.265625 9.515625 29.90625 
Q 5.8125 33.546875 5.8125 39.890625 
Q 5.8125 47.609375 11.28125 51.796875 
Q 16.75 56 26.8125 56 
Q 31.78125 56 36.171875 55.265625 
Q 40.578125 54.546875 44.28125 53.078125 
z
" id="DejaVuSans-115"/>
     </defs>
     <g transform="translate(91.6275 23.798437)scale(0.1 -0.1)">
      <use xlink:href="#DejaVuSans-71"/>
      <use x="77.490234" xlink:href="#DejaVuSans-101"/>
      <use x="139.013672" xlink:href="#DejaVuSans-110"/>
      <use x="202.392578" xlink:href="#DejaVuSans-101"/>
      <use x="263.916016" xlink:href="#DejaVuSans-115"/>
      <use x="316.015625" xlink:href="#DejaVuSans-101"/>
      <use x="377.539062" xlink:href="#DejaVuSans-110"/>
      <use x="440.917969" xlink:href="#DejaVuSans-101"/>
     </g>
    </g>
    <g id="line2d_19">
     <path d="M 63.6275 34.976562 
L 83.6275 34.976562 
" style="fill:none;stroke:#2792cb;stroke-linecap:square;stroke-width:2;"/>
    </g>
    <g id="line2d_20">
     <g>
      <use style="fill:#2792cb;stroke:#2792cb;" x="73.6275" xlink:href="#m85d675610d" y="34.976562"/>
     </g>
    </g>
    <g id="text_14">
     <!-- Erkrankte -->
     <defs>
      <path d="M 9.8125 72.90625 
L 55.90625 72.90625 
L 55.90625 64.59375 
L 19.671875 64.59375 
L 19.671875 43.015625 
L 54.390625 43.015625 
L 54.390625 34.71875 
L 19.671875 34.71875 
L 19.671875 8.296875 
L 56.78125 8.296875 
L 56.78125 0 
L 9.8125 0 
z
" id="DejaVuSans-69"/>
      <path d="M 41.109375 46.296875 
Q 39.59375 47.171875 37.8125 47.578125 
Q 36.03125 48 33.890625 48 
Q 26.265625 48 22.1875 43.046875 
Q 18.109375 38.09375 18.109375 28.8125 
L 18.109375 0 
L 9.078125 0 
L 9.078125 54.6875 
L 18.109375 54.6875 
L 18.109375 46.1875 
Q 20.953125 51.171875 25.484375 53.578125 
Q 30.03125 56 36.53125 56 
Q 37.453125 56 38.578125 55.875 
Q 39.703125 55.765625 41.0625 55.515625 
z
" id="DejaVuSans-114"/>
      <path d="M 9.078125 75.984375 
L 18.109375 75.984375 
L 18.109375 31.109375 
L 44.921875 54.6875 
L 56.390625 54.6875 
L 27.390625 29.109375 
L 57.625 0 
L 45.90625 0 
L 18.109375 26.703125 
L 18.109375 0 
L 9.078125 0 
z
" id="DejaVuSans-107"/>
      <path d="M 18.3125 70.21875 
L 18.3125 54.6875 
L 36.8125 54.6875 
L 36.8125 47.703125 
L 18.3125 47.703125 
L 18.3125 18.015625 
Q 18.3125 11.328125 20.140625 9.421875 
Q 21.96875 7.515625 27.59375 7.515625 
L 36.8125 7.515625 
L 36.8125 0 
L 27.59375 0 
Q 17.1875 0 13.234375 3.875 
Q 9.28125 7.765625 9.28125 18.015625 
L 9.28125 47.703125 
L 2.6875 47.703125 
L 2.6875 54.6875 
L 9.28125 54.6875 
L 9.28125 70.21875 
z
" id="DejaVuSans-116"/>
     </defs>
     <g transform="translate(91.6275 38.476562)scale(0.1 -0.1)">
      <use xlink:href="#DejaVuSans-69"/>
      <use x="63.183594" xlink:href="#DejaVuSans-114"/>
      <use x="104.296875" xlink:href="#DejaVuSans-107"/>
      <use x="162.207031" xlink:href="#DejaVuSans-114"/>
      <use x="203.320312" xlink:href="#DejaVuSans-97"/>
      <use x="264.599609" xlink:href="#DejaVuSans-110"/>
      <use x="327.978516" xlink:href="#DejaVuSans-107"/>
      <use x="385.888672" xlink:href="#DejaVuSans-116"/>
      <use x="425.097656" xlink:href="#DejaVuSans-101"/>
     </g>
    </g>
   </g>
  </g>
 </g>
 <defs>
  <clipPath id="pfb0b021d69">
   <rect height="489.6" width="1116" x="54.6275" y="7.2"/>
  </clipPath>
 </defs>
</svg>
