<?xml version="1.0" encoding="utf-8" standalone="no"?>
<!DOCTYPE svg PUBLIC "-//W3C//DTD SVG 1.1//EN"
  "http://www.w3.org/Graphics/SVG/1.1/DTD/svg11.dtd">
<!-- Created with matplotlib (https://matplotlib.org/) -->
<svg height="553.993765pt" version="1.1" viewBox="0 0 1177.8275 553.993765" width="1177.8275pt" xmlns="http://www.w3.org/2000/svg" xmlns:xlink="http://www.w3.org/1999/xlink">
 <defs>
  <style type="text/css">
*{stroke-linecap:butt;stroke-linejoin:round;}
  </style>
 </defs>
 <g id="figure_1">
  <g id="patch_1">
   <path d="M 0 553.993765 
L 1177.8275 553.993765 
L 1177.8275 0 
L 0 0 
z
" style="fill:#ffffff;"/>
  </g>
  <g id="axes_1">
   <g id="patch_2">
    <path d="M 54.6275 501.738984 
L 1170.6275 501.738984 
L 1170.6275 12.138984 
L 54.6275 12.138984 
z
" style="fill:#ffffff;"/>
   </g>
   <g id="matplotlib.axis_1">
    <g id="xtick_1">
     <g id="line2d_1">
      <defs>
       <path d="M 0 0 
L 0 3.5 
" id="m78721c83c0" style="stroke:#000000;stroke-width:0.8;"/>
      </defs>
      <g>
       <use style="stroke:#000000;stroke-width:0.8;" x="153.160579" xlink:href="#m78721c83c0" y="501.738984"/>
      </g>
     </g>
     <g id="text_1">
      <!-- 2020-04 -->
      <defs>
       <path d="M 19.1875 8.296875 
L 53.609375 8.296875 
L 53.609375 0 
L 7.328125 0 
L 7.328125 8.296875 
Q 12.9375 14.109375 22.625 23.890625 
Q 32.328125 33.6875 34.8125 36.53125 
Q 39.546875 41.84375 41.421875 45.53125 
Q 43.3125 49.21875 43.3125 52.78125 
Q 43.3125 58.59375 39.234375 62.25 
Q 35.15625 65.921875 28.609375 65.921875 
Q 23.96875 65.921875 18.8125 64.3125 
Q 13.671875 62.703125 7.8125 59.421875 
L 7.8125 69.390625 
Q 13.765625 71.78125 18.9375 73 
Q 24.125 74.21875 28.421875 74.21875 
Q 39.75 74.21875 46.484375 68.546875 
Q 53.21875 62.890625 53.21875 53.421875 
Q 53.21875 48.921875 51.53125 44.890625 
Q 49.859375 40.875 45.40625 35.40625 
Q 44.1875 33.984375 37.640625 27.21875 
Q 31.109375 20.453125 19.1875 8.296875 
z
" id="DejaVuSans-50"/>
       <path d="M 31.78125 66.40625 
Q 24.171875 66.40625 20.328125 58.90625 
Q 16.5 51.421875 16.5 36.375 
Q 16.5 21.390625 20.328125 13.890625 
Q 24.171875 6.390625 31.78125 6.390625 
Q 39.453125 6.390625 43.28125 13.890625 
Q 47.125 21.390625 47.125 36.375 
Q 47.125 51.421875 43.28125 58.90625 
Q 39.453125 66.40625 31.78125 66.40625 
z
M 31.78125 74.21875 
Q 44.046875 74.21875 50.515625 64.515625 
Q 56.984375 54.828125 56.984375 36.375 
Q 56.984375 17.96875 50.515625 8.265625 
Q 44.046875 -1.421875 31.78125 -1.421875 
Q 19.53125 -1.421875 13.0625 8.265625 
Q 6.59375 17.96875 6.59375 36.375 
Q 6.59375 54.828125 13.0625 64.515625 
Q 19.53125 74.21875 31.78125 74.21875 
z
" id="DejaVuSans-48"/>
       <path d="M 4.890625 31.390625 
L 31.203125 31.390625 
L 31.203125 23.390625 
L 4.890625 23.390625 
z
" id="DejaVuSans-45"/>
       <path d="M 37.796875 64.3125 
L 12.890625 25.390625 
L 37.796875 25.390625 
z
M 35.203125 72.90625 
L 47.609375 72.90625 
L 47.609375 25.390625 
L 58.015625 25.390625 
L 58.015625 17.1875 
L 47.609375 17.1875 
L 47.609375 0 
L 37.796875 0 
L 37.796875 17.1875 
L 4.890625 17.1875 
L 4.890625 26.703125 
z
" id="DejaVuSans-52"/>
      </defs>
      <g transform="translate(104.768312 544.452384)rotate(-30)scale(0.13 -0.13)">
       <use xlink:href="#DejaVuSans-50"/>
       <use x="63.623047" xlink:href="#DejaVuSans-48"/>
       <use x="127.246094" xlink:href="#DejaVuSans-50"/>
       <use x="190.869141" xlink:href="#DejaVuSans-48"/>
       <use x="254.492188" xlink:href="#DejaVuSans-45"/>
       <use x="290.576172" xlink:href="#DejaVuSans-48"/>
       <use x="354.199219" xlink:href="#DejaVuSans-52"/>
      </g>
     </g>
    </g>
    <g id="xtick_2">
     <g id="line2d_2">
      <g>
       <use style="stroke:#000000;stroke-width:0.8;" x="312.513269" xlink:href="#m78721c83c0" y="501.738984"/>
      </g>
     </g>
     <g id="text_2">
      <!-- 2020-05 -->
      <defs>
       <path d="M 10.796875 72.90625 
L 49.515625 72.90625 
L 49.515625 64.59375 
L 19.828125 64.59375 
L 19.828125 46.734375 
Q 21.96875 47.46875 24.109375 47.828125 
Q 26.265625 48.1875 28.421875 48.1875 
Q 40.625 48.1875 47.75 41.5 
Q 54.890625 34.8125 54.890625 23.390625 
Q 54.890625 11.625 47.5625 5.09375 
Q 40.234375 -1.421875 26.90625 -1.421875 
Q 22.3125 -1.421875 17.546875 -0.640625 
Q 12.796875 0.140625 7.71875 1.703125 
L 7.71875 11.625 
Q 12.109375 9.234375 16.796875 8.0625 
Q 21.484375 6.890625 26.703125 6.890625 
Q 35.15625 6.890625 40.078125 11.328125 
Q 45.015625 15.765625 45.015625 23.390625 
Q 45.015625 31 40.078125 35.4375 
Q 35.15625 39.890625 26.703125 39.890625 
Q 22.75 39.890625 18.8125 39.015625 
Q 14.890625 38.140625 10.796875 36.28125 
z
" id="DejaVuSans-53"/>
      </defs>
      <g transform="translate(264.121002 544.452384)rotate(-30)scale(0.13 -0.13)">
       <use xlink:href="#DejaVuSans-50"/>
       <use x="63.623047" xlink:href="#DejaVuSans-48"/>
       <use x="127.246094" xlink:href="#DejaVuSans-50"/>
       <use x="190.869141" xlink:href="#DejaVuSans-48"/>
       <use x="254.492188" xlink:href="#DejaVuSans-45"/>
       <use x="290.576172" xlink:href="#DejaVuSans-48"/>
       <use x="354.199219" xlink:href="#DejaVuSans-53"/>
      </g>
     </g>
    </g>
    <g id="xtick_3">
     <g id="line2d_3">
      <g>
       <use style="stroke:#000000;stroke-width:0.8;" x="477.177714" xlink:href="#m78721c83c0" y="501.738984"/>
      </g>
     </g>
     <g id="text_3">
      <!-- 2020-06 -->
      <defs>
       <path d="M 33.015625 40.375 
Q 26.375 40.375 22.484375 35.828125 
Q 18.609375 31.296875 18.609375 23.390625 
Q 18.609375 15.53125 22.484375 10.953125 
Q 26.375 6.390625 33.015625 6.390625 
Q 39.65625 6.390625 43.53125 10.953125 
Q 47.40625 15.53125 47.40625 23.390625 
Q 47.40625 31.296875 43.53125 35.828125 
Q 39.65625 40.375 33.015625 40.375 
z
M 52.59375 71.296875 
L 52.59375 62.3125 
Q 48.875 64.0625 45.09375 64.984375 
Q 41.3125 65.921875 37.59375 65.921875 
Q 27.828125 65.921875 22.671875 59.328125 
Q 17.53125 52.734375 16.796875 39.40625 
Q 19.671875 43.65625 24.015625 45.921875 
Q 28.375 48.1875 33.59375 48.1875 
Q 44.578125 48.1875 50.953125 41.515625 
Q 57.328125 34.859375 57.328125 23.390625 
Q 57.328125 12.15625 50.6875 5.359375 
Q 44.046875 -1.421875 33.015625 -1.421875 
Q 20.359375 -1.421875 13.671875 8.265625 
Q 6.984375 17.96875 6.984375 36.375 
Q 6.984375 53.65625 15.1875 63.9375 
Q 23.390625 74.21875 37.203125 74.21875 
Q 40.921875 74.21875 44.703125 73.484375 
Q 48.484375 72.75 52.59375 71.296875 
z
" id="DejaVuSans-54"/>
      </defs>
      <g transform="translate(428.785447 544.452384)rotate(-30)scale(0.13 -0.13)">
       <use xlink:href="#DejaVuSans-50"/>
       <use x="63.623047" xlink:href="#DejaVuSans-48"/>
       <use x="127.246094" xlink:href="#DejaVuSans-50"/>
       <use x="190.869141" xlink:href="#DejaVuSans-48"/>
       <use x="254.492188" xlink:href="#DejaVuSans-45"/>
       <use x="290.576172" xlink:href="#DejaVuSans-48"/>
       <use x="354.199219" xlink:href="#DejaVuSans-54"/>
      </g>
     </g>
    </g>
    <g id="xtick_4">
     <g id="line2d_4">
      <g>
       <use style="stroke:#000000;stroke-width:0.8;" x="636.530403" xlink:href="#m78721c83c0" y="501.738984"/>
      </g>
     </g>
     <g id="text_4">
      <!-- 2020-07 -->
      <defs>
       <path d="M 8.203125 72.90625 
L 55.078125 72.90625 
L 55.078125 68.703125 
L 28.609375 0 
L 18.3125 0 
L 43.21875 64.59375 
L 8.203125 64.59375 
z
" id="DejaVuSans-55"/>
      </defs>
      <g transform="translate(588.138136 544.452384)rotate(-30)scale(0.13 -0.13)">
       <use xlink:href="#DejaVuSans-50"/>
       <use x="63.623047" xlink:href="#DejaVuSans-48"/>
       <use x="127.246094" xlink:href="#DejaVuSans-50"/>
       <use x="190.869141" xlink:href="#DejaVuSans-48"/>
       <use x="254.492188" xlink:href="#DejaVuSans-45"/>
       <use x="290.576172" xlink:href="#DejaVuSans-48"/>
       <use x="354.199219" xlink:href="#DejaVuSans-55"/>
      </g>
     </g>
    </g>
    <g id="xtick_5">
     <g id="line2d_5">
      <g>
       <use style="stroke:#000000;stroke-width:0.8;" x="801.194849" xlink:href="#m78721c83c0" y="501.738984"/>
      </g>
     </g>
     <g id="text_5">
      <!-- 2020-08 -->
      <defs>
       <path d="M 31.78125 34.625 
Q 24.75 34.625 20.71875 30.859375 
Q 16.703125 27.09375 16.703125 20.515625 
Q 16.703125 13.921875 20.71875 10.15625 
Q 24.75 6.390625 31.78125 6.390625 
Q 38.8125 6.390625 42.859375 10.171875 
Q 46.921875 13.96875 46.921875 20.515625 
Q 46.921875 27.09375 42.890625 30.859375 
Q 38.875 34.625 31.78125 34.625 
z
M 21.921875 38.8125 
Q 15.578125 40.375 12.03125 44.71875 
Q 8.5 49.078125 8.5 55.328125 
Q 8.5 64.0625 14.71875 69.140625 
Q 20.953125 74.21875 31.78125 74.21875 
Q 42.671875 74.21875 48.875 69.140625 
Q 55.078125 64.0625 55.078125 55.328125 
Q 55.078125 49.078125 51.53125 44.71875 
Q 48 40.375 41.703125 38.8125 
Q 48.828125 37.15625 52.796875 32.3125 
Q 56.78125 27.484375 56.78125 20.515625 
Q 56.78125 9.90625 50.3125 4.234375 
Q 43.84375 -1.421875 31.78125 -1.421875 
Q 19.734375 -1.421875 13.25 4.234375 
Q 6.78125 9.90625 6.78125 20.515625 
Q 6.78125 27.484375 10.78125 32.3125 
Q 14.796875 37.15625 21.921875 38.8125 
z
M 18.3125 54.390625 
Q 18.3125 48.734375 21.84375 45.5625 
Q 25.390625 42.390625 31.78125 42.390625 
Q 38.140625 42.390625 41.71875 45.5625 
Q 45.3125 48.734375 45.3125 54.390625 
Q 45.3125 60.0625 41.71875 63.234375 
Q 38.140625 66.40625 31.78125 66.40625 
Q 25.390625 66.40625 21.84375 63.234375 
Q 18.3125 60.0625 18.3125 54.390625 
z
" id="DejaVuSans-56"/>
      </defs>
      <g transform="translate(752.802582 544.452384)rotate(-30)scale(0.13 -0.13)">
       <use xlink:href="#DejaVuSans-50"/>
       <use x="63.623047" xlink:href="#DejaVuSans-48"/>
       <use x="127.246094" xlink:href="#DejaVuSans-50"/>
       <use x="190.869141" xlink:href="#DejaVuSans-48"/>
       <use x="254.492188" xlink:href="#DejaVuSans-45"/>
       <use x="290.576172" xlink:href="#DejaVuSans-48"/>
       <use x="354.199219" xlink:href="#DejaVuSans-56"/>
      </g>
     </g>
    </g>
    <g id="xtick_6">
     <g id="line2d_6">
      <g>
       <use style="stroke:#000000;stroke-width:0.8;" x="965.859294" xlink:href="#m78721c83c0" y="501.738984"/>
      </g>
     </g>
     <g id="text_6">
      <!-- 2020-09 -->
      <defs>
       <path d="M 10.984375 1.515625 
L 10.984375 10.5 
Q 14.703125 8.734375 18.5 7.8125 
Q 22.3125 6.890625 25.984375 6.890625 
Q 35.75 6.890625 40.890625 13.453125 
Q 46.046875 20.015625 46.78125 33.40625 
Q 43.953125 29.203125 39.59375 26.953125 
Q 35.25 24.703125 29.984375 24.703125 
Q 19.046875 24.703125 12.671875 31.3125 
Q 6.296875 37.9375 6.296875 49.421875 
Q 6.296875 60.640625 12.9375 67.421875 
Q 19.578125 74.21875 30.609375 74.21875 
Q 43.265625 74.21875 49.921875 64.515625 
Q 56.59375 54.828125 56.59375 36.375 
Q 56.59375 19.140625 48.40625 8.859375 
Q 40.234375 -1.421875 26.421875 -1.421875 
Q 22.703125 -1.421875 18.890625 -0.6875 
Q 15.09375 0.046875 10.984375 1.515625 
z
M 30.609375 32.421875 
Q 37.25 32.421875 41.125 36.953125 
Q 45.015625 41.5 45.015625 49.421875 
Q 45.015625 57.28125 41.125 61.84375 
Q 37.25 66.40625 30.609375 66.40625 
Q 23.96875 66.40625 20.09375 61.84375 
Q 16.21875 57.28125 16.21875 49.421875 
Q 16.21875 41.5 20.09375 36.953125 
Q 23.96875 32.421875 30.609375 32.421875 
z
" id="DejaVuSans-57"/>
      </defs>
      <g transform="translate(917.467027 544.452384)rotate(-30)scale(0.13 -0.13)">
       <use xlink:href="#DejaVuSans-50"/>
       <use x="63.623047" xlink:href="#DejaVuSans-48"/>
       <use x="127.246094" xlink:href="#DejaVuSans-50"/>
       <use x="190.869141" xlink:href="#DejaVuSans-48"/>
       <use x="254.492188" xlink:href="#DejaVuSans-45"/>
       <use x="290.576172" xlink:href="#DejaVuSans-48"/>
       <use x="354.199219" xlink:href="#DejaVuSans-57"/>
      </g>
     </g>
    </g>
    <g id="xtick_7">
     <g id="line2d_7">
      <g>
       <use style="stroke:#000000;stroke-width:0.8;" x="1125.211984" xlink:href="#m78721c83c0" y="501.738984"/>
      </g>
     </g>
     <g id="text_7">
      <!-- 2020-10 -->
      <defs>
       <path d="M 12.40625 8.296875 
L 28.515625 8.296875 
L 28.515625 63.921875 
L 10.984375 60.40625 
L 10.984375 69.390625 
L 28.421875 72.90625 
L 38.28125 72.90625 
L 38.28125 8.296875 
L 54.390625 8.296875 
L 54.390625 0 
L 12.40625 0 
z
" id="DejaVuSans-49"/>
      </defs>
      <g transform="translate(1076.819717 544.452384)rotate(-30)scale(0.13 -0.13)">
       <use xlink:href="#DejaVuSans-50"/>
       <use x="63.623047" xlink:href="#DejaVuSans-48"/>
       <use x="127.246094" xlink:href="#DejaVuSans-50"/>
       <use x="190.869141" xlink:href="#DejaVuSans-48"/>
       <use x="254.492188" xlink:href="#DejaVuSans-45"/>
       <use x="290.576172" xlink:href="#DejaVuSans-49"/>
       <use x="354.199219" xlink:href="#DejaVuSans-48"/>
      </g>
     </g>
    </g>
   </g>
   <g id="matplotlib.axis_2">
    <g id="ytick_1">
     <g id="line2d_8">
      <path clip-path="url(#pcc2d598cae)" d="M 54.6275 480.431667 
L 1170.6275 480.431667 
" style="fill:none;stroke:#b0b0b0;stroke-linecap:square;stroke-width:0.8;"/>
     </g>
     <g id="line2d_9">
      <defs>
       <path d="M 0 0 
L -3.5 0 
" id="mcee28fe7e4" style="stroke:#000000;stroke-width:0.8;"/>
      </defs>
      <g>
       <use style="stroke:#000000;stroke-width:0.8;" x="54.6275" xlink:href="#mcee28fe7e4" y="480.431667"/>
      </g>
     </g>
     <g id="text_8">
      <!-- 0 -->
      <g transform="translate(39.35625 485.370652)scale(0.13 -0.13)">
       <use xlink:href="#DejaVuSans-48"/>
      </g>
     </g>
    </g>
    <g id="ytick_2">
     <g id="line2d_10">
      <path clip-path="url(#pcc2d598cae)" d="M 54.6275 363.358497 
L 1170.6275 363.358497 
" style="fill:none;stroke:#b0b0b0;stroke-linecap:square;stroke-width:0.8;"/>
     </g>
     <g id="line2d_11">
      <g>
       <use style="stroke:#000000;stroke-width:0.8;" x="54.6275" xlink:href="#mcee28fe7e4" y="363.358497"/>
      </g>
     </g>
     <g id="text_9">
      <!-- 100 -->
      <g transform="translate(22.81375 368.297481)scale(0.13 -0.13)">
       <use xlink:href="#DejaVuSans-49"/>
       <use x="63.623047" xlink:href="#DejaVuSans-48"/>
       <use x="127.246094" xlink:href="#DejaVuSans-48"/>
      </g>
     </g>
    </g>
    <g id="ytick_3">
     <g id="line2d_12">
      <path clip-path="url(#pcc2d598cae)" d="M 54.6275 246.285326 
L 1170.6275 246.285326 
" style="fill:none;stroke:#b0b0b0;stroke-linecap:square;stroke-width:0.8;"/>
     </g>
     <g id="line2d_13">
      <g>
       <use style="stroke:#000000;stroke-width:0.8;" x="54.6275" xlink:href="#mcee28fe7e4" y="246.285326"/>
      </g>
     </g>
     <g id="text_10">
      <!-- 200 -->
      <g transform="translate(22.81375 251.22431)scale(0.13 -0.13)">
       <use xlink:href="#DejaVuSans-50"/>
       <use x="63.623047" xlink:href="#DejaVuSans-48"/>
       <use x="127.246094" xlink:href="#DejaVuSans-48"/>
      </g>
     </g>
    </g>
    <g id="ytick_4">
     <g id="line2d_14">
      <path clip-path="url(#pcc2d598cae)" d="M 54.6275 129.212155 
L 1170.6275 129.212155 
" style="fill:none;stroke:#b0b0b0;stroke-linecap:square;stroke-width:0.8;"/>
     </g>
     <g id="line2d_15">
      <g>
       <use style="stroke:#000000;stroke-width:0.8;" x="54.6275" xlink:href="#mcee28fe7e4" y="129.212155"/>
      </g>
     </g>
     <g id="text_11">
      <!-- 300 -->
      <defs>
       <path d="M 40.578125 39.3125 
Q 47.65625 37.796875 51.625 33 
Q 55.609375 28.21875 55.609375 21.1875 
Q 55.609375 10.40625 48.1875 4.484375 
Q 40.765625 -1.421875 27.09375 -1.421875 
Q 22.515625 -1.421875 17.65625 -0.515625 
Q 12.796875 0.390625 7.625 2.203125 
L 7.625 11.71875 
Q 11.71875 9.328125 16.59375 8.109375 
Q 21.484375 6.890625 26.8125 6.890625 
Q 36.078125 6.890625 40.9375 10.546875 
Q 45.796875 14.203125 45.796875 21.1875 
Q 45.796875 27.640625 41.28125 31.265625 
Q 36.765625 34.90625 28.71875 34.90625 
L 20.21875 34.90625 
L 20.21875 43.015625 
L 29.109375 43.015625 
Q 36.375 43.015625 40.234375 45.921875 
Q 44.09375 48.828125 44.09375 54.296875 
Q 44.09375 59.90625 40.109375 62.90625 
Q 36.140625 65.921875 28.71875 65.921875 
Q 24.65625 65.921875 20.015625 65.03125 
Q 15.375 64.15625 9.8125 62.3125 
L 9.8125 71.09375 
Q 15.4375 72.65625 20.34375 73.4375 
Q 25.25 74.21875 29.59375 74.21875 
Q 40.828125 74.21875 47.359375 69.109375 
Q 53.90625 64.015625 53.90625 55.328125 
Q 53.90625 49.265625 50.4375 45.09375 
Q 46.96875 40.921875 40.578125 39.3125 
z
" id="DejaVuSans-51"/>
      </defs>
      <g transform="translate(22.81375 134.151139)scale(0.13 -0.13)">
       <use xlink:href="#DejaVuSans-51"/>
       <use x="63.623047" xlink:href="#DejaVuSans-48"/>
       <use x="127.246094" xlink:href="#DejaVuSans-48"/>
      </g>
     </g>
    </g>
    <g id="ytick_5">
     <g id="line2d_16">
      <path clip-path="url(#pcc2d598cae)" d="M 54.6275 12.138984 
L 1170.6275 12.138984 
" style="fill:none;stroke:#b0b0b0;stroke-linecap:square;stroke-width:0.8;"/>
     </g>
     <g id="line2d_17">
      <g>
       <use style="stroke:#000000;stroke-width:0.8;" x="54.6275" xlink:href="#mcee28fe7e4" y="12.138984"/>
      </g>
     </g>
     <g id="text_12">
      <!-- 400 -->
      <g transform="translate(22.81375 17.077969)scale(0.13 -0.13)">
       <use xlink:href="#DejaVuSans-52"/>
       <use x="63.623047" xlink:href="#DejaVuSans-48"/>
       <use x="127.246094" xlink:href="#DejaVuSans-48"/>
      </g>
     </g>
    </g>
    <g id="text_13">
     <!-- Anzahl von Fällen -->
     <defs>
      <path d="M 34.1875 63.1875 
L 20.796875 26.90625 
L 47.609375 26.90625 
z
M 28.609375 72.90625 
L 39.796875 72.90625 
L 67.578125 0 
L 57.328125 0 
L 50.6875 18.703125 
L 17.828125 18.703125 
L 11.1875 0 
L 0.78125 0 
z
" id="DejaVuSans-65"/>
      <path d="M 54.890625 33.015625 
L 54.890625 0 
L 45.90625 0 
L 45.90625 32.71875 
Q 45.90625 40.484375 42.875 44.328125 
Q 39.84375 48.1875 33.796875 48.1875 
Q 26.515625 48.1875 22.3125 43.546875 
Q 18.109375 38.921875 18.109375 30.90625 
L 18.109375 0 
L 9.078125 0 
L 9.078125 54.6875 
L 18.109375 54.6875 
L 18.109375 46.1875 
Q 21.34375 51.125 25.703125 53.5625 
Q 30.078125 56 35.796875 56 
Q 45.21875 56 50.046875 50.171875 
Q 54.890625 44.34375 54.890625 33.015625 
z
" id="DejaVuSans-110"/>
      <path d="M 5.515625 54.6875 
L 48.1875 54.6875 
L 48.1875 46.484375 
L 14.40625 7.171875 
L 48.1875 7.171875 
L 48.1875 0 
L 4.296875 0 
L 4.296875 8.203125 
L 38.09375 47.515625 
L 5.515625 47.515625 
z
" id="DejaVuSans-122"/>
      <path d="M 34.28125 27.484375 
Q 23.390625 27.484375 19.1875 25 
Q 14.984375 22.515625 14.984375 16.5 
Q 14.984375 11.71875 18.140625 8.90625 
Q 21.296875 6.109375 26.703125 6.109375 
Q 34.1875 6.109375 38.703125 11.40625 
Q 43.21875 16.703125 43.21875 25.484375 
L 43.21875 27.484375 
z
M 52.203125 31.203125 
L 52.203125 0 
L 43.21875 0 
L 43.21875 8.296875 
Q 40.140625 3.328125 35.546875 0.953125 
Q 30.953125 -1.421875 24.3125 -1.421875 
Q 15.921875 -1.421875 10.953125 3.296875 
Q 6 8.015625 6 15.921875 
Q 6 25.140625 12.171875 29.828125 
Q 18.359375 34.515625 30.609375 34.515625 
L 43.21875 34.515625 
L 43.21875 35.40625 
Q 43.21875 41.609375 39.140625 45 
Q 35.0625 48.390625 27.6875 48.390625 
Q 23 48.390625 18.546875 47.265625 
Q 14.109375 46.140625 10.015625 43.890625 
L 10.015625 52.203125 
Q 14.9375 54.109375 19.578125 55.046875 
Q 24.21875 56 28.609375 56 
Q 40.484375 56 46.34375 49.84375 
Q 52.203125 43.703125 52.203125 31.203125 
z
" id="DejaVuSans-97"/>
      <path d="M 54.890625 33.015625 
L 54.890625 0 
L 45.90625 0 
L 45.90625 32.71875 
Q 45.90625 40.484375 42.875 44.328125 
Q 39.84375 48.1875 33.796875 48.1875 
Q 26.515625 48.1875 22.3125 43.546875 
Q 18.109375 38.921875 18.109375 30.90625 
L 18.109375 0 
L 9.078125 0 
L 9.078125 75.984375 
L 18.109375 75.984375 
L 18.109375 46.1875 
Q 21.34375 51.125 25.703125 53.5625 
Q 30.078125 56 35.796875 56 
Q 45.21875 56 50.046875 50.171875 
Q 54.890625 44.34375 54.890625 33.015625 
z
" id="DejaVuSans-104"/>
      <path d="M 9.421875 75.984375 
L 18.40625 75.984375 
L 18.40625 0 
L 9.421875 0 
z
" id="DejaVuSans-108"/>
      <path id="DejaVuSans-32"/>
      <path d="M 2.984375 54.6875 
L 12.5 54.6875 
L 29.59375 8.796875 
L 46.6875 54.6875 
L 56.203125 54.6875 
L 35.6875 0 
L 23.484375 0 
z
" id="DejaVuSans-118"/>
      <path d="M 30.609375 48.390625 
Q 23.390625 48.390625 19.1875 42.75 
Q 14.984375 37.109375 14.984375 27.296875 
Q 14.984375 17.484375 19.15625 11.84375 
Q 23.34375 6.203125 30.609375 6.203125 
Q 37.796875 6.203125 41.984375 11.859375 
Q 46.1875 17.53125 46.1875 27.296875 
Q 46.1875 37.015625 41.984375 42.703125 
Q 37.796875 48.390625 30.609375 48.390625 
z
M 30.609375 56 
Q 42.328125 56 49.015625 48.375 
Q 55.71875 40.765625 55.71875 27.296875 
Q 55.71875 13.875 49.015625 6.21875 
Q 42.328125 -1.421875 30.609375 -1.421875 
Q 18.84375 -1.421875 12.171875 6.21875 
Q 5.515625 13.875 5.515625 27.296875 
Q 5.515625 40.765625 12.171875 48.375 
Q 18.84375 56 30.609375 56 
z
" id="DejaVuSans-111"/>
      <path d="M 9.8125 72.90625 
L 51.703125 72.90625 
L 51.703125 64.59375 
L 19.671875 64.59375 
L 19.671875 43.109375 
L 48.578125 43.109375 
L 48.578125 34.8125 
L 19.671875 34.8125 
L 19.671875 0 
L 9.8125 0 
z
" id="DejaVuSans-70"/>
      <path d="M 34.28125 27.484375 
Q 23.390625 27.484375 19.1875 25 
Q 14.984375 22.515625 14.984375 16.5 
Q 14.984375 11.71875 18.140625 8.90625 
Q 21.296875 6.109375 26.703125 6.109375 
Q 34.1875 6.109375 38.703125 11.40625 
Q 43.21875 16.703125 43.21875 25.484375 
L 43.21875 27.484375 
z
M 52.203125 31.203125 
L 52.203125 0 
L 43.21875 0 
L 43.21875 8.296875 
Q 40.140625 3.328125 35.546875 0.953125 
Q 30.953125 -1.421875 24.3125 -1.421875 
Q 15.921875 -1.421875 10.953125 3.296875 
Q 6 8.015625 6 15.921875 
Q 6 25.140625 12.171875 29.828125 
Q 18.359375 34.515625 30.609375 34.515625 
L 43.21875 34.515625 
L 43.21875 35.40625 
Q 43.21875 41.609375 39.140625 45 
Q 35.0625 48.390625 27.6875 48.390625 
Q 23 48.390625 18.546875 47.265625 
Q 14.109375 46.140625 10.015625 43.890625 
L 10.015625 52.203125 
Q 14.9375 54.109375 19.578125 55.046875 
Q 24.21875 56 28.609375 56 
Q 40.484375 56 46.34375 49.84375 
Q 52.203125 43.703125 52.203125 31.203125 
z
M 33.59375 75.78125 
L 43.5 75.78125 
L 43.5 65.921875 
L 33.59375 65.921875 
z
M 14.5 75.78125 
L 24.40625 75.78125 
L 24.40625 65.921875 
L 14.5 65.921875 
z
" id="DejaVuSans-228"/>
      <path d="M 56.203125 29.59375 
L 56.203125 25.203125 
L 14.890625 25.203125 
Q 15.484375 15.921875 20.484375 11.0625 
Q 25.484375 6.203125 34.421875 6.203125 
Q 39.59375 6.203125 44.453125 7.46875 
Q 49.3125 8.734375 54.109375 11.28125 
L 54.109375 2.78125 
Q 49.265625 0.734375 44.1875 -0.34375 
Q 39.109375 -1.421875 33.890625 -1.421875 
Q 20.796875 -1.421875 13.15625 6.1875 
Q 5.515625 13.8125 5.515625 26.8125 
Q 5.515625 40.234375 12.765625 48.109375 
Q 20.015625 56 32.328125 56 
Q 43.359375 56 49.78125 48.890625 
Q 56.203125 41.796875 56.203125 29.59375 
z
M 47.21875 32.234375 
Q 47.125 39.59375 43.09375 43.984375 
Q 39.0625 48.390625 32.421875 48.390625 
Q 24.90625 48.390625 20.390625 44.140625 
Q 15.875 39.890625 15.1875 32.171875 
z
" id="DejaVuSans-101"/>
     </defs>
     <g transform="translate(16.318125 309.388359)rotate(-90)scale(0.12 -0.12)">
      <use xlink:href="#DejaVuSans-65"/>
      <use x="68.408203" xlink:href="#DejaVuSans-110"/>
      <use x="131.787109" xlink:href="#DejaVuSans-122"/>
      <use x="184.277344" xlink:href="#DejaVuSans-97"/>
      <use x="245.556641" xlink:href="#DejaVuSans-104"/>
      <use x="308.935547" xlink:href="#DejaVuSans-108"/>
      <use x="336.71875" xlink:href="#DejaVuSans-32"/>
      <use x="368.505859" xlink:href="#DejaVuSans-118"/>
      <use x="427.685547" xlink:href="#DejaVuSans-111"/>
      <use x="488.867188" xlink:href="#DejaVuSans-110"/>
      <use x="552.246094" xlink:href="#DejaVuSans-32"/>
      <use x="584.033203" xlink:href="#DejaVuSans-70"/>
      <use x="632.427734" xlink:href="#DejaVuSans-228"/>
      <use x="693.707031" xlink:href="#DejaVuSans-108"/>
      <use x="721.490234" xlink:href="#DejaVuSans-108"/>
      <use x="749.273438" xlink:href="#DejaVuSans-101"/>
      <use x="810.796875" xlink:href="#DejaVuSans-110"/>
     </g>
    </g>
   </g>
   <g id="line2d_18">
    <path clip-path="url(#pcc2d598cae)" d="M 105.354773 478.090204 
L 115.978285 478.090204 
L 121.290042 474.578009 
L 126.601798 474.578009 
L 131.913554 468.72435 
L 147.848823 468.72435 
L 153.160579 467.553619 
L 158.472336 464.041423 
L 163.784092 455.846301 
L 169.095848 449.992643 
L 174.407605 449.992643 
L 179.719361 448.821911 
L 185.031117 448.821911 
L 190.342874 445.309716 
L 195.65463 442.968253 
L 200.966386 437.114594 
L 211.589899 434.773131 
L 222.213411 430.090204 
L 227.525168 428.919472 
L 232.836924 428.919472 
L 238.14868 420.72435 
L 243.460437 420.72435 
L 254.083949 414.870692 
L 264.707462 407.846301 
L 270.019218 399.651179 
L 280.642731 397.309716 
L 291.266243 386.773131 
L 296.578 379.74874 
L 301.889756 376.236545 
L 307.201512 369.212155 
L 317.825025 365.69996 
L 328.448538 356.334106 
L 333.760294 350.480448 
L 339.07205 346.968253 
L 344.383807 341.114594 
L 349.695563 339.943862 
L 355.007319 331.74874 
L 365.630832 325.895082 
L 370.942588 323.553619 
L 376.254344 315.358497 
L 381.566101 315.358497 
L 392.189613 298.968253 
L 402.813126 291.943862 
L 408.124882 289.602399 
L 424.060151 279.065814 
L 429.371907 276.72435 
L 439.99542 275.553619 
L 445.307176 275.553619 
L 455.930689 272.041423 
L 461.242445 268.529228 
L 482.48947 266.187765 
L 487.801227 262.67557 
L 493.112983 261.504838 
L 498.424739 259.163375 
L 514.360008 259.163375 
L 519.671765 256.821911 
L 524.983521 255.651179 
L 535.607034 250.968253 
L 540.91879 249.797521 
L 562.165815 249.797521 
L 572.789328 242.773131 
L 578.101084 242.773131 
L 588.724597 241.602399 
L 599.348109 239.260936 
L 684.33621 239.260936 
L 700.271479 235.74874 
L 705.583235 233.407277 
L 710.894992 232.236545 
L 716.206748 229.895082 
L 721.518504 229.895082 
L 737.453773 227.553619 
L 753.389042 221.69996 
L 795.883093 221.69996 
L 849.000656 190.090204 
L 854.312412 180.72435 
L 864.935925 176.041423 
L 870.247681 176.041423 
L 886.18295 167.846301 
L 891.494706 161.992643 
L 896.806462 160.821911 
L 902.118219 158.480448 
L 907.429975 158.480448 
L 923.365244 157.309716 
L 928.677 154.968253 
L 933.988757 153.797521 
L 939.300513 150.285326 
L 944.612269 145.602399 
L 960.547538 144.431667 
L 965.859294 144.431667 
L 971.171051 142.090204 
L 976.482807 138.578009 
L 981.794563 138.578009 
L 1003.041589 129.212155 
L 1008.353345 128.041423 
L 1013.665101 128.041423 
L 1018.976857 123.358497 
L 1040.223883 123.358497 
L 1045.535639 122.187765 
L 1050.847395 118.67557 
L 1056.159152 118.67557 
L 1072.094421 116.334106 
L 1077.406177 116.334106 
L 1088.029689 111.651179 
L 1093.341446 110.480448 
L 1109.276715 108.138984 
L 1114.588471 103.456058 
L 1119.900227 103.456058 
L 1119.900227 103.456058 
" style="fill:none;stroke:#dbcd00;stroke-linecap:square;stroke-width:2;"/>
    <defs>
     <path d="M 0 1.5 
C 0.397805 1.5 0.77937 1.341951 1.06066 1.06066 
C 1.341951 0.77937 1.5 0.397805 1.5 0 
C 1.5 -0.397805 1.341951 -0.77937 1.06066 -1.06066 
C 0.77937 -1.341951 0.397805 -1.5 0 -1.5 
C -0.397805 -1.5 -0.77937 -1.341951 -1.06066 -1.06066 
C -1.341951 -0.77937 -1.5 -0.397805 -1.5 0 
C -1.5 0.397805 -1.341951 0.77937 -1.06066 1.06066 
C -0.77937 1.341951 -0.397805 1.5 0 1.5 
z
" id="mdcf1bd7f25" style="stroke:#dbcd00;"/>
    </defs>
    <g clip-path="url(#pcc2d598cae)">
     <use style="fill:#dbcd00;stroke:#dbcd00;" x="105.354773" xlink:href="#mdcf1bd7f25" y="478.090204"/>
     <use style="fill:#dbcd00;stroke:#dbcd00;" x="110.666529" xlink:href="#mdcf1bd7f25" y="478.090204"/>
     <use style="fill:#dbcd00;stroke:#dbcd00;" x="115.978285" xlink:href="#mdcf1bd7f25" y="478.090204"/>
     <use style="fill:#dbcd00;stroke:#dbcd00;" x="121.290042" xlink:href="#mdcf1bd7f25" y="474.578009"/>
     <use style="fill:#dbcd00;stroke:#dbcd00;" x="126.601798" xlink:href="#mdcf1bd7f25" y="474.578009"/>
     <use style="fill:#dbcd00;stroke:#dbcd00;" x="131.913554" xlink:href="#mdcf1bd7f25" y="468.72435"/>
     <use style="fill:#dbcd00;stroke:#dbcd00;" x="137.225311" xlink:href="#mdcf1bd7f25" y="468.72435"/>
     <use style="fill:#dbcd00;stroke:#dbcd00;" x="142.537067" xlink:href="#mdcf1bd7f25" y="468.72435"/>
     <use style="fill:#dbcd00;stroke:#dbcd00;" x="147.848823" xlink:href="#mdcf1bd7f25" y="468.72435"/>
     <use style="fill:#dbcd00;stroke:#dbcd00;" x="153.160579" xlink:href="#mdcf1bd7f25" y="467.553619"/>
     <use style="fill:#dbcd00;stroke:#dbcd00;" x="158.472336" xlink:href="#mdcf1bd7f25" y="464.041423"/>
     <use style="fill:#dbcd00;stroke:#dbcd00;" x="163.784092" xlink:href="#mdcf1bd7f25" y="455.846301"/>
     <use style="fill:#dbcd00;stroke:#dbcd00;" x="169.095848" xlink:href="#mdcf1bd7f25" y="449.992643"/>
     <use style="fill:#dbcd00;stroke:#dbcd00;" x="174.407605" xlink:href="#mdcf1bd7f25" y="449.992643"/>
     <use style="fill:#dbcd00;stroke:#dbcd00;" x="179.719361" xlink:href="#mdcf1bd7f25" y="448.821911"/>
     <use style="fill:#dbcd00;stroke:#dbcd00;" x="185.031117" xlink:href="#mdcf1bd7f25" y="448.821911"/>
     <use style="fill:#dbcd00;stroke:#dbcd00;" x="190.342874" xlink:href="#mdcf1bd7f25" y="445.309716"/>
     <use style="fill:#dbcd00;stroke:#dbcd00;" x="195.65463" xlink:href="#mdcf1bd7f25" y="442.968253"/>
     <use style="fill:#dbcd00;stroke:#dbcd00;" x="200.966386" xlink:href="#mdcf1bd7f25" y="437.114594"/>
     <use style="fill:#dbcd00;stroke:#dbcd00;" x="211.589899" xlink:href="#mdcf1bd7f25" y="434.773131"/>
     <use style="fill:#dbcd00;stroke:#dbcd00;" x="222.213411" xlink:href="#mdcf1bd7f25" y="430.090204"/>
     <use style="fill:#dbcd00;stroke:#dbcd00;" x="227.525168" xlink:href="#mdcf1bd7f25" y="428.919472"/>
     <use style="fill:#dbcd00;stroke:#dbcd00;" x="232.836924" xlink:href="#mdcf1bd7f25" y="428.919472"/>
     <use style="fill:#dbcd00;stroke:#dbcd00;" x="238.14868" xlink:href="#mdcf1bd7f25" y="420.72435"/>
     <use style="fill:#dbcd00;stroke:#dbcd00;" x="243.460437" xlink:href="#mdcf1bd7f25" y="420.72435"/>
     <use style="fill:#dbcd00;stroke:#dbcd00;" x="254.083949" xlink:href="#mdcf1bd7f25" y="414.870692"/>
     <use style="fill:#dbcd00;stroke:#dbcd00;" x="259.395706" xlink:href="#mdcf1bd7f25" y="411.358497"/>
     <use style="fill:#dbcd00;stroke:#dbcd00;" x="264.707462" xlink:href="#mdcf1bd7f25" y="407.846301"/>
     <use style="fill:#dbcd00;stroke:#dbcd00;" x="270.019218" xlink:href="#mdcf1bd7f25" y="399.651179"/>
     <use style="fill:#dbcd00;stroke:#dbcd00;" x="275.330975" xlink:href="#mdcf1bd7f25" y="398.480448"/>
     <use style="fill:#dbcd00;stroke:#dbcd00;" x="280.642731" xlink:href="#mdcf1bd7f25" y="397.309716"/>
     <use style="fill:#dbcd00;stroke:#dbcd00;" x="291.266243" xlink:href="#mdcf1bd7f25" y="386.773131"/>
     <use style="fill:#dbcd00;stroke:#dbcd00;" x="296.578" xlink:href="#mdcf1bd7f25" y="379.74874"/>
     <use style="fill:#dbcd00;stroke:#dbcd00;" x="301.889756" xlink:href="#mdcf1bd7f25" y="376.236545"/>
     <use style="fill:#dbcd00;stroke:#dbcd00;" x="307.201512" xlink:href="#mdcf1bd7f25" y="369.212155"/>
     <use style="fill:#dbcd00;stroke:#dbcd00;" x="317.825025" xlink:href="#mdcf1bd7f25" y="365.69996"/>
     <use style="fill:#dbcd00;stroke:#dbcd00;" x="328.448538" xlink:href="#mdcf1bd7f25" y="356.334106"/>
     <use style="fill:#dbcd00;stroke:#dbcd00;" x="333.760294" xlink:href="#mdcf1bd7f25" y="350.480448"/>
     <use style="fill:#dbcd00;stroke:#dbcd00;" x="339.07205" xlink:href="#mdcf1bd7f25" y="346.968253"/>
     <use style="fill:#dbcd00;stroke:#dbcd00;" x="344.383807" xlink:href="#mdcf1bd7f25" y="341.114594"/>
     <use style="fill:#dbcd00;stroke:#dbcd00;" x="349.695563" xlink:href="#mdcf1bd7f25" y="339.943862"/>
     <use style="fill:#dbcd00;stroke:#dbcd00;" x="355.007319" xlink:href="#mdcf1bd7f25" y="331.74874"/>
     <use style="fill:#dbcd00;stroke:#dbcd00;" x="365.630832" xlink:href="#mdcf1bd7f25" y="325.895082"/>
     <use style="fill:#dbcd00;stroke:#dbcd00;" x="370.942588" xlink:href="#mdcf1bd7f25" y="323.553619"/>
     <use style="fill:#dbcd00;stroke:#dbcd00;" x="376.254344" xlink:href="#mdcf1bd7f25" y="315.358497"/>
     <use style="fill:#dbcd00;stroke:#dbcd00;" x="381.566101" xlink:href="#mdcf1bd7f25" y="315.358497"/>
     <use style="fill:#dbcd00;stroke:#dbcd00;" x="386.877857" xlink:href="#mdcf1bd7f25" y="307.163375"/>
     <use style="fill:#dbcd00;stroke:#dbcd00;" x="392.189613" xlink:href="#mdcf1bd7f25" y="298.968253"/>
     <use style="fill:#dbcd00;stroke:#dbcd00;" x="402.813126" xlink:href="#mdcf1bd7f25" y="291.943862"/>
     <use style="fill:#dbcd00;stroke:#dbcd00;" x="408.124882" xlink:href="#mdcf1bd7f25" y="289.602399"/>
     <use style="fill:#dbcd00;stroke:#dbcd00;" x="413.436639" xlink:href="#mdcf1bd7f25" y="286.090204"/>
     <use style="fill:#dbcd00;stroke:#dbcd00;" x="424.060151" xlink:href="#mdcf1bd7f25" y="279.065814"/>
     <use style="fill:#dbcd00;stroke:#dbcd00;" x="429.371907" xlink:href="#mdcf1bd7f25" y="276.72435"/>
     <use style="fill:#dbcd00;stroke:#dbcd00;" x="439.99542" xlink:href="#mdcf1bd7f25" y="275.553619"/>
     <use style="fill:#dbcd00;stroke:#dbcd00;" x="445.307176" xlink:href="#mdcf1bd7f25" y="275.553619"/>
     <use style="fill:#dbcd00;stroke:#dbcd00;" x="455.930689" xlink:href="#mdcf1bd7f25" y="272.041423"/>
     <use style="fill:#dbcd00;stroke:#dbcd00;" x="461.242445" xlink:href="#mdcf1bd7f25" y="268.529228"/>
     <use style="fill:#dbcd00;stroke:#dbcd00;" x="482.48947" xlink:href="#mdcf1bd7f25" y="266.187765"/>
     <use style="fill:#dbcd00;stroke:#dbcd00;" x="487.801227" xlink:href="#mdcf1bd7f25" y="262.67557"/>
     <use style="fill:#dbcd00;stroke:#dbcd00;" x="493.112983" xlink:href="#mdcf1bd7f25" y="261.504838"/>
     <use style="fill:#dbcd00;stroke:#dbcd00;" x="498.424739" xlink:href="#mdcf1bd7f25" y="259.163375"/>
     <use style="fill:#dbcd00;stroke:#dbcd00;" x="503.736496" xlink:href="#mdcf1bd7f25" y="259.163375"/>
     <use style="fill:#dbcd00;stroke:#dbcd00;" x="514.360008" xlink:href="#mdcf1bd7f25" y="259.163375"/>
     <use style="fill:#dbcd00;stroke:#dbcd00;" x="519.671765" xlink:href="#mdcf1bd7f25" y="256.821911"/>
     <use style="fill:#dbcd00;stroke:#dbcd00;" x="524.983521" xlink:href="#mdcf1bd7f25" y="255.651179"/>
     <use style="fill:#dbcd00;stroke:#dbcd00;" x="535.607034" xlink:href="#mdcf1bd7f25" y="250.968253"/>
     <use style="fill:#dbcd00;stroke:#dbcd00;" x="540.91879" xlink:href="#mdcf1bd7f25" y="249.797521"/>
     <use style="fill:#dbcd00;stroke:#dbcd00;" x="551.542302" xlink:href="#mdcf1bd7f25" y="249.797521"/>
     <use style="fill:#dbcd00;stroke:#dbcd00;" x="562.165815" xlink:href="#mdcf1bd7f25" y="249.797521"/>
     <use style="fill:#dbcd00;stroke:#dbcd00;" x="572.789328" xlink:href="#mdcf1bd7f25" y="242.773131"/>
     <use style="fill:#dbcd00;stroke:#dbcd00;" x="578.101084" xlink:href="#mdcf1bd7f25" y="242.773131"/>
     <use style="fill:#dbcd00;stroke:#dbcd00;" x="588.724597" xlink:href="#mdcf1bd7f25" y="241.602399"/>
     <use style="fill:#dbcd00;stroke:#dbcd00;" x="594.036353" xlink:href="#mdcf1bd7f25" y="240.431667"/>
     <use style="fill:#dbcd00;stroke:#dbcd00;" x="599.348109" xlink:href="#mdcf1bd7f25" y="239.260936"/>
     <use style="fill:#dbcd00;stroke:#dbcd00;" x="604.659866" xlink:href="#mdcf1bd7f25" y="239.260936"/>
     <use style="fill:#dbcd00;stroke:#dbcd00;" x="615.283378" xlink:href="#mdcf1bd7f25" y="239.260936"/>
     <use style="fill:#dbcd00;stroke:#dbcd00;" x="625.906891" xlink:href="#mdcf1bd7f25" y="239.260936"/>
     <use style="fill:#dbcd00;stroke:#dbcd00;" x="631.218647" xlink:href="#mdcf1bd7f25" y="239.260936"/>
     <use style="fill:#dbcd00;stroke:#dbcd00;" x="636.530403" xlink:href="#mdcf1bd7f25" y="239.260936"/>
     <use style="fill:#dbcd00;stroke:#dbcd00;" x="641.84216" xlink:href="#mdcf1bd7f25" y="239.260936"/>
     <use style="fill:#dbcd00;stroke:#dbcd00;" x="647.153916" xlink:href="#mdcf1bd7f25" y="239.260936"/>
     <use style="fill:#dbcd00;stroke:#dbcd00;" x="652.465672" xlink:href="#mdcf1bd7f25" y="239.260936"/>
     <use style="fill:#dbcd00;stroke:#dbcd00;" x="668.400941" xlink:href="#mdcf1bd7f25" y="239.260936"/>
     <use style="fill:#dbcd00;stroke:#dbcd00;" x="673.712698" xlink:href="#mdcf1bd7f25" y="239.260936"/>
     <use style="fill:#dbcd00;stroke:#dbcd00;" x="679.024454" xlink:href="#mdcf1bd7f25" y="239.260936"/>
     <use style="fill:#dbcd00;stroke:#dbcd00;" x="684.33621" xlink:href="#mdcf1bd7f25" y="239.260936"/>
     <use style="fill:#dbcd00;stroke:#dbcd00;" x="700.271479" xlink:href="#mdcf1bd7f25" y="235.74874"/>
     <use style="fill:#dbcd00;stroke:#dbcd00;" x="705.583235" xlink:href="#mdcf1bd7f25" y="233.407277"/>
     <use style="fill:#dbcd00;stroke:#dbcd00;" x="710.894992" xlink:href="#mdcf1bd7f25" y="232.236545"/>
     <use style="fill:#dbcd00;stroke:#dbcd00;" x="716.206748" xlink:href="#mdcf1bd7f25" y="229.895082"/>
     <use style="fill:#dbcd00;stroke:#dbcd00;" x="721.518504" xlink:href="#mdcf1bd7f25" y="229.895082"/>
     <use style="fill:#dbcd00;stroke:#dbcd00;" x="737.453773" xlink:href="#mdcf1bd7f25" y="227.553619"/>
     <use style="fill:#dbcd00;stroke:#dbcd00;" x="753.389042" xlink:href="#mdcf1bd7f25" y="221.69996"/>
     <use style="fill:#dbcd00;stroke:#dbcd00;" x="758.700798" xlink:href="#mdcf1bd7f25" y="221.69996"/>
     <use style="fill:#dbcd00;stroke:#dbcd00;" x="774.636067" xlink:href="#mdcf1bd7f25" y="221.69996"/>
     <use style="fill:#dbcd00;stroke:#dbcd00;" x="779.947824" xlink:href="#mdcf1bd7f25" y="221.69996"/>
     <use style="fill:#dbcd00;stroke:#dbcd00;" x="785.25958" xlink:href="#mdcf1bd7f25" y="221.69996"/>
     <use style="fill:#dbcd00;stroke:#dbcd00;" x="790.571336" xlink:href="#mdcf1bd7f25" y="221.69996"/>
     <use style="fill:#dbcd00;stroke:#dbcd00;" x="795.883093" xlink:href="#mdcf1bd7f25" y="221.69996"/>
     <use style="fill:#dbcd00;stroke:#dbcd00;" x="849.000656" xlink:href="#mdcf1bd7f25" y="190.090204"/>
     <use style="fill:#dbcd00;stroke:#dbcd00;" x="854.312412" xlink:href="#mdcf1bd7f25" y="180.72435"/>
     <use style="fill:#dbcd00;stroke:#dbcd00;" x="864.935925" xlink:href="#mdcf1bd7f25" y="176.041423"/>
     <use style="fill:#dbcd00;stroke:#dbcd00;" x="870.247681" xlink:href="#mdcf1bd7f25" y="176.041423"/>
     <use style="fill:#dbcd00;stroke:#dbcd00;" x="886.18295" xlink:href="#mdcf1bd7f25" y="167.846301"/>
     <use style="fill:#dbcd00;stroke:#dbcd00;" x="891.494706" xlink:href="#mdcf1bd7f25" y="161.992643"/>
     <use style="fill:#dbcd00;stroke:#dbcd00;" x="896.806462" xlink:href="#mdcf1bd7f25" y="160.821911"/>
     <use style="fill:#dbcd00;stroke:#dbcd00;" x="902.118219" xlink:href="#mdcf1bd7f25" y="158.480448"/>
     <use style="fill:#dbcd00;stroke:#dbcd00;" x="907.429975" xlink:href="#mdcf1bd7f25" y="158.480448"/>
     <use style="fill:#dbcd00;stroke:#dbcd00;" x="923.365244" xlink:href="#mdcf1bd7f25" y="157.309716"/>
     <use style="fill:#dbcd00;stroke:#dbcd00;" x="928.677" xlink:href="#mdcf1bd7f25" y="154.968253"/>
     <use style="fill:#dbcd00;stroke:#dbcd00;" x="933.988757" xlink:href="#mdcf1bd7f25" y="153.797521"/>
     <use style="fill:#dbcd00;stroke:#dbcd00;" x="939.300513" xlink:href="#mdcf1bd7f25" y="150.285326"/>
     <use style="fill:#dbcd00;stroke:#dbcd00;" x="944.612269" xlink:href="#mdcf1bd7f25" y="145.602399"/>
     <use style="fill:#dbcd00;stroke:#dbcd00;" x="960.547538" xlink:href="#mdcf1bd7f25" y="144.431667"/>
     <use style="fill:#dbcd00;stroke:#dbcd00;" x="965.859294" xlink:href="#mdcf1bd7f25" y="144.431667"/>
     <use style="fill:#dbcd00;stroke:#dbcd00;" x="971.171051" xlink:href="#mdcf1bd7f25" y="142.090204"/>
     <use style="fill:#dbcd00;stroke:#dbcd00;" x="976.482807" xlink:href="#mdcf1bd7f25" y="138.578009"/>
     <use style="fill:#dbcd00;stroke:#dbcd00;" x="981.794563" xlink:href="#mdcf1bd7f25" y="138.578009"/>
     <use style="fill:#dbcd00;stroke:#dbcd00;" x="997.729832" xlink:href="#mdcf1bd7f25" y="131.553619"/>
     <use style="fill:#dbcd00;stroke:#dbcd00;" x="1003.041589" xlink:href="#mdcf1bd7f25" y="129.212155"/>
     <use style="fill:#dbcd00;stroke:#dbcd00;" x="1008.353345" xlink:href="#mdcf1bd7f25" y="128.041423"/>
     <use style="fill:#dbcd00;stroke:#dbcd00;" x="1013.665101" xlink:href="#mdcf1bd7f25" y="128.041423"/>
     <use style="fill:#dbcd00;stroke:#dbcd00;" x="1018.976857" xlink:href="#mdcf1bd7f25" y="123.358497"/>
     <use style="fill:#dbcd00;stroke:#dbcd00;" x="1034.912126" xlink:href="#mdcf1bd7f25" y="123.358497"/>
     <use style="fill:#dbcd00;stroke:#dbcd00;" x="1040.223883" xlink:href="#mdcf1bd7f25" y="123.358497"/>
     <use style="fill:#dbcd00;stroke:#dbcd00;" x="1045.535639" xlink:href="#mdcf1bd7f25" y="122.187765"/>
     <use style="fill:#dbcd00;stroke:#dbcd00;" x="1050.847395" xlink:href="#mdcf1bd7f25" y="118.67557"/>
     <use style="fill:#dbcd00;stroke:#dbcd00;" x="1056.159152" xlink:href="#mdcf1bd7f25" y="118.67557"/>
     <use style="fill:#dbcd00;stroke:#dbcd00;" x="1072.094421" xlink:href="#mdcf1bd7f25" y="116.334106"/>
     <use style="fill:#dbcd00;stroke:#dbcd00;" x="1077.406177" xlink:href="#mdcf1bd7f25" y="116.334106"/>
     <use style="fill:#dbcd00;stroke:#dbcd00;" x="1082.717933" xlink:href="#mdcf1bd7f25" y="113.992643"/>
     <use style="fill:#dbcd00;stroke:#dbcd00;" x="1088.029689" xlink:href="#mdcf1bd7f25" y="111.651179"/>
     <use style="fill:#dbcd00;stroke:#dbcd00;" x="1093.341446" xlink:href="#mdcf1bd7f25" y="110.480448"/>
     <use style="fill:#dbcd00;stroke:#dbcd00;" x="1109.276715" xlink:href="#mdcf1bd7f25" y="108.138984"/>
     <use style="fill:#dbcd00;stroke:#dbcd00;" x="1114.588471" xlink:href="#mdcf1bd7f25" y="103.456058"/>
     <use style="fill:#dbcd00;stroke:#dbcd00;" x="1119.900227" xlink:href="#mdcf1bd7f25" y="103.456058"/>
    </g>
   </g>
   <g id="line2d_19">
    <path clip-path="url(#pcc2d598cae)" d="M 105.354773 462.870692 
L 110.666529 461.69996 
L 115.978285 453.504838 
L 121.290042 460.529228 
L 126.601798 455.846301 
L 131.913554 449.992643 
L 137.225311 448.821911 
L 142.537067 446.480448 
L 147.848823 441.797521 
L 153.160579 441.797521 
L 158.472336 438.285326 
L 163.784092 441.797521 
L 169.095848 441.797521 
L 174.407605 440.626789 
L 179.719361 437.114594 
L 190.342874 427.74874 
L 195.65463 425.407277 
L 200.966386 427.74874 
L 211.589899 427.74874 
L 222.213411 426.578009 
L 227.525168 420.72435 
L 232.836924 419.553619 
L 238.14868 423.065814 
L 243.460437 419.553619 
L 254.083949 420.72435 
L 259.395706 413.69996 
L 264.707462 417.212155 
L 270.019218 421.895082 
L 275.330975 420.72435 
L 280.642731 406.67557 
L 291.266243 414.870692 
L 296.578 419.553619 
L 301.889756 421.895082 
L 307.201512 426.578009 
L 317.825025 420.72435 
L 328.448538 430.090204 
L 333.760294 420.72435 
L 339.07205 416.041423 
L 344.383807 421.895082 
L 349.695563 423.065814 
L 355.007319 428.919472 
L 365.630832 433.602399 
L 370.942588 434.773131 
L 376.254344 437.114594 
L 381.566101 437.114594 
L 386.877857 445.309716 
L 392.189613 451.163375 
L 402.813126 458.187765 
L 408.124882 459.358497 
L 424.060151 469.895082 
L 439.99542 466.382887 
L 445.307176 466.382887 
L 455.930689 467.553619 
L 461.242445 471.065814 
L 482.48947 467.553619 
L 487.801227 469.895082 
L 493.112983 468.72435 
L 498.424739 472.236545 
L 514.360008 472.236545 
L 519.671765 474.578009 
L 524.983521 472.236545 
L 535.607034 474.578009 
L 540.91879 473.407277 
L 562.165815 473.407277 
L 572.789328 480.431667 
L 578.101084 479.260936 
L 588.724597 480.431667 
L 594.036353 480.431667 
L 599.348109 482.773131 
L 631.218647 482.773131 
L 647.153916 479.260936 
L 652.465672 474.578009 
L 668.400941 474.578009 
L 673.712698 472.236545 
L 700.271479 472.236545 
L 705.583235 474.578009 
L 710.894992 475.74874 
L 716.206748 478.090204 
L 721.518504 473.407277 
L 737.453773 473.407277 
L 753.389042 468.72435 
L 758.700798 468.72435 
L 774.636067 454.67557 
L 785.25958 454.67557 
L 790.571336 451.163375 
L 795.883093 434.773131 
L 849.000656 447.651179 
L 854.312412 457.017033 
L 864.935925 459.358497 
L 886.18295 459.358497 
L 891.494706 465.212155 
L 896.806462 466.382887 
L 902.118219 468.72435 
L 907.429975 466.382887 
L 923.365244 464.041423 
L 928.677 466.382887 
L 933.988757 466.382887 
L 944.612269 468.72435 
L 960.547538 468.72435 
L 971.171051 466.382887 
L 976.482807 469.895082 
L 981.794563 467.553619 
L 997.729832 468.72435 
L 1003.041589 471.065814 
L 1008.353345 465.212155 
L 1013.665101 465.212155 
L 1018.976857 468.72435 
L 1034.912126 467.553619 
L 1040.223883 466.382887 
L 1045.535639 466.382887 
L 1050.847395 469.895082 
L 1056.159152 469.895082 
L 1072.094421 462.870692 
L 1077.406177 462.870692 
L 1088.029689 465.212155 
L 1093.341446 459.358497 
L 1109.276715 448.821911 
L 1114.588471 451.163375 
L 1119.900227 442.968253 
L 1119.900227 442.968253 
" style="fill:none;stroke:#2792cb;stroke-linecap:square;stroke-width:2;"/>
    <defs>
     <path d="M 0 1.5 
C 0.397805 1.5 0.77937 1.341951 1.06066 1.06066 
C 1.341951 0.77937 1.5 0.397805 1.5 0 
C 1.5 -0.397805 1.341951 -0.77937 1.06066 -1.06066 
C 0.77937 -1.341951 0.397805 -1.5 0 -1.5 
C -0.397805 -1.5 -0.77937 -1.341951 -1.06066 -1.06066 
C -1.341951 -0.77937 -1.5 -0.397805 -1.5 0 
C -1.5 0.397805 -1.341951 0.77937 -1.06066 1.06066 
C -0.77937 1.341951 -0.397805 1.5 0 1.5 
z
" id="m14b2812daf" style="stroke:#2792cb;"/>
    </defs>
    <g clip-path="url(#pcc2d598cae)">
     <use style="fill:#2792cb;stroke:#2792cb;" x="105.354773" xlink:href="#m14b2812daf" y="462.870692"/>
     <use style="fill:#2792cb;stroke:#2792cb;" x="110.666529" xlink:href="#m14b2812daf" y="461.69996"/>
     <use style="fill:#2792cb;stroke:#2792cb;" x="115.978285" xlink:href="#m14b2812daf" y="453.504838"/>
     <use style="fill:#2792cb;stroke:#2792cb;" x="121.290042" xlink:href="#m14b2812daf" y="460.529228"/>
     <use style="fill:#2792cb;stroke:#2792cb;" x="126.601798" xlink:href="#m14b2812daf" y="455.846301"/>
     <use style="fill:#2792cb;stroke:#2792cb;" x="131.913554" xlink:href="#m14b2812daf" y="449.992643"/>
     <use style="fill:#2792cb;stroke:#2792cb;" x="137.225311" xlink:href="#m14b2812daf" y="448.821911"/>
     <use style="fill:#2792cb;stroke:#2792cb;" x="142.537067" xlink:href="#m14b2812daf" y="446.480448"/>
     <use style="fill:#2792cb;stroke:#2792cb;" x="147.848823" xlink:href="#m14b2812daf" y="441.797521"/>
     <use style="fill:#2792cb;stroke:#2792cb;" x="153.160579" xlink:href="#m14b2812daf" y="441.797521"/>
     <use style="fill:#2792cb;stroke:#2792cb;" x="158.472336" xlink:href="#m14b2812daf" y="438.285326"/>
     <use style="fill:#2792cb;stroke:#2792cb;" x="163.784092" xlink:href="#m14b2812daf" y="441.797521"/>
     <use style="fill:#2792cb;stroke:#2792cb;" x="169.095848" xlink:href="#m14b2812daf" y="441.797521"/>
     <use style="fill:#2792cb;stroke:#2792cb;" x="174.407605" xlink:href="#m14b2812daf" y="440.626789"/>
     <use style="fill:#2792cb;stroke:#2792cb;" x="179.719361" xlink:href="#m14b2812daf" y="437.114594"/>
     <use style="fill:#2792cb;stroke:#2792cb;" x="185.031117" xlink:href="#m14b2812daf" y="432.431667"/>
     <use style="fill:#2792cb;stroke:#2792cb;" x="190.342874" xlink:href="#m14b2812daf" y="427.74874"/>
     <use style="fill:#2792cb;stroke:#2792cb;" x="195.65463" xlink:href="#m14b2812daf" y="425.407277"/>
     <use style="fill:#2792cb;stroke:#2792cb;" x="200.966386" xlink:href="#m14b2812daf" y="427.74874"/>
     <use style="fill:#2792cb;stroke:#2792cb;" x="211.589899" xlink:href="#m14b2812daf" y="427.74874"/>
     <use style="fill:#2792cb;stroke:#2792cb;" x="222.213411" xlink:href="#m14b2812daf" y="426.578009"/>
     <use style="fill:#2792cb;stroke:#2792cb;" x="227.525168" xlink:href="#m14b2812daf" y="420.72435"/>
     <use style="fill:#2792cb;stroke:#2792cb;" x="232.836924" xlink:href="#m14b2812daf" y="419.553619"/>
     <use style="fill:#2792cb;stroke:#2792cb;" x="238.14868" xlink:href="#m14b2812daf" y="423.065814"/>
     <use style="fill:#2792cb;stroke:#2792cb;" x="243.460437" xlink:href="#m14b2812daf" y="419.553619"/>
     <use style="fill:#2792cb;stroke:#2792cb;" x="254.083949" xlink:href="#m14b2812daf" y="420.72435"/>
     <use style="fill:#2792cb;stroke:#2792cb;" x="259.395706" xlink:href="#m14b2812daf" y="413.69996"/>
     <use style="fill:#2792cb;stroke:#2792cb;" x="264.707462" xlink:href="#m14b2812daf" y="417.212155"/>
     <use style="fill:#2792cb;stroke:#2792cb;" x="270.019218" xlink:href="#m14b2812daf" y="421.895082"/>
     <use style="fill:#2792cb;stroke:#2792cb;" x="275.330975" xlink:href="#m14b2812daf" y="420.72435"/>
     <use style="fill:#2792cb;stroke:#2792cb;" x="280.642731" xlink:href="#m14b2812daf" y="406.67557"/>
     <use style="fill:#2792cb;stroke:#2792cb;" x="291.266243" xlink:href="#m14b2812daf" y="414.870692"/>
     <use style="fill:#2792cb;stroke:#2792cb;" x="296.578" xlink:href="#m14b2812daf" y="419.553619"/>
     <use style="fill:#2792cb;stroke:#2792cb;" x="301.889756" xlink:href="#m14b2812daf" y="421.895082"/>
     <use style="fill:#2792cb;stroke:#2792cb;" x="307.201512" xlink:href="#m14b2812daf" y="426.578009"/>
     <use style="fill:#2792cb;stroke:#2792cb;" x="317.825025" xlink:href="#m14b2812daf" y="420.72435"/>
     <use style="fill:#2792cb;stroke:#2792cb;" x="328.448538" xlink:href="#m14b2812daf" y="430.090204"/>
     <use style="fill:#2792cb;stroke:#2792cb;" x="333.760294" xlink:href="#m14b2812daf" y="420.72435"/>
     <use style="fill:#2792cb;stroke:#2792cb;" x="339.07205" xlink:href="#m14b2812daf" y="416.041423"/>
     <use style="fill:#2792cb;stroke:#2792cb;" x="344.383807" xlink:href="#m14b2812daf" y="421.895082"/>
     <use style="fill:#2792cb;stroke:#2792cb;" x="349.695563" xlink:href="#m14b2812daf" y="423.065814"/>
     <use style="fill:#2792cb;stroke:#2792cb;" x="355.007319" xlink:href="#m14b2812daf" y="428.919472"/>
     <use style="fill:#2792cb;stroke:#2792cb;" x="365.630832" xlink:href="#m14b2812daf" y="433.602399"/>
     <use style="fill:#2792cb;stroke:#2792cb;" x="370.942588" xlink:href="#m14b2812daf" y="434.773131"/>
     <use style="fill:#2792cb;stroke:#2792cb;" x="376.254344" xlink:href="#m14b2812daf" y="437.114594"/>
     <use style="fill:#2792cb;stroke:#2792cb;" x="381.566101" xlink:href="#m14b2812daf" y="437.114594"/>
     <use style="fill:#2792cb;stroke:#2792cb;" x="386.877857" xlink:href="#m14b2812daf" y="445.309716"/>
     <use style="fill:#2792cb;stroke:#2792cb;" x="392.189613" xlink:href="#m14b2812daf" y="451.163375"/>
     <use style="fill:#2792cb;stroke:#2792cb;" x="402.813126" xlink:href="#m14b2812daf" y="458.187765"/>
     <use style="fill:#2792cb;stroke:#2792cb;" x="408.124882" xlink:href="#m14b2812daf" y="459.358497"/>
     <use style="fill:#2792cb;stroke:#2792cb;" x="413.436639" xlink:href="#m14b2812daf" y="462.870692"/>
     <use style="fill:#2792cb;stroke:#2792cb;" x="424.060151" xlink:href="#m14b2812daf" y="469.895082"/>
     <use style="fill:#2792cb;stroke:#2792cb;" x="429.371907" xlink:href="#m14b2812daf" y="468.72435"/>
     <use style="fill:#2792cb;stroke:#2792cb;" x="439.99542" xlink:href="#m14b2812daf" y="466.382887"/>
     <use style="fill:#2792cb;stroke:#2792cb;" x="445.307176" xlink:href="#m14b2812daf" y="466.382887"/>
     <use style="fill:#2792cb;stroke:#2792cb;" x="455.930689" xlink:href="#m14b2812daf" y="467.553619"/>
     <use style="fill:#2792cb;stroke:#2792cb;" x="461.242445" xlink:href="#m14b2812daf" y="471.065814"/>
     <use style="fill:#2792cb;stroke:#2792cb;" x="482.48947" xlink:href="#m14b2812daf" y="467.553619"/>
     <use style="fill:#2792cb;stroke:#2792cb;" x="487.801227" xlink:href="#m14b2812daf" y="469.895082"/>
     <use style="fill:#2792cb;stroke:#2792cb;" x="493.112983" xlink:href="#m14b2812daf" y="468.72435"/>
     <use style="fill:#2792cb;stroke:#2792cb;" x="498.424739" xlink:href="#m14b2812daf" y="472.236545"/>
     <use style="fill:#2792cb;stroke:#2792cb;" x="503.736496" xlink:href="#m14b2812daf" y="472.236545"/>
     <use style="fill:#2792cb;stroke:#2792cb;" x="514.360008" xlink:href="#m14b2812daf" y="472.236545"/>
     <use style="fill:#2792cb;stroke:#2792cb;" x="519.671765" xlink:href="#m14b2812daf" y="474.578009"/>
     <use style="fill:#2792cb;stroke:#2792cb;" x="524.983521" xlink:href="#m14b2812daf" y="472.236545"/>
     <use style="fill:#2792cb;stroke:#2792cb;" x="535.607034" xlink:href="#m14b2812daf" y="474.578009"/>
     <use style="fill:#2792cb;stroke:#2792cb;" x="540.91879" xlink:href="#m14b2812daf" y="473.407277"/>
     <use style="fill:#2792cb;stroke:#2792cb;" x="551.542302" xlink:href="#m14b2812daf" y="473.407277"/>
     <use style="fill:#2792cb;stroke:#2792cb;" x="562.165815" xlink:href="#m14b2812daf" y="473.407277"/>
     <use style="fill:#2792cb;stroke:#2792cb;" x="572.789328" xlink:href="#m14b2812daf" y="480.431667"/>
     <use style="fill:#2792cb;stroke:#2792cb;" x="578.101084" xlink:href="#m14b2812daf" y="479.260936"/>
     <use style="fill:#2792cb;stroke:#2792cb;" x="588.724597" xlink:href="#m14b2812daf" y="480.431667"/>
     <use style="fill:#2792cb;stroke:#2792cb;" x="594.036353" xlink:href="#m14b2812daf" y="480.431667"/>
     <use style="fill:#2792cb;stroke:#2792cb;" x="599.348109" xlink:href="#m14b2812daf" y="482.773131"/>
     <use style="fill:#2792cb;stroke:#2792cb;" x="604.659866" xlink:href="#m14b2812daf" y="482.773131"/>
     <use style="fill:#2792cb;stroke:#2792cb;" x="615.283378" xlink:href="#m14b2812daf" y="482.773131"/>
     <use style="fill:#2792cb;stroke:#2792cb;" x="625.906891" xlink:href="#m14b2812daf" y="482.773131"/>
     <use style="fill:#2792cb;stroke:#2792cb;" x="631.218647" xlink:href="#m14b2812daf" y="482.773131"/>
     <use style="fill:#2792cb;stroke:#2792cb;" x="636.530403" xlink:href="#m14b2812daf" y="481.602399"/>
     <use style="fill:#2792cb;stroke:#2792cb;" x="641.84216" xlink:href="#m14b2812daf" y="480.431667"/>
     <use style="fill:#2792cb;stroke:#2792cb;" x="647.153916" xlink:href="#m14b2812daf" y="479.260936"/>
     <use style="fill:#2792cb;stroke:#2792cb;" x="652.465672" xlink:href="#m14b2812daf" y="474.578009"/>
     <use style="fill:#2792cb;stroke:#2792cb;" x="668.400941" xlink:href="#m14b2812daf" y="474.578009"/>
     <use style="fill:#2792cb;stroke:#2792cb;" x="673.712698" xlink:href="#m14b2812daf" y="472.236545"/>
     <use style="fill:#2792cb;stroke:#2792cb;" x="679.024454" xlink:href="#m14b2812daf" y="472.236545"/>
     <use style="fill:#2792cb;stroke:#2792cb;" x="684.33621" xlink:href="#m14b2812daf" y="472.236545"/>
     <use style="fill:#2792cb;stroke:#2792cb;" x="700.271479" xlink:href="#m14b2812daf" y="472.236545"/>
     <use style="fill:#2792cb;stroke:#2792cb;" x="705.583235" xlink:href="#m14b2812daf" y="474.578009"/>
     <use style="fill:#2792cb;stroke:#2792cb;" x="710.894992" xlink:href="#m14b2812daf" y="475.74874"/>
     <use style="fill:#2792cb;stroke:#2792cb;" x="716.206748" xlink:href="#m14b2812daf" y="478.090204"/>
     <use style="fill:#2792cb;stroke:#2792cb;" x="721.518504" xlink:href="#m14b2812daf" y="473.407277"/>
     <use style="fill:#2792cb;stroke:#2792cb;" x="737.453773" xlink:href="#m14b2812daf" y="473.407277"/>
     <use style="fill:#2792cb;stroke:#2792cb;" x="753.389042" xlink:href="#m14b2812daf" y="468.72435"/>
     <use style="fill:#2792cb;stroke:#2792cb;" x="758.700798" xlink:href="#m14b2812daf" y="468.72435"/>
     <use style="fill:#2792cb;stroke:#2792cb;" x="774.636067" xlink:href="#m14b2812daf" y="454.67557"/>
     <use style="fill:#2792cb;stroke:#2792cb;" x="779.947824" xlink:href="#m14b2812daf" y="454.67557"/>
     <use style="fill:#2792cb;stroke:#2792cb;" x="785.25958" xlink:href="#m14b2812daf" y="454.67557"/>
     <use style="fill:#2792cb;stroke:#2792cb;" x="790.571336" xlink:href="#m14b2812daf" y="451.163375"/>
     <use style="fill:#2792cb;stroke:#2792cb;" x="795.883093" xlink:href="#m14b2812daf" y="434.773131"/>
     <use style="fill:#2792cb;stroke:#2792cb;" x="849.000656" xlink:href="#m14b2812daf" y="447.651179"/>
     <use style="fill:#2792cb;stroke:#2792cb;" x="854.312412" xlink:href="#m14b2812daf" y="457.017033"/>
     <use style="fill:#2792cb;stroke:#2792cb;" x="864.935925" xlink:href="#m14b2812daf" y="459.358497"/>
     <use style="fill:#2792cb;stroke:#2792cb;" x="870.247681" xlink:href="#m14b2812daf" y="459.358497"/>
     <use style="fill:#2792cb;stroke:#2792cb;" x="886.18295" xlink:href="#m14b2812daf" y="459.358497"/>
     <use style="fill:#2792cb;stroke:#2792cb;" x="891.494706" xlink:href="#m14b2812daf" y="465.212155"/>
     <use style="fill:#2792cb;stroke:#2792cb;" x="896.806462" xlink:href="#m14b2812daf" y="466.382887"/>
     <use style="fill:#2792cb;stroke:#2792cb;" x="902.118219" xlink:href="#m14b2812daf" y="468.72435"/>
     <use style="fill:#2792cb;stroke:#2792cb;" x="907.429975" xlink:href="#m14b2812daf" y="466.382887"/>
     <use style="fill:#2792cb;stroke:#2792cb;" x="923.365244" xlink:href="#m14b2812daf" y="464.041423"/>
     <use style="fill:#2792cb;stroke:#2792cb;" x="928.677" xlink:href="#m14b2812daf" y="466.382887"/>
     <use style="fill:#2792cb;stroke:#2792cb;" x="933.988757" xlink:href="#m14b2812daf" y="466.382887"/>
     <use style="fill:#2792cb;stroke:#2792cb;" x="939.300513" xlink:href="#m14b2812daf" y="467.553619"/>
     <use style="fill:#2792cb;stroke:#2792cb;" x="944.612269" xlink:href="#m14b2812daf" y="468.72435"/>
     <use style="fill:#2792cb;stroke:#2792cb;" x="960.547538" xlink:href="#m14b2812daf" y="468.72435"/>
     <use style="fill:#2792cb;stroke:#2792cb;" x="965.859294" xlink:href="#m14b2812daf" y="467.553619"/>
     <use style="fill:#2792cb;stroke:#2792cb;" x="971.171051" xlink:href="#m14b2812daf" y="466.382887"/>
     <use style="fill:#2792cb;stroke:#2792cb;" x="976.482807" xlink:href="#m14b2812daf" y="469.895082"/>
     <use style="fill:#2792cb;stroke:#2792cb;" x="981.794563" xlink:href="#m14b2812daf" y="467.553619"/>
     <use style="fill:#2792cb;stroke:#2792cb;" x="997.729832" xlink:href="#m14b2812daf" y="468.72435"/>
     <use style="fill:#2792cb;stroke:#2792cb;" x="1003.041589" xlink:href="#m14b2812daf" y="471.065814"/>
     <use style="fill:#2792cb;stroke:#2792cb;" x="1008.353345" xlink:href="#m14b2812daf" y="465.212155"/>
     <use style="fill:#2792cb;stroke:#2792cb;" x="1013.665101" xlink:href="#m14b2812daf" y="465.212155"/>
     <use style="fill:#2792cb;stroke:#2792cb;" x="1018.976857" xlink:href="#m14b2812daf" y="468.72435"/>
     <use style="fill:#2792cb;stroke:#2792cb;" x="1034.912126" xlink:href="#m14b2812daf" y="467.553619"/>
     <use style="fill:#2792cb;stroke:#2792cb;" x="1040.223883" xlink:href="#m14b2812daf" y="466.382887"/>
     <use style="fill:#2792cb;stroke:#2792cb;" x="1045.535639" xlink:href="#m14b2812daf" y="466.382887"/>
     <use style="fill:#2792cb;stroke:#2792cb;" x="1050.847395" xlink:href="#m14b2812daf" y="469.895082"/>
     <use style="fill:#2792cb;stroke:#2792cb;" x="1056.159152" xlink:href="#m14b2812daf" y="469.895082"/>
     <use style="fill:#2792cb;stroke:#2792cb;" x="1072.094421" xlink:href="#m14b2812daf" y="462.870692"/>
     <use style="fill:#2792cb;stroke:#2792cb;" x="1077.406177" xlink:href="#m14b2812daf" y="462.870692"/>
     <use style="fill:#2792cb;stroke:#2792cb;" x="1082.717933" xlink:href="#m14b2812daf" y="464.041423"/>
     <use style="fill:#2792cb;stroke:#2792cb;" x="1088.029689" xlink:href="#m14b2812daf" y="465.212155"/>
     <use style="fill:#2792cb;stroke:#2792cb;" x="1093.341446" xlink:href="#m14b2812daf" y="459.358497"/>
     <use style="fill:#2792cb;stroke:#2792cb;" x="1109.276715" xlink:href="#m14b2812daf" y="448.821911"/>
     <use style="fill:#2792cb;stroke:#2792cb;" x="1114.588471" xlink:href="#m14b2812daf" y="451.163375"/>
     <use style="fill:#2792cb;stroke:#2792cb;" x="1119.900227" xlink:href="#m14b2812daf" y="442.968253"/>
    </g>
   </g>
   <g id="patch_3">
    <path d="M 54.6275 501.738984 
L 1170.6275 501.738984 
" style="fill:none;stroke:#000000;stroke-linecap:square;stroke-linejoin:miter;stroke-width:0.8;"/>
   </g>
   <g id="legend_1">
    <g id="line2d_20">
     <path d="M 1083.382188 25.237422 
L 1103.382188 25.237422 
" style="fill:none;stroke:#dbcd00;stroke-linecap:square;stroke-width:2;"/>
    </g>
    <g id="line2d_21">
     <g>
      <use style="fill:#dbcd00;stroke:#dbcd00;" x="1093.382188" xlink:href="#mdcf1bd7f25" y="25.237422"/>
     </g>
    </g>
    <g id="text_14">
     <!-- Genesene -->
     <defs>
      <path d="M 59.515625 10.40625 
L 59.515625 29.984375 
L 43.40625 29.984375 
L 43.40625 38.09375 
L 69.28125 38.09375 
L 69.28125 6.78125 
Q 63.578125 2.734375 56.6875 0.65625 
Q 49.8125 -1.421875 42 -1.421875 
Q 24.90625 -1.421875 15.25 8.5625 
Q 5.609375 18.5625 5.609375 36.375 
Q 5.609375 54.25 15.25 64.234375 
Q 24.90625 74.21875 42 74.21875 
Q 49.125 74.21875 55.546875 72.453125 
Q 61.96875 70.703125 67.390625 67.28125 
L 67.390625 56.78125 
Q 61.921875 61.421875 55.765625 63.765625 
Q 49.609375 66.109375 42.828125 66.109375 
Q 29.4375 66.109375 22.71875 58.640625 
Q 16.015625 51.171875 16.015625 36.375 
Q 16.015625 21.625 22.71875 14.15625 
Q 29.4375 6.6875 42.828125 6.6875 
Q 48.046875 6.6875 52.140625 7.59375 
Q 56.25 8.5 59.515625 10.40625 
z
" id="DejaVuSans-71"/>
      <path d="M 44.28125 53.078125 
L 44.28125 44.578125 
Q 40.484375 46.53125 36.375 47.5 
Q 32.28125 48.484375 27.875 48.484375 
Q 21.1875 48.484375 17.84375 46.4375 
Q 14.5 44.390625 14.5 40.28125 
Q 14.5 37.15625 16.890625 35.375 
Q 19.28125 33.59375 26.515625 31.984375 
L 29.59375 31.296875 
Q 39.15625 29.25 43.1875 25.515625 
Q 47.21875 21.78125 47.21875 15.09375 
Q 47.21875 7.46875 41.1875 3.015625 
Q 35.15625 -1.421875 24.609375 -1.421875 
Q 20.21875 -1.421875 15.453125 -0.5625 
Q 10.6875 0.296875 5.421875 2 
L 5.421875 11.28125 
Q 10.40625 8.6875 15.234375 7.390625 
Q 20.0625 6.109375 24.8125 6.109375 
Q 31.15625 6.109375 34.5625 8.28125 
Q 37.984375 10.453125 37.984375 14.40625 
Q 37.984375 18.0625 35.515625 20.015625 
Q 33.0625 21.96875 24.703125 23.78125 
L 21.578125 24.515625 
Q 13.234375 26.265625 9.515625 29.90625 
Q 5.8125 33.546875 5.8125 39.890625 
Q 5.8125 47.609375 11.28125 51.796875 
Q 16.75 56 26.8125 56 
Q 31.78125 56 36.171875 55.265625 
Q 40.578125 54.546875 44.28125 53.078125 
z
" id="DejaVuSans-115"/>
     </defs>
     <g transform="translate(1111.382188 28.737422)scale(0.1 -0.1)">
      <use xlink:href="#DejaVuSans-71"/>
      <use x="77.490234" xlink:href="#DejaVuSans-101"/>
      <use x="139.013672" xlink:href="#DejaVuSans-110"/>
      <use x="202.392578" xlink:href="#DejaVuSans-101"/>
      <use x="263.916016" xlink:href="#DejaVuSans-115"/>
      <use x="316.015625" xlink:href="#DejaVuSans-101"/>
      <use x="377.539062" xlink:href="#DejaVuSans-110"/>
      <use x="440.917969" xlink:href="#DejaVuSans-101"/>
     </g>
    </g>
    <g id="line2d_22">
     <path d="M 1083.382188 39.915547 
L 1103.382188 39.915547 
" style="fill:none;stroke:#2792cb;stroke-linecap:square;stroke-width:2;"/>
    </g>
    <g id="line2d_23">
     <g>
      <use style="fill:#2792cb;stroke:#2792cb;" x="1093.382188" xlink:href="#m14b2812daf" y="39.915547"/>
     </g>
    </g>
    <g id="text_15">
     <!-- Erkrankte -->
     <defs>
      <path d="M 9.8125 72.90625 
L 55.90625 72.90625 
L 55.90625 64.59375 
L 19.671875 64.59375 
L 19.671875 43.015625 
L 54.390625 43.015625 
L 54.390625 34.71875 
L 19.671875 34.71875 
L 19.671875 8.296875 
L 56.78125 8.296875 
L 56.78125 0 
L 9.8125 0 
z
" id="DejaVuSans-69"/>
      <path d="M 41.109375 46.296875 
Q 39.59375 47.171875 37.8125 47.578125 
Q 36.03125 48 33.890625 48 
Q 26.265625 48 22.1875 43.046875 
Q 18.109375 38.09375 18.109375 28.8125 
L 18.109375 0 
L 9.078125 0 
L 9.078125 54.6875 
L 18.109375 54.6875 
L 18.109375 46.1875 
Q 20.953125 51.171875 25.484375 53.578125 
Q 30.03125 56 36.53125 56 
Q 37.453125 56 38.578125 55.875 
Q 39.703125 55.765625 41.0625 55.515625 
z
" id="DejaVuSans-114"/>
      <path d="M 9.078125 75.984375 
L 18.109375 75.984375 
L 18.109375 31.109375 
L 44.921875 54.6875 
L 56.390625 54.6875 
L 27.390625 29.109375 
L 57.625 0 
L 45.90625 0 
L 18.109375 26.703125 
L 18.109375 0 
L 9.078125 0 
z
" id="DejaVuSans-107"/>
      <path d="M 18.3125 70.21875 
L 18.3125 54.6875 
L 36.8125 54.6875 
L 36.8125 47.703125 
L 18.3125 47.703125 
L 18.3125 18.015625 
Q 18.3125 11.328125 20.140625 9.421875 
Q 21.96875 7.515625 27.59375 7.515625 
L 36.8125 7.515625 
L 36.8125 0 
L 27.59375 0 
Q 17.1875 0 13.234375 3.875 
Q 9.28125 7.765625 9.28125 18.015625 
L 9.28125 47.703125 
L 2.6875 47.703125 
L 2.6875 54.6875 
L 9.28125 54.6875 
L 9.28125 70.21875 
z
" id="DejaVuSans-116"/>
     </defs>
     <g transform="translate(1111.382188 43.415547)scale(0.1 -0.1)">
      <use xlink:href="#DejaVuSans-69"/>
      <use x="63.183594" xlink:href="#DejaVuSans-114"/>
      <use x="104.296875" xlink:href="#DejaVuSans-107"/>
      <use x="162.207031" xlink:href="#DejaVuSans-114"/>
      <use x="203.320312" xlink:href="#DejaVuSans-97"/>
      <use x="264.599609" xlink:href="#DejaVuSans-110"/>
      <use x="327.978516" xlink:href="#DejaVuSans-107"/>
      <use x="385.888672" xlink:href="#DejaVuSans-116"/>
      <use x="425.097656" xlink:href="#DejaVuSans-101"/>
     </g>
    </g>
   </g>
  </g>
 </g>
 <defs>
  <clipPath id="pcc2d598cae">
   <rect height="489.6" width="1116" x="54.6275" y="12.138984"/>
  </clipPath>
 </defs>
</svg>
