<?xml version="1.0" encoding="utf-8" standalone="no"?>
<!DOCTYPE svg PUBLIC "-//W3C//DTD SVG 1.1//EN"
  "http://www.w3.org/Graphics/SVG/1.1/DTD/svg11.dtd">
<!-- Created with matplotlib (https://matplotlib.org/) -->
<svg height="553.993765pt" version="1.1" viewBox="0 0 1186.09875 553.993765" width="1186.09875pt" xmlns="http://www.w3.org/2000/svg" xmlns:xlink="http://www.w3.org/1999/xlink">
 <defs>
  <style type="text/css">
*{stroke-linecap:butt;stroke-linejoin:round;}
  </style>
 </defs>
 <g id="figure_1">
  <g id="patch_1">
   <path d="M 0 553.993765 
L 1186.09875 553.993765 
L 1186.09875 0 
L 0 0 
z
" style="fill:#ffffff;"/>
  </g>
  <g id="axes_1">
   <g id="patch_2">
    <path d="M 62.89875 501.738984 
L 1178.89875 501.738984 
L 1178.89875 12.138984 
L 62.89875 12.138984 
z
" style="fill:#ffffff;"/>
   </g>
   <g id="matplotlib.axis_1">
    <g id="xtick_1">
     <g id="line2d_1">
      <defs>
       <path d="M 0 0 
L 0 3.5 
" id="m0c3e0c5dbf" style="stroke:#000000;stroke-width:0.8;"/>
      </defs>
      <g>
       <use style="stroke:#000000;stroke-width:0.8;" x="118.389147" xlink:href="#m0c3e0c5dbf" y="501.738984"/>
      </g>
     </g>
     <g id="text_1">
      <!-- 2020-03 -->
      <defs>
       <path d="M 19.1875 8.296875 
L 53.609375 8.296875 
L 53.609375 0 
L 7.328125 0 
L 7.328125 8.296875 
Q 12.9375 14.109375 22.625 23.890625 
Q 32.328125 33.6875 34.8125 36.53125 
Q 39.546875 41.84375 41.421875 45.53125 
Q 43.3125 49.21875 43.3125 52.78125 
Q 43.3125 58.59375 39.234375 62.25 
Q 35.15625 65.921875 28.609375 65.921875 
Q 23.96875 65.921875 18.8125 64.3125 
Q 13.671875 62.703125 7.8125 59.421875 
L 7.8125 69.390625 
Q 13.765625 71.78125 18.9375 73 
Q 24.125 74.21875 28.421875 74.21875 
Q 39.75 74.21875 46.484375 68.546875 
Q 53.21875 62.890625 53.21875 53.421875 
Q 53.21875 48.921875 51.53125 44.890625 
Q 49.859375 40.875 45.40625 35.40625 
Q 44.1875 33.984375 37.640625 27.21875 
Q 31.109375 20.453125 19.1875 8.296875 
z
" id="DejaVuSans-50"/>
       <path d="M 31.78125 66.40625 
Q 24.171875 66.40625 20.328125 58.90625 
Q 16.5 51.421875 16.5 36.375 
Q 16.5 21.390625 20.328125 13.890625 
Q 24.171875 6.390625 31.78125 6.390625 
Q 39.453125 6.390625 43.28125 13.890625 
Q 47.125 21.390625 47.125 36.375 
Q 47.125 51.421875 43.28125 58.90625 
Q 39.453125 66.40625 31.78125 66.40625 
z
M 31.78125 74.21875 
Q 44.046875 74.21875 50.515625 64.515625 
Q 56.984375 54.828125 56.984375 36.375 
Q 56.984375 17.96875 50.515625 8.265625 
Q 44.046875 -1.421875 31.78125 -1.421875 
Q 19.53125 -1.421875 13.0625 8.265625 
Q 6.59375 17.96875 6.59375 36.375 
Q 6.59375 54.828125 13.0625 64.515625 
Q 19.53125 74.21875 31.78125 74.21875 
z
" id="DejaVuSans-48"/>
       <path d="M 4.890625 31.390625 
L 31.203125 31.390625 
L 31.203125 23.390625 
L 4.890625 23.390625 
z
" id="DejaVuSans-45"/>
       <path d="M 40.578125 39.3125 
Q 47.65625 37.796875 51.625 33 
Q 55.609375 28.21875 55.609375 21.1875 
Q 55.609375 10.40625 48.1875 4.484375 
Q 40.765625 -1.421875 27.09375 -1.421875 
Q 22.515625 -1.421875 17.65625 -0.515625 
Q 12.796875 0.390625 7.625 2.203125 
L 7.625 11.71875 
Q 11.71875 9.328125 16.59375 8.109375 
Q 21.484375 6.890625 26.8125 6.890625 
Q 36.078125 6.890625 40.9375 10.546875 
Q 45.796875 14.203125 45.796875 21.1875 
Q 45.796875 27.640625 41.28125 31.265625 
Q 36.765625 34.90625 28.71875 34.90625 
L 20.21875 34.90625 
L 20.21875 43.015625 
L 29.109375 43.015625 
Q 36.375 43.015625 40.234375 45.921875 
Q 44.09375 48.828125 44.09375 54.296875 
Q 44.09375 59.90625 40.109375 62.90625 
Q 36.140625 65.921875 28.71875 65.921875 
Q 24.65625 65.921875 20.015625 65.03125 
Q 15.375 64.15625 9.8125 62.3125 
L 9.8125 71.09375 
Q 15.4375 72.65625 20.34375 73.4375 
Q 25.25 74.21875 29.59375 74.21875 
Q 40.828125 74.21875 47.359375 69.109375 
Q 53.90625 64.015625 53.90625 55.328125 
Q 53.90625 49.265625 50.4375 45.09375 
Q 46.96875 40.921875 40.578125 39.3125 
z
" id="DejaVuSans-51"/>
      </defs>
      <g transform="translate(69.99688 544.452384)rotate(-30)scale(0.13 -0.13)">
       <use xlink:href="#DejaVuSans-50"/>
       <use x="63.623047" xlink:href="#DejaVuSans-48"/>
       <use x="127.246094" xlink:href="#DejaVuSans-50"/>
       <use x="190.869141" xlink:href="#DejaVuSans-48"/>
       <use x="254.492188" xlink:href="#DejaVuSans-45"/>
       <use x="290.576172" xlink:href="#DejaVuSans-48"/>
       <use x="354.199219" xlink:href="#DejaVuSans-51"/>
      </g>
     </g>
    </g>
    <g id="xtick_2">
     <g id="line2d_2">
      <g>
       <use style="stroke:#000000;stroke-width:0.8;" x="266.045997" xlink:href="#m0c3e0c5dbf" y="501.738984"/>
      </g>
     </g>
     <g id="text_2">
      <!-- 2020-04 -->
      <defs>
       <path d="M 37.796875 64.3125 
L 12.890625 25.390625 
L 37.796875 25.390625 
z
M 35.203125 72.90625 
L 47.609375 72.90625 
L 47.609375 25.390625 
L 58.015625 25.390625 
L 58.015625 17.1875 
L 47.609375 17.1875 
L 47.609375 0 
L 37.796875 0 
L 37.796875 17.1875 
L 4.890625 17.1875 
L 4.890625 26.703125 
z
" id="DejaVuSans-52"/>
      </defs>
      <g transform="translate(217.65373 544.452384)rotate(-30)scale(0.13 -0.13)">
       <use xlink:href="#DejaVuSans-50"/>
       <use x="63.623047" xlink:href="#DejaVuSans-48"/>
       <use x="127.246094" xlink:href="#DejaVuSans-50"/>
       <use x="190.869141" xlink:href="#DejaVuSans-48"/>
       <use x="254.492188" xlink:href="#DejaVuSans-45"/>
       <use x="290.576172" xlink:href="#DejaVuSans-48"/>
       <use x="354.199219" xlink:href="#DejaVuSans-52"/>
      </g>
     </g>
    </g>
    <g id="xtick_3">
     <g id="line2d_3">
      <g>
       <use style="stroke:#000000;stroke-width:0.8;" x="408.939723" xlink:href="#m0c3e0c5dbf" y="501.738984"/>
      </g>
     </g>
     <g id="text_3">
      <!-- 2020-05 -->
      <defs>
       <path d="M 10.796875 72.90625 
L 49.515625 72.90625 
L 49.515625 64.59375 
L 19.828125 64.59375 
L 19.828125 46.734375 
Q 21.96875 47.46875 24.109375 47.828125 
Q 26.265625 48.1875 28.421875 48.1875 
Q 40.625 48.1875 47.75 41.5 
Q 54.890625 34.8125 54.890625 23.390625 
Q 54.890625 11.625 47.5625 5.09375 
Q 40.234375 -1.421875 26.90625 -1.421875 
Q 22.3125 -1.421875 17.546875 -0.640625 
Q 12.796875 0.140625 7.71875 1.703125 
L 7.71875 11.625 
Q 12.109375 9.234375 16.796875 8.0625 
Q 21.484375 6.890625 26.703125 6.890625 
Q 35.15625 6.890625 40.078125 11.328125 
Q 45.015625 15.765625 45.015625 23.390625 
Q 45.015625 31 40.078125 35.4375 
Q 35.15625 39.890625 26.703125 39.890625 
Q 22.75 39.890625 18.8125 39.015625 
Q 14.890625 38.140625 10.796875 36.28125 
z
" id="DejaVuSans-53"/>
      </defs>
      <g transform="translate(360.547456 544.452384)rotate(-30)scale(0.13 -0.13)">
       <use xlink:href="#DejaVuSans-50"/>
       <use x="63.623047" xlink:href="#DejaVuSans-48"/>
       <use x="127.246094" xlink:href="#DejaVuSans-50"/>
       <use x="190.869141" xlink:href="#DejaVuSans-48"/>
       <use x="254.492188" xlink:href="#DejaVuSans-45"/>
       <use x="290.576172" xlink:href="#DejaVuSans-48"/>
       <use x="354.199219" xlink:href="#DejaVuSans-53"/>
      </g>
     </g>
    </g>
    <g id="xtick_4">
     <g id="line2d_4">
      <g>
       <use style="stroke:#000000;stroke-width:0.8;" x="556.596573" xlink:href="#m0c3e0c5dbf" y="501.738984"/>
      </g>
     </g>
     <g id="text_4">
      <!-- 2020-06 -->
      <defs>
       <path d="M 33.015625 40.375 
Q 26.375 40.375 22.484375 35.828125 
Q 18.609375 31.296875 18.609375 23.390625 
Q 18.609375 15.53125 22.484375 10.953125 
Q 26.375 6.390625 33.015625 6.390625 
Q 39.65625 6.390625 43.53125 10.953125 
Q 47.40625 15.53125 47.40625 23.390625 
Q 47.40625 31.296875 43.53125 35.828125 
Q 39.65625 40.375 33.015625 40.375 
z
M 52.59375 71.296875 
L 52.59375 62.3125 
Q 48.875 64.0625 45.09375 64.984375 
Q 41.3125 65.921875 37.59375 65.921875 
Q 27.828125 65.921875 22.671875 59.328125 
Q 17.53125 52.734375 16.796875 39.40625 
Q 19.671875 43.65625 24.015625 45.921875 
Q 28.375 48.1875 33.59375 48.1875 
Q 44.578125 48.1875 50.953125 41.515625 
Q 57.328125 34.859375 57.328125 23.390625 
Q 57.328125 12.15625 50.6875 5.359375 
Q 44.046875 -1.421875 33.015625 -1.421875 
Q 20.359375 -1.421875 13.671875 8.265625 
Q 6.984375 17.96875 6.984375 36.375 
Q 6.984375 53.65625 15.1875 63.9375 
Q 23.390625 74.21875 37.203125 74.21875 
Q 40.921875 74.21875 44.703125 73.484375 
Q 48.484375 72.75 52.59375 71.296875 
z
" id="DejaVuSans-54"/>
      </defs>
      <g transform="translate(508.204306 544.452384)rotate(-30)scale(0.13 -0.13)">
       <use xlink:href="#DejaVuSans-50"/>
       <use x="63.623047" xlink:href="#DejaVuSans-48"/>
       <use x="127.246094" xlink:href="#DejaVuSans-50"/>
       <use x="190.869141" xlink:href="#DejaVuSans-48"/>
       <use x="254.492188" xlink:href="#DejaVuSans-45"/>
       <use x="290.576172" xlink:href="#DejaVuSans-48"/>
       <use x="354.199219" xlink:href="#DejaVuSans-54"/>
      </g>
     </g>
    </g>
    <g id="xtick_5">
     <g id="line2d_5">
      <g>
       <use style="stroke:#000000;stroke-width:0.8;" x="699.490299" xlink:href="#m0c3e0c5dbf" y="501.738984"/>
      </g>
     </g>
     <g id="text_5">
      <!-- 2020-07 -->
      <defs>
       <path d="M 8.203125 72.90625 
L 55.078125 72.90625 
L 55.078125 68.703125 
L 28.609375 0 
L 18.3125 0 
L 43.21875 64.59375 
L 8.203125 64.59375 
z
" id="DejaVuSans-55"/>
      </defs>
      <g transform="translate(651.098032 544.452384)rotate(-30)scale(0.13 -0.13)">
       <use xlink:href="#DejaVuSans-50"/>
       <use x="63.623047" xlink:href="#DejaVuSans-48"/>
       <use x="127.246094" xlink:href="#DejaVuSans-50"/>
       <use x="190.869141" xlink:href="#DejaVuSans-48"/>
       <use x="254.492188" xlink:href="#DejaVuSans-45"/>
       <use x="290.576172" xlink:href="#DejaVuSans-48"/>
       <use x="354.199219" xlink:href="#DejaVuSans-55"/>
      </g>
     </g>
    </g>
    <g id="xtick_6">
     <g id="line2d_6">
      <g>
       <use style="stroke:#000000;stroke-width:0.8;" x="847.147149" xlink:href="#m0c3e0c5dbf" y="501.738984"/>
      </g>
     </g>
     <g id="text_6">
      <!-- 2020-08 -->
      <defs>
       <path d="M 31.78125 34.625 
Q 24.75 34.625 20.71875 30.859375 
Q 16.703125 27.09375 16.703125 20.515625 
Q 16.703125 13.921875 20.71875 10.15625 
Q 24.75 6.390625 31.78125 6.390625 
Q 38.8125 6.390625 42.859375 10.171875 
Q 46.921875 13.96875 46.921875 20.515625 
Q 46.921875 27.09375 42.890625 30.859375 
Q 38.875 34.625 31.78125 34.625 
z
M 21.921875 38.8125 
Q 15.578125 40.375 12.03125 44.71875 
Q 8.5 49.078125 8.5 55.328125 
Q 8.5 64.0625 14.71875 69.140625 
Q 20.953125 74.21875 31.78125 74.21875 
Q 42.671875 74.21875 48.875 69.140625 
Q 55.078125 64.0625 55.078125 55.328125 
Q 55.078125 49.078125 51.53125 44.71875 
Q 48 40.375 41.703125 38.8125 
Q 48.828125 37.15625 52.796875 32.3125 
Q 56.78125 27.484375 56.78125 20.515625 
Q 56.78125 9.90625 50.3125 4.234375 
Q 43.84375 -1.421875 31.78125 -1.421875 
Q 19.734375 -1.421875 13.25 4.234375 
Q 6.78125 9.90625 6.78125 20.515625 
Q 6.78125 27.484375 10.78125 32.3125 
Q 14.796875 37.15625 21.921875 38.8125 
z
M 18.3125 54.390625 
Q 18.3125 48.734375 21.84375 45.5625 
Q 25.390625 42.390625 31.78125 42.390625 
Q 38.140625 42.390625 41.71875 45.5625 
Q 45.3125 48.734375 45.3125 54.390625 
Q 45.3125 60.0625 41.71875 63.234375 
Q 38.140625 66.40625 31.78125 66.40625 
Q 25.390625 66.40625 21.84375 63.234375 
Q 18.3125 60.0625 18.3125 54.390625 
z
" id="DejaVuSans-56"/>
      </defs>
      <g transform="translate(798.754882 544.452384)rotate(-30)scale(0.13 -0.13)">
       <use xlink:href="#DejaVuSans-50"/>
       <use x="63.623047" xlink:href="#DejaVuSans-48"/>
       <use x="127.246094" xlink:href="#DejaVuSans-50"/>
       <use x="190.869141" xlink:href="#DejaVuSans-48"/>
       <use x="254.492188" xlink:href="#DejaVuSans-45"/>
       <use x="290.576172" xlink:href="#DejaVuSans-48"/>
       <use x="354.199219" xlink:href="#DejaVuSans-56"/>
      </g>
     </g>
    </g>
    <g id="xtick_7">
     <g id="line2d_7">
      <g>
       <use style="stroke:#000000;stroke-width:0.8;" x="994.804" xlink:href="#m0c3e0c5dbf" y="501.738984"/>
      </g>
     </g>
     <g id="text_7">
      <!-- 2020-09 -->
      <defs>
       <path d="M 10.984375 1.515625 
L 10.984375 10.5 
Q 14.703125 8.734375 18.5 7.8125 
Q 22.3125 6.890625 25.984375 6.890625 
Q 35.75 6.890625 40.890625 13.453125 
Q 46.046875 20.015625 46.78125 33.40625 
Q 43.953125 29.203125 39.59375 26.953125 
Q 35.25 24.703125 29.984375 24.703125 
Q 19.046875 24.703125 12.671875 31.3125 
Q 6.296875 37.9375 6.296875 49.421875 
Q 6.296875 60.640625 12.9375 67.421875 
Q 19.578125 74.21875 30.609375 74.21875 
Q 43.265625 74.21875 49.921875 64.515625 
Q 56.59375 54.828125 56.59375 36.375 
Q 56.59375 19.140625 48.40625 8.859375 
Q 40.234375 -1.421875 26.421875 -1.421875 
Q 22.703125 -1.421875 18.890625 -0.6875 
Q 15.09375 0.046875 10.984375 1.515625 
z
M 30.609375 32.421875 
Q 37.25 32.421875 41.125 36.953125 
Q 45.015625 41.5 45.015625 49.421875 
Q 45.015625 57.28125 41.125 61.84375 
Q 37.25 66.40625 30.609375 66.40625 
Q 23.96875 66.40625 20.09375 61.84375 
Q 16.21875 57.28125 16.21875 49.421875 
Q 16.21875 41.5 20.09375 36.953125 
Q 23.96875 32.421875 30.609375 32.421875 
z
" id="DejaVuSans-57"/>
      </defs>
      <g transform="translate(946.411733 544.452384)rotate(-30)scale(0.13 -0.13)">
       <use xlink:href="#DejaVuSans-50"/>
       <use x="63.623047" xlink:href="#DejaVuSans-48"/>
       <use x="127.246094" xlink:href="#DejaVuSans-50"/>
       <use x="190.869141" xlink:href="#DejaVuSans-48"/>
       <use x="254.492188" xlink:href="#DejaVuSans-45"/>
       <use x="290.576172" xlink:href="#DejaVuSans-48"/>
       <use x="354.199219" xlink:href="#DejaVuSans-57"/>
      </g>
     </g>
    </g>
    <g id="xtick_8">
     <g id="line2d_8">
      <g>
       <use style="stroke:#000000;stroke-width:0.8;" x="1137.697726" xlink:href="#m0c3e0c5dbf" y="501.738984"/>
      </g>
     </g>
     <g id="text_8">
      <!-- 2020-10 -->
      <defs>
       <path d="M 12.40625 8.296875 
L 28.515625 8.296875 
L 28.515625 63.921875 
L 10.984375 60.40625 
L 10.984375 69.390625 
L 28.421875 72.90625 
L 38.28125 72.90625 
L 38.28125 8.296875 
L 54.390625 8.296875 
L 54.390625 0 
L 12.40625 0 
z
" id="DejaVuSans-49"/>
      </defs>
      <g transform="translate(1089.305459 544.452384)rotate(-30)scale(0.13 -0.13)">
       <use xlink:href="#DejaVuSans-50"/>
       <use x="63.623047" xlink:href="#DejaVuSans-48"/>
       <use x="127.246094" xlink:href="#DejaVuSans-50"/>
       <use x="190.869141" xlink:href="#DejaVuSans-48"/>
       <use x="254.492188" xlink:href="#DejaVuSans-45"/>
       <use x="290.576172" xlink:href="#DejaVuSans-49"/>
       <use x="354.199219" xlink:href="#DejaVuSans-48"/>
      </g>
     </g>
    </g>
   </g>
   <g id="matplotlib.axis_2">
    <g id="ytick_1">
     <g id="line2d_9">
      <path clip-path="url(#p924f9c38fd)" d="M 62.89875 481.165764 
L 1178.89875 481.165764 
" style="fill:none;stroke:#b0b0b0;stroke-linecap:square;stroke-width:0.8;"/>
     </g>
     <g id="line2d_10">
      <defs>
       <path d="M 0 0 
L -3.5 0 
" id="mecb5ed09fd" style="stroke:#000000;stroke-width:0.8;"/>
      </defs>
      <g>
       <use style="stroke:#000000;stroke-width:0.8;" x="62.89875" xlink:href="#mecb5ed09fd" y="481.165764"/>
      </g>
     </g>
     <g id="text_9">
      <!-- 0 -->
      <g transform="translate(47.6275 486.104749)scale(0.13 -0.13)">
       <use xlink:href="#DejaVuSans-48"/>
      </g>
     </g>
    </g>
    <g id="ytick_2">
     <g id="line2d_11">
      <path clip-path="url(#p924f9c38fd)" d="M 62.89875 438.526966 
L 1178.89875 438.526966 
" style="fill:none;stroke:#b0b0b0;stroke-linecap:square;stroke-width:0.8;"/>
     </g>
     <g id="line2d_12">
      <g>
       <use style="stroke:#000000;stroke-width:0.8;" x="62.89875" xlink:href="#mecb5ed09fd" y="438.526966"/>
      </g>
     </g>
     <g id="text_10">
      <!-- 100 -->
      <g transform="translate(31.085 443.46595)scale(0.13 -0.13)">
       <use xlink:href="#DejaVuSans-49"/>
       <use x="63.623047" xlink:href="#DejaVuSans-48"/>
       <use x="127.246094" xlink:href="#DejaVuSans-48"/>
      </g>
     </g>
    </g>
    <g id="ytick_3">
     <g id="line2d_13">
      <path clip-path="url(#p924f9c38fd)" d="M 62.89875 395.888168 
L 1178.89875 395.888168 
" style="fill:none;stroke:#b0b0b0;stroke-linecap:square;stroke-width:0.8;"/>
     </g>
     <g id="line2d_14">
      <g>
       <use style="stroke:#000000;stroke-width:0.8;" x="62.89875" xlink:href="#mecb5ed09fd" y="395.888168"/>
      </g>
     </g>
     <g id="text_11">
      <!-- 200 -->
      <g transform="translate(31.085 400.827152)scale(0.13 -0.13)">
       <use xlink:href="#DejaVuSans-50"/>
       <use x="63.623047" xlink:href="#DejaVuSans-48"/>
       <use x="127.246094" xlink:href="#DejaVuSans-48"/>
      </g>
     </g>
    </g>
    <g id="ytick_4">
     <g id="line2d_15">
      <path clip-path="url(#p924f9c38fd)" d="M 62.89875 353.24937 
L 1178.89875 353.24937 
" style="fill:none;stroke:#b0b0b0;stroke-linecap:square;stroke-width:0.8;"/>
     </g>
     <g id="line2d_16">
      <g>
       <use style="stroke:#000000;stroke-width:0.8;" x="62.89875" xlink:href="#mecb5ed09fd" y="353.24937"/>
      </g>
     </g>
     <g id="text_12">
      <!-- 300 -->
      <g transform="translate(31.085 358.188354)scale(0.13 -0.13)">
       <use xlink:href="#DejaVuSans-51"/>
       <use x="63.623047" xlink:href="#DejaVuSans-48"/>
       <use x="127.246094" xlink:href="#DejaVuSans-48"/>
      </g>
     </g>
    </g>
    <g id="ytick_5">
     <g id="line2d_17">
      <path clip-path="url(#p924f9c38fd)" d="M 62.89875 310.610572 
L 1178.89875 310.610572 
" style="fill:none;stroke:#b0b0b0;stroke-linecap:square;stroke-width:0.8;"/>
     </g>
     <g id="line2d_18">
      <g>
       <use style="stroke:#000000;stroke-width:0.8;" x="62.89875" xlink:href="#mecb5ed09fd" y="310.610572"/>
      </g>
     </g>
     <g id="text_13">
      <!-- 400 -->
      <g transform="translate(31.085 315.549556)scale(0.13 -0.13)">
       <use xlink:href="#DejaVuSans-52"/>
       <use x="63.623047" xlink:href="#DejaVuSans-48"/>
       <use x="127.246094" xlink:href="#DejaVuSans-48"/>
      </g>
     </g>
    </g>
    <g id="ytick_6">
     <g id="line2d_19">
      <path clip-path="url(#p924f9c38fd)" d="M 62.89875 267.971773 
L 1178.89875 267.971773 
" style="fill:none;stroke:#b0b0b0;stroke-linecap:square;stroke-width:0.8;"/>
     </g>
     <g id="line2d_20">
      <g>
       <use style="stroke:#000000;stroke-width:0.8;" x="62.89875" xlink:href="#mecb5ed09fd" y="267.971773"/>
      </g>
     </g>
     <g id="text_14">
      <!-- 500 -->
      <g transform="translate(31.085 272.910758)scale(0.13 -0.13)">
       <use xlink:href="#DejaVuSans-53"/>
       <use x="63.623047" xlink:href="#DejaVuSans-48"/>
       <use x="127.246094" xlink:href="#DejaVuSans-48"/>
      </g>
     </g>
    </g>
    <g id="ytick_7">
     <g id="line2d_21">
      <path clip-path="url(#p924f9c38fd)" d="M 62.89875 225.332975 
L 1178.89875 225.332975 
" style="fill:none;stroke:#b0b0b0;stroke-linecap:square;stroke-width:0.8;"/>
     </g>
     <g id="line2d_22">
      <g>
       <use style="stroke:#000000;stroke-width:0.8;" x="62.89875" xlink:href="#mecb5ed09fd" y="225.332975"/>
      </g>
     </g>
     <g id="text_15">
      <!-- 600 -->
      <g transform="translate(31.085 230.27196)scale(0.13 -0.13)">
       <use xlink:href="#DejaVuSans-54"/>
       <use x="63.623047" xlink:href="#DejaVuSans-48"/>
       <use x="127.246094" xlink:href="#DejaVuSans-48"/>
      </g>
     </g>
    </g>
    <g id="ytick_8">
     <g id="line2d_23">
      <path clip-path="url(#p924f9c38fd)" d="M 62.89875 182.694177 
L 1178.89875 182.694177 
" style="fill:none;stroke:#b0b0b0;stroke-linecap:square;stroke-width:0.8;"/>
     </g>
     <g id="line2d_24">
      <g>
       <use style="stroke:#000000;stroke-width:0.8;" x="62.89875" xlink:href="#mecb5ed09fd" y="182.694177"/>
      </g>
     </g>
     <g id="text_16">
      <!-- 700 -->
      <g transform="translate(31.085 187.633161)scale(0.13 -0.13)">
       <use xlink:href="#DejaVuSans-55"/>
       <use x="63.623047" xlink:href="#DejaVuSans-48"/>
       <use x="127.246094" xlink:href="#DejaVuSans-48"/>
      </g>
     </g>
    </g>
    <g id="ytick_9">
     <g id="line2d_25">
      <path clip-path="url(#p924f9c38fd)" d="M 62.89875 140.055379 
L 1178.89875 140.055379 
" style="fill:none;stroke:#b0b0b0;stroke-linecap:square;stroke-width:0.8;"/>
     </g>
     <g id="line2d_26">
      <g>
       <use style="stroke:#000000;stroke-width:0.8;" x="62.89875" xlink:href="#mecb5ed09fd" y="140.055379"/>
      </g>
     </g>
     <g id="text_17">
      <!-- 800 -->
      <g transform="translate(31.085 144.994363)scale(0.13 -0.13)">
       <use xlink:href="#DejaVuSans-56"/>
       <use x="63.623047" xlink:href="#DejaVuSans-48"/>
       <use x="127.246094" xlink:href="#DejaVuSans-48"/>
      </g>
     </g>
    </g>
    <g id="ytick_10">
     <g id="line2d_27">
      <path clip-path="url(#p924f9c38fd)" d="M 62.89875 97.416581 
L 1178.89875 97.416581 
" style="fill:none;stroke:#b0b0b0;stroke-linecap:square;stroke-width:0.8;"/>
     </g>
     <g id="line2d_28">
      <g>
       <use style="stroke:#000000;stroke-width:0.8;" x="62.89875" xlink:href="#mecb5ed09fd" y="97.416581"/>
      </g>
     </g>
     <g id="text_18">
      <!-- 900 -->
      <g transform="translate(31.085 102.355565)scale(0.13 -0.13)">
       <use xlink:href="#DejaVuSans-57"/>
       <use x="63.623047" xlink:href="#DejaVuSans-48"/>
       <use x="127.246094" xlink:href="#DejaVuSans-48"/>
      </g>
     </g>
    </g>
    <g id="ytick_11">
     <g id="line2d_29">
      <path clip-path="url(#p924f9c38fd)" d="M 62.89875 54.777783 
L 1178.89875 54.777783 
" style="fill:none;stroke:#b0b0b0;stroke-linecap:square;stroke-width:0.8;"/>
     </g>
     <g id="line2d_30">
      <g>
       <use style="stroke:#000000;stroke-width:0.8;" x="62.89875" xlink:href="#mecb5ed09fd" y="54.777783"/>
      </g>
     </g>
     <g id="text_19">
      <!-- 1000 -->
      <g transform="translate(22.81375 59.716767)scale(0.13 -0.13)">
       <use xlink:href="#DejaVuSans-49"/>
       <use x="63.623047" xlink:href="#DejaVuSans-48"/>
       <use x="127.246094" xlink:href="#DejaVuSans-48"/>
       <use x="190.869141" xlink:href="#DejaVuSans-48"/>
      </g>
     </g>
    </g>
    <g id="ytick_12">
     <g id="line2d_31">
      <path clip-path="url(#p924f9c38fd)" d="M 62.89875 12.138984 
L 1178.89875 12.138984 
" style="fill:none;stroke:#b0b0b0;stroke-linecap:square;stroke-width:0.8;"/>
     </g>
     <g id="line2d_32">
      <g>
       <use style="stroke:#000000;stroke-width:0.8;" x="62.89875" xlink:href="#mecb5ed09fd" y="12.138984"/>
      </g>
     </g>
     <g id="text_20">
      <!-- 1100 -->
      <g transform="translate(22.81375 17.077969)scale(0.13 -0.13)">
       <use xlink:href="#DejaVuSans-49"/>
       <use x="63.623047" xlink:href="#DejaVuSans-49"/>
       <use x="127.246094" xlink:href="#DejaVuSans-48"/>
       <use x="190.869141" xlink:href="#DejaVuSans-48"/>
      </g>
     </g>
    </g>
    <g id="text_21">
     <!-- Anzahl von Fällen -->
     <defs>
      <path d="M 34.1875 63.1875 
L 20.796875 26.90625 
L 47.609375 26.90625 
z
M 28.609375 72.90625 
L 39.796875 72.90625 
L 67.578125 0 
L 57.328125 0 
L 50.6875 18.703125 
L 17.828125 18.703125 
L 11.1875 0 
L 0.78125 0 
z
" id="DejaVuSans-65"/>
      <path d="M 54.890625 33.015625 
L 54.890625 0 
L 45.90625 0 
L 45.90625 32.71875 
Q 45.90625 40.484375 42.875 44.328125 
Q 39.84375 48.1875 33.796875 48.1875 
Q 26.515625 48.1875 22.3125 43.546875 
Q 18.109375 38.921875 18.109375 30.90625 
L 18.109375 0 
L 9.078125 0 
L 9.078125 54.6875 
L 18.109375 54.6875 
L 18.109375 46.1875 
Q 21.34375 51.125 25.703125 53.5625 
Q 30.078125 56 35.796875 56 
Q 45.21875 56 50.046875 50.171875 
Q 54.890625 44.34375 54.890625 33.015625 
z
" id="DejaVuSans-110"/>
      <path d="M 5.515625 54.6875 
L 48.1875 54.6875 
L 48.1875 46.484375 
L 14.40625 7.171875 
L 48.1875 7.171875 
L 48.1875 0 
L 4.296875 0 
L 4.296875 8.203125 
L 38.09375 47.515625 
L 5.515625 47.515625 
z
" id="DejaVuSans-122"/>
      <path d="M 34.28125 27.484375 
Q 23.390625 27.484375 19.1875 25 
Q 14.984375 22.515625 14.984375 16.5 
Q 14.984375 11.71875 18.140625 8.90625 
Q 21.296875 6.109375 26.703125 6.109375 
Q 34.1875 6.109375 38.703125 11.40625 
Q 43.21875 16.703125 43.21875 25.484375 
L 43.21875 27.484375 
z
M 52.203125 31.203125 
L 52.203125 0 
L 43.21875 0 
L 43.21875 8.296875 
Q 40.140625 3.328125 35.546875 0.953125 
Q 30.953125 -1.421875 24.3125 -1.421875 
Q 15.921875 -1.421875 10.953125 3.296875 
Q 6 8.015625 6 15.921875 
Q 6 25.140625 12.171875 29.828125 
Q 18.359375 34.515625 30.609375 34.515625 
L 43.21875 34.515625 
L 43.21875 35.40625 
Q 43.21875 41.609375 39.140625 45 
Q 35.0625 48.390625 27.6875 48.390625 
Q 23 48.390625 18.546875 47.265625 
Q 14.109375 46.140625 10.015625 43.890625 
L 10.015625 52.203125 
Q 14.9375 54.109375 19.578125 55.046875 
Q 24.21875 56 28.609375 56 
Q 40.484375 56 46.34375 49.84375 
Q 52.203125 43.703125 52.203125 31.203125 
z
" id="DejaVuSans-97"/>
      <path d="M 54.890625 33.015625 
L 54.890625 0 
L 45.90625 0 
L 45.90625 32.71875 
Q 45.90625 40.484375 42.875 44.328125 
Q 39.84375 48.1875 33.796875 48.1875 
Q 26.515625 48.1875 22.3125 43.546875 
Q 18.109375 38.921875 18.109375 30.90625 
L 18.109375 0 
L 9.078125 0 
L 9.078125 75.984375 
L 18.109375 75.984375 
L 18.109375 46.1875 
Q 21.34375 51.125 25.703125 53.5625 
Q 30.078125 56 35.796875 56 
Q 45.21875 56 50.046875 50.171875 
Q 54.890625 44.34375 54.890625 33.015625 
z
" id="DejaVuSans-104"/>
      <path d="M 9.421875 75.984375 
L 18.40625 75.984375 
L 18.40625 0 
L 9.421875 0 
z
" id="DejaVuSans-108"/>
      <path id="DejaVuSans-32"/>
      <path d="M 2.984375 54.6875 
L 12.5 54.6875 
L 29.59375 8.796875 
L 46.6875 54.6875 
L 56.203125 54.6875 
L 35.6875 0 
L 23.484375 0 
z
" id="DejaVuSans-118"/>
      <path d="M 30.609375 48.390625 
Q 23.390625 48.390625 19.1875 42.75 
Q 14.984375 37.109375 14.984375 27.296875 
Q 14.984375 17.484375 19.15625 11.84375 
Q 23.34375 6.203125 30.609375 6.203125 
Q 37.796875 6.203125 41.984375 11.859375 
Q 46.1875 17.53125 46.1875 27.296875 
Q 46.1875 37.015625 41.984375 42.703125 
Q 37.796875 48.390625 30.609375 48.390625 
z
M 30.609375 56 
Q 42.328125 56 49.015625 48.375 
Q 55.71875 40.765625 55.71875 27.296875 
Q 55.71875 13.875 49.015625 6.21875 
Q 42.328125 -1.421875 30.609375 -1.421875 
Q 18.84375 -1.421875 12.171875 6.21875 
Q 5.515625 13.875 5.515625 27.296875 
Q 5.515625 40.765625 12.171875 48.375 
Q 18.84375 56 30.609375 56 
z
" id="DejaVuSans-111"/>
      <path d="M 9.8125 72.90625 
L 51.703125 72.90625 
L 51.703125 64.59375 
L 19.671875 64.59375 
L 19.671875 43.109375 
L 48.578125 43.109375 
L 48.578125 34.8125 
L 19.671875 34.8125 
L 19.671875 0 
L 9.8125 0 
z
" id="DejaVuSans-70"/>
      <path d="M 34.28125 27.484375 
Q 23.390625 27.484375 19.1875 25 
Q 14.984375 22.515625 14.984375 16.5 
Q 14.984375 11.71875 18.140625 8.90625 
Q 21.296875 6.109375 26.703125 6.109375 
Q 34.1875 6.109375 38.703125 11.40625 
Q 43.21875 16.703125 43.21875 25.484375 
L 43.21875 27.484375 
z
M 52.203125 31.203125 
L 52.203125 0 
L 43.21875 0 
L 43.21875 8.296875 
Q 40.140625 3.328125 35.546875 0.953125 
Q 30.953125 -1.421875 24.3125 -1.421875 
Q 15.921875 -1.421875 10.953125 3.296875 
Q 6 8.015625 6 15.921875 
Q 6 25.140625 12.171875 29.828125 
Q 18.359375 34.515625 30.609375 34.515625 
L 43.21875 34.515625 
L 43.21875 35.40625 
Q 43.21875 41.609375 39.140625 45 
Q 35.0625 48.390625 27.6875 48.390625 
Q 23 48.390625 18.546875 47.265625 
Q 14.109375 46.140625 10.015625 43.890625 
L 10.015625 52.203125 
Q 14.9375 54.109375 19.578125 55.046875 
Q 24.21875 56 28.609375 56 
Q 40.484375 56 46.34375 49.84375 
Q 52.203125 43.703125 52.203125 31.203125 
z
M 33.59375 75.78125 
L 43.5 75.78125 
L 43.5 65.921875 
L 33.59375 65.921875 
z
M 14.5 75.78125 
L 24.40625 75.78125 
L 24.40625 65.921875 
L 14.5 65.921875 
z
" id="DejaVuSans-228"/>
      <path d="M 56.203125 29.59375 
L 56.203125 25.203125 
L 14.890625 25.203125 
Q 15.484375 15.921875 20.484375 11.0625 
Q 25.484375 6.203125 34.421875 6.203125 
Q 39.59375 6.203125 44.453125 7.46875 
Q 49.3125 8.734375 54.109375 11.28125 
L 54.109375 2.78125 
Q 49.265625 0.734375 44.1875 -0.34375 
Q 39.109375 -1.421875 33.890625 -1.421875 
Q 20.796875 -1.421875 13.15625 6.1875 
Q 5.515625 13.8125 5.515625 26.8125 
Q 5.515625 40.234375 12.765625 48.109375 
Q 20.015625 56 32.328125 56 
Q 43.359375 56 49.78125 48.890625 
Q 56.203125 41.796875 56.203125 29.59375 
z
M 47.21875 32.234375 
Q 47.125 39.59375 43.09375 43.984375 
Q 39.0625 48.390625 32.421875 48.390625 
Q 24.90625 48.390625 20.390625 44.140625 
Q 15.875 39.890625 15.1875 32.171875 
z
" id="DejaVuSans-101"/>
     </defs>
     <g transform="translate(16.318125 309.388359)rotate(-90)scale(0.12 -0.12)">
      <use xlink:href="#DejaVuSans-65"/>
      <use x="68.408203" xlink:href="#DejaVuSans-110"/>
      <use x="131.787109" xlink:href="#DejaVuSans-122"/>
      <use x="184.277344" xlink:href="#DejaVuSans-97"/>
      <use x="245.556641" xlink:href="#DejaVuSans-104"/>
      <use x="308.935547" xlink:href="#DejaVuSans-108"/>
      <use x="336.71875" xlink:href="#DejaVuSans-32"/>
      <use x="368.505859" xlink:href="#DejaVuSans-118"/>
      <use x="427.685547" xlink:href="#DejaVuSans-111"/>
      <use x="488.867188" xlink:href="#DejaVuSans-110"/>
      <use x="552.246094" xlink:href="#DejaVuSans-32"/>
      <use x="584.033203" xlink:href="#DejaVuSans-70"/>
      <use x="632.427734" xlink:href="#DejaVuSans-228"/>
      <use x="693.707031" xlink:href="#DejaVuSans-108"/>
      <use x="721.490234" xlink:href="#DejaVuSans-108"/>
      <use x="749.273438" xlink:href="#DejaVuSans-101"/>
      <use x="810.796875" xlink:href="#DejaVuSans-110"/>
     </g>
    </g>
   </g>
   <g id="line2d_33">
    <path clip-path="url(#p924f9c38fd)" d="M 113.626023 481.165764 
L 185.072886 481.165764 
L 194.599134 479.460212 
L 199.362258 479.033824 
L 204.125383 479.033824 
L 208.888507 478.607436 
L 218.414755 478.607436 
L 223.177879 476.049108 
L 227.941004 471.358841 
L 232.704128 463.683857 
L 237.467252 453.450545 
L 242.230376 438.100578 
L 246.9935 438.100578 
L 256.519749 430.851982 
L 261.282873 417.207567 
L 266.045997 400.152048 
L 270.809121 385.654856 
L 275.572246 366.041009 
L 289.861618 346.427162 
L 294.624742 324.681375 
L 299.387867 316.580003 
L 304.150991 305.920304 
L 308.914115 305.493916 
L 327.966612 286.306457 
L 332.729736 275.646757 
L 337.49286 275.646757 
L 342.255984 270.956489 
L 347.019109 270.956489 
L 356.545357 266.692609 
L 361.308481 259.017626 
L 366.071605 252.621806 
L 370.83473 248.784314 
L 375.597854 245.37321 
L 380.360978 243.667658 
L 394.650351 243.667658 
L 399.413475 235.139899 
L 404.176599 233.860735 
L 423.229096 231.302407 
L 427.99222 225.759363 
L 432.755344 225.759363 
L 437.518468 219.789931 
L 466.097214 219.789931 
L 470.860338 219.363543 
L 475.623462 218.08438 
L 480.386586 217.231604 
L 494.675959 217.231604 
L 499.439083 215.526052 
L 508.965331 215.099664 
L 513.728456 212.114948 
L 523.254704 212.114948 
L 528.017828 209.55662 
L 537.544077 204.866352 
L 542.307201 202.734412 
L 561.359698 198.470532 
L 566.122822 190.795549 
L 570.885946 190.369161 
L 575.64907 188.237221 
L 580.412194 186.958057 
L 589.938443 186.958057 
L 594.701567 186.105281 
L 599.464691 185.678893 
L 608.99094 185.678893 
L 613.754064 184.399729 
L 623.280312 184.399729 
L 632.80656 180.988625 
L 642.332809 179.709461 
L 656.622181 179.709461 
L 661.385306 178.856685 
L 666.14843 178.430297 
L 670.911554 178.430297 
L 680.437802 177.151133 
L 689.964051 177.151133 
L 694.727175 176.298357 
L 704.253423 176.298357 
L 713.779672 175.445581 
L 728.069044 174.592805 
L 775.700286 174.592805 
L 789.989659 174.166417 
L 794.752783 173.313641 
L 809.042156 173.313641 
L 823.331528 172.460865 
L 832.857777 171.60809 
L 837.620901 170.755314 
L 842.384025 170.328926 
L 890.015267 164.359494 
L 894.778391 157.963674 
L 904.30464 154.126182 
L 923.357137 149.009527 
L 928.120261 141.334543 
L 932.883385 135.365111 
L 937.646509 131.954007 
L 942.409633 128.116515 
L 956.699006 121.294308 
L 961.46213 115.751264 
L 966.225254 114.4721 
L 970.988379 114.045712 
L 975.751503 112.766548 
L 990.040875 111.487384 
L 994.804 106.370728 
L 1004.330248 103.8124 
L 1009.093372 101.680461 
L 1023.382745 99.974909 
L 1028.145869 95.711029 
L 1032.908993 94.005477 
L 1037.672117 90.594373 
L 1042.435242 90.594373 
L 1056.724614 89.315209 
L 1061.487738 87.609657 
L 1066.250863 87.183269 
L 1075.777111 83.772165 
L 1090.066484 82.493001 
L 1094.829608 77.802734 
L 1099.592732 76.949958 
L 1104.355856 74.39163 
L 1109.11898 73.538854 
L 1123.408353 70.554138 
L 1128.171477 69.701362 
L 1128.171477 69.701362 
" style="fill:none;stroke:#dbcd00;stroke-linecap:square;stroke-width:2;"/>
    <defs>
     <path d="M 0 1.5 
C 0.397805 1.5 0.77937 1.341951 1.06066 1.06066 
C 1.341951 0.77937 1.5 0.397805 1.5 0 
C 1.5 -0.397805 1.341951 -0.77937 1.06066 -1.06066 
C 0.77937 -1.341951 0.397805 -1.5 0 -1.5 
C -0.397805 -1.5 -0.77937 -1.341951 -1.06066 -1.06066 
C -1.341951 -0.77937 -1.5 -0.397805 -1.5 0 
C -1.5 0.397805 -1.341951 0.77937 -1.06066 1.06066 
C -0.77937 1.341951 -0.397805 1.5 0 1.5 
z
" id="m627fad1c06" style="stroke:#dbcd00;"/>
    </defs>
    <g clip-path="url(#p924f9c38fd)">
     <use style="fill:#dbcd00;stroke:#dbcd00;" x="113.626023" xlink:href="#m627fad1c06" y="481.165764"/>
     <use style="fill:#dbcd00;stroke:#dbcd00;" x="127.915395" xlink:href="#m627fad1c06" y="481.165764"/>
     <use style="fill:#dbcd00;stroke:#dbcd00;" x="137.441644" xlink:href="#m627fad1c06" y="481.165764"/>
     <use style="fill:#dbcd00;stroke:#dbcd00;" x="156.494141" xlink:href="#m627fad1c06" y="481.165764"/>
     <use style="fill:#dbcd00;stroke:#dbcd00;" x="161.257265" xlink:href="#m627fad1c06" y="481.165764"/>
     <use style="fill:#dbcd00;stroke:#dbcd00;" x="166.020389" xlink:href="#m627fad1c06" y="481.165764"/>
     <use style="fill:#dbcd00;stroke:#dbcd00;" x="170.783513" xlink:href="#m627fad1c06" y="481.165764"/>
     <use style="fill:#dbcd00;stroke:#dbcd00;" x="175.546637" xlink:href="#m627fad1c06" y="481.165764"/>
     <use style="fill:#dbcd00;stroke:#dbcd00;" x="180.309762" xlink:href="#m627fad1c06" y="481.165764"/>
     <use style="fill:#dbcd00;stroke:#dbcd00;" x="185.072886" xlink:href="#m627fad1c06" y="481.165764"/>
     <use style="fill:#dbcd00;stroke:#dbcd00;" x="189.83601" xlink:href="#m627fad1c06" y="480.312988"/>
     <use style="fill:#dbcd00;stroke:#dbcd00;" x="194.599134" xlink:href="#m627fad1c06" y="479.460212"/>
     <use style="fill:#dbcd00;stroke:#dbcd00;" x="199.362258" xlink:href="#m627fad1c06" y="479.033824"/>
     <use style="fill:#dbcd00;stroke:#dbcd00;" x="204.125383" xlink:href="#m627fad1c06" y="479.033824"/>
     <use style="fill:#dbcd00;stroke:#dbcd00;" x="208.888507" xlink:href="#m627fad1c06" y="478.607436"/>
     <use style="fill:#dbcd00;stroke:#dbcd00;" x="213.651631" xlink:href="#m627fad1c06" y="478.607436"/>
     <use style="fill:#dbcd00;stroke:#dbcd00;" x="218.414755" xlink:href="#m627fad1c06" y="478.607436"/>
     <use style="fill:#dbcd00;stroke:#dbcd00;" x="223.177879" xlink:href="#m627fad1c06" y="476.049108"/>
     <use style="fill:#dbcd00;stroke:#dbcd00;" x="227.941004" xlink:href="#m627fad1c06" y="471.358841"/>
     <use style="fill:#dbcd00;stroke:#dbcd00;" x="232.704128" xlink:href="#m627fad1c06" y="463.683857"/>
     <use style="fill:#dbcd00;stroke:#dbcd00;" x="237.467252" xlink:href="#m627fad1c06" y="453.450545"/>
     <use style="fill:#dbcd00;stroke:#dbcd00;" x="242.230376" xlink:href="#m627fad1c06" y="438.100578"/>
     <use style="fill:#dbcd00;stroke:#dbcd00;" x="246.9935" xlink:href="#m627fad1c06" y="438.100578"/>
     <use style="fill:#dbcd00;stroke:#dbcd00;" x="256.519749" xlink:href="#m627fad1c06" y="430.851982"/>
     <use style="fill:#dbcd00;stroke:#dbcd00;" x="261.282873" xlink:href="#m627fad1c06" y="417.207567"/>
     <use style="fill:#dbcd00;stroke:#dbcd00;" x="266.045997" xlink:href="#m627fad1c06" y="400.152048"/>
     <use style="fill:#dbcd00;stroke:#dbcd00;" x="270.809121" xlink:href="#m627fad1c06" y="385.654856"/>
     <use style="fill:#dbcd00;stroke:#dbcd00;" x="275.572246" xlink:href="#m627fad1c06" y="366.041009"/>
     <use style="fill:#dbcd00;stroke:#dbcd00;" x="289.861618" xlink:href="#m627fad1c06" y="346.427162"/>
     <use style="fill:#dbcd00;stroke:#dbcd00;" x="294.624742" xlink:href="#m627fad1c06" y="324.681375"/>
     <use style="fill:#dbcd00;stroke:#dbcd00;" x="299.387867" xlink:href="#m627fad1c06" y="316.580003"/>
     <use style="fill:#dbcd00;stroke:#dbcd00;" x="304.150991" xlink:href="#m627fad1c06" y="305.920304"/>
     <use style="fill:#dbcd00;stroke:#dbcd00;" x="308.914115" xlink:href="#m627fad1c06" y="305.493916"/>
     <use style="fill:#dbcd00;stroke:#dbcd00;" x="327.966612" xlink:href="#m627fad1c06" y="286.306457"/>
     <use style="fill:#dbcd00;stroke:#dbcd00;" x="332.729736" xlink:href="#m627fad1c06" y="275.646757"/>
     <use style="fill:#dbcd00;stroke:#dbcd00;" x="337.49286" xlink:href="#m627fad1c06" y="275.646757"/>
     <use style="fill:#dbcd00;stroke:#dbcd00;" x="342.255984" xlink:href="#m627fad1c06" y="270.956489"/>
     <use style="fill:#dbcd00;stroke:#dbcd00;" x="347.019109" xlink:href="#m627fad1c06" y="270.956489"/>
     <use style="fill:#dbcd00;stroke:#dbcd00;" x="356.545357" xlink:href="#m627fad1c06" y="266.692609"/>
     <use style="fill:#dbcd00;stroke:#dbcd00;" x="361.308481" xlink:href="#m627fad1c06" y="259.017626"/>
     <use style="fill:#dbcd00;stroke:#dbcd00;" x="366.071605" xlink:href="#m627fad1c06" y="252.621806"/>
     <use style="fill:#dbcd00;stroke:#dbcd00;" x="370.83473" xlink:href="#m627fad1c06" y="248.784314"/>
     <use style="fill:#dbcd00;stroke:#dbcd00;" x="375.597854" xlink:href="#m627fad1c06" y="245.37321"/>
     <use style="fill:#dbcd00;stroke:#dbcd00;" x="380.360978" xlink:href="#m627fad1c06" y="243.667658"/>
     <use style="fill:#dbcd00;stroke:#dbcd00;" x="389.887226" xlink:href="#m627fad1c06" y="243.667658"/>
     <use style="fill:#dbcd00;stroke:#dbcd00;" x="394.650351" xlink:href="#m627fad1c06" y="243.667658"/>
     <use style="fill:#dbcd00;stroke:#dbcd00;" x="399.413475" xlink:href="#m627fad1c06" y="235.139899"/>
     <use style="fill:#dbcd00;stroke:#dbcd00;" x="404.176599" xlink:href="#m627fad1c06" y="233.860735"/>
     <use style="fill:#dbcd00;stroke:#dbcd00;" x="413.702847" xlink:href="#m627fad1c06" y="232.581571"/>
     <use style="fill:#dbcd00;stroke:#dbcd00;" x="423.229096" xlink:href="#m627fad1c06" y="231.302407"/>
     <use style="fill:#dbcd00;stroke:#dbcd00;" x="427.99222" xlink:href="#m627fad1c06" y="225.759363"/>
     <use style="fill:#dbcd00;stroke:#dbcd00;" x="432.755344" xlink:href="#m627fad1c06" y="225.759363"/>
     <use style="fill:#dbcd00;stroke:#dbcd00;" x="437.518468" xlink:href="#m627fad1c06" y="219.789931"/>
     <use style="fill:#dbcd00;stroke:#dbcd00;" x="442.281593" xlink:href="#m627fad1c06" y="219.789931"/>
     <use style="fill:#dbcd00;stroke:#dbcd00;" x="447.044717" xlink:href="#m627fad1c06" y="219.789931"/>
     <use style="fill:#dbcd00;stroke:#dbcd00;" x="456.570965" xlink:href="#m627fad1c06" y="219.789931"/>
     <use style="fill:#dbcd00;stroke:#dbcd00;" x="461.334089" xlink:href="#m627fad1c06" y="219.789931"/>
     <use style="fill:#dbcd00;stroke:#dbcd00;" x="466.097214" xlink:href="#m627fad1c06" y="219.789931"/>
     <use style="fill:#dbcd00;stroke:#dbcd00;" x="470.860338" xlink:href="#m627fad1c06" y="219.363543"/>
     <use style="fill:#dbcd00;stroke:#dbcd00;" x="475.623462" xlink:href="#m627fad1c06" y="218.08438"/>
     <use style="fill:#dbcd00;stroke:#dbcd00;" x="480.386586" xlink:href="#m627fad1c06" y="217.231604"/>
     <use style="fill:#dbcd00;stroke:#dbcd00;" x="489.912835" xlink:href="#m627fad1c06" y="217.231604"/>
     <use style="fill:#dbcd00;stroke:#dbcd00;" x="494.675959" xlink:href="#m627fad1c06" y="217.231604"/>
     <use style="fill:#dbcd00;stroke:#dbcd00;" x="499.439083" xlink:href="#m627fad1c06" y="215.526052"/>
     <use style="fill:#dbcd00;stroke:#dbcd00;" x="508.965331" xlink:href="#m627fad1c06" y="215.099664"/>
     <use style="fill:#dbcd00;stroke:#dbcd00;" x="513.728456" xlink:href="#m627fad1c06" y="212.114948"/>
     <use style="fill:#dbcd00;stroke:#dbcd00;" x="523.254704" xlink:href="#m627fad1c06" y="212.114948"/>
     <use style="fill:#dbcd00;stroke:#dbcd00;" x="528.017828" xlink:href="#m627fad1c06" y="209.55662"/>
     <use style="fill:#dbcd00;stroke:#dbcd00;" x="537.544077" xlink:href="#m627fad1c06" y="204.866352"/>
     <use style="fill:#dbcd00;stroke:#dbcd00;" x="542.307201" xlink:href="#m627fad1c06" y="202.734412"/>
     <use style="fill:#dbcd00;stroke:#dbcd00;" x="561.359698" xlink:href="#m627fad1c06" y="198.470532"/>
     <use style="fill:#dbcd00;stroke:#dbcd00;" x="566.122822" xlink:href="#m627fad1c06" y="190.795549"/>
     <use style="fill:#dbcd00;stroke:#dbcd00;" x="570.885946" xlink:href="#m627fad1c06" y="190.369161"/>
     <use style="fill:#dbcd00;stroke:#dbcd00;" x="575.64907" xlink:href="#m627fad1c06" y="188.237221"/>
     <use style="fill:#dbcd00;stroke:#dbcd00;" x="580.412194" xlink:href="#m627fad1c06" y="186.958057"/>
     <use style="fill:#dbcd00;stroke:#dbcd00;" x="589.938443" xlink:href="#m627fad1c06" y="186.958057"/>
     <use style="fill:#dbcd00;stroke:#dbcd00;" x="594.701567" xlink:href="#m627fad1c06" y="186.105281"/>
     <use style="fill:#dbcd00;stroke:#dbcd00;" x="599.464691" xlink:href="#m627fad1c06" y="185.678893"/>
     <use style="fill:#dbcd00;stroke:#dbcd00;" x="608.99094" xlink:href="#m627fad1c06" y="185.678893"/>
     <use style="fill:#dbcd00;stroke:#dbcd00;" x="613.754064" xlink:href="#m627fad1c06" y="184.399729"/>
     <use style="fill:#dbcd00;stroke:#dbcd00;" x="623.280312" xlink:href="#m627fad1c06" y="184.399729"/>
     <use style="fill:#dbcd00;stroke:#dbcd00;" x="632.80656" xlink:href="#m627fad1c06" y="180.988625"/>
     <use style="fill:#dbcd00;stroke:#dbcd00;" x="642.332809" xlink:href="#m627fad1c06" y="179.709461"/>
     <use style="fill:#dbcd00;stroke:#dbcd00;" x="647.095933" xlink:href="#m627fad1c06" y="179.709461"/>
     <use style="fill:#dbcd00;stroke:#dbcd00;" x="656.622181" xlink:href="#m627fad1c06" y="179.709461"/>
     <use style="fill:#dbcd00;stroke:#dbcd00;" x="661.385306" xlink:href="#m627fad1c06" y="178.856685"/>
     <use style="fill:#dbcd00;stroke:#dbcd00;" x="666.14843" xlink:href="#m627fad1c06" y="178.430297"/>
     <use style="fill:#dbcd00;stroke:#dbcd00;" x="670.911554" xlink:href="#m627fad1c06" y="178.430297"/>
     <use style="fill:#dbcd00;stroke:#dbcd00;" x="680.437802" xlink:href="#m627fad1c06" y="177.151133"/>
     <use style="fill:#dbcd00;stroke:#dbcd00;" x="689.964051" xlink:href="#m627fad1c06" y="177.151133"/>
     <use style="fill:#dbcd00;stroke:#dbcd00;" x="694.727175" xlink:href="#m627fad1c06" y="176.298357"/>
     <use style="fill:#dbcd00;stroke:#dbcd00;" x="699.490299" xlink:href="#m627fad1c06" y="176.298357"/>
     <use style="fill:#dbcd00;stroke:#dbcd00;" x="704.253423" xlink:href="#m627fad1c06" y="176.298357"/>
     <use style="fill:#dbcd00;stroke:#dbcd00;" x="709.016548" xlink:href="#m627fad1c06" y="175.871969"/>
     <use style="fill:#dbcd00;stroke:#dbcd00;" x="713.779672" xlink:href="#m627fad1c06" y="175.445581"/>
     <use style="fill:#dbcd00;stroke:#dbcd00;" x="728.069044" xlink:href="#m627fad1c06" y="174.592805"/>
     <use style="fill:#dbcd00;stroke:#dbcd00;" x="732.832169" xlink:href="#m627fad1c06" y="174.592805"/>
     <use style="fill:#dbcd00;stroke:#dbcd00;" x="737.595293" xlink:href="#m627fad1c06" y="174.592805"/>
     <use style="fill:#dbcd00;stroke:#dbcd00;" x="742.358417" xlink:href="#m627fad1c06" y="174.592805"/>
     <use style="fill:#dbcd00;stroke:#dbcd00;" x="756.64779" xlink:href="#m627fad1c06" y="174.592805"/>
     <use style="fill:#dbcd00;stroke:#dbcd00;" x="761.410914" xlink:href="#m627fad1c06" y="174.592805"/>
     <use style="fill:#dbcd00;stroke:#dbcd00;" x="766.174038" xlink:href="#m627fad1c06" y="174.592805"/>
     <use style="fill:#dbcd00;stroke:#dbcd00;" x="770.937162" xlink:href="#m627fad1c06" y="174.592805"/>
     <use style="fill:#dbcd00;stroke:#dbcd00;" x="775.700286" xlink:href="#m627fad1c06" y="174.592805"/>
     <use style="fill:#dbcd00;stroke:#dbcd00;" x="789.989659" xlink:href="#m627fad1c06" y="174.166417"/>
     <use style="fill:#dbcd00;stroke:#dbcd00;" x="794.752783" xlink:href="#m627fad1c06" y="173.313641"/>
     <use style="fill:#dbcd00;stroke:#dbcd00;" x="799.515907" xlink:href="#m627fad1c06" y="173.313641"/>
     <use style="fill:#dbcd00;stroke:#dbcd00;" x="804.279032" xlink:href="#m627fad1c06" y="173.313641"/>
     <use style="fill:#dbcd00;stroke:#dbcd00;" x="809.042156" xlink:href="#m627fad1c06" y="173.313641"/>
     <use style="fill:#dbcd00;stroke:#dbcd00;" x="823.331528" xlink:href="#m627fad1c06" y="172.460865"/>
     <use style="fill:#dbcd00;stroke:#dbcd00;" x="828.094653" xlink:href="#m627fad1c06" y="172.034478"/>
     <use style="fill:#dbcd00;stroke:#dbcd00;" x="832.857777" xlink:href="#m627fad1c06" y="171.60809"/>
     <use style="fill:#dbcd00;stroke:#dbcd00;" x="837.620901" xlink:href="#m627fad1c06" y="170.755314"/>
     <use style="fill:#dbcd00;stroke:#dbcd00;" x="842.384025" xlink:href="#m627fad1c06" y="170.328926"/>
     <use style="fill:#dbcd00;stroke:#dbcd00;" x="890.015267" xlink:href="#m627fad1c06" y="164.359494"/>
     <use style="fill:#dbcd00;stroke:#dbcd00;" x="894.778391" xlink:href="#m627fad1c06" y="157.963674"/>
     <use style="fill:#dbcd00;stroke:#dbcd00;" x="904.30464" xlink:href="#m627fad1c06" y="154.126182"/>
     <use style="fill:#dbcd00;stroke:#dbcd00;" x="909.067764" xlink:href="#m627fad1c06" y="152.847018"/>
     <use style="fill:#dbcd00;stroke:#dbcd00;" x="923.357137" xlink:href="#m627fad1c06" y="149.009527"/>
     <use style="fill:#dbcd00;stroke:#dbcd00;" x="928.120261" xlink:href="#m627fad1c06" y="141.334543"/>
     <use style="fill:#dbcd00;stroke:#dbcd00;" x="932.883385" xlink:href="#m627fad1c06" y="135.365111"/>
     <use style="fill:#dbcd00;stroke:#dbcd00;" x="937.646509" xlink:href="#m627fad1c06" y="131.954007"/>
     <use style="fill:#dbcd00;stroke:#dbcd00;" x="942.409633" xlink:href="#m627fad1c06" y="128.116515"/>
     <use style="fill:#dbcd00;stroke:#dbcd00;" x="956.699006" xlink:href="#m627fad1c06" y="121.294308"/>
     <use style="fill:#dbcd00;stroke:#dbcd00;" x="961.46213" xlink:href="#m627fad1c06" y="115.751264"/>
     <use style="fill:#dbcd00;stroke:#dbcd00;" x="966.225254" xlink:href="#m627fad1c06" y="114.4721"/>
     <use style="fill:#dbcd00;stroke:#dbcd00;" x="970.988379" xlink:href="#m627fad1c06" y="114.045712"/>
     <use style="fill:#dbcd00;stroke:#dbcd00;" x="975.751503" xlink:href="#m627fad1c06" y="112.766548"/>
     <use style="fill:#dbcd00;stroke:#dbcd00;" x="990.040875" xlink:href="#m627fad1c06" y="111.487384"/>
     <use style="fill:#dbcd00;stroke:#dbcd00;" x="994.804" xlink:href="#m627fad1c06" y="106.370728"/>
     <use style="fill:#dbcd00;stroke:#dbcd00;" x="999.567124" xlink:href="#m627fad1c06" y="105.091564"/>
     <use style="fill:#dbcd00;stroke:#dbcd00;" x="1004.330248" xlink:href="#m627fad1c06" y="103.8124"/>
     <use style="fill:#dbcd00;stroke:#dbcd00;" x="1009.093372" xlink:href="#m627fad1c06" y="101.680461"/>
     <use style="fill:#dbcd00;stroke:#dbcd00;" x="1023.382745" xlink:href="#m627fad1c06" y="99.974909"/>
     <use style="fill:#dbcd00;stroke:#dbcd00;" x="1028.145869" xlink:href="#m627fad1c06" y="95.711029"/>
     <use style="fill:#dbcd00;stroke:#dbcd00;" x="1032.908993" xlink:href="#m627fad1c06" y="94.005477"/>
     <use style="fill:#dbcd00;stroke:#dbcd00;" x="1037.672117" xlink:href="#m627fad1c06" y="90.594373"/>
     <use style="fill:#dbcd00;stroke:#dbcd00;" x="1042.435242" xlink:href="#m627fad1c06" y="90.594373"/>
     <use style="fill:#dbcd00;stroke:#dbcd00;" x="1056.724614" xlink:href="#m627fad1c06" y="89.315209"/>
     <use style="fill:#dbcd00;stroke:#dbcd00;" x="1061.487738" xlink:href="#m627fad1c06" y="87.609657"/>
     <use style="fill:#dbcd00;stroke:#dbcd00;" x="1066.250863" xlink:href="#m627fad1c06" y="87.183269"/>
     <use style="fill:#dbcd00;stroke:#dbcd00;" x="1071.013987" xlink:href="#m627fad1c06" y="85.477717"/>
     <use style="fill:#dbcd00;stroke:#dbcd00;" x="1075.777111" xlink:href="#m627fad1c06" y="83.772165"/>
     <use style="fill:#dbcd00;stroke:#dbcd00;" x="1090.066484" xlink:href="#m627fad1c06" y="82.493001"/>
     <use style="fill:#dbcd00;stroke:#dbcd00;" x="1094.829608" xlink:href="#m627fad1c06" y="77.802734"/>
     <use style="fill:#dbcd00;stroke:#dbcd00;" x="1099.592732" xlink:href="#m627fad1c06" y="76.949958"/>
     <use style="fill:#dbcd00;stroke:#dbcd00;" x="1104.355856" xlink:href="#m627fad1c06" y="74.39163"/>
     <use style="fill:#dbcd00;stroke:#dbcd00;" x="1109.11898" xlink:href="#m627fad1c06" y="73.538854"/>
     <use style="fill:#dbcd00;stroke:#dbcd00;" x="1123.408353" xlink:href="#m627fad1c06" y="70.554138"/>
     <use style="fill:#dbcd00;stroke:#dbcd00;" x="1128.171477" xlink:href="#m627fad1c06" y="69.701362"/>
    </g>
   </g>
   <g id="line2d_34">
    <path clip-path="url(#p924f9c38fd)" d="M 113.626023 480.739376 
L 127.915395 480.312988 
L 137.441644 479.460212 
L 156.494141 479.033824 
L 161.257265 478.607436 
L 166.020389 477.75466 
L 170.783513 474.343557 
L 175.546637 468.800513 
L 185.072886 456.861649 
L 189.83601 443.643622 
L 194.599134 438.953354 
L 199.362258 425.735327 
L 204.125383 409.532583 
L 208.888507 390.345124 
L 213.651631 380.111813 
L 218.414755 370.304889 
L 223.177879 367.320173 
L 227.941004 360.924353 
L 232.704128 348.559102 
L 237.467252 351.11743 
L 242.230376 348.132714 
L 246.9935 336.19385 
L 256.519749 332.782747 
L 261.282873 338.32579 
L 266.045997 348.559102 
L 270.809121 354.954922 
L 275.572246 368.172949 
L 289.861618 367.320173 
L 294.624742 385.654856 
L 304.150991 401.004824 
L 308.914115 401.431212 
L 327.966612 414.222851 
L 332.729736 424.456163 
L 337.49286 424.456163 
L 342.255984 427.867267 
L 347.019109 425.308939 
L 356.545357 438.953354 
L 361.308481 447.054726 
L 366.071605 453.450545 
L 370.83473 454.729709 
L 375.597854 457.288037 
L 380.360978 457.714425 
L 389.887226 457.288037 
L 394.650351 456.435261 
L 399.413475 464.536633 
L 404.176599 464.110245 
L 413.702847 465.815797 
L 423.229096 467.094961 
L 427.99222 472.211617 
L 432.755344 472.211617 
L 437.518468 476.901884 
L 442.281593 476.049108 
L 447.044717 474.343557 
L 456.570965 473.490781 
L 461.334089 472.211617 
L 470.860338 471.358841 
L 475.623462 464.110245 
L 480.386586 464.110245 
L 489.912835 461.978305 
L 494.675959 457.714425 
L 508.965331 455.156097 
L 513.728456 458.140813 
L 523.254704 454.729709 
L 528.017828 457.288037 
L 537.544077 461.551917 
L 542.307201 463.257469 
L 561.359698 466.242185 
L 566.122822 471.358841 
L 570.885946 471.358841 
L 575.64907 470.079677 
L 580.412194 471.358841 
L 589.938443 471.358841 
L 594.701567 472.211617 
L 599.464691 472.638005 
L 608.99094 471.785229 
L 613.754064 473.064393 
L 623.280312 472.638005 
L 632.80656 476.049108 
L 642.332809 476.475496 
L 656.622181 476.475496 
L 661.385306 477.328272 
L 666.14843 477.75466 
L 670.911554 477.328272 
L 680.437802 478.607436 
L 689.964051 478.607436 
L 694.727175 479.460212 
L 709.016548 479.460212 
L 713.779672 479.8866 
L 728.069044 480.739376 
L 742.358417 480.739376 
L 756.64779 480.312988 
L 761.410914 479.460212 
L 766.174038 479.460212 
L 775.700286 478.607436 
L 789.989659 478.607436 
L 794.752783 479.460212 
L 804.279032 477.75466 
L 809.042156 477.75466 
L 823.331528 474.769945 
L 828.094653 474.343557 
L 832.857777 474.769945 
L 837.620901 473.917169 
L 842.384025 473.490781 
L 890.015267 451.744994 
L 894.778391 454.729709 
L 904.30464 445.775562 
L 909.067764 445.349174 
L 923.357137 444.496398 
L 928.120261 451.318606 
L 932.883385 455.582485 
L 937.646509 458.993589 
L 942.409633 456.861649 
L 956.699006 461.125529 
L 961.46213 465.815797 
L 970.988379 464.110245 
L 975.751503 464.110245 
L 990.040875 461.551917 
L 994.804 464.963021 
L 999.567124 465.815797 
L 1009.093372 463.257469 
L 1023.382745 464.536633 
L 1028.145869 468.374125 
L 1037.672117 471.785229 
L 1042.435242 470.079677 
L 1056.724614 466.242185 
L 1061.487738 464.536633 
L 1066.250863 464.963021 
L 1071.013987 466.668573 
L 1075.777111 461.978305 
L 1090.066484 461.551917 
L 1094.829608 463.683857 
L 1099.592732 461.551917 
L 1104.355856 462.831081 
L 1109.11898 457.288037 
L 1123.408353 449.613054 
L 1128.171477 447.907502 
L 1128.171477 447.907502 
" style="fill:none;stroke:#2792cb;stroke-linecap:square;stroke-width:2;"/>
    <defs>
     <path d="M 0 1.5 
C 0.397805 1.5 0.77937 1.341951 1.06066 1.06066 
C 1.341951 0.77937 1.5 0.397805 1.5 0 
C 1.5 -0.397805 1.341951 -0.77937 1.06066 -1.06066 
C 0.77937 -1.341951 0.397805 -1.5 0 -1.5 
C -0.397805 -1.5 -0.77937 -1.341951 -1.06066 -1.06066 
C -1.341951 -0.77937 -1.5 -0.397805 -1.5 0 
C -1.5 0.397805 -1.341951 0.77937 -1.06066 1.06066 
C -0.77937 1.341951 -0.397805 1.5 0 1.5 
z
" id="m2cc02e4027" style="stroke:#2792cb;"/>
    </defs>
    <g clip-path="url(#p924f9c38fd)">
     <use style="fill:#2792cb;stroke:#2792cb;" x="113.626023" xlink:href="#m2cc02e4027" y="480.739376"/>
     <use style="fill:#2792cb;stroke:#2792cb;" x="127.915395" xlink:href="#m2cc02e4027" y="480.312988"/>
     <use style="fill:#2792cb;stroke:#2792cb;" x="137.441644" xlink:href="#m2cc02e4027" y="479.460212"/>
     <use style="fill:#2792cb;stroke:#2792cb;" x="156.494141" xlink:href="#m2cc02e4027" y="479.033824"/>
     <use style="fill:#2792cb;stroke:#2792cb;" x="161.257265" xlink:href="#m2cc02e4027" y="478.607436"/>
     <use style="fill:#2792cb;stroke:#2792cb;" x="166.020389" xlink:href="#m2cc02e4027" y="477.75466"/>
     <use style="fill:#2792cb;stroke:#2792cb;" x="170.783513" xlink:href="#m2cc02e4027" y="474.343557"/>
     <use style="fill:#2792cb;stroke:#2792cb;" x="175.546637" xlink:href="#m2cc02e4027" y="468.800513"/>
     <use style="fill:#2792cb;stroke:#2792cb;" x="180.309762" xlink:href="#m2cc02e4027" y="462.831081"/>
     <use style="fill:#2792cb;stroke:#2792cb;" x="185.072886" xlink:href="#m2cc02e4027" y="456.861649"/>
     <use style="fill:#2792cb;stroke:#2792cb;" x="189.83601" xlink:href="#m2cc02e4027" y="443.643622"/>
     <use style="fill:#2792cb;stroke:#2792cb;" x="194.599134" xlink:href="#m2cc02e4027" y="438.953354"/>
     <use style="fill:#2792cb;stroke:#2792cb;" x="199.362258" xlink:href="#m2cc02e4027" y="425.735327"/>
     <use style="fill:#2792cb;stroke:#2792cb;" x="204.125383" xlink:href="#m2cc02e4027" y="409.532583"/>
     <use style="fill:#2792cb;stroke:#2792cb;" x="208.888507" xlink:href="#m2cc02e4027" y="390.345124"/>
     <use style="fill:#2792cb;stroke:#2792cb;" x="213.651631" xlink:href="#m2cc02e4027" y="380.111813"/>
     <use style="fill:#2792cb;stroke:#2792cb;" x="218.414755" xlink:href="#m2cc02e4027" y="370.304889"/>
     <use style="fill:#2792cb;stroke:#2792cb;" x="223.177879" xlink:href="#m2cc02e4027" y="367.320173"/>
     <use style="fill:#2792cb;stroke:#2792cb;" x="227.941004" xlink:href="#m2cc02e4027" y="360.924353"/>
     <use style="fill:#2792cb;stroke:#2792cb;" x="232.704128" xlink:href="#m2cc02e4027" y="348.559102"/>
     <use style="fill:#2792cb;stroke:#2792cb;" x="237.467252" xlink:href="#m2cc02e4027" y="351.11743"/>
     <use style="fill:#2792cb;stroke:#2792cb;" x="242.230376" xlink:href="#m2cc02e4027" y="348.132714"/>
     <use style="fill:#2792cb;stroke:#2792cb;" x="246.9935" xlink:href="#m2cc02e4027" y="336.19385"/>
     <use style="fill:#2792cb;stroke:#2792cb;" x="256.519749" xlink:href="#m2cc02e4027" y="332.782747"/>
     <use style="fill:#2792cb;stroke:#2792cb;" x="261.282873" xlink:href="#m2cc02e4027" y="338.32579"/>
     <use style="fill:#2792cb;stroke:#2792cb;" x="266.045997" xlink:href="#m2cc02e4027" y="348.559102"/>
     <use style="fill:#2792cb;stroke:#2792cb;" x="270.809121" xlink:href="#m2cc02e4027" y="354.954922"/>
     <use style="fill:#2792cb;stroke:#2792cb;" x="275.572246" xlink:href="#m2cc02e4027" y="368.172949"/>
     <use style="fill:#2792cb;stroke:#2792cb;" x="289.861618" xlink:href="#m2cc02e4027" y="367.320173"/>
     <use style="fill:#2792cb;stroke:#2792cb;" x="294.624742" xlink:href="#m2cc02e4027" y="385.654856"/>
     <use style="fill:#2792cb;stroke:#2792cb;" x="299.387867" xlink:href="#m2cc02e4027" y="393.32984"/>
     <use style="fill:#2792cb;stroke:#2792cb;" x="304.150991" xlink:href="#m2cc02e4027" y="401.004824"/>
     <use style="fill:#2792cb;stroke:#2792cb;" x="308.914115" xlink:href="#m2cc02e4027" y="401.431212"/>
     <use style="fill:#2792cb;stroke:#2792cb;" x="327.966612" xlink:href="#m2cc02e4027" y="414.222851"/>
     <use style="fill:#2792cb;stroke:#2792cb;" x="332.729736" xlink:href="#m2cc02e4027" y="424.456163"/>
     <use style="fill:#2792cb;stroke:#2792cb;" x="337.49286" xlink:href="#m2cc02e4027" y="424.456163"/>
     <use style="fill:#2792cb;stroke:#2792cb;" x="342.255984" xlink:href="#m2cc02e4027" y="427.867267"/>
     <use style="fill:#2792cb;stroke:#2792cb;" x="347.019109" xlink:href="#m2cc02e4027" y="425.308939"/>
     <use style="fill:#2792cb;stroke:#2792cb;" x="356.545357" xlink:href="#m2cc02e4027" y="438.953354"/>
     <use style="fill:#2792cb;stroke:#2792cb;" x="361.308481" xlink:href="#m2cc02e4027" y="447.054726"/>
     <use style="fill:#2792cb;stroke:#2792cb;" x="366.071605" xlink:href="#m2cc02e4027" y="453.450545"/>
     <use style="fill:#2792cb;stroke:#2792cb;" x="370.83473" xlink:href="#m2cc02e4027" y="454.729709"/>
     <use style="fill:#2792cb;stroke:#2792cb;" x="375.597854" xlink:href="#m2cc02e4027" y="457.288037"/>
     <use style="fill:#2792cb;stroke:#2792cb;" x="380.360978" xlink:href="#m2cc02e4027" y="457.714425"/>
     <use style="fill:#2792cb;stroke:#2792cb;" x="389.887226" xlink:href="#m2cc02e4027" y="457.288037"/>
     <use style="fill:#2792cb;stroke:#2792cb;" x="394.650351" xlink:href="#m2cc02e4027" y="456.435261"/>
     <use style="fill:#2792cb;stroke:#2792cb;" x="399.413475" xlink:href="#m2cc02e4027" y="464.536633"/>
     <use style="fill:#2792cb;stroke:#2792cb;" x="404.176599" xlink:href="#m2cc02e4027" y="464.110245"/>
     <use style="fill:#2792cb;stroke:#2792cb;" x="413.702847" xlink:href="#m2cc02e4027" y="465.815797"/>
     <use style="fill:#2792cb;stroke:#2792cb;" x="423.229096" xlink:href="#m2cc02e4027" y="467.094961"/>
     <use style="fill:#2792cb;stroke:#2792cb;" x="427.99222" xlink:href="#m2cc02e4027" y="472.211617"/>
     <use style="fill:#2792cb;stroke:#2792cb;" x="432.755344" xlink:href="#m2cc02e4027" y="472.211617"/>
     <use style="fill:#2792cb;stroke:#2792cb;" x="437.518468" xlink:href="#m2cc02e4027" y="476.901884"/>
     <use style="fill:#2792cb;stroke:#2792cb;" x="442.281593" xlink:href="#m2cc02e4027" y="476.049108"/>
     <use style="fill:#2792cb;stroke:#2792cb;" x="447.044717" xlink:href="#m2cc02e4027" y="474.343557"/>
     <use style="fill:#2792cb;stroke:#2792cb;" x="456.570965" xlink:href="#m2cc02e4027" y="473.490781"/>
     <use style="fill:#2792cb;stroke:#2792cb;" x="461.334089" xlink:href="#m2cc02e4027" y="472.211617"/>
     <use style="fill:#2792cb;stroke:#2792cb;" x="466.097214" xlink:href="#m2cc02e4027" y="471.785229"/>
     <use style="fill:#2792cb;stroke:#2792cb;" x="470.860338" xlink:href="#m2cc02e4027" y="471.358841"/>
     <use style="fill:#2792cb;stroke:#2792cb;" x="475.623462" xlink:href="#m2cc02e4027" y="464.110245"/>
     <use style="fill:#2792cb;stroke:#2792cb;" x="480.386586" xlink:href="#m2cc02e4027" y="464.110245"/>
     <use style="fill:#2792cb;stroke:#2792cb;" x="489.912835" xlink:href="#m2cc02e4027" y="461.978305"/>
     <use style="fill:#2792cb;stroke:#2792cb;" x="494.675959" xlink:href="#m2cc02e4027" y="457.714425"/>
     <use style="fill:#2792cb;stroke:#2792cb;" x="499.439083" xlink:href="#m2cc02e4027" y="456.861649"/>
     <use style="fill:#2792cb;stroke:#2792cb;" x="508.965331" xlink:href="#m2cc02e4027" y="455.156097"/>
     <use style="fill:#2792cb;stroke:#2792cb;" x="513.728456" xlink:href="#m2cc02e4027" y="458.140813"/>
     <use style="fill:#2792cb;stroke:#2792cb;" x="523.254704" xlink:href="#m2cc02e4027" y="454.729709"/>
     <use style="fill:#2792cb;stroke:#2792cb;" x="528.017828" xlink:href="#m2cc02e4027" y="457.288037"/>
     <use style="fill:#2792cb;stroke:#2792cb;" x="537.544077" xlink:href="#m2cc02e4027" y="461.551917"/>
     <use style="fill:#2792cb;stroke:#2792cb;" x="542.307201" xlink:href="#m2cc02e4027" y="463.257469"/>
     <use style="fill:#2792cb;stroke:#2792cb;" x="561.359698" xlink:href="#m2cc02e4027" y="466.242185"/>
     <use style="fill:#2792cb;stroke:#2792cb;" x="566.122822" xlink:href="#m2cc02e4027" y="471.358841"/>
     <use style="fill:#2792cb;stroke:#2792cb;" x="570.885946" xlink:href="#m2cc02e4027" y="471.358841"/>
     <use style="fill:#2792cb;stroke:#2792cb;" x="575.64907" xlink:href="#m2cc02e4027" y="470.079677"/>
     <use style="fill:#2792cb;stroke:#2792cb;" x="580.412194" xlink:href="#m2cc02e4027" y="471.358841"/>
     <use style="fill:#2792cb;stroke:#2792cb;" x="589.938443" xlink:href="#m2cc02e4027" y="471.358841"/>
     <use style="fill:#2792cb;stroke:#2792cb;" x="594.701567" xlink:href="#m2cc02e4027" y="472.211617"/>
     <use style="fill:#2792cb;stroke:#2792cb;" x="599.464691" xlink:href="#m2cc02e4027" y="472.638005"/>
     <use style="fill:#2792cb;stroke:#2792cb;" x="608.99094" xlink:href="#m2cc02e4027" y="471.785229"/>
     <use style="fill:#2792cb;stroke:#2792cb;" x="613.754064" xlink:href="#m2cc02e4027" y="473.064393"/>
     <use style="fill:#2792cb;stroke:#2792cb;" x="623.280312" xlink:href="#m2cc02e4027" y="472.638005"/>
     <use style="fill:#2792cb;stroke:#2792cb;" x="632.80656" xlink:href="#m2cc02e4027" y="476.049108"/>
     <use style="fill:#2792cb;stroke:#2792cb;" x="642.332809" xlink:href="#m2cc02e4027" y="476.475496"/>
     <use style="fill:#2792cb;stroke:#2792cb;" x="647.095933" xlink:href="#m2cc02e4027" y="476.475496"/>
     <use style="fill:#2792cb;stroke:#2792cb;" x="656.622181" xlink:href="#m2cc02e4027" y="476.475496"/>
     <use style="fill:#2792cb;stroke:#2792cb;" x="661.385306" xlink:href="#m2cc02e4027" y="477.328272"/>
     <use style="fill:#2792cb;stroke:#2792cb;" x="666.14843" xlink:href="#m2cc02e4027" y="477.75466"/>
     <use style="fill:#2792cb;stroke:#2792cb;" x="670.911554" xlink:href="#m2cc02e4027" y="477.328272"/>
     <use style="fill:#2792cb;stroke:#2792cb;" x="680.437802" xlink:href="#m2cc02e4027" y="478.607436"/>
     <use style="fill:#2792cb;stroke:#2792cb;" x="689.964051" xlink:href="#m2cc02e4027" y="478.607436"/>
     <use style="fill:#2792cb;stroke:#2792cb;" x="694.727175" xlink:href="#m2cc02e4027" y="479.460212"/>
     <use style="fill:#2792cb;stroke:#2792cb;" x="699.490299" xlink:href="#m2cc02e4027" y="479.460212"/>
     <use style="fill:#2792cb;stroke:#2792cb;" x="704.253423" xlink:href="#m2cc02e4027" y="479.460212"/>
     <use style="fill:#2792cb;stroke:#2792cb;" x="709.016548" xlink:href="#m2cc02e4027" y="479.460212"/>
     <use style="fill:#2792cb;stroke:#2792cb;" x="713.779672" xlink:href="#m2cc02e4027" y="479.8866"/>
     <use style="fill:#2792cb;stroke:#2792cb;" x="728.069044" xlink:href="#m2cc02e4027" y="480.739376"/>
     <use style="fill:#2792cb;stroke:#2792cb;" x="732.832169" xlink:href="#m2cc02e4027" y="480.739376"/>
     <use style="fill:#2792cb;stroke:#2792cb;" x="737.595293" xlink:href="#m2cc02e4027" y="480.739376"/>
     <use style="fill:#2792cb;stroke:#2792cb;" x="742.358417" xlink:href="#m2cc02e4027" y="480.739376"/>
     <use style="fill:#2792cb;stroke:#2792cb;" x="756.64779" xlink:href="#m2cc02e4027" y="480.312988"/>
     <use style="fill:#2792cb;stroke:#2792cb;" x="761.410914" xlink:href="#m2cc02e4027" y="479.460212"/>
     <use style="fill:#2792cb;stroke:#2792cb;" x="766.174038" xlink:href="#m2cc02e4027" y="479.460212"/>
     <use style="fill:#2792cb;stroke:#2792cb;" x="770.937162" xlink:href="#m2cc02e4027" y="479.033824"/>
     <use style="fill:#2792cb;stroke:#2792cb;" x="775.700286" xlink:href="#m2cc02e4027" y="478.607436"/>
     <use style="fill:#2792cb;stroke:#2792cb;" x="789.989659" xlink:href="#m2cc02e4027" y="478.607436"/>
     <use style="fill:#2792cb;stroke:#2792cb;" x="794.752783" xlink:href="#m2cc02e4027" y="479.460212"/>
     <use style="fill:#2792cb;stroke:#2792cb;" x="799.515907" xlink:href="#m2cc02e4027" y="478.607436"/>
     <use style="fill:#2792cb;stroke:#2792cb;" x="804.279032" xlink:href="#m2cc02e4027" y="477.75466"/>
     <use style="fill:#2792cb;stroke:#2792cb;" x="809.042156" xlink:href="#m2cc02e4027" y="477.75466"/>
     <use style="fill:#2792cb;stroke:#2792cb;" x="823.331528" xlink:href="#m2cc02e4027" y="474.769945"/>
     <use style="fill:#2792cb;stroke:#2792cb;" x="828.094653" xlink:href="#m2cc02e4027" y="474.343557"/>
     <use style="fill:#2792cb;stroke:#2792cb;" x="832.857777" xlink:href="#m2cc02e4027" y="474.769945"/>
     <use style="fill:#2792cb;stroke:#2792cb;" x="837.620901" xlink:href="#m2cc02e4027" y="473.917169"/>
     <use style="fill:#2792cb;stroke:#2792cb;" x="842.384025" xlink:href="#m2cc02e4027" y="473.490781"/>
     <use style="fill:#2792cb;stroke:#2792cb;" x="890.015267" xlink:href="#m2cc02e4027" y="451.744994"/>
     <use style="fill:#2792cb;stroke:#2792cb;" x="894.778391" xlink:href="#m2cc02e4027" y="454.729709"/>
     <use style="fill:#2792cb;stroke:#2792cb;" x="904.30464" xlink:href="#m2cc02e4027" y="445.775562"/>
     <use style="fill:#2792cb;stroke:#2792cb;" x="909.067764" xlink:href="#m2cc02e4027" y="445.349174"/>
     <use style="fill:#2792cb;stroke:#2792cb;" x="923.357137" xlink:href="#m2cc02e4027" y="444.496398"/>
     <use style="fill:#2792cb;stroke:#2792cb;" x="928.120261" xlink:href="#m2cc02e4027" y="451.318606"/>
     <use style="fill:#2792cb;stroke:#2792cb;" x="932.883385" xlink:href="#m2cc02e4027" y="455.582485"/>
     <use style="fill:#2792cb;stroke:#2792cb;" x="937.646509" xlink:href="#m2cc02e4027" y="458.993589"/>
     <use style="fill:#2792cb;stroke:#2792cb;" x="942.409633" xlink:href="#m2cc02e4027" y="456.861649"/>
     <use style="fill:#2792cb;stroke:#2792cb;" x="956.699006" xlink:href="#m2cc02e4027" y="461.125529"/>
     <use style="fill:#2792cb;stroke:#2792cb;" x="961.46213" xlink:href="#m2cc02e4027" y="465.815797"/>
     <use style="fill:#2792cb;stroke:#2792cb;" x="966.225254" xlink:href="#m2cc02e4027" y="464.963021"/>
     <use style="fill:#2792cb;stroke:#2792cb;" x="970.988379" xlink:href="#m2cc02e4027" y="464.110245"/>
     <use style="fill:#2792cb;stroke:#2792cb;" x="975.751503" xlink:href="#m2cc02e4027" y="464.110245"/>
     <use style="fill:#2792cb;stroke:#2792cb;" x="990.040875" xlink:href="#m2cc02e4027" y="461.551917"/>
     <use style="fill:#2792cb;stroke:#2792cb;" x="994.804" xlink:href="#m2cc02e4027" y="464.963021"/>
     <use style="fill:#2792cb;stroke:#2792cb;" x="999.567124" xlink:href="#m2cc02e4027" y="465.815797"/>
     <use style="fill:#2792cb;stroke:#2792cb;" x="1004.330248" xlink:href="#m2cc02e4027" y="464.536633"/>
     <use style="fill:#2792cb;stroke:#2792cb;" x="1009.093372" xlink:href="#m2cc02e4027" y="463.257469"/>
     <use style="fill:#2792cb;stroke:#2792cb;" x="1023.382745" xlink:href="#m2cc02e4027" y="464.536633"/>
     <use style="fill:#2792cb;stroke:#2792cb;" x="1028.145869" xlink:href="#m2cc02e4027" y="468.374125"/>
     <use style="fill:#2792cb;stroke:#2792cb;" x="1032.908993" xlink:href="#m2cc02e4027" y="470.079677"/>
     <use style="fill:#2792cb;stroke:#2792cb;" x="1037.672117" xlink:href="#m2cc02e4027" y="471.785229"/>
     <use style="fill:#2792cb;stroke:#2792cb;" x="1042.435242" xlink:href="#m2cc02e4027" y="470.079677"/>
     <use style="fill:#2792cb;stroke:#2792cb;" x="1056.724614" xlink:href="#m2cc02e4027" y="466.242185"/>
     <use style="fill:#2792cb;stroke:#2792cb;" x="1061.487738" xlink:href="#m2cc02e4027" y="464.536633"/>
     <use style="fill:#2792cb;stroke:#2792cb;" x="1066.250863" xlink:href="#m2cc02e4027" y="464.963021"/>
     <use style="fill:#2792cb;stroke:#2792cb;" x="1071.013987" xlink:href="#m2cc02e4027" y="466.668573"/>
     <use style="fill:#2792cb;stroke:#2792cb;" x="1075.777111" xlink:href="#m2cc02e4027" y="461.978305"/>
     <use style="fill:#2792cb;stroke:#2792cb;" x="1090.066484" xlink:href="#m2cc02e4027" y="461.551917"/>
     <use style="fill:#2792cb;stroke:#2792cb;" x="1094.829608" xlink:href="#m2cc02e4027" y="463.683857"/>
     <use style="fill:#2792cb;stroke:#2792cb;" x="1099.592732" xlink:href="#m2cc02e4027" y="461.551917"/>
     <use style="fill:#2792cb;stroke:#2792cb;" x="1104.355856" xlink:href="#m2cc02e4027" y="462.831081"/>
     <use style="fill:#2792cb;stroke:#2792cb;" x="1109.11898" xlink:href="#m2cc02e4027" y="457.288037"/>
     <use style="fill:#2792cb;stroke:#2792cb;" x="1123.408353" xlink:href="#m2cc02e4027" y="449.613054"/>
     <use style="fill:#2792cb;stroke:#2792cb;" x="1128.171477" xlink:href="#m2cc02e4027" y="447.907502"/>
    </g>
   </g>
   <g id="patch_3">
    <path d="M 62.89875 501.738984 
L 1178.89875 501.738984 
" style="fill:none;stroke:#000000;stroke-linecap:square;stroke-linejoin:miter;stroke-width:0.8;"/>
   </g>
   <g id="legend_1">
    <g id="line2d_35">
     <path d="M 1091.653438 25.237422 
L 1111.653438 25.237422 
" style="fill:none;stroke:#dbcd00;stroke-linecap:square;stroke-width:2;"/>
    </g>
    <g id="line2d_36">
     <g>
      <use style="fill:#dbcd00;stroke:#dbcd00;" x="1101.653438" xlink:href="#m627fad1c06" y="25.237422"/>
     </g>
    </g>
    <g id="text_22">
     <!-- Genesene -->
     <defs>
      <path d="M 59.515625 10.40625 
L 59.515625 29.984375 
L 43.40625 29.984375 
L 43.40625 38.09375 
L 69.28125 38.09375 
L 69.28125 6.78125 
Q 63.578125 2.734375 56.6875 0.65625 
Q 49.8125 -1.421875 42 -1.421875 
Q 24.90625 -1.421875 15.25 8.5625 
Q 5.609375 18.5625 5.609375 36.375 
Q 5.609375 54.25 15.25 64.234375 
Q 24.90625 74.21875 42 74.21875 
Q 49.125 74.21875 55.546875 72.453125 
Q 61.96875 70.703125 67.390625 67.28125 
L 67.390625 56.78125 
Q 61.921875 61.421875 55.765625 63.765625 
Q 49.609375 66.109375 42.828125 66.109375 
Q 29.4375 66.109375 22.71875 58.640625 
Q 16.015625 51.171875 16.015625 36.375 
Q 16.015625 21.625 22.71875 14.15625 
Q 29.4375 6.6875 42.828125 6.6875 
Q 48.046875 6.6875 52.140625 7.59375 
Q 56.25 8.5 59.515625 10.40625 
z
" id="DejaVuSans-71"/>
      <path d="M 44.28125 53.078125 
L 44.28125 44.578125 
Q 40.484375 46.53125 36.375 47.5 
Q 32.28125 48.484375 27.875 48.484375 
Q 21.1875 48.484375 17.84375 46.4375 
Q 14.5 44.390625 14.5 40.28125 
Q 14.5 37.15625 16.890625 35.375 
Q 19.28125 33.59375 26.515625 31.984375 
L 29.59375 31.296875 
Q 39.15625 29.25 43.1875 25.515625 
Q 47.21875 21.78125 47.21875 15.09375 
Q 47.21875 7.46875 41.1875 3.015625 
Q 35.15625 -1.421875 24.609375 -1.421875 
Q 20.21875 -1.421875 15.453125 -0.5625 
Q 10.6875 0.296875 5.421875 2 
L 5.421875 11.28125 
Q 10.40625 8.6875 15.234375 7.390625 
Q 20.0625 6.109375 24.8125 6.109375 
Q 31.15625 6.109375 34.5625 8.28125 
Q 37.984375 10.453125 37.984375 14.40625 
Q 37.984375 18.0625 35.515625 20.015625 
Q 33.0625 21.96875 24.703125 23.78125 
L 21.578125 24.515625 
Q 13.234375 26.265625 9.515625 29.90625 
Q 5.8125 33.546875 5.8125 39.890625 
Q 5.8125 47.609375 11.28125 51.796875 
Q 16.75 56 26.8125 56 
Q 31.78125 56 36.171875 55.265625 
Q 40.578125 54.546875 44.28125 53.078125 
z
" id="DejaVuSans-115"/>
     </defs>
     <g transform="translate(1119.653438 28.737422)scale(0.1 -0.1)">
      <use xlink:href="#DejaVuSans-71"/>
      <use x="77.490234" xlink:href="#DejaVuSans-101"/>
      <use x="139.013672" xlink:href="#DejaVuSans-110"/>
      <use x="202.392578" xlink:href="#DejaVuSans-101"/>
      <use x="263.916016" xlink:href="#DejaVuSans-115"/>
      <use x="316.015625" xlink:href="#DejaVuSans-101"/>
      <use x="377.539062" xlink:href="#DejaVuSans-110"/>
      <use x="440.917969" xlink:href="#DejaVuSans-101"/>
     </g>
    </g>
    <g id="line2d_37">
     <path d="M 1091.653438 39.915547 
L 1111.653438 39.915547 
" style="fill:none;stroke:#2792cb;stroke-linecap:square;stroke-width:2;"/>
    </g>
    <g id="line2d_38">
     <g>
      <use style="fill:#2792cb;stroke:#2792cb;" x="1101.653438" xlink:href="#m2cc02e4027" y="39.915547"/>
     </g>
    </g>
    <g id="text_23">
     <!-- Erkrankte -->
     <defs>
      <path d="M 9.8125 72.90625 
L 55.90625 72.90625 
L 55.90625 64.59375 
L 19.671875 64.59375 
L 19.671875 43.015625 
L 54.390625 43.015625 
L 54.390625 34.71875 
L 19.671875 34.71875 
L 19.671875 8.296875 
L 56.78125 8.296875 
L 56.78125 0 
L 9.8125 0 
z
" id="DejaVuSans-69"/>
      <path d="M 41.109375 46.296875 
Q 39.59375 47.171875 37.8125 47.578125 
Q 36.03125 48 33.890625 48 
Q 26.265625 48 22.1875 43.046875 
Q 18.109375 38.09375 18.109375 28.8125 
L 18.109375 0 
L 9.078125 0 
L 9.078125 54.6875 
L 18.109375 54.6875 
L 18.109375 46.1875 
Q 20.953125 51.171875 25.484375 53.578125 
Q 30.03125 56 36.53125 56 
Q 37.453125 56 38.578125 55.875 
Q 39.703125 55.765625 41.0625 55.515625 
z
" id="DejaVuSans-114"/>
      <path d="M 9.078125 75.984375 
L 18.109375 75.984375 
L 18.109375 31.109375 
L 44.921875 54.6875 
L 56.390625 54.6875 
L 27.390625 29.109375 
L 57.625 0 
L 45.90625 0 
L 18.109375 26.703125 
L 18.109375 0 
L 9.078125 0 
z
" id="DejaVuSans-107"/>
      <path d="M 18.3125 70.21875 
L 18.3125 54.6875 
L 36.8125 54.6875 
L 36.8125 47.703125 
L 18.3125 47.703125 
L 18.3125 18.015625 
Q 18.3125 11.328125 20.140625 9.421875 
Q 21.96875 7.515625 27.59375 7.515625 
L 36.8125 7.515625 
L 36.8125 0 
L 27.59375 0 
Q 17.1875 0 13.234375 3.875 
Q 9.28125 7.765625 9.28125 18.015625 
L 9.28125 47.703125 
L 2.6875 47.703125 
L 2.6875 54.6875 
L 9.28125 54.6875 
L 9.28125 70.21875 
z
" id="DejaVuSans-116"/>
     </defs>
     <g transform="translate(1119.653438 43.415547)scale(0.1 -0.1)">
      <use xlink:href="#DejaVuSans-69"/>
      <use x="63.183594" xlink:href="#DejaVuSans-114"/>
      <use x="104.296875" xlink:href="#DejaVuSans-107"/>
      <use x="162.207031" xlink:href="#DejaVuSans-114"/>
      <use x="203.320312" xlink:href="#DejaVuSans-97"/>
      <use x="264.599609" xlink:href="#DejaVuSans-110"/>
      <use x="327.978516" xlink:href="#DejaVuSans-107"/>
      <use x="385.888672" xlink:href="#DejaVuSans-116"/>
      <use x="425.097656" xlink:href="#DejaVuSans-101"/>
     </g>
    </g>
   </g>
  </g>
 </g>
 <defs>
  <clipPath id="p924f9c38fd">
   <rect height="489.6" width="1116" x="62.89875" y="12.138984"/>
  </clipPath>
 </defs>
</svg>
