<?xml version="1.0" encoding="utf-8" standalone="no"?>
<!DOCTYPE svg PUBLIC "-//W3C//DTD SVG 1.1//EN"
  "http://www.w3.org/Graphics/SVG/1.1/DTD/svg11.dtd">
<!-- Created with matplotlib (https://matplotlib.org/) -->
<svg height="564.610093pt" version="1.1" viewBox="0 0 1177.8275 564.610093" width="1177.8275pt" xmlns="http://www.w3.org/2000/svg" xmlns:xlink="http://www.w3.org/1999/xlink">
 <defs>
  <style type="text/css">
*{stroke-linecap:butt;stroke-linejoin:round;}
  </style>
 </defs>
 <g id="figure_1">
  <g id="patch_1">
   <path d="M 0 564.610093 
L 1177.8275 564.610093 
L 1177.8275 0 
L 0 0 
z
" style="fill:#ffffff;"/>
  </g>
  <g id="axes_1">
   <g id="patch_2">
    <path d="M 54.6275 501.738984 
L 1170.6275 501.738984 
L 1170.6275 12.138984 
L 54.6275 12.138984 
z
" style="fill:#ffffff;"/>
   </g>
   <g id="matplotlib.axis_1">
    <g id="xtick_1">
     <g id="line2d_1">
      <defs>
       <path d="M 0 0 
L 0 3.5 
" id="m8732f68b22" style="stroke:#000000;stroke-width:0.8;"/>
      </defs>
      <g>
       <use style="stroke:#000000;stroke-width:0.8;" x="218.082045" xlink:href="#m8732f68b22" y="501.738984"/>
      </g>
     </g>
     <g id="text_1">
      <!-- 2020-04-01 -->
      <defs>
       <path d="M 19.1875 8.296875 
L 53.609375 8.296875 
L 53.609375 0 
L 7.328125 0 
L 7.328125 8.296875 
Q 12.9375 14.109375 22.625 23.890625 
Q 32.328125 33.6875 34.8125 36.53125 
Q 39.546875 41.84375 41.421875 45.53125 
Q 43.3125 49.21875 43.3125 52.78125 
Q 43.3125 58.59375 39.234375 62.25 
Q 35.15625 65.921875 28.609375 65.921875 
Q 23.96875 65.921875 18.8125 64.3125 
Q 13.671875 62.703125 7.8125 59.421875 
L 7.8125 69.390625 
Q 13.765625 71.78125 18.9375 73 
Q 24.125 74.21875 28.421875 74.21875 
Q 39.75 74.21875 46.484375 68.546875 
Q 53.21875 62.890625 53.21875 53.421875 
Q 53.21875 48.921875 51.53125 44.890625 
Q 49.859375 40.875 45.40625 35.40625 
Q 44.1875 33.984375 37.640625 27.21875 
Q 31.109375 20.453125 19.1875 8.296875 
z
" id="DejaVuSans-50"/>
       <path d="M 31.78125 66.40625 
Q 24.171875 66.40625 20.328125 58.90625 
Q 16.5 51.421875 16.5 36.375 
Q 16.5 21.390625 20.328125 13.890625 
Q 24.171875 6.390625 31.78125 6.390625 
Q 39.453125 6.390625 43.28125 13.890625 
Q 47.125 21.390625 47.125 36.375 
Q 47.125 51.421875 43.28125 58.90625 
Q 39.453125 66.40625 31.78125 66.40625 
z
M 31.78125 74.21875 
Q 44.046875 74.21875 50.515625 64.515625 
Q 56.984375 54.828125 56.984375 36.375 
Q 56.984375 17.96875 50.515625 8.265625 
Q 44.046875 -1.421875 31.78125 -1.421875 
Q 19.53125 -1.421875 13.0625 8.265625 
Q 6.59375 17.96875 6.59375 36.375 
Q 6.59375 54.828125 13.0625 64.515625 
Q 19.53125 74.21875 31.78125 74.21875 
z
" id="DejaVuSans-48"/>
       <path d="M 4.890625 31.390625 
L 31.203125 31.390625 
L 31.203125 23.390625 
L 4.890625 23.390625 
z
" id="DejaVuSans-45"/>
       <path d="M 37.796875 64.3125 
L 12.890625 25.390625 
L 37.796875 25.390625 
z
M 35.203125 72.90625 
L 47.609375 72.90625 
L 47.609375 25.390625 
L 58.015625 25.390625 
L 58.015625 17.1875 
L 47.609375 17.1875 
L 47.609375 0 
L 37.796875 0 
L 37.796875 17.1875 
L 4.890625 17.1875 
L 4.890625 26.703125 
z
" id="DejaVuSans-52"/>
       <path d="M 12.40625 8.296875 
L 28.515625 8.296875 
L 28.515625 63.921875 
L 10.984375 60.40625 
L 10.984375 69.390625 
L 28.421875 72.90625 
L 38.28125 72.90625 
L 38.28125 8.296875 
L 54.390625 8.296875 
L 54.390625 0 
L 12.40625 0 
z
" id="DejaVuSans-49"/>
      </defs>
      <g transform="translate(151.301759 555.068713)rotate(-30)scale(0.13 -0.13)">
       <use xlink:href="#DejaVuSans-50"/>
       <use x="63.623047" xlink:href="#DejaVuSans-48"/>
       <use x="127.246094" xlink:href="#DejaVuSans-50"/>
       <use x="190.869141" xlink:href="#DejaVuSans-48"/>
       <use x="254.492188" xlink:href="#DejaVuSans-45"/>
       <use x="290.576172" xlink:href="#DejaVuSans-48"/>
       <use x="354.199219" xlink:href="#DejaVuSans-52"/>
       <use x="417.822266" xlink:href="#DejaVuSans-45"/>
       <use x="453.90625" xlink:href="#DejaVuSans-48"/>
       <use x="517.529297" xlink:href="#DejaVuSans-49"/>
      </g>
     </g>
    </g>
    <g id="xtick_2">
     <g id="line2d_2">
      <g>
       <use style="stroke:#000000;stroke-width:0.8;" x="393.435581" xlink:href="#m8732f68b22" y="501.738984"/>
      </g>
     </g>
     <g id="text_2">
      <!-- 2020-04-15 -->
      <defs>
       <path d="M 10.796875 72.90625 
L 49.515625 72.90625 
L 49.515625 64.59375 
L 19.828125 64.59375 
L 19.828125 46.734375 
Q 21.96875 47.46875 24.109375 47.828125 
Q 26.265625 48.1875 28.421875 48.1875 
Q 40.625 48.1875 47.75 41.5 
Q 54.890625 34.8125 54.890625 23.390625 
Q 54.890625 11.625 47.5625 5.09375 
Q 40.234375 -1.421875 26.90625 -1.421875 
Q 22.3125 -1.421875 17.546875 -0.640625 
Q 12.796875 0.140625 7.71875 1.703125 
L 7.71875 11.625 
Q 12.109375 9.234375 16.796875 8.0625 
Q 21.484375 6.890625 26.703125 6.890625 
Q 35.15625 6.890625 40.078125 11.328125 
Q 45.015625 15.765625 45.015625 23.390625 
Q 45.015625 31 40.078125 35.4375 
Q 35.15625 39.890625 26.703125 39.890625 
Q 22.75 39.890625 18.8125 39.015625 
Q 14.890625 38.140625 10.796875 36.28125 
z
" id="DejaVuSans-53"/>
      </defs>
      <g transform="translate(326.655294 555.068713)rotate(-30)scale(0.13 -0.13)">
       <use xlink:href="#DejaVuSans-50"/>
       <use x="63.623047" xlink:href="#DejaVuSans-48"/>
       <use x="127.246094" xlink:href="#DejaVuSans-50"/>
       <use x="190.869141" xlink:href="#DejaVuSans-48"/>
       <use x="254.492188" xlink:href="#DejaVuSans-45"/>
       <use x="290.576172" xlink:href="#DejaVuSans-48"/>
       <use x="354.199219" xlink:href="#DejaVuSans-52"/>
       <use x="417.822266" xlink:href="#DejaVuSans-45"/>
       <use x="453.90625" xlink:href="#DejaVuSans-49"/>
       <use x="517.529297" xlink:href="#DejaVuSans-53"/>
      </g>
     </g>
    </g>
    <g id="xtick_3">
     <g id="line2d_3">
      <g>
       <use style="stroke:#000000;stroke-width:0.8;" x="593.839621" xlink:href="#m8732f68b22" y="501.738984"/>
      </g>
     </g>
     <g id="text_3">
      <!-- 2020-05-01 -->
      <g transform="translate(527.059334 555.068713)rotate(-30)scale(0.13 -0.13)">
       <use xlink:href="#DejaVuSans-50"/>
       <use x="63.623047" xlink:href="#DejaVuSans-48"/>
       <use x="127.246094" xlink:href="#DejaVuSans-50"/>
       <use x="190.869141" xlink:href="#DejaVuSans-48"/>
       <use x="254.492188" xlink:href="#DejaVuSans-45"/>
       <use x="290.576172" xlink:href="#DejaVuSans-48"/>
       <use x="354.199219" xlink:href="#DejaVuSans-53"/>
       <use x="417.822266" xlink:href="#DejaVuSans-45"/>
       <use x="453.90625" xlink:href="#DejaVuSans-48"/>
       <use x="517.529297" xlink:href="#DejaVuSans-49"/>
      </g>
     </g>
    </g>
    <g id="xtick_4">
     <g id="line2d_4">
      <g>
       <use style="stroke:#000000;stroke-width:0.8;" x="769.193157" xlink:href="#m8732f68b22" y="501.738984"/>
      </g>
     </g>
     <g id="text_4">
      <!-- 2020-05-15 -->
      <g transform="translate(702.41287 555.068713)rotate(-30)scale(0.13 -0.13)">
       <use xlink:href="#DejaVuSans-50"/>
       <use x="63.623047" xlink:href="#DejaVuSans-48"/>
       <use x="127.246094" xlink:href="#DejaVuSans-50"/>
       <use x="190.869141" xlink:href="#DejaVuSans-48"/>
       <use x="254.492188" xlink:href="#DejaVuSans-45"/>
       <use x="290.576172" xlink:href="#DejaVuSans-48"/>
       <use x="354.199219" xlink:href="#DejaVuSans-53"/>
       <use x="417.822266" xlink:href="#DejaVuSans-45"/>
       <use x="453.90625" xlink:href="#DejaVuSans-49"/>
       <use x="517.529297" xlink:href="#DejaVuSans-53"/>
      </g>
     </g>
    </g>
    <g id="xtick_5">
     <g id="line2d_5">
      <g>
       <use style="stroke:#000000;stroke-width:0.8;" x="982.122449" xlink:href="#m8732f68b22" y="501.738984"/>
      </g>
     </g>
     <g id="text_5">
      <!-- 2020-06-01 -->
      <defs>
       <path d="M 33.015625 40.375 
Q 26.375 40.375 22.484375 35.828125 
Q 18.609375 31.296875 18.609375 23.390625 
Q 18.609375 15.53125 22.484375 10.953125 
Q 26.375 6.390625 33.015625 6.390625 
Q 39.65625 6.390625 43.53125 10.953125 
Q 47.40625 15.53125 47.40625 23.390625 
Q 47.40625 31.296875 43.53125 35.828125 
Q 39.65625 40.375 33.015625 40.375 
z
M 52.59375 71.296875 
L 52.59375 62.3125 
Q 48.875 64.0625 45.09375 64.984375 
Q 41.3125 65.921875 37.59375 65.921875 
Q 27.828125 65.921875 22.671875 59.328125 
Q 17.53125 52.734375 16.796875 39.40625 
Q 19.671875 43.65625 24.015625 45.921875 
Q 28.375 48.1875 33.59375 48.1875 
Q 44.578125 48.1875 50.953125 41.515625 
Q 57.328125 34.859375 57.328125 23.390625 
Q 57.328125 12.15625 50.6875 5.359375 
Q 44.046875 -1.421875 33.015625 -1.421875 
Q 20.359375 -1.421875 13.671875 8.265625 
Q 6.984375 17.96875 6.984375 36.375 
Q 6.984375 53.65625 15.1875 63.9375 
Q 23.390625 74.21875 37.203125 74.21875 
Q 40.921875 74.21875 44.703125 73.484375 
Q 48.484375 72.75 52.59375 71.296875 
z
" id="DejaVuSans-54"/>
      </defs>
      <g transform="translate(915.342163 555.068713)rotate(-30)scale(0.13 -0.13)">
       <use xlink:href="#DejaVuSans-50"/>
       <use x="63.623047" xlink:href="#DejaVuSans-48"/>
       <use x="127.246094" xlink:href="#DejaVuSans-50"/>
       <use x="190.869141" xlink:href="#DejaVuSans-48"/>
       <use x="254.492188" xlink:href="#DejaVuSans-45"/>
       <use x="290.576172" xlink:href="#DejaVuSans-48"/>
       <use x="354.199219" xlink:href="#DejaVuSans-54"/>
       <use x="417.822266" xlink:href="#DejaVuSans-45"/>
       <use x="453.90625" xlink:href="#DejaVuSans-48"/>
       <use x="517.529297" xlink:href="#DejaVuSans-49"/>
      </g>
     </g>
    </g>
    <g id="xtick_6">
     <g id="line2d_6">
      <g>
       <use style="stroke:#000000;stroke-width:0.8;" x="1157.475985" xlink:href="#m8732f68b22" y="501.738984"/>
      </g>
     </g>
     <g id="text_6">
      <!-- 2020-06-15 -->
      <g transform="translate(1090.695698 555.068713)rotate(-30)scale(0.13 -0.13)">
       <use xlink:href="#DejaVuSans-50"/>
       <use x="63.623047" xlink:href="#DejaVuSans-48"/>
       <use x="127.246094" xlink:href="#DejaVuSans-50"/>
       <use x="190.869141" xlink:href="#DejaVuSans-48"/>
       <use x="254.492188" xlink:href="#DejaVuSans-45"/>
       <use x="290.576172" xlink:href="#DejaVuSans-48"/>
       <use x="354.199219" xlink:href="#DejaVuSans-54"/>
       <use x="417.822266" xlink:href="#DejaVuSans-45"/>
       <use x="453.90625" xlink:href="#DejaVuSans-49"/>
       <use x="517.529297" xlink:href="#DejaVuSans-53"/>
      </g>
     </g>
    </g>
   </g>
   <g id="matplotlib.axis_2">
    <g id="ytick_1">
     <g id="line2d_7">
      <path clip-path="url(#pf0bd4e1dcf)" d="M 54.6275 485.548383 
L 1170.6275 485.548383 
" style="fill:none;stroke:#b0b0b0;stroke-linecap:square;stroke-width:0.8;"/>
     </g>
     <g id="line2d_8">
      <defs>
       <path d="M 0 0 
L -3.5 0 
" id="m4fbdc77433" style="stroke:#000000;stroke-width:0.8;"/>
      </defs>
      <g>
       <use style="stroke:#000000;stroke-width:0.8;" x="54.6275" xlink:href="#m4fbdc77433" y="485.548383"/>
      </g>
     </g>
     <g id="text_7">
      <!-- 0 -->
      <g transform="translate(39.35625 490.487367)scale(0.13 -0.13)">
       <use xlink:href="#DejaVuSans-48"/>
      </g>
     </g>
    </g>
    <g id="ytick_2">
     <g id="line2d_9">
      <path clip-path="url(#pf0bd4e1dcf)" d="M 54.6275 390.866503 
L 1170.6275 390.866503 
" style="fill:none;stroke:#b0b0b0;stroke-linecap:square;stroke-width:0.8;"/>
     </g>
     <g id="line2d_10">
      <g>
       <use style="stroke:#000000;stroke-width:0.8;" x="54.6275" xlink:href="#m4fbdc77433" y="390.866503"/>
      </g>
     </g>
     <g id="text_8">
      <!-- 100 -->
      <g transform="translate(22.81375 395.805488)scale(0.13 -0.13)">
       <use xlink:href="#DejaVuSans-49"/>
       <use x="63.623047" xlink:href="#DejaVuSans-48"/>
       <use x="127.246094" xlink:href="#DejaVuSans-48"/>
      </g>
     </g>
    </g>
    <g id="ytick_3">
     <g id="line2d_11">
      <path clip-path="url(#pf0bd4e1dcf)" d="M 54.6275 296.184624 
L 1170.6275 296.184624 
" style="fill:none;stroke:#b0b0b0;stroke-linecap:square;stroke-width:0.8;"/>
     </g>
     <g id="line2d_12">
      <g>
       <use style="stroke:#000000;stroke-width:0.8;" x="54.6275" xlink:href="#m4fbdc77433" y="296.184624"/>
      </g>
     </g>
     <g id="text_9">
      <!-- 200 -->
      <g transform="translate(22.81375 301.123608)scale(0.13 -0.13)">
       <use xlink:href="#DejaVuSans-50"/>
       <use x="63.623047" xlink:href="#DejaVuSans-48"/>
       <use x="127.246094" xlink:href="#DejaVuSans-48"/>
      </g>
     </g>
    </g>
    <g id="ytick_4">
     <g id="line2d_13">
      <path clip-path="url(#pf0bd4e1dcf)" d="M 54.6275 201.502744 
L 1170.6275 201.502744 
" style="fill:none;stroke:#b0b0b0;stroke-linecap:square;stroke-width:0.8;"/>
     </g>
     <g id="line2d_14">
      <g>
       <use style="stroke:#000000;stroke-width:0.8;" x="54.6275" xlink:href="#m4fbdc77433" y="201.502744"/>
      </g>
     </g>
     <g id="text_10">
      <!-- 300 -->
      <defs>
       <path d="M 40.578125 39.3125 
Q 47.65625 37.796875 51.625 33 
Q 55.609375 28.21875 55.609375 21.1875 
Q 55.609375 10.40625 48.1875 4.484375 
Q 40.765625 -1.421875 27.09375 -1.421875 
Q 22.515625 -1.421875 17.65625 -0.515625 
Q 12.796875 0.390625 7.625 2.203125 
L 7.625 11.71875 
Q 11.71875 9.328125 16.59375 8.109375 
Q 21.484375 6.890625 26.8125 6.890625 
Q 36.078125 6.890625 40.9375 10.546875 
Q 45.796875 14.203125 45.796875 21.1875 
Q 45.796875 27.640625 41.28125 31.265625 
Q 36.765625 34.90625 28.71875 34.90625 
L 20.21875 34.90625 
L 20.21875 43.015625 
L 29.109375 43.015625 
Q 36.375 43.015625 40.234375 45.921875 
Q 44.09375 48.828125 44.09375 54.296875 
Q 44.09375 59.90625 40.109375 62.90625 
Q 36.140625 65.921875 28.71875 65.921875 
Q 24.65625 65.921875 20.015625 65.03125 
Q 15.375 64.15625 9.8125 62.3125 
L 9.8125 71.09375 
Q 15.4375 72.65625 20.34375 73.4375 
Q 25.25 74.21875 29.59375 74.21875 
Q 40.828125 74.21875 47.359375 69.109375 
Q 53.90625 64.015625 53.90625 55.328125 
Q 53.90625 49.265625 50.4375 45.09375 
Q 46.96875 40.921875 40.578125 39.3125 
z
" id="DejaVuSans-51"/>
      </defs>
      <g transform="translate(22.81375 206.441728)scale(0.13 -0.13)">
       <use xlink:href="#DejaVuSans-51"/>
       <use x="63.623047" xlink:href="#DejaVuSans-48"/>
       <use x="127.246094" xlink:href="#DejaVuSans-48"/>
      </g>
     </g>
    </g>
    <g id="ytick_5">
     <g id="line2d_15">
      <path clip-path="url(#pf0bd4e1dcf)" d="M 54.6275 106.820864 
L 1170.6275 106.820864 
" style="fill:none;stroke:#b0b0b0;stroke-linecap:square;stroke-width:0.8;"/>
     </g>
     <g id="line2d_16">
      <g>
       <use style="stroke:#000000;stroke-width:0.8;" x="54.6275" xlink:href="#m4fbdc77433" y="106.820864"/>
      </g>
     </g>
     <g id="text_11">
      <!-- 400 -->
      <g transform="translate(22.81375 111.759848)scale(0.13 -0.13)">
       <use xlink:href="#DejaVuSans-52"/>
       <use x="63.623047" xlink:href="#DejaVuSans-48"/>
       <use x="127.246094" xlink:href="#DejaVuSans-48"/>
      </g>
     </g>
    </g>
    <g id="ytick_6">
     <g id="line2d_17">
      <path clip-path="url(#pf0bd4e1dcf)" d="M 54.6275 12.138984 
L 1170.6275 12.138984 
" style="fill:none;stroke:#b0b0b0;stroke-linecap:square;stroke-width:0.8;"/>
     </g>
     <g id="line2d_18">
      <g>
       <use style="stroke:#000000;stroke-width:0.8;" x="54.6275" xlink:href="#m4fbdc77433" y="12.138984"/>
      </g>
     </g>
     <g id="text_12">
      <!-- 500 -->
      <g transform="translate(22.81375 17.077969)scale(0.13 -0.13)">
       <use xlink:href="#DejaVuSans-53"/>
       <use x="63.623047" xlink:href="#DejaVuSans-48"/>
       <use x="127.246094" xlink:href="#DejaVuSans-48"/>
      </g>
     </g>
    </g>
    <g id="text_13">
     <!-- Anzahl von Fällen -->
     <defs>
      <path d="M 34.1875 63.1875 
L 20.796875 26.90625 
L 47.609375 26.90625 
z
M 28.609375 72.90625 
L 39.796875 72.90625 
L 67.578125 0 
L 57.328125 0 
L 50.6875 18.703125 
L 17.828125 18.703125 
L 11.1875 0 
L 0.78125 0 
z
" id="DejaVuSans-65"/>
      <path d="M 54.890625 33.015625 
L 54.890625 0 
L 45.90625 0 
L 45.90625 32.71875 
Q 45.90625 40.484375 42.875 44.328125 
Q 39.84375 48.1875 33.796875 48.1875 
Q 26.515625 48.1875 22.3125 43.546875 
Q 18.109375 38.921875 18.109375 30.90625 
L 18.109375 0 
L 9.078125 0 
L 9.078125 54.6875 
L 18.109375 54.6875 
L 18.109375 46.1875 
Q 21.34375 51.125 25.703125 53.5625 
Q 30.078125 56 35.796875 56 
Q 45.21875 56 50.046875 50.171875 
Q 54.890625 44.34375 54.890625 33.015625 
z
" id="DejaVuSans-110"/>
      <path d="M 5.515625 54.6875 
L 48.1875 54.6875 
L 48.1875 46.484375 
L 14.40625 7.171875 
L 48.1875 7.171875 
L 48.1875 0 
L 4.296875 0 
L 4.296875 8.203125 
L 38.09375 47.515625 
L 5.515625 47.515625 
z
" id="DejaVuSans-122"/>
      <path d="M 34.28125 27.484375 
Q 23.390625 27.484375 19.1875 25 
Q 14.984375 22.515625 14.984375 16.5 
Q 14.984375 11.71875 18.140625 8.90625 
Q 21.296875 6.109375 26.703125 6.109375 
Q 34.1875 6.109375 38.703125 11.40625 
Q 43.21875 16.703125 43.21875 25.484375 
L 43.21875 27.484375 
z
M 52.203125 31.203125 
L 52.203125 0 
L 43.21875 0 
L 43.21875 8.296875 
Q 40.140625 3.328125 35.546875 0.953125 
Q 30.953125 -1.421875 24.3125 -1.421875 
Q 15.921875 -1.421875 10.953125 3.296875 
Q 6 8.015625 6 15.921875 
Q 6 25.140625 12.171875 29.828125 
Q 18.359375 34.515625 30.609375 34.515625 
L 43.21875 34.515625 
L 43.21875 35.40625 
Q 43.21875 41.609375 39.140625 45 
Q 35.0625 48.390625 27.6875 48.390625 
Q 23 48.390625 18.546875 47.265625 
Q 14.109375 46.140625 10.015625 43.890625 
L 10.015625 52.203125 
Q 14.9375 54.109375 19.578125 55.046875 
Q 24.21875 56 28.609375 56 
Q 40.484375 56 46.34375 49.84375 
Q 52.203125 43.703125 52.203125 31.203125 
z
" id="DejaVuSans-97"/>
      <path d="M 54.890625 33.015625 
L 54.890625 0 
L 45.90625 0 
L 45.90625 32.71875 
Q 45.90625 40.484375 42.875 44.328125 
Q 39.84375 48.1875 33.796875 48.1875 
Q 26.515625 48.1875 22.3125 43.546875 
Q 18.109375 38.921875 18.109375 30.90625 
L 18.109375 0 
L 9.078125 0 
L 9.078125 75.984375 
L 18.109375 75.984375 
L 18.109375 46.1875 
Q 21.34375 51.125 25.703125 53.5625 
Q 30.078125 56 35.796875 56 
Q 45.21875 56 50.046875 50.171875 
Q 54.890625 44.34375 54.890625 33.015625 
z
" id="DejaVuSans-104"/>
      <path d="M 9.421875 75.984375 
L 18.40625 75.984375 
L 18.40625 0 
L 9.421875 0 
z
" id="DejaVuSans-108"/>
      <path id="DejaVuSans-32"/>
      <path d="M 2.984375 54.6875 
L 12.5 54.6875 
L 29.59375 8.796875 
L 46.6875 54.6875 
L 56.203125 54.6875 
L 35.6875 0 
L 23.484375 0 
z
" id="DejaVuSans-118"/>
      <path d="M 30.609375 48.390625 
Q 23.390625 48.390625 19.1875 42.75 
Q 14.984375 37.109375 14.984375 27.296875 
Q 14.984375 17.484375 19.15625 11.84375 
Q 23.34375 6.203125 30.609375 6.203125 
Q 37.796875 6.203125 41.984375 11.859375 
Q 46.1875 17.53125 46.1875 27.296875 
Q 46.1875 37.015625 41.984375 42.703125 
Q 37.796875 48.390625 30.609375 48.390625 
z
M 30.609375 56 
Q 42.328125 56 49.015625 48.375 
Q 55.71875 40.765625 55.71875 27.296875 
Q 55.71875 13.875 49.015625 6.21875 
Q 42.328125 -1.421875 30.609375 -1.421875 
Q 18.84375 -1.421875 12.171875 6.21875 
Q 5.515625 13.875 5.515625 27.296875 
Q 5.515625 40.765625 12.171875 48.375 
Q 18.84375 56 30.609375 56 
z
" id="DejaVuSans-111"/>
      <path d="M 9.8125 72.90625 
L 51.703125 72.90625 
L 51.703125 64.59375 
L 19.671875 64.59375 
L 19.671875 43.109375 
L 48.578125 43.109375 
L 48.578125 34.8125 
L 19.671875 34.8125 
L 19.671875 0 
L 9.8125 0 
z
" id="DejaVuSans-70"/>
      <path d="M 34.28125 27.484375 
Q 23.390625 27.484375 19.1875 25 
Q 14.984375 22.515625 14.984375 16.5 
Q 14.984375 11.71875 18.140625 8.90625 
Q 21.296875 6.109375 26.703125 6.109375 
Q 34.1875 6.109375 38.703125 11.40625 
Q 43.21875 16.703125 43.21875 25.484375 
L 43.21875 27.484375 
z
M 52.203125 31.203125 
L 52.203125 0 
L 43.21875 0 
L 43.21875 8.296875 
Q 40.140625 3.328125 35.546875 0.953125 
Q 30.953125 -1.421875 24.3125 -1.421875 
Q 15.921875 -1.421875 10.953125 3.296875 
Q 6 8.015625 6 15.921875 
Q 6 25.140625 12.171875 29.828125 
Q 18.359375 34.515625 30.609375 34.515625 
L 43.21875 34.515625 
L 43.21875 35.40625 
Q 43.21875 41.609375 39.140625 45 
Q 35.0625 48.390625 27.6875 48.390625 
Q 23 48.390625 18.546875 47.265625 
Q 14.109375 46.140625 10.015625 43.890625 
L 10.015625 52.203125 
Q 14.9375 54.109375 19.578125 55.046875 
Q 24.21875 56 28.609375 56 
Q 40.484375 56 46.34375 49.84375 
Q 52.203125 43.703125 52.203125 31.203125 
z
M 33.59375 75.78125 
L 43.5 75.78125 
L 43.5 65.921875 
L 33.59375 65.921875 
z
M 14.5 75.78125 
L 24.40625 75.78125 
L 24.40625 65.921875 
L 14.5 65.921875 
z
" id="DejaVuSans-228"/>
      <path d="M 56.203125 29.59375 
L 56.203125 25.203125 
L 14.890625 25.203125 
Q 15.484375 15.921875 20.484375 11.0625 
Q 25.484375 6.203125 34.421875 6.203125 
Q 39.59375 6.203125 44.453125 7.46875 
Q 49.3125 8.734375 54.109375 11.28125 
L 54.109375 2.78125 
Q 49.265625 0.734375 44.1875 -0.34375 
Q 39.109375 -1.421875 33.890625 -1.421875 
Q 20.796875 -1.421875 13.15625 6.1875 
Q 5.515625 13.8125 5.515625 26.8125 
Q 5.515625 40.234375 12.765625 48.109375 
Q 20.015625 56 32.328125 56 
Q 43.359375 56 49.78125 48.890625 
Q 56.203125 41.796875 56.203125 29.59375 
z
M 47.21875 32.234375 
Q 47.125 39.59375 43.09375 43.984375 
Q 39.0625 48.390625 32.421875 48.390625 
Q 24.90625 48.390625 20.390625 44.140625 
Q 15.875 39.890625 15.1875 32.171875 
z
" id="DejaVuSans-101"/>
     </defs>
     <g transform="translate(16.318125 309.388359)rotate(-90)scale(0.12 -0.12)">
      <use xlink:href="#DejaVuSans-65"/>
      <use x="68.408203" xlink:href="#DejaVuSans-110"/>
      <use x="131.787109" xlink:href="#DejaVuSans-122"/>
      <use x="184.277344" xlink:href="#DejaVuSans-97"/>
      <use x="245.556641" xlink:href="#DejaVuSans-104"/>
      <use x="308.935547" xlink:href="#DejaVuSans-108"/>
      <use x="336.71875" xlink:href="#DejaVuSans-32"/>
      <use x="368.505859" xlink:href="#DejaVuSans-118"/>
      <use x="427.685547" xlink:href="#DejaVuSans-111"/>
      <use x="488.867188" xlink:href="#DejaVuSans-110"/>
      <use x="552.246094" xlink:href="#DejaVuSans-32"/>
      <use x="584.033203" xlink:href="#DejaVuSans-70"/>
      <use x="632.427734" xlink:href="#DejaVuSans-228"/>
      <use x="693.707031" xlink:href="#DejaVuSans-108"/>
      <use x="721.490234" xlink:href="#DejaVuSans-108"/>
      <use x="749.273438" xlink:href="#DejaVuSans-101"/>
      <use x="810.796875" xlink:href="#DejaVuSans-110"/>
     </g>
    </g>
   </g>
   <g id="line2d_19">
    <path clip-path="url(#pf0bd4e1dcf)" d="M 105.354773 479.86747 
L 117.880025 478.920651 
L 130.405278 478.920651 
L 142.93053 474.186557 
L 155.455783 464.718369 
L 167.981035 464.718369 
L 180.506288 461.877913 
L 193.03154 392.760141 
L 205.556793 370.983308 
L 218.082045 351.100114 
L 230.607298 331.216919 
L 243.132551 312.280543 
L 255.657803 302.812355 
L 268.183056 291.45053 
L 280.708308 281.035523 
L 293.233561 271.567335 
L 305.758813 257.365053 
L 318.284066 247.896865 
L 330.809318 237.481858 
L 343.334571 235.58822 
L 355.859823 226.120033 
L 380.910328 217.598663 
L 393.435581 210.970932 
L 405.960833 207.183657 
L 418.486086 199.609106 
L 431.011338 195.821831 
L 456.061843 191.087737 
L 468.587096 186.353643 
L 481.112348 177.832274 
L 493.637601 161.736354 
L 506.162854 158.895898 
L 518.688106 157.00226 
L 543.738611 151.321348 
L 556.263864 150.374529 
L 568.789116 147.534072 
L 581.314369 141.85316 
L 606.364874 127.650878 
L 631.415379 112.501777 
L 643.940631 111.554958 
L 656.465884 106.820864 
L 668.991136 103.033589 
L 681.516389 98.299495 
L 694.041641 92.618582 
L 719.092146 86.937669 
L 731.617399 84.097213 
L 744.142652 81.256757 
L 756.667904 74.629025 
L 769.193157 70.84175 
L 781.718409 70.84175 
L 806.768914 71.788569 
L 819.294167 66.107656 
L 831.819419 65.160837 
L 856.869924 61.373562 
L 869.395177 59.479924 
L 894.445682 59.479924 
L 906.970934 56.639468 
L 932.021439 50.958555 
L 944.546692 50.958555 
L 994.647702 48.118099 
L 1007.172955 47.17128 
L 1019.698207 47.17128 
L 1032.22346 47.17128 
L 1044.748712 46.224461 
L 1069.799217 46.224461 
L 1082.32447 46.224461 
L 1094.849722 45.277642 
L 1119.900227 42.437186 
" style="fill:none;stroke:#dbcd00;stroke-linecap:square;stroke-width:2;"/>
    <defs>
     <path d="M 0 1.5 
C 0.397805 1.5 0.77937 1.341951 1.06066 1.06066 
C 1.341951 0.77937 1.5 0.397805 1.5 0 
C 1.5 -0.397805 1.341951 -0.77937 1.06066 -1.06066 
C 0.77937 -1.341951 0.397805 -1.5 0 -1.5 
C -0.397805 -1.5 -0.77937 -1.341951 -1.06066 -1.06066 
C -1.341951 -0.77937 -1.5 -0.397805 -1.5 0 
C -1.5 0.397805 -1.341951 0.77937 -1.06066 1.06066 
C -0.77937 1.341951 -0.397805 1.5 0 1.5 
z
" id="m179cdea954" style="stroke:#dbcd00;"/>
    </defs>
    <g clip-path="url(#pf0bd4e1dcf)">
     <use style="fill:#dbcd00;stroke:#dbcd00;" x="105.354773" xlink:href="#m179cdea954" y="479.86747"/>
     <use style="fill:#dbcd00;stroke:#dbcd00;" x="117.880025" xlink:href="#m179cdea954" y="478.920651"/>
     <use style="fill:#dbcd00;stroke:#dbcd00;" x="130.405278" xlink:href="#m179cdea954" y="478.920651"/>
     <use style="fill:#dbcd00;stroke:#dbcd00;" x="142.93053" xlink:href="#m179cdea954" y="474.186557"/>
     <use style="fill:#dbcd00;stroke:#dbcd00;" x="155.455783" xlink:href="#m179cdea954" y="464.718369"/>
     <use style="fill:#dbcd00;stroke:#dbcd00;" x="167.981035" xlink:href="#m179cdea954" y="464.718369"/>
     <use style="fill:#dbcd00;stroke:#dbcd00;" x="180.506288" xlink:href="#m179cdea954" y="461.877913"/>
     <use style="fill:#dbcd00;stroke:#dbcd00;" x="193.03154" xlink:href="#m179cdea954" y="392.760141"/>
     <use style="fill:#dbcd00;stroke:#dbcd00;" x="205.556793" xlink:href="#m179cdea954" y="370.983308"/>
     <use style="fill:#dbcd00;stroke:#dbcd00;" x="218.082045" xlink:href="#m179cdea954" y="351.100114"/>
     <use style="fill:#dbcd00;stroke:#dbcd00;" x="230.607298" xlink:href="#m179cdea954" y="331.216919"/>
     <use style="fill:#dbcd00;stroke:#dbcd00;" x="243.132551" xlink:href="#m179cdea954" y="312.280543"/>
     <use style="fill:#dbcd00;stroke:#dbcd00;" x="255.657803" xlink:href="#m179cdea954" y="302.812355"/>
     <use style="fill:#dbcd00;stroke:#dbcd00;" x="268.183056" xlink:href="#m179cdea954" y="291.45053"/>
     <use style="fill:#dbcd00;stroke:#dbcd00;" x="280.708308" xlink:href="#m179cdea954" y="281.035523"/>
     <use style="fill:#dbcd00;stroke:#dbcd00;" x="293.233561" xlink:href="#m179cdea954" y="271.567335"/>
     <use style="fill:#dbcd00;stroke:#dbcd00;" x="305.758813" xlink:href="#m179cdea954" y="257.365053"/>
     <use style="fill:#dbcd00;stroke:#dbcd00;" x="318.284066" xlink:href="#m179cdea954" y="247.896865"/>
     <use style="fill:#dbcd00;stroke:#dbcd00;" x="330.809318" xlink:href="#m179cdea954" y="237.481858"/>
     <use style="fill:#dbcd00;stroke:#dbcd00;" x="343.334571" xlink:href="#m179cdea954" y="235.58822"/>
     <use style="fill:#dbcd00;stroke:#dbcd00;" x="355.859823" xlink:href="#m179cdea954" y="226.120033"/>
     <use style="fill:#dbcd00;stroke:#dbcd00;" x="380.910328" xlink:href="#m179cdea954" y="217.598663"/>
     <use style="fill:#dbcd00;stroke:#dbcd00;" x="393.435581" xlink:href="#m179cdea954" y="210.970932"/>
     <use style="fill:#dbcd00;stroke:#dbcd00;" x="405.960833" xlink:href="#m179cdea954" y="207.183657"/>
     <use style="fill:#dbcd00;stroke:#dbcd00;" x="418.486086" xlink:href="#m179cdea954" y="199.609106"/>
     <use style="fill:#dbcd00;stroke:#dbcd00;" x="431.011338" xlink:href="#m179cdea954" y="195.821831"/>
     <use style="fill:#dbcd00;stroke:#dbcd00;" x="456.061843" xlink:href="#m179cdea954" y="191.087737"/>
     <use style="fill:#dbcd00;stroke:#dbcd00;" x="468.587096" xlink:href="#m179cdea954" y="186.353643"/>
     <use style="fill:#dbcd00;stroke:#dbcd00;" x="481.112348" xlink:href="#m179cdea954" y="177.832274"/>
     <use style="fill:#dbcd00;stroke:#dbcd00;" x="493.637601" xlink:href="#m179cdea954" y="161.736354"/>
     <use style="fill:#dbcd00;stroke:#dbcd00;" x="506.162854" xlink:href="#m179cdea954" y="158.895898"/>
     <use style="fill:#dbcd00;stroke:#dbcd00;" x="518.688106" xlink:href="#m179cdea954" y="157.00226"/>
     <use style="fill:#dbcd00;stroke:#dbcd00;" x="543.738611" xlink:href="#m179cdea954" y="151.321348"/>
     <use style="fill:#dbcd00;stroke:#dbcd00;" x="556.263864" xlink:href="#m179cdea954" y="150.374529"/>
     <use style="fill:#dbcd00;stroke:#dbcd00;" x="568.789116" xlink:href="#m179cdea954" y="147.534072"/>
     <use style="fill:#dbcd00;stroke:#dbcd00;" x="581.314369" xlink:href="#m179cdea954" y="141.85316"/>
     <use style="fill:#dbcd00;stroke:#dbcd00;" x="606.364874" xlink:href="#m179cdea954" y="127.650878"/>
     <use style="fill:#dbcd00;stroke:#dbcd00;" x="631.415379" xlink:href="#m179cdea954" y="112.501777"/>
     <use style="fill:#dbcd00;stroke:#dbcd00;" x="643.940631" xlink:href="#m179cdea954" y="111.554958"/>
     <use style="fill:#dbcd00;stroke:#dbcd00;" x="656.465884" xlink:href="#m179cdea954" y="106.820864"/>
     <use style="fill:#dbcd00;stroke:#dbcd00;" x="668.991136" xlink:href="#m179cdea954" y="103.033589"/>
     <use style="fill:#dbcd00;stroke:#dbcd00;" x="681.516389" xlink:href="#m179cdea954" y="98.299495"/>
     <use style="fill:#dbcd00;stroke:#dbcd00;" x="694.041641" xlink:href="#m179cdea954" y="92.618582"/>
     <use style="fill:#dbcd00;stroke:#dbcd00;" x="719.092146" xlink:href="#m179cdea954" y="86.937669"/>
     <use style="fill:#dbcd00;stroke:#dbcd00;" x="731.617399" xlink:href="#m179cdea954" y="84.097213"/>
     <use style="fill:#dbcd00;stroke:#dbcd00;" x="744.142652" xlink:href="#m179cdea954" y="81.256757"/>
     <use style="fill:#dbcd00;stroke:#dbcd00;" x="756.667904" xlink:href="#m179cdea954" y="74.629025"/>
     <use style="fill:#dbcd00;stroke:#dbcd00;" x="769.193157" xlink:href="#m179cdea954" y="70.84175"/>
     <use style="fill:#dbcd00;stroke:#dbcd00;" x="781.718409" xlink:href="#m179cdea954" y="70.84175"/>
     <use style="fill:#dbcd00;stroke:#dbcd00;" x="806.768914" xlink:href="#m179cdea954" y="71.788569"/>
     <use style="fill:#dbcd00;stroke:#dbcd00;" x="819.294167" xlink:href="#m179cdea954" y="66.107656"/>
     <use style="fill:#dbcd00;stroke:#dbcd00;" x="831.819419" xlink:href="#m179cdea954" y="65.160837"/>
     <use style="fill:#dbcd00;stroke:#dbcd00;" x="856.869924" xlink:href="#m179cdea954" y="61.373562"/>
     <use style="fill:#dbcd00;stroke:#dbcd00;" x="869.395177" xlink:href="#m179cdea954" y="59.479924"/>
     <use style="fill:#dbcd00;stroke:#dbcd00;" x="894.445682" xlink:href="#m179cdea954" y="59.479924"/>
     <use style="fill:#dbcd00;stroke:#dbcd00;" x="906.970934" xlink:href="#m179cdea954" y="56.639468"/>
     <use style="fill:#dbcd00;stroke:#dbcd00;" x="932.021439" xlink:href="#m179cdea954" y="50.958555"/>
     <use style="fill:#dbcd00;stroke:#dbcd00;" x="944.546692" xlink:href="#m179cdea954" y="50.958555"/>
     <use style="fill:#dbcd00;stroke:#dbcd00;" x="994.647702" xlink:href="#m179cdea954" y="48.118099"/>
     <use style="fill:#dbcd00;stroke:#dbcd00;" x="1007.172955" xlink:href="#m179cdea954" y="47.17128"/>
     <use style="fill:#dbcd00;stroke:#dbcd00;" x="1019.698207" xlink:href="#m179cdea954" y="47.17128"/>
     <use style="fill:#dbcd00;stroke:#dbcd00;" x="1032.22346" xlink:href="#m179cdea954" y="47.17128"/>
     <use style="fill:#dbcd00;stroke:#dbcd00;" x="1044.748712" xlink:href="#m179cdea954" y="46.224461"/>
     <use style="fill:#dbcd00;stroke:#dbcd00;" x="1069.799217" xlink:href="#m179cdea954" y="46.224461"/>
     <use style="fill:#dbcd00;stroke:#dbcd00;" x="1082.32447" xlink:href="#m179cdea954" y="46.224461"/>
     <use style="fill:#dbcd00;stroke:#dbcd00;" x="1094.849722" xlink:href="#m179cdea954" y="45.277642"/>
     <use style="fill:#dbcd00;stroke:#dbcd00;" x="1119.900227" xlink:href="#m179cdea954" y="42.437186"/>
    </g>
   </g>
   <g id="line2d_20">
    <path clip-path="url(#pf0bd4e1dcf)" d="M 105.354773 295.237805 
L 117.880025 286.716436 
L 130.405278 261.152328 
L 142.93053 257.365053 
L 155.455783 243.162771 
L 167.981035 235.58822 
L 180.506288 234.641402 
L 193.03154 292.397348 
L 205.556793 307.546449 
L 218.082045 317.014637 
L 230.607298 321.748731 
L 243.132551 337.844651 
L 255.657803 346.36602 
L 268.183056 356.781027 
L 280.708308 364.355577 
L 293.233561 370.03649 
L 305.758813 373.823765 
L 318.284066 378.557859 
L 330.809318 380.451496 
L 343.334571 382.345134 
L 355.859823 388.972866 
L 380.910328 374.770584 
L 393.435581 378.557859 
L 405.960833 377.61104 
L 418.486086 378.557859 
L 431.011338 379.504678 
L 456.061843 388.026047 
L 468.587096 391.813322 
L 481.112348 398.441054 
L 493.637601 412.643336 
L 506.162854 398.441054 
L 518.688106 399.387872 
L 543.738611 403.175148 
L 556.263864 403.175148 
L 568.789116 401.28151 
L 581.314369 406.962423 
L 606.364874 414.536973 
L 631.415379 424.95198 
L 643.940631 425.898799 
L 656.465884 430.632893 
L 668.991136 434.420168 
L 681.516389 439.154262 
L 694.041641 443.888356 
L 719.092146 448.62245 
L 731.617399 451.462906 
L 744.142652 454.303363 
L 756.667904 460.931094 
L 769.193157 459.984275 
L 781.718409 459.037457 
L 806.768914 457.143819 
L 819.294167 462.824732 
L 831.819419 463.771551 
L 856.869924 466.612007 
L 869.395177 468.505645 
L 894.445682 468.505645 
L 906.970934 471.346101 
L 932.021439 478.920651 
L 944.546692 477.973833 
L 994.647702 475.133376 
L 1007.172955 474.186557 
L 1019.698207 472.29292 
L 1032.22346 472.29292 
L 1044.748712 473.239739 
L 1069.799217 471.346101 
L 1082.32447 470.399282 
L 1094.849722 470.399282 
L 1119.900227 461.877913 
" style="fill:none;stroke:#2792cb;stroke-linecap:square;stroke-width:2;"/>
    <defs>
     <path d="M 0 1.5 
C 0.397805 1.5 0.77937 1.341951 1.06066 1.06066 
C 1.341951 0.77937 1.5 0.397805 1.5 0 
C 1.5 -0.397805 1.341951 -0.77937 1.06066 -1.06066 
C 0.77937 -1.341951 0.397805 -1.5 0 -1.5 
C -0.397805 -1.5 -0.77937 -1.341951 -1.06066 -1.06066 
C -1.341951 -0.77937 -1.5 -0.397805 -1.5 0 
C -1.5 0.397805 -1.341951 0.77937 -1.06066 1.06066 
C -0.77937 1.341951 -0.397805 1.5 0 1.5 
z
" id="m41469ed79c" style="stroke:#2792cb;"/>
    </defs>
    <g clip-path="url(#pf0bd4e1dcf)">
     <use style="fill:#2792cb;stroke:#2792cb;" x="105.354773" xlink:href="#m41469ed79c" y="295.237805"/>
     <use style="fill:#2792cb;stroke:#2792cb;" x="117.880025" xlink:href="#m41469ed79c" y="286.716436"/>
     <use style="fill:#2792cb;stroke:#2792cb;" x="130.405278" xlink:href="#m41469ed79c" y="261.152328"/>
     <use style="fill:#2792cb;stroke:#2792cb;" x="142.93053" xlink:href="#m41469ed79c" y="257.365053"/>
     <use style="fill:#2792cb;stroke:#2792cb;" x="155.455783" xlink:href="#m41469ed79c" y="243.162771"/>
     <use style="fill:#2792cb;stroke:#2792cb;" x="167.981035" xlink:href="#m41469ed79c" y="235.58822"/>
     <use style="fill:#2792cb;stroke:#2792cb;" x="180.506288" xlink:href="#m41469ed79c" y="234.641402"/>
     <use style="fill:#2792cb;stroke:#2792cb;" x="193.03154" xlink:href="#m41469ed79c" y="292.397348"/>
     <use style="fill:#2792cb;stroke:#2792cb;" x="205.556793" xlink:href="#m41469ed79c" y="307.546449"/>
     <use style="fill:#2792cb;stroke:#2792cb;" x="218.082045" xlink:href="#m41469ed79c" y="317.014637"/>
     <use style="fill:#2792cb;stroke:#2792cb;" x="230.607298" xlink:href="#m41469ed79c" y="321.748731"/>
     <use style="fill:#2792cb;stroke:#2792cb;" x="243.132551" xlink:href="#m41469ed79c" y="337.844651"/>
     <use style="fill:#2792cb;stroke:#2792cb;" x="255.657803" xlink:href="#m41469ed79c" y="346.36602"/>
     <use style="fill:#2792cb;stroke:#2792cb;" x="268.183056" xlink:href="#m41469ed79c" y="356.781027"/>
     <use style="fill:#2792cb;stroke:#2792cb;" x="280.708308" xlink:href="#m41469ed79c" y="364.355577"/>
     <use style="fill:#2792cb;stroke:#2792cb;" x="293.233561" xlink:href="#m41469ed79c" y="370.03649"/>
     <use style="fill:#2792cb;stroke:#2792cb;" x="305.758813" xlink:href="#m41469ed79c" y="373.823765"/>
     <use style="fill:#2792cb;stroke:#2792cb;" x="318.284066" xlink:href="#m41469ed79c" y="378.557859"/>
     <use style="fill:#2792cb;stroke:#2792cb;" x="330.809318" xlink:href="#m41469ed79c" y="380.451496"/>
     <use style="fill:#2792cb;stroke:#2792cb;" x="343.334571" xlink:href="#m41469ed79c" y="382.345134"/>
     <use style="fill:#2792cb;stroke:#2792cb;" x="355.859823" xlink:href="#m41469ed79c" y="388.972866"/>
     <use style="fill:#2792cb;stroke:#2792cb;" x="380.910328" xlink:href="#m41469ed79c" y="374.770584"/>
     <use style="fill:#2792cb;stroke:#2792cb;" x="393.435581" xlink:href="#m41469ed79c" y="378.557859"/>
     <use style="fill:#2792cb;stroke:#2792cb;" x="405.960833" xlink:href="#m41469ed79c" y="377.61104"/>
     <use style="fill:#2792cb;stroke:#2792cb;" x="418.486086" xlink:href="#m41469ed79c" y="378.557859"/>
     <use style="fill:#2792cb;stroke:#2792cb;" x="431.011338" xlink:href="#m41469ed79c" y="379.504678"/>
     <use style="fill:#2792cb;stroke:#2792cb;" x="456.061843" xlink:href="#m41469ed79c" y="388.026047"/>
     <use style="fill:#2792cb;stroke:#2792cb;" x="468.587096" xlink:href="#m41469ed79c" y="391.813322"/>
     <use style="fill:#2792cb;stroke:#2792cb;" x="481.112348" xlink:href="#m41469ed79c" y="398.441054"/>
     <use style="fill:#2792cb;stroke:#2792cb;" x="493.637601" xlink:href="#m41469ed79c" y="412.643336"/>
     <use style="fill:#2792cb;stroke:#2792cb;" x="506.162854" xlink:href="#m41469ed79c" y="398.441054"/>
     <use style="fill:#2792cb;stroke:#2792cb;" x="518.688106" xlink:href="#m41469ed79c" y="399.387872"/>
     <use style="fill:#2792cb;stroke:#2792cb;" x="543.738611" xlink:href="#m41469ed79c" y="403.175148"/>
     <use style="fill:#2792cb;stroke:#2792cb;" x="556.263864" xlink:href="#m41469ed79c" y="403.175148"/>
     <use style="fill:#2792cb;stroke:#2792cb;" x="568.789116" xlink:href="#m41469ed79c" y="401.28151"/>
     <use style="fill:#2792cb;stroke:#2792cb;" x="581.314369" xlink:href="#m41469ed79c" y="406.962423"/>
     <use style="fill:#2792cb;stroke:#2792cb;" x="606.364874" xlink:href="#m41469ed79c" y="414.536973"/>
     <use style="fill:#2792cb;stroke:#2792cb;" x="631.415379" xlink:href="#m41469ed79c" y="424.95198"/>
     <use style="fill:#2792cb;stroke:#2792cb;" x="643.940631" xlink:href="#m41469ed79c" y="425.898799"/>
     <use style="fill:#2792cb;stroke:#2792cb;" x="656.465884" xlink:href="#m41469ed79c" y="430.632893"/>
     <use style="fill:#2792cb;stroke:#2792cb;" x="668.991136" xlink:href="#m41469ed79c" y="434.420168"/>
     <use style="fill:#2792cb;stroke:#2792cb;" x="681.516389" xlink:href="#m41469ed79c" y="439.154262"/>
     <use style="fill:#2792cb;stroke:#2792cb;" x="694.041641" xlink:href="#m41469ed79c" y="443.888356"/>
     <use style="fill:#2792cb;stroke:#2792cb;" x="719.092146" xlink:href="#m41469ed79c" y="448.62245"/>
     <use style="fill:#2792cb;stroke:#2792cb;" x="731.617399" xlink:href="#m41469ed79c" y="451.462906"/>
     <use style="fill:#2792cb;stroke:#2792cb;" x="744.142652" xlink:href="#m41469ed79c" y="454.303363"/>
     <use style="fill:#2792cb;stroke:#2792cb;" x="756.667904" xlink:href="#m41469ed79c" y="460.931094"/>
     <use style="fill:#2792cb;stroke:#2792cb;" x="769.193157" xlink:href="#m41469ed79c" y="459.984275"/>
     <use style="fill:#2792cb;stroke:#2792cb;" x="781.718409" xlink:href="#m41469ed79c" y="459.037457"/>
     <use style="fill:#2792cb;stroke:#2792cb;" x="806.768914" xlink:href="#m41469ed79c" y="457.143819"/>
     <use style="fill:#2792cb;stroke:#2792cb;" x="819.294167" xlink:href="#m41469ed79c" y="462.824732"/>
     <use style="fill:#2792cb;stroke:#2792cb;" x="831.819419" xlink:href="#m41469ed79c" y="463.771551"/>
     <use style="fill:#2792cb;stroke:#2792cb;" x="856.869924" xlink:href="#m41469ed79c" y="466.612007"/>
     <use style="fill:#2792cb;stroke:#2792cb;" x="869.395177" xlink:href="#m41469ed79c" y="468.505645"/>
     <use style="fill:#2792cb;stroke:#2792cb;" x="894.445682" xlink:href="#m41469ed79c" y="468.505645"/>
     <use style="fill:#2792cb;stroke:#2792cb;" x="906.970934" xlink:href="#m41469ed79c" y="471.346101"/>
     <use style="fill:#2792cb;stroke:#2792cb;" x="932.021439" xlink:href="#m41469ed79c" y="478.920651"/>
     <use style="fill:#2792cb;stroke:#2792cb;" x="944.546692" xlink:href="#m41469ed79c" y="477.973833"/>
     <use style="fill:#2792cb;stroke:#2792cb;" x="994.647702" xlink:href="#m41469ed79c" y="475.133376"/>
     <use style="fill:#2792cb;stroke:#2792cb;" x="1007.172955" xlink:href="#m41469ed79c" y="474.186557"/>
     <use style="fill:#2792cb;stroke:#2792cb;" x="1019.698207" xlink:href="#m41469ed79c" y="472.29292"/>
     <use style="fill:#2792cb;stroke:#2792cb;" x="1032.22346" xlink:href="#m41469ed79c" y="472.29292"/>
     <use style="fill:#2792cb;stroke:#2792cb;" x="1044.748712" xlink:href="#m41469ed79c" y="473.239739"/>
     <use style="fill:#2792cb;stroke:#2792cb;" x="1069.799217" xlink:href="#m41469ed79c" y="471.346101"/>
     <use style="fill:#2792cb;stroke:#2792cb;" x="1082.32447" xlink:href="#m41469ed79c" y="470.399282"/>
     <use style="fill:#2792cb;stroke:#2792cb;" x="1094.849722" xlink:href="#m41469ed79c" y="470.399282"/>
     <use style="fill:#2792cb;stroke:#2792cb;" x="1119.900227" xlink:href="#m41469ed79c" y="461.877913"/>
    </g>
   </g>
   <g id="patch_3">
    <path d="M 54.6275 501.738984 
L 1170.6275 501.738984 
" style="fill:none;stroke:#000000;stroke-linecap:square;stroke-linejoin:miter;stroke-width:0.8;"/>
   </g>
   <g id="legend_1">
    <g id="line2d_21">
     <path d="M 63.6275 25.237422 
L 83.6275 25.237422 
" style="fill:none;stroke:#dbcd00;stroke-linecap:square;stroke-width:2;"/>
    </g>
    <g id="line2d_22">
     <g>
      <use style="fill:#dbcd00;stroke:#dbcd00;" x="73.6275" xlink:href="#m179cdea954" y="25.237422"/>
     </g>
    </g>
    <g id="text_14">
     <!-- Genesene -->
     <defs>
      <path d="M 59.515625 10.40625 
L 59.515625 29.984375 
L 43.40625 29.984375 
L 43.40625 38.09375 
L 69.28125 38.09375 
L 69.28125 6.78125 
Q 63.578125 2.734375 56.6875 0.65625 
Q 49.8125 -1.421875 42 -1.421875 
Q 24.90625 -1.421875 15.25 8.5625 
Q 5.609375 18.5625 5.609375 36.375 
Q 5.609375 54.25 15.25 64.234375 
Q 24.90625 74.21875 42 74.21875 
Q 49.125 74.21875 55.546875 72.453125 
Q 61.96875 70.703125 67.390625 67.28125 
L 67.390625 56.78125 
Q 61.921875 61.421875 55.765625 63.765625 
Q 49.609375 66.109375 42.828125 66.109375 
Q 29.4375 66.109375 22.71875 58.640625 
Q 16.015625 51.171875 16.015625 36.375 
Q 16.015625 21.625 22.71875 14.15625 
Q 29.4375 6.6875 42.828125 6.6875 
Q 48.046875 6.6875 52.140625 7.59375 
Q 56.25 8.5 59.515625 10.40625 
z
" id="DejaVuSans-71"/>
      <path d="M 44.28125 53.078125 
L 44.28125 44.578125 
Q 40.484375 46.53125 36.375 47.5 
Q 32.28125 48.484375 27.875 48.484375 
Q 21.1875 48.484375 17.84375 46.4375 
Q 14.5 44.390625 14.5 40.28125 
Q 14.5 37.15625 16.890625 35.375 
Q 19.28125 33.59375 26.515625 31.984375 
L 29.59375 31.296875 
Q 39.15625 29.25 43.1875 25.515625 
Q 47.21875 21.78125 47.21875 15.09375 
Q 47.21875 7.46875 41.1875 3.015625 
Q 35.15625 -1.421875 24.609375 -1.421875 
Q 20.21875 -1.421875 15.453125 -0.5625 
Q 10.6875 0.296875 5.421875 2 
L 5.421875 11.28125 
Q 10.40625 8.6875 15.234375 7.390625 
Q 20.0625 6.109375 24.8125 6.109375 
Q 31.15625 6.109375 34.5625 8.28125 
Q 37.984375 10.453125 37.984375 14.40625 
Q 37.984375 18.0625 35.515625 20.015625 
Q 33.0625 21.96875 24.703125 23.78125 
L 21.578125 24.515625 
Q 13.234375 26.265625 9.515625 29.90625 
Q 5.8125 33.546875 5.8125 39.890625 
Q 5.8125 47.609375 11.28125 51.796875 
Q 16.75 56 26.8125 56 
Q 31.78125 56 36.171875 55.265625 
Q 40.578125 54.546875 44.28125 53.078125 
z
" id="DejaVuSans-115"/>
     </defs>
     <g transform="translate(91.6275 28.737422)scale(0.1 -0.1)">
      <use xlink:href="#DejaVuSans-71"/>
      <use x="77.490234" xlink:href="#DejaVuSans-101"/>
      <use x="139.013672" xlink:href="#DejaVuSans-110"/>
      <use x="202.392578" xlink:href="#DejaVuSans-101"/>
      <use x="263.916016" xlink:href="#DejaVuSans-115"/>
      <use x="316.015625" xlink:href="#DejaVuSans-101"/>
      <use x="377.539062" xlink:href="#DejaVuSans-110"/>
      <use x="440.917969" xlink:href="#DejaVuSans-101"/>
     </g>
    </g>
    <g id="line2d_23">
     <path d="M 63.6275 39.915547 
L 83.6275 39.915547 
" style="fill:none;stroke:#2792cb;stroke-linecap:square;stroke-width:2;"/>
    </g>
    <g id="line2d_24">
     <g>
      <use style="fill:#2792cb;stroke:#2792cb;" x="73.6275" xlink:href="#m41469ed79c" y="39.915547"/>
     </g>
    </g>
    <g id="text_15">
     <!-- Erkrankte -->
     <defs>
      <path d="M 9.8125 72.90625 
L 55.90625 72.90625 
L 55.90625 64.59375 
L 19.671875 64.59375 
L 19.671875 43.015625 
L 54.390625 43.015625 
L 54.390625 34.71875 
L 19.671875 34.71875 
L 19.671875 8.296875 
L 56.78125 8.296875 
L 56.78125 0 
L 9.8125 0 
z
" id="DejaVuSans-69"/>
      <path d="M 41.109375 46.296875 
Q 39.59375 47.171875 37.8125 47.578125 
Q 36.03125 48 33.890625 48 
Q 26.265625 48 22.1875 43.046875 
Q 18.109375 38.09375 18.109375 28.8125 
L 18.109375 0 
L 9.078125 0 
L 9.078125 54.6875 
L 18.109375 54.6875 
L 18.109375 46.1875 
Q 20.953125 51.171875 25.484375 53.578125 
Q 30.03125 56 36.53125 56 
Q 37.453125 56 38.578125 55.875 
Q 39.703125 55.765625 41.0625 55.515625 
z
" id="DejaVuSans-114"/>
      <path d="M 9.078125 75.984375 
L 18.109375 75.984375 
L 18.109375 31.109375 
L 44.921875 54.6875 
L 56.390625 54.6875 
L 27.390625 29.109375 
L 57.625 0 
L 45.90625 0 
L 18.109375 26.703125 
L 18.109375 0 
L 9.078125 0 
z
" id="DejaVuSans-107"/>
      <path d="M 18.3125 70.21875 
L 18.3125 54.6875 
L 36.8125 54.6875 
L 36.8125 47.703125 
L 18.3125 47.703125 
L 18.3125 18.015625 
Q 18.3125 11.328125 20.140625 9.421875 
Q 21.96875 7.515625 27.59375 7.515625 
L 36.8125 7.515625 
L 36.8125 0 
L 27.59375 0 
Q 17.1875 0 13.234375 3.875 
Q 9.28125 7.765625 9.28125 18.015625 
L 9.28125 47.703125 
L 2.6875 47.703125 
L 2.6875 54.6875 
L 9.28125 54.6875 
L 9.28125 70.21875 
z
" id="DejaVuSans-116"/>
     </defs>
     <g transform="translate(91.6275 43.415547)scale(0.1 -0.1)">
      <use xlink:href="#DejaVuSans-69"/>
      <use x="63.183594" xlink:href="#DejaVuSans-114"/>
      <use x="104.296875" xlink:href="#DejaVuSans-107"/>
      <use x="162.207031" xlink:href="#DejaVuSans-114"/>
      <use x="203.320312" xlink:href="#DejaVuSans-97"/>
      <use x="264.599609" xlink:href="#DejaVuSans-110"/>
      <use x="327.978516" xlink:href="#DejaVuSans-107"/>
      <use x="385.888672" xlink:href="#DejaVuSans-116"/>
      <use x="425.097656" xlink:href="#DejaVuSans-101"/>
     </g>
    </g>
   </g>
  </g>
 </g>
 <defs>
  <clipPath id="pf0bd4e1dcf">
   <rect height="489.6" width="1116" x="54.6275" y="12.138984"/>
  </clipPath>
 </defs>
</svg>
