<?xml version="1.0" encoding="utf-8" standalone="no"?>
<!DOCTYPE svg PUBLIC "-//W3C//DTD SVG 1.1//EN"
  "http://www.w3.org/Graphics/SVG/1.1/DTD/svg11.dtd">
<!-- Created with matplotlib (https://matplotlib.org/) -->
<svg height="564.610093pt" version="1.1" viewBox="0 0 1186.09875 564.610093" width="1186.09875pt" xmlns="http://www.w3.org/2000/svg" xmlns:xlink="http://www.w3.org/1999/xlink">
 <defs>
  <style type="text/css">
*{stroke-linecap:butt;stroke-linejoin:round;}
  </style>
 </defs>
 <g id="figure_1">
  <g id="patch_1">
   <path d="M 0 564.610093 
L 1186.09875 564.610093 
L 1186.09875 0 
L 0 0 
z
" style="fill:#ffffff;"/>
  </g>
  <g id="axes_1">
   <g id="patch_2">
    <path d="M 62.89875 501.738984 
L 1178.89875 501.738984 
L 1178.89875 12.138984 
L 62.89875 12.138984 
z
" style="fill:#ffffff;"/>
   </g>
   <g id="matplotlib.axis_1">
    <g id="xtick_1">
     <g id="line2d_1">
      <defs>
       <path d="M 0 0 
L 0 3.5 
" id="m5976c1c124" style="stroke:#000000;stroke-width:0.8;"/>
      </defs>
      <g>
       <use style="stroke:#000000;stroke-width:0.8;" x="204.935114" xlink:href="#m5976c1c124" y="501.738984"/>
      </g>
     </g>
     <g id="text_1">
      <!-- 2020-04-01 -->
      <defs>
       <path d="M 19.1875 8.296875 
L 53.609375 8.296875 
L 53.609375 0 
L 7.328125 0 
L 7.328125 8.296875 
Q 12.9375 14.109375 22.625 23.890625 
Q 32.328125 33.6875 34.8125 36.53125 
Q 39.546875 41.84375 41.421875 45.53125 
Q 43.3125 49.21875 43.3125 52.78125 
Q 43.3125 58.59375 39.234375 62.25 
Q 35.15625 65.921875 28.609375 65.921875 
Q 23.96875 65.921875 18.8125 64.3125 
Q 13.671875 62.703125 7.8125 59.421875 
L 7.8125 69.390625 
Q 13.765625 71.78125 18.9375 73 
Q 24.125 74.21875 28.421875 74.21875 
Q 39.75 74.21875 46.484375 68.546875 
Q 53.21875 62.890625 53.21875 53.421875 
Q 53.21875 48.921875 51.53125 44.890625 
Q 49.859375 40.875 45.40625 35.40625 
Q 44.1875 33.984375 37.640625 27.21875 
Q 31.109375 20.453125 19.1875 8.296875 
z
" id="DejaVuSans-50"/>
       <path d="M 31.78125 66.40625 
Q 24.171875 66.40625 20.328125 58.90625 
Q 16.5 51.421875 16.5 36.375 
Q 16.5 21.390625 20.328125 13.890625 
Q 24.171875 6.390625 31.78125 6.390625 
Q 39.453125 6.390625 43.28125 13.890625 
Q 47.125 21.390625 47.125 36.375 
Q 47.125 51.421875 43.28125 58.90625 
Q 39.453125 66.40625 31.78125 66.40625 
z
M 31.78125 74.21875 
Q 44.046875 74.21875 50.515625 64.515625 
Q 56.984375 54.828125 56.984375 36.375 
Q 56.984375 17.96875 50.515625 8.265625 
Q 44.046875 -1.421875 31.78125 -1.421875 
Q 19.53125 -1.421875 13.0625 8.265625 
Q 6.59375 17.96875 6.59375 36.375 
Q 6.59375 54.828125 13.0625 64.515625 
Q 19.53125 74.21875 31.78125 74.21875 
z
" id="DejaVuSans-48"/>
       <path d="M 4.890625 31.390625 
L 31.203125 31.390625 
L 31.203125 23.390625 
L 4.890625 23.390625 
z
" id="DejaVuSans-45"/>
       <path d="M 37.796875 64.3125 
L 12.890625 25.390625 
L 37.796875 25.390625 
z
M 35.203125 72.90625 
L 47.609375 72.90625 
L 47.609375 25.390625 
L 58.015625 25.390625 
L 58.015625 17.1875 
L 47.609375 17.1875 
L 47.609375 0 
L 37.796875 0 
L 37.796875 17.1875 
L 4.890625 17.1875 
L 4.890625 26.703125 
z
" id="DejaVuSans-52"/>
       <path d="M 12.40625 8.296875 
L 28.515625 8.296875 
L 28.515625 63.921875 
L 10.984375 60.40625 
L 10.984375 69.390625 
L 28.421875 72.90625 
L 38.28125 72.90625 
L 38.28125 8.296875 
L 54.390625 8.296875 
L 54.390625 0 
L 12.40625 0 
z
" id="DejaVuSans-49"/>
      </defs>
      <g transform="translate(138.154827 555.068713)rotate(-30)scale(0.13 -0.13)">
       <use xlink:href="#DejaVuSans-50"/>
       <use x="63.623047" xlink:href="#DejaVuSans-48"/>
       <use x="127.246094" xlink:href="#DejaVuSans-50"/>
       <use x="190.869141" xlink:href="#DejaVuSans-48"/>
       <use x="254.492188" xlink:href="#DejaVuSans-45"/>
       <use x="290.576172" xlink:href="#DejaVuSans-48"/>
       <use x="354.199219" xlink:href="#DejaVuSans-52"/>
       <use x="417.822266" xlink:href="#DejaVuSans-45"/>
       <use x="453.90625" xlink:href="#DejaVuSans-48"/>
       <use x="517.529297" xlink:href="#DejaVuSans-49"/>
      </g>
     </g>
    </g>
    <g id="xtick_2">
     <g id="line2d_2">
      <g>
       <use style="stroke:#000000;stroke-width:0.8;" x="346.971477" xlink:href="#m5976c1c124" y="501.738984"/>
      </g>
     </g>
     <g id="text_2">
      <!-- 2020-04-15 -->
      <defs>
       <path d="M 10.796875 72.90625 
L 49.515625 72.90625 
L 49.515625 64.59375 
L 19.828125 64.59375 
L 19.828125 46.734375 
Q 21.96875 47.46875 24.109375 47.828125 
Q 26.265625 48.1875 28.421875 48.1875 
Q 40.625 48.1875 47.75 41.5 
Q 54.890625 34.8125 54.890625 23.390625 
Q 54.890625 11.625 47.5625 5.09375 
Q 40.234375 -1.421875 26.90625 -1.421875 
Q 22.3125 -1.421875 17.546875 -0.640625 
Q 12.796875 0.140625 7.71875 1.703125 
L 7.71875 11.625 
Q 12.109375 9.234375 16.796875 8.0625 
Q 21.484375 6.890625 26.703125 6.890625 
Q 35.15625 6.890625 40.078125 11.328125 
Q 45.015625 15.765625 45.015625 23.390625 
Q 45.015625 31 40.078125 35.4375 
Q 35.15625 39.890625 26.703125 39.890625 
Q 22.75 39.890625 18.8125 39.015625 
Q 14.890625 38.140625 10.796875 36.28125 
z
" id="DejaVuSans-53"/>
      </defs>
      <g transform="translate(280.191191 555.068713)rotate(-30)scale(0.13 -0.13)">
       <use xlink:href="#DejaVuSans-50"/>
       <use x="63.623047" xlink:href="#DejaVuSans-48"/>
       <use x="127.246094" xlink:href="#DejaVuSans-50"/>
       <use x="190.869141" xlink:href="#DejaVuSans-48"/>
       <use x="254.492188" xlink:href="#DejaVuSans-45"/>
       <use x="290.576172" xlink:href="#DejaVuSans-48"/>
       <use x="354.199219" xlink:href="#DejaVuSans-52"/>
       <use x="417.822266" xlink:href="#DejaVuSans-45"/>
       <use x="453.90625" xlink:href="#DejaVuSans-49"/>
       <use x="517.529297" xlink:href="#DejaVuSans-53"/>
      </g>
     </g>
    </g>
    <g id="xtick_3">
     <g id="line2d_3">
      <g>
       <use style="stroke:#000000;stroke-width:0.8;" x="509.29875" xlink:href="#m5976c1c124" y="501.738984"/>
      </g>
     </g>
     <g id="text_3">
      <!-- 2020-05-01 -->
      <g transform="translate(442.518463 555.068713)rotate(-30)scale(0.13 -0.13)">
       <use xlink:href="#DejaVuSans-50"/>
       <use x="63.623047" xlink:href="#DejaVuSans-48"/>
       <use x="127.246094" xlink:href="#DejaVuSans-50"/>
       <use x="190.869141" xlink:href="#DejaVuSans-48"/>
       <use x="254.492188" xlink:href="#DejaVuSans-45"/>
       <use x="290.576172" xlink:href="#DejaVuSans-48"/>
       <use x="354.199219" xlink:href="#DejaVuSans-53"/>
       <use x="417.822266" xlink:href="#DejaVuSans-45"/>
       <use x="453.90625" xlink:href="#DejaVuSans-48"/>
       <use x="517.529297" xlink:href="#DejaVuSans-49"/>
      </g>
     </g>
    </g>
    <g id="xtick_4">
     <g id="line2d_4">
      <g>
       <use style="stroke:#000000;stroke-width:0.8;" x="651.335114" xlink:href="#m5976c1c124" y="501.738984"/>
      </g>
     </g>
     <g id="text_4">
      <!-- 2020-05-15 -->
      <g transform="translate(584.554827 555.068713)rotate(-30)scale(0.13 -0.13)">
       <use xlink:href="#DejaVuSans-50"/>
       <use x="63.623047" xlink:href="#DejaVuSans-48"/>
       <use x="127.246094" xlink:href="#DejaVuSans-50"/>
       <use x="190.869141" xlink:href="#DejaVuSans-48"/>
       <use x="254.492188" xlink:href="#DejaVuSans-45"/>
       <use x="290.576172" xlink:href="#DejaVuSans-48"/>
       <use x="354.199219" xlink:href="#DejaVuSans-53"/>
       <use x="417.822266" xlink:href="#DejaVuSans-45"/>
       <use x="453.90625" xlink:href="#DejaVuSans-49"/>
       <use x="517.529297" xlink:href="#DejaVuSans-53"/>
      </g>
     </g>
    </g>
    <g id="xtick_5">
     <g id="line2d_5">
      <g>
       <use style="stroke:#000000;stroke-width:0.8;" x="823.807841" xlink:href="#m5976c1c124" y="501.738984"/>
      </g>
     </g>
     <g id="text_5">
      <!-- 2020-06-01 -->
      <defs>
       <path d="M 33.015625 40.375 
Q 26.375 40.375 22.484375 35.828125 
Q 18.609375 31.296875 18.609375 23.390625 
Q 18.609375 15.53125 22.484375 10.953125 
Q 26.375 6.390625 33.015625 6.390625 
Q 39.65625 6.390625 43.53125 10.953125 
Q 47.40625 15.53125 47.40625 23.390625 
Q 47.40625 31.296875 43.53125 35.828125 
Q 39.65625 40.375 33.015625 40.375 
z
M 52.59375 71.296875 
L 52.59375 62.3125 
Q 48.875 64.0625 45.09375 64.984375 
Q 41.3125 65.921875 37.59375 65.921875 
Q 27.828125 65.921875 22.671875 59.328125 
Q 17.53125 52.734375 16.796875 39.40625 
Q 19.671875 43.65625 24.015625 45.921875 
Q 28.375 48.1875 33.59375 48.1875 
Q 44.578125 48.1875 50.953125 41.515625 
Q 57.328125 34.859375 57.328125 23.390625 
Q 57.328125 12.15625 50.6875 5.359375 
Q 44.046875 -1.421875 33.015625 -1.421875 
Q 20.359375 -1.421875 13.671875 8.265625 
Q 6.984375 17.96875 6.984375 36.375 
Q 6.984375 53.65625 15.1875 63.9375 
Q 23.390625 74.21875 37.203125 74.21875 
Q 40.921875 74.21875 44.703125 73.484375 
Q 48.484375 72.75 52.59375 71.296875 
z
" id="DejaVuSans-54"/>
      </defs>
      <g transform="translate(757.027554 555.068713)rotate(-30)scale(0.13 -0.13)">
       <use xlink:href="#DejaVuSans-50"/>
       <use x="63.623047" xlink:href="#DejaVuSans-48"/>
       <use x="127.246094" xlink:href="#DejaVuSans-50"/>
       <use x="190.869141" xlink:href="#DejaVuSans-48"/>
       <use x="254.492188" xlink:href="#DejaVuSans-45"/>
       <use x="290.576172" xlink:href="#DejaVuSans-48"/>
       <use x="354.199219" xlink:href="#DejaVuSans-54"/>
       <use x="417.822266" xlink:href="#DejaVuSans-45"/>
       <use x="453.90625" xlink:href="#DejaVuSans-48"/>
       <use x="517.529297" xlink:href="#DejaVuSans-49"/>
      </g>
     </g>
    </g>
    <g id="xtick_6">
     <g id="line2d_6">
      <g>
       <use style="stroke:#000000;stroke-width:0.8;" x="965.844205" xlink:href="#m5976c1c124" y="501.738984"/>
      </g>
     </g>
     <g id="text_6">
      <!-- 2020-06-15 -->
      <g transform="translate(899.063918 555.068713)rotate(-30)scale(0.13 -0.13)">
       <use xlink:href="#DejaVuSans-50"/>
       <use x="63.623047" xlink:href="#DejaVuSans-48"/>
       <use x="127.246094" xlink:href="#DejaVuSans-50"/>
       <use x="190.869141" xlink:href="#DejaVuSans-48"/>
       <use x="254.492188" xlink:href="#DejaVuSans-45"/>
       <use x="290.576172" xlink:href="#DejaVuSans-48"/>
       <use x="354.199219" xlink:href="#DejaVuSans-54"/>
       <use x="417.822266" xlink:href="#DejaVuSans-45"/>
       <use x="453.90625" xlink:href="#DejaVuSans-49"/>
       <use x="517.529297" xlink:href="#DejaVuSans-53"/>
      </g>
     </g>
    </g>
    <g id="xtick_7">
     <g id="line2d_7">
      <g>
       <use style="stroke:#000000;stroke-width:0.8;" x="1128.171477" xlink:href="#m5976c1c124" y="501.738984"/>
      </g>
     </g>
     <g id="text_7">
      <!-- 2020-07-01 -->
      <defs>
       <path d="M 8.203125 72.90625 
L 55.078125 72.90625 
L 55.078125 68.703125 
L 28.609375 0 
L 18.3125 0 
L 43.21875 64.59375 
L 8.203125 64.59375 
z
" id="DejaVuSans-55"/>
      </defs>
      <g transform="translate(1061.391191 555.068713)rotate(-30)scale(0.13 -0.13)">
       <use xlink:href="#DejaVuSans-50"/>
       <use x="63.623047" xlink:href="#DejaVuSans-48"/>
       <use x="127.246094" xlink:href="#DejaVuSans-50"/>
       <use x="190.869141" xlink:href="#DejaVuSans-48"/>
       <use x="254.492188" xlink:href="#DejaVuSans-45"/>
       <use x="290.576172" xlink:href="#DejaVuSans-48"/>
       <use x="354.199219" xlink:href="#DejaVuSans-55"/>
       <use x="417.822266" xlink:href="#DejaVuSans-45"/>
       <use x="453.90625" xlink:href="#DejaVuSans-48"/>
       <use x="517.529297" xlink:href="#DejaVuSans-49"/>
      </g>
     </g>
    </g>
   </g>
   <g id="matplotlib.axis_2">
    <g id="ytick_1">
     <g id="line2d_8">
      <path clip-path="url(#p94a752e5b8)" d="M 62.89875 486.131101 
L 1178.89875 486.131101 
" style="fill:none;stroke:#b0b0b0;stroke-linecap:square;stroke-width:0.8;"/>
     </g>
     <g id="line2d_9">
      <defs>
       <path d="M 0 0 
L -3.5 0 
" id="m9a15186c6c" style="stroke:#000000;stroke-width:0.8;"/>
      </defs>
      <g>
       <use style="stroke:#000000;stroke-width:0.8;" x="62.89875" xlink:href="#m9a15186c6c" y="486.131101"/>
      </g>
     </g>
     <g id="text_8">
      <!-- 0 -->
      <g transform="translate(47.6275 491.070085)scale(0.13 -0.13)">
       <use xlink:href="#DejaVuSans-48"/>
      </g>
     </g>
    </g>
    <g id="ytick_2">
     <g id="line2d_10">
      <path clip-path="url(#p94a752e5b8)" d="M 62.89875 452.274521 
L 1178.89875 452.274521 
" style="fill:none;stroke:#b0b0b0;stroke-linecap:square;stroke-width:0.8;"/>
     </g>
     <g id="line2d_11">
      <g>
       <use style="stroke:#000000;stroke-width:0.8;" x="62.89875" xlink:href="#m9a15186c6c" y="452.274521"/>
      </g>
     </g>
     <g id="text_9">
      <!-- 100 -->
      <g transform="translate(31.085 457.213506)scale(0.13 -0.13)">
       <use xlink:href="#DejaVuSans-49"/>
       <use x="63.623047" xlink:href="#DejaVuSans-48"/>
       <use x="127.246094" xlink:href="#DejaVuSans-48"/>
      </g>
     </g>
    </g>
    <g id="ytick_3">
     <g id="line2d_12">
      <path clip-path="url(#p94a752e5b8)" d="M 62.89875 418.417942 
L 1178.89875 418.417942 
" style="fill:none;stroke:#b0b0b0;stroke-linecap:square;stroke-width:0.8;"/>
     </g>
     <g id="line2d_13">
      <g>
       <use style="stroke:#000000;stroke-width:0.8;" x="62.89875" xlink:href="#m9a15186c6c" y="418.417942"/>
      </g>
     </g>
     <g id="text_10">
      <!-- 200 -->
      <g transform="translate(31.085 423.356926)scale(0.13 -0.13)">
       <use xlink:href="#DejaVuSans-50"/>
       <use x="63.623047" xlink:href="#DejaVuSans-48"/>
       <use x="127.246094" xlink:href="#DejaVuSans-48"/>
      </g>
     </g>
    </g>
    <g id="ytick_4">
     <g id="line2d_14">
      <path clip-path="url(#p94a752e5b8)" d="M 62.89875 384.561362 
L 1178.89875 384.561362 
" style="fill:none;stroke:#b0b0b0;stroke-linecap:square;stroke-width:0.8;"/>
     </g>
     <g id="line2d_15">
      <g>
       <use style="stroke:#000000;stroke-width:0.8;" x="62.89875" xlink:href="#m9a15186c6c" y="384.561362"/>
      </g>
     </g>
     <g id="text_11">
      <!-- 300 -->
      <defs>
       <path d="M 40.578125 39.3125 
Q 47.65625 37.796875 51.625 33 
Q 55.609375 28.21875 55.609375 21.1875 
Q 55.609375 10.40625 48.1875 4.484375 
Q 40.765625 -1.421875 27.09375 -1.421875 
Q 22.515625 -1.421875 17.65625 -0.515625 
Q 12.796875 0.390625 7.625 2.203125 
L 7.625 11.71875 
Q 11.71875 9.328125 16.59375 8.109375 
Q 21.484375 6.890625 26.8125 6.890625 
Q 36.078125 6.890625 40.9375 10.546875 
Q 45.796875 14.203125 45.796875 21.1875 
Q 45.796875 27.640625 41.28125 31.265625 
Q 36.765625 34.90625 28.71875 34.90625 
L 20.21875 34.90625 
L 20.21875 43.015625 
L 29.109375 43.015625 
Q 36.375 43.015625 40.234375 45.921875 
Q 44.09375 48.828125 44.09375 54.296875 
Q 44.09375 59.90625 40.109375 62.90625 
Q 36.140625 65.921875 28.71875 65.921875 
Q 24.65625 65.921875 20.015625 65.03125 
Q 15.375 64.15625 9.8125 62.3125 
L 9.8125 71.09375 
Q 15.4375 72.65625 20.34375 73.4375 
Q 25.25 74.21875 29.59375 74.21875 
Q 40.828125 74.21875 47.359375 69.109375 
Q 53.90625 64.015625 53.90625 55.328125 
Q 53.90625 49.265625 50.4375 45.09375 
Q 46.96875 40.921875 40.578125 39.3125 
z
" id="DejaVuSans-51"/>
      </defs>
      <g transform="translate(31.085 389.500346)scale(0.13 -0.13)">
       <use xlink:href="#DejaVuSans-51"/>
       <use x="63.623047" xlink:href="#DejaVuSans-48"/>
       <use x="127.246094" xlink:href="#DejaVuSans-48"/>
      </g>
     </g>
    </g>
    <g id="ytick_5">
     <g id="line2d_16">
      <path clip-path="url(#p94a752e5b8)" d="M 62.89875 350.704782 
L 1178.89875 350.704782 
" style="fill:none;stroke:#b0b0b0;stroke-linecap:square;stroke-width:0.8;"/>
     </g>
     <g id="line2d_17">
      <g>
       <use style="stroke:#000000;stroke-width:0.8;" x="62.89875" xlink:href="#m9a15186c6c" y="350.704782"/>
      </g>
     </g>
     <g id="text_12">
      <!-- 400 -->
      <g transform="translate(31.085 355.643766)scale(0.13 -0.13)">
       <use xlink:href="#DejaVuSans-52"/>
       <use x="63.623047" xlink:href="#DejaVuSans-48"/>
       <use x="127.246094" xlink:href="#DejaVuSans-48"/>
      </g>
     </g>
    </g>
    <g id="ytick_6">
     <g id="line2d_18">
      <path clip-path="url(#p94a752e5b8)" d="M 62.89875 316.848202 
L 1178.89875 316.848202 
" style="fill:none;stroke:#b0b0b0;stroke-linecap:square;stroke-width:0.8;"/>
     </g>
     <g id="line2d_19">
      <g>
       <use style="stroke:#000000;stroke-width:0.8;" x="62.89875" xlink:href="#m9a15186c6c" y="316.848202"/>
      </g>
     </g>
     <g id="text_13">
      <!-- 500 -->
      <g transform="translate(31.085 321.787187)scale(0.13 -0.13)">
       <use xlink:href="#DejaVuSans-53"/>
       <use x="63.623047" xlink:href="#DejaVuSans-48"/>
       <use x="127.246094" xlink:href="#DejaVuSans-48"/>
      </g>
     </g>
    </g>
    <g id="ytick_7">
     <g id="line2d_20">
      <path clip-path="url(#p94a752e5b8)" d="M 62.89875 282.991623 
L 1178.89875 282.991623 
" style="fill:none;stroke:#b0b0b0;stroke-linecap:square;stroke-width:0.8;"/>
     </g>
     <g id="line2d_21">
      <g>
       <use style="stroke:#000000;stroke-width:0.8;" x="62.89875" xlink:href="#m9a15186c6c" y="282.991623"/>
      </g>
     </g>
     <g id="text_14">
      <!-- 600 -->
      <g transform="translate(31.085 287.930607)scale(0.13 -0.13)">
       <use xlink:href="#DejaVuSans-54"/>
       <use x="63.623047" xlink:href="#DejaVuSans-48"/>
       <use x="127.246094" xlink:href="#DejaVuSans-48"/>
      </g>
     </g>
    </g>
    <g id="ytick_8">
     <g id="line2d_22">
      <path clip-path="url(#p94a752e5b8)" d="M 62.89875 249.135043 
L 1178.89875 249.135043 
" style="fill:none;stroke:#b0b0b0;stroke-linecap:square;stroke-width:0.8;"/>
     </g>
     <g id="line2d_23">
      <g>
       <use style="stroke:#000000;stroke-width:0.8;" x="62.89875" xlink:href="#m9a15186c6c" y="249.135043"/>
      </g>
     </g>
     <g id="text_15">
      <!-- 700 -->
      <g transform="translate(31.085 254.074027)scale(0.13 -0.13)">
       <use xlink:href="#DejaVuSans-55"/>
       <use x="63.623047" xlink:href="#DejaVuSans-48"/>
       <use x="127.246094" xlink:href="#DejaVuSans-48"/>
      </g>
     </g>
    </g>
    <g id="ytick_9">
     <g id="line2d_24">
      <path clip-path="url(#p94a752e5b8)" d="M 62.89875 215.278463 
L 1178.89875 215.278463 
" style="fill:none;stroke:#b0b0b0;stroke-linecap:square;stroke-width:0.8;"/>
     </g>
     <g id="line2d_25">
      <g>
       <use style="stroke:#000000;stroke-width:0.8;" x="62.89875" xlink:href="#m9a15186c6c" y="215.278463"/>
      </g>
     </g>
     <g id="text_16">
      <!-- 800 -->
      <defs>
       <path d="M 31.78125 34.625 
Q 24.75 34.625 20.71875 30.859375 
Q 16.703125 27.09375 16.703125 20.515625 
Q 16.703125 13.921875 20.71875 10.15625 
Q 24.75 6.390625 31.78125 6.390625 
Q 38.8125 6.390625 42.859375 10.171875 
Q 46.921875 13.96875 46.921875 20.515625 
Q 46.921875 27.09375 42.890625 30.859375 
Q 38.875 34.625 31.78125 34.625 
z
M 21.921875 38.8125 
Q 15.578125 40.375 12.03125 44.71875 
Q 8.5 49.078125 8.5 55.328125 
Q 8.5 64.0625 14.71875 69.140625 
Q 20.953125 74.21875 31.78125 74.21875 
Q 42.671875 74.21875 48.875 69.140625 
Q 55.078125 64.0625 55.078125 55.328125 
Q 55.078125 49.078125 51.53125 44.71875 
Q 48 40.375 41.703125 38.8125 
Q 48.828125 37.15625 52.796875 32.3125 
Q 56.78125 27.484375 56.78125 20.515625 
Q 56.78125 9.90625 50.3125 4.234375 
Q 43.84375 -1.421875 31.78125 -1.421875 
Q 19.734375 -1.421875 13.25 4.234375 
Q 6.78125 9.90625 6.78125 20.515625 
Q 6.78125 27.484375 10.78125 32.3125 
Q 14.796875 37.15625 21.921875 38.8125 
z
M 18.3125 54.390625 
Q 18.3125 48.734375 21.84375 45.5625 
Q 25.390625 42.390625 31.78125 42.390625 
Q 38.140625 42.390625 41.71875 45.5625 
Q 45.3125 48.734375 45.3125 54.390625 
Q 45.3125 60.0625 41.71875 63.234375 
Q 38.140625 66.40625 31.78125 66.40625 
Q 25.390625 66.40625 21.84375 63.234375 
Q 18.3125 60.0625 18.3125 54.390625 
z
" id="DejaVuSans-56"/>
      </defs>
      <g transform="translate(31.085 220.217447)scale(0.13 -0.13)">
       <use xlink:href="#DejaVuSans-56"/>
       <use x="63.623047" xlink:href="#DejaVuSans-48"/>
       <use x="127.246094" xlink:href="#DejaVuSans-48"/>
      </g>
     </g>
    </g>
    <g id="ytick_10">
     <g id="line2d_26">
      <path clip-path="url(#p94a752e5b8)" d="M 62.89875 181.421883 
L 1178.89875 181.421883 
" style="fill:none;stroke:#b0b0b0;stroke-linecap:square;stroke-width:0.8;"/>
     </g>
     <g id="line2d_27">
      <g>
       <use style="stroke:#000000;stroke-width:0.8;" x="62.89875" xlink:href="#m9a15186c6c" y="181.421883"/>
      </g>
     </g>
     <g id="text_17">
      <!-- 900 -->
      <defs>
       <path d="M 10.984375 1.515625 
L 10.984375 10.5 
Q 14.703125 8.734375 18.5 7.8125 
Q 22.3125 6.890625 25.984375 6.890625 
Q 35.75 6.890625 40.890625 13.453125 
Q 46.046875 20.015625 46.78125 33.40625 
Q 43.953125 29.203125 39.59375 26.953125 
Q 35.25 24.703125 29.984375 24.703125 
Q 19.046875 24.703125 12.671875 31.3125 
Q 6.296875 37.9375 6.296875 49.421875 
Q 6.296875 60.640625 12.9375 67.421875 
Q 19.578125 74.21875 30.609375 74.21875 
Q 43.265625 74.21875 49.921875 64.515625 
Q 56.59375 54.828125 56.59375 36.375 
Q 56.59375 19.140625 48.40625 8.859375 
Q 40.234375 -1.421875 26.421875 -1.421875 
Q 22.703125 -1.421875 18.890625 -0.6875 
Q 15.09375 0.046875 10.984375 1.515625 
z
M 30.609375 32.421875 
Q 37.25 32.421875 41.125 36.953125 
Q 45.015625 41.5 45.015625 49.421875 
Q 45.015625 57.28125 41.125 61.84375 
Q 37.25 66.40625 30.609375 66.40625 
Q 23.96875 66.40625 20.09375 61.84375 
Q 16.21875 57.28125 16.21875 49.421875 
Q 16.21875 41.5 20.09375 36.953125 
Q 23.96875 32.421875 30.609375 32.421875 
z
" id="DejaVuSans-57"/>
      </defs>
      <g transform="translate(31.085 186.360868)scale(0.13 -0.13)">
       <use xlink:href="#DejaVuSans-57"/>
       <use x="63.623047" xlink:href="#DejaVuSans-48"/>
       <use x="127.246094" xlink:href="#DejaVuSans-48"/>
      </g>
     </g>
    </g>
    <g id="ytick_11">
     <g id="line2d_28">
      <path clip-path="url(#p94a752e5b8)" d="M 62.89875 147.565303 
L 1178.89875 147.565303 
" style="fill:none;stroke:#b0b0b0;stroke-linecap:square;stroke-width:0.8;"/>
     </g>
     <g id="line2d_29">
      <g>
       <use style="stroke:#000000;stroke-width:0.8;" x="62.89875" xlink:href="#m9a15186c6c" y="147.565303"/>
      </g>
     </g>
     <g id="text_18">
      <!-- 1000 -->
      <g transform="translate(22.81375 152.504288)scale(0.13 -0.13)">
       <use xlink:href="#DejaVuSans-49"/>
       <use x="63.623047" xlink:href="#DejaVuSans-48"/>
       <use x="127.246094" xlink:href="#DejaVuSans-48"/>
       <use x="190.869141" xlink:href="#DejaVuSans-48"/>
      </g>
     </g>
    </g>
    <g id="ytick_12">
     <g id="line2d_30">
      <path clip-path="url(#p94a752e5b8)" d="M 62.89875 113.708724 
L 1178.89875 113.708724 
" style="fill:none;stroke:#b0b0b0;stroke-linecap:square;stroke-width:0.8;"/>
     </g>
     <g id="line2d_31">
      <g>
       <use style="stroke:#000000;stroke-width:0.8;" x="62.89875" xlink:href="#m9a15186c6c" y="113.708724"/>
      </g>
     </g>
     <g id="text_19">
      <!-- 1100 -->
      <g transform="translate(22.81375 118.647708)scale(0.13 -0.13)">
       <use xlink:href="#DejaVuSans-49"/>
       <use x="63.623047" xlink:href="#DejaVuSans-49"/>
       <use x="127.246094" xlink:href="#DejaVuSans-48"/>
       <use x="190.869141" xlink:href="#DejaVuSans-48"/>
      </g>
     </g>
    </g>
    <g id="ytick_13">
     <g id="line2d_32">
      <path clip-path="url(#p94a752e5b8)" d="M 62.89875 79.852144 
L 1178.89875 79.852144 
" style="fill:none;stroke:#b0b0b0;stroke-linecap:square;stroke-width:0.8;"/>
     </g>
     <g id="line2d_33">
      <g>
       <use style="stroke:#000000;stroke-width:0.8;" x="62.89875" xlink:href="#m9a15186c6c" y="79.852144"/>
      </g>
     </g>
     <g id="text_20">
      <!-- 1200 -->
      <g transform="translate(22.81375 84.791128)scale(0.13 -0.13)">
       <use xlink:href="#DejaVuSans-49"/>
       <use x="63.623047" xlink:href="#DejaVuSans-50"/>
       <use x="127.246094" xlink:href="#DejaVuSans-48"/>
       <use x="190.869141" xlink:href="#DejaVuSans-48"/>
      </g>
     </g>
    </g>
    <g id="ytick_14">
     <g id="line2d_34">
      <path clip-path="url(#p94a752e5b8)" d="M 62.89875 45.995564 
L 1178.89875 45.995564 
" style="fill:none;stroke:#b0b0b0;stroke-linecap:square;stroke-width:0.8;"/>
     </g>
     <g id="line2d_35">
      <g>
       <use style="stroke:#000000;stroke-width:0.8;" x="62.89875" xlink:href="#m9a15186c6c" y="45.995564"/>
      </g>
     </g>
     <g id="text_21">
      <!-- 1300 -->
      <g transform="translate(22.81375 50.934549)scale(0.13 -0.13)">
       <use xlink:href="#DejaVuSans-49"/>
       <use x="63.623047" xlink:href="#DejaVuSans-51"/>
       <use x="127.246094" xlink:href="#DejaVuSans-48"/>
       <use x="190.869141" xlink:href="#DejaVuSans-48"/>
      </g>
     </g>
    </g>
    <g id="ytick_15">
     <g id="line2d_36">
      <path clip-path="url(#p94a752e5b8)" d="M 62.89875 12.138984 
L 1178.89875 12.138984 
" style="fill:none;stroke:#b0b0b0;stroke-linecap:square;stroke-width:0.8;"/>
     </g>
     <g id="line2d_37">
      <g>
       <use style="stroke:#000000;stroke-width:0.8;" x="62.89875" xlink:href="#m9a15186c6c" y="12.138984"/>
      </g>
     </g>
     <g id="text_22">
      <!-- 1400 -->
      <g transform="translate(22.81375 17.077969)scale(0.13 -0.13)">
       <use xlink:href="#DejaVuSans-49"/>
       <use x="63.623047" xlink:href="#DejaVuSans-52"/>
       <use x="127.246094" xlink:href="#DejaVuSans-48"/>
       <use x="190.869141" xlink:href="#DejaVuSans-48"/>
      </g>
     </g>
    </g>
    <g id="text_23">
     <!-- Anzahl von Fällen -->
     <defs>
      <path d="M 34.1875 63.1875 
L 20.796875 26.90625 
L 47.609375 26.90625 
z
M 28.609375 72.90625 
L 39.796875 72.90625 
L 67.578125 0 
L 57.328125 0 
L 50.6875 18.703125 
L 17.828125 18.703125 
L 11.1875 0 
L 0.78125 0 
z
" id="DejaVuSans-65"/>
      <path d="M 54.890625 33.015625 
L 54.890625 0 
L 45.90625 0 
L 45.90625 32.71875 
Q 45.90625 40.484375 42.875 44.328125 
Q 39.84375 48.1875 33.796875 48.1875 
Q 26.515625 48.1875 22.3125 43.546875 
Q 18.109375 38.921875 18.109375 30.90625 
L 18.109375 0 
L 9.078125 0 
L 9.078125 54.6875 
L 18.109375 54.6875 
L 18.109375 46.1875 
Q 21.34375 51.125 25.703125 53.5625 
Q 30.078125 56 35.796875 56 
Q 45.21875 56 50.046875 50.171875 
Q 54.890625 44.34375 54.890625 33.015625 
z
" id="DejaVuSans-110"/>
      <path d="M 5.515625 54.6875 
L 48.1875 54.6875 
L 48.1875 46.484375 
L 14.40625 7.171875 
L 48.1875 7.171875 
L 48.1875 0 
L 4.296875 0 
L 4.296875 8.203125 
L 38.09375 47.515625 
L 5.515625 47.515625 
z
" id="DejaVuSans-122"/>
      <path d="M 34.28125 27.484375 
Q 23.390625 27.484375 19.1875 25 
Q 14.984375 22.515625 14.984375 16.5 
Q 14.984375 11.71875 18.140625 8.90625 
Q 21.296875 6.109375 26.703125 6.109375 
Q 34.1875 6.109375 38.703125 11.40625 
Q 43.21875 16.703125 43.21875 25.484375 
L 43.21875 27.484375 
z
M 52.203125 31.203125 
L 52.203125 0 
L 43.21875 0 
L 43.21875 8.296875 
Q 40.140625 3.328125 35.546875 0.953125 
Q 30.953125 -1.421875 24.3125 -1.421875 
Q 15.921875 -1.421875 10.953125 3.296875 
Q 6 8.015625 6 15.921875 
Q 6 25.140625 12.171875 29.828125 
Q 18.359375 34.515625 30.609375 34.515625 
L 43.21875 34.515625 
L 43.21875 35.40625 
Q 43.21875 41.609375 39.140625 45 
Q 35.0625 48.390625 27.6875 48.390625 
Q 23 48.390625 18.546875 47.265625 
Q 14.109375 46.140625 10.015625 43.890625 
L 10.015625 52.203125 
Q 14.9375 54.109375 19.578125 55.046875 
Q 24.21875 56 28.609375 56 
Q 40.484375 56 46.34375 49.84375 
Q 52.203125 43.703125 52.203125 31.203125 
z
" id="DejaVuSans-97"/>
      <path d="M 54.890625 33.015625 
L 54.890625 0 
L 45.90625 0 
L 45.90625 32.71875 
Q 45.90625 40.484375 42.875 44.328125 
Q 39.84375 48.1875 33.796875 48.1875 
Q 26.515625 48.1875 22.3125 43.546875 
Q 18.109375 38.921875 18.109375 30.90625 
L 18.109375 0 
L 9.078125 0 
L 9.078125 75.984375 
L 18.109375 75.984375 
L 18.109375 46.1875 
Q 21.34375 51.125 25.703125 53.5625 
Q 30.078125 56 35.796875 56 
Q 45.21875 56 50.046875 50.171875 
Q 54.890625 44.34375 54.890625 33.015625 
z
" id="DejaVuSans-104"/>
      <path d="M 9.421875 75.984375 
L 18.40625 75.984375 
L 18.40625 0 
L 9.421875 0 
z
" id="DejaVuSans-108"/>
      <path id="DejaVuSans-32"/>
      <path d="M 2.984375 54.6875 
L 12.5 54.6875 
L 29.59375 8.796875 
L 46.6875 54.6875 
L 56.203125 54.6875 
L 35.6875 0 
L 23.484375 0 
z
" id="DejaVuSans-118"/>
      <path d="M 30.609375 48.390625 
Q 23.390625 48.390625 19.1875 42.75 
Q 14.984375 37.109375 14.984375 27.296875 
Q 14.984375 17.484375 19.15625 11.84375 
Q 23.34375 6.203125 30.609375 6.203125 
Q 37.796875 6.203125 41.984375 11.859375 
Q 46.1875 17.53125 46.1875 27.296875 
Q 46.1875 37.015625 41.984375 42.703125 
Q 37.796875 48.390625 30.609375 48.390625 
z
M 30.609375 56 
Q 42.328125 56 49.015625 48.375 
Q 55.71875 40.765625 55.71875 27.296875 
Q 55.71875 13.875 49.015625 6.21875 
Q 42.328125 -1.421875 30.609375 -1.421875 
Q 18.84375 -1.421875 12.171875 6.21875 
Q 5.515625 13.875 5.515625 27.296875 
Q 5.515625 40.765625 12.171875 48.375 
Q 18.84375 56 30.609375 56 
z
" id="DejaVuSans-111"/>
      <path d="M 9.8125 72.90625 
L 51.703125 72.90625 
L 51.703125 64.59375 
L 19.671875 64.59375 
L 19.671875 43.109375 
L 48.578125 43.109375 
L 48.578125 34.8125 
L 19.671875 34.8125 
L 19.671875 0 
L 9.8125 0 
z
" id="DejaVuSans-70"/>
      <path d="M 34.28125 27.484375 
Q 23.390625 27.484375 19.1875 25 
Q 14.984375 22.515625 14.984375 16.5 
Q 14.984375 11.71875 18.140625 8.90625 
Q 21.296875 6.109375 26.703125 6.109375 
Q 34.1875 6.109375 38.703125 11.40625 
Q 43.21875 16.703125 43.21875 25.484375 
L 43.21875 27.484375 
z
M 52.203125 31.203125 
L 52.203125 0 
L 43.21875 0 
L 43.21875 8.296875 
Q 40.140625 3.328125 35.546875 0.953125 
Q 30.953125 -1.421875 24.3125 -1.421875 
Q 15.921875 -1.421875 10.953125 3.296875 
Q 6 8.015625 6 15.921875 
Q 6 25.140625 12.171875 29.828125 
Q 18.359375 34.515625 30.609375 34.515625 
L 43.21875 34.515625 
L 43.21875 35.40625 
Q 43.21875 41.609375 39.140625 45 
Q 35.0625 48.390625 27.6875 48.390625 
Q 23 48.390625 18.546875 47.265625 
Q 14.109375 46.140625 10.015625 43.890625 
L 10.015625 52.203125 
Q 14.9375 54.109375 19.578125 55.046875 
Q 24.21875 56 28.609375 56 
Q 40.484375 56 46.34375 49.84375 
Q 52.203125 43.703125 52.203125 31.203125 
z
M 33.59375 75.78125 
L 43.5 75.78125 
L 43.5 65.921875 
L 33.59375 65.921875 
z
M 14.5 75.78125 
L 24.40625 75.78125 
L 24.40625 65.921875 
L 14.5 65.921875 
z
" id="DejaVuSans-228"/>
      <path d="M 56.203125 29.59375 
L 56.203125 25.203125 
L 14.890625 25.203125 
Q 15.484375 15.921875 20.484375 11.0625 
Q 25.484375 6.203125 34.421875 6.203125 
Q 39.59375 6.203125 44.453125 7.46875 
Q 49.3125 8.734375 54.109375 11.28125 
L 54.109375 2.78125 
Q 49.265625 0.734375 44.1875 -0.34375 
Q 39.109375 -1.421875 33.890625 -1.421875 
Q 20.796875 -1.421875 13.15625 6.1875 
Q 5.515625 13.8125 5.515625 26.8125 
Q 5.515625 40.234375 12.765625 48.109375 
Q 20.015625 56 32.328125 56 
Q 43.359375 56 49.78125 48.890625 
Q 56.203125 41.796875 56.203125 29.59375 
z
M 47.21875 32.234375 
Q 47.125 39.59375 43.09375 43.984375 
Q 39.0625 48.390625 32.421875 48.390625 
Q 24.90625 48.390625 20.390625 44.140625 
Q 15.875 39.890625 15.1875 32.171875 
z
" id="DejaVuSans-101"/>
     </defs>
     <g transform="translate(16.318125 309.388359)rotate(-90)scale(0.12 -0.12)">
      <use xlink:href="#DejaVuSans-65"/>
      <use x="68.408203" xlink:href="#DejaVuSans-110"/>
      <use x="131.787109" xlink:href="#DejaVuSans-122"/>
      <use x="184.277344" xlink:href="#DejaVuSans-97"/>
      <use x="245.556641" xlink:href="#DejaVuSans-104"/>
      <use x="308.935547" xlink:href="#DejaVuSans-108"/>
      <use x="336.71875" xlink:href="#DejaVuSans-32"/>
      <use x="368.505859" xlink:href="#DejaVuSans-118"/>
      <use x="427.685547" xlink:href="#DejaVuSans-111"/>
      <use x="488.867188" xlink:href="#DejaVuSans-110"/>
      <use x="552.246094" xlink:href="#DejaVuSans-32"/>
      <use x="584.033203" xlink:href="#DejaVuSans-70"/>
      <use x="632.427734" xlink:href="#DejaVuSans-228"/>
      <use x="693.707031" xlink:href="#DejaVuSans-108"/>
      <use x="721.490234" xlink:href="#DejaVuSans-108"/>
      <use x="749.273438" xlink:href="#DejaVuSans-101"/>
      <use x="810.796875" xlink:href="#DejaVuSans-110"/>
     </g>
    </g>
   </g>
   <g id="line2d_38">
    <path clip-path="url(#p94a752e5b8)" d="M 113.626023 480.375483 
L 123.771477 478.682654 
L 133.916932 475.296996 
L 144.062386 469.541377 
L 154.207841 464.124324 
L 164.353295 460.4001 
L 174.49875 459.722969 
L 184.644205 454.644482 
L 194.789659 446.180337 
L 204.935114 440.763284 
L 215.080568 433.653402 
L 225.226023 421.126468 
L 235.371477 407.583836 
L 245.516932 404.198178 
L 255.662386 396.749731 
L 265.807841 385.238493 
L 275.953295 373.727256 
L 286.09875 368.310204 
L 296.244205 356.460401 
L 316.535114 356.460401 
L 336.826023 342.917769 
L 346.971477 332.760795 
L 357.116932 326.328045 
L 367.262386 316.848202 
L 377.407841 310.076886 
L 397.69875 299.242781 
L 407.844205 291.794333 
L 417.989659 285.361583 
L 428.135114 278.928833 
L 438.280568 271.14182 
L 448.426023 262.339109 
L 468.716932 250.827872 
L 478.862386 250.827872 
L 489.007841 236.946674 
L 499.153295 230.85249 
L 519.444205 208.845713 
L 539.735114 197.334476 
L 549.880568 189.547462 
L 560.026023 183.453278 
L 570.171477 179.729054 
L 580.316932 174.312001 
L 590.462386 169.233514 
L 610.753295 165.509291 
L 620.89875 158.060843 
L 631.044205 153.998054 
L 641.189659 147.903869 
L 651.335114 143.84108 
L 661.480568 140.793987 
L 681.771477 136.054066 
L 691.916932 133.34554 
L 702.062386 126.235658 
L 722.353295 121.157171 
L 732.49875 114.724421 
L 752.789659 104.567447 
L 762.935114 98.811829 
L 783.226023 86.962026 
L 793.371477 84.253499 
L 833.953295 80.867841 
L 844.09875 79.175012 
L 854.244205 77.820749 
L 864.389659 75.789354 
L 874.535114 75.789354 
L 894.826023 74.435091 
L 904.971477 74.435091 
L 915.116932 74.435091 
L 935.407841 71.387999 
L 945.553295 71.387999 
L 965.844205 70.710867 
L 986.135114 66.986644 
L 1006.426023 64.278117 
L 1016.571477 64.278117 
L 1036.862386 61.908157 
L 1047.007841 61.231025 
L 1057.153295 61.231025 
L 1067.29875 59.19963 
L 1087.589659 57.506801 
L 1107.880568 56.491104 
L 1118.026023 56.491104 
L 1128.171477 53.105446 
" style="fill:none;stroke:#dbcd00;stroke-linecap:square;stroke-width:2;"/>
    <defs>
     <path d="M 0 1.5 
C 0.397805 1.5 0.77937 1.341951 1.06066 1.06066 
C 1.341951 0.77937 1.5 0.397805 1.5 0 
C 1.5 -0.397805 1.341951 -0.77937 1.06066 -1.06066 
C 0.77937 -1.341951 0.397805 -1.5 0 -1.5 
C -0.397805 -1.5 -0.77937 -1.341951 -1.06066 -1.06066 
C -1.341951 -0.77937 -1.5 -0.397805 -1.5 0 
C -1.5 0.397805 -1.341951 0.77937 -1.06066 1.06066 
C -0.77937 1.341951 -0.397805 1.5 0 1.5 
z
" id="m197053abb9" style="stroke:#dbcd00;"/>
    </defs>
    <g clip-path="url(#p94a752e5b8)">
     <use style="fill:#dbcd00;stroke:#dbcd00;" x="113.626023" xlink:href="#m197053abb9" y="480.375483"/>
     <use style="fill:#dbcd00;stroke:#dbcd00;" x="123.771477" xlink:href="#m197053abb9" y="478.682654"/>
     <use style="fill:#dbcd00;stroke:#dbcd00;" x="133.916932" xlink:href="#m197053abb9" y="475.296996"/>
     <use style="fill:#dbcd00;stroke:#dbcd00;" x="144.062386" xlink:href="#m197053abb9" y="469.541377"/>
     <use style="fill:#dbcd00;stroke:#dbcd00;" x="154.207841" xlink:href="#m197053abb9" y="464.124324"/>
     <use style="fill:#dbcd00;stroke:#dbcd00;" x="164.353295" xlink:href="#m197053abb9" y="460.4001"/>
     <use style="fill:#dbcd00;stroke:#dbcd00;" x="174.49875" xlink:href="#m197053abb9" y="459.722969"/>
     <use style="fill:#dbcd00;stroke:#dbcd00;" x="184.644205" xlink:href="#m197053abb9" y="454.644482"/>
     <use style="fill:#dbcd00;stroke:#dbcd00;" x="194.789659" xlink:href="#m197053abb9" y="446.180337"/>
     <use style="fill:#dbcd00;stroke:#dbcd00;" x="204.935114" xlink:href="#m197053abb9" y="440.763284"/>
     <use style="fill:#dbcd00;stroke:#dbcd00;" x="215.080568" xlink:href="#m197053abb9" y="433.653402"/>
     <use style="fill:#dbcd00;stroke:#dbcd00;" x="225.226023" xlink:href="#m197053abb9" y="421.126468"/>
     <use style="fill:#dbcd00;stroke:#dbcd00;" x="235.371477" xlink:href="#m197053abb9" y="407.583836"/>
     <use style="fill:#dbcd00;stroke:#dbcd00;" x="245.516932" xlink:href="#m197053abb9" y="404.198178"/>
     <use style="fill:#dbcd00;stroke:#dbcd00;" x="255.662386" xlink:href="#m197053abb9" y="396.749731"/>
     <use style="fill:#dbcd00;stroke:#dbcd00;" x="265.807841" xlink:href="#m197053abb9" y="385.238493"/>
     <use style="fill:#dbcd00;stroke:#dbcd00;" x="275.953295" xlink:href="#m197053abb9" y="373.727256"/>
     <use style="fill:#dbcd00;stroke:#dbcd00;" x="286.09875" xlink:href="#m197053abb9" y="368.310204"/>
     <use style="fill:#dbcd00;stroke:#dbcd00;" x="296.244205" xlink:href="#m197053abb9" y="356.460401"/>
     <use style="fill:#dbcd00;stroke:#dbcd00;" x="316.535114" xlink:href="#m197053abb9" y="356.460401"/>
     <use style="fill:#dbcd00;stroke:#dbcd00;" x="336.826023" xlink:href="#m197053abb9" y="342.917769"/>
     <use style="fill:#dbcd00;stroke:#dbcd00;" x="346.971477" xlink:href="#m197053abb9" y="332.760795"/>
     <use style="fill:#dbcd00;stroke:#dbcd00;" x="357.116932" xlink:href="#m197053abb9" y="326.328045"/>
     <use style="fill:#dbcd00;stroke:#dbcd00;" x="367.262386" xlink:href="#m197053abb9" y="316.848202"/>
     <use style="fill:#dbcd00;stroke:#dbcd00;" x="377.407841" xlink:href="#m197053abb9" y="310.076886"/>
     <use style="fill:#dbcd00;stroke:#dbcd00;" x="397.69875" xlink:href="#m197053abb9" y="299.242781"/>
     <use style="fill:#dbcd00;stroke:#dbcd00;" x="407.844205" xlink:href="#m197053abb9" y="291.794333"/>
     <use style="fill:#dbcd00;stroke:#dbcd00;" x="417.989659" xlink:href="#m197053abb9" y="285.361583"/>
     <use style="fill:#dbcd00;stroke:#dbcd00;" x="428.135114" xlink:href="#m197053abb9" y="278.928833"/>
     <use style="fill:#dbcd00;stroke:#dbcd00;" x="438.280568" xlink:href="#m197053abb9" y="271.14182"/>
     <use style="fill:#dbcd00;stroke:#dbcd00;" x="448.426023" xlink:href="#m197053abb9" y="262.339109"/>
     <use style="fill:#dbcd00;stroke:#dbcd00;" x="468.716932" xlink:href="#m197053abb9" y="250.827872"/>
     <use style="fill:#dbcd00;stroke:#dbcd00;" x="478.862386" xlink:href="#m197053abb9" y="250.827872"/>
     <use style="fill:#dbcd00;stroke:#dbcd00;" x="489.007841" xlink:href="#m197053abb9" y="236.946674"/>
     <use style="fill:#dbcd00;stroke:#dbcd00;" x="499.153295" xlink:href="#m197053abb9" y="230.85249"/>
     <use style="fill:#dbcd00;stroke:#dbcd00;" x="519.444205" xlink:href="#m197053abb9" y="208.845713"/>
     <use style="fill:#dbcd00;stroke:#dbcd00;" x="539.735114" xlink:href="#m197053abb9" y="197.334476"/>
     <use style="fill:#dbcd00;stroke:#dbcd00;" x="549.880568" xlink:href="#m197053abb9" y="189.547462"/>
     <use style="fill:#dbcd00;stroke:#dbcd00;" x="560.026023" xlink:href="#m197053abb9" y="183.453278"/>
     <use style="fill:#dbcd00;stroke:#dbcd00;" x="570.171477" xlink:href="#m197053abb9" y="179.729054"/>
     <use style="fill:#dbcd00;stroke:#dbcd00;" x="580.316932" xlink:href="#m197053abb9" y="174.312001"/>
     <use style="fill:#dbcd00;stroke:#dbcd00;" x="590.462386" xlink:href="#m197053abb9" y="169.233514"/>
     <use style="fill:#dbcd00;stroke:#dbcd00;" x="610.753295" xlink:href="#m197053abb9" y="165.509291"/>
     <use style="fill:#dbcd00;stroke:#dbcd00;" x="620.89875" xlink:href="#m197053abb9" y="158.060843"/>
     <use style="fill:#dbcd00;stroke:#dbcd00;" x="631.044205" xlink:href="#m197053abb9" y="153.998054"/>
     <use style="fill:#dbcd00;stroke:#dbcd00;" x="641.189659" xlink:href="#m197053abb9" y="147.903869"/>
     <use style="fill:#dbcd00;stroke:#dbcd00;" x="651.335114" xlink:href="#m197053abb9" y="143.84108"/>
     <use style="fill:#dbcd00;stroke:#dbcd00;" x="661.480568" xlink:href="#m197053abb9" y="140.793987"/>
     <use style="fill:#dbcd00;stroke:#dbcd00;" x="681.771477" xlink:href="#m197053abb9" y="136.054066"/>
     <use style="fill:#dbcd00;stroke:#dbcd00;" x="691.916932" xlink:href="#m197053abb9" y="133.34554"/>
     <use style="fill:#dbcd00;stroke:#dbcd00;" x="702.062386" xlink:href="#m197053abb9" y="126.235658"/>
     <use style="fill:#dbcd00;stroke:#dbcd00;" x="722.353295" xlink:href="#m197053abb9" y="121.157171"/>
     <use style="fill:#dbcd00;stroke:#dbcd00;" x="732.49875" xlink:href="#m197053abb9" y="114.724421"/>
     <use style="fill:#dbcd00;stroke:#dbcd00;" x="752.789659" xlink:href="#m197053abb9" y="104.567447"/>
     <use style="fill:#dbcd00;stroke:#dbcd00;" x="762.935114" xlink:href="#m197053abb9" y="98.811829"/>
     <use style="fill:#dbcd00;stroke:#dbcd00;" x="783.226023" xlink:href="#m197053abb9" y="86.962026"/>
     <use style="fill:#dbcd00;stroke:#dbcd00;" x="793.371477" xlink:href="#m197053abb9" y="84.253499"/>
     <use style="fill:#dbcd00;stroke:#dbcd00;" x="833.953295" xlink:href="#m197053abb9" y="80.867841"/>
     <use style="fill:#dbcd00;stroke:#dbcd00;" x="844.09875" xlink:href="#m197053abb9" y="79.175012"/>
     <use style="fill:#dbcd00;stroke:#dbcd00;" x="854.244205" xlink:href="#m197053abb9" y="77.820749"/>
     <use style="fill:#dbcd00;stroke:#dbcd00;" x="864.389659" xlink:href="#m197053abb9" y="75.789354"/>
     <use style="fill:#dbcd00;stroke:#dbcd00;" x="874.535114" xlink:href="#m197053abb9" y="75.789354"/>
     <use style="fill:#dbcd00;stroke:#dbcd00;" x="894.826023" xlink:href="#m197053abb9" y="74.435091"/>
     <use style="fill:#dbcd00;stroke:#dbcd00;" x="904.971477" xlink:href="#m197053abb9" y="74.435091"/>
     <use style="fill:#dbcd00;stroke:#dbcd00;" x="915.116932" xlink:href="#m197053abb9" y="74.435091"/>
     <use style="fill:#dbcd00;stroke:#dbcd00;" x="935.407841" xlink:href="#m197053abb9" y="71.387999"/>
     <use style="fill:#dbcd00;stroke:#dbcd00;" x="945.553295" xlink:href="#m197053abb9" y="71.387999"/>
     <use style="fill:#dbcd00;stroke:#dbcd00;" x="965.844205" xlink:href="#m197053abb9" y="70.710867"/>
     <use style="fill:#dbcd00;stroke:#dbcd00;" x="986.135114" xlink:href="#m197053abb9" y="66.986644"/>
     <use style="fill:#dbcd00;stroke:#dbcd00;" x="1006.426023" xlink:href="#m197053abb9" y="64.278117"/>
     <use style="fill:#dbcd00;stroke:#dbcd00;" x="1016.571477" xlink:href="#m197053abb9" y="64.278117"/>
     <use style="fill:#dbcd00;stroke:#dbcd00;" x="1036.862386" xlink:href="#m197053abb9" y="61.908157"/>
     <use style="fill:#dbcd00;stroke:#dbcd00;" x="1047.007841" xlink:href="#m197053abb9" y="61.231025"/>
     <use style="fill:#dbcd00;stroke:#dbcd00;" x="1057.153295" xlink:href="#m197053abb9" y="61.231025"/>
     <use style="fill:#dbcd00;stroke:#dbcd00;" x="1067.29875" xlink:href="#m197053abb9" y="59.19963"/>
     <use style="fill:#dbcd00;stroke:#dbcd00;" x="1087.589659" xlink:href="#m197053abb9" y="57.506801"/>
     <use style="fill:#dbcd00;stroke:#dbcd00;" x="1107.880568" xlink:href="#m197053abb9" y="56.491104"/>
     <use style="fill:#dbcd00;stroke:#dbcd00;" x="1118.026023" xlink:href="#m197053abb9" y="56.491104"/>
     <use style="fill:#dbcd00;stroke:#dbcd00;" x="1128.171477" xlink:href="#m197053abb9" y="53.105446"/>
    </g>
   </g>
   <g id="line2d_39">
    <path clip-path="url(#p94a752e5b8)" d="M 113.626023 437.03906 
L 123.771477 427.559218 
L 133.916932 421.8036 
L 144.062386 413.339455 
L 154.207841 405.213875 
L 164.353295 406.229573 
L 174.49875 401.828217 
L 184.644205 397.088296 
L 194.789659 396.072599 
L 204.935114 390.655546 
L 215.080568 382.191401 
L 225.226023 385.577059 
L 235.371477 385.915625 
L 245.516932 386.254191 
L 255.662386 391.332678 
L 265.807841 391.332678 
L 275.953295 393.364073 
L 286.09875 382.191401 
L 296.244205 390.994112 
L 316.535114 390.994112 
L 336.826023 389.301283 
L 346.971477 395.056902 
L 357.116932 386.592757 
L 367.262386 388.962717 
L 377.407841 383.545664 
L 397.69875 400.81252 
L 407.844205 391.332678 
L 417.989659 384.899928 
L 428.135114 383.545664 
L 438.280568 385.238493 
L 448.426023 385.915625 
L 468.716932 389.301283 
L 478.862386 388.285586 
L 489.007841 396.411165 
L 499.153295 401.489652 
L 519.444205 412.662323 
L 539.735114 413.67802 
L 549.880568 413.67802 
L 560.026023 418.417942 
L 570.171477 419.095073 
L 580.316932 420.110771 
L 590.462386 420.449336 
L 610.753295 415.709415 
L 620.89875 422.480731 
L 631.044205 422.142165 
L 641.189659 425.527823 
L 651.335114 423.157863 
L 661.480568 423.496429 
L 681.771477 425.527823 
L 691.916932 427.559218 
L 702.062386 434.6691 
L 722.353295 438.054758 
L 732.49875 443.471811 
L 752.789659 453.290219 
L 762.935114 459.045837 
L 783.226023 469.202811 
L 793.371477 471.572772 
L 833.953295 472.249903 
L 844.09875 473.265601 
L 854.244205 471.572772 
L 864.389659 472.927035 
L 874.535114 471.234206 
L 894.826023 471.911338 
L 904.971477 469.879943 
L 915.116932 468.864245 
L 935.407841 473.604167 
L 945.553295 472.588469 
L 965.844205 471.572772 
L 986.135114 475.296996 
L 1006.426023 475.974127 
L 1016.571477 473.604167 
L 1036.862386 471.911338 
L 1047.007841 471.234206 
L 1057.153295 469.541377 
L 1067.29875 470.218509 
L 1087.589659 466.494285 
L 1107.880568 462.770061 
L 1118.026023 462.770061 
L 1128.171477 463.108627 
" style="fill:none;stroke:#2792cb;stroke-linecap:square;stroke-width:2;"/>
    <defs>
     <path d="M 0 1.5 
C 0.397805 1.5 0.77937 1.341951 1.06066 1.06066 
C 1.341951 0.77937 1.5 0.397805 1.5 0 
C 1.5 -0.397805 1.341951 -0.77937 1.06066 -1.06066 
C 0.77937 -1.341951 0.397805 -1.5 0 -1.5 
C -0.397805 -1.5 -0.77937 -1.341951 -1.06066 -1.06066 
C -1.341951 -0.77937 -1.5 -0.397805 -1.5 0 
C -1.5 0.397805 -1.341951 0.77937 -1.06066 1.06066 
C -0.77937 1.341951 -0.397805 1.5 0 1.5 
z
" id="m401110ecb5" style="stroke:#2792cb;"/>
    </defs>
    <g clip-path="url(#p94a752e5b8)">
     <use style="fill:#2792cb;stroke:#2792cb;" x="113.626023" xlink:href="#m401110ecb5" y="437.03906"/>
     <use style="fill:#2792cb;stroke:#2792cb;" x="123.771477" xlink:href="#m401110ecb5" y="427.559218"/>
     <use style="fill:#2792cb;stroke:#2792cb;" x="133.916932" xlink:href="#m401110ecb5" y="421.8036"/>
     <use style="fill:#2792cb;stroke:#2792cb;" x="144.062386" xlink:href="#m401110ecb5" y="413.339455"/>
     <use style="fill:#2792cb;stroke:#2792cb;" x="154.207841" xlink:href="#m401110ecb5" y="405.213875"/>
     <use style="fill:#2792cb;stroke:#2792cb;" x="164.353295" xlink:href="#m401110ecb5" y="406.229573"/>
     <use style="fill:#2792cb;stroke:#2792cb;" x="174.49875" xlink:href="#m401110ecb5" y="401.828217"/>
     <use style="fill:#2792cb;stroke:#2792cb;" x="184.644205" xlink:href="#m401110ecb5" y="397.088296"/>
     <use style="fill:#2792cb;stroke:#2792cb;" x="194.789659" xlink:href="#m401110ecb5" y="396.072599"/>
     <use style="fill:#2792cb;stroke:#2792cb;" x="204.935114" xlink:href="#m401110ecb5" y="390.655546"/>
     <use style="fill:#2792cb;stroke:#2792cb;" x="215.080568" xlink:href="#m401110ecb5" y="382.191401"/>
     <use style="fill:#2792cb;stroke:#2792cb;" x="225.226023" xlink:href="#m401110ecb5" y="385.577059"/>
     <use style="fill:#2792cb;stroke:#2792cb;" x="235.371477" xlink:href="#m401110ecb5" y="385.915625"/>
     <use style="fill:#2792cb;stroke:#2792cb;" x="245.516932" xlink:href="#m401110ecb5" y="386.254191"/>
     <use style="fill:#2792cb;stroke:#2792cb;" x="255.662386" xlink:href="#m401110ecb5" y="391.332678"/>
     <use style="fill:#2792cb;stroke:#2792cb;" x="265.807841" xlink:href="#m401110ecb5" y="391.332678"/>
     <use style="fill:#2792cb;stroke:#2792cb;" x="275.953295" xlink:href="#m401110ecb5" y="393.364073"/>
     <use style="fill:#2792cb;stroke:#2792cb;" x="286.09875" xlink:href="#m401110ecb5" y="382.191401"/>
     <use style="fill:#2792cb;stroke:#2792cb;" x="296.244205" xlink:href="#m401110ecb5" y="390.994112"/>
     <use style="fill:#2792cb;stroke:#2792cb;" x="316.535114" xlink:href="#m401110ecb5" y="390.994112"/>
     <use style="fill:#2792cb;stroke:#2792cb;" x="336.826023" xlink:href="#m401110ecb5" y="389.301283"/>
     <use style="fill:#2792cb;stroke:#2792cb;" x="346.971477" xlink:href="#m401110ecb5" y="395.056902"/>
     <use style="fill:#2792cb;stroke:#2792cb;" x="357.116932" xlink:href="#m401110ecb5" y="386.592757"/>
     <use style="fill:#2792cb;stroke:#2792cb;" x="367.262386" xlink:href="#m401110ecb5" y="388.962717"/>
     <use style="fill:#2792cb;stroke:#2792cb;" x="377.407841" xlink:href="#m401110ecb5" y="383.545664"/>
     <use style="fill:#2792cb;stroke:#2792cb;" x="397.69875" xlink:href="#m401110ecb5" y="400.81252"/>
     <use style="fill:#2792cb;stroke:#2792cb;" x="407.844205" xlink:href="#m401110ecb5" y="391.332678"/>
     <use style="fill:#2792cb;stroke:#2792cb;" x="417.989659" xlink:href="#m401110ecb5" y="384.899928"/>
     <use style="fill:#2792cb;stroke:#2792cb;" x="428.135114" xlink:href="#m401110ecb5" y="383.545664"/>
     <use style="fill:#2792cb;stroke:#2792cb;" x="438.280568" xlink:href="#m401110ecb5" y="385.238493"/>
     <use style="fill:#2792cb;stroke:#2792cb;" x="448.426023" xlink:href="#m401110ecb5" y="385.915625"/>
     <use style="fill:#2792cb;stroke:#2792cb;" x="468.716932" xlink:href="#m401110ecb5" y="389.301283"/>
     <use style="fill:#2792cb;stroke:#2792cb;" x="478.862386" xlink:href="#m401110ecb5" y="388.285586"/>
     <use style="fill:#2792cb;stroke:#2792cb;" x="489.007841" xlink:href="#m401110ecb5" y="396.411165"/>
     <use style="fill:#2792cb;stroke:#2792cb;" x="499.153295" xlink:href="#m401110ecb5" y="401.489652"/>
     <use style="fill:#2792cb;stroke:#2792cb;" x="519.444205" xlink:href="#m401110ecb5" y="412.662323"/>
     <use style="fill:#2792cb;stroke:#2792cb;" x="539.735114" xlink:href="#m401110ecb5" y="413.67802"/>
     <use style="fill:#2792cb;stroke:#2792cb;" x="549.880568" xlink:href="#m401110ecb5" y="413.67802"/>
     <use style="fill:#2792cb;stroke:#2792cb;" x="560.026023" xlink:href="#m401110ecb5" y="418.417942"/>
     <use style="fill:#2792cb;stroke:#2792cb;" x="570.171477" xlink:href="#m401110ecb5" y="419.095073"/>
     <use style="fill:#2792cb;stroke:#2792cb;" x="580.316932" xlink:href="#m401110ecb5" y="420.110771"/>
     <use style="fill:#2792cb;stroke:#2792cb;" x="590.462386" xlink:href="#m401110ecb5" y="420.449336"/>
     <use style="fill:#2792cb;stroke:#2792cb;" x="610.753295" xlink:href="#m401110ecb5" y="415.709415"/>
     <use style="fill:#2792cb;stroke:#2792cb;" x="620.89875" xlink:href="#m401110ecb5" y="422.480731"/>
     <use style="fill:#2792cb;stroke:#2792cb;" x="631.044205" xlink:href="#m401110ecb5" y="422.142165"/>
     <use style="fill:#2792cb;stroke:#2792cb;" x="641.189659" xlink:href="#m401110ecb5" y="425.527823"/>
     <use style="fill:#2792cb;stroke:#2792cb;" x="651.335114" xlink:href="#m401110ecb5" y="423.157863"/>
     <use style="fill:#2792cb;stroke:#2792cb;" x="661.480568" xlink:href="#m401110ecb5" y="423.496429"/>
     <use style="fill:#2792cb;stroke:#2792cb;" x="681.771477" xlink:href="#m401110ecb5" y="425.527823"/>
     <use style="fill:#2792cb;stroke:#2792cb;" x="691.916932" xlink:href="#m401110ecb5" y="427.559218"/>
     <use style="fill:#2792cb;stroke:#2792cb;" x="702.062386" xlink:href="#m401110ecb5" y="434.6691"/>
     <use style="fill:#2792cb;stroke:#2792cb;" x="722.353295" xlink:href="#m401110ecb5" y="438.054758"/>
     <use style="fill:#2792cb;stroke:#2792cb;" x="732.49875" xlink:href="#m401110ecb5" y="443.471811"/>
     <use style="fill:#2792cb;stroke:#2792cb;" x="752.789659" xlink:href="#m401110ecb5" y="453.290219"/>
     <use style="fill:#2792cb;stroke:#2792cb;" x="762.935114" xlink:href="#m401110ecb5" y="459.045837"/>
     <use style="fill:#2792cb;stroke:#2792cb;" x="783.226023" xlink:href="#m401110ecb5" y="469.202811"/>
     <use style="fill:#2792cb;stroke:#2792cb;" x="793.371477" xlink:href="#m401110ecb5" y="471.572772"/>
     <use style="fill:#2792cb;stroke:#2792cb;" x="833.953295" xlink:href="#m401110ecb5" y="472.249903"/>
     <use style="fill:#2792cb;stroke:#2792cb;" x="844.09875" xlink:href="#m401110ecb5" y="473.265601"/>
     <use style="fill:#2792cb;stroke:#2792cb;" x="854.244205" xlink:href="#m401110ecb5" y="471.572772"/>
     <use style="fill:#2792cb;stroke:#2792cb;" x="864.389659" xlink:href="#m401110ecb5" y="472.927035"/>
     <use style="fill:#2792cb;stroke:#2792cb;" x="874.535114" xlink:href="#m401110ecb5" y="471.234206"/>
     <use style="fill:#2792cb;stroke:#2792cb;" x="894.826023" xlink:href="#m401110ecb5" y="471.911338"/>
     <use style="fill:#2792cb;stroke:#2792cb;" x="904.971477" xlink:href="#m401110ecb5" y="469.879943"/>
     <use style="fill:#2792cb;stroke:#2792cb;" x="915.116932" xlink:href="#m401110ecb5" y="468.864245"/>
     <use style="fill:#2792cb;stroke:#2792cb;" x="935.407841" xlink:href="#m401110ecb5" y="473.604167"/>
     <use style="fill:#2792cb;stroke:#2792cb;" x="945.553295" xlink:href="#m401110ecb5" y="472.588469"/>
     <use style="fill:#2792cb;stroke:#2792cb;" x="965.844205" xlink:href="#m401110ecb5" y="471.572772"/>
     <use style="fill:#2792cb;stroke:#2792cb;" x="986.135114" xlink:href="#m401110ecb5" y="475.296996"/>
     <use style="fill:#2792cb;stroke:#2792cb;" x="1006.426023" xlink:href="#m401110ecb5" y="475.974127"/>
     <use style="fill:#2792cb;stroke:#2792cb;" x="1016.571477" xlink:href="#m401110ecb5" y="473.604167"/>
     <use style="fill:#2792cb;stroke:#2792cb;" x="1036.862386" xlink:href="#m401110ecb5" y="471.911338"/>
     <use style="fill:#2792cb;stroke:#2792cb;" x="1047.007841" xlink:href="#m401110ecb5" y="471.234206"/>
     <use style="fill:#2792cb;stroke:#2792cb;" x="1057.153295" xlink:href="#m401110ecb5" y="469.541377"/>
     <use style="fill:#2792cb;stroke:#2792cb;" x="1067.29875" xlink:href="#m401110ecb5" y="470.218509"/>
     <use style="fill:#2792cb;stroke:#2792cb;" x="1087.589659" xlink:href="#m401110ecb5" y="466.494285"/>
     <use style="fill:#2792cb;stroke:#2792cb;" x="1107.880568" xlink:href="#m401110ecb5" y="462.770061"/>
     <use style="fill:#2792cb;stroke:#2792cb;" x="1118.026023" xlink:href="#m401110ecb5" y="462.770061"/>
     <use style="fill:#2792cb;stroke:#2792cb;" x="1128.171477" xlink:href="#m401110ecb5" y="463.108627"/>
    </g>
   </g>
   <g id="patch_3">
    <path d="M 62.89875 501.738984 
L 1178.89875 501.738984 
" style="fill:none;stroke:#000000;stroke-linecap:square;stroke-linejoin:miter;stroke-width:0.8;"/>
   </g>
   <g id="legend_1">
    <g id="line2d_40">
     <path d="M 1091.653438 25.237422 
L 1111.653438 25.237422 
" style="fill:none;stroke:#dbcd00;stroke-linecap:square;stroke-width:2;"/>
    </g>
    <g id="line2d_41">
     <g>
      <use style="fill:#dbcd00;stroke:#dbcd00;" x="1101.653438" xlink:href="#m197053abb9" y="25.237422"/>
     </g>
    </g>
    <g id="text_24">
     <!-- Genesene -->
     <defs>
      <path d="M 59.515625 10.40625 
L 59.515625 29.984375 
L 43.40625 29.984375 
L 43.40625 38.09375 
L 69.28125 38.09375 
L 69.28125 6.78125 
Q 63.578125 2.734375 56.6875 0.65625 
Q 49.8125 -1.421875 42 -1.421875 
Q 24.90625 -1.421875 15.25 8.5625 
Q 5.609375 18.5625 5.609375 36.375 
Q 5.609375 54.25 15.25 64.234375 
Q 24.90625 74.21875 42 74.21875 
Q 49.125 74.21875 55.546875 72.453125 
Q 61.96875 70.703125 67.390625 67.28125 
L 67.390625 56.78125 
Q 61.921875 61.421875 55.765625 63.765625 
Q 49.609375 66.109375 42.828125 66.109375 
Q 29.4375 66.109375 22.71875 58.640625 
Q 16.015625 51.171875 16.015625 36.375 
Q 16.015625 21.625 22.71875 14.15625 
Q 29.4375 6.6875 42.828125 6.6875 
Q 48.046875 6.6875 52.140625 7.59375 
Q 56.25 8.5 59.515625 10.40625 
z
" id="DejaVuSans-71"/>
      <path d="M 44.28125 53.078125 
L 44.28125 44.578125 
Q 40.484375 46.53125 36.375 47.5 
Q 32.28125 48.484375 27.875 48.484375 
Q 21.1875 48.484375 17.84375 46.4375 
Q 14.5 44.390625 14.5 40.28125 
Q 14.5 37.15625 16.890625 35.375 
Q 19.28125 33.59375 26.515625 31.984375 
L 29.59375 31.296875 
Q 39.15625 29.25 43.1875 25.515625 
Q 47.21875 21.78125 47.21875 15.09375 
Q 47.21875 7.46875 41.1875 3.015625 
Q 35.15625 -1.421875 24.609375 -1.421875 
Q 20.21875 -1.421875 15.453125 -0.5625 
Q 10.6875 0.296875 5.421875 2 
L 5.421875 11.28125 
Q 10.40625 8.6875 15.234375 7.390625 
Q 20.0625 6.109375 24.8125 6.109375 
Q 31.15625 6.109375 34.5625 8.28125 
Q 37.984375 10.453125 37.984375 14.40625 
Q 37.984375 18.0625 35.515625 20.015625 
Q 33.0625 21.96875 24.703125 23.78125 
L 21.578125 24.515625 
Q 13.234375 26.265625 9.515625 29.90625 
Q 5.8125 33.546875 5.8125 39.890625 
Q 5.8125 47.609375 11.28125 51.796875 
Q 16.75 56 26.8125 56 
Q 31.78125 56 36.171875 55.265625 
Q 40.578125 54.546875 44.28125 53.078125 
z
" id="DejaVuSans-115"/>
     </defs>
     <g transform="translate(1119.653438 28.737422)scale(0.1 -0.1)">
      <use xlink:href="#DejaVuSans-71"/>
      <use x="77.490234" xlink:href="#DejaVuSans-101"/>
      <use x="139.013672" xlink:href="#DejaVuSans-110"/>
      <use x="202.392578" xlink:href="#DejaVuSans-101"/>
      <use x="263.916016" xlink:href="#DejaVuSans-115"/>
      <use x="316.015625" xlink:href="#DejaVuSans-101"/>
      <use x="377.539062" xlink:href="#DejaVuSans-110"/>
      <use x="440.917969" xlink:href="#DejaVuSans-101"/>
     </g>
    </g>
    <g id="line2d_42">
     <path d="M 1091.653438 39.915547 
L 1111.653438 39.915547 
" style="fill:none;stroke:#2792cb;stroke-linecap:square;stroke-width:2;"/>
    </g>
    <g id="line2d_43">
     <g>
      <use style="fill:#2792cb;stroke:#2792cb;" x="1101.653438" xlink:href="#m401110ecb5" y="39.915547"/>
     </g>
    </g>
    <g id="text_25">
     <!-- Erkrankte -->
     <defs>
      <path d="M 9.8125 72.90625 
L 55.90625 72.90625 
L 55.90625 64.59375 
L 19.671875 64.59375 
L 19.671875 43.015625 
L 54.390625 43.015625 
L 54.390625 34.71875 
L 19.671875 34.71875 
L 19.671875 8.296875 
L 56.78125 8.296875 
L 56.78125 0 
L 9.8125 0 
z
" id="DejaVuSans-69"/>
      <path d="M 41.109375 46.296875 
Q 39.59375 47.171875 37.8125 47.578125 
Q 36.03125 48 33.890625 48 
Q 26.265625 48 22.1875 43.046875 
Q 18.109375 38.09375 18.109375 28.8125 
L 18.109375 0 
L 9.078125 0 
L 9.078125 54.6875 
L 18.109375 54.6875 
L 18.109375 46.1875 
Q 20.953125 51.171875 25.484375 53.578125 
Q 30.03125 56 36.53125 56 
Q 37.453125 56 38.578125 55.875 
Q 39.703125 55.765625 41.0625 55.515625 
z
" id="DejaVuSans-114"/>
      <path d="M 9.078125 75.984375 
L 18.109375 75.984375 
L 18.109375 31.109375 
L 44.921875 54.6875 
L 56.390625 54.6875 
L 27.390625 29.109375 
L 57.625 0 
L 45.90625 0 
L 18.109375 26.703125 
L 18.109375 0 
L 9.078125 0 
z
" id="DejaVuSans-107"/>
      <path d="M 18.3125 70.21875 
L 18.3125 54.6875 
L 36.8125 54.6875 
L 36.8125 47.703125 
L 18.3125 47.703125 
L 18.3125 18.015625 
Q 18.3125 11.328125 20.140625 9.421875 
Q 21.96875 7.515625 27.59375 7.515625 
L 36.8125 7.515625 
L 36.8125 0 
L 27.59375 0 
Q 17.1875 0 13.234375 3.875 
Q 9.28125 7.765625 9.28125 18.015625 
L 9.28125 47.703125 
L 2.6875 47.703125 
L 2.6875 54.6875 
L 9.28125 54.6875 
L 9.28125 70.21875 
z
" id="DejaVuSans-116"/>
     </defs>
     <g transform="translate(1119.653438 43.415547)scale(0.1 -0.1)">
      <use xlink:href="#DejaVuSans-69"/>
      <use x="63.183594" xlink:href="#DejaVuSans-114"/>
      <use x="104.296875" xlink:href="#DejaVuSans-107"/>
      <use x="162.207031" xlink:href="#DejaVuSans-114"/>
      <use x="203.320312" xlink:href="#DejaVuSans-97"/>
      <use x="264.599609" xlink:href="#DejaVuSans-110"/>
      <use x="327.978516" xlink:href="#DejaVuSans-107"/>
      <use x="385.888672" xlink:href="#DejaVuSans-116"/>
      <use x="425.097656" xlink:href="#DejaVuSans-101"/>
     </g>
    </g>
   </g>
  </g>
 </g>
 <defs>
  <clipPath id="p94a752e5b8">
   <rect height="489.6" width="1116" x="62.89875" y="12.138984"/>
  </clipPath>
 </defs>
</svg>
