<?xml version="1.0" encoding="utf-8" standalone="no"?>
<!DOCTYPE svg PUBLIC "-//W3C//DTD SVG 1.1//EN"
  "http://www.w3.org/Graphics/SVG/1.1/DTD/svg11.dtd">
<!-- Created with matplotlib (https://matplotlib.org/) -->
<svg height="553.993765pt" version="1.1" viewBox="0 0 1186.09875 553.993765" width="1186.09875pt" xmlns="http://www.w3.org/2000/svg" xmlns:xlink="http://www.w3.org/1999/xlink">
 <defs>
  <style type="text/css">
*{stroke-linecap:butt;stroke-linejoin:round;}
  </style>
 </defs>
 <g id="figure_1">
  <g id="patch_1">
   <path d="M 0 553.993765 
L 1186.09875 553.993765 
L 1186.09875 0 
L 0 0 
z
" style="fill:#ffffff;"/>
  </g>
  <g id="axes_1">
   <g id="patch_2">
    <path d="M 62.89875 501.738984 
L 1178.89875 501.738984 
L 1178.89875 12.138984 
L 62.89875 12.138984 
z
" style="fill:#ffffff;"/>
   </g>
   <g id="matplotlib.axis_1">
    <g id="xtick_1">
     <g id="line2d_1">
      <defs>
       <path d="M 0 0 
L 0 3.5 
" id="m49d008eecd" style="stroke:#000000;stroke-width:0.8;"/>
      </defs>
      <g>
       <use style="stroke:#000000;stroke-width:0.8;" x="161.937711" xlink:href="#m49d008eecd" y="501.738984"/>
      </g>
     </g>
     <g id="text_1">
      <!-- 2020-04 -->
      <defs>
       <path d="M 19.1875 8.296875 
L 53.609375 8.296875 
L 53.609375 0 
L 7.328125 0 
L 7.328125 8.296875 
Q 12.9375 14.109375 22.625 23.890625 
Q 32.328125 33.6875 34.8125 36.53125 
Q 39.546875 41.84375 41.421875 45.53125 
Q 43.3125 49.21875 43.3125 52.78125 
Q 43.3125 58.59375 39.234375 62.25 
Q 35.15625 65.921875 28.609375 65.921875 
Q 23.96875 65.921875 18.8125 64.3125 
Q 13.671875 62.703125 7.8125 59.421875 
L 7.8125 69.390625 
Q 13.765625 71.78125 18.9375 73 
Q 24.125 74.21875 28.421875 74.21875 
Q 39.75 74.21875 46.484375 68.546875 
Q 53.21875 62.890625 53.21875 53.421875 
Q 53.21875 48.921875 51.53125 44.890625 
Q 49.859375 40.875 45.40625 35.40625 
Q 44.1875 33.984375 37.640625 27.21875 
Q 31.109375 20.453125 19.1875 8.296875 
z
" id="DejaVuSans-50"/>
       <path d="M 31.78125 66.40625 
Q 24.171875 66.40625 20.328125 58.90625 
Q 16.5 51.421875 16.5 36.375 
Q 16.5 21.390625 20.328125 13.890625 
Q 24.171875 6.390625 31.78125 6.390625 
Q 39.453125 6.390625 43.28125 13.890625 
Q 47.125 21.390625 47.125 36.375 
Q 47.125 51.421875 43.28125 58.90625 
Q 39.453125 66.40625 31.78125 66.40625 
z
M 31.78125 74.21875 
Q 44.046875 74.21875 50.515625 64.515625 
Q 56.984375 54.828125 56.984375 36.375 
Q 56.984375 17.96875 50.515625 8.265625 
Q 44.046875 -1.421875 31.78125 -1.421875 
Q 19.53125 -1.421875 13.0625 8.265625 
Q 6.59375 17.96875 6.59375 36.375 
Q 6.59375 54.828125 13.0625 64.515625 
Q 19.53125 74.21875 31.78125 74.21875 
z
" id="DejaVuSans-48"/>
       <path d="M 4.890625 31.390625 
L 31.203125 31.390625 
L 31.203125 23.390625 
L 4.890625 23.390625 
z
" id="DejaVuSans-45"/>
       <path d="M 37.796875 64.3125 
L 12.890625 25.390625 
L 37.796875 25.390625 
z
M 35.203125 72.90625 
L 47.609375 72.90625 
L 47.609375 25.390625 
L 58.015625 25.390625 
L 58.015625 17.1875 
L 47.609375 17.1875 
L 47.609375 0 
L 37.796875 0 
L 37.796875 17.1875 
L 4.890625 17.1875 
L 4.890625 26.703125 
z
" id="DejaVuSans-52"/>
      </defs>
      <g transform="translate(113.545444 544.452384)rotate(-30)scale(0.13 -0.13)">
       <use xlink:href="#DejaVuSans-50"/>
       <use x="63.623047" xlink:href="#DejaVuSans-48"/>
       <use x="127.246094" xlink:href="#DejaVuSans-50"/>
       <use x="190.869141" xlink:href="#DejaVuSans-48"/>
       <use x="254.492188" xlink:href="#DejaVuSans-45"/>
       <use x="290.576172" xlink:href="#DejaVuSans-48"/>
       <use x="354.199219" xlink:href="#DejaVuSans-52"/>
      </g>
     </g>
    </g>
    <g id="xtick_2">
     <g id="line2d_2">
      <g>
       <use style="stroke:#000000;stroke-width:0.8;" x="322.976672" xlink:href="#m49d008eecd" y="501.738984"/>
      </g>
     </g>
     <g id="text_2">
      <!-- 2020-05 -->
      <defs>
       <path d="M 10.796875 72.90625 
L 49.515625 72.90625 
L 49.515625 64.59375 
L 19.828125 64.59375 
L 19.828125 46.734375 
Q 21.96875 47.46875 24.109375 47.828125 
Q 26.265625 48.1875 28.421875 48.1875 
Q 40.625 48.1875 47.75 41.5 
Q 54.890625 34.8125 54.890625 23.390625 
Q 54.890625 11.625 47.5625 5.09375 
Q 40.234375 -1.421875 26.90625 -1.421875 
Q 22.3125 -1.421875 17.546875 -0.640625 
Q 12.796875 0.140625 7.71875 1.703125 
L 7.71875 11.625 
Q 12.109375 9.234375 16.796875 8.0625 
Q 21.484375 6.890625 26.703125 6.890625 
Q 35.15625 6.890625 40.078125 11.328125 
Q 45.015625 15.765625 45.015625 23.390625 
Q 45.015625 31 40.078125 35.4375 
Q 35.15625 39.890625 26.703125 39.890625 
Q 22.75 39.890625 18.8125 39.015625 
Q 14.890625 38.140625 10.796875 36.28125 
z
" id="DejaVuSans-53"/>
      </defs>
      <g transform="translate(274.584405 544.452384)rotate(-30)scale(0.13 -0.13)">
       <use xlink:href="#DejaVuSans-50"/>
       <use x="63.623047" xlink:href="#DejaVuSans-48"/>
       <use x="127.246094" xlink:href="#DejaVuSans-50"/>
       <use x="190.869141" xlink:href="#DejaVuSans-48"/>
       <use x="254.492188" xlink:href="#DejaVuSans-45"/>
       <use x="290.576172" xlink:href="#DejaVuSans-48"/>
       <use x="354.199219" xlink:href="#DejaVuSans-53"/>
      </g>
     </g>
    </g>
    <g id="xtick_3">
     <g id="line2d_3">
      <g>
       <use style="stroke:#000000;stroke-width:0.8;" x="489.383598" xlink:href="#m49d008eecd" y="501.738984"/>
      </g>
     </g>
     <g id="text_3">
      <!-- 2020-06 -->
      <defs>
       <path d="M 33.015625 40.375 
Q 26.375 40.375 22.484375 35.828125 
Q 18.609375 31.296875 18.609375 23.390625 
Q 18.609375 15.53125 22.484375 10.953125 
Q 26.375 6.390625 33.015625 6.390625 
Q 39.65625 6.390625 43.53125 10.953125 
Q 47.40625 15.53125 47.40625 23.390625 
Q 47.40625 31.296875 43.53125 35.828125 
Q 39.65625 40.375 33.015625 40.375 
z
M 52.59375 71.296875 
L 52.59375 62.3125 
Q 48.875 64.0625 45.09375 64.984375 
Q 41.3125 65.921875 37.59375 65.921875 
Q 27.828125 65.921875 22.671875 59.328125 
Q 17.53125 52.734375 16.796875 39.40625 
Q 19.671875 43.65625 24.015625 45.921875 
Q 28.375 48.1875 33.59375 48.1875 
Q 44.578125 48.1875 50.953125 41.515625 
Q 57.328125 34.859375 57.328125 23.390625 
Q 57.328125 12.15625 50.6875 5.359375 
Q 44.046875 -1.421875 33.015625 -1.421875 
Q 20.359375 -1.421875 13.671875 8.265625 
Q 6.984375 17.96875 6.984375 36.375 
Q 6.984375 53.65625 15.1875 63.9375 
Q 23.390625 74.21875 37.203125 74.21875 
Q 40.921875 74.21875 44.703125 73.484375 
Q 48.484375 72.75 52.59375 71.296875 
z
" id="DejaVuSans-54"/>
      </defs>
      <g transform="translate(440.991331 544.452384)rotate(-30)scale(0.13 -0.13)">
       <use xlink:href="#DejaVuSans-50"/>
       <use x="63.623047" xlink:href="#DejaVuSans-48"/>
       <use x="127.246094" xlink:href="#DejaVuSans-50"/>
       <use x="190.869141" xlink:href="#DejaVuSans-48"/>
       <use x="254.492188" xlink:href="#DejaVuSans-45"/>
       <use x="290.576172" xlink:href="#DejaVuSans-48"/>
       <use x="354.199219" xlink:href="#DejaVuSans-54"/>
      </g>
     </g>
    </g>
    <g id="xtick_4">
     <g id="line2d_4">
      <g>
       <use style="stroke:#000000;stroke-width:0.8;" x="650.42256" xlink:href="#m49d008eecd" y="501.738984"/>
      </g>
     </g>
     <g id="text_4">
      <!-- 2020-07 -->
      <defs>
       <path d="M 8.203125 72.90625 
L 55.078125 72.90625 
L 55.078125 68.703125 
L 28.609375 0 
L 18.3125 0 
L 43.21875 64.59375 
L 8.203125 64.59375 
z
" id="DejaVuSans-55"/>
      </defs>
      <g transform="translate(602.030292 544.452384)rotate(-30)scale(0.13 -0.13)">
       <use xlink:href="#DejaVuSans-50"/>
       <use x="63.623047" xlink:href="#DejaVuSans-48"/>
       <use x="127.246094" xlink:href="#DejaVuSans-50"/>
       <use x="190.869141" xlink:href="#DejaVuSans-48"/>
       <use x="254.492188" xlink:href="#DejaVuSans-45"/>
       <use x="290.576172" xlink:href="#DejaVuSans-48"/>
       <use x="354.199219" xlink:href="#DejaVuSans-55"/>
      </g>
     </g>
    </g>
    <g id="xtick_5">
     <g id="line2d_5">
      <g>
       <use style="stroke:#000000;stroke-width:0.8;" x="816.829486" xlink:href="#m49d008eecd" y="501.738984"/>
      </g>
     </g>
     <g id="text_5">
      <!-- 2020-08 -->
      <defs>
       <path d="M 31.78125 34.625 
Q 24.75 34.625 20.71875 30.859375 
Q 16.703125 27.09375 16.703125 20.515625 
Q 16.703125 13.921875 20.71875 10.15625 
Q 24.75 6.390625 31.78125 6.390625 
Q 38.8125 6.390625 42.859375 10.171875 
Q 46.921875 13.96875 46.921875 20.515625 
Q 46.921875 27.09375 42.890625 30.859375 
Q 38.875 34.625 31.78125 34.625 
z
M 21.921875 38.8125 
Q 15.578125 40.375 12.03125 44.71875 
Q 8.5 49.078125 8.5 55.328125 
Q 8.5 64.0625 14.71875 69.140625 
Q 20.953125 74.21875 31.78125 74.21875 
Q 42.671875 74.21875 48.875 69.140625 
Q 55.078125 64.0625 55.078125 55.328125 
Q 55.078125 49.078125 51.53125 44.71875 
Q 48 40.375 41.703125 38.8125 
Q 48.828125 37.15625 52.796875 32.3125 
Q 56.78125 27.484375 56.78125 20.515625 
Q 56.78125 9.90625 50.3125 4.234375 
Q 43.84375 -1.421875 31.78125 -1.421875 
Q 19.734375 -1.421875 13.25 4.234375 
Q 6.78125 9.90625 6.78125 20.515625 
Q 6.78125 27.484375 10.78125 32.3125 
Q 14.796875 37.15625 21.921875 38.8125 
z
M 18.3125 54.390625 
Q 18.3125 48.734375 21.84375 45.5625 
Q 25.390625 42.390625 31.78125 42.390625 
Q 38.140625 42.390625 41.71875 45.5625 
Q 45.3125 48.734375 45.3125 54.390625 
Q 45.3125 60.0625 41.71875 63.234375 
Q 38.140625 66.40625 31.78125 66.40625 
Q 25.390625 66.40625 21.84375 63.234375 
Q 18.3125 60.0625 18.3125 54.390625 
z
" id="DejaVuSans-56"/>
      </defs>
      <g transform="translate(768.437219 544.452384)rotate(-30)scale(0.13 -0.13)">
       <use xlink:href="#DejaVuSans-50"/>
       <use x="63.623047" xlink:href="#DejaVuSans-48"/>
       <use x="127.246094" xlink:href="#DejaVuSans-50"/>
       <use x="190.869141" xlink:href="#DejaVuSans-48"/>
       <use x="254.492188" xlink:href="#DejaVuSans-45"/>
       <use x="290.576172" xlink:href="#DejaVuSans-48"/>
       <use x="354.199219" xlink:href="#DejaVuSans-56"/>
      </g>
     </g>
    </g>
    <g id="xtick_6">
     <g id="line2d_6">
      <g>
       <use style="stroke:#000000;stroke-width:0.8;" x="983.236412" xlink:href="#m49d008eecd" y="501.738984"/>
      </g>
     </g>
     <g id="text_6">
      <!-- 2020-09 -->
      <defs>
       <path d="M 10.984375 1.515625 
L 10.984375 10.5 
Q 14.703125 8.734375 18.5 7.8125 
Q 22.3125 6.890625 25.984375 6.890625 
Q 35.75 6.890625 40.890625 13.453125 
Q 46.046875 20.015625 46.78125 33.40625 
Q 43.953125 29.203125 39.59375 26.953125 
Q 35.25 24.703125 29.984375 24.703125 
Q 19.046875 24.703125 12.671875 31.3125 
Q 6.296875 37.9375 6.296875 49.421875 
Q 6.296875 60.640625 12.9375 67.421875 
Q 19.578125 74.21875 30.609375 74.21875 
Q 43.265625 74.21875 49.921875 64.515625 
Q 56.59375 54.828125 56.59375 36.375 
Q 56.59375 19.140625 48.40625 8.859375 
Q 40.234375 -1.421875 26.421875 -1.421875 
Q 22.703125 -1.421875 18.890625 -0.6875 
Q 15.09375 0.046875 10.984375 1.515625 
z
M 30.609375 32.421875 
Q 37.25 32.421875 41.125 36.953125 
Q 45.015625 41.5 45.015625 49.421875 
Q 45.015625 57.28125 41.125 61.84375 
Q 37.25 66.40625 30.609375 66.40625 
Q 23.96875 66.40625 20.09375 61.84375 
Q 16.21875 57.28125 16.21875 49.421875 
Q 16.21875 41.5 20.09375 36.953125 
Q 23.96875 32.421875 30.609375 32.421875 
z
" id="DejaVuSans-57"/>
      </defs>
      <g transform="translate(934.844145 544.452384)rotate(-30)scale(0.13 -0.13)">
       <use xlink:href="#DejaVuSans-50"/>
       <use x="63.623047" xlink:href="#DejaVuSans-48"/>
       <use x="127.246094" xlink:href="#DejaVuSans-50"/>
       <use x="190.869141" xlink:href="#DejaVuSans-48"/>
       <use x="254.492188" xlink:href="#DejaVuSans-45"/>
       <use x="290.576172" xlink:href="#DejaVuSans-48"/>
       <use x="354.199219" xlink:href="#DejaVuSans-57"/>
      </g>
     </g>
    </g>
    <g id="xtick_7">
     <g id="line2d_7">
      <g>
       <use style="stroke:#000000;stroke-width:0.8;" x="1144.275373" xlink:href="#m49d008eecd" y="501.738984"/>
      </g>
     </g>
     <g id="text_7">
      <!-- 2020-10 -->
      <defs>
       <path d="M 12.40625 8.296875 
L 28.515625 8.296875 
L 28.515625 63.921875 
L 10.984375 60.40625 
L 10.984375 69.390625 
L 28.421875 72.90625 
L 38.28125 72.90625 
L 38.28125 8.296875 
L 54.390625 8.296875 
L 54.390625 0 
L 12.40625 0 
z
" id="DejaVuSans-49"/>
      </defs>
      <g transform="translate(1095.883106 544.452384)rotate(-30)scale(0.13 -0.13)">
       <use xlink:href="#DejaVuSans-50"/>
       <use x="63.623047" xlink:href="#DejaVuSans-48"/>
       <use x="127.246094" xlink:href="#DejaVuSans-50"/>
       <use x="190.869141" xlink:href="#DejaVuSans-48"/>
       <use x="254.492188" xlink:href="#DejaVuSans-45"/>
       <use x="290.576172" xlink:href="#DejaVuSans-49"/>
       <use x="354.199219" xlink:href="#DejaVuSans-48"/>
      </g>
     </g>
    </g>
   </g>
   <g id="matplotlib.axis_2">
    <g id="ytick_1">
     <g id="line2d_8">
      <path clip-path="url(#p1a135d11c6)" d="M 62.89875 484.497885 
L 1178.89875 484.497885 
" style="fill:none;stroke:#b0b0b0;stroke-linecap:square;stroke-width:0.8;"/>
     </g>
     <g id="line2d_9">
      <defs>
       <path d="M 0 0 
L -3.5 0 
" id="m5ef950cea1" style="stroke:#000000;stroke-width:0.8;"/>
      </defs>
      <g>
       <use style="stroke:#000000;stroke-width:0.8;" x="62.89875" xlink:href="#m5ef950cea1" y="484.497885"/>
      </g>
     </g>
     <g id="text_8">
      <!-- 0 -->
      <g transform="translate(47.6275 489.436869)scale(0.13 -0.13)">
       <use xlink:href="#DejaVuSans-48"/>
      </g>
     </g>
    </g>
    <g id="ytick_2">
     <g id="line2d_10">
      <path clip-path="url(#p1a135d11c6)" d="M 62.89875 463.027025 
L 1178.89875 463.027025 
" style="fill:none;stroke:#b0b0b0;stroke-linecap:square;stroke-width:0.8;"/>
     </g>
     <g id="line2d_11">
      <g>
       <use style="stroke:#000000;stroke-width:0.8;" x="62.89875" xlink:href="#m5ef950cea1" y="463.027025"/>
      </g>
     </g>
     <g id="text_9">
      <!-- 100 -->
      <g transform="translate(31.085 467.96601)scale(0.13 -0.13)">
       <use xlink:href="#DejaVuSans-49"/>
       <use x="63.623047" xlink:href="#DejaVuSans-48"/>
       <use x="127.246094" xlink:href="#DejaVuSans-48"/>
      </g>
     </g>
    </g>
    <g id="ytick_3">
     <g id="line2d_12">
      <path clip-path="url(#p1a135d11c6)" d="M 62.89875 441.556166 
L 1178.89875 441.556166 
" style="fill:none;stroke:#b0b0b0;stroke-linecap:square;stroke-width:0.8;"/>
     </g>
     <g id="line2d_13">
      <g>
       <use style="stroke:#000000;stroke-width:0.8;" x="62.89875" xlink:href="#m5ef950cea1" y="441.556166"/>
      </g>
     </g>
     <g id="text_10">
      <!-- 200 -->
      <g transform="translate(31.085 446.495151)scale(0.13 -0.13)">
       <use xlink:href="#DejaVuSans-50"/>
       <use x="63.623047" xlink:href="#DejaVuSans-48"/>
       <use x="127.246094" xlink:href="#DejaVuSans-48"/>
      </g>
     </g>
    </g>
    <g id="ytick_4">
     <g id="line2d_14">
      <path clip-path="url(#p1a135d11c6)" d="M 62.89875 420.085307 
L 1178.89875 420.085307 
" style="fill:none;stroke:#b0b0b0;stroke-linecap:square;stroke-width:0.8;"/>
     </g>
     <g id="line2d_15">
      <g>
       <use style="stroke:#000000;stroke-width:0.8;" x="62.89875" xlink:href="#m5ef950cea1" y="420.085307"/>
      </g>
     </g>
     <g id="text_11">
      <!-- 300 -->
      <defs>
       <path d="M 40.578125 39.3125 
Q 47.65625 37.796875 51.625 33 
Q 55.609375 28.21875 55.609375 21.1875 
Q 55.609375 10.40625 48.1875 4.484375 
Q 40.765625 -1.421875 27.09375 -1.421875 
Q 22.515625 -1.421875 17.65625 -0.515625 
Q 12.796875 0.390625 7.625 2.203125 
L 7.625 11.71875 
Q 11.71875 9.328125 16.59375 8.109375 
Q 21.484375 6.890625 26.8125 6.890625 
Q 36.078125 6.890625 40.9375 10.546875 
Q 45.796875 14.203125 45.796875 21.1875 
Q 45.796875 27.640625 41.28125 31.265625 
Q 36.765625 34.90625 28.71875 34.90625 
L 20.21875 34.90625 
L 20.21875 43.015625 
L 29.109375 43.015625 
Q 36.375 43.015625 40.234375 45.921875 
Q 44.09375 48.828125 44.09375 54.296875 
Q 44.09375 59.90625 40.109375 62.90625 
Q 36.140625 65.921875 28.71875 65.921875 
Q 24.65625 65.921875 20.015625 65.03125 
Q 15.375 64.15625 9.8125 62.3125 
L 9.8125 71.09375 
Q 15.4375 72.65625 20.34375 73.4375 
Q 25.25 74.21875 29.59375 74.21875 
Q 40.828125 74.21875 47.359375 69.109375 
Q 53.90625 64.015625 53.90625 55.328125 
Q 53.90625 49.265625 50.4375 45.09375 
Q 46.96875 40.921875 40.578125 39.3125 
z
" id="DejaVuSans-51"/>
      </defs>
      <g transform="translate(31.085 425.024292)scale(0.13 -0.13)">
       <use xlink:href="#DejaVuSans-51"/>
       <use x="63.623047" xlink:href="#DejaVuSans-48"/>
       <use x="127.246094" xlink:href="#DejaVuSans-48"/>
      </g>
     </g>
    </g>
    <g id="ytick_5">
     <g id="line2d_16">
      <path clip-path="url(#p1a135d11c6)" d="M 62.89875 398.614448 
L 1178.89875 398.614448 
" style="fill:none;stroke:#b0b0b0;stroke-linecap:square;stroke-width:0.8;"/>
     </g>
     <g id="line2d_17">
      <g>
       <use style="stroke:#000000;stroke-width:0.8;" x="62.89875" xlink:href="#m5ef950cea1" y="398.614448"/>
      </g>
     </g>
     <g id="text_12">
      <!-- 400 -->
      <g transform="translate(31.085 403.553433)scale(0.13 -0.13)">
       <use xlink:href="#DejaVuSans-52"/>
       <use x="63.623047" xlink:href="#DejaVuSans-48"/>
       <use x="127.246094" xlink:href="#DejaVuSans-48"/>
      </g>
     </g>
    </g>
    <g id="ytick_6">
     <g id="line2d_18">
      <path clip-path="url(#p1a135d11c6)" d="M 62.89875 377.143589 
L 1178.89875 377.143589 
" style="fill:none;stroke:#b0b0b0;stroke-linecap:square;stroke-width:0.8;"/>
     </g>
     <g id="line2d_19">
      <g>
       <use style="stroke:#000000;stroke-width:0.8;" x="62.89875" xlink:href="#m5ef950cea1" y="377.143589"/>
      </g>
     </g>
     <g id="text_13">
      <!-- 500 -->
      <g transform="translate(31.085 382.082573)scale(0.13 -0.13)">
       <use xlink:href="#DejaVuSans-53"/>
       <use x="63.623047" xlink:href="#DejaVuSans-48"/>
       <use x="127.246094" xlink:href="#DejaVuSans-48"/>
      </g>
     </g>
    </g>
    <g id="ytick_7">
     <g id="line2d_20">
      <path clip-path="url(#p1a135d11c6)" d="M 62.89875 355.67273 
L 1178.89875 355.67273 
" style="fill:none;stroke:#b0b0b0;stroke-linecap:square;stroke-width:0.8;"/>
     </g>
     <g id="line2d_21">
      <g>
       <use style="stroke:#000000;stroke-width:0.8;" x="62.89875" xlink:href="#m5ef950cea1" y="355.67273"/>
      </g>
     </g>
     <g id="text_14">
      <!-- 600 -->
      <g transform="translate(31.085 360.611714)scale(0.13 -0.13)">
       <use xlink:href="#DejaVuSans-54"/>
       <use x="63.623047" xlink:href="#DejaVuSans-48"/>
       <use x="127.246094" xlink:href="#DejaVuSans-48"/>
      </g>
     </g>
    </g>
    <g id="ytick_8">
     <g id="line2d_22">
      <path clip-path="url(#p1a135d11c6)" d="M 62.89875 334.201871 
L 1178.89875 334.201871 
" style="fill:none;stroke:#b0b0b0;stroke-linecap:square;stroke-width:0.8;"/>
     </g>
     <g id="line2d_23">
      <g>
       <use style="stroke:#000000;stroke-width:0.8;" x="62.89875" xlink:href="#m5ef950cea1" y="334.201871"/>
      </g>
     </g>
     <g id="text_15">
      <!-- 700 -->
      <g transform="translate(31.085 339.140855)scale(0.13 -0.13)">
       <use xlink:href="#DejaVuSans-55"/>
       <use x="63.623047" xlink:href="#DejaVuSans-48"/>
       <use x="127.246094" xlink:href="#DejaVuSans-48"/>
      </g>
     </g>
    </g>
    <g id="ytick_9">
     <g id="line2d_24">
      <path clip-path="url(#p1a135d11c6)" d="M 62.89875 312.731012 
L 1178.89875 312.731012 
" style="fill:none;stroke:#b0b0b0;stroke-linecap:square;stroke-width:0.8;"/>
     </g>
     <g id="line2d_25">
      <g>
       <use style="stroke:#000000;stroke-width:0.8;" x="62.89875" xlink:href="#m5ef950cea1" y="312.731012"/>
      </g>
     </g>
     <g id="text_16">
      <!-- 800 -->
      <g transform="translate(31.085 317.669996)scale(0.13 -0.13)">
       <use xlink:href="#DejaVuSans-56"/>
       <use x="63.623047" xlink:href="#DejaVuSans-48"/>
       <use x="127.246094" xlink:href="#DejaVuSans-48"/>
      </g>
     </g>
    </g>
    <g id="ytick_10">
     <g id="line2d_26">
      <path clip-path="url(#p1a135d11c6)" d="M 62.89875 291.260153 
L 1178.89875 291.260153 
" style="fill:none;stroke:#b0b0b0;stroke-linecap:square;stroke-width:0.8;"/>
     </g>
     <g id="line2d_27">
      <g>
       <use style="stroke:#000000;stroke-width:0.8;" x="62.89875" xlink:href="#m5ef950cea1" y="291.260153"/>
      </g>
     </g>
     <g id="text_17">
      <!-- 900 -->
      <g transform="translate(31.085 296.199137)scale(0.13 -0.13)">
       <use xlink:href="#DejaVuSans-57"/>
       <use x="63.623047" xlink:href="#DejaVuSans-48"/>
       <use x="127.246094" xlink:href="#DejaVuSans-48"/>
      </g>
     </g>
    </g>
    <g id="ytick_11">
     <g id="line2d_28">
      <path clip-path="url(#p1a135d11c6)" d="M 62.89875 269.789294 
L 1178.89875 269.789294 
" style="fill:none;stroke:#b0b0b0;stroke-linecap:square;stroke-width:0.8;"/>
     </g>
     <g id="line2d_29">
      <g>
       <use style="stroke:#000000;stroke-width:0.8;" x="62.89875" xlink:href="#m5ef950cea1" y="269.789294"/>
      </g>
     </g>
     <g id="text_18">
      <!-- 1000 -->
      <g transform="translate(22.81375 274.728278)scale(0.13 -0.13)">
       <use xlink:href="#DejaVuSans-49"/>
       <use x="63.623047" xlink:href="#DejaVuSans-48"/>
       <use x="127.246094" xlink:href="#DejaVuSans-48"/>
       <use x="190.869141" xlink:href="#DejaVuSans-48"/>
      </g>
     </g>
    </g>
    <g id="ytick_12">
     <g id="line2d_30">
      <path clip-path="url(#p1a135d11c6)" d="M 62.89875 248.318434 
L 1178.89875 248.318434 
" style="fill:none;stroke:#b0b0b0;stroke-linecap:square;stroke-width:0.8;"/>
     </g>
     <g id="line2d_31">
      <g>
       <use style="stroke:#000000;stroke-width:0.8;" x="62.89875" xlink:href="#m5ef950cea1" y="248.318434"/>
      </g>
     </g>
     <g id="text_19">
      <!-- 1100 -->
      <g transform="translate(22.81375 253.257419)scale(0.13 -0.13)">
       <use xlink:href="#DejaVuSans-49"/>
       <use x="63.623047" xlink:href="#DejaVuSans-49"/>
       <use x="127.246094" xlink:href="#DejaVuSans-48"/>
       <use x="190.869141" xlink:href="#DejaVuSans-48"/>
      </g>
     </g>
    </g>
    <g id="ytick_13">
     <g id="line2d_32">
      <path clip-path="url(#p1a135d11c6)" d="M 62.89875 226.847575 
L 1178.89875 226.847575 
" style="fill:none;stroke:#b0b0b0;stroke-linecap:square;stroke-width:0.8;"/>
     </g>
     <g id="line2d_33">
      <g>
       <use style="stroke:#000000;stroke-width:0.8;" x="62.89875" xlink:href="#m5ef950cea1" y="226.847575"/>
      </g>
     </g>
     <g id="text_20">
      <!-- 1200 -->
      <g transform="translate(22.81375 231.78656)scale(0.13 -0.13)">
       <use xlink:href="#DejaVuSans-49"/>
       <use x="63.623047" xlink:href="#DejaVuSans-50"/>
       <use x="127.246094" xlink:href="#DejaVuSans-48"/>
       <use x="190.869141" xlink:href="#DejaVuSans-48"/>
      </g>
     </g>
    </g>
    <g id="ytick_14">
     <g id="line2d_34">
      <path clip-path="url(#p1a135d11c6)" d="M 62.89875 205.376716 
L 1178.89875 205.376716 
" style="fill:none;stroke:#b0b0b0;stroke-linecap:square;stroke-width:0.8;"/>
     </g>
     <g id="line2d_35">
      <g>
       <use style="stroke:#000000;stroke-width:0.8;" x="62.89875" xlink:href="#m5ef950cea1" y="205.376716"/>
      </g>
     </g>
     <g id="text_21">
      <!-- 1300 -->
      <g transform="translate(22.81375 210.315701)scale(0.13 -0.13)">
       <use xlink:href="#DejaVuSans-49"/>
       <use x="63.623047" xlink:href="#DejaVuSans-51"/>
       <use x="127.246094" xlink:href="#DejaVuSans-48"/>
       <use x="190.869141" xlink:href="#DejaVuSans-48"/>
      </g>
     </g>
    </g>
    <g id="ytick_15">
     <g id="line2d_36">
      <path clip-path="url(#p1a135d11c6)" d="M 62.89875 183.905857 
L 1178.89875 183.905857 
" style="fill:none;stroke:#b0b0b0;stroke-linecap:square;stroke-width:0.8;"/>
     </g>
     <g id="line2d_37">
      <g>
       <use style="stroke:#000000;stroke-width:0.8;" x="62.89875" xlink:href="#m5ef950cea1" y="183.905857"/>
      </g>
     </g>
     <g id="text_22">
      <!-- 1400 -->
      <g transform="translate(22.81375 188.844842)scale(0.13 -0.13)">
       <use xlink:href="#DejaVuSans-49"/>
       <use x="63.623047" xlink:href="#DejaVuSans-52"/>
       <use x="127.246094" xlink:href="#DejaVuSans-48"/>
       <use x="190.869141" xlink:href="#DejaVuSans-48"/>
      </g>
     </g>
    </g>
    <g id="ytick_16">
     <g id="line2d_38">
      <path clip-path="url(#p1a135d11c6)" d="M 62.89875 162.434998 
L 1178.89875 162.434998 
" style="fill:none;stroke:#b0b0b0;stroke-linecap:square;stroke-width:0.8;"/>
     </g>
     <g id="line2d_39">
      <g>
       <use style="stroke:#000000;stroke-width:0.8;" x="62.89875" xlink:href="#m5ef950cea1" y="162.434998"/>
      </g>
     </g>
     <g id="text_23">
      <!-- 1500 -->
      <g transform="translate(22.81375 167.373982)scale(0.13 -0.13)">
       <use xlink:href="#DejaVuSans-49"/>
       <use x="63.623047" xlink:href="#DejaVuSans-53"/>
       <use x="127.246094" xlink:href="#DejaVuSans-48"/>
       <use x="190.869141" xlink:href="#DejaVuSans-48"/>
      </g>
     </g>
    </g>
    <g id="ytick_17">
     <g id="line2d_40">
      <path clip-path="url(#p1a135d11c6)" d="M 62.89875 140.964139 
L 1178.89875 140.964139 
" style="fill:none;stroke:#b0b0b0;stroke-linecap:square;stroke-width:0.8;"/>
     </g>
     <g id="line2d_41">
      <g>
       <use style="stroke:#000000;stroke-width:0.8;" x="62.89875" xlink:href="#m5ef950cea1" y="140.964139"/>
      </g>
     </g>
     <g id="text_24">
      <!-- 1600 -->
      <g transform="translate(22.81375 145.903123)scale(0.13 -0.13)">
       <use xlink:href="#DejaVuSans-49"/>
       <use x="63.623047" xlink:href="#DejaVuSans-54"/>
       <use x="127.246094" xlink:href="#DejaVuSans-48"/>
       <use x="190.869141" xlink:href="#DejaVuSans-48"/>
      </g>
     </g>
    </g>
    <g id="ytick_18">
     <g id="line2d_42">
      <path clip-path="url(#p1a135d11c6)" d="M 62.89875 119.49328 
L 1178.89875 119.49328 
" style="fill:none;stroke:#b0b0b0;stroke-linecap:square;stroke-width:0.8;"/>
     </g>
     <g id="line2d_43">
      <g>
       <use style="stroke:#000000;stroke-width:0.8;" x="62.89875" xlink:href="#m5ef950cea1" y="119.49328"/>
      </g>
     </g>
     <g id="text_25">
      <!-- 1700 -->
      <g transform="translate(22.81375 124.432264)scale(0.13 -0.13)">
       <use xlink:href="#DejaVuSans-49"/>
       <use x="63.623047" xlink:href="#DejaVuSans-55"/>
       <use x="127.246094" xlink:href="#DejaVuSans-48"/>
       <use x="190.869141" xlink:href="#DejaVuSans-48"/>
      </g>
     </g>
    </g>
    <g id="ytick_19">
     <g id="line2d_44">
      <path clip-path="url(#p1a135d11c6)" d="M 62.89875 98.022421 
L 1178.89875 98.022421 
" style="fill:none;stroke:#b0b0b0;stroke-linecap:square;stroke-width:0.8;"/>
     </g>
     <g id="line2d_45">
      <g>
       <use style="stroke:#000000;stroke-width:0.8;" x="62.89875" xlink:href="#m5ef950cea1" y="98.022421"/>
      </g>
     </g>
     <g id="text_26">
      <!-- 1800 -->
      <g transform="translate(22.81375 102.961405)scale(0.13 -0.13)">
       <use xlink:href="#DejaVuSans-49"/>
       <use x="63.623047" xlink:href="#DejaVuSans-56"/>
       <use x="127.246094" xlink:href="#DejaVuSans-48"/>
       <use x="190.869141" xlink:href="#DejaVuSans-48"/>
      </g>
     </g>
    </g>
    <g id="ytick_20">
     <g id="line2d_46">
      <path clip-path="url(#p1a135d11c6)" d="M 62.89875 76.551562 
L 1178.89875 76.551562 
" style="fill:none;stroke:#b0b0b0;stroke-linecap:square;stroke-width:0.8;"/>
     </g>
     <g id="line2d_47">
      <g>
       <use style="stroke:#000000;stroke-width:0.8;" x="62.89875" xlink:href="#m5ef950cea1" y="76.551562"/>
      </g>
     </g>
     <g id="text_27">
      <!-- 1900 -->
      <g transform="translate(22.81375 81.490546)scale(0.13 -0.13)">
       <use xlink:href="#DejaVuSans-49"/>
       <use x="63.623047" xlink:href="#DejaVuSans-57"/>
       <use x="127.246094" xlink:href="#DejaVuSans-48"/>
       <use x="190.869141" xlink:href="#DejaVuSans-48"/>
      </g>
     </g>
    </g>
    <g id="ytick_21">
     <g id="line2d_48">
      <path clip-path="url(#p1a135d11c6)" d="M 62.89875 55.080703 
L 1178.89875 55.080703 
" style="fill:none;stroke:#b0b0b0;stroke-linecap:square;stroke-width:0.8;"/>
     </g>
     <g id="line2d_49">
      <g>
       <use style="stroke:#000000;stroke-width:0.8;" x="62.89875" xlink:href="#m5ef950cea1" y="55.080703"/>
      </g>
     </g>
     <g id="text_28">
      <!-- 2000 -->
      <g transform="translate(22.81375 60.019687)scale(0.13 -0.13)">
       <use xlink:href="#DejaVuSans-50"/>
       <use x="63.623047" xlink:href="#DejaVuSans-48"/>
       <use x="127.246094" xlink:href="#DejaVuSans-48"/>
       <use x="190.869141" xlink:href="#DejaVuSans-48"/>
      </g>
     </g>
    </g>
    <g id="ytick_22">
     <g id="line2d_50">
      <path clip-path="url(#p1a135d11c6)" d="M 62.89875 33.609843 
L 1178.89875 33.609843 
" style="fill:none;stroke:#b0b0b0;stroke-linecap:square;stroke-width:0.8;"/>
     </g>
     <g id="line2d_51">
      <g>
       <use style="stroke:#000000;stroke-width:0.8;" x="62.89875" xlink:href="#m5ef950cea1" y="33.609843"/>
      </g>
     </g>
     <g id="text_29">
      <!-- 2100 -->
      <g transform="translate(22.81375 38.548828)scale(0.13 -0.13)">
       <use xlink:href="#DejaVuSans-50"/>
       <use x="63.623047" xlink:href="#DejaVuSans-49"/>
       <use x="127.246094" xlink:href="#DejaVuSans-48"/>
       <use x="190.869141" xlink:href="#DejaVuSans-48"/>
      </g>
     </g>
    </g>
    <g id="ytick_23">
     <g id="line2d_52">
      <path clip-path="url(#p1a135d11c6)" d="M 62.89875 12.138984 
L 1178.89875 12.138984 
" style="fill:none;stroke:#b0b0b0;stroke-linecap:square;stroke-width:0.8;"/>
     </g>
     <g id="line2d_53">
      <g>
       <use style="stroke:#000000;stroke-width:0.8;" x="62.89875" xlink:href="#m5ef950cea1" y="12.138984"/>
      </g>
     </g>
     <g id="text_30">
      <!-- 2200 -->
      <g transform="translate(22.81375 17.077969)scale(0.13 -0.13)">
       <use xlink:href="#DejaVuSans-50"/>
       <use x="63.623047" xlink:href="#DejaVuSans-50"/>
       <use x="127.246094" xlink:href="#DejaVuSans-48"/>
       <use x="190.869141" xlink:href="#DejaVuSans-48"/>
      </g>
     </g>
    </g>
    <g id="text_31">
     <!-- Anzahl von Fällen -->
     <defs>
      <path d="M 34.1875 63.1875 
L 20.796875 26.90625 
L 47.609375 26.90625 
z
M 28.609375 72.90625 
L 39.796875 72.90625 
L 67.578125 0 
L 57.328125 0 
L 50.6875 18.703125 
L 17.828125 18.703125 
L 11.1875 0 
L 0.78125 0 
z
" id="DejaVuSans-65"/>
      <path d="M 54.890625 33.015625 
L 54.890625 0 
L 45.90625 0 
L 45.90625 32.71875 
Q 45.90625 40.484375 42.875 44.328125 
Q 39.84375 48.1875 33.796875 48.1875 
Q 26.515625 48.1875 22.3125 43.546875 
Q 18.109375 38.921875 18.109375 30.90625 
L 18.109375 0 
L 9.078125 0 
L 9.078125 54.6875 
L 18.109375 54.6875 
L 18.109375 46.1875 
Q 21.34375 51.125 25.703125 53.5625 
Q 30.078125 56 35.796875 56 
Q 45.21875 56 50.046875 50.171875 
Q 54.890625 44.34375 54.890625 33.015625 
z
" id="DejaVuSans-110"/>
      <path d="M 5.515625 54.6875 
L 48.1875 54.6875 
L 48.1875 46.484375 
L 14.40625 7.171875 
L 48.1875 7.171875 
L 48.1875 0 
L 4.296875 0 
L 4.296875 8.203125 
L 38.09375 47.515625 
L 5.515625 47.515625 
z
" id="DejaVuSans-122"/>
      <path d="M 34.28125 27.484375 
Q 23.390625 27.484375 19.1875 25 
Q 14.984375 22.515625 14.984375 16.5 
Q 14.984375 11.71875 18.140625 8.90625 
Q 21.296875 6.109375 26.703125 6.109375 
Q 34.1875 6.109375 38.703125 11.40625 
Q 43.21875 16.703125 43.21875 25.484375 
L 43.21875 27.484375 
z
M 52.203125 31.203125 
L 52.203125 0 
L 43.21875 0 
L 43.21875 8.296875 
Q 40.140625 3.328125 35.546875 0.953125 
Q 30.953125 -1.421875 24.3125 -1.421875 
Q 15.921875 -1.421875 10.953125 3.296875 
Q 6 8.015625 6 15.921875 
Q 6 25.140625 12.171875 29.828125 
Q 18.359375 34.515625 30.609375 34.515625 
L 43.21875 34.515625 
L 43.21875 35.40625 
Q 43.21875 41.609375 39.140625 45 
Q 35.0625 48.390625 27.6875 48.390625 
Q 23 48.390625 18.546875 47.265625 
Q 14.109375 46.140625 10.015625 43.890625 
L 10.015625 52.203125 
Q 14.9375 54.109375 19.578125 55.046875 
Q 24.21875 56 28.609375 56 
Q 40.484375 56 46.34375 49.84375 
Q 52.203125 43.703125 52.203125 31.203125 
z
" id="DejaVuSans-97"/>
      <path d="M 54.890625 33.015625 
L 54.890625 0 
L 45.90625 0 
L 45.90625 32.71875 
Q 45.90625 40.484375 42.875 44.328125 
Q 39.84375 48.1875 33.796875 48.1875 
Q 26.515625 48.1875 22.3125 43.546875 
Q 18.109375 38.921875 18.109375 30.90625 
L 18.109375 0 
L 9.078125 0 
L 9.078125 75.984375 
L 18.109375 75.984375 
L 18.109375 46.1875 
Q 21.34375 51.125 25.703125 53.5625 
Q 30.078125 56 35.796875 56 
Q 45.21875 56 50.046875 50.171875 
Q 54.890625 44.34375 54.890625 33.015625 
z
" id="DejaVuSans-104"/>
      <path d="M 9.421875 75.984375 
L 18.40625 75.984375 
L 18.40625 0 
L 9.421875 0 
z
" id="DejaVuSans-108"/>
      <path id="DejaVuSans-32"/>
      <path d="M 2.984375 54.6875 
L 12.5 54.6875 
L 29.59375 8.796875 
L 46.6875 54.6875 
L 56.203125 54.6875 
L 35.6875 0 
L 23.484375 0 
z
" id="DejaVuSans-118"/>
      <path d="M 30.609375 48.390625 
Q 23.390625 48.390625 19.1875 42.75 
Q 14.984375 37.109375 14.984375 27.296875 
Q 14.984375 17.484375 19.15625 11.84375 
Q 23.34375 6.203125 30.609375 6.203125 
Q 37.796875 6.203125 41.984375 11.859375 
Q 46.1875 17.53125 46.1875 27.296875 
Q 46.1875 37.015625 41.984375 42.703125 
Q 37.796875 48.390625 30.609375 48.390625 
z
M 30.609375 56 
Q 42.328125 56 49.015625 48.375 
Q 55.71875 40.765625 55.71875 27.296875 
Q 55.71875 13.875 49.015625 6.21875 
Q 42.328125 -1.421875 30.609375 -1.421875 
Q 18.84375 -1.421875 12.171875 6.21875 
Q 5.515625 13.875 5.515625 27.296875 
Q 5.515625 40.765625 12.171875 48.375 
Q 18.84375 56 30.609375 56 
z
" id="DejaVuSans-111"/>
      <path d="M 9.8125 72.90625 
L 51.703125 72.90625 
L 51.703125 64.59375 
L 19.671875 64.59375 
L 19.671875 43.109375 
L 48.578125 43.109375 
L 48.578125 34.8125 
L 19.671875 34.8125 
L 19.671875 0 
L 9.8125 0 
z
" id="DejaVuSans-70"/>
      <path d="M 34.28125 27.484375 
Q 23.390625 27.484375 19.1875 25 
Q 14.984375 22.515625 14.984375 16.5 
Q 14.984375 11.71875 18.140625 8.90625 
Q 21.296875 6.109375 26.703125 6.109375 
Q 34.1875 6.109375 38.703125 11.40625 
Q 43.21875 16.703125 43.21875 25.484375 
L 43.21875 27.484375 
z
M 52.203125 31.203125 
L 52.203125 0 
L 43.21875 0 
L 43.21875 8.296875 
Q 40.140625 3.328125 35.546875 0.953125 
Q 30.953125 -1.421875 24.3125 -1.421875 
Q 15.921875 -1.421875 10.953125 3.296875 
Q 6 8.015625 6 15.921875 
Q 6 25.140625 12.171875 29.828125 
Q 18.359375 34.515625 30.609375 34.515625 
L 43.21875 34.515625 
L 43.21875 35.40625 
Q 43.21875 41.609375 39.140625 45 
Q 35.0625 48.390625 27.6875 48.390625 
Q 23 48.390625 18.546875 47.265625 
Q 14.109375 46.140625 10.015625 43.890625 
L 10.015625 52.203125 
Q 14.9375 54.109375 19.578125 55.046875 
Q 24.21875 56 28.609375 56 
Q 40.484375 56 46.34375 49.84375 
Q 52.203125 43.703125 52.203125 31.203125 
z
M 33.59375 75.78125 
L 43.5 75.78125 
L 43.5 65.921875 
L 33.59375 65.921875 
z
M 14.5 75.78125 
L 24.40625 75.78125 
L 24.40625 65.921875 
L 14.5 65.921875 
z
" id="DejaVuSans-228"/>
      <path d="M 56.203125 29.59375 
L 56.203125 25.203125 
L 14.890625 25.203125 
Q 15.484375 15.921875 20.484375 11.0625 
Q 25.484375 6.203125 34.421875 6.203125 
Q 39.59375 6.203125 44.453125 7.46875 
Q 49.3125 8.734375 54.109375 11.28125 
L 54.109375 2.78125 
Q 49.265625 0.734375 44.1875 -0.34375 
Q 39.109375 -1.421875 33.890625 -1.421875 
Q 20.796875 -1.421875 13.15625 6.1875 
Q 5.515625 13.8125 5.515625 26.8125 
Q 5.515625 40.234375 12.765625 48.109375 
Q 20.015625 56 32.328125 56 
Q 43.359375 56 49.78125 48.890625 
Q 56.203125 41.796875 56.203125 29.59375 
z
M 47.21875 32.234375 
Q 47.125 39.59375 43.09375 43.984375 
Q 39.0625 48.390625 32.421875 48.390625 
Q 24.90625 48.390625 20.390625 44.140625 
Q 15.875 39.890625 15.1875 32.171875 
z
" id="DejaVuSans-101"/>
     </defs>
     <g transform="translate(16.318125 309.388359)rotate(-90)scale(0.12 -0.12)">
      <use xlink:href="#DejaVuSans-65"/>
      <use x="68.408203" xlink:href="#DejaVuSans-110"/>
      <use x="131.787109" xlink:href="#DejaVuSans-122"/>
      <use x="184.277344" xlink:href="#DejaVuSans-97"/>
      <use x="245.556641" xlink:href="#DejaVuSans-104"/>
      <use x="308.935547" xlink:href="#DejaVuSans-108"/>
      <use x="336.71875" xlink:href="#DejaVuSans-32"/>
      <use x="368.505859" xlink:href="#DejaVuSans-118"/>
      <use x="427.685547" xlink:href="#DejaVuSans-111"/>
      <use x="488.867188" xlink:href="#DejaVuSans-110"/>
      <use x="552.246094" xlink:href="#DejaVuSans-32"/>
      <use x="584.033203" xlink:href="#DejaVuSans-70"/>
      <use x="632.427734" xlink:href="#DejaVuSans-228"/>
      <use x="693.707031" xlink:href="#DejaVuSans-108"/>
      <use x="721.490234" xlink:href="#DejaVuSans-108"/>
      <use x="749.273438" xlink:href="#DejaVuSans-101"/>
      <use x="810.796875" xlink:href="#DejaVuSans-110"/>
     </g>
    </g>
   </g>
   <g id="line2d_54">
    <path clip-path="url(#p1a135d11c6)" d="M 113.626023 480.847838 
L 118.993988 479.774296 
L 124.361953 477.62721 
L 129.729919 473.977164 
L 135.097884 470.541826 
L 140.46585 468.180032 
L 145.833815 467.750614 
L 151.20178 464.529986 
L 156.569746 459.162271 
L 161.937711 455.726933 
L 167.305676 451.218053 
L 172.673642 443.273835 
L 178.041607 434.685491 
L 183.409573 432.538406 
L 188.777538 427.814817 
L 199.513469 413.214632 
L 204.881434 409.779295 
L 210.249399 402.264494 
L 220.98533 402.264494 
L 231.721261 393.676151 
L 237.089226 387.234893 
L 242.457192 383.15543 
L 247.825157 377.143589 
L 253.193122 372.849417 
L 263.929053 365.978742 
L 269.297018 361.255153 
L 280.032949 353.096227 
L 285.400915 348.157929 
L 290.76888 342.575506 
L 301.504811 335.275414 
L 306.872776 335.275414 
L 312.240741 326.472362 
L 317.608707 322.607607 
L 328.344637 308.651549 
L 339.080568 301.351456 
L 344.448534 296.413159 
L 349.816499 292.548404 
L 355.184464 290.18661 
L 360.55243 286.751272 
L 365.920395 283.530643 
L 376.656326 281.168849 
L 382.024291 276.44526 
L 387.392256 273.868757 
L 392.760222 270.004002 
L 398.128187 267.427499 
L 403.496153 265.495122 
L 414.232083 262.489201 
L 419.600049 260.771533 
L 424.968014 256.262652 
L 435.703945 253.042023 
L 441.07191 248.96256 
L 451.807841 242.521302 
L 457.175806 238.871256 
L 467.911737 231.356456 
L 473.279702 229.638787 
L 494.751564 227.491701 
L 500.119529 226.418158 
L 505.487495 225.559324 
L 510.85546 224.271072 
L 516.223425 224.271072 
L 526.959356 223.412238 
L 537.695287 223.412238 
L 548.431218 221.479861 
L 553.799183 221.479861 
L 564.535114 221.050443 
L 575.271044 218.688649 
L 586.006975 216.97098 
L 591.37494 216.97098 
L 602.110871 215.46802 
L 607.478837 215.038603 
L 612.846802 215.038603 
L 618.214767 213.750351 
L 628.950698 212.676808 
L 639.686629 212.032683 
L 645.054594 212.032683 
L 650.42256 209.885597 
L 655.790525 209.026762 
L 661.15849 207.523802 
L 666.526456 207.523802 
L 677.262386 204.303173 
L 682.630352 201.511962 
L 693.366282 200.653127 
L 698.734248 197.861916 
L 714.838144 195.71483 
L 720.206109 195.71483 
L 725.574075 192.064784 
L 730.94204 192.064784 
L 736.310005 190.561823 
L 752.413902 190.347115 
L 763.149832 189.058863 
L 773.885763 188.200029 
L 789.989659 186.48236 
L 795.357624 186.267652 
L 800.72559 185.194109 
L 806.093555 184.9794 
L 811.461521 184.549983 
L 827.565417 182.402897 
L 832.933382 180.899937 
L 838.301347 178.752851 
L 843.669313 176.391056 
L 849.037278 173.599845 
L 865.141174 170.164507 
L 870.50914 167.802713 
L 875.877105 164.152667 
L 881.24507 163.079124 
L 886.613036 161.146747 
L 902.716932 156.423158 
L 913.452863 149.9819 
L 918.820828 149.337774 
L 924.188793 146.761271 
L 940.292689 138.817053 
L 945.660655 133.878755 
L 951.02862 132.375795 
L 956.396585 130.443418 
L 961.764551 125.50512 
L 977.868447 119.063863 
L 983.236412 117.560903 
L 988.604378 115.413817 
L 993.972343 112.193188 
L 999.340308 110.904936 
L 1015.444205 108.75785 
L 1020.81217 105.75193 
L 1026.180135 101.457758 
L 1031.548101 99.954798 
L 1036.916066 98.237129 
L 1053.019962 94.372375 
L 1058.387927 90.937037 
L 1063.755893 88.789951 
L 1069.123858 86.857574 
L 1074.491824 86.857574 
L 1090.59572 80.201608 
L 1095.963685 78.913356 
L 1101.33165 75.692727 
L 1106.699616 70.325013 
L 1112.067581 68.177927 
L 1128.171477 63.02492 
L 1128.171477 63.02492 
" style="fill:none;stroke:#dbcd00;stroke-linecap:square;stroke-width:2;"/>
    <defs>
     <path d="M 0 1.5 
C 0.397805 1.5 0.77937 1.341951 1.06066 1.06066 
C 1.341951 0.77937 1.5 0.397805 1.5 0 
C 1.5 -0.397805 1.341951 -0.77937 1.06066 -1.06066 
C 0.77937 -1.341951 0.397805 -1.5 0 -1.5 
C -0.397805 -1.5 -0.77937 -1.341951 -1.06066 -1.06066 
C -1.341951 -0.77937 -1.5 -0.397805 -1.5 0 
C -1.5 0.397805 -1.341951 0.77937 -1.06066 1.06066 
C -0.77937 1.341951 -0.397805 1.5 0 1.5 
z
" id="m5b0aa845a0" style="stroke:#dbcd00;"/>
    </defs>
    <g clip-path="url(#p1a135d11c6)">
     <use style="fill:#dbcd00;stroke:#dbcd00;" x="113.626023" xlink:href="#m5b0aa845a0" y="480.847838"/>
     <use style="fill:#dbcd00;stroke:#dbcd00;" x="118.993988" xlink:href="#m5b0aa845a0" y="479.774296"/>
     <use style="fill:#dbcd00;stroke:#dbcd00;" x="124.361953" xlink:href="#m5b0aa845a0" y="477.62721"/>
     <use style="fill:#dbcd00;stroke:#dbcd00;" x="129.729919" xlink:href="#m5b0aa845a0" y="473.977164"/>
     <use style="fill:#dbcd00;stroke:#dbcd00;" x="135.097884" xlink:href="#m5b0aa845a0" y="470.541826"/>
     <use style="fill:#dbcd00;stroke:#dbcd00;" x="140.46585" xlink:href="#m5b0aa845a0" y="468.180032"/>
     <use style="fill:#dbcd00;stroke:#dbcd00;" x="145.833815" xlink:href="#m5b0aa845a0" y="467.750614"/>
     <use style="fill:#dbcd00;stroke:#dbcd00;" x="151.20178" xlink:href="#m5b0aa845a0" y="464.529986"/>
     <use style="fill:#dbcd00;stroke:#dbcd00;" x="156.569746" xlink:href="#m5b0aa845a0" y="459.162271"/>
     <use style="fill:#dbcd00;stroke:#dbcd00;" x="161.937711" xlink:href="#m5b0aa845a0" y="455.726933"/>
     <use style="fill:#dbcd00;stroke:#dbcd00;" x="167.305676" xlink:href="#m5b0aa845a0" y="451.218053"/>
     <use style="fill:#dbcd00;stroke:#dbcd00;" x="172.673642" xlink:href="#m5b0aa845a0" y="443.273835"/>
     <use style="fill:#dbcd00;stroke:#dbcd00;" x="178.041607" xlink:href="#m5b0aa845a0" y="434.685491"/>
     <use style="fill:#dbcd00;stroke:#dbcd00;" x="183.409573" xlink:href="#m5b0aa845a0" y="432.538406"/>
     <use style="fill:#dbcd00;stroke:#dbcd00;" x="188.777538" xlink:href="#m5b0aa845a0" y="427.814817"/>
     <use style="fill:#dbcd00;stroke:#dbcd00;" x="194.145503" xlink:href="#m5b0aa845a0" y="420.514724"/>
     <use style="fill:#dbcd00;stroke:#dbcd00;" x="199.513469" xlink:href="#m5b0aa845a0" y="413.214632"/>
     <use style="fill:#dbcd00;stroke:#dbcd00;" x="204.881434" xlink:href="#m5b0aa845a0" y="409.779295"/>
     <use style="fill:#dbcd00;stroke:#dbcd00;" x="210.249399" xlink:href="#m5b0aa845a0" y="402.264494"/>
     <use style="fill:#dbcd00;stroke:#dbcd00;" x="220.98533" xlink:href="#m5b0aa845a0" y="402.264494"/>
     <use style="fill:#dbcd00;stroke:#dbcd00;" x="231.721261" xlink:href="#m5b0aa845a0" y="393.676151"/>
     <use style="fill:#dbcd00;stroke:#dbcd00;" x="237.089226" xlink:href="#m5b0aa845a0" y="387.234893"/>
     <use style="fill:#dbcd00;stroke:#dbcd00;" x="242.457192" xlink:href="#m5b0aa845a0" y="383.15543"/>
     <use style="fill:#dbcd00;stroke:#dbcd00;" x="247.825157" xlink:href="#m5b0aa845a0" y="377.143589"/>
     <use style="fill:#dbcd00;stroke:#dbcd00;" x="253.193122" xlink:href="#m5b0aa845a0" y="372.849417"/>
     <use style="fill:#dbcd00;stroke:#dbcd00;" x="263.929053" xlink:href="#m5b0aa845a0" y="365.978742"/>
     <use style="fill:#dbcd00;stroke:#dbcd00;" x="269.297018" xlink:href="#m5b0aa845a0" y="361.255153"/>
     <use style="fill:#dbcd00;stroke:#dbcd00;" x="274.664984" xlink:href="#m5b0aa845a0" y="357.17569"/>
     <use style="fill:#dbcd00;stroke:#dbcd00;" x="280.032949" xlink:href="#m5b0aa845a0" y="353.096227"/>
     <use style="fill:#dbcd00;stroke:#dbcd00;" x="285.400915" xlink:href="#m5b0aa845a0" y="348.157929"/>
     <use style="fill:#dbcd00;stroke:#dbcd00;" x="290.76888" xlink:href="#m5b0aa845a0" y="342.575506"/>
     <use style="fill:#dbcd00;stroke:#dbcd00;" x="301.504811" xlink:href="#m5b0aa845a0" y="335.275414"/>
     <use style="fill:#dbcd00;stroke:#dbcd00;" x="306.872776" xlink:href="#m5b0aa845a0" y="335.275414"/>
     <use style="fill:#dbcd00;stroke:#dbcd00;" x="312.240741" xlink:href="#m5b0aa845a0" y="326.472362"/>
     <use style="fill:#dbcd00;stroke:#dbcd00;" x="317.608707" xlink:href="#m5b0aa845a0" y="322.607607"/>
     <use style="fill:#dbcd00;stroke:#dbcd00;" x="328.344637" xlink:href="#m5b0aa845a0" y="308.651549"/>
     <use style="fill:#dbcd00;stroke:#dbcd00;" x="339.080568" xlink:href="#m5b0aa845a0" y="301.351456"/>
     <use style="fill:#dbcd00;stroke:#dbcd00;" x="344.448534" xlink:href="#m5b0aa845a0" y="296.413159"/>
     <use style="fill:#dbcd00;stroke:#dbcd00;" x="349.816499" xlink:href="#m5b0aa845a0" y="292.548404"/>
     <use style="fill:#dbcd00;stroke:#dbcd00;" x="355.184464" xlink:href="#m5b0aa845a0" y="290.18661"/>
     <use style="fill:#dbcd00;stroke:#dbcd00;" x="360.55243" xlink:href="#m5b0aa845a0" y="286.751272"/>
     <use style="fill:#dbcd00;stroke:#dbcd00;" x="365.920395" xlink:href="#m5b0aa845a0" y="283.530643"/>
     <use style="fill:#dbcd00;stroke:#dbcd00;" x="376.656326" xlink:href="#m5b0aa845a0" y="281.168849"/>
     <use style="fill:#dbcd00;stroke:#dbcd00;" x="382.024291" xlink:href="#m5b0aa845a0" y="276.44526"/>
     <use style="fill:#dbcd00;stroke:#dbcd00;" x="387.392256" xlink:href="#m5b0aa845a0" y="273.868757"/>
     <use style="fill:#dbcd00;stroke:#dbcd00;" x="392.760222" xlink:href="#m5b0aa845a0" y="270.004002"/>
     <use style="fill:#dbcd00;stroke:#dbcd00;" x="398.128187" xlink:href="#m5b0aa845a0" y="267.427499"/>
     <use style="fill:#dbcd00;stroke:#dbcd00;" x="403.496153" xlink:href="#m5b0aa845a0" y="265.495122"/>
     <use style="fill:#dbcd00;stroke:#dbcd00;" x="414.232083" xlink:href="#m5b0aa845a0" y="262.489201"/>
     <use style="fill:#dbcd00;stroke:#dbcd00;" x="419.600049" xlink:href="#m5b0aa845a0" y="260.771533"/>
     <use style="fill:#dbcd00;stroke:#dbcd00;" x="424.968014" xlink:href="#m5b0aa845a0" y="256.262652"/>
     <use style="fill:#dbcd00;stroke:#dbcd00;" x="435.703945" xlink:href="#m5b0aa845a0" y="253.042023"/>
     <use style="fill:#dbcd00;stroke:#dbcd00;" x="441.07191" xlink:href="#m5b0aa845a0" y="248.96256"/>
     <use style="fill:#dbcd00;stroke:#dbcd00;" x="451.807841" xlink:href="#m5b0aa845a0" y="242.521302"/>
     <use style="fill:#dbcd00;stroke:#dbcd00;" x="457.175806" xlink:href="#m5b0aa845a0" y="238.871256"/>
     <use style="fill:#dbcd00;stroke:#dbcd00;" x="467.911737" xlink:href="#m5b0aa845a0" y="231.356456"/>
     <use style="fill:#dbcd00;stroke:#dbcd00;" x="473.279702" xlink:href="#m5b0aa845a0" y="229.638787"/>
     <use style="fill:#dbcd00;stroke:#dbcd00;" x="494.751564" xlink:href="#m5b0aa845a0" y="227.491701"/>
     <use style="fill:#dbcd00;stroke:#dbcd00;" x="500.119529" xlink:href="#m5b0aa845a0" y="226.418158"/>
     <use style="fill:#dbcd00;stroke:#dbcd00;" x="505.487495" xlink:href="#m5b0aa845a0" y="225.559324"/>
     <use style="fill:#dbcd00;stroke:#dbcd00;" x="510.85546" xlink:href="#m5b0aa845a0" y="224.271072"/>
     <use style="fill:#dbcd00;stroke:#dbcd00;" x="516.223425" xlink:href="#m5b0aa845a0" y="224.271072"/>
     <use style="fill:#dbcd00;stroke:#dbcd00;" x="526.959356" xlink:href="#m5b0aa845a0" y="223.412238"/>
     <use style="fill:#dbcd00;stroke:#dbcd00;" x="532.327321" xlink:href="#m5b0aa845a0" y="223.412238"/>
     <use style="fill:#dbcd00;stroke:#dbcd00;" x="537.695287" xlink:href="#m5b0aa845a0" y="223.412238"/>
     <use style="fill:#dbcd00;stroke:#dbcd00;" x="548.431218" xlink:href="#m5b0aa845a0" y="221.479861"/>
     <use style="fill:#dbcd00;stroke:#dbcd00;" x="553.799183" xlink:href="#m5b0aa845a0" y="221.479861"/>
     <use style="fill:#dbcd00;stroke:#dbcd00;" x="564.535114" xlink:href="#m5b0aa845a0" y="221.050443"/>
     <use style="fill:#dbcd00;stroke:#dbcd00;" x="575.271044" xlink:href="#m5b0aa845a0" y="218.688649"/>
     <use style="fill:#dbcd00;stroke:#dbcd00;" x="586.006975" xlink:href="#m5b0aa845a0" y="216.97098"/>
     <use style="fill:#dbcd00;stroke:#dbcd00;" x="591.37494" xlink:href="#m5b0aa845a0" y="216.97098"/>
     <use style="fill:#dbcd00;stroke:#dbcd00;" x="602.110871" xlink:href="#m5b0aa845a0" y="215.46802"/>
     <use style="fill:#dbcd00;stroke:#dbcd00;" x="607.478837" xlink:href="#m5b0aa845a0" y="215.038603"/>
     <use style="fill:#dbcd00;stroke:#dbcd00;" x="612.846802" xlink:href="#m5b0aa845a0" y="215.038603"/>
     <use style="fill:#dbcd00;stroke:#dbcd00;" x="618.214767" xlink:href="#m5b0aa845a0" y="213.750351"/>
     <use style="fill:#dbcd00;stroke:#dbcd00;" x="628.950698" xlink:href="#m5b0aa845a0" y="212.676808"/>
     <use style="fill:#dbcd00;stroke:#dbcd00;" x="639.686629" xlink:href="#m5b0aa845a0" y="212.032683"/>
     <use style="fill:#dbcd00;stroke:#dbcd00;" x="645.054594" xlink:href="#m5b0aa845a0" y="212.032683"/>
     <use style="fill:#dbcd00;stroke:#dbcd00;" x="650.42256" xlink:href="#m5b0aa845a0" y="209.885597"/>
     <use style="fill:#dbcd00;stroke:#dbcd00;" x="655.790525" xlink:href="#m5b0aa845a0" y="209.026762"/>
     <use style="fill:#dbcd00;stroke:#dbcd00;" x="661.15849" xlink:href="#m5b0aa845a0" y="207.523802"/>
     <use style="fill:#dbcd00;stroke:#dbcd00;" x="666.526456" xlink:href="#m5b0aa845a0" y="207.523802"/>
     <use style="fill:#dbcd00;stroke:#dbcd00;" x="677.262386" xlink:href="#m5b0aa845a0" y="204.303173"/>
     <use style="fill:#dbcd00;stroke:#dbcd00;" x="682.630352" xlink:href="#m5b0aa845a0" y="201.511962"/>
     <use style="fill:#dbcd00;stroke:#dbcd00;" x="687.998317" xlink:href="#m5b0aa845a0" y="201.082544"/>
     <use style="fill:#dbcd00;stroke:#dbcd00;" x="693.366282" xlink:href="#m5b0aa845a0" y="200.653127"/>
     <use style="fill:#dbcd00;stroke:#dbcd00;" x="698.734248" xlink:href="#m5b0aa845a0" y="197.861916"/>
     <use style="fill:#dbcd00;stroke:#dbcd00;" x="714.838144" xlink:href="#m5b0aa845a0" y="195.71483"/>
     <use style="fill:#dbcd00;stroke:#dbcd00;" x="720.206109" xlink:href="#m5b0aa845a0" y="195.71483"/>
     <use style="fill:#dbcd00;stroke:#dbcd00;" x="725.574075" xlink:href="#m5b0aa845a0" y="192.064784"/>
     <use style="fill:#dbcd00;stroke:#dbcd00;" x="730.94204" xlink:href="#m5b0aa845a0" y="192.064784"/>
     <use style="fill:#dbcd00;stroke:#dbcd00;" x="736.310005" xlink:href="#m5b0aa845a0" y="190.561823"/>
     <use style="fill:#dbcd00;stroke:#dbcd00;" x="752.413902" xlink:href="#m5b0aa845a0" y="190.347115"/>
     <use style="fill:#dbcd00;stroke:#dbcd00;" x="757.781867" xlink:href="#m5b0aa845a0" y="189.702989"/>
     <use style="fill:#dbcd00;stroke:#dbcd00;" x="763.149832" xlink:href="#m5b0aa845a0" y="189.058863"/>
     <use style="fill:#dbcd00;stroke:#dbcd00;" x="768.517798" xlink:href="#m5b0aa845a0" y="188.629446"/>
     <use style="fill:#dbcd00;stroke:#dbcd00;" x="773.885763" xlink:href="#m5b0aa845a0" y="188.200029"/>
     <use style="fill:#dbcd00;stroke:#dbcd00;" x="789.989659" xlink:href="#m5b0aa845a0" y="186.48236"/>
     <use style="fill:#dbcd00;stroke:#dbcd00;" x="795.357624" xlink:href="#m5b0aa845a0" y="186.267652"/>
     <use style="fill:#dbcd00;stroke:#dbcd00;" x="800.72559" xlink:href="#m5b0aa845a0" y="185.194109"/>
     <use style="fill:#dbcd00;stroke:#dbcd00;" x="806.093555" xlink:href="#m5b0aa845a0" y="184.9794"/>
     <use style="fill:#dbcd00;stroke:#dbcd00;" x="811.461521" xlink:href="#m5b0aa845a0" y="184.549983"/>
     <use style="fill:#dbcd00;stroke:#dbcd00;" x="827.565417" xlink:href="#m5b0aa845a0" y="182.402897"/>
     <use style="fill:#dbcd00;stroke:#dbcd00;" x="832.933382" xlink:href="#m5b0aa845a0" y="180.899937"/>
     <use style="fill:#dbcd00;stroke:#dbcd00;" x="838.301347" xlink:href="#m5b0aa845a0" y="178.752851"/>
     <use style="fill:#dbcd00;stroke:#dbcd00;" x="843.669313" xlink:href="#m5b0aa845a0" y="176.391056"/>
     <use style="fill:#dbcd00;stroke:#dbcd00;" x="849.037278" xlink:href="#m5b0aa845a0" y="173.599845"/>
     <use style="fill:#dbcd00;stroke:#dbcd00;" x="865.141174" xlink:href="#m5b0aa845a0" y="170.164507"/>
     <use style="fill:#dbcd00;stroke:#dbcd00;" x="870.50914" xlink:href="#m5b0aa845a0" y="167.802713"/>
     <use style="fill:#dbcd00;stroke:#dbcd00;" x="875.877105" xlink:href="#m5b0aa845a0" y="164.152667"/>
     <use style="fill:#dbcd00;stroke:#dbcd00;" x="881.24507" xlink:href="#m5b0aa845a0" y="163.079124"/>
     <use style="fill:#dbcd00;stroke:#dbcd00;" x="886.613036" xlink:href="#m5b0aa845a0" y="161.146747"/>
     <use style="fill:#dbcd00;stroke:#dbcd00;" x="902.716932" xlink:href="#m5b0aa845a0" y="156.423158"/>
     <use style="fill:#dbcd00;stroke:#dbcd00;" x="908.084897" xlink:href="#m5b0aa845a0" y="153.202529"/>
     <use style="fill:#dbcd00;stroke:#dbcd00;" x="913.452863" xlink:href="#m5b0aa845a0" y="149.9819"/>
     <use style="fill:#dbcd00;stroke:#dbcd00;" x="918.820828" xlink:href="#m5b0aa845a0" y="149.337774"/>
     <use style="fill:#dbcd00;stroke:#dbcd00;" x="924.188793" xlink:href="#m5b0aa845a0" y="146.761271"/>
     <use style="fill:#dbcd00;stroke:#dbcd00;" x="940.292689" xlink:href="#m5b0aa845a0" y="138.817053"/>
     <use style="fill:#dbcd00;stroke:#dbcd00;" x="945.660655" xlink:href="#m5b0aa845a0" y="133.878755"/>
     <use style="fill:#dbcd00;stroke:#dbcd00;" x="951.02862" xlink:href="#m5b0aa845a0" y="132.375795"/>
     <use style="fill:#dbcd00;stroke:#dbcd00;" x="956.396585" xlink:href="#m5b0aa845a0" y="130.443418"/>
     <use style="fill:#dbcd00;stroke:#dbcd00;" x="961.764551" xlink:href="#m5b0aa845a0" y="125.50512"/>
     <use style="fill:#dbcd00;stroke:#dbcd00;" x="977.868447" xlink:href="#m5b0aa845a0" y="119.063863"/>
     <use style="fill:#dbcd00;stroke:#dbcd00;" x="983.236412" xlink:href="#m5b0aa845a0" y="117.560903"/>
     <use style="fill:#dbcd00;stroke:#dbcd00;" x="988.604378" xlink:href="#m5b0aa845a0" y="115.413817"/>
     <use style="fill:#dbcd00;stroke:#dbcd00;" x="993.972343" xlink:href="#m5b0aa845a0" y="112.193188"/>
     <use style="fill:#dbcd00;stroke:#dbcd00;" x="999.340308" xlink:href="#m5b0aa845a0" y="110.904936"/>
     <use style="fill:#dbcd00;stroke:#dbcd00;" x="1015.444205" xlink:href="#m5b0aa845a0" y="108.75785"/>
     <use style="fill:#dbcd00;stroke:#dbcd00;" x="1020.81217" xlink:href="#m5b0aa845a0" y="105.75193"/>
     <use style="fill:#dbcd00;stroke:#dbcd00;" x="1026.180135" xlink:href="#m5b0aa845a0" y="101.457758"/>
     <use style="fill:#dbcd00;stroke:#dbcd00;" x="1031.548101" xlink:href="#m5b0aa845a0" y="99.954798"/>
     <use style="fill:#dbcd00;stroke:#dbcd00;" x="1036.916066" xlink:href="#m5b0aa845a0" y="98.237129"/>
     <use style="fill:#dbcd00;stroke:#dbcd00;" x="1053.019962" xlink:href="#m5b0aa845a0" y="94.372375"/>
     <use style="fill:#dbcd00;stroke:#dbcd00;" x="1058.387927" xlink:href="#m5b0aa845a0" y="90.937037"/>
     <use style="fill:#dbcd00;stroke:#dbcd00;" x="1063.755893" xlink:href="#m5b0aa845a0" y="88.789951"/>
     <use style="fill:#dbcd00;stroke:#dbcd00;" x="1069.123858" xlink:href="#m5b0aa845a0" y="86.857574"/>
     <use style="fill:#dbcd00;stroke:#dbcd00;" x="1074.491824" xlink:href="#m5b0aa845a0" y="86.857574"/>
     <use style="fill:#dbcd00;stroke:#dbcd00;" x="1090.59572" xlink:href="#m5b0aa845a0" y="80.201608"/>
     <use style="fill:#dbcd00;stroke:#dbcd00;" x="1095.963685" xlink:href="#m5b0aa845a0" y="78.913356"/>
     <use style="fill:#dbcd00;stroke:#dbcd00;" x="1101.33165" xlink:href="#m5b0aa845a0" y="75.692727"/>
     <use style="fill:#dbcd00;stroke:#dbcd00;" x="1106.699616" xlink:href="#m5b0aa845a0" y="70.325013"/>
     <use style="fill:#dbcd00;stroke:#dbcd00;" x="1112.067581" xlink:href="#m5b0aa845a0" y="68.177927"/>
     <use style="fill:#dbcd00;stroke:#dbcd00;" x="1128.171477" xlink:href="#m5b0aa845a0" y="63.02492"/>
    </g>
   </g>
   <g id="line2d_55">
    <path clip-path="url(#p1a135d11c6)" d="M 113.626023 453.365139 
L 118.993988 447.353298 
L 124.361953 443.703252 
L 129.729919 438.335537 
L 135.097884 433.182531 
L 140.46585 433.826657 
L 145.833815 431.035445 
L 151.20178 428.029525 
L 156.569746 427.385399 
L 161.937711 423.950062 
L 167.305676 418.582347 
L 172.673642 420.729433 
L 183.409573 421.15885 
L 188.777538 424.379479 
L 194.145503 424.379479 
L 199.513469 425.667731 
L 204.881434 418.582347 
L 210.249399 424.16477 
L 220.98533 424.16477 
L 231.721261 423.091228 
L 237.089226 426.741274 
L 242.457192 421.373559 
L 247.825157 422.876519 
L 253.193122 419.441181 
L 263.929053 430.39132 
L 269.297018 424.379479 
L 274.664984 420.300016 
L 280.032949 419.441181 
L 285.400915 420.514724 
L 290.76888 420.944142 
L 301.504811 423.091228 
L 306.872776 422.447102 
L 312.240741 427.600108 
L 317.608707 430.820737 
L 328.344637 437.90612 
L 339.080568 438.550246 
L 344.448534 438.550246 
L 349.816499 441.556166 
L 355.184464 441.985584 
L 360.55243 442.629709 
L 365.920395 442.844418 
L 376.656326 439.838498 
L 382.024291 444.132669 
L 387.392256 443.917961 
L 392.760222 446.065047 
L 398.128187 444.562087 
L 403.496153 444.776795 
L 414.232083 446.065047 
L 419.600049 447.353298 
L 424.968014 451.862179 
L 435.703945 454.009265 
L 441.07191 457.444602 
L 451.807841 463.671151 
L 457.175806 467.321197 
L 467.911737 473.762455 
L 473.279702 475.265415 
L 494.751564 475.694832 
L 500.119529 476.338958 
L 505.487495 475.265415 
L 510.85546 476.124249 
L 516.223425 475.050707 
L 526.959356 475.480124 
L 532.327321 474.191872 
L 537.695287 473.547746 
L 548.431218 476.553667 
L 553.799183 475.909541 
L 564.535114 475.265415 
L 575.271044 477.62721 
L 586.006975 478.056627 
L 591.37494 476.553667 
L 607.478837 475.050707 
L 612.846802 473.977164 
L 618.214767 474.406581 
L 639.686629 469.682992 
L 645.054594 469.682992 
L 650.42256 469.8977 
L 655.790525 468.824157 
L 661.15849 470.327118 
L 666.526456 467.535906 
L 677.262386 470.112409 
L 682.630352 472.688912 
L 687.998317 472.688912 
L 693.366282 472.259495 
L 698.734248 474.191872 
L 714.838144 475.694832 
L 720.206109 475.480124 
L 725.574075 478.700753 
L 730.94204 478.056627 
L 752.413902 477.197792 
L 757.781867 477.412501 
L 763.149832 477.412501 
L 768.517798 477.197792 
L 773.885763 476.553667 
L 789.989659 472.688912 
L 795.357624 471.830078 
L 800.72559 471.40066 
L 806.093555 466.89178 
L 811.461521 466.032946 
L 827.565417 465.38882 
L 832.933382 464.959403 
L 838.301347 463.456443 
L 843.669313 463.88586 
L 849.037278 465.38882 
L 865.141174 462.3829 
L 870.50914 463.671151 
L 875.877105 465.603529 
L 881.24507 458.518145 
L 886.613036 457.444602 
L 902.716932 455.082808 
L 913.452863 455.512225 
L 918.820828 454.009265 
L 924.188793 453.15043 
L 940.292689 456.156351 
L 945.660655 459.162271 
L 951.02862 459.376979 
L 956.396585 458.947562 
L 961.764551 460.235814 
L 977.868447 465.38882 
L 983.236412 462.597608 
L 993.972343 465.603529 
L 1015.444205 462.168191 
L 1020.81217 463.027025 
L 1026.180135 465.603529 
L 1031.548101 465.174111 
L 1053.019962 466.032946 
L 1058.387927 464.100568 
L 1063.755893 463.241734 
L 1069.123858 462.597608 
L 1074.491824 457.659311 
L 1090.59572 456.585768 
L 1095.963685 456.800476 
L 1101.33165 457.444602 
L 1106.699616 459.162271 
L 1112.067581 456.371059 
L 1128.171477 450.359219 
L 1128.171477 450.359219 
" style="fill:none;stroke:#2792cb;stroke-linecap:square;stroke-width:2;"/>
    <defs>
     <path d="M 0 1.5 
C 0.397805 1.5 0.77937 1.341951 1.06066 1.06066 
C 1.341951 0.77937 1.5 0.397805 1.5 0 
C 1.5 -0.397805 1.341951 -0.77937 1.06066 -1.06066 
C 0.77937 -1.341951 0.397805 -1.5 0 -1.5 
C -0.397805 -1.5 -0.77937 -1.341951 -1.06066 -1.06066 
C -1.341951 -0.77937 -1.5 -0.397805 -1.5 0 
C -1.5 0.397805 -1.341951 0.77937 -1.06066 1.06066 
C -0.77937 1.341951 -0.397805 1.5 0 1.5 
z
" id="m7499a1bc22" style="stroke:#2792cb;"/>
    </defs>
    <g clip-path="url(#p1a135d11c6)">
     <use style="fill:#2792cb;stroke:#2792cb;" x="113.626023" xlink:href="#m7499a1bc22" y="453.365139"/>
     <use style="fill:#2792cb;stroke:#2792cb;" x="118.993988" xlink:href="#m7499a1bc22" y="447.353298"/>
     <use style="fill:#2792cb;stroke:#2792cb;" x="124.361953" xlink:href="#m7499a1bc22" y="443.703252"/>
     <use style="fill:#2792cb;stroke:#2792cb;" x="129.729919" xlink:href="#m7499a1bc22" y="438.335537"/>
     <use style="fill:#2792cb;stroke:#2792cb;" x="135.097884" xlink:href="#m7499a1bc22" y="433.182531"/>
     <use style="fill:#2792cb;stroke:#2792cb;" x="140.46585" xlink:href="#m7499a1bc22" y="433.826657"/>
     <use style="fill:#2792cb;stroke:#2792cb;" x="145.833815" xlink:href="#m7499a1bc22" y="431.035445"/>
     <use style="fill:#2792cb;stroke:#2792cb;" x="151.20178" xlink:href="#m7499a1bc22" y="428.029525"/>
     <use style="fill:#2792cb;stroke:#2792cb;" x="156.569746" xlink:href="#m7499a1bc22" y="427.385399"/>
     <use style="fill:#2792cb;stroke:#2792cb;" x="161.937711" xlink:href="#m7499a1bc22" y="423.950062"/>
     <use style="fill:#2792cb;stroke:#2792cb;" x="167.305676" xlink:href="#m7499a1bc22" y="418.582347"/>
     <use style="fill:#2792cb;stroke:#2792cb;" x="172.673642" xlink:href="#m7499a1bc22" y="420.729433"/>
     <use style="fill:#2792cb;stroke:#2792cb;" x="178.041607" xlink:href="#m7499a1bc22" y="420.944142"/>
     <use style="fill:#2792cb;stroke:#2792cb;" x="183.409573" xlink:href="#m7499a1bc22" y="421.15885"/>
     <use style="fill:#2792cb;stroke:#2792cb;" x="188.777538" xlink:href="#m7499a1bc22" y="424.379479"/>
     <use style="fill:#2792cb;stroke:#2792cb;" x="194.145503" xlink:href="#m7499a1bc22" y="424.379479"/>
     <use style="fill:#2792cb;stroke:#2792cb;" x="199.513469" xlink:href="#m7499a1bc22" y="425.667731"/>
     <use style="fill:#2792cb;stroke:#2792cb;" x="204.881434" xlink:href="#m7499a1bc22" y="418.582347"/>
     <use style="fill:#2792cb;stroke:#2792cb;" x="210.249399" xlink:href="#m7499a1bc22" y="424.16477"/>
     <use style="fill:#2792cb;stroke:#2792cb;" x="220.98533" xlink:href="#m7499a1bc22" y="424.16477"/>
     <use style="fill:#2792cb;stroke:#2792cb;" x="231.721261" xlink:href="#m7499a1bc22" y="423.091228"/>
     <use style="fill:#2792cb;stroke:#2792cb;" x="237.089226" xlink:href="#m7499a1bc22" y="426.741274"/>
     <use style="fill:#2792cb;stroke:#2792cb;" x="242.457192" xlink:href="#m7499a1bc22" y="421.373559"/>
     <use style="fill:#2792cb;stroke:#2792cb;" x="247.825157" xlink:href="#m7499a1bc22" y="422.876519"/>
     <use style="fill:#2792cb;stroke:#2792cb;" x="253.193122" xlink:href="#m7499a1bc22" y="419.441181"/>
     <use style="fill:#2792cb;stroke:#2792cb;" x="263.929053" xlink:href="#m7499a1bc22" y="430.39132"/>
     <use style="fill:#2792cb;stroke:#2792cb;" x="269.297018" xlink:href="#m7499a1bc22" y="424.379479"/>
     <use style="fill:#2792cb;stroke:#2792cb;" x="274.664984" xlink:href="#m7499a1bc22" y="420.300016"/>
     <use style="fill:#2792cb;stroke:#2792cb;" x="280.032949" xlink:href="#m7499a1bc22" y="419.441181"/>
     <use style="fill:#2792cb;stroke:#2792cb;" x="285.400915" xlink:href="#m7499a1bc22" y="420.514724"/>
     <use style="fill:#2792cb;stroke:#2792cb;" x="290.76888" xlink:href="#m7499a1bc22" y="420.944142"/>
     <use style="fill:#2792cb;stroke:#2792cb;" x="301.504811" xlink:href="#m7499a1bc22" y="423.091228"/>
     <use style="fill:#2792cb;stroke:#2792cb;" x="306.872776" xlink:href="#m7499a1bc22" y="422.447102"/>
     <use style="fill:#2792cb;stroke:#2792cb;" x="312.240741" xlink:href="#m7499a1bc22" y="427.600108"/>
     <use style="fill:#2792cb;stroke:#2792cb;" x="317.608707" xlink:href="#m7499a1bc22" y="430.820737"/>
     <use style="fill:#2792cb;stroke:#2792cb;" x="328.344637" xlink:href="#m7499a1bc22" y="437.90612"/>
     <use style="fill:#2792cb;stroke:#2792cb;" x="339.080568" xlink:href="#m7499a1bc22" y="438.550246"/>
     <use style="fill:#2792cb;stroke:#2792cb;" x="344.448534" xlink:href="#m7499a1bc22" y="438.550246"/>
     <use style="fill:#2792cb;stroke:#2792cb;" x="349.816499" xlink:href="#m7499a1bc22" y="441.556166"/>
     <use style="fill:#2792cb;stroke:#2792cb;" x="355.184464" xlink:href="#m7499a1bc22" y="441.985584"/>
     <use style="fill:#2792cb;stroke:#2792cb;" x="360.55243" xlink:href="#m7499a1bc22" y="442.629709"/>
     <use style="fill:#2792cb;stroke:#2792cb;" x="365.920395" xlink:href="#m7499a1bc22" y="442.844418"/>
     <use style="fill:#2792cb;stroke:#2792cb;" x="376.656326" xlink:href="#m7499a1bc22" y="439.838498"/>
     <use style="fill:#2792cb;stroke:#2792cb;" x="382.024291" xlink:href="#m7499a1bc22" y="444.132669"/>
     <use style="fill:#2792cb;stroke:#2792cb;" x="387.392256" xlink:href="#m7499a1bc22" y="443.917961"/>
     <use style="fill:#2792cb;stroke:#2792cb;" x="392.760222" xlink:href="#m7499a1bc22" y="446.065047"/>
     <use style="fill:#2792cb;stroke:#2792cb;" x="398.128187" xlink:href="#m7499a1bc22" y="444.562087"/>
     <use style="fill:#2792cb;stroke:#2792cb;" x="403.496153" xlink:href="#m7499a1bc22" y="444.776795"/>
     <use style="fill:#2792cb;stroke:#2792cb;" x="414.232083" xlink:href="#m7499a1bc22" y="446.065047"/>
     <use style="fill:#2792cb;stroke:#2792cb;" x="419.600049" xlink:href="#m7499a1bc22" y="447.353298"/>
     <use style="fill:#2792cb;stroke:#2792cb;" x="424.968014" xlink:href="#m7499a1bc22" y="451.862179"/>
     <use style="fill:#2792cb;stroke:#2792cb;" x="435.703945" xlink:href="#m7499a1bc22" y="454.009265"/>
     <use style="fill:#2792cb;stroke:#2792cb;" x="441.07191" xlink:href="#m7499a1bc22" y="457.444602"/>
     <use style="fill:#2792cb;stroke:#2792cb;" x="451.807841" xlink:href="#m7499a1bc22" y="463.671151"/>
     <use style="fill:#2792cb;stroke:#2792cb;" x="457.175806" xlink:href="#m7499a1bc22" y="467.321197"/>
     <use style="fill:#2792cb;stroke:#2792cb;" x="467.911737" xlink:href="#m7499a1bc22" y="473.762455"/>
     <use style="fill:#2792cb;stroke:#2792cb;" x="473.279702" xlink:href="#m7499a1bc22" y="475.265415"/>
     <use style="fill:#2792cb;stroke:#2792cb;" x="494.751564" xlink:href="#m7499a1bc22" y="475.694832"/>
     <use style="fill:#2792cb;stroke:#2792cb;" x="500.119529" xlink:href="#m7499a1bc22" y="476.338958"/>
     <use style="fill:#2792cb;stroke:#2792cb;" x="505.487495" xlink:href="#m7499a1bc22" y="475.265415"/>
     <use style="fill:#2792cb;stroke:#2792cb;" x="510.85546" xlink:href="#m7499a1bc22" y="476.124249"/>
     <use style="fill:#2792cb;stroke:#2792cb;" x="516.223425" xlink:href="#m7499a1bc22" y="475.050707"/>
     <use style="fill:#2792cb;stroke:#2792cb;" x="526.959356" xlink:href="#m7499a1bc22" y="475.480124"/>
     <use style="fill:#2792cb;stroke:#2792cb;" x="532.327321" xlink:href="#m7499a1bc22" y="474.191872"/>
     <use style="fill:#2792cb;stroke:#2792cb;" x="537.695287" xlink:href="#m7499a1bc22" y="473.547746"/>
     <use style="fill:#2792cb;stroke:#2792cb;" x="548.431218" xlink:href="#m7499a1bc22" y="476.553667"/>
     <use style="fill:#2792cb;stroke:#2792cb;" x="553.799183" xlink:href="#m7499a1bc22" y="475.909541"/>
     <use style="fill:#2792cb;stroke:#2792cb;" x="564.535114" xlink:href="#m7499a1bc22" y="475.265415"/>
     <use style="fill:#2792cb;stroke:#2792cb;" x="575.271044" xlink:href="#m7499a1bc22" y="477.62721"/>
     <use style="fill:#2792cb;stroke:#2792cb;" x="586.006975" xlink:href="#m7499a1bc22" y="478.056627"/>
     <use style="fill:#2792cb;stroke:#2792cb;" x="591.37494" xlink:href="#m7499a1bc22" y="476.553667"/>
     <use style="fill:#2792cb;stroke:#2792cb;" x="602.110871" xlink:href="#m7499a1bc22" y="475.480124"/>
     <use style="fill:#2792cb;stroke:#2792cb;" x="607.478837" xlink:href="#m7499a1bc22" y="475.050707"/>
     <use style="fill:#2792cb;stroke:#2792cb;" x="612.846802" xlink:href="#m7499a1bc22" y="473.977164"/>
     <use style="fill:#2792cb;stroke:#2792cb;" x="618.214767" xlink:href="#m7499a1bc22" y="474.406581"/>
     <use style="fill:#2792cb;stroke:#2792cb;" x="628.950698" xlink:href="#m7499a1bc22" y="472.044786"/>
     <use style="fill:#2792cb;stroke:#2792cb;" x="639.686629" xlink:href="#m7499a1bc22" y="469.682992"/>
     <use style="fill:#2792cb;stroke:#2792cb;" x="645.054594" xlink:href="#m7499a1bc22" y="469.682992"/>
     <use style="fill:#2792cb;stroke:#2792cb;" x="650.42256" xlink:href="#m7499a1bc22" y="469.8977"/>
     <use style="fill:#2792cb;stroke:#2792cb;" x="655.790525" xlink:href="#m7499a1bc22" y="468.824157"/>
     <use style="fill:#2792cb;stroke:#2792cb;" x="661.15849" xlink:href="#m7499a1bc22" y="470.327118"/>
     <use style="fill:#2792cb;stroke:#2792cb;" x="666.526456" xlink:href="#m7499a1bc22" y="467.535906"/>
     <use style="fill:#2792cb;stroke:#2792cb;" x="677.262386" xlink:href="#m7499a1bc22" y="470.112409"/>
     <use style="fill:#2792cb;stroke:#2792cb;" x="682.630352" xlink:href="#m7499a1bc22" y="472.688912"/>
     <use style="fill:#2792cb;stroke:#2792cb;" x="687.998317" xlink:href="#m7499a1bc22" y="472.688912"/>
     <use style="fill:#2792cb;stroke:#2792cb;" x="693.366282" xlink:href="#m7499a1bc22" y="472.259495"/>
     <use style="fill:#2792cb;stroke:#2792cb;" x="698.734248" xlink:href="#m7499a1bc22" y="474.191872"/>
     <use style="fill:#2792cb;stroke:#2792cb;" x="714.838144" xlink:href="#m7499a1bc22" y="475.694832"/>
     <use style="fill:#2792cb;stroke:#2792cb;" x="720.206109" xlink:href="#m7499a1bc22" y="475.480124"/>
     <use style="fill:#2792cb;stroke:#2792cb;" x="725.574075" xlink:href="#m7499a1bc22" y="478.700753"/>
     <use style="fill:#2792cb;stroke:#2792cb;" x="730.94204" xlink:href="#m7499a1bc22" y="478.056627"/>
     <use style="fill:#2792cb;stroke:#2792cb;" x="736.310005" xlink:href="#m7499a1bc22" y="477.841918"/>
     <use style="fill:#2792cb;stroke:#2792cb;" x="752.413902" xlink:href="#m7499a1bc22" y="477.197792"/>
     <use style="fill:#2792cb;stroke:#2792cb;" x="757.781867" xlink:href="#m7499a1bc22" y="477.412501"/>
     <use style="fill:#2792cb;stroke:#2792cb;" x="763.149832" xlink:href="#m7499a1bc22" y="477.412501"/>
     <use style="fill:#2792cb;stroke:#2792cb;" x="768.517798" xlink:href="#m7499a1bc22" y="477.197792"/>
     <use style="fill:#2792cb;stroke:#2792cb;" x="773.885763" xlink:href="#m7499a1bc22" y="476.553667"/>
     <use style="fill:#2792cb;stroke:#2792cb;" x="789.989659" xlink:href="#m7499a1bc22" y="472.688912"/>
     <use style="fill:#2792cb;stroke:#2792cb;" x="795.357624" xlink:href="#m7499a1bc22" y="471.830078"/>
     <use style="fill:#2792cb;stroke:#2792cb;" x="800.72559" xlink:href="#m7499a1bc22" y="471.40066"/>
     <use style="fill:#2792cb;stroke:#2792cb;" x="806.093555" xlink:href="#m7499a1bc22" y="466.89178"/>
     <use style="fill:#2792cb;stroke:#2792cb;" x="811.461521" xlink:href="#m7499a1bc22" y="466.032946"/>
     <use style="fill:#2792cb;stroke:#2792cb;" x="827.565417" xlink:href="#m7499a1bc22" y="465.38882"/>
     <use style="fill:#2792cb;stroke:#2792cb;" x="832.933382" xlink:href="#m7499a1bc22" y="464.959403"/>
     <use style="fill:#2792cb;stroke:#2792cb;" x="838.301347" xlink:href="#m7499a1bc22" y="463.456443"/>
     <use style="fill:#2792cb;stroke:#2792cb;" x="843.669313" xlink:href="#m7499a1bc22" y="463.88586"/>
     <use style="fill:#2792cb;stroke:#2792cb;" x="849.037278" xlink:href="#m7499a1bc22" y="465.38882"/>
     <use style="fill:#2792cb;stroke:#2792cb;" x="865.141174" xlink:href="#m7499a1bc22" y="462.3829"/>
     <use style="fill:#2792cb;stroke:#2792cb;" x="870.50914" xlink:href="#m7499a1bc22" y="463.671151"/>
     <use style="fill:#2792cb;stroke:#2792cb;" x="875.877105" xlink:href="#m7499a1bc22" y="465.603529"/>
     <use style="fill:#2792cb;stroke:#2792cb;" x="881.24507" xlink:href="#m7499a1bc22" y="458.518145"/>
     <use style="fill:#2792cb;stroke:#2792cb;" x="886.613036" xlink:href="#m7499a1bc22" y="457.444602"/>
     <use style="fill:#2792cb;stroke:#2792cb;" x="902.716932" xlink:href="#m7499a1bc22" y="455.082808"/>
     <use style="fill:#2792cb;stroke:#2792cb;" x="908.084897" xlink:href="#m7499a1bc22" y="455.297516"/>
     <use style="fill:#2792cb;stroke:#2792cb;" x="913.452863" xlink:href="#m7499a1bc22" y="455.512225"/>
     <use style="fill:#2792cb;stroke:#2792cb;" x="918.820828" xlink:href="#m7499a1bc22" y="454.009265"/>
     <use style="fill:#2792cb;stroke:#2792cb;" x="924.188793" xlink:href="#m7499a1bc22" y="453.15043"/>
     <use style="fill:#2792cb;stroke:#2792cb;" x="940.292689" xlink:href="#m7499a1bc22" y="456.156351"/>
     <use style="fill:#2792cb;stroke:#2792cb;" x="945.660655" xlink:href="#m7499a1bc22" y="459.162271"/>
     <use style="fill:#2792cb;stroke:#2792cb;" x="951.02862" xlink:href="#m7499a1bc22" y="459.376979"/>
     <use style="fill:#2792cb;stroke:#2792cb;" x="956.396585" xlink:href="#m7499a1bc22" y="458.947562"/>
     <use style="fill:#2792cb;stroke:#2792cb;" x="961.764551" xlink:href="#m7499a1bc22" y="460.235814"/>
     <use style="fill:#2792cb;stroke:#2792cb;" x="977.868447" xlink:href="#m7499a1bc22" y="465.38882"/>
     <use style="fill:#2792cb;stroke:#2792cb;" x="983.236412" xlink:href="#m7499a1bc22" y="462.597608"/>
     <use style="fill:#2792cb;stroke:#2792cb;" x="988.604378" xlink:href="#m7499a1bc22" y="464.100568"/>
     <use style="fill:#2792cb;stroke:#2792cb;" x="993.972343" xlink:href="#m7499a1bc22" y="465.603529"/>
     <use style="fill:#2792cb;stroke:#2792cb;" x="999.340308" xlink:href="#m7499a1bc22" y="464.744694"/>
     <use style="fill:#2792cb;stroke:#2792cb;" x="1015.444205" xlink:href="#m7499a1bc22" y="462.168191"/>
     <use style="fill:#2792cb;stroke:#2792cb;" x="1020.81217" xlink:href="#m7499a1bc22" y="463.027025"/>
     <use style="fill:#2792cb;stroke:#2792cb;" x="1026.180135" xlink:href="#m7499a1bc22" y="465.603529"/>
     <use style="fill:#2792cb;stroke:#2792cb;" x="1031.548101" xlink:href="#m7499a1bc22" y="465.174111"/>
     <use style="fill:#2792cb;stroke:#2792cb;" x="1036.916066" xlink:href="#m7499a1bc22" y="465.38882"/>
     <use style="fill:#2792cb;stroke:#2792cb;" x="1053.019962" xlink:href="#m7499a1bc22" y="466.032946"/>
     <use style="fill:#2792cb;stroke:#2792cb;" x="1058.387927" xlink:href="#m7499a1bc22" y="464.100568"/>
     <use style="fill:#2792cb;stroke:#2792cb;" x="1063.755893" xlink:href="#m7499a1bc22" y="463.241734"/>
     <use style="fill:#2792cb;stroke:#2792cb;" x="1069.123858" xlink:href="#m7499a1bc22" y="462.597608"/>
     <use style="fill:#2792cb;stroke:#2792cb;" x="1074.491824" xlink:href="#m7499a1bc22" y="457.659311"/>
     <use style="fill:#2792cb;stroke:#2792cb;" x="1090.59572" xlink:href="#m7499a1bc22" y="456.585768"/>
     <use style="fill:#2792cb;stroke:#2792cb;" x="1095.963685" xlink:href="#m7499a1bc22" y="456.800476"/>
     <use style="fill:#2792cb;stroke:#2792cb;" x="1101.33165" xlink:href="#m7499a1bc22" y="457.444602"/>
     <use style="fill:#2792cb;stroke:#2792cb;" x="1106.699616" xlink:href="#m7499a1bc22" y="459.162271"/>
     <use style="fill:#2792cb;stroke:#2792cb;" x="1112.067581" xlink:href="#m7499a1bc22" y="456.371059"/>
     <use style="fill:#2792cb;stroke:#2792cb;" x="1128.171477" xlink:href="#m7499a1bc22" y="450.359219"/>
    </g>
   </g>
   <g id="patch_3">
    <path d="M 62.89875 501.738984 
L 1178.89875 501.738984 
" style="fill:none;stroke:#000000;stroke-linecap:square;stroke-linejoin:miter;stroke-width:0.8;"/>
   </g>
   <g id="legend_1">
    <g id="line2d_56">
     <path d="M 1091.653438 25.237422 
L 1111.653438 25.237422 
" style="fill:none;stroke:#dbcd00;stroke-linecap:square;stroke-width:2;"/>
    </g>
    <g id="line2d_57">
     <g>
      <use style="fill:#dbcd00;stroke:#dbcd00;" x="1101.653438" xlink:href="#m5b0aa845a0" y="25.237422"/>
     </g>
    </g>
    <g id="text_32">
     <!-- Genesene -->
     <defs>
      <path d="M 59.515625 10.40625 
L 59.515625 29.984375 
L 43.40625 29.984375 
L 43.40625 38.09375 
L 69.28125 38.09375 
L 69.28125 6.78125 
Q 63.578125 2.734375 56.6875 0.65625 
Q 49.8125 -1.421875 42 -1.421875 
Q 24.90625 -1.421875 15.25 8.5625 
Q 5.609375 18.5625 5.609375 36.375 
Q 5.609375 54.25 15.25 64.234375 
Q 24.90625 74.21875 42 74.21875 
Q 49.125 74.21875 55.546875 72.453125 
Q 61.96875 70.703125 67.390625 67.28125 
L 67.390625 56.78125 
Q 61.921875 61.421875 55.765625 63.765625 
Q 49.609375 66.109375 42.828125 66.109375 
Q 29.4375 66.109375 22.71875 58.640625 
Q 16.015625 51.171875 16.015625 36.375 
Q 16.015625 21.625 22.71875 14.15625 
Q 29.4375 6.6875 42.828125 6.6875 
Q 48.046875 6.6875 52.140625 7.59375 
Q 56.25 8.5 59.515625 10.40625 
z
" id="DejaVuSans-71"/>
      <path d="M 44.28125 53.078125 
L 44.28125 44.578125 
Q 40.484375 46.53125 36.375 47.5 
Q 32.28125 48.484375 27.875 48.484375 
Q 21.1875 48.484375 17.84375 46.4375 
Q 14.5 44.390625 14.5 40.28125 
Q 14.5 37.15625 16.890625 35.375 
Q 19.28125 33.59375 26.515625 31.984375 
L 29.59375 31.296875 
Q 39.15625 29.25 43.1875 25.515625 
Q 47.21875 21.78125 47.21875 15.09375 
Q 47.21875 7.46875 41.1875 3.015625 
Q 35.15625 -1.421875 24.609375 -1.421875 
Q 20.21875 -1.421875 15.453125 -0.5625 
Q 10.6875 0.296875 5.421875 2 
L 5.421875 11.28125 
Q 10.40625 8.6875 15.234375 7.390625 
Q 20.0625 6.109375 24.8125 6.109375 
Q 31.15625 6.109375 34.5625 8.28125 
Q 37.984375 10.453125 37.984375 14.40625 
Q 37.984375 18.0625 35.515625 20.015625 
Q 33.0625 21.96875 24.703125 23.78125 
L 21.578125 24.515625 
Q 13.234375 26.265625 9.515625 29.90625 
Q 5.8125 33.546875 5.8125 39.890625 
Q 5.8125 47.609375 11.28125 51.796875 
Q 16.75 56 26.8125 56 
Q 31.78125 56 36.171875 55.265625 
Q 40.578125 54.546875 44.28125 53.078125 
z
" id="DejaVuSans-115"/>
     </defs>
     <g transform="translate(1119.653438 28.737422)scale(0.1 -0.1)">
      <use xlink:href="#DejaVuSans-71"/>
      <use x="77.490234" xlink:href="#DejaVuSans-101"/>
      <use x="139.013672" xlink:href="#DejaVuSans-110"/>
      <use x="202.392578" xlink:href="#DejaVuSans-101"/>
      <use x="263.916016" xlink:href="#DejaVuSans-115"/>
      <use x="316.015625" xlink:href="#DejaVuSans-101"/>
      <use x="377.539062" xlink:href="#DejaVuSans-110"/>
      <use x="440.917969" xlink:href="#DejaVuSans-101"/>
     </g>
    </g>
    <g id="line2d_58">
     <path d="M 1091.653438 39.915547 
L 1111.653438 39.915547 
" style="fill:none;stroke:#2792cb;stroke-linecap:square;stroke-width:2;"/>
    </g>
    <g id="line2d_59">
     <g>
      <use style="fill:#2792cb;stroke:#2792cb;" x="1101.653438" xlink:href="#m7499a1bc22" y="39.915547"/>
     </g>
    </g>
    <g id="text_33">
     <!-- Erkrankte -->
     <defs>
      <path d="M 9.8125 72.90625 
L 55.90625 72.90625 
L 55.90625 64.59375 
L 19.671875 64.59375 
L 19.671875 43.015625 
L 54.390625 43.015625 
L 54.390625 34.71875 
L 19.671875 34.71875 
L 19.671875 8.296875 
L 56.78125 8.296875 
L 56.78125 0 
L 9.8125 0 
z
" id="DejaVuSans-69"/>
      <path d="M 41.109375 46.296875 
Q 39.59375 47.171875 37.8125 47.578125 
Q 36.03125 48 33.890625 48 
Q 26.265625 48 22.1875 43.046875 
Q 18.109375 38.09375 18.109375 28.8125 
L 18.109375 0 
L 9.078125 0 
L 9.078125 54.6875 
L 18.109375 54.6875 
L 18.109375 46.1875 
Q 20.953125 51.171875 25.484375 53.578125 
Q 30.03125 56 36.53125 56 
Q 37.453125 56 38.578125 55.875 
Q 39.703125 55.765625 41.0625 55.515625 
z
" id="DejaVuSans-114"/>
      <path d="M 9.078125 75.984375 
L 18.109375 75.984375 
L 18.109375 31.109375 
L 44.921875 54.6875 
L 56.390625 54.6875 
L 27.390625 29.109375 
L 57.625 0 
L 45.90625 0 
L 18.109375 26.703125 
L 18.109375 0 
L 9.078125 0 
z
" id="DejaVuSans-107"/>
      <path d="M 18.3125 70.21875 
L 18.3125 54.6875 
L 36.8125 54.6875 
L 36.8125 47.703125 
L 18.3125 47.703125 
L 18.3125 18.015625 
Q 18.3125 11.328125 20.140625 9.421875 
Q 21.96875 7.515625 27.59375 7.515625 
L 36.8125 7.515625 
L 36.8125 0 
L 27.59375 0 
Q 17.1875 0 13.234375 3.875 
Q 9.28125 7.765625 9.28125 18.015625 
L 9.28125 47.703125 
L 2.6875 47.703125 
L 2.6875 54.6875 
L 9.28125 54.6875 
L 9.28125 70.21875 
z
" id="DejaVuSans-116"/>
     </defs>
     <g transform="translate(1119.653438 43.415547)scale(0.1 -0.1)">
      <use xlink:href="#DejaVuSans-69"/>
      <use x="63.183594" xlink:href="#DejaVuSans-114"/>
      <use x="104.296875" xlink:href="#DejaVuSans-107"/>
      <use x="162.207031" xlink:href="#DejaVuSans-114"/>
      <use x="203.320312" xlink:href="#DejaVuSans-97"/>
      <use x="264.599609" xlink:href="#DejaVuSans-110"/>
      <use x="327.978516" xlink:href="#DejaVuSans-107"/>
      <use x="385.888672" xlink:href="#DejaVuSans-116"/>
      <use x="425.097656" xlink:href="#DejaVuSans-101"/>
     </g>
    </g>
   </g>
  </g>
 </g>
 <defs>
  <clipPath id="p1a135d11c6">
   <rect height="489.6" width="1116" x="62.89875" y="12.138984"/>
  </clipPath>
 </defs>
</svg>
