<?xml version="1.0" encoding="utf-8" standalone="no"?>
<!DOCTYPE svg PUBLIC "-//W3C//DTD SVG 1.1//EN"
  "http://www.w3.org/Graphics/SVG/1.1/DTD/svg11.dtd">
<!-- Created with matplotlib (https://matplotlib.org/) -->
<svg height="553.993765pt" version="1.1" viewBox="0 0 1186.09875 553.993765" width="1186.09875pt" xmlns="http://www.w3.org/2000/svg" xmlns:xlink="http://www.w3.org/1999/xlink">
 <defs>
  <style type="text/css">
*{stroke-linecap:butt;stroke-linejoin:round;}
  </style>
 </defs>
 <g id="figure_1">
  <g id="patch_1">
   <path d="M 0 553.993765 
L 1186.09875 553.993765 
L 1186.09875 0 
L 0 0 
z
" style="fill:#ffffff;"/>
  </g>
  <g id="axes_1">
   <g id="patch_2">
    <path d="M 62.89875 501.738984 
L 1178.89875 501.738984 
L 1178.89875 12.138984 
L 62.89875 12.138984 
z
" style="fill:#ffffff;"/>
   </g>
   <g id="matplotlib.axis_1">
    <g id="xtick_1">
     <g id="line2d_1">
      <defs>
       <path d="M 0 0 
L 0 3.5 
" id="mb871ed2fb9" style="stroke:#000000;stroke-width:0.8;"/>
      </defs>
      <g>
       <use style="stroke:#000000;stroke-width:0.8;" x="159.509988" xlink:href="#mb871ed2fb9" y="501.738984"/>
      </g>
     </g>
     <g id="text_1">
      <!-- 2020-04 -->
      <defs>
       <path d="M 19.1875 8.296875 
L 53.609375 8.296875 
L 53.609375 0 
L 7.328125 0 
L 7.328125 8.296875 
Q 12.9375 14.109375 22.625 23.890625 
Q 32.328125 33.6875 34.8125 36.53125 
Q 39.546875 41.84375 41.421875 45.53125 
Q 43.3125 49.21875 43.3125 52.78125 
Q 43.3125 58.59375 39.234375 62.25 
Q 35.15625 65.921875 28.609375 65.921875 
Q 23.96875 65.921875 18.8125 64.3125 
Q 13.671875 62.703125 7.8125 59.421875 
L 7.8125 69.390625 
Q 13.765625 71.78125 18.9375 73 
Q 24.125 74.21875 28.421875 74.21875 
Q 39.75 74.21875 46.484375 68.546875 
Q 53.21875 62.890625 53.21875 53.421875 
Q 53.21875 48.921875 51.53125 44.890625 
Q 49.859375 40.875 45.40625 35.40625 
Q 44.1875 33.984375 37.640625 27.21875 
Q 31.109375 20.453125 19.1875 8.296875 
z
" id="DejaVuSans-50"/>
       <path d="M 31.78125 66.40625 
Q 24.171875 66.40625 20.328125 58.90625 
Q 16.5 51.421875 16.5 36.375 
Q 16.5 21.390625 20.328125 13.890625 
Q 24.171875 6.390625 31.78125 6.390625 
Q 39.453125 6.390625 43.28125 13.890625 
Q 47.125 21.390625 47.125 36.375 
Q 47.125 51.421875 43.28125 58.90625 
Q 39.453125 66.40625 31.78125 66.40625 
z
M 31.78125 74.21875 
Q 44.046875 74.21875 50.515625 64.515625 
Q 56.984375 54.828125 56.984375 36.375 
Q 56.984375 17.96875 50.515625 8.265625 
Q 44.046875 -1.421875 31.78125 -1.421875 
Q 19.53125 -1.421875 13.0625 8.265625 
Q 6.59375 17.96875 6.59375 36.375 
Q 6.59375 54.828125 13.0625 64.515625 
Q 19.53125 74.21875 31.78125 74.21875 
z
" id="DejaVuSans-48"/>
       <path d="M 4.890625 31.390625 
L 31.203125 31.390625 
L 31.203125 23.390625 
L 4.890625 23.390625 
z
" id="DejaVuSans-45"/>
       <path d="M 37.796875 64.3125 
L 12.890625 25.390625 
L 37.796875 25.390625 
z
M 35.203125 72.90625 
L 47.609375 72.90625 
L 47.609375 25.390625 
L 58.015625 25.390625 
L 58.015625 17.1875 
L 47.609375 17.1875 
L 47.609375 0 
L 37.796875 0 
L 37.796875 17.1875 
L 4.890625 17.1875 
L 4.890625 26.703125 
z
" id="DejaVuSans-52"/>
      </defs>
      <g transform="translate(111.117721 544.452384)rotate(-30)scale(0.13 -0.13)">
       <use xlink:href="#DejaVuSans-50"/>
       <use x="63.623047" xlink:href="#DejaVuSans-48"/>
       <use x="127.246094" xlink:href="#DejaVuSans-50"/>
       <use x="190.869141" xlink:href="#DejaVuSans-48"/>
       <use x="254.492188" xlink:href="#DejaVuSans-45"/>
       <use x="290.576172" xlink:href="#DejaVuSans-48"/>
       <use x="354.199219" xlink:href="#DejaVuSans-52"/>
      </g>
     </g>
    </g>
    <g id="xtick_2">
     <g id="line2d_2">
      <g>
       <use style="stroke:#000000;stroke-width:0.8;" x="312.456539" xlink:href="#mb871ed2fb9" y="501.738984"/>
      </g>
     </g>
     <g id="text_2">
      <!-- 2020-05 -->
      <defs>
       <path d="M 10.796875 72.90625 
L 49.515625 72.90625 
L 49.515625 64.59375 
L 19.828125 64.59375 
L 19.828125 46.734375 
Q 21.96875 47.46875 24.109375 47.828125 
Q 26.265625 48.1875 28.421875 48.1875 
Q 40.625 48.1875 47.75 41.5 
Q 54.890625 34.8125 54.890625 23.390625 
Q 54.890625 11.625 47.5625 5.09375 
Q 40.234375 -1.421875 26.90625 -1.421875 
Q 22.3125 -1.421875 17.546875 -0.640625 
Q 12.796875 0.140625 7.71875 1.703125 
L 7.71875 11.625 
Q 12.109375 9.234375 16.796875 8.0625 
Q 21.484375 6.890625 26.703125 6.890625 
Q 35.15625 6.890625 40.078125 11.328125 
Q 45.015625 15.765625 45.015625 23.390625 
Q 45.015625 31 40.078125 35.4375 
Q 35.15625 39.890625 26.703125 39.890625 
Q 22.75 39.890625 18.8125 39.015625 
Q 14.890625 38.140625 10.796875 36.28125 
z
" id="DejaVuSans-53"/>
      </defs>
      <g transform="translate(264.064272 544.452384)rotate(-30)scale(0.13 -0.13)">
       <use xlink:href="#DejaVuSans-50"/>
       <use x="63.623047" xlink:href="#DejaVuSans-48"/>
       <use x="127.246094" xlink:href="#DejaVuSans-50"/>
       <use x="190.869141" xlink:href="#DejaVuSans-48"/>
       <use x="254.492188" xlink:href="#DejaVuSans-45"/>
       <use x="290.576172" xlink:href="#DejaVuSans-48"/>
       <use x="354.199219" xlink:href="#DejaVuSans-53"/>
      </g>
     </g>
    </g>
    <g id="xtick_3">
     <g id="line2d_3">
      <g>
       <use style="stroke:#000000;stroke-width:0.8;" x="470.501308" xlink:href="#mb871ed2fb9" y="501.738984"/>
      </g>
     </g>
     <g id="text_3">
      <!-- 2020-06 -->
      <defs>
       <path d="M 33.015625 40.375 
Q 26.375 40.375 22.484375 35.828125 
Q 18.609375 31.296875 18.609375 23.390625 
Q 18.609375 15.53125 22.484375 10.953125 
Q 26.375 6.390625 33.015625 6.390625 
Q 39.65625 6.390625 43.53125 10.953125 
Q 47.40625 15.53125 47.40625 23.390625 
Q 47.40625 31.296875 43.53125 35.828125 
Q 39.65625 40.375 33.015625 40.375 
z
M 52.59375 71.296875 
L 52.59375 62.3125 
Q 48.875 64.0625 45.09375 64.984375 
Q 41.3125 65.921875 37.59375 65.921875 
Q 27.828125 65.921875 22.671875 59.328125 
Q 17.53125 52.734375 16.796875 39.40625 
Q 19.671875 43.65625 24.015625 45.921875 
Q 28.375 48.1875 33.59375 48.1875 
Q 44.578125 48.1875 50.953125 41.515625 
Q 57.328125 34.859375 57.328125 23.390625 
Q 57.328125 12.15625 50.6875 5.359375 
Q 44.046875 -1.421875 33.015625 -1.421875 
Q 20.359375 -1.421875 13.671875 8.265625 
Q 6.984375 17.96875 6.984375 36.375 
Q 6.984375 53.65625 15.1875 63.9375 
Q 23.390625 74.21875 37.203125 74.21875 
Q 40.921875 74.21875 44.703125 73.484375 
Q 48.484375 72.75 52.59375 71.296875 
z
" id="DejaVuSans-54"/>
      </defs>
      <g transform="translate(422.109041 544.452384)rotate(-30)scale(0.13 -0.13)">
       <use xlink:href="#DejaVuSans-50"/>
       <use x="63.623047" xlink:href="#DejaVuSans-48"/>
       <use x="127.246094" xlink:href="#DejaVuSans-50"/>
       <use x="190.869141" xlink:href="#DejaVuSans-48"/>
       <use x="254.492188" xlink:href="#DejaVuSans-45"/>
       <use x="290.576172" xlink:href="#DejaVuSans-48"/>
       <use x="354.199219" xlink:href="#DejaVuSans-54"/>
      </g>
     </g>
    </g>
    <g id="xtick_4">
     <g id="line2d_4">
      <g>
       <use style="stroke:#000000;stroke-width:0.8;" x="623.447859" xlink:href="#mb871ed2fb9" y="501.738984"/>
      </g>
     </g>
     <g id="text_4">
      <!-- 2020-07 -->
      <defs>
       <path d="M 8.203125 72.90625 
L 55.078125 72.90625 
L 55.078125 68.703125 
L 28.609375 0 
L 18.3125 0 
L 43.21875 64.59375 
L 8.203125 64.59375 
z
" id="DejaVuSans-55"/>
      </defs>
      <g transform="translate(575.055592 544.452384)rotate(-30)scale(0.13 -0.13)">
       <use xlink:href="#DejaVuSans-50"/>
       <use x="63.623047" xlink:href="#DejaVuSans-48"/>
       <use x="127.246094" xlink:href="#DejaVuSans-50"/>
       <use x="190.869141" xlink:href="#DejaVuSans-48"/>
       <use x="254.492188" xlink:href="#DejaVuSans-45"/>
       <use x="290.576172" xlink:href="#DejaVuSans-48"/>
       <use x="354.199219" xlink:href="#DejaVuSans-55"/>
      </g>
     </g>
    </g>
    <g id="xtick_5">
     <g id="line2d_5">
      <g>
       <use style="stroke:#000000;stroke-width:0.8;" x="781.492628" xlink:href="#mb871ed2fb9" y="501.738984"/>
      </g>
     </g>
     <g id="text_5">
      <!-- 2020-08 -->
      <defs>
       <path d="M 31.78125 34.625 
Q 24.75 34.625 20.71875 30.859375 
Q 16.703125 27.09375 16.703125 20.515625 
Q 16.703125 13.921875 20.71875 10.15625 
Q 24.75 6.390625 31.78125 6.390625 
Q 38.8125 6.390625 42.859375 10.171875 
Q 46.921875 13.96875 46.921875 20.515625 
Q 46.921875 27.09375 42.890625 30.859375 
Q 38.875 34.625 31.78125 34.625 
z
M 21.921875 38.8125 
Q 15.578125 40.375 12.03125 44.71875 
Q 8.5 49.078125 8.5 55.328125 
Q 8.5 64.0625 14.71875 69.140625 
Q 20.953125 74.21875 31.78125 74.21875 
Q 42.671875 74.21875 48.875 69.140625 
Q 55.078125 64.0625 55.078125 55.328125 
Q 55.078125 49.078125 51.53125 44.71875 
Q 48 40.375 41.703125 38.8125 
Q 48.828125 37.15625 52.796875 32.3125 
Q 56.78125 27.484375 56.78125 20.515625 
Q 56.78125 9.90625 50.3125 4.234375 
Q 43.84375 -1.421875 31.78125 -1.421875 
Q 19.734375 -1.421875 13.25 4.234375 
Q 6.78125 9.90625 6.78125 20.515625 
Q 6.78125 27.484375 10.78125 32.3125 
Q 14.796875 37.15625 21.921875 38.8125 
z
M 18.3125 54.390625 
Q 18.3125 48.734375 21.84375 45.5625 
Q 25.390625 42.390625 31.78125 42.390625 
Q 38.140625 42.390625 41.71875 45.5625 
Q 45.3125 48.734375 45.3125 54.390625 
Q 45.3125 60.0625 41.71875 63.234375 
Q 38.140625 66.40625 31.78125 66.40625 
Q 25.390625 66.40625 21.84375 63.234375 
Q 18.3125 60.0625 18.3125 54.390625 
z
" id="DejaVuSans-56"/>
      </defs>
      <g transform="translate(733.100361 544.452384)rotate(-30)scale(0.13 -0.13)">
       <use xlink:href="#DejaVuSans-50"/>
       <use x="63.623047" xlink:href="#DejaVuSans-48"/>
       <use x="127.246094" xlink:href="#DejaVuSans-50"/>
       <use x="190.869141" xlink:href="#DejaVuSans-48"/>
       <use x="254.492188" xlink:href="#DejaVuSans-45"/>
       <use x="290.576172" xlink:href="#DejaVuSans-48"/>
       <use x="354.199219" xlink:href="#DejaVuSans-56"/>
      </g>
     </g>
    </g>
    <g id="xtick_6">
     <g id="line2d_6">
      <g>
       <use style="stroke:#000000;stroke-width:0.8;" x="939.537398" xlink:href="#mb871ed2fb9" y="501.738984"/>
      </g>
     </g>
     <g id="text_6">
      <!-- 2020-09 -->
      <defs>
       <path d="M 10.984375 1.515625 
L 10.984375 10.5 
Q 14.703125 8.734375 18.5 7.8125 
Q 22.3125 6.890625 25.984375 6.890625 
Q 35.75 6.890625 40.890625 13.453125 
Q 46.046875 20.015625 46.78125 33.40625 
Q 43.953125 29.203125 39.59375 26.953125 
Q 35.25 24.703125 29.984375 24.703125 
Q 19.046875 24.703125 12.671875 31.3125 
Q 6.296875 37.9375 6.296875 49.421875 
Q 6.296875 60.640625 12.9375 67.421875 
Q 19.578125 74.21875 30.609375 74.21875 
Q 43.265625 74.21875 49.921875 64.515625 
Q 56.59375 54.828125 56.59375 36.375 
Q 56.59375 19.140625 48.40625 8.859375 
Q 40.234375 -1.421875 26.421875 -1.421875 
Q 22.703125 -1.421875 18.890625 -0.6875 
Q 15.09375 0.046875 10.984375 1.515625 
z
M 30.609375 32.421875 
Q 37.25 32.421875 41.125 36.953125 
Q 45.015625 41.5 45.015625 49.421875 
Q 45.015625 57.28125 41.125 61.84375 
Q 37.25 66.40625 30.609375 66.40625 
Q 23.96875 66.40625 20.09375 61.84375 
Q 16.21875 57.28125 16.21875 49.421875 
Q 16.21875 41.5 20.09375 36.953125 
Q 23.96875 32.421875 30.609375 32.421875 
z
" id="DejaVuSans-57"/>
      </defs>
      <g transform="translate(891.145131 544.452384)rotate(-30)scale(0.13 -0.13)">
       <use xlink:href="#DejaVuSans-50"/>
       <use x="63.623047" xlink:href="#DejaVuSans-48"/>
       <use x="127.246094" xlink:href="#DejaVuSans-50"/>
       <use x="190.869141" xlink:href="#DejaVuSans-48"/>
       <use x="254.492188" xlink:href="#DejaVuSans-45"/>
       <use x="290.576172" xlink:href="#DejaVuSans-48"/>
       <use x="354.199219" xlink:href="#DejaVuSans-57"/>
      </g>
     </g>
    </g>
    <g id="xtick_7">
     <g id="line2d_7">
      <g>
       <use style="stroke:#000000;stroke-width:0.8;" x="1092.483949" xlink:href="#mb871ed2fb9" y="501.738984"/>
      </g>
     </g>
     <g id="text_7">
      <!-- 2020-10 -->
      <defs>
       <path d="M 12.40625 8.296875 
L 28.515625 8.296875 
L 28.515625 63.921875 
L 10.984375 60.40625 
L 10.984375 69.390625 
L 28.421875 72.90625 
L 38.28125 72.90625 
L 38.28125 8.296875 
L 54.390625 8.296875 
L 54.390625 0 
L 12.40625 0 
z
" id="DejaVuSans-49"/>
      </defs>
      <g transform="translate(1044.091682 544.452384)rotate(-30)scale(0.13 -0.13)">
       <use xlink:href="#DejaVuSans-50"/>
       <use x="63.623047" xlink:href="#DejaVuSans-48"/>
       <use x="127.246094" xlink:href="#DejaVuSans-50"/>
       <use x="190.869141" xlink:href="#DejaVuSans-48"/>
       <use x="254.492188" xlink:href="#DejaVuSans-45"/>
       <use x="290.576172" xlink:href="#DejaVuSans-49"/>
       <use x="354.199219" xlink:href="#DejaVuSans-48"/>
      </g>
     </g>
    </g>
   </g>
   <g id="matplotlib.axis_2">
    <g id="ytick_1">
     <g id="line2d_8">
      <path clip-path="url(#pe8f2606e38)" d="M 62.89875 477.198169 
L 1178.89875 477.198169 
" style="fill:none;stroke:#b0b0b0;stroke-linecap:square;stroke-width:0.8;"/>
     </g>
     <g id="line2d_9">
      <defs>
       <path d="M 0 0 
L -3.5 0 
" id="mf370b102ec" style="stroke:#000000;stroke-width:0.8;"/>
      </defs>
      <g>
       <use style="stroke:#000000;stroke-width:0.8;" x="62.89875" xlink:href="#mf370b102ec" y="477.198169"/>
      </g>
     </g>
     <g id="text_8">
      <!-- 0 -->
      <g transform="translate(47.6275 482.137153)scale(0.13 -0.13)">
       <use xlink:href="#DejaVuSans-48"/>
      </g>
     </g>
    </g>
    <g id="ytick_2">
     <g id="line2d_10">
      <path clip-path="url(#pe8f2606e38)" d="M 62.89875 441.424386 
L 1178.89875 441.424386 
" style="fill:none;stroke:#b0b0b0;stroke-linecap:square;stroke-width:0.8;"/>
     </g>
     <g id="line2d_11">
      <g>
       <use style="stroke:#000000;stroke-width:0.8;" x="62.89875" xlink:href="#mf370b102ec" y="441.424386"/>
      </g>
     </g>
     <g id="text_9">
      <!-- 100 -->
      <g transform="translate(31.085 446.36337)scale(0.13 -0.13)">
       <use xlink:href="#DejaVuSans-49"/>
       <use x="63.623047" xlink:href="#DejaVuSans-48"/>
       <use x="127.246094" xlink:href="#DejaVuSans-48"/>
      </g>
     </g>
    </g>
    <g id="ytick_3">
     <g id="line2d_12">
      <path clip-path="url(#pe8f2606e38)" d="M 62.89875 405.650602 
L 1178.89875 405.650602 
" style="fill:none;stroke:#b0b0b0;stroke-linecap:square;stroke-width:0.8;"/>
     </g>
     <g id="line2d_13">
      <g>
       <use style="stroke:#000000;stroke-width:0.8;" x="62.89875" xlink:href="#mf370b102ec" y="405.650602"/>
      </g>
     </g>
     <g id="text_10">
      <!-- 200 -->
      <g transform="translate(31.085 410.589586)scale(0.13 -0.13)">
       <use xlink:href="#DejaVuSans-50"/>
       <use x="63.623047" xlink:href="#DejaVuSans-48"/>
       <use x="127.246094" xlink:href="#DejaVuSans-48"/>
      </g>
     </g>
    </g>
    <g id="ytick_4">
     <g id="line2d_14">
      <path clip-path="url(#pe8f2606e38)" d="M 62.89875 369.876819 
L 1178.89875 369.876819 
" style="fill:none;stroke:#b0b0b0;stroke-linecap:square;stroke-width:0.8;"/>
     </g>
     <g id="line2d_15">
      <g>
       <use style="stroke:#000000;stroke-width:0.8;" x="62.89875" xlink:href="#mf370b102ec" y="369.876819"/>
      </g>
     </g>
     <g id="text_11">
      <!-- 300 -->
      <defs>
       <path d="M 40.578125 39.3125 
Q 47.65625 37.796875 51.625 33 
Q 55.609375 28.21875 55.609375 21.1875 
Q 55.609375 10.40625 48.1875 4.484375 
Q 40.765625 -1.421875 27.09375 -1.421875 
Q 22.515625 -1.421875 17.65625 -0.515625 
Q 12.796875 0.390625 7.625 2.203125 
L 7.625 11.71875 
Q 11.71875 9.328125 16.59375 8.109375 
Q 21.484375 6.890625 26.8125 6.890625 
Q 36.078125 6.890625 40.9375 10.546875 
Q 45.796875 14.203125 45.796875 21.1875 
Q 45.796875 27.640625 41.28125 31.265625 
Q 36.765625 34.90625 28.71875 34.90625 
L 20.21875 34.90625 
L 20.21875 43.015625 
L 29.109375 43.015625 
Q 36.375 43.015625 40.234375 45.921875 
Q 44.09375 48.828125 44.09375 54.296875 
Q 44.09375 59.90625 40.109375 62.90625 
Q 36.140625 65.921875 28.71875 65.921875 
Q 24.65625 65.921875 20.015625 65.03125 
Q 15.375 64.15625 9.8125 62.3125 
L 9.8125 71.09375 
Q 15.4375 72.65625 20.34375 73.4375 
Q 25.25 74.21875 29.59375 74.21875 
Q 40.828125 74.21875 47.359375 69.109375 
Q 53.90625 64.015625 53.90625 55.328125 
Q 53.90625 49.265625 50.4375 45.09375 
Q 46.96875 40.921875 40.578125 39.3125 
z
" id="DejaVuSans-51"/>
      </defs>
      <g transform="translate(31.085 374.815803)scale(0.13 -0.13)">
       <use xlink:href="#DejaVuSans-51"/>
       <use x="63.623047" xlink:href="#DejaVuSans-48"/>
       <use x="127.246094" xlink:href="#DejaVuSans-48"/>
      </g>
     </g>
    </g>
    <g id="ytick_5">
     <g id="line2d_16">
      <path clip-path="url(#pe8f2606e38)" d="M 62.89875 334.103035 
L 1178.89875 334.103035 
" style="fill:none;stroke:#b0b0b0;stroke-linecap:square;stroke-width:0.8;"/>
     </g>
     <g id="line2d_17">
      <g>
       <use style="stroke:#000000;stroke-width:0.8;" x="62.89875" xlink:href="#mf370b102ec" y="334.103035"/>
      </g>
     </g>
     <g id="text_12">
      <!-- 400 -->
      <g transform="translate(31.085 339.04202)scale(0.13 -0.13)">
       <use xlink:href="#DejaVuSans-52"/>
       <use x="63.623047" xlink:href="#DejaVuSans-48"/>
       <use x="127.246094" xlink:href="#DejaVuSans-48"/>
      </g>
     </g>
    </g>
    <g id="ytick_6">
     <g id="line2d_18">
      <path clip-path="url(#pe8f2606e38)" d="M 62.89875 298.329252 
L 1178.89875 298.329252 
" style="fill:none;stroke:#b0b0b0;stroke-linecap:square;stroke-width:0.8;"/>
     </g>
     <g id="line2d_19">
      <g>
       <use style="stroke:#000000;stroke-width:0.8;" x="62.89875" xlink:href="#mf370b102ec" y="298.329252"/>
      </g>
     </g>
     <g id="text_13">
      <!-- 500 -->
      <g transform="translate(31.085 303.268236)scale(0.13 -0.13)">
       <use xlink:href="#DejaVuSans-53"/>
       <use x="63.623047" xlink:href="#DejaVuSans-48"/>
       <use x="127.246094" xlink:href="#DejaVuSans-48"/>
      </g>
     </g>
    </g>
    <g id="ytick_7">
     <g id="line2d_20">
      <path clip-path="url(#pe8f2606e38)" d="M 62.89875 262.555468 
L 1178.89875 262.555468 
" style="fill:none;stroke:#b0b0b0;stroke-linecap:square;stroke-width:0.8;"/>
     </g>
     <g id="line2d_21">
      <g>
       <use style="stroke:#000000;stroke-width:0.8;" x="62.89875" xlink:href="#mf370b102ec" y="262.555468"/>
      </g>
     </g>
     <g id="text_14">
      <!-- 600 -->
      <g transform="translate(31.085 267.494453)scale(0.13 -0.13)">
       <use xlink:href="#DejaVuSans-54"/>
       <use x="63.623047" xlink:href="#DejaVuSans-48"/>
       <use x="127.246094" xlink:href="#DejaVuSans-48"/>
      </g>
     </g>
    </g>
    <g id="ytick_8">
     <g id="line2d_22">
      <path clip-path="url(#pe8f2606e38)" d="M 62.89875 226.781685 
L 1178.89875 226.781685 
" style="fill:none;stroke:#b0b0b0;stroke-linecap:square;stroke-width:0.8;"/>
     </g>
     <g id="line2d_23">
      <g>
       <use style="stroke:#000000;stroke-width:0.8;" x="62.89875" xlink:href="#mf370b102ec" y="226.781685"/>
      </g>
     </g>
     <g id="text_15">
      <!-- 700 -->
      <g transform="translate(31.085 231.720669)scale(0.13 -0.13)">
       <use xlink:href="#DejaVuSans-55"/>
       <use x="63.623047" xlink:href="#DejaVuSans-48"/>
       <use x="127.246094" xlink:href="#DejaVuSans-48"/>
      </g>
     </g>
    </g>
    <g id="ytick_9">
     <g id="line2d_24">
      <path clip-path="url(#pe8f2606e38)" d="M 62.89875 191.007902 
L 1178.89875 191.007902 
" style="fill:none;stroke:#b0b0b0;stroke-linecap:square;stroke-width:0.8;"/>
     </g>
     <g id="line2d_25">
      <g>
       <use style="stroke:#000000;stroke-width:0.8;" x="62.89875" xlink:href="#mf370b102ec" y="191.007902"/>
      </g>
     </g>
     <g id="text_16">
      <!-- 800 -->
      <g transform="translate(31.085 195.946886)scale(0.13 -0.13)">
       <use xlink:href="#DejaVuSans-56"/>
       <use x="63.623047" xlink:href="#DejaVuSans-48"/>
       <use x="127.246094" xlink:href="#DejaVuSans-48"/>
      </g>
     </g>
    </g>
    <g id="ytick_10">
     <g id="line2d_26">
      <path clip-path="url(#pe8f2606e38)" d="M 62.89875 155.234118 
L 1178.89875 155.234118 
" style="fill:none;stroke:#b0b0b0;stroke-linecap:square;stroke-width:0.8;"/>
     </g>
     <g id="line2d_27">
      <g>
       <use style="stroke:#000000;stroke-width:0.8;" x="62.89875" xlink:href="#mf370b102ec" y="155.234118"/>
      </g>
     </g>
     <g id="text_17">
      <!-- 900 -->
      <g transform="translate(31.085 160.173102)scale(0.13 -0.13)">
       <use xlink:href="#DejaVuSans-57"/>
       <use x="63.623047" xlink:href="#DejaVuSans-48"/>
       <use x="127.246094" xlink:href="#DejaVuSans-48"/>
      </g>
     </g>
    </g>
    <g id="ytick_11">
     <g id="line2d_28">
      <path clip-path="url(#pe8f2606e38)" d="M 62.89875 119.460335 
L 1178.89875 119.460335 
" style="fill:none;stroke:#b0b0b0;stroke-linecap:square;stroke-width:0.8;"/>
     </g>
     <g id="line2d_29">
      <g>
       <use style="stroke:#000000;stroke-width:0.8;" x="62.89875" xlink:href="#mf370b102ec" y="119.460335"/>
      </g>
     </g>
     <g id="text_18">
      <!-- 1000 -->
      <g transform="translate(22.81375 124.399319)scale(0.13 -0.13)">
       <use xlink:href="#DejaVuSans-49"/>
       <use x="63.623047" xlink:href="#DejaVuSans-48"/>
       <use x="127.246094" xlink:href="#DejaVuSans-48"/>
       <use x="190.869141" xlink:href="#DejaVuSans-48"/>
      </g>
     </g>
    </g>
    <g id="ytick_12">
     <g id="line2d_30">
      <path clip-path="url(#pe8f2606e38)" d="M 62.89875 83.686551 
L 1178.89875 83.686551 
" style="fill:none;stroke:#b0b0b0;stroke-linecap:square;stroke-width:0.8;"/>
     </g>
     <g id="line2d_31">
      <g>
       <use style="stroke:#000000;stroke-width:0.8;" x="62.89875" xlink:href="#mf370b102ec" y="83.686551"/>
      </g>
     </g>
     <g id="text_19">
      <!-- 1100 -->
      <g transform="translate(22.81375 88.625536)scale(0.13 -0.13)">
       <use xlink:href="#DejaVuSans-49"/>
       <use x="63.623047" xlink:href="#DejaVuSans-49"/>
       <use x="127.246094" xlink:href="#DejaVuSans-48"/>
       <use x="190.869141" xlink:href="#DejaVuSans-48"/>
      </g>
     </g>
    </g>
    <g id="ytick_13">
     <g id="line2d_32">
      <path clip-path="url(#pe8f2606e38)" d="M 62.89875 47.912768 
L 1178.89875 47.912768 
" style="fill:none;stroke:#b0b0b0;stroke-linecap:square;stroke-width:0.8;"/>
     </g>
     <g id="line2d_33">
      <g>
       <use style="stroke:#000000;stroke-width:0.8;" x="62.89875" xlink:href="#mf370b102ec" y="47.912768"/>
      </g>
     </g>
     <g id="text_20">
      <!-- 1200 -->
      <g transform="translate(22.81375 52.851752)scale(0.13 -0.13)">
       <use xlink:href="#DejaVuSans-49"/>
       <use x="63.623047" xlink:href="#DejaVuSans-50"/>
       <use x="127.246094" xlink:href="#DejaVuSans-48"/>
       <use x="190.869141" xlink:href="#DejaVuSans-48"/>
      </g>
     </g>
    </g>
    <g id="ytick_14">
     <g id="line2d_34">
      <path clip-path="url(#pe8f2606e38)" d="M 62.89875 12.138984 
L 1178.89875 12.138984 
" style="fill:none;stroke:#b0b0b0;stroke-linecap:square;stroke-width:0.8;"/>
     </g>
     <g id="line2d_35">
      <g>
       <use style="stroke:#000000;stroke-width:0.8;" x="62.89875" xlink:href="#mf370b102ec" y="12.138984"/>
      </g>
     </g>
     <g id="text_21">
      <!-- 1300 -->
      <g transform="translate(22.81375 17.077969)scale(0.13 -0.13)">
       <use xlink:href="#DejaVuSans-49"/>
       <use x="63.623047" xlink:href="#DejaVuSans-51"/>
       <use x="127.246094" xlink:href="#DejaVuSans-48"/>
       <use x="190.869141" xlink:href="#DejaVuSans-48"/>
      </g>
     </g>
    </g>
    <g id="text_22">
     <!-- Anzahl von Fällen -->
     <defs>
      <path d="M 34.1875 63.1875 
L 20.796875 26.90625 
L 47.609375 26.90625 
z
M 28.609375 72.90625 
L 39.796875 72.90625 
L 67.578125 0 
L 57.328125 0 
L 50.6875 18.703125 
L 17.828125 18.703125 
L 11.1875 0 
L 0.78125 0 
z
" id="DejaVuSans-65"/>
      <path d="M 54.890625 33.015625 
L 54.890625 0 
L 45.90625 0 
L 45.90625 32.71875 
Q 45.90625 40.484375 42.875 44.328125 
Q 39.84375 48.1875 33.796875 48.1875 
Q 26.515625 48.1875 22.3125 43.546875 
Q 18.109375 38.921875 18.109375 30.90625 
L 18.109375 0 
L 9.078125 0 
L 9.078125 54.6875 
L 18.109375 54.6875 
L 18.109375 46.1875 
Q 21.34375 51.125 25.703125 53.5625 
Q 30.078125 56 35.796875 56 
Q 45.21875 56 50.046875 50.171875 
Q 54.890625 44.34375 54.890625 33.015625 
z
" id="DejaVuSans-110"/>
      <path d="M 5.515625 54.6875 
L 48.1875 54.6875 
L 48.1875 46.484375 
L 14.40625 7.171875 
L 48.1875 7.171875 
L 48.1875 0 
L 4.296875 0 
L 4.296875 8.203125 
L 38.09375 47.515625 
L 5.515625 47.515625 
z
" id="DejaVuSans-122"/>
      <path d="M 34.28125 27.484375 
Q 23.390625 27.484375 19.1875 25 
Q 14.984375 22.515625 14.984375 16.5 
Q 14.984375 11.71875 18.140625 8.90625 
Q 21.296875 6.109375 26.703125 6.109375 
Q 34.1875 6.109375 38.703125 11.40625 
Q 43.21875 16.703125 43.21875 25.484375 
L 43.21875 27.484375 
z
M 52.203125 31.203125 
L 52.203125 0 
L 43.21875 0 
L 43.21875 8.296875 
Q 40.140625 3.328125 35.546875 0.953125 
Q 30.953125 -1.421875 24.3125 -1.421875 
Q 15.921875 -1.421875 10.953125 3.296875 
Q 6 8.015625 6 15.921875 
Q 6 25.140625 12.171875 29.828125 
Q 18.359375 34.515625 30.609375 34.515625 
L 43.21875 34.515625 
L 43.21875 35.40625 
Q 43.21875 41.609375 39.140625 45 
Q 35.0625 48.390625 27.6875 48.390625 
Q 23 48.390625 18.546875 47.265625 
Q 14.109375 46.140625 10.015625 43.890625 
L 10.015625 52.203125 
Q 14.9375 54.109375 19.578125 55.046875 
Q 24.21875 56 28.609375 56 
Q 40.484375 56 46.34375 49.84375 
Q 52.203125 43.703125 52.203125 31.203125 
z
" id="DejaVuSans-97"/>
      <path d="M 54.890625 33.015625 
L 54.890625 0 
L 45.90625 0 
L 45.90625 32.71875 
Q 45.90625 40.484375 42.875 44.328125 
Q 39.84375 48.1875 33.796875 48.1875 
Q 26.515625 48.1875 22.3125 43.546875 
Q 18.109375 38.921875 18.109375 30.90625 
L 18.109375 0 
L 9.078125 0 
L 9.078125 75.984375 
L 18.109375 75.984375 
L 18.109375 46.1875 
Q 21.34375 51.125 25.703125 53.5625 
Q 30.078125 56 35.796875 56 
Q 45.21875 56 50.046875 50.171875 
Q 54.890625 44.34375 54.890625 33.015625 
z
" id="DejaVuSans-104"/>
      <path d="M 9.421875 75.984375 
L 18.40625 75.984375 
L 18.40625 0 
L 9.421875 0 
z
" id="DejaVuSans-108"/>
      <path id="DejaVuSans-32"/>
      <path d="M 2.984375 54.6875 
L 12.5 54.6875 
L 29.59375 8.796875 
L 46.6875 54.6875 
L 56.203125 54.6875 
L 35.6875 0 
L 23.484375 0 
z
" id="DejaVuSans-118"/>
      <path d="M 30.609375 48.390625 
Q 23.390625 48.390625 19.1875 42.75 
Q 14.984375 37.109375 14.984375 27.296875 
Q 14.984375 17.484375 19.15625 11.84375 
Q 23.34375 6.203125 30.609375 6.203125 
Q 37.796875 6.203125 41.984375 11.859375 
Q 46.1875 17.53125 46.1875 27.296875 
Q 46.1875 37.015625 41.984375 42.703125 
Q 37.796875 48.390625 30.609375 48.390625 
z
M 30.609375 56 
Q 42.328125 56 49.015625 48.375 
Q 55.71875 40.765625 55.71875 27.296875 
Q 55.71875 13.875 49.015625 6.21875 
Q 42.328125 -1.421875 30.609375 -1.421875 
Q 18.84375 -1.421875 12.171875 6.21875 
Q 5.515625 13.875 5.515625 27.296875 
Q 5.515625 40.765625 12.171875 48.375 
Q 18.84375 56 30.609375 56 
z
" id="DejaVuSans-111"/>
      <path d="M 9.8125 72.90625 
L 51.703125 72.90625 
L 51.703125 64.59375 
L 19.671875 64.59375 
L 19.671875 43.109375 
L 48.578125 43.109375 
L 48.578125 34.8125 
L 19.671875 34.8125 
L 19.671875 0 
L 9.8125 0 
z
" id="DejaVuSans-70"/>
      <path d="M 34.28125 27.484375 
Q 23.390625 27.484375 19.1875 25 
Q 14.984375 22.515625 14.984375 16.5 
Q 14.984375 11.71875 18.140625 8.90625 
Q 21.296875 6.109375 26.703125 6.109375 
Q 34.1875 6.109375 38.703125 11.40625 
Q 43.21875 16.703125 43.21875 25.484375 
L 43.21875 27.484375 
z
M 52.203125 31.203125 
L 52.203125 0 
L 43.21875 0 
L 43.21875 8.296875 
Q 40.140625 3.328125 35.546875 0.953125 
Q 30.953125 -1.421875 24.3125 -1.421875 
Q 15.921875 -1.421875 10.953125 3.296875 
Q 6 8.015625 6 15.921875 
Q 6 25.140625 12.171875 29.828125 
Q 18.359375 34.515625 30.609375 34.515625 
L 43.21875 34.515625 
L 43.21875 35.40625 
Q 43.21875 41.609375 39.140625 45 
Q 35.0625 48.390625 27.6875 48.390625 
Q 23 48.390625 18.546875 47.265625 
Q 14.109375 46.140625 10.015625 43.890625 
L 10.015625 52.203125 
Q 14.9375 54.109375 19.578125 55.046875 
Q 24.21875 56 28.609375 56 
Q 40.484375 56 46.34375 49.84375 
Q 52.203125 43.703125 52.203125 31.203125 
z
M 33.59375 75.78125 
L 43.5 75.78125 
L 43.5 65.921875 
L 33.59375 65.921875 
z
M 14.5 75.78125 
L 24.40625 75.78125 
L 24.40625 65.921875 
L 14.5 65.921875 
z
" id="DejaVuSans-228"/>
      <path d="M 56.203125 29.59375 
L 56.203125 25.203125 
L 14.890625 25.203125 
Q 15.484375 15.921875 20.484375 11.0625 
Q 25.484375 6.203125 34.421875 6.203125 
Q 39.59375 6.203125 44.453125 7.46875 
Q 49.3125 8.734375 54.109375 11.28125 
L 54.109375 2.78125 
Q 49.265625 0.734375 44.1875 -0.34375 
Q 39.109375 -1.421875 33.890625 -1.421875 
Q 20.796875 -1.421875 13.15625 6.1875 
Q 5.515625 13.8125 5.515625 26.8125 
Q 5.515625 40.234375 12.765625 48.109375 
Q 20.015625 56 32.328125 56 
Q 43.359375 56 49.78125 48.890625 
Q 56.203125 41.796875 56.203125 29.59375 
z
M 47.21875 32.234375 
Q 47.125 39.59375 43.09375 43.984375 
Q 39.0625 48.390625 32.421875 48.390625 
Q 24.90625 48.390625 20.390625 44.140625 
Q 15.875 39.890625 15.1875 32.171875 
z
" id="DejaVuSans-101"/>
     </defs>
     <g transform="translate(16.318125 309.388359)rotate(-90)scale(0.12 -0.12)">
      <use xlink:href="#DejaVuSans-65"/>
      <use x="68.408203" xlink:href="#DejaVuSans-110"/>
      <use x="131.787109" xlink:href="#DejaVuSans-122"/>
      <use x="184.277344" xlink:href="#DejaVuSans-97"/>
      <use x="245.556641" xlink:href="#DejaVuSans-104"/>
      <use x="308.935547" xlink:href="#DejaVuSans-108"/>
      <use x="336.71875" xlink:href="#DejaVuSans-32"/>
      <use x="368.505859" xlink:href="#DejaVuSans-118"/>
      <use x="427.685547" xlink:href="#DejaVuSans-111"/>
      <use x="488.867188" xlink:href="#DejaVuSans-110"/>
      <use x="552.246094" xlink:href="#DejaVuSans-32"/>
      <use x="584.033203" xlink:href="#DejaVuSans-70"/>
      <use x="632.427734" xlink:href="#DejaVuSans-228"/>
      <use x="693.707031" xlink:href="#DejaVuSans-108"/>
      <use x="721.490234" xlink:href="#DejaVuSans-108"/>
      <use x="749.273438" xlink:href="#DejaVuSans-101"/>
      <use x="810.796875" xlink:href="#DejaVuSans-110"/>
     </g>
    </g>
   </g>
   <g id="line2d_36">
    <path clip-path="url(#pe8f2606e38)" d="M 113.626023 476.482693 
L 118.724241 476.482693 
L 128.920678 475.767218 
L 149.313551 475.767218 
L 154.41177 471.474364 
L 159.509988 470.043412 
L 169.706425 469.327937 
L 174.804643 468.612461 
L 179.902861 468.254723 
L 185.00108 465.750558 
L 190.099298 464.319607 
L 200.295735 462.17318 
L 205.393953 461.815442 
L 210.492172 460.384491 
L 215.59039 459.669015 
L 225.786827 458.595802 
L 230.885045 443.213075 
L 235.983263 439.277959 
L 241.081482 436.058318 
L 256.376137 427.47261 
L 261.474355 422.46428 
L 266.572574 418.171426 
L 271.670792 408.154767 
L 276.76901 407.081553 
L 281.867229 403.146437 
L 292.063665 402.430962 
L 297.161884 398.138108 
L 302.260102 396.349418 
L 307.358321 395.991681 
L 317.554757 393.487516 
L 327.751194 393.129778 
L 332.849412 389.194662 
L 337.947631 389.194662 
L 343.045849 386.332759 
L 348.144067 384.901808 
L 353.242286 377.389313 
L 363.438723 377.031575 
L 368.536941 377.031575 
L 373.635159 374.885148 
L 378.733378 374.527411 
L 383.831596 372.738721 
L 399.126251 372.738721 
L 404.22447 362.006586 
L 409.322688 359.144684 
L 419.519125 359.144684 
L 424.617343 358.786946 
L 434.81378 358.786946 
L 439.911998 357.355994 
L 450.108435 352.705403 
L 455.206653 352.347665 
L 475.599527 351.632189 
L 480.697745 351.632189 
L 485.795963 350.916713 
L 490.894182 348.412549 
L 495.9924 346.981597 
L 506.188837 346.981597 
L 511.287055 345.908384 
L 516.385274 344.119695 
L 541.876365 344.119695 
L 552.072802 340.184578 
L 562.269239 336.6072 
L 567.367457 335.176249 
L 582.662112 335.176249 
L 587.760331 330.883395 
L 592.858549 329.452443 
L 603.054986 328.37923 
L 613.251422 328.37923 
L 618.349641 323.728638 
L 623.447859 322.297687 
L 628.546078 319.793522 
L 633.644296 316.216144 
L 654.037169 311.92329 
L 659.135388 310.492338 
L 664.233606 306.91496 
L 669.331824 306.199484 
L 684.62648 305.126271 
L 689.724698 303.337581 
L 694.822916 300.117941 
L 699.921135 298.329252 
L 705.019353 298.329252 
L 720.314008 296.540563 
L 725.412226 296.182825 
L 730.510445 293.67866 
L 735.608663 290.816757 
L 740.706882 289.028068 
L 756.001537 288.67033 
L 761.099755 286.881641 
L 766.197973 284.377476 
L 771.296192 280.800098 
L 776.39441 252.896547 
L 791.689065 279.726884 
L 796.787284 279.726884 
L 801.885502 274.718555 
L 806.98372 272.929866 
L 812.081939 272.572128 
L 832.474812 272.572128 
L 837.57303 260.051304 
L 842.671249 256.831663 
L 863.064122 256.831663 
L 868.162341 252.538809 
L 873.260559 251.465596 
L 878.358777 249.676906 
L 883.456996 241.806674 
L 898.751651 241.091198 
L 903.849869 240.73346 
L 908.948088 225.350734 
L 914.046306 222.846569 
L 919.144524 222.488831 
L 934.439179 218.195977 
L 939.537398 217.122763 
L 944.635616 209.610269 
L 949.733835 207.463842 
L 954.832053 204.244201 
L 970.126708 202.81325 
L 975.224926 197.80492 
L 980.323145 196.731707 
L 985.421363 196.731707 
L 990.519581 191.365639 
L 1005.814237 187.072785 
L 1010.912455 187.072785 
L 1016.010673 185.641834 
L 1021.108892 185.284096 
L 1026.20711 182.064456 
L 1041.501765 182.064456 
L 1046.599983 179.918029 
L 1051.698202 175.267437 
L 1056.79642 173.836485 
L 1061.894639 171.332321 
L 1077.189294 167.039467 
L 1082.287512 162.031137 
L 1087.38573 158.096021 
L 1092.483949 150.941264 
L 1097.582167 149.510313 
L 1112.876822 146.64841 
L 1117.975041 127.330567 
L 1123.073259 126.615091 
L 1128.171477 114.094267 
L 1128.171477 114.094267 
" style="fill:none;stroke:#dbcd00;stroke-linecap:square;stroke-width:2;"/>
    <defs>
     <path d="M 0 1.5 
C 0.397805 1.5 0.77937 1.341951 1.06066 1.06066 
C 1.341951 0.77937 1.5 0.397805 1.5 0 
C 1.5 -0.397805 1.341951 -0.77937 1.06066 -1.06066 
C 0.77937 -1.341951 0.397805 -1.5 0 -1.5 
C -0.397805 -1.5 -0.77937 -1.341951 -1.06066 -1.06066 
C -1.341951 -0.77937 -1.5 -0.397805 -1.5 0 
C -1.5 0.397805 -1.341951 0.77937 -1.06066 1.06066 
C -0.77937 1.341951 -0.397805 1.5 0 1.5 
z
" id="m0cd1319f9f" style="stroke:#dbcd00;"/>
    </defs>
    <g clip-path="url(#pe8f2606e38)">
     <use style="fill:#dbcd00;stroke:#dbcd00;" x="113.626023" xlink:href="#m0cd1319f9f" y="476.482693"/>
     <use style="fill:#dbcd00;stroke:#dbcd00;" x="118.724241" xlink:href="#m0cd1319f9f" y="476.482693"/>
     <use style="fill:#dbcd00;stroke:#dbcd00;" x="123.822459" xlink:href="#m0cd1319f9f" y="476.124955"/>
     <use style="fill:#dbcd00;stroke:#dbcd00;" x="128.920678" xlink:href="#m0cd1319f9f" y="475.767218"/>
     <use style="fill:#dbcd00;stroke:#dbcd00;" x="134.018896" xlink:href="#m0cd1319f9f" y="475.767218"/>
     <use style="fill:#dbcd00;stroke:#dbcd00;" x="139.117115" xlink:href="#m0cd1319f9f" y="475.767218"/>
     <use style="fill:#dbcd00;stroke:#dbcd00;" x="144.215333" xlink:href="#m0cd1319f9f" y="475.767218"/>
     <use style="fill:#dbcd00;stroke:#dbcd00;" x="149.313551" xlink:href="#m0cd1319f9f" y="475.767218"/>
     <use style="fill:#dbcd00;stroke:#dbcd00;" x="154.41177" xlink:href="#m0cd1319f9f" y="471.474364"/>
     <use style="fill:#dbcd00;stroke:#dbcd00;" x="159.509988" xlink:href="#m0cd1319f9f" y="470.043412"/>
     <use style="fill:#dbcd00;stroke:#dbcd00;" x="164.608206" xlink:href="#m0cd1319f9f" y="469.685674"/>
     <use style="fill:#dbcd00;stroke:#dbcd00;" x="169.706425" xlink:href="#m0cd1319f9f" y="469.327937"/>
     <use style="fill:#dbcd00;stroke:#dbcd00;" x="174.804643" xlink:href="#m0cd1319f9f" y="468.612461"/>
     <use style="fill:#dbcd00;stroke:#dbcd00;" x="179.902861" xlink:href="#m0cd1319f9f" y="468.254723"/>
     <use style="fill:#dbcd00;stroke:#dbcd00;" x="185.00108" xlink:href="#m0cd1319f9f" y="465.750558"/>
     <use style="fill:#dbcd00;stroke:#dbcd00;" x="190.099298" xlink:href="#m0cd1319f9f" y="464.319607"/>
     <use style="fill:#dbcd00;stroke:#dbcd00;" x="195.197517" xlink:href="#m0cd1319f9f" y="463.246393"/>
     <use style="fill:#dbcd00;stroke:#dbcd00;" x="200.295735" xlink:href="#m0cd1319f9f" y="462.17318"/>
     <use style="fill:#dbcd00;stroke:#dbcd00;" x="205.393953" xlink:href="#m0cd1319f9f" y="461.815442"/>
     <use style="fill:#dbcd00;stroke:#dbcd00;" x="210.492172" xlink:href="#m0cd1319f9f" y="460.384491"/>
     <use style="fill:#dbcd00;stroke:#dbcd00;" x="215.59039" xlink:href="#m0cd1319f9f" y="459.669015"/>
     <use style="fill:#dbcd00;stroke:#dbcd00;" x="225.786827" xlink:href="#m0cd1319f9f" y="458.595802"/>
     <use style="fill:#dbcd00;stroke:#dbcd00;" x="230.885045" xlink:href="#m0cd1319f9f" y="443.213075"/>
     <use style="fill:#dbcd00;stroke:#dbcd00;" x="235.983263" xlink:href="#m0cd1319f9f" y="439.277959"/>
     <use style="fill:#dbcd00;stroke:#dbcd00;" x="241.081482" xlink:href="#m0cd1319f9f" y="436.058318"/>
     <use style="fill:#dbcd00;stroke:#dbcd00;" x="246.1797" xlink:href="#m0cd1319f9f" y="433.196415"/>
     <use style="fill:#dbcd00;stroke:#dbcd00;" x="256.376137" xlink:href="#m0cd1319f9f" y="427.47261"/>
     <use style="fill:#dbcd00;stroke:#dbcd00;" x="261.474355" xlink:href="#m0cd1319f9f" y="422.46428"/>
     <use style="fill:#dbcd00;stroke:#dbcd00;" x="266.572574" xlink:href="#m0cd1319f9f" y="418.171426"/>
     <use style="fill:#dbcd00;stroke:#dbcd00;" x="271.670792" xlink:href="#m0cd1319f9f" y="408.154767"/>
     <use style="fill:#dbcd00;stroke:#dbcd00;" x="276.76901" xlink:href="#m0cd1319f9f" y="407.081553"/>
     <use style="fill:#dbcd00;stroke:#dbcd00;" x="281.867229" xlink:href="#m0cd1319f9f" y="403.146437"/>
     <use style="fill:#dbcd00;stroke:#dbcd00;" x="292.063665" xlink:href="#m0cd1319f9f" y="402.430962"/>
     <use style="fill:#dbcd00;stroke:#dbcd00;" x="297.161884" xlink:href="#m0cd1319f9f" y="398.138108"/>
     <use style="fill:#dbcd00;stroke:#dbcd00;" x="302.260102" xlink:href="#m0cd1319f9f" y="396.349418"/>
     <use style="fill:#dbcd00;stroke:#dbcd00;" x="307.358321" xlink:href="#m0cd1319f9f" y="395.991681"/>
     <use style="fill:#dbcd00;stroke:#dbcd00;" x="317.554757" xlink:href="#m0cd1319f9f" y="393.487516"/>
     <use style="fill:#dbcd00;stroke:#dbcd00;" x="327.751194" xlink:href="#m0cd1319f9f" y="393.129778"/>
     <use style="fill:#dbcd00;stroke:#dbcd00;" x="332.849412" xlink:href="#m0cd1319f9f" y="389.194662"/>
     <use style="fill:#dbcd00;stroke:#dbcd00;" x="337.947631" xlink:href="#m0cd1319f9f" y="389.194662"/>
     <use style="fill:#dbcd00;stroke:#dbcd00;" x="343.045849" xlink:href="#m0cd1319f9f" y="386.332759"/>
     <use style="fill:#dbcd00;stroke:#dbcd00;" x="348.144067" xlink:href="#m0cd1319f9f" y="384.901808"/>
     <use style="fill:#dbcd00;stroke:#dbcd00;" x="353.242286" xlink:href="#m0cd1319f9f" y="377.389313"/>
     <use style="fill:#dbcd00;stroke:#dbcd00;" x="363.438723" xlink:href="#m0cd1319f9f" y="377.031575"/>
     <use style="fill:#dbcd00;stroke:#dbcd00;" x="368.536941" xlink:href="#m0cd1319f9f" y="377.031575"/>
     <use style="fill:#dbcd00;stroke:#dbcd00;" x="373.635159" xlink:href="#m0cd1319f9f" y="374.885148"/>
     <use style="fill:#dbcd00;stroke:#dbcd00;" x="378.733378" xlink:href="#m0cd1319f9f" y="374.527411"/>
     <use style="fill:#dbcd00;stroke:#dbcd00;" x="383.831596" xlink:href="#m0cd1319f9f" y="372.738721"/>
     <use style="fill:#dbcd00;stroke:#dbcd00;" x="388.929814" xlink:href="#m0cd1319f9f" y="372.738721"/>
     <use style="fill:#dbcd00;stroke:#dbcd00;" x="399.126251" xlink:href="#m0cd1319f9f" y="372.738721"/>
     <use style="fill:#dbcd00;stroke:#dbcd00;" x="404.22447" xlink:href="#m0cd1319f9f" y="362.006586"/>
     <use style="fill:#dbcd00;stroke:#dbcd00;" x="409.322688" xlink:href="#m0cd1319f9f" y="359.144684"/>
     <use style="fill:#dbcd00;stroke:#dbcd00;" x="419.519125" xlink:href="#m0cd1319f9f" y="359.144684"/>
     <use style="fill:#dbcd00;stroke:#dbcd00;" x="424.617343" xlink:href="#m0cd1319f9f" y="358.786946"/>
     <use style="fill:#dbcd00;stroke:#dbcd00;" x="434.81378" xlink:href="#m0cd1319f9f" y="358.786946"/>
     <use style="fill:#dbcd00;stroke:#dbcd00;" x="439.911998" xlink:href="#m0cd1319f9f" y="357.355994"/>
     <use style="fill:#dbcd00;stroke:#dbcd00;" x="450.108435" xlink:href="#m0cd1319f9f" y="352.705403"/>
     <use style="fill:#dbcd00;stroke:#dbcd00;" x="455.206653" xlink:href="#m0cd1319f9f" y="352.347665"/>
     <use style="fill:#dbcd00;stroke:#dbcd00;" x="475.599527" xlink:href="#m0cd1319f9f" y="351.632189"/>
     <use style="fill:#dbcd00;stroke:#dbcd00;" x="480.697745" xlink:href="#m0cd1319f9f" y="351.632189"/>
     <use style="fill:#dbcd00;stroke:#dbcd00;" x="485.795963" xlink:href="#m0cd1319f9f" y="350.916713"/>
     <use style="fill:#dbcd00;stroke:#dbcd00;" x="490.894182" xlink:href="#m0cd1319f9f" y="348.412549"/>
     <use style="fill:#dbcd00;stroke:#dbcd00;" x="495.9924" xlink:href="#m0cd1319f9f" y="346.981597"/>
     <use style="fill:#dbcd00;stroke:#dbcd00;" x="506.188837" xlink:href="#m0cd1319f9f" y="346.981597"/>
     <use style="fill:#dbcd00;stroke:#dbcd00;" x="511.287055" xlink:href="#m0cd1319f9f" y="345.908384"/>
     <use style="fill:#dbcd00;stroke:#dbcd00;" x="516.385274" xlink:href="#m0cd1319f9f" y="344.119695"/>
     <use style="fill:#dbcd00;stroke:#dbcd00;" x="526.58171" xlink:href="#m0cd1319f9f" y="344.119695"/>
     <use style="fill:#dbcd00;stroke:#dbcd00;" x="531.679929" xlink:href="#m0cd1319f9f" y="344.119695"/>
     <use style="fill:#dbcd00;stroke:#dbcd00;" x="541.876365" xlink:href="#m0cd1319f9f" y="344.119695"/>
     <use style="fill:#dbcd00;stroke:#dbcd00;" x="552.072802" xlink:href="#m0cd1319f9f" y="340.184578"/>
     <use style="fill:#dbcd00;stroke:#dbcd00;" x="562.269239" xlink:href="#m0cd1319f9f" y="336.6072"/>
     <use style="fill:#dbcd00;stroke:#dbcd00;" x="567.367457" xlink:href="#m0cd1319f9f" y="335.176249"/>
     <use style="fill:#dbcd00;stroke:#dbcd00;" x="577.563894" xlink:href="#m0cd1319f9f" y="335.176249"/>
     <use style="fill:#dbcd00;stroke:#dbcd00;" x="582.662112" xlink:href="#m0cd1319f9f" y="335.176249"/>
     <use style="fill:#dbcd00;stroke:#dbcd00;" x="587.760331" xlink:href="#m0cd1319f9f" y="330.883395"/>
     <use style="fill:#dbcd00;stroke:#dbcd00;" x="592.858549" xlink:href="#m0cd1319f9f" y="329.452443"/>
     <use style="fill:#dbcd00;stroke:#dbcd00;" x="603.054986" xlink:href="#m0cd1319f9f" y="328.37923"/>
     <use style="fill:#dbcd00;stroke:#dbcd00;" x="613.251422" xlink:href="#m0cd1319f9f" y="328.37923"/>
     <use style="fill:#dbcd00;stroke:#dbcd00;" x="618.349641" xlink:href="#m0cd1319f9f" y="323.728638"/>
     <use style="fill:#dbcd00;stroke:#dbcd00;" x="623.447859" xlink:href="#m0cd1319f9f" y="322.297687"/>
     <use style="fill:#dbcd00;stroke:#dbcd00;" x="628.546078" xlink:href="#m0cd1319f9f" y="319.793522"/>
     <use style="fill:#dbcd00;stroke:#dbcd00;" x="633.644296" xlink:href="#m0cd1319f9f" y="316.216144"/>
     <use style="fill:#dbcd00;stroke:#dbcd00;" x="638.742514" xlink:href="#m0cd1319f9f" y="315.14293"/>
     <use style="fill:#dbcd00;stroke:#dbcd00;" x="654.037169" xlink:href="#m0cd1319f9f" y="311.92329"/>
     <use style="fill:#dbcd00;stroke:#dbcd00;" x="659.135388" xlink:href="#m0cd1319f9f" y="310.492338"/>
     <use style="fill:#dbcd00;stroke:#dbcd00;" x="664.233606" xlink:href="#m0cd1319f9f" y="306.91496"/>
     <use style="fill:#dbcd00;stroke:#dbcd00;" x="669.331824" xlink:href="#m0cd1319f9f" y="306.199484"/>
     <use style="fill:#dbcd00;stroke:#dbcd00;" x="684.62648" xlink:href="#m0cd1319f9f" y="305.126271"/>
     <use style="fill:#dbcd00;stroke:#dbcd00;" x="689.724698" xlink:href="#m0cd1319f9f" y="303.337581"/>
     <use style="fill:#dbcd00;stroke:#dbcd00;" x="694.822916" xlink:href="#m0cd1319f9f" y="300.117941"/>
     <use style="fill:#dbcd00;stroke:#dbcd00;" x="699.921135" xlink:href="#m0cd1319f9f" y="298.329252"/>
     <use style="fill:#dbcd00;stroke:#dbcd00;" x="705.019353" xlink:href="#m0cd1319f9f" y="298.329252"/>
     <use style="fill:#dbcd00;stroke:#dbcd00;" x="720.314008" xlink:href="#m0cd1319f9f" y="296.540563"/>
     <use style="fill:#dbcd00;stroke:#dbcd00;" x="725.412226" xlink:href="#m0cd1319f9f" y="296.182825"/>
     <use style="fill:#dbcd00;stroke:#dbcd00;" x="730.510445" xlink:href="#m0cd1319f9f" y="293.67866"/>
     <use style="fill:#dbcd00;stroke:#dbcd00;" x="735.608663" xlink:href="#m0cd1319f9f" y="290.816757"/>
     <use style="fill:#dbcd00;stroke:#dbcd00;" x="740.706882" xlink:href="#m0cd1319f9f" y="289.028068"/>
     <use style="fill:#dbcd00;stroke:#dbcd00;" x="756.001537" xlink:href="#m0cd1319f9f" y="288.67033"/>
     <use style="fill:#dbcd00;stroke:#dbcd00;" x="761.099755" xlink:href="#m0cd1319f9f" y="286.881641"/>
     <use style="fill:#dbcd00;stroke:#dbcd00;" x="766.197973" xlink:href="#m0cd1319f9f" y="284.377476"/>
     <use style="fill:#dbcd00;stroke:#dbcd00;" x="771.296192" xlink:href="#m0cd1319f9f" y="280.800098"/>
     <use style="fill:#dbcd00;stroke:#dbcd00;" x="776.39441" xlink:href="#m0cd1319f9f" y="252.896547"/>
     <use style="fill:#dbcd00;stroke:#dbcd00;" x="791.689065" xlink:href="#m0cd1319f9f" y="279.726884"/>
     <use style="fill:#dbcd00;stroke:#dbcd00;" x="796.787284" xlink:href="#m0cd1319f9f" y="279.726884"/>
     <use style="fill:#dbcd00;stroke:#dbcd00;" x="801.885502" xlink:href="#m0cd1319f9f" y="274.718555"/>
     <use style="fill:#dbcd00;stroke:#dbcd00;" x="806.98372" xlink:href="#m0cd1319f9f" y="272.929866"/>
     <use style="fill:#dbcd00;stroke:#dbcd00;" x="812.081939" xlink:href="#m0cd1319f9f" y="272.572128"/>
     <use style="fill:#dbcd00;stroke:#dbcd00;" x="827.376594" xlink:href="#m0cd1319f9f" y="272.572128"/>
     <use style="fill:#dbcd00;stroke:#dbcd00;" x="832.474812" xlink:href="#m0cd1319f9f" y="272.572128"/>
     <use style="fill:#dbcd00;stroke:#dbcd00;" x="837.57303" xlink:href="#m0cd1319f9f" y="260.051304"/>
     <use style="fill:#dbcd00;stroke:#dbcd00;" x="842.671249" xlink:href="#m0cd1319f9f" y="256.831663"/>
     <use style="fill:#dbcd00;stroke:#dbcd00;" x="847.769467" xlink:href="#m0cd1319f9f" y="256.831663"/>
     <use style="fill:#dbcd00;stroke:#dbcd00;" x="863.064122" xlink:href="#m0cd1319f9f" y="256.831663"/>
     <use style="fill:#dbcd00;stroke:#dbcd00;" x="868.162341" xlink:href="#m0cd1319f9f" y="252.538809"/>
     <use style="fill:#dbcd00;stroke:#dbcd00;" x="873.260559" xlink:href="#m0cd1319f9f" y="251.465596"/>
     <use style="fill:#dbcd00;stroke:#dbcd00;" x="878.358777" xlink:href="#m0cd1319f9f" y="249.676906"/>
     <use style="fill:#dbcd00;stroke:#dbcd00;" x="883.456996" xlink:href="#m0cd1319f9f" y="241.806674"/>
     <use style="fill:#dbcd00;stroke:#dbcd00;" x="898.751651" xlink:href="#m0cd1319f9f" y="241.091198"/>
     <use style="fill:#dbcd00;stroke:#dbcd00;" x="903.849869" xlink:href="#m0cd1319f9f" y="240.73346"/>
     <use style="fill:#dbcd00;stroke:#dbcd00;" x="908.948088" xlink:href="#m0cd1319f9f" y="225.350734"/>
     <use style="fill:#dbcd00;stroke:#dbcd00;" x="914.046306" xlink:href="#m0cd1319f9f" y="222.846569"/>
     <use style="fill:#dbcd00;stroke:#dbcd00;" x="919.144524" xlink:href="#m0cd1319f9f" y="222.488831"/>
     <use style="fill:#dbcd00;stroke:#dbcd00;" x="934.439179" xlink:href="#m0cd1319f9f" y="218.195977"/>
     <use style="fill:#dbcd00;stroke:#dbcd00;" x="939.537398" xlink:href="#m0cd1319f9f" y="217.122763"/>
     <use style="fill:#dbcd00;stroke:#dbcd00;" x="944.635616" xlink:href="#m0cd1319f9f" y="209.610269"/>
     <use style="fill:#dbcd00;stroke:#dbcd00;" x="949.733835" xlink:href="#m0cd1319f9f" y="207.463842"/>
     <use style="fill:#dbcd00;stroke:#dbcd00;" x="954.832053" xlink:href="#m0cd1319f9f" y="204.244201"/>
     <use style="fill:#dbcd00;stroke:#dbcd00;" x="970.126708" xlink:href="#m0cd1319f9f" y="202.81325"/>
     <use style="fill:#dbcd00;stroke:#dbcd00;" x="975.224926" xlink:href="#m0cd1319f9f" y="197.80492"/>
     <use style="fill:#dbcd00;stroke:#dbcd00;" x="980.323145" xlink:href="#m0cd1319f9f" y="196.731707"/>
     <use style="fill:#dbcd00;stroke:#dbcd00;" x="985.421363" xlink:href="#m0cd1319f9f" y="196.731707"/>
     <use style="fill:#dbcd00;stroke:#dbcd00;" x="990.519581" xlink:href="#m0cd1319f9f" y="191.365639"/>
     <use style="fill:#dbcd00;stroke:#dbcd00;" x="1005.814237" xlink:href="#m0cd1319f9f" y="187.072785"/>
     <use style="fill:#dbcd00;stroke:#dbcd00;" x="1010.912455" xlink:href="#m0cd1319f9f" y="187.072785"/>
     <use style="fill:#dbcd00;stroke:#dbcd00;" x="1016.010673" xlink:href="#m0cd1319f9f" y="185.641834"/>
     <use style="fill:#dbcd00;stroke:#dbcd00;" x="1021.108892" xlink:href="#m0cd1319f9f" y="185.284096"/>
     <use style="fill:#dbcd00;stroke:#dbcd00;" x="1026.20711" xlink:href="#m0cd1319f9f" y="182.064456"/>
     <use style="fill:#dbcd00;stroke:#dbcd00;" x="1041.501765" xlink:href="#m0cd1319f9f" y="182.064456"/>
     <use style="fill:#dbcd00;stroke:#dbcd00;" x="1046.599983" xlink:href="#m0cd1319f9f" y="179.918029"/>
     <use style="fill:#dbcd00;stroke:#dbcd00;" x="1051.698202" xlink:href="#m0cd1319f9f" y="175.267437"/>
     <use style="fill:#dbcd00;stroke:#dbcd00;" x="1056.79642" xlink:href="#m0cd1319f9f" y="173.836485"/>
     <use style="fill:#dbcd00;stroke:#dbcd00;" x="1061.894639" xlink:href="#m0cd1319f9f" y="171.332321"/>
     <use style="fill:#dbcd00;stroke:#dbcd00;" x="1077.189294" xlink:href="#m0cd1319f9f" y="167.039467"/>
     <use style="fill:#dbcd00;stroke:#dbcd00;" x="1082.287512" xlink:href="#m0cd1319f9f" y="162.031137"/>
     <use style="fill:#dbcd00;stroke:#dbcd00;" x="1087.38573" xlink:href="#m0cd1319f9f" y="158.096021"/>
     <use style="fill:#dbcd00;stroke:#dbcd00;" x="1092.483949" xlink:href="#m0cd1319f9f" y="150.941264"/>
     <use style="fill:#dbcd00;stroke:#dbcd00;" x="1097.582167" xlink:href="#m0cd1319f9f" y="149.510313"/>
     <use style="fill:#dbcd00;stroke:#dbcd00;" x="1112.876822" xlink:href="#m0cd1319f9f" y="146.64841"/>
     <use style="fill:#dbcd00;stroke:#dbcd00;" x="1117.975041" xlink:href="#m0cd1319f9f" y="127.330567"/>
     <use style="fill:#dbcd00;stroke:#dbcd00;" x="1123.073259" xlink:href="#m0cd1319f9f" y="126.615091"/>
     <use style="fill:#dbcd00;stroke:#dbcd00;" x="1128.171477" xlink:href="#m0cd1319f9f" y="114.094267"/>
    </g>
   </g>
   <g id="line2d_37">
    <path clip-path="url(#pe8f2606e38)" d="M 113.626023 460.026753 
L 123.822459 456.449375 
L 128.920678 457.16485 
L 134.018896 450.725569 
L 139.117115 447.863667 
L 144.215333 445.71724 
L 149.313551 442.855337 
L 154.41177 442.497599 
L 159.509988 438.562483 
L 164.608206 434.269629 
L 169.706425 428.903561 
L 174.804643 425.683921 
L 179.902861 420.675591 
L 185.00108 420.675591 
L 190.099298 416.382737 
L 195.197517 416.740475 
L 200.295735 412.805359 
L 205.393953 412.447621 
L 210.492172 410.301194 
L 215.59039 411.01667 
L 225.786827 407.797029 
L 230.885045 422.822018 
L 235.983263 426.041659 
L 241.081482 426.757134 
L 246.1797 426.757134 
L 256.376137 441.782123 
L 261.474355 446.074977 
L 266.572574 439.635696 
L 271.670792 447.505929 
L 276.76901 448.579142 
L 281.867229 452.514258 
L 292.063665 453.229734 
L 297.161884 442.855337 
L 302.260102 442.139861 
L 307.358321 441.782123 
L 317.554757 443.570813 
L 327.751194 442.855337 
L 332.849412 446.790453 
L 337.947631 445.71724 
L 343.045849 447.863667 
L 348.144067 447.148191 
L 353.242286 453.587472 
L 363.438723 453.94521 
L 368.536941 453.229734 
L 373.635159 455.376161 
L 378.733378 455.733899 
L 383.831596 455.376161 
L 388.929814 453.94521 
L 399.126251 453.94521 
L 404.22447 458.953539 
L 409.322688 461.815442 
L 419.519125 461.099966 
L 424.617343 459.669015 
L 434.81378 459.669015 
L 439.911998 460.742229 
L 450.108435 463.604131 
L 455.206653 462.530918 
L 475.599527 461.815442 
L 480.697745 460.026753 
L 490.894182 460.026753 
L 495.9924 458.595802 
L 506.188837 458.595802 
L 511.287055 459.669015 
L 516.385274 457.522588 
L 526.58171 457.522588 
L 531.679929 457.880326 
L 541.876365 457.880326 
L 552.072802 459.669015 
L 562.269239 459.311277 
L 567.367457 455.733899 
L 577.563894 455.733899 
L 582.662112 452.514258 
L 587.760331 454.302948 
L 592.858549 454.660685 
L 603.054986 451.441045 
L 613.251422 451.441045 
L 618.349641 454.302948 
L 623.447859 456.091637 
L 628.546078 458.595802 
L 633.644296 456.091637 
L 638.742514 456.807112 
L 654.037169 457.880326 
L 659.135388 457.880326 
L 664.233606 458.953539 
L 669.331824 458.238064 
L 684.62648 457.522588 
L 689.724698 455.376161 
L 694.822916 457.522588 
L 699.921135 457.880326 
L 705.019353 457.522588 
L 720.314008 454.660685 
L 740.706882 456.091637 
L 756.001537 452.514258 
L 761.099755 452.156521 
L 766.197973 452.156521 
L 771.296192 455.376161 
L 776.39441 483.279712 
L 791.689065 453.587472 
L 796.787284 450.725569 
L 801.885502 452.871996 
L 806.98372 454.302948 
L 812.081939 452.156521 
L 827.376594 448.221404 
L 832.474812 445.71724 
L 837.57303 452.871996 
L 842.671249 451.441045 
L 847.769467 448.579142 
L 863.064122 447.148191 
L 868.162341 445.71724 
L 873.260559 443.92855 
L 878.358777 439.993434 
L 883.456996 445.001764 
L 898.751651 442.139861 
L 903.849869 441.782123 
L 908.948088 452.514258 
L 914.046306 452.156521 
L 919.144524 451.441045 
L 934.439179 450.725569 
L 939.537398 448.221404 
L 944.635616 436.058318 
L 949.733835 455.733899 
L 954.832053 456.449375 
L 970.126708 457.16485 
L 975.224926 458.595802 
L 980.323145 458.238064 
L 985.421363 456.091637 
L 990.519581 461.099966 
L 1005.814237 461.099966 
L 1010.912455 456.449375 
L 1016.010673 448.93688 
L 1021.108892 449.294618 
L 1026.20711 441.782123 
L 1041.501765 422.822018 
L 1046.599983 414.951786 
L 1051.698202 413.878572 
L 1056.79642 407.081553 
L 1061.894639 403.146437 
L 1077.189294 397.422632 
L 1082.287512 392.77204 
L 1087.38573 390.983351 
L 1092.483949 390.983351 
L 1097.582167 387.76371 
L 1112.876822 382.039905 
L 1117.975041 389.194662 
L 1123.073259 379.53574 
L 1128.171477 382.755381 
L 1128.171477 382.755381 
" style="fill:none;stroke:#2792cb;stroke-linecap:square;stroke-width:2;"/>
    <defs>
     <path d="M 0 1.5 
C 0.397805 1.5 0.77937 1.341951 1.06066 1.06066 
C 1.341951 0.77937 1.5 0.397805 1.5 0 
C 1.5 -0.397805 1.341951 -0.77937 1.06066 -1.06066 
C 0.77937 -1.341951 0.397805 -1.5 0 -1.5 
C -0.397805 -1.5 -0.77937 -1.341951 -1.06066 -1.06066 
C -1.341951 -0.77937 -1.5 -0.397805 -1.5 0 
C -1.5 0.397805 -1.341951 0.77937 -1.06066 1.06066 
C -0.77937 1.341951 -0.397805 1.5 0 1.5 
z
" id="mb17887a5e1" style="stroke:#2792cb;"/>
    </defs>
    <g clip-path="url(#pe8f2606e38)">
     <use style="fill:#2792cb;stroke:#2792cb;" x="113.626023" xlink:href="#mb17887a5e1" y="460.026753"/>
     <use style="fill:#2792cb;stroke:#2792cb;" x="118.724241" xlink:href="#mb17887a5e1" y="458.238064"/>
     <use style="fill:#2792cb;stroke:#2792cb;" x="123.822459" xlink:href="#mb17887a5e1" y="456.449375"/>
     <use style="fill:#2792cb;stroke:#2792cb;" x="128.920678" xlink:href="#mb17887a5e1" y="457.16485"/>
     <use style="fill:#2792cb;stroke:#2792cb;" x="134.018896" xlink:href="#mb17887a5e1" y="450.725569"/>
     <use style="fill:#2792cb;stroke:#2792cb;" x="139.117115" xlink:href="#mb17887a5e1" y="447.863667"/>
     <use style="fill:#2792cb;stroke:#2792cb;" x="144.215333" xlink:href="#mb17887a5e1" y="445.71724"/>
     <use style="fill:#2792cb;stroke:#2792cb;" x="149.313551" xlink:href="#mb17887a5e1" y="442.855337"/>
     <use style="fill:#2792cb;stroke:#2792cb;" x="154.41177" xlink:href="#mb17887a5e1" y="442.497599"/>
     <use style="fill:#2792cb;stroke:#2792cb;" x="159.509988" xlink:href="#mb17887a5e1" y="438.562483"/>
     <use style="fill:#2792cb;stroke:#2792cb;" x="164.608206" xlink:href="#mb17887a5e1" y="434.269629"/>
     <use style="fill:#2792cb;stroke:#2792cb;" x="169.706425" xlink:href="#mb17887a5e1" y="428.903561"/>
     <use style="fill:#2792cb;stroke:#2792cb;" x="174.804643" xlink:href="#mb17887a5e1" y="425.683921"/>
     <use style="fill:#2792cb;stroke:#2792cb;" x="179.902861" xlink:href="#mb17887a5e1" y="420.675591"/>
     <use style="fill:#2792cb;stroke:#2792cb;" x="185.00108" xlink:href="#mb17887a5e1" y="420.675591"/>
     <use style="fill:#2792cb;stroke:#2792cb;" x="190.099298" xlink:href="#mb17887a5e1" y="416.382737"/>
     <use style="fill:#2792cb;stroke:#2792cb;" x="195.197517" xlink:href="#mb17887a5e1" y="416.740475"/>
     <use style="fill:#2792cb;stroke:#2792cb;" x="200.295735" xlink:href="#mb17887a5e1" y="412.805359"/>
     <use style="fill:#2792cb;stroke:#2792cb;" x="205.393953" xlink:href="#mb17887a5e1" y="412.447621"/>
     <use style="fill:#2792cb;stroke:#2792cb;" x="210.492172" xlink:href="#mb17887a5e1" y="410.301194"/>
     <use style="fill:#2792cb;stroke:#2792cb;" x="215.59039" xlink:href="#mb17887a5e1" y="411.01667"/>
     <use style="fill:#2792cb;stroke:#2792cb;" x="225.786827" xlink:href="#mb17887a5e1" y="407.797029"/>
     <use style="fill:#2792cb;stroke:#2792cb;" x="230.885045" xlink:href="#mb17887a5e1" y="422.822018"/>
     <use style="fill:#2792cb;stroke:#2792cb;" x="235.983263" xlink:href="#mb17887a5e1" y="426.041659"/>
     <use style="fill:#2792cb;stroke:#2792cb;" x="241.081482" xlink:href="#mb17887a5e1" y="426.757134"/>
     <use style="fill:#2792cb;stroke:#2792cb;" x="246.1797" xlink:href="#mb17887a5e1" y="426.757134"/>
     <use style="fill:#2792cb;stroke:#2792cb;" x="256.376137" xlink:href="#mb17887a5e1" y="441.782123"/>
     <use style="fill:#2792cb;stroke:#2792cb;" x="261.474355" xlink:href="#mb17887a5e1" y="446.074977"/>
     <use style="fill:#2792cb;stroke:#2792cb;" x="266.572574" xlink:href="#mb17887a5e1" y="439.635696"/>
     <use style="fill:#2792cb;stroke:#2792cb;" x="271.670792" xlink:href="#mb17887a5e1" y="447.505929"/>
     <use style="fill:#2792cb;stroke:#2792cb;" x="276.76901" xlink:href="#mb17887a5e1" y="448.579142"/>
     <use style="fill:#2792cb;stroke:#2792cb;" x="281.867229" xlink:href="#mb17887a5e1" y="452.514258"/>
     <use style="fill:#2792cb;stroke:#2792cb;" x="292.063665" xlink:href="#mb17887a5e1" y="453.229734"/>
     <use style="fill:#2792cb;stroke:#2792cb;" x="297.161884" xlink:href="#mb17887a5e1" y="442.855337"/>
     <use style="fill:#2792cb;stroke:#2792cb;" x="302.260102" xlink:href="#mb17887a5e1" y="442.139861"/>
     <use style="fill:#2792cb;stroke:#2792cb;" x="307.358321" xlink:href="#mb17887a5e1" y="441.782123"/>
     <use style="fill:#2792cb;stroke:#2792cb;" x="317.554757" xlink:href="#mb17887a5e1" y="443.570813"/>
     <use style="fill:#2792cb;stroke:#2792cb;" x="327.751194" xlink:href="#mb17887a5e1" y="442.855337"/>
     <use style="fill:#2792cb;stroke:#2792cb;" x="332.849412" xlink:href="#mb17887a5e1" y="446.790453"/>
     <use style="fill:#2792cb;stroke:#2792cb;" x="337.947631" xlink:href="#mb17887a5e1" y="445.71724"/>
     <use style="fill:#2792cb;stroke:#2792cb;" x="343.045849" xlink:href="#mb17887a5e1" y="447.863667"/>
     <use style="fill:#2792cb;stroke:#2792cb;" x="348.144067" xlink:href="#mb17887a5e1" y="447.148191"/>
     <use style="fill:#2792cb;stroke:#2792cb;" x="353.242286" xlink:href="#mb17887a5e1" y="453.587472"/>
     <use style="fill:#2792cb;stroke:#2792cb;" x="363.438723" xlink:href="#mb17887a5e1" y="453.94521"/>
     <use style="fill:#2792cb;stroke:#2792cb;" x="368.536941" xlink:href="#mb17887a5e1" y="453.229734"/>
     <use style="fill:#2792cb;stroke:#2792cb;" x="373.635159" xlink:href="#mb17887a5e1" y="455.376161"/>
     <use style="fill:#2792cb;stroke:#2792cb;" x="378.733378" xlink:href="#mb17887a5e1" y="455.733899"/>
     <use style="fill:#2792cb;stroke:#2792cb;" x="383.831596" xlink:href="#mb17887a5e1" y="455.376161"/>
     <use style="fill:#2792cb;stroke:#2792cb;" x="388.929814" xlink:href="#mb17887a5e1" y="453.94521"/>
     <use style="fill:#2792cb;stroke:#2792cb;" x="399.126251" xlink:href="#mb17887a5e1" y="453.94521"/>
     <use style="fill:#2792cb;stroke:#2792cb;" x="404.22447" xlink:href="#mb17887a5e1" y="458.953539"/>
     <use style="fill:#2792cb;stroke:#2792cb;" x="409.322688" xlink:href="#mb17887a5e1" y="461.815442"/>
     <use style="fill:#2792cb;stroke:#2792cb;" x="419.519125" xlink:href="#mb17887a5e1" y="461.099966"/>
     <use style="fill:#2792cb;stroke:#2792cb;" x="424.617343" xlink:href="#mb17887a5e1" y="459.669015"/>
     <use style="fill:#2792cb;stroke:#2792cb;" x="434.81378" xlink:href="#mb17887a5e1" y="459.669015"/>
     <use style="fill:#2792cb;stroke:#2792cb;" x="439.911998" xlink:href="#mb17887a5e1" y="460.742229"/>
     <use style="fill:#2792cb;stroke:#2792cb;" x="450.108435" xlink:href="#mb17887a5e1" y="463.604131"/>
     <use style="fill:#2792cb;stroke:#2792cb;" x="455.206653" xlink:href="#mb17887a5e1" y="462.530918"/>
     <use style="fill:#2792cb;stroke:#2792cb;" x="475.599527" xlink:href="#mb17887a5e1" y="461.815442"/>
     <use style="fill:#2792cb;stroke:#2792cb;" x="480.697745" xlink:href="#mb17887a5e1" y="460.026753"/>
     <use style="fill:#2792cb;stroke:#2792cb;" x="485.795963" xlink:href="#mb17887a5e1" y="460.026753"/>
     <use style="fill:#2792cb;stroke:#2792cb;" x="490.894182" xlink:href="#mb17887a5e1" y="460.026753"/>
     <use style="fill:#2792cb;stroke:#2792cb;" x="495.9924" xlink:href="#mb17887a5e1" y="458.595802"/>
     <use style="fill:#2792cb;stroke:#2792cb;" x="506.188837" xlink:href="#mb17887a5e1" y="458.595802"/>
     <use style="fill:#2792cb;stroke:#2792cb;" x="511.287055" xlink:href="#mb17887a5e1" y="459.669015"/>
     <use style="fill:#2792cb;stroke:#2792cb;" x="516.385274" xlink:href="#mb17887a5e1" y="457.522588"/>
     <use style="fill:#2792cb;stroke:#2792cb;" x="526.58171" xlink:href="#mb17887a5e1" y="457.522588"/>
     <use style="fill:#2792cb;stroke:#2792cb;" x="531.679929" xlink:href="#mb17887a5e1" y="457.880326"/>
     <use style="fill:#2792cb;stroke:#2792cb;" x="541.876365" xlink:href="#mb17887a5e1" y="457.880326"/>
     <use style="fill:#2792cb;stroke:#2792cb;" x="552.072802" xlink:href="#mb17887a5e1" y="459.669015"/>
     <use style="fill:#2792cb;stroke:#2792cb;" x="562.269239" xlink:href="#mb17887a5e1" y="459.311277"/>
     <use style="fill:#2792cb;stroke:#2792cb;" x="567.367457" xlink:href="#mb17887a5e1" y="455.733899"/>
     <use style="fill:#2792cb;stroke:#2792cb;" x="577.563894" xlink:href="#mb17887a5e1" y="455.733899"/>
     <use style="fill:#2792cb;stroke:#2792cb;" x="582.662112" xlink:href="#mb17887a5e1" y="452.514258"/>
     <use style="fill:#2792cb;stroke:#2792cb;" x="587.760331" xlink:href="#mb17887a5e1" y="454.302948"/>
     <use style="fill:#2792cb;stroke:#2792cb;" x="592.858549" xlink:href="#mb17887a5e1" y="454.660685"/>
     <use style="fill:#2792cb;stroke:#2792cb;" x="603.054986" xlink:href="#mb17887a5e1" y="451.441045"/>
     <use style="fill:#2792cb;stroke:#2792cb;" x="613.251422" xlink:href="#mb17887a5e1" y="451.441045"/>
     <use style="fill:#2792cb;stroke:#2792cb;" x="618.349641" xlink:href="#mb17887a5e1" y="454.302948"/>
     <use style="fill:#2792cb;stroke:#2792cb;" x="623.447859" xlink:href="#mb17887a5e1" y="456.091637"/>
     <use style="fill:#2792cb;stroke:#2792cb;" x="628.546078" xlink:href="#mb17887a5e1" y="458.595802"/>
     <use style="fill:#2792cb;stroke:#2792cb;" x="633.644296" xlink:href="#mb17887a5e1" y="456.091637"/>
     <use style="fill:#2792cb;stroke:#2792cb;" x="638.742514" xlink:href="#mb17887a5e1" y="456.807112"/>
     <use style="fill:#2792cb;stroke:#2792cb;" x="654.037169" xlink:href="#mb17887a5e1" y="457.880326"/>
     <use style="fill:#2792cb;stroke:#2792cb;" x="659.135388" xlink:href="#mb17887a5e1" y="457.880326"/>
     <use style="fill:#2792cb;stroke:#2792cb;" x="664.233606" xlink:href="#mb17887a5e1" y="458.953539"/>
     <use style="fill:#2792cb;stroke:#2792cb;" x="669.331824" xlink:href="#mb17887a5e1" y="458.238064"/>
     <use style="fill:#2792cb;stroke:#2792cb;" x="684.62648" xlink:href="#mb17887a5e1" y="457.522588"/>
     <use style="fill:#2792cb;stroke:#2792cb;" x="689.724698" xlink:href="#mb17887a5e1" y="455.376161"/>
     <use style="fill:#2792cb;stroke:#2792cb;" x="694.822916" xlink:href="#mb17887a5e1" y="457.522588"/>
     <use style="fill:#2792cb;stroke:#2792cb;" x="699.921135" xlink:href="#mb17887a5e1" y="457.880326"/>
     <use style="fill:#2792cb;stroke:#2792cb;" x="705.019353" xlink:href="#mb17887a5e1" y="457.522588"/>
     <use style="fill:#2792cb;stroke:#2792cb;" x="720.314008" xlink:href="#mb17887a5e1" y="454.660685"/>
     <use style="fill:#2792cb;stroke:#2792cb;" x="725.412226" xlink:href="#mb17887a5e1" y="455.018423"/>
     <use style="fill:#2792cb;stroke:#2792cb;" x="730.510445" xlink:href="#mb17887a5e1" y="455.376161"/>
     <use style="fill:#2792cb;stroke:#2792cb;" x="735.608663" xlink:href="#mb17887a5e1" y="455.733899"/>
     <use style="fill:#2792cb;stroke:#2792cb;" x="740.706882" xlink:href="#mb17887a5e1" y="456.091637"/>
     <use style="fill:#2792cb;stroke:#2792cb;" x="756.001537" xlink:href="#mb17887a5e1" y="452.514258"/>
     <use style="fill:#2792cb;stroke:#2792cb;" x="761.099755" xlink:href="#mb17887a5e1" y="452.156521"/>
     <use style="fill:#2792cb;stroke:#2792cb;" x="766.197973" xlink:href="#mb17887a5e1" y="452.156521"/>
     <use style="fill:#2792cb;stroke:#2792cb;" x="771.296192" xlink:href="#mb17887a5e1" y="455.376161"/>
     <use style="fill:#2792cb;stroke:#2792cb;" x="776.39441" xlink:href="#mb17887a5e1" y="483.279712"/>
     <use style="fill:#2792cb;stroke:#2792cb;" x="791.689065" xlink:href="#mb17887a5e1" y="453.587472"/>
     <use style="fill:#2792cb;stroke:#2792cb;" x="796.787284" xlink:href="#mb17887a5e1" y="450.725569"/>
     <use style="fill:#2792cb;stroke:#2792cb;" x="801.885502" xlink:href="#mb17887a5e1" y="452.871996"/>
     <use style="fill:#2792cb;stroke:#2792cb;" x="806.98372" xlink:href="#mb17887a5e1" y="454.302948"/>
     <use style="fill:#2792cb;stroke:#2792cb;" x="812.081939" xlink:href="#mb17887a5e1" y="452.156521"/>
     <use style="fill:#2792cb;stroke:#2792cb;" x="827.376594" xlink:href="#mb17887a5e1" y="448.221404"/>
     <use style="fill:#2792cb;stroke:#2792cb;" x="832.474812" xlink:href="#mb17887a5e1" y="445.71724"/>
     <use style="fill:#2792cb;stroke:#2792cb;" x="837.57303" xlink:href="#mb17887a5e1" y="452.871996"/>
     <use style="fill:#2792cb;stroke:#2792cb;" x="842.671249" xlink:href="#mb17887a5e1" y="451.441045"/>
     <use style="fill:#2792cb;stroke:#2792cb;" x="847.769467" xlink:href="#mb17887a5e1" y="448.579142"/>
     <use style="fill:#2792cb;stroke:#2792cb;" x="863.064122" xlink:href="#mb17887a5e1" y="447.148191"/>
     <use style="fill:#2792cb;stroke:#2792cb;" x="868.162341" xlink:href="#mb17887a5e1" y="445.71724"/>
     <use style="fill:#2792cb;stroke:#2792cb;" x="873.260559" xlink:href="#mb17887a5e1" y="443.92855"/>
     <use style="fill:#2792cb;stroke:#2792cb;" x="878.358777" xlink:href="#mb17887a5e1" y="439.993434"/>
     <use style="fill:#2792cb;stroke:#2792cb;" x="883.456996" xlink:href="#mb17887a5e1" y="445.001764"/>
     <use style="fill:#2792cb;stroke:#2792cb;" x="898.751651" xlink:href="#mb17887a5e1" y="442.139861"/>
     <use style="fill:#2792cb;stroke:#2792cb;" x="903.849869" xlink:href="#mb17887a5e1" y="441.782123"/>
     <use style="fill:#2792cb;stroke:#2792cb;" x="908.948088" xlink:href="#mb17887a5e1" y="452.514258"/>
     <use style="fill:#2792cb;stroke:#2792cb;" x="914.046306" xlink:href="#mb17887a5e1" y="452.156521"/>
     <use style="fill:#2792cb;stroke:#2792cb;" x="919.144524" xlink:href="#mb17887a5e1" y="451.441045"/>
     <use style="fill:#2792cb;stroke:#2792cb;" x="934.439179" xlink:href="#mb17887a5e1" y="450.725569"/>
     <use style="fill:#2792cb;stroke:#2792cb;" x="939.537398" xlink:href="#mb17887a5e1" y="448.221404"/>
     <use style="fill:#2792cb;stroke:#2792cb;" x="944.635616" xlink:href="#mb17887a5e1" y="436.058318"/>
     <use style="fill:#2792cb;stroke:#2792cb;" x="949.733835" xlink:href="#mb17887a5e1" y="455.733899"/>
     <use style="fill:#2792cb;stroke:#2792cb;" x="954.832053" xlink:href="#mb17887a5e1" y="456.449375"/>
     <use style="fill:#2792cb;stroke:#2792cb;" x="970.126708" xlink:href="#mb17887a5e1" y="457.16485"/>
     <use style="fill:#2792cb;stroke:#2792cb;" x="975.224926" xlink:href="#mb17887a5e1" y="458.595802"/>
     <use style="fill:#2792cb;stroke:#2792cb;" x="980.323145" xlink:href="#mb17887a5e1" y="458.238064"/>
     <use style="fill:#2792cb;stroke:#2792cb;" x="985.421363" xlink:href="#mb17887a5e1" y="456.091637"/>
     <use style="fill:#2792cb;stroke:#2792cb;" x="990.519581" xlink:href="#mb17887a5e1" y="461.099966"/>
     <use style="fill:#2792cb;stroke:#2792cb;" x="1005.814237" xlink:href="#mb17887a5e1" y="461.099966"/>
     <use style="fill:#2792cb;stroke:#2792cb;" x="1010.912455" xlink:href="#mb17887a5e1" y="456.449375"/>
     <use style="fill:#2792cb;stroke:#2792cb;" x="1016.010673" xlink:href="#mb17887a5e1" y="448.93688"/>
     <use style="fill:#2792cb;stroke:#2792cb;" x="1021.108892" xlink:href="#mb17887a5e1" y="449.294618"/>
     <use style="fill:#2792cb;stroke:#2792cb;" x="1026.20711" xlink:href="#mb17887a5e1" y="441.782123"/>
     <use style="fill:#2792cb;stroke:#2792cb;" x="1041.501765" xlink:href="#mb17887a5e1" y="422.822018"/>
     <use style="fill:#2792cb;stroke:#2792cb;" x="1046.599983" xlink:href="#mb17887a5e1" y="414.951786"/>
     <use style="fill:#2792cb;stroke:#2792cb;" x="1051.698202" xlink:href="#mb17887a5e1" y="413.878572"/>
     <use style="fill:#2792cb;stroke:#2792cb;" x="1056.79642" xlink:href="#mb17887a5e1" y="407.081553"/>
     <use style="fill:#2792cb;stroke:#2792cb;" x="1061.894639" xlink:href="#mb17887a5e1" y="403.146437"/>
     <use style="fill:#2792cb;stroke:#2792cb;" x="1077.189294" xlink:href="#mb17887a5e1" y="397.422632"/>
     <use style="fill:#2792cb;stroke:#2792cb;" x="1082.287512" xlink:href="#mb17887a5e1" y="392.77204"/>
     <use style="fill:#2792cb;stroke:#2792cb;" x="1087.38573" xlink:href="#mb17887a5e1" y="390.983351"/>
     <use style="fill:#2792cb;stroke:#2792cb;" x="1092.483949" xlink:href="#mb17887a5e1" y="390.983351"/>
     <use style="fill:#2792cb;stroke:#2792cb;" x="1097.582167" xlink:href="#mb17887a5e1" y="387.76371"/>
     <use style="fill:#2792cb;stroke:#2792cb;" x="1112.876822" xlink:href="#mb17887a5e1" y="382.039905"/>
     <use style="fill:#2792cb;stroke:#2792cb;" x="1117.975041" xlink:href="#mb17887a5e1" y="389.194662"/>
     <use style="fill:#2792cb;stroke:#2792cb;" x="1123.073259" xlink:href="#mb17887a5e1" y="379.53574"/>
     <use style="fill:#2792cb;stroke:#2792cb;" x="1128.171477" xlink:href="#mb17887a5e1" y="382.755381"/>
    </g>
   </g>
   <g id="patch_3">
    <path d="M 62.89875 501.738984 
L 1178.89875 501.738984 
" style="fill:none;stroke:#000000;stroke-linecap:square;stroke-linejoin:miter;stroke-width:0.8;"/>
   </g>
   <g id="legend_1">
    <g id="line2d_38">
     <path d="M 1091.653438 25.237422 
L 1111.653438 25.237422 
" style="fill:none;stroke:#dbcd00;stroke-linecap:square;stroke-width:2;"/>
    </g>
    <g id="line2d_39">
     <g>
      <use style="fill:#dbcd00;stroke:#dbcd00;" x="1101.653438" xlink:href="#m0cd1319f9f" y="25.237422"/>
     </g>
    </g>
    <g id="text_23">
     <!-- Genesene -->
     <defs>
      <path d="M 59.515625 10.40625 
L 59.515625 29.984375 
L 43.40625 29.984375 
L 43.40625 38.09375 
L 69.28125 38.09375 
L 69.28125 6.78125 
Q 63.578125 2.734375 56.6875 0.65625 
Q 49.8125 -1.421875 42 -1.421875 
Q 24.90625 -1.421875 15.25 8.5625 
Q 5.609375 18.5625 5.609375 36.375 
Q 5.609375 54.25 15.25 64.234375 
Q 24.90625 74.21875 42 74.21875 
Q 49.125 74.21875 55.546875 72.453125 
Q 61.96875 70.703125 67.390625 67.28125 
L 67.390625 56.78125 
Q 61.921875 61.421875 55.765625 63.765625 
Q 49.609375 66.109375 42.828125 66.109375 
Q 29.4375 66.109375 22.71875 58.640625 
Q 16.015625 51.171875 16.015625 36.375 
Q 16.015625 21.625 22.71875 14.15625 
Q 29.4375 6.6875 42.828125 6.6875 
Q 48.046875 6.6875 52.140625 7.59375 
Q 56.25 8.5 59.515625 10.40625 
z
" id="DejaVuSans-71"/>
      <path d="M 44.28125 53.078125 
L 44.28125 44.578125 
Q 40.484375 46.53125 36.375 47.5 
Q 32.28125 48.484375 27.875 48.484375 
Q 21.1875 48.484375 17.84375 46.4375 
Q 14.5 44.390625 14.5 40.28125 
Q 14.5 37.15625 16.890625 35.375 
Q 19.28125 33.59375 26.515625 31.984375 
L 29.59375 31.296875 
Q 39.15625 29.25 43.1875 25.515625 
Q 47.21875 21.78125 47.21875 15.09375 
Q 47.21875 7.46875 41.1875 3.015625 
Q 35.15625 -1.421875 24.609375 -1.421875 
Q 20.21875 -1.421875 15.453125 -0.5625 
Q 10.6875 0.296875 5.421875 2 
L 5.421875 11.28125 
Q 10.40625 8.6875 15.234375 7.390625 
Q 20.0625 6.109375 24.8125 6.109375 
Q 31.15625 6.109375 34.5625 8.28125 
Q 37.984375 10.453125 37.984375 14.40625 
Q 37.984375 18.0625 35.515625 20.015625 
Q 33.0625 21.96875 24.703125 23.78125 
L 21.578125 24.515625 
Q 13.234375 26.265625 9.515625 29.90625 
Q 5.8125 33.546875 5.8125 39.890625 
Q 5.8125 47.609375 11.28125 51.796875 
Q 16.75 56 26.8125 56 
Q 31.78125 56 36.171875 55.265625 
Q 40.578125 54.546875 44.28125 53.078125 
z
" id="DejaVuSans-115"/>
     </defs>
     <g transform="translate(1119.653438 28.737422)scale(0.1 -0.1)">
      <use xlink:href="#DejaVuSans-71"/>
      <use x="77.490234" xlink:href="#DejaVuSans-101"/>
      <use x="139.013672" xlink:href="#DejaVuSans-110"/>
      <use x="202.392578" xlink:href="#DejaVuSans-101"/>
      <use x="263.916016" xlink:href="#DejaVuSans-115"/>
      <use x="316.015625" xlink:href="#DejaVuSans-101"/>
      <use x="377.539062" xlink:href="#DejaVuSans-110"/>
      <use x="440.917969" xlink:href="#DejaVuSans-101"/>
     </g>
    </g>
    <g id="line2d_40">
     <path d="M 1091.653438 39.915547 
L 1111.653438 39.915547 
" style="fill:none;stroke:#2792cb;stroke-linecap:square;stroke-width:2;"/>
    </g>
    <g id="line2d_41">
     <g>
      <use style="fill:#2792cb;stroke:#2792cb;" x="1101.653438" xlink:href="#mb17887a5e1" y="39.915547"/>
     </g>
    </g>
    <g id="text_24">
     <!-- Erkrankte -->
     <defs>
      <path d="M 9.8125 72.90625 
L 55.90625 72.90625 
L 55.90625 64.59375 
L 19.671875 64.59375 
L 19.671875 43.015625 
L 54.390625 43.015625 
L 54.390625 34.71875 
L 19.671875 34.71875 
L 19.671875 8.296875 
L 56.78125 8.296875 
L 56.78125 0 
L 9.8125 0 
z
" id="DejaVuSans-69"/>
      <path d="M 41.109375 46.296875 
Q 39.59375 47.171875 37.8125 47.578125 
Q 36.03125 48 33.890625 48 
Q 26.265625 48 22.1875 43.046875 
Q 18.109375 38.09375 18.109375 28.8125 
L 18.109375 0 
L 9.078125 0 
L 9.078125 54.6875 
L 18.109375 54.6875 
L 18.109375 46.1875 
Q 20.953125 51.171875 25.484375 53.578125 
Q 30.03125 56 36.53125 56 
Q 37.453125 56 38.578125 55.875 
Q 39.703125 55.765625 41.0625 55.515625 
z
" id="DejaVuSans-114"/>
      <path d="M 9.078125 75.984375 
L 18.109375 75.984375 
L 18.109375 31.109375 
L 44.921875 54.6875 
L 56.390625 54.6875 
L 27.390625 29.109375 
L 57.625 0 
L 45.90625 0 
L 18.109375 26.703125 
L 18.109375 0 
L 9.078125 0 
z
" id="DejaVuSans-107"/>
      <path d="M 18.3125 70.21875 
L 18.3125 54.6875 
L 36.8125 54.6875 
L 36.8125 47.703125 
L 18.3125 47.703125 
L 18.3125 18.015625 
Q 18.3125 11.328125 20.140625 9.421875 
Q 21.96875 7.515625 27.59375 7.515625 
L 36.8125 7.515625 
L 36.8125 0 
L 27.59375 0 
Q 17.1875 0 13.234375 3.875 
Q 9.28125 7.765625 9.28125 18.015625 
L 9.28125 47.703125 
L 2.6875 47.703125 
L 2.6875 54.6875 
L 9.28125 54.6875 
L 9.28125 70.21875 
z
" id="DejaVuSans-116"/>
     </defs>
     <g transform="translate(1119.653438 43.415547)scale(0.1 -0.1)">
      <use xlink:href="#DejaVuSans-69"/>
      <use x="63.183594" xlink:href="#DejaVuSans-114"/>
      <use x="104.296875" xlink:href="#DejaVuSans-107"/>
      <use x="162.207031" xlink:href="#DejaVuSans-114"/>
      <use x="203.320312" xlink:href="#DejaVuSans-97"/>
      <use x="264.599609" xlink:href="#DejaVuSans-110"/>
      <use x="327.978516" xlink:href="#DejaVuSans-107"/>
      <use x="385.888672" xlink:href="#DejaVuSans-116"/>
      <use x="425.097656" xlink:href="#DejaVuSans-101"/>
     </g>
    </g>
   </g>
  </g>
 </g>
 <defs>
  <clipPath id="pe8f2606e38">
   <rect height="489.6" width="1116" x="62.89875" y="12.138984"/>
  </clipPath>
 </defs>
</svg>
