<?xml version="1.0" encoding="utf-8" standalone="no"?>
<!DOCTYPE svg PUBLIC "-//W3C//DTD SVG 1.1//EN"
  "http://www.w3.org/Graphics/SVG/1.1/DTD/svg11.dtd">
<!-- Created with matplotlib (https://matplotlib.org/) -->
<svg height="562.985486pt" version="1.1" viewBox="0 0 1177.8275 562.985486" width="1177.8275pt" xmlns="http://www.w3.org/2000/svg" xmlns:xlink="http://www.w3.org/1999/xlink">
 <defs>
  <style type="text/css">
*{stroke-linecap:butt;stroke-linejoin:round;}
  </style>
 </defs>
 <g id="figure_1">
  <g id="patch_1">
   <path d="M 0 562.985486 
L 1177.8275 562.985486 
L 1177.8275 0 
L 0 0 
z
" style="fill:#ffffff;"/>
  </g>
  <g id="axes_1">
   <g id="patch_2">
    <path d="M 54.6275 500.114377 
L 1170.6275 500.114377 
L 1170.6275 10.514377 
L 54.6275 10.514377 
z
" style="fill:#ffffff;"/>
   </g>
   <g id="matplotlib.axis_1">
    <g id="xtick_1">
     <g id="line2d_1">
      <defs>
       <path d="M 0 0 
L 0 3.5 
" id="mb9f7c3937a" style="stroke:#000000;stroke-width:0.8;"/>
      </defs>
      <g>
       <use style="stroke:#000000;stroke-width:0.8;" x="132.487965" xlink:href="#mb9f7c3937a" y="500.114377"/>
      </g>
     </g>
     <g id="text_1">
      <!-- 2020-04-01 -->
      <defs>
       <path d="M 19.1875 8.296875 
L 53.609375 8.296875 
L 53.609375 0 
L 7.328125 0 
L 7.328125 8.296875 
Q 12.9375 14.109375 22.625 23.890625 
Q 32.328125 33.6875 34.8125 36.53125 
Q 39.546875 41.84375 41.421875 45.53125 
Q 43.3125 49.21875 43.3125 52.78125 
Q 43.3125 58.59375 39.234375 62.25 
Q 35.15625 65.921875 28.609375 65.921875 
Q 23.96875 65.921875 18.8125 64.3125 
Q 13.671875 62.703125 7.8125 59.421875 
L 7.8125 69.390625 
Q 13.765625 71.78125 18.9375 73 
Q 24.125 74.21875 28.421875 74.21875 
Q 39.75 74.21875 46.484375 68.546875 
Q 53.21875 62.890625 53.21875 53.421875 
Q 53.21875 48.921875 51.53125 44.890625 
Q 49.859375 40.875 45.40625 35.40625 
Q 44.1875 33.984375 37.640625 27.21875 
Q 31.109375 20.453125 19.1875 8.296875 
z
" id="DejaVuSans-50"/>
       <path d="M 31.78125 66.40625 
Q 24.171875 66.40625 20.328125 58.90625 
Q 16.5 51.421875 16.5 36.375 
Q 16.5 21.390625 20.328125 13.890625 
Q 24.171875 6.390625 31.78125 6.390625 
Q 39.453125 6.390625 43.28125 13.890625 
Q 47.125 21.390625 47.125 36.375 
Q 47.125 51.421875 43.28125 58.90625 
Q 39.453125 66.40625 31.78125 66.40625 
z
M 31.78125 74.21875 
Q 44.046875 74.21875 50.515625 64.515625 
Q 56.984375 54.828125 56.984375 36.375 
Q 56.984375 17.96875 50.515625 8.265625 
Q 44.046875 -1.421875 31.78125 -1.421875 
Q 19.53125 -1.421875 13.0625 8.265625 
Q 6.59375 17.96875 6.59375 36.375 
Q 6.59375 54.828125 13.0625 64.515625 
Q 19.53125 74.21875 31.78125 74.21875 
z
" id="DejaVuSans-48"/>
       <path d="M 4.890625 31.390625 
L 31.203125 31.390625 
L 31.203125 23.390625 
L 4.890625 23.390625 
z
" id="DejaVuSans-45"/>
       <path d="M 37.796875 64.3125 
L 12.890625 25.390625 
L 37.796875 25.390625 
z
M 35.203125 72.90625 
L 47.609375 72.90625 
L 47.609375 25.390625 
L 58.015625 25.390625 
L 58.015625 17.1875 
L 47.609375 17.1875 
L 47.609375 0 
L 37.796875 0 
L 37.796875 17.1875 
L 4.890625 17.1875 
L 4.890625 26.703125 
z
" id="DejaVuSans-52"/>
       <path d="M 12.40625 8.296875 
L 28.515625 8.296875 
L 28.515625 63.921875 
L 10.984375 60.40625 
L 10.984375 69.390625 
L 28.421875 72.90625 
L 38.28125 72.90625 
L 38.28125 8.296875 
L 54.390625 8.296875 
L 54.390625 0 
L 12.40625 0 
z
" id="DejaVuSans-49"/>
      </defs>
      <g transform="translate(65.707678 553.444105)rotate(-30)scale(0.13 -0.13)">
       <use xlink:href="#DejaVuSans-50"/>
       <use x="63.623047" xlink:href="#DejaVuSans-48"/>
       <use x="127.246094" xlink:href="#DejaVuSans-50"/>
       <use x="190.869141" xlink:href="#DejaVuSans-48"/>
       <use x="254.492188" xlink:href="#DejaVuSans-45"/>
       <use x="290.576172" xlink:href="#DejaVuSans-48"/>
       <use x="354.199219" xlink:href="#DejaVuSans-52"/>
       <use x="417.822266" xlink:href="#DejaVuSans-45"/>
       <use x="453.90625" xlink:href="#DejaVuSans-48"/>
       <use x="517.529297" xlink:href="#DejaVuSans-49"/>
      </g>
     </g>
    </g>
    <g id="xtick_2">
     <g id="line2d_2">
      <g>
       <use style="stroke:#000000;stroke-width:0.8;" x="253.604244" xlink:href="#mb9f7c3937a" y="500.114377"/>
      </g>
     </g>
     <g id="text_2">
      <!-- 2020-04-15 -->
      <defs>
       <path d="M 10.796875 72.90625 
L 49.515625 72.90625 
L 49.515625 64.59375 
L 19.828125 64.59375 
L 19.828125 46.734375 
Q 21.96875 47.46875 24.109375 47.828125 
Q 26.265625 48.1875 28.421875 48.1875 
Q 40.625 48.1875 47.75 41.5 
Q 54.890625 34.8125 54.890625 23.390625 
Q 54.890625 11.625 47.5625 5.09375 
Q 40.234375 -1.421875 26.90625 -1.421875 
Q 22.3125 -1.421875 17.546875 -0.640625 
Q 12.796875 0.140625 7.71875 1.703125 
L 7.71875 11.625 
Q 12.109375 9.234375 16.796875 8.0625 
Q 21.484375 6.890625 26.703125 6.890625 
Q 35.15625 6.890625 40.078125 11.328125 
Q 45.015625 15.765625 45.015625 23.390625 
Q 45.015625 31 40.078125 35.4375 
Q 35.15625 39.890625 26.703125 39.890625 
Q 22.75 39.890625 18.8125 39.015625 
Q 14.890625 38.140625 10.796875 36.28125 
z
" id="DejaVuSans-53"/>
      </defs>
      <g transform="translate(186.823957 553.444105)rotate(-30)scale(0.13 -0.13)">
       <use xlink:href="#DejaVuSans-50"/>
       <use x="63.623047" xlink:href="#DejaVuSans-48"/>
       <use x="127.246094" xlink:href="#DejaVuSans-50"/>
       <use x="190.869141" xlink:href="#DejaVuSans-48"/>
       <use x="254.492188" xlink:href="#DejaVuSans-45"/>
       <use x="290.576172" xlink:href="#DejaVuSans-48"/>
       <use x="354.199219" xlink:href="#DejaVuSans-52"/>
       <use x="417.822266" xlink:href="#DejaVuSans-45"/>
       <use x="453.90625" xlink:href="#DejaVuSans-49"/>
       <use x="517.529297" xlink:href="#DejaVuSans-53"/>
      </g>
     </g>
    </g>
    <g id="xtick_3">
     <g id="line2d_3">
      <g>
       <use style="stroke:#000000;stroke-width:0.8;" x="392.022849" xlink:href="#mb9f7c3937a" y="500.114377"/>
      </g>
     </g>
     <g id="text_3">
      <!-- 2020-05-01 -->
      <g transform="translate(325.242562 553.444105)rotate(-30)scale(0.13 -0.13)">
       <use xlink:href="#DejaVuSans-50"/>
       <use x="63.623047" xlink:href="#DejaVuSans-48"/>
       <use x="127.246094" xlink:href="#DejaVuSans-50"/>
       <use x="190.869141" xlink:href="#DejaVuSans-48"/>
       <use x="254.492188" xlink:href="#DejaVuSans-45"/>
       <use x="290.576172" xlink:href="#DejaVuSans-48"/>
       <use x="354.199219" xlink:href="#DejaVuSans-53"/>
       <use x="417.822266" xlink:href="#DejaVuSans-45"/>
       <use x="453.90625" xlink:href="#DejaVuSans-48"/>
       <use x="517.529297" xlink:href="#DejaVuSans-49"/>
      </g>
     </g>
    </g>
    <g id="xtick_4">
     <g id="line2d_4">
      <g>
       <use style="stroke:#000000;stroke-width:0.8;" x="513.139128" xlink:href="#mb9f7c3937a" y="500.114377"/>
      </g>
     </g>
     <g id="text_4">
      <!-- 2020-05-15 -->
      <g transform="translate(446.358841 553.444105)rotate(-30)scale(0.13 -0.13)">
       <use xlink:href="#DejaVuSans-50"/>
       <use x="63.623047" xlink:href="#DejaVuSans-48"/>
       <use x="127.246094" xlink:href="#DejaVuSans-50"/>
       <use x="190.869141" xlink:href="#DejaVuSans-48"/>
       <use x="254.492188" xlink:href="#DejaVuSans-45"/>
       <use x="290.576172" xlink:href="#DejaVuSans-48"/>
       <use x="354.199219" xlink:href="#DejaVuSans-53"/>
       <use x="417.822266" xlink:href="#DejaVuSans-45"/>
       <use x="453.90625" xlink:href="#DejaVuSans-49"/>
       <use x="517.529297" xlink:href="#DejaVuSans-53"/>
      </g>
     </g>
    </g>
    <g id="xtick_5">
     <g id="line2d_5">
      <g>
       <use style="stroke:#000000;stroke-width:0.8;" x="660.208895" xlink:href="#mb9f7c3937a" y="500.114377"/>
      </g>
     </g>
     <g id="text_5">
      <!-- 2020-06-01 -->
      <defs>
       <path d="M 33.015625 40.375 
Q 26.375 40.375 22.484375 35.828125 
Q 18.609375 31.296875 18.609375 23.390625 
Q 18.609375 15.53125 22.484375 10.953125 
Q 26.375 6.390625 33.015625 6.390625 
Q 39.65625 6.390625 43.53125 10.953125 
Q 47.40625 15.53125 47.40625 23.390625 
Q 47.40625 31.296875 43.53125 35.828125 
Q 39.65625 40.375 33.015625 40.375 
z
M 52.59375 71.296875 
L 52.59375 62.3125 
Q 48.875 64.0625 45.09375 64.984375 
Q 41.3125 65.921875 37.59375 65.921875 
Q 27.828125 65.921875 22.671875 59.328125 
Q 17.53125 52.734375 16.796875 39.40625 
Q 19.671875 43.65625 24.015625 45.921875 
Q 28.375 48.1875 33.59375 48.1875 
Q 44.578125 48.1875 50.953125 41.515625 
Q 57.328125 34.859375 57.328125 23.390625 
Q 57.328125 12.15625 50.6875 5.359375 
Q 44.046875 -1.421875 33.015625 -1.421875 
Q 20.359375 -1.421875 13.671875 8.265625 
Q 6.984375 17.96875 6.984375 36.375 
Q 6.984375 53.65625 15.1875 63.9375 
Q 23.390625 74.21875 37.203125 74.21875 
Q 40.921875 74.21875 44.703125 73.484375 
Q 48.484375 72.75 52.59375 71.296875 
z
" id="DejaVuSans-54"/>
      </defs>
      <g transform="translate(593.428609 553.444105)rotate(-30)scale(0.13 -0.13)">
       <use xlink:href="#DejaVuSans-50"/>
       <use x="63.623047" xlink:href="#DejaVuSans-48"/>
       <use x="127.246094" xlink:href="#DejaVuSans-50"/>
       <use x="190.869141" xlink:href="#DejaVuSans-48"/>
       <use x="254.492188" xlink:href="#DejaVuSans-45"/>
       <use x="290.576172" xlink:href="#DejaVuSans-48"/>
       <use x="354.199219" xlink:href="#DejaVuSans-54"/>
       <use x="417.822266" xlink:href="#DejaVuSans-45"/>
       <use x="453.90625" xlink:href="#DejaVuSans-48"/>
       <use x="517.529297" xlink:href="#DejaVuSans-49"/>
      </g>
     </g>
    </g>
    <g id="xtick_6">
     <g id="line2d_6">
      <g>
       <use style="stroke:#000000;stroke-width:0.8;" x="781.325174" xlink:href="#mb9f7c3937a" y="500.114377"/>
      </g>
     </g>
     <g id="text_6">
      <!-- 2020-06-15 -->
      <g transform="translate(714.544888 553.444105)rotate(-30)scale(0.13 -0.13)">
       <use xlink:href="#DejaVuSans-50"/>
       <use x="63.623047" xlink:href="#DejaVuSans-48"/>
       <use x="127.246094" xlink:href="#DejaVuSans-50"/>
       <use x="190.869141" xlink:href="#DejaVuSans-48"/>
       <use x="254.492188" xlink:href="#DejaVuSans-45"/>
       <use x="290.576172" xlink:href="#DejaVuSans-48"/>
       <use x="354.199219" xlink:href="#DejaVuSans-54"/>
       <use x="417.822266" xlink:href="#DejaVuSans-45"/>
       <use x="453.90625" xlink:href="#DejaVuSans-49"/>
       <use x="517.529297" xlink:href="#DejaVuSans-53"/>
      </g>
     </g>
    </g>
    <g id="xtick_7">
     <g id="line2d_7">
      <g>
       <use style="stroke:#000000;stroke-width:0.8;" x="919.743779" xlink:href="#mb9f7c3937a" y="500.114377"/>
      </g>
     </g>
     <g id="text_7">
      <!-- 2020-07-01 -->
      <defs>
       <path d="M 8.203125 72.90625 
L 55.078125 72.90625 
L 55.078125 68.703125 
L 28.609375 0 
L 18.3125 0 
L 43.21875 64.59375 
L 8.203125 64.59375 
z
" id="DejaVuSans-55"/>
      </defs>
      <g transform="translate(852.963492 553.444105)rotate(-30)scale(0.13 -0.13)">
       <use xlink:href="#DejaVuSans-50"/>
       <use x="63.623047" xlink:href="#DejaVuSans-48"/>
       <use x="127.246094" xlink:href="#DejaVuSans-50"/>
       <use x="190.869141" xlink:href="#DejaVuSans-48"/>
       <use x="254.492188" xlink:href="#DejaVuSans-45"/>
       <use x="290.576172" xlink:href="#DejaVuSans-48"/>
       <use x="354.199219" xlink:href="#DejaVuSans-55"/>
       <use x="417.822266" xlink:href="#DejaVuSans-45"/>
       <use x="453.90625" xlink:href="#DejaVuSans-48"/>
       <use x="517.529297" xlink:href="#DejaVuSans-49"/>
      </g>
     </g>
    </g>
    <g id="xtick_8">
     <g id="line2d_8">
      <g>
       <use style="stroke:#000000;stroke-width:0.8;" x="1040.860058" xlink:href="#mb9f7c3937a" y="500.114377"/>
      </g>
     </g>
     <g id="text_8">
      <!-- 2020-07-15 -->
      <g transform="translate(974.079771 553.444105)rotate(-30)scale(0.13 -0.13)">
       <use xlink:href="#DejaVuSans-50"/>
       <use x="63.623047" xlink:href="#DejaVuSans-48"/>
       <use x="127.246094" xlink:href="#DejaVuSans-50"/>
       <use x="190.869141" xlink:href="#DejaVuSans-48"/>
       <use x="254.492188" xlink:href="#DejaVuSans-45"/>
       <use x="290.576172" xlink:href="#DejaVuSans-48"/>
       <use x="354.199219" xlink:href="#DejaVuSans-55"/>
       <use x="417.822266" xlink:href="#DejaVuSans-45"/>
       <use x="453.90625" xlink:href="#DejaVuSans-49"/>
       <use x="517.529297" xlink:href="#DejaVuSans-53"/>
      </g>
     </g>
    </g>
   </g>
   <g id="matplotlib.axis_2">
    <g id="ytick_1">
     <g id="line2d_9">
      <path clip-path="url(#p7132e9b296)" d="M 54.6275 476.312586 
L 1170.6275 476.312586 
" style="fill:none;stroke:#b0b0b0;stroke-linecap:square;stroke-width:0.8;"/>
     </g>
     <g id="line2d_10">
      <defs>
       <path d="M 0 0 
L -3.5 0 
" id="m758bde6e7d" style="stroke:#000000;stroke-width:0.8;"/>
      </defs>
      <g>
       <use style="stroke:#000000;stroke-width:0.8;" x="54.6275" xlink:href="#m758bde6e7d" y="476.312586"/>
      </g>
     </g>
     <g id="text_9">
      <!-- 0 -->
      <g transform="translate(39.35625 481.25157)scale(0.13 -0.13)">
       <use xlink:href="#DejaVuSans-48"/>
      </g>
     </g>
    </g>
    <g id="ytick_2">
     <g id="line2d_11">
      <path clip-path="url(#p7132e9b296)" d="M 54.6275 424.737741 
L 1170.6275 424.737741 
" style="fill:none;stroke:#b0b0b0;stroke-linecap:square;stroke-width:0.8;"/>
     </g>
     <g id="line2d_12">
      <g>
       <use style="stroke:#000000;stroke-width:0.8;" x="54.6275" xlink:href="#m758bde6e7d" y="424.737741"/>
      </g>
     </g>
     <g id="text_10">
      <!-- 100 -->
      <g transform="translate(22.81375 429.676726)scale(0.13 -0.13)">
       <use xlink:href="#DejaVuSans-49"/>
       <use x="63.623047" xlink:href="#DejaVuSans-48"/>
       <use x="127.246094" xlink:href="#DejaVuSans-48"/>
      </g>
     </g>
    </g>
    <g id="ytick_3">
     <g id="line2d_13">
      <path clip-path="url(#p7132e9b296)" d="M 54.6275 373.162897 
L 1170.6275 373.162897 
" style="fill:none;stroke:#b0b0b0;stroke-linecap:square;stroke-width:0.8;"/>
     </g>
     <g id="line2d_14">
      <g>
       <use style="stroke:#000000;stroke-width:0.8;" x="54.6275" xlink:href="#m758bde6e7d" y="373.162897"/>
      </g>
     </g>
     <g id="text_11">
      <!-- 200 -->
      <g transform="translate(22.81375 378.101881)scale(0.13 -0.13)">
       <use xlink:href="#DejaVuSans-50"/>
       <use x="63.623047" xlink:href="#DejaVuSans-48"/>
       <use x="127.246094" xlink:href="#DejaVuSans-48"/>
      </g>
     </g>
    </g>
    <g id="ytick_4">
     <g id="line2d_15">
      <path clip-path="url(#p7132e9b296)" d="M 54.6275 321.588052 
L 1170.6275 321.588052 
" style="fill:none;stroke:#b0b0b0;stroke-linecap:square;stroke-width:0.8;"/>
     </g>
     <g id="line2d_16">
      <g>
       <use style="stroke:#000000;stroke-width:0.8;" x="54.6275" xlink:href="#m758bde6e7d" y="321.588052"/>
      </g>
     </g>
     <g id="text_12">
      <!-- 300 -->
      <defs>
       <path d="M 40.578125 39.3125 
Q 47.65625 37.796875 51.625 33 
Q 55.609375 28.21875 55.609375 21.1875 
Q 55.609375 10.40625 48.1875 4.484375 
Q 40.765625 -1.421875 27.09375 -1.421875 
Q 22.515625 -1.421875 17.65625 -0.515625 
Q 12.796875 0.390625 7.625 2.203125 
L 7.625 11.71875 
Q 11.71875 9.328125 16.59375 8.109375 
Q 21.484375 6.890625 26.8125 6.890625 
Q 36.078125 6.890625 40.9375 10.546875 
Q 45.796875 14.203125 45.796875 21.1875 
Q 45.796875 27.640625 41.28125 31.265625 
Q 36.765625 34.90625 28.71875 34.90625 
L 20.21875 34.90625 
L 20.21875 43.015625 
L 29.109375 43.015625 
Q 36.375 43.015625 40.234375 45.921875 
Q 44.09375 48.828125 44.09375 54.296875 
Q 44.09375 59.90625 40.109375 62.90625 
Q 36.140625 65.921875 28.71875 65.921875 
Q 24.65625 65.921875 20.015625 65.03125 
Q 15.375 64.15625 9.8125 62.3125 
L 9.8125 71.09375 
Q 15.4375 72.65625 20.34375 73.4375 
Q 25.25 74.21875 29.59375 74.21875 
Q 40.828125 74.21875 47.359375 69.109375 
Q 53.90625 64.015625 53.90625 55.328125 
Q 53.90625 49.265625 50.4375 45.09375 
Q 46.96875 40.921875 40.578125 39.3125 
z
" id="DejaVuSans-51"/>
      </defs>
      <g transform="translate(22.81375 326.527036)scale(0.13 -0.13)">
       <use xlink:href="#DejaVuSans-51"/>
       <use x="63.623047" xlink:href="#DejaVuSans-48"/>
       <use x="127.246094" xlink:href="#DejaVuSans-48"/>
      </g>
     </g>
    </g>
    <g id="ytick_5">
     <g id="line2d_17">
      <path clip-path="url(#p7132e9b296)" d="M 54.6275 270.013207 
L 1170.6275 270.013207 
" style="fill:none;stroke:#b0b0b0;stroke-linecap:square;stroke-width:0.8;"/>
     </g>
     <g id="line2d_18">
      <g>
       <use style="stroke:#000000;stroke-width:0.8;" x="54.6275" xlink:href="#m758bde6e7d" y="270.013207"/>
      </g>
     </g>
     <g id="text_13">
      <!-- 400 -->
      <g transform="translate(22.81375 274.952192)scale(0.13 -0.13)">
       <use xlink:href="#DejaVuSans-52"/>
       <use x="63.623047" xlink:href="#DejaVuSans-48"/>
       <use x="127.246094" xlink:href="#DejaVuSans-48"/>
      </g>
     </g>
    </g>
    <g id="ytick_6">
     <g id="line2d_19">
      <path clip-path="url(#p7132e9b296)" d="M 54.6275 218.438363 
L 1170.6275 218.438363 
" style="fill:none;stroke:#b0b0b0;stroke-linecap:square;stroke-width:0.8;"/>
     </g>
     <g id="line2d_20">
      <g>
       <use style="stroke:#000000;stroke-width:0.8;" x="54.6275" xlink:href="#m758bde6e7d" y="218.438363"/>
      </g>
     </g>
     <g id="text_14">
      <!-- 500 -->
      <g transform="translate(22.81375 223.377347)scale(0.13 -0.13)">
       <use xlink:href="#DejaVuSans-53"/>
       <use x="63.623047" xlink:href="#DejaVuSans-48"/>
       <use x="127.246094" xlink:href="#DejaVuSans-48"/>
      </g>
     </g>
    </g>
    <g id="ytick_7">
     <g id="line2d_21">
      <path clip-path="url(#p7132e9b296)" d="M 54.6275 166.863518 
L 1170.6275 166.863518 
" style="fill:none;stroke:#b0b0b0;stroke-linecap:square;stroke-width:0.8;"/>
     </g>
     <g id="line2d_22">
      <g>
       <use style="stroke:#000000;stroke-width:0.8;" x="54.6275" xlink:href="#m758bde6e7d" y="166.863518"/>
      </g>
     </g>
     <g id="text_15">
      <!-- 600 -->
      <g transform="translate(22.81375 171.802503)scale(0.13 -0.13)">
       <use xlink:href="#DejaVuSans-54"/>
       <use x="63.623047" xlink:href="#DejaVuSans-48"/>
       <use x="127.246094" xlink:href="#DejaVuSans-48"/>
      </g>
     </g>
    </g>
    <g id="ytick_8">
     <g id="line2d_23">
      <path clip-path="url(#p7132e9b296)" d="M 54.6275 115.288674 
L 1170.6275 115.288674 
" style="fill:none;stroke:#b0b0b0;stroke-linecap:square;stroke-width:0.8;"/>
     </g>
     <g id="line2d_24">
      <g>
       <use style="stroke:#000000;stroke-width:0.8;" x="54.6275" xlink:href="#m758bde6e7d" y="115.288674"/>
      </g>
     </g>
     <g id="text_16">
      <!-- 700 -->
      <g transform="translate(22.81375 120.227658)scale(0.13 -0.13)">
       <use xlink:href="#DejaVuSans-55"/>
       <use x="63.623047" xlink:href="#DejaVuSans-48"/>
       <use x="127.246094" xlink:href="#DejaVuSans-48"/>
      </g>
     </g>
    </g>
    <g id="ytick_9">
     <g id="line2d_25">
      <path clip-path="url(#p7132e9b296)" d="M 54.6275 63.713829 
L 1170.6275 63.713829 
" style="fill:none;stroke:#b0b0b0;stroke-linecap:square;stroke-width:0.8;"/>
     </g>
     <g id="line2d_26">
      <g>
       <use style="stroke:#000000;stroke-width:0.8;" x="54.6275" xlink:href="#m758bde6e7d" y="63.713829"/>
      </g>
     </g>
     <g id="text_17">
      <!-- 800 -->
      <defs>
       <path d="M 31.78125 34.625 
Q 24.75 34.625 20.71875 30.859375 
Q 16.703125 27.09375 16.703125 20.515625 
Q 16.703125 13.921875 20.71875 10.15625 
Q 24.75 6.390625 31.78125 6.390625 
Q 38.8125 6.390625 42.859375 10.171875 
Q 46.921875 13.96875 46.921875 20.515625 
Q 46.921875 27.09375 42.890625 30.859375 
Q 38.875 34.625 31.78125 34.625 
z
M 21.921875 38.8125 
Q 15.578125 40.375 12.03125 44.71875 
Q 8.5 49.078125 8.5 55.328125 
Q 8.5 64.0625 14.71875 69.140625 
Q 20.953125 74.21875 31.78125 74.21875 
Q 42.671875 74.21875 48.875 69.140625 
Q 55.078125 64.0625 55.078125 55.328125 
Q 55.078125 49.078125 51.53125 44.71875 
Q 48 40.375 41.703125 38.8125 
Q 48.828125 37.15625 52.796875 32.3125 
Q 56.78125 27.484375 56.78125 20.515625 
Q 56.78125 9.90625 50.3125 4.234375 
Q 43.84375 -1.421875 31.78125 -1.421875 
Q 19.734375 -1.421875 13.25 4.234375 
Q 6.78125 9.90625 6.78125 20.515625 
Q 6.78125 27.484375 10.78125 32.3125 
Q 14.796875 37.15625 21.921875 38.8125 
z
M 18.3125 54.390625 
Q 18.3125 48.734375 21.84375 45.5625 
Q 25.390625 42.390625 31.78125 42.390625 
Q 38.140625 42.390625 41.71875 45.5625 
Q 45.3125 48.734375 45.3125 54.390625 
Q 45.3125 60.0625 41.71875 63.234375 
Q 38.140625 66.40625 31.78125 66.40625 
Q 25.390625 66.40625 21.84375 63.234375 
Q 18.3125 60.0625 18.3125 54.390625 
z
" id="DejaVuSans-56"/>
      </defs>
      <g transform="translate(22.81375 68.652813)scale(0.13 -0.13)">
       <use xlink:href="#DejaVuSans-56"/>
       <use x="63.623047" xlink:href="#DejaVuSans-48"/>
       <use x="127.246094" xlink:href="#DejaVuSans-48"/>
      </g>
     </g>
    </g>
    <g id="ytick_10">
     <g id="line2d_27">
      <path clip-path="url(#p7132e9b296)" d="M 54.6275 12.138984 
L 1170.6275 12.138984 
" style="fill:none;stroke:#b0b0b0;stroke-linecap:square;stroke-width:0.8;"/>
     </g>
     <g id="line2d_28">
      <g>
       <use style="stroke:#000000;stroke-width:0.8;" x="54.6275" xlink:href="#m758bde6e7d" y="12.138984"/>
      </g>
     </g>
     <g id="text_18">
      <!-- 900 -->
      <defs>
       <path d="M 10.984375 1.515625 
L 10.984375 10.5 
Q 14.703125 8.734375 18.5 7.8125 
Q 22.3125 6.890625 25.984375 6.890625 
Q 35.75 6.890625 40.890625 13.453125 
Q 46.046875 20.015625 46.78125 33.40625 
Q 43.953125 29.203125 39.59375 26.953125 
Q 35.25 24.703125 29.984375 24.703125 
Q 19.046875 24.703125 12.671875 31.3125 
Q 6.296875 37.9375 6.296875 49.421875 
Q 6.296875 60.640625 12.9375 67.421875 
Q 19.578125 74.21875 30.609375 74.21875 
Q 43.265625 74.21875 49.921875 64.515625 
Q 56.59375 54.828125 56.59375 36.375 
Q 56.59375 19.140625 48.40625 8.859375 
Q 40.234375 -1.421875 26.421875 -1.421875 
Q 22.703125 -1.421875 18.890625 -0.6875 
Q 15.09375 0.046875 10.984375 1.515625 
z
M 30.609375 32.421875 
Q 37.25 32.421875 41.125 36.953125 
Q 45.015625 41.5 45.015625 49.421875 
Q 45.015625 57.28125 41.125 61.84375 
Q 37.25 66.40625 30.609375 66.40625 
Q 23.96875 66.40625 20.09375 61.84375 
Q 16.21875 57.28125 16.21875 49.421875 
Q 16.21875 41.5 20.09375 36.953125 
Q 23.96875 32.421875 30.609375 32.421875 
z
" id="DejaVuSans-57"/>
      </defs>
      <g transform="translate(22.81375 17.077969)scale(0.13 -0.13)">
       <use xlink:href="#DejaVuSans-57"/>
       <use x="63.623047" xlink:href="#DejaVuSans-48"/>
       <use x="127.246094" xlink:href="#DejaVuSans-48"/>
      </g>
     </g>
    </g>
    <g id="text_19">
     <!-- Anzahl von Fällen -->
     <defs>
      <path d="M 34.1875 63.1875 
L 20.796875 26.90625 
L 47.609375 26.90625 
z
M 28.609375 72.90625 
L 39.796875 72.90625 
L 67.578125 0 
L 57.328125 0 
L 50.6875 18.703125 
L 17.828125 18.703125 
L 11.1875 0 
L 0.78125 0 
z
" id="DejaVuSans-65"/>
      <path d="M 54.890625 33.015625 
L 54.890625 0 
L 45.90625 0 
L 45.90625 32.71875 
Q 45.90625 40.484375 42.875 44.328125 
Q 39.84375 48.1875 33.796875 48.1875 
Q 26.515625 48.1875 22.3125 43.546875 
Q 18.109375 38.921875 18.109375 30.90625 
L 18.109375 0 
L 9.078125 0 
L 9.078125 54.6875 
L 18.109375 54.6875 
L 18.109375 46.1875 
Q 21.34375 51.125 25.703125 53.5625 
Q 30.078125 56 35.796875 56 
Q 45.21875 56 50.046875 50.171875 
Q 54.890625 44.34375 54.890625 33.015625 
z
" id="DejaVuSans-110"/>
      <path d="M 5.515625 54.6875 
L 48.1875 54.6875 
L 48.1875 46.484375 
L 14.40625 7.171875 
L 48.1875 7.171875 
L 48.1875 0 
L 4.296875 0 
L 4.296875 8.203125 
L 38.09375 47.515625 
L 5.515625 47.515625 
z
" id="DejaVuSans-122"/>
      <path d="M 34.28125 27.484375 
Q 23.390625 27.484375 19.1875 25 
Q 14.984375 22.515625 14.984375 16.5 
Q 14.984375 11.71875 18.140625 8.90625 
Q 21.296875 6.109375 26.703125 6.109375 
Q 34.1875 6.109375 38.703125 11.40625 
Q 43.21875 16.703125 43.21875 25.484375 
L 43.21875 27.484375 
z
M 52.203125 31.203125 
L 52.203125 0 
L 43.21875 0 
L 43.21875 8.296875 
Q 40.140625 3.328125 35.546875 0.953125 
Q 30.953125 -1.421875 24.3125 -1.421875 
Q 15.921875 -1.421875 10.953125 3.296875 
Q 6 8.015625 6 15.921875 
Q 6 25.140625 12.171875 29.828125 
Q 18.359375 34.515625 30.609375 34.515625 
L 43.21875 34.515625 
L 43.21875 35.40625 
Q 43.21875 41.609375 39.140625 45 
Q 35.0625 48.390625 27.6875 48.390625 
Q 23 48.390625 18.546875 47.265625 
Q 14.109375 46.140625 10.015625 43.890625 
L 10.015625 52.203125 
Q 14.9375 54.109375 19.578125 55.046875 
Q 24.21875 56 28.609375 56 
Q 40.484375 56 46.34375 49.84375 
Q 52.203125 43.703125 52.203125 31.203125 
z
" id="DejaVuSans-97"/>
      <path d="M 54.890625 33.015625 
L 54.890625 0 
L 45.90625 0 
L 45.90625 32.71875 
Q 45.90625 40.484375 42.875 44.328125 
Q 39.84375 48.1875 33.796875 48.1875 
Q 26.515625 48.1875 22.3125 43.546875 
Q 18.109375 38.921875 18.109375 30.90625 
L 18.109375 0 
L 9.078125 0 
L 9.078125 75.984375 
L 18.109375 75.984375 
L 18.109375 46.1875 
Q 21.34375 51.125 25.703125 53.5625 
Q 30.078125 56 35.796875 56 
Q 45.21875 56 50.046875 50.171875 
Q 54.890625 44.34375 54.890625 33.015625 
z
" id="DejaVuSans-104"/>
      <path d="M 9.421875 75.984375 
L 18.40625 75.984375 
L 18.40625 0 
L 9.421875 0 
z
" id="DejaVuSans-108"/>
      <path id="DejaVuSans-32"/>
      <path d="M 2.984375 54.6875 
L 12.5 54.6875 
L 29.59375 8.796875 
L 46.6875 54.6875 
L 56.203125 54.6875 
L 35.6875 0 
L 23.484375 0 
z
" id="DejaVuSans-118"/>
      <path d="M 30.609375 48.390625 
Q 23.390625 48.390625 19.1875 42.75 
Q 14.984375 37.109375 14.984375 27.296875 
Q 14.984375 17.484375 19.15625 11.84375 
Q 23.34375 6.203125 30.609375 6.203125 
Q 37.796875 6.203125 41.984375 11.859375 
Q 46.1875 17.53125 46.1875 27.296875 
Q 46.1875 37.015625 41.984375 42.703125 
Q 37.796875 48.390625 30.609375 48.390625 
z
M 30.609375 56 
Q 42.328125 56 49.015625 48.375 
Q 55.71875 40.765625 55.71875 27.296875 
Q 55.71875 13.875 49.015625 6.21875 
Q 42.328125 -1.421875 30.609375 -1.421875 
Q 18.84375 -1.421875 12.171875 6.21875 
Q 5.515625 13.875 5.515625 27.296875 
Q 5.515625 40.765625 12.171875 48.375 
Q 18.84375 56 30.609375 56 
z
" id="DejaVuSans-111"/>
      <path d="M 9.8125 72.90625 
L 51.703125 72.90625 
L 51.703125 64.59375 
L 19.671875 64.59375 
L 19.671875 43.109375 
L 48.578125 43.109375 
L 48.578125 34.8125 
L 19.671875 34.8125 
L 19.671875 0 
L 9.8125 0 
z
" id="DejaVuSans-70"/>
      <path d="M 34.28125 27.484375 
Q 23.390625 27.484375 19.1875 25 
Q 14.984375 22.515625 14.984375 16.5 
Q 14.984375 11.71875 18.140625 8.90625 
Q 21.296875 6.109375 26.703125 6.109375 
Q 34.1875 6.109375 38.703125 11.40625 
Q 43.21875 16.703125 43.21875 25.484375 
L 43.21875 27.484375 
z
M 52.203125 31.203125 
L 52.203125 0 
L 43.21875 0 
L 43.21875 8.296875 
Q 40.140625 3.328125 35.546875 0.953125 
Q 30.953125 -1.421875 24.3125 -1.421875 
Q 15.921875 -1.421875 10.953125 3.296875 
Q 6 8.015625 6 15.921875 
Q 6 25.140625 12.171875 29.828125 
Q 18.359375 34.515625 30.609375 34.515625 
L 43.21875 34.515625 
L 43.21875 35.40625 
Q 43.21875 41.609375 39.140625 45 
Q 35.0625 48.390625 27.6875 48.390625 
Q 23 48.390625 18.546875 47.265625 
Q 14.109375 46.140625 10.015625 43.890625 
L 10.015625 52.203125 
Q 14.9375 54.109375 19.578125 55.046875 
Q 24.21875 56 28.609375 56 
Q 40.484375 56 46.34375 49.84375 
Q 52.203125 43.703125 52.203125 31.203125 
z
M 33.59375 75.78125 
L 43.5 75.78125 
L 43.5 65.921875 
L 33.59375 65.921875 
z
M 14.5 75.78125 
L 24.40625 75.78125 
L 24.40625 65.921875 
L 14.5 65.921875 
z
" id="DejaVuSans-228"/>
      <path d="M 56.203125 29.59375 
L 56.203125 25.203125 
L 14.890625 25.203125 
Q 15.484375 15.921875 20.484375 11.0625 
Q 25.484375 6.203125 34.421875 6.203125 
Q 39.59375 6.203125 44.453125 7.46875 
Q 49.3125 8.734375 54.109375 11.28125 
L 54.109375 2.78125 
Q 49.265625 0.734375 44.1875 -0.34375 
Q 39.109375 -1.421875 33.890625 -1.421875 
Q 20.796875 -1.421875 13.15625 6.1875 
Q 5.515625 13.8125 5.515625 26.8125 
Q 5.515625 40.234375 12.765625 48.109375 
Q 20.015625 56 32.328125 56 
Q 43.359375 56 49.78125 48.890625 
Q 56.203125 41.796875 56.203125 29.59375 
z
M 47.21875 32.234375 
Q 47.125 39.59375 43.09375 43.984375 
Q 39.0625 48.390625 32.421875 48.390625 
Q 24.90625 48.390625 20.390625 44.140625 
Q 15.875 39.890625 15.1875 32.171875 
z
" id="DejaVuSans-101"/>
     </defs>
     <g transform="translate(16.318125 308.302814)rotate(-90)scale(0.12 -0.12)">
      <use xlink:href="#DejaVuSans-65"/>
      <use x="68.408203" xlink:href="#DejaVuSans-110"/>
      <use x="131.787109" xlink:href="#DejaVuSans-122"/>
      <use x="184.277344" xlink:href="#DejaVuSans-97"/>
      <use x="245.556641" xlink:href="#DejaVuSans-104"/>
      <use x="308.935547" xlink:href="#DejaVuSans-108"/>
      <use x="336.71875" xlink:href="#DejaVuSans-32"/>
      <use x="368.505859" xlink:href="#DejaVuSans-118"/>
      <use x="427.685547" xlink:href="#DejaVuSans-111"/>
      <use x="488.867188" xlink:href="#DejaVuSans-110"/>
      <use x="552.246094" xlink:href="#DejaVuSans-32"/>
      <use x="584.033203" xlink:href="#DejaVuSans-70"/>
      <use x="641.412109" xlink:href="#DejaVuSans-228"/>
      <use x="702.691406" xlink:href="#DejaVuSans-108"/>
      <use x="730.474609" xlink:href="#DejaVuSans-108"/>
      <use x="758.257812" xlink:href="#DejaVuSans-101"/>
      <use x="819.78125" xlink:href="#DejaVuSans-110"/>
     </g>
    </g>
   </g>
   <g id="line2d_29">
    <path clip-path="url(#p7132e9b296)" d="M 54.6275 465.481869 
L 63.278663 463.934623 
L 71.929826 463.934623 
L 80.580988 463.934623 
L 89.232151 457.745642 
L 97.883314 452.588157 
L 106.534477 452.588157 
L 115.18564 448.977918 
L 123.836802 437.115704 
L 132.487965 429.379477 
L 141.139128 420.096005 
L 149.790291 410.296785 
L 158.441453 404.107804 
L 167.092616 404.107804 
L 175.743779 401.013313 
L 184.394942 385.540859 
L 193.046105 374.194394 
L 201.697267 367.489664 
L 210.34843 364.910922 
L 227.650756 364.910922 
L 244.953081 348.92272 
L 253.604244 347.375474 
L 262.255407 311.788832 
L 270.90657 311.788832 
L 279.557733 303.536856 
L 296.860058 304.052605 
L 305.511221 299.926617 
L 314.162384 288.064403 
L 322.813547 286.001409 
L 331.464709 282.906919 
L 340.115872 270.528956 
L 357.418198 268.981711 
L 366.06936 268.981711 
L 374.720523 262.276981 
L 383.371686 258.150993 
L 400.674012 257.635245 
L 417.976337 257.635245 
L 426.6275 256.603748 
L 435.278663 251.962012 
L 443.929826 248.351773 
L 452.580988 244.225785 
L 461.232151 244.225785 
L 478.534477 241.647043 
L 487.18564 240.615546 
L 495.836802 237.005307 
L 504.487965 234.942313 
L 513.139128 232.363571 
L 521.790291 231.332074 
L 539.092616 218.954111 
L 547.743779 217.922614 
L 556.394942 211.733633 
L 573.697267 206.576149 
L 582.34843 206.576149 
L 599.650756 206.576149 
L 608.301919 117.867416 
L 625.604244 74.028798 
L 634.255407 71.450056 
L 668.860058 69.387062 
L 677.511221 58.556345 
L 686.162384 57.009099 
L 694.813547 49.788621 
L 703.464709 47.209879 
L 720.767035 47.209879 
L 729.418198 47.209879 
L 738.06936 46.69413 
L 755.371686 45.662633 
L 764.022849 45.662633 
L 781.325174 45.662633 
L 798.6275 42.052394 
L 815.929826 42.052394 
L 824.580988 42.052394 
L 841.883314 41.536646 
L 850.534477 41.536646 
L 859.18564 41.020897 
L 867.836802 41.020897 
L 885.139128 40.505149 
L 902.441453 40.505149 
L 911.092616 39.9894 
L 919.743779 39.473652 
L 928.394942 38.442155 
L 937.046105 37.926407 
L 945.697267 37.926407 
L 971.650756 37.926407 
L 980.301919 37.926407 
L 988.953081 37.926407 
L 997.604244 37.926407 
L 1023.557733 37.926407 
L 1032.208895 37.926407 
L 1040.860058 36.89491 
L 1049.511221 36.89491 
L 1058.162384 35.863413 
L 1084.115872 35.863413 
L 1092.767035 35.863413 
L 1101.418198 34.316168 
L 1110.06936 33.800419 
L 1118.720523 32.768922 
L 1144.674012 32.768922 
L 1153.325174 32.768922 
L 1161.976337 32.768922 
L 1170.6275 32.768922 
" style="fill:none;stroke:#dbcd00;stroke-linecap:square;stroke-width:2;"/>
    <defs>
     <path d="M 0 1.5 
C 0.397805 1.5 0.77937 1.341951 1.06066 1.06066 
C 1.341951 0.77937 1.5 0.397805 1.5 0 
C 1.5 -0.397805 1.341951 -0.77937 1.06066 -1.06066 
C 0.77937 -1.341951 0.397805 -1.5 0 -1.5 
C -0.397805 -1.5 -0.77937 -1.341951 -1.06066 -1.06066 
C -1.341951 -0.77937 -1.5 -0.397805 -1.5 0 
C -1.5 0.397805 -1.341951 0.77937 -1.06066 1.06066 
C -0.77937 1.341951 -0.397805 1.5 0 1.5 
z
" id="m25401c4d48" style="stroke:#dbcd00;"/>
    </defs>
    <g clip-path="url(#p7132e9b296)">
     <use style="fill:#dbcd00;stroke:#dbcd00;" x="54.6275" xlink:href="#m25401c4d48" y="465.481869"/>
     <use style="fill:#dbcd00;stroke:#dbcd00;" x="63.278663" xlink:href="#m25401c4d48" y="463.934623"/>
     <use style="fill:#dbcd00;stroke:#dbcd00;" x="71.929826" xlink:href="#m25401c4d48" y="463.934623"/>
     <use style="fill:#dbcd00;stroke:#dbcd00;" x="80.580988" xlink:href="#m25401c4d48" y="463.934623"/>
     <use style="fill:#dbcd00;stroke:#dbcd00;" x="89.232151" xlink:href="#m25401c4d48" y="457.745642"/>
     <use style="fill:#dbcd00;stroke:#dbcd00;" x="97.883314" xlink:href="#m25401c4d48" y="452.588157"/>
     <use style="fill:#dbcd00;stroke:#dbcd00;" x="106.534477" xlink:href="#m25401c4d48" y="452.588157"/>
     <use style="fill:#dbcd00;stroke:#dbcd00;" x="115.18564" xlink:href="#m25401c4d48" y="448.977918"/>
     <use style="fill:#dbcd00;stroke:#dbcd00;" x="123.836802" xlink:href="#m25401c4d48" y="437.115704"/>
     <use style="fill:#dbcd00;stroke:#dbcd00;" x="132.487965" xlink:href="#m25401c4d48" y="429.379477"/>
     <use style="fill:#dbcd00;stroke:#dbcd00;" x="141.139128" xlink:href="#m25401c4d48" y="420.096005"/>
     <use style="fill:#dbcd00;stroke:#dbcd00;" x="149.790291" xlink:href="#m25401c4d48" y="410.296785"/>
     <use style="fill:#dbcd00;stroke:#dbcd00;" x="158.441453" xlink:href="#m25401c4d48" y="404.107804"/>
     <use style="fill:#dbcd00;stroke:#dbcd00;" x="167.092616" xlink:href="#m25401c4d48" y="404.107804"/>
     <use style="fill:#dbcd00;stroke:#dbcd00;" x="175.743779" xlink:href="#m25401c4d48" y="401.013313"/>
     <use style="fill:#dbcd00;stroke:#dbcd00;" x="184.394942" xlink:href="#m25401c4d48" y="385.540859"/>
     <use style="fill:#dbcd00;stroke:#dbcd00;" x="193.046105" xlink:href="#m25401c4d48" y="374.194394"/>
     <use style="fill:#dbcd00;stroke:#dbcd00;" x="201.697267" xlink:href="#m25401c4d48" y="367.489664"/>
     <use style="fill:#dbcd00;stroke:#dbcd00;" x="210.34843" xlink:href="#m25401c4d48" y="364.910922"/>
     <use style="fill:#dbcd00;stroke:#dbcd00;" x="227.650756" xlink:href="#m25401c4d48" y="364.910922"/>
     <use style="fill:#dbcd00;stroke:#dbcd00;" x="244.953081" xlink:href="#m25401c4d48" y="348.92272"/>
     <use style="fill:#dbcd00;stroke:#dbcd00;" x="253.604244" xlink:href="#m25401c4d48" y="347.375474"/>
     <use style="fill:#dbcd00;stroke:#dbcd00;" x="262.255407" xlink:href="#m25401c4d48" y="311.788832"/>
     <use style="fill:#dbcd00;stroke:#dbcd00;" x="270.90657" xlink:href="#m25401c4d48" y="311.788832"/>
     <use style="fill:#dbcd00;stroke:#dbcd00;" x="279.557733" xlink:href="#m25401c4d48" y="303.536856"/>
     <use style="fill:#dbcd00;stroke:#dbcd00;" x="296.860058" xlink:href="#m25401c4d48" y="304.052605"/>
     <use style="fill:#dbcd00;stroke:#dbcd00;" x="305.511221" xlink:href="#m25401c4d48" y="299.926617"/>
     <use style="fill:#dbcd00;stroke:#dbcd00;" x="314.162384" xlink:href="#m25401c4d48" y="288.064403"/>
     <use style="fill:#dbcd00;stroke:#dbcd00;" x="322.813547" xlink:href="#m25401c4d48" y="286.001409"/>
     <use style="fill:#dbcd00;stroke:#dbcd00;" x="331.464709" xlink:href="#m25401c4d48" y="282.906919"/>
     <use style="fill:#dbcd00;stroke:#dbcd00;" x="340.115872" xlink:href="#m25401c4d48" y="270.528956"/>
     <use style="fill:#dbcd00;stroke:#dbcd00;" x="357.418198" xlink:href="#m25401c4d48" y="268.981711"/>
     <use style="fill:#dbcd00;stroke:#dbcd00;" x="366.06936" xlink:href="#m25401c4d48" y="268.981711"/>
     <use style="fill:#dbcd00;stroke:#dbcd00;" x="374.720523" xlink:href="#m25401c4d48" y="262.276981"/>
     <use style="fill:#dbcd00;stroke:#dbcd00;" x="383.371686" xlink:href="#m25401c4d48" y="258.150993"/>
     <use style="fill:#dbcd00;stroke:#dbcd00;" x="400.674012" xlink:href="#m25401c4d48" y="257.635245"/>
     <use style="fill:#dbcd00;stroke:#dbcd00;" x="417.976337" xlink:href="#m25401c4d48" y="257.635245"/>
     <use style="fill:#dbcd00;stroke:#dbcd00;" x="426.6275" xlink:href="#m25401c4d48" y="256.603748"/>
     <use style="fill:#dbcd00;stroke:#dbcd00;" x="435.278663" xlink:href="#m25401c4d48" y="251.962012"/>
     <use style="fill:#dbcd00;stroke:#dbcd00;" x="443.929826" xlink:href="#m25401c4d48" y="248.351773"/>
     <use style="fill:#dbcd00;stroke:#dbcd00;" x="452.580988" xlink:href="#m25401c4d48" y="244.225785"/>
     <use style="fill:#dbcd00;stroke:#dbcd00;" x="461.232151" xlink:href="#m25401c4d48" y="244.225785"/>
     <use style="fill:#dbcd00;stroke:#dbcd00;" x="478.534477" xlink:href="#m25401c4d48" y="241.647043"/>
     <use style="fill:#dbcd00;stroke:#dbcd00;" x="487.18564" xlink:href="#m25401c4d48" y="240.615546"/>
     <use style="fill:#dbcd00;stroke:#dbcd00;" x="495.836802" xlink:href="#m25401c4d48" y="237.005307"/>
     <use style="fill:#dbcd00;stroke:#dbcd00;" x="504.487965" xlink:href="#m25401c4d48" y="234.942313"/>
     <use style="fill:#dbcd00;stroke:#dbcd00;" x="513.139128" xlink:href="#m25401c4d48" y="232.363571"/>
     <use style="fill:#dbcd00;stroke:#dbcd00;" x="521.790291" xlink:href="#m25401c4d48" y="231.332074"/>
     <use style="fill:#dbcd00;stroke:#dbcd00;" x="539.092616" xlink:href="#m25401c4d48" y="218.954111"/>
     <use style="fill:#dbcd00;stroke:#dbcd00;" x="547.743779" xlink:href="#m25401c4d48" y="217.922614"/>
     <use style="fill:#dbcd00;stroke:#dbcd00;" x="556.394942" xlink:href="#m25401c4d48" y="211.733633"/>
     <use style="fill:#dbcd00;stroke:#dbcd00;" x="573.697267" xlink:href="#m25401c4d48" y="206.576149"/>
     <use style="fill:#dbcd00;stroke:#dbcd00;" x="582.34843" xlink:href="#m25401c4d48" y="206.576149"/>
     <use style="fill:#dbcd00;stroke:#dbcd00;" x="599.650756" xlink:href="#m25401c4d48" y="206.576149"/>
     <use style="fill:#dbcd00;stroke:#dbcd00;" x="608.301919" xlink:href="#m25401c4d48" y="117.867416"/>
     <use style="fill:#dbcd00;stroke:#dbcd00;" x="625.604244" xlink:href="#m25401c4d48" y="74.028798"/>
     <use style="fill:#dbcd00;stroke:#dbcd00;" x="634.255407" xlink:href="#m25401c4d48" y="71.450056"/>
     <use style="fill:#dbcd00;stroke:#dbcd00;" x="668.860058" xlink:href="#m25401c4d48" y="69.387062"/>
     <use style="fill:#dbcd00;stroke:#dbcd00;" x="677.511221" xlink:href="#m25401c4d48" y="58.556345"/>
     <use style="fill:#dbcd00;stroke:#dbcd00;" x="686.162384" xlink:href="#m25401c4d48" y="57.009099"/>
     <use style="fill:#dbcd00;stroke:#dbcd00;" x="694.813547" xlink:href="#m25401c4d48" y="49.788621"/>
     <use style="fill:#dbcd00;stroke:#dbcd00;" x="703.464709" xlink:href="#m25401c4d48" y="47.209879"/>
     <use style="fill:#dbcd00;stroke:#dbcd00;" x="720.767035" xlink:href="#m25401c4d48" y="47.209879"/>
     <use style="fill:#dbcd00;stroke:#dbcd00;" x="729.418198" xlink:href="#m25401c4d48" y="47.209879"/>
     <use style="fill:#dbcd00;stroke:#dbcd00;" x="738.06936" xlink:href="#m25401c4d48" y="46.69413"/>
     <use style="fill:#dbcd00;stroke:#dbcd00;" x="755.371686" xlink:href="#m25401c4d48" y="45.662633"/>
     <use style="fill:#dbcd00;stroke:#dbcd00;" x="764.022849" xlink:href="#m25401c4d48" y="45.662633"/>
     <use style="fill:#dbcd00;stroke:#dbcd00;" x="781.325174" xlink:href="#m25401c4d48" y="45.662633"/>
     <use style="fill:#dbcd00;stroke:#dbcd00;" x="798.6275" xlink:href="#m25401c4d48" y="42.052394"/>
     <use style="fill:#dbcd00;stroke:#dbcd00;" x="815.929826" xlink:href="#m25401c4d48" y="42.052394"/>
     <use style="fill:#dbcd00;stroke:#dbcd00;" x="824.580988" xlink:href="#m25401c4d48" y="42.052394"/>
     <use style="fill:#dbcd00;stroke:#dbcd00;" x="841.883314" xlink:href="#m25401c4d48" y="41.536646"/>
     <use style="fill:#dbcd00;stroke:#dbcd00;" x="850.534477" xlink:href="#m25401c4d48" y="41.536646"/>
     <use style="fill:#dbcd00;stroke:#dbcd00;" x="859.18564" xlink:href="#m25401c4d48" y="41.020897"/>
     <use style="fill:#dbcd00;stroke:#dbcd00;" x="867.836802" xlink:href="#m25401c4d48" y="41.020897"/>
     <use style="fill:#dbcd00;stroke:#dbcd00;" x="885.139128" xlink:href="#m25401c4d48" y="40.505149"/>
     <use style="fill:#dbcd00;stroke:#dbcd00;" x="902.441453" xlink:href="#m25401c4d48" y="40.505149"/>
     <use style="fill:#dbcd00;stroke:#dbcd00;" x="911.092616" xlink:href="#m25401c4d48" y="39.9894"/>
     <use style="fill:#dbcd00;stroke:#dbcd00;" x="919.743779" xlink:href="#m25401c4d48" y="39.473652"/>
     <use style="fill:#dbcd00;stroke:#dbcd00;" x="928.394942" xlink:href="#m25401c4d48" y="38.442155"/>
     <use style="fill:#dbcd00;stroke:#dbcd00;" x="937.046105" xlink:href="#m25401c4d48" y="37.926407"/>
     <use style="fill:#dbcd00;stroke:#dbcd00;" x="945.697267" xlink:href="#m25401c4d48" y="37.926407"/>
     <use style="fill:#dbcd00;stroke:#dbcd00;" x="971.650756" xlink:href="#m25401c4d48" y="37.926407"/>
     <use style="fill:#dbcd00;stroke:#dbcd00;" x="980.301919" xlink:href="#m25401c4d48" y="37.926407"/>
     <use style="fill:#dbcd00;stroke:#dbcd00;" x="988.953081" xlink:href="#m25401c4d48" y="37.926407"/>
     <use style="fill:#dbcd00;stroke:#dbcd00;" x="997.604244" xlink:href="#m25401c4d48" y="37.926407"/>
     <use style="fill:#dbcd00;stroke:#dbcd00;" x="1023.557733" xlink:href="#m25401c4d48" y="37.926407"/>
     <use style="fill:#dbcd00;stroke:#dbcd00;" x="1032.208895" xlink:href="#m25401c4d48" y="37.926407"/>
     <use style="fill:#dbcd00;stroke:#dbcd00;" x="1040.860058" xlink:href="#m25401c4d48" y="36.89491"/>
     <use style="fill:#dbcd00;stroke:#dbcd00;" x="1049.511221" xlink:href="#m25401c4d48" y="36.89491"/>
     <use style="fill:#dbcd00;stroke:#dbcd00;" x="1058.162384" xlink:href="#m25401c4d48" y="35.863413"/>
     <use style="fill:#dbcd00;stroke:#dbcd00;" x="1084.115872" xlink:href="#m25401c4d48" y="35.863413"/>
     <use style="fill:#dbcd00;stroke:#dbcd00;" x="1092.767035" xlink:href="#m25401c4d48" y="35.863413"/>
     <use style="fill:#dbcd00;stroke:#dbcd00;" x="1101.418198" xlink:href="#m25401c4d48" y="34.316168"/>
     <use style="fill:#dbcd00;stroke:#dbcd00;" x="1110.06936" xlink:href="#m25401c4d48" y="33.800419"/>
     <use style="fill:#dbcd00;stroke:#dbcd00;" x="1118.720523" xlink:href="#m25401c4d48" y="32.768922"/>
     <use style="fill:#dbcd00;stroke:#dbcd00;" x="1144.674012" xlink:href="#m25401c4d48" y="32.768922"/>
     <use style="fill:#dbcd00;stroke:#dbcd00;" x="1153.325174" xlink:href="#m25401c4d48" y="32.768922"/>
     <use style="fill:#dbcd00;stroke:#dbcd00;" x="1161.976337" xlink:href="#m25401c4d48" y="32.768922"/>
     <use style="fill:#dbcd00;stroke:#dbcd00;" x="1170.6275" xlink:href="#m25401c4d48" y="32.768922"/>
    </g>
   </g>
   <g id="line2d_30">
    <path clip-path="url(#p7132e9b296)" d="M 54.6275 401.529061 
L 63.278663 394.824331 
L 71.929826 381.93062 
L 80.580988 369.036909 
L 89.232151 359.237689 
L 97.883314 349.438468 
L 106.534477 344.280984 
L 115.18564 345.312481 
L 123.836802 344.796732 
L 132.487965 341.186493 
L 141.139128 343.249487 
L 149.790291 351.501462 
L 158.441453 347.891223 
L 167.092616 345.312481 
L 175.743779 343.765235 
L 184.394942 356.658946 
L 193.046105 360.784934 
L 201.697267 364.395173 
L 210.34843 360.784934 
L 227.650756 359.237689 
L 244.953081 373.678645 
L 253.604244 373.678645 
L 262.255407 408.233791 
L 270.90657 403.592055 
L 279.557733 410.296785 
L 296.860058 412.359779 
L 305.511221 415.454269 
L 314.162384 427.832232 
L 322.813547 428.863729 
L 331.464709 430.410974 
L 340.115872 440.210195 
L 357.418198 441.75744 
L 366.06936 437.631453 
L 374.720523 442.788937 
L 383.371686 445.883428 
L 400.674012 439.694446 
L 417.976337 427.832232 
L 426.6275 425.769238 
L 435.278663 412.359779 
L 443.929826 413.391276 
L 452.580988 394.824331 
L 461.232151 366.973915 
L 478.534477 334.997512 
L 487.18564 322.103801 
L 495.836802 313.336077 
L 504.487965 308.178593 
L 513.139128 313.851825 
L 521.790291 312.30458 
L 539.092616 319.525058 
L 547.743779 321.588052 
L 556.394942 321.588052 
L 573.697267 322.103801 
L 582.34843 317.462065 
L 599.650756 315.914819 
L 608.301919 404.623552 
L 625.604244 447.430673 
L 634.255407 450.009415 
L 668.860058 451.556661 
L 677.511221 462.387378 
L 686.162384 463.934623 
L 694.813547 471.155102 
L 703.464709 473.733844 
L 720.767035 473.733844 
L 729.418198 472.702347 
L 738.06936 473.218095 
L 755.371686 472.702347 
L 764.022849 472.186598 
L 781.325174 472.186598 
L 798.6275 474.765341 
L 815.929826 474.249592 
L 824.580988 473.733844 
L 841.883314 474.249592 
L 850.534477 474.249592 
L 859.18564 474.765341 
L 867.836802 474.765341 
L 885.139128 475.281089 
L 902.441453 475.281089 
L 911.092616 475.796838 
L 919.743779 475.796838 
L 928.394942 477.344083 
L 937.046105 476.828334 
L 945.697267 475.281089 
L 971.650756 474.249592 
L 980.301919 474.249592 
L 988.953081 474.249592 
L 997.604244 473.218095 
L 1023.557733 473.218095 
L 1032.208895 473.218095 
L 1040.860058 474.249592 
L 1049.511221 474.249592 
L 1058.162384 475.281089 
L 1084.115872 474.765341 
L 1092.767035 474.765341 
L 1101.418198 476.312586 
L 1110.06936 476.828334 
L 1118.720523 477.859831 
L 1144.674012 477.344083 
L 1153.325174 476.828334 
L 1161.976337 476.312586 
L 1170.6275 474.765341 
" style="fill:none;stroke:#2792cb;stroke-linecap:square;stroke-width:2;"/>
    <defs>
     <path d="M 0 1.5 
C 0.397805 1.5 0.77937 1.341951 1.06066 1.06066 
C 1.341951 0.77937 1.5 0.397805 1.5 0 
C 1.5 -0.397805 1.341951 -0.77937 1.06066 -1.06066 
C 0.77937 -1.341951 0.397805 -1.5 0 -1.5 
C -0.397805 -1.5 -0.77937 -1.341951 -1.06066 -1.06066 
C -1.341951 -0.77937 -1.5 -0.397805 -1.5 0 
C -1.5 0.397805 -1.341951 0.77937 -1.06066 1.06066 
C -0.77937 1.341951 -0.397805 1.5 0 1.5 
z
" id="mf85221b0be" style="stroke:#2792cb;"/>
    </defs>
    <g clip-path="url(#p7132e9b296)">
     <use style="fill:#2792cb;stroke:#2792cb;" x="54.6275" xlink:href="#mf85221b0be" y="401.529061"/>
     <use style="fill:#2792cb;stroke:#2792cb;" x="63.278663" xlink:href="#mf85221b0be" y="394.824331"/>
     <use style="fill:#2792cb;stroke:#2792cb;" x="71.929826" xlink:href="#mf85221b0be" y="381.93062"/>
     <use style="fill:#2792cb;stroke:#2792cb;" x="80.580988" xlink:href="#mf85221b0be" y="369.036909"/>
     <use style="fill:#2792cb;stroke:#2792cb;" x="89.232151" xlink:href="#mf85221b0be" y="359.237689"/>
     <use style="fill:#2792cb;stroke:#2792cb;" x="97.883314" xlink:href="#mf85221b0be" y="349.438468"/>
     <use style="fill:#2792cb;stroke:#2792cb;" x="106.534477" xlink:href="#mf85221b0be" y="344.280984"/>
     <use style="fill:#2792cb;stroke:#2792cb;" x="115.18564" xlink:href="#mf85221b0be" y="345.312481"/>
     <use style="fill:#2792cb;stroke:#2792cb;" x="123.836802" xlink:href="#mf85221b0be" y="344.796732"/>
     <use style="fill:#2792cb;stroke:#2792cb;" x="132.487965" xlink:href="#mf85221b0be" y="341.186493"/>
     <use style="fill:#2792cb;stroke:#2792cb;" x="141.139128" xlink:href="#mf85221b0be" y="343.249487"/>
     <use style="fill:#2792cb;stroke:#2792cb;" x="149.790291" xlink:href="#mf85221b0be" y="351.501462"/>
     <use style="fill:#2792cb;stroke:#2792cb;" x="158.441453" xlink:href="#mf85221b0be" y="347.891223"/>
     <use style="fill:#2792cb;stroke:#2792cb;" x="167.092616" xlink:href="#mf85221b0be" y="345.312481"/>
     <use style="fill:#2792cb;stroke:#2792cb;" x="175.743779" xlink:href="#mf85221b0be" y="343.765235"/>
     <use style="fill:#2792cb;stroke:#2792cb;" x="184.394942" xlink:href="#mf85221b0be" y="356.658946"/>
     <use style="fill:#2792cb;stroke:#2792cb;" x="193.046105" xlink:href="#mf85221b0be" y="360.784934"/>
     <use style="fill:#2792cb;stroke:#2792cb;" x="201.697267" xlink:href="#mf85221b0be" y="364.395173"/>
     <use style="fill:#2792cb;stroke:#2792cb;" x="210.34843" xlink:href="#mf85221b0be" y="360.784934"/>
     <use style="fill:#2792cb;stroke:#2792cb;" x="227.650756" xlink:href="#mf85221b0be" y="359.237689"/>
     <use style="fill:#2792cb;stroke:#2792cb;" x="244.953081" xlink:href="#mf85221b0be" y="373.678645"/>
     <use style="fill:#2792cb;stroke:#2792cb;" x="253.604244" xlink:href="#mf85221b0be" y="373.678645"/>
     <use style="fill:#2792cb;stroke:#2792cb;" x="262.255407" xlink:href="#mf85221b0be" y="408.233791"/>
     <use style="fill:#2792cb;stroke:#2792cb;" x="270.90657" xlink:href="#mf85221b0be" y="403.592055"/>
     <use style="fill:#2792cb;stroke:#2792cb;" x="279.557733" xlink:href="#mf85221b0be" y="410.296785"/>
     <use style="fill:#2792cb;stroke:#2792cb;" x="296.860058" xlink:href="#mf85221b0be" y="412.359779"/>
     <use style="fill:#2792cb;stroke:#2792cb;" x="305.511221" xlink:href="#mf85221b0be" y="415.454269"/>
     <use style="fill:#2792cb;stroke:#2792cb;" x="314.162384" xlink:href="#mf85221b0be" y="427.832232"/>
     <use style="fill:#2792cb;stroke:#2792cb;" x="322.813547" xlink:href="#mf85221b0be" y="428.863729"/>
     <use style="fill:#2792cb;stroke:#2792cb;" x="331.464709" xlink:href="#mf85221b0be" y="430.410974"/>
     <use style="fill:#2792cb;stroke:#2792cb;" x="340.115872" xlink:href="#mf85221b0be" y="440.210195"/>
     <use style="fill:#2792cb;stroke:#2792cb;" x="357.418198" xlink:href="#mf85221b0be" y="441.75744"/>
     <use style="fill:#2792cb;stroke:#2792cb;" x="366.06936" xlink:href="#mf85221b0be" y="437.631453"/>
     <use style="fill:#2792cb;stroke:#2792cb;" x="374.720523" xlink:href="#mf85221b0be" y="442.788937"/>
     <use style="fill:#2792cb;stroke:#2792cb;" x="383.371686" xlink:href="#mf85221b0be" y="445.883428"/>
     <use style="fill:#2792cb;stroke:#2792cb;" x="400.674012" xlink:href="#mf85221b0be" y="439.694446"/>
     <use style="fill:#2792cb;stroke:#2792cb;" x="417.976337" xlink:href="#mf85221b0be" y="427.832232"/>
     <use style="fill:#2792cb;stroke:#2792cb;" x="426.6275" xlink:href="#mf85221b0be" y="425.769238"/>
     <use style="fill:#2792cb;stroke:#2792cb;" x="435.278663" xlink:href="#mf85221b0be" y="412.359779"/>
     <use style="fill:#2792cb;stroke:#2792cb;" x="443.929826" xlink:href="#mf85221b0be" y="413.391276"/>
     <use style="fill:#2792cb;stroke:#2792cb;" x="452.580988" xlink:href="#mf85221b0be" y="394.824331"/>
     <use style="fill:#2792cb;stroke:#2792cb;" x="461.232151" xlink:href="#mf85221b0be" y="366.973915"/>
     <use style="fill:#2792cb;stroke:#2792cb;" x="478.534477" xlink:href="#mf85221b0be" y="334.997512"/>
     <use style="fill:#2792cb;stroke:#2792cb;" x="487.18564" xlink:href="#mf85221b0be" y="322.103801"/>
     <use style="fill:#2792cb;stroke:#2792cb;" x="495.836802" xlink:href="#mf85221b0be" y="313.336077"/>
     <use style="fill:#2792cb;stroke:#2792cb;" x="504.487965" xlink:href="#mf85221b0be" y="308.178593"/>
     <use style="fill:#2792cb;stroke:#2792cb;" x="513.139128" xlink:href="#mf85221b0be" y="313.851825"/>
     <use style="fill:#2792cb;stroke:#2792cb;" x="521.790291" xlink:href="#mf85221b0be" y="312.30458"/>
     <use style="fill:#2792cb;stroke:#2792cb;" x="539.092616" xlink:href="#mf85221b0be" y="319.525058"/>
     <use style="fill:#2792cb;stroke:#2792cb;" x="547.743779" xlink:href="#mf85221b0be" y="321.588052"/>
     <use style="fill:#2792cb;stroke:#2792cb;" x="556.394942" xlink:href="#mf85221b0be" y="321.588052"/>
     <use style="fill:#2792cb;stroke:#2792cb;" x="573.697267" xlink:href="#mf85221b0be" y="322.103801"/>
     <use style="fill:#2792cb;stroke:#2792cb;" x="582.34843" xlink:href="#mf85221b0be" y="317.462065"/>
     <use style="fill:#2792cb;stroke:#2792cb;" x="599.650756" xlink:href="#mf85221b0be" y="315.914819"/>
     <use style="fill:#2792cb;stroke:#2792cb;" x="608.301919" xlink:href="#mf85221b0be" y="404.623552"/>
     <use style="fill:#2792cb;stroke:#2792cb;" x="625.604244" xlink:href="#mf85221b0be" y="447.430673"/>
     <use style="fill:#2792cb;stroke:#2792cb;" x="634.255407" xlink:href="#mf85221b0be" y="450.009415"/>
     <use style="fill:#2792cb;stroke:#2792cb;" x="668.860058" xlink:href="#mf85221b0be" y="451.556661"/>
     <use style="fill:#2792cb;stroke:#2792cb;" x="677.511221" xlink:href="#mf85221b0be" y="462.387378"/>
     <use style="fill:#2792cb;stroke:#2792cb;" x="686.162384" xlink:href="#mf85221b0be" y="463.934623"/>
     <use style="fill:#2792cb;stroke:#2792cb;" x="694.813547" xlink:href="#mf85221b0be" y="471.155102"/>
     <use style="fill:#2792cb;stroke:#2792cb;" x="703.464709" xlink:href="#mf85221b0be" y="473.733844"/>
     <use style="fill:#2792cb;stroke:#2792cb;" x="720.767035" xlink:href="#mf85221b0be" y="473.733844"/>
     <use style="fill:#2792cb;stroke:#2792cb;" x="729.418198" xlink:href="#mf85221b0be" y="472.702347"/>
     <use style="fill:#2792cb;stroke:#2792cb;" x="738.06936" xlink:href="#mf85221b0be" y="473.218095"/>
     <use style="fill:#2792cb;stroke:#2792cb;" x="755.371686" xlink:href="#mf85221b0be" y="472.702347"/>
     <use style="fill:#2792cb;stroke:#2792cb;" x="764.022849" xlink:href="#mf85221b0be" y="472.186598"/>
     <use style="fill:#2792cb;stroke:#2792cb;" x="781.325174" xlink:href="#mf85221b0be" y="472.186598"/>
     <use style="fill:#2792cb;stroke:#2792cb;" x="798.6275" xlink:href="#mf85221b0be" y="474.765341"/>
     <use style="fill:#2792cb;stroke:#2792cb;" x="815.929826" xlink:href="#mf85221b0be" y="474.249592"/>
     <use style="fill:#2792cb;stroke:#2792cb;" x="824.580988" xlink:href="#mf85221b0be" y="473.733844"/>
     <use style="fill:#2792cb;stroke:#2792cb;" x="841.883314" xlink:href="#mf85221b0be" y="474.249592"/>
     <use style="fill:#2792cb;stroke:#2792cb;" x="850.534477" xlink:href="#mf85221b0be" y="474.249592"/>
     <use style="fill:#2792cb;stroke:#2792cb;" x="859.18564" xlink:href="#mf85221b0be" y="474.765341"/>
     <use style="fill:#2792cb;stroke:#2792cb;" x="867.836802" xlink:href="#mf85221b0be" y="474.765341"/>
     <use style="fill:#2792cb;stroke:#2792cb;" x="885.139128" xlink:href="#mf85221b0be" y="475.281089"/>
     <use style="fill:#2792cb;stroke:#2792cb;" x="902.441453" xlink:href="#mf85221b0be" y="475.281089"/>
     <use style="fill:#2792cb;stroke:#2792cb;" x="911.092616" xlink:href="#mf85221b0be" y="475.796838"/>
     <use style="fill:#2792cb;stroke:#2792cb;" x="919.743779" xlink:href="#mf85221b0be" y="475.796838"/>
     <use style="fill:#2792cb;stroke:#2792cb;" x="928.394942" xlink:href="#mf85221b0be" y="477.344083"/>
     <use style="fill:#2792cb;stroke:#2792cb;" x="937.046105" xlink:href="#mf85221b0be" y="476.828334"/>
     <use style="fill:#2792cb;stroke:#2792cb;" x="945.697267" xlink:href="#mf85221b0be" y="475.281089"/>
     <use style="fill:#2792cb;stroke:#2792cb;" x="971.650756" xlink:href="#mf85221b0be" y="474.249592"/>
     <use style="fill:#2792cb;stroke:#2792cb;" x="980.301919" xlink:href="#mf85221b0be" y="474.249592"/>
     <use style="fill:#2792cb;stroke:#2792cb;" x="988.953081" xlink:href="#mf85221b0be" y="474.249592"/>
     <use style="fill:#2792cb;stroke:#2792cb;" x="997.604244" xlink:href="#mf85221b0be" y="473.218095"/>
     <use style="fill:#2792cb;stroke:#2792cb;" x="1023.557733" xlink:href="#mf85221b0be" y="473.218095"/>
     <use style="fill:#2792cb;stroke:#2792cb;" x="1032.208895" xlink:href="#mf85221b0be" y="473.218095"/>
     <use style="fill:#2792cb;stroke:#2792cb;" x="1040.860058" xlink:href="#mf85221b0be" y="474.249592"/>
     <use style="fill:#2792cb;stroke:#2792cb;" x="1049.511221" xlink:href="#mf85221b0be" y="474.249592"/>
     <use style="fill:#2792cb;stroke:#2792cb;" x="1058.162384" xlink:href="#mf85221b0be" y="475.281089"/>
     <use style="fill:#2792cb;stroke:#2792cb;" x="1084.115872" xlink:href="#mf85221b0be" y="474.765341"/>
     <use style="fill:#2792cb;stroke:#2792cb;" x="1092.767035" xlink:href="#mf85221b0be" y="474.765341"/>
     <use style="fill:#2792cb;stroke:#2792cb;" x="1101.418198" xlink:href="#mf85221b0be" y="476.312586"/>
     <use style="fill:#2792cb;stroke:#2792cb;" x="1110.06936" xlink:href="#mf85221b0be" y="476.828334"/>
     <use style="fill:#2792cb;stroke:#2792cb;" x="1118.720523" xlink:href="#mf85221b0be" y="477.859831"/>
     <use style="fill:#2792cb;stroke:#2792cb;" x="1144.674012" xlink:href="#mf85221b0be" y="477.344083"/>
     <use style="fill:#2792cb;stroke:#2792cb;" x="1153.325174" xlink:href="#mf85221b0be" y="476.828334"/>
     <use style="fill:#2792cb;stroke:#2792cb;" x="1161.976337" xlink:href="#mf85221b0be" y="476.312586"/>
     <use style="fill:#2792cb;stroke:#2792cb;" x="1170.6275" xlink:href="#mf85221b0be" y="474.765341"/>
    </g>
   </g>
   <g id="patch_3">
    <path d="M 54.6275 500.114377 
L 1170.6275 500.114377 
" style="fill:none;stroke:#000000;stroke-linecap:square;stroke-linejoin:miter;stroke-width:0.8;"/>
   </g>
   <g id="legend_1">
    <g id="line2d_31">
     <path d="M 63.6275 23.612814 
L 83.6275 23.612814 
" style="fill:none;stroke:#dbcd00;stroke-linecap:square;stroke-width:2;"/>
    </g>
    <g id="line2d_32">
     <g>
      <use style="fill:#dbcd00;stroke:#dbcd00;" x="73.6275" xlink:href="#m25401c4d48" y="23.612814"/>
     </g>
    </g>
    <g id="text_20">
     <!-- Genesene -->
     <defs>
      <path d="M 59.515625 10.40625 
L 59.515625 29.984375 
L 43.40625 29.984375 
L 43.40625 38.09375 
L 69.28125 38.09375 
L 69.28125 6.78125 
Q 63.578125 2.734375 56.6875 0.65625 
Q 49.8125 -1.421875 42 -1.421875 
Q 24.90625 -1.421875 15.25 8.5625 
Q 5.609375 18.5625 5.609375 36.375 
Q 5.609375 54.25 15.25 64.234375 
Q 24.90625 74.21875 42 74.21875 
Q 49.125 74.21875 55.546875 72.453125 
Q 61.96875 70.703125 67.390625 67.28125 
L 67.390625 56.78125 
Q 61.921875 61.421875 55.765625 63.765625 
Q 49.609375 66.109375 42.828125 66.109375 
Q 29.4375 66.109375 22.71875 58.640625 
Q 16.015625 51.171875 16.015625 36.375 
Q 16.015625 21.625 22.71875 14.15625 
Q 29.4375 6.6875 42.828125 6.6875 
Q 48.046875 6.6875 52.140625 7.59375 
Q 56.25 8.5 59.515625 10.40625 
z
" id="DejaVuSans-71"/>
      <path d="M 44.28125 53.078125 
L 44.28125 44.578125 
Q 40.484375 46.53125 36.375 47.5 
Q 32.28125 48.484375 27.875 48.484375 
Q 21.1875 48.484375 17.84375 46.4375 
Q 14.5 44.390625 14.5 40.28125 
Q 14.5 37.15625 16.890625 35.375 
Q 19.28125 33.59375 26.515625 31.984375 
L 29.59375 31.296875 
Q 39.15625 29.25 43.1875 25.515625 
Q 47.21875 21.78125 47.21875 15.09375 
Q 47.21875 7.46875 41.1875 3.015625 
Q 35.15625 -1.421875 24.609375 -1.421875 
Q 20.21875 -1.421875 15.453125 -0.5625 
Q 10.6875 0.296875 5.421875 2 
L 5.421875 11.28125 
Q 10.40625 8.6875 15.234375 7.390625 
Q 20.0625 6.109375 24.8125 6.109375 
Q 31.15625 6.109375 34.5625 8.28125 
Q 37.984375 10.453125 37.984375 14.40625 
Q 37.984375 18.0625 35.515625 20.015625 
Q 33.0625 21.96875 24.703125 23.78125 
L 21.578125 24.515625 
Q 13.234375 26.265625 9.515625 29.90625 
Q 5.8125 33.546875 5.8125 39.890625 
Q 5.8125 47.609375 11.28125 51.796875 
Q 16.75 56 26.8125 56 
Q 31.78125 56 36.171875 55.265625 
Q 40.578125 54.546875 44.28125 53.078125 
z
" id="DejaVuSans-115"/>
     </defs>
     <g transform="translate(91.6275 27.112814)scale(0.1 -0.1)">
      <use xlink:href="#DejaVuSans-71"/>
      <use x="77.490234" xlink:href="#DejaVuSans-101"/>
      <use x="139.013672" xlink:href="#DejaVuSans-110"/>
      <use x="202.392578" xlink:href="#DejaVuSans-101"/>
      <use x="263.916016" xlink:href="#DejaVuSans-115"/>
      <use x="316.015625" xlink:href="#DejaVuSans-101"/>
      <use x="377.539062" xlink:href="#DejaVuSans-110"/>
      <use x="440.917969" xlink:href="#DejaVuSans-101"/>
     </g>
    </g>
    <g id="line2d_33">
     <path d="M 63.6275 38.290939 
L 83.6275 38.290939 
" style="fill:none;stroke:#2792cb;stroke-linecap:square;stroke-width:2;"/>
    </g>
    <g id="line2d_34">
     <g>
      <use style="fill:#2792cb;stroke:#2792cb;" x="73.6275" xlink:href="#mf85221b0be" y="38.290939"/>
     </g>
    </g>
    <g id="text_21">
     <!-- Erkrankte -->
     <defs>
      <path d="M 9.8125 72.90625 
L 55.90625 72.90625 
L 55.90625 64.59375 
L 19.671875 64.59375 
L 19.671875 43.015625 
L 54.390625 43.015625 
L 54.390625 34.71875 
L 19.671875 34.71875 
L 19.671875 8.296875 
L 56.78125 8.296875 
L 56.78125 0 
L 9.8125 0 
z
" id="DejaVuSans-69"/>
      <path d="M 41.109375 46.296875 
Q 39.59375 47.171875 37.8125 47.578125 
Q 36.03125 48 33.890625 48 
Q 26.265625 48 22.1875 43.046875 
Q 18.109375 38.09375 18.109375 28.8125 
L 18.109375 0 
L 9.078125 0 
L 9.078125 54.6875 
L 18.109375 54.6875 
L 18.109375 46.1875 
Q 20.953125 51.171875 25.484375 53.578125 
Q 30.03125 56 36.53125 56 
Q 37.453125 56 38.578125 55.875 
Q 39.703125 55.765625 41.0625 55.515625 
z
" id="DejaVuSans-114"/>
      <path d="M 9.078125 75.984375 
L 18.109375 75.984375 
L 18.109375 31.109375 
L 44.921875 54.6875 
L 56.390625 54.6875 
L 27.390625 29.109375 
L 57.625 0 
L 45.90625 0 
L 18.109375 26.703125 
L 18.109375 0 
L 9.078125 0 
z
" id="DejaVuSans-107"/>
      <path d="M 18.3125 70.21875 
L 18.3125 54.6875 
L 36.8125 54.6875 
L 36.8125 47.703125 
L 18.3125 47.703125 
L 18.3125 18.015625 
Q 18.3125 11.328125 20.140625 9.421875 
Q 21.96875 7.515625 27.59375 7.515625 
L 36.8125 7.515625 
L 36.8125 0 
L 27.59375 0 
Q 17.1875 0 13.234375 3.875 
Q 9.28125 7.765625 9.28125 18.015625 
L 9.28125 47.703125 
L 2.6875 47.703125 
L 2.6875 54.6875 
L 9.28125 54.6875 
L 9.28125 70.21875 
z
" id="DejaVuSans-116"/>
     </defs>
     <g transform="translate(91.6275 41.790939)scale(0.1 -0.1)">
      <use xlink:href="#DejaVuSans-69"/>
      <use x="63.183594" xlink:href="#DejaVuSans-114"/>
      <use x="104.296875" xlink:href="#DejaVuSans-107"/>
      <use x="162.207031" xlink:href="#DejaVuSans-114"/>
      <use x="203.320312" xlink:href="#DejaVuSans-97"/>
      <use x="264.599609" xlink:href="#DejaVuSans-110"/>
      <use x="327.978516" xlink:href="#DejaVuSans-107"/>
      <use x="385.888672" xlink:href="#DejaVuSans-116"/>
      <use x="425.097656" xlink:href="#DejaVuSans-101"/>
     </g>
    </g>
   </g>
  </g>
 </g>
 <defs>
  <clipPath id="p7132e9b296">
   <rect height="489.6" width="1116" x="54.6275" y="10.514377"/>
  </clipPath>
 </defs>
</svg>
