<?xml version="1.0" encoding="utf-8" standalone="no"?>
<!DOCTYPE svg PUBLIC "-//W3C//DTD SVG 1.1//EN"
  "http://www.w3.org/Graphics/SVG/1.1/DTD/svg11.dtd">
<!-- Created with matplotlib (https://matplotlib.org/) -->
<svg height="553.993765pt" version="1.1" viewBox="0 0 1186.09875 553.993765" width="1186.09875pt" xmlns="http://www.w3.org/2000/svg" xmlns:xlink="http://www.w3.org/1999/xlink">
 <defs>
  <style type="text/css">
*{stroke-linecap:butt;stroke-linejoin:round;}
  </style>
 </defs>
 <g id="figure_1">
  <g id="patch_1">
   <path d="M 0 553.993765 
L 1186.09875 553.993765 
L 1186.09875 0 
L 0 0 
z
" style="fill:#ffffff;"/>
  </g>
  <g id="axes_1">
   <g id="patch_2">
    <path d="M 62.89875 501.738984 
L 1178.89875 501.738984 
L 1178.89875 12.138984 
L 62.89875 12.138984 
z
" style="fill:#ffffff;"/>
   </g>
   <g id="matplotlib.axis_1">
    <g id="xtick_1">
     <g id="line2d_1">
      <defs>
       <path d="M 0 0 
L 0 3.5 
" id="mad2f55ed48" style="stroke:#000000;stroke-width:0.8;"/>
      </defs>
      <g>
       <use style="stroke:#000000;stroke-width:0.8;" x="66.931462" xlink:href="#mad2f55ed48" y="501.738984"/>
      </g>
     </g>
     <g id="text_1">
      <!-- 2020-03 -->
      <defs>
       <path d="M 19.1875 8.296875 
L 53.609375 8.296875 
L 53.609375 0 
L 7.328125 0 
L 7.328125 8.296875 
Q 12.9375 14.109375 22.625 23.890625 
Q 32.328125 33.6875 34.8125 36.53125 
Q 39.546875 41.84375 41.421875 45.53125 
Q 43.3125 49.21875 43.3125 52.78125 
Q 43.3125 58.59375 39.234375 62.25 
Q 35.15625 65.921875 28.609375 65.921875 
Q 23.96875 65.921875 18.8125 64.3125 
Q 13.671875 62.703125 7.8125 59.421875 
L 7.8125 69.390625 
Q 13.765625 71.78125 18.9375 73 
Q 24.125 74.21875 28.421875 74.21875 
Q 39.75 74.21875 46.484375 68.546875 
Q 53.21875 62.890625 53.21875 53.421875 
Q 53.21875 48.921875 51.53125 44.890625 
Q 49.859375 40.875 45.40625 35.40625 
Q 44.1875 33.984375 37.640625 27.21875 
Q 31.109375 20.453125 19.1875 8.296875 
z
" id="DejaVuSans-50"/>
       <path d="M 31.78125 66.40625 
Q 24.171875 66.40625 20.328125 58.90625 
Q 16.5 51.421875 16.5 36.375 
Q 16.5 21.390625 20.328125 13.890625 
Q 24.171875 6.390625 31.78125 6.390625 
Q 39.453125 6.390625 43.28125 13.890625 
Q 47.125 21.390625 47.125 36.375 
Q 47.125 51.421875 43.28125 58.90625 
Q 39.453125 66.40625 31.78125 66.40625 
z
M 31.78125 74.21875 
Q 44.046875 74.21875 50.515625 64.515625 
Q 56.984375 54.828125 56.984375 36.375 
Q 56.984375 17.96875 50.515625 8.265625 
Q 44.046875 -1.421875 31.78125 -1.421875 
Q 19.53125 -1.421875 13.0625 8.265625 
Q 6.59375 17.96875 6.59375 36.375 
Q 6.59375 54.828125 13.0625 64.515625 
Q 19.53125 74.21875 31.78125 74.21875 
z
" id="DejaVuSans-48"/>
       <path d="M 4.890625 31.390625 
L 31.203125 31.390625 
L 31.203125 23.390625 
L 4.890625 23.390625 
z
" id="DejaVuSans-45"/>
       <path d="M 40.578125 39.3125 
Q 47.65625 37.796875 51.625 33 
Q 55.609375 28.21875 55.609375 21.1875 
Q 55.609375 10.40625 48.1875 4.484375 
Q 40.765625 -1.421875 27.09375 -1.421875 
Q 22.515625 -1.421875 17.65625 -0.515625 
Q 12.796875 0.390625 7.625 2.203125 
L 7.625 11.71875 
Q 11.71875 9.328125 16.59375 8.109375 
Q 21.484375 6.890625 26.8125 6.890625 
Q 36.078125 6.890625 40.9375 10.546875 
Q 45.796875 14.203125 45.796875 21.1875 
Q 45.796875 27.640625 41.28125 31.265625 
Q 36.765625 34.90625 28.71875 34.90625 
L 20.21875 34.90625 
L 20.21875 43.015625 
L 29.109375 43.015625 
Q 36.375 43.015625 40.234375 45.921875 
Q 44.09375 48.828125 44.09375 54.296875 
Q 44.09375 59.90625 40.109375 62.90625 
Q 36.140625 65.921875 28.71875 65.921875 
Q 24.65625 65.921875 20.015625 65.03125 
Q 15.375 64.15625 9.8125 62.3125 
L 9.8125 71.09375 
Q 15.4375 72.65625 20.34375 73.4375 
Q 25.25 74.21875 29.59375 74.21875 
Q 40.828125 74.21875 47.359375 69.109375 
Q 53.90625 64.015625 53.90625 55.328125 
Q 53.90625 49.265625 50.4375 45.09375 
Q 46.96875 40.921875 40.578125 39.3125 
z
" id="DejaVuSans-51"/>
      </defs>
      <g transform="translate(18.539195 544.452384)rotate(-30)scale(0.13 -0.13)">
       <use xlink:href="#DejaVuSans-50"/>
       <use x="63.623047" xlink:href="#DejaVuSans-48"/>
       <use x="127.246094" xlink:href="#DejaVuSans-50"/>
       <use x="190.869141" xlink:href="#DejaVuSans-48"/>
       <use x="254.492188" xlink:href="#DejaVuSans-45"/>
       <use x="290.576172" xlink:href="#DejaVuSans-48"/>
       <use x="354.199219" xlink:href="#DejaVuSans-51"/>
      </g>
     </g>
    </g>
    <g id="xtick_2">
     <g id="line2d_2">
      <g>
       <use style="stroke:#000000;stroke-width:0.8;" x="198.525224" xlink:href="#mad2f55ed48" y="501.738984"/>
      </g>
     </g>
     <g id="text_2">
      <!-- 2020-04 -->
      <defs>
       <path d="M 37.796875 64.3125 
L 12.890625 25.390625 
L 37.796875 25.390625 
z
M 35.203125 72.90625 
L 47.609375 72.90625 
L 47.609375 25.390625 
L 58.015625 25.390625 
L 58.015625 17.1875 
L 47.609375 17.1875 
L 47.609375 0 
L 37.796875 0 
L 37.796875 17.1875 
L 4.890625 17.1875 
L 4.890625 26.703125 
z
" id="DejaVuSans-52"/>
      </defs>
      <g transform="translate(150.132957 544.452384)rotate(-30)scale(0.13 -0.13)">
       <use xlink:href="#DejaVuSans-50"/>
       <use x="63.623047" xlink:href="#DejaVuSans-48"/>
       <use x="127.246094" xlink:href="#DejaVuSans-50"/>
       <use x="190.869141" xlink:href="#DejaVuSans-48"/>
       <use x="254.492188" xlink:href="#DejaVuSans-45"/>
       <use x="290.576172" xlink:href="#DejaVuSans-48"/>
       <use x="354.199219" xlink:href="#DejaVuSans-52"/>
      </g>
     </g>
    </g>
    <g id="xtick_3">
     <g id="line2d_3">
      <g>
       <use style="stroke:#000000;stroke-width:0.8;" x="325.874026" xlink:href="#mad2f55ed48" y="501.738984"/>
      </g>
     </g>
     <g id="text_3">
      <!-- 2020-05 -->
      <defs>
       <path d="M 10.796875 72.90625 
L 49.515625 72.90625 
L 49.515625 64.59375 
L 19.828125 64.59375 
L 19.828125 46.734375 
Q 21.96875 47.46875 24.109375 47.828125 
Q 26.265625 48.1875 28.421875 48.1875 
Q 40.625 48.1875 47.75 41.5 
Q 54.890625 34.8125 54.890625 23.390625 
Q 54.890625 11.625 47.5625 5.09375 
Q 40.234375 -1.421875 26.90625 -1.421875 
Q 22.3125 -1.421875 17.546875 -0.640625 
Q 12.796875 0.140625 7.71875 1.703125 
L 7.71875 11.625 
Q 12.109375 9.234375 16.796875 8.0625 
Q 21.484375 6.890625 26.703125 6.890625 
Q 35.15625 6.890625 40.078125 11.328125 
Q 45.015625 15.765625 45.015625 23.390625 
Q 45.015625 31 40.078125 35.4375 
Q 35.15625 39.890625 26.703125 39.890625 
Q 22.75 39.890625 18.8125 39.015625 
Q 14.890625 38.140625 10.796875 36.28125 
z
" id="DejaVuSans-53"/>
      </defs>
      <g transform="translate(277.481759 544.452384)rotate(-30)scale(0.13 -0.13)">
       <use xlink:href="#DejaVuSans-50"/>
       <use x="63.623047" xlink:href="#DejaVuSans-48"/>
       <use x="127.246094" xlink:href="#DejaVuSans-50"/>
       <use x="190.869141" xlink:href="#DejaVuSans-48"/>
       <use x="254.492188" xlink:href="#DejaVuSans-45"/>
       <use x="290.576172" xlink:href="#DejaVuSans-48"/>
       <use x="354.199219" xlink:href="#DejaVuSans-53"/>
      </g>
     </g>
    </g>
    <g id="xtick_4">
     <g id="line2d_4">
      <g>
       <use style="stroke:#000000;stroke-width:0.8;" x="457.467788" xlink:href="#mad2f55ed48" y="501.738984"/>
      </g>
     </g>
     <g id="text_4">
      <!-- 2020-06 -->
      <defs>
       <path d="M 33.015625 40.375 
Q 26.375 40.375 22.484375 35.828125 
Q 18.609375 31.296875 18.609375 23.390625 
Q 18.609375 15.53125 22.484375 10.953125 
Q 26.375 6.390625 33.015625 6.390625 
Q 39.65625 6.390625 43.53125 10.953125 
Q 47.40625 15.53125 47.40625 23.390625 
Q 47.40625 31.296875 43.53125 35.828125 
Q 39.65625 40.375 33.015625 40.375 
z
M 52.59375 71.296875 
L 52.59375 62.3125 
Q 48.875 64.0625 45.09375 64.984375 
Q 41.3125 65.921875 37.59375 65.921875 
Q 27.828125 65.921875 22.671875 59.328125 
Q 17.53125 52.734375 16.796875 39.40625 
Q 19.671875 43.65625 24.015625 45.921875 
Q 28.375 48.1875 33.59375 48.1875 
Q 44.578125 48.1875 50.953125 41.515625 
Q 57.328125 34.859375 57.328125 23.390625 
Q 57.328125 12.15625 50.6875 5.359375 
Q 44.046875 -1.421875 33.015625 -1.421875 
Q 20.359375 -1.421875 13.671875 8.265625 
Q 6.984375 17.96875 6.984375 36.375 
Q 6.984375 53.65625 15.1875 63.9375 
Q 23.390625 74.21875 37.203125 74.21875 
Q 40.921875 74.21875 44.703125 73.484375 
Q 48.484375 72.75 52.59375 71.296875 
z
" id="DejaVuSans-54"/>
      </defs>
      <g transform="translate(409.075521 544.452384)rotate(-30)scale(0.13 -0.13)">
       <use xlink:href="#DejaVuSans-50"/>
       <use x="63.623047" xlink:href="#DejaVuSans-48"/>
       <use x="127.246094" xlink:href="#DejaVuSans-50"/>
       <use x="190.869141" xlink:href="#DejaVuSans-48"/>
       <use x="254.492188" xlink:href="#DejaVuSans-45"/>
       <use x="290.576172" xlink:href="#DejaVuSans-48"/>
       <use x="354.199219" xlink:href="#DejaVuSans-54"/>
      </g>
     </g>
    </g>
    <g id="xtick_5">
     <g id="line2d_5">
      <g>
       <use style="stroke:#000000;stroke-width:0.8;" x="584.816589" xlink:href="#mad2f55ed48" y="501.738984"/>
      </g>
     </g>
     <g id="text_5">
      <!-- 2020-07 -->
      <defs>
       <path d="M 8.203125 72.90625 
L 55.078125 72.90625 
L 55.078125 68.703125 
L 28.609375 0 
L 18.3125 0 
L 43.21875 64.59375 
L 8.203125 64.59375 
z
" id="DejaVuSans-55"/>
      </defs>
      <g transform="translate(536.424322 544.452384)rotate(-30)scale(0.13 -0.13)">
       <use xlink:href="#DejaVuSans-50"/>
       <use x="63.623047" xlink:href="#DejaVuSans-48"/>
       <use x="127.246094" xlink:href="#DejaVuSans-50"/>
       <use x="190.869141" xlink:href="#DejaVuSans-48"/>
       <use x="254.492188" xlink:href="#DejaVuSans-45"/>
       <use x="290.576172" xlink:href="#DejaVuSans-48"/>
       <use x="354.199219" xlink:href="#DejaVuSans-55"/>
      </g>
     </g>
    </g>
    <g id="xtick_6">
     <g id="line2d_6">
      <g>
       <use style="stroke:#000000;stroke-width:0.8;" x="716.410351" xlink:href="#mad2f55ed48" y="501.738984"/>
      </g>
     </g>
     <g id="text_6">
      <!-- 2020-08 -->
      <defs>
       <path d="M 31.78125 34.625 
Q 24.75 34.625 20.71875 30.859375 
Q 16.703125 27.09375 16.703125 20.515625 
Q 16.703125 13.921875 20.71875 10.15625 
Q 24.75 6.390625 31.78125 6.390625 
Q 38.8125 6.390625 42.859375 10.171875 
Q 46.921875 13.96875 46.921875 20.515625 
Q 46.921875 27.09375 42.890625 30.859375 
Q 38.875 34.625 31.78125 34.625 
z
M 21.921875 38.8125 
Q 15.578125 40.375 12.03125 44.71875 
Q 8.5 49.078125 8.5 55.328125 
Q 8.5 64.0625 14.71875 69.140625 
Q 20.953125 74.21875 31.78125 74.21875 
Q 42.671875 74.21875 48.875 69.140625 
Q 55.078125 64.0625 55.078125 55.328125 
Q 55.078125 49.078125 51.53125 44.71875 
Q 48 40.375 41.703125 38.8125 
Q 48.828125 37.15625 52.796875 32.3125 
Q 56.78125 27.484375 56.78125 20.515625 
Q 56.78125 9.90625 50.3125 4.234375 
Q 43.84375 -1.421875 31.78125 -1.421875 
Q 19.734375 -1.421875 13.25 4.234375 
Q 6.78125 9.90625 6.78125 20.515625 
Q 6.78125 27.484375 10.78125 32.3125 
Q 14.796875 37.15625 21.921875 38.8125 
z
M 18.3125 54.390625 
Q 18.3125 48.734375 21.84375 45.5625 
Q 25.390625 42.390625 31.78125 42.390625 
Q 38.140625 42.390625 41.71875 45.5625 
Q 45.3125 48.734375 45.3125 54.390625 
Q 45.3125 60.0625 41.71875 63.234375 
Q 38.140625 66.40625 31.78125 66.40625 
Q 25.390625 66.40625 21.84375 63.234375 
Q 18.3125 60.0625 18.3125 54.390625 
z
" id="DejaVuSans-56"/>
      </defs>
      <g transform="translate(668.018084 544.452384)rotate(-30)scale(0.13 -0.13)">
       <use xlink:href="#DejaVuSans-50"/>
       <use x="63.623047" xlink:href="#DejaVuSans-48"/>
       <use x="127.246094" xlink:href="#DejaVuSans-50"/>
       <use x="190.869141" xlink:href="#DejaVuSans-48"/>
       <use x="254.492188" xlink:href="#DejaVuSans-45"/>
       <use x="290.576172" xlink:href="#DejaVuSans-48"/>
       <use x="354.199219" xlink:href="#DejaVuSans-56"/>
      </g>
     </g>
    </g>
    <g id="xtick_7">
     <g id="line2d_7">
      <g>
       <use style="stroke:#000000;stroke-width:0.8;" x="848.004113" xlink:href="#mad2f55ed48" y="501.738984"/>
      </g>
     </g>
     <g id="text_7">
      <!-- 2020-09 -->
      <defs>
       <path d="M 10.984375 1.515625 
L 10.984375 10.5 
Q 14.703125 8.734375 18.5 7.8125 
Q 22.3125 6.890625 25.984375 6.890625 
Q 35.75 6.890625 40.890625 13.453125 
Q 46.046875 20.015625 46.78125 33.40625 
Q 43.953125 29.203125 39.59375 26.953125 
Q 35.25 24.703125 29.984375 24.703125 
Q 19.046875 24.703125 12.671875 31.3125 
Q 6.296875 37.9375 6.296875 49.421875 
Q 6.296875 60.640625 12.9375 67.421875 
Q 19.578125 74.21875 30.609375 74.21875 
Q 43.265625 74.21875 49.921875 64.515625 
Q 56.59375 54.828125 56.59375 36.375 
Q 56.59375 19.140625 48.40625 8.859375 
Q 40.234375 -1.421875 26.421875 -1.421875 
Q 22.703125 -1.421875 18.890625 -0.6875 
Q 15.09375 0.046875 10.984375 1.515625 
z
M 30.609375 32.421875 
Q 37.25 32.421875 41.125 36.953125 
Q 45.015625 41.5 45.015625 49.421875 
Q 45.015625 57.28125 41.125 61.84375 
Q 37.25 66.40625 30.609375 66.40625 
Q 23.96875 66.40625 20.09375 61.84375 
Q 16.21875 57.28125 16.21875 49.421875 
Q 16.21875 41.5 20.09375 36.953125 
Q 23.96875 32.421875 30.609375 32.421875 
z
" id="DejaVuSans-57"/>
      </defs>
      <g transform="translate(799.611846 544.452384)rotate(-30)scale(0.13 -0.13)">
       <use xlink:href="#DejaVuSans-50"/>
       <use x="63.623047" xlink:href="#DejaVuSans-48"/>
       <use x="127.246094" xlink:href="#DejaVuSans-50"/>
       <use x="190.869141" xlink:href="#DejaVuSans-48"/>
       <use x="254.492188" xlink:href="#DejaVuSans-45"/>
       <use x="290.576172" xlink:href="#DejaVuSans-48"/>
       <use x="354.199219" xlink:href="#DejaVuSans-57"/>
      </g>
     </g>
    </g>
    <g id="xtick_8">
     <g id="line2d_8">
      <g>
       <use style="stroke:#000000;stroke-width:0.8;" x="975.352915" xlink:href="#mad2f55ed48" y="501.738984"/>
      </g>
     </g>
     <g id="text_8">
      <!-- 2020-10 -->
      <defs>
       <path d="M 12.40625 8.296875 
L 28.515625 8.296875 
L 28.515625 63.921875 
L 10.984375 60.40625 
L 10.984375 69.390625 
L 28.421875 72.90625 
L 38.28125 72.90625 
L 38.28125 8.296875 
L 54.390625 8.296875 
L 54.390625 0 
L 12.40625 0 
z
" id="DejaVuSans-49"/>
      </defs>
      <g transform="translate(926.960648 544.452384)rotate(-30)scale(0.13 -0.13)">
       <use xlink:href="#DejaVuSans-50"/>
       <use x="63.623047" xlink:href="#DejaVuSans-48"/>
       <use x="127.246094" xlink:href="#DejaVuSans-50"/>
       <use x="190.869141" xlink:href="#DejaVuSans-48"/>
       <use x="254.492188" xlink:href="#DejaVuSans-45"/>
       <use x="290.576172" xlink:href="#DejaVuSans-49"/>
       <use x="354.199219" xlink:href="#DejaVuSans-48"/>
      </g>
     </g>
    </g>
    <g id="xtick_9">
     <g id="line2d_9">
      <g>
       <use style="stroke:#000000;stroke-width:0.8;" x="1106.946677" xlink:href="#mad2f55ed48" y="501.738984"/>
      </g>
     </g>
     <g id="text_9">
      <!-- 2020-11 -->
      <g transform="translate(1058.55441 544.452384)rotate(-30)scale(0.13 -0.13)">
       <use xlink:href="#DejaVuSans-50"/>
       <use x="63.623047" xlink:href="#DejaVuSans-48"/>
       <use x="127.246094" xlink:href="#DejaVuSans-50"/>
       <use x="190.869141" xlink:href="#DejaVuSans-48"/>
       <use x="254.492188" xlink:href="#DejaVuSans-45"/>
       <use x="290.576172" xlink:href="#DejaVuSans-49"/>
       <use x="354.199219" xlink:href="#DejaVuSans-49"/>
      </g>
     </g>
    </g>
   </g>
   <g id="matplotlib.axis_2">
    <g id="ytick_1">
     <g id="line2d_10">
      <path clip-path="url(#p19a015fc29)" d="M 62.89875 485.418984 
L 1178.89875 485.418984 
" style="fill:none;stroke:#b0b0b0;stroke-linecap:square;stroke-width:0.8;"/>
     </g>
     <g id="line2d_11">
      <defs>
       <path d="M 0 0 
L -3.5 0 
" id="m032fe81568" style="stroke:#000000;stroke-width:0.8;"/>
      </defs>
      <g>
       <use style="stroke:#000000;stroke-width:0.8;" x="62.89875" xlink:href="#m032fe81568" y="485.418984"/>
      </g>
     </g>
     <g id="text_10">
      <!-- 0 -->
      <g transform="translate(47.6275 490.357969)scale(0.13 -0.13)">
       <use xlink:href="#DejaVuSans-48"/>
      </g>
     </g>
    </g>
    <g id="ytick_2">
     <g id="line2d_12">
      <path clip-path="url(#p19a015fc29)" d="M 62.89875 469.098984 
L 1178.89875 469.098984 
" style="fill:none;stroke:#b0b0b0;stroke-linecap:square;stroke-width:0.8;"/>
     </g>
     <g id="line2d_13">
      <g>
       <use style="stroke:#000000;stroke-width:0.8;" x="62.89875" xlink:href="#m032fe81568" y="469.098984"/>
      </g>
     </g>
     <g id="text_11">
      <!-- 100 -->
      <g transform="translate(31.085 474.037969)scale(0.13 -0.13)">
       <use xlink:href="#DejaVuSans-49"/>
       <use x="63.623047" xlink:href="#DejaVuSans-48"/>
       <use x="127.246094" xlink:href="#DejaVuSans-48"/>
      </g>
     </g>
    </g>
    <g id="ytick_3">
     <g id="line2d_14">
      <path clip-path="url(#p19a015fc29)" d="M 62.89875 452.778984 
L 1178.89875 452.778984 
" style="fill:none;stroke:#b0b0b0;stroke-linecap:square;stroke-width:0.8;"/>
     </g>
     <g id="line2d_15">
      <g>
       <use style="stroke:#000000;stroke-width:0.8;" x="62.89875" xlink:href="#m032fe81568" y="452.778984"/>
      </g>
     </g>
     <g id="text_12">
      <!-- 200 -->
      <g transform="translate(31.085 457.717969)scale(0.13 -0.13)">
       <use xlink:href="#DejaVuSans-50"/>
       <use x="63.623047" xlink:href="#DejaVuSans-48"/>
       <use x="127.246094" xlink:href="#DejaVuSans-48"/>
      </g>
     </g>
    </g>
    <g id="ytick_4">
     <g id="line2d_16">
      <path clip-path="url(#p19a015fc29)" d="M 62.89875 436.458984 
L 1178.89875 436.458984 
" style="fill:none;stroke:#b0b0b0;stroke-linecap:square;stroke-width:0.8;"/>
     </g>
     <g id="line2d_17">
      <g>
       <use style="stroke:#000000;stroke-width:0.8;" x="62.89875" xlink:href="#m032fe81568" y="436.458984"/>
      </g>
     </g>
     <g id="text_13">
      <!-- 300 -->
      <g transform="translate(31.085 441.397969)scale(0.13 -0.13)">
       <use xlink:href="#DejaVuSans-51"/>
       <use x="63.623047" xlink:href="#DejaVuSans-48"/>
       <use x="127.246094" xlink:href="#DejaVuSans-48"/>
      </g>
     </g>
    </g>
    <g id="ytick_5">
     <g id="line2d_18">
      <path clip-path="url(#p19a015fc29)" d="M 62.89875 420.138984 
L 1178.89875 420.138984 
" style="fill:none;stroke:#b0b0b0;stroke-linecap:square;stroke-width:0.8;"/>
     </g>
     <g id="line2d_19">
      <g>
       <use style="stroke:#000000;stroke-width:0.8;" x="62.89875" xlink:href="#m032fe81568" y="420.138984"/>
      </g>
     </g>
     <g id="text_14">
      <!-- 400 -->
      <g transform="translate(31.085 425.077969)scale(0.13 -0.13)">
       <use xlink:href="#DejaVuSans-52"/>
       <use x="63.623047" xlink:href="#DejaVuSans-48"/>
       <use x="127.246094" xlink:href="#DejaVuSans-48"/>
      </g>
     </g>
    </g>
    <g id="ytick_6">
     <g id="line2d_20">
      <path clip-path="url(#p19a015fc29)" d="M 62.89875 403.818984 
L 1178.89875 403.818984 
" style="fill:none;stroke:#b0b0b0;stroke-linecap:square;stroke-width:0.8;"/>
     </g>
     <g id="line2d_21">
      <g>
       <use style="stroke:#000000;stroke-width:0.8;" x="62.89875" xlink:href="#m032fe81568" y="403.818984"/>
      </g>
     </g>
     <g id="text_15">
      <!-- 500 -->
      <g transform="translate(31.085 408.757969)scale(0.13 -0.13)">
       <use xlink:href="#DejaVuSans-53"/>
       <use x="63.623047" xlink:href="#DejaVuSans-48"/>
       <use x="127.246094" xlink:href="#DejaVuSans-48"/>
      </g>
     </g>
    </g>
    <g id="ytick_7">
     <g id="line2d_22">
      <path clip-path="url(#p19a015fc29)" d="M 62.89875 387.498984 
L 1178.89875 387.498984 
" style="fill:none;stroke:#b0b0b0;stroke-linecap:square;stroke-width:0.8;"/>
     </g>
     <g id="line2d_23">
      <g>
       <use style="stroke:#000000;stroke-width:0.8;" x="62.89875" xlink:href="#m032fe81568" y="387.498984"/>
      </g>
     </g>
     <g id="text_16">
      <!-- 600 -->
      <g transform="translate(31.085 392.437969)scale(0.13 -0.13)">
       <use xlink:href="#DejaVuSans-54"/>
       <use x="63.623047" xlink:href="#DejaVuSans-48"/>
       <use x="127.246094" xlink:href="#DejaVuSans-48"/>
      </g>
     </g>
    </g>
    <g id="ytick_8">
     <g id="line2d_24">
      <path clip-path="url(#p19a015fc29)" d="M 62.89875 371.178984 
L 1178.89875 371.178984 
" style="fill:none;stroke:#b0b0b0;stroke-linecap:square;stroke-width:0.8;"/>
     </g>
     <g id="line2d_25">
      <g>
       <use style="stroke:#000000;stroke-width:0.8;" x="62.89875" xlink:href="#m032fe81568" y="371.178984"/>
      </g>
     </g>
     <g id="text_17">
      <!-- 700 -->
      <g transform="translate(31.085 376.117969)scale(0.13 -0.13)">
       <use xlink:href="#DejaVuSans-55"/>
       <use x="63.623047" xlink:href="#DejaVuSans-48"/>
       <use x="127.246094" xlink:href="#DejaVuSans-48"/>
      </g>
     </g>
    </g>
    <g id="ytick_9">
     <g id="line2d_26">
      <path clip-path="url(#p19a015fc29)" d="M 62.89875 354.858984 
L 1178.89875 354.858984 
" style="fill:none;stroke:#b0b0b0;stroke-linecap:square;stroke-width:0.8;"/>
     </g>
     <g id="line2d_27">
      <g>
       <use style="stroke:#000000;stroke-width:0.8;" x="62.89875" xlink:href="#m032fe81568" y="354.858984"/>
      </g>
     </g>
     <g id="text_18">
      <!-- 800 -->
      <g transform="translate(31.085 359.797969)scale(0.13 -0.13)">
       <use xlink:href="#DejaVuSans-56"/>
       <use x="63.623047" xlink:href="#DejaVuSans-48"/>
       <use x="127.246094" xlink:href="#DejaVuSans-48"/>
      </g>
     </g>
    </g>
    <g id="ytick_10">
     <g id="line2d_28">
      <path clip-path="url(#p19a015fc29)" d="M 62.89875 338.538984 
L 1178.89875 338.538984 
" style="fill:none;stroke:#b0b0b0;stroke-linecap:square;stroke-width:0.8;"/>
     </g>
     <g id="line2d_29">
      <g>
       <use style="stroke:#000000;stroke-width:0.8;" x="62.89875" xlink:href="#m032fe81568" y="338.538984"/>
      </g>
     </g>
     <g id="text_19">
      <!-- 900 -->
      <g transform="translate(31.085 343.477969)scale(0.13 -0.13)">
       <use xlink:href="#DejaVuSans-57"/>
       <use x="63.623047" xlink:href="#DejaVuSans-48"/>
       <use x="127.246094" xlink:href="#DejaVuSans-48"/>
      </g>
     </g>
    </g>
    <g id="ytick_11">
     <g id="line2d_30">
      <path clip-path="url(#p19a015fc29)" d="M 62.89875 322.218984 
L 1178.89875 322.218984 
" style="fill:none;stroke:#b0b0b0;stroke-linecap:square;stroke-width:0.8;"/>
     </g>
     <g id="line2d_31">
      <g>
       <use style="stroke:#000000;stroke-width:0.8;" x="62.89875" xlink:href="#m032fe81568" y="322.218984"/>
      </g>
     </g>
     <g id="text_20">
      <!-- 1000 -->
      <g transform="translate(22.81375 327.157969)scale(0.13 -0.13)">
       <use xlink:href="#DejaVuSans-49"/>
       <use x="63.623047" xlink:href="#DejaVuSans-48"/>
       <use x="127.246094" xlink:href="#DejaVuSans-48"/>
       <use x="190.869141" xlink:href="#DejaVuSans-48"/>
      </g>
     </g>
    </g>
    <g id="ytick_12">
     <g id="line2d_32">
      <path clip-path="url(#p19a015fc29)" d="M 62.89875 305.898984 
L 1178.89875 305.898984 
" style="fill:none;stroke:#b0b0b0;stroke-linecap:square;stroke-width:0.8;"/>
     </g>
     <g id="line2d_33">
      <g>
       <use style="stroke:#000000;stroke-width:0.8;" x="62.89875" xlink:href="#m032fe81568" y="305.898984"/>
      </g>
     </g>
     <g id="text_21">
      <!-- 1100 -->
      <g transform="translate(22.81375 310.837969)scale(0.13 -0.13)">
       <use xlink:href="#DejaVuSans-49"/>
       <use x="63.623047" xlink:href="#DejaVuSans-49"/>
       <use x="127.246094" xlink:href="#DejaVuSans-48"/>
       <use x="190.869141" xlink:href="#DejaVuSans-48"/>
      </g>
     </g>
    </g>
    <g id="ytick_13">
     <g id="line2d_34">
      <path clip-path="url(#p19a015fc29)" d="M 62.89875 289.578984 
L 1178.89875 289.578984 
" style="fill:none;stroke:#b0b0b0;stroke-linecap:square;stroke-width:0.8;"/>
     </g>
     <g id="line2d_35">
      <g>
       <use style="stroke:#000000;stroke-width:0.8;" x="62.89875" xlink:href="#m032fe81568" y="289.578984"/>
      </g>
     </g>
     <g id="text_22">
      <!-- 1200 -->
      <g transform="translate(22.81375 294.517969)scale(0.13 -0.13)">
       <use xlink:href="#DejaVuSans-49"/>
       <use x="63.623047" xlink:href="#DejaVuSans-50"/>
       <use x="127.246094" xlink:href="#DejaVuSans-48"/>
       <use x="190.869141" xlink:href="#DejaVuSans-48"/>
      </g>
     </g>
    </g>
    <g id="ytick_14">
     <g id="line2d_36">
      <path clip-path="url(#p19a015fc29)" d="M 62.89875 273.258984 
L 1178.89875 273.258984 
" style="fill:none;stroke:#b0b0b0;stroke-linecap:square;stroke-width:0.8;"/>
     </g>
     <g id="line2d_37">
      <g>
       <use style="stroke:#000000;stroke-width:0.8;" x="62.89875" xlink:href="#m032fe81568" y="273.258984"/>
      </g>
     </g>
     <g id="text_23">
      <!-- 1300 -->
      <g transform="translate(22.81375 278.197969)scale(0.13 -0.13)">
       <use xlink:href="#DejaVuSans-49"/>
       <use x="63.623047" xlink:href="#DejaVuSans-51"/>
       <use x="127.246094" xlink:href="#DejaVuSans-48"/>
       <use x="190.869141" xlink:href="#DejaVuSans-48"/>
      </g>
     </g>
    </g>
    <g id="ytick_15">
     <g id="line2d_38">
      <path clip-path="url(#p19a015fc29)" d="M 62.89875 256.938984 
L 1178.89875 256.938984 
" style="fill:none;stroke:#b0b0b0;stroke-linecap:square;stroke-width:0.8;"/>
     </g>
     <g id="line2d_39">
      <g>
       <use style="stroke:#000000;stroke-width:0.8;" x="62.89875" xlink:href="#m032fe81568" y="256.938984"/>
      </g>
     </g>
     <g id="text_24">
      <!-- 1400 -->
      <g transform="translate(22.81375 261.877969)scale(0.13 -0.13)">
       <use xlink:href="#DejaVuSans-49"/>
       <use x="63.623047" xlink:href="#DejaVuSans-52"/>
       <use x="127.246094" xlink:href="#DejaVuSans-48"/>
       <use x="190.869141" xlink:href="#DejaVuSans-48"/>
      </g>
     </g>
    </g>
    <g id="ytick_16">
     <g id="line2d_40">
      <path clip-path="url(#p19a015fc29)" d="M 62.89875 240.618984 
L 1178.89875 240.618984 
" style="fill:none;stroke:#b0b0b0;stroke-linecap:square;stroke-width:0.8;"/>
     </g>
     <g id="line2d_41">
      <g>
       <use style="stroke:#000000;stroke-width:0.8;" x="62.89875" xlink:href="#m032fe81568" y="240.618984"/>
      </g>
     </g>
     <g id="text_25">
      <!-- 1500 -->
      <g transform="translate(22.81375 245.557969)scale(0.13 -0.13)">
       <use xlink:href="#DejaVuSans-49"/>
       <use x="63.623047" xlink:href="#DejaVuSans-53"/>
       <use x="127.246094" xlink:href="#DejaVuSans-48"/>
       <use x="190.869141" xlink:href="#DejaVuSans-48"/>
      </g>
     </g>
    </g>
    <g id="ytick_17">
     <g id="line2d_42">
      <path clip-path="url(#p19a015fc29)" d="M 62.89875 224.298984 
L 1178.89875 224.298984 
" style="fill:none;stroke:#b0b0b0;stroke-linecap:square;stroke-width:0.8;"/>
     </g>
     <g id="line2d_43">
      <g>
       <use style="stroke:#000000;stroke-width:0.8;" x="62.89875" xlink:href="#m032fe81568" y="224.298984"/>
      </g>
     </g>
     <g id="text_26">
      <!-- 1600 -->
      <g transform="translate(22.81375 229.237969)scale(0.13 -0.13)">
       <use xlink:href="#DejaVuSans-49"/>
       <use x="63.623047" xlink:href="#DejaVuSans-54"/>
       <use x="127.246094" xlink:href="#DejaVuSans-48"/>
       <use x="190.869141" xlink:href="#DejaVuSans-48"/>
      </g>
     </g>
    </g>
    <g id="ytick_18">
     <g id="line2d_44">
      <path clip-path="url(#p19a015fc29)" d="M 62.89875 207.978984 
L 1178.89875 207.978984 
" style="fill:none;stroke:#b0b0b0;stroke-linecap:square;stroke-width:0.8;"/>
     </g>
     <g id="line2d_45">
      <g>
       <use style="stroke:#000000;stroke-width:0.8;" x="62.89875" xlink:href="#m032fe81568" y="207.978984"/>
      </g>
     </g>
     <g id="text_27">
      <!-- 1700 -->
      <g transform="translate(22.81375 212.917969)scale(0.13 -0.13)">
       <use xlink:href="#DejaVuSans-49"/>
       <use x="63.623047" xlink:href="#DejaVuSans-55"/>
       <use x="127.246094" xlink:href="#DejaVuSans-48"/>
       <use x="190.869141" xlink:href="#DejaVuSans-48"/>
      </g>
     </g>
    </g>
    <g id="ytick_19">
     <g id="line2d_46">
      <path clip-path="url(#p19a015fc29)" d="M 62.89875 191.658984 
L 1178.89875 191.658984 
" style="fill:none;stroke:#b0b0b0;stroke-linecap:square;stroke-width:0.8;"/>
     </g>
     <g id="line2d_47">
      <g>
       <use style="stroke:#000000;stroke-width:0.8;" x="62.89875" xlink:href="#m032fe81568" y="191.658984"/>
      </g>
     </g>
     <g id="text_28">
      <!-- 1800 -->
      <g transform="translate(22.81375 196.597969)scale(0.13 -0.13)">
       <use xlink:href="#DejaVuSans-49"/>
       <use x="63.623047" xlink:href="#DejaVuSans-56"/>
       <use x="127.246094" xlink:href="#DejaVuSans-48"/>
       <use x="190.869141" xlink:href="#DejaVuSans-48"/>
      </g>
     </g>
    </g>
    <g id="ytick_20">
     <g id="line2d_48">
      <path clip-path="url(#p19a015fc29)" d="M 62.89875 175.338984 
L 1178.89875 175.338984 
" style="fill:none;stroke:#b0b0b0;stroke-linecap:square;stroke-width:0.8;"/>
     </g>
     <g id="line2d_49">
      <g>
       <use style="stroke:#000000;stroke-width:0.8;" x="62.89875" xlink:href="#m032fe81568" y="175.338984"/>
      </g>
     </g>
     <g id="text_29">
      <!-- 1900 -->
      <g transform="translate(22.81375 180.277969)scale(0.13 -0.13)">
       <use xlink:href="#DejaVuSans-49"/>
       <use x="63.623047" xlink:href="#DejaVuSans-57"/>
       <use x="127.246094" xlink:href="#DejaVuSans-48"/>
       <use x="190.869141" xlink:href="#DejaVuSans-48"/>
      </g>
     </g>
    </g>
    <g id="ytick_21">
     <g id="line2d_50">
      <path clip-path="url(#p19a015fc29)" d="M 62.89875 159.018984 
L 1178.89875 159.018984 
" style="fill:none;stroke:#b0b0b0;stroke-linecap:square;stroke-width:0.8;"/>
     </g>
     <g id="line2d_51">
      <g>
       <use style="stroke:#000000;stroke-width:0.8;" x="62.89875" xlink:href="#m032fe81568" y="159.018984"/>
      </g>
     </g>
     <g id="text_30">
      <!-- 2000 -->
      <g transform="translate(22.81375 163.957969)scale(0.13 -0.13)">
       <use xlink:href="#DejaVuSans-50"/>
       <use x="63.623047" xlink:href="#DejaVuSans-48"/>
       <use x="127.246094" xlink:href="#DejaVuSans-48"/>
       <use x="190.869141" xlink:href="#DejaVuSans-48"/>
      </g>
     </g>
    </g>
    <g id="ytick_22">
     <g id="line2d_52">
      <path clip-path="url(#p19a015fc29)" d="M 62.89875 142.698984 
L 1178.89875 142.698984 
" style="fill:none;stroke:#b0b0b0;stroke-linecap:square;stroke-width:0.8;"/>
     </g>
     <g id="line2d_53">
      <g>
       <use style="stroke:#000000;stroke-width:0.8;" x="62.89875" xlink:href="#m032fe81568" y="142.698984"/>
      </g>
     </g>
     <g id="text_31">
      <!-- 2100 -->
      <g transform="translate(22.81375 147.637969)scale(0.13 -0.13)">
       <use xlink:href="#DejaVuSans-50"/>
       <use x="63.623047" xlink:href="#DejaVuSans-49"/>
       <use x="127.246094" xlink:href="#DejaVuSans-48"/>
       <use x="190.869141" xlink:href="#DejaVuSans-48"/>
      </g>
     </g>
    </g>
    <g id="ytick_23">
     <g id="line2d_54">
      <path clip-path="url(#p19a015fc29)" d="M 62.89875 126.378984 
L 1178.89875 126.378984 
" style="fill:none;stroke:#b0b0b0;stroke-linecap:square;stroke-width:0.8;"/>
     </g>
     <g id="line2d_55">
      <g>
       <use style="stroke:#000000;stroke-width:0.8;" x="62.89875" xlink:href="#m032fe81568" y="126.378984"/>
      </g>
     </g>
     <g id="text_32">
      <!-- 2200 -->
      <g transform="translate(22.81375 131.317969)scale(0.13 -0.13)">
       <use xlink:href="#DejaVuSans-50"/>
       <use x="63.623047" xlink:href="#DejaVuSans-50"/>
       <use x="127.246094" xlink:href="#DejaVuSans-48"/>
       <use x="190.869141" xlink:href="#DejaVuSans-48"/>
      </g>
     </g>
    </g>
    <g id="ytick_24">
     <g id="line2d_56">
      <path clip-path="url(#p19a015fc29)" d="M 62.89875 110.058984 
L 1178.89875 110.058984 
" style="fill:none;stroke:#b0b0b0;stroke-linecap:square;stroke-width:0.8;"/>
     </g>
     <g id="line2d_57">
      <g>
       <use style="stroke:#000000;stroke-width:0.8;" x="62.89875" xlink:href="#m032fe81568" y="110.058984"/>
      </g>
     </g>
     <g id="text_33">
      <!-- 2300 -->
      <g transform="translate(22.81375 114.997969)scale(0.13 -0.13)">
       <use xlink:href="#DejaVuSans-50"/>
       <use x="63.623047" xlink:href="#DejaVuSans-51"/>
       <use x="127.246094" xlink:href="#DejaVuSans-48"/>
       <use x="190.869141" xlink:href="#DejaVuSans-48"/>
      </g>
     </g>
    </g>
    <g id="ytick_25">
     <g id="line2d_58">
      <path clip-path="url(#p19a015fc29)" d="M 62.89875 93.738984 
L 1178.89875 93.738984 
" style="fill:none;stroke:#b0b0b0;stroke-linecap:square;stroke-width:0.8;"/>
     </g>
     <g id="line2d_59">
      <g>
       <use style="stroke:#000000;stroke-width:0.8;" x="62.89875" xlink:href="#m032fe81568" y="93.738984"/>
      </g>
     </g>
     <g id="text_34">
      <!-- 2400 -->
      <g transform="translate(22.81375 98.677969)scale(0.13 -0.13)">
       <use xlink:href="#DejaVuSans-50"/>
       <use x="63.623047" xlink:href="#DejaVuSans-52"/>
       <use x="127.246094" xlink:href="#DejaVuSans-48"/>
       <use x="190.869141" xlink:href="#DejaVuSans-48"/>
      </g>
     </g>
    </g>
    <g id="ytick_26">
     <g id="line2d_60">
      <path clip-path="url(#p19a015fc29)" d="M 62.89875 77.418984 
L 1178.89875 77.418984 
" style="fill:none;stroke:#b0b0b0;stroke-linecap:square;stroke-width:0.8;"/>
     </g>
     <g id="line2d_61">
      <g>
       <use style="stroke:#000000;stroke-width:0.8;" x="62.89875" xlink:href="#m032fe81568" y="77.418984"/>
      </g>
     </g>
     <g id="text_35">
      <!-- 2500 -->
      <g transform="translate(22.81375 82.357969)scale(0.13 -0.13)">
       <use xlink:href="#DejaVuSans-50"/>
       <use x="63.623047" xlink:href="#DejaVuSans-53"/>
       <use x="127.246094" xlink:href="#DejaVuSans-48"/>
       <use x="190.869141" xlink:href="#DejaVuSans-48"/>
      </g>
     </g>
    </g>
    <g id="ytick_27">
     <g id="line2d_62">
      <path clip-path="url(#p19a015fc29)" d="M 62.89875 61.098984 
L 1178.89875 61.098984 
" style="fill:none;stroke:#b0b0b0;stroke-linecap:square;stroke-width:0.8;"/>
     </g>
     <g id="line2d_63">
      <g>
       <use style="stroke:#000000;stroke-width:0.8;" x="62.89875" xlink:href="#m032fe81568" y="61.098984"/>
      </g>
     </g>
     <g id="text_36">
      <!-- 2600 -->
      <g transform="translate(22.81375 66.037969)scale(0.13 -0.13)">
       <use xlink:href="#DejaVuSans-50"/>
       <use x="63.623047" xlink:href="#DejaVuSans-54"/>
       <use x="127.246094" xlink:href="#DejaVuSans-48"/>
       <use x="190.869141" xlink:href="#DejaVuSans-48"/>
      </g>
     </g>
    </g>
    <g id="ytick_28">
     <g id="line2d_64">
      <path clip-path="url(#p19a015fc29)" d="M 62.89875 44.778984 
L 1178.89875 44.778984 
" style="fill:none;stroke:#b0b0b0;stroke-linecap:square;stroke-width:0.8;"/>
     </g>
     <g id="line2d_65">
      <g>
       <use style="stroke:#000000;stroke-width:0.8;" x="62.89875" xlink:href="#m032fe81568" y="44.778984"/>
      </g>
     </g>
     <g id="text_37">
      <!-- 2700 -->
      <g transform="translate(22.81375 49.717969)scale(0.13 -0.13)">
       <use xlink:href="#DejaVuSans-50"/>
       <use x="63.623047" xlink:href="#DejaVuSans-55"/>
       <use x="127.246094" xlink:href="#DejaVuSans-48"/>
       <use x="190.869141" xlink:href="#DejaVuSans-48"/>
      </g>
     </g>
    </g>
    <g id="ytick_29">
     <g id="line2d_66">
      <path clip-path="url(#p19a015fc29)" d="M 62.89875 28.458984 
L 1178.89875 28.458984 
" style="fill:none;stroke:#b0b0b0;stroke-linecap:square;stroke-width:0.8;"/>
     </g>
     <g id="line2d_67">
      <g>
       <use style="stroke:#000000;stroke-width:0.8;" x="62.89875" xlink:href="#m032fe81568" y="28.458984"/>
      </g>
     </g>
     <g id="text_38">
      <!-- 2800 -->
      <g transform="translate(22.81375 33.397969)scale(0.13 -0.13)">
       <use xlink:href="#DejaVuSans-50"/>
       <use x="63.623047" xlink:href="#DejaVuSans-56"/>
       <use x="127.246094" xlink:href="#DejaVuSans-48"/>
       <use x="190.869141" xlink:href="#DejaVuSans-48"/>
      </g>
     </g>
    </g>
    <g id="ytick_30">
     <g id="line2d_68">
      <path clip-path="url(#p19a015fc29)" d="M 62.89875 12.138984 
L 1178.89875 12.138984 
" style="fill:none;stroke:#b0b0b0;stroke-linecap:square;stroke-width:0.8;"/>
     </g>
     <g id="line2d_69">
      <g>
       <use style="stroke:#000000;stroke-width:0.8;" x="62.89875" xlink:href="#m032fe81568" y="12.138984"/>
      </g>
     </g>
     <g id="text_39">
      <!-- 2900 -->
      <g transform="translate(22.81375 17.077969)scale(0.13 -0.13)">
       <use xlink:href="#DejaVuSans-50"/>
       <use x="63.623047" xlink:href="#DejaVuSans-57"/>
       <use x="127.246094" xlink:href="#DejaVuSans-48"/>
       <use x="190.869141" xlink:href="#DejaVuSans-48"/>
      </g>
     </g>
    </g>
    <g id="text_40">
     <!-- Anzahl von Fällen -->
     <defs>
      <path d="M 34.1875 63.1875 
L 20.796875 26.90625 
L 47.609375 26.90625 
z
M 28.609375 72.90625 
L 39.796875 72.90625 
L 67.578125 0 
L 57.328125 0 
L 50.6875 18.703125 
L 17.828125 18.703125 
L 11.1875 0 
L 0.78125 0 
z
" id="DejaVuSans-65"/>
      <path d="M 54.890625 33.015625 
L 54.890625 0 
L 45.90625 0 
L 45.90625 32.71875 
Q 45.90625 40.484375 42.875 44.328125 
Q 39.84375 48.1875 33.796875 48.1875 
Q 26.515625 48.1875 22.3125 43.546875 
Q 18.109375 38.921875 18.109375 30.90625 
L 18.109375 0 
L 9.078125 0 
L 9.078125 54.6875 
L 18.109375 54.6875 
L 18.109375 46.1875 
Q 21.34375 51.125 25.703125 53.5625 
Q 30.078125 56 35.796875 56 
Q 45.21875 56 50.046875 50.171875 
Q 54.890625 44.34375 54.890625 33.015625 
z
" id="DejaVuSans-110"/>
      <path d="M 5.515625 54.6875 
L 48.1875 54.6875 
L 48.1875 46.484375 
L 14.40625 7.171875 
L 48.1875 7.171875 
L 48.1875 0 
L 4.296875 0 
L 4.296875 8.203125 
L 38.09375 47.515625 
L 5.515625 47.515625 
z
" id="DejaVuSans-122"/>
      <path d="M 34.28125 27.484375 
Q 23.390625 27.484375 19.1875 25 
Q 14.984375 22.515625 14.984375 16.5 
Q 14.984375 11.71875 18.140625 8.90625 
Q 21.296875 6.109375 26.703125 6.109375 
Q 34.1875 6.109375 38.703125 11.40625 
Q 43.21875 16.703125 43.21875 25.484375 
L 43.21875 27.484375 
z
M 52.203125 31.203125 
L 52.203125 0 
L 43.21875 0 
L 43.21875 8.296875 
Q 40.140625 3.328125 35.546875 0.953125 
Q 30.953125 -1.421875 24.3125 -1.421875 
Q 15.921875 -1.421875 10.953125 3.296875 
Q 6 8.015625 6 15.921875 
Q 6 25.140625 12.171875 29.828125 
Q 18.359375 34.515625 30.609375 34.515625 
L 43.21875 34.515625 
L 43.21875 35.40625 
Q 43.21875 41.609375 39.140625 45 
Q 35.0625 48.390625 27.6875 48.390625 
Q 23 48.390625 18.546875 47.265625 
Q 14.109375 46.140625 10.015625 43.890625 
L 10.015625 52.203125 
Q 14.9375 54.109375 19.578125 55.046875 
Q 24.21875 56 28.609375 56 
Q 40.484375 56 46.34375 49.84375 
Q 52.203125 43.703125 52.203125 31.203125 
z
" id="DejaVuSans-97"/>
      <path d="M 54.890625 33.015625 
L 54.890625 0 
L 45.90625 0 
L 45.90625 32.71875 
Q 45.90625 40.484375 42.875 44.328125 
Q 39.84375 48.1875 33.796875 48.1875 
Q 26.515625 48.1875 22.3125 43.546875 
Q 18.109375 38.921875 18.109375 30.90625 
L 18.109375 0 
L 9.078125 0 
L 9.078125 75.984375 
L 18.109375 75.984375 
L 18.109375 46.1875 
Q 21.34375 51.125 25.703125 53.5625 
Q 30.078125 56 35.796875 56 
Q 45.21875 56 50.046875 50.171875 
Q 54.890625 44.34375 54.890625 33.015625 
z
" id="DejaVuSans-104"/>
      <path d="M 9.421875 75.984375 
L 18.40625 75.984375 
L 18.40625 0 
L 9.421875 0 
z
" id="DejaVuSans-108"/>
      <path id="DejaVuSans-32"/>
      <path d="M 2.984375 54.6875 
L 12.5 54.6875 
L 29.59375 8.796875 
L 46.6875 54.6875 
L 56.203125 54.6875 
L 35.6875 0 
L 23.484375 0 
z
" id="DejaVuSans-118"/>
      <path d="M 30.609375 48.390625 
Q 23.390625 48.390625 19.1875 42.75 
Q 14.984375 37.109375 14.984375 27.296875 
Q 14.984375 17.484375 19.15625 11.84375 
Q 23.34375 6.203125 30.609375 6.203125 
Q 37.796875 6.203125 41.984375 11.859375 
Q 46.1875 17.53125 46.1875 27.296875 
Q 46.1875 37.015625 41.984375 42.703125 
Q 37.796875 48.390625 30.609375 48.390625 
z
M 30.609375 56 
Q 42.328125 56 49.015625 48.375 
Q 55.71875 40.765625 55.71875 27.296875 
Q 55.71875 13.875 49.015625 6.21875 
Q 42.328125 -1.421875 30.609375 -1.421875 
Q 18.84375 -1.421875 12.171875 6.21875 
Q 5.515625 13.875 5.515625 27.296875 
Q 5.515625 40.765625 12.171875 48.375 
Q 18.84375 56 30.609375 56 
z
" id="DejaVuSans-111"/>
      <path d="M 9.8125 72.90625 
L 51.703125 72.90625 
L 51.703125 64.59375 
L 19.671875 64.59375 
L 19.671875 43.109375 
L 48.578125 43.109375 
L 48.578125 34.8125 
L 19.671875 34.8125 
L 19.671875 0 
L 9.8125 0 
z
" id="DejaVuSans-70"/>
      <path d="M 34.28125 27.484375 
Q 23.390625 27.484375 19.1875 25 
Q 14.984375 22.515625 14.984375 16.5 
Q 14.984375 11.71875 18.140625 8.90625 
Q 21.296875 6.109375 26.703125 6.109375 
Q 34.1875 6.109375 38.703125 11.40625 
Q 43.21875 16.703125 43.21875 25.484375 
L 43.21875 27.484375 
z
M 52.203125 31.203125 
L 52.203125 0 
L 43.21875 0 
L 43.21875 8.296875 
Q 40.140625 3.328125 35.546875 0.953125 
Q 30.953125 -1.421875 24.3125 -1.421875 
Q 15.921875 -1.421875 10.953125 3.296875 
Q 6 8.015625 6 15.921875 
Q 6 25.140625 12.171875 29.828125 
Q 18.359375 34.515625 30.609375 34.515625 
L 43.21875 34.515625 
L 43.21875 35.40625 
Q 43.21875 41.609375 39.140625 45 
Q 35.0625 48.390625 27.6875 48.390625 
Q 23 48.390625 18.546875 47.265625 
Q 14.109375 46.140625 10.015625 43.890625 
L 10.015625 52.203125 
Q 14.9375 54.109375 19.578125 55.046875 
Q 24.21875 56 28.609375 56 
Q 40.484375 56 46.34375 49.84375 
Q 52.203125 43.703125 52.203125 31.203125 
z
M 33.59375 75.78125 
L 43.5 75.78125 
L 43.5 65.921875 
L 33.59375 65.921875 
z
M 14.5 75.78125 
L 24.40625 75.78125 
L 24.40625 65.921875 
L 14.5 65.921875 
z
" id="DejaVuSans-228"/>
      <path d="M 56.203125 29.59375 
L 56.203125 25.203125 
L 14.890625 25.203125 
Q 15.484375 15.921875 20.484375 11.0625 
Q 25.484375 6.203125 34.421875 6.203125 
Q 39.59375 6.203125 44.453125 7.46875 
Q 49.3125 8.734375 54.109375 11.28125 
L 54.109375 2.78125 
Q 49.265625 0.734375 44.1875 -0.34375 
Q 39.109375 -1.421875 33.890625 -1.421875 
Q 20.796875 -1.421875 13.15625 6.1875 
Q 5.515625 13.8125 5.515625 26.8125 
Q 5.515625 40.234375 12.765625 48.109375 
Q 20.015625 56 32.328125 56 
Q 43.359375 56 49.78125 48.890625 
Q 56.203125 41.796875 56.203125 29.59375 
z
M 47.21875 32.234375 
Q 47.125 39.59375 43.09375 43.984375 
Q 39.0625 48.390625 32.421875 48.390625 
Q 24.90625 48.390625 20.390625 44.140625 
Q 15.875 39.890625 15.1875 32.171875 
z
" id="DejaVuSans-101"/>
     </defs>
     <g transform="translate(16.318125 309.388359)rotate(-90)scale(0.12 -0.12)">
      <use xlink:href="#DejaVuSans-65"/>
      <use x="68.408203" xlink:href="#DejaVuSans-110"/>
      <use x="131.787109" xlink:href="#DejaVuSans-122"/>
      <use x="184.277344" xlink:href="#DejaVuSans-97"/>
      <use x="245.556641" xlink:href="#DejaVuSans-104"/>
      <use x="308.935547" xlink:href="#DejaVuSans-108"/>
      <use x="336.71875" xlink:href="#DejaVuSans-32"/>
      <use x="368.505859" xlink:href="#DejaVuSans-118"/>
      <use x="427.685547" xlink:href="#DejaVuSans-111"/>
      <use x="488.867188" xlink:href="#DejaVuSans-110"/>
      <use x="552.246094" xlink:href="#DejaVuSans-32"/>
      <use x="584.033203" xlink:href="#DejaVuSans-70"/>
      <use x="632.427734" xlink:href="#DejaVuSans-228"/>
      <use x="693.707031" xlink:href="#DejaVuSans-108"/>
      <use x="721.490234" xlink:href="#DejaVuSans-108"/>
      <use x="749.273438" xlink:href="#DejaVuSans-101"/>
      <use x="810.796875" xlink:href="#DejaVuSans-110"/>
     </g>
    </g>
   </g>
   <g id="line2d_70">
    <path clip-path="url(#p19a015fc29)" d="M 113.626023 485.418984 
L 139.095783 485.418984 
L 147.585703 484.929384 
L 151.830663 483.623784 
L 156.075623 483.623784 
L 160.320583 483.460584 
L 164.565543 482.970984 
L 168.810504 480.522984 
L 173.055464 478.727784 
L 177.300424 477.748584 
L 181.545384 475.953384 
L 185.790344 473.178984 
L 190.035304 472.362984 
L 194.280264 468.609384 
L 198.525224 460.938984 
L 202.770184 456.206184 
L 207.015144 453.105384 
L 211.260104 449.841384 
L 215.505064 445.271784 
L 219.750024 442.334184 
L 223.994984 439.559784 
L 228.239944 435.153384 
L 232.484904 432.705384 
L 236.729864 428.298984 
L 245.219785 424.545384 
L 253.709705 421.607784 
L 257.954665 414.263784 
L 262.199625 414.263784 
L 266.444585 403.818984 
L 270.689545 399.249384 
L 279.179465 389.457384 
L 283.424425 386.682984 
L 287.669385 386.356584 
L 291.914345 378.849384 
L 296.159305 379.175784 
L 300.404265 376.238184 
L 308.894186 373.953384 
L 317.384106 370.036584 
L 321.629066 367.425384 
L 330.118986 364.650984 
L 338.608906 363.834984 
L 342.853866 362.692584 
L 347.098826 361.060584 
L 351.343786 358.612584 
L 355.588746 356.327784 
L 359.833706 356.164584 
L 368.323626 355.022184 
L 372.568586 353.390184 
L 376.813547 352.900584 
L 381.058507 352.247784 
L 389.548427 350.615784 
L 402.283307 350.126184 
L 406.528267 348.657384 
L 415.018187 346.209384 
L 419.263147 345.393384 
L 427.753067 340.007784 
L 431.998027 338.538984 
L 440.487947 333.479784 
L 444.732907 333.479784 
L 461.712748 332.174184 
L 465.957708 332.174184 
L 470.202668 331.684584 
L 474.447628 326.788584 
L 478.692588 326.788584 
L 487.182508 323.524584 
L 491.427468 318.138984 
L 495.672428 315.527784 
L 504.162348 314.222184 
L 508.407308 313.732584 
L 516.897229 313.079784 
L 525.387149 311.937384 
L 533.877069 311.447784 
L 538.122029 311.447784 
L 546.611949 311.121384 
L 555.101869 311.121384 
L 559.346829 310.958184 
L 580.571629 310.958184 
L 584.816589 310.468584 
L 589.06155 310.468584 
L 593.30651 310.305384 
L 635.75611 310.305384 
L 644.24603 309.326184 
L 669.715791 309.326184 
L 673.960751 309.162984 
L 678.205711 308.673384 
L 682.450671 308.510184 
L 703.675471 308.346984 
L 707.920431 307.367784 
L 712.165391 307.367784 
L 754.614992 303.450984 
L 758.859952 303.287784 
L 767.349872 302.308584 
L 771.594832 302.308584 
L 784.329712 301.002984 
L 788.574672 301.002984 
L 792.819632 300.513384 
L 797.064593 299.697384 
L 801.309553 299.534184 
L 814.044433 298.228584 
L 818.289393 297.575784 
L 822.534353 297.575784 
L 826.779313 296.759784 
L 831.024273 296.433384 
L 843.759153 296.433384 
L 848.004113 292.679784 
L 852.249073 292.026984 
L 856.494033 290.721384 
L 860.738993 289.252584 
L 881.963794 288.762984 
L 886.208754 287.457384 
L 890.453714 286.804584 
L 903.188594 285.988584 
L 907.433554 285.988584 
L 911.678514 285.009384 
L 915.923474 284.193384 
L 920.168434 284.030184 
L 932.903314 283.866984 
L 937.148275 283.540584 
L 945.638195 282.561384 
L 949.883155 281.255784 
L 971.107955 279.786984 
L 979.597875 278.481384 
L 996.577715 277.665384 
L 1000.822675 276.033384 
L 1005.067636 274.564584 
L 1009.312596 273.748584 
L 1022.047476 271.790184 
L 1026.292436 271.626984 
L 1056.007156 261.834984 
L 1060.252116 259.550184 
L 1064.497076 257.591784 
L 1068.742036 256.286184 
L 1081.476917 250.084584 
L 1085.721877 247.799784 
L 1089.966837 241.924584 
L 1094.211797 237.518184 
L 1098.456757 207.978984 
L 1111.191637 191.658984 
L 1115.436597 175.338984 
L 1119.681557 175.338984 
L 1123.926517 159.018984 
L 1128.171477 159.018984 
L 1128.171477 159.018984 
" style="fill:none;stroke:#dbcd00;stroke-linecap:square;stroke-width:2;"/>
    <defs>
     <path d="M 0 1.5 
C 0.397805 1.5 0.77937 1.341951 1.06066 1.06066 
C 1.341951 0.77937 1.5 0.397805 1.5 0 
C 1.5 -0.397805 1.341951 -0.77937 1.06066 -1.06066 
C 0.77937 -1.341951 0.397805 -1.5 0 -1.5 
C -0.397805 -1.5 -0.77937 -1.341951 -1.06066 -1.06066 
C -1.341951 -0.77937 -1.5 -0.397805 -1.5 0 
C -1.5 0.397805 -1.341951 0.77937 -1.06066 1.06066 
C -0.77937 1.341951 -0.397805 1.5 0 1.5 
z
" id="m8049e9afa4" style="stroke:#dbcd00;"/>
    </defs>
    <g clip-path="url(#p19a015fc29)">
     <use style="fill:#dbcd00;stroke:#dbcd00;" x="113.626023" xlink:href="#m8049e9afa4" y="485.418984"/>
     <use style="fill:#dbcd00;stroke:#dbcd00;" x="117.870983" xlink:href="#m8049e9afa4" y="485.418984"/>
     <use style="fill:#dbcd00;stroke:#dbcd00;" x="122.115943" xlink:href="#m8049e9afa4" y="485.418984"/>
     <use style="fill:#dbcd00;stroke:#dbcd00;" x="126.360903" xlink:href="#m8049e9afa4" y="485.418984"/>
     <use style="fill:#dbcd00;stroke:#dbcd00;" x="130.605863" xlink:href="#m8049e9afa4" y="485.418984"/>
     <use style="fill:#dbcd00;stroke:#dbcd00;" x="134.850823" xlink:href="#m8049e9afa4" y="485.418984"/>
     <use style="fill:#dbcd00;stroke:#dbcd00;" x="139.095783" xlink:href="#m8049e9afa4" y="485.418984"/>
     <use style="fill:#dbcd00;stroke:#dbcd00;" x="147.585703" xlink:href="#m8049e9afa4" y="484.929384"/>
     <use style="fill:#dbcd00;stroke:#dbcd00;" x="151.830663" xlink:href="#m8049e9afa4" y="483.623784"/>
     <use style="fill:#dbcd00;stroke:#dbcd00;" x="156.075623" xlink:href="#m8049e9afa4" y="483.623784"/>
     <use style="fill:#dbcd00;stroke:#dbcd00;" x="160.320583" xlink:href="#m8049e9afa4" y="483.460584"/>
     <use style="fill:#dbcd00;stroke:#dbcd00;" x="164.565543" xlink:href="#m8049e9afa4" y="482.970984"/>
     <use style="fill:#dbcd00;stroke:#dbcd00;" x="168.810504" xlink:href="#m8049e9afa4" y="480.522984"/>
     <use style="fill:#dbcd00;stroke:#dbcd00;" x="173.055464" xlink:href="#m8049e9afa4" y="478.727784"/>
     <use style="fill:#dbcd00;stroke:#dbcd00;" x="177.300424" xlink:href="#m8049e9afa4" y="477.748584"/>
     <use style="fill:#dbcd00;stroke:#dbcd00;" x="181.545384" xlink:href="#m8049e9afa4" y="475.953384"/>
     <use style="fill:#dbcd00;stroke:#dbcd00;" x="185.790344" xlink:href="#m8049e9afa4" y="473.178984"/>
     <use style="fill:#dbcd00;stroke:#dbcd00;" x="190.035304" xlink:href="#m8049e9afa4" y="472.362984"/>
     <use style="fill:#dbcd00;stroke:#dbcd00;" x="194.280264" xlink:href="#m8049e9afa4" y="468.609384"/>
     <use style="fill:#dbcd00;stroke:#dbcd00;" x="198.525224" xlink:href="#m8049e9afa4" y="460.938984"/>
     <use style="fill:#dbcd00;stroke:#dbcd00;" x="202.770184" xlink:href="#m8049e9afa4" y="456.206184"/>
     <use style="fill:#dbcd00;stroke:#dbcd00;" x="207.015144" xlink:href="#m8049e9afa4" y="453.105384"/>
     <use style="fill:#dbcd00;stroke:#dbcd00;" x="211.260104" xlink:href="#m8049e9afa4" y="449.841384"/>
     <use style="fill:#dbcd00;stroke:#dbcd00;" x="215.505064" xlink:href="#m8049e9afa4" y="445.271784"/>
     <use style="fill:#dbcd00;stroke:#dbcd00;" x="219.750024" xlink:href="#m8049e9afa4" y="442.334184"/>
     <use style="fill:#dbcd00;stroke:#dbcd00;" x="223.994984" xlink:href="#m8049e9afa4" y="439.559784"/>
     <use style="fill:#dbcd00;stroke:#dbcd00;" x="228.239944" xlink:href="#m8049e9afa4" y="435.153384"/>
     <use style="fill:#dbcd00;stroke:#dbcd00;" x="232.484904" xlink:href="#m8049e9afa4" y="432.705384"/>
     <use style="fill:#dbcd00;stroke:#dbcd00;" x="236.729864" xlink:href="#m8049e9afa4" y="428.298984"/>
     <use style="fill:#dbcd00;stroke:#dbcd00;" x="245.219785" xlink:href="#m8049e9afa4" y="424.545384"/>
     <use style="fill:#dbcd00;stroke:#dbcd00;" x="253.709705" xlink:href="#m8049e9afa4" y="421.607784"/>
     <use style="fill:#dbcd00;stroke:#dbcd00;" x="257.954665" xlink:href="#m8049e9afa4" y="414.263784"/>
     <use style="fill:#dbcd00;stroke:#dbcd00;" x="262.199625" xlink:href="#m8049e9afa4" y="414.263784"/>
     <use style="fill:#dbcd00;stroke:#dbcd00;" x="266.444585" xlink:href="#m8049e9afa4" y="403.818984"/>
     <use style="fill:#dbcd00;stroke:#dbcd00;" x="270.689545" xlink:href="#m8049e9afa4" y="399.249384"/>
     <use style="fill:#dbcd00;stroke:#dbcd00;" x="279.179465" xlink:href="#m8049e9afa4" y="389.457384"/>
     <use style="fill:#dbcd00;stroke:#dbcd00;" x="283.424425" xlink:href="#m8049e9afa4" y="386.682984"/>
     <use style="fill:#dbcd00;stroke:#dbcd00;" x="287.669385" xlink:href="#m8049e9afa4" y="386.356584"/>
     <use style="fill:#dbcd00;stroke:#dbcd00;" x="291.914345" xlink:href="#m8049e9afa4" y="378.849384"/>
     <use style="fill:#dbcd00;stroke:#dbcd00;" x="296.159305" xlink:href="#m8049e9afa4" y="379.175784"/>
     <use style="fill:#dbcd00;stroke:#dbcd00;" x="300.404265" xlink:href="#m8049e9afa4" y="376.238184"/>
     <use style="fill:#dbcd00;stroke:#dbcd00;" x="308.894186" xlink:href="#m8049e9afa4" y="373.953384"/>
     <use style="fill:#dbcd00;stroke:#dbcd00;" x="313.139146" xlink:href="#m8049e9afa4" y="371.994984"/>
     <use style="fill:#dbcd00;stroke:#dbcd00;" x="317.384106" xlink:href="#m8049e9afa4" y="370.036584"/>
     <use style="fill:#dbcd00;stroke:#dbcd00;" x="321.629066" xlink:href="#m8049e9afa4" y="367.425384"/>
     <use style="fill:#dbcd00;stroke:#dbcd00;" x="330.118986" xlink:href="#m8049e9afa4" y="364.650984"/>
     <use style="fill:#dbcd00;stroke:#dbcd00;" x="338.608906" xlink:href="#m8049e9afa4" y="363.834984"/>
     <use style="fill:#dbcd00;stroke:#dbcd00;" x="342.853866" xlink:href="#m8049e9afa4" y="362.692584"/>
     <use style="fill:#dbcd00;stroke:#dbcd00;" x="347.098826" xlink:href="#m8049e9afa4" y="361.060584"/>
     <use style="fill:#dbcd00;stroke:#dbcd00;" x="351.343786" xlink:href="#m8049e9afa4" y="358.612584"/>
     <use style="fill:#dbcd00;stroke:#dbcd00;" x="355.588746" xlink:href="#m8049e9afa4" y="356.327784"/>
     <use style="fill:#dbcd00;stroke:#dbcd00;" x="359.833706" xlink:href="#m8049e9afa4" y="356.164584"/>
     <use style="fill:#dbcd00;stroke:#dbcd00;" x="368.323626" xlink:href="#m8049e9afa4" y="355.022184"/>
     <use style="fill:#dbcd00;stroke:#dbcd00;" x="372.568586" xlink:href="#m8049e9afa4" y="353.390184"/>
     <use style="fill:#dbcd00;stroke:#dbcd00;" x="376.813547" xlink:href="#m8049e9afa4" y="352.900584"/>
     <use style="fill:#dbcd00;stroke:#dbcd00;" x="381.058507" xlink:href="#m8049e9afa4" y="352.247784"/>
     <use style="fill:#dbcd00;stroke:#dbcd00;" x="385.303467" xlink:href="#m8049e9afa4" y="351.431784"/>
     <use style="fill:#dbcd00;stroke:#dbcd00;" x="389.548427" xlink:href="#m8049e9afa4" y="350.615784"/>
     <use style="fill:#dbcd00;stroke:#dbcd00;" x="398.038347" xlink:href="#m8049e9afa4" y="350.289384"/>
     <use style="fill:#dbcd00;stroke:#dbcd00;" x="402.283307" xlink:href="#m8049e9afa4" y="350.126184"/>
     <use style="fill:#dbcd00;stroke:#dbcd00;" x="406.528267" xlink:href="#m8049e9afa4" y="348.657384"/>
     <use style="fill:#dbcd00;stroke:#dbcd00;" x="415.018187" xlink:href="#m8049e9afa4" y="346.209384"/>
     <use style="fill:#dbcd00;stroke:#dbcd00;" x="419.263147" xlink:href="#m8049e9afa4" y="345.393384"/>
     <use style="fill:#dbcd00;stroke:#dbcd00;" x="427.753067" xlink:href="#m8049e9afa4" y="340.007784"/>
     <use style="fill:#dbcd00;stroke:#dbcd00;" x="431.998027" xlink:href="#m8049e9afa4" y="338.538984"/>
     <use style="fill:#dbcd00;stroke:#dbcd00;" x="440.487947" xlink:href="#m8049e9afa4" y="333.479784"/>
     <use style="fill:#dbcd00;stroke:#dbcd00;" x="444.732907" xlink:href="#m8049e9afa4" y="333.479784"/>
     <use style="fill:#dbcd00;stroke:#dbcd00;" x="461.712748" xlink:href="#m8049e9afa4" y="332.174184"/>
     <use style="fill:#dbcd00;stroke:#dbcd00;" x="465.957708" xlink:href="#m8049e9afa4" y="332.174184"/>
     <use style="fill:#dbcd00;stroke:#dbcd00;" x="470.202668" xlink:href="#m8049e9afa4" y="331.684584"/>
     <use style="fill:#dbcd00;stroke:#dbcd00;" x="474.447628" xlink:href="#m8049e9afa4" y="326.788584"/>
     <use style="fill:#dbcd00;stroke:#dbcd00;" x="478.692588" xlink:href="#m8049e9afa4" y="326.788584"/>
     <use style="fill:#dbcd00;stroke:#dbcd00;" x="487.182508" xlink:href="#m8049e9afa4" y="323.524584"/>
     <use style="fill:#dbcd00;stroke:#dbcd00;" x="491.427468" xlink:href="#m8049e9afa4" y="318.138984"/>
     <use style="fill:#dbcd00;stroke:#dbcd00;" x="495.672428" xlink:href="#m8049e9afa4" y="315.527784"/>
     <use style="fill:#dbcd00;stroke:#dbcd00;" x="504.162348" xlink:href="#m8049e9afa4" y="314.222184"/>
     <use style="fill:#dbcd00;stroke:#dbcd00;" x="508.407308" xlink:href="#m8049e9afa4" y="313.732584"/>
     <use style="fill:#dbcd00;stroke:#dbcd00;" x="516.897229" xlink:href="#m8049e9afa4" y="313.079784"/>
     <use style="fill:#dbcd00;stroke:#dbcd00;" x="525.387149" xlink:href="#m8049e9afa4" y="311.937384"/>
     <use style="fill:#dbcd00;stroke:#dbcd00;" x="533.877069" xlink:href="#m8049e9afa4" y="311.447784"/>
     <use style="fill:#dbcd00;stroke:#dbcd00;" x="538.122029" xlink:href="#m8049e9afa4" y="311.447784"/>
     <use style="fill:#dbcd00;stroke:#dbcd00;" x="546.611949" xlink:href="#m8049e9afa4" y="311.121384"/>
     <use style="fill:#dbcd00;stroke:#dbcd00;" x="550.856909" xlink:href="#m8049e9afa4" y="311.121384"/>
     <use style="fill:#dbcd00;stroke:#dbcd00;" x="555.101869" xlink:href="#m8049e9afa4" y="311.121384"/>
     <use style="fill:#dbcd00;stroke:#dbcd00;" x="559.346829" xlink:href="#m8049e9afa4" y="310.958184"/>
     <use style="fill:#dbcd00;stroke:#dbcd00;" x="567.836749" xlink:href="#m8049e9afa4" y="310.958184"/>
     <use style="fill:#dbcd00;stroke:#dbcd00;" x="576.326669" xlink:href="#m8049e9afa4" y="310.958184"/>
     <use style="fill:#dbcd00;stroke:#dbcd00;" x="580.571629" xlink:href="#m8049e9afa4" y="310.958184"/>
     <use style="fill:#dbcd00;stroke:#dbcd00;" x="584.816589" xlink:href="#m8049e9afa4" y="310.468584"/>
     <use style="fill:#dbcd00;stroke:#dbcd00;" x="589.06155" xlink:href="#m8049e9afa4" y="310.468584"/>
     <use style="fill:#dbcd00;stroke:#dbcd00;" x="593.30651" xlink:href="#m8049e9afa4" y="310.305384"/>
     <use style="fill:#dbcd00;stroke:#dbcd00;" x="597.55147" xlink:href="#m8049e9afa4" y="310.305384"/>
     <use style="fill:#dbcd00;stroke:#dbcd00;" x="606.04139" xlink:href="#m8049e9afa4" y="310.305384"/>
     <use style="fill:#dbcd00;stroke:#dbcd00;" x="610.28635" xlink:href="#m8049e9afa4" y="310.305384"/>
     <use style="fill:#dbcd00;stroke:#dbcd00;" x="614.53131" xlink:href="#m8049e9afa4" y="310.305384"/>
     <use style="fill:#dbcd00;stroke:#dbcd00;" x="618.77627" xlink:href="#m8049e9afa4" y="310.305384"/>
     <use style="fill:#dbcd00;stroke:#dbcd00;" x="623.02123" xlink:href="#m8049e9afa4" y="310.305384"/>
     <use style="fill:#dbcd00;stroke:#dbcd00;" x="635.75611" xlink:href="#m8049e9afa4" y="310.305384"/>
     <use style="fill:#dbcd00;stroke:#dbcd00;" x="640.00107" xlink:href="#m8049e9afa4" y="309.815784"/>
     <use style="fill:#dbcd00;stroke:#dbcd00;" x="644.24603" xlink:href="#m8049e9afa4" y="309.326184"/>
     <use style="fill:#dbcd00;stroke:#dbcd00;" x="648.49099" xlink:href="#m8049e9afa4" y="309.326184"/>
     <use style="fill:#dbcd00;stroke:#dbcd00;" x="652.73595" xlink:href="#m8049e9afa4" y="309.326184"/>
     <use style="fill:#dbcd00;stroke:#dbcd00;" x="665.470831" xlink:href="#m8049e9afa4" y="309.326184"/>
     <use style="fill:#dbcd00;stroke:#dbcd00;" x="669.715791" xlink:href="#m8049e9afa4" y="309.326184"/>
     <use style="fill:#dbcd00;stroke:#dbcd00;" x="673.960751" xlink:href="#m8049e9afa4" y="309.162984"/>
     <use style="fill:#dbcd00;stroke:#dbcd00;" x="678.205711" xlink:href="#m8049e9afa4" y="308.673384"/>
     <use style="fill:#dbcd00;stroke:#dbcd00;" x="682.450671" xlink:href="#m8049e9afa4" y="308.510184"/>
     <use style="fill:#dbcd00;stroke:#dbcd00;" x="695.185551" xlink:href="#m8049e9afa4" y="308.346984"/>
     <use style="fill:#dbcd00;stroke:#dbcd00;" x="699.430511" xlink:href="#m8049e9afa4" y="308.346984"/>
     <use style="fill:#dbcd00;stroke:#dbcd00;" x="703.675471" xlink:href="#m8049e9afa4" y="308.346984"/>
     <use style="fill:#dbcd00;stroke:#dbcd00;" x="707.920431" xlink:href="#m8049e9afa4" y="307.367784"/>
     <use style="fill:#dbcd00;stroke:#dbcd00;" x="712.165391" xlink:href="#m8049e9afa4" y="307.367784"/>
     <use style="fill:#dbcd00;stroke:#dbcd00;" x="754.614992" xlink:href="#m8049e9afa4" y="303.450984"/>
     <use style="fill:#dbcd00;stroke:#dbcd00;" x="758.859952" xlink:href="#m8049e9afa4" y="303.287784"/>
     <use style="fill:#dbcd00;stroke:#dbcd00;" x="767.349872" xlink:href="#m8049e9afa4" y="302.308584"/>
     <use style="fill:#dbcd00;stroke:#dbcd00;" x="771.594832" xlink:href="#m8049e9afa4" y="302.308584"/>
     <use style="fill:#dbcd00;stroke:#dbcd00;" x="784.329712" xlink:href="#m8049e9afa4" y="301.002984"/>
     <use style="fill:#dbcd00;stroke:#dbcd00;" x="788.574672" xlink:href="#m8049e9afa4" y="301.002984"/>
     <use style="fill:#dbcd00;stroke:#dbcd00;" x="792.819632" xlink:href="#m8049e9afa4" y="300.513384"/>
     <use style="fill:#dbcd00;stroke:#dbcd00;" x="797.064593" xlink:href="#m8049e9afa4" y="299.697384"/>
     <use style="fill:#dbcd00;stroke:#dbcd00;" x="801.309553" xlink:href="#m8049e9afa4" y="299.534184"/>
     <use style="fill:#dbcd00;stroke:#dbcd00;" x="814.044433" xlink:href="#m8049e9afa4" y="298.228584"/>
     <use style="fill:#dbcd00;stroke:#dbcd00;" x="818.289393" xlink:href="#m8049e9afa4" y="297.575784"/>
     <use style="fill:#dbcd00;stroke:#dbcd00;" x="822.534353" xlink:href="#m8049e9afa4" y="297.575784"/>
     <use style="fill:#dbcd00;stroke:#dbcd00;" x="826.779313" xlink:href="#m8049e9afa4" y="296.759784"/>
     <use style="fill:#dbcd00;stroke:#dbcd00;" x="831.024273" xlink:href="#m8049e9afa4" y="296.433384"/>
     <use style="fill:#dbcd00;stroke:#dbcd00;" x="843.759153" xlink:href="#m8049e9afa4" y="296.433384"/>
     <use style="fill:#dbcd00;stroke:#dbcd00;" x="848.004113" xlink:href="#m8049e9afa4" y="292.679784"/>
     <use style="fill:#dbcd00;stroke:#dbcd00;" x="852.249073" xlink:href="#m8049e9afa4" y="292.026984"/>
     <use style="fill:#dbcd00;stroke:#dbcd00;" x="856.494033" xlink:href="#m8049e9afa4" y="290.721384"/>
     <use style="fill:#dbcd00;stroke:#dbcd00;" x="860.738993" xlink:href="#m8049e9afa4" y="289.252584"/>
     <use style="fill:#dbcd00;stroke:#dbcd00;" x="873.473874" xlink:href="#m8049e9afa4" y="288.926184"/>
     <use style="fill:#dbcd00;stroke:#dbcd00;" x="877.718834" xlink:href="#m8049e9afa4" y="288.762984"/>
     <use style="fill:#dbcd00;stroke:#dbcd00;" x="881.963794" xlink:href="#m8049e9afa4" y="288.762984"/>
     <use style="fill:#dbcd00;stroke:#dbcd00;" x="886.208754" xlink:href="#m8049e9afa4" y="287.457384"/>
     <use style="fill:#dbcd00;stroke:#dbcd00;" x="890.453714" xlink:href="#m8049e9afa4" y="286.804584"/>
     <use style="fill:#dbcd00;stroke:#dbcd00;" x="903.188594" xlink:href="#m8049e9afa4" y="285.988584"/>
     <use style="fill:#dbcd00;stroke:#dbcd00;" x="907.433554" xlink:href="#m8049e9afa4" y="285.988584"/>
     <use style="fill:#dbcd00;stroke:#dbcd00;" x="911.678514" xlink:href="#m8049e9afa4" y="285.009384"/>
     <use style="fill:#dbcd00;stroke:#dbcd00;" x="915.923474" xlink:href="#m8049e9afa4" y="284.193384"/>
     <use style="fill:#dbcd00;stroke:#dbcd00;" x="920.168434" xlink:href="#m8049e9afa4" y="284.030184"/>
     <use style="fill:#dbcd00;stroke:#dbcd00;" x="932.903314" xlink:href="#m8049e9afa4" y="283.866984"/>
     <use style="fill:#dbcd00;stroke:#dbcd00;" x="937.148275" xlink:href="#m8049e9afa4" y="283.540584"/>
     <use style="fill:#dbcd00;stroke:#dbcd00;" x="941.393235" xlink:href="#m8049e9afa4" y="283.050984"/>
     <use style="fill:#dbcd00;stroke:#dbcd00;" x="945.638195" xlink:href="#m8049e9afa4" y="282.561384"/>
     <use style="fill:#dbcd00;stroke:#dbcd00;" x="949.883155" xlink:href="#m8049e9afa4" y="281.255784"/>
     <use style="fill:#dbcd00;stroke:#dbcd00;" x="962.618035" xlink:href="#m8049e9afa4" y="280.439784"/>
     <use style="fill:#dbcd00;stroke:#dbcd00;" x="966.862995" xlink:href="#m8049e9afa4" y="280.276584"/>
     <use style="fill:#dbcd00;stroke:#dbcd00;" x="971.107955" xlink:href="#m8049e9afa4" y="279.786984"/>
     <use style="fill:#dbcd00;stroke:#dbcd00;" x="975.352915" xlink:href="#m8049e9afa4" y="279.134184"/>
     <use style="fill:#dbcd00;stroke:#dbcd00;" x="979.597875" xlink:href="#m8049e9afa4" y="278.481384"/>
     <use style="fill:#dbcd00;stroke:#dbcd00;" x="992.332755" xlink:href="#m8049e9afa4" y="277.828584"/>
     <use style="fill:#dbcd00;stroke:#dbcd00;" x="996.577715" xlink:href="#m8049e9afa4" y="277.665384"/>
     <use style="fill:#dbcd00;stroke:#dbcd00;" x="1000.822675" xlink:href="#m8049e9afa4" y="276.033384"/>
     <use style="fill:#dbcd00;stroke:#dbcd00;" x="1005.067636" xlink:href="#m8049e9afa4" y="274.564584"/>
     <use style="fill:#dbcd00;stroke:#dbcd00;" x="1009.312596" xlink:href="#m8049e9afa4" y="273.748584"/>
     <use style="fill:#dbcd00;stroke:#dbcd00;" x="1022.047476" xlink:href="#m8049e9afa4" y="271.790184"/>
     <use style="fill:#dbcd00;stroke:#dbcd00;" x="1026.292436" xlink:href="#m8049e9afa4" y="271.626984"/>
     <use style="fill:#dbcd00;stroke:#dbcd00;" x="1056.007156" xlink:href="#m8049e9afa4" y="261.834984"/>
     <use style="fill:#dbcd00;stroke:#dbcd00;" x="1060.252116" xlink:href="#m8049e9afa4" y="259.550184"/>
     <use style="fill:#dbcd00;stroke:#dbcd00;" x="1064.497076" xlink:href="#m8049e9afa4" y="257.591784"/>
     <use style="fill:#dbcd00;stroke:#dbcd00;" x="1068.742036" xlink:href="#m8049e9afa4" y="256.286184"/>
     <use style="fill:#dbcd00;stroke:#dbcd00;" x="1081.476917" xlink:href="#m8049e9afa4" y="250.084584"/>
     <use style="fill:#dbcd00;stroke:#dbcd00;" x="1085.721877" xlink:href="#m8049e9afa4" y="247.799784"/>
     <use style="fill:#dbcd00;stroke:#dbcd00;" x="1089.966837" xlink:href="#m8049e9afa4" y="241.924584"/>
     <use style="fill:#dbcd00;stroke:#dbcd00;" x="1094.211797" xlink:href="#m8049e9afa4" y="237.518184"/>
     <use style="fill:#dbcd00;stroke:#dbcd00;" x="1098.456757" xlink:href="#m8049e9afa4" y="207.978984"/>
     <use style="fill:#dbcd00;stroke:#dbcd00;" x="1111.191637" xlink:href="#m8049e9afa4" y="191.658984"/>
     <use style="fill:#dbcd00;stroke:#dbcd00;" x="1115.436597" xlink:href="#m8049e9afa4" y="175.338984"/>
     <use style="fill:#dbcd00;stroke:#dbcd00;" x="1119.681557" xlink:href="#m8049e9afa4" y="175.338984"/>
     <use style="fill:#dbcd00;stroke:#dbcd00;" x="1123.926517" xlink:href="#m8049e9afa4" y="159.018984"/>
     <use style="fill:#dbcd00;stroke:#dbcd00;" x="1128.171477" xlink:href="#m8049e9afa4" y="159.018984"/>
    </g>
   </g>
   <g id="line2d_71">
    <path clip-path="url(#p19a015fc29)" d="M 113.626023 483.134184 
L 117.870983 481.012584 
L 122.115943 478.074984 
L 126.360903 472.036584 
L 130.605863 469.914984 
L 134.850823 465.345384 
L 139.095783 458.654184 
L 147.585703 444.782184 
L 151.830663 442.497384 
L 156.075623 441.191784 
L 160.320583 439.233384 
L 164.565543 437.927784 
L 168.810504 435.642984 
L 173.055464 432.542184 
L 177.300424 428.625384 
L 181.545384 426.340584 
L 185.790344 426.993384 
L 190.035304 426.177384 
L 194.280264 425.034984 
L 198.525224 425.524584 
L 202.770184 423.566184 
L 207.015144 419.812584 
L 211.260104 416.874984 
L 215.505064 419.159784 
L 219.750024 419.812584 
L 223.994984 419.812584 
L 228.239944 420.628584 
L 232.484904 418.343784 
L 236.729864 420.791784 
L 245.219785 424.055784 
L 253.709705 424.055784 
L 257.954665 430.910184 
L 262.199625 429.114984 
L 266.444585 437.111784 
L 270.689545 440.375784 
L 279.179465 449.351784 
L 283.424425 451.962984 
L 287.669385 450.820584 
L 291.914345 457.348584 
L 296.159305 455.716584 
L 300.404265 457.838184 
L 308.894186 459.470184 
L 317.384106 463.060584 
L 321.629066 465.671784 
L 330.118986 467.466984 
L 338.608906 467.630184 
L 342.853866 468.446184 
L 347.098826 469.751784 
L 351.343786 470.404584 
L 355.588746 472.036584 
L 359.833706 470.567784 
L 368.323626 469.098984 
L 372.568586 470.078184 
L 376.813547 465.345384 
L 381.058507 464.202984 
L 385.303467 464.692584 
L 389.548427 465.018984 
L 398.038347 463.060584 
L 402.283307 463.223784 
L 406.528267 464.692584 
L 415.018187 464.202984 
L 419.263147 461.918184 
L 427.753067 466.977384 
L 431.998027 468.119784 
L 440.487947 465.998184 
L 444.732907 465.345384 
L 461.712748 465.998184 
L 470.202668 465.998184 
L 474.447628 470.078184 
L 478.692588 470.078184 
L 487.182508 473.178984 
L 491.427468 478.238184 
L 495.672428 480.849384 
L 504.162348 482.154984 
L 508.407308 482.644584 
L 516.897229 483.134184 
L 525.387149 484.276584 
L 538.122029 484.276584 
L 546.611949 484.602984 
L 555.101869 484.602984 
L 559.346829 484.766184 
L 567.836749 484.439784 
L 580.571629 484.439784 
L 584.816589 484.602984 
L 589.06155 484.113384 
L 593.30651 484.276584 
L 597.55147 484.276584 
L 635.75611 483.623784 
L 640.00107 483.786984 
L 644.24603 484.276584 
L 652.73595 483.950184 
L 665.470831 483.950184 
L 669.715791 482.154984 
L 673.960751 482.318184 
L 678.205711 481.991784 
L 682.450671 482.154984 
L 695.185551 481.502184 
L 699.430511 481.012584 
L 703.675471 481.012584 
L 707.920431 481.175784 
L 712.165391 480.196584 
L 754.614992 480.686184 
L 758.859952 480.033384 
L 767.349872 479.054184 
L 771.594832 478.238184 
L 784.329712 478.238184 
L 788.574672 475.790184 
L 792.819632 475.463784 
L 801.309553 474.484584 
L 818.289393 475.463784 
L 822.534353 475.463784 
L 826.779313 476.116584 
L 831.024273 476.442984 
L 843.759153 476.442984 
L 848.004113 479.217384 
L 852.249073 479.217384 
L 856.494033 479.543784 
L 860.738993 480.686184 
L 873.473874 480.522984 
L 877.718834 480.033384 
L 881.963794 480.033384 
L 886.208754 481.175784 
L 890.453714 481.502184 
L 903.188594 481.502184 
L 907.433554 479.380584 
L 911.678514 480.033384 
L 915.923474 480.033384 
L 920.168434 479.706984 
L 932.903314 479.870184 
L 937.148275 478.727784 
L 949.883155 478.727784 
L 962.618035 478.074984 
L 966.862995 475.463784 
L 971.107955 475.463784 
L 975.352915 474.158184 
L 979.597875 473.505384 
L 992.332755 474.158184 
L 996.577715 464.855784 
L 1000.822675 465.998184 
L 1005.067636 464.855784 
L 1009.312596 463.223784 
L 1022.047476 463.876584 
L 1026.292436 457.348584 
L 1056.007156 438.254184 
L 1060.252116 434.500584 
L 1064.497076 430.257384 
L 1068.742036 425.198184 
L 1081.476917 414.916584 
L 1085.721877 401.370984 
L 1089.966837 402.186984 
L 1094.211797 385.866984 
L 1098.456757 398.106984 
L 1111.191637 374.116584 
L 1115.436597 380.154984 
L 1119.681557 371.668584 
L 1123.926517 370.036584 
L 1128.171477 354.695784 
L 1128.171477 354.695784 
" style="fill:none;stroke:#2792cb;stroke-linecap:square;stroke-width:2;"/>
    <defs>
     <path d="M 0 1.5 
C 0.397805 1.5 0.77937 1.341951 1.06066 1.06066 
C 1.341951 0.77937 1.5 0.397805 1.5 0 
C 1.5 -0.397805 1.341951 -0.77937 1.06066 -1.06066 
C 0.77937 -1.341951 0.397805 -1.5 0 -1.5 
C -0.397805 -1.5 -0.77937 -1.341951 -1.06066 -1.06066 
C -1.341951 -0.77937 -1.5 -0.397805 -1.5 0 
C -1.5 0.397805 -1.341951 0.77937 -1.06066 1.06066 
C -0.77937 1.341951 -0.397805 1.5 0 1.5 
z
" id="m6012dfeb1b" style="stroke:#2792cb;"/>
    </defs>
    <g clip-path="url(#p19a015fc29)">
     <use style="fill:#2792cb;stroke:#2792cb;" x="113.626023" xlink:href="#m6012dfeb1b" y="483.134184"/>
     <use style="fill:#2792cb;stroke:#2792cb;" x="117.870983" xlink:href="#m6012dfeb1b" y="481.012584"/>
     <use style="fill:#2792cb;stroke:#2792cb;" x="122.115943" xlink:href="#m6012dfeb1b" y="478.074984"/>
     <use style="fill:#2792cb;stroke:#2792cb;" x="126.360903" xlink:href="#m6012dfeb1b" y="472.036584"/>
     <use style="fill:#2792cb;stroke:#2792cb;" x="130.605863" xlink:href="#m6012dfeb1b" y="469.914984"/>
     <use style="fill:#2792cb;stroke:#2792cb;" x="134.850823" xlink:href="#m6012dfeb1b" y="465.345384"/>
     <use style="fill:#2792cb;stroke:#2792cb;" x="139.095783" xlink:href="#m6012dfeb1b" y="458.654184"/>
     <use style="fill:#2792cb;stroke:#2792cb;" x="147.585703" xlink:href="#m6012dfeb1b" y="444.782184"/>
     <use style="fill:#2792cb;stroke:#2792cb;" x="151.830663" xlink:href="#m6012dfeb1b" y="442.497384"/>
     <use style="fill:#2792cb;stroke:#2792cb;" x="156.075623" xlink:href="#m6012dfeb1b" y="441.191784"/>
     <use style="fill:#2792cb;stroke:#2792cb;" x="160.320583" xlink:href="#m6012dfeb1b" y="439.233384"/>
     <use style="fill:#2792cb;stroke:#2792cb;" x="164.565543" xlink:href="#m6012dfeb1b" y="437.927784"/>
     <use style="fill:#2792cb;stroke:#2792cb;" x="168.810504" xlink:href="#m6012dfeb1b" y="435.642984"/>
     <use style="fill:#2792cb;stroke:#2792cb;" x="173.055464" xlink:href="#m6012dfeb1b" y="432.542184"/>
     <use style="fill:#2792cb;stroke:#2792cb;" x="177.300424" xlink:href="#m6012dfeb1b" y="428.625384"/>
     <use style="fill:#2792cb;stroke:#2792cb;" x="181.545384" xlink:href="#m6012dfeb1b" y="426.340584"/>
     <use style="fill:#2792cb;stroke:#2792cb;" x="185.790344" xlink:href="#m6012dfeb1b" y="426.993384"/>
     <use style="fill:#2792cb;stroke:#2792cb;" x="190.035304" xlink:href="#m6012dfeb1b" y="426.177384"/>
     <use style="fill:#2792cb;stroke:#2792cb;" x="194.280264" xlink:href="#m6012dfeb1b" y="425.034984"/>
     <use style="fill:#2792cb;stroke:#2792cb;" x="198.525224" xlink:href="#m6012dfeb1b" y="425.524584"/>
     <use style="fill:#2792cb;stroke:#2792cb;" x="202.770184" xlink:href="#m6012dfeb1b" y="423.566184"/>
     <use style="fill:#2792cb;stroke:#2792cb;" x="207.015144" xlink:href="#m6012dfeb1b" y="419.812584"/>
     <use style="fill:#2792cb;stroke:#2792cb;" x="211.260104" xlink:href="#m6012dfeb1b" y="416.874984"/>
     <use style="fill:#2792cb;stroke:#2792cb;" x="215.505064" xlink:href="#m6012dfeb1b" y="419.159784"/>
     <use style="fill:#2792cb;stroke:#2792cb;" x="219.750024" xlink:href="#m6012dfeb1b" y="419.812584"/>
     <use style="fill:#2792cb;stroke:#2792cb;" x="223.994984" xlink:href="#m6012dfeb1b" y="419.812584"/>
     <use style="fill:#2792cb;stroke:#2792cb;" x="228.239944" xlink:href="#m6012dfeb1b" y="420.628584"/>
     <use style="fill:#2792cb;stroke:#2792cb;" x="232.484904" xlink:href="#m6012dfeb1b" y="418.343784"/>
     <use style="fill:#2792cb;stroke:#2792cb;" x="236.729864" xlink:href="#m6012dfeb1b" y="420.791784"/>
     <use style="fill:#2792cb;stroke:#2792cb;" x="245.219785" xlink:href="#m6012dfeb1b" y="424.055784"/>
     <use style="fill:#2792cb;stroke:#2792cb;" x="253.709705" xlink:href="#m6012dfeb1b" y="424.055784"/>
     <use style="fill:#2792cb;stroke:#2792cb;" x="257.954665" xlink:href="#m6012dfeb1b" y="430.910184"/>
     <use style="fill:#2792cb;stroke:#2792cb;" x="262.199625" xlink:href="#m6012dfeb1b" y="429.114984"/>
     <use style="fill:#2792cb;stroke:#2792cb;" x="266.444585" xlink:href="#m6012dfeb1b" y="437.111784"/>
     <use style="fill:#2792cb;stroke:#2792cb;" x="270.689545" xlink:href="#m6012dfeb1b" y="440.375784"/>
     <use style="fill:#2792cb;stroke:#2792cb;" x="279.179465" xlink:href="#m6012dfeb1b" y="449.351784"/>
     <use style="fill:#2792cb;stroke:#2792cb;" x="283.424425" xlink:href="#m6012dfeb1b" y="451.962984"/>
     <use style="fill:#2792cb;stroke:#2792cb;" x="287.669385" xlink:href="#m6012dfeb1b" y="450.820584"/>
     <use style="fill:#2792cb;stroke:#2792cb;" x="291.914345" xlink:href="#m6012dfeb1b" y="457.348584"/>
     <use style="fill:#2792cb;stroke:#2792cb;" x="296.159305" xlink:href="#m6012dfeb1b" y="455.716584"/>
     <use style="fill:#2792cb;stroke:#2792cb;" x="300.404265" xlink:href="#m6012dfeb1b" y="457.838184"/>
     <use style="fill:#2792cb;stroke:#2792cb;" x="308.894186" xlink:href="#m6012dfeb1b" y="459.470184"/>
     <use style="fill:#2792cb;stroke:#2792cb;" x="313.139146" xlink:href="#m6012dfeb1b" y="461.265384"/>
     <use style="fill:#2792cb;stroke:#2792cb;" x="317.384106" xlink:href="#m6012dfeb1b" y="463.060584"/>
     <use style="fill:#2792cb;stroke:#2792cb;" x="321.629066" xlink:href="#m6012dfeb1b" y="465.671784"/>
     <use style="fill:#2792cb;stroke:#2792cb;" x="330.118986" xlink:href="#m6012dfeb1b" y="467.466984"/>
     <use style="fill:#2792cb;stroke:#2792cb;" x="338.608906" xlink:href="#m6012dfeb1b" y="467.630184"/>
     <use style="fill:#2792cb;stroke:#2792cb;" x="342.853866" xlink:href="#m6012dfeb1b" y="468.446184"/>
     <use style="fill:#2792cb;stroke:#2792cb;" x="347.098826" xlink:href="#m6012dfeb1b" y="469.751784"/>
     <use style="fill:#2792cb;stroke:#2792cb;" x="351.343786" xlink:href="#m6012dfeb1b" y="470.404584"/>
     <use style="fill:#2792cb;stroke:#2792cb;" x="355.588746" xlink:href="#m6012dfeb1b" y="472.036584"/>
     <use style="fill:#2792cb;stroke:#2792cb;" x="359.833706" xlink:href="#m6012dfeb1b" y="470.567784"/>
     <use style="fill:#2792cb;stroke:#2792cb;" x="368.323626" xlink:href="#m6012dfeb1b" y="469.098984"/>
     <use style="fill:#2792cb;stroke:#2792cb;" x="372.568586" xlink:href="#m6012dfeb1b" y="470.078184"/>
     <use style="fill:#2792cb;stroke:#2792cb;" x="376.813547" xlink:href="#m6012dfeb1b" y="465.345384"/>
     <use style="fill:#2792cb;stroke:#2792cb;" x="381.058507" xlink:href="#m6012dfeb1b" y="464.202984"/>
     <use style="fill:#2792cb;stroke:#2792cb;" x="385.303467" xlink:href="#m6012dfeb1b" y="464.692584"/>
     <use style="fill:#2792cb;stroke:#2792cb;" x="389.548427" xlink:href="#m6012dfeb1b" y="465.018984"/>
     <use style="fill:#2792cb;stroke:#2792cb;" x="398.038347" xlink:href="#m6012dfeb1b" y="463.060584"/>
     <use style="fill:#2792cb;stroke:#2792cb;" x="402.283307" xlink:href="#m6012dfeb1b" y="463.223784"/>
     <use style="fill:#2792cb;stroke:#2792cb;" x="406.528267" xlink:href="#m6012dfeb1b" y="464.692584"/>
     <use style="fill:#2792cb;stroke:#2792cb;" x="415.018187" xlink:href="#m6012dfeb1b" y="464.202984"/>
     <use style="fill:#2792cb;stroke:#2792cb;" x="419.263147" xlink:href="#m6012dfeb1b" y="461.918184"/>
     <use style="fill:#2792cb;stroke:#2792cb;" x="427.753067" xlink:href="#m6012dfeb1b" y="466.977384"/>
     <use style="fill:#2792cb;stroke:#2792cb;" x="431.998027" xlink:href="#m6012dfeb1b" y="468.119784"/>
     <use style="fill:#2792cb;stroke:#2792cb;" x="440.487947" xlink:href="#m6012dfeb1b" y="465.998184"/>
     <use style="fill:#2792cb;stroke:#2792cb;" x="444.732907" xlink:href="#m6012dfeb1b" y="465.345384"/>
     <use style="fill:#2792cb;stroke:#2792cb;" x="461.712748" xlink:href="#m6012dfeb1b" y="465.998184"/>
     <use style="fill:#2792cb;stroke:#2792cb;" x="465.957708" xlink:href="#m6012dfeb1b" y="465.998184"/>
     <use style="fill:#2792cb;stroke:#2792cb;" x="470.202668" xlink:href="#m6012dfeb1b" y="465.998184"/>
     <use style="fill:#2792cb;stroke:#2792cb;" x="474.447628" xlink:href="#m6012dfeb1b" y="470.078184"/>
     <use style="fill:#2792cb;stroke:#2792cb;" x="478.692588" xlink:href="#m6012dfeb1b" y="470.078184"/>
     <use style="fill:#2792cb;stroke:#2792cb;" x="487.182508" xlink:href="#m6012dfeb1b" y="473.178984"/>
     <use style="fill:#2792cb;stroke:#2792cb;" x="491.427468" xlink:href="#m6012dfeb1b" y="478.238184"/>
     <use style="fill:#2792cb;stroke:#2792cb;" x="495.672428" xlink:href="#m6012dfeb1b" y="480.849384"/>
     <use style="fill:#2792cb;stroke:#2792cb;" x="504.162348" xlink:href="#m6012dfeb1b" y="482.154984"/>
     <use style="fill:#2792cb;stroke:#2792cb;" x="508.407308" xlink:href="#m6012dfeb1b" y="482.644584"/>
     <use style="fill:#2792cb;stroke:#2792cb;" x="516.897229" xlink:href="#m6012dfeb1b" y="483.134184"/>
     <use style="fill:#2792cb;stroke:#2792cb;" x="525.387149" xlink:href="#m6012dfeb1b" y="484.276584"/>
     <use style="fill:#2792cb;stroke:#2792cb;" x="533.877069" xlink:href="#m6012dfeb1b" y="484.276584"/>
     <use style="fill:#2792cb;stroke:#2792cb;" x="538.122029" xlink:href="#m6012dfeb1b" y="484.276584"/>
     <use style="fill:#2792cb;stroke:#2792cb;" x="546.611949" xlink:href="#m6012dfeb1b" y="484.602984"/>
     <use style="fill:#2792cb;stroke:#2792cb;" x="550.856909" xlink:href="#m6012dfeb1b" y="484.602984"/>
     <use style="fill:#2792cb;stroke:#2792cb;" x="555.101869" xlink:href="#m6012dfeb1b" y="484.602984"/>
     <use style="fill:#2792cb;stroke:#2792cb;" x="559.346829" xlink:href="#m6012dfeb1b" y="484.766184"/>
     <use style="fill:#2792cb;stroke:#2792cb;" x="567.836749" xlink:href="#m6012dfeb1b" y="484.439784"/>
     <use style="fill:#2792cb;stroke:#2792cb;" x="576.326669" xlink:href="#m6012dfeb1b" y="484.439784"/>
     <use style="fill:#2792cb;stroke:#2792cb;" x="580.571629" xlink:href="#m6012dfeb1b" y="484.439784"/>
     <use style="fill:#2792cb;stroke:#2792cb;" x="584.816589" xlink:href="#m6012dfeb1b" y="484.602984"/>
     <use style="fill:#2792cb;stroke:#2792cb;" x="589.06155" xlink:href="#m6012dfeb1b" y="484.113384"/>
     <use style="fill:#2792cb;stroke:#2792cb;" x="593.30651" xlink:href="#m6012dfeb1b" y="484.276584"/>
     <use style="fill:#2792cb;stroke:#2792cb;" x="597.55147" xlink:href="#m6012dfeb1b" y="484.276584"/>
     <use style="fill:#2792cb;stroke:#2792cb;" x="606.04139" xlink:href="#m6012dfeb1b" y="484.113384"/>
     <use style="fill:#2792cb;stroke:#2792cb;" x="610.28635" xlink:href="#m6012dfeb1b" y="483.950184"/>
     <use style="fill:#2792cb;stroke:#2792cb;" x="614.53131" xlink:href="#m6012dfeb1b" y="483.950184"/>
     <use style="fill:#2792cb;stroke:#2792cb;" x="618.77627" xlink:href="#m6012dfeb1b" y="483.950184"/>
     <use style="fill:#2792cb;stroke:#2792cb;" x="623.02123" xlink:href="#m6012dfeb1b" y="483.786984"/>
     <use style="fill:#2792cb;stroke:#2792cb;" x="635.75611" xlink:href="#m6012dfeb1b" y="483.623784"/>
     <use style="fill:#2792cb;stroke:#2792cb;" x="640.00107" xlink:href="#m6012dfeb1b" y="483.786984"/>
     <use style="fill:#2792cb;stroke:#2792cb;" x="644.24603" xlink:href="#m6012dfeb1b" y="484.276584"/>
     <use style="fill:#2792cb;stroke:#2792cb;" x="648.49099" xlink:href="#m6012dfeb1b" y="484.113384"/>
     <use style="fill:#2792cb;stroke:#2792cb;" x="652.73595" xlink:href="#m6012dfeb1b" y="483.950184"/>
     <use style="fill:#2792cb;stroke:#2792cb;" x="665.470831" xlink:href="#m6012dfeb1b" y="483.950184"/>
     <use style="fill:#2792cb;stroke:#2792cb;" x="669.715791" xlink:href="#m6012dfeb1b" y="482.154984"/>
     <use style="fill:#2792cb;stroke:#2792cb;" x="673.960751" xlink:href="#m6012dfeb1b" y="482.318184"/>
     <use style="fill:#2792cb;stroke:#2792cb;" x="678.205711" xlink:href="#m6012dfeb1b" y="481.991784"/>
     <use style="fill:#2792cb;stroke:#2792cb;" x="682.450671" xlink:href="#m6012dfeb1b" y="482.154984"/>
     <use style="fill:#2792cb;stroke:#2792cb;" x="695.185551" xlink:href="#m6012dfeb1b" y="481.502184"/>
     <use style="fill:#2792cb;stroke:#2792cb;" x="699.430511" xlink:href="#m6012dfeb1b" y="481.012584"/>
     <use style="fill:#2792cb;stroke:#2792cb;" x="703.675471" xlink:href="#m6012dfeb1b" y="481.012584"/>
     <use style="fill:#2792cb;stroke:#2792cb;" x="707.920431" xlink:href="#m6012dfeb1b" y="481.175784"/>
     <use style="fill:#2792cb;stroke:#2792cb;" x="712.165391" xlink:href="#m6012dfeb1b" y="480.196584"/>
     <use style="fill:#2792cb;stroke:#2792cb;" x="754.614992" xlink:href="#m6012dfeb1b" y="480.686184"/>
     <use style="fill:#2792cb;stroke:#2792cb;" x="758.859952" xlink:href="#m6012dfeb1b" y="480.033384"/>
     <use style="fill:#2792cb;stroke:#2792cb;" x="767.349872" xlink:href="#m6012dfeb1b" y="479.054184"/>
     <use style="fill:#2792cb;stroke:#2792cb;" x="771.594832" xlink:href="#m6012dfeb1b" y="478.238184"/>
     <use style="fill:#2792cb;stroke:#2792cb;" x="784.329712" xlink:href="#m6012dfeb1b" y="478.238184"/>
     <use style="fill:#2792cb;stroke:#2792cb;" x="788.574672" xlink:href="#m6012dfeb1b" y="475.790184"/>
     <use style="fill:#2792cb;stroke:#2792cb;" x="792.819632" xlink:href="#m6012dfeb1b" y="475.463784"/>
     <use style="fill:#2792cb;stroke:#2792cb;" x="797.064593" xlink:href="#m6012dfeb1b" y="474.974184"/>
     <use style="fill:#2792cb;stroke:#2792cb;" x="801.309553" xlink:href="#m6012dfeb1b" y="474.484584"/>
     <use style="fill:#2792cb;stroke:#2792cb;" x="814.044433" xlink:href="#m6012dfeb1b" y="475.300584"/>
     <use style="fill:#2792cb;stroke:#2792cb;" x="818.289393" xlink:href="#m6012dfeb1b" y="475.463784"/>
     <use style="fill:#2792cb;stroke:#2792cb;" x="822.534353" xlink:href="#m6012dfeb1b" y="475.463784"/>
     <use style="fill:#2792cb;stroke:#2792cb;" x="826.779313" xlink:href="#m6012dfeb1b" y="476.116584"/>
     <use style="fill:#2792cb;stroke:#2792cb;" x="831.024273" xlink:href="#m6012dfeb1b" y="476.442984"/>
     <use style="fill:#2792cb;stroke:#2792cb;" x="843.759153" xlink:href="#m6012dfeb1b" y="476.442984"/>
     <use style="fill:#2792cb;stroke:#2792cb;" x="848.004113" xlink:href="#m6012dfeb1b" y="479.217384"/>
     <use style="fill:#2792cb;stroke:#2792cb;" x="852.249073" xlink:href="#m6012dfeb1b" y="479.217384"/>
     <use style="fill:#2792cb;stroke:#2792cb;" x="856.494033" xlink:href="#m6012dfeb1b" y="479.543784"/>
     <use style="fill:#2792cb;stroke:#2792cb;" x="860.738993" xlink:href="#m6012dfeb1b" y="480.686184"/>
     <use style="fill:#2792cb;stroke:#2792cb;" x="873.473874" xlink:href="#m6012dfeb1b" y="480.522984"/>
     <use style="fill:#2792cb;stroke:#2792cb;" x="877.718834" xlink:href="#m6012dfeb1b" y="480.033384"/>
     <use style="fill:#2792cb;stroke:#2792cb;" x="881.963794" xlink:href="#m6012dfeb1b" y="480.033384"/>
     <use style="fill:#2792cb;stroke:#2792cb;" x="886.208754" xlink:href="#m6012dfeb1b" y="481.175784"/>
     <use style="fill:#2792cb;stroke:#2792cb;" x="890.453714" xlink:href="#m6012dfeb1b" y="481.502184"/>
     <use style="fill:#2792cb;stroke:#2792cb;" x="903.188594" xlink:href="#m6012dfeb1b" y="481.502184"/>
     <use style="fill:#2792cb;stroke:#2792cb;" x="907.433554" xlink:href="#m6012dfeb1b" y="479.380584"/>
     <use style="fill:#2792cb;stroke:#2792cb;" x="911.678514" xlink:href="#m6012dfeb1b" y="480.033384"/>
     <use style="fill:#2792cb;stroke:#2792cb;" x="915.923474" xlink:href="#m6012dfeb1b" y="480.033384"/>
     <use style="fill:#2792cb;stroke:#2792cb;" x="920.168434" xlink:href="#m6012dfeb1b" y="479.706984"/>
     <use style="fill:#2792cb;stroke:#2792cb;" x="932.903314" xlink:href="#m6012dfeb1b" y="479.870184"/>
     <use style="fill:#2792cb;stroke:#2792cb;" x="937.148275" xlink:href="#m6012dfeb1b" y="478.727784"/>
     <use style="fill:#2792cb;stroke:#2792cb;" x="941.393235" xlink:href="#m6012dfeb1b" y="478.727784"/>
     <use style="fill:#2792cb;stroke:#2792cb;" x="945.638195" xlink:href="#m6012dfeb1b" y="478.727784"/>
     <use style="fill:#2792cb;stroke:#2792cb;" x="949.883155" xlink:href="#m6012dfeb1b" y="478.727784"/>
     <use style="fill:#2792cb;stroke:#2792cb;" x="962.618035" xlink:href="#m6012dfeb1b" y="478.074984"/>
     <use style="fill:#2792cb;stroke:#2792cb;" x="966.862995" xlink:href="#m6012dfeb1b" y="475.463784"/>
     <use style="fill:#2792cb;stroke:#2792cb;" x="971.107955" xlink:href="#m6012dfeb1b" y="475.463784"/>
     <use style="fill:#2792cb;stroke:#2792cb;" x="975.352915" xlink:href="#m6012dfeb1b" y="474.158184"/>
     <use style="fill:#2792cb;stroke:#2792cb;" x="979.597875" xlink:href="#m6012dfeb1b" y="473.505384"/>
     <use style="fill:#2792cb;stroke:#2792cb;" x="992.332755" xlink:href="#m6012dfeb1b" y="474.158184"/>
     <use style="fill:#2792cb;stroke:#2792cb;" x="996.577715" xlink:href="#m6012dfeb1b" y="464.855784"/>
     <use style="fill:#2792cb;stroke:#2792cb;" x="1000.822675" xlink:href="#m6012dfeb1b" y="465.998184"/>
     <use style="fill:#2792cb;stroke:#2792cb;" x="1005.067636" xlink:href="#m6012dfeb1b" y="464.855784"/>
     <use style="fill:#2792cb;stroke:#2792cb;" x="1009.312596" xlink:href="#m6012dfeb1b" y="463.223784"/>
     <use style="fill:#2792cb;stroke:#2792cb;" x="1022.047476" xlink:href="#m6012dfeb1b" y="463.876584"/>
     <use style="fill:#2792cb;stroke:#2792cb;" x="1026.292436" xlink:href="#m6012dfeb1b" y="457.348584"/>
     <use style="fill:#2792cb;stroke:#2792cb;" x="1056.007156" xlink:href="#m6012dfeb1b" y="438.254184"/>
     <use style="fill:#2792cb;stroke:#2792cb;" x="1060.252116" xlink:href="#m6012dfeb1b" y="434.500584"/>
     <use style="fill:#2792cb;stroke:#2792cb;" x="1064.497076" xlink:href="#m6012dfeb1b" y="430.257384"/>
     <use style="fill:#2792cb;stroke:#2792cb;" x="1068.742036" xlink:href="#m6012dfeb1b" y="425.198184"/>
     <use style="fill:#2792cb;stroke:#2792cb;" x="1081.476917" xlink:href="#m6012dfeb1b" y="414.916584"/>
     <use style="fill:#2792cb;stroke:#2792cb;" x="1085.721877" xlink:href="#m6012dfeb1b" y="401.370984"/>
     <use style="fill:#2792cb;stroke:#2792cb;" x="1089.966837" xlink:href="#m6012dfeb1b" y="402.186984"/>
     <use style="fill:#2792cb;stroke:#2792cb;" x="1094.211797" xlink:href="#m6012dfeb1b" y="385.866984"/>
     <use style="fill:#2792cb;stroke:#2792cb;" x="1098.456757" xlink:href="#m6012dfeb1b" y="398.106984"/>
     <use style="fill:#2792cb;stroke:#2792cb;" x="1111.191637" xlink:href="#m6012dfeb1b" y="374.116584"/>
     <use style="fill:#2792cb;stroke:#2792cb;" x="1115.436597" xlink:href="#m6012dfeb1b" y="380.154984"/>
     <use style="fill:#2792cb;stroke:#2792cb;" x="1119.681557" xlink:href="#m6012dfeb1b" y="371.668584"/>
     <use style="fill:#2792cb;stroke:#2792cb;" x="1123.926517" xlink:href="#m6012dfeb1b" y="370.036584"/>
     <use style="fill:#2792cb;stroke:#2792cb;" x="1128.171477" xlink:href="#m6012dfeb1b" y="354.695784"/>
    </g>
   </g>
   <g id="patch_3">
    <path d="M 62.89875 501.738984 
L 1178.89875 501.738984 
" style="fill:none;stroke:#000000;stroke-linecap:square;stroke-linejoin:miter;stroke-width:0.8;"/>
   </g>
   <g id="legend_1">
    <g id="line2d_72">
     <path d="M 1091.653438 25.237422 
L 1111.653438 25.237422 
" style="fill:none;stroke:#dbcd00;stroke-linecap:square;stroke-width:2;"/>
    </g>
    <g id="line2d_73">
     <g>
      <use style="fill:#dbcd00;stroke:#dbcd00;" x="1101.653438" xlink:href="#m8049e9afa4" y="25.237422"/>
     </g>
    </g>
    <g id="text_41">
     <!-- Genesene -->
     <defs>
      <path d="M 59.515625 10.40625 
L 59.515625 29.984375 
L 43.40625 29.984375 
L 43.40625 38.09375 
L 69.28125 38.09375 
L 69.28125 6.78125 
Q 63.578125 2.734375 56.6875 0.65625 
Q 49.8125 -1.421875 42 -1.421875 
Q 24.90625 -1.421875 15.25 8.5625 
Q 5.609375 18.5625 5.609375 36.375 
Q 5.609375 54.25 15.25 64.234375 
Q 24.90625 74.21875 42 74.21875 
Q 49.125 74.21875 55.546875 72.453125 
Q 61.96875 70.703125 67.390625 67.28125 
L 67.390625 56.78125 
Q 61.921875 61.421875 55.765625 63.765625 
Q 49.609375 66.109375 42.828125 66.109375 
Q 29.4375 66.109375 22.71875 58.640625 
Q 16.015625 51.171875 16.015625 36.375 
Q 16.015625 21.625 22.71875 14.15625 
Q 29.4375 6.6875 42.828125 6.6875 
Q 48.046875 6.6875 52.140625 7.59375 
Q 56.25 8.5 59.515625 10.40625 
z
" id="DejaVuSans-71"/>
      <path d="M 44.28125 53.078125 
L 44.28125 44.578125 
Q 40.484375 46.53125 36.375 47.5 
Q 32.28125 48.484375 27.875 48.484375 
Q 21.1875 48.484375 17.84375 46.4375 
Q 14.5 44.390625 14.5 40.28125 
Q 14.5 37.15625 16.890625 35.375 
Q 19.28125 33.59375 26.515625 31.984375 
L 29.59375 31.296875 
Q 39.15625 29.25 43.1875 25.515625 
Q 47.21875 21.78125 47.21875 15.09375 
Q 47.21875 7.46875 41.1875 3.015625 
Q 35.15625 -1.421875 24.609375 -1.421875 
Q 20.21875 -1.421875 15.453125 -0.5625 
Q 10.6875 0.296875 5.421875 2 
L 5.421875 11.28125 
Q 10.40625 8.6875 15.234375 7.390625 
Q 20.0625 6.109375 24.8125 6.109375 
Q 31.15625 6.109375 34.5625 8.28125 
Q 37.984375 10.453125 37.984375 14.40625 
Q 37.984375 18.0625 35.515625 20.015625 
Q 33.0625 21.96875 24.703125 23.78125 
L 21.578125 24.515625 
Q 13.234375 26.265625 9.515625 29.90625 
Q 5.8125 33.546875 5.8125 39.890625 
Q 5.8125 47.609375 11.28125 51.796875 
Q 16.75 56 26.8125 56 
Q 31.78125 56 36.171875 55.265625 
Q 40.578125 54.546875 44.28125 53.078125 
z
" id="DejaVuSans-115"/>
     </defs>
     <g transform="translate(1119.653438 28.737422)scale(0.1 -0.1)">
      <use xlink:href="#DejaVuSans-71"/>
      <use x="77.490234" xlink:href="#DejaVuSans-101"/>
      <use x="139.013672" xlink:href="#DejaVuSans-110"/>
      <use x="202.392578" xlink:href="#DejaVuSans-101"/>
      <use x="263.916016" xlink:href="#DejaVuSans-115"/>
      <use x="316.015625" xlink:href="#DejaVuSans-101"/>
      <use x="377.539062" xlink:href="#DejaVuSans-110"/>
      <use x="440.917969" xlink:href="#DejaVuSans-101"/>
     </g>
    </g>
    <g id="line2d_74">
     <path d="M 1091.653438 39.915547 
L 1111.653438 39.915547 
" style="fill:none;stroke:#2792cb;stroke-linecap:square;stroke-width:2;"/>
    </g>
    <g id="line2d_75">
     <g>
      <use style="fill:#2792cb;stroke:#2792cb;" x="1101.653438" xlink:href="#m6012dfeb1b" y="39.915547"/>
     </g>
    </g>
    <g id="text_42">
     <!-- Erkrankte -->
     <defs>
      <path d="M 9.8125 72.90625 
L 55.90625 72.90625 
L 55.90625 64.59375 
L 19.671875 64.59375 
L 19.671875 43.015625 
L 54.390625 43.015625 
L 54.390625 34.71875 
L 19.671875 34.71875 
L 19.671875 8.296875 
L 56.78125 8.296875 
L 56.78125 0 
L 9.8125 0 
z
" id="DejaVuSans-69"/>
      <path d="M 41.109375 46.296875 
Q 39.59375 47.171875 37.8125 47.578125 
Q 36.03125 48 33.890625 48 
Q 26.265625 48 22.1875 43.046875 
Q 18.109375 38.09375 18.109375 28.8125 
L 18.109375 0 
L 9.078125 0 
L 9.078125 54.6875 
L 18.109375 54.6875 
L 18.109375 46.1875 
Q 20.953125 51.171875 25.484375 53.578125 
Q 30.03125 56 36.53125 56 
Q 37.453125 56 38.578125 55.875 
Q 39.703125 55.765625 41.0625 55.515625 
z
" id="DejaVuSans-114"/>
      <path d="M 9.078125 75.984375 
L 18.109375 75.984375 
L 18.109375 31.109375 
L 44.921875 54.6875 
L 56.390625 54.6875 
L 27.390625 29.109375 
L 57.625 0 
L 45.90625 0 
L 18.109375 26.703125 
L 18.109375 0 
L 9.078125 0 
z
" id="DejaVuSans-107"/>
      <path d="M 18.3125 70.21875 
L 18.3125 54.6875 
L 36.8125 54.6875 
L 36.8125 47.703125 
L 18.3125 47.703125 
L 18.3125 18.015625 
Q 18.3125 11.328125 20.140625 9.421875 
Q 21.96875 7.515625 27.59375 7.515625 
L 36.8125 7.515625 
L 36.8125 0 
L 27.59375 0 
Q 17.1875 0 13.234375 3.875 
Q 9.28125 7.765625 9.28125 18.015625 
L 9.28125 47.703125 
L 2.6875 47.703125 
L 2.6875 54.6875 
L 9.28125 54.6875 
L 9.28125 70.21875 
z
" id="DejaVuSans-116"/>
     </defs>
     <g transform="translate(1119.653438 43.415547)scale(0.1 -0.1)">
      <use xlink:href="#DejaVuSans-69"/>
      <use x="63.183594" xlink:href="#DejaVuSans-114"/>
      <use x="104.296875" xlink:href="#DejaVuSans-107"/>
      <use x="162.207031" xlink:href="#DejaVuSans-114"/>
      <use x="203.320312" xlink:href="#DejaVuSans-97"/>
      <use x="264.599609" xlink:href="#DejaVuSans-110"/>
      <use x="327.978516" xlink:href="#DejaVuSans-107"/>
      <use x="385.888672" xlink:href="#DejaVuSans-116"/>
      <use x="425.097656" xlink:href="#DejaVuSans-101"/>
     </g>
    </g>
   </g>
  </g>
 </g>
 <defs>
  <clipPath id="p19a015fc29">
   <rect height="489.6" width="1116" x="62.89875" y="12.138984"/>
  </clipPath>
 </defs>
</svg>
