<?xml version="1.0" encoding="utf-8" standalone="no"?>
<!DOCTYPE svg PUBLIC "-//W3C//DTD SVG 1.1//EN"
  "http://www.w3.org/Graphics/SVG/1.1/DTD/svg11.dtd">
<!-- Created with matplotlib (https://matplotlib.org/) -->
<svg height="564.610093pt" version="1.1" viewBox="0 0 1177.8275 564.610093" width="1177.8275pt" xmlns="http://www.w3.org/2000/svg" xmlns:xlink="http://www.w3.org/1999/xlink">
 <defs>
  <style type="text/css">
*{stroke-linecap:butt;stroke-linejoin:round;}
  </style>
 </defs>
 <g id="figure_1">
  <g id="patch_1">
   <path d="M 0 564.610093 
L 1177.8275 564.610093 
L 1177.8275 0 
L 0 0 
z
" style="fill:#ffffff;"/>
  </g>
  <g id="axes_1">
   <g id="patch_2">
    <path d="M 54.6275 501.738984 
L 1170.6275 501.738984 
L 1170.6275 12.138984 
L 54.6275 12.138984 
z
" style="fill:#ffffff;"/>
   </g>
   <g id="matplotlib.axis_1">
    <g id="xtick_1">
     <g id="line2d_1">
      <defs>
       <path d="M 0 0 
L 0 3.5 
" id="m16ce8d375f" style="stroke:#000000;stroke-width:0.8;"/>
      </defs>
      <g>
       <use style="stroke:#000000;stroke-width:0.8;" x="211.528134" xlink:href="#m16ce8d375f" y="501.738984"/>
      </g>
     </g>
     <g id="text_1">
      <!-- 2020-04-01 -->
      <defs>
       <path d="M 19.1875 8.296875 
L 53.609375 8.296875 
L 53.609375 0 
L 7.328125 0 
L 7.328125 8.296875 
Q 12.9375 14.109375 22.625 23.890625 
Q 32.328125 33.6875 34.8125 36.53125 
Q 39.546875 41.84375 41.421875 45.53125 
Q 43.3125 49.21875 43.3125 52.78125 
Q 43.3125 58.59375 39.234375 62.25 
Q 35.15625 65.921875 28.609375 65.921875 
Q 23.96875 65.921875 18.8125 64.3125 
Q 13.671875 62.703125 7.8125 59.421875 
L 7.8125 69.390625 
Q 13.765625 71.78125 18.9375 73 
Q 24.125 74.21875 28.421875 74.21875 
Q 39.75 74.21875 46.484375 68.546875 
Q 53.21875 62.890625 53.21875 53.421875 
Q 53.21875 48.921875 51.53125 44.890625 
Q 49.859375 40.875 45.40625 35.40625 
Q 44.1875 33.984375 37.640625 27.21875 
Q 31.109375 20.453125 19.1875 8.296875 
z
" id="DejaVuSans-50"/>
       <path d="M 31.78125 66.40625 
Q 24.171875 66.40625 20.328125 58.90625 
Q 16.5 51.421875 16.5 36.375 
Q 16.5 21.390625 20.328125 13.890625 
Q 24.171875 6.390625 31.78125 6.390625 
Q 39.453125 6.390625 43.28125 13.890625 
Q 47.125 21.390625 47.125 36.375 
Q 47.125 51.421875 43.28125 58.90625 
Q 39.453125 66.40625 31.78125 66.40625 
z
M 31.78125 74.21875 
Q 44.046875 74.21875 50.515625 64.515625 
Q 56.984375 54.828125 56.984375 36.375 
Q 56.984375 17.96875 50.515625 8.265625 
Q 44.046875 -1.421875 31.78125 -1.421875 
Q 19.53125 -1.421875 13.0625 8.265625 
Q 6.59375 17.96875 6.59375 36.375 
Q 6.59375 54.828125 13.0625 64.515625 
Q 19.53125 74.21875 31.78125 74.21875 
z
" id="DejaVuSans-48"/>
       <path d="M 4.890625 31.390625 
L 31.203125 31.390625 
L 31.203125 23.390625 
L 4.890625 23.390625 
z
" id="DejaVuSans-45"/>
       <path d="M 37.796875 64.3125 
L 12.890625 25.390625 
L 37.796875 25.390625 
z
M 35.203125 72.90625 
L 47.609375 72.90625 
L 47.609375 25.390625 
L 58.015625 25.390625 
L 58.015625 17.1875 
L 47.609375 17.1875 
L 47.609375 0 
L 37.796875 0 
L 37.796875 17.1875 
L 4.890625 17.1875 
L 4.890625 26.703125 
z
" id="DejaVuSans-52"/>
       <path d="M 12.40625 8.296875 
L 28.515625 8.296875 
L 28.515625 63.921875 
L 10.984375 60.40625 
L 10.984375 69.390625 
L 28.421875 72.90625 
L 38.28125 72.90625 
L 38.28125 8.296875 
L 54.390625 8.296875 
L 54.390625 0 
L 12.40625 0 
z
" id="DejaVuSans-49"/>
      </defs>
      <g transform="translate(144.747847 555.068713)rotate(-30)scale(0.13 -0.13)">
       <use xlink:href="#DejaVuSans-50"/>
       <use x="63.623047" xlink:href="#DejaVuSans-48"/>
       <use x="127.246094" xlink:href="#DejaVuSans-50"/>
       <use x="190.869141" xlink:href="#DejaVuSans-48"/>
       <use x="254.492188" xlink:href="#DejaVuSans-45"/>
       <use x="290.576172" xlink:href="#DejaVuSans-48"/>
       <use x="354.199219" xlink:href="#DejaVuSans-52"/>
       <use x="417.822266" xlink:href="#DejaVuSans-45"/>
       <use x="453.90625" xlink:href="#DejaVuSans-48"/>
       <use x="517.529297" xlink:href="#DejaVuSans-49"/>
      </g>
     </g>
    </g>
    <g id="xtick_2">
     <g id="line2d_2">
      <g>
       <use style="stroke:#000000;stroke-width:0.8;" x="376.686697" xlink:href="#m16ce8d375f" y="501.738984"/>
      </g>
     </g>
     <g id="text_2">
      <!-- 2020-04-15 -->
      <defs>
       <path d="M 10.796875 72.90625 
L 49.515625 72.90625 
L 49.515625 64.59375 
L 19.828125 64.59375 
L 19.828125 46.734375 
Q 21.96875 47.46875 24.109375 47.828125 
Q 26.265625 48.1875 28.421875 48.1875 
Q 40.625 48.1875 47.75 41.5 
Q 54.890625 34.8125 54.890625 23.390625 
Q 54.890625 11.625 47.5625 5.09375 
Q 40.234375 -1.421875 26.90625 -1.421875 
Q 22.3125 -1.421875 17.546875 -0.640625 
Q 12.796875 0.140625 7.71875 1.703125 
L 7.71875 11.625 
Q 12.109375 9.234375 16.796875 8.0625 
Q 21.484375 6.890625 26.703125 6.890625 
Q 35.15625 6.890625 40.078125 11.328125 
Q 45.015625 15.765625 45.015625 23.390625 
Q 45.015625 31 40.078125 35.4375 
Q 35.15625 39.890625 26.703125 39.890625 
Q 22.75 39.890625 18.8125 39.015625 
Q 14.890625 38.140625 10.796875 36.28125 
z
" id="DejaVuSans-53"/>
      </defs>
      <g transform="translate(309.90641 555.068713)rotate(-30)scale(0.13 -0.13)">
       <use xlink:href="#DejaVuSans-50"/>
       <use x="63.623047" xlink:href="#DejaVuSans-48"/>
       <use x="127.246094" xlink:href="#DejaVuSans-50"/>
       <use x="190.869141" xlink:href="#DejaVuSans-48"/>
       <use x="254.492188" xlink:href="#DejaVuSans-45"/>
       <use x="290.576172" xlink:href="#DejaVuSans-48"/>
       <use x="354.199219" xlink:href="#DejaVuSans-52"/>
       <use x="417.822266" xlink:href="#DejaVuSans-45"/>
       <use x="453.90625" xlink:href="#DejaVuSans-49"/>
       <use x="517.529297" xlink:href="#DejaVuSans-53"/>
      </g>
     </g>
    </g>
    <g id="xtick_3">
     <g id="line2d_3">
      <g>
       <use style="stroke:#000000;stroke-width:0.8;" x="565.439339" xlink:href="#m16ce8d375f" y="501.738984"/>
      </g>
     </g>
     <g id="text_3">
      <!-- 2020-05-01 -->
      <g transform="translate(498.659053 555.068713)rotate(-30)scale(0.13 -0.13)">
       <use xlink:href="#DejaVuSans-50"/>
       <use x="63.623047" xlink:href="#DejaVuSans-48"/>
       <use x="127.246094" xlink:href="#DejaVuSans-50"/>
       <use x="190.869141" xlink:href="#DejaVuSans-48"/>
       <use x="254.492188" xlink:href="#DejaVuSans-45"/>
       <use x="290.576172" xlink:href="#DejaVuSans-48"/>
       <use x="354.199219" xlink:href="#DejaVuSans-53"/>
       <use x="417.822266" xlink:href="#DejaVuSans-45"/>
       <use x="453.90625" xlink:href="#DejaVuSans-48"/>
       <use x="517.529297" xlink:href="#DejaVuSans-49"/>
      </g>
     </g>
    </g>
    <g id="xtick_4">
     <g id="line2d_4">
      <g>
       <use style="stroke:#000000;stroke-width:0.8;" x="730.597902" xlink:href="#m16ce8d375f" y="501.738984"/>
      </g>
     </g>
     <g id="text_4">
      <!-- 2020-05-15 -->
      <g transform="translate(663.817615 555.068713)rotate(-30)scale(0.13 -0.13)">
       <use xlink:href="#DejaVuSans-50"/>
       <use x="63.623047" xlink:href="#DejaVuSans-48"/>
       <use x="127.246094" xlink:href="#DejaVuSans-50"/>
       <use x="190.869141" xlink:href="#DejaVuSans-48"/>
       <use x="254.492188" xlink:href="#DejaVuSans-45"/>
       <use x="290.576172" xlink:href="#DejaVuSans-48"/>
       <use x="354.199219" xlink:href="#DejaVuSans-53"/>
       <use x="417.822266" xlink:href="#DejaVuSans-45"/>
       <use x="453.90625" xlink:href="#DejaVuSans-49"/>
       <use x="517.529297" xlink:href="#DejaVuSans-53"/>
      </g>
     </g>
    </g>
    <g id="xtick_5">
     <g id="line2d_5">
      <g>
       <use style="stroke:#000000;stroke-width:0.8;" x="931.147585" xlink:href="#m16ce8d375f" y="501.738984"/>
      </g>
     </g>
     <g id="text_5">
      <!-- 2020-06-01 -->
      <defs>
       <path d="M 33.015625 40.375 
Q 26.375 40.375 22.484375 35.828125 
Q 18.609375 31.296875 18.609375 23.390625 
Q 18.609375 15.53125 22.484375 10.953125 
Q 26.375 6.390625 33.015625 6.390625 
Q 39.65625 6.390625 43.53125 10.953125 
Q 47.40625 15.53125 47.40625 23.390625 
Q 47.40625 31.296875 43.53125 35.828125 
Q 39.65625 40.375 33.015625 40.375 
z
M 52.59375 71.296875 
L 52.59375 62.3125 
Q 48.875 64.0625 45.09375 64.984375 
Q 41.3125 65.921875 37.59375 65.921875 
Q 27.828125 65.921875 22.671875 59.328125 
Q 17.53125 52.734375 16.796875 39.40625 
Q 19.671875 43.65625 24.015625 45.921875 
Q 28.375 48.1875 33.59375 48.1875 
Q 44.578125 48.1875 50.953125 41.515625 
Q 57.328125 34.859375 57.328125 23.390625 
Q 57.328125 12.15625 50.6875 5.359375 
Q 44.046875 -1.421875 33.015625 -1.421875 
Q 20.359375 -1.421875 13.671875 8.265625 
Q 6.984375 17.96875 6.984375 36.375 
Q 6.984375 53.65625 15.1875 63.9375 
Q 23.390625 74.21875 37.203125 74.21875 
Q 40.921875 74.21875 44.703125 73.484375 
Q 48.484375 72.75 52.59375 71.296875 
z
" id="DejaVuSans-54"/>
      </defs>
      <g transform="translate(864.367298 555.068713)rotate(-30)scale(0.13 -0.13)">
       <use xlink:href="#DejaVuSans-50"/>
       <use x="63.623047" xlink:href="#DejaVuSans-48"/>
       <use x="127.246094" xlink:href="#DejaVuSans-50"/>
       <use x="190.869141" xlink:href="#DejaVuSans-48"/>
       <use x="254.492188" xlink:href="#DejaVuSans-45"/>
       <use x="290.576172" xlink:href="#DejaVuSans-48"/>
       <use x="354.199219" xlink:href="#DejaVuSans-54"/>
       <use x="417.822266" xlink:href="#DejaVuSans-45"/>
       <use x="453.90625" xlink:href="#DejaVuSans-48"/>
       <use x="517.529297" xlink:href="#DejaVuSans-49"/>
      </g>
     </g>
    </g>
    <g id="xtick_6">
     <g id="line2d_6">
      <g>
       <use style="stroke:#000000;stroke-width:0.8;" x="1096.306147" xlink:href="#m16ce8d375f" y="501.738984"/>
      </g>
     </g>
     <g id="text_6">
      <!-- 2020-06-15 -->
      <g transform="translate(1029.52586 555.068713)rotate(-30)scale(0.13 -0.13)">
       <use xlink:href="#DejaVuSans-50"/>
       <use x="63.623047" xlink:href="#DejaVuSans-48"/>
       <use x="127.246094" xlink:href="#DejaVuSans-50"/>
       <use x="190.869141" xlink:href="#DejaVuSans-48"/>
       <use x="254.492188" xlink:href="#DejaVuSans-45"/>
       <use x="290.576172" xlink:href="#DejaVuSans-48"/>
       <use x="354.199219" xlink:href="#DejaVuSans-54"/>
       <use x="417.822266" xlink:href="#DejaVuSans-45"/>
       <use x="453.90625" xlink:href="#DejaVuSans-49"/>
       <use x="517.529297" xlink:href="#DejaVuSans-53"/>
      </g>
     </g>
    </g>
   </g>
   <g id="matplotlib.axis_2">
    <g id="ytick_1">
     <g id="line2d_7">
      <path clip-path="url(#p7cb49bd53a)" d="M 54.6275 481.429149 
L 1170.6275 481.429149 
" style="fill:none;stroke:#b0b0b0;stroke-linecap:square;stroke-width:0.8;"/>
     </g>
     <g id="line2d_8">
      <defs>
       <path d="M 0 0 
L -3.5 0 
" id="m5553836e83" style="stroke:#000000;stroke-width:0.8;"/>
      </defs>
      <g>
       <use style="stroke:#000000;stroke-width:0.8;" x="54.6275" xlink:href="#m5553836e83" y="481.429149"/>
      </g>
     </g>
     <g id="text_7">
      <!-- 0 -->
      <g transform="translate(39.35625 486.368133)scale(0.13 -0.13)">
       <use xlink:href="#DejaVuSans-48"/>
      </g>
     </g>
    </g>
    <g id="ytick_2">
     <g id="line2d_9">
      <path clip-path="url(#p7cb49bd53a)" d="M 54.6275 429.285797 
L 1170.6275 429.285797 
" style="fill:none;stroke:#b0b0b0;stroke-linecap:square;stroke-width:0.8;"/>
     </g>
     <g id="line2d_10">
      <g>
       <use style="stroke:#000000;stroke-width:0.8;" x="54.6275" xlink:href="#m5553836e83" y="429.285797"/>
      </g>
     </g>
     <g id="text_8">
      <!-- 100 -->
      <g transform="translate(22.81375 434.224782)scale(0.13 -0.13)">
       <use xlink:href="#DejaVuSans-49"/>
       <use x="63.623047" xlink:href="#DejaVuSans-48"/>
       <use x="127.246094" xlink:href="#DejaVuSans-48"/>
      </g>
     </g>
    </g>
    <g id="ytick_3">
     <g id="line2d_11">
      <path clip-path="url(#p7cb49bd53a)" d="M 54.6275 377.142446 
L 1170.6275 377.142446 
" style="fill:none;stroke:#b0b0b0;stroke-linecap:square;stroke-width:0.8;"/>
     </g>
     <g id="line2d_12">
      <g>
       <use style="stroke:#000000;stroke-width:0.8;" x="54.6275" xlink:href="#m5553836e83" y="377.142446"/>
      </g>
     </g>
     <g id="text_9">
      <!-- 200 -->
      <g transform="translate(22.81375 382.08143)scale(0.13 -0.13)">
       <use xlink:href="#DejaVuSans-50"/>
       <use x="63.623047" xlink:href="#DejaVuSans-48"/>
       <use x="127.246094" xlink:href="#DejaVuSans-48"/>
      </g>
     </g>
    </g>
    <g id="ytick_4">
     <g id="line2d_13">
      <path clip-path="url(#p7cb49bd53a)" d="M 54.6275 324.999094 
L 1170.6275 324.999094 
" style="fill:none;stroke:#b0b0b0;stroke-linecap:square;stroke-width:0.8;"/>
     </g>
     <g id="line2d_14">
      <g>
       <use style="stroke:#000000;stroke-width:0.8;" x="54.6275" xlink:href="#m5553836e83" y="324.999094"/>
      </g>
     </g>
     <g id="text_10">
      <!-- 300 -->
      <defs>
       <path d="M 40.578125 39.3125 
Q 47.65625 37.796875 51.625 33 
Q 55.609375 28.21875 55.609375 21.1875 
Q 55.609375 10.40625 48.1875 4.484375 
Q 40.765625 -1.421875 27.09375 -1.421875 
Q 22.515625 -1.421875 17.65625 -0.515625 
Q 12.796875 0.390625 7.625 2.203125 
L 7.625 11.71875 
Q 11.71875 9.328125 16.59375 8.109375 
Q 21.484375 6.890625 26.8125 6.890625 
Q 36.078125 6.890625 40.9375 10.546875 
Q 45.796875 14.203125 45.796875 21.1875 
Q 45.796875 27.640625 41.28125 31.265625 
Q 36.765625 34.90625 28.71875 34.90625 
L 20.21875 34.90625 
L 20.21875 43.015625 
L 29.109375 43.015625 
Q 36.375 43.015625 40.234375 45.921875 
Q 44.09375 48.828125 44.09375 54.296875 
Q 44.09375 59.90625 40.109375 62.90625 
Q 36.140625 65.921875 28.71875 65.921875 
Q 24.65625 65.921875 20.015625 65.03125 
Q 15.375 64.15625 9.8125 62.3125 
L 9.8125 71.09375 
Q 15.4375 72.65625 20.34375 73.4375 
Q 25.25 74.21875 29.59375 74.21875 
Q 40.828125 74.21875 47.359375 69.109375 
Q 53.90625 64.015625 53.90625 55.328125 
Q 53.90625 49.265625 50.4375 45.09375 
Q 46.96875 40.921875 40.578125 39.3125 
z
" id="DejaVuSans-51"/>
      </defs>
      <g transform="translate(22.81375 329.938078)scale(0.13 -0.13)">
       <use xlink:href="#DejaVuSans-51"/>
       <use x="63.623047" xlink:href="#DejaVuSans-48"/>
       <use x="127.246094" xlink:href="#DejaVuSans-48"/>
      </g>
     </g>
    </g>
    <g id="ytick_5">
     <g id="line2d_15">
      <path clip-path="url(#p7cb49bd53a)" d="M 54.6275 272.855742 
L 1170.6275 272.855742 
" style="fill:none;stroke:#b0b0b0;stroke-linecap:square;stroke-width:0.8;"/>
     </g>
     <g id="line2d_16">
      <g>
       <use style="stroke:#000000;stroke-width:0.8;" x="54.6275" xlink:href="#m5553836e83" y="272.855742"/>
      </g>
     </g>
     <g id="text_11">
      <!-- 400 -->
      <g transform="translate(22.81375 277.794727)scale(0.13 -0.13)">
       <use xlink:href="#DejaVuSans-52"/>
       <use x="63.623047" xlink:href="#DejaVuSans-48"/>
       <use x="127.246094" xlink:href="#DejaVuSans-48"/>
      </g>
     </g>
    </g>
    <g id="ytick_6">
     <g id="line2d_17">
      <path clip-path="url(#p7cb49bd53a)" d="M 54.6275 220.712391 
L 1170.6275 220.712391 
" style="fill:none;stroke:#b0b0b0;stroke-linecap:square;stroke-width:0.8;"/>
     </g>
     <g id="line2d_18">
      <g>
       <use style="stroke:#000000;stroke-width:0.8;" x="54.6275" xlink:href="#m5553836e83" y="220.712391"/>
      </g>
     </g>
     <g id="text_12">
      <!-- 500 -->
      <g transform="translate(22.81375 225.651375)scale(0.13 -0.13)">
       <use xlink:href="#DejaVuSans-53"/>
       <use x="63.623047" xlink:href="#DejaVuSans-48"/>
       <use x="127.246094" xlink:href="#DejaVuSans-48"/>
      </g>
     </g>
    </g>
    <g id="ytick_7">
     <g id="line2d_19">
      <path clip-path="url(#p7cb49bd53a)" d="M 54.6275 168.569039 
L 1170.6275 168.569039 
" style="fill:none;stroke:#b0b0b0;stroke-linecap:square;stroke-width:0.8;"/>
     </g>
     <g id="line2d_20">
      <g>
       <use style="stroke:#000000;stroke-width:0.8;" x="54.6275" xlink:href="#m5553836e83" y="168.569039"/>
      </g>
     </g>
     <g id="text_13">
      <!-- 600 -->
      <g transform="translate(22.81375 173.508024)scale(0.13 -0.13)">
       <use xlink:href="#DejaVuSans-54"/>
       <use x="63.623047" xlink:href="#DejaVuSans-48"/>
       <use x="127.246094" xlink:href="#DejaVuSans-48"/>
      </g>
     </g>
    </g>
    <g id="ytick_8">
     <g id="line2d_21">
      <path clip-path="url(#p7cb49bd53a)" d="M 54.6275 116.425688 
L 1170.6275 116.425688 
" style="fill:none;stroke:#b0b0b0;stroke-linecap:square;stroke-width:0.8;"/>
     </g>
     <g id="line2d_22">
      <g>
       <use style="stroke:#000000;stroke-width:0.8;" x="54.6275" xlink:href="#m5553836e83" y="116.425688"/>
      </g>
     </g>
     <g id="text_14">
      <!-- 700 -->
      <defs>
       <path d="M 8.203125 72.90625 
L 55.078125 72.90625 
L 55.078125 68.703125 
L 28.609375 0 
L 18.3125 0 
L 43.21875 64.59375 
L 8.203125 64.59375 
z
" id="DejaVuSans-55"/>
      </defs>
      <g transform="translate(22.81375 121.364672)scale(0.13 -0.13)">
       <use xlink:href="#DejaVuSans-55"/>
       <use x="63.623047" xlink:href="#DejaVuSans-48"/>
       <use x="127.246094" xlink:href="#DejaVuSans-48"/>
      </g>
     </g>
    </g>
    <g id="ytick_9">
     <g id="line2d_23">
      <path clip-path="url(#p7cb49bd53a)" d="M 54.6275 64.282336 
L 1170.6275 64.282336 
" style="fill:none;stroke:#b0b0b0;stroke-linecap:square;stroke-width:0.8;"/>
     </g>
     <g id="line2d_24">
      <g>
       <use style="stroke:#000000;stroke-width:0.8;" x="54.6275" xlink:href="#m5553836e83" y="64.282336"/>
      </g>
     </g>
     <g id="text_15">
      <!-- 800 -->
      <defs>
       <path d="M 31.78125 34.625 
Q 24.75 34.625 20.71875 30.859375 
Q 16.703125 27.09375 16.703125 20.515625 
Q 16.703125 13.921875 20.71875 10.15625 
Q 24.75 6.390625 31.78125 6.390625 
Q 38.8125 6.390625 42.859375 10.171875 
Q 46.921875 13.96875 46.921875 20.515625 
Q 46.921875 27.09375 42.890625 30.859375 
Q 38.875 34.625 31.78125 34.625 
z
M 21.921875 38.8125 
Q 15.578125 40.375 12.03125 44.71875 
Q 8.5 49.078125 8.5 55.328125 
Q 8.5 64.0625 14.71875 69.140625 
Q 20.953125 74.21875 31.78125 74.21875 
Q 42.671875 74.21875 48.875 69.140625 
Q 55.078125 64.0625 55.078125 55.328125 
Q 55.078125 49.078125 51.53125 44.71875 
Q 48 40.375 41.703125 38.8125 
Q 48.828125 37.15625 52.796875 32.3125 
Q 56.78125 27.484375 56.78125 20.515625 
Q 56.78125 9.90625 50.3125 4.234375 
Q 43.84375 -1.421875 31.78125 -1.421875 
Q 19.734375 -1.421875 13.25 4.234375 
Q 6.78125 9.90625 6.78125 20.515625 
Q 6.78125 27.484375 10.78125 32.3125 
Q 14.796875 37.15625 21.921875 38.8125 
z
M 18.3125 54.390625 
Q 18.3125 48.734375 21.84375 45.5625 
Q 25.390625 42.390625 31.78125 42.390625 
Q 38.140625 42.390625 41.71875 45.5625 
Q 45.3125 48.734375 45.3125 54.390625 
Q 45.3125 60.0625 41.71875 63.234375 
Q 38.140625 66.40625 31.78125 66.40625 
Q 25.390625 66.40625 21.84375 63.234375 
Q 18.3125 60.0625 18.3125 54.390625 
z
" id="DejaVuSans-56"/>
      </defs>
      <g transform="translate(22.81375 69.22132)scale(0.13 -0.13)">
       <use xlink:href="#DejaVuSans-56"/>
       <use x="63.623047" xlink:href="#DejaVuSans-48"/>
       <use x="127.246094" xlink:href="#DejaVuSans-48"/>
      </g>
     </g>
    </g>
    <g id="ytick_10">
     <g id="line2d_25">
      <path clip-path="url(#p7cb49bd53a)" d="M 54.6275 12.138984 
L 1170.6275 12.138984 
" style="fill:none;stroke:#b0b0b0;stroke-linecap:square;stroke-width:0.8;"/>
     </g>
     <g id="line2d_26">
      <g>
       <use style="stroke:#000000;stroke-width:0.8;" x="54.6275" xlink:href="#m5553836e83" y="12.138984"/>
      </g>
     </g>
     <g id="text_16">
      <!-- 900 -->
      <defs>
       <path d="M 10.984375 1.515625 
L 10.984375 10.5 
Q 14.703125 8.734375 18.5 7.8125 
Q 22.3125 6.890625 25.984375 6.890625 
Q 35.75 6.890625 40.890625 13.453125 
Q 46.046875 20.015625 46.78125 33.40625 
Q 43.953125 29.203125 39.59375 26.953125 
Q 35.25 24.703125 29.984375 24.703125 
Q 19.046875 24.703125 12.671875 31.3125 
Q 6.296875 37.9375 6.296875 49.421875 
Q 6.296875 60.640625 12.9375 67.421875 
Q 19.578125 74.21875 30.609375 74.21875 
Q 43.265625 74.21875 49.921875 64.515625 
Q 56.59375 54.828125 56.59375 36.375 
Q 56.59375 19.140625 48.40625 8.859375 
Q 40.234375 -1.421875 26.421875 -1.421875 
Q 22.703125 -1.421875 18.890625 -0.6875 
Q 15.09375 0.046875 10.984375 1.515625 
z
M 30.609375 32.421875 
Q 37.25 32.421875 41.125 36.953125 
Q 45.015625 41.5 45.015625 49.421875 
Q 45.015625 57.28125 41.125 61.84375 
Q 37.25 66.40625 30.609375 66.40625 
Q 23.96875 66.40625 20.09375 61.84375 
Q 16.21875 57.28125 16.21875 49.421875 
Q 16.21875 41.5 20.09375 36.953125 
Q 23.96875 32.421875 30.609375 32.421875 
z
" id="DejaVuSans-57"/>
      </defs>
      <g transform="translate(22.81375 17.077969)scale(0.13 -0.13)">
       <use xlink:href="#DejaVuSans-57"/>
       <use x="63.623047" xlink:href="#DejaVuSans-48"/>
       <use x="127.246094" xlink:href="#DejaVuSans-48"/>
      </g>
     </g>
    </g>
    <g id="text_17">
     <!-- Anzahl von Fällen -->
     <defs>
      <path d="M 34.1875 63.1875 
L 20.796875 26.90625 
L 47.609375 26.90625 
z
M 28.609375 72.90625 
L 39.796875 72.90625 
L 67.578125 0 
L 57.328125 0 
L 50.6875 18.703125 
L 17.828125 18.703125 
L 11.1875 0 
L 0.78125 0 
z
" id="DejaVuSans-65"/>
      <path d="M 54.890625 33.015625 
L 54.890625 0 
L 45.90625 0 
L 45.90625 32.71875 
Q 45.90625 40.484375 42.875 44.328125 
Q 39.84375 48.1875 33.796875 48.1875 
Q 26.515625 48.1875 22.3125 43.546875 
Q 18.109375 38.921875 18.109375 30.90625 
L 18.109375 0 
L 9.078125 0 
L 9.078125 54.6875 
L 18.109375 54.6875 
L 18.109375 46.1875 
Q 21.34375 51.125 25.703125 53.5625 
Q 30.078125 56 35.796875 56 
Q 45.21875 56 50.046875 50.171875 
Q 54.890625 44.34375 54.890625 33.015625 
z
" id="DejaVuSans-110"/>
      <path d="M 5.515625 54.6875 
L 48.1875 54.6875 
L 48.1875 46.484375 
L 14.40625 7.171875 
L 48.1875 7.171875 
L 48.1875 0 
L 4.296875 0 
L 4.296875 8.203125 
L 38.09375 47.515625 
L 5.515625 47.515625 
z
" id="DejaVuSans-122"/>
      <path d="M 34.28125 27.484375 
Q 23.390625 27.484375 19.1875 25 
Q 14.984375 22.515625 14.984375 16.5 
Q 14.984375 11.71875 18.140625 8.90625 
Q 21.296875 6.109375 26.703125 6.109375 
Q 34.1875 6.109375 38.703125 11.40625 
Q 43.21875 16.703125 43.21875 25.484375 
L 43.21875 27.484375 
z
M 52.203125 31.203125 
L 52.203125 0 
L 43.21875 0 
L 43.21875 8.296875 
Q 40.140625 3.328125 35.546875 0.953125 
Q 30.953125 -1.421875 24.3125 -1.421875 
Q 15.921875 -1.421875 10.953125 3.296875 
Q 6 8.015625 6 15.921875 
Q 6 25.140625 12.171875 29.828125 
Q 18.359375 34.515625 30.609375 34.515625 
L 43.21875 34.515625 
L 43.21875 35.40625 
Q 43.21875 41.609375 39.140625 45 
Q 35.0625 48.390625 27.6875 48.390625 
Q 23 48.390625 18.546875 47.265625 
Q 14.109375 46.140625 10.015625 43.890625 
L 10.015625 52.203125 
Q 14.9375 54.109375 19.578125 55.046875 
Q 24.21875 56 28.609375 56 
Q 40.484375 56 46.34375 49.84375 
Q 52.203125 43.703125 52.203125 31.203125 
z
" id="DejaVuSans-97"/>
      <path d="M 54.890625 33.015625 
L 54.890625 0 
L 45.90625 0 
L 45.90625 32.71875 
Q 45.90625 40.484375 42.875 44.328125 
Q 39.84375 48.1875 33.796875 48.1875 
Q 26.515625 48.1875 22.3125 43.546875 
Q 18.109375 38.921875 18.109375 30.90625 
L 18.109375 0 
L 9.078125 0 
L 9.078125 75.984375 
L 18.109375 75.984375 
L 18.109375 46.1875 
Q 21.34375 51.125 25.703125 53.5625 
Q 30.078125 56 35.796875 56 
Q 45.21875 56 50.046875 50.171875 
Q 54.890625 44.34375 54.890625 33.015625 
z
" id="DejaVuSans-104"/>
      <path d="M 9.421875 75.984375 
L 18.40625 75.984375 
L 18.40625 0 
L 9.421875 0 
z
" id="DejaVuSans-108"/>
      <path id="DejaVuSans-32"/>
      <path d="M 2.984375 54.6875 
L 12.5 54.6875 
L 29.59375 8.796875 
L 46.6875 54.6875 
L 56.203125 54.6875 
L 35.6875 0 
L 23.484375 0 
z
" id="DejaVuSans-118"/>
      <path d="M 30.609375 48.390625 
Q 23.390625 48.390625 19.1875 42.75 
Q 14.984375 37.109375 14.984375 27.296875 
Q 14.984375 17.484375 19.15625 11.84375 
Q 23.34375 6.203125 30.609375 6.203125 
Q 37.796875 6.203125 41.984375 11.859375 
Q 46.1875 17.53125 46.1875 27.296875 
Q 46.1875 37.015625 41.984375 42.703125 
Q 37.796875 48.390625 30.609375 48.390625 
z
M 30.609375 56 
Q 42.328125 56 49.015625 48.375 
Q 55.71875 40.765625 55.71875 27.296875 
Q 55.71875 13.875 49.015625 6.21875 
Q 42.328125 -1.421875 30.609375 -1.421875 
Q 18.84375 -1.421875 12.171875 6.21875 
Q 5.515625 13.875 5.515625 27.296875 
Q 5.515625 40.765625 12.171875 48.375 
Q 18.84375 56 30.609375 56 
z
" id="DejaVuSans-111"/>
      <path d="M 9.8125 72.90625 
L 51.703125 72.90625 
L 51.703125 64.59375 
L 19.671875 64.59375 
L 19.671875 43.109375 
L 48.578125 43.109375 
L 48.578125 34.8125 
L 19.671875 34.8125 
L 19.671875 0 
L 9.8125 0 
z
" id="DejaVuSans-70"/>
      <path d="M 34.28125 27.484375 
Q 23.390625 27.484375 19.1875 25 
Q 14.984375 22.515625 14.984375 16.5 
Q 14.984375 11.71875 18.140625 8.90625 
Q 21.296875 6.109375 26.703125 6.109375 
Q 34.1875 6.109375 38.703125 11.40625 
Q 43.21875 16.703125 43.21875 25.484375 
L 43.21875 27.484375 
z
M 52.203125 31.203125 
L 52.203125 0 
L 43.21875 0 
L 43.21875 8.296875 
Q 40.140625 3.328125 35.546875 0.953125 
Q 30.953125 -1.421875 24.3125 -1.421875 
Q 15.921875 -1.421875 10.953125 3.296875 
Q 6 8.015625 6 15.921875 
Q 6 25.140625 12.171875 29.828125 
Q 18.359375 34.515625 30.609375 34.515625 
L 43.21875 34.515625 
L 43.21875 35.40625 
Q 43.21875 41.609375 39.140625 45 
Q 35.0625 48.390625 27.6875 48.390625 
Q 23 48.390625 18.546875 47.265625 
Q 14.109375 46.140625 10.015625 43.890625 
L 10.015625 52.203125 
Q 14.9375 54.109375 19.578125 55.046875 
Q 24.21875 56 28.609375 56 
Q 40.484375 56 46.34375 49.84375 
Q 52.203125 43.703125 52.203125 31.203125 
z
M 33.59375 75.78125 
L 43.5 75.78125 
L 43.5 65.921875 
L 33.59375 65.921875 
z
M 14.5 75.78125 
L 24.40625 75.78125 
L 24.40625 65.921875 
L 14.5 65.921875 
z
" id="DejaVuSans-228"/>
      <path d="M 56.203125 29.59375 
L 56.203125 25.203125 
L 14.890625 25.203125 
Q 15.484375 15.921875 20.484375 11.0625 
Q 25.484375 6.203125 34.421875 6.203125 
Q 39.59375 6.203125 44.453125 7.46875 
Q 49.3125 8.734375 54.109375 11.28125 
L 54.109375 2.78125 
Q 49.265625 0.734375 44.1875 -0.34375 
Q 39.109375 -1.421875 33.890625 -1.421875 
Q 20.796875 -1.421875 13.15625 6.1875 
Q 5.515625 13.8125 5.515625 26.8125 
Q 5.515625 40.234375 12.765625 48.109375 
Q 20.015625 56 32.328125 56 
Q 43.359375 56 49.78125 48.890625 
Q 56.203125 41.796875 56.203125 29.59375 
z
M 47.21875 32.234375 
Q 47.125 39.59375 43.09375 43.984375 
Q 39.0625 48.390625 32.421875 48.390625 
Q 24.90625 48.390625 20.390625 44.140625 
Q 15.875 39.890625 15.1875 32.171875 
z
" id="DejaVuSans-101"/>
     </defs>
     <g transform="translate(16.318125 309.388359)rotate(-90)scale(0.12 -0.12)">
      <use xlink:href="#DejaVuSans-65"/>
      <use x="68.408203" xlink:href="#DejaVuSans-110"/>
      <use x="131.787109" xlink:href="#DejaVuSans-122"/>
      <use x="184.277344" xlink:href="#DejaVuSans-97"/>
      <use x="245.556641" xlink:href="#DejaVuSans-104"/>
      <use x="308.935547" xlink:href="#DejaVuSans-108"/>
      <use x="336.71875" xlink:href="#DejaVuSans-32"/>
      <use x="368.505859" xlink:href="#DejaVuSans-118"/>
      <use x="427.685547" xlink:href="#DejaVuSans-111"/>
      <use x="488.867188" xlink:href="#DejaVuSans-110"/>
      <use x="552.246094" xlink:href="#DejaVuSans-32"/>
      <use x="584.033203" xlink:href="#DejaVuSans-70"/>
      <use x="632.427734" xlink:href="#DejaVuSans-228"/>
      <use x="693.707031" xlink:href="#DejaVuSans-108"/>
      <use x="721.490234" xlink:href="#DejaVuSans-108"/>
      <use x="749.273438" xlink:href="#DejaVuSans-101"/>
      <use x="810.796875" xlink:href="#DejaVuSans-110"/>
     </g>
    </g>
   </g>
   <g id="line2d_27">
    <path clip-path="url(#p7cb49bd53a)" d="M 105.354773 470.479045 
L 117.151813 468.914745 
L 128.948853 468.914745 
L 140.745893 468.914745 
L 152.542933 462.657542 
L 164.339974 457.443207 
L 176.137014 457.443207 
L 187.934054 453.793173 
L 199.731094 441.800202 
L 211.528134 433.978699 
L 223.325174 424.592896 
L 235.122215 414.685659 
L 246.919255 408.428457 
L 258.716295 408.428457 
L 270.513335 405.299856 
L 282.310375 389.65685 
L 294.107415 378.185313 
L 305.904456 371.406677 
L 317.701496 368.799509 
L 341.295576 368.799509 
L 364.889656 352.63507 
L 376.686697 351.07077 
L 388.483737 315.091857 
L 400.280777 315.091857 
L 412.077817 306.748921 
L 435.671897 307.270355 
L 447.468938 303.098886 
L 459.265978 291.105916 
L 471.063018 289.020181 
L 482.860058 285.89158 
L 494.657098 273.377176 
L 518.251179 271.812875 
L 530.048219 271.812875 
L 541.845259 265.03424 
L 553.642299 260.862772 
L 577.236379 260.341338 
L 600.83046 260.341338 
L 612.6275 259.298471 
L 624.42454 254.605569 
L 636.22158 250.955535 
L 648.018621 246.784067 
L 659.815661 246.784067 
L 683.409741 244.176899 
L 695.206781 243.134032 
L 707.003821 239.483997 
L 718.800862 237.398263 
L 730.597902 234.791096 
L 742.394942 233.748229 
L 765.989022 221.233824 
L 777.786062 220.190957 
L 789.583103 213.933755 
L 813.177183 208.71942 
L 824.974223 208.71942 
L 848.568303 208.71942 
L 860.365344 119.032855 
L 883.959424 74.711006 
L 895.756464 72.103839 
L 942.944625 70.018105 
L 954.741665 59.068001 
L 966.538705 57.5037 
L 978.335745 50.203631 
L 990.132785 47.596463 
L 1013.726866 47.596463 
L 1025.523906 47.596463 
L 1037.320946 47.07503 
L 1060.915026 46.032163 
L 1072.712067 46.032163 
L 1096.306147 46.032163 
L 1119.900227 42.382128 
" style="fill:none;stroke:#dbcd00;stroke-linecap:square;stroke-width:2;"/>
    <defs>
     <path d="M 0 1.5 
C 0.397805 1.5 0.77937 1.341951 1.06066 1.06066 
C 1.341951 0.77937 1.5 0.397805 1.5 0 
C 1.5 -0.397805 1.341951 -0.77937 1.06066 -1.06066 
C 0.77937 -1.341951 0.397805 -1.5 0 -1.5 
C -0.397805 -1.5 -0.77937 -1.341951 -1.06066 -1.06066 
C -1.341951 -0.77937 -1.5 -0.397805 -1.5 0 
C -1.5 0.397805 -1.341951 0.77937 -1.06066 1.06066 
C -0.77937 1.341951 -0.397805 1.5 0 1.5 
z
" id="mfe056959b6" style="stroke:#dbcd00;"/>
    </defs>
    <g clip-path="url(#p7cb49bd53a)">
     <use style="fill:#dbcd00;stroke:#dbcd00;" x="105.354773" xlink:href="#mfe056959b6" y="470.479045"/>
     <use style="fill:#dbcd00;stroke:#dbcd00;" x="117.151813" xlink:href="#mfe056959b6" y="468.914745"/>
     <use style="fill:#dbcd00;stroke:#dbcd00;" x="128.948853" xlink:href="#mfe056959b6" y="468.914745"/>
     <use style="fill:#dbcd00;stroke:#dbcd00;" x="140.745893" xlink:href="#mfe056959b6" y="468.914745"/>
     <use style="fill:#dbcd00;stroke:#dbcd00;" x="152.542933" xlink:href="#mfe056959b6" y="462.657542"/>
     <use style="fill:#dbcd00;stroke:#dbcd00;" x="164.339974" xlink:href="#mfe056959b6" y="457.443207"/>
     <use style="fill:#dbcd00;stroke:#dbcd00;" x="176.137014" xlink:href="#mfe056959b6" y="457.443207"/>
     <use style="fill:#dbcd00;stroke:#dbcd00;" x="187.934054" xlink:href="#mfe056959b6" y="453.793173"/>
     <use style="fill:#dbcd00;stroke:#dbcd00;" x="199.731094" xlink:href="#mfe056959b6" y="441.800202"/>
     <use style="fill:#dbcd00;stroke:#dbcd00;" x="211.528134" xlink:href="#mfe056959b6" y="433.978699"/>
     <use style="fill:#dbcd00;stroke:#dbcd00;" x="223.325174" xlink:href="#mfe056959b6" y="424.592896"/>
     <use style="fill:#dbcd00;stroke:#dbcd00;" x="235.122215" xlink:href="#mfe056959b6" y="414.685659"/>
     <use style="fill:#dbcd00;stroke:#dbcd00;" x="246.919255" xlink:href="#mfe056959b6" y="408.428457"/>
     <use style="fill:#dbcd00;stroke:#dbcd00;" x="258.716295" xlink:href="#mfe056959b6" y="408.428457"/>
     <use style="fill:#dbcd00;stroke:#dbcd00;" x="270.513335" xlink:href="#mfe056959b6" y="405.299856"/>
     <use style="fill:#dbcd00;stroke:#dbcd00;" x="282.310375" xlink:href="#mfe056959b6" y="389.65685"/>
     <use style="fill:#dbcd00;stroke:#dbcd00;" x="294.107415" xlink:href="#mfe056959b6" y="378.185313"/>
     <use style="fill:#dbcd00;stroke:#dbcd00;" x="305.904456" xlink:href="#mfe056959b6" y="371.406677"/>
     <use style="fill:#dbcd00;stroke:#dbcd00;" x="317.701496" xlink:href="#mfe056959b6" y="368.799509"/>
     <use style="fill:#dbcd00;stroke:#dbcd00;" x="341.295576" xlink:href="#mfe056959b6" y="368.799509"/>
     <use style="fill:#dbcd00;stroke:#dbcd00;" x="364.889656" xlink:href="#mfe056959b6" y="352.63507"/>
     <use style="fill:#dbcd00;stroke:#dbcd00;" x="376.686697" xlink:href="#mfe056959b6" y="351.07077"/>
     <use style="fill:#dbcd00;stroke:#dbcd00;" x="388.483737" xlink:href="#mfe056959b6" y="315.091857"/>
     <use style="fill:#dbcd00;stroke:#dbcd00;" x="400.280777" xlink:href="#mfe056959b6" y="315.091857"/>
     <use style="fill:#dbcd00;stroke:#dbcd00;" x="412.077817" xlink:href="#mfe056959b6" y="306.748921"/>
     <use style="fill:#dbcd00;stroke:#dbcd00;" x="435.671897" xlink:href="#mfe056959b6" y="307.270355"/>
     <use style="fill:#dbcd00;stroke:#dbcd00;" x="447.468938" xlink:href="#mfe056959b6" y="303.098886"/>
     <use style="fill:#dbcd00;stroke:#dbcd00;" x="459.265978" xlink:href="#mfe056959b6" y="291.105916"/>
     <use style="fill:#dbcd00;stroke:#dbcd00;" x="471.063018" xlink:href="#mfe056959b6" y="289.020181"/>
     <use style="fill:#dbcd00;stroke:#dbcd00;" x="482.860058" xlink:href="#mfe056959b6" y="285.89158"/>
     <use style="fill:#dbcd00;stroke:#dbcd00;" x="494.657098" xlink:href="#mfe056959b6" y="273.377176"/>
     <use style="fill:#dbcd00;stroke:#dbcd00;" x="518.251179" xlink:href="#mfe056959b6" y="271.812875"/>
     <use style="fill:#dbcd00;stroke:#dbcd00;" x="530.048219" xlink:href="#mfe056959b6" y="271.812875"/>
     <use style="fill:#dbcd00;stroke:#dbcd00;" x="541.845259" xlink:href="#mfe056959b6" y="265.03424"/>
     <use style="fill:#dbcd00;stroke:#dbcd00;" x="553.642299" xlink:href="#mfe056959b6" y="260.862772"/>
     <use style="fill:#dbcd00;stroke:#dbcd00;" x="577.236379" xlink:href="#mfe056959b6" y="260.341338"/>
     <use style="fill:#dbcd00;stroke:#dbcd00;" x="600.83046" xlink:href="#mfe056959b6" y="260.341338"/>
     <use style="fill:#dbcd00;stroke:#dbcd00;" x="612.6275" xlink:href="#mfe056959b6" y="259.298471"/>
     <use style="fill:#dbcd00;stroke:#dbcd00;" x="624.42454" xlink:href="#mfe056959b6" y="254.605569"/>
     <use style="fill:#dbcd00;stroke:#dbcd00;" x="636.22158" xlink:href="#mfe056959b6" y="250.955535"/>
     <use style="fill:#dbcd00;stroke:#dbcd00;" x="648.018621" xlink:href="#mfe056959b6" y="246.784067"/>
     <use style="fill:#dbcd00;stroke:#dbcd00;" x="659.815661" xlink:href="#mfe056959b6" y="246.784067"/>
     <use style="fill:#dbcd00;stroke:#dbcd00;" x="683.409741" xlink:href="#mfe056959b6" y="244.176899"/>
     <use style="fill:#dbcd00;stroke:#dbcd00;" x="695.206781" xlink:href="#mfe056959b6" y="243.134032"/>
     <use style="fill:#dbcd00;stroke:#dbcd00;" x="707.003821" xlink:href="#mfe056959b6" y="239.483997"/>
     <use style="fill:#dbcd00;stroke:#dbcd00;" x="718.800862" xlink:href="#mfe056959b6" y="237.398263"/>
     <use style="fill:#dbcd00;stroke:#dbcd00;" x="730.597902" xlink:href="#mfe056959b6" y="234.791096"/>
     <use style="fill:#dbcd00;stroke:#dbcd00;" x="742.394942" xlink:href="#mfe056959b6" y="233.748229"/>
     <use style="fill:#dbcd00;stroke:#dbcd00;" x="765.989022" xlink:href="#mfe056959b6" y="221.233824"/>
     <use style="fill:#dbcd00;stroke:#dbcd00;" x="777.786062" xlink:href="#mfe056959b6" y="220.190957"/>
     <use style="fill:#dbcd00;stroke:#dbcd00;" x="789.583103" xlink:href="#mfe056959b6" y="213.933755"/>
     <use style="fill:#dbcd00;stroke:#dbcd00;" x="813.177183" xlink:href="#mfe056959b6" y="208.71942"/>
     <use style="fill:#dbcd00;stroke:#dbcd00;" x="824.974223" xlink:href="#mfe056959b6" y="208.71942"/>
     <use style="fill:#dbcd00;stroke:#dbcd00;" x="848.568303" xlink:href="#mfe056959b6" y="208.71942"/>
     <use style="fill:#dbcd00;stroke:#dbcd00;" x="860.365344" xlink:href="#mfe056959b6" y="119.032855"/>
     <use style="fill:#dbcd00;stroke:#dbcd00;" x="883.959424" xlink:href="#mfe056959b6" y="74.711006"/>
     <use style="fill:#dbcd00;stroke:#dbcd00;" x="895.756464" xlink:href="#mfe056959b6" y="72.103839"/>
     <use style="fill:#dbcd00;stroke:#dbcd00;" x="942.944625" xlink:href="#mfe056959b6" y="70.018105"/>
     <use style="fill:#dbcd00;stroke:#dbcd00;" x="954.741665" xlink:href="#mfe056959b6" y="59.068001"/>
     <use style="fill:#dbcd00;stroke:#dbcd00;" x="966.538705" xlink:href="#mfe056959b6" y="57.5037"/>
     <use style="fill:#dbcd00;stroke:#dbcd00;" x="978.335745" xlink:href="#mfe056959b6" y="50.203631"/>
     <use style="fill:#dbcd00;stroke:#dbcd00;" x="990.132785" xlink:href="#mfe056959b6" y="47.596463"/>
     <use style="fill:#dbcd00;stroke:#dbcd00;" x="1013.726866" xlink:href="#mfe056959b6" y="47.596463"/>
     <use style="fill:#dbcd00;stroke:#dbcd00;" x="1025.523906" xlink:href="#mfe056959b6" y="47.596463"/>
     <use style="fill:#dbcd00;stroke:#dbcd00;" x="1037.320946" xlink:href="#mfe056959b6" y="47.07503"/>
     <use style="fill:#dbcd00;stroke:#dbcd00;" x="1060.915026" xlink:href="#mfe056959b6" y="46.032163"/>
     <use style="fill:#dbcd00;stroke:#dbcd00;" x="1072.712067" xlink:href="#mfe056959b6" y="46.032163"/>
     <use style="fill:#dbcd00;stroke:#dbcd00;" x="1096.306147" xlink:href="#mfe056959b6" y="46.032163"/>
     <use style="fill:#dbcd00;stroke:#dbcd00;" x="1119.900227" xlink:href="#mfe056959b6" y="42.382128"/>
    </g>
   </g>
   <g id="line2d_28">
    <path clip-path="url(#p7cb49bd53a)" d="M 105.354773 405.821289 
L 117.151813 399.042653 
L 128.948853 386.006815 
L 140.745893 372.970978 
L 152.542933 363.063741 
L 164.339974 353.156504 
L 176.137014 347.942169 
L 187.934054 348.985036 
L 199.731094 348.463602 
L 211.528134 344.813568 
L 223.325174 346.899302 
L 235.122215 355.242238 
L 246.919255 351.592203 
L 258.716295 348.985036 
L 270.513335 347.420735 
L 282.310375 360.456573 
L 294.107415 364.628041 
L 305.904456 368.278076 
L 317.701496 364.628041 
L 341.295576 363.063741 
L 364.889656 377.663879 
L 376.686697 377.663879 
L 388.483737 412.599925 
L 400.280777 407.907023 
L 412.077817 414.685659 
L 435.671897 416.771393 
L 447.468938 419.899994 
L 459.265978 432.414398 
L 471.063018 433.457265 
L 482.860058 435.021566 
L 494.657098 444.928803 
L 518.251179 446.493103 
L 530.048219 442.321635 
L 541.845259 447.53597 
L 553.642299 450.664571 
L 577.236379 444.407369 
L 600.83046 432.414398 
L 612.6275 430.328664 
L 624.42454 416.771393 
L 636.22158 417.81426 
L 648.018621 399.042653 
L 659.815661 370.885243 
L 683.409741 338.556365 
L 695.206781 325.520528 
L 707.003821 316.656158 
L 718.800862 311.441823 
L 730.597902 317.177591 
L 742.394942 315.613291 
L 765.989022 322.91336 
L 777.786062 324.999094 
L 789.583103 324.999094 
L 813.177183 325.520528 
L 824.974223 320.827626 
L 848.568303 319.263325 
L 860.365344 408.94989 
L 883.959424 452.228872 
L 895.756464 454.83604 
L 942.944625 456.40034 
L 954.741665 467.350444 
L 966.538705 468.914745 
L 978.335745 476.214814 
L 990.132785 478.821981 
L 1013.726866 478.821981 
L 1025.523906 477.779114 
L 1037.320946 478.300548 
L 1060.915026 477.779114 
L 1072.712067 477.257681 
L 1096.306147 477.257681 
L 1119.900227 479.864848 
" style="fill:none;stroke:#2792cb;stroke-linecap:square;stroke-width:2;"/>
    <defs>
     <path d="M 0 1.5 
C 0.397805 1.5 0.77937 1.341951 1.06066 1.06066 
C 1.341951 0.77937 1.5 0.397805 1.5 0 
C 1.5 -0.397805 1.341951 -0.77937 1.06066 -1.06066 
C 0.77937 -1.341951 0.397805 -1.5 0 -1.5 
C -0.397805 -1.5 -0.77937 -1.341951 -1.06066 -1.06066 
C -1.341951 -0.77937 -1.5 -0.397805 -1.5 0 
C -1.5 0.397805 -1.341951 0.77937 -1.06066 1.06066 
C -0.77937 1.341951 -0.397805 1.5 0 1.5 
z
" id="m9b7d721eef" style="stroke:#2792cb;"/>
    </defs>
    <g clip-path="url(#p7cb49bd53a)">
     <use style="fill:#2792cb;stroke:#2792cb;" x="105.354773" xlink:href="#m9b7d721eef" y="405.821289"/>
     <use style="fill:#2792cb;stroke:#2792cb;" x="117.151813" xlink:href="#m9b7d721eef" y="399.042653"/>
     <use style="fill:#2792cb;stroke:#2792cb;" x="128.948853" xlink:href="#m9b7d721eef" y="386.006815"/>
     <use style="fill:#2792cb;stroke:#2792cb;" x="140.745893" xlink:href="#m9b7d721eef" y="372.970978"/>
     <use style="fill:#2792cb;stroke:#2792cb;" x="152.542933" xlink:href="#m9b7d721eef" y="363.063741"/>
     <use style="fill:#2792cb;stroke:#2792cb;" x="164.339974" xlink:href="#m9b7d721eef" y="353.156504"/>
     <use style="fill:#2792cb;stroke:#2792cb;" x="176.137014" xlink:href="#m9b7d721eef" y="347.942169"/>
     <use style="fill:#2792cb;stroke:#2792cb;" x="187.934054" xlink:href="#m9b7d721eef" y="348.985036"/>
     <use style="fill:#2792cb;stroke:#2792cb;" x="199.731094" xlink:href="#m9b7d721eef" y="348.463602"/>
     <use style="fill:#2792cb;stroke:#2792cb;" x="211.528134" xlink:href="#m9b7d721eef" y="344.813568"/>
     <use style="fill:#2792cb;stroke:#2792cb;" x="223.325174" xlink:href="#m9b7d721eef" y="346.899302"/>
     <use style="fill:#2792cb;stroke:#2792cb;" x="235.122215" xlink:href="#m9b7d721eef" y="355.242238"/>
     <use style="fill:#2792cb;stroke:#2792cb;" x="246.919255" xlink:href="#m9b7d721eef" y="351.592203"/>
     <use style="fill:#2792cb;stroke:#2792cb;" x="258.716295" xlink:href="#m9b7d721eef" y="348.985036"/>
     <use style="fill:#2792cb;stroke:#2792cb;" x="270.513335" xlink:href="#m9b7d721eef" y="347.420735"/>
     <use style="fill:#2792cb;stroke:#2792cb;" x="282.310375" xlink:href="#m9b7d721eef" y="360.456573"/>
     <use style="fill:#2792cb;stroke:#2792cb;" x="294.107415" xlink:href="#m9b7d721eef" y="364.628041"/>
     <use style="fill:#2792cb;stroke:#2792cb;" x="305.904456" xlink:href="#m9b7d721eef" y="368.278076"/>
     <use style="fill:#2792cb;stroke:#2792cb;" x="317.701496" xlink:href="#m9b7d721eef" y="364.628041"/>
     <use style="fill:#2792cb;stroke:#2792cb;" x="341.295576" xlink:href="#m9b7d721eef" y="363.063741"/>
     <use style="fill:#2792cb;stroke:#2792cb;" x="364.889656" xlink:href="#m9b7d721eef" y="377.663879"/>
     <use style="fill:#2792cb;stroke:#2792cb;" x="376.686697" xlink:href="#m9b7d721eef" y="377.663879"/>
     <use style="fill:#2792cb;stroke:#2792cb;" x="388.483737" xlink:href="#m9b7d721eef" y="412.599925"/>
     <use style="fill:#2792cb;stroke:#2792cb;" x="400.280777" xlink:href="#m9b7d721eef" y="407.907023"/>
     <use style="fill:#2792cb;stroke:#2792cb;" x="412.077817" xlink:href="#m9b7d721eef" y="414.685659"/>
     <use style="fill:#2792cb;stroke:#2792cb;" x="435.671897" xlink:href="#m9b7d721eef" y="416.771393"/>
     <use style="fill:#2792cb;stroke:#2792cb;" x="447.468938" xlink:href="#m9b7d721eef" y="419.899994"/>
     <use style="fill:#2792cb;stroke:#2792cb;" x="459.265978" xlink:href="#m9b7d721eef" y="432.414398"/>
     <use style="fill:#2792cb;stroke:#2792cb;" x="471.063018" xlink:href="#m9b7d721eef" y="433.457265"/>
     <use style="fill:#2792cb;stroke:#2792cb;" x="482.860058" xlink:href="#m9b7d721eef" y="435.021566"/>
     <use style="fill:#2792cb;stroke:#2792cb;" x="494.657098" xlink:href="#m9b7d721eef" y="444.928803"/>
     <use style="fill:#2792cb;stroke:#2792cb;" x="518.251179" xlink:href="#m9b7d721eef" y="446.493103"/>
     <use style="fill:#2792cb;stroke:#2792cb;" x="530.048219" xlink:href="#m9b7d721eef" y="442.321635"/>
     <use style="fill:#2792cb;stroke:#2792cb;" x="541.845259" xlink:href="#m9b7d721eef" y="447.53597"/>
     <use style="fill:#2792cb;stroke:#2792cb;" x="553.642299" xlink:href="#m9b7d721eef" y="450.664571"/>
     <use style="fill:#2792cb;stroke:#2792cb;" x="577.236379" xlink:href="#m9b7d721eef" y="444.407369"/>
     <use style="fill:#2792cb;stroke:#2792cb;" x="600.83046" xlink:href="#m9b7d721eef" y="432.414398"/>
     <use style="fill:#2792cb;stroke:#2792cb;" x="612.6275" xlink:href="#m9b7d721eef" y="430.328664"/>
     <use style="fill:#2792cb;stroke:#2792cb;" x="624.42454" xlink:href="#m9b7d721eef" y="416.771393"/>
     <use style="fill:#2792cb;stroke:#2792cb;" x="636.22158" xlink:href="#m9b7d721eef" y="417.81426"/>
     <use style="fill:#2792cb;stroke:#2792cb;" x="648.018621" xlink:href="#m9b7d721eef" y="399.042653"/>
     <use style="fill:#2792cb;stroke:#2792cb;" x="659.815661" xlink:href="#m9b7d721eef" y="370.885243"/>
     <use style="fill:#2792cb;stroke:#2792cb;" x="683.409741" xlink:href="#m9b7d721eef" y="338.556365"/>
     <use style="fill:#2792cb;stroke:#2792cb;" x="695.206781" xlink:href="#m9b7d721eef" y="325.520528"/>
     <use style="fill:#2792cb;stroke:#2792cb;" x="707.003821" xlink:href="#m9b7d721eef" y="316.656158"/>
     <use style="fill:#2792cb;stroke:#2792cb;" x="718.800862" xlink:href="#m9b7d721eef" y="311.441823"/>
     <use style="fill:#2792cb;stroke:#2792cb;" x="730.597902" xlink:href="#m9b7d721eef" y="317.177591"/>
     <use style="fill:#2792cb;stroke:#2792cb;" x="742.394942" xlink:href="#m9b7d721eef" y="315.613291"/>
     <use style="fill:#2792cb;stroke:#2792cb;" x="765.989022" xlink:href="#m9b7d721eef" y="322.91336"/>
     <use style="fill:#2792cb;stroke:#2792cb;" x="777.786062" xlink:href="#m9b7d721eef" y="324.999094"/>
     <use style="fill:#2792cb;stroke:#2792cb;" x="789.583103" xlink:href="#m9b7d721eef" y="324.999094"/>
     <use style="fill:#2792cb;stroke:#2792cb;" x="813.177183" xlink:href="#m9b7d721eef" y="325.520528"/>
     <use style="fill:#2792cb;stroke:#2792cb;" x="824.974223" xlink:href="#m9b7d721eef" y="320.827626"/>
     <use style="fill:#2792cb;stroke:#2792cb;" x="848.568303" xlink:href="#m9b7d721eef" y="319.263325"/>
     <use style="fill:#2792cb;stroke:#2792cb;" x="860.365344" xlink:href="#m9b7d721eef" y="408.94989"/>
     <use style="fill:#2792cb;stroke:#2792cb;" x="883.959424" xlink:href="#m9b7d721eef" y="452.228872"/>
     <use style="fill:#2792cb;stroke:#2792cb;" x="895.756464" xlink:href="#m9b7d721eef" y="454.83604"/>
     <use style="fill:#2792cb;stroke:#2792cb;" x="942.944625" xlink:href="#m9b7d721eef" y="456.40034"/>
     <use style="fill:#2792cb;stroke:#2792cb;" x="954.741665" xlink:href="#m9b7d721eef" y="467.350444"/>
     <use style="fill:#2792cb;stroke:#2792cb;" x="966.538705" xlink:href="#m9b7d721eef" y="468.914745"/>
     <use style="fill:#2792cb;stroke:#2792cb;" x="978.335745" xlink:href="#m9b7d721eef" y="476.214814"/>
     <use style="fill:#2792cb;stroke:#2792cb;" x="990.132785" xlink:href="#m9b7d721eef" y="478.821981"/>
     <use style="fill:#2792cb;stroke:#2792cb;" x="1013.726866" xlink:href="#m9b7d721eef" y="478.821981"/>
     <use style="fill:#2792cb;stroke:#2792cb;" x="1025.523906" xlink:href="#m9b7d721eef" y="477.779114"/>
     <use style="fill:#2792cb;stroke:#2792cb;" x="1037.320946" xlink:href="#m9b7d721eef" y="478.300548"/>
     <use style="fill:#2792cb;stroke:#2792cb;" x="1060.915026" xlink:href="#m9b7d721eef" y="477.779114"/>
     <use style="fill:#2792cb;stroke:#2792cb;" x="1072.712067" xlink:href="#m9b7d721eef" y="477.257681"/>
     <use style="fill:#2792cb;stroke:#2792cb;" x="1096.306147" xlink:href="#m9b7d721eef" y="477.257681"/>
     <use style="fill:#2792cb;stroke:#2792cb;" x="1119.900227" xlink:href="#m9b7d721eef" y="479.864848"/>
    </g>
   </g>
   <g id="patch_3">
    <path d="M 54.6275 501.738984 
L 1170.6275 501.738984 
" style="fill:none;stroke:#000000;stroke-linecap:square;stroke-linejoin:miter;stroke-width:0.8;"/>
   </g>
   <g id="legend_1">
    <g id="line2d_29">
     <path d="M 63.6275 25.237422 
L 83.6275 25.237422 
" style="fill:none;stroke:#dbcd00;stroke-linecap:square;stroke-width:2;"/>
    </g>
    <g id="line2d_30">
     <g>
      <use style="fill:#dbcd00;stroke:#dbcd00;" x="73.6275" xlink:href="#mfe056959b6" y="25.237422"/>
     </g>
    </g>
    <g id="text_18">
     <!-- Genesene -->
     <defs>
      <path d="M 59.515625 10.40625 
L 59.515625 29.984375 
L 43.40625 29.984375 
L 43.40625 38.09375 
L 69.28125 38.09375 
L 69.28125 6.78125 
Q 63.578125 2.734375 56.6875 0.65625 
Q 49.8125 -1.421875 42 -1.421875 
Q 24.90625 -1.421875 15.25 8.5625 
Q 5.609375 18.5625 5.609375 36.375 
Q 5.609375 54.25 15.25 64.234375 
Q 24.90625 74.21875 42 74.21875 
Q 49.125 74.21875 55.546875 72.453125 
Q 61.96875 70.703125 67.390625 67.28125 
L 67.390625 56.78125 
Q 61.921875 61.421875 55.765625 63.765625 
Q 49.609375 66.109375 42.828125 66.109375 
Q 29.4375 66.109375 22.71875 58.640625 
Q 16.015625 51.171875 16.015625 36.375 
Q 16.015625 21.625 22.71875 14.15625 
Q 29.4375 6.6875 42.828125 6.6875 
Q 48.046875 6.6875 52.140625 7.59375 
Q 56.25 8.5 59.515625 10.40625 
z
" id="DejaVuSans-71"/>
      <path d="M 44.28125 53.078125 
L 44.28125 44.578125 
Q 40.484375 46.53125 36.375 47.5 
Q 32.28125 48.484375 27.875 48.484375 
Q 21.1875 48.484375 17.84375 46.4375 
Q 14.5 44.390625 14.5 40.28125 
Q 14.5 37.15625 16.890625 35.375 
Q 19.28125 33.59375 26.515625 31.984375 
L 29.59375 31.296875 
Q 39.15625 29.25 43.1875 25.515625 
Q 47.21875 21.78125 47.21875 15.09375 
Q 47.21875 7.46875 41.1875 3.015625 
Q 35.15625 -1.421875 24.609375 -1.421875 
Q 20.21875 -1.421875 15.453125 -0.5625 
Q 10.6875 0.296875 5.421875 2 
L 5.421875 11.28125 
Q 10.40625 8.6875 15.234375 7.390625 
Q 20.0625 6.109375 24.8125 6.109375 
Q 31.15625 6.109375 34.5625 8.28125 
Q 37.984375 10.453125 37.984375 14.40625 
Q 37.984375 18.0625 35.515625 20.015625 
Q 33.0625 21.96875 24.703125 23.78125 
L 21.578125 24.515625 
Q 13.234375 26.265625 9.515625 29.90625 
Q 5.8125 33.546875 5.8125 39.890625 
Q 5.8125 47.609375 11.28125 51.796875 
Q 16.75 56 26.8125 56 
Q 31.78125 56 36.171875 55.265625 
Q 40.578125 54.546875 44.28125 53.078125 
z
" id="DejaVuSans-115"/>
     </defs>
     <g transform="translate(91.6275 28.737422)scale(0.1 -0.1)">
      <use xlink:href="#DejaVuSans-71"/>
      <use x="77.490234" xlink:href="#DejaVuSans-101"/>
      <use x="139.013672" xlink:href="#DejaVuSans-110"/>
      <use x="202.392578" xlink:href="#DejaVuSans-101"/>
      <use x="263.916016" xlink:href="#DejaVuSans-115"/>
      <use x="316.015625" xlink:href="#DejaVuSans-101"/>
      <use x="377.539062" xlink:href="#DejaVuSans-110"/>
      <use x="440.917969" xlink:href="#DejaVuSans-101"/>
     </g>
    </g>
    <g id="line2d_31">
     <path d="M 63.6275 39.915547 
L 83.6275 39.915547 
" style="fill:none;stroke:#2792cb;stroke-linecap:square;stroke-width:2;"/>
    </g>
    <g id="line2d_32">
     <g>
      <use style="fill:#2792cb;stroke:#2792cb;" x="73.6275" xlink:href="#m9b7d721eef" y="39.915547"/>
     </g>
    </g>
    <g id="text_19">
     <!-- Erkrankte -->
     <defs>
      <path d="M 9.8125 72.90625 
L 55.90625 72.90625 
L 55.90625 64.59375 
L 19.671875 64.59375 
L 19.671875 43.015625 
L 54.390625 43.015625 
L 54.390625 34.71875 
L 19.671875 34.71875 
L 19.671875 8.296875 
L 56.78125 8.296875 
L 56.78125 0 
L 9.8125 0 
z
" id="DejaVuSans-69"/>
      <path d="M 41.109375 46.296875 
Q 39.59375 47.171875 37.8125 47.578125 
Q 36.03125 48 33.890625 48 
Q 26.265625 48 22.1875 43.046875 
Q 18.109375 38.09375 18.109375 28.8125 
L 18.109375 0 
L 9.078125 0 
L 9.078125 54.6875 
L 18.109375 54.6875 
L 18.109375 46.1875 
Q 20.953125 51.171875 25.484375 53.578125 
Q 30.03125 56 36.53125 56 
Q 37.453125 56 38.578125 55.875 
Q 39.703125 55.765625 41.0625 55.515625 
z
" id="DejaVuSans-114"/>
      <path d="M 9.078125 75.984375 
L 18.109375 75.984375 
L 18.109375 31.109375 
L 44.921875 54.6875 
L 56.390625 54.6875 
L 27.390625 29.109375 
L 57.625 0 
L 45.90625 0 
L 18.109375 26.703125 
L 18.109375 0 
L 9.078125 0 
z
" id="DejaVuSans-107"/>
      <path d="M 18.3125 70.21875 
L 18.3125 54.6875 
L 36.8125 54.6875 
L 36.8125 47.703125 
L 18.3125 47.703125 
L 18.3125 18.015625 
Q 18.3125 11.328125 20.140625 9.421875 
Q 21.96875 7.515625 27.59375 7.515625 
L 36.8125 7.515625 
L 36.8125 0 
L 27.59375 0 
Q 17.1875 0 13.234375 3.875 
Q 9.28125 7.765625 9.28125 18.015625 
L 9.28125 47.703125 
L 2.6875 47.703125 
L 2.6875 54.6875 
L 9.28125 54.6875 
L 9.28125 70.21875 
z
" id="DejaVuSans-116"/>
     </defs>
     <g transform="translate(91.6275 43.415547)scale(0.1 -0.1)">
      <use xlink:href="#DejaVuSans-69"/>
      <use x="63.183594" xlink:href="#DejaVuSans-114"/>
      <use x="104.296875" xlink:href="#DejaVuSans-107"/>
      <use x="162.207031" xlink:href="#DejaVuSans-114"/>
      <use x="203.320312" xlink:href="#DejaVuSans-97"/>
      <use x="264.599609" xlink:href="#DejaVuSans-110"/>
      <use x="327.978516" xlink:href="#DejaVuSans-107"/>
      <use x="385.888672" xlink:href="#DejaVuSans-116"/>
      <use x="425.097656" xlink:href="#DejaVuSans-101"/>
     </g>
    </g>
   </g>
  </g>
 </g>
 <defs>
  <clipPath id="p7cb49bd53a">
   <rect height="489.6" width="1116" x="54.6275" y="12.138984"/>
  </clipPath>
 </defs>
</svg>
