<?xml version="1.0" encoding="utf-8" standalone="no"?>
<!DOCTYPE svg PUBLIC "-//W3C//DTD SVG 1.1//EN"
  "http://www.w3.org/Graphics/SVG/1.1/DTD/svg11.dtd">
<!-- Created with matplotlib (https://matplotlib.org/) -->
<svg height="553.993765pt" version="1.1" viewBox="0 0 1186.09875 553.993765" width="1186.09875pt" xmlns="http://www.w3.org/2000/svg" xmlns:xlink="http://www.w3.org/1999/xlink">
 <defs>
  <style type="text/css">
*{stroke-linecap:butt;stroke-linejoin:round;}
  </style>
 </defs>
 <g id="figure_1">
  <g id="patch_1">
   <path d="M 0 553.993765 
L 1186.09875 553.993765 
L 1186.09875 0 
L 0 0 
z
" style="fill:#ffffff;"/>
  </g>
  <g id="axes_1">
   <g id="patch_2">
    <path d="M 62.89875 501.738984 
L 1178.89875 501.738984 
L 1178.89875 12.138984 
L 62.89875 12.138984 
z
" style="fill:#ffffff;"/>
   </g>
   <g id="matplotlib.axis_1">
    <g id="xtick_1">
     <g id="line2d_1">
      <defs>
       <path d="M 0 0 
L 0 3.5 
" id="mb21eaa29c1" style="stroke:#000000;stroke-width:0.8;"/>
      </defs>
      <g>
       <use style="stroke:#000000;stroke-width:0.8;" x="221.55639" xlink:href="#mb21eaa29c1" y="501.738984"/>
      </g>
     </g>
     <g id="text_1">
      <!-- 2020-04 -->
      <defs>
       <path d="M 19.1875 8.296875 
L 53.609375 8.296875 
L 53.609375 0 
L 7.328125 0 
L 7.328125 8.296875 
Q 12.9375 14.109375 22.625 23.890625 
Q 32.328125 33.6875 34.8125 36.53125 
Q 39.546875 41.84375 41.421875 45.53125 
Q 43.3125 49.21875 43.3125 52.78125 
Q 43.3125 58.59375 39.234375 62.25 
Q 35.15625 65.921875 28.609375 65.921875 
Q 23.96875 65.921875 18.8125 64.3125 
Q 13.671875 62.703125 7.8125 59.421875 
L 7.8125 69.390625 
Q 13.765625 71.78125 18.9375 73 
Q 24.125 74.21875 28.421875 74.21875 
Q 39.75 74.21875 46.484375 68.546875 
Q 53.21875 62.890625 53.21875 53.421875 
Q 53.21875 48.921875 51.53125 44.890625 
Q 49.859375 40.875 45.40625 35.40625 
Q 44.1875 33.984375 37.640625 27.21875 
Q 31.109375 20.453125 19.1875 8.296875 
z
" id="DejaVuSans-50"/>
       <path d="M 31.78125 66.40625 
Q 24.171875 66.40625 20.328125 58.90625 
Q 16.5 51.421875 16.5 36.375 
Q 16.5 21.390625 20.328125 13.890625 
Q 24.171875 6.390625 31.78125 6.390625 
Q 39.453125 6.390625 43.28125 13.890625 
Q 47.125 21.390625 47.125 36.375 
Q 47.125 51.421875 43.28125 58.90625 
Q 39.453125 66.40625 31.78125 66.40625 
z
M 31.78125 74.21875 
Q 44.046875 74.21875 50.515625 64.515625 
Q 56.984375 54.828125 56.984375 36.375 
Q 56.984375 17.96875 50.515625 8.265625 
Q 44.046875 -1.421875 31.78125 -1.421875 
Q 19.53125 -1.421875 13.0625 8.265625 
Q 6.59375 17.96875 6.59375 36.375 
Q 6.59375 54.828125 13.0625 64.515625 
Q 19.53125 74.21875 31.78125 74.21875 
z
" id="DejaVuSans-48"/>
       <path d="M 4.890625 31.390625 
L 31.203125 31.390625 
L 31.203125 23.390625 
L 4.890625 23.390625 
z
" id="DejaVuSans-45"/>
       <path d="M 37.796875 64.3125 
L 12.890625 25.390625 
L 37.796875 25.390625 
z
M 35.203125 72.90625 
L 47.609375 72.90625 
L 47.609375 25.390625 
L 58.015625 25.390625 
L 58.015625 17.1875 
L 47.609375 17.1875 
L 47.609375 0 
L 37.796875 0 
L 37.796875 17.1875 
L 4.890625 17.1875 
L 4.890625 26.703125 
z
" id="DejaVuSans-52"/>
      </defs>
      <g transform="translate(173.164123 544.452384)rotate(-30)scale(0.13 -0.13)">
       <use xlink:href="#DejaVuSans-50"/>
       <use x="63.623047" xlink:href="#DejaVuSans-48"/>
       <use x="127.246094" xlink:href="#DejaVuSans-50"/>
       <use x="190.869141" xlink:href="#DejaVuSans-48"/>
       <use x="254.492188" xlink:href="#DejaVuSans-45"/>
       <use x="290.576172" xlink:href="#DejaVuSans-48"/>
       <use x="354.199219" xlink:href="#DejaVuSans-52"/>
      </g>
     </g>
    </g>
    <g id="xtick_2">
     <g id="line2d_2">
      <g>
       <use style="stroke:#000000;stroke-width:0.8;" x="383.451941" xlink:href="#mb21eaa29c1" y="501.738984"/>
      </g>
     </g>
     <g id="text_2">
      <!-- 2020-05 -->
      <defs>
       <path d="M 10.796875 72.90625 
L 49.515625 72.90625 
L 49.515625 64.59375 
L 19.828125 64.59375 
L 19.828125 46.734375 
Q 21.96875 47.46875 24.109375 47.828125 
Q 26.265625 48.1875 28.421875 48.1875 
Q 40.625 48.1875 47.75 41.5 
Q 54.890625 34.8125 54.890625 23.390625 
Q 54.890625 11.625 47.5625 5.09375 
Q 40.234375 -1.421875 26.90625 -1.421875 
Q 22.3125 -1.421875 17.546875 -0.640625 
Q 12.796875 0.140625 7.71875 1.703125 
L 7.71875 11.625 
Q 12.109375 9.234375 16.796875 8.0625 
Q 21.484375 6.890625 26.703125 6.890625 
Q 35.15625 6.890625 40.078125 11.328125 
Q 45.015625 15.765625 45.015625 23.390625 
Q 45.015625 31 40.078125 35.4375 
Q 35.15625 39.890625 26.703125 39.890625 
Q 22.75 39.890625 18.8125 39.015625 
Q 14.890625 38.140625 10.796875 36.28125 
z
" id="DejaVuSans-53"/>
      </defs>
      <g transform="translate(335.059674 544.452384)rotate(-30)scale(0.13 -0.13)">
       <use xlink:href="#DejaVuSans-50"/>
       <use x="63.623047" xlink:href="#DejaVuSans-48"/>
       <use x="127.246094" xlink:href="#DejaVuSans-50"/>
       <use x="190.869141" xlink:href="#DejaVuSans-48"/>
       <use x="254.492188" xlink:href="#DejaVuSans-45"/>
       <use x="290.576172" xlink:href="#DejaVuSans-48"/>
       <use x="354.199219" xlink:href="#DejaVuSans-53"/>
      </g>
     </g>
    </g>
    <g id="xtick_3">
     <g id="line2d_3">
      <g>
       <use style="stroke:#000000;stroke-width:0.8;" x="550.744011" xlink:href="#mb21eaa29c1" y="501.738984"/>
      </g>
     </g>
     <g id="text_3">
      <!-- 2020-06 -->
      <defs>
       <path d="M 33.015625 40.375 
Q 26.375 40.375 22.484375 35.828125 
Q 18.609375 31.296875 18.609375 23.390625 
Q 18.609375 15.53125 22.484375 10.953125 
Q 26.375 6.390625 33.015625 6.390625 
Q 39.65625 6.390625 43.53125 10.953125 
Q 47.40625 15.53125 47.40625 23.390625 
Q 47.40625 31.296875 43.53125 35.828125 
Q 39.65625 40.375 33.015625 40.375 
z
M 52.59375 71.296875 
L 52.59375 62.3125 
Q 48.875 64.0625 45.09375 64.984375 
Q 41.3125 65.921875 37.59375 65.921875 
Q 27.828125 65.921875 22.671875 59.328125 
Q 17.53125 52.734375 16.796875 39.40625 
Q 19.671875 43.65625 24.015625 45.921875 
Q 28.375 48.1875 33.59375 48.1875 
Q 44.578125 48.1875 50.953125 41.515625 
Q 57.328125 34.859375 57.328125 23.390625 
Q 57.328125 12.15625 50.6875 5.359375 
Q 44.046875 -1.421875 33.015625 -1.421875 
Q 20.359375 -1.421875 13.671875 8.265625 
Q 6.984375 17.96875 6.984375 36.375 
Q 6.984375 53.65625 15.1875 63.9375 
Q 23.390625 74.21875 37.203125 74.21875 
Q 40.921875 74.21875 44.703125 73.484375 
Q 48.484375 72.75 52.59375 71.296875 
z
" id="DejaVuSans-54"/>
      </defs>
      <g transform="translate(502.351744 544.452384)rotate(-30)scale(0.13 -0.13)">
       <use xlink:href="#DejaVuSans-50"/>
       <use x="63.623047" xlink:href="#DejaVuSans-48"/>
       <use x="127.246094" xlink:href="#DejaVuSans-50"/>
       <use x="190.869141" xlink:href="#DejaVuSans-48"/>
       <use x="254.492188" xlink:href="#DejaVuSans-45"/>
       <use x="290.576172" xlink:href="#DejaVuSans-48"/>
       <use x="354.199219" xlink:href="#DejaVuSans-54"/>
      </g>
     </g>
    </g>
    <g id="xtick_4">
     <g id="line2d_4">
      <g>
       <use style="stroke:#000000;stroke-width:0.8;" x="712.639562" xlink:href="#mb21eaa29c1" y="501.738984"/>
      </g>
     </g>
     <g id="text_4">
      <!-- 2020-07 -->
      <defs>
       <path d="M 8.203125 72.90625 
L 55.078125 72.90625 
L 55.078125 68.703125 
L 28.609375 0 
L 18.3125 0 
L 43.21875 64.59375 
L 8.203125 64.59375 
z
" id="DejaVuSans-55"/>
      </defs>
      <g transform="translate(664.247295 544.452384)rotate(-30)scale(0.13 -0.13)">
       <use xlink:href="#DejaVuSans-50"/>
       <use x="63.623047" xlink:href="#DejaVuSans-48"/>
       <use x="127.246094" xlink:href="#DejaVuSans-50"/>
       <use x="190.869141" xlink:href="#DejaVuSans-48"/>
       <use x="254.492188" xlink:href="#DejaVuSans-45"/>
       <use x="290.576172" xlink:href="#DejaVuSans-48"/>
       <use x="354.199219" xlink:href="#DejaVuSans-55"/>
      </g>
     </g>
    </g>
    <g id="xtick_5">
     <g id="line2d_5">
      <g>
       <use style="stroke:#000000;stroke-width:0.8;" x="879.931632" xlink:href="#mb21eaa29c1" y="501.738984"/>
      </g>
     </g>
     <g id="text_5">
      <!-- 2020-08 -->
      <defs>
       <path d="M 31.78125 34.625 
Q 24.75 34.625 20.71875 30.859375 
Q 16.703125 27.09375 16.703125 20.515625 
Q 16.703125 13.921875 20.71875 10.15625 
Q 24.75 6.390625 31.78125 6.390625 
Q 38.8125 6.390625 42.859375 10.171875 
Q 46.921875 13.96875 46.921875 20.515625 
Q 46.921875 27.09375 42.890625 30.859375 
Q 38.875 34.625 31.78125 34.625 
z
M 21.921875 38.8125 
Q 15.578125 40.375 12.03125 44.71875 
Q 8.5 49.078125 8.5 55.328125 
Q 8.5 64.0625 14.71875 69.140625 
Q 20.953125 74.21875 31.78125 74.21875 
Q 42.671875 74.21875 48.875 69.140625 
Q 55.078125 64.0625 55.078125 55.328125 
Q 55.078125 49.078125 51.53125 44.71875 
Q 48 40.375 41.703125 38.8125 
Q 48.828125 37.15625 52.796875 32.3125 
Q 56.78125 27.484375 56.78125 20.515625 
Q 56.78125 9.90625 50.3125 4.234375 
Q 43.84375 -1.421875 31.78125 -1.421875 
Q 19.734375 -1.421875 13.25 4.234375 
Q 6.78125 9.90625 6.78125 20.515625 
Q 6.78125 27.484375 10.78125 32.3125 
Q 14.796875 37.15625 21.921875 38.8125 
z
M 18.3125 54.390625 
Q 18.3125 48.734375 21.84375 45.5625 
Q 25.390625 42.390625 31.78125 42.390625 
Q 38.140625 42.390625 41.71875 45.5625 
Q 45.3125 48.734375 45.3125 54.390625 
Q 45.3125 60.0625 41.71875 63.234375 
Q 38.140625 66.40625 31.78125 66.40625 
Q 25.390625 66.40625 21.84375 63.234375 
Q 18.3125 60.0625 18.3125 54.390625 
z
" id="DejaVuSans-56"/>
      </defs>
      <g transform="translate(831.539365 544.452384)rotate(-30)scale(0.13 -0.13)">
       <use xlink:href="#DejaVuSans-50"/>
       <use x="63.623047" xlink:href="#DejaVuSans-48"/>
       <use x="127.246094" xlink:href="#DejaVuSans-50"/>
       <use x="190.869141" xlink:href="#DejaVuSans-48"/>
       <use x="254.492188" xlink:href="#DejaVuSans-45"/>
       <use x="290.576172" xlink:href="#DejaVuSans-48"/>
       <use x="354.199219" xlink:href="#DejaVuSans-56"/>
      </g>
     </g>
    </g>
    <g id="xtick_6">
     <g id="line2d_6">
      <g>
       <use style="stroke:#000000;stroke-width:0.8;" x="1047.223702" xlink:href="#mb21eaa29c1" y="501.738984"/>
      </g>
     </g>
     <g id="text_6">
      <!-- 2020-09 -->
      <defs>
       <path d="M 10.984375 1.515625 
L 10.984375 10.5 
Q 14.703125 8.734375 18.5 7.8125 
Q 22.3125 6.890625 25.984375 6.890625 
Q 35.75 6.890625 40.890625 13.453125 
Q 46.046875 20.015625 46.78125 33.40625 
Q 43.953125 29.203125 39.59375 26.953125 
Q 35.25 24.703125 29.984375 24.703125 
Q 19.046875 24.703125 12.671875 31.3125 
Q 6.296875 37.9375 6.296875 49.421875 
Q 6.296875 60.640625 12.9375 67.421875 
Q 19.578125 74.21875 30.609375 74.21875 
Q 43.265625 74.21875 49.921875 64.515625 
Q 56.59375 54.828125 56.59375 36.375 
Q 56.59375 19.140625 48.40625 8.859375 
Q 40.234375 -1.421875 26.421875 -1.421875 
Q 22.703125 -1.421875 18.890625 -0.6875 
Q 15.09375 0.046875 10.984375 1.515625 
z
M 30.609375 32.421875 
Q 37.25 32.421875 41.125 36.953125 
Q 45.015625 41.5 45.015625 49.421875 
Q 45.015625 57.28125 41.125 61.84375 
Q 37.25 66.40625 30.609375 66.40625 
Q 23.96875 66.40625 20.09375 61.84375 
Q 16.21875 57.28125 16.21875 49.421875 
Q 16.21875 41.5 20.09375 36.953125 
Q 23.96875 32.421875 30.609375 32.421875 
z
" id="DejaVuSans-57"/>
      </defs>
      <g transform="translate(998.831435 544.452384)rotate(-30)scale(0.13 -0.13)">
       <use xlink:href="#DejaVuSans-50"/>
       <use x="63.623047" xlink:href="#DejaVuSans-48"/>
       <use x="127.246094" xlink:href="#DejaVuSans-50"/>
       <use x="190.869141" xlink:href="#DejaVuSans-48"/>
       <use x="254.492188" xlink:href="#DejaVuSans-45"/>
       <use x="290.576172" xlink:href="#DejaVuSans-48"/>
       <use x="354.199219" xlink:href="#DejaVuSans-57"/>
      </g>
     </g>
    </g>
   </g>
   <g id="matplotlib.axis_2">
    <g id="ytick_1">
     <g id="line2d_7">
      <path clip-path="url(#p0e0e16f684)" d="M 62.89875 479.657715 
L 1178.89875 479.657715 
" style="fill:none;stroke:#b0b0b0;stroke-linecap:square;stroke-width:0.8;"/>
     </g>
     <g id="line2d_8">
      <defs>
       <path d="M 0 0 
L -3.5 0 
" id="m7f5077e43a" style="stroke:#000000;stroke-width:0.8;"/>
      </defs>
      <g>
       <use style="stroke:#000000;stroke-width:0.8;" x="62.89875" xlink:href="#m7f5077e43a" y="479.657715"/>
      </g>
     </g>
     <g id="text_7">
      <!-- 0 -->
      <g transform="translate(47.6275 484.596699)scale(0.13 -0.13)">
       <use xlink:href="#DejaVuSans-48"/>
      </g>
     </g>
    </g>
    <g id="ytick_2">
     <g id="line2d_9">
      <path clip-path="url(#p0e0e16f684)" d="M 62.89875 443.694736 
L 1178.89875 443.694736 
" style="fill:none;stroke:#b0b0b0;stroke-linecap:square;stroke-width:0.8;"/>
     </g>
     <g id="line2d_10">
      <g>
       <use style="stroke:#000000;stroke-width:0.8;" x="62.89875" xlink:href="#m7f5077e43a" y="443.694736"/>
      </g>
     </g>
     <g id="text_8">
      <!-- 100 -->
      <defs>
       <path d="M 12.40625 8.296875 
L 28.515625 8.296875 
L 28.515625 63.921875 
L 10.984375 60.40625 
L 10.984375 69.390625 
L 28.421875 72.90625 
L 38.28125 72.90625 
L 38.28125 8.296875 
L 54.390625 8.296875 
L 54.390625 0 
L 12.40625 0 
z
" id="DejaVuSans-49"/>
      </defs>
      <g transform="translate(31.085 448.63372)scale(0.13 -0.13)">
       <use xlink:href="#DejaVuSans-49"/>
       <use x="63.623047" xlink:href="#DejaVuSans-48"/>
       <use x="127.246094" xlink:href="#DejaVuSans-48"/>
      </g>
     </g>
    </g>
    <g id="ytick_3">
     <g id="line2d_11">
      <path clip-path="url(#p0e0e16f684)" d="M 62.89875 407.731757 
L 1178.89875 407.731757 
" style="fill:none;stroke:#b0b0b0;stroke-linecap:square;stroke-width:0.8;"/>
     </g>
     <g id="line2d_12">
      <g>
       <use style="stroke:#000000;stroke-width:0.8;" x="62.89875" xlink:href="#m7f5077e43a" y="407.731757"/>
      </g>
     </g>
     <g id="text_9">
      <!-- 200 -->
      <g transform="translate(31.085 412.670741)scale(0.13 -0.13)">
       <use xlink:href="#DejaVuSans-50"/>
       <use x="63.623047" xlink:href="#DejaVuSans-48"/>
       <use x="127.246094" xlink:href="#DejaVuSans-48"/>
      </g>
     </g>
    </g>
    <g id="ytick_4">
     <g id="line2d_13">
      <path clip-path="url(#p0e0e16f684)" d="M 62.89875 371.768777 
L 1178.89875 371.768777 
" style="fill:none;stroke:#b0b0b0;stroke-linecap:square;stroke-width:0.8;"/>
     </g>
     <g id="line2d_14">
      <g>
       <use style="stroke:#000000;stroke-width:0.8;" x="62.89875" xlink:href="#m7f5077e43a" y="371.768777"/>
      </g>
     </g>
     <g id="text_10">
      <!-- 300 -->
      <defs>
       <path d="M 40.578125 39.3125 
Q 47.65625 37.796875 51.625 33 
Q 55.609375 28.21875 55.609375 21.1875 
Q 55.609375 10.40625 48.1875 4.484375 
Q 40.765625 -1.421875 27.09375 -1.421875 
Q 22.515625 -1.421875 17.65625 -0.515625 
Q 12.796875 0.390625 7.625 2.203125 
L 7.625 11.71875 
Q 11.71875 9.328125 16.59375 8.109375 
Q 21.484375 6.890625 26.8125 6.890625 
Q 36.078125 6.890625 40.9375 10.546875 
Q 45.796875 14.203125 45.796875 21.1875 
Q 45.796875 27.640625 41.28125 31.265625 
Q 36.765625 34.90625 28.71875 34.90625 
L 20.21875 34.90625 
L 20.21875 43.015625 
L 29.109375 43.015625 
Q 36.375 43.015625 40.234375 45.921875 
Q 44.09375 48.828125 44.09375 54.296875 
Q 44.09375 59.90625 40.109375 62.90625 
Q 36.140625 65.921875 28.71875 65.921875 
Q 24.65625 65.921875 20.015625 65.03125 
Q 15.375 64.15625 9.8125 62.3125 
L 9.8125 71.09375 
Q 15.4375 72.65625 20.34375 73.4375 
Q 25.25 74.21875 29.59375 74.21875 
Q 40.828125 74.21875 47.359375 69.109375 
Q 53.90625 64.015625 53.90625 55.328125 
Q 53.90625 49.265625 50.4375 45.09375 
Q 46.96875 40.921875 40.578125 39.3125 
z
" id="DejaVuSans-51"/>
      </defs>
      <g transform="translate(31.085 376.707762)scale(0.13 -0.13)">
       <use xlink:href="#DejaVuSans-51"/>
       <use x="63.623047" xlink:href="#DejaVuSans-48"/>
       <use x="127.246094" xlink:href="#DejaVuSans-48"/>
      </g>
     </g>
    </g>
    <g id="ytick_5">
     <g id="line2d_15">
      <path clip-path="url(#p0e0e16f684)" d="M 62.89875 335.805798 
L 1178.89875 335.805798 
" style="fill:none;stroke:#b0b0b0;stroke-linecap:square;stroke-width:0.8;"/>
     </g>
     <g id="line2d_16">
      <g>
       <use style="stroke:#000000;stroke-width:0.8;" x="62.89875" xlink:href="#m7f5077e43a" y="335.805798"/>
      </g>
     </g>
     <g id="text_11">
      <!-- 400 -->
      <g transform="translate(31.085 340.744782)scale(0.13 -0.13)">
       <use xlink:href="#DejaVuSans-52"/>
       <use x="63.623047" xlink:href="#DejaVuSans-48"/>
       <use x="127.246094" xlink:href="#DejaVuSans-48"/>
      </g>
     </g>
    </g>
    <g id="ytick_6">
     <g id="line2d_17">
      <path clip-path="url(#p0e0e16f684)" d="M 62.89875 299.842819 
L 1178.89875 299.842819 
" style="fill:none;stroke:#b0b0b0;stroke-linecap:square;stroke-width:0.8;"/>
     </g>
     <g id="line2d_18">
      <g>
       <use style="stroke:#000000;stroke-width:0.8;" x="62.89875" xlink:href="#m7f5077e43a" y="299.842819"/>
      </g>
     </g>
     <g id="text_12">
      <!-- 500 -->
      <g transform="translate(31.085 304.781803)scale(0.13 -0.13)">
       <use xlink:href="#DejaVuSans-53"/>
       <use x="63.623047" xlink:href="#DejaVuSans-48"/>
       <use x="127.246094" xlink:href="#DejaVuSans-48"/>
      </g>
     </g>
    </g>
    <g id="ytick_7">
     <g id="line2d_19">
      <path clip-path="url(#p0e0e16f684)" d="M 62.89875 263.879839 
L 1178.89875 263.879839 
" style="fill:none;stroke:#b0b0b0;stroke-linecap:square;stroke-width:0.8;"/>
     </g>
     <g id="line2d_20">
      <g>
       <use style="stroke:#000000;stroke-width:0.8;" x="62.89875" xlink:href="#m7f5077e43a" y="263.879839"/>
      </g>
     </g>
     <g id="text_13">
      <!-- 600 -->
      <g transform="translate(31.085 268.818824)scale(0.13 -0.13)">
       <use xlink:href="#DejaVuSans-54"/>
       <use x="63.623047" xlink:href="#DejaVuSans-48"/>
       <use x="127.246094" xlink:href="#DejaVuSans-48"/>
      </g>
     </g>
    </g>
    <g id="ytick_8">
     <g id="line2d_21">
      <path clip-path="url(#p0e0e16f684)" d="M 62.89875 227.91686 
L 1178.89875 227.91686 
" style="fill:none;stroke:#b0b0b0;stroke-linecap:square;stroke-width:0.8;"/>
     </g>
     <g id="line2d_22">
      <g>
       <use style="stroke:#000000;stroke-width:0.8;" x="62.89875" xlink:href="#m7f5077e43a" y="227.91686"/>
      </g>
     </g>
     <g id="text_14">
      <!-- 700 -->
      <g transform="translate(31.085 232.855844)scale(0.13 -0.13)">
       <use xlink:href="#DejaVuSans-55"/>
       <use x="63.623047" xlink:href="#DejaVuSans-48"/>
       <use x="127.246094" xlink:href="#DejaVuSans-48"/>
      </g>
     </g>
    </g>
    <g id="ytick_9">
     <g id="line2d_23">
      <path clip-path="url(#p0e0e16f684)" d="M 62.89875 191.953881 
L 1178.89875 191.953881 
" style="fill:none;stroke:#b0b0b0;stroke-linecap:square;stroke-width:0.8;"/>
     </g>
     <g id="line2d_24">
      <g>
       <use style="stroke:#000000;stroke-width:0.8;" x="62.89875" xlink:href="#m7f5077e43a" y="191.953881"/>
      </g>
     </g>
     <g id="text_15">
      <!-- 800 -->
      <g transform="translate(31.085 196.892865)scale(0.13 -0.13)">
       <use xlink:href="#DejaVuSans-56"/>
       <use x="63.623047" xlink:href="#DejaVuSans-48"/>
       <use x="127.246094" xlink:href="#DejaVuSans-48"/>
      </g>
     </g>
    </g>
    <g id="ytick_10">
     <g id="line2d_25">
      <path clip-path="url(#p0e0e16f684)" d="M 62.89875 155.990902 
L 1178.89875 155.990902 
" style="fill:none;stroke:#b0b0b0;stroke-linecap:square;stroke-width:0.8;"/>
     </g>
     <g id="line2d_26">
      <g>
       <use style="stroke:#000000;stroke-width:0.8;" x="62.89875" xlink:href="#m7f5077e43a" y="155.990902"/>
      </g>
     </g>
     <g id="text_16">
      <!-- 900 -->
      <g transform="translate(31.085 160.929886)scale(0.13 -0.13)">
       <use xlink:href="#DejaVuSans-57"/>
       <use x="63.623047" xlink:href="#DejaVuSans-48"/>
       <use x="127.246094" xlink:href="#DejaVuSans-48"/>
      </g>
     </g>
    </g>
    <g id="ytick_11">
     <g id="line2d_27">
      <path clip-path="url(#p0e0e16f684)" d="M 62.89875 120.027922 
L 1178.89875 120.027922 
" style="fill:none;stroke:#b0b0b0;stroke-linecap:square;stroke-width:0.8;"/>
     </g>
     <g id="line2d_28">
      <g>
       <use style="stroke:#000000;stroke-width:0.8;" x="62.89875" xlink:href="#m7f5077e43a" y="120.027922"/>
      </g>
     </g>
     <g id="text_17">
      <!-- 1000 -->
      <g transform="translate(22.81375 124.966907)scale(0.13 -0.13)">
       <use xlink:href="#DejaVuSans-49"/>
       <use x="63.623047" xlink:href="#DejaVuSans-48"/>
       <use x="127.246094" xlink:href="#DejaVuSans-48"/>
       <use x="190.869141" xlink:href="#DejaVuSans-48"/>
      </g>
     </g>
    </g>
    <g id="ytick_12">
     <g id="line2d_29">
      <path clip-path="url(#p0e0e16f684)" d="M 62.89875 84.064943 
L 1178.89875 84.064943 
" style="fill:none;stroke:#b0b0b0;stroke-linecap:square;stroke-width:0.8;"/>
     </g>
     <g id="line2d_30">
      <g>
       <use style="stroke:#000000;stroke-width:0.8;" x="62.89875" xlink:href="#m7f5077e43a" y="84.064943"/>
      </g>
     </g>
     <g id="text_18">
      <!-- 1100 -->
      <g transform="translate(22.81375 89.003927)scale(0.13 -0.13)">
       <use xlink:href="#DejaVuSans-49"/>
       <use x="63.623047" xlink:href="#DejaVuSans-49"/>
       <use x="127.246094" xlink:href="#DejaVuSans-48"/>
       <use x="190.869141" xlink:href="#DejaVuSans-48"/>
      </g>
     </g>
    </g>
    <g id="ytick_13">
     <g id="line2d_31">
      <path clip-path="url(#p0e0e16f684)" d="M 62.89875 48.101964 
L 1178.89875 48.101964 
" style="fill:none;stroke:#b0b0b0;stroke-linecap:square;stroke-width:0.8;"/>
     </g>
     <g id="line2d_32">
      <g>
       <use style="stroke:#000000;stroke-width:0.8;" x="62.89875" xlink:href="#m7f5077e43a" y="48.101964"/>
      </g>
     </g>
     <g id="text_19">
      <!-- 1200 -->
      <g transform="translate(22.81375 53.040948)scale(0.13 -0.13)">
       <use xlink:href="#DejaVuSans-49"/>
       <use x="63.623047" xlink:href="#DejaVuSans-50"/>
       <use x="127.246094" xlink:href="#DejaVuSans-48"/>
       <use x="190.869141" xlink:href="#DejaVuSans-48"/>
      </g>
     </g>
    </g>
    <g id="ytick_14">
     <g id="line2d_33">
      <path clip-path="url(#p0e0e16f684)" d="M 62.89875 12.138984 
L 1178.89875 12.138984 
" style="fill:none;stroke:#b0b0b0;stroke-linecap:square;stroke-width:0.8;"/>
     </g>
     <g id="line2d_34">
      <g>
       <use style="stroke:#000000;stroke-width:0.8;" x="62.89875" xlink:href="#m7f5077e43a" y="12.138984"/>
      </g>
     </g>
     <g id="text_20">
      <!-- 1300 -->
      <g transform="translate(22.81375 17.077969)scale(0.13 -0.13)">
       <use xlink:href="#DejaVuSans-49"/>
       <use x="63.623047" xlink:href="#DejaVuSans-51"/>
       <use x="127.246094" xlink:href="#DejaVuSans-48"/>
       <use x="190.869141" xlink:href="#DejaVuSans-48"/>
      </g>
     </g>
    </g>
    <g id="text_21">
     <!-- Anzahl von Fällen -->
     <defs>
      <path d="M 34.1875 63.1875 
L 20.796875 26.90625 
L 47.609375 26.90625 
z
M 28.609375 72.90625 
L 39.796875 72.90625 
L 67.578125 0 
L 57.328125 0 
L 50.6875 18.703125 
L 17.828125 18.703125 
L 11.1875 0 
L 0.78125 0 
z
" id="DejaVuSans-65"/>
      <path d="M 54.890625 33.015625 
L 54.890625 0 
L 45.90625 0 
L 45.90625 32.71875 
Q 45.90625 40.484375 42.875 44.328125 
Q 39.84375 48.1875 33.796875 48.1875 
Q 26.515625 48.1875 22.3125 43.546875 
Q 18.109375 38.921875 18.109375 30.90625 
L 18.109375 0 
L 9.078125 0 
L 9.078125 54.6875 
L 18.109375 54.6875 
L 18.109375 46.1875 
Q 21.34375 51.125 25.703125 53.5625 
Q 30.078125 56 35.796875 56 
Q 45.21875 56 50.046875 50.171875 
Q 54.890625 44.34375 54.890625 33.015625 
z
" id="DejaVuSans-110"/>
      <path d="M 5.515625 54.6875 
L 48.1875 54.6875 
L 48.1875 46.484375 
L 14.40625 7.171875 
L 48.1875 7.171875 
L 48.1875 0 
L 4.296875 0 
L 4.296875 8.203125 
L 38.09375 47.515625 
L 5.515625 47.515625 
z
" id="DejaVuSans-122"/>
      <path d="M 34.28125 27.484375 
Q 23.390625 27.484375 19.1875 25 
Q 14.984375 22.515625 14.984375 16.5 
Q 14.984375 11.71875 18.140625 8.90625 
Q 21.296875 6.109375 26.703125 6.109375 
Q 34.1875 6.109375 38.703125 11.40625 
Q 43.21875 16.703125 43.21875 25.484375 
L 43.21875 27.484375 
z
M 52.203125 31.203125 
L 52.203125 0 
L 43.21875 0 
L 43.21875 8.296875 
Q 40.140625 3.328125 35.546875 0.953125 
Q 30.953125 -1.421875 24.3125 -1.421875 
Q 15.921875 -1.421875 10.953125 3.296875 
Q 6 8.015625 6 15.921875 
Q 6 25.140625 12.171875 29.828125 
Q 18.359375 34.515625 30.609375 34.515625 
L 43.21875 34.515625 
L 43.21875 35.40625 
Q 43.21875 41.609375 39.140625 45 
Q 35.0625 48.390625 27.6875 48.390625 
Q 23 48.390625 18.546875 47.265625 
Q 14.109375 46.140625 10.015625 43.890625 
L 10.015625 52.203125 
Q 14.9375 54.109375 19.578125 55.046875 
Q 24.21875 56 28.609375 56 
Q 40.484375 56 46.34375 49.84375 
Q 52.203125 43.703125 52.203125 31.203125 
z
" id="DejaVuSans-97"/>
      <path d="M 54.890625 33.015625 
L 54.890625 0 
L 45.90625 0 
L 45.90625 32.71875 
Q 45.90625 40.484375 42.875 44.328125 
Q 39.84375 48.1875 33.796875 48.1875 
Q 26.515625 48.1875 22.3125 43.546875 
Q 18.109375 38.921875 18.109375 30.90625 
L 18.109375 0 
L 9.078125 0 
L 9.078125 75.984375 
L 18.109375 75.984375 
L 18.109375 46.1875 
Q 21.34375 51.125 25.703125 53.5625 
Q 30.078125 56 35.796875 56 
Q 45.21875 56 50.046875 50.171875 
Q 54.890625 44.34375 54.890625 33.015625 
z
" id="DejaVuSans-104"/>
      <path d="M 9.421875 75.984375 
L 18.40625 75.984375 
L 18.40625 0 
L 9.421875 0 
z
" id="DejaVuSans-108"/>
      <path id="DejaVuSans-32"/>
      <path d="M 2.984375 54.6875 
L 12.5 54.6875 
L 29.59375 8.796875 
L 46.6875 54.6875 
L 56.203125 54.6875 
L 35.6875 0 
L 23.484375 0 
z
" id="DejaVuSans-118"/>
      <path d="M 30.609375 48.390625 
Q 23.390625 48.390625 19.1875 42.75 
Q 14.984375 37.109375 14.984375 27.296875 
Q 14.984375 17.484375 19.15625 11.84375 
Q 23.34375 6.203125 30.609375 6.203125 
Q 37.796875 6.203125 41.984375 11.859375 
Q 46.1875 17.53125 46.1875 27.296875 
Q 46.1875 37.015625 41.984375 42.703125 
Q 37.796875 48.390625 30.609375 48.390625 
z
M 30.609375 56 
Q 42.328125 56 49.015625 48.375 
Q 55.71875 40.765625 55.71875 27.296875 
Q 55.71875 13.875 49.015625 6.21875 
Q 42.328125 -1.421875 30.609375 -1.421875 
Q 18.84375 -1.421875 12.171875 6.21875 
Q 5.515625 13.875 5.515625 27.296875 
Q 5.515625 40.765625 12.171875 48.375 
Q 18.84375 56 30.609375 56 
z
" id="DejaVuSans-111"/>
      <path d="M 9.8125 72.90625 
L 51.703125 72.90625 
L 51.703125 64.59375 
L 19.671875 64.59375 
L 19.671875 43.109375 
L 48.578125 43.109375 
L 48.578125 34.8125 
L 19.671875 34.8125 
L 19.671875 0 
L 9.8125 0 
z
" id="DejaVuSans-70"/>
      <path d="M 34.28125 27.484375 
Q 23.390625 27.484375 19.1875 25 
Q 14.984375 22.515625 14.984375 16.5 
Q 14.984375 11.71875 18.140625 8.90625 
Q 21.296875 6.109375 26.703125 6.109375 
Q 34.1875 6.109375 38.703125 11.40625 
Q 43.21875 16.703125 43.21875 25.484375 
L 43.21875 27.484375 
z
M 52.203125 31.203125 
L 52.203125 0 
L 43.21875 0 
L 43.21875 8.296875 
Q 40.140625 3.328125 35.546875 0.953125 
Q 30.953125 -1.421875 24.3125 -1.421875 
Q 15.921875 -1.421875 10.953125 3.296875 
Q 6 8.015625 6 15.921875 
Q 6 25.140625 12.171875 29.828125 
Q 18.359375 34.515625 30.609375 34.515625 
L 43.21875 34.515625 
L 43.21875 35.40625 
Q 43.21875 41.609375 39.140625 45 
Q 35.0625 48.390625 27.6875 48.390625 
Q 23 48.390625 18.546875 47.265625 
Q 14.109375 46.140625 10.015625 43.890625 
L 10.015625 52.203125 
Q 14.9375 54.109375 19.578125 55.046875 
Q 24.21875 56 28.609375 56 
Q 40.484375 56 46.34375 49.84375 
Q 52.203125 43.703125 52.203125 31.203125 
z
M 33.59375 75.78125 
L 43.5 75.78125 
L 43.5 65.921875 
L 33.59375 65.921875 
z
M 14.5 75.78125 
L 24.40625 75.78125 
L 24.40625 65.921875 
L 14.5 65.921875 
z
" id="DejaVuSans-228"/>
      <path d="M 56.203125 29.59375 
L 56.203125 25.203125 
L 14.890625 25.203125 
Q 15.484375 15.921875 20.484375 11.0625 
Q 25.484375 6.203125 34.421875 6.203125 
Q 39.59375 6.203125 44.453125 7.46875 
Q 49.3125 8.734375 54.109375 11.28125 
L 54.109375 2.78125 
Q 49.265625 0.734375 44.1875 -0.34375 
Q 39.109375 -1.421875 33.890625 -1.421875 
Q 20.796875 -1.421875 13.15625 6.1875 
Q 5.515625 13.8125 5.515625 26.8125 
Q 5.515625 40.234375 12.765625 48.109375 
Q 20.015625 56 32.328125 56 
Q 43.359375 56 49.78125 48.890625 
Q 56.203125 41.796875 56.203125 29.59375 
z
M 47.21875 32.234375 
Q 47.125 39.59375 43.09375 43.984375 
Q 39.0625 48.390625 32.421875 48.390625 
Q 24.90625 48.390625 20.390625 44.140625 
Q 15.875 39.890625 15.1875 32.171875 
z
" id="DejaVuSans-101"/>
     </defs>
     <g transform="translate(16.318125 309.388359)rotate(-90)scale(0.12 -0.12)">
      <use xlink:href="#DejaVuSans-65"/>
      <use x="68.408203" xlink:href="#DejaVuSans-110"/>
      <use x="131.787109" xlink:href="#DejaVuSans-122"/>
      <use x="184.277344" xlink:href="#DejaVuSans-97"/>
      <use x="245.556641" xlink:href="#DejaVuSans-104"/>
      <use x="308.935547" xlink:href="#DejaVuSans-108"/>
      <use x="336.71875" xlink:href="#DejaVuSans-32"/>
      <use x="368.505859" xlink:href="#DejaVuSans-118"/>
      <use x="427.685547" xlink:href="#DejaVuSans-111"/>
      <use x="488.867188" xlink:href="#DejaVuSans-110"/>
      <use x="552.246094" xlink:href="#DejaVuSans-32"/>
      <use x="584.033203" xlink:href="#DejaVuSans-70"/>
      <use x="632.427734" xlink:href="#DejaVuSans-228"/>
      <use x="693.707031" xlink:href="#DejaVuSans-108"/>
      <use x="721.490234" xlink:href="#DejaVuSans-108"/>
      <use x="749.273438" xlink:href="#DejaVuSans-101"/>
      <use x="810.796875" xlink:href="#DejaVuSans-110"/>
     </g>
    </g>
   </g>
   <g id="line2d_35">
    <path clip-path="url(#p0e0e16f684)" d="M 113.626023 479.657715 
L 146.005133 479.657715 
L 156.79817 478.578826 
L 162.194688 475.701787 
L 167.591206 475.701787 
L 172.987725 475.342158 
L 178.384243 474.263268 
L 183.780762 468.868821 
L 189.17728 464.912894 
L 194.573798 462.755115 
L 199.970317 458.799187 
L 205.366835 452.685481 
L 210.763353 450.887332 
L 216.159872 442.615846 
L 221.55639 425.713246 
L 226.952909 415.283982 
L 232.349427 408.451016 
L 237.745945 401.25842 
L 243.142464 391.188786 
L 248.538982 384.71545 
L 253.9355 378.601743 
L 259.332019 368.891739 
L 264.728537 363.497292 
L 270.125056 353.787288 
L 280.918092 345.515802 
L 291.711129 339.042466 
L 297.107647 322.859125 
L 302.504166 322.859125 
L 307.900684 299.842819 
L 313.297203 289.773184 
L 324.090239 268.195397 
L 329.486758 262.08169 
L 334.883276 261.362431 
L 340.279794 244.81946 
L 345.676313 245.53872 
L 351.072831 239.065384 
L 361.865868 234.030567 
L 372.658905 225.399452 
L 378.055423 219.645375 
L 388.84846 213.531668 
L 399.641497 211.733519 
L 405.038015 209.216111 
L 410.434533 205.619813 
L 415.831052 200.225366 
L 421.22757 195.190549 
L 426.624088 194.830919 
L 437.417125 192.313511 
L 442.813644 188.717213 
L 448.210162 187.638323 
L 453.60668 186.199804 
L 464.399717 182.603506 
L 480.589272 181.524617 
L 485.985791 178.287949 
L 496.778827 172.893502 
L 502.175346 171.095353 
L 512.968382 159.22757 
L 518.364901 155.990902 
L 529.157938 144.842378 
L 534.554456 144.842378 
L 556.140529 141.96534 
L 561.537048 141.96534 
L 566.933566 140.88645 
L 572.330085 130.097556 
L 577.726603 130.097556 
L 588.51964 122.904961 
L 593.916158 111.037177 
L 599.312676 105.283101 
L 610.105713 102.406062 
L 615.502232 101.327173 
L 626.295268 99.888654 
L 637.088305 97.371245 
L 647.881342 96.292356 
L 653.27786 96.292356 
L 664.070897 95.573096 
L 674.863934 95.573096 
L 680.260452 95.213467 
L 707.243044 95.213467 
L 712.639562 94.134577 
L 718.036081 94.134577 
L 723.432599 93.774947 
L 777.397783 93.774947 
L 788.19082 91.617169 
L 820.56993 91.617169 
L 825.966448 91.257539 
L 831.362967 90.178649 
L 836.759485 89.81902 
L 852.94904 89.45939 
L 863.742077 89.45939 
L 869.138595 87.301611 
L 874.535114 87.301611 
L 928.500297 78.670496 
L 933.896816 78.310866 
L 944.689853 76.153088 
L 950.086371 76.153088 
L 966.275926 73.276049 
L 971.672444 73.276049 
L 977.068963 72.19716 
L 982.465481 70.399011 
L 987.862 70.039381 
L 1004.051555 67.162343 
L 1009.448073 65.723824 
L 1014.844591 65.723824 
L 1020.24111 63.925675 
L 1025.637628 63.206415 
L 1041.827183 63.206415 
L 1047.223702 54.93493 
L 1052.62022 53.496411 
L 1058.016738 50.619372 
L 1063.413257 47.382704 
L 1079.602812 46.663444 
L 1084.99933 46.303815 
L 1090.395849 46.303815 
L 1095.792367 43.426776 
L 1101.188885 41.988257 
L 1117.378441 40.190108 
L 1122.774959 40.190108 
L 1128.171477 38.032329 
L 1128.171477 38.032329 
" style="fill:none;stroke:#dbcd00;stroke-linecap:square;stroke-width:2;"/>
    <defs>
     <path d="M 0 1.5 
C 0.397805 1.5 0.77937 1.341951 1.06066 1.06066 
C 1.341951 0.77937 1.5 0.397805 1.5 0 
C 1.5 -0.397805 1.341951 -0.77937 1.06066 -1.06066 
C 0.77937 -1.341951 0.397805 -1.5 0 -1.5 
C -0.397805 -1.5 -0.77937 -1.341951 -1.06066 -1.06066 
C -1.341951 -0.77937 -1.5 -0.397805 -1.5 0 
C -1.5 0.397805 -1.341951 0.77937 -1.06066 1.06066 
C -0.77937 1.341951 -0.397805 1.5 0 1.5 
z
" id="m28acd2630c" style="stroke:#dbcd00;"/>
    </defs>
    <g clip-path="url(#p0e0e16f684)">
     <use style="fill:#dbcd00;stroke:#dbcd00;" x="113.626023" xlink:href="#m28acd2630c" y="479.657715"/>
     <use style="fill:#dbcd00;stroke:#dbcd00;" x="119.022541" xlink:href="#m28acd2630c" y="479.657715"/>
     <use style="fill:#dbcd00;stroke:#dbcd00;" x="124.419059" xlink:href="#m28acd2630c" y="479.657715"/>
     <use style="fill:#dbcd00;stroke:#dbcd00;" x="129.815578" xlink:href="#m28acd2630c" y="479.657715"/>
     <use style="fill:#dbcd00;stroke:#dbcd00;" x="135.212096" xlink:href="#m28acd2630c" y="479.657715"/>
     <use style="fill:#dbcd00;stroke:#dbcd00;" x="140.608615" xlink:href="#m28acd2630c" y="479.657715"/>
     <use style="fill:#dbcd00;stroke:#dbcd00;" x="146.005133" xlink:href="#m28acd2630c" y="479.657715"/>
     <use style="fill:#dbcd00;stroke:#dbcd00;" x="156.79817" xlink:href="#m28acd2630c" y="478.578826"/>
     <use style="fill:#dbcd00;stroke:#dbcd00;" x="162.194688" xlink:href="#m28acd2630c" y="475.701787"/>
     <use style="fill:#dbcd00;stroke:#dbcd00;" x="167.591206" xlink:href="#m28acd2630c" y="475.701787"/>
     <use style="fill:#dbcd00;stroke:#dbcd00;" x="172.987725" xlink:href="#m28acd2630c" y="475.342158"/>
     <use style="fill:#dbcd00;stroke:#dbcd00;" x="178.384243" xlink:href="#m28acd2630c" y="474.263268"/>
     <use style="fill:#dbcd00;stroke:#dbcd00;" x="183.780762" xlink:href="#m28acd2630c" y="468.868821"/>
     <use style="fill:#dbcd00;stroke:#dbcd00;" x="189.17728" xlink:href="#m28acd2630c" y="464.912894"/>
     <use style="fill:#dbcd00;stroke:#dbcd00;" x="194.573798" xlink:href="#m28acd2630c" y="462.755115"/>
     <use style="fill:#dbcd00;stroke:#dbcd00;" x="199.970317" xlink:href="#m28acd2630c" y="458.799187"/>
     <use style="fill:#dbcd00;stroke:#dbcd00;" x="205.366835" xlink:href="#m28acd2630c" y="452.685481"/>
     <use style="fill:#dbcd00;stroke:#dbcd00;" x="210.763353" xlink:href="#m28acd2630c" y="450.887332"/>
     <use style="fill:#dbcd00;stroke:#dbcd00;" x="216.159872" xlink:href="#m28acd2630c" y="442.615846"/>
     <use style="fill:#dbcd00;stroke:#dbcd00;" x="221.55639" xlink:href="#m28acd2630c" y="425.713246"/>
     <use style="fill:#dbcd00;stroke:#dbcd00;" x="226.952909" xlink:href="#m28acd2630c" y="415.283982"/>
     <use style="fill:#dbcd00;stroke:#dbcd00;" x="232.349427" xlink:href="#m28acd2630c" y="408.451016"/>
     <use style="fill:#dbcd00;stroke:#dbcd00;" x="237.745945" xlink:href="#m28acd2630c" y="401.25842"/>
     <use style="fill:#dbcd00;stroke:#dbcd00;" x="243.142464" xlink:href="#m28acd2630c" y="391.188786"/>
     <use style="fill:#dbcd00;stroke:#dbcd00;" x="248.538982" xlink:href="#m28acd2630c" y="384.71545"/>
     <use style="fill:#dbcd00;stroke:#dbcd00;" x="253.9355" xlink:href="#m28acd2630c" y="378.601743"/>
     <use style="fill:#dbcd00;stroke:#dbcd00;" x="259.332019" xlink:href="#m28acd2630c" y="368.891739"/>
     <use style="fill:#dbcd00;stroke:#dbcd00;" x="264.728537" xlink:href="#m28acd2630c" y="363.497292"/>
     <use style="fill:#dbcd00;stroke:#dbcd00;" x="270.125056" xlink:href="#m28acd2630c" y="353.787288"/>
     <use style="fill:#dbcd00;stroke:#dbcd00;" x="280.918092" xlink:href="#m28acd2630c" y="345.515802"/>
     <use style="fill:#dbcd00;stroke:#dbcd00;" x="291.711129" xlink:href="#m28acd2630c" y="339.042466"/>
     <use style="fill:#dbcd00;stroke:#dbcd00;" x="297.107647" xlink:href="#m28acd2630c" y="322.859125"/>
     <use style="fill:#dbcd00;stroke:#dbcd00;" x="302.504166" xlink:href="#m28acd2630c" y="322.859125"/>
     <use style="fill:#dbcd00;stroke:#dbcd00;" x="307.900684" xlink:href="#m28acd2630c" y="299.842819"/>
     <use style="fill:#dbcd00;stroke:#dbcd00;" x="313.297203" xlink:href="#m28acd2630c" y="289.773184"/>
     <use style="fill:#dbcd00;stroke:#dbcd00;" x="324.090239" xlink:href="#m28acd2630c" y="268.195397"/>
     <use style="fill:#dbcd00;stroke:#dbcd00;" x="329.486758" xlink:href="#m28acd2630c" y="262.08169"/>
     <use style="fill:#dbcd00;stroke:#dbcd00;" x="334.883276" xlink:href="#m28acd2630c" y="261.362431"/>
     <use style="fill:#dbcd00;stroke:#dbcd00;" x="340.279794" xlink:href="#m28acd2630c" y="244.81946"/>
     <use style="fill:#dbcd00;stroke:#dbcd00;" x="345.676313" xlink:href="#m28acd2630c" y="245.53872"/>
     <use style="fill:#dbcd00;stroke:#dbcd00;" x="351.072831" xlink:href="#m28acd2630c" y="239.065384"/>
     <use style="fill:#dbcd00;stroke:#dbcd00;" x="361.865868" xlink:href="#m28acd2630c" y="234.030567"/>
     <use style="fill:#dbcd00;stroke:#dbcd00;" x="367.262386" xlink:href="#m28acd2630c" y="229.715009"/>
     <use style="fill:#dbcd00;stroke:#dbcd00;" x="372.658905" xlink:href="#m28acd2630c" y="225.399452"/>
     <use style="fill:#dbcd00;stroke:#dbcd00;" x="378.055423" xlink:href="#m28acd2630c" y="219.645375"/>
     <use style="fill:#dbcd00;stroke:#dbcd00;" x="388.84846" xlink:href="#m28acd2630c" y="213.531668"/>
     <use style="fill:#dbcd00;stroke:#dbcd00;" x="399.641497" xlink:href="#m28acd2630c" y="211.733519"/>
     <use style="fill:#dbcd00;stroke:#dbcd00;" x="405.038015" xlink:href="#m28acd2630c" y="209.216111"/>
     <use style="fill:#dbcd00;stroke:#dbcd00;" x="410.434533" xlink:href="#m28acd2630c" y="205.619813"/>
     <use style="fill:#dbcd00;stroke:#dbcd00;" x="415.831052" xlink:href="#m28acd2630c" y="200.225366"/>
     <use style="fill:#dbcd00;stroke:#dbcd00;" x="421.22757" xlink:href="#m28acd2630c" y="195.190549"/>
     <use style="fill:#dbcd00;stroke:#dbcd00;" x="426.624088" xlink:href="#m28acd2630c" y="194.830919"/>
     <use style="fill:#dbcd00;stroke:#dbcd00;" x="437.417125" xlink:href="#m28acd2630c" y="192.313511"/>
     <use style="fill:#dbcd00;stroke:#dbcd00;" x="442.813644" xlink:href="#m28acd2630c" y="188.717213"/>
     <use style="fill:#dbcd00;stroke:#dbcd00;" x="448.210162" xlink:href="#m28acd2630c" y="187.638323"/>
     <use style="fill:#dbcd00;stroke:#dbcd00;" x="453.60668" xlink:href="#m28acd2630c" y="186.199804"/>
     <use style="fill:#dbcd00;stroke:#dbcd00;" x="459.003199" xlink:href="#m28acd2630c" y="184.401655"/>
     <use style="fill:#dbcd00;stroke:#dbcd00;" x="464.399717" xlink:href="#m28acd2630c" y="182.603506"/>
     <use style="fill:#dbcd00;stroke:#dbcd00;" x="475.192754" xlink:href="#m28acd2630c" y="181.884247"/>
     <use style="fill:#dbcd00;stroke:#dbcd00;" x="480.589272" xlink:href="#m28acd2630c" y="181.524617"/>
     <use style="fill:#dbcd00;stroke:#dbcd00;" x="485.985791" xlink:href="#m28acd2630c" y="178.287949"/>
     <use style="fill:#dbcd00;stroke:#dbcd00;" x="496.778827" xlink:href="#m28acd2630c" y="172.893502"/>
     <use style="fill:#dbcd00;stroke:#dbcd00;" x="502.175346" xlink:href="#m28acd2630c" y="171.095353"/>
     <use style="fill:#dbcd00;stroke:#dbcd00;" x="512.968382" xlink:href="#m28acd2630c" y="159.22757"/>
     <use style="fill:#dbcd00;stroke:#dbcd00;" x="518.364901" xlink:href="#m28acd2630c" y="155.990902"/>
     <use style="fill:#dbcd00;stroke:#dbcd00;" x="529.157938" xlink:href="#m28acd2630c" y="144.842378"/>
     <use style="fill:#dbcd00;stroke:#dbcd00;" x="534.554456" xlink:href="#m28acd2630c" y="144.842378"/>
     <use style="fill:#dbcd00;stroke:#dbcd00;" x="556.140529" xlink:href="#m28acd2630c" y="141.96534"/>
     <use style="fill:#dbcd00;stroke:#dbcd00;" x="561.537048" xlink:href="#m28acd2630c" y="141.96534"/>
     <use style="fill:#dbcd00;stroke:#dbcd00;" x="566.933566" xlink:href="#m28acd2630c" y="140.88645"/>
     <use style="fill:#dbcd00;stroke:#dbcd00;" x="572.330085" xlink:href="#m28acd2630c" y="130.097556"/>
     <use style="fill:#dbcd00;stroke:#dbcd00;" x="577.726603" xlink:href="#m28acd2630c" y="130.097556"/>
     <use style="fill:#dbcd00;stroke:#dbcd00;" x="588.51964" xlink:href="#m28acd2630c" y="122.904961"/>
     <use style="fill:#dbcd00;stroke:#dbcd00;" x="593.916158" xlink:href="#m28acd2630c" y="111.037177"/>
     <use style="fill:#dbcd00;stroke:#dbcd00;" x="599.312676" xlink:href="#m28acd2630c" y="105.283101"/>
     <use style="fill:#dbcd00;stroke:#dbcd00;" x="610.105713" xlink:href="#m28acd2630c" y="102.406062"/>
     <use style="fill:#dbcd00;stroke:#dbcd00;" x="615.502232" xlink:href="#m28acd2630c" y="101.327173"/>
     <use style="fill:#dbcd00;stroke:#dbcd00;" x="626.295268" xlink:href="#m28acd2630c" y="99.888654"/>
     <use style="fill:#dbcd00;stroke:#dbcd00;" x="637.088305" xlink:href="#m28acd2630c" y="97.371245"/>
     <use style="fill:#dbcd00;stroke:#dbcd00;" x="647.881342" xlink:href="#m28acd2630c" y="96.292356"/>
     <use style="fill:#dbcd00;stroke:#dbcd00;" x="653.27786" xlink:href="#m28acd2630c" y="96.292356"/>
     <use style="fill:#dbcd00;stroke:#dbcd00;" x="664.070897" xlink:href="#m28acd2630c" y="95.573096"/>
     <use style="fill:#dbcd00;stroke:#dbcd00;" x="669.467415" xlink:href="#m28acd2630c" y="95.573096"/>
     <use style="fill:#dbcd00;stroke:#dbcd00;" x="674.863934" xlink:href="#m28acd2630c" y="95.573096"/>
     <use style="fill:#dbcd00;stroke:#dbcd00;" x="680.260452" xlink:href="#m28acd2630c" y="95.213467"/>
     <use style="fill:#dbcd00;stroke:#dbcd00;" x="691.053489" xlink:href="#m28acd2630c" y="95.213467"/>
     <use style="fill:#dbcd00;stroke:#dbcd00;" x="701.846526" xlink:href="#m28acd2630c" y="95.213467"/>
     <use style="fill:#dbcd00;stroke:#dbcd00;" x="707.243044" xlink:href="#m28acd2630c" y="95.213467"/>
     <use style="fill:#dbcd00;stroke:#dbcd00;" x="712.639562" xlink:href="#m28acd2630c" y="94.134577"/>
     <use style="fill:#dbcd00;stroke:#dbcd00;" x="718.036081" xlink:href="#m28acd2630c" y="94.134577"/>
     <use style="fill:#dbcd00;stroke:#dbcd00;" x="723.432599" xlink:href="#m28acd2630c" y="93.774947"/>
     <use style="fill:#dbcd00;stroke:#dbcd00;" x="728.829118" xlink:href="#m28acd2630c" y="93.774947"/>
     <use style="fill:#dbcd00;stroke:#dbcd00;" x="739.622154" xlink:href="#m28acd2630c" y="93.774947"/>
     <use style="fill:#dbcd00;stroke:#dbcd00;" x="745.018673" xlink:href="#m28acd2630c" y="93.774947"/>
     <use style="fill:#dbcd00;stroke:#dbcd00;" x="750.415191" xlink:href="#m28acd2630c" y="93.774947"/>
     <use style="fill:#dbcd00;stroke:#dbcd00;" x="755.811709" xlink:href="#m28acd2630c" y="93.774947"/>
     <use style="fill:#dbcd00;stroke:#dbcd00;" x="761.208228" xlink:href="#m28acd2630c" y="93.774947"/>
     <use style="fill:#dbcd00;stroke:#dbcd00;" x="777.397783" xlink:href="#m28acd2630c" y="93.774947"/>
     <use style="fill:#dbcd00;stroke:#dbcd00;" x="782.794301" xlink:href="#m28acd2630c" y="92.696058"/>
     <use style="fill:#dbcd00;stroke:#dbcd00;" x="788.19082" xlink:href="#m28acd2630c" y="91.617169"/>
     <use style="fill:#dbcd00;stroke:#dbcd00;" x="793.587338" xlink:href="#m28acd2630c" y="91.617169"/>
     <use style="fill:#dbcd00;stroke:#dbcd00;" x="798.983856" xlink:href="#m28acd2630c" y="91.617169"/>
     <use style="fill:#dbcd00;stroke:#dbcd00;" x="815.173412" xlink:href="#m28acd2630c" y="91.617169"/>
     <use style="fill:#dbcd00;stroke:#dbcd00;" x="820.56993" xlink:href="#m28acd2630c" y="91.617169"/>
     <use style="fill:#dbcd00;stroke:#dbcd00;" x="825.966448" xlink:href="#m28acd2630c" y="91.257539"/>
     <use style="fill:#dbcd00;stroke:#dbcd00;" x="831.362967" xlink:href="#m28acd2630c" y="90.178649"/>
     <use style="fill:#dbcd00;stroke:#dbcd00;" x="836.759485" xlink:href="#m28acd2630c" y="89.81902"/>
     <use style="fill:#dbcd00;stroke:#dbcd00;" x="852.94904" xlink:href="#m28acd2630c" y="89.45939"/>
     <use style="fill:#dbcd00;stroke:#dbcd00;" x="858.345559" xlink:href="#m28acd2630c" y="89.45939"/>
     <use style="fill:#dbcd00;stroke:#dbcd00;" x="863.742077" xlink:href="#m28acd2630c" y="89.45939"/>
     <use style="fill:#dbcd00;stroke:#dbcd00;" x="869.138595" xlink:href="#m28acd2630c" y="87.301611"/>
     <use style="fill:#dbcd00;stroke:#dbcd00;" x="874.535114" xlink:href="#m28acd2630c" y="87.301611"/>
     <use style="fill:#dbcd00;stroke:#dbcd00;" x="928.500297" xlink:href="#m28acd2630c" y="78.670496"/>
     <use style="fill:#dbcd00;stroke:#dbcd00;" x="933.896816" xlink:href="#m28acd2630c" y="78.310866"/>
     <use style="fill:#dbcd00;stroke:#dbcd00;" x="944.689853" xlink:href="#m28acd2630c" y="76.153088"/>
     <use style="fill:#dbcd00;stroke:#dbcd00;" x="950.086371" xlink:href="#m28acd2630c" y="76.153088"/>
     <use style="fill:#dbcd00;stroke:#dbcd00;" x="966.275926" xlink:href="#m28acd2630c" y="73.276049"/>
     <use style="fill:#dbcd00;stroke:#dbcd00;" x="971.672444" xlink:href="#m28acd2630c" y="73.276049"/>
     <use style="fill:#dbcd00;stroke:#dbcd00;" x="977.068963" xlink:href="#m28acd2630c" y="72.19716"/>
     <use style="fill:#dbcd00;stroke:#dbcd00;" x="982.465481" xlink:href="#m28acd2630c" y="70.399011"/>
     <use style="fill:#dbcd00;stroke:#dbcd00;" x="987.862" xlink:href="#m28acd2630c" y="70.039381"/>
     <use style="fill:#dbcd00;stroke:#dbcd00;" x="1004.051555" xlink:href="#m28acd2630c" y="67.162343"/>
     <use style="fill:#dbcd00;stroke:#dbcd00;" x="1009.448073" xlink:href="#m28acd2630c" y="65.723824"/>
     <use style="fill:#dbcd00;stroke:#dbcd00;" x="1014.844591" xlink:href="#m28acd2630c" y="65.723824"/>
     <use style="fill:#dbcd00;stroke:#dbcd00;" x="1020.24111" xlink:href="#m28acd2630c" y="63.925675"/>
     <use style="fill:#dbcd00;stroke:#dbcd00;" x="1025.637628" xlink:href="#m28acd2630c" y="63.206415"/>
     <use style="fill:#dbcd00;stroke:#dbcd00;" x="1041.827183" xlink:href="#m28acd2630c" y="63.206415"/>
     <use style="fill:#dbcd00;stroke:#dbcd00;" x="1047.223702" xlink:href="#m28acd2630c" y="54.93493"/>
     <use style="fill:#dbcd00;stroke:#dbcd00;" x="1052.62022" xlink:href="#m28acd2630c" y="53.496411"/>
     <use style="fill:#dbcd00;stroke:#dbcd00;" x="1058.016738" xlink:href="#m28acd2630c" y="50.619372"/>
     <use style="fill:#dbcd00;stroke:#dbcd00;" x="1063.413257" xlink:href="#m28acd2630c" y="47.382704"/>
     <use style="fill:#dbcd00;stroke:#dbcd00;" x="1079.602812" xlink:href="#m28acd2630c" y="46.663444"/>
     <use style="fill:#dbcd00;stroke:#dbcd00;" x="1084.99933" xlink:href="#m28acd2630c" y="46.303815"/>
     <use style="fill:#dbcd00;stroke:#dbcd00;" x="1090.395849" xlink:href="#m28acd2630c" y="46.303815"/>
     <use style="fill:#dbcd00;stroke:#dbcd00;" x="1095.792367" xlink:href="#m28acd2630c" y="43.426776"/>
     <use style="fill:#dbcd00;stroke:#dbcd00;" x="1101.188885" xlink:href="#m28acd2630c" y="41.988257"/>
     <use style="fill:#dbcd00;stroke:#dbcd00;" x="1117.378441" xlink:href="#m28acd2630c" y="40.190108"/>
     <use style="fill:#dbcd00;stroke:#dbcd00;" x="1122.774959" xlink:href="#m28acd2630c" y="40.190108"/>
     <use style="fill:#dbcd00;stroke:#dbcd00;" x="1128.171477" xlink:href="#m28acd2630c" y="38.032329"/>
    </g>
   </g>
   <g id="line2d_36">
    <path clip-path="url(#p0e0e16f684)" d="M 113.626023 474.622898 
L 119.022541 469.947711 
L 124.419059 463.474374 
L 129.815578 450.168072 
L 135.212096 445.492885 
L 140.608615 435.423251 
L 146.005133 420.678429 
L 156.79817 390.109897 
L 162.194688 385.07508 
L 167.591206 382.198041 
L 172.987725 377.882484 
L 178.384243 375.005445 
L 183.780762 369.970628 
L 189.17728 363.137662 
L 194.573798 354.506547 
L 199.970317 349.47173 
L 205.366835 350.910249 
L 210.763353 349.1121 
L 216.159872 346.594692 
L 221.55639 347.673581 
L 226.952909 343.358024 
L 232.349427 335.086538 
L 237.745945 328.613202 
L 243.142464 333.648019 
L 248.538982 335.086538 
L 253.9355 335.086538 
L 259.332019 336.884687 
L 264.728537 331.84987 
L 270.125056 337.244317 
L 280.918092 344.436913 
L 291.711129 344.436913 
L 297.107647 359.541364 
L 302.504166 355.585437 
L 307.900684 373.207296 
L 313.297203 380.399892 
L 324.090239 400.179531 
L 329.486758 405.933608 
L 334.883276 403.416199 
L 340.279794 417.801391 
L 345.676313 414.205093 
L 351.072831 418.88028 
L 361.865868 422.476578 
L 372.658905 430.388433 
L 378.055423 436.14251 
L 388.84846 440.098438 
L 399.641497 440.458068 
L 405.038015 442.256217 
L 410.434533 445.133255 
L 415.831052 446.571774 
L 421.22757 450.168072 
L 426.624088 446.931404 
L 437.417125 443.694736 
L 442.813644 445.852515 
L 448.210162 435.423251 
L 453.60668 432.905842 
L 459.003199 433.984731 
L 464.399717 434.703991 
L 475.192754 430.388433 
L 480.589272 430.748063 
L 485.985791 433.984731 
L 496.778827 432.905842 
L 502.175346 427.871025 
L 512.968382 439.019549 
L 518.364901 441.536957 
L 529.157938 436.86177 
L 534.554456 435.423251 
L 556.140529 436.86177 
L 566.933566 436.86177 
L 572.330085 445.852515 
L 577.726603 445.852515 
L 588.51964 452.685481 
L 593.916158 463.834004 
L 599.312676 469.588081 
L 610.105713 472.465119 
L 615.502232 473.544009 
L 626.295268 474.622898 
L 637.088305 477.140307 
L 653.27786 477.140307 
L 664.070897 477.859566 
L 674.863934 477.859566 
L 680.260452 478.219196 
L 691.053489 477.499936 
L 707.243044 477.499936 
L 712.639562 477.859566 
L 718.036081 476.780677 
L 723.432599 477.140307 
L 728.829118 477.140307 
L 739.622154 476.780677 
L 745.018673 476.421047 
L 755.811709 476.421047 
L 761.208228 476.061417 
L 777.397783 475.701787 
L 782.794301 476.061417 
L 788.19082 477.140307 
L 798.983856 476.421047 
L 815.173412 476.421047 
L 820.56993 472.465119 
L 825.966448 472.824749 
L 831.362967 472.105489 
L 836.759485 472.465119 
L 852.94904 471.0266 
L 858.345559 469.947711 
L 863.742077 469.947711 
L 869.138595 470.30734 
L 874.535114 468.149562 
L 928.500297 469.228451 
L 933.896816 467.789932 
L 944.689853 465.632153 
L 950.086371 463.834004 
L 966.275926 463.834004 
L 971.672444 458.439557 
L 977.068963 457.720298 
L 987.862 455.562519 
L 1004.051555 457.360668 
L 1009.448073 457.720298 
L 1014.844591 457.720298 
L 1020.24111 459.158817 
L 1025.637628 459.878076 
L 1041.827183 459.878076 
L 1047.223702 465.991783 
L 1052.62022 465.991783 
L 1058.016738 466.711043 
L 1063.413257 469.228451 
L 1079.602812 468.868821 
L 1084.99933 467.789932 
L 1090.395849 467.789932 
L 1095.792367 470.30734 
L 1101.188885 471.0266 
L 1117.378441 471.0266 
L 1122.774959 466.351413 
L 1128.171477 467.789932 
L 1128.171477 467.789932 
" style="fill:none;stroke:#2792cb;stroke-linecap:square;stroke-width:2;"/>
    <defs>
     <path d="M 0 1.5 
C 0.397805 1.5 0.77937 1.341951 1.06066 1.06066 
C 1.341951 0.77937 1.5 0.397805 1.5 0 
C 1.5 -0.397805 1.341951 -0.77937 1.06066 -1.06066 
C 0.77937 -1.341951 0.397805 -1.5 0 -1.5 
C -0.397805 -1.5 -0.77937 -1.341951 -1.06066 -1.06066 
C -1.341951 -0.77937 -1.5 -0.397805 -1.5 0 
C -1.5 0.397805 -1.341951 0.77937 -1.06066 1.06066 
C -0.77937 1.341951 -0.397805 1.5 0 1.5 
z
" id="mfb128c97e4" style="stroke:#2792cb;"/>
    </defs>
    <g clip-path="url(#p0e0e16f684)">
     <use style="fill:#2792cb;stroke:#2792cb;" x="113.626023" xlink:href="#mfb128c97e4" y="474.622898"/>
     <use style="fill:#2792cb;stroke:#2792cb;" x="119.022541" xlink:href="#mfb128c97e4" y="469.947711"/>
     <use style="fill:#2792cb;stroke:#2792cb;" x="124.419059" xlink:href="#mfb128c97e4" y="463.474374"/>
     <use style="fill:#2792cb;stroke:#2792cb;" x="129.815578" xlink:href="#mfb128c97e4" y="450.168072"/>
     <use style="fill:#2792cb;stroke:#2792cb;" x="135.212096" xlink:href="#mfb128c97e4" y="445.492885"/>
     <use style="fill:#2792cb;stroke:#2792cb;" x="140.608615" xlink:href="#mfb128c97e4" y="435.423251"/>
     <use style="fill:#2792cb;stroke:#2792cb;" x="146.005133" xlink:href="#mfb128c97e4" y="420.678429"/>
     <use style="fill:#2792cb;stroke:#2792cb;" x="156.79817" xlink:href="#mfb128c97e4" y="390.109897"/>
     <use style="fill:#2792cb;stroke:#2792cb;" x="162.194688" xlink:href="#mfb128c97e4" y="385.07508"/>
     <use style="fill:#2792cb;stroke:#2792cb;" x="167.591206" xlink:href="#mfb128c97e4" y="382.198041"/>
     <use style="fill:#2792cb;stroke:#2792cb;" x="172.987725" xlink:href="#mfb128c97e4" y="377.882484"/>
     <use style="fill:#2792cb;stroke:#2792cb;" x="178.384243" xlink:href="#mfb128c97e4" y="375.005445"/>
     <use style="fill:#2792cb;stroke:#2792cb;" x="183.780762" xlink:href="#mfb128c97e4" y="369.970628"/>
     <use style="fill:#2792cb;stroke:#2792cb;" x="189.17728" xlink:href="#mfb128c97e4" y="363.137662"/>
     <use style="fill:#2792cb;stroke:#2792cb;" x="194.573798" xlink:href="#mfb128c97e4" y="354.506547"/>
     <use style="fill:#2792cb;stroke:#2792cb;" x="199.970317" xlink:href="#mfb128c97e4" y="349.47173"/>
     <use style="fill:#2792cb;stroke:#2792cb;" x="205.366835" xlink:href="#mfb128c97e4" y="350.910249"/>
     <use style="fill:#2792cb;stroke:#2792cb;" x="210.763353" xlink:href="#mfb128c97e4" y="349.1121"/>
     <use style="fill:#2792cb;stroke:#2792cb;" x="216.159872" xlink:href="#mfb128c97e4" y="346.594692"/>
     <use style="fill:#2792cb;stroke:#2792cb;" x="221.55639" xlink:href="#mfb128c97e4" y="347.673581"/>
     <use style="fill:#2792cb;stroke:#2792cb;" x="226.952909" xlink:href="#mfb128c97e4" y="343.358024"/>
     <use style="fill:#2792cb;stroke:#2792cb;" x="232.349427" xlink:href="#mfb128c97e4" y="335.086538"/>
     <use style="fill:#2792cb;stroke:#2792cb;" x="237.745945" xlink:href="#mfb128c97e4" y="328.613202"/>
     <use style="fill:#2792cb;stroke:#2792cb;" x="243.142464" xlink:href="#mfb128c97e4" y="333.648019"/>
     <use style="fill:#2792cb;stroke:#2792cb;" x="248.538982" xlink:href="#mfb128c97e4" y="335.086538"/>
     <use style="fill:#2792cb;stroke:#2792cb;" x="253.9355" xlink:href="#mfb128c97e4" y="335.086538"/>
     <use style="fill:#2792cb;stroke:#2792cb;" x="259.332019" xlink:href="#mfb128c97e4" y="336.884687"/>
     <use style="fill:#2792cb;stroke:#2792cb;" x="264.728537" xlink:href="#mfb128c97e4" y="331.84987"/>
     <use style="fill:#2792cb;stroke:#2792cb;" x="270.125056" xlink:href="#mfb128c97e4" y="337.244317"/>
     <use style="fill:#2792cb;stroke:#2792cb;" x="280.918092" xlink:href="#mfb128c97e4" y="344.436913"/>
     <use style="fill:#2792cb;stroke:#2792cb;" x="291.711129" xlink:href="#mfb128c97e4" y="344.436913"/>
     <use style="fill:#2792cb;stroke:#2792cb;" x="297.107647" xlink:href="#mfb128c97e4" y="359.541364"/>
     <use style="fill:#2792cb;stroke:#2792cb;" x="302.504166" xlink:href="#mfb128c97e4" y="355.585437"/>
     <use style="fill:#2792cb;stroke:#2792cb;" x="307.900684" xlink:href="#mfb128c97e4" y="373.207296"/>
     <use style="fill:#2792cb;stroke:#2792cb;" x="313.297203" xlink:href="#mfb128c97e4" y="380.399892"/>
     <use style="fill:#2792cb;stroke:#2792cb;" x="324.090239" xlink:href="#mfb128c97e4" y="400.179531"/>
     <use style="fill:#2792cb;stroke:#2792cb;" x="329.486758" xlink:href="#mfb128c97e4" y="405.933608"/>
     <use style="fill:#2792cb;stroke:#2792cb;" x="334.883276" xlink:href="#mfb128c97e4" y="403.416199"/>
     <use style="fill:#2792cb;stroke:#2792cb;" x="340.279794" xlink:href="#mfb128c97e4" y="417.801391"/>
     <use style="fill:#2792cb;stroke:#2792cb;" x="345.676313" xlink:href="#mfb128c97e4" y="414.205093"/>
     <use style="fill:#2792cb;stroke:#2792cb;" x="351.072831" xlink:href="#mfb128c97e4" y="418.88028"/>
     <use style="fill:#2792cb;stroke:#2792cb;" x="361.865868" xlink:href="#mfb128c97e4" y="422.476578"/>
     <use style="fill:#2792cb;stroke:#2792cb;" x="367.262386" xlink:href="#mfb128c97e4" y="426.432506"/>
     <use style="fill:#2792cb;stroke:#2792cb;" x="372.658905" xlink:href="#mfb128c97e4" y="430.388433"/>
     <use style="fill:#2792cb;stroke:#2792cb;" x="378.055423" xlink:href="#mfb128c97e4" y="436.14251"/>
     <use style="fill:#2792cb;stroke:#2792cb;" x="388.84846" xlink:href="#mfb128c97e4" y="440.098438"/>
     <use style="fill:#2792cb;stroke:#2792cb;" x="399.641497" xlink:href="#mfb128c97e4" y="440.458068"/>
     <use style="fill:#2792cb;stroke:#2792cb;" x="405.038015" xlink:href="#mfb128c97e4" y="442.256217"/>
     <use style="fill:#2792cb;stroke:#2792cb;" x="410.434533" xlink:href="#mfb128c97e4" y="445.133255"/>
     <use style="fill:#2792cb;stroke:#2792cb;" x="415.831052" xlink:href="#mfb128c97e4" y="446.571774"/>
     <use style="fill:#2792cb;stroke:#2792cb;" x="421.22757" xlink:href="#mfb128c97e4" y="450.168072"/>
     <use style="fill:#2792cb;stroke:#2792cb;" x="426.624088" xlink:href="#mfb128c97e4" y="446.931404"/>
     <use style="fill:#2792cb;stroke:#2792cb;" x="437.417125" xlink:href="#mfb128c97e4" y="443.694736"/>
     <use style="fill:#2792cb;stroke:#2792cb;" x="442.813644" xlink:href="#mfb128c97e4" y="445.852515"/>
     <use style="fill:#2792cb;stroke:#2792cb;" x="448.210162" xlink:href="#mfb128c97e4" y="435.423251"/>
     <use style="fill:#2792cb;stroke:#2792cb;" x="453.60668" xlink:href="#mfb128c97e4" y="432.905842"/>
     <use style="fill:#2792cb;stroke:#2792cb;" x="459.003199" xlink:href="#mfb128c97e4" y="433.984731"/>
     <use style="fill:#2792cb;stroke:#2792cb;" x="464.399717" xlink:href="#mfb128c97e4" y="434.703991"/>
     <use style="fill:#2792cb;stroke:#2792cb;" x="475.192754" xlink:href="#mfb128c97e4" y="430.388433"/>
     <use style="fill:#2792cb;stroke:#2792cb;" x="480.589272" xlink:href="#mfb128c97e4" y="430.748063"/>
     <use style="fill:#2792cb;stroke:#2792cb;" x="485.985791" xlink:href="#mfb128c97e4" y="433.984731"/>
     <use style="fill:#2792cb;stroke:#2792cb;" x="496.778827" xlink:href="#mfb128c97e4" y="432.905842"/>
     <use style="fill:#2792cb;stroke:#2792cb;" x="502.175346" xlink:href="#mfb128c97e4" y="427.871025"/>
     <use style="fill:#2792cb;stroke:#2792cb;" x="512.968382" xlink:href="#mfb128c97e4" y="439.019549"/>
     <use style="fill:#2792cb;stroke:#2792cb;" x="518.364901" xlink:href="#mfb128c97e4" y="441.536957"/>
     <use style="fill:#2792cb;stroke:#2792cb;" x="529.157938" xlink:href="#mfb128c97e4" y="436.86177"/>
     <use style="fill:#2792cb;stroke:#2792cb;" x="534.554456" xlink:href="#mfb128c97e4" y="435.423251"/>
     <use style="fill:#2792cb;stroke:#2792cb;" x="556.140529" xlink:href="#mfb128c97e4" y="436.86177"/>
     <use style="fill:#2792cb;stroke:#2792cb;" x="561.537048" xlink:href="#mfb128c97e4" y="436.86177"/>
     <use style="fill:#2792cb;stroke:#2792cb;" x="566.933566" xlink:href="#mfb128c97e4" y="436.86177"/>
     <use style="fill:#2792cb;stroke:#2792cb;" x="572.330085" xlink:href="#mfb128c97e4" y="445.852515"/>
     <use style="fill:#2792cb;stroke:#2792cb;" x="577.726603" xlink:href="#mfb128c97e4" y="445.852515"/>
     <use style="fill:#2792cb;stroke:#2792cb;" x="588.51964" xlink:href="#mfb128c97e4" y="452.685481"/>
     <use style="fill:#2792cb;stroke:#2792cb;" x="593.916158" xlink:href="#mfb128c97e4" y="463.834004"/>
     <use style="fill:#2792cb;stroke:#2792cb;" x="599.312676" xlink:href="#mfb128c97e4" y="469.588081"/>
     <use style="fill:#2792cb;stroke:#2792cb;" x="610.105713" xlink:href="#mfb128c97e4" y="472.465119"/>
     <use style="fill:#2792cb;stroke:#2792cb;" x="615.502232" xlink:href="#mfb128c97e4" y="473.544009"/>
     <use style="fill:#2792cb;stroke:#2792cb;" x="626.295268" xlink:href="#mfb128c97e4" y="474.622898"/>
     <use style="fill:#2792cb;stroke:#2792cb;" x="637.088305" xlink:href="#mfb128c97e4" y="477.140307"/>
     <use style="fill:#2792cb;stroke:#2792cb;" x="647.881342" xlink:href="#mfb128c97e4" y="477.140307"/>
     <use style="fill:#2792cb;stroke:#2792cb;" x="653.27786" xlink:href="#mfb128c97e4" y="477.140307"/>
     <use style="fill:#2792cb;stroke:#2792cb;" x="664.070897" xlink:href="#mfb128c97e4" y="477.859566"/>
     <use style="fill:#2792cb;stroke:#2792cb;" x="669.467415" xlink:href="#mfb128c97e4" y="477.859566"/>
     <use style="fill:#2792cb;stroke:#2792cb;" x="674.863934" xlink:href="#mfb128c97e4" y="477.859566"/>
     <use style="fill:#2792cb;stroke:#2792cb;" x="680.260452" xlink:href="#mfb128c97e4" y="478.219196"/>
     <use style="fill:#2792cb;stroke:#2792cb;" x="691.053489" xlink:href="#mfb128c97e4" y="477.499936"/>
     <use style="fill:#2792cb;stroke:#2792cb;" x="701.846526" xlink:href="#mfb128c97e4" y="477.499936"/>
     <use style="fill:#2792cb;stroke:#2792cb;" x="707.243044" xlink:href="#mfb128c97e4" y="477.499936"/>
     <use style="fill:#2792cb;stroke:#2792cb;" x="712.639562" xlink:href="#mfb128c97e4" y="477.859566"/>
     <use style="fill:#2792cb;stroke:#2792cb;" x="718.036081" xlink:href="#mfb128c97e4" y="476.780677"/>
     <use style="fill:#2792cb;stroke:#2792cb;" x="723.432599" xlink:href="#mfb128c97e4" y="477.140307"/>
     <use style="fill:#2792cb;stroke:#2792cb;" x="728.829118" xlink:href="#mfb128c97e4" y="477.140307"/>
     <use style="fill:#2792cb;stroke:#2792cb;" x="739.622154" xlink:href="#mfb128c97e4" y="476.780677"/>
     <use style="fill:#2792cb;stroke:#2792cb;" x="745.018673" xlink:href="#mfb128c97e4" y="476.421047"/>
     <use style="fill:#2792cb;stroke:#2792cb;" x="750.415191" xlink:href="#mfb128c97e4" y="476.421047"/>
     <use style="fill:#2792cb;stroke:#2792cb;" x="755.811709" xlink:href="#mfb128c97e4" y="476.421047"/>
     <use style="fill:#2792cb;stroke:#2792cb;" x="761.208228" xlink:href="#mfb128c97e4" y="476.061417"/>
     <use style="fill:#2792cb;stroke:#2792cb;" x="777.397783" xlink:href="#mfb128c97e4" y="475.701787"/>
     <use style="fill:#2792cb;stroke:#2792cb;" x="782.794301" xlink:href="#mfb128c97e4" y="476.061417"/>
     <use style="fill:#2792cb;stroke:#2792cb;" x="788.19082" xlink:href="#mfb128c97e4" y="477.140307"/>
     <use style="fill:#2792cb;stroke:#2792cb;" x="793.587338" xlink:href="#mfb128c97e4" y="476.780677"/>
     <use style="fill:#2792cb;stroke:#2792cb;" x="798.983856" xlink:href="#mfb128c97e4" y="476.421047"/>
     <use style="fill:#2792cb;stroke:#2792cb;" x="815.173412" xlink:href="#mfb128c97e4" y="476.421047"/>
     <use style="fill:#2792cb;stroke:#2792cb;" x="820.56993" xlink:href="#mfb128c97e4" y="472.465119"/>
     <use style="fill:#2792cb;stroke:#2792cb;" x="825.966448" xlink:href="#mfb128c97e4" y="472.824749"/>
     <use style="fill:#2792cb;stroke:#2792cb;" x="831.362967" xlink:href="#mfb128c97e4" y="472.105489"/>
     <use style="fill:#2792cb;stroke:#2792cb;" x="836.759485" xlink:href="#mfb128c97e4" y="472.465119"/>
     <use style="fill:#2792cb;stroke:#2792cb;" x="852.94904" xlink:href="#mfb128c97e4" y="471.0266"/>
     <use style="fill:#2792cb;stroke:#2792cb;" x="858.345559" xlink:href="#mfb128c97e4" y="469.947711"/>
     <use style="fill:#2792cb;stroke:#2792cb;" x="863.742077" xlink:href="#mfb128c97e4" y="469.947711"/>
     <use style="fill:#2792cb;stroke:#2792cb;" x="869.138595" xlink:href="#mfb128c97e4" y="470.30734"/>
     <use style="fill:#2792cb;stroke:#2792cb;" x="874.535114" xlink:href="#mfb128c97e4" y="468.149562"/>
     <use style="fill:#2792cb;stroke:#2792cb;" x="928.500297" xlink:href="#mfb128c97e4" y="469.228451"/>
     <use style="fill:#2792cb;stroke:#2792cb;" x="933.896816" xlink:href="#mfb128c97e4" y="467.789932"/>
     <use style="fill:#2792cb;stroke:#2792cb;" x="944.689853" xlink:href="#mfb128c97e4" y="465.632153"/>
     <use style="fill:#2792cb;stroke:#2792cb;" x="950.086371" xlink:href="#mfb128c97e4" y="463.834004"/>
     <use style="fill:#2792cb;stroke:#2792cb;" x="966.275926" xlink:href="#mfb128c97e4" y="463.834004"/>
     <use style="fill:#2792cb;stroke:#2792cb;" x="971.672444" xlink:href="#mfb128c97e4" y="458.439557"/>
     <use style="fill:#2792cb;stroke:#2792cb;" x="977.068963" xlink:href="#mfb128c97e4" y="457.720298"/>
     <use style="fill:#2792cb;stroke:#2792cb;" x="982.465481" xlink:href="#mfb128c97e4" y="456.641408"/>
     <use style="fill:#2792cb;stroke:#2792cb;" x="987.862" xlink:href="#mfb128c97e4" y="455.562519"/>
     <use style="fill:#2792cb;stroke:#2792cb;" x="1004.051555" xlink:href="#mfb128c97e4" y="457.360668"/>
     <use style="fill:#2792cb;stroke:#2792cb;" x="1009.448073" xlink:href="#mfb128c97e4" y="457.720298"/>
     <use style="fill:#2792cb;stroke:#2792cb;" x="1014.844591" xlink:href="#mfb128c97e4" y="457.720298"/>
     <use style="fill:#2792cb;stroke:#2792cb;" x="1020.24111" xlink:href="#mfb128c97e4" y="459.158817"/>
     <use style="fill:#2792cb;stroke:#2792cb;" x="1025.637628" xlink:href="#mfb128c97e4" y="459.878076"/>
     <use style="fill:#2792cb;stroke:#2792cb;" x="1041.827183" xlink:href="#mfb128c97e4" y="459.878076"/>
     <use style="fill:#2792cb;stroke:#2792cb;" x="1047.223702" xlink:href="#mfb128c97e4" y="465.991783"/>
     <use style="fill:#2792cb;stroke:#2792cb;" x="1052.62022" xlink:href="#mfb128c97e4" y="465.991783"/>
     <use style="fill:#2792cb;stroke:#2792cb;" x="1058.016738" xlink:href="#mfb128c97e4" y="466.711043"/>
     <use style="fill:#2792cb;stroke:#2792cb;" x="1063.413257" xlink:href="#mfb128c97e4" y="469.228451"/>
     <use style="fill:#2792cb;stroke:#2792cb;" x="1079.602812" xlink:href="#mfb128c97e4" y="468.868821"/>
     <use style="fill:#2792cb;stroke:#2792cb;" x="1084.99933" xlink:href="#mfb128c97e4" y="467.789932"/>
     <use style="fill:#2792cb;stroke:#2792cb;" x="1090.395849" xlink:href="#mfb128c97e4" y="467.789932"/>
     <use style="fill:#2792cb;stroke:#2792cb;" x="1095.792367" xlink:href="#mfb128c97e4" y="470.30734"/>
     <use style="fill:#2792cb;stroke:#2792cb;" x="1101.188885" xlink:href="#mfb128c97e4" y="471.0266"/>
     <use style="fill:#2792cb;stroke:#2792cb;" x="1117.378441" xlink:href="#mfb128c97e4" y="471.0266"/>
     <use style="fill:#2792cb;stroke:#2792cb;" x="1122.774959" xlink:href="#mfb128c97e4" y="466.351413"/>
     <use style="fill:#2792cb;stroke:#2792cb;" x="1128.171477" xlink:href="#mfb128c97e4" y="467.789932"/>
    </g>
   </g>
   <g id="patch_3">
    <path d="M 62.89875 501.738984 
L 1178.89875 501.738984 
" style="fill:none;stroke:#000000;stroke-linecap:square;stroke-linejoin:miter;stroke-width:0.8;"/>
   </g>
   <g id="legend_1">
    <g id="line2d_37">
     <path d="M 71.89875 25.237422 
L 91.89875 25.237422 
" style="fill:none;stroke:#dbcd00;stroke-linecap:square;stroke-width:2;"/>
    </g>
    <g id="line2d_38">
     <g>
      <use style="fill:#dbcd00;stroke:#dbcd00;" x="81.89875" xlink:href="#m28acd2630c" y="25.237422"/>
     </g>
    </g>
    <g id="text_22">
     <!-- Genesene -->
     <defs>
      <path d="M 59.515625 10.40625 
L 59.515625 29.984375 
L 43.40625 29.984375 
L 43.40625 38.09375 
L 69.28125 38.09375 
L 69.28125 6.78125 
Q 63.578125 2.734375 56.6875 0.65625 
Q 49.8125 -1.421875 42 -1.421875 
Q 24.90625 -1.421875 15.25 8.5625 
Q 5.609375 18.5625 5.609375 36.375 
Q 5.609375 54.25 15.25 64.234375 
Q 24.90625 74.21875 42 74.21875 
Q 49.125 74.21875 55.546875 72.453125 
Q 61.96875 70.703125 67.390625 67.28125 
L 67.390625 56.78125 
Q 61.921875 61.421875 55.765625 63.765625 
Q 49.609375 66.109375 42.828125 66.109375 
Q 29.4375 66.109375 22.71875 58.640625 
Q 16.015625 51.171875 16.015625 36.375 
Q 16.015625 21.625 22.71875 14.15625 
Q 29.4375 6.6875 42.828125 6.6875 
Q 48.046875 6.6875 52.140625 7.59375 
Q 56.25 8.5 59.515625 10.40625 
z
" id="DejaVuSans-71"/>
      <path d="M 44.28125 53.078125 
L 44.28125 44.578125 
Q 40.484375 46.53125 36.375 47.5 
Q 32.28125 48.484375 27.875 48.484375 
Q 21.1875 48.484375 17.84375 46.4375 
Q 14.5 44.390625 14.5 40.28125 
Q 14.5 37.15625 16.890625 35.375 
Q 19.28125 33.59375 26.515625 31.984375 
L 29.59375 31.296875 
Q 39.15625 29.25 43.1875 25.515625 
Q 47.21875 21.78125 47.21875 15.09375 
Q 47.21875 7.46875 41.1875 3.015625 
Q 35.15625 -1.421875 24.609375 -1.421875 
Q 20.21875 -1.421875 15.453125 -0.5625 
Q 10.6875 0.296875 5.421875 2 
L 5.421875 11.28125 
Q 10.40625 8.6875 15.234375 7.390625 
Q 20.0625 6.109375 24.8125 6.109375 
Q 31.15625 6.109375 34.5625 8.28125 
Q 37.984375 10.453125 37.984375 14.40625 
Q 37.984375 18.0625 35.515625 20.015625 
Q 33.0625 21.96875 24.703125 23.78125 
L 21.578125 24.515625 
Q 13.234375 26.265625 9.515625 29.90625 
Q 5.8125 33.546875 5.8125 39.890625 
Q 5.8125 47.609375 11.28125 51.796875 
Q 16.75 56 26.8125 56 
Q 31.78125 56 36.171875 55.265625 
Q 40.578125 54.546875 44.28125 53.078125 
z
" id="DejaVuSans-115"/>
     </defs>
     <g transform="translate(99.89875 28.737422)scale(0.1 -0.1)">
      <use xlink:href="#DejaVuSans-71"/>
      <use x="77.490234" xlink:href="#DejaVuSans-101"/>
      <use x="139.013672" xlink:href="#DejaVuSans-110"/>
      <use x="202.392578" xlink:href="#DejaVuSans-101"/>
      <use x="263.916016" xlink:href="#DejaVuSans-115"/>
      <use x="316.015625" xlink:href="#DejaVuSans-101"/>
      <use x="377.539062" xlink:href="#DejaVuSans-110"/>
      <use x="440.917969" xlink:href="#DejaVuSans-101"/>
     </g>
    </g>
    <g id="line2d_39">
     <path d="M 71.89875 39.915547 
L 91.89875 39.915547 
" style="fill:none;stroke:#2792cb;stroke-linecap:square;stroke-width:2;"/>
    </g>
    <g id="line2d_40">
     <g>
      <use style="fill:#2792cb;stroke:#2792cb;" x="81.89875" xlink:href="#mfb128c97e4" y="39.915547"/>
     </g>
    </g>
    <g id="text_23">
     <!-- Erkrankte -->
     <defs>
      <path d="M 9.8125 72.90625 
L 55.90625 72.90625 
L 55.90625 64.59375 
L 19.671875 64.59375 
L 19.671875 43.015625 
L 54.390625 43.015625 
L 54.390625 34.71875 
L 19.671875 34.71875 
L 19.671875 8.296875 
L 56.78125 8.296875 
L 56.78125 0 
L 9.8125 0 
z
" id="DejaVuSans-69"/>
      <path d="M 41.109375 46.296875 
Q 39.59375 47.171875 37.8125 47.578125 
Q 36.03125 48 33.890625 48 
Q 26.265625 48 22.1875 43.046875 
Q 18.109375 38.09375 18.109375 28.8125 
L 18.109375 0 
L 9.078125 0 
L 9.078125 54.6875 
L 18.109375 54.6875 
L 18.109375 46.1875 
Q 20.953125 51.171875 25.484375 53.578125 
Q 30.03125 56 36.53125 56 
Q 37.453125 56 38.578125 55.875 
Q 39.703125 55.765625 41.0625 55.515625 
z
" id="DejaVuSans-114"/>
      <path d="M 9.078125 75.984375 
L 18.109375 75.984375 
L 18.109375 31.109375 
L 44.921875 54.6875 
L 56.390625 54.6875 
L 27.390625 29.109375 
L 57.625 0 
L 45.90625 0 
L 18.109375 26.703125 
L 18.109375 0 
L 9.078125 0 
z
" id="DejaVuSans-107"/>
      <path d="M 18.3125 70.21875 
L 18.3125 54.6875 
L 36.8125 54.6875 
L 36.8125 47.703125 
L 18.3125 47.703125 
L 18.3125 18.015625 
Q 18.3125 11.328125 20.140625 9.421875 
Q 21.96875 7.515625 27.59375 7.515625 
L 36.8125 7.515625 
L 36.8125 0 
L 27.59375 0 
Q 17.1875 0 13.234375 3.875 
Q 9.28125 7.765625 9.28125 18.015625 
L 9.28125 47.703125 
L 2.6875 47.703125 
L 2.6875 54.6875 
L 9.28125 54.6875 
L 9.28125 70.21875 
z
" id="DejaVuSans-116"/>
     </defs>
     <g transform="translate(99.89875 43.415547)scale(0.1 -0.1)">
      <use xlink:href="#DejaVuSans-69"/>
      <use x="63.183594" xlink:href="#DejaVuSans-114"/>
      <use x="104.296875" xlink:href="#DejaVuSans-107"/>
      <use x="162.207031" xlink:href="#DejaVuSans-114"/>
      <use x="203.320312" xlink:href="#DejaVuSans-97"/>
      <use x="264.599609" xlink:href="#DejaVuSans-110"/>
      <use x="327.978516" xlink:href="#DejaVuSans-107"/>
      <use x="385.888672" xlink:href="#DejaVuSans-116"/>
      <use x="425.097656" xlink:href="#DejaVuSans-101"/>
     </g>
    </g>
   </g>
  </g>
 </g>
 <defs>
  <clipPath id="p0e0e16f684">
   <rect height="489.6" width="1116" x="62.89875" y="12.138984"/>
  </clipPath>
 </defs>
</svg>
