<?xml version="1.0" encoding="utf-8" standalone="no"?>
<!DOCTYPE svg PUBLIC "-//W3C//DTD SVG 1.1//EN"
  "http://www.w3.org/Graphics/SVG/1.1/DTD/svg11.dtd">
<!-- Created with matplotlib (https://matplotlib.org/) -->
<svg height="553.993765pt" version="1.1" viewBox="0 0 1177.8275 553.993765" width="1177.8275pt" xmlns="http://www.w3.org/2000/svg" xmlns:xlink="http://www.w3.org/1999/xlink">
 <defs>
  <style type="text/css">
*{stroke-linecap:butt;stroke-linejoin:round;}
  </style>
 </defs>
 <g id="figure_1">
  <g id="patch_1">
   <path d="M 0 553.993765 
L 1177.8275 553.993765 
L 1177.8275 0 
L 0 0 
z
" style="fill:#ffffff;"/>
  </g>
  <g id="axes_1">
   <g id="patch_2">
    <path d="M 54.6275 501.738984 
L 1170.6275 501.738984 
L 1170.6275 12.138984 
L 54.6275 12.138984 
z
" style="fill:#ffffff;"/>
   </g>
   <g id="matplotlib.axis_1">
    <g id="xtick_1">
     <g id="line2d_1">
      <defs>
       <path d="M 0 0 
L 0 3.5 
" id="m61de28af4a" style="stroke:#000000;stroke-width:0.8;"/>
      </defs>
      <g>
       <use style="stroke:#000000;stroke-width:0.8;" x="152.665183" xlink:href="#m61de28af4a" y="501.738984"/>
      </g>
     </g>
     <g id="text_1">
      <!-- 2020-04 -->
      <defs>
       <path d="M 19.1875 8.296875 
L 53.609375 8.296875 
L 53.609375 0 
L 7.328125 0 
L 7.328125 8.296875 
Q 12.9375 14.109375 22.625 23.890625 
Q 32.328125 33.6875 34.8125 36.53125 
Q 39.546875 41.84375 41.421875 45.53125 
Q 43.3125 49.21875 43.3125 52.78125 
Q 43.3125 58.59375 39.234375 62.25 
Q 35.15625 65.921875 28.609375 65.921875 
Q 23.96875 65.921875 18.8125 64.3125 
Q 13.671875 62.703125 7.8125 59.421875 
L 7.8125 69.390625 
Q 13.765625 71.78125 18.9375 73 
Q 24.125 74.21875 28.421875 74.21875 
Q 39.75 74.21875 46.484375 68.546875 
Q 53.21875 62.890625 53.21875 53.421875 
Q 53.21875 48.921875 51.53125 44.890625 
Q 49.859375 40.875 45.40625 35.40625 
Q 44.1875 33.984375 37.640625 27.21875 
Q 31.109375 20.453125 19.1875 8.296875 
z
" id="DejaVuSans-50"/>
       <path d="M 31.78125 66.40625 
Q 24.171875 66.40625 20.328125 58.90625 
Q 16.5 51.421875 16.5 36.375 
Q 16.5 21.390625 20.328125 13.890625 
Q 24.171875 6.390625 31.78125 6.390625 
Q 39.453125 6.390625 43.28125 13.890625 
Q 47.125 21.390625 47.125 36.375 
Q 47.125 51.421875 43.28125 58.90625 
Q 39.453125 66.40625 31.78125 66.40625 
z
M 31.78125 74.21875 
Q 44.046875 74.21875 50.515625 64.515625 
Q 56.984375 54.828125 56.984375 36.375 
Q 56.984375 17.96875 50.515625 8.265625 
Q 44.046875 -1.421875 31.78125 -1.421875 
Q 19.53125 -1.421875 13.0625 8.265625 
Q 6.59375 17.96875 6.59375 36.375 
Q 6.59375 54.828125 13.0625 64.515625 
Q 19.53125 74.21875 31.78125 74.21875 
z
" id="DejaVuSans-48"/>
       <path d="M 4.890625 31.390625 
L 31.203125 31.390625 
L 31.203125 23.390625 
L 4.890625 23.390625 
z
" id="DejaVuSans-45"/>
       <path d="M 37.796875 64.3125 
L 12.890625 25.390625 
L 37.796875 25.390625 
z
M 35.203125 72.90625 
L 47.609375 72.90625 
L 47.609375 25.390625 
L 58.015625 25.390625 
L 58.015625 17.1875 
L 47.609375 17.1875 
L 47.609375 0 
L 37.796875 0 
L 37.796875 17.1875 
L 4.890625 17.1875 
L 4.890625 26.703125 
z
" id="DejaVuSans-52"/>
      </defs>
      <g transform="translate(104.272915 544.452384)rotate(-30)scale(0.13 -0.13)">
       <use xlink:href="#DejaVuSans-50"/>
       <use x="63.623047" xlink:href="#DejaVuSans-48"/>
       <use x="127.246094" xlink:href="#DejaVuSans-50"/>
       <use x="190.869141" xlink:href="#DejaVuSans-48"/>
       <use x="254.492188" xlink:href="#DejaVuSans-45"/>
       <use x="290.576172" xlink:href="#DejaVuSans-48"/>
       <use x="354.199219" xlink:href="#DejaVuSans-52"/>
      </g>
     </g>
    </g>
    <g id="xtick_2">
     <g id="line2d_2">
      <g>
       <use style="stroke:#000000;stroke-width:0.8;" x="310.366549" xlink:href="#m61de28af4a" y="501.738984"/>
      </g>
     </g>
     <g id="text_2">
      <!-- 2020-05 -->
      <defs>
       <path d="M 10.796875 72.90625 
L 49.515625 72.90625 
L 49.515625 64.59375 
L 19.828125 64.59375 
L 19.828125 46.734375 
Q 21.96875 47.46875 24.109375 47.828125 
Q 26.265625 48.1875 28.421875 48.1875 
Q 40.625 48.1875 47.75 41.5 
Q 54.890625 34.8125 54.890625 23.390625 
Q 54.890625 11.625 47.5625 5.09375 
Q 40.234375 -1.421875 26.90625 -1.421875 
Q 22.3125 -1.421875 17.546875 -0.640625 
Q 12.796875 0.140625 7.71875 1.703125 
L 7.71875 11.625 
Q 12.109375 9.234375 16.796875 8.0625 
Q 21.484375 6.890625 26.703125 6.890625 
Q 35.15625 6.890625 40.078125 11.328125 
Q 45.015625 15.765625 45.015625 23.390625 
Q 45.015625 31 40.078125 35.4375 
Q 35.15625 39.890625 26.703125 39.890625 
Q 22.75 39.890625 18.8125 39.015625 
Q 14.890625 38.140625 10.796875 36.28125 
z
" id="DejaVuSans-53"/>
      </defs>
      <g transform="translate(261.974281 544.452384)rotate(-30)scale(0.13 -0.13)">
       <use xlink:href="#DejaVuSans-50"/>
       <use x="63.623047" xlink:href="#DejaVuSans-48"/>
       <use x="127.246094" xlink:href="#DejaVuSans-50"/>
       <use x="190.869141" xlink:href="#DejaVuSans-48"/>
       <use x="254.492188" xlink:href="#DejaVuSans-45"/>
       <use x="290.576172" xlink:href="#DejaVuSans-48"/>
       <use x="354.199219" xlink:href="#DejaVuSans-53"/>
      </g>
     </g>
    </g>
    <g id="xtick_3">
     <g id="line2d_3">
      <g>
       <use style="stroke:#000000;stroke-width:0.8;" x="473.324627" xlink:href="#m61de28af4a" y="501.738984"/>
      </g>
     </g>
     <g id="text_3">
      <!-- 2020-06 -->
      <defs>
       <path d="M 33.015625 40.375 
Q 26.375 40.375 22.484375 35.828125 
Q 18.609375 31.296875 18.609375 23.390625 
Q 18.609375 15.53125 22.484375 10.953125 
Q 26.375 6.390625 33.015625 6.390625 
Q 39.65625 6.390625 43.53125 10.953125 
Q 47.40625 15.53125 47.40625 23.390625 
Q 47.40625 31.296875 43.53125 35.828125 
Q 39.65625 40.375 33.015625 40.375 
z
M 52.59375 71.296875 
L 52.59375 62.3125 
Q 48.875 64.0625 45.09375 64.984375 
Q 41.3125 65.921875 37.59375 65.921875 
Q 27.828125 65.921875 22.671875 59.328125 
Q 17.53125 52.734375 16.796875 39.40625 
Q 19.671875 43.65625 24.015625 45.921875 
Q 28.375 48.1875 33.59375 48.1875 
Q 44.578125 48.1875 50.953125 41.515625 
Q 57.328125 34.859375 57.328125 23.390625 
Q 57.328125 12.15625 50.6875 5.359375 
Q 44.046875 -1.421875 33.015625 -1.421875 
Q 20.359375 -1.421875 13.671875 8.265625 
Q 6.984375 17.96875 6.984375 36.375 
Q 6.984375 53.65625 15.1875 63.9375 
Q 23.390625 74.21875 37.203125 74.21875 
Q 40.921875 74.21875 44.703125 73.484375 
Q 48.484375 72.75 52.59375 71.296875 
z
" id="DejaVuSans-54"/>
      </defs>
      <g transform="translate(424.93236 544.452384)rotate(-30)scale(0.13 -0.13)">
       <use xlink:href="#DejaVuSans-50"/>
       <use x="63.623047" xlink:href="#DejaVuSans-48"/>
       <use x="127.246094" xlink:href="#DejaVuSans-50"/>
       <use x="190.869141" xlink:href="#DejaVuSans-48"/>
       <use x="254.492188" xlink:href="#DejaVuSans-45"/>
       <use x="290.576172" xlink:href="#DejaVuSans-48"/>
       <use x="354.199219" xlink:href="#DejaVuSans-54"/>
      </g>
     </g>
    </g>
    <g id="xtick_4">
     <g id="line2d_4">
      <g>
       <use style="stroke:#000000;stroke-width:0.8;" x="631.025993" xlink:href="#m61de28af4a" y="501.738984"/>
      </g>
     </g>
     <g id="text_4">
      <!-- 2020-07 -->
      <defs>
       <path d="M 8.203125 72.90625 
L 55.078125 72.90625 
L 55.078125 68.703125 
L 28.609375 0 
L 18.3125 0 
L 43.21875 64.59375 
L 8.203125 64.59375 
z
" id="DejaVuSans-55"/>
      </defs>
      <g transform="translate(582.633726 544.452384)rotate(-30)scale(0.13 -0.13)">
       <use xlink:href="#DejaVuSans-50"/>
       <use x="63.623047" xlink:href="#DejaVuSans-48"/>
       <use x="127.246094" xlink:href="#DejaVuSans-50"/>
       <use x="190.869141" xlink:href="#DejaVuSans-48"/>
       <use x="254.492188" xlink:href="#DejaVuSans-45"/>
       <use x="290.576172" xlink:href="#DejaVuSans-48"/>
       <use x="354.199219" xlink:href="#DejaVuSans-55"/>
      </g>
     </g>
    </g>
    <g id="xtick_5">
     <g id="line2d_5">
      <g>
       <use style="stroke:#000000;stroke-width:0.8;" x="793.984071" xlink:href="#m61de28af4a" y="501.738984"/>
      </g>
     </g>
     <g id="text_5">
      <!-- 2020-08 -->
      <defs>
       <path d="M 31.78125 34.625 
Q 24.75 34.625 20.71875 30.859375 
Q 16.703125 27.09375 16.703125 20.515625 
Q 16.703125 13.921875 20.71875 10.15625 
Q 24.75 6.390625 31.78125 6.390625 
Q 38.8125 6.390625 42.859375 10.171875 
Q 46.921875 13.96875 46.921875 20.515625 
Q 46.921875 27.09375 42.890625 30.859375 
Q 38.875 34.625 31.78125 34.625 
z
M 21.921875 38.8125 
Q 15.578125 40.375 12.03125 44.71875 
Q 8.5 49.078125 8.5 55.328125 
Q 8.5 64.0625 14.71875 69.140625 
Q 20.953125 74.21875 31.78125 74.21875 
Q 42.671875 74.21875 48.875 69.140625 
Q 55.078125 64.0625 55.078125 55.328125 
Q 55.078125 49.078125 51.53125 44.71875 
Q 48 40.375 41.703125 38.8125 
Q 48.828125 37.15625 52.796875 32.3125 
Q 56.78125 27.484375 56.78125 20.515625 
Q 56.78125 9.90625 50.3125 4.234375 
Q 43.84375 -1.421875 31.78125 -1.421875 
Q 19.734375 -1.421875 13.25 4.234375 
Q 6.78125 9.90625 6.78125 20.515625 
Q 6.78125 27.484375 10.78125 32.3125 
Q 14.796875 37.15625 21.921875 38.8125 
z
M 18.3125 54.390625 
Q 18.3125 48.734375 21.84375 45.5625 
Q 25.390625 42.390625 31.78125 42.390625 
Q 38.140625 42.390625 41.71875 45.5625 
Q 45.3125 48.734375 45.3125 54.390625 
Q 45.3125 60.0625 41.71875 63.234375 
Q 38.140625 66.40625 31.78125 66.40625 
Q 25.390625 66.40625 21.84375 63.234375 
Q 18.3125 60.0625 18.3125 54.390625 
z
" id="DejaVuSans-56"/>
      </defs>
      <g transform="translate(745.591804 544.452384)rotate(-30)scale(0.13 -0.13)">
       <use xlink:href="#DejaVuSans-50"/>
       <use x="63.623047" xlink:href="#DejaVuSans-48"/>
       <use x="127.246094" xlink:href="#DejaVuSans-50"/>
       <use x="190.869141" xlink:href="#DejaVuSans-48"/>
       <use x="254.492188" xlink:href="#DejaVuSans-45"/>
       <use x="290.576172" xlink:href="#DejaVuSans-48"/>
       <use x="354.199219" xlink:href="#DejaVuSans-56"/>
      </g>
     </g>
    </g>
    <g id="xtick_6">
     <g id="line2d_6">
      <g>
       <use style="stroke:#000000;stroke-width:0.8;" x="956.942149" xlink:href="#m61de28af4a" y="501.738984"/>
      </g>
     </g>
     <g id="text_6">
      <!-- 2020-09 -->
      <defs>
       <path d="M 10.984375 1.515625 
L 10.984375 10.5 
Q 14.703125 8.734375 18.5 7.8125 
Q 22.3125 6.890625 25.984375 6.890625 
Q 35.75 6.890625 40.890625 13.453125 
Q 46.046875 20.015625 46.78125 33.40625 
Q 43.953125 29.203125 39.59375 26.953125 
Q 35.25 24.703125 29.984375 24.703125 
Q 19.046875 24.703125 12.671875 31.3125 
Q 6.296875 37.9375 6.296875 49.421875 
Q 6.296875 60.640625 12.9375 67.421875 
Q 19.578125 74.21875 30.609375 74.21875 
Q 43.265625 74.21875 49.921875 64.515625 
Q 56.59375 54.828125 56.59375 36.375 
Q 56.59375 19.140625 48.40625 8.859375 
Q 40.234375 -1.421875 26.421875 -1.421875 
Q 22.703125 -1.421875 18.890625 -0.6875 
Q 15.09375 0.046875 10.984375 1.515625 
z
M 30.609375 32.421875 
Q 37.25 32.421875 41.125 36.953125 
Q 45.015625 41.5 45.015625 49.421875 
Q 45.015625 57.28125 41.125 61.84375 
Q 37.25 66.40625 30.609375 66.40625 
Q 23.96875 66.40625 20.09375 61.84375 
Q 16.21875 57.28125 16.21875 49.421875 
Q 16.21875 41.5 20.09375 36.953125 
Q 23.96875 32.421875 30.609375 32.421875 
z
" id="DejaVuSans-57"/>
      </defs>
      <g transform="translate(908.549882 544.452384)rotate(-30)scale(0.13 -0.13)">
       <use xlink:href="#DejaVuSans-50"/>
       <use x="63.623047" xlink:href="#DejaVuSans-48"/>
       <use x="127.246094" xlink:href="#DejaVuSans-50"/>
       <use x="190.869141" xlink:href="#DejaVuSans-48"/>
       <use x="254.492188" xlink:href="#DejaVuSans-45"/>
       <use x="290.576172" xlink:href="#DejaVuSans-48"/>
       <use x="354.199219" xlink:href="#DejaVuSans-57"/>
      </g>
     </g>
    </g>
    <g id="xtick_7">
     <g id="line2d_7">
      <g>
       <use style="stroke:#000000;stroke-width:0.8;" x="1114.643515" xlink:href="#m61de28af4a" y="501.738984"/>
      </g>
     </g>
     <g id="text_7">
      <!-- 2020-10 -->
      <defs>
       <path d="M 12.40625 8.296875 
L 28.515625 8.296875 
L 28.515625 63.921875 
L 10.984375 60.40625 
L 10.984375 69.390625 
L 28.421875 72.90625 
L 38.28125 72.90625 
L 38.28125 8.296875 
L 54.390625 8.296875 
L 54.390625 0 
L 12.40625 0 
z
" id="DejaVuSans-49"/>
      </defs>
      <g transform="translate(1066.251248 544.452384)rotate(-30)scale(0.13 -0.13)">
       <use xlink:href="#DejaVuSans-50"/>
       <use x="63.623047" xlink:href="#DejaVuSans-48"/>
       <use x="127.246094" xlink:href="#DejaVuSans-50"/>
       <use x="190.869141" xlink:href="#DejaVuSans-48"/>
       <use x="254.492188" xlink:href="#DejaVuSans-45"/>
       <use x="290.576172" xlink:href="#DejaVuSans-49"/>
       <use x="354.199219" xlink:href="#DejaVuSans-48"/>
      </g>
     </g>
    </g>
   </g>
   <g id="matplotlib.axis_2">
    <g id="ytick_1">
     <g id="line2d_8">
      <path clip-path="url(#p8098b0910d)" d="M 54.6275 480.319716 
L 1170.6275 480.319716 
" style="fill:none;stroke:#b0b0b0;stroke-linecap:square;stroke-width:0.8;"/>
     </g>
     <g id="line2d_9">
      <defs>
       <path d="M 0 0 
L -3.5 0 
" id="m04b1ab8315" style="stroke:#000000;stroke-width:0.8;"/>
      </defs>
      <g>
       <use style="stroke:#000000;stroke-width:0.8;" x="54.6275" xlink:href="#m04b1ab8315" y="480.319716"/>
      </g>
     </g>
     <g id="text_8">
      <!-- 0 -->
      <g transform="translate(39.35625 485.2587)scale(0.13 -0.13)">
       <use xlink:href="#DejaVuSans-48"/>
      </g>
     </g>
    </g>
    <g id="ytick_2">
     <g id="line2d_10">
      <path clip-path="url(#p8098b0910d)" d="M 54.6275 363.274533 
L 1170.6275 363.274533 
" style="fill:none;stroke:#b0b0b0;stroke-linecap:square;stroke-width:0.8;"/>
     </g>
     <g id="line2d_11">
      <g>
       <use style="stroke:#000000;stroke-width:0.8;" x="54.6275" xlink:href="#m04b1ab8315" y="363.274533"/>
      </g>
     </g>
     <g id="text_9">
      <!-- 100 -->
      <g transform="translate(22.81375 368.213517)scale(0.13 -0.13)">
       <use xlink:href="#DejaVuSans-49"/>
       <use x="63.623047" xlink:href="#DejaVuSans-48"/>
       <use x="127.246094" xlink:href="#DejaVuSans-48"/>
      </g>
     </g>
    </g>
    <g id="ytick_3">
     <g id="line2d_12">
      <path clip-path="url(#p8098b0910d)" d="M 54.6275 246.22935 
L 1170.6275 246.22935 
" style="fill:none;stroke:#b0b0b0;stroke-linecap:square;stroke-width:0.8;"/>
     </g>
     <g id="line2d_13">
      <g>
       <use style="stroke:#000000;stroke-width:0.8;" x="54.6275" xlink:href="#m04b1ab8315" y="246.22935"/>
      </g>
     </g>
     <g id="text_10">
      <!-- 200 -->
      <g transform="translate(22.81375 251.168335)scale(0.13 -0.13)">
       <use xlink:href="#DejaVuSans-50"/>
       <use x="63.623047" xlink:href="#DejaVuSans-48"/>
       <use x="127.246094" xlink:href="#DejaVuSans-48"/>
      </g>
     </g>
    </g>
    <g id="ytick_4">
     <g id="line2d_14">
      <path clip-path="url(#p8098b0910d)" d="M 54.6275 129.184167 
L 1170.6275 129.184167 
" style="fill:none;stroke:#b0b0b0;stroke-linecap:square;stroke-width:0.8;"/>
     </g>
     <g id="line2d_15">
      <g>
       <use style="stroke:#000000;stroke-width:0.8;" x="54.6275" xlink:href="#m04b1ab8315" y="129.184167"/>
      </g>
     </g>
     <g id="text_11">
      <!-- 300 -->
      <defs>
       <path d="M 40.578125 39.3125 
Q 47.65625 37.796875 51.625 33 
Q 55.609375 28.21875 55.609375 21.1875 
Q 55.609375 10.40625 48.1875 4.484375 
Q 40.765625 -1.421875 27.09375 -1.421875 
Q 22.515625 -1.421875 17.65625 -0.515625 
Q 12.796875 0.390625 7.625 2.203125 
L 7.625 11.71875 
Q 11.71875 9.328125 16.59375 8.109375 
Q 21.484375 6.890625 26.8125 6.890625 
Q 36.078125 6.890625 40.9375 10.546875 
Q 45.796875 14.203125 45.796875 21.1875 
Q 45.796875 27.640625 41.28125 31.265625 
Q 36.765625 34.90625 28.71875 34.90625 
L 20.21875 34.90625 
L 20.21875 43.015625 
L 29.109375 43.015625 
Q 36.375 43.015625 40.234375 45.921875 
Q 44.09375 48.828125 44.09375 54.296875 
Q 44.09375 59.90625 40.109375 62.90625 
Q 36.140625 65.921875 28.71875 65.921875 
Q 24.65625 65.921875 20.015625 65.03125 
Q 15.375 64.15625 9.8125 62.3125 
L 9.8125 71.09375 
Q 15.4375 72.65625 20.34375 73.4375 
Q 25.25 74.21875 29.59375 74.21875 
Q 40.828125 74.21875 47.359375 69.109375 
Q 53.90625 64.015625 53.90625 55.328125 
Q 53.90625 49.265625 50.4375 45.09375 
Q 46.96875 40.921875 40.578125 39.3125 
z
" id="DejaVuSans-51"/>
      </defs>
      <g transform="translate(22.81375 134.123152)scale(0.13 -0.13)">
       <use xlink:href="#DejaVuSans-51"/>
       <use x="63.623047" xlink:href="#DejaVuSans-48"/>
       <use x="127.246094" xlink:href="#DejaVuSans-48"/>
      </g>
     </g>
    </g>
    <g id="ytick_5">
     <g id="line2d_16">
      <path clip-path="url(#p8098b0910d)" d="M 54.6275 12.138984 
L 1170.6275 12.138984 
" style="fill:none;stroke:#b0b0b0;stroke-linecap:square;stroke-width:0.8;"/>
     </g>
     <g id="line2d_17">
      <g>
       <use style="stroke:#000000;stroke-width:0.8;" x="54.6275" xlink:href="#m04b1ab8315" y="12.138984"/>
      </g>
     </g>
     <g id="text_12">
      <!-- 400 -->
      <g transform="translate(22.81375 17.077969)scale(0.13 -0.13)">
       <use xlink:href="#DejaVuSans-52"/>
       <use x="63.623047" xlink:href="#DejaVuSans-48"/>
       <use x="127.246094" xlink:href="#DejaVuSans-48"/>
      </g>
     </g>
    </g>
    <g id="text_13">
     <!-- Anzahl von Fällen -->
     <defs>
      <path d="M 34.1875 63.1875 
L 20.796875 26.90625 
L 47.609375 26.90625 
z
M 28.609375 72.90625 
L 39.796875 72.90625 
L 67.578125 0 
L 57.328125 0 
L 50.6875 18.703125 
L 17.828125 18.703125 
L 11.1875 0 
L 0.78125 0 
z
" id="DejaVuSans-65"/>
      <path d="M 54.890625 33.015625 
L 54.890625 0 
L 45.90625 0 
L 45.90625 32.71875 
Q 45.90625 40.484375 42.875 44.328125 
Q 39.84375 48.1875 33.796875 48.1875 
Q 26.515625 48.1875 22.3125 43.546875 
Q 18.109375 38.921875 18.109375 30.90625 
L 18.109375 0 
L 9.078125 0 
L 9.078125 54.6875 
L 18.109375 54.6875 
L 18.109375 46.1875 
Q 21.34375 51.125 25.703125 53.5625 
Q 30.078125 56 35.796875 56 
Q 45.21875 56 50.046875 50.171875 
Q 54.890625 44.34375 54.890625 33.015625 
z
" id="DejaVuSans-110"/>
      <path d="M 5.515625 54.6875 
L 48.1875 54.6875 
L 48.1875 46.484375 
L 14.40625 7.171875 
L 48.1875 7.171875 
L 48.1875 0 
L 4.296875 0 
L 4.296875 8.203125 
L 38.09375 47.515625 
L 5.515625 47.515625 
z
" id="DejaVuSans-122"/>
      <path d="M 34.28125 27.484375 
Q 23.390625 27.484375 19.1875 25 
Q 14.984375 22.515625 14.984375 16.5 
Q 14.984375 11.71875 18.140625 8.90625 
Q 21.296875 6.109375 26.703125 6.109375 
Q 34.1875 6.109375 38.703125 11.40625 
Q 43.21875 16.703125 43.21875 25.484375 
L 43.21875 27.484375 
z
M 52.203125 31.203125 
L 52.203125 0 
L 43.21875 0 
L 43.21875 8.296875 
Q 40.140625 3.328125 35.546875 0.953125 
Q 30.953125 -1.421875 24.3125 -1.421875 
Q 15.921875 -1.421875 10.953125 3.296875 
Q 6 8.015625 6 15.921875 
Q 6 25.140625 12.171875 29.828125 
Q 18.359375 34.515625 30.609375 34.515625 
L 43.21875 34.515625 
L 43.21875 35.40625 
Q 43.21875 41.609375 39.140625 45 
Q 35.0625 48.390625 27.6875 48.390625 
Q 23 48.390625 18.546875 47.265625 
Q 14.109375 46.140625 10.015625 43.890625 
L 10.015625 52.203125 
Q 14.9375 54.109375 19.578125 55.046875 
Q 24.21875 56 28.609375 56 
Q 40.484375 56 46.34375 49.84375 
Q 52.203125 43.703125 52.203125 31.203125 
z
" id="DejaVuSans-97"/>
      <path d="M 54.890625 33.015625 
L 54.890625 0 
L 45.90625 0 
L 45.90625 32.71875 
Q 45.90625 40.484375 42.875 44.328125 
Q 39.84375 48.1875 33.796875 48.1875 
Q 26.515625 48.1875 22.3125 43.546875 
Q 18.109375 38.921875 18.109375 30.90625 
L 18.109375 0 
L 9.078125 0 
L 9.078125 75.984375 
L 18.109375 75.984375 
L 18.109375 46.1875 
Q 21.34375 51.125 25.703125 53.5625 
Q 30.078125 56 35.796875 56 
Q 45.21875 56 50.046875 50.171875 
Q 54.890625 44.34375 54.890625 33.015625 
z
" id="DejaVuSans-104"/>
      <path d="M 9.421875 75.984375 
L 18.40625 75.984375 
L 18.40625 0 
L 9.421875 0 
z
" id="DejaVuSans-108"/>
      <path id="DejaVuSans-32"/>
      <path d="M 2.984375 54.6875 
L 12.5 54.6875 
L 29.59375 8.796875 
L 46.6875 54.6875 
L 56.203125 54.6875 
L 35.6875 0 
L 23.484375 0 
z
" id="DejaVuSans-118"/>
      <path d="M 30.609375 48.390625 
Q 23.390625 48.390625 19.1875 42.75 
Q 14.984375 37.109375 14.984375 27.296875 
Q 14.984375 17.484375 19.15625 11.84375 
Q 23.34375 6.203125 30.609375 6.203125 
Q 37.796875 6.203125 41.984375 11.859375 
Q 46.1875 17.53125 46.1875 27.296875 
Q 46.1875 37.015625 41.984375 42.703125 
Q 37.796875 48.390625 30.609375 48.390625 
z
M 30.609375 56 
Q 42.328125 56 49.015625 48.375 
Q 55.71875 40.765625 55.71875 27.296875 
Q 55.71875 13.875 49.015625 6.21875 
Q 42.328125 -1.421875 30.609375 -1.421875 
Q 18.84375 -1.421875 12.171875 6.21875 
Q 5.515625 13.875 5.515625 27.296875 
Q 5.515625 40.765625 12.171875 48.375 
Q 18.84375 56 30.609375 56 
z
" id="DejaVuSans-111"/>
      <path d="M 9.8125 72.90625 
L 51.703125 72.90625 
L 51.703125 64.59375 
L 19.671875 64.59375 
L 19.671875 43.109375 
L 48.578125 43.109375 
L 48.578125 34.8125 
L 19.671875 34.8125 
L 19.671875 0 
L 9.8125 0 
z
" id="DejaVuSans-70"/>
      <path d="M 34.28125 27.484375 
Q 23.390625 27.484375 19.1875 25 
Q 14.984375 22.515625 14.984375 16.5 
Q 14.984375 11.71875 18.140625 8.90625 
Q 21.296875 6.109375 26.703125 6.109375 
Q 34.1875 6.109375 38.703125 11.40625 
Q 43.21875 16.703125 43.21875 25.484375 
L 43.21875 27.484375 
z
M 52.203125 31.203125 
L 52.203125 0 
L 43.21875 0 
L 43.21875 8.296875 
Q 40.140625 3.328125 35.546875 0.953125 
Q 30.953125 -1.421875 24.3125 -1.421875 
Q 15.921875 -1.421875 10.953125 3.296875 
Q 6 8.015625 6 15.921875 
Q 6 25.140625 12.171875 29.828125 
Q 18.359375 34.515625 30.609375 34.515625 
L 43.21875 34.515625 
L 43.21875 35.40625 
Q 43.21875 41.609375 39.140625 45 
Q 35.0625 48.390625 27.6875 48.390625 
Q 23 48.390625 18.546875 47.265625 
Q 14.109375 46.140625 10.015625 43.890625 
L 10.015625 52.203125 
Q 14.9375 54.109375 19.578125 55.046875 
Q 24.21875 56 28.609375 56 
Q 40.484375 56 46.34375 49.84375 
Q 52.203125 43.703125 52.203125 31.203125 
z
M 33.59375 75.78125 
L 43.5 75.78125 
L 43.5 65.921875 
L 33.59375 65.921875 
z
M 14.5 75.78125 
L 24.40625 75.78125 
L 24.40625 65.921875 
L 14.5 65.921875 
z
" id="DejaVuSans-228"/>
      <path d="M 56.203125 29.59375 
L 56.203125 25.203125 
L 14.890625 25.203125 
Q 15.484375 15.921875 20.484375 11.0625 
Q 25.484375 6.203125 34.421875 6.203125 
Q 39.59375 6.203125 44.453125 7.46875 
Q 49.3125 8.734375 54.109375 11.28125 
L 54.109375 2.78125 
Q 49.265625 0.734375 44.1875 -0.34375 
Q 39.109375 -1.421875 33.890625 -1.421875 
Q 20.796875 -1.421875 13.15625 6.1875 
Q 5.515625 13.8125 5.515625 26.8125 
Q 5.515625 40.234375 12.765625 48.109375 
Q 20.015625 56 32.328125 56 
Q 43.359375 56 49.78125 48.890625 
Q 56.203125 41.796875 56.203125 29.59375 
z
M 47.21875 32.234375 
Q 47.125 39.59375 43.09375 43.984375 
Q 39.0625 48.390625 32.421875 48.390625 
Q 24.90625 48.390625 20.390625 44.140625 
Q 15.875 39.890625 15.1875 32.171875 
z
" id="DejaVuSans-101"/>
     </defs>
     <g transform="translate(16.318125 309.388359)rotate(-90)scale(0.12 -0.12)">
      <use xlink:href="#DejaVuSans-65"/>
      <use x="68.408203" xlink:href="#DejaVuSans-110"/>
      <use x="131.787109" xlink:href="#DejaVuSans-122"/>
      <use x="184.277344" xlink:href="#DejaVuSans-97"/>
      <use x="245.556641" xlink:href="#DejaVuSans-104"/>
      <use x="308.935547" xlink:href="#DejaVuSans-108"/>
      <use x="336.71875" xlink:href="#DejaVuSans-32"/>
      <use x="368.505859" xlink:href="#DejaVuSans-118"/>
      <use x="427.685547" xlink:href="#DejaVuSans-111"/>
      <use x="488.867188" xlink:href="#DejaVuSans-110"/>
      <use x="552.246094" xlink:href="#DejaVuSans-32"/>
      <use x="584.033203" xlink:href="#DejaVuSans-70"/>
      <use x="632.427734" xlink:href="#DejaVuSans-228"/>
      <use x="693.707031" xlink:href="#DejaVuSans-108"/>
      <use x="721.490234" xlink:href="#DejaVuSans-108"/>
      <use x="749.273438" xlink:href="#DejaVuSans-101"/>
      <use x="810.796875" xlink:href="#DejaVuSans-110"/>
     </g>
    </g>
   </g>
   <g id="line2d_18">
    <path clip-path="url(#p8098b0910d)" d="M 105.354773 477.978812 
L 115.868197 477.978812 
L 121.124909 474.467457 
L 126.381622 474.467457 
L 131.638334 468.615198 
L 147.40847 468.615198 
L 152.665183 467.444746 
L 157.921895 463.93339 
L 163.178607 455.740228 
L 168.435319 449.887968 
L 173.692031 449.887968 
L 178.948744 448.717517 
L 184.205456 448.717517 
L 189.462168 445.206161 
L 194.71888 442.865257 
L 199.975592 437.012998 
L 210.489017 434.672095 
L 221.002441 429.990287 
L 226.259153 428.819835 
L 231.515866 428.819835 
L 236.772578 420.626673 
L 242.02929 420.626673 
L 252.542714 414.774413 
L 263.056139 407.751703 
L 268.312851 399.55854 
L 278.826275 397.217636 
L 289.3397 386.68357 
L 294.596412 379.660859 
L 299.853124 376.149503 
L 305.109836 369.126792 
L 315.623261 365.615437 
L 326.136685 356.251822 
L 331.393397 350.399563 
L 336.65011 346.888207 
L 341.906822 341.035948 
L 347.163534 339.865496 
L 352.420246 331.672334 
L 362.933671 325.820075 
L 368.190383 323.479171 
L 373.447095 315.286008 
L 378.703807 315.286008 
L 389.217232 298.899682 
L 399.730656 291.876971 
L 404.987368 289.536068 
L 420.757505 279.002001 
L 426.014217 276.661098 
L 436.527641 275.490646 
L 441.784354 275.490646 
L 452.297778 271.97929 
L 457.55449 268.467935 
L 478.581339 266.127031 
L 483.838051 262.615676 
L 489.094763 261.445224 
L 494.351476 259.10432 
L 510.121612 259.10432 
L 515.378324 256.763417 
L 520.635037 255.592965 
L 531.148461 250.911157 
L 536.405173 249.740706 
L 557.432022 249.740706 
L 567.945446 242.717995 
L 573.202159 242.717995 
L 583.715583 241.547543 
L 594.229007 239.206639 
L 678.336402 239.206639 
L 694.106539 235.695284 
L 699.363251 233.35438 
L 704.619963 232.183928 
L 709.876676 229.843025 
L 715.133388 229.843025 
L 730.903524 227.502121 
L 746.673661 221.649862 
L 788.727359 221.649862 
L 841.294481 190.047662 
L 846.551193 180.684048 
L 857.064617 176.00224 
L 862.321329 176.00224 
L 878.091466 167.809078 
L 883.348178 161.956818 
L 888.60489 160.786367 
L 893.861603 158.445463 
L 899.118315 158.445463 
L 914.888451 157.275011 
L 920.145164 154.934107 
L 925.401876 153.763656 
L 930.658588 150.2523 
L 935.9153 145.570493 
L 951.685437 144.400041 
L 956.942149 144.400041 
L 962.198861 142.059137 
L 967.455573 138.547782 
L 972.712286 138.547782 
L 993.739134 129.184167 
L 998.995847 128.013715 
L 1004.252559 128.013715 
L 1009.509271 123.331908 
L 1030.53612 123.331908 
L 1035.792832 122.161456 
L 1041.049544 118.650101 
L 1046.306256 118.650101 
L 1062.076393 116.309197 
L 1067.333105 116.309197 
L 1077.84653 111.62739 
L 1083.103242 110.456938 
L 1098.873378 108.116034 
L 1104.130091 103.434227 
L 1109.386803 103.434227 
L 1119.900227 101.093323 
L 1119.900227 101.093323 
" style="fill:none;stroke:#dbcd00;stroke-linecap:square;stroke-width:2;"/>
    <defs>
     <path d="M 0 1.5 
C 0.397805 1.5 0.77937 1.341951 1.06066 1.06066 
C 1.341951 0.77937 1.5 0.397805 1.5 0 
C 1.5 -0.397805 1.341951 -0.77937 1.06066 -1.06066 
C 0.77937 -1.341951 0.397805 -1.5 0 -1.5 
C -0.397805 -1.5 -0.77937 -1.341951 -1.06066 -1.06066 
C -1.341951 -0.77937 -1.5 -0.397805 -1.5 0 
C -1.5 0.397805 -1.341951 0.77937 -1.06066 1.06066 
C -0.77937 1.341951 -0.397805 1.5 0 1.5 
z
" id="mea60ae955e" style="stroke:#dbcd00;"/>
    </defs>
    <g clip-path="url(#p8098b0910d)">
     <use style="fill:#dbcd00;stroke:#dbcd00;" x="105.354773" xlink:href="#mea60ae955e" y="477.978812"/>
     <use style="fill:#dbcd00;stroke:#dbcd00;" x="110.611485" xlink:href="#mea60ae955e" y="477.978812"/>
     <use style="fill:#dbcd00;stroke:#dbcd00;" x="115.868197" xlink:href="#mea60ae955e" y="477.978812"/>
     <use style="fill:#dbcd00;stroke:#dbcd00;" x="121.124909" xlink:href="#mea60ae955e" y="474.467457"/>
     <use style="fill:#dbcd00;stroke:#dbcd00;" x="126.381622" xlink:href="#mea60ae955e" y="474.467457"/>
     <use style="fill:#dbcd00;stroke:#dbcd00;" x="131.638334" xlink:href="#mea60ae955e" y="468.615198"/>
     <use style="fill:#dbcd00;stroke:#dbcd00;" x="136.895046" xlink:href="#mea60ae955e" y="468.615198"/>
     <use style="fill:#dbcd00;stroke:#dbcd00;" x="142.151758" xlink:href="#mea60ae955e" y="468.615198"/>
     <use style="fill:#dbcd00;stroke:#dbcd00;" x="147.40847" xlink:href="#mea60ae955e" y="468.615198"/>
     <use style="fill:#dbcd00;stroke:#dbcd00;" x="152.665183" xlink:href="#mea60ae955e" y="467.444746"/>
     <use style="fill:#dbcd00;stroke:#dbcd00;" x="157.921895" xlink:href="#mea60ae955e" y="463.93339"/>
     <use style="fill:#dbcd00;stroke:#dbcd00;" x="163.178607" xlink:href="#mea60ae955e" y="455.740228"/>
     <use style="fill:#dbcd00;stroke:#dbcd00;" x="168.435319" xlink:href="#mea60ae955e" y="449.887968"/>
     <use style="fill:#dbcd00;stroke:#dbcd00;" x="173.692031" xlink:href="#mea60ae955e" y="449.887968"/>
     <use style="fill:#dbcd00;stroke:#dbcd00;" x="178.948744" xlink:href="#mea60ae955e" y="448.717517"/>
     <use style="fill:#dbcd00;stroke:#dbcd00;" x="184.205456" xlink:href="#mea60ae955e" y="448.717517"/>
     <use style="fill:#dbcd00;stroke:#dbcd00;" x="189.462168" xlink:href="#mea60ae955e" y="445.206161"/>
     <use style="fill:#dbcd00;stroke:#dbcd00;" x="194.71888" xlink:href="#mea60ae955e" y="442.865257"/>
     <use style="fill:#dbcd00;stroke:#dbcd00;" x="199.975592" xlink:href="#mea60ae955e" y="437.012998"/>
     <use style="fill:#dbcd00;stroke:#dbcd00;" x="210.489017" xlink:href="#mea60ae955e" y="434.672095"/>
     <use style="fill:#dbcd00;stroke:#dbcd00;" x="221.002441" xlink:href="#mea60ae955e" y="429.990287"/>
     <use style="fill:#dbcd00;stroke:#dbcd00;" x="226.259153" xlink:href="#mea60ae955e" y="428.819835"/>
     <use style="fill:#dbcd00;stroke:#dbcd00;" x="231.515866" xlink:href="#mea60ae955e" y="428.819835"/>
     <use style="fill:#dbcd00;stroke:#dbcd00;" x="236.772578" xlink:href="#mea60ae955e" y="420.626673"/>
     <use style="fill:#dbcd00;stroke:#dbcd00;" x="242.02929" xlink:href="#mea60ae955e" y="420.626673"/>
     <use style="fill:#dbcd00;stroke:#dbcd00;" x="252.542714" xlink:href="#mea60ae955e" y="414.774413"/>
     <use style="fill:#dbcd00;stroke:#dbcd00;" x="257.799427" xlink:href="#mea60ae955e" y="411.263058"/>
     <use style="fill:#dbcd00;stroke:#dbcd00;" x="263.056139" xlink:href="#mea60ae955e" y="407.751703"/>
     <use style="fill:#dbcd00;stroke:#dbcd00;" x="268.312851" xlink:href="#mea60ae955e" y="399.55854"/>
     <use style="fill:#dbcd00;stroke:#dbcd00;" x="273.569563" xlink:href="#mea60ae955e" y="398.388088"/>
     <use style="fill:#dbcd00;stroke:#dbcd00;" x="278.826275" xlink:href="#mea60ae955e" y="397.217636"/>
     <use style="fill:#dbcd00;stroke:#dbcd00;" x="289.3397" xlink:href="#mea60ae955e" y="386.68357"/>
     <use style="fill:#dbcd00;stroke:#dbcd00;" x="294.596412" xlink:href="#mea60ae955e" y="379.660859"/>
     <use style="fill:#dbcd00;stroke:#dbcd00;" x="299.853124" xlink:href="#mea60ae955e" y="376.149503"/>
     <use style="fill:#dbcd00;stroke:#dbcd00;" x="305.109836" xlink:href="#mea60ae955e" y="369.126792"/>
     <use style="fill:#dbcd00;stroke:#dbcd00;" x="315.623261" xlink:href="#mea60ae955e" y="365.615437"/>
     <use style="fill:#dbcd00;stroke:#dbcd00;" x="326.136685" xlink:href="#mea60ae955e" y="356.251822"/>
     <use style="fill:#dbcd00;stroke:#dbcd00;" x="331.393397" xlink:href="#mea60ae955e" y="350.399563"/>
     <use style="fill:#dbcd00;stroke:#dbcd00;" x="336.65011" xlink:href="#mea60ae955e" y="346.888207"/>
     <use style="fill:#dbcd00;stroke:#dbcd00;" x="341.906822" xlink:href="#mea60ae955e" y="341.035948"/>
     <use style="fill:#dbcd00;stroke:#dbcd00;" x="347.163534" xlink:href="#mea60ae955e" y="339.865496"/>
     <use style="fill:#dbcd00;stroke:#dbcd00;" x="352.420246" xlink:href="#mea60ae955e" y="331.672334"/>
     <use style="fill:#dbcd00;stroke:#dbcd00;" x="362.933671" xlink:href="#mea60ae955e" y="325.820075"/>
     <use style="fill:#dbcd00;stroke:#dbcd00;" x="368.190383" xlink:href="#mea60ae955e" y="323.479171"/>
     <use style="fill:#dbcd00;stroke:#dbcd00;" x="373.447095" xlink:href="#mea60ae955e" y="315.286008"/>
     <use style="fill:#dbcd00;stroke:#dbcd00;" x="378.703807" xlink:href="#mea60ae955e" y="315.286008"/>
     <use style="fill:#dbcd00;stroke:#dbcd00;" x="383.960519" xlink:href="#mea60ae955e" y="307.092845"/>
     <use style="fill:#dbcd00;stroke:#dbcd00;" x="389.217232" xlink:href="#mea60ae955e" y="298.899682"/>
     <use style="fill:#dbcd00;stroke:#dbcd00;" x="399.730656" xlink:href="#mea60ae955e" y="291.876971"/>
     <use style="fill:#dbcd00;stroke:#dbcd00;" x="404.987368" xlink:href="#mea60ae955e" y="289.536068"/>
     <use style="fill:#dbcd00;stroke:#dbcd00;" x="410.24408" xlink:href="#mea60ae955e" y="286.024712"/>
     <use style="fill:#dbcd00;stroke:#dbcd00;" x="420.757505" xlink:href="#mea60ae955e" y="279.002001"/>
     <use style="fill:#dbcd00;stroke:#dbcd00;" x="426.014217" xlink:href="#mea60ae955e" y="276.661098"/>
     <use style="fill:#dbcd00;stroke:#dbcd00;" x="436.527641" xlink:href="#mea60ae955e" y="275.490646"/>
     <use style="fill:#dbcd00;stroke:#dbcd00;" x="441.784354" xlink:href="#mea60ae955e" y="275.490646"/>
     <use style="fill:#dbcd00;stroke:#dbcd00;" x="452.297778" xlink:href="#mea60ae955e" y="271.97929"/>
     <use style="fill:#dbcd00;stroke:#dbcd00;" x="457.55449" xlink:href="#mea60ae955e" y="268.467935"/>
     <use style="fill:#dbcd00;stroke:#dbcd00;" x="478.581339" xlink:href="#mea60ae955e" y="266.127031"/>
     <use style="fill:#dbcd00;stroke:#dbcd00;" x="483.838051" xlink:href="#mea60ae955e" y="262.615676"/>
     <use style="fill:#dbcd00;stroke:#dbcd00;" x="489.094763" xlink:href="#mea60ae955e" y="261.445224"/>
     <use style="fill:#dbcd00;stroke:#dbcd00;" x="494.351476" xlink:href="#mea60ae955e" y="259.10432"/>
     <use style="fill:#dbcd00;stroke:#dbcd00;" x="499.608188" xlink:href="#mea60ae955e" y="259.10432"/>
     <use style="fill:#dbcd00;stroke:#dbcd00;" x="510.121612" xlink:href="#mea60ae955e" y="259.10432"/>
     <use style="fill:#dbcd00;stroke:#dbcd00;" x="515.378324" xlink:href="#mea60ae955e" y="256.763417"/>
     <use style="fill:#dbcd00;stroke:#dbcd00;" x="520.635037" xlink:href="#mea60ae955e" y="255.592965"/>
     <use style="fill:#dbcd00;stroke:#dbcd00;" x="531.148461" xlink:href="#mea60ae955e" y="250.911157"/>
     <use style="fill:#dbcd00;stroke:#dbcd00;" x="536.405173" xlink:href="#mea60ae955e" y="249.740706"/>
     <use style="fill:#dbcd00;stroke:#dbcd00;" x="546.918598" xlink:href="#mea60ae955e" y="249.740706"/>
     <use style="fill:#dbcd00;stroke:#dbcd00;" x="557.432022" xlink:href="#mea60ae955e" y="249.740706"/>
     <use style="fill:#dbcd00;stroke:#dbcd00;" x="567.945446" xlink:href="#mea60ae955e" y="242.717995"/>
     <use style="fill:#dbcd00;stroke:#dbcd00;" x="573.202159" xlink:href="#mea60ae955e" y="242.717995"/>
     <use style="fill:#dbcd00;stroke:#dbcd00;" x="583.715583" xlink:href="#mea60ae955e" y="241.547543"/>
     <use style="fill:#dbcd00;stroke:#dbcd00;" x="588.972295" xlink:href="#mea60ae955e" y="240.377091"/>
     <use style="fill:#dbcd00;stroke:#dbcd00;" x="594.229007" xlink:href="#mea60ae955e" y="239.206639"/>
     <use style="fill:#dbcd00;stroke:#dbcd00;" x="599.48572" xlink:href="#mea60ae955e" y="239.206639"/>
     <use style="fill:#dbcd00;stroke:#dbcd00;" x="609.999144" xlink:href="#mea60ae955e" y="239.206639"/>
     <use style="fill:#dbcd00;stroke:#dbcd00;" x="620.512568" xlink:href="#mea60ae955e" y="239.206639"/>
     <use style="fill:#dbcd00;stroke:#dbcd00;" x="625.76928" xlink:href="#mea60ae955e" y="239.206639"/>
     <use style="fill:#dbcd00;stroke:#dbcd00;" x="631.025993" xlink:href="#mea60ae955e" y="239.206639"/>
     <use style="fill:#dbcd00;stroke:#dbcd00;" x="636.282705" xlink:href="#mea60ae955e" y="239.206639"/>
     <use style="fill:#dbcd00;stroke:#dbcd00;" x="641.539417" xlink:href="#mea60ae955e" y="239.206639"/>
     <use style="fill:#dbcd00;stroke:#dbcd00;" x="646.796129" xlink:href="#mea60ae955e" y="239.206639"/>
     <use style="fill:#dbcd00;stroke:#dbcd00;" x="662.566266" xlink:href="#mea60ae955e" y="239.206639"/>
     <use style="fill:#dbcd00;stroke:#dbcd00;" x="667.822978" xlink:href="#mea60ae955e" y="239.206639"/>
     <use style="fill:#dbcd00;stroke:#dbcd00;" x="673.07969" xlink:href="#mea60ae955e" y="239.206639"/>
     <use style="fill:#dbcd00;stroke:#dbcd00;" x="678.336402" xlink:href="#mea60ae955e" y="239.206639"/>
     <use style="fill:#dbcd00;stroke:#dbcd00;" x="694.106539" xlink:href="#mea60ae955e" y="235.695284"/>
     <use style="fill:#dbcd00;stroke:#dbcd00;" x="699.363251" xlink:href="#mea60ae955e" y="233.35438"/>
     <use style="fill:#dbcd00;stroke:#dbcd00;" x="704.619963" xlink:href="#mea60ae955e" y="232.183928"/>
     <use style="fill:#dbcd00;stroke:#dbcd00;" x="709.876676" xlink:href="#mea60ae955e" y="229.843025"/>
     <use style="fill:#dbcd00;stroke:#dbcd00;" x="715.133388" xlink:href="#mea60ae955e" y="229.843025"/>
     <use style="fill:#dbcd00;stroke:#dbcd00;" x="730.903524" xlink:href="#mea60ae955e" y="227.502121"/>
     <use style="fill:#dbcd00;stroke:#dbcd00;" x="746.673661" xlink:href="#mea60ae955e" y="221.649862"/>
     <use style="fill:#dbcd00;stroke:#dbcd00;" x="751.930373" xlink:href="#mea60ae955e" y="221.649862"/>
     <use style="fill:#dbcd00;stroke:#dbcd00;" x="767.70051" xlink:href="#mea60ae955e" y="221.649862"/>
     <use style="fill:#dbcd00;stroke:#dbcd00;" x="772.957222" xlink:href="#mea60ae955e" y="221.649862"/>
     <use style="fill:#dbcd00;stroke:#dbcd00;" x="778.213934" xlink:href="#mea60ae955e" y="221.649862"/>
     <use style="fill:#dbcd00;stroke:#dbcd00;" x="783.470646" xlink:href="#mea60ae955e" y="221.649862"/>
     <use style="fill:#dbcd00;stroke:#dbcd00;" x="788.727359" xlink:href="#mea60ae955e" y="221.649862"/>
     <use style="fill:#dbcd00;stroke:#dbcd00;" x="841.294481" xlink:href="#mea60ae955e" y="190.047662"/>
     <use style="fill:#dbcd00;stroke:#dbcd00;" x="846.551193" xlink:href="#mea60ae955e" y="180.684048"/>
     <use style="fill:#dbcd00;stroke:#dbcd00;" x="857.064617" xlink:href="#mea60ae955e" y="176.00224"/>
     <use style="fill:#dbcd00;stroke:#dbcd00;" x="862.321329" xlink:href="#mea60ae955e" y="176.00224"/>
     <use style="fill:#dbcd00;stroke:#dbcd00;" x="878.091466" xlink:href="#mea60ae955e" y="167.809078"/>
     <use style="fill:#dbcd00;stroke:#dbcd00;" x="883.348178" xlink:href="#mea60ae955e" y="161.956818"/>
     <use style="fill:#dbcd00;stroke:#dbcd00;" x="888.60489" xlink:href="#mea60ae955e" y="160.786367"/>
     <use style="fill:#dbcd00;stroke:#dbcd00;" x="893.861603" xlink:href="#mea60ae955e" y="158.445463"/>
     <use style="fill:#dbcd00;stroke:#dbcd00;" x="899.118315" xlink:href="#mea60ae955e" y="158.445463"/>
     <use style="fill:#dbcd00;stroke:#dbcd00;" x="914.888451" xlink:href="#mea60ae955e" y="157.275011"/>
     <use style="fill:#dbcd00;stroke:#dbcd00;" x="920.145164" xlink:href="#mea60ae955e" y="154.934107"/>
     <use style="fill:#dbcd00;stroke:#dbcd00;" x="925.401876" xlink:href="#mea60ae955e" y="153.763656"/>
     <use style="fill:#dbcd00;stroke:#dbcd00;" x="930.658588" xlink:href="#mea60ae955e" y="150.2523"/>
     <use style="fill:#dbcd00;stroke:#dbcd00;" x="935.9153" xlink:href="#mea60ae955e" y="145.570493"/>
     <use style="fill:#dbcd00;stroke:#dbcd00;" x="951.685437" xlink:href="#mea60ae955e" y="144.400041"/>
     <use style="fill:#dbcd00;stroke:#dbcd00;" x="956.942149" xlink:href="#mea60ae955e" y="144.400041"/>
     <use style="fill:#dbcd00;stroke:#dbcd00;" x="962.198861" xlink:href="#mea60ae955e" y="142.059137"/>
     <use style="fill:#dbcd00;stroke:#dbcd00;" x="967.455573" xlink:href="#mea60ae955e" y="138.547782"/>
     <use style="fill:#dbcd00;stroke:#dbcd00;" x="972.712286" xlink:href="#mea60ae955e" y="138.547782"/>
     <use style="fill:#dbcd00;stroke:#dbcd00;" x="988.482422" xlink:href="#mea60ae955e" y="131.525071"/>
     <use style="fill:#dbcd00;stroke:#dbcd00;" x="993.739134" xlink:href="#mea60ae955e" y="129.184167"/>
     <use style="fill:#dbcd00;stroke:#dbcd00;" x="998.995847" xlink:href="#mea60ae955e" y="128.013715"/>
     <use style="fill:#dbcd00;stroke:#dbcd00;" x="1004.252559" xlink:href="#mea60ae955e" y="128.013715"/>
     <use style="fill:#dbcd00;stroke:#dbcd00;" x="1009.509271" xlink:href="#mea60ae955e" y="123.331908"/>
     <use style="fill:#dbcd00;stroke:#dbcd00;" x="1025.279408" xlink:href="#mea60ae955e" y="123.331908"/>
     <use style="fill:#dbcd00;stroke:#dbcd00;" x="1030.53612" xlink:href="#mea60ae955e" y="123.331908"/>
     <use style="fill:#dbcd00;stroke:#dbcd00;" x="1035.792832" xlink:href="#mea60ae955e" y="122.161456"/>
     <use style="fill:#dbcd00;stroke:#dbcd00;" x="1041.049544" xlink:href="#mea60ae955e" y="118.650101"/>
     <use style="fill:#dbcd00;stroke:#dbcd00;" x="1046.306256" xlink:href="#mea60ae955e" y="118.650101"/>
     <use style="fill:#dbcd00;stroke:#dbcd00;" x="1062.076393" xlink:href="#mea60ae955e" y="116.309197"/>
     <use style="fill:#dbcd00;stroke:#dbcd00;" x="1067.333105" xlink:href="#mea60ae955e" y="116.309197"/>
     <use style="fill:#dbcd00;stroke:#dbcd00;" x="1072.589817" xlink:href="#mea60ae955e" y="113.968293"/>
     <use style="fill:#dbcd00;stroke:#dbcd00;" x="1077.84653" xlink:href="#mea60ae955e" y="111.62739"/>
     <use style="fill:#dbcd00;stroke:#dbcd00;" x="1083.103242" xlink:href="#mea60ae955e" y="110.456938"/>
     <use style="fill:#dbcd00;stroke:#dbcd00;" x="1098.873378" xlink:href="#mea60ae955e" y="108.116034"/>
     <use style="fill:#dbcd00;stroke:#dbcd00;" x="1104.130091" xlink:href="#mea60ae955e" y="103.434227"/>
     <use style="fill:#dbcd00;stroke:#dbcd00;" x="1109.386803" xlink:href="#mea60ae955e" y="103.434227"/>
     <use style="fill:#dbcd00;stroke:#dbcd00;" x="1114.643515" xlink:href="#mea60ae955e" y="102.263775"/>
     <use style="fill:#dbcd00;stroke:#dbcd00;" x="1119.900227" xlink:href="#mea60ae955e" y="101.093323"/>
    </g>
   </g>
   <g id="line2d_19">
    <path clip-path="url(#p8098b0910d)" d="M 105.354773 462.762938 
L 110.611485 461.592487 
L 115.868197 453.399324 
L 121.124909 460.422035 
L 126.381622 455.740228 
L 131.638334 449.887968 
L 136.895046 448.717517 
L 142.151758 446.376613 
L 147.40847 441.694806 
L 152.665183 441.694806 
L 157.921895 438.18345 
L 163.178607 441.694806 
L 168.435319 441.694806 
L 173.692031 440.524354 
L 178.948744 437.012998 
L 189.462168 427.649384 
L 194.71888 425.30848 
L 199.975592 427.649384 
L 210.489017 427.649384 
L 221.002441 426.478932 
L 226.259153 420.626673 
L 231.515866 419.456221 
L 236.772578 422.967576 
L 242.02929 419.456221 
L 252.542714 420.626673 
L 257.799427 413.603962 
L 263.056139 417.115317 
L 268.312851 421.797124 
L 273.569563 420.626673 
L 278.826275 406.581251 
L 289.3397 414.774413 
L 294.596412 419.456221 
L 299.853124 421.797124 
L 305.109836 426.478932 
L 315.623261 420.626673 
L 326.136685 429.990287 
L 331.393397 420.626673 
L 336.65011 415.944865 
L 341.906822 421.797124 
L 347.163534 422.967576 
L 352.420246 428.819835 
L 362.933671 433.501643 
L 368.190383 434.672095 
L 373.447095 437.012998 
L 378.703807 437.012998 
L 383.960519 445.206161 
L 389.217232 451.05842 
L 399.730656 458.081131 
L 404.987368 459.251583 
L 420.757505 469.785649 
L 436.527641 466.274294 
L 441.784354 466.274294 
L 452.297778 467.444746 
L 457.55449 470.956101 
L 478.581339 467.444746 
L 483.838051 469.785649 
L 489.094763 468.615198 
L 494.351476 472.126553 
L 510.121612 472.126553 
L 515.378324 474.467457 
L 520.635037 472.126553 
L 531.148461 474.467457 
L 536.405173 473.297005 
L 557.432022 473.297005 
L 567.945446 480.319716 
L 573.202159 479.149264 
L 583.715583 480.319716 
L 588.972295 480.319716 
L 594.229007 482.66062 
L 625.76928 482.66062 
L 641.539417 479.149264 
L 646.796129 474.467457 
L 662.566266 474.467457 
L 667.822978 472.126553 
L 694.106539 472.126553 
L 699.363251 474.467457 
L 704.619963 475.637909 
L 709.876676 477.978812 
L 715.133388 473.297005 
L 730.903524 473.297005 
L 746.673661 468.615198 
L 751.930373 468.615198 
L 767.70051 454.569776 
L 778.213934 454.569776 
L 783.470646 451.05842 
L 788.727359 434.672095 
L 841.294481 447.547065 
L 846.551193 456.910679 
L 857.064617 459.251583 
L 878.091466 459.251583 
L 883.348178 465.103842 
L 888.60489 466.274294 
L 893.861603 468.615198 
L 899.118315 466.274294 
L 914.888451 463.93339 
L 920.145164 466.274294 
L 925.401876 466.274294 
L 935.9153 468.615198 
L 951.685437 468.615198 
L 962.198861 466.274294 
L 967.455573 469.785649 
L 972.712286 467.444746 
L 988.482422 468.615198 
L 993.739134 470.956101 
L 998.995847 465.103842 
L 1004.252559 465.103842 
L 1009.509271 468.615198 
L 1025.279408 467.444746 
L 1030.53612 466.274294 
L 1035.792832 466.274294 
L 1041.049544 469.785649 
L 1046.306256 469.785649 
L 1062.076393 462.762938 
L 1067.333105 462.762938 
L 1077.84653 465.103842 
L 1083.103242 459.251583 
L 1098.873378 448.717517 
L 1104.130091 451.05842 
L 1109.386803 442.865257 
L 1114.643515 438.18345 
L 1119.900227 439.353902 
L 1119.900227 439.353902 
" style="fill:none;stroke:#2792cb;stroke-linecap:square;stroke-width:2;"/>
    <defs>
     <path d="M 0 1.5 
C 0.397805 1.5 0.77937 1.341951 1.06066 1.06066 
C 1.341951 0.77937 1.5 0.397805 1.5 0 
C 1.5 -0.397805 1.341951 -0.77937 1.06066 -1.06066 
C 0.77937 -1.341951 0.397805 -1.5 0 -1.5 
C -0.397805 -1.5 -0.77937 -1.341951 -1.06066 -1.06066 
C -1.341951 -0.77937 -1.5 -0.397805 -1.5 0 
C -1.5 0.397805 -1.341951 0.77937 -1.06066 1.06066 
C -0.77937 1.341951 -0.397805 1.5 0 1.5 
z
" id="m8898faf40e" style="stroke:#2792cb;"/>
    </defs>
    <g clip-path="url(#p8098b0910d)">
     <use style="fill:#2792cb;stroke:#2792cb;" x="105.354773" xlink:href="#m8898faf40e" y="462.762938"/>
     <use style="fill:#2792cb;stroke:#2792cb;" x="110.611485" xlink:href="#m8898faf40e" y="461.592487"/>
     <use style="fill:#2792cb;stroke:#2792cb;" x="115.868197" xlink:href="#m8898faf40e" y="453.399324"/>
     <use style="fill:#2792cb;stroke:#2792cb;" x="121.124909" xlink:href="#m8898faf40e" y="460.422035"/>
     <use style="fill:#2792cb;stroke:#2792cb;" x="126.381622" xlink:href="#m8898faf40e" y="455.740228"/>
     <use style="fill:#2792cb;stroke:#2792cb;" x="131.638334" xlink:href="#m8898faf40e" y="449.887968"/>
     <use style="fill:#2792cb;stroke:#2792cb;" x="136.895046" xlink:href="#m8898faf40e" y="448.717517"/>
     <use style="fill:#2792cb;stroke:#2792cb;" x="142.151758" xlink:href="#m8898faf40e" y="446.376613"/>
     <use style="fill:#2792cb;stroke:#2792cb;" x="147.40847" xlink:href="#m8898faf40e" y="441.694806"/>
     <use style="fill:#2792cb;stroke:#2792cb;" x="152.665183" xlink:href="#m8898faf40e" y="441.694806"/>
     <use style="fill:#2792cb;stroke:#2792cb;" x="157.921895" xlink:href="#m8898faf40e" y="438.18345"/>
     <use style="fill:#2792cb;stroke:#2792cb;" x="163.178607" xlink:href="#m8898faf40e" y="441.694806"/>
     <use style="fill:#2792cb;stroke:#2792cb;" x="168.435319" xlink:href="#m8898faf40e" y="441.694806"/>
     <use style="fill:#2792cb;stroke:#2792cb;" x="173.692031" xlink:href="#m8898faf40e" y="440.524354"/>
     <use style="fill:#2792cb;stroke:#2792cb;" x="178.948744" xlink:href="#m8898faf40e" y="437.012998"/>
     <use style="fill:#2792cb;stroke:#2792cb;" x="184.205456" xlink:href="#m8898faf40e" y="432.331191"/>
     <use style="fill:#2792cb;stroke:#2792cb;" x="189.462168" xlink:href="#m8898faf40e" y="427.649384"/>
     <use style="fill:#2792cb;stroke:#2792cb;" x="194.71888" xlink:href="#m8898faf40e" y="425.30848"/>
     <use style="fill:#2792cb;stroke:#2792cb;" x="199.975592" xlink:href="#m8898faf40e" y="427.649384"/>
     <use style="fill:#2792cb;stroke:#2792cb;" x="210.489017" xlink:href="#m8898faf40e" y="427.649384"/>
     <use style="fill:#2792cb;stroke:#2792cb;" x="221.002441" xlink:href="#m8898faf40e" y="426.478932"/>
     <use style="fill:#2792cb;stroke:#2792cb;" x="226.259153" xlink:href="#m8898faf40e" y="420.626673"/>
     <use style="fill:#2792cb;stroke:#2792cb;" x="231.515866" xlink:href="#m8898faf40e" y="419.456221"/>
     <use style="fill:#2792cb;stroke:#2792cb;" x="236.772578" xlink:href="#m8898faf40e" y="422.967576"/>
     <use style="fill:#2792cb;stroke:#2792cb;" x="242.02929" xlink:href="#m8898faf40e" y="419.456221"/>
     <use style="fill:#2792cb;stroke:#2792cb;" x="252.542714" xlink:href="#m8898faf40e" y="420.626673"/>
     <use style="fill:#2792cb;stroke:#2792cb;" x="257.799427" xlink:href="#m8898faf40e" y="413.603962"/>
     <use style="fill:#2792cb;stroke:#2792cb;" x="263.056139" xlink:href="#m8898faf40e" y="417.115317"/>
     <use style="fill:#2792cb;stroke:#2792cb;" x="268.312851" xlink:href="#m8898faf40e" y="421.797124"/>
     <use style="fill:#2792cb;stroke:#2792cb;" x="273.569563" xlink:href="#m8898faf40e" y="420.626673"/>
     <use style="fill:#2792cb;stroke:#2792cb;" x="278.826275" xlink:href="#m8898faf40e" y="406.581251"/>
     <use style="fill:#2792cb;stroke:#2792cb;" x="289.3397" xlink:href="#m8898faf40e" y="414.774413"/>
     <use style="fill:#2792cb;stroke:#2792cb;" x="294.596412" xlink:href="#m8898faf40e" y="419.456221"/>
     <use style="fill:#2792cb;stroke:#2792cb;" x="299.853124" xlink:href="#m8898faf40e" y="421.797124"/>
     <use style="fill:#2792cb;stroke:#2792cb;" x="305.109836" xlink:href="#m8898faf40e" y="426.478932"/>
     <use style="fill:#2792cb;stroke:#2792cb;" x="315.623261" xlink:href="#m8898faf40e" y="420.626673"/>
     <use style="fill:#2792cb;stroke:#2792cb;" x="326.136685" xlink:href="#m8898faf40e" y="429.990287"/>
     <use style="fill:#2792cb;stroke:#2792cb;" x="331.393397" xlink:href="#m8898faf40e" y="420.626673"/>
     <use style="fill:#2792cb;stroke:#2792cb;" x="336.65011" xlink:href="#m8898faf40e" y="415.944865"/>
     <use style="fill:#2792cb;stroke:#2792cb;" x="341.906822" xlink:href="#m8898faf40e" y="421.797124"/>
     <use style="fill:#2792cb;stroke:#2792cb;" x="347.163534" xlink:href="#m8898faf40e" y="422.967576"/>
     <use style="fill:#2792cb;stroke:#2792cb;" x="352.420246" xlink:href="#m8898faf40e" y="428.819835"/>
     <use style="fill:#2792cb;stroke:#2792cb;" x="362.933671" xlink:href="#m8898faf40e" y="433.501643"/>
     <use style="fill:#2792cb;stroke:#2792cb;" x="368.190383" xlink:href="#m8898faf40e" y="434.672095"/>
     <use style="fill:#2792cb;stroke:#2792cb;" x="373.447095" xlink:href="#m8898faf40e" y="437.012998"/>
     <use style="fill:#2792cb;stroke:#2792cb;" x="378.703807" xlink:href="#m8898faf40e" y="437.012998"/>
     <use style="fill:#2792cb;stroke:#2792cb;" x="383.960519" xlink:href="#m8898faf40e" y="445.206161"/>
     <use style="fill:#2792cb;stroke:#2792cb;" x="389.217232" xlink:href="#m8898faf40e" y="451.05842"/>
     <use style="fill:#2792cb;stroke:#2792cb;" x="399.730656" xlink:href="#m8898faf40e" y="458.081131"/>
     <use style="fill:#2792cb;stroke:#2792cb;" x="404.987368" xlink:href="#m8898faf40e" y="459.251583"/>
     <use style="fill:#2792cb;stroke:#2792cb;" x="410.24408" xlink:href="#m8898faf40e" y="462.762938"/>
     <use style="fill:#2792cb;stroke:#2792cb;" x="420.757505" xlink:href="#m8898faf40e" y="469.785649"/>
     <use style="fill:#2792cb;stroke:#2792cb;" x="426.014217" xlink:href="#m8898faf40e" y="468.615198"/>
     <use style="fill:#2792cb;stroke:#2792cb;" x="436.527641" xlink:href="#m8898faf40e" y="466.274294"/>
     <use style="fill:#2792cb;stroke:#2792cb;" x="441.784354" xlink:href="#m8898faf40e" y="466.274294"/>
     <use style="fill:#2792cb;stroke:#2792cb;" x="452.297778" xlink:href="#m8898faf40e" y="467.444746"/>
     <use style="fill:#2792cb;stroke:#2792cb;" x="457.55449" xlink:href="#m8898faf40e" y="470.956101"/>
     <use style="fill:#2792cb;stroke:#2792cb;" x="478.581339" xlink:href="#m8898faf40e" y="467.444746"/>
     <use style="fill:#2792cb;stroke:#2792cb;" x="483.838051" xlink:href="#m8898faf40e" y="469.785649"/>
     <use style="fill:#2792cb;stroke:#2792cb;" x="489.094763" xlink:href="#m8898faf40e" y="468.615198"/>
     <use style="fill:#2792cb;stroke:#2792cb;" x="494.351476" xlink:href="#m8898faf40e" y="472.126553"/>
     <use style="fill:#2792cb;stroke:#2792cb;" x="499.608188" xlink:href="#m8898faf40e" y="472.126553"/>
     <use style="fill:#2792cb;stroke:#2792cb;" x="510.121612" xlink:href="#m8898faf40e" y="472.126553"/>
     <use style="fill:#2792cb;stroke:#2792cb;" x="515.378324" xlink:href="#m8898faf40e" y="474.467457"/>
     <use style="fill:#2792cb;stroke:#2792cb;" x="520.635037" xlink:href="#m8898faf40e" y="472.126553"/>
     <use style="fill:#2792cb;stroke:#2792cb;" x="531.148461" xlink:href="#m8898faf40e" y="474.467457"/>
     <use style="fill:#2792cb;stroke:#2792cb;" x="536.405173" xlink:href="#m8898faf40e" y="473.297005"/>
     <use style="fill:#2792cb;stroke:#2792cb;" x="546.918598" xlink:href="#m8898faf40e" y="473.297005"/>
     <use style="fill:#2792cb;stroke:#2792cb;" x="557.432022" xlink:href="#m8898faf40e" y="473.297005"/>
     <use style="fill:#2792cb;stroke:#2792cb;" x="567.945446" xlink:href="#m8898faf40e" y="480.319716"/>
     <use style="fill:#2792cb;stroke:#2792cb;" x="573.202159" xlink:href="#m8898faf40e" y="479.149264"/>
     <use style="fill:#2792cb;stroke:#2792cb;" x="583.715583" xlink:href="#m8898faf40e" y="480.319716"/>
     <use style="fill:#2792cb;stroke:#2792cb;" x="588.972295" xlink:href="#m8898faf40e" y="480.319716"/>
     <use style="fill:#2792cb;stroke:#2792cb;" x="594.229007" xlink:href="#m8898faf40e" y="482.66062"/>
     <use style="fill:#2792cb;stroke:#2792cb;" x="599.48572" xlink:href="#m8898faf40e" y="482.66062"/>
     <use style="fill:#2792cb;stroke:#2792cb;" x="609.999144" xlink:href="#m8898faf40e" y="482.66062"/>
     <use style="fill:#2792cb;stroke:#2792cb;" x="620.512568" xlink:href="#m8898faf40e" y="482.66062"/>
     <use style="fill:#2792cb;stroke:#2792cb;" x="625.76928" xlink:href="#m8898faf40e" y="482.66062"/>
     <use style="fill:#2792cb;stroke:#2792cb;" x="631.025993" xlink:href="#m8898faf40e" y="481.490168"/>
     <use style="fill:#2792cb;stroke:#2792cb;" x="636.282705" xlink:href="#m8898faf40e" y="480.319716"/>
     <use style="fill:#2792cb;stroke:#2792cb;" x="641.539417" xlink:href="#m8898faf40e" y="479.149264"/>
     <use style="fill:#2792cb;stroke:#2792cb;" x="646.796129" xlink:href="#m8898faf40e" y="474.467457"/>
     <use style="fill:#2792cb;stroke:#2792cb;" x="662.566266" xlink:href="#m8898faf40e" y="474.467457"/>
     <use style="fill:#2792cb;stroke:#2792cb;" x="667.822978" xlink:href="#m8898faf40e" y="472.126553"/>
     <use style="fill:#2792cb;stroke:#2792cb;" x="673.07969" xlink:href="#m8898faf40e" y="472.126553"/>
     <use style="fill:#2792cb;stroke:#2792cb;" x="678.336402" xlink:href="#m8898faf40e" y="472.126553"/>
     <use style="fill:#2792cb;stroke:#2792cb;" x="694.106539" xlink:href="#m8898faf40e" y="472.126553"/>
     <use style="fill:#2792cb;stroke:#2792cb;" x="699.363251" xlink:href="#m8898faf40e" y="474.467457"/>
     <use style="fill:#2792cb;stroke:#2792cb;" x="704.619963" xlink:href="#m8898faf40e" y="475.637909"/>
     <use style="fill:#2792cb;stroke:#2792cb;" x="709.876676" xlink:href="#m8898faf40e" y="477.978812"/>
     <use style="fill:#2792cb;stroke:#2792cb;" x="715.133388" xlink:href="#m8898faf40e" y="473.297005"/>
     <use style="fill:#2792cb;stroke:#2792cb;" x="730.903524" xlink:href="#m8898faf40e" y="473.297005"/>
     <use style="fill:#2792cb;stroke:#2792cb;" x="746.673661" xlink:href="#m8898faf40e" y="468.615198"/>
     <use style="fill:#2792cb;stroke:#2792cb;" x="751.930373" xlink:href="#m8898faf40e" y="468.615198"/>
     <use style="fill:#2792cb;stroke:#2792cb;" x="767.70051" xlink:href="#m8898faf40e" y="454.569776"/>
     <use style="fill:#2792cb;stroke:#2792cb;" x="772.957222" xlink:href="#m8898faf40e" y="454.569776"/>
     <use style="fill:#2792cb;stroke:#2792cb;" x="778.213934" xlink:href="#m8898faf40e" y="454.569776"/>
     <use style="fill:#2792cb;stroke:#2792cb;" x="783.470646" xlink:href="#m8898faf40e" y="451.05842"/>
     <use style="fill:#2792cb;stroke:#2792cb;" x="788.727359" xlink:href="#m8898faf40e" y="434.672095"/>
     <use style="fill:#2792cb;stroke:#2792cb;" x="841.294481" xlink:href="#m8898faf40e" y="447.547065"/>
     <use style="fill:#2792cb;stroke:#2792cb;" x="846.551193" xlink:href="#m8898faf40e" y="456.910679"/>
     <use style="fill:#2792cb;stroke:#2792cb;" x="857.064617" xlink:href="#m8898faf40e" y="459.251583"/>
     <use style="fill:#2792cb;stroke:#2792cb;" x="862.321329" xlink:href="#m8898faf40e" y="459.251583"/>
     <use style="fill:#2792cb;stroke:#2792cb;" x="878.091466" xlink:href="#m8898faf40e" y="459.251583"/>
     <use style="fill:#2792cb;stroke:#2792cb;" x="883.348178" xlink:href="#m8898faf40e" y="465.103842"/>
     <use style="fill:#2792cb;stroke:#2792cb;" x="888.60489" xlink:href="#m8898faf40e" y="466.274294"/>
     <use style="fill:#2792cb;stroke:#2792cb;" x="893.861603" xlink:href="#m8898faf40e" y="468.615198"/>
     <use style="fill:#2792cb;stroke:#2792cb;" x="899.118315" xlink:href="#m8898faf40e" y="466.274294"/>
     <use style="fill:#2792cb;stroke:#2792cb;" x="914.888451" xlink:href="#m8898faf40e" y="463.93339"/>
     <use style="fill:#2792cb;stroke:#2792cb;" x="920.145164" xlink:href="#m8898faf40e" y="466.274294"/>
     <use style="fill:#2792cb;stroke:#2792cb;" x="925.401876" xlink:href="#m8898faf40e" y="466.274294"/>
     <use style="fill:#2792cb;stroke:#2792cb;" x="930.658588" xlink:href="#m8898faf40e" y="467.444746"/>
     <use style="fill:#2792cb;stroke:#2792cb;" x="935.9153" xlink:href="#m8898faf40e" y="468.615198"/>
     <use style="fill:#2792cb;stroke:#2792cb;" x="951.685437" xlink:href="#m8898faf40e" y="468.615198"/>
     <use style="fill:#2792cb;stroke:#2792cb;" x="956.942149" xlink:href="#m8898faf40e" y="467.444746"/>
     <use style="fill:#2792cb;stroke:#2792cb;" x="962.198861" xlink:href="#m8898faf40e" y="466.274294"/>
     <use style="fill:#2792cb;stroke:#2792cb;" x="967.455573" xlink:href="#m8898faf40e" y="469.785649"/>
     <use style="fill:#2792cb;stroke:#2792cb;" x="972.712286" xlink:href="#m8898faf40e" y="467.444746"/>
     <use style="fill:#2792cb;stroke:#2792cb;" x="988.482422" xlink:href="#m8898faf40e" y="468.615198"/>
     <use style="fill:#2792cb;stroke:#2792cb;" x="993.739134" xlink:href="#m8898faf40e" y="470.956101"/>
     <use style="fill:#2792cb;stroke:#2792cb;" x="998.995847" xlink:href="#m8898faf40e" y="465.103842"/>
     <use style="fill:#2792cb;stroke:#2792cb;" x="1004.252559" xlink:href="#m8898faf40e" y="465.103842"/>
     <use style="fill:#2792cb;stroke:#2792cb;" x="1009.509271" xlink:href="#m8898faf40e" y="468.615198"/>
     <use style="fill:#2792cb;stroke:#2792cb;" x="1025.279408" xlink:href="#m8898faf40e" y="467.444746"/>
     <use style="fill:#2792cb;stroke:#2792cb;" x="1030.53612" xlink:href="#m8898faf40e" y="466.274294"/>
     <use style="fill:#2792cb;stroke:#2792cb;" x="1035.792832" xlink:href="#m8898faf40e" y="466.274294"/>
     <use style="fill:#2792cb;stroke:#2792cb;" x="1041.049544" xlink:href="#m8898faf40e" y="469.785649"/>
     <use style="fill:#2792cb;stroke:#2792cb;" x="1046.306256" xlink:href="#m8898faf40e" y="469.785649"/>
     <use style="fill:#2792cb;stroke:#2792cb;" x="1062.076393" xlink:href="#m8898faf40e" y="462.762938"/>
     <use style="fill:#2792cb;stroke:#2792cb;" x="1067.333105" xlink:href="#m8898faf40e" y="462.762938"/>
     <use style="fill:#2792cb;stroke:#2792cb;" x="1072.589817" xlink:href="#m8898faf40e" y="463.93339"/>
     <use style="fill:#2792cb;stroke:#2792cb;" x="1077.84653" xlink:href="#m8898faf40e" y="465.103842"/>
     <use style="fill:#2792cb;stroke:#2792cb;" x="1083.103242" xlink:href="#m8898faf40e" y="459.251583"/>
     <use style="fill:#2792cb;stroke:#2792cb;" x="1098.873378" xlink:href="#m8898faf40e" y="448.717517"/>
     <use style="fill:#2792cb;stroke:#2792cb;" x="1104.130091" xlink:href="#m8898faf40e" y="451.05842"/>
     <use style="fill:#2792cb;stroke:#2792cb;" x="1109.386803" xlink:href="#m8898faf40e" y="442.865257"/>
     <use style="fill:#2792cb;stroke:#2792cb;" x="1114.643515" xlink:href="#m8898faf40e" y="438.18345"/>
     <use style="fill:#2792cb;stroke:#2792cb;" x="1119.900227" xlink:href="#m8898faf40e" y="439.353902"/>
    </g>
   </g>
   <g id="patch_3">
    <path d="M 54.6275 501.738984 
L 1170.6275 501.738984 
" style="fill:none;stroke:#000000;stroke-linecap:square;stroke-linejoin:miter;stroke-width:0.8;"/>
   </g>
   <g id="legend_1">
    <g id="line2d_20">
     <path d="M 1083.382188 25.237422 
L 1103.382188 25.237422 
" style="fill:none;stroke:#dbcd00;stroke-linecap:square;stroke-width:2;"/>
    </g>
    <g id="line2d_21">
     <g>
      <use style="fill:#dbcd00;stroke:#dbcd00;" x="1093.382188" xlink:href="#mea60ae955e" y="25.237422"/>
     </g>
    </g>
    <g id="text_14">
     <!-- Genesene -->
     <defs>
      <path d="M 59.515625 10.40625 
L 59.515625 29.984375 
L 43.40625 29.984375 
L 43.40625 38.09375 
L 69.28125 38.09375 
L 69.28125 6.78125 
Q 63.578125 2.734375 56.6875 0.65625 
Q 49.8125 -1.421875 42 -1.421875 
Q 24.90625 -1.421875 15.25 8.5625 
Q 5.609375 18.5625 5.609375 36.375 
Q 5.609375 54.25 15.25 64.234375 
Q 24.90625 74.21875 42 74.21875 
Q 49.125 74.21875 55.546875 72.453125 
Q 61.96875 70.703125 67.390625 67.28125 
L 67.390625 56.78125 
Q 61.921875 61.421875 55.765625 63.765625 
Q 49.609375 66.109375 42.828125 66.109375 
Q 29.4375 66.109375 22.71875 58.640625 
Q 16.015625 51.171875 16.015625 36.375 
Q 16.015625 21.625 22.71875 14.15625 
Q 29.4375 6.6875 42.828125 6.6875 
Q 48.046875 6.6875 52.140625 7.59375 
Q 56.25 8.5 59.515625 10.40625 
z
" id="DejaVuSans-71"/>
      <path d="M 44.28125 53.078125 
L 44.28125 44.578125 
Q 40.484375 46.53125 36.375 47.5 
Q 32.28125 48.484375 27.875 48.484375 
Q 21.1875 48.484375 17.84375 46.4375 
Q 14.5 44.390625 14.5 40.28125 
Q 14.5 37.15625 16.890625 35.375 
Q 19.28125 33.59375 26.515625 31.984375 
L 29.59375 31.296875 
Q 39.15625 29.25 43.1875 25.515625 
Q 47.21875 21.78125 47.21875 15.09375 
Q 47.21875 7.46875 41.1875 3.015625 
Q 35.15625 -1.421875 24.609375 -1.421875 
Q 20.21875 -1.421875 15.453125 -0.5625 
Q 10.6875 0.296875 5.421875 2 
L 5.421875 11.28125 
Q 10.40625 8.6875 15.234375 7.390625 
Q 20.0625 6.109375 24.8125 6.109375 
Q 31.15625 6.109375 34.5625 8.28125 
Q 37.984375 10.453125 37.984375 14.40625 
Q 37.984375 18.0625 35.515625 20.015625 
Q 33.0625 21.96875 24.703125 23.78125 
L 21.578125 24.515625 
Q 13.234375 26.265625 9.515625 29.90625 
Q 5.8125 33.546875 5.8125 39.890625 
Q 5.8125 47.609375 11.28125 51.796875 
Q 16.75 56 26.8125 56 
Q 31.78125 56 36.171875 55.265625 
Q 40.578125 54.546875 44.28125 53.078125 
z
" id="DejaVuSans-115"/>
     </defs>
     <g transform="translate(1111.382188 28.737422)scale(0.1 -0.1)">
      <use xlink:href="#DejaVuSans-71"/>
      <use x="77.490234" xlink:href="#DejaVuSans-101"/>
      <use x="139.013672" xlink:href="#DejaVuSans-110"/>
      <use x="202.392578" xlink:href="#DejaVuSans-101"/>
      <use x="263.916016" xlink:href="#DejaVuSans-115"/>
      <use x="316.015625" xlink:href="#DejaVuSans-101"/>
      <use x="377.539062" xlink:href="#DejaVuSans-110"/>
      <use x="440.917969" xlink:href="#DejaVuSans-101"/>
     </g>
    </g>
    <g id="line2d_22">
     <path d="M 1083.382188 39.915547 
L 1103.382188 39.915547 
" style="fill:none;stroke:#2792cb;stroke-linecap:square;stroke-width:2;"/>
    </g>
    <g id="line2d_23">
     <g>
      <use style="fill:#2792cb;stroke:#2792cb;" x="1093.382188" xlink:href="#m8898faf40e" y="39.915547"/>
     </g>
    </g>
    <g id="text_15">
     <!-- Erkrankte -->
     <defs>
      <path d="M 9.8125 72.90625 
L 55.90625 72.90625 
L 55.90625 64.59375 
L 19.671875 64.59375 
L 19.671875 43.015625 
L 54.390625 43.015625 
L 54.390625 34.71875 
L 19.671875 34.71875 
L 19.671875 8.296875 
L 56.78125 8.296875 
L 56.78125 0 
L 9.8125 0 
z
" id="DejaVuSans-69"/>
      <path d="M 41.109375 46.296875 
Q 39.59375 47.171875 37.8125 47.578125 
Q 36.03125 48 33.890625 48 
Q 26.265625 48 22.1875 43.046875 
Q 18.109375 38.09375 18.109375 28.8125 
L 18.109375 0 
L 9.078125 0 
L 9.078125 54.6875 
L 18.109375 54.6875 
L 18.109375 46.1875 
Q 20.953125 51.171875 25.484375 53.578125 
Q 30.03125 56 36.53125 56 
Q 37.453125 56 38.578125 55.875 
Q 39.703125 55.765625 41.0625 55.515625 
z
" id="DejaVuSans-114"/>
      <path d="M 9.078125 75.984375 
L 18.109375 75.984375 
L 18.109375 31.109375 
L 44.921875 54.6875 
L 56.390625 54.6875 
L 27.390625 29.109375 
L 57.625 0 
L 45.90625 0 
L 18.109375 26.703125 
L 18.109375 0 
L 9.078125 0 
z
" id="DejaVuSans-107"/>
      <path d="M 18.3125 70.21875 
L 18.3125 54.6875 
L 36.8125 54.6875 
L 36.8125 47.703125 
L 18.3125 47.703125 
L 18.3125 18.015625 
Q 18.3125 11.328125 20.140625 9.421875 
Q 21.96875 7.515625 27.59375 7.515625 
L 36.8125 7.515625 
L 36.8125 0 
L 27.59375 0 
Q 17.1875 0 13.234375 3.875 
Q 9.28125 7.765625 9.28125 18.015625 
L 9.28125 47.703125 
L 2.6875 47.703125 
L 2.6875 54.6875 
L 9.28125 54.6875 
L 9.28125 70.21875 
z
" id="DejaVuSans-116"/>
     </defs>
     <g transform="translate(1111.382188 43.415547)scale(0.1 -0.1)">
      <use xlink:href="#DejaVuSans-69"/>
      <use x="63.183594" xlink:href="#DejaVuSans-114"/>
      <use x="104.296875" xlink:href="#DejaVuSans-107"/>
      <use x="162.207031" xlink:href="#DejaVuSans-114"/>
      <use x="203.320312" xlink:href="#DejaVuSans-97"/>
      <use x="264.599609" xlink:href="#DejaVuSans-110"/>
      <use x="327.978516" xlink:href="#DejaVuSans-107"/>
      <use x="385.888672" xlink:href="#DejaVuSans-116"/>
      <use x="425.097656" xlink:href="#DejaVuSans-101"/>
     </g>
    </g>
   </g>
  </g>
 </g>
 <defs>
  <clipPath id="p8098b0910d">
   <rect height="489.6" width="1116" x="54.6275" y="12.138984"/>
  </clipPath>
 </defs>
</svg>
