<?xml version="1.0" encoding="utf-8" standalone="no"?>
<!DOCTYPE svg PUBLIC "-//W3C//DTD SVG 1.1//EN"
  "http://www.w3.org/Graphics/SVG/1.1/DTD/svg11.dtd">
<!-- Created with matplotlib (https://matplotlib.org/) -->
<svg height="559.671109pt" version="1.1" viewBox="0 0 1177.8275 559.671109" width="1177.8275pt" xmlns="http://www.w3.org/2000/svg" xmlns:xlink="http://www.w3.org/1999/xlink">
 <defs>
  <style type="text/css">
*{stroke-linecap:butt;stroke-linejoin:round;}
  </style>
 </defs>
 <g id="figure_1">
  <g id="patch_1">
   <path d="M 0 559.671109 
L 1177.8275 559.671109 
L 1177.8275 0 
L 0 0 
z
" style="fill:#ffffff;"/>
  </g>
  <g id="axes_1">
   <g id="patch_2">
    <path d="M 54.6275 496.8 
L 1170.6275 496.8 
L 1170.6275 7.2 
L 54.6275 7.2 
z
" style="fill:#ffffff;"/>
   </g>
   <g id="matplotlib.axis_1">
    <g id="xtick_1">
     <g id="line2d_1">
      <defs>
       <path d="M 0 0 
L 0 3.5 
" id="mb9755d8950" style="stroke:#000000;stroke-width:0.8;"/>
      </defs>
      <g>
       <use style="stroke:#000000;stroke-width:0.8;" x="113.406721" xlink:href="#mb9755d8950" y="496.8"/>
      </g>
     </g>
     <g id="text_1">
      <!-- 2020-03-01 -->
      <defs>
       <path d="M 19.1875 8.296875 
L 53.609375 8.296875 
L 53.609375 0 
L 7.328125 0 
L 7.328125 8.296875 
Q 12.9375 14.109375 22.625 23.890625 
Q 32.328125 33.6875 34.8125 36.53125 
Q 39.546875 41.84375 41.421875 45.53125 
Q 43.3125 49.21875 43.3125 52.78125 
Q 43.3125 58.59375 39.234375 62.25 
Q 35.15625 65.921875 28.609375 65.921875 
Q 23.96875 65.921875 18.8125 64.3125 
Q 13.671875 62.703125 7.8125 59.421875 
L 7.8125 69.390625 
Q 13.765625 71.78125 18.9375 73 
Q 24.125 74.21875 28.421875 74.21875 
Q 39.75 74.21875 46.484375 68.546875 
Q 53.21875 62.890625 53.21875 53.421875 
Q 53.21875 48.921875 51.53125 44.890625 
Q 49.859375 40.875 45.40625 35.40625 
Q 44.1875 33.984375 37.640625 27.21875 
Q 31.109375 20.453125 19.1875 8.296875 
z
" id="DejaVuSans-50"/>
       <path d="M 31.78125 66.40625 
Q 24.171875 66.40625 20.328125 58.90625 
Q 16.5 51.421875 16.5 36.375 
Q 16.5 21.390625 20.328125 13.890625 
Q 24.171875 6.390625 31.78125 6.390625 
Q 39.453125 6.390625 43.28125 13.890625 
Q 47.125 21.390625 47.125 36.375 
Q 47.125 51.421875 43.28125 58.90625 
Q 39.453125 66.40625 31.78125 66.40625 
z
M 31.78125 74.21875 
Q 44.046875 74.21875 50.515625 64.515625 
Q 56.984375 54.828125 56.984375 36.375 
Q 56.984375 17.96875 50.515625 8.265625 
Q 44.046875 -1.421875 31.78125 -1.421875 
Q 19.53125 -1.421875 13.0625 8.265625 
Q 6.59375 17.96875 6.59375 36.375 
Q 6.59375 54.828125 13.0625 64.515625 
Q 19.53125 74.21875 31.78125 74.21875 
z
" id="DejaVuSans-48"/>
       <path d="M 4.890625 31.390625 
L 31.203125 31.390625 
L 31.203125 23.390625 
L 4.890625 23.390625 
z
" id="DejaVuSans-45"/>
       <path d="M 40.578125 39.3125 
Q 47.65625 37.796875 51.625 33 
Q 55.609375 28.21875 55.609375 21.1875 
Q 55.609375 10.40625 48.1875 4.484375 
Q 40.765625 -1.421875 27.09375 -1.421875 
Q 22.515625 -1.421875 17.65625 -0.515625 
Q 12.796875 0.390625 7.625 2.203125 
L 7.625 11.71875 
Q 11.71875 9.328125 16.59375 8.109375 
Q 21.484375 6.890625 26.8125 6.890625 
Q 36.078125 6.890625 40.9375 10.546875 
Q 45.796875 14.203125 45.796875 21.1875 
Q 45.796875 27.640625 41.28125 31.265625 
Q 36.765625 34.90625 28.71875 34.90625 
L 20.21875 34.90625 
L 20.21875 43.015625 
L 29.109375 43.015625 
Q 36.375 43.015625 40.234375 45.921875 
Q 44.09375 48.828125 44.09375 54.296875 
Q 44.09375 59.90625 40.109375 62.90625 
Q 36.140625 65.921875 28.71875 65.921875 
Q 24.65625 65.921875 20.015625 65.03125 
Q 15.375 64.15625 9.8125 62.3125 
L 9.8125 71.09375 
Q 15.4375 72.65625 20.34375 73.4375 
Q 25.25 74.21875 29.59375 74.21875 
Q 40.828125 74.21875 47.359375 69.109375 
Q 53.90625 64.015625 53.90625 55.328125 
Q 53.90625 49.265625 50.4375 45.09375 
Q 46.96875 40.921875 40.578125 39.3125 
z
" id="DejaVuSans-51"/>
       <path d="M 12.40625 8.296875 
L 28.515625 8.296875 
L 28.515625 63.921875 
L 10.984375 60.40625 
L 10.984375 69.390625 
L 28.421875 72.90625 
L 38.28125 72.90625 
L 38.28125 8.296875 
L 54.390625 8.296875 
L 54.390625 0 
L 12.40625 0 
z
" id="DejaVuSans-49"/>
      </defs>
      <g transform="translate(46.626434 550.129728)rotate(-30)scale(0.13 -0.13)">
       <use xlink:href="#DejaVuSans-50"/>
       <use x="63.623047" xlink:href="#DejaVuSans-48"/>
       <use x="127.246094" xlink:href="#DejaVuSans-50"/>
       <use x="190.869141" xlink:href="#DejaVuSans-48"/>
       <use x="254.492188" xlink:href="#DejaVuSans-45"/>
       <use x="290.576172" xlink:href="#DejaVuSans-48"/>
       <use x="354.199219" xlink:href="#DejaVuSans-51"/>
       <use x="417.822266" xlink:href="#DejaVuSans-45"/>
       <use x="453.90625" xlink:href="#DejaVuSans-48"/>
       <use x="517.529297" xlink:href="#DejaVuSans-49"/>
      </g>
     </g>
    </g>
    <g id="xtick_2">
     <g id="line2d_2">
      <g>
       <use style="stroke:#000000;stroke-width:0.8;" x="226.133994" xlink:href="#mb9755d8950" y="496.8"/>
      </g>
     </g>
     <g id="text_2">
      <!-- 2020-03-15 -->
      <defs>
       <path d="M 10.796875 72.90625 
L 49.515625 72.90625 
L 49.515625 64.59375 
L 19.828125 64.59375 
L 19.828125 46.734375 
Q 21.96875 47.46875 24.109375 47.828125 
Q 26.265625 48.1875 28.421875 48.1875 
Q 40.625 48.1875 47.75 41.5 
Q 54.890625 34.8125 54.890625 23.390625 
Q 54.890625 11.625 47.5625 5.09375 
Q 40.234375 -1.421875 26.90625 -1.421875 
Q 22.3125 -1.421875 17.546875 -0.640625 
Q 12.796875 0.140625 7.71875 1.703125 
L 7.71875 11.625 
Q 12.109375 9.234375 16.796875 8.0625 
Q 21.484375 6.890625 26.703125 6.890625 
Q 35.15625 6.890625 40.078125 11.328125 
Q 45.015625 15.765625 45.015625 23.390625 
Q 45.015625 31 40.078125 35.4375 
Q 35.15625 39.890625 26.703125 39.890625 
Q 22.75 39.890625 18.8125 39.015625 
Q 14.890625 38.140625 10.796875 36.28125 
z
" id="DejaVuSans-53"/>
      </defs>
      <g transform="translate(159.353707 550.129728)rotate(-30)scale(0.13 -0.13)">
       <use xlink:href="#DejaVuSans-50"/>
       <use x="63.623047" xlink:href="#DejaVuSans-48"/>
       <use x="127.246094" xlink:href="#DejaVuSans-50"/>
       <use x="190.869141" xlink:href="#DejaVuSans-48"/>
       <use x="254.492188" xlink:href="#DejaVuSans-45"/>
       <use x="290.576172" xlink:href="#DejaVuSans-48"/>
       <use x="354.199219" xlink:href="#DejaVuSans-51"/>
       <use x="417.822266" xlink:href="#DejaVuSans-45"/>
       <use x="453.90625" xlink:href="#DejaVuSans-49"/>
       <use x="517.529297" xlink:href="#DejaVuSans-53"/>
      </g>
     </g>
    </g>
    <g id="xtick_3">
     <g id="line2d_3">
      <g>
       <use style="stroke:#000000;stroke-width:0.8;" x="363.01711" xlink:href="#mb9755d8950" y="496.8"/>
      </g>
     </g>
     <g id="text_3">
      <!-- 2020-04-01 -->
      <defs>
       <path d="M 37.796875 64.3125 
L 12.890625 25.390625 
L 37.796875 25.390625 
z
M 35.203125 72.90625 
L 47.609375 72.90625 
L 47.609375 25.390625 
L 58.015625 25.390625 
L 58.015625 17.1875 
L 47.609375 17.1875 
L 47.609375 0 
L 37.796875 0 
L 37.796875 17.1875 
L 4.890625 17.1875 
L 4.890625 26.703125 
z
" id="DejaVuSans-52"/>
      </defs>
      <g transform="translate(296.236824 550.129728)rotate(-30)scale(0.13 -0.13)">
       <use xlink:href="#DejaVuSans-50"/>
       <use x="63.623047" xlink:href="#DejaVuSans-48"/>
       <use x="127.246094" xlink:href="#DejaVuSans-50"/>
       <use x="190.869141" xlink:href="#DejaVuSans-48"/>
       <use x="254.492188" xlink:href="#DejaVuSans-45"/>
       <use x="290.576172" xlink:href="#DejaVuSans-48"/>
       <use x="354.199219" xlink:href="#DejaVuSans-52"/>
       <use x="417.822266" xlink:href="#DejaVuSans-45"/>
       <use x="453.90625" xlink:href="#DejaVuSans-48"/>
       <use x="517.529297" xlink:href="#DejaVuSans-49"/>
      </g>
     </g>
    </g>
    <g id="xtick_4">
     <g id="line2d_4">
      <g>
       <use style="stroke:#000000;stroke-width:0.8;" x="475.744383" xlink:href="#mb9755d8950" y="496.8"/>
      </g>
     </g>
     <g id="text_4">
      <!-- 2020-04-15 -->
      <g transform="translate(408.964096 550.129728)rotate(-30)scale(0.13 -0.13)">
       <use xlink:href="#DejaVuSans-50"/>
       <use x="63.623047" xlink:href="#DejaVuSans-48"/>
       <use x="127.246094" xlink:href="#DejaVuSans-50"/>
       <use x="190.869141" xlink:href="#DejaVuSans-48"/>
       <use x="254.492188" xlink:href="#DejaVuSans-45"/>
       <use x="290.576172" xlink:href="#DejaVuSans-48"/>
       <use x="354.199219" xlink:href="#DejaVuSans-52"/>
       <use x="417.822266" xlink:href="#DejaVuSans-45"/>
       <use x="453.90625" xlink:href="#DejaVuSans-49"/>
       <use x="517.529297" xlink:href="#DejaVuSans-53"/>
      </g>
     </g>
    </g>
    <g id="xtick_5">
     <g id="line2d_5">
      <g>
       <use style="stroke:#000000;stroke-width:0.8;" x="604.575552" xlink:href="#mb9755d8950" y="496.8"/>
      </g>
     </g>
     <g id="text_5">
      <!-- 2020-05-01 -->
      <g transform="translate(537.795265 550.129728)rotate(-30)scale(0.13 -0.13)">
       <use xlink:href="#DejaVuSans-50"/>
       <use x="63.623047" xlink:href="#DejaVuSans-48"/>
       <use x="127.246094" xlink:href="#DejaVuSans-50"/>
       <use x="190.869141" xlink:href="#DejaVuSans-48"/>
       <use x="254.492188" xlink:href="#DejaVuSans-45"/>
       <use x="290.576172" xlink:href="#DejaVuSans-48"/>
       <use x="354.199219" xlink:href="#DejaVuSans-53"/>
       <use x="417.822266" xlink:href="#DejaVuSans-45"/>
       <use x="453.90625" xlink:href="#DejaVuSans-48"/>
       <use x="517.529297" xlink:href="#DejaVuSans-49"/>
      </g>
     </g>
    </g>
    <g id="xtick_6">
     <g id="line2d_6">
      <g>
       <use style="stroke:#000000;stroke-width:0.8;" x="717.302825" xlink:href="#mb9755d8950" y="496.8"/>
      </g>
     </g>
     <g id="text_6">
      <!-- 2020-05-15 -->
      <g transform="translate(650.522538 550.129728)rotate(-30)scale(0.13 -0.13)">
       <use xlink:href="#DejaVuSans-50"/>
       <use x="63.623047" xlink:href="#DejaVuSans-48"/>
       <use x="127.246094" xlink:href="#DejaVuSans-50"/>
       <use x="190.869141" xlink:href="#DejaVuSans-48"/>
       <use x="254.492188" xlink:href="#DejaVuSans-45"/>
       <use x="290.576172" xlink:href="#DejaVuSans-48"/>
       <use x="354.199219" xlink:href="#DejaVuSans-53"/>
       <use x="417.822266" xlink:href="#DejaVuSans-45"/>
       <use x="453.90625" xlink:href="#DejaVuSans-49"/>
       <use x="517.529297" xlink:href="#DejaVuSans-53"/>
      </g>
     </g>
    </g>
    <g id="xtick_7">
     <g id="line2d_7">
      <g>
       <use style="stroke:#000000;stroke-width:0.8;" x="854.185942" xlink:href="#mb9755d8950" y="496.8"/>
      </g>
     </g>
     <g id="text_7">
      <!-- 2020-06-01 -->
      <defs>
       <path d="M 33.015625 40.375 
Q 26.375 40.375 22.484375 35.828125 
Q 18.609375 31.296875 18.609375 23.390625 
Q 18.609375 15.53125 22.484375 10.953125 
Q 26.375 6.390625 33.015625 6.390625 
Q 39.65625 6.390625 43.53125 10.953125 
Q 47.40625 15.53125 47.40625 23.390625 
Q 47.40625 31.296875 43.53125 35.828125 
Q 39.65625 40.375 33.015625 40.375 
z
M 52.59375 71.296875 
L 52.59375 62.3125 
Q 48.875 64.0625 45.09375 64.984375 
Q 41.3125 65.921875 37.59375 65.921875 
Q 27.828125 65.921875 22.671875 59.328125 
Q 17.53125 52.734375 16.796875 39.40625 
Q 19.671875 43.65625 24.015625 45.921875 
Q 28.375 48.1875 33.59375 48.1875 
Q 44.578125 48.1875 50.953125 41.515625 
Q 57.328125 34.859375 57.328125 23.390625 
Q 57.328125 12.15625 50.6875 5.359375 
Q 44.046875 -1.421875 33.015625 -1.421875 
Q 20.359375 -1.421875 13.671875 8.265625 
Q 6.984375 17.96875 6.984375 36.375 
Q 6.984375 53.65625 15.1875 63.9375 
Q 23.390625 74.21875 37.203125 74.21875 
Q 40.921875 74.21875 44.703125 73.484375 
Q 48.484375 72.75 52.59375 71.296875 
z
" id="DejaVuSans-54"/>
      </defs>
      <g transform="translate(787.405655 550.129728)rotate(-30)scale(0.13 -0.13)">
       <use xlink:href="#DejaVuSans-50"/>
       <use x="63.623047" xlink:href="#DejaVuSans-48"/>
       <use x="127.246094" xlink:href="#DejaVuSans-50"/>
       <use x="190.869141" xlink:href="#DejaVuSans-48"/>
       <use x="254.492188" xlink:href="#DejaVuSans-45"/>
       <use x="290.576172" xlink:href="#DejaVuSans-48"/>
       <use x="354.199219" xlink:href="#DejaVuSans-54"/>
       <use x="417.822266" xlink:href="#DejaVuSans-45"/>
       <use x="453.90625" xlink:href="#DejaVuSans-48"/>
       <use x="517.529297" xlink:href="#DejaVuSans-49"/>
      </g>
     </g>
    </g>
    <g id="xtick_8">
     <g id="line2d_8">
      <g>
       <use style="stroke:#000000;stroke-width:0.8;" x="966.913214" xlink:href="#mb9755d8950" y="496.8"/>
      </g>
     </g>
     <g id="text_8">
      <!-- 2020-06-15 -->
      <g transform="translate(900.132928 550.129728)rotate(-30)scale(0.13 -0.13)">
       <use xlink:href="#DejaVuSans-50"/>
       <use x="63.623047" xlink:href="#DejaVuSans-48"/>
       <use x="127.246094" xlink:href="#DejaVuSans-50"/>
       <use x="190.869141" xlink:href="#DejaVuSans-48"/>
       <use x="254.492188" xlink:href="#DejaVuSans-45"/>
       <use x="290.576172" xlink:href="#DejaVuSans-48"/>
       <use x="354.199219" xlink:href="#DejaVuSans-54"/>
       <use x="417.822266" xlink:href="#DejaVuSans-45"/>
       <use x="453.90625" xlink:href="#DejaVuSans-49"/>
       <use x="517.529297" xlink:href="#DejaVuSans-53"/>
      </g>
     </g>
    </g>
    <g id="xtick_9">
     <g id="line2d_9">
      <g>
       <use style="stroke:#000000;stroke-width:0.8;" x="1095.744383" xlink:href="#mb9755d8950" y="496.8"/>
      </g>
     </g>
     <g id="text_9">
      <!-- 2020-07-01 -->
      <defs>
       <path d="M 8.203125 72.90625 
L 55.078125 72.90625 
L 55.078125 68.703125 
L 28.609375 0 
L 18.3125 0 
L 43.21875 64.59375 
L 8.203125 64.59375 
z
" id="DejaVuSans-55"/>
      </defs>
      <g transform="translate(1028.964096 550.129728)rotate(-30)scale(0.13 -0.13)">
       <use xlink:href="#DejaVuSans-50"/>
       <use x="63.623047" xlink:href="#DejaVuSans-48"/>
       <use x="127.246094" xlink:href="#DejaVuSans-50"/>
       <use x="190.869141" xlink:href="#DejaVuSans-48"/>
       <use x="254.492188" xlink:href="#DejaVuSans-45"/>
       <use x="290.576172" xlink:href="#DejaVuSans-48"/>
       <use x="354.199219" xlink:href="#DejaVuSans-55"/>
       <use x="417.822266" xlink:href="#DejaVuSans-45"/>
       <use x="453.90625" xlink:href="#DejaVuSans-48"/>
       <use x="517.529297" xlink:href="#DejaVuSans-49"/>
      </g>
     </g>
    </g>
   </g>
   <g id="matplotlib.axis_2">
    <g id="ytick_1">
     <g id="line2d_10">
      <path clip-path="url(#p9a48d0d542)" d="M 54.6275 474.545455 
L 1170.6275 474.545455 
" style="fill:none;stroke:#b0b0b0;stroke-linecap:square;stroke-width:0.8;"/>
     </g>
     <g id="line2d_11">
      <defs>
       <path d="M 0 0 
L -3.5 0 
" id="m41d042edb6" style="stroke:#000000;stroke-width:0.8;"/>
      </defs>
      <g>
       <use style="stroke:#000000;stroke-width:0.8;" x="54.6275" xlink:href="#m41d042edb6" y="474.545455"/>
      </g>
     </g>
     <g id="text_10">
      <!-- 0 -->
      <g transform="translate(39.35625 479.484439)scale(0.13 -0.13)">
       <use xlink:href="#DejaVuSans-48"/>
      </g>
     </g>
    </g>
    <g id="ytick_2">
     <g id="line2d_12">
      <path clip-path="url(#p9a48d0d542)" d="M 54.6275 412.468619 
L 1170.6275 412.468619 
" style="fill:none;stroke:#b0b0b0;stroke-linecap:square;stroke-width:0.8;"/>
     </g>
     <g id="line2d_13">
      <g>
       <use style="stroke:#000000;stroke-width:0.8;" x="54.6275" xlink:href="#m41d042edb6" y="412.468619"/>
      </g>
     </g>
     <g id="text_11">
      <!-- 100 -->
      <g transform="translate(22.81375 417.407604)scale(0.13 -0.13)">
       <use xlink:href="#DejaVuSans-49"/>
       <use x="63.623047" xlink:href="#DejaVuSans-48"/>
       <use x="127.246094" xlink:href="#DejaVuSans-48"/>
      </g>
     </g>
    </g>
    <g id="ytick_3">
     <g id="line2d_14">
      <path clip-path="url(#p9a48d0d542)" d="M 54.6275 350.391784 
L 1170.6275 350.391784 
" style="fill:none;stroke:#b0b0b0;stroke-linecap:square;stroke-width:0.8;"/>
     </g>
     <g id="line2d_15">
      <g>
       <use style="stroke:#000000;stroke-width:0.8;" x="54.6275" xlink:href="#m41d042edb6" y="350.391784"/>
      </g>
     </g>
     <g id="text_12">
      <!-- 200 -->
      <g transform="translate(22.81375 355.330768)scale(0.13 -0.13)">
       <use xlink:href="#DejaVuSans-50"/>
       <use x="63.623047" xlink:href="#DejaVuSans-48"/>
       <use x="127.246094" xlink:href="#DejaVuSans-48"/>
      </g>
     </g>
    </g>
    <g id="ytick_4">
     <g id="line2d_16">
      <path clip-path="url(#p9a48d0d542)" d="M 54.6275 288.314949 
L 1170.6275 288.314949 
" style="fill:none;stroke:#b0b0b0;stroke-linecap:square;stroke-width:0.8;"/>
     </g>
     <g id="line2d_17">
      <g>
       <use style="stroke:#000000;stroke-width:0.8;" x="54.6275" xlink:href="#m41d042edb6" y="288.314949"/>
      </g>
     </g>
     <g id="text_13">
      <!-- 300 -->
      <g transform="translate(22.81375 293.253933)scale(0.13 -0.13)">
       <use xlink:href="#DejaVuSans-51"/>
       <use x="63.623047" xlink:href="#DejaVuSans-48"/>
       <use x="127.246094" xlink:href="#DejaVuSans-48"/>
      </g>
     </g>
    </g>
    <g id="ytick_5">
     <g id="line2d_18">
      <path clip-path="url(#p9a48d0d542)" d="M 54.6275 226.238113 
L 1170.6275 226.238113 
" style="fill:none;stroke:#b0b0b0;stroke-linecap:square;stroke-width:0.8;"/>
     </g>
     <g id="line2d_19">
      <g>
       <use style="stroke:#000000;stroke-width:0.8;" x="54.6275" xlink:href="#m41d042edb6" y="226.238113"/>
      </g>
     </g>
     <g id="text_14">
      <!-- 400 -->
      <g transform="translate(22.81375 231.177098)scale(0.13 -0.13)">
       <use xlink:href="#DejaVuSans-52"/>
       <use x="63.623047" xlink:href="#DejaVuSans-48"/>
       <use x="127.246094" xlink:href="#DejaVuSans-48"/>
      </g>
     </g>
    </g>
    <g id="ytick_6">
     <g id="line2d_20">
      <path clip-path="url(#p9a48d0d542)" d="M 54.6275 164.161278 
L 1170.6275 164.161278 
" style="fill:none;stroke:#b0b0b0;stroke-linecap:square;stroke-width:0.8;"/>
     </g>
     <g id="line2d_21">
      <g>
       <use style="stroke:#000000;stroke-width:0.8;" x="54.6275" xlink:href="#m41d042edb6" y="164.161278"/>
      </g>
     </g>
     <g id="text_15">
      <!-- 500 -->
      <g transform="translate(22.81375 169.100262)scale(0.13 -0.13)">
       <use xlink:href="#DejaVuSans-53"/>
       <use x="63.623047" xlink:href="#DejaVuSans-48"/>
       <use x="127.246094" xlink:href="#DejaVuSans-48"/>
      </g>
     </g>
    </g>
    <g id="ytick_7">
     <g id="line2d_22">
      <path clip-path="url(#p9a48d0d542)" d="M 54.6275 102.084443 
L 1170.6275 102.084443 
" style="fill:none;stroke:#b0b0b0;stroke-linecap:square;stroke-width:0.8;"/>
     </g>
     <g id="line2d_23">
      <g>
       <use style="stroke:#000000;stroke-width:0.8;" x="54.6275" xlink:href="#m41d042edb6" y="102.084443"/>
      </g>
     </g>
     <g id="text_16">
      <!-- 600 -->
      <g transform="translate(22.81375 107.023427)scale(0.13 -0.13)">
       <use xlink:href="#DejaVuSans-54"/>
       <use x="63.623047" xlink:href="#DejaVuSans-48"/>
       <use x="127.246094" xlink:href="#DejaVuSans-48"/>
      </g>
     </g>
    </g>
    <g id="ytick_8">
     <g id="line2d_24">
      <path clip-path="url(#p9a48d0d542)" d="M 54.6275 40.007607 
L 1170.6275 40.007607 
" style="fill:none;stroke:#b0b0b0;stroke-linecap:square;stroke-width:0.8;"/>
     </g>
     <g id="line2d_25">
      <g>
       <use style="stroke:#000000;stroke-width:0.8;" x="54.6275" xlink:href="#m41d042edb6" y="40.007607"/>
      </g>
     </g>
     <g id="text_17">
      <!-- 700 -->
      <g transform="translate(22.81375 44.946592)scale(0.13 -0.13)">
       <use xlink:href="#DejaVuSans-55"/>
       <use x="63.623047" xlink:href="#DejaVuSans-48"/>
       <use x="127.246094" xlink:href="#DejaVuSans-48"/>
      </g>
     </g>
    </g>
    <g id="text_18">
     <!-- Anzahl von Fällen -->
     <defs>
      <path d="M 34.1875 63.1875 
L 20.796875 26.90625 
L 47.609375 26.90625 
z
M 28.609375 72.90625 
L 39.796875 72.90625 
L 67.578125 0 
L 57.328125 0 
L 50.6875 18.703125 
L 17.828125 18.703125 
L 11.1875 0 
L 0.78125 0 
z
" id="DejaVuSans-65"/>
      <path d="M 54.890625 33.015625 
L 54.890625 0 
L 45.90625 0 
L 45.90625 32.71875 
Q 45.90625 40.484375 42.875 44.328125 
Q 39.84375 48.1875 33.796875 48.1875 
Q 26.515625 48.1875 22.3125 43.546875 
Q 18.109375 38.921875 18.109375 30.90625 
L 18.109375 0 
L 9.078125 0 
L 9.078125 54.6875 
L 18.109375 54.6875 
L 18.109375 46.1875 
Q 21.34375 51.125 25.703125 53.5625 
Q 30.078125 56 35.796875 56 
Q 45.21875 56 50.046875 50.171875 
Q 54.890625 44.34375 54.890625 33.015625 
z
" id="DejaVuSans-110"/>
      <path d="M 5.515625 54.6875 
L 48.1875 54.6875 
L 48.1875 46.484375 
L 14.40625 7.171875 
L 48.1875 7.171875 
L 48.1875 0 
L 4.296875 0 
L 4.296875 8.203125 
L 38.09375 47.515625 
L 5.515625 47.515625 
z
" id="DejaVuSans-122"/>
      <path d="M 34.28125 27.484375 
Q 23.390625 27.484375 19.1875 25 
Q 14.984375 22.515625 14.984375 16.5 
Q 14.984375 11.71875 18.140625 8.90625 
Q 21.296875 6.109375 26.703125 6.109375 
Q 34.1875 6.109375 38.703125 11.40625 
Q 43.21875 16.703125 43.21875 25.484375 
L 43.21875 27.484375 
z
M 52.203125 31.203125 
L 52.203125 0 
L 43.21875 0 
L 43.21875 8.296875 
Q 40.140625 3.328125 35.546875 0.953125 
Q 30.953125 -1.421875 24.3125 -1.421875 
Q 15.921875 -1.421875 10.953125 3.296875 
Q 6 8.015625 6 15.921875 
Q 6 25.140625 12.171875 29.828125 
Q 18.359375 34.515625 30.609375 34.515625 
L 43.21875 34.515625 
L 43.21875 35.40625 
Q 43.21875 41.609375 39.140625 45 
Q 35.0625 48.390625 27.6875 48.390625 
Q 23 48.390625 18.546875 47.265625 
Q 14.109375 46.140625 10.015625 43.890625 
L 10.015625 52.203125 
Q 14.9375 54.109375 19.578125 55.046875 
Q 24.21875 56 28.609375 56 
Q 40.484375 56 46.34375 49.84375 
Q 52.203125 43.703125 52.203125 31.203125 
z
" id="DejaVuSans-97"/>
      <path d="M 54.890625 33.015625 
L 54.890625 0 
L 45.90625 0 
L 45.90625 32.71875 
Q 45.90625 40.484375 42.875 44.328125 
Q 39.84375 48.1875 33.796875 48.1875 
Q 26.515625 48.1875 22.3125 43.546875 
Q 18.109375 38.921875 18.109375 30.90625 
L 18.109375 0 
L 9.078125 0 
L 9.078125 75.984375 
L 18.109375 75.984375 
L 18.109375 46.1875 
Q 21.34375 51.125 25.703125 53.5625 
Q 30.078125 56 35.796875 56 
Q 45.21875 56 50.046875 50.171875 
Q 54.890625 44.34375 54.890625 33.015625 
z
" id="DejaVuSans-104"/>
      <path d="M 9.421875 75.984375 
L 18.40625 75.984375 
L 18.40625 0 
L 9.421875 0 
z
" id="DejaVuSans-108"/>
      <path id="DejaVuSans-32"/>
      <path d="M 2.984375 54.6875 
L 12.5 54.6875 
L 29.59375 8.796875 
L 46.6875 54.6875 
L 56.203125 54.6875 
L 35.6875 0 
L 23.484375 0 
z
" id="DejaVuSans-118"/>
      <path d="M 30.609375 48.390625 
Q 23.390625 48.390625 19.1875 42.75 
Q 14.984375 37.109375 14.984375 27.296875 
Q 14.984375 17.484375 19.15625 11.84375 
Q 23.34375 6.203125 30.609375 6.203125 
Q 37.796875 6.203125 41.984375 11.859375 
Q 46.1875 17.53125 46.1875 27.296875 
Q 46.1875 37.015625 41.984375 42.703125 
Q 37.796875 48.390625 30.609375 48.390625 
z
M 30.609375 56 
Q 42.328125 56 49.015625 48.375 
Q 55.71875 40.765625 55.71875 27.296875 
Q 55.71875 13.875 49.015625 6.21875 
Q 42.328125 -1.421875 30.609375 -1.421875 
Q 18.84375 -1.421875 12.171875 6.21875 
Q 5.515625 13.875 5.515625 27.296875 
Q 5.515625 40.765625 12.171875 48.375 
Q 18.84375 56 30.609375 56 
z
" id="DejaVuSans-111"/>
      <path d="M 9.8125 72.90625 
L 51.703125 72.90625 
L 51.703125 64.59375 
L 19.671875 64.59375 
L 19.671875 43.109375 
L 48.578125 43.109375 
L 48.578125 34.8125 
L 19.671875 34.8125 
L 19.671875 0 
L 9.8125 0 
z
" id="DejaVuSans-70"/>
      <path d="M 34.28125 27.484375 
Q 23.390625 27.484375 19.1875 25 
Q 14.984375 22.515625 14.984375 16.5 
Q 14.984375 11.71875 18.140625 8.90625 
Q 21.296875 6.109375 26.703125 6.109375 
Q 34.1875 6.109375 38.703125 11.40625 
Q 43.21875 16.703125 43.21875 25.484375 
L 43.21875 27.484375 
z
M 52.203125 31.203125 
L 52.203125 0 
L 43.21875 0 
L 43.21875 8.296875 
Q 40.140625 3.328125 35.546875 0.953125 
Q 30.953125 -1.421875 24.3125 -1.421875 
Q 15.921875 -1.421875 10.953125 3.296875 
Q 6 8.015625 6 15.921875 
Q 6 25.140625 12.171875 29.828125 
Q 18.359375 34.515625 30.609375 34.515625 
L 43.21875 34.515625 
L 43.21875 35.40625 
Q 43.21875 41.609375 39.140625 45 
Q 35.0625 48.390625 27.6875 48.390625 
Q 23 48.390625 18.546875 47.265625 
Q 14.109375 46.140625 10.015625 43.890625 
L 10.015625 52.203125 
Q 14.9375 54.109375 19.578125 55.046875 
Q 24.21875 56 28.609375 56 
Q 40.484375 56 46.34375 49.84375 
Q 52.203125 43.703125 52.203125 31.203125 
z
M 33.59375 75.78125 
L 43.5 75.78125 
L 43.5 65.921875 
L 33.59375 65.921875 
z
M 14.5 75.78125 
L 24.40625 75.78125 
L 24.40625 65.921875 
L 14.5 65.921875 
z
" id="DejaVuSans-228"/>
      <path d="M 56.203125 29.59375 
L 56.203125 25.203125 
L 14.890625 25.203125 
Q 15.484375 15.921875 20.484375 11.0625 
Q 25.484375 6.203125 34.421875 6.203125 
Q 39.59375 6.203125 44.453125 7.46875 
Q 49.3125 8.734375 54.109375 11.28125 
L 54.109375 2.78125 
Q 49.265625 0.734375 44.1875 -0.34375 
Q 39.109375 -1.421875 33.890625 -1.421875 
Q 20.796875 -1.421875 13.15625 6.1875 
Q 5.515625 13.8125 5.515625 26.8125 
Q 5.515625 40.234375 12.765625 48.109375 
Q 20.015625 56 32.328125 56 
Q 43.359375 56 49.78125 48.890625 
Q 56.203125 41.796875 56.203125 29.59375 
z
M 47.21875 32.234375 
Q 47.125 39.59375 43.09375 43.984375 
Q 39.0625 48.390625 32.421875 48.390625 
Q 24.90625 48.390625 20.390625 44.140625 
Q 15.875 39.890625 15.1875 32.171875 
z
" id="DejaVuSans-101"/>
     </defs>
     <g transform="translate(16.318125 304.449375)rotate(-90)scale(0.12 -0.12)">
      <use xlink:href="#DejaVuSans-65"/>
      <use x="68.408203" xlink:href="#DejaVuSans-110"/>
      <use x="131.787109" xlink:href="#DejaVuSans-122"/>
      <use x="184.277344" xlink:href="#DejaVuSans-97"/>
      <use x="245.556641" xlink:href="#DejaVuSans-104"/>
      <use x="308.935547" xlink:href="#DejaVuSans-108"/>
      <use x="336.71875" xlink:href="#DejaVuSans-32"/>
      <use x="368.505859" xlink:href="#DejaVuSans-118"/>
      <use x="427.685547" xlink:href="#DejaVuSans-111"/>
      <use x="488.867188" xlink:href="#DejaVuSans-110"/>
      <use x="552.246094" xlink:href="#DejaVuSans-32"/>
      <use x="584.033203" xlink:href="#DejaVuSans-70"/>
      <use x="632.427734" xlink:href="#DejaVuSans-228"/>
      <use x="693.707031" xlink:href="#DejaVuSans-108"/>
      <use x="721.490234" xlink:href="#DejaVuSans-108"/>
      <use x="749.273438" xlink:href="#DejaVuSans-101"/>
      <use x="810.796875" xlink:href="#DejaVuSans-110"/>
     </g>
    </g>
   </g>
   <g id="line2d_26">
    <path clip-path="url(#p9a48d0d542)" d="M 105.354773 474.545455 
L 129.510617 474.545455 
L 145.614513 474.545455 
L 177.822305 474.545455 
L 185.874253 474.545455 
L 193.926201 474.545455 
L 201.978149 474.545455 
L 210.030097 474.545455 
L 218.082045 474.545455 
L 226.133994 474.545455 
L 234.185942 473.303918 
L 242.23789 472.062381 
L 250.289838 471.441613 
L 258.341786 471.441613 
L 266.393734 470.820844 
L 274.445682 470.820844 
L 282.49763 470.820844 
L 290.549578 467.096234 
L 298.601526 460.267782 
L 306.653474 449.093952 
L 314.705422 434.195512 
L 322.75737 411.847851 
L 330.809318 411.847851 
L 346.913214 401.294789 
L 354.965162 381.430202 
L 363.01711 356.599467 
L 371.069058 335.493343 
L 379.121006 306.937999 
L 403.276851 278.382655 
L 411.328799 246.723469 
L 419.380747 234.92887 
L 427.432695 219.409661 
L 435.484643 218.788893 
L 467.692435 190.854317 
L 475.744383 175.335108 
L 483.796331 175.335108 
L 491.848279 168.506657 
L 499.900227 168.506657 
L 516.004123 162.298973 
L 524.056071 151.125143 
L 532.108019 141.813617 
L 540.159968 136.226702 
L 548.211916 131.260555 
L 556.263864 128.777482 
L 572.36776 128.777482 
L 580.419708 128.777482 
L 588.471656 116.362115 
L 596.523604 114.49981 
L 612.6275 112.637505 
L 628.731396 110.7752 
L 636.783344 102.705211 
L 644.835292 102.705211 
L 652.88724 94.014454 
L 660.939188 94.014454 
L 668.991136 94.014454 
L 685.095032 94.014454 
L 693.146981 94.014454 
L 701.198929 94.014454 
L 709.250877 93.393686 
L 717.302825 91.531381 
L 725.354773 90.289844 
L 741.458669 90.289844 
L 749.510617 90.289844 
L 757.562565 87.806771 
L 773.666461 87.186002 
L 781.718409 82.840624 
L 797.822305 82.840624 
L 805.874253 79.116014 
L 821.978149 72.287562 
L 830.030097 69.18372 
L 862.23789 62.976037 
L 870.289838 51.802206 
L 878.341786 51.181438 
L 886.393734 48.077596 
L 894.445682 46.215291 
L 910.549578 46.215291 
L 918.601526 44.973754 
L 926.653474 44.352986 
L 942.75737 44.352986 
L 950.809318 42.490681 
L 966.913214 42.490681 
L 983.01711 37.524534 
L 999.121006 35.662229 
L 1007.172955 35.662229 
L 1023.276851 35.662229 
L 1031.328799 34.420692 
L 1039.380747 33.799924 
L 1047.432695 33.799924 
L 1063.536591 31.937619 
L 1079.640487 31.937619 
L 1087.692435 30.696082 
L 1095.744383 30.696082 
L 1103.796331 30.696082 
L 1111.848279 30.075314 
L 1119.900227 29.454545 
" style="fill:none;stroke:#dbcd00;stroke-linecap:square;stroke-width:2;"/>
    <defs>
     <path d="M 0 1.5 
C 0.397805 1.5 0.77937 1.341951 1.06066 1.06066 
C 1.341951 0.77937 1.5 0.397805 1.5 0 
C 1.5 -0.397805 1.341951 -0.77937 1.06066 -1.06066 
C 0.77937 -1.341951 0.397805 -1.5 0 -1.5 
C -0.397805 -1.5 -0.77937 -1.341951 -1.06066 -1.06066 
C -1.341951 -0.77937 -1.5 -0.397805 -1.5 0 
C -1.5 0.397805 -1.341951 0.77937 -1.06066 1.06066 
C -0.77937 1.341951 -0.397805 1.5 0 1.5 
z
" id="m8dc77afec2" style="stroke:#dbcd00;"/>
    </defs>
    <g clip-path="url(#p9a48d0d542)">
     <use style="fill:#dbcd00;stroke:#dbcd00;" x="105.354773" xlink:href="#m8dc77afec2" y="474.545455"/>
     <use style="fill:#dbcd00;stroke:#dbcd00;" x="129.510617" xlink:href="#m8dc77afec2" y="474.545455"/>
     <use style="fill:#dbcd00;stroke:#dbcd00;" x="145.614513" xlink:href="#m8dc77afec2" y="474.545455"/>
     <use style="fill:#dbcd00;stroke:#dbcd00;" x="177.822305" xlink:href="#m8dc77afec2" y="474.545455"/>
     <use style="fill:#dbcd00;stroke:#dbcd00;" x="185.874253" xlink:href="#m8dc77afec2" y="474.545455"/>
     <use style="fill:#dbcd00;stroke:#dbcd00;" x="193.926201" xlink:href="#m8dc77afec2" y="474.545455"/>
     <use style="fill:#dbcd00;stroke:#dbcd00;" x="201.978149" xlink:href="#m8dc77afec2" y="474.545455"/>
     <use style="fill:#dbcd00;stroke:#dbcd00;" x="210.030097" xlink:href="#m8dc77afec2" y="474.545455"/>
     <use style="fill:#dbcd00;stroke:#dbcd00;" x="218.082045" xlink:href="#m8dc77afec2" y="474.545455"/>
     <use style="fill:#dbcd00;stroke:#dbcd00;" x="226.133994" xlink:href="#m8dc77afec2" y="474.545455"/>
     <use style="fill:#dbcd00;stroke:#dbcd00;" x="234.185942" xlink:href="#m8dc77afec2" y="473.303918"/>
     <use style="fill:#dbcd00;stroke:#dbcd00;" x="242.23789" xlink:href="#m8dc77afec2" y="472.062381"/>
     <use style="fill:#dbcd00;stroke:#dbcd00;" x="250.289838" xlink:href="#m8dc77afec2" y="471.441613"/>
     <use style="fill:#dbcd00;stroke:#dbcd00;" x="258.341786" xlink:href="#m8dc77afec2" y="471.441613"/>
     <use style="fill:#dbcd00;stroke:#dbcd00;" x="266.393734" xlink:href="#m8dc77afec2" y="470.820844"/>
     <use style="fill:#dbcd00;stroke:#dbcd00;" x="274.445682" xlink:href="#m8dc77afec2" y="470.820844"/>
     <use style="fill:#dbcd00;stroke:#dbcd00;" x="282.49763" xlink:href="#m8dc77afec2" y="470.820844"/>
     <use style="fill:#dbcd00;stroke:#dbcd00;" x="290.549578" xlink:href="#m8dc77afec2" y="467.096234"/>
     <use style="fill:#dbcd00;stroke:#dbcd00;" x="298.601526" xlink:href="#m8dc77afec2" y="460.267782"/>
     <use style="fill:#dbcd00;stroke:#dbcd00;" x="306.653474" xlink:href="#m8dc77afec2" y="449.093952"/>
     <use style="fill:#dbcd00;stroke:#dbcd00;" x="314.705422" xlink:href="#m8dc77afec2" y="434.195512"/>
     <use style="fill:#dbcd00;stroke:#dbcd00;" x="322.75737" xlink:href="#m8dc77afec2" y="411.847851"/>
     <use style="fill:#dbcd00;stroke:#dbcd00;" x="330.809318" xlink:href="#m8dc77afec2" y="411.847851"/>
     <use style="fill:#dbcd00;stroke:#dbcd00;" x="346.913214" xlink:href="#m8dc77afec2" y="401.294789"/>
     <use style="fill:#dbcd00;stroke:#dbcd00;" x="354.965162" xlink:href="#m8dc77afec2" y="381.430202"/>
     <use style="fill:#dbcd00;stroke:#dbcd00;" x="363.01711" xlink:href="#m8dc77afec2" y="356.599467"/>
     <use style="fill:#dbcd00;stroke:#dbcd00;" x="371.069058" xlink:href="#m8dc77afec2" y="335.493343"/>
     <use style="fill:#dbcd00;stroke:#dbcd00;" x="379.121006" xlink:href="#m8dc77afec2" y="306.937999"/>
     <use style="fill:#dbcd00;stroke:#dbcd00;" x="403.276851" xlink:href="#m8dc77afec2" y="278.382655"/>
     <use style="fill:#dbcd00;stroke:#dbcd00;" x="411.328799" xlink:href="#m8dc77afec2" y="246.723469"/>
     <use style="fill:#dbcd00;stroke:#dbcd00;" x="419.380747" xlink:href="#m8dc77afec2" y="234.92887"/>
     <use style="fill:#dbcd00;stroke:#dbcd00;" x="427.432695" xlink:href="#m8dc77afec2" y="219.409661"/>
     <use style="fill:#dbcd00;stroke:#dbcd00;" x="435.484643" xlink:href="#m8dc77afec2" y="218.788893"/>
     <use style="fill:#dbcd00;stroke:#dbcd00;" x="467.692435" xlink:href="#m8dc77afec2" y="190.854317"/>
     <use style="fill:#dbcd00;stroke:#dbcd00;" x="475.744383" xlink:href="#m8dc77afec2" y="175.335108"/>
     <use style="fill:#dbcd00;stroke:#dbcd00;" x="483.796331" xlink:href="#m8dc77afec2" y="175.335108"/>
     <use style="fill:#dbcd00;stroke:#dbcd00;" x="491.848279" xlink:href="#m8dc77afec2" y="168.506657"/>
     <use style="fill:#dbcd00;stroke:#dbcd00;" x="499.900227" xlink:href="#m8dc77afec2" y="168.506657"/>
     <use style="fill:#dbcd00;stroke:#dbcd00;" x="516.004123" xlink:href="#m8dc77afec2" y="162.298973"/>
     <use style="fill:#dbcd00;stroke:#dbcd00;" x="524.056071" xlink:href="#m8dc77afec2" y="151.125143"/>
     <use style="fill:#dbcd00;stroke:#dbcd00;" x="532.108019" xlink:href="#m8dc77afec2" y="141.813617"/>
     <use style="fill:#dbcd00;stroke:#dbcd00;" x="540.159968" xlink:href="#m8dc77afec2" y="136.226702"/>
     <use style="fill:#dbcd00;stroke:#dbcd00;" x="548.211916" xlink:href="#m8dc77afec2" y="131.260555"/>
     <use style="fill:#dbcd00;stroke:#dbcd00;" x="556.263864" xlink:href="#m8dc77afec2" y="128.777482"/>
     <use style="fill:#dbcd00;stroke:#dbcd00;" x="572.36776" xlink:href="#m8dc77afec2" y="128.777482"/>
     <use style="fill:#dbcd00;stroke:#dbcd00;" x="580.419708" xlink:href="#m8dc77afec2" y="128.777482"/>
     <use style="fill:#dbcd00;stroke:#dbcd00;" x="588.471656" xlink:href="#m8dc77afec2" y="116.362115"/>
     <use style="fill:#dbcd00;stroke:#dbcd00;" x="596.523604" xlink:href="#m8dc77afec2" y="114.49981"/>
     <use style="fill:#dbcd00;stroke:#dbcd00;" x="612.6275" xlink:href="#m8dc77afec2" y="112.637505"/>
     <use style="fill:#dbcd00;stroke:#dbcd00;" x="628.731396" xlink:href="#m8dc77afec2" y="110.7752"/>
     <use style="fill:#dbcd00;stroke:#dbcd00;" x="636.783344" xlink:href="#m8dc77afec2" y="102.705211"/>
     <use style="fill:#dbcd00;stroke:#dbcd00;" x="644.835292" xlink:href="#m8dc77afec2" y="102.705211"/>
     <use style="fill:#dbcd00;stroke:#dbcd00;" x="652.88724" xlink:href="#m8dc77afec2" y="94.014454"/>
     <use style="fill:#dbcd00;stroke:#dbcd00;" x="660.939188" xlink:href="#m8dc77afec2" y="94.014454"/>
     <use style="fill:#dbcd00;stroke:#dbcd00;" x="668.991136" xlink:href="#m8dc77afec2" y="94.014454"/>
     <use style="fill:#dbcd00;stroke:#dbcd00;" x="685.095032" xlink:href="#m8dc77afec2" y="94.014454"/>
     <use style="fill:#dbcd00;stroke:#dbcd00;" x="693.146981" xlink:href="#m8dc77afec2" y="94.014454"/>
     <use style="fill:#dbcd00;stroke:#dbcd00;" x="701.198929" xlink:href="#m8dc77afec2" y="94.014454"/>
     <use style="fill:#dbcd00;stroke:#dbcd00;" x="709.250877" xlink:href="#m8dc77afec2" y="93.393686"/>
     <use style="fill:#dbcd00;stroke:#dbcd00;" x="717.302825" xlink:href="#m8dc77afec2" y="91.531381"/>
     <use style="fill:#dbcd00;stroke:#dbcd00;" x="725.354773" xlink:href="#m8dc77afec2" y="90.289844"/>
     <use style="fill:#dbcd00;stroke:#dbcd00;" x="741.458669" xlink:href="#m8dc77afec2" y="90.289844"/>
     <use style="fill:#dbcd00;stroke:#dbcd00;" x="749.510617" xlink:href="#m8dc77afec2" y="90.289844"/>
     <use style="fill:#dbcd00;stroke:#dbcd00;" x="757.562565" xlink:href="#m8dc77afec2" y="87.806771"/>
     <use style="fill:#dbcd00;stroke:#dbcd00;" x="773.666461" xlink:href="#m8dc77afec2" y="87.186002"/>
     <use style="fill:#dbcd00;stroke:#dbcd00;" x="781.718409" xlink:href="#m8dc77afec2" y="82.840624"/>
     <use style="fill:#dbcd00;stroke:#dbcd00;" x="797.822305" xlink:href="#m8dc77afec2" y="82.840624"/>
     <use style="fill:#dbcd00;stroke:#dbcd00;" x="805.874253" xlink:href="#m8dc77afec2" y="79.116014"/>
     <use style="fill:#dbcd00;stroke:#dbcd00;" x="821.978149" xlink:href="#m8dc77afec2" y="72.287562"/>
     <use style="fill:#dbcd00;stroke:#dbcd00;" x="830.030097" xlink:href="#m8dc77afec2" y="69.18372"/>
     <use style="fill:#dbcd00;stroke:#dbcd00;" x="862.23789" xlink:href="#m8dc77afec2" y="62.976037"/>
     <use style="fill:#dbcd00;stroke:#dbcd00;" x="870.289838" xlink:href="#m8dc77afec2" y="51.802206"/>
     <use style="fill:#dbcd00;stroke:#dbcd00;" x="878.341786" xlink:href="#m8dc77afec2" y="51.181438"/>
     <use style="fill:#dbcd00;stroke:#dbcd00;" x="886.393734" xlink:href="#m8dc77afec2" y="48.077596"/>
     <use style="fill:#dbcd00;stroke:#dbcd00;" x="894.445682" xlink:href="#m8dc77afec2" y="46.215291"/>
     <use style="fill:#dbcd00;stroke:#dbcd00;" x="910.549578" xlink:href="#m8dc77afec2" y="46.215291"/>
     <use style="fill:#dbcd00;stroke:#dbcd00;" x="918.601526" xlink:href="#m8dc77afec2" y="44.973754"/>
     <use style="fill:#dbcd00;stroke:#dbcd00;" x="926.653474" xlink:href="#m8dc77afec2" y="44.352986"/>
     <use style="fill:#dbcd00;stroke:#dbcd00;" x="942.75737" xlink:href="#m8dc77afec2" y="44.352986"/>
     <use style="fill:#dbcd00;stroke:#dbcd00;" x="950.809318" xlink:href="#m8dc77afec2" y="42.490681"/>
     <use style="fill:#dbcd00;stroke:#dbcd00;" x="966.913214" xlink:href="#m8dc77afec2" y="42.490681"/>
     <use style="fill:#dbcd00;stroke:#dbcd00;" x="983.01711" xlink:href="#m8dc77afec2" y="37.524534"/>
     <use style="fill:#dbcd00;stroke:#dbcd00;" x="999.121006" xlink:href="#m8dc77afec2" y="35.662229"/>
     <use style="fill:#dbcd00;stroke:#dbcd00;" x="1007.172955" xlink:href="#m8dc77afec2" y="35.662229"/>
     <use style="fill:#dbcd00;stroke:#dbcd00;" x="1023.276851" xlink:href="#m8dc77afec2" y="35.662229"/>
     <use style="fill:#dbcd00;stroke:#dbcd00;" x="1031.328799" xlink:href="#m8dc77afec2" y="34.420692"/>
     <use style="fill:#dbcd00;stroke:#dbcd00;" x="1039.380747" xlink:href="#m8dc77afec2" y="33.799924"/>
     <use style="fill:#dbcd00;stroke:#dbcd00;" x="1047.432695" xlink:href="#m8dc77afec2" y="33.799924"/>
     <use style="fill:#dbcd00;stroke:#dbcd00;" x="1063.536591" xlink:href="#m8dc77afec2" y="31.937619"/>
     <use style="fill:#dbcd00;stroke:#dbcd00;" x="1079.640487" xlink:href="#m8dc77afec2" y="31.937619"/>
     <use style="fill:#dbcd00;stroke:#dbcd00;" x="1087.692435" xlink:href="#m8dc77afec2" y="30.696082"/>
     <use style="fill:#dbcd00;stroke:#dbcd00;" x="1095.744383" xlink:href="#m8dc77afec2" y="30.696082"/>
     <use style="fill:#dbcd00;stroke:#dbcd00;" x="1103.796331" xlink:href="#m8dc77afec2" y="30.696082"/>
     <use style="fill:#dbcd00;stroke:#dbcd00;" x="1111.848279" xlink:href="#m8dc77afec2" y="30.075314"/>
     <use style="fill:#dbcd00;stroke:#dbcd00;" x="1119.900227" xlink:href="#m8dc77afec2" y="29.454545"/>
    </g>
   </g>
   <g id="line2d_27">
    <path clip-path="url(#p9a48d0d542)" d="M 105.354773 473.924686 
L 129.510617 473.303918 
L 145.614513 472.062381 
L 177.822305 471.441613 
L 185.874253 470.820844 
L 193.926201 469.579308 
L 201.978149 464.613161 
L 210.030097 456.543172 
L 218.082045 447.852415 
L 226.133994 439.161658 
L 234.185942 419.917839 
L 242.23789 413.089388 
L 250.289838 393.845569 
L 258.341786 370.256371 
L 266.393734 342.321795 
L 274.445682 327.423355 
L 282.49763 313.145683 
L 290.549578 308.800304 
L 298.601526 299.488779 
L 306.653474 281.486497 
L 314.705422 285.211107 
L 322.75737 280.865728 
L 330.809318 263.484215 
L 346.913214 258.518068 
L 354.965162 266.588056 
L 363.01711 281.486497 
L 371.069058 290.798022 
L 379.121006 310.041841 
L 403.276851 308.800304 
L 411.328799 335.493343 
L 419.380747 346.667174 
L 427.432695 357.841004 
L 435.484643 358.461773 
L 467.692435 377.084823 
L 475.744383 391.983264 
L 483.796331 391.983264 
L 491.848279 396.94941 
L 499.900227 393.2248 
L 516.004123 413.089388 
L 524.056071 424.883986 
L 532.108019 434.195512 
L 540.159968 436.057817 
L 548.211916 439.782427 
L 556.263864 440.403195 
L 572.36776 439.782427 
L 580.419708 438.54089 
L 588.471656 450.335489 
L 596.523604 449.71472 
L 612.6275 452.197794 
L 628.731396 454.060099 
L 636.783344 461.509319 
L 644.835292 461.509319 
L 652.88724 468.337771 
L 660.939188 467.096234 
L 668.991136 464.613161 
L 685.095032 463.371624 
L 693.146981 461.509319 
L 701.198929 460.888551 
L 709.250877 460.267782 
L 717.302825 449.71472 
L 725.354773 449.71472 
L 741.458669 446.610879 
L 749.510617 440.403195 
L 757.562565 439.161658 
L 773.666461 436.678585 
L 781.718409 441.023963 
L 797.822305 436.057817 
L 805.874253 439.782427 
L 821.978149 445.99011 
L 830.030097 448.473184 
L 862.23789 452.818562 
L 870.289838 460.267782 
L 878.341786 460.267782 
L 886.393734 458.405477 
L 894.445682 460.267782 
L 910.549578 460.267782 
L 918.601526 461.509319 
L 926.653474 462.130087 
L 942.75737 460.888551 
L 950.809318 462.750856 
L 966.913214 462.130087 
L 983.01711 467.096234 
L 999.121006 467.717003 
L 1007.172955 467.717003 
L 1023.276851 467.717003 
L 1031.328799 468.958539 
L 1039.380747 469.579308 
L 1047.432695 468.958539 
L 1063.536591 470.820844 
L 1079.640487 470.820844 
L 1087.692435 472.062381 
L 1095.744383 472.062381 
L 1103.796331 472.062381 
L 1111.848279 472.062381 
L 1119.900227 472.683149 
" style="fill:none;stroke:#2792cb;stroke-linecap:square;stroke-width:2;"/>
    <defs>
     <path d="M 0 1.5 
C 0.397805 1.5 0.77937 1.341951 1.06066 1.06066 
C 1.341951 0.77937 1.5 0.397805 1.5 0 
C 1.5 -0.397805 1.341951 -0.77937 1.06066 -1.06066 
C 0.77937 -1.341951 0.397805 -1.5 0 -1.5 
C -0.397805 -1.5 -0.77937 -1.341951 -1.06066 -1.06066 
C -1.341951 -0.77937 -1.5 -0.397805 -1.5 0 
C -1.5 0.397805 -1.341951 0.77937 -1.06066 1.06066 
C -0.77937 1.341951 -0.397805 1.5 0 1.5 
z
" id="m5f83d290b1" style="stroke:#2792cb;"/>
    </defs>
    <g clip-path="url(#p9a48d0d542)">
     <use style="fill:#2792cb;stroke:#2792cb;" x="105.354773" xlink:href="#m5f83d290b1" y="473.924686"/>
     <use style="fill:#2792cb;stroke:#2792cb;" x="129.510617" xlink:href="#m5f83d290b1" y="473.303918"/>
     <use style="fill:#2792cb;stroke:#2792cb;" x="145.614513" xlink:href="#m5f83d290b1" y="472.062381"/>
     <use style="fill:#2792cb;stroke:#2792cb;" x="177.822305" xlink:href="#m5f83d290b1" y="471.441613"/>
     <use style="fill:#2792cb;stroke:#2792cb;" x="185.874253" xlink:href="#m5f83d290b1" y="470.820844"/>
     <use style="fill:#2792cb;stroke:#2792cb;" x="193.926201" xlink:href="#m5f83d290b1" y="469.579308"/>
     <use style="fill:#2792cb;stroke:#2792cb;" x="201.978149" xlink:href="#m5f83d290b1" y="464.613161"/>
     <use style="fill:#2792cb;stroke:#2792cb;" x="210.030097" xlink:href="#m5f83d290b1" y="456.543172"/>
     <use style="fill:#2792cb;stroke:#2792cb;" x="218.082045" xlink:href="#m5f83d290b1" y="447.852415"/>
     <use style="fill:#2792cb;stroke:#2792cb;" x="226.133994" xlink:href="#m5f83d290b1" y="439.161658"/>
     <use style="fill:#2792cb;stroke:#2792cb;" x="234.185942" xlink:href="#m5f83d290b1" y="419.917839"/>
     <use style="fill:#2792cb;stroke:#2792cb;" x="242.23789" xlink:href="#m5f83d290b1" y="413.089388"/>
     <use style="fill:#2792cb;stroke:#2792cb;" x="250.289838" xlink:href="#m5f83d290b1" y="393.845569"/>
     <use style="fill:#2792cb;stroke:#2792cb;" x="258.341786" xlink:href="#m5f83d290b1" y="370.256371"/>
     <use style="fill:#2792cb;stroke:#2792cb;" x="266.393734" xlink:href="#m5f83d290b1" y="342.321795"/>
     <use style="fill:#2792cb;stroke:#2792cb;" x="274.445682" xlink:href="#m5f83d290b1" y="327.423355"/>
     <use style="fill:#2792cb;stroke:#2792cb;" x="282.49763" xlink:href="#m5f83d290b1" y="313.145683"/>
     <use style="fill:#2792cb;stroke:#2792cb;" x="290.549578" xlink:href="#m5f83d290b1" y="308.800304"/>
     <use style="fill:#2792cb;stroke:#2792cb;" x="298.601526" xlink:href="#m5f83d290b1" y="299.488779"/>
     <use style="fill:#2792cb;stroke:#2792cb;" x="306.653474" xlink:href="#m5f83d290b1" y="281.486497"/>
     <use style="fill:#2792cb;stroke:#2792cb;" x="314.705422" xlink:href="#m5f83d290b1" y="285.211107"/>
     <use style="fill:#2792cb;stroke:#2792cb;" x="322.75737" xlink:href="#m5f83d290b1" y="280.865728"/>
     <use style="fill:#2792cb;stroke:#2792cb;" x="330.809318" xlink:href="#m5f83d290b1" y="263.484215"/>
     <use style="fill:#2792cb;stroke:#2792cb;" x="346.913214" xlink:href="#m5f83d290b1" y="258.518068"/>
     <use style="fill:#2792cb;stroke:#2792cb;" x="354.965162" xlink:href="#m5f83d290b1" y="266.588056"/>
     <use style="fill:#2792cb;stroke:#2792cb;" x="363.01711" xlink:href="#m5f83d290b1" y="281.486497"/>
     <use style="fill:#2792cb;stroke:#2792cb;" x="371.069058" xlink:href="#m5f83d290b1" y="290.798022"/>
     <use style="fill:#2792cb;stroke:#2792cb;" x="379.121006" xlink:href="#m5f83d290b1" y="310.041841"/>
     <use style="fill:#2792cb;stroke:#2792cb;" x="403.276851" xlink:href="#m5f83d290b1" y="308.800304"/>
     <use style="fill:#2792cb;stroke:#2792cb;" x="411.328799" xlink:href="#m5f83d290b1" y="335.493343"/>
     <use style="fill:#2792cb;stroke:#2792cb;" x="419.380747" xlink:href="#m5f83d290b1" y="346.667174"/>
     <use style="fill:#2792cb;stroke:#2792cb;" x="427.432695" xlink:href="#m5f83d290b1" y="357.841004"/>
     <use style="fill:#2792cb;stroke:#2792cb;" x="435.484643" xlink:href="#m5f83d290b1" y="358.461773"/>
     <use style="fill:#2792cb;stroke:#2792cb;" x="467.692435" xlink:href="#m5f83d290b1" y="377.084823"/>
     <use style="fill:#2792cb;stroke:#2792cb;" x="475.744383" xlink:href="#m5f83d290b1" y="391.983264"/>
     <use style="fill:#2792cb;stroke:#2792cb;" x="483.796331" xlink:href="#m5f83d290b1" y="391.983264"/>
     <use style="fill:#2792cb;stroke:#2792cb;" x="491.848279" xlink:href="#m5f83d290b1" y="396.94941"/>
     <use style="fill:#2792cb;stroke:#2792cb;" x="499.900227" xlink:href="#m5f83d290b1" y="393.2248"/>
     <use style="fill:#2792cb;stroke:#2792cb;" x="516.004123" xlink:href="#m5f83d290b1" y="413.089388"/>
     <use style="fill:#2792cb;stroke:#2792cb;" x="524.056071" xlink:href="#m5f83d290b1" y="424.883986"/>
     <use style="fill:#2792cb;stroke:#2792cb;" x="532.108019" xlink:href="#m5f83d290b1" y="434.195512"/>
     <use style="fill:#2792cb;stroke:#2792cb;" x="540.159968" xlink:href="#m5f83d290b1" y="436.057817"/>
     <use style="fill:#2792cb;stroke:#2792cb;" x="548.211916" xlink:href="#m5f83d290b1" y="439.782427"/>
     <use style="fill:#2792cb;stroke:#2792cb;" x="556.263864" xlink:href="#m5f83d290b1" y="440.403195"/>
     <use style="fill:#2792cb;stroke:#2792cb;" x="572.36776" xlink:href="#m5f83d290b1" y="439.782427"/>
     <use style="fill:#2792cb;stroke:#2792cb;" x="580.419708" xlink:href="#m5f83d290b1" y="438.54089"/>
     <use style="fill:#2792cb;stroke:#2792cb;" x="588.471656" xlink:href="#m5f83d290b1" y="450.335489"/>
     <use style="fill:#2792cb;stroke:#2792cb;" x="596.523604" xlink:href="#m5f83d290b1" y="449.71472"/>
     <use style="fill:#2792cb;stroke:#2792cb;" x="612.6275" xlink:href="#m5f83d290b1" y="452.197794"/>
     <use style="fill:#2792cb;stroke:#2792cb;" x="628.731396" xlink:href="#m5f83d290b1" y="454.060099"/>
     <use style="fill:#2792cb;stroke:#2792cb;" x="636.783344" xlink:href="#m5f83d290b1" y="461.509319"/>
     <use style="fill:#2792cb;stroke:#2792cb;" x="644.835292" xlink:href="#m5f83d290b1" y="461.509319"/>
     <use style="fill:#2792cb;stroke:#2792cb;" x="652.88724" xlink:href="#m5f83d290b1" y="468.337771"/>
     <use style="fill:#2792cb;stroke:#2792cb;" x="660.939188" xlink:href="#m5f83d290b1" y="467.096234"/>
     <use style="fill:#2792cb;stroke:#2792cb;" x="668.991136" xlink:href="#m5f83d290b1" y="464.613161"/>
     <use style="fill:#2792cb;stroke:#2792cb;" x="685.095032" xlink:href="#m5f83d290b1" y="463.371624"/>
     <use style="fill:#2792cb;stroke:#2792cb;" x="693.146981" xlink:href="#m5f83d290b1" y="461.509319"/>
     <use style="fill:#2792cb;stroke:#2792cb;" x="701.198929" xlink:href="#m5f83d290b1" y="460.888551"/>
     <use style="fill:#2792cb;stroke:#2792cb;" x="709.250877" xlink:href="#m5f83d290b1" y="460.267782"/>
     <use style="fill:#2792cb;stroke:#2792cb;" x="717.302825" xlink:href="#m5f83d290b1" y="449.71472"/>
     <use style="fill:#2792cb;stroke:#2792cb;" x="725.354773" xlink:href="#m5f83d290b1" y="449.71472"/>
     <use style="fill:#2792cb;stroke:#2792cb;" x="741.458669" xlink:href="#m5f83d290b1" y="446.610879"/>
     <use style="fill:#2792cb;stroke:#2792cb;" x="749.510617" xlink:href="#m5f83d290b1" y="440.403195"/>
     <use style="fill:#2792cb;stroke:#2792cb;" x="757.562565" xlink:href="#m5f83d290b1" y="439.161658"/>
     <use style="fill:#2792cb;stroke:#2792cb;" x="773.666461" xlink:href="#m5f83d290b1" y="436.678585"/>
     <use style="fill:#2792cb;stroke:#2792cb;" x="781.718409" xlink:href="#m5f83d290b1" y="441.023963"/>
     <use style="fill:#2792cb;stroke:#2792cb;" x="797.822305" xlink:href="#m5f83d290b1" y="436.057817"/>
     <use style="fill:#2792cb;stroke:#2792cb;" x="805.874253" xlink:href="#m5f83d290b1" y="439.782427"/>
     <use style="fill:#2792cb;stroke:#2792cb;" x="821.978149" xlink:href="#m5f83d290b1" y="445.99011"/>
     <use style="fill:#2792cb;stroke:#2792cb;" x="830.030097" xlink:href="#m5f83d290b1" y="448.473184"/>
     <use style="fill:#2792cb;stroke:#2792cb;" x="862.23789" xlink:href="#m5f83d290b1" y="452.818562"/>
     <use style="fill:#2792cb;stroke:#2792cb;" x="870.289838" xlink:href="#m5f83d290b1" y="460.267782"/>
     <use style="fill:#2792cb;stroke:#2792cb;" x="878.341786" xlink:href="#m5f83d290b1" y="460.267782"/>
     <use style="fill:#2792cb;stroke:#2792cb;" x="886.393734" xlink:href="#m5f83d290b1" y="458.405477"/>
     <use style="fill:#2792cb;stroke:#2792cb;" x="894.445682" xlink:href="#m5f83d290b1" y="460.267782"/>
     <use style="fill:#2792cb;stroke:#2792cb;" x="910.549578" xlink:href="#m5f83d290b1" y="460.267782"/>
     <use style="fill:#2792cb;stroke:#2792cb;" x="918.601526" xlink:href="#m5f83d290b1" y="461.509319"/>
     <use style="fill:#2792cb;stroke:#2792cb;" x="926.653474" xlink:href="#m5f83d290b1" y="462.130087"/>
     <use style="fill:#2792cb;stroke:#2792cb;" x="942.75737" xlink:href="#m5f83d290b1" y="460.888551"/>
     <use style="fill:#2792cb;stroke:#2792cb;" x="950.809318" xlink:href="#m5f83d290b1" y="462.750856"/>
     <use style="fill:#2792cb;stroke:#2792cb;" x="966.913214" xlink:href="#m5f83d290b1" y="462.130087"/>
     <use style="fill:#2792cb;stroke:#2792cb;" x="983.01711" xlink:href="#m5f83d290b1" y="467.096234"/>
     <use style="fill:#2792cb;stroke:#2792cb;" x="999.121006" xlink:href="#m5f83d290b1" y="467.717003"/>
     <use style="fill:#2792cb;stroke:#2792cb;" x="1007.172955" xlink:href="#m5f83d290b1" y="467.717003"/>
     <use style="fill:#2792cb;stroke:#2792cb;" x="1023.276851" xlink:href="#m5f83d290b1" y="467.717003"/>
     <use style="fill:#2792cb;stroke:#2792cb;" x="1031.328799" xlink:href="#m5f83d290b1" y="468.958539"/>
     <use style="fill:#2792cb;stroke:#2792cb;" x="1039.380747" xlink:href="#m5f83d290b1" y="469.579308"/>
     <use style="fill:#2792cb;stroke:#2792cb;" x="1047.432695" xlink:href="#m5f83d290b1" y="468.958539"/>
     <use style="fill:#2792cb;stroke:#2792cb;" x="1063.536591" xlink:href="#m5f83d290b1" y="470.820844"/>
     <use style="fill:#2792cb;stroke:#2792cb;" x="1079.640487" xlink:href="#m5f83d290b1" y="470.820844"/>
     <use style="fill:#2792cb;stroke:#2792cb;" x="1087.692435" xlink:href="#m5f83d290b1" y="472.062381"/>
     <use style="fill:#2792cb;stroke:#2792cb;" x="1095.744383" xlink:href="#m5f83d290b1" y="472.062381"/>
     <use style="fill:#2792cb;stroke:#2792cb;" x="1103.796331" xlink:href="#m5f83d290b1" y="472.062381"/>
     <use style="fill:#2792cb;stroke:#2792cb;" x="1111.848279" xlink:href="#m5f83d290b1" y="472.062381"/>
     <use style="fill:#2792cb;stroke:#2792cb;" x="1119.900227" xlink:href="#m5f83d290b1" y="472.683149"/>
    </g>
   </g>
   <g id="patch_3">
    <path d="M 54.6275 496.8 
L 1170.6275 496.8 
" style="fill:none;stroke:#000000;stroke-linecap:square;stroke-linejoin:miter;stroke-width:0.8;"/>
   </g>
   <g id="legend_1">
    <g id="line2d_28">
     <path d="M 63.6275 20.298437 
L 83.6275 20.298437 
" style="fill:none;stroke:#dbcd00;stroke-linecap:square;stroke-width:2;"/>
    </g>
    <g id="line2d_29">
     <g>
      <use style="fill:#dbcd00;stroke:#dbcd00;" x="73.6275" xlink:href="#m8dc77afec2" y="20.298437"/>
     </g>
    </g>
    <g id="text_19">
     <!-- Genesene -->
     <defs>
      <path d="M 59.515625 10.40625 
L 59.515625 29.984375 
L 43.40625 29.984375 
L 43.40625 38.09375 
L 69.28125 38.09375 
L 69.28125 6.78125 
Q 63.578125 2.734375 56.6875 0.65625 
Q 49.8125 -1.421875 42 -1.421875 
Q 24.90625 -1.421875 15.25 8.5625 
Q 5.609375 18.5625 5.609375 36.375 
Q 5.609375 54.25 15.25 64.234375 
Q 24.90625 74.21875 42 74.21875 
Q 49.125 74.21875 55.546875 72.453125 
Q 61.96875 70.703125 67.390625 67.28125 
L 67.390625 56.78125 
Q 61.921875 61.421875 55.765625 63.765625 
Q 49.609375 66.109375 42.828125 66.109375 
Q 29.4375 66.109375 22.71875 58.640625 
Q 16.015625 51.171875 16.015625 36.375 
Q 16.015625 21.625 22.71875 14.15625 
Q 29.4375 6.6875 42.828125 6.6875 
Q 48.046875 6.6875 52.140625 7.59375 
Q 56.25 8.5 59.515625 10.40625 
z
" id="DejaVuSans-71"/>
      <path d="M 44.28125 53.078125 
L 44.28125 44.578125 
Q 40.484375 46.53125 36.375 47.5 
Q 32.28125 48.484375 27.875 48.484375 
Q 21.1875 48.484375 17.84375 46.4375 
Q 14.5 44.390625 14.5 40.28125 
Q 14.5 37.15625 16.890625 35.375 
Q 19.28125 33.59375 26.515625 31.984375 
L 29.59375 31.296875 
Q 39.15625 29.25 43.1875 25.515625 
Q 47.21875 21.78125 47.21875 15.09375 
Q 47.21875 7.46875 41.1875 3.015625 
Q 35.15625 -1.421875 24.609375 -1.421875 
Q 20.21875 -1.421875 15.453125 -0.5625 
Q 10.6875 0.296875 5.421875 2 
L 5.421875 11.28125 
Q 10.40625 8.6875 15.234375 7.390625 
Q 20.0625 6.109375 24.8125 6.109375 
Q 31.15625 6.109375 34.5625 8.28125 
Q 37.984375 10.453125 37.984375 14.40625 
Q 37.984375 18.0625 35.515625 20.015625 
Q 33.0625 21.96875 24.703125 23.78125 
L 21.578125 24.515625 
Q 13.234375 26.265625 9.515625 29.90625 
Q 5.8125 33.546875 5.8125 39.890625 
Q 5.8125 47.609375 11.28125 51.796875 
Q 16.75 56 26.8125 56 
Q 31.78125 56 36.171875 55.265625 
Q 40.578125 54.546875 44.28125 53.078125 
z
" id="DejaVuSans-115"/>
     </defs>
     <g transform="translate(91.6275 23.798437)scale(0.1 -0.1)">
      <use xlink:href="#DejaVuSans-71"/>
      <use x="77.490234" xlink:href="#DejaVuSans-101"/>
      <use x="139.013672" xlink:href="#DejaVuSans-110"/>
      <use x="202.392578" xlink:href="#DejaVuSans-101"/>
      <use x="263.916016" xlink:href="#DejaVuSans-115"/>
      <use x="316.015625" xlink:href="#DejaVuSans-101"/>
      <use x="377.539062" xlink:href="#DejaVuSans-110"/>
      <use x="440.917969" xlink:href="#DejaVuSans-101"/>
     </g>
    </g>
    <g id="line2d_30">
     <path d="M 63.6275 34.976562 
L 83.6275 34.976562 
" style="fill:none;stroke:#2792cb;stroke-linecap:square;stroke-width:2;"/>
    </g>
    <g id="line2d_31">
     <g>
      <use style="fill:#2792cb;stroke:#2792cb;" x="73.6275" xlink:href="#m5f83d290b1" y="34.976562"/>
     </g>
    </g>
    <g id="text_20">
     <!-- Erkrankte -->
     <defs>
      <path d="M 9.8125 72.90625 
L 55.90625 72.90625 
L 55.90625 64.59375 
L 19.671875 64.59375 
L 19.671875 43.015625 
L 54.390625 43.015625 
L 54.390625 34.71875 
L 19.671875 34.71875 
L 19.671875 8.296875 
L 56.78125 8.296875 
L 56.78125 0 
L 9.8125 0 
z
" id="DejaVuSans-69"/>
      <path d="M 41.109375 46.296875 
Q 39.59375 47.171875 37.8125 47.578125 
Q 36.03125 48 33.890625 48 
Q 26.265625 48 22.1875 43.046875 
Q 18.109375 38.09375 18.109375 28.8125 
L 18.109375 0 
L 9.078125 0 
L 9.078125 54.6875 
L 18.109375 54.6875 
L 18.109375 46.1875 
Q 20.953125 51.171875 25.484375 53.578125 
Q 30.03125 56 36.53125 56 
Q 37.453125 56 38.578125 55.875 
Q 39.703125 55.765625 41.0625 55.515625 
z
" id="DejaVuSans-114"/>
      <path d="M 9.078125 75.984375 
L 18.109375 75.984375 
L 18.109375 31.109375 
L 44.921875 54.6875 
L 56.390625 54.6875 
L 27.390625 29.109375 
L 57.625 0 
L 45.90625 0 
L 18.109375 26.703125 
L 18.109375 0 
L 9.078125 0 
z
" id="DejaVuSans-107"/>
      <path d="M 18.3125 70.21875 
L 18.3125 54.6875 
L 36.8125 54.6875 
L 36.8125 47.703125 
L 18.3125 47.703125 
L 18.3125 18.015625 
Q 18.3125 11.328125 20.140625 9.421875 
Q 21.96875 7.515625 27.59375 7.515625 
L 36.8125 7.515625 
L 36.8125 0 
L 27.59375 0 
Q 17.1875 0 13.234375 3.875 
Q 9.28125 7.765625 9.28125 18.015625 
L 9.28125 47.703125 
L 2.6875 47.703125 
L 2.6875 54.6875 
L 9.28125 54.6875 
L 9.28125 70.21875 
z
" id="DejaVuSans-116"/>
     </defs>
     <g transform="translate(91.6275 38.476562)scale(0.1 -0.1)">
      <use xlink:href="#DejaVuSans-69"/>
      <use x="63.183594" xlink:href="#DejaVuSans-114"/>
      <use x="104.296875" xlink:href="#DejaVuSans-107"/>
      <use x="162.207031" xlink:href="#DejaVuSans-114"/>
      <use x="203.320312" xlink:href="#DejaVuSans-97"/>
      <use x="264.599609" xlink:href="#DejaVuSans-110"/>
      <use x="327.978516" xlink:href="#DejaVuSans-107"/>
      <use x="385.888672" xlink:href="#DejaVuSans-116"/>
      <use x="425.097656" xlink:href="#DejaVuSans-101"/>
     </g>
    </g>
   </g>
  </g>
 </g>
 <defs>
  <clipPath id="p9a48d0d542">
   <rect height="489.6" width="1116" x="54.6275" y="7.2"/>
  </clipPath>
 </defs>
</svg>
