<?xml version="1.0" encoding="utf-8" standalone="no"?>
<!DOCTYPE svg PUBLIC "-//W3C//DTD SVG 1.1//EN"
  "http://www.w3.org/Graphics/SVG/1.1/DTD/svg11.dtd">
<!-- Created with matplotlib (https://matplotlib.org/) -->
<svg height="553.993765pt" version="1.1" viewBox="0 0 1186.09875 553.993765" width="1186.09875pt" xmlns="http://www.w3.org/2000/svg" xmlns:xlink="http://www.w3.org/1999/xlink">
 <defs>
  <style type="text/css">
*{stroke-linecap:butt;stroke-linejoin:round;}
  </style>
 </defs>
 <g id="figure_1">
  <g id="patch_1">
   <path d="M 0 553.993765 
L 1186.09875 553.993765 
L 1186.09875 0 
L 0 0 
z
" style="fill:#ffffff;"/>
  </g>
  <g id="axes_1">
   <g id="patch_2">
    <path d="M 62.89875 501.738984 
L 1178.89875 501.738984 
L 1178.89875 12.138984 
L 62.89875 12.138984 
z
" style="fill:#ffffff;"/>
   </g>
   <g id="matplotlib.axis_1">
    <g id="xtick_1">
     <g id="line2d_1">
      <defs>
       <path d="M 0 0 
L 0 3.5 
" id="mc0a4ef5272" style="stroke:#000000;stroke-width:0.8;"/>
      </defs>
      <g>
       <use style="stroke:#000000;stroke-width:0.8;" x="153.153768" xlink:href="#mc0a4ef5272" y="501.738984"/>
      </g>
     </g>
     <g id="text_1">
      <!-- 2020-04 -->
      <defs>
       <path d="M 19.1875 8.296875 
L 53.609375 8.296875 
L 53.609375 0 
L 7.328125 0 
L 7.328125 8.296875 
Q 12.9375 14.109375 22.625 23.890625 
Q 32.328125 33.6875 34.8125 36.53125 
Q 39.546875 41.84375 41.421875 45.53125 
Q 43.3125 49.21875 43.3125 52.78125 
Q 43.3125 58.59375 39.234375 62.25 
Q 35.15625 65.921875 28.609375 65.921875 
Q 23.96875 65.921875 18.8125 64.3125 
Q 13.671875 62.703125 7.8125 59.421875 
L 7.8125 69.390625 
Q 13.765625 71.78125 18.9375 73 
Q 24.125 74.21875 28.421875 74.21875 
Q 39.75 74.21875 46.484375 68.546875 
Q 53.21875 62.890625 53.21875 53.421875 
Q 53.21875 48.921875 51.53125 44.890625 
Q 49.859375 40.875 45.40625 35.40625 
Q 44.1875 33.984375 37.640625 27.21875 
Q 31.109375 20.453125 19.1875 8.296875 
z
" id="DejaVuSans-50"/>
       <path d="M 31.78125 66.40625 
Q 24.171875 66.40625 20.328125 58.90625 
Q 16.5 51.421875 16.5 36.375 
Q 16.5 21.390625 20.328125 13.890625 
Q 24.171875 6.390625 31.78125 6.390625 
Q 39.453125 6.390625 43.28125 13.890625 
Q 47.125 21.390625 47.125 36.375 
Q 47.125 51.421875 43.28125 58.90625 
Q 39.453125 66.40625 31.78125 66.40625 
z
M 31.78125 74.21875 
Q 44.046875 74.21875 50.515625 64.515625 
Q 56.984375 54.828125 56.984375 36.375 
Q 56.984375 17.96875 50.515625 8.265625 
Q 44.046875 -1.421875 31.78125 -1.421875 
Q 19.53125 -1.421875 13.0625 8.265625 
Q 6.59375 17.96875 6.59375 36.375 
Q 6.59375 54.828125 13.0625 64.515625 
Q 19.53125 74.21875 31.78125 74.21875 
z
" id="DejaVuSans-48"/>
       <path d="M 4.890625 31.390625 
L 31.203125 31.390625 
L 31.203125 23.390625 
L 4.890625 23.390625 
z
" id="DejaVuSans-45"/>
       <path d="M 37.796875 64.3125 
L 12.890625 25.390625 
L 37.796875 25.390625 
z
M 35.203125 72.90625 
L 47.609375 72.90625 
L 47.609375 25.390625 
L 58.015625 25.390625 
L 58.015625 17.1875 
L 47.609375 17.1875 
L 47.609375 0 
L 37.796875 0 
L 37.796875 17.1875 
L 4.890625 17.1875 
L 4.890625 26.703125 
z
" id="DejaVuSans-52"/>
      </defs>
      <g transform="translate(104.761501 544.452384)rotate(-30)scale(0.13 -0.13)">
       <use xlink:href="#DejaVuSans-50"/>
       <use x="63.623047" xlink:href="#DejaVuSans-48"/>
       <use x="127.246094" xlink:href="#DejaVuSans-50"/>
       <use x="190.869141" xlink:href="#DejaVuSans-48"/>
       <use x="254.492188" xlink:href="#DejaVuSans-45"/>
       <use x="290.576172" xlink:href="#DejaVuSans-48"/>
       <use x="354.199219" xlink:href="#DejaVuSans-52"/>
      </g>
     </g>
    </g>
    <g id="xtick_2">
     <g id="line2d_2">
      <g>
       <use style="stroke:#000000;stroke-width:0.8;" x="284.912918" xlink:href="#mc0a4ef5272" y="501.738984"/>
      </g>
     </g>
     <g id="text_2">
      <!-- 2020-05 -->
      <defs>
       <path d="M 10.796875 72.90625 
L 49.515625 72.90625 
L 49.515625 64.59375 
L 19.828125 64.59375 
L 19.828125 46.734375 
Q 21.96875 47.46875 24.109375 47.828125 
Q 26.265625 48.1875 28.421875 48.1875 
Q 40.625 48.1875 47.75 41.5 
Q 54.890625 34.8125 54.890625 23.390625 
Q 54.890625 11.625 47.5625 5.09375 
Q 40.234375 -1.421875 26.90625 -1.421875 
Q 22.3125 -1.421875 17.546875 -0.640625 
Q 12.796875 0.140625 7.71875 1.703125 
L 7.71875 11.625 
Q 12.109375 9.234375 16.796875 8.0625 
Q 21.484375 6.890625 26.703125 6.890625 
Q 35.15625 6.890625 40.078125 11.328125 
Q 45.015625 15.765625 45.015625 23.390625 
Q 45.015625 31 40.078125 35.4375 
Q 35.15625 39.890625 26.703125 39.890625 
Q 22.75 39.890625 18.8125 39.015625 
Q 14.890625 38.140625 10.796875 36.28125 
z
" id="DejaVuSans-53"/>
      </defs>
      <g transform="translate(236.520651 544.452384)rotate(-30)scale(0.13 -0.13)">
       <use xlink:href="#DejaVuSans-50"/>
       <use x="63.623047" xlink:href="#DejaVuSans-48"/>
       <use x="127.246094" xlink:href="#DejaVuSans-50"/>
       <use x="190.869141" xlink:href="#DejaVuSans-48"/>
       <use x="254.492188" xlink:href="#DejaVuSans-45"/>
       <use x="290.576172" xlink:href="#DejaVuSans-48"/>
       <use x="354.199219" xlink:href="#DejaVuSans-53"/>
      </g>
     </g>
    </g>
    <g id="xtick_3">
     <g id="line2d_3">
      <g>
       <use style="stroke:#000000;stroke-width:0.8;" x="421.064039" xlink:href="#mc0a4ef5272" y="501.738984"/>
      </g>
     </g>
     <g id="text_3">
      <!-- 2020-06 -->
      <defs>
       <path d="M 33.015625 40.375 
Q 26.375 40.375 22.484375 35.828125 
Q 18.609375 31.296875 18.609375 23.390625 
Q 18.609375 15.53125 22.484375 10.953125 
Q 26.375 6.390625 33.015625 6.390625 
Q 39.65625 6.390625 43.53125 10.953125 
Q 47.40625 15.53125 47.40625 23.390625 
Q 47.40625 31.296875 43.53125 35.828125 
Q 39.65625 40.375 33.015625 40.375 
z
M 52.59375 71.296875 
L 52.59375 62.3125 
Q 48.875 64.0625 45.09375 64.984375 
Q 41.3125 65.921875 37.59375 65.921875 
Q 27.828125 65.921875 22.671875 59.328125 
Q 17.53125 52.734375 16.796875 39.40625 
Q 19.671875 43.65625 24.015625 45.921875 
Q 28.375 48.1875 33.59375 48.1875 
Q 44.578125 48.1875 50.953125 41.515625 
Q 57.328125 34.859375 57.328125 23.390625 
Q 57.328125 12.15625 50.6875 5.359375 
Q 44.046875 -1.421875 33.015625 -1.421875 
Q 20.359375 -1.421875 13.671875 8.265625 
Q 6.984375 17.96875 6.984375 36.375 
Q 6.984375 53.65625 15.1875 63.9375 
Q 23.390625 74.21875 37.203125 74.21875 
Q 40.921875 74.21875 44.703125 73.484375 
Q 48.484375 72.75 52.59375 71.296875 
z
" id="DejaVuSans-54"/>
      </defs>
      <g transform="translate(372.671772 544.452384)rotate(-30)scale(0.13 -0.13)">
       <use xlink:href="#DejaVuSans-50"/>
       <use x="63.623047" xlink:href="#DejaVuSans-48"/>
       <use x="127.246094" xlink:href="#DejaVuSans-50"/>
       <use x="190.869141" xlink:href="#DejaVuSans-48"/>
       <use x="254.492188" xlink:href="#DejaVuSans-45"/>
       <use x="290.576172" xlink:href="#DejaVuSans-48"/>
       <use x="354.199219" xlink:href="#DejaVuSans-54"/>
      </g>
     </g>
    </g>
    <g id="xtick_4">
     <g id="line2d_4">
      <g>
       <use style="stroke:#000000;stroke-width:0.8;" x="552.823189" xlink:href="#mc0a4ef5272" y="501.738984"/>
      </g>
     </g>
     <g id="text_4">
      <!-- 2020-07 -->
      <defs>
       <path d="M 8.203125 72.90625 
L 55.078125 72.90625 
L 55.078125 68.703125 
L 28.609375 0 
L 18.3125 0 
L 43.21875 64.59375 
L 8.203125 64.59375 
z
" id="DejaVuSans-55"/>
      </defs>
      <g transform="translate(504.430922 544.452384)rotate(-30)scale(0.13 -0.13)">
       <use xlink:href="#DejaVuSans-50"/>
       <use x="63.623047" xlink:href="#DejaVuSans-48"/>
       <use x="127.246094" xlink:href="#DejaVuSans-50"/>
       <use x="190.869141" xlink:href="#DejaVuSans-48"/>
       <use x="254.492188" xlink:href="#DejaVuSans-45"/>
       <use x="290.576172" xlink:href="#DejaVuSans-48"/>
       <use x="354.199219" xlink:href="#DejaVuSans-55"/>
      </g>
     </g>
    </g>
    <g id="xtick_5">
     <g id="line2d_5">
      <g>
       <use style="stroke:#000000;stroke-width:0.8;" x="688.974311" xlink:href="#mc0a4ef5272" y="501.738984"/>
      </g>
     </g>
     <g id="text_5">
      <!-- 2020-08 -->
      <defs>
       <path d="M 31.78125 34.625 
Q 24.75 34.625 20.71875 30.859375 
Q 16.703125 27.09375 16.703125 20.515625 
Q 16.703125 13.921875 20.71875 10.15625 
Q 24.75 6.390625 31.78125 6.390625 
Q 38.8125 6.390625 42.859375 10.171875 
Q 46.921875 13.96875 46.921875 20.515625 
Q 46.921875 27.09375 42.890625 30.859375 
Q 38.875 34.625 31.78125 34.625 
z
M 21.921875 38.8125 
Q 15.578125 40.375 12.03125 44.71875 
Q 8.5 49.078125 8.5 55.328125 
Q 8.5 64.0625 14.71875 69.140625 
Q 20.953125 74.21875 31.78125 74.21875 
Q 42.671875 74.21875 48.875 69.140625 
Q 55.078125 64.0625 55.078125 55.328125 
Q 55.078125 49.078125 51.53125 44.71875 
Q 48 40.375 41.703125 38.8125 
Q 48.828125 37.15625 52.796875 32.3125 
Q 56.78125 27.484375 56.78125 20.515625 
Q 56.78125 9.90625 50.3125 4.234375 
Q 43.84375 -1.421875 31.78125 -1.421875 
Q 19.734375 -1.421875 13.25 4.234375 
Q 6.78125 9.90625 6.78125 20.515625 
Q 6.78125 27.484375 10.78125 32.3125 
Q 14.796875 37.15625 21.921875 38.8125 
z
M 18.3125 54.390625 
Q 18.3125 48.734375 21.84375 45.5625 
Q 25.390625 42.390625 31.78125 42.390625 
Q 38.140625 42.390625 41.71875 45.5625 
Q 45.3125 48.734375 45.3125 54.390625 
Q 45.3125 60.0625 41.71875 63.234375 
Q 38.140625 66.40625 31.78125 66.40625 
Q 25.390625 66.40625 21.84375 63.234375 
Q 18.3125 60.0625 18.3125 54.390625 
z
" id="DejaVuSans-56"/>
      </defs>
      <g transform="translate(640.582044 544.452384)rotate(-30)scale(0.13 -0.13)">
       <use xlink:href="#DejaVuSans-50"/>
       <use x="63.623047" xlink:href="#DejaVuSans-48"/>
       <use x="127.246094" xlink:href="#DejaVuSans-50"/>
       <use x="190.869141" xlink:href="#DejaVuSans-48"/>
       <use x="254.492188" xlink:href="#DejaVuSans-45"/>
       <use x="290.576172" xlink:href="#DejaVuSans-48"/>
       <use x="354.199219" xlink:href="#DejaVuSans-56"/>
      </g>
     </g>
    </g>
    <g id="xtick_6">
     <g id="line2d_6">
      <g>
       <use style="stroke:#000000;stroke-width:0.8;" x="825.125432" xlink:href="#mc0a4ef5272" y="501.738984"/>
      </g>
     </g>
     <g id="text_6">
      <!-- 2020-09 -->
      <defs>
       <path d="M 10.984375 1.515625 
L 10.984375 10.5 
Q 14.703125 8.734375 18.5 7.8125 
Q 22.3125 6.890625 25.984375 6.890625 
Q 35.75 6.890625 40.890625 13.453125 
Q 46.046875 20.015625 46.78125 33.40625 
Q 43.953125 29.203125 39.59375 26.953125 
Q 35.25 24.703125 29.984375 24.703125 
Q 19.046875 24.703125 12.671875 31.3125 
Q 6.296875 37.9375 6.296875 49.421875 
Q 6.296875 60.640625 12.9375 67.421875 
Q 19.578125 74.21875 30.609375 74.21875 
Q 43.265625 74.21875 49.921875 64.515625 
Q 56.59375 54.828125 56.59375 36.375 
Q 56.59375 19.140625 48.40625 8.859375 
Q 40.234375 -1.421875 26.421875 -1.421875 
Q 22.703125 -1.421875 18.890625 -0.6875 
Q 15.09375 0.046875 10.984375 1.515625 
z
M 30.609375 32.421875 
Q 37.25 32.421875 41.125 36.953125 
Q 45.015625 41.5 45.015625 49.421875 
Q 45.015625 57.28125 41.125 61.84375 
Q 37.25 66.40625 30.609375 66.40625 
Q 23.96875 66.40625 20.09375 61.84375 
Q 16.21875 57.28125 16.21875 49.421875 
Q 16.21875 41.5 20.09375 36.953125 
Q 23.96875 32.421875 30.609375 32.421875 
z
" id="DejaVuSans-57"/>
      </defs>
      <g transform="translate(776.733165 544.452384)rotate(-30)scale(0.13 -0.13)">
       <use xlink:href="#DejaVuSans-50"/>
       <use x="63.623047" xlink:href="#DejaVuSans-48"/>
       <use x="127.246094" xlink:href="#DejaVuSans-50"/>
       <use x="190.869141" xlink:href="#DejaVuSans-48"/>
       <use x="254.492188" xlink:href="#DejaVuSans-45"/>
       <use x="290.576172" xlink:href="#DejaVuSans-48"/>
       <use x="354.199219" xlink:href="#DejaVuSans-57"/>
      </g>
     </g>
    </g>
    <g id="xtick_7">
     <g id="line2d_7">
      <g>
       <use style="stroke:#000000;stroke-width:0.8;" x="956.884582" xlink:href="#mc0a4ef5272" y="501.738984"/>
      </g>
     </g>
     <g id="text_7">
      <!-- 2020-10 -->
      <defs>
       <path d="M 12.40625 8.296875 
L 28.515625 8.296875 
L 28.515625 63.921875 
L 10.984375 60.40625 
L 10.984375 69.390625 
L 28.421875 72.90625 
L 38.28125 72.90625 
L 38.28125 8.296875 
L 54.390625 8.296875 
L 54.390625 0 
L 12.40625 0 
z
" id="DejaVuSans-49"/>
      </defs>
      <g transform="translate(908.492315 544.452384)rotate(-30)scale(0.13 -0.13)">
       <use xlink:href="#DejaVuSans-50"/>
       <use x="63.623047" xlink:href="#DejaVuSans-48"/>
       <use x="127.246094" xlink:href="#DejaVuSans-50"/>
       <use x="190.869141" xlink:href="#DejaVuSans-48"/>
       <use x="254.492188" xlink:href="#DejaVuSans-45"/>
       <use x="290.576172" xlink:href="#DejaVuSans-49"/>
       <use x="354.199219" xlink:href="#DejaVuSans-48"/>
      </g>
     </g>
    </g>
    <g id="xtick_8">
     <g id="line2d_8">
      <g>
       <use style="stroke:#000000;stroke-width:0.8;" x="1093.035704" xlink:href="#mc0a4ef5272" y="501.738984"/>
      </g>
     </g>
     <g id="text_8">
      <!-- 2020-11 -->
      <g transform="translate(1044.643437 544.452384)rotate(-30)scale(0.13 -0.13)">
       <use xlink:href="#DejaVuSans-50"/>
       <use x="63.623047" xlink:href="#DejaVuSans-48"/>
       <use x="127.246094" xlink:href="#DejaVuSans-50"/>
       <use x="190.869141" xlink:href="#DejaVuSans-48"/>
       <use x="254.492188" xlink:href="#DejaVuSans-45"/>
       <use x="290.576172" xlink:href="#DejaVuSans-49"/>
       <use x="354.199219" xlink:href="#DejaVuSans-49"/>
      </g>
     </g>
    </g>
   </g>
   <g id="matplotlib.axis_2">
    <g id="ytick_1">
     <g id="line2d_9">
      <path clip-path="url(#p7d37e32b01)" d="M 62.89875 486.4692 
L 1178.89875 486.4692 
" style="fill:none;stroke:#b0b0b0;stroke-linecap:square;stroke-width:0.8;"/>
     </g>
     <g id="line2d_10">
      <defs>
       <path d="M 0 0 
L -3.5 0 
" id="med1b9b7257" style="stroke:#000000;stroke-width:0.8;"/>
      </defs>
      <g>
       <use style="stroke:#000000;stroke-width:0.8;" x="62.89875" xlink:href="#med1b9b7257" y="486.4692"/>
      </g>
     </g>
     <g id="text_9">
      <!-- 0 -->
      <g transform="translate(47.6275 491.408184)scale(0.13 -0.13)">
       <use xlink:href="#DejaVuSans-48"/>
      </g>
     </g>
    </g>
    <g id="ytick_2">
     <g id="line2d_11">
      <path clip-path="url(#p7d37e32b01)" d="M 62.89875 468.22573 
L 1178.89875 468.22573 
" style="fill:none;stroke:#b0b0b0;stroke-linecap:square;stroke-width:0.8;"/>
     </g>
     <g id="line2d_12">
      <g>
       <use style="stroke:#000000;stroke-width:0.8;" x="62.89875" xlink:href="#med1b9b7257" y="468.22573"/>
      </g>
     </g>
     <g id="text_10">
      <!-- 100 -->
      <g transform="translate(31.085 473.164715)scale(0.13 -0.13)">
       <use xlink:href="#DejaVuSans-49"/>
       <use x="63.623047" xlink:href="#DejaVuSans-48"/>
       <use x="127.246094" xlink:href="#DejaVuSans-48"/>
      </g>
     </g>
    </g>
    <g id="ytick_3">
     <g id="line2d_13">
      <path clip-path="url(#p7d37e32b01)" d="M 62.89875 449.98226 
L 1178.89875 449.98226 
" style="fill:none;stroke:#b0b0b0;stroke-linecap:square;stroke-width:0.8;"/>
     </g>
     <g id="line2d_14">
      <g>
       <use style="stroke:#000000;stroke-width:0.8;" x="62.89875" xlink:href="#med1b9b7257" y="449.98226"/>
      </g>
     </g>
     <g id="text_11">
      <!-- 200 -->
      <g transform="translate(31.085 454.921245)scale(0.13 -0.13)">
       <use xlink:href="#DejaVuSans-50"/>
       <use x="63.623047" xlink:href="#DejaVuSans-48"/>
       <use x="127.246094" xlink:href="#DejaVuSans-48"/>
      </g>
     </g>
    </g>
    <g id="ytick_4">
     <g id="line2d_15">
      <path clip-path="url(#p7d37e32b01)" d="M 62.89875 431.738791 
L 1178.89875 431.738791 
" style="fill:none;stroke:#b0b0b0;stroke-linecap:square;stroke-width:0.8;"/>
     </g>
     <g id="line2d_16">
      <g>
       <use style="stroke:#000000;stroke-width:0.8;" x="62.89875" xlink:href="#med1b9b7257" y="431.738791"/>
      </g>
     </g>
     <g id="text_12">
      <!-- 300 -->
      <defs>
       <path d="M 40.578125 39.3125 
Q 47.65625 37.796875 51.625 33 
Q 55.609375 28.21875 55.609375 21.1875 
Q 55.609375 10.40625 48.1875 4.484375 
Q 40.765625 -1.421875 27.09375 -1.421875 
Q 22.515625 -1.421875 17.65625 -0.515625 
Q 12.796875 0.390625 7.625 2.203125 
L 7.625 11.71875 
Q 11.71875 9.328125 16.59375 8.109375 
Q 21.484375 6.890625 26.8125 6.890625 
Q 36.078125 6.890625 40.9375 10.546875 
Q 45.796875 14.203125 45.796875 21.1875 
Q 45.796875 27.640625 41.28125 31.265625 
Q 36.765625 34.90625 28.71875 34.90625 
L 20.21875 34.90625 
L 20.21875 43.015625 
L 29.109375 43.015625 
Q 36.375 43.015625 40.234375 45.921875 
Q 44.09375 48.828125 44.09375 54.296875 
Q 44.09375 59.90625 40.109375 62.90625 
Q 36.140625 65.921875 28.71875 65.921875 
Q 24.65625 65.921875 20.015625 65.03125 
Q 15.375 64.15625 9.8125 62.3125 
L 9.8125 71.09375 
Q 15.4375 72.65625 20.34375 73.4375 
Q 25.25 74.21875 29.59375 74.21875 
Q 40.828125 74.21875 47.359375 69.109375 
Q 53.90625 64.015625 53.90625 55.328125 
Q 53.90625 49.265625 50.4375 45.09375 
Q 46.96875 40.921875 40.578125 39.3125 
z
" id="DejaVuSans-51"/>
      </defs>
      <g transform="translate(31.085 436.677775)scale(0.13 -0.13)">
       <use xlink:href="#DejaVuSans-51"/>
       <use x="63.623047" xlink:href="#DejaVuSans-48"/>
       <use x="127.246094" xlink:href="#DejaVuSans-48"/>
      </g>
     </g>
    </g>
    <g id="ytick_5">
     <g id="line2d_17">
      <path clip-path="url(#p7d37e32b01)" d="M 62.89875 413.495321 
L 1178.89875 413.495321 
" style="fill:none;stroke:#b0b0b0;stroke-linecap:square;stroke-width:0.8;"/>
     </g>
     <g id="line2d_18">
      <g>
       <use style="stroke:#000000;stroke-width:0.8;" x="62.89875" xlink:href="#med1b9b7257" y="413.495321"/>
      </g>
     </g>
     <g id="text_13">
      <!-- 400 -->
      <g transform="translate(31.085 418.434305)scale(0.13 -0.13)">
       <use xlink:href="#DejaVuSans-52"/>
       <use x="63.623047" xlink:href="#DejaVuSans-48"/>
       <use x="127.246094" xlink:href="#DejaVuSans-48"/>
      </g>
     </g>
    </g>
    <g id="ytick_6">
     <g id="line2d_19">
      <path clip-path="url(#p7d37e32b01)" d="M 62.89875 395.251851 
L 1178.89875 395.251851 
" style="fill:none;stroke:#b0b0b0;stroke-linecap:square;stroke-width:0.8;"/>
     </g>
     <g id="line2d_20">
      <g>
       <use style="stroke:#000000;stroke-width:0.8;" x="62.89875" xlink:href="#med1b9b7257" y="395.251851"/>
      </g>
     </g>
     <g id="text_14">
      <!-- 500 -->
      <g transform="translate(31.085 400.190835)scale(0.13 -0.13)">
       <use xlink:href="#DejaVuSans-53"/>
       <use x="63.623047" xlink:href="#DejaVuSans-48"/>
       <use x="127.246094" xlink:href="#DejaVuSans-48"/>
      </g>
     </g>
    </g>
    <g id="ytick_7">
     <g id="line2d_21">
      <path clip-path="url(#p7d37e32b01)" d="M 62.89875 377.008381 
L 1178.89875 377.008381 
" style="fill:none;stroke:#b0b0b0;stroke-linecap:square;stroke-width:0.8;"/>
     </g>
     <g id="line2d_22">
      <g>
       <use style="stroke:#000000;stroke-width:0.8;" x="62.89875" xlink:href="#med1b9b7257" y="377.008381"/>
      </g>
     </g>
     <g id="text_15">
      <!-- 600 -->
      <g transform="translate(31.085 381.947365)scale(0.13 -0.13)">
       <use xlink:href="#DejaVuSans-54"/>
       <use x="63.623047" xlink:href="#DejaVuSans-48"/>
       <use x="127.246094" xlink:href="#DejaVuSans-48"/>
      </g>
     </g>
    </g>
    <g id="ytick_8">
     <g id="line2d_23">
      <path clip-path="url(#p7d37e32b01)" d="M 62.89875 358.764911 
L 1178.89875 358.764911 
" style="fill:none;stroke:#b0b0b0;stroke-linecap:square;stroke-width:0.8;"/>
     </g>
     <g id="line2d_24">
      <g>
       <use style="stroke:#000000;stroke-width:0.8;" x="62.89875" xlink:href="#med1b9b7257" y="358.764911"/>
      </g>
     </g>
     <g id="text_16">
      <!-- 700 -->
      <g transform="translate(31.085 363.703896)scale(0.13 -0.13)">
       <use xlink:href="#DejaVuSans-55"/>
       <use x="63.623047" xlink:href="#DejaVuSans-48"/>
       <use x="127.246094" xlink:href="#DejaVuSans-48"/>
      </g>
     </g>
    </g>
    <g id="ytick_9">
     <g id="line2d_25">
      <path clip-path="url(#p7d37e32b01)" d="M 62.89875 340.521441 
L 1178.89875 340.521441 
" style="fill:none;stroke:#b0b0b0;stroke-linecap:square;stroke-width:0.8;"/>
     </g>
     <g id="line2d_26">
      <g>
       <use style="stroke:#000000;stroke-width:0.8;" x="62.89875" xlink:href="#med1b9b7257" y="340.521441"/>
      </g>
     </g>
     <g id="text_17">
      <!-- 800 -->
      <g transform="translate(31.085 345.460426)scale(0.13 -0.13)">
       <use xlink:href="#DejaVuSans-56"/>
       <use x="63.623047" xlink:href="#DejaVuSans-48"/>
       <use x="127.246094" xlink:href="#DejaVuSans-48"/>
      </g>
     </g>
    </g>
    <g id="ytick_10">
     <g id="line2d_27">
      <path clip-path="url(#p7d37e32b01)" d="M 62.89875 322.277972 
L 1178.89875 322.277972 
" style="fill:none;stroke:#b0b0b0;stroke-linecap:square;stroke-width:0.8;"/>
     </g>
     <g id="line2d_28">
      <g>
       <use style="stroke:#000000;stroke-width:0.8;" x="62.89875" xlink:href="#med1b9b7257" y="322.277972"/>
      </g>
     </g>
     <g id="text_18">
      <!-- 900 -->
      <g transform="translate(31.085 327.216956)scale(0.13 -0.13)">
       <use xlink:href="#DejaVuSans-57"/>
       <use x="63.623047" xlink:href="#DejaVuSans-48"/>
       <use x="127.246094" xlink:href="#DejaVuSans-48"/>
      </g>
     </g>
    </g>
    <g id="ytick_11">
     <g id="line2d_29">
      <path clip-path="url(#p7d37e32b01)" d="M 62.89875 304.034502 
L 1178.89875 304.034502 
" style="fill:none;stroke:#b0b0b0;stroke-linecap:square;stroke-width:0.8;"/>
     </g>
     <g id="line2d_30">
      <g>
       <use style="stroke:#000000;stroke-width:0.8;" x="62.89875" xlink:href="#med1b9b7257" y="304.034502"/>
      </g>
     </g>
     <g id="text_19">
      <!-- 1000 -->
      <g transform="translate(22.81375 308.973486)scale(0.13 -0.13)">
       <use xlink:href="#DejaVuSans-49"/>
       <use x="63.623047" xlink:href="#DejaVuSans-48"/>
       <use x="127.246094" xlink:href="#DejaVuSans-48"/>
       <use x="190.869141" xlink:href="#DejaVuSans-48"/>
      </g>
     </g>
    </g>
    <g id="ytick_12">
     <g id="line2d_31">
      <path clip-path="url(#p7d37e32b01)" d="M 62.89875 285.791032 
L 1178.89875 285.791032 
" style="fill:none;stroke:#b0b0b0;stroke-linecap:square;stroke-width:0.8;"/>
     </g>
     <g id="line2d_32">
      <g>
       <use style="stroke:#000000;stroke-width:0.8;" x="62.89875" xlink:href="#med1b9b7257" y="285.791032"/>
      </g>
     </g>
     <g id="text_20">
      <!-- 1100 -->
      <g transform="translate(22.81375 290.730016)scale(0.13 -0.13)">
       <use xlink:href="#DejaVuSans-49"/>
       <use x="63.623047" xlink:href="#DejaVuSans-49"/>
       <use x="127.246094" xlink:href="#DejaVuSans-48"/>
       <use x="190.869141" xlink:href="#DejaVuSans-48"/>
      </g>
     </g>
    </g>
    <g id="ytick_13">
     <g id="line2d_33">
      <path clip-path="url(#p7d37e32b01)" d="M 62.89875 267.547562 
L 1178.89875 267.547562 
" style="fill:none;stroke:#b0b0b0;stroke-linecap:square;stroke-width:0.8;"/>
     </g>
     <g id="line2d_34">
      <g>
       <use style="stroke:#000000;stroke-width:0.8;" x="62.89875" xlink:href="#med1b9b7257" y="267.547562"/>
      </g>
     </g>
     <g id="text_21">
      <!-- 1200 -->
      <g transform="translate(22.81375 272.486546)scale(0.13 -0.13)">
       <use xlink:href="#DejaVuSans-49"/>
       <use x="63.623047" xlink:href="#DejaVuSans-50"/>
       <use x="127.246094" xlink:href="#DejaVuSans-48"/>
       <use x="190.869141" xlink:href="#DejaVuSans-48"/>
      </g>
     </g>
    </g>
    <g id="ytick_14">
     <g id="line2d_35">
      <path clip-path="url(#p7d37e32b01)" d="M 62.89875 249.304092 
L 1178.89875 249.304092 
" style="fill:none;stroke:#b0b0b0;stroke-linecap:square;stroke-width:0.8;"/>
     </g>
     <g id="line2d_36">
      <g>
       <use style="stroke:#000000;stroke-width:0.8;" x="62.89875" xlink:href="#med1b9b7257" y="249.304092"/>
      </g>
     </g>
     <g id="text_22">
      <!-- 1300 -->
      <g transform="translate(22.81375 254.243077)scale(0.13 -0.13)">
       <use xlink:href="#DejaVuSans-49"/>
       <use x="63.623047" xlink:href="#DejaVuSans-51"/>
       <use x="127.246094" xlink:href="#DejaVuSans-48"/>
       <use x="190.869141" xlink:href="#DejaVuSans-48"/>
      </g>
     </g>
    </g>
    <g id="ytick_15">
     <g id="line2d_37">
      <path clip-path="url(#p7d37e32b01)" d="M 62.89875 231.060622 
L 1178.89875 231.060622 
" style="fill:none;stroke:#b0b0b0;stroke-linecap:square;stroke-width:0.8;"/>
     </g>
     <g id="line2d_38">
      <g>
       <use style="stroke:#000000;stroke-width:0.8;" x="62.89875" xlink:href="#med1b9b7257" y="231.060622"/>
      </g>
     </g>
     <g id="text_23">
      <!-- 1400 -->
      <g transform="translate(22.81375 235.999607)scale(0.13 -0.13)">
       <use xlink:href="#DejaVuSans-49"/>
       <use x="63.623047" xlink:href="#DejaVuSans-52"/>
       <use x="127.246094" xlink:href="#DejaVuSans-48"/>
       <use x="190.869141" xlink:href="#DejaVuSans-48"/>
      </g>
     </g>
    </g>
    <g id="ytick_16">
     <g id="line2d_39">
      <path clip-path="url(#p7d37e32b01)" d="M 62.89875 212.817153 
L 1178.89875 212.817153 
" style="fill:none;stroke:#b0b0b0;stroke-linecap:square;stroke-width:0.8;"/>
     </g>
     <g id="line2d_40">
      <g>
       <use style="stroke:#000000;stroke-width:0.8;" x="62.89875" xlink:href="#med1b9b7257" y="212.817153"/>
      </g>
     </g>
     <g id="text_24">
      <!-- 1500 -->
      <g transform="translate(22.81375 217.756137)scale(0.13 -0.13)">
       <use xlink:href="#DejaVuSans-49"/>
       <use x="63.623047" xlink:href="#DejaVuSans-53"/>
       <use x="127.246094" xlink:href="#DejaVuSans-48"/>
       <use x="190.869141" xlink:href="#DejaVuSans-48"/>
      </g>
     </g>
    </g>
    <g id="ytick_17">
     <g id="line2d_41">
      <path clip-path="url(#p7d37e32b01)" d="M 62.89875 194.573683 
L 1178.89875 194.573683 
" style="fill:none;stroke:#b0b0b0;stroke-linecap:square;stroke-width:0.8;"/>
     </g>
     <g id="line2d_42">
      <g>
       <use style="stroke:#000000;stroke-width:0.8;" x="62.89875" xlink:href="#med1b9b7257" y="194.573683"/>
      </g>
     </g>
     <g id="text_25">
      <!-- 1600 -->
      <g transform="translate(22.81375 199.512667)scale(0.13 -0.13)">
       <use xlink:href="#DejaVuSans-49"/>
       <use x="63.623047" xlink:href="#DejaVuSans-54"/>
       <use x="127.246094" xlink:href="#DejaVuSans-48"/>
       <use x="190.869141" xlink:href="#DejaVuSans-48"/>
      </g>
     </g>
    </g>
    <g id="ytick_18">
     <g id="line2d_43">
      <path clip-path="url(#p7d37e32b01)" d="M 62.89875 176.330213 
L 1178.89875 176.330213 
" style="fill:none;stroke:#b0b0b0;stroke-linecap:square;stroke-width:0.8;"/>
     </g>
     <g id="line2d_44">
      <g>
       <use style="stroke:#000000;stroke-width:0.8;" x="62.89875" xlink:href="#med1b9b7257" y="176.330213"/>
      </g>
     </g>
     <g id="text_26">
      <!-- 1700 -->
      <g transform="translate(22.81375 181.269197)scale(0.13 -0.13)">
       <use xlink:href="#DejaVuSans-49"/>
       <use x="63.623047" xlink:href="#DejaVuSans-55"/>
       <use x="127.246094" xlink:href="#DejaVuSans-48"/>
       <use x="190.869141" xlink:href="#DejaVuSans-48"/>
      </g>
     </g>
    </g>
    <g id="ytick_19">
     <g id="line2d_45">
      <path clip-path="url(#p7d37e32b01)" d="M 62.89875 158.086743 
L 1178.89875 158.086743 
" style="fill:none;stroke:#b0b0b0;stroke-linecap:square;stroke-width:0.8;"/>
     </g>
     <g id="line2d_46">
      <g>
       <use style="stroke:#000000;stroke-width:0.8;" x="62.89875" xlink:href="#med1b9b7257" y="158.086743"/>
      </g>
     </g>
     <g id="text_27">
      <!-- 1800 -->
      <g transform="translate(22.81375 163.025727)scale(0.13 -0.13)">
       <use xlink:href="#DejaVuSans-49"/>
       <use x="63.623047" xlink:href="#DejaVuSans-56"/>
       <use x="127.246094" xlink:href="#DejaVuSans-48"/>
       <use x="190.869141" xlink:href="#DejaVuSans-48"/>
      </g>
     </g>
    </g>
    <g id="ytick_20">
     <g id="line2d_47">
      <path clip-path="url(#p7d37e32b01)" d="M 62.89875 139.843273 
L 1178.89875 139.843273 
" style="fill:none;stroke:#b0b0b0;stroke-linecap:square;stroke-width:0.8;"/>
     </g>
     <g id="line2d_48">
      <g>
       <use style="stroke:#000000;stroke-width:0.8;" x="62.89875" xlink:href="#med1b9b7257" y="139.843273"/>
      </g>
     </g>
     <g id="text_28">
      <!-- 1900 -->
      <g transform="translate(22.81375 144.782258)scale(0.13 -0.13)">
       <use xlink:href="#DejaVuSans-49"/>
       <use x="63.623047" xlink:href="#DejaVuSans-57"/>
       <use x="127.246094" xlink:href="#DejaVuSans-48"/>
       <use x="190.869141" xlink:href="#DejaVuSans-48"/>
      </g>
     </g>
    </g>
    <g id="ytick_21">
     <g id="line2d_49">
      <path clip-path="url(#p7d37e32b01)" d="M 62.89875 121.599803 
L 1178.89875 121.599803 
" style="fill:none;stroke:#b0b0b0;stroke-linecap:square;stroke-width:0.8;"/>
     </g>
     <g id="line2d_50">
      <g>
       <use style="stroke:#000000;stroke-width:0.8;" x="62.89875" xlink:href="#med1b9b7257" y="121.599803"/>
      </g>
     </g>
     <g id="text_29">
      <!-- 2000 -->
      <g transform="translate(22.81375 126.538788)scale(0.13 -0.13)">
       <use xlink:href="#DejaVuSans-50"/>
       <use x="63.623047" xlink:href="#DejaVuSans-48"/>
       <use x="127.246094" xlink:href="#DejaVuSans-48"/>
       <use x="190.869141" xlink:href="#DejaVuSans-48"/>
      </g>
     </g>
    </g>
    <g id="ytick_22">
     <g id="line2d_51">
      <path clip-path="url(#p7d37e32b01)" d="M 62.89875 103.356334 
L 1178.89875 103.356334 
" style="fill:none;stroke:#b0b0b0;stroke-linecap:square;stroke-width:0.8;"/>
     </g>
     <g id="line2d_52">
      <g>
       <use style="stroke:#000000;stroke-width:0.8;" x="62.89875" xlink:href="#med1b9b7257" y="103.356334"/>
      </g>
     </g>
     <g id="text_30">
      <!-- 2100 -->
      <g transform="translate(22.81375 108.295318)scale(0.13 -0.13)">
       <use xlink:href="#DejaVuSans-50"/>
       <use x="63.623047" xlink:href="#DejaVuSans-49"/>
       <use x="127.246094" xlink:href="#DejaVuSans-48"/>
       <use x="190.869141" xlink:href="#DejaVuSans-48"/>
      </g>
     </g>
    </g>
    <g id="ytick_23">
     <g id="line2d_53">
      <path clip-path="url(#p7d37e32b01)" d="M 62.89875 85.112864 
L 1178.89875 85.112864 
" style="fill:none;stroke:#b0b0b0;stroke-linecap:square;stroke-width:0.8;"/>
     </g>
     <g id="line2d_54">
      <g>
       <use style="stroke:#000000;stroke-width:0.8;" x="62.89875" xlink:href="#med1b9b7257" y="85.112864"/>
      </g>
     </g>
     <g id="text_31">
      <!-- 2200 -->
      <g transform="translate(22.81375 90.051848)scale(0.13 -0.13)">
       <use xlink:href="#DejaVuSans-50"/>
       <use x="63.623047" xlink:href="#DejaVuSans-50"/>
       <use x="127.246094" xlink:href="#DejaVuSans-48"/>
       <use x="190.869141" xlink:href="#DejaVuSans-48"/>
      </g>
     </g>
    </g>
    <g id="ytick_24">
     <g id="line2d_55">
      <path clip-path="url(#p7d37e32b01)" d="M 62.89875 66.869394 
L 1178.89875 66.869394 
" style="fill:none;stroke:#b0b0b0;stroke-linecap:square;stroke-width:0.8;"/>
     </g>
     <g id="line2d_56">
      <g>
       <use style="stroke:#000000;stroke-width:0.8;" x="62.89875" xlink:href="#med1b9b7257" y="66.869394"/>
      </g>
     </g>
     <g id="text_32">
      <!-- 2300 -->
      <g transform="translate(22.81375 71.808378)scale(0.13 -0.13)">
       <use xlink:href="#DejaVuSans-50"/>
       <use x="63.623047" xlink:href="#DejaVuSans-51"/>
       <use x="127.246094" xlink:href="#DejaVuSans-48"/>
       <use x="190.869141" xlink:href="#DejaVuSans-48"/>
      </g>
     </g>
    </g>
    <g id="ytick_25">
     <g id="line2d_57">
      <path clip-path="url(#p7d37e32b01)" d="M 62.89875 48.625924 
L 1178.89875 48.625924 
" style="fill:none;stroke:#b0b0b0;stroke-linecap:square;stroke-width:0.8;"/>
     </g>
     <g id="line2d_58">
      <g>
       <use style="stroke:#000000;stroke-width:0.8;" x="62.89875" xlink:href="#med1b9b7257" y="48.625924"/>
      </g>
     </g>
     <g id="text_33">
      <!-- 2400 -->
      <g transform="translate(22.81375 53.564908)scale(0.13 -0.13)">
       <use xlink:href="#DejaVuSans-50"/>
       <use x="63.623047" xlink:href="#DejaVuSans-52"/>
       <use x="127.246094" xlink:href="#DejaVuSans-48"/>
       <use x="190.869141" xlink:href="#DejaVuSans-48"/>
      </g>
     </g>
    </g>
    <g id="ytick_26">
     <g id="line2d_59">
      <path clip-path="url(#p7d37e32b01)" d="M 62.89875 30.382454 
L 1178.89875 30.382454 
" style="fill:none;stroke:#b0b0b0;stroke-linecap:square;stroke-width:0.8;"/>
     </g>
     <g id="line2d_60">
      <g>
       <use style="stroke:#000000;stroke-width:0.8;" x="62.89875" xlink:href="#med1b9b7257" y="30.382454"/>
      </g>
     </g>
     <g id="text_34">
      <!-- 2500 -->
      <g transform="translate(22.81375 35.321439)scale(0.13 -0.13)">
       <use xlink:href="#DejaVuSans-50"/>
       <use x="63.623047" xlink:href="#DejaVuSans-53"/>
       <use x="127.246094" xlink:href="#DejaVuSans-48"/>
       <use x="190.869141" xlink:href="#DejaVuSans-48"/>
      </g>
     </g>
    </g>
    <g id="ytick_27">
     <g id="line2d_61">
      <path clip-path="url(#p7d37e32b01)" d="M 62.89875 12.138984 
L 1178.89875 12.138984 
" style="fill:none;stroke:#b0b0b0;stroke-linecap:square;stroke-width:0.8;"/>
     </g>
     <g id="line2d_62">
      <g>
       <use style="stroke:#000000;stroke-width:0.8;" x="62.89875" xlink:href="#med1b9b7257" y="12.138984"/>
      </g>
     </g>
     <g id="text_35">
      <!-- 2600 -->
      <g transform="translate(22.81375 17.077969)scale(0.13 -0.13)">
       <use xlink:href="#DejaVuSans-50"/>
       <use x="63.623047" xlink:href="#DejaVuSans-54"/>
       <use x="127.246094" xlink:href="#DejaVuSans-48"/>
       <use x="190.869141" xlink:href="#DejaVuSans-48"/>
      </g>
     </g>
    </g>
    <g id="text_36">
     <!-- Anzahl von Fällen -->
     <defs>
      <path d="M 34.1875 63.1875 
L 20.796875 26.90625 
L 47.609375 26.90625 
z
M 28.609375 72.90625 
L 39.796875 72.90625 
L 67.578125 0 
L 57.328125 0 
L 50.6875 18.703125 
L 17.828125 18.703125 
L 11.1875 0 
L 0.78125 0 
z
" id="DejaVuSans-65"/>
      <path d="M 54.890625 33.015625 
L 54.890625 0 
L 45.90625 0 
L 45.90625 32.71875 
Q 45.90625 40.484375 42.875 44.328125 
Q 39.84375 48.1875 33.796875 48.1875 
Q 26.515625 48.1875 22.3125 43.546875 
Q 18.109375 38.921875 18.109375 30.90625 
L 18.109375 0 
L 9.078125 0 
L 9.078125 54.6875 
L 18.109375 54.6875 
L 18.109375 46.1875 
Q 21.34375 51.125 25.703125 53.5625 
Q 30.078125 56 35.796875 56 
Q 45.21875 56 50.046875 50.171875 
Q 54.890625 44.34375 54.890625 33.015625 
z
" id="DejaVuSans-110"/>
      <path d="M 5.515625 54.6875 
L 48.1875 54.6875 
L 48.1875 46.484375 
L 14.40625 7.171875 
L 48.1875 7.171875 
L 48.1875 0 
L 4.296875 0 
L 4.296875 8.203125 
L 38.09375 47.515625 
L 5.515625 47.515625 
z
" id="DejaVuSans-122"/>
      <path d="M 34.28125 27.484375 
Q 23.390625 27.484375 19.1875 25 
Q 14.984375 22.515625 14.984375 16.5 
Q 14.984375 11.71875 18.140625 8.90625 
Q 21.296875 6.109375 26.703125 6.109375 
Q 34.1875 6.109375 38.703125 11.40625 
Q 43.21875 16.703125 43.21875 25.484375 
L 43.21875 27.484375 
z
M 52.203125 31.203125 
L 52.203125 0 
L 43.21875 0 
L 43.21875 8.296875 
Q 40.140625 3.328125 35.546875 0.953125 
Q 30.953125 -1.421875 24.3125 -1.421875 
Q 15.921875 -1.421875 10.953125 3.296875 
Q 6 8.015625 6 15.921875 
Q 6 25.140625 12.171875 29.828125 
Q 18.359375 34.515625 30.609375 34.515625 
L 43.21875 34.515625 
L 43.21875 35.40625 
Q 43.21875 41.609375 39.140625 45 
Q 35.0625 48.390625 27.6875 48.390625 
Q 23 48.390625 18.546875 47.265625 
Q 14.109375 46.140625 10.015625 43.890625 
L 10.015625 52.203125 
Q 14.9375 54.109375 19.578125 55.046875 
Q 24.21875 56 28.609375 56 
Q 40.484375 56 46.34375 49.84375 
Q 52.203125 43.703125 52.203125 31.203125 
z
" id="DejaVuSans-97"/>
      <path d="M 54.890625 33.015625 
L 54.890625 0 
L 45.90625 0 
L 45.90625 32.71875 
Q 45.90625 40.484375 42.875 44.328125 
Q 39.84375 48.1875 33.796875 48.1875 
Q 26.515625 48.1875 22.3125 43.546875 
Q 18.109375 38.921875 18.109375 30.90625 
L 18.109375 0 
L 9.078125 0 
L 9.078125 75.984375 
L 18.109375 75.984375 
L 18.109375 46.1875 
Q 21.34375 51.125 25.703125 53.5625 
Q 30.078125 56 35.796875 56 
Q 45.21875 56 50.046875 50.171875 
Q 54.890625 44.34375 54.890625 33.015625 
z
" id="DejaVuSans-104"/>
      <path d="M 9.421875 75.984375 
L 18.40625 75.984375 
L 18.40625 0 
L 9.421875 0 
z
" id="DejaVuSans-108"/>
      <path id="DejaVuSans-32"/>
      <path d="M 2.984375 54.6875 
L 12.5 54.6875 
L 29.59375 8.796875 
L 46.6875 54.6875 
L 56.203125 54.6875 
L 35.6875 0 
L 23.484375 0 
z
" id="DejaVuSans-118"/>
      <path d="M 30.609375 48.390625 
Q 23.390625 48.390625 19.1875 42.75 
Q 14.984375 37.109375 14.984375 27.296875 
Q 14.984375 17.484375 19.15625 11.84375 
Q 23.34375 6.203125 30.609375 6.203125 
Q 37.796875 6.203125 41.984375 11.859375 
Q 46.1875 17.53125 46.1875 27.296875 
Q 46.1875 37.015625 41.984375 42.703125 
Q 37.796875 48.390625 30.609375 48.390625 
z
M 30.609375 56 
Q 42.328125 56 49.015625 48.375 
Q 55.71875 40.765625 55.71875 27.296875 
Q 55.71875 13.875 49.015625 6.21875 
Q 42.328125 -1.421875 30.609375 -1.421875 
Q 18.84375 -1.421875 12.171875 6.21875 
Q 5.515625 13.875 5.515625 27.296875 
Q 5.515625 40.765625 12.171875 48.375 
Q 18.84375 56 30.609375 56 
z
" id="DejaVuSans-111"/>
      <path d="M 9.8125 72.90625 
L 51.703125 72.90625 
L 51.703125 64.59375 
L 19.671875 64.59375 
L 19.671875 43.109375 
L 48.578125 43.109375 
L 48.578125 34.8125 
L 19.671875 34.8125 
L 19.671875 0 
L 9.8125 0 
z
" id="DejaVuSans-70"/>
      <path d="M 34.28125 27.484375 
Q 23.390625 27.484375 19.1875 25 
Q 14.984375 22.515625 14.984375 16.5 
Q 14.984375 11.71875 18.140625 8.90625 
Q 21.296875 6.109375 26.703125 6.109375 
Q 34.1875 6.109375 38.703125 11.40625 
Q 43.21875 16.703125 43.21875 25.484375 
L 43.21875 27.484375 
z
M 52.203125 31.203125 
L 52.203125 0 
L 43.21875 0 
L 43.21875 8.296875 
Q 40.140625 3.328125 35.546875 0.953125 
Q 30.953125 -1.421875 24.3125 -1.421875 
Q 15.921875 -1.421875 10.953125 3.296875 
Q 6 8.015625 6 15.921875 
Q 6 25.140625 12.171875 29.828125 
Q 18.359375 34.515625 30.609375 34.515625 
L 43.21875 34.515625 
L 43.21875 35.40625 
Q 43.21875 41.609375 39.140625 45 
Q 35.0625 48.390625 27.6875 48.390625 
Q 23 48.390625 18.546875 47.265625 
Q 14.109375 46.140625 10.015625 43.890625 
L 10.015625 52.203125 
Q 14.9375 54.109375 19.578125 55.046875 
Q 24.21875 56 28.609375 56 
Q 40.484375 56 46.34375 49.84375 
Q 52.203125 43.703125 52.203125 31.203125 
z
M 33.59375 75.78125 
L 43.5 75.78125 
L 43.5 65.921875 
L 33.59375 65.921875 
z
M 14.5 75.78125 
L 24.40625 75.78125 
L 24.40625 65.921875 
L 14.5 65.921875 
z
" id="DejaVuSans-228"/>
      <path d="M 56.203125 29.59375 
L 56.203125 25.203125 
L 14.890625 25.203125 
Q 15.484375 15.921875 20.484375 11.0625 
Q 25.484375 6.203125 34.421875 6.203125 
Q 39.59375 6.203125 44.453125 7.46875 
Q 49.3125 8.734375 54.109375 11.28125 
L 54.109375 2.78125 
Q 49.265625 0.734375 44.1875 -0.34375 
Q 39.109375 -1.421875 33.890625 -1.421875 
Q 20.796875 -1.421875 13.15625 6.1875 
Q 5.515625 13.8125 5.515625 26.8125 
Q 5.515625 40.234375 12.765625 48.109375 
Q 20.015625 56 32.328125 56 
Q 43.359375 56 49.78125 48.890625 
Q 56.203125 41.796875 56.203125 29.59375 
z
M 47.21875 32.234375 
Q 47.125 39.59375 43.09375 43.984375 
Q 39.0625 48.390625 32.421875 48.390625 
Q 24.90625 48.390625 20.390625 44.140625 
Q 15.875 39.890625 15.1875 32.171875 
z
" id="DejaVuSans-101"/>
     </defs>
     <g transform="translate(16.318125 309.388359)rotate(-90)scale(0.12 -0.12)">
      <use xlink:href="#DejaVuSans-65"/>
      <use x="68.408203" xlink:href="#DejaVuSans-110"/>
      <use x="131.787109" xlink:href="#DejaVuSans-122"/>
      <use x="184.277344" xlink:href="#DejaVuSans-97"/>
      <use x="245.556641" xlink:href="#DejaVuSans-104"/>
      <use x="308.935547" xlink:href="#DejaVuSans-108"/>
      <use x="336.71875" xlink:href="#DejaVuSans-32"/>
      <use x="368.505859" xlink:href="#DejaVuSans-118"/>
      <use x="427.685547" xlink:href="#DejaVuSans-111"/>
      <use x="488.867188" xlink:href="#DejaVuSans-110"/>
      <use x="552.246094" xlink:href="#DejaVuSans-32"/>
      <use x="584.033203" xlink:href="#DejaVuSans-70"/>
      <use x="632.427734" xlink:href="#DejaVuSans-228"/>
      <use x="693.707031" xlink:href="#DejaVuSans-108"/>
      <use x="721.490234" xlink:href="#DejaVuSans-108"/>
      <use x="749.273438" xlink:href="#DejaVuSans-101"/>
      <use x="810.796875" xlink:href="#DejaVuSans-110"/>
     </g>
    </g>
   </g>
   <g id="line2d_63">
    <path clip-path="url(#p7d37e32b01)" d="M 113.626023 485.374592 
L 118.017994 485.192157 
L 122.409966 485.192157 
L 126.801938 484.279984 
L 131.193909 482.455637 
L 135.585881 482.455637 
L 139.977853 481.908333 
L 144.369824 468.5906 
L 148.761796 464.394602 
L 157.545739 456.732344 
L 161.937711 453.08365 
L 166.329683 451.259303 
L 170.721654 449.070087 
L 175.113626 447.063305 
L 179.505598 445.238958 
L 183.897569 442.502438 
L 188.289541 440.678091 
L 192.681513 438.671309 
L 197.073484 438.30644 
L 201.465456 436.482093 
L 210.249399 434.84018 
L 214.641371 433.563138 
L 219.033343 432.833399 
L 223.425314 431.373921 
L 227.817286 430.644182 
L 236.601229 429.732009 
L 240.993201 428.819835 
L 245.385173 427.177923 
L 249.777144 424.076533 
L 254.169116 423.529229 
L 258.561088 423.16436 
L 267.345031 422.069752 
L 271.737003 421.887317 
L 276.128974 421.340013 
L 280.520946 420.245405 
L 289.304889 417.508884 
L 298.088833 414.589929 
L 302.480804 414.407494 
L 306.872776 413.495321 
L 311.264748 412.765582 
L 315.656719 411.853408 
L 320.048691 410.7588 
L 337.616578 408.569584 
L 342.008549 407.292541 
L 346.400521 406.562802 
L 350.792493 406.562802 
L 359.576436 406.745237 
L 363.968408 405.650629 
L 368.360379 405.468194 
L 381.536294 404.373586 
L 390.320238 404.373586 
L 403.496153 402.731674 
L 407.888124 402.731674 
L 434.239954 402.001935 
L 438.631926 402.001935 
L 443.023898 401.8195 
L 456.199813 401.8195 
L 460.591784 401.637065 
L 469.375728 401.089761 
L 473.767699 401.089761 
L 504.511501 399.265414 
L 513.295444 399.265414 
L 517.687416 398.353241 
L 522.079388 397.988371 
L 548.431218 397.988371 
L 552.823189 397.805937 
L 557.215161 397.441067 
L 561.607133 397.441067 
L 565.999104 395.61672 
L 574.783048 394.522112 
L 579.175019 392.332896 
L 583.566991 366.974473 
L 587.958963 361.501432 
L 592.350934 355.663521 
L 605.526849 343.257962 
L 609.918821 343.075527 
L 614.310793 342.528223 
L 618.702764 341.61605 
L 623.094736 340.339007 
L 636.270651 338.332225 
L 640.662622 338.14979 
L 645.054594 337.784921 
L 649.446566 337.602486 
L 653.838537 337.602486 
L 667.014452 337.055182 
L 671.406424 336.143009 
L 675.798396 336.143009 
L 680.190367 335.41327 
L 684.582339 334.865966 
L 728.502056 332.494315 
L 732.894027 331.947011 
L 746.069942 331.217272 
L 759.245857 329.757794 
L 763.637829 329.57536 
L 768.029801 329.57536 
L 772.421772 327.933447 
L 776.813744 327.568578 
L 789.989659 325.196927 
L 794.381631 323.919884 
L 798.773602 323.555014 
L 803.165574 322.460406 
L 807.557546 322.095537 
L 820.733461 321.183363 
L 825.125432 320.636059 
L 829.517404 320.453625 
L 838.301347 318.994147 
L 851.477262 318.446843 
L 855.869234 317.717104 
L 869.045149 317.717104 
L 886.613036 316.440061 
L 891.005007 316.075192 
L 895.396979 314.980584 
L 899.788951 314.615714 
L 912.964866 313.338671 
L 917.356837 312.608933 
L 921.748809 312.244063 
L 926.140781 312.061628 
L 930.532752 311.696759 
L 943.708667 311.33189 
L 948.100639 310.419716 
L 952.492611 309.689977 
L 956.884582 309.142673 
L 974.452469 306.223718 
L 978.844441 304.946675 
L 983.236412 302.757459 
L 987.628384 301.662851 
L 992.020356 301.480416 
L 1005.196271 295.095202 
L 1009.588242 293.453289 
L 1044.724016 277.216601 
L 1049.115987 275.392254 
L 1053.507959 271.196256 
L 1066.683874 256.054176 
L 1071.075846 250.3987 
L 1075.467817 248.756788 
L 1079.859789 248.027049 
L 1084.251761 231.060622 
L 1097.427676 194.573683 
L 1114.995562 194.573683 
L 1128.171477 158.086743 
L 1128.171477 158.086743 
" style="fill:none;stroke:#dbcd00;stroke-linecap:square;stroke-width:2;"/>
    <defs>
     <path d="M 0 1.5 
C 0.397805 1.5 0.77937 1.341951 1.06066 1.06066 
C 1.341951 0.77937 1.5 0.397805 1.5 0 
C 1.5 -0.397805 1.341951 -0.77937 1.06066 -1.06066 
C 0.77937 -1.341951 0.397805 -1.5 0 -1.5 
C -0.397805 -1.5 -0.77937 -1.341951 -1.06066 -1.06066 
C -1.341951 -0.77937 -1.5 -0.397805 -1.5 0 
C -1.5 0.397805 -1.341951 0.77937 -1.06066 1.06066 
C -0.77937 1.341951 -0.397805 1.5 0 1.5 
z
" id="m95d1bfe00d" style="stroke:#dbcd00;"/>
    </defs>
    <g clip-path="url(#p7d37e32b01)">
     <use style="fill:#dbcd00;stroke:#dbcd00;" x="113.626023" xlink:href="#m95d1bfe00d" y="485.374592"/>
     <use style="fill:#dbcd00;stroke:#dbcd00;" x="118.017994" xlink:href="#m95d1bfe00d" y="485.192157"/>
     <use style="fill:#dbcd00;stroke:#dbcd00;" x="122.409966" xlink:href="#m95d1bfe00d" y="485.192157"/>
     <use style="fill:#dbcd00;stroke:#dbcd00;" x="126.801938" xlink:href="#m95d1bfe00d" y="484.279984"/>
     <use style="fill:#dbcd00;stroke:#dbcd00;" x="131.193909" xlink:href="#m95d1bfe00d" y="482.455637"/>
     <use style="fill:#dbcd00;stroke:#dbcd00;" x="135.585881" xlink:href="#m95d1bfe00d" y="482.455637"/>
     <use style="fill:#dbcd00;stroke:#dbcd00;" x="139.977853" xlink:href="#m95d1bfe00d" y="481.908333"/>
     <use style="fill:#dbcd00;stroke:#dbcd00;" x="144.369824" xlink:href="#m95d1bfe00d" y="468.5906"/>
     <use style="fill:#dbcd00;stroke:#dbcd00;" x="148.761796" xlink:href="#m95d1bfe00d" y="464.394602"/>
     <use style="fill:#dbcd00;stroke:#dbcd00;" x="153.153768" xlink:href="#m95d1bfe00d" y="460.563473"/>
     <use style="fill:#dbcd00;stroke:#dbcd00;" x="157.545739" xlink:href="#m95d1bfe00d" y="456.732344"/>
     <use style="fill:#dbcd00;stroke:#dbcd00;" x="161.937711" xlink:href="#m95d1bfe00d" y="453.08365"/>
     <use style="fill:#dbcd00;stroke:#dbcd00;" x="166.329683" xlink:href="#m95d1bfe00d" y="451.259303"/>
     <use style="fill:#dbcd00;stroke:#dbcd00;" x="170.721654" xlink:href="#m95d1bfe00d" y="449.070087"/>
     <use style="fill:#dbcd00;stroke:#dbcd00;" x="175.113626" xlink:href="#m95d1bfe00d" y="447.063305"/>
     <use style="fill:#dbcd00;stroke:#dbcd00;" x="179.505598" xlink:href="#m95d1bfe00d" y="445.238958"/>
     <use style="fill:#dbcd00;stroke:#dbcd00;" x="183.897569" xlink:href="#m95d1bfe00d" y="442.502438"/>
     <use style="fill:#dbcd00;stroke:#dbcd00;" x="188.289541" xlink:href="#m95d1bfe00d" y="440.678091"/>
     <use style="fill:#dbcd00;stroke:#dbcd00;" x="192.681513" xlink:href="#m95d1bfe00d" y="438.671309"/>
     <use style="fill:#dbcd00;stroke:#dbcd00;" x="197.073484" xlink:href="#m95d1bfe00d" y="438.30644"/>
     <use style="fill:#dbcd00;stroke:#dbcd00;" x="201.465456" xlink:href="#m95d1bfe00d" y="436.482093"/>
     <use style="fill:#dbcd00;stroke:#dbcd00;" x="210.249399" xlink:href="#m95d1bfe00d" y="434.84018"/>
     <use style="fill:#dbcd00;stroke:#dbcd00;" x="214.641371" xlink:href="#m95d1bfe00d" y="433.563138"/>
     <use style="fill:#dbcd00;stroke:#dbcd00;" x="219.033343" xlink:href="#m95d1bfe00d" y="432.833399"/>
     <use style="fill:#dbcd00;stroke:#dbcd00;" x="223.425314" xlink:href="#m95d1bfe00d" y="431.373921"/>
     <use style="fill:#dbcd00;stroke:#dbcd00;" x="227.817286" xlink:href="#m95d1bfe00d" y="430.644182"/>
     <use style="fill:#dbcd00;stroke:#dbcd00;" x="236.601229" xlink:href="#m95d1bfe00d" y="429.732009"/>
     <use style="fill:#dbcd00;stroke:#dbcd00;" x="240.993201" xlink:href="#m95d1bfe00d" y="428.819835"/>
     <use style="fill:#dbcd00;stroke:#dbcd00;" x="245.385173" xlink:href="#m95d1bfe00d" y="427.177923"/>
     <use style="fill:#dbcd00;stroke:#dbcd00;" x="249.777144" xlink:href="#m95d1bfe00d" y="424.076533"/>
     <use style="fill:#dbcd00;stroke:#dbcd00;" x="254.169116" xlink:href="#m95d1bfe00d" y="423.529229"/>
     <use style="fill:#dbcd00;stroke:#dbcd00;" x="258.561088" xlink:href="#m95d1bfe00d" y="423.16436"/>
     <use style="fill:#dbcd00;stroke:#dbcd00;" x="267.345031" xlink:href="#m95d1bfe00d" y="422.069752"/>
     <use style="fill:#dbcd00;stroke:#dbcd00;" x="271.737003" xlink:href="#m95d1bfe00d" y="421.887317"/>
     <use style="fill:#dbcd00;stroke:#dbcd00;" x="276.128974" xlink:href="#m95d1bfe00d" y="421.340013"/>
     <use style="fill:#dbcd00;stroke:#dbcd00;" x="280.520946" xlink:href="#m95d1bfe00d" y="420.245405"/>
     <use style="fill:#dbcd00;stroke:#dbcd00;" x="289.304889" xlink:href="#m95d1bfe00d" y="417.508884"/>
     <use style="fill:#dbcd00;stroke:#dbcd00;" x="298.088833" xlink:href="#m95d1bfe00d" y="414.589929"/>
     <use style="fill:#dbcd00;stroke:#dbcd00;" x="302.480804" xlink:href="#m95d1bfe00d" y="414.407494"/>
     <use style="fill:#dbcd00;stroke:#dbcd00;" x="306.872776" xlink:href="#m95d1bfe00d" y="413.495321"/>
     <use style="fill:#dbcd00;stroke:#dbcd00;" x="311.264748" xlink:href="#m95d1bfe00d" y="412.765582"/>
     <use style="fill:#dbcd00;stroke:#dbcd00;" x="315.656719" xlink:href="#m95d1bfe00d" y="411.853408"/>
     <use style="fill:#dbcd00;stroke:#dbcd00;" x="320.048691" xlink:href="#m95d1bfe00d" y="410.7588"/>
     <use style="fill:#dbcd00;stroke:#dbcd00;" x="328.832634" xlink:href="#m95d1bfe00d" y="409.664192"/>
     <use style="fill:#dbcd00;stroke:#dbcd00;" x="333.224606" xlink:href="#m95d1bfe00d" y="409.116888"/>
     <use style="fill:#dbcd00;stroke:#dbcd00;" x="337.616578" xlink:href="#m95d1bfe00d" y="408.569584"/>
     <use style="fill:#dbcd00;stroke:#dbcd00;" x="342.008549" xlink:href="#m95d1bfe00d" y="407.292541"/>
     <use style="fill:#dbcd00;stroke:#dbcd00;" x="346.400521" xlink:href="#m95d1bfe00d" y="406.562802"/>
     <use style="fill:#dbcd00;stroke:#dbcd00;" x="350.792493" xlink:href="#m95d1bfe00d" y="406.562802"/>
     <use style="fill:#dbcd00;stroke:#dbcd00;" x="359.576436" xlink:href="#m95d1bfe00d" y="406.745237"/>
     <use style="fill:#dbcd00;stroke:#dbcd00;" x="363.968408" xlink:href="#m95d1bfe00d" y="405.650629"/>
     <use style="fill:#dbcd00;stroke:#dbcd00;" x="368.360379" xlink:href="#m95d1bfe00d" y="405.468194"/>
     <use style="fill:#dbcd00;stroke:#dbcd00;" x="377.144323" xlink:href="#m95d1bfe00d" y="404.738455"/>
     <use style="fill:#dbcd00;stroke:#dbcd00;" x="381.536294" xlink:href="#m95d1bfe00d" y="404.373586"/>
     <use style="fill:#dbcd00;stroke:#dbcd00;" x="390.320238" xlink:href="#m95d1bfe00d" y="404.373586"/>
     <use style="fill:#dbcd00;stroke:#dbcd00;" x="394.712209" xlink:href="#m95d1bfe00d" y="403.826282"/>
     <use style="fill:#dbcd00;stroke:#dbcd00;" x="403.496153" xlink:href="#m95d1bfe00d" y="402.731674"/>
     <use style="fill:#dbcd00;stroke:#dbcd00;" x="407.888124" xlink:href="#m95d1bfe00d" y="402.731674"/>
     <use style="fill:#dbcd00;stroke:#dbcd00;" x="425.456011" xlink:href="#m95d1bfe00d" y="402.184369"/>
     <use style="fill:#dbcd00;stroke:#dbcd00;" x="429.847983" xlink:href="#m95d1bfe00d" y="402.001935"/>
     <use style="fill:#dbcd00;stroke:#dbcd00;" x="434.239954" xlink:href="#m95d1bfe00d" y="402.001935"/>
     <use style="fill:#dbcd00;stroke:#dbcd00;" x="438.631926" xlink:href="#m95d1bfe00d" y="402.001935"/>
     <use style="fill:#dbcd00;stroke:#dbcd00;" x="443.023898" xlink:href="#m95d1bfe00d" y="401.8195"/>
     <use style="fill:#dbcd00;stroke:#dbcd00;" x="451.807841" xlink:href="#m95d1bfe00d" y="401.8195"/>
     <use style="fill:#dbcd00;stroke:#dbcd00;" x="456.199813" xlink:href="#m95d1bfe00d" y="401.8195"/>
     <use style="fill:#dbcd00;stroke:#dbcd00;" x="460.591784" xlink:href="#m95d1bfe00d" y="401.637065"/>
     <use style="fill:#dbcd00;stroke:#dbcd00;" x="469.375728" xlink:href="#m95d1bfe00d" y="401.089761"/>
     <use style="fill:#dbcd00;stroke:#dbcd00;" x="473.767699" xlink:href="#m95d1bfe00d" y="401.089761"/>
     <use style="fill:#dbcd00;stroke:#dbcd00;" x="482.551643" xlink:href="#m95d1bfe00d" y="400.542457"/>
     <use style="fill:#dbcd00;stroke:#dbcd00;" x="491.335586" xlink:href="#m95d1bfe00d" y="399.995153"/>
     <use style="fill:#dbcd00;stroke:#dbcd00;" x="500.119529" xlink:href="#m95d1bfe00d" y="399.447849"/>
     <use style="fill:#dbcd00;stroke:#dbcd00;" x="504.511501" xlink:href="#m95d1bfe00d" y="399.265414"/>
     <use style="fill:#dbcd00;stroke:#dbcd00;" x="513.295444" xlink:href="#m95d1bfe00d" y="399.265414"/>
     <use style="fill:#dbcd00;stroke:#dbcd00;" x="517.687416" xlink:href="#m95d1bfe00d" y="398.353241"/>
     <use style="fill:#dbcd00;stroke:#dbcd00;" x="522.079388" xlink:href="#m95d1bfe00d" y="397.988371"/>
     <use style="fill:#dbcd00;stroke:#dbcd00;" x="526.471359" xlink:href="#m95d1bfe00d" y="397.988371"/>
     <use style="fill:#dbcd00;stroke:#dbcd00;" x="535.255303" xlink:href="#m95d1bfe00d" y="397.988371"/>
     <use style="fill:#dbcd00;stroke:#dbcd00;" x="544.039246" xlink:href="#m95d1bfe00d" y="397.988371"/>
     <use style="fill:#dbcd00;stroke:#dbcd00;" x="548.431218" xlink:href="#m95d1bfe00d" y="397.988371"/>
     <use style="fill:#dbcd00;stroke:#dbcd00;" x="552.823189" xlink:href="#m95d1bfe00d" y="397.805937"/>
     <use style="fill:#dbcd00;stroke:#dbcd00;" x="557.215161" xlink:href="#m95d1bfe00d" y="397.441067"/>
     <use style="fill:#dbcd00;stroke:#dbcd00;" x="561.607133" xlink:href="#m95d1bfe00d" y="397.441067"/>
     <use style="fill:#dbcd00;stroke:#dbcd00;" x="565.999104" xlink:href="#m95d1bfe00d" y="395.61672"/>
     <use style="fill:#dbcd00;stroke:#dbcd00;" x="574.783048" xlink:href="#m95d1bfe00d" y="394.522112"/>
     <use style="fill:#dbcd00;stroke:#dbcd00;" x="579.175019" xlink:href="#m95d1bfe00d" y="392.332896"/>
     <use style="fill:#dbcd00;stroke:#dbcd00;" x="583.566991" xlink:href="#m95d1bfe00d" y="366.974473"/>
     <use style="fill:#dbcd00;stroke:#dbcd00;" x="587.958963" xlink:href="#m95d1bfe00d" y="361.501432"/>
     <use style="fill:#dbcd00;stroke:#dbcd00;" x="592.350934" xlink:href="#m95d1bfe00d" y="355.663521"/>
     <use style="fill:#dbcd00;stroke:#dbcd00;" x="605.526849" xlink:href="#m95d1bfe00d" y="343.257962"/>
     <use style="fill:#dbcd00;stroke:#dbcd00;" x="609.918821" xlink:href="#m95d1bfe00d" y="343.075527"/>
     <use style="fill:#dbcd00;stroke:#dbcd00;" x="614.310793" xlink:href="#m95d1bfe00d" y="342.528223"/>
     <use style="fill:#dbcd00;stroke:#dbcd00;" x="618.702764" xlink:href="#m95d1bfe00d" y="341.61605"/>
     <use style="fill:#dbcd00;stroke:#dbcd00;" x="623.094736" xlink:href="#m95d1bfe00d" y="340.339007"/>
     <use style="fill:#dbcd00;stroke:#dbcd00;" x="636.270651" xlink:href="#m95d1bfe00d" y="338.332225"/>
     <use style="fill:#dbcd00;stroke:#dbcd00;" x="640.662622" xlink:href="#m95d1bfe00d" y="338.14979"/>
     <use style="fill:#dbcd00;stroke:#dbcd00;" x="645.054594" xlink:href="#m95d1bfe00d" y="337.784921"/>
     <use style="fill:#dbcd00;stroke:#dbcd00;" x="649.446566" xlink:href="#m95d1bfe00d" y="337.602486"/>
     <use style="fill:#dbcd00;stroke:#dbcd00;" x="653.838537" xlink:href="#m95d1bfe00d" y="337.602486"/>
     <use style="fill:#dbcd00;stroke:#dbcd00;" x="667.014452" xlink:href="#m95d1bfe00d" y="337.055182"/>
     <use style="fill:#dbcd00;stroke:#dbcd00;" x="671.406424" xlink:href="#m95d1bfe00d" y="336.143009"/>
     <use style="fill:#dbcd00;stroke:#dbcd00;" x="675.798396" xlink:href="#m95d1bfe00d" y="336.143009"/>
     <use style="fill:#dbcd00;stroke:#dbcd00;" x="680.190367" xlink:href="#m95d1bfe00d" y="335.41327"/>
     <use style="fill:#dbcd00;stroke:#dbcd00;" x="684.582339" xlink:href="#m95d1bfe00d" y="334.865966"/>
     <use style="fill:#dbcd00;stroke:#dbcd00;" x="728.502056" xlink:href="#m95d1bfe00d" y="332.494315"/>
     <use style="fill:#dbcd00;stroke:#dbcd00;" x="732.894027" xlink:href="#m95d1bfe00d" y="331.947011"/>
     <use style="fill:#dbcd00;stroke:#dbcd00;" x="741.677971" xlink:href="#m95d1bfe00d" y="331.399707"/>
     <use style="fill:#dbcd00;stroke:#dbcd00;" x="746.069942" xlink:href="#m95d1bfe00d" y="331.217272"/>
     <use style="fill:#dbcd00;stroke:#dbcd00;" x="759.245857" xlink:href="#m95d1bfe00d" y="329.757794"/>
     <use style="fill:#dbcd00;stroke:#dbcd00;" x="763.637829" xlink:href="#m95d1bfe00d" y="329.57536"/>
     <use style="fill:#dbcd00;stroke:#dbcd00;" x="768.029801" xlink:href="#m95d1bfe00d" y="329.57536"/>
     <use style="fill:#dbcd00;stroke:#dbcd00;" x="772.421772" xlink:href="#m95d1bfe00d" y="327.933447"/>
     <use style="fill:#dbcd00;stroke:#dbcd00;" x="776.813744" xlink:href="#m95d1bfe00d" y="327.568578"/>
     <use style="fill:#dbcd00;stroke:#dbcd00;" x="789.989659" xlink:href="#m95d1bfe00d" y="325.196927"/>
     <use style="fill:#dbcd00;stroke:#dbcd00;" x="794.381631" xlink:href="#m95d1bfe00d" y="323.919884"/>
     <use style="fill:#dbcd00;stroke:#dbcd00;" x="798.773602" xlink:href="#m95d1bfe00d" y="323.555014"/>
     <use style="fill:#dbcd00;stroke:#dbcd00;" x="803.165574" xlink:href="#m95d1bfe00d" y="322.460406"/>
     <use style="fill:#dbcd00;stroke:#dbcd00;" x="807.557546" xlink:href="#m95d1bfe00d" y="322.095537"/>
     <use style="fill:#dbcd00;stroke:#dbcd00;" x="820.733461" xlink:href="#m95d1bfe00d" y="321.183363"/>
     <use style="fill:#dbcd00;stroke:#dbcd00;" x="825.125432" xlink:href="#m95d1bfe00d" y="320.636059"/>
     <use style="fill:#dbcd00;stroke:#dbcd00;" x="829.517404" xlink:href="#m95d1bfe00d" y="320.453625"/>
     <use style="fill:#dbcd00;stroke:#dbcd00;" x="833.909376" xlink:href="#m95d1bfe00d" y="319.723886"/>
     <use style="fill:#dbcd00;stroke:#dbcd00;" x="838.301347" xlink:href="#m95d1bfe00d" y="318.994147"/>
     <use style="fill:#dbcd00;stroke:#dbcd00;" x="851.477262" xlink:href="#m95d1bfe00d" y="318.446843"/>
     <use style="fill:#dbcd00;stroke:#dbcd00;" x="855.869234" xlink:href="#m95d1bfe00d" y="317.717104"/>
     <use style="fill:#dbcd00;stroke:#dbcd00;" x="860.261206" xlink:href="#m95d1bfe00d" y="317.717104"/>
     <use style="fill:#dbcd00;stroke:#dbcd00;" x="864.653177" xlink:href="#m95d1bfe00d" y="317.717104"/>
     <use style="fill:#dbcd00;stroke:#dbcd00;" x="869.045149" xlink:href="#m95d1bfe00d" y="317.717104"/>
     <use style="fill:#dbcd00;stroke:#dbcd00;" x="882.221064" xlink:href="#m95d1bfe00d" y="316.804931"/>
     <use style="fill:#dbcd00;stroke:#dbcd00;" x="886.613036" xlink:href="#m95d1bfe00d" y="316.440061"/>
     <use style="fill:#dbcd00;stroke:#dbcd00;" x="891.005007" xlink:href="#m95d1bfe00d" y="316.075192"/>
     <use style="fill:#dbcd00;stroke:#dbcd00;" x="895.396979" xlink:href="#m95d1bfe00d" y="314.980584"/>
     <use style="fill:#dbcd00;stroke:#dbcd00;" x="899.788951" xlink:href="#m95d1bfe00d" y="314.615714"/>
     <use style="fill:#dbcd00;stroke:#dbcd00;" x="912.964866" xlink:href="#m95d1bfe00d" y="313.338671"/>
     <use style="fill:#dbcd00;stroke:#dbcd00;" x="917.356837" xlink:href="#m95d1bfe00d" y="312.608933"/>
     <use style="fill:#dbcd00;stroke:#dbcd00;" x="921.748809" xlink:href="#m95d1bfe00d" y="312.244063"/>
     <use style="fill:#dbcd00;stroke:#dbcd00;" x="926.140781" xlink:href="#m95d1bfe00d" y="312.061628"/>
     <use style="fill:#dbcd00;stroke:#dbcd00;" x="930.532752" xlink:href="#m95d1bfe00d" y="311.696759"/>
     <use style="fill:#dbcd00;stroke:#dbcd00;" x="943.708667" xlink:href="#m95d1bfe00d" y="311.33189"/>
     <use style="fill:#dbcd00;stroke:#dbcd00;" x="948.100639" xlink:href="#m95d1bfe00d" y="310.419716"/>
     <use style="fill:#dbcd00;stroke:#dbcd00;" x="952.492611" xlink:href="#m95d1bfe00d" y="309.689977"/>
     <use style="fill:#dbcd00;stroke:#dbcd00;" x="956.884582" xlink:href="#m95d1bfe00d" y="309.142673"/>
     <use style="fill:#dbcd00;stroke:#dbcd00;" x="961.276554" xlink:href="#m95d1bfe00d" y="308.412935"/>
     <use style="fill:#dbcd00;stroke:#dbcd00;" x="974.452469" xlink:href="#m95d1bfe00d" y="306.223718"/>
     <use style="fill:#dbcd00;stroke:#dbcd00;" x="978.844441" xlink:href="#m95d1bfe00d" y="304.946675"/>
     <use style="fill:#dbcd00;stroke:#dbcd00;" x="983.236412" xlink:href="#m95d1bfe00d" y="302.757459"/>
     <use style="fill:#dbcd00;stroke:#dbcd00;" x="987.628384" xlink:href="#m95d1bfe00d" y="301.662851"/>
     <use style="fill:#dbcd00;stroke:#dbcd00;" x="992.020356" xlink:href="#m95d1bfe00d" y="301.480416"/>
     <use style="fill:#dbcd00;stroke:#dbcd00;" x="1005.196271" xlink:href="#m95d1bfe00d" y="295.095202"/>
     <use style="fill:#dbcd00;stroke:#dbcd00;" x="1009.588242" xlink:href="#m95d1bfe00d" y="293.453289"/>
     <use style="fill:#dbcd00;stroke:#dbcd00;" x="1040.332044" xlink:href="#m95d1bfe00d" y="279.223383"/>
     <use style="fill:#dbcd00;stroke:#dbcd00;" x="1044.724016" xlink:href="#m95d1bfe00d" y="277.216601"/>
     <use style="fill:#dbcd00;stroke:#dbcd00;" x="1049.115987" xlink:href="#m95d1bfe00d" y="275.392254"/>
     <use style="fill:#dbcd00;stroke:#dbcd00;" x="1053.507959" xlink:href="#m95d1bfe00d" y="271.196256"/>
     <use style="fill:#dbcd00;stroke:#dbcd00;" x="1066.683874" xlink:href="#m95d1bfe00d" y="256.054176"/>
     <use style="fill:#dbcd00;stroke:#dbcd00;" x="1071.075846" xlink:href="#m95d1bfe00d" y="250.3987"/>
     <use style="fill:#dbcd00;stroke:#dbcd00;" x="1075.467817" xlink:href="#m95d1bfe00d" y="248.756788"/>
     <use style="fill:#dbcd00;stroke:#dbcd00;" x="1079.859789" xlink:href="#m95d1bfe00d" y="248.027049"/>
     <use style="fill:#dbcd00;stroke:#dbcd00;" x="1084.251761" xlink:href="#m95d1bfe00d" y="231.060622"/>
     <use style="fill:#dbcd00;stroke:#dbcd00;" x="1097.427676" xlink:href="#m95d1bfe00d" y="194.573683"/>
     <use style="fill:#dbcd00;stroke:#dbcd00;" x="1101.819647" xlink:href="#m95d1bfe00d" y="194.573683"/>
     <use style="fill:#dbcd00;stroke:#dbcd00;" x="1106.211619" xlink:href="#m95d1bfe00d" y="194.573683"/>
     <use style="fill:#dbcd00;stroke:#dbcd00;" x="1110.603591" xlink:href="#m95d1bfe00d" y="194.573683"/>
     <use style="fill:#dbcd00;stroke:#dbcd00;" x="1114.995562" xlink:href="#m95d1bfe00d" y="194.573683"/>
     <use style="fill:#dbcd00;stroke:#dbcd00;" x="1128.171477" xlink:href="#m95d1bfe00d" y="158.086743"/>
    </g>
   </g>
   <g id="line2d_64">
    <path clip-path="url(#p7d37e32b01)" d="M 113.626023 449.799826 
L 118.017994 448.157913 
L 122.409966 443.232177 
L 126.801938 442.502438 
L 131.193909 439.765917 
L 135.585881 438.30644 
L 139.977853 438.124005 
L 144.369824 449.252522 
L 148.761796 452.171477 
L 153.153768 453.995824 
L 157.545739 454.907997 
L 161.937711 458.009387 
L 166.329683 459.651299 
L 170.721654 461.658081 
L 175.113626 463.117559 
L 179.505598 464.212167 
L 183.897569 464.941906 
L 188.289541 465.854079 
L 197.073484 466.583818 
L 201.465456 467.860861 
L 210.249399 465.12434 
L 214.641371 465.854079 
L 219.033343 465.671645 
L 227.817286 466.036514 
L 240.993201 468.408165 
L 245.385173 469.685208 
L 249.777144 472.421728 
L 254.169116 469.685208 
L 258.561088 469.867643 
L 267.345031 470.597381 
L 271.737003 470.597381 
L 276.128974 470.232512 
L 280.520946 471.32712 
L 289.304889 472.786598 
L 298.088833 474.793379 
L 302.480804 474.975814 
L 306.872776 475.887988 
L 311.264748 476.617726 
L 320.048691 478.442073 
L 333.224606 479.901551 
L 337.616578 480.448855 
L 342.008549 481.725898 
L 359.576436 480.996159 
L 363.968408 482.090767 
L 368.360379 482.273202 
L 381.536294 483.185376 
L 390.320238 483.185376 
L 394.712209 483.73268 
L 403.496153 485.192157 
L 407.888124 485.009723 
L 429.847983 484.279984 
L 434.239954 483.915114 
L 438.631926 483.915114 
L 443.023898 484.097549 
L 456.199813 483.550245 
L 460.591784 483.550245 
L 469.375728 481.908333 
L 473.767699 481.908333 
L 482.551643 480.26642 
L 491.335586 479.719116 
L 500.119529 469.685208 
L 504.511501 460.928342 
L 513.295444 460.563473 
L 517.687416 447.975479 
L 522.079388 448.340348 
L 535.255303 443.961915 
L 544.039246 441.40783 
L 548.431218 438.488874 
L 552.823189 435.022615 
L 557.215161 431.191487 
L 561.607133 430.096878 
L 565.999104 431.921225 
L 574.783048 429.914444 
L 579.175019 431.921225 
L 583.566991 456.732344 
L 587.958963 461.658081 
L 592.350934 467.313557 
L 605.526849 479.719116 
L 609.918821 479.536682 
L 614.310793 479.901551 
L 618.702764 480.813724 
L 623.094736 481.543463 
L 636.270651 482.638071 
L 645.054594 483.002941 
L 649.446566 483.002941 
L 653.838537 482.638071 
L 667.014452 482.090767 
L 671.406424 482.455637 
L 675.798396 482.090767 
L 680.190367 482.638071 
L 684.582339 483.002941 
L 732.894027 479.171812 
L 741.677971 478.989377 
L 746.069942 478.077204 
L 763.637829 477.5299 
L 768.029801 477.347465 
L 772.421772 478.989377 
L 776.813744 478.806943 
L 789.989659 480.083986 
L 794.381631 481.178594 
L 798.773602 480.63129 
L 803.165574 481.543463 
L 807.557546 481.908333 
L 820.733461 482.820506 
L 829.517404 482.455637 
L 833.909376 483.185376 
L 838.301347 483.36781 
L 851.477262 482.820506 
L 855.869234 483.36781 
L 864.653177 482.273202 
L 869.045149 481.361029 
L 882.221064 480.26642 
L 886.613036 480.63129 
L 891.005007 480.448855 
L 895.396979 481.361029 
L 899.788951 480.813724 
L 912.964866 480.63129 
L 917.356837 481.361029 
L 926.140781 480.996159 
L 930.532752 479.901551 
L 943.708667 476.435292 
L 948.100639 476.617726 
L 952.492611 475.158249 
L 956.884582 475.158249 
L 961.276554 472.056859 
L 974.452469 468.955469 
L 978.844441 469.502773 
L 983.236412 471.69199 
L 987.628384 471.144685 
L 992.020356 465.48921 
L 1005.196271 463.117559 
L 1009.588242 462.935124 
L 1040.332044 444.509219 
L 1044.724016 439.583483 
L 1049.115987 435.934789 
L 1053.507959 430.644182 
L 1066.683874 422.79949 
L 1071.075846 423.711664 
L 1075.467817 420.427839 
L 1079.859789 405.468194 
L 1084.251761 411.488539 
L 1097.427676 398.535676 
L 1101.819647 395.799155 
L 1106.211619 387.954463 
L 1110.603591 387.954463 
L 1114.995562 362.960909 
L 1128.171477 352.014827 
L 1128.171477 352.014827 
" style="fill:none;stroke:#2792cb;stroke-linecap:square;stroke-width:2;"/>
    <defs>
     <path d="M 0 1.5 
C 0.397805 1.5 0.77937 1.341951 1.06066 1.06066 
C 1.341951 0.77937 1.5 0.397805 1.5 0 
C 1.5 -0.397805 1.341951 -0.77937 1.06066 -1.06066 
C 0.77937 -1.341951 0.397805 -1.5 0 -1.5 
C -0.397805 -1.5 -0.77937 -1.341951 -1.06066 -1.06066 
C -1.341951 -0.77937 -1.5 -0.397805 -1.5 0 
C -1.5 0.397805 -1.341951 0.77937 -1.06066 1.06066 
C -0.77937 1.341951 -0.397805 1.5 0 1.5 
z
" id="meb73e9c465" style="stroke:#2792cb;"/>
    </defs>
    <g clip-path="url(#p7d37e32b01)">
     <use style="fill:#2792cb;stroke:#2792cb;" x="113.626023" xlink:href="#meb73e9c465" y="449.799826"/>
     <use style="fill:#2792cb;stroke:#2792cb;" x="118.017994" xlink:href="#meb73e9c465" y="448.157913"/>
     <use style="fill:#2792cb;stroke:#2792cb;" x="122.409966" xlink:href="#meb73e9c465" y="443.232177"/>
     <use style="fill:#2792cb;stroke:#2792cb;" x="126.801938" xlink:href="#meb73e9c465" y="442.502438"/>
     <use style="fill:#2792cb;stroke:#2792cb;" x="131.193909" xlink:href="#meb73e9c465" y="439.765917"/>
     <use style="fill:#2792cb;stroke:#2792cb;" x="135.585881" xlink:href="#meb73e9c465" y="438.30644"/>
     <use style="fill:#2792cb;stroke:#2792cb;" x="139.977853" xlink:href="#meb73e9c465" y="438.124005"/>
     <use style="fill:#2792cb;stroke:#2792cb;" x="144.369824" xlink:href="#meb73e9c465" y="449.252522"/>
     <use style="fill:#2792cb;stroke:#2792cb;" x="148.761796" xlink:href="#meb73e9c465" y="452.171477"/>
     <use style="fill:#2792cb;stroke:#2792cb;" x="153.153768" xlink:href="#meb73e9c465" y="453.995824"/>
     <use style="fill:#2792cb;stroke:#2792cb;" x="157.545739" xlink:href="#meb73e9c465" y="454.907997"/>
     <use style="fill:#2792cb;stroke:#2792cb;" x="161.937711" xlink:href="#meb73e9c465" y="458.009387"/>
     <use style="fill:#2792cb;stroke:#2792cb;" x="166.329683" xlink:href="#meb73e9c465" y="459.651299"/>
     <use style="fill:#2792cb;stroke:#2792cb;" x="170.721654" xlink:href="#meb73e9c465" y="461.658081"/>
     <use style="fill:#2792cb;stroke:#2792cb;" x="175.113626" xlink:href="#meb73e9c465" y="463.117559"/>
     <use style="fill:#2792cb;stroke:#2792cb;" x="179.505598" xlink:href="#meb73e9c465" y="464.212167"/>
     <use style="fill:#2792cb;stroke:#2792cb;" x="183.897569" xlink:href="#meb73e9c465" y="464.941906"/>
     <use style="fill:#2792cb;stroke:#2792cb;" x="188.289541" xlink:href="#meb73e9c465" y="465.854079"/>
     <use style="fill:#2792cb;stroke:#2792cb;" x="192.681513" xlink:href="#meb73e9c465" y="466.218949"/>
     <use style="fill:#2792cb;stroke:#2792cb;" x="197.073484" xlink:href="#meb73e9c465" y="466.583818"/>
     <use style="fill:#2792cb;stroke:#2792cb;" x="201.465456" xlink:href="#meb73e9c465" y="467.860861"/>
     <use style="fill:#2792cb;stroke:#2792cb;" x="210.249399" xlink:href="#meb73e9c465" y="465.12434"/>
     <use style="fill:#2792cb;stroke:#2792cb;" x="214.641371" xlink:href="#meb73e9c465" y="465.854079"/>
     <use style="fill:#2792cb;stroke:#2792cb;" x="219.033343" xlink:href="#meb73e9c465" y="465.671645"/>
     <use style="fill:#2792cb;stroke:#2792cb;" x="223.425314" xlink:href="#meb73e9c465" y="465.854079"/>
     <use style="fill:#2792cb;stroke:#2792cb;" x="227.817286" xlink:href="#meb73e9c465" y="466.036514"/>
     <use style="fill:#2792cb;stroke:#2792cb;" x="236.601229" xlink:href="#meb73e9c465" y="467.678426"/>
     <use style="fill:#2792cb;stroke:#2792cb;" x="240.993201" xlink:href="#meb73e9c465" y="468.408165"/>
     <use style="fill:#2792cb;stroke:#2792cb;" x="245.385173" xlink:href="#meb73e9c465" y="469.685208"/>
     <use style="fill:#2792cb;stroke:#2792cb;" x="249.777144" xlink:href="#meb73e9c465" y="472.421728"/>
     <use style="fill:#2792cb;stroke:#2792cb;" x="254.169116" xlink:href="#meb73e9c465" y="469.685208"/>
     <use style="fill:#2792cb;stroke:#2792cb;" x="258.561088" xlink:href="#meb73e9c465" y="469.867643"/>
     <use style="fill:#2792cb;stroke:#2792cb;" x="267.345031" xlink:href="#meb73e9c465" y="470.597381"/>
     <use style="fill:#2792cb;stroke:#2792cb;" x="271.737003" xlink:href="#meb73e9c465" y="470.597381"/>
     <use style="fill:#2792cb;stroke:#2792cb;" x="276.128974" xlink:href="#meb73e9c465" y="470.232512"/>
     <use style="fill:#2792cb;stroke:#2792cb;" x="280.520946" xlink:href="#meb73e9c465" y="471.32712"/>
     <use style="fill:#2792cb;stroke:#2792cb;" x="289.304889" xlink:href="#meb73e9c465" y="472.786598"/>
     <use style="fill:#2792cb;stroke:#2792cb;" x="298.088833" xlink:href="#meb73e9c465" y="474.793379"/>
     <use style="fill:#2792cb;stroke:#2792cb;" x="302.480804" xlink:href="#meb73e9c465" y="474.975814"/>
     <use style="fill:#2792cb;stroke:#2792cb;" x="306.872776" xlink:href="#meb73e9c465" y="475.887988"/>
     <use style="fill:#2792cb;stroke:#2792cb;" x="311.264748" xlink:href="#meb73e9c465" y="476.617726"/>
     <use style="fill:#2792cb;stroke:#2792cb;" x="315.656719" xlink:href="#meb73e9c465" y="477.5299"/>
     <use style="fill:#2792cb;stroke:#2792cb;" x="320.048691" xlink:href="#meb73e9c465" y="478.442073"/>
     <use style="fill:#2792cb;stroke:#2792cb;" x="328.832634" xlink:href="#meb73e9c465" y="479.354247"/>
     <use style="fill:#2792cb;stroke:#2792cb;" x="333.224606" xlink:href="#meb73e9c465" y="479.901551"/>
     <use style="fill:#2792cb;stroke:#2792cb;" x="337.616578" xlink:href="#meb73e9c465" y="480.448855"/>
     <use style="fill:#2792cb;stroke:#2792cb;" x="342.008549" xlink:href="#meb73e9c465" y="481.725898"/>
     <use style="fill:#2792cb;stroke:#2792cb;" x="346.400521" xlink:href="#meb73e9c465" y="481.543463"/>
     <use style="fill:#2792cb;stroke:#2792cb;" x="350.792493" xlink:href="#meb73e9c465" y="481.361029"/>
     <use style="fill:#2792cb;stroke:#2792cb;" x="359.576436" xlink:href="#meb73e9c465" y="480.996159"/>
     <use style="fill:#2792cb;stroke:#2792cb;" x="363.968408" xlink:href="#meb73e9c465" y="482.090767"/>
     <use style="fill:#2792cb;stroke:#2792cb;" x="368.360379" xlink:href="#meb73e9c465" y="482.273202"/>
     <use style="fill:#2792cb;stroke:#2792cb;" x="377.144323" xlink:href="#meb73e9c465" y="482.820506"/>
     <use style="fill:#2792cb;stroke:#2792cb;" x="381.536294" xlink:href="#meb73e9c465" y="483.185376"/>
     <use style="fill:#2792cb;stroke:#2792cb;" x="390.320238" xlink:href="#meb73e9c465" y="483.185376"/>
     <use style="fill:#2792cb;stroke:#2792cb;" x="394.712209" xlink:href="#meb73e9c465" y="483.73268"/>
     <use style="fill:#2792cb;stroke:#2792cb;" x="403.496153" xlink:href="#meb73e9c465" y="485.192157"/>
     <use style="fill:#2792cb;stroke:#2792cb;" x="407.888124" xlink:href="#meb73e9c465" y="485.009723"/>
     <use style="fill:#2792cb;stroke:#2792cb;" x="425.456011" xlink:href="#meb73e9c465" y="484.462418"/>
     <use style="fill:#2792cb;stroke:#2792cb;" x="429.847983" xlink:href="#meb73e9c465" y="484.279984"/>
     <use style="fill:#2792cb;stroke:#2792cb;" x="434.239954" xlink:href="#meb73e9c465" y="483.915114"/>
     <use style="fill:#2792cb;stroke:#2792cb;" x="438.631926" xlink:href="#meb73e9c465" y="483.915114"/>
     <use style="fill:#2792cb;stroke:#2792cb;" x="443.023898" xlink:href="#meb73e9c465" y="484.097549"/>
     <use style="fill:#2792cb;stroke:#2792cb;" x="451.807841" xlink:href="#meb73e9c465" y="483.73268"/>
     <use style="fill:#2792cb;stroke:#2792cb;" x="456.199813" xlink:href="#meb73e9c465" y="483.550245"/>
     <use style="fill:#2792cb;stroke:#2792cb;" x="460.591784" xlink:href="#meb73e9c465" y="483.550245"/>
     <use style="fill:#2792cb;stroke:#2792cb;" x="469.375728" xlink:href="#meb73e9c465" y="481.908333"/>
     <use style="fill:#2792cb;stroke:#2792cb;" x="473.767699" xlink:href="#meb73e9c465" y="481.908333"/>
     <use style="fill:#2792cb;stroke:#2792cb;" x="482.551643" xlink:href="#meb73e9c465" y="480.26642"/>
     <use style="fill:#2792cb;stroke:#2792cb;" x="491.335586" xlink:href="#meb73e9c465" y="479.719116"/>
     <use style="fill:#2792cb;stroke:#2792cb;" x="500.119529" xlink:href="#meb73e9c465" y="469.685208"/>
     <use style="fill:#2792cb;stroke:#2792cb;" x="504.511501" xlink:href="#meb73e9c465" y="460.928342"/>
     <use style="fill:#2792cb;stroke:#2792cb;" x="513.295444" xlink:href="#meb73e9c465" y="460.563473"/>
     <use style="fill:#2792cb;stroke:#2792cb;" x="517.687416" xlink:href="#meb73e9c465" y="447.975479"/>
     <use style="fill:#2792cb;stroke:#2792cb;" x="522.079388" xlink:href="#meb73e9c465" y="448.340348"/>
     <use style="fill:#2792cb;stroke:#2792cb;" x="526.471359" xlink:href="#meb73e9c465" y="446.880871"/>
     <use style="fill:#2792cb;stroke:#2792cb;" x="535.255303" xlink:href="#meb73e9c465" y="443.961915"/>
     <use style="fill:#2792cb;stroke:#2792cb;" x="544.039246" xlink:href="#meb73e9c465" y="441.40783"/>
     <use style="fill:#2792cb;stroke:#2792cb;" x="548.431218" xlink:href="#meb73e9c465" y="438.488874"/>
     <use style="fill:#2792cb;stroke:#2792cb;" x="552.823189" xlink:href="#meb73e9c465" y="435.022615"/>
     <use style="fill:#2792cb;stroke:#2792cb;" x="557.215161" xlink:href="#meb73e9c465" y="431.191487"/>
     <use style="fill:#2792cb;stroke:#2792cb;" x="561.607133" xlink:href="#meb73e9c465" y="430.096878"/>
     <use style="fill:#2792cb;stroke:#2792cb;" x="565.999104" xlink:href="#meb73e9c465" y="431.921225"/>
     <use style="fill:#2792cb;stroke:#2792cb;" x="574.783048" xlink:href="#meb73e9c465" y="429.914444"/>
     <use style="fill:#2792cb;stroke:#2792cb;" x="579.175019" xlink:href="#meb73e9c465" y="431.921225"/>
     <use style="fill:#2792cb;stroke:#2792cb;" x="583.566991" xlink:href="#meb73e9c465" y="456.732344"/>
     <use style="fill:#2792cb;stroke:#2792cb;" x="587.958963" xlink:href="#meb73e9c465" y="461.658081"/>
     <use style="fill:#2792cb;stroke:#2792cb;" x="592.350934" xlink:href="#meb73e9c465" y="467.313557"/>
     <use style="fill:#2792cb;stroke:#2792cb;" x="605.526849" xlink:href="#meb73e9c465" y="479.719116"/>
     <use style="fill:#2792cb;stroke:#2792cb;" x="609.918821" xlink:href="#meb73e9c465" y="479.536682"/>
     <use style="fill:#2792cb;stroke:#2792cb;" x="614.310793" xlink:href="#meb73e9c465" y="479.901551"/>
     <use style="fill:#2792cb;stroke:#2792cb;" x="618.702764" xlink:href="#meb73e9c465" y="480.813724"/>
     <use style="fill:#2792cb;stroke:#2792cb;" x="623.094736" xlink:href="#meb73e9c465" y="481.543463"/>
     <use style="fill:#2792cb;stroke:#2792cb;" x="636.270651" xlink:href="#meb73e9c465" y="482.638071"/>
     <use style="fill:#2792cb;stroke:#2792cb;" x="640.662622" xlink:href="#meb73e9c465" y="482.820506"/>
     <use style="fill:#2792cb;stroke:#2792cb;" x="645.054594" xlink:href="#meb73e9c465" y="483.002941"/>
     <use style="fill:#2792cb;stroke:#2792cb;" x="649.446566" xlink:href="#meb73e9c465" y="483.002941"/>
     <use style="fill:#2792cb;stroke:#2792cb;" x="653.838537" xlink:href="#meb73e9c465" y="482.638071"/>
     <use style="fill:#2792cb;stroke:#2792cb;" x="667.014452" xlink:href="#meb73e9c465" y="482.090767"/>
     <use style="fill:#2792cb;stroke:#2792cb;" x="671.406424" xlink:href="#meb73e9c465" y="482.455637"/>
     <use style="fill:#2792cb;stroke:#2792cb;" x="675.798396" xlink:href="#meb73e9c465" y="482.090767"/>
     <use style="fill:#2792cb;stroke:#2792cb;" x="680.190367" xlink:href="#meb73e9c465" y="482.638071"/>
     <use style="fill:#2792cb;stroke:#2792cb;" x="684.582339" xlink:href="#meb73e9c465" y="483.002941"/>
     <use style="fill:#2792cb;stroke:#2792cb;" x="728.502056" xlink:href="#meb73e9c465" y="479.536682"/>
     <use style="fill:#2792cb;stroke:#2792cb;" x="732.894027" xlink:href="#meb73e9c465" y="479.171812"/>
     <use style="fill:#2792cb;stroke:#2792cb;" x="741.677971" xlink:href="#meb73e9c465" y="478.989377"/>
     <use style="fill:#2792cb;stroke:#2792cb;" x="746.069942" xlink:href="#meb73e9c465" y="478.077204"/>
     <use style="fill:#2792cb;stroke:#2792cb;" x="759.245857" xlink:href="#meb73e9c465" y="477.712335"/>
     <use style="fill:#2792cb;stroke:#2792cb;" x="763.637829" xlink:href="#meb73e9c465" y="477.5299"/>
     <use style="fill:#2792cb;stroke:#2792cb;" x="768.029801" xlink:href="#meb73e9c465" y="477.347465"/>
     <use style="fill:#2792cb;stroke:#2792cb;" x="772.421772" xlink:href="#meb73e9c465" y="478.989377"/>
     <use style="fill:#2792cb;stroke:#2792cb;" x="776.813744" xlink:href="#meb73e9c465" y="478.806943"/>
     <use style="fill:#2792cb;stroke:#2792cb;" x="789.989659" xlink:href="#meb73e9c465" y="480.083986"/>
     <use style="fill:#2792cb;stroke:#2792cb;" x="794.381631" xlink:href="#meb73e9c465" y="481.178594"/>
     <use style="fill:#2792cb;stroke:#2792cb;" x="798.773602" xlink:href="#meb73e9c465" y="480.63129"/>
     <use style="fill:#2792cb;stroke:#2792cb;" x="803.165574" xlink:href="#meb73e9c465" y="481.543463"/>
     <use style="fill:#2792cb;stroke:#2792cb;" x="807.557546" xlink:href="#meb73e9c465" y="481.908333"/>
     <use style="fill:#2792cb;stroke:#2792cb;" x="820.733461" xlink:href="#meb73e9c465" y="482.820506"/>
     <use style="fill:#2792cb;stroke:#2792cb;" x="825.125432" xlink:href="#meb73e9c465" y="482.638071"/>
     <use style="fill:#2792cb;stroke:#2792cb;" x="829.517404" xlink:href="#meb73e9c465" y="482.455637"/>
     <use style="fill:#2792cb;stroke:#2792cb;" x="833.909376" xlink:href="#meb73e9c465" y="483.185376"/>
     <use style="fill:#2792cb;stroke:#2792cb;" x="838.301347" xlink:href="#meb73e9c465" y="483.36781"/>
     <use style="fill:#2792cb;stroke:#2792cb;" x="851.477262" xlink:href="#meb73e9c465" y="482.820506"/>
     <use style="fill:#2792cb;stroke:#2792cb;" x="855.869234" xlink:href="#meb73e9c465" y="483.36781"/>
     <use style="fill:#2792cb;stroke:#2792cb;" x="860.261206" xlink:href="#meb73e9c465" y="482.820506"/>
     <use style="fill:#2792cb;stroke:#2792cb;" x="864.653177" xlink:href="#meb73e9c465" y="482.273202"/>
     <use style="fill:#2792cb;stroke:#2792cb;" x="869.045149" xlink:href="#meb73e9c465" y="481.361029"/>
     <use style="fill:#2792cb;stroke:#2792cb;" x="882.221064" xlink:href="#meb73e9c465" y="480.26642"/>
     <use style="fill:#2792cb;stroke:#2792cb;" x="886.613036" xlink:href="#meb73e9c465" y="480.63129"/>
     <use style="fill:#2792cb;stroke:#2792cb;" x="891.005007" xlink:href="#meb73e9c465" y="480.448855"/>
     <use style="fill:#2792cb;stroke:#2792cb;" x="895.396979" xlink:href="#meb73e9c465" y="481.361029"/>
     <use style="fill:#2792cb;stroke:#2792cb;" x="899.788951" xlink:href="#meb73e9c465" y="480.813724"/>
     <use style="fill:#2792cb;stroke:#2792cb;" x="912.964866" xlink:href="#meb73e9c465" y="480.63129"/>
     <use style="fill:#2792cb;stroke:#2792cb;" x="917.356837" xlink:href="#meb73e9c465" y="481.361029"/>
     <use style="fill:#2792cb;stroke:#2792cb;" x="921.748809" xlink:href="#meb73e9c465" y="481.178594"/>
     <use style="fill:#2792cb;stroke:#2792cb;" x="926.140781" xlink:href="#meb73e9c465" y="480.996159"/>
     <use style="fill:#2792cb;stroke:#2792cb;" x="930.532752" xlink:href="#meb73e9c465" y="479.901551"/>
     <use style="fill:#2792cb;stroke:#2792cb;" x="943.708667" xlink:href="#meb73e9c465" y="476.435292"/>
     <use style="fill:#2792cb;stroke:#2792cb;" x="948.100639" xlink:href="#meb73e9c465" y="476.617726"/>
     <use style="fill:#2792cb;stroke:#2792cb;" x="952.492611" xlink:href="#meb73e9c465" y="475.158249"/>
     <use style="fill:#2792cb;stroke:#2792cb;" x="956.884582" xlink:href="#meb73e9c465" y="475.158249"/>
     <use style="fill:#2792cb;stroke:#2792cb;" x="961.276554" xlink:href="#meb73e9c465" y="472.056859"/>
     <use style="fill:#2792cb;stroke:#2792cb;" x="974.452469" xlink:href="#meb73e9c465" y="468.955469"/>
     <use style="fill:#2792cb;stroke:#2792cb;" x="978.844441" xlink:href="#meb73e9c465" y="469.502773"/>
     <use style="fill:#2792cb;stroke:#2792cb;" x="983.236412" xlink:href="#meb73e9c465" y="471.69199"/>
     <use style="fill:#2792cb;stroke:#2792cb;" x="987.628384" xlink:href="#meb73e9c465" y="471.144685"/>
     <use style="fill:#2792cb;stroke:#2792cb;" x="992.020356" xlink:href="#meb73e9c465" y="465.48921"/>
     <use style="fill:#2792cb;stroke:#2792cb;" x="1005.196271" xlink:href="#meb73e9c465" y="463.117559"/>
     <use style="fill:#2792cb;stroke:#2792cb;" x="1009.588242" xlink:href="#meb73e9c465" y="462.935124"/>
     <use style="fill:#2792cb;stroke:#2792cb;" x="1040.332044" xlink:href="#meb73e9c465" y="444.509219"/>
     <use style="fill:#2792cb;stroke:#2792cb;" x="1044.724016" xlink:href="#meb73e9c465" y="439.583483"/>
     <use style="fill:#2792cb;stroke:#2792cb;" x="1049.115987" xlink:href="#meb73e9c465" y="435.934789"/>
     <use style="fill:#2792cb;stroke:#2792cb;" x="1053.507959" xlink:href="#meb73e9c465" y="430.644182"/>
     <use style="fill:#2792cb;stroke:#2792cb;" x="1066.683874" xlink:href="#meb73e9c465" y="422.79949"/>
     <use style="fill:#2792cb;stroke:#2792cb;" x="1071.075846" xlink:href="#meb73e9c465" y="423.711664"/>
     <use style="fill:#2792cb;stroke:#2792cb;" x="1075.467817" xlink:href="#meb73e9c465" y="420.427839"/>
     <use style="fill:#2792cb;stroke:#2792cb;" x="1079.859789" xlink:href="#meb73e9c465" y="405.468194"/>
     <use style="fill:#2792cb;stroke:#2792cb;" x="1084.251761" xlink:href="#meb73e9c465" y="411.488539"/>
     <use style="fill:#2792cb;stroke:#2792cb;" x="1097.427676" xlink:href="#meb73e9c465" y="398.535676"/>
     <use style="fill:#2792cb;stroke:#2792cb;" x="1101.819647" xlink:href="#meb73e9c465" y="395.799155"/>
     <use style="fill:#2792cb;stroke:#2792cb;" x="1106.211619" xlink:href="#meb73e9c465" y="387.954463"/>
     <use style="fill:#2792cb;stroke:#2792cb;" x="1110.603591" xlink:href="#meb73e9c465" y="387.954463"/>
     <use style="fill:#2792cb;stroke:#2792cb;" x="1114.995562" xlink:href="#meb73e9c465" y="362.960909"/>
     <use style="fill:#2792cb;stroke:#2792cb;" x="1128.171477" xlink:href="#meb73e9c465" y="352.014827"/>
    </g>
   </g>
   <g id="patch_3">
    <path d="M 62.89875 501.738984 
L 1178.89875 501.738984 
" style="fill:none;stroke:#000000;stroke-linecap:square;stroke-linejoin:miter;stroke-width:0.8;"/>
   </g>
   <g id="legend_1">
    <g id="line2d_65">
     <path d="M 1091.653438 25.237422 
L 1111.653438 25.237422 
" style="fill:none;stroke:#dbcd00;stroke-linecap:square;stroke-width:2;"/>
    </g>
    <g id="line2d_66">
     <g>
      <use style="fill:#dbcd00;stroke:#dbcd00;" x="1101.653438" xlink:href="#m95d1bfe00d" y="25.237422"/>
     </g>
    </g>
    <g id="text_37">
     <!-- Genesene -->
     <defs>
      <path d="M 59.515625 10.40625 
L 59.515625 29.984375 
L 43.40625 29.984375 
L 43.40625 38.09375 
L 69.28125 38.09375 
L 69.28125 6.78125 
Q 63.578125 2.734375 56.6875 0.65625 
Q 49.8125 -1.421875 42 -1.421875 
Q 24.90625 -1.421875 15.25 8.5625 
Q 5.609375 18.5625 5.609375 36.375 
Q 5.609375 54.25 15.25 64.234375 
Q 24.90625 74.21875 42 74.21875 
Q 49.125 74.21875 55.546875 72.453125 
Q 61.96875 70.703125 67.390625 67.28125 
L 67.390625 56.78125 
Q 61.921875 61.421875 55.765625 63.765625 
Q 49.609375 66.109375 42.828125 66.109375 
Q 29.4375 66.109375 22.71875 58.640625 
Q 16.015625 51.171875 16.015625 36.375 
Q 16.015625 21.625 22.71875 14.15625 
Q 29.4375 6.6875 42.828125 6.6875 
Q 48.046875 6.6875 52.140625 7.59375 
Q 56.25 8.5 59.515625 10.40625 
z
" id="DejaVuSans-71"/>
      <path d="M 44.28125 53.078125 
L 44.28125 44.578125 
Q 40.484375 46.53125 36.375 47.5 
Q 32.28125 48.484375 27.875 48.484375 
Q 21.1875 48.484375 17.84375 46.4375 
Q 14.5 44.390625 14.5 40.28125 
Q 14.5 37.15625 16.890625 35.375 
Q 19.28125 33.59375 26.515625 31.984375 
L 29.59375 31.296875 
Q 39.15625 29.25 43.1875 25.515625 
Q 47.21875 21.78125 47.21875 15.09375 
Q 47.21875 7.46875 41.1875 3.015625 
Q 35.15625 -1.421875 24.609375 -1.421875 
Q 20.21875 -1.421875 15.453125 -0.5625 
Q 10.6875 0.296875 5.421875 2 
L 5.421875 11.28125 
Q 10.40625 8.6875 15.234375 7.390625 
Q 20.0625 6.109375 24.8125 6.109375 
Q 31.15625 6.109375 34.5625 8.28125 
Q 37.984375 10.453125 37.984375 14.40625 
Q 37.984375 18.0625 35.515625 20.015625 
Q 33.0625 21.96875 24.703125 23.78125 
L 21.578125 24.515625 
Q 13.234375 26.265625 9.515625 29.90625 
Q 5.8125 33.546875 5.8125 39.890625 
Q 5.8125 47.609375 11.28125 51.796875 
Q 16.75 56 26.8125 56 
Q 31.78125 56 36.171875 55.265625 
Q 40.578125 54.546875 44.28125 53.078125 
z
" id="DejaVuSans-115"/>
     </defs>
     <g transform="translate(1119.653438 28.737422)scale(0.1 -0.1)">
      <use xlink:href="#DejaVuSans-71"/>
      <use x="77.490234" xlink:href="#DejaVuSans-101"/>
      <use x="139.013672" xlink:href="#DejaVuSans-110"/>
      <use x="202.392578" xlink:href="#DejaVuSans-101"/>
      <use x="263.916016" xlink:href="#DejaVuSans-115"/>
      <use x="316.015625" xlink:href="#DejaVuSans-101"/>
      <use x="377.539062" xlink:href="#DejaVuSans-110"/>
      <use x="440.917969" xlink:href="#DejaVuSans-101"/>
     </g>
    </g>
    <g id="line2d_67">
     <path d="M 1091.653438 39.915547 
L 1111.653438 39.915547 
" style="fill:none;stroke:#2792cb;stroke-linecap:square;stroke-width:2;"/>
    </g>
    <g id="line2d_68">
     <g>
      <use style="fill:#2792cb;stroke:#2792cb;" x="1101.653438" xlink:href="#meb73e9c465" y="39.915547"/>
     </g>
    </g>
    <g id="text_38">
     <!-- Erkrankte -->
     <defs>
      <path d="M 9.8125 72.90625 
L 55.90625 72.90625 
L 55.90625 64.59375 
L 19.671875 64.59375 
L 19.671875 43.015625 
L 54.390625 43.015625 
L 54.390625 34.71875 
L 19.671875 34.71875 
L 19.671875 8.296875 
L 56.78125 8.296875 
L 56.78125 0 
L 9.8125 0 
z
" id="DejaVuSans-69"/>
      <path d="M 41.109375 46.296875 
Q 39.59375 47.171875 37.8125 47.578125 
Q 36.03125 48 33.890625 48 
Q 26.265625 48 22.1875 43.046875 
Q 18.109375 38.09375 18.109375 28.8125 
L 18.109375 0 
L 9.078125 0 
L 9.078125 54.6875 
L 18.109375 54.6875 
L 18.109375 46.1875 
Q 20.953125 51.171875 25.484375 53.578125 
Q 30.03125 56 36.53125 56 
Q 37.453125 56 38.578125 55.875 
Q 39.703125 55.765625 41.0625 55.515625 
z
" id="DejaVuSans-114"/>
      <path d="M 9.078125 75.984375 
L 18.109375 75.984375 
L 18.109375 31.109375 
L 44.921875 54.6875 
L 56.390625 54.6875 
L 27.390625 29.109375 
L 57.625 0 
L 45.90625 0 
L 18.109375 26.703125 
L 18.109375 0 
L 9.078125 0 
z
" id="DejaVuSans-107"/>
      <path d="M 18.3125 70.21875 
L 18.3125 54.6875 
L 36.8125 54.6875 
L 36.8125 47.703125 
L 18.3125 47.703125 
L 18.3125 18.015625 
Q 18.3125 11.328125 20.140625 9.421875 
Q 21.96875 7.515625 27.59375 7.515625 
L 36.8125 7.515625 
L 36.8125 0 
L 27.59375 0 
Q 17.1875 0 13.234375 3.875 
Q 9.28125 7.765625 9.28125 18.015625 
L 9.28125 47.703125 
L 2.6875 47.703125 
L 2.6875 54.6875 
L 9.28125 54.6875 
L 9.28125 70.21875 
z
" id="DejaVuSans-116"/>
     </defs>
     <g transform="translate(1119.653438 43.415547)scale(0.1 -0.1)">
      <use xlink:href="#DejaVuSans-69"/>
      <use x="63.183594" xlink:href="#DejaVuSans-114"/>
      <use x="104.296875" xlink:href="#DejaVuSans-107"/>
      <use x="162.207031" xlink:href="#DejaVuSans-114"/>
      <use x="203.320312" xlink:href="#DejaVuSans-97"/>
      <use x="264.599609" xlink:href="#DejaVuSans-110"/>
      <use x="327.978516" xlink:href="#DejaVuSans-107"/>
      <use x="385.888672" xlink:href="#DejaVuSans-116"/>
      <use x="425.097656" xlink:href="#DejaVuSans-101"/>
     </g>
    </g>
   </g>
  </g>
 </g>
 <defs>
  <clipPath id="p7d37e32b01">
   <rect height="489.6" width="1116" x="62.89875" y="12.138984"/>
  </clipPath>
 </defs>
</svg>
