<?xml version="1.0" encoding="utf-8" standalone="no"?>
<!DOCTYPE svg PUBLIC "-//W3C//DTD SVG 1.1//EN"
  "http://www.w3.org/Graphics/SVG/1.1/DTD/svg11.dtd">
<!-- Created with matplotlib (https://matplotlib.org/) -->
<svg height="553.993765pt" version="1.1" viewBox="0 0 1186.09875 553.993765" width="1186.09875pt" xmlns="http://www.w3.org/2000/svg" xmlns:xlink="http://www.w3.org/1999/xlink">
 <defs>
  <style type="text/css">
*{stroke-linecap:butt;stroke-linejoin:round;}
  </style>
 </defs>
 <g id="figure_1">
  <g id="patch_1">
   <path d="M 0 553.993765 
L 1186.09875 553.993765 
L 1186.09875 0 
L 0 0 
z
" style="fill:#ffffff;"/>
  </g>
  <g id="axes_1">
   <g id="patch_2">
    <path d="M 62.89875 501.738984 
L 1178.89875 501.738984 
L 1178.89875 12.138984 
L 62.89875 12.138984 
z
" style="fill:#ffffff;"/>
   </g>
   <g id="matplotlib.axis_1">
    <g id="xtick_1">
     <g id="line2d_1">
      <defs>
       <path d="M 0 0 
L 0 3.5 
" id="m1e4299cac7" style="stroke:#000000;stroke-width:0.8;"/>
      </defs>
      <g>
       <use style="stroke:#000000;stroke-width:0.8;" x="155.130155" xlink:href="#m1e4299cac7" y="501.738984"/>
      </g>
     </g>
     <g id="text_1">
      <!-- 2020-04 -->
      <defs>
       <path d="M 19.1875 8.296875 
L 53.609375 8.296875 
L 53.609375 0 
L 7.328125 0 
L 7.328125 8.296875 
Q 12.9375 14.109375 22.625 23.890625 
Q 32.328125 33.6875 34.8125 36.53125 
Q 39.546875 41.84375 41.421875 45.53125 
Q 43.3125 49.21875 43.3125 52.78125 
Q 43.3125 58.59375 39.234375 62.25 
Q 35.15625 65.921875 28.609375 65.921875 
Q 23.96875 65.921875 18.8125 64.3125 
Q 13.671875 62.703125 7.8125 59.421875 
L 7.8125 69.390625 
Q 13.765625 71.78125 18.9375 73 
Q 24.125 74.21875 28.421875 74.21875 
Q 39.75 74.21875 46.484375 68.546875 
Q 53.21875 62.890625 53.21875 53.421875 
Q 53.21875 48.921875 51.53125 44.890625 
Q 49.859375 40.875 45.40625 35.40625 
Q 44.1875 33.984375 37.640625 27.21875 
Q 31.109375 20.453125 19.1875 8.296875 
z
" id="DejaVuSans-50"/>
       <path d="M 31.78125 66.40625 
Q 24.171875 66.40625 20.328125 58.90625 
Q 16.5 51.421875 16.5 36.375 
Q 16.5 21.390625 20.328125 13.890625 
Q 24.171875 6.390625 31.78125 6.390625 
Q 39.453125 6.390625 43.28125 13.890625 
Q 47.125 21.390625 47.125 36.375 
Q 47.125 51.421875 43.28125 58.90625 
Q 39.453125 66.40625 31.78125 66.40625 
z
M 31.78125 74.21875 
Q 44.046875 74.21875 50.515625 64.515625 
Q 56.984375 54.828125 56.984375 36.375 
Q 56.984375 17.96875 50.515625 8.265625 
Q 44.046875 -1.421875 31.78125 -1.421875 
Q 19.53125 -1.421875 13.0625 8.265625 
Q 6.59375 17.96875 6.59375 36.375 
Q 6.59375 54.828125 13.0625 64.515625 
Q 19.53125 74.21875 31.78125 74.21875 
z
" id="DejaVuSans-48"/>
       <path d="M 4.890625 31.390625 
L 31.203125 31.390625 
L 31.203125 23.390625 
L 4.890625 23.390625 
z
" id="DejaVuSans-45"/>
       <path d="M 37.796875 64.3125 
L 12.890625 25.390625 
L 37.796875 25.390625 
z
M 35.203125 72.90625 
L 47.609375 72.90625 
L 47.609375 25.390625 
L 58.015625 25.390625 
L 58.015625 17.1875 
L 47.609375 17.1875 
L 47.609375 0 
L 37.796875 0 
L 37.796875 17.1875 
L 4.890625 17.1875 
L 4.890625 26.703125 
z
" id="DejaVuSans-52"/>
      </defs>
      <g transform="translate(106.737888 544.452384)rotate(-30)scale(0.13 -0.13)">
       <use xlink:href="#DejaVuSans-50"/>
       <use x="63.623047" xlink:href="#DejaVuSans-48"/>
       <use x="127.246094" xlink:href="#DejaVuSans-50"/>
       <use x="190.869141" xlink:href="#DejaVuSans-48"/>
       <use x="254.492188" xlink:href="#DejaVuSans-45"/>
       <use x="290.576172" xlink:href="#DejaVuSans-48"/>
       <use x="354.199219" xlink:href="#DejaVuSans-52"/>
      </g>
     </g>
    </g>
    <g id="xtick_2">
     <g id="line2d_2">
      <g>
       <use style="stroke:#000000;stroke-width:0.8;" x="293.477262" xlink:href="#m1e4299cac7" y="501.738984"/>
      </g>
     </g>
     <g id="text_2">
      <!-- 2020-05 -->
      <defs>
       <path d="M 10.796875 72.90625 
L 49.515625 72.90625 
L 49.515625 64.59375 
L 19.828125 64.59375 
L 19.828125 46.734375 
Q 21.96875 47.46875 24.109375 47.828125 
Q 26.265625 48.1875 28.421875 48.1875 
Q 40.625 48.1875 47.75 41.5 
Q 54.890625 34.8125 54.890625 23.390625 
Q 54.890625 11.625 47.5625 5.09375 
Q 40.234375 -1.421875 26.90625 -1.421875 
Q 22.3125 -1.421875 17.546875 -0.640625 
Q 12.796875 0.140625 7.71875 1.703125 
L 7.71875 11.625 
Q 12.109375 9.234375 16.796875 8.0625 
Q 21.484375 6.890625 26.703125 6.890625 
Q 35.15625 6.890625 40.078125 11.328125 
Q 45.015625 15.765625 45.015625 23.390625 
Q 45.015625 31 40.078125 35.4375 
Q 35.15625 39.890625 26.703125 39.890625 
Q 22.75 39.890625 18.8125 39.015625 
Q 14.890625 38.140625 10.796875 36.28125 
z
" id="DejaVuSans-53"/>
      </defs>
      <g transform="translate(245.084995 544.452384)rotate(-30)scale(0.13 -0.13)">
       <use xlink:href="#DejaVuSans-50"/>
       <use x="63.623047" xlink:href="#DejaVuSans-48"/>
       <use x="127.246094" xlink:href="#DejaVuSans-50"/>
       <use x="190.869141" xlink:href="#DejaVuSans-48"/>
       <use x="254.492188" xlink:href="#DejaVuSans-45"/>
       <use x="290.576172" xlink:href="#DejaVuSans-48"/>
       <use x="354.199219" xlink:href="#DejaVuSans-53"/>
      </g>
     </g>
    </g>
    <g id="xtick_3">
     <g id="line2d_3">
      <g>
       <use style="stroke:#000000;stroke-width:0.8;" x="436.43594" xlink:href="#m1e4299cac7" y="501.738984"/>
      </g>
     </g>
     <g id="text_3">
      <!-- 2020-06 -->
      <defs>
       <path d="M 33.015625 40.375 
Q 26.375 40.375 22.484375 35.828125 
Q 18.609375 31.296875 18.609375 23.390625 
Q 18.609375 15.53125 22.484375 10.953125 
Q 26.375 6.390625 33.015625 6.390625 
Q 39.65625 6.390625 43.53125 10.953125 
Q 47.40625 15.53125 47.40625 23.390625 
Q 47.40625 31.296875 43.53125 35.828125 
Q 39.65625 40.375 33.015625 40.375 
z
M 52.59375 71.296875 
L 52.59375 62.3125 
Q 48.875 64.0625 45.09375 64.984375 
Q 41.3125 65.921875 37.59375 65.921875 
Q 27.828125 65.921875 22.671875 59.328125 
Q 17.53125 52.734375 16.796875 39.40625 
Q 19.671875 43.65625 24.015625 45.921875 
Q 28.375 48.1875 33.59375 48.1875 
Q 44.578125 48.1875 50.953125 41.515625 
Q 57.328125 34.859375 57.328125 23.390625 
Q 57.328125 12.15625 50.6875 5.359375 
Q 44.046875 -1.421875 33.015625 -1.421875 
Q 20.359375 -1.421875 13.671875 8.265625 
Q 6.984375 17.96875 6.984375 36.375 
Q 6.984375 53.65625 15.1875 63.9375 
Q 23.390625 74.21875 37.203125 74.21875 
Q 40.921875 74.21875 44.703125 73.484375 
Q 48.484375 72.75 52.59375 71.296875 
z
" id="DejaVuSans-54"/>
      </defs>
      <g transform="translate(388.043673 544.452384)rotate(-30)scale(0.13 -0.13)">
       <use xlink:href="#DejaVuSans-50"/>
       <use x="63.623047" xlink:href="#DejaVuSans-48"/>
       <use x="127.246094" xlink:href="#DejaVuSans-50"/>
       <use x="190.869141" xlink:href="#DejaVuSans-48"/>
       <use x="254.492188" xlink:href="#DejaVuSans-45"/>
       <use x="290.576172" xlink:href="#DejaVuSans-48"/>
       <use x="354.199219" xlink:href="#DejaVuSans-54"/>
      </g>
     </g>
    </g>
    <g id="xtick_4">
     <g id="line2d_4">
      <g>
       <use style="stroke:#000000;stroke-width:0.8;" x="574.783048" xlink:href="#m1e4299cac7" y="501.738984"/>
      </g>
     </g>
     <g id="text_4">
      <!-- 2020-07 -->
      <defs>
       <path d="M 8.203125 72.90625 
L 55.078125 72.90625 
L 55.078125 68.703125 
L 28.609375 0 
L 18.3125 0 
L 43.21875 64.59375 
L 8.203125 64.59375 
z
" id="DejaVuSans-55"/>
      </defs>
      <g transform="translate(526.39078 544.452384)rotate(-30)scale(0.13 -0.13)">
       <use xlink:href="#DejaVuSans-50"/>
       <use x="63.623047" xlink:href="#DejaVuSans-48"/>
       <use x="127.246094" xlink:href="#DejaVuSans-50"/>
       <use x="190.869141" xlink:href="#DejaVuSans-48"/>
       <use x="254.492188" xlink:href="#DejaVuSans-45"/>
       <use x="290.576172" xlink:href="#DejaVuSans-48"/>
       <use x="354.199219" xlink:href="#DejaVuSans-55"/>
      </g>
     </g>
    </g>
    <g id="xtick_5">
     <g id="line2d_5">
      <g>
       <use style="stroke:#000000;stroke-width:0.8;" x="717.741725" xlink:href="#m1e4299cac7" y="501.738984"/>
      </g>
     </g>
     <g id="text_5">
      <!-- 2020-08 -->
      <defs>
       <path d="M 31.78125 34.625 
Q 24.75 34.625 20.71875 30.859375 
Q 16.703125 27.09375 16.703125 20.515625 
Q 16.703125 13.921875 20.71875 10.15625 
Q 24.75 6.390625 31.78125 6.390625 
Q 38.8125 6.390625 42.859375 10.171875 
Q 46.921875 13.96875 46.921875 20.515625 
Q 46.921875 27.09375 42.890625 30.859375 
Q 38.875 34.625 31.78125 34.625 
z
M 21.921875 38.8125 
Q 15.578125 40.375 12.03125 44.71875 
Q 8.5 49.078125 8.5 55.328125 
Q 8.5 64.0625 14.71875 69.140625 
Q 20.953125 74.21875 31.78125 74.21875 
Q 42.671875 74.21875 48.875 69.140625 
Q 55.078125 64.0625 55.078125 55.328125 
Q 55.078125 49.078125 51.53125 44.71875 
Q 48 40.375 41.703125 38.8125 
Q 48.828125 37.15625 52.796875 32.3125 
Q 56.78125 27.484375 56.78125 20.515625 
Q 56.78125 9.90625 50.3125 4.234375 
Q 43.84375 -1.421875 31.78125 -1.421875 
Q 19.734375 -1.421875 13.25 4.234375 
Q 6.78125 9.90625 6.78125 20.515625 
Q 6.78125 27.484375 10.78125 32.3125 
Q 14.796875 37.15625 21.921875 38.8125 
z
M 18.3125 54.390625 
Q 18.3125 48.734375 21.84375 45.5625 
Q 25.390625 42.390625 31.78125 42.390625 
Q 38.140625 42.390625 41.71875 45.5625 
Q 45.3125 48.734375 45.3125 54.390625 
Q 45.3125 60.0625 41.71875 63.234375 
Q 38.140625 66.40625 31.78125 66.40625 
Q 25.390625 66.40625 21.84375 63.234375 
Q 18.3125 60.0625 18.3125 54.390625 
z
" id="DejaVuSans-56"/>
      </defs>
      <g transform="translate(669.349458 544.452384)rotate(-30)scale(0.13 -0.13)">
       <use xlink:href="#DejaVuSans-50"/>
       <use x="63.623047" xlink:href="#DejaVuSans-48"/>
       <use x="127.246094" xlink:href="#DejaVuSans-50"/>
       <use x="190.869141" xlink:href="#DejaVuSans-48"/>
       <use x="254.492188" xlink:href="#DejaVuSans-45"/>
       <use x="290.576172" xlink:href="#DejaVuSans-48"/>
       <use x="354.199219" xlink:href="#DejaVuSans-56"/>
      </g>
     </g>
    </g>
    <g id="xtick_6">
     <g id="line2d_6">
      <g>
       <use style="stroke:#000000;stroke-width:0.8;" x="860.700403" xlink:href="#m1e4299cac7" y="501.738984"/>
      </g>
     </g>
     <g id="text_6">
      <!-- 2020-09 -->
      <defs>
       <path d="M 10.984375 1.515625 
L 10.984375 10.5 
Q 14.703125 8.734375 18.5 7.8125 
Q 22.3125 6.890625 25.984375 6.890625 
Q 35.75 6.890625 40.890625 13.453125 
Q 46.046875 20.015625 46.78125 33.40625 
Q 43.953125 29.203125 39.59375 26.953125 
Q 35.25 24.703125 29.984375 24.703125 
Q 19.046875 24.703125 12.671875 31.3125 
Q 6.296875 37.9375 6.296875 49.421875 
Q 6.296875 60.640625 12.9375 67.421875 
Q 19.578125 74.21875 30.609375 74.21875 
Q 43.265625 74.21875 49.921875 64.515625 
Q 56.59375 54.828125 56.59375 36.375 
Q 56.59375 19.140625 48.40625 8.859375 
Q 40.234375 -1.421875 26.421875 -1.421875 
Q 22.703125 -1.421875 18.890625 -0.6875 
Q 15.09375 0.046875 10.984375 1.515625 
z
M 30.609375 32.421875 
Q 37.25 32.421875 41.125 36.953125 
Q 45.015625 41.5 45.015625 49.421875 
Q 45.015625 57.28125 41.125 61.84375 
Q 37.25 66.40625 30.609375 66.40625 
Q 23.96875 66.40625 20.09375 61.84375 
Q 16.21875 57.28125 16.21875 49.421875 
Q 16.21875 41.5 20.09375 36.953125 
Q 23.96875 32.421875 30.609375 32.421875 
z
" id="DejaVuSans-57"/>
      </defs>
      <g transform="translate(812.308136 544.452384)rotate(-30)scale(0.13 -0.13)">
       <use xlink:href="#DejaVuSans-50"/>
       <use x="63.623047" xlink:href="#DejaVuSans-48"/>
       <use x="127.246094" xlink:href="#DejaVuSans-50"/>
       <use x="190.869141" xlink:href="#DejaVuSans-48"/>
       <use x="254.492188" xlink:href="#DejaVuSans-45"/>
       <use x="290.576172" xlink:href="#DejaVuSans-48"/>
       <use x="354.199219" xlink:href="#DejaVuSans-57"/>
      </g>
     </g>
    </g>
    <g id="xtick_7">
     <g id="line2d_7">
      <g>
       <use style="stroke:#000000;stroke-width:0.8;" x="999.04751" xlink:href="#m1e4299cac7" y="501.738984"/>
      </g>
     </g>
     <g id="text_7">
      <!-- 2020-10 -->
      <defs>
       <path d="M 12.40625 8.296875 
L 28.515625 8.296875 
L 28.515625 63.921875 
L 10.984375 60.40625 
L 10.984375 69.390625 
L 28.421875 72.90625 
L 38.28125 72.90625 
L 38.28125 8.296875 
L 54.390625 8.296875 
L 54.390625 0 
L 12.40625 0 
z
" id="DejaVuSans-49"/>
      </defs>
      <g transform="translate(950.655243 544.452384)rotate(-30)scale(0.13 -0.13)">
       <use xlink:href="#DejaVuSans-50"/>
       <use x="63.623047" xlink:href="#DejaVuSans-48"/>
       <use x="127.246094" xlink:href="#DejaVuSans-50"/>
       <use x="190.869141" xlink:href="#DejaVuSans-48"/>
       <use x="254.492188" xlink:href="#DejaVuSans-45"/>
       <use x="290.576172" xlink:href="#DejaVuSans-49"/>
       <use x="354.199219" xlink:href="#DejaVuSans-48"/>
      </g>
     </g>
    </g>
    <g id="xtick_8">
     <g id="line2d_8">
      <g>
       <use style="stroke:#000000;stroke-width:0.8;" x="1142.006188" xlink:href="#m1e4299cac7" y="501.738984"/>
      </g>
     </g>
     <g id="text_8">
      <!-- 2020-11 -->
      <g transform="translate(1093.613921 544.452384)rotate(-30)scale(0.13 -0.13)">
       <use xlink:href="#DejaVuSans-50"/>
       <use x="63.623047" xlink:href="#DejaVuSans-48"/>
       <use x="127.246094" xlink:href="#DejaVuSans-50"/>
       <use x="190.869141" xlink:href="#DejaVuSans-48"/>
       <use x="254.492188" xlink:href="#DejaVuSans-45"/>
       <use x="290.576172" xlink:href="#DejaVuSans-49"/>
       <use x="354.199219" xlink:href="#DejaVuSans-49"/>
      </g>
     </g>
    </g>
   </g>
   <g id="matplotlib.axis_2">
    <g id="ytick_1">
     <g id="line2d_9">
      <path clip-path="url(#p1798ec7c9a)" d="M 62.89875 484.725857 
L 1178.89875 484.725857 
" style="fill:none;stroke:#b0b0b0;stroke-linecap:square;stroke-width:0.8;"/>
     </g>
     <g id="line2d_10">
      <defs>
       <path d="M 0 0 
L -3.5 0 
" id="m1848a0ae91" style="stroke:#000000;stroke-width:0.8;"/>
      </defs>
      <g>
       <use style="stroke:#000000;stroke-width:0.8;" x="62.89875" xlink:href="#m1848a0ae91" y="484.725857"/>
      </g>
     </g>
     <g id="text_9">
      <!-- 0 -->
      <g transform="translate(47.6275 489.664841)scale(0.13 -0.13)">
       <use xlink:href="#DejaVuSans-48"/>
      </g>
     </g>
    </g>
    <g id="ytick_2">
     <g id="line2d_11">
      <path clip-path="url(#p1798ec7c9a)" d="M 62.89875 464.178602 
L 1178.89875 464.178602 
" style="fill:none;stroke:#b0b0b0;stroke-linecap:square;stroke-width:0.8;"/>
     </g>
     <g id="line2d_12">
      <g>
       <use style="stroke:#000000;stroke-width:0.8;" x="62.89875" xlink:href="#m1848a0ae91" y="464.178602"/>
      </g>
     </g>
     <g id="text_10">
      <!-- 100 -->
      <g transform="translate(31.085 469.117586)scale(0.13 -0.13)">
       <use xlink:href="#DejaVuSans-49"/>
       <use x="63.623047" xlink:href="#DejaVuSans-48"/>
       <use x="127.246094" xlink:href="#DejaVuSans-48"/>
      </g>
     </g>
    </g>
    <g id="ytick_3">
     <g id="line2d_13">
      <path clip-path="url(#p1798ec7c9a)" d="M 62.89875 443.631346 
L 1178.89875 443.631346 
" style="fill:none;stroke:#b0b0b0;stroke-linecap:square;stroke-width:0.8;"/>
     </g>
     <g id="line2d_14">
      <g>
       <use style="stroke:#000000;stroke-width:0.8;" x="62.89875" xlink:href="#m1848a0ae91" y="443.631346"/>
      </g>
     </g>
     <g id="text_11">
      <!-- 200 -->
      <g transform="translate(31.085 448.570331)scale(0.13 -0.13)">
       <use xlink:href="#DejaVuSans-50"/>
       <use x="63.623047" xlink:href="#DejaVuSans-48"/>
       <use x="127.246094" xlink:href="#DejaVuSans-48"/>
      </g>
     </g>
    </g>
    <g id="ytick_4">
     <g id="line2d_15">
      <path clip-path="url(#p1798ec7c9a)" d="M 62.89875 423.084091 
L 1178.89875 423.084091 
" style="fill:none;stroke:#b0b0b0;stroke-linecap:square;stroke-width:0.8;"/>
     </g>
     <g id="line2d_16">
      <g>
       <use style="stroke:#000000;stroke-width:0.8;" x="62.89875" xlink:href="#m1848a0ae91" y="423.084091"/>
      </g>
     </g>
     <g id="text_12">
      <!-- 300 -->
      <defs>
       <path d="M 40.578125 39.3125 
Q 47.65625 37.796875 51.625 33 
Q 55.609375 28.21875 55.609375 21.1875 
Q 55.609375 10.40625 48.1875 4.484375 
Q 40.765625 -1.421875 27.09375 -1.421875 
Q 22.515625 -1.421875 17.65625 -0.515625 
Q 12.796875 0.390625 7.625 2.203125 
L 7.625 11.71875 
Q 11.71875 9.328125 16.59375 8.109375 
Q 21.484375 6.890625 26.8125 6.890625 
Q 36.078125 6.890625 40.9375 10.546875 
Q 45.796875 14.203125 45.796875 21.1875 
Q 45.796875 27.640625 41.28125 31.265625 
Q 36.765625 34.90625 28.71875 34.90625 
L 20.21875 34.90625 
L 20.21875 43.015625 
L 29.109375 43.015625 
Q 36.375 43.015625 40.234375 45.921875 
Q 44.09375 48.828125 44.09375 54.296875 
Q 44.09375 59.90625 40.109375 62.90625 
Q 36.140625 65.921875 28.71875 65.921875 
Q 24.65625 65.921875 20.015625 65.03125 
Q 15.375 64.15625 9.8125 62.3125 
L 9.8125 71.09375 
Q 15.4375 72.65625 20.34375 73.4375 
Q 25.25 74.21875 29.59375 74.21875 
Q 40.828125 74.21875 47.359375 69.109375 
Q 53.90625 64.015625 53.90625 55.328125 
Q 53.90625 49.265625 50.4375 45.09375 
Q 46.96875 40.921875 40.578125 39.3125 
z
" id="DejaVuSans-51"/>
      </defs>
      <g transform="translate(31.085 428.023075)scale(0.13 -0.13)">
       <use xlink:href="#DejaVuSans-51"/>
       <use x="63.623047" xlink:href="#DejaVuSans-48"/>
       <use x="127.246094" xlink:href="#DejaVuSans-48"/>
      </g>
     </g>
    </g>
    <g id="ytick_5">
     <g id="line2d_17">
      <path clip-path="url(#p1798ec7c9a)" d="M 62.89875 402.536836 
L 1178.89875 402.536836 
" style="fill:none;stroke:#b0b0b0;stroke-linecap:square;stroke-width:0.8;"/>
     </g>
     <g id="line2d_18">
      <g>
       <use style="stroke:#000000;stroke-width:0.8;" x="62.89875" xlink:href="#m1848a0ae91" y="402.536836"/>
      </g>
     </g>
     <g id="text_13">
      <!-- 400 -->
      <g transform="translate(31.085 407.47582)scale(0.13 -0.13)">
       <use xlink:href="#DejaVuSans-52"/>
       <use x="63.623047" xlink:href="#DejaVuSans-48"/>
       <use x="127.246094" xlink:href="#DejaVuSans-48"/>
      </g>
     </g>
    </g>
    <g id="ytick_6">
     <g id="line2d_19">
      <path clip-path="url(#p1798ec7c9a)" d="M 62.89875 381.98958 
L 1178.89875 381.98958 
" style="fill:none;stroke:#b0b0b0;stroke-linecap:square;stroke-width:0.8;"/>
     </g>
     <g id="line2d_20">
      <g>
       <use style="stroke:#000000;stroke-width:0.8;" x="62.89875" xlink:href="#m1848a0ae91" y="381.98958"/>
      </g>
     </g>
     <g id="text_14">
      <!-- 500 -->
      <g transform="translate(31.085 386.928565)scale(0.13 -0.13)">
       <use xlink:href="#DejaVuSans-53"/>
       <use x="63.623047" xlink:href="#DejaVuSans-48"/>
       <use x="127.246094" xlink:href="#DejaVuSans-48"/>
      </g>
     </g>
    </g>
    <g id="ytick_7">
     <g id="line2d_21">
      <path clip-path="url(#p1798ec7c9a)" d="M 62.89875 361.442325 
L 1178.89875 361.442325 
" style="fill:none;stroke:#b0b0b0;stroke-linecap:square;stroke-width:0.8;"/>
     </g>
     <g id="line2d_22">
      <g>
       <use style="stroke:#000000;stroke-width:0.8;" x="62.89875" xlink:href="#m1848a0ae91" y="361.442325"/>
      </g>
     </g>
     <g id="text_15">
      <!-- 600 -->
      <g transform="translate(31.085 366.381309)scale(0.13 -0.13)">
       <use xlink:href="#DejaVuSans-54"/>
       <use x="63.623047" xlink:href="#DejaVuSans-48"/>
       <use x="127.246094" xlink:href="#DejaVuSans-48"/>
      </g>
     </g>
    </g>
    <g id="ytick_8">
     <g id="line2d_23">
      <path clip-path="url(#p1798ec7c9a)" d="M 62.89875 340.89507 
L 1178.89875 340.89507 
" style="fill:none;stroke:#b0b0b0;stroke-linecap:square;stroke-width:0.8;"/>
     </g>
     <g id="line2d_24">
      <g>
       <use style="stroke:#000000;stroke-width:0.8;" x="62.89875" xlink:href="#m1848a0ae91" y="340.89507"/>
      </g>
     </g>
     <g id="text_16">
      <!-- 700 -->
      <g transform="translate(31.085 345.834054)scale(0.13 -0.13)">
       <use xlink:href="#DejaVuSans-55"/>
       <use x="63.623047" xlink:href="#DejaVuSans-48"/>
       <use x="127.246094" xlink:href="#DejaVuSans-48"/>
      </g>
     </g>
    </g>
    <g id="ytick_9">
     <g id="line2d_25">
      <path clip-path="url(#p1798ec7c9a)" d="M 62.89875 320.347814 
L 1178.89875 320.347814 
" style="fill:none;stroke:#b0b0b0;stroke-linecap:square;stroke-width:0.8;"/>
     </g>
     <g id="line2d_26">
      <g>
       <use style="stroke:#000000;stroke-width:0.8;" x="62.89875" xlink:href="#m1848a0ae91" y="320.347814"/>
      </g>
     </g>
     <g id="text_17">
      <!-- 800 -->
      <g transform="translate(31.085 325.286799)scale(0.13 -0.13)">
       <use xlink:href="#DejaVuSans-56"/>
       <use x="63.623047" xlink:href="#DejaVuSans-48"/>
       <use x="127.246094" xlink:href="#DejaVuSans-48"/>
      </g>
     </g>
    </g>
    <g id="ytick_10">
     <g id="line2d_27">
      <path clip-path="url(#p1798ec7c9a)" d="M 62.89875 299.800559 
L 1178.89875 299.800559 
" style="fill:none;stroke:#b0b0b0;stroke-linecap:square;stroke-width:0.8;"/>
     </g>
     <g id="line2d_28">
      <g>
       <use style="stroke:#000000;stroke-width:0.8;" x="62.89875" xlink:href="#m1848a0ae91" y="299.800559"/>
      </g>
     </g>
     <g id="text_18">
      <!-- 900 -->
      <g transform="translate(31.085 304.739543)scale(0.13 -0.13)">
       <use xlink:href="#DejaVuSans-57"/>
       <use x="63.623047" xlink:href="#DejaVuSans-48"/>
       <use x="127.246094" xlink:href="#DejaVuSans-48"/>
      </g>
     </g>
    </g>
    <g id="ytick_11">
     <g id="line2d_29">
      <path clip-path="url(#p1798ec7c9a)" d="M 62.89875 279.253304 
L 1178.89875 279.253304 
" style="fill:none;stroke:#b0b0b0;stroke-linecap:square;stroke-width:0.8;"/>
     </g>
     <g id="line2d_30">
      <g>
       <use style="stroke:#000000;stroke-width:0.8;" x="62.89875" xlink:href="#m1848a0ae91" y="279.253304"/>
      </g>
     </g>
     <g id="text_19">
      <!-- 1000 -->
      <g transform="translate(22.81375 284.192288)scale(0.13 -0.13)">
       <use xlink:href="#DejaVuSans-49"/>
       <use x="63.623047" xlink:href="#DejaVuSans-48"/>
       <use x="127.246094" xlink:href="#DejaVuSans-48"/>
       <use x="190.869141" xlink:href="#DejaVuSans-48"/>
      </g>
     </g>
    </g>
    <g id="ytick_12">
     <g id="line2d_31">
      <path clip-path="url(#p1798ec7c9a)" d="M 62.89875 258.706048 
L 1178.89875 258.706048 
" style="fill:none;stroke:#b0b0b0;stroke-linecap:square;stroke-width:0.8;"/>
     </g>
     <g id="line2d_32">
      <g>
       <use style="stroke:#000000;stroke-width:0.8;" x="62.89875" xlink:href="#m1848a0ae91" y="258.706048"/>
      </g>
     </g>
     <g id="text_20">
      <!-- 1100 -->
      <g transform="translate(22.81375 263.645033)scale(0.13 -0.13)">
       <use xlink:href="#DejaVuSans-49"/>
       <use x="63.623047" xlink:href="#DejaVuSans-49"/>
       <use x="127.246094" xlink:href="#DejaVuSans-48"/>
       <use x="190.869141" xlink:href="#DejaVuSans-48"/>
      </g>
     </g>
    </g>
    <g id="ytick_13">
     <g id="line2d_33">
      <path clip-path="url(#p1798ec7c9a)" d="M 62.89875 238.158793 
L 1178.89875 238.158793 
" style="fill:none;stroke:#b0b0b0;stroke-linecap:square;stroke-width:0.8;"/>
     </g>
     <g id="line2d_34">
      <g>
       <use style="stroke:#000000;stroke-width:0.8;" x="62.89875" xlink:href="#m1848a0ae91" y="238.158793"/>
      </g>
     </g>
     <g id="text_21">
      <!-- 1200 -->
      <g transform="translate(22.81375 243.097777)scale(0.13 -0.13)">
       <use xlink:href="#DejaVuSans-49"/>
       <use x="63.623047" xlink:href="#DejaVuSans-50"/>
       <use x="127.246094" xlink:href="#DejaVuSans-48"/>
       <use x="190.869141" xlink:href="#DejaVuSans-48"/>
      </g>
     </g>
    </g>
    <g id="ytick_14">
     <g id="line2d_35">
      <path clip-path="url(#p1798ec7c9a)" d="M 62.89875 217.611538 
L 1178.89875 217.611538 
" style="fill:none;stroke:#b0b0b0;stroke-linecap:square;stroke-width:0.8;"/>
     </g>
     <g id="line2d_36">
      <g>
       <use style="stroke:#000000;stroke-width:0.8;" x="62.89875" xlink:href="#m1848a0ae91" y="217.611538"/>
      </g>
     </g>
     <g id="text_22">
      <!-- 1300 -->
      <g transform="translate(22.81375 222.550522)scale(0.13 -0.13)">
       <use xlink:href="#DejaVuSans-49"/>
       <use x="63.623047" xlink:href="#DejaVuSans-51"/>
       <use x="127.246094" xlink:href="#DejaVuSans-48"/>
       <use x="190.869141" xlink:href="#DejaVuSans-48"/>
      </g>
     </g>
    </g>
    <g id="ytick_15">
     <g id="line2d_37">
      <path clip-path="url(#p1798ec7c9a)" d="M 62.89875 197.064282 
L 1178.89875 197.064282 
" style="fill:none;stroke:#b0b0b0;stroke-linecap:square;stroke-width:0.8;"/>
     </g>
     <g id="line2d_38">
      <g>
       <use style="stroke:#000000;stroke-width:0.8;" x="62.89875" xlink:href="#m1848a0ae91" y="197.064282"/>
      </g>
     </g>
     <g id="text_23">
      <!-- 1400 -->
      <g transform="translate(22.81375 202.003267)scale(0.13 -0.13)">
       <use xlink:href="#DejaVuSans-49"/>
       <use x="63.623047" xlink:href="#DejaVuSans-52"/>
       <use x="127.246094" xlink:href="#DejaVuSans-48"/>
       <use x="190.869141" xlink:href="#DejaVuSans-48"/>
      </g>
     </g>
    </g>
    <g id="ytick_16">
     <g id="line2d_39">
      <path clip-path="url(#p1798ec7c9a)" d="M 62.89875 176.517027 
L 1178.89875 176.517027 
" style="fill:none;stroke:#b0b0b0;stroke-linecap:square;stroke-width:0.8;"/>
     </g>
     <g id="line2d_40">
      <g>
       <use style="stroke:#000000;stroke-width:0.8;" x="62.89875" xlink:href="#m1848a0ae91" y="176.517027"/>
      </g>
     </g>
     <g id="text_24">
      <!-- 1500 -->
      <g transform="translate(22.81375 181.456011)scale(0.13 -0.13)">
       <use xlink:href="#DejaVuSans-49"/>
       <use x="63.623047" xlink:href="#DejaVuSans-53"/>
       <use x="127.246094" xlink:href="#DejaVuSans-48"/>
       <use x="190.869141" xlink:href="#DejaVuSans-48"/>
      </g>
     </g>
    </g>
    <g id="ytick_17">
     <g id="line2d_41">
      <path clip-path="url(#p1798ec7c9a)" d="M 62.89875 155.969772 
L 1178.89875 155.969772 
" style="fill:none;stroke:#b0b0b0;stroke-linecap:square;stroke-width:0.8;"/>
     </g>
     <g id="line2d_42">
      <g>
       <use style="stroke:#000000;stroke-width:0.8;" x="62.89875" xlink:href="#m1848a0ae91" y="155.969772"/>
      </g>
     </g>
     <g id="text_25">
      <!-- 1600 -->
      <g transform="translate(22.81375 160.908756)scale(0.13 -0.13)">
       <use xlink:href="#DejaVuSans-49"/>
       <use x="63.623047" xlink:href="#DejaVuSans-54"/>
       <use x="127.246094" xlink:href="#DejaVuSans-48"/>
       <use x="190.869141" xlink:href="#DejaVuSans-48"/>
      </g>
     </g>
    </g>
    <g id="ytick_18">
     <g id="line2d_43">
      <path clip-path="url(#p1798ec7c9a)" d="M 62.89875 135.422516 
L 1178.89875 135.422516 
" style="fill:none;stroke:#b0b0b0;stroke-linecap:square;stroke-width:0.8;"/>
     </g>
     <g id="line2d_44">
      <g>
       <use style="stroke:#000000;stroke-width:0.8;" x="62.89875" xlink:href="#m1848a0ae91" y="135.422516"/>
      </g>
     </g>
     <g id="text_26">
      <!-- 1700 -->
      <g transform="translate(22.81375 140.361501)scale(0.13 -0.13)">
       <use xlink:href="#DejaVuSans-49"/>
       <use x="63.623047" xlink:href="#DejaVuSans-55"/>
       <use x="127.246094" xlink:href="#DejaVuSans-48"/>
       <use x="190.869141" xlink:href="#DejaVuSans-48"/>
      </g>
     </g>
    </g>
    <g id="ytick_19">
     <g id="line2d_45">
      <path clip-path="url(#p1798ec7c9a)" d="M 62.89875 114.875261 
L 1178.89875 114.875261 
" style="fill:none;stroke:#b0b0b0;stroke-linecap:square;stroke-width:0.8;"/>
     </g>
     <g id="line2d_46">
      <g>
       <use style="stroke:#000000;stroke-width:0.8;" x="62.89875" xlink:href="#m1848a0ae91" y="114.875261"/>
      </g>
     </g>
     <g id="text_27">
      <!-- 1800 -->
      <g transform="translate(22.81375 119.814245)scale(0.13 -0.13)">
       <use xlink:href="#DejaVuSans-49"/>
       <use x="63.623047" xlink:href="#DejaVuSans-56"/>
       <use x="127.246094" xlink:href="#DejaVuSans-48"/>
       <use x="190.869141" xlink:href="#DejaVuSans-48"/>
      </g>
     </g>
    </g>
    <g id="ytick_20">
     <g id="line2d_47">
      <path clip-path="url(#p1798ec7c9a)" d="M 62.89875 94.328006 
L 1178.89875 94.328006 
" style="fill:none;stroke:#b0b0b0;stroke-linecap:square;stroke-width:0.8;"/>
     </g>
     <g id="line2d_48">
      <g>
       <use style="stroke:#000000;stroke-width:0.8;" x="62.89875" xlink:href="#m1848a0ae91" y="94.328006"/>
      </g>
     </g>
     <g id="text_28">
      <!-- 1900 -->
      <g transform="translate(22.81375 99.26699)scale(0.13 -0.13)">
       <use xlink:href="#DejaVuSans-49"/>
       <use x="63.623047" xlink:href="#DejaVuSans-57"/>
       <use x="127.246094" xlink:href="#DejaVuSans-48"/>
       <use x="190.869141" xlink:href="#DejaVuSans-48"/>
      </g>
     </g>
    </g>
    <g id="ytick_21">
     <g id="line2d_49">
      <path clip-path="url(#p1798ec7c9a)" d="M 62.89875 73.78075 
L 1178.89875 73.78075 
" style="fill:none;stroke:#b0b0b0;stroke-linecap:square;stroke-width:0.8;"/>
     </g>
     <g id="line2d_50">
      <g>
       <use style="stroke:#000000;stroke-width:0.8;" x="62.89875" xlink:href="#m1848a0ae91" y="73.78075"/>
      </g>
     </g>
     <g id="text_29">
      <!-- 2000 -->
      <g transform="translate(22.81375 78.719735)scale(0.13 -0.13)">
       <use xlink:href="#DejaVuSans-50"/>
       <use x="63.623047" xlink:href="#DejaVuSans-48"/>
       <use x="127.246094" xlink:href="#DejaVuSans-48"/>
       <use x="190.869141" xlink:href="#DejaVuSans-48"/>
      </g>
     </g>
    </g>
    <g id="ytick_22">
     <g id="line2d_51">
      <path clip-path="url(#p1798ec7c9a)" d="M 62.89875 53.233495 
L 1178.89875 53.233495 
" style="fill:none;stroke:#b0b0b0;stroke-linecap:square;stroke-width:0.8;"/>
     </g>
     <g id="line2d_52">
      <g>
       <use style="stroke:#000000;stroke-width:0.8;" x="62.89875" xlink:href="#m1848a0ae91" y="53.233495"/>
      </g>
     </g>
     <g id="text_30">
      <!-- 2100 -->
      <g transform="translate(22.81375 58.172479)scale(0.13 -0.13)">
       <use xlink:href="#DejaVuSans-50"/>
       <use x="63.623047" xlink:href="#DejaVuSans-49"/>
       <use x="127.246094" xlink:href="#DejaVuSans-48"/>
       <use x="190.869141" xlink:href="#DejaVuSans-48"/>
      </g>
     </g>
    </g>
    <g id="ytick_23">
     <g id="line2d_53">
      <path clip-path="url(#p1798ec7c9a)" d="M 62.89875 32.68624 
L 1178.89875 32.68624 
" style="fill:none;stroke:#b0b0b0;stroke-linecap:square;stroke-width:0.8;"/>
     </g>
     <g id="line2d_54">
      <g>
       <use style="stroke:#000000;stroke-width:0.8;" x="62.89875" xlink:href="#m1848a0ae91" y="32.68624"/>
      </g>
     </g>
     <g id="text_31">
      <!-- 2200 -->
      <g transform="translate(22.81375 37.625224)scale(0.13 -0.13)">
       <use xlink:href="#DejaVuSans-50"/>
       <use x="63.623047" xlink:href="#DejaVuSans-50"/>
       <use x="127.246094" xlink:href="#DejaVuSans-48"/>
       <use x="190.869141" xlink:href="#DejaVuSans-48"/>
      </g>
     </g>
    </g>
    <g id="ytick_24">
     <g id="line2d_55">
      <path clip-path="url(#p1798ec7c9a)" d="M 62.89875 12.138984 
L 1178.89875 12.138984 
" style="fill:none;stroke:#b0b0b0;stroke-linecap:square;stroke-width:0.8;"/>
     </g>
     <g id="line2d_56">
      <g>
       <use style="stroke:#000000;stroke-width:0.8;" x="62.89875" xlink:href="#m1848a0ae91" y="12.138984"/>
      </g>
     </g>
     <g id="text_32">
      <!-- 2300 -->
      <g transform="translate(22.81375 17.077969)scale(0.13 -0.13)">
       <use xlink:href="#DejaVuSans-50"/>
       <use x="63.623047" xlink:href="#DejaVuSans-51"/>
       <use x="127.246094" xlink:href="#DejaVuSans-48"/>
       <use x="190.869141" xlink:href="#DejaVuSans-48"/>
      </g>
     </g>
    </g>
    <g id="text_33">
     <!-- Anzahl von Fällen -->
     <defs>
      <path d="M 34.1875 63.1875 
L 20.796875 26.90625 
L 47.609375 26.90625 
z
M 28.609375 72.90625 
L 39.796875 72.90625 
L 67.578125 0 
L 57.328125 0 
L 50.6875 18.703125 
L 17.828125 18.703125 
L 11.1875 0 
L 0.78125 0 
z
" id="DejaVuSans-65"/>
      <path d="M 54.890625 33.015625 
L 54.890625 0 
L 45.90625 0 
L 45.90625 32.71875 
Q 45.90625 40.484375 42.875 44.328125 
Q 39.84375 48.1875 33.796875 48.1875 
Q 26.515625 48.1875 22.3125 43.546875 
Q 18.109375 38.921875 18.109375 30.90625 
L 18.109375 0 
L 9.078125 0 
L 9.078125 54.6875 
L 18.109375 54.6875 
L 18.109375 46.1875 
Q 21.34375 51.125 25.703125 53.5625 
Q 30.078125 56 35.796875 56 
Q 45.21875 56 50.046875 50.171875 
Q 54.890625 44.34375 54.890625 33.015625 
z
" id="DejaVuSans-110"/>
      <path d="M 5.515625 54.6875 
L 48.1875 54.6875 
L 48.1875 46.484375 
L 14.40625 7.171875 
L 48.1875 7.171875 
L 48.1875 0 
L 4.296875 0 
L 4.296875 8.203125 
L 38.09375 47.515625 
L 5.515625 47.515625 
z
" id="DejaVuSans-122"/>
      <path d="M 34.28125 27.484375 
Q 23.390625 27.484375 19.1875 25 
Q 14.984375 22.515625 14.984375 16.5 
Q 14.984375 11.71875 18.140625 8.90625 
Q 21.296875 6.109375 26.703125 6.109375 
Q 34.1875 6.109375 38.703125 11.40625 
Q 43.21875 16.703125 43.21875 25.484375 
L 43.21875 27.484375 
z
M 52.203125 31.203125 
L 52.203125 0 
L 43.21875 0 
L 43.21875 8.296875 
Q 40.140625 3.328125 35.546875 0.953125 
Q 30.953125 -1.421875 24.3125 -1.421875 
Q 15.921875 -1.421875 10.953125 3.296875 
Q 6 8.015625 6 15.921875 
Q 6 25.140625 12.171875 29.828125 
Q 18.359375 34.515625 30.609375 34.515625 
L 43.21875 34.515625 
L 43.21875 35.40625 
Q 43.21875 41.609375 39.140625 45 
Q 35.0625 48.390625 27.6875 48.390625 
Q 23 48.390625 18.546875 47.265625 
Q 14.109375 46.140625 10.015625 43.890625 
L 10.015625 52.203125 
Q 14.9375 54.109375 19.578125 55.046875 
Q 24.21875 56 28.609375 56 
Q 40.484375 56 46.34375 49.84375 
Q 52.203125 43.703125 52.203125 31.203125 
z
" id="DejaVuSans-97"/>
      <path d="M 54.890625 33.015625 
L 54.890625 0 
L 45.90625 0 
L 45.90625 32.71875 
Q 45.90625 40.484375 42.875 44.328125 
Q 39.84375 48.1875 33.796875 48.1875 
Q 26.515625 48.1875 22.3125 43.546875 
Q 18.109375 38.921875 18.109375 30.90625 
L 18.109375 0 
L 9.078125 0 
L 9.078125 75.984375 
L 18.109375 75.984375 
L 18.109375 46.1875 
Q 21.34375 51.125 25.703125 53.5625 
Q 30.078125 56 35.796875 56 
Q 45.21875 56 50.046875 50.171875 
Q 54.890625 44.34375 54.890625 33.015625 
z
" id="DejaVuSans-104"/>
      <path d="M 9.421875 75.984375 
L 18.40625 75.984375 
L 18.40625 0 
L 9.421875 0 
z
" id="DejaVuSans-108"/>
      <path id="DejaVuSans-32"/>
      <path d="M 2.984375 54.6875 
L 12.5 54.6875 
L 29.59375 8.796875 
L 46.6875 54.6875 
L 56.203125 54.6875 
L 35.6875 0 
L 23.484375 0 
z
" id="DejaVuSans-118"/>
      <path d="M 30.609375 48.390625 
Q 23.390625 48.390625 19.1875 42.75 
Q 14.984375 37.109375 14.984375 27.296875 
Q 14.984375 17.484375 19.15625 11.84375 
Q 23.34375 6.203125 30.609375 6.203125 
Q 37.796875 6.203125 41.984375 11.859375 
Q 46.1875 17.53125 46.1875 27.296875 
Q 46.1875 37.015625 41.984375 42.703125 
Q 37.796875 48.390625 30.609375 48.390625 
z
M 30.609375 56 
Q 42.328125 56 49.015625 48.375 
Q 55.71875 40.765625 55.71875 27.296875 
Q 55.71875 13.875 49.015625 6.21875 
Q 42.328125 -1.421875 30.609375 -1.421875 
Q 18.84375 -1.421875 12.171875 6.21875 
Q 5.515625 13.875 5.515625 27.296875 
Q 5.515625 40.765625 12.171875 48.375 
Q 18.84375 56 30.609375 56 
z
" id="DejaVuSans-111"/>
      <path d="M 9.8125 72.90625 
L 51.703125 72.90625 
L 51.703125 64.59375 
L 19.671875 64.59375 
L 19.671875 43.109375 
L 48.578125 43.109375 
L 48.578125 34.8125 
L 19.671875 34.8125 
L 19.671875 0 
L 9.8125 0 
z
" id="DejaVuSans-70"/>
      <path d="M 34.28125 27.484375 
Q 23.390625 27.484375 19.1875 25 
Q 14.984375 22.515625 14.984375 16.5 
Q 14.984375 11.71875 18.140625 8.90625 
Q 21.296875 6.109375 26.703125 6.109375 
Q 34.1875 6.109375 38.703125 11.40625 
Q 43.21875 16.703125 43.21875 25.484375 
L 43.21875 27.484375 
z
M 52.203125 31.203125 
L 52.203125 0 
L 43.21875 0 
L 43.21875 8.296875 
Q 40.140625 3.328125 35.546875 0.953125 
Q 30.953125 -1.421875 24.3125 -1.421875 
Q 15.921875 -1.421875 10.953125 3.296875 
Q 6 8.015625 6 15.921875 
Q 6 25.140625 12.171875 29.828125 
Q 18.359375 34.515625 30.609375 34.515625 
L 43.21875 34.515625 
L 43.21875 35.40625 
Q 43.21875 41.609375 39.140625 45 
Q 35.0625 48.390625 27.6875 48.390625 
Q 23 48.390625 18.546875 47.265625 
Q 14.109375 46.140625 10.015625 43.890625 
L 10.015625 52.203125 
Q 14.9375 54.109375 19.578125 55.046875 
Q 24.21875 56 28.609375 56 
Q 40.484375 56 46.34375 49.84375 
Q 52.203125 43.703125 52.203125 31.203125 
z
M 33.59375 75.78125 
L 43.5 75.78125 
L 43.5 65.921875 
L 33.59375 65.921875 
z
M 14.5 75.78125 
L 24.40625 75.78125 
L 24.40625 65.921875 
L 14.5 65.921875 
z
" id="DejaVuSans-228"/>
      <path d="M 56.203125 29.59375 
L 56.203125 25.203125 
L 14.890625 25.203125 
Q 15.484375 15.921875 20.484375 11.0625 
Q 25.484375 6.203125 34.421875 6.203125 
Q 39.59375 6.203125 44.453125 7.46875 
Q 49.3125 8.734375 54.109375 11.28125 
L 54.109375 2.78125 
Q 49.265625 0.734375 44.1875 -0.34375 
Q 39.109375 -1.421875 33.890625 -1.421875 
Q 20.796875 -1.421875 13.15625 6.1875 
Q 5.515625 13.8125 5.515625 26.8125 
Q 5.515625 40.234375 12.765625 48.109375 
Q 20.015625 56 32.328125 56 
Q 43.359375 56 49.78125 48.890625 
Q 56.203125 41.796875 56.203125 29.59375 
z
M 47.21875 32.234375 
Q 47.125 39.59375 43.09375 43.984375 
Q 39.0625 48.390625 32.421875 48.390625 
Q 24.90625 48.390625 20.390625 44.140625 
Q 15.875 39.890625 15.1875 32.171875 
z
" id="DejaVuSans-101"/>
     </defs>
     <g transform="translate(16.318125 309.388359)rotate(-90)scale(0.12 -0.12)">
      <use xlink:href="#DejaVuSans-65"/>
      <use x="68.408203" xlink:href="#DejaVuSans-110"/>
      <use x="131.787109" xlink:href="#DejaVuSans-122"/>
      <use x="184.277344" xlink:href="#DejaVuSans-97"/>
      <use x="245.556641" xlink:href="#DejaVuSans-104"/>
      <use x="308.935547" xlink:href="#DejaVuSans-108"/>
      <use x="336.71875" xlink:href="#DejaVuSans-32"/>
      <use x="368.505859" xlink:href="#DejaVuSans-118"/>
      <use x="427.685547" xlink:href="#DejaVuSans-111"/>
      <use x="488.867188" xlink:href="#DejaVuSans-110"/>
      <use x="552.246094" xlink:href="#DejaVuSans-32"/>
      <use x="584.033203" xlink:href="#DejaVuSans-70"/>
      <use x="632.427734" xlink:href="#DejaVuSans-228"/>
      <use x="693.707031" xlink:href="#DejaVuSans-108"/>
      <use x="721.490234" xlink:href="#DejaVuSans-108"/>
      <use x="749.273438" xlink:href="#DejaVuSans-101"/>
      <use x="810.796875" xlink:href="#DejaVuSans-110"/>
     </g>
    </g>
   </g>
   <g id="line2d_57">
    <path clip-path="url(#p1798ec7c9a)" d="M 113.626023 484.314912 
L 118.237593 484.314912 
L 127.460733 483.903967 
L 145.907014 483.903967 
L 150.518585 481.438296 
L 155.130155 480.616406 
L 164.353295 480.205461 
L 168.964866 479.794516 
L 173.576436 479.589043 
L 178.188006 478.150735 
L 182.799576 477.328845 
L 192.022717 476.09601 
L 196.634287 475.890537 
L 201.245857 475.068647 
L 205.857428 474.657702 
L 215.080568 474.041284 
L 219.692138 465.205964 
L 224.303709 462.945766 
L 228.915279 461.096513 
L 242.74999 456.165172 
L 247.36156 453.288556 
L 251.97313 450.822886 
L 256.5847 445.069654 
L 261.196271 444.453237 
L 265.807841 442.193038 
L 275.030981 441.782093 
L 279.642552 439.316423 
L 284.254122 438.28906 
L 288.865692 438.083587 
L 298.088833 436.645279 
L 307.311973 436.439807 
L 311.923543 434.179609 
L 316.535114 434.179609 
L 321.146684 432.535828 
L 325.758254 431.713938 
L 330.369824 427.399015 
L 344.204535 427.193542 
L 348.816105 425.960707 
L 353.427676 425.755234 
L 358.039246 424.727871 
L 371.873957 424.727871 
L 376.485527 418.563695 
L 381.097097 416.919914 
L 390.320238 416.919914 
L 394.931808 416.714442 
L 404.154948 416.714442 
L 408.766519 415.892552 
L 417.989659 413.221408 
L 422.601229 413.015936 
L 445.659081 412.604991 
L 450.270651 412.194046 
L 454.882221 410.755738 
L 459.493791 409.933848 
L 468.716932 409.933848 
L 473.328502 409.31743 
L 477.940072 408.290067 
L 500.997924 408.290067 
L 510.221064 406.029869 
L 519.444205 403.975144 
L 524.055775 403.153253 
L 537.890486 403.153253 
L 542.502056 400.687583 
L 547.113626 399.865692 
L 556.336767 399.249275 
L 565.559907 399.249275 
L 570.171477 396.578132 
L 574.783048 395.756241 
L 579.394618 394.317934 
L 584.006188 392.263208 
L 602.452469 389.797537 
L 607.064039 388.975647 
L 611.67561 386.920922 
L 616.28718 386.509976 
L 630.12189 385.893559 
L 634.733461 384.866196 
L 639.345031 383.016943 
L 643.956601 381.98958 
L 648.568171 381.98958 
L 662.402882 380.962218 
L 667.014452 380.756745 
L 671.626023 379.318437 
L 676.237593 377.674657 
L 680.849163 376.647294 
L 694.683874 376.441821 
L 699.295444 375.414459 
L 703.907014 373.976151 
L 708.518585 371.921425 
L 713.130155 355.894566 
L 726.964866 371.305008 
L 731.576436 371.305008 
L 736.188006 368.428392 
L 740.799576 367.401029 
L 745.411147 367.195556 
L 763.857428 367.195556 
L 768.468998 360.004017 
L 773.080568 358.154764 
L 791.526849 358.154764 
L 796.138419 355.689093 
L 800.74999 355.072676 
L 805.36156 354.045313 
L 809.97313 349.524917 
L 828.419411 348.908499 
L 833.030981 340.073179 
L 837.642552 338.634872 
L 842.254122 338.429399 
L 856.088833 335.963728 
L 860.700403 335.347311 
L 865.311973 331.032387 
L 869.923543 329.799552 
L 874.535114 327.950299 
L 888.369824 327.128409 
L 892.981395 324.251793 
L 897.592965 323.635375 
L 902.204535 323.635375 
L 906.816105 320.553287 
L 920.650816 318.087616 
L 925.262386 318.087616 
L 929.873957 317.265726 
L 934.485527 317.060253 
L 939.097097 315.211 
L 952.931808 315.211 
L 957.543378 313.978165 
L 962.154948 311.307022 
L 966.766519 310.485132 
L 971.378089 309.046824 
L 985.2128 306.581153 
L 989.82437 303.704538 
L 994.43594 301.444339 
L 999.04751 297.334888 
L 1003.659081 296.512998 
L 1017.493791 294.869218 
L 1022.105362 283.7737 
L 1026.716932 283.362755 
L 1031.328502 276.171215 
L 1035.940072 274.93838 
L 1049.774783 274.321962 
L 1054.386353 273.911017 
L 1086.667345 258.295103 
L 1091.278915 254.391125 
L 1095.890486 253.774707 
L 1100.502056 243.295607 
L 1114.336767 240.418991 
L 1118.948337 229.323473 
L 1123.559907 223.981187 
L 1128.171477 217.81701 
L 1128.171477 217.81701 
" style="fill:none;stroke:#dbcd00;stroke-linecap:square;stroke-width:2;"/>
    <defs>
     <path d="M 0 1.5 
C 0.397805 1.5 0.77937 1.341951 1.06066 1.06066 
C 1.341951 0.77937 1.5 0.397805 1.5 0 
C 1.5 -0.397805 1.341951 -0.77937 1.06066 -1.06066 
C 0.77937 -1.341951 0.397805 -1.5 0 -1.5 
C -0.397805 -1.5 -0.77937 -1.341951 -1.06066 -1.06066 
C -1.341951 -0.77937 -1.5 -0.397805 -1.5 0 
C -1.5 0.397805 -1.341951 0.77937 -1.06066 1.06066 
C -0.77937 1.341951 -0.397805 1.5 0 1.5 
z
" id="mc6568c8290" style="stroke:#dbcd00;"/>
    </defs>
    <g clip-path="url(#p1798ec7c9a)">
     <use style="fill:#dbcd00;stroke:#dbcd00;" x="113.626023" xlink:href="#mc6568c8290" y="484.314912"/>
     <use style="fill:#dbcd00;stroke:#dbcd00;" x="118.237593" xlink:href="#mc6568c8290" y="484.314912"/>
     <use style="fill:#dbcd00;stroke:#dbcd00;" x="122.849163" xlink:href="#mc6568c8290" y="484.109439"/>
     <use style="fill:#dbcd00;stroke:#dbcd00;" x="127.460733" xlink:href="#mc6568c8290" y="483.903967"/>
     <use style="fill:#dbcd00;stroke:#dbcd00;" x="132.072304" xlink:href="#mc6568c8290" y="483.903967"/>
     <use style="fill:#dbcd00;stroke:#dbcd00;" x="136.683874" xlink:href="#mc6568c8290" y="483.903967"/>
     <use style="fill:#dbcd00;stroke:#dbcd00;" x="141.295444" xlink:href="#mc6568c8290" y="483.903967"/>
     <use style="fill:#dbcd00;stroke:#dbcd00;" x="145.907014" xlink:href="#mc6568c8290" y="483.903967"/>
     <use style="fill:#dbcd00;stroke:#dbcd00;" x="150.518585" xlink:href="#mc6568c8290" y="481.438296"/>
     <use style="fill:#dbcd00;stroke:#dbcd00;" x="155.130155" xlink:href="#mc6568c8290" y="480.616406"/>
     <use style="fill:#dbcd00;stroke:#dbcd00;" x="159.741725" xlink:href="#mc6568c8290" y="480.410933"/>
     <use style="fill:#dbcd00;stroke:#dbcd00;" x="164.353295" xlink:href="#mc6568c8290" y="480.205461"/>
     <use style="fill:#dbcd00;stroke:#dbcd00;" x="168.964866" xlink:href="#mc6568c8290" y="479.794516"/>
     <use style="fill:#dbcd00;stroke:#dbcd00;" x="173.576436" xlink:href="#mc6568c8290" y="479.589043"/>
     <use style="fill:#dbcd00;stroke:#dbcd00;" x="178.188006" xlink:href="#mc6568c8290" y="478.150735"/>
     <use style="fill:#dbcd00;stroke:#dbcd00;" x="182.799576" xlink:href="#mc6568c8290" y="477.328845"/>
     <use style="fill:#dbcd00;stroke:#dbcd00;" x="187.411147" xlink:href="#mc6568c8290" y="476.712427"/>
     <use style="fill:#dbcd00;stroke:#dbcd00;" x="192.022717" xlink:href="#mc6568c8290" y="476.09601"/>
     <use style="fill:#dbcd00;stroke:#dbcd00;" x="196.634287" xlink:href="#mc6568c8290" y="475.890537"/>
     <use style="fill:#dbcd00;stroke:#dbcd00;" x="201.245857" xlink:href="#mc6568c8290" y="475.068647"/>
     <use style="fill:#dbcd00;stroke:#dbcd00;" x="205.857428" xlink:href="#mc6568c8290" y="474.657702"/>
     <use style="fill:#dbcd00;stroke:#dbcd00;" x="215.080568" xlink:href="#mc6568c8290" y="474.041284"/>
     <use style="fill:#dbcd00;stroke:#dbcd00;" x="219.692138" xlink:href="#mc6568c8290" y="465.205964"/>
     <use style="fill:#dbcd00;stroke:#dbcd00;" x="224.303709" xlink:href="#mc6568c8290" y="462.945766"/>
     <use style="fill:#dbcd00;stroke:#dbcd00;" x="228.915279" xlink:href="#mc6568c8290" y="461.096513"/>
     <use style="fill:#dbcd00;stroke:#dbcd00;" x="233.526849" xlink:href="#mc6568c8290" y="459.452733"/>
     <use style="fill:#dbcd00;stroke:#dbcd00;" x="242.74999" xlink:href="#mc6568c8290" y="456.165172"/>
     <use style="fill:#dbcd00;stroke:#dbcd00;" x="247.36156" xlink:href="#mc6568c8290" y="453.288556"/>
     <use style="fill:#dbcd00;stroke:#dbcd00;" x="251.97313" xlink:href="#mc6568c8290" y="450.822886"/>
     <use style="fill:#dbcd00;stroke:#dbcd00;" x="256.5847" xlink:href="#mc6568c8290" y="445.069654"/>
     <use style="fill:#dbcd00;stroke:#dbcd00;" x="261.196271" xlink:href="#mc6568c8290" y="444.453237"/>
     <use style="fill:#dbcd00;stroke:#dbcd00;" x="265.807841" xlink:href="#mc6568c8290" y="442.193038"/>
     <use style="fill:#dbcd00;stroke:#dbcd00;" x="275.030981" xlink:href="#mc6568c8290" y="441.782093"/>
     <use style="fill:#dbcd00;stroke:#dbcd00;" x="279.642552" xlink:href="#mc6568c8290" y="439.316423"/>
     <use style="fill:#dbcd00;stroke:#dbcd00;" x="284.254122" xlink:href="#mc6568c8290" y="438.28906"/>
     <use style="fill:#dbcd00;stroke:#dbcd00;" x="288.865692" xlink:href="#mc6568c8290" y="438.083587"/>
     <use style="fill:#dbcd00;stroke:#dbcd00;" x="298.088833" xlink:href="#mc6568c8290" y="436.645279"/>
     <use style="fill:#dbcd00;stroke:#dbcd00;" x="307.311973" xlink:href="#mc6568c8290" y="436.439807"/>
     <use style="fill:#dbcd00;stroke:#dbcd00;" x="311.923543" xlink:href="#mc6568c8290" y="434.179609"/>
     <use style="fill:#dbcd00;stroke:#dbcd00;" x="316.535114" xlink:href="#mc6568c8290" y="434.179609"/>
     <use style="fill:#dbcd00;stroke:#dbcd00;" x="321.146684" xlink:href="#mc6568c8290" y="432.535828"/>
     <use style="fill:#dbcd00;stroke:#dbcd00;" x="325.758254" xlink:href="#mc6568c8290" y="431.713938"/>
     <use style="fill:#dbcd00;stroke:#dbcd00;" x="330.369824" xlink:href="#mc6568c8290" y="427.399015"/>
     <use style="fill:#dbcd00;stroke:#dbcd00;" x="339.592965" xlink:href="#mc6568c8290" y="427.193542"/>
     <use style="fill:#dbcd00;stroke:#dbcd00;" x="344.204535" xlink:href="#mc6568c8290" y="427.193542"/>
     <use style="fill:#dbcd00;stroke:#dbcd00;" x="348.816105" xlink:href="#mc6568c8290" y="425.960707"/>
     <use style="fill:#dbcd00;stroke:#dbcd00;" x="353.427676" xlink:href="#mc6568c8290" y="425.755234"/>
     <use style="fill:#dbcd00;stroke:#dbcd00;" x="358.039246" xlink:href="#mc6568c8290" y="424.727871"/>
     <use style="fill:#dbcd00;stroke:#dbcd00;" x="362.650816" xlink:href="#mc6568c8290" y="424.727871"/>
     <use style="fill:#dbcd00;stroke:#dbcd00;" x="371.873957" xlink:href="#mc6568c8290" y="424.727871"/>
     <use style="fill:#dbcd00;stroke:#dbcd00;" x="376.485527" xlink:href="#mc6568c8290" y="418.563695"/>
     <use style="fill:#dbcd00;stroke:#dbcd00;" x="381.097097" xlink:href="#mc6568c8290" y="416.919914"/>
     <use style="fill:#dbcd00;stroke:#dbcd00;" x="390.320238" xlink:href="#mc6568c8290" y="416.919914"/>
     <use style="fill:#dbcd00;stroke:#dbcd00;" x="394.931808" xlink:href="#mc6568c8290" y="416.714442"/>
     <use style="fill:#dbcd00;stroke:#dbcd00;" x="404.154948" xlink:href="#mc6568c8290" y="416.714442"/>
     <use style="fill:#dbcd00;stroke:#dbcd00;" x="408.766519" xlink:href="#mc6568c8290" y="415.892552"/>
     <use style="fill:#dbcd00;stroke:#dbcd00;" x="417.989659" xlink:href="#mc6568c8290" y="413.221408"/>
     <use style="fill:#dbcd00;stroke:#dbcd00;" x="422.601229" xlink:href="#mc6568c8290" y="413.015936"/>
     <use style="fill:#dbcd00;stroke:#dbcd00;" x="441.04751" xlink:href="#mc6568c8290" y="412.604991"/>
     <use style="fill:#dbcd00;stroke:#dbcd00;" x="445.659081" xlink:href="#mc6568c8290" y="412.604991"/>
     <use style="fill:#dbcd00;stroke:#dbcd00;" x="450.270651" xlink:href="#mc6568c8290" y="412.194046"/>
     <use style="fill:#dbcd00;stroke:#dbcd00;" x="454.882221" xlink:href="#mc6568c8290" y="410.755738"/>
     <use style="fill:#dbcd00;stroke:#dbcd00;" x="459.493791" xlink:href="#mc6568c8290" y="409.933848"/>
     <use style="fill:#dbcd00;stroke:#dbcd00;" x="468.716932" xlink:href="#mc6568c8290" y="409.933848"/>
     <use style="fill:#dbcd00;stroke:#dbcd00;" x="473.328502" xlink:href="#mc6568c8290" y="409.31743"/>
     <use style="fill:#dbcd00;stroke:#dbcd00;" x="477.940072" xlink:href="#mc6568c8290" y="408.290067"/>
     <use style="fill:#dbcd00;stroke:#dbcd00;" x="487.163213" xlink:href="#mc6568c8290" y="408.290067"/>
     <use style="fill:#dbcd00;stroke:#dbcd00;" x="491.774783" xlink:href="#mc6568c8290" y="408.290067"/>
     <use style="fill:#dbcd00;stroke:#dbcd00;" x="500.997924" xlink:href="#mc6568c8290" y="408.290067"/>
     <use style="fill:#dbcd00;stroke:#dbcd00;" x="510.221064" xlink:href="#mc6568c8290" y="406.029869"/>
     <use style="fill:#dbcd00;stroke:#dbcd00;" x="519.444205" xlink:href="#mc6568c8290" y="403.975144"/>
     <use style="fill:#dbcd00;stroke:#dbcd00;" x="524.055775" xlink:href="#mc6568c8290" y="403.153253"/>
     <use style="fill:#dbcd00;stroke:#dbcd00;" x="533.278915" xlink:href="#mc6568c8290" y="403.153253"/>
     <use style="fill:#dbcd00;stroke:#dbcd00;" x="537.890486" xlink:href="#mc6568c8290" y="403.153253"/>
     <use style="fill:#dbcd00;stroke:#dbcd00;" x="542.502056" xlink:href="#mc6568c8290" y="400.687583"/>
     <use style="fill:#dbcd00;stroke:#dbcd00;" x="547.113626" xlink:href="#mc6568c8290" y="399.865692"/>
     <use style="fill:#dbcd00;stroke:#dbcd00;" x="556.336767" xlink:href="#mc6568c8290" y="399.249275"/>
     <use style="fill:#dbcd00;stroke:#dbcd00;" x="565.559907" xlink:href="#mc6568c8290" y="399.249275"/>
     <use style="fill:#dbcd00;stroke:#dbcd00;" x="570.171477" xlink:href="#mc6568c8290" y="396.578132"/>
     <use style="fill:#dbcd00;stroke:#dbcd00;" x="574.783048" xlink:href="#mc6568c8290" y="395.756241"/>
     <use style="fill:#dbcd00;stroke:#dbcd00;" x="579.394618" xlink:href="#mc6568c8290" y="394.317934"/>
     <use style="fill:#dbcd00;stroke:#dbcd00;" x="584.006188" xlink:href="#mc6568c8290" y="392.263208"/>
     <use style="fill:#dbcd00;stroke:#dbcd00;" x="588.617758" xlink:href="#mc6568c8290" y="391.64679"/>
     <use style="fill:#dbcd00;stroke:#dbcd00;" x="602.452469" xlink:href="#mc6568c8290" y="389.797537"/>
     <use style="fill:#dbcd00;stroke:#dbcd00;" x="607.064039" xlink:href="#mc6568c8290" y="388.975647"/>
     <use style="fill:#dbcd00;stroke:#dbcd00;" x="611.67561" xlink:href="#mc6568c8290" y="386.920922"/>
     <use style="fill:#dbcd00;stroke:#dbcd00;" x="616.28718" xlink:href="#mc6568c8290" y="386.509976"/>
     <use style="fill:#dbcd00;stroke:#dbcd00;" x="630.12189" xlink:href="#mc6568c8290" y="385.893559"/>
     <use style="fill:#dbcd00;stroke:#dbcd00;" x="634.733461" xlink:href="#mc6568c8290" y="384.866196"/>
     <use style="fill:#dbcd00;stroke:#dbcd00;" x="639.345031" xlink:href="#mc6568c8290" y="383.016943"/>
     <use style="fill:#dbcd00;stroke:#dbcd00;" x="643.956601" xlink:href="#mc6568c8290" y="381.98958"/>
     <use style="fill:#dbcd00;stroke:#dbcd00;" x="648.568171" xlink:href="#mc6568c8290" y="381.98958"/>
     <use style="fill:#dbcd00;stroke:#dbcd00;" x="662.402882" xlink:href="#mc6568c8290" y="380.962218"/>
     <use style="fill:#dbcd00;stroke:#dbcd00;" x="667.014452" xlink:href="#mc6568c8290" y="380.756745"/>
     <use style="fill:#dbcd00;stroke:#dbcd00;" x="671.626023" xlink:href="#mc6568c8290" y="379.318437"/>
     <use style="fill:#dbcd00;stroke:#dbcd00;" x="676.237593" xlink:href="#mc6568c8290" y="377.674657"/>
     <use style="fill:#dbcd00;stroke:#dbcd00;" x="680.849163" xlink:href="#mc6568c8290" y="376.647294"/>
     <use style="fill:#dbcd00;stroke:#dbcd00;" x="694.683874" xlink:href="#mc6568c8290" y="376.441821"/>
     <use style="fill:#dbcd00;stroke:#dbcd00;" x="699.295444" xlink:href="#mc6568c8290" y="375.414459"/>
     <use style="fill:#dbcd00;stroke:#dbcd00;" x="703.907014" xlink:href="#mc6568c8290" y="373.976151"/>
     <use style="fill:#dbcd00;stroke:#dbcd00;" x="708.518585" xlink:href="#mc6568c8290" y="371.921425"/>
     <use style="fill:#dbcd00;stroke:#dbcd00;" x="713.130155" xlink:href="#mc6568c8290" y="355.894566"/>
     <use style="fill:#dbcd00;stroke:#dbcd00;" x="726.964866" xlink:href="#mc6568c8290" y="371.305008"/>
     <use style="fill:#dbcd00;stroke:#dbcd00;" x="731.576436" xlink:href="#mc6568c8290" y="371.305008"/>
     <use style="fill:#dbcd00;stroke:#dbcd00;" x="736.188006" xlink:href="#mc6568c8290" y="368.428392"/>
     <use style="fill:#dbcd00;stroke:#dbcd00;" x="740.799576" xlink:href="#mc6568c8290" y="367.401029"/>
     <use style="fill:#dbcd00;stroke:#dbcd00;" x="745.411147" xlink:href="#mc6568c8290" y="367.195556"/>
     <use style="fill:#dbcd00;stroke:#dbcd00;" x="759.245857" xlink:href="#mc6568c8290" y="367.195556"/>
     <use style="fill:#dbcd00;stroke:#dbcd00;" x="763.857428" xlink:href="#mc6568c8290" y="367.195556"/>
     <use style="fill:#dbcd00;stroke:#dbcd00;" x="768.468998" xlink:href="#mc6568c8290" y="360.004017"/>
     <use style="fill:#dbcd00;stroke:#dbcd00;" x="773.080568" xlink:href="#mc6568c8290" y="358.154764"/>
     <use style="fill:#dbcd00;stroke:#dbcd00;" x="777.692138" xlink:href="#mc6568c8290" y="358.154764"/>
     <use style="fill:#dbcd00;stroke:#dbcd00;" x="791.526849" xlink:href="#mc6568c8290" y="358.154764"/>
     <use style="fill:#dbcd00;stroke:#dbcd00;" x="796.138419" xlink:href="#mc6568c8290" y="355.689093"/>
     <use style="fill:#dbcd00;stroke:#dbcd00;" x="800.74999" xlink:href="#mc6568c8290" y="355.072676"/>
     <use style="fill:#dbcd00;stroke:#dbcd00;" x="805.36156" xlink:href="#mc6568c8290" y="354.045313"/>
     <use style="fill:#dbcd00;stroke:#dbcd00;" x="809.97313" xlink:href="#mc6568c8290" y="349.524917"/>
     <use style="fill:#dbcd00;stroke:#dbcd00;" x="823.807841" xlink:href="#mc6568c8290" y="349.113972"/>
     <use style="fill:#dbcd00;stroke:#dbcd00;" x="828.419411" xlink:href="#mc6568c8290" y="348.908499"/>
     <use style="fill:#dbcd00;stroke:#dbcd00;" x="833.030981" xlink:href="#mc6568c8290" y="340.073179"/>
     <use style="fill:#dbcd00;stroke:#dbcd00;" x="837.642552" xlink:href="#mc6568c8290" y="338.634872"/>
     <use style="fill:#dbcd00;stroke:#dbcd00;" x="842.254122" xlink:href="#mc6568c8290" y="338.429399"/>
     <use style="fill:#dbcd00;stroke:#dbcd00;" x="856.088833" xlink:href="#mc6568c8290" y="335.963728"/>
     <use style="fill:#dbcd00;stroke:#dbcd00;" x="860.700403" xlink:href="#mc6568c8290" y="335.347311"/>
     <use style="fill:#dbcd00;stroke:#dbcd00;" x="865.311973" xlink:href="#mc6568c8290" y="331.032387"/>
     <use style="fill:#dbcd00;stroke:#dbcd00;" x="869.923543" xlink:href="#mc6568c8290" y="329.799552"/>
     <use style="fill:#dbcd00;stroke:#dbcd00;" x="874.535114" xlink:href="#mc6568c8290" y="327.950299"/>
     <use style="fill:#dbcd00;stroke:#dbcd00;" x="888.369824" xlink:href="#mc6568c8290" y="327.128409"/>
     <use style="fill:#dbcd00;stroke:#dbcd00;" x="892.981395" xlink:href="#mc6568c8290" y="324.251793"/>
     <use style="fill:#dbcd00;stroke:#dbcd00;" x="897.592965" xlink:href="#mc6568c8290" y="323.635375"/>
     <use style="fill:#dbcd00;stroke:#dbcd00;" x="902.204535" xlink:href="#mc6568c8290" y="323.635375"/>
     <use style="fill:#dbcd00;stroke:#dbcd00;" x="906.816105" xlink:href="#mc6568c8290" y="320.553287"/>
     <use style="fill:#dbcd00;stroke:#dbcd00;" x="920.650816" xlink:href="#mc6568c8290" y="318.087616"/>
     <use style="fill:#dbcd00;stroke:#dbcd00;" x="925.262386" xlink:href="#mc6568c8290" y="318.087616"/>
     <use style="fill:#dbcd00;stroke:#dbcd00;" x="929.873957" xlink:href="#mc6568c8290" y="317.265726"/>
     <use style="fill:#dbcd00;stroke:#dbcd00;" x="934.485527" xlink:href="#mc6568c8290" y="317.060253"/>
     <use style="fill:#dbcd00;stroke:#dbcd00;" x="939.097097" xlink:href="#mc6568c8290" y="315.211"/>
     <use style="fill:#dbcd00;stroke:#dbcd00;" x="952.931808" xlink:href="#mc6568c8290" y="315.211"/>
     <use style="fill:#dbcd00;stroke:#dbcd00;" x="957.543378" xlink:href="#mc6568c8290" y="313.978165"/>
     <use style="fill:#dbcd00;stroke:#dbcd00;" x="962.154948" xlink:href="#mc6568c8290" y="311.307022"/>
     <use style="fill:#dbcd00;stroke:#dbcd00;" x="966.766519" xlink:href="#mc6568c8290" y="310.485132"/>
     <use style="fill:#dbcd00;stroke:#dbcd00;" x="971.378089" xlink:href="#mc6568c8290" y="309.046824"/>
     <use style="fill:#dbcd00;stroke:#dbcd00;" x="985.2128" xlink:href="#mc6568c8290" y="306.581153"/>
     <use style="fill:#dbcd00;stroke:#dbcd00;" x="989.82437" xlink:href="#mc6568c8290" y="303.704538"/>
     <use style="fill:#dbcd00;stroke:#dbcd00;" x="994.43594" xlink:href="#mc6568c8290" y="301.444339"/>
     <use style="fill:#dbcd00;stroke:#dbcd00;" x="999.04751" xlink:href="#mc6568c8290" y="297.334888"/>
     <use style="fill:#dbcd00;stroke:#dbcd00;" x="1003.659081" xlink:href="#mc6568c8290" y="296.512998"/>
     <use style="fill:#dbcd00;stroke:#dbcd00;" x="1017.493791" xlink:href="#mc6568c8290" y="294.869218"/>
     <use style="fill:#dbcd00;stroke:#dbcd00;" x="1022.105362" xlink:href="#mc6568c8290" y="283.7737"/>
     <use style="fill:#dbcd00;stroke:#dbcd00;" x="1026.716932" xlink:href="#mc6568c8290" y="283.362755"/>
     <use style="fill:#dbcd00;stroke:#dbcd00;" x="1031.328502" xlink:href="#mc6568c8290" y="276.171215"/>
     <use style="fill:#dbcd00;stroke:#dbcd00;" x="1035.940072" xlink:href="#mc6568c8290" y="274.93838"/>
     <use style="fill:#dbcd00;stroke:#dbcd00;" x="1049.774783" xlink:href="#mc6568c8290" y="274.321962"/>
     <use style="fill:#dbcd00;stroke:#dbcd00;" x="1054.386353" xlink:href="#mc6568c8290" y="273.911017"/>
     <use style="fill:#dbcd00;stroke:#dbcd00;" x="1086.667345" xlink:href="#mc6568c8290" y="258.295103"/>
     <use style="fill:#dbcd00;stroke:#dbcd00;" x="1091.278915" xlink:href="#mc6568c8290" y="254.391125"/>
     <use style="fill:#dbcd00;stroke:#dbcd00;" x="1095.890486" xlink:href="#mc6568c8290" y="253.774707"/>
     <use style="fill:#dbcd00;stroke:#dbcd00;" x="1100.502056" xlink:href="#mc6568c8290" y="243.295607"/>
     <use style="fill:#dbcd00;stroke:#dbcd00;" x="1114.336767" xlink:href="#mc6568c8290" y="240.418991"/>
     <use style="fill:#dbcd00;stroke:#dbcd00;" x="1118.948337" xlink:href="#mc6568c8290" y="229.323473"/>
     <use style="fill:#dbcd00;stroke:#dbcd00;" x="1123.559907" xlink:href="#mc6568c8290" y="223.981187"/>
     <use style="fill:#dbcd00;stroke:#dbcd00;" x="1128.171477" xlink:href="#mc6568c8290" y="217.81701"/>
    </g>
   </g>
   <g id="line2d_58">
    <path clip-path="url(#p1798ec7c9a)" d="M 113.626023 474.863174 
L 122.849163 472.808449 
L 127.460733 473.219394 
L 132.072304 469.520888 
L 136.683874 467.877108 
L 141.295444 466.644272 
L 145.907014 465.000492 
L 150.518585 464.795019 
L 155.130155 462.534821 
L 159.741725 460.069151 
L 164.353295 456.987062 
L 168.964866 455.137809 
L 173.576436 452.261194 
L 178.188006 452.261194 
L 182.799576 449.795523 
L 187.411147 450.000995 
L 192.022717 447.740797 
L 196.634287 447.535325 
L 201.245857 446.302489 
L 205.857428 446.713435 
L 215.080568 444.864182 
L 219.692138 453.494029 
L 224.303709 455.343282 
L 228.915279 455.754227 
L 233.526849 455.754227 
L 242.74999 464.384074 
L 247.36156 466.849745 
L 251.97313 463.151239 
L 256.5847 467.671635 
L 261.196271 468.288053 
L 265.807841 470.548251 
L 275.030981 470.959196 
L 279.642552 465.000492 
L 284.254122 464.589547 
L 288.865692 464.384074 
L 298.088833 465.411437 
L 307.311973 465.000492 
L 311.923543 467.26069 
L 316.535114 466.644272 
L 321.146684 467.877108 
L 325.758254 467.466162 
L 330.369824 471.164668 
L 339.592965 471.370141 
L 344.204535 470.959196 
L 348.816105 472.192031 
L 353.427676 472.397504 
L 358.039246 472.192031 
L 362.650816 471.370141 
L 371.873957 471.370141 
L 376.485527 474.246757 
L 381.097097 475.890537 
L 390.320238 475.479592 
L 394.931808 474.657702 
L 404.154948 474.657702 
L 408.766519 475.27412 
L 417.989659 476.9179 
L 422.601229 476.301482 
L 441.04751 475.890537 
L 445.659081 474.863174 
L 454.882221 474.863174 
L 459.493791 474.041284 
L 468.716932 474.041284 
L 473.328502 474.657702 
L 477.940072 473.424867 
L 487.163213 473.424867 
L 491.774783 473.630339 
L 500.997924 473.630339 
L 510.221064 474.657702 
L 519.444205 474.452229 
L 524.055775 472.397504 
L 533.278915 472.397504 
L 537.890486 470.548251 
L 542.502056 471.575614 
L 547.113626 471.781086 
L 556.336767 469.931833 
L 565.559907 469.931833 
L 570.171477 471.575614 
L 574.783048 472.602976 
L 579.394618 474.041284 
L 584.006188 472.602976 
L 588.617758 473.013921 
L 602.452469 473.630339 
L 607.064039 473.630339 
L 611.67561 474.246757 
L 616.28718 473.835812 
L 630.12189 473.424867 
L 634.733461 472.192031 
L 639.345031 473.424867 
L 643.956601 473.630339 
L 648.568171 473.424867 
L 662.402882 471.781086 
L 680.849163 472.602976 
L 694.683874 470.548251 
L 699.295444 470.342778 
L 703.907014 470.342778 
L 708.518585 472.192031 
L 713.130155 488.21889 
L 726.964866 471.164668 
L 731.576436 469.520888 
L 736.188006 470.753723 
L 740.799576 471.575614 
L 745.411147 470.342778 
L 759.245857 468.08258 
L 763.857428 466.644272 
L 768.468998 470.753723 
L 773.080568 469.931833 
L 777.692138 468.288053 
L 791.526849 467.466162 
L 796.138419 466.644272 
L 800.74999 465.61691 
L 805.36156 463.356711 
L 809.97313 466.233327 
L 823.807841 464.589547 
L 828.419411 464.384074 
L 833.030981 470.548251 
L 837.642552 470.342778 
L 842.254122 469.931833 
L 856.088833 469.520888 
L 860.700403 468.08258 
L 865.311973 461.096513 
L 869.923543 472.397504 
L 874.535114 472.808449 
L 888.369824 473.219394 
L 892.981395 474.041284 
L 897.592965 473.835812 
L 902.204535 472.602976 
L 906.816105 475.479592 
L 920.650816 475.479592 
L 925.262386 472.808449 
L 929.873957 468.493525 
L 934.485527 468.698998 
L 939.097097 464.384074 
L 952.931808 453.494029 
L 957.543378 448.973633 
L 962.154948 448.357215 
L 966.766519 444.453237 
L 971.378089 442.193038 
L 985.2128 438.905478 
L 989.82437 436.234334 
L 994.43594 435.206972 
L 999.04751 435.206972 
L 1003.659081 433.357719 
L 1017.493791 430.070158 
L 1022.105362 434.179609 
L 1026.716932 428.63185 
L 1031.328502 430.481103 
L 1035.940072 426.371652 
L 1049.774783 422.262201 
L 1054.386353 411.372155 
L 1086.667345 369.250282 
L 1091.278915 361.236852 
L 1095.890486 348.086609 
L 1100.502056 341.306015 
L 1114.336767 329.594079 
L 1118.948337 315.621946 
L 1123.559907 299.184141 
L 1128.171477 292.198075 
L 1128.171477 292.198075 
" style="fill:none;stroke:#2792cb;stroke-linecap:square;stroke-width:2;"/>
    <defs>
     <path d="M 0 1.5 
C 0.397805 1.5 0.77937 1.341951 1.06066 1.06066 
C 1.341951 0.77937 1.5 0.397805 1.5 0 
C 1.5 -0.397805 1.341951 -0.77937 1.06066 -1.06066 
C 0.77937 -1.341951 0.397805 -1.5 0 -1.5 
C -0.397805 -1.5 -0.77937 -1.341951 -1.06066 -1.06066 
C -1.341951 -0.77937 -1.5 -0.397805 -1.5 0 
C -1.5 0.397805 -1.341951 0.77937 -1.06066 1.06066 
C -0.77937 1.341951 -0.397805 1.5 0 1.5 
z
" id="m15a89d83e7" style="stroke:#2792cb;"/>
    </defs>
    <g clip-path="url(#p1798ec7c9a)">
     <use style="fill:#2792cb;stroke:#2792cb;" x="113.626023" xlink:href="#m15a89d83e7" y="474.863174"/>
     <use style="fill:#2792cb;stroke:#2792cb;" x="118.237593" xlink:href="#m15a89d83e7" y="473.835812"/>
     <use style="fill:#2792cb;stroke:#2792cb;" x="122.849163" xlink:href="#m15a89d83e7" y="472.808449"/>
     <use style="fill:#2792cb;stroke:#2792cb;" x="127.460733" xlink:href="#m15a89d83e7" y="473.219394"/>
     <use style="fill:#2792cb;stroke:#2792cb;" x="132.072304" xlink:href="#m15a89d83e7" y="469.520888"/>
     <use style="fill:#2792cb;stroke:#2792cb;" x="136.683874" xlink:href="#m15a89d83e7" y="467.877108"/>
     <use style="fill:#2792cb;stroke:#2792cb;" x="141.295444" xlink:href="#m15a89d83e7" y="466.644272"/>
     <use style="fill:#2792cb;stroke:#2792cb;" x="145.907014" xlink:href="#m15a89d83e7" y="465.000492"/>
     <use style="fill:#2792cb;stroke:#2792cb;" x="150.518585" xlink:href="#m15a89d83e7" y="464.795019"/>
     <use style="fill:#2792cb;stroke:#2792cb;" x="155.130155" xlink:href="#m15a89d83e7" y="462.534821"/>
     <use style="fill:#2792cb;stroke:#2792cb;" x="159.741725" xlink:href="#m15a89d83e7" y="460.069151"/>
     <use style="fill:#2792cb;stroke:#2792cb;" x="164.353295" xlink:href="#m15a89d83e7" y="456.987062"/>
     <use style="fill:#2792cb;stroke:#2792cb;" x="168.964866" xlink:href="#m15a89d83e7" y="455.137809"/>
     <use style="fill:#2792cb;stroke:#2792cb;" x="173.576436" xlink:href="#m15a89d83e7" y="452.261194"/>
     <use style="fill:#2792cb;stroke:#2792cb;" x="178.188006" xlink:href="#m15a89d83e7" y="452.261194"/>
     <use style="fill:#2792cb;stroke:#2792cb;" x="182.799576" xlink:href="#m15a89d83e7" y="449.795523"/>
     <use style="fill:#2792cb;stroke:#2792cb;" x="187.411147" xlink:href="#m15a89d83e7" y="450.000995"/>
     <use style="fill:#2792cb;stroke:#2792cb;" x="192.022717" xlink:href="#m15a89d83e7" y="447.740797"/>
     <use style="fill:#2792cb;stroke:#2792cb;" x="196.634287" xlink:href="#m15a89d83e7" y="447.535325"/>
     <use style="fill:#2792cb;stroke:#2792cb;" x="201.245857" xlink:href="#m15a89d83e7" y="446.302489"/>
     <use style="fill:#2792cb;stroke:#2792cb;" x="205.857428" xlink:href="#m15a89d83e7" y="446.713435"/>
     <use style="fill:#2792cb;stroke:#2792cb;" x="215.080568" xlink:href="#m15a89d83e7" y="444.864182"/>
     <use style="fill:#2792cb;stroke:#2792cb;" x="219.692138" xlink:href="#m15a89d83e7" y="453.494029"/>
     <use style="fill:#2792cb;stroke:#2792cb;" x="224.303709" xlink:href="#m15a89d83e7" y="455.343282"/>
     <use style="fill:#2792cb;stroke:#2792cb;" x="228.915279" xlink:href="#m15a89d83e7" y="455.754227"/>
     <use style="fill:#2792cb;stroke:#2792cb;" x="233.526849" xlink:href="#m15a89d83e7" y="455.754227"/>
     <use style="fill:#2792cb;stroke:#2792cb;" x="242.74999" xlink:href="#m15a89d83e7" y="464.384074"/>
     <use style="fill:#2792cb;stroke:#2792cb;" x="247.36156" xlink:href="#m15a89d83e7" y="466.849745"/>
     <use style="fill:#2792cb;stroke:#2792cb;" x="251.97313" xlink:href="#m15a89d83e7" y="463.151239"/>
     <use style="fill:#2792cb;stroke:#2792cb;" x="256.5847" xlink:href="#m15a89d83e7" y="467.671635"/>
     <use style="fill:#2792cb;stroke:#2792cb;" x="261.196271" xlink:href="#m15a89d83e7" y="468.288053"/>
     <use style="fill:#2792cb;stroke:#2792cb;" x="265.807841" xlink:href="#m15a89d83e7" y="470.548251"/>
     <use style="fill:#2792cb;stroke:#2792cb;" x="275.030981" xlink:href="#m15a89d83e7" y="470.959196"/>
     <use style="fill:#2792cb;stroke:#2792cb;" x="279.642552" xlink:href="#m15a89d83e7" y="465.000492"/>
     <use style="fill:#2792cb;stroke:#2792cb;" x="284.254122" xlink:href="#m15a89d83e7" y="464.589547"/>
     <use style="fill:#2792cb;stroke:#2792cb;" x="288.865692" xlink:href="#m15a89d83e7" y="464.384074"/>
     <use style="fill:#2792cb;stroke:#2792cb;" x="298.088833" xlink:href="#m15a89d83e7" y="465.411437"/>
     <use style="fill:#2792cb;stroke:#2792cb;" x="307.311973" xlink:href="#m15a89d83e7" y="465.000492"/>
     <use style="fill:#2792cb;stroke:#2792cb;" x="311.923543" xlink:href="#m15a89d83e7" y="467.26069"/>
     <use style="fill:#2792cb;stroke:#2792cb;" x="316.535114" xlink:href="#m15a89d83e7" y="466.644272"/>
     <use style="fill:#2792cb;stroke:#2792cb;" x="321.146684" xlink:href="#m15a89d83e7" y="467.877108"/>
     <use style="fill:#2792cb;stroke:#2792cb;" x="325.758254" xlink:href="#m15a89d83e7" y="467.466162"/>
     <use style="fill:#2792cb;stroke:#2792cb;" x="330.369824" xlink:href="#m15a89d83e7" y="471.164668"/>
     <use style="fill:#2792cb;stroke:#2792cb;" x="339.592965" xlink:href="#m15a89d83e7" y="471.370141"/>
     <use style="fill:#2792cb;stroke:#2792cb;" x="344.204535" xlink:href="#m15a89d83e7" y="470.959196"/>
     <use style="fill:#2792cb;stroke:#2792cb;" x="348.816105" xlink:href="#m15a89d83e7" y="472.192031"/>
     <use style="fill:#2792cb;stroke:#2792cb;" x="353.427676" xlink:href="#m15a89d83e7" y="472.397504"/>
     <use style="fill:#2792cb;stroke:#2792cb;" x="358.039246" xlink:href="#m15a89d83e7" y="472.192031"/>
     <use style="fill:#2792cb;stroke:#2792cb;" x="362.650816" xlink:href="#m15a89d83e7" y="471.370141"/>
     <use style="fill:#2792cb;stroke:#2792cb;" x="371.873957" xlink:href="#m15a89d83e7" y="471.370141"/>
     <use style="fill:#2792cb;stroke:#2792cb;" x="376.485527" xlink:href="#m15a89d83e7" y="474.246757"/>
     <use style="fill:#2792cb;stroke:#2792cb;" x="381.097097" xlink:href="#m15a89d83e7" y="475.890537"/>
     <use style="fill:#2792cb;stroke:#2792cb;" x="390.320238" xlink:href="#m15a89d83e7" y="475.479592"/>
     <use style="fill:#2792cb;stroke:#2792cb;" x="394.931808" xlink:href="#m15a89d83e7" y="474.657702"/>
     <use style="fill:#2792cb;stroke:#2792cb;" x="404.154948" xlink:href="#m15a89d83e7" y="474.657702"/>
     <use style="fill:#2792cb;stroke:#2792cb;" x="408.766519" xlink:href="#m15a89d83e7" y="475.27412"/>
     <use style="fill:#2792cb;stroke:#2792cb;" x="417.989659" xlink:href="#m15a89d83e7" y="476.9179"/>
     <use style="fill:#2792cb;stroke:#2792cb;" x="422.601229" xlink:href="#m15a89d83e7" y="476.301482"/>
     <use style="fill:#2792cb;stroke:#2792cb;" x="441.04751" xlink:href="#m15a89d83e7" y="475.890537"/>
     <use style="fill:#2792cb;stroke:#2792cb;" x="445.659081" xlink:href="#m15a89d83e7" y="474.863174"/>
     <use style="fill:#2792cb;stroke:#2792cb;" x="450.270651" xlink:href="#m15a89d83e7" y="474.863174"/>
     <use style="fill:#2792cb;stroke:#2792cb;" x="454.882221" xlink:href="#m15a89d83e7" y="474.863174"/>
     <use style="fill:#2792cb;stroke:#2792cb;" x="459.493791" xlink:href="#m15a89d83e7" y="474.041284"/>
     <use style="fill:#2792cb;stroke:#2792cb;" x="468.716932" xlink:href="#m15a89d83e7" y="474.041284"/>
     <use style="fill:#2792cb;stroke:#2792cb;" x="473.328502" xlink:href="#m15a89d83e7" y="474.657702"/>
     <use style="fill:#2792cb;stroke:#2792cb;" x="477.940072" xlink:href="#m15a89d83e7" y="473.424867"/>
     <use style="fill:#2792cb;stroke:#2792cb;" x="487.163213" xlink:href="#m15a89d83e7" y="473.424867"/>
     <use style="fill:#2792cb;stroke:#2792cb;" x="491.774783" xlink:href="#m15a89d83e7" y="473.630339"/>
     <use style="fill:#2792cb;stroke:#2792cb;" x="500.997924" xlink:href="#m15a89d83e7" y="473.630339"/>
     <use style="fill:#2792cb;stroke:#2792cb;" x="510.221064" xlink:href="#m15a89d83e7" y="474.657702"/>
     <use style="fill:#2792cb;stroke:#2792cb;" x="519.444205" xlink:href="#m15a89d83e7" y="474.452229"/>
     <use style="fill:#2792cb;stroke:#2792cb;" x="524.055775" xlink:href="#m15a89d83e7" y="472.397504"/>
     <use style="fill:#2792cb;stroke:#2792cb;" x="533.278915" xlink:href="#m15a89d83e7" y="472.397504"/>
     <use style="fill:#2792cb;stroke:#2792cb;" x="537.890486" xlink:href="#m15a89d83e7" y="470.548251"/>
     <use style="fill:#2792cb;stroke:#2792cb;" x="542.502056" xlink:href="#m15a89d83e7" y="471.575614"/>
     <use style="fill:#2792cb;stroke:#2792cb;" x="547.113626" xlink:href="#m15a89d83e7" y="471.781086"/>
     <use style="fill:#2792cb;stroke:#2792cb;" x="556.336767" xlink:href="#m15a89d83e7" y="469.931833"/>
     <use style="fill:#2792cb;stroke:#2792cb;" x="565.559907" xlink:href="#m15a89d83e7" y="469.931833"/>
     <use style="fill:#2792cb;stroke:#2792cb;" x="570.171477" xlink:href="#m15a89d83e7" y="471.575614"/>
     <use style="fill:#2792cb;stroke:#2792cb;" x="574.783048" xlink:href="#m15a89d83e7" y="472.602976"/>
     <use style="fill:#2792cb;stroke:#2792cb;" x="579.394618" xlink:href="#m15a89d83e7" y="474.041284"/>
     <use style="fill:#2792cb;stroke:#2792cb;" x="584.006188" xlink:href="#m15a89d83e7" y="472.602976"/>
     <use style="fill:#2792cb;stroke:#2792cb;" x="588.617758" xlink:href="#m15a89d83e7" y="473.013921"/>
     <use style="fill:#2792cb;stroke:#2792cb;" x="602.452469" xlink:href="#m15a89d83e7" y="473.630339"/>
     <use style="fill:#2792cb;stroke:#2792cb;" x="607.064039" xlink:href="#m15a89d83e7" y="473.630339"/>
     <use style="fill:#2792cb;stroke:#2792cb;" x="611.67561" xlink:href="#m15a89d83e7" y="474.246757"/>
     <use style="fill:#2792cb;stroke:#2792cb;" x="616.28718" xlink:href="#m15a89d83e7" y="473.835812"/>
     <use style="fill:#2792cb;stroke:#2792cb;" x="630.12189" xlink:href="#m15a89d83e7" y="473.424867"/>
     <use style="fill:#2792cb;stroke:#2792cb;" x="634.733461" xlink:href="#m15a89d83e7" y="472.192031"/>
     <use style="fill:#2792cb;stroke:#2792cb;" x="639.345031" xlink:href="#m15a89d83e7" y="473.424867"/>
     <use style="fill:#2792cb;stroke:#2792cb;" x="643.956601" xlink:href="#m15a89d83e7" y="473.630339"/>
     <use style="fill:#2792cb;stroke:#2792cb;" x="648.568171" xlink:href="#m15a89d83e7" y="473.424867"/>
     <use style="fill:#2792cb;stroke:#2792cb;" x="662.402882" xlink:href="#m15a89d83e7" y="471.781086"/>
     <use style="fill:#2792cb;stroke:#2792cb;" x="667.014452" xlink:href="#m15a89d83e7" y="471.986559"/>
     <use style="fill:#2792cb;stroke:#2792cb;" x="671.626023" xlink:href="#m15a89d83e7" y="472.192031"/>
     <use style="fill:#2792cb;stroke:#2792cb;" x="676.237593" xlink:href="#m15a89d83e7" y="472.397504"/>
     <use style="fill:#2792cb;stroke:#2792cb;" x="680.849163" xlink:href="#m15a89d83e7" y="472.602976"/>
     <use style="fill:#2792cb;stroke:#2792cb;" x="694.683874" xlink:href="#m15a89d83e7" y="470.548251"/>
     <use style="fill:#2792cb;stroke:#2792cb;" x="699.295444" xlink:href="#m15a89d83e7" y="470.342778"/>
     <use style="fill:#2792cb;stroke:#2792cb;" x="703.907014" xlink:href="#m15a89d83e7" y="470.342778"/>
     <use style="fill:#2792cb;stroke:#2792cb;" x="708.518585" xlink:href="#m15a89d83e7" y="472.192031"/>
     <use style="fill:#2792cb;stroke:#2792cb;" x="713.130155" xlink:href="#m15a89d83e7" y="488.21889"/>
     <use style="fill:#2792cb;stroke:#2792cb;" x="726.964866" xlink:href="#m15a89d83e7" y="471.164668"/>
     <use style="fill:#2792cb;stroke:#2792cb;" x="731.576436" xlink:href="#m15a89d83e7" y="469.520888"/>
     <use style="fill:#2792cb;stroke:#2792cb;" x="736.188006" xlink:href="#m15a89d83e7" y="470.753723"/>
     <use style="fill:#2792cb;stroke:#2792cb;" x="740.799576" xlink:href="#m15a89d83e7" y="471.575614"/>
     <use style="fill:#2792cb;stroke:#2792cb;" x="745.411147" xlink:href="#m15a89d83e7" y="470.342778"/>
     <use style="fill:#2792cb;stroke:#2792cb;" x="759.245857" xlink:href="#m15a89d83e7" y="468.08258"/>
     <use style="fill:#2792cb;stroke:#2792cb;" x="763.857428" xlink:href="#m15a89d83e7" y="466.644272"/>
     <use style="fill:#2792cb;stroke:#2792cb;" x="768.468998" xlink:href="#m15a89d83e7" y="470.753723"/>
     <use style="fill:#2792cb;stroke:#2792cb;" x="773.080568" xlink:href="#m15a89d83e7" y="469.931833"/>
     <use style="fill:#2792cb;stroke:#2792cb;" x="777.692138" xlink:href="#m15a89d83e7" y="468.288053"/>
     <use style="fill:#2792cb;stroke:#2792cb;" x="791.526849" xlink:href="#m15a89d83e7" y="467.466162"/>
     <use style="fill:#2792cb;stroke:#2792cb;" x="796.138419" xlink:href="#m15a89d83e7" y="466.644272"/>
     <use style="fill:#2792cb;stroke:#2792cb;" x="800.74999" xlink:href="#m15a89d83e7" y="465.61691"/>
     <use style="fill:#2792cb;stroke:#2792cb;" x="805.36156" xlink:href="#m15a89d83e7" y="463.356711"/>
     <use style="fill:#2792cb;stroke:#2792cb;" x="809.97313" xlink:href="#m15a89d83e7" y="466.233327"/>
     <use style="fill:#2792cb;stroke:#2792cb;" x="823.807841" xlink:href="#m15a89d83e7" y="464.589547"/>
     <use style="fill:#2792cb;stroke:#2792cb;" x="828.419411" xlink:href="#m15a89d83e7" y="464.384074"/>
     <use style="fill:#2792cb;stroke:#2792cb;" x="833.030981" xlink:href="#m15a89d83e7" y="470.548251"/>
     <use style="fill:#2792cb;stroke:#2792cb;" x="837.642552" xlink:href="#m15a89d83e7" y="470.342778"/>
     <use style="fill:#2792cb;stroke:#2792cb;" x="842.254122" xlink:href="#m15a89d83e7" y="469.931833"/>
     <use style="fill:#2792cb;stroke:#2792cb;" x="856.088833" xlink:href="#m15a89d83e7" y="469.520888"/>
     <use style="fill:#2792cb;stroke:#2792cb;" x="860.700403" xlink:href="#m15a89d83e7" y="468.08258"/>
     <use style="fill:#2792cb;stroke:#2792cb;" x="865.311973" xlink:href="#m15a89d83e7" y="461.096513"/>
     <use style="fill:#2792cb;stroke:#2792cb;" x="869.923543" xlink:href="#m15a89d83e7" y="472.397504"/>
     <use style="fill:#2792cb;stroke:#2792cb;" x="874.535114" xlink:href="#m15a89d83e7" y="472.808449"/>
     <use style="fill:#2792cb;stroke:#2792cb;" x="888.369824" xlink:href="#m15a89d83e7" y="473.219394"/>
     <use style="fill:#2792cb;stroke:#2792cb;" x="892.981395" xlink:href="#m15a89d83e7" y="474.041284"/>
     <use style="fill:#2792cb;stroke:#2792cb;" x="897.592965" xlink:href="#m15a89d83e7" y="473.835812"/>
     <use style="fill:#2792cb;stroke:#2792cb;" x="902.204535" xlink:href="#m15a89d83e7" y="472.602976"/>
     <use style="fill:#2792cb;stroke:#2792cb;" x="906.816105" xlink:href="#m15a89d83e7" y="475.479592"/>
     <use style="fill:#2792cb;stroke:#2792cb;" x="920.650816" xlink:href="#m15a89d83e7" y="475.479592"/>
     <use style="fill:#2792cb;stroke:#2792cb;" x="925.262386" xlink:href="#m15a89d83e7" y="472.808449"/>
     <use style="fill:#2792cb;stroke:#2792cb;" x="929.873957" xlink:href="#m15a89d83e7" y="468.493525"/>
     <use style="fill:#2792cb;stroke:#2792cb;" x="934.485527" xlink:href="#m15a89d83e7" y="468.698998"/>
     <use style="fill:#2792cb;stroke:#2792cb;" x="939.097097" xlink:href="#m15a89d83e7" y="464.384074"/>
     <use style="fill:#2792cb;stroke:#2792cb;" x="952.931808" xlink:href="#m15a89d83e7" y="453.494029"/>
     <use style="fill:#2792cb;stroke:#2792cb;" x="957.543378" xlink:href="#m15a89d83e7" y="448.973633"/>
     <use style="fill:#2792cb;stroke:#2792cb;" x="962.154948" xlink:href="#m15a89d83e7" y="448.357215"/>
     <use style="fill:#2792cb;stroke:#2792cb;" x="966.766519" xlink:href="#m15a89d83e7" y="444.453237"/>
     <use style="fill:#2792cb;stroke:#2792cb;" x="971.378089" xlink:href="#m15a89d83e7" y="442.193038"/>
     <use style="fill:#2792cb;stroke:#2792cb;" x="985.2128" xlink:href="#m15a89d83e7" y="438.905478"/>
     <use style="fill:#2792cb;stroke:#2792cb;" x="989.82437" xlink:href="#m15a89d83e7" y="436.234334"/>
     <use style="fill:#2792cb;stroke:#2792cb;" x="994.43594" xlink:href="#m15a89d83e7" y="435.206972"/>
     <use style="fill:#2792cb;stroke:#2792cb;" x="999.04751" xlink:href="#m15a89d83e7" y="435.206972"/>
     <use style="fill:#2792cb;stroke:#2792cb;" x="1003.659081" xlink:href="#m15a89d83e7" y="433.357719"/>
     <use style="fill:#2792cb;stroke:#2792cb;" x="1017.493791" xlink:href="#m15a89d83e7" y="430.070158"/>
     <use style="fill:#2792cb;stroke:#2792cb;" x="1022.105362" xlink:href="#m15a89d83e7" y="434.179609"/>
     <use style="fill:#2792cb;stroke:#2792cb;" x="1026.716932" xlink:href="#m15a89d83e7" y="428.63185"/>
     <use style="fill:#2792cb;stroke:#2792cb;" x="1031.328502" xlink:href="#m15a89d83e7" y="430.481103"/>
     <use style="fill:#2792cb;stroke:#2792cb;" x="1035.940072" xlink:href="#m15a89d83e7" y="426.371652"/>
     <use style="fill:#2792cb;stroke:#2792cb;" x="1049.774783" xlink:href="#m15a89d83e7" y="422.262201"/>
     <use style="fill:#2792cb;stroke:#2792cb;" x="1054.386353" xlink:href="#m15a89d83e7" y="411.372155"/>
     <use style="fill:#2792cb;stroke:#2792cb;" x="1086.667345" xlink:href="#m15a89d83e7" y="369.250282"/>
     <use style="fill:#2792cb;stroke:#2792cb;" x="1091.278915" xlink:href="#m15a89d83e7" y="361.236852"/>
     <use style="fill:#2792cb;stroke:#2792cb;" x="1095.890486" xlink:href="#m15a89d83e7" y="348.086609"/>
     <use style="fill:#2792cb;stroke:#2792cb;" x="1100.502056" xlink:href="#m15a89d83e7" y="341.306015"/>
     <use style="fill:#2792cb;stroke:#2792cb;" x="1114.336767" xlink:href="#m15a89d83e7" y="329.594079"/>
     <use style="fill:#2792cb;stroke:#2792cb;" x="1118.948337" xlink:href="#m15a89d83e7" y="315.621946"/>
     <use style="fill:#2792cb;stroke:#2792cb;" x="1123.559907" xlink:href="#m15a89d83e7" y="299.184141"/>
     <use style="fill:#2792cb;stroke:#2792cb;" x="1128.171477" xlink:href="#m15a89d83e7" y="292.198075"/>
    </g>
   </g>
   <g id="patch_3">
    <path d="M 62.89875 501.738984 
L 1178.89875 501.738984 
" style="fill:none;stroke:#000000;stroke-linecap:square;stroke-linejoin:miter;stroke-width:0.8;"/>
   </g>
   <g id="legend_1">
    <g id="line2d_59">
     <path d="M 1091.653438 25.237422 
L 1111.653438 25.237422 
" style="fill:none;stroke:#dbcd00;stroke-linecap:square;stroke-width:2;"/>
    </g>
    <g id="line2d_60">
     <g>
      <use style="fill:#dbcd00;stroke:#dbcd00;" x="1101.653438" xlink:href="#mc6568c8290" y="25.237422"/>
     </g>
    </g>
    <g id="text_34">
     <!-- Genesene -->
     <defs>
      <path d="M 59.515625 10.40625 
L 59.515625 29.984375 
L 43.40625 29.984375 
L 43.40625 38.09375 
L 69.28125 38.09375 
L 69.28125 6.78125 
Q 63.578125 2.734375 56.6875 0.65625 
Q 49.8125 -1.421875 42 -1.421875 
Q 24.90625 -1.421875 15.25 8.5625 
Q 5.609375 18.5625 5.609375 36.375 
Q 5.609375 54.25 15.25 64.234375 
Q 24.90625 74.21875 42 74.21875 
Q 49.125 74.21875 55.546875 72.453125 
Q 61.96875 70.703125 67.390625 67.28125 
L 67.390625 56.78125 
Q 61.921875 61.421875 55.765625 63.765625 
Q 49.609375 66.109375 42.828125 66.109375 
Q 29.4375 66.109375 22.71875 58.640625 
Q 16.015625 51.171875 16.015625 36.375 
Q 16.015625 21.625 22.71875 14.15625 
Q 29.4375 6.6875 42.828125 6.6875 
Q 48.046875 6.6875 52.140625 7.59375 
Q 56.25 8.5 59.515625 10.40625 
z
" id="DejaVuSans-71"/>
      <path d="M 44.28125 53.078125 
L 44.28125 44.578125 
Q 40.484375 46.53125 36.375 47.5 
Q 32.28125 48.484375 27.875 48.484375 
Q 21.1875 48.484375 17.84375 46.4375 
Q 14.5 44.390625 14.5 40.28125 
Q 14.5 37.15625 16.890625 35.375 
Q 19.28125 33.59375 26.515625 31.984375 
L 29.59375 31.296875 
Q 39.15625 29.25 43.1875 25.515625 
Q 47.21875 21.78125 47.21875 15.09375 
Q 47.21875 7.46875 41.1875 3.015625 
Q 35.15625 -1.421875 24.609375 -1.421875 
Q 20.21875 -1.421875 15.453125 -0.5625 
Q 10.6875 0.296875 5.421875 2 
L 5.421875 11.28125 
Q 10.40625 8.6875 15.234375 7.390625 
Q 20.0625 6.109375 24.8125 6.109375 
Q 31.15625 6.109375 34.5625 8.28125 
Q 37.984375 10.453125 37.984375 14.40625 
Q 37.984375 18.0625 35.515625 20.015625 
Q 33.0625 21.96875 24.703125 23.78125 
L 21.578125 24.515625 
Q 13.234375 26.265625 9.515625 29.90625 
Q 5.8125 33.546875 5.8125 39.890625 
Q 5.8125 47.609375 11.28125 51.796875 
Q 16.75 56 26.8125 56 
Q 31.78125 56 36.171875 55.265625 
Q 40.578125 54.546875 44.28125 53.078125 
z
" id="DejaVuSans-115"/>
     </defs>
     <g transform="translate(1119.653438 28.737422)scale(0.1 -0.1)">
      <use xlink:href="#DejaVuSans-71"/>
      <use x="77.490234" xlink:href="#DejaVuSans-101"/>
      <use x="139.013672" xlink:href="#DejaVuSans-110"/>
      <use x="202.392578" xlink:href="#DejaVuSans-101"/>
      <use x="263.916016" xlink:href="#DejaVuSans-115"/>
      <use x="316.015625" xlink:href="#DejaVuSans-101"/>
      <use x="377.539062" xlink:href="#DejaVuSans-110"/>
      <use x="440.917969" xlink:href="#DejaVuSans-101"/>
     </g>
    </g>
    <g id="line2d_61">
     <path d="M 1091.653438 39.915547 
L 1111.653438 39.915547 
" style="fill:none;stroke:#2792cb;stroke-linecap:square;stroke-width:2;"/>
    </g>
    <g id="line2d_62">
     <g>
      <use style="fill:#2792cb;stroke:#2792cb;" x="1101.653438" xlink:href="#m15a89d83e7" y="39.915547"/>
     </g>
    </g>
    <g id="text_35">
     <!-- Erkrankte -->
     <defs>
      <path d="M 9.8125 72.90625 
L 55.90625 72.90625 
L 55.90625 64.59375 
L 19.671875 64.59375 
L 19.671875 43.015625 
L 54.390625 43.015625 
L 54.390625 34.71875 
L 19.671875 34.71875 
L 19.671875 8.296875 
L 56.78125 8.296875 
L 56.78125 0 
L 9.8125 0 
z
" id="DejaVuSans-69"/>
      <path d="M 41.109375 46.296875 
Q 39.59375 47.171875 37.8125 47.578125 
Q 36.03125 48 33.890625 48 
Q 26.265625 48 22.1875 43.046875 
Q 18.109375 38.09375 18.109375 28.8125 
L 18.109375 0 
L 9.078125 0 
L 9.078125 54.6875 
L 18.109375 54.6875 
L 18.109375 46.1875 
Q 20.953125 51.171875 25.484375 53.578125 
Q 30.03125 56 36.53125 56 
Q 37.453125 56 38.578125 55.875 
Q 39.703125 55.765625 41.0625 55.515625 
z
" id="DejaVuSans-114"/>
      <path d="M 9.078125 75.984375 
L 18.109375 75.984375 
L 18.109375 31.109375 
L 44.921875 54.6875 
L 56.390625 54.6875 
L 27.390625 29.109375 
L 57.625 0 
L 45.90625 0 
L 18.109375 26.703125 
L 18.109375 0 
L 9.078125 0 
z
" id="DejaVuSans-107"/>
      <path d="M 18.3125 70.21875 
L 18.3125 54.6875 
L 36.8125 54.6875 
L 36.8125 47.703125 
L 18.3125 47.703125 
L 18.3125 18.015625 
Q 18.3125 11.328125 20.140625 9.421875 
Q 21.96875 7.515625 27.59375 7.515625 
L 36.8125 7.515625 
L 36.8125 0 
L 27.59375 0 
Q 17.1875 0 13.234375 3.875 
Q 9.28125 7.765625 9.28125 18.015625 
L 9.28125 47.703125 
L 2.6875 47.703125 
L 2.6875 54.6875 
L 9.28125 54.6875 
L 9.28125 70.21875 
z
" id="DejaVuSans-116"/>
     </defs>
     <g transform="translate(1119.653438 43.415547)scale(0.1 -0.1)">
      <use xlink:href="#DejaVuSans-69"/>
      <use x="63.183594" xlink:href="#DejaVuSans-114"/>
      <use x="104.296875" xlink:href="#DejaVuSans-107"/>
      <use x="162.207031" xlink:href="#DejaVuSans-114"/>
      <use x="203.320312" xlink:href="#DejaVuSans-97"/>
      <use x="264.599609" xlink:href="#DejaVuSans-110"/>
      <use x="327.978516" xlink:href="#DejaVuSans-107"/>
      <use x="385.888672" xlink:href="#DejaVuSans-116"/>
      <use x="425.097656" xlink:href="#DejaVuSans-101"/>
     </g>
    </g>
   </g>
  </g>
 </g>
 <defs>
  <clipPath id="p1798ec7c9a">
   <rect height="489.6" width="1116" x="62.89875" y="12.138984"/>
  </clipPath>
 </defs>
</svg>
